# https://github.com/mikedh/trimesh

o boxsmall_f1000.ply
v -0.10625442 -0.07653081 0.09855166 0.82352941 0.85098039 0.35294118
v -0.01660116 -0.07447713 0.15437803 0.49803922 0.64705882 0.29019608
v -0.00117218 -0.07264934 0.14568666 0.64705882 0.75294118 0.33725490
v -0.07717042 -0.07530719 0.10080652 0.73725490 0.80392157 0.36470588
v -0.09922727 -0.07009887 0.07710348 0.77647059 0.83529412 0.39215686
v -0.10944420 -0.07465663 0.09183849 0.79607843 0.84313725 0.38431373
v -0.07762295 -0.07177531 0.12177294 0.72549020 0.80784314 0.35294118
v -0.03370367 -0.07274273 0.16498996 0.54509804 0.70980392 0.33725490
v -0.06628170 -0.06866172 0.15681232 0.59607843 0.72156863 0.28627451
v 0.02998154 -0.07297483 0.16638384 0.37254902 0.46274510 0.22352941
v -0.11646743 -0.06922558 0.11202595 0.80784314 0.83529412 0.33725490
v -0.00853408 -0.06921552 0.16248823 0.54509804 0.68627451 0.28627451
v -0.02514585 -0.06829620 0.16263370 0.52549020 0.64705882 0.25490196
v -0.04643254 -0.06956306 0.16243450 0.69019608 0.83137255 0.46666667
v 0.04415462 -0.06849885 0.17575224 0.61568627 0.76470588 0.39215686
v -0.05003391 -0.06885578 0.14989390 0.74117647 0.85490196 0.47058824
v -0.10870686 -0.06880847 0.15464909 0.63921569 0.73725490 0.28627451
v -0.07968184 -0.07175431 0.14490594 0.66666667 0.76862745 0.32549020
v -0.10446015 -0.06715099 0.11159894 0.77254902 0.82352941 0.34901961
v 0.02175552 -0.06947317 0.16479630 0.57254902 0.67058824 0.27450980
v 0.03490410 -0.06660232 0.13710479 0.69411765 0.76862745 0.33725490
v -0.04640942 -0.06713418 0.13026457 0.72549020 0.81176471 0.38431373
v -0.12868070 -0.06601087 0.10793842 0.79607843 0.83529412 0.38039216
v -0.08275358 -0.06492958 0.07491422 0.75294118 0.81176471 0.38039216
v -0.02961265 -0.06741209 0.14014492 0.68627451 0.76862745 0.33333333
v -0.06083023 -0.06836064 0.13050698 0.72156863 0.81176471 0.37254902
v -0.12372089 -0.07037314 0.13478001 0.75686275 0.81568627 0.35686275
v -0.06466026 -0.06426139 0.08371452 0.72941176 0.79215686 0.36470588
v -0.06746197 -0.06669455 0.14651462 0.68627451 0.79215686 0.33333333
v -0.08451206 -0.06790153 0.15615664 0.54117647 0.65882353 0.25098039
v 0.00844462 -0.06709319 0.17142504 0.65098039 0.78039216 0.30196078
v 0.03671215 -0.06630771 0.15803587 0.64705882 0.70980392 0.28235294
v -0.13164744 -0.06880937 0.15070693 0.68235294 0.71764706 0.29411765
v -0.15163958 -0.06460142 0.13903146 0.75294118 0.72549020 0.30980392
v -0.09325435 -0.06831678 0.15928388 0.71372549 0.81568627 0.32941176
v -0.05637196 -0.06418734 0.16567441 0.69411765 0.81176471 0.41568627
v 0.06523311 -0.06396729 0.18174891 0.31764706 0.78431373 0.59607843
v 0.03772708 -0.06306148 0.12859212 0.64705882 0.72156863 0.32156863
v 0.07490636 -0.06609114 0.17746162 0.35294118 0.72156863 0.56470588
v -0.15136271 -0.06764701 0.15383371 0.76862745 0.72941176 0.30980392
v 0.04978890 -0.06348341 0.16946238 0.61176471 0.80784314 0.59215686
v -0.14130791 -0.06248938 0.12118496 0.76078431 0.71372549 0.29803922
v 0.00900153 -0.06632027 0.12042446 0.69803922 0.76862745 0.32549020
v -0.05279076 -0.06677515 0.11559768 0.70588235 0.78431373 0.34509804
v -0.15701220 -0.06458127 0.15125056 0.82352941 0.79607843 0.37647059
v -0.10993371 -0.06318012 0.15834842 0.80784314 0.85490196 0.36862745
v 0.08342070 -0.06364384 0.18565003 0.37254902 0.82745098 0.66274510
v 0.02070392 -0.06380918 0.11406446 0.67058824 0.73333333 0.27843137
v 0.00356598 -0.06199749 0.17515249 0.74509804 0.85490196 0.36078431
v -0.05161662 -0.06123355 0.13963644 0.74901961 0.83921569 0.42352941
v 0.03885834 -0.06049616 0.14417812 0.67450980 0.74117647 0.31764706
v 0.07275841 -0.05631050 0.17645007 0.32156863 0.70980392 0.56470588
v 0.05270486 -0.06214022 0.15891508 0.61960784 0.74901961 0.39607843
v 0.01214749 -0.05578369 0.10964721 0.68627451 0.75686275 0.29803922
v 0.09013442 -0.05561287 0.15993931 0.52549020 0.83137255 0.57254902
v -0.00134303 -0.05983111 0.12439798 0.69019608 0.76078431 0.32941176
v -0.01838207 -0.05934342 0.13260081 0.67058824 0.73333333 0.30588235
v -0.04161246 -0.05868771 0.12327442 0.69019608 0.75686275 0.32941176
v -0.04683898 -0.06056722 0.08363828 0.70196078 0.76470588 0.33333333
v -0.04304564 -0.05776175 0.10491208 0.69019608 0.75294118 0.31764706
v -0.12628935 -0.05304518 0.05370320 0.78039216 0.85098039 0.39215686
v -0.14111856 -0.05232206 0.07307886 0.79215686 0.86274510 0.39607843
v 0.02838044 -0.05802915 0.12002384 0.65882353 0.72156863 0.28235294
v -0.00980563 -0.05705431 0.12164296 0.69019608 0.75686275 0.33725490
v 0.04169493 -0.05739785 0.12934427 0.58431373 0.68235294 0.30980392
v 0.04042024 -0.04337171 0.18679471 0.60784314 0.83529412 0.43137255
v 0.07960579 -0.05829613 0.16625719 0.41960784 0.79215686 0.59215686
v 0.05045131 -0.05710554 0.15365329 0.58431373 0.76078431 0.42745098
v 0.06680880 -0.05698208 0.16374964 0.39215686 0.74509804 0.53725490
v -0.15146799 -0.05744223 0.10765294 0.73725490 0.80000000 0.36470588
v -0.07395452 -0.05390662 0.08017356 0.70588235 0.76078431 0.33725490
v -0.14985076 -0.05586478 0.09306669 0.77254902 0.86274510 0.39607843
v -0.15445542 -0.05724039 0.12289893 0.86274510 0.81176471 0.36470588
v 0.08547584 -0.05410406 0.14447450 0.63921569 0.81568627 0.43529412
v 0.07748940 -0.05688879 0.11657409 0.68627451 0.75686275 0.29019608
v -0.02474101 -0.05514105 0.10734804 0.69411765 0.75294118 0.31372549
v 0.07949210 -0.03709255 0.19630864 0.56470588 0.83921569 0.52941176
v -0.03738775 -0.05053499 0.09133310 0.68627451 0.74509804 0.31372549
v -0.06087029 -0.05069200 0.07038727 0.74901961 0.82352941 0.40784314
v -0.06249606 -0.04636725 0.05515511 0.70196078 0.76078431 0.34117647
v -0.04342630 -0.05680719 0.06857944 0.70588235 0.76470588 0.33333333
v -0.06920521 -0.04972395 0.08170828 0.67843137 0.72549020 0.31372549
v -0.08587820 -0.05480894 0.05063487 0.74509804 0.80392157 0.37254902
v -0.09852371 -0.05161667 0.03264987 0.75686275 0.82745098 0.38039216
v 0.04639845 -0.05320487 0.11111775 0.66274510 0.71764706 0.27450980
v 0.03643138 -0.05051192 0.10330769 0.67058824 0.72941176 0.27843137
v 0.08597871 -0.02723710 0.19208972 0.58431373 0.81176471 0.49411765
v 0.06830353 -0.05278505 0.14603020 0.68235294 0.75686275 0.31372549
v 0.05988815 -0.05385953 0.12259077 0.67058824 0.72941176 0.27450980
v 0.05896581 -0.05106616 0.13057382 0.68627451 0.75686275 0.32941176
v -0.03372208 -0.03020294 0.17909694 0.76862745 0.87450980 0.38823529
v 0.02107701 -0.04950350 0.09993326 0.67058824 0.73333333 0.28627451
v 0.07769633 -0.05405184 0.14759388 0.71764706 0.82745098 0.40392157
v -0.00743769 -0.05154699 0.10345846 0.67450980 0.73333333 0.30588235
v -0.02600758 -0.04849633 0.09645347 0.67450980 0.72941176 0.30588235
v 0.07460333 -0.04869571 0.12755894 0.69803922 0.76470588 0.30588235
v 0.07641912 -0.04880586 0.15032769 0.71764706 0.81960784 0.41960784
v -0.07541322 -0.04587098 0.06512826 0.66274510 0.70588235 0.30980392
v -0.01413103 -0.04823676 0.07686578 0.70588235 0.76862745 0.31764706
v 0.09418162 -0.04633125 0.12291535 0.78039216 0.85098039 0.38431373
v 0.07378516 -0.04680442 0.10303851 0.65882353 0.71372549 0.26666667
v 0.05883627 -0.04794749 0.09044085 0.69019608 0.75686275 0.29019608
v 0.03596591 -0.04630778 0.09120489 0.67843137 0.74117647 0.29019608
v 0.07775470 -0.04769215 0.13846707 0.77254902 0.83529412 0.38039216
v -0.15862325 0.00610107 0.16013946 0.81960784 0.89411765 0.42352941
v 0.01866445 -0.04470847 0.08116396 0.69019608 0.74509804 0.29411765
v -0.15227617 -0.03916882 0.10638478 0.80392157 0.87843137 0.40392157
v 0.07982001 -0.04240918 0.11992147 0.71764706 0.77647059 0.33333333
v -0.14626917 -0.04436257 0.07211787 0.72941176 0.82745098 0.35686275
v 0.08518345 -0.04763960 0.12448672 0.73725490 0.81568627 0.41568627
v -0.02726396 -0.04510312 0.05452126 0.69019608 0.74901961 0.30980392
v -0.14183106 -0.04533474 0.05333623 0.80784314 0.87450980 0.47843137
v -0.07386411 -0.04268366 0.04217907 0.70980392 0.76862745 0.33725490
v -0.11052526 -0.04352155 0.01405720 0.75686275 0.83529412 0.37647059
v -0.08089421 -0.04451979 0.01797338 0.73725490 0.80000000 0.36078431
v -0.00283907 -0.04683196 0.08716566 0.69411765 0.76078431 0.31372549
v 0.04078283 -0.04386320 0.08132045 0.69019608 0.76470588 0.29803922
v 0.08284805 -0.04493700 0.09058553 0.66274510 0.72549020 0.27058824
v 0.00546188 -0.04261035 0.07585422 0.69019608 0.74901961 0.29803922
v 0.09450790 -0.03297257 0.13778973 0.76078431 0.88627451 0.44705882
v -0.01561570 -0.04256019 0.06115764 0.68627451 0.74901961 0.30196078
v 0.09041117 -0.04461695 0.10849928 0.75686275 0.82352941 0.35686275
v 0.07037725 -0.04190392 0.08436058 0.68627451 0.75686275 0.29803922
v -0.00512959 -0.04425807 0.05120071 0.66274510 0.71764706 0.27843137
v -0.06716136 -0.04303489 0.06211950 0.69803922 0.75686275 0.35294118
v -0.13476271 -0.03890410 0.03772122 0.72549020 0.81960784 0.34509804
v -0.12660777 -0.03953229 0.02274685 0.72941176 0.81176471 0.35294118
v -0.14295399 -0.03875066 0.04760870 0.76078431 0.84705882 0.41568627
v -0.15686323 -0.02467900 0.16153380 0.80784314 0.87843137 0.41960784
v 0.01173981 -0.04248033 0.05873662 0.68235294 0.73725490 0.30588235
v 0.02433513 -0.04020228 0.06119616 0.69411765 0.76078431 0.30196078
v -0.03960251 -0.03936538 0.04706686 0.67450980 0.72941176 0.30980392
v 0.09355620 -0.03804783 0.08445352 0.71764706 0.78431373 0.31372549
v 0.06124807 -0.03872032 0.06486810 0.69411765 0.76078431 0.30588235
v 0.03815620 -0.04102185 0.06021494 0.67843137 0.74509804 0.28627451
v 0.07993247 -0.03972742 0.06179101 0.65098039 0.71372549 0.28627451
v 0.09983948 -0.03626220 0.08761171 0.76470588 0.84313725 0.37647059
v 0.09515624 -0.03590025 0.06903879 0.69019608 0.75686275 0.30588235
v 0.00055726 -0.03888476 0.05926598 0.68627451 0.74509804 0.30196078
v -0.01291270 -0.04021288 0.04924161 0.68627451 0.75294118 0.30196078
v -0.07126623 -0.03700804 0.03218918 0.69411765 0.74901961 0.31764706
v -0.08493339 -0.04092123 -0.01324712 0.74117647 0.80392157 0.36470588
v -0.00126171 -0.04091587 0.02859248 0.63529412 0.70588235 0.28627451
v 0.05168950 -0.03616859 0.05735324 0.67450980 0.73725490 0.28627451
v 0.01609337 -0.02114349 0.18940825 0.76078431 0.86274510 0.34117647
v 0.00948571 -0.03799034 0.02513042 0.66666667 0.74509804 0.29411765
v 0.02189131 -0.03716272 0.04042119 0.69803922 0.76470588 0.30588235
v 0.01750100 -0.03705978 0.02488672 0.69411765 0.76862745 0.29803922
v -0.05329570 -0.04038164 0.02700055 0.61568627 0.67843137 0.25490196
v -0.05458940 -0.03974223 0.04109864 0.67450980 0.72941176 0.31764706
v -0.01987341 -0.03631460 0.03495302 0.67843137 0.72941176 0.29803922
v -0.00550304 -0.03639050 0.03739800 0.68627451 0.74901961 0.30588235
v -0.14154700 -0.03697094 0.09606955 0.74509804 0.78823529 0.41568627
v 0.02965312 -0.03575754 0.05054458 0.68627451 0.74901961 0.29411765
v 0.01291671 -0.03315629 0.02924577 0.69803922 0.76862745 0.31764706
v 0.02104282 -0.03635995 0.02993452 0.65490196 0.72156863 0.29411765
v -0.04580003 -0.03185299 0.01985721 0.66666667 0.72941176 0.30588235
v 0.07956341 -0.03597808 0.04637223 0.66274510 0.72156863 0.29019608
v 0.00851115 -0.03589710 0.01202411 0.66274510 0.72941176 0.28235294
v -0.13740048 -0.03315366 0.01552225 0.69803922 0.78039216 0.32549020
v -0.10774428 0.01306743 0.17775040 0.79607843 0.88627451 0.40784314
v 0.04707352 -0.03611639 0.03839750 0.68235294 0.74901961 0.29803922
v 0.06544759 -0.03151622 0.04934730 0.69019608 0.75294118 0.29803922
v 0.00916738 -0.03059536 0.01250343 0.68627451 0.74509804 0.30980392
v 0.02057447 -0.03243532 0.01316027 0.69019608 0.75686275 0.30588235
v -0.01962678 -0.02938556 0.01828001 0.70196078 0.75686275 0.31764706
v -0.02617995 -0.03134386 0.00449347 0.69411765 0.72156863 0.29019608
v 0.03048325 -0.03488835 0.01277659 0.69019608 0.72941176 0.26274510
v -0.05387702 -0.03387987 -0.00139331 0.69019608 0.73333333 0.31372549
v -0.05125538 -0.02863097 -0.01085900 0.67843137 0.70980392 0.30588235
v -0.06806236 -0.03770044 -0.01801635 0.71764706 0.75686275 0.34117647
v -0.04388925 -0.03017391 -0.04917973 0.70588235 0.72549020 0.32941176
v -0.08769175 -0.03117543 -0.05324671 0.73725490 0.80392157 0.36078431
v -0.06711919 -0.02650490 -0.07957708 0.72549020 0.76862745 0.34901961
v -0.00277595 -0.03137152 0.02012259 0.67843137 0.73725490 0.32156863
v 0.03633367 -0.03247136 0.03070767 0.66274510 0.72549020 0.27450980
v -0.03842274 -0.03143489 0.02281604 0.67058824 0.72156863 0.30980392
v -0.02752800 -0.03068384 -0.01591846 0.63137255 0.51764706 0.16078431
v 0.02472412 -0.02816799 0.00244633 0.68627451 0.66274510 0.26274510
v 0.09866872 -0.03072906 0.04653538 0.74117647 0.80784314 0.33333333
v -0.01333242 -0.02566344 -0.00619195 0.68627451 0.57254902 0.19607843
v 0.06161964 -0.03198310 0.02132527 0.63921569 0.69803922 0.27843137
v 0.03711628 -0.03006201 -0.00339648 0.64705882 0.58039216 0.25490196
v -0.13034545 -0.02776269 -0.00009771 0.71764706 0.79607843 0.36078431
v 0.03557195 -0.02968117 0.01782439 0.68627451 0.74509804 0.30196078
v 0.05862421 -0.02920133 0.03749362 0.68235294 0.74901961 0.29019608
v 0.08753013 -0.03013736 0.03344496 0.68627451 0.74509804 0.29411765
v 0.07488913 -0.02845652 0.02434077 0.68235294 0.72941176 0.28235294
v 0.09099978 -0.02862373 0.01418996 0.72156863 0.75686275 0.33725490
v 0.10059563 -0.02476328 0.02340030 0.79215686 0.86274510 0.47058824
v 0.05074972 -0.02448660 -0.00020235 0.66666667 0.54901961 0.19215686
v 0.10859744 -0.01471840 0.02708004 0.86666667 0.92156863 0.60000000
v -0.01425672 -0.02828796 -0.01958488 0.63529412 0.49803922 0.16078431
v 0.00450025 -0.02887673 0.00738232 0.68627451 0.67058824 0.25490196
v 0.05153366 -0.03049442 0.02134086 0.64705882 0.65098039 0.25490196
v -0.04009798 -0.02775074 -0.01760775 0.67450980 0.65882353 0.27058824
v -0.12658811 -0.02496456 -0.01558101 0.70980392 0.80392157 0.33333333
v -0.11844216 -0.02623265 -0.03556943 0.78039216 0.83921569 0.32549020
v 0.08508128 -0.02974757 0.00436590 0.67843137 0.58039216 0.18823529
v 0.04127175 -0.02513443 -0.00756808 0.64705882 0.53725490 0.23137255
v -0.04257960 -0.02027949 -0.01036050 0.65490196 0.68627451 0.29803922
v -0.01761166 -0.02329474 -0.02898853 0.61960784 0.51372549 0.17647059
v 0.10674112 -0.02245351 0.03343747 0.76078431 0.84705882 0.38039216
v -0.14337150 0.00990711 0.05112197 0.78431373 0.86666667 0.39215686
v -0.13424754 -0.02199617 -0.01533096 0.76470588 0.85098039 0.38039216
v 0.07760686 -0.02363626 0.00513315 0.69411765 0.58431373 0.18431373
v 0.00289078 -0.02428187 -0.00535541 0.69019608 0.58039216 0.21176471
v -0.05047708 -0.02374653 -0.06690759 0.70196078 0.74117647 0.31372549
v -0.03249594 -0.02361431 -0.02974104 0.67843137 0.65882353 0.28235294
v -0.11257518 -0.02379463 -0.04502770 0.73333333 0.81960784 0.36078431
v -0.09984801 -0.02096934 -0.07125472 0.73725490 0.81176471 0.36078431
v 0.04303249 -0.02437847 -0.02687477 0.65882353 0.56078431 0.22745098
v 0.02954381 -0.02301799 -0.01791010 0.66274510 0.51764706 0.16078431
v 0.07129945 -0.02473460 -0.00308634 0.69411765 0.56470588 0.17254902
v -0.13616938 -0.02493444 0.03186631 0.72549020 0.81176471 0.39607843
v 0.04541274 -0.02114036 -0.02089233 0.65882353 0.56078431 0.21176471
v 0.02642335 -0.02304954 -0.00761867 0.65098039 0.53333333 0.21568627
v -0.06251072 -0.02354490 0.01564786 0.68627451 0.70588235 0.31764706
v -0.03593822 -0.02081799 -0.05794039 0.65882353 0.70196078 0.27450980
v 0.06074430 -0.02115820 -0.01184549 0.66274510 0.53333333 0.19215686
v 0.01859872 -0.01954466 -0.02224938 0.68627451 0.57647059 0.22352941
v 0.07755614 -0.00801177 0.20289502 0.74117647 0.83529412 0.36078431
v -0.00623925 -0.01700684 -0.03196236 0.61568627 0.50980392 0.16862745
v 0.06056237 -0.02148577 -0.03398448 0.70980392 0.66666667 0.30980392
v 0.00248986 -0.02188958 -0.02798403 0.66666667 0.54901961 0.18823529
v -0.05323612 -0.02162388 -0.09726284 0.73725490 0.73725490 0.28627451
v -0.06867691 -0.01694116 -0.10955175 0.69803922 0.74901961 0.31764706
v -0.05672345 -0.02038876 -0.08483718 0.69411765 0.72549020 0.30588235
v -0.01276382 -0.02174015 -0.04491081 0.66274510 0.60784314 0.23921569
v 0.09618728 -0.02087991 -0.00762124 0.74117647 0.76078431 0.38039216
v 0.08590331 -0.01586240 -0.02364944 0.69411765 0.57647059 0.17647059
v 0.04683724 -0.01942172 -0.04059394 0.63529412 0.53725490 0.21960784
v 0.03974517 -0.01711629 -0.03324950 0.63921569 0.52549020 0.20000000
v -0.12247489 -0.02107577 -0.02997371 0.70980392 0.80784314 0.31764706
v 0.06773533 -0.01819056 -0.04187897 0.69803922 0.65490196 0.29019608
v 0.09956784 -0.01669819 -0.03197681 0.78431373 0.83529412 0.50196078
v 0.02812247 -0.01935681 -0.04099175 0.73333333 0.78431373 0.43921569
v 0.06849924 -0.01596565 -0.02616717 0.68627451 0.60784314 0.24705882
v 0.06402725 -0.01541206 -0.04062154 0.70196078 0.65490196 0.30980392
v -0.12899287 -0.01488650 -0.04448838 0.72156863 0.81176471 0.36078431
v -0.11898722 -0.01398860 -0.04978271 0.71372549 0.81568627 0.33333333
v 0.01721006 -0.01795984 -0.03885871 0.70980392 0.69411765 0.31764706
v -0.11601286 -0.00998164 -0.07308396 0.74117647 0.84313725 0.36862745
v -0.00740575 -0.01988664 -0.06133830 0.69019608 0.67450980 0.28235294
v -0.12409623 -0.01358366 -0.06115399 0.72941176 0.83137255 0.37254902
v 0.08530234 0.02579126 0.21023951 0.77254902 0.84313725 0.41176471
v 0.07972027 -0.00226749 0.20749176 0.74901961 0.82352941 0.38431373
v 0.08099556 -0.01676021 -0.04816894 0.65490196 0.54509804 0.18039216
v 0.10887844 -0.01538009 -0.01225153 0.88235294 0.96078431 0.70980392
v 0.04246960 -0.01724335 -0.04571868 0.65490196 0.55294118 0.20000000
v 0.08979582 -0.01603937 -0.04642134 0.64313725 0.53333333 0.17647059
v -0.02797400 -0.01309356 -0.07212846 0.68627451 0.71372549 0.28627451
v -0.04238450 -0.01242382 -0.04822709 0.68235294 0.72549020 0.33725490
v -0.04261443 -0.01505199 -0.03702600 0.67450980 0.70588235 0.33725490
v 0.05797565 -0.01469229 -0.05136708 0.67843137 0.60784314 0.22745098
v 0.08730716 -0.01044352 -0.03244393 0.67843137 0.56862745 0.18039216
v 0.09530325 0.03897279 0.14615392 0.81176471 0.88235294 0.39607843
v -0.05496082 -0.01494357 -0.11080696 0.70196078 0.72156863 0.29019608
v 0.02976596 -0.01379830 -0.04492281 0.68235294 0.57254902 0.21176471
v -0.03345566 -0.01157321 -0.03213493 0.57254902 0.52156863 0.24705882
v -0.03693920 -0.01419883 -0.02113149 0.61568627 0.56470588 0.29411765
v 0.01832180 -0.01221341 -0.05160624 0.70588235 0.70196078 0.32549020
v -0.04139655 -0.00963040 -0.07968173 0.65490196 0.70980392 0.29019608
v 0.08091776 -0.01426915 -0.03863500 0.64705882 0.52941176 0.20000000
v -0.03240667 -0.01085745 -0.02427065 0.59607843 0.54117647 0.27058824
v -0.03998311 -0.01630640 -0.01213663 0.65490196 0.59215686 0.30588235
v -0.08691306 -0.01126862 -0.10096984 0.69411765 0.74901961 0.32549020
v 0.01301449 -0.01231381 -0.07735388 0.68627451 0.65882353 0.28235294
v -0.11077517 -0.00547551 -0.09463770 0.69803922 0.78039216 0.31372549
v 0.03857233 -0.01325623 -0.06202443 0.70196078 0.61176471 0.22352941
v 0.04882328 -0.01129371 -0.05927726 0.69411765 0.62745098 0.26666667
v 0.07689182 -0.01191301 -0.04562721 0.65882353 0.54901961 0.19215686
v 0.03180249 -0.01149417 -0.08706417 0.70980392 0.72156863 0.32549020
v -0.05607035 -0.00975445 -0.08701356 0.67843137 0.72156863 0.29803922
v 0.06558560 -0.01228132 -0.06387378 0.70980392 0.66666667 0.28627451
v 0.11189694 -0.00799381 -0.00476099 0.94509804 0.98431373 0.87450980
v 0.04469238 -0.00055480 -0.10166501 0.54117647 0.58039216 0.30588235
v 0.06423018 -0.00941754 -0.05478348 0.72549020 0.68627451 0.30196078
v 0.05947254 -0.01037010 -0.07296709 0.69019608 0.64313725 0.27450980
v -0.06617689 -0.00552076 -0.11149401 0.64313725 0.70588235 0.28627451
v -0.00530748 -0.01301327 -0.08080286 0.64313725 0.60392157 0.25490196
v 0.03250412 -0.01007767 -0.09653041 0.70588235 0.72156863 0.32156863
v 0.10243112 -0.00975208 -0.07456496 0.67058824 0.60392157 0.20392157
v 0.03908475 -0.00853376 -0.07927973 0.69411765 0.62745098 0.24705882
v 0.10981070 -0.00965461 -0.04864689 0.89019608 0.96470588 0.72156863
v 0.04587988 -0.00952363 -0.09775195 0.71372549 0.72941176 0.32941176
v 0.07780673 -0.00813764 -0.06893177 0.64705882 0.54117647 0.18823529
v 0.08403332 -0.00790456 -0.07556773 0.65882353 0.56862745 0.20392157
v 0.03671252 -0.00486723 -0.10486085 0.66274510 0.65490196 0.27450980
v 0.09785837 -0.00902059 -0.05567887 0.73725490 0.73333333 0.39215686
v -0.01756497 -0.00376837 -0.09018472 0.61176471 0.52941176 0.21568627
v -0.11663725 -0.00427727 -0.09327360 0.70588235 0.80000000 0.34509804
v 0.04675558 -0.00598697 -0.08793165 0.69803922 0.65490196 0.28235294
v -0.05278002 -0.00698585 -0.10861626 0.70588235 0.72549020 0.25882353
v 0.02319958 -0.00630250 -0.06924482 0.69019608 0.62745098 0.26666667
v 0.05613392 -0.00468038 -0.08327317 0.63529412 0.57647059 0.25490196
v 0.02342516 -0.00265143 -0.09263747 0.69019608 0.72156863 0.32941176
v 0.00221658 -0.00250050 -0.09252063 0.66274510 0.59607843 0.24313725
v 0.10049011 -0.00720650 -0.08405773 0.70980392 0.72156863 0.33725490
v 0.08216858 -0.00423506 -0.05800926 0.62352941 0.51764706 0.18039216
v -0.12248742 -0.00044071 -0.09147258 0.77647059 0.86274510 0.39215686
v -0.10919397 -0.00662522 -0.10736889 0.65098039 0.70196078 0.37254902
v 0.10176801 -0.00740609 -0.06487003 0.72156863 0.70196078 0.34509804
v 0.07260807 -0.00551358 -0.08159102 0.66666667 0.65490196 0.30980392
v -0.04047904 -0.00398112 -0.09184524 0.61568627 0.65490196 0.26666667
v 0.05587294 -0.00364472 -0.09192765 0.62745098 0.56862745 0.24705882
v 0.10359350 -0.00261528 -0.09298230 0.69411765 0.69019608 0.32156863
v 0.06344607 -0.00201183 -0.08892818 0.63137255 0.59215686 0.25882353
v -0.05440224 -0.00112168 -0.10731961 0.59607843 0.65882353 0.24705882
v 0.08352992 -0.00462795 -0.08659090 0.66666667 0.60392157 0.21960784
v 0.09170483 -0.00043358 -0.08962980 0.70980392 0.70980392 0.36470588
v 0.11038554 -0.00297774 -0.07397971 0.81568627 0.90588235 0.58431373
v 0.03305426 -0.00194670 -0.09776035 0.69019608 0.74117647 0.36470588
v -0.11501098 -0.00127932 -0.11071022 0.72941176 0.81176471 0.38431373
v -0.08374143 -0.00226265 -0.11108031 0.65098039 0.70980392 0.30588235
v -0.10491356 -0.00159542 -0.10325750 0.71372549 0.79215686 0.35294118
v 0.11679440 0.00256691 -0.04324410 0.95294118 0.98823529 0.88235294
v 0.08899940 -0.00139809 -0.09868147 0.63137255 0.58039216 0.23137255
v 0.04113380 -0.00085674 -0.11630101 0.61176471 0.56470588 0.20000000
v -0.12476065 0.01051485 -0.08718025 0.77254902 0.84705882 0.38039216
v 0.08036242 -0.00097240 -0.09484403 0.67450980 0.59215686 0.21960784
v -0.02253688 -0.00098596 -0.10752792 0.65098039 0.57254902 0.22352941
v -0.10924200 0.00191618 -0.11300112 0.68235294 0.76470588 0.29803922
v 0.11163031 -0.00201144 -0.10634156 0.61568627 0.56470588 0.21176471
v 0.04420715 0.00237084 -0.11065889 0.61960784 0.61568627 0.25490196
v 0.06509146 0.00079466 -0.10495287 0.63921569 0.58039216 0.19607843
v 0.11117840 0.00193430 -0.10210634 0.76470588 0.83137255 0.49019608
v 0.00562493 0.00192347 -0.10699831 0.61960784 0.51764706 0.20000000
v 0.03095148 0.00310299 -0.10782660 0.61960784 0.58431373 0.24313725
v -0.04119805 0.00238342 -0.11593863 0.62745098 0.68235294 0.25882353
v 0.09109382 0.00176223 -0.10698921 0.61960784 0.54117647 0.18039216
v 0.11916388 0.00465940 -0.10003342 0.84705882 0.94901961 0.67843137
v 0.06718224 0.00138140 -0.11625693 0.61960784 0.57254902 0.19607843
v 0.08434262 0.00171679 -0.11499228 0.64705882 0.58039216 0.19215686
v -0.09992113 0.00147233 -0.12948650 0.65098039 0.62352941 0.31372549
v 0.10980674 0.00213398 -0.11287302 0.56470588 0.65490196 0.25490196
v -0.07455936 0.00350885 -0.12630114 0.64313725 0.71764706 0.29019608
v 0.10963182 0.02317538 0.02824955 0.91764706 0.96078431 0.74901961
v 0.02729340 0.00536543 -0.12052505 0.63921569 0.59215686 0.20392157
v 0.11975140 0.00657444 -0.06841787 0.96470588 0.98823529 0.90196078
v 0.04288629 0.00599555 -0.11864209 0.65490196 0.62352941 0.24705882
v -0.09217585 0.00490975 -0.13681276 0.63137255 0.62352941 0.30588235
v -0.05312564 0.00578071 -0.13560717 0.63921569 0.70196078 0.29411765
v 0.05661636 0.00721769 -0.11150882 0.63137255 0.56078431 0.19607843
v 0.04174950 0.00658057 -0.12915840 0.66666667 0.69019608 0.23921569
v -0.00359643 0.00487743 -0.12185974 0.66666667 0.60000000 0.22352941
v -0.15962054 0.04500090 0.17704660 0.81568627 0.84705882 0.50980392
v -0.01649443 0.00683311 -0.11875153 0.62745098 0.49803922 0.18823529
v -0.10806354 0.00467728 -0.12986761 0.70196078 0.74509804 0.32941176
v 0.03607826 0.02360496 0.20382720 0.74901961 0.84705882 0.34117647
v 0.08654323 0.00710114 -0.12179966 0.60000000 0.67450980 0.24705882
v -0.04880362 0.00655827 -0.12814318 0.66666667 0.73725490 0.29803922
v 0.05431420 0.00443837 -0.13668158 0.64313725 0.71372549 0.25098039
v 0.04827480 0.00734243 -0.10358338 0.58039216 0.51372549 0.20000000
v 0.11801559 0.00739786 -0.11982624 0.43529412 0.77647059 0.30196078
v 0.09642110 0.00542120 -0.10916514 0.46274510 0.72941176 0.28235294
v 0.02152072 0.00550774 -0.13991676 0.63921569 0.72156863 0.26274510
v -0.03166708 0.00460960 -0.05976955 0.59215686 0.61960784 0.30588235
v -0.02283556 0.00599302 -0.13301926 0.65882353 0.70588235 0.28235294
v 0.08013032 0.00716240 -0.13058356 0.60000000 0.66666667 0.23921569
v -0.11665458 0.01066050 -0.13955022 0.75294118 0.71764706 0.38823529
v 0.06324056 0.00801131 -0.10004058 0.58823529 0.52549020 0.16862745
v -0.11030862 0.01035698 -0.15320827 0.67843137 0.56078431 0.32941176
v 0.07724958 0.02037974 0.21238837 0.77647059 0.85098039 0.39215686
v 0.07246271 0.00831751 -0.13911510 0.60000000 0.66274510 0.22745098
v 0.09412325 0.01235265 -0.14428411 0.56862745 0.71764706 0.24705882
v -0.09553732 0.00680349 -0.15034517 0.67843137 0.59607843 0.35686275
v 0.09983168 0.01016455 -0.13240187 0.40784314 0.71764706 0.28627451
v 0.05795635 0.00897394 -0.13047199 0.64705882 0.70980392 0.27450980
v 0.12619388 0.01512674 -0.11373020 0.61176471 0.89411765 0.53333333
v 0.04377304 0.01077092 -0.14395307 0.64705882 0.72156863 0.25882353
v 0.01594732 0.01347986 -0.15090156 0.71764706 0.81568627 0.37254902
v -0.08155350 0.01105123 -0.15383189 0.65882353 0.72549020 0.27843137
v -0.02923925 0.01148265 -0.14959124 0.64705882 0.72549020 0.28627451
v -0.06029460 0.01072915 -0.15627760 0.65882353 0.73333333 0.28627451
v 0.04002515 0.00755540 -0.11166265 0.64705882 0.65098039 0.27450980
v -0.00903722 0.01068964 -0.14194734 0.65882353 0.74117647 0.29803922
v 0.00109323 0.01040353 -0.15310181 0.68627451 0.77254902 0.30980392
v 0.00433040 0.01064821 -0.14246246 0.69019608 0.78039216 0.31764706
v 0.00276830 0.00876189 -0.08094837 0.73333333 0.71372549 0.32941176
v 0.01328784 0.01011998 -0.13031179 0.63921569 0.68627451 0.27058824
v -0.08843994 0.00826544 -0.17187744 0.65490196 0.49019608 0.25882353
v -0.13530285 0.03698609 -0.00514917 0.76862745 0.85098039 0.37647059
v -0.04495391 0.07090027 0.20108833 0.71764706 0.82352941 0.32941176
v 0.04869366 0.01043823 -0.15570499 0.64313725 0.72156863 0.23921569
v 0.06510282 0.01101396 -0.14923011 0.62745098 0.70588235 0.24313725
v -0.02865539 0.00957129 -0.07587252 0.67450980 0.68235294 0.34117647
v 0.05779510 0.01215953 -0.14212087 0.67058824 0.75686275 0.30196078
v -0.08570542 0.01156913 -0.16466670 0.70588235 0.72156863 0.29803922
v 0.11569891 0.01020283 -0.13379362 0.41176471 0.77254902 0.30588235
v 0.04571992 0.00957251 -0.15175178 0.66666667 0.76078431 0.23921569
v 0.08681363 0.01209912 -0.15222707 0.65490196 0.74509804 0.24705882
v 0.08664992 0.02039277 -0.14916694 0.68235294 0.77254902 0.29803922
v 0.10553597 0.04803185 0.06768856 0.80784314 0.88235294 0.40392157
v 0.12095054 0.01464904 -0.14759709 0.43529412 0.81568627 0.31764706
v 0.04149788 0.01388732 -0.15207129 0.67450980 0.76470588 0.29803922
v -0.06967493 0.01455428 -0.16311588 0.67058824 0.74117647 0.29803922
v -0.02716668 0.01625509 -0.15842468 0.70980392 0.78823529 0.30980392
v 0.07043401 0.01646568 -0.15447795 0.67843137 0.76470588 0.26666667
v -0.00979974 0.01626394 -0.15576931 0.69411765 0.78039216 0.34117647
v 0.12909547 0.01822308 -0.14054675 0.45490196 0.81568627 0.36470588
v -0.10917133 0.01752326 -0.17225023 0.72549020 0.59607843 0.34117647
v 0.03313914 0.01420011 -0.15789608 0.67843137 0.76078431 0.26666667
v 0.12136381 0.01657921 -0.14302705 0.47058824 0.83921569 0.35294118
v 0.12550655 0.02322355 -0.09233949 0.94901961 0.98431373 0.88235294
v -0.14662746 0.06767508 0.08182873 0.79607843 0.87843137 0.40000000
v 0.04887886 0.02075333 -0.15674463 0.69019608 0.77647059 0.30980392
v 0.05598646 0.01741363 -0.14659806 0.69803922 0.78431373 0.31372549
v -0.12847156 0.04487324 -0.05440351 0.76470588 0.84313725 0.37647059
v 0.10670268 0.01562262 -0.14135907 0.46274510 0.80784314 0.32156863
v -0.08955088 0.02207490 -0.17317160 0.74901961 0.66666667 0.36862745
v -0.05134883 0.01785931 -0.16506014 0.71764706 0.80000000 0.34509804
v 0.07257878 0.01946145 -0.14953676 0.69411765 0.78039216 0.30588235
v 0.01805941 0.01438395 -0.12002410 0.67843137 0.71764706 0.30588235
v 0.02849580 0.02464269 -0.15572971 0.76470588 0.87450980 0.40000000
v 0.12027187 0.03619328 -0.05246391 0.92549020 0.96862745 0.85882353
v -0.06509232 0.02375511 -0.16885058 0.74117647 0.83137255 0.38431373
v 0.11108248 0.02206296 -0.14742405 0.53333333 0.85490196 0.37647059
v 0.00542414 0.02321026 -0.16042048 0.73725490 0.83529412 0.38431373
v 0.07231569 0.03508993 0.21332704 0.66274510 0.74901961 0.33725490
v -0.03136059 0.02856785 -0.16366794 0.72941176 0.82352941 0.36470588
v -0.11146740 0.03373281 -0.17304078 0.80000000 0.70980392 0.41568627
v 0.06864794 0.02576548 -0.15196916 0.72941176 0.83137255 0.35294118
v 0.13113428 0.02803001 -0.12829258 0.49803922 0.89803922 0.42352941
v -0.11673252 0.03884809 -0.15028094 0.79607843 0.77254902 0.40392157
v 0.12643021 0.04969181 -0.13784691 0.50588235 0.78039216 0.34509804
v 0.12640987 0.05417846 -0.09772389 0.85490196 0.94117647 0.70588235
v 0.11505748 0.05842135 -0.00562231 0.87843137 0.93333333 0.66274510
v 0.02277779 0.04283970 -0.15394101 0.74117647 0.84313725 0.37254902
v 0.01290448 0.07026198 0.20976725 0.59607843 0.67843137 0.26274510
v 0.04664971 0.07355847 0.21461108 0.53725490 0.59607843 0.25490196
v 0.07234130 0.04925701 -0.14575761 0.71764706 0.81568627 0.34901961
v -0.12298960 0.07262411 -0.09377590 0.78039216 0.86274510 0.38431373
v 0.07834138 0.04441178 0.21808810 0.67058824 0.74509804 0.34509804
v -0.08389513 0.06044143 -0.16311565 0.73725490 0.82352941 0.37254902
v -0.15535597 0.07742220 0.14879610 0.82745098 0.87058824 0.50588235
v 0.09294345 0.07183946 -0.13792996 0.69803922 0.83921569 0.36470588
v 0.12932060 0.06224776 -0.12422948 0.67843137 0.78431373 0.34901961
v -0.11089188 0.06091878 -0.16707017 0.69019608 0.78039216 0.34901961
v 0.08349385 0.06338159 0.21874545 0.66666667 0.75294118 0.36862745
v 0.08812811 0.06885139 0.20303810 0.74117647 0.82352941 0.40000000
v -0.03279968 0.06554980 -0.15477566 0.74509804 0.84705882 0.36470588
v 0.07458243 0.07244859 0.21862079 0.49803922 0.57254902 0.28627451
v -0.13776730 0.08527630 0.01892998 0.78039216 0.86274510 0.38823529
v -0.11338694 0.07794948 -0.16067917 0.65098039 0.73333333 0.33333333
v -0.15821563 0.07254981 0.18702602 0.80392157 0.76862745 0.58823529
v -0.13628329 0.07191137 0.18789256 0.74117647 0.70196078 0.48235294
v -0.07776058 0.07056724 0.19693460 0.62352941 0.70196078 0.29411765
v 0.04402784 0.07946709 -0.14242885 0.73725490 0.83921569 0.35686275
v 0.09646587 0.07849850 0.14976866 0.82745098 0.90196078 0.40784314
v 0.12122423 0.07326873 -0.05676211 0.83921569 0.90980392 0.54509804
v -0.12961351 0.09638371 -0.04145639 0.76862745 0.85098039 0.37647059
v -0.11627891 0.09000323 -0.14790123 0.72941176 0.80784314 0.36078431
v 0.07975166 0.07652617 0.20454019 0.55294118 0.62352941 0.27058824
v 0.10539871 0.09386772 0.08394483 0.80000000 0.87450980 0.40784314
v 0.12299448 0.08261958 -0.13106131 0.76862745 0.87058824 0.49411765
v -0.10180538 0.07330925 0.19458802 0.46274510 0.50980392 0.20392157
v 0.12819764 0.10099808 -0.10842306 0.76078431 0.86274510 0.47058824
v -0.12284892 0.07236679 0.19429711 0.70980392 0.69411765 0.44705882
v -0.05236145 0.07499924 0.20338993 0.49019608 0.54509804 0.21568627
v -0.02612133 0.07297523 0.20620755 0.57254902 0.65098039 0.25490196
v -0.13796133 0.07814455 0.18405595 0.56862745 0.49803922 0.35686275
v -0.10170929 0.09072093 -0.15755810 0.74509804 0.84313725 0.36862745
v -0.00691814 0.07660362 0.20282500 0.37254902 0.41176471 0.15686275
v 0.09181781 0.07984734 0.17028512 0.55686275 0.61568627 0.23529412
v 0.03576207 0.07545489 0.21543915 0.44313725 0.47450980 0.19607843
v 0.11886644 0.12409725 -0.02262714 0.78823529 0.86666667 0.38823529
v -0.09564089 0.07722268 0.19271485 0.41960784 0.45490196 0.18039216
v 0.06608442 0.08201067 0.19185937 0.48235294 0.53333333 0.22352941
v -0.14664552 0.08641813 0.14752979 0.64313725 0.70196078 0.28235294
v 0.01914153 0.08161249 0.18886071 0.53333333 0.59215686 0.22352941
v 0.12496647 0.09641771 -0.12717174 0.71372549 0.80392157 0.34901961
v -0.15214490 0.08685419 0.13228399 0.71764706 0.80392157 0.33333333
v 0.02207862 0.10835328 -0.13652558 0.72549020 0.82352941 0.34509804
v 0.10013981 0.09538348 0.11471146 0.67843137 0.76078431 0.32549020
v -0.08125266 0.09325814 0.12817338 0.65882353 0.74509804 0.26274510
v -0.11367532 0.11284697 -0.15120206 0.65490196 0.75294118 0.32941176
v -0.05344543 0.10582948 -0.14635487 0.72941176 0.82745098 0.34901961
v -0.14264207 0.10191449 0.06533207 0.78431373 0.86666667 0.39215686
v 0.03303752 0.09646763 0.12904233 0.67058824 0.76078431 0.26666667
v 0.08492199 0.09932244 0.12237621 0.64313725 0.73333333 0.27450980
v 0.11070019 0.11186442 0.03826077 0.77254902 0.85098039 0.37647059
v 0.12186322 0.11956200 -0.12066040 0.63921569 0.72549020 0.30588235
v -0.13740900 0.11054068 0.04584985 0.66666667 0.75686275 0.29803922
v -0.12890638 0.11649987 0.03333921 0.65098039 0.74901961 0.27843137
v -0.02618507 0.13214339 -0.13530088 0.73333333 0.83529412 0.35294118
v -0.10682408 0.12119177 -0.14898580 0.69019608 0.81568627 0.37254902
v 0.00407231 0.11479093 0.04943508 0.62352941 0.70980392 0.26274510
v -0.12096615 0.14074327 -0.10174970 0.72156863 0.85098039 0.43137255
v -0.07671380 0.11079768 0.05975509 0.62352941 0.70588235 0.25882353
v 0.06583080 0.11455163 0.06172574 0.62745098 0.71764706 0.25882353
v 0.09598983 0.11886729 0.04617274 0.60392157 0.68235294 0.25490196
v -0.13186947 0.12011625 -0.01584063 0.77647059 0.86274510 0.38823529
v 0.11659672 0.13690660 -0.11618155 0.58039216 0.78431373 0.50980392
v -0.11609923 0.14972124 -0.14000765 0.63137255 0.83137255 0.49019608
v 0.11470407 0.12692954 -0.00461602 0.60784314 0.68235294 0.27058824
v -0.11497904 0.12873957 -0.01343174 0.60784314 0.69411765 0.26274510
v 0.04076680 0.13427321 -0.12621584 0.73333333 0.82745098 0.34901961
v -0.04173476 0.13533239 -0.03332754 0.62352941 0.70588235 0.26666667
v 0.03671534 0.13334839 -0.01739003 0.59607843 0.70196078 0.29803922
v -0.12159515 0.13975104 -0.06677726 0.63921569 0.74117647 0.30196078
v 0.12462359 0.14712006 -0.08424621 0.61568627 0.76470588 0.47450980
v 0.09222939 0.13697145 -0.02243048 0.52156863 0.70196078 0.43137255
v 0.10772807 0.13853623 -0.02973581 0.61176471 0.70588235 0.29019608
v 0.12187094 0.15320382 -0.10680505 0.47450980 0.73333333 0.61568627
v -0.11086274 0.15146850 -0.10313732 0.54509804 0.67450980 0.29411765
v -0.11120482 0.15290121 -0.14171182 0.59607843 0.82352941 0.48627451
v 0.01592124 0.15272634 -0.12292958 0.70980392 0.80784314 0.33333333
v 0.08957744 0.15483341 -0.11232030 0.63529412 0.79607843 0.43921569
v -0.07636286 0.15732734 -0.13398782 0.67058824 0.79215686 0.36470588
v 0.03510522 0.15703594 -0.10627350 0.56078431 0.63921569 0.25490196
v -0.03891858 0.15747819 -0.12859087 0.65098039 0.73725490 0.30980392
v 0.10703700 0.15690548 -0.09615687 0.49019608 0.63137255 0.34117647
v 0.05992893 0.15706048 -0.11604079 0.56078431 0.63921569 0.25490196
v 0.11676549 0.15721712 -0.10125209 0.43137255 0.65882353 0.49411765
v -0.05277314 0.15806845 -0.12012497 0.52941176 0.60784314 0.25490196
v -0.11377611 0.15725837 -0.13763916 0.52549020 0.71764706 0.40784314
f 260 261 265
f 260 265 261
f 4 1 5
f 3 12 2
f 29 16 9
f 21 20 3
f 9 16 14
f 16 8 14
f 2 8 25
f 8 16 22
f 17 27 18
f 3 20 12
f 11 23 1
f 17 18 30
f 4 5 24
f 4 26 7
f 19 11 1
f 8 22 25
f 19 1 4
f 7 19 4
f 26 18 7
f 7 18 27
f 27 19 7
f 24 28 4
f 12 13 2
f 9 14 36
f 15 10 32
f 27 17 33
f 33 34 27
f 20 10 15
f 30 35 17
f 18 9 30
f 9 18 29
f 20 15 31
f 13 14 8
f 8 2 13
f 34 33 45
f 37 15 41
f 44 22 26
f 20 31 12
f 3 2 43
f 10 20 32
f 23 34 42
f 18 26 29
f 23 27 34
f 35 46 17
f 31 15 49
f 9 36 30
f 37 39 47
f 50 29 26
f 21 51 20
f 50 16 29
f 51 32 20
f 12 49 13
f 12 31 49
f 33 17 46
f 14 13 49
f 52 37 41
f 53 41 15
f 32 53 15
f 22 16 50
f 59 60 44
f 25 57 2
f 2 57 56
f 58 25 22
f 43 2 56
f 28 59 4
f 62 1 23
f 1 61 5
f 5 6 1
f 59 44 4
f 27 11 19
f 11 27 23
f 26 4 44
f 51 53 32
f 30 36 35
f 36 14 49
f 38 51 21
f 49 15 37
f 67 55 39
f 41 53 52
f 39 55 47
f 22 44 58
f 22 50 26
f 57 64 56
f 73 34 45
f 66 37 47
f 52 53 69
f 51 38 65
f 58 57 25
f 65 38 63
f 48 54 63
f 37 52 39
f 56 54 43
f 62 23 72
f 28 24 71
f 60 58 44
f 23 42 70
f 53 51 68
f 42 34 73
f 67 74 55
f 67 39 52
f 70 72 23
f 58 60 76
f 49 37 66
f 36 49 91
f 57 58 64
f 53 68 69
f 65 68 51
f 70 42 73
f 58 76 64
f 60 59 78
f 79 80 28
f 80 81 28
f 82 28 71
f 28 82 79
f 81 59 28
f 84 24 5
f 24 84 83
f 45 33 46
f 63 54 92
f 65 63 85
f 65 89 90
f 65 90 68
f 68 88 69
f 64 76 94
f 35 36 91
f 64 54 56
f 92 86 63
f 67 93 74
f 69 88 97
f 88 68 90
f 129 45 46
f 65 85 89
f 93 67 97
f 69 97 67
f 52 69 67
f 71 24 98
f 90 89 75
f 24 83 98
f 59 81 99
f 78 59 99
f 62 61 1
f 94 54 64
f 101 85 102
f 60 78 76
f 78 95 76
f 94 76 95
f 85 101 89
f 101 75 89
f 77 47 87
f 63 86 85
f 74 100 55
f 97 88 93
f 104 74 93
f 96 90 75
f 70 73 107
f 109 62 72
f 106 92 94
f 86 92 103
f 105 73 45
f 54 94 92
f 88 90 96
f 94 99 116
f 93 88 104
f 96 75 108
f 111 81 80
f 62 112 61
f 99 81 111
f 83 84 115
f 84 5 114
f 114 5 61
f 49 66 91
f 118 101 102
f 102 85 86
f 98 82 71
f 72 70 107
f 88 96 104
f 116 119 106
f 92 106 103
f 86 117 102
f 94 116 106
f 111 121 99
f 110 100 74
f 99 95 78
f 109 112 62
f 108 74 104
f 74 108 110
f 99 94 95
f 117 86 103
f 102 123 118
f 103 106 117
f 82 125 79
f 75 101 108
f 125 82 98
f 115 113 83
f 127 61 126
f 61 127 114
f 112 126 61
f 83 113 98
f 116 99 119
f 55 87 47
f 106 130 131
f 99 121 139
f 104 96 108
f 122 118 133
f 122 108 101
f 122 100 110
f 108 122 110
f 118 122 101
f 111 80 132
f 130 106 119
f 79 125 80
f 55 100 120
f 100 122 137
f 66 47 77
f 102 117 134
f 99 139 119
f 130 119 139
f 135 106 131
f 118 136 138
f 135 117 106
f 118 138 133
f 136 118 123
f 141 113 115
f 113 80 125
f 142 115 84
f 115 142 171
f 84 114 142
f 136 123 134
f 121 140 139
f 102 134 123
f 117 135 144
f 112 128 126
f 109 128 112
f 100 137 120
f 161 35 91
f 113 125 98
f 140 111 132
f 117 144 134
f 140 121 111
f 132 80 150
f 113 141 150
f 113 150 80
f 147 130 139
f 122 133 137
f 135 131 154
f 87 55 120
f 109 72 107
f 150 157 132
f 146 152 143
f 155 152 146
f 151 140 132
f 140 151 152
f 147 131 130
f 46 35 161
f 138 136 158
f 139 140 152
f 91 66 145
f 133 138 137
f 147 154 131
f 135 154 162
f 151 143 152
f 147 155 156
f 146 143 155
f 144 135 162
f 134 163 136
f 150 141 157
f 132 167 166
f 147 156 176
f 167 132 177
f 176 162 154
f 151 132 166
f 136 163 158
f 127 126 160
f 148 155 146
f 146 155 148
f 152 155 147
f 169 171 170
f 141 115 169
f 172 196 171
f 173 142 114
f 172 142 174
f 171 142 172
f 171 169 115
f 155 143 175
f 105 45 129
f 176 154 147
f 160 126 128
f 147 139 152
f 187 180 158
f 144 162 186
f 177 132 157
f 158 182 188
f 144 163 134
f 178 167 196
f 127 184 114
f 175 143 151
f 184 127 160
f 182 158 186
f 179 165 159
f 159 165 164
f 163 186 158
f 167 178 181
f 160 128 205
f 179 183 168
f 188 187 158
f 178 193 181
f 188 189 187
f 194 179 159
f 162 176 186
f 164 194 159
f 164 155 175
f 201 157 169
f 107 128 109
f 186 176 185
f 138 158 180
f 179 168 165
f 191 168 183
f 168 185 165
f 198 114 197
f 171 196 170
f 169 157 141
f 197 114 184
f 185 156 155
f 144 186 163
f 186 185 195
f 201 177 157
f 156 185 176
f 175 194 164
f 155 164 185
f 190 180 187
f 128 107 204
f 186 195 182
f 165 185 164
f 151 166 175
f 202 193 178
f 180 190 203
f 138 203 137
f 191 183 200
f 138 180 203
f 46 161 129
f 107 73 105
f 205 184 160
f 201 169 170
f 196 177 201
f 185 168 191
f 191 195 185
f 189 188 199
f 196 167 177
f 172 209 196
f 167 181 194
f 167 194 175
f 175 166 167
f 198 210 114
f 211 173 114
f 172 174 208
f 142 173 174
f 195 188 182
f 213 212 216
f 195 214 206
f 206 188 195
f 189 190 187
f 120 246 87
f 195 191 214
f 206 199 188
f 183 216 200
f 120 137 192
f 207 217 194
f 194 217 179
f 197 184 205
f 212 213 233
f 191 200 220
f 221 217 207
f 66 77 222
f 216 212 224
f 220 200 216
f 179 217 183
f 178 209 202
f 214 191 220
f 225 181 193
f 196 209 178
f 217 216 183
f 225 207 181
f 229 209 219
f 208 219 172
f 181 207 194
f 170 196 201
f 211 114 210
f 209 172 219
f 190 189 230
f 230 189 199
f 212 232 224
f 137 203 192
f 230 199 206
f 207 225 221
f 202 223 193
f 193 223 225
f 197 234 198
f 214 238 231
f 205 240 197
f 217 221 213
f 214 220 238
f 87 247 77
f 205 128 204
f 214 231 206
f 216 217 213
f 224 232 235
f 210 198 241
f 241 198 234
f 224 239 216
f 232 212 233
f 225 244 242
f 202 209 229
f 229 223 202
f 210 243 211
f 226 228 174
f 244 229 219
f 173 227 174
f 229 244 225
f 227 173 211
f 208 174 228
f 236 249 230
f 190 230 249
f 231 230 206
f 213 221 233
f 234 197 240
f 255 235 232
f 203 190 192
f 235 239 248
f 216 239 238
f 236 230 231
f 252 219 208
f 229 225 223
f 242 221 225
f 190 249 192
f 220 216 238
f 234 240 241
f 235 248 264
f 259 233 221
f 274 228 226
f 256 236 231
f 208 263 252
f 248 251 264
f 235 239 224
f 219 252 244
f 268 242 244
f 242 268 262
f 228 263 208
f 269 227 211
f 221 242 259
f 235 264 238
f 238 239 235
f 145 66 222
f 249 276 192
f 256 231 238
f 256 251 236
f 271 270 275
f 222 77 247
f 272 248 239
f 239 235 255
f 241 243 210
f 256 264 251
f 256 238 264
f 242 262 259
f 233 259 270
f 233 255 232
f 275 270 279
f 251 290 236
f 245 241 240
f 267 280 227
f 251 248 272
f 241 245 243
f 274 263 228
f 292 211 243
f 281 268 244
f 269 267 227
f 244 252 281
f 270 284 279
f 270 271 233
f 272 239 278
f 278 239 255
f 279 284 296
f 285 249 236
f 233 271 255
f 262 268 295
f 258 227 280
f 294 258 280
f 286 277 293
f 290 285 236
f 255 271 278
f 271 275 278
f 278 275 287
f 272 278 287
f 286 293 273
f 300 251 272
f 290 251 300
f 287 288 283
f 270 259 295
f 291 298 281
f 281 298 268
f 280 267 315
f 297 273 298
f 273 268 298
f 292 269 211
f 281 252 291
f 282 273 297
f 245 240 301
f 296 284 293
f 285 290 303
f 295 259 262
f 274 258 294
f 301 243 245
f 279 296 275
f 311 299 283
f 272 287 300
f 303 287 283
f 268 273 295
f 263 305 252
f 303 283 312
f 293 284 273
f 270 295 284
f 294 309 274
f 301 240 320
f 296 306 308
f 274 309 305
f 296 293 306
f 287 275 288
f 287 303 300
f 313 282 297
f 291 252 305
f 314 302 269
f 305 263 274
f 273 284 295
f 283 288 311
f 318 307 311
f 299 311 307
f 283 299 312
f 304 275 296
f 205 320 240
f 285 303 312
f 301 292 243
f 304 321 310
f 304 288 275
f 316 269 302
f 318 324 307
f 288 304 310
f 296 308 304
f 310 311 288
f 302 314 323
f 321 318 310
f 289 282 313
f 290 300 303
f 322 291 305
f 267 269 316
f 321 310 318
f 316 302 323
f 312 340 285
f 312 299 307
f 285 317 249
f 247 87 246
f 120 257 246
f 280 309 294
f 277 286 325
f 324 327 307
f 316 315 267
f 289 325 319
f 315 337 280
f 313 329 289
f 291 328 298
f 330 322 305
f 326 333 334
f 338 192 276
f 325 289 277
f 312 307 327
f 331 324 318
f 312 327 332
f 222 350 145
f 336 324 331
f 323 315 316
f 321 311 310
f 292 301 314
f 305 309 330
f 313 297 329
f 321 304 308
f 292 314 323
f 323 314 269
f 276 249 317
f 129 161 347
f 315 323 335
f 318 311 321
f 323 269 292
f 332 340 312
f 346 291 322
f 317 285 340
f 337 343 280
f 335 342 315
f 329 277 289
f 322 348 346
f 326 344 333
f 349 335 323
f 339 319 329
f 328 329 298
f 298 329 297
f 329 325 277
f 91 145 384
f 321 331 318
f 309 280 352
f 339 345 319
f 293 354 306
f 327 324 336
f 291 346 328
f 362 331 321
f 308 362 321
f 354 277 325
f 333 351 334
f 343 352 280
f 293 277 354
f 314 301 361
f 222 247 364
f 371 353 357
f 361 323 314
f 341 319 345
f 334 331 326
f 334 356 331
f 330 359 322
f 356 336 331
f 319 325 329
f 339 357 345
f 345 357 353
f 332 336 355
f 325 319 341
f 306 362 308
f 336 332 327
f 330 309 352
f 349 363 335
f 354 362 306
f 322 359 348
f 351 360 366
f 368 351 366
f 337 315 342
f 360 351 333
f 362 344 326
f 367 342 335
f 362 326 331
f 369 341 345
f 341 369 344
f 344 325 341
f 329 328 339
f 337 342 343
f 362 354 344
f 336 356 355
f 349 361 363
f 330 352 343
f 323 361 349
f 371 388 353
f 359 374 377
f 356 351 368
f 356 368 355
f 369 333 344
f 334 351 356
f 369 360 333
f 346 359 377
f 330 343 359
f 363 367 335
f 348 359 346
f 357 339 381
f 345 353 369
f 328 381 339
f 328 346 381
f 367 373 342
f 192 338 394
f 373 343 342
f 340 332 370
f 120 192 394
f 373 367 389
f 374 359 343
f 343 373 375
f 105 406 107
f 355 368 390
f 378 379 377
f 369 388 365
f 353 388 369
f 346 379 381
f 355 370 332
f 354 325 344
f 360 365 393
f 393 366 360
f 377 374 398
f 406 204 107
f 390 401 355
f 386 385 399
f 364 247 246
f 105 129 347
f 408 371 396
f 320 361 301
f 365 360 369
f 370 355 401
f 367 363 402
f 395 366 392
f 404 366 395
f 373 397 375
f 379 346 377
f 371 357 396
f 408 385 386
f 388 386 365
f 400 378 377
f 343 375 374
f 373 389 397
f 370 405 340
f 383 409 205
f 388 371 408
f 367 402 389
f 320 205 409
f 416 276 317
f 402 411 389
f 374 375 412
f 396 385 408
f 413 386 399
f 372 396 357
f 396 403 385
f 357 379 372
f 366 404 410
f 381 379 357
f 396 372 415
f 401 390 404
f 398 374 412
f 410 390 368
f 390 410 404
f 392 418 395
f 365 386 413
f 366 410 368
f 389 411 397
f 392 366 393
f 379 378 372
f 317 340 416
f 399 385 407
f 403 407 385
f 398 400 377
f 350 222 420
f 402 363 361
f 393 365 413
f 386 388 408
f 407 403 396
f 375 397 417
f 400 419 378
f 412 421 398
f 400 398 421
f 384 145 350
f 392 393 418
f 340 405 416
f 372 378 419
f 375 417 412
f 395 418 404
f 161 91 384
f 383 205 204
f 402 361 422
f 411 417 397
f 424 405 370
f 415 372 419
f 419 400 421
f 407 396 415
f 407 423 399
f 413 399 423
f 411 402 422
f 222 364 420
f 393 413 423
f 401 404 426
f 424 427 405
f 370 401 424
f 421 412 417
f 404 418 426
f 338 276 428
f 393 423 418
f 425 361 320
f 429 407 415
f 432 423 407
f 361 425 422
f 350 420 431
f 415 419 429
f 276 416 428
f 436 406 105
f 411 422 435
f 417 411 435
f 320 409 433
f 438 401 426
f 257 120 394
f 434 364 246
f 424 401 438
f 420 364 434
f 425 320 433
f 432 437 418
f 407 429 432
f 350 430 384
f 419 421 442
f 418 423 432
f 417 435 421
f 434 246 440
f 422 425 439
f 419 442 429
f 257 441 246
f 416 405 427
f 426 418 437
f 394 338 428
f 440 246 441
f 394 450 257
f 438 427 424
f 347 161 446
f 435 422 439
f 350 431 430
f 444 383 204
f 435 442 421
f 204 406 444
f 450 441 257
f 431 420 443
f 436 105 347
f 446 161 447
f 161 384 448
f 425 445 439
f 420 434 443
f 161 448 447
f 433 453 425
f 428 416 451
f 449 432 429
f 449 437 432
f 443 434 440
f 416 427 451
f 394 428 455
f 449 429 442
f 409 383 452
f 437 456 426
f 433 409 452
f 440 454 443
f 446 436 347
f 442 435 463
f 447 448 457
f 444 452 383
f 427 438 458
f 440 441 454
f 384 430 461
f 448 384 460
f 459 447 457
f 430 431 466
f 460 384 461
f 465 454 441
f 450 465 441
f 447 459 462
f 457 448 468
f 439 445 435
f 460 461 464
f 438 426 472
f 461 430 464
f 430 466 464
f 462 446 447
f 448 460 468
f 469 443 454
f 468 459 457
f 443 469 431
f 466 471 464
f 472 426 456
f 470 446 462
f 470 473 446
f 471 466 431
f 435 445 463
f 459 468 462
f 450 394 455
f 436 446 473
f 464 471 460
f 445 425 453
f 471 431 469
f 428 451 467
f 442 478 449
f 476 468 460
f 475 465 450
f 463 478 442
f 476 462 468
f 406 436 473
f 462 476 470
f 460 471 476
f 406 473 479
f 471 469 480
f 444 406 479
f 427 458 451
f 450 455 475
f 463 445 477
f 477 445 453
f 465 475 454
f 480 476 471
f 437 449 474
f 481 480 469
f 482 428 467
f 481 469 454
f 478 486 449
f 455 428 482
f 438 472 483
f 456 437 472
f 484 473 470
f 474 449 486
f 475 481 454
f 472 437 474
f 485 470 476
f 467 451 458
f 473 484 479
f 480 488 476
f 478 463 487
f 476 490 485
f 453 433 489
f 484 470 485
f 452 444 493
f 463 477 487
f 481 491 480
f 482 475 455
f 492 491 481
f 475 492 481
f 495 477 453
f 488 490 476
f 480 491 488
f 475 482 492
f 433 452 489
f 444 479 493
f 483 472 494
f 484 493 479
f 472 474 494
f 453 489 495
f 482 496 492
f 490 497 485
f 490 488 497
f 467 458 502
f 499 497 488
f 494 474 498
f 493 484 501
f 458 438 505
f 491 500 488
f 438 483 505
f 499 488 500
f 482 467 496
f 485 501 484
f 486 498 474
f 492 500 491
f 503 500 492
f 504 492 496
f 489 452 493
f 486 478 487
f 485 497 501
f 502 496 467
f 504 503 492
f 505 483 494
f 506 497 499
f 502 504 496
f 487 477 507
f 487 507 486
f 493 501 489
f 497 506 501
f 507 477 495
f 494 498 509
f 508 498 486
f 486 507 510
f 499 500 511
f 458 505 502
f 500 503 511
f 516 506 499
f 503 504 513
f 509 498 514
f 515 504 502
f 514 498 508
f 511 503 513
f 509 505 494
f 515 513 504
f 510 512 486
f 495 489 501
f 508 486 512
f 505 509 515
f 516 499 511
f 495 501 517
f 507 495 517
f 502 505 515
f 512 514 508
f 516 511 514
f 513 514 511
f 515 509 514
f 506 517 501
f 514 513 515
f 510 507 517
f 512 516 514
f 516 512 510
f 516 510 517
f 517 506 516
f 48 63 38
f 43 54 48
f 21 3 43
f 21 43 48
f 38 21 48
f 6 5 1
f 258 274 226
f 226 174 227
f 258 226 227
f 319 325 286
f 289 319 286
f 286 273 282
f 286 282 289

