# https://github.com/mikedh/trimesh
v 0.59940858 3.95573781 0.46571418
v 0.95443024 2.64835014 0.50364267
v 0.35489162 3.89019388 0.49517887
v 0.70991333 2.58280621 0.53310737
v 0.54056027 3.23936133 0.53641056
v 0.77358665 3.30182516 0.50833051
v 0.49978567 3.37214581 0.49341425
v 0.73281206 3.43460964 0.46533419
v 0.83932757 2.58246978 0.50410925
v 0.84324092 2.58461279 0.54135169
v 0.46679975 3.95432488 0.46431049
v 0.47071306 3.95646790 0.50155294
v 0.77888879 3.30256506 0.48421107
v 0.61028887 3.92300711 0.48871798
v 0.60639510 3.92087481 0.45166147
v 0.58376550 3.98202007 0.45140394
v 0.58747625 3.98405257 0.48671902
v 0.94693770 2.68327856 0.52468362
v 0.94304393 2.68114603 0.48762714
v 0.95442727 2.61703710 0.49100331
v 0.95813808 2.61906936 0.52631842
v 0.53038531 3.23595277 0.51415613
v 0.36699674 3.85779163 0.51803507
v 0.36310297 3.85565910 0.48097857
v 0.35190262 3.91986831 0.47934377
v 0.35561342 3.92190057 0.51465888
v 0.70364557 2.61806286 0.55400072
v 0.69975180 2.61593055 0.51694422
v 0.72256442 2.55488510 0.51894316
v 0.72627516 2.55691736 0.55425828
v 0.65710692 3.27061145 0.52268911
v 0.72320421 2.59054214 0.55445566
v 0.36995519 3.89140181 0.51671655
v 0.94417119 2.64977341 0.52782878
v 0.59092215 3.95063308 0.49008966
v 0.61566753 3.40556082 0.47899181
v 0.71911851 2.58830459 0.51557252
v 0.36586950 3.88916426 0.47783343
v 0.94008550 2.64753587 0.48894564
v 0.58683646 3.94839554 0.45120653
v 0.84393776 2.57214827 0.51940743
v 0.46533635 3.96636956 0.47895980
v 0.61218699 3.91475066 0.46694980
v 0.60513862 3.94454814 0.48682917
v 0.60149147 3.94255095 0.45211979
v 0.59071175 3.97274820 0.45234206
v 0.59418752 3.97465163 0.48542033
v 0.94472165 2.69017298 0.50247589
v 0.95340902 2.66202244 0.52403640
v 0.94976188 2.66002525 0.48932703
v 0.95572025 2.62858354 0.49133750
v 0.95919596 2.63048696 0.52441577
v 0.36464580 3.84839624 0.49677890
v 0.36027879 3.87891242 0.51633516
v 0.35663164 3.87691523 0.48162580
v 0.35084468 3.90845070 0.48124644
v 0.35432045 3.91035414 0.51432470
v 0.69718043 2.62381832 0.53230504
v 0.70854919 2.59638672 0.55354240
v 0.70490205 2.59438953 0.51883304
v 0.71585315 2.56428603 0.52024187
v 0.71932892 2.56618947 0.55332014
v 0.37958083 3.81906395 0.51959014
v 0.69490657 2.65785879 0.55327773
v 0.54796559 3.24135340 0.53576294
v 0.70821608 2.63072465 0.55384536
v 0.37734155 3.84918909 0.51849658
v 0.61916223 3.88328488 0.49072018
v 0.93448802 2.72207971 0.52440780
v 0.76623211 3.29986090 0.50946146
v 0.93681116 2.69200064 0.52629927
v 0.60593660 3.91046508 0.49095052
v 0.37555265 3.81685796 0.48125440
v 0.69087844 2.65565279 0.51494201
v 0.50668670 3.37578013 0.49223486
v 0.70410407 2.62847259 0.51471168
v 0.37322954 3.84693704 0.47936293
v 0.61513410 3.88107888 0.45238446
v 0.93045983 2.71987371 0.48607206
v 0.72495322 3.43428763 0.46593335
v 0.93269909 2.68974858 0.48716559
v 0.60182459 3.90821303 0.45181684
v 0.94821445 2.61063577 0.49140620
v 0.73103759 2.55242051 0.51757635
v 0.73224490 2.56774372 0.51567722
v 0.93921601 2.62322325 0.49073686
v 0.84175531 2.57405384 0.50553486
v 0.95205335 2.61273807 0.52794042
v 0.73487649 2.55452281 0.55411057
v 0.73626829 2.56994722 0.55396727
v 0.94323941 2.62542675 0.52902693
v 0.84542076 2.57606127 0.54041835
v 0.57516417 3.98441463 0.45155164
v 0.35798731 3.92619960 0.47772178
v 0.36680126 3.91351091 0.47663528
v 0.57377237 3.96899068 0.45169492
v 0.46461993 3.96287640 0.46524385
v 0.57900308 3.98651693 0.48808586
v 0.36182622 3.92830190 0.51425600
v 0.37082466 3.91571442 0.51492534
v 0.57779577 3.97119371 0.48998501
v 0.46828536 3.96488384 0.50012736
v 0.62263339 3.88487157 0.48844498
v 0.61898208 3.88287191 0.45369611
v 0.93831808 2.72234477 0.52217092
v 0.93466677 2.72034510 0.48742206
v 0.59712680 3.96363481 0.48746146
v 0.77923490 3.30331209 0.50672027
v 0.60106178 3.94214305 0.48919640
v 0.59329556 3.96153669 0.45099968
v 0.74037596 3.42985834 0.46574397
v 0.59704165 3.93994156 0.45093709
v 0.58489468 3.98641916 0.46530264
v 0.58475494 3.97050470 0.45077306
v 0.57363937 3.99127804 0.45305057
v 0.58871220 3.97267170 0.48843361
v 0.57711907 3.99318356 0.48616651
v 0.95613405 2.64157023 0.52581577
v 0.94864142 2.66216136 0.52632981
v 0.95230268 2.63947211 0.48935398
v 0.94462123 2.65995961 0.48807052
v 0.95742090 2.61457002 0.50510121
v 0.94947006 2.62742041 0.48973716
v 0.95034562 2.60403557 0.49329573
v 0.95342732 2.62958739 0.52739769
v 0.95382533 2.60594133 0.52641166
v 0.37537386 3.81859256 0.51824015
v 0.37172256 3.81659290 0.48349128
v 0.69105859 2.65606576 0.55196610
v 0.68740728 2.65406610 0.51721723
v 0.35773795 3.89946556 0.51630821
v 0.53471906 3.23776863 0.53618482
v 0.36541944 3.87897805 0.51759167
v 0.35390665 3.89736743 0.47984644
v 0.49586013 3.36431464 0.49520855
v 0.36139925 3.87677632 0.47933238
v 0.35186554 3.92395464 0.49338303
v 0.35661332 3.90935027 0.47826450
v 0.35621535 3.93299635 0.47925054
v 0.36057058 3.91151726 0.51592505
v 0.35969504 3.93490210 0.51236645
v 0.71674511 2.57740098 0.55466252
v 0.71299901 2.59899611 0.55472511
v 0.71291386 2.57530286 0.51820073
v 0.70897889 2.59679461 0.51646580
v 0.72439173 2.55210550 0.53318161
v 0.72132846 2.56626597 0.51722859
v 0.73292153 2.54575411 0.51949568
v 0.72528572 2.56843297 0.55488915
v 0.73640130 2.54765987 0.55261162
v 0.71911871 2.63290883 0.55276856
v 0.38786758 3.85276006 0.51737958
v 0.92632539 2.68845155 0.52779982
v 0.59507426 3.90830279 0.49241085
v 0.83458638 2.61689165 0.54133494
v 0.47956053 3.92429459 0.50340599
v 0.71496640 2.63063487 0.51325135
v 0.38371528 3.85048611 0.47786237
v 0.92217308 2.68617760 0.48828261
v 0.59092196 3.90602885 0.45289364
v 0.83048014 2.61464308 0.50225622
v 0.47545428 3.92204602 0.46432727
f 1 47 44
f 1 44 43
f 1 43 45
f 1 45 46
f 1 46 47
f 2 49 52
f 6 72 70
f 12 102 99
f 11 96 95
f 8 79 81
f 4 62 59
f 4 59 58
f 4 58 60
f 4 60 61
f 4 61 62
f 5 66 65
f 3 54 57
f 7 73 77
f 9 85 86
f 10 92 88
f 12 101 98
f 6 69 68
f 2 50 48
f 8 82 78
f 11 97 93
f 6 71 69
f 12 100 101
f 11 94 97
f 8 80 82
f 2 51 50
f 10 90 89
f 5 63 64
f 3 55 53
f 7 76 74
f 9 87 84
f 10 91 90
f 5 67 63
f 3 56 55
f 7 75 76
f 9 83 87
f 6 68 72
f 2 48 49
f 8 78 79
f 11 93 96
f 12 98 102
f 10 88 91
f 5 65 67
f 3 57 56
f 7 77 75
f 9 86 83
f 5 64 66
f 3 53 54
f 7 74 73
f 9 84 85
f 10 89 92
f 6 70 71
f 12 99 100
f 11 95 94
f 8 81 80
f 2 52 51
f 35 109 116
f 18 105 108
f 19 111 106
f 40 114 112
f 42 117 115
f 34 125 119
f 33 152 156
f 25 137 139
f 36 158 160
f 20 123 120
f 32 143 149
f 23 127 132
f 24 135 128
f 37 147 145
f 41 150 148
f 34 153 155
f 33 140 133
f 25 138 134
f 36 159 157
f 20 122 124
f 17 107 47
f 14 103 44
f 13 104 43
f 15 110 45
f 16 113 46
f 18 118 49
f 35 154 72
f 42 141 102
f 40 162 96
f 19 121 79
f 30 142 62
f 27 129 59
f 22 130 58
f 28 144 60
f 29 146 61
f 32 151 66
f 23 131 54
f 24 136 73
f 37 161 85
f 41 126 92
f 35 116 101
f 18 108 69
f 19 106 50
f 40 112 82
f 42 115 97
f 34 119 71
f 33 156 100
f 25 139 94
f 36 160 80
f 20 120 51
f 32 149 90
f 23 132 63
f 24 128 55
f 37 145 76
f 41 148 87
f 34 155 91
f 33 133 67
f 25 134 56
f 36 157 75
f 20 124 83
f 14 109 68
f 13 105 48
f 15 111 78
f 16 114 93
f 17 117 98
f 21 125 88
f 31 152 65
f 26 137 57
f 38 158 77
f 39 123 86
f 27 143 64
f 22 127 53
f 28 135 74
f 29 147 84
f 30 150 89
f 31 153 70
f 26 140 99
f 38 138 95
f 39 159 81
f 21 122 52
f 14 107 109
f 13 103 105
f 15 104 111
f 16 110 114
f 17 113 117
f 21 118 125
f 31 154 152
f 26 141 137
f 38 162 158
f 39 121 123
f 27 142 143
f 22 129 127
f 28 130 135
f 29 144 147
f 30 146 150
f 31 151 153
f 26 131 140
f 38 136 138
f 39 161 159
f 21 126 122
f 14 44 107
f 13 43 103
f 15 45 104
f 16 46 110
f 17 47 113
f 21 52 118
f 31 70 154
f 26 99 141
f 38 95 162
f 39 81 121
f 27 59 142
f 22 58 129
f 28 60 130
f 29 61 144
f 30 62 146
f 31 65 151
f 26 57 131
f 38 77 136
f 39 86 161
f 21 88 126
f 17 98 116
f 14 68 108
f 13 48 106
f 15 78 112
f 16 93 115
f 18 69 119
f 35 101 156
f 42 97 139
f 40 82 160
f 19 50 120
f 30 89 149
f 27 64 132
f 22 53 128
f 28 74 145
f 29 84 148
f 32 90 155
f 23 63 133
f 24 55 134
f 37 76 157
f 41 87 124
f 35 72 109
f 18 49 105
f 19 79 111
f 40 96 114
f 42 102 117
f 34 91 125
f 33 67 152
f 25 56 137
f 36 75 158
f 20 83 123
f 32 66 143
f 23 54 127
f 24 73 135
f 37 85 147
f 41 92 150
f 34 71 153
f 33 100 140
f 25 94 138
f 36 80 159
f 20 51 122
f 17 116 107
f 14 108 103
f 13 106 104
f 15 112 110
f 16 115 113
f 18 119 118
f 35 156 154
f 42 139 141
f 40 160 162
f 19 120 121
f 30 149 142
f 27 132 129
f 22 128 130
f 28 145 144
f 29 148 146
f 32 155 151
f 23 133 131
f 24 134 136
f 37 157 161
f 41 124 126
f 107 44 47
f 103 43 44
f 104 45 43
f 110 46 45
f 113 47 46
f 118 52 49
f 154 70 72
f 141 99 102
f 162 95 96
f 121 81 79
f 142 59 62
f 129 58 59
f 130 60 58
f 144 61 60
f 146 62 61
f 151 65 66
f 131 57 54
f 136 77 73
f 161 86 85
f 126 88 92
f 116 98 101
f 108 68 69
f 106 48 50
f 112 78 82
f 115 93 97
f 119 69 71
f 156 101 100
f 139 97 94
f 160 82 80
f 120 50 51
f 149 89 90
f 132 64 63
f 128 53 55
f 145 74 76
f 148 84 87
f 155 90 91
f 133 63 67
f 134 55 56
f 157 76 75
f 124 87 83
f 109 72 68
f 105 49 48
f 111 79 78
f 114 96 93
f 117 102 98
f 125 91 88
f 152 67 65
f 137 56 57
f 158 75 77
f 123 83 86
f 143 66 64
f 127 54 53
f 135 73 74
f 147 85 84
f 150 92 89
f 153 71 70
f 140 100 99
f 138 94 95
f 159 80 81
f 122 51 52
f 107 116 109
f 103 108 105
f 104 106 111
f 110 112 114
f 113 115 117
f 118 119 125
f 154 156 152
f 141 139 137
f 162 160 158
f 121 120 123
f 142 149 143
f 129 132 127
f 130 128 135
f 144 145 147
f 146 148 150
f 151 155 153
f 131 133 140
f 136 134 138
f 161 157 159
f 126 124 122

