# https://github.com/mikedh/trimesh
v 6.05351625 4.06460986 3.21789213
v 5.94079710 4.75771853 2.93229930
v 6.05050660 4.20426252 3.55800435
v 5.93778745 4.89737095 3.27241154
v 5.97135183 4.54428360 3.40834942
v 5.97421996 4.41119385 3.08422006
v 6.02191344 4.47823110 3.43591866
v 6.02478155 4.34514087 3.11178909
v 5.95165183 4.84678673 3.09456404
v 5.91456145 4.84151172 3.09640174
v 6.06992966 4.11950048 3.39423946
v 6.03283928 4.11422571 3.39607716
v 5.99740752 4.41005810 3.07231204
v 6.02873306 4.07978563 3.21243714
v 6.06563855 4.08503415 3.21060868
v 6.07010076 4.05497296 3.23228091
v 6.03492941 4.04997120 3.23402361
v 5.92184716 4.73702520 2.94162408
v 5.95875264 4.74227373 2.93979561
v 5.95241528 4.77861596 2.93410677
v 5.91724440 4.77361418 2.93584921
v 5.99434889 4.55198755 3.41796924
v 6.02573848 4.21873848 3.55084560
v 6.06264396 4.22398699 3.54901713
v 6.06724672 4.18739826 3.55479199
v 6.03207584 4.18239648 3.55653443
v 5.91885256 4.87597781 3.28003256
v 5.95575805 4.88122633 3.27820410
v 5.94956171 4.91104101 3.25661761
v 5.91439035 4.90603924 3.25836031
v 5.97246875 4.47769340 3.24630036
v 5.91544496 4.88567765 3.25787404
v 6.02760147 4.19602960 3.54204103
v 5.91816473 4.75947526 2.95051887
v 6.03032173 4.06982743 3.23468560
v 6.02385452 4.41056387 3.27431908
v 5.95416939 4.89118501 3.25595560
v 6.06632638 4.20153694 3.54012235
v 5.95688964 4.76498261 2.94860018
v 6.06904616 4.07533455 3.23276718
v 5.93577499 4.85059452 3.09286013
v 6.05598095 4.11145089 3.39742118
v 6.04974956 4.08566628 3.20675481
v 6.03175657 4.06815974 3.21596320
v 6.06632416 4.07307578 3.21425054
v 6.06813838 4.05804736 3.22449550
v 6.03519532 4.05336227 3.22612780
v 5.94416972 4.73487346 2.93925140
v 5.92118064 4.74808783 2.93580150
v 5.95574871 4.75300411 2.93408881
v 5.95224851 4.77065317 2.93086905
v 5.91930496 4.76596830 2.93250111
v 6.04670270 4.22704624 3.55107354
v 6.02874241 4.20800809 3.55655241
v 6.06331047 4.21292413 3.55483973
v 6.06518615 4.19504391 3.55814011
v 6.03224261 4.19035903 3.55977217
v 5.94112287 4.87625319 3.28357015
v 5.91816696 4.88793619 3.27639069
v 5.95273454 4.89285247 3.27467802
v 5.94929579 4.90765017 3.26451339
v 5.91635273 4.90296485 3.26614572
v 6.02173939 4.23840279 3.53971981
v 5.92162357 4.85401348 3.28606005
v 5.97120182 4.54003447 3.39809620
v 5.91882559 4.86599723 3.27218482
v 6.02387808 4.22003121 3.53835289
v 6.02468827 4.10156921 3.20647273
v 5.92457245 4.71717966 2.95281299
v 5.97388867 4.41537468 3.09449719
v 5.92163890 4.73543834 2.95421941
v 6.02669186 4.08947231 3.22038723
v 6.05991866 4.24383254 3.53782823
v 5.95980284 4.85944275 3.28416851
v 6.02238877 4.47316455 3.42600619
v 5.95779925 4.87153989 3.27025398
v 6.06285222 4.22557386 3.53642179
v 6.06286754 4.10699896 3.20458114
v 5.96275172 4.72260942 2.95092141
v 6.02507562 4.34850477 3.12240718
v 5.96061303 4.74098100 2.95228833
v 6.06566552 4.09501498 3.21845640
v 5.95255298 4.78522737 2.94332978
v 5.94987969 4.90926521 3.24541307
v 5.95202444 4.89904990 3.24133141
v 5.95457230 4.78084092 2.95344381
v 5.94974581 4.85111692 3.09276916
v 5.91616788 4.78005322 2.94513255
v 5.91349458 4.90409058 3.24721588
v 5.91389044 4.89362667 3.24322078
v 5.91643830 4.77541816 2.95533314
v 5.91500476 4.84617648 3.09449036
v 6.07099653 4.05692162 3.24342534
v 6.06832324 4.18095922 3.54550864
v 6.06805281 4.18559428 3.53530806
v 6.07060067 4.06738553 3.24742044
v 6.06948635 4.11483572 3.39615086
v 6.03461143 4.05174723 3.24522813
v 6.03193814 4.17578459 3.54731146
v 6.02991882 4.18017104 3.53719742
v 6.03246667 4.06196230 3.24930980
v 6.03474531 4.10989505 3.39787208
v 6.02657873 4.09928038 3.20118879
v 6.06118586 4.10420200 3.19947414
v 5.92634859 4.71559130 2.94724005
v 5.96095573 4.72051315 2.94552538
v 6.03255455 4.05911735 3.22413001
v 5.97520474 4.40804269 3.07618405
v 6.02982221 4.07121505 3.22218346
v 6.06886770 4.06428153 3.22233093
v 6.02339086 4.34509311 3.10245803
v 6.06792571 4.07663388 3.22029575
v 6.05639251 4.05082744 3.23291393
v 6.07030171 4.06200641 3.23241924
v 6.06987605 4.05304022 3.24480821
v 6.03279483 4.05667240 3.23427765
v 6.03689534 4.04834980 3.24644243
v 5.91857013 4.76000676 2.93533101
v 5.91946587 4.74979445 2.94257735
v 5.95488280 4.76517118 2.93353191
v 5.95756937 4.75521352 2.94068962
v 5.93811566 4.77810999 2.93323996
v 5.95450454 4.77403998 2.93902869
v 5.95027199 4.78848364 2.94177171
v 5.91699766 4.76870597 2.94088711
v 5.91729128 4.78379320 2.94340570
v 6.02353538 4.24049905 3.54511583
v 6.05814252 4.24542090 3.54340117
v 5.92330525 4.85681020 3.29116708
v 5.95791238 4.86173206 3.28945241
v 6.02960832 4.19584102 3.55710929
v 5.97219505 4.54769451 3.41629490
v 6.02692175 4.20579892 3.54995158
v 6.06592099 4.20100520 3.55531023
v 6.02038164 4.48474539 3.44256860
v 6.06502525 4.21121775 3.54806386
v 6.05352448 4.18391868 3.55704700
v 6.06749345 4.19230647 3.54975409
v 6.06719984 4.17721901 3.54723552
v 6.02998657 4.18697246 3.55161251
v 6.03421912 4.17252856 3.54886951
v 5.91562342 4.89673043 3.26831031
v 5.91656541 4.88437856 3.27034545
v 5.95193657 4.90189485 3.26651120
v 5.95466891 4.88979715 3.26845776
v 5.93524716 4.91120147 3.25737303
v 5.95169628 4.90433980 3.25636357
v 5.94759577 4.91266217 3.24419881
v 5.91418940 4.89900579 3.25822198
v 5.91461506 4.90797222 3.24583299
v 5.91870609 4.86022977 3.25716784
v 6.02387842 4.21352851 3.52363857
v 5.92125685 4.74188665 2.96895242
v 6.02642871 4.09518518 3.23542343
v 5.91642533 4.82429688 3.10348673
v 6.02914645 4.13118010 3.38908279
v 5.95806240 4.86582679 3.25521781
v 6.06323427 4.21912555 3.52168880
v 5.96061269 4.74748370 2.96700264
v 6.06578503 4.10078219 3.23347340
v 5.95534466 4.82983210 3.10155843
v 6.06806579 4.13671509 3.38715451
f 1 47 44
f 1 44 43
f 1 43 45
f 1 45 46
f 1 46 47
f 2 49 52
f 6 72 70
f 12 102 99
f 11 96 95
f 8 79 81
f 4 62 59
f 4 59 58
f 4 58 60
f 4 60 61
f 4 61 62
f 5 66 65
f 3 54 57
f 7 73 77
f 9 85 86
f 10 92 88
f 12 101 98
f 6 69 68
f 2 50 48
f 8 82 78
f 11 97 93
f 6 71 69
f 12 100 101
f 11 94 97
f 8 80 82
f 2 51 50
f 10 90 89
f 5 63 64
f 3 55 53
f 7 76 74
f 9 87 84
f 10 91 90
f 5 67 63
f 3 56 55
f 7 75 76
f 9 83 87
f 6 68 72
f 2 48 49
f 8 78 79
f 11 93 96
f 12 98 102
f 10 88 91
f 5 65 67
f 3 57 56
f 7 77 75
f 9 86 83
f 5 64 66
f 3 53 54
f 7 74 73
f 9 84 85
f 10 89 92
f 6 70 71
f 12 99 100
f 11 95 94
f 8 81 80
f 2 52 51
f 35 109 116
f 18 105 108
f 19 111 106
f 40 114 112
f 42 117 115
f 34 125 119
f 33 152 156
f 25 137 139
f 36 158 160
f 20 123 120
f 32 143 149
f 23 127 132
f 24 135 128
f 37 147 145
f 41 150 148
f 34 153 155
f 33 140 133
f 25 138 134
f 36 159 157
f 20 122 124
f 17 107 47
f 14 103 44
f 13 104 43
f 15 110 45
f 16 113 46
f 18 118 49
f 35 154 72
f 42 141 102
f 40 162 96
f 19 121 79
f 30 142 62
f 27 129 59
f 22 130 58
f 28 144 60
f 29 146 61
f 32 151 66
f 23 131 54
f 24 136 73
f 37 161 85
f 41 126 92
f 35 116 101
f 18 108 69
f 19 106 50
f 40 112 82
f 42 115 97
f 34 119 71
f 33 156 100
f 25 139 94
f 36 160 80
f 20 120 51
f 32 149 90
f 23 132 63
f 24 128 55
f 37 145 76
f 41 148 87
f 34 155 91
f 33 133 67
f 25 134 56
f 36 157 75
f 20 124 83
f 14 109 68
f 13 105 48
f 15 111 78
f 16 114 93
f 17 117 98
f 21 125 88
f 31 152 65
f 26 137 57
f 38 158 77
f 39 123 86
f 27 143 64
f 22 127 53
f 28 135 74
f 29 147 84
f 30 150 89
f 31 153 70
f 26 140 99
f 38 138 95
f 39 159 81
f 21 122 52
f 14 107 109
f 13 103 105
f 15 104 111
f 16 110 114
f 17 113 117
f 21 118 125
f 31 154 152
f 26 141 137
f 38 162 158
f 39 121 123
f 27 142 143
f 22 129 127
f 28 130 135
f 29 144 147
f 30 146 150
f 31 151 153
f 26 131 140
f 38 136 138
f 39 161 159
f 21 126 122
f 14 44 107
f 13 43 103
f 15 45 104
f 16 46 110
f 17 47 113
f 21 52 118
f 31 70 154
f 26 99 141
f 38 95 162
f 39 81 121
f 27 59 142
f 22 58 129
f 28 60 130
f 29 61 144
f 30 62 146
f 31 65 151
f 26 57 131
f 38 77 136
f 39 86 161
f 21 88 126
f 17 98 116
f 14 68 108
f 13 48 106
f 15 78 112
f 16 93 115
f 18 69 119
f 35 101 156
f 42 97 139
f 40 82 160
f 19 50 120
f 30 89 149
f 27 64 132
f 22 53 128
f 28 74 145
f 29 84 148
f 32 90 155
f 23 63 133
f 24 55 134
f 37 76 157
f 41 87 124
f 35 72 109
f 18 49 105
f 19 79 111
f 40 96 114
f 42 102 117
f 34 91 125
f 33 67 152
f 25 56 137
f 36 75 158
f 20 83 123
f 32 66 143
f 23 54 127
f 24 73 135
f 37 85 147
f 41 92 150
f 34 71 153
f 33 100 140
f 25 94 138
f 36 80 159
f 20 51 122
f 17 116 107
f 14 108 103
f 13 106 104
f 15 112 110
f 16 115 113
f 18 119 118
f 35 156 154
f 42 139 141
f 40 160 162
f 19 120 121
f 30 149 142
f 27 132 129
f 22 128 130
f 28 145 144
f 29 148 146
f 32 155 151
f 23 133 131
f 24 134 136
f 37 157 161
f 41 124 126
f 107 44 47
f 103 43 44
f 104 45 43
f 110 46 45
f 113 47 46
f 118 52 49
f 154 70 72
f 141 99 102
f 162 95 96
f 121 81 79
f 142 59 62
f 129 58 59
f 130 60 58
f 144 61 60
f 146 62 61
f 151 65 66
f 131 57 54
f 136 77 73
f 161 86 85
f 126 88 92
f 116 98 101
f 108 68 69
f 106 48 50
f 112 78 82
f 115 93 97
f 119 69 71
f 156 101 100
f 139 97 94
f 160 82 80
f 120 50 51
f 149 89 90
f 132 64 63
f 128 53 55
f 145 74 76
f 148 84 87
f 155 90 91
f 133 63 67
f 134 55 56
f 157 76 75
f 124 87 83
f 109 72 68
f 105 49 48
f 111 79 78
f 114 96 93
f 117 102 98
f 125 91 88
f 152 67 65
f 137 56 57
f 158 75 77
f 123 83 86
f 143 66 64
f 127 54 53
f 135 73 74
f 147 85 84
f 150 92 89
f 153 71 70
f 140 100 99
f 138 94 95
f 159 80 81
f 122 51 52
f 107 116 109
f 103 108 105
f 104 106 111
f 110 112 114
f 113 115 117
f 118 119 125
f 154 156 152
f 141 139 137
f 162 160 158
f 121 120 123
f 142 149 143
f 129 132 127
f 130 128 135
f 144 145 147
f 146 148 150
f 151 155 153
f 131 133 140
f 136 134 138
f 161 157 159
f 126 124 122

