# https://github.com/mikedh/trimesh
v 0.18505650 2.35419557 0.14106152
v -0.12877390 3.63478056 0.10650729
v 0.18165746 2.35621865 0.24690755
v -0.13217295 3.63680365 0.21235332
v 0.00237458 2.99094599 0.22652803
v 0.00561389 2.98901780 0.12565607
v 0.07299553 2.86807261 0.23114439
v 0.07623483 2.86614443 0.13027244
v -0.12334917 3.67101803 0.15898584
v -0.15976075 3.66206783 0.15798760
v 0.20595626 2.32728750 0.19524391
v 0.16954468 2.31833731 0.19424567
v 0.02839111 2.99452618 0.12292770
v 0.15546850 2.38206206 0.13984424
v 0.19169828 2.39096739 0.14083747
v 0.20580086 2.32946217 0.14494312
v 0.17127362 2.32097528 0.14399653
v -0.14212076 3.59637495 0.10707825
v -0.10589098 3.60528053 0.10807146
v -0.12185498 3.66646197 0.10886662
v -0.15638223 3.65797484 0.10792005
v 0.02493665 2.99658230 0.23049938
v 0.15208648 2.38407481 0.24516005
v 0.18831627 2.39298039 0.24615325
v 0.20257773 2.33138050 0.24531146
v 0.16805049 2.32289337 0.24436488
v -0.14550277 3.59838795 0.21239404
v -0.10927299 3.60729328 0.21338726
v -0.12507811 3.66838006 0.20923498
v -0.15960536 3.65989317 0.20828838
v 0.00368278 2.98990520 0.17608352
v -0.15357761 3.62801492 0.20672965
v 0.15868581 2.35382411 0.24111138
v -0.15050595 3.62618671 0.11107797
v 0.16175747 2.35199590 0.14545964
v 0.07545511 2.86502868 0.18077513
v -0.11556197 3.63735944 0.20777186
v 0.19670145 2.36316863 0.24215354
v -0.11249030 3.63553123 0.11212012
v 0.19977312 2.36134042 0.14650186
v -0.14067326 3.67837344 0.15828892
v 0.19400102 2.31273504 0.19513816
v 0.17492673 2.39468722 0.13930683
v 0.16176337 2.36137782 0.14010194
v 0.19569837 2.36971927 0.14103225
v 0.20226434 2.33935613 0.14290560
v 0.16992403 2.33140660 0.14201900
v -0.11902571 3.59416000 0.10694127
v -0.14609907 3.61761032 0.10620484
v -0.11216406 3.62595177 0.10713514
v -0.12039412 3.65596421 0.10737936
v -0.15273444 3.64801467 0.10649277
v 0.17148563 2.39673527 0.24646197
v 0.15835957 2.36340357 0.24609636
v 0.19229457 2.37174501 0.24702666
v 0.19892995 2.34134067 0.24673874
v 0.16658963 2.33339113 0.24585214
v -0.12246680 3.59620805 0.21409641
v -0.14950286 3.61963607 0.21219926
v -0.11556786 3.62797752 0.21312956
v -0.12372852 3.65794874 0.21121251
v -0.15606884 3.64999921 0.21032591
v 0.14206242 2.42236252 0.24330205
v -0.13667780 3.55976195 0.21261145
v 0.00224090 2.99082675 0.22332692
v -0.14386385 3.58766322 0.20946618
v 0.14862106 2.39417861 0.24167019
v 0.14539282 2.42038055 0.13959251
v -0.13334738 3.55777975 0.10890194
v 0.00527503 2.98902079 0.12884417
v -0.14068616 3.58577191 0.11051241
v 0.15179875 2.39228731 0.14271641
v 0.17954289 2.43157558 0.24432957
v -0.09919731 3.56897479 0.21363898
v 0.07373529 2.86643367 0.22800041
v -0.10560324 3.59706803 0.21051509
v 0.18688167 2.40358342 0.24271909
v 0.18287331 2.42959339 0.14062005
v -0.09586689 3.56699282 0.10992945
v 0.07676942 2.86462770 0.13351767
v -0.10242555 3.59517673 0.11156132
v 0.19005936 2.40169212 0.14376532
v -0.12241678 3.67097671 0.11194535
v -0.12543576 3.67277374 0.20595643
v -0.12114447 3.65922357 0.20414121
v -0.11826735 3.65751119 0.11454798
v -0.12653878 3.67904452 0.15872997
v -0.15813595 3.66219679 0.11096613
v -0.16115492 3.66399358 0.20497717
v -0.15858029 3.65002160 0.20311495
v -0.15570319 3.64830920 0.11352172
v -0.16064405 3.67066111 0.15779500
v 0.20735043 2.32536176 0.14825433
v 0.20433145 2.32715854 0.24226537
v 0.20189868 2.34104613 0.23970979
v 0.20477580 2.33933374 0.15011656
v 0.20683957 2.31869423 0.19543650
v 0.17163126 2.31658160 0.14727507
v 0.16861228 2.31837862 0.24128615
v 0.16446286 2.33184415 0.23868353
v 0.16733998 2.33013177 0.14909030
v 0.17273430 2.31031082 0.19450154
v 0.14735825 2.42013229 0.13799624
v 0.18133189 2.42848315 0.13892768
v -0.13169923 3.55882636 0.10727071
v -0.09772559 3.56717745 0.10820206
v 0.16561422 2.34182560 0.14178510
v 0.00659127 2.98919105 0.12319389
v 0.15965861 2.36223518 0.14201578
v 0.20126252 2.35058840 0.14276234
v 0.07389431 2.87209052 0.12759332
v 0.19706435 2.37142969 0.14304124
v 0.19287830 2.32271383 0.14440434
v 0.20429322 2.34048436 0.14549057
v 0.20729703 2.31835633 0.14833293
v 0.16747288 2.33143360 0.14448113
v 0.17491990 2.31039763 0.14744530
v -0.15173927 3.63678646 0.10684297
v -0.14759318 3.61597603 0.10818589
v -0.11609097 3.64554901 0.10782023
v -0.11018744 3.62517077 0.10921133
v -0.13642565 3.66643863 0.10814639
v -0.11810596 3.65603410 0.10999286
v -0.12570197 3.67715873 0.11166811
v -0.15492630 3.64698334 0.10898348
v -0.15807910 3.66920027 0.11078052
v 0.14392110 2.42217789 0.24502944
v 0.17789474 2.43052898 0.24596080
v -0.13513638 3.56087219 0.21430383
v -0.10116275 3.56922305 0.21523527
v 0.16228648 2.34380632 0.24541128
v 0.00319224 2.99121409 0.22903938
v 0.15638295 2.36418457 0.24402018
v 0.19793478 2.35256888 0.24638854
v 0.07049529 2.87411357 0.23343888
v 0.19378869 2.37337931 0.24504561
v 0.18963894 2.32464187 0.24527751
v 0.20112181 2.34237199 0.24424802
v 0.20427460 2.32015507 0.24245099
v 0.16430146 2.33332124 0.24323864
v 0.17189747 2.31219661 0.24156340
v -0.15506701 3.63876694 0.21046916
v -0.15086885 3.61792565 0.21019027
v -0.11941872 3.64752973 0.21144640
v -0.11346312 3.62712016 0.21121572
v -0.13966499 3.66836643 0.20901958
v -0.12127737 3.65792174 0.20875036
v -0.12872439 3.67895771 0.20578620
v -0.15809772 3.64887098 0.20774093
v -0.16110152 3.67099900 0.20489858
v -0.14406916 3.58820813 0.20481340
v 0.14874869 2.39336467 0.23705406
v -0.14118876 3.58649348 0.11511822
v 0.15162909 2.39165050 0.14735890
v -0.15292273 3.63028179 0.15881472
v 0.16091135 2.34968200 0.19336932
v -0.10543359 3.59770484 0.20587260
v 0.18738427 2.40286186 0.23811328
v -0.10255319 3.59599066 0.11617745
v 0.19026467 2.40114721 0.14841810
v -0.11471585 3.63967334 0.15986218
v 0.19911822 2.35907355 0.19441679
f 1 47 44
f 1 44 43
f 1 43 45
f 1 45 46
f 1 46 47
f 2 49 52
f 6 72 70
f 12 102 99
f 11 96 95
f 8 79 81
f 4 62 59
f 4 59 58
f 4 58 60
f 4 60 61
f 4 61 62
f 5 66 65
f 3 54 57
f 7 73 77
f 9 85 86
f 10 92 88
f 12 101 98
f 6 69 68
f 2 50 48
f 8 82 78
f 11 97 93
f 6 71 69
f 12 100 101
f 11 94 97
f 8 80 82
f 2 51 50
f 10 90 89
f 5 63 64
f 3 55 53
f 7 76 74
f 9 87 84
f 10 91 90
f 5 67 63
f 3 56 55
f 7 75 76
f 9 83 87
f 6 68 72
f 2 48 49
f 8 78 79
f 11 93 96
f 12 98 102
f 10 88 91
f 5 65 67
f 3 57 56
f 7 77 75
f 9 86 83
f 5 64 66
f 3 53 54
f 7 74 73
f 9 84 85
f 10 89 92
f 6 70 71
f 12 99 100
f 11 95 94
f 8 81 80
f 2 52 51
f 35 109 116
f 18 105 108
f 19 111 106
f 40 114 112
f 42 117 115
f 34 125 119
f 33 152 156
f 25 137 139
f 36 158 160
f 20 123 120
f 32 143 149
f 23 127 132
f 24 135 128
f 37 147 145
f 41 150 148
f 34 153 155
f 33 140 133
f 25 138 134
f 36 159 157
f 20 122 124
f 17 107 47
f 14 103 44
f 13 104 43
f 15 110 45
f 16 113 46
f 18 118 49
f 35 154 72
f 42 141 102
f 40 162 96
f 19 121 79
f 30 142 62
f 27 129 59
f 22 130 58
f 28 144 60
f 29 146 61
f 32 151 66
f 23 131 54
f 24 136 73
f 37 161 85
f 41 126 92
f 35 116 101
f 18 108 69
f 19 106 50
f 40 112 82
f 42 115 97
f 34 119 71
f 33 156 100
f 25 139 94
f 36 160 80
f 20 120 51
f 32 149 90
f 23 132 63
f 24 128 55
f 37 145 76
f 41 148 87
f 34 155 91
f 33 133 67
f 25 134 56
f 36 157 75
f 20 124 83
f 14 109 68
f 13 105 48
f 15 111 78
f 16 114 93
f 17 117 98
f 21 125 88
f 31 152 65
f 26 137 57
f 38 158 77
f 39 123 86
f 27 143 64
f 22 127 53
f 28 135 74
f 29 147 84
f 30 150 89
f 31 153 70
f 26 140 99
f 38 138 95
f 39 159 81
f 21 122 52
f 14 107 109
f 13 103 105
f 15 104 111
f 16 110 114
f 17 113 117
f 21 118 125
f 31 154 152
f 26 141 137
f 38 162 158
f 39 121 123
f 27 142 143
f 22 129 127
f 28 130 135
f 29 144 147
f 30 146 150
f 31 151 153
f 26 131 140
f 38 136 138
f 39 161 159
f 21 126 122
f 14 44 107
f 13 43 103
f 15 45 104
f 16 46 110
f 17 47 113
f 21 52 118
f 31 70 154
f 26 99 141
f 38 95 162
f 39 81 121
f 27 59 142
f 22 58 129
f 28 60 130
f 29 61 144
f 30 62 146
f 31 65 151
f 26 57 131
f 38 77 136
f 39 86 161
f 21 88 126
f 17 98 116
f 14 68 108
f 13 48 106
f 15 78 112
f 16 93 115
f 18 69 119
f 35 101 156
f 42 97 139
f 40 82 160
f 19 50 120
f 30 89 149
f 27 64 132
f 22 53 128
f 28 74 145
f 29 84 148
f 32 90 155
f 23 63 133
f 24 55 134
f 37 76 157
f 41 87 124
f 35 72 109
f 18 49 105
f 19 79 111
f 40 96 114
f 42 102 117
f 34 91 125
f 33 67 152
f 25 56 137
f 36 75 158
f 20 83 123
f 32 66 143
f 23 54 127
f 24 73 135
f 37 85 147
f 41 92 150
f 34 71 153
f 33 100 140
f 25 94 138
f 36 80 159
f 20 51 122
f 17 116 107
f 14 108 103
f 13 106 104
f 15 112 110
f 16 115 113
f 18 119 118
f 35 156 154
f 42 139 141
f 40 160 162
f 19 120 121
f 30 149 142
f 27 132 129
f 22 128 130
f 28 145 144
f 29 148 146
f 32 155 151
f 23 133 131
f 24 134 136
f 37 157 161
f 41 124 126
f 107 44 47
f 103 43 44
f 104 45 43
f 110 46 45
f 113 47 46
f 118 52 49
f 154 70 72
f 141 99 102
f 162 95 96
f 121 81 79
f 142 59 62
f 129 58 59
f 130 60 58
f 144 61 60
f 146 62 61
f 151 65 66
f 131 57 54
f 136 77 73
f 161 86 85
f 126 88 92
f 116 98 101
f 108 68 69
f 106 48 50
f 112 78 82
f 115 93 97
f 119 69 71
f 156 101 100
f 139 97 94
f 160 82 80
f 120 50 51
f 149 89 90
f 132 64 63
f 128 53 55
f 145 74 76
f 148 84 87
f 155 90 91
f 133 63 67
f 134 55 56
f 157 76 75
f 124 87 83
f 109 72 68
f 105 49 48
f 111 79 78
f 114 96 93
f 117 102 98
f 125 91 88
f 152 67 65
f 137 56 57
f 158 75 77
f 123 83 86
f 143 66 64
f 127 54 53
f 135 73 74
f 147 85 84
f 150 92 89
f 153 71 70
f 140 100 99
f 138 94 95
f 159 80 81
f 122 51 52
f 107 116 109
f 103 108 105
f 104 106 111
f 110 112 114
f 113 115 117
f 118 119 125
f 154 156 152
f 141 139 137
f 162 160 158
f 121 120 123
f 142 149 143
f 129 132 127
f 130 128 135
f 144 145 147
f 146 148 150
f 151 155 153
f 131 133 140
f 136 134 138
f 161 157 159
f 126 124 122

