# https://github.com/mikedh/trimesh
v 1.17649804 4.26050485 0.88654637
v 1.52217410 2.97479448 0.90213282
v 1.18894020 4.26244414 0.77056263
v 1.53461626 2.97673352 0.78614907
v 1.33929143 3.61354618 0.77859987
v 1.32743400 3.61169802 0.88913321
v 1.34136463 3.75654811 0.78121313
v 1.32950722 3.75470019 0.89174646
v 1.55161199 2.94803559 0.84616791
v 1.51561100 2.93830732 0.84214329
v 1.18889068 4.29714464 0.82981290
v 1.15288969 4.28741637 0.82578827
v 1.34945421 3.61769347 0.89530959
v 1.16425686 4.22150840 0.88428728
v 1.20007821 4.23118772 0.88829183
v 1.18296848 4.29259456 0.88474043
v 1.14883060 4.28336977 0.88092408
v 1.49204365 3.00233491 0.89906711
v 1.52786499 3.01201423 0.90307166
v 1.54387293 2.95024323 0.90101354
v 1.50973493 2.94101867 0.89719718
v 1.36209921 3.61966408 0.77743492
v 1.17663668 4.22343773 0.76888451
v 1.21245803 4.23311705 0.77288907
v 1.19476675 4.29443305 0.77475902
v 1.16062875 4.28520873 0.77094264
v 1.50442348 3.00426424 0.78366436
v 1.54024482 3.01394379 0.78766889
v 1.55567108 2.95208196 0.79103212
v 1.52153319 2.94285740 0.78721575
v 1.33305483 3.61253888 0.83383212
v 1.51105424 2.97387855 0.78922488
v 1.16710425 4.25316937 0.77371626
v 1.49981039 2.97212602 0.89403798
v 1.15586040 4.25141682 0.87852935
v 1.33516170 3.75787235 0.83648797
v 1.54864128 2.98403514 0.79342683
v 1.20469129 4.26332594 0.77791820
v 1.53739743 2.98228259 0.89823992
v 1.19344744 4.26157340 0.88273129
v 1.54009430 2.93312642 0.84468310
v 1.17145925 4.30423114 0.82806142
v 1.18715933 4.21971825 0.88773381
v 1.15969364 4.24285233 0.88453081
v 1.19324603 4.25191887 0.88828168
v 1.18443595 4.28203390 0.88664202
v 1.15246027 4.27339368 0.88306737
v 1.51094015 3.01544433 0.90233303
v 1.49879610 2.98159141 0.89982087
v 1.53234849 2.99065794 0.90357175
v 1.53983583 2.96015620 0.90266692
v 1.50786016 2.95151575 0.89909229
v 1.19975527 4.22168127 0.77031555
v 1.17215319 4.24479425 0.76838441
v 1.20570558 4.25386031 0.77213534
v 1.19664152 4.28393621 0.77286388
v 1.16466585 4.27529600 0.76928924
v 1.52353621 3.01740735 0.78491478
v 1.51125565 2.98353333 0.78367447
v 1.54480804 2.99259963 0.78742538
v 1.55204141 2.96205852 0.78888879
v 1.52006573 2.95341806 0.78531416
v 1.18630492 4.18464501 0.77016353
v 1.49332989 3.04269317 0.78400722
v 1.33868234 3.61342453 0.78207434
v 1.50023440 3.01439045 0.78691106
v 1.17806994 4.21265226 0.77238473
v 1.17411387 4.18274513 0.88380617
v 1.48113897 3.04079330 0.89764986
v 1.32757597 3.61169354 0.88560651
v 1.48860247 3.01257782 0.89534242
v 1.16643801 4.21083917 0.88081611
v 1.22336271 4.19465866 0.77430631
v 1.53038780 3.05270683 0.78815001
v 1.34078106 3.75819530 0.78471992
v 1.53806367 3.02461256 0.79114008
v 1.21589921 4.22287413 0.77661376
v 1.21117178 4.19275879 0.88794895
v 1.51819676 3.05080695 0.90179265
v 1.32967469 3.75646431 0.88825208
v 1.52643174 3.02279969 0.89957145
v 1.20426728 4.22106151 0.88504512
v 1.54599859 2.94613585 0.89764878
v 1.55704953 2.94785816 0.79463347
v 1.55393539 2.96182074 0.79698185
v 1.54340367 2.96017926 0.89515618
v 1.55271497 2.93938440 0.84614160
v 1.51068218 2.93659279 0.89370067
v 1.52173312 2.93831510 0.79068536
v 1.51692163 2.95181896 0.79284401
v 1.50638992 2.95017748 0.89101833
v 1.51899418 2.93027237 0.84237189
v 1.18276856 4.29713686 0.88127081
v 1.19381950 4.29885916 0.77825551
v 1.19811176 4.28527448 0.78093785
v 1.18758005 4.28363299 0.87911217
v 1.18550750 4.30517959 0.82958428
v 1.14745215 4.28759404 0.87732269
v 1.15850309 4.28931635 0.77430739
v 1.16109801 4.27527270 0.77680000
v 1.15056629 4.27363122 0.87497432
v 1.15178671 4.29606756 0.82581458
v 1.17547739 4.18383324 0.88581310
v 1.20906808 4.19290968 0.88956828
v 1.48285200 3.04058138 0.89967255
v 1.51644257 3.04965807 0.90342773
v 1.15375882 4.26208674 0.88290289
v 1.32802903 3.61189242 0.89195736
v 1.15854860 4.24117428 0.88216806
v 1.18900509 4.27161076 0.88684317
v 1.33000488 3.74817595 0.89444783
v 1.19553268 4.25116814 0.88630258
v 1.16843152 4.29229071 0.88345579
v 1.18709189 4.28214777 0.88411512
v 1.17933033 4.30330932 0.88106449
v 1.15068661 4.27231068 0.88004529
v 1.14731826 4.29465922 0.87748578
v 1.50331540 2.96194256 0.89866433
v 1.49697854 2.98241518 0.89742777
v 1.53856167 2.97146682 0.90260460
v 1.53396248 2.99240880 0.90156231
v 1.53115129 2.94318787 0.89981072
v 1.54220617 2.96133232 0.90012716
v 1.54611998 2.93906843 0.89760295
v 1.50580101 2.95149499 0.89605734
v 1.51410791 2.93041832 0.89402424
v 1.18805911 4.18579413 0.76852844
v 1.22164968 4.19487057 0.77228362
v 1.49543360 3.04254228 0.78238789
v 1.52902429 3.05161896 0.78614306
v 1.16594001 4.26398538 0.76935156
v 1.34047118 3.61383151 0.77597413
v 1.17053920 4.24304340 0.77039384
v 1.20118628 4.27350940 0.77329185
v 1.34244693 3.75011504 0.77846461
v 1.20752314 4.25303679 0.77452839
v 1.18028915 4.29413902 0.77292115
v 1.19870067 4.28395673 0.77589886
v 1.19039377 4.30503364 0.77793194
v 1.16229551 4.27411964 0.77182902
v 1.15838170 4.29638353 0.77435323
v 1.51549659 2.96384120 0.78511301
v 1.50896900 2.98428382 0.78565361
v 1.55074286 2.97336522 0.78905329
v 1.54595308 2.99427768 0.78978812
v 1.54300880 2.94503594 0.78927610
v 1.55381507 2.96314152 0.79191086
v 1.55718342 2.94079274 0.79447039
v 1.51740979 2.95330419 0.78784105
v 1.52517135 2.93214263 0.79089168
v 1.49968827 3.01357363 0.79197127
v 1.17715700 4.21319928 0.77742840
v 1.48914462 3.01193043 0.89025731
v 1.16661348 4.21155583 0.87571448
v 1.50620288 2.96975926 0.84165987
v 1.16052279 4.25548517 0.82607321
v 1.53788820 3.02389589 0.79624172
v 1.21535706 4.22352153 0.78169886
v 1.52734468 3.02225269 0.89452778
v 1.20481341 4.22187857 0.87998490
v 1.54397890 2.97996703 0.84588295
v 1.19829880 4.26569270 0.83029631
f 1 47 44
f 1 44 43
f 1 43 45
f 1 45 46
f 1 46 47
f 2 49 52
f 6 72 70
f 12 102 99
f 11 96 95
f 8 79 81
f 4 62 59
f 4 59 58
f 4 58 60
f 4 60 61
f 4 61 62
f 5 66 65
f 3 54 57
f 7 73 77
f 9 85 86
f 10 92 88
f 12 101 98
f 6 69 68
f 2 50 48
f 8 82 78
f 11 97 93
f 6 71 69
f 12 100 101
f 11 94 97
f 8 80 82
f 2 51 50
f 10 90 89
f 5 63 64
f 3 55 53
f 7 76 74
f 9 87 84
f 10 91 90
f 5 67 63
f 3 56 55
f 7 75 76
f 9 83 87
f 6 68 72
f 2 48 49
f 8 78 79
f 11 93 96
f 12 98 102
f 10 88 91
f 5 65 67
f 3 57 56
f 7 77 75
f 9 86 83
f 5 64 66
f 3 53 54
f 7 74 73
f 9 84 85
f 10 89 92
f 6 70 71
f 12 99 100
f 11 95 94
f 8 81 80
f 2 52 51
f 35 109 116
f 18 105 108
f 19 111 106
f 40 114 112
f 42 117 115
f 34 125 119
f 33 152 156
f 25 137 139
f 36 158 160
f 20 123 120
f 32 143 149
f 23 127 132
f 24 135 128
f 37 147 145
f 41 150 148
f 34 153 155
f 33 140 133
f 25 138 134
f 36 159 157
f 20 122 124
f 17 107 47
f 14 103 44
f 13 104 43
f 15 110 45
f 16 113 46
f 18 118 49
f 35 154 72
f 42 141 102
f 40 162 96
f 19 121 79
f 30 142 62
f 27 129 59
f 22 130 58
f 28 144 60
f 29 146 61
f 32 151 66
f 23 131 54
f 24 136 73
f 37 161 85
f 41 126 92
f 35 116 101
f 18 108 69
f 19 106 50
f 40 112 82
f 42 115 97
f 34 119 71
f 33 156 100
f 25 139 94
f 36 160 80
f 20 120 51
f 32 149 90
f 23 132 63
f 24 128 55
f 37 145 76
f 41 148 87
f 34 155 91
f 33 133 67
f 25 134 56
f 36 157 75
f 20 124 83
f 14 109 68
f 13 105 48
f 15 111 78
f 16 114 93
f 17 117 98
f 21 125 88
f 31 152 65
f 26 137 57
f 38 158 77
f 39 123 86
f 27 143 64
f 22 127 53
f 28 135 74
f 29 147 84
f 30 150 89
f 31 153 70
f 26 140 99
f 38 138 95
f 39 159 81
f 21 122 52
f 14 107 109
f 13 103 105
f 15 104 111
f 16 110 114
f 17 113 117
f 21 118 125
f 31 154 152
f 26 141 137
f 38 162 158
f 39 121 123
f 27 142 143
f 22 129 127
f 28 130 135
f 29 144 147
f 30 146 150
f 31 151 153
f 26 131 140
f 38 136 138
f 39 161 159
f 21 126 122
f 14 44 107
f 13 43 103
f 15 45 104
f 16 46 110
f 17 47 113
f 21 52 118
f 31 70 154
f 26 99 141
f 38 95 162
f 39 81 121
f 27 59 142
f 22 58 129
f 28 60 130
f 29 61 144
f 30 62 146
f 31 65 151
f 26 57 131
f 38 77 136
f 39 86 161
f 21 88 126
f 17 98 116
f 14 68 108
f 13 48 106
f 15 78 112
f 16 93 115
f 18 69 119
f 35 101 156
f 42 97 139
f 40 82 160
f 19 50 120
f 30 89 149
f 27 64 132
f 22 53 128
f 28 74 145
f 29 84 148
f 32 90 155
f 23 63 133
f 24 55 134
f 37 76 157
f 41 87 124
f 35 72 109
f 18 49 105
f 19 79 111
f 40 96 114
f 42 102 117
f 34 91 125
f 33 67 152
f 25 56 137
f 36 75 158
f 20 83 123
f 32 66 143
f 23 54 127
f 24 73 135
f 37 85 147
f 41 92 150
f 34 71 153
f 33 100 140
f 25 94 138
f 36 80 159
f 20 51 122
f 17 116 107
f 14 108 103
f 13 106 104
f 15 112 110
f 16 115 113
f 18 119 118
f 35 156 154
f 42 139 141
f 40 160 162
f 19 120 121
f 30 149 142
f 27 132 129
f 22 128 130
f 28 145 144
f 29 148 146
f 32 155 151
f 23 133 131
f 24 134 136
f 37 157 161
f 41 124 126
f 107 44 47
f 103 43 44
f 104 45 43
f 110 46 45
f 113 47 46
f 118 52 49
f 154 70 72
f 141 99 102
f 162 95 96
f 121 81 79
f 142 59 62
f 129 58 59
f 130 60 58
f 144 61 60
f 146 62 61
f 151 65 66
f 131 57 54
f 136 77 73
f 161 86 85
f 126 88 92
f 116 98 101
f 108 68 69
f 106 48 50
f 112 78 82
f 115 93 97
f 119 69 71
f 156 101 100
f 139 97 94
f 160 82 80
f 120 50 51
f 149 89 90
f 132 64 63
f 128 53 55
f 145 74 76
f 148 84 87
f 155 90 91
f 133 63 67
f 134 55 56
f 157 76 75
f 124 87 83
f 109 72 68
f 105 49 48
f 111 79 78
f 114 96 93
f 117 102 98
f 125 91 88
f 152 67 65
f 137 56 57
f 158 75 77
f 123 83 86
f 143 66 64
f 127 54 53
f 135 73 74
f 147 85 84
f 150 92 89
f 153 71 70
f 140 100 99
f 138 94 95
f 159 80 81
f 122 51 52
f 107 116 109
f 103 108 105
f 104 106 111
f 110 112 114
f 113 115 117
f 118 119 125
f 154 156 152
f 141 139 137
f 162 160 158
f 121 120 123
f 142 149 143
f 129 132 127
f 130 128 135
f 144 145 147
f 146 148 150
f 151 155 153
f 131 133 140
f 136 134 138
f 161 157 159
f 126 124 122

