# https://github.com/mikedh/trimesh
v 1.24852716 2.82915949 0.76827819
v 0.90894429 4.12642246 0.74778923
v 1.54203643 2.90623642 0.78381588
v 1.20245349 4.20349915 0.76332694
v 1.36411512 3.55309861 0.79629732
v 1.08439875 3.47964372 0.78148979
v 1.40128812 3.41903994 0.75911128
v 1.12157175 3.34558504 0.74430376
v 1.04814306 4.19691739 0.73976514
v 1.04614238 4.19698507 0.77722046
v 1.40447081 2.83568620 0.76126441
v 1.40247012 2.83575412 0.79871971
v 1.07635524 3.47716211 0.75767859
v 1.23929625 2.86296022 0.78986095
v 1.24128689 2.86289260 0.75259267
v 1.26436672 2.80255314 0.75481295
v 1.26246962 2.80261771 0.79032988
v 0.91728733 4.09308761 0.77043235
v 0.91927796 4.09302021 0.73316406
v 0.90982388 4.15696556 0.73342138
v 0.90792679 4.15702965 0.76893835
v 1.37464975 3.55549571 0.77346960
v 1.53133527 2.93965107 0.80532080
v 1.53332578 2.93958343 0.76805253
v 1.54268645 2.87564138 0.76954654
v 1.54078936 2.87570572 0.80506348
v 1.20932630 4.16977844 0.78589220
v 1.21131693 4.16971105 0.74862392
v 1.18814356 4.23005356 0.74815498
v 1.18624646 4.23011813 0.78367191
v 1.22423982 3.51637171 0.78921394
v 1.18793892 4.19659043 0.78562241
v 1.52582615 2.90580507 0.80600904
v 0.92269823 4.12693713 0.77158117
v 1.26058545 2.83615177 0.79196781
v 1.26201896 3.38012742 0.75142164
v 1.19002772 4.19651950 0.74651706
v 1.52791495 2.90573414 0.76690369
v 0.92478703 4.12686619 0.73247582
v 1.26267426 2.83608085 0.75286246
v 1.04443394 4.20804096 0.75464920
v 1.40657106 2.82461710 0.77649897
v 1.23594577 2.86976757 0.76775110
v 1.24397646 2.84147802 0.78896623
v 1.24584098 2.84141485 0.75405848
v 1.25679887 2.81162253 0.75552031
v 1.25502189 2.81168275 0.78878764
v 0.91787217 4.08486196 0.74855990
v 0.91085139 4.11407138 0.76886690
v 0.91271591 4.11400821 0.73395915
v 0.90766355 4.14537723 0.73445501
v 0.90588670 4.14543745 0.76772235
v 1.53308526 2.94779792 0.78348095
v 1.53789727 2.91866306 0.80452571
v 1.53976179 2.91859990 0.76961795
v 1.54472648 2.88723359 0.77076254
v 1.54294962 2.88729404 0.80402985
v 1.21501154 4.16289209 0.76428978
v 1.20477220 4.19125642 0.78442637
v 1.20663672 4.19119326 0.74951864
v 1.19559128 4.22098829 0.74969725
v 1.19381430 4.22104898 0.78296453
v 1.51887583 2.97802496 0.80523090
v 1.21726268 4.13023720 0.78703289
v 1.35524350 3.55077287 0.79607140
v 1.20321121 4.15691410 0.78663640
v 1.51969695 2.94788617 0.80573176
v 1.23129117 2.90250380 0.79000682
v 0.92967796 4.05471605 0.77180882
v 1.09324443 3.48197048 0.78220179
v 0.92881409 4.08485631 0.77211044
v 1.24529983 2.87582838 0.79120580
v 1.52093515 2.97795523 0.76667605
v 1.21932201 4.13016771 0.74847802
v 1.39287632 3.41505615 0.75842543
v 1.20531335 4.15684289 0.74727906
v 1.52179908 2.94781495 0.76637442
v 1.23335049 2.90243407 0.75145198
v 0.93173729 4.05464608 0.73325399
v 1.13087712 3.34625376 0.74455583
v 0.93091623 4.08478511 0.73275311
v 1.24740197 2.87575693 0.75184848
v 0.91752858 4.16364272 0.73320603
v 1.17821979 4.23210155 0.74700641
v 1.17577955 4.21659405 0.74601869
v 0.92733899 4.15135222 0.73286685
v 1.04587612 4.20533750 0.74081839
v 0.91556607 4.16370975 0.76994903
v 1.17625717 4.23216810 0.78374944
v 1.17372258 4.21666414 0.78452759
v 0.92528208 4.15142231 0.77137574
v 1.04400218 4.20540095 0.77590129
v 1.27435601 2.80050317 0.75473541
v 1.53504711 2.86896175 0.76853582
v 1.52533110 2.88124897 0.76710912
v 1.27689060 2.81600738 0.75395725
v 1.40661100 2.82727033 0.76258358
v 1.27239339 2.80056972 0.79147845
v 1.53308460 2.86902832 0.80527885
v 1.52327413 2.88131881 0.80561804
v 1.27483363 2.81607722 0.79246616
v 1.40473706 2.82733401 0.79766644
v 1.22695088 2.90063453 0.78796956
v 1.22881756 2.90057126 0.75302208
v 0.92499437 4.05415834 0.76975083
v 0.92686105 4.05409531 0.73480333
v 1.25234793 2.82272562 0.79033107
v 1.07755228 3.47783139 0.78020149
v 1.24908286 2.84419629 0.79102426
v 1.25430665 2.82265921 0.75366091
v 1.11297887 3.35007092 0.74476252
v 1.25113815 2.84412656 0.75254628
v 1.26380265 2.79898883 0.76897867
v 1.26381911 2.81400224 0.75358017
v 1.27586433 2.79378764 0.75655199
v 1.26179598 2.81407089 0.79145595
v 1.27408538 2.79384805 0.78985718
v 0.90895285 4.13455165 0.76961212
v 0.91661854 4.11426517 0.77096482
v 0.91091157 4.13448524 0.73294195
v 0.91867377 4.11419567 0.73248684
v 0.90747651 4.16021381 0.74747952
v 0.91496437 4.14668522 0.73253179
v 0.91553994 4.17028664 0.73481158
v 0.91294124 4.14675388 0.77040757
v 0.91376099 4.17034705 0.76811678
v 1.52375219 2.97857596 0.80368153
v 1.52561888 2.97851269 0.76873404
v 1.22179562 4.13210001 0.78546278
v 1.22366231 4.13203651 0.75051532
v 1.53970162 2.89818604 0.80554291
v 1.37106023 3.55490783 0.79573911
v 1.53193941 2.91847561 0.80599804
v 1.54166033 2.89811962 0.76887275
v 1.40648671 3.42714737 0.76030015
v 1.53399469 2.91840587 0.76752006
v 1.54352226 2.87244468 0.78378637
v 1.53767195 2.88591739 0.76807729
v 1.53685213 2.86232422 0.77036809
v 1.53564881 2.88598605 0.80595307
v 1.53507318 2.86238462 0.80367327
v 1.19630653 4.21001206 0.78482395
v 1.19947503 4.18854472 0.78593857
v 1.19826525 4.20994565 0.74815380
v 1.20153031 4.18847521 0.74746059
v 1.18719616 4.23366966 0.76228721
v 1.18881719 4.21860014 0.74702895
v 1.17652779 4.23882323 0.74862768
v 1.18679407 4.21866880 0.78490472
v 1.17474885 4.23888364 0.78193286
v 1.19018383 4.15423186 0.78613881
v 1.50702981 2.94382736 0.80525594
v 0.94146048 4.08891567 0.77297200
v 1.25830658 2.87851166 0.79208909
v 1.05446357 4.16501029 0.77864887
v 1.39405042 2.86773226 0.79913804
v 1.19230659 4.15415961 0.74639578
v 1.50915269 2.94375560 0.76551286
v 0.94358337 4.08884391 0.73322892
v 1.26042935 2.87843941 0.75234605
v 1.05656277 4.16493924 0.73934679
v 1.39614961 2.86766098 0.75983601
f 1 47 44
f 1 44 43
f 1 43 45
f 1 45 46
f 1 46 47
f 2 49 52
f 6 72 70
f 12 102 99
f 11 96 95
f 8 79 81
f 4 62 59
f 4 59 58
f 4 58 60
f 4 60 61
f 4 61 62
f 5 66 65
f 3 54 57
f 7 73 77
f 9 85 86
f 10 92 88
f 12 101 98
f 6 69 68
f 2 50 48
f 8 82 78
f 11 97 93
f 6 71 69
f 12 100 101
f 11 94 97
f 8 80 82
f 2 51 50
f 10 90 89
f 5 63 64
f 3 55 53
f 7 76 74
f 9 87 84
f 10 91 90
f 5 67 63
f 3 56 55
f 7 75 76
f 9 83 87
f 6 68 72
f 2 48 49
f 8 78 79
f 11 93 96
f 12 98 102
f 10 88 91
f 5 65 67
f 3 57 56
f 7 77 75
f 9 86 83
f 5 64 66
f 3 53 54
f 7 74 73
f 9 84 85
f 10 89 92
f 6 70 71
f 12 99 100
f 11 95 94
f 8 81 80
f 2 52 51
f 35 109 116
f 18 105 108
f 19 111 106
f 40 114 112
f 42 117 115
f 34 125 119
f 33 152 156
f 25 137 139
f 36 158 160
f 20 123 120
f 32 143 149
f 23 127 132
f 24 135 128
f 37 147 145
f 41 150 148
f 34 153 155
f 33 140 133
f 25 138 134
f 36 159 157
f 20 122 124
f 17 107 47
f 14 103 44
f 13 104 43
f 15 110 45
f 16 113 46
f 18 118 49
f 35 154 72
f 42 141 102
f 40 162 96
f 19 121 79
f 30 142 62
f 27 129 59
f 22 130 58
f 28 144 60
f 29 146 61
f 32 151 66
f 23 131 54
f 24 136 73
f 37 161 85
f 41 126 92
f 35 116 101
f 18 108 69
f 19 106 50
f 40 112 82
f 42 115 97
f 34 119 71
f 33 156 100
f 25 139 94
f 36 160 80
f 20 120 51
f 32 149 90
f 23 132 63
f 24 128 55
f 37 145 76
f 41 148 87
f 34 155 91
f 33 133 67
f 25 134 56
f 36 157 75
f 20 124 83
f 14 109 68
f 13 105 48
f 15 111 78
f 16 114 93
f 17 117 98
f 21 125 88
f 31 152 65
f 26 137 57
f 38 158 77
f 39 123 86
f 27 143 64
f 22 127 53
f 28 135 74
f 29 147 84
f 30 150 89
f 31 153 70
f 26 140 99
f 38 138 95
f 39 159 81
f 21 122 52
f 14 107 109
f 13 103 105
f 15 104 111
f 16 110 114
f 17 113 117
f 21 118 125
f 31 154 152
f 26 141 137
f 38 162 158
f 39 121 123
f 27 142 143
f 22 129 127
f 28 130 135
f 29 144 147
f 30 146 150
f 31 151 153
f 26 131 140
f 38 136 138
f 39 161 159
f 21 126 122
f 14 44 107
f 13 43 103
f 15 45 104
f 16 46 110
f 17 47 113
f 21 52 118
f 31 70 154
f 26 99 141
f 38 95 162
f 39 81 121
f 27 59 142
f 22 58 129
f 28 60 130
f 29 61 144
f 30 62 146
f 31 65 151
f 26 57 131
f 38 77 136
f 39 86 161
f 21 88 126
f 17 98 116
f 14 68 108
f 13 48 106
f 15 78 112
f 16 93 115
f 18 69 119
f 35 101 156
f 42 97 139
f 40 82 160
f 19 50 120
f 30 89 149
f 27 64 132
f 22 53 128
f 28 74 145
f 29 84 148
f 32 90 155
f 23 63 133
f 24 55 134
f 37 76 157
f 41 87 124
f 35 72 109
f 18 49 105
f 19 79 111
f 40 96 114
f 42 102 117
f 34 91 125
f 33 67 152
f 25 56 137
f 36 75 158
f 20 83 123
f 32 66 143
f 23 54 127
f 24 73 135
f 37 85 147
f 41 92 150
f 34 71 153
f 33 100 140
f 25 94 138
f 36 80 159
f 20 51 122
f 17 116 107
f 14 108 103
f 13 106 104
f 15 112 110
f 16 115 113
f 18 119 118
f 35 156 154
f 42 139 141
f 40 160 162
f 19 120 121
f 30 149 142
f 27 132 129
f 22 128 130
f 28 145 144
f 29 148 146
f 32 155 151
f 23 133 131
f 24 134 136
f 37 157 161
f 41 124 126
f 107 44 47
f 103 43 44
f 104 45 43
f 110 46 45
f 113 47 46
f 118 52 49
f 154 70 72
f 141 99 102
f 162 95 96
f 121 81 79
f 142 59 62
f 129 58 59
f 130 60 58
f 144 61 60
f 146 62 61
f 151 65 66
f 131 57 54
f 136 77 73
f 161 86 85
f 126 88 92
f 116 98 101
f 108 68 69
f 106 48 50
f 112 78 82
f 115 93 97
f 119 69 71
f 156 101 100
f 139 97 94
f 160 82 80
f 120 50 51
f 149 89 90
f 132 64 63
f 128 53 55
f 145 74 76
f 148 84 87
f 155 90 91
f 133 63 67
f 134 55 56
f 157 76 75
f 124 87 83
f 109 72 68
f 105 49 48
f 111 79 78
f 114 96 93
f 117 102 98
f 125 91 88
f 152 67 65
f 137 56 57
f 158 75 77
f 123 83 86
f 143 66 64
f 127 54 53
f 135 73 74
f 147 85 84
f 150 92 89
f 153 71 70
f 140 100 99
f 138 94 95
f 159 80 81
f 122 51 52
f 107 116 109
f 103 108 105
f 104 106 111
f 110 112 114
f 113 115 117
f 118 119 125
f 154 156 152
f 141 139 137
f 162 160 158
f 121 120 123
f 142 149 143
f 129 132 127
f 130 128 135
f 144 145 147
f 146 148 150
f 151 155 153
f 131 133 140
f 136 134 138
f 161 157 159
f 126 124 122

