# https://github.com/mikedh/trimesh
v 3.57361152 3.92217272 1.84146150
v 3.24033445 5.16592459 1.84081020
v 3.57226737 3.92187610 1.96259040
v 3.23899030 5.16562797 1.96193909
v 3.38332581 4.53777422 1.95915615
v 3.38460689 4.53805681 1.84371946
v 3.45576281 4.41950022 1.95967024
v 3.45704388 4.41978281 1.84423355
v 3.24623225 5.20040324 1.90153235
v 3.21000408 5.19069557 1.90110647
v 3.59594320 3.89532214 1.90221588
v 3.55971503 3.88561399 1.90179004
v 3.40720476 4.54411038 1.84015096
v 3.54363351 3.94863359 1.84149708
v 3.57968072 3.95829305 1.84192080
v 3.59476714 3.89848030 1.84477300
v 3.56041394 3.88927469 1.84436915
v 3.22760394 5.12801962 1.84087943
v 3.26365116 5.13767930 1.84130314
v 3.24680804 5.19702435 1.84409287
v 3.21245460 5.18781850 1.84368916
v 3.40583871 4.54380881 1.96325479
v 3.54229612 3.94833841 1.96201922
v 3.57834333 3.95799786 1.96244295
v 3.59349268 3.89819896 1.95963321
v 3.55913924 3.88899336 1.95922950
v 3.22626655 5.12772419 1.96140159
v 3.26231377 5.13738388 1.96182530
v 3.24553334 5.19674255 1.95895324
v 3.21118014 5.18753717 1.95854938
v 3.38365648 4.53783227 1.90143411
v 3.21764775 5.15657742 1.95584618
v 3.54926070 3.91903610 1.95649432
v 3.21886252 5.15684578 1.84638344
v 3.55047546 3.91930422 1.84703160
v 3.45727454 4.41763032 1.90195656
v 3.25547182 5.16671350 1.95629076
v 3.58708477 3.92917170 1.95693893
v 3.25668658 5.16698138 1.84682806
v 3.58829953 3.92943982 1.84747621
v 3.22881563 5.20713908 1.90135553
v 3.58422808 3.88078010 1.90205022
v 3.56285412 3.96150772 1.84068927
v 3.55023420 3.92858362 1.84113284
v 3.58399845 3.93763115 1.84152970
v 3.59104777 3.90809623 1.84277240
v 3.55887033 3.89947376 1.84239416
v 3.25068695 5.12648038 1.84007918
v 3.22329513 5.14868357 1.84049390
v 3.25705915 5.15773110 1.84089076
v 3.24839551 5.18683466 1.84210270
v 3.21621808 5.17821220 1.84172458
v 3.56149328 3.96120733 1.96331634
v 3.54888813 3.92828638 1.96243161
v 3.58265214 3.93733415 1.96282845
v 3.58972919 3.90780528 1.96159780
v 3.55755177 3.89918280 1.96121968
v 3.24932611 5.12617998 1.96270626
v 3.22194882 5.14838633 1.96179268
v 3.25571308 5.15743386 1.96218954
v 3.24707695 5.18654372 1.96092821
v 3.21489951 5.17792125 1.96054998
v 3.53167552 3.98552452 1.96107326
v 3.23566296 5.09020917 1.96049470
v 3.38313132 4.53772015 1.95549742
v 3.22800702 5.11734796 1.95775473
v 3.53861577 3.95819118 1.95836176
v 3.53299260 3.98581519 1.84238935
v 3.23698006 5.09050008 1.84181076
v 3.38433109 4.53798469 1.84737249
v 3.22926370 5.11762522 1.84451322
v 3.53987245 3.95846867 1.84512023
v 3.56896721 3.99551740 1.96151161
v 3.27295467 5.10020228 1.96093303
v 3.45646421 4.41798309 1.95601794
v 3.26607483 5.12754880 1.95820215
v 3.57668357 3.96839226 1.95880916
v 3.57028431 3.99580831 1.84282767
v 3.27427176 5.10049271 1.84224914
v 3.45766422 4.41824811 1.84789297
v 3.26733151 5.12782653 1.84496060
v 3.57794025 3.96866951 1.84556764
v 3.24623961 5.20135789 1.84773520
v 3.24504552 5.20109423 1.95532046
v 3.24949801 5.18800496 1.95280964
v 3.25063596 5.18825625 1.85028015
v 3.24292212 5.20816675 1.90151464
v 3.21070017 5.19183445 1.84731752
v 3.20950632 5.19157079 1.95490275
v 3.21225071 5.17802431 1.95237175
v 3.21338866 5.17827513 1.84984230
v 3.20898885 5.19907364 1.90111582
v 3.59644095 3.89444644 1.84841964
v 3.59524711 3.89418302 1.95600486
v 3.59255862 3.90774210 1.95348010
v 3.59369657 3.90799316 1.85095063
v 3.59695843 3.88694383 1.90220656
v 3.56090176 3.88492325 1.84800192
v 3.55970767 3.88465958 1.95558717
v 3.55531132 3.89776122 1.95304223
v 3.55644926 3.89801228 1.85051275
v 3.56302516 3.87785073 1.90180774
v 3.53492680 3.98565872 1.84050832
v 3.56872926 3.99471658 1.84090571
v 3.23857732 5.09160061 1.83992919
v 3.27237977 5.10065869 1.84032644
v 3.55440659 3.90954468 1.84248780
v 3.38553139 4.53830299 1.84088406
v 3.54815814 3.92932512 1.84339499
v 3.58987537 3.91904916 1.84290460
v 3.45456515 4.42558566 1.84137405
v 3.58537537 3.93929833 1.84383249
v 3.58195996 3.89154792 1.84432490
v 3.59310667 3.90920021 1.84570256
v 3.59649512 3.88759703 1.84834229
v 3.55647170 3.89938317 1.84527201
v 3.56428092 3.87896471 1.84796356
v 3.21738796 5.16725903 1.84182911
v 3.22186719 5.14700535 1.84275729
v 3.25285673 5.17676328 1.84224606
v 3.25908465 5.15697831 1.84319469
v 3.23225067 5.19662328 1.84364143
v 3.25072988 5.18691130 1.84503350
v 3.24286149 5.20731634 1.84765115
v 3.21409492 5.17709425 1.84460283
v 3.21064752 5.19868427 1.84727252
v 3.53356750 3.98535879 1.96299594
v 3.56736996 3.99441663 1.96339321
v 3.23721802 5.09130089 1.96241666
v 3.27102048 5.10035850 1.96281407
v 3.55309054 3.90925420 1.96107631
v 3.38418723 4.53800634 1.96201249
v 3.54686263 3.92903917 1.96012769
v 3.58855932 3.91875869 1.96149324
v 3.45322099 4.42528900 1.96250247
v 3.58408009 3.93901237 1.96056506
v 3.58067893 3.89126521 1.95976303
v 3.59185236 3.90892323 1.95871955
v 3.59529976 3.88733320 1.95604986
v 3.55521740 3.89910641 1.95828886
v 3.56308580 3.87870090 1.95567125
v 3.21607191 5.16696855 1.96041775
v 3.22057191 5.14671938 1.95948986
v 3.25154069 5.17647280 1.96083457
v 3.25778913 5.15669235 1.95992739
v 3.23096963 5.19634081 1.95907954
v 3.24947558 5.18663406 1.95805038
v 3.24166636 5.20705253 1.95535883
v 3.21284061 5.17681750 1.95761980
v 3.20945216 5.19842045 1.95498008
v 3.22770248 5.11797069 1.95245448
v 3.53866472 3.95749449 1.95306224
v 3.22884138 5.11822212 1.84980831
v 3.53980386 3.95774592 1.85041607
v 3.21732593 5.15979862 1.90111209
v 3.55060701 3.91603239 1.90176339
v 3.26614342 5.12827180 1.95290629
v 3.57710590 3.96779536 1.95351407
v 3.26728255 5.12852275 1.85026016
v 3.57824480 3.96804678 1.85086789
v 3.25534026 5.16998508 1.90155899
v 3.58862135 3.92621885 1.90221028
f 1 47 44
f 1 44 43
f 1 43 45
f 1 45 46
f 1 46 47
f 2 49 52
f 6 72 70
f 12 102 99
f 11 96 95
f 8 79 81
f 4 62 59
f 4 59 58
f 4 58 60
f 4 60 61
f 4 61 62
f 5 66 65
f 3 54 57
f 7 73 77
f 9 85 86
f 10 92 88
f 12 101 98
f 6 69 68
f 2 50 48
f 8 82 78
f 11 97 93
f 6 71 69
f 12 100 101
f 11 94 97
f 8 80 82
f 2 51 50
f 10 90 89
f 5 63 64
f 3 55 53
f 7 76 74
f 9 87 84
f 10 91 90
f 5 67 63
f 3 56 55
f 7 75 76
f 9 83 87
f 6 68 72
f 2 48 49
f 8 78 79
f 11 93 96
f 12 98 102
f 10 88 91
f 5 65 67
f 3 57 56
f 7 77 75
f 9 86 83
f 5 64 66
f 3 53 54
f 7 74 73
f 9 84 85
f 10 89 92
f 6 70 71
f 12 99 100
f 11 95 94
f 8 81 80
f 2 52 51
f 35 109 116
f 18 105 108
f 19 111 106
f 40 114 112
f 42 117 115
f 34 125 119
f 33 152 156
f 25 137 139
f 36 158 160
f 20 123 120
f 32 143 149
f 23 127 132
f 24 135 128
f 37 147 145
f 41 150 148
f 34 153 155
f 33 140 133
f 25 138 134
f 36 159 157
f 20 122 124
f 17 107 47
f 14 103 44
f 13 104 43
f 15 110 45
f 16 113 46
f 18 118 49
f 35 154 72
f 42 141 102
f 40 162 96
f 19 121 79
f 30 142 62
f 27 129 59
f 22 130 58
f 28 144 60
f 29 146 61
f 32 151 66
f 23 131 54
f 24 136 73
f 37 161 85
f 41 126 92
f 35 116 101
f 18 108 69
f 19 106 50
f 40 112 82
f 42 115 97
f 34 119 71
f 33 156 100
f 25 139 94
f 36 160 80
f 20 120 51
f 32 149 90
f 23 132 63
f 24 128 55
f 37 145 76
f 41 148 87
f 34 155 91
f 33 133 67
f 25 134 56
f 36 157 75
f 20 124 83
f 14 109 68
f 13 105 48
f 15 111 78
f 16 114 93
f 17 117 98
f 21 125 88
f 31 152 65
f 26 137 57
f 38 158 77
f 39 123 86
f 27 143 64
f 22 127 53
f 28 135 74
f 29 147 84
f 30 150 89
f 31 153 70
f 26 140 99
f 38 138 95
f 39 159 81
f 21 122 52
f 14 107 109
f 13 103 105
f 15 104 111
f 16 110 114
f 17 113 117
f 21 118 125
f 31 154 152
f 26 141 137
f 38 162 158
f 39 121 123
f 27 142 143
f 22 129 127
f 28 130 135
f 29 144 147
f 30 146 150
f 31 151 153
f 26 131 140
f 38 136 138
f 39 161 159
f 21 126 122
f 14 44 107
f 13 43 103
f 15 45 104
f 16 46 110
f 17 47 113
f 21 52 118
f 31 70 154
f 26 99 141
f 38 95 162
f 39 81 121
f 27 59 142
f 22 58 129
f 28 60 130
f 29 61 144
f 30 62 146
f 31 65 151
f 26 57 131
f 38 77 136
f 39 86 161
f 21 88 126
f 17 98 116
f 14 68 108
f 13 48 106
f 15 78 112
f 16 93 115
f 18 69 119
f 35 101 156
f 42 97 139
f 40 82 160
f 19 50 120
f 30 89 149
f 27 64 132
f 22 53 128
f 28 74 145
f 29 84 148
f 32 90 155
f 23 63 133
f 24 55 134
f 37 76 157
f 41 87 124
f 35 72 109
f 18 49 105
f 19 79 111
f 40 96 114
f 42 102 117
f 34 91 125
f 33 67 152
f 25 56 137
f 36 75 158
f 20 83 123
f 32 66 143
f 23 54 127
f 24 73 135
f 37 85 147
f 41 92 150
f 34 71 153
f 33 100 140
f 25 94 138
f 36 80 159
f 20 51 122
f 17 116 107
f 14 108 103
f 13 106 104
f 15 112 110
f 16 115 113
f 18 119 118
f 35 156 154
f 42 139 141
f 40 160 162
f 19 120 121
f 30 149 142
f 27 132 129
f 22 128 130
f 28 145 144
f 29 148 146
f 32 155 151
f 23 133 131
f 24 134 136
f 37 157 161
f 41 124 126
f 107 44 47
f 103 43 44
f 104 45 43
f 110 46 45
f 113 47 46
f 118 52 49
f 154 70 72
f 141 99 102
f 162 95 96
f 121 81 79
f 142 59 62
f 129 58 59
f 130 60 58
f 144 61 60
f 146 62 61
f 151 65 66
f 131 57 54
f 136 77 73
f 161 86 85
f 126 88 92
f 116 98 101
f 108 68 69
f 106 48 50
f 112 78 82
f 115 93 97
f 119 69 71
f 156 101 100
f 139 97 94
f 160 82 80
f 120 50 51
f 149 89 90
f 132 64 63
f 128 53 55
f 145 74 76
f 148 84 87
f 155 90 91
f 133 63 67
f 134 55 56
f 157 76 75
f 124 87 83
f 109 72 68
f 105 49 48
f 111 79 78
f 114 96 93
f 117 102 98
f 125 91 88
f 152 67 65
f 137 56 57
f 158 75 77
f 123 83 86
f 143 66 64
f 127 54 53
f 135 73 74
f 147 85 84
f 150 92 89
f 153 71 70
f 140 100 99
f 138 94 95
f 159 80 81
f 122 51 52
f 107 116 109
f 103 108 105
f 104 106 111
f 110 112 114
f 113 115 117
f 118 119 125
f 154 156 152
f 141 139 137
f 162 160 158
f 121 120 123
f 142 149 143
f 129 132 127
f 130 128 135
f 144 145 147
f 146 148 150
f 151 155 153
f 131 133 140
f 136 134 138
f 161 157 159
f 126 124 122

