# https://github.com/mikedh/trimesh
v 3.53743998 5.31857664 1.95557512
v 3.86391092 4.01797440 2.00778259
v 3.23614877 5.24166416 1.92360012
v 3.56261972 3.94106239 1.97580756
v 3.40394963 4.59346229 1.97344018
v 3.69108230 4.66675999 2.00391264
v 3.37450880 4.72729804 1.92892604
v 3.66164147 4.80059621 1.95939846
v 3.72297882 3.94725883 1.97786467
v 3.71890108 3.94773209 2.01514803
v 3.38040959 5.31199363 1.92308288
v 3.37633185 5.31246689 1.96036625
v 3.70315645 4.66889964 1.98171212
v 3.54272998 5.28500865 1.97881877
v 3.54678715 5.28453800 1.94172143
v 3.52401161 5.34505349 1.93934501
v 3.52014510 5.34550233 1.97469896
v 3.85230554 4.05171466 2.02832432
v 3.85636272 4.05124401 1.99122710
v 3.86486470 3.98715530 1.99385224
v 3.86099819 3.98760392 2.02920633
v 3.39695292 4.59073325 1.94921581
v 3.24294794 5.20848195 1.94700381
v 3.24700511 5.20801083 1.90990662
v 3.23831248 5.27212181 1.90902459
v 3.23444596 5.27257019 1.94437870
v 3.55252351 3.97518774 1.99650949
v 3.55658068 3.97471707 1.95941215
v 3.57916556 3.91422339 1.96353196
v 3.57529905 3.91467200 1.99888593
v 3.54748116 4.63011516 1.98899532
v 3.57381060 3.94830362 2.00010410
v 3.24896965 5.24241163 1.94815730
v 3.84608376 4.01780820 2.02899953
v 3.52124306 5.31191598 1.97705286
v 3.51756036 4.76613312 1.94375549
v 3.57806760 3.94780975 1.96117805
v 3.25322690 5.24191753 1.90923138
v 3.85034100 4.01731433 1.99007360
v 3.52550006 5.31142235 1.93812680
v 3.72413170 3.93632419 1.99330140
v 3.37597766 5.32330893 1.93762650
v 3.54961885 5.27786475 1.95764328
v 3.53848093 5.30652778 1.97689191
v 3.54228107 5.30608681 1.94214437
v 3.53141984 5.33597159 1.94140356
v 3.52779804 5.33639154 1.97451828
v 3.85541117 4.05964288 2.00654381
v 3.85874344 4.03065877 2.02810651
v 3.86254358 4.03021804 1.99335895
v 3.86707421 3.99878356 1.99507961
v 3.86345265 3.99920399 2.02819429
v 3.24460116 5.20000155 1.92527267
v 3.23676708 5.22950746 1.94487199
v 3.24056721 5.22906697 1.91012441
v 3.23585801 5.26052175 1.91003663
v 3.23223645 5.26094217 1.94315130
v 3.55039324 3.98177944 1.97417325
v 3.55702959 3.95363892 1.99608655
v 3.56082973 3.95319796 1.96133901
v 3.57151261 3.92333418 1.96371264
v 3.56789082 3.92375413 1.99682736
v 3.25496814 5.17001551 1.94945466
v 3.54493554 4.01483751 1.99582458
v 3.41301667 4.59578643 1.97464716
v 3.55880962 3.98808935 1.99808564
v 3.25454407 5.20022924 1.94942910
v 3.55017794 5.24537534 1.98078433
v 3.84014534 4.09019710 2.02715428
v 3.68196254 4.66444195 2.00318946
v 3.84048216 4.05999317 2.02797854
v 3.53621637 5.27213353 1.97932209
v 3.25916533 5.16952838 1.91107666
v 3.54913272 4.01435039 1.95744658
v 3.38321162 4.73127795 1.92958243
v 3.56309429 3.98759220 1.95890883
v 3.25882851 5.19973256 1.91025237
v 3.55437512 5.24488822 1.94240633
v 3.84434252 4.08971022 1.98877626
v 3.65215749 4.79993300 1.95812477
v 3.84476659 4.05949626 1.98880184
v 3.54050105 5.27163637 1.94014527
v 3.85698162 3.98046287 1.99245739
v 3.58937858 3.91215036 1.96405754
v 3.59226484 3.92767733 1.96328668
v 3.84729270 3.99277965 1.99035199
v 3.72496809 3.93883430 1.97938413
v 3.85298160 3.98092690 2.02903186
v 3.58537857 3.91261439 2.00063202
v 3.58807265 3.92816387 2.00161900
v 3.84310027 3.99326618 2.02868421
v 3.72114875 3.93927741 2.01430609
v 3.51393210 5.34711110 1.93759892
v 3.24632907 5.27879884 1.90919905
v 3.25621040 5.26645955 1.90954671
v 3.51123801 5.33156162 1.93661193
v 3.37816191 5.32044833 1.92392483
v 3.50993208 5.34757537 1.97417337
v 3.24232905 5.27926311 1.94577351
v 3.25201796 5.26694632 1.94787891
v 3.50704581 5.33204839 1.97494424
v 3.37434257 5.32089143 1.95884679
v 3.55493964 5.24721768 1.97946453
v 3.55874421 5.24677591 1.94467733
v 3.84523713 4.09072448 2.02588727
v 3.84904169 4.09028317 1.99110004
v 3.53007768 5.32534522 1.97662195
v 3.69826148 4.66855527 2.00374481
v 3.53292526 5.30383548 1.97811694
v 3.53406960 5.32488203 1.94012000
v 3.67020384 4.79610339 1.96132204
v 3.53711423 5.30334929 1.93981554
v 3.52233248 5.34883076 1.95336825
v 3.52458159 5.33356117 1.93836481
v 3.51221630 5.35386842 1.93905731
v 3.52045824 5.33403957 1.97606688
v 3.50859049 5.35428950 1.97220961
v 3.86021345 4.01014270 2.02941538
v 3.85255254 4.03049721 2.02922994
v 3.86420561 4.00967951 1.99291343
v 3.85674150 4.03001125 1.99092852
v 3.86490005 3.98410239 2.00814967
v 3.85996615 3.99744775 1.99199774
v 3.85862786 3.97382663 1.99445348
v 3.85584304 3.99792615 2.02969968
v 3.85500205 3.97424723 2.02760582
v 3.25026897 5.16944255 1.94713088
v 3.25407353 5.16900125 1.91234364
v 3.54056645 4.01294958 1.99355360
v 3.54437101 4.01250805 1.95876639
v 3.23510505 5.25004622 1.94531749
v 3.39697170 4.59164328 1.97176998
v 3.24256916 5.22971471 1.94730238
v 3.23909722 5.24958303 1.90881554
v 3.36891383 4.71919141 1.92934720
v 3.24675813 5.22922852 1.90900097
v 3.23519646 5.27553207 1.92289536
v 3.24346763 5.26179982 1.90853121
v 3.24430861 5.28547849 1.91062510
v 3.23934451 5.26227821 1.94623316
v 3.24068280 5.28589910 1.94377744
v 3.56524106 3.93484370 1.99811092
v 3.56219643 3.95637644 1.99841538
v 3.56923299 3.93438051 1.96160898
v 3.56638539 3.95589048 1.96011395
v 3.57776402 3.91080371 1.97767690
v 3.57885243 3.92568639 1.96216402
v 3.59072016 3.90543647 1.96602129
v 3.57472907 3.92616480 1.99986609
v 3.58709437 3.90585707 1.99917363
v 3.57213903 3.99076571 1.99970369
v 3.26752703 5.20428541 1.95099194
v 3.82745694 4.05594221 2.02679975
v 3.52284494 5.26946214 1.97808786
v 3.71075332 3.97980262 2.01478028
v 3.38427860 5.28041964 1.96257231
v 3.57646572 3.99026382 1.96014305
v 3.27185371 5.20378352 1.91143117
v 3.83178363 4.05544007 1.98723900
v 3.52717163 5.26895979 1.93852725
v 3.71503207 3.97930608 1.97565861
v 3.38855734 5.27992312 1.92345064
f 1 47 44
f 1 44 43
f 1 43 45
f 1 45 46
f 1 46 47
f 2 49 52
f 6 72 70
f 12 102 99
f 11 96 95
f 8 79 81
f 4 62 59
f 4 59 58
f 4 58 60
f 4 60 61
f 4 61 62
f 5 66 65
f 3 54 57
f 7 73 77
f 9 85 86
f 10 92 88
f 12 101 98
f 6 69 68
f 2 50 48
f 8 82 78
f 11 97 93
f 6 71 69
f 12 100 101
f 11 94 97
f 8 80 82
f 2 51 50
f 10 90 89
f 5 63 64
f 3 55 53
f 7 76 74
f 9 87 84
f 10 91 90
f 5 67 63
f 3 56 55
f 7 75 76
f 9 83 87
f 6 68 72
f 2 48 49
f 8 78 79
f 11 93 96
f 12 98 102
f 10 88 91
f 5 65 67
f 3 57 56
f 7 77 75
f 9 86 83
f 5 64 66
f 3 53 54
f 7 74 73
f 9 84 85
f 10 89 92
f 6 70 71
f 12 99 100
f 11 95 94
f 8 81 80
f 2 52 51
f 35 109 116
f 18 105 108
f 19 111 106
f 40 114 112
f 42 117 115
f 34 125 119
f 33 152 156
f 25 137 139
f 36 158 160
f 20 123 120
f 32 143 149
f 23 127 132
f 24 135 128
f 37 147 145
f 41 150 148
f 34 153 155
f 33 140 133
f 25 138 134
f 36 159 157
f 20 122 124
f 17 107 47
f 14 103 44
f 13 104 43
f 15 110 45
f 16 113 46
f 18 118 49
f 35 154 72
f 42 141 102
f 40 162 96
f 19 121 79
f 30 142 62
f 27 129 59
f 22 130 58
f 28 144 60
f 29 146 61
f 32 151 66
f 23 131 54
f 24 136 73
f 37 161 85
f 41 126 92
f 35 116 101
f 18 108 69
f 19 106 50
f 40 112 82
f 42 115 97
f 34 119 71
f 33 156 100
f 25 139 94
f 36 160 80
f 20 120 51
f 32 149 90
f 23 132 63
f 24 128 55
f 37 145 76
f 41 148 87
f 34 155 91
f 33 133 67
f 25 134 56
f 36 157 75
f 20 124 83
f 14 109 68
f 13 105 48
f 15 111 78
f 16 114 93
f 17 117 98
f 21 125 88
f 31 152 65
f 26 137 57
f 38 158 77
f 39 123 86
f 27 143 64
f 22 127 53
f 28 135 74
f 29 147 84
f 30 150 89
f 31 153 70
f 26 140 99
f 38 138 95
f 39 159 81
f 21 122 52
f 14 107 109
f 13 103 105
f 15 104 111
f 16 110 114
f 17 113 117
f 21 118 125
f 31 154 152
f 26 141 137
f 38 162 158
f 39 121 123
f 27 142 143
f 22 129 127
f 28 130 135
f 29 144 147
f 30 146 150
f 31 151 153
f 26 131 140
f 38 136 138
f 39 161 159
f 21 126 122
f 14 44 107
f 13 43 103
f 15 45 104
f 16 46 110
f 17 47 113
f 21 52 118
f 31 70 154
f 26 99 141
f 38 95 162
f 39 81 121
f 27 59 142
f 22 58 129
f 28 60 130
f 29 61 144
f 30 62 146
f 31 65 151
f 26 57 131
f 38 77 136
f 39 86 161
f 21 88 126
f 17 98 116
f 14 68 108
f 13 48 106
f 15 78 112
f 16 93 115
f 18 69 119
f 35 101 156
f 42 97 139
f 40 82 160
f 19 50 120
f 30 89 149
f 27 64 132
f 22 53 128
f 28 74 145
f 29 84 148
f 32 90 155
f 23 63 133
f 24 55 134
f 37 76 157
f 41 87 124
f 35 72 109
f 18 49 105
f 19 79 111
f 40 96 114
f 42 102 117
f 34 91 125
f 33 67 152
f 25 56 137
f 36 75 158
f 20 83 123
f 32 66 143
f 23 54 127
f 24 73 135
f 37 85 147
f 41 92 150
f 34 71 153
f 33 100 140
f 25 94 138
f 36 80 159
f 20 51 122
f 17 116 107
f 14 108 103
f 13 106 104
f 15 112 110
f 16 115 113
f 18 119 118
f 35 156 154
f 42 139 141
f 40 160 162
f 19 120 121
f 30 149 142
f 27 132 129
f 22 128 130
f 28 145 144
f 29 148 146
f 32 155 151
f 23 133 131
f 24 134 136
f 37 157 161
f 41 124 126
f 107 44 47
f 103 43 44
f 104 45 43
f 110 46 45
f 113 47 46
f 118 52 49
f 154 70 72
f 141 99 102
f 162 95 96
f 121 81 79
f 142 59 62
f 129 58 59
f 130 60 58
f 144 61 60
f 146 62 61
f 151 65 66
f 131 57 54
f 136 77 73
f 161 86 85
f 126 88 92
f 116 98 101
f 108 68 69
f 106 48 50
f 112 78 82
f 115 93 97
f 119 69 71
f 156 101 100
f 139 97 94
f 160 82 80
f 120 50 51
f 149 89 90
f 132 64 63
f 128 53 55
f 145 74 76
f 148 84 87
f 155 90 91
f 133 63 67
f 134 55 56
f 157 76 75
f 124 87 83
f 109 72 68
f 105 49 48
f 111 79 78
f 114 96 93
f 117 102 98
f 125 91 88
f 152 67 65
f 137 56 57
f 158 75 77
f 123 83 86
f 143 66 64
f 127 54 53
f 135 73 74
f 147 85 84
f 150 92 89
f 153 71 70
f 140 100 99
f 138 94 95
f 159 80 81
f 122 51 52
f 107 116 109
f 103 108 105
f 104 106 111
f 110 112 114
f 113 115 117
f 118 119 125
f 154 156 152
f 141 139 137
f 162 160 158
f 121 120 123
f 142 149 143
f 129 132 127
f 130 128 135
f 144 145 147
f 146 148 150
f 151 155 153
f 131 133 140
f 136 134 138
f 161 157 159
f 126 124 122

