# https://github.com/mikedh/trimesh
v 5.05920370 5.66162413 2.92284120
v 5.33562899 4.67826466 2.95755033
v 5.06573522 5.65899831 2.79643350
v 5.34216053 4.67563933 2.83114282
v 5.18156444 5.16109557 2.81574015
v 5.17533973 5.16359813 2.93620753
v 5.19085088 5.27335901 2.81388813
v 5.18462616 5.27586110 2.93435555
v 5.36042789 4.65686850 2.89587646
v 5.32436894 4.64667377 2.89422500
v 5.07037198 5.68871698 2.85945557
v 5.03431303 5.67852225 2.85780411
v 5.19758303 5.17002800 2.94123642
v 5.04512180 5.63016436 2.92244933
v 5.08100056 5.64030774 2.92409253
v 5.06706877 5.68711367 2.91943692
v 5.03287607 5.67744695 2.91787107
v 5.30724156 4.69769542 2.95536233
v 5.34312033 4.70783881 2.95700554
v 5.35567135 4.66043363 2.95567551
v 5.32147863 4.65076689 2.95410943
v 5.20422087 5.16735947 2.81276768
v 5.05162059 5.62755194 2.79667503
v 5.08749936 5.63769532 2.79831825
v 5.07326229 5.68462386 2.79957114
v 5.03906957 5.67495712 2.79800506
v 5.31374036 4.69508300 2.82958804
v 5.34961912 4.70522639 2.83123124
v 5.36186486 4.65794381 2.83580950
v 5.32767215 4.64827708 2.83424365
v 5.17814336 5.16225942 2.87595974
v 5.31902042 4.67196280 2.83612963
v 5.04397583 5.65041145 2.80159375
v 5.31311759 4.67433555 2.95036273
v 5.03807300 5.65278465 2.91582658
v 5.18758162 5.27635311 2.87407754
v 5.35666792 4.68260610 2.83785399
v 5.08162333 5.66105520 2.80331784
v 5.35076509 4.68497931 2.95208682
v 5.07572051 5.66342795 2.91755094
v 5.34829429 4.64435802 2.89550926
v 5.05350960 5.69302945 2.85849484
v 5.06770786 5.63043811 2.92471256
v 5.04171286 5.64658884 2.92233864
v 5.07531919 5.65608989 2.92387759
v 5.06808016 5.67902093 2.92173283
v 5.03605283 5.66996648 2.92026601
v 5.32662430 4.70936462 2.95722330
v 5.31288109 4.68193000 2.95638773
v 5.34648742 4.69143107 2.95792691
v 5.35228094 4.66800027 2.95741843
v 5.32025361 4.65894534 2.95595164
v 5.07432032 5.62777966 2.79674139
v 5.04825350 5.64395969 2.79575366
v 5.08185983 5.65346076 2.79729284
v 5.07448731 5.67644541 2.79772893
v 5.04245998 5.66739049 2.79626214
v 5.33323677 4.70670668 2.82925233
v 5.31942173 4.67930086 2.82980298
v 5.35302806 4.68880192 2.83134193
v 5.35868809 4.66542427 2.83341456
v 5.32666077 4.65636982 2.83194774
v 5.05925280 5.59786592 2.79864810
v 5.30477026 4.72445855 2.82947649
v 5.18113331 5.16110844 2.81954469
v 5.31029053 4.70287445 2.83305873
v 5.05266651 5.61934956 2.80071007
v 5.05285316 5.60043859 2.92250416
v 5.29837062 4.72703122 2.95333255
v 5.17530252 5.16345253 2.93238151
v 5.30418413 4.70532913 2.95123522
v 5.04656060 5.62180424 2.91888655
v 5.09637031 5.60835953 2.80034802
v 5.34188777 4.73495216 2.83117642
v 5.19053448 5.27476070 2.81766973
v 5.34818032 4.71358652 2.83479402
v 5.09055679 5.63006162 2.80244536
v 5.08997066 5.61093220 2.92420408
v 5.33548812 4.73752483 2.95503247
v 5.18470416 5.27710430 2.93050657
v 5.34207441 4.71604120 2.95297050
v 5.08445039 5.63251631 2.92062184
v 5.35738742 4.65721419 2.95202319
v 5.36318885 4.65488166 2.83974950
v 5.36094104 4.66571165 2.84205447
v 5.35541261 4.66793395 2.94905218
v 5.36107934 4.65016429 2.89604930
v 5.32201427 4.64721322 2.95040303
v 5.32781570 4.64488116 2.83812930
v 5.32386800 4.65523016 2.84035668
v 5.31833908 4.65745244 2.94735416
v 5.32730431 4.64061575 2.89450245
v 5.06692522 5.69050959 2.91555127
v 5.07272665 5.68817753 2.80327754
v 5.07640184 5.67793831 2.80632641
v 5.07087292 5.68016059 2.91332389
v 5.06743661 5.69477501 2.85917812
v 5.03155208 5.68050909 2.91393107
v 5.03735351 5.67817656 2.80165738
v 5.03932831 5.66745681 2.80462839
v 5.03379988 5.66967911 2.91162610
v 5.03366159 5.68522647 2.85763127
v 5.05434722 5.60146768 2.92455078
v 5.08799225 5.61097941 2.92609165
v 5.30014425 4.72706613 2.95541422
v 5.33378880 4.73657833 2.95695507
v 5.03675745 5.66118928 2.92036064
v 5.17607498 5.16391067 2.93921819
v 5.04038599 5.64509693 2.91991099
v 5.07206081 5.67117040 2.92197758
v 5.18492541 5.27089978 2.93745307
v 5.07742990 5.65556972 2.92160764
v 5.05270598 5.68585118 2.91902346
v 5.07056882 5.67917907 2.91881791
v 5.06384373 5.69510648 2.91536065
v 5.03410510 5.66887001 2.91714778
v 5.03178009 5.68604137 2.91389207
v 5.31628544 4.66679119 2.95545953
v 5.31101646 4.68235159 2.95389282
v 5.35158882 4.67677184 2.95707650
v 5.34806035 4.69282436 2.95558922
v 5.34275998 4.65400697 2.95544406
v 5.35454131 4.66897036 2.95447488
v 5.35715280 4.65168411 2.95218996
v 5.31807759 4.65866131 2.95280498
v 5.32508915 4.64261900 2.95072138
v 5.06095212 5.59881243 2.79672550
v 5.09459668 5.60832463 2.79826635
v 5.30674867 4.72441134 2.82758892
v 5.34039371 4.73392307 2.82912979
v 5.04315210 5.65861892 2.79660408
v 5.18260652 5.16128535 2.81281093
v 5.04668056 5.64256640 2.79809135
v 5.07845548 5.66859955 2.79822104
v 5.19145695 5.26827400 2.81104608
v 5.08372446 5.65303917 2.79978775
v 5.05893064 5.68334850 2.79855465
v 5.07666333 5.67672943 2.80087559
v 5.06965178 5.69277175 2.80295919
v 5.04019961 5.66642040 2.79920569
v 5.03758813 5.68370664 2.80149061
v 5.32268011 4.66422036 2.83170299
v 5.31731103 4.67982104 2.83207293
v 5.35798348 4.67420147 2.83331992
v 5.35435494 4.69029382 2.83376958
v 5.34898465 4.65150480 2.83497545
v 5.36063583 4.66652075 2.83653279
v 5.36296084 4.64934938 2.83978850
v 5.32417210 4.65621169 2.83486266
v 5.33089719 4.64028427 2.83831992
v 5.30996545 4.70241508 2.83859702
v 5.05204860 5.61993354 2.80621185
v 5.30443073 4.70464004 2.94571647
v 5.04651386 5.62215848 2.91333106
v 5.31666616 4.67066164 2.89332881
v 5.04023802 5.65403208 2.85861910
v 5.34822706 4.71323228 2.84034951
v 5.09031020 5.63075072 2.80796410
v 5.34269232 4.71545722 2.94746872
v 5.08477547 5.63297568 2.91508355
v 5.35450290 4.68135868 2.89506147
v 5.07807476 5.66472911 2.86035176
f 1 47 44
f 1 44 43
f 1 43 45
f 1 45 46
f 1 46 47
f 2 49 52
f 6 72 70
f 12 102 99
f 11 96 95
f 8 79 81
f 4 62 59
f 4 59 58
f 4 58 60
f 4 60 61
f 4 61 62
f 5 66 65
f 3 54 57
f 7 73 77
f 9 85 86
f 10 92 88
f 12 101 98
f 6 69 68
f 2 50 48
f 8 82 78
f 11 97 93
f 6 71 69
f 12 100 101
f 11 94 97
f 8 80 82
f 2 51 50
f 10 90 89
f 5 63 64
f 3 55 53
f 7 76 74
f 9 87 84
f 10 91 90
f 5 67 63
f 3 56 55
f 7 75 76
f 9 83 87
f 6 68 72
f 2 48 49
f 8 78 79
f 11 93 96
f 12 98 102
f 10 88 91
f 5 65 67
f 3 57 56
f 7 77 75
f 9 86 83
f 5 64 66
f 3 53 54
f 7 74 73
f 9 84 85
f 10 89 92
f 6 70 71
f 12 99 100
f 11 95 94
f 8 81 80
f 2 52 51
f 35 109 116
f 18 105 108
f 19 111 106
f 40 114 112
f 42 117 115
f 34 125 119
f 33 152 156
f 25 137 139
f 36 158 160
f 20 123 120
f 32 143 149
f 23 127 132
f 24 135 128
f 37 147 145
f 41 150 148
f 34 153 155
f 33 140 133
f 25 138 134
f 36 159 157
f 20 122 124
f 17 107 47
f 14 103 44
f 13 104 43
f 15 110 45
f 16 113 46
f 18 118 49
f 35 154 72
f 42 141 102
f 40 162 96
f 19 121 79
f 30 142 62
f 27 129 59
f 22 130 58
f 28 144 60
f 29 146 61
f 32 151 66
f 23 131 54
f 24 136 73
f 37 161 85
f 41 126 92
f 35 116 101
f 18 108 69
f 19 106 50
f 40 112 82
f 42 115 97
f 34 119 71
f 33 156 100
f 25 139 94
f 36 160 80
f 20 120 51
f 32 149 90
f 23 132 63
f 24 128 55
f 37 145 76
f 41 148 87
f 34 155 91
f 33 133 67
f 25 134 56
f 36 157 75
f 20 124 83
f 14 109 68
f 13 105 48
f 15 111 78
f 16 114 93
f 17 117 98
f 21 125 88
f 31 152 65
f 26 137 57
f 38 158 77
f 39 123 86
f 27 143 64
f 22 127 53
f 28 135 74
f 29 147 84
f 30 150 89
f 31 153 70
f 26 140 99
f 38 138 95
f 39 159 81
f 21 122 52
f 14 107 109
f 13 103 105
f 15 104 111
f 16 110 114
f 17 113 117
f 21 118 125
f 31 154 152
f 26 141 137
f 38 162 158
f 39 121 123
f 27 142 143
f 22 129 127
f 28 130 135
f 29 144 147
f 30 146 150
f 31 151 153
f 26 131 140
f 38 136 138
f 39 161 159
f 21 126 122
f 14 44 107
f 13 43 103
f 15 45 104
f 16 46 110
f 17 47 113
f 21 52 118
f 31 70 154
f 26 99 141
f 38 95 162
f 39 81 121
f 27 59 142
f 22 58 129
f 28 60 130
f 29 61 144
f 30 62 146
f 31 65 151
f 26 57 131
f 38 77 136
f 39 86 161
f 21 88 126
f 17 98 116
f 14 68 108
f 13 48 106
f 15 78 112
f 16 93 115
f 18 69 119
f 35 101 156
f 42 97 139
f 40 82 160
f 19 50 120
f 30 89 149
f 27 64 132
f 22 53 128
f 28 74 145
f 29 84 148
f 32 90 155
f 23 63 133
f 24 55 134
f 37 76 157
f 41 87 124
f 35 72 109
f 18 49 105
f 19 79 111
f 40 96 114
f 42 102 117
f 34 91 125
f 33 67 152
f 25 56 137
f 36 75 158
f 20 83 123
f 32 66 143
f 23 54 127
f 24 73 135
f 37 85 147
f 41 92 150
f 34 71 153
f 33 100 140
f 25 94 138
f 36 80 159
f 20 51 122
f 17 116 107
f 14 108 103
f 13 106 104
f 15 112 110
f 16 115 113
f 18 119 118
f 35 156 154
f 42 139 141
f 40 160 162
f 19 120 121
f 30 149 142
f 27 132 129
f 22 128 130
f 28 145 144
f 29 148 146
f 32 155 151
f 23 133 131
f 24 134 136
f 37 157 161
f 41 124 126
f 107 44 47
f 103 43 44
f 104 45 43
f 110 46 45
f 113 47 46
f 118 52 49
f 154 70 72
f 141 99 102
f 162 95 96
f 121 81 79
f 142 59 62
f 129 58 59
f 130 60 58
f 144 61 60
f 146 62 61
f 151 65 66
f 131 57 54
f 136 77 73
f 161 86 85
f 126 88 92
f 116 98 101
f 108 68 69
f 106 48 50
f 112 78 82
f 115 93 97
f 119 69 71
f 156 101 100
f 139 97 94
f 160 82 80
f 120 50 51
f 149 89 90
f 132 64 63
f 128 53 55
f 145 74 76
f 148 84 87
f 155 90 91
f 133 63 67
f 134 55 56
f 157 76 75
f 124 87 83
f 109 72 68
f 105 49 48
f 111 79 78
f 114 96 93
f 117 102 98
f 125 91 88
f 152 67 65
f 137 56 57
f 158 75 77
f 123 83 86
f 143 66 64
f 127 54 53
f 135 73 74
f 147 85 84
f 150 92 89
f 153 71 70
f 140 100 99
f 138 94 95
f 159 80 81
f 122 51 52
f 107 116 109
f 103 108 105
f 104 106 111
f 110 112 114
f 113 115 117
f 118 119 125
f 154 156 152
f 141 139 137
f 162 160 158
f 121 120 123
f 142 149 143
f 129 132 127
f 130 128 135
f 144 145 147
f 146 148 150
f 151 155 153
f 131 133 140
f 136 134 138
f 161 157 159
f 126 124 122

