# https://github.com/mikedh/trimesh
v 1.26278568 2.81395222 0.78077662
v 1.00639937 3.72233444 0.76081785
v 1.54470083 2.89357218 0.78308229
v 1.28831453 3.80195416 0.76312354
v 1.40957574 3.34631350 0.79616679
v 1.14090858 3.27043526 0.79396945
v 1.43658072 3.25177482 0.75887993
v 1.16791357 3.17589658 0.75668259
v 1.14123970 3.78426197 0.74617289
v 1.14074003 3.78494477 0.78367212
v 1.41026842 2.83108727 0.76711584
v 1.40976874 2.83177007 0.80461506
v 1.13229746 3.26749026 0.77054969
v 1.25656313 2.83805924 0.80236583
v 1.25706027 2.83737962 0.76505387
v 1.27591884 2.79574258 0.76694053
v 1.27544511 2.79639029 0.80249908
v 1.01344523 3.69943139 0.78343997
v 1.01394226 3.69875176 0.74612800
v 1.00823774 3.74414254 0.74610250
v 1.00776389 3.74479002 0.78166108
v 1.41880880 3.34840810 0.77289297
v 1.53706617 2.91728028 0.80465996
v 1.53756321 2.91660065 0.76734800
v 1.54324454 2.87124203 0.76912687
v 1.54277070 2.87188950 0.80468546
v 1.29394816 3.77865243 0.78573409
v 1.29444531 3.77797279 0.74842212
v 1.27556333 3.81964175 0.74828887
v 1.27508960 3.82028946 0.78384743
v 1.27523782 3.30838009 0.79538889
v 1.27507200 3.79627154 0.78608183
v 1.53017811 2.89242504 0.80594093
v 1.02030870 3.72431998 0.78399822
v 1.27541482 2.82047348 0.80385733
v 1.30268311 3.21230009 0.75749412
v 1.27559361 3.79555856 0.74693063
v 1.53069973 2.89171205 0.76678973
v 1.02083032 3.72360700 0.74484702
v 1.27593644 2.81976050 0.76470613
v 1.13884574 3.79230647 0.76107916
v 1.41226052 2.82359165 0.78236354
v 1.25291963 2.84223243 0.78034839
v 1.25987154 2.82291455 0.80150346
v 1.26033708 2.82227810 0.76655480
v 1.26924827 2.80169245 0.76786999
v 1.26880447 2.80229902 0.80117632
v 1.01277287 3.69307774 0.76165381
v 1.00836077 3.71402258 0.78192424
v 1.00882642 3.71338614 0.74697557
v 1.00564984 3.73562729 0.74734981
v 1.00520615 3.73623386 0.78065612
v 1.53832155 2.92283688 0.78268260
v 1.54218201 2.90264591 0.80381239
v 1.54264766 2.90200947 0.76886372
v 1.54580228 2.87979819 0.77013183
v 1.54535859 2.88040474 0.80343816
v 1.29817478 3.77368218 0.76398802
v 1.29067136 3.79375395 0.78423316
v 1.29113689 3.79311750 0.74928450
v 1.28220397 3.81373302 0.74961164
v 1.28176016 3.81433959 0.78291796
v 1.52721900 2.94396717 0.80468711
v 1.29949990 3.75078053 0.78696001
v 1.40106374 3.34391474 0.79634054
v 1.28754687 3.76889130 0.78687286
v 1.52649475 2.92229374 0.80547411
v 1.25099430 2.86595440 0.80242798
v 1.02327520 3.67276800 0.78470085
v 1.14941398 3.27284273 0.79428238
v 1.02398877 3.69445589 0.78471732
v 1.26293666 2.84785833 0.80331857
v 1.52773324 2.94326404 0.76608710
v 1.30001414 3.75007764 0.74835998
v 1.42840277 3.24820685 0.75859250
v 1.28807179 3.76817371 0.74746938
v 1.52701967 2.92157615 0.76607063
v 1.25150853 2.86525151 0.76382795
v 1.02378944 3.67206487 0.74610084
v 1.17675301 3.17713484 0.75653434
v 1.02451369 3.69373830 0.74531385
v 1.26346157 2.84714074 0.76391509
v 1.01584950 3.74957807 0.74549083
v 1.26624303 3.82029525 0.74753872
v 1.26311800 3.80888628 0.74682044
v 1.02449126 3.74149225 0.74486878
v 1.13956018 3.79017797 0.74723100
v 1.01535946 3.75024797 0.78227694
v 1.26575298 3.82096515 0.78432482
v 1.26260445 3.80958832 0.78537449
v 1.02397770 3.74219429 0.78342286
v 1.13909216 3.79081782 0.78235499
v 1.28525545 2.79506689 0.76646313
v 1.53564897 2.86578407 0.76851101
v 1.52703073 2.87383775 0.76736511
v 1.28840399 2.80644372 0.76541345
v 1.41191627 2.82521422 0.76843295
v 1.28476540 2.79573679 0.80324923
v 1.53515893 2.86645396 0.80529712
v 1.52651717 2.87453979 0.80591917
v 1.28789043 2.80714576 0.80396753
v 1.41144826 2.82585408 0.80355696
v 1.24672166 2.86421221 0.80059608
v 1.24718780 2.86357494 0.76560764
v 1.01874337 3.67194418 0.78284878
v 1.01920951 3.67130691 0.74786034
v 1.26689056 2.81008553 0.80271328
v 1.13429747 3.26854770 0.79299097
v 1.26491189 2.82533160 0.80331471
v 1.26737957 2.80941698 0.76600015
v 1.16003372 3.17845064 0.75745591
v 1.26542507 2.82463014 0.76479162
v 1.27573089 2.79342556 0.78115300
v 1.27593247 2.80393468 0.76561011
v 1.28641020 2.79038077 0.76828566
v 1.27542730 2.80462520 0.80353029
v 1.28596598 2.79098801 0.80162990
v 1.00762605 3.72866506 0.78253048
v 1.01390006 3.71467191 0.78377433
v 1.00811505 3.72799651 0.74581734
v 1.01441324 3.71397045 0.74525125
v 1.00670348 3.74659572 0.76021018
v 1.01254582 3.73711926 0.74510639
v 1.01436402 3.75424636 0.74710784
v 1.01204065 3.73780978 0.78302658
v 1.01391968 3.75485359 0.78045207
v 1.53179893 2.94472513 0.80292761
v 1.53226507 2.94408786 0.76793917
v 1.30382064 3.75245710 0.78518032
v 1.30428679 3.75181983 0.75019187
v 1.54289338 2.88803553 0.80497062
v 1.41621142 3.34816718 0.79529664
v 1.53659519 2.90206158 0.80553672
v 1.54338239 2.88736698 0.76825748
v 1.44194769 3.25807011 0.75976158
v 1.53710838 2.90136014 0.76701362
v 1.54440127 2.86930451 0.78335038
v 1.53896778 2.87822227 0.76776138
v 1.53708876 2.86117845 0.77033588
v 1.53846262 2.87891279 0.80568157
v 1.53664441 2.86178569 0.80368012
v 1.28362886 3.80661505 0.78478781
v 1.28558336 3.79140190 0.78599634
v 1.28411788 3.80594652 0.74807467
v 1.28609654 3.79070045 0.74747325
v 1.27537374 3.82247491 0.76240753
v 1.27558113 3.81140684 0.74725766
v 1.26504245 3.82504403 0.74915805
v 1.27507597 3.81209736 0.78517785
v 1.26459823 3.82565127 0.78250229
v 1.27507842 3.76589434 0.78695452
v 1.51429829 2.91833304 0.80557695
v 1.03618001 3.69842364 0.78500066
v 1.27539989 2.85086235 0.80362308
v 1.14704753 3.76257073 0.78508854
v 1.40343679 2.85417801 0.80504753
v 1.27560855 3.76516969 0.74716488
v 1.51482842 2.91760840 0.76578731
v 1.03671015 3.69769900 0.74521101
v 1.27593002 2.85013770 0.76383344
v 1.14757165 3.76185403 0.74574042
v 1.40396091 2.85346130 0.76569941
f 1 47 44
f 1 44 43
f 1 43 45
f 1 45 46
f 1 46 47
f 2 49 52
f 6 72 70
f 12 102 99
f 11 96 95
f 8 79 81
f 4 62 59
f 4 59 58
f 4 58 60
f 4 60 61
f 4 61 62
f 5 66 65
f 3 54 57
f 7 73 77
f 9 85 86
f 10 92 88
f 12 101 98
f 6 69 68
f 2 50 48
f 8 82 78
f 11 97 93
f 6 71 69
f 12 100 101
f 11 94 97
f 8 80 82
f 2 51 50
f 10 90 89
f 5 63 64
f 3 55 53
f 7 76 74
f 9 87 84
f 10 91 90
f 5 67 63
f 3 56 55
f 7 75 76
f 9 83 87
f 6 68 72
f 2 48 49
f 8 78 79
f 11 93 96
f 12 98 102
f 10 88 91
f 5 65 67
f 3 57 56
f 7 77 75
f 9 86 83
f 5 64 66
f 3 53 54
f 7 74 73
f 9 84 85
f 10 89 92
f 6 70 71
f 12 99 100
f 11 95 94
f 8 81 80
f 2 52 51
f 35 109 116
f 18 105 108
f 19 111 106
f 40 114 112
f 42 117 115
f 34 125 119
f 33 152 156
f 25 137 139
f 36 158 160
f 20 123 120
f 32 143 149
f 23 127 132
f 24 135 128
f 37 147 145
f 41 150 148
f 34 153 155
f 33 140 133
f 25 138 134
f 36 159 157
f 20 122 124
f 17 107 47
f 14 103 44
f 13 104 43
f 15 110 45
f 16 113 46
f 18 118 49
f 35 154 72
f 42 141 102
f 40 162 96
f 19 121 79
f 30 142 62
f 27 129 59
f 22 130 58
f 28 144 60
f 29 146 61
f 32 151 66
f 23 131 54
f 24 136 73
f 37 161 85
f 41 126 92
f 35 116 101
f 18 108 69
f 19 106 50
f 40 112 82
f 42 115 97
f 34 119 71
f 33 156 100
f 25 139 94
f 36 160 80
f 20 120 51
f 32 149 90
f 23 132 63
f 24 128 55
f 37 145 76
f 41 148 87
f 34 155 91
f 33 133 67
f 25 134 56
f 36 157 75
f 20 124 83
f 14 109 68
f 13 105 48
f 15 111 78
f 16 114 93
f 17 117 98
f 21 125 88
f 31 152 65
f 26 137 57
f 38 158 77
f 39 123 86
f 27 143 64
f 22 127 53
f 28 135 74
f 29 147 84
f 30 150 89
f 31 153 70
f 26 140 99
f 38 138 95
f 39 159 81
f 21 122 52
f 14 107 109
f 13 103 105
f 15 104 111
f 16 110 114
f 17 113 117
f 21 118 125
f 31 154 152
f 26 141 137
f 38 162 158
f 39 121 123
f 27 142 143
f 22 129 127
f 28 130 135
f 29 144 147
f 30 146 150
f 31 151 153
f 26 131 140
f 38 136 138
f 39 161 159
f 21 126 122
f 14 44 107
f 13 43 103
f 15 45 104
f 16 46 110
f 17 47 113
f 21 52 118
f 31 70 154
f 26 99 141
f 38 95 162
f 39 81 121
f 27 59 142
f 22 58 129
f 28 60 130
f 29 61 144
f 30 62 146
f 31 65 151
f 26 57 131
f 38 77 136
f 39 86 161
f 21 88 126
f 17 98 116
f 14 68 108
f 13 48 106
f 15 78 112
f 16 93 115
f 18 69 119
f 35 101 156
f 42 97 139
f 40 82 160
f 19 50 120
f 30 89 149
f 27 64 132
f 22 53 128
f 28 74 145
f 29 84 148
f 32 90 155
f 23 63 133
f 24 55 134
f 37 76 157
f 41 87 124
f 35 72 109
f 18 49 105
f 19 79 111
f 40 96 114
f 42 102 117
f 34 91 125
f 33 67 152
f 25 56 137
f 36 75 158
f 20 83 123
f 32 66 143
f 23 54 127
f 24 73 135
f 37 85 147
f 41 92 150
f 34 71 153
f 33 100 140
f 25 94 138
f 36 80 159
f 20 51 122
f 17 116 107
f 14 108 103
f 13 106 104
f 15 112 110
f 16 115 113
f 18 119 118
f 35 156 154
f 42 139 141
f 40 160 162
f 19 120 121
f 30 149 142
f 27 132 129
f 22 128 130
f 28 145 144
f 29 148 146
f 32 155 151
f 23 133 131
f 24 134 136
f 37 157 161
f 41 124 126
f 107 44 47
f 103 43 44
f 104 45 43
f 110 46 45
f 113 47 46
f 118 52 49
f 154 70 72
f 141 99 102
f 162 95 96
f 121 81 79
f 142 59 62
f 129 58 59
f 130 60 58
f 144 61 60
f 146 62 61
f 151 65 66
f 131 57 54
f 136 77 73
f 161 86 85
f 126 88 92
f 116 98 101
f 108 68 69
f 106 48 50
f 112 78 82
f 115 93 97
f 119 69 71
f 156 101 100
f 139 97 94
f 160 82 80
f 120 50 51
f 149 89 90
f 132 64 63
f 128 53 55
f 145 74 76
f 148 84 87
f 155 90 91
f 133 63 67
f 134 55 56
f 157 76 75
f 124 87 83
f 109 72 68
f 105 49 48
f 111 79 78
f 114 96 93
f 117 102 98
f 125 91 88
f 152 67 65
f 137 56 57
f 158 75 77
f 123 83 86
f 143 66 64
f 127 54 53
f 135 73 74
f 147 85 84
f 150 92 89
f 153 71 70
f 140 100 99
f 138 94 95
f 159 80 81
f 122 51 52
f 107 116 109
f 103 108 105
f 104 106 111
f 110 112 114
f 113 115 117
f 118 119 125
f 154 156 152
f 141 139 137
f 162 160 158
f 121 120 123
f 142 149 143
f 129 132 127
f 130 128 135
f 144 145 147
f 146 148 150
f 151 155 153
f 131 133 140
f 136 134 138
f 161 157 159
f 126 124 122

