# https://github.com/mikedh/trimesh
v 4.68972033 5.79023357 2.62848997
v 5.04142516 4.52682665 2.64637122
v 4.38759014 5.70589323 2.61196992
v 4.73929497 4.44248632 2.62985116
v 4.56928521 5.07614831 2.64438857
v 4.85721788 5.15652546 2.66013232
v 4.53509766 5.20667823 2.60324130
v 4.82302987 5.28705492 2.61898534
v 4.89986319 4.45352205 2.62326501
v 4.89782537 4.45348482 2.66071840
v 4.53081573 5.77922806 2.60450213
v 4.52877791 5.77919084 2.64195552
v 4.86804801 5.15921764 2.63733685
v 4.69686369 5.75730885 2.65098414
v 4.69889076 5.75734591 2.61371793
v 4.67493455 5.81589421 2.61335077
v 4.67300259 5.81585913 2.64886585
v 5.03036714 4.55928474 2.66794012
v 5.03239468 4.55932177 2.63067365
v 5.04213331 4.49682919 2.63201985
v 5.04020135 4.49679411 2.66753492
v 4.56099187 5.07350215 2.62054732
v 4.39624642 5.67339111 2.63454686
v 4.39827395 5.67342814 2.59728040
v 4.38843974 5.73591877 2.59768560
v 4.38650779 5.73588369 2.63320068
v 4.72975034 4.47536697 2.65150259
v 4.73177741 4.47540403 2.61423638
v 4.75563851 4.41685375 2.61635468
v 4.75370655 4.41681867 2.65186976
v 4.71323406 5.11633646 2.65258075
v 4.75171528 4.44967894 2.65359348
v 4.40176679 5.70677794 2.63580145
v 5.02474728 4.52589616 2.66852243
v 4.67479830 5.78299518 2.65073041
v 4.67848894 5.24899424 2.61076295
v 4.75384280 4.44971770 2.61449012
v 4.40389382 5.70681672 2.59669809
v 5.02687431 4.52593494 2.62941908
v 4.67692582 5.78303394 2.61162704
v 4.90205213 4.44270032 2.63847656
v 4.52698775 5.79001994 2.61940758
v 4.70271565 5.75074302 2.62937622
v 4.69213977 5.77825908 2.64956428
v 4.69403879 5.77829365 2.61465837
v 4.68261870 5.80721459 2.61488846
v 4.68080914 5.80718139 2.64815398
v 5.03214325 4.56735993 2.64612508
v 5.03715650 4.53887762 2.66710557
v 5.03905552 4.53891217 2.63219943
v 5.04421689 4.50826792 2.63327260
v 5.04240733 4.50823472 2.66653812
v 4.39684835 5.66535931 2.61265199
v 4.38958557 5.69380071 2.63302109
v 4.39148460 5.69383526 2.59811495
v 4.38623377 5.72447816 2.59868240
v 4.38442420 5.72444496 2.63194791
v 4.72627594 4.48197620 2.62940061
v 4.73460231 4.45441923 2.65056215
v 4.73650133 4.45445380 2.61565625
v 4.74783195 4.42553149 2.61706654
v 4.74602239 4.42549829 2.65033206
v 4.40906578 5.63608964 2.63585243
v 4.72144584 4.51394714 2.65173436
v 4.57839071 5.07869364 2.64513015
v 4.73591313 4.48817509 2.65289818
v 4.40813009 5.66565028 2.63623313
v 4.70509794 5.71872745 2.65203906
v 5.01747800 4.59658543 2.66792095
v 4.84808569 5.15397971 2.65987676
v 5.01837015 4.56702361 2.66834262
v 4.69058663 5.74449880 2.65167758
v 4.41116310 5.63612745 2.59729957
v 4.72354316 4.51398543 2.61318147
v 4.54378035 5.21083777 2.60347419
v 4.73805446 4.48821408 2.61354293
v 4.41027095 5.66568927 2.59687790
v 4.70719525 5.71876574 2.61348617
v 5.01957531 4.59662324 2.62936810
v 4.81347533 5.28612383 2.61822081
v 5.02051101 4.56706260 2.62898740
v 4.69272796 5.74453779 2.61232235
v 5.03427662 4.49004749 2.63097080
v 4.76592821 4.41513738 2.61629771
v 4.76851381 4.43043285 2.61556809
v 5.02425171 4.50182277 2.62955166
v 4.90208096 4.44532246 2.62456719
v 5.03227805 4.49001104 2.66771194
v 4.76392964 4.41510093 2.65303885
v 4.76641909 4.43039466 2.65407497
v 5.02215699 4.50178458 2.66805853
v 4.90017228 4.44528770 2.65964827
v 4.66471145 5.81761194 2.61218168
v 4.39636304 5.74270184 2.59750859
v 4.40648411 5.73092830 2.59716199
v 4.66222201 5.80231822 2.61114556
v 4.52846882 5.78742518 2.60557225
v 4.66271288 5.81757550 2.64892280
v 4.39436447 5.74266539 2.63424972
v 4.40438939 5.73089011 2.63566886
v 4.66012729 5.80228003 2.64965243
v 4.52656014 5.78739042 2.64065334
v 4.70976166 5.72069206 2.65048575
v 4.71166297 5.72072676 2.61554007
v 5.02249744 4.59727268 2.66638573
v 5.02439827 4.59730738 2.63144006
v 4.68339381 5.79641909 2.64999035
v 4.86436625 5.15850777 2.65959713
v 4.68669009 5.77543854 2.65105537
v 4.68538860 5.79645520 2.61332208
v 4.83178465 5.28290518 2.62038336
v 4.68878325 5.77547684 2.61257940
v 4.67396172 5.81939907 2.62749160
v 4.67564504 5.80467284 2.61219560
v 4.66296004 5.82415822 2.61381671
v 4.67358500 5.80463514 2.65006932
v 4.66114814 5.82412521 2.64712008
v 5.03904661 4.51882895 2.66807218
v 5.03102238 4.53851525 2.66856184
v 5.04104139 4.51886506 2.63140392
v 5.03311554 4.53855354 2.63008586
v 5.04300777 4.49369880 2.64625453
v 5.03695288 4.50676984 2.63056490
v 5.03614681 4.48358278 2.63279007
v 5.03489285 4.50673216 2.66843887
v 5.03433492 4.48354976 2.66609343
v 4.40424282 5.63540550 2.63378047
v 4.40614366 5.63544019 2.59883478
v 4.71697812 4.51198612 2.64968046
v 4.71887944 4.51202082 2.61473476
v 4.38759970 5.71384782 2.63381661
v 4.56223702 5.07416790 2.64307702
v 4.39552556 5.69415934 2.63513465
v 4.38959449 5.71388393 2.59714834
v 4.52965589 5.19856483 2.60386326
v 4.39761871 5.69419763 2.59665868
v 4.38602618 5.73902095 2.61174753
v 4.39374825 5.72598072 2.59678166
v 4.39430618 5.74916312 2.59912709
v 4.39168822 5.72594304 2.63465561
v 4.39249428 5.74913010 2.63243046
v 4.74325249 4.43625768 2.65189844
v 4.73985785 4.45723604 2.65264112
v 4.74524728 4.43629379 2.61523018
v 4.74195101 4.45727435 2.61416515
v 4.75507175 4.41332116 2.63051043
v 4.75505609 4.42807774 2.61515120
v 4.76749296 4.40858767 2.61810044
v 4.75299606 4.42804004 2.65302493
v 4.76568106 4.40855466 2.65140381
v 4.74930339 4.49119366 2.65382294
v 4.42114662 5.67000881 2.63713905
v 5.00533240 4.56266468 2.66782230
v 4.67717563 5.74147983 2.65113841
v 4.88910608 4.48462624 2.66120087
v 4.53739698 5.74804797 2.64331950
v 4.75146546 4.49123305 2.61408210
v 4.42330870 5.67004820 2.59739822
v 5.00749448 4.56270407 2.62808148
v 4.67933771 5.74151922 2.61139759
v 4.89124411 4.48466491 2.62190102
v 4.53953502 5.74808664 2.60401965
f 1 47 44
f 1 44 43
f 1 43 45
f 1 45 46
f 1 46 47
f 2 49 52
f 6 72 70
f 12 102 99
f 11 96 95
f 8 79 81
f 4 62 59
f 4 59 58
f 4 58 60
f 4 60 61
f 4 61 62
f 5 66 65
f 3 54 57
f 7 73 77
f 9 85 86
f 10 92 88
f 12 101 98
f 6 69 68
f 2 50 48
f 8 82 78
f 11 97 93
f 6 71 69
f 12 100 101
f 11 94 97
f 8 80 82
f 2 51 50
f 10 90 89
f 5 63 64
f 3 55 53
f 7 76 74
f 9 87 84
f 10 91 90
f 5 67 63
f 3 56 55
f 7 75 76
f 9 83 87
f 6 68 72
f 2 48 49
f 8 78 79
f 11 93 96
f 12 98 102
f 10 88 91
f 5 65 67
f 3 57 56
f 7 77 75
f 9 86 83
f 5 64 66
f 3 53 54
f 7 74 73
f 9 84 85
f 10 89 92
f 6 70 71
f 12 99 100
f 11 95 94
f 8 81 80
f 2 52 51
f 35 109 116
f 18 105 108
f 19 111 106
f 40 114 112
f 42 117 115
f 34 125 119
f 33 152 156
f 25 137 139
f 36 158 160
f 20 123 120
f 32 143 149
f 23 127 132
f 24 135 128
f 37 147 145
f 41 150 148
f 34 153 155
f 33 140 133
f 25 138 134
f 36 159 157
f 20 122 124
f 17 107 47
f 14 103 44
f 13 104 43
f 15 110 45
f 16 113 46
f 18 118 49
f 35 154 72
f 42 141 102
f 40 162 96
f 19 121 79
f 30 142 62
f 27 129 59
f 22 130 58
f 28 144 60
f 29 146 61
f 32 151 66
f 23 131 54
f 24 136 73
f 37 161 85
f 41 126 92
f 35 116 101
f 18 108 69
f 19 106 50
f 40 112 82
f 42 115 97
f 34 119 71
f 33 156 100
f 25 139 94
f 36 160 80
f 20 120 51
f 32 149 90
f 23 132 63
f 24 128 55
f 37 145 76
f 41 148 87
f 34 155 91
f 33 133 67
f 25 134 56
f 36 157 75
f 20 124 83
f 14 109 68
f 13 105 48
f 15 111 78
f 16 114 93
f 17 117 98
f 21 125 88
f 31 152 65
f 26 137 57
f 38 158 77
f 39 123 86
f 27 143 64
f 22 127 53
f 28 135 74
f 29 147 84
f 30 150 89
f 31 153 70
f 26 140 99
f 38 138 95
f 39 159 81
f 21 122 52
f 14 107 109
f 13 103 105
f 15 104 111
f 16 110 114
f 17 113 117
f 21 118 125
f 31 154 152
f 26 141 137
f 38 162 158
f 39 121 123
f 27 142 143
f 22 129 127
f 28 130 135
f 29 144 147
f 30 146 150
f 31 151 153
f 26 131 140
f 38 136 138
f 39 161 159
f 21 126 122
f 14 44 107
f 13 43 103
f 15 45 104
f 16 46 110
f 17 47 113
f 21 52 118
f 31 70 154
f 26 99 141
f 38 95 162
f 39 81 121
f 27 59 142
f 22 58 129
f 28 60 130
f 29 61 144
f 30 62 146
f 31 65 151
f 26 57 131
f 38 77 136
f 39 86 161
f 21 88 126
f 17 98 116
f 14 68 108
f 13 48 106
f 15 78 112
f 16 93 115
f 18 69 119
f 35 101 156
f 42 97 139
f 40 82 160
f 19 50 120
f 30 89 149
f 27 64 132
f 22 53 128
f 28 74 145
f 29 84 148
f 32 90 155
f 23 63 133
f 24 55 134
f 37 76 157
f 41 87 124
f 35 72 109
f 18 49 105
f 19 79 111
f 40 96 114
f 42 102 117
f 34 91 125
f 33 67 152
f 25 56 137
f 36 75 158
f 20 83 123
f 32 66 143
f 23 54 127
f 24 73 135
f 37 85 147
f 41 92 150
f 34 71 153
f 33 100 140
f 25 94 138
f 36 80 159
f 20 51 122
f 17 116 107
f 14 108 103
f 13 106 104
f 15 112 110
f 16 115 113
f 18 119 118
f 35 156 154
f 42 139 141
f 40 160 162
f 19 120 121
f 30 149 142
f 27 132 129
f 22 128 130
f 28 145 144
f 29 148 146
f 32 155 151
f 23 133 131
f 24 134 136
f 37 157 161
f 41 124 126
f 107 44 47
f 103 43 44
f 104 45 43
f 110 46 45
f 113 47 46
f 118 52 49
f 154 70 72
f 141 99 102
f 162 95 96
f 121 81 79
f 142 59 62
f 129 58 59
f 130 60 58
f 144 61 60
f 146 62 61
f 151 65 66
f 131 57 54
f 136 77 73
f 161 86 85
f 126 88 92
f 116 98 101
f 108 68 69
f 106 48 50
f 112 78 82
f 115 93 97
f 119 69 71
f 156 101 100
f 139 97 94
f 160 82 80
f 120 50 51
f 149 89 90
f 132 64 63
f 128 53 55
f 145 74 76
f 148 84 87
f 155 90 91
f 133 63 67
f 134 55 56
f 157 76 75
f 124 87 83
f 109 72 68
f 105 49 48
f 111 79 78
f 114 96 93
f 117 102 98
f 125 91 88
f 152 67 65
f 137 56 57
f 158 75 77
f 123 83 86
f 143 66 64
f 127 54 53
f 135 73 74
f 147 85 84
f 150 92 89
f 153 71 70
f 140 100 99
f 138 94 95
f 159 80 81
f 122 51 52
f 107 116 109
f 103 108 105
f 104 106 111
f 110 112 114
f 113 115 117
f 118 119 125
f 154 156 152
f 141 139 137
f 162 160 158
f 121 120 123
f 142 149 143
f 129 132 127
f 130 128 135
f 144 145 147
f 146 148 150
f 151 155 153
f 131 133 140
f 136 134 138
f 161 157 159
f 126 124 122

