# https://github.com/mikedh/trimesh
v 2.56667017 3.51085348 0.33277201
v 1.79827357 3.14480596 -0.00000000
v 2.28743996 3.26164455 1.25166490
v 1.51904336 2.89559679 0.91889289
v 1.92049544 3.06409984 1.06141130
v 2.18660374 3.30159791 0.18569984
v 1.98165920 3.13658888 1.09965695
v 2.24776761 3.37408670 0.22394550
v 1.63263418 3.02466698 0.45274936
v 1.64997888 2.99161516 0.44905612
v 2.43892040 3.40876438 0.80193040
v 2.45626498 3.37571254 0.79823717
v 2.18464213 3.33006284 0.15891793
v 2.55630989 3.48127887 0.32428617
v 2.53905173 3.51416557 0.32796097
v 2.56973970 3.52510332 0.36529082
v 2.58618658 3.49376182 0.36178874
v 1.82767894 3.13417461 0.00873560
v 1.81042089 3.16706156 0.01241039
v 1.76749227 3.14292971 0.01785887
v 1.78393928 3.11158845 0.01435680
v 1.90085961 3.07679081 1.09279203
v 2.27847851 3.23331797 1.23857610
v 2.26122034 3.26620492 1.24225089
v 2.30496001 3.28879108 1.23662970
v 2.32140712 3.25744981 1.23312762
v 1.54984755 2.88621395 0.92302553
v 1.53258938 2.91910067 0.92670034
v 1.50271271 2.90661772 0.88919779
v 1.51915971 2.87527621 0.88569571
v 2.05369792 3.18256608 0.62352401
v 1.54505571 2.88822224 0.87320617
v 2.30961559 3.25244223 1.20431658
v 1.79739257 3.11342934 0.04281394
v 2.56195221 3.47764934 0.37392441
v 2.11585878 3.25623694 0.66239317
v 1.52694696 2.92273020 0.87706212
v 2.29150670 3.28695018 1.20817256
v 1.77928382 3.14793731 0.04666991
v 2.54384356 3.51215730 0.37778035
v 1.63303517 3.00824695 0.44841802
v 2.45246669 3.39860670 0.80329196
v 2.54416266 3.50060969 0.31652908
v 2.56923506 3.48911035 0.32690350
v 2.55307009 3.51991425 0.33034550
v 2.56871292 3.52527518 0.34749052
v 2.58411807 3.49591895 0.34421025
v 1.82443638 3.15774752 0.00483485
v 1.81545084 3.13002374 0.00045962
v 1.79928588 3.16082766 0.00390161
v 1.77870135 3.14893067 0.00535761
v 1.79410662 3.11957419 0.00207728
v 2.26147890 3.24831844 1.24678706
v 2.28961328 3.23955188 1.24708489
v 2.27344831 3.27035578 1.25052689
v 2.29479277 3.28080533 1.24890921
v 2.31019792 3.25144886 1.24562889
v 1.54175263 2.90545627 0.93509284
v 1.53582918 2.88046527 0.92064102
v 1.51966422 2.91126918 0.92408302
v 1.50478121 2.90446058 0.90677630
v 1.52018637 2.87510435 0.90349602
v 2.25781962 3.22364870 1.22154696
v 1.57533958 2.89852983 0.92598308
v 1.92903559 3.07140689 1.03365356
v 1.56497185 2.89575848 0.89801300
v 2.28110510 3.23690901 1.20815120
v 2.53141346 3.46782743 0.32120177
v 1.84893353 3.14270857 0.02563787
v 2.17828873 3.29386190 0.21340971
v 1.82601969 3.12874023 0.03895456
v 2.54215283 3.46989076 0.34909275
v 2.23996575 3.25767096 1.22534863
v 1.55748571 2.93255209 0.92978474
v 1.99095589 3.14479247 1.07237221
v 1.54674645 2.93048877 0.90189379
v 2.26287959 3.27163929 1.21203194
v 2.51355982 3.50184970 0.32500343
v 1.83107965 3.17673083 0.02943954
v 2.24020879 3.36724725 0.25212839
v 1.80779429 3.16347053 0.04283529
v 2.52392732 3.50462105 0.35297355
v 1.75623814 3.13475569 0.04439493
v 1.50822947 2.91341135 0.86054389
v 1.52187956 2.92331253 0.84501937
v 1.75823370 3.13425544 0.06722344
v 1.62819732 3.02124492 0.45047299
v 1.77325299 3.10233222 0.04077188
v 1.52524432 2.88098789 0.85692090
v 1.53971219 2.88933083 0.84122224
v 1.77606621 3.10027375 0.06342638
v 1.64444339 2.99028652 0.44701373
v 2.56365508 3.51939163 0.39406563
v 2.31564629 3.29804731 1.21021462
v 2.31283295 3.30010579 1.18756012
v 2.54918709 3.51104871 0.40976429
v 2.44445578 3.41009302 0.80397282
v 2.58066980 3.48696817 0.39044264
v 2.33266103 3.26562384 1.20659157
v 2.33066558 3.26612408 1.18376305
v 2.56701972 3.47706700 0.40596716
v 2.46070197 3.37913461 0.80051352
v 2.53535087 3.47351698 0.30712073
v 2.51916749 3.50435589 0.31056668
v 1.85209385 3.14802806 0.01122033
v 1.83591060 3.17886699 0.01466634
v 2.57813862 3.49107988 0.34212841
v 2.19273650 3.30826752 0.16420222
v 2.56405103 3.48248181 0.34372327
v 2.56115742 3.52343913 0.34574420
v 2.25102669 3.37735069 0.20065104
v 2.54623304 3.51643623 0.34751731
v 2.57897506 3.51417325 0.36257806
v 2.56063323 3.52118206 0.36961233
v 2.56854851 3.51988552 0.39514507
v 2.57817260 3.48775920 0.36587765
v 2.58397137 3.49049597 0.39186102
v 1.80111596 3.12092315 0.00562058
v 1.81176203 3.12410743 0.01792691
v 1.78413487 3.15328216 0.00923644
v 1.79394381 3.15806186 0.02172101
v 1.77269259 3.13007742 0.01339853
v 1.77125671 3.14513998 0.02775433
v 1.75321882 3.13147997 0.04204747
v 1.78879609 3.11171688 0.02401963
v 1.76864169 3.10209019 0.03876351
v 2.25298880 3.22151254 1.23632016
v 2.23680542 3.25235146 1.23976616
v 1.56973180 2.89602363 0.94041987
v 1.55354841 2.92686255 0.94386581
v 2.30476452 3.24709736 1.24175005
v 1.91350760 3.05905969 1.08309098
v 2.29495558 3.24231767 1.22926549
v 2.28778331 3.27945638 1.24536592
v 1.97179780 3.12814285 1.11953979
v 2.27713713 3.27627210 1.23305959
v 2.31286382 3.27667243 1.23829976
v 2.30010319 3.28866264 1.22696687
v 2.32025760 3.29828934 1.21222299
v 2.31764256 3.25523954 1.22323217
v 2.33568046 3.26889956 1.20893902
v 1.52774186 2.87694040 0.90524234
v 1.54266635 2.88394330 0.90346920
v 1.51076077 2.90929965 0.90885813
v 1.52484814 2.91789773 0.90726327
v 1.50658121 2.89257659 0.88912028
v 1.51072667 2.91262033 0.88510888
v 1.50492792 2.90988357 0.85912550
v 1.52826605 2.87919746 0.88137419
v 1.52035078 2.88049402 0.85584147
v 1.57686590 2.90629350 0.85762883
v 2.29381442 3.24783238 1.16812007
v 1.81348900 3.11747648 0.07894764
v 2.53043750 3.45901537 0.38943888
v 1.66934682 2.99982293 0.45716768
v 2.43775225 3.36587507 0.78994355
v 1.55846189 2.94136416 0.86154765
v 2.27541016 3.28290305 1.17203886
v 1.79508498 3.15254715 0.08286642
v 2.51203325 3.49408604 0.39335770
v 1.65114704 3.03450446 0.46104298
v 2.41955246 3.40055659 0.79381887
f 1 47 44
f 1 44 43
f 1 43 45
f 1 45 46
f 1 46 47
f 2 49 52
f 6 72 70
f 12 102 99
f 11 96 95
f 8 79 81
f 4 62 59
f 4 59 58
f 4 58 60
f 4 60 61
f 4 61 62
f 5 66 65
f 3 54 57
f 7 73 77
f 9 85 86
f 10 92 88
f 12 101 98
f 6 69 68
f 2 50 48
f 8 82 78
f 11 97 93
f 6 71 69
f 12 100 101
f 11 94 97
f 8 80 82
f 2 51 50
f 10 90 89
f 5 63 64
f 3 55 53
f 7 76 74
f 9 87 84
f 10 91 90
f 5 67 63
f 3 56 55
f 7 75 76
f 9 83 87
f 6 68 72
f 2 48 49
f 8 78 79
f 11 93 96
f 12 98 102
f 10 88 91
f 5 65 67
f 3 57 56
f 7 77 75
f 9 86 83
f 5 64 66
f 3 53 54
f 7 74 73
f 9 84 85
f 10 89 92
f 6 70 71
f 12 99 100
f 11 95 94
f 8 81 80
f 2 52 51
f 35 109 116
f 18 105 108
f 19 111 106
f 40 114 112
f 42 117 115
f 34 125 119
f 33 152 156
f 25 137 139
f 36 158 160
f 20 123 120
f 32 143 149
f 23 127 132
f 24 135 128
f 37 147 145
f 41 150 148
f 34 153 155
f 33 140 133
f 25 138 134
f 36 159 157
f 20 122 124
f 17 107 47
f 14 103 44
f 13 104 43
f 15 110 45
f 16 113 46
f 18 118 49
f 35 154 72
f 42 141 102
f 40 162 96
f 19 121 79
f 30 142 62
f 27 129 59
f 22 130 58
f 28 144 60
f 29 146 61
f 32 151 66
f 23 131 54
f 24 136 73
f 37 161 85
f 41 126 92
f 35 116 101
f 18 108 69
f 19 106 50
f 40 112 82
f 42 115 97
f 34 119 71
f 33 156 100
f 25 139 94
f 36 160 80
f 20 120 51
f 32 149 90
f 23 132 63
f 24 128 55
f 37 145 76
f 41 148 87
f 34 155 91
f 33 133 67
f 25 134 56
f 36 157 75
f 20 124 83
f 14 109 68
f 13 105 48
f 15 111 78
f 16 114 93
f 17 117 98
f 21 125 88
f 31 152 65
f 26 137 57
f 38 158 77
f 39 123 86
f 27 143 64
f 22 127 53
f 28 135 74
f 29 147 84
f 30 150 89
f 31 153 70
f 26 140 99
f 38 138 95
f 39 159 81
f 21 122 52
f 14 107 109
f 13 103 105
f 15 104 111
f 16 110 114
f 17 113 117
f 21 118 125
f 31 154 152
f 26 141 137
f 38 162 158
f 39 121 123
f 27 142 143
f 22 129 127
f 28 130 135
f 29 144 147
f 30 146 150
f 31 151 153
f 26 131 140
f 38 136 138
f 39 161 159
f 21 126 122
f 14 44 107
f 13 43 103
f 15 45 104
f 16 46 110
f 17 47 113
f 21 52 118
f 31 70 154
f 26 99 141
f 38 95 162
f 39 81 121
f 27 59 142
f 22 58 129
f 28 60 130
f 29 61 144
f 30 62 146
f 31 65 151
f 26 57 131
f 38 77 136
f 39 86 161
f 21 88 126
f 17 98 116
f 14 68 108
f 13 48 106
f 15 78 112
f 16 93 115
f 18 69 119
f 35 101 156
f 42 97 139
f 40 82 160
f 19 50 120
f 30 89 149
f 27 64 132
f 22 53 128
f 28 74 145
f 29 84 148
f 32 90 155
f 23 63 133
f 24 55 134
f 37 76 157
f 41 87 124
f 35 72 109
f 18 49 105
f 19 79 111
f 40 96 114
f 42 102 117
f 34 91 125
f 33 67 152
f 25 56 137
f 36 75 158
f 20 83 123
f 32 66 143
f 23 54 127
f 24 73 135
f 37 85 147
f 41 92 150
f 34 71 153
f 33 100 140
f 25 94 138
f 36 80 159
f 20 51 122
f 17 116 107
f 14 108 103
f 13 106 104
f 15 112 110
f 16 115 113
f 18 119 118
f 35 156 154
f 42 139 141
f 40 160 162
f 19 120 121
f 30 149 142
f 27 132 129
f 22 128 130
f 28 145 144
f 29 148 146
f 32 155 151
f 23 133 131
f 24 134 136
f 37 157 161
f 41 124 126
f 107 44 47
f 103 43 44
f 104 45 43
f 110 46 45
f 113 47 46
f 118 52 49
f 154 70 72
f 141 99 102
f 162 95 96
f 121 81 79
f 142 59 62
f 129 58 59
f 130 60 58
f 144 61 60
f 146 62 61
f 151 65 66
f 131 57 54
f 136 77 73
f 161 86 85
f 126 88 92
f 116 98 101
f 108 68 69
f 106 48 50
f 112 78 82
f 115 93 97
f 119 69 71
f 156 101 100
f 139 97 94
f 160 82 80
f 120 50 51
f 149 89 90
f 132 64 63
f 128 53 55
f 145 74 76
f 148 84 87
f 155 90 91
f 133 63 67
f 134 55 56
f 157 76 75
f 124 87 83
f 109 72 68
f 105 49 48
f 111 79 78
f 114 96 93
f 117 102 98
f 125 91 88
f 152 67 65
f 137 56 57
f 158 75 77
f 123 83 86
f 143 66 64
f 127 54 53
f 135 73 74
f 147 85 84
f 150 92 89
f 153 71 70
f 140 100 99
f 138 94 95
f 159 80 81
f 122 51 52
f 107 116 109
f 103 108 105
f 104 106 111
f 110 112 114
f 113 115 117
f 118 119 125
f 154 156 152
f 141 139 137
f 162 160 158
f 121 120 123
f 142 149 143
f 129 132 127
f 130 128 135
f 144 145 147
f 146 148 150
f 151 155 153
f 131 133 140
f 136 134 138
f 161 157 159
f 126 124 122

