# https://github.com/mikedh/trimesh
v 1.46970522 4.39291288 1.03047936
v 1.79728510 3.11287426 1.04571083
v 1.47398472 4.39262121 0.91395249
v 1.80156448 3.11258282 0.92918395
v 1.61528799 3.74687037 0.92349843
v 1.61120973 3.74714809 1.03454935
v 1.61955636 3.88884622 0.92330012
v 1.61547799 3.88912393 1.03435104
v 1.82232234 3.08496854 0.98835772
v 1.78601052 3.07566015 0.98704746
v 1.47858951 4.42812556 0.97237521
v 1.44227769 4.41881718 0.97106496
v 1.63368182 3.75295253 1.03905300
v 1.45679229 4.35430429 1.02980944
v 1.49292280 4.36356627 1.03111316
v 1.47648183 4.42465889 1.02762954
v 1.44204927 4.41583210 1.02638712
v 1.76741930 3.14050964 1.04425266
v 1.80354980 3.14977136 1.04555638
v 1.81849283 3.08822982 1.04353200
v 1.78406013 3.07940326 1.04228957
v 1.63803099 3.75265633 0.92062633
v 1.46105023 4.35401435 0.91386629
v 1.49718073 4.36327585 0.91517002
v 1.48053990 4.42438246 0.91713310
v 1.44610720 4.41555567 0.91589069
v 1.77167724 3.14021970 0.92830949
v 1.80780774 3.14948142 0.92961323
v 1.82255078 3.08795363 0.93303554
v 1.78811820 3.07912684 0.93179313
v 1.61293827 3.74692969 0.97901268
v 1.77824996 3.11007850 0.93395310
v 1.45230591 4.38372567 0.91879767
v 1.77438269 3.11034187 1.03925701
v 1.44843862 4.38398903 1.02410158
v 1.61727614 3.89121996 0.97881117
v 1.81616141 3.11979692 0.93532107
v 1.49021735 4.39344362 0.92016568
v 1.81229413 3.12006029 1.04062497
v 1.48635007 4.39370699 1.02546958
v 1.81052476 3.07027679 0.98796120
v 1.46118794 4.43533208 0.97171814
v 1.47984199 4.35232127 1.03167479
v 1.45256115 4.37554952 1.02997501
v 1.48640311 4.38422450 1.03119615
v 1.47792955 4.41419238 1.02961874
v 1.44567792 4.40592501 1.02845498
v 1.78667286 3.15336068 1.04594146
v 1.77391152 3.11985294 1.04491680
v 1.80775347 3.12852816 1.04613794
v 1.81472416 3.09814669 1.04527864
v 1.78247252 3.08987909 1.04411487
v 1.48417438 4.35202648 0.91370665
v 1.45684657 4.37525757 0.91328473
v 1.49068851 4.38393301 0.91450584
v 1.48212752 4.41390663 0.91530781
v 1.44987588 4.40563927 0.91414400
v 1.79100525 3.15306566 0.92797334
v 1.77819693 3.11956122 0.92822651
v 1.81203888 3.12823619 0.92944766
v 1.81892211 3.09786071 0.93096770
v 1.78667049 3.08959335 0.92980394
v 1.47023153 4.31541632 0.91518537
v 1.76118371 3.17850231 0.92871377
v 1.61492324 3.74681865 0.92700692
v 1.76787200 3.15037861 0.93165109
v 1.46257296 4.34335376 0.91745564
v 1.46603853 4.31570160 1.02936021
v 1.75699071 3.17878782 1.04288858
v 1.61110318 3.74707893 1.03102389
v 1.76387126 3.15065116 1.04059022
v 1.45857222 4.34362630 1.02639477
v 1.50760932 4.32499791 0.91653409
v 1.79856150 3.18808389 0.93006248
v 1.61924433 3.89055046 0.92680616
v 1.80602782 3.16015941 0.93302791
v 1.50072878 4.35313456 0.91883245
v 1.50341633 4.32528317 1.03070891
v 1.79436851 3.18836939 1.04423730
v 1.61542438 3.89081051 1.03082313
v 1.80202708 3.16043197 1.04196703
v 1.49672803 4.35340710 1.02777156
v 1.82031751 3.08406773 1.04010530
v 1.82411848 3.08380876 0.93660763
v 1.82137587 3.09774699 0.93890715
v 1.81775357 3.09799366 1.03754121
v 1.82329804 3.07636744 0.98841506
v 1.78469628 3.07493632 1.03881998
v 1.78849725 3.07467734 0.93532228
v 1.78404263 3.08817701 0.93756004
v 1.78042032 3.08842367 1.03619410
v 1.78928624 3.06764871 0.98718778
v 1.47610278 4.42910838 1.02410040
v 1.47990375 4.42884940 0.92060269
v 1.48417971 4.41536204 0.92322858
v 1.48055740 4.41560872 1.02186263
v 1.47531380 4.43613701 0.97223488
v 1.44048156 4.41997696 1.02281504
v 1.44428253 4.41971798 0.91931736
v 1.44684646 4.40579206 0.92188146
v 1.44322416 4.40603873 1.02051551
v 1.44130201 4.42741852 0.97100760
v 1.46755434 4.31680181 1.03124511
v 1.50143486 4.32548693 1.03246765
v 1.75883779 3.17859372 1.04478889
v 1.79271833 3.18727860 1.04601142
v 1.44680130 4.39468281 1.02841027
v 1.61200424 3.74738448 1.03731936
v 1.45122987 4.37385480 1.02773106
v 1.48235192 4.40379632 1.02969301
v 1.61607203 3.88268994 1.03713038
v 1.48853313 4.38341752 1.02907705
v 1.46189456 4.42450412 1.02737254
v 1.48040141 4.41422953 1.02691167
v 1.47274755 4.43527194 1.02402075
v 1.44368195 4.40481670 1.02558671
v 1.44045913 4.42699539 1.02285563
v 1.77805852 3.10027490 1.04381268
v 1.77194287 3.12064909 1.04264321
v 1.81360916 3.10938795 1.04509547
v 1.80924601 3.13021180 1.04398921
v 1.80562574 3.08135308 1.04335497
v 1.81692530 3.09924108 1.04255900
v 1.82033568 3.07704974 1.04018249
v 1.78020586 3.08982825 1.04123405
v 1.78804725 3.06877272 1.03901743
v 1.47188170 4.31650687 0.91341127
v 1.50576224 4.32519199 0.91463377
v 1.76316517 3.17829902 0.92695501
v 1.79704570 3.18698392 0.92817757
v 1.45099088 4.39439778 0.91432720
v 1.61628363 3.74709286 0.92079304
v 1.45535402 4.37357392 0.91543346
v 1.48654152 4.40351082 0.91560998
v 1.62035143 3.88239831 0.92060405
v 1.49265717 4.38313664 0.91677945
v 1.46597290 4.42422677 0.91632025
v 1.48439419 4.41395723 0.91818865
v 1.47655278 4.43501300 0.92040523
v 1.44767473 4.40454439 0.91686368
v 1.44426436 4.42673598 0.91924018
v 1.78224811 3.09998963 0.92972962
v 1.77606690 3.12036820 0.93034561
v 1.81779875 3.10910268 0.93101243
v 1.81337017 3.12993092 0.93169161
v 1.80970407 3.08107550 0.93230269
v 1.82091808 3.09896926 0.93383594
v 1.82414090 3.07679057 0.93656702
v 1.78419863 3.08955643 0.93251097
v 1.79185248 3.06851355 0.93540194
v 1.76767164 3.14966452 0.93674883
v 1.46202510 4.34399753 0.92253722
v 1.76404528 3.14991141 1.03549514
v 1.45839862 4.34424466 1.02128351
v 1.77704070 3.10698250 0.98663973
v 1.44945715 4.38703572 0.97140812
v 1.80620141 3.15954129 0.93813913
v 1.50055476 4.35387455 0.92392750
v 1.80257493 3.15978819 1.03688545
v 1.49692840 4.35412121 1.02267383
v 1.81514289 3.11674976 0.98801458
v 1.48755934 4.39680297 0.97278294
f 1 47 44
f 1 44 43
f 1 43 45
f 1 45 46
f 1 46 47
f 2 49 52
f 6 72 70
f 12 102 99
f 11 96 95
f 8 79 81
f 4 62 59
f 4 59 58
f 4 58 60
f 4 60 61
f 4 61 62
f 5 66 65
f 3 54 57
f 7 73 77
f 9 85 86
f 10 92 88
f 12 101 98
f 6 69 68
f 2 50 48
f 8 82 78
f 11 97 93
f 6 71 69
f 12 100 101
f 11 94 97
f 8 80 82
f 2 51 50
f 10 90 89
f 5 63 64
f 3 55 53
f 7 76 74
f 9 87 84
f 10 91 90
f 5 67 63
f 3 56 55
f 7 75 76
f 9 83 87
f 6 68 72
f 2 48 49
f 8 78 79
f 11 93 96
f 12 98 102
f 10 88 91
f 5 65 67
f 3 57 56
f 7 77 75
f 9 86 83
f 5 64 66
f 3 53 54
f 7 74 73
f 9 84 85
f 10 89 92
f 6 70 71
f 12 99 100
f 11 95 94
f 8 81 80
f 2 52 51
f 35 109 116
f 18 105 108
f 19 111 106
f 40 114 112
f 42 117 115
f 34 125 119
f 33 152 156
f 25 137 139
f 36 158 160
f 20 123 120
f 32 143 149
f 23 127 132
f 24 135 128
f 37 147 145
f 41 150 148
f 34 153 155
f 33 140 133
f 25 138 134
f 36 159 157
f 20 122 124
f 17 107 47
f 14 103 44
f 13 104 43
f 15 110 45
f 16 113 46
f 18 118 49
f 35 154 72
f 42 141 102
f 40 162 96
f 19 121 79
f 30 142 62
f 27 129 59
f 22 130 58
f 28 144 60
f 29 146 61
f 32 151 66
f 23 131 54
f 24 136 73
f 37 161 85
f 41 126 92
f 35 116 101
f 18 108 69
f 19 106 50
f 40 112 82
f 42 115 97
f 34 119 71
f 33 156 100
f 25 139 94
f 36 160 80
f 20 120 51
f 32 149 90
f 23 132 63
f 24 128 55
f 37 145 76
f 41 148 87
f 34 155 91
f 33 133 67
f 25 134 56
f 36 157 75
f 20 124 83
f 14 109 68
f 13 105 48
f 15 111 78
f 16 114 93
f 17 117 98
f 21 125 88
f 31 152 65
f 26 137 57
f 38 158 77
f 39 123 86
f 27 143 64
f 22 127 53
f 28 135 74
f 29 147 84
f 30 150 89
f 31 153 70
f 26 140 99
f 38 138 95
f 39 159 81
f 21 122 52
f 14 107 109
f 13 103 105
f 15 104 111
f 16 110 114
f 17 113 117
f 21 118 125
f 31 154 152
f 26 141 137
f 38 162 158
f 39 121 123
f 27 142 143
f 22 129 127
f 28 130 135
f 29 144 147
f 30 146 150
f 31 151 153
f 26 131 140
f 38 136 138
f 39 161 159
f 21 126 122
f 14 44 107
f 13 43 103
f 15 45 104
f 16 46 110
f 17 47 113
f 21 52 118
f 31 70 154
f 26 99 141
f 38 95 162
f 39 81 121
f 27 59 142
f 22 58 129
f 28 60 130
f 29 61 144
f 30 62 146
f 31 65 151
f 26 57 131
f 38 77 136
f 39 86 161
f 21 88 126
f 17 98 116
f 14 68 108
f 13 48 106
f 15 78 112
f 16 93 115
f 18 69 119
f 35 101 156
f 42 97 139
f 40 82 160
f 19 50 120
f 30 89 149
f 27 64 132
f 22 53 128
f 28 74 145
f 29 84 148
f 32 90 155
f 23 63 133
f 24 55 134
f 37 76 157
f 41 87 124
f 35 72 109
f 18 49 105
f 19 79 111
f 40 96 114
f 42 102 117
f 34 91 125
f 33 67 152
f 25 56 137
f 36 75 158
f 20 83 123
f 32 66 143
f 23 54 127
f 24 73 135
f 37 85 147
f 41 92 150
f 34 71 153
f 33 100 140
f 25 94 138
f 36 80 159
f 20 51 122
f 17 116 107
f 14 108 103
f 13 106 104
f 15 112 110
f 16 115 113
f 18 119 118
f 35 156 154
f 42 139 141
f 40 160 162
f 19 120 121
f 30 149 142
f 27 132 129
f 22 128 130
f 28 145 144
f 29 148 146
f 32 155 151
f 23 133 131
f 24 134 136
f 37 157 161
f 41 124 126
f 107 44 47
f 103 43 44
f 104 45 43
f 110 46 45
f 113 47 46
f 118 52 49
f 154 70 72
f 141 99 102
f 162 95 96
f 121 81 79
f 142 59 62
f 129 58 59
f 130 60 58
f 144 61 60
f 146 62 61
f 151 65 66
f 131 57 54
f 136 77 73
f 161 86 85
f 126 88 92
f 116 98 101
f 108 68 69
f 106 48 50
f 112 78 82
f 115 93 97
f 119 69 71
f 156 101 100
f 139 97 94
f 160 82 80
f 120 50 51
f 149 89 90
f 132 64 63
f 128 53 55
f 145 74 76
f 148 84 87
f 155 90 91
f 133 63 67
f 134 55 56
f 157 76 75
f 124 87 83
f 109 72 68
f 105 49 48
f 111 79 78
f 114 96 93
f 117 102 98
f 125 91 88
f 152 67 65
f 137 56 57
f 158 75 77
f 123 83 86
f 143 66 64
f 127 54 53
f 135 73 74
f 147 85 84
f 150 92 89
f 153 71 70
f 140 100 99
f 138 94 95
f 159 80 81
f 122 51 52
f 107 116 109
f 103 108 105
f 104 106 111
f 110 112 114
f 113 115 117
f 118 119 125
f 154 156 152
f 141 139 137
f 162 160 158
f 121 120 123
f 142 149 143
f 129 132 127
f 130 128 135
f 144 145 147
f 146 148 150
f 151 155 153
f 131 133 140
f 136 134 138
f 161 157 159
f 126 124 122

