# https://github.com/mikedh/trimesh
v 0.72604126 2.57184391 0.39552315
v 0.40322854 3.76937794 0.37656289
v 0.72071880 2.57213528 0.50454399
v 0.39790611 3.76966931 0.48558373
v 0.53713883 3.16486751 0.49142973
v 0.54221112 3.16459007 0.38753211
v 0.60843414 3.05144049 0.49521352
v 0.61350645 3.05116282 0.39131589
v 0.40737158 3.80303987 0.43131591
v 0.37120144 3.79326213 0.42957622
v 0.74610220 2.54645530 0.45121111
v 0.70993205 2.53667756 0.44947142
v 0.56489890 3.17066823 0.38516493
v 0.69635829 2.59706929 0.39428029
v 0.73234783 2.60679806 0.39601135
v 0.74684138 2.54921146 0.39942683
v 0.71254313 2.53993960 0.39777717
v 0.39025161 3.73262934 0.37630127
v 0.42624113 3.74235834 0.37803228
v 0.40980752 3.79950166 0.37963128
v 0.37550927 3.79022980 0.37798164
v 0.55948967 3.17096430 0.49596318
v 0.69106251 2.59735909 0.50275506
v 0.72705199 2.60708809 0.50448606
v 0.74179433 2.54948763 0.50280568
v 0.70749609 2.54021576 0.50115605
v 0.38495582 3.73291937 0.48477598
v 0.42094535 3.74264814 0.48650702
v 0.40476052 3.79977783 0.48301016
v 0.37046229 3.79050597 0.48136049
v 0.53936561 3.16464524 0.43946603
v 0.37676472 3.76066344 0.47931308
v 0.69796557 2.56910889 0.49817867
v 0.38157454 3.76040010 0.38079232
v 0.70277538 2.56884555 0.39965788
v 0.61182327 3.04936874 0.44331154
v 0.41452826 3.77087188 0.48112943
v 0.73572909 2.57931734 0.49999501
v 0.41933807 3.77060854 0.38260866
v 0.74053890 2.57905399 0.40147425
v 0.39006772 3.80935222 0.43045425
v 0.73432086 2.53228055 0.45067384
v 0.71564029 2.60971109 0.39423837
v 0.70279872 2.57777601 0.39429598
v 0.73650870 2.58688855 0.39591735
v 0.74327202 2.55844761 0.39743925
v 0.71114623 2.54976334 0.39589407
v 0.41327450 3.73139352 0.37647903
v 0.38612483 3.75253711 0.37569627
v 0.41983479 3.76164966 0.37731764
v 0.41137862 3.78966836 0.37794565
v 0.37925283 3.78098386 0.37640046
v 0.71025203 2.61000596 0.50460761
v 0.69746887 2.57806777 0.50346969
v 0.73117879 2.58718032 0.50509107
v 0.73805081 2.55873357 0.50438688
v 0.70592502 2.55004907 0.50284168
v 0.40788624 3.73168863 0.48684826
v 0.38079494 3.75282888 0.48486997
v 0.41450489 3.76194142 0.48649135
v 0.40615741 3.78995409 0.48489327
v 0.37403162 3.78126982 0.48334806
v 0.68078742 2.63315174 0.50132855
v 0.39406931 3.69678630 0.48448828
v 0.53706475 3.16479538 0.48812802
v 0.38673233 3.72289903 0.48160524
v 0.68758857 2.60681649 0.49927591
v 0.68600242 2.63286627 0.39450829
v 0.39928431 3.69650082 0.37766802
v 0.54181577 3.16453536 0.39081125
v 0.39170818 3.72262678 0.37968338
v 0.69256442 2.60654400 0.39735406
v 0.71801932 2.64321661 0.50311932
v 0.43130122 3.70685117 0.48627904
v 0.60924185 3.04996528 0.49195860
v 0.42473921 3.73317343 0.48343327
v 0.72559549 2.61709065 0.50110395
v 0.72323432 2.64293113 0.39629906
v 0.43651621 3.70656570 0.37945878
v 0.61399289 3.04970525 0.39464186
v 0.42971507 3.73290094 0.38151142
v 0.73057134 2.61681840 0.39918209
v 0.40915380 3.80369855 0.38286998
v 0.40442649 3.80395734 0.47970089
v 0.40884846 3.79135271 0.47766983
v 0.41335363 3.79110603 0.38538927
v 0.40413132 3.81050122 0.43113776
v 0.37367154 3.79410681 0.38116334
v 0.36894423 3.79436560 0.47799426
v 0.37166088 3.78129996 0.47588121
v 0.37616605 3.78105329 0.38360064
v 0.37025221 3.80134284 0.42950826
v 0.74835944 2.54535183 0.40279307
v 0.74363210 2.54561062 0.49962399
v 0.74113757 2.55866414 0.49718669
v 0.74564275 2.55841747 0.40490613
v 0.74705143 2.53837459 0.45127907
v 0.71287715 2.53576009 0.40108644
v 0.70814987 2.53601888 0.49791736
v 0.70395001 2.54861140 0.49539806
v 0.70845518 2.54836472 0.40311750
v 0.71317232 2.52921622 0.44964957
v 0.68799099 2.63272719 0.39288995
v 0.72173932 2.64185016 0.39451319
v 0.40094646 3.69757251 0.37603053
v 0.43469479 3.70669571 0.37765372
v 0.70676957 2.55944091 0.39576139
v 0.54322774 3.16482406 0.38501363
v 0.70066047 2.57848039 0.39624949
v 0.74218143 2.56901372 0.39746461
v 0.61117347 3.05672601 0.38861967
v 0.73781817 2.58852513 0.39803668
v 0.73403817 2.54237268 0.39855945
v 0.74523624 2.55955082 0.40015241
v 0.74836430 2.53873696 0.40275575
v 0.70866011 2.54966345 0.39839317
v 0.71620187 2.53004251 0.40120881
v 0.38033298 3.77041871 0.37658825
v 0.38461471 3.75091148 0.37768665
v 0.41574487 3.77999129 0.37829152
v 0.42177239 3.76095622 0.37947386
v 0.39530910 3.79895176 0.37866433
v 0.41360955 3.78978227 0.38067446
v 0.40583443 3.80941584 0.38263739
v 0.37703339 3.77989467 0.37891521
v 0.37367200 3.80072139 0.38109045
v 0.68260887 2.63302172 0.50313361
v 0.71635715 2.64214492 0.50475680
v 0.39556431 3.69786727 0.48627413
v 0.42931265 3.70699024 0.48789738
v 0.70155879 2.55972614 0.50249581
v 0.53790533 3.16511538 0.49403398
v 0.69553124 2.57876120 0.50131348
v 0.73697066 2.56929872 0.50419908
v 0.60585106 3.05701733 0.49764001
v 0.73268890 2.58880595 0.50310068
v 0.72896579 2.54265022 0.50245829
v 0.74027028 2.55982276 0.50187211
v 0.74363159 2.53899604 0.49969689
v 0.70369409 2.54993516 0.50011287
v 0.71146918 2.53030159 0.49814994
v 0.37512218 3.77070371 0.48332272
v 0.37948546 3.75119230 0.48275065
v 0.41053407 3.78027653 0.48502594
v 0.41664314 3.76123704 0.48453784
v 0.39023671 3.79922929 0.48256318
v 0.40864356 3.79005398 0.48239416
v 0.40110172 3.80967492 0.47957852
v 0.37206740 3.78016661 0.48063492
v 0.36893931 3.80098047 0.47803158
v 0.38660764 3.72347134 0.47681807
v 0.68780636 2.60611808 0.49450889
v 0.39111795 3.72322431 0.38443251
v 0.69231666 2.60587128 0.40212327
v 0.37826684 3.76350297 0.43000065
v 0.70108332 2.56595460 0.44896119
v 0.42498697 3.73384615 0.47866406
v 0.72618569 2.61649312 0.49635482
v 0.42949728 3.73359936 0.38627844
v 0.73069600 2.61624609 0.40396926
v 0.41622031 3.77376283 0.43182614
v 0.73903682 2.57621446 0.45078667
f 1 47 44
f 1 44 43
f 1 43 45
f 1 45 46
f 1 46 47
f 2 49 52
f 6 72 70
f 12 102 99
f 11 96 95
f 8 79 81
f 4 62 59
f 4 59 58
f 4 58 60
f 4 60 61
f 4 61 62
f 5 66 65
f 3 54 57
f 7 73 77
f 9 85 86
f 10 92 88
f 12 101 98
f 6 69 68
f 2 50 48
f 8 82 78
f 11 97 93
f 6 71 69
f 12 100 101
f 11 94 97
f 8 80 82
f 2 51 50
f 10 90 89
f 5 63 64
f 3 55 53
f 7 76 74
f 9 87 84
f 10 91 90
f 5 67 63
f 3 56 55
f 7 75 76
f 9 83 87
f 6 68 72
f 2 48 49
f 8 78 79
f 11 93 96
f 12 98 102
f 10 88 91
f 5 65 67
f 3 57 56
f 7 77 75
f 9 86 83
f 5 64 66
f 3 53 54
f 7 74 73
f 9 84 85
f 10 89 92
f 6 70 71
f 12 99 100
f 11 95 94
f 8 81 80
f 2 52 51
f 35 109 116
f 18 105 108
f 19 111 106
f 40 114 112
f 42 117 115
f 34 125 119
f 33 152 156
f 25 137 139
f 36 158 160
f 20 123 120
f 32 143 149
f 23 127 132
f 24 135 128
f 37 147 145
f 41 150 148
f 34 153 155
f 33 140 133
f 25 138 134
f 36 159 157
f 20 122 124
f 17 107 47
f 14 103 44
f 13 104 43
f 15 110 45
f 16 113 46
f 18 118 49
f 35 154 72
f 42 141 102
f 40 162 96
f 19 121 79
f 30 142 62
f 27 129 59
f 22 130 58
f 28 144 60
f 29 146 61
f 32 151 66
f 23 131 54
f 24 136 73
f 37 161 85
f 41 126 92
f 35 116 101
f 18 108 69
f 19 106 50
f 40 112 82
f 42 115 97
f 34 119 71
f 33 156 100
f 25 139 94
f 36 160 80
f 20 120 51
f 32 149 90
f 23 132 63
f 24 128 55
f 37 145 76
f 41 148 87
f 34 155 91
f 33 133 67
f 25 134 56
f 36 157 75
f 20 124 83
f 14 109 68
f 13 105 48
f 15 111 78
f 16 114 93
f 17 117 98
f 21 125 88
f 31 152 65
f 26 137 57
f 38 158 77
f 39 123 86
f 27 143 64
f 22 127 53
f 28 135 74
f 29 147 84
f 30 150 89
f 31 153 70
f 26 140 99
f 38 138 95
f 39 159 81
f 21 122 52
f 14 107 109
f 13 103 105
f 15 104 111
f 16 110 114
f 17 113 117
f 21 118 125
f 31 154 152
f 26 141 137
f 38 162 158
f 39 121 123
f 27 142 143
f 22 129 127
f 28 130 135
f 29 144 147
f 30 146 150
f 31 151 153
f 26 131 140
f 38 136 138
f 39 161 159
f 21 126 122
f 14 44 107
f 13 43 103
f 15 45 104
f 16 46 110
f 17 47 113
f 21 52 118
f 31 70 154
f 26 99 141
f 38 95 162
f 39 81 121
f 27 59 142
f 22 58 129
f 28 60 130
f 29 61 144
f 30 62 146
f 31 65 151
f 26 57 131
f 38 77 136
f 39 86 161
f 21 88 126
f 17 98 116
f 14 68 108
f 13 48 106
f 15 78 112
f 16 93 115
f 18 69 119
f 35 101 156
f 42 97 139
f 40 82 160
f 19 50 120
f 30 89 149
f 27 64 132
f 22 53 128
f 28 74 145
f 29 84 148
f 32 90 155
f 23 63 133
f 24 55 134
f 37 76 157
f 41 87 124
f 35 72 109
f 18 49 105
f 19 79 111
f 40 96 114
f 42 102 117
f 34 91 125
f 33 67 152
f 25 56 137
f 36 75 158
f 20 83 123
f 32 66 143
f 23 54 127
f 24 73 135
f 37 85 147
f 41 92 150
f 34 71 153
f 33 100 140
f 25 94 138
f 36 80 159
f 20 51 122
f 17 116 107
f 14 108 103
f 13 106 104
f 15 112 110
f 16 115 113
f 18 119 118
f 35 156 154
f 42 139 141
f 40 160 162
f 19 120 121
f 30 149 142
f 27 132 129
f 22 128 130
f 28 145 144
f 29 148 146
f 32 155 151
f 23 133 131
f 24 134 136
f 37 157 161
f 41 124 126
f 107 44 47
f 103 43 44
f 104 45 43
f 110 46 45
f 113 47 46
f 118 52 49
f 154 70 72
f 141 99 102
f 162 95 96
f 121 81 79
f 142 59 62
f 129 58 59
f 130 60 58
f 144 61 60
f 146 62 61
f 151 65 66
f 131 57 54
f 136 77 73
f 161 86 85
f 126 88 92
f 116 98 101
f 108 68 69
f 106 48 50
f 112 78 82
f 115 93 97
f 119 69 71
f 156 101 100
f 139 97 94
f 160 82 80
f 120 50 51
f 149 89 90
f 132 64 63
f 128 53 55
f 145 74 76
f 148 84 87
f 155 90 91
f 133 63 67
f 134 55 56
f 157 76 75
f 124 87 83
f 109 72 68
f 105 49 48
f 111 79 78
f 114 96 93
f 117 102 98
f 125 91 88
f 152 67 65
f 137 56 57
f 158 75 77
f 123 83 86
f 143 66 64
f 127 54 53
f 135 73 74
f 147 85 84
f 150 92 89
f 153 71 70
f 140 100 99
f 138 94 95
f 159 80 81
f 122 51 52
f 107 116 109
f 103 108 105
f 104 106 111
f 110 112 114
f 113 115 117
f 118 119 125
f 154 156 152
f 141 139 137
f 162 160 158
f 121 120 123
f 142 149 143
f 129 132 127
f 130 128 135
f 144 145 147
f 146 148 150
f 151 155 153
f 131 133 140
f 136 134 138
f 161 157 159
f 126 124 122

