# https://github.com/mikedh/trimesh
v 0.46301608 2.44560929 0.38562189
v 0.12658462 3.75350229 0.35827028
v 0.72882657 2.51376524 0.37514705
v 0.39239508 3.82165825 0.34779545
v 0.55510311 3.16678305 0.38481977
v 0.30178381 3.10183007 0.39480235
v 0.58859547 3.03055222 0.34832316
v 0.33527617 2.96559924 0.35830575
v 0.25070662 3.81938073 0.33706320
v 0.25190347 3.82047233 0.37453698
v 0.60372755 2.44699553 0.36576351
v 0.60492440 2.44808713 0.40323728
v 0.29262620 3.09899353 0.37180290
v 0.45568179 2.48026590 0.40697282
v 0.45449092 2.47917985 0.36968615
v 0.47684713 2.41814684 0.37162766
v 0.47798204 2.41918193 0.40716210
v 0.13666115 3.72047367 0.38103667
v 0.13547025 3.71938763 0.34375003
v 0.12559453 3.78365734 0.34307111
v 0.12672947 3.78469243 0.37860557
v 0.56277036 3.16826051 0.36115730
v 0.72016074 2.54808024 0.39655045
v 0.71896985 2.54699420 0.35926382
v 0.72890155 2.48277543 0.36169491
v 0.73003649 2.48381053 0.39722937
v 0.40114010 3.78828802 0.37061435
v 0.39994924 3.78720196 0.33332768
v 0.37764899 3.84828593 0.33313838
v 0.37878389 3.84932103 0.36867282
v 0.42845367 3.13431583 0.39013160
v 0.38116932 3.81578076 0.37137207
v 0.71592097 2.51441833 0.39858708
v 0.14095965 3.75418915 0.38083801
v 0.47571127 2.45282673 0.40805306
v 0.46249210 2.99586419 0.35303994
v 0.37991975 3.81464114 0.33224743
v 0.71467141 2.51327871 0.35946247
v 0.13971008 3.75304954 0.34171341
v 0.47446170 2.45168711 0.36892842
v 0.24831005 3.83100700 0.35189599
v 0.60708652 2.43624704 0.38106421
v 0.45072446 2.48661508 0.38503844
v 0.46029847 2.45860620 0.40627322
v 0.45918302 2.45758902 0.37134827
v 0.46985378 2.42747744 0.37270670
v 0.47091682 2.42844691 0.40599042
v 0.13560254 3.71166619 0.35941926
v 0.13026480 3.74162751 0.37944174
v 0.12914933 3.74061034 0.34451680
v 0.12395850 3.77216135 0.34458570
v 0.12502151 3.77313082 0.37786942
v 0.71982254 2.55561387 0.37443406
v 0.72648169 2.52685753 0.39578370
v 0.72536622 2.52584035 0.36085874
v 0.73060951 2.49433705 0.36243106
v 0.73167252 2.49530652 0.39571478
v 0.40470064 3.78066497 0.34881489
v 0.39644800 3.80987884 0.36895222
v 0.39533256 3.80886166 0.33402726
v 0.38471420 3.83902096 0.33431006
v 0.38577724 3.83999042 0.36759378
v 0.70806121 2.58685882 0.39645214
v 0.40924698 3.74851266 0.37215880
v 0.54708825 3.16473301 0.38537908
v 0.39592096 3.77563403 0.37219659
v 0.70946970 2.55669869 0.39768785
v 0.44761599 2.52007877 0.40671554
v 0.14880185 3.68173261 0.38242219
v 0.30981419 3.10389429 0.39472937
v 0.14741895 3.71191624 0.38198934
v 0.46096769 2.49298091 0.40748060
v 0.70682920 2.58573525 0.35787830
v 0.40801503 3.74738909 0.33358494
v 0.58099486 3.02681732 0.34843108
v 0.39466334 3.77448695 0.33281988
v 0.70821210 2.55555163 0.35831114
v 0.44638403 2.51895521 0.36814169
v 0.14756984 3.68060905 0.34384835
v 0.34372080 2.96597860 0.35778137
v 0.14616129 3.71076917 0.34261264
v 0.45971006 2.49183384 0.36810389
v 0.13242573 3.79008593 0.34205120
v 0.36851522 3.85062105 0.33274759
v 0.36654388 3.83516157 0.33237581
v 0.14154891 3.77747128 0.34124221
v 0.24856141 3.82790251 0.33807249
v 0.13359982 3.79115677 0.37881232
v 0.36968930 3.85169190 0.36950872
v 0.36777440 3.83628381 0.37090371
v 0.14277940 3.77859353 0.37977011
v 0.24968244 3.82892476 0.37317269
v 0.48594172 2.41577597 0.37079178
v 0.72203120 2.47631109 0.36148817
v 0.71285159 2.48887434 0.36053037
v 0.48785661 2.43118405 0.36939678
v 0.60594858 2.43854311 0.36712780
v 0.48711580 2.41684681 0.40755289
v 0.72320529 2.47738194 0.39824930
v 0.71408214 2.48999658 0.39905827
v 0.48908714 2.43230629 0.40792468
v 0.60706961 2.43956535 0.40222797
v 0.44355509 2.51829480 0.40508925
v 0.44243834 2.51727632 0.37012456
v 0.14440077 3.68127114 0.38076824
v 0.14328405 3.68025266 0.34580356
v 0.46838757 2.43961727 0.40745125
v 0.29550931 3.10020189 0.39412473
v 0.46503829 2.46121532 0.40783516
v 0.46721582 2.43854873 0.37076302
v 0.32742815 2.97037161 0.35934280
v 0.46380874 2.46009391 0.36933822
v 0.47754873 2.41496244 0.38588040
v 0.47601447 2.42958462 0.37013889
v 0.48759452 2.40905746 0.37265765
v 0.47722477 2.43068845 0.40803332
v 0.48865879 2.41002807 0.40597926
v 0.12817936 3.76219268 0.37979261
v 0.13565921 3.74169170 0.38105693
v 0.12700757 3.76112414 0.34310437
v 0.13442965 3.74057052 0.34255996
v 0.12452937 3.78734144 0.35718025
v 0.13039713 3.77318794 0.34204049
v 0.13061399 3.79683574 0.34363545
v 0.13160739 3.77429177 0.37993495
v 0.13167824 3.79780635 0.37695703
v 0.71234700 2.58721520 0.39449692
v 0.71123028 2.58619673 0.35953224
v 0.41319268 3.75019154 0.37017592
v 0.41207594 3.74917306 0.33521124
v 0.72862345 2.50634373 0.39719612
v 0.56131857 3.16835737 0.38364997
v 0.72120136 2.52689734 0.39774053
v 0.72745166 2.50527518 0.36050788
v 0.59323748 3.03852709 0.34886803
v 0.71997181 2.52577616 0.35924356
v 0.73087101 2.47991614 0.37589771
v 0.72402366 2.49317610 0.36036554
v 0.72395278 2.46966152 0.36334343
v 0.72523387 2.49427992 0.39826000
v 0.72501704 2.47063213 0.39666504
v 0.38841521 3.82891914 0.36953747
v 0.39182228 3.80737396 0.37096227
v 0.38724345 3.82785060 0.33284924
v 0.39059273 3.80625253 0.33246533
v 0.37785162 3.85229513 0.34719752
v 0.37840625 3.83677942 0.33226717
v 0.36697224 3.85743980 0.33432123
v 0.37961655 3.83788325 0.37016160
v 0.36803650 3.85841040 0.36764284
v 0.38412322 3.77335249 0.37283316
v 0.69802885 2.55302970 0.39835344
v 0.15887215 3.71559633 0.38170968
v 0.47277774 2.49527355 0.40722996
v 0.26022573 3.78826082 0.37613498
v 0.59666114 2.48035252 0.40348691
v 0.38285328 3.77219432 0.33307053
v 0.69675887 2.55187153 0.35859081
v 0.15760217 3.71443816 0.34194704
v 0.47150779 2.49411538 0.36746732
v 0.25896988 3.78711534 0.33681358
v 0.59540527 2.47920705 0.36416550
f 1 47 44
f 1 44 43
f 1 43 45
f 1 45 46
f 1 46 47
f 2 49 52
f 6 72 70
f 12 102 99
f 11 96 95
f 8 79 81
f 4 62 59
f 4 59 58
f 4 58 60
f 4 60 61
f 4 61 62
f 5 66 65
f 3 54 57
f 7 73 77
f 9 85 86
f 10 92 88
f 12 101 98
f 6 69 68
f 2 50 48
f 8 82 78
f 11 97 93
f 6 71 69
f 12 100 101
f 11 94 97
f 8 80 82
f 2 51 50
f 10 90 89
f 5 63 64
f 3 55 53
f 7 76 74
f 9 87 84
f 10 91 90
f 5 67 63
f 3 56 55
f 7 75 76
f 9 83 87
f 6 68 72
f 2 48 49
f 8 78 79
f 11 93 96
f 12 98 102
f 10 88 91
f 5 65 67
f 3 57 56
f 7 77 75
f 9 86 83
f 5 64 66
f 3 53 54
f 7 74 73
f 9 84 85
f 10 89 92
f 6 70 71
f 12 99 100
f 11 95 94
f 8 81 80
f 2 52 51
f 35 109 116
f 18 105 108
f 19 111 106
f 40 114 112
f 42 117 115
f 34 125 119
f 33 152 156
f 25 137 139
f 36 158 160
f 20 123 120
f 32 143 149
f 23 127 132
f 24 135 128
f 37 147 145
f 41 150 148
f 34 153 155
f 33 140 133
f 25 138 134
f 36 159 157
f 20 122 124
f 17 107 47
f 14 103 44
f 13 104 43
f 15 110 45
f 16 113 46
f 18 118 49
f 35 154 72
f 42 141 102
f 40 162 96
f 19 121 79
f 30 142 62
f 27 129 59
f 22 130 58
f 28 144 60
f 29 146 61
f 32 151 66
f 23 131 54
f 24 136 73
f 37 161 85
f 41 126 92
f 35 116 101
f 18 108 69
f 19 106 50
f 40 112 82
f 42 115 97
f 34 119 71
f 33 156 100
f 25 139 94
f 36 160 80
f 20 120 51
f 32 149 90
f 23 132 63
f 24 128 55
f 37 145 76
f 41 148 87
f 34 155 91
f 33 133 67
f 25 134 56
f 36 157 75
f 20 124 83
f 14 109 68
f 13 105 48
f 15 111 78
f 16 114 93
f 17 117 98
f 21 125 88
f 31 152 65
f 26 137 57
f 38 158 77
f 39 123 86
f 27 143 64
f 22 127 53
f 28 135 74
f 29 147 84
f 30 150 89
f 31 153 70
f 26 140 99
f 38 138 95
f 39 159 81
f 21 122 52
f 14 107 109
f 13 103 105
f 15 104 111
f 16 110 114
f 17 113 117
f 21 118 125
f 31 154 152
f 26 141 137
f 38 162 158
f 39 121 123
f 27 142 143
f 22 129 127
f 28 130 135
f 29 144 147
f 30 146 150
f 31 151 153
f 26 131 140
f 38 136 138
f 39 161 159
f 21 126 122
f 14 44 107
f 13 43 103
f 15 45 104
f 16 46 110
f 17 47 113
f 21 52 118
f 31 70 154
f 26 99 141
f 38 95 162
f 39 81 121
f 27 59 142
f 22 58 129
f 28 60 130
f 29 61 144
f 30 62 146
f 31 65 151
f 26 57 131
f 38 77 136
f 39 86 161
f 21 88 126
f 17 98 116
f 14 68 108
f 13 48 106
f 15 78 112
f 16 93 115
f 18 69 119
f 35 101 156
f 42 97 139
f 40 82 160
f 19 50 120
f 30 89 149
f 27 64 132
f 22 53 128
f 28 74 145
f 29 84 148
f 32 90 155
f 23 63 133
f 24 55 134
f 37 76 157
f 41 87 124
f 35 72 109
f 18 49 105
f 19 79 111
f 40 96 114
f 42 102 117
f 34 91 125
f 33 67 152
f 25 56 137
f 36 75 158
f 20 83 123
f 32 66 143
f 23 54 127
f 24 73 135
f 37 85 147
f 41 92 150
f 34 71 153
f 33 100 140
f 25 94 138
f 36 80 159
f 20 51 122
f 17 116 107
f 14 108 103
f 13 106 104
f 15 112 110
f 16 115 113
f 18 119 118
f 35 156 154
f 42 139 141
f 40 160 162
f 19 120 121
f 30 149 142
f 27 132 129
f 22 128 130
f 28 145 144
f 29 148 146
f 32 155 151
f 23 133 131
f 24 134 136
f 37 157 161
f 41 124 126
f 107 44 47
f 103 43 44
f 104 45 43
f 110 46 45
f 113 47 46
f 118 52 49
f 154 70 72
f 141 99 102
f 162 95 96
f 121 81 79
f 142 59 62
f 129 58 59
f 130 60 58
f 144 61 60
f 146 62 61
f 151 65 66
f 131 57 54
f 136 77 73
f 161 86 85
f 126 88 92
f 116 98 101
f 108 68 69
f 106 48 50
f 112 78 82
f 115 93 97
f 119 69 71
f 156 101 100
f 139 97 94
f 160 82 80
f 120 50 51
f 149 89 90
f 132 64 63
f 128 53 55
f 145 74 76
f 148 84 87
f 155 90 91
f 133 63 67
f 134 55 56
f 157 76 75
f 124 87 83
f 109 72 68
f 105 49 48
f 111 79 78
f 114 96 93
f 117 102 98
f 125 91 88
f 152 67 65
f 137 56 57
f 158 75 77
f 123 83 86
f 143 66 64
f 127 54 53
f 135 73 74
f 147 85 84
f 150 92 89
f 153 71 70
f 140 100 99
f 138 94 95
f 159 80 81
f 122 51 52
f 107 116 109
f 103 108 105
f 104 106 111
f 110 112 114
f 113 115 117
f 118 119 125
f 154 156 152
f 141 139 137
f 162 160 158
f 121 120 123
f 142 149 143
f 129 132 127
f 130 128 135
f 144 145 147
f 146 148 150
f 151 155 153
f 131 133 140
f 136 134 138
f 161 157 159
f 126 124 122

