# https://github.com/mikedh/trimesh
v 3.53833984 5.30506383 2.10865412
v 3.87181999 4.06938473 2.12389878
v 3.54274387 5.30474291 1.98631986
v 3.87622403 4.06906405 2.00156462
v 3.68707060 4.68088060 1.99602928
v 3.68287354 4.68118608 2.11261471
v 3.69059981 4.81877178 1.99579481
v 3.68640276 4.81907725 2.11238023
v 3.89701458 4.04275138 2.06362878
v 3.86082633 4.03296917 2.06235171
v 3.54709049 5.33936189 2.04763238
v 3.51090224 5.32957968 2.04635532
v 3.70526479 4.68728669 2.11728149
v 3.52565269 5.26732390 2.10798957
v 3.56166011 5.27705732 2.10926023
v 3.54494258 5.33601354 2.10564100
v 3.51062713 5.32673719 2.10443010
v 3.84187476 4.09559297 2.12244523
v 3.87788243 4.10532639 2.12371600
v 3.89311387 4.04589774 2.12155729
v 3.85879842 4.03662187 2.12034623
v 3.70974052 4.68696052 1.99295276
v 3.53003439 5.26700467 1.98626810
v 3.56604205 5.27673809 1.98753887
v 3.54911839 5.33570919 1.98963787
v 3.51480294 5.32643332 1.98842681
v 3.84625671 4.09527375 2.00072385
v 3.88226414 4.10500716 2.00199451
v 3.89728968 4.04559364 2.00555401
v 3.86297424 4.03631777 2.00434307
v 3.68466248 4.68094952 2.05431116
v 3.85296461 4.06615962 2.00663364
v 3.52114943 5.29566876 1.99146519
v 3.84898486 4.06644937 2.11718559
v 3.51716967 5.29595826 2.10201703
v 3.68824934 4.82108882 2.05407280
v 3.89074715 4.07637256 2.00796707
v 3.55893196 5.30588193 1.99279848
v 3.88676739 4.07666230 2.11851891
v 3.55495221 5.30617144 2.10335045
v 3.88531713 4.02824845 2.06324569
v 3.52968818 5.34599875 2.04698856
v 3.54866356 5.26587490 2.10988606
v 3.52132077 5.28785823 2.10817243
v 3.55504762 5.29697514 2.10936257
v 3.54643872 5.32588631 2.10772631
v 3.51429684 5.31719794 2.10659212
v 3.86102092 4.10846353 2.12416508
v 3.84845924 4.07567731 2.12312723
v 3.88218608 4.08479422 2.12431737
v 3.88929978 4.05544757 2.12339989
v 3.85715790 4.04675919 2.12226559
v 3.55312180 5.26555032 1.98603875
v 3.52573075 5.28753685 1.98566672
v 3.55945759 5.29665375 1.98685687
v 3.55075892 5.32557164 1.98771852
v 3.51861703 5.31688326 1.98658422
v 3.86547940 4.10813897 2.00031787
v 3.85286920 4.07535616 2.00062151
v 3.88659605 4.08447283 2.00181166
v 3.89361998 4.05513289 2.00339199
v 3.86147810 4.04644452 2.00225781
v 3.53939422 5.22973109 1.98763224
v 3.83558699 4.13221664 2.00117235
v 3.68670289 4.68082679 1.99971334
v 3.84240304 4.10505960 2.00424089
v 3.53160482 5.25669266 1.99003306
v 3.53507928 5.23004522 2.10749720
v 3.83127205 4.13253078 2.12103730
v 3.68277161 4.68111282 2.10891415
v 3.83828606 4.10535952 2.11860911
v 3.52748783 5.25699258 2.10440128
v 3.57664476 5.23980029 1.98894680
v 3.87283754 4.14228585 2.00248690
v 3.69027560 4.82042367 1.99947588
v 3.88042899 4.11533848 2.00558281
v 3.56963077 5.26697154 1.99137499
v 3.57232983 5.24011442 2.10881175
v 3.86852261 4.14259997 2.12235185
v 3.68634459 4.82070971 2.10867680
v 3.87631201 4.11563840 2.11995103
v 3.56551379 5.26727146 2.10574321
v 3.89496014 4.04189160 2.11795571
v 3.89887156 4.04160659 2.00930007
v 3.89606037 4.05508165 2.01171984
v 3.89233248 4.05535319 2.11526946
v 3.89803244 4.03442304 2.06368725
v 3.85946010 4.03229539 2.11670285
v 3.86337152 4.03201061 2.00804719
v 3.85885401 4.04502429 2.01040686
v 3.85512636 4.04529583 2.11395647
v 3.86413647 4.02526046 2.06249110
v 3.54454531 5.34032021 2.10193691
v 3.54845673 5.34003567 1.99328124
v 3.55279045 5.32703499 1.99602764
v 3.54906281 5.32730677 2.09957724
v 3.54378034 5.34707061 2.04749300
v 3.50904525 5.33072448 2.10068401
v 3.51295667 5.33043946 1.99202838
v 3.51558434 5.31697787 1.99471463
v 3.51185646 5.31724965 2.09826424
v 3.50988437 5.33790827 2.04629683
v 3.53658424 5.23114598 2.10947170
v 3.57034929 5.24027305 2.11066321
v 3.83311412 4.13238219 2.12302716
v 3.86687942 4.14150927 2.12421879
v 3.51547591 5.30630940 2.10654331
v 3.68366214 4.68143463 2.11552037
v 3.52000335 5.28618395 2.10582053
v 3.55090549 5.31588627 2.10779364
v 3.68702550 4.81284787 2.11529687
v 3.55717961 5.29623288 2.10713260
v 3.53038596 5.33556333 2.10541030
v 3.54890848 5.32596993 2.10487798
v 3.54116516 5.34623392 2.10186168
v 3.51231389 5.31607805 2.10358655
v 3.50898672 5.33753588 2.10072603
v 3.85269980 4.05675855 2.12195904
v 3.84649315 4.07640731 2.12074567
v 3.88812938 4.06633566 2.12320935
v 3.88366942 4.08645645 2.12205761
v 3.88030863 4.03895855 2.12140664
v 3.89149398 4.05655206 2.12053889
v 3.89501409 4.03508039 2.11803739
v 3.85489939 4.04666018 2.11924748
v 3.86283566 4.02638212 2.11690189
v 3.54103739 5.23082179 1.98576530
v 3.57480271 5.23994887 1.98695694
v 3.83756752 4.13205802 1.99932088
v 3.87133259 4.14118508 2.00051240
v 3.51978744 5.30599540 1.98677474
v 3.68806595 4.68111422 1.99318667
v 3.52424740 5.28587461 1.98792648
v 3.55521702 5.31557275 1.98802503
v 3.69142955 4.81252700 1.99296320
v 3.56142366 5.29592399 1.98923840
v 3.53458298 5.33525774 1.98882357
v 3.55301743 5.32567064 1.99073664
v 3.54508116 5.34594895 1.99308221
v 3.51642284 5.31577876 1.98944521
v 3.51290272 5.33725091 1.99194669
v 3.85701134 4.05644455 2.00219048
v 3.85073720 4.07609818 2.00285149
v 3.89244092 4.06602167 2.00344079
v 3.88791347 4.08614735 2.00416355
v 3.88450565 4.03865296 2.00481991
v 3.89560293 4.05625278 2.00639755
v 3.89893009 4.03479519 2.00925806
v 3.85900834 4.04636089 2.00510614
v 3.86675166 4.02609690 2.00812244
v 3.84220101 4.10436794 2.00959269
v 3.53104911 5.25731153 1.99536883
v 3.83846911 4.10463968 2.11326025
v 3.52731720 5.25758373 2.09903623
v 3.85171415 4.06318649 2.06194445
v 3.51823022 5.29888041 2.04669953
v 3.88059961 4.11474734 2.01094786
v 3.56944772 5.26769138 1.99672385
v 3.87686771 4.11501953 2.11461526
v 3.56571581 5.26796312 2.10039140
v 3.88968660 4.07345089 2.06328455
v 3.55620266 5.30914433 2.04803967
f 1 47 44
f 1 44 43
f 1 43 45
f 1 45 46
f 1 46 47
f 2 49 52
f 6 72 70
f 12 102 99
f 11 96 95
f 8 79 81
f 4 62 59
f 4 59 58
f 4 58 60
f 4 60 61
f 4 61 62
f 5 66 65
f 3 54 57
f 7 73 77
f 9 85 86
f 10 92 88
f 12 101 98
f 6 69 68
f 2 50 48
f 8 82 78
f 11 97 93
f 6 71 69
f 12 100 101
f 11 94 97
f 8 80 82
f 2 51 50
f 10 90 89
f 5 63 64
f 3 55 53
f 7 76 74
f 9 87 84
f 10 91 90
f 5 67 63
f 3 56 55
f 7 75 76
f 9 83 87
f 6 68 72
f 2 48 49
f 8 78 79
f 11 93 96
f 12 98 102
f 10 88 91
f 5 65 67
f 3 57 56
f 7 77 75
f 9 86 83
f 5 64 66
f 3 53 54
f 7 74 73
f 9 84 85
f 10 89 92
f 6 70 71
f 12 99 100
f 11 95 94
f 8 81 80
f 2 52 51
f 35 109 116
f 18 105 108
f 19 111 106
f 40 114 112
f 42 117 115
f 34 125 119
f 33 152 156
f 25 137 139
f 36 158 160
f 20 123 120
f 32 143 149
f 23 127 132
f 24 135 128
f 37 147 145
f 41 150 148
f 34 153 155
f 33 140 133
f 25 138 134
f 36 159 157
f 20 122 124
f 17 107 47
f 14 103 44
f 13 104 43
f 15 110 45
f 16 113 46
f 18 118 49
f 35 154 72
f 42 141 102
f 40 162 96
f 19 121 79
f 30 142 62
f 27 129 59
f 22 130 58
f 28 144 60
f 29 146 61
f 32 151 66
f 23 131 54
f 24 136 73
f 37 161 85
f 41 126 92
f 35 116 101
f 18 108 69
f 19 106 50
f 40 112 82
f 42 115 97
f 34 119 71
f 33 156 100
f 25 139 94
f 36 160 80
f 20 120 51
f 32 149 90
f 23 132 63
f 24 128 55
f 37 145 76
f 41 148 87
f 34 155 91
f 33 133 67
f 25 134 56
f 36 157 75
f 20 124 83
f 14 109 68
f 13 105 48
f 15 111 78
f 16 114 93
f 17 117 98
f 21 125 88
f 31 152 65
f 26 137 57
f 38 158 77
f 39 123 86
f 27 143 64
f 22 127 53
f 28 135 74
f 29 147 84
f 30 150 89
f 31 153 70
f 26 140 99
f 38 138 95
f 39 159 81
f 21 122 52
f 14 107 109
f 13 103 105
f 15 104 111
f 16 110 114
f 17 113 117
f 21 118 125
f 31 154 152
f 26 141 137
f 38 162 158
f 39 121 123
f 27 142 143
f 22 129 127
f 28 130 135
f 29 144 147
f 30 146 150
f 31 151 153
f 26 131 140
f 38 136 138
f 39 161 159
f 21 126 122
f 14 44 107
f 13 43 103
f 15 45 104
f 16 46 110
f 17 47 113
f 21 52 118
f 31 70 154
f 26 99 141
f 38 95 162
f 39 81 121
f 27 59 142
f 22 58 129
f 28 60 130
f 29 61 144
f 30 62 146
f 31 65 151
f 26 57 131
f 38 77 136
f 39 86 161
f 21 88 126
f 17 98 116
f 14 68 108
f 13 48 106
f 15 78 112
f 16 93 115
f 18 69 119
f 35 101 156
f 42 97 139
f 40 82 160
f 19 50 120
f 30 89 149
f 27 64 132
f 22 53 128
f 28 74 145
f 29 84 148
f 32 90 155
f 23 63 133
f 24 55 134
f 37 76 157
f 41 87 124
f 35 72 109
f 18 49 105
f 19 79 111
f 40 96 114
f 42 102 117
f 34 91 125
f 33 67 152
f 25 56 137
f 36 75 158
f 20 83 123
f 32 66 143
f 23 54 127
f 24 73 135
f 37 85 147
f 41 92 150
f 34 71 153
f 33 100 140
f 25 94 138
f 36 80 159
f 20 51 122
f 17 116 107
f 14 108 103
f 13 106 104
f 15 112 110
f 16 115 113
f 18 119 118
f 35 156 154
f 42 139 141
f 40 160 162
f 19 120 121
f 30 149 142
f 27 132 129
f 22 128 130
f 28 145 144
f 29 148 146
f 32 155 151
f 23 133 131
f 24 134 136
f 37 157 161
f 41 124 126
f 107 44 47
f 103 43 44
f 104 45 43
f 110 46 45
f 113 47 46
f 118 52 49
f 154 70 72
f 141 99 102
f 162 95 96
f 121 81 79
f 142 59 62
f 129 58 59
f 130 60 58
f 144 61 60
f 146 62 61
f 151 65 66
f 131 57 54
f 136 77 73
f 161 86 85
f 126 88 92
f 116 98 101
f 108 68 69
f 106 48 50
f 112 78 82
f 115 93 97
f 119 69 71
f 156 101 100
f 139 97 94
f 160 82 80
f 120 50 51
f 149 89 90
f 132 64 63
f 128 53 55
f 145 74 76
f 148 84 87
f 155 90 91
f 133 63 67
f 134 55 56
f 157 76 75
f 124 87 83
f 109 72 68
f 105 49 48
f 111 79 78
f 114 96 93
f 117 102 98
f 125 91 88
f 152 67 65
f 137 56 57
f 158 75 77
f 123 83 86
f 143 66 64
f 127 54 53
f 135 73 74
f 147 85 84
f 150 92 89
f 153 71 70
f 140 100 99
f 138 94 95
f 159 80 81
f 122 51 52
f 107 116 109
f 103 108 105
f 104 106 111
f 110 112 114
f 113 115 117
f 118 119 125
f 154 156 152
f 141 139 137
f 162 160 158
f 121 120 123
f 142 149 143
f 129 132 127
f 130 128 135
f 144 145 147
f 146 148 150
f 151 155 153
f 131 133 140
f 136 134 138
f 161 157 159
f 126 124 122

