# https://github.com/mikedh/trimesh
v 5.28371060 6.04394791 2.93244879
v 5.61468761 4.73890813 2.98068954
v 4.99429608 5.97012019 2.92087162
v 5.32527310 4.66508088 2.96911234
v 5.16551293 5.31991654 2.96835577
v 5.44132685 5.39027527 2.97938904
v 5.13315285 5.45371724 2.92406980
v 5.40896677 5.52407546 2.93510287
v 5.47885032 4.66943374 2.96080205
v 5.47711158 4.67037693 2.99825865
v 5.13155272 6.03882477 2.91018261
v 5.12981398 6.03976796 2.94763921
v 5.45156909 5.39202427 2.95643501
v 5.29052494 6.01055018 2.95574278
v 5.29225532 6.00961160 2.91847339
v 5.26959633 6.07042286 2.91676757
v 5.26794711 6.07131747 2.95228561
v 5.60437336 4.77304794 3.00148719
v 5.60610374 4.77210934 2.96421756
v 5.61515408 4.70789096 2.96713366
v 5.61350485 4.70878606 3.00265165
v 5.15743582 5.31699294 2.94466921
v 5.00256056 5.93709236 2.94422370
v 5.00429093 5.93615376 2.90695407
v 4.99515944 6.00041565 2.90578961
v 4.99351022 6.00131075 2.94130760
v 5.31640898 4.69959011 2.98996787
v 5.31813936 4.69865153 2.95269848
v 5.34071719 4.63788423 2.95615566
v 5.33906797 4.63877886 2.99167369
v 5.30340481 5.35510385 2.97419269
v 5.33731637 4.67247321 2.99254281
v 5.00799192 5.97099636 2.94454301
v 5.59885647 4.73919056 3.00300505
v 5.26953248 6.03771368 2.95500498
v 5.27051738 5.49108612 2.92918462
v 5.33913182 4.67148802 2.95343628
v 5.00980783 5.97001115 2.90543622
v 5.60067238 4.73820535 2.96389826
v 5.27134793 6.03672850 2.91589844
v 5.48098238 4.65864985 2.97627456
v 5.12802253 6.05036688 2.92482971
v 5.29597234 6.00307939 2.93426597
v 5.28609029 6.03211717 2.95380997
v 5.28771138 6.03123783 2.91890114
v 5.27691635 6.06126881 2.91846606
v 5.27537174 6.06210694 2.95173446
v 5.60598520 4.78070060 2.97945132
v 5.61077355 4.75189521 3.00113345
v 5.61239418 4.75101586 2.96622464
v 5.61720376 4.71951843 2.96806388
v 5.61565916 4.72035655 3.00133228
v 5.00297815 5.92833854 2.92254573
v 4.99627012 5.95818585 2.94221662
v 4.99789074 5.95730650 2.90730780
v 4.99300514 5.98884515 2.90710899
v 4.99146053 5.98968328 2.94037739
v 5.31299101 4.70596023 2.96773104
v 5.32095292 4.67796388 2.98954012
v 5.32257401 4.67708453 2.95463130
v 5.33329256 4.64709476 2.95670679
v 5.33174795 4.64793289 2.98997520
v 5.01466598 5.89847770 2.94640345
v 5.30863533 4.73935783 2.98925029
v 5.17423644 5.32215091 2.96894821
v 5.32236675 4.71244860 2.99096815
v 5.01390159 5.92872429 2.94600844
v 5.29823890 5.97081516 2.95774689
v 5.59220827 4.81169533 3.00059396
v 5.43258052 5.38805292 2.97928269
v 5.59293537 4.78146861 3.00179139
v 5.28447020 5.99774478 2.95683164
v 5.01645603 5.89750638 2.90784730
v 5.31042540 4.73838654 2.95069438
v 5.14147595 5.45760665 2.92411449
v 5.32419410 4.71145692 2.95160962
v 5.01572893 5.92773309 2.90664987
v 5.30002896 5.96984387 2.91919097
v 5.59399831 4.81072402 2.96203781
v 5.39982003 5.52350866 2.93444874
v 5.59476271 4.78047741 2.96243282
v 5.28629755 5.99675310 2.91747311
v 5.60760447 4.70126865 2.96633509
v 5.35055045 4.63569586 2.95605239
v 5.35308552 4.65119496 2.95489419
v 5.59805979 4.71368653 2.96469371
v 5.48094302 4.66099512 2.96230134
v 5.60589873 4.70219445 3.00307939
v 5.34884423 4.63662168 2.99279670
v 5.35129758 4.65216542 2.99340441
v 5.59627185 4.71465653 3.00320397
v 5.47931419 4.66187859 2.99738543
v 5.25982007 6.07258004 2.91564455
v 5.00276557 6.00700725 2.90536188
v 5.01239245 5.99454517 2.90523729
v 5.25736671 6.05703628 2.91503686
v 5.12935011 6.04732312 2.91105583
v 5.25811385 6.07350584 2.95238887
v 5.00105983 6.00793305 2.94210617
v 5.01060451 5.99551517 2.94374755
v 5.25557878 6.05800675 2.95354708
v 5.12772128 6.04820658 2.94613992
v 5.30269889 5.97258860 2.95610059
v 5.30432178 5.97170796 2.92115210
v 5.59700321 4.81214939 2.99899626
v 5.59862564 4.81126923 2.96404775
v 5.27780717 6.05104769 2.95383237
v 5.44816908 5.39198610 2.97873780
v 5.28087476 6.02950075 2.95542402
v 5.27950960 6.05012347 2.91716101
v 5.41732928 5.51950066 2.93653235
v 5.28266113 6.02853180 2.91694459
v 5.26876051 6.07438203 2.93081801
v 5.27022087 6.05890167 2.91590405
v 5.25818236 6.07938043 2.91712105
v 5.26846231 6.05985540 2.95378099
v 5.25663589 6.08021969 2.95042723
v 5.61249970 4.73135762 3.00261463
v 5.60491371 4.75181826 3.00265359
v 5.61420214 4.73043340 2.96594326
v 5.60670008 4.75084887 2.96417442
v 5.61605621 4.70499673 2.98143728
v 5.61023451 4.71822928 2.96546204
v 5.60937531 4.69462984 2.96830843
v 5.60847596 4.71918351 3.00333917
v 5.60782885 4.69546863 3.00161463
v 5.01003866 5.89793247 2.94439351
v 5.01166109 5.89705231 2.90944499
v 5.30434251 4.73749374 2.98728916
v 5.30596541 4.73661311 2.95234066
v 4.99446216 5.97876830 2.94249799
v 5.15875600 5.31815884 2.96716055
v 5.00196422 5.95835283 2.94426684
v 4.99616459 5.97784409 2.90582663
v 5.12791619 5.44567340 2.92495510
v 5.00375059 5.95738344 2.90578768
v 4.99294325 6.00402282 2.91978463
v 5.00018834 5.99001819 2.90510208
v 5.00083545 6.01373308 2.90682663
v 4.99842979 5.99097242 2.94297921
v 4.99928899 6.01457186 2.94013283
v 5.32915470 4.65907824 2.99128026
v 5.32600316 4.68066990 2.99149667
v 5.33085713 4.65815403 2.95460889
v 5.32778954 4.67970096 2.95301724
v 5.34023895 4.63463802 2.97040410
v 5.34020199 4.64934630 2.95466027
v 5.35202840 4.62898202 2.95801404
v 5.33844343 4.65030003 2.99253720
v 5.35048194 4.62982128 2.99132020
v 5.33519103 4.71498995 2.99169300
v 5.02637477 5.93265034 2.94668200
v 5.58044432 4.77755269 3.00150346
v 5.27162806 5.99521310 2.95649270
v 5.46891005 4.70256862 2.99799298
v 5.13792924 6.00762318 2.94975161
v 5.33703624 4.71398861 2.95194856
v 5.02821998 5.93164901 2.90693780
v 5.58228953 4.77655137 2.96175927
v 5.27347327 5.99421175 2.91674827
v 5.47073506 4.70157853 2.95868965
v 5.13975424 6.00663309 2.91044828
f 1 47 44
f 1 44 43
f 1 43 45
f 1 45 46
f 1 46 47
f 2 49 52
f 6 72 70
f 12 102 99
f 11 96 95
f 8 79 81
f 4 62 59
f 4 59 58
f 4 58 60
f 4 60 61
f 4 61 62
f 5 66 65
f 3 54 57
f 7 73 77
f 9 85 86
f 10 92 88
f 12 101 98
f 6 69 68
f 2 50 48
f 8 82 78
f 11 97 93
f 6 71 69
f 12 100 101
f 11 94 97
f 8 80 82
f 2 51 50
f 10 90 89
f 5 63 64
f 3 55 53
f 7 76 74
f 9 87 84
f 10 91 90
f 5 67 63
f 3 56 55
f 7 75 76
f 9 83 87
f 6 68 72
f 2 48 49
f 8 78 79
f 11 93 96
f 12 98 102
f 10 88 91
f 5 65 67
f 3 57 56
f 7 77 75
f 9 86 83
f 5 64 66
f 3 53 54
f 7 74 73
f 9 84 85
f 10 89 92
f 6 70 71
f 12 99 100
f 11 95 94
f 8 81 80
f 2 52 51
f 35 109 116
f 18 105 108
f 19 111 106
f 40 114 112
f 42 117 115
f 34 125 119
f 33 152 156
f 25 137 139
f 36 158 160
f 20 123 120
f 32 143 149
f 23 127 132
f 24 135 128
f 37 147 145
f 41 150 148
f 34 153 155
f 33 140 133
f 25 138 134
f 36 159 157
f 20 122 124
f 17 107 47
f 14 103 44
f 13 104 43
f 15 110 45
f 16 113 46
f 18 118 49
f 35 154 72
f 42 141 102
f 40 162 96
f 19 121 79
f 30 142 62
f 27 129 59
f 22 130 58
f 28 144 60
f 29 146 61
f 32 151 66
f 23 131 54
f 24 136 73
f 37 161 85
f 41 126 92
f 35 116 101
f 18 108 69
f 19 106 50
f 40 112 82
f 42 115 97
f 34 119 71
f 33 156 100
f 25 139 94
f 36 160 80
f 20 120 51
f 32 149 90
f 23 132 63
f 24 128 55
f 37 145 76
f 41 148 87
f 34 155 91
f 33 133 67
f 25 134 56
f 36 157 75
f 20 124 83
f 14 109 68
f 13 105 48
f 15 111 78
f 16 114 93
f 17 117 98
f 21 125 88
f 31 152 65
f 26 137 57
f 38 158 77
f 39 123 86
f 27 143 64
f 22 127 53
f 28 135 74
f 29 147 84
f 30 150 89
f 31 153 70
f 26 140 99
f 38 138 95
f 39 159 81
f 21 122 52
f 14 107 109
f 13 103 105
f 15 104 111
f 16 110 114
f 17 113 117
f 21 118 125
f 31 154 152
f 26 141 137
f 38 162 158
f 39 121 123
f 27 142 143
f 22 129 127
f 28 130 135
f 29 144 147
f 30 146 150
f 31 151 153
f 26 131 140
f 38 136 138
f 39 161 159
f 21 126 122
f 14 44 107
f 13 43 103
f 15 45 104
f 16 46 110
f 17 47 113
f 21 52 118
f 31 70 154
f 26 99 141
f 38 95 162
f 39 81 121
f 27 59 142
f 22 58 129
f 28 60 130
f 29 61 144
f 30 62 146
f 31 65 151
f 26 57 131
f 38 77 136
f 39 86 161
f 21 88 126
f 17 98 116
f 14 68 108
f 13 48 106
f 15 78 112
f 16 93 115
f 18 69 119
f 35 101 156
f 42 97 139
f 40 82 160
f 19 50 120
f 30 89 149
f 27 64 132
f 22 53 128
f 28 74 145
f 29 84 148
f 32 90 155
f 23 63 133
f 24 55 134
f 37 76 157
f 41 87 124
f 35 72 109
f 18 49 105
f 19 79 111
f 40 96 114
f 42 102 117
f 34 91 125
f 33 67 152
f 25 56 137
f 36 75 158
f 20 83 123
f 32 66 143
f 23 54 127
f 24 73 135
f 37 85 147
f 41 92 150
f 34 71 153
f 33 100 140
f 25 94 138
f 36 80 159
f 20 51 122
f 17 116 107
f 14 108 103
f 13 106 104
f 15 112 110
f 16 115 113
f 18 119 118
f 35 156 154
f 42 139 141
f 40 160 162
f 19 120 121
f 30 149 142
f 27 132 129
f 22 128 130
f 28 145 144
f 29 148 146
f 32 155 151
f 23 133 131
f 24 134 136
f 37 157 161
f 41 124 126
f 107 44 47
f 103 43 44
f 104 45 43
f 110 46 45
f 113 47 46
f 118 52 49
f 154 70 72
f 141 99 102
f 162 95 96
f 121 81 79
f 142 59 62
f 129 58 59
f 130 60 58
f 144 61 60
f 146 62 61
f 151 65 66
f 131 57 54
f 136 77 73
f 161 86 85
f 126 88 92
f 116 98 101
f 108 68 69
f 106 48 50
f 112 78 82
f 115 93 97
f 119 69 71
f 156 101 100
f 139 97 94
f 160 82 80
f 120 50 51
f 149 89 90
f 132 64 63
f 128 53 55
f 145 74 76
f 148 84 87
f 155 90 91
f 133 63 67
f 134 55 56
f 157 76 75
f 124 87 83
f 109 72 68
f 105 49 48
f 111 79 78
f 114 96 93
f 117 102 98
f 125 91 88
f 152 67 65
f 137 56 57
f 158 75 77
f 123 83 86
f 143 66 64
f 127 54 53
f 135 73 74
f 147 85 84
f 150 92 89
f 153 71 70
f 140 100 99
f 138 94 95
f 159 80 81
f 122 51 52
f 107 116 109
f 103 108 105
f 104 106 111
f 110 112 114
f 113 115 117
f 118 119 125
f 154 156 152
f 141 139 137
f 162 160 158
f 121 120 123
f 142 149 143
f 129 132 127
f 130 128 135
f 144 145 147
f 146 148 150
f 151 155 153
f 131 133 140
f 136 134 138
f 161 157 159
f 126 124 122

