# https://github.com/mikedh/trimesh
v 2.98966995 3.66642092 1.64144007
v 2.65154085 4.90970505 1.63384705
v 3.28362459 3.74657263 1.67523885
v 2.94549574 4.98985677 1.66764589
v 3.10515746 4.36579274 1.69363077
v 2.82501649 4.28940776 1.66142031
v 3.14432913 4.23829706 1.65529732
v 2.86418792 4.16191160 1.62308685
v 2.79183390 4.98079027 1.63534333
v 2.78778582 4.97991701 1.67262273
v 3.14663619 3.67619999 1.64331072
v 3.14258811 3.67532673 1.68059007
v 2.81823373 4.28741477 1.63714065
v 2.97927100 3.69827775 1.66329864
v 2.98329898 3.69914668 1.62620532
v 3.00627164 3.64144297 1.62823055
v 3.00243304 3.64061467 1.66358071
v 2.65864062 4.87721998 1.65609857
v 2.66266861 4.87808915 1.61900523
v 2.65324674 4.93949842 1.62030297
v 2.64940791 4.93867061 1.65565310
v 3.11698117 4.36887304 1.67149050
v 3.27175340 3.77802785 1.69692816
v 3.27578138 3.77889678 1.65983486
v 3.28501410 3.71744638 1.66028018
v 3.28117527 3.71661857 1.69563044
v 2.95112303 4.95697032 1.68972807
v 2.95515100 4.95783901 1.65263479
v 2.93198897 5.01550232 1.65235268
v 2.92815037 5.01467403 1.68770286
v 2.96505251 4.32759302 1.67784445
v 2.92969909 4.98235689 1.68892183
v 3.26613975 3.74528052 1.69647696
v 2.66405572 4.90992473 1.65837815
v 3.00049638 3.67284835 1.66593333
v 3.00486263 4.19801833 1.63888605
v 2.93392563 4.98326865 1.65000013
v 3.27036629 3.74619228 1.65755525
v 2.66828225 4.91083649 1.61945645
v 3.00472293 3.67376011 1.62701157
v 2.78731403 4.99107426 1.65026685
v 3.14790088 3.66521401 1.65836427
v 2.97711987 3.70529494 1.64120744
v 2.98399042 3.67769892 1.66213979
v 2.98776355 3.67851285 1.62739600
v 2.99864680 3.65000358 1.62873638
v 2.99505121 3.64922821 1.66184752
v 2.66040794 4.86982933 1.63409531
v 2.65229160 4.89734009 1.65469120
v 2.65606448 4.89815425 1.61994728
v 2.65100613 4.92826138 1.62092975
v 2.64741052 4.92748601 1.65404082
v 3.27471059 3.78643797 1.67542436
v 3.27835754 3.75796298 1.69598609
v 3.28213042 3.75877691 1.66124220
v 3.28701149 3.72863099 1.66189257
v 3.28341589 3.72785562 1.69500365
v 2.95799841 4.95097236 1.66831222
v 2.94665846 4.97760415 1.68853739
v 2.95043158 4.97841832 1.65379359
v 2.93937080 5.00688878 1.65408588
v 2.93577521 5.00611342 1.68719695
v 3.25929923 3.81474126 1.69708395
v 2.95897727 4.91901049 1.69033986
v 3.09625923 4.36336784 1.69285262
v 2.94492559 4.94442639 1.68981367
v 3.26005629 3.78570549 1.69689030
v 2.97127783 3.73620738 1.66396729
v 2.67095587 4.84047663 1.65722333
v 2.83386246 4.29182107 1.66268235
v 2.67011174 4.86949397 1.65821569
v 2.98524266 3.71077306 1.66529225
v 3.26346614 3.81564037 1.65871006
v 2.96314419 4.91990961 1.65196610
v 3.13591522 4.23429524 1.65404501
v 2.94917935 4.94534419 1.65064118
v 3.26431028 3.78662327 1.65771768
v 2.97544474 3.73710651 1.62559353
v 2.67512278 4.84137575 1.61884945
v 2.87351820 4.16274847 1.62387475
v 2.67436573 4.87041127 1.61904312
v 2.98949642 3.71169060 1.62611972
v 2.66100339 4.94610213 1.62068234
v 2.92209024 5.01729158 1.65070205
v 2.91967334 5.00232034 1.64919921
v 2.67085562 4.93447598 1.62059016
v 2.78951162 4.98883063 1.63647463
v 2.65703214 4.94524523 1.65725284
v 2.91811899 5.01643516 1.68727251
v 2.91551117 5.00142278 1.68752725
v 2.66669346 4.93357843 1.65891833
v 2.78571975 4.98801238 1.67139275
v 3.01630303 3.63968185 1.62866089
v 3.27738987 3.71087178 1.65868062
v 3.26772855 3.72253857 1.65701513
v 3.01891083 3.65469445 1.62840612
v 3.14870225 3.66810438 1.64454061
v 3.01233177 3.63882542 1.66523141
v 3.27341862 3.71001488 1.69525107
v 3.26356639 3.72164079 1.69534325
v 3.01474868 3.65379665 1.66673419
v 3.14491039 3.66728637 1.67945877
v 2.96702840 3.73436267 1.66164523
v 2.97080548 3.73517747 1.62686191
v 2.66636455 4.83988881 1.65489356
v 2.67014187 4.84070361 1.62011023
v 2.99229672 3.65977481 1.66350983
v 2.81821001 4.28754604 1.65970733
v 2.98900917 3.68037768 1.66454619
v 2.99626012 3.66062991 1.62701182
v 2.85554130 4.16604029 1.62317483
v 2.99316810 3.68127485 1.62624888
v 3.00492942 3.63765717 1.64225244
v 3.00580423 3.65249267 1.62725026
v 3.01770961 3.63319972 1.63039377
v 3.00171050 3.65160971 1.66494820
v 3.01411001 3.63242310 1.66354257
v 2.65037174 4.91701655 1.65583147
v 2.65796810 4.89759973 1.65711235
v 2.65433539 4.91787119 1.61933362
v 2.66212702 4.89849691 1.61881505
v 2.65012878 4.94224218 1.63428496
v 2.65844299 4.92972334 1.61944988
v 2.65892783 4.95242329 1.62233695
v 2.65434925 4.92884038 1.65714787
v 2.65532824 4.95164667 1.65548580
v 3.26428014 3.81541339 1.69582317
v 3.26805746 3.81622818 1.66103984
v 2.96361652 4.92093977 1.68907148
v 2.96739361 4.92175456 1.65428815
v 3.28008662 3.73824581 1.69659977
v 3.11216370 4.36769726 1.69350599
v 3.27229499 3.75762033 1.69711833
v 3.28405027 3.73910068 1.66010190
v 3.14949475 4.24619152 1.65697350
v 3.27645390 3.75851751 1.65882103
v 3.28507374 3.71404314 1.67446339
v 3.28007276 3.72727662 1.65878553
v 3.27909378 3.70447033 1.66044760
v 3.27597903 3.72639367 1.69648353
v 3.27549418 3.70369394 1.69359643
v 2.93816190 4.99548708 1.68892152
v 2.94125392 4.97484238 1.68968443
v 2.94212529 4.99634219 1.65242363
v 2.94541284 4.97573955 1.65138714
v 2.93027287 5.01862815 1.66649596
v 2.93271152 5.00450729 1.65098521
v 2.92031201 5.02369391 1.65239083
v 2.92861778 5.00362434 1.68868320
v 2.91671240 5.02291728 1.68553968
v 2.93186898 4.94157579 1.68852340
v 3.24735837 3.78153606 1.69560798
v 2.68276808 4.87365424 1.65988188
v 2.99825746 3.71361450 1.66696646
v 2.79602066 4.94924948 1.67372888
v 3.13415353 3.70595101 1.68132195
v 2.93616455 4.94250227 1.64896695
v 3.25165393 3.78246277 1.65605152
v 2.68706364 4.87458117 1.62032540
v 3.00255302 3.71454120 1.62741000
v 2.80026848 4.95016599 1.63461146
v 3.13840135 3.70686728 1.64220453
f 1 47 44
f 1 44 43
f 1 43 45
f 1 45 46
f 1 46 47
f 2 49 52
f 6 72 70
f 12 102 99
f 11 96 95
f 8 79 81
f 4 62 59
f 4 59 58
f 4 58 60
f 4 60 61
f 4 61 62
f 5 66 65
f 3 54 57
f 7 73 77
f 9 85 86
f 10 92 88
f 12 101 98
f 6 69 68
f 2 50 48
f 8 82 78
f 11 97 93
f 6 71 69
f 12 100 101
f 11 94 97
f 8 80 82
f 2 51 50
f 10 90 89
f 5 63 64
f 3 55 53
f 7 76 74
f 9 87 84
f 10 91 90
f 5 67 63
f 3 56 55
f 7 75 76
f 9 83 87
f 6 68 72
f 2 48 49
f 8 78 79
f 11 93 96
f 12 98 102
f 10 88 91
f 5 65 67
f 3 57 56
f 7 77 75
f 9 86 83
f 5 64 66
f 3 53 54
f 7 74 73
f 9 84 85
f 10 89 92
f 6 70 71
f 12 99 100
f 11 95 94
f 8 81 80
f 2 52 51
f 35 109 116
f 18 105 108
f 19 111 106
f 40 114 112
f 42 117 115
f 34 125 119
f 33 152 156
f 25 137 139
f 36 158 160
f 20 123 120
f 32 143 149
f 23 127 132
f 24 135 128
f 37 147 145
f 41 150 148
f 34 153 155
f 33 140 133
f 25 138 134
f 36 159 157
f 20 122 124
f 17 107 47
f 14 103 44
f 13 104 43
f 15 110 45
f 16 113 46
f 18 118 49
f 35 154 72
f 42 141 102
f 40 162 96
f 19 121 79
f 30 142 62
f 27 129 59
f 22 130 58
f 28 144 60
f 29 146 61
f 32 151 66
f 23 131 54
f 24 136 73
f 37 161 85
f 41 126 92
f 35 116 101
f 18 108 69
f 19 106 50
f 40 112 82
f 42 115 97
f 34 119 71
f 33 156 100
f 25 139 94
f 36 160 80
f 20 120 51
f 32 149 90
f 23 132 63
f 24 128 55
f 37 145 76
f 41 148 87
f 34 155 91
f 33 133 67
f 25 134 56
f 36 157 75
f 20 124 83
f 14 109 68
f 13 105 48
f 15 111 78
f 16 114 93
f 17 117 98
f 21 125 88
f 31 152 65
f 26 137 57
f 38 158 77
f 39 123 86
f 27 143 64
f 22 127 53
f 28 135 74
f 29 147 84
f 30 150 89
f 31 153 70
f 26 140 99
f 38 138 95
f 39 159 81
f 21 122 52
f 14 107 109
f 13 103 105
f 15 104 111
f 16 110 114
f 17 113 117
f 21 118 125
f 31 154 152
f 26 141 137
f 38 162 158
f 39 121 123
f 27 142 143
f 22 129 127
f 28 130 135
f 29 144 147
f 30 146 150
f 31 151 153
f 26 131 140
f 38 136 138
f 39 161 159
f 21 126 122
f 14 44 107
f 13 43 103
f 15 45 104
f 16 46 110
f 17 47 113
f 21 52 118
f 31 70 154
f 26 99 141
f 38 95 162
f 39 81 121
f 27 59 142
f 22 58 129
f 28 60 130
f 29 61 144
f 30 62 146
f 31 65 151
f 26 57 131
f 38 77 136
f 39 86 161
f 21 88 126
f 17 98 116
f 14 68 108
f 13 48 106
f 15 78 112
f 16 93 115
f 18 69 119
f 35 101 156
f 42 97 139
f 40 82 160
f 19 50 120
f 30 89 149
f 27 64 132
f 22 53 128
f 28 74 145
f 29 84 148
f 32 90 155
f 23 63 133
f 24 55 134
f 37 76 157
f 41 87 124
f 35 72 109
f 18 49 105
f 19 79 111
f 40 96 114
f 42 102 117
f 34 91 125
f 33 67 152
f 25 56 137
f 36 75 158
f 20 83 123
f 32 66 143
f 23 54 127
f 24 73 135
f 37 85 147
f 41 92 150
f 34 71 153
f 33 100 140
f 25 94 138
f 36 80 159
f 20 51 122
f 17 116 107
f 14 108 103
f 13 106 104
f 15 112 110
f 16 115 113
f 18 119 118
f 35 156 154
f 42 139 141
f 40 160 162
f 19 120 121
f 30 149 142
f 27 132 129
f 22 128 130
f 28 145 144
f 29 148 146
f 32 155 151
f 23 133 131
f 24 134 136
f 37 157 161
f 41 124 126
f 107 44 47
f 103 43 44
f 104 45 43
f 110 46 45
f 113 47 46
f 118 52 49
f 154 70 72
f 141 99 102
f 162 95 96
f 121 81 79
f 142 59 62
f 129 58 59
f 130 60 58
f 144 61 60
f 146 62 61
f 151 65 66
f 131 57 54
f 136 77 73
f 161 86 85
f 126 88 92
f 116 98 101
f 108 68 69
f 106 48 50
f 112 78 82
f 115 93 97
f 119 69 71
f 156 101 100
f 139 97 94
f 160 82 80
f 120 50 51
f 149 89 90
f 132 64 63
f 128 53 55
f 145 74 76
f 148 84 87
f 155 90 91
f 133 63 67
f 134 55 56
f 157 76 75
f 124 87 83
f 109 72 68
f 105 49 48
f 111 79 78
f 114 96 93
f 117 102 98
f 125 91 88
f 152 67 65
f 137 56 57
f 158 75 77
f 123 83 86
f 143 66 64
f 127 54 53
f 135 73 74
f 147 85 84
f 150 92 89
f 153 71 70
f 140 100 99
f 138 94 95
f 159 80 81
f 122 51 52
f 107 116 109
f 103 108 105
f 104 106 111
f 110 112 114
f 113 115 117
f 118 119 125
f 154 156 152
f 141 139 137
f 162 160 158
f 121 120 123
f 142 149 143
f 129 132 127
f 130 128 135
f 144 145 147
f 146 148 150
f 151 155 153
f 131 133 140
f 136 134 138
f 161 157 159
f 126 124 122

