# https://github.com/mikedh/trimesh
v 4.47164240 4.31604596 2.33290340
v 4.15317920 5.47451507 2.31990637
v 4.46831138 4.31642216 2.44807519
v 4.14984817 5.47489175 2.43507814
v 4.28687110 4.88951456 2.43824602
v 4.29004559 4.88915578 2.32848655
v 4.35769745 4.78030185 2.44065137
v 4.36087146 4.77994307 2.33089193
v 4.15841712 5.50732659 2.37758522
v 4.12226651 5.49737723 2.37657226
v 4.49258397 4.29173267 2.39122325
v 4.45643334 4.28178332 2.39021029
v 4.31265826 4.89533784 2.32547222
v 4.44208823 4.34015931 2.33225855
v 4.47805876 4.35005903 2.33326648
v 4.49239083 4.29434126 2.33655712
v 4.45811077 4.28490718 2.33559658
v 4.14010611 5.43867634 2.31993410
v 4.17607618 5.44857605 2.32094203
v 4.15989824 5.50384566 2.32298746
v 4.12561818 5.49441158 2.32202692
v 4.30927319 4.89572086 2.44252171
v 4.43877429 4.34053386 2.44685347
v 4.47474435 4.35043357 2.44786141
v 4.48923228 4.29469833 2.44576858
v 4.45495222 4.28526424 2.44480805
v 4.13679170 5.43905088 2.43452903
v 4.17276223 5.44895059 2.43553695
v 4.15673969 5.50420273 2.43219892
v 4.12245963 5.49476864 2.43123839
v 4.28814929 4.88924985 2.38335765
v 4.12861164 5.46587360 2.42894256
v 4.44548488 4.31318859 2.44187473
v 4.13162193 5.46553380 2.32486315
v 4.44849517 4.31284878 2.33779531
v 4.36012974 4.77825712 2.38580214
v 4.16635529 5.47626113 2.43000019
v 4.48322854 4.32357611 2.44293237
v 4.16936558 5.47592132 2.32592078
v 4.48623882 4.32323630 2.33885295
v 4.14115858 5.51323540 2.37706684
v 4.48077335 4.27782330 2.39092706
v 4.46136715 4.35267419 2.33177374
v 4.44845077 4.32151036 2.33213408
v 4.48214282 4.33078295 2.33307806
v 4.48882437 4.30326010 2.33453818
v 4.45671531 4.29442323 2.33363837
v 4.16307491 5.43776654 2.31959979
v 4.13604344 5.45794965 2.31938410
v 4.16973549 5.46722226 2.32032820
v 4.16140280 5.49431719 2.32117543
v 4.12929376 5.48548032 2.32027574
v 4.45799483 4.35305549 2.44836995
v 4.44511497 4.32188764 2.44746730
v 4.47880702 4.33116025 2.44841141
v 4.48555670 4.30362958 2.44751976
v 4.45344766 4.29479272 2.44662007
v 4.15970306 5.43814737 2.43619614
v 4.13270765 5.45832695 2.43471744
v 4.16639969 5.46759955 2.43566144
v 4.15813515 5.49468668 2.43415713
v 4.12602610 5.48584981 2.43325732
v 4.42861478 4.37514962 2.44557180
v 4.14575959 5.40408747 2.43402801
v 4.28673728 4.88943834 2.43476333
v 4.13847346 5.42934126 2.43114513
v 4.43527612 4.34966638 2.44325820
v 4.43187838 4.37478097 2.33272475
v 4.14902320 5.40371882 2.32118095
v 4.28971034 4.88910232 2.33195603
v 4.14158756 5.42898901 2.32347293
v 4.43839022 4.34931412 2.33558588
v 4.46582726 4.38539109 2.44661456
v 4.18297208 5.41432894 2.43507076
v 4.35843944 4.77887545 2.43719847
v 4.17646025 5.43979579 2.43220963
v 4.47326290 4.36012089 2.44432257
v 4.46909087 4.38502243 2.33376750
v 4.18623568 5.41396028 2.32222370
v 4.36141248 4.77853943 2.33439106
v 4.17957435 5.43944352 2.32453731
v 4.47637700 4.35976864 2.33665037
v 4.15931834 5.50791677 2.32641909
v 4.15636026 5.50825148 2.42871308
v 4.16069351 5.49606720 2.42647271
v 4.16351282 5.49574881 2.32898564
v 4.15520585 5.51452861 2.37746882
v 4.12385510 5.49815683 2.32542530
v 4.12089654 5.49849108 2.42771946
v 4.12352545 5.48583827 2.42543123
v 4.12634477 5.48551988 2.32794416
v 4.12134471 5.50520973 2.37652005
v 4.49395394 4.29061882 2.34007604
v 4.49099538 4.29095307 2.44237020
v 4.48850570 4.30359002 2.43985134
v 4.49132501 4.30327164 2.34236428
v 4.49350575 4.28390017 2.39127545
v 4.45849020 4.28085842 2.33908242
v 4.45553212 4.28119314 2.44137641
v 4.45133764 4.29336109 2.43880987
v 4.45415695 4.29304270 2.34132279
v 4.45964461 4.27458130 2.39032668
v 4.43383255 4.37466857 2.33097183
v 4.46756329 4.38395131 2.33191707
v 4.15065539 5.40477749 2.31941488
v 4.18438613 5.41406070 2.32036008
v 4.45237859 4.30376310 2.33359519
v 4.29101521 4.88939195 2.32580558
v 4.44635521 4.32217066 2.33424382
v 4.48777163 4.31350374 2.33458692
v 4.35851343 4.78531060 2.32809800
v 4.48349318 4.33239140 2.33528450
v 4.47957882 4.28754039 2.33593391
v 4.49083711 4.30435959 2.33735652
v 4.49393645 4.28419672 2.34003835
v 4.45427999 4.29429889 2.33633222
v 4.46179110 4.27535020 2.33913754
v 4.13034008 5.47523765 2.32045214
v 4.13456721 5.45635579 2.32151921
v 4.16573312 5.48497831 2.32144400
v 4.17170565 5.46657654 2.32255988
v 4.14541341 5.50312858 2.32229605
v 4.16367833 5.49445976 2.32400461
v 4.15602151 5.51342513 2.32624745
v 4.12712121 5.48439905 2.32298019
v 4.12387615 5.50457815 2.32534668
v 4.43046433 4.37504920 2.44743542
v 4.46419507 4.38433242 2.44838063
v 4.14728718 5.40515859 2.43587844
v 4.18101792 5.41444133 2.43682368
v 4.44911734 4.30413159 2.44635150
v 4.28768416 4.88976858 2.44097686
v 4.44314482 4.32253337 2.44523564
v 4.48451038 4.31387225 2.44734336
v 4.35518238 4.78568723 2.44326915
v 4.48028326 4.33275411 2.44627630
v 4.47640437 4.28789880 2.44569471
v 4.48772926 4.30471085 2.44481531
v 4.49097431 4.28453176 2.44244883
v 4.45117213 4.29465014 2.44379090
v 4.45882897 4.27568478 2.44154805
v 4.12707885 5.47560617 2.43320859
v 4.13135728 5.45671850 2.43251100
v 4.16247188 5.48534682 2.43420032
v 4.16849525 5.46693924 2.43355168
v 4.14223896 5.50348746 2.43205683
v 4.16057048 5.49481101 2.43146328
v 4.15305936 5.51375970 2.42865797
v 4.12401336 5.48475031 2.43043898
v 4.12091402 5.50491318 2.42775716
v 4.13826415 5.42988810 2.42609588
v 4.43540487 4.34898384 2.43822280
v 4.14108671 5.42956888 2.32849789
v 4.43822743 4.34866509 2.34062476
v 4.12922509 5.46857665 2.37686768
v 4.44769209 4.31009367 2.38986488
v 4.17662304 5.44044481 2.42717075
v 4.47376376 4.35954103 2.43929762
v 4.17944560 5.44012606 2.32957271
v 4.47658632 4.35922180 2.34169963
v 4.16715838 5.47901623 2.37793062
v 4.48562537 4.32053325 2.39092783
f 1 47 44
f 1 44 43
f 1 43 45
f 1 45 46
f 1 46 47
f 2 49 52
f 6 72 70
f 12 102 99
f 11 96 95
f 8 79 81
f 4 62 59
f 4 59 58
f 4 58 60
f 4 60 61
f 4 61 62
f 5 66 65
f 3 54 57
f 7 73 77
f 9 85 86
f 10 92 88
f 12 101 98
f 6 69 68
f 2 50 48
f 8 82 78
f 11 97 93
f 6 71 69
f 12 100 101
f 11 94 97
f 8 80 82
f 2 51 50
f 10 90 89
f 5 63 64
f 3 55 53
f 7 76 74
f 9 87 84
f 10 91 90
f 5 67 63
f 3 56 55
f 7 75 76
f 9 83 87
f 6 68 72
f 2 48 49
f 8 78 79
f 11 93 96
f 12 98 102
f 10 88 91
f 5 65 67
f 3 57 56
f 7 77 75
f 9 86 83
f 5 64 66
f 3 53 54
f 7 74 73
f 9 84 85
f 10 89 92
f 6 70 71
f 12 99 100
f 11 95 94
f 8 81 80
f 2 52 51
f 35 109 116
f 18 105 108
f 19 111 106
f 40 114 112
f 42 117 115
f 34 125 119
f 33 152 156
f 25 137 139
f 36 158 160
f 20 123 120
f 32 143 149
f 23 127 132
f 24 135 128
f 37 147 145
f 41 150 148
f 34 153 155
f 33 140 133
f 25 138 134
f 36 159 157
f 20 122 124
f 17 107 47
f 14 103 44
f 13 104 43
f 15 110 45
f 16 113 46
f 18 118 49
f 35 154 72
f 42 141 102
f 40 162 96
f 19 121 79
f 30 142 62
f 27 129 59
f 22 130 58
f 28 144 60
f 29 146 61
f 32 151 66
f 23 131 54
f 24 136 73
f 37 161 85
f 41 126 92
f 35 116 101
f 18 108 69
f 19 106 50
f 40 112 82
f 42 115 97
f 34 119 71
f 33 156 100
f 25 139 94
f 36 160 80
f 20 120 51
f 32 149 90
f 23 132 63
f 24 128 55
f 37 145 76
f 41 148 87
f 34 155 91
f 33 133 67
f 25 134 56
f 36 157 75
f 20 124 83
f 14 109 68
f 13 105 48
f 15 111 78
f 16 114 93
f 17 117 98
f 21 125 88
f 31 152 65
f 26 137 57
f 38 158 77
f 39 123 86
f 27 143 64
f 22 127 53
f 28 135 74
f 29 147 84
f 30 150 89
f 31 153 70
f 26 140 99
f 38 138 95
f 39 159 81
f 21 122 52
f 14 107 109
f 13 103 105
f 15 104 111
f 16 110 114
f 17 113 117
f 21 118 125
f 31 154 152
f 26 141 137
f 38 162 158
f 39 121 123
f 27 142 143
f 22 129 127
f 28 130 135
f 29 144 147
f 30 146 150
f 31 151 153
f 26 131 140
f 38 136 138
f 39 161 159
f 21 126 122
f 14 44 107
f 13 43 103
f 15 45 104
f 16 46 110
f 17 47 113
f 21 52 118
f 31 70 154
f 26 99 141
f 38 95 162
f 39 81 121
f 27 59 142
f 22 58 129
f 28 60 130
f 29 61 144
f 30 62 146
f 31 65 151
f 26 57 131
f 38 77 136
f 39 86 161
f 21 88 126
f 17 98 116
f 14 68 108
f 13 48 106
f 15 78 112
f 16 93 115
f 18 69 119
f 35 101 156
f 42 97 139
f 40 82 160
f 19 50 120
f 30 89 149
f 27 64 132
f 22 53 128
f 28 74 145
f 29 84 148
f 32 90 155
f 23 63 133
f 24 55 134
f 37 76 157
f 41 87 124
f 35 72 109
f 18 49 105
f 19 79 111
f 40 96 114
f 42 102 117
f 34 91 125
f 33 67 152
f 25 56 137
f 36 75 158
f 20 83 123
f 32 66 143
f 23 54 127
f 24 73 135
f 37 85 147
f 41 92 150
f 34 71 153
f 33 100 140
f 25 94 138
f 36 80 159
f 20 51 122
f 17 116 107
f 14 108 103
f 13 106 104
f 15 112 110
f 16 115 113
f 18 119 118
f 35 156 154
f 42 139 141
f 40 160 162
f 19 120 121
f 30 149 142
f 27 132 129
f 22 128 130
f 28 145 144
f 29 148 146
f 32 155 151
f 23 133 131
f 24 134 136
f 37 157 161
f 41 124 126
f 107 44 47
f 103 43 44
f 104 45 43
f 110 46 45
f 113 47 46
f 118 52 49
f 154 70 72
f 141 99 102
f 162 95 96
f 121 81 79
f 142 59 62
f 129 58 59
f 130 60 58
f 144 61 60
f 146 62 61
f 151 65 66
f 131 57 54
f 136 77 73
f 161 86 85
f 126 88 92
f 116 98 101
f 108 68 69
f 106 48 50
f 112 78 82
f 115 93 97
f 119 69 71
f 156 101 100
f 139 97 94
f 160 82 80
f 120 50 51
f 149 89 90
f 132 64 63
f 128 53 55
f 145 74 76
f 148 84 87
f 155 90 91
f 133 63 67
f 134 55 56
f 157 76 75
f 124 87 83
f 109 72 68
f 105 49 48
f 111 79 78
f 114 96 93
f 117 102 98
f 125 91 88
f 152 67 65
f 137 56 57
f 158 75 77
f 123 83 86
f 143 66 64
f 127 54 53
f 135 73 74
f 147 85 84
f 150 92 89
f 153 71 70
f 140 100 99
f 138 94 95
f 159 80 81
f 122 51 52
f 107 116 109
f 103 108 105
f 104 106 111
f 110 112 114
f 113 115 117
f 118 119 125
f 154 156 152
f 141 139 137
f 162 160 158
f 121 120 123
f 142 149 143
f 129 132 127
f 130 128 135
f 144 145 147
f 146 148 150
f 151 155 153
f 131 133 140
f 136 134 138
f 161 157 159
f 126 124 122

