# https://github.com/mikedh/trimesh
v 0.20491739 2.33266578 0.26278293
v -0.12529465 3.66898147 0.22974869
v 0.46169506 2.39557199 0.24073361
v 0.13148302 3.73188791 0.20769929
v 0.29228940 3.06324973 0.24777178
v 0.04757845 3.00329953 0.26878501
v 0.32344439 2.92353014 0.21197299
v 0.07873342 2.86358019 0.23298614
v -0.00619504 3.73272075 0.20265733
v -0.00338281 3.73433954 0.24002550
v 0.34029976 2.33051141 0.23732051
v 0.34311197 2.33213019 0.27468868
v 0.03770102 3.00030096 0.24621759
v 0.19867342 2.36835539 0.28389558
v 0.19587524 2.36674498 0.24671402
v 0.21776016 2.30423997 0.24865474
v 0.22042686 2.30577474 0.28408908
v -0.11444966 3.63551494 0.25257089
v -0.11724787 3.63390429 0.21538935
v -0.12699898 3.69942539 0.21416521
v -0.12433231 3.70096015 0.24959951
v 0.29866507 3.06423288 0.22380875
v 0.45416482 2.43094666 0.26195666
v 0.45136661 2.42933602 0.22477511
v 0.46124925 2.36389080 0.22774646
v 0.46391593 2.36542556 0.26318080
v 0.14104171 3.69810597 0.23063199
v 0.13824352 3.69649556 0.19345042
v 0.11649009 3.75907621 0.19325694
v 0.11915679 3.76061098 0.22869127
v 0.16995799 3.03328849 0.25859805
v 0.12166833 3.72651586 0.23178267
v 0.45023153 2.39687268 0.26465199
v -0.11037848 3.66966812 0.25170838
v 0.21818473 2.34002518 0.28457771
v 0.20162089 2.89129114 0.22221551
v 0.11873221 3.72482576 0.19276830
v 0.44729542 2.39518282 0.22563760
v -0.11331459 3.66797826 0.21269402
v 0.21524861 2.33833509 0.24556333
v -0.00788892 3.74480212 0.21739903
v 0.34425502 2.31973172 0.25262738
v 0.19288798 2.37460730 0.26209052
v 0.20316635 2.34623073 0.28332943
v 0.20054539 2.34472212 0.24850294
v 0.21101271 2.31389839 0.24987483
v 0.21351051 2.31533623 0.28306475
v -0.11640839 3.62628064 0.23114860
v -0.12076621 3.65713429 0.25092335
v -0.12338714 3.65562568 0.21609686
v -0.12848819 3.68780482 0.21591133
v -0.12599036 3.68924241 0.24910121
v 0.45284151 2.43829168 0.23976841
v 0.46030408 2.40922527 0.26124915
v 0.45768316 2.40771666 0.22642266
v 0.46290731 2.37560854 0.22824481
v 0.46540512 2.37704614 0.26143467
v 0.14354515 3.68996503 0.20882655
v 0.13637156 3.72012882 0.22884308
v 0.13375059 3.71862021 0.19401659
v 0.12340644 3.74951472 0.19428126
v 0.12590423 3.75095255 0.22747118
v 0.44234826 2.47062753 0.26177372
v 0.14905812 3.65752615 0.23243312
v 0.28455764 3.06136175 0.24867975
v 0.13608852 3.68539337 0.23260539
v 0.44384084 2.43996855 0.26339278
v 0.19075362 2.40899084 0.28337805
v -0.10253652 3.59588970 0.25403740
v 0.05534670 3.00520874 0.26836200
v -0.10396886 3.62658324 0.25321897
v 0.20378347 2.38115842 0.28400637
v 0.43945346 2.46896125 0.22330863
v 0.14616333 3.65586010 0.19396795
v 0.31609796 2.91991401 0.21243817
v 0.13313348 3.68369253 0.19333965
v 0.44088579 2.43826771 0.22412704
v 0.18785883 2.40732479 0.24491289
v -0.10543131 3.59422342 0.21557230
v 0.08688700 2.86376123 0.23212035
v -0.10692389 3.62488240 0.21395323
v 0.20082842 2.37945758 0.24474063
v -0.12044459 3.70578316 0.21278034
v 0.10762208 3.76165563 0.19319638
v 0.10573456 3.74598899 0.19312949
v -0.11161464 3.69274203 0.21179315
v -0.00824875 3.74144353 0.20362645
v -0.11768583 3.70737108 0.24943784
v 0.11038083 3.76324354 0.22985392
v 0.10862590 3.74765326 0.23154884
v -0.10872328 3.69440629 0.25021249
v -0.00561463 3.74295981 0.23862766
v 0.22653611 2.30160740 0.24749208
v 0.45460277 2.35747987 0.22790813
v 0.44564022 2.37044465 0.22713353
v 0.22829104 2.31719769 0.24579718
v 0.34253158 2.32189115 0.23871834
v 0.22929487 2.30319531 0.28414963
v 0.45736154 2.35906778 0.26456568
v 0.44853158 2.37210891 0.26555286
v 0.23118239 2.31886195 0.28421651
v 0.34516570 2.32340741 0.27371956
v 0.18675354 2.40724993 0.28194140
v 0.18412962 2.40573956 0.24707529
v -0.10687045 3.59549953 0.25256739
v -0.10949441 3.59398915 0.21770128
v 0.21109836 2.32676570 0.28446146
v 0.04147635 3.00178177 0.26838191
v 0.20781895 2.34879364 0.28466267
v 0.20834507 2.32518103 0.24787660
v 0.07116761 2.86862656 0.23426498
v 0.20492992 2.34713093 0.24627419
v 0.21907720 2.30119251 0.26291017
v 0.21685998 2.31585916 0.24703368
v 0.22823561 2.29476934 0.24938826
v 0.21970377 2.31749606 0.28482133
v 0.23073625 2.29620855 0.28261598
v -0.12282062 3.67808297 0.25105632
v -0.11547108 3.65709696 0.25232089
v -0.12557394 3.67649806 0.21447152
v -0.11836007 3.65543423 0.21393244
v -0.12741605 3.70339564 0.22824715
v -0.12236806 3.68866120 0.21309745
v -0.12214554 3.71270624 0.21433631
v -0.11952427 3.69029810 0.25088506
v -0.11964493 3.71414546 0.24756400
v 0.44641136 2.47086179 0.25964474
v 0.44378740 2.46935142 0.22477863
v 0.15278733 3.65911139 0.23027073
v 0.15016340 3.65760101 0.19540461
v 0.46249088 2.38835288 0.26287449
v 0.29825286 3.06468775 0.24633265
v 0.45527701 2.40941671 0.26341357
v 0.45973757 2.38676797 0.22628966
v 0.32794412 2.93153253 0.21221571
v 0.45238802 2.40775399 0.22502516
v 0.46379096 2.36114339 0.24189669
v 0.45644120 2.37455284 0.22646091
v 0.45656187 2.35070549 0.22978199
v 0.45928500 2.37618974 0.26424857
v 0.45906249 2.35214471 0.26300970
v 0.12857187 3.73966992 0.22946940
v 0.13198702 3.71772002 0.23107182
v 0.12581859 3.73808524 0.19288456
v 0.12909800 3.71605730 0.19268334
v 0.11729775 3.76334653 0.20723367
v 0.11721317 3.74735490 0.19252468
v 0.10618070 3.76864239 0.19473003
v 0.12005697 3.74899179 0.23031233
v 0.10868133 3.77008161 0.22795774
v 0.12469744 3.68335927 0.23374460
v 0.43280004 2.43651689 0.26456707
v -0.09289912 3.63005165 0.25242951
v 0.21520349 2.38320926 0.28325200
v 0.00482598 3.70144047 0.24176098
v 0.33504187 2.36510901 0.27479561
v 0.12171345 3.68164169 0.19409402
v 0.42981606 2.43479930 0.22491648
v -0.09588309 3.62833407 0.21277895
v 0.21221950 2.38149167 0.24360141
v 0.00187508 3.69974193 0.20255040
v 0.33209099 2.36341048 0.23558503
f 1 47 44
f 1 44 43
f 1 43 45
f 1 45 46
f 1 46 47
f 2 49 52
f 6 72 70
f 12 102 99
f 11 96 95
f 8 79 81
f 4 62 59
f 4 59 58
f 4 58 60
f 4 60 61
f 4 61 62
f 5 66 65
f 3 54 57
f 7 73 77
f 9 85 86
f 10 92 88
f 12 101 98
f 6 69 68
f 2 50 48
f 8 82 78
f 11 97 93
f 6 71 69
f 12 100 101
f 11 94 97
f 8 80 82
f 2 51 50
f 10 90 89
f 5 63 64
f 3 55 53
f 7 76 74
f 9 87 84
f 10 91 90
f 5 67 63
f 3 56 55
f 7 75 76
f 9 83 87
f 6 68 72
f 2 48 49
f 8 78 79
f 11 93 96
f 12 98 102
f 10 88 91
f 5 65 67
f 3 57 56
f 7 77 75
f 9 86 83
f 5 64 66
f 3 53 54
f 7 74 73
f 9 84 85
f 10 89 92
f 6 70 71
f 12 99 100
f 11 95 94
f 8 81 80
f 2 52 51
f 35 109 116
f 18 105 108
f 19 111 106
f 40 114 112
f 42 117 115
f 34 125 119
f 33 152 156
f 25 137 139
f 36 158 160
f 20 123 120
f 32 143 149
f 23 127 132
f 24 135 128
f 37 147 145
f 41 150 148
f 34 153 155
f 33 140 133
f 25 138 134
f 36 159 157
f 20 122 124
f 17 107 47
f 14 103 44
f 13 104 43
f 15 110 45
f 16 113 46
f 18 118 49
f 35 154 72
f 42 141 102
f 40 162 96
f 19 121 79
f 30 142 62
f 27 129 59
f 22 130 58
f 28 144 60
f 29 146 61
f 32 151 66
f 23 131 54
f 24 136 73
f 37 161 85
f 41 126 92
f 35 116 101
f 18 108 69
f 19 106 50
f 40 112 82
f 42 115 97
f 34 119 71
f 33 156 100
f 25 139 94
f 36 160 80
f 20 120 51
f 32 149 90
f 23 132 63
f 24 128 55
f 37 145 76
f 41 148 87
f 34 155 91
f 33 133 67
f 25 134 56
f 36 157 75
f 20 124 83
f 14 109 68
f 13 105 48
f 15 111 78
f 16 114 93
f 17 117 98
f 21 125 88
f 31 152 65
f 26 137 57
f 38 158 77
f 39 123 86
f 27 143 64
f 22 127 53
f 28 135 74
f 29 147 84
f 30 150 89
f 31 153 70
f 26 140 99
f 38 138 95
f 39 159 81
f 21 122 52
f 14 107 109
f 13 103 105
f 15 104 111
f 16 110 114
f 17 113 117
f 21 118 125
f 31 154 152
f 26 141 137
f 38 162 158
f 39 121 123
f 27 142 143
f 22 129 127
f 28 130 135
f 29 144 147
f 30 146 150
f 31 151 153
f 26 131 140
f 38 136 138
f 39 161 159
f 21 126 122
f 14 44 107
f 13 43 103
f 15 45 104
f 16 46 110
f 17 47 113
f 21 52 118
f 31 70 154
f 26 99 141
f 38 95 162
f 39 81 121
f 27 59 142
f 22 58 129
f 28 60 130
f 29 61 144
f 30 62 146
f 31 65 151
f 26 57 131
f 38 77 136
f 39 86 161
f 21 88 126
f 17 98 116
f 14 68 108
f 13 48 106
f 15 78 112
f 16 93 115
f 18 69 119
f 35 101 156
f 42 97 139
f 40 82 160
f 19 50 120
f 30 89 149
f 27 64 132
f 22 53 128
f 28 74 145
f 29 84 148
f 32 90 155
f 23 63 133
f 24 55 134
f 37 76 157
f 41 87 124
f 35 72 109
f 18 49 105
f 19 79 111
f 40 96 114
f 42 102 117
f 34 91 125
f 33 67 152
f 25 56 137
f 36 75 158
f 20 83 123
f 32 66 143
f 23 54 127
f 24 73 135
f 37 85 147
f 41 92 150
f 34 71 153
f 33 100 140
f 25 94 138
f 36 80 159
f 20 51 122
f 17 116 107
f 14 108 103
f 13 106 104
f 15 112 110
f 16 115 113
f 18 119 118
f 35 156 154
f 42 139 141
f 40 160 162
f 19 120 121
f 30 149 142
f 27 132 129
f 22 128 130
f 28 145 144
f 29 148 146
f 32 155 151
f 23 133 131
f 24 134 136
f 37 157 161
f 41 124 126
f 107 44 47
f 103 43 44
f 104 45 43
f 110 46 45
f 113 47 46
f 118 52 49
f 154 70 72
f 141 99 102
f 162 95 96
f 121 81 79
f 142 59 62
f 129 58 59
f 130 60 58
f 144 61 60
f 146 62 61
f 151 65 66
f 131 57 54
f 136 77 73
f 161 86 85
f 126 88 92
f 116 98 101
f 108 68 69
f 106 48 50
f 112 78 82
f 115 93 97
f 119 69 71
f 156 101 100
f 139 97 94
f 160 82 80
f 120 50 51
f 149 89 90
f 132 64 63
f 128 53 55
f 145 74 76
f 148 84 87
f 155 90 91
f 133 63 67
f 134 55 56
f 157 76 75
f 124 87 83
f 109 72 68
f 105 49 48
f 111 79 78
f 114 96 93
f 117 102 98
f 125 91 88
f 152 67 65
f 137 56 57
f 158 75 77
f 123 83 86
f 143 66 64
f 127 54 53
f 135 73 74
f 147 85 84
f 150 92 89
f 153 71 70
f 140 100 99
f 138 94 95
f 159 80 81
f 122 51 52
f 107 116 109
f 103 108 105
f 104 106 111
f 110 112 114
f 113 115 117
f 118 119 125
f 154 156 152
f 141 139 137
f 162 160 158
f 121 120 123
f 142 149 143
f 129 132 127
f 130 128 135
f 144 145 147
f 146 148 150
f 151 155 153
f 131 133 140
f 136 134 138
f 161 157 159
f 126 124 122

