# https://github.com/mikedh/trimesh
v 0.45973874 2.46269961 0.37377258
v 0.13500386 3.71942307 0.35473557
v 0.72289197 2.53081996 0.38184295
v 0.39815705 3.78754342 0.36280594
v 0.55359205 3.15773763 0.39524607
v 0.30280517 3.09281822 0.38755499
v 0.58840755 3.02767104 0.35787556
v 0.33762066 2.96275163 0.35018444
v 0.25907018 3.78436417 0.34300021
v 0.25785482 3.78461806 0.38048841
v 0.59981773 2.46567154 0.36297590
v 0.59860238 2.46592543 0.40046410
v 0.29523353 3.09050442 0.36395962
v 0.45127878 2.49553837 0.39539359
v 0.45248811 2.49528573 0.35809259
v 0.47416553 2.43668331 0.36006958
v 0.47301304 2.43692391 0.39561770
v 0.14334946 3.68722452 0.37734180
v 0.14455876 3.68697212 0.34004079
v 0.13512486 3.74877040 0.34019390
v 0.13397237 3.74901100 0.37574207
v 0.56267711 3.15973560 0.37216154
v 0.71311381 2.56331749 0.40342353
v 0.71432311 2.56306509 0.36612251
v 0.72370022 2.50127861 0.36772225
v 0.72254767 2.50151921 0.40327039
v 0.40518444 3.75500388 0.38537172
v 0.40639378 3.75475124 0.34807072
v 0.38465952 3.81336570 0.34784660
v 0.38350703 3.81360630 0.38339474
v 0.42818821 3.12528004 0.39172122
v 0.38554930 3.78128138 0.38547759
v 0.70866260 2.53083304 0.40441951
v 0.14774097 3.71972172 0.37818451
v 0.47085434 2.46927337 0.39712641
v 0.46357134 2.99309291 0.35374140
v 0.38681822 3.78101624 0.34633790
v 0.70993162 2.53056789 0.36527981
v 0.14900992 3.71945657 0.33904479
v 0.47212326 2.46900823 0.35798673
v 0.25580383 3.79521609 0.35790991
v 0.60210681 2.45502394 0.37821128
v 0.44781994 2.50208005 0.37333783
v 0.45578856 2.47474262 0.39449800
v 0.45692128 2.47450608 0.35955962
v 0.46723636 2.44558191 0.36091169
v 0.46615686 2.44580748 0.39420822
v 0.14365376 3.67920287 0.35550666
v 0.13722906 3.70756760 0.37582301
v 0.13836176 3.70733084 0.34088463
v 0.13336674 3.73765697 0.34133921
v 0.13228724 3.73788255 0.37463574
v 0.71422792 2.57104311 0.38150800
v 0.71931082 2.54295877 0.40257967
v 0.72044347 2.54272201 0.36764130
v 0.72538529 2.51240707 0.36882857
v 0.72430579 2.51263264 0.40212511
v 0.41006174 3.74816594 0.36367683
v 0.40075127 3.77578353 0.38390470
v 0.40188401 3.77554699 0.34896630
v 0.39151570 3.80448213 0.34925610
v 0.39043620 3.80470770 0.38255263
v 0.70134423 2.60054527 0.40343443
v 0.41291884 3.71675112 0.38652602
v 0.54564173 3.15568325 0.39524576
v 0.39988277 3.74274363 0.38632945
v 0.70253048 2.57149764 0.40407159
v 0.44350266 2.53379976 0.39552698
v 0.15507730 3.65000561 0.37861857
v 0.31073970 3.09487604 0.38804181
v 0.15386499 3.67905885 0.37878460
v 0.45651267 2.50781262 0.39652678
v 0.70259523 2.60028400 0.36484575
v 0.41416989 3.71648985 0.34793733
v 0.58088781 3.02400795 0.35741305
v 0.40115990 3.74247699 0.34693753
v 0.70380756 2.57123076 0.36467972
v 0.44475373 2.53353849 0.35693830
v 0.15632836 3.64974434 0.34002988
v 0.34598578 2.96320050 0.35020908
v 0.15514208 3.67879197 0.33939273
v 0.45778978 2.50754598 0.35713486
v 0.14195508 3.75503934 0.33975865
v 0.37568441 3.81554297 0.34692666
v 0.37370010 3.80065254 0.34607845
v 0.15095436 3.74299199 0.33924728
v 0.25692449 3.79252725 0.34406392
v 0.14076279 3.75528848 0.37653395
v 0.37449213 3.81579209 0.38370194
v 0.37245050 3.80091344 0.38462118
v 0.14970476 3.74325290 0.37779005
v 0.25578608 3.79276503 0.37917761
v 0.48318043 2.43449752 0.35976238
v 0.71690980 2.49500113 0.36693037
v 0.70796780 2.50703671 0.36567426
v 0.48522207 2.44937616 0.35884313
v 0.60188649 2.45752458 0.36428671
v 0.48198815 2.43474664 0.39653765
v 0.71571752 2.49525027 0.40370567
v 0.70671820 2.50729762 0.40421703
v 0.48397246 2.44963707 0.39738587
v 0.60074807 2.45776236 0.39940039
v 0.43959372 2.53208273 0.39360465
v 0.44072772 2.53184586 0.35862647
v 0.15084002 3.64955912 0.37667697
v 0.15197405 3.64932225 0.34169882
v 0.46361431 2.45650737 0.39575813
v 0.29665256 3.09121171 0.38644132
v 0.46037471 2.47726137 0.39641826
v 0.46480423 2.45625887 0.35905579
v 0.32983234 2.96725575 0.35082651
v 0.46162327 2.47700058 0.35790650
v 0.47393153 2.43331696 0.37426170
v 0.47348656 2.44771899 0.35879106
v 0.48466369 2.42800403 0.36157674
v 0.47225752 2.44797556 0.39670013
v 0.48358296 2.42822955 0.39491119
v 0.13523398 3.72733879 0.37650744
v 0.14244706 3.70764107 0.37778033
v 0.13642392 3.72709053 0.33980505
v 0.14369563 3.70738027 0.33926857
v 0.13318549 3.75200361 0.35428612
v 0.13988522 3.73875572 0.33923429
v 0.14009422 3.76148742 0.34137697
v 0.13865619 3.73901229 0.37714337
v 0.13901352 3.76171295 0.37471144
v 0.70569848 2.60096736 0.40176550
v 0.70683258 2.60073049 0.36678734
v 0.41694484 3.71844375 0.38483785
v 0.41807884 3.71820688 0.34985967
v 0.72124862 2.52319909 0.40365926
v 0.55980460 3.15933182 0.39451165
v 0.71397692 2.54290934 0.40419574
v 0.72243855 2.52295081 0.36695688
v 0.59298438 3.03537587 0.35889684
v 0.71522550 2.54264854 0.36568397
v 0.72472135 2.49823709 0.38195290
v 0.71901636 2.51127732 0.36632095
v 0.71865901 2.48857666 0.36875287
v 0.71778735 2.51153389 0.40423002
v 0.71757837 2.48880219 0.40208734
v 0.39286832 3.79403074 0.38440853
v 0.39604928 3.77328904 0.38555781
v 0.39405826 3.79378224 0.34770619
v 0.39729786 3.77302824 0.34704605
v 0.38397530 3.81692374 0.36197730
v 0.38541504 3.80231405 0.34676418
v 0.37408960 3.82206006 0.34855313
v 0.38418600 3.80257062 0.38467325
v 0.37300887 3.82228558 0.38188757
v 0.38819502 3.74043227 0.38615941
v 0.69118713 2.56785290 0.40392177
v 0.16519575 3.68270608 0.37932051
v 0.46818792 2.51012671 0.39708287
v 0.26582928 3.75364705 0.38188182
v 0.59056793 2.49690902 0.40091904
v 0.38948465 3.74016290 0.34638144
v 0.69247684 2.56758353 0.36414380
v 0.16648540 3.68243671 0.33954254
v 0.46947754 2.50985734 0.35730491
v 0.26710463 3.75338059 0.34254527
v 0.59184327 2.49664255 0.36158249
f 1 47 44
f 1 44 43
f 1 43 45
f 1 45 46
f 1 46 47
f 2 49 52
f 6 72 70
f 12 102 99
f 11 96 95
f 8 79 81
f 4 62 59
f 4 59 58
f 4 58 60
f 4 60 61
f 4 61 62
f 5 66 65
f 3 54 57
f 7 73 77
f 9 85 86
f 10 92 88
f 12 101 98
f 6 69 68
f 2 50 48
f 8 82 78
f 11 97 93
f 6 71 69
f 12 100 101
f 11 94 97
f 8 80 82
f 2 51 50
f 10 90 89
f 5 63 64
f 3 55 53
f 7 76 74
f 9 87 84
f 10 91 90
f 5 67 63
f 3 56 55
f 7 75 76
f 9 83 87
f 6 68 72
f 2 48 49
f 8 78 79
f 11 93 96
f 12 98 102
f 10 88 91
f 5 65 67
f 3 57 56
f 7 77 75
f 9 86 83
f 5 64 66
f 3 53 54
f 7 74 73
f 9 84 85
f 10 89 92
f 6 70 71
f 12 99 100
f 11 95 94
f 8 81 80
f 2 52 51
f 35 109 116
f 18 105 108
f 19 111 106
f 40 114 112
f 42 117 115
f 34 125 119
f 33 152 156
f 25 137 139
f 36 158 160
f 20 123 120
f 32 143 149
f 23 127 132
f 24 135 128
f 37 147 145
f 41 150 148
f 34 153 155
f 33 140 133
f 25 138 134
f 36 159 157
f 20 122 124
f 17 107 47
f 14 103 44
f 13 104 43
f 15 110 45
f 16 113 46
f 18 118 49
f 35 154 72
f 42 141 102
f 40 162 96
f 19 121 79
f 30 142 62
f 27 129 59
f 22 130 58
f 28 144 60
f 29 146 61
f 32 151 66
f 23 131 54
f 24 136 73
f 37 161 85
f 41 126 92
f 35 116 101
f 18 108 69
f 19 106 50
f 40 112 82
f 42 115 97
f 34 119 71
f 33 156 100
f 25 139 94
f 36 160 80
f 20 120 51
f 32 149 90
f 23 132 63
f 24 128 55
f 37 145 76
f 41 148 87
f 34 155 91
f 33 133 67
f 25 134 56
f 36 157 75
f 20 124 83
f 14 109 68
f 13 105 48
f 15 111 78
f 16 114 93
f 17 117 98
f 21 125 88
f 31 152 65
f 26 137 57
f 38 158 77
f 39 123 86
f 27 143 64
f 22 127 53
f 28 135 74
f 29 147 84
f 30 150 89
f 31 153 70
f 26 140 99
f 38 138 95
f 39 159 81
f 21 122 52
f 14 107 109
f 13 103 105
f 15 104 111
f 16 110 114
f 17 113 117
f 21 118 125
f 31 154 152
f 26 141 137
f 38 162 158
f 39 121 123
f 27 142 143
f 22 129 127
f 28 130 135
f 29 144 147
f 30 146 150
f 31 151 153
f 26 131 140
f 38 136 138
f 39 161 159
f 21 126 122
f 14 44 107
f 13 43 103
f 15 45 104
f 16 46 110
f 17 47 113
f 21 52 118
f 31 70 154
f 26 99 141
f 38 95 162
f 39 81 121
f 27 59 142
f 22 58 129
f 28 60 130
f 29 61 144
f 30 62 146
f 31 65 151
f 26 57 131
f 38 77 136
f 39 86 161
f 21 88 126
f 17 98 116
f 14 68 108
f 13 48 106
f 15 78 112
f 16 93 115
f 18 69 119
f 35 101 156
f 42 97 139
f 40 82 160
f 19 50 120
f 30 89 149
f 27 64 132
f 22 53 128
f 28 74 145
f 29 84 148
f 32 90 155
f 23 63 133
f 24 55 134
f 37 76 157
f 41 87 124
f 35 72 109
f 18 49 105
f 19 79 111
f 40 96 114
f 42 102 117
f 34 91 125
f 33 67 152
f 25 56 137
f 36 75 158
f 20 83 123
f 32 66 143
f 23 54 127
f 24 73 135
f 37 85 147
f 41 92 150
f 34 71 153
f 33 100 140
f 25 94 138
f 36 80 159
f 20 51 122
f 17 116 107
f 14 108 103
f 13 106 104
f 15 112 110
f 16 115 113
f 18 119 118
f 35 156 154
f 42 139 141
f 40 160 162
f 19 120 121
f 30 149 142
f 27 132 129
f 22 128 130
f 28 145 144
f 29 148 146
f 32 155 151
f 23 133 131
f 24 134 136
f 37 157 161
f 41 124 126
f 107 44 47
f 103 43 44
f 104 45 43
f 110 46 45
f 113 47 46
f 118 52 49
f 154 70 72
f 141 99 102
f 162 95 96
f 121 81 79
f 142 59 62
f 129 58 59
f 130 60 58
f 144 61 60
f 146 62 61
f 151 65 66
f 131 57 54
f 136 77 73
f 161 86 85
f 126 88 92
f 116 98 101
f 108 68 69
f 106 48 50
f 112 78 82
f 115 93 97
f 119 69 71
f 156 101 100
f 139 97 94
f 160 82 80
f 120 50 51
f 149 89 90
f 132 64 63
f 128 53 55
f 145 74 76
f 148 84 87
f 155 90 91
f 133 63 67
f 134 55 56
f 157 76 75
f 124 87 83
f 109 72 68
f 105 49 48
f 111 79 78
f 114 96 93
f 117 102 98
f 125 91 88
f 152 67 65
f 137 56 57
f 158 75 77
f 123 83 86
f 143 66 64
f 127 54 53
f 135 73 74
f 147 85 84
f 150 92 89
f 153 71 70
f 140 100 99
f 138 94 95
f 159 80 81
f 122 51 52
f 107 116 109
f 103 108 105
f 104 106 111
f 110 112 114
f 113 115 117
f 118 119 125
f 154 156 152
f 141 139 137
f 162 160 158
f 121 120 123
f 142 149 143
f 129 132 127
f 130 128 135
f 144 145 147
f 146 148 150
f 151 155 153
f 131 133 140
f 136 134 138
f 161 157 159
f 126 124 122

