# https://github.com/mikedh/trimesh
v 2.39216850 3.38906180 1.34770991
v 2.07538893 4.62314081 1.31936296
v 2.69112917 3.46631632 1.37007210
v 2.37434959 4.70039532 1.34172516
v 2.52396899 4.08162243 1.37843098
v 2.23905756 4.00799789 1.35711970
v 2.55965890 3.95402194 1.34211309
v 2.27474749 3.88039763 1.32080172
v 2.21821494 4.69214027 1.31457935
v 2.21538312 4.69227265 1.35198084
v 2.55061486 3.39720877 1.34432410
v 2.54778303 3.39734115 1.38172560
v 2.23135886 4.00547061 1.33312603
v 2.38305160 3.42126573 1.36907472
v 2.38586908 3.42113409 1.33186001
v 2.40796459 3.36382728 1.33461496
v 2.40527922 3.36395246 1.37008086
v 2.08266585 4.59147951 1.34219479
v 2.08548333 4.59134787 1.30498002
v 2.07722964 4.65227201 1.30501920
v 2.07454428 4.65239767 1.34048507
v 2.53519383 4.08398479 1.35585277
v 2.68051464 3.49813355 1.39132494
v 2.68333212 3.49800191 1.35411017
v 2.69145370 3.43708375 1.35581989
v 2.68876833 3.43720940 1.39128574
v 2.38012889 4.66834733 1.36444493
v 2.38294637 4.66821570 1.32723023
v 2.36071875 4.72552897 1.32622409
v 2.35803338 4.72565415 1.36168998
v 2.38148911 4.04481138 1.36809527
v 2.35900543 4.69367535 1.36367856
v 2.67420319 3.46575837 1.39188395
v 2.08883815 4.62386136 1.34347011
v 2.40403615 3.39594415 1.37167557
v 2.41776087 3.91513047 1.33118521
v 2.36196182 4.69353750 1.32462936
v 2.67715982 3.46562030 1.35283482
v 2.09179478 4.62372304 1.30442100
v 2.40699254 3.39580608 1.33262639
v 2.21436667 4.70274958 1.32937454
v 2.55218603 3.38670605 1.35960425
v 2.38027074 3.42766781 1.34689146
v 2.38736718 3.40081516 1.36828847
v 2.39000625 3.40069202 1.33343089
v 2.40046422 3.37239232 1.33514641
v 2.39794901 3.37250982 1.36836596
v 2.08355608 4.58358055 1.32033996
v 2.07661163 4.61142647 1.34048053
v 2.07925093 4.61130310 1.30562297
v 2.07477346 4.64118578 1.30600209
v 2.07225849 4.64130351 1.33922154
v 2.68292898 3.50587826 1.36953021
v 2.68674704 3.47817832 1.39068199
v 2.68938634 3.47805520 1.35582439
v 2.69373948 3.44817792 1.35708341
v 2.69122452 3.44829540 1.39030287
v 2.38621432 4.66179052 1.34297875
v 2.37599172 4.68878963 1.36287404
v 2.37863079 4.68866627 1.32801648
v 2.36804896 4.71697137 1.32793901
v 2.36553375 4.71708911 1.36115853
v 2.66868441 3.53460990 1.39094627
v 2.38732475 4.63070304 1.36576892
v 2.51492753 4.07929153 1.37799878
v 2.37364129 4.65599345 1.36504643
v 2.66887458 3.50585142 1.39146534
v 2.37575826 3.45891437 1.36903549
v 2.09439861 4.55500799 1.34385803
v 2.24806232 4.01033047 1.35803729
v 2.09414770 4.58376881 1.34414038
v 2.38938123 3.43362702 1.37055931
v 2.67159937 3.53447368 1.35244690
v 2.39023971 4.63056705 1.32726947
v 2.55105878 3.95011303 1.34123165
v 2.37661674 4.65585441 1.32574563
v 2.67185027 3.50571237 1.35216459
v 2.37867322 3.45877839 1.33053603
v 2.09731357 4.55487153 1.30535868
v 2.28419357 3.88115196 1.32127016
v 2.09712339 4.58363024 1.30483959
v 2.39235668 3.43348820 1.33125850
v 2.08518840 4.65874116 1.30498321
v 2.35072144 4.72735789 1.32484501
v 2.34794283 4.71252183 1.32380036
v 2.09488775 4.64712977 1.30487193
v 2.21606967 4.70015281 1.31557991
v 2.08241038 4.65887107 1.34167345
v 2.34794343 4.72748779 1.36153525
v 2.34503118 4.71265793 1.36225395
v 2.09197633 4.64726587 1.34332545
v 2.21341714 4.70027643 1.35061236
v 2.41805454 3.36199362 1.33476969
v 2.68358759 3.43061036 1.35463151
v 2.67402165 3.44221556 1.35297950
v 2.42096679 3.37682349 1.33405100
v 2.55258083 3.38920498 1.34569259
v 2.41527653 3.36212353 1.37145994
v 2.68080958 3.43074025 1.39132174
v 2.67111022 3.44235166 1.39143302
v 2.41805514 3.37695936 1.37250461
v 2.54992830 3.38932886 1.38072503
v 2.37136085 3.45707118 1.36689762
v 2.37400316 3.45694771 1.33200038
v 2.08968115 4.55441234 1.34169157
v 2.09232321 4.55428912 1.30679430
v 2.39543529 3.38302164 1.36984720
v 2.23210345 4.00617967 1.35567240
v 2.39255890 3.40347817 1.37046491
v 2.39820761 3.38289236 1.33322973
v 2.26611650 3.88457410 1.32106076
v 2.39546803 3.40334241 1.33204222
v 2.40701358 3.36045263 1.34876472
v 2.40767562 3.37474624 1.33337001
v 2.41940438 3.35560670 1.33662077
v 2.40481203 3.37488003 1.37119133
v 2.41688636 3.35572415 1.36987814
v 2.07509952 4.63095448 1.34118202
v 2.08241977 4.61168798 1.34271215
v 2.07787208 4.63082519 1.30456457
v 2.08532890 4.61155247 1.30428944
v 2.07461532 4.65537838 1.31902007
v 2.08224664 4.64252041 1.30424906
v 2.08327630 4.66506225 1.30654240
v 2.07938329 4.64265420 1.34207038
v 2.08075828 4.66518016 1.33979973
v 2.67367476 3.53519231 1.38951064
v 2.67631683 3.53506909 1.35461338
v 2.39199481 4.63253372 1.36430457
v 2.39463712 4.63241048 1.32940730
v 2.68812589 3.45865623 1.39174039
v 2.53106269 4.08343417 1.37803446
v 2.68066907 3.47792920 1.39201549
v 2.69089845 3.45852694 1.35512292
v 2.56507597 3.96182861 1.34342281
v 2.68357821 3.47779344 1.35359280
v 2.69192858 3.43407767 1.37007628
v 2.68661469 3.44682722 1.35423457
v 2.68523970 3.42430127 1.35650523
v 2.68375133 3.44696101 1.39205588
v 2.68272168 3.42441894 1.38976256
v 2.36779037 4.70658931 1.36307519
v 2.37052995 4.68613878 1.36426274
v 2.37056268 4.70645955 1.32645777
v 2.37343908 4.68600326 1.32584004
v 2.35953009 4.72900343 1.34033165
v 2.36118595 4.71460164 1.32511359
v 2.34911161 4.73375728 1.32642681
v 2.35832235 4.71473495 1.36293496
v 2.34659359 4.73387472 1.35968417
v 2.36038336 4.65326955 1.36424596
v 2.65595281 3.50181861 1.39069494
v 2.10704036 4.58780310 1.34529596
v 2.40260982 3.43635191 1.37174496
v 2.22312159 4.66185683 1.35360164
v 2.53990495 3.42776350 1.38194892
v 2.36338815 4.65312951 1.32455999
v 2.65895761 3.50167833 1.35100899
v 2.11004516 4.58766258 1.30561003
v 2.40561461 3.43621164 1.33205901
v 2.22609302 4.66171793 1.31435603
v 2.54287639 3.42762460 1.34270331
f 1 47 44
f 1 44 43
f 1 43 45
f 1 45 46
f 1 46 47
f 2 49 52
f 6 72 70
f 12 102 99
f 11 96 95
f 8 79 81
f 4 62 59
f 4 59 58
f 4 58 60
f 4 60 61
f 4 61 62
f 5 66 65
f 3 54 57
f 7 73 77
f 9 85 86
f 10 92 88
f 12 101 98
f 6 69 68
f 2 50 48
f 8 82 78
f 11 97 93
f 6 71 69
f 12 100 101
f 11 94 97
f 8 80 82
f 2 51 50
f 10 90 89
f 5 63 64
f 3 55 53
f 7 76 74
f 9 87 84
f 10 91 90
f 5 67 63
f 3 56 55
f 7 75 76
f 9 83 87
f 6 68 72
f 2 48 49
f 8 78 79
f 11 93 96
f 12 98 102
f 10 88 91
f 5 65 67
f 3 57 56
f 7 77 75
f 9 86 83
f 5 64 66
f 3 53 54
f 7 74 73
f 9 84 85
f 10 89 92
f 6 70 71
f 12 99 100
f 11 95 94
f 8 81 80
f 2 52 51
f 35 109 116
f 18 105 108
f 19 111 106
f 40 114 112
f 42 117 115
f 34 125 119
f 33 152 156
f 25 137 139
f 36 158 160
f 20 123 120
f 32 143 149
f 23 127 132
f 24 135 128
f 37 147 145
f 41 150 148
f 34 153 155
f 33 140 133
f 25 138 134
f 36 159 157
f 20 122 124
f 17 107 47
f 14 103 44
f 13 104 43
f 15 110 45
f 16 113 46
f 18 118 49
f 35 154 72
f 42 141 102
f 40 162 96
f 19 121 79
f 30 142 62
f 27 129 59
f 22 130 58
f 28 144 60
f 29 146 61
f 32 151 66
f 23 131 54
f 24 136 73
f 37 161 85
f 41 126 92
f 35 116 101
f 18 108 69
f 19 106 50
f 40 112 82
f 42 115 97
f 34 119 71
f 33 156 100
f 25 139 94
f 36 160 80
f 20 120 51
f 32 149 90
f 23 132 63
f 24 128 55
f 37 145 76
f 41 148 87
f 34 155 91
f 33 133 67
f 25 134 56
f 36 157 75
f 20 124 83
f 14 109 68
f 13 105 48
f 15 111 78
f 16 114 93
f 17 117 98
f 21 125 88
f 31 152 65
f 26 137 57
f 38 158 77
f 39 123 86
f 27 143 64
f 22 127 53
f 28 135 74
f 29 147 84
f 30 150 89
f 31 153 70
f 26 140 99
f 38 138 95
f 39 159 81
f 21 122 52
f 14 107 109
f 13 103 105
f 15 104 111
f 16 110 114
f 17 113 117
f 21 118 125
f 31 154 152
f 26 141 137
f 38 162 158
f 39 121 123
f 27 142 143
f 22 129 127
f 28 130 135
f 29 144 147
f 30 146 150
f 31 151 153
f 26 131 140
f 38 136 138
f 39 161 159
f 21 126 122
f 14 44 107
f 13 43 103
f 15 45 104
f 16 46 110
f 17 47 113
f 21 52 118
f 31 70 154
f 26 99 141
f 38 95 162
f 39 81 121
f 27 59 142
f 22 58 129
f 28 60 130
f 29 61 144
f 30 62 146
f 31 65 151
f 26 57 131
f 38 77 136
f 39 86 161
f 21 88 126
f 17 98 116
f 14 68 108
f 13 48 106
f 15 78 112
f 16 93 115
f 18 69 119
f 35 101 156
f 42 97 139
f 40 82 160
f 19 50 120
f 30 89 149
f 27 64 132
f 22 53 128
f 28 74 145
f 29 84 148
f 32 90 155
f 23 63 133
f 24 55 134
f 37 76 157
f 41 87 124
f 35 72 109
f 18 49 105
f 19 79 111
f 40 96 114
f 42 102 117
f 34 91 125
f 33 67 152
f 25 56 137
f 36 75 158
f 20 83 123
f 32 66 143
f 23 54 127
f 24 73 135
f 37 85 147
f 41 92 150
f 34 71 153
f 33 100 140
f 25 94 138
f 36 80 159
f 20 51 122
f 17 116 107
f 14 108 103
f 13 106 104
f 15 112 110
f 16 115 113
f 18 119 118
f 35 156 154
f 42 139 141
f 40 160 162
f 19 120 121
f 30 149 142
f 27 132 129
f 22 128 130
f 28 145 144
f 29 148 146
f 32 155 151
f 23 133 131
f 24 134 136
f 37 157 161
f 41 124 126
f 107 44 47
f 103 43 44
f 104 45 43
f 110 46 45
f 113 47 46
f 118 52 49
f 154 70 72
f 141 99 102
f 162 95 96
f 121 81 79
f 142 59 62
f 129 58 59
f 130 60 58
f 144 61 60
f 146 62 61
f 151 65 66
f 131 57 54
f 136 77 73
f 161 86 85
f 126 88 92
f 116 98 101
f 108 68 69
f 106 48 50
f 112 78 82
f 115 93 97
f 119 69 71
f 156 101 100
f 139 97 94
f 160 82 80
f 120 50 51
f 149 89 90
f 132 64 63
f 128 53 55
f 145 74 76
f 148 84 87
f 155 90 91
f 133 63 67
f 134 55 56
f 157 76 75
f 124 87 83
f 109 72 68
f 105 49 48
f 111 79 78
f 114 96 93
f 117 102 98
f 125 91 88
f 152 67 65
f 137 56 57
f 158 75 77
f 123 83 86
f 143 66 64
f 127 54 53
f 135 73 74
f 147 85 84
f 150 92 89
f 153 71 70
f 140 100 99
f 138 94 95
f 159 80 81
f 122 51 52
f 107 116 109
f 103 108 105
f 104 106 111
f 110 112 114
f 113 115 117
f 118 119 125
f 154 156 152
f 141 139 137
f 162 160 158
f 121 120 123
f 142 149 143
f 129 132 127
f 130 128 135
f 144 145 147
f 146 148 150
f 151 155 153
f 131 133 140
f 136 134 138
f 161 157 159
f 126 124 122

