# https://github.com/mikedh/trimesh
v 0.90810253 4.12332502 0.74793117
v 1.23213049 2.82547576 0.76981200
v 0.92103645 4.12477848 0.64258819
v 1.24506448 2.82692896 0.66446903
v 1.06048867 3.47021506 0.65319370
v 1.04816266 3.46883023 0.75358629
v 1.06490569 3.61380221 0.65571670
v 1.05257957 3.61241737 0.75610929
v 1.26132257 2.79791433 0.71954046
v 1.22521873 2.78882347 0.71498227
v 0.92131674 4.15976057 0.69658069
v 0.88521290 4.15066995 0.69202249
v 1.07023135 3.47444403 0.75975812
v 0.89524187 4.08438844 0.74554717
v 0.93116540 4.09343373 0.75008260
v 0.91510187 4.15542542 0.74646592
v 0.88086645 4.14680559 0.74214358
v 1.20250100 2.85370467 0.76629562
v 1.23842454 2.86274995 0.77083107
v 1.25340447 2.80040118 0.76931066
v 1.21916905 2.79178086 0.76498835
v 1.08337612 3.47592081 0.65269769
v 0.90811094 4.08583433 0.64073188
v 0.94403453 4.09487962 0.64526732
v 0.92736642 4.15680342 0.64657460
v 0.89313100 4.14818311 0.64225230
v 1.21537007 2.85515055 0.66148035
v 1.25129360 2.86419584 0.66601578
v 1.26566902 2.80177893 0.66941936
v 1.23143360 2.79315862 0.66509706
v 1.05401689 3.46944492 0.70335101
v 1.22146965 2.82451865 0.66668919
v 0.89905959 4.11588776 0.64491760
v 1.20978150 2.82320559 0.76188633
v 0.88737143 4.11457423 0.74011478
v 1.05850585 3.61537305 0.70591513
v 1.25916403 2.83400981 0.67144820
v 0.93675397 4.12537894 0.64967660
v 1.24747588 2.83269675 0.76664533
v 0.92506581 4.12406539 0.74487378
v 1.24957831 2.78315774 0.71789496
v 0.90402916 4.16720711 0.69456085
v 0.91807450 4.08216017 0.74924908
v 0.89103459 4.10591250 0.74567038
v 0.92468276 4.11438486 0.74991856
v 0.91638579 4.14479559 0.74822741
v 0.88431882 4.13672130 0.74417888
v 1.22157863 2.86651688 0.76974396
v 1.20890069 2.83274404 0.76713510
v 1.24254887 2.84121639 0.77138327
v 1.24952870 2.81043750 0.77072377
v 1.21746174 2.80236321 0.76667524
v 0.93116839 4.08363172 0.64260318
v 0.90398660 4.10736788 0.64017968
v 0.93763483 4.11584025 0.64442785
v 0.92907374 4.14622107 0.64488770
v 0.89700676 4.13814678 0.64083918
v 1.23467239 2.86798796 0.66309809
v 1.22185272 2.83419919 0.66164442
v 1.25550089 2.84267154 0.66589259
v 1.26221659 2.81186299 0.66738407
v 1.23014962 2.80378870 0.66333554
v 0.91712354 4.04669191 0.64211002
v 1.20492107 2.89395867 0.66154429
v 1.05986407 3.47011216 0.65634356
v 1.21133942 2.86540773 0.66434121
v 0.90935052 4.07498245 0.64394863
v 0.90445070 4.04526796 0.74532666
v 1.19224828 2.89253472 0.76476093
v 1.04831865 3.46881507 0.75037729
v 1.19924771 2.86404939 0.76282466
v 0.89725882 4.07362411 0.74243209
v 0.95428725 4.05604955 0.64680202
v 1.24208483 2.90331632 0.66623629
v 1.06433570 3.61547521 0.65889776
v 1.24927671 2.87496017 0.66913086
v 0.94728775 4.08453490 0.64873829
v 0.94161440 4.05462561 0.75001866
v 1.22941192 2.90189238 0.76945293
v 1.05279028 3.61417813 0.75293149
v 1.23718501 2.87360182 0.76761432
v 0.93519605 4.08317656 0.74722174
v 1.25547380 2.79622757 0.76629537
v 1.26696157 2.79751836 0.67273106
v 1.26407147 2.81160610 0.67480254
v 1.25312363 2.81037606 0.76396998
v 1.26228188 2.78920459 0.71953809
v 1.22005658 2.78730982 0.76182385
v 1.23154423 2.78860037 0.66825957
v 1.22695200 2.80225965 0.67011612
v 1.21600405 2.80102961 0.75928357
v 1.22846477 2.78068965 0.71526861
v 0.91499118 4.15998391 0.74330338
v 0.92647890 4.16127445 0.64973910
v 0.93053136 4.14755490 0.65227938
v 0.91958347 4.14632462 0.74144683
v 0.91807070 4.16789464 0.69629434
v 0.87957390 4.15106616 0.73883187
v 0.89106161 4.15235671 0.64526758
v 0.89341189 4.13820822 0.64759297
v 0.88246400 4.13697842 0.73676039
v 0.88425365 4.15937945 0.69202488
v 0.90582244 4.04633911 0.74718903
v 0.93950892 4.05482095 0.75144206
v 1.19394756 2.89229370 0.76664543
v 1.22763405 2.90077576 0.77089843
v 0.88543013 4.12534008 0.74405378
v 1.04874863 3.46902008 0.75617361
v 0.88987286 4.10424431 0.74348887
v 0.92077713 4.13424037 0.74851641
v 1.05295817 3.60586122 0.75857807
v 0.92696252 4.11358305 0.74817154
v 0.90058173 4.15539610 0.74493776
v 0.91905089 4.14485353 0.74599108
v 0.91165937 4.16624844 0.74303478
v 0.88254172 4.13566078 0.74138172
v 0.87955587 4.15816470 0.73898167
v 1.21309569 2.81292114 0.76618024
v 1.20710845 2.83360083 0.76491103
v 1.24844276 2.82182145 0.77064287
v 1.24419809 2.84293980 0.76959368
v 1.24058603 2.79355560 0.76789747
v 1.25192608 2.81156778 0.76846935
v 1.25547879 2.78912713 0.76625209
v 1.21541685 2.80237503 0.76385999
v 1.22337529 2.78104386 0.76219894
v 0.91890136 4.04780851 0.64066452
v 0.95258791 4.05629081 0.64491750
v 1.20702655 2.89376310 0.66012091
v 1.24071303 2.90224516 0.66437392
v 0.89809277 4.12676308 0.64092006
v 1.06168252 3.47047333 0.65083110
v 0.90233737 4.10564471 0.64196925
v 0.93343977 4.13566290 0.64538273
v 1.06589194 3.60731447 0.65323556
v 0.93942697 4.11498345 0.64665192
v 0.91290794 4.15678084 0.64454401
v 0.93111856 4.14620900 0.64770297
v 0.92316017 4.16754042 0.64936401
v 0.89460939 4.13701625 0.64309362
v 0.89105668 4.15945715 0.64531086
v 1.22575828 2.81434391 0.66304654
v 1.21957301 2.83500124 0.66339141
v 1.26110534 2.82324397 0.66750919
v 1.25666255 2.84434020 0.66807406
v 1.25291224 2.79494057 0.66750369
v 1.26399375 2.81292350 0.67018124
v 1.26697960 2.79041935 0.67258129
v 1.22748464 2.80373075 0.66557187
v 1.23487610 2.78233584 0.66852817
v 1.21075975 2.86460909 0.66893661
v 0.90842708 4.07556073 0.64852081
v 1.19979934 2.86337769 0.75820553
v 0.89746668 4.07432909 0.73778974
v 1.21634160 2.82059036 0.71433056
v 0.89230985 4.11845516 0.69244944
v 1.24906879 2.87425495 0.67377323
v 0.94673613 4.08520684 0.65335741
v 1.23810838 2.87302355 0.76304214
v 0.93577578 4.08397519 0.74262635
v 1.25422562 2.83012935 0.71911349
v 0.93019381 4.12799368 0.69723242
f 1 47 44
f 1 44 43
f 1 43 45
f 1 45 46
f 1 46 47
f 2 49 52
f 6 72 70
f 12 102 99
f 11 96 95
f 8 79 81
f 4 62 59
f 4 59 58
f 4 58 60
f 4 60 61
f 4 61 62
f 5 66 65
f 3 54 57
f 7 73 77
f 9 85 86
f 10 92 88
f 12 101 98
f 6 69 68
f 2 50 48
f 8 82 78
f 11 97 93
f 6 71 69
f 12 100 101
f 11 94 97
f 8 80 82
f 2 51 50
f 10 90 89
f 5 63 64
f 3 55 53
f 7 76 74
f 9 87 84
f 10 91 90
f 5 67 63
f 3 56 55
f 7 75 76
f 9 83 87
f 6 68 72
f 2 48 49
f 8 78 79
f 11 93 96
f 12 98 102
f 10 88 91
f 5 65 67
f 3 57 56
f 7 77 75
f 9 86 83
f 5 64 66
f 3 53 54
f 7 74 73
f 9 84 85
f 10 89 92
f 6 70 71
f 12 99 100
f 11 95 94
f 8 81 80
f 2 52 51
f 35 109 116
f 18 105 108
f 19 111 106
f 40 114 112
f 42 117 115
f 34 125 119
f 33 152 156
f 25 137 139
f 36 158 160
f 20 123 120
f 32 143 149
f 23 127 132
f 24 135 128
f 37 147 145
f 41 150 148
f 34 153 155
f 33 140 133
f 25 138 134
f 36 159 157
f 20 122 124
f 17 107 47
f 14 103 44
f 13 104 43
f 15 110 45
f 16 113 46
f 18 118 49
f 35 154 72
f 42 141 102
f 40 162 96
f 19 121 79
f 30 142 62
f 27 129 59
f 22 130 58
f 28 144 60
f 29 146 61
f 32 151 66
f 23 131 54
f 24 136 73
f 37 161 85
f 41 126 92
f 35 116 101
f 18 108 69
f 19 106 50
f 40 112 82
f 42 115 97
f 34 119 71
f 33 156 100
f 25 139 94
f 36 160 80
f 20 120 51
f 32 149 90
f 23 132 63
f 24 128 55
f 37 145 76
f 41 148 87
f 34 155 91
f 33 133 67
f 25 134 56
f 36 157 75
f 20 124 83
f 14 109 68
f 13 105 48
f 15 111 78
f 16 114 93
f 17 117 98
f 21 125 88
f 31 152 65
f 26 137 57
f 38 158 77
f 39 123 86
f 27 143 64
f 22 127 53
f 28 135 74
f 29 147 84
f 30 150 89
f 31 153 70
f 26 140 99
f 38 138 95
f 39 159 81
f 21 122 52
f 14 107 109
f 13 103 105
f 15 104 111
f 16 110 114
f 17 113 117
f 21 118 125
f 31 154 152
f 26 141 137
f 38 162 158
f 39 121 123
f 27 142 143
f 22 129 127
f 28 130 135
f 29 144 147
f 30 146 150
f 31 151 153
f 26 131 140
f 38 136 138
f 39 161 159
f 21 126 122
f 14 44 107
f 13 43 103
f 15 45 104
f 16 46 110
f 17 47 113
f 21 52 118
f 31 70 154
f 26 99 141
f 38 95 162
f 39 81 121
f 27 59 142
f 22 58 129
f 28 60 130
f 29 61 144
f 30 62 146
f 31 65 151
f 26 57 131
f 38 77 136
f 39 86 161
f 21 88 126
f 17 98 116
f 14 68 108
f 13 48 106
f 15 78 112
f 16 93 115
f 18 69 119
f 35 101 156
f 42 97 139
f 40 82 160
f 19 50 120
f 30 89 149
f 27 64 132
f 22 53 128
f 28 74 145
f 29 84 148
f 32 90 155
f 23 63 133
f 24 55 134
f 37 76 157
f 41 87 124
f 35 72 109
f 18 49 105
f 19 79 111
f 40 96 114
f 42 102 117
f 34 91 125
f 33 67 152
f 25 56 137
f 36 75 158
f 20 83 123
f 32 66 143
f 23 54 127
f 24 73 135
f 37 85 147
f 41 92 150
f 34 71 153
f 33 100 140
f 25 94 138
f 36 80 159
f 20 51 122
f 17 116 107
f 14 108 103
f 13 106 104
f 15 112 110
f 16 115 113
f 18 119 118
f 35 156 154
f 42 139 141
f 40 160 162
f 19 120 121
f 30 149 142
f 27 132 129
f 22 128 130
f 28 145 144
f 29 148 146
f 32 155 151
f 23 133 131
f 24 134 136
f 37 157 161
f 41 124 126
f 107 44 47
f 103 43 44
f 104 45 43
f 110 46 45
f 113 47 46
f 118 52 49
f 154 70 72
f 141 99 102
f 162 95 96
f 121 81 79
f 142 59 62
f 129 58 59
f 130 60 58
f 144 61 60
f 146 62 61
f 151 65 66
f 131 57 54
f 136 77 73
f 161 86 85
f 126 88 92
f 116 98 101
f 108 68 69
f 106 48 50
f 112 78 82
f 115 93 97
f 119 69 71
f 156 101 100
f 139 97 94
f 160 82 80
f 120 50 51
f 149 89 90
f 132 64 63
f 128 53 55
f 145 74 76
f 148 84 87
f 155 90 91
f 133 63 67
f 134 55 56
f 157 76 75
f 124 87 83
f 109 72 68
f 105 49 48
f 111 79 78
f 114 96 93
f 117 102 98
f 125 91 88
f 152 67 65
f 137 56 57
f 158 75 77
f 123 83 86
f 143 66 64
f 127 54 53
f 135 73 74
f 147 85 84
f 150 92 89
f 153 71 70
f 140 100 99
f 138 94 95
f 159 80 81
f 122 51 52
f 107 116 109
f 103 108 105
f 104 106 111
f 110 112 114
f 113 115 117
f 118 119 125
f 154 156 152
f 141 139 137
f 162 160 158
f 121 120 123
f 142 149 143
f 129 132 127
f 130 128 135
f 144 145 147
f 146 148 150
f 151 155 153
f 131 133 140
f 136 134 138
f 161 157 159
f 126 124 122

