# https://github.com/mikedh/trimesh
v 1.80596071 3.10370047 1.07136331
v 1.46779395 4.34521621 1.02707056
v 2.10350899 3.18460814 1.06746317
v 1.76534233 4.42612412 1.02317035
v 1.92750775 3.80430946 1.06851680
v 1.64394195 3.72720374 1.07223368
v 1.96231037 3.67464257 1.03375970
v 1.67874471 3.59753686 1.03747658
v 1.60818212 4.41572095 1.00872910
v 1.60830100 4.41709030 1.04621268
v 1.96302391 3.11298551 1.05520597
v 1.96314279 3.11435533 1.09268951
v 1.63445109 3.72379049 1.04902007
v 1.79802576 3.13683529 1.09229812
v 1.79790746 3.13547245 1.05500171
v 1.82106337 3.07792369 1.05790861
v 1.82117605 3.07922237 1.09345236
v 1.47735954 4.31410116 1.05029754
v 1.47724124 4.31273832 1.01300114
v 1.46799900 4.37413320 1.01166458
v 1.46811168 4.37543188 1.04720830
v 1.93685061 3.80601723 1.04505633
v 2.09408355 3.21733772 1.08841750
v 2.09396525 3.21597489 1.05112109
v 2.10321323 3.15464416 1.05421032
v 2.10332579 3.15594308 1.08975403
v 1.77341745 4.39460335 1.04641693
v 1.77329915 4.39324052 1.00912052
v 1.75014886 4.45085343 1.00796629
v 1.75026154 4.45215259 1.04350996
v 1.78572583 3.76576828 1.07069587
v 1.75193079 4.41996918 1.04647865
v 2.08840901 3.18465236 1.09055028
v 1.48303996 4.34685376 1.05000318
v 1.81951818 3.11153695 1.09407482
v 1.82109599 3.63398739 1.03537210
v 1.75180673 4.41853910 1.00734381
v 2.08828483 3.18322227 1.05141545
v 1.48291590 4.34542368 1.01086834
v 1.81939412 3.11010686 1.05493998
v 1.60533735 4.42689101 1.02342090
v 1.96596436 3.10291672 1.07065550
v 1.79341161 3.14252676 1.07020273
v 1.80260299 3.11621262 1.09185440
v 1.80249226 3.11493594 1.05692033
v 1.81350431 3.08652538 1.05874546
v 1.81360988 3.08774187 1.09203788
v 1.47666421 4.30540505 1.02871545
v 1.47086700 4.33411885 1.04840394
v 1.47075626 4.33284218 1.01346987
v 1.46582497 4.36296534 1.01320669
v 1.46593054 4.36418157 1.04649913
v 2.09464009 3.22443517 1.06625432
v 2.10056876 3.19723363 1.08794877
v 2.10045792 3.19595719 1.05301470
v 2.10539449 3.16589446 1.05491949
v 2.10549994 3.16711095 1.08821191
v 1.77789282 4.38731346 1.02476705
v 1.76883265 4.41514010 1.04449829
v 1.76872191 4.41386342 1.00956423
v 1.75771503 4.44233418 1.00938074
v 1.75782060 4.44355043 1.04267318
v 2.08167260 3.25403089 1.08776071
v 1.78131713 4.35672967 1.04842040
v 1.91852792 3.80187641 1.06887776
v 1.76722855 4.38211385 1.04793962
v 2.08239453 3.22504091 1.08921980
v 1.79013014 3.17475633 1.09158212
v 1.48977468 4.27745511 1.05224184
v 1.65292330 3.72965459 1.07235922
v 1.48905533 4.30647460 1.05158583
v 1.80422131 3.14940142 1.09286599
v 2.08155023 3.25262116 1.04917677
v 1.78119477 4.35531971 1.00983651
v 1.95376113 3.67060580 1.03369076
v 1.76710360 4.38067439 1.00855265
v 2.08226958 3.22360169 1.04983277
v 1.79000777 3.17334637 1.05299823
v 1.48965231 4.27604516 1.01365792
v 1.68815638 3.59838398 1.03717223
v 1.48893038 4.30503513 1.01219882
v 1.80409637 3.14796220 1.05347900
v 1.47579510 4.38071647 1.01078498
v 1.74007374 4.45257805 1.00732085
v 1.73748417 4.43755687 1.00699317
v 1.48562465 4.36907249 1.01029448
v 1.60599156 4.42382055 1.00962877
v 1.47591167 4.38206026 1.04755568
v 1.74019043 4.45392137 1.04409163
v 1.73760638 4.43896503 1.04553113
v 1.48574686 4.37048065 1.04883243
v 1.60610278 4.42510326 1.04473814
v 1.83113448 3.07615468 1.05732700
v 2.09541324 3.14801579 1.05386294
v 2.08557817 3.15959540 1.05258619
v 1.83371853 3.09111101 1.05588750
v 1.96522213 3.10497278 1.05668048
v 1.83125116 3.07749823 1.09409775
v 2.09552992 3.14935957 1.09063364
v 2.08570026 3.16100356 1.09112414
v 1.83384075 3.09251916 1.09442545
v 1.96533336 3.10625550 1.09178986
v 1.78562368 3.17279254 1.08986071
v 1.78551272 3.17151456 1.05488689
v 1.48492640 4.27674642 1.05047565
v 1.48481545 4.27546843 1.01550179
v 1.81104803 3.09837642 1.09336241
v 1.63694837 3.72526924 1.07140139
v 1.80788804 3.11901072 1.09352426
v 1.81093175 3.09703542 1.05666461
v 1.67011603 3.60169420 1.03827725
v 1.80776582 3.11760363 1.05501727
v 1.82128661 3.07498816 1.07219389
v 1.82049155 3.08889377 1.05632771
v 1.83273076 3.06978409 1.05927724
v 1.82061177 3.09027895 1.09423205
v 1.83283639 3.07100196 1.09260756
v 1.46908511 4.35382965 1.04857239
v 1.47681004 4.33450121 1.05015996
v 1.46896871 4.35248887 1.01187456
v 1.47668782 4.33309412 1.01165297
v 1.46644637 4.37771764 1.02571722
v 1.47309163 4.36430808 1.01082553
v 1.47390892 4.38713083 1.01227911
v 1.47321184 4.36569278 1.04872992
v 1.47401467 4.38834918 1.04560936
v 2.08650946 3.25460761 1.08591683
v 2.08639851 3.25332962 1.05094297
v 1.78581218 4.35856149 1.04653174
v 1.78570123 4.35728351 1.01155791
v 2.10235633 3.17758740 1.08954404
v 1.93449544 3.80617643 1.06750125
v 2.09463697 3.19698192 1.08976565
v 2.10223992 3.17624640 1.05284623
v 1.96766311 3.68260163 1.03437709
v 2.09451499 3.19557483 1.05125866
v 2.10485550 3.15209459 1.06847698
v 2.09811307 3.16438302 1.05268872
v 2.09731012 3.14172710 1.05580925
v 2.09823329 3.16576820 1.09059309
v 2.09741610 3.14294497 1.08913953
v 1.76039316 4.43304039 1.04475403
v 1.76355909 4.41247242 1.04640135
v 1.76027688 4.43169962 1.00805621
v 1.76343688 4.41106533 1.00789437
v 1.75001537 4.45482407 1.02200031
v 1.75071315 4.43979734 1.00718656
v 1.73848852 4.45907385 1.00881109
v 1.75083335 4.44118204 1.04509093
v 1.73859415 4.46029219 1.04214138
v 1.75403625 4.37924101 1.04827971
v 2.06956089 3.22085073 1.08960690
v 1.50189008 4.31067852 1.05158477
v 1.81741485 3.15228848 1.09291195
v 1.61663944 4.38652162 1.04822852
v 1.95481013 3.14499133 1.09252181
v 1.75391007 4.37778757 1.00850667
v 2.06943494 3.21939752 1.04983385
v 1.50176391 4.30922508 1.01181174
v 1.81728866 3.15083527 1.05313890
v 1.61651478 4.38508471 1.00889681
v 1.95468546 3.14355418 1.05319013
f 1 47 44
f 1 44 43
f 1 43 45
f 1 45 46
f 1 46 47
f 2 49 52
f 6 72 70
f 12 102 99
f 11 96 95
f 8 79 81
f 4 62 59
f 4 59 58
f 4 58 60
f 4 60 61
f 4 61 62
f 5 66 65
f 3 54 57
f 7 73 77
f 9 85 86
f 10 92 88
f 12 101 98
f 6 69 68
f 2 50 48
f 8 82 78
f 11 97 93
f 6 71 69
f 12 100 101
f 11 94 97
f 8 80 82
f 2 51 50
f 10 90 89
f 5 63 64
f 3 55 53
f 7 76 74
f 9 87 84
f 10 91 90
f 5 67 63
f 3 56 55
f 7 75 76
f 9 83 87
f 6 68 72
f 2 48 49
f 8 78 79
f 11 93 96
f 12 98 102
f 10 88 91
f 5 65 67
f 3 57 56
f 7 77 75
f 9 86 83
f 5 64 66
f 3 53 54
f 7 74 73
f 9 84 85
f 10 89 92
f 6 70 71
f 12 99 100
f 11 95 94
f 8 81 80
f 2 52 51
f 35 109 116
f 18 105 108
f 19 111 106
f 40 114 112
f 42 117 115
f 34 125 119
f 33 152 156
f 25 137 139
f 36 158 160
f 20 123 120
f 32 143 149
f 23 127 132
f 24 135 128
f 37 147 145
f 41 150 148
f 34 153 155
f 33 140 133
f 25 138 134
f 36 159 157
f 20 122 124
f 17 107 47
f 14 103 44
f 13 104 43
f 15 110 45
f 16 113 46
f 18 118 49
f 35 154 72
f 42 141 102
f 40 162 96
f 19 121 79
f 30 142 62
f 27 129 59
f 22 130 58
f 28 144 60
f 29 146 61
f 32 151 66
f 23 131 54
f 24 136 73
f 37 161 85
f 41 126 92
f 35 116 101
f 18 108 69
f 19 106 50
f 40 112 82
f 42 115 97
f 34 119 71
f 33 156 100
f 25 139 94
f 36 160 80
f 20 120 51
f 32 149 90
f 23 132 63
f 24 128 55
f 37 145 76
f 41 148 87
f 34 155 91
f 33 133 67
f 25 134 56
f 36 157 75
f 20 124 83
f 14 109 68
f 13 105 48
f 15 111 78
f 16 114 93
f 17 117 98
f 21 125 88
f 31 152 65
f 26 137 57
f 38 158 77
f 39 123 86
f 27 143 64
f 22 127 53
f 28 135 74
f 29 147 84
f 30 150 89
f 31 153 70
f 26 140 99
f 38 138 95
f 39 159 81
f 21 122 52
f 14 107 109
f 13 103 105
f 15 104 111
f 16 110 114
f 17 113 117
f 21 118 125
f 31 154 152
f 26 141 137
f 38 162 158
f 39 121 123
f 27 142 143
f 22 129 127
f 28 130 135
f 29 144 147
f 30 146 150
f 31 151 153
f 26 131 140
f 38 136 138
f 39 161 159
f 21 126 122
f 14 44 107
f 13 43 103
f 15 45 104
f 16 46 110
f 17 47 113
f 21 52 118
f 31 70 154
f 26 99 141
f 38 95 162
f 39 81 121
f 27 59 142
f 22 58 129
f 28 60 130
f 29 61 144
f 30 62 146
f 31 65 151
f 26 57 131
f 38 77 136
f 39 86 161
f 21 88 126
f 17 98 116
f 14 68 108
f 13 48 106
f 15 78 112
f 16 93 115
f 18 69 119
f 35 101 156
f 42 97 139
f 40 82 160
f 19 50 120
f 30 89 149
f 27 64 132
f 22 53 128
f 28 74 145
f 29 84 148
f 32 90 155
f 23 63 133
f 24 55 134
f 37 76 157
f 41 87 124
f 35 72 109
f 18 49 105
f 19 79 111
f 40 96 114
f 42 102 117
f 34 91 125
f 33 67 152
f 25 56 137
f 36 75 158
f 20 83 123
f 32 66 143
f 23 54 127
f 24 73 135
f 37 85 147
f 41 92 150
f 34 71 153
f 33 100 140
f 25 94 138
f 36 80 159
f 20 51 122
f 17 116 107
f 14 108 103
f 13 106 104
f 15 112 110
f 16 115 113
f 18 119 118
f 35 156 154
f 42 139 141
f 40 160 162
f 19 120 121
f 30 149 142
f 27 132 129
f 22 128 130
f 28 145 144
f 29 148 146
f 32 155 151
f 23 133 131
f 24 134 136
f 37 157 161
f 41 124 126
f 107 44 47
f 103 43 44
f 104 45 43
f 110 46 45
f 113 47 46
f 118 52 49
f 154 70 72
f 141 99 102
f 162 95 96
f 121 81 79
f 142 59 62
f 129 58 59
f 130 60 58
f 144 61 60
f 146 62 61
f 151 65 66
f 131 57 54
f 136 77 73
f 161 86 85
f 126 88 92
f 116 98 101
f 108 68 69
f 106 48 50
f 112 78 82
f 115 93 97
f 119 69 71
f 156 101 100
f 139 97 94
f 160 82 80
f 120 50 51
f 149 89 90
f 132 64 63
f 128 53 55
f 145 74 76
f 148 84 87
f 155 90 91
f 133 63 67
f 134 55 56
f 157 76 75
f 124 87 83
f 109 72 68
f 105 49 48
f 111 79 78
f 114 96 93
f 117 102 98
f 125 91 88
f 152 67 65
f 137 56 57
f 158 75 77
f 123 83 86
f 143 66 64
f 127 54 53
f 135 73 74
f 147 85 84
f 150 92 89
f 153 71 70
f 140 100 99
f 138 94 95
f 159 80 81
f 122 51 52
f 107 116 109
f 103 108 105
f 104 106 111
f 110 112 114
f 113 115 117
f 118 119 125
f 154 156 152
f 141 139 137
f 162 160 158
f 121 120 123
f 142 149 143
f 129 132 127
f 130 128 135
f 144 145 147
f 146 148 150
f 151 155 153
f 131 133 140
f 136 134 138
f 161 157 159
f 126 124 122

