# https://github.com/mikedh/trimesh
v 1.52100969 2.93023068 0.80806772
v 1.23628041 4.08078156 0.78422578
v 1.52298710 2.93291289 0.91389585
v 1.23825783 4.08346377 0.89005391
v 1.35813304 3.50258283 0.90004814
v 1.35624858 3.50002649 0.79919319
v 1.42574049 3.39318210 0.90155777
v 1.42385591 3.39062576 0.80070282
v 1.24510779 4.11415885 0.83618138
v 1.20870367 4.10516850 0.83708949
v 1.54387712 2.90687449 0.86119895
v 1.50747300 2.89788414 0.86210705
v 1.37885100 3.50553900 0.79527854
v 1.49219258 2.95471030 0.80825104
v 1.52841487 2.96365561 0.80734748
v 1.54124925 2.90839377 0.81098412
v 1.50672915 2.89986880 0.81184523
v 1.22219835 4.04571836 0.78564298
v 1.25842074 4.05466366 0.78473942
v 1.24397655 4.10963057 0.78609187
v 1.20945645 4.10110584 0.78695295
v 1.38086069 3.50826498 0.90283202
v 1.49416005 2.95737933 0.91354902
v 1.53038244 2.96632463 0.91264547
v 1.54312434 2.91093740 0.91133547
v 1.50860424 2.90241242 0.91219657
v 1.22416593 4.04838739 0.89094097
v 1.26038821 4.05733269 0.89003739
v 1.24585164 4.11217396 0.88644322
v 1.21133154 4.10364922 0.88730431
v 1.35687941 3.50122784 0.84962842
v 1.21652618 4.07494316 0.88557461
v 1.49983377 2.93013751 0.90929749
v 1.21473922 4.07251920 0.78993905
v 1.49804681 2.92771356 0.81366192
v 1.42558903 3.39004329 0.85116267
v 1.25453399 4.08432943 0.88462653
v 1.53784158 2.93952378 0.90834938
v 1.25274702 4.08190547 0.78899095
v 1.53605461 2.93709983 0.81271382
v 1.22803562 4.12038567 0.83634256
v 1.53167594 2.89341832 0.86176799
v 1.51176831 2.96659971 0.80666348
v 1.49799365 2.93615368 0.80827338
v 1.53192170 2.94453238 0.80742705
v 1.53785669 2.91724033 0.80908943
v 1.50552301 2.90925565 0.80989598
v 1.24507373 4.04427468 0.78433169
v 1.21867891 4.06482454 0.78488487
v 1.25260697 4.07320324 0.78403854
v 1.24511792 4.10015630 0.78457683
v 1.21278423 4.09217115 0.78538339
v 1.51377023 2.96931523 0.91380049
v 1.49997382 2.93883975 0.91424990
v 1.53390188 2.94721845 0.91340357
v 1.53979657 2.91987184 0.91290505
v 1.50746288 2.91188692 0.91371159
v 1.24707566 4.04698995 0.89146873
v 1.22065909 4.06751061 0.89086138
v 1.25458715 4.07588931 0.89001506
v 1.24705779 4.10278734 0.88839246
v 1.21472410 4.09480266 0.88919899
v 1.48496921 2.99175644 0.91204563
v 1.23207624 4.01366079 0.89086955
v 1.35783708 3.50244361 0.89685994
v 1.22540678 4.03869957 0.88797968
v 1.49076990 2.96640447 0.91019999
v 1.48303167 2.98912823 0.80835364
v 1.23013870 4.01103257 0.78717756
v 1.35607197 3.50004929 0.80239315
v 1.22355817 4.03619156 0.78904268
v 1.48892129 2.96389693 0.81126295
v 1.52244209 3.00101042 0.91111088
v 1.26954912 4.02291477 0.88993480
v 1.42628068 3.39168967 0.89838825
v 1.26365950 4.04814606 0.88702549
v 1.52902262 2.97585142 0.90924577
v 1.52050455 2.99838220 0.80741889
v 1.26761159 4.02028654 0.78624281
v 1.42451557 3.38929535 0.80392145
v 1.26181090 4.04563851 0.78808846
v 1.52717402 2.97334365 0.81030874
v 1.24367401 4.11372846 0.78917491
v 1.24543038 4.11611074 0.88317009
v 1.24929754 4.10394134 0.88119552
v 1.24762373 4.10167062 0.79161747
v 1.24210717 4.12133996 0.83605544
v 1.20796221 4.10490928 0.79006572
v 1.20971857 4.10729156 0.88406091
v 1.21186937 4.09469826 0.88212917
v 1.21019557 4.09242754 0.79255110
v 1.20800896 4.11291954 0.83690600
v 1.54286222 2.90475120 0.81422754
v 1.54461859 2.90713371 0.90822270
v 1.54238523 2.91961521 0.90573736
v 1.54071142 2.91734472 0.81615927
v 1.54457184 2.89912369 0.86138242
v 1.50715042 2.89593201 0.81511836
v 1.50890678 2.89831453 0.90911354
v 1.50495706 2.91037214 0.90667100
v 1.50328325 2.90810165 0.81709292
v 1.51047361 2.89070303 0.86223300
v 1.48489768 2.98893720 0.80666042
v 1.51886427 2.99732562 0.80581311
v 1.23171690 4.01200478 0.78546023
v 1.26568348 4.02039344 0.78461291
v 1.50146480 2.91857427 0.80983919
v 1.35709940 3.50018523 0.79668445
v 1.49601894 2.93689503 0.81028816
v 1.53710577 2.92737591 0.80895015
v 1.42153047 3.39592426 0.79812316
v 1.53341693 2.94613052 0.80935528
v 1.52824032 2.90197024 0.81113737
v 1.54002596 2.91833331 0.81156112
v 1.54265666 2.89841313 0.81433848
v 1.50321320 2.90924220 0.81247941
v 1.51028613 2.89041898 0.81514596
v 1.21353911 4.08204081 0.78572965
v 1.21725817 4.06332754 0.78694601
v 1.24918008 4.09084245 0.78484060
v 1.25465629 4.07256304 0.78601313
v 1.22947229 4.10924911 0.78611993
v 1.24752255 4.10029835 0.78706823
v 1.24053629 4.11923883 0.78904031
v 1.21070978 4.09120700 0.78798653
v 1.20816576 4.11124466 0.78984778
v 1.48689732 2.99164980 0.91367551
v 1.52086390 3.00003797 0.91282822
v 1.23371653 4.01471737 0.89247533
v 1.26768311 4.02310556 0.89162803
v 1.50340071 2.92120030 0.91344786
v 1.35907680 3.50286741 0.90251209
v 1.49792450 2.93947996 0.91227530
v 1.53904169 2.93000218 0.91255878
v 1.42350788 3.39860643 0.90395080
v 1.53532262 2.94871568 0.91134241
v 1.53012480 2.90452643 0.91199350
v 1.54187100 2.92083599 0.91030191
v 1.54441504 2.90079832 0.90844065
v 1.50505825 2.91174488 0.91122019
v 1.51204450 2.89280416 0.90924813
v 1.21547502 4.08466708 0.88933830
v 1.21916387 4.06591224 0.88893318
v 1.25111600 4.09346872 0.88844925
v 1.25656186 4.07514820 0.88800026
v 1.23135690 4.11180554 0.88697604
v 1.24936759 4.10280103 0.88580900
v 1.24229467 4.12162402 0.88314246
v 1.21255483 4.09370969 0.88672731
v 1.20992413 4.11362985 0.88394996
v 1.22498187 4.03914586 0.88334325
v 1.49064701 2.96563069 0.90558882
v 1.22330617 4.03687311 0.79366318
v 1.48897131 2.96335770 0.81590877
v 1.21482457 4.07658677 0.83769956
v 1.49955715 2.92602277 0.86154175
v 1.26360948 4.04868528 0.88237968
v 1.52927462 2.97517011 0.90462524
v 1.26193379 4.04641206 0.79269965
v 1.52759893 2.97289688 0.81494522
v 1.25302364 4.08601999 0.83674670
v 1.53775622 2.93545621 0.86058889
f 1 47 44
f 1 44 43
f 1 43 45
f 1 45 46
f 1 46 47
f 2 49 52
f 6 72 70
f 12 102 99
f 11 96 95
f 8 79 81
f 4 62 59
f 4 59 58
f 4 58 60
f 4 60 61
f 4 61 62
f 5 66 65
f 3 54 57
f 7 73 77
f 9 85 86
f 10 92 88
f 12 101 98
f 6 69 68
f 2 50 48
f 8 82 78
f 11 97 93
f 6 71 69
f 12 100 101
f 11 94 97
f 8 80 82
f 2 51 50
f 10 90 89
f 5 63 64
f 3 55 53
f 7 76 74
f 9 87 84
f 10 91 90
f 5 67 63
f 3 56 55
f 7 75 76
f 9 83 87
f 6 68 72
f 2 48 49
f 8 78 79
f 11 93 96
f 12 98 102
f 10 88 91
f 5 65 67
f 3 57 56
f 7 77 75
f 9 86 83
f 5 64 66
f 3 53 54
f 7 74 73
f 9 84 85
f 10 89 92
f 6 70 71
f 12 99 100
f 11 95 94
f 8 81 80
f 2 52 51
f 35 109 116
f 18 105 108
f 19 111 106
f 40 114 112
f 42 117 115
f 34 125 119
f 33 152 156
f 25 137 139
f 36 158 160
f 20 123 120
f 32 143 149
f 23 127 132
f 24 135 128
f 37 147 145
f 41 150 148
f 34 153 155
f 33 140 133
f 25 138 134
f 36 159 157
f 20 122 124
f 17 107 47
f 14 103 44
f 13 104 43
f 15 110 45
f 16 113 46
f 18 118 49
f 35 154 72
f 42 141 102
f 40 162 96
f 19 121 79
f 30 142 62
f 27 129 59
f 22 130 58
f 28 144 60
f 29 146 61
f 32 151 66
f 23 131 54
f 24 136 73
f 37 161 85
f 41 126 92
f 35 116 101
f 18 108 69
f 19 106 50
f 40 112 82
f 42 115 97
f 34 119 71
f 33 156 100
f 25 139 94
f 36 160 80
f 20 120 51
f 32 149 90
f 23 132 63
f 24 128 55
f 37 145 76
f 41 148 87
f 34 155 91
f 33 133 67
f 25 134 56
f 36 157 75
f 20 124 83
f 14 109 68
f 13 105 48
f 15 111 78
f 16 114 93
f 17 117 98
f 21 125 88
f 31 152 65
f 26 137 57
f 38 158 77
f 39 123 86
f 27 143 64
f 22 127 53
f 28 135 74
f 29 147 84
f 30 150 89
f 31 153 70
f 26 140 99
f 38 138 95
f 39 159 81
f 21 122 52
f 14 107 109
f 13 103 105
f 15 104 111
f 16 110 114
f 17 113 117
f 21 118 125
f 31 154 152
f 26 141 137
f 38 162 158
f 39 121 123
f 27 142 143
f 22 129 127
f 28 130 135
f 29 144 147
f 30 146 150
f 31 151 153
f 26 131 140
f 38 136 138
f 39 161 159
f 21 126 122
f 14 44 107
f 13 43 103
f 15 45 104
f 16 46 110
f 17 47 113
f 21 52 118
f 31 70 154
f 26 99 141
f 38 95 162
f 39 81 121
f 27 59 142
f 22 58 129
f 28 60 130
f 29 61 144
f 30 62 146
f 31 65 151
f 26 57 131
f 38 77 136
f 39 86 161
f 21 88 126
f 17 98 116
f 14 68 108
f 13 48 106
f 15 78 112
f 16 93 115
f 18 69 119
f 35 101 156
f 42 97 139
f 40 82 160
f 19 50 120
f 30 89 149
f 27 64 132
f 22 53 128
f 28 74 145
f 29 84 148
f 32 90 155
f 23 63 133
f 24 55 134
f 37 76 157
f 41 87 124
f 35 72 109
f 18 49 105
f 19 79 111
f 40 96 114
f 42 102 117
f 34 91 125
f 33 67 152
f 25 56 137
f 36 75 158
f 20 83 123
f 32 66 143
f 23 54 127
f 24 73 135
f 37 85 147
f 41 92 150
f 34 71 153
f 33 100 140
f 25 94 138
f 36 80 159
f 20 51 122
f 17 116 107
f 14 108 103
f 13 106 104
f 15 112 110
f 16 115 113
f 18 119 118
f 35 156 154
f 42 139 141
f 40 160 162
f 19 120 121
f 30 149 142
f 27 132 129
f 22 128 130
f 28 145 144
f 29 148 146
f 32 155 151
f 23 133 131
f 24 134 136
f 37 157 161
f 41 124 126
f 107 44 47
f 103 43 44
f 104 45 43
f 110 46 45
f 113 47 46
f 118 52 49
f 154 70 72
f 141 99 102
f 162 95 96
f 121 81 79
f 142 59 62
f 129 58 59
f 130 60 58
f 144 61 60
f 146 62 61
f 151 65 66
f 131 57 54
f 136 77 73
f 161 86 85
f 126 88 92
f 116 98 101
f 108 68 69
f 106 48 50
f 112 78 82
f 115 93 97
f 119 69 71
f 156 101 100
f 139 97 94
f 160 82 80
f 120 50 51
f 149 89 90
f 132 64 63
f 128 53 55
f 145 74 76
f 148 84 87
f 155 90 91
f 133 63 67
f 134 55 56
f 157 76 75
f 124 87 83
f 109 72 68
f 105 49 48
f 111 79 78
f 114 96 93
f 117 102 98
f 125 91 88
f 152 67 65
f 137 56 57
f 158 75 77
f 123 83 86
f 143 66 64
f 127 54 53
f 135 73 74
f 147 85 84
f 150 92 89
f 153 71 70
f 140 100 99
f 138 94 95
f 159 80 81
f 122 51 52
f 107 116 109
f 103 108 105
f 104 106 111
f 110 112 114
f 113 115 117
f 118 119 125
f 154 156 152
f 141 139 137
f 162 160 158
f 121 120 123
f 142 149 143
f 129 132 127
f 130 128 135
f 144 145 147
f 146 148 150
f 151 155 153
f 131 133 140
f 136 134 138
f 161 157 159
f 126 124 122

