# https://github.com/mikedh/trimesh
v 4.18166378 4.14944877 2.17557182
v 4.01951467 4.72389407 2.16513206
v 4.17829308 4.15059699 2.29112113
v 4.01614421 4.72504229 2.28068137
v 4.07505376 4.43150307 2.28259996
v 4.07826562 4.43040862 2.17248068
v 4.12966245 4.38287724 2.28467615
v 4.13287430 4.38178232 2.17455691
v 4.02855903 4.74279526 2.22303762
v 3.99247696 4.73259303 2.22208645
v 4.19870376 4.14002425 2.23399210
v 4.16262145 4.12982202 2.23304094
v 4.10083670 4.43672440 2.16941586
v 4.15619509 4.15830326 2.17503062
v 4.19209683 4.16845442 2.17597687
v 4.19894190 4.14072548 2.17915523
v 4.16472723 4.13105119 2.17825339
v 4.00243731 4.70302027 2.16513107
v 4.03833930 4.71317144 2.16607743
v 4.02964945 4.74047685 2.16825564
v 3.99543479 4.73080304 2.16735376
v 4.09741120 4.43789142 2.28684897
v 4.15284142 4.15944584 2.29000111
v 4.18874317 4.16959701 2.29094748
v 4.19574594 4.14181425 2.28872478
v 4.16153079 4.13214044 2.28782292
v 3.99908364 4.70416286 2.28010168
v 4.03498563 4.71431402 2.28104792
v 4.02645349 4.74156610 2.27782516
v 3.99223859 4.73189181 2.27692333
v 4.07635112 4.43086890 2.22753216
v 3.99456185 4.71729017 2.27455922
v 4.15590130 4.14571307 2.28494680
v 3.99760769 4.71625256 2.17013876
v 4.15894716 4.14467546 2.18052634
v 4.13184990 4.38144959 2.22964230
v 4.03223332 4.72794181 2.27555223
v 4.19357279 4.15636472 2.28593980
v 4.03527917 4.72690421 2.17113176
v 4.19661864 4.15532711 2.18151933
v 4.01266477 4.74360697 2.22256586
v 4.18558339 4.13100837 2.23369900
v 4.17633963 4.16757488 2.17452116
v 4.15999680 4.14921899 2.17486100
v 4.19362442 4.15872711 2.17574748
v 4.19662231 4.14497388 2.17715240
v 4.16457477 4.13591229 2.17630762
v 4.02446081 4.70563491 2.16474268
v 4.00093103 4.71273987 2.16461984
v 4.03455913 4.72224845 2.16550615
v 4.02991206 4.73557840 2.16641892
v 3.99786454 4.72651683 2.16557426
v 4.17292731 4.16873766 2.29149951
v 4.15662135 4.15036883 2.29057241
v 4.19024944 4.15987741 2.29145873
v 4.19331619 4.14610045 2.29050428
v 4.16126818 4.13703888 2.28965965
v 4.02104873 4.70679769 2.28172102
v 3.99755582 4.71389018 2.28033109
v 4.03118392 4.72339830 2.28121756
v 4.02660571 4.73670499 2.27977093
v 3.99455793 4.72764341 2.27892617
v 4.14737757 4.17651313 2.28879450
v 4.00335909 4.68672804 2.27952210
v 4.07492102 4.43140254 2.27910629
v 3.99949728 4.69917230 2.27668743
v 4.15061788 4.16379845 2.28641701
v 4.15068012 4.17538742 2.17557759
v 4.00666140 4.68560279 2.16630504
v 4.07792977 4.43037717 2.17596192
v 4.00264848 4.69809831 2.16866219
v 4.15376860 4.16272495 2.17839175
v 4.18451885 4.18701448 2.28977352
v 4.04050035 4.69722986 2.28050096
v 4.13020539 4.38217492 2.28120823
v 4.03741164 4.70989234 2.27768682
v 4.18853201 4.17451897 2.28741637
v 4.18782140 4.18588924 2.17655646
v 4.04380292 4.69610416 2.16728406
v 4.13321412 4.38114957 2.17806386
v 4.04056285 4.70881883 2.16966155
v 4.19168321 4.17344499 2.17939114
v 4.02959333 4.74261092 2.17170608
v 4.02659974 4.74363103 2.27433554
v 4.02925780 4.73769381 2.27205835
v 4.03211073 4.73672148 2.17425186
v 4.02636397 4.74619967 2.22293973
v 3.99419741 4.73260283 2.17077312
v 3.99120382 4.73362293 2.27340258
v 3.99216071 4.72720450 2.27108051
v 3.99501364 4.72623216 2.17327403
v 3.99256749 4.73664387 2.22204882
v 4.19997642 4.13899436 2.18267598
v 4.19698306 4.14001446 2.28530543
v 4.19616684 4.14638512 2.28280452
v 4.19902001 4.14541279 2.18499803
v 4.19861323 4.13597341 2.23402973
v 4.16458051 4.12898625 2.18174303
v 4.16158716 4.13000635 2.28437248
v 4.15906998 4.13589581 2.28182668
v 4.16192267 4.13492347 2.18402021
v 4.16481652 4.12641761 2.23313883
v 4.15255267 4.17557035 2.17381447
v 4.18621897 4.18508952 2.17470178
v 4.00836998 4.68636615 2.16453147
v 4.04203605 4.69588533 2.16541878
v 4.16156179 4.14030542 2.17628921
v 4.07923444 4.43063344 2.16978928
v 4.15805576 4.14931291 2.17698343
v 4.19688748 4.15029376 2.17722026
v 4.13127721 4.38429172 2.17176804
v 4.19512299 4.15979403 2.17796044
v 4.18574539 4.13536018 2.17854785
v 4.19869435 4.14586625 2.17997703
v 4.19915715 4.13556772 2.18262776
v 4.16220747 4.13554939 2.17901534
v 4.16707332 4.12649603 2.18178203
v 3.99759249 4.72119941 2.16573227
v 3.99930560 4.71171643 2.16676262
v 4.03291843 4.73118777 2.16666344
v 4.03637284 4.72219755 2.16773964
v 4.01560161 4.73812881 2.16759341
v 4.03211799 4.73599594 2.16925238
v 4.02710432 4.74509985 2.17155031
v 3.99563086 4.72567954 2.16829053
v 3.99502026 4.73602815 2.17070458
v 4.14914444 4.17673195 2.29065977
v 4.18281074 4.18625112 2.29154708
v 4.00496175 4.68752775 2.28137677
v 4.03862782 4.69704694 2.28226408
v 4.15826205 4.14142952 2.28941513
v 4.07586373 4.43178162 2.28533811
v 4.15480764 4.15041974 2.28833892
v 4.19358775 4.15141787 2.29034629
v 4.12790697 4.38543990 2.28731685
v 4.19187488 4.16090086 2.28931594
v 4.18253309 4.13645474 2.28866844
v 4.19554938 4.14693773 2.28778803
v 4.19616023 4.13658913 2.28537397
v 4.15906249 4.13662134 2.28682618
v 4.16407640 4.12751743 2.28452824
v 3.99429277 4.72232352 2.27885831
v 3.99605749 4.71282324 2.27811811
v 4.02961846 4.73231187 2.27978935
v 4.03312473 4.72330436 2.27909513
v 4.01238932 4.73922337 2.27771400
v 4.02897325 4.73706790 2.27706321
v 4.02410717 4.74612126 2.27429653
v 3.99248612 4.72675104 2.27610152
v 3.99202309 4.73704956 2.27345080
v 3.99937309 4.69937394 2.27162323
v 4.15066524 4.16339102 2.28136406
v 4.00222926 4.69840073 2.17370534
v 4.15352164 4.16241780 2.18344605
v 3.99558407 4.71818208 2.22232042
v 4.15773530 4.14373009 2.23276018
v 4.03765884 4.71019948 2.27263250
v 4.18895146 4.17421655 2.28237320
v 4.04051524 4.70922627 2.17471449
v 4.19180739 4.17324335 2.18445532
v 4.03344542 4.72888720 2.22331838
v 4.19559641 4.15443519 2.23375813
f 1 47 44
f 1 44 43
f 1 43 45
f 1 45 46
f 1 46 47
f 2 49 52
f 6 72 70
f 12 102 99
f 11 96 95
f 8 79 81
f 4 62 59
f 4 59 58
f 4 58 60
f 4 60 61
f 4 61 62
f 5 66 65
f 3 54 57
f 7 73 77
f 9 85 86
f 10 92 88
f 12 101 98
f 6 69 68
f 2 50 48
f 8 82 78
f 11 97 93
f 6 71 69
f 12 100 101
f 11 94 97
f 8 80 82
f 2 51 50
f 10 90 89
f 5 63 64
f 3 55 53
f 7 76 74
f 9 87 84
f 10 91 90
f 5 67 63
f 3 56 55
f 7 75 76
f 9 83 87
f 6 68 72
f 2 48 49
f 8 78 79
f 11 93 96
f 12 98 102
f 10 88 91
f 5 65 67
f 3 57 56
f 7 77 75
f 9 86 83
f 5 64 66
f 3 53 54
f 7 74 73
f 9 84 85
f 10 89 92
f 6 70 71
f 12 99 100
f 11 95 94
f 8 81 80
f 2 52 51
f 35 109 116
f 18 105 108
f 19 111 106
f 40 114 112
f 42 117 115
f 34 125 119
f 33 152 156
f 25 137 139
f 36 158 160
f 20 123 120
f 32 143 149
f 23 127 132
f 24 135 128
f 37 147 145
f 41 150 148
f 34 153 155
f 33 140 133
f 25 138 134
f 36 159 157
f 20 122 124
f 17 107 47
f 14 103 44
f 13 104 43
f 15 110 45
f 16 113 46
f 18 118 49
f 35 154 72
f 42 141 102
f 40 162 96
f 19 121 79
f 30 142 62
f 27 129 59
f 22 130 58
f 28 144 60
f 29 146 61
f 32 151 66
f 23 131 54
f 24 136 73
f 37 161 85
f 41 126 92
f 35 116 101
f 18 108 69
f 19 106 50
f 40 112 82
f 42 115 97
f 34 119 71
f 33 156 100
f 25 139 94
f 36 160 80
f 20 120 51
f 32 149 90
f 23 132 63
f 24 128 55
f 37 145 76
f 41 148 87
f 34 155 91
f 33 133 67
f 25 134 56
f 36 157 75
f 20 124 83
f 14 109 68
f 13 105 48
f 15 111 78
f 16 114 93
f 17 117 98
f 21 125 88
f 31 152 65
f 26 137 57
f 38 158 77
f 39 123 86
f 27 143 64
f 22 127 53
f 28 135 74
f 29 147 84
f 30 150 89
f 31 153 70
f 26 140 99
f 38 138 95
f 39 159 81
f 21 122 52
f 14 107 109
f 13 103 105
f 15 104 111
f 16 110 114
f 17 113 117
f 21 118 125
f 31 154 152
f 26 141 137
f 38 162 158
f 39 121 123
f 27 142 143
f 22 129 127
f 28 130 135
f 29 144 147
f 30 146 150
f 31 151 153
f 26 131 140
f 38 136 138
f 39 161 159
f 21 126 122
f 14 44 107
f 13 43 103
f 15 45 104
f 16 46 110
f 17 47 113
f 21 52 118
f 31 70 154
f 26 99 141
f 38 95 162
f 39 81 121
f 27 59 142
f 22 58 129
f 28 60 130
f 29 61 144
f 30 62 146
f 31 65 151
f 26 57 131
f 38 77 136
f 39 86 161
f 21 88 126
f 17 98 116
f 14 68 108
f 13 48 106
f 15 78 112
f 16 93 115
f 18 69 119
f 35 101 156
f 42 97 139
f 40 82 160
f 19 50 120
f 30 89 149
f 27 64 132
f 22 53 128
f 28 74 145
f 29 84 148
f 32 90 155
f 23 63 133
f 24 55 134
f 37 76 157
f 41 87 124
f 35 72 109
f 18 49 105
f 19 79 111
f 40 96 114
f 42 102 117
f 34 91 125
f 33 67 152
f 25 56 137
f 36 75 158
f 20 83 123
f 32 66 143
f 23 54 127
f 24 73 135
f 37 85 147
f 41 92 150
f 34 71 153
f 33 100 140
f 25 94 138
f 36 80 159
f 20 51 122
f 17 116 107
f 14 108 103
f 13 106 104
f 15 112 110
f 16 115 113
f 18 119 118
f 35 156 154
f 42 139 141
f 40 160 162
f 19 120 121
f 30 149 142
f 27 132 129
f 22 128 130
f 28 145 144
f 29 148 146
f 32 155 151
f 23 133 131
f 24 134 136
f 37 157 161
f 41 124 126
f 107 44 47
f 103 43 44
f 104 45 43
f 110 46 45
f 113 47 46
f 118 52 49
f 154 70 72
f 141 99 102
f 162 95 96
f 121 81 79
f 142 59 62
f 129 58 59
f 130 60 58
f 144 61 60
f 146 62 61
f 151 65 66
f 131 57 54
f 136 77 73
f 161 86 85
f 126 88 92
f 116 98 101
f 108 68 69
f 106 48 50
f 112 78 82
f 115 93 97
f 119 69 71
f 156 101 100
f 139 97 94
f 160 82 80
f 120 50 51
f 149 89 90
f 132 64 63
f 128 53 55
f 145 74 76
f 148 84 87
f 155 90 91
f 133 63 67
f 134 55 56
f 157 76 75
f 124 87 83
f 109 72 68
f 105 49 48
f 111 79 78
f 114 96 93
f 117 102 98
f 125 91 88
f 152 67 65
f 137 56 57
f 158 75 77
f 123 83 86
f 143 66 64
f 127 54 53
f 135 73 74
f 147 85 84
f 150 92 89
f 153 71 70
f 140 100 99
f 138 94 95
f 159 80 81
f 122 51 52
f 107 116 109
f 103 108 105
f 104 106 111
f 110 112 114
f 113 115 117
f 118 119 125
f 154 156 152
f 141 139 137
f 162 160 158
f 121 120 123
f 142 149 143
f 129 132 127
f 130 128 135
f 144 145 147
f 146 148 150
f 151 155 153
f 131 133 140
f 136 134 138
f 161 157 159
f 126 124 122

