# https://github.com/mikedh/trimesh
v 1.81020197 3.09739736 1.06014984
v 1.62844138 3.79770075 1.01536530
v 2.10876099 3.17645225 1.08462654
v 1.92700052 3.87675565 1.03984199
v 2.00873624 3.52566505 1.08466651
v 1.72420736 3.45032519 1.06134004
v 2.03113386 3.45177084 1.05013220
v 1.74660487 3.37643097 1.02680573
v 1.77464951 3.85388622 1.01126707
v 1.77119536 3.85537624 1.04858669
v 1.96537271 3.11905056 1.05825996
v 1.96191855 3.12054058 1.09557959
v 1.71690896 3.44689548 1.03733040
v 1.80421089 3.11659435 1.08104636
v 1.80764784 3.11511174 1.04391309
v 1.82325152 3.08344777 1.04750294
v 1.81997621 3.08486084 1.08289121
v 1.63185675 3.78065609 1.03857950
v 1.63529358 3.77917348 1.00144620
v 1.63348367 3.81460239 1.00074544
v 1.63020836 3.81601522 1.03613373
v 2.02033575 3.52723938 1.06220615
v 2.10127436 3.19525332 1.10540046
v 2.10471144 3.19377071 1.06826715
v 2.10635982 3.15841157 1.07071289
v 2.10308440 3.15982441 1.10610121
v 1.92892022 3.85931506 1.06293356
v 1.93235718 3.85783244 1.02580029
v 1.91659186 3.88956596 1.02395545
v 1.91331655 3.89097903 1.05934371
v 1.86644222 3.48800800 1.07332249
v 1.91095648 3.87211502 1.06168435
v 2.09180942 3.17530847 1.10624528
v 1.64115231 3.80067404 1.03956509
v 1.82200525 3.10386749 1.08412598
v 1.88920496 3.41290884 1.03822516
v 1.91456281 3.87055931 1.02272066
v 2.09541587 3.17375276 1.06728156
v 1.64475854 3.79911832 1.00060137
v 1.82561158 3.10231178 1.04516230
v 1.77170604 3.86047552 1.02588875
v 1.96553867 3.11365958 1.07364778
v 1.80257923 3.11909558 1.05879726
v 1.80633759 3.10483192 1.08052492
v 1.80955683 3.10344303 1.04574362
v 1.81681396 3.08777436 1.04786648
v 1.81374608 3.08909784 1.08101329
v 1.63233135 3.77504204 1.01684936
v 1.62803354 3.79181782 1.03659202
v 1.63125267 3.79042918 1.00181070
v 1.62994047 3.80777732 1.00182213
v 1.62687258 3.80910082 1.03496897
v 2.10483109 3.19912837 1.08357665
v 2.10531528 3.18399762 1.10503595
v 2.10853464 3.18260897 1.07025463
v 2.10969549 3.16532598 1.07187768
v 2.10662761 3.16664946 1.10502452
v 1.93458309 3.85507482 1.04162875
v 1.92701125 3.87098377 1.06110303
v 1.93023049 3.86959488 1.02632173
v 1.92282199 3.88532894 1.02583336
v 1.91975410 3.88665244 1.05898016
v 2.09349146 3.21570953 1.10451078
v 1.93205392 3.83771032 1.06473369
v 1.99970286 3.52328876 1.08416990
v 1.92132932 3.85128580 1.06360291
v 2.09072737 3.19861416 1.10534138
v 1.80095864 3.13825032 1.08052814
v 1.63952123 3.76025113 1.04075106
v 1.73319594 3.45272101 1.06232094
v 1.64221126 3.77737859 1.04072003
v 1.81160919 3.12470696 1.08245850
v 2.09704695 3.21417567 1.06609559
v 1.93560942 3.83617647 1.02631851
v 2.02237737 3.44848069 1.04920847
v 1.92495888 3.84971984 1.02438815
v 2.09435693 3.19704821 1.06612662
v 1.80451415 3.13671647 1.04211295
v 1.64307673 3.75871727 1.00233587
v 1.75587056 3.37791270 1.02735952
v 1.64584071 3.77581264 1.00150527
v 1.81523876 3.12314100 1.04324374
v 1.64189468 3.81930768 1.00071901
v 1.90707108 3.88952315 1.02245893
v 1.90286905 3.88033603 1.02154812
v 1.65015407 3.81342005 1.00082986
v 1.77336064 3.85847763 1.01215837
v 1.63850625 3.82076951 1.03732897
v 1.90368265 3.89098498 1.05906886
v 1.89931770 3.88186810 1.05991757
v 1.64660271 3.81495212 1.03919928
v 1.77012530 3.85987320 1.04711418
v 1.83288541 3.08344181 1.04777779
v 2.09806182 3.15365729 1.06951768
v 2.08996524 3.15947468 1.06764737
v 1.83725037 3.09255869 1.04692908
v 1.96644276 3.11455359 1.05973247
v 1.82949699 3.08490365 1.08438773
v 2.09467327 3.15511912 1.10612764
v 2.08641400 3.16100675 1.10601679
v 1.83369901 3.09409077 1.08529854
v 1.96320743 3.11594916 1.09468828
v 1.79652926 3.13658341 1.07836932
v 1.79975221 3.13519300 1.04354844
v 1.63490805 3.75929220 1.03854697
v 1.63813101 3.75790179 1.00372610
v 1.81234489 3.09516173 1.08235397
v 1.71727805 3.44843111 1.05984509
v 1.81162352 3.10707410 1.08272136
v 1.81572655 3.09370290 1.04581663
v 1.73862340 3.37800860 1.02693324
v 1.81517201 3.10554333 1.04438274
v 1.82171201 3.08198331 1.06165989
v 1.82410989 3.08986742 1.04613896
v 1.83351188 3.07986438 1.04970870
v 1.82061695 3.09137432 1.08387753
v 1.83044048 3.08118924 1.08289327
v 1.62854382 3.80332696 1.03706665
v 1.63367303 3.79269759 1.03887560
v 1.63192549 3.80186813 1.00052931
v 1.63722152 3.79116682 1.00053699
v 1.63098966 3.81681540 1.01466723
v 1.63738652 3.80929187 1.00013162
v 1.64064947 3.82294193 1.00218875
v 1.63389369 3.81079877 1.03787020
v 1.63757807 3.82426703 1.03537330
v 2.09843706 3.21652501 1.10312056
v 2.10165990 3.21513460 1.06829968
v 1.93681586 3.83923379 1.06329821
v 1.94003882 3.83784339 1.02847733
v 2.10464259 3.17255867 1.10631734
v 2.01583575 3.52748574 1.08432166
v 2.09934668 3.18325998 1.10630966
v 2.10802425 3.17109983 1.06978000
v 2.03718122 3.45706324 1.05140983
v 2.10289493 3.18172921 1.06797106
v 2.10624412 3.15732416 1.08498662
v 2.10267437 3.16362802 1.06897645
v 2.09899001 3.15015977 1.07147335
v 2.09918143 3.16513493 1.10671504
v 2.09591859 3.15148487 1.10465790
v 1.92084152 3.88072390 1.06103001
v 1.92139607 3.86888347 1.06246391
v 1.92422319 3.87926506 1.02449268
v 1.92494454 3.86735270 1.02412529
v 1.91552187 3.89215624 1.03799396
v 1.91595112 3.88305247 1.02296912
v 1.90612759 3.89323755 1.02395338
v 1.91245818 3.88455938 1.06070769
v 1.90305619 3.89456242 1.05713795
v 1.90815741 3.84820731 1.06270080
v 2.07774829 3.19479271 1.10448680
v 1.65515481 3.78121509 1.04195897
v 1.82474557 3.12780073 1.08374493
v 1.77559050 3.83815108 1.05061062
v 1.95735322 3.13783936 1.09539572
v 1.91182251 3.84662607 1.02310172
v 2.08141339 3.19321171 1.06488768
v 1.65881991 3.77963409 1.00235986
v 1.82841067 3.12621949 1.04414584
v 1.77921485 3.83658743 1.01145093
v 1.96097758 3.13627570 1.05623603
f 1 47 44
f 1 44 43
f 1 43 45
f 1 45 46
f 1 46 47
f 2 49 52
f 6 72 70
f 12 102 99
f 11 96 95
f 8 79 81
f 4 62 59
f 4 59 58
f 4 58 60
f 4 60 61
f 4 61 62
f 5 66 65
f 3 54 57
f 7 73 77
f 9 85 86
f 10 92 88
f 12 101 98
f 6 69 68
f 2 50 48
f 8 82 78
f 11 97 93
f 6 71 69
f 12 100 101
f 11 94 97
f 8 80 82
f 2 51 50
f 10 90 89
f 5 63 64
f 3 55 53
f 7 76 74
f 9 87 84
f 10 91 90
f 5 67 63
f 3 56 55
f 7 75 76
f 9 83 87
f 6 68 72
f 2 48 49
f 8 78 79
f 11 93 96
f 12 98 102
f 10 88 91
f 5 65 67
f 3 57 56
f 7 77 75
f 9 86 83
f 5 64 66
f 3 53 54
f 7 74 73
f 9 84 85
f 10 89 92
f 6 70 71
f 12 99 100
f 11 95 94
f 8 81 80
f 2 52 51
f 35 109 116
f 18 105 108
f 19 111 106
f 40 114 112
f 42 117 115
f 34 125 119
f 33 152 156
f 25 137 139
f 36 158 160
f 20 123 120
f 32 143 149
f 23 127 132
f 24 135 128
f 37 147 145
f 41 150 148
f 34 153 155
f 33 140 133
f 25 138 134
f 36 159 157
f 20 122 124
f 17 107 47
f 14 103 44
f 13 104 43
f 15 110 45
f 16 113 46
f 18 118 49
f 35 154 72
f 42 141 102
f 40 162 96
f 19 121 79
f 30 142 62
f 27 129 59
f 22 130 58
f 28 144 60
f 29 146 61
f 32 151 66
f 23 131 54
f 24 136 73
f 37 161 85
f 41 126 92
f 35 116 101
f 18 108 69
f 19 106 50
f 40 112 82
f 42 115 97
f 34 119 71
f 33 156 100
f 25 139 94
f 36 160 80
f 20 120 51
f 32 149 90
f 23 132 63
f 24 128 55
f 37 145 76
f 41 148 87
f 34 155 91
f 33 133 67
f 25 134 56
f 36 157 75
f 20 124 83
f 14 109 68
f 13 105 48
f 15 111 78
f 16 114 93
f 17 117 98
f 21 125 88
f 31 152 65
f 26 137 57
f 38 158 77
f 39 123 86
f 27 143 64
f 22 127 53
f 28 135 74
f 29 147 84
f 30 150 89
f 31 153 70
f 26 140 99
f 38 138 95
f 39 159 81
f 21 122 52
f 14 107 109
f 13 103 105
f 15 104 111
f 16 110 114
f 17 113 117
f 21 118 125
f 31 154 152
f 26 141 137
f 38 162 158
f 39 121 123
f 27 142 143
f 22 129 127
f 28 130 135
f 29 144 147
f 30 146 150
f 31 151 153
f 26 131 140
f 38 136 138
f 39 161 159
f 21 126 122
f 14 44 107
f 13 43 103
f 15 45 104
f 16 46 110
f 17 47 113
f 21 52 118
f 31 70 154
f 26 99 141
f 38 95 162
f 39 81 121
f 27 59 142
f 22 58 129
f 28 60 130
f 29 61 144
f 30 62 146
f 31 65 151
f 26 57 131
f 38 77 136
f 39 86 161
f 21 88 126
f 17 98 116
f 14 68 108
f 13 48 106
f 15 78 112
f 16 93 115
f 18 69 119
f 35 101 156
f 42 97 139
f 40 82 160
f 19 50 120
f 30 89 149
f 27 64 132
f 22 53 128
f 28 74 145
f 29 84 148
f 32 90 155
f 23 63 133
f 24 55 134
f 37 76 157
f 41 87 124
f 35 72 109
f 18 49 105
f 19 79 111
f 40 96 114
f 42 102 117
f 34 91 125
f 33 67 152
f 25 56 137
f 36 75 158
f 20 83 123
f 32 66 143
f 23 54 127
f 24 73 135
f 37 85 147
f 41 92 150
f 34 71 153
f 33 100 140
f 25 94 138
f 36 80 159
f 20 51 122
f 17 116 107
f 14 108 103
f 13 106 104
f 15 112 110
f 16 115 113
f 18 119 118
f 35 156 154
f 42 139 141
f 40 160 162
f 19 120 121
f 30 149 142
f 27 132 129
f 22 128 130
f 28 145 144
f 29 148 146
f 32 155 151
f 23 133 131
f 24 134 136
f 37 157 161
f 41 124 126
f 107 44 47
f 103 43 44
f 104 45 43
f 110 46 45
f 113 47 46
f 118 52 49
f 154 70 72
f 141 99 102
f 162 95 96
f 121 81 79
f 142 59 62
f 129 58 59
f 130 60 58
f 144 61 60
f 146 62 61
f 151 65 66
f 131 57 54
f 136 77 73
f 161 86 85
f 126 88 92
f 116 98 101
f 108 68 69
f 106 48 50
f 112 78 82
f 115 93 97
f 119 69 71
f 156 101 100
f 139 97 94
f 160 82 80
f 120 50 51
f 149 89 90
f 132 64 63
f 128 53 55
f 145 74 76
f 148 84 87
f 155 90 91
f 133 63 67
f 134 55 56
f 157 76 75
f 124 87 83
f 109 72 68
f 105 49 48
f 111 79 78
f 114 96 93
f 117 102 98
f 125 91 88
f 152 67 65
f 137 56 57
f 158 75 77
f 123 83 86
f 143 66 64
f 127 54 53
f 135 73 74
f 147 85 84
f 150 92 89
f 153 71 70
f 140 100 99
f 138 94 95
f 159 80 81
f 122 51 52
f 107 116 109
f 103 108 105
f 104 106 111
f 110 112 114
f 113 115 117
f 118 119 125
f 154 156 152
f 141 139 137
f 162 160 158
f 121 120 123
f 142 149 143
f 129 132 127
f 130 128 135
f 144 145 147
f 146 148 150
f 151 155 153
f 131 133 140
f 136 134 138
f 161 157 159
f 126 124 122

