# https://github.com/mikedh/trimesh
v 1.81257266 4.26813493 1.17329864
v 2.08855678 3.23518000 1.19290852
v 1.81522303 4.26669184 1.05998884
v 2.09120739 3.23373691 1.07959875
v 1.93081882 3.74427284 1.07200985
v 1.92829297 3.74564795 1.17999489
v 1.94032779 3.86113217 1.07074410
v 1.93780194 3.86250728 1.17872915
v 2.11147298 3.21294726 1.13703259
v 2.07524574 3.20325425 1.13630866
v 1.82188009 4.29683760 1.11645572
v 1.78565262 4.28714459 1.11573178
v 1.95076414 3.75172848 1.18403167
v 1.79837017 4.23569060 1.17309557
v 1.83441676 4.24533503 1.17381592
v 1.82041139 4.29455617 1.17021147
v 1.78605868 4.28536479 1.16952496
v 2.06007172 3.25619231 1.19169067
v 2.09611845 3.26583697 1.19241096
v 2.10855378 3.21609519 1.19068526
v 2.07420120 3.20690380 1.18999877
v 1.95345775 3.75026191 1.06887452
v 1.80100727 4.23425464 1.06035343
v 1.83705387 4.24389955 1.06107371
v 1.82292463 4.29318758 1.06276564
v 1.78857194 4.28399619 1.06207915
v 2.06270906 3.25475657 1.07894844
v 2.09875555 3.26440101 1.07966879
v 2.11106692 3.21472707 1.08323943
v 2.07671433 3.20553568 1.08255290
v 1.92924602 3.74487755 1.12599615
v 2.06815172 3.23043520 1.08456192
v 1.79354561 4.25823234 1.06504996
v 2.06575673 3.23173919 1.18695858
v 1.79115051 4.25953632 1.16744663
v 1.93890999 3.86364206 1.12470979
v 2.10597520 3.24055528 1.08531777
v 1.83136910 4.26835243 1.06580580
v 2.10357998 3.24185928 1.18771444
v 1.82897387 4.26965641 1.16820245
v 2.09926809 3.20021443 1.13690927
v 1.80495370 4.30177572 1.11599694
v 1.82108594 4.23537377 1.17461618
v 1.79498612 4.25290715 1.17316074
v 1.82874951 4.26194125 1.17383537
v 1.82147746 4.28606404 1.17220044
v 1.78930065 4.27745509 1.17155748
v 2.07958935 3.26784621 1.19298399
v 2.06572206 3.23959576 1.19239767
v 2.09948557 3.24862940 1.19307237
v 2.10522501 3.22405233 1.19236198
v 2.07304819 3.21544290 1.19171899
v 1.82376913 4.23391309 1.05990495
v 1.79764026 4.25146222 1.05969203
v 1.83140365 4.26049585 1.06036673
v 1.82407739 4.28464872 1.06104541
v 1.79190071 4.27603928 1.06040241
v 2.08227253 3.26638530 1.07827275
v 2.06837609 3.23815060 1.07892900
v 2.10213959 3.24718423 1.07960370
v 2.10782495 3.22263653 1.08120695
v 2.07564837 3.21402757 1.08056391
v 1.80865295 4.20307906 1.06178962
v 2.05377878 3.28562135 1.07920687
v 1.93050378 3.74425350 1.07542502
v 2.05937454 3.26293004 1.08217410
v 1.80216174 4.22562749 1.06389802
v 1.80605605 4.20449277 1.17281229
v 2.05118176 3.28703531 1.19022956
v 1.92813798 3.74554151 1.17657032
v 2.05689670 3.26427886 1.18810567
v 1.79968389 4.22697655 1.16982956
v 1.84594396 4.21305631 1.06253483
v 2.09106955 3.29559885 1.07995211
v 1.94013032 3.86255821 1.07414362
v 2.09744182 3.27311506 1.08293484
v 1.84022890 4.23581251 1.06465874
v 1.84334705 4.21447002 1.17355754
v 2.08847276 3.29701256 1.19097478
v 1.93776439 3.86384621 1.17528892
v 2.09496397 3.27446412 1.18886638
v 1.83775106 4.23716157 1.17059029
v 2.11015467 3.21273599 1.18736029
v 2.11250865 3.21145434 1.08671999
v 2.11035077 3.22277872 1.08889165
v 2.10810747 3.22400007 1.18480261
v 2.11211665 3.20593732 1.13713691
v 2.07461607 3.20322718 1.18665013
v 2.07697029 3.20194553 1.08600979
v 2.07310441 3.21281325 1.08814733
v 2.07086087 3.21403461 1.18405831
v 2.07818385 3.19685848 1.13645883
v 1.82015554 4.29814607 1.16675457
v 1.82250964 4.29686444 1.06611426
v 1.82626484 4.28605725 1.06870607
v 1.82402143 4.28727860 1.16461704
v 1.81894187 4.30323314 1.11630556
v 1.78461707 4.28863727 1.16604440
v 1.78697104 4.28735563 1.06540409
v 1.78901836 4.27609155 1.06796177
v 1.78677495 4.27731289 1.16387272
v 1.78500906 4.29415430 1.11562748
v 1.80761958 4.20550415 1.17461627
v 1.84142141 4.21454836 1.17529175
v 2.05302420 3.28700247 1.19205336
v 2.08682616 3.29604645 1.19272882
v 1.78999025 4.26828262 1.17157954
v 1.92912368 3.74592082 1.18267486
v 1.79357800 4.25141321 1.17100959
v 1.82545829 4.27777266 1.17228826
v 1.93818585 3.85729000 1.18146855
v 1.83079462 4.26137074 1.17175328
v 1.80599518 4.29361019 1.17015671
v 1.82388366 4.28619940 1.16953628
v 1.81707058 4.30302053 1.16667771
v 1.78724955 4.27639722 1.16880421
v 1.78485722 4.29440148 1.16603396
v 2.06907256 3.22373168 1.19140955
v 2.06377682 3.24011144 1.19020839
v 2.10454072 3.23322149 1.19211832
v 2.10099356 3.25006897 1.19095210
v 2.09558700 3.20972487 1.19073348
v 2.10740323 3.22504059 1.18968159
v 2.10991172 3.20697314 1.18748535
v 2.07076910 3.21523865 1.18894953
v 2.07769837 3.19835432 1.18684158
v 1.81029968 4.20404541 1.06003555
v 1.84410151 4.21308914 1.06071103
v 2.05570443 3.28554325 1.07747265
v 2.08950614 3.29458723 1.07814812
v 1.79258499 4.26686989 1.06064609
v 1.93177408 3.74447778 1.06936557
v 1.79613215 4.25002264 1.06181229
v 1.82805303 4.27635994 1.06135485
v 1.94083625 3.85584695 1.06815929
v 1.83334877 4.25998018 1.06255602
v 1.80852112 4.29223475 1.06217045
v 1.82635661 4.28485297 1.06381485
v 1.81942734 4.30173729 1.06592281
v 1.78972249 4.27505079 1.06308282
v 1.78721400 4.29311871 1.06527905
v 2.07166743 3.22231896 1.08047611
v 2.06633109 3.23872088 1.08101112
v 2.10713559 3.23180876 1.08118488
v 2.10354784 3.24867841 1.08175480
v 2.09811294 3.20834966 1.08274718
v 2.10987617 3.22369440 1.08396018
v 2.11226860 3.20569014 1.08673044
v 2.07324205 3.21389246 1.08322809
v 2.08005502 3.19707109 1.08608672
v 2.05921857 3.26239515 1.08713652
v 1.80171288 4.22618865 1.06883958
v 2.05697246 3.26361815 1.18315663
v 1.79946689 4.22741117 1.16485976
v 2.06754968 3.22847695 1.13580743
v 1.79156224 4.26144407 1.11619732
v 2.09765882 3.27268020 1.08790465
v 1.84015313 4.23647370 1.06960774
v 2.09541272 3.27390297 1.18392482
v 1.83790714 4.23769623 1.16562790
v 2.10556347 3.23864755 1.13656708
v 1.82957603 4.27161465 1.11695696
f 1 47 44
f 1 44 43
f 1 43 45
f 1 45 46
f 1 46 47
f 2 49 52
f 6 72 70
f 12 102 99
f 11 96 95
f 8 79 81
f 4 62 59
f 4 59 58
f 4 58 60
f 4 60 61
f 4 61 62
f 5 66 65
f 3 54 57
f 7 73 77
f 9 85 86
f 10 92 88
f 12 101 98
f 6 69 68
f 2 50 48
f 8 82 78
f 11 97 93
f 6 71 69
f 12 100 101
f 11 94 97
f 8 80 82
f 2 51 50
f 10 90 89
f 5 63 64
f 3 55 53
f 7 76 74
f 9 87 84
f 10 91 90
f 5 67 63
f 3 56 55
f 7 75 76
f 9 83 87
f 6 68 72
f 2 48 49
f 8 78 79
f 11 93 96
f 12 98 102
f 10 88 91
f 5 65 67
f 3 57 56
f 7 77 75
f 9 86 83
f 5 64 66
f 3 53 54
f 7 74 73
f 9 84 85
f 10 89 92
f 6 70 71
f 12 99 100
f 11 95 94
f 8 81 80
f 2 52 51
f 35 109 116
f 18 105 108
f 19 111 106
f 40 114 112
f 42 117 115
f 34 125 119
f 33 152 156
f 25 137 139
f 36 158 160
f 20 123 120
f 32 143 149
f 23 127 132
f 24 135 128
f 37 147 145
f 41 150 148
f 34 153 155
f 33 140 133
f 25 138 134
f 36 159 157
f 20 122 124
f 17 107 47
f 14 103 44
f 13 104 43
f 15 110 45
f 16 113 46
f 18 118 49
f 35 154 72
f 42 141 102
f 40 162 96
f 19 121 79
f 30 142 62
f 27 129 59
f 22 130 58
f 28 144 60
f 29 146 61
f 32 151 66
f 23 131 54
f 24 136 73
f 37 161 85
f 41 126 92
f 35 116 101
f 18 108 69
f 19 106 50
f 40 112 82
f 42 115 97
f 34 119 71
f 33 156 100
f 25 139 94
f 36 160 80
f 20 120 51
f 32 149 90
f 23 132 63
f 24 128 55
f 37 145 76
f 41 148 87
f 34 155 91
f 33 133 67
f 25 134 56
f 36 157 75
f 20 124 83
f 14 109 68
f 13 105 48
f 15 111 78
f 16 114 93
f 17 117 98
f 21 125 88
f 31 152 65
f 26 137 57
f 38 158 77
f 39 123 86
f 27 143 64
f 22 127 53
f 28 135 74
f 29 147 84
f 30 150 89
f 31 153 70
f 26 140 99
f 38 138 95
f 39 159 81
f 21 122 52
f 14 107 109
f 13 103 105
f 15 104 111
f 16 110 114
f 17 113 117
f 21 118 125
f 31 154 152
f 26 141 137
f 38 162 158
f 39 121 123
f 27 142 143
f 22 129 127
f 28 130 135
f 29 144 147
f 30 146 150
f 31 151 153
f 26 131 140
f 38 136 138
f 39 161 159
f 21 126 122
f 14 44 107
f 13 43 103
f 15 45 104
f 16 46 110
f 17 47 113
f 21 52 118
f 31 70 154
f 26 99 141
f 38 95 162
f 39 81 121
f 27 59 142
f 22 58 129
f 28 60 130
f 29 61 144
f 30 62 146
f 31 65 151
f 26 57 131
f 38 77 136
f 39 86 161
f 21 88 126
f 17 98 116
f 14 68 108
f 13 48 106
f 15 78 112
f 16 93 115
f 18 69 119
f 35 101 156
f 42 97 139
f 40 82 160
f 19 50 120
f 30 89 149
f 27 64 132
f 22 53 128
f 28 74 145
f 29 84 148
f 32 90 155
f 23 63 133
f 24 55 134
f 37 76 157
f 41 87 124
f 35 72 109
f 18 49 105
f 19 79 111
f 40 96 114
f 42 102 117
f 34 91 125
f 33 67 152
f 25 56 137
f 36 75 158
f 20 83 123
f 32 66 143
f 23 54 127
f 24 73 135
f 37 85 147
f 41 92 150
f 34 71 153
f 33 100 140
f 25 94 138
f 36 80 159
f 20 51 122
f 17 116 107
f 14 108 103
f 13 106 104
f 15 112 110
f 16 115 113
f 18 119 118
f 35 156 154
f 42 139 141
f 40 160 162
f 19 120 121
f 30 149 142
f 27 132 129
f 22 128 130
f 28 145 144
f 29 148 146
f 32 155 151
f 23 133 131
f 24 134 136
f 37 157 161
f 41 124 126
f 107 44 47
f 103 43 44
f 104 45 43
f 110 46 45
f 113 47 46
f 118 52 49
f 154 70 72
f 141 99 102
f 162 95 96
f 121 81 79
f 142 59 62
f 129 58 59
f 130 60 58
f 144 61 60
f 146 62 61
f 151 65 66
f 131 57 54
f 136 77 73
f 161 86 85
f 126 88 92
f 116 98 101
f 108 68 69
f 106 48 50
f 112 78 82
f 115 93 97
f 119 69 71
f 156 101 100
f 139 97 94
f 160 82 80
f 120 50 51
f 149 89 90
f 132 64 63
f 128 53 55
f 145 74 76
f 148 84 87
f 155 90 91
f 133 63 67
f 134 55 56
f 157 76 75
f 124 87 83
f 109 72 68
f 105 49 48
f 111 79 78
f 114 96 93
f 117 102 98
f 125 91 88
f 152 67 65
f 137 56 57
f 158 75 77
f 123 83 86
f 143 66 64
f 127 54 53
f 135 73 74
f 147 85 84
f 150 92 89
f 153 71 70
f 140 100 99
f 138 94 95
f 159 80 81
f 122 51 52
f 107 116 109
f 103 108 105
f 104 106 111
f 110 112 114
f 113 115 117
f 118 119 125
f 154 156 152
f 141 139 137
f 162 160 158
f 121 120 123
f 142 149 143
f 129 132 127
f 130 128 135
f 144 145 147
f 146 148 150
f 151 155 153
f 131 133 140
f 136 134 138
f 161 157 159
f 126 124 122

