# https://github.com/mikedh/trimesh
v 0.40803587 3.80401320 0.06235985
v 0.90579077 2.09023319 0.13776951
v -1.01519735 3.39111170 0.07295420
v -0.51744250 1.67733169 0.14836386
v -0.73299238 2.54490702 0.13351283
v 0.62335908 2.93840502 0.12341635
v -0.78420993 2.72024020 0.08640196
v 0.57214153 3.11373821 0.07630547
v 0.20652136 1.84087777 0.12963032
v 0.20633745 1.84247344 0.16710471
v -0.31577787 3.63916439 0.05050224
v -0.31596177 3.64076006 0.08797663
v 0.66851637 2.95047939 0.09974972
v 0.41724254 3.75957392 0.08642292
v 0.41742553 3.75798646 0.04913567
v 0.36031506 3.83046841 0.04664705
v 0.36014062 3.83198125 0.08218211
v 0.88923800 2.13448448 0.15793001
v 0.88942101 2.13289701 0.12064276
v 0.87999797 2.04118972 0.12537877
v 0.87982352 2.04270279 0.16091380
v -0.77792073 2.53084600 0.11051679
v -0.99886135 3.34874083 0.09696418
v -0.99867836 3.34715335 0.05967693
v -0.98926388 3.43893505 0.05669314
v -0.98943831 3.44044813 0.09222818
v -0.52686592 1.72365139 0.16847129
v -0.52668291 1.72206391 0.13118403
v -0.46958103 1.64965647 0.13542485
v -0.46975547 1.65116954 0.17095983
v -0.05481827 2.74166961 0.12878516
v -0.45026062 1.70247340 0.17066964
v -0.94553016 3.40769624 0.09563658
v 0.83589779 2.07560754 0.16109567
v 0.34062819 3.78083013 0.08606257
v -0.10687080 2.91986146 0.08090618
v -0.45006860 1.70080771 0.13154438
v -0.94533815 3.40603030 0.05651128
v 0.83608980 2.07394160 0.12197037
v 0.34082020 3.77916443 0.04693731
v 0.21070510 1.82686002 0.14534235
v -0.32010950 3.65446514 0.06492418
v 0.43260017 3.75230036 0.06490055
v 0.41366402 3.78889753 0.08397384
v 0.41383541 3.78741052 0.04904832
v 0.38756726 3.82362944 0.04819949
v 0.38740387 3.82504647 0.08148371
v 0.89882737 2.14707121 0.13553376
v 0.90195338 2.10770799 0.15794937
v 0.90212477 2.10622098 0.12302391
v 0.89932398 2.06164076 0.12573033
v 0.89916066 2.06305805 0.15901460
v -1.00823602 3.33429192 0.07562593
v -1.01156511 3.37541685 0.09458303
v -1.01139372 3.37392985 0.05965758
v -1.00860101 3.41857980 0.05859236
v -1.00876434 3.41999707 0.09187662
v -0.54200893 1.72906289 0.14625914
v -0.52327580 1.69422731 0.16855862
v -0.52310440 1.69274030 0.13363311
v -0.49684428 1.65659137 0.13612324
v -0.49700767 1.65800840 0.16940746
v -0.97311744 3.30043536 0.09979201
v -0.53101781 1.77827764 0.16676986
v -0.69003791 2.55737950 0.13343623
v -0.48814624 1.75004187 0.16858465
v -0.95204577 3.34725731 0.09830414
v 0.42138813 3.70500243 0.08941154
v 0.86348779 2.18284495 0.15638938
v 0.58040219 2.92595342 0.12397927
v 0.84241215 2.13605704 0.15868020
v 0.37851256 3.73327247 0.08839963
v -0.97292813 3.29879288 0.06121757
v -0.53082851 1.77663540 0.12819541
v -0.74188890 2.73488115 0.08574265
v -0.48795296 1.74836536 0.12920733
v -0.95185250 3.34558080 0.05892675
v 0.42157744 3.70336020 0.05083708
v 0.86367710 2.18120248 0.11781495
v 0.52855120 3.10345507 0.07628570
v 0.84260542 2.13438054 0.11930281
v 0.37870583 3.73159596 0.04902229
v 0.83893480 2.02299914 0.12533723
v -0.42516306 1.65626522 0.13474702
v -0.40078931 1.68320398 0.13283466
v 0.80390499 2.03270419 0.12386706
v 0.20974552 1.82980761 0.13130646
v 0.83875434 2.02456424 0.16209895
v -0.42534352 1.65783032 0.17150876
v -0.40097841 1.68484442 0.17136319
v 0.80371588 2.03434462 0.16239559
v 0.20957326 1.83130208 0.16640721
v 0.31590310 3.82380739 0.04609821
v -0.94819469 3.45707359 0.05550799
v -0.91315623 3.44729321 0.05521135
v 0.29153801 3.79679330 0.04624377
v -0.31901366 3.65033563 0.05119975
v 0.31572266 3.82537249 0.08285993
v -0.94837515 3.45863869 0.09226972
v -0.91334534 3.44893364 0.09373988
v 0.29134890 3.79843374 0.08477231
v -0.31918593 3.65183012 0.08630050
v 0.44349089 3.71227478 0.08740244
v 0.44366254 3.71078599 0.05243722
v 0.88609379 2.18838464 0.15445658
v 0.88626543 2.18689585 0.11949130
v 0.39021090 3.81023061 0.08383373
v 0.65680131 2.94806656 0.12224374
v 0.38731385 3.77952393 0.08603291
v 0.39039098 3.80866855 0.04714492
v 0.60799010 3.11516229 0.07734615
v 0.38750283 3.77788456 0.04753540
v 0.36233274 3.83655596 0.06058001
v 0.35365965 3.81292323 0.04617922
v 0.31405114 3.83291349 0.04742438
v 0.35347367 3.81453686 0.08407424
v 0.31388757 3.83433216 0.08074652
v 0.89355366 2.07721146 0.16008985
v 0.87463474 2.10166883 0.15986176
v 0.89373380 2.07564940 0.12340104
v 0.87482371 2.10002947 0.12136419
v 0.88462967 2.03827719 0.13970769
v 0.86500519 2.05235066 0.12364779
v 0.84220863 2.01445694 0.12743998
v 0.86481921 2.05396405 0.16154284
v 0.84204512 2.01587560 0.16076213
v -0.99570578 3.29474198 0.09811564
v -0.99553414 3.29325319 0.06315037
v -0.55310291 1.77085173 0.16516973
v -0.55293127 1.76936307 0.13020450
v -1.00317414 3.40598844 0.09420590
v -0.76642561 2.53516673 0.13283803
v -0.98426406 3.38160837 0.09624276
v -1.00299401 3.40442637 0.05751709
v -0.81523681 2.70226246 0.08794050
v -0.98407508 3.37996900 0.05774520
v -0.99403457 3.44305318 0.07067659
v -0.97425956 3.42767378 0.05606411
v -0.95148547 3.46576224 0.05684483
v -0.97444553 3.42928717 0.09395915
v -0.95164898 3.46718089 0.09016697
v -0.49983139 1.67296941 0.17046202
v -0.49694324 1.70375315 0.17007156
v -0.49965132 1.67140734 0.13377321
v -0.49675427 1.70211403 0.13157402
v -0.47173769 1.64477454 0.14980432
v -0.46291408 1.66710110 0.13353269
v -0.42332799 1.64730557 0.13686043
v -0.46310006 1.66871450 0.17142774
v -0.42349156 1.64872422 0.17018259
v -0.42563664 1.76719977 0.16835425
v -0.89006424 3.36623319 0.09799373
v 0.78042875 2.11709751 0.15937650
v 0.31600110 3.71613117 0.08901595
v 0.19406369 1.88475600 0.16616977
v -0.30369709 3.59855591 0.09075925
v -0.42544151 1.76550679 0.12859099
v -0.88986910 3.36454033 0.05823045
v 0.78062389 2.11540465 0.11961323
v 0.31619624 3.71443806 0.04925270
v 0.19425668 1.88308181 0.12684771
v -0.30350407 3.59688196 0.05143717
f 1 47 44
f 1 44 43
f 1 43 45
f 1 45 46
f 1 46 47
f 2 49 52
f 6 72 70
f 12 102 99
f 11 96 95
f 8 79 81
f 4 62 59
f 4 59 58
f 4 58 60
f 4 60 61
f 4 61 62
f 5 66 65
f 3 54 57
f 7 73 77
f 9 85 86
f 10 92 88
f 12 101 98
f 6 69 68
f 2 50 48
f 8 82 78
f 11 97 93
f 6 71 69
f 12 100 101
f 11 94 97
f 8 80 82
f 2 51 50
f 10 90 89
f 5 63 64
f 3 55 53
f 7 76 74
f 9 87 84
f 10 91 90
f 5 67 63
f 3 56 55
f 7 75 76
f 9 83 87
f 6 68 72
f 2 48 49
f 8 78 79
f 11 93 96
f 12 98 102
f 10 88 91
f 5 65 67
f 3 57 56
f 7 77 75
f 9 86 83
f 5 64 66
f 3 53 54
f 7 74 73
f 9 84 85
f 10 89 92
f 6 70 71
f 12 99 100
f 11 95 94
f 8 81 80
f 2 52 51
f 35 109 116
f 18 105 108
f 19 111 106
f 40 114 112
f 42 117 115
f 34 125 119
f 33 152 156
f 25 137 139
f 36 158 160
f 20 123 120
f 32 143 149
f 23 127 132
f 24 135 128
f 37 147 145
f 41 150 148
f 34 153 155
f 33 140 133
f 25 138 134
f 36 159 157
f 20 122 124
f 17 107 47
f 14 103 44
f 13 104 43
f 15 110 45
f 16 113 46
f 18 118 49
f 35 154 72
f 42 141 102
f 40 162 96
f 19 121 79
f 30 142 62
f 27 129 59
f 22 130 58
f 28 144 60
f 29 146 61
f 32 151 66
f 23 131 54
f 24 136 73
f 37 161 85
f 41 126 92
f 35 116 101
f 18 108 69
f 19 106 50
f 40 112 82
f 42 115 97
f 34 119 71
f 33 156 100
f 25 139 94
f 36 160 80
f 20 120 51
f 32 149 90
f 23 132 63
f 24 128 55
f 37 145 76
f 41 148 87
f 34 155 91
f 33 133 67
f 25 134 56
f 36 157 75
f 20 124 83
f 14 109 68
f 13 105 48
f 15 111 78
f 16 114 93
f 17 117 98
f 21 125 88
f 31 152 65
f 26 137 57
f 38 158 77
f 39 123 86
f 27 143 64
f 22 127 53
f 28 135 74
f 29 147 84
f 30 150 89
f 31 153 70
f 26 140 99
f 38 138 95
f 39 159 81
f 21 122 52
f 14 107 109
f 13 103 105
f 15 104 111
f 16 110 114
f 17 113 117
f 21 118 125
f 31 154 152
f 26 141 137
f 38 162 158
f 39 121 123
f 27 142 143
f 22 129 127
f 28 130 135
f 29 144 147
f 30 146 150
f 31 151 153
f 26 131 140
f 38 136 138
f 39 161 159
f 21 126 122
f 14 44 107
f 13 43 103
f 15 45 104
f 16 46 110
f 17 47 113
f 21 52 118
f 31 70 154
f 26 99 141
f 38 95 162
f 39 81 121
f 27 59 142
f 22 58 129
f 28 60 130
f 29 61 144
f 30 62 146
f 31 65 151
f 26 57 131
f 38 77 136
f 39 86 161
f 21 88 126
f 17 98 116
f 14 68 108
f 13 48 106
f 15 78 112
f 16 93 115
f 18 69 119
f 35 101 156
f 42 97 139
f 40 82 160
f 19 50 120
f 30 89 149
f 27 64 132
f 22 53 128
f 28 74 145
f 29 84 148
f 32 90 155
f 23 63 133
f 24 55 134
f 37 76 157
f 41 87 124
f 35 72 109
f 18 49 105
f 19 79 111
f 40 96 114
f 42 102 117
f 34 91 125
f 33 67 152
f 25 56 137
f 36 75 158
f 20 83 123
f 32 66 143
f 23 54 127
f 24 73 135
f 37 85 147
f 41 92 150
f 34 71 153
f 33 100 140
f 25 94 138
f 36 80 159
f 20 51 122
f 17 116 107
f 14 108 103
f 13 106 104
f 15 112 110
f 16 115 113
f 18 119 118
f 35 156 154
f 42 139 141
f 40 160 162
f 19 120 121
f 30 149 142
f 27 132 129
f 22 128 130
f 28 145 144
f 29 148 146
f 32 155 151
f 23 133 131
f 24 134 136
f 37 157 161
f 41 124 126
f 107 44 47
f 103 43 44
f 104 45 43
f 110 46 45
f 113 47 46
f 118 52 49
f 154 70 72
f 141 99 102
f 162 95 96
f 121 81 79
f 142 59 62
f 129 58 59
f 130 60 58
f 144 61 60
f 146 62 61
f 151 65 66
f 131 57 54
f 136 77 73
f 161 86 85
f 126 88 92
f 116 98 101
f 108 68 69
f 106 48 50
f 112 78 82
f 115 93 97
f 119 69 71
f 156 101 100
f 139 97 94
f 160 82 80
f 120 50 51
f 149 89 90
f 132 64 63
f 128 53 55
f 145 74 76
f 148 84 87
f 155 90 91
f 133 63 67
f 134 55 56
f 157 76 75
f 124 87 83
f 109 72 68
f 105 49 48
f 111 79 78
f 114 96 93
f 117 102 98
f 125 91 88
f 152 67 65
f 137 56 57
f 158 75 77
f 123 83 86
f 143 66 64
f 127 54 53
f 135 73 74
f 147 85 84
f 150 92 89
f 153 71 70
f 140 100 99
f 138 94 95
f 159 80 81
f 122 51 52
f 107 116 109
f 103 108 105
f 104 106 111
f 110 112 114
f 113 115 117
f 118 119 125
f 154 156 152
f 141 139 137
f 162 160 158
f 121 120 123
f 142 149 143
f 129 132 127
f 130 128 135
f 144 145 147
f 146 148 150
f 151 155 153
f 131 133 140
f 136 134 138
f 161 157 159
f 126 124 122

