# https://github.com/mikedh/trimesh
v 5.21562689 4.76155064 1.58028692
v 2.81186362 3.65161466 0.22456672
v 4.77408069 4.41021952 2.65080909
v 2.37031694 3.30028354 1.29508890
v 3.59326641 3.84313035 1.94551862
v 4.01406355 4.17795107 0.92530339
v 3.82333860 3.99245150 2.08941928
v 4.24413551 4.32727220 1.06920402
v 2.52474594 3.46207412 0.72790983
v 2.54209052 3.42902206 0.72421664
v 5.04703918 4.62674090 2.15048078
v 5.06438400 4.59368931 2.14678755
v 4.01723899 4.20964811 0.89372264
v 5.16254427 4.71247159 1.54571126
v 5.14528587 4.74535807 1.54938608
v 5.25051872 4.78954327 1.63926167
v 5.26696583 4.75820176 1.63575948
v 2.88317854 3.65997614 0.26015144
v 2.86592061 3.69286309 0.26382622
v 2.74085994 3.63071037 0.22381674
v 2.75730706 3.59936910 0.22031465
v 3.56849352 3.85258920 1.98169810
v 4.72320932 4.36290010 2.61087107
v 4.70595140 4.39578706 2.61454608
v 4.83182288 4.45639409 2.65438275
v 4.84827000 4.42505259 2.65088069
v 2.44384407 3.31040512 1.32531125
v 2.42658567 3.34329184 1.32898607
v 2.32216411 3.29756120 1.23893795
v 2.33861122 3.26621992 1.23543574
v 3.80381326 4.01025791 1.43537947
v 2.40822863 3.29968400 1.24465407
v 4.79999012 4.40407771 2.59360518
v 2.80724870 3.61717730 0.27723639
v 5.19901018 4.72157147 1.62618734
v 4.03763653 4.16201350 1.58162614
v 2.39011976 3.33419196 1.24851004
v 4.78188124 4.43858590 2.59746102
v 2.78914006 3.65168549 0.28109222
v 5.18090131 4.75607920 1.63004334
v 2.51115830 3.43929096 0.71482841
v 5.07457446 4.62294635 2.16059245
v 5.14233146 4.72837945 1.53070948
v 5.20275651 4.73280580 1.56458548
v 5.18659131 4.76360995 1.56802759
v 5.23912786 4.78546413 1.61083487
v 5.25453324 4.75610789 1.60755453
v 2.89082203 3.68874671 0.26086045
v 2.84470435 3.64397717 0.23464644
v 2.82853914 3.67478107 0.23808846
v 2.76774669 3.64430547 0.21697819
v 2.78315184 3.61494925 0.21369797
v 4.69532393 4.37270314 2.61447234
v 4.76059080 4.38098235 2.63660881
v 4.74442561 4.41178604 2.64005107
v 4.80597834 4.44081395 2.66099930
v 4.82138326 4.41145774 2.65771932
v 2.44381449 3.33307017 1.34462327
v 2.40253863 3.29215349 1.30666986
v 2.38637344 3.32295739 1.31011186
v 2.33459669 3.29965554 1.26714286
v 2.35000209 3.27029930 1.26386251
v 4.65467123 4.33166623 2.56197167
v 2.51967885 3.34583525 1.35783809
v 3.60670553 3.85351962 1.91318443
v 2.47714581 3.32906837 1.30406070
v 4.71741460 4.36351058 2.56757015
v 5.08730496 4.67590568 1.51305766
v 2.95231259 3.69007471 0.30892406
v 4.00084944 4.16713307 0.95758961
v 2.88994062 3.65752209 0.30324654
v 5.13020965 4.69196452 1.56675585
v 4.63681735 4.36568825 2.56577336
v 2.50182498 3.37985751 1.36163975
v 3.83962346 4.00468760 2.05886490
v 2.45892029 3.36379866 1.30794149
v 4.69918908 4.39824087 2.57145089
v 5.06945109 4.70992770 1.51685933
v 2.93445871 3.72409698 0.31272572
v 4.23376737 4.31830105 1.10327002
v 2.87171510 3.69225237 0.30712728
v 5.11198413 4.72669482 1.57063670
v 2.71923050 3.61696720 0.25146509
v 2.32705435 3.30491941 1.20228944
v 2.36161126 3.32492102 1.19455919
v 2.73535778 3.62230489 0.28841681
v 2.50969709 3.45382479 0.71899554
v 2.73624523 3.58454373 0.24784216
v 2.34406908 3.27249595 1.19866645
v 2.37944388 3.29093932 1.19076206
v 2.75319040 3.58832318 0.28461962
v 2.52594303 3.42286638 0.71553622
v 5.24506086 4.78326724 1.67603092
v 4.85288471 4.47121946 2.62685525
v 4.83593954 4.46744002 2.59007778
v 5.20968606 4.76482365 1.68393536
v 5.06318691 4.63289681 2.15916118
v 5.26207559 4.75084378 1.67240799
v 4.86989944 4.43879600 2.62323232
v 4.85377216 4.43345854 2.58628057
v 5.22751868 4.73084217 1.68013815
v 5.07943286 4.60193816 2.15570188
v 5.09461735 4.68357449 1.49711310
v 5.07843421 4.71441339 1.50055898
v 2.95719491 3.69662142 0.29160896
v 2.94101152 3.72746033 0.29505485
v 5.23457291 4.74488137 1.59697515
v 4.02400983 4.18702011 0.90024333
v 5.19292205 4.72352892 1.58326805
v 5.21759170 4.77724062 1.60059087
v 4.24327263 4.32932621 1.03738325
v 5.17510407 4.75748334 1.58706215
v 5.26443562 4.78081012 1.63887325
v 5.22648087 4.77861506 1.63616965
v 5.25845667 4.78764300 1.68230086
v 5.24402025 4.74519172 1.63243498
v 5.27387953 4.75825347 1.67901688
v 2.80382454 3.62248532 0.22603551
v 2.83954679 3.63685963 0.25596702
v 2.78684333 3.65484456 0.22965125
v 2.82172880 3.67081405 0.25976100
v 2.74215353 3.61614840 0.21630865
v 2.75708546 3.63837369 0.24343316
v 2.70787251 3.60991295 0.24377394
v 2.77462508 3.60495058 0.23969845
v 2.72329537 3.58052317 0.24048998
v 4.64811841 4.32830309 2.57964242
v 4.63193527 4.35914202 2.58308854
v 2.51069573 3.34134980 1.37413843
v 2.49451235 3.37218871 1.37758431
v 4.80228661 4.40091864 2.64504627
v 3.58246517 3.83569077 1.97076077
v 4.76740114 4.38494914 2.61493640
v 4.78530540 4.43327786 2.64866177
v 3.80172821 3.97799664 2.10790070
v 4.74958315 4.41890356 2.61873038
v 4.84363353 4.44598535 2.65910052
v 4.81450510 4.45081237 2.63499896
v 4.86583481 4.47524025 2.63420728
v 4.83204448 4.41738950 2.63126424
v 4.88125767 4.44585023 2.63092333
v 2.37153823 3.27852258 1.27410653
v 2.41402587 3.29828009 1.28763523
v 2.35455703 3.31088159 1.27772228
v 2.39620788 3.33223428 1.29142928
v 2.32135144 3.28132339 1.23653594
v 2.34510945 3.31057123 1.24226246
v 2.31525017 3.29750997 1.19568052
v 2.36264882 3.27714813 1.23852776
v 2.33067303 3.26812019 1.19239649
v 2.49527127 3.34367521 1.25650231
v 4.73809060 4.37929519 2.52145008
v 2.86944335 3.64139734 0.34932853
v 5.11226270 4.67701733 1.61427636
v 2.60176905 3.45556634 0.75754297
v 5.00556068 4.56551532 2.11327900
v 2.47686724 3.37874587 1.26042110
v 4.71968659 4.41436585 2.52536886
v 2.85103934 3.67646800 0.35324732
v 5.09385867 4.71208800 1.61819514
v 2.58356927 3.49024787 0.76141833
v 4.98736065 4.60019685 2.11715438
f 1 47 44
f 1 44 43
f 1 43 45
f 1 45 46
f 1 46 47
f 2 49 52
f 6 72 70
f 12 102 99
f 11 96 95
f 8 79 81
f 4 62 59
f 4 59 58
f 4 58 60
f 4 60 61
f 4 61 62
f 5 66 65
f 3 54 57
f 7 73 77
f 9 85 86
f 10 92 88
f 12 101 98
f 6 69 68
f 2 50 48
f 8 82 78
f 11 97 93
f 6 71 69
f 12 100 101
f 11 94 97
f 8 80 82
f 2 51 50
f 10 90 89
f 5 63 64
f 3 55 53
f 7 76 74
f 9 87 84
f 10 91 90
f 5 67 63
f 3 56 55
f 7 75 76
f 9 83 87
f 6 68 72
f 2 48 49
f 8 78 79
f 11 93 96
f 12 98 102
f 10 88 91
f 5 65 67
f 3 57 56
f 7 77 75
f 9 86 83
f 5 64 66
f 3 53 54
f 7 74 73
f 9 84 85
f 10 89 92
f 6 70 71
f 12 99 100
f 11 95 94
f 8 81 80
f 2 52 51
f 35 109 116
f 18 105 108
f 19 111 106
f 40 114 112
f 42 117 115
f 34 125 119
f 33 152 156
f 25 137 139
f 36 158 160
f 20 123 120
f 32 143 149
f 23 127 132
f 24 135 128
f 37 147 145
f 41 150 148
f 34 153 155
f 33 140 133
f 25 138 134
f 36 159 157
f 20 122 124
f 17 107 47
f 14 103 44
f 13 104 43
f 15 110 45
f 16 113 46
f 18 118 49
f 35 154 72
f 42 141 102
f 40 162 96
f 19 121 79
f 30 142 62
f 27 129 59
f 22 130 58
f 28 144 60
f 29 146 61
f 32 151 66
f 23 131 54
f 24 136 73
f 37 161 85
f 41 126 92
f 35 116 101
f 18 108 69
f 19 106 50
f 40 112 82
f 42 115 97
f 34 119 71
f 33 156 100
f 25 139 94
f 36 160 80
f 20 120 51
f 32 149 90
f 23 132 63
f 24 128 55
f 37 145 76
f 41 148 87
f 34 155 91
f 33 133 67
f 25 134 56
f 36 157 75
f 20 124 83
f 14 109 68
f 13 105 48
f 15 111 78
f 16 114 93
f 17 117 98
f 21 125 88
f 31 152 65
f 26 137 57
f 38 158 77
f 39 123 86
f 27 143 64
f 22 127 53
f 28 135 74
f 29 147 84
f 30 150 89
f 31 153 70
f 26 140 99
f 38 138 95
f 39 159 81
f 21 122 52
f 14 107 109
f 13 103 105
f 15 104 111
f 16 110 114
f 17 113 117
f 21 118 125
f 31 154 152
f 26 141 137
f 38 162 158
f 39 121 123
f 27 142 143
f 22 129 127
f 28 130 135
f 29 144 147
f 30 146 150
f 31 151 153
f 26 131 140
f 38 136 138
f 39 161 159
f 21 126 122
f 14 44 107
f 13 43 103
f 15 45 104
f 16 46 110
f 17 47 113
f 21 52 118
f 31 70 154
f 26 99 141
f 38 95 162
f 39 81 121
f 27 59 142
f 22 58 129
f 28 60 130
f 29 61 144
f 30 62 146
f 31 65 151
f 26 57 131
f 38 77 136
f 39 86 161
f 21 88 126
f 17 98 116
f 14 68 108
f 13 48 106
f 15 78 112
f 16 93 115
f 18 69 119
f 35 101 156
f 42 97 139
f 40 82 160
f 19 50 120
f 30 89 149
f 27 64 132
f 22 53 128
f 28 74 145
f 29 84 148
f 32 90 155
f 23 63 133
f 24 55 134
f 37 76 157
f 41 87 124
f 35 72 109
f 18 49 105
f 19 79 111
f 40 96 114
f 42 102 117
f 34 91 125
f 33 67 152
f 25 56 137
f 36 75 158
f 20 83 123
f 32 66 143
f 23 54 127
f 24 73 135
f 37 85 147
f 41 92 150
f 34 71 153
f 33 100 140
f 25 94 138
f 36 80 159
f 20 51 122
f 17 116 107
f 14 108 103
f 13 106 104
f 15 112 110
f 16 115 113
f 18 119 118
f 35 156 154
f 42 139 141
f 40 160 162
f 19 120 121
f 30 149 142
f 27 132 129
f 22 128 130
f 28 145 144
f 29 148 146
f 32 155 151
f 23 133 131
f 24 134 136
f 37 157 161
f 41 124 126
f 107 44 47
f 103 43 44
f 104 45 43
f 110 46 45
f 113 47 46
f 118 52 49
f 154 70 72
f 141 99 102
f 162 95 96
f 121 81 79
f 142 59 62
f 129 58 59
f 130 60 58
f 144 61 60
f 146 62 61
f 151 65 66
f 131 57 54
f 136 77 73
f 161 86 85
f 126 88 92
f 116 98 101
f 108 68 69
f 106 48 50
f 112 78 82
f 115 93 97
f 119 69 71
f 156 101 100
f 139 97 94
f 160 82 80
f 120 50 51
f 149 89 90
f 132 64 63
f 128 53 55
f 145 74 76
f 148 84 87
f 155 90 91
f 133 63 67
f 134 55 56
f 157 76 75
f 124 87 83
f 109 72 68
f 105 49 48
f 111 79 78
f 114 96 93
f 117 102 98
f 125 91 88
f 152 67 65
f 137 56 57
f 158 75 77
f 123 83 86
f 143 66 64
f 127 54 53
f 135 73 74
f 147 85 84
f 150 92 89
f 153 71 70
f 140 100 99
f 138 94 95
f 159 80 81
f 122 51 52
f 107 116 109
f 103 108 105
f 104 106 111
f 110 112 114
f 113 115 117
f 118 119 125
f 154 156 152
f 141 139 137
f 162 160 158
f 121 120 123
f 142 149 143
f 129 132 127
f 130 128 135
f 144 145 147
f 146 148 150
f 151 155 153
f 131 133 140
f 136 134 138
f 161 157 159
f 126 124 122

