# https://github.com/mikedh/trimesh
v 3.88807924 4.03691853 2.13995085
v 3.54305434 5.29632962 2.10852674
v 4.19451579 4.12141389 2.16177328
v 3.84949089 5.38082452 2.13034933
v 4.01312875 4.74925047 2.16861146
v 3.72109241 4.66872596 2.14781448
v 4.05161469 4.61897388 2.13260262
v 3.75957859 4.53844938 2.11180563
v 3.68887467 5.36955082 2.10339408
v 3.68615839 5.36973982 2.14080394
v 4.05091291 4.04803818 2.13636757
v 4.04819663 4.04822742 2.17377741
v 3.71308550 4.66593395 2.12383269
v 3.87831824 4.06982997 2.16123961
v 3.88102090 4.06964147 2.12401660
v 3.90464684 4.01129161 2.12690650
v 3.90207104 4.01147122 2.16238032
v 3.55114870 5.26406447 2.13144176
v 3.55385135 5.26387621 2.09421874
v 3.54442202 5.32618457 2.09409805
v 3.54184646 5.32636395 2.12957187
v 4.02451803 4.75180664 2.14601096
v 4.18321995 4.15390178 2.18295277
v 4.18592260 4.15371352 2.14572975
v 4.19522484 4.09141405 2.14759963
v 4.19264928 4.09159343 2.18307347
v 3.85605040 5.34813652 2.15315491
v 3.85875306 5.34794826 2.11593188
v 3.83500026 5.40630677 2.11479120
v 3.83242446 5.40648615 2.15026503
v 3.86708725 4.70899015 2.15853293
v 3.83392793 5.37372740 2.15234152
v 4.17723018 4.12060533 2.18360861
v 3.55700507 5.29737051 2.13262078
v 3.90030732 4.04424796 2.16388791
v 3.90620086 4.57658930 2.12193707
v 3.83676398 5.37353003 2.11328361
v 4.18006624 4.12040749 2.14455073
v 3.55984112 5.29717266 2.09356290
v 3.90314337 4.04405035 2.12483001
v 3.68483125 5.38039943 2.11816636
v 4.05277229 4.03734141 2.15167739
v 3.87524153 4.07628255 2.13903830
v 3.88306874 4.04893978 2.16050505
v 3.88560015 4.04876342 2.12563970
v 3.89680257 4.01994182 2.12742251
v 3.89439000 4.02010988 2.16064939
v 3.55207031 5.25592247 2.10960466
v 3.54460492 5.28440081 2.12967865
v 3.54713633 5.28422469 2.09481328
v 3.54207212 5.31478003 2.09511457
v 3.53965954 5.31494809 2.12834145
v 4.18546823 4.16182276 2.16113073
v 4.18993521 4.13355331 2.18235822
v 4.19246638 4.13337719 2.14749286
v 4.19741176 4.10282991 2.14883006
v 4.19499919 4.10299820 2.18205692
v 3.86229702 5.34146267 2.13169709
v 3.85147116 5.36901434 2.15153182
v 3.85400257 5.36883822 2.11666646
v 3.84268130 5.39766812 2.11652212
v 3.84026873 5.39783618 2.14974900
v 4.17048653 4.19108493 2.18248597
v 3.86403994 5.30967754 2.15457557
v 4.00386231 4.74670135 2.16819562
v 3.84957102 5.33536023 2.15379792
v 4.17112887 4.16160972 2.18308465
v 3.87023553 4.10829548 2.16110393
v 3.56378871 5.22688808 2.13319355
v 3.73032359 4.67127748 2.14871585
v 3.56308827 5.25636733 2.13339637
v 3.88464612 4.08261658 2.16268312
v 4.17328283 4.19088991 2.14397796
v 3.86683577 5.30948252 2.11606758
v 4.04282419 4.61481381 2.13174131
v 3.85242518 5.33516166 2.11448837
v 4.17398303 4.16141066 2.14377514
v 3.87303136 4.10810046 2.12259593
v 3.56658454 5.22669306 2.09468555
v 3.76928570 4.53938947 2.11226170
v 3.56594243 5.25616828 2.09408686
v 3.88750028 4.08241753 2.12337361
v 3.55250837 5.33295532 2.09403539
v 3.82468153 5.40800275 2.11341789
v 3.82204667 5.39274301 2.11241727
v 3.56266378 5.32122215 2.09394566
v 3.68654966 5.37772923 2.10437492
v 3.54984375 5.33314088 2.13073383
v 3.82201692 5.40818831 2.15011633
v 3.81925392 5.39293766 2.15087939
v 3.55987104 5.32141681 2.13240779
v 3.68400550 5.37790658 2.13941521
v 3.91505438 4.00958968 2.12705518
v 4.18722731 4.08463712 2.14643768
v 4.17720026 4.09636119 2.14476372
v 3.91781738 4.02484033 2.12629212
v 4.05306580 4.03987166 2.13775628
v 3.91238977 4.00977525 2.16375362
v 4.18456269 4.08482268 2.18313612
v 4.17440752 4.09655584 2.18322585
v 3.91502463 4.02503498 2.16475425
v 4.05052164 4.04004900 2.17279658
v 3.86572932 4.10632272 2.15897569
v 3.86826397 4.10614626 2.12407066
v 3.55893380 5.22618917 2.13103354
v 3.56146821 5.22601224 2.09612856
v 3.89165024 4.03084544 2.16210455
v 3.71395984 4.66673608 2.14637972
v 3.88837926 4.05176679 2.16266882
v 3.89430940 4.03066027 2.12547897
v 3.75063786 4.54258029 2.11206252
v 3.89116973 4.05157223 2.12423751
v 3.90379594 4.00785479 2.14106870
v 3.90417453 4.02247630 2.12563134
v 3.91655128 4.00307107 2.12892277
v 3.90142767 4.02266768 2.16346116
v 3.91413613 4.00323932 2.16218751
v 3.54275194 5.30439444 2.13032778
v 3.55058678 5.28477752 2.13190354
v 3.54541109 5.30420950 2.09370218
v 3.55337725 5.28458298 2.09347233
v 3.54175935 5.32936145 2.10809530
v 3.54972900 5.31627390 2.09334938
v 3.55045235 5.33940581 2.09557949
v 3.54698215 5.31646527 2.13117908
v 3.54803697 5.33957405 2.12884423
v 4.17560333 4.19176576 2.18104295
v 4.17813774 4.19158882 2.14613796
v 3.86880733 5.31163173 2.15310085
v 3.87134198 5.31145528 2.11819582
v 4.19165997 4.11356850 2.18346934
v 4.02039519 4.75123095 2.16820211
v 4.18369405 4.13319502 2.18369918
v 4.19431937 4.11338355 2.14684374
v 4.05707321 4.62707517 2.13388490
v 4.18648428 4.13300048 2.14526798
v 4.19583563 4.08838004 2.16186601
v 4.19008891 4.10131272 2.14599244
v 4.18903409 4.07820394 2.14832729
v 4.18734230 4.10150409 2.18382213
v 4.18661871 4.07837219 2.18159203
v 3.84276190 5.38711796 2.15169252
v 3.84590157 5.36620576 2.15293401
v 3.84542106 5.38693256 2.11506696
v 3.84869204 5.36601121 2.11450269
v 3.83379881 5.40988694 2.12889259
v 3.83564363 5.39511008 2.11371037
v 3.82293517 5.41453868 2.11498400
v 3.83289677 5.39530146 2.15154019
v 3.82052002 5.41470692 2.14824874
v 3.83597167 5.33233392 2.15301949
v 4.15789528 4.15724700 2.18233945
v 3.57629348 5.26073152 2.13452685
v 3.89821733 4.08564508 2.16384677
v 3.69459600 5.33870138 2.14250065
v 4.03962517 4.07927550 2.17392512
v 3.83885397 5.33213292 2.11332474
v 4.16077782 4.15704647 2.14264466
v 3.57917578 5.26053100 2.09483207
v 3.90109963 4.08544407 2.12415202
v 3.69744613 5.33850250 2.10324639
v 4.04247506 4.07907685 2.13467085
f 1 47 44
f 1 44 43
f 1 43 45
f 1 45 46
f 1 46 47
f 2 49 52
f 6 72 70
f 12 102 99
f 11 96 95
f 8 79 81
f 4 62 59
f 4 59 58
f 4 58 60
f 4 60 61
f 4 61 62
f 5 66 65
f 3 54 57
f 7 73 77
f 9 85 86
f 10 92 88
f 12 101 98
f 6 69 68
f 2 50 48
f 8 82 78
f 11 97 93
f 6 71 69
f 12 100 101
f 11 94 97
f 8 80 82
f 2 51 50
f 10 90 89
f 5 63 64
f 3 55 53
f 7 76 74
f 9 87 84
f 10 91 90
f 5 67 63
f 3 56 55
f 7 75 76
f 9 83 87
f 6 68 72
f 2 48 49
f 8 78 79
f 11 93 96
f 12 98 102
f 10 88 91
f 5 65 67
f 3 57 56
f 7 77 75
f 9 86 83
f 5 64 66
f 3 53 54
f 7 74 73
f 9 84 85
f 10 89 92
f 6 70 71
f 12 99 100
f 11 95 94
f 8 81 80
f 2 52 51
f 35 109 116
f 18 105 108
f 19 111 106
f 40 114 112
f 42 117 115
f 34 125 119
f 33 152 156
f 25 137 139
f 36 158 160
f 20 123 120
f 32 143 149
f 23 127 132
f 24 135 128
f 37 147 145
f 41 150 148
f 34 153 155
f 33 140 133
f 25 138 134
f 36 159 157
f 20 122 124
f 17 107 47
f 14 103 44
f 13 104 43
f 15 110 45
f 16 113 46
f 18 118 49
f 35 154 72
f 42 141 102
f 40 162 96
f 19 121 79
f 30 142 62
f 27 129 59
f 22 130 58
f 28 144 60
f 29 146 61
f 32 151 66
f 23 131 54
f 24 136 73
f 37 161 85
f 41 126 92
f 35 116 101
f 18 108 69
f 19 106 50
f 40 112 82
f 42 115 97
f 34 119 71
f 33 156 100
f 25 139 94
f 36 160 80
f 20 120 51
f 32 149 90
f 23 132 63
f 24 128 55
f 37 145 76
f 41 148 87
f 34 155 91
f 33 133 67
f 25 134 56
f 36 157 75
f 20 124 83
f 14 109 68
f 13 105 48
f 15 111 78
f 16 114 93
f 17 117 98
f 21 125 88
f 31 152 65
f 26 137 57
f 38 158 77
f 39 123 86
f 27 143 64
f 22 127 53
f 28 135 74
f 29 147 84
f 30 150 89
f 31 153 70
f 26 140 99
f 38 138 95
f 39 159 81
f 21 122 52
f 14 107 109
f 13 103 105
f 15 104 111
f 16 110 114
f 17 113 117
f 21 118 125
f 31 154 152
f 26 141 137
f 38 162 158
f 39 121 123
f 27 142 143
f 22 129 127
f 28 130 135
f 29 144 147
f 30 146 150
f 31 151 153
f 26 131 140
f 38 136 138
f 39 161 159
f 21 126 122
f 14 44 107
f 13 43 103
f 15 45 104
f 16 46 110
f 17 47 113
f 21 52 118
f 31 70 154
f 26 99 141
f 38 95 162
f 39 81 121
f 27 59 142
f 22 58 129
f 28 60 130
f 29 61 144
f 30 62 146
f 31 65 151
f 26 57 131
f 38 77 136
f 39 86 161
f 21 88 126
f 17 98 116
f 14 68 108
f 13 48 106
f 15 78 112
f 16 93 115
f 18 69 119
f 35 101 156
f 42 97 139
f 40 82 160
f 19 50 120
f 30 89 149
f 27 64 132
f 22 53 128
f 28 74 145
f 29 84 148
f 32 90 155
f 23 63 133
f 24 55 134
f 37 76 157
f 41 87 124
f 35 72 109
f 18 49 105
f 19 79 111
f 40 96 114
f 42 102 117
f 34 91 125
f 33 67 152
f 25 56 137
f 36 75 158
f 20 83 123
f 32 66 143
f 23 54 127
f 24 73 135
f 37 85 147
f 41 92 150
f 34 71 153
f 33 100 140
f 25 94 138
f 36 80 159
f 20 51 122
f 17 116 107
f 14 108 103
f 13 106 104
f 15 112 110
f 16 115 113
f 18 119 118
f 35 156 154
f 42 139 141
f 40 160 162
f 19 120 121
f 30 149 142
f 27 132 129
f 22 128 130
f 28 145 144
f 29 148 146
f 32 155 151
f 23 133 131
f 24 134 136
f 37 157 161
f 41 124 126
f 107 44 47
f 103 43 44
f 104 45 43
f 110 46 45
f 113 47 46
f 118 52 49
f 154 70 72
f 141 99 102
f 162 95 96
f 121 81 79
f 142 59 62
f 129 58 59
f 130 60 58
f 144 61 60
f 146 62 61
f 151 65 66
f 131 57 54
f 136 77 73
f 161 86 85
f 126 88 92
f 116 98 101
f 108 68 69
f 106 48 50
f 112 78 82
f 115 93 97
f 119 69 71
f 156 101 100
f 139 97 94
f 160 82 80
f 120 50 51
f 149 89 90
f 132 64 63
f 128 53 55
f 145 74 76
f 148 84 87
f 155 90 91
f 133 63 67
f 134 55 56
f 157 76 75
f 124 87 83
f 109 72 68
f 105 49 48
f 111 79 78
f 114 96 93
f 117 102 98
f 125 91 88
f 152 67 65
f 137 56 57
f 158 75 77
f 123 83 86
f 143 66 64
f 127 54 53
f 135 73 74
f 147 85 84
f 150 92 89
f 153 71 70
f 140 100 99
f 138 94 95
f 159 80 81
f 122 51 52
f 107 116 109
f 103 108 105
f 104 106 111
f 110 112 114
f 113 115 117
f 118 119 125
f 154 156 152
f 141 139 137
f 162 160 158
f 121 120 123
f 142 149 143
f 129 132 127
f 130 128 135
f 144 145 147
f 146 148 150
f 151 155 153
f 131 133 140
f 136 134 138
f 161 157 159
f 126 124 122

