# https://github.com/mikedh/trimesh
v 2.17327581 4.14843619 1.32835001
v 2.38522422 3.37634828 1.33754743
v 2.18376054 4.14988774 1.20860566
v 2.39570871 3.37780007 1.21780308
v 2.26728040 3.75768957 1.21399929
v 2.25728871 3.75630603 1.32811648
v 2.28318831 3.84785164 1.21648522
v 2.27319638 3.84646809 1.33060241
v 2.41039502 3.36209036 1.27923853
v 2.37437249 3.35216272 1.27596408
v 2.18799548 4.17224994 1.26958757
v 2.15197295 4.16232254 1.26631311
v 2.27938419 3.76244102 1.33394484
v 2.15755681 4.12261062 1.32635834
v 2.19339944 4.13248889 1.32961640
v 2.18264953 4.16927589 1.32630067
v 2.14849112 4.15986175 1.32319574
v 2.35853631 3.39047946 1.33507975
v 2.39437917 3.40035749 1.33833783
v 2.40393488 3.36317441 1.33590332
v 2.36977649 3.35376051 1.33279837
v 2.29003982 3.76391631 1.21224818
v 2.16798880 4.12405517 1.20721382
v 2.20383165 4.13393345 1.21047189
v 2.19259148 4.17065240 1.21275326
v 2.15843307 4.16123825 1.20964832
v 2.36896853 3.39192376 1.21593524
v 2.40481116 3.40180204 1.21919331
v 2.41387684 3.36455092 1.22235591
v 2.37971844 3.35513701 1.21925095
v 2.26197641 3.75691284 1.27102984
v 2.37256163 3.37356348 1.22153645
v 2.16167176 4.14179594 1.21238501
v 2.36308683 3.37225148 1.32974800
v 2.15219695 4.14048419 1.32059648
v 2.27814357 3.84854487 1.27355633
v 2.41017101 3.38392848 1.22495516
v 2.19928114 4.15216093 1.21580366
v 2.40069621 3.38261648 1.33316666
v 2.18980633 4.15084919 1.32401519
v 2.39772473 3.35149446 1.27800068
v 2.17169927 4.17486286 1.26819234
v 2.17971376 4.12391740 1.32936277
v 2.15518935 4.13555582 1.32669487
v 2.18876163 4.14480838 1.32974654
v 2.18308365 4.16280645 1.32823553
v 2.15108889 4.15398902 1.32532718
v 2.37823738 3.40073358 1.33797759
v 2.36310699 3.37815051 1.33571733
v 2.39667950 3.38740284 1.33876908
v 2.40099405 3.36899970 1.33769165
v 2.36899907 3.36018203 1.33478337
v 2.19032800 4.12538701 1.20813738
v 2.16568846 4.13700959 1.20678259
v 2.19926098 4.14626215 1.20983432
v 2.19336890 4.16423063 1.21076827
v 2.16137392 4.15541273 1.20786001
v 2.38885162 3.40220320 1.21675220
v 2.37360634 3.37960428 1.21580510
v 2.40717861 3.38885661 1.21885680
v 2.41127906 3.37042388 1.22022446
v 2.37928432 3.36160621 1.21731611
v 2.17365547 4.10068733 1.20834236
v 2.36190530 3.41492852 1.21651138
v 2.26673030 3.75758132 1.21759213
v 2.36592504 3.39788221 1.21936785
v 2.16839272 4.11745576 1.21079601
v 2.16338272 4.09926477 1.32566973
v 2.35163230 3.41350619 1.33383872
v 2.25737134 3.75628536 1.32448114
v 2.35612327 3.39652511 1.33131496
v 2.15859095 4.11609867 1.32274312
v 2.21073566 4.11090646 1.21171292
v 2.39898525 3.42514765 1.21988195
v 2.28283483 3.84885856 1.22010876
v 2.40377702 3.40831400 1.22280853
v 2.20624469 4.12788755 1.21423669
v 2.20046267 4.10948390 1.32904029
v 2.38871250 3.42372532 1.33720928
v 2.27347586 3.84756261 1.32699784
v 2.39397524 3.40695690 1.33475563
v 2.19644291 4.12653046 1.32618379
v 2.40555218 3.36078322 1.33239183
v 2.41486449 3.36207255 1.22603641
v 2.41322443 3.37054761 1.22851404
v 2.40434960 3.36931880 1.32987156
v 2.41062942 3.35676584 1.27919451
v 2.37021482 3.35104442 1.32917966
v 2.37952690 3.35233375 1.22282425
v 2.37618850 3.36034076 1.22514753
v 2.36731390 3.35911194 1.32650498
v 2.37688848 3.34746687 1.27612747
v 2.18284107 4.17207891 1.32272740
v 2.19215315 4.17336847 1.21637197
v 2.19505406 4.16530073 1.21904667
v 2.18617947 4.16407214 1.32040411
v 2.18547948 4.17694556 1.26942420
v 2.14750347 4.16234012 1.31951524
v 2.15681579 4.16362968 1.21315979
v 2.15801836 4.15509387 1.21568008
v 2.14914354 4.15386529 1.31703758
v 2.15173855 4.16764681 1.26635714
v 2.16484546 4.10011050 1.32770281
v 2.19845625 4.10937339 1.33075800
v 2.35330955 3.41357119 1.33588112
v 2.38692033 3.42283408 1.33893632
v 2.15125407 4.14701367 1.32513912
v 2.25793022 3.75651659 1.33101049
v 2.15387620 4.13435906 1.32429079
v 2.18652156 4.15673330 1.32834490
v 2.27309075 3.84244276 1.33337964
v 2.19088246 4.14455757 1.32765459
v 2.16846006 4.16754934 1.32532521
v 2.18563872 4.16313300 1.32556970
v 2.18009119 4.17559794 1.32259030
v 2.14921165 4.15309411 1.32225848
v 2.14806008 4.16677020 1.31967867
v 2.36558164 3.36625825 1.33443979
v 2.36138165 3.37845598 1.33329538
v 2.40084914 3.37597765 1.33764559
v 2.39838768 3.38865448 1.33665918
v 2.39085865 3.35739334 1.33497608
v 2.40337393 3.36996432 1.33501818
v 2.40498519 3.35635143 1.33234948
v 2.36694686 3.35992519 1.33170705
v 2.37295384 3.34752370 1.32943784
v 2.17544762 4.10157835 1.20661534
v 2.20905842 4.11084123 1.20967054
v 2.36391172 3.41503927 1.21479364
v 2.39752251 3.42430216 1.21784883
v 2.16151883 4.14843478 1.20790607
v 2.26841473 3.75796819 1.21126669
v 2.16398029 4.13575817 1.20889247
v 2.19678633 4.15815441 1.21111185
v 2.28357526 3.84389436 1.21363584
v 2.20098632 4.14595668 1.21225628
v 2.17845219 4.16893279 1.21120664
v 2.19542111 4.16448747 1.21384460
v 2.18941412 4.17688873 1.21611382
v 2.15899403 4.15444858 1.21053344
v 2.15738277 4.16806146 1.21320215
v 2.37584640 3.36767935 1.21720675
v 2.37148550 3.37985485 1.21789707
v 2.41111390 3.37739900 1.22041253
v 2.40849177 3.39005360 1.22126086
v 2.40085054 3.35877679 1.22085751
v 2.41315632 3.37131878 1.22329314
v 2.41430789 3.35764222 1.22587299
v 2.37672924 3.36127966 1.21998195
v 2.38227677 3.34881472 1.22296134
v 2.36539353 3.39735809 1.22459297
v 2.16763629 4.11775064 1.21601140
v 2.35650889 3.39612784 1.32606585
v 2.15875164 4.11652037 1.31748422
v 2.36825994 3.37094919 1.27565668
v 2.15630916 4.14304618 1.26645912
v 2.40361632 3.40789206 1.22806745
v 2.20585907 4.12828459 1.21948581
v 2.39473167 3.40666203 1.32954025
v 2.19697443 4.12705480 1.32095865
v 2.40605880 3.38136649 1.27909252
v 2.19410802 4.15346323 1.26989500
f 1 47 44
f 1 44 43
f 1 43 45
f 1 45 46
f 1 46 47
f 2 49 52
f 6 72 70
f 12 102 99
f 11 96 95
f 8 79 81
f 4 62 59
f 4 59 58
f 4 58 60
f 4 60 61
f 4 61 62
f 5 66 65
f 3 54 57
f 7 73 77
f 9 85 86
f 10 92 88
f 12 101 98
f 6 69 68
f 2 50 48
f 8 82 78
f 11 97 93
f 6 71 69
f 12 100 101
f 11 94 97
f 8 80 82
f 2 51 50
f 10 90 89
f 5 63 64
f 3 55 53
f 7 76 74
f 9 87 84
f 10 91 90
f 5 67 63
f 3 56 55
f 7 75 76
f 9 83 87
f 6 68 72
f 2 48 49
f 8 78 79
f 11 93 96
f 12 98 102
f 10 88 91
f 5 65 67
f 3 57 56
f 7 77 75
f 9 86 83
f 5 64 66
f 3 53 54
f 7 74 73
f 9 84 85
f 10 89 92
f 6 70 71
f 12 99 100
f 11 95 94
f 8 81 80
f 2 52 51
f 35 109 116
f 18 105 108
f 19 111 106
f 40 114 112
f 42 117 115
f 34 125 119
f 33 152 156
f 25 137 139
f 36 158 160
f 20 123 120
f 32 143 149
f 23 127 132
f 24 135 128
f 37 147 145
f 41 150 148
f 34 153 155
f 33 140 133
f 25 138 134
f 36 159 157
f 20 122 124
f 17 107 47
f 14 103 44
f 13 104 43
f 15 110 45
f 16 113 46
f 18 118 49
f 35 154 72
f 42 141 102
f 40 162 96
f 19 121 79
f 30 142 62
f 27 129 59
f 22 130 58
f 28 144 60
f 29 146 61
f 32 151 66
f 23 131 54
f 24 136 73
f 37 161 85
f 41 126 92
f 35 116 101
f 18 108 69
f 19 106 50
f 40 112 82
f 42 115 97
f 34 119 71
f 33 156 100
f 25 139 94
f 36 160 80
f 20 120 51
f 32 149 90
f 23 132 63
f 24 128 55
f 37 145 76
f 41 148 87
f 34 155 91
f 33 133 67
f 25 134 56
f 36 157 75
f 20 124 83
f 14 109 68
f 13 105 48
f 15 111 78
f 16 114 93
f 17 117 98
f 21 125 88
f 31 152 65
f 26 137 57
f 38 158 77
f 39 123 86
f 27 143 64
f 22 127 53
f 28 135 74
f 29 147 84
f 30 150 89
f 31 153 70
f 26 140 99
f 38 138 95
f 39 159 81
f 21 122 52
f 14 107 109
f 13 103 105
f 15 104 111
f 16 110 114
f 17 113 117
f 21 118 125
f 31 154 152
f 26 141 137
f 38 162 158
f 39 121 123
f 27 142 143
f 22 129 127
f 28 130 135
f 29 144 147
f 30 146 150
f 31 151 153
f 26 131 140
f 38 136 138
f 39 161 159
f 21 126 122
f 14 44 107
f 13 43 103
f 15 45 104
f 16 46 110
f 17 47 113
f 21 52 118
f 31 70 154
f 26 99 141
f 38 95 162
f 39 81 121
f 27 59 142
f 22 58 129
f 28 60 130
f 29 61 144
f 30 62 146
f 31 65 151
f 26 57 131
f 38 77 136
f 39 86 161
f 21 88 126
f 17 98 116
f 14 68 108
f 13 48 106
f 15 78 112
f 16 93 115
f 18 69 119
f 35 101 156
f 42 97 139
f 40 82 160
f 19 50 120
f 30 89 149
f 27 64 132
f 22 53 128
f 28 74 145
f 29 84 148
f 32 90 155
f 23 63 133
f 24 55 134
f 37 76 157
f 41 87 124
f 35 72 109
f 18 49 105
f 19 79 111
f 40 96 114
f 42 102 117
f 34 91 125
f 33 67 152
f 25 56 137
f 36 75 158
f 20 83 123
f 32 66 143
f 23 54 127
f 24 73 135
f 37 85 147
f 41 92 150
f 34 71 153
f 33 100 140
f 25 94 138
f 36 80 159
f 20 51 122
f 17 116 107
f 14 108 103
f 13 106 104
f 15 112 110
f 16 115 113
f 18 119 118
f 35 156 154
f 42 139 141
f 40 160 162
f 19 120 121
f 30 149 142
f 27 132 129
f 22 128 130
f 28 145 144
f 29 148 146
f 32 155 151
f 23 133 131
f 24 134 136
f 37 157 161
f 41 124 126
f 107 44 47
f 103 43 44
f 104 45 43
f 110 46 45
f 113 47 46
f 118 52 49
f 154 70 72
f 141 99 102
f 162 95 96
f 121 81 79
f 142 59 62
f 129 58 59
f 130 60 58
f 144 61 60
f 146 62 61
f 151 65 66
f 131 57 54
f 136 77 73
f 161 86 85
f 126 88 92
f 116 98 101
f 108 68 69
f 106 48 50
f 112 78 82
f 115 93 97
f 119 69 71
f 156 101 100
f 139 97 94
f 160 82 80
f 120 50 51
f 149 89 90
f 132 64 63
f 128 53 55
f 145 74 76
f 148 84 87
f 155 90 91
f 133 63 67
f 134 55 56
f 157 76 75
f 124 87 83
f 109 72 68
f 105 49 48
f 111 79 78
f 114 96 93
f 117 102 98
f 125 91 88
f 152 67 65
f 137 56 57
f 158 75 77
f 123 83 86
f 143 66 64
f 127 54 53
f 135 73 74
f 147 85 84
f 150 92 89
f 153 71 70
f 140 100 99
f 138 94 95
f 159 80 81
f 122 51 52
f 107 116 109
f 103 108 105
f 104 106 111
f 110 112 114
f 113 115 117
f 118 119 125
f 154 156 152
f 141 139 137
f 162 160 158
f 121 120 123
f 142 149 143
f 129 132 127
f 130 128 135
f 144 145 147
f 146 148 150
f 151 155 153
f 131 133 140
f 136 134 138
f 161 157 159
f 126 124 122

