# https://github.com/mikedh/trimesh
v 2.09574642 3.24238565 1.20542867
v 1.75157206 4.48890622 1.16757218
v 2.40265739 3.32738998 1.21411391
v 2.05848303 4.57391078 1.17625741
v 2.22257109 3.94913731 1.21808704
v 1.93008260 3.86812761 1.20980996
v 2.25946000 3.81956668 1.18267021
v 1.96697174 3.73855674 1.17439310
v 1.89706367 4.56182118 1.15568407
v 1.89578545 4.56260629 1.19316289
v 2.25820931 3.25383418 1.19540730
v 2.25693110 3.25461954 1.23288607
v 1.92116526 3.86494829 1.18620103
v 2.08685608 3.27531590 1.22655871
v 2.08812783 3.27453467 1.18926708
v 2.11175773 3.21682798 1.19215972
v 2.11054567 3.21757281 1.22769888
v 1.76049335 4.45732760 1.19066136
v 1.76176510 4.45654613 1.15336971
v 1.75242111 4.51826286 1.15263551
v 1.75120927 4.51900745 1.18817465
v 2.23307990 3.95133847 1.19502784
v 2.39222965 3.35989458 1.23520042
v 2.39350141 3.35911311 1.19790882
v 2.40278549 3.29743325 1.20039548
v 2.40157365 3.29817785 1.23593462
v 2.06586693 4.54190605 1.19930308
v 2.06713868 4.54112457 1.16201145
v 2.04344909 4.59886790 1.16087130
v 2.04223703 4.59961297 1.19641040
v 2.07631583 3.90863912 1.21426907
v 2.04377814 4.56718747 1.19894063
v 2.38623386 3.32689067 1.23660805
v 1.76642650 4.49036981 1.19109190
v 2.10888222 3.25007325 1.22875937
v 2.11380645 3.77695600 1.17827482
v 2.04511254 4.56636747 1.15981077
v 2.38756826 3.32607067 1.19747826
v 1.76776090 4.48955028 1.15196207
v 2.11021662 3.24925347 1.18962949
v 1.89360570 4.57279950 1.17042900
v 2.26063934 3.24348749 1.21079986
v 2.08294100 3.28134201 1.20439404
v 2.09154577 3.25461638 1.22596944
v 2.09273711 3.25388447 1.19103986
v 2.10395583 3.22538492 1.19284165
v 2.10282045 3.22608247 1.22612980
v 1.76056664 4.44890819 1.16893537
v 1.75391653 4.47743286 1.18883286
v 1.75510763 4.47670069 1.15390325
v 1.75009971 4.50697041 1.15392027
v 1.74896457 4.50766797 1.18720838
v 2.39364807 3.36739742 1.21318675
v 2.39888713 3.33974002 1.23466689
v 2.40007823 3.33900809 1.19973727
v 2.40503031 3.30877273 1.20136172
v 2.40389493 3.30947029 1.23464988
v 2.07127360 4.53496360 1.17772808
v 2.06125765 4.56255601 1.19753030
v 2.06244899 4.56182433 1.16260071
v 2.05117431 4.59035824 1.16244033
v 2.05003893 4.59105580 1.19572846
v 2.37954321 3.39669689 1.23464135
v 2.07385185 4.50384061 1.20101767
v 2.21329967 3.94657675 1.21806809
v 2.05940641 4.52923636 1.20039508
v 2.38017135 3.36749879 1.23567671
v 2.07882722 3.31340836 1.22613141
v 1.77313586 4.42055209 1.19250779
v 1.93933751 3.87069808 1.21031531
v 1.77248035 4.44976700 1.19227537
v 2.09324540 3.28802968 1.22755703
v 2.38085890 3.39588839 1.19606237
v 2.07516754 4.50303258 1.16243872
v 2.25064494 3.81540365 1.18221322
v 2.06074936 4.52841127 1.16101309
v 2.38151453 3.36667370 1.19629474
v 2.08014290 3.31259987 1.18755246
v 1.77445155 4.41974407 1.15392877
v 1.97668290 3.73952498 1.17446040
v 1.77382330 4.44894192 1.15289344
v 2.09458835 3.28720435 1.18817506
v 1.76050103 4.52499559 1.15215557
v 2.03309549 4.60049537 1.15986966
v 2.03040773 4.58534935 1.15921043
v 1.77062324 4.51339734 1.15185883
v 1.89478981 4.56993467 1.15662542
v 1.75924724 4.52576615 1.18892160
v 2.03184169 4.60126593 1.19663569
v 2.02909368 4.58615653 1.19774353
v 1.76930919 4.51420501 1.19039190
v 1.89359264 4.57067048 1.19173022
v 2.12215307 3.21517477 1.19193444
v 2.39474752 3.29067456 1.19964856
v 2.38468569 3.30223595 1.19817825
v 2.12490108 3.23028418 1.19082664
v 2.26040224 3.24577047 1.19683990
v 2.12089927 3.21594510 1.22870049
v 2.39349373 3.29144489 1.23641459
v 2.38337164 3.30304337 1.23671130
v 2.12358703 3.23109159 1.22935969
v 2.25920507 3.24650603 1.23194472
v 2.07424414 3.31140565 1.22420941
v 2.07543658 3.31067290 1.18924003
v 1.76820484 4.41981001 1.19054743
v 1.76939738 4.41907703 1.15557814
v 2.10015368 3.23673678 1.22752084
v 1.92290351 3.86611112 1.20868207
v 2.09693484 3.25746880 1.22788252
v 2.10140489 3.23596804 1.19082770
v 1.95805952 3.74262793 1.17492917
v 2.09824780 3.25666198 1.18938051
v 2.11144677 3.21364894 1.20639621
v 2.11125093 3.22788981 1.19072857
v 2.12371143 3.20874956 1.19384497
v 2.10995841 3.22868381 1.22862807
v 2.12257491 3.20944779 1.22717104
v 1.75211558 4.49725091 1.18923934
v 1.75997517 4.47785967 1.19081960
v 1.75336679 4.49648242 1.15254625
v 1.76128813 4.47705261 1.15231756
v 1.75030267 4.52162997 1.16667321
v 1.75767932 4.50844541 1.15183844
v 1.75851515 4.53140733 1.15367621
v 1.75638680 4.50923917 1.18973796
v 1.75737862 4.53210555 1.18700224
v 2.38459750 3.39736343 1.23299202
v 2.38578992 3.39663069 1.19802267
v 2.07855818 4.50576757 1.19933012
v 2.07975062 4.50503507 1.16436073
v 2.40062797 3.31995854 1.23602387
v 2.22981305 3.95111498 1.21736727
v 2.39270663 3.33938786 1.23625260
v 2.40187918 3.31918956 1.19933081
v 2.26496907 3.82763178 1.18361441
v 2.39401960 3.33858127 1.19775050
v 2.40393836 3.29465960 1.21467344
v 2.39760797 3.30720129 1.19883217
v 2.39661614 3.28433515 1.20156787
v 2.39631544 3.30799554 1.23673167
v 2.39547961 3.28503362 1.23489391
v 2.05258987 4.58047291 1.19774242
v 2.05574696 4.55977873 1.19918966
v 2.05384108 4.57970393 1.16104931
v 2.05705992 4.55897214 1.16068759
v 2.04279439 4.60264039 1.17495045
v 2.04403635 4.58775666 1.15994209
v 2.03141985 4.60699292 1.16139911
v 2.04274383 4.58855091 1.19784156
v 2.03028334 4.60769115 1.19472519
v 2.04579429 4.52618400 1.20018811
v 2.36692448 3.36312398 1.23550993
v 1.78571425 4.45415004 1.19282814
v 2.10684443 3.29109026 1.22814995
v 1.90423765 4.53189990 1.19501997
v 2.24841603 3.28536477 1.23287686
v 2.04715033 4.52535020 1.16042021
v 2.36828052 3.36229066 1.19574200
v 1.78707028 4.45331673 1.15306020
v 2.10820048 3.29025695 1.18838201
v 1.90557873 4.53107593 1.15569327
v 2.24975711 3.28454058 1.19355022
f 1 47 44
f 1 44 43
f 1 43 45
f 1 45 46
f 1 46 47
f 2 49 52
f 6 72 70
f 12 102 99
f 11 96 95
f 8 79 81
f 4 62 59
f 4 59 58
f 4 58 60
f 4 60 61
f 4 61 62
f 5 66 65
f 3 54 57
f 7 73 77
f 9 85 86
f 10 92 88
f 12 101 98
f 6 69 68
f 2 50 48
f 8 82 78
f 11 97 93
f 6 71 69
f 12 100 101
f 11 94 97
f 8 80 82
f 2 51 50
f 10 90 89
f 5 63 64
f 3 55 53
f 7 76 74
f 9 87 84
f 10 91 90
f 5 67 63
f 3 56 55
f 7 75 76
f 9 83 87
f 6 68 72
f 2 48 49
f 8 78 79
f 11 93 96
f 12 98 102
f 10 88 91
f 5 65 67
f 3 57 56
f 7 77 75
f 9 86 83
f 5 64 66
f 3 53 54
f 7 74 73
f 9 84 85
f 10 89 92
f 6 70 71
f 12 99 100
f 11 95 94
f 8 81 80
f 2 52 51
f 35 109 116
f 18 105 108
f 19 111 106
f 40 114 112
f 42 117 115
f 34 125 119
f 33 152 156
f 25 137 139
f 36 158 160
f 20 123 120
f 32 143 149
f 23 127 132
f 24 135 128
f 37 147 145
f 41 150 148
f 34 153 155
f 33 140 133
f 25 138 134
f 36 159 157
f 20 122 124
f 17 107 47
f 14 103 44
f 13 104 43
f 15 110 45
f 16 113 46
f 18 118 49
f 35 154 72
f 42 141 102
f 40 162 96
f 19 121 79
f 30 142 62
f 27 129 59
f 22 130 58
f 28 144 60
f 29 146 61
f 32 151 66
f 23 131 54
f 24 136 73
f 37 161 85
f 41 126 92
f 35 116 101
f 18 108 69
f 19 106 50
f 40 112 82
f 42 115 97
f 34 119 71
f 33 156 100
f 25 139 94
f 36 160 80
f 20 120 51
f 32 149 90
f 23 132 63
f 24 128 55
f 37 145 76
f 41 148 87
f 34 155 91
f 33 133 67
f 25 134 56
f 36 157 75
f 20 124 83
f 14 109 68
f 13 105 48
f 15 111 78
f 16 114 93
f 17 117 98
f 21 125 88
f 31 152 65
f 26 137 57
f 38 158 77
f 39 123 86
f 27 143 64
f 22 127 53
f 28 135 74
f 29 147 84
f 30 150 89
f 31 153 70
f 26 140 99
f 38 138 95
f 39 159 81
f 21 122 52
f 14 107 109
f 13 103 105
f 15 104 111
f 16 110 114
f 17 113 117
f 21 118 125
f 31 154 152
f 26 141 137
f 38 162 158
f 39 121 123
f 27 142 143
f 22 129 127
f 28 130 135
f 29 144 147
f 30 146 150
f 31 151 153
f 26 131 140
f 38 136 138
f 39 161 159
f 21 126 122
f 14 44 107
f 13 43 103
f 15 45 104
f 16 46 110
f 17 47 113
f 21 52 118
f 31 70 154
f 26 99 141
f 38 95 162
f 39 81 121
f 27 59 142
f 22 58 129
f 28 60 130
f 29 61 144
f 30 62 146
f 31 65 151
f 26 57 131
f 38 77 136
f 39 86 161
f 21 88 126
f 17 98 116
f 14 68 108
f 13 48 106
f 15 78 112
f 16 93 115
f 18 69 119
f 35 101 156
f 42 97 139
f 40 82 160
f 19 50 120
f 30 89 149
f 27 64 132
f 22 53 128
f 28 74 145
f 29 84 148
f 32 90 155
f 23 63 133
f 24 55 134
f 37 76 157
f 41 87 124
f 35 72 109
f 18 49 105
f 19 79 111
f 40 96 114
f 42 102 117
f 34 91 125
f 33 67 152
f 25 56 137
f 36 75 158
f 20 83 123
f 32 66 143
f 23 54 127
f 24 73 135
f 37 85 147
f 41 92 150
f 34 71 153
f 33 100 140
f 25 94 138
f 36 80 159
f 20 51 122
f 17 116 107
f 14 108 103
f 13 106 104
f 15 112 110
f 16 115 113
f 18 119 118
f 35 156 154
f 42 139 141
f 40 160 162
f 19 120 121
f 30 149 142
f 27 132 129
f 22 128 130
f 28 145 144
f 29 148 146
f 32 155 151
f 23 133 131
f 24 134 136
f 37 157 161
f 41 124 126
f 107 44 47
f 103 43 44
f 104 45 43
f 110 46 45
f 113 47 46
f 118 52 49
f 154 70 72
f 141 99 102
f 162 95 96
f 121 81 79
f 142 59 62
f 129 58 59
f 130 60 58
f 144 61 60
f 146 62 61
f 151 65 66
f 131 57 54
f 136 77 73
f 161 86 85
f 126 88 92
f 116 98 101
f 108 68 69
f 106 48 50
f 112 78 82
f 115 93 97
f 119 69 71
f 156 101 100
f 139 97 94
f 160 82 80
f 120 50 51
f 149 89 90
f 132 64 63
f 128 53 55
f 145 74 76
f 148 84 87
f 155 90 91
f 133 63 67
f 134 55 56
f 157 76 75
f 124 87 83
f 109 72 68
f 105 49 48
f 111 79 78
f 114 96 93
f 117 102 98
f 125 91 88
f 152 67 65
f 137 56 57
f 158 75 77
f 123 83 86
f 143 66 64
f 127 54 53
f 135 73 74
f 147 85 84
f 150 92 89
f 153 71 70
f 140 100 99
f 138 94 95
f 159 80 81
f 122 51 52
f 107 116 109
f 103 108 105
f 104 106 111
f 110 112 114
f 113 115 117
f 118 119 125
f 154 156 152
f 141 139 137
f 162 160 158
f 121 120 123
f 142 149 143
f 129 132 127
f 130 128 135
f 144 145 147
f 146 148 150
f 151 155 153
f 131 133 140
f 136 134 138
f 161 157 159
f 126 124 122

