# https://github.com/mikedh/trimesh
v 0.26895921 2.26052705 0.73151468
v 1.56284290 2.93584443 0.76440135
v 0.25354118 2.31913645 0.13459373
v 1.54742487 2.99445384 0.16748041
v 0.91153816 2.63504162 0.16278572
v 0.92623168 2.57918651 0.73165564
v 0.75969975 2.59997348 0.16326436
v 0.77439328 2.54411812 0.73213432
v 1.57995526 2.99528966 0.46825914
v 1.59729996 2.96223760 0.46456592
v 0.22226999 2.28667231 0.43375081
v 0.23961469 2.25362023 0.43005760
v 0.91592094 2.59790964 0.75284652
v 0.31262271 2.25866913 0.72869405
v 0.29536466 2.29155608 0.73236882
v 0.23342936 2.25980378 0.71675642
v 0.24987647 2.22846227 0.71325432
v 1.53954616 2.89903809 0.75987878
v 1.52228811 2.93192481 0.76355358
v 1.58431361 2.96487149 0.75109188
v 1.60076073 2.93352998 0.74758975
v 0.90025153 2.65747438 0.14619361
v 0.29728183 2.31698508 0.13476312
v 0.28002379 2.34987180 0.13843792
v 0.21880916 2.31537992 0.15072698
v 0.23525628 2.28403841 0.14722486
v 1.52420528 2.95735382 0.16594789
v 1.50694724 2.99024077 0.16962267
v 1.56969341 3.02044763 0.18506241
v 1.58614053 2.98910612 0.18156028
v 0.91903332 2.60683127 0.44718911
v 1.55558435 2.96965593 0.19387656
v 0.26816122 2.29771055 0.16115408
v 1.56951748 2.91669138 0.73330670
v 0.28209435 2.24474601 0.70058422
v 0.76471937 2.57119135 0.44767555
v 1.53747559 3.00416390 0.19773253
v 0.25005247 2.33221851 0.16501006
v 1.55140872 2.95119934 0.73716262
v 0.26398559 2.27925397 0.70444016
v 1.59799638 2.98777718 0.46705555
v 0.21817608 2.26760685 0.43198461
v 0.31013273 2.28135972 0.73622615
v 0.29094802 2.24846970 0.73018572
v 0.27478306 2.27927337 0.73362777
v 0.24450441 2.26322861 0.72667741
v 0.25990969 2.23387238 0.72339712
v 1.52206191 2.91390252 0.76702979
v 1.56022652 2.91094480 0.76244699
v 1.54406155 2.94174871 0.76588905
v 1.57478511 2.95754273 0.76048919
v 1.59019039 2.92818650 0.75720890
v 0.29452400 2.34069380 0.13192235
v 0.27550840 2.30716119 0.13242769
v 0.25934343 2.33796511 0.13586974
v 0.22937956 2.32072340 0.14110785
v 0.24478483 2.29136716 0.13782751
v 1.50645318 2.97323660 0.16272599
v 1.54478689 2.96963653 0.16468896
v 1.52862193 3.00044020 0.16813104
v 1.55966026 3.01503752 0.17491964
v 1.57506553 2.98568128 0.17163929
v 0.33655295 2.33625276 0.14021668
v 1.48576404 2.93606115 0.16942616
v 0.91211610 2.63305814 0.18077786
v 1.51463013 2.94917880 0.18351692
v 0.30875129 2.31979363 0.15286705
v 0.35165977 2.27882648 0.72508890
v 1.50087087 2.87863488 0.75429842
v 0.92587895 2.58074102 0.71361557
v 1.52904418 2.89438573 0.74156887
v 0.32316534 2.26500081 0.71091904
v 0.31869908 2.37027503 0.14401834
v 1.46791016 2.97008341 0.17322782
v 0.75839968 2.59755622 0.18126246
v 1.49640461 2.98390909 0.18739766
v 0.29052577 2.35452417 0.15674788
v 0.33380591 2.31284874 0.72889055
v 1.48301699 2.91265714 0.75810008
v 0.77216253 2.54523886 0.71410019
v 1.51081866 2.92911626 0.74544965
v 0.30493982 2.29973110 0.71479983
v 1.58791912 2.96944423 0.73333702
v 1.57422503 3.02150031 0.20315935
v 1.56027675 3.01382157 0.21535141
v 1.57332736 2.96421185 0.72061452
v 1.58890070 2.99862509 0.46835555
v 1.60493409 2.93702076 0.72971403
v 1.59124000 2.98907685 0.19953642
v 1.57810938 2.97984010 0.21155426
v 1.59115998 2.93023014 0.71681739
v 1.60514677 2.96766669 0.46489627
v 0.22833001 2.25983305 0.69878034
v 0.21463592 2.31188913 0.16860267
v 0.22840997 2.31867976 0.18149933
v 0.24146057 2.26906979 0.68676246
v 0.21442318 2.28124320 0.43342047
v 0.24534486 2.22740958 0.69515735
v 0.23165077 2.27946568 0.16497973
v 0.24624259 2.28469805 0.17770220
v 0.25929320 2.23508832 0.68296531
v 0.23066925 2.25028480 0.42996117
v 0.35041251 2.27915659 0.73462209
v 0.33422913 2.30999550 0.73806804
v 1.50093183 2.87964769 0.76386485
v 1.48474846 2.91048660 0.76731079
v 0.27161838 2.23813594 0.72292367
v 0.92616643 2.57862423 0.74577086
v 0.29274288 2.24865613 0.71879074
v 0.25463730 2.27049519 0.72653949
v 0.78146164 2.54520357 0.74622705
v 0.27492465 2.28261057 0.72258481
v 0.23662079 2.24540510 0.71669849
v 0.24360216 2.26694627 0.71260599
v 0.22247171 2.25480951 0.69874325
v 0.26114153 2.23352316 0.70887128
v 0.23789457 2.22541972 0.69545923
v 1.58002738 2.92103464 0.75617951
v 1.55950367 2.90981719 0.75098806
v 1.56304618 2.95339365 0.75979533
v 1.54168544 2.94377162 0.75478210
v 1.59430003 2.95401934 0.75120664
v 1.57281388 2.96070251 0.74639056
v 1.59538513 2.97137475 0.73363862
v 1.59035326 2.92727940 0.74265586
v 1.61080800 2.94198520 0.73035457
v 0.33482155 2.33842330 0.13100597
v 0.31863817 2.36926220 0.13445186
v 1.48534076 2.93891440 0.16024871
v 1.46915737 2.96975331 0.16369466
v 0.25652371 2.29551624 0.13852137
v 0.91074840 2.63723336 0.14885255
v 0.27788444 2.30513828 0.14353463
v 0.23954263 2.32787526 0.14213724
v 0.76604362 2.60381271 0.14930877
v 0.26006622 2.33909270 0.14732867
v 0.22192709 2.30126088 0.14782187
v 0.22921669 2.32163050 0.15566090
v 0.20876195 2.30692470 0.16796215
v 0.24675607 2.28820740 0.15192620
v 0.22418481 2.27753515 0.16467811
v 1.56493259 2.97841470 0.17177721
v 1.54464524 2.96629934 0.17573195
v 1.54795163 3.01077396 0.17539306
v 1.52682701 3.00025376 0.17952599
v 1.57960622 3.00987511 0.18233004
v 1.55842842 3.01538673 0.18944542
v 1.58167538 3.02349018 0.20285750
v 1.57596779 2.98196363 0.18571072
v 1.59709824 2.99410039 0.19957348
v 1.51607999 2.94680341 0.20962224
v 0.30882863 2.31670193 0.17893751
v 1.52914551 2.89713706 0.71546040
v 0.32189404 2.26703582 0.68477566
v 1.56583430 2.94477696 0.46366420
v 0.27193549 2.26945141 0.43077718
v 1.49767597 2.98187407 0.21354103
v 0.29042449 2.35177283 0.18285633
v 1.51074125 2.93220797 0.71937922
v 0.30348990 2.30210649 0.68869449
v 1.54763452 2.97945849 0.46753955
v 0.25373559 2.30413294 0.43465253
f 1 47 44
f 1 44 43
f 1 43 45
f 1 45 46
f 1 46 47
f 2 49 52
f 6 72 70
f 12 102 99
f 11 96 95
f 8 79 81
f 4 62 59
f 4 59 58
f 4 58 60
f 4 60 61
f 4 61 62
f 5 66 65
f 3 54 57
f 7 73 77
f 9 85 86
f 10 92 88
f 12 101 98
f 6 69 68
f 2 50 48
f 8 82 78
f 11 97 93
f 6 71 69
f 12 100 101
f 11 94 97
f 8 80 82
f 2 51 50
f 10 90 89
f 5 63 64
f 3 55 53
f 7 76 74
f 9 87 84
f 10 91 90
f 5 67 63
f 3 56 55
f 7 75 76
f 9 83 87
f 6 68 72
f 2 48 49
f 8 78 79
f 11 93 96
f 12 98 102
f 10 88 91
f 5 65 67
f 3 57 56
f 7 77 75
f 9 86 83
f 5 64 66
f 3 53 54
f 7 74 73
f 9 84 85
f 10 89 92
f 6 70 71
f 12 99 100
f 11 95 94
f 8 81 80
f 2 52 51
f 35 109 116
f 18 105 108
f 19 111 106
f 40 114 112
f 42 117 115
f 34 125 119
f 33 152 156
f 25 137 139
f 36 158 160
f 20 123 120
f 32 143 149
f 23 127 132
f 24 135 128
f 37 147 145
f 41 150 148
f 34 153 155
f 33 140 133
f 25 138 134
f 36 159 157
f 20 122 124
f 17 107 47
f 14 103 44
f 13 104 43
f 15 110 45
f 16 113 46
f 18 118 49
f 35 154 72
f 42 141 102
f 40 162 96
f 19 121 79
f 30 142 62
f 27 129 59
f 22 130 58
f 28 144 60
f 29 146 61
f 32 151 66
f 23 131 54
f 24 136 73
f 37 161 85
f 41 126 92
f 35 116 101
f 18 108 69
f 19 106 50
f 40 112 82
f 42 115 97
f 34 119 71
f 33 156 100
f 25 139 94
f 36 160 80
f 20 120 51
f 32 149 90
f 23 132 63
f 24 128 55
f 37 145 76
f 41 148 87
f 34 155 91
f 33 133 67
f 25 134 56
f 36 157 75
f 20 124 83
f 14 109 68
f 13 105 48
f 15 111 78
f 16 114 93
f 17 117 98
f 21 125 88
f 31 152 65
f 26 137 57
f 38 158 77
f 39 123 86
f 27 143 64
f 22 127 53
f 28 135 74
f 29 147 84
f 30 150 89
f 31 153 70
f 26 140 99
f 38 138 95
f 39 159 81
f 21 122 52
f 14 107 109
f 13 103 105
f 15 104 111
f 16 110 114
f 17 113 117
f 21 118 125
f 31 154 152
f 26 141 137
f 38 162 158
f 39 121 123
f 27 142 143
f 22 129 127
f 28 130 135
f 29 144 147
f 30 146 150
f 31 151 153
f 26 131 140
f 38 136 138
f 39 161 159
f 21 126 122
f 14 44 107
f 13 43 103
f 15 45 104
f 16 46 110
f 17 47 113
f 21 52 118
f 31 70 154
f 26 99 141
f 38 95 162
f 39 81 121
f 27 59 142
f 22 58 129
f 28 60 130
f 29 61 144
f 30 62 146
f 31 65 151
f 26 57 131
f 38 77 136
f 39 86 161
f 21 88 126
f 17 98 116
f 14 68 108
f 13 48 106
f 15 78 112
f 16 93 115
f 18 69 119
f 35 101 156
f 42 97 139
f 40 82 160
f 19 50 120
f 30 89 149
f 27 64 132
f 22 53 128
f 28 74 145
f 29 84 148
f 32 90 155
f 23 63 133
f 24 55 134
f 37 76 157
f 41 87 124
f 35 72 109
f 18 49 105
f 19 79 111
f 40 96 114
f 42 102 117
f 34 91 125
f 33 67 152
f 25 56 137
f 36 75 158
f 20 83 123
f 32 66 143
f 23 54 127
f 24 73 135
f 37 85 147
f 41 92 150
f 34 71 153
f 33 100 140
f 25 94 138
f 36 80 159
f 20 51 122
f 17 116 107
f 14 108 103
f 13 106 104
f 15 112 110
f 16 115 113
f 18 119 118
f 35 156 154
f 42 139 141
f 40 160 162
f 19 120 121
f 30 149 142
f 27 132 129
f 22 128 130
f 28 145 144
f 29 148 146
f 32 155 151
f 23 133 131
f 24 134 136
f 37 157 161
f 41 124 126
f 107 44 47
f 103 43 44
f 104 45 43
f 110 46 45
f 113 47 46
f 118 52 49
f 154 70 72
f 141 99 102
f 162 95 96
f 121 81 79
f 142 59 62
f 129 58 59
f 130 60 58
f 144 61 60
f 146 62 61
f 151 65 66
f 131 57 54
f 136 77 73
f 161 86 85
f 126 88 92
f 116 98 101
f 108 68 69
f 106 48 50
f 112 78 82
f 115 93 97
f 119 69 71
f 156 101 100
f 139 97 94
f 160 82 80
f 120 50 51
f 149 89 90
f 132 64 63
f 128 53 55
f 145 74 76
f 148 84 87
f 155 90 91
f 133 63 67
f 134 55 56
f 157 76 75
f 124 87 83
f 109 72 68
f 105 49 48
f 111 79 78
f 114 96 93
f 117 102 98
f 125 91 88
f 152 67 65
f 137 56 57
f 158 75 77
f 123 83 86
f 143 66 64
f 127 54 53
f 135 73 74
f 147 85 84
f 150 92 89
f 153 71 70
f 140 100 99
f 138 94 95
f 159 80 81
f 122 51 52
f 107 116 109
f 103 108 105
f 104 106 111
f 110 112 114
f 113 115 117
f 118 119 125
f 154 156 152
f 141 139 137
f 162 160 158
f 121 120 123
f 142 149 143
f 129 132 127
f 130 128 135
f 144 145 147
f 146 148 150
f 151 155 153
f 131 133 140
f 136 134 138
f 161 157 159
f 126 124 122

