# https://github.com/mikedh/trimesh
v 3.24044238 5.18126461 1.81681845
v 3.56646978 3.88788026 1.82365832
v 2.93652509 5.10454991 1.79689141
v 3.26255273 3.81116532 1.80373129
v 3.10522833 4.45941607 1.82385663
v 3.39486360 4.53252587 1.84284726
v 3.07402512 4.59341823 1.78387172
v 3.36366039 4.66652804 1.80286225
v 3.42351049 3.81779583 1.79858494
v 3.42115596 3.81740010 1.83601765
v 3.08140649 5.17495724 1.79140771
v 3.07905196 5.17456152 1.82884041
v 3.40594781 4.53520002 1.82017255
v 3.24672959 5.14737191 1.83900616
v 3.24907239 5.14776552 1.80176046
v 3.22629697 5.20791996 1.80184216
v 3.22406437 5.20754513 1.83733771
v 3.55588478 3.92092224 1.84549208
v 3.55822756 3.92131585 1.80824626
v 3.56668726 3.85755703 1.80898344
v 3.56445467 3.85718196 1.84447888
v 3.09707571 4.45723486 1.79992055
v 2.94433489 5.07104148 1.81917909
v 2.94667767 5.07143509 1.78193328
v 2.93810778 5.13517537 1.78294646
v 2.93587519 5.13480006 1.81844194
v 3.25349007 3.84459181 1.82566488
v 3.25583286 3.84498543 1.78841919
v 3.27849809 3.78481244 1.79008762
v 3.27626548 3.78443738 1.82558319
v 3.25002585 4.49596791 1.83367211
v 3.27492889 3.81784594 1.82765257
v 2.95052912 5.10477205 1.82084679
v 3.54957498 3.88717215 1.84566027
v 3.22517546 5.17409827 1.83885460
v 3.21831409 4.63215444 1.79303521
v 3.27738698 3.81825882 1.78857078
v 2.95298747 5.10518518 1.78176508
v 3.55203332 3.88758505 1.80657858
v 3.22763356 5.17451140 1.79977278
v 3.42535254 3.80657356 1.81369363
v 3.07767098 5.18586132 1.80639948
v 3.25263336 5.14077509 1.81737603
v 3.24244192 5.16879973 1.83777863
v 3.24463631 5.16916827 1.80289192
v 3.23379644 5.19886601 1.80334698
v 3.23170516 5.19851468 1.83659418
v 3.55801027 3.92931375 1.82378269
v 3.56226943 3.90001119 1.84448836
v 3.56446384 3.90037998 1.80960173
v 3.56899502 3.86909865 1.81037920
v 3.56690376 3.86874733 1.84362653
v 2.94495706 5.06311168 1.79720257
v 2.93809861 5.09197760 1.81782359
v 2.94029301 5.09234615 1.78293699
v 2.93565869 5.12361024 1.78379881
v 2.93356743 5.12325892 1.81704613
v 3.25033421 3.85165011 1.80360925
v 3.25792614 3.82318883 1.82453346
v 3.26012053 3.82355761 1.78964671
v 3.27085729 3.79384266 1.79083116
v 3.26876601 3.79349133 1.82407837
v 2.95639137 5.03277585 1.82017850
v 3.24596476 3.88400820 1.82625363
v 3.11438588 4.46172906 1.82470100
v 3.25990673 3.85740436 1.82725205
v 2.95605437 5.06281801 1.82087741
v 3.25417410 5.10794226 1.83970332
v 3.54374749 3.95917459 1.84577834
v 3.38567554 4.53020813 1.84248864
v 3.54403425 3.92912384 1.84588149
v 3.24018166 5.13453725 1.83950689
v 2.95881496 5.03318275 1.78164702
v 3.24838835 3.88441532 1.78772201
v 3.08279680 4.59738866 1.78422149
v 3.26238079 3.85782010 1.78791846
v 2.95852820 5.06323374 1.78154383
v 3.25659769 5.10834913 1.80117172
v 3.54617107 3.95958149 1.80724686
v 3.35408647 4.66586726 1.80200915
v 3.54650808 3.92953932 1.80654794
v 3.24265572 5.13495297 1.80017331
v 3.55869578 3.85090907 1.80779535
v 3.28876015 3.78277201 1.79009635
v 3.29166554 3.79823801 1.78955662
v 3.54891607 3.86317324 1.80642381
v 3.42555150 3.80939045 1.79981481
v 3.55638602 3.85052086 1.84451617
v 3.28645041 3.78238381 1.82681730
v 3.28924479 3.79783148 1.82804229
v 3.54649532 3.86276647 1.84490950
v 3.42334625 3.80901979 1.83487656
v 3.21611205 5.20997352 1.80060806
v 2.94617642 5.14183624 1.78290919
v 2.95606713 5.12959062 1.78251587
v 3.21331766 5.19452585 1.79938306
v 3.07921620 5.18333754 1.79254880
v 3.21380230 5.20958532 1.83732900
v 2.94386668 5.14144850 1.81962999
v 2.95364638 5.12918434 1.82100152
v 3.21089691 5.19411909 1.83786875
v 3.07701095 5.18296688 1.82761054
v 3.25889431 5.10981938 1.83821013
v 3.26109099 5.11018855 1.80328370
v 3.54879730 3.95974406 1.84429214
v 3.55099422 3.96011322 1.80936570
v 3.23405647 5.18749003 1.83833286
v 3.40206190 4.53433817 1.84239268
v 3.23691867 5.16607686 1.83919370
v 3.23636172 5.18787742 1.80168484
v 3.37232468 4.66204458 1.80428631
v 3.23933738 5.16648326 1.80073897
v 3.22527609 5.21134969 1.81601224
v 3.22678901 5.19651641 1.80056914
v 3.21447886 5.21665361 1.80230078
v 3.22440797 5.19611638 1.83842212
v 3.21238525 5.21630199 1.83558588
v 3.56374416 3.87958600 1.84524958
v 3.55611182 3.89980467 1.84589019
v 3.56604917 3.87997316 1.80860158
v 3.55853053 3.90021106 1.80743544
v 3.56737868 3.85419449 1.82318937
v 3.56171829 3.86781786 1.80759578
v 3.56042001 3.84427001 1.80955843
v 3.55933750 3.86741783 1.84544875
v 3.55832641 3.84391841 1.84284353
v 2.95156824 5.03224436 1.81805963
v 2.95376516 5.03261303 1.78313323
v 3.24147146 3.88216880 1.82414166
v 3.24366814 3.88253795 1.78921522
v 2.93651328 5.11238418 1.81882376
v 3.09814605 4.45762348 1.82246584
v 2.94403192 5.09214627 1.81998990
v 2.93881829 5.11277157 1.78217576
v 3.06840882 4.58532989 1.78435934
v 2.94645064 5.09255266 1.78153517
v 2.93563748 5.13823890 1.79702142
v 2.94322495 5.12493926 1.78197662
v 2.94423604 5.14843917 1.78458181
v 2.94084416 5.12453924 1.81982960
v 2.94214244 5.14808708 1.81786694
v 3.26620074 3.80448015 1.82574049
v 3.26322508 3.82587408 1.82668638
v 3.26850599 3.80486731 1.78909249
v 3.26564378 3.82628047 1.78823164
v 3.27774006 3.78108394 1.80419852
v 3.27815448 3.79624071 1.78900325
v 3.29017720 3.77605535 1.79183948
v 3.27577345 3.79584069 1.82685622
v 3.28808359 3.77570373 1.82512457
v 3.27335958 3.86007139 1.82831994
v 2.96916132 5.06685702 1.82193810
v 3.53090272 3.92508059 1.84520634
v 3.22670446 5.13186597 1.83882440
v 3.41306167 3.84927138 1.83677183
v 3.08703025 5.14267103 1.82993191
v 3.27585799 3.86049136 1.78860096
v 2.97165973 5.06727651 1.78221904
v 3.53340113 3.92550032 1.80548726
v 3.22920286 5.13228595 1.79910541
v 3.41553220 3.84968654 1.79749343
v 3.08950078 5.14308596 1.79065351
f 1 47 44
f 1 44 43
f 1 43 45
f 1 45 46
f 1 46 47
f 2 49 52
f 6 72 70
f 12 102 99
f 11 96 95
f 8 79 81
f 4 62 59
f 4 59 58
f 4 58 60
f 4 60 61
f 4 61 62
f 5 66 65
f 3 54 57
f 7 73 77
f 9 85 86
f 10 92 88
f 12 101 98
f 6 69 68
f 2 50 48
f 8 82 78
f 11 97 93
f 6 71 69
f 12 100 101
f 11 94 97
f 8 80 82
f 2 51 50
f 10 90 89
f 5 63 64
f 3 55 53
f 7 76 74
f 9 87 84
f 10 91 90
f 5 67 63
f 3 56 55
f 7 75 76
f 9 83 87
f 6 68 72
f 2 48 49
f 8 78 79
f 11 93 96
f 12 98 102
f 10 88 91
f 5 65 67
f 3 57 56
f 7 77 75
f 9 86 83
f 5 64 66
f 3 53 54
f 7 74 73
f 9 84 85
f 10 89 92
f 6 70 71
f 12 99 100
f 11 95 94
f 8 81 80
f 2 52 51
f 35 109 116
f 18 105 108
f 19 111 106
f 40 114 112
f 42 117 115
f 34 125 119
f 33 152 156
f 25 137 139
f 36 158 160
f 20 123 120
f 32 143 149
f 23 127 132
f 24 135 128
f 37 147 145
f 41 150 148
f 34 153 155
f 33 140 133
f 25 138 134
f 36 159 157
f 20 122 124
f 17 107 47
f 14 103 44
f 13 104 43
f 15 110 45
f 16 113 46
f 18 118 49
f 35 154 72
f 42 141 102
f 40 162 96
f 19 121 79
f 30 142 62
f 27 129 59
f 22 130 58
f 28 144 60
f 29 146 61
f 32 151 66
f 23 131 54
f 24 136 73
f 37 161 85
f 41 126 92
f 35 116 101
f 18 108 69
f 19 106 50
f 40 112 82
f 42 115 97
f 34 119 71
f 33 156 100
f 25 139 94
f 36 160 80
f 20 120 51
f 32 149 90
f 23 132 63
f 24 128 55
f 37 145 76
f 41 148 87
f 34 155 91
f 33 133 67
f 25 134 56
f 36 157 75
f 20 124 83
f 14 109 68
f 13 105 48
f 15 111 78
f 16 114 93
f 17 117 98
f 21 125 88
f 31 152 65
f 26 137 57
f 38 158 77
f 39 123 86
f 27 143 64
f 22 127 53
f 28 135 74
f 29 147 84
f 30 150 89
f 31 153 70
f 26 140 99
f 38 138 95
f 39 159 81
f 21 122 52
f 14 107 109
f 13 103 105
f 15 104 111
f 16 110 114
f 17 113 117
f 21 118 125
f 31 154 152
f 26 141 137
f 38 162 158
f 39 121 123
f 27 142 143
f 22 129 127
f 28 130 135
f 29 144 147
f 30 146 150
f 31 151 153
f 26 131 140
f 38 136 138
f 39 161 159
f 21 126 122
f 14 44 107
f 13 43 103
f 15 45 104
f 16 46 110
f 17 47 113
f 21 52 118
f 31 70 154
f 26 99 141
f 38 95 162
f 39 81 121
f 27 59 142
f 22 58 129
f 28 60 130
f 29 61 144
f 30 62 146
f 31 65 151
f 26 57 131
f 38 77 136
f 39 86 161
f 21 88 126
f 17 98 116
f 14 68 108
f 13 48 106
f 15 78 112
f 16 93 115
f 18 69 119
f 35 101 156
f 42 97 139
f 40 82 160
f 19 50 120
f 30 89 149
f 27 64 132
f 22 53 128
f 28 74 145
f 29 84 148
f 32 90 155
f 23 63 133
f 24 55 134
f 37 76 157
f 41 87 124
f 35 72 109
f 18 49 105
f 19 79 111
f 40 96 114
f 42 102 117
f 34 91 125
f 33 67 152
f 25 56 137
f 36 75 158
f 20 83 123
f 32 66 143
f 23 54 127
f 24 73 135
f 37 85 147
f 41 92 150
f 34 71 153
f 33 100 140
f 25 94 138
f 36 80 159
f 20 51 122
f 17 116 107
f 14 108 103
f 13 106 104
f 15 112 110
f 16 115 113
f 18 119 118
f 35 156 154
f 42 139 141
f 40 160 162
f 19 120 121
f 30 149 142
f 27 132 129
f 22 128 130
f 28 145 144
f 29 148 146
f 32 155 151
f 23 133 131
f 24 134 136
f 37 157 161
f 41 124 126
f 107 44 47
f 103 43 44
f 104 45 43
f 110 46 45
f 113 47 46
f 118 52 49
f 154 70 72
f 141 99 102
f 162 95 96
f 121 81 79
f 142 59 62
f 129 58 59
f 130 60 58
f 144 61 60
f 146 62 61
f 151 65 66
f 131 57 54
f 136 77 73
f 161 86 85
f 126 88 92
f 116 98 101
f 108 68 69
f 106 48 50
f 112 78 82
f 115 93 97
f 119 69 71
f 156 101 100
f 139 97 94
f 160 82 80
f 120 50 51
f 149 89 90
f 132 64 63
f 128 53 55
f 145 74 76
f 148 84 87
f 155 90 91
f 133 63 67
f 134 55 56
f 157 76 75
f 124 87 83
f 109 72 68
f 105 49 48
f 111 79 78
f 114 96 93
f 117 102 98
f 125 91 88
f 152 67 65
f 137 56 57
f 158 75 77
f 123 83 86
f 143 66 64
f 127 54 53
f 135 73 74
f 147 85 84
f 150 92 89
f 153 71 70
f 140 100 99
f 138 94 95
f 159 80 81
f 122 51 52
f 107 116 109
f 103 108 105
f 104 106 111
f 110 112 114
f 113 115 117
f 118 119 125
f 154 156 152
f 141 139 137
f 162 160 158
f 121 120 123
f 142 149 143
f 129 132 127
f 130 128 135
f 144 145 147
f 146 148 150
f 151 155 153
f 131 133 140
f 136 134 138
f 161 157 159
f 126 124 122

