# https://github.com/mikedh/trimesh
v 4.76178424 4.37259144 2.50680274
v 4.51363254 5.39756921 2.46686490
v 4.76072568 4.37780869 2.64726969
v 4.51257398 5.40278646 2.60733185
v 4.61419973 4.88473510 2.62403315
v 4.61520879 4.87976333 2.49016692
v 4.67808405 4.78812942 2.62810252
v 4.67909263 4.78315765 2.49423630
v 4.52186525 5.42905020 2.53609208
v 4.48540885 5.42022612 2.53614516
v 4.78225342 4.35353116 2.57799919
v 4.74579702 4.34470708 2.57805227
v 4.63793936 4.88509177 2.48568845
v 4.73387577 4.39392649 2.50615242
v 4.77014938 4.40270662 2.50609965
v 4.78115975 4.35352293 2.51129689
v 4.74659043 4.34515560 2.51134710
v 4.49856590 5.36586014 2.46828126
v 4.53483999 5.37464026 2.46822849
v 4.52207584 5.42365476 2.46959950
v 4.48750652 5.41528743 2.46964983
v 4.63686366 4.89039411 2.62844548
v 4.73282228 4.39911700 2.64591575
v 4.76909637 4.40789713 2.64586297
v 4.78015576 4.35846986 2.64449465
v 4.74558643 4.35010251 2.64454473
v 4.49751289 5.37105066 2.60804470
v 4.53378650 5.37983079 2.60799194
v 4.52107185 5.42860168 2.60279726
v 4.48650253 5.42023436 2.60284758
v 4.61439236 4.88217348 2.55710039
v 4.49086531 5.39455925 2.60069982
v 4.73777824 4.37469971 2.64043834
v 4.49182214 5.38984459 2.47376150
v 4.73873459 4.36998504 2.51349992
v 4.67931797 4.78399330 2.56123609
v 4.52892769 5.40377224 2.60064433
v 4.77584014 4.38391270 2.64038286
v 4.52988404 5.39905758 2.47370613
v 4.77679696 4.37919803 2.51344454
v 4.50508500 5.43427026 2.53577174
v 4.76971850 4.34121563 2.57836229
v 4.75372001 4.40496895 2.50466956
v 4.73908952 4.37741142 2.50635405
v 4.77306561 4.38563541 2.50630464
v 4.77810620 4.36133334 2.50868142
v 4.74572656 4.35349587 2.50872850
v 4.52128624 5.36502463 2.46726135
v 4.49565665 5.38289778 2.46717564
v 4.52963274 5.39112129 2.46712626
v 4.52297397 5.41514379 2.46762003
v 4.49059432 5.40730633 2.46766713
v 4.75264817 4.41025056 2.64687398
v 4.73802953 4.38263598 2.64701797
v 4.77200562 4.39085951 2.64696883
v 4.77706797 4.36645097 2.64647736
v 4.74468831 4.35861349 2.64652432
v 4.52021441 5.37030623 2.60946565
v 4.49459667 5.38812186 2.60783961
v 4.52857275 5.39634585 2.60779019
v 4.52193572 5.42026143 2.60541597
v 4.48955607 5.41242394 2.60546295
v 4.72475227 4.42970669 2.64365144
v 4.50434668 5.34007908 2.60817926
v 4.61399539 4.88452025 2.61979391
v 4.49854606 5.36231262 2.60414957
v 4.72981932 4.40704991 2.64137106
v 4.72578918 4.42459517 2.50601979
v 4.50538406 5.33496754 2.47054735
v 4.61494017 4.87986350 2.49440680
v 4.49953574 5.35743514 2.47282913
v 4.73080901 4.40217243 2.51005062
v 4.76227822 4.43878974 2.64359688
v 4.54187310 5.34916212 2.60812469
v 4.67866960 4.78672012 2.62391352
v 4.53685326 5.37158485 2.60409374
v 4.76812654 4.41632214 2.64131522
v 4.76331560 4.43367821 2.50596522
v 4.54291000 5.34405058 2.47049280
v 4.67961438 4.78206289 2.49852657
v 4.53784295 5.36670738 2.47277342
v 4.76911622 4.41144467 2.50999490
v 4.52180588 5.42740387 2.47368259
v 4.52086585 5.43203730 2.59844371
v 4.52440568 5.42115599 2.59593887
v 4.52530178 5.41673999 2.47704073
v 4.51910001 5.43542219 2.53583449
v 4.48604341 5.41874749 2.47373464
v 4.48510292 5.42338140 2.59849573
v 4.48692412 5.41208393 2.59599326
v 4.48782023 5.40766794 2.47709512
v 4.48495356 5.42715711 2.53588413
v 4.78255937 4.35037588 2.51564862
v 4.78161886 4.35500980 2.64040983
v 4.77984204 4.36608934 2.63704911
v 4.78073815 4.36167334 2.51815097
v 4.78270873 4.34660017 2.57826022
v 4.74679642 4.34171998 2.51570065
v 4.74585639 4.34635341 2.64046164
v 4.74236049 4.35701730 2.63710374
v 4.74325659 4.35260130 2.51820549
v 4.74856226 4.33833509 2.57830987
v 4.72768679 4.42441990 2.50383199
v 4.76170202 4.43265345 2.50378254
v 4.50703069 5.33582860 2.46831926
v 4.54104592 5.34406168 2.46826985
v 4.74197230 4.36176301 2.50853064
v 4.61613199 4.87985800 2.48686548
v 4.73709033 4.37808640 2.50896528
v 4.77766414 4.37040219 2.50847876
v 4.67701480 4.78779126 2.49074367
v 4.77454182 4.38715129 2.50891083
v 4.76804235 4.34748601 2.51108672
v 4.78022127 4.36242444 2.51202961
v 4.78216427 4.34469082 2.51578568
v 4.74335586 4.35350146 2.51208322
v 4.74974787 4.33684476 2.51583289
v 4.49103465 5.39824723 2.46814444
v 4.49414046 5.38157832 2.46986465
v 4.52672649 5.40688642 2.46809256
v 4.53159195 5.39064320 2.46981021
v 4.50765514 5.42300027 2.46917973
v 4.52529399 5.41538791 2.47100128
v 4.51885589 5.43227384 2.47340836
v 4.48842858 5.40646493 2.47105488
v 4.48643902 5.42442730 2.47345562
v 4.72661637 4.42969561 2.64587462
v 4.76063158 4.43792867 2.64582510
v 4.50596026 5.34110383 2.61036181
v 4.53997548 5.34933737 2.61031225
v 4.74093580 4.36687086 2.64605179
v 4.61507388 4.88507521 2.62733194
v 4.73607033 4.38311408 2.64433416
v 4.77662763 4.37551004 2.64599992
v 4.67595622 4.79300847 2.63121014
v 4.77352182 4.39217896 2.64427971
v 4.76703335 4.35245789 2.64495437
v 4.77923370 4.36729235 2.64308947
v 4.78122327 4.34932998 2.64068873
v 4.74236828 4.35836937 2.64314307
v 4.74880639 4.34148345 2.64073600
v 4.48999813 5.40335509 2.60566547
v 4.49312045 5.38660599 2.60523340
v 4.52568997 5.41199427 2.60561359
v 4.53057194 5.39567087 2.60517896
v 4.50664660 5.42797216 2.60304736
v 4.52430642 5.42025582 2.60206115
v 4.51791441 5.43691253 2.59831158
v 4.48744100 5.41133284 2.60211474
v 4.48549801 5.42906645 2.59835856
v 4.49827305 5.36258276 2.59798505
v 4.72980964 4.40623270 2.63524907
v 4.49916983 5.35816157 2.47895165
v 4.73070642 4.40181150 2.51621555
v 4.49062722 5.39474382 2.53713081
v 4.73878178 4.36975414 2.57706929
v 4.53695586 5.37194577 2.59792881
v 4.76849245 4.41559572 2.63519283
v 4.53785265 5.36752459 2.47889540
v 4.76938924 4.41117451 2.51615919
v 4.52888050 5.40400314 2.53707507
v 4.77703506 4.37901346 2.57701355
f 1 47 44
f 1 44 43
f 1 43 45
f 1 45 46
f 1 46 47
f 2 49 52
f 6 72 70
f 12 102 99
f 11 96 95
f 8 79 81
f 4 62 59
f 4 59 58
f 4 58 60
f 4 60 61
f 4 61 62
f 5 66 65
f 3 54 57
f 7 73 77
f 9 85 86
f 10 92 88
f 12 101 98
f 6 69 68
f 2 50 48
f 8 82 78
f 11 97 93
f 6 71 69
f 12 100 101
f 11 94 97
f 8 80 82
f 2 51 50
f 10 90 89
f 5 63 64
f 3 55 53
f 7 76 74
f 9 87 84
f 10 91 90
f 5 67 63
f 3 56 55
f 7 75 76
f 9 83 87
f 6 68 72
f 2 48 49
f 8 78 79
f 11 93 96
f 12 98 102
f 10 88 91
f 5 65 67
f 3 57 56
f 7 77 75
f 9 86 83
f 5 64 66
f 3 53 54
f 7 74 73
f 9 84 85
f 10 89 92
f 6 70 71
f 12 99 100
f 11 95 94
f 8 81 80
f 2 52 51
f 35 109 116
f 18 105 108
f 19 111 106
f 40 114 112
f 42 117 115
f 34 125 119
f 33 152 156
f 25 137 139
f 36 158 160
f 20 123 120
f 32 143 149
f 23 127 132
f 24 135 128
f 37 147 145
f 41 150 148
f 34 153 155
f 33 140 133
f 25 138 134
f 36 159 157
f 20 122 124
f 17 107 47
f 14 103 44
f 13 104 43
f 15 110 45
f 16 113 46
f 18 118 49
f 35 154 72
f 42 141 102
f 40 162 96
f 19 121 79
f 30 142 62
f 27 129 59
f 22 130 58
f 28 144 60
f 29 146 61
f 32 151 66
f 23 131 54
f 24 136 73
f 37 161 85
f 41 126 92
f 35 116 101
f 18 108 69
f 19 106 50
f 40 112 82
f 42 115 97
f 34 119 71
f 33 156 100
f 25 139 94
f 36 160 80
f 20 120 51
f 32 149 90
f 23 132 63
f 24 128 55
f 37 145 76
f 41 148 87
f 34 155 91
f 33 133 67
f 25 134 56
f 36 157 75
f 20 124 83
f 14 109 68
f 13 105 48
f 15 111 78
f 16 114 93
f 17 117 98
f 21 125 88
f 31 152 65
f 26 137 57
f 38 158 77
f 39 123 86
f 27 143 64
f 22 127 53
f 28 135 74
f 29 147 84
f 30 150 89
f 31 153 70
f 26 140 99
f 38 138 95
f 39 159 81
f 21 122 52
f 14 107 109
f 13 103 105
f 15 104 111
f 16 110 114
f 17 113 117
f 21 118 125
f 31 154 152
f 26 141 137
f 38 162 158
f 39 121 123
f 27 142 143
f 22 129 127
f 28 130 135
f 29 144 147
f 30 146 150
f 31 151 153
f 26 131 140
f 38 136 138
f 39 161 159
f 21 126 122
f 14 44 107
f 13 43 103
f 15 45 104
f 16 46 110
f 17 47 113
f 21 52 118
f 31 70 154
f 26 99 141
f 38 95 162
f 39 81 121
f 27 59 142
f 22 58 129
f 28 60 130
f 29 61 144
f 30 62 146
f 31 65 151
f 26 57 131
f 38 77 136
f 39 86 161
f 21 88 126
f 17 98 116
f 14 68 108
f 13 48 106
f 15 78 112
f 16 93 115
f 18 69 119
f 35 101 156
f 42 97 139
f 40 82 160
f 19 50 120
f 30 89 149
f 27 64 132
f 22 53 128
f 28 74 145
f 29 84 148
f 32 90 155
f 23 63 133
f 24 55 134
f 37 76 157
f 41 87 124
f 35 72 109
f 18 49 105
f 19 79 111
f 40 96 114
f 42 102 117
f 34 91 125
f 33 67 152
f 25 56 137
f 36 75 158
f 20 83 123
f 32 66 143
f 23 54 127
f 24 73 135
f 37 85 147
f 41 92 150
f 34 71 153
f 33 100 140
f 25 94 138
f 36 80 159
f 20 51 122
f 17 116 107
f 14 108 103
f 13 106 104
f 15 112 110
f 16 115 113
f 18 119 118
f 35 156 154
f 42 139 141
f 40 160 162
f 19 120 121
f 30 149 142
f 27 132 129
f 22 128 130
f 28 145 144
f 29 148 146
f 32 155 151
f 23 133 131
f 24 134 136
f 37 157 161
f 41 124 126
f 107 44 47
f 103 43 44
f 104 45 43
f 110 46 45
f 113 47 46
f 118 52 49
f 154 70 72
f 141 99 102
f 162 95 96
f 121 81 79
f 142 59 62
f 129 58 59
f 130 60 58
f 144 61 60
f 146 62 61
f 151 65 66
f 131 57 54
f 136 77 73
f 161 86 85
f 126 88 92
f 116 98 101
f 108 68 69
f 106 48 50
f 112 78 82
f 115 93 97
f 119 69 71
f 156 101 100
f 139 97 94
f 160 82 80
f 120 50 51
f 149 89 90
f 132 64 63
f 128 53 55
f 145 74 76
f 148 84 87
f 155 90 91
f 133 63 67
f 134 55 56
f 157 76 75
f 124 87 83
f 109 72 68
f 105 49 48
f 111 79 78
f 114 96 93
f 117 102 98
f 125 91 88
f 152 67 65
f 137 56 57
f 158 75 77
f 123 83 86
f 143 66 64
f 127 54 53
f 135 73 74
f 147 85 84
f 150 92 89
f 153 71 70
f 140 100 99
f 138 94 95
f 159 80 81
f 122 51 52
f 107 116 109
f 103 108 105
f 104 106 111
f 110 112 114
f 113 115 117
f 118 119 125
f 154 156 152
f 141 139 137
f 162 160 158
f 121 120 123
f 142 149 143
f 129 132 127
f 130 128 135
f 144 145 147
f 146 148 150
f 151 155 153
f 131 133 140
f 136 134 138
f 161 157 159
f 126 124 122

