# https://github.com/mikedh/trimesh
v 1.06419067 4.19467436 2.05218256
v 0.75446315 4.07172767 2.01095043
v 1.04409543 4.17825925 2.25208150
v 0.73436789 4.05531232 2.21084939
v 0.89833157 4.09573582 2.22587561
v 0.91748248 4.11137969 2.03537052
v 0.91563683 4.14491867 2.23165416
v 0.93478775 4.16056278 2.04114893
v 0.73106706 4.07468053 2.11047448
v 0.74506184 4.03991036 2.10902616
v 1.05606734 4.20368979 2.15373976
v 1.07006212 4.16891962 2.15229145
v 0.90940536 4.13354685 2.02994576
v 1.06437366 4.17096050 2.05076267
v 1.05044876 4.20555689 2.05220390
v 1.06514308 4.21025005 2.05881696
v 1.07841365 4.17727909 2.05744363
v 0.77067498 4.05437641 2.01166433
v 0.75675008 4.08897281 2.01310556
v 0.74177082 4.08188683 2.01576836
v 0.75504140 4.04891611 2.01439502
v 0.88898253 4.11686372 2.23310388
v 1.04437910 4.15462758 2.24966034
v 1.03045420 4.18922398 2.25110157
v 1.04608779 4.19468404 2.24837091
v 1.05935836 4.16171356 2.24699754
v 0.75068042 4.03804326 2.21056202
v 0.73675547 4.07263966 2.21200325
v 0.72271553 4.06632082 2.20532231
v 0.73598611 4.03335034 2.20394894
v 0.90802678 4.10326024 2.13061064
v 0.74469984 4.03506546 2.20043687
v 1.05288085 4.15739830 2.24146320
v 0.76285967 4.04989986 2.01979060
v 1.07104068 4.17223295 2.06081690
v 0.92561410 4.15324551 2.13648333
v 0.73008850 4.07136745 2.20194900
v 1.03826951 4.19370029 2.24297532
v 0.74824834 4.08620161 2.02130274
v 1.05642929 4.20853446 2.06232907
v 0.73404444 4.05964914 2.10953946
v 1.06434339 4.19076166 2.15351016
v 1.05458729 4.19067980 2.04963218
v 1.06906655 4.17412103 2.05084243
v 1.05602360 4.20652602 2.05219235
v 1.06342620 4.20849538 2.05517337
v 1.07585623 4.17761310 2.05388695
v 0.76447792 4.07552049 2.01101158
v 0.76522897 4.05351227 2.01039433
v 0.75218601 4.08591750 2.01174423
v 0.74498601 4.08209019 2.01278140
v 0.75741604 4.05120791 2.01149497
v 1.03424357 4.17406175 2.25200347
v 1.04894318 4.15768265 2.25102169
v 1.03590021 4.19008765 2.25237160
v 1.04371309 4.19239248 2.25127093
v 1.05614310 4.16151021 2.24998450
v 0.74413408 4.05890221 2.21338300
v 0.74510553 4.03707390 2.21057360
v 0.73206256 4.06947913 2.21192350
v 0.72527290 4.06598706 2.20887897
v 0.73770292 4.03510478 2.20759254
v 1.03547066 4.15046268 2.24688043
v 0.76037453 4.04126275 2.21025863
v 0.89902893 4.09600557 2.21983300
v 0.75419344 4.03856684 2.20484929
v 1.04285452 4.15315137 2.24327710
v 1.05516025 4.16654665 2.05101642
v 0.78006417 4.05734672 2.01439450
v 0.91696680 4.11065870 2.04139436
v 0.77298017 4.05391325 2.01796698
v 1.06164131 4.16849753 2.05639467
v 1.02106501 4.18625343 2.24837142
v 0.74596887 4.07705350 2.21174950
v 0.91654817 4.14579693 2.22568287
v 0.73948793 4.07510238 2.20637126
v 1.02814901 4.18968714 2.24479893
v 1.04075459 4.20233740 2.05250729
v 0.76565852 4.09313747 2.01588548
v 0.93448606 4.16045030 2.04724432
v 0.75827465 4.09044902 2.01948881
v 1.04693580 4.20503331 2.05791663
v 0.73989641 4.08154932 2.02165655
v 0.72204807 4.06696938 2.19920429
v 0.72545557 4.06944876 2.19550841
v 0.74246524 4.08334359 2.02630410
v 0.72950043 4.07278140 2.11016108
v 0.75362510 4.04744041 2.02023561
v 0.73577675 4.03286070 2.19778334
v 0.73984408 4.03370073 2.19401922
v 0.75685370 4.04759532 2.02481493
v 0.74260877 4.04021368 2.10880438
v 1.06535242 4.21073970 2.06498256
v 1.04750408 4.19615974 2.24253031
v 1.04427543 4.19600459 2.23795102
v 1.06128509 4.20989943 2.06874670
v 1.05852041 4.20338624 2.15396156
v 1.07908117 4.17663054 2.06356165
v 1.06123271 4.16205107 2.24110936
v 1.05866394 4.16025657 2.23646183
v 1.07567361 4.17415140 2.06725751
v 1.07162876 4.17081851 2.15260486
v 1.05495842 4.16854067 2.04796850
v 1.04190067 4.20098263 2.04931989
v 0.77954921 4.05921688 2.01130491
v 0.76649141 4.09165882 2.01265630
v 1.07385452 4.17497851 2.05366809
v 0.91760968 4.11262234 2.03070970
v 1.06905342 4.17203480 2.05450104
v 1.06015308 4.20901950 2.05508612
v 0.93410188 4.15949502 2.03621673
v 1.05467662 4.20775450 2.05598899
v 1.07129096 4.19747738 2.05790139
v 1.06195550 4.21019007 2.06003838
v 1.06759964 4.20978513 2.06502727
v 1.07610742 4.17502962 2.05857373
v 1.08004373 4.17886780 2.06373935
v 0.76064992 4.05065152 2.01197305
v 0.76581849 4.05166539 2.01413316
v 0.74694849 4.08469273 2.01339106
v 0.75144156 4.08738485 2.01562113
v 0.74629213 4.06846838 2.01463628
v 0.74377123 4.08388637 2.01768040
v 0.73895405 4.07932897 2.02127665
v 0.75792315 4.04872616 2.01621573
v 0.75139819 4.04841140 2.01998875
v 1.03463777 4.15194133 2.25010962
v 1.02157996 4.18438328 2.25146101
v 0.75922857 4.04261729 2.21344604
v 0.74617077 4.07505924 2.21479744
v 1.05418069 4.15890766 2.24937485
v 0.89751452 4.09620717 2.23060781
v 1.04968761 4.15621530 2.24714480
v 1.04047925 4.19294864 2.25079288
v 0.91400668 4.14307937 2.23611476
v 1.03531069 4.19193452 2.24863277
v 1.05213981 4.18183298 2.24840880
v 1.04320603 4.19487423 2.24655018
v 1.04973098 4.19518851 2.24277719
v 1.05735795 4.15971378 2.24508551
v 1.06217507 4.16427118 2.24148927
v 0.74097610 4.03458043 2.20767982
v 0.74645261 4.03584589 2.20677692
v 0.72727466 4.06862164 2.20909784
v 0.73207569 4.07156511 2.20826489
v 0.72714097 4.05282444 2.20514365
v 0.72502177 4.06857029 2.20419221
v 0.72108540 4.06473235 2.19902657
v 0.73917369 4.03341008 2.20272754
v 0.73352955 4.03381503 2.19773864
v 0.75498004 4.03904057 2.19607724
v 1.04396982 4.15375556 2.23454862
v 0.77200901 4.05295093 2.02668033
v 1.06099873 4.16766593 2.06515183
v 0.75304144 4.04208367 2.11000669
v 1.06277262 4.16503184 2.15123944
v 0.74013045 4.07593422 2.19761409
v 1.02912017 4.19064900 2.23608562
v 0.75715943 4.08984482 2.02821728
v 1.04614909 4.20455982 2.06668867
v 0.73835656 4.07856807 2.11152651
v 1.04808780 4.20151625 2.15275924
f 1 47 44
f 1 44 43
f 1 43 45
f 1 45 46
f 1 46 47
f 2 49 52
f 6 72 70
f 12 102 99
f 11 96 95
f 8 79 81
f 4 62 59
f 4 59 58
f 4 58 60
f 4 60 61
f 4 61 62
f 5 66 65
f 3 54 57
f 7 73 77
f 9 85 86
f 10 92 88
f 12 101 98
f 6 69 68
f 2 50 48
f 8 82 78
f 11 97 93
f 6 71 69
f 12 100 101
f 11 94 97
f 8 80 82
f 2 51 50
f 10 90 89
f 5 63 64
f 3 55 53
f 7 76 74
f 9 87 84
f 10 91 90
f 5 67 63
f 3 56 55
f 7 75 76
f 9 83 87
f 6 68 72
f 2 48 49
f 8 78 79
f 11 93 96
f 12 98 102
f 10 88 91
f 5 65 67
f 3 57 56
f 7 77 75
f 9 86 83
f 5 64 66
f 3 53 54
f 7 74 73
f 9 84 85
f 10 89 92
f 6 70 71
f 12 99 100
f 11 95 94
f 8 81 80
f 2 52 51
f 35 109 116
f 18 105 108
f 19 111 106
f 40 114 112
f 42 117 115
f 34 125 119
f 33 152 156
f 25 137 139
f 36 158 160
f 20 123 120
f 32 143 149
f 23 127 132
f 24 135 128
f 37 147 145
f 41 150 148
f 34 153 155
f 33 140 133
f 25 138 134
f 36 159 157
f 20 122 124
f 17 107 47
f 14 103 44
f 13 104 43
f 15 110 45
f 16 113 46
f 18 118 49
f 35 154 72
f 42 141 102
f 40 162 96
f 19 121 79
f 30 142 62
f 27 129 59
f 22 130 58
f 28 144 60
f 29 146 61
f 32 151 66
f 23 131 54
f 24 136 73
f 37 161 85
f 41 126 92
f 35 116 101
f 18 108 69
f 19 106 50
f 40 112 82
f 42 115 97
f 34 119 71
f 33 156 100
f 25 139 94
f 36 160 80
f 20 120 51
f 32 149 90
f 23 132 63
f 24 128 55
f 37 145 76
f 41 148 87
f 34 155 91
f 33 133 67
f 25 134 56
f 36 157 75
f 20 124 83
f 14 109 68
f 13 105 48
f 15 111 78
f 16 114 93
f 17 117 98
f 21 125 88
f 31 152 65
f 26 137 57
f 38 158 77
f 39 123 86
f 27 143 64
f 22 127 53
f 28 135 74
f 29 147 84
f 30 150 89
f 31 153 70
f 26 140 99
f 38 138 95
f 39 159 81
f 21 122 52
f 14 107 109
f 13 103 105
f 15 104 111
f 16 110 114
f 17 113 117
f 21 118 125
f 31 154 152
f 26 141 137
f 38 162 158
f 39 121 123
f 27 142 143
f 22 129 127
f 28 130 135
f 29 144 147
f 30 146 150
f 31 151 153
f 26 131 140
f 38 136 138
f 39 161 159
f 21 126 122
f 14 44 107
f 13 43 103
f 15 45 104
f 16 46 110
f 17 47 113
f 21 52 118
f 31 70 154
f 26 99 141
f 38 95 162
f 39 81 121
f 27 59 142
f 22 58 129
f 28 60 130
f 29 61 144
f 30 62 146
f 31 65 151
f 26 57 131
f 38 77 136
f 39 86 161
f 21 88 126
f 17 98 116
f 14 68 108
f 13 48 106
f 15 78 112
f 16 93 115
f 18 69 119
f 35 101 156
f 42 97 139
f 40 82 160
f 19 50 120
f 30 89 149
f 27 64 132
f 22 53 128
f 28 74 145
f 29 84 148
f 32 90 155
f 23 63 133
f 24 55 134
f 37 76 157
f 41 87 124
f 35 72 109
f 18 49 105
f 19 79 111
f 40 96 114
f 42 102 117
f 34 91 125
f 33 67 152
f 25 56 137
f 36 75 158
f 20 83 123
f 32 66 143
f 23 54 127
f 24 73 135
f 37 85 147
f 41 92 150
f 34 71 153
f 33 100 140
f 25 94 138
f 36 80 159
f 20 51 122
f 17 116 107
f 14 108 103
f 13 106 104
f 15 112 110
f 16 115 113
f 18 119 118
f 35 156 154
f 42 139 141
f 40 160 162
f 19 120 121
f 30 149 142
f 27 132 129
f 22 128 130
f 28 145 144
f 29 148 146
f 32 155 151
f 23 133 131
f 24 134 136
f 37 157 161
f 41 124 126
f 107 44 47
f 103 43 44
f 104 45 43
f 110 46 45
f 113 47 46
f 118 52 49
f 154 70 72
f 141 99 102
f 162 95 96
f 121 81 79
f 142 59 62
f 129 58 59
f 130 60 58
f 144 61 60
f 146 62 61
f 151 65 66
f 131 57 54
f 136 77 73
f 161 86 85
f 126 88 92
f 116 98 101
f 108 68 69
f 106 48 50
f 112 78 82
f 115 93 97
f 119 69 71
f 156 101 100
f 139 97 94
f 160 82 80
f 120 50 51
f 149 89 90
f 132 64 63
f 128 53 55
f 145 74 76
f 148 84 87
f 155 90 91
f 133 63 67
f 134 55 56
f 157 76 75
f 124 87 83
f 109 72 68
f 105 49 48
f 111 79 78
f 114 96 93
f 117 102 98
f 125 91 88
f 152 67 65
f 137 56 57
f 158 75 77
f 123 83 86
f 143 66 64
f 127 54 53
f 135 73 74
f 147 85 84
f 150 92 89
f 153 71 70
f 140 100 99
f 138 94 95
f 159 80 81
f 122 51 52
f 107 116 109
f 103 108 105
f 104 106 111
f 110 112 114
f 113 115 117
f 118 119 125
f 154 156 152
f 141 139 137
f 162 160 158
f 121 120 123
f 142 149 143
f 129 132 127
f 130 128 135
f 144 145 147
f 146 148 150
f 151 155 153
f 131 133 140
f 136 134 138
f 161 157 159
f 126 124 122

