# https://github.com/mikedh/trimesh
v 1.53795058 2.94992585 0.92337462
v 1.35117108 3.60046498 0.88006945
v 1.82371856 3.03276089 0.93519665
v 1.63693905 3.68330026 0.89189148
v 1.72232288 3.35724843 0.93632477
v 1.44998401 3.27830602 0.92505829
v 1.74381243 3.28807611 0.90155063
v 1.47147344 3.20913370 0.89028415
v 1.49030501 3.65715101 0.86964652
v 1.48821035 3.65903927 0.90704911
v 1.68629456 2.97453356 0.91508706
v 1.68419991 2.97642182 0.95248965
v 1.44224407 3.27450873 0.90139751
v 1.53259880 2.96807928 0.94432663
v 1.53468306 2.96620036 0.90711080
v 1.55025995 2.93701800 0.91033596
v 1.54827363 2.93880866 0.94580290
v 1.35548541 3.58495216 0.90326257
v 1.35756967 3.58307324 0.86604674
v 1.35525215 3.61621594 0.86512304
v 1.35326583 3.61800659 0.90058998
v 1.73267117 3.35869436 0.91341227
v 1.81693524 3.05049960 0.95608942
v 1.81901950 3.04862068 0.91887359
v 1.82123908 3.01556624 0.92154618
v 1.81925276 3.01735690 0.95701312
v 1.63982185 3.66737247 0.91502537
v 1.64190611 3.66549356 0.87780953
v 1.62623128 3.69476418 0.87633326
v 1.62424496 3.69655483 0.91180020
v 1.58613557 3.31779328 0.93101146
v 1.62235800 3.67884637 0.91439047
v 1.80820491 3.03155520 0.95747940
v 1.36411306 3.60398909 0.90370706
v 1.54995984 2.95669816 0.94679599
v 1.60797542 3.24749319 0.89567039
v 1.62454507 3.67687467 0.87534017
v 1.81039185 3.02958375 0.91842910
v 1.36630000 3.60201763 0.86465676
v 1.55214691 2.95472647 0.90774569
v 1.48786514 3.66347460 0.88431422
v 1.68705011 2.96972826 0.93049559
v 1.53025589 2.97002706 0.92214761
v 1.53480581 2.95710656 0.94381891
v 1.53675795 2.95534667 0.90896031
v 1.54403270 2.94089841 0.91092089
v 1.54217217 2.94257564 0.94414139
v 1.35530702 3.57936116 0.88158540
v 1.35157818 3.59527481 0.90133726
v 1.35353043 3.59351492 0.86647865
v 1.35199907 3.60973738 0.86639755
v 1.35013854 3.61141462 0.89961806
v 1.81955823 3.05388672 0.93411585
v 1.82097448 3.04005793 0.95565751
v 1.82292673 3.03829803 0.92079890
v 1.82436637 3.02215822 0.92251810
v 1.82250584 3.02383546 0.95573861
v 1.64460947 3.66322082 0.89355363
v 1.63774696 3.67822617 0.91317585
v 1.63969909 3.67646628 0.87831725
v 1.63233274 3.69099719 0.87799477
v 1.63047221 3.69267443 0.91121527
v 1.80912190 3.06943953 0.95534161
v 1.64322670 3.64724016 0.91687852
v 1.71368436 3.35476065 0.93621066
v 1.63269419 3.65964528 0.91606529
v 1.80676961 3.05335311 0.95642502
v 1.52912202 2.98827645 0.94375820
v 1.36322681 3.56607708 0.90529511
v 1.45859541 3.28081820 0.92565782
v 1.36553420 3.58220387 0.90501309
v 1.53960963 2.97591171 0.94537282
v 1.81127810 3.06749575 0.91684105
v 1.64538289 3.64529639 0.87837796
v 1.73543964 3.28473285 0.90100642
v 1.63489528 3.65766113 0.87676335
v 1.80897070 3.05136897 0.91712308
v 1.53127821 2.98633268 0.90525764
v 1.36538301 3.56413331 0.86679455
v 1.48035058 3.21079039 0.89045359
v 1.36773530 3.58021973 0.86571114
v 1.54181072 2.97392756 0.90607087
v 1.36323991 3.62086099 0.86472021
v 1.61705549 3.69443394 0.87522039
v 1.61314201 3.68569173 0.87455588
v 1.37125399 3.61557589 0.86454916
v 1.48902670 3.66143198 0.87055006
v 1.36118506 3.62271329 0.90141153
v 1.61500063 3.69628648 0.91191169
v 1.61098841 3.68763323 0.91301060
v 1.36910039 3.61751738 0.90300388
v 1.48706457 3.66320075 0.90558356
v 1.55950428 2.93728635 0.91022447
v 1.81331985 3.01085954 0.92072463
v 1.80540452 3.01605545 0.91913229
v 1.56351649 2.94593962 0.90912556
v 1.68744034 2.97037208 0.91655260
v 1.55744942 2.93913889 0.94691577
v 1.81126500 3.01271184 0.95741595
v 1.80325092 3.01799694 0.95758700
v 1.56136290 2.94788111 0.94758028
v 1.68547822 2.97214086 0.95158610
v 1.52483063 2.98655605 0.94179335
v 1.52678504 2.98479414 0.90689507
v 1.35874655 3.56501456 0.90328647
v 1.36070107 3.56325241 0.86838819
v 1.54077777 2.94824087 0.94548594
v 1.44332168 3.27631329 0.92385859
v 1.53991047 2.95939094 0.94578219
v 1.54282850 2.94639181 0.90886744
v 1.46380156 3.21039064 0.89071822
v 1.54206240 2.95745098 0.90735838
v 1.54927761 2.93582552 0.92455055
v 1.55093608 2.94303698 0.90888549
v 1.56022543 2.93398155 0.91215797
v 1.54881795 2.94494675 0.94670792
v 1.55836280 2.93566065 0.94541629
v 1.35190147 3.60608299 0.90169465
v 1.35704631 3.59629316 0.90338482
v 1.35395232 3.60423419 0.86507612
v 1.35919823 3.59435320 0.86496103
v 1.35328889 3.61843988 0.87911022
v 1.35905692 3.61133848 0.86439793
v 1.36203755 3.62425532 0.86620776
v 1.35693867 3.61324801 0.90222040
v 1.36017505 3.62593442 0.89946607
v 1.81380384 3.07032043 0.95374797
v 1.81575836 3.06855828 0.91884969
v 1.64771987 3.64877869 0.91524109
v 1.64967428 3.64701678 0.88034281
v 1.82055259 3.02933865 0.95706004
v 1.72908847 3.35914809 0.93568057
v 1.81530668 3.03921963 0.95717514
v 1.82260344 3.02748984 0.92044151
v 1.74956834 3.29322569 0.90254017
v 1.81745860 3.03727968 0.91875134
v 1.82161972 3.01476890 0.93581716
v 1.81756624 3.02032483 0.91991576
v 1.81432986 3.00763842 0.92267008
v 1.81544799 3.02223436 0.95773824
v 1.81246736 3.00931752 0.95592840
v 1.63167641 3.68718102 0.91326872
v 1.63244251 3.67612186 0.91477778
v 1.63372714 3.68533197 0.87665022
v 1.63459444 3.67418190 0.87635397
v 1.62563100 3.69738325 0.89037681
v 1.62568696 3.68862609 0.87542824
v 1.61614211 3.69791219 0.87671987
v 1.62356883 3.69053586 0.91325067
v 1.61427948 3.69959129 0.90997819
v 1.62008597 3.65637710 0.91571788
v 1.79435956 3.04939494 0.95612353
v 1.37792271 3.58618169 0.90569974
v 1.55219629 2.97919930 0.94610541
v 1.49276262 3.64305059 0.90903861
v 1.67954427 2.99250385 0.95234427
v 1.62230862 3.65437354 0.87603075
v 1.79658221 3.04739114 0.91643642
v 1.38014535 3.58417790 0.86601263
v 1.55441894 2.97719573 0.90641828
v 1.49496064 3.64106900 0.86979189
v 1.68174229 2.99052224 0.91309755
f 1 47 44
f 1 44 43
f 1 43 45
f 1 45 46
f 1 46 47
f 2 49 52
f 6 72 70
f 12 102 99
f 11 96 95
f 8 79 81
f 4 62 59
f 4 59 58
f 4 58 60
f 4 60 61
f 4 61 62
f 5 66 65
f 3 54 57
f 7 73 77
f 9 85 86
f 10 92 88
f 12 101 98
f 6 69 68
f 2 50 48
f 8 82 78
f 11 97 93
f 6 71 69
f 12 100 101
f 11 94 97
f 8 80 82
f 2 51 50
f 10 90 89
f 5 63 64
f 3 55 53
f 7 76 74
f 9 87 84
f 10 91 90
f 5 67 63
f 3 56 55
f 7 75 76
f 9 83 87
f 6 68 72
f 2 48 49
f 8 78 79
f 11 93 96
f 12 98 102
f 10 88 91
f 5 65 67
f 3 57 56
f 7 77 75
f 9 86 83
f 5 64 66
f 3 53 54
f 7 74 73
f 9 84 85
f 10 89 92
f 6 70 71
f 12 99 100
f 11 95 94
f 8 81 80
f 2 52 51
f 35 109 116
f 18 105 108
f 19 111 106
f 40 114 112
f 42 117 115
f 34 125 119
f 33 152 156
f 25 137 139
f 36 158 160
f 20 123 120
f 32 143 149
f 23 127 132
f 24 135 128
f 37 147 145
f 41 150 148
f 34 153 155
f 33 140 133
f 25 138 134
f 36 159 157
f 20 122 124
f 17 107 47
f 14 103 44
f 13 104 43
f 15 110 45
f 16 113 46
f 18 118 49
f 35 154 72
f 42 141 102
f 40 162 96
f 19 121 79
f 30 142 62
f 27 129 59
f 22 130 58
f 28 144 60
f 29 146 61
f 32 151 66
f 23 131 54
f 24 136 73
f 37 161 85
f 41 126 92
f 35 116 101
f 18 108 69
f 19 106 50
f 40 112 82
f 42 115 97
f 34 119 71
f 33 156 100
f 25 139 94
f 36 160 80
f 20 120 51
f 32 149 90
f 23 132 63
f 24 128 55
f 37 145 76
f 41 148 87
f 34 155 91
f 33 133 67
f 25 134 56
f 36 157 75
f 20 124 83
f 14 109 68
f 13 105 48
f 15 111 78
f 16 114 93
f 17 117 98
f 21 125 88
f 31 152 65
f 26 137 57
f 38 158 77
f 39 123 86
f 27 143 64
f 22 127 53
f 28 135 74
f 29 147 84
f 30 150 89
f 31 153 70
f 26 140 99
f 38 138 95
f 39 159 81
f 21 122 52
f 14 107 109
f 13 103 105
f 15 104 111
f 16 110 114
f 17 113 117
f 21 118 125
f 31 154 152
f 26 141 137
f 38 162 158
f 39 121 123
f 27 142 143
f 22 129 127
f 28 130 135
f 29 144 147
f 30 146 150
f 31 151 153
f 26 131 140
f 38 136 138
f 39 161 159
f 21 126 122
f 14 44 107
f 13 43 103
f 15 45 104
f 16 46 110
f 17 47 113
f 21 52 118
f 31 70 154
f 26 99 141
f 38 95 162
f 39 81 121
f 27 59 142
f 22 58 129
f 28 60 130
f 29 61 144
f 30 62 146
f 31 65 151
f 26 57 131
f 38 77 136
f 39 86 161
f 21 88 126
f 17 98 116
f 14 68 108
f 13 48 106
f 15 78 112
f 16 93 115
f 18 69 119
f 35 101 156
f 42 97 139
f 40 82 160
f 19 50 120
f 30 89 149
f 27 64 132
f 22 53 128
f 28 74 145
f 29 84 148
f 32 90 155
f 23 63 133
f 24 55 134
f 37 76 157
f 41 87 124
f 35 72 109
f 18 49 105
f 19 79 111
f 40 96 114
f 42 102 117
f 34 91 125
f 33 67 152
f 25 56 137
f 36 75 158
f 20 83 123
f 32 66 143
f 23 54 127
f 24 73 135
f 37 85 147
f 41 92 150
f 34 71 153
f 33 100 140
f 25 94 138
f 36 80 159
f 20 51 122
f 17 116 107
f 14 108 103
f 13 106 104
f 15 112 110
f 16 115 113
f 18 119 118
f 35 156 154
f 42 139 141
f 40 160 162
f 19 120 121
f 30 149 142
f 27 132 129
f 22 128 130
f 28 145 144
f 29 148 146
f 32 155 151
f 23 133 131
f 24 134 136
f 37 157 161
f 41 124 126
f 107 44 47
f 103 43 44
f 104 45 43
f 110 46 45
f 113 47 46
f 118 52 49
f 154 70 72
f 141 99 102
f 162 95 96
f 121 81 79
f 142 59 62
f 129 58 59
f 130 60 58
f 144 61 60
f 146 62 61
f 151 65 66
f 131 57 54
f 136 77 73
f 161 86 85
f 126 88 92
f 116 98 101
f 108 68 69
f 106 48 50
f 112 78 82
f 115 93 97
f 119 69 71
f 156 101 100
f 139 97 94
f 160 82 80
f 120 50 51
f 149 89 90
f 132 64 63
f 128 53 55
f 145 74 76
f 148 84 87
f 155 90 91
f 133 63 67
f 134 55 56
f 157 76 75
f 124 87 83
f 109 72 68
f 105 49 48
f 111 79 78
f 114 96 93
f 117 102 98
f 125 91 88
f 152 67 65
f 137 56 57
f 158 75 77
f 123 83 86
f 143 66 64
f 127 54 53
f 135 73 74
f 147 85 84
f 150 92 89
f 153 71 70
f 140 100 99
f 138 94 95
f 159 80 81
f 122 51 52
f 107 116 109
f 103 108 105
f 104 106 111
f 110 112 114
f 113 115 117
f 118 119 125
f 154 156 152
f 141 139 137
f 162 160 158
f 121 120 123
f 142 149 143
f 129 132 127
f 130 128 135
f 144 145 147
f 146 148 150
f 151 155 153
f 131 133 140
f 136 134 138
f 161 157 159
f 126 124 122

