# https://github.com/mikedh/trimesh
v 3.35371732 4.72328166 1.94223274
v 3.57172008 3.91884796 1.96871647
v 3.37431286 4.72472073 1.81641509
v 3.59231561 3.92028725 1.84289868
v 3.46082542 4.31638607 1.82894148
v 3.44119758 4.31501434 1.94884672
v 3.47576281 4.40982731 1.83245556
v 3.45613498 4.40845557 1.95236069
v 3.60196142 3.90376233 1.90889142
v 3.56626793 3.89389324 1.90293568
v 3.37320884 4.74786273 1.88110190
v 3.33751535 4.73799365 1.87514616
v 3.46276864 4.32111307 1.95653656
v 3.33837400 4.69665379 1.93909304
v 3.37388937 4.70647363 1.94501900
v 3.36309344 4.74481087 1.94067055
v 3.32924701 4.73545238 1.93502308
v 3.54509485 3.93385046 1.96420609
v 3.58061047 3.94367030 1.97013205
v 3.59070002 3.90493895 1.96832097
v 3.55685360 3.89558046 1.96267350
v 3.48369987 4.32257573 1.82866766
v 3.35886630 4.69808544 1.81390554
v 3.39438192 4.70790527 1.81983151
v 3.38262317 4.74617551 1.82136408
v 3.34877674 4.73681703 1.81571661
v 3.56558740 3.93528259 1.83901856
v 3.60110278 3.94510242 1.84494452
v 3.61022975 3.90630359 1.84901450
v 3.57638333 3.89694510 1.84336703
v 3.45070609 4.31561578 1.88884318
v 3.56886835 3.91616793 1.84523543
v 3.35195420 4.71658479 1.81888409
v 3.55025650 3.91486738 1.95893534
v 3.33334211 4.71528400 1.93258403
v 3.46588709 4.41058049 1.89241450
v 3.60613466 3.92647174 1.85145357
v 3.38922027 4.72688859 1.82510224
v 3.58752257 3.92517119 1.96515348
v 3.37060842 4.72558781 1.93880217
v 3.58947521 3.89291348 1.90672333
v 3.35699307 4.75077555 1.87848076
v 3.36028655 4.69773871 1.94381498
v 3.33586468 4.71012656 1.93925051
v 3.36913050 4.71932425 1.94480115
v 3.36342022 4.73808620 1.94276189
v 3.33171740 4.72932023 1.93747213
v 3.56448102 3.94425813 1.96862108
v 3.54972180 3.92099043 1.96523055
v 3.58298785 3.93018835 1.97078116
v 3.58755533 3.91102378 1.96999053
v 3.55585274 3.90225804 1.96470075
v 3.38113672 4.69919596 1.81644113
v 3.35648892 4.71156763 1.81325643
v 3.38975497 4.72076531 1.81880705
v 3.38362403 4.73949769 1.81933685
v 3.35192143 4.73073220 1.81404704
v 3.58533119 3.94571513 1.84124724
v 3.57034627 3.92243173 1.83923643
v 3.60361209 3.93162965 1.84478704
v 3.60775937 3.91243551 1.84656547
v 3.57605655 3.90367001 1.84127567
v 3.36464398 4.67374774 1.81555324
v 3.55827128 3.95925988 1.83907572
v 3.45997206 4.31627860 1.83270030
v 3.56219998 3.94150609 1.84241832
v 3.35902484 4.69122533 1.81773600
v 3.34446418 4.67233729 1.93883137
v 3.53809148 3.95784966 1.96235381
v 3.44158779 4.31499367 1.94501064
v 3.54294565 3.94016050 1.96004330
v 3.33977052 4.68987974 1.93536110
v 3.40138529 4.68390631 1.82168377
v 3.59501259 3.96941869 1.84520622
v 3.47509411 4.41087576 1.83625780
v 3.59970625 3.95187624 1.84867647
v 3.39653112 4.70159547 1.82399428
v 3.38120549 4.68249633 1.94496184
v 3.57483279 3.96800847 1.96848431
v 3.45670985 4.40959083 1.94856814
v 3.58045193 3.95053089 1.96630156
v 3.37727678 4.70024988 1.94161925
v 3.59263617 3.90243763 1.96472913
v 3.61092873 3.90371599 1.85297943
v 3.60900507 3.91253641 1.85546181
v 3.59157185 3.91131808 1.96196003
v 3.60224566 3.89822975 1.90887460
v 3.55762134 3.89275624 1.95888662
v 3.57591390 3.89403436 1.84713692
v 3.57230738 3.90238966 1.84933850
v 3.55487416 3.90117134 1.95583683
v 3.56881299 3.88898583 1.90329617
v 3.36356287 4.74772138 1.93690067
v 3.38185543 4.74899997 1.82515094
v 3.38460261 4.74058463 1.82820074
v 3.36716939 4.73936655 1.93469906
v 3.37066377 4.75277014 1.88074141
v 3.32854804 4.73804021 1.93105813
v 3.34684059 4.73931834 1.81930844
v 3.34790492 4.73043813 1.82207754
v 3.33047170 4.72921956 1.92857577
v 3.33723110 4.74352623 1.87516297
v 3.34574928 4.67319666 1.94108023
v 3.37905321 4.68240490 1.94663712
v 3.53959720 3.95789574 1.96462935
v 3.57290089 3.96710398 1.97018625
v 3.33195874 4.72207462 1.93730239
v 3.44159374 4.31522388 1.95194945
v 3.33476368 4.70890054 1.93662101
v 3.36690430 4.73173666 1.94313326
v 3.45582910 4.40427511 1.95529837
v 3.37143189 4.71903901 1.94273932
v 3.34898833 4.74319131 1.93865133
v 3.36619992 4.73839524 1.94012262
v 3.36079185 4.75140961 1.93655455
v 3.33010562 4.72841557 1.93409994
v 3.32905307 4.74263407 1.93125876
v 3.55240889 3.90861017 1.96408332
v 3.54819665 3.92132992 1.96254941
v 3.58735445 3.91827245 1.96991416
v 3.58486510 3.93146839 1.96866784
v 3.57773997 3.89909496 1.96644066
v 3.59015498 3.91199771 1.96732927
v 3.59211020 3.89784188 1.96465581
v 3.55406068 3.90201781 1.96130672
v 3.56037141 3.88906633 1.95935989
v 3.36657588 4.67465223 1.81385130
v 3.39987957 4.68386047 1.81940821
v 3.56042356 3.95935107 1.83740046
v 3.59372749 3.96855931 1.84295736
v 3.35212232 4.72348352 1.81412341
v 3.46218905 4.31666299 1.82613228
v 3.35461167 4.71028734 1.81536975
v 3.38706788 4.73314556 1.81995428
v 3.47642466 4.40571422 1.82948131
v 3.39128011 4.72042629 1.82148814
v 3.36861636 4.74456293 1.81874477
v 3.38541609 4.73973816 1.82273086
v 3.37910535 4.75268988 1.82467767
v 3.34932179 4.72975850 1.81670829
v 3.34736657 4.74391386 1.81938179
v 3.57257247 3.91001931 1.84090433
v 3.56804488 3.92271673 1.84129828
v 3.60751803 3.91968159 1.84673518
v 3.60471308 3.93285543 1.84741656
v 3.59736776 3.90046657 1.84653412
v 3.60937115 3.91334064 1.84993763
v 3.61042370 3.89912167 1.85277884
v 3.57327685 3.90336073 1.84391496
v 3.57868492 3.89034613 1.84748305
v 3.56123104 3.94096562 1.84790455
v 3.35782462 4.69153800 1.82319418
v 3.54377815 3.93974585 1.95452401
v 3.34037172 4.69031870 1.92981359
v 3.56001418 3.91347881 1.90213606
v 3.34200881 4.71792159 1.87565215
v 3.59910505 3.95143751 1.85422396
v 3.39569862 4.70201012 1.82951356
v 3.58165215 3.95021774 1.96084342
v 3.37824572 4.70079036 1.93613302
v 3.59746795 3.92383438 1.90838543
v 3.37946259 4.72827716 1.88190152
f 1 47 44
f 1 44 43
f 1 43 45
f 1 45 46
f 1 46 47
f 2 49 52
f 6 72 70
f 12 102 99
f 11 96 95
f 8 79 81
f 4 62 59
f 4 59 58
f 4 58 60
f 4 60 61
f 4 61 62
f 5 66 65
f 3 54 57
f 7 73 77
f 9 85 86
f 10 92 88
f 12 101 98
f 6 69 68
f 2 50 48
f 8 82 78
f 11 97 93
f 6 71 69
f 12 100 101
f 11 94 97
f 8 80 82
f 2 51 50
f 10 90 89
f 5 63 64
f 3 55 53
f 7 76 74
f 9 87 84
f 10 91 90
f 5 67 63
f 3 56 55
f 7 75 76
f 9 83 87
f 6 68 72
f 2 48 49
f 8 78 79
f 11 93 96
f 12 98 102
f 10 88 91
f 5 65 67
f 3 57 56
f 7 77 75
f 9 86 83
f 5 64 66
f 3 53 54
f 7 74 73
f 9 84 85
f 10 89 92
f 6 70 71
f 12 99 100
f 11 95 94
f 8 81 80
f 2 52 51
f 35 109 116
f 18 105 108
f 19 111 106
f 40 114 112
f 42 117 115
f 34 125 119
f 33 152 156
f 25 137 139
f 36 158 160
f 20 123 120
f 32 143 149
f 23 127 132
f 24 135 128
f 37 147 145
f 41 150 148
f 34 153 155
f 33 140 133
f 25 138 134
f 36 159 157
f 20 122 124
f 17 107 47
f 14 103 44
f 13 104 43
f 15 110 45
f 16 113 46
f 18 118 49
f 35 154 72
f 42 141 102
f 40 162 96
f 19 121 79
f 30 142 62
f 27 129 59
f 22 130 58
f 28 144 60
f 29 146 61
f 32 151 66
f 23 131 54
f 24 136 73
f 37 161 85
f 41 126 92
f 35 116 101
f 18 108 69
f 19 106 50
f 40 112 82
f 42 115 97
f 34 119 71
f 33 156 100
f 25 139 94
f 36 160 80
f 20 120 51
f 32 149 90
f 23 132 63
f 24 128 55
f 37 145 76
f 41 148 87
f 34 155 91
f 33 133 67
f 25 134 56
f 36 157 75
f 20 124 83
f 14 109 68
f 13 105 48
f 15 111 78
f 16 114 93
f 17 117 98
f 21 125 88
f 31 152 65
f 26 137 57
f 38 158 77
f 39 123 86
f 27 143 64
f 22 127 53
f 28 135 74
f 29 147 84
f 30 150 89
f 31 153 70
f 26 140 99
f 38 138 95
f 39 159 81
f 21 122 52
f 14 107 109
f 13 103 105
f 15 104 111
f 16 110 114
f 17 113 117
f 21 118 125
f 31 154 152
f 26 141 137
f 38 162 158
f 39 121 123
f 27 142 143
f 22 129 127
f 28 130 135
f 29 144 147
f 30 146 150
f 31 151 153
f 26 131 140
f 38 136 138
f 39 161 159
f 21 126 122
f 14 44 107
f 13 43 103
f 15 45 104
f 16 46 110
f 17 47 113
f 21 52 118
f 31 70 154
f 26 99 141
f 38 95 162
f 39 81 121
f 27 59 142
f 22 58 129
f 28 60 130
f 29 61 144
f 30 62 146
f 31 65 151
f 26 57 131
f 38 77 136
f 39 86 161
f 21 88 126
f 17 98 116
f 14 68 108
f 13 48 106
f 15 78 112
f 16 93 115
f 18 69 119
f 35 101 156
f 42 97 139
f 40 82 160
f 19 50 120
f 30 89 149
f 27 64 132
f 22 53 128
f 28 74 145
f 29 84 148
f 32 90 155
f 23 63 133
f 24 55 134
f 37 76 157
f 41 87 124
f 35 72 109
f 18 49 105
f 19 79 111
f 40 96 114
f 42 102 117
f 34 91 125
f 33 67 152
f 25 56 137
f 36 75 158
f 20 83 123
f 32 66 143
f 23 54 127
f 24 73 135
f 37 85 147
f 41 92 150
f 34 71 153
f 33 100 140
f 25 94 138
f 36 80 159
f 20 51 122
f 17 116 107
f 14 108 103
f 13 106 104
f 15 112 110
f 16 115 113
f 18 119 118
f 35 156 154
f 42 139 141
f 40 160 162
f 19 120 121
f 30 149 142
f 27 132 129
f 22 128 130
f 28 145 144
f 29 148 146
f 32 155 151
f 23 133 131
f 24 134 136
f 37 157 161
f 41 124 126
f 107 44 47
f 103 43 44
f 104 45 43
f 110 46 45
f 113 47 46
f 118 52 49
f 154 70 72
f 141 99 102
f 162 95 96
f 121 81 79
f 142 59 62
f 129 58 59
f 130 60 58
f 144 61 60
f 146 62 61
f 151 65 66
f 131 57 54
f 136 77 73
f 161 86 85
f 126 88 92
f 116 98 101
f 108 68 69
f 106 48 50
f 112 78 82
f 115 93 97
f 119 69 71
f 156 101 100
f 139 97 94
f 160 82 80
f 120 50 51
f 149 89 90
f 132 64 63
f 128 53 55
f 145 74 76
f 148 84 87
f 155 90 91
f 133 63 67
f 134 55 56
f 157 76 75
f 124 87 83
f 109 72 68
f 105 49 48
f 111 79 78
f 114 96 93
f 117 102 98
f 125 91 88
f 152 67 65
f 137 56 57
f 158 75 77
f 123 83 86
f 143 66 64
f 127 54 53
f 135 73 74
f 147 85 84
f 150 92 89
f 153 71 70
f 140 100 99
f 138 94 95
f 159 80 81
f 122 51 52
f 107 116 109
f 103 108 105
f 104 106 111
f 110 112 114
f 113 115 117
f 118 119 125
f 154 156 152
f 141 139 137
f 162 160 158
f 121 120 123
f 142 149 143
f 129 132 127
f 130 128 135
f 144 145 147
f 146 148 150
f 151 155 153
f 131 133 140
f 136 134 138
f 161 157 159
f 126 124 122

