# https://github.com/mikedh/trimesh
v -1.05832186 3.32239605 2.12684479
v 5.09895261 6.05199827 5.06359500
v -0.23796790 3.66935949 0.08437754
v 5.91930657 6.39896171 3.02112774
v 2.83070748 5.00484312 1.60088872
v 2.04890440 4.67418441 3.54737465
v 2.17890281 4.75894104 1.29731975
v 1.39709961 4.42828233 3.24380557
v 5.65477162 6.30679058 4.11467080
v 5.66987870 6.27245962 4.11490670
v -0.80611877 3.44259208 1.03310930
v -0.79101171 3.40826086 1.03334498
v 2.01353605 4.68457834 3.61186818
v -0.88804016 3.37366274 2.19785852
v -0.90307175 3.40782253 2.19762402
v -1.17849575 3.28437375 2.00921678
v -1.16417048 3.25181916 2.00944026
v 4.95058718 5.96200389 4.98262781
v 4.93555559 5.99616367 4.98239320
v 5.25003066 6.13422499 5.07534242
v 5.26435593 6.10167038 5.07556577
v 2.84726484 5.03719828 1.53610138
v -0.07179567 3.71888801 0.16562269
v -0.08682727 3.75304780 0.16538806
v -0.40059601 3.61338130 0.07245011
v -0.38627074 3.58082671 0.07267346
v 5.76683167 6.30722893 2.95039200
v 5.75180008 6.34138919 2.95015735
v 6.02793040 6.46323254 3.13857574
v 6.04225566 6.43067793 3.13879909
v 2.43993522 4.83922016 2.57413365
v 5.87370365 6.35436346 3.11229787
v -0.25282701 3.63839103 0.19021141
v 5.13235973 6.04081677 4.95805076
v -0.99417094 3.32484433 2.03596408
v 1.77750374 4.58930877 2.26561541
v 5.85793108 6.39020736 3.11205180
v -0.26859958 3.67423469 0.18996536
v 5.11658718 6.07666067 4.95780470
v -1.00994349 3.36068822 2.03571789
v 5.71351345 6.31633597 4.13988603
v -0.85271267 3.40544042 1.00808367
v -0.86830606 3.40649721 2.23248386
v -0.99192478 3.32895560 2.15633192
v -1.00600417 3.36095168 2.15611219
v -1.14244497 3.29939641 2.06603602
v -1.12902728 3.26890417 2.06624550
v 4.89896688 5.96320607 4.98322025
v 5.04825997 6.00664973 5.03723530
v 5.03418010 6.03864582 5.03701558
v 5.18803351 6.10578204 5.08539692
v 5.20145168 6.07528982 5.08560664
v -0.03780583 3.75775192 0.16475474
v -0.17042043 3.67640564 0.11100033
v -0.18449981 3.70840172 0.11078059
v -0.33769153 3.63976189 0.06240948
v -0.32427384 3.60926964 0.06261872
v 5.72946712 6.31446079 2.91549137
v 5.86976385 6.35410000 2.99190358
v 5.85568494 6.38609608 2.99168383
v 5.99278696 6.44614752 3.08177038
v 6.00620513 6.41565528 3.08197986
v 0.10714605 3.79763736 0.26931688
v 5.57595920 6.22203541 2.87770118
v 2.80604590 4.99414844 1.66253539
v 5.69252547 6.27364649 2.98789864
v -0.04595568 3.72970125 0.25089448
v -0.69664910 3.45767733 2.27055738
v 4.77216404 5.88207540 4.87894204
v 2.07376213 4.68443391 3.48573082
v 4.92558974 5.94927608 4.89736924
v -0.81289141 3.40533058 2.16036488
v 0.09159564 3.83297630 0.26907408
v 5.56040878 6.25737437 2.87745862
v 2.14617945 4.74520472 1.35521178
v 5.67665133 6.30972087 2.98765103
v -0.06182981 3.76577587 0.25064685
v -0.71219952 3.49301628 2.27031471
v 4.75661363 5.91741434 4.87869924
v 1.41389569 4.43549020 3.17840733
v 4.90971559 5.98535046 4.89712163
v -0.82876556 3.44140519 2.16011712
v 5.29513119 6.15438865 5.02388068
v 6.02375935 6.46255707 3.20978699
v 5.94032121 6.42688376 3.22094503
v 5.24593328 6.13319639 4.94978973
v 5.69520489 6.32341583 4.13373511
v 5.30995108 6.12071036 5.02411173
v 6.03857923 6.42887880 3.21001827
v 5.95585311 6.39158643 3.22118759
v 5.26146517 6.09789994 4.95003150
v 5.70935501 6.29125955 4.13395585
v -1.17481931 3.28617312 1.93799759
v -0.44619116 3.59434157 0.12390414
v -0.39770526 3.61715197 0.19798413
v -1.09209320 3.32346503 1.92682832
v -0.84559534 3.42379213 1.01405991
v -1.15999943 3.25249485 1.93822888
v -0.43137128 3.56066328 0.12413519
v -0.38217336 3.58185509 0.19822641
v -1.07656129 3.28816816 1.92707084
v -0.83144522 3.39163561 1.01428068
v -0.71336916 3.45250330 2.30112912
v -0.72746468 3.48453573 2.30090927
v 4.76166898 5.87966079 4.91248307
v 4.74757391 5.91169318 4.91226274
v -1.07549784 3.29075427 2.08908028
v 2.02925842 4.66687922 3.59535488
v -0.96975216 3.33651464 2.12070314
v -1.09028829 3.32436584 2.08884953
v 1.40807659 4.43252985 3.30604803
v -0.98527172 3.37178329 2.12046090
v -1.19091264 3.26340979 2.00646569
v -1.12116122 3.31095540 2.01826302
v -1.20624430 3.27036749 1.92391963
v -1.10588469 3.27623877 2.01850138
v -1.19281094 3.23984033 1.92412925
v 5.15089853 6.05099924 5.05879862
v 5.05845175 6.00889791 4.99589230
v 5.13610855 6.08461057 5.05856787
v 5.04293267 6.04416655 4.99565004
v 5.26994851 6.12759620 5.08801364
v 5.20423029 6.11508570 5.03519741
v 5.32711337 6.16669184 5.04004482
v 5.21950634 6.08036933 5.03543600
v 5.34054675 6.13616474 5.04025503
v 0.11618623 3.80335849 0.23575290
v 0.10209070 3.83539092 0.23553305
v 5.59122436 6.23051596 2.84710674
v 5.57712930 6.26254838 2.84688664
v -0.27234840 3.63044111 0.08944800
v 2.84960869 5.01384102 1.55289676
v -0.17917252 3.67088513 0.15236584
v -0.28713886 3.66405269 0.08921725
v 2.22842686 4.77949164 1.26358998
v -0.19469208 3.70615378 0.15212359
v -0.40910050 3.59407238 0.05995682
v -0.35574666 3.63468260 0.11257988
v -0.47678682 3.57888673 0.10776111
v -0.34047013 3.59996599 0.11281847
v -0.46335346 3.54835959 0.10797084
v 5.95404797 6.39068561 3.05916637
v 5.84903140 6.34326840 3.02755499
v 5.93925800 6.42429743 3.05893558
v 5.83351232 6.37853705 3.02731273
v 6.05176112 6.45825878 3.14150464
v 5.96964437 6.43881291 3.12951451
v 6.05657086 6.47521137 3.22388676
v 5.98492137 6.40409606 3.12975288
v 6.07000421 6.44468420 3.22409625
v 5.65999064 6.25974286 3.07878679
v -0.08502283 3.71290184 0.33866724
v 4.96481235 5.96572189 4.80959890
v -0.78020066 3.41888061 2.06947923
v 5.51847949 6.20433083 4.04252367
v -0.63886751 3.47469715 1.10573931
v 5.64396080 6.29617106 3.07853652
v -0.10105266 3.74932982 0.33841723
v 4.94878251 6.00214964 4.80934891
v -0.79623049 3.45530883 2.06922909
v 5.50262719 6.24035454 4.04227670
v -0.65471934 3.51072085 1.10549209
f 1 47 44
f 1 44 43
f 1 43 45
f 1 45 46
f 1 46 47
f 2 49 52
f 6 72 70
f 12 102 99
f 11 96 95
f 8 79 81
f 4 62 59
f 4 59 58
f 4 58 60
f 4 60 61
f 4 61 62
f 5 66 65
f 3 54 57
f 7 73 77
f 9 85 86
f 10 92 88
f 12 101 98
f 6 69 68
f 2 50 48
f 8 82 78
f 11 97 93
f 6 71 69
f 12 100 101
f 11 94 97
f 8 80 82
f 2 51 50
f 10 90 89
f 5 63 64
f 3 55 53
f 7 76 74
f 9 87 84
f 10 91 90
f 5 67 63
f 3 56 55
f 7 75 76
f 9 83 87
f 6 68 72
f 2 48 49
f 8 78 79
f 11 93 96
f 12 98 102
f 10 88 91
f 5 65 67
f 3 57 56
f 7 77 75
f 9 86 83
f 5 64 66
f 3 53 54
f 7 74 73
f 9 84 85
f 10 89 92
f 6 70 71
f 12 99 100
f 11 95 94
f 8 81 80
f 2 52 51
f 35 109 116
f 18 105 108
f 19 111 106
f 40 114 112
f 42 117 115
f 34 125 119
f 33 152 156
f 25 137 139
f 36 158 160
f 20 123 120
f 32 143 149
f 23 127 132
f 24 135 128
f 37 147 145
f 41 150 148
f 34 153 155
f 33 140 133
f 25 138 134
f 36 159 157
f 20 122 124
f 17 107 47
f 14 103 44
f 13 104 43
f 15 110 45
f 16 113 46
f 18 118 49
f 35 154 72
f 42 141 102
f 40 162 96
f 19 121 79
f 30 142 62
f 27 129 59
f 22 130 58
f 28 144 60
f 29 146 61
f 32 151 66
f 23 131 54
f 24 136 73
f 37 161 85
f 41 126 92
f 35 116 101
f 18 108 69
f 19 106 50
f 40 112 82
f 42 115 97
f 34 119 71
f 33 156 100
f 25 139 94
f 36 160 80
f 20 120 51
f 32 149 90
f 23 132 63
f 24 128 55
f 37 145 76
f 41 148 87
f 34 155 91
f 33 133 67
f 25 134 56
f 36 157 75
f 20 124 83
f 14 109 68
f 13 105 48
f 15 111 78
f 16 114 93
f 17 117 98
f 21 125 88
f 31 152 65
f 26 137 57
f 38 158 77
f 39 123 86
f 27 143 64
f 22 127 53
f 28 135 74
f 29 147 84
f 30 150 89
f 31 153 70
f 26 140 99
f 38 138 95
f 39 159 81
f 21 122 52
f 14 107 109
f 13 103 105
f 15 104 111
f 16 110 114
f 17 113 117
f 21 118 125
f 31 154 152
f 26 141 137
f 38 162 158
f 39 121 123
f 27 142 143
f 22 129 127
f 28 130 135
f 29 144 147
f 30 146 150
f 31 151 153
f 26 131 140
f 38 136 138
f 39 161 159
f 21 126 122
f 14 44 107
f 13 43 103
f 15 45 104
f 16 46 110
f 17 47 113
f 21 52 118
f 31 70 154
f 26 99 141
f 38 95 162
f 39 81 121
f 27 59 142
f 22 58 129
f 28 60 130
f 29 61 144
f 30 62 146
f 31 65 151
f 26 57 131
f 38 77 136
f 39 86 161
f 21 88 126
f 17 98 116
f 14 68 108
f 13 48 106
f 15 78 112
f 16 93 115
f 18 69 119
f 35 101 156
f 42 97 139
f 40 82 160
f 19 50 120
f 30 89 149
f 27 64 132
f 22 53 128
f 28 74 145
f 29 84 148
f 32 90 155
f 23 63 133
f 24 55 134
f 37 76 157
f 41 87 124
f 35 72 109
f 18 49 105
f 19 79 111
f 40 96 114
f 42 102 117
f 34 91 125
f 33 67 152
f 25 56 137
f 36 75 158
f 20 83 123
f 32 66 143
f 23 54 127
f 24 73 135
f 37 85 147
f 41 92 150
f 34 71 153
f 33 100 140
f 25 94 138
f 36 80 159
f 20 51 122
f 17 116 107
f 14 108 103
f 13 106 104
f 15 112 110
f 16 115 113
f 18 119 118
f 35 156 154
f 42 139 141
f 40 160 162
f 19 120 121
f 30 149 142
f 27 132 129
f 22 128 130
f 28 145 144
f 29 148 146
f 32 155 151
f 23 133 131
f 24 134 136
f 37 157 161
f 41 124 126
f 107 44 47
f 103 43 44
f 104 45 43
f 110 46 45
f 113 47 46
f 118 52 49
f 154 70 72
f 141 99 102
f 162 95 96
f 121 81 79
f 142 59 62
f 129 58 59
f 130 60 58
f 144 61 60
f 146 62 61
f 151 65 66
f 131 57 54
f 136 77 73
f 161 86 85
f 126 88 92
f 116 98 101
f 108 68 69
f 106 48 50
f 112 78 82
f 115 93 97
f 119 69 71
f 156 101 100
f 139 97 94
f 160 82 80
f 120 50 51
f 149 89 90
f 132 64 63
f 128 53 55
f 145 74 76
f 148 84 87
f 155 90 91
f 133 63 67
f 134 55 56
f 157 76 75
f 124 87 83
f 109 72 68
f 105 49 48
f 111 79 78
f 114 96 93
f 117 102 98
f 125 91 88
f 152 67 65
f 137 56 57
f 158 75 77
f 123 83 86
f 143 66 64
f 127 54 53
f 135 73 74
f 147 85 84
f 150 92 89
f 153 71 70
f 140 100 99
f 138 94 95
f 159 80 81
f 122 51 52
f 107 116 109
f 103 108 105
f 104 106 111
f 110 112 114
f 113 115 117
f 118 119 125
f 154 156 152
f 141 139 137
f 162 160 158
f 121 120 123
f 142 149 143
f 129 132 127
f 130 128 135
f 144 145 147
f 146 148 150
f 151 155 153
f 131 133 140
f 136 134 138
f 161 157 159
f 126 124 122

