# https://github.com/mikedh/trimesh
v 0.72309599 2.58155661 0.50963877
v 0.42243683 3.74097757 0.49539521
v 0.98847540 2.65031746 0.50499311
v 0.68781621 3.80973819 0.49074958
v 0.83222059 3.22877662 0.52109949
v 0.57931215 3.16324709 0.52552682
v 0.86274601 3.10840577 0.48322076
v 0.60983757 3.04287624 0.48764808
v 0.54750837 3.80370209 0.47741491
v 0.54801166 3.80429321 0.51491565
v 0.86299299 2.58711025 0.49236078
v 0.86349629 2.58770137 0.52986152
v 0.57060005 3.16070300 0.50232611
v 0.71627753 2.61207811 0.53135935
v 0.71577677 2.61148992 0.49404587
v 0.73639310 2.55757142 0.49549631
v 0.73687029 2.55813223 0.53105630
v 0.43117786 3.71149737 0.51785293
v 0.43067712 3.71090894 0.48053947
v 0.42248873 3.76806927 0.48062530
v 0.42296599 3.76862961 0.51618533
v 0.84030605 3.23058472 0.49760474
v 0.98032751 2.68049452 0.52673696
v 0.97982681 2.67990609 0.48942351
v 0.98803865 2.62277384 0.49109109
v 0.98851591 2.62333418 0.52665111
v 0.69522787 3.77991353 0.51323057
v 0.69472712 3.77932534 0.47591710
v 0.67413436 3.83327122 0.47622012
v 0.67461154 3.83383203 0.51178011
v 0.70577068 3.19601696 0.52363393
v 0.67609611 3.80389540 0.51402928
v 0.97525402 2.65026349 0.52820172
v 0.43627606 3.74175720 0.51822749
v 0.73543395 2.58812528 0.53239992
v 0.73679376 3.07368351 0.48513763
v 0.67557070 3.80327817 0.47487651
v 0.97472856 2.64964626 0.48904895
v 0.43575060 3.74113996 0.47907471
v 0.73490854 2.58750806 0.49324715
v 0.54513891 3.81385718 0.49237065
v 0.86576713 2.57743030 0.50756021
v 0.71193588 2.61785364 0.50943455
v 0.72033188 2.59286236 0.53042566
v 0.71986288 2.59231138 0.49547559
v 0.72967074 2.56569507 0.49658511
v 0.73011777 2.56622001 0.52989280
v 0.43032050 3.70383677 0.49609321
v 0.42539027 3.73023494 0.51645299
v 0.42492121 3.72968395 0.48150292
v 0.42055405 3.75773029 0.48194093
v 0.42100108 3.75825546 0.51524859
v 0.98059756 2.68746482 0.50473145
v 0.98608346 2.66171949 0.52577349
v 0.98561434 2.66116851 0.49082344
v 0.99000353 2.63314799 0.49202783
v 0.99045062 2.63367317 0.52533551
v 0.69898216 3.77344795 0.49139011
v 0.69114176 3.79909207 0.51180084
v 0.69067277 3.79854109 0.47685078
v 0.68088687 3.82518345 0.47738363
v 0.68133390 3.82570838 0.51069131
v 0.96929356 2.71480093 0.52698853
v 0.70225190 3.74458390 0.51433762
v 0.82421425 3.22670520 0.52148305
v 0.68971149 3.76843478 0.51453182
v 0.96992099 2.68787319 0.52780655
v 0.70927081 2.64742812 0.53154040
v 0.44222915 3.67721109 0.51888948
v 0.58732501 3.16532627 0.52562995
v 0.44161250 3.70415140 0.51887495
v 0.72182200 2.62359003 0.53214967
v 0.96877549 2.71419237 0.48838697
v 0.70173384 3.74397533 0.47573603
v 0.85511719 3.10484545 0.48313582
v 0.68918264 3.76781343 0.47512677
v 0.96939215 2.68725207 0.48840149
v 0.70875275 2.64681956 0.49293883
v 0.44171109 3.67660252 0.48028790
v 0.61822796 3.04346676 0.48728271
v 0.44108365 3.70353027 0.47946988
v 0.72129316 2.62296867 0.49274460
v 0.42943864 3.77402446 0.47982412
v 0.66514521 3.83509696 0.47569791
v 0.66281599 3.82122731 0.47506342
v 0.43818594 3.76302479 0.47899573
v 0.54557332 3.81124432 0.47851015
v 0.42993237 3.77460435 0.51661170
v 0.66563893 3.83567686 0.51248549
v 0.66333342 3.82183503 0.51361904
v 0.43870337 3.76363276 0.51755134
v 0.54604471 3.81179800 0.51363556
v 0.74536571 2.55572661 0.49479094
v 0.98107228 2.61679911 0.49066472
v 0.97230131 2.62777070 0.48972509
v 0.74767123 2.56956842 0.49365738
v 0.86495993 2.57960546 0.49364087
v 0.74585944 2.55630649 0.53157852
v 0.98156600 2.61737900 0.52745233
v 0.97281875 2.62837866 0.52828069
v 0.74818866 2.57017615 0.53221300
v 0.86543133 2.58015913 0.52876628
v 0.70523198 2.64573395 0.52981468
v 0.70476239 2.64518237 0.49482483
v 0.43788632 3.67668906 0.51714936
v 0.43741673 3.67613748 0.48215949
v 0.72785901 2.57611344 0.53147136
v 0.57306487 3.16161711 0.52471160
v 0.72506535 2.59531454 0.53211151
v 0.72736621 2.57553490 0.49475671
v 0.60215617 3.04690144 0.48861246
v 0.72454833 2.59470717 0.49358689
v 0.73673974 2.55458639 0.50971095
v 0.73587857 2.56778633 0.49416082
v 0.74680273 2.54974908 0.49658763
v 0.73638747 2.56838420 0.53208254
v 0.74725029 2.55027492 0.52993320
v 0.42382461 3.74854995 0.51706791
v 0.43070872 3.73043124 0.51816655
v 0.42333187 3.74797140 0.48035328
v 0.43019169 3.72982388 0.47964192
v 0.42125651 3.77117297 0.49476512
v 0.42701026 3.75886351 0.47952842
v 0.42777951 3.77998661 0.48147412
v 0.42751922 3.75946139 0.51745011
v 0.42822701 3.78051246 0.51481967
v 0.97358791 2.71526597 0.52511695
v 0.97311832 2.71471439 0.49012707
v 0.70624225 3.74622108 0.51245161
v 0.70577267 3.74566952 0.47746175
v 0.98767274 2.64343205 0.52692314
v 0.83844308 3.23037749 0.52006600
v 0.98081292 2.66157958 0.52763449
v 0.98718000 2.64285351 0.49020852
v 0.86753432 3.11566183 0.48396685
v 0.98029596 2.66097221 0.48910988
v 0.98965115 2.62011662 0.50528358
v 0.98348539 2.63194207 0.48982632
v 0.98277764 2.61089099 0.49245676
v 0.98399442 2.63253995 0.52774803
v 0.98322513 2.61141684 0.52580233
v 0.68363843 3.81586855 0.51251972
v 0.68645632 3.79669628 0.51368954
v 0.68314564 3.81529002 0.47580509
v 0.68593929 3.79608891 0.47516491
v 0.67416789 3.83670297 0.49033778
v 0.67461718 3.82301925 0.47519390
v 0.66375436 3.84112854 0.47734323
v 0.67512608 3.82361712 0.51311561
v 0.66420191 3.84165438 0.51068880
v 0.67794799 3.76604542 0.51492054
v 0.95847646 2.68425384 0.52821037
v 0.45306223 3.70777683 0.51885730
v 0.73359073 2.62598524 0.53214713
v 0.55543506 3.77572914 0.51619122
v 0.85609768 2.61629479 0.53043492
v 0.67741393 3.76541821 0.47512929
v 0.95794245 2.68362662 0.48841915
v 0.45252822 3.70714962 0.47906606
v 0.73305666 2.62535803 0.49235591
v 0.55490696 3.77510867 0.47684152
v 0.85556959 2.61567432 0.49108521
f 1 47 44
f 1 44 43
f 1 43 45
f 1 45 46
f 1 46 47
f 2 49 52
f 6 72 70
f 12 102 99
f 11 96 95
f 8 79 81
f 4 62 59
f 4 59 58
f 4 58 60
f 4 60 61
f 4 61 62
f 5 66 65
f 3 54 57
f 7 73 77
f 9 85 86
f 10 92 88
f 12 101 98
f 6 69 68
f 2 50 48
f 8 82 78
f 11 97 93
f 6 71 69
f 12 100 101
f 11 94 97
f 8 80 82
f 2 51 50
f 10 90 89
f 5 63 64
f 3 55 53
f 7 76 74
f 9 87 84
f 10 91 90
f 5 67 63
f 3 56 55
f 7 75 76
f 9 83 87
f 6 68 72
f 2 48 49
f 8 78 79
f 11 93 96
f 12 98 102
f 10 88 91
f 5 65 67
f 3 57 56
f 7 77 75
f 9 86 83
f 5 64 66
f 3 53 54
f 7 74 73
f 9 84 85
f 10 89 92
f 6 70 71
f 12 99 100
f 11 95 94
f 8 81 80
f 2 52 51
f 35 109 116
f 18 105 108
f 19 111 106
f 40 114 112
f 42 117 115
f 34 125 119
f 33 152 156
f 25 137 139
f 36 158 160
f 20 123 120
f 32 143 149
f 23 127 132
f 24 135 128
f 37 147 145
f 41 150 148
f 34 153 155
f 33 140 133
f 25 138 134
f 36 159 157
f 20 122 124
f 17 107 47
f 14 103 44
f 13 104 43
f 15 110 45
f 16 113 46
f 18 118 49
f 35 154 72
f 42 141 102
f 40 162 96
f 19 121 79
f 30 142 62
f 27 129 59
f 22 130 58
f 28 144 60
f 29 146 61
f 32 151 66
f 23 131 54
f 24 136 73
f 37 161 85
f 41 126 92
f 35 116 101
f 18 108 69
f 19 106 50
f 40 112 82
f 42 115 97
f 34 119 71
f 33 156 100
f 25 139 94
f 36 160 80
f 20 120 51
f 32 149 90
f 23 132 63
f 24 128 55
f 37 145 76
f 41 148 87
f 34 155 91
f 33 133 67
f 25 134 56
f 36 157 75
f 20 124 83
f 14 109 68
f 13 105 48
f 15 111 78
f 16 114 93
f 17 117 98
f 21 125 88
f 31 152 65
f 26 137 57
f 38 158 77
f 39 123 86
f 27 143 64
f 22 127 53
f 28 135 74
f 29 147 84
f 30 150 89
f 31 153 70
f 26 140 99
f 38 138 95
f 39 159 81
f 21 122 52
f 14 107 109
f 13 103 105
f 15 104 111
f 16 110 114
f 17 113 117
f 21 118 125
f 31 154 152
f 26 141 137
f 38 162 158
f 39 121 123
f 27 142 143
f 22 129 127
f 28 130 135
f 29 144 147
f 30 146 150
f 31 151 153
f 26 131 140
f 38 136 138
f 39 161 159
f 21 126 122
f 14 44 107
f 13 43 103
f 15 45 104
f 16 46 110
f 17 47 113
f 21 52 118
f 31 70 154
f 26 99 141
f 38 95 162
f 39 81 121
f 27 59 142
f 22 58 129
f 28 60 130
f 29 61 144
f 30 62 146
f 31 65 151
f 26 57 131
f 38 77 136
f 39 86 161
f 21 88 126
f 17 98 116
f 14 68 108
f 13 48 106
f 15 78 112
f 16 93 115
f 18 69 119
f 35 101 156
f 42 97 139
f 40 82 160
f 19 50 120
f 30 89 149
f 27 64 132
f 22 53 128
f 28 74 145
f 29 84 148
f 32 90 155
f 23 63 133
f 24 55 134
f 37 76 157
f 41 87 124
f 35 72 109
f 18 49 105
f 19 79 111
f 40 96 114
f 42 102 117
f 34 91 125
f 33 67 152
f 25 56 137
f 36 75 158
f 20 83 123
f 32 66 143
f 23 54 127
f 24 73 135
f 37 85 147
f 41 92 150
f 34 71 153
f 33 100 140
f 25 94 138
f 36 80 159
f 20 51 122
f 17 116 107
f 14 108 103
f 13 106 104
f 15 112 110
f 16 115 113
f 18 119 118
f 35 156 154
f 42 139 141
f 40 160 162
f 19 120 121
f 30 149 142
f 27 132 129
f 22 128 130
f 28 145 144
f 29 148 146
f 32 155 151
f 23 133 131
f 24 134 136
f 37 157 161
f 41 124 126
f 107 44 47
f 103 43 44
f 104 45 43
f 110 46 45
f 113 47 46
f 118 52 49
f 154 70 72
f 141 99 102
f 162 95 96
f 121 81 79
f 142 59 62
f 129 58 59
f 130 60 58
f 144 61 60
f 146 62 61
f 151 65 66
f 131 57 54
f 136 77 73
f 161 86 85
f 126 88 92
f 116 98 101
f 108 68 69
f 106 48 50
f 112 78 82
f 115 93 97
f 119 69 71
f 156 101 100
f 139 97 94
f 160 82 80
f 120 50 51
f 149 89 90
f 132 64 63
f 128 53 55
f 145 74 76
f 148 84 87
f 155 90 91
f 133 63 67
f 134 55 56
f 157 76 75
f 124 87 83
f 109 72 68
f 105 49 48
f 111 79 78
f 114 96 93
f 117 102 98
f 125 91 88
f 152 67 65
f 137 56 57
f 158 75 77
f 123 83 86
f 143 66 64
f 127 54 53
f 135 73 74
f 147 85 84
f 150 92 89
f 153 71 70
f 140 100 99
f 138 94 95
f 159 80 81
f 122 51 52
f 107 116 109
f 103 108 105
f 104 106 111
f 110 112 114
f 113 115 117
f 118 119 125
f 154 156 152
f 141 139 137
f 162 160 158
f 121 120 123
f 142 149 143
f 129 132 127
f 130 128 135
f 144 145 147
f 146 148 150
f 151 155 153
f 131 133 140
f 136 134 138
f 161 157 159
f 126 124 122

