# https://github.com/mikedh/trimesh
v 1.25226467 2.80457684 0.66480622
v 0.95332869 3.94932525 0.65191867
v 1.24562268 2.80405531 0.77252610
v 0.94668675 3.94880346 0.75963857
v 1.07398234 3.37059492 0.76214624
v 1.08031217 3.37109221 0.65948839
v 1.14286226 3.26231117 0.76586885
v 1.14919197 3.26280846 0.66321100
v 0.95742034 3.98115906 0.70639113
v 0.92120196 3.97167547 0.70411199
v 1.27109688 2.77996300 0.71991416
v 1.23487850 2.77047942 0.71763502
v 1.10307179 3.37701306 0.65749824
v 1.22316776 2.82860771 0.66339933
v 1.25920529 2.83804401 0.66566708
v 1.27252314 2.78297355 0.66874869
v 1.23817915 2.77398088 0.66658749
v 0.93970217 3.91411369 0.65117873
v 0.97573971 3.92354998 0.65344650
v 0.96041795 3.97815230 0.65529341
v 0.92607385 3.96915963 0.65313220
v 1.09632146 3.37648302 0.76697435
v 1.21655913 2.82808848 0.77057966
v 1.25259666 2.83752478 0.77284741
v 1.26622499 2.78247884 0.77089394
v 1.23188088 2.77348616 0.76873274
v 0.93309348 3.91359446 0.75835907
v 0.96913108 3.92303076 0.76062682
v 0.95411969 3.97765760 0.75743866
v 0.91977570 3.96866492 0.75527747
v 1.07683739 3.37076240 0.71079782
v 0.92551966 3.94014902 0.75308428
v 1.22296297 2.80111655 0.76590748
v 0.93152189 3.94062055 0.65573912
v 1.22896525 2.80158808 0.66856232
v 1.14684028 3.26071328 0.71458112
v 0.96333365 3.95005039 0.75546382
v 1.26077689 2.81101793 0.76828703
v 0.96933586 3.95052192 0.65811867
v 1.26677917 2.81148946 0.67094187
v 0.94030133 3.98713776 0.70536455
v 1.25909193 2.76635809 0.71910805
v 1.24262778 2.84077924 0.66371864
v 1.22922323 2.81017168 0.66333676
v 1.26297808 2.81901029 0.66546088
v 1.26916409 2.79181165 0.66681454
v 1.23699534 2.78338838 0.66479025
v 0.96262642 3.91301908 0.65164741
v 0.93597198 3.93315066 0.65069430
v 0.96972694 3.94198928 0.65281842
v 0.96181909 3.96876188 0.65356446
v 0.92965034 3.96033861 0.65154017
v 1.23590362 2.84025105 0.77277086
v 1.22257189 2.80964919 0.77120773
v 1.25632686 2.81848782 0.77333185
v 1.26264855 2.79129987 0.77248598
v 1.23047980 2.78287659 0.77046168
v 0.95590226 3.91249090 0.76069962
v 0.92932070 3.93262817 0.75856526
v 0.96307567 3.94146680 0.76068938
v 0.95530350 3.96825009 0.75923591
v 0.92313475 3.95982682 0.75721161
v 1.20701028 2.86230704 0.76933614
v 0.94149910 3.87905805 0.75788959
v 1.07394773 3.37054912 0.75888027
v 0.93471411 3.90403614 0.75516296
v 1.21331768 2.83714920 0.76717395
v 1.21351806 2.86281823 0.66379053
v 0.94800700 3.87956925 0.65234398
v 1.07987669 3.37101491 0.66272478
v 0.94092357 3.90452403 0.65445732
v 1.21952710 2.83763709 0.66646830
v 1.24429183 2.87206922 0.77168217
v 0.97878072 3.88882024 0.76023561
v 1.14367958 3.26092608 0.76264892
v 0.97277174 3.91400138 0.75755784
v 1.25137520 2.84711444 0.76956883
v 1.25079974 2.87258042 0.66613657
v 0.98528862 3.88933144 0.65469001
v 1.14960842 3.26139187 0.66649343
v 0.97898120 3.91448926 0.65685220
v 1.25758473 2.84760233 0.66886318
v 0.95980571 3.98214269 0.65852225
v 0.95390637 3.98167947 0.75419770
v 0.95810125 3.96965026 0.75214147
v 0.96372335 3.97009180 0.66096208
v 0.95433354 3.98828707 0.70623532
v 0.92427603 3.97283948 0.65628646
v 0.91837670 3.97237602 0.75196191
v 0.92086404 3.95989977 0.74979823
v 0.92648607 3.96034155 0.65861881
v 0.92040920 3.97940408 0.70410055
v 1.27392214 2.77926246 0.67206423
v 1.26802275 2.77879900 0.76773970
v 1.26581270 2.79129693 0.76540734
v 1.27143486 2.79173869 0.67422792
v 1.27188963 2.77223439 0.71992561
v 1.23839246 2.76995901 0.66982845
v 1.23249319 2.76949579 0.76550389
v 1.22857548 2.78154668 0.76306407
v 1.23419753 2.78198820 0.67188468
v 1.23796530 2.76335141 0.71779083
v 1.21551762 2.86270467 0.66221552
v 1.24931096 2.87155328 0.66434207
v 0.94970425 3.88061287 0.65075596
v 0.98349770 3.88946150 0.65288250
v 1.23281708 2.79263263 0.66468310
v 1.08136099 3.37133835 0.65701376
v 1.22708106 2.81082344 0.66524594
v 1.26827624 2.80191732 0.66691448
v 1.14700477 3.26814171 0.66056150
v 1.26428827 2.82056613 0.66758731
v 1.25964213 2.77638661 0.66766467
v 1.27110951 2.79285566 0.66953219
v 1.27380253 2.77293327 0.67197154
v 1.23448450 2.78326556 0.66722748
v 1.24159708 2.76450049 0.66994494
v 0.93052525 3.95023179 0.65165090
v 0.93441143 3.93157527 0.65262855
v 0.96598441 3.95951672 0.65388225
v 0.97161876 3.94131771 0.65496993
v 0.94596713 3.97757694 0.65414171
v 0.96401146 3.96885973 0.65629279
v 0.95660768 3.98760220 0.65829684
v 0.92738646 3.95926962 0.65398807
v 0.92440235 3.97916918 0.65627024
v 1.20880114 2.86217698 0.77114366
v 1.24259459 2.87102559 0.77327020
v 0.94298782 3.88008519 0.75968408
v 0.97678121 3.88893381 0.76181062
v 1.22631443 2.79212176 0.77014389
v 1.07471898 3.37081654 0.76473320
v 1.22068014 2.81032075 0.76905623
v 1.26177358 2.80140668 0.77237524
v 1.14036277 3.26762012 0.76828092
v 1.25788735 2.82006320 0.77139760
v 1.25331234 2.77588942 0.77032370
v 1.26491232 2.79236885 0.77003809
v 1.26789649 2.77246930 0.76775590
v 1.22828744 2.78277875 0.76773336
v 1.23569116 2.76403652 0.76572929
v 0.92402260 3.94972115 0.75711167
v 0.92801057 3.93107234 0.75643884
v 0.95948176 3.95900585 0.75934305
v 0.96521784 3.94081503 0.75878020
v 0.93963721 3.97707974 0.75680075
v 0.95781433 3.96837291 0.75679867
v 0.95070170 3.98713797 0.75408122
v 0.92118932 3.95878281 0.75449395
v 0.91849631 3.97870519 0.75205460
v 0.93465957 3.90461737 0.75043316
v 1.21358026 2.83651613 0.76245781
v 0.94028802 3.90505960 0.65914998
v 1.21920872 2.83695812 0.67117464
v 0.92767760 3.94322457 0.70437346
v 1.22661703 2.79846280 0.71726116
v 0.97309018 3.91468035 0.75285151
v 1.25201081 2.84657886 0.76487616
v 0.97871864 3.91512235 0.66156834
v 1.25763927 2.84702110 0.67359298
v 0.96568181 3.95317568 0.70676499
v 1.26462123 2.80841390 0.71965269
f 1 47 44
f 1 44 43
f 1 43 45
f 1 45 46
f 1 46 47
f 2 49 52
f 6 72 70
f 12 102 99
f 11 96 95
f 8 79 81
f 4 62 59
f 4 59 58
f 4 58 60
f 4 60 61
f 4 61 62
f 5 66 65
f 3 54 57
f 7 73 77
f 9 85 86
f 10 92 88
f 12 101 98
f 6 69 68
f 2 50 48
f 8 82 78
f 11 97 93
f 6 71 69
f 12 100 101
f 11 94 97
f 8 80 82
f 2 51 50
f 10 90 89
f 5 63 64
f 3 55 53
f 7 76 74
f 9 87 84
f 10 91 90
f 5 67 63
f 3 56 55
f 7 75 76
f 9 83 87
f 6 68 72
f 2 48 49
f 8 78 79
f 11 93 96
f 12 98 102
f 10 88 91
f 5 65 67
f 3 57 56
f 7 77 75
f 9 86 83
f 5 64 66
f 3 53 54
f 7 74 73
f 9 84 85
f 10 89 92
f 6 70 71
f 12 99 100
f 11 95 94
f 8 81 80
f 2 52 51
f 35 109 116
f 18 105 108
f 19 111 106
f 40 114 112
f 42 117 115
f 34 125 119
f 33 152 156
f 25 137 139
f 36 158 160
f 20 123 120
f 32 143 149
f 23 127 132
f 24 135 128
f 37 147 145
f 41 150 148
f 34 153 155
f 33 140 133
f 25 138 134
f 36 159 157
f 20 122 124
f 17 107 47
f 14 103 44
f 13 104 43
f 15 110 45
f 16 113 46
f 18 118 49
f 35 154 72
f 42 141 102
f 40 162 96
f 19 121 79
f 30 142 62
f 27 129 59
f 22 130 58
f 28 144 60
f 29 146 61
f 32 151 66
f 23 131 54
f 24 136 73
f 37 161 85
f 41 126 92
f 35 116 101
f 18 108 69
f 19 106 50
f 40 112 82
f 42 115 97
f 34 119 71
f 33 156 100
f 25 139 94
f 36 160 80
f 20 120 51
f 32 149 90
f 23 132 63
f 24 128 55
f 37 145 76
f 41 148 87
f 34 155 91
f 33 133 67
f 25 134 56
f 36 157 75
f 20 124 83
f 14 109 68
f 13 105 48
f 15 111 78
f 16 114 93
f 17 117 98
f 21 125 88
f 31 152 65
f 26 137 57
f 38 158 77
f 39 123 86
f 27 143 64
f 22 127 53
f 28 135 74
f 29 147 84
f 30 150 89
f 31 153 70
f 26 140 99
f 38 138 95
f 39 159 81
f 21 122 52
f 14 107 109
f 13 103 105
f 15 104 111
f 16 110 114
f 17 113 117
f 21 118 125
f 31 154 152
f 26 141 137
f 38 162 158
f 39 121 123
f 27 142 143
f 22 129 127
f 28 130 135
f 29 144 147
f 30 146 150
f 31 151 153
f 26 131 140
f 38 136 138
f 39 161 159
f 21 126 122
f 14 44 107
f 13 43 103
f 15 45 104
f 16 46 110
f 17 47 113
f 21 52 118
f 31 70 154
f 26 99 141
f 38 95 162
f 39 81 121
f 27 59 142
f 22 58 129
f 28 60 130
f 29 61 144
f 30 62 146
f 31 65 151
f 26 57 131
f 38 77 136
f 39 86 161
f 21 88 126
f 17 98 116
f 14 68 108
f 13 48 106
f 15 78 112
f 16 93 115
f 18 69 119
f 35 101 156
f 42 97 139
f 40 82 160
f 19 50 120
f 30 89 149
f 27 64 132
f 22 53 128
f 28 74 145
f 29 84 148
f 32 90 155
f 23 63 133
f 24 55 134
f 37 76 157
f 41 87 124
f 35 72 109
f 18 49 105
f 19 79 111
f 40 96 114
f 42 102 117
f 34 91 125
f 33 67 152
f 25 56 137
f 36 75 158
f 20 83 123
f 32 66 143
f 23 54 127
f 24 73 135
f 37 85 147
f 41 92 150
f 34 71 153
f 33 100 140
f 25 94 138
f 36 80 159
f 20 51 122
f 17 116 107
f 14 108 103
f 13 106 104
f 15 112 110
f 16 115 113
f 18 119 118
f 35 156 154
f 42 139 141
f 40 160 162
f 19 120 121
f 30 149 142
f 27 132 129
f 22 128 130
f 28 145 144
f 29 148 146
f 32 155 151
f 23 133 131
f 24 134 136
f 37 157 161
f 41 124 126
f 107 44 47
f 103 43 44
f 104 45 43
f 110 46 45
f 113 47 46
f 118 52 49
f 154 70 72
f 141 99 102
f 162 95 96
f 121 81 79
f 142 59 62
f 129 58 59
f 130 60 58
f 144 61 60
f 146 62 61
f 151 65 66
f 131 57 54
f 136 77 73
f 161 86 85
f 126 88 92
f 116 98 101
f 108 68 69
f 106 48 50
f 112 78 82
f 115 93 97
f 119 69 71
f 156 101 100
f 139 97 94
f 160 82 80
f 120 50 51
f 149 89 90
f 132 64 63
f 128 53 55
f 145 74 76
f 148 84 87
f 155 90 91
f 133 63 67
f 134 55 56
f 157 76 75
f 124 87 83
f 109 72 68
f 105 49 48
f 111 79 78
f 114 96 93
f 117 102 98
f 125 91 88
f 152 67 65
f 137 56 57
f 158 75 77
f 123 83 86
f 143 66 64
f 127 54 53
f 135 73 74
f 147 85 84
f 150 92 89
f 153 71 70
f 140 100 99
f 138 94 95
f 159 80 81
f 122 51 52
f 107 116 109
f 103 108 105
f 104 106 111
f 110 112 114
f 113 115 117
f 118 119 125
f 154 156 152
f 141 139 137
f 162 160 158
f 121 120 123
f 142 149 143
f 129 132 127
f 130 128 135
f 144 145 147
f 146 148 150
f 151 155 153
f 131 133 140
f 136 134 138
f 161 157 159
f 126 124 122

