# https://github.com/mikedh/trimesh
v 2.68381030 3.50747583 1.50599826
v 2.36582594 4.79230303 1.47130184
v 2.98427172 3.58236346 1.52547788
v 2.66628734 4.86719066 1.49078145
v 2.81666465 4.22325561 1.53074236
v 2.53032279 4.15188700 1.51217812
v 2.85215438 4.09014751 1.49505880
v 2.56581252 4.01877866 1.47649466
v 2.50924620 4.86126682 1.46491206
v 2.50672389 4.86165290 1.50233392
v 2.84291038 3.51308459 1.50131941
v 2.84038806 3.51347091 1.53874126
v 2.52238414 4.14927641 1.48826301
v 2.67484831 3.54113694 1.52720360
v 2.67735795 3.54075256 1.48996857
v 2.69955341 3.48096530 1.49296078
v 2.69716153 3.48133142 1.52844600
v 2.37331999 4.75947230 1.49430274
v 2.37582987 4.75908793 1.45706777
v 2.36756067 4.82239413 1.45673583
v 2.36516878 4.82276002 1.49222107
v 2.82774405 4.22538522 1.50806022
v 2.97380440 3.61564956 1.54658557
v 2.97631428 3.61526519 1.50935059
v 2.98446548 3.55197747 1.51143227
v 2.98207360 3.55234359 1.54691749
v 2.67227632 4.83398493 1.51368476
v 2.67478596 4.83360055 1.47644974
v 2.65247274 4.89340631 1.47520732
v 2.65008085 4.89377218 1.51069256
v 2.67347218 4.18757469 1.52178031
v 2.65106365 4.86061383 1.51290202
v 2.96746023 3.58220203 1.54742522
v 2.37954058 4.79293855 1.49529856
v 2.69593717 3.51452699 1.52982173
v 2.70954048 4.05229636 1.48551500
v 2.65369710 4.86021073 1.47383158
v 2.97009368 3.58179870 1.50835480
v 2.38217404 4.79253546 1.45622812
v 2.69857062 3.51412367 1.49075131
v 2.50551220 4.87241202 1.47966118
v 2.84461623 3.50224987 1.51666201
v 2.67186688 3.54770553 1.50499665
v 2.67916901 3.51985540 1.52652983
v 2.68151985 3.51949542 1.49165322
v 2.69202803 3.48998078 1.49348952
v 2.68978788 3.49032380 1.52672714
v 2.37402381 4.75115164 1.47249794
v 2.36723178 4.78024923 1.49249320
v 2.36958263 4.77988949 1.45761664
v 2.36509887 4.81094989 1.45781707
v 2.36285848 4.81129339 1.49105464
v 2.97604441 3.62351943 1.52471721
v 2.98005164 3.59484801 1.54603670
v 2.98240249 3.59448803 1.51116016
v 2.98677579 3.56344434 1.51259867
v 2.98453539 3.56378761 1.54583627
v 2.67820134 4.82696553 1.49221844
v 2.66811442 4.85524232 1.51200010
v 2.67046526 4.85488210 1.47712350
v 2.65984639 4.88441369 1.47692620
v 2.65760623 4.88475672 1.51016382
v 2.96193205 3.65367209 1.54603852
v 2.67950246 4.79483941 1.51522156
v 2.80757989 4.22099777 1.53039723
v 2.66576204 4.82129640 1.51442511
v 2.96211827 3.62385827 1.54676160
v 2.66753547 3.58029593 1.52695214
v 2.38510587 4.72146302 1.49613521
v 2.53937492 4.15414965 1.51300893
v 2.38486539 4.75128520 1.49621395
v 2.68122185 3.55384683 1.52855045
v 2.96452839 3.65327447 1.50751813
v 2.68209880 4.79444155 1.47670120
v 2.84350838 4.08624318 1.49427238
v 2.66841241 4.82089066 1.47510288
v 2.96476887 3.62345229 1.50743938
v 2.67013181 3.57989831 1.48843176
v 2.38770221 4.72106563 1.45761480
v 2.57530365 4.01939504 1.47688408
v 2.38751600 4.75087945 1.45689172
v 2.68387222 3.55344109 1.48922823
v 2.37555541 4.82895835 1.45659164
v 2.64242142 4.89547299 1.47389314
v 2.63961689 4.88013680 1.47297616
v 2.38529171 4.81674812 1.45648768
v 2.50710303 4.86961622 1.46587211
v 2.37308093 4.82933713 1.49330185
v 2.63994695 4.89585177 1.51060335
v 2.63702361 4.88053382 1.51145068
v 2.38269844 4.81714513 1.49496221
v 2.50474038 4.86997813 1.50092361
v 2.70968732 3.47888572 1.49304999
v 2.97655333 3.54540011 1.51035151
v 2.96693583 3.55759236 1.50869113
v 2.71261065 3.49420368 1.49220266
v 2.84489389 3.50475935 1.50272972
v 2.70721284 3.47926475 1.52976018
v 2.97407886 3.54577915 1.54706169
v 2.96434256 3.55798938 1.54716565
v 2.71001738 3.49460069 1.53067718
v 2.84253124 3.50512127 1.53778123
v 2.66310021 3.57845204 1.52486177
v 2.66545382 3.57809149 1.48994554
v 2.38034907 4.72091806 1.49400979
v 2.38270268 4.72055797 1.45909345
v 2.68727943 3.50127389 1.52815284
v 2.52332599 4.15011824 1.51079809
v 2.68440258 3.52253511 1.52864673
v 2.68974892 3.50089572 1.49151539
v 2.55714820 4.02326338 1.47679104
v 2.68699405 3.52213844 1.49020309
v 2.69871907 3.47755871 1.50714181
v 2.69925599 3.49228334 1.49164008
v 2.71105708 3.47225023 1.49493617
v 2.69670526 3.49267396 1.52948204
v 2.70881410 3.47259369 1.52821163
v 2.36572543 4.80052468 1.49306684
v 2.37308403 4.78042941 1.49467762
v 2.36819493 4.80014652 1.45642945
v 2.37567526 4.78003250 1.45623401
v 2.36505632 4.82573473 1.47073463
v 2.37258959 4.81219101 1.45599629
v 2.37365054 4.83555396 1.45812050
v 2.37003887 4.81258187 1.49383824
v 2.37140758 4.83589718 1.49139598
v 2.96693158 3.65417975 1.54455986
v 2.96928520 3.65381943 1.50964355
v 2.68418045 4.79664600 1.51370780
v 2.68653406 4.79628544 1.47879157
v 2.98143934 3.57459098 1.54722389
v 2.82378597 4.22500538 1.53027760
v 2.97395901 3.59470499 1.54741933
v 2.98390884 3.57421281 1.51058649
v 2.85760818 4.09815077 1.49627054
v 2.97655024 3.59430807 1.50897572
v 2.98506404 3.54892829 1.52570618
v 2.97959540 3.56215586 1.50981508
v 2.97822669 3.53884031 1.51225736
v 2.97704467 3.56254649 1.54765705
v 2.97598373 3.53918376 1.54553282
v 2.65988534 4.87384200 1.51213793
v 2.66264022 4.85259929 1.51345022
v 2.66235484 4.87346383 1.47550048
v 2.66523169 4.85220238 1.47500661
v 2.65140152 4.89710431 1.48929905
v 2.65292901 4.88206354 1.47417130
v 2.64082016 4.90214380 1.47544170
v 2.65037828 4.88245438 1.51201324
v 2.63857719 4.90248749 1.50871715
v 2.65243947 4.81870490 1.51374739
v 2.94913311 3.61990340 1.54612072
v 2.39782479 4.75524395 1.49724015
v 2.69451843 3.55644268 1.52961346
v 2.51449963 4.82999253 1.50411173
v 2.83248780 3.54515030 1.53880856
v 2.65511584 4.81829480 1.47403988
v 2.95180948 3.61949354 1.50641319
v 2.40050116 4.75483433 1.45753260
v 2.69719480 3.55603259 1.48990594
v 2.51714647 4.82958696 1.46484480
v 2.83513463 3.54474495 1.49954161
f 1 47 44
f 1 44 43
f 1 43 45
f 1 45 46
f 1 46 47
f 2 49 52
f 6 72 70
f 12 102 99
f 11 96 95
f 8 79 81
f 4 62 59
f 4 59 58
f 4 58 60
f 4 60 61
f 4 61 62
f 5 66 65
f 3 54 57
f 7 73 77
f 9 85 86
f 10 92 88
f 12 101 98
f 6 69 68
f 2 50 48
f 8 82 78
f 11 97 93
f 6 71 69
f 12 100 101
f 11 94 97
f 8 80 82
f 2 51 50
f 10 90 89
f 5 63 64
f 3 55 53
f 7 76 74
f 9 87 84
f 10 91 90
f 5 67 63
f 3 56 55
f 7 75 76
f 9 83 87
f 6 68 72
f 2 48 49
f 8 78 79
f 11 93 96
f 12 98 102
f 10 88 91
f 5 65 67
f 3 57 56
f 7 77 75
f 9 86 83
f 5 64 66
f 3 53 54
f 7 74 73
f 9 84 85
f 10 89 92
f 6 70 71
f 12 99 100
f 11 95 94
f 8 81 80
f 2 52 51
f 35 109 116
f 18 105 108
f 19 111 106
f 40 114 112
f 42 117 115
f 34 125 119
f 33 152 156
f 25 137 139
f 36 158 160
f 20 123 120
f 32 143 149
f 23 127 132
f 24 135 128
f 37 147 145
f 41 150 148
f 34 153 155
f 33 140 133
f 25 138 134
f 36 159 157
f 20 122 124
f 17 107 47
f 14 103 44
f 13 104 43
f 15 110 45
f 16 113 46
f 18 118 49
f 35 154 72
f 42 141 102
f 40 162 96
f 19 121 79
f 30 142 62
f 27 129 59
f 22 130 58
f 28 144 60
f 29 146 61
f 32 151 66
f 23 131 54
f 24 136 73
f 37 161 85
f 41 126 92
f 35 116 101
f 18 108 69
f 19 106 50
f 40 112 82
f 42 115 97
f 34 119 71
f 33 156 100
f 25 139 94
f 36 160 80
f 20 120 51
f 32 149 90
f 23 132 63
f 24 128 55
f 37 145 76
f 41 148 87
f 34 155 91
f 33 133 67
f 25 134 56
f 36 157 75
f 20 124 83
f 14 109 68
f 13 105 48
f 15 111 78
f 16 114 93
f 17 117 98
f 21 125 88
f 31 152 65
f 26 137 57
f 38 158 77
f 39 123 86
f 27 143 64
f 22 127 53
f 28 135 74
f 29 147 84
f 30 150 89
f 31 153 70
f 26 140 99
f 38 138 95
f 39 159 81
f 21 122 52
f 14 107 109
f 13 103 105
f 15 104 111
f 16 110 114
f 17 113 117
f 21 118 125
f 31 154 152
f 26 141 137
f 38 162 158
f 39 121 123
f 27 142 143
f 22 129 127
f 28 130 135
f 29 144 147
f 30 146 150
f 31 151 153
f 26 131 140
f 38 136 138
f 39 161 159
f 21 126 122
f 14 44 107
f 13 43 103
f 15 45 104
f 16 46 110
f 17 47 113
f 21 52 118
f 31 70 154
f 26 99 141
f 38 95 162
f 39 81 121
f 27 59 142
f 22 58 129
f 28 60 130
f 29 61 144
f 30 62 146
f 31 65 151
f 26 57 131
f 38 77 136
f 39 86 161
f 21 88 126
f 17 98 116
f 14 68 108
f 13 48 106
f 15 78 112
f 16 93 115
f 18 69 119
f 35 101 156
f 42 97 139
f 40 82 160
f 19 50 120
f 30 89 149
f 27 64 132
f 22 53 128
f 28 74 145
f 29 84 148
f 32 90 155
f 23 63 133
f 24 55 134
f 37 76 157
f 41 87 124
f 35 72 109
f 18 49 105
f 19 79 111
f 40 96 114
f 42 102 117
f 34 91 125
f 33 67 152
f 25 56 137
f 36 75 158
f 20 83 123
f 32 66 143
f 23 54 127
f 24 73 135
f 37 85 147
f 41 92 150
f 34 71 153
f 33 100 140
f 25 94 138
f 36 80 159
f 20 51 122
f 17 116 107
f 14 108 103
f 13 106 104
f 15 112 110
f 16 115 113
f 18 119 118
f 35 156 154
f 42 139 141
f 40 160 162
f 19 120 121
f 30 149 142
f 27 132 129
f 22 128 130
f 28 145 144
f 29 148 146
f 32 155 151
f 23 133 131
f 24 134 136
f 37 157 161
f 41 124 126
f 107 44 47
f 103 43 44
f 104 45 43
f 110 46 45
f 113 47 46
f 118 52 49
f 154 70 72
f 141 99 102
f 162 95 96
f 121 81 79
f 142 59 62
f 129 58 59
f 130 60 58
f 144 61 60
f 146 62 61
f 151 65 66
f 131 57 54
f 136 77 73
f 161 86 85
f 126 88 92
f 116 98 101
f 108 68 69
f 106 48 50
f 112 78 82
f 115 93 97
f 119 69 71
f 156 101 100
f 139 97 94
f 160 82 80
f 120 50 51
f 149 89 90
f 132 64 63
f 128 53 55
f 145 74 76
f 148 84 87
f 155 90 91
f 133 63 67
f 134 55 56
f 157 76 75
f 124 87 83
f 109 72 68
f 105 49 48
f 111 79 78
f 114 96 93
f 117 102 98
f 125 91 88
f 152 67 65
f 137 56 57
f 158 75 77
f 123 83 86
f 143 66 64
f 127 54 53
f 135 73 74
f 147 85 84
f 150 92 89
f 153 71 70
f 140 100 99
f 138 94 95
f 159 80 81
f 122 51 52
f 107 116 109
f 103 108 105
f 104 106 111
f 110 112 114
f 113 115 117
f 118 119 125
f 154 156 152
f 141 139 137
f 162 160 158
f 121 120 123
f 142 149 143
f 129 132 127
f 130 128 135
f 144 145 147
f 146 148 150
f 151 155 153
f 131 133 140
f 136 134 138
f 161 157 159
f 126 124 122

