# https://github.com/mikedh/trimesh
v 4.47559496 4.29987723 2.45732390
v 4.15893891 5.50999434 2.43890735
v 4.78192460 4.38044474 2.48419804
v 4.46526854 5.59056184 2.46578138
v 4.61442186 4.98344317 2.49739695
v 4.32248736 4.90666192 2.47178572
v 4.65049286 4.85874033 2.46008591
v 4.35855835 4.78195908 2.43447480
v 4.30560587 5.58022425 2.43663709
v 4.30239854 5.57995331 2.47400754
v 4.63787608 4.31043594 2.45596194
v 4.63466874 4.31016500 2.49333238
v 4.31478930 4.90428086 2.44766853
v 4.46627857 4.33123216 2.47893866
v 4.46946940 4.33150145 2.44175483
v 4.49172245 4.27541035 2.44413885
v 4.48868123 4.27515386 2.47957518
v 4.16600987 5.47872413 2.46147518
v 4.16920119 5.47899342 2.42429134
v 4.16111661 5.53883782 2.42491090
v 4.15807539 5.53858133 2.46034737
v 4.62611361 4.98616155 2.47498079
v 4.77107342 4.41139584 2.50567813
v 4.77426474 4.41166513 2.46849429
v 4.78219922 4.35180793 2.46962211
v 4.77915800 4.35155144 2.50505857
v 4.47080522 5.55888781 2.48821464
v 4.47399605 5.55915710 2.45103082
v 4.45159338 5.61523539 2.45039418
v 4.44855216 5.61497890 2.48583064
v 4.46842734 4.94505017 2.48491104
v 4.44933873 5.58349461 2.48747362
v 4.76441377 4.37941965 2.50579836
v 4.17251218 5.51068679 2.46318789
v 4.48758722 4.30661182 2.48151251
v 4.50508652 4.81831463 2.44699167
v 4.45268740 5.58377744 2.44845697
v 4.76776243 4.37970247 2.46678158
v 4.17586085 5.51096961 2.42417112
v 4.49093589 4.30689465 2.44249586
v 4.30160770 5.59046632 2.45150480
v 4.63929521 4.29997609 2.47114464
v 4.46365363 4.33770174 2.45679183
v 4.47058014 4.31117591 2.47797633
v 4.47356931 4.31142796 2.44314772
v 4.48409115 4.28371792 2.44467469
v 4.48124260 4.28347804 2.47786653
v 4.16705456 5.47117040 2.43954178
v 4.15994606 5.49828080 2.45990998
v 4.16293523 5.49853285 2.42508137
v 4.15852760 5.52787599 2.42573990
v 4.15567906 5.52763564 2.45893189
v 4.77377184 4.41926556 2.48399833
v 4.77733938 4.39185641 2.50488811
v 4.78032856 4.39210846 2.47005950
v 4.78459555 4.36275362 2.47103758
v 4.78174702 4.36251327 2.50422958
v 4.47717279 5.55273421 2.46674827
v 4.46670530 5.57896129 2.48682163
v 4.46969447 5.57921335 2.45199315
v 4.45903201 5.60691122 2.45210295
v 4.45618347 5.60667134 2.48529478
v 4.75918452 4.44712041 2.50556298
v 4.47793491 5.52193133 2.48920563
v 4.60515522 4.98100993 2.49682830
v 4.46408426 5.54661785 2.48859900
v 4.75920269 4.41880811 2.50576291
v 4.45903845 4.36817950 2.47923129
v 4.17778837 5.44298996 2.46287399
v 4.33171204 4.90909180 2.47283934
v 4.17770180 5.47129665 2.46347470
v 4.47281974 4.34348692 2.48063874
v 4.76248625 4.44739930 2.46709550
v 4.48123617 5.52220976 2.45073820
v 4.64167254 4.85476468 2.45905580
v 4.46745486 5.54690234 2.44933074
v 4.76257282 4.41909261 2.46649478
v 4.46233970 4.36845792 2.44076385
v 4.18109009 5.44326885 2.42440650
v 4.36822937 4.78284656 2.43506685
v 4.18107192 5.47158115 2.42420657
v 4.47619036 4.34377142 2.44137060
v 4.16930317 5.54533211 2.42504438
v 4.44138142 5.61689111 2.44891359
v 4.43845627 5.60225229 2.44766908
v 4.17916423 5.53405605 2.42492153
v 4.30344925 5.58806781 2.43770126
v 4.16615708 5.54506685 2.46170410
v 4.43823533 5.61662586 2.48557330
v 4.43515905 5.60197447 2.48609078
v 4.17586652 5.53377822 2.46334311
v 4.30044518 5.58781457 2.47270456
v 4.50203929 4.27376340 2.44439618
v 4.77411754 4.34532241 2.46826539
v 4.76440808 4.35661103 2.46662636
v 4.50511557 4.28841480 2.44387882
v 4.63982943 4.30257469 2.45726492
v 4.49889320 4.27349815 2.48105589
v 4.77097145 4.34505715 2.50492510
v 4.76111039 4.35633321 2.50504795
v 4.50181834 4.28813697 2.48230040
v 4.63682536 4.30232145 2.49226822
v 4.45454337 4.36631574 2.47701916
v 4.45753578 4.36656792 2.44215085
v 4.17297320 5.44234989 2.46064308
v 4.17596561 5.44260257 2.42577485
v 4.47872019 4.29377205 2.47943470
v 4.31536955 4.90477590 2.47023319
v 4.47589291 4.31385888 2.48024608
v 4.48186010 4.29403696 2.44284769
v 4.34974597 4.78593184 2.43467511
v 4.47918809 4.31413680 2.44185530
v 4.49061204 4.27193852 2.45824000
v 4.49150257 4.28616642 2.44301240
v 4.50336789 4.26747969 2.44619247
v 4.48825916 4.28589302 2.48080227
v 4.50051606 4.26723903 2.47942214
v 4.15850908 5.51747429 2.46081135
v 4.16587485 5.49860902 2.46221546
v 4.16164948 5.51773921 2.42422433
v 4.16917003 5.49888695 2.42382479
v 4.15834326 5.54172062 2.43891538
v 4.16620087 5.52932440 2.42409291
v 4.16737077 5.55150968 2.42665101
v 4.16295746 5.52905100 2.46188279
v 4.16451894 5.55126949 2.45988065
v 4.76430900 4.44778669 2.50419463
v 4.76730140 4.44803937 2.46932640
v 4.48273883 5.52382133 2.48781851
v 4.48573123 5.52407352 2.45295033
v 4.77862513 4.37265005 2.50574516
v 4.62169774 4.98534292 2.49710717
v 4.77110458 4.39150231 2.50614468
v 4.78176553 4.37291496 2.46915812
v 4.65607416 4.86649886 2.46154910
v 4.77439977 4.39178023 2.46775402
v 4.78254990 4.34872076 2.48385154
v 4.77731716 4.36133826 2.46808670
v 4.77575567 4.33911976 2.47008883
v 4.77407373 4.36106485 2.50587657
v 4.77290385 4.33887958 2.50331846
v 4.45841451 5.59635230 2.48712180
v 4.46108652 5.57625246 2.48811418
v 4.46155443 5.59661721 2.45053477
v 4.46438171 5.57653038 2.44972339
v 4.45028111 5.61850286 2.46452691
v 4.45201546 5.60449624 2.44916720
v 4.43975855 5.62315023 2.45054733
v 4.44877204 5.60422285 2.48695720
v 4.43690673 5.62290958 2.48377712
v 4.45050220 5.54373495 2.48760621
v 4.74595634 4.41464129 2.50478976
v 4.19091497 5.47546109 2.46483274
v 4.48636911 4.34636743 2.48201630
v 4.31012469 5.55011850 2.47538281
v 4.62678453 4.33998705 2.49379958
v 4.45390550 5.54402183 2.44795318
v 4.74935965 4.41492816 2.46513673
v 4.19431827 5.47574797 2.42517973
v 4.48977242 4.34665431 2.44236327
v 4.31349008 5.55040221 2.43616990
v 4.63014993 4.34027076 2.45458667
f 1 47 44
f 1 44 43
f 1 43 45
f 1 45 46
f 1 46 47
f 2 49 52
f 6 72 70
f 12 102 99
f 11 96 95
f 8 79 81
f 4 62 59
f 4 59 58
f 4 58 60
f 4 60 61
f 4 61 62
f 5 66 65
f 3 54 57
f 7 73 77
f 9 85 86
f 10 92 88
f 12 101 98
f 6 69 68
f 2 50 48
f 8 82 78
f 11 97 93
f 6 71 69
f 12 100 101
f 11 94 97
f 8 80 82
f 2 51 50
f 10 90 89
f 5 63 64
f 3 55 53
f 7 76 74
f 9 87 84
f 10 91 90
f 5 67 63
f 3 56 55
f 7 75 76
f 9 83 87
f 6 68 72
f 2 48 49
f 8 78 79
f 11 93 96
f 12 98 102
f 10 88 91
f 5 65 67
f 3 57 56
f 7 77 75
f 9 86 83
f 5 64 66
f 3 53 54
f 7 74 73
f 9 84 85
f 10 89 92
f 6 70 71
f 12 99 100
f 11 95 94
f 8 81 80
f 2 52 51
f 35 109 116
f 18 105 108
f 19 111 106
f 40 114 112
f 42 117 115
f 34 125 119
f 33 152 156
f 25 137 139
f 36 158 160
f 20 123 120
f 32 143 149
f 23 127 132
f 24 135 128
f 37 147 145
f 41 150 148
f 34 153 155
f 33 140 133
f 25 138 134
f 36 159 157
f 20 122 124
f 17 107 47
f 14 103 44
f 13 104 43
f 15 110 45
f 16 113 46
f 18 118 49
f 35 154 72
f 42 141 102
f 40 162 96
f 19 121 79
f 30 142 62
f 27 129 59
f 22 130 58
f 28 144 60
f 29 146 61
f 32 151 66
f 23 131 54
f 24 136 73
f 37 161 85
f 41 126 92
f 35 116 101
f 18 108 69
f 19 106 50
f 40 112 82
f 42 115 97
f 34 119 71
f 33 156 100
f 25 139 94
f 36 160 80
f 20 120 51
f 32 149 90
f 23 132 63
f 24 128 55
f 37 145 76
f 41 148 87
f 34 155 91
f 33 133 67
f 25 134 56
f 36 157 75
f 20 124 83
f 14 109 68
f 13 105 48
f 15 111 78
f 16 114 93
f 17 117 98
f 21 125 88
f 31 152 65
f 26 137 57
f 38 158 77
f 39 123 86
f 27 143 64
f 22 127 53
f 28 135 74
f 29 147 84
f 30 150 89
f 31 153 70
f 26 140 99
f 38 138 95
f 39 159 81
f 21 122 52
f 14 107 109
f 13 103 105
f 15 104 111
f 16 110 114
f 17 113 117
f 21 118 125
f 31 154 152
f 26 141 137
f 38 162 158
f 39 121 123
f 27 142 143
f 22 129 127
f 28 130 135
f 29 144 147
f 30 146 150
f 31 151 153
f 26 131 140
f 38 136 138
f 39 161 159
f 21 126 122
f 14 44 107
f 13 43 103
f 15 45 104
f 16 46 110
f 17 47 113
f 21 52 118
f 31 70 154
f 26 99 141
f 38 95 162
f 39 81 121
f 27 59 142
f 22 58 129
f 28 60 130
f 29 61 144
f 30 62 146
f 31 65 151
f 26 57 131
f 38 77 136
f 39 86 161
f 21 88 126
f 17 98 116
f 14 68 108
f 13 48 106
f 15 78 112
f 16 93 115
f 18 69 119
f 35 101 156
f 42 97 139
f 40 82 160
f 19 50 120
f 30 89 149
f 27 64 132
f 22 53 128
f 28 74 145
f 29 84 148
f 32 90 155
f 23 63 133
f 24 55 134
f 37 76 157
f 41 87 124
f 35 72 109
f 18 49 105
f 19 79 111
f 40 96 114
f 42 102 117
f 34 91 125
f 33 67 152
f 25 56 137
f 36 75 158
f 20 83 123
f 32 66 143
f 23 54 127
f 24 73 135
f 37 85 147
f 41 92 150
f 34 71 153
f 33 100 140
f 25 94 138
f 36 80 159
f 20 51 122
f 17 116 107
f 14 108 103
f 13 106 104
f 15 112 110
f 16 115 113
f 18 119 118
f 35 156 154
f 42 139 141
f 40 160 162
f 19 120 121
f 30 149 142
f 27 132 129
f 22 128 130
f 28 145 144
f 29 148 146
f 32 155 151
f 23 133 131
f 24 134 136
f 37 157 161
f 41 124 126
f 107 44 47
f 103 43 44
f 104 45 43
f 110 46 45
f 113 47 46
f 118 52 49
f 154 70 72
f 141 99 102
f 162 95 96
f 121 81 79
f 142 59 62
f 129 58 59
f 130 60 58
f 144 61 60
f 146 62 61
f 151 65 66
f 131 57 54
f 136 77 73
f 161 86 85
f 126 88 92
f 116 98 101
f 108 68 69
f 106 48 50
f 112 78 82
f 115 93 97
f 119 69 71
f 156 101 100
f 139 97 94
f 160 82 80
f 120 50 51
f 149 89 90
f 132 64 63
f 128 53 55
f 145 74 76
f 148 84 87
f 155 90 91
f 133 63 67
f 134 55 56
f 157 76 75
f 124 87 83
f 109 72 68
f 105 49 48
f 111 79 78
f 114 96 93
f 117 102 98
f 125 91 88
f 152 67 65
f 137 56 57
f 158 75 77
f 123 83 86
f 143 66 64
f 127 54 53
f 135 73 74
f 147 85 84
f 150 92 89
f 153 71 70
f 140 100 99
f 138 94 95
f 159 80 81
f 122 51 52
f 107 116 109
f 103 108 105
f 104 106 111
f 110 112 114
f 113 115 117
f 118 119 125
f 154 156 152
f 141 139 137
f 162 160 158
f 121 120 123
f 142 149 143
f 129 132 127
f 130 128 135
f 144 145 147
f 146 148 150
f 151 155 153
f 131 133 140
f 136 134 138
f 161 157 159
f 126 124 122

