# https://github.com/mikedh/trimesh
v 5.05930519 4.48859689 2.67873883
v 4.78427693 5.54935901 2.64009422
v 5.04700433 4.48996507 2.80382511
v 4.77197607 5.55072720 2.76518051
v 4.88750911 5.01446225 2.77943772
v 4.89923184 5.01315878 2.66022958
v 4.95382028 4.91486144 2.78704770
v 4.96554302 4.91355797 2.66783957
v 4.78609005 5.58007038 2.70309207
v 4.74996637 5.57057862 2.69964358
v 5.07467979 4.46700205 2.74364225
v 5.03855609 4.45751029 2.74019376
v 4.92211138 5.01902466 2.65841774
v 5.03086829 4.51045469 2.67601983
v 5.06681206 4.51989918 2.67945113
v 5.07885420 4.46889548 2.68414508
v 5.04460008 4.45989521 2.68087503
v 4.77007338 5.51632091 2.63937494
v 4.80601667 5.52576492 2.64280629
v 4.79171024 5.57638849 2.64379785
v 4.75745564 5.56738822 2.64052780
v 4.90961057 5.02041514 2.78554338
v 5.01862947 4.51181575 2.80047954
v 5.05457276 4.52125976 2.80391088
v 5.06719051 4.47019244 2.80275803
v 5.03293591 4.46119217 2.79948798
v 4.75783409 5.51768150 2.76383470
v 4.79377785 5.52712598 2.76726600
v 4.78004607 5.57768546 2.76241080
v 4.74579195 5.56868519 2.75914075
v 4.89306135 5.01372949 2.71980409
v 4.75108010 5.54218621 2.75713623
v 5.02473519 4.48672084 2.79558817
v 4.76219621 5.54094995 2.64409729
v 5.03585081 4.48548455 2.68254900
v 4.96045387 4.91250432 2.72753816
v 4.78879533 5.55209612 2.76073683
v 5.06244993 4.49663072 2.79918853
v 4.79991096 5.55085982 2.64769766
v 5.07356606 4.49539446 2.68614960
v 4.76921358 5.58532730 2.70137488
v 5.06250839 4.45411205 2.74258650
v 5.05046110 4.52212774 2.67672129
v 5.03654761 4.49338766 2.67635995
v 5.07021459 4.50223329 2.67957401
v 5.07578127 4.47703383 2.68168655
v 5.04369627 4.46860386 2.67862361
v 4.79285288 5.51570137 2.64052433
v 4.76674967 5.53397744 2.63845006
v 4.80041619 5.54282356 2.64166409
v 4.79301640 5.56763540 2.64195468
v 4.76093188 5.55920495 2.63889176
v 5.03800824 4.52351240 2.80335487
v 5.02422996 4.49475711 2.80162174
v 5.05789647 4.50360322 2.80483576
v 5.06371427 4.47837572 2.80439407
v 5.03162974 4.46994527 2.80133115
v 4.78040002 5.51708602 2.76715768
v 4.75443155 5.53534737 2.76371182
v 4.78809853 5.54419300 2.76692588
v 4.78094988 5.56897681 2.76466222
v 4.74886488 5.56054684 2.76159928
v 5.00984285 4.54349780 2.79831053
v 4.76556645 5.48565295 2.76398683
v 4.88764589 5.01435957 2.77563994
v 4.75943335 5.50874949 2.76029350
v 5.01575521 4.52013629 2.79630972
v 5.02189561 4.54215768 2.67574921
v 4.77761874 5.48431284 2.64142552
v 4.89862611 5.01313833 2.66398240
v 4.77093309 5.50747093 2.64335221
v 5.02725495 4.51885775 2.67936867
v 5.04702740 4.55326783 2.80186031
v 4.80275053 5.49542299 2.76753661
v 4.95477762 4.91352668 2.78334403
v 4.79739119 5.51872292 2.76391716
v 5.05371307 4.53010973 2.79993362
v 5.05907970 4.55192771 2.67929900
v 4.81480330 5.49408287 2.64497530
v 4.96575782 4.91230545 2.67168648
v 4.80889093 5.51744438 2.64697611
v 5.06521280 4.52883118 2.68299232
v 4.79100704 5.58015317 2.64748068
v 4.78008164 5.58136811 2.75858093
v 4.78413630 5.57019910 2.75646577
v 4.79454814 5.56904169 2.65058641
v 4.78316135 5.58665323 2.70273208
v 4.75557003 5.57084215 2.64409777
v 4.74464462 5.57205659 2.75519782
v 4.74699625 5.56044087 2.75292007
v 4.75740808 5.55928300 2.64704097
v 4.74932545 5.57776279 2.69950201
v 5.08000152 4.46552408 2.68808801
v 5.06907612 4.46673852 2.79918806
v 5.06723806 4.47829767 2.79624485
v 5.07764990 4.47713979 2.69036576
v 5.07532069 4.45981787 2.74378382
v 5.04456451 4.45621256 2.68470490
v 5.03363910 4.45742750 2.79580515
v 5.03009801 4.46853899 2.79269942
v 5.04050984 4.46738156 2.68682006
v 5.04148480 4.45092744 2.74055375
v 5.02396695 4.54205661 2.67397094
v 5.05767221 4.55091304 2.67718836
v 4.77941250 5.48528455 2.63960795
v 4.81311777 5.49414053 2.64282565
v 5.03971889 4.47713915 2.67826266
v 4.90041143 5.01336037 2.65737565
v 5.03432674 4.49399287 2.67851568
v 5.07508556 4.48643195 2.68163888
v 4.96360729 4.91843913 2.66462821
v 5.07143665 4.50374369 2.68205848
v 5.06595979 4.46252180 2.68264549
v 5.07759501 4.47808872 2.68488184
v 5.07976577 4.45962565 2.68806539
v 5.04106554 4.46849058 2.68139466
v 5.04764488 4.45118583 2.68499895
v 4.76160309 5.54980937 2.63918395
v 4.76506355 5.53251910 2.64068095
v 4.79696976 5.55910217 2.64256017
v 4.80217395 5.54226944 2.64422378
v 4.77737147 5.57558488 2.64209545
v 4.79505742 5.56781354 2.64518195
v 4.78793905 5.58517831 2.64706032
v 4.75852796 5.55821540 2.64169477
v 4.75581815 5.57673850 2.64399387
v 5.01152839 4.54344014 2.80046018
v 5.04523364 4.55229611 2.80367788
v 4.76697393 5.48666762 2.76609747
v 4.80067919 5.49552405 2.76931488
v 5.02767638 4.47847850 2.80072566
v 4.88811056 5.01472851 2.78246146
v 5.02247220 4.49531123 2.79906205
v 5.06304305 4.48777130 2.80410188
v 4.95130642 4.91980680 2.78971406
v 5.05958259 4.50506157 2.80260488
v 5.05423709 4.46382538 2.80185505
v 5.06611820 4.47936527 2.80159106
v 5.06882800 4.46084217 2.79929196
v 5.02958872 4.46976713 2.79810388
v 5.03670709 4.45240236 2.79622551
v 4.74956059 5.55114872 2.76164695
v 4.75320949 5.53383697 2.76122735
v 4.78492726 5.56044152 2.76502316
v 4.79031941 5.54358780 2.76477014
v 4.76564877 5.57688847 2.76130502
v 4.78358061 5.56909009 2.76189117
v 4.77700126 5.58639484 2.75828688
v 4.74705113 5.55949195 2.75840399
v 4.74488037 5.57795502 2.75522044
v 4.75963946 5.50920359 2.75478444
v 5.01625315 4.51946514 2.79084190
v 4.77006287 5.50804458 2.64878477
v 5.02667656 4.51830611 2.68484199
v 4.75585491 5.54419779 2.70051113
v 5.03088651 4.48342325 2.73915616
v 4.79796959 5.51927456 2.75844384
v 5.05458327 4.52953608 2.79450106
v 4.80839300 5.51811553 2.65244393
v 5.06500669 4.52837707 2.68850139
v 4.79375965 5.55415741 2.70412967
v 5.06879123 4.49338288 2.74277470
f 1 47 44
f 1 44 43
f 1 43 45
f 1 45 46
f 1 46 47
f 2 49 52
f 6 72 70
f 12 102 99
f 11 96 95
f 8 79 81
f 4 62 59
f 4 59 58
f 4 58 60
f 4 60 61
f 4 61 62
f 5 66 65
f 3 54 57
f 7 73 77
f 9 85 86
f 10 92 88
f 12 101 98
f 6 69 68
f 2 50 48
f 8 82 78
f 11 97 93
f 6 71 69
f 12 100 101
f 11 94 97
f 8 80 82
f 2 51 50
f 10 90 89
f 5 63 64
f 3 55 53
f 7 76 74
f 9 87 84
f 10 91 90
f 5 67 63
f 3 56 55
f 7 75 76
f 9 83 87
f 6 68 72
f 2 48 49
f 8 78 79
f 11 93 96
f 12 98 102
f 10 88 91
f 5 65 67
f 3 57 56
f 7 77 75
f 9 86 83
f 5 64 66
f 3 53 54
f 7 74 73
f 9 84 85
f 10 89 92
f 6 70 71
f 12 99 100
f 11 95 94
f 8 81 80
f 2 52 51
f 35 109 116
f 18 105 108
f 19 111 106
f 40 114 112
f 42 117 115
f 34 125 119
f 33 152 156
f 25 137 139
f 36 158 160
f 20 123 120
f 32 143 149
f 23 127 132
f 24 135 128
f 37 147 145
f 41 150 148
f 34 153 155
f 33 140 133
f 25 138 134
f 36 159 157
f 20 122 124
f 17 107 47
f 14 103 44
f 13 104 43
f 15 110 45
f 16 113 46
f 18 118 49
f 35 154 72
f 42 141 102
f 40 162 96
f 19 121 79
f 30 142 62
f 27 129 59
f 22 130 58
f 28 144 60
f 29 146 61
f 32 151 66
f 23 131 54
f 24 136 73
f 37 161 85
f 41 126 92
f 35 116 101
f 18 108 69
f 19 106 50
f 40 112 82
f 42 115 97
f 34 119 71
f 33 156 100
f 25 139 94
f 36 160 80
f 20 120 51
f 32 149 90
f 23 132 63
f 24 128 55
f 37 145 76
f 41 148 87
f 34 155 91
f 33 133 67
f 25 134 56
f 36 157 75
f 20 124 83
f 14 109 68
f 13 105 48
f 15 111 78
f 16 114 93
f 17 117 98
f 21 125 88
f 31 152 65
f 26 137 57
f 38 158 77
f 39 123 86
f 27 143 64
f 22 127 53
f 28 135 74
f 29 147 84
f 30 150 89
f 31 153 70
f 26 140 99
f 38 138 95
f 39 159 81
f 21 122 52
f 14 107 109
f 13 103 105
f 15 104 111
f 16 110 114
f 17 113 117
f 21 118 125
f 31 154 152
f 26 141 137
f 38 162 158
f 39 121 123
f 27 142 143
f 22 129 127
f 28 130 135
f 29 144 147
f 30 146 150
f 31 151 153
f 26 131 140
f 38 136 138
f 39 161 159
f 21 126 122
f 14 44 107
f 13 43 103
f 15 45 104
f 16 46 110
f 17 47 113
f 21 52 118
f 31 70 154
f 26 99 141
f 38 95 162
f 39 81 121
f 27 59 142
f 22 58 129
f 28 60 130
f 29 61 144
f 30 62 146
f 31 65 151
f 26 57 131
f 38 77 136
f 39 86 161
f 21 88 126
f 17 98 116
f 14 68 108
f 13 48 106
f 15 78 112
f 16 93 115
f 18 69 119
f 35 101 156
f 42 97 139
f 40 82 160
f 19 50 120
f 30 89 149
f 27 64 132
f 22 53 128
f 28 74 145
f 29 84 148
f 32 90 155
f 23 63 133
f 24 55 134
f 37 76 157
f 41 87 124
f 35 72 109
f 18 49 105
f 19 79 111
f 40 96 114
f 42 102 117
f 34 91 125
f 33 67 152
f 25 56 137
f 36 75 158
f 20 83 123
f 32 66 143
f 23 54 127
f 24 73 135
f 37 85 147
f 41 92 150
f 34 71 153
f 33 100 140
f 25 94 138
f 36 80 159
f 20 51 122
f 17 116 107
f 14 108 103
f 13 106 104
f 15 112 110
f 16 115 113
f 18 119 118
f 35 156 154
f 42 139 141
f 40 160 162
f 19 120 121
f 30 149 142
f 27 132 129
f 22 128 130
f 28 145 144
f 29 148 146
f 32 155 151
f 23 133 131
f 24 134 136
f 37 157 161
f 41 124 126
f 107 44 47
f 103 43 44
f 104 45 43
f 110 46 45
f 113 47 46
f 118 52 49
f 154 70 72
f 141 99 102
f 162 95 96
f 121 81 79
f 142 59 62
f 129 58 59
f 130 60 58
f 144 61 60
f 146 62 61
f 151 65 66
f 131 57 54
f 136 77 73
f 161 86 85
f 126 88 92
f 116 98 101
f 108 68 69
f 106 48 50
f 112 78 82
f 115 93 97
f 119 69 71
f 156 101 100
f 139 97 94
f 160 82 80
f 120 50 51
f 149 89 90
f 132 64 63
f 128 53 55
f 145 74 76
f 148 84 87
f 155 90 91
f 133 63 67
f 134 55 56
f 157 76 75
f 124 87 83
f 109 72 68
f 105 49 48
f 111 79 78
f 114 96 93
f 117 102 98
f 125 91 88
f 152 67 65
f 137 56 57
f 158 75 77
f 123 83 86
f 143 66 64
f 127 54 53
f 135 73 74
f 147 85 84
f 150 92 89
f 153 71 70
f 140 100 99
f 138 94 95
f 159 80 81
f 122 51 52
f 107 116 109
f 103 108 105
f 104 106 111
f 110 112 114
f 113 115 117
f 118 119 125
f 154 156 152
f 141 139 137
f 162 160 158
f 121 120 123
f 142 149 143
f 129 132 127
f 130 128 135
f 144 145 147
f 146 148 150
f 151 155 153
f 131 133 140
f 136 134 138
f 161 157 159
f 126 124 122

