# https://github.com/mikedh/trimesh
v 1.90832906 4.00049510 1.18198799
v 2.11432098 3.24336755 1.18525878
v 1.89343481 3.99593227 1.06378060
v 2.09942663 3.23880472 1.06705140
v 1.97465558 3.61146917 1.07121312
v 1.98884993 3.61581760 1.18386559
v 1.99103798 3.69989227 1.06573567
v 2.00523233 3.70424094 1.17838815
v 2.12660086 3.22639588 1.12423653
v 2.09071214 3.21665270 1.12913464
v 1.91045147 4.02085754 1.12080445
v 1.87456300 4.01111437 1.12570254
v 2.01166532 3.62202813 1.18455711
v 1.89247127 3.97515055 1.18466321
v 1.92818069 3.98484503 1.17978961
v 1.91712599 4.02077902 1.17698479
v 1.88309467 4.01154004 1.18162941
v 2.08780282 3.25720532 1.18776475
v 2.12351200 3.26689979 1.18289110
v 2.13219248 3.23029687 1.18039968
v 2.09816117 3.22105813 1.18504430
v 1.99652825 3.61739069 1.06442253
v 1.87765163 3.97061045 1.06704798
v 1.91336104 3.98030493 1.06217432
v 1.90300258 4.01645235 1.06489476
v 1.86897125 4.00721337 1.06953939
v 2.07298316 3.25266522 1.07014950
v 2.10869235 3.26235969 1.06527588
v 2.11806907 3.22597021 1.06830966
v 2.08403775 3.21673123 1.07295429
v 1.98144582 3.61356000 1.12758123
v 2.07759879 3.23493362 1.07574242
v 1.87263557 3.98828084 1.07248798
v 2.09105862 3.23905716 1.18256499
v 1.88609539 3.99240438 1.17931053
v 1.99809528 3.70342488 1.12201451
v 2.11506835 3.24510587 1.07062855
v 1.91010512 3.99845309 1.06737408
v 2.12852817 3.24922940 1.17745110
v 1.92356494 4.00257663 1.17419666
v 2.11393337 3.21600212 1.12623383
v 1.89426009 4.02341671 1.12274580
v 1.91473619 3.97648854 1.18285107
v 1.89027834 3.98786444 1.18483430
v 1.92372601 3.99694492 1.18026932
v 1.91793205 4.01453279 1.17909270
v 1.88605631 4.00587909 1.18344309
v 2.10768043 3.26731729 1.18591470
v 2.09235285 3.24513484 1.18804289
v 2.12580040 3.25421510 1.18347796
v 2.12971832 3.23610708 1.18245550
v 2.09784258 3.22745362 1.18680589
v 1.89965769 3.97186907 1.06318168
v 1.87536322 3.98329515 1.06646112
v 1.90881076 3.99237540 1.06189620
v 1.90332103 4.01005662 1.06313319
v 1.87144529 4.00140315 1.06748359
v 2.09260205 3.26269804 1.06624529
v 2.07743786 3.24056532 1.06966976
v 2.11088539 3.24964581 1.06510478
v 2.11510742 3.23163116 1.06649599
v 2.08323168 3.22297745 1.07084641
v 1.88333437 3.94774070 1.06812726
v 2.06629374 3.27526964 1.07103233
v 1.97487228 3.61154356 1.07481260
v 2.07075472 3.25868800 1.07381201
v 1.87877366 3.96431877 1.07076368
v 1.89792799 3.95221145 1.18394862
v 2.08088735 3.27974039 1.18685373
v 1.98816751 3.61561664 1.18032968
v 2.08467905 3.26295377 1.18432224
v 1.89269799 3.96858454 1.18127391
v 1.92027651 3.95776985 1.06308534
v 2.10323587 3.28529878 1.06599043
v 1.99145721 3.70106050 1.06926740
v 2.10846563 3.26892570 1.06866518
v 1.91648470 3.97455648 1.06561684
v 1.93487013 3.96224060 1.17890674
v 2.11782948 3.28976953 1.18181182
v 2.00475257 3.70513357 1.17478448
v 2.12239019 3.27319147 1.17917540
v 1.93040902 3.97882225 1.17612710
v 2.13302550 3.22777252 1.17678067
v 2.11979655 3.22371976 1.07179035
v 2.11874669 3.23215561 1.07410676
v 2.13135386 3.23601785 1.17416329
v 2.12680081 3.22117409 1.12441290
v 2.09781949 3.21821472 1.18158562
v 2.08459054 3.21416197 1.07659531
v 2.08184856 3.22213842 1.07914265
v 2.09445597 3.22600089 1.17919913
v 2.09318539 3.21204836 1.12900072
v 1.91657319 4.02334828 1.17334374
v 1.90334424 4.01929551 1.06835345
v 1.90670789 4.01150936 1.07073993
v 1.91931518 4.01537183 1.17079642
v 1.90797823 4.02546189 1.12093836
v 1.88136707 4.01379048 1.17814873
v 1.86813824 4.00973771 1.07315841
v 1.86980975 4.00149239 1.07577579
v 1.88241704 4.00535464 1.17583233
v 1.87436280 4.01633615 1.12552618
v 1.89978594 3.95313507 1.18556702
v 1.93327153 3.96222589 1.18099690
v 2.08295360 3.27989857 1.18847540
v 2.11643919 3.28898915 1.18390528
v 1.88615261 3.99903292 1.18357767
v 1.99008445 3.61616505 1.18652202
v 1.88848761 3.98657747 1.18284290
v 1.92128883 4.00857164 1.17878226
v 2.00569718 3.70043393 1.18130193
v 1.92535603 3.99658663 1.17781108
v 1.90306340 4.01909745 1.17910840
v 1.91986794 4.01471014 1.17595846
v 1.91387305 4.02680194 1.17361146
v 1.88357652 4.00485763 1.18091156
v 1.88196104 4.01813836 1.17796684
v 2.09445687 3.23340566 1.18688518
v 2.09016127 3.24532113 1.18604513
v 2.12959320 3.24294463 1.18208975
v 2.12702967 3.25533005 1.18101332
v 2.11921172 3.22463936 1.18254043
v 2.13148399 3.23690999 1.17931857
v 2.13244664 3.22342928 1.17708205
v 2.09519270 3.22705748 1.18427164
v 2.10053476 3.21476569 1.18143743
v 1.88472455 3.94852109 1.06603380
v 1.91821026 3.95761168 1.06146367
v 2.06789221 3.27528435 1.06894219
v 2.10137780 3.28437518 1.06437203
v 1.87157066 3.99456561 1.06784933
v 1.97519022 3.61160203 1.06831519
v 1.87413394 3.98218020 1.06892576
v 1.90670688 4.00410458 1.06305390
v 1.99080307 3.69587115 1.06309508
v 1.91100236 3.99218912 1.06389395
v 1.88886890 4.01474891 1.06645459
v 1.90597116 4.01045276 1.06566743
v 1.90062910 4.02274431 1.06850166
v 1.86967963 4.00060025 1.07062051
v 1.86871710 4.01408097 1.07285702
v 2.07987503 3.22893860 1.07115682
v 2.07580759 3.24092362 1.07212801
v 2.11501113 3.23847733 1.06636142
v 2.11267600 3.25093278 1.06709617
v 2.10501722 3.22029059 1.06988667
v 2.11758722 3.23265261 1.06902754
v 2.11920282 3.21937189 1.07197224
v 2.08129593 3.22280010 1.07398062
v 2.08729070 3.21070830 1.07632763
v 2.07133047 3.25843575 1.07900886
v 1.87913094 3.96486976 1.07595708
v 2.08395212 3.26230240 1.17917927
v 1.89175260 3.96873640 1.17612746
v 2.08474990 3.23507519 1.12917475
v 1.87875572 3.99221159 1.12590393
v 2.10941114 3.26877384 1.07381160
v 1.91721162 3.97520783 1.07075980
v 2.12203280 3.27264049 1.17398200
v 1.92983316 3.97907449 1.17093021
v 2.12240802 3.24529866 1.12403515
v 1.91641384 4.00243506 1.12076433
f 1 47 44
f 1 44 43
f 1 43 45
f 1 45 46
f 1 46 47
f 2 49 52
f 6 72 70
f 12 102 99
f 11 96 95
f 8 79 81
f 4 62 59
f 4 59 58
f 4 58 60
f 4 60 61
f 4 61 62
f 5 66 65
f 3 54 57
f 7 73 77
f 9 85 86
f 10 92 88
f 12 101 98
f 6 69 68
f 2 50 48
f 8 82 78
f 11 97 93
f 6 71 69
f 12 100 101
f 11 94 97
f 8 80 82
f 2 51 50
f 10 90 89
f 5 63 64
f 3 55 53
f 7 76 74
f 9 87 84
f 10 91 90
f 5 67 63
f 3 56 55
f 7 75 76
f 9 83 87
f 6 68 72
f 2 48 49
f 8 78 79
f 11 93 96
f 12 98 102
f 10 88 91
f 5 65 67
f 3 57 56
f 7 77 75
f 9 86 83
f 5 64 66
f 3 53 54
f 7 74 73
f 9 84 85
f 10 89 92
f 6 70 71
f 12 99 100
f 11 95 94
f 8 81 80
f 2 52 51
f 35 109 116
f 18 105 108
f 19 111 106
f 40 114 112
f 42 117 115
f 34 125 119
f 33 152 156
f 25 137 139
f 36 158 160
f 20 123 120
f 32 143 149
f 23 127 132
f 24 135 128
f 37 147 145
f 41 150 148
f 34 153 155
f 33 140 133
f 25 138 134
f 36 159 157
f 20 122 124
f 17 107 47
f 14 103 44
f 13 104 43
f 15 110 45
f 16 113 46
f 18 118 49
f 35 154 72
f 42 141 102
f 40 162 96
f 19 121 79
f 30 142 62
f 27 129 59
f 22 130 58
f 28 144 60
f 29 146 61
f 32 151 66
f 23 131 54
f 24 136 73
f 37 161 85
f 41 126 92
f 35 116 101
f 18 108 69
f 19 106 50
f 40 112 82
f 42 115 97
f 34 119 71
f 33 156 100
f 25 139 94
f 36 160 80
f 20 120 51
f 32 149 90
f 23 132 63
f 24 128 55
f 37 145 76
f 41 148 87
f 34 155 91
f 33 133 67
f 25 134 56
f 36 157 75
f 20 124 83
f 14 109 68
f 13 105 48
f 15 111 78
f 16 114 93
f 17 117 98
f 21 125 88
f 31 152 65
f 26 137 57
f 38 158 77
f 39 123 86
f 27 143 64
f 22 127 53
f 28 135 74
f 29 147 84
f 30 150 89
f 31 153 70
f 26 140 99
f 38 138 95
f 39 159 81
f 21 122 52
f 14 107 109
f 13 103 105
f 15 104 111
f 16 110 114
f 17 113 117
f 21 118 125
f 31 154 152
f 26 141 137
f 38 162 158
f 39 121 123
f 27 142 143
f 22 129 127
f 28 130 135
f 29 144 147
f 30 146 150
f 31 151 153
f 26 131 140
f 38 136 138
f 39 161 159
f 21 126 122
f 14 44 107
f 13 43 103
f 15 45 104
f 16 46 110
f 17 47 113
f 21 52 118
f 31 70 154
f 26 99 141
f 38 95 162
f 39 81 121
f 27 59 142
f 22 58 129
f 28 60 130
f 29 61 144
f 30 62 146
f 31 65 151
f 26 57 131
f 38 77 136
f 39 86 161
f 21 88 126
f 17 98 116
f 14 68 108
f 13 48 106
f 15 78 112
f 16 93 115
f 18 69 119
f 35 101 156
f 42 97 139
f 40 82 160
f 19 50 120
f 30 89 149
f 27 64 132
f 22 53 128
f 28 74 145
f 29 84 148
f 32 90 155
f 23 63 133
f 24 55 134
f 37 76 157
f 41 87 124
f 35 72 109
f 18 49 105
f 19 79 111
f 40 96 114
f 42 102 117
f 34 91 125
f 33 67 152
f 25 56 137
f 36 75 158
f 20 83 123
f 32 66 143
f 23 54 127
f 24 73 135
f 37 85 147
f 41 92 150
f 34 71 153
f 33 100 140
f 25 94 138
f 36 80 159
f 20 51 122
f 17 116 107
f 14 108 103
f 13 106 104
f 15 112 110
f 16 115 113
f 18 119 118
f 35 156 154
f 42 139 141
f 40 160 162
f 19 120 121
f 30 149 142
f 27 132 129
f 22 128 130
f 28 145 144
f 29 148 146
f 32 155 151
f 23 133 131
f 24 134 136
f 37 157 161
f 41 124 126
f 107 44 47
f 103 43 44
f 104 45 43
f 110 46 45
f 113 47 46
f 118 52 49
f 154 70 72
f 141 99 102
f 162 95 96
f 121 81 79
f 142 59 62
f 129 58 59
f 130 60 58
f 144 61 60
f 146 62 61
f 151 65 66
f 131 57 54
f 136 77 73
f 161 86 85
f 126 88 92
f 116 98 101
f 108 68 69
f 106 48 50
f 112 78 82
f 115 93 97
f 119 69 71
f 156 101 100
f 139 97 94
f 160 82 80
f 120 50 51
f 149 89 90
f 132 64 63
f 128 53 55
f 145 74 76
f 148 84 87
f 155 90 91
f 133 63 67
f 134 55 56
f 157 76 75
f 124 87 83
f 109 72 68
f 105 49 48
f 111 79 78
f 114 96 93
f 117 102 98
f 125 91 88
f 152 67 65
f 137 56 57
f 158 75 77
f 123 83 86
f 143 66 64
f 127 54 53
f 135 73 74
f 147 85 84
f 150 92 89
f 153 71 70
f 140 100 99
f 138 94 95
f 159 80 81
f 122 51 52
f 107 116 109
f 103 108 105
f 104 106 111
f 110 112 114
f 113 115 117
f 118 119 125
f 154 156 152
f 141 139 137
f 162 160 158
f 121 120 123
f 142 149 143
f 129 132 127
f 130 128 135
f 144 145 147
f 146 148 150
f 151 155 153
f 131 133 140
f 136 134 138
f 161 157 159
f 126 124 122

