# https://github.com/mikedh/trimesh
v 0.98339329 2.69770298 0.64775218
v 0.65790511 3.96648835 0.62615886
v 1.25344138 2.76694691 0.64580967
v 0.92795314 4.03573227 0.62421636
v 1.08441339 3.40012180 0.65817890
v 0.82705573 3.33413187 0.66003012
v 1.11792689 3.26837896 0.62105715
v 0.86056923 3.20238926 0.62290836
v 0.78486358 4.03212140 0.60934808
v 0.78496313 4.03278523 0.64685082
v 1.12640160 2.70077211 0.63200616
v 1.12650122 2.70143595 0.66950892
v 0.81844726 3.33152717 0.63674259
v 0.97570611 2.73109846 0.66929054
v 0.97560707 2.73043803 0.63197503
v 0.99751238 2.67129364 0.63384080
v 0.99760682 2.67192309 0.66940274
v 0.66706238 3.93422214 0.64881474
v 0.66696335 3.93356170 0.61149922
v 0.65768518 3.99597389 0.61129623
v 0.65777962 3.99660335 0.64685816
v 1.09289795 3.40189980 0.63476844
v 1.24440145 2.79999541 0.66735778
v 1.24430241 2.79933497 0.63004227
v 1.25358506 2.73695400 0.63199883
v 1.25367961 2.73758345 0.66756076
v 0.93575766 4.00311931 0.64688195
v 0.93565863 4.00245865 0.60956647
v 0.91375786 4.06163425 0.60945426
v 0.91385230 4.06226371 0.64501619
v 0.95573548 3.36713244 0.65942531
v 0.91582237 4.02963760 0.64738549
v 1.23968539 2.76718755 0.66887098
v 0.67178326 3.96706263 0.64914092
v 0.99564633 2.70461281 0.67062638
v 0.98979537 3.23324186 0.62169833
v 0.91571841 4.02894453 0.60823061
v 1.23958148 2.76649448 0.62971610
v 0.67167935 3.96636956 0.60998603
v 0.99554235 2.70391974 0.63147150
v 0.78211946 4.04324125 0.62424175
v 1.12922582 2.69018620 0.64726924
v 0.97141569 2.73746127 0.64729846
v 0.98016469 2.71008883 0.66846842
v 0.98007189 2.70947016 0.63351647
v 0.99050390 2.68028211 0.63482691
v 0.99059235 2.68087185 0.66813637
v 0.66654390 3.92588168 0.62707289
v 0.66086616 3.95474596 0.64728577
v 0.66077330 3.95412753 0.61233379
v 0.65585977 3.98475819 0.61262619
v 0.65594810 3.98534769 0.64593567
v 1.24480378 2.80756133 0.64533197
v 1.25059143 2.77942958 0.66652322
v 1.25049858 2.77881114 0.63157124
v 1.25541664 2.74820918 0.63292135
v 1.25550496 2.74879891 0.66623082
v 0.93993192 3.99598198 0.62510636
v 0.93129284 4.02408695 0.64534054
v 0.93120005 4.02346805 0.61038860
v 0.92077239 4.05268550 0.61072062
v 0.92086084 4.05327500 0.64403010
v 1.23257939 2.83758386 0.66736815
v 0.94348493 3.96450267 0.64818926
v 1.07626354 3.39803617 0.65848090
v 0.93029161 3.99073826 0.64816182
v 1.23364140 2.80825112 0.66828640
v 0.96798227 2.76973764 0.66927143
v 0.67888774 3.89665668 0.65009253
v 0.83520692 3.33622622 0.66021483
v 0.67782795 3.92600366 0.64997780
v 0.98117774 2.74351605 0.67010241
v 1.23247705 2.83690042 0.62876448
v 0.94338247 3.96381947 0.60958557
v 1.11019163 3.26466403 0.62090000
v 0.93018700 3.99004106 0.60875460
v 1.23353685 2.80755345 0.62887922
v 0.96787980 2.76905443 0.63066775
v 0.67878528 3.89597325 0.61148886
v 0.86913496 3.20285410 0.62263396
v 0.67772334 3.92530599 0.61057061
v 0.98107313 2.74281861 0.63069520
v 0.66469843 4.00231036 0.61055144
v 0.90455165 4.06381171 0.60882615
v 0.90240056 4.04875883 0.60821395
v 0.67381867 3.99014733 0.60985817
v 0.78275459 4.04037549 0.61039569
v 0.66479610 4.00296152 0.64734101
v 0.90464933 4.06446288 0.64561573
v 0.90250287 4.04944097 0.64677167
v 0.67392099 3.99082993 0.64841587
v 0.78284787 4.04099709 0.64552303
v 1.00671541 2.66909423 0.63324127
v 1.24656869 2.73059558 0.63151600
v 1.23744374 2.74272717 0.63044115
v 1.00886187 2.68411591 0.63208535
v 1.12851687 2.69256002 0.63333399
v 1.00681308 2.66974540 0.67003086
v 1.24666637 2.73124675 0.66830557
v 1.23754606 2.74340978 0.66899884
v 1.00896418 2.68479827 0.67064307
v 1.12861009 2.69318162 0.66846132
v 0.96390212 2.76797718 0.66750688
v 0.96380922 2.76735769 0.63251514
v 0.67447850 3.89617878 0.64830616
v 0.67438566 3.89555952 0.61331441
v 0.98810993 2.69169338 0.66965553
v 0.82070876 3.33248865 0.65915135
v 0.98494272 2.71265985 0.67019820
v 0.98801248 2.69104357 0.63293892
v 0.85264773 3.20693559 0.62377361
v 0.98484045 2.71197807 0.63167146
v 0.99776069 2.66804780 0.64806904
v 0.99683822 2.68242569 0.63246426
v 1.00825942 2.66255681 0.63507454
v 0.99693891 2.68309700 0.67038803
v 1.00834792 2.66314698 0.66842194
v 0.65896773 3.97472216 0.64781983
v 0.66627746 3.95484840 0.64905754
v 0.65887033 3.97407211 0.61110323
v 0.66617525 3.95416663 0.61053080
v 0.65622415 3.99939111 0.62541106
v 0.66246294 3.98585381 0.61028137
v 0.66289057 4.00883843 0.61216236
v 0.66256363 3.98652488 0.64820515
v 0.66297908 4.00942907 0.64550971
v 1.23697907 2.83799759 0.66554260
v 1.23688624 2.83737834 0.63055085
v 0.94755551 3.96619941 0.64634187
v 0.94746261 3.96557993 0.61135014
v 1.25249441 2.75948500 0.66775378
v 1.09075560 3.40173210 0.65720887
v 1.24518949 2.77939048 0.66832621
v 1.25239701 2.75883494 0.63103718
v 1.12269457 3.27617905 0.62183114
v 1.24508728 2.77870871 0.62979947
v 1.25512146 2.73403822 0.64621782
v 1.24880111 2.74703223 0.63065187
v 1.24838566 2.72412828 0.63334728
v 1.24890180 2.74770354 0.66857562
v 1.24847417 2.72471844 0.66669466
v 0.92335226 4.04251354 0.64591809
v 0.92652428 4.02157903 0.64718554
v 0.92325480 4.04186349 0.60920150
v 0.92642202 4.02089703 0.60865884
v 0.91358486 4.06538152 0.62355986
v 0.91442583 4.05046011 0.60846899
v 0.90301681 4.07040990 0.61043510
v 0.91452652 4.05113118 0.64639277
v 0.90310532 4.07100054 0.64378245
v 0.91830862 3.98838644 0.64842841
v 1.22200373 2.80455297 0.66857592
v 0.68946666 3.92970839 0.65007450
v 0.99316170 2.74587493 0.67022200
v 0.79298857 4.00152703 0.64830764
v 1.11848060 2.73272686 0.66990119
v 0.91820303 3.98768194 0.60863502
v 1.22189807 2.80384872 0.62878251
v 0.68936101 3.92900414 0.61028109
v 0.99305612 2.74517067 0.63042861
v 0.79288414 4.00083048 0.60895580
v 1.11837610 2.73203030 0.63054936
f 1 47 44
f 1 44 43
f 1 43 45
f 1 45 46
f 1 46 47
f 2 49 52
f 6 72 70
f 12 102 99
f 11 96 95
f 8 79 81
f 4 62 59
f 4 59 58
f 4 58 60
f 4 60 61
f 4 61 62
f 5 66 65
f 3 54 57
f 7 73 77
f 9 85 86
f 10 92 88
f 12 101 98
f 6 69 68
f 2 50 48
f 8 82 78
f 11 97 93
f 6 71 69
f 12 100 101
f 11 94 97
f 8 80 82
f 2 51 50
f 10 90 89
f 5 63 64
f 3 55 53
f 7 76 74
f 9 87 84
f 10 91 90
f 5 67 63
f 3 56 55
f 7 75 76
f 9 83 87
f 6 68 72
f 2 48 49
f 8 78 79
f 11 93 96
f 12 98 102
f 10 88 91
f 5 65 67
f 3 57 56
f 7 77 75
f 9 86 83
f 5 64 66
f 3 53 54
f 7 74 73
f 9 84 85
f 10 89 92
f 6 70 71
f 12 99 100
f 11 95 94
f 8 81 80
f 2 52 51
f 35 109 116
f 18 105 108
f 19 111 106
f 40 114 112
f 42 117 115
f 34 125 119
f 33 152 156
f 25 137 139
f 36 158 160
f 20 123 120
f 32 143 149
f 23 127 132
f 24 135 128
f 37 147 145
f 41 150 148
f 34 153 155
f 33 140 133
f 25 138 134
f 36 159 157
f 20 122 124
f 17 107 47
f 14 103 44
f 13 104 43
f 15 110 45
f 16 113 46
f 18 118 49
f 35 154 72
f 42 141 102
f 40 162 96
f 19 121 79
f 30 142 62
f 27 129 59
f 22 130 58
f 28 144 60
f 29 146 61
f 32 151 66
f 23 131 54
f 24 136 73
f 37 161 85
f 41 126 92
f 35 116 101
f 18 108 69
f 19 106 50
f 40 112 82
f 42 115 97
f 34 119 71
f 33 156 100
f 25 139 94
f 36 160 80
f 20 120 51
f 32 149 90
f 23 132 63
f 24 128 55
f 37 145 76
f 41 148 87
f 34 155 91
f 33 133 67
f 25 134 56
f 36 157 75
f 20 124 83
f 14 109 68
f 13 105 48
f 15 111 78
f 16 114 93
f 17 117 98
f 21 125 88
f 31 152 65
f 26 137 57
f 38 158 77
f 39 123 86
f 27 143 64
f 22 127 53
f 28 135 74
f 29 147 84
f 30 150 89
f 31 153 70
f 26 140 99
f 38 138 95
f 39 159 81
f 21 122 52
f 14 107 109
f 13 103 105
f 15 104 111
f 16 110 114
f 17 113 117
f 21 118 125
f 31 154 152
f 26 141 137
f 38 162 158
f 39 121 123
f 27 142 143
f 22 129 127
f 28 130 135
f 29 144 147
f 30 146 150
f 31 151 153
f 26 131 140
f 38 136 138
f 39 161 159
f 21 126 122
f 14 44 107
f 13 43 103
f 15 45 104
f 16 46 110
f 17 47 113
f 21 52 118
f 31 70 154
f 26 99 141
f 38 95 162
f 39 81 121
f 27 59 142
f 22 58 129
f 28 60 130
f 29 61 144
f 30 62 146
f 31 65 151
f 26 57 131
f 38 77 136
f 39 86 161
f 21 88 126
f 17 98 116
f 14 68 108
f 13 48 106
f 15 78 112
f 16 93 115
f 18 69 119
f 35 101 156
f 42 97 139
f 40 82 160
f 19 50 120
f 30 89 149
f 27 64 132
f 22 53 128
f 28 74 145
f 29 84 148
f 32 90 155
f 23 63 133
f 24 55 134
f 37 76 157
f 41 87 124
f 35 72 109
f 18 49 105
f 19 79 111
f 40 96 114
f 42 102 117
f 34 91 125
f 33 67 152
f 25 56 137
f 36 75 158
f 20 83 123
f 32 66 143
f 23 54 127
f 24 73 135
f 37 85 147
f 41 92 150
f 34 71 153
f 33 100 140
f 25 94 138
f 36 80 159
f 20 51 122
f 17 116 107
f 14 108 103
f 13 106 104
f 15 112 110
f 16 115 113
f 18 119 118
f 35 156 154
f 42 139 141
f 40 160 162
f 19 120 121
f 30 149 142
f 27 132 129
f 22 128 130
f 28 145 144
f 29 148 146
f 32 155 151
f 23 133 131
f 24 134 136
f 37 157 161
f 41 124 126
f 107 44 47
f 103 43 44
f 104 45 43
f 110 46 45
f 113 47 46
f 118 52 49
f 154 70 72
f 141 99 102
f 162 95 96
f 121 81 79
f 142 59 62
f 129 58 59
f 130 60 58
f 144 61 60
f 146 62 61
f 151 65 66
f 131 57 54
f 136 77 73
f 161 86 85
f 126 88 92
f 116 98 101
f 108 68 69
f 106 48 50
f 112 78 82
f 115 93 97
f 119 69 71
f 156 101 100
f 139 97 94
f 160 82 80
f 120 50 51
f 149 89 90
f 132 64 63
f 128 53 55
f 145 74 76
f 148 84 87
f 155 90 91
f 133 63 67
f 134 55 56
f 157 76 75
f 124 87 83
f 109 72 68
f 105 49 48
f 111 79 78
f 114 96 93
f 117 102 98
f 125 91 88
f 152 67 65
f 137 56 57
f 158 75 77
f 123 83 86
f 143 66 64
f 127 54 53
f 135 73 74
f 147 85 84
f 150 92 89
f 153 71 70
f 140 100 99
f 138 94 95
f 159 80 81
f 122 51 52
f 107 116 109
f 103 108 105
f 104 106 111
f 110 112 114
f 113 115 117
f 118 119 125
f 154 156 152
f 141 139 137
f 162 160 158
f 121 120 123
f 142 149 143
f 129 132 127
f 130 128 135
f 144 145 147
f 146 148 150
f 151 155 153
f 131 133 140
f 136 134 138
f 161 157 159
f 126 124 122

