# https://github.com/mikedh/trimesh
v 0.67619050 3.87529458 0.61462070
v 0.97968514 2.70579661 0.63339732
v 0.67612062 3.87347193 0.50223429
v 0.97961531 2.70397419 0.52101088
v 0.80548685 3.28295913 0.51437136
v 0.80555346 3.28469603 0.62147640
v 0.81223724 3.41363405 0.51224804
v 0.81230379 3.41537096 0.61935310
v 1.00195177 2.67989592 0.57759548
v 0.96564528 2.67047701 0.57777078
v 0.68349175 3.90706172 0.55789300
v 0.64718526 3.89764280 0.55806832
v 0.82815986 3.29061795 0.62492408
v 0.66264648 3.83947736 0.61492839
v 0.69877168 3.84884949 0.61475395
v 0.68338302 3.90460857 0.61123201
v 0.64895547 3.89567700 0.61139825
v 0.95043486 2.73050275 0.63273328
v 0.98656005 2.73987464 0.63255885
v 1.00024784 2.68358986 0.63083580
v 0.96582022 2.67465829 0.63100204
v 0.82808882 3.28876586 0.51070535
v 0.66257698 3.83766409 0.50310494
v 0.69870218 3.84703599 0.50293050
v 0.68331682 3.90288044 0.50466175
v 0.64888927 3.89394887 0.50482798
v 0.95036535 2.72868924 0.52090983
v 0.98649056 2.73806137 0.52073539
v 1.00018158 2.68186173 0.52426554
v 0.96575402 2.67293016 0.52443178
v 0.80520963 3.28374703 0.56792537
v 0.95657365 2.70119971 0.52648372
v 0.65459438 3.86485807 0.50780088
v 0.95663677 2.70284673 0.62804596
v 0.65465749 3.86650509 0.60936310
v 0.81206998 3.41655229 0.56576746
v 0.99447955 2.71103365 0.52630069
v 0.69250027 3.87469201 0.50761784
v 0.99454265 2.71268067 0.62786292
v 0.69256338 3.87633902 0.60918006
v 0.98995035 2.66610527 0.57782658
v 0.66629833 3.91327830 0.55780289
v 0.68559140 3.83821311 0.61591140
v 0.65882339 3.85892187 0.61497581
v 0.69266037 3.86770022 0.61481243
v 0.68471027 3.89504426 0.61322624
v 0.65246333 3.88667831 0.61338196
v 0.96986271 2.74279118 0.63349869
v 0.95654663 2.71166361 0.63339538
v 0.99038361 2.72044197 0.63323199
v 0.99674219 2.69264836 0.63253105
v 0.96449530 2.68428241 0.63268676
v 0.68552069 3.83636805 0.50213494
v 0.65875343 3.85709677 0.50243179
v 0.69259040 3.86587512 0.50226841
v 0.68464173 3.89325632 0.50297703
v 0.65239484 3.88489038 0.50313273
v 0.96979200 2.74094612 0.51972224
v 0.95647667 2.70983852 0.52085136
v 0.99031365 2.71861687 0.52068798
v 0.99667372 2.69086042 0.52228182
v 0.96442677 2.68249448 0.52243755
v 0.67106809 3.80239531 0.50452459
v 0.94062823 2.76366219 0.52120172
v 0.80525337 3.28295306 0.51776451
v 0.94688684 2.73799207 0.52413963
v 0.66403471 3.82794538 0.50664011
v 0.67113652 3.80418102 0.61464252
v 0.94069667 2.76544790 0.63131966
v 0.80531574 3.28457990 0.61808553
v 0.94695215 2.73969593 0.62920790
v 0.66410002 3.82964924 0.61170840
v 0.70844037 3.81209084 0.50434413
v 0.97800051 2.77335772 0.52102127
v 0.81208722 3.41524401 0.51561494
v 0.98503702 2.74788950 0.52395540
v 0.70218488 3.83784281 0.50645589
v 0.70850880 3.81387653 0.61446206
v 0.97806895 2.77514342 0.63113920
v 0.81214959 3.41687085 0.61593597
v 0.98510234 2.74959334 0.62902367
v 0.70225019 3.83954666 0.61152418
v 1.00186089 2.67975549 0.62752105
v 1.00179874 2.67813659 0.52770086
v 0.99940482 2.69092522 0.52984099
v 0.99946392 2.69246782 0.62497037
v 1.00277133 2.67200877 0.57772286
v 0.96624484 2.67051556 0.62769304
v 0.96618274 2.66889667 0.52787283
v 0.96207710 2.68124115 0.53002124
v 0.96213620 2.68278400 0.62515061
v 0.96876452 2.66318626 0.57788709
v 0.68295429 3.90864206 0.60779094
v 0.68289220 3.90702317 0.50797075
v 0.68700084 3.89475474 0.51051319
v 0.68705993 3.89629758 0.60564253
v 0.68037253 3.91435247 0.55777670
v 0.64733824 3.89940214 0.60796292
v 0.64727621 3.89778325 0.50814274
v 0.64967306 3.88507092 0.51069342
v 0.64973222 3.88661352 0.60582279
v 0.64636571 3.90552996 0.55794093
v 0.67273260 3.80525449 0.61638911
v 0.70660812 3.81404287 0.61622553
v 0.94259952 2.76533883 0.63308523
v 0.97647509 2.77412720 0.63292166
v 0.65337918 3.87636404 0.61343874
v 0.80645003 3.28497109 0.62411250
v 0.65738698 3.85730070 0.61288416
v 0.68892454 3.88558559 0.61326711
v 0.81288322 3.40950658 0.62208896
v 0.69468474 3.86697688 0.61270406
v 0.66887127 3.90412565 0.61151696
v 0.68706751 3.89509679 0.61052855
v 0.67972540 3.91423227 0.60775914
v 0.65035352 3.88557215 0.61070582
v 0.64744177 3.90585702 0.60791500
v 0.96028090 2.69373743 0.63242613
v 0.95451962 2.71231819 0.63126717
v 0.99582632 2.70295897 0.63225449
v 0.99181740 2.72199438 0.63108707
v 0.98732987 2.67696534 0.63121936
v 0.99884877 2.69366723 0.62981784
v 1.00175741 2.67330214 0.62768261
v 0.96213472 2.68414235 0.62999513
v 0.96947372 2.66492687 0.62783849
v 0.67266194 3.80341153 0.50274212
v 0.70653752 3.81219991 0.50257856
v 0.94252893 2.76349587 0.51943825
v 0.97640444 2.77228424 0.51927468
v 0.65331078 3.87457976 0.50340930
v 0.80638016 3.28314849 0.51172661
v 0.65731965 3.85554436 0.50457672
v 0.68885613 3.88380131 0.50323765
v 0.81281336 3.40768397 0.50970306
v 0.69461742 3.86522054 0.50439662
v 0.66880469 3.90238887 0.50441064
v 0.68700232 3.89339638 0.50566866
v 0.67966332 3.91261186 0.50782531
v 0.65028833 3.88387150 0.50584595
v 0.64737969 3.90423660 0.50798119
v 0.96021249 2.69195314 0.52239670
v 0.95445229 2.71056184 0.52295974
v 0.99575786 2.70117469 0.52222506
v 0.99175007 2.72023804 0.52277964
v 0.98726329 2.67522833 0.52411303
v 0.99878358 2.69196658 0.52495797
v 1.00169522 2.67168171 0.52774877
v 0.96206952 2.68244195 0.52513522
v 0.96941164 2.66330646 0.52790465
v 0.94686394 2.73740304 0.52906580
v 0.66368982 3.82859696 0.51154637
v 0.94692319 2.73894745 0.62430344
v 0.66374906 3.83014137 0.60678401
v 0.95726934 2.69907190 0.57731228
v 0.65377115 3.86858349 0.55853546
v 0.98538798 2.74739736 0.52887979
v 0.70221384 3.83859128 0.51136035
v 0.98544721 2.74894178 0.62411742
v 0.70227309 3.84013569 0.60659799
v 0.99536594 2.70895524 0.57712833
v 0.69186770 3.87846684 0.55835150
f 1 47 44
f 1 44 43
f 1 43 45
f 1 45 46
f 1 46 47
f 2 49 52
f 6 72 70
f 12 102 99
f 11 96 95
f 8 79 81
f 4 62 59
f 4 59 58
f 4 58 60
f 4 60 61
f 4 61 62
f 5 66 65
f 3 54 57
f 7 73 77
f 9 85 86
f 10 92 88
f 12 101 98
f 6 69 68
f 2 50 48
f 8 82 78
f 11 97 93
f 6 71 69
f 12 100 101
f 11 94 97
f 8 80 82
f 2 51 50
f 10 90 89
f 5 63 64
f 3 55 53
f 7 76 74
f 9 87 84
f 10 91 90
f 5 67 63
f 3 56 55
f 7 75 76
f 9 83 87
f 6 68 72
f 2 48 49
f 8 78 79
f 11 93 96
f 12 98 102
f 10 88 91
f 5 65 67
f 3 57 56
f 7 77 75
f 9 86 83
f 5 64 66
f 3 53 54
f 7 74 73
f 9 84 85
f 10 89 92
f 6 70 71
f 12 99 100
f 11 95 94
f 8 81 80
f 2 52 51
f 35 109 116
f 18 105 108
f 19 111 106
f 40 114 112
f 42 117 115
f 34 125 119
f 33 152 156
f 25 137 139
f 36 158 160
f 20 123 120
f 32 143 149
f 23 127 132
f 24 135 128
f 37 147 145
f 41 150 148
f 34 153 155
f 33 140 133
f 25 138 134
f 36 159 157
f 20 122 124
f 17 107 47
f 14 103 44
f 13 104 43
f 15 110 45
f 16 113 46
f 18 118 49
f 35 154 72
f 42 141 102
f 40 162 96
f 19 121 79
f 30 142 62
f 27 129 59
f 22 130 58
f 28 144 60
f 29 146 61
f 32 151 66
f 23 131 54
f 24 136 73
f 37 161 85
f 41 126 92
f 35 116 101
f 18 108 69
f 19 106 50
f 40 112 82
f 42 115 97
f 34 119 71
f 33 156 100
f 25 139 94
f 36 160 80
f 20 120 51
f 32 149 90
f 23 132 63
f 24 128 55
f 37 145 76
f 41 148 87
f 34 155 91
f 33 133 67
f 25 134 56
f 36 157 75
f 20 124 83
f 14 109 68
f 13 105 48
f 15 111 78
f 16 114 93
f 17 117 98
f 21 125 88
f 31 152 65
f 26 137 57
f 38 158 77
f 39 123 86
f 27 143 64
f 22 127 53
f 28 135 74
f 29 147 84
f 30 150 89
f 31 153 70
f 26 140 99
f 38 138 95
f 39 159 81
f 21 122 52
f 14 107 109
f 13 103 105
f 15 104 111
f 16 110 114
f 17 113 117
f 21 118 125
f 31 154 152
f 26 141 137
f 38 162 158
f 39 121 123
f 27 142 143
f 22 129 127
f 28 130 135
f 29 144 147
f 30 146 150
f 31 151 153
f 26 131 140
f 38 136 138
f 39 161 159
f 21 126 122
f 14 44 107
f 13 43 103
f 15 45 104
f 16 46 110
f 17 47 113
f 21 52 118
f 31 70 154
f 26 99 141
f 38 95 162
f 39 81 121
f 27 59 142
f 22 58 129
f 28 60 130
f 29 61 144
f 30 62 146
f 31 65 151
f 26 57 131
f 38 77 136
f 39 86 161
f 21 88 126
f 17 98 116
f 14 68 108
f 13 48 106
f 15 78 112
f 16 93 115
f 18 69 119
f 35 101 156
f 42 97 139
f 40 82 160
f 19 50 120
f 30 89 149
f 27 64 132
f 22 53 128
f 28 74 145
f 29 84 148
f 32 90 155
f 23 63 133
f 24 55 134
f 37 76 157
f 41 87 124
f 35 72 109
f 18 49 105
f 19 79 111
f 40 96 114
f 42 102 117
f 34 91 125
f 33 67 152
f 25 56 137
f 36 75 158
f 20 83 123
f 32 66 143
f 23 54 127
f 24 73 135
f 37 85 147
f 41 92 150
f 34 71 153
f 33 100 140
f 25 94 138
f 36 80 159
f 20 51 122
f 17 116 107
f 14 108 103
f 13 106 104
f 15 112 110
f 16 115 113
f 18 119 118
f 35 156 154
f 42 139 141
f 40 160 162
f 19 120 121
f 30 149 142
f 27 132 129
f 22 128 130
f 28 145 144
f 29 148 146
f 32 155 151
f 23 133 131
f 24 134 136
f 37 157 161
f 41 124 126
f 107 44 47
f 103 43 44
f 104 45 43
f 110 46 45
f 113 47 46
f 118 52 49
f 154 70 72
f 141 99 102
f 162 95 96
f 121 81 79
f 142 59 62
f 129 58 59
f 130 60 58
f 144 61 60
f 146 62 61
f 151 65 66
f 131 57 54
f 136 77 73
f 161 86 85
f 126 88 92
f 116 98 101
f 108 68 69
f 106 48 50
f 112 78 82
f 115 93 97
f 119 69 71
f 156 101 100
f 139 97 94
f 160 82 80
f 120 50 51
f 149 89 90
f 132 64 63
f 128 53 55
f 145 74 76
f 148 84 87
f 155 90 91
f 133 63 67
f 134 55 56
f 157 76 75
f 124 87 83
f 109 72 68
f 105 49 48
f 111 79 78
f 114 96 93
f 117 102 98
f 125 91 88
f 152 67 65
f 137 56 57
f 158 75 77
f 123 83 86
f 143 66 64
f 127 54 53
f 135 73 74
f 147 85 84
f 150 92 89
f 153 71 70
f 140 100 99
f 138 94 95
f 159 80 81
f 122 51 52
f 107 116 109
f 103 108 105
f 104 106 111
f 110 112 114
f 113 115 117
f 118 119 125
f 154 156 152
f 141 139 137
f 162 160 158
f 121 120 123
f 142 149 143
f 129 132 127
f 130 128 135
f 144 145 147
f 146 148 150
f 151 155 153
f 131 133 140
f 136 134 138
f 161 157 159
f 126 124 122

