# https://github.com/mikedh/trimesh
v -0.24280770 3.64066069 0.36511409
v 0.11353641 3.76452403 2.18606557
v 0.38185275 3.95883167 0.22123114
v 0.73819683 4.08269501 2.04218274
v 0.55572424 3.99263207 1.13446204
v -0.03958158 3.68941268 1.27158344
v 0.50125747 4.01499566 0.94745034
v -0.09404839 3.71177651 1.08457174
v 0.42778221 3.94033869 2.15943407
v 0.44461408 3.90683392 2.15841922
v 0.05386672 3.81036765 0.24869119
v 0.07069859 3.77686287 0.24767634
v -0.06983042 3.70020294 1.27676891
v -0.22210278 3.62491698 0.41127391
v -0.23885061 3.65825436 0.41228364
v -0.24092789 3.65897361 0.32166900
v -0.22496709 3.62720288 0.32070663
v 0.11580002 3.74237019 2.13798881
v 0.09905221 3.77570758 2.13899854
v 0.13111452 3.78829345 2.22284035
v 0.14707532 3.75652273 2.22187812
v 0.56501419 4.02356140 1.13054021
v 0.39942861 3.94149397 0.26811181
v 0.38268078 3.97483160 0.26912152
v 0.35140549 3.96067859 0.18523225
v 0.36736630 3.92890810 0.18427000
v 0.73733140 4.05894719 1.99482671
v 0.72058358 4.09228458 1.99583645
v 0.72344789 4.08999868 2.08640372
v 0.73940869 4.05822794 2.08544136
v 0.25821530 3.84073569 1.20301407
v 0.71755850 4.04649636 2.04394246
v 0.36299369 3.92325173 0.23208321
v 0.15306052 3.75896927 2.17396765
v -0.20150428 3.63572442 0.36210842
v 0.20286052 3.86346394 1.01295342
v 0.69998509 4.08147713 2.04500193
v 0.34542027 3.95823228 0.23314270
v 0.13548713 3.79394982 2.17502714
v -0.21907770 3.67070520 0.36316790
v 0.43759772 3.92792728 2.17460188
v 0.05758606 3.79583729 0.23270712
v -0.23528738 3.64242090 0.42366743
v -0.23046809 3.62292525 0.38196293
v -0.24615515 3.65415115 0.38290875
v -0.24780931 3.65374590 0.33849179
v -0.23285945 3.62398762 0.33759044
v 0.09848593 3.75843878 2.12928006
v 0.11909956 3.74443329 2.16828620
v 0.10341251 3.77565895 2.16923202
v 0.11855874 3.78109364 2.21066670
v 0.13350860 3.75133512 2.20976537
v 0.39709906 3.96452701 0.27800499
v 0.39506829 3.94154260 0.23787833
v 0.37938123 3.97276826 0.23882416
v 0.36497218 3.96586668 0.19734502
v 0.37992205 3.93610792 0.19644371
v 0.73087239 4.08054488 1.98361750
v 0.74463592 4.06305041 2.02420160
v 0.72894887 4.09427631 2.02514742
v 0.73134027 4.09321393 2.06951985
v 0.74629007 4.06345565 2.06861851
v 0.40567911 3.94222414 0.32387047
v 0.72217944 4.05223787 1.94121662
v 0.53698013 3.98281170 1.13879809
v 0.71612977 4.04744357 1.98431398
v 0.38402277 3.93200494 0.28721624
v -0.20637267 3.63047546 0.46484906
v 0.11012768 3.74048919 2.08219521
v -0.02061901 3.69879829 1.26723424
v 0.13214464 3.74999042 2.11882775
v -0.19996234 3.63455204 0.42173011
v 0.38835314 3.97671236 0.32491515
v 0.70485347 4.08672634 1.94226127
v 0.48183966 4.00545203 0.94947335
v 0.69844311 4.08264953 1.98538030
v 0.36633618 3.96721114 0.28828254
v -0.22369864 3.66496368 0.46589373
v 0.09280168 3.77497742 2.08323988
v -0.07575945 3.72143863 1.07790951
v 0.11445802 3.78519662 2.11989405
v -0.21764900 3.66975800 0.42279643
v 0.15079671 3.79881340 2.22466164
v 0.70561212 4.08140882 2.09686663
v 0.68836172 4.07423185 2.08038574
v 0.15961859 3.80491628 2.20217518
v 0.43062760 3.94008138 2.17121816
v 0.16730850 3.76594602 2.22366606
v 0.72212393 4.04854145 2.09587107
v 0.70566713 4.03978462 2.07934226
v 0.17692396 3.77046908 2.20113193
v 0.44639333 3.90869890 2.17026758
v -0.22364314 3.66866011 0.31123928
v 0.33117230 3.95125577 0.18344427
v 0.32155684 3.94673248 0.20597848
v -0.20718630 3.67741692 0.32776804
v 0.05208745 3.80850267 0.23684277
v -0.20713133 3.63579273 0.31024372
v 0.34768411 3.91838816 0.18244872
v 0.33886221 3.91228526 0.20493512
v -0.18988095 3.64296971 0.32672467
v 0.06785319 3.77712017 0.23589219
v -0.21717086 3.62703068 0.46623649
v -0.23287574 3.65829207 0.46718338
v 0.09968975 3.73716969 2.08542358
v 0.08398486 3.76843108 2.08637059
v -0.22847229 3.62382364 0.35279420
v -0.05467239 3.68276348 1.27498890
v -0.21754543 3.62744592 0.38097423
v -0.24495133 3.65662603 0.35378780
v -0.10658023 3.70407640 1.09676331
v -0.23483685 3.66186556 0.38201670
v -0.23699496 3.64523293 0.31684731
v -0.23372025 3.66348697 0.33585654
v -0.22502124 3.66632413 0.30188948
v -0.21669945 3.62960618 0.33483030
v -0.21005437 3.63653179 0.30098709
v 0.13187217 3.74907735 2.19418786
v 0.13132892 3.74871297 2.16375439
v 0.11539312 3.78187976 2.19518158
v 0.11403746 3.78313236 2.16479688
v 0.13691886 3.77520328 2.22758155
v 0.13235339 3.79073232 2.20652705
v 0.15308818 3.79775278 2.23406365
v 0.14937423 3.75685152 2.20550079
v 0.16805505 3.76796044 2.23316124
v 0.41449591 3.94877048 0.32073982
v 0.39879104 3.98003163 0.32168674
v 0.73135652 4.05890948 1.93992691
v 0.71565169 4.09017088 1.94087392
v 0.38308767 3.93532181 0.21192883
v 0.56998530 4.00093307 1.13110662
v 0.38444334 3.93406919 0.24231354
v 0.36660863 3.96812419 0.21292243
v 0.51807746 4.02224601 0.95288106
v 0.36715188 3.96848883 0.24335600
v 0.35831784 3.94845554 0.17972435
v 0.34910659 3.96035028 0.20160954
v 0.33042574 3.94924088 0.17394913
v 0.36612739 3.92646924 0.20058331
v 0.34539261 3.91944877 0.17304670
v 0.74343213 4.06057553 2.05332261
v 0.73331765 4.05533599 2.02509360
v 0.72695308 4.09337791 2.05431609
v 0.71602622 4.08975562 2.02613606
v 0.73223167 4.07842612 2.09045853
v 0.71518024 4.08759538 2.07228005
v 0.70853519 4.08066976 2.10612320
v 0.73220105 4.05371459 2.07125381
v 0.72350206 4.05087743 2.10522081
v 0.68908538 4.03342110 1.99156743
v 0.35660037 3.91785130 0.29253794
v 0.15974041 3.76379921 2.11349559
v -0.17274464 3.64822918 0.41446614
v 0.43624543 3.90295479 2.11350924
v 0.07989714 3.77908997 0.29253633
v 0.67122547 4.06897238 1.99264421
v 0.33874040 3.95340235 0.29361476
v 0.14188044 3.79935026 2.11457241
v -0.19060462 3.68378045 0.41554292
v 0.41858367 3.93811160 2.11457408
v 0.06223537 3.81424677 0.29360117
f 1 47 44
f 1 44 43
f 1 43 45
f 1 45 46
f 1 46 47
f 2 49 52
f 6 72 70
f 12 102 99
f 11 96 95
f 8 79 81
f 4 62 59
f 4 59 58
f 4 58 60
f 4 60 61
f 4 61 62
f 5 66 65
f 3 54 57
f 7 73 77
f 9 85 86
f 10 92 88
f 12 101 98
f 6 69 68
f 2 50 48
f 8 82 78
f 11 97 93
f 6 71 69
f 12 100 101
f 11 94 97
f 8 80 82
f 2 51 50
f 10 90 89
f 5 63 64
f 3 55 53
f 7 76 74
f 9 87 84
f 10 91 90
f 5 67 63
f 3 56 55
f 7 75 76
f 9 83 87
f 6 68 72
f 2 48 49
f 8 78 79
f 11 93 96
f 12 98 102
f 10 88 91
f 5 65 67
f 3 57 56
f 7 77 75
f 9 86 83
f 5 64 66
f 3 53 54
f 7 74 73
f 9 84 85
f 10 89 92
f 6 70 71
f 12 99 100
f 11 95 94
f 8 81 80
f 2 52 51
f 35 109 116
f 18 105 108
f 19 111 106
f 40 114 112
f 42 117 115
f 34 125 119
f 33 152 156
f 25 137 139
f 36 158 160
f 20 123 120
f 32 143 149
f 23 127 132
f 24 135 128
f 37 147 145
f 41 150 148
f 34 153 155
f 33 140 133
f 25 138 134
f 36 159 157
f 20 122 124
f 17 107 47
f 14 103 44
f 13 104 43
f 15 110 45
f 16 113 46
f 18 118 49
f 35 154 72
f 42 141 102
f 40 162 96
f 19 121 79
f 30 142 62
f 27 129 59
f 22 130 58
f 28 144 60
f 29 146 61
f 32 151 66
f 23 131 54
f 24 136 73
f 37 161 85
f 41 126 92
f 35 116 101
f 18 108 69
f 19 106 50
f 40 112 82
f 42 115 97
f 34 119 71
f 33 156 100
f 25 139 94
f 36 160 80
f 20 120 51
f 32 149 90
f 23 132 63
f 24 128 55
f 37 145 76
f 41 148 87
f 34 155 91
f 33 133 67
f 25 134 56
f 36 157 75
f 20 124 83
f 14 109 68
f 13 105 48
f 15 111 78
f 16 114 93
f 17 117 98
f 21 125 88
f 31 152 65
f 26 137 57
f 38 158 77
f 39 123 86
f 27 143 64
f 22 127 53
f 28 135 74
f 29 147 84
f 30 150 89
f 31 153 70
f 26 140 99
f 38 138 95
f 39 159 81
f 21 122 52
f 14 107 109
f 13 103 105
f 15 104 111
f 16 110 114
f 17 113 117
f 21 118 125
f 31 154 152
f 26 141 137
f 38 162 158
f 39 121 123
f 27 142 143
f 22 129 127
f 28 130 135
f 29 144 147
f 30 146 150
f 31 151 153
f 26 131 140
f 38 136 138
f 39 161 159
f 21 126 122
f 14 44 107
f 13 43 103
f 15 45 104
f 16 46 110
f 17 47 113
f 21 52 118
f 31 70 154
f 26 99 141
f 38 95 162
f 39 81 121
f 27 59 142
f 22 58 129
f 28 60 130
f 29 61 144
f 30 62 146
f 31 65 151
f 26 57 131
f 38 77 136
f 39 86 161
f 21 88 126
f 17 98 116
f 14 68 108
f 13 48 106
f 15 78 112
f 16 93 115
f 18 69 119
f 35 101 156
f 42 97 139
f 40 82 160
f 19 50 120
f 30 89 149
f 27 64 132
f 22 53 128
f 28 74 145
f 29 84 148
f 32 90 155
f 23 63 133
f 24 55 134
f 37 76 157
f 41 87 124
f 35 72 109
f 18 49 105
f 19 79 111
f 40 96 114
f 42 102 117
f 34 91 125
f 33 67 152
f 25 56 137
f 36 75 158
f 20 83 123
f 32 66 143
f 23 54 127
f 24 73 135
f 37 85 147
f 41 92 150
f 34 71 153
f 33 100 140
f 25 94 138
f 36 80 159
f 20 51 122
f 17 116 107
f 14 108 103
f 13 106 104
f 15 112 110
f 16 115 113
f 18 119 118
f 35 156 154
f 42 139 141
f 40 160 162
f 19 120 121
f 30 149 142
f 27 132 129
f 22 128 130
f 28 145 144
f 29 148 146
f 32 155 151
f 23 133 131
f 24 134 136
f 37 157 161
f 41 124 126
f 107 44 47
f 103 43 44
f 104 45 43
f 110 46 45
f 113 47 46
f 118 52 49
f 154 70 72
f 141 99 102
f 162 95 96
f 121 81 79
f 142 59 62
f 129 58 59
f 130 60 58
f 144 61 60
f 146 62 61
f 151 65 66
f 131 57 54
f 136 77 73
f 161 86 85
f 126 88 92
f 116 98 101
f 108 68 69
f 106 48 50
f 112 78 82
f 115 93 97
f 119 69 71
f 156 101 100
f 139 97 94
f 160 82 80
f 120 50 51
f 149 89 90
f 132 64 63
f 128 53 55
f 145 74 76
f 148 84 87
f 155 90 91
f 133 63 67
f 134 55 56
f 157 76 75
f 124 87 83
f 109 72 68
f 105 49 48
f 111 79 78
f 114 96 93
f 117 102 98
f 125 91 88
f 152 67 65
f 137 56 57
f 158 75 77
f 123 83 86
f 143 66 64
f 127 54 53
f 135 73 74
f 147 85 84
f 150 92 89
f 153 71 70
f 140 100 99
f 138 94 95
f 159 80 81
f 122 51 52
f 107 116 109
f 103 108 105
f 104 106 111
f 110 112 114
f 113 115 117
f 118 119 125
f 154 156 152
f 141 139 137
f 162 160 158
f 121 120 123
f 142 149 143
f 129 132 127
f 130 128 135
f 144 145 147
f 146 148 150
f 151 155 153
f 131 133 140
f 136 134 138
f 161 157 159
f 126 124 122

