# https://github.com/mikedh/trimesh
v 0.96519281 4.17705837 1.51851505
v 0.73700101 4.08462868 1.53251741
v 0.99906100 4.16971723 2.02199330
v 0.77086920 4.07728752 2.03599559
v 0.89279705 4.10223926 2.01627161
v 0.86052045 4.10923570 1.53645325
v 0.90168086 4.14827053 2.01634512
v 0.86940426 4.15526649 1.53652685
v 0.74259692 4.09287115 1.78519286
v 0.75659171 4.05810098 1.78374455
v 0.98204086 4.18985839 1.77050007
v 0.99603564 4.15508823 1.76905175
v 0.85073549 4.13111562 1.52142080
v 0.96762074 4.15415682 1.51928481
v 0.95369584 4.18875322 1.52072597
v 0.96574552 4.19219666 1.53178813
v 0.97901609 4.15922570 1.53041474
v 0.75123824 4.06651048 1.53256253
v 0.73731329 4.10110687 1.53400370
v 0.72750098 4.09569504 1.54640739
v 0.74077155 4.06272407 1.54503395
v 0.88515584 4.12365464 2.03310756
v 1.00131927 4.14685251 2.02024092
v 0.98739431 4.18144890 2.02168214
v 0.99786100 4.18523529 2.00921061
v 1.01113157 4.15226435 2.00783728
v 0.78493672 4.05920616 2.03351871
v 0.77101182 4.09380255 2.03495981
v 0.75961646 4.08873367 2.02382989
v 0.77288704 4.05576294 2.02245641
v 0.87677846 4.10543985 1.77634999
v 0.77839890 4.05652762 2.01082599
v 1.00545131 4.14849580 1.99689354
v 0.74779264 4.06316158 1.55583895
v 0.97484499 4.15512976 1.54190644
v 0.88580710 4.15222179 1.77642475
v 0.76378756 4.09282961 2.01233812
v 0.99083991 4.18479779 1.99840567
v 0.73318125 4.09946358 1.55735114
v 0.96023366 4.19143175 1.54341863
v 0.74627175 4.07810050 1.78473040
v 0.98961952 4.17666927 1.76979794
v 0.95783796 4.17397440 1.51583650
v 0.97080612 4.15678895 1.51748720
v 0.95776316 4.18919393 1.51883706
v 0.96379461 4.19053669 1.52361548
v 0.97622462 4.15965441 1.52232905
v 0.74409980 4.08739895 1.52895201
v 0.74695373 4.06611699 1.53122333
v 0.73391082 4.09852198 1.53257319
v 0.72918381 4.09550653 1.53801181
v 0.74161383 4.06462426 1.53672538
v 0.99212501 4.16654228 2.02554187
v 1.00472174 4.14943739 2.02167137
v 0.99167883 4.18184238 2.02302129
v 0.99701873 4.18333513 2.01751929
v 1.00944875 4.15245284 2.01623287
v 0.77838685 4.07996707 2.03865737
v 0.78086941 4.05876543 2.03540750
v 0.76782644 4.09117043 2.03675742
v 0.76240793 4.08830519 2.03191549
v 0.77483795 4.05742291 2.03062906
v 0.99444991 4.14353543 2.01681625
v 0.79177284 4.06144029 2.02925299
v 0.89186564 4.10223524 2.00106629
v 0.78616488 4.05920864 2.01823323
v 0.99883599 4.14535187 2.00518327
v 0.96126538 4.15072809 1.52350072
v 0.75858831 4.06863319 1.53593745
v 0.86163347 4.10878846 1.55163970
v 0.75450209 4.06607173 1.54753946
v 0.96717314 4.15221496 1.53448943
v 0.98004425 4.17932618 2.01830711
v 0.77736719 4.09723128 2.03074395
v 0.90085938 4.14883585 2.00114073
v 0.77145942 4.09574442 2.01975519
v 0.98413048 4.18188765 2.00670522
v 0.94685972 4.18651884 1.52499159
v 0.74418265 4.10442394 1.53742837
v 0.87062715 4.15538860 1.55171423
v 0.73979657 4.10260750 1.54906135
v 0.95246769 4.18875073 1.53601138
v 0.72752141 4.09573248 1.56159799
v 0.75760271 4.08921228 2.00878096
v 0.75901060 4.09117501 1.99815785
v 0.73034289 4.09738932 1.57198928
v 0.74155939 4.09117000 1.78523789
v 0.74125010 4.06162381 1.56017716
v 0.77133140 4.05510338 2.00736014
v 0.77339912 4.05542723 1.99666875
v 0.74473141 4.06164082 1.57050018
v 0.75466774 4.05860229 1.78388131
v 0.96730117 4.19285577 1.54688455
v 0.99738246 4.18633556 1.99406746
v 0.99390115 4.18631855 1.98374437
v 0.96523345 4.19253238 1.55757585
v 0.98396482 4.18935709 1.77036331
v 0.98102986 4.15874709 1.54546366
v 1.01111114 4.15222689 1.99264663
v 1.00828967 4.15057005 1.98225534
v 0.97962195 4.15678436 1.55608671
v 0.99707318 4.15678937 1.76900672
v 0.96017502 4.15256444 1.51565855
v 0.94711722 4.18500639 1.51700995
v 0.75726724 4.07037647 1.52810933
v 0.74420950 4.10281842 1.52946072
v 0.97496484 4.15728616 1.52287392
v 0.85937979 4.11026527 1.52466010
v 0.97188944 4.15490331 1.52692154
v 0.96126335 4.19132761 1.52429192
v 0.86784623 4.15413352 1.52473024
v 0.95751252 4.19062301 1.52840942
v 0.97155059 4.17932226 1.53000348
v 0.96365145 4.19246150 1.53578219
v 0.96910126 4.19174009 1.54649143
v 0.97780337 4.15730105 1.53431753
v 0.98154540 4.16082229 1.54520355
v 0.74421130 4.06381912 1.53703350
v 0.74848108 4.06441133 1.54063039
v 0.73050986 4.09786011 1.53845153
v 0.73410415 4.10013055 1.54211831
v 0.73210768 4.08233501 1.54469630
v 0.72922918 4.09750786 1.55016687
v 0.72697164 4.09366448 1.56134913
v 0.74338110 4.06234742 1.54870228
v 0.73941579 4.06274715 1.56006121
v 0.99442306 4.14514095 2.02478390
v 0.98136531 4.17758290 2.02613529
v 0.79151534 4.06295274 2.03723470
v 0.77845753 4.09539493 2.03858607
v 1.00812269 4.15009927 2.01579315
v 0.89324780 4.10292393 2.02813608
v 1.00452840 4.14782882 2.01212631
v 0.99442126 4.18414025 2.01721106
v 0.90171424 4.14679219 2.02820617
v 0.99015148 4.18354804 2.01361429
v 1.00382752 4.17232578 2.00982740
v 0.99525146 4.18561195 2.00554241
v 0.99921676 4.18521222 1.99418341
v 1.00940338 4.15045151 2.00407775
v 1.01166091 4.15429490 1.99289548
v 0.77736920 4.05663176 2.02995270
v 0.78112005 4.05733660 2.02583519
v 0.76366771 4.09067297 2.03137073
v 0.76674312 4.09305606 2.02732314
v 0.76438466 4.07533879 2.02452026
v 0.76082918 4.09065832 2.01992703
v 0.75708715 4.08713685 2.00904110
v 0.77498111 4.05549812 2.01846247
v 0.76953130 4.05621952 2.00775317
v 0.78463466 4.05930172 1.99621312
v 0.99754780 4.14554272 1.98314828
v 0.75593433 4.06552276 1.56955950
v 0.96884754 4.15176376 1.55649467
v 0.76256145 4.05952217 1.78336369
v 0.99075593 4.15195304 1.76936110
v 0.76978502 4.09619561 1.99774995
v 0.98269822 4.18243661 1.98468512
v 0.74108475 4.10241665 1.57109634
v 0.95399789 4.18865765 1.55803150
v 0.74787662 4.09600634 1.78488352
v 0.97607111 4.18843744 1.77088091
f 1 47 44
f 1 44 43
f 1 43 45
f 1 45 46
f 1 46 47
f 2 49 52
f 6 72 70
f 12 102 99
f 11 96 95
f 8 79 81
f 4 62 59
f 4 59 58
f 4 58 60
f 4 60 61
f 4 61 62
f 5 66 65
f 3 54 57
f 7 73 77
f 9 85 86
f 10 92 88
f 12 101 98
f 6 69 68
f 2 50 48
f 8 82 78
f 11 97 93
f 6 71 69
f 12 100 101
f 11 94 97
f 8 80 82
f 2 51 50
f 10 90 89
f 5 63 64
f 3 55 53
f 7 76 74
f 9 87 84
f 10 91 90
f 5 67 63
f 3 56 55
f 7 75 76
f 9 83 87
f 6 68 72
f 2 48 49
f 8 78 79
f 11 93 96
f 12 98 102
f 10 88 91
f 5 65 67
f 3 57 56
f 7 77 75
f 9 86 83
f 5 64 66
f 3 53 54
f 7 74 73
f 9 84 85
f 10 89 92
f 6 70 71
f 12 99 100
f 11 95 94
f 8 81 80
f 2 52 51
f 35 109 116
f 18 105 108
f 19 111 106
f 40 114 112
f 42 117 115
f 34 125 119
f 33 152 156
f 25 137 139
f 36 158 160
f 20 123 120
f 32 143 149
f 23 127 132
f 24 135 128
f 37 147 145
f 41 150 148
f 34 153 155
f 33 140 133
f 25 138 134
f 36 159 157
f 20 122 124
f 17 107 47
f 14 103 44
f 13 104 43
f 15 110 45
f 16 113 46
f 18 118 49
f 35 154 72
f 42 141 102
f 40 162 96
f 19 121 79
f 30 142 62
f 27 129 59
f 22 130 58
f 28 144 60
f 29 146 61
f 32 151 66
f 23 131 54
f 24 136 73
f 37 161 85
f 41 126 92
f 35 116 101
f 18 108 69
f 19 106 50
f 40 112 82
f 42 115 97
f 34 119 71
f 33 156 100
f 25 139 94
f 36 160 80
f 20 120 51
f 32 149 90
f 23 132 63
f 24 128 55
f 37 145 76
f 41 148 87
f 34 155 91
f 33 133 67
f 25 134 56
f 36 157 75
f 20 124 83
f 14 109 68
f 13 105 48
f 15 111 78
f 16 114 93
f 17 117 98
f 21 125 88
f 31 152 65
f 26 137 57
f 38 158 77
f 39 123 86
f 27 143 64
f 22 127 53
f 28 135 74
f 29 147 84
f 30 150 89
f 31 153 70
f 26 140 99
f 38 138 95
f 39 159 81
f 21 122 52
f 14 107 109
f 13 103 105
f 15 104 111
f 16 110 114
f 17 113 117
f 21 118 125
f 31 154 152
f 26 141 137
f 38 162 158
f 39 121 123
f 27 142 143
f 22 129 127
f 28 130 135
f 29 144 147
f 30 146 150
f 31 151 153
f 26 131 140
f 38 136 138
f 39 161 159
f 21 126 122
f 14 44 107
f 13 43 103
f 15 45 104
f 16 46 110
f 17 47 113
f 21 52 118
f 31 70 154
f 26 99 141
f 38 95 162
f 39 81 121
f 27 59 142
f 22 58 129
f 28 60 130
f 29 61 144
f 30 62 146
f 31 65 151
f 26 57 131
f 38 77 136
f 39 86 161
f 21 88 126
f 17 98 116
f 14 68 108
f 13 48 106
f 15 78 112
f 16 93 115
f 18 69 119
f 35 101 156
f 42 97 139
f 40 82 160
f 19 50 120
f 30 89 149
f 27 64 132
f 22 53 128
f 28 74 145
f 29 84 148
f 32 90 155
f 23 63 133
f 24 55 134
f 37 76 157
f 41 87 124
f 35 72 109
f 18 49 105
f 19 79 111
f 40 96 114
f 42 102 117
f 34 91 125
f 33 67 152
f 25 56 137
f 36 75 158
f 20 83 123
f 32 66 143
f 23 54 127
f 24 73 135
f 37 85 147
f 41 92 150
f 34 71 153
f 33 100 140
f 25 94 138
f 36 80 159
f 20 51 122
f 17 116 107
f 14 108 103
f 13 106 104
f 15 112 110
f 16 115 113
f 18 119 118
f 35 156 154
f 42 139 141
f 40 160 162
f 19 120 121
f 30 149 142
f 27 132 129
f 22 128 130
f 28 145 144
f 29 148 146
f 32 155 151
f 23 133 131
f 24 134 136
f 37 157 161
f 41 124 126
f 107 44 47
f 103 43 44
f 104 45 43
f 110 46 45
f 113 47 46
f 118 52 49
f 154 70 72
f 141 99 102
f 162 95 96
f 121 81 79
f 142 59 62
f 129 58 59
f 130 60 58
f 144 61 60
f 146 62 61
f 151 65 66
f 131 57 54
f 136 77 73
f 161 86 85
f 126 88 92
f 116 98 101
f 108 68 69
f 106 48 50
f 112 78 82
f 115 93 97
f 119 69 71
f 156 101 100
f 139 97 94
f 160 82 80
f 120 50 51
f 149 89 90
f 132 64 63
f 128 53 55
f 145 74 76
f 148 84 87
f 155 90 91
f 133 63 67
f 134 55 56
f 157 76 75
f 124 87 83
f 109 72 68
f 105 49 48
f 111 79 78
f 114 96 93
f 117 102 98
f 125 91 88
f 152 67 65
f 137 56 57
f 158 75 77
f 123 83 86
f 143 66 64
f 127 54 53
f 135 73 74
f 147 85 84
f 150 92 89
f 153 71 70
f 140 100 99
f 138 94 95
f 159 80 81
f 122 51 52
f 107 116 109
f 103 108 105
f 104 106 111
f 110 112 114
f 113 115 117
f 118 119 125
f 154 156 152
f 141 139 137
f 162 160 158
f 121 120 123
f 142 149 143
f 129 132 127
f 130 128 135
f 144 145 147
f 146 148 150
f 151 155 153
f 131 133 140
f 136 134 138
f 161 157 159
f 126 124 122

