# https://github.com/mikedh/trimesh
v 5.00584417 5.91429702 2.78415071
v 5.33544266 4.61616033 2.81625096
v 4.70091050 5.83644925 2.76698269
v 5.03050947 4.53831257 2.79908293
v 4.87151753 5.18943627 2.80651903
v 5.16212146 5.26362554 2.82288033
v 4.83978530 5.32312927 2.76391499
v 5.13038875 5.39731854 2.78027630
v 5.19200111 4.54508120 2.79317580
v 5.18979938 4.54544784 2.83061818
v 4.84614964 5.90722921 2.75949276
v 4.84394789 5.90759583 2.79693513
v 5.17314254 5.26586113 2.80011234
v 5.01231156 5.88072792 2.80700459
v 5.01450206 5.88036302 2.76974925
v 4.99153523 5.94073638 2.76868575
v 4.98944743 5.94108415 2.80419033
v 5.32485291 4.64977193 2.83744348
v 5.32704341 4.64940654 2.80018818
v 5.33565428 4.58541176 2.80219995
v 5.33356648 4.58575956 2.83770477
v 4.86323758 5.18674406 2.78266439
v 4.70890561 5.80327050 2.78992274
v 4.71109611 5.80290512 2.75266745
v 4.70238253 5.86691749 2.75240616
v 4.70029474 5.86726528 2.78791098
v 5.02144696 4.57231402 2.82036168
v 5.02363746 4.57194911 2.78310635
v 5.04650158 4.51159290 2.78592060
v 5.04441378 4.51194067 2.82142519
v 5.01680060 5.22653431 2.81501995
v 5.04301920 4.54552771 2.82281410
v 4.71506643 5.83718238 2.79087416
v 5.31858403 4.61587741 2.83832861
v 4.99063078 5.90753257 2.80638864
v 4.98455081 5.36240681 2.77172147
v 5.04531823 4.54514448 2.78372229
v 4.71736499 5.83679963 2.75178233
v 5.32088258 4.61549467 2.79923678
v 4.99292981 5.90714934 2.76729684
v 5.19393527 4.53412451 2.80850439
v 4.84244531 5.91848067 2.77427233
v 5.01815534 5.87366840 2.78549134
v 5.00796341 5.90221299 2.80535460
v 5.01001543 5.90187138 2.77045897
v 4.99908442 5.93168595 2.77034676
v 4.99712900 5.93201173 2.80360248
v 5.32687736 4.65775574 2.81555811
v 5.33129461 4.62876246 2.83684424
v 5.33334662 4.62842086 2.80194860
v 5.33795496 4.59703254 2.80334987
v 5.33599954 4.59735832 2.83660560
v 4.70945018 5.79485793 2.76811091
v 4.70260240 5.82425619 2.78816233
v 4.70465441 5.82391458 2.75326670
v 4.69994947 5.85531873 2.75350533
v 4.69799405 5.85564451 2.78676106
v 5.01817268 4.57894531 2.79817790
v 5.02593359 4.55080566 2.81965196
v 5.02798559 4.55046406 2.78475634
v 5.03882001 4.52066532 2.78650845
v 5.03686460 4.52099110 2.81976418
v 4.72107945 5.76488364 2.79165993
v 5.01382474 4.61189513 2.82017078
v 4.88070659 5.19178847 2.80728019
v 5.02786929 4.58522097 2.82166074
v 4.72068874 5.79506316 2.79174392
v 5.01985781 5.84115986 2.80848141
v 5.31260310 4.68817136 2.83699226
v 5.15290337 5.26127867 2.82260526
v 5.31294696 4.65799929 2.83771075
v 5.00576593 5.86784196 2.80779391
v 4.72334592 5.76450569 2.75311868
v 5.01609121 4.61151718 2.78162953
v 4.84858167 5.32713487 2.76414938
v 5.03018308 4.58483509 2.78231702
v 4.72300206 5.79467775 2.75240019
v 5.02212427 5.84078191 2.76994016
v 5.31486956 4.68779340 2.79845101
v 5.12077891 5.39662458 2.77947423
v 5.31526028 4.65761388 2.79836701
v 5.00807972 5.86745607 2.76845020
v 5.32764158 4.57870130 2.80117972
v 5.05680378 4.50955811 2.78593115
v 5.05968817 4.52508057 2.78506296
v 5.31779898 4.59097456 2.79959486
v 5.19407009 4.53666901 2.79456998
v 5.32548194 4.57906107 2.83790990
v 5.05464367 4.50991790 2.82266158
v 5.05742478 4.52545770 2.82355849
v 5.31553512 4.59135169 2.83809040
v 5.19200795 4.53701281 2.82964061
v 4.98130534 5.94275915 2.76744935
v 4.71046707 5.87361597 2.75220104
v 4.72041390 5.86132536 2.75202054
v 4.97852423 5.92721935 2.76655245
v 4.84394106 5.91566424 2.76047031
v 4.97914522 5.94311894 2.80417979
v 4.70830743 5.87397574 2.78893122
v 4.71815003 5.86170249 2.79051608
v 4.97626084 5.92759648 2.80504798
v 4.84187892 5.91600803 2.79554096
v 5.02458482 5.84302046 2.80693171
v 5.02663912 5.84267804 2.77199636
v 5.31766372 4.68871942 2.83547508
v 5.31971801 4.68837747 2.80053970
v 4.99951634 5.92098020 2.80555802
v 5.16933952 5.26544548 2.82236071
v 5.00243197 5.89950017 2.80684661
v 5.00167220 5.92062105 2.76890063
v 5.13909830 5.39285746 2.78175836
v 5.00469380 5.89912363 2.76838193
v 4.99056522 5.94446906 2.78278656
v 4.99204450 5.92926022 2.76764510
v 4.97966118 5.94949944 2.76901104
v 4.98981816 5.92963116 2.80550772
v 4.97770343 5.94982590 2.80230482
v 5.33281521 4.60827089 2.83801828
v 5.32512155 4.62857588 2.83827369
v 5.33497107 4.60791174 2.80136089
v 5.32738338 4.62819888 2.79980930
v 5.33641528 4.58232727 2.81646938
v 5.33064257 4.59567968 2.80062169
v 5.32939170 4.57207316 2.80307187
v 5.32841623 4.59605061 2.83848431
v 5.32743394 4.57239961 2.83636542
v 4.71623100 5.76429957 2.78957123
v 4.71828529 5.76395762 2.75463585
v 5.00930989 4.60999901 2.81811457
v 5.01136419 4.60965658 2.78317923
v 4.70097795 5.84476530 2.78875004
v 4.86440775 5.18759821 2.80519284
v 4.70856563 5.82447816 2.79030163
v 4.70313380 5.84440616 2.75209265
v 4.83416605 5.31501020 2.76459049
v 4.71082746 5.82410116 2.75183725
v 4.69995794 5.87027883 2.76642519
v 4.70753278 5.85662643 2.75162663
v 4.70851507 5.88027744 2.75374552
v 4.70530645 5.85699737 2.78948925
v 4.70655732 5.88060389 2.78703906
v 5.03427681 4.53205599 2.82121030
v 5.03125521 4.55355342 2.82172900
v 5.03643267 4.53169685 2.78455292
v 5.03351704 4.55317688 2.78326433
v 5.04580801 4.50813704 2.80010801
v 5.04613085 4.52304588 2.78460322
v 5.05824558 4.50285114 2.78780611
v 5.04390452 4.52341682 2.82246584
v 5.05628784 4.50317760 2.82109989
v 5.04136949 4.58793910 2.82262118
v 4.73383923 5.79915877 2.79267038
v 5.29977381 4.65390806 2.83716979
v 4.99224355 5.86512770 2.80721874
v 5.18162087 4.57745491 2.83074989
v 4.85201812 5.87560689 2.79864947
v 5.04370547 4.58754934 2.78289219
v 4.73617520 5.79876899 2.75294114
v 5.30210977 4.65351827 2.79744056
v 4.99457952 5.86473795 2.76748976
v 5.18393089 4.57707015 2.79146147
v 4.85432814 5.87522213 2.75936105
f 1 47 44
f 1 44 43
f 1 43 45
f 1 45 46
f 1 46 47
f 2 49 52
f 6 72 70
f 12 102 99
f 11 96 95
f 8 79 81
f 4 62 59
f 4 59 58
f 4 58 60
f 4 60 61
f 4 61 62
f 5 66 65
f 3 54 57
f 7 73 77
f 9 85 86
f 10 92 88
f 12 101 98
f 6 69 68
f 2 50 48
f 8 82 78
f 11 97 93
f 6 71 69
f 12 100 101
f 11 94 97
f 8 80 82
f 2 51 50
f 10 90 89
f 5 63 64
f 3 55 53
f 7 76 74
f 9 87 84
f 10 91 90
f 5 67 63
f 3 56 55
f 7 75 76
f 9 83 87
f 6 68 72
f 2 48 49
f 8 78 79
f 11 93 96
f 12 98 102
f 10 88 91
f 5 65 67
f 3 57 56
f 7 77 75
f 9 86 83
f 5 64 66
f 3 53 54
f 7 74 73
f 9 84 85
f 10 89 92
f 6 70 71
f 12 99 100
f 11 95 94
f 8 81 80
f 2 52 51
f 35 109 116
f 18 105 108
f 19 111 106
f 40 114 112
f 42 117 115
f 34 125 119
f 33 152 156
f 25 137 139
f 36 158 160
f 20 123 120
f 32 143 149
f 23 127 132
f 24 135 128
f 37 147 145
f 41 150 148
f 34 153 155
f 33 140 133
f 25 138 134
f 36 159 157
f 20 122 124
f 17 107 47
f 14 103 44
f 13 104 43
f 15 110 45
f 16 113 46
f 18 118 49
f 35 154 72
f 42 141 102
f 40 162 96
f 19 121 79
f 30 142 62
f 27 129 59
f 22 130 58
f 28 144 60
f 29 146 61
f 32 151 66
f 23 131 54
f 24 136 73
f 37 161 85
f 41 126 92
f 35 116 101
f 18 108 69
f 19 106 50
f 40 112 82
f 42 115 97
f 34 119 71
f 33 156 100
f 25 139 94
f 36 160 80
f 20 120 51
f 32 149 90
f 23 132 63
f 24 128 55
f 37 145 76
f 41 148 87
f 34 155 91
f 33 133 67
f 25 134 56
f 36 157 75
f 20 124 83
f 14 109 68
f 13 105 48
f 15 111 78
f 16 114 93
f 17 117 98
f 21 125 88
f 31 152 65
f 26 137 57
f 38 158 77
f 39 123 86
f 27 143 64
f 22 127 53
f 28 135 74
f 29 147 84
f 30 150 89
f 31 153 70
f 26 140 99
f 38 138 95
f 39 159 81
f 21 122 52
f 14 107 109
f 13 103 105
f 15 104 111
f 16 110 114
f 17 113 117
f 21 118 125
f 31 154 152
f 26 141 137
f 38 162 158
f 39 121 123
f 27 142 143
f 22 129 127
f 28 130 135
f 29 144 147
f 30 146 150
f 31 151 153
f 26 131 140
f 38 136 138
f 39 161 159
f 21 126 122
f 14 44 107
f 13 43 103
f 15 45 104
f 16 46 110
f 17 47 113
f 21 52 118
f 31 70 154
f 26 99 141
f 38 95 162
f 39 81 121
f 27 59 142
f 22 58 129
f 28 60 130
f 29 61 144
f 30 62 146
f 31 65 151
f 26 57 131
f 38 77 136
f 39 86 161
f 21 88 126
f 17 98 116
f 14 68 108
f 13 48 106
f 15 78 112
f 16 93 115
f 18 69 119
f 35 101 156
f 42 97 139
f 40 82 160
f 19 50 120
f 30 89 149
f 27 64 132
f 22 53 128
f 28 74 145
f 29 84 148
f 32 90 155
f 23 63 133
f 24 55 134
f 37 76 157
f 41 87 124
f 35 72 109
f 18 49 105
f 19 79 111
f 40 96 114
f 42 102 117
f 34 91 125
f 33 67 152
f 25 56 137
f 36 75 158
f 20 83 123
f 32 66 143
f 23 54 127
f 24 73 135
f 37 85 147
f 41 92 150
f 34 71 153
f 33 100 140
f 25 94 138
f 36 80 159
f 20 51 122
f 17 116 107
f 14 108 103
f 13 106 104
f 15 112 110
f 16 115 113
f 18 119 118
f 35 156 154
f 42 139 141
f 40 160 162
f 19 120 121
f 30 149 142
f 27 132 129
f 22 128 130
f 28 145 144
f 29 148 146
f 32 155 151
f 23 133 131
f 24 134 136
f 37 157 161
f 41 124 126
f 107 44 47
f 103 43 44
f 104 45 43
f 110 46 45
f 113 47 46
f 118 52 49
f 154 70 72
f 141 99 102
f 162 95 96
f 121 81 79
f 142 59 62
f 129 58 59
f 130 60 58
f 144 61 60
f 146 62 61
f 151 65 66
f 131 57 54
f 136 77 73
f 161 86 85
f 126 88 92
f 116 98 101
f 108 68 69
f 106 48 50
f 112 78 82
f 115 93 97
f 119 69 71
f 156 101 100
f 139 97 94
f 160 82 80
f 120 50 51
f 149 89 90
f 132 64 63
f 128 53 55
f 145 74 76
f 148 84 87
f 155 90 91
f 133 63 67
f 134 55 56
f 157 76 75
f 124 87 83
f 109 72 68
f 105 49 48
f 111 79 78
f 114 96 93
f 117 102 98
f 125 91 88
f 152 67 65
f 137 56 57
f 158 75 77
f 123 83 86
f 143 66 64
f 127 54 53
f 135 73 74
f 147 85 84
f 150 92 89
f 153 71 70
f 140 100 99
f 138 94 95
f 159 80 81
f 122 51 52
f 107 116 109
f 103 108 105
f 104 106 111
f 110 112 114
f 113 115 117
f 118 119 125
f 154 156 152
f 141 139 137
f 162 160 158
f 121 120 123
f 142 149 143
f 129 132 127
f 130 128 135
f 144 145 147
f 146 148 150
f 151 155 153
f 131 133 140
f 136 134 138
f 161 157 159
f 126 124 122

