# https://github.com/mikedh/trimesh
v 0.91695428 2.99314444 0.52784908
v 0.69325897 3.79475150 0.50629337
v 0.90048636 2.99151031 0.63798305
v 0.67679105 3.79311760 0.61642733
v 0.76701611 3.38611948 0.62123395
v 0.78271011 3.38767667 0.51627550
v 0.82758195 3.31393445 0.62921920
v 0.84327595 3.31549165 0.52426075
v 0.69408157 3.81782495 0.56306896
v 0.65838045 3.80771450 0.55758073
v 0.92880731 2.97669034 0.58568760
v 0.89310619 2.96657990 0.58019938
v 0.80545862 3.39402288 0.51620690
v 0.89008455 3.00792403 0.52433268
v 0.92560737 3.01798374 0.52979353
v 0.93510344 2.97931018 0.53327176
v 0.90124990 2.96972297 0.52806753
v 0.67796576 3.76804698 0.50389251
v 0.71348864 3.77810669 0.50935334
v 0.70155346 3.81623121 0.51076642
v 0.66769998 3.80664423 0.50556219
v 0.78872225 3.39236241 0.62813645
v 0.87369912 3.00629815 0.63391498
v 0.90922200 3.01635786 0.63937582
v 0.91948777 2.97776062 0.63770614
v 0.88563430 2.96817365 0.63250191
v 0.66158037 3.76642111 0.61347480
v 0.69710320 3.77648081 0.61893564
v 0.68593785 3.81468187 0.61520079
v 0.65208431 3.80509466 0.60999659
v 0.77455771 3.38681158 0.56870778
v 0.65622683 3.78498864 0.60780847
v 0.87880518 2.98738394 0.62925655
v 0.67110869 3.78646521 0.50828176
v 0.89368704 2.98886051 0.52972985
v 0.83611101 3.31344976 0.57682321
v 0.69350072 3.79554434 0.61353848
v 0.91607907 2.99793964 0.63498656
v 0.70838257 3.79702090 0.51401178
v 0.93096093 2.99941620 0.53545986
v 0.67781410 3.82061668 0.56067798
v 0.91636672 2.96576860 0.58366538
v 0.90976399 3.01848253 0.52645340
v 0.89492363 2.99512763 0.52450540
v 0.92819651 3.00455011 0.52962033
v 0.93251978 2.98541551 0.53113270
v 0.90081056 2.97643576 0.52625809
v 0.70023752 3.76931590 0.50626302
v 0.67548225 3.78149097 0.50335958
v 0.70875514 3.79091346 0.50847454
v 0.70253195 3.80957185 0.50897063
v 0.67082266 3.80059212 0.50409604
v 0.89309238 3.01682839 0.63794952
v 0.87843262 2.99349138 0.63479379
v 0.91170550 3.00291387 0.63990876
v 0.91636509 2.98381274 0.63917229
v 0.88465580 2.97483299 0.63429770
v 0.68356597 3.76766177 0.61775915
v 0.65899125 3.77985474 0.61364800
v 0.69226413 3.78927722 0.61876295
v 0.68637719 3.80796908 0.61701023
v 0.65466798 3.79898934 0.61213563
v 0.86649321 3.03020984 0.63233772
v 0.66780990 3.74218708 0.61319220
v 0.76728145 3.38610313 0.61787431
v 0.66289885 3.75966935 0.61018715
v 0.87137926 3.01258437 0.63027674
v 0.88262873 3.03181057 0.52442679
v 0.68394541 3.74378806 0.50528127
v 0.78198143 3.38756178 0.51956392
v 0.67829442 3.76119679 0.50722465
v 0.88677483 3.01411180 0.52731425
v 0.90324235 3.04061678 0.63798707
v 0.70455903 3.75259428 0.61884154
v 0.82859642 3.31302537 0.62595831
v 0.70041292 3.77029304 0.61595409
v 0.90889333 3.02320805 0.63604368
v 0.91937786 3.04221776 0.53007612
v 0.72069455 3.75419501 0.51093062
v 0.84329635 3.31448378 0.52764795
v 0.71580849 3.77182048 0.51299159
v 0.92428891 3.02473550 0.53308119
v 0.70089080 3.81904412 0.51409111
v 0.68626424 3.81759291 0.61191072
v 0.68984590 3.80927780 0.60997261
v 0.70378513 3.81066078 0.51674984
v 0.69149934 3.82270625 0.56275529
v 0.66586859 3.80912615 0.50870725
v 0.65124203 3.80767471 0.60652687
v 0.65314057 3.79888311 0.60432999
v 0.66707978 3.80026607 0.51110721
v 0.65805955 3.81323652 0.55761466
v 0.93594573 2.97673014 0.53674147
v 0.92131917 2.97527870 0.63456109
v 0.92010797 2.98413877 0.63216112
v 0.93404719 2.98552175 0.53893834
v 0.92912821 2.97116833 0.58565367
v 0.90092351 2.96681194 0.53135760
v 0.88629695 2.96536073 0.62917722
v 0.88340263 2.97374407 0.62651850
v 0.89734185 2.97512704 0.53329572
v 0.89568841 2.96169859 0.58051304
v 0.88471955 3.03191798 0.52297282
v 0.91803030 3.04135121 0.52809359
v 0.68581009 3.74470582 0.50380549
v 0.71912077 3.75413906 0.50892628
v 0.89728207 2.98274993 0.52593433
v 0.78397702 3.38796429 0.51382327
v 0.89269411 2.99539474 0.52629869
v 0.93223478 2.99264838 0.53130751
v 0.84169738 3.31917047 0.52143336
v 0.92936997 3.00578119 0.53193677
v 0.92224380 2.97338991 0.53099249
v 0.93422886 2.98632945 0.53410208
v 0.93546740 2.97213949 0.53654493
v 0.89812700 2.97610575 0.52855222
v 0.90372207 2.96314949 0.53166479
v 0.67107553 3.79335608 0.50413661
v 0.67368797 3.78019849 0.50519483
v 0.70602825 3.80325453 0.50950980
v 0.71036385 3.79058470 0.51083293
v 0.68751907 3.81452071 0.50837395
v 0.70442580 3.80982367 0.51195781
v 0.69810891 3.82270833 0.51367261
v 0.66832394 3.79959973 0.50640797
v 0.66636357 3.81371833 0.50879246
v 0.86806698 3.03026580 0.63434206
v 0.90137767 3.03969902 0.63946284
v 0.66915746 3.74305363 0.61517475
v 0.70246821 3.75248687 0.62029552
v 0.88115951 2.98115031 0.63375854
v 0.76750921 3.38633035 0.62395675
v 0.87682391 2.99382015 0.63243541
v 0.91611222 2.99104877 0.63913173
v 0.82522957 3.31753654 0.63156684
v 0.91349978 3.00420636 0.63807351
v 0.90654954 2.97183283 0.63595215
v 0.91886382 2.98480512 0.63686036
v 0.92082418 2.97068651 0.63447587
v 0.88276196 2.97458117 0.63131052
v 0.88907884 2.96169652 0.62959573
v 0.65495297 3.79175646 0.61196083
v 0.65781778 3.77862366 0.61133156
v 0.68990569 3.80165492 0.61733401
v 0.69449365 3.78901010 0.61696964
v 0.67182486 3.81296362 0.61333362
v 0.68906076 3.80829910 0.61471610
v 0.68346569 3.82125535 0.61160355
v 0.65295890 3.79807539 0.60916624
v 0.65172035 3.81226536 0.60672341
v 0.66331662 3.76011396 0.60533066
v 0.87203439 3.01217852 0.62544311
v 0.67727168 3.76149864 0.51200176
v 0.88598946 3.01356320 0.53211420
v 0.66301424 3.78770626 0.55797676
v 0.88671216 2.98608965 0.57953274
v 0.70119830 3.77084165 0.61115412
v 0.90991608 3.02290622 0.63126658
v 0.71515337 3.77222632 0.51782523
v 0.92387114 3.02429090 0.53793767
v 0.70047560 3.79831519 0.56373559
v 0.92417352 2.99669859 0.58529157
f 1 47 44
f 1 44 43
f 1 43 45
f 1 45 46
f 1 46 47
f 2 49 52
f 6 72 70
f 12 102 99
f 11 96 95
f 8 79 81
f 4 62 59
f 4 59 58
f 4 58 60
f 4 60 61
f 4 61 62
f 5 66 65
f 3 54 57
f 7 73 77
f 9 85 86
f 10 92 88
f 12 101 98
f 6 69 68
f 2 50 48
f 8 82 78
f 11 97 93
f 6 71 69
f 12 100 101
f 11 94 97
f 8 80 82
f 2 51 50
f 10 90 89
f 5 63 64
f 3 55 53
f 7 76 74
f 9 87 84
f 10 91 90
f 5 67 63
f 3 56 55
f 7 75 76
f 9 83 87
f 6 68 72
f 2 48 49
f 8 78 79
f 11 93 96
f 12 98 102
f 10 88 91
f 5 65 67
f 3 57 56
f 7 77 75
f 9 86 83
f 5 64 66
f 3 53 54
f 7 74 73
f 9 84 85
f 10 89 92
f 6 70 71
f 12 99 100
f 11 95 94
f 8 81 80
f 2 52 51
f 35 109 116
f 18 105 108
f 19 111 106
f 40 114 112
f 42 117 115
f 34 125 119
f 33 152 156
f 25 137 139
f 36 158 160
f 20 123 120
f 32 143 149
f 23 127 132
f 24 135 128
f 37 147 145
f 41 150 148
f 34 153 155
f 33 140 133
f 25 138 134
f 36 159 157
f 20 122 124
f 17 107 47
f 14 103 44
f 13 104 43
f 15 110 45
f 16 113 46
f 18 118 49
f 35 154 72
f 42 141 102
f 40 162 96
f 19 121 79
f 30 142 62
f 27 129 59
f 22 130 58
f 28 144 60
f 29 146 61
f 32 151 66
f 23 131 54
f 24 136 73
f 37 161 85
f 41 126 92
f 35 116 101
f 18 108 69
f 19 106 50
f 40 112 82
f 42 115 97
f 34 119 71
f 33 156 100
f 25 139 94
f 36 160 80
f 20 120 51
f 32 149 90
f 23 132 63
f 24 128 55
f 37 145 76
f 41 148 87
f 34 155 91
f 33 133 67
f 25 134 56
f 36 157 75
f 20 124 83
f 14 109 68
f 13 105 48
f 15 111 78
f 16 114 93
f 17 117 98
f 21 125 88
f 31 152 65
f 26 137 57
f 38 158 77
f 39 123 86
f 27 143 64
f 22 127 53
f 28 135 74
f 29 147 84
f 30 150 89
f 31 153 70
f 26 140 99
f 38 138 95
f 39 159 81
f 21 122 52
f 14 107 109
f 13 103 105
f 15 104 111
f 16 110 114
f 17 113 117
f 21 118 125
f 31 154 152
f 26 141 137
f 38 162 158
f 39 121 123
f 27 142 143
f 22 129 127
f 28 130 135
f 29 144 147
f 30 146 150
f 31 151 153
f 26 131 140
f 38 136 138
f 39 161 159
f 21 126 122
f 14 44 107
f 13 43 103
f 15 45 104
f 16 46 110
f 17 47 113
f 21 52 118
f 31 70 154
f 26 99 141
f 38 95 162
f 39 81 121
f 27 59 142
f 22 58 129
f 28 60 130
f 29 61 144
f 30 62 146
f 31 65 151
f 26 57 131
f 38 77 136
f 39 86 161
f 21 88 126
f 17 98 116
f 14 68 108
f 13 48 106
f 15 78 112
f 16 93 115
f 18 69 119
f 35 101 156
f 42 97 139
f 40 82 160
f 19 50 120
f 30 89 149
f 27 64 132
f 22 53 128
f 28 74 145
f 29 84 148
f 32 90 155
f 23 63 133
f 24 55 134
f 37 76 157
f 41 87 124
f 35 72 109
f 18 49 105
f 19 79 111
f 40 96 114
f 42 102 117
f 34 91 125
f 33 67 152
f 25 56 137
f 36 75 158
f 20 83 123
f 32 66 143
f 23 54 127
f 24 73 135
f 37 85 147
f 41 92 150
f 34 71 153
f 33 100 140
f 25 94 138
f 36 80 159
f 20 51 122
f 17 116 107
f 14 108 103
f 13 106 104
f 15 112 110
f 16 115 113
f 18 119 118
f 35 156 154
f 42 139 141
f 40 160 162
f 19 120 121
f 30 149 142
f 27 132 129
f 22 128 130
f 28 145 144
f 29 148 146
f 32 155 151
f 23 133 131
f 24 134 136
f 37 157 161
f 41 124 126
f 107 44 47
f 103 43 44
f 104 45 43
f 110 46 45
f 113 47 46
f 118 52 49
f 154 70 72
f 141 99 102
f 162 95 96
f 121 81 79
f 142 59 62
f 129 58 59
f 130 60 58
f 144 61 60
f 146 62 61
f 151 65 66
f 131 57 54
f 136 77 73
f 161 86 85
f 126 88 92
f 116 98 101
f 108 68 69
f 106 48 50
f 112 78 82
f 115 93 97
f 119 69 71
f 156 101 100
f 139 97 94
f 160 82 80
f 120 50 51
f 149 89 90
f 132 64 63
f 128 53 55
f 145 74 76
f 148 84 87
f 155 90 91
f 133 63 67
f 134 55 56
f 157 76 75
f 124 87 83
f 109 72 68
f 105 49 48
f 111 79 78
f 114 96 93
f 117 102 98
f 125 91 88
f 152 67 65
f 137 56 57
f 158 75 77
f 123 83 86
f 143 66 64
f 127 54 53
f 135 73 74
f 147 85 84
f 150 92 89
f 153 71 70
f 140 100 99
f 138 94 95
f 159 80 81
f 122 51 52
f 107 116 109
f 103 108 105
f 104 106 111
f 110 112 114
f 113 115 117
f 118 119 125
f 154 156 152
f 141 139 137
f 162 160 158
f 121 120 123
f 142 149 143
f 129 132 127
f 130 128 135
f 144 145 147
f 146 148 150
f 151 155 153
f 131 133 140
f 136 134 138
f 161 157 159
f 126 124 122

