# https://github.com/mikedh/trimesh
v 4.12265655 5.55633182 2.29037022
v 4.46272781 4.27502430 2.31431864
v 3.81154534 5.47341587 2.27196073
v 4.15161637 4.19210834 2.29590916
v 3.98750796 4.83477480 2.30744989
v 4.28399920 4.91379414 2.32499436
v 3.95473767 4.96700478 2.26568867
v 4.25122892 5.04602413 2.28323314
v 4.31647208 4.20193325 2.29042226
v 4.31422868 4.20203765 2.32786373
v 3.95963234 5.54642164 2.26529285
v 3.95738894 5.54652605 2.30273433
v 4.29524200 4.91635343 2.30226619
v 4.12935498 5.52303096 2.31300972
v 4.13158713 5.52292684 2.27575517
v 4.10797329 5.58236940 2.27505317
v 4.10584624 5.58246835 2.31055690
v 4.45182686 4.30803273 2.33571875
v 4.45405902 4.30792909 2.29846427
v 4.46302572 4.24461554 2.30005660
v 4.46089867 4.24471448 2.33556033
v 3.97905836 4.83208570 2.28355647
v 3.81980200 5.44053021 2.29469232
v 3.82203415 5.44042657 2.25743784
v 3.81296259 5.50374481 2.25759625
v 3.81083530 5.50384376 2.29309998
v 4.14227388 4.22553246 2.31740143
v 4.14450604 4.22542833 2.28014687
v 4.16801478 4.16599095 2.28259970
v 4.16588774 4.16608990 2.31810342
v 4.13573431 4.87428524 2.31654238
v 4.16437207 4.19936430 2.31971993
v 3.82599930 5.47427407 2.29589107
v 4.44551980 4.27429428 2.33635647
v 4.10714680 5.54920404 2.31252761
v 4.10243008 5.00867095 2.27410033
v 4.16671422 4.19925526 2.28062898
v 3.82834145 5.47416502 2.25680011
v 4.44786196 4.27418523 2.29726552
v 4.10948896 5.54909499 2.27343666
v 4.31847889 4.19101488 2.30568083
v 3.95582147 5.55742375 2.28014174
v 4.13533777 5.51626604 2.29146032
v 4.12485677 5.54426498 2.31149686
v 4.12694755 5.54416789 2.27660209
v 4.11570589 5.57352821 2.27666950
v 4.11371318 5.57362096 2.30992448
v 4.45386838 4.31611648 2.31389195
v 4.45846092 4.28732371 2.33498992
v 4.46055168 4.28722661 2.30009504
v 4.46534284 4.25617764 2.30129158
v 4.46335013 4.25627039 2.33454656
v 3.82037844 5.43232445 2.27282307
v 3.81330934 5.46123269 2.29306156
v 3.81540010 5.46113559 2.25816666
v 3.81051066 5.49218891 2.25861004
v 3.80851818 5.49228166 2.29186501
v 4.13890952 4.23217537 2.29525465
v 4.14691348 4.20429141 2.31655451
v 4.14900424 4.20419432 2.28165973
v 4.16014784 4.17483834 2.28323211
v 4.15815513 4.17493109 2.31648708
v 3.83233672 5.40268255 2.29619429
v 4.13438353 4.26464192 2.31746494
v 3.99688321 4.83727780 2.30824855
v 4.14879583 4.23844728 2.31880401
v 3.83185501 5.43260512 2.29648453
v 4.13716840 5.48392499 2.31423219
v 4.43921521 4.34588435 2.33550285
v 4.27459467 4.91129214 2.32468167
v 4.43964862 4.31596396 2.33601484
v 4.12270828 5.51012180 2.31369535
v 3.83464605 5.40257494 2.25765373
v 4.13669262 4.26453431 2.27892440
v 3.96370782 4.97114337 2.26597083
v 4.15115274 4.23833749 2.27946124
v 3.83421240 5.43249533 2.25714174
v 4.13947749 5.48381738 2.27569165
v 4.44152430 4.34577675 2.29696231
v 4.24141903 5.04515770 2.28240395
v 4.44200601 4.31585417 2.29667206
v 4.12506519 5.51001202 2.27435258
v 4.45486369 4.23781375 2.29897142
v 4.17853860 4.16416886 2.28262026
v 4.18144063 4.17962345 2.28186535
v 4.44478070 4.24980737 2.29744802
v 4.31860762 4.19362201 2.29176343
v 4.45266288 4.23791609 2.33570089
v 4.17633779 4.16427120 2.31934973
v 4.17913413 4.17973070 2.32036004
v 4.44247421 4.24991464 2.33594282
v 4.31650673 4.19371986 2.32683333
v 4.09752323 5.58418809 2.27380685
v 3.82119814 5.51054321 2.25745570
v 3.83138681 5.49854466 2.25721377
v 4.09472689 5.56872859 2.27279655
v 3.95735453 5.55473944 2.26632325
v 4.09532242 5.58429044 2.31053633
v 3.81899757 5.51064555 2.29418516
v 3.82908032 5.49865193 2.29570858
v 4.09242039 5.56883585 2.31129124
v 3.95525316 5.55483729 2.30139316
v 4.14198925 5.48586976 2.31270608
v 4.14408230 5.48577185 2.27777159
v 4.44437951 4.34653315 2.33400109
v 4.44647256 4.34643572 2.29906656
v 4.11618147 5.56271481 2.31180969
v 4.29136382 4.91573985 2.32450397
v 4.11921696 5.54146068 2.31295764
v 4.11837754 5.56261261 2.27515307
v 4.26013325 5.04175736 2.28470481
v 4.12152142 5.54135305 2.27449391
v 4.10697498 5.58597103 2.28917789
v 4.10852462 5.57100415 2.27393458
v 4.09582654 5.59083186 2.27541113
v 4.10625615 5.57111000 2.31179643
v 4.09383198 5.59092481 2.30870407
v 4.46006992 4.26702342 2.33602698
v 4.45215932 4.28701249 2.33640407
v 4.46226646 4.26692121 2.29937036
v 4.45446378 4.28690534 2.29794030
v 4.46381331 4.24148836 2.31430711
v 4.45788113 4.25471216 2.29853689
v 4.45666869 4.23126310 2.30082235
v 4.45561218 4.25481801 2.33639875
v 4.45467412 4.23135604 2.33411516
v 3.82738822 5.40202357 2.29409004
v 3.82948151 5.40192615 2.25915551
v 4.12977872 4.26268745 2.31538500
v 4.13187177 4.26258953 2.28045052
v 3.81159480 5.48153808 2.29378623
v 3.98025381 4.83282389 2.30609457
v 3.81939724 5.46155395 2.29521630
v 3.81379110 5.48143588 2.25712961
v 3.94902324 4.95884188 2.26629525
v 3.82170193 5.46144680 2.25675252
v 3.81048016 5.50695071 2.27163322
v 3.81824860 5.49364129 2.25675785
v 3.81918690 5.51710326 2.25904143
v 3.81598013 5.49374714 2.29461969
v 3.81719209 5.51719620 2.29233426
v 4.15548348 4.18584669 2.31800351
v 4.15233961 4.20710625 2.31866268
v 4.15767955 4.18574448 2.28134691
v 4.15464407 4.20699862 2.28019895
v 4.16731848 4.16246804 2.29676245
v 4.16760487 4.17734929 2.28136017
v 4.18002904 4.15753449 2.28445252
v 4.16533640 4.17745515 2.31922201
v 4.17803448 4.15762744 2.31774546
v 4.16257123 4.24139426 2.31981469
v 3.84526992 5.43691162 2.29746977
v 4.42621106 4.31165850 2.33541525
v 4.10890926 5.50717585 2.31307023
v 4.30579075 4.23362329 2.32819642
v 3.96571618 5.51494563 2.30424773
v 4.16495176 4.24128345 2.28008637
v 3.84765020 5.43680080 2.25774133
v 4.42859111 4.31154768 2.29568683
v 4.11128980 5.50706504 2.27334190
v 4.30814484 4.23351366 2.28890886
v 3.96807003 5.51483601 2.26496018
f 1 47 44
f 1 44 43
f 1 43 45
f 1 45 46
f 1 46 47
f 2 49 52
f 6 72 70
f 12 102 99
f 11 96 95
f 8 79 81
f 4 62 59
f 4 59 58
f 4 58 60
f 4 60 61
f 4 61 62
f 5 66 65
f 3 54 57
f 7 73 77
f 9 85 86
f 10 92 88
f 12 101 98
f 6 69 68
f 2 50 48
f 8 82 78
f 11 97 93
f 6 71 69
f 12 100 101
f 11 94 97
f 8 80 82
f 2 51 50
f 10 90 89
f 5 63 64
f 3 55 53
f 7 76 74
f 9 87 84
f 10 91 90
f 5 67 63
f 3 56 55
f 7 75 76
f 9 83 87
f 6 68 72
f 2 48 49
f 8 78 79
f 11 93 96
f 12 98 102
f 10 88 91
f 5 65 67
f 3 57 56
f 7 77 75
f 9 86 83
f 5 64 66
f 3 53 54
f 7 74 73
f 9 84 85
f 10 89 92
f 6 70 71
f 12 99 100
f 11 95 94
f 8 81 80
f 2 52 51
f 35 109 116
f 18 105 108
f 19 111 106
f 40 114 112
f 42 117 115
f 34 125 119
f 33 152 156
f 25 137 139
f 36 158 160
f 20 123 120
f 32 143 149
f 23 127 132
f 24 135 128
f 37 147 145
f 41 150 148
f 34 153 155
f 33 140 133
f 25 138 134
f 36 159 157
f 20 122 124
f 17 107 47
f 14 103 44
f 13 104 43
f 15 110 45
f 16 113 46
f 18 118 49
f 35 154 72
f 42 141 102
f 40 162 96
f 19 121 79
f 30 142 62
f 27 129 59
f 22 130 58
f 28 144 60
f 29 146 61
f 32 151 66
f 23 131 54
f 24 136 73
f 37 161 85
f 41 126 92
f 35 116 101
f 18 108 69
f 19 106 50
f 40 112 82
f 42 115 97
f 34 119 71
f 33 156 100
f 25 139 94
f 36 160 80
f 20 120 51
f 32 149 90
f 23 132 63
f 24 128 55
f 37 145 76
f 41 148 87
f 34 155 91
f 33 133 67
f 25 134 56
f 36 157 75
f 20 124 83
f 14 109 68
f 13 105 48
f 15 111 78
f 16 114 93
f 17 117 98
f 21 125 88
f 31 152 65
f 26 137 57
f 38 158 77
f 39 123 86
f 27 143 64
f 22 127 53
f 28 135 74
f 29 147 84
f 30 150 89
f 31 153 70
f 26 140 99
f 38 138 95
f 39 159 81
f 21 122 52
f 14 107 109
f 13 103 105
f 15 104 111
f 16 110 114
f 17 113 117
f 21 118 125
f 31 154 152
f 26 141 137
f 38 162 158
f 39 121 123
f 27 142 143
f 22 129 127
f 28 130 135
f 29 144 147
f 30 146 150
f 31 151 153
f 26 131 140
f 38 136 138
f 39 161 159
f 21 126 122
f 14 44 107
f 13 43 103
f 15 45 104
f 16 46 110
f 17 47 113
f 21 52 118
f 31 70 154
f 26 99 141
f 38 95 162
f 39 81 121
f 27 59 142
f 22 58 129
f 28 60 130
f 29 61 144
f 30 62 146
f 31 65 151
f 26 57 131
f 38 77 136
f 39 86 161
f 21 88 126
f 17 98 116
f 14 68 108
f 13 48 106
f 15 78 112
f 16 93 115
f 18 69 119
f 35 101 156
f 42 97 139
f 40 82 160
f 19 50 120
f 30 89 149
f 27 64 132
f 22 53 128
f 28 74 145
f 29 84 148
f 32 90 155
f 23 63 133
f 24 55 134
f 37 76 157
f 41 87 124
f 35 72 109
f 18 49 105
f 19 79 111
f 40 96 114
f 42 102 117
f 34 91 125
f 33 67 152
f 25 56 137
f 36 75 158
f 20 83 123
f 32 66 143
f 23 54 127
f 24 73 135
f 37 85 147
f 41 92 150
f 34 71 153
f 33 100 140
f 25 94 138
f 36 80 159
f 20 51 122
f 17 116 107
f 14 108 103
f 13 106 104
f 15 112 110
f 16 115 113
f 18 119 118
f 35 156 154
f 42 139 141
f 40 160 162
f 19 120 121
f 30 149 142
f 27 132 129
f 22 128 130
f 28 145 144
f 29 148 146
f 32 155 151
f 23 133 131
f 24 134 136
f 37 157 161
f 41 124 126
f 107 44 47
f 103 43 44
f 104 45 43
f 110 46 45
f 113 47 46
f 118 52 49
f 154 70 72
f 141 99 102
f 162 95 96
f 121 81 79
f 142 59 62
f 129 58 59
f 130 60 58
f 144 61 60
f 146 62 61
f 151 65 66
f 131 57 54
f 136 77 73
f 161 86 85
f 126 88 92
f 116 98 101
f 108 68 69
f 106 48 50
f 112 78 82
f 115 93 97
f 119 69 71
f 156 101 100
f 139 97 94
f 160 82 80
f 120 50 51
f 149 89 90
f 132 64 63
f 128 53 55
f 145 74 76
f 148 84 87
f 155 90 91
f 133 63 67
f 134 55 56
f 157 76 75
f 124 87 83
f 109 72 68
f 105 49 48
f 111 79 78
f 114 96 93
f 117 102 98
f 125 91 88
f 152 67 65
f 137 56 57
f 158 75 77
f 123 83 86
f 143 66 64
f 127 54 53
f 135 73 74
f 147 85 84
f 150 92 89
f 153 71 70
f 140 100 99
f 138 94 95
f 159 80 81
f 122 51 52
f 107 116 109
f 103 108 105
f 104 106 111
f 110 112 114
f 113 115 117
f 118 119 125
f 154 156 152
f 141 139 137
f 162 160 158
f 121 120 123
f 142 149 143
f 129 132 127
f 130 128 135
f 144 145 147
f 146 148 150
f 151 155 153
f 131 133 140
f 136 134 138
f 161 157 159
f 126 124 122

