# https://github.com/mikedh/trimesh
v 0.11458260 3.77735521 0.34094305
v 0.44750068 2.46865648 0.37196089
v 0.11719507 3.77541026 0.23083524
v 0.45011315 2.46671154 0.26185308
v 0.26118887 3.11539694 0.24850066
v 0.25869914 3.11725065 0.35343411
v 0.26493621 3.26028347 0.24603004
v 0.26244648 3.26213719 0.35096355
v 0.47184789 2.43919796 0.31795691
v 0.43550716 2.42993685 0.31725827
v 0.12251356 3.81242875 0.28540956
v 0.08617284 3.80316764 0.28471092
v 0.28124200 3.12307821 0.35735382
v 0.10178646 3.73802882 0.34105814
v 0.13794572 3.74724375 0.34175329
v 0.12120952 3.80967187 0.33767777
v 0.08674948 3.80089004 0.33701529
v 0.41747558 2.49705713 0.37047074
v 0.45363486 2.50627207 0.37116593
v 0.46879393 2.44332018 0.37006207
v 0.43433389 2.43453811 0.36939960
v 0.28389709 3.12110133 0.24545088
v 0.10438587 3.73609353 0.23150193
v 0.14054513 3.74530847 0.23219709
v 0.12368681 3.80782749 0.23326823
v 0.08922678 3.79904542 0.23260577
v 0.42007502 2.49512185 0.26091457
v 0.45623425 2.50433678 0.26160972
v 0.47127125 2.44147556 0.26565254
v 0.43681122 2.43269373 0.26499006
v 0.25963316 3.11624456 0.30096141
v 0.42684787 2.46438735 0.26664920
v 0.09559207 3.76655147 0.23578621
v 0.42448700 2.46614492 0.36615220
v 0.09323120 3.76830905 0.33528924
v 0.26344157 3.26349347 0.29845052
v 0.46478950 2.47405655 0.26737858
v 0.13353373 3.77622068 0.23651562
v 0.46242864 2.47581413 0.36688162
v 0.13117287 3.77797825 0.33601866
v 0.46008441 2.42428008 0.31794136
v 0.10505468 3.81989946 0.28486336
v 0.12489854 3.73586697 0.34260223
v 0.09747425 3.75974701 0.34092544
v 0.13134322 3.76837830 0.34157655
v 0.12272611 3.79900589 0.33970594
v 0.09044874 3.79078029 0.33908541
v 0.43672963 2.51006119 0.37165541
v 0.42406137 2.47593516 0.37135346
v 0.45793032 2.48456645 0.37200458
v 0.46500917 2.45349353 0.37159633
v 0.43273183 2.44526770 0.37097582
v 0.12754334 3.73389783 0.23113261
v 0.10009039 3.75779916 0.23066325
v 0.13395936 3.76643044 0.23131437
v 0.12528890 3.79709790 0.23169201
v 0.09301154 3.78887207 0.23107150
v 0.43937440 2.50809204 0.26018578
v 0.42667751 2.47398729 0.26109125
v 0.46054647 2.48261859 0.26174243
v 0.46757200 2.45158531 0.26358242
v 0.43529460 2.44335971 0.26296190
v 0.11373966 3.69664806 0.23325687
v 0.40943328 2.53427849 0.26080653
v 0.26087420 3.11539563 0.25181934
v 0.41627563 2.50556474 0.26395190
v 0.10600131 3.72525088 0.23504381
v 0.11117990 3.69855402 0.34114213
v 0.40687353 2.53618445 0.36869180
v 0.25854218 3.11713194 0.35010634
v 0.41383325 2.50738324 0.36688992
v 0.10355893 3.72706937 0.33798180
v 0.15114720 3.70618115 0.23397603
v 0.44684082 2.54381158 0.26152570
v 0.26466788 3.26207414 0.24931818
v 0.45446180 2.51529623 0.26468603
v 0.14418747 3.73498236 0.23577791
v 0.14858744 3.70808711 0.34186130
v 0.44428107 2.54571754 0.36941096
v 0.26233586 3.26381046 0.34760521
v 0.45201941 2.51711472 0.36762406
v 0.14174509 3.73680086 0.33871590
v 0.47058709 2.43901093 0.36687123
v 0.47290746 2.43728319 0.26907492
v 0.47014312 2.45156220 0.27105697
v 0.46793177 2.45320866 0.36425757
v 0.47285730 2.43041246 0.31813606
v 0.43493744 2.42992586 0.36618589
v 0.43725782 2.42819834 0.26838952
v 0.43278014 2.44204042 0.27033870
v 0.43056880 2.44368687 0.36353926
v 0.43881840 2.42173788 0.31748168
v 0.12076290 3.81416725 0.33427828
v 0.12308327 3.81243974 0.23648194
v 0.12745194 3.79867873 0.23912857
v 0.12524059 3.80032518 0.33232916
v 0.11920233 3.82062772 0.28518615
v 0.08511326 3.80508241 0.33359291
v 0.08743364 3.80335467 0.23579659
v 0.09008896 3.78915694 0.23841026
v 0.08787762 3.79080340 0.33161086
v 0.08516342 3.81195314 0.28453177
v 0.11272059 3.69969209 0.34288884
v 0.14662811 3.70833325 0.34354070
v 0.40875080 2.53599937 0.37046987
v 0.44265833 2.54464052 0.37112174
v 0.09161432 3.77929662 0.33920815
v 0.25953353 3.11752458 0.35603822
v 0.09611537 3.75799558 0.33884698
v 0.12719325 3.78836366 0.33989216
v 0.26310481 3.25560416 0.35368372
v 0.13344833 3.76750967 0.33956471
v 0.10660118 3.80961442 0.33759500
v 0.12516193 3.79898840 0.33712171
v 0.11737965 3.82048173 0.33414218
v 0.08841325 3.78962317 0.33641521
v 0.08506554 3.81224675 0.33352093
v 0.42826975 2.45590639 0.37057421
v 0.42205474 2.47673047 0.36921461
v 0.46384869 2.46497344 0.37125822
v 0.45938769 2.48624456 0.36993234
v 0.45593393 2.43638983 0.37014218
v 0.46716994 2.45455734 0.36898646
v 0.47063218 2.43184842 0.36705456
v 0.43042126 2.44519211 0.36827996
v 0.43831807 2.42361344 0.36643331
v 0.11536239 3.69772508 0.23154609
v 0.14926992 3.70636623 0.23219795
v 0.41139260 2.53403235 0.25912710
v 0.44530013 2.54267350 0.25977896
v 0.09417203 3.77739216 0.23140961
v 0.26214602 3.11557968 0.24593093
v 0.09863305 3.75612104 0.23273552
v 0.12975096 3.78645921 0.23209362
v 0.26571729 3.25365903 0.24357642
v 0.13596600 3.76563513 0.23345322
v 0.10909094 3.80776084 0.23266028
v 0.12759947 3.79717349 0.23438787
v 0.11970266 3.81875215 0.23623451
v 0.09085078 3.78780826 0.23368137
v 0.08738855 3.81051718 0.23561328
v 0.43082747 2.45400194 0.26277568
v 0.42457241 2.47485593 0.26310312
v 0.46640641 2.46306898 0.26345968
v 0.46190537 2.48437002 0.26382085
v 0.45842368 2.43453602 0.26520748
v 0.46960747 2.45274244 0.26625259
v 0.47295517 2.43011885 0.26914690
v 0.43285879 2.44337720 0.26554613
v 0.44064106 2.42188388 0.26852565
v 0.41615085 2.50490781 0.26878043
v 0.10552335 3.72598228 0.23983941
v 0.41393697 2.50655637 0.36208710
v 0.10330948 3.72763084 0.33314605
v 0.42640511 2.46196691 0.31647650
v 0.09348310 3.77068092 0.28545827
v 0.45471125 2.51473476 0.26952178
v 0.14408374 3.73580923 0.24058072
v 0.45249736 2.51638332 0.36282842
v 0.14186989 3.73745779 0.33388740
v 0.46453764 2.47168469 0.31720959
v 0.13161563 3.78039869 0.28619136
f 1 47 44
f 1 44 43
f 1 43 45
f 1 45 46
f 1 46 47
f 2 49 52
f 6 72 70
f 12 102 99
f 11 96 95
f 8 79 81
f 4 62 59
f 4 59 58
f 4 58 60
f 4 60 61
f 4 61 62
f 5 66 65
f 3 54 57
f 7 73 77
f 9 85 86
f 10 92 88
f 12 101 98
f 6 69 68
f 2 50 48
f 8 82 78
f 11 97 93
f 6 71 69
f 12 100 101
f 11 94 97
f 8 80 82
f 2 51 50
f 10 90 89
f 5 63 64
f 3 55 53
f 7 76 74
f 9 87 84
f 10 91 90
f 5 67 63
f 3 56 55
f 7 75 76
f 9 83 87
f 6 68 72
f 2 48 49
f 8 78 79
f 11 93 96
f 12 98 102
f 10 88 91
f 5 65 67
f 3 57 56
f 7 77 75
f 9 86 83
f 5 64 66
f 3 53 54
f 7 74 73
f 9 84 85
f 10 89 92
f 6 70 71
f 12 99 100
f 11 95 94
f 8 81 80
f 2 52 51
f 35 109 116
f 18 105 108
f 19 111 106
f 40 114 112
f 42 117 115
f 34 125 119
f 33 152 156
f 25 137 139
f 36 158 160
f 20 123 120
f 32 143 149
f 23 127 132
f 24 135 128
f 37 147 145
f 41 150 148
f 34 153 155
f 33 140 133
f 25 138 134
f 36 159 157
f 20 122 124
f 17 107 47
f 14 103 44
f 13 104 43
f 15 110 45
f 16 113 46
f 18 118 49
f 35 154 72
f 42 141 102
f 40 162 96
f 19 121 79
f 30 142 62
f 27 129 59
f 22 130 58
f 28 144 60
f 29 146 61
f 32 151 66
f 23 131 54
f 24 136 73
f 37 161 85
f 41 126 92
f 35 116 101
f 18 108 69
f 19 106 50
f 40 112 82
f 42 115 97
f 34 119 71
f 33 156 100
f 25 139 94
f 36 160 80
f 20 120 51
f 32 149 90
f 23 132 63
f 24 128 55
f 37 145 76
f 41 148 87
f 34 155 91
f 33 133 67
f 25 134 56
f 36 157 75
f 20 124 83
f 14 109 68
f 13 105 48
f 15 111 78
f 16 114 93
f 17 117 98
f 21 125 88
f 31 152 65
f 26 137 57
f 38 158 77
f 39 123 86
f 27 143 64
f 22 127 53
f 28 135 74
f 29 147 84
f 30 150 89
f 31 153 70
f 26 140 99
f 38 138 95
f 39 159 81
f 21 122 52
f 14 107 109
f 13 103 105
f 15 104 111
f 16 110 114
f 17 113 117
f 21 118 125
f 31 154 152
f 26 141 137
f 38 162 158
f 39 121 123
f 27 142 143
f 22 129 127
f 28 130 135
f 29 144 147
f 30 146 150
f 31 151 153
f 26 131 140
f 38 136 138
f 39 161 159
f 21 126 122
f 14 44 107
f 13 43 103
f 15 45 104
f 16 46 110
f 17 47 113
f 21 52 118
f 31 70 154
f 26 99 141
f 38 95 162
f 39 81 121
f 27 59 142
f 22 58 129
f 28 60 130
f 29 61 144
f 30 62 146
f 31 65 151
f 26 57 131
f 38 77 136
f 39 86 161
f 21 88 126
f 17 98 116
f 14 68 108
f 13 48 106
f 15 78 112
f 16 93 115
f 18 69 119
f 35 101 156
f 42 97 139
f 40 82 160
f 19 50 120
f 30 89 149
f 27 64 132
f 22 53 128
f 28 74 145
f 29 84 148
f 32 90 155
f 23 63 133
f 24 55 134
f 37 76 157
f 41 87 124
f 35 72 109
f 18 49 105
f 19 79 111
f 40 96 114
f 42 102 117
f 34 91 125
f 33 67 152
f 25 56 137
f 36 75 158
f 20 83 123
f 32 66 143
f 23 54 127
f 24 73 135
f 37 85 147
f 41 92 150
f 34 71 153
f 33 100 140
f 25 94 138
f 36 80 159
f 20 51 122
f 17 116 107
f 14 108 103
f 13 106 104
f 15 112 110
f 16 115 113
f 18 119 118
f 35 156 154
f 42 139 141
f 40 160 162
f 19 120 121
f 30 149 142
f 27 132 129
f 22 128 130
f 28 145 144
f 29 148 146
f 32 155 151
f 23 133 131
f 24 134 136
f 37 157 161
f 41 124 126
f 107 44 47
f 103 43 44
f 104 45 43
f 110 46 45
f 113 47 46
f 118 52 49
f 154 70 72
f 141 99 102
f 162 95 96
f 121 81 79
f 142 59 62
f 129 58 59
f 130 60 58
f 144 61 60
f 146 62 61
f 151 65 66
f 131 57 54
f 136 77 73
f 161 86 85
f 126 88 92
f 116 98 101
f 108 68 69
f 106 48 50
f 112 78 82
f 115 93 97
f 119 69 71
f 156 101 100
f 139 97 94
f 160 82 80
f 120 50 51
f 149 89 90
f 132 64 63
f 128 53 55
f 145 74 76
f 148 84 87
f 155 90 91
f 133 63 67
f 134 55 56
f 157 76 75
f 124 87 83
f 109 72 68
f 105 49 48
f 111 79 78
f 114 96 93
f 117 102 98
f 125 91 88
f 152 67 65
f 137 56 57
f 158 75 77
f 123 83 86
f 143 66 64
f 127 54 53
f 135 73 74
f 147 85 84
f 150 92 89
f 153 71 70
f 140 100 99
f 138 94 95
f 159 80 81
f 122 51 52
f 107 116 109
f 103 108 105
f 104 106 111
f 110 112 114
f 113 115 117
f 118 119 125
f 154 156 152
f 141 139 137
f 162 160 158
f 121 120 123
f 142 149 143
f 129 132 127
f 130 128 135
f 144 145 147
f 146 148 150
f 151 155 153
f 131 133 140
f 136 134 138
f 161 157 159
f 126 124 122

