# https://github.com/mikedh/trimesh
v 3.27371677 3.77356350 1.69039795
v 3.00755714 4.78744333 1.67180682
v 3.28001919 3.77737154 1.80783457
v 3.01385980 4.79125138 1.78924344
v 3.12445931 4.27838461 1.79716743
v 3.11845313 4.27475606 1.68524952
v 3.18995994 4.18360170 1.79672550
v 3.18395377 4.17997267 1.68480763
v 3.01893158 4.81820900 1.72914806
v 2.98270743 4.80874110 1.73139904
v 3.29821538 3.75433460 1.74865586
v 3.26199122 3.74486671 1.75090684
v 3.14080664 4.28053039 1.68013135
v 3.24549705 3.79422785 1.69153765
v 3.28154036 3.80364883 1.68929782
v 3.29359048 3.75494885 1.69298574
v 3.25924092 3.74597064 1.69512026
v 2.99311168 4.75563836 1.67390868
v 3.02915501 4.76505888 1.67166889
v 3.01570564 4.81349441 1.67357559
v 2.98135608 4.80451619 1.67571011
v 3.14721189 4.28440035 1.79948260
v 3.25176781 3.79801683 1.80838601
v 3.28781112 3.80743757 1.80614619
v 3.29956672 3.75855976 1.80434476
v 3.26521717 3.74958153 1.80647929
v 2.99938244 4.75942710 1.79075705
v 3.03542576 4.76884762 1.78851726
v 3.02168189 4.81710507 1.78493464
v 2.98733232 4.80812685 1.78706916
v 3.12114625 4.27648919 1.74122770
v 2.99198400 4.78272440 1.78501641
v 3.25681430 3.77390708 1.80351470
v 2.98628851 4.77928354 1.67889037
v 3.25111881 3.77046598 1.69738868
v 3.18771491 4.18016077 1.74077870
v 3.02980399 4.79260973 1.78266622
v 3.29463429 3.78379217 1.80116453
v 3.02410851 4.78916887 1.67654018
v 3.28893881 3.78035131 1.69503849
v 3.00209061 4.82307464 1.72989407
v 3.28592770 3.74185538 1.74971996
v 3.26503774 3.80559449 1.68909600
v 3.25097448 3.77791952 1.69139453
v 3.28473508 3.78674367 1.68929660
v 3.29028043 3.76267466 1.69098312
v 3.25810638 3.75426514 1.69298244
v 3.01573685 4.75525506 1.67168254
v 2.98987662 4.77251905 1.67315696
v 3.02363698 4.78134296 1.67105906
v 3.01663367 4.80507535 1.67186905
v 2.98445985 4.79666559 1.67386837
v 3.27141825 3.80944936 1.80798517
v 3.25728583 3.78173275 1.80899583
v 3.29104619 3.79055688 1.80689792
v 3.29646295 3.76641012 1.80618653
v 3.26428914 3.75800060 1.80818583
v 3.02211712 4.75911016 1.79057157
v 2.99618773 4.77633228 1.79075827
v 3.02994833 4.78515619 1.78866037
v 3.02281642 4.80881057 1.78707246
v 2.99064238 4.80040081 1.78907179
v 3.24310485 3.82827256 1.80697525
v 3.00670551 4.72878818 1.79046291
v 3.12403399 4.27820848 1.79363758
v 3.00034733 4.75080337 1.78744159
v 3.24840369 3.80588335 1.80476826
v 3.23692980 3.82454173 1.69190910
v 3.00053022 4.72505687 1.67539668
v 3.11840815 4.27480929 1.68880860
v 2.99445539 4.74724347 1.67765197
v 3.24251175 3.80232345 1.69497863
v 3.28039258 3.83801884 1.80465821
v 3.04399300 4.73853420 1.78814577
v 3.19034478 4.18225293 1.79319023
v 3.03841106 4.76075202 1.78507628
v 3.28646741 3.81583247 1.80240291
v 3.27421730 3.83428776 1.68959197
v 3.03781795 4.73480289 1.67307967
v 3.18471894 4.17885374 1.68836125
v 3.03251912 4.75719212 1.67528666
v 3.28057548 3.81227257 1.69261329
v 3.01559242 4.81717375 1.67700294
v 3.02119023 4.82055601 1.78130858
v 3.02476390 4.80983821 1.77900389
v 3.01942919 4.80661523 1.67959975
v 3.01605718 4.82448828 1.72909864
v 2.98005706 4.80788597 1.67921111
v 2.98565488 4.81126776 1.78351691
v 2.98752073 4.80010392 1.78131829
v 2.98218602 4.79688047 1.68191418
v 2.98212743 4.81561982 1.73120718
v 3.29526793 3.75180771 1.69653801
v 3.30086574 3.75518973 1.80084379
v 3.29873679 3.76619524 1.79814072
v 3.29340208 3.76297178 1.69873661
v 3.29879538 3.74745565 1.74884773
v 3.25973258 3.74251970 1.69874632
v 3.26533039 3.74590172 1.80305198
v 3.26149361 3.75646048 1.80045515
v 3.25615890 3.75323750 1.70105100
v 3.26486563 3.73858719 1.75095628
v 3.23870982 3.82442527 1.68996628
v 3.27250853 3.83325950 1.68786592
v 3.00204119 4.72596581 1.67343503
v 3.03583990 4.73480004 1.67133480
v 3.25421750 3.76240818 1.69304240
v 3.11919788 4.27489967 1.68243489
v 3.24910789 3.77852649 1.69369723
v 3.28968234 3.77167766 1.69083856
v 3.18162111 4.18456952 1.68201380
v 3.28632128 3.78825305 1.69138473
v 3.28059029 3.74870098 1.69360482
v 3.29254989 3.76376735 1.69365277
v 3.29497267 3.74615083 1.69667777
v 3.25591903 3.75419274 1.69592901
v 3.26276216 3.73773170 1.69867931
v 2.98507003 4.78766989 1.67424257
v 2.98852774 4.77115309 1.67549589
v 3.02053510 4.79693937 1.67203873
v 3.02574113 4.78087942 1.67318341
v 3.00130768 4.81257059 1.67409700
v 3.01912338 4.80533012 1.67455396
v 3.01255633 4.82195790 1.67695114
v 2.98249251 4.79575530 1.67683035
v 2.98034583 4.81353876 1.67895268
v 3.24508290 3.82827590 1.80872008
v 3.27888162 3.83711014 1.80661984
v 3.00841428 4.72981621 1.79218897
v 3.04221299 4.73865042 1.79008862
v 3.26038770 3.76613610 1.80801619
v 3.12550029 4.27870768 1.79987104
v 3.25518168 3.78219605 1.80687151
v 3.29585278 3.77540581 1.80581231
v 3.18792352 4.18837753 1.79944995
v 3.29239507 3.79192261 1.80455901
v 3.28659673 3.75232988 1.80552401
v 3.29843029 3.76732017 1.80322457
v 3.30057698 3.74953671 1.80110222
v 3.26179943 3.75774557 1.80550093
v 3.26836648 3.74111781 1.80310375
v 2.99124047 4.79139804 1.78921634
v 2.99460153 4.77482242 1.78867018
v 3.02670530 4.80066753 1.78701250
v 3.03181491 4.78454922 1.78635767
v 3.00731413 4.81619973 1.78601630
v 3.02500378 4.80888296 1.78412589
v 3.01816065 4.82534401 1.78137559
v 2.98837292 4.79930812 1.78640214
v 2.98595013 4.81692487 1.78337713
v 2.99974407 4.75112573 1.78230713
v 3.24808273 3.80513039 1.79965356
v 2.99440324 4.74789888 1.68278992
v 3.24274189 3.80190353 1.70013623
v 2.98837487 4.78351622 1.73191277
v 3.25453758 3.76962444 1.75050418
v 3.03818092 4.76117241 1.77991865
v 3.28651957 3.81517682 1.79726497
v 3.03284008 4.75794555 1.68040132
v 3.28117873 3.81194998 1.69774777
v 3.02638523 4.79345126 1.72955072
v 3.29254794 3.77955949 1.74814213
f 1 47 44
f 1 44 43
f 1 43 45
f 1 45 46
f 1 46 47
f 2 49 52
f 6 72 70
f 12 102 99
f 11 96 95
f 8 79 81
f 4 62 59
f 4 59 58
f 4 58 60
f 4 60 61
f 4 61 62
f 5 66 65
f 3 54 57
f 7 73 77
f 9 85 86
f 10 92 88
f 12 101 98
f 6 69 68
f 2 50 48
f 8 82 78
f 11 97 93
f 6 71 69
f 12 100 101
f 11 94 97
f 8 80 82
f 2 51 50
f 10 90 89
f 5 63 64
f 3 55 53
f 7 76 74
f 9 87 84
f 10 91 90
f 5 67 63
f 3 56 55
f 7 75 76
f 9 83 87
f 6 68 72
f 2 48 49
f 8 78 79
f 11 93 96
f 12 98 102
f 10 88 91
f 5 65 67
f 3 57 56
f 7 77 75
f 9 86 83
f 5 64 66
f 3 53 54
f 7 74 73
f 9 84 85
f 10 89 92
f 6 70 71
f 12 99 100
f 11 95 94
f 8 81 80
f 2 52 51
f 35 109 116
f 18 105 108
f 19 111 106
f 40 114 112
f 42 117 115
f 34 125 119
f 33 152 156
f 25 137 139
f 36 158 160
f 20 123 120
f 32 143 149
f 23 127 132
f 24 135 128
f 37 147 145
f 41 150 148
f 34 153 155
f 33 140 133
f 25 138 134
f 36 159 157
f 20 122 124
f 17 107 47
f 14 103 44
f 13 104 43
f 15 110 45
f 16 113 46
f 18 118 49
f 35 154 72
f 42 141 102
f 40 162 96
f 19 121 79
f 30 142 62
f 27 129 59
f 22 130 58
f 28 144 60
f 29 146 61
f 32 151 66
f 23 131 54
f 24 136 73
f 37 161 85
f 41 126 92
f 35 116 101
f 18 108 69
f 19 106 50
f 40 112 82
f 42 115 97
f 34 119 71
f 33 156 100
f 25 139 94
f 36 160 80
f 20 120 51
f 32 149 90
f 23 132 63
f 24 128 55
f 37 145 76
f 41 148 87
f 34 155 91
f 33 133 67
f 25 134 56
f 36 157 75
f 20 124 83
f 14 109 68
f 13 105 48
f 15 111 78
f 16 114 93
f 17 117 98
f 21 125 88
f 31 152 65
f 26 137 57
f 38 158 77
f 39 123 86
f 27 143 64
f 22 127 53
f 28 135 74
f 29 147 84
f 30 150 89
f 31 153 70
f 26 140 99
f 38 138 95
f 39 159 81
f 21 122 52
f 14 107 109
f 13 103 105
f 15 104 111
f 16 110 114
f 17 113 117
f 21 118 125
f 31 154 152
f 26 141 137
f 38 162 158
f 39 121 123
f 27 142 143
f 22 129 127
f 28 130 135
f 29 144 147
f 30 146 150
f 31 151 153
f 26 131 140
f 38 136 138
f 39 161 159
f 21 126 122
f 14 44 107
f 13 43 103
f 15 45 104
f 16 46 110
f 17 47 113
f 21 52 118
f 31 70 154
f 26 99 141
f 38 95 162
f 39 81 121
f 27 59 142
f 22 58 129
f 28 60 130
f 29 61 144
f 30 62 146
f 31 65 151
f 26 57 131
f 38 77 136
f 39 86 161
f 21 88 126
f 17 98 116
f 14 68 108
f 13 48 106
f 15 78 112
f 16 93 115
f 18 69 119
f 35 101 156
f 42 97 139
f 40 82 160
f 19 50 120
f 30 89 149
f 27 64 132
f 22 53 128
f 28 74 145
f 29 84 148
f 32 90 155
f 23 63 133
f 24 55 134
f 37 76 157
f 41 87 124
f 35 72 109
f 18 49 105
f 19 79 111
f 40 96 114
f 42 102 117
f 34 91 125
f 33 67 152
f 25 56 137
f 36 75 158
f 20 83 123
f 32 66 143
f 23 54 127
f 24 73 135
f 37 85 147
f 41 92 150
f 34 71 153
f 33 100 140
f 25 94 138
f 36 80 159
f 20 51 122
f 17 116 107
f 14 108 103
f 13 106 104
f 15 112 110
f 16 115 113
f 18 119 118
f 35 156 154
f 42 139 141
f 40 160 162
f 19 120 121
f 30 149 142
f 27 132 129
f 22 128 130
f 28 145 144
f 29 148 146
f 32 155 151
f 23 133 131
f 24 134 136
f 37 157 161
f 41 124 126
f 107 44 47
f 103 43 44
f 104 45 43
f 110 46 45
f 113 47 46
f 118 52 49
f 154 70 72
f 141 99 102
f 162 95 96
f 121 81 79
f 142 59 62
f 129 58 59
f 130 60 58
f 144 61 60
f 146 62 61
f 151 65 66
f 131 57 54
f 136 77 73
f 161 86 85
f 126 88 92
f 116 98 101
f 108 68 69
f 106 48 50
f 112 78 82
f 115 93 97
f 119 69 71
f 156 101 100
f 139 97 94
f 160 82 80
f 120 50 51
f 149 89 90
f 132 64 63
f 128 53 55
f 145 74 76
f 148 84 87
f 155 90 91
f 133 63 67
f 134 55 56
f 157 76 75
f 124 87 83
f 109 72 68
f 105 49 48
f 111 79 78
f 114 96 93
f 117 102 98
f 125 91 88
f 152 67 65
f 137 56 57
f 158 75 77
f 123 83 86
f 143 66 64
f 127 54 53
f 135 73 74
f 147 85 84
f 150 92 89
f 153 71 70
f 140 100 99
f 138 94 95
f 159 80 81
f 122 51 52
f 107 116 109
f 103 108 105
f 104 106 111
f 110 112 114
f 113 115 117
f 118 119 125
f 154 156 152
f 141 139 137
f 162 160 158
f 121 120 123
f 142 149 143
f 129 132 127
f 130 128 135
f 144 145 147
f 146 148 150
f 151 155 153
f 131 133 140
f 136 134 138
f 161 157 159
f 126 124 122

