# Created by Open3D 
# object name: part_102
# number of vertices: 162
# number of triangles: 320
v -1.28199 4.47607 0.795622
vn 0.304623 0.931081 0.200732
v -1.27425 4.46839 0.814064
vn 0.139452 0.896809 0.419866
v -1.26587 4.46753 0.807151
vn 0.425264 0.881957 0.203232
v -1.27218 4.47347 0.785622
vn 0.440539 0.895845 0.0582012
v -1.28818 4.48008 0.782772
vn 0.277182 0.959847 0.0431793
v -1.29552 4.48035 0.790831
vn 0.056055 0.941025 0.333662
v -0.999397 4.35111 0.472629
vn 0.57362 0.81214 -0.10672
v -0.988646 4.34495 0.490301
vn 0.582739 0.812327 0.0232464
v -0.983707 4.33992 0.481986
vn 0.728597 0.636304 -0.253503
v -1.12869 4.39981 0.649957
vn 0.656766 -0.301423 0.691232
v -1.26143 4.45592 0.800374
vn 0.645355 -0.323706 0.691904
v -1.13208 4.3927 0.649747
vn 0.632847 -0.35174 0.689771
v -1.33346 4.35472 0.812786
vn 0.482741 -0.287812 0.827118
v -1.33605 4.35596 0.814054
vn -0.459774 0.184791 0.868597
v -1.386 4.25151 0.807197
vn 0.36461 -0.244389 0.898518
v -1.3574 4.3682 0.786628
vn -0.750828 0.40635 -0.520708
v -1.30526 4.46571 0.788354
vn -0.683998 0.380139 -0.622608
v -1.40457 4.26857 0.777722
vn -0.68557 0.377014 -0.622779
v -1.183 4.42685 0.655869
vn -0.603257 0.407634 -0.685504
v -1.0265 4.36144 0.479499
vn -0.560042 0.478518 -0.676293
v -1.02321 4.35362 0.471863
vn -0.614537 0.385278 -0.688408
v -1.11673 4.11821 0.460069
vn -0.304622 -0.931081 -0.200733
v -1.09881 4.11145 0.469664
vn -0.0649288 -0.938748 -0.338433
v -1.10615 4.11172 0.477723
vn -0.304952 -0.949658 -0.0717894
v -1.12627 4.12065 0.470372
vn -0.440538 -0.895845 -0.0582022
v -1.12846 4.12428 0.453344
vn -0.449078 -0.863115 -0.230999
v -1.12007 4.12342 0.446431
vn -0.142832 -0.892202 -0.428455
v -1.24051 4.17786 0.637987
vn 0.603259 -0.40763 0.685504
v -1.10774 4.12173 0.487608
vn 0.616153 -0.386182 0.686454
v -1.23682 4.1848 0.638535
vn 0.629409 -0.358566 0.689402
v -1.39933 4.24317 0.783061
vn -0.573619 -0.81214 0.106719
v -1.38337 4.2343 0.794573
vn -0.462436 -0.880025 0.108207
v -1.38936 4.23992 0.801743
vn -0.65407 -0.678243 0.33493
v -1.29482 4.2049 0.643899
vn -0.656764 0.301428 -0.691232
v -1.39247 4.24423 0.75407
vn -0.690169 0.222588 -0.688565
v -1.39628 4.25234 0.761145
vn -0.647576 0.324395 -0.689503
v -1.06087 4.23708 0.447709
vn -0.482745 0.287814 -0.827116
v -1.11368 4.13995 0.445248
vn -0.573281 0.327364 -0.751121
v -1.01437 4.33709 0.455879
vn -0.571704 0.330488 -0.750955
v -1.03693 4.22361 0.473867
vn 0.750828 -0.40635 0.520709
v -1.03585 4.22323 0.470943
vn 0.766719 -0.357518 -0.533219
v -0.98484 4.32707 0.478958
vn 0.817522 -0.420831 0.393139
v -1.28064 4.45186 0.815248
vn 0.57328 -0.327363 0.751121
v -1.28179 4.45837 0.818353
vn 0.374431 -0.224911 0.899565
v -1.00186 4.34758 0.506425
vn 0.689711 -0.223631 0.688686
v -1.25286 4.45856 0.793303
vn 0.688544 -0.223119 0.690019
v -1.01096 4.35751 0.465922
vn 0.434327 0.890363 -0.136431
v -1.00748 4.35643 0.483088
vn 0.458197 0.888037 0.0380164
v -1.28658 4.47007 0.772887
vn -0.616276 0.386524 -0.686152
v -1.2775 4.47243 0.766377
vn -0.560086 0.480793 -0.674642
v -1.35847 4.36858 0.789553
vn -0.808739 0.383389 0.446042
v -1.30527 4.47159 0.792692
vn -0.807714 0.440311 -0.392077
v -0.99805 4.33946 0.49935
vn 0.647216 -0.324526 0.689778
v -1.37996 4.25472 0.804616
vn 0.571704 -0.330488 0.750955
v -1.40949 4.26473 0.781537
vn -0.817523 0.420831 -0.393139
v -1.18706 4.42007 0.655733
vn -0.629409 0.358565 -0.689402
v -1.00497 4.35189 0.458752
vn 0.648736 0.678956 -0.343744
v -1.08907 4.1261 0.472142
vn 0.683998 -0.380139 0.622608
v -1.08906 4.12022 0.467803
vn 0.807713 -0.440311 0.392079
v -1.36782 4.23036 0.780996
vn 0.559491 -0.479284 0.676207
v -1.11683 4.11938 0.494118
vn 0.560656 -0.479801 0.674875
v -1.40568 4.24686 0.770194
vn -0.606223 -0.793633 -0.0513868
v -1.39096 4.23769 0.772907
vn -0.458198 -0.888037 -0.0380155
v -1.1329 4.13589 0.460121
vn -0.645443 0.323934 -0.691716
v -1.14147 4.13325 0.467192
vn -0.688246 0.224042 -0.690016
v -1.05828 4.23584 0.446441
vn 0.380837 -0.142597 -0.913581
v -1.11254 4.13343 0.442142
vn -0.374432 0.224912 -0.899564
v -0.989751 4.32324 0.482773
vn 0.68557 -0.377014 0.622779
v -1.37112 4.23819 0.788632
vn 0.614293 -0.38536 0.688579
v -1.41062 4.25188 0.778509
vn -0.735497 -0.630138 0.248938
v -1.2918 4.21218 0.644521
vn -0.632848 0.351739 -0.689771
v -1.00833 4.34029 0.453298
vn -0.364614 0.24439 -0.898516
v -1.27224 4.45627 0.810268
vn 0.614724 -0.34133 0.711062
v -1.26666 4.46237 0.807847
vn 0.655541 -0.240572 0.715815
v -1.27548 4.46192 0.815239
vn 0.592564 -0.245469 0.767211
v -0.992894 4.34582 0.496371
vn 0.763455 0.0274507 0.645278
v -1.00103 4.35182 0.505199
vn 0.509934 0.852851 0.112311
v -1.12653 4.40562 0.649607
vn 0.759412 0.0387059 0.649458
v -1.01671 4.35923 0.470344
vn -0.394087 0.680111 -0.618179
v -1.17828 4.43139 0.655241
vn -0.393594 0.687457 -0.610316
v -1.02336 4.36439 0.480792
vn 0.352328 0.934131 -0.0571367
v -1.29724 4.47033 0.782958
vn -0.646958 0.368649 -0.66749
v -1.29969 4.47555 0.788787
vn -0.657368 0.457904 -0.598491
v -1.29126 4.47621 0.780975
vn -0.597625 0.464621 -0.653431
v -1.35019 4.36385 0.799908
vn -0.632222 0.279544 0.7226
v -1.28428 4.45975 0.818822
vn -0.580753 0.286805 0.761886
v -1.30557 4.47173 0.795562
vn -0.657789 0.330023 0.677051
v -0.991056 4.33194 0.488888
vn 0.652345 -0.357967 0.668062
v -0.985164 4.33356 0.483427
vn 0.733086 -0.307606 0.606599
v -0.989992 4.34004 0.491625
vn 0.70049 -0.260445 0.664441
v -1.37827 4.2458 0.798918
vn 0.609341 -0.352019 0.710483
v -1.36601 4.24837 0.789487
vn 0.629836 -0.355444 0.690628
v -1.3259 4.35131 0.80547
vn 0.612518 -0.346892 0.710273
v -1.41167 4.2571 0.780501
vn -0.970319 -0.0656218 0.232754
v -1.40365 4.25178 0.791201
vn -0.773938 -0.22888 0.590452
v -1.4099 4.26464 0.784394
vn -0.685964 0.274097 0.674036
v -1.23959 4.3162 0.650204
vn -0.631133 0.355155 -0.689592
v -1.39142 4.26266 0.761731
vn -0.632678 0.354974 -0.688267
v -1.29199 4.46002 0.772375
vn -0.631966 0.356388 -0.688191
v -1.00536 4.34748 0.45519
vn 0.429333 0.370045 -0.823857
v -1.00937 4.34718 0.456975
vn -0.516842 0.395767 -0.759107
v -1.00856 4.35333 0.460282
vn -0.34692 0.591133 -0.728154
v -1.09709 4.12147 0.477538
vn 0.646958 -0.36865 0.66749
v -1.10307 4.11559 0.479521
vn 0.597625 -0.464621 0.653431
v -1.09464 4.11626 0.471708
vn 0.657369 -0.457904 0.59849
v -1.37761 4.23258 0.790151
vn 0.394163 -0.678821 0.619546
v -1.37096 4.22742 0.779703
vn -0.388272 -0.921314 0.020622
v -1.24386 4.17272 0.637047
vn 0.393592 -0.68746 0.610315
v -1.40143 4.24598 0.764124
vn -0.764298 -0.0250648 -0.644376
v -1.29562 4.19849 0.642681
vn -0.759411 -0.0387019 -0.649459
v -1.3933 4.23999 0.755296
vn -0.530372 -0.836743 -0.136262
v -1.12209 4.13554 0.450227
vn -0.614724 0.34133 -0.711061
v -1.11885 4.12988 0.445256
vn -0.592564 0.245469 -0.767211
v -1.12766 4.12943 0.452648
vn -0.655541 0.240573 -0.715815
v -1.04883 4.2306 0.455463
vn 0.632222 -0.279544 -0.7226
v -1.08876 4.12007 0.464933
vn 0.652698 -0.327291 -0.683276
v -1.11005 4.13205 0.441673
vn 0.575144 -0.283517 -0.767351
v -1.00291 4.32914 0.498764
vn 0.632428 -0.354866 0.688553
v -1.0433 4.22636 0.482473
vn 0.649215 -0.363118 0.66833
v -1.38495 4.24462 0.80352
vn 0.516842 -0.395767 0.759107
v -1.37974 4.23793 0.795743
vn 0.55268 -0.444744 0.704804
v -1.40916 4.25825 0.777068
vn -0.733087 0.307605 -0.606599
v -1.4092 4.25167 0.774604
vn -0.828279 0.0701895 -0.555903
v -1.02831 4.34344 0.471008
vn -0.63 0.355514 -0.690442
v -1.12774 4.14608 0.460364
vn -0.630709 0.354107 -0.690517
v -0.995295 4.34262 0.464253
vn 0.773938 0.22888 -0.590452
v -1.00571 4.33915 0.452841
vn 0.60332 -0.227591 -0.764335
v -1.2777 4.46517 0.817216
vn -0.0813962 0.561949 0.823157
v -1.27089 4.46649 0.81251
vn 0.649257 0.00897612 0.760516
v -1.26086 4.46431 0.802649
vn 0.752428 0.0323472 0.65788
v -1.25231 4.46293 0.792404
vn 0.50636 0.85443 0.116396
v -1.13988 4.41557 0.634068
vn 0.449413 0.892028 0.0481142
v -1.27465 4.4755 0.767997
vn 0.360632 0.931812 -0.04088
v -1.28469 4.47771 0.776621
vn -0.407643 0.682891 -0.606208
v -1.29433 4.47968 0.7869
vn -0.52594 0.670301 -0.52353
v -1.30041 4.47794 0.792411
vn -0.535834 0.796801 0.279266
v -1.29182 4.47374 0.803171
vn -0.303345 0.705211 0.640827
v -0.985123 4.34014 0.485892
vn 0.828278 -0.0701893 0.555903
v -1.26658 4.44573 0.800131
vn 0.630546 -0.354033 0.690704
v -1.38861 4.25266 0.807654
vn -0.609063 0.230612 0.758855
v -1.35102 4.36545 0.778022
vn -0.649215 0.363118 -0.66833
v -1.01459 4.35388 0.464753
vn -0.55268 0.444743 -0.704804
v -1.09392 4.11386 0.468084
vn 0.481149 -0.786892 -0.386389
v -1.1 4.11212 0.473595
vn 0.52594 -0.6703 0.523531
v -1.10964 4.11409 0.483874
vn 0.405191 -0.683701 0.606937
v -1.11968 4.11631 0.492498
vn -0.384696 -0.922895 0.0165377
v -1.25913 4.17887 0.621303
vn -0.449413 -0.892028 -0.0481141
v -1.14202 4.12888 0.468091
vn -0.53648 -0.830059 -0.152285
v -1.13346 4.1275 0.457846
vn -0.753476 -0.0332893 -0.656633
v -1.12344 4.12531 0.447985
vn -0.649257 -0.00897788 -0.760516
v -1.11662 4.12664 0.443279
vn -0.00517171 -0.492372 -0.87037
v -1.10712 4.12067 0.452283
vn 0.303344 -0.705211 -0.640827
v -1.10234 4.13178 0.48812
vn 0.631717 -0.356276 0.688477
v -1.38576 4.23848 0.800213
vn 0.34692 -0.591133 0.728154
v -1.40433 4.25177 0.76887
vn -0.700491 0.260444 -0.66444
v -1.06842 4.24049 0.455025
vn -0.612518 0.346892 -0.710273
v -0.984424 4.32717 0.476101
vn 0.681008 -0.271097 -0.680245
v -0.982658 4.33471 0.479994
vn 0.934411 0.112801 -0.337865
v -1.1844 4.28872 0.644195
vn 0.631133 -0.355155 0.689592
v -1.38897 4.24432 0.805306
vn -0.534675 -0.337737 0.774633
v -1.40327 4.25987 0.771607
vn -0.652345 0.357967 -0.668061
v -1.01605 4.34601 0.461578
vn -0.609341 0.352018 -0.710484
f 1//1 2//2 3//3
f 1//1 3//3 4//4
f 1//1 4//4 5//5
f 1//1 5//5 6//6
f 1//1 6//6 2//2
f 7//7 8//8 9//9
f 10//10 11//11 12//12
f 13//13 14//14 15//15
f 16//16 17//17 18//18
f 19//19 20//20 21//21
f 22//22 23//23 24//24
f 22//22 24//24 25//25
f 22//22 25//25 26//26
f 22//22 26//26 27//27
f 22//22 27//27 23//23
f 28//28 29//29 30//30
f 31//31 32//32 33//33
f 34//34 35//35 36//36
f 37//37 38//38 39//39
f 40//40 41//41 42//42
f 13//13 43//43 44//44
f 10//10 45//45 46//46
f 7//7 47//47 48//48
f 19//19 49//49 50//50
f 16//16 51//51 52//52
f 10//10 53//53 45//45
f 13//13 54//54 43//43
f 16//16 55//55 51//51
f 19//19 56//56 49//49
f 7//7 57//57 47//47
f 40//40 58//58 59//59
f 28//28 60//60 61//61
f 31//31 62//62 63//63
f 34//34 64//64 65//65
f 37//37 66//66 67//67
f 40//40 68//68 58//58
f 28//28 69//69 60//60
f 31//31 70//70 62//62
f 34//34 71//71 64//64
f 37//37 72//72 66//66
f 10//10 46//46 11//11
f 7//7 48//48 8//8
f 19//19 50//50 20//20
f 16//16 52//52 17//17
f 13//13 44//44 14//14
f 40//40 42//42 68//68
f 28//28 30//30 69//69
f 31//31 33//33 70//70
f 34//34 36//36 71//71
f 37//37 39//39 72//72
f 28//28 61//61 29//29
f 31//31 63//63 32//32
f 34//34 65//65 35//35
f 37//37 67//67 38//38
f 40//40 59//59 41//41
f 10//10 12//12 53//53
f 13//13 15//15 54//54
f 16//16 18//18 55//55
f 19//19 21//21 56//56
f 7//7 9//9 57//57
f 73//73 74//74 75//75
f 76//76 77//77 78//78
f 79//79 80//80 81//81
f 82//82 83//83 84//84
f 85//85 86//86 87//87
f 88//88 89//89 90//90
f 91//91 92//92 93//93
f 94//94 95//95 96//96
f 97//97 98//98 99//99
f 100//100 101//101 102//102
f 103//103 104//104 105//105
f 106//106 107//107 108//108
f 109//109 110//110 111//111
f 112//112 113//113 114//114
f 115//115 116//116 117//117
f 88//88 118//118 119//119
f 91//91 120//120 121//121
f 94//94 122//122 123//123
f 97//97 124//124 125//125
f 100//100 126//126 127//127
f 128//128 129//129 2//2
f 130//130 131//131 3//3
f 132//132 133//133 4//4
f 134//134 135//135 5//5
f 136//136 137//137 6//6
f 76//76 138//138 8//8
f 73//73 139//139 11//11
f 85//85 140//140 14//14
f 82//82 141//141 17//17
f 79//79 142//142 20//20
f 143//143 144//144 23//23
f 145//145 146//146 24//24
f 147//147 148//148 25//25
f 149//149 150//150 26//26
f 151//151 152//152 27//27
f 103//103 153//153 29//29
f 106//106 154//154 32//32
f 109//109 155//155 35//35
f 112//112 156//156 38//38
f 115//115 157//157 41//41
f 73//73 75//75 43//43
f 76//76 78//78 45//45
f 79//79 81//81 47//47
f 82//82 84//84 49//49
f 85//85 87//87 51//51
f 88//88 90//90 53//53
f 91//91 93//93 54//54
f 94//94 96//96 55//55
f 97//97 99//99 56//56
f 100//100 102//102 57//57
f 103//103 105//105 58//58
f 106//106 108//108 60//60
f 109//109 111//111 62//62
f 112//112 114//114 64//64
f 115//115 117//117 66//66
f 88//88 119//119 68//68
f 91//91 121//121 69//69
f 94//94 123//123 70//70
f 97//97 125//125 71//71
f 100//100 127//127 72//72
f 130//130 74//74 46//46
f 132//132 77//77 48//48
f 134//134 80//80 50//50
f 136//136 83//83 52//52
f 128//128 86//86 44//44
f 158//158 89//89 42//42
f 159//159 92//92 30//30
f 160//160 95//95 33//33
f 161//161 98//98 36//36
f 162//162 101//101 39//39
f 145//145 104//104 61//61
f 147//147 107//107 63//63
f 149//149 110//110 65//65
f 151//151 113//113 67//67
f 143//143 116//116 59//59
f 159//159 118//118 12//12
f 160//160 120//120 15//15
f 161//161 122//122 18//18
f 162//162 124//124 21//21
f 158//158 126//126 9//9
f 130//130 129//129 74//74
f 132//132 131//131 77//77
f 134//134 133//133 80//80
f 136//136 135//135 83//83
f 128//128 137//137 86//86
f 158//158 138//138 89//89
f 159//159 139//139 92//92
f 160//160 140//140 95//95
f 161//161 141//141 98//98
f 162//162 142//142 101//101
f 145//145 144//144 104//104
f 147//147 146//146 107//107
f 149//149 148//148 110//110
f 151//151 150//150 113//113
f 143//143 152//152 116//116
f 159//159 153//153 118//118
f 160//160 154//154 120//120
f 161//161 155//155 122//122
f 162//162 156//156 124//124
f 158//158 157//157 126//126
f 130//130 3//3 129//129
f 132//132 4//4 131//131
f 134//134 5//5 133//133
f 136//136 6//6 135//135
f 128//128 2//2 137//137
f 158//158 9//9 138//138
f 159//159 12//12 139//139
f 160//160 15//15 140//140
f 161//161 18//18 141//141
f 162//162 21//21 142//142
f 145//145 24//24 144//144
f 147//147 25//25 146//146
f 149//149 26//26 148//148
f 151//151 27//27 150//150
f 143//143 23//23 152//152
f 159//159 30//30 153//153
f 160//160 33//33 154//154
f 161//161 36//36 155//155
f 162//162 39//39 156//156
f 158//158 42//42 157//157
f 128//128 44//44 75//75
f 130//130 46//46 78//78
f 132//132 48//48 81//81
f 134//134 50//50 84//84
f 136//136 52//52 87//87
f 76//76 45//45 90//90
f 73//73 43//43 93//93
f 85//85 51//51 96//96
f 82//82 49//49 99//99
f 79//79 47//47 102//102
f 143//143 59//59 105//105
f 145//145 61//61 108//108
f 147//147 63//63 111//111
f 149//149 65//65 114//114
f 151//151 67//67 117//117
f 103//103 58//58 119//119
f 106//106 60//60 121//121
f 109//109 62//62 123//123
f 112//112 64//64 125//125
f 115//115 66//66 127//127
f 73//73 11//11 74//74
f 76//76 8//8 77//77
f 79//79 20//20 80//80
f 82//82 17//17 83//83
f 85//85 14//14 86//86
f 88//88 68//68 89//89
f 91//91 69//69 92//92
f 94//94 70//70 95//95
f 97//97 71//71 98//98
f 100//100 72//72 101//101
f 103//103 29//29 104//104
f 106//106 32//32 107//107
f 109//109 35//35 110//110
f 112//112 38//38 113//113
f 115//115 41//41 116//116
f 88//88 53//53 118//118
f 91//91 54//54 120//120
f 94//94 55//55 122//122
f 97//97 56//56 124//124
f 100//100 57//57 126//126
f 128//128 75//75 129//129
f 130//130 78//78 131//131
f 132//132 81//81 133//133
f 134//134 84//84 135//135
f 136//136 87//87 137//137
f 76//76 90//90 138//138
f 73//73 93//93 139//139
f 85//85 96//96 140//140
f 82//82 99//99 141//141
f 79//79 102//102 142//142
f 143//143 105//105 144//144
f 145//145 108//108 146//146
f 147//147 111//111 148//148
f 149//149 114//114 150//150
f 151//151 117//117 152//152
f 103//103 119//119 153//153
f 106//106 121//121 154//154
f 109//109 123//123 155//155
f 112//112 125//125 156//156
f 115//115 127//127 157//157
f 129//129 3//3 2//2
f 131//131 4//4 3//3
f 133//133 5//5 4//4
f 135//135 6//6 5//5
f 137//137 2//2 6//6
f 138//138 9//9 8//8
f 139//139 12//12 11//11
f 140//140 15//15 14//14
f 141//141 18//18 17//17
f 142//142 21//21 20//20
f 144//144 24//24 23//23
f 146//146 25//25 24//24
f 148//148 26//26 25//25
f 150//150 27//27 26//26
f 152//152 23//23 27//27
f 153//153 30//30 29//29
f 154//154 33//33 32//32
f 155//155 36//36 35//35
f 156//156 39//39 38//38
f 157//157 42//42 41//41
f 75//75 44//44 43//43
f 78//78 46//46 45//45
f 81//81 48//48 47//47
f 84//84 50//50 49//49
f 87//87 52//52 51//51
f 90//90 45//45 53//53
f 93//93 43//43 54//54
f 96//96 51//51 55//55
f 99//99 49//49 56//56
f 102//102 47//47 57//57
f 105//105 59//59 58//58
f 108//108 61//61 60//60
f 111//111 63//63 62//62
f 114//114 65//65 64//64
f 117//117 67//67 66//66
f 119//119 58//58 68//68
f 121//121 60//60 69//69
f 123//123 62//62 70//70
f 125//125 64//64 71//71
f 127//127 66//66 72//72
f 74//74 11//11 46//46
f 77//77 8//8 48//48
f 80//80 20//20 50//50
f 83//83 17//17 52//52
f 86//86 14//14 44//44
f 89//89 68//68 42//42
f 92//92 69//69 30//30
f 95//95 70//70 33//33
f 98//98 71//71 36//36
f 101//101 72//72 39//39
f 104//104 29//29 61//61
f 107//107 32//32 63//63
f 110//110 35//35 65//65
f 113//113 38//38 67//67
f 116//116 41//41 59//59
f 118//118 53//53 12//12
f 120//120 54//54 15//15
f 122//122 55//55 18//18
f 124//124 56//56 21//21
f 126//126 57//57 9//9
f 129//129 75//75 74//74
f 131//131 78//78 77//77
f 133//133 81//81 80//80
f 135//135 84//84 83//83
f 137//137 87//87 86//86
f 138//138 90//90 89//89
f 139//139 93//93 92//92
f 140//140 96//96 95//95
f 141//141 99//99 98//98
f 142//142 102//102 101//101
f 144//144 105//105 104//104
f 146//146 108//108 107//107
f 148//148 111//111 110//110
f 150//150 114//114 113//113
f 152//152 117//117 116//116
f 153//153 119//119 118//118
f 154//154 121//121 120//120
f 155//155 123//123 122//122
f 156//156 125//125 124//124
f 157//157 127//127 126//126
