# Created by Open3D 
# object name: part_045
# number of vertices: 162
# number of triangles: 320
v 0.670138 5.56311 2.42508
vn 0.46705 0.884207 -0.00647447
v 0.68085 5.55604 2.40478
vn 0.589775 0.804091 -0.0748583
v 0.661752 5.56655 2.4043
vn 0.423147 0.900079 -0.103943
v 0.643759 5.57538 2.42533
vn 0.376243 0.926508 -0.00487429
v 0.662344 5.56649 2.43926
vn 0.425181 0.895045 0.134593
v 0.681414 5.55598 2.43809
vn 0.593393 0.802002 0.0683884
v -0.181793 5.90232 2.44006
vn 0.268404 0.963302 -0.00298182
v -0.173978 5.8993 2.419
vn 0.308214 0.945842 -0.101919
v -0.195046 5.90479 2.42019
vn 0.122192 0.990267 -0.0666394
v 0.241482 5.72698 2.40948
vn 0.00457474 0.0555836 -0.998444
v 0.637588 5.56668 2.40248
vn -0.00379633 0.0326874 -0.999458
v 0.238525 5.71956 2.40928
vn -0.015554 0.00509262 -0.999866
v 0.641842 5.43188 2.40315
vn 0.0797664 -0.0368496 -0.996132
v 0.64739 5.42968 2.40424
vn 0.816296 -0.327382 -0.475901
v 0.599021 5.32247 2.40405
vn 0.144046 -0.0744388 -0.986767
v 0.642477 5.43182 2.44065
vn 0.113449 -0.0400815 0.992735
v 0.675399 5.53924 2.44079
vn 0.0574306 -0.0159086 0.998223
v 0.592574 5.33118 2.44186
vn 0.0561611 -0.0190943 0.998239
v 0.33014 5.69188 2.44729
vn 0.0383894 0.0523464 0.997891
v -0.134883 5.88085 2.4551
vn 0.067892 0.127924 0.989457
v -0.155731 5.88276 2.45585
vn 0.0287879 0.0297613 0.999142
v -0.279642 5.65652 2.44132
vn -0.46705 -0.884207 0.00647447
v -0.291034 5.66366 2.42142
vn -0.592016 -0.803875 -0.0574617
v -0.271964 5.65315 2.42026
vn -0.426474 -0.899759 -0.09249
v -0.25327 5.64425 2.44064
vn -0.376243 -0.926508 0.00487429
v -0.271372 5.6531 2.45521
vn -0.420424 -0.895504 0.146
v -0.29047 5.6636 2.45473
vn -0.590786 -0.802249 0.0858369
v 0.148231 5.49273 2.41068
vn -0.0383894 -0.0523464 -0.997891
v -0.247876 5.65302 2.41762
vn -0.0300551 -0.0294437 -0.999114
v 0.15118 5.50015 2.4104
vn -0.0183144 -0.00184215 -0.999831
v 0.572289 5.31731 2.42634
vn -0.268404 -0.963302 0.00298182
v 0.563766 5.3204 2.40556
vn -0.31154 -0.945522 -0.0945012
v 0.584861 5.31491 2.40602
vn -0.124424 -0.990053 -0.0656839
v 0.236889 5.45763 2.44849
vn -0.00457521 -0.0555848 0.998443
v 0.525917 5.33873 2.44302
vn -0.035041 -0.133062 0.990488
v 0.546778 5.33682 2.44307
vn 0.00519195 -0.0335236 0.999424
v -0.251462 5.78776 2.45637
vn -0.0797664 0.0368496 0.996132
v -0.284366 5.68034 2.45728
vn -0.0235952 0.0126616 0.999641
v -0.201542 5.8884 2.45621
vn -0.022327 0.0158476 0.999625
v -0.252098 5.78782 2.41887
vn -0.113448 0.0400815 -0.992735
v -0.257606 5.79002 2.42015
vn -0.831928 0.328882 -0.446915
v -0.209264 5.89723 2.41867
vn -0.177377 0.0776398 -0.981076
v 0.674746 5.5393 2.40224
vn 0.0235952 -0.0126616 -0.999641
v 0.685929 5.54079 2.40293
vn 0.152325 -0.0536365 -0.986874
v -0.135537 5.88092 2.41649
vn 0.0346697 0.132026 -0.99064
v 0.621137 5.57963 2.40319
vn 0.0354969 0.131699 -0.990654
v -0.173386 5.89925 2.45395
vn 0.310517 0.940702 0.136595
v -0.154211 5.8931 2.43936
vn 0.363427 0.931611 -0.00464897
v 0.638255 5.56662 2.44189
vn 0.0303254 0.0296138 0.999101
v 0.621791 5.57957 2.44179
vn 0.0694748 0.129491 0.989144
v 0.647985 5.42962 2.43936
vn 0.754124 -0.297201 0.585636
v 0.686552 5.54074 2.43972
vn 0.185655 -0.0568352 0.98097
v -0.156398 5.88282 2.41645
vn -0.00511428 0.0332103 -0.999435
v 0.591921 5.33124 2.4033
vn 0.022327 -0.0158476 -0.999625
v 0.599644 5.32241 2.44084
vn 0.177377 -0.077639 0.981076
v 0.328279 5.68403 2.44755
vn 0.0183146 0.00184245 0.999831
v -0.194482 5.90474 2.4535
vn 0.122471 0.989506 0.0766678
v -0.285019 5.6804 2.41872
vn -0.0574305 0.0159086 -0.998223
v -0.296173 5.67891 2.41979
vn -0.185661 0.0568368 -0.980969
v 0.525263 5.33879 2.40442
vn -0.068204 -0.128807 -0.989321
v -0.231411 5.64007 2.41772
vn -0.0690322 -0.128483 -0.989306
v 0.564358 5.32034 2.44052
vn -0.305769 -0.941156 0.143982
v 0.5447 5.32653 2.4266
vn -0.363426 -0.931611 0.00464897
v -0.247208 5.65296 2.45703
vn 0.00397205 -0.0325788 0.999461
v -0.230757 5.64001 2.45633
vn -0.0351158 -0.130841 0.990781
v -0.257011 5.78996 2.45528
vn -0.733844 0.295255 0.611798
v -0.295549 5.67885 2.45658
vn -0.152325 0.0536365 0.986874
v -0.202195 5.88847 2.41766
vn -0.056161 0.0190943 -0.998239
v 0.54611 5.33688 2.40366
vn -0.0287366 -0.029965 -0.999138
v 0.585426 5.31485 2.43933
vn -0.119857 -0.989757 0.077561
v 0.240935 5.46461 2.44867
vn 0.0155536 -0.00509372 0.999866
v -0.208641 5.89717 2.45546
vn -0.144046 0.0744388 0.986767
v 0.662909 5.55216 2.40216
vn -0.00144567 0.00175253 -0.999997
v 0.659049 5.56225 2.40255
vn 0.0404393 0.0991092 -0.994255
v 0.678113 5.55029 2.40251
vn 0.0637006 0.0584621 -0.996255
v -0.160368 5.89297 2.41758
vn 0.124922 0.365885 -0.922238
v -0.134401 5.88494 2.41829
vn 0.365067 0.925216 -0.10345
v 0.243797 5.73275 2.41038
vn 0.131977 0.372039 -0.918787
v -0.159736 5.89291 2.45489
vn 0.157122 0.363778 0.918138
v 0.328289 5.6993 2.44641
vn 0.16302 0.369018 0.915014
v -0.133808 5.88489 2.45328
vn 0.366772 0.918511 0.147704
v 0.663573 5.5521 2.44131
vn 0.0324197 -0.00149821 0.999473
v 0.678755 5.55023 2.44044
vn 0.0974088 0.0552319 0.993711
v 0.659701 5.56218 2.44108
vn 0.0740941 0.0958872 0.992631
v 0.649509 5.42895 2.42544
vn 0.92894 -0.369871 -0.016334
v 0.690394 5.53917 2.40458
vn 0.942068 -0.307525 -0.133929
v 0.690959 5.53912 2.43792
vn 0.944171 -0.30751 0.11823
v -0.184768 5.88968 2.41706
vn -0.0280922 0.0123623 -0.999529
v -0.197079 5.89876 2.4179
vn -0.0362949 0.0982839 -0.994496
v -0.175024 5.89434 2.41722
vn 0.00857963 0.111796 -0.993694
v 0.574484 5.33003 2.40329
vn -0.00577317 -0.00911108 -0.999942
v 0.550838 5.34746 2.4034
vn -0.0165532 0.000643704 -0.999863
v 0.620827 5.44025 2.40259
vn -0.00393714 -0.00354918 -0.999986
v 0.593829 5.31617 2.44031
vn 0.237156 -0.781402 0.577207
v 0.595593 5.31472 2.42611
vn 0.293639 -0.955894 -0.00653182
v 0.603952 5.32055 2.43904
vn 0.897621 -0.424448 0.118827
v 0.284955 5.57418 2.44818
vn 0.0169343 -0.00162547 0.999855
v 0.551512 5.34739 2.4432
vn 0.0174916 -0.00268 0.999843
v 0.634431 5.55569 2.44213
vn 0.0180637 -0.00124282 0.999836
v -0.202847 5.90341 2.45476
vn -0.217442 0.779508 0.58744
v -0.196437 5.8987 2.45583
vn -0.00259311 0.0950445 0.99547
v -0.187348 5.90163 2.45507
vn 0.0745523 0.332143 0.940278
v -0.273193 5.66754 2.4182
vn -0.0324197 0.0014982 -0.999473
v -0.269322 5.65746 2.41843
vn -0.0740942 -0.0958874 -0.992631
v -0.288375 5.66941 2.41908
vn -0.0974087 -0.055232 -0.993711
v 0.550116 5.32674 2.40462
vn -0.15609 -0.362862 -0.918677
v 0.524188 5.33476 2.40624
vn -0.368411 -0.924894 -0.0940424
v 0.145948 5.48695 2.41163
vn -0.16302 -0.369018 -0.915014
v 0.550748 5.32668 2.44194
vn -0.123426 -0.36458 0.922956
v 0.230441 5.4535 2.44766
vn -0.131977 -0.37204 0.918787
v 0.524781 5.3347 2.44123
vn -0.362839 -0.921365 0.139407
v -0.27253 5.66748 2.45736
vn 0.00144567 -0.00175254 0.999997
v -0.287733 5.66935 2.457
vn -0.0637006 -0.0584621 0.996255
v -0.268669 5.6574 2.45696
vn -0.0404393 -0.0991092 0.994255
v -0.259005 5.79068 2.44142
vn -0.92894 0.369871 0.016334
v -0.300579 5.68053 2.42159
vn -0.946046 0.307907 -0.100951
v -0.300015 5.68047 2.45494
vn -0.93961 0.307072 0.15113
v -0.161133 5.87225 2.41632
vn -0.0173153 0.00260712 -0.999847
v -0.231114 5.77946 2.41757
vn -0.0299291 0.00680015 -0.999529
v 0.586817 5.32094 2.40369
vn 0.00259306 -0.0950445 -0.99547
v 0.564751 5.32536 2.40377
vn -0.0422314 -0.108562 -0.993192
v 0.587459 5.32088 2.44161
vn 0.0362942 -0.0982802 0.994497
v 0.57835 5.31796 2.44116
vn -0.0426882 -0.335199 0.94118
v -0.160459 5.87219 2.45611
vn 0.0166683 -0.000690921 0.999861
v -0.243377 5.66389 2.45718
vn 0.016099 -0.00212105 0.999868
v -0.205091 5.90491 2.44063
vn -0.293639 0.955894 0.00653198
v -0.213007 5.89904 2.45382
vn -0.893059 0.424011 0.150532
v 0.686012 5.54932 2.40356
vn 0.764306 0.448224 -0.463607
v 0.673525 5.55867 2.40321
vn 0.170796 0.284191 -0.943432
v 0.647474 5.57131 2.40337
vn 0.132767 0.362772 -0.922371
v 0.623135 5.58332 2.40496
vn 0.367659 0.924183 -0.103499
v 0.244974 5.73472 2.43279
vn 0.369844 0.929082 -0.00476252
v 0.623727 5.58326 2.43996
vn 0.370103 0.919854 0.129971
v 0.648107 5.57125 2.44069
vn 0.164125 0.357773 0.919272
v 0.674147 5.55861 2.43993
vn 0.202662 0.281134 0.938025
v 0.686615 5.54926 2.43912
vn 0.711306 0.409714 0.571119
v 0.688845 5.54898 2.42491
vn 0.870203 0.492496 -0.0139409
v -0.18797 5.90168 2.41836
vn 0.0426864 0.335199 -0.94118
v 0.633757 5.55575 2.40234
vn -0.015983 0.00207628 -0.99987
v 0.603387 5.3206 2.40569
vn 0.895216 -0.425219 -0.133328
v 0.621494 5.44018 2.44194
vn 0.0299291 -0.00680015 0.999529
v -0.174371 5.89428 2.45575
vn 0.0422314 0.108562 0.993192
v -0.296235 5.67038 2.42039
vn -0.779589 -0.446761 -0.438914
v -0.283767 5.66103 2.41959
vn -0.202662 -0.281134 -0.938026
v -0.257727 5.64839 2.41883
vn -0.163931 -0.359742 -0.918538
v -0.233348 5.63638 2.41956
vn -0.371004 -0.923861 -0.0940002
v 0.14553 5.48491 2.43407
vn -0.369844 -0.929082 0.00476252
v -0.232755 5.63632 2.45455
vn -0.364273 -0.917943 0.15712
v -0.257095 5.64833 2.45614
vn -0.132649 -0.364153 0.921844
v -0.283145 5.66097 2.45631
vn -0.170796 -0.284191 0.943432
v -0.295633 5.67033 2.45595
vn -0.691585 -0.411603 0.593542
v -0.298343 5.67065 2.44183
vn -0.870203 -0.492496 0.0139409
v -0.244051 5.66395 2.41738
vn -0.0178856 0.00117458 -0.999839
v 0.577728 5.31802 2.40444
vn -0.0745522 -0.332143 -0.940278
v 0.565403 5.3253 2.44229
vn -0.00857961 -0.111796 0.993694
v -0.230447 5.7794 2.45692
vn 0.00393714 0.00354918 0.999986
v -0.213572 5.8991 2.42047
vn -0.899195 0.4256 -0.101552
v -0.20345 5.90347 2.4192
vn -0.260832 0.856405 -0.445576
v 0.194851 5.60985 2.40976
vn -0.0169343 0.00162549 -0.999855
v 0.593227 5.31623 2.40475
vn 0.24556 -0.854935 -0.456932
v 0.575147 5.32997 2.44245
vn 0.0280922 -0.0123623 0.999529
v -0.184105 5.88961 2.45622
vn 0.00577317 0.00911107 0.999942
f 1//1 2//2 3//3
f 1//1 3//3 4//4
f 1//1 4//4 5//5
f 1//1 5//5 6//6
f 1//1 6//6 2//2
f 7//7 8//8 9//9
f 10//10 11//11 12//12
f 13//13 14//14 15//15
f 16//16 17//17 18//18
f 19//19 20//20 21//21
f 22//22 23//23 24//24
f 22//22 24//24 25//25
f 22//22 25//25 26//26
f 22//22 26//26 27//27
f 22//22 27//27 23//23
f 28//28 29//29 30//30
f 31//31 32//32 33//33
f 34//34 35//35 36//36
f 37//37 38//38 39//39
f 40//40 41//41 42//42
f 13//13 43//43 44//44
f 10//10 45//45 46//46
f 7//7 47//47 48//48
f 19//19 49//49 50//50
f 16//16 51//51 52//52
f 10//10 53//53 45//45
f 13//13 54//54 43//43
f 16//16 55//55 51//51
f 19//19 56//56 49//49
f 7//7 57//57 47//47
f 40//40 58//58 59//59
f 28//28 60//60 61//61
f 31//31 62//62 63//63
f 34//34 64//64 65//65
f 37//37 66//66 67//67
f 40//40 68//68 58//58
f 28//28 69//69 60//60
f 31//31 70//70 62//62
f 34//34 71//71 64//64
f 37//37 72//72 66//66
f 10//10 46//46 11//11
f 7//7 48//48 8//8
f 19//19 50//50 20//20
f 16//16 52//52 17//17
f 13//13 44//44 14//14
f 40//40 42//42 68//68
f 28//28 30//30 69//69
f 31//31 33//33 70//70
f 34//34 36//36 71//71
f 37//37 39//39 72//72
f 28//28 61//61 29//29
f 31//31 63//63 32//32
f 34//34 65//65 35//35
f 37//37 67//67 38//38
f 40//40 59//59 41//41
f 10//10 12//12 53//53
f 13//13 15//15 54//54
f 16//16 18//18 55//55
f 19//19 21//21 56//56
f 7//7 9//9 57//57
f 73//73 74//74 75//75
f 76//76 77//77 78//78
f 79//79 80//80 81//81
f 82//82 83//83 84//84
f 85//85 86//86 87//87
f 88//88 89//89 90//90
f 91//91 92//92 93//93
f 94//94 95//95 96//96
f 97//97 98//98 99//99
f 100//100 101//101 102//102
f 103//103 104//104 105//105
f 106//106 107//107 108//108
f 109//109 110//110 111//111
f 112//112 113//113 114//114
f 115//115 116//116 117//117
f 88//88 118//118 119//119
f 91//91 120//120 121//121
f 94//94 122//122 123//123
f 97//97 124//124 125//125
f 100//100 126//126 127//127
f 128//128 129//129 2//2
f 130//130 131//131 3//3
f 132//132 133//133 4//4
f 134//134 135//135 5//5
f 136//136 137//137 6//6
f 76//76 138//138 8//8
f 73//73 139//139 11//11
f 85//85 140//140 14//14
f 82//82 141//141 17//17
f 79//79 142//142 20//20
f 143//143 144//144 23//23
f 145//145 146//146 24//24
f 147//147 148//148 25//25
f 149//149 150//150 26//26
f 151//151 152//152 27//27
f 103//103 153//153 29//29
f 106//106 154//154 32//32
f 109//109 155//155 35//35
f 112//112 156//156 38//38
f 115//115 157//157 41//41
f 73//73 75//75 43//43
f 76//76 78//78 45//45
f 79//79 81//81 47//47
f 82//82 84//84 49//49
f 85//85 87//87 51//51
f 88//88 90//90 53//53
f 91//91 93//93 54//54
f 94//94 96//96 55//55
f 97//97 99//99 56//56
f 100//100 102//102 57//57
f 103//103 105//105 58//58
f 106//106 108//108 60//60
f 109//109 111//111 62//62
f 112//112 114//114 64//64
f 115//115 117//117 66//66
f 88//88 119//119 68//68
f 91//91 121//121 69//69
f 94//94 123//123 70//70
f 97//97 125//125 71//71
f 100//100 127//127 72//72
f 130//130 74//74 46//46
f 132//132 77//77 48//48
f 134//134 80//80 50//50
f 136//136 83//83 52//52
f 128//128 86//86 44//44
f 158//158 89//89 42//42
f 159//159 92//92 30//30
f 160//160 95//95 33//33
f 161//161 98//98 36//36
f 162//162 101//101 39//39
f 145//145 104//104 61//61
f 147//147 107//107 63//63
f 149//149 110//110 65//65
f 151//151 113//113 67//67
f 143//143 116//116 59//59
f 159//159 118//118 12//12
f 160//160 120//120 15//15
f 161//161 122//122 18//18
f 162//162 124//124 21//21
f 158//158 126//126 9//9
f 130//130 129//129 74//74
f 132//132 131//131 77//77
f 134//134 133//133 80//80
f 136//136 135//135 83//83
f 128//128 137//137 86//86
f 158//158 138//138 89//89
f 159//159 139//139 92//92
f 160//160 140//140 95//95
f 161//161 141//141 98//98
f 162//162 142//142 101//101
f 145//145 144//144 104//104
f 147//147 146//146 107//107
f 149//149 148//148 110//110
f 151//151 150//150 113//113
f 143//143 152//152 116//116
f 159//159 153//153 118//118
f 160//160 154//154 120//120
f 161//161 155//155 122//122
f 162//162 156//156 124//124
f 158//158 157//157 126//126
f 130//130 3//3 129//129
f 132//132 4//4 131//131
f 134//134 5//5 133//133
f 136//136 6//6 135//135
f 128//128 2//2 137//137
f 158//158 9//9 138//138
f 159//159 12//12 139//139
f 160//160 15//15 140//140
f 161//161 18//18 141//141
f 162//162 21//21 142//142
f 145//145 24//24 144//144
f 147//147 25//25 146//146
f 149//149 26//26 148//148
f 151//151 27//27 150//150
f 143//143 23//23 152//152
f 159//159 30//30 153//153
f 160//160 33//33 154//154
f 161//161 36//36 155//155
f 162//162 39//39 156//156
f 158//158 42//42 157//157
f 128//128 44//44 75//75
f 130//130 46//46 78//78
f 132//132 48//48 81//81
f 134//134 50//50 84//84
f 136//136 52//52 87//87
f 76//76 45//45 90//90
f 73//73 43//43 93//93
f 85//85 51//51 96//96
f 82//82 49//49 99//99
f 79//79 47//47 102//102
f 143//143 59//59 105//105
f 145//145 61//61 108//108
f 147//147 63//63 111//111
f 149//149 65//65 114//114
f 151//151 67//67 117//117
f 103//103 58//58 119//119
f 106//106 60//60 121//121
f 109//109 62//62 123//123
f 112//112 64//64 125//125
f 115//115 66//66 127//127
f 73//73 11//11 74//74
f 76//76 8//8 77//77
f 79//79 20//20 80//80
f 82//82 17//17 83//83
f 85//85 14//14 86//86
f 88//88 68//68 89//89
f 91//91 69//69 92//92
f 94//94 70//70 95//95
f 97//97 71//71 98//98
f 100//100 72//72 101//101
f 103//103 29//29 104//104
f 106//106 32//32 107//107
f 109//109 35//35 110//110
f 112//112 38//38 113//113
f 115//115 41//41 116//116
f 88//88 53//53 118//118
f 91//91 54//54 120//120
f 94//94 55//55 122//122
f 97//97 56//56 124//124
f 100//100 57//57 126//126
f 128//128 75//75 129//129
f 130//130 78//78 131//131
f 132//132 81//81 133//133
f 134//134 84//84 135//135
f 136//136 87//87 137//137
f 76//76 90//90 138//138
f 73//73 93//93 139//139
f 85//85 96//96 140//140
f 82//82 99//99 141//141
f 79//79 102//102 142//142
f 143//143 105//105 144//144
f 145//145 108//108 146//146
f 147//147 111//111 148//148
f 149//149 114//114 150//150
f 151//151 117//117 152//152
f 103//103 119//119 153//153
f 106//106 121//121 154//154
f 109//109 123//123 155//155
f 112//112 125//125 156//156
f 115//115 127//127 157//157
f 129//129 3//3 2//2
f 131//131 4//4 3//3
f 133//133 5//5 4//4
f 135//135 6//6 5//5
f 137//137 2//2 6//6
f 138//138 9//9 8//8
f 139//139 12//12 11//11
f 140//140 15//15 14//14
f 141//141 18//18 17//17
f 142//142 21//21 20//20
f 144//144 24//24 23//23
f 146//146 25//25 24//24
f 148//148 26//26 25//25
f 150//150 27//27 26//26
f 152//152 23//23 27//27
f 153//153 30//30 29//29
f 154//154 33//33 32//32
f 155//155 36//36 35//35
f 156//156 39//39 38//38
f 157//157 42//42 41//41
f 75//75 44//44 43//43
f 78//78 46//46 45//45
f 81//81 48//48 47//47
f 84//84 50//50 49//49
f 87//87 52//52 51//51
f 90//90 45//45 53//53
f 93//93 43//43 54//54
f 96//96 51//51 55//55
f 99//99 49//49 56//56
f 102//102 47//47 57//57
f 105//105 59//59 58//58
f 108//108 61//61 60//60
f 111//111 63//63 62//62
f 114//114 65//65 64//64
f 117//117 67//67 66//66
f 119//119 58//58 68//68
f 121//121 60//60 69//69
f 123//123 62//62 70//70
f 125//125 64//64 71//71
f 127//127 66//66 72//72
f 74//74 11//11 46//46
f 77//77 8//8 48//48
f 80//80 20//20 50//50
f 83//83 17//17 52//52
f 86//86 14//14 44//44
f 89//89 68//68 42//42
f 92//92 69//69 30//30
f 95//95 70//70 33//33
f 98//98 71//71 36//36
f 101//101 72//72 39//39
f 104//104 29//29 61//61
f 107//107 32//32 63//63
f 110//110 35//35 65//65
f 113//113 38//38 67//67
f 116//116 41//41 59//59
f 118//118 53//53 12//12
f 120//120 54//54 15//15
f 122//122 55//55 18//18
f 124//124 56//56 21//21
f 126//126 57//57 9//9
f 129//129 75//75 74//74
f 131//131 78//78 77//77
f 133//133 81//81 80//80
f 135//135 84//84 83//83
f 137//137 87//87 86//86
f 138//138 90//90 89//89
f 139//139 93//93 92//92
f 140//140 96//96 95//95
f 141//141 99//99 98//98
f 142//142 102//102 101//101
f 144//144 105//105 104//104
f 146//146 108//108 107//107
f 148//148 111//111 110//110
f 150//150 114//114 113//113
f 152//152 117//117 116//116
f 153//153 119//119 118//118
f 154//154 121//121 120//120
f 155//155 123//123 122//122
f 156//156 125//125 124//124
f 157//157 127//127 126//126
