# Created by Open3D 
# object name: part_010
# number of vertices: 162
# number of triangles: 320
v -2.01945 3.13407 0.189625
vn 0.410095 -0.911814 0.0204402
v -2.01356 3.13811 0.209699
vn 0.586754 -0.80686 0.0685248
v -2.02401 3.13312 0.210536
vn 0.349092 -0.932253 0.0950793
v -2.03388 3.12881 0.189833
vn 0.27499 -0.961232 0.020351
v -2.02374 3.13245 0.175586
vn 0.349667 -0.932865 -0.0865756
v -2.01331 3.13747 0.176392
vn 0.589559 -0.806878 -0.0369842
v -2.48545 3.00574 0.188519
vn 0.114433 -0.993235 0.0197368
v -2.48114 3.00722 0.209452
vn 0.176973 -0.979652 0.0946701
v -2.49267 3.00616 0.208563
vn -0.0912495 -0.993577 0.0669149
v -2.25388 3.0749 0.212095
vn 0.0126669 -0.0545995 0.998428
v -2.03722 3.13646 0.212601
vn 0.00546474 -0.023393 0.999711
v -2.2555 3.08076 0.212215
vn -0.00629966 0.0142602 0.999878
v -2.03483 3.23464 0.209801
vn 0.180159 0.0702959 0.981123
v -2.0318 3.23545 0.208621
vn 0.927786 0.261077 0.266557
v -2.0582 3.32086 0.207629
vn 0.301129 0.117551 0.94631
v -2.03455 3.23392 0.172301
vn 0.195078 0.0330401 -0.980231
v -2.01659 3.15055 0.173493
vn 0.0865201 0.000478634 -0.99625
v -2.06179 3.31472 0.170031
vn 0.0853267 0.00481498 -0.996341
v -2.20545 3.08741 0.172859
vn 0.0278276 -0.0924722 -0.995326
v -2.45982 3.01457 0.172683
vn 0.0549898 -0.194151 -0.979429
v -2.47122 3.01611 0.172165
vn 0.018228 -0.0617772 -0.997924
v -2.53886 3.19969 0.184429
vn -0.410095 0.911814 -0.0204402
v -2.54506 3.19643 0.20455
vn -0.587496 0.808711 0.0289058
v -2.53462 3.20145 0.205356
vn -0.350227 0.93509 0.054289
v -2.52443 3.20496 0.184657
vn -0.27499 0.961232 -0.020351
v -2.53436 3.20078 0.170405
vn -0.348042 0.928803 -0.127245
v -2.5448 3.19579 0.171242
vn -0.588695 0.804722 -0.0765588
v -2.30478 3.25974 0.208197
vn -0.0278276 0.0924722 0.995326
v -2.52145 3.19818 0.207746
vn -0.020654 0.0613365 0.997903
v -2.30317 3.25389 0.208564
vn -0.00890494 0.0237223 0.999679
v -2.07286 3.32803 0.185534
vn -0.114437 0.993234 -0.0197368
v -2.07748 3.32734 0.20644
vn -0.178112 0.982489 0.0546961
v -2.06595 3.32837 0.205687
vn 0.0905195 0.995427 0.0305185
v -2.25635 3.27225 0.168961
vn -0.012667 0.0545996 -0.998428
v -2.09825 3.31859 0.169657
vn -0.0406028 0.159383 -0.986381
v -2.08684 3.31704 0.169371
vn -0.00261765 0.0245285 -0.999696
v -2.52353 3.09926 0.17114
vn -0.180159 -0.0702959 -0.981123
v -2.54148 3.18262 0.168893
vn -0.0713634 -0.0383358 -0.996713
v -2.49627 3.01845 0.172355
vn -0.0701693 -0.042672 -0.996622
v -2.52381 3.09998 0.208641
vn -0.195078 -0.0330401 0.980231
v -2.52683 3.09912 0.207446
vn -0.931808 -0.251035 0.262135
v -2.50044 3.01374 0.2101
vn -0.315521 -0.0816181 0.945402
v -2.01689 3.15128 0.212049
vn 0.0713634 0.0383358 0.996713
v -2.01077 3.14859 0.211262
vn 0.308644 0.0902697 0.946884
v -2.46011 3.01531 0.211284
vn 0.0402956 -0.157979 0.98662
v -2.04622 3.12929 0.212267
vn 0.041912 -0.157538 0.986623
v -2.48088 3.00656 0.174501
vn 0.17759 -0.980253 -0.0869817
v -2.47037 3.00861 0.188797
vn 0.255795 -0.966518 0.0203054
v -2.03692 3.13572 0.173195
vn 0.0210888 -0.0615712 -0.99788
v -2.04592 3.12856 0.173665
vn 0.0573091 -0.196222 -0.978883
v -2.03153 3.23478 0.173495
vn 0.899765 0.240055 -0.364413
v -2.01049 3.14789 0.174474
vn 0.323037 0.0543377 -0.944825
v -2.47152 3.01686 0.21157
vn 0.0028718 -0.0241065 0.999705
v -2.06209 3.31545 0.208587
vn 0.0701693 0.042672 0.996622
v -2.05792 3.32016 0.170841
vn 0.315521 0.0816181 -0.945402
v -2.20647 3.09342 0.172494
vn 0.00890512 -0.023723 -0.999679
v -2.49242 3.00553 0.175255
vn -0.0931873 -0.9949 -0.0386064
v -2.54177 3.18335 0.207448
vn -0.0865201 -0.000478634 0.99625
v -2.54787 3.18601 0.206467
vn -0.323037 -0.0543377 0.944825
v -2.09854 3.31933 0.208259
vn -0.0552453 0.195326 0.979181
v -2.51244 3.20534 0.207277
vn -0.0568609 0.194883 0.979177
v -2.07722 3.32667 0.17149
vn -0.175973 0.97619 -0.126836
v -2.08795 3.32516 0.185692
vn -0.255795 0.966518 -0.0203055
v -2.52115 3.19743 0.168341
vn -0.00518063 0.0232397 -0.999716
v -2.51214 3.20461 0.168675
vn -0.0415307 0.1564 -0.98682
v -2.52656 3.09845 0.172321
vn -0.894189 -0.25398 -0.368674
v -2.54759 3.18531 0.169679
vn -0.308644 -0.0902697 -0.946884
v -2.49657 3.01918 0.210911
vn -0.0853267 -0.00481498 0.996341
v -2.08714 3.31779 0.208777
vn -0.0180614 0.0620511 0.99791
v -2.06569 3.32774 0.172379
vn 0.0940546 0.992743 -0.0749397
v -2.25414 3.26655 0.168842
vn 0.00629963 -0.0142601 -0.999878
v -2.50016 3.01304 0.173312
vn -0.301129 -0.117551 -0.94631
v -2.02336 3.14353 0.212446
vn 0.0206704 0.0187988 0.99961
v -2.02548 3.13668 0.212245
vn 0.0625093 -0.11359 0.991559
v -2.01505 3.14275 0.211908
vn 0.118983 -0.0583269 0.991182
v -2.4737 3.00997 0.210638
vn 0.115314 -0.45495 0.88302
v -2.4595 3.01216 0.209542
vn 0.262134 -0.960293 0.0955133
v -2.25262 3.07033 0.211267
vn 0.125143 -0.461986 0.878014
v -2.47341 3.00926 0.173325
vn 0.130049 -0.489145 -0.862453
v -2.20647 3.08225 0.173874
vn 0.138344 -0.494967 -0.857828
v -2.45923 3.0115 0.174552
vn 0.262479 -0.960123 -0.0962733
v -2.02307 3.14279 0.173293
vn 0.0358692 -0.0191697 -0.999173
v -2.01476 3.14203 0.173986
vn 0.134021 -0.0958926 -0.986328
v -2.02519 3.13595 0.173721
vn 0.0775429 -0.151143 -0.985466
v -2.03068 3.23531 0.187388
vn 0.964107 0.265504 0.00228536
v -2.00833 3.14912 0.209549
vn 0.97254 0.223343 0.0654463
v -2.00808 3.14849 0.176203
vn 0.972911 0.220846 -0.0683483
v -2.48704 3.01584 0.211345
vn -0.0317898 0.00435148 0.999485
v -2.49377 3.01091 0.210772
vn -0.0767188 -0.112225 0.990717
v -2.48171 3.01104 0.211163
vn 8.232e-05 -0.130783 0.991411
v -2.07162 3.3188 0.208749
vn 0.0165898 0.033616 0.999297
v -2.08456 3.30938 0.209149
vn -0.00655956 0.0203304 0.999772
v -2.04633 3.23149 0.210699
vn 0.0179863 0.0260312 0.999499
v -2.0611 3.32556 0.171329
vn 0.497929 0.75436 -0.427795
v -2.06011 3.32663 0.185488
vn 0.556824 0.830551 -0.0115417
v -2.05556 3.32095 0.172566
vn 0.949583 0.305569 -0.0701389
v -2.23011 3.18004 0.170591
vn 0.00760246 -0.0189918 -0.999791
v -2.08426 3.30862 0.169358
vn 0.00899327 -0.0175538 -0.999805
v -2.039 3.14426 0.172824
vn 0.00953321 -0.0195148 -0.999764
v -2.49699 3.00766 0.174053
vn -0.491573 -0.770215 -0.406354
v -2.49349 3.01019 0.17285
vn -0.0616823 -0.149788 -0.986792
v -2.48852 3.00677 0.173557
vn -0.00309246 -0.452545 -0.891736
v -2.5353 3.19111 0.207649
vn -0.0358692 0.0191697 0.999173
v -2.53318 3.19795 0.207221
vn -0.0775429 0.151143 0.985466
v -2.5436 3.19187 0.206956
vn -0.134021 0.0958926 0.986328
v -2.08495 3.32464 0.207617
vn -0.128593 0.488122 0.86325
v -2.09913 3.3224 0.206389
vn -0.263279 0.963152 0.0549774
v -2.30602 3.26428 0.207176
vn -0.138344 0.494967 0.857828
v -2.08466 3.32393 0.170303
vn -0.113221 0.453447 -0.884063
v -2.25987 3.2762 0.169784
vn -0.125143 0.461986 -0.878014
v -2.09886 3.32174 0.171399
vn -0.261186 0.957413 -0.123057
v -2.535 3.19037 0.168496
vn -0.0206704 -0.0187988 -0.99961
v -2.54331 3.19115 0.169034
vn -0.118983 0.0583269 -0.991182
v -2.53288 3.19722 0.168696
vn -0.0625093 0.11359 -0.991559
v -2.52763 3.09845 0.186208
vn -0.964107 -0.265504 -0.00228536
v -2.55028 3.18541 0.204738
vn -0.973487 -0.220979 0.0590879
v -2.55003 3.18478 0.171393
vn -0.971823 -0.223563 -0.0746926
v -2.47411 3.02528 0.211584
vn -0.00864533 0.0176529 0.999807
v -2.51233 3.10316 0.209593
vn -0.0331866 0.0119387 0.999378
v -2.06488 3.32371 0.208091
vn 0.0616823 0.149788 0.986792
v -2.07694 3.32359 0.208304
vn -0.0151153 0.168335 0.985614
v -2.06459 3.32299 0.17017
vn 0.0767188 0.112225 -0.990717
v -2.06957 3.32643 0.17067
vn 0.0167736 0.418354 -0.908129
v -2.4738 3.02452 0.171792
vn 0.00678667 -0.0202659 -0.999772
v -2.51906 3.18888 0.168326
vn 0.00624943 -0.0183148 -0.999813
v -2.4982 3.00713 0.188226
vn -0.556824 -0.830551 0.0115417
v -2.50254 3.01232 0.17503
vn -0.948495 -0.308288 -0.0729065
v -2.01073 3.14232 0.210767
vn 0.852929 -0.410775 0.322143
v -2.01756 3.13724 0.21139
vn 0.224579 -0.351886 0.908703
v -2.03181 3.13166 0.211687
vn 0.129959 -0.450911 0.883057
v -2.04513 3.12627 0.210526
vn 0.266026 -0.959221 0.0955232
v -2.25202 3.06832 0.188876
vn 0.265406 -0.963923 0.0203291
v -2.04486 3.12561 0.175535
vn 0.266808 -0.960202 -0.0826146
v -2.03153 3.13095 0.174373
vn 0.144282 -0.481776 -0.864335
v -2.01728 3.13654 0.174675
vn 0.238268 -0.386077 -0.891164
v -2.01046 3.14165 0.175207
vn 0.818377 -0.409459 -0.403239
v -2.00922 3.14179 0.189386
vn 0.903466 -0.428397 0.0150076
v -2.4888 3.00747 0.210271
vn -0.0167736 -0.418354 0.908129
v -2.03931 3.14502 0.212615
vn -0.00602132 0.0183757 0.999813
v -2.05582 3.32158 0.205912
vn 0.949099 0.30848 0.0636518
v -2.04603 3.23074 0.171349
vn 0.0331866 -0.0119387 -0.999378
v -2.48142 3.01031 0.172638
vn 0.0151153 -0.168335 -0.985614
v -2.5479 3.19225 0.205734
vn -0.857611 0.42246 0.29331
v -2.54108 3.19735 0.206267
vn -0.238268 0.386077 0.891164
v -2.52683 3.20295 0.206568
vn -0.143242 0.484095 0.863211
v -2.5135 3.20829 0.205406
vn -0.26717 0.96208 0.0549714
v -2.30629 3.26544 0.184719
vn -0.265405 0.963923 -0.0203291
v -2.51323 3.20762 0.170416
vn -0.264717 0.954594 -0.13666
v -2.52655 3.20224 0.169255
vn -0.12924 0.452565 -0.882316
v -2.5408 3.19666 0.169552
vn -0.224579 0.351886 -0.908703
v -2.54763 3.19158 0.170174
vn -0.812031 0.393619 -0.430894
v -2.54909 3.19197 0.184328
vn -0.903466 0.428397 -0.0150076
v -2.51936 3.18964 0.208118
vn -0.0091836 0.0196079 0.999766
v -2.06985 3.32713 0.207385
vn 0.00309246 0.452545 0.891736
v -2.07665 3.32286 0.169779
vn -8.232e-05 0.130783 -0.991411
v -2.51203 3.10241 0.170243
vn -0.0179863 -0.0260312 -0.999499
v -2.5028 3.01295 0.208376
vn -0.950046 -0.306114 0.0608863
v -2.49726 3.00834 0.209613
vn -0.523799 -0.789904 0.318883
v -2.27933 3.16733 0.210467
vn -0.00760246 0.0189918 0.999791
v -2.06137 3.32624 0.206889
vn 0.519104 0.801604 0.296583
v -2.07132 3.31806 0.169596
vn 0.0317898 -0.00435148 -0.999485
v -2.48674 3.0151 0.172192
vn -0.0165898 -0.033616 -0.999297
f 1//1 2//2 3//3
f 1//1 3//3 4//4
f 1//1 4//4 5//5
f 1//1 5//5 6//6
f 1//1 6//6 2//2
f 7//7 8//8 9//9
f 10//10 11//11 12//12
f 13//13 14//14 15//15
f 16//16 17//17 18//18
f 19//19 20//20 21//21
f 22//22 23//23 24//24
f 22//22 24//24 25//25
f 22//22 25//25 26//26
f 22//22 26//26 27//27
f 22//22 27//27 23//23
f 28//28 29//29 30//30
f 31//31 32//32 33//33
f 34//34 35//35 36//36
f 37//37 38//38 39//39
f 40//40 41//41 42//42
f 13//13 43//43 44//44
f 10//10 45//45 46//46
f 7//7 47//47 48//48
f 19//19 49//49 50//50
f 16//16 51//51 52//52
f 10//10 53//53 45//45
f 13//13 54//54 43//43
f 16//16 55//55 51//51
f 19//19 56//56 49//49
f 7//7 57//57 47//47
f 40//40 58//58 59//59
f 28//28 60//60 61//61
f 31//31 62//62 63//63
f 34//34 64//64 65//65
f 37//37 66//66 67//67
f 40//40 68//68 58//58
f 28//28 69//69 60//60
f 31//31 70//70 62//62
f 34//34 71//71 64//64
f 37//37 72//72 66//66
f 10//10 46//46 11//11
f 7//7 48//48 8//8
f 19//19 50//50 20//20
f 16//16 52//52 17//17
f 13//13 44//44 14//14
f 40//40 42//42 68//68
f 28//28 30//30 69//69
f 31//31 33//33 70//70
f 34//34 36//36 71//71
f 37//37 39//39 72//72
f 28//28 61//61 29//29
f 31//31 63//63 32//32
f 34//34 65//65 35//35
f 37//37 67//67 38//38
f 40//40 59//59 41//41
f 10//10 12//12 53//53
f 13//13 15//15 54//54
f 16//16 18//18 55//55
f 19//19 21//21 56//56
f 7//7 9//9 57//57
f 73//73 74//74 75//75
f 76//76 77//77 78//78
f 79//79 80//80 81//81
f 82//82 83//83 84//84
f 85//85 86//86 87//87
f 88//88 89//89 90//90
f 91//91 92//92 93//93
f 94//94 95//95 96//96
f 97//97 98//98 99//99
f 100//100 101//101 102//102
f 103//103 104//104 105//105
f 106//106 107//107 108//108
f 109//109 110//110 111//111
f 112//112 113//113 114//114
f 115//115 116//116 117//117
f 88//88 118//118 119//119
f 91//91 120//120 121//121
f 94//94 122//122 123//123
f 97//97 124//124 125//125
f 100//100 126//126 127//127
f 128//128 129//129 2//2
f 130//130 131//131 3//3
f 132//132 133//133 4//4
f 134//134 135//135 5//5
f 136//136 137//137 6//6
f 76//76 138//138 8//8
f 73//73 139//139 11//11
f 85//85 140//140 14//14
f 82//82 141//141 17//17
f 79//79 142//142 20//20
f 143//143 144//144 23//23
f 145//145 146//146 24//24
f 147//147 148//148 25//25
f 149//149 150//150 26//26
f 151//151 152//152 27//27
f 103//103 153//153 29//29
f 106//106 154//154 32//32
f 109//109 155//155 35//35
f 112//112 156//156 38//38
f 115//115 157//157 41//41
f 73//73 75//75 43//43
f 76//76 78//78 45//45
f 79//79 81//81 47//47
f 82//82 84//84 49//49
f 85//85 87//87 51//51
f 88//88 90//90 53//53
f 91//91 93//93 54//54
f 94//94 96//96 55//55
f 97//97 99//99 56//56
f 100//100 102//102 57//57
f 103//103 105//105 58//58
f 106//106 108//108 60//60
f 109//109 111//111 62//62
f 112//112 114//114 64//64
f 115//115 117//117 66//66
f 88//88 119//119 68//68
f 91//91 121//121 69//69
f 94//94 123//123 70//70
f 97//97 125//125 71//71
f 100//100 127//127 72//72
f 130//130 74//74 46//46
f 132//132 77//77 48//48
f 134//134 80//80 50//50
f 136//136 83//83 52//52
f 128//128 86//86 44//44
f 158//158 89//89 42//42
f 159//159 92//92 30//30
f 160//160 95//95 33//33
f 161//161 98//98 36//36
f 162//162 101//101 39//39
f 145//145 104//104 61//61
f 147//147 107//107 63//63
f 149//149 110//110 65//65
f 151//151 113//113 67//67
f 143//143 116//116 59//59
f 159//159 118//118 12//12
f 160//160 120//120 15//15
f 161//161 122//122 18//18
f 162//162 124//124 21//21
f 158//158 126//126 9//9
f 130//130 129//129 74//74
f 132//132 131//131 77//77
f 134//134 133//133 80//80
f 136//136 135//135 83//83
f 128//128 137//137 86//86
f 158//158 138//138 89//89
f 159//159 139//139 92//92
f 160//160 140//140 95//95
f 161//161 141//141 98//98
f 162//162 142//142 101//101
f 145//145 144//144 104//104
f 147//147 146//146 107//107
f 149//149 148//148 110//110
f 151//151 150//150 113//113
f 143//143 152//152 116//116
f 159//159 153//153 118//118
f 160//160 154//154 120//120
f 161//161 155//155 122//122
f 162//162 156//156 124//124
f 158//158 157//157 126//126
f 130//130 3//3 129//129
f 132//132 4//4 131//131
f 134//134 5//5 133//133
f 136//136 6//6 135//135
f 128//128 2//2 137//137
f 158//158 9//9 138//138
f 159//159 12//12 139//139
f 160//160 15//15 140//140
f 161//161 18//18 141//141
f 162//162 21//21 142//142
f 145//145 24//24 144//144
f 147//147 25//25 146//146
f 149//149 26//26 148//148
f 151//151 27//27 150//150
f 143//143 23//23 152//152
f 159//159 30//30 153//153
f 160//160 33//33 154//154
f 161//161 36//36 155//155
f 162//162 39//39 156//156
f 158//158 42//42 157//157
f 128//128 44//44 75//75
f 130//130 46//46 78//78
f 132//132 48//48 81//81
f 134//134 50//50 84//84
f 136//136 52//52 87//87
f 76//76 45//45 90//90
f 73//73 43//43 93//93
f 85//85 51//51 96//96
f 82//82 49//49 99//99
f 79//79 47//47 102//102
f 143//143 59//59 105//105
f 145//145 61//61 108//108
f 147//147 63//63 111//111
f 149//149 65//65 114//114
f 151//151 67//67 117//117
f 103//103 58//58 119//119
f 106//106 60//60 121//121
f 109//109 62//62 123//123
f 112//112 64//64 125//125
f 115//115 66//66 127//127
f 73//73 11//11 74//74
f 76//76 8//8 77//77
f 79//79 20//20 80//80
f 82//82 17//17 83//83
f 85//85 14//14 86//86
f 88//88 68//68 89//89
f 91//91 69//69 92//92
f 94//94 70//70 95//95
f 97//97 71//71 98//98
f 100//100 72//72 101//101
f 103//103 29//29 104//104
f 106//106 32//32 107//107
f 109//109 35//35 110//110
f 112//112 38//38 113//113
f 115//115 41//41 116//116
f 88//88 53//53 118//118
f 91//91 54//54 120//120
f 94//94 55//55 122//122
f 97//97 56//56 124//124
f 100//100 57//57 126//126
f 128//128 75//75 129//129
f 130//130 78//78 131//131
f 132//132 81//81 133//133
f 134//134 84//84 135//135
f 136//136 87//87 137//137
f 76//76 90//90 138//138
f 73//73 93//93 139//139
f 85//85 96//96 140//140
f 82//82 99//99 141//141
f 79//79 102//102 142//142
f 143//143 105//105 144//144
f 145//145 108//108 146//146
f 147//147 111//111 148//148
f 149//149 114//114 150//150
f 151//151 117//117 152//152
f 103//103 119//119 153//153
f 106//106 121//121 154//154
f 109//109 123//123 155//155
f 112//112 125//125 156//156
f 115//115 127//127 157//157
f 129//129 3//3 2//2
f 131//131 4//4 3//3
f 133//133 5//5 4//4
f 135//135 6//6 5//5
f 137//137 2//2 6//6
f 138//138 9//9 8//8
f 139//139 12//12 11//11
f 140//140 15//15 14//14
f 141//141 18//18 17//17
f 142//142 21//21 20//20
f 144//144 24//24 23//23
f 146//146 25//25 24//24
f 148//148 26//26 25//25
f 150//150 27//27 26//26
f 152//152 23//23 27//27
f 153//153 30//30 29//29
f 154//154 33//33 32//32
f 155//155 36//36 35//35
f 156//156 39//39 38//38
f 157//157 42//42 41//41
f 75//75 44//44 43//43
f 78//78 46//46 45//45
f 81//81 48//48 47//47
f 84//84 50//50 49//49
f 87//87 52//52 51//51
f 90//90 45//45 53//53
f 93//93 43//43 54//54
f 96//96 51//51 55//55
f 99//99 49//49 56//56
f 102//102 47//47 57//57
f 105//105 59//59 58//58
f 108//108 61//61 60//60
f 111//111 63//63 62//62
f 114//114 65//65 64//64
f 117//117 67//67 66//66
f 119//119 58//58 68//68
f 121//121 60//60 69//69
f 123//123 62//62 70//70
f 125//125 64//64 71//71
f 127//127 66//66 72//72
f 74//74 11//11 46//46
f 77//77 8//8 48//48
f 80//80 20//20 50//50
f 83//83 17//17 52//52
f 86//86 14//14 44//44
f 89//89 68//68 42//42
f 92//92 69//69 30//30
f 95//95 70//70 33//33
f 98//98 71//71 36//36
f 101//101 72//72 39//39
f 104//104 29//29 61//61
f 107//107 32//32 63//63
f 110//110 35//35 65//65
f 113//113 38//38 67//67
f 116//116 41//41 59//59
f 118//118 53//53 12//12
f 120//120 54//54 15//15
f 122//122 55//55 18//18
f 124//124 56//56 21//21
f 126//126 57//57 9//9
f 129//129 75//75 74//74
f 131//131 78//78 77//77
f 133//133 81//81 80//80
f 135//135 84//84 83//83
f 137//137 87//87 86//86
f 138//138 90//90 89//89
f 139//139 93//93 92//92
f 140//140 96//96 95//95
f 141//141 99//99 98//98
f 142//142 102//102 101//101
f 144//144 105//105 104//104
f 146//146 108//108 107//107
f 148//148 111//111 110//110
f 150//150 114//114 113//113
f 152//152 117//117 116//116
f 153//153 119//119 118//118
f 154//154 121//121 120//120
f 155//155 123//123 122//122
f 156//156 125//125 124//124
f 157//157 127//127 126//126
