# Created by Open3D 
# object name: part_089
# number of vertices: 162
# number of triangles: 320
v -2.07476 3.50276 1.16614
vn 0.592929 -0.0962042 -0.799487
v -2.05812 3.50255 1.17893
vn 0.634644 -0.00704306 -0.772772
v -2.06039 3.49276 1.17829
vn 0.606319 -0.133474 -0.78394
v -2.07881 3.48998 1.16524
vn 0.572081 -0.159223 -0.804594
v -2.0866 3.50311 1.1576
vn 0.550799 -0.111487 -0.827158
v -2.0831 3.51241 1.15922
vn 0.601307 0.0075877 -0.798982
v -2.21683 3.10366 1.14651
vn 0.545294 -0.230023 -0.806067
v -2.19976 3.10125 1.15903
vn 0.578694 -0.211075 -0.787756
v -2.20419 3.09222 1.15875
vn 0.5206 -0.327415 -0.788527
v -2.12954 3.29668 1.17154
vn 0.843071 -0.321321 0.431259
v -2.06373 3.48277 1.1813
vn 0.808259 -0.310698 0.500184
v -2.13075 3.297 1.17366
vn 0.756718 -0.297989 0.581876
v -2.07774 3.51266 1.21239
vn 0.805248 -0.0811689 0.587356
v -2.07771 3.5156 1.21182
vn 0.501072 0.845754 0.183378
v -2.09845 3.51895 1.24118
vn 0.800093 0.0717514 0.595569
v -2.10587 3.52377 1.1902
vn -0.657468 0.496299 -0.566941
v -2.0881 3.51433 1.16207
vn -0.712418 0.38091 -0.58938
v -2.12726 3.52555 1.21731
vn -0.718781 0.382735 -0.580404
v -2.14438 3.34955 1.15028
vn -0.630267 0.260329 -0.731431
v -2.22124 3.1308 1.13888
vn -0.443863 0.200093 -0.873469
v -2.2257 3.12248 1.13968
vn -0.683678 0.275271 -0.675878
v -2.2631 3.11692 1.21178
vn -0.592929 0.0962037 0.799487
v -2.24958 3.10523 1.22278
vn -0.603611 -0.00520632 0.797262
v -2.24609 3.11453 1.22439
vn -0.560923 0.115551 0.819764
v -2.25872 3.12958 1.21293
vn -0.57208 0.159223 0.804594
v -2.2723 3.12488 1.20371
vn -0.615946 0.137205 0.775749
v -2.27456 3.11509 1.20306
vn -0.637513 0.00670574 0.77041
v -2.17364 3.30932 1.23374
vn 0.630262 -0.260327 0.731436
v -2.2394 3.12321 1.22402
vn 0.682378 -0.277782 0.676163
v -2.17206 3.30884 1.23192
vn 0.742822 -0.294005 0.601478
v -2.12103 3.51602 1.23141
vn -0.545294 0.230023 0.806067
v -2.10672 3.50604 1.24365
vn -0.533299 0.193155 0.82358
v -2.10351 3.51556 1.24296
vn -0.489565 0.315168 0.813016
v -2.18847 3.36219 1.21248
vn -0.843075 0.321322 -0.431249
v -2.14039 3.49827 1.22026
vn -0.920262 0.338286 -0.196673
v -2.13654 3.50683 1.21899
vn -0.807509 0.314058 -0.499296
v -2.25495 3.10498 1.1696
vn -0.805248 0.0811695 -0.587356
v -2.27351 3.11473 1.19711
vn -0.780774 0.208588 -0.588968
v -2.23434 3.10351 1.14186
vn -0.774413 0.206764 -0.597941
v -2.22682 3.09388 1.1918
vn 0.657468 -0.4963 0.566941
v -2.22863 3.09164 1.19097
vn -0.15035 -0.984212 0.0933926
v -2.20664 3.0878 1.16259
vn 0.596232 -0.623003 0.506334
v -2.05918 3.50291 1.18489
vn 0.780774 -0.208588 0.588968
v -2.05736 3.50717 1.18321
vn 0.839527 0.0604411 0.539946
v -2.19229 3.11937 1.16173
vn 0.919678 -0.338139 0.199638
v -2.06611 3.47385 1.17916
vn 0.920265 -0.336479 0.199735
v -2.22597 3.1116 1.13835
vn 0.523113 -0.189262 -0.830983
v -2.21188 3.11615 1.14686
vn 0.569017 -0.167829 -0.805017
v -2.09329 3.49444 1.15797
vn -0.6817 0.278 -0.676758
v -2.09506 3.48528 1.15632
vn -0.438565 0.200224 -0.876111
v -2.10405 3.526 1.19103
vn 0.0716042 0.986149 -0.149611
v -2.08495 3.51806 1.16144
vn -0.556803 0.611693 -0.561963
v -2.19614 3.11081 1.163
vn 0.807234 -0.313567 0.500049
v -2.09835 3.51414 1.24013
vn 0.774413 -0.206764 0.597941
v -2.12604 3.52984 1.21941
vn -0.596232 0.623003 -0.506334
v -2.14578 3.35053 1.15213
vn -0.742823 0.294006 -0.601477
v -2.22917 3.10208 1.13904
vn 0.486332 -0.315398 -0.814865
v -2.24459 3.10332 1.21993
vn 0.712418 -0.38091 0.58938
v -2.24774 3.09958 1.22056
vn 0.556803 -0.611693 0.561963
v -2.11144 3.48684 1.24311
vn 0.441723 -0.199321 0.87473
v -2.23763 3.13236 1.22568
vn 0.441122 -0.200978 0.874654
v -2.13293 3.51639 1.22296
vn -0.588259 0.214981 0.779573
v -2.12565 3.5034 1.23132
vn -0.569017 0.167829 0.805017
v -2.26895 3.13487 1.2007
vn -0.807911 0.310878 -0.500634
v -2.26658 3.14379 1.20283
vn -0.919707 0.336478 -0.202291
v -2.25498 3.10204 1.17018
vn -0.561625 -0.792696 -0.237087
v -2.27533 3.11047 1.19878
vn -0.839527 -0.0604407 -0.539946
v -2.20542 3.09209 1.16468
vn 0.718781 -0.382735 0.580404
v -2.10699 3.49517 1.24231
vn 0.683411 -0.274915 0.676292
v -2.12849 3.52542 1.22324
vn -0.522538 0.329693 0.786293
v -2.18708 3.36237 1.21039
vn -0.756718 0.297989 -0.581877
v -2.23423 3.09869 1.14082
vn -0.800093 -0.071751 -0.59557
v -2.06007 3.49559 1.18286
vn 0.770594 -0.269765 0.577418
v -2.06006 3.4921 1.18056
vn 0.911655 -0.301075 0.279713
v -2.05756 3.50202 1.18185
vn 0.904969 -0.220827 0.363685
v -2.19669 3.10747 1.16026
vn 0.899672 -0.311386 -0.305988
v -2.19299 3.11949 1.15963
vn 0.592778 -0.173327 -0.786493
v -2.12915 3.29664 1.16946
vn 0.89835 -0.304209 -0.316898
v -2.22468 3.11852 1.13818
vn 0.0232838 0.0356014 -0.999095
v -2.14329 3.34703 1.1492
vn 0.0343531 0.0368836 -0.998729
v -2.21924 3.12985 1.13892
vn 0.534196 -0.150274 -0.831897
v -2.08944 3.50718 1.15968
vn -0.728062 0.321878 -0.605244
v -2.086 3.51325 1.15941
vn -0.533384 0.347018 -0.771414
v -2.08895 3.5035 1.15776
vn -0.49531 0.254373 -0.83064
v -2.09334 3.52271 1.19929
vn 0.335002 0.94108 0.0462767
v -2.05789 3.50973 1.18226
vn 0.428479 0.903551 0.00110076
v -2.0829 3.5196 1.16252
vn 0.340314 0.937863 -0.0678151
v -2.20144 3.09848 1.16333
vn 0.749825 -0.32811 0.574549
v -2.20351 3.09202 1.16169
vn 0.829811 -0.431977 0.353285
v -2.19915 3.10136 1.16134
vn 0.888204 -0.36698 0.276439
v -2.10189 3.50757 1.24184
vn 0.748836 -0.263532 0.608109
v -2.10475 3.49474 1.23958
vn 0.748906 -0.294146 0.593816
v -2.08055 3.50255 1.21246
vn 0.759616 -0.26742 0.59285
v -2.12745 3.52872 1.22166
vn -0.522747 0.631617 0.572534
v -2.11656 3.5256 1.23026
vn -0.346055 0.586786 0.732071
v -2.12404 3.53139 1.22056
vn 0.231473 0.969058 0.0857102
v -2.16643 3.35664 1.18122
vn -0.749826 0.296019 -0.591721
v -2.13459 3.50652 1.21603
vn -0.750604 0.298277 -0.589597
v -2.09538 3.49528 1.16072
vn -0.747726 0.297452 -0.593657
v -2.23191 3.09946 1.13928
vn 0.162603 -0.489419 -0.856755
v -2.23195 3.10325 1.13925
vn -0.608542 0.135863 -0.781804
v -2.2293 3.10597 1.13826
vn -0.0957314 -0.026897 -0.995044
v -2.24325 3.11046 1.22231
vn 0.728062 -0.321878 0.605244
v -2.24374 3.11414 1.22424
vn 0.49531 -0.254373 0.83064
v -2.24668 3.10439 1.22259
vn 0.533384 -0.347017 0.771415
v -2.10801 3.49912 1.24381
vn -0.021324 -0.0353724 0.999147
v -2.11345 3.48779 1.24308
vn -0.547184 0.155327 0.822474
v -2.17542 3.3099 1.23473
vn -0.0343527 -0.0368838 0.998729
v -2.136 3.51017 1.22173
vn -0.899935 0.312924 0.303638
v -2.18956 3.36029 1.21447
vn -0.89835 0.304209 0.316897
v -2.13969 3.49815 1.22237
vn -0.600957 0.176626 0.779522
v -2.27261 3.12205 1.19914
vn -0.770594 0.269765 -0.577418
v -2.27513 3.11562 1.20014
vn -0.904969 0.220827 -0.363685
v -2.27263 3.12555 1.20144
vn -0.911655 0.301075 -0.279713
v -2.24485 3.0971 1.17836
vn -0.335002 -0.94108 -0.0462767
v -2.24979 3.09804 1.21947
vn -0.346794 -0.935799 0.0633618
v -2.27479 3.10791 1.19974
vn -0.434158 -0.900815 -0.00623533
v -2.1981 3.11112 1.16596
vn 0.750739 -0.297888 0.589621
v -2.22262 3.10344 1.19283
vn 0.739352 -0.324344 0.590051
v -2.10073 3.51439 1.24275
vn 0.608542 -0.135863 0.781804
v -2.10465 3.50488 1.24345
vn 0.51877 -0.188471 0.83388
v -2.12917 3.52562 1.2203
vn -0.829811 0.431976 -0.353286
v -2.13093 3.52254 1.22201
vn -0.882957 0.413263 0.222711
v -2.22794 3.1229 1.14241
vn -0.748819 0.294401 -0.593799
v -2.26715 3.13414 1.19772
vn -0.751685 0.295222 -0.589757
v -2.22154 3.09418 1.14746
vn 0.346055 -0.586786 -0.732072
v -2.23365 3.09612 1.1417
vn -0.325318 -0.93201 -0.159768
v -2.05691 3.50561 1.18082
vn 0.780108 0.234838 -0.579898
v -2.05809 3.49869 1.17984
vn 0.952256 -0.218595 -0.213131
v -2.06197 3.48592 1.17887
vn 0.903559 -0.300456 -0.305463
v -2.06666 3.47438 1.17708
vn 0.593401 -0.171578 -0.786407
v -2.14559 3.30317 1.15566
vn 0.570554 -0.163528 -0.804814
v -2.09291 3.48474 1.15637
vn 0.539164 -0.150146 -0.828709
v -2.08996 3.49697 1.15679
vn 0.0232484 0.0483276 -0.998561
v -2.08563 3.50956 1.15811
vn -0.0264361 0.167777 -0.98547
v -2.08358 3.51614 1.15978
vn 0.46127 0.349577 -0.815491
v -2.07247 3.51296 1.16806
vn 0.661066 0.298136 -0.688554
v -2.20176 3.0951 1.15999
vn 0.882957 -0.413263 -0.222712
v -2.06554 3.4835 1.18427
vn 0.751778 -0.29497 0.589764
v -2.09904 3.52152 1.2403
vn 0.319128 0.934892 0.155352
v -2.11006 3.5142 1.18917
vn -0.739352 0.324344 -0.590051
v -2.22804 3.11277 1.13854
vn -0.518767 0.18847 -0.833882
v -2.24911 3.1015 1.22222
vn -0.521742 -0.336837 0.78379
v -2.24706 3.10809 1.22389
vn 0.0264381 -0.167777 0.98547
v -2.24273 3.12067 1.2252
vn -0.025213 -0.0463011 0.998609
v -2.23978 3.13291 1.22563
vn -0.547807 0.153578 0.822388
v -2.19261 3.31665 1.22199
vn -0.570554 0.163528 0.804814
v -2.26602 3.14327 1.20492
vn -0.605642 0.176418 0.775935
v -2.27071 3.13172 1.20312
vn -0.902786 0.301025 0.307184
v -2.27459 3.11896 1.20216
vn -0.952256 0.218595 0.213131
v -2.27578 3.11203 1.20117
vn -0.821421 -0.207395 0.531277
v -2.26564 3.10682 1.20966
vn -0.661066 -0.298136 0.688554
v -2.23731 3.12236 1.22127
vn 0.747868 -0.297066 0.593671
v -2.10339 3.51167 1.24373
vn 0.0957308 0.0268968 0.995044
v -2.13354 3.51628 1.22065
vn -0.888205 0.36698 -0.276439
v -2.25214 3.11509 1.16954
vn -0.759616 0.26742 -0.59285
v -2.20864 3.08625 1.16144
vn -0.237441 -0.967141 -0.0908856
v -2.20524 3.08893 1.16033
vn 0.474913 -0.622498 -0.622056
v -2.15135 3.3029 1.20283
vn 0.749826 -0.296019 0.59172
v -2.10078 3.51819 1.24271
vn -0.216554 0.520483 0.825955
v -2.13125 3.51917 1.21867
vn -0.749825 0.32811 -0.574549
v -2.2308 3.11007 1.14016
vn -0.748836 0.263532 -0.608109
f 1//1 2//2 3//3
f 1//1 3//3 4//4
f 1//1 4//4 5//5
f 1//1 5//5 6//6
f 1//1 6//6 2//2
f 7//7 8//8 9//9
f 10//10 11//11 12//12
f 13//13 14//14 15//15
f 16//16 17//17 18//18
f 19//19 20//20 21//21
f 22//22 23//23 24//24
f 22//22 24//24 25//25
f 22//22 25//25 26//26
f 22//22 26//26 27//27
f 22//22 27//27 23//23
f 28//28 29//29 30//30
f 31//31 32//32 33//33
f 34//34 35//35 36//36
f 37//37 38//38 39//39
f 40//40 41//41 42//42
f 13//13 43//43 44//44
f 10//10 45//45 46//46
f 7//7 47//47 48//48
f 19//19 49//49 50//50
f 16//16 51//51 52//52
f 10//10 53//53 45//45
f 13//13 54//54 43//43
f 16//16 55//55 51//51
f 19//19 56//56 49//49
f 7//7 57//57 47//47
f 40//40 58//58 59//59
f 28//28 60//60 61//61
f 31//31 62//62 63//63
f 34//34 64//64 65//65
f 37//37 66//66 67//67
f 40//40 68//68 58//58
f 28//28 69//69 60//60
f 31//31 70//70 62//62
f 34//34 71//71 64//64
f 37//37 72//72 66//66
f 10//10 46//46 11//11
f 7//7 48//48 8//8
f 19//19 50//50 20//20
f 16//16 52//52 17//17
f 13//13 44//44 14//14
f 40//40 42//42 68//68
f 28//28 30//30 69//69
f 31//31 33//33 70//70
f 34//34 36//36 71//71
f 37//37 39//39 72//72
f 28//28 61//61 29//29
f 31//31 63//63 32//32
f 34//34 65//65 35//35
f 37//37 67//67 38//38
f 40//40 59//59 41//41
f 10//10 12//12 53//53
f 13//13 15//15 54//54
f 16//16 18//18 55//55
f 19//19 21//21 56//56
f 7//7 9//9 57//57
f 73//73 74//74 75//75
f 76//76 77//77 78//78
f 79//79 80//80 81//81
f 82//82 83//83 84//84
f 85//85 86//86 87//87
f 88//88 89//89 90//90
f 91//91 92//92 93//93
f 94//94 95//95 96//96
f 97//97 98//98 99//99
f 100//100 101//101 102//102
f 103//103 104//104 105//105
f 106//106 107//107 108//108
f 109//109 110//110 111//111
f 112//112 113//113 114//114
f 115//115 116//116 117//117
f 88//88 118//118 119//119
f 91//91 120//120 121//121
f 94//94 122//122 123//123
f 97//97 124//124 125//125
f 100//100 126//126 127//127
f 128//128 129//129 2//2
f 130//130 131//131 3//3
f 132//132 133//133 4//4
f 134//134 135//135 5//5
f 136//136 137//137 6//6
f 76//76 138//138 8//8
f 73//73 139//139 11//11
f 85//85 140//140 14//14
f 82//82 141//141 17//17
f 79//79 142//142 20//20
f 143//143 144//144 23//23
f 145//145 146//146 24//24
f 147//147 148//148 25//25
f 149//149 150//150 26//26
f 151//151 152//152 27//27
f 103//103 153//153 29//29
f 106//106 154//154 32//32
f 109//109 155//155 35//35
f 112//112 156//156 38//38
f 115//115 157//157 41//41
f 73//73 75//75 43//43
f 76//76 78//78 45//45
f 79//79 81//81 47//47
f 82//82 84//84 49//49
f 85//85 87//87 51//51
f 88//88 90//90 53//53
f 91//91 93//93 54//54
f 94//94 96//96 55//55
f 97//97 99//99 56//56
f 100//100 102//102 57//57
f 103//103 105//105 58//58
f 106//106 108//108 60//60
f 109//109 111//111 62//62
f 112//112 114//114 64//64
f 115//115 117//117 66//66
f 88//88 119//119 68//68
f 91//91 121//121 69//69
f 94//94 123//123 70//70
f 97//97 125//125 71//71
f 100//100 127//127 72//72
f 130//130 74//74 46//46
f 132//132 77//77 48//48
f 134//134 80//80 50//50
f 136//136 83//83 52//52
f 128//128 86//86 44//44
f 158//158 89//89 42//42
f 159//159 92//92 30//30
f 160//160 95//95 33//33
f 161//161 98//98 36//36
f 162//162 101//101 39//39
f 145//145 104//104 61//61
f 147//147 107//107 63//63
f 149//149 110//110 65//65
f 151//151 113//113 67//67
f 143//143 116//116 59//59
f 159//159 118//118 12//12
f 160//160 120//120 15//15
f 161//161 122//122 18//18
f 162//162 124//124 21//21
f 158//158 126//126 9//9
f 130//130 129//129 74//74
f 132//132 131//131 77//77
f 134//134 133//133 80//80
f 136//136 135//135 83//83
f 128//128 137//137 86//86
f 158//158 138//138 89//89
f 159//159 139//139 92//92
f 160//160 140//140 95//95
f 161//161 141//141 98//98
f 162//162 142//142 101//101
f 145//145 144//144 104//104
f 147//147 146//146 107//107
f 149//149 148//148 110//110
f 151//151 150//150 113//113
f 143//143 152//152 116//116
f 159//159 153//153 118//118
f 160//160 154//154 120//120
f 161//161 155//155 122//122
f 162//162 156//156 124//124
f 158//158 157//157 126//126
f 130//130 3//3 129//129
f 132//132 4//4 131//131
f 134//134 5//5 133//133
f 136//136 6//6 135//135
f 128//128 2//2 137//137
f 158//158 9//9 138//138
f 159//159 12//12 139//139
f 160//160 15//15 140//140
f 161//161 18//18 141//141
f 162//162 21//21 142//142
f 145//145 24//24 144//144
f 147//147 25//25 146//146
f 149//149 26//26 148//148
f 151//151 27//27 150//150
f 143//143 23//23 152//152
f 159//159 30//30 153//153
f 160//160 33//33 154//154
f 161//161 36//36 155//155
f 162//162 39//39 156//156
f 158//158 42//42 157//157
f 128//128 44//44 75//75
f 130//130 46//46 78//78
f 132//132 48//48 81//81
f 134//134 50//50 84//84
f 136//136 52//52 87//87
f 76//76 45//45 90//90
f 73//73 43//43 93//93
f 85//85 51//51 96//96
f 82//82 49//49 99//99
f 79//79 47//47 102//102
f 143//143 59//59 105//105
f 145//145 61//61 108//108
f 147//147 63//63 111//111
f 149//149 65//65 114//114
f 151//151 67//67 117//117
f 103//103 58//58 119//119
f 106//106 60//60 121//121
f 109//109 62//62 123//123
f 112//112 64//64 125//125
f 115//115 66//66 127//127
f 73//73 11//11 74//74
f 76//76 8//8 77//77
f 79//79 20//20 80//80
f 82//82 17//17 83//83
f 85//85 14//14 86//86
f 88//88 68//68 89//89
f 91//91 69//69 92//92
f 94//94 70//70 95//95
f 97//97 71//71 98//98
f 100//100 72//72 101//101
f 103//103 29//29 104//104
f 106//106 32//32 107//107
f 109//109 35//35 110//110
f 112//112 38//38 113//113
f 115//115 41//41 116//116
f 88//88 53//53 118//118
f 91//91 54//54 120//120
f 94//94 55//55 122//122
f 97//97 56//56 124//124
f 100//100 57//57 126//126
f 128//128 75//75 129//129
f 130//130 78//78 131//131
f 132//132 81//81 133//133
f 134//134 84//84 135//135
f 136//136 87//87 137//137
f 76//76 90//90 138//138
f 73//73 93//93 139//139
f 85//85 96//96 140//140
f 82//82 99//99 141//141
f 79//79 102//102 142//142
f 143//143 105//105 144//144
f 145//145 108//108 146//146
f 147//147 111//111 148//148
f 149//149 114//114 150//150
f 151//151 117//117 152//152
f 103//103 119//119 153//153
f 106//106 121//121 154//154
f 109//109 123//123 155//155
f 112//112 125//125 156//156
f 115//115 127//127 157//157
f 129//129 3//3 2//2
f 131//131 4//4 3//3
f 133//133 5//5 4//4
f 135//135 6//6 5//5
f 137//137 2//2 6//6
f 138//138 9//9 8//8
f 139//139 12//12 11//11
f 140//140 15//15 14//14
f 141//141 18//18 17//17
f 142//142 21//21 20//20
f 144//144 24//24 23//23
f 146//146 25//25 24//24
f 148//148 26//26 25//25
f 150//150 27//27 26//26
f 152//152 23//23 27//27
f 153//153 30//30 29//29
f 154//154 33//33 32//32
f 155//155 36//36 35//35
f 156//156 39//39 38//38
f 157//157 42//42 41//41
f 75//75 44//44 43//43
f 78//78 46//46 45//45
f 81//81 48//48 47//47
f 84//84 50//50 49//49
f 87//87 52//52 51//51
f 90//90 45//45 53//53
f 93//93 43//43 54//54
f 96//96 51//51 55//55
f 99//99 49//49 56//56
f 102//102 47//47 57//57
f 105//105 59//59 58//58
f 108//108 61//61 60//60
f 111//111 63//63 62//62
f 114//114 65//65 64//64
f 117//117 67//67 66//66
f 119//119 58//58 68//68
f 121//121 60//60 69//69
f 123//123 62//62 70//70
f 125//125 64//64 71//71
f 127//127 66//66 72//72
f 74//74 11//11 46//46
f 77//77 8//8 48//48
f 80//80 20//20 50//50
f 83//83 17//17 52//52
f 86//86 14//14 44//44
f 89//89 68//68 42//42
f 92//92 69//69 30//30
f 95//95 70//70 33//33
f 98//98 71//71 36//36
f 101//101 72//72 39//39
f 104//104 29//29 61//61
f 107//107 32//32 63//63
f 110//110 35//35 65//65
f 113//113 38//38 67//67
f 116//116 41//41 59//59
f 118//118 53//53 12//12
f 120//120 54//54 15//15
f 122//122 55//55 18//18
f 124//124 56//56 21//21
f 126//126 57//57 9//9
f 129//129 75//75 74//74
f 131//131 78//78 77//77
f 133//133 81//81 80//80
f 135//135 84//84 83//83
f 137//137 87//87 86//86
f 138//138 90//90 89//89
f 139//139 93//93 92//92
f 140//140 96//96 95//95
f 141//141 99//99 98//98
f 142//142 102//102 101//101
f 144//144 105//105 104//104
f 146//146 108//108 107//107
f 148//148 111//111 110//110
f 150//150 114//114 113//113
f 152//152 117//117 116//116
f 153//153 119//119 118//118
f 154//154 121//121 120//120
f 155//155 123//123 122//122
f 156//156 125//125 124//124
f 157//157 127//127 126//126
