# Created by Open3D 
# object name: part_041
# number of vertices: 162
# number of triangles: 320
v -1.74615 2.8865 2.39875
vn 0.888811 -0.207678 -0.408516
v -1.7636 2.84772 2.38209
vn 0.8656 -0.232578 -0.443446
v -1.74915 2.91482 2.37889
vn 0.865684 -0.196001 -0.460624
v -1.72741 2.97683 2.39572
vn 0.89258 -0.189608 -0.409083
v -1.73495 2.91286 2.41077
vn 0.921013 -0.20354 -0.332125
v -1.75007 2.84585 2.41248
vn 0.900351 -0.237751 -0.364477
v -1.17857 5.74392 2.32176
vn 0.896497 -0.168983 -0.409559
v -1.19237 5.7179 2.30336
vn 0.870127 -0.173624 -0.46123
v -1.18006 5.78551 2.30294
vn 0.884196 -0.13895 -0.44597
v -1.47499 4.31719 2.34064
vn -0.315461 0.0371121 -0.948213
v -1.74073 2.98592 2.37707
vn -0.353909 0.0448992 -0.934202
v -1.47924 4.31808 2.34233
vn -0.400391 0.0548848 -0.914699
v -1.83804 2.83183 2.41196
vn -0.412298 0.0238147 -0.910738
v -1.84124 2.81322 2.41354
vn -0.448285 -0.459536 -0.766725
v -1.89949 2.84262 2.44037
vn -0.433802 0.00411505 -0.900999
v -1.8228 2.82973 2.44617
vn 0.399488 -0.0883087 0.912475
v -1.75862 2.8459 2.41917
vn 0.406068 -0.0698975 0.911166
v -1.87523 2.87051 2.4726
vn 0.400814 -0.0687888 0.913573
v -1.51762 4.01985 2.38449
vn 0.492745 -0.0745152 0.866977
v -1.20525 5.58357 2.34116
vn 0.604131 -0.0985642 0.790766
v -1.19576 5.64678 2.34126
vn 0.456785 -0.0666429 0.887077
v -1.31633 5.77298 2.38488
vn -0.88881 0.207677 0.408517
v -1.3152 5.81402 2.36486
vn -0.897999 0.237054 0.37068
v -1.33032 5.74701 2.36657
vn -0.912449 0.20246 0.355595
v -1.33525 5.68268 2.38751
vn -0.89258 0.189608 0.409083
v -1.31613 5.74505 2.39846
vn -0.853986 0.194283 0.482661
v -1.30167 5.81215 2.39525
vn -0.862548 0.23253 0.449379
v -1.60627 4.34489 2.4008
vn -0.492742 0.0745146 -0.866979
v -1.34055 5.67616 2.36433
vn -0.456955 0.0670953 -0.886955
v -1.60221 4.34402 2.39867
vn -0.411818 0.0572958 -0.909463
v -1.88391 2.91557 2.46187
vn -0.896497 0.168984 0.409559
v -1.8871 2.94393 2.4421
vn -0.916894 0.180083 0.356195
v -1.89874 2.87623 2.44402
vn -0.916597 0.143426 0.373201
v -1.64891 4.04755 2.44465
vn 0.315464 -0.0371127 0.948212
v -1.84434 3.07413 2.4714
vn 0.182199 -0.00985204 0.983212
v -1.85351 3.01088 2.47203
vn 0.353407 -0.0453099 0.934372
v -1.22724 5.82804 2.36538
vn 0.412298 -0.0238148 0.910738
v -1.29099 5.8118 2.39335
vn 0.40608 -0.0422741 0.912859
v -1.17439 5.7872 2.33992
vn 0.411335 -0.0433829 0.910451
v -1.24247 5.83014 2.33117
vn -0.399488 0.0883089 -0.912475
v -1.23831 5.84862 2.33176
vn -0.246662 0.555521 -0.794074
v -1.18073 5.81932 2.30341
vn -0.376964 0.107869 -0.919925
v -1.77428 2.84807 2.38399
vn -0.40608 0.0422741 -0.912859
v -1.77713 2.8168 2.38431
vn -0.39903 -0.00322049 -0.916932
v -1.22093 5.58574 2.30595
vn -0.183976 0.010201 -0.982878
v -1.72504 3.04782 2.37433
vn -0.184026 0.00993105 -0.982871
v -1.17817 5.71594 2.33524
vn 0.925463 -0.181142 -0.332724
v -1.19578 5.65326 2.3236
vn 0.893073 -0.187126 -0.40915
v -1.72473 2.98371 2.41302
vn 0.457331 -0.0672356 0.886751
v -1.70936 3.04565 2.40954
vn 0.606699 -0.0994124 0.788691
v -1.82697 2.81125 2.44559
vn 0.298753 -0.432074 0.850916
v -1.76219 2.81474 2.41787
vn 0.411735 -0.115203 0.903992
v -1.21176 5.64899 2.30531
vn -0.353824 0.0453368 -0.934213
v -1.89089 2.87267 2.43743
vn -0.411335 0.0433828 -0.910451
v -1.88454 2.84055 2.47394
vn 0.376965 -0.107869 0.919925
v -1.52241 4.01707 2.38672
vn 0.411819 -0.0572959 0.909463
v -1.16653 5.78364 2.33332
vn 0.919101 -0.143358 -0.367018
v -1.30665 5.81397 2.35818
vn -0.406068 0.0698975 -0.911166
v -1.30309 5.84513 2.35947
vn -0.411735 0.115203 -0.903992
v -1.86002 3.0763 2.43618
vn -0.605332 0.0988175 -0.789815
v -1.35591 5.61422 2.3678
vn -0.605276 0.0990864 -0.789824
v -1.87291 2.94197 2.47398
vn -0.858435 0.171884 0.483265
v -1.86687 3.00625 2.45962
vn -0.893073 0.187126 0.40915
v -1.32454 5.67395 2.40028
vn 0.354166 -0.0449925 0.9341
v -1.34023 5.61205 2.40301
vn 0.185527 -0.0102477 0.982586
v -1.22404 5.84665 2.3638
vn 0.449863 0.328675 0.830419
v -1.28815 5.84307 2.39304
vn 0.39903 0.00322048 0.916932
v -1.19005 5.78936 2.30474
vn -0.400813 0.0687889 -0.913574
v -1.86952 3.01309 2.43608
vn -0.457042 0.0666581 -0.886944
v -1.88521 2.87436 2.4744
vn -0.881298 0.138137 0.451921
v -1.64538 4.04301 2.44307
vn 0.40039 -0.0548847 0.9147
v -1.16579 5.81725 2.33697
vn 0.433803 -0.00411509 0.900999
v -1.76071 2.89633 2.38059
vn -0.398015 0.0497741 -0.916028
v -1.75192 2.91825 2.37837
vn -0.230706 0.0141728 -0.97292
v -1.76761 2.84972 2.38147
vn -0.279474 0.0124606 -0.960072
v -1.20258 5.67129 2.30374
vn 0.196972 -0.0642941 -0.978299
v -1.21775 5.58663 2.30656
vn 0.86792 -0.184559 -0.461143
v -1.47138 4.31645 2.34
vn 0.208136 -0.0676331 -0.975759
v -1.18742 5.6692 2.33778
vn 0.854633 -0.155397 0.495433
v -1.51201 4.03309 2.38179
vn 0.859275 -0.157568 0.48664
v -1.20354 5.58466 2.33849
vn 0.925669 -0.192375 -0.325775
v -1.74481 2.89413 2.41631
vn 0.41416 -0.0624025 0.908062
v -1.7522 2.8476 2.41607
vn 0.524519 -0.0985848 0.845672
v -1.73627 2.91609 2.41352
vn 0.566807 -0.095978 0.818241
v -1.83378 2.80613 2.43307
vn -0.194758 -0.980496 0.0264185
v -1.77928 2.80198 2.38624
vn -0.0327398 -0.911992 -0.408899
v -1.76574 2.80011 2.41666
vn 0.254144 -0.935805 0.244296
v -1.19597 5.73947 2.30399
vn -0.396257 0.0586251 -0.916266
v -1.18454 5.78516 2.30238
vn -0.272916 0.0455023 -0.960961
v -1.19624 5.71577 2.30299
vn -0.228633 0.024631 -0.973201
v -1.88521 2.92259 2.43764
vn -0.415921 0.0535514 -0.907823
v -1.86388 3.01032 2.43318
vn -0.407337 0.0561192 -0.911552
v -1.82442 2.90232 2.40922
vn -0.406966 0.0517742 -0.911975
v -1.88702 2.85107 2.47501
vn -0.618476 0.0160521 0.785639
v -1.89459 2.84443 2.46244
vn -0.91169 0.0432794 0.408593
v -1.88823 2.82595 2.47279
vn -0.287333 -0.821564 0.492414
v -1.58409 4.02887 2.41499
vn 0.406113 -0.0560915 0.9121
v -1.84771 3.00809 2.46949
vn 0.404873 -0.0561218 0.912649
v -1.73097 2.98346 2.41599
vn 0.407241 -0.0566214 0.911564
v -1.16381 5.8068 2.33477
vn 0.995763 -0.0681621 0.0617293
v -1.16913 5.78303 2.33697
vn 0.531089 -0.0655462 0.844777
v -1.17077 5.75942 2.33559
vn 0.813108 -0.126071 0.568297
v -1.32047 5.76574 2.36103
vn -0.414161 0.0624027 -0.908062
v -1.329 5.74378 2.36383
vn -0.566804 0.0959775 -0.818243
v -1.31307 5.81227 2.36128
vn -0.524518 0.0985842 -0.845673
v -1.87785 2.99067 2.43956
vn -0.853812 0.155014 -0.496967
v -1.86174 3.07521 2.43886
vn -0.914852 0.191042 0.355738
v -1.60913 4.34552 2.40313
vn -0.859275 0.157568 -0.48664
v -1.8627 2.98858 2.4736
vn -0.194588 0.0635808 0.978822
v -1.64977 4.06215 2.44492
vn -0.208136 0.0676331 0.975759
v -1.84753 3.07324 2.47078
vn -0.857982 0.183081 0.479945
v -1.30456 5.76354 2.39675
vn 0.398014 -0.049774 0.916028
v -1.29767 5.81015 2.39587
vn 0.279475 -0.0124609 0.960072
v -1.31336 5.74162 2.39897
vn 0.23071 -0.0141736 0.972919
v -1.22851 5.85333 2.35097
vn 0.194758 0.980496 -0.0264185
v -1.29954 5.85976 2.36068
vn -0.239434 0.949585 -0.202387
v -1.28599 5.85789 2.3911
vn 0.0533015 0.893342 0.446205
v -1.21756 5.65178 2.30786
vn -0.404888 0.0560638 -0.912646
v -1.25684 5.75976 2.33223
vn -0.405251 0.0604082 -0.912207
v -1.89614 2.87684 2.44037
vn -0.531089 0.0655459 -0.844777
v -1.88468 2.94626 2.4392
vn -0.568885 0.0855207 -0.817958
v -1.88074 2.87471 2.47496
vn 0.272915 -0.045502 0.960961
v -1.87959 2.89839 2.47525
vn -0.118177 0.0300896 0.992537
v -1.2014 5.64955 2.34416
vn 0.407327 -0.0561571 0.911554
v -1.31814 5.67418 2.39765
vn 0.404971 -0.05566 0.912634
v -1.16775 5.81503 2.3215
vn 0.91169 -0.0432794 -0.408593
v -1.1635 5.83205 2.33497
vn 0.59478 0.7791 0.19809
v -1.77083 2.82551 2.38271
vn 0.660852 -0.286591 -0.693642
v -1.75963 2.87199 2.37995
vn 0.11048 -0.0687861 -0.991495
v -1.74078 2.96175 2.37675
vn 0.196492 -0.0665771 -0.978242
v -1.72244 3.04582 2.37502
vn 0.86782 -0.185063 -0.461128
v -1.46114 4.31496 2.35995
vn 0.892828 -0.188367 -0.409117
v -1.70822 3.04385 2.40695
vn 0.922085 -0.192475 -0.335726
v -1.72563 2.95966 2.41079
vn 0.852099 -0.157248 0.4992
v -1.74472 2.86993 2.41345
vn 0.805431 -0.164771 0.569326
v -1.75639 2.82351 2.41515
vn 0.94689 -0.314205 0.068364
v -1.76331 2.81673 2.40228
vn 0.854853 -0.329422 -0.400883
v -1.18569 5.76148 2.3021
vn 0.118175 -0.0300893 -0.992537
v -1.74714 2.98569 2.37969
vn -0.404976 0.0556212 -0.912634
v -1.90178 2.82782 2.44237
vn -0.586018 -0.795262 -0.155372
v -1.80844 2.90011 2.44512
vn 0.405251 -0.0604082 0.912207
v -1.1806 5.71361 2.33814
vn 0.568885 -0.0855205 0.817959
v -1.30889 5.83636 2.36219
vn -0.943682 0.325656 0.0584212
v -1.32056 5.78994 2.3639
vn -0.80542 0.164768 -0.569342
v -1.33965 5.70021 2.36655
vn -0.853372 0.157306 -0.497003
v -1.35705 5.61602 2.3704
vn -0.914751 0.191545 0.355726
v -1.60115 4.3445 2.4241
vn -0.892828 0.188367 0.409117
v -1.34284 5.61405 2.40232
vn -0.85281 0.182846 0.489166
v -1.32449 5.69812 2.40059
vn -0.198229 0.0667344 0.977881
v -1.30564 5.78788 2.39739
vn -0.110479 0.068786 0.991495
v -1.29444 5.83437 2.39463
vn -0.569601 0.262095 0.779013
v -1.29904 5.84273 2.38166
vn -0.854853 0.329422 0.400883
v -1.3343 5.67641 2.36135
vn -0.407249 0.0565618 -0.911564
v -1.8945 2.90045 2.44175
vn -0.813111 0.126072 -0.568293
v -1.86903 2.9441 2.47435
vn 0.228631 -0.0246304 0.973202
v -1.24086 5.75756 2.36813
vn 0.406966 -0.0517742 0.911975
v -1.17704 5.83392 2.30455
vn 0.31384 0.832854 -0.455916
v -1.17826 5.8088 2.30233
vn 0.713039 -0.0238757 -0.700717
v -1.54076 4.33106 2.37043
vn -0.406113 0.0560915 -0.9121
v -1.90146 2.85307 2.44257
vn -0.995865 0.0629389 0.0655076
v -1.8693 2.9204 2.47336
vn 0.396257 -0.0586251 0.916266
v -1.18007 5.73728 2.33971
vn 0.415921 -0.0535514 0.907823
f 1//1 2//2 3//3
f 1//1 3//3 4//4
f 1//1 4//4 5//5
f 1//1 5//5 6//6
f 1//1 6//6 2//2
f 7//7 8//8 9//9
f 10//10 11//11 12//12
f 13//13 14//14 15//15
f 16//16 17//17 18//18
f 19//19 20//20 21//21
f 22//22 23//23 24//24
f 22//22 24//24 25//25
f 22//22 25//25 26//26
f 22//22 26//26 27//27
f 22//22 27//27 23//23
f 28//28 29//29 30//30
f 31//31 32//32 33//33
f 34//34 35//35 36//36
f 37//37 38//38 39//39
f 40//40 41//41 42//42
f 13//13 43//43 44//44
f 10//10 45//45 46//46
f 7//7 47//47 48//48
f 19//19 49//49 50//50
f 16//16 51//51 52//52
f 10//10 53//53 45//45
f 13//13 54//54 43//43
f 16//16 55//55 51//51
f 19//19 56//56 49//49
f 7//7 57//57 47//47
f 40//40 58//58 59//59
f 28//28 60//60 61//61
f 31//31 62//62 63//63
f 34//34 64//64 65//65
f 37//37 66//66 67//67
f 40//40 68//68 58//58
f 28//28 69//69 60//60
f 31//31 70//70 62//62
f 34//34 71//71 64//64
f 37//37 72//72 66//66
f 10//10 46//46 11//11
f 7//7 48//48 8//8
f 19//19 50//50 20//20
f 16//16 52//52 17//17
f 13//13 44//44 14//14
f 40//40 42//42 68//68
f 28//28 30//30 69//69
f 31//31 33//33 70//70
f 34//34 36//36 71//71
f 37//37 39//39 72//72
f 28//28 61//61 29//29
f 31//31 63//63 32//32
f 34//34 65//65 35//35
f 37//37 67//67 38//38
f 40//40 59//59 41//41
f 10//10 12//12 53//53
f 13//13 15//15 54//54
f 16//16 18//18 55//55
f 19//19 21//21 56//56
f 7//7 9//9 57//57
f 73//73 74//74 75//75
f 76//76 77//77 78//78
f 79//79 80//80 81//81
f 82//82 83//83 84//84
f 85//85 86//86 87//87
f 88//88 89//89 90//90
f 91//91 92//92 93//93
f 94//94 95//95 96//96
f 97//97 98//98 99//99
f 100//100 101//101 102//102
f 103//103 104//104 105//105
f 106//106 107//107 108//108
f 109//109 110//110 111//111
f 112//112 113//113 114//114
f 115//115 116//116 117//117
f 88//88 118//118 119//119
f 91//91 120//120 121//121
f 94//94 122//122 123//123
f 97//97 124//124 125//125
f 100//100 126//126 127//127
f 128//128 129//129 2//2
f 130//130 131//131 3//3
f 132//132 133//133 4//4
f 134//134 135//135 5//5
f 136//136 137//137 6//6
f 76//76 138//138 8//8
f 73//73 139//139 11//11
f 85//85 140//140 14//14
f 82//82 141//141 17//17
f 79//79 142//142 20//20
f 143//143 144//144 23//23
f 145//145 146//146 24//24
f 147//147 148//148 25//25
f 149//149 150//150 26//26
f 151//151 152//152 27//27
f 103//103 153//153 29//29
f 106//106 154//154 32//32
f 109//109 155//155 35//35
f 112//112 156//156 38//38
f 115//115 157//157 41//41
f 73//73 75//75 43//43
f 76//76 78//78 45//45
f 79//79 81//81 47//47
f 82//82 84//84 49//49
f 85//85 87//87 51//51
f 88//88 90//90 53//53
f 91//91 93//93 54//54
f 94//94 96//96 55//55
f 97//97 99//99 56//56
f 100//100 102//102 57//57
f 103//103 105//105 58//58
f 106//106 108//108 60//60
f 109//109 111//111 62//62
f 112//112 114//114 64//64
f 115//115 117//117 66//66
f 88//88 119//119 68//68
f 91//91 121//121 69//69
f 94//94 123//123 70//70
f 97//97 125//125 71//71
f 100//100 127//127 72//72
f 130//130 74//74 46//46
f 132//132 77//77 48//48
f 134//134 80//80 50//50
f 136//136 83//83 52//52
f 128//128 86//86 44//44
f 158//158 89//89 42//42
f 159//159 92//92 30//30
f 160//160 95//95 33//33
f 161//161 98//98 36//36
f 162//162 101//101 39//39
f 145//145 104//104 61//61
f 147//147 107//107 63//63
f 149//149 110//110 65//65
f 151//151 113//113 67//67
f 143//143 116//116 59//59
f 159//159 118//118 12//12
f 160//160 120//120 15//15
f 161//161 122//122 18//18
f 162//162 124//124 21//21
f 158//158 126//126 9//9
f 130//130 129//129 74//74
f 132//132 131//131 77//77
f 134//134 133//133 80//80
f 136//136 135//135 83//83
f 128//128 137//137 86//86
f 158//158 138//138 89//89
f 159//159 139//139 92//92
f 160//160 140//140 95//95
f 161//161 141//141 98//98
f 162//162 142//142 101//101
f 145//145 144//144 104//104
f 147//147 146//146 107//107
f 149//149 148//148 110//110
f 151//151 150//150 113//113
f 143//143 152//152 116//116
f 159//159 153//153 118//118
f 160//160 154//154 120//120
f 161//161 155//155 122//122
f 162//162 156//156 124//124
f 158//158 157//157 126//126
f 130//130 3//3 129//129
f 132//132 4//4 131//131
f 134//134 5//5 133//133
f 136//136 6//6 135//135
f 128//128 2//2 137//137
f 158//158 9//9 138//138
f 159//159 12//12 139//139
f 160//160 15//15 140//140
f 161//161 18//18 141//141
f 162//162 21//21 142//142
f 145//145 24//24 144//144
f 147//147 25//25 146//146
f 149//149 26//26 148//148
f 151//151 27//27 150//150
f 143//143 23//23 152//152
f 159//159 30//30 153//153
f 160//160 33//33 154//154
f 161//161 36//36 155//155
f 162//162 39//39 156//156
f 158//158 42//42 157//157
f 128//128 44//44 75//75
f 130//130 46//46 78//78
f 132//132 48//48 81//81
f 134//134 50//50 84//84
f 136//136 52//52 87//87
f 76//76 45//45 90//90
f 73//73 43//43 93//93
f 85//85 51//51 96//96
f 82//82 49//49 99//99
f 79//79 47//47 102//102
f 143//143 59//59 105//105
f 145//145 61//61 108//108
f 147//147 63//63 111//111
f 149//149 65//65 114//114
f 151//151 67//67 117//117
f 103//103 58//58 119//119
f 106//106 60//60 121//121
f 109//109 62//62 123//123
f 112//112 64//64 125//125
f 115//115 66//66 127//127
f 73//73 11//11 74//74
f 76//76 8//8 77//77
f 79//79 20//20 80//80
f 82//82 17//17 83//83
f 85//85 14//14 86//86
f 88//88 68//68 89//89
f 91//91 69//69 92//92
f 94//94 70//70 95//95
f 97//97 71//71 98//98
f 100//100 72//72 101//101
f 103//103 29//29 104//104
f 106//106 32//32 107//107
f 109//109 35//35 110//110
f 112//112 38//38 113//113
f 115//115 41//41 116//116
f 88//88 53//53 118//118
f 91//91 54//54 120//120
f 94//94 55//55 122//122
f 97//97 56//56 124//124
f 100//100 57//57 126//126
f 128//128 75//75 129//129
f 130//130 78//78 131//131
f 132//132 81//81 133//133
f 134//134 84//84 135//135
f 136//136 87//87 137//137
f 76//76 90//90 138//138
f 73//73 93//93 139//139
f 85//85 96//96 140//140
f 82//82 99//99 141//141
f 79//79 102//102 142//142
f 143//143 105//105 144//144
f 145//145 108//108 146//146
f 147//147 111//111 148//148
f 149//149 114//114 150//150
f 151//151 117//117 152//152
f 103//103 119//119 153//153
f 106//106 121//121 154//154
f 109//109 123//123 155//155
f 112//112 125//125 156//156
f 115//115 127//127 157//157
f 129//129 3//3 2//2
f 131//131 4//4 3//3
f 133//133 5//5 4//4
f 135//135 6//6 5//5
f 137//137 2//2 6//6
f 138//138 9//9 8//8
f 139//139 12//12 11//11
f 140//140 15//15 14//14
f 141//141 18//18 17//17
f 142//142 21//21 20//20
f 144//144 24//24 23//23
f 146//146 25//25 24//24
f 148//148 26//26 25//25
f 150//150 27//27 26//26
f 152//152 23//23 27//27
f 153//153 30//30 29//29
f 154//154 33//33 32//32
f 155//155 36//36 35//35
f 156//156 39//39 38//38
f 157//157 42//42 41//41
f 75//75 44//44 43//43
f 78//78 46//46 45//45
f 81//81 48//48 47//47
f 84//84 50//50 49//49
f 87//87 52//52 51//51
f 90//90 45//45 53//53
f 93//93 43//43 54//54
f 96//96 51//51 55//55
f 99//99 49//49 56//56
f 102//102 47//47 57//57
f 105//105 59//59 58//58
f 108//108 61//61 60//60
f 111//111 63//63 62//62
f 114//114 65//65 64//64
f 117//117 67//67 66//66
f 119//119 58//58 68//68
f 121//121 60//60 69//69
f 123//123 62//62 70//70
f 125//125 64//64 71//71
f 127//127 66//66 72//72
f 74//74 11//11 46//46
f 77//77 8//8 48//48
f 80//80 20//20 50//50
f 83//83 17//17 52//52
f 86//86 14//14 44//44
f 89//89 68//68 42//42
f 92//92 69//69 30//30
f 95//95 70//70 33//33
f 98//98 71//71 36//36
f 101//101 72//72 39//39
f 104//104 29//29 61//61
f 107//107 32//32 63//63
f 110//110 35//35 65//65
f 113//113 38//38 67//67
f 116//116 41//41 59//59
f 118//118 53//53 12//12
f 120//120 54//54 15//15
f 122//122 55//55 18//18
f 124//124 56//56 21//21
f 126//126 57//57 9//9
f 129//129 75//75 74//74
f 131//131 78//78 77//77
f 133//133 81//81 80//80
f 135//135 84//84 83//83
f 137//137 87//87 86//86
f 138//138 90//90 89//89
f 139//139 93//93 92//92
f 140//140 96//96 95//95
f 141//141 99//99 98//98
f 142//142 102//102 101//101
f 144//144 105//105 104//104
f 146//146 108//108 107//107
f 148//148 111//111 110//110
f 150//150 114//114 113//113
f 152//152 117//117 116//116
f 153//153 119//119 118//118
f 154//154 121//121 120//120
f 155//155 123//123 122//122
f 156//156 125//125 124//124
f 157//157 127//127 126//126
