# Created by Open3D 
# object name: part_091
# number of vertices: 162
# number of triangles: 320
v -2.46281 3.58984 0.770947
vn 0.6432 -0.202983 -0.738303
v -2.44724 3.59071 0.784656
vn 0.679363 -0.115998 -0.724576
v -2.44912 3.58219 0.785232
vn 0.652081 -0.234729 -0.720898
v -2.46628 3.57871 0.77149
vn 0.623883 -0.262218 -0.736214
v -2.47389 3.58944 0.761657
vn 0.609429 -0.22213 -0.761088
v -2.47085 3.59762 0.762189
vn 0.653754 -0.107121 -0.749087
v -2.5851 3.24321 0.792912
vn 0.598971 -0.328335 -0.730362
v -2.56908 3.24216 0.80678
vn 0.626437 -0.307416 -0.71629
v -2.57297 3.23434 0.807239
vn 0.573314 -0.416578 -0.705531
v -2.50853 3.41215 0.798664
vn 0.831677 -0.262414 0.489339
v -2.4519 3.57382 0.788887
vn 0.786378 -0.239497 0.56943
v -2.5096 3.41262 0.800292
vn 0.717929 -0.21126 0.663285
v -2.46458 3.60256 0.809633
vn 0.76951 0.0366485 0.637582
v -2.46463 3.60505 0.80869
vn 0.469988 0.879087 0.0794814
v -2.48297 3.61068 0.830922
vn 0.755963 0.207522 0.62085
v -2.49116 3.61033 0.784338
vn -0.602106 0.437845 -0.667652
v -2.47539 3.59956 0.763669
vn -0.665038 0.30446 -0.68193
v -2.51012 3.61441 0.804734
vn -0.673566 0.308107 -0.671848
v -2.5238 3.4561 0.769853
vn -0.548551 0.141311 -0.824089
v -2.58992 3.26606 0.781478
vn -0.31149 0.0488046 -0.948995
v -2.59381 3.25894 0.782778
vn -0.619697 0.168522 -0.766535
v -2.62614 3.26077 0.841427
vn -0.6432 0.202983 0.738303
v -2.61322 3.25156 0.854831
vn -0.655474 0.109011 0.747309
v -2.61017 3.25974 0.855363
vn -0.617193 0.224525 0.754096
v -2.62236 3.27181 0.841178
vn -0.623883 0.262218 0.736214
v -2.63495 3.26698 0.831788
vn -0.659502 0.236777 0.713438
v -2.63683 3.25846 0.832364
vn -0.681625 0.115279 0.722563
v -2.54764 3.42887 0.844899
vn 0.548538 -0.141306 0.824099
v -2.60423 3.26718 0.854713
vn 0.618167 -0.171341 0.767145
v -2.54623 3.42829 0.843598
vn 0.69928 -0.203283 0.685334
v -2.50384 3.60739 0.819461
vn -0.598972 0.328334 0.730362
v -2.49021 3.59977 0.833815
vn -0.591549 0.297213 0.74949
v -2.48749 3.60793 0.832248
vn -0.549425 0.409591 0.728263
v -2.5629 3.47283 0.816087
vn -0.831667 0.26241 -0.489357
v -2.52151 3.59112 0.809504
vn -0.92398 0.313208 -0.219457
v -2.51819 3.5984 0.807662
vn -0.785595 0.243472 -0.568824
v -2.61948 3.24662 0.807387
vn -0.76951 -0.0366485 -0.637582
v -2.636 3.25761 0.827344
vn -0.744247 0.107771 -0.659153
v -2.60127 3.24276 0.786279
vn -0.735721 0.104118 -0.669234
v -2.5929 3.23884 0.832682
vn 0.602106 -0.437845 0.667652
v -2.59454 3.23684 0.832023
vn -0.180222 -0.963847 0.196264
v -2.57502 3.23087 0.810913
vn 0.535851 -0.585374 0.608441
v -2.44806 3.59156 0.789676
vn 0.744247 -0.107771 0.659153
v -2.44652 3.59509 0.787832
vn 0.807771 0.18534 0.559602
v -2.56256 3.25805 0.807516
vn 0.923363 -0.312688 0.22277
v -2.45394 3.56592 0.788007
vn 0.924009 -0.310856 0.222657
v -2.59386 3.24941 0.783205
vn 0.583722 -0.294993 -0.75647
v -2.58082 3.25404 0.792064
vn 0.62104 -0.270278 -0.735703
v -2.47983 3.58199 0.762307
vn -0.617289 0.171482 -0.767821
v -2.4813 3.57392 0.761969
vn -0.305165 0.0485226 -0.951062
v -2.48953 3.61234 0.784997
vn 0.114337 0.961202 -0.251032
v -2.4726 3.60272 0.763017
vn -0.484049 0.563207 -0.669697
v -2.56587 3.25077 0.809358
vn 0.785221 -0.242796 0.569629
v -2.48279 3.60642 0.830741
vn 0.735721 -0.104118 0.669234
v -2.50904 3.61831 0.806107
vn -0.535851 0.585374 -0.608441
v -2.52505 3.45713 0.771125
vn -0.699278 0.203283 -0.685336
v -2.59658 3.24125 0.784772
vn 0.546833 -0.410172 -0.729886
v -2.60867 3.24962 0.853351
vn 0.665038 -0.30446 0.68193
v -2.61147 3.24646 0.854003
vn 0.484049 -0.563207 0.669697
v -2.49414 3.58312 0.835542
vn 0.308905 -0.0477569 0.949893
v -2.60276 3.27525 0.855051
vn 0.308261 -0.0495884 0.950008
v -2.51498 3.60701 0.81024
vn -0.633799 0.309637 0.708819
v -2.50782 3.59647 0.820604
vn -0.62104 0.270278 0.735703
v -2.63217 3.27535 0.828133
vn -0.785925 0.239624 -0.570002
v -2.63012 3.28325 0.829013
vn -0.923416 0.310544 -0.225531
v -2.61944 3.24412 0.80833
vn -0.521852 -0.842001 -0.136764
v -2.63754 3.25408 0.829188
vn -0.807771 -0.18534 -0.559602
v -2.57394 3.23476 0.812286
vn 0.673566 -0.308107 0.671848
v -2.49026 3.59023 0.834242
vn 0.619317 -0.168039 0.766948
v -2.5111 3.61484 0.809781
vn -0.574707 0.418323 0.703362
v -2.56168 3.47279 0.814431
vn -0.717931 0.21126 -0.663283
v -2.6011 3.23849 0.786098
vn -0.755963 -0.207522 -0.62085
v -2.44878 3.58504 0.788866
vn 0.734486 -0.17975 0.654386
v -2.44874 3.58182 0.787374
vn 0.914353 -0.261409 0.30923
v -2.44663 3.59051 0.787384
vn 0.904209 -0.159223 0.396301
v -2.56638 3.24765 0.807373
vn 0.893721 -0.340003 -0.292679
v -2.56326 3.25798 0.805547
vn 0.639504 -0.272112 -0.71902
v -2.50823 3.41192 0.796901
vn 0.89241 -0.334072 -0.303317
v -2.59283 3.25538 0.782204
vn 0.177664 -0.129715 -0.975505
v -2.52277 3.45382 0.769443
vn 0.187793 -0.127967 -0.973837
v -2.58806 3.26523 0.781946
vn 0.594502 -0.258942 -0.76126
v -2.47653 3.59316 0.762456
vn -0.681589 0.234462 -0.693156
v -2.47351 3.59838 0.761805
vn -0.429637 0.230935 -0.872972
v -2.47605 3.5898 0.761388
vn -0.376476 0.116166 -0.919114
v -2.47943 3.61017 0.79432
vn 0.332119 0.941349 -0.0596528
v -2.44709 3.59723 0.786533
vn 0.427207 0.898302 -0.102699
v -2.47073 3.60414 0.764041
vn 0.354806 0.919195 -0.17086
v -2.57046 3.24015 0.810722
vn 0.710781 -0.246948 0.65864
v -2.57227 3.23442 0.80995
vn 0.819996 -0.397899 0.411441
v -2.56847 3.24246 0.808879
vn 0.88835 -0.33511 0.313902
v -2.48586 3.60091 0.832708
vn 0.705294 -0.16726 0.688901
v -2.48826 3.58961 0.832239
vn 0.707346 -0.204788 0.676552
v -2.46694 3.59382 0.810798
vn 0.719821 -0.174385 0.671899
v -2.51025 3.61754 0.808052
vn -0.548761 0.678046 0.488994
v -2.49999 3.61556 0.817666
vn -0.408809 0.658389 0.63198
v -2.50721 3.61975 0.80718
vn 0.227992 0.973438 -0.0209183
v -2.54337 3.46512 0.792717
vn -0.708684 0.207295 -0.674385
v -2.51647 3.59786 0.805398
vn -0.709861 0.210248 -0.67223
v -2.4817 3.58298 0.764287
vn -0.705995 0.208595 -0.676801
v -2.59902 3.23901 0.784982
vn 0.265759 -0.59525 -0.75832
v -2.59915 3.24229 0.78437
vn -0.513855 -0.00774333 -0.857842
v -2.59679 3.24454 0.783485
vn 0.0639819 -0.195883 -0.978538
v -2.60754 3.25601 0.854564
vn 0.681589 -0.234462 0.693156
v -2.60801 3.25937 0.855632
vn 0.376476 -0.116166 0.919114
v -2.61055 3.2508 0.855215
vn 0.429637 -0.230935 0.872972
v -2.49124 3.59379 0.834816
vn -0.175868 0.130027 0.975789
v -2.49601 3.58394 0.835074
vn -0.604471 0.261864 0.752358
v -2.54926 3.42948 0.845415
vn -0.187793 0.127967 0.973837
v -2.51769 3.60153 0.809647
vn -0.893985 0.341278 0.290379
v -2.5638 3.47137 0.817957
vn -0.89241 0.334072 0.303317
v -2.52081 3.5912 0.811473
vn -0.645801 0.273972 0.712657
v -2.63529 3.26413 0.828154
vn -0.734486 0.17975 -0.654386
v -2.63743 3.25866 0.829636
vn -0.904209 0.159223 -0.396301
v -2.63532 3.26736 0.829646
vn -0.914353 0.261409 -0.30923
v -2.60984 3.24053 0.817745
vn -0.332119 -0.941349 0.0596528
v -2.61334 3.24504 0.852979
vn -0.360192 -0.917904 0.166472
v -2.63697 3.25195 0.830487
vn -0.431804 -0.896673 0.0975899
v -2.5676 3.25132 0.811622
vn 0.710013 -0.209799 0.67221
v -2.58923 3.24719 0.832764
vn 0.696687 -0.239951 0.676055
v -2.48492 3.60689 0.83265
vn 0.513855 0.00774333 0.857842
v -2.48829 3.59873 0.834127
vn 0.40248 -0.0424677 0.914443
v -2.5118 3.61475 0.80707
vn -0.819996 0.397899 -0.411441
v -2.5133 3.61224 0.80877
vn -0.877514 0.433836 0.204342
v -2.5958 3.25957 0.784781
vn -0.707247 0.205081 -0.676568
v -2.63057 3.27444 0.825893
vn -0.711094 0.206727 -0.672019
v -2.5892 3.23512 0.794479
vn 0.408809 -0.658389 -0.63198
v -2.60049 3.23634 0.787348
vn -0.304989 -0.950916 -0.0523472
v -2.44614 3.59353 0.786035
vn 0.798931 0.142406 -0.584319
v -2.4471 3.58745 0.786038
vn 0.947088 -0.236583 -0.216915
v -2.45041 3.57633 0.786544
vn 0.897563 -0.329115 -0.293365
v -2.45451 3.56619 0.786016
vn 0.640081 -0.270473 -0.719125
v -2.52379 3.41643 0.78138
vn 0.622467 -0.26625 -0.735966
v -2.47932 3.57345 0.762414
vn 0.598418 -0.258223 -0.758431
v -2.47686 3.58407 0.761375
vn 0.177972 -0.117234 -0.977027
v -2.47313 3.59506 0.761273
vn 0.13356 0.00137567 -0.99104
v -2.47134 3.6009 0.762048
vn 0.549281 0.208361 -0.809244
v -2.46088 3.59883 0.771431
vn 0.705259 0.181853 -0.685229
v -2.57077 3.23693 0.80825
vn 0.877514 -0.433836 -0.204342
v -2.45349 3.57473 0.791127
vn 0.711199 -0.206436 0.671997
v -2.48358 3.61283 0.829672
vn 0.299811 0.952794 0.0479251
v -2.49483 3.60198 0.784256
vn -0.696687 0.239951 -0.676055
v -2.59578 3.25045 0.782893
vn -0.40248 0.0424677 -0.914443
v -2.61272 3.24828 0.854972
vn -0.596796 -0.201538 0.776671
v -2.61094 3.25412 0.855747
vn -0.13356 -0.00137567 0.99104
v -2.6072 3.26511 0.855645
vn -0.179716 0.119142 0.976477
v -2.60475 3.27573 0.854606
vn -0.605048 0.260226 0.752462
v -2.56549 3.43427 0.830685
vn -0.622467 0.26625 0.735966
v -2.62955 3.28298 0.831004
vn -0.649513 0.273165 0.709587
v -2.63365 3.27284 0.830476
vn -0.896796 0.329867 0.294864
v -2.63696 3.26173 0.830982
vn -0.947088 0.236583 0.216915
v -2.63793 3.25565 0.830985
vn -0.832286 -0.125573 0.539937
v -2.62831 3.25184 0.840714
vn -0.705259 -0.181853 0.685229
v -2.60237 3.26619 0.852733
vn 0.70616 -0.208151 0.676766
v -2.48727 3.60463 0.833535
vn -0.0639819 0.195883 0.978538
v -2.51559 3.60672 0.808141
vn -0.88835 0.33511 -0.313902
v -2.61713 3.25535 0.806222
vn -0.719821 0.174385 -0.671899
v -2.57685 3.22943 0.80984
vn -0.232799 -0.972396 0.0158463
v -2.57381 3.23163 0.808968
vn 0.51048 -0.675175 -0.532493
v -2.52786 3.42044 0.821998
vn 0.708684 -0.207295 0.674385
v -2.48504 3.61017 0.832038
vn -0.30835 0.616033 0.724861
v -2.51361 3.60902 0.806298
vn -0.710781 0.246948 -0.65864
v -2.59821 3.24827 0.784312
vn -0.705294 0.16726 -0.688901
f 1//1 2//2 3//3
f 1//1 3//3 4//4
f 1//1 4//4 5//5
f 1//1 5//5 6//6
f 1//1 6//6 2//2
f 7//7 8//8 9//9
f 10//10 11//11 12//12
f 13//13 14//14 15//15
f 16//16 17//17 18//18
f 19//19 20//20 21//21
f 22//22 23//23 24//24
f 22//22 24//24 25//25
f 22//22 25//25 26//26
f 22//22 26//26 27//27
f 22//22 27//27 23//23
f 28//28 29//29 30//30
f 31//31 32//32 33//33
f 34//34 35//35 36//36
f 37//37 38//38 39//39
f 40//40 41//41 42//42
f 13//13 43//43 44//44
f 10//10 45//45 46//46
f 7//7 47//47 48//48
f 19//19 49//49 50//50
f 16//16 51//51 52//52
f 10//10 53//53 45//45
f 13//13 54//54 43//43
f 16//16 55//55 51//51
f 19//19 56//56 49//49
f 7//7 57//57 47//47
f 40//40 58//58 59//59
f 28//28 60//60 61//61
f 31//31 62//62 63//63
f 34//34 64//64 65//65
f 37//37 66//66 67//67
f 40//40 68//68 58//58
f 28//28 69//69 60//60
f 31//31 70//70 62//62
f 34//34 71//71 64//64
f 37//37 72//72 66//66
f 10//10 46//46 11//11
f 7//7 48//48 8//8
f 19//19 50//50 20//20
f 16//16 52//52 17//17
f 13//13 44//44 14//14
f 40//40 42//42 68//68
f 28//28 30//30 69//69
f 31//31 33//33 70//70
f 34//34 36//36 71//71
f 37//37 39//39 72//72
f 28//28 61//61 29//29
f 31//31 63//63 32//32
f 34//34 65//65 35//35
f 37//37 67//67 38//38
f 40//40 59//59 41//41
f 10//10 12//12 53//53
f 13//13 15//15 54//54
f 16//16 18//18 55//55
f 19//19 21//21 56//56
f 7//7 9//9 57//57
f 73//73 74//74 75//75
f 76//76 77//77 78//78
f 79//79 80//80 81//81
f 82//82 83//83 84//84
f 85//85 86//86 87//87
f 88//88 89//89 90//90
f 91//91 92//92 93//93
f 94//94 95//95 96//96
f 97//97 98//98 99//99
f 100//100 101//101 102//102
f 103//103 104//104 105//105
f 106//106 107//107 108//108
f 109//109 110//110 111//111
f 112//112 113//113 114//114
f 115//115 116//116 117//117
f 88//88 118//118 119//119
f 91//91 120//120 121//121
f 94//94 122//122 123//123
f 97//97 124//124 125//125
f 100//100 126//126 127//127
f 128//128 129//129 2//2
f 130//130 131//131 3//3
f 132//132 133//133 4//4
f 134//134 135//135 5//5
f 136//136 137//137 6//6
f 76//76 138//138 8//8
f 73//73 139//139 11//11
f 85//85 140//140 14//14
f 82//82 141//141 17//17
f 79//79 142//142 20//20
f 143//143 144//144 23//23
f 145//145 146//146 24//24
f 147//147 148//148 25//25
f 149//149 150//150 26//26
f 151//151 152//152 27//27
f 103//103 153//153 29//29
f 106//106 154//154 32//32
f 109//109 155//155 35//35
f 112//112 156//156 38//38
f 115//115 157//157 41//41
f 73//73 75//75 43//43
f 76//76 78//78 45//45
f 79//79 81//81 47//47
f 82//82 84//84 49//49
f 85//85 87//87 51//51
f 88//88 90//90 53//53
f 91//91 93//93 54//54
f 94//94 96//96 55//55
f 97//97 99//99 56//56
f 100//100 102//102 57//57
f 103//103 105//105 58//58
f 106//106 108//108 60//60
f 109//109 111//111 62//62
f 112//112 114//114 64//64
f 115//115 117//117 66//66
f 88//88 119//119 68//68
f 91//91 121//121 69//69
f 94//94 123//123 70//70
f 97//97 125//125 71//71
f 100//100 127//127 72//72
f 130//130 74//74 46//46
f 132//132 77//77 48//48
f 134//134 80//80 50//50
f 136//136 83//83 52//52
f 128//128 86//86 44//44
f 158//158 89//89 42//42
f 159//159 92//92 30//30
f 160//160 95//95 33//33
f 161//161 98//98 36//36
f 162//162 101//101 39//39
f 145//145 104//104 61//61
f 147//147 107//107 63//63
f 149//149 110//110 65//65
f 151//151 113//113 67//67
f 143//143 116//116 59//59
f 159//159 118//118 12//12
f 160//160 120//120 15//15
f 161//161 122//122 18//18
f 162//162 124//124 21//21
f 158//158 126//126 9//9
f 130//130 129//129 74//74
f 132//132 131//131 77//77
f 134//134 133//133 80//80
f 136//136 135//135 83//83
f 128//128 137//137 86//86
f 158//158 138//138 89//89
f 159//159 139//139 92//92
f 160//160 140//140 95//95
f 161//161 141//141 98//98
f 162//162 142//142 101//101
f 145//145 144//144 104//104
f 147//147 146//146 107//107
f 149//149 148//148 110//110
f 151//151 150//150 113//113
f 143//143 152//152 116//116
f 159//159 153//153 118//118
f 160//160 154//154 120//120
f 161//161 155//155 122//122
f 162//162 156//156 124//124
f 158//158 157//157 126//126
f 130//130 3//3 129//129
f 132//132 4//4 131//131
f 134//134 5//5 133//133
f 136//136 6//6 135//135
f 128//128 2//2 137//137
f 158//158 9//9 138//138
f 159//159 12//12 139//139
f 160//160 15//15 140//140
f 161//161 18//18 141//141
f 162//162 21//21 142//142
f 145//145 24//24 144//144
f 147//147 25//25 146//146
f 149//149 26//26 148//148
f 151//151 27//27 150//150
f 143//143 23//23 152//152
f 159//159 30//30 153//153
f 160//160 33//33 154//154
f 161//161 36//36 155//155
f 162//162 39//39 156//156
f 158//158 42//42 157//157
f 128//128 44//44 75//75
f 130//130 46//46 78//78
f 132//132 48//48 81//81
f 134//134 50//50 84//84
f 136//136 52//52 87//87
f 76//76 45//45 90//90
f 73//73 43//43 93//93
f 85//85 51//51 96//96
f 82//82 49//49 99//99
f 79//79 47//47 102//102
f 143//143 59//59 105//105
f 145//145 61//61 108//108
f 147//147 63//63 111//111
f 149//149 65//65 114//114
f 151//151 67//67 117//117
f 103//103 58//58 119//119
f 106//106 60//60 121//121
f 109//109 62//62 123//123
f 112//112 64//64 125//125
f 115//115 66//66 127//127
f 73//73 11//11 74//74
f 76//76 8//8 77//77
f 79//79 20//20 80//80
f 82//82 17//17 83//83
f 85//85 14//14 86//86
f 88//88 68//68 89//89
f 91//91 69//69 92//92
f 94//94 70//70 95//95
f 97//97 71//71 98//98
f 100//100 72//72 101//101
f 103//103 29//29 104//104
f 106//106 32//32 107//107
f 109//109 35//35 110//110
f 112//112 38//38 113//113
f 115//115 41//41 116//116
f 88//88 53//53 118//118
f 91//91 54//54 120//120
f 94//94 55//55 122//122
f 97//97 56//56 124//124
f 100//100 57//57 126//126
f 128//128 75//75 129//129
f 130//130 78//78 131//131
f 132//132 81//81 133//133
f 134//134 84//84 135//135
f 136//136 87//87 137//137
f 76//76 90//90 138//138
f 73//73 93//93 139//139
f 85//85 96//96 140//140
f 82//82 99//99 141//141
f 79//79 102//102 142//142
f 143//143 105//105 144//144
f 145//145 108//108 146//146
f 147//147 111//111 148//148
f 149//149 114//114 150//150
f 151//151 117//117 152//152
f 103//103 119//119 153//153
f 106//106 121//121 154//154
f 109//109 123//123 155//155
f 112//112 125//125 156//156
f 115//115 127//127 157//157
f 129//129 3//3 2//2
f 131//131 4//4 3//3
f 133//133 5//5 4//4
f 135//135 6//6 5//5
f 137//137 2//2 6//6
f 138//138 9//9 8//8
f 139//139 12//12 11//11
f 140//140 15//15 14//14
f 141//141 18//18 17//17
f 142//142 21//21 20//20
f 144//144 24//24 23//23
f 146//146 25//25 24//24
f 148//148 26//26 25//25
f 150//150 27//27 26//26
f 152//152 23//23 27//27
f 153//153 30//30 29//29
f 154//154 33//33 32//32
f 155//155 36//36 35//35
f 156//156 39//39 38//38
f 157//157 42//42 41//41
f 75//75 44//44 43//43
f 78//78 46//46 45//45
f 81//81 48//48 47//47
f 84//84 50//50 49//49
f 87//87 52//52 51//51
f 90//90 45//45 53//53
f 93//93 43//43 54//54
f 96//96 51//51 55//55
f 99//99 49//49 56//56
f 102//102 47//47 57//57
f 105//105 59//59 58//58
f 108//108 61//61 60//60
f 111//111 63//63 62//62
f 114//114 65//65 64//64
f 117//117 67//67 66//66
f 119//119 58//58 68//68
f 121//121 60//60 69//69
f 123//123 62//62 70//70
f 125//125 64//64 71//71
f 127//127 66//66 72//72
f 74//74 11//11 46//46
f 77//77 8//8 48//48
f 80//80 20//20 50//50
f 83//83 17//17 52//52
f 86//86 14//14 44//44
f 89//89 68//68 42//42
f 92//92 69//69 30//30
f 95//95 70//70 33//33
f 98//98 71//71 36//36
f 101//101 72//72 39//39
f 104//104 29//29 61//61
f 107//107 32//32 63//63
f 110//110 35//35 65//65
f 113//113 38//38 67//67
f 116//116 41//41 59//59
f 118//118 53//53 12//12
f 120//120 54//54 15//15
f 122//122 55//55 18//18
f 124//124 56//56 21//21
f 126//126 57//57 9//9
f 129//129 75//75 74//74
f 131//131 78//78 77//77
f 133//133 81//81 80//80
f 135//135 84//84 83//83
f 137//137 87//87 86//86
f 138//138 90//90 89//89
f 139//139 93//93 92//92
f 140//140 96//96 95//95
f 141//141 99//99 98//98
f 142//142 102//102 101//101
f 144//144 105//105 104//104
f 146//146 108//108 107//107
f 148//148 111//111 110//110
f 150//150 114//114 113//113
f 152//152 117//117 116//116
f 153//153 119//119 118//118
f 154//154 121//121 120//120
f 155//155 123//123 122//122
f 156//156 125//125 124//124
f 157//157 127//127 126//126
