# Created by Open3D 
# object name: part_097
# number of vertices: 162
# number of triangles: 320
v -1.9816 3.52649 0.0913819
vn 0.56801 -0.12576 -0.813356
v -1.96362 3.53551 0.102995
vn 0.594607 -0.0735897 -0.800642
v -1.96626 3.51624 0.103983
vn 0.590868 -0.145885 -0.793469
v -1.98622 3.50082 0.0927257
vn 0.561283 -0.161789 -0.811656
v -1.99438 3.52053 0.0836761
vn 0.527056 -0.13605 -0.838869
v -1.99043 3.5396 0.0836422
vn 0.555653 -0.0668386 -0.828723
v -2.14249 2.71938 0.143563
vn 0.552716 -0.202496 -0.808394
v -2.12409 2.72447 0.155173
vn 0.582008 -0.190329 -0.790596
v -2.12904 2.70569 0.156645
vn 0.557676 -0.258853 -0.788665
v -2.04458 3.12043 0.132561
vn 0.890218 -0.149638 0.430256
v -1.97002 3.49666 0.108899
vn 0.857953 -0.138232 0.494782
v -2.04585 3.12083 0.134828
vn 0.81097 -0.124699 0.571644
v -1.9841 3.55079 0.138207
vn 0.82179 -0.00895679 0.56972
v -1.98402 3.55618 0.137178
vn 0.517631 0.834512 0.188805
v -2.00589 3.55776 0.16924
vn 0.807758 0.0775675 0.584389
v -2.01429 3.5554 0.116418
vn -0.77672 0.235061 -0.584339
v -1.99572 3.54138 0.0868234
vn -0.79147 0.168551 -0.587508
v -2.03691 3.55345 0.14644
vn -0.797329 0.170269 -0.579029
v -2.05963 3.20863 0.104307
vn -0.694336 0.0922649 -0.713712
v -2.14674 2.7666 0.132143
vn -0.518647 0.0477633 -0.853653
v -2.15168 2.74929 0.134635
vn -0.743514 0.104848 -0.66045
v -2.19116 2.73364 0.213995
vn -0.568012 0.125759 0.813356
v -2.17678 2.71968 0.225737
vn -0.558597 0.0680917 0.82664
v -2.17283 2.73875 0.225703
vn -0.538701 0.137922 0.831131
v -2.18619 2.75926 0.212905
vn -0.561283 0.161789 0.811656
v -2.20095 2.74304 0.205396
vn -0.601912 0.147477 0.784826
v -2.20359 2.72377 0.206384
vn -0.597671 0.0732511 0.798388
v -2.09096 3.13402 0.199683
vn 0.694331 -0.0922637 0.713717
v -2.16547 2.75778 0.223377
vn 0.742892 -0.106157 0.66094
v -2.0893 3.13356 0.197698
vn 0.798206 -0.120961 0.590115
v -2.03027 3.54075 0.161814
vn -0.552716 0.202496 0.808394
v -2.015 3.53051 0.174514
vn -0.529843 0.182364 0.828257
v -2.01137 3.5495 0.172088
vn -0.521669 0.253359 0.81466
v -2.10602 3.22221 0.171429
vn -0.890218 0.149637 -0.430257
v -2.05153 3.49743 0.154807
vn -0.961481 0.178667 -0.208883
v -2.04724 3.51483 0.151848
vn -0.857966 0.140087 -0.494236
v -2.18311 2.70849 0.171172
vn -0.82179 0.00895743 -0.56972
v -2.20253 2.72264 0.200154
vn -0.815954 0.0768401 -0.572988
v -2.16133 2.71057 0.140537
vn -0.810093 0.075125 -0.581469
v -2.15293 2.70388 0.192962
vn 0.776721 -0.23506 0.584339
v -2.15493 2.69879 0.19261
vn 0.164181 -0.938601 0.303436
v -2.13172 2.697 0.161515
vn 0.76919 -0.318297 0.554106
v -1.96469 3.53664 0.109226
vn 0.815954 -0.0768381 0.572987
v -1.96266 3.5451 0.106683
vn 0.845875 0.0664011 0.529231
v -2.11568 2.76185 0.154573
vn 0.960904 -0.178319 0.211817
v -1.97278 3.47872 0.108226
vn 0.961086 -0.177423 0.211741
v -2.15221 2.72877 0.134865
vn 0.518177 -0.18059 -0.83599
v -2.13691 2.74483 0.141602
vn 0.560301 -0.166716 -0.811337
v -2.00174 3.50151 0.0860027
vn -0.742354 0.106225 -0.661534
v -2.00384 3.48346 0.0857966
vn -0.513973 0.0475923 -0.856485
v -2.01229 3.56049 0.116769
vn -0.287016 0.880783 -0.37662
v -1.99226 3.54962 0.0853082
vn -0.731077 0.307133 -0.609258
v -2.11997 2.74445 0.157531
vn 0.857643 -0.139768 0.494887
v -2.00588 3.54871 0.168843
vn 0.810093 -0.0751239 0.581469
v -2.0355 3.56228 0.147865
vn -0.76919 0.318297 -0.554106
v -2.06109 3.21012 0.106225
vn -0.798207 0.120961 -0.590113
v -2.15584 2.70979 0.137292
vn 0.518419 -0.25364 -0.816645
v -2.1715 2.7179 0.222556
vn 0.79147 -0.168551 0.587508
v -2.17495 2.70966 0.224071
vn 0.731077 -0.307133 0.609259
v -2.02047 3.49269 0.177236
vn 0.516603 -0.0472379 0.854921
v -2.16337 2.77582 0.223583
vn 0.516428 -0.0481366 0.854976
v -2.04313 3.53481 0.154207
vn -0.593032 0.192017 0.781948
v -2.03549 3.51525 0.164029
vn -0.560301 0.166715 0.811338
v -2.19719 2.76262 0.200481
vn -0.857676 0.138286 -0.495247
v -2.19443 2.78056 0.201154
vn -0.960608 0.177213 -0.214076
v -2.1832 2.70311 0.172201
vn -0.610837 -0.743717 -0.271594
v -2.20455 2.71418 0.202696
vn -0.845873 -0.0663997 -0.529235
v -2.1303 2.70584 0.162939
vn 0.797329 -0.170269 0.579029
v -2.01553 3.50999 0.174744
vn 0.743204 -0.104623 0.660834
v -2.03818 3.55359 0.152735
vn -0.560434 0.260058 0.78631
v -2.10454 3.22284 0.169095
vn -0.810968 0.124699 -0.571647
v -2.16132 2.70152 0.140139
vn -0.807758 -0.0775675 -0.584388
v -1.96582 3.52234 0.10828
vn 0.817515 -0.110122 0.565281
v -1.96589 3.5155 0.1064
vn 0.946429 -0.151684 0.285068
v -1.963 3.53524 0.106046
vn 0.927438 -0.102131 0.359762
v -2.12066 2.73759 0.155231
vn 0.935243 -0.208131 -0.286362
v -2.11645 2.76144 0.152444
vn 0.586579 -0.168663 -0.792135
v -2.04418 3.12021 0.130369
vn 0.932268 -0.205103 -0.298009
v -2.15069 2.74217 0.13355
vn -0.0474031 -0.0577294 -0.997206
v -2.05852 3.20426 0.103443
vn -0.0368974 -0.0571471 -0.997684
v -2.14461 2.76574 0.132113
vn 0.519321 -0.158354 -0.839779
v -1.99733 3.52715 0.0855304
vn -0.791306 0.135486 -0.596221
v -1.99352 3.5399 0.084012
vn -0.630051 0.135637 -0.764616
v -1.9969 3.52024 0.0840159
vn -0.575611 0.0806754 -0.813734
v -2.00077 3.56045 0.124732
vn 0.195099 0.97874 -0.0632769
v -1.96319 3.54946 0.105379
vn 0.371361 0.917781 -0.140603
v -1.99003 3.55356 0.0860038
vn 0.190102 0.943931 -0.269918
v -2.1259 2.71925 0.160201
vn 0.811291 -0.141342 0.567301
v -2.12828 2.70609 0.159652
vn 0.904717 -0.216088 0.367143
v -2.12341 2.72531 0.157488
vn 0.939341 -0.187216 0.287382
v -2.0098 3.53522 0.171928
vn 0.797527 -0.104268 0.594205
v -2.01316 3.50977 0.171748
vn 0.803474 -0.12167 0.582774
v -1.98733 3.53079 0.140031
vn 0.807577 -0.107596 0.579864
v -2.037 3.55992 0.150512
vn -0.688924 0.443175 0.573567
v -2.0253 3.56033 0.158774
vn -0.483249 0.43299 0.760914
v -2.03331 3.56623 0.148632
vn -0.00124445 0.999975 0.00697083
v -2.08281 3.21682 0.137594
vn -0.804639 0.122838 -0.580919
v -2.04518 3.51466 0.148628
vn -0.805762 0.124213 -0.579067
v -2.00394 3.50258 0.0889433
vn -0.803116 0.123438 -0.582895
v -2.15883 2.70373 0.138205
vn 0.245437 -0.375477 -0.893744
v -2.1588 2.71075 0.137618
vn -0.652727 0.0216773 -0.757283
v -2.1559 2.71683 0.13593
vn -0.148185 -0.09077 -0.984785
v -2.16989 2.73214 0.223849
vn 0.791305 -0.135486 0.596221
v -2.17031 2.73905 0.225363
vn 0.575602 -0.0806742 0.813741
v -2.17369 2.71939 0.225367
vn 0.630043 -0.135635 0.764624
v -2.01652 3.51711 0.175829
vn 0.0492572 0.057833 0.99711
v -2.0226 3.49354 0.177266
vn -0.534219 0.16067 0.829937
v -2.09285 3.13447 0.2008
vn 0.0368974 0.0571471 0.997684
v -2.04655 3.5217 0.154148
vn -0.935861 0.208778 0.28386
v -2.1072 3.21852 0.173874
vn -0.932265 0.205103 0.298018
v -2.05076 3.49784 0.156935
vn -0.595989 0.170086 0.784773
v -2.2014 2.73695 0.2011
vn -0.817514 0.110121 -0.565283
v -2.20421 2.72405 0.203333
vn -0.927431 0.102134 -0.359778
v -2.20132 2.74378 0.202979
vn -0.946429 0.151684 -0.285069
v -2.17235 2.69973 0.180379
vn -0.195099 -0.97874 0.0632769
v -2.17718 2.70573 0.223375
vn -0.203362 -0.943429 0.26189
v -2.20402 2.70982 0.204
vn -0.382873 -0.914502 0.130746
v -2.12203 2.74462 0.160751
vn 0.805799 -0.124005 0.57906
v -2.14822 2.72366 0.192213
vn 0.801506 -0.138053 0.581833
v -2.00841 3.54854 0.171761
vn 0.65273 -0.0216766 0.757281
v -2.0128 3.52924 0.174276
vn 0.582679 -0.0451411 0.811448
v -2.03893 3.5532 0.149727
vn -0.904717 0.216088 -0.367143
v -2.04086 3.54696 0.152117
vn -0.946384 0.257873 0.194573
v -2.15405 2.74951 0.137631
vn -0.80345 0.121807 -0.582779
v -2.1953 2.76159 0.197316
vn -0.806082 0.122578 -0.578971
v -2.14773 2.69984 0.146406
vn 0.483249 -0.43299 -0.760914
v -2.16074 2.69715 0.141372
vn -0.191526 -0.970546 -0.146142
v -1.96223 3.54203 0.104387
vn 0.741029 0.0854849 -0.66601
v -1.96366 3.52849 0.104495
vn 0.968018 -0.149351 -0.201584
v -1.9681 3.50293 0.10575
vn 0.936465 -0.202025 -0.286739
v -1.97339 3.47913 0.106044
vn 0.586778 -0.167662 -0.7922
v -2.06183 3.12285 0.116766
vn 0.560794 -0.164253 -0.811499
v -2.00155 3.48342 0.0857136
vn 0.524487 -0.158093 -0.836613
v -1.99813 3.50751 0.0840693
vn -0.0504569 -0.0505563 -0.997446
v -1.99321 3.53301 0.0831623
vn -0.126551 0.017746 -0.991801
v -1.99085 3.5464 0.0837252
vn 0.348078 0.139454 -0.927035
v -1.97891 3.54675 0.0916513
vn 0.593033 0.117757 -0.79652
v -2.12635 2.71232 0.157262
vn 0.946384 -0.257873 -0.194573
v -1.97191 3.49769 0.112064
vn 0.806111 -0.122443 0.578958
v -2.00647 3.56214 0.168007
vn 0.178888 0.974155 0.137916
v -2.019 3.53562 0.117167
vn -0.801506 0.138053 -0.581833
v -2.15441 2.73004 0.135104
vn -0.582675 0.0451397 -0.811451
v -2.17636 2.71288 0.225654
vn -0.420998 -0.134348 0.897057
v -2.174 2.72628 0.226217
vn 0.12656 -0.0177481 0.9918
v -2.16909 2.75177 0.22531
vn 0.0480633 0.051723 0.997504
v -2.16567 2.77586 0.223666
vn -0.534419 0.159669 0.830001
v -2.11129 3.13734 0.188346
vn -0.560794 0.164253 0.811499
v -2.19383 2.78016 0.203335
vn -0.600837 0.169732 0.781144
v -2.19912 2.75635 0.203629
vn -0.935842 0.202491 0.288439
v -2.20355 2.73079 0.204884
vn -0.968016 0.149356 0.201587
v -2.20498 2.71725 0.204992
vn -0.791563 -0.0717437 0.606862
v -2.19412 2.71342 0.213528
vn -0.593032 -0.117757 0.796521
v -2.16327 2.7567 0.220436
vn 0.803162 -0.123232 0.582876
v -2.01131 3.54245 0.17345
vn 0.148184 0.0907725 0.984785
v -2.0438 3.53397 0.151891
vn -0.939342 0.187217 -0.287378
v -2.17989 2.7285 0.169349
vn -0.807577 0.107597 -0.579864
v -2.13391 2.69305 0.160748
vn -0.0108888 -0.999802 -0.0166279
v -2.13021 2.69936 0.158867
vn 0.635527 -0.443788 -0.63179
v -2.06751 3.12718 0.166308
vn 0.804639 -0.122838 0.580919
v -2.00838 3.55555 0.171174
vn -0.31549 0.394937 0.862839
v -2.04131 3.54003 0.149179
vn -0.81129 0.141342 -0.567301
v -2.15741 2.72406 0.137451
vn -0.797527 0.104269 -0.594204
f 1//1 2//2 3//3
f 1//1 3//3 4//4
f 1//1 4//4 5//5
f 1//1 5//5 6//6
f 1//1 6//6 2//2
f 7//7 8//8 9//9
f 10//10 11//11 12//12
f 13//13 14//14 15//15
f 16//16 17//17 18//18
f 19//19 20//20 21//21
f 22//22 23//23 24//24
f 22//22 24//24 25//25
f 22//22 25//25 26//26
f 22//22 26//26 27//27
f 22//22 27//27 23//23
f 28//28 29//29 30//30
f 31//31 32//32 33//33
f 34//34 35//35 36//36
f 37//37 38//38 39//39
f 40//40 41//41 42//42
f 13//13 43//43 44//44
f 10//10 45//45 46//46
f 7//7 47//47 48//48
f 19//19 49//49 50//50
f 16//16 51//51 52//52
f 10//10 53//53 45//45
f 13//13 54//54 43//43
f 16//16 55//55 51//51
f 19//19 56//56 49//49
f 7//7 57//57 47//47
f 40//40 58//58 59//59
f 28//28 60//60 61//61
f 31//31 62//62 63//63
f 34//34 64//64 65//65
f 37//37 66//66 67//67
f 40//40 68//68 58//58
f 28//28 69//69 60//60
f 31//31 70//70 62//62
f 34//34 71//71 64//64
f 37//37 72//72 66//66
f 10//10 46//46 11//11
f 7//7 48//48 8//8
f 19//19 50//50 20//20
f 16//16 52//52 17//17
f 13//13 44//44 14//14
f 40//40 42//42 68//68
f 28//28 30//30 69//69
f 31//31 33//33 70//70
f 34//34 36//36 71//71
f 37//37 39//39 72//72
f 28//28 61//61 29//29
f 31//31 63//63 32//32
f 34//34 65//65 35//35
f 37//37 67//67 38//38
f 40//40 59//59 41//41
f 10//10 12//12 53//53
f 13//13 15//15 54//54
f 16//16 18//18 55//55
f 19//19 21//21 56//56
f 7//7 9//9 57//57
f 73//73 74//74 75//75
f 76//76 77//77 78//78
f 79//79 80//80 81//81
f 82//82 83//83 84//84
f 85//85 86//86 87//87
f 88//88 89//89 90//90
f 91//91 92//92 93//93
f 94//94 95//95 96//96
f 97//97 98//98 99//99
f 100//100 101//101 102//102
f 103//103 104//104 105//105
f 106//106 107//107 108//108
f 109//109 110//110 111//111
f 112//112 113//113 114//114
f 115//115 116//116 117//117
f 88//88 118//118 119//119
f 91//91 120//120 121//121
f 94//94 122//122 123//123
f 97//97 124//124 125//125
f 100//100 126//126 127//127
f 128//128 129//129 2//2
f 130//130 131//131 3//3
f 132//132 133//133 4//4
f 134//134 135//135 5//5
f 136//136 137//137 6//6
f 76//76 138//138 8//8
f 73//73 139//139 11//11
f 85//85 140//140 14//14
f 82//82 141//141 17//17
f 79//79 142//142 20//20
f 143//143 144//144 23//23
f 145//145 146//146 24//24
f 147//147 148//148 25//25
f 149//149 150//150 26//26
f 151//151 152//152 27//27
f 103//103 153//153 29//29
f 106//106 154//154 32//32
f 109//109 155//155 35//35
f 112//112 156//156 38//38
f 115//115 157//157 41//41
f 73//73 75//75 43//43
f 76//76 78//78 45//45
f 79//79 81//81 47//47
f 82//82 84//84 49//49
f 85//85 87//87 51//51
f 88//88 90//90 53//53
f 91//91 93//93 54//54
f 94//94 96//96 55//55
f 97//97 99//99 56//56
f 100//100 102//102 57//57
f 103//103 105//105 58//58
f 106//106 108//108 60//60
f 109//109 111//111 62//62
f 112//112 114//114 64//64
f 115//115 117//117 66//66
f 88//88 119//119 68//68
f 91//91 121//121 69//69
f 94//94 123//123 70//70
f 97//97 125//125 71//71
f 100//100 127//127 72//72
f 130//130 74//74 46//46
f 132//132 77//77 48//48
f 134//134 80//80 50//50
f 136//136 83//83 52//52
f 128//128 86//86 44//44
f 158//158 89//89 42//42
f 159//159 92//92 30//30
f 160//160 95//95 33//33
f 161//161 98//98 36//36
f 162//162 101//101 39//39
f 145//145 104//104 61//61
f 147//147 107//107 63//63
f 149//149 110//110 65//65
f 151//151 113//113 67//67
f 143//143 116//116 59//59
f 159//159 118//118 12//12
f 160//160 120//120 15//15
f 161//161 122//122 18//18
f 162//162 124//124 21//21
f 158//158 126//126 9//9
f 130//130 129//129 74//74
f 132//132 131//131 77//77
f 134//134 133//133 80//80
f 136//136 135//135 83//83
f 128//128 137//137 86//86
f 158//158 138//138 89//89
f 159//159 139//139 92//92
f 160//160 140//140 95//95
f 161//161 141//141 98//98
f 162//162 142//142 101//101
f 145//145 144//144 104//104
f 147//147 146//146 107//107
f 149//149 148//148 110//110
f 151//151 150//150 113//113
f 143//143 152//152 116//116
f 159//159 153//153 118//118
f 160//160 154//154 120//120
f 161//161 155//155 122//122
f 162//162 156//156 124//124
f 158//158 157//157 126//126
f 130//130 3//3 129//129
f 132//132 4//4 131//131
f 134//134 5//5 133//133
f 136//136 6//6 135//135
f 128//128 2//2 137//137
f 158//158 9//9 138//138
f 159//159 12//12 139//139
f 160//160 15//15 140//140
f 161//161 18//18 141//141
f 162//162 21//21 142//142
f 145//145 24//24 144//144
f 147//147 25//25 146//146
f 149//149 26//26 148//148
f 151//151 27//27 150//150
f 143//143 23//23 152//152
f 159//159 30//30 153//153
f 160//160 33//33 154//154
f 161//161 36//36 155//155
f 162//162 39//39 156//156
f 158//158 42//42 157//157
f 128//128 44//44 75//75
f 130//130 46//46 78//78
f 132//132 48//48 81//81
f 134//134 50//50 84//84
f 136//136 52//52 87//87
f 76//76 45//45 90//90
f 73//73 43//43 93//93
f 85//85 51//51 96//96
f 82//82 49//49 99//99
f 79//79 47//47 102//102
f 143//143 59//59 105//105
f 145//145 61//61 108//108
f 147//147 63//63 111//111
f 149//149 65//65 114//114
f 151//151 67//67 117//117
f 103//103 58//58 119//119
f 106//106 60//60 121//121
f 109//109 62//62 123//123
f 112//112 64//64 125//125
f 115//115 66//66 127//127
f 73//73 11//11 74//74
f 76//76 8//8 77//77
f 79//79 20//20 80//80
f 82//82 17//17 83//83
f 85//85 14//14 86//86
f 88//88 68//68 89//89
f 91//91 69//69 92//92
f 94//94 70//70 95//95
f 97//97 71//71 98//98
f 100//100 72//72 101//101
f 103//103 29//29 104//104
f 106//106 32//32 107//107
f 109//109 35//35 110//110
f 112//112 38//38 113//113
f 115//115 41//41 116//116
f 88//88 53//53 118//118
f 91//91 54//54 120//120
f 94//94 55//55 122//122
f 97//97 56//56 124//124
f 100//100 57//57 126//126
f 128//128 75//75 129//129
f 130//130 78//78 131//131
f 132//132 81//81 133//133
f 134//134 84//84 135//135
f 136//136 87//87 137//137
f 76//76 90//90 138//138
f 73//73 93//93 139//139
f 85//85 96//96 140//140
f 82//82 99//99 141//141
f 79//79 102//102 142//142
f 143//143 105//105 144//144
f 145//145 108//108 146//146
f 147//147 111//111 148//148
f 149//149 114//114 150//150
f 151//151 117//117 152//152
f 103//103 119//119 153//153
f 106//106 121//121 154//154
f 109//109 123//123 155//155
f 112//112 125//125 156//156
f 115//115 127//127 157//157
f 129//129 3//3 2//2
f 131//131 4//4 3//3
f 133//133 5//5 4//4
f 135//135 6//6 5//5
f 137//137 2//2 6//6
f 138//138 9//9 8//8
f 139//139 12//12 11//11
f 140//140 15//15 14//14
f 141//141 18//18 17//17
f 142//142 21//21 20//20
f 144//144 24//24 23//23
f 146//146 25//25 24//24
f 148//148 26//26 25//25
f 150//150 27//27 26//26
f 152//152 23//23 27//27
f 153//153 30//30 29//29
f 154//154 33//33 32//32
f 155//155 36//36 35//35
f 156//156 39//39 38//38
f 157//157 42//42 41//41
f 75//75 44//44 43//43
f 78//78 46//46 45//45
f 81//81 48//48 47//47
f 84//84 50//50 49//49
f 87//87 52//52 51//51
f 90//90 45//45 53//53
f 93//93 43//43 54//54
f 96//96 51//51 55//55
f 99//99 49//49 56//56
f 102//102 47//47 57//57
f 105//105 59//59 58//58
f 108//108 61//61 60//60
f 111//111 63//63 62//62
f 114//114 65//65 64//64
f 117//117 67//67 66//66
f 119//119 58//58 68//68
f 121//121 60//60 69//69
f 123//123 62//62 70//70
f 125//125 64//64 71//71
f 127//127 66//66 72//72
f 74//74 11//11 46//46
f 77//77 8//8 48//48
f 80//80 20//20 50//50
f 83//83 17//17 52//52
f 86//86 14//14 44//44
f 89//89 68//68 42//42
f 92//92 69//69 30//30
f 95//95 70//70 33//33
f 98//98 71//71 36//36
f 101//101 72//72 39//39
f 104//104 29//29 61//61
f 107//107 32//32 63//63
f 110//110 35//35 65//65
f 113//113 38//38 67//67
f 116//116 41//41 59//59
f 118//118 53//53 12//12
f 120//120 54//54 15//15
f 122//122 55//55 18//18
f 124//124 56//56 21//21
f 126//126 57//57 9//9
f 129//129 75//75 74//74
f 131//131 78//78 77//77
f 133//133 81//81 80//80
f 135//135 84//84 83//83
f 137//137 87//87 86//86
f 138//138 90//90 89//89
f 139//139 93//93 92//92
f 140//140 96//96 95//95
f 141//141 99//99 98//98
f 142//142 102//102 101//101
f 144//144 105//105 104//104
f 146//146 108//108 107//107
f 148//148 111//111 110//110
f 150//150 114//114 113//113
f 152//152 117//117 116//116
f 153//153 119//119 118//118
f 154//154 121//121 120//120
f 155//155 123//123 122//122
f 156//156 125//125 124//124
f 157//157 127//127 126//126
