# Created by Open3D 
# object name: part_006
# number of vertices: 162
# number of triangles: 320
v -2.1937 4.99627 0.0884853
vn -0.29865 0.954304 -0.0105947
v -2.25025 4.9673 0.109359
vn -0.475925 0.720277 0.504675
v -2.15416 5.0012 0.109076
vn -0.142165 0.70835 0.691397
v -2.0632 5.02194 0.0874726
vn -0.0860773 0.996209 -0.0126002
v -2.1544 5.00074 0.0741222
vn -0.124976 0.556284 -0.821541
v -2.25048 4.96686 0.0760484
vn -0.464935 0.673262 -0.574938
v 1.96341 5.29158 0.0561865
vn 0.160562 0.986924 -0.0141699
v 1.9239 5.2909 0.0773913
vn 0.0512827 0.722087 0.689898
v 2.0238 5.27092 0.0761522
vn 0.377083 0.780873 0.498043
v -0.110577 5.08225 0.0962478
vn 0.00641514 0.019044 0.999798
v -2.04606 4.92073 0.111631
vn 0.00643302 0.0165939 0.999842
v -0.104911 5.00264 0.0975067
vn 0.00680172 0.0136114 0.999884
v -2.20222 3.67034 0.128301
vn -0.0161184 0.0116056 0.999803
v -2.2292 3.66841 0.127323
vn -0.382323 -0.0154129 0.9239
v -2.12195 2.49866 0.14291
vn -0.0326468 0.00928485 0.999424
v -2.20247 3.66985 0.0907965
vn -0.0297719 -0.0148655 -0.999446
v -2.24042 4.7892 0.0757072
vn -0.0162712 -0.0137371 -0.999773
v -2.08158 2.55637 0.104186
vn -0.0162468 -0.0140796 -0.999769
v -0.540212 5.05123 0.0602299
vn -0.00724103 -0.00743374 -0.999946
v 1.73279 5.24824 0.0424734
vn -0.00773475 0.000799766 -0.99997
v 1.82804 5.19544 0.0421202
vn -0.00693771 -0.0098808 -0.999927
v 2.15106 2.6537 0.0898319
vn 0.298652 -0.954303 0.0105991
v 2.20788 2.6832 0.109157
vn 0.482903 -0.706749 0.517021
v 2.11181 2.64932 0.111084
vn 0.151721 -0.689822 0.707902
v 2.02057 2.62804 0.091281
vn 0.0860774 -0.996209 0.0126008
v 2.11157 2.64886 0.07613
vn 0.113846 -0.577856 -0.80816
v 2.20766 2.68276 0.0758464
vn 0.457163 -0.68833 -0.563208
v 0.0682532 2.56833 0.128312
vn 0.00724106 0.00743351 0.999946
v 2.00373 2.72985 0.112984
vn 0.00722336 0.00988328 0.999925
v 0.0625914 2.64795 0.12754
vn 0.00685469 0.0128665 0.999894
v -2.00605 2.35839 0.122131
vn -0.160561 -0.986924 0.0141654
v -1.96625 2.35963 0.142768
vn -0.0417272 -0.70356 0.709409
v -2.06617 2.37959 0.142365
vn -0.370105 -0.767344 0.523647
v -0.361382 2.53731 0.092294
vn -0.00641514 -0.0190439 -0.999798
v -1.77565 2.40132 0.104127
vn -0.00592225 -0.0274848 -0.999605
v -1.8709 2.4541 0.103677
vn -0.00678394 -0.0166446 -0.999838
v 2.15963 3.97972 0.056905
vn 0.0161183 -0.0116056 -0.999803
v 2.19756 2.86035 0.0709392
vn 0.00261575 -0.0127396 -0.999915
v 2.03873 5.09318 0.0424602
vn 0.00259124 -0.0123972 -0.99992
v 2.15988 3.98021 0.0944095
vn 0.0297723 0.0148655 0.999446
v 2.18685 3.98211 0.0930121
vn 0.394899 0.0397986 0.917862
v 2.0796 5.15189 0.0790875
vn 0.0462932 0.0171723 0.99878
v -2.24016 4.78971 0.114267
vn -0.00261493 0.0127397 0.999915
v -2.28861 4.84159 0.113027
vn -0.0328096 0.0115532 0.999395
v 1.73305 5.24875 0.081079
vn 0.00592125 0.0273701 0.999608
v -1.95924 4.98646 0.109766
vn 0.00572407 0.0273568 0.999609
v 1.92366 5.29043 0.0424377
vn 0.0323731 0.56745 -0.822771
v 1.8306 5.29854 0.0572196
vn -0.0558086 0.998359 -0.0128366
v -2.04633 4.92021 0.0722221
vn -0.00726646 -0.00986117 -0.999925
v -1.95951 4.98595 0.0711608
vn -0.00794821 0.0009952 -0.999968
v -2.22944 3.66795 0.0921938
vn -0.28817 -0.0327058 -0.957021
v -2.28886 4.8411 0.0762352
vn -0.046454 -0.014904 -0.998809
v 1.82831 5.19596 0.0815293
vn 0.0067444 0.016616 0.999839
v -2.08132 2.55688 0.142746
vn -0.00259065 0.0123972 0.99992
v -2.1222 2.49817 0.106118
vn -0.0462933 -0.0171723 -0.99878
v -0.539861 4.97123 0.0610433
vn -0.0068547 -0.0128666 -0.999894
v 2.02358 5.27047 0.0428411
vn 0.356157 0.731588 -0.581318
v 2.19783 2.86086 0.109499
vn 0.016271 0.0137371 0.999773
v 2.24627 2.80896 0.108971
vn 0.0464547 0.014904 0.998809
v -1.77538 2.40183 0.142733
vn 0.00773384 -0.000895608 0.99997
v 1.91691 2.66412 0.114045
vn 0.00793095 -0.000881418 0.999968
v -1.96649 2.35917 0.107815
vn -0.0435015 -0.589031 -0.806939
v -1.87323 2.35144 0.121534
vn 0.0558084 -0.998359 0.0128359
v 2.00347 2.72933 0.0735746
vn -0.00646124 -0.0165789 -0.999842
v 1.91665 2.6636 0.0754396
vn -0.00573854 -0.027262 -0.999612
v 2.18661 3.98165 0.0578831
vn 0.27507 0.00730506 -0.961396
v 2.24602 2.80848 0.0721794
vn 0.0328089 -0.0115532 -0.999395
v 2.03899 5.09369 0.0810198
vn 0.0162467 0.0140796 0.999769
v -1.87063 2.45463 0.143086
vn 0.00691194 0.00986137 0.999927
v -2.0664 2.37915 0.109054
vn -0.36393 -0.746657 -0.556828
v -0.372358 2.61655 0.0910765
vn -0.00680173 -0.0136114 -0.999884
v 2.07935 5.1514 0.0422961
vn 0.0326462 -0.00928492 -0.999424
v -2.17413 4.87028 0.113048
vn 0.00363878 0.0135988 0.999901
v -2.14657 4.95179 0.111466
vn 0.00224166 0.0241917 0.999705
v -2.24402 4.9042 0.11246
vn -0.00563215 0.0206767 0.99977
v 1.85647 5.27762 0.0792097
vn 0.0048194 0.0555825 0.998442
v 1.7322 5.29029 0.0787284
vn -0.0433766 0.717559 0.695146
v -0.114992 5.14421 0.0945329
vn 0.00373816 0.0565742 0.998391
v 1.85621 5.27713 0.0418923
vn -0.00898523 0.0292764 -0.999531
v -0.524442 5.11465 0.0602072
vn -0.00990536 0.0301217 -0.999497
v 1.73196 5.28982 0.0437349
vn -0.042609 0.531819 -0.845785
v -2.1744 4.86976 0.0738909
vn -0.010018 -0.0128792 -0.999867
v -2.24428 4.9037 0.0745345
vn -0.0192875 -0.00579883 -0.999797
v -2.14683 4.95128 0.0729375
vn -0.0114139 -0.00228411 -0.999932
v -2.23793 3.66752 0.106152
vn -0.997456 -0.0708562 0.00775087
v -2.31012 4.84138 0.111455
vn -0.876475 -0.0305825 0.480476
v -2.31035 4.84093 0.0781056
vn -0.853196 -0.0426675 -0.519842
v 1.96223 5.16412 0.0809102
vn 0.00993473 0.0140459 0.999852
v 2.0266 5.20758 0.0792795
vn 0.0181088 0.0223626 0.999586
v 1.9234 5.24091 0.0798444
vn 0.00981686 0.024729 0.999646
v -2.00455 2.48647 0.143453
vn 0.0037212 0.0124318 0.999916
v -1.88104 2.56984 0.141824
vn 0.00667626 0.0131509 0.999891
v -2.09974 3.67764 0.128429
vn 0.00375741 0.0130208 0.999908
v -2.10257 2.41996 0.107634
vn -0.183082 -0.133286 -0.97402
v -2.11295 2.41308 0.121967
vn -0.833249 -0.552744 0.0130069
v -2.1435 2.49534 0.108023
vn -0.849708 -0.0917231 -0.519214
v -0.457799 3.79377 0.0759955
vn -0.00682822 -0.013239 -0.999889
v -1.88131 2.56932 0.102029
vn -0.00702199 -0.0133304 -0.999886
v -2.04033 4.80468 0.0735177
vn -0.00703297 -0.013176 -0.999888
v 2.05974 5.22964 0.0420082
vn 0.169741 0.10742 -0.979617
v 2.02634 5.20707 0.0413538
vn 0.00445347 -0.00411232 -0.999982
v 1.98861 5.26538 0.0414432
vn 0.0067507 0.0230622 -0.999711
v 2.1318 2.7803 0.111315
vn 0.0100179 0.0128791 0.999867
v 2.10424 2.69878 0.112268
vn 0.0114134 0.00228491 0.999932
v 2.20168 2.74636 0.110672
vn 0.019287 0.00579906 0.999797
v -1.8988 2.37293 0.143314
vn 0.00882478 -0.0291294 0.999537
v -1.77455 2.36024 0.141471
vn 0.0529941 -0.698907 0.713246
v 0.0726556 2.50635 0.128178
vn 0.00990542 -0.0301224 0.999497
v -1.89906 2.37244 0.105996
vn -0.00504779 -0.0553737 -0.998453
v -0.336795 2.47678 0.0938522
vn -0.00373816 -0.0565742 -0.998391
v -1.77479 2.35977 0.106478
vn 0.0346396 -0.601867 -0.797845
v 2.13154 2.77978 0.0721582
vn -0.00363841 -0.0135988 -0.999901
v 2.20142 2.74586 0.0727458
vn 0.00563222 -0.0206767 -0.99977
v 2.10398 2.69827 0.0737399
vn -0.00224174 -0.0241921 -0.999705
v 2.19529 3.98244 0.0717077
vn 0.997456 0.0708562 -0.00775061
v 2.26776 2.80913 0.1071
vn 0.882947 0.0431339 0.467487
v 2.26753 2.80869 0.0737514
vn 0.846013 0.0287355 -0.532387
v 1.83872 5.08075 0.0831768
vn 0.00698015 0.0133271 0.999887
v 2.05742 3.97295 0.0961302
vn 0.00989896 0.0134571 0.99986
v -2.06893 2.44299 0.143852
vn -0.00445352 0.00411241 0.999982
v -1.96573 2.40966 0.14389
vn 0.00383821 0.00174634 0.999991
v -2.06919 2.44249 0.105926
vn -0.0181089 -0.0223626 -0.999586
v -2.03146 2.3842 0.107044
vn -0.0203969 -0.0495202 -0.998565
v 1.83845 5.08022 0.0433815
vn -0.00670357 -0.0131529 -0.999891
v 1.99746 2.84485 0.0718929
vn -0.00669265 -0.0133066 -0.999889
v 2.0703 5.23689 0.0560108
vn 0.833249 0.552745 -0.0130058
v 2.10068 5.15428 0.043834
vn 0.842524 0.0777914 -0.533012
v -2.28027 4.92179 0.111294
vn -0.260268 0.142496 0.954964
v -2.21492 4.96724 0.110823
vn -0.0117514 0.0472357 0.998815
v -2.08551 4.9976 0.109837
vn 0.00280887 0.0554398 0.998458
v -1.9643 5.0277 0.107448
vn -0.047746 0.717252 0.695176
v -0.116675 5.16542 0.0718329
vn -0.0709511 0.997399 -0.0127197
v -1.96454 5.02724 0.0724549
vn -0.0494535 0.580277 -0.812916
v -2.08577 4.9971 0.0725196
vn -0.0110317 0.0287461 -0.999526
v -2.21517 4.96675 0.0741046
vn -0.0253979 0.0207785 -0.999461
v -2.28051 4.92132 0.0757299
vn -0.198345 0.0812718 -0.976757
v -2.29178 4.92702 0.0899021
vn -0.903115 0.429398 0.000477439
v 1.98886 5.26586 0.0781617
vn 0.0203969 0.0495203 0.998565
v -2.04005 4.80521 0.113313
vn 0.00666532 0.0133048 0.999889
v -2.14327 2.49578 0.141372
vn -0.872847 -0.0815923 0.481125
v -2.10001 3.67711 0.0890757
vn -0.00989896 -0.0134571 -0.99986
v 1.92314 5.2404 0.0413158
vn -0.00383817 -0.00174622 -0.999991
v 2.23792 2.72874 0.109476
vn 0.27331 -0.117211 0.954758
v 2.17258 2.68331 0.111101
vn 0.025398 -0.0207795 0.999461
v 2.04317 2.65296 0.112686
vn 0.0108353 -0.0289866 0.999521
v 1.92195 2.62282 0.112751
vn 0.0573634 -0.698599 0.71321
v 0.0740325 2.48454 0.106027
vn 0.070951 -0.997399 0.0127196
v 1.92171 2.62236 0.0777575
vn 0.0346166 -0.553785 -0.83194
v 2.04292 2.65247 0.0753691
vn -0.00294691 -0.0556079 -0.998448
v 2.17233 2.68282 0.0743829
vn 0.011751 -0.0472358 -0.998815
v 2.23768 2.72827 0.0739123
vn 0.185005 -0.107139 -0.97688
v 2.24914 2.72295 0.0880755
vn 0.903115 -0.429398 -0.000478044
v 1.99773 2.84538 0.111688
vn 0.00699111 0.0131733 0.999889
v -2.0312 2.38469 0.143763
vn -0.0067507 -0.0230622 0.999711
v -1.96599 2.40915 0.105362
vn -0.00981686 -0.024729 -0.999646
v 2.05715 3.97243 0.0567765
vn -0.00375726 -0.0130208 -0.999908
v 2.1009 5.15472 0.077183
vn 0.879319 0.0941437 0.466835
v 2.05998 5.23011 0.077572
vn 0.252246 0.178903 0.950981
v -0.0211595 3.8253 0.112601
vn 0.0068282 0.013239 0.999889
v -2.10233 2.42043 0.143198
vn -0.239204 -0.153618 0.95874
v -2.00482 2.48595 0.104296
vn -0.00993473 -0.014046 -0.999852
v 1.96196 5.1636 0.0417534
vn -0.00372133 -0.0124318 -0.999916
f 1//1 2//2 3//3
f 1//1 3//3 4//4
f 1//1 4//4 5//5
f 1//1 5//5 6//6
f 1//1 6//6 2//2
f 7//7 8//8 9//9
f 10//10 11//11 12//12
f 13//13 14//14 15//15
f 16//16 17//17 18//18
f 19//19 20//20 21//21
f 22//22 23//23 24//24
f 22//22 24//24 25//25
f 22//22 25//25 26//26
f 22//22 26//26 27//27
f 22//22 27//27 23//23
f 28//28 29//29 30//30
f 31//31 32//32 33//33
f 34//34 35//35 36//36
f 37//37 38//38 39//39
f 40//40 41//41 42//42
f 13//13 43//43 44//44
f 10//10 45//45 46//46
f 7//7 47//47 48//48
f 19//19 49//49 50//50
f 16//16 51//51 52//52
f 10//10 53//53 45//45
f 13//13 54//54 43//43
f 16//16 55//55 51//51
f 19//19 56//56 49//49
f 7//7 57//57 47//47
f 40//40 58//58 59//59
f 28//28 60//60 61//61
f 31//31 62//62 63//63
f 34//34 64//64 65//65
f 37//37 66//66 67//67
f 40//40 68//68 58//58
f 28//28 69//69 60//60
f 31//31 70//70 62//62
f 34//34 71//71 64//64
f 37//37 72//72 66//66
f 10//10 46//46 11//11
f 7//7 48//48 8//8
f 19//19 50//50 20//20
f 16//16 52//52 17//17
f 13//13 44//44 14//14
f 40//40 42//42 68//68
f 28//28 30//30 69//69
f 31//31 33//33 70//70
f 34//34 36//36 71//71
f 37//37 39//39 72//72
f 28//28 61//61 29//29
f 31//31 63//63 32//32
f 34//34 65//65 35//35
f 37//37 67//67 38//38
f 40//40 59//59 41//41
f 10//10 12//12 53//53
f 13//13 15//15 54//54
f 16//16 18//18 55//55
f 19//19 21//21 56//56
f 7//7 9//9 57//57
f 73//73 74//74 75//75
f 76//76 77//77 78//78
f 79//79 80//80 81//81
f 82//82 83//83 84//84
f 85//85 86//86 87//87
f 88//88 89//89 90//90
f 91//91 92//92 93//93
f 94//94 95//95 96//96
f 97//97 98//98 99//99
f 100//100 101//101 102//102
f 103//103 104//104 105//105
f 106//106 107//107 108//108
f 109//109 110//110 111//111
f 112//112 113//113 114//114
f 115//115 116//116 117//117
f 88//88 118//118 119//119
f 91//91 120//120 121//121
f 94//94 122//122 123//123
f 97//97 124//124 125//125
f 100//100 126//126 127//127
f 128//128 129//129 2//2
f 130//130 131//131 3//3
f 132//132 133//133 4//4
f 134//134 135//135 5//5
f 136//136 137//137 6//6
f 76//76 138//138 8//8
f 73//73 139//139 11//11
f 85//85 140//140 14//14
f 82//82 141//141 17//17
f 79//79 142//142 20//20
f 143//143 144//144 23//23
f 145//145 146//146 24//24
f 147//147 148//148 25//25
f 149//149 150//150 26//26
f 151//151 152//152 27//27
f 103//103 153//153 29//29
f 106//106 154//154 32//32
f 109//109 155//155 35//35
f 112//112 156//156 38//38
f 115//115 157//157 41//41
f 73//73 75//75 43//43
f 76//76 78//78 45//45
f 79//79 81//81 47//47
f 82//82 84//84 49//49
f 85//85 87//87 51//51
f 88//88 90//90 53//53
f 91//91 93//93 54//54
f 94//94 96//96 55//55
f 97//97 99//99 56//56
f 100//100 102//102 57//57
f 103//103 105//105 58//58
f 106//106 108//108 60//60
f 109//109 111//111 62//62
f 112//112 114//114 64//64
f 115//115 117//117 66//66
f 88//88 119//119 68//68
f 91//91 121//121 69//69
f 94//94 123//123 70//70
f 97//97 125//125 71//71
f 100//100 127//127 72//72
f 130//130 74//74 46//46
f 132//132 77//77 48//48
f 134//134 80//80 50//50
f 136//136 83//83 52//52
f 128//128 86//86 44//44
f 158//158 89//89 42//42
f 159//159 92//92 30//30
f 160//160 95//95 33//33
f 161//161 98//98 36//36
f 162//162 101//101 39//39
f 145//145 104//104 61//61
f 147//147 107//107 63//63
f 149//149 110//110 65//65
f 151//151 113//113 67//67
f 143//143 116//116 59//59
f 159//159 118//118 12//12
f 160//160 120//120 15//15
f 161//161 122//122 18//18
f 162//162 124//124 21//21
f 158//158 126//126 9//9
f 130//130 129//129 74//74
f 132//132 131//131 77//77
f 134//134 133//133 80//80
f 136//136 135//135 83//83
f 128//128 137//137 86//86
f 158//158 138//138 89//89
f 159//159 139//139 92//92
f 160//160 140//140 95//95
f 161//161 141//141 98//98
f 162//162 142//142 101//101
f 145//145 144//144 104//104
f 147//147 146//146 107//107
f 149//149 148//148 110//110
f 151//151 150//150 113//113
f 143//143 152//152 116//116
f 159//159 153//153 118//118
f 160//160 154//154 120//120
f 161//161 155//155 122//122
f 162//162 156//156 124//124
f 158//158 157//157 126//126
f 130//130 3//3 129//129
f 132//132 4//4 131//131
f 134//134 5//5 133//133
f 136//136 6//6 135//135
f 128//128 2//2 137//137
f 158//158 9//9 138//138
f 159//159 12//12 139//139
f 160//160 15//15 140//140
f 161//161 18//18 141//141
f 162//162 21//21 142//142
f 145//145 24//24 144//144
f 147//147 25//25 146//146
f 149//149 26//26 148//148
f 151//151 27//27 150//150
f 143//143 23//23 152//152
f 159//159 30//30 153//153
f 160//160 33//33 154//154
f 161//161 36//36 155//155
f 162//162 39//39 156//156
f 158//158 42//42 157//157
f 128//128 44//44 75//75
f 130//130 46//46 78//78
f 132//132 48//48 81//81
f 134//134 50//50 84//84
f 136//136 52//52 87//87
f 76//76 45//45 90//90
f 73//73 43//43 93//93
f 85//85 51//51 96//96
f 82//82 49//49 99//99
f 79//79 47//47 102//102
f 143//143 59//59 105//105
f 145//145 61//61 108//108
f 147//147 63//63 111//111
f 149//149 65//65 114//114
f 151//151 67//67 117//117
f 103//103 58//58 119//119
f 106//106 60//60 121//121
f 109//109 62//62 123//123
f 112//112 64//64 125//125
f 115//115 66//66 127//127
f 73//73 11//11 74//74
f 76//76 8//8 77//77
f 79//79 20//20 80//80
f 82//82 17//17 83//83
f 85//85 14//14 86//86
f 88//88 68//68 89//89
f 91//91 69//69 92//92
f 94//94 70//70 95//95
f 97//97 71//71 98//98
f 100//100 72//72 101//101
f 103//103 29//29 104//104
f 106//106 32//32 107//107
f 109//109 35//35 110//110
f 112//112 38//38 113//113
f 115//115 41//41 116//116
f 88//88 53//53 118//118
f 91//91 54//54 120//120
f 94//94 55//55 122//122
f 97//97 56//56 124//124
f 100//100 57//57 126//126
f 128//128 75//75 129//129
f 130//130 78//78 131//131
f 132//132 81//81 133//133
f 134//134 84//84 135//135
f 136//136 87//87 137//137
f 76//76 90//90 138//138
f 73//73 93//93 139//139
f 85//85 96//96 140//140
f 82//82 99//99 141//141
f 79//79 102//102 142//142
f 143//143 105//105 144//144
f 145//145 108//108 146//146
f 147//147 111//111 148//148
f 149//149 114//114 150//150
f 151//151 117//117 152//152
f 103//103 119//119 153//153
f 106//106 121//121 154//154
f 109//109 123//123 155//155
f 112//112 125//125 156//156
f 115//115 127//127 157//157
f 129//129 3//3 2//2
f 131//131 4//4 3//3
f 133//133 5//5 4//4
f 135//135 6//6 5//5
f 137//137 2//2 6//6
f 138//138 9//9 8//8
f 139//139 12//12 11//11
f 140//140 15//15 14//14
f 141//141 18//18 17//17
f 142//142 21//21 20//20
f 144//144 24//24 23//23
f 146//146 25//25 24//24
f 148//148 26//26 25//25
f 150//150 27//27 26//26
f 152//152 23//23 27//27
f 153//153 30//30 29//29
f 154//154 33//33 32//32
f 155//155 36//36 35//35
f 156//156 39//39 38//38
f 157//157 42//42 41//41
f 75//75 44//44 43//43
f 78//78 46//46 45//45
f 81//81 48//48 47//47
f 84//84 50//50 49//49
f 87//87 52//52 51//51
f 90//90 45//45 53//53
f 93//93 43//43 54//54
f 96//96 51//51 55//55
f 99//99 49//49 56//56
f 102//102 47//47 57//57
f 105//105 59//59 58//58
f 108//108 61//61 60//60
f 111//111 63//63 62//62
f 114//114 65//65 64//64
f 117//117 67//67 66//66
f 119//119 58//58 68//68
f 121//121 60//60 69//69
f 123//123 62//62 70//70
f 125//125 64//64 71//71
f 127//127 66//66 72//72
f 74//74 11//11 46//46
f 77//77 8//8 48//48
f 80//80 20//20 50//50
f 83//83 17//17 52//52
f 86//86 14//14 44//44
f 89//89 68//68 42//42
f 92//92 69//69 30//30
f 95//95 70//70 33//33
f 98//98 71//71 36//36
f 101//101 72//72 39//39
f 104//104 29//29 61//61
f 107//107 32//32 63//63
f 110//110 35//35 65//65
f 113//113 38//38 67//67
f 116//116 41//41 59//59
f 118//118 53//53 12//12
f 120//120 54//54 15//15
f 122//122 55//55 18//18
f 124//124 56//56 21//21
f 126//126 57//57 9//9
f 129//129 75//75 74//74
f 131//131 78//78 77//77
f 133//133 81//81 80//80
f 135//135 84//84 83//83
f 137//137 87//87 86//86
f 138//138 90//90 89//89
f 139//139 93//93 92//92
f 140//140 96//96 95//95
f 141//141 99//99 98//98
f 142//142 102//102 101//101
f 144//144 105//105 104//104
f 146//146 108//108 107//107
f 148//148 111//111 110//110
f 150//150 114//114 113//113
f 152//152 117//117 116//116
f 153//153 119//119 118//118
f 154//154 121//121 120//120
f 155//155 123//123 122//122
f 156//156 125//125 124//124
f 157//157 127//127 126//126
