# Created by Open3D 
# object name: part_076
# number of vertices: 162
# number of triangles: 320
v 0.770574 5.62945 0.652432
vn -0.0664817 0.508393 0.858555
v 0.752357 5.615 0.658066
vn -0.250493 0.475351 0.843383
v 0.772452 5.6097 0.663266
vn -0.0499624 0.398441 0.915832
v 0.797713 5.62196 0.65698
vn 0.0460678 0.478217 0.877033
v 0.782929 5.63875 0.646877
vn 0.0323047 0.62347 0.78118
v 0.762341 5.64269 0.642448
vn -0.203471 0.610917 0.765101
v 1.62636 5.3704 0.740396
vn 0.173266 0.435815 0.883201
v 1.61196 5.35558 0.749557
vn 0.0887368 0.356457 0.930088
v 1.63221 5.34867 0.748505
vn 0.307837 0.306336 0.900775
v 1.19115 5.47729 0.700947
vn -0.296622 -0.805925 0.512348
v 0.792203 5.59666 0.657538
vn -0.298698 -0.816456 0.494144
v 1.19058 5.47269 0.69296
vn -0.299532 -0.82936 0.471638
v 0.734593 5.54463 0.526458
vn -0.399112 -0.795605 0.455765
v 0.729396 5.5473 0.52533
vn -0.984749 -0.120365 0.125624
v 0.726762 5.4805 0.40702
vn -0.467692 -0.769546 0.434815
v 0.745835 5.5758 0.508874
vn 0.196918 0.856811 -0.476549
v 0.761496 5.63524 0.623108
vn 0.257758 0.843444 -0.471342
v 0.747566 5.51207 0.3959
vn 0.257595 0.842032 -0.473948
v 1.11456 5.53675 0.673411
vn 0.302035 0.853785 -0.424058
v 1.5831 5.39659 0.725334
vn 0.304413 0.882184 -0.359283
v 1.60159 5.38798 0.721041
vn 0.301713 0.844199 -0.443055
v 1.6099 5.22488 0.471971
vn 0.0664818 -0.508393 -0.858555
v 1.61607 5.20592 0.485185
vn 0.205242 -0.600796 -0.772606
v 1.59548 5.20986 0.480756
vn -0.0179232 -0.586648 -0.809643
v 1.58263 5.23201 0.467628
vn -0.0460676 -0.478217 -0.877033
v 1.60596 5.23891 0.464367
vn 0.0645051 -0.355075 -0.93261
v 1.62605 5.2336 0.469566
vn 0.25619 -0.464768 -0.84756
v 1.17547 5.33861 0.445137
vn -0.302034 -0.853782 0.424065
v 1.57439 5.21919 0.488573
vn -0.300461 -0.844646 0.443054
v 1.17589 5.3428 0.453352
vn -0.299879 -0.832435 0.465965
v 0.754118 5.48393 0.384007
vn -0.173268 -0.435814 -0.883201
v 0.755972 5.46398 0.394465
vn -0.156625 -0.544664 -0.823899
v 0.736213 5.47226 0.394746
vn -0.353088 -0.431789 -0.829992
v 1.09887 5.39807 0.4176
vn 0.296623 0.805931 -0.512337
v 0.806881 5.4841 0.384199
vn 0.290374 0.766432 -0.572945
v 0.788631 5.49337 0.388114
vn 0.297123 0.816817 -0.494498
v 1.64382 5.30397 0.601175
vn 0.399113 0.795605 -0.455765
v 1.62847 5.24541 0.486446
vn 0.341081 0.816761 -0.465366
v 1.6424 5.36858 0.713654
vn 0.341238 0.818174 -0.462761
v 1.63258 5.27281 0.618759
vn -0.196917 -0.856811 0.476549
v 1.63848 5.27211 0.618773
vn 0.712594 -0.634158 0.300087
v 1.64062 5.33753 0.737862
vn -0.121786 -0.864724 0.487258
v 0.749938 5.60319 0.641187
vn -0.341081 -0.816761 0.465366
v 0.741379 5.60974 0.645432
vn -0.466655 -0.760328 0.451812
v 1.57153 5.36451 0.743434
vn -0.290503 -0.766989 0.572133
v 0.811434 5.59459 0.665306
vn -0.291372 -0.766737 0.572028
v 1.62244 5.38462 0.733168
vn 0.170445 0.581657 0.795376
v 1.59929 5.37932 0.739372
vn 0.0615709 0.473523 0.878627
v 0.804016 5.62941 0.63906
vn 0.300287 0.844802 -0.442873
v 0.823005 5.62667 0.647205
vn 0.303571 0.883113 -0.357709
v 0.739926 5.57649 0.50886
vn -0.591338 0.723589 -0.356002
v 0.752407 5.64031 0.628182
vn 0.122815 0.873939 -0.470263
v 1.58978 5.35523 0.739518
vn -0.297319 -0.816867 0.494297
v 0.736008 5.48003 0.413979
vn -0.341238 -0.818174 0.462761
v 0.73779 5.51107 0.38977
vn 0.121786 0.864724 -0.487258
v 1.11304 5.53289 0.665083
vn 0.299879 0.832435 -0.465966
v 1.6422 5.37635 0.732887
vn 0.358605 0.440777 0.822871
v 1.61691 5.21337 0.504525
vn -0.257758 -0.843444 0.471342
v 1.626 5.20829 0.499451
vn -0.122815 -0.873939 0.470263
v 0.795309 5.45202 0.402299
vn -0.30446 -0.882468 0.358545
v 1.5554 5.22193 0.480428
vn -0.303594 -0.88273 0.358634
v 0.766449 5.49303 0.378076
vn -0.0736341 -0.313261 -0.946808
v 0.781053 5.47465 0.385235
vn -0.0615711 -0.473523 -0.878627
v 1.58621 5.25194 0.470095
vn 0.298589 0.816572 -0.494019
v 1.56698 5.25401 0.462327
vn 0.29141 0.767206 -0.57138
v 1.64901 5.30131 0.602303
vn 0.945528 0.258377 -0.198035
v 1.63703 5.23887 0.482201
vn 0.466654 0.760329 -0.451812
v 1.63084 5.33654 0.731733
vn -0.257595 -0.842032 0.473948
v 0.776818 5.46063 0.406592
vn -0.301839 -0.844229 0.442911
v 0.746197 5.49994 0.379128
vn -0.305885 -0.294619 -0.905337
v 1.09835 5.403 0.425475
vn 0.299532 0.829361 -0.471637
v 1.65165 5.36811 0.720613
vn 0.467692 0.769546 -0.434815
v 0.765018 5.60266 0.65052
vn -0.313337 -0.824175 0.471757
v 0.772439 5.60522 0.65913
vn -0.309741 -0.775719 0.549837
v 0.751624 5.60949 0.652749
vn -0.347017 -0.777603 0.524321
v 1.59755 5.35837 0.74781
vn -0.258622 -0.617304 0.743001
v 1.57276 5.36816 0.746846
vn 0.0208862 0.377635 0.925719
v 1.19181 5.48148 0.70682
vn -0.26155 -0.610069 0.747935
v 1.60873 5.38938 0.730314
vn 0.303396 0.943094 -0.136104
v 1.11882 5.53814 0.680577
vn 0.299462 0.94526 -0.12964
v 1.58325 5.39724 0.730439
vn 0.107177 0.613806 0.782148
v 0.776754 5.6352 0.632161
vn 0.286002 0.837431 -0.465738
v 0.762992 5.64101 0.634967
vn 0.249965 0.877411 -0.409473
v 0.783987 5.63724 0.641065
vn 0.286767 0.878012 -0.383221
v 0.733995 5.56548 0.515191
vn -0.952512 0.288332 -0.097906
v 0.737497 5.61258 0.644307
vn -0.976412 0.215876 0.00404763
v 0.747493 5.64029 0.628672
vn -0.900339 0.420543 -0.111954
v 1.61653 5.3449 0.738044
vn -0.285448 -0.832616 0.474626
v 1.63077 5.34337 0.743114
vn -0.242259 -0.809327 0.53507
v 1.61028 5.3516 0.74525
vn -0.276337 -0.785822 0.553283
v 0.750146 5.47116 0.407948
vn -0.313889 -0.828989 0.462874
v 0.777026 5.46697 0.418375
vn -0.30044 -0.831008 0.468147
v 0.755411 5.53748 0.52906
vn -0.313275 -0.826701 0.467359
v 0.739991 5.50532 0.382293
vn -0.358371 0.385434 -0.8503
v 0.733458 5.49388 0.388065
vn -0.694412 -0.146961 -0.704411
v 0.732859 5.5109 0.389989
vn -0.906085 0.369727 -0.2057
v 1.10537 5.46811 0.545207
vn 0.299707 0.830901 -0.468805
v 0.788954 5.50004 0.399717
vn 0.298789 0.83085 -0.469483
v 0.8029 5.62335 0.627183
vn 0.29886 0.831487 -0.468308
v 1.64908 5.37284 0.728665
vn 0.724893 0.630726 0.276975
v 1.64214 5.37488 0.725332
vn 0.354715 0.845707 -0.398694
v 1.63546 5.37981 0.731082
vn 0.369587 0.910637 -0.184786
v 1.60166 5.21341 0.495472
vn -0.286003 -0.837431 0.465738
v 1.59442 5.21137 0.486567
vn -0.286767 -0.878013 0.383221
v 1.61542 5.2076 0.492666
vn -0.249965 -0.877411 0.409472
v 0.769677 5.45923 0.397319
vn -0.304083 -0.94271 0.137228
v 0.795159 5.45137 0.397194
vn -0.0891871 -0.566991 -0.818881
v 1.17536 5.33596 0.438397
vn -0.299462 -0.94526 0.12964
v 0.780863 5.49024 0.379822
vn 0.257998 0.618829 -0.741949
v 1.10236 5.39263 0.412154
vn 0.26155 0.610069 -0.747935
v 0.805648 5.48044 0.380787
vn -0.00827013 -0.340635 -0.940159
v 1.61339 5.24594 0.477113
vn 0.313338 0.824175 -0.471757
v 1.62679 5.23911 0.474884
vn 0.347018 0.777604 -0.524319
v 1.60597 5.24339 0.468503
vn 0.309741 0.775719 -0.549837
v 1.64662 5.28923 0.608997
vn 0.952512 -0.288332 0.0979064
v 1.63092 5.20831 0.498961
vn 0.907382 -0.407254 0.10393
v 1.64091 5.23603 0.483325
vn 0.979508 -0.201055 -0.0118839
v 1.58946 5.34857 0.727916
vn -0.298974 -0.830795 0.469462
v 1.6112 5.27842 0.617025
vn -0.286073 -0.834935 0.470155
v 0.736269 5.47372 0.4023
vn -0.354714 -0.845707 0.398694
v 0.756579 5.46499 0.400448
vn -0.320165 -0.867908 0.379777
v 0.747637 5.50524 0.384519
vn 0.242259 0.809328 -0.535069
v 0.753957 5.49931 0.379335
vn 0.202293 0.674814 -0.709721
v 1.60138 5.38164 0.709258
vn 0.300319 0.831044 -0.468161
v 1.58744 5.25833 0.481791
vn 0.300247 0.83041 -0.469331
v 1.64712 5.36073 0.736179
vn 0.694413 0.14696 0.70441
v 1.65555 5.36542 0.722008
vn 0.985256 -0.150235 0.0818594
v 0.744936 5.61375 0.653501
vn -0.677767 0.0807669 0.730827
v 0.759063 5.61126 0.659346
vn -0.338261 -0.633634 0.695764
v 0.786052 5.60401 0.664399
vn -0.266992 -0.614779 0.742133
v 0.811801 5.59851 0.668629
vn 0.017754 0.378581 0.925398
v 1.19867 5.5013 0.698495
vn 0.053821 0.475886 0.877859
v 0.82229 5.62759 0.652222
vn 0.0980671 0.599598 0.79427
v 0.797237 5.63502 0.646902
vn 0.294915 0.945233 -0.139854
v 0.770069 5.64177 0.642131
vn 0.233615 0.951796 -0.198769
v 0.755596 5.6433 0.636826
vn -0.295691 0.939656 0.172084
v 0.749141 5.63256 0.643878
vn -0.6163 0.543723 0.569685
v 1.62445 5.3493 0.748298
vn -0.202293 -0.674815 0.70972
v 0.790972 5.59028 0.645842
vn -0.300368 -0.830373 0.469319
v 0.722863 5.48319 0.405625
vn -0.982197 0.164732 -0.0902941
v 0.767206 5.57018 0.510608
vn 0.286073 0.834935 -0.470155
v 1.62183 5.38362 0.727185
vn 0.320165 0.867908 -0.379776
v 1.62281 5.2053 0.490806
vn 0.390862 -0.876166 -0.282065
v 1.60834 5.20684 0.485502
vn -0.233615 -0.951796 0.198768
v 1.58117 5.21358 0.48073
vn -0.295713 -0.945246 0.13807
v 1.55612 5.22102 0.475411
vn -0.086056 -0.56794 -0.818559
v 1.18194 5.35341 0.425694
vn -0.053821 -0.475886 -0.877859
v 1.56661 5.2501 0.459004
vn 0.00120663 -0.323195 -0.946332
v 1.59236 5.24459 0.463234
vn 0.266184 0.614084 -0.742998
v 1.61935 5.23735 0.468287
vn 0.338261 0.633633 -0.695765
v 1.63347 5.23486 0.474132
vn 0.662217 0.0765009 -0.745397
v 1.63144 5.22206 0.480366
vn 0.616299 -0.543724 -0.569685
v 1.57551 5.22526 0.500449
vn -0.299046 -0.83143 0.46829
v 0.742951 5.4688 0.396551
vn -0.369588 -0.910637 0.184784
v 0.768128 5.49701 0.382383
vn 0.276337 0.785822 -0.553283
v 1.623 5.31113 0.598573
vn 0.313275 0.826701 -0.467359
v 1.64555 5.3377 0.737644
vn 0.913166 -0.356112 0.198273
v 1.63842 5.34329 0.74534
vn 0.460135 -0.263681 0.84779
v 1.18321 5.40768 0.573193
vn -0.299707 -0.830902 0.468805
v 0.729331 5.47577 0.398967
vn -0.74703 -0.531723 -0.39902
v 0.761883 5.5037 0.389589
vn 0.285448 0.832616 -0.474626
v 1.62826 5.37744 0.719685
vn 0.313888 0.828989 -0.462874
f 1//1 2//2 3//3
f 1//1 3//3 4//4
f 1//1 4//4 5//5
f 1//1 5//5 6//6
f 1//1 6//6 2//2
f 7//7 8//8 9//9
f 10//10 11//11 12//12
f 13//13 14//14 15//15
f 16//16 17//17 18//18
f 19//19 20//20 21//21
f 22//22 23//23 24//24
f 22//22 24//24 25//25
f 22//22 25//25 26//26
f 22//22 26//26 27//27
f 22//22 27//27 23//23
f 28//28 29//29 30//30
f 31//31 32//32 33//33
f 34//34 35//35 36//36
f 37//37 38//38 39//39
f 40//40 41//41 42//42
f 13//13 43//43 44//44
f 10//10 45//45 46//46
f 7//7 47//47 48//48
f 19//19 49//49 50//50
f 16//16 51//51 52//52
f 10//10 53//53 45//45
f 13//13 54//54 43//43
f 16//16 55//55 51//51
f 19//19 56//56 49//49
f 7//7 57//57 47//47
f 40//40 58//58 59//59
f 28//28 60//60 61//61
f 31//31 62//62 63//63
f 34//34 64//64 65//65
f 37//37 66//66 67//67
f 40//40 68//68 58//58
f 28//28 69//69 60//60
f 31//31 70//70 62//62
f 34//34 71//71 64//64
f 37//37 72//72 66//66
f 10//10 46//46 11//11
f 7//7 48//48 8//8
f 19//19 50//50 20//20
f 16//16 52//52 17//17
f 13//13 44//44 14//14
f 40//40 42//42 68//68
f 28//28 30//30 69//69
f 31//31 33//33 70//70
f 34//34 36//36 71//71
f 37//37 39//39 72//72
f 28//28 61//61 29//29
f 31//31 63//63 32//32
f 34//34 65//65 35//35
f 37//37 67//67 38//38
f 40//40 59//59 41//41
f 10//10 12//12 53//53
f 13//13 15//15 54//54
f 16//16 18//18 55//55
f 19//19 21//21 56//56
f 7//7 9//9 57//57
f 73//73 74//74 75//75
f 76//76 77//77 78//78
f 79//79 80//80 81//81
f 82//82 83//83 84//84
f 85//85 86//86 87//87
f 88//88 89//89 90//90
f 91//91 92//92 93//93
f 94//94 95//95 96//96
f 97//97 98//98 99//99
f 100//100 101//101 102//102
f 103//103 104//104 105//105
f 106//106 107//107 108//108
f 109//109 110//110 111//111
f 112//112 113//113 114//114
f 115//115 116//116 117//117
f 88//88 118//118 119//119
f 91//91 120//120 121//121
f 94//94 122//122 123//123
f 97//97 124//124 125//125
f 100//100 126//126 127//127
f 128//128 129//129 2//2
f 130//130 131//131 3//3
f 132//132 133//133 4//4
f 134//134 135//135 5//5
f 136//136 137//137 6//6
f 76//76 138//138 8//8
f 73//73 139//139 11//11
f 85//85 140//140 14//14
f 82//82 141//141 17//17
f 79//79 142//142 20//20
f 143//143 144//144 23//23
f 145//145 146//146 24//24
f 147//147 148//148 25//25
f 149//149 150//150 26//26
f 151//151 152//152 27//27
f 103//103 153//153 29//29
f 106//106 154//154 32//32
f 109//109 155//155 35//35
f 112//112 156//156 38//38
f 115//115 157//157 41//41
f 73//73 75//75 43//43
f 76//76 78//78 45//45
f 79//79 81//81 47//47
f 82//82 84//84 49//49
f 85//85 87//87 51//51
f 88//88 90//90 53//53
f 91//91 93//93 54//54
f 94//94 96//96 55//55
f 97//97 99//99 56//56
f 100//100 102//102 57//57
f 103//103 105//105 58//58
f 106//106 108//108 60//60
f 109//109 111//111 62//62
f 112//112 114//114 64//64
f 115//115 117//117 66//66
f 88//88 119//119 68//68
f 91//91 121//121 69//69
f 94//94 123//123 70//70
f 97//97 125//125 71//71
f 100//100 127//127 72//72
f 130//130 74//74 46//46
f 132//132 77//77 48//48
f 134//134 80//80 50//50
f 136//136 83//83 52//52
f 128//128 86//86 44//44
f 158//158 89//89 42//42
f 159//159 92//92 30//30
f 160//160 95//95 33//33
f 161//161 98//98 36//36
f 162//162 101//101 39//39
f 145//145 104//104 61//61
f 147//147 107//107 63//63
f 149//149 110//110 65//65
f 151//151 113//113 67//67
f 143//143 116//116 59//59
f 159//159 118//118 12//12
f 160//160 120//120 15//15
f 161//161 122//122 18//18
f 162//162 124//124 21//21
f 158//158 126//126 9//9
f 130//130 129//129 74//74
f 132//132 131//131 77//77
f 134//134 133//133 80//80
f 136//136 135//135 83//83
f 128//128 137//137 86//86
f 158//158 138//138 89//89
f 159//159 139//139 92//92
f 160//160 140//140 95//95
f 161//161 141//141 98//98
f 162//162 142//142 101//101
f 145//145 144//144 104//104
f 147//147 146//146 107//107
f 149//149 148//148 110//110
f 151//151 150//150 113//113
f 143//143 152//152 116//116
f 159//159 153//153 118//118
f 160//160 154//154 120//120
f 161//161 155//155 122//122
f 162//162 156//156 124//124
f 158//158 157//157 126//126
f 130//130 3//3 129//129
f 132//132 4//4 131//131
f 134//134 5//5 133//133
f 136//136 6//6 135//135
f 128//128 2//2 137//137
f 158//158 9//9 138//138
f 159//159 12//12 139//139
f 160//160 15//15 140//140
f 161//161 18//18 141//141
f 162//162 21//21 142//142
f 145//145 24//24 144//144
f 147//147 25//25 146//146
f 149//149 26//26 148//148
f 151//151 27//27 150//150
f 143//143 23//23 152//152
f 159//159 30//30 153//153
f 160//160 33//33 154//154
f 161//161 36//36 155//155
f 162//162 39//39 156//156
f 158//158 42//42 157//157
f 128//128 44//44 75//75
f 130//130 46//46 78//78
f 132//132 48//48 81//81
f 134//134 50//50 84//84
f 136//136 52//52 87//87
f 76//76 45//45 90//90
f 73//73 43//43 93//93
f 85//85 51//51 96//96
f 82//82 49//49 99//99
f 79//79 47//47 102//102
f 143//143 59//59 105//105
f 145//145 61//61 108//108
f 147//147 63//63 111//111
f 149//149 65//65 114//114
f 151//151 67//67 117//117
f 103//103 58//58 119//119
f 106//106 60//60 121//121
f 109//109 62//62 123//123
f 112//112 64//64 125//125
f 115//115 66//66 127//127
f 73//73 11//11 74//74
f 76//76 8//8 77//77
f 79//79 20//20 80//80
f 82//82 17//17 83//83
f 85//85 14//14 86//86
f 88//88 68//68 89//89
f 91//91 69//69 92//92
f 94//94 70//70 95//95
f 97//97 71//71 98//98
f 100//100 72//72 101//101
f 103//103 29//29 104//104
f 106//106 32//32 107//107
f 109//109 35//35 110//110
f 112//112 38//38 113//113
f 115//115 41//41 116//116
f 88//88 53//53 118//118
f 91//91 54//54 120//120
f 94//94 55//55 122//122
f 97//97 56//56 124//124
f 100//100 57//57 126//126
f 128//128 75//75 129//129
f 130//130 78//78 131//131
f 132//132 81//81 133//133
f 134//134 84//84 135//135
f 136//136 87//87 137//137
f 76//76 90//90 138//138
f 73//73 93//93 139//139
f 85//85 96//96 140//140
f 82//82 99//99 141//141
f 79//79 102//102 142//142
f 143//143 105//105 144//144
f 145//145 108//108 146//146
f 147//147 111//111 148//148
f 149//149 114//114 150//150
f 151//151 117//117 152//152
f 103//103 119//119 153//153
f 106//106 121//121 154//154
f 109//109 123//123 155//155
f 112//112 125//125 156//156
f 115//115 127//127 157//157
f 129//129 3//3 2//2
f 131//131 4//4 3//3
f 133//133 5//5 4//4
f 135//135 6//6 5//5
f 137//137 2//2 6//6
f 138//138 9//9 8//8
f 139//139 12//12 11//11
f 140//140 15//15 14//14
f 141//141 18//18 17//17
f 142//142 21//21 20//20
f 144//144 24//24 23//23
f 146//146 25//25 24//24
f 148//148 26//26 25//25
f 150//150 27//27 26//26
f 152//152 23//23 27//27
f 153//153 30//30 29//29
f 154//154 33//33 32//32
f 155//155 36//36 35//35
f 156//156 39//39 38//38
f 157//157 42//42 41//41
f 75//75 44//44 43//43
f 78//78 46//46 45//45
f 81//81 48//48 47//47
f 84//84 50//50 49//49
f 87//87 52//52 51//51
f 90//90 45//45 53//53
f 93//93 43//43 54//54
f 96//96 51//51 55//55
f 99//99 49//49 56//56
f 102//102 47//47 57//57
f 105//105 59//59 58//58
f 108//108 61//61 60//60
f 111//111 63//63 62//62
f 114//114 65//65 64//64
f 117//117 67//67 66//66
f 119//119 58//58 68//68
f 121//121 60//60 69//69
f 123//123 62//62 70//70
f 125//125 64//64 71//71
f 127//127 66//66 72//72
f 74//74 11//11 46//46
f 77//77 8//8 48//48
f 80//80 20//20 50//50
f 83//83 17//17 52//52
f 86//86 14//14 44//44
f 89//89 68//68 42//42
f 92//92 69//69 30//30
f 95//95 70//70 33//33
f 98//98 71//71 36//36
f 101//101 72//72 39//39
f 104//104 29//29 61//61
f 107//107 32//32 63//63
f 110//110 35//35 65//65
f 113//113 38//38 67//67
f 116//116 41//41 59//59
f 118//118 53//53 12//12
f 120//120 54//54 15//15
f 122//122 55//55 18//18
f 124//124 56//56 21//21
f 126//126 57//57 9//9
f 129//129 75//75 74//74
f 131//131 78//78 77//77
f 133//133 81//81 80//80
f 135//135 84//84 83//83
f 137//137 87//87 86//86
f 138//138 90//90 89//89
f 139//139 93//93 92//92
f 140//140 96//96 95//95
f 141//141 99//99 98//98
f 142//142 102//102 101//101
f 144//144 105//105 104//104
f 146//146 108//108 107//107
f 148//148 111//111 110//110
f 150//150 114//114 113//113
f 152//152 117//117 116//116
f 153//153 119//119 118//118
f 154//154 121//121 120//120
f 155//155 123//123 122//122
f 156//156 125//125 124//124
f 157//157 127//127 126//126
