# Created by Open3D 
# object name: part_014
# number of vertices: 162
# number of triangles: 320
v -1.30303 0.0932996 0.0202727
vn -0.98628 0.159758 -0.0415918
v -1.30434 0.0816185 0.0404606
vn -0.998185 -0.0434658 0.0416884
v -1.30172 0.100957 0.0411888
vn -0.97147 0.222116 0.0831265
v -1.29706 0.118487 0.0204725
vn -0.953318 0.299076 -0.0416978
v -1.3003 0.100596 0.0062617
vn -0.951424 0.216963 -0.218445
v -1.30299 0.0812743 0.00717478
vn -0.989725 -0.0480061 -0.134682
v -1.05156 0.868193 0.0224436
vn -0.892077 0.45004 -0.0407802
v -1.05503 0.861114 0.0433184
vn -0.916911 0.390237 0.0836003
v -1.04579 0.87831 0.0426924
vn -0.782517 0.621104 0.0435529
v -1.1707 0.478539 0.0447923
vn -0.0837251 0.0243797 0.996191
v -1.28498 0.116502 0.0439357
vn -0.065824 0.0177272 0.997674
v -1.16103 0.475399 0.04546
vn -0.0432436 0.0112347 0.999001
v -1.14979 0.0223699 0.0494307
vn -0.0762698 -0.100933 0.991965
v -1.15138 0.0173293 0.0482297
vn -0.297178 -0.859107 0.416678
v -1.00755 -0.0244375 0.0553182
vn -0.092754 -0.181801 0.978951
v -1.14827 0.0219824 0.0119546
vn 0.00409865 -0.121458 -0.992588
v -1.28146 0.0737692 0.00549723
vn 0.0242249 -0.0558577 -0.998145
v -1.01002 -0.0143529 0.0174011
vn 0.0267794 -0.0566875 -0.998033
v -1.19508 0.398098 0.00524409
vn -0.00288743 0.00373862 -0.999989
v -1.06175 0.823657 0.00661788
vn -0.0637871 0.0239826 -0.997675
v -1.04902 0.838283 0.00657985
vn 0.0156494 -0.0015837 -0.999876
v -0.730882 0.764085 0.0365069
vn 0.986279 -0.159759 0.0415917
v -0.731208 0.776182 0.0564884
vn 0.991582 0.0451548 0.121354
v -0.733895 0.75686 0.0574015
vn 0.961382 -0.219541 0.16597
v -0.736872 0.738903 0.0367432
vn 0.953318 -0.299076 0.0416992
v -0.732481 0.756499 0.0224745
vn 0.96579 -0.220632 -0.136277
v -0.72986 0.775837 0.0232026
vn 0.997414 0.0460418 -0.0551803
v -0.865088 0.379323 0.0581949
vn 0.00288757 -0.00373865 0.999989
v -0.750812 0.741361 0.0591067
vn -0.0150762 0.00293065 0.999882
v -0.874776 0.382468 0.0580135
vn -0.0376813 0.00942904 0.999245
v -0.982352 -0.0108084 0.0343361
vn 0.892077 -0.45004 0.0407797
v -0.980583 -0.00329725 0.0552718
vn 0.906823 -0.387663 0.165498
v -0.989752 -0.0205097 0.0542564
vn 0.775913 -0.619419 0.119493
v -0.889468 0.298882 0.0186467
vn 0.0837249 -0.0243796 -0.996191
v -0.970888 0.0333999 0.0184692
vn 0.145723 -0.0450988 -0.988297
v -0.983583 0.0187658 0.0177042
vn 0.0654589 -0.01951 -0.997665
v -0.884404 0.835086 0.0142326
vn 0.0762696 0.100932 -0.991966
v -0.751171 0.783288 0.0196358
vn 0.0566061 0.0352219 -0.997775
v -1.02261 0.87141 0.0077318
vn 0.0540514 0.0360508 -0.997887
v -0.885922 0.835474 0.0517086
vn -0.00409866 0.121458 0.992588
v -0.884242 0.84049 0.0505358
vn 0.263233 0.867774 0.421517
v -1.02814 0.882274 0.0451084
vn 0.0134523 0.202057 0.979281
v -1.28302 0.0741676 0.0440274
vn -0.0566062 -0.0352224 0.997775
v -1.29238 0.0680298 0.0428272
vn -0.109367 -0.176406 0.978223
v -1.06331 0.824056 0.045194
vn -0.144907 0.0447845 0.988431
v -1.28666 0.135805 0.0432658
vn -0.145218 0.0438288 0.988428
v -1.05361 0.860753 0.00839137
vn -0.897163 0.384167 -0.217977
v -1.06152 0.844298 0.0225059
vn -0.947203 0.317918 -0.0416451
v -1.28338 0.116095 0.00455655
vn 0.0148174 -0.00306956 -0.999886
v -1.2851 0.135406 0.00468967
vn -0.0656452 0.0235209 -0.997566
v -1.14995 0.0169663 0.0131274
vn -0.234743 -0.798047 -0.554992
v -1.29089 0.0676497 0.00606387
vn -0.0300644 -0.196659 -0.980011
v -1.05061 0.83869 0.045959
vn -0.0653315 0.0192457 0.997678
v -1.01158 -0.0139544 0.0559314
vn -0.0540516 -0.0360514 0.997887
v -1.00606 -0.0248177 0.0185548
vn -0.0134522 -0.202056 -0.979282
v -1.18571 0.393963 0.0054227
vn 0.0376812 -0.00942904 -0.999245
v -1.04444 0.877966 0.00940679
vn -0.772714 0.620705 -0.13281
v -0.752731 0.783687 0.058166
vn -0.0242249 0.0558576 0.998145
v -0.743309 0.789806 0.0575994
vn 0.0300645 0.196659 0.980011
v -0.972451 0.0337988 0.0570453
vn 0.0644877 -0.024251 0.997624
v -0.749098 0.72205 0.0589735
vn 0.0648007 -0.0232958 0.997626
v -0.979169 -0.00365841 0.0203448
vn 0.911529 -0.387834 -0.136747
v -0.972414 0.0130909 0.0347098
vn 0.947203 -0.317918 0.041645
v -0.749217 0.740954 0.0197275
vn 0.0656552 -0.0178179 -0.997683
v -0.747536 0.721651 0.0203974
vn 0.144509 -0.0436398 -0.988541
v -0.88282 0.840127 0.0154335
vn 0.279515 0.786616 -0.550551
v -0.74182 0.789426 0.020836
vn 0.109367 0.176406 -0.978223
v -1.02417 0.871809 0.0462621
vn -0.0267794 0.0566874 0.998033
v -0.985178 0.019173 0.0570834
vn -0.0155662 0.00141116 0.999878
v -0.988404 -0.0208539 0.0209708
vn 0.780405 -0.622666 -0.0570541
v -0.899458 0.301032 0.0179763
vn 0.0432435 -0.0112346 -0.999001
v -1.02665 0.881893 0.00834502
vn 0.0927543 0.181802 -0.978951
v -1.2879 0.0904586 0.0439607
vn -0.0497967 -0.00361187 0.998753
v -1.2955 0.0997667 0.043242
vn -0.129741 0.018985 0.991366
v -1.29664 0.0794663 0.0431041
vn -0.120632 -0.0273955 0.992319
v -1.05816 0.84811 0.0445089
vn -0.33677 0.111818 0.934924
v -1.06814 0.826064 0.0431697
vn -0.947247 0.309267 0.0841268
v -1.1782 0.480975 0.0435382
vn -0.344964 0.109337 0.932226
v -1.05665 0.847724 0.00721993
vn -0.261218 0.0918453 -0.9609
v -1.20143 0.404313 0.00584798
vn -0.268366 0.0897779 -0.959124
v -1.06673 0.825702 0.00820281
vn -0.923999 0.302662 -0.233712
v -1.28631 0.090054 0.00483366
vn 0.0311168 -0.0242728 -0.999221
v -1.2951 0.0790744 0.00520736
vn -0.0400233 -0.047975 -0.998046
v -1.29394 0.0993686 0.00474282
vn -0.0491447 -0.00159607 -0.99879
v -1.15104 0.0155099 0.0270037
vn -0.308674 -0.951164 -0.00266447
v -1.29376 0.0640748 0.0410891
vn -0.352935 -0.930287 0.100017
v -1.29241 0.0637302 0.00776551
vn -0.343061 -0.931042 -0.124377
v -1.03768 0.861483 0.0461206
vn -0.0398294 0.0271013 0.998839
v -1.0383 0.875517 0.0453343
vn -0.0831914 0.0879775 0.992643
v -1.0493 0.858417 0.0453674
vn -0.117793 0.055792 0.99147
v -0.998099 -0.00362244 0.0566696
vn -0.0410832 -0.00644094 0.999135
v -0.999344 0.0233172 0.0566601
vn -0.0401367 0.00937738 0.99915
v -1.14363 0.04148 0.050408
vn -0.0453184 -0.00464907 0.998962
v -0.995609 -0.0253312 0.0195978
vn 0.343554 -0.730566 -0.590123
v -0.996078 -0.0274677 0.0337825
vn 0.38909 -0.920853 0.0252801
v -1.00726 -0.0288424 0.0202707
vn -0.259512 -0.958166 -0.120714
v -1.04268 0.347182 0.0116212
vn 0.0404621 -0.0103318 -0.999128
v -0.997734 0.022906 0.016895
vn 0.0407229 -0.0114909 -0.999104
v -1.26948 0.111128 0.00497758
vn 0.0395703 -0.0111167 -0.999155
v -1.03715 0.88242 0.00852878
vn -0.294106 0.71794 -0.630923
v -1.03677 0.875125 0.00743753
vn -0.00258921 0.0673973 -0.997723
v -1.04619 0.871297 0.00769983
vn -0.189035 0.147408 -0.970843
v -0.747885 0.767402 0.0588296
vn -0.0311168 0.0242728 0.999221
v -0.740256 0.758087 0.0589204
vn 0.0491446 0.00159598 0.99879
v -0.739094 0.778382 0.0584559
vn 0.0400234 0.0479748 0.998046
v -0.977543 0.0097317 0.0564433
vn 0.259971 -0.0922075 0.961204
v -0.96747 0.0317539 0.0554604
vn 0.937085 -0.306672 0.166805
v -0.857516 0.376868 0.0576015
vn 0.268365 -0.0897775 0.959125
v -0.976033 0.0093461 0.0191543
vn 0.335033 -0.112344 -0.935485
v -0.880751 0.300206 0.0199114
vn 0.344963 -0.109336 -0.932227
v -0.966054 0.0313923 0.0204936
vn 0.942602 -0.307713 -0.12967
v -0.7463 0.766997 0.0197026
vn 0.0497967 0.00361212 -0.998753
v -0.737559 0.77799 0.0205591
vn 0.120632 0.0273954 -0.992319
v -0.738697 0.757689 0.0204212
vn 0.129741 -0.0189849 -0.991366
v -0.882863 0.84187 0.0293188
vn 0.308674 0.951164 0.00266542
v -0.741783 0.793726 0.0558977
vn 0.34447 0.932448 0.108999
v -0.740433 0.793381 0.0225742
vn 0.352773 0.928562 -0.115426
v -1.03646 0.83455 0.0467682
vn -0.0407875 0.0112863 0.999104
v -0.892158 0.816383 0.0525789
vn -0.0355959 0.0253098 0.999046
v -0.99743 -0.0176695 0.0562257
vn 0.00258914 -0.0673978 0.997723
v -0.986455 -0.000562693 0.056795
vn 0.0372011 -0.0352129 0.998687
v -0.995895 -0.0180614 0.0183289
vn 0.0831916 -0.0879778 -0.992642
v -0.986523 -0.0142203 0.019273
vn 0.266787 -0.167262 -0.94913
v -1.03485 0.834139 0.00700306
vn 0.0400946 -0.00951099 -0.999151
v -0.763101 0.745916 0.0189206
vn 0.0412417 -0.00988337 -0.9991
v -1.03783 0.884849 0.0226578
vn -0.389086 0.920854 -0.0252795
v -1.02558 0.885954 0.010069
vn 0.269224 0.955686 -0.11909
v -1.30113 0.0737565 0.0417988
vn -0.775657 -0.441055 0.451472
v -1.30197 0.0880837 0.042195
vn -0.315724 0.0164617 0.948708
v -1.29662 0.113318 0.0424503
vn -0.339786 0.102501 0.934901
v -1.29175 0.13703 0.0412393
vn -0.94848 0.305467 0.0841161
v -1.1799 0.481593 0.0210149
vn -0.950307 0.308512 -0.0416735
v -1.29033 0.136668 0.00627247
vn -0.930054 0.300236 -0.211795
v -1.29511 0.112933 0.0051614
vn -0.261866 0.0814365 -0.961662
v -1.30048 0.0877043 0.00550449
vn -0.23797 -0.00339368 -0.971267
v -1.2997 0.073389 0.00626222
vn -0.658597 -0.405224 -0.634069
v -1.30169 0.071749 0.0203798
vn -0.855628 -0.516762 -0.0293073
v -1.04767 0.871676 0.0443902
vn -0.266787 0.167262 0.94913
v -1.27109 0.11154 0.0447426
vn -0.0412861 0.0097505 0.9991
v -1.00861 -0.0284978 0.0535942
vn -0.268884 -0.957574 0.103703
v -1.14204 0.0410733 0.0110843
vn 0.0355959 -0.0253097 -0.999046
v -1.04774 0.858019 0.00686825
vn -0.0372007 0.0352126 -0.998687
v -0.7345 0.784067 0.057401
vn 0.736981 0.45093 0.503509
v -0.733716 0.769752 0.0581587
vn 0.237969 0.00339351 0.971267
v -0.739087 0.744523 0.0585018
vn 0.263 -0.0828943 0.961228
v -0.743863 0.720788 0.0573908
vn 0.938318 -0.302872 0.166816
v -0.853994 0.375787 0.0353075
vn 0.950307 -0.308512 0.0416743
v -0.742447 0.720426 0.0224239
vn 0.940879 -0.302762 -0.151928
v -0.737577 0.744138 0.0212129
vn 0.340553 -0.103517 -0.93451
v -0.73223 0.769372 0.0214682
vn 0.315723 -0.0164613 -0.948709
v -0.733061 0.783699 0.0218644
vn 0.708046 0.392598 -0.586974
v -0.732209 0.785632 0.0360604
vn 0.855627 0.516762 0.0293066
v -0.764711 0.746328 0.0586856
vn -0.0396382 0.0109132 0.999154
v -0.988009 -0.0138409 0.0559634
vn 0.189035 -0.147408 0.970843
v -0.984896 -0.00096078 0.0182958
vn 0.117793 -0.055792 -0.99147
v -0.890565 0.815976 0.0132552
vn 0.0453185 0.00464919 -0.998962
v -1.02693 0.886298 0.0433926
vn 0.260419 0.959735 0.105313
v -1.03859 0.882787 0.0440654
vn -0.3696 0.810177 0.454983
v -1.01791 0.428935 0.0518141
vn -0.0404621 0.0103317 0.999128
v -0.997048 -0.0249637 0.0551344
vn 0.330932 -0.8003 0.500004
v -0.996514 -0.00402703 0.0175426
vn 0.0398294 -0.0271011 -0.998839
v -1.0361 0.861078 0.00699365
vn 0.0410832 0.00644092 -0.999135
f 1//1 2//2 3//3
f 1//1 3//3 4//4
f 1//1 4//4 5//5
f 1//1 5//5 6//6
f 1//1 6//6 2//2
f 7//7 8//8 9//9
f 10//10 11//11 12//12
f 13//13 14//14 15//15
f 16//16 17//17 18//18
f 19//19 20//20 21//21
f 22//22 23//23 24//24
f 22//22 24//24 25//25
f 22//22 25//25 26//26
f 22//22 26//26 27//27
f 22//22 27//27 23//23
f 28//28 29//29 30//30
f 31//31 32//32 33//33
f 34//34 35//35 36//36
f 37//37 38//38 39//39
f 40//40 41//41 42//42
f 13//13 43//43 44//44
f 10//10 45//45 46//46
f 7//7 47//47 48//48
f 19//19 49//49 50//50
f 16//16 51//51 52//52
f 10//10 53//53 45//45
f 13//13 54//54 43//43
f 16//16 55//55 51//51
f 19//19 56//56 49//49
f 7//7 57//57 47//47
f 40//40 58//58 59//59
f 28//28 60//60 61//61
f 31//31 62//62 63//63
f 34//34 64//64 65//65
f 37//37 66//66 67//67
f 40//40 68//68 58//58
f 28//28 69//69 60//60
f 31//31 70//70 62//62
f 34//34 71//71 64//64
f 37//37 72//72 66//66
f 10//10 46//46 11//11
f 7//7 48//48 8//8
f 19//19 50//50 20//20
f 16//16 52//52 17//17
f 13//13 44//44 14//14
f 40//40 42//42 68//68
f 28//28 30//30 69//69
f 31//31 33//33 70//70
f 34//34 36//36 71//71
f 37//37 39//39 72//72
f 28//28 61//61 29//29
f 31//31 63//63 32//32
f 34//34 65//65 35//35
f 37//37 67//67 38//38
f 40//40 59//59 41//41
f 10//10 12//12 53//53
f 13//13 15//15 54//54
f 16//16 18//18 55//55
f 19//19 21//21 56//56
f 7//7 9//9 57//57
f 73//73 74//74 75//75
f 76//76 77//77 78//78
f 79//79 80//80 81//81
f 82//82 83//83 84//84
f 85//85 86//86 87//87
f 88//88 89//89 90//90
f 91//91 92//92 93//93
f 94//94 95//95 96//96
f 97//97 98//98 99//99
f 100//100 101//101 102//102
f 103//103 104//104 105//105
f 106//106 107//107 108//108
f 109//109 110//110 111//111
f 112//112 113//113 114//114
f 115//115 116//116 117//117
f 88//88 118//118 119//119
f 91//91 120//120 121//121
f 94//94 122//122 123//123
f 97//97 124//124 125//125
f 100//100 126//126 127//127
f 128//128 129//129 2//2
f 130//130 131//131 3//3
f 132//132 133//133 4//4
f 134//134 135//135 5//5
f 136//136 137//137 6//6
f 76//76 138//138 8//8
f 73//73 139//139 11//11
f 85//85 140//140 14//14
f 82//82 141//141 17//17
f 79//79 142//142 20//20
f 143//143 144//144 23//23
f 145//145 146//146 24//24
f 147//147 148//148 25//25
f 149//149 150//150 26//26
f 151//151 152//152 27//27
f 103//103 153//153 29//29
f 106//106 154//154 32//32
f 109//109 155//155 35//35
f 112//112 156//156 38//38
f 115//115 157//157 41//41
f 73//73 75//75 43//43
f 76//76 78//78 45//45
f 79//79 81//81 47//47
f 82//82 84//84 49//49
f 85//85 87//87 51//51
f 88//88 90//90 53//53
f 91//91 93//93 54//54
f 94//94 96//96 55//55
f 97//97 99//99 56//56
f 100//100 102//102 57//57
f 103//103 105//105 58//58
f 106//106 108//108 60//60
f 109//109 111//111 62//62
f 112//112 114//114 64//64
f 115//115 117//117 66//66
f 88//88 119//119 68//68
f 91//91 121//121 69//69
f 94//94 123//123 70//70
f 97//97 125//125 71//71
f 100//100 127//127 72//72
f 130//130 74//74 46//46
f 132//132 77//77 48//48
f 134//134 80//80 50//50
f 136//136 83//83 52//52
f 128//128 86//86 44//44
f 158//158 89//89 42//42
f 159//159 92//92 30//30
f 160//160 95//95 33//33
f 161//161 98//98 36//36
f 162//162 101//101 39//39
f 145//145 104//104 61//61
f 147//147 107//107 63//63
f 149//149 110//110 65//65
f 151//151 113//113 67//67
f 143//143 116//116 59//59
f 159//159 118//118 12//12
f 160//160 120//120 15//15
f 161//161 122//122 18//18
f 162//162 124//124 21//21
f 158//158 126//126 9//9
f 130//130 129//129 74//74
f 132//132 131//131 77//77
f 134//134 133//133 80//80
f 136//136 135//135 83//83
f 128//128 137//137 86//86
f 158//158 138//138 89//89
f 159//159 139//139 92//92
f 160//160 140//140 95//95
f 161//161 141//141 98//98
f 162//162 142//142 101//101
f 145//145 144//144 104//104
f 147//147 146//146 107//107
f 149//149 148//148 110//110
f 151//151 150//150 113//113
f 143//143 152//152 116//116
f 159//159 153//153 118//118
f 160//160 154//154 120//120
f 161//161 155//155 122//122
f 162//162 156//156 124//124
f 158//158 157//157 126//126
f 130//130 3//3 129//129
f 132//132 4//4 131//131
f 134//134 5//5 133//133
f 136//136 6//6 135//135
f 128//128 2//2 137//137
f 158//158 9//9 138//138
f 159//159 12//12 139//139
f 160//160 15//15 140//140
f 161//161 18//18 141//141
f 162//162 21//21 142//142
f 145//145 24//24 144//144
f 147//147 25//25 146//146
f 149//149 26//26 148//148
f 151//151 27//27 150//150
f 143//143 23//23 152//152
f 159//159 30//30 153//153
f 160//160 33//33 154//154
f 161//161 36//36 155//155
f 162//162 39//39 156//156
f 158//158 42//42 157//157
f 128//128 44//44 75//75
f 130//130 46//46 78//78
f 132//132 48//48 81//81
f 134//134 50//50 84//84
f 136//136 52//52 87//87
f 76//76 45//45 90//90
f 73//73 43//43 93//93
f 85//85 51//51 96//96
f 82//82 49//49 99//99
f 79//79 47//47 102//102
f 143//143 59//59 105//105
f 145//145 61//61 108//108
f 147//147 63//63 111//111
f 149//149 65//65 114//114
f 151//151 67//67 117//117
f 103//103 58//58 119//119
f 106//106 60//60 121//121
f 109//109 62//62 123//123
f 112//112 64//64 125//125
f 115//115 66//66 127//127
f 73//73 11//11 74//74
f 76//76 8//8 77//77
f 79//79 20//20 80//80
f 82//82 17//17 83//83
f 85//85 14//14 86//86
f 88//88 68//68 89//89
f 91//91 69//69 92//92
f 94//94 70//70 95//95
f 97//97 71//71 98//98
f 100//100 72//72 101//101
f 103//103 29//29 104//104
f 106//106 32//32 107//107
f 109//109 35//35 110//110
f 112//112 38//38 113//113
f 115//115 41//41 116//116
f 88//88 53//53 118//118
f 91//91 54//54 120//120
f 94//94 55//55 122//122
f 97//97 56//56 124//124
f 100//100 57//57 126//126
f 128//128 75//75 129//129
f 130//130 78//78 131//131
f 132//132 81//81 133//133
f 134//134 84//84 135//135
f 136//136 87//87 137//137
f 76//76 90//90 138//138
f 73//73 93//93 139//139
f 85//85 96//96 140//140
f 82//82 99//99 141//141
f 79//79 102//102 142//142
f 143//143 105//105 144//144
f 145//145 108//108 146//146
f 147//147 111//111 148//148
f 149//149 114//114 150//150
f 151//151 117//117 152//152
f 103//103 119//119 153//153
f 106//106 121//121 154//154
f 109//109 123//123 155//155
f 112//112 125//125 156//156
f 115//115 127//127 157//157
f 129//129 3//3 2//2
f 131//131 4//4 3//3
f 133//133 5//5 4//4
f 135//135 6//6 5//5
f 137//137 2//2 6//6
f 138//138 9//9 8//8
f 139//139 12//12 11//11
f 140//140 15//15 14//14
f 141//141 18//18 17//17
f 142//142 21//21 20//20
f 144//144 24//24 23//23
f 146//146 25//25 24//24
f 148//148 26//26 25//25
f 150//150 27//27 26//26
f 152//152 23//23 27//27
f 153//153 30//30 29//29
f 154//154 33//33 32//32
f 155//155 36//36 35//35
f 156//156 39//39 38//38
f 157//157 42//42 41//41
f 75//75 44//44 43//43
f 78//78 46//46 45//45
f 81//81 48//48 47//47
f 84//84 50//50 49//49
f 87//87 52//52 51//51
f 90//90 45//45 53//53
f 93//93 43//43 54//54
f 96//96 51//51 55//55
f 99//99 49//49 56//56
f 102//102 47//47 57//57
f 105//105 59//59 58//58
f 108//108 61//61 60//60
f 111//111 63//63 62//62
f 114//114 65//65 64//64
f 117//117 67//67 66//66
f 119//119 58//58 68//68
f 121//121 60//60 69//69
f 123//123 62//62 70//70
f 125//125 64//64 71//71
f 127//127 66//66 72//72
f 74//74 11//11 46//46
f 77//77 8//8 48//48
f 80//80 20//20 50//50
f 83//83 17//17 52//52
f 86//86 14//14 44//44
f 89//89 68//68 42//42
f 92//92 69//69 30//30
f 95//95 70//70 33//33
f 98//98 71//71 36//36
f 101//101 72//72 39//39
f 104//104 29//29 61//61
f 107//107 32//32 63//63
f 110//110 35//35 65//65
f 113//113 38//38 67//67
f 116//116 41//41 59//59
f 118//118 53//53 12//12
f 120//120 54//54 15//15
f 122//122 55//55 18//18
f 124//124 56//56 21//21
f 126//126 57//57 9//9
f 129//129 75//75 74//74
f 131//131 78//78 77//77
f 133//133 81//81 80//80
f 135//135 84//84 83//83
f 137//137 87//87 86//86
f 138//138 90//90 89//89
f 139//139 93//93 92//92
f 140//140 96//96 95//95
f 141//141 99//99 98//98
f 142//142 102//102 101//101
f 144//144 105//105 104//104
f 146//146 108//108 107//107
f 148//148 111//111 110//110
f 150//150 114//114 113//113
f 152//152 117//117 116//116
f 153//153 119//119 118//118
f 154//154 121//121 120//120
f 155//155 123//123 122//122
f 156//156 125//125 124//124
f 157//157 127//127 126//126
