# Created by Open3D 
# object name: part_007
# number of vertices: 162
# number of triangles: 320
v -1.10228 -1.52903 0.054261
vn -0.350204 0.936133 0.031808
v -1.10791 -1.53331 0.0741518
vn -0.651987 0.752705 0.0913715
v -1.09878 -1.52943 0.0752257
vn -0.226954 0.960685 0.159926
v -1.08989 -1.52638 0.0547211
vn -0.063684 0.997269 0.0373939
v -1.09838 -1.5281 0.0402958
vn -0.222114 0.964216 -0.144751
v -1.10753 -1.53204 0.0408635
vn -0.652812 0.755149 -0.0598943
v -0.708091 -1.51232 0.059368
vn 0.268786 0.962376 0.039826
v -0.712087 -1.51304 0.0802355
vn 0.14063 0.976269 0.164689
v -0.702634 -1.51613 0.0794025
vn 0.583366 0.80508 0.107377
v -0.905099 -1.52965 0.0796149
vn -0.0132244 0.00636512 0.999892
v -1.08865 -1.54056 0.0771448
vn -0.0140769 -0.0124168 0.999824
v -0.904656 -1.54005 0.0794658
vn -0.011449 -0.0353301 0.99931
v -1.10486 -1.70246 0.0698202
vn -0.246936 -0.0471108 0.967886
v -1.10741 -1.70253 0.0686001
vn -0.977376 -0.0496727 0.205593
v -1.09859 -1.85538 0.0636901
vn -0.396271 -0.0596261 0.916195
v -1.10444 -1.70103 0.0323412
vn -0.224934 0.0271051 -0.973997
v -1.10675 -1.55511 0.0373639
vn -0.0880698 0.0350983 -0.995496
v -1.09425 -1.84658 0.0263662
vn -0.0879579 0.032482 -0.995594
v -0.945366 -1.52987 0.0397603
vn 0.00940598 0.0826691 -0.996533
v -0.7298 -1.51613 0.0431038
vn 0.00762484 0.145085 -0.98939
v -0.720832 -1.52348 0.0425222
vn 0.0115814 0.0639348 -0.997887
v -0.693324 -1.85666 0.0463751
vn 0.350204 -0.936133 -0.0318082
v -0.688148 -1.85392 0.0666567
vn 0.650399 -0.758049 0.0483974
v -0.697299 -1.85786 0.0672244
vn 0.224107 -0.970284 0.0912416
v -0.705719 -1.85933 0.0463511
vn 0.0636837 -0.997269 -0.0373939
v -0.696903 -1.85652 0.0322946
vn 0.226165 -0.95055 -0.212849
v -0.687771 -1.85265 0.0333684
vn 0.654649 -0.748944 -0.102558
v -0.891026 -1.85781 0.0672326
vn -0.00940599 -0.0826688 0.996533
v -0.707472 -1.8469 0.0697577
vn -0.00856814 -0.0639356 0.997917
v -0.891474 -1.84743 0.0678679
vn -0.0112038 -0.0410466 0.999094
v -1.08751 -1.87337 0.0412682
vn -0.268786 -0.962376 -0.039826
v -1.08399 -1.87425 0.0622145
vn -0.143478 -0.985868 0.0864772
v -1.09342 -1.8711 0.0614061
vn -0.584946 -0.810425 0.0323933
v -0.931293 -1.85803 0.027378
vn 0.0132244 -0.00636554 -0.999892
v -1.06544 -1.86836 0.0258372
vn 0.0147864 -0.0707411 -0.997385
v -1.0744 -1.86097 0.0256158
vn 0.0103549 0.0120598 -0.999874
v -0.690816 -1.68349 0.0377001
vn 0.246936 0.0471109 -0.967886
v -0.688493 -1.82937 0.0316231
vn 0.110612 0.0409008 -0.993022
v -0.700992 -1.53791 0.0426209
vn 0.110499 0.0435165 -0.992923
v -0.69124 -1.68493 0.0751791
vn 0.224933 -0.0271051 0.973997
v -0.688669 -1.68477 0.0740252
vn 0.972429 0.0329926 0.230853
v -0.697504 -1.53198 0.0805964
vn 0.375391 -0.0108104 0.926803
v -1.10719 -1.55658 0.0758972
vn -0.110612 -0.0409008 0.993022
v -1.11171 -1.54954 0.0752301
vn -0.396963 -0.0435561 0.9168
v -0.730237 -1.5176 0.0816831
vn -0.0148468 0.0698886 0.997444
v -1.08035 -1.53244 0.077147
vn -0.0169206 0.0698018 0.997417
v -0.711691 -1.5117 0.0453057
vn 0.143387 0.979712 -0.140015
v -0.720669 -1.51073 0.0595047
vn -0.0219288 0.99904 0.0379317
v -1.08821 -1.53906 0.0377626
vn 0.00812233 0.0641174 -0.997909
v -1.07991 -1.53097 0.0385678
vn 0.00546683 0.146569 -0.989185
v -1.10701 -1.70118 0.0334951
vn -0.947558 -0.0286265 -0.318298
v -1.11129 -1.54814 0.0384639
vn -0.376083 0.026881 -0.926196
v -0.721278 -1.52499 0.0819044
vn -0.0107834 -0.0122798 0.999866
v -1.09469 -1.84805 0.0648994
vn -0.110499 -0.0435165 0.992923
v -1.09817 -1.85397 0.0269238
vn -0.375391 0.0108103 -0.926804
v -0.945421 -1.54028 0.0391183
vn 0.0112038 0.0410472 -0.999094
v -0.702257 -1.51486 0.0461141
vn 0.587892 0.807751 -0.0438217
v -0.688929 -1.83085 0.0701564
vn 0.0880695 -0.0350983 0.995496
v -0.684388 -1.83782 0.0690564
vn 0.376083 -0.026881 0.926196
v -1.06588 -1.86983 0.0644165
vn -0.0076735 -0.145816 0.989282
v -0.715768 -1.85499 0.0689524
vn -0.00559994 -0.145729 0.989309
v -1.08359 -1.87292 0.0272848
vn -0.139336 -0.966046 -0.217581
v -1.07494 -1.87498 0.0415676
vn 0.0219286 -0.99904 -0.0379318
v -0.707026 -1.8454 0.0303755
vn 0.0137858 0.0125316 -0.999826
v -0.715331 -1.85351 0.0303733
vn 0.0168091 -0.0690683 -0.99747
v -0.688271 -1.68343 0.0389201
vn 0.954493 0.0520146 -0.293661
v -0.683972 -1.83641 0.0322902
vn 0.396965 0.0435561 -0.9168
v -0.701429 -1.53938 0.0811541
vn 0.0879579 -0.032482 0.995594
v -1.07485 -1.86248 0.0649981
vn -0.0118616 -0.0640743 0.997875
v -1.09304 -1.86983 0.0281177
vn -0.586045 -0.801547 -0.118632
v -0.93224 -1.84765 0.0275204
vn 0.011449 0.0353293 -0.99931
v -0.697088 -1.53058 0.0438302
vn 0.396271 0.0596261 -0.916195
v -1.10084 -1.54645 0.0766551
vn -0.0448015 -0.0351027 0.998379
v -1.09813 -1.53597 0.076772
vn -0.054846 0.0460523 0.997432
v -1.10742 -1.54165 0.0761481
vn -0.138286 0.0198669 0.990193
v -0.718504 -1.51446 0.0812913
vn -0.0138953 0.273015 0.961909
v -0.730249 -1.51212 0.0800848
vn -0.0397049 0.985391 0.165615
v -0.905435 -1.52153 0.0789962
vn -0.0242931 0.279697 0.959781
v -0.718082 -1.51304 0.0439994
vn 0.0060901 0.346618 -0.937987
v -0.943811 -1.52174 0.0410141
vn -0.00280441 0.352155 -0.935937
v -0.729853 -1.51078 0.0451152
vn -0.035438 0.986489 -0.159946
v -1.1004 -1.54496 0.0375251
vn -0.0221586 0.0412322 -0.998904
v -1.10699 -1.5402 0.0382485
vn -0.11585 0.0954981 -0.988665
v -1.0977 -1.5345 0.0382697
vn -0.0322973 0.122084 -0.991994
v -1.10798 -1.70175 0.0473664
vn -0.999019 -0.0423551 -0.0129438
v -1.11372 -1.54939 0.0734904
vn -0.99898 -0.023209 0.0387422
v -1.11335 -1.54812 0.0401642
vn -0.997324 -0.0191113 -0.0705725
v -0.708625 -1.52982 0.0817366
vn 0.0217755 -0.0322792 0.999242
v -0.702469 -1.52448 0.0813946
vn 0.110452 0.0304157 0.993416
v -0.712212 -1.51961 0.0817718
vn 0.0249409 0.0494341 0.998466
v -1.0875 -1.85763 0.0649137
vn -0.0444173 -0.0440537 0.998041
v -1.0757 -1.84743 0.0657566
vn -0.0129665 -0.0388495 0.999161
v -1.09516 -1.70209 0.0708701
vn -0.043793 -0.039545 0.998258
v -1.09641 -1.86428 0.0271643
vn -0.81542 -0.372678 -0.442946
v -1.09757 -1.86569 0.0412778
vn -0.907867 -0.418434 -0.0262833
v -1.10022 -1.8543 0.0286109
vn -0.995529 -0.0609678 -0.0721518
v -0.93899 -1.69397 0.0332399
vn 0.0113265 0.0381884 -0.999206
v -1.07525 -1.84591 0.0259884
vn 0.00924401 0.0375066 -0.999254
v -1.08777 -1.55412 0.0369987
vn 0.00919312 0.0386913 -0.999209
v -0.698864 -1.52032 0.0448167
vn 0.824913 0.404695 -0.394639
v -0.702039 -1.52303 0.0434948
vn 0.132885 0.106045 -0.985442
v -0.705555 -1.51527 0.0443559
vn 0.161866 0.300436 -0.939967
v -0.69528 -1.841 0.0699952
vn 0.0221586 -0.0412322 0.998904
v -0.697981 -1.85145 0.0692506
vn 0.0322973 -0.122084 0.991994
v -0.688691 -1.84576 0.0692718
vn 0.11585 -0.0954982 0.988665
v -1.0776 -1.87292 0.0635209
vn -0.00764483 -0.345648 0.938333
v -1.06583 -1.87518 0.0624051
vn 0.0367983 -0.99519 0.0907842
v -0.890668 -1.86586 0.0660034
vn 0.00280441 -0.352155 0.935938
v -1.07717 -1.8715 0.026229
vn 0.0116918 -0.271597 -0.96234
v -0.929044 -1.86608 0.0280213
vn 0.0242931 -0.279697 -0.959781
v -1.06543 -1.87384 0.0274355
vn 0.0397648 -0.97656 -0.211542
v -0.694836 -1.8395 0.0308651
vn 0.0448015 0.0351027 -0.998379
v -0.688261 -1.84431 0.0313722
vn 0.138286 -0.019867 -0.990193
v -0.697544 -1.84998 0.0307483
vn 0.054846 -0.0460523 -0.997432
v -0.687615 -1.68393 0.0528125
vn 0.999019 0.0423552 0.0129433
v -0.682332 -1.83784 0.0673561
vn 0.997826 0.0193205 0.0630023
v -0.681954 -1.83657 0.0340299
vn 0.998649 0.0235787 -0.0463165
v -0.720425 -1.54004 0.0815319
vn -0.00968664 -0.0375272 0.999249
v -0.700967 -1.68537 0.0759771
vn 0.0211492 -0.0367917 0.999099
v -1.09364 -1.86293 0.0640255
vn -0.132885 -0.106045 0.985442
v -1.0839 -1.86782 0.0642507
vn -0.0474927 -0.125469 0.99096
v -1.09321 -1.86148 0.0261257
vn -0.110452 -0.0304157 -0.993416
v -1.08971 -1.86929 0.0264712
vn -0.140281 -0.227672 -0.96358
v -0.719974 -1.53852 0.0417637
vn 0.0126777 0.0388362 -0.999165
v -0.707461 -1.83032 0.0307534
vn 0.0127282 0.0376573 -0.99921
v -0.698025 -1.51999 0.059019
vn 0.907868 0.418432 0.0262827
v -0.695085 -1.53038 0.045583
vn 0.996854 0.0654354 -0.0447357
v -1.11082 -1.53912 0.075024
vn -0.895516 0.318389 0.310933
v -1.10458 -1.53357 0.0758848
vn -0.183923 0.213931 0.959378
v -1.09229 -1.53031 0.0764486
vn -0.0341381 0.272146 0.96165
v -1.08076 -1.52698 0.0755437
vn -0.048125 0.985034 0.165506
v -0.905302 -1.51786 0.0566918
vn -0.0428159 0.998373 0.0376711
v -1.08036 -1.52564 0.0405741
vn -0.0445518 0.989519 -0.13736
v -1.09187 -1.52888 0.0391567
vn -0.0146736 0.343211 -0.939144
v -1.10417 -1.53217 0.0391914
vn -0.162342 0.286679 -0.944172
v -1.11041 -1.53776 0.0394847
vn -0.84572 0.333863 -0.416285
v -1.11165 -1.53753 0.0536602
vn -0.940396 0.340074 0.00233762
v -0.705971 -1.51667 0.0810491
vn 0.140281 0.227672 0.96358
v -1.08822 -1.55564 0.0767668
vn -0.0130171 -0.0376684 0.999206
v -1.10059 -1.85557 0.0619372
vn -0.997176 -0.0652609 0.0371533
v -1.09471 -1.70058 0.0315431
vn -0.0211492 0.0367917 -0.999099
v -0.711775 -1.51814 0.0432695
vn 0.0474927 0.125469 -0.99096
v -0.685264 -1.84819 0.0680356
vn 0.888522 -0.341967 0.305922
v -0.691513 -1.85379 0.0683288
vn 0.162342 -0.286679 0.944171
v -0.703811 -1.85707 0.0683636
vn 0.0125983 -0.344776 0.9386
v -0.715317 -1.86032 0.0669462
vn 0.0452184 -0.994833 0.0908935
v -0.890294 -1.86781 0.0434871
vn 0.0428159 -0.998373 -0.0376711
v -0.71492 -1.85898 0.0319766
vn 0.0485132 -0.971072 -0.233807
v -0.703388 -1.85565 0.0310717
vn 0.0326735 -0.273268 -0.961383
v -0.691097 -1.85239 0.0316355
vn 0.183923 -0.213932 -0.959378
v -0.684861 -1.84683 0.0324962
vn 0.855214 -0.301853 -0.421301
v -0.683951 -1.84815 0.0466365
vn 0.940395 -0.340076 -0.00233739
v -0.707911 -1.83184 0.0705216
vn -0.00963593 -0.0387083 0.999204
v -1.09012 -1.87069 0.0631644
vn -0.161866 -0.300436 0.939967
v -1.08347 -1.86634 0.0257484
vn -0.024941 -0.049434 -0.998466
v -0.700521 -1.68387 0.0366502
vn 0.043793 0.039545 -0.998258
v -0.695463 -1.53166 0.0789093
vn 0.996023 0.0613727 0.0645889
v -0.699267 -1.52167 0.080356
vn 0.857019 0.392687 0.33364
v -0.898066 -1.69374 0.0737442
vn -0.0113265 -0.0381884 0.999206
v -1.09681 -1.86564 0.0627036
vn -0.864007 -0.416269 0.283218
v -1.08705 -1.85613 0.0257836
vn -0.0217755 0.0322791 -0.999242
v -0.708181 -1.52833 0.0426066
vn 0.0444172 0.0440537 -0.998041
f 1//1 2//2 3//3
f 1//1 3//3 4//4
f 1//1 4//4 5//5
f 1//1 5//5 6//6
f 1//1 6//6 2//2
f 7//7 8//8 9//9
f 10//10 11//11 12//12
f 13//13 14//14 15//15
f 16//16 17//17 18//18
f 19//19 20//20 21//21
f 22//22 23//23 24//24
f 22//22 24//24 25//25
f 22//22 25//25 26//26
f 22//22 26//26 27//27
f 22//22 27//27 23//23
f 28//28 29//29 30//30
f 31//31 32//32 33//33
f 34//34 35//35 36//36
f 37//37 38//38 39//39
f 40//40 41//41 42//42
f 13//13 43//43 44//44
f 10//10 45//45 46//46
f 7//7 47//47 48//48
f 19//19 49//49 50//50
f 16//16 51//51 52//52
f 10//10 53//53 45//45
f 13//13 54//54 43//43
f 16//16 55//55 51//51
f 19//19 56//56 49//49
f 7//7 57//57 47//47
f 40//40 58//58 59//59
f 28//28 60//60 61//61
f 31//31 62//62 63//63
f 34//34 64//64 65//65
f 37//37 66//66 67//67
f 40//40 68//68 58//58
f 28//28 69//69 60//60
f 31//31 70//70 62//62
f 34//34 71//71 64//64
f 37//37 72//72 66//66
f 10//10 46//46 11//11
f 7//7 48//48 8//8
f 19//19 50//50 20//20
f 16//16 52//52 17//17
f 13//13 44//44 14//14
f 40//40 42//42 68//68
f 28//28 30//30 69//69
f 31//31 33//33 70//70
f 34//34 36//36 71//71
f 37//37 39//39 72//72
f 28//28 61//61 29//29
f 31//31 63//63 32//32
f 34//34 65//65 35//35
f 37//37 67//67 38//38
f 40//40 59//59 41//41
f 10//10 12//12 53//53
f 13//13 15//15 54//54
f 16//16 18//18 55//55
f 19//19 21//21 56//56
f 7//7 9//9 57//57
f 73//73 74//74 75//75
f 76//76 77//77 78//78
f 79//79 80//80 81//81
f 82//82 83//83 84//84
f 85//85 86//86 87//87
f 88//88 89//89 90//90
f 91//91 92//92 93//93
f 94//94 95//95 96//96
f 97//97 98//98 99//99
f 100//100 101//101 102//102
f 103//103 104//104 105//105
f 106//106 107//107 108//108
f 109//109 110//110 111//111
f 112//112 113//113 114//114
f 115//115 116//116 117//117
f 88//88 118//118 119//119
f 91//91 120//120 121//121
f 94//94 122//122 123//123
f 97//97 124//124 125//125
f 100//100 126//126 127//127
f 128//128 129//129 2//2
f 130//130 131//131 3//3
f 132//132 133//133 4//4
f 134//134 135//135 5//5
f 136//136 137//137 6//6
f 76//76 138//138 8//8
f 73//73 139//139 11//11
f 85//85 140//140 14//14
f 82//82 141//141 17//17
f 79//79 142//142 20//20
f 143//143 144//144 23//23
f 145//145 146//146 24//24
f 147//147 148//148 25//25
f 149//149 150//150 26//26
f 151//151 152//152 27//27
f 103//103 153//153 29//29
f 106//106 154//154 32//32
f 109//109 155//155 35//35
f 112//112 156//156 38//38
f 115//115 157//157 41//41
f 73//73 75//75 43//43
f 76//76 78//78 45//45
f 79//79 81//81 47//47
f 82//82 84//84 49//49
f 85//85 87//87 51//51
f 88//88 90//90 53//53
f 91//91 93//93 54//54
f 94//94 96//96 55//55
f 97//97 99//99 56//56
f 100//100 102//102 57//57
f 103//103 105//105 58//58
f 106//106 108//108 60//60
f 109//109 111//111 62//62
f 112//112 114//114 64//64
f 115//115 117//117 66//66
f 88//88 119//119 68//68
f 91//91 121//121 69//69
f 94//94 123//123 70//70
f 97//97 125//125 71//71
f 100//100 127//127 72//72
f 130//130 74//74 46//46
f 132//132 77//77 48//48
f 134//134 80//80 50//50
f 136//136 83//83 52//52
f 128//128 86//86 44//44
f 158//158 89//89 42//42
f 159//159 92//92 30//30
f 160//160 95//95 33//33
f 161//161 98//98 36//36
f 162//162 101//101 39//39
f 145//145 104//104 61//61
f 147//147 107//107 63//63
f 149//149 110//110 65//65
f 151//151 113//113 67//67
f 143//143 116//116 59//59
f 159//159 118//118 12//12
f 160//160 120//120 15//15
f 161//161 122//122 18//18
f 162//162 124//124 21//21
f 158//158 126//126 9//9
f 130//130 129//129 74//74
f 132//132 131//131 77//77
f 134//134 133//133 80//80
f 136//136 135//135 83//83
f 128//128 137//137 86//86
f 158//158 138//138 89//89
f 159//159 139//139 92//92
f 160//160 140//140 95//95
f 161//161 141//141 98//98
f 162//162 142//142 101//101
f 145//145 144//144 104//104
f 147//147 146//146 107//107
f 149//149 148//148 110//110
f 151//151 150//150 113//113
f 143//143 152//152 116//116
f 159//159 153//153 118//118
f 160//160 154//154 120//120
f 161//161 155//155 122//122
f 162//162 156//156 124//124
f 158//158 157//157 126//126
f 130//130 3//3 129//129
f 132//132 4//4 131//131
f 134//134 5//5 133//133
f 136//136 6//6 135//135
f 128//128 2//2 137//137
f 158//158 9//9 138//138
f 159//159 12//12 139//139
f 160//160 15//15 140//140
f 161//161 18//18 141//141
f 162//162 21//21 142//142
f 145//145 24//24 144//144
f 147//147 25//25 146//146
f 149//149 26//26 148//148
f 151//151 27//27 150//150
f 143//143 23//23 152//152
f 159//159 30//30 153//153
f 160//160 33//33 154//154
f 161//161 36//36 155//155
f 162//162 39//39 156//156
f 158//158 42//42 157//157
f 128//128 44//44 75//75
f 130//130 46//46 78//78
f 132//132 48//48 81//81
f 134//134 50//50 84//84
f 136//136 52//52 87//87
f 76//76 45//45 90//90
f 73//73 43//43 93//93
f 85//85 51//51 96//96
f 82//82 49//49 99//99
f 79//79 47//47 102//102
f 143//143 59//59 105//105
f 145//145 61//61 108//108
f 147//147 63//63 111//111
f 149//149 65//65 114//114
f 151//151 67//67 117//117
f 103//103 58//58 119//119
f 106//106 60//60 121//121
f 109//109 62//62 123//123
f 112//112 64//64 125//125
f 115//115 66//66 127//127
f 73//73 11//11 74//74
f 76//76 8//8 77//77
f 79//79 20//20 80//80
f 82//82 17//17 83//83
f 85//85 14//14 86//86
f 88//88 68//68 89//89
f 91//91 69//69 92//92
f 94//94 70//70 95//95
f 97//97 71//71 98//98
f 100//100 72//72 101//101
f 103//103 29//29 104//104
f 106//106 32//32 107//107
f 109//109 35//35 110//110
f 112//112 38//38 113//113
f 115//115 41//41 116//116
f 88//88 53//53 118//118
f 91//91 54//54 120//120
f 94//94 55//55 122//122
f 97//97 56//56 124//124
f 100//100 57//57 126//126
f 128//128 75//75 129//129
f 130//130 78//78 131//131
f 132//132 81//81 133//133
f 134//134 84//84 135//135
f 136//136 87//87 137//137
f 76//76 90//90 138//138
f 73//73 93//93 139//139
f 85//85 96//96 140//140
f 82//82 99//99 141//141
f 79//79 102//102 142//142
f 143//143 105//105 144//144
f 145//145 108//108 146//146
f 147//147 111//111 148//148
f 149//149 114//114 150//150
f 151//151 117//117 152//152
f 103//103 119//119 153//153
f 106//106 121//121 154//154
f 109//109 123//123 155//155
f 112//112 125//125 156//156
f 115//115 127//127 157//157
f 129//129 3//3 2//2
f 131//131 4//4 3//3
f 133//133 5//5 4//4
f 135//135 6//6 5//5
f 137//137 2//2 6//6
f 138//138 9//9 8//8
f 139//139 12//12 11//11
f 140//140 15//15 14//14
f 141//141 18//18 17//17
f 142//142 21//21 20//20
f 144//144 24//24 23//23
f 146//146 25//25 24//24
f 148//148 26//26 25//25
f 150//150 27//27 26//26
f 152//152 23//23 27//27
f 153//153 30//30 29//29
f 154//154 33//33 32//32
f 155//155 36//36 35//35
f 156//156 39//39 38//38
f 157//157 42//42 41//41
f 75//75 44//44 43//43
f 78//78 46//46 45//45
f 81//81 48//48 47//47
f 84//84 50//50 49//49
f 87//87 52//52 51//51
f 90//90 45//45 53//53
f 93//93 43//43 54//54
f 96//96 51//51 55//55
f 99//99 49//49 56//56
f 102//102 47//47 57//57
f 105//105 59//59 58//58
f 108//108 61//61 60//60
f 111//111 63//63 62//62
f 114//114 65//65 64//64
f 117//117 67//67 66//66
f 119//119 58//58 68//68
f 121//121 60//60 69//69
f 123//123 62//62 70//70
f 125//125 64//64 71//71
f 127//127 66//66 72//72
f 74//74 11//11 46//46
f 77//77 8//8 48//48
f 80//80 20//20 50//50
f 83//83 17//17 52//52
f 86//86 14//14 44//44
f 89//89 68//68 42//42
f 92//92 69//69 30//30
f 95//95 70//70 33//33
f 98//98 71//71 36//36
f 101//101 72//72 39//39
f 104//104 29//29 61//61
f 107//107 32//32 63//63
f 110//110 35//35 65//65
f 113//113 38//38 67//67
f 116//116 41//41 59//59
f 118//118 53//53 12//12
f 120//120 54//54 15//15
f 122//122 55//55 18//18
f 124//124 56//56 21//21
f 126//126 57//57 9//9
f 129//129 75//75 74//74
f 131//131 78//78 77//77
f 133//133 81//81 80//80
f 135//135 84//84 83//83
f 137//137 87//87 86//86
f 138//138 90//90 89//89
f 139//139 93//93 92//92
f 140//140 96//96 95//95
f 141//141 99//99 98//98
f 142//142 102//102 101//101
f 144//144 105//105 104//104
f 146//146 108//108 107//107
f 148//148 111//111 110//110
f 150//150 114//114 113//113
f 152//152 117//117 116//116
f 153//153 119//119 118//118
f 154//154 121//121 120//120
f 155//155 123//123 122//122
f 156//156 125//125 124//124
f 157//157 127//127 126//126
