# Created by Open3D 
# object name: part_000
# number of vertices: 162
# number of triangles: 320
v 5.62558 -0.339218 0.531756
vn 0.70307 -0.710049 0.0390273
v 5.69574 -0.232318 0.556716
vn 0.489133 -0.271928 0.828737
v 5.55888 -0.380312 0.548451
vn 0.190261 -0.317811 0.928869
v 5.41917 -0.496803 0.518609
vn 0.496569 -0.867618 0.0256579
v 5.561 -0.38013 0.513558
vn 0.236903 -0.222482 -0.945716
v 5.69776 -0.232145 0.523464
vn 0.537349 -0.235507 -0.80981
v -1.47778 -4.24599 0.0796978
vn 0.220827 -0.975277 0.00834685
v -1.4094 -4.21279 0.104989
vn 0.0760933 -0.3806 0.921604
v -1.60744 -4.24899 0.0919412
vn -0.111411 -0.602223 0.790515
v 2.00198 -2.16409 0.325192
vn -0.0594773 -0.00736097 0.998203
v 5.28489 -0.293954 0.534481
vn -0.0599051 -0.00641441 0.998183
v 1.91138 -1.99885 0.320791
vn -0.0605861 -0.00533867 0.998149
v 4.29874 2.49436 0.48812
vn -0.0503254 0.000483037 0.998733
v 4.34491 2.51972 0.489868
vn 0.126361 0.0970193 0.987229
v 2.97115 4.92854 0.41976
vn -0.0430648 0.00502218 0.99906
v 4.30101 2.49456 0.450681
vn 0.0709901 0.0108823 -0.997418
v 5.50038 0.138535 0.51077
vn 0.0649423 0.0074715 -0.997861
v 2.95997 4.77263 0.380519
vn 0.0648725 0.00759902 -0.997865
v 2.73804 -1.76037 0.332598
vn 0.0618466 0.00303907 -0.998081
v -1.10998 -3.97224 0.0875869
vn 0.0634832 -4.52501e-05 -0.997983
v -1.33293 -3.9348 0.0738294
vn 0.0612875 0.00392155 -0.998112
v -4.47904 1.22875 -0.0741816
vn -0.70307 0.710049 -0.0390273
v -4.55163 1.12165 -0.0590119
vn -0.586065 0.263619 0.766181
v -4.41487 1.26963 -0.0491064
vn -0.301547 0.308271 0.902241
v -4.27265 1.38634 -0.0605987
vn -0.496569 0.867618 -0.0256577
v -4.41275 1.26981 -0.0839991
vn -0.120774 0.232436 -0.965084
v -4.54961 1.12182 -0.0922649
vn -0.435473 0.244239 -0.866436
v -0.858243 3.05338 0.178544
vn -0.0618465 -0.00303912 0.998081
v -4.14116 1.18325 -0.0306895
vn -0.061419 -0.00398574 0.998104
v -0.767674 2.88815 0.183432
vn -0.0607381 -0.00506146 0.998141
v 2.62432 5.13553 0.377877
vn -0.220827 0.975277 -0.00834686
v 2.55341 5.10211 0.394356
vn -0.18738 0.371063 0.909506
v 2.75155 5.13832 0.405763
vn 0.0144807 0.593913 0.804399
v -0.122186 3.4571 0.18595
vn 0.0594772 0.00736117 -0.998203
v 2.25845 4.86194 0.338327
vn 0.0578038 0.010527 -0.998272
v 2.48145 4.82451 0.351282
vn 0.0600586 0.00651144 -0.998174
v -3.15261 -1.60486 -0.0236688
vn 0.0503255 -0.000483023 -0.998733
v -4.35192 0.751166 -0.0848106
vn 0.0563808 0.00292867 -0.998405
v -1.8115 -3.88293 0.0454404
vn 0.0564506 0.00280112 -0.998401
v -3.15489 -1.60506 0.0137704
vn -0.0709901 -0.0108823 0.997418
v -3.20091 -1.6304 0.0096513
vn -0.244922 -0.107183 0.9636
v -1.82725 -4.03923 0.0814187
vn -0.0782344 -0.0154202 0.996816
v 5.49804 0.138334 0.549262
vn -0.0563803 -0.00292842 0.998405
v 5.63683 0.0659377 0.556434
vn -0.0426014 0.00417751 0.999083
v -1.11232 -3.97244 0.126125
vn -0.057823 -0.0104823 0.998272
v 5.19679 -0.502497 0.527638
vn -0.0577342 -0.0104336 0.998277
v -1.40728 -4.21261 0.070096
vn 0.153699 -0.268243 -0.951011
v -1.23427 -4.15612 0.0951839
vn 0.464391 -0.885315 0.0236069
v 5.28728 -0.293749 0.495141
vn 0.0614428 0.00398637 -0.998103
v 5.19913 -0.502296 0.4891
vn 0.0636151 -7.37108e-05 -0.997975
v 4.34704 2.5199 0.4548
vn 0.190666 0.0770167 -0.978629
v 5.63906 0.066129 0.519707
vn 0.0786977 0.0145755 -0.996792
v -1.33533 -3.93501 0.11317
vn -0.0600453 -0.00649145 0.998175
v 2.95763 4.77243 0.419011
vn -0.0564501 -0.00280088 0.998401
v 2.97338 4.92873 0.383033
vn 0.0782348 0.0154205 -0.996816
v 2.65654 -1.59014 0.328288
vn 0.0607381 0.00506147 -0.998141
v -1.60542 -4.24882 0.0586883
vn -0.00804087 -0.535467 -0.844518
v -4.35426 0.750966 -0.0463182
vn -0.0649426 -0.00747166 0.997861
v -4.49293 0.823371 -0.055255
vn -0.0786973 -0.0145753 0.996792
v 2.25611 4.86174 0.376865
vn -0.0634993 8.28485e-05 0.997982
v -4.05301 1.3918 -0.0246482
vn -0.0635879 3.3829e-05 0.997976
v 2.55553 5.10229 0.359463
vn -0.0375697 0.278196 -0.959789
v 2.38078 5.04566 0.362827
vn -0.464391 0.885315 -0.0236064
v -4.13877 1.18345 -0.0700299
vn 0.0599207 0.00641482 -0.998183
v -4.05066 1.392 -0.0631864
vn 0.0577572 0.0103999 -0.998276
v -3.19878 -1.63022 -0.0254165
vn -0.0707026 -0.0667332 -0.995263
v -4.4907 0.823563 -0.0919822
vn 0.042601 -0.00417773 -0.999083
v -1.81384 -3.88313 0.0839328
vn -0.0648728 -0.00759917 0.997865
v 2.47906 4.8243 0.390622
vn -0.0612789 -0.00390846 0.998113
v 2.75357 5.13849 0.37251
vn 0.109914 0.544199 -0.831725
v -0.0225139 3.29685 0.190929
vn 0.0605861 0.00533866 -0.998149
v -1.82502 -4.03904 0.0446915
vn 0.0430644 -0.00502241 -0.99906
v 5.46192 -0.0854483 0.5462
vn -0.0591257 -0.00463775 0.99824
v 5.49529 -0.280932 0.546895
vn -0.0566659 -0.00843935 0.998358
v 5.6207 -0.102677 0.555143
vn -0.0536257 -0.00534338 0.998547
v -1.30283 -4.13131 0.113074
vn -0.0524722 -0.0211962 0.998397
v -1.06868 -4.06037 0.12651
vn 0.131592 -0.349647 0.927594
v 2.07255 -2.29271 0.327885
vn -0.0518009 -0.0213445 0.998429
v -1.30057 -4.13111 0.0758219
vn 0.0689324 -0.0108208 -0.997563
v 2.77403 -1.90796 0.334943
vn 0.0695029 -0.0109466 -0.997522
v -1.06656 -4.06018 0.0915772
vn 0.184897 -0.22769 -0.956018
v 5.4643 -0.0852446 0.507112
vn 0.0621984 0.00576246 -0.998047
v 5.623 -0.10248 0.517284
vn 0.0676954 0.00505679 -0.997693
v 5.49763 -0.280732 0.508434
vn 0.0646566 0.00196075 -0.997906
v 4.36086 2.5279 0.469601
vn 0.874861 0.481164 0.0556771
v 5.67502 0.0832951 0.557121
vn 0.567528 0.313655 0.76127
v 5.67705 0.0834685 0.52383
vn 0.612387 0.297749 -0.732344
v -1.60597 -3.97272 0.0963987
vn -0.0619602 -0.00619664 0.998059
v -1.67661 -4.11612 0.0907417
vn -0.0643153 -0.0112222 0.997867
v -1.45917 -4.10581 0.104312
vn -0.0600765 -0.0103151 0.99814
v 2.74972 4.86201 0.407141
vn -0.0593636 -0.00420329 0.998228
v 2.61408 4.58693 0.397785
vn -0.0606069 -0.00513246 0.998149
v 4.12359 2.39806 0.4779
vn -0.0592795 -0.00443972 0.998232
v 2.85932 5.08 0.377504
vn 0.122366 0.0921875 -0.988194
v 2.86995 5.10324 0.392467
vn 0.589556 0.806734 0.0400378
v 3.00833 4.9516 0.387001
vn 0.597746 0.324458 -0.733094
v 1.31991 0.854943 0.259715
vn 0.0606621 0.00520007 -0.998145
v 2.61649 4.58714 0.358059
vn 0.0607361 0.00527812 -0.99814
v 5.1598 -0.0522323 0.488458
vn 0.0607675 0.00522068 -0.998138
v -1.71103 -4.19031 0.051446
vn -0.0017376 -0.0818475 -0.996643
v -1.67431 -4.11593 0.0528823
vn 0.0570059 -0.000822618 -0.998374
v -1.54821 -4.21044 0.060658
vn 0.0605882 -0.0118741 -0.998092
v -4.31817 0.974745 -0.0426602
vn -0.0621985 -0.00576246 0.998047
v -4.3515 1.17023 -0.043982
vn -0.0646566 -0.00196074 0.997906
v -4.47688 0.99198 -0.0528324
vn -0.0676954 -0.0050568 0.997693
v 2.44669 5.02061 0.38863
vn -0.0688333 0.0107995 0.99757
v 2.21269 4.94968 0.372874
vn -0.243176 0.340085 0.908409
v -0.928699 3.18201 0.174006
vn -0.0695032 0.0109471 0.997522
v 2.44896 5.02081 0.351378
vn 0.0526136 0.0211657 -0.998391
v -0.227224 3.56676 0.181064
vn 0.0518008 0.0213448 -0.998429
v 2.21481 4.94987 0.337942
vn -0.084013 0.26628 -0.960227
v -4.3158 0.974948 -0.0817486
vn 0.0591257 0.00463772 -0.99824
v -4.47457 0.992177 -0.0906918
vn 0.0536258 0.00534339 -0.998547
v -4.34916 1.17043 -0.0824434
vn 0.0566659 0.0084393 -0.998358
v -3.21429 -1.63836 -0.0124827
vn -0.874861 -0.481164 -0.0556767
v -4.53092 0.806032 -0.0593785
vn -0.655343 -0.321183 0.683643
v -4.5289 0.806205 -0.0926694
vn -0.519005 -0.289744 -0.804166
v -1.47037 -3.69764 0.106393
vn -0.0607173 -0.00526768 0.998141
v -2.97985 -1.50876 0.0258363
vn -0.0620445 -0.00596039 0.998056
v 2.82043 5.00543 0.411569
vn -0.0570058 0.000822734 0.998374
v 2.60296 4.99511 0.398601
vn -0.0612458 -8.44858e-05 0.998123
v 2.82273 5.00562 0.37371
vn 0.0643153 0.0112222 -0.997867
v 2.69657 5.10013 0.367139
vn 0.0607181 0.0222718 -0.997906
v -1.46795 -3.69743 0.0666669
vn 0.0606192 0.00513928 -0.998148
v -4.01126 0.941939 -0.0637323
vn 0.0605879 0.00519642 -0.998149
v -1.72339 -4.2137 0.064769
vn -0.589556 -0.806734 -0.0400376
v -1.86018 -4.06193 0.0441598
vn -0.504366 -0.316453 -0.803413
v 5.7031 -0.111611 0.558921
vn 0.0907261 0.00349906 0.99587
v 5.63266 -0.259994 0.554446
vn -0.0462357 -0.0143071 0.998828
v 5.43292 -0.426711 0.541738
vn -0.0515654 -0.0206997 0.998455
v 5.24761 -0.586468 0.52848
vn 0.134161 -0.348235 0.927757
v 2.09838 -2.33723 0.306753
vn 0.480561 -0.876615 0.024636
v 5.24974 -0.586286 0.493547
vn 0.201881 -0.255233 -0.945569
v 5.43518 -0.426517 0.504486
vn 0.0697888 -0.0101645 -0.99751
v 5.63489 -0.259803 0.517792
vn 0.0750708 -0.00390836 -0.997171
v 5.70526 -0.111426 0.52342
vn 0.166921 0.0109131 -0.98591
v 5.73021 -0.114298 0.539117
vn 0.996007 0.0653083 0.0608678
v -1.55044 -4.21063 0.0973123
vn -0.0607182 -0.0222718 0.997906
v 5.15739 -0.0524392 0.528184
vn -0.0605755 -0.00518973 0.99815
v 3.00631 4.95143 0.420292
vn 0.551639 0.342645 0.760453
v 4.12598 2.39826 0.438615
vn 0.0620445 0.00596042 -0.998056
v -1.45683 -4.10561 0.065851
vn 0.0612458 8.43368e-05 -0.998123
v -4.55913 1.00093 -0.0589682
vn -0.210656 -0.0137798 0.977463
v -4.48876 1.1493 -0.0533399
vn -0.0750709 0.00390839 0.997171
v -4.28906 1.31602 -0.0400344
vn -0.0697391 0.0103012 0.997512
v -4.10361 1.47579 -0.0290956
vn -0.245745 0.338672 0.908246
v -0.951811 3.22677 0.150365
vn -0.480561 0.876615 -0.0246356
v -4.10149 1.47597 -0.064028
vn -0.0696998 0.236733 -0.969072
v -4.28679 1.31621 -0.0772866
vn 0.0516004 0.0207954 -0.998451
v -4.48653 1.14949 -0.0899942
vn 0.0462358 0.0143071 -0.998828
v -4.55698 1.00111 -0.0944698
vn -0.0462919 -0.000572496 -0.998928
v -4.58364 1.00384 -0.0818809
vn -0.996007 -0.0653083 -0.0608677
v -4.01367 0.941732 -0.0240064
vn -0.0607487 -0.00521041 0.998139
v 2.69434 5.09994 0.403794
vn -0.0605881 0.0118741 0.998092
v 2.60529 4.99531 0.360139
vn 0.0600765 0.0103152 -0.99814
v -2.97746 -1.50856 -0.0134487
vn 0.0592796 0.00443974 -0.998232
v -1.8622 -4.0621 0.0774507
vn -0.639452 -0.350172 0.684456
v -1.71319 -4.1905 0.0869478
vn -0.148116 -0.127861 0.98067
v 0.57185 0.444646 0.252189
vn -0.0606621 -0.00520008 0.998145
v 2.85716 5.07981 0.413006
vn 0.0281868 0.117581 0.992663
v 2.75209 4.86222 0.368053
vn 0.0619603 0.00619672 -0.998059
v -1.60359 -3.97251 0.0573102
vn 0.0593637 0.00420338 -0.998228
f 1//1 2//2 3//3
f 1//1 3//3 4//4
f 1//1 4//4 5//5
f 1//1 5//5 6//6
f 1//1 6//6 2//2
f 7//7 8//8 9//9
f 10//10 11//11 12//12
f 13//13 14//14 15//15
f 16//16 17//17 18//18
f 19//19 20//20 21//21
f 22//22 23//23 24//24
f 22//22 24//24 25//25
f 22//22 25//25 26//26
f 22//22 26//26 27//27
f 22//22 27//27 23//23
f 28//28 29//29 30//30
f 31//31 32//32 33//33
f 34//34 35//35 36//36
f 37//37 38//38 39//39
f 40//40 41//41 42//42
f 13//13 43//43 44//44
f 10//10 45//45 46//46
f 7//7 47//47 48//48
f 19//19 49//49 50//50
f 16//16 51//51 52//52
f 10//10 53//53 45//45
f 13//13 54//54 43//43
f 16//16 55//55 51//51
f 19//19 56//56 49//49
f 7//7 57//57 47//47
f 40//40 58//58 59//59
f 28//28 60//60 61//61
f 31//31 62//62 63//63
f 34//34 64//64 65//65
f 37//37 66//66 67//67
f 40//40 68//68 58//58
f 28//28 69//69 60//60
f 31//31 70//70 62//62
f 34//34 71//71 64//64
f 37//37 72//72 66//66
f 10//10 46//46 11//11
f 7//7 48//48 8//8
f 19//19 50//50 20//20
f 16//16 52//52 17//17
f 13//13 44//44 14//14
f 40//40 42//42 68//68
f 28//28 30//30 69//69
f 31//31 33//33 70//70
f 34//34 36//36 71//71
f 37//37 39//39 72//72
f 28//28 61//61 29//29
f 31//31 63//63 32//32
f 34//34 65//65 35//35
f 37//37 67//67 38//38
f 40//40 59//59 41//41
f 10//10 12//12 53//53
f 13//13 15//15 54//54
f 16//16 18//18 55//55
f 19//19 21//21 56//56
f 7//7 9//9 57//57
f 73//73 74//74 75//75
f 76//76 77//77 78//78
f 79//79 80//80 81//81
f 82//82 83//83 84//84
f 85//85 86//86 87//87
f 88//88 89//89 90//90
f 91//91 92//92 93//93
f 94//94 95//95 96//96
f 97//97 98//98 99//99
f 100//100 101//101 102//102
f 103//103 104//104 105//105
f 106//106 107//107 108//108
f 109//109 110//110 111//111
f 112//112 113//113 114//114
f 115//115 116//116 117//117
f 88//88 118//118 119//119
f 91//91 120//120 121//121
f 94//94 122//122 123//123
f 97//97 124//124 125//125
f 100//100 126//126 127//127
f 128//128 129//129 2//2
f 130//130 131//131 3//3
f 132//132 133//133 4//4
f 134//134 135//135 5//5
f 136//136 137//137 6//6
f 76//76 138//138 8//8
f 73//73 139//139 11//11
f 85//85 140//140 14//14
f 82//82 141//141 17//17
f 79//79 142//142 20//20
f 143//143 144//144 23//23
f 145//145 146//146 24//24
f 147//147 148//148 25//25
f 149//149 150//150 26//26
f 151//151 152//152 27//27
f 103//103 153//153 29//29
f 106//106 154//154 32//32
f 109//109 155//155 35//35
f 112//112 156//156 38//38
f 115//115 157//157 41//41
f 73//73 75//75 43//43
f 76//76 78//78 45//45
f 79//79 81//81 47//47
f 82//82 84//84 49//49
f 85//85 87//87 51//51
f 88//88 90//90 53//53
f 91//91 93//93 54//54
f 94//94 96//96 55//55
f 97//97 99//99 56//56
f 100//100 102//102 57//57
f 103//103 105//105 58//58
f 106//106 108//108 60//60
f 109//109 111//111 62//62
f 112//112 114//114 64//64
f 115//115 117//117 66//66
f 88//88 119//119 68//68
f 91//91 121//121 69//69
f 94//94 123//123 70//70
f 97//97 125//125 71//71
f 100//100 127//127 72//72
f 130//130 74//74 46//46
f 132//132 77//77 48//48
f 134//134 80//80 50//50
f 136//136 83//83 52//52
f 128//128 86//86 44//44
f 158//158 89//89 42//42
f 159//159 92//92 30//30
f 160//160 95//95 33//33
f 161//161 98//98 36//36
f 162//162 101//101 39//39
f 145//145 104//104 61//61
f 147//147 107//107 63//63
f 149//149 110//110 65//65
f 151//151 113//113 67//67
f 143//143 116//116 59//59
f 159//159 118//118 12//12
f 160//160 120//120 15//15
f 161//161 122//122 18//18
f 162//162 124//124 21//21
f 158//158 126//126 9//9
f 130//130 129//129 74//74
f 132//132 131//131 77//77
f 134//134 133//133 80//80
f 136//136 135//135 83//83
f 128//128 137//137 86//86
f 158//158 138//138 89//89
f 159//159 139//139 92//92
f 160//160 140//140 95//95
f 161//161 141//141 98//98
f 162//162 142//142 101//101
f 145//145 144//144 104//104
f 147//147 146//146 107//107
f 149//149 148//148 110//110
f 151//151 150//150 113//113
f 143//143 152//152 116//116
f 159//159 153//153 118//118
f 160//160 154//154 120//120
f 161//161 155//155 122//122
f 162//162 156//156 124//124
f 158//158 157//157 126//126
f 130//130 3//3 129//129
f 132//132 4//4 131//131
f 134//134 5//5 133//133
f 136//136 6//6 135//135
f 128//128 2//2 137//137
f 158//158 9//9 138//138
f 159//159 12//12 139//139
f 160//160 15//15 140//140
f 161//161 18//18 141//141
f 162//162 21//21 142//142
f 145//145 24//24 144//144
f 147//147 25//25 146//146
f 149//149 26//26 148//148
f 151//151 27//27 150//150
f 143//143 23//23 152//152
f 159//159 30//30 153//153
f 160//160 33//33 154//154
f 161//161 36//36 155//155
f 162//162 39//39 156//156
f 158//158 42//42 157//157
f 128//128 44//44 75//75
f 130//130 46//46 78//78
f 132//132 48//48 81//81
f 134//134 50//50 84//84
f 136//136 52//52 87//87
f 76//76 45//45 90//90
f 73//73 43//43 93//93
f 85//85 51//51 96//96
f 82//82 49//49 99//99
f 79//79 47//47 102//102
f 143//143 59//59 105//105
f 145//145 61//61 108//108
f 147//147 63//63 111//111
f 149//149 65//65 114//114
f 151//151 67//67 117//117
f 103//103 58//58 119//119
f 106//106 60//60 121//121
f 109//109 62//62 123//123
f 112//112 64//64 125//125
f 115//115 66//66 127//127
f 73//73 11//11 74//74
f 76//76 8//8 77//77
f 79//79 20//20 80//80
f 82//82 17//17 83//83
f 85//85 14//14 86//86
f 88//88 68//68 89//89
f 91//91 69//69 92//92
f 94//94 70//70 95//95
f 97//97 71//71 98//98
f 100//100 72//72 101//101
f 103//103 29//29 104//104
f 106//106 32//32 107//107
f 109//109 35//35 110//110
f 112//112 38//38 113//113
f 115//115 41//41 116//116
f 88//88 53//53 118//118
f 91//91 54//54 120//120
f 94//94 55//55 122//122
f 97//97 56//56 124//124
f 100//100 57//57 126//126
f 128//128 75//75 129//129
f 130//130 78//78 131//131
f 132//132 81//81 133//133
f 134//134 84//84 135//135
f 136//136 87//87 137//137
f 76//76 90//90 138//138
f 73//73 93//93 139//139
f 85//85 96//96 140//140
f 82//82 99//99 141//141
f 79//79 102//102 142//142
f 143//143 105//105 144//144
f 145//145 108//108 146//146
f 147//147 111//111 148//148
f 149//149 114//114 150//150
f 151//151 117//117 152//152
f 103//103 119//119 153//153
f 106//106 121//121 154//154
f 109//109 123//123 155//155
f 112//112 125//125 156//156
f 115//115 127//127 157//157
f 129//129 3//3 2//2
f 131//131 4//4 3//3
f 133//133 5//5 4//4
f 135//135 6//6 5//5
f 137//137 2//2 6//6
f 138//138 9//9 8//8
f 139//139 12//12 11//11
f 140//140 15//15 14//14
f 141//141 18//18 17//17
f 142//142 21//21 20//20
f 144//144 24//24 23//23
f 146//146 25//25 24//24
f 148//148 26//26 25//25
f 150//150 27//27 26//26
f 152//152 23//23 27//27
f 153//153 30//30 29//29
f 154//154 33//33 32//32
f 155//155 36//36 35//35
f 156//156 39//39 38//38
f 157//157 42//42 41//41
f 75//75 44//44 43//43
f 78//78 46//46 45//45
f 81//81 48//48 47//47
f 84//84 50//50 49//49
f 87//87 52//52 51//51
f 90//90 45//45 53//53
f 93//93 43//43 54//54
f 96//96 51//51 55//55
f 99//99 49//49 56//56
f 102//102 47//47 57//57
f 105//105 59//59 58//58
f 108//108 61//61 60//60
f 111//111 63//63 62//62
f 114//114 65//65 64//64
f 117//117 67//67 66//66
f 119//119 58//58 68//68
f 121//121 60//60 69//69
f 123//123 62//62 70//70
f 125//125 64//64 71//71
f 127//127 66//66 72//72
f 74//74 11//11 46//46
f 77//77 8//8 48//48
f 80//80 20//20 50//50
f 83//83 17//17 52//52
f 86//86 14//14 44//44
f 89//89 68//68 42//42
f 92//92 69//69 30//30
f 95//95 70//70 33//33
f 98//98 71//71 36//36
f 101//101 72//72 39//39
f 104//104 29//29 61//61
f 107//107 32//32 63//63
f 110//110 35//35 65//65
f 113//113 38//38 67//67
f 116//116 41//41 59//59
f 118//118 53//53 12//12
f 120//120 54//54 15//15
f 122//122 55//55 18//18
f 124//124 56//56 21//21
f 126//126 57//57 9//9
f 129//129 75//75 74//74
f 131//131 78//78 77//77
f 133//133 81//81 80//80
f 135//135 84//84 83//83
f 137//137 87//87 86//86
f 138//138 90//90 89//89
f 139//139 93//93 92//92
f 140//140 96//96 95//95
f 141//141 99//99 98//98
f 142//142 102//102 101//101
f 144//144 105//105 104//104
f 146//146 108//108 107//107
f 148//148 111//111 110//110
f 150//150 114//114 113//113
f 152//152 117//117 116//116
f 153//153 119//119 118//118
f 154//154 121//121 120//120
f 155//155 123//123 122//122
f 156//156 125//125 124//124
f 157//157 127//127 126//126
