# Created by Open3D 
# object name: part_015
# number of vertices: 162
# number of triangles: 320
v -0.55356 0.930561 0.0188709
vn 0.90863 -0.417554 0.00625707
v -0.55179 0.937066 0.0383835
vn 0.996243 -0.0840369 0.0209206
v -0.554495 0.930418 0.0399568
vn 0.85086 -0.514387 0.106974
v -0.558585 0.922756 0.0200373
vn 0.758196 -0.651107 0.0346052
v -0.555806 0.927042 0.00518724
vn 0.839513 -0.532618 -0.107405
v -0.55304 0.93385 0.00524799
vn 0.992078 -0.0904369 -0.0871942
v -0.747657 0.714925 0.0471246
vn 0.51507 -0.854789 0.0635464
v -0.744901 0.718882 0.0676731
vn 0.616922 -0.774286 0.141025
v -0.751347 0.715364 0.067432
vn 0.198317 -0.970506 0.13707
v -0.653977 0.82876 0.0557897
vn 0.0847696 0.0540583 0.994933
v -0.565161 0.930707 0.0425711
vn 0.0664559 0.0735762 0.995073
v -0.659408 0.833646 0.055765
vn 0.0405603 0.0938291 0.994762
v -0.63807 1.01857 0.0358351
vn 0.243724 0.322889 0.914517
v -0.636855 1.01985 0.0344703
vn 0.663063 0.745594 0.0666124
v -0.717991 1.09023 0.0315348
vn 0.353137 0.456207 0.816804
v -0.639477 1.01495 -0.00147191
vn 0.172435 0.139452 -0.9751
v -0.565145 0.944565 0.0020257
vn 0.0534118 0.00218878 -0.99857
v -0.717723 1.08092 -0.00545504
vn 0.0506377 0.00466399 -0.998706
v -0.635406 0.847232 0.0137249
vn 0.00988212 -0.138648 -0.990292
v -0.73922 0.727075 0.029681
vn 0.0753283 -0.197606 -0.977383
v -0.747535 0.725933 0.0297014
vn -0.0113813 -0.12228 -0.99243
v -0.927914 0.876018 0.0382867
vn -0.908631 0.417554 -0.00625706
v -0.928175 0.873394 0.0587621
vn -0.992486 0.0937029 0.0786856
v -0.925409 0.880201 0.0588229
vn -0.844208 0.531505 0.0693894
v -0.922873 0.883864 0.0375543
vn -0.758197 0.651107 -0.0346052
v -0.926721 0.876826 0.0240533
vn -0.849022 0.508146 -0.144741
v -0.929425 0.870177 0.0256266
vn -0.996448 0.0791902 -0.0286496
v -0.825762 0.982283 0.0473671
vn -0.00988476 0.13865 0.990292
v -0.914575 0.880341 0.0606406
vn 0.00853153 0.119388 0.992811
v -0.820313 0.977445 0.0478759
vn 0.0344763 0.0992663 0.994463
v -0.733817 1.09165 0.0100331
vn -0.515066 0.854792 -0.0635478
v -0.735003 1.09174 0.0311065
vn -0.610269 0.791406 0.0353361
v -0.728618 1.0951 0.0297138
vn -0.194558 0.980175 -0.0374653
v -0.807191 1.00076 0.00530233
vn -0.0847665 -0.0540611 -0.994933
v -0.743444 1.07644 -0.004073
vn -0.150977 0.00843973 -0.988501
v -0.735159 1.07751 -0.00489285
vn -0.0633001 -0.0696505 -0.995561
v -0.843145 0.788676 0.028175
vn -0.243724 -0.322889 -0.914517
v -0.917517 0.858956 0.023628
vn -0.127778 -0.193551 -0.972734
v -0.76494 0.722598 0.0311087
vn -0.125005 -0.196027 -0.972598
v -0.841738 0.792298 0.065482
vn -0.172435 -0.139452 0.9751
v -0.843042 0.790784 0.0644838
vn -0.650824 -0.714096 0.257867
v -0.761844 0.720564 0.0690729
vn -0.287871 -0.288262 0.913255
v -0.563698 0.948288 0.0403821
vn 0.127778 0.193551 0.972734
v -0.55789 0.947151 0.0393845
vn 0.369257 0.441788 0.817601
v -0.737772 0.730802 0.0680831
vn 0.150176 -0.00752853 0.988631
v -0.565377 0.922327 0.0429886
vn 0.152037 -0.00546338 0.98836
v -0.746212 0.715507 0.0329036
vn 0.605929 -0.792125 -0.0734026
v -0.740388 0.720779 0.0465014
vn 0.731773 -0.680463 0.0384491
v -0.56664 0.926902 0.00336953
vn -0.00792644 -0.119138 -0.992846
v -0.566826 0.9186 0.00458651
vn 0.0788642 -0.196967 -0.977233
v -0.638173 1.01646 -0.000473735
vn 0.639147 0.697388 -0.324254
v -0.559271 0.943598 0.0027869
vn 0.304001 0.273854 -0.912462
v -0.746057 0.729738 0.068903
vn 0.0634841 0.0702775 0.995505
v -0.716276 1.08464 0.0329014
vn 0.125005 0.196027 0.972598
v -0.719372 1.08668 -0.0050628
vn 0.287871 0.288262 -0.913255
v -0.640608 0.852346 0.01318
vn -0.0344765 -0.0992661 -0.994463
v -0.752597 0.712148 0.0342964
vn 0.190194 -0.981302 0.0295321
v -0.916071 0.862679 0.0619844
vn -0.0534118 -0.00218878 0.99857
v -0.921945 0.863645 0.0612232
vn -0.304001 -0.273854 0.912462
v -0.741995 1.08017 0.0343291
vn -0.0760189 0.198348 0.977179
v -0.91439 0.888644 0.0594236
vn -0.077879 0.196282 0.97745
v -0.736315 1.08836 -0.00366301
vn -0.615437 0.767651 -0.178741
v -0.74107 1.08584 0.0110902
vn -0.731773 0.680463 -0.0384482
v -0.916054 0.876536 0.021439
vn -0.0660601 -0.0734141 -0.995111
v -0.915838 0.884916 0.0210215
vn -0.151213 0.00485176 -0.988489
v -0.84436 0.787392 0.0295398
vn -0.656495 -0.742032 -0.135658
v -0.923325 0.860093 0.0246256
vn -0.369257 -0.441788 -0.817601
v -0.763493 0.726322 0.0694652
vn -0.0506374 -0.00466365 0.998706
v -0.73368 1.08131 0.0343087
vn 0.0115008 0.122689 0.992378
v -0.729868 1.09188 -0.00342191
vn -0.194566 0.970057 -0.145375
v -0.801512 0.996145 0.00529088
vn -0.0405601 -0.0938293 -0.994762
v -0.763224 0.717012 0.0324753
vn -0.353137 -0.456207 -0.816804
v -0.561862 0.940003 0.0414174
vn 0.0722611 0.125546 0.989453
v -0.558014 0.933417 0.0415957
vn 0.163869 0.0543008 0.984986
v -0.556106 0.941062 0.0404785
vn 0.21453 0.159043 0.963682
v -0.742257 0.723042 0.068358
vn 0.338864 -0.202313 0.918826
v -0.735108 0.72799 0.0664396
vn 0.742792 -0.657434 0.126654
v -0.649776 0.824886 0.0550777
vn 0.353911 -0.198817 0.913903
v -0.743657 0.719439 0.0312372
vn 0.273096 -0.376836 -0.885106
v -0.632078 0.84249 0.0149892
vn 0.286143 -0.373194 -0.882524
v -0.736421 0.724611 0.0316306
vn 0.729836 -0.675925 -0.102294
v -0.563331 0.936222 0.00246683
vn -0.00270451 -0.0673576 -0.997725
v -0.557529 0.9374 0.0027526
vn 0.14085 -0.0305631 -0.989559
v -0.55946 0.929696 0.00327013
vn 0.0895003 -0.137076 -0.986509
v -0.637251 1.01825 0.0132861
vn 0.665861 0.739753 -0.0969259
v -0.556864 0.948014 0.0375314
vn 0.683176 0.727899 -0.0585921
v -0.558116 0.944793 0.004358
vn 0.679918 0.719991 -0.139014
v -0.754989 0.725444 0.0695299
vn 0.012222 0.0588451 0.998192
v -0.755502 0.719539 0.0695035
vn -0.00799094 -0.0881674 0.996074
v -0.748042 0.722301 0.0692571
vn 0.0922039 -0.0253127 0.995418
v -0.724757 1.08558 0.0334307
vn 0.062736 0.134051 0.988987
v -0.725686 1.0744 0.0348723
vn 0.0383928 0.0987794 0.994368
v -0.64282 1.01334 0.0374513
vn 0.0667655 0.128988 0.989396
v -0.725415 1.09085 -0.00462254
vn 0.276724 0.865934 -0.416632
v -0.724804 1.09317 0.0093752
vn 0.315334 0.943324 -0.103463
v -0.718399 1.08804 -0.0035006
vn 0.646989 0.749419 -0.140628
v -0.720984 0.924326 0.00914693
vn -0.0375186 -0.0965485 -0.994621
v -0.727179 1.07056 -0.00471337
vn -0.0362472 -0.0938725 -0.994924
v -0.574428 0.934043 0.00277597
vn -0.034987 -0.0949991 -0.994862
v -0.757135 0.712959 0.0332563
vn -0.300768 -0.927803 -0.220726
v -0.756925 0.715876 0.0317777
vn -0.0816704 -0.277772 -0.957169
v -0.751197 0.713963 0.0323542
vn 0.0877906 -0.477866 -0.874035
v -0.917885 0.871021 0.0615433
vn 0.00270451 0.0673576 0.997725
v -0.921756 0.877547 0.06074
vn -0.0895003 0.137076 0.986509
v -0.923687 0.869843 0.0612575
vn -0.14085 0.0305631 0.989559
v -0.737558 1.0878 0.0327729
vn -0.270806 0.377468 0.885541
v -0.744795 1.08263 0.0323795
vn -0.736011 0.674883 0.0531091
v -0.830032 0.985979 0.0462399
vn -0.286143 0.373194 0.882524
v -0.738958 1.0842 -0.00434784
vn -0.335661 0.203053 -0.919838
v -0.812334 1.00358 0.00615137
vn -0.353911 0.198817 -0.913903
v -0.746108 1.07925 -0.00242952
vn -0.741274 0.652008 -0.159371
v -0.919354 0.86724 0.0225927
vn -0.0722611 -0.125546 -0.989453
v -0.92511 0.866181 0.0235316
vn -0.21453 -0.159043 -0.963682
v -0.923202 0.873827 0.0224144
vn -0.163869 -0.0543008 -0.984986
v -0.84424 0.788288 0.0434163
vn -0.665861 -0.739753 0.0969259
v -0.9231 0.86245 0.0596521
vn -0.680352 -0.720632 0.133453
v -0.924351 0.85923 0.0264788
vn -0.683163 -0.728341 0.0529944
v -0.754036 0.736688 0.0687235
vn 0.0366443 0.0943174 0.994868
v -0.836919 0.797702 0.0657053
vn 0.00820202 0.0639253 0.997921
v -0.72429 1.09137 0.0322324
vn 0.0816708 0.277773 0.957169
v -0.731728 1.08866 0.0330786
vn -0.0178343 0.216686 0.976078
v -0.725713 1.0877 -0.00549342
vn 0.00799114 0.0881686 -0.996074
v -0.731397 1.08973 -0.00486903
vn -0.156243 0.301733 -0.940503
v -0.755529 0.732845 0.0291378
vn -0.0381331 -0.0984884 -0.994407
v -0.908281 0.869358 0.0216485
vn -0.0393874 -0.0973673 -0.994469
v -0.756683 0.713376 0.0474446
vn -0.315334 -0.943324 0.103464
v -0.764068 0.715986 0.0343373
vn -0.650234 -0.757769 0.0546079
v -0.553153 0.941528 0.0391343
vn 0.894182 0.418813 0.158221
v -0.553543 0.935566 0.0403084
vn 0.436344 0.00945502 0.89973
v -0.558205 0.927519 0.0415665
vn 0.356286 -0.182956 0.91629
v -0.562517 0.919733 0.0413166
vn 0.748142 -0.651489 0.125877
v -0.649148 0.821407 0.0328422
vn 0.745131 -0.665916 0.0365344
v -0.56383 0.916354 0.00650743
vn 0.73759 -0.669638 -0.0868632
v -0.559605 0.923915 0.00444577
vn 0.288645 -0.354885 -0.889236
v -0.554921 0.93202 0.00378347
vn 0.367901 -0.166685 -0.914803
v -0.554487 0.938094 0.00375796
vn 0.851466 0.352292 -0.388453
v -0.553016 0.939644 0.0177978
vn 0.906953 0.414599 -0.0744579
v -0.749819 0.717509 0.0688792
vn 0.156241 -0.301731 0.940504
v -0.572935 0.937886 0.0423616
vn 0.0396496 0.0976561 0.99443
v -0.717148 1.09126 0.0296728
vn 0.6501 0.757459 -0.060213
v -0.644296 1.00954 -0.00169519
vn -0.00820185 -0.0639251 -0.997921
v -0.749488 0.718581 0.0309315
vn 0.0178341 -0.216686 -0.976078
v -0.926728 0.869149 0.0602522
vn -0.876821 -0.374143 0.301997
v -0.926295 0.875223 0.0602266
vn -0.367901 0.166685 0.914803
v -0.92161 0.883328 0.0595643
vn -0.28821 0.358098 0.888088
v -0.917386 0.89089 0.0575027
vn -0.741361 0.668939 0.0538882
v -0.832343 0.985127 0.0238603
vn -0.745131 0.665916 -0.0365339
v -0.918699 0.887511 0.0226935
vn -0.745816 0.64285 -0.174647
v -0.923011 0.879725 0.0224436
vn -0.355935 0.185321 -0.915951
v -0.927672 0.871678 0.0237017
vn -0.436344 -0.00945502 -0.89973
v -0.928063 0.865715 0.0248758
vn -0.87551 -0.414158 -0.248909
v -0.928471 0.866901 0.0390219
vn -0.906953 -0.414599 0.0744579
v -0.906787 0.8732 0.0612341
vn 0.0353878 0.0954407 0.994806
v -0.730019 1.09328 0.0316559
vn -0.0877899 0.477867 0.874034
v -0.733173 1.08494 -0.00524703
vn -0.0922045 0.0253137 -0.995418
v -0.838396 0.793902 0.0265588
vn -0.0667655 -0.128988 -0.989396
v -0.762817 0.719206 0.0675107
vn -0.647276 -0.750193 0.135074
v -0.755801 0.716393 0.0686326
vn -0.290901 -0.897773 0.330725
v -0.739857 0.905553 0.0518975
vn 0.0375185 0.0965485 0.994621
v -0.72408 1.09428 0.0307538
vn 0.308261 0.942447 0.129491
v -0.726226 1.0818 -0.00551979
vn -0.0122217 -0.0588448 -0.998192
v -0.756459 0.721663 0.0305794
vn -0.0627361 -0.134051 -0.988987
f 1//1 2//2 3//3
f 1//1 3//3 4//4
f 1//1 4//4 5//5
f 1//1 5//5 6//6
f 1//1 6//6 2//2
f 7//7 8//8 9//9
f 10//10 11//11 12//12
f 13//13 14//14 15//15
f 16//16 17//17 18//18
f 19//19 20//20 21//21
f 22//22 23//23 24//24
f 22//22 24//24 25//25
f 22//22 25//25 26//26
f 22//22 26//26 27//27
f 22//22 27//27 23//23
f 28//28 29//29 30//30
f 31//31 32//32 33//33
f 34//34 35//35 36//36
f 37//37 38//38 39//39
f 40//40 41//41 42//42
f 13//13 43//43 44//44
f 10//10 45//45 46//46
f 7//7 47//47 48//48
f 19//19 49//49 50//50
f 16//16 51//51 52//52
f 10//10 53//53 45//45
f 13//13 54//54 43//43
f 16//16 55//55 51//51
f 19//19 56//56 49//49
f 7//7 57//57 47//47
f 40//40 58//58 59//59
f 28//28 60//60 61//61
f 31//31 62//62 63//63
f 34//34 64//64 65//65
f 37//37 66//66 67//67
f 40//40 68//68 58//58
f 28//28 69//69 60//60
f 31//31 70//70 62//62
f 34//34 71//71 64//64
f 37//37 72//72 66//66
f 10//10 46//46 11//11
f 7//7 48//48 8//8
f 19//19 50//50 20//20
f 16//16 52//52 17//17
f 13//13 44//44 14//14
f 40//40 42//42 68//68
f 28//28 30//30 69//69
f 31//31 33//33 70//70
f 34//34 36//36 71//71
f 37//37 39//39 72//72
f 28//28 61//61 29//29
f 31//31 63//63 32//32
f 34//34 65//65 35//35
f 37//37 67//67 38//38
f 40//40 59//59 41//41
f 10//10 12//12 53//53
f 13//13 15//15 54//54
f 16//16 18//18 55//55
f 19//19 21//21 56//56
f 7//7 9//9 57//57
f 73//73 74//74 75//75
f 76//76 77//77 78//78
f 79//79 80//80 81//81
f 82//82 83//83 84//84
f 85//85 86//86 87//87
f 88//88 89//89 90//90
f 91//91 92//92 93//93
f 94//94 95//95 96//96
f 97//97 98//98 99//99
f 100//100 101//101 102//102
f 103//103 104//104 105//105
f 106//106 107//107 108//108
f 109//109 110//110 111//111
f 112//112 113//113 114//114
f 115//115 116//116 117//117
f 88//88 118//118 119//119
f 91//91 120//120 121//121
f 94//94 122//122 123//123
f 97//97 124//124 125//125
f 100//100 126//126 127//127
f 128//128 129//129 2//2
f 130//130 131//131 3//3
f 132//132 133//133 4//4
f 134//134 135//135 5//5
f 136//136 137//137 6//6
f 76//76 138//138 8//8
f 73//73 139//139 11//11
f 85//85 140//140 14//14
f 82//82 141//141 17//17
f 79//79 142//142 20//20
f 143//143 144//144 23//23
f 145//145 146//146 24//24
f 147//147 148//148 25//25
f 149//149 150//150 26//26
f 151//151 152//152 27//27
f 103//103 153//153 29//29
f 106//106 154//154 32//32
f 109//109 155//155 35//35
f 112//112 156//156 38//38
f 115//115 157//157 41//41
f 73//73 75//75 43//43
f 76//76 78//78 45//45
f 79//79 81//81 47//47
f 82//82 84//84 49//49
f 85//85 87//87 51//51
f 88//88 90//90 53//53
f 91//91 93//93 54//54
f 94//94 96//96 55//55
f 97//97 99//99 56//56
f 100//100 102//102 57//57
f 103//103 105//105 58//58
f 106//106 108//108 60//60
f 109//109 111//111 62//62
f 112//112 114//114 64//64
f 115//115 117//117 66//66
f 88//88 119//119 68//68
f 91//91 121//121 69//69
f 94//94 123//123 70//70
f 97//97 125//125 71//71
f 100//100 127//127 72//72
f 130//130 74//74 46//46
f 132//132 77//77 48//48
f 134//134 80//80 50//50
f 136//136 83//83 52//52
f 128//128 86//86 44//44
f 158//158 89//89 42//42
f 159//159 92//92 30//30
f 160//160 95//95 33//33
f 161//161 98//98 36//36
f 162//162 101//101 39//39
f 145//145 104//104 61//61
f 147//147 107//107 63//63
f 149//149 110//110 65//65
f 151//151 113//113 67//67
f 143//143 116//116 59//59
f 159//159 118//118 12//12
f 160//160 120//120 15//15
f 161//161 122//122 18//18
f 162//162 124//124 21//21
f 158//158 126//126 9//9
f 130//130 129//129 74//74
f 132//132 131//131 77//77
f 134//134 133//133 80//80
f 136//136 135//135 83//83
f 128//128 137//137 86//86
f 158//158 138//138 89//89
f 159//159 139//139 92//92
f 160//160 140//140 95//95
f 161//161 141//141 98//98
f 162//162 142//142 101//101
f 145//145 144//144 104//104
f 147//147 146//146 107//107
f 149//149 148//148 110//110
f 151//151 150//150 113//113
f 143//143 152//152 116//116
f 159//159 153//153 118//118
f 160//160 154//154 120//120
f 161//161 155//155 122//122
f 162//162 156//156 124//124
f 158//158 157//157 126//126
f 130//130 3//3 129//129
f 132//132 4//4 131//131
f 134//134 5//5 133//133
f 136//136 6//6 135//135
f 128//128 2//2 137//137
f 158//158 9//9 138//138
f 159//159 12//12 139//139
f 160//160 15//15 140//140
f 161//161 18//18 141//141
f 162//162 21//21 142//142
f 145//145 24//24 144//144
f 147//147 25//25 146//146
f 149//149 26//26 148//148
f 151//151 27//27 150//150
f 143//143 23//23 152//152
f 159//159 30//30 153//153
f 160//160 33//33 154//154
f 161//161 36//36 155//155
f 162//162 39//39 156//156
f 158//158 42//42 157//157
f 128//128 44//44 75//75
f 130//130 46//46 78//78
f 132//132 48//48 81//81
f 134//134 50//50 84//84
f 136//136 52//52 87//87
f 76//76 45//45 90//90
f 73//73 43//43 93//93
f 85//85 51//51 96//96
f 82//82 49//49 99//99
f 79//79 47//47 102//102
f 143//143 59//59 105//105
f 145//145 61//61 108//108
f 147//147 63//63 111//111
f 149//149 65//65 114//114
f 151//151 67//67 117//117
f 103//103 58//58 119//119
f 106//106 60//60 121//121
f 109//109 62//62 123//123
f 112//112 64//64 125//125
f 115//115 66//66 127//127
f 73//73 11//11 74//74
f 76//76 8//8 77//77
f 79//79 20//20 80//80
f 82//82 17//17 83//83
f 85//85 14//14 86//86
f 88//88 68//68 89//89
f 91//91 69//69 92//92
f 94//94 70//70 95//95
f 97//97 71//71 98//98
f 100//100 72//72 101//101
f 103//103 29//29 104//104
f 106//106 32//32 107//107
f 109//109 35//35 110//110
f 112//112 38//38 113//113
f 115//115 41//41 116//116
f 88//88 53//53 118//118
f 91//91 54//54 120//120
f 94//94 55//55 122//122
f 97//97 56//56 124//124
f 100//100 57//57 126//126
f 128//128 75//75 129//129
f 130//130 78//78 131//131
f 132//132 81//81 133//133
f 134//134 84//84 135//135
f 136//136 87//87 137//137
f 76//76 90//90 138//138
f 73//73 93//93 139//139
f 85//85 96//96 140//140
f 82//82 99//99 141//141
f 79//79 102//102 142//142
f 143//143 105//105 144//144
f 145//145 108//108 146//146
f 147//147 111//111 148//148
f 149//149 114//114 150//150
f 151//151 117//117 152//152
f 103//103 119//119 153//153
f 106//106 121//121 154//154
f 109//109 123//123 155//155
f 112//112 125//125 156//156
f 115//115 127//127 157//157
f 129//129 3//3 2//2
f 131//131 4//4 3//3
f 133//133 5//5 4//4
f 135//135 6//6 5//5
f 137//137 2//2 6//6
f 138//138 9//9 8//8
f 139//139 12//12 11//11
f 140//140 15//15 14//14
f 141//141 18//18 17//17
f 142//142 21//21 20//20
f 144//144 24//24 23//23
f 146//146 25//25 24//24
f 148//148 26//26 25//25
f 150//150 27//27 26//26
f 152//152 23//23 27//27
f 153//153 30//30 29//29
f 154//154 33//33 32//32
f 155//155 36//36 35//35
f 156//156 39//39 38//38
f 157//157 42//42 41//41
f 75//75 44//44 43//43
f 78//78 46//46 45//45
f 81//81 48//48 47//47
f 84//84 50//50 49//49
f 87//87 52//52 51//51
f 90//90 45//45 53//53
f 93//93 43//43 54//54
f 96//96 51//51 55//55
f 99//99 49//49 56//56
f 102//102 47//47 57//57
f 105//105 59//59 58//58
f 108//108 61//61 60//60
f 111//111 63//63 62//62
f 114//114 65//65 64//64
f 117//117 67//67 66//66
f 119//119 58//58 68//68
f 121//121 60//60 69//69
f 123//123 62//62 70//70
f 125//125 64//64 71//71
f 127//127 66//66 72//72
f 74//74 11//11 46//46
f 77//77 8//8 48//48
f 80//80 20//20 50//50
f 83//83 17//17 52//52
f 86//86 14//14 44//44
f 89//89 68//68 42//42
f 92//92 69//69 30//30
f 95//95 70//70 33//33
f 98//98 71//71 36//36
f 101//101 72//72 39//39
f 104//104 29//29 61//61
f 107//107 32//32 63//63
f 110//110 35//35 65//65
f 113//113 38//38 67//67
f 116//116 41//41 59//59
f 118//118 53//53 12//12
f 120//120 54//54 15//15
f 122//122 55//55 18//18
f 124//124 56//56 21//21
f 126//126 57//57 9//9
f 129//129 75//75 74//74
f 131//131 78//78 77//77
f 133//133 81//81 80//80
f 135//135 84//84 83//83
f 137//137 87//87 86//86
f 138//138 90//90 89//89
f 139//139 93//93 92//92
f 140//140 96//96 95//95
f 141//141 99//99 98//98
f 142//142 102//102 101//101
f 144//144 105//105 104//104
f 146//146 108//108 107//107
f 148//148 111//111 110//110
f 150//150 114//114 113//113
f 152//152 117//117 116//116
f 153//153 119//119 118//118
f 154//154 121//121 120//120
f 155//155 123//123 122//122
f 156//156 125//125 124//124
f 157//157 127//127 126//126
