# Created by Open3D 
# object name: part_024
# number of vertices: 162
# number of triangles: 320
v -3.24414 1.35225 1.2933
vn -0.995458 0.0796645 -0.0521235
v -3.24618 1.32444 1.31456
vn -0.99958 0.00493967 0.0285385
v -3.24273 1.37232 1.31346
vn -0.992475 0.107088 0.0593794
v -3.2372 1.41624 1.29107
vn -0.989881 0.131182 -0.0541039
v -3.24102 1.3708 1.27858
vn -0.972655 0.0944502 -0.212184
v -3.24456 1.32299 1.28132
vn -0.990329 -0.00348645 -0.138698
v -2.96611 3.36445 1.21901
vn -0.980305 0.189333 -0.0561705
v -2.96998 3.34626 1.24058
vn -0.983745 0.17027 0.0570437
v -2.96033 3.39324 1.23818
vn -0.963231 0.268016 0.0188267
v -3.09922 2.3584 1.27961
vn -0.0989838 0.0503715 0.993813
v -3.22607 1.42036 1.31441
vn -0.0779652 0.0472189 0.995837
v -3.0902 2.35718 1.28035
vn -0.0519915 0.0440211 0.997677
v -3.10242 1.28323 1.32549
vn -0.0551539 -0.00311852 0.998473
v -3.10416 1.27012 1.32479
vn -0.12646 -0.615707 0.777761
v -2.96968 1.26364 1.33247
vn -0.0498802 -0.038176 0.998025
v -3.10059 1.2816 1.28806
vn 0.042262 -0.0901845 -0.995028
v -3.22447 1.3189 1.27985
vn 0.0446169 -0.0625593 -0.997043
v -2.97111 1.2844 1.29374
vn 0.0475866 -0.0629631 -0.996881
v -3.12602 2.14886 1.24801
vn -0.00158213 -0.0366796 -0.999326
v -2.97786 3.25085 1.2075
vn -0.0723465 -0.0266296 -0.997024
v -2.96503 3.29399 1.20584
vn 0.0197425 -0.0393481 -0.999031
v -2.66679 3.3237 1.23541
vn 0.995458 -0.0796647 0.0521235
v -2.6667 3.35326 1.25427
vn 0.992029 0.00180913 0.125998
v -2.67024 3.30545 1.25701
vn 0.981522 -0.0972995 0.164765
v -2.67375 3.25973 1.23808
vn 0.989881 -0.131182 0.0541039
v -2.66854 3.30393 1.22213
vn 0.988277 -0.108411 -0.1075
v -2.66508 3.35181 1.22103
vn 0.999131 -0.00438486 -0.0414392
v -2.81396 2.31956 1.29525
vn 0.00158215 0.0366796 0.999326
v -2.68712 3.2576 1.26051
vn -0.0195178 0.0399066 0.999013
v -2.82301 2.3208 1.295
vn -0.0455322 0.0431417 0.998031
v -2.94482 1.3115 1.30971
vn 0.980305 -0.189334 0.0561705
v -2.94299 1.33151 1.32989
vn 0.972793 -0.160481 0.167094
v -2.95256 1.28446 1.33066
vn 0.955679 -0.261268 0.135711
v -2.84076 2.11002 1.26365
vn 0.0989826 -0.0503714 -0.993813
v -2.93152 1.42371 1.28956
vn 0.170908 -0.0601488 -0.983449
v -2.94432 1.38055 1.29042
vn 0.0780892 -0.0479665 -0.995792
v -2.80885 3.39302 1.2101
vn 0.055154 0.00311853 -0.998473
v -2.68491 3.35567 1.21726
vn 0.0528892 -0.0245866 -0.998298
v -2.93827 3.39017 1.20337
vn 0.0499196 -0.0241821 -0.99846
v -2.81068 3.39465 1.24753
vn -0.0422622 0.0901835 0.995028
v -2.80881 3.40766 1.24586
vn 0.0527871 0.681555 0.729861
v -2.94338 3.41422 1.23983
vn -0.047318 0.125046 0.991022
v -3.22635 1.32058 1.31833
vn -0.0528892 0.0245869 0.998298
v -3.23553 1.29983 1.3179
vn -0.0695024 -0.0355055 0.99695
v -2.97974 3.25254 1.24603
vn -0.169954 0.0600046 0.983623
v -3.22668 1.46533 1.31202
vn -0.170009 0.0596065 0.983638
v -2.96828 3.34474 1.2057
vn -0.96396 0.157383 -0.214503
v -2.97678 3.30099 1.22148
vn -0.988907 0.138228 -0.0543634
v -3.22415 1.41865 1.27508
vn 0.0192814 -0.0399598 -0.999015
v -3.2248 1.46364 1.27349
vn -0.0741865 -0.0267794 -0.996885
v -3.10245 1.26859 1.28973
vn -0.0289206 -0.548776 -0.835469
v -3.23374 1.29823 1.28119
vn 0.0276963 -0.122376 -0.992097
v -2.96695 3.2957 1.24517
vn -0.0778784 0.0478524 0.995814
v -2.97299 1.28608 1.33222
vn -0.0499194 0.0241824 0.99846
v -2.96788 1.26203 1.29576
vn 0.047318 -0.125048 -0.991022
v -3.11733 2.14505 1.24836
vn 0.0455319 -0.0431417 -0.998031
v -2.95871 3.39179 1.20493
vn -0.953715 0.261496 -0.148483
v -2.68679 3.35735 1.25574
vn -0.044617 0.0625596 0.997043
v -2.67753 3.37802 1.2544
vn -0.0276965 0.122375 0.992097
v -2.93341 1.4254 1.32809
vn 0.0731713 0.0264977 0.996967
v -2.68646 3.21261 1.2621
vn 0.0732226 0.0268963 0.996953
v -2.94128 1.32999 1.29501
vn 0.979581 -0.171345 -0.105171
v -2.93417 1.37498 1.30768
vn 0.988907 -0.138228 0.0543634
v -2.68519 3.25589 1.22118
vn 0.0778099 -0.0472539 -0.995848
v -2.68458 3.21092 1.22357
vn 0.169202 -0.0595161 -0.983783
v -2.8071 3.40613 1.2108
vn 0.11242 0.47415 -0.873238
v -2.67573 3.37642 1.21769
vn 0.0695017 0.0355052 -0.99695
v -2.94015 3.39185 1.24185
vn -0.0475864 0.0629633 0.996881
v -2.94624 1.38226 1.32975
vn -0.0196037 0.0392731 0.999036
v -2.95093 1.28301 1.29741
vn 0.962518 -0.269363 -0.0316555
v -2.85014 2.10867 1.26301
vn 0.0519916 -0.0440211 -0.997677
v -2.94159 3.41261 1.20312
vn 0.0498806 0.0381768 -0.998025
v -3.23015 1.35631 1.31688
vn -0.0547054 0.0378635 0.997784
v -3.2369 1.37359 1.31548
vn -0.146451 0.048888 0.988009
v -3.23901 1.32439 1.31723
vn -0.123573 0.0291185 0.991908
v -2.97363 3.31325 1.24303
vn -0.389552 0.0896292 0.916633
v -2.98421 3.25412 1.24393
vn -0.98849 0.139473 0.0586015
v -3.10621 2.35932 1.27831
vn -0.397267 0.0886176 0.913415
v -2.97181 3.31162 1.20579
vn -0.299315 0.00779529 -0.954123
v -3.13174 2.15962 1.24819
vn -0.306124 0.0071485 -0.951965
v -2.9825 3.25259 1.20901
vn -0.9658 0.125821 -0.226715
v -3.22824 1.35461 1.27781
vn 0.0428159 -0.0492975 -0.997866
v -3.23716 1.32274 1.27938
vn -0.026332 -0.0577913 -0.997981
v -3.23502 1.37191 1.27703
vn -0.0493921 -0.0378547 -0.998062
v -3.1037 1.26504 1.30374
vn -0.136781 -0.989927 0.0365514
v -3.23703 1.28942 1.31656
vn -0.261357 -0.923627 0.280366
v -3.2354 1.28796 1.28328
vn -0.232076 -0.937852 -0.258018
v -2.95351 3.35847 1.24296
vn -0.0529345 0.0506752 0.997311
v -2.95338 3.39153 1.2409
vn -0.116912 0.0772922 0.99013
v -2.9647 3.34361 1.24274
vn -0.144328 0.0642291 0.987443
v -2.95966 1.31949 1.33171
vn -0.044586 0.0364849 0.998339
v -2.95949 1.38299 1.32927
vn -0.0481394 0.0431705 0.997907
v -3.09561 1.33287 1.32458
vn -0.0496246 0.0373323 0.99807
v -2.95799 1.26761 1.29661
vn 0.657958 -0.386259 -0.646448
v -2.9587 1.26284 1.31099
vn 0.861566 -0.503582 0.0640972
v -2.96925 1.25173 1.29787
vn -1.28258e-05 -0.969447 -0.245299
v -2.98384 2.12604 1.25564
vn 0.0487623 -0.0435817 -0.997859
v -2.95754 1.38125 1.28955
vn 0.0493754 -0.0440783 -0.997807
v -3.21119 1.41579 1.27565
vn 0.0480368 -0.043896 -0.997881
v -2.95154 3.40709 1.20349
vn -0.590275 0.325772 -0.738544
v -2.95153 3.38988 1.20305
vn -0.0196737 -0.00961566 -0.99976
v -2.96068 3.37467 1.20388
vn -0.24046 0.0293064 -0.970216
v -2.68302 3.32164 1.25778
vn -0.0428161 0.0492973 0.997866
v -2.67624 3.30434 1.25856
vn 0.0493904 0.0378551 0.998062
v -2.67411 3.35351 1.25621
vn 0.0263329 0.0577911 0.997981
v -2.93945 1.36463 1.3298
vn 0.298126 -0.00790886 0.954494
v -2.92876 1.42366 1.32658
vn 0.977494 -0.129644 0.166428
v -2.80689 2.31857 1.29471
vn 0.30612 -0.00714799 0.951966
v -2.93763 1.363 1.29256
vn 0.387917 -0.0898437 -0.917305
v -2.83242 2.11887 1.2646
vn 0.397269 -0.0886178 -0.913413
v -2.92705 1.42213 1.29166
vn 0.985043 -0.140542 -0.0996883
v -2.68111 3.31994 1.21871
vn 0.0547057 -0.0378634 -0.997784
v -2.67226 3.35186 1.21836
vn 0.123571 -0.0291192 -0.991908
v -2.67436 3.30266 1.22011
vn 0.146453 -0.0488884 -0.988009
v -2.8072 3.41089 1.22451
vn 0.136781 0.989927 -0.0365514
v -2.67586 3.38829 1.25231
vn 0.236755 0.945616 0.223065
v -2.67423 3.38683 1.21903
vn 0.260067 0.912836 -0.314796
v -2.95372 3.295 1.24604
vn -0.049385 0.0439928 0.99781
v -2.81757 3.34509 1.25028
vn -0.047898 0.0498295 0.997609
v -2.95973 1.28637 1.33254
vn 0.0196728 0.00961514 0.99976
v -2.94844 1.33432 1.3313
vn 0.047273 0.0225128 0.998628
v -2.95788 1.28472 1.29469
vn 0.116913 -0.0772924 -0.99013
v -2.94879 1.29998 1.29507
vn 0.333616 -0.11256 -0.935965
v -2.95178 3.29326 1.20633
vn 0.0481329 -0.0432263 -0.997905
v -2.69813 3.25873 1.22023
vn 0.0494649 -0.0434076 -0.997832
v -2.95221 3.41309 1.21739
vn -0.861565 0.503584 -0.0640973
v -2.94039 3.42307 1.20444
vn 0.0280047 0.94443 -0.327517
v -3.24355 1.3078 1.31655
vn -0.827413 -0.17994 0.531987
v -3.24362 1.34148 1.31565
vn -0.342254 0.0500297 0.938275
v -3.23727 1.40518 1.31348
vn -0.390088 0.0857908 0.916772
v -3.23144 1.46487 1.30999
vn -0.988687 0.138049 0.0586555
v -3.10755 2.35867 1.25579
vn -0.9894 0.134706 -0.0542345
v -3.22973 1.46334 1.27507
vn -0.970265 0.125671 -0.206862
v -3.23545 1.40355 1.27624
vn -0.297081 0.00341827 -0.954846
v -3.24183 1.33988 1.27901
vn -0.249105 -0.0332241 -0.967906
v -3.24182 1.30625 1.28106
vn -0.663799 -0.206305 -0.718895
v -3.24395 1.30168 1.29535
vn -0.966342 -0.254714 -0.036099
v -2.96247 3.37627 1.24052
vn -0.333617 0.11256 0.935965
v -3.21313 1.41752 1.31536
vn -0.0494737 0.0433522 0.997834
v -2.97087 1.25318 1.33115
vn -0.0259521 -0.955677 0.293271
v -3.09369 1.33115 1.28531
vn 0.0478979 -0.0498295 -0.997609
v -2.96282 3.34193 1.20429
vn -0.0472715 -0.0225131 -0.998628
v -2.66944 3.37 1.25453
vn 0.772469 0.229044 0.59231
v -2.66943 3.33637 1.25658
vn 0.249107 0.0332243 0.967906
v -2.67581 3.2727 1.25935
vn 0.298656 -0.00406965 0.954352
v -2.68153 3.21291 1.26052
vn 0.97769 -0.128221 0.166377
v -2.80335 2.31726 1.27247
vn 0.9894 -0.134706 0.0542345
v -2.67983 3.21138 1.2256
vn 0.982936 -0.139498 -0.119907
v -2.67399 3.27107 1.22211
vn 0.39116 -0.0862123 -0.916276
v -2.66764 3.33477 1.21994
vn 0.342252 -0.0500305 -0.938275
v -2.66771 3.36845 1.21904
vn 0.731479 0.145814 -0.66609
v -2.66696 3.37426 1.23303
vn 0.966342 0.254714 0.0360994
v -2.70007 3.26046 1.25994
vn -0.0480507 0.0438111 0.997884
v -2.95058 1.30158 1.33171
vn 0.240459 -0.0293066 0.970217
v -2.94656 1.33264 1.29285
vn 0.144326 -0.064229 -0.987443
v -2.81565 3.34338 1.21101
vn 0.0496247 -0.0373323 -0.99807
v -2.94202 3.42452 1.23772
vn 0.00135124 0.977666 0.210163
v -2.95327 3.40864 1.23898
vn -0.742399 0.435291 0.509279
v -2.95661 2.339 1.28775
vn -0.0487622 0.0435817 0.997859
v -2.95972 1.26916 1.3321
vn 0.687458 -0.386189 0.615028
v -2.95775 1.31778 1.29263
vn 0.052935 -0.050675 -0.997311
v -2.9516 3.35676 1.20388
vn 0.0445856 -0.0364851 -0.998339
f 1//1 2//2 3//3
f 1//1 3//3 4//4
f 1//1 4//4 5//5
f 1//1 5//5 6//6
f 1//1 6//6 2//2
f 7//7 8//8 9//9
f 10//10 11//11 12//12
f 13//13 14//14 15//15
f 16//16 17//17 18//18
f 19//19 20//20 21//21
f 22//22 23//23 24//24
f 22//22 24//24 25//25
f 22//22 25//25 26//26
f 22//22 26//26 27//27
f 22//22 27//27 23//23
f 28//28 29//29 30//30
f 31//31 32//32 33//33
f 34//34 35//35 36//36
f 37//37 38//38 39//39
f 40//40 41//41 42//42
f 13//13 43//43 44//44
f 10//10 45//45 46//46
f 7//7 47//47 48//48
f 19//19 49//49 50//50
f 16//16 51//51 52//52
f 10//10 53//53 45//45
f 13//13 54//54 43//43
f 16//16 55//55 51//51
f 19//19 56//56 49//49
f 7//7 57//57 47//47
f 40//40 58//58 59//59
f 28//28 60//60 61//61
f 31//31 62//62 63//63
f 34//34 64//64 65//65
f 37//37 66//66 67//67
f 40//40 68//68 58//58
f 28//28 69//69 60//60
f 31//31 70//70 62//62
f 34//34 71//71 64//64
f 37//37 72//72 66//66
f 10//10 46//46 11//11
f 7//7 48//48 8//8
f 19//19 50//50 20//20
f 16//16 52//52 17//17
f 13//13 44//44 14//14
f 40//40 42//42 68//68
f 28//28 30//30 69//69
f 31//31 33//33 70//70
f 34//34 36//36 71//71
f 37//37 39//39 72//72
f 28//28 61//61 29//29
f 31//31 63//63 32//32
f 34//34 65//65 35//35
f 37//37 67//67 38//38
f 40//40 59//59 41//41
f 10//10 12//12 53//53
f 13//13 15//15 54//54
f 16//16 18//18 55//55
f 19//19 21//21 56//56
f 7//7 9//9 57//57
f 73//73 74//74 75//75
f 76//76 77//77 78//78
f 79//79 80//80 81//81
f 82//82 83//83 84//84
f 85//85 86//86 87//87
f 88//88 89//89 90//90
f 91//91 92//92 93//93
f 94//94 95//95 96//96
f 97//97 98//98 99//99
f 100//100 101//101 102//102
f 103//103 104//104 105//105
f 106//106 107//107 108//108
f 109//109 110//110 111//111
f 112//112 113//113 114//114
f 115//115 116//116 117//117
f 88//88 118//118 119//119
f 91//91 120//120 121//121
f 94//94 122//122 123//123
f 97//97 124//124 125//125
f 100//100 126//126 127//127
f 128//128 129//129 2//2
f 130//130 131//131 3//3
f 132//132 133//133 4//4
f 134//134 135//135 5//5
f 136//136 137//137 6//6
f 76//76 138//138 8//8
f 73//73 139//139 11//11
f 85//85 140//140 14//14
f 82//82 141//141 17//17
f 79//79 142//142 20//20
f 143//143 144//144 23//23
f 145//145 146//146 24//24
f 147//147 148//148 25//25
f 149//149 150//150 26//26
f 151//151 152//152 27//27
f 103//103 153//153 29//29
f 106//106 154//154 32//32
f 109//109 155//155 35//35
f 112//112 156//156 38//38
f 115//115 157//157 41//41
f 73//73 75//75 43//43
f 76//76 78//78 45//45
f 79//79 81//81 47//47
f 82//82 84//84 49//49
f 85//85 87//87 51//51
f 88//88 90//90 53//53
f 91//91 93//93 54//54
f 94//94 96//96 55//55
f 97//97 99//99 56//56
f 100//100 102//102 57//57
f 103//103 105//105 58//58
f 106//106 108//108 60//60
f 109//109 111//111 62//62
f 112//112 114//114 64//64
f 115//115 117//117 66//66
f 88//88 119//119 68//68
f 91//91 121//121 69//69
f 94//94 123//123 70//70
f 97//97 125//125 71//71
f 100//100 127//127 72//72
f 130//130 74//74 46//46
f 132//132 77//77 48//48
f 134//134 80//80 50//50
f 136//136 83//83 52//52
f 128//128 86//86 44//44
f 158//158 89//89 42//42
f 159//159 92//92 30//30
f 160//160 95//95 33//33
f 161//161 98//98 36//36
f 162//162 101//101 39//39
f 145//145 104//104 61//61
f 147//147 107//107 63//63
f 149//149 110//110 65//65
f 151//151 113//113 67//67
f 143//143 116//116 59//59
f 159//159 118//118 12//12
f 160//160 120//120 15//15
f 161//161 122//122 18//18
f 162//162 124//124 21//21
f 158//158 126//126 9//9
f 130//130 129//129 74//74
f 132//132 131//131 77//77
f 134//134 133//133 80//80
f 136//136 135//135 83//83
f 128//128 137//137 86//86
f 158//158 138//138 89//89
f 159//159 139//139 92//92
f 160//160 140//140 95//95
f 161//161 141//141 98//98
f 162//162 142//142 101//101
f 145//145 144//144 104//104
f 147//147 146//146 107//107
f 149//149 148//148 110//110
f 151//151 150//150 113//113
f 143//143 152//152 116//116
f 159//159 153//153 118//118
f 160//160 154//154 120//120
f 161//161 155//155 122//122
f 162//162 156//156 124//124
f 158//158 157//157 126//126
f 130//130 3//3 129//129
f 132//132 4//4 131//131
f 134//134 5//5 133//133
f 136//136 6//6 135//135
f 128//128 2//2 137//137
f 158//158 9//9 138//138
f 159//159 12//12 139//139
f 160//160 15//15 140//140
f 161//161 18//18 141//141
f 162//162 21//21 142//142
f 145//145 24//24 144//144
f 147//147 25//25 146//146
f 149//149 26//26 148//148
f 151//151 27//27 150//150
f 143//143 23//23 152//152
f 159//159 30//30 153//153
f 160//160 33//33 154//154
f 161//161 36//36 155//155
f 162//162 39//39 156//156
f 158//158 42//42 157//157
f 128//128 44//44 75//75
f 130//130 46//46 78//78
f 132//132 48//48 81//81
f 134//134 50//50 84//84
f 136//136 52//52 87//87
f 76//76 45//45 90//90
f 73//73 43//43 93//93
f 85//85 51//51 96//96
f 82//82 49//49 99//99
f 79//79 47//47 102//102
f 143//143 59//59 105//105
f 145//145 61//61 108//108
f 147//147 63//63 111//111
f 149//149 65//65 114//114
f 151//151 67//67 117//117
f 103//103 58//58 119//119
f 106//106 60//60 121//121
f 109//109 62//62 123//123
f 112//112 64//64 125//125
f 115//115 66//66 127//127
f 73//73 11//11 74//74
f 76//76 8//8 77//77
f 79//79 20//20 80//80
f 82//82 17//17 83//83
f 85//85 14//14 86//86
f 88//88 68//68 89//89
f 91//91 69//69 92//92
f 94//94 70//70 95//95
f 97//97 71//71 98//98
f 100//100 72//72 101//101
f 103//103 29//29 104//104
f 106//106 32//32 107//107
f 109//109 35//35 110//110
f 112//112 38//38 113//113
f 115//115 41//41 116//116
f 88//88 53//53 118//118
f 91//91 54//54 120//120
f 94//94 55//55 122//122
f 97//97 56//56 124//124
f 100//100 57//57 126//126
f 128//128 75//75 129//129
f 130//130 78//78 131//131
f 132//132 81//81 133//133
f 134//134 84//84 135//135
f 136//136 87//87 137//137
f 76//76 90//90 138//138
f 73//73 93//93 139//139
f 85//85 96//96 140//140
f 82//82 99//99 141//141
f 79//79 102//102 142//142
f 143//143 105//105 144//144
f 145//145 108//108 146//146
f 147//147 111//111 148//148
f 149//149 114//114 150//150
f 151//151 117//117 152//152
f 103//103 119//119 153//153
f 106//106 121//121 154//154
f 109//109 123//123 155//155
f 112//112 125//125 156//156
f 115//115 127//127 157//157
f 129//129 3//3 2//2
f 131//131 4//4 3//3
f 133//133 5//5 4//4
f 135//135 6//6 5//5
f 137//137 2//2 6//6
f 138//138 9//9 8//8
f 139//139 12//12 11//11
f 140//140 15//15 14//14
f 141//141 18//18 17//17
f 142//142 21//21 20//20
f 144//144 24//24 23//23
f 146//146 25//25 24//24
f 148//148 26//26 25//25
f 150//150 27//27 26//26
f 152//152 23//23 27//27
f 153//153 30//30 29//29
f 154//154 33//33 32//32
f 155//155 36//36 35//35
f 156//156 39//39 38//38
f 157//157 42//42 41//41
f 75//75 44//44 43//43
f 78//78 46//46 45//45
f 81//81 48//48 47//47
f 84//84 50//50 49//49
f 87//87 52//52 51//51
f 90//90 45//45 53//53
f 93//93 43//43 54//54
f 96//96 51//51 55//55
f 99//99 49//49 56//56
f 102//102 47//47 57//57
f 105//105 59//59 58//58
f 108//108 61//61 60//60
f 111//111 63//63 62//62
f 114//114 65//65 64//64
f 117//117 67//67 66//66
f 119//119 58//58 68//68
f 121//121 60//60 69//69
f 123//123 62//62 70//70
f 125//125 64//64 71//71
f 127//127 66//66 72//72
f 74//74 11//11 46//46
f 77//77 8//8 48//48
f 80//80 20//20 50//50
f 83//83 17//17 52//52
f 86//86 14//14 44//44
f 89//89 68//68 42//42
f 92//92 69//69 30//30
f 95//95 70//70 33//33
f 98//98 71//71 36//36
f 101//101 72//72 39//39
f 104//104 29//29 61//61
f 107//107 32//32 63//63
f 110//110 35//35 65//65
f 113//113 38//38 67//67
f 116//116 41//41 59//59
f 118//118 53//53 12//12
f 120//120 54//54 15//15
f 122//122 55//55 18//18
f 124//124 56//56 21//21
f 126//126 57//57 9//9
f 129//129 75//75 74//74
f 131//131 78//78 77//77
f 133//133 81//81 80//80
f 135//135 84//84 83//83
f 137//137 87//87 86//86
f 138//138 90//90 89//89
f 139//139 93//93 92//92
f 140//140 96//96 95//95
f 141//141 99//99 98//98
f 142//142 102//102 101//101
f 144//144 105//105 104//104
f 146//146 108//108 107//107
f 148//148 111//111 110//110
f 150//150 114//114 113//113
f 152//152 117//117 116//116
f 153//153 119//119 118//118
f 154//154 121//121 120//120
f 155//155 123//123 122//122
f 156//156 125//125 124//124
f 157//157 127//127 126//126
