# Created by Open3D 
# object name: part_034
# number of vertices: 162
# number of triangles: 320
v -3.58869 3.78928 1.65142
vn 0.993793 -0.0831333 0.0739223
v -3.58855 3.82233 1.66995
vn 0.989365 -0.0121418 0.144949
v -3.59285 3.76888 1.67316
vn 0.978502 -0.0970219 0.18199
v -3.59657 3.71771 1.65469
vn 0.988952 -0.127386 0.0758098
v -3.5904 3.76713 1.63833
vn 0.990789 -0.109474 -0.0797081
v -3.58622 3.82066 1.63675
vn 0.999683 -0.0192734 -0.0162157
v -3.89296 1.53654 1.74351
vn 0.981061 -0.177397 0.0777754
v -3.89132 1.55899 1.76349
vn 0.971166 -0.15134 0.184209
v -3.90137 1.50623 1.76462
vn 0.958758 -0.238753 0.15421
v -3.7492 2.66496 1.71998
vn -0.0175611 0.0432037 0.998912
v -3.61002 3.71506 1.6769
vn -0.0395147 0.0464259 0.99814
v -3.75789 2.66612 1.71956
vn -0.0665531 0.049724 0.996543
v -3.7265 3.8649 1.66023
vn -0.064216 0.0918243 0.993702
v -3.72444 3.87946 1.65845
vn 0.0266628 0.646194 0.762707
v -3.85394 3.88338 1.65
vn -0.0702295 0.123168 0.989898
v -3.72388 3.86301 1.62286
vn 0.0754804 -0.00842061 -0.997112
v -3.60519 3.82446 1.6326
vn 0.073759 -0.0332146 -0.996723
v -3.84856 3.85657 1.6139
vn 0.0706725 -0.0328071 -0.99696
v -3.71502 2.89566 1.67126
vn 0.122068 -0.0569907 -0.990884
v -3.87774 1.66207 1.72233
vn 0.194767 -0.0664746 -0.978594
v -3.89083 1.61357 1.72345
vn 0.100018 -0.0543581 -0.9935
v -4.18047 1.57447 1.72142
vn -0.993793 0.0831326 -0.0739222
v -4.18343 1.54344 1.74295
vn -0.9998 0.0196296 0.00376252
v -4.17925 1.59697 1.74138
vn -0.993609 0.107861 0.0332843
v -4.17263 1.64606 1.71859
vn -0.988952 0.127386 -0.0758103
v -4.1768 1.59522 1.70655
vn -0.969236 0.094005 -0.227476
v -4.1811 1.54177 1.70976
vn -0.987518 0.0105436 -0.157152
v -4.0232 2.70111 1.69894
vn -0.122066 0.0569904 0.990884
v -4.16238 1.65101 1.74207
vn -0.100242 0.0538613 0.993504
v -4.01454 2.69998 1.69985
vn -0.0732663 0.0506096 0.996027
v -3.87621 3.82721 1.62934
vn -0.981061 0.177398 -0.0777755
v -3.88077 3.80686 1.65104
vn -0.986272 0.162181 0.0310721
v -3.8706 3.85954 1.64828
vn -0.969193 0.24624 -0.00549532
v -3.98903 2.93181 1.65021
vn 0.0175615 -0.0432037 -0.998912
v -3.88921 3.70009 1.61891
vn -0.0579318 -0.0327631 -0.997783
v -3.87606 3.74855 1.61699
vn 0.0393717 -0.0457542 -0.998177
v -4.04315 1.4992 1.71948
vn 0.0642157 -0.0918228 -0.993703
v -4.16176 1.5377 1.70869
vn 0.0660404 -0.0671055 -0.995558
v -3.91839 1.5056 1.72738
vn 0.0691262 -0.0675123 -0.995321
v -4.04577 1.50108 1.75685
vn -0.0754803 0.00842091 0.997112
v -4.04766 1.4864 1.75627
vn -0.137181 -0.566884 0.812295
v -3.91828 1.48256 1.76637
vn -0.0692158 -0.0231023 0.997334
v -3.60789 3.82639 1.67102
vn -0.0660405 0.0671054 0.995558
v -3.59857 3.84969 1.66961
vn -0.0498234 0.120476 0.991465
v -3.88044 1.66401 1.7608
vn 0.0569169 0.0329191 0.997836
v -3.61019 3.66486 1.67901
vn 0.0569588 0.0332754 0.997822
v -3.88888 1.55723 1.72866
vn 0.983478 -0.163606 -0.0774919
v -3.88156 1.60766 1.74094
vn 0.988134 -0.13344 0.0760577
v -3.60726 3.71308 1.63763
vn 0.100487 -0.0538167 -0.993482
v -3.6075 3.66292 1.64055
vn 0.19664 -0.0663473 -0.978228
v -3.72199 3.87769 1.62344
vn 0.125006 0.425763 -0.896158
v -3.596 3.84785 1.63295
vn 0.089622 0.0204118 -0.995767
v -3.89359 1.61555 1.76272
vn -0.0395886 0.0458596 0.998163
v -3.85126 3.8585 1.65232
vn -0.0691265 0.0675129 0.995321
v -3.85137 3.88153 1.61334
vn 0.0692161 0.0231022 -0.997334
v -3.72329 2.89967 1.67023
vn 0.0732664 -0.0506096 -0.996027
v -3.89905 1.50456 1.73143
vn 0.96885 -0.247551 -0.00688079
v -4.16445 1.53964 1.74711
vn -0.073759 0.0332144 0.996723
v -4.17365 1.51625 1.74676
vn -0.0896214 -0.0204108 0.995767
v -3.89191 3.70202 1.65737
vn -0.195592 0.0665931 0.978422
v -4.16215 1.70118 1.73916
vn -0.195634 0.0662368 0.978437
v -3.87832 3.80511 1.61622
vn -0.961921 0.148137 -0.229703
v -3.88764 3.75611 1.63234
vn -0.988134 0.13344 -0.0760582
v -4.15963 1.64904 1.70281
vn 0.0396753 -0.0463973 -0.998135
v -4.15945 1.69924 1.7007
vn -0.0561154 -0.0333771 -0.997866
v -4.0452 1.48464 1.72126
vn -0.00193364 -0.514079 -0.857741
v -4.17108 1.51441 1.7101
vn 0.0498234 -0.120475 -0.991465
v -3.92109 1.50753 1.76581
vn -0.0706726 0.0328069 0.99696
v -3.87882 3.75052 1.65625
vn -0.100166 0.0544273 0.993481
v -3.86827 3.85787 1.61509
vn -0.956685 0.23882 -0.16649
v -3.97994 2.93353 1.65052
vn 0.0665533 -0.0497239 -0.996543
v -3.91571 1.48072 1.72971
vn 0.0702292 -0.123168 -0.989898
v -3.60491 3.78663 1.67353
vn -0.063877 0.0551962 0.99643
v -3.59869 3.76749 1.67461
vn 0.0319995 0.0434836 0.998542
v -3.59573 3.82242 1.67175
vn 0.00763788 0.0617185 0.998064
v -3.88735 1.59604 1.76309
vn 0.2904 -0.00184903 0.956904
v -3.87595 1.66219 1.75939
vn 0.975053 -0.124816 0.183558
v -3.74238 2.66402 1.71958
vn 0.298623 -0.00132224 0.95437
v -3.88474 1.59417 1.72591
vn 0.422 -0.0953318 -0.90157
v -3.70981 2.88388 1.67315
vn 0.428621 -0.0946194 -0.898516
v -3.8735 1.66043 1.72453
vn 0.986242 -0.137592 -0.0916278
v -3.60217 3.78467 1.63451
vn 0.0759396 -0.0451341 -0.99609
v -3.59308 3.82052 1.63396
vn 0.147026 -0.0383077 -0.988391
v -3.59599 3.76556 1.63622
vn 0.171092 -0.0563273 -0.983644
v -3.72233 3.88304 1.63709
vn 0.13374 0.99019 -0.0404746
v -3.59674 3.86118 1.66743
vn 0.24305 0.937161 0.25031
v -3.5944 3.85951 1.63421
vn 0.280983 0.896027 -0.34378
v -3.90765 1.54515 1.76515
vn -0.0654232 0.0437467 0.996898
v -3.9083 1.50818 1.76635
vn 0.00181975 0.018671 0.999824
v -3.89657 1.56198 1.76477
vn 0.0301529 0.0297781 0.999102
v -3.86473 3.82091 1.65357
vn -0.0743926 0.0565845 0.995622
v -3.86609 3.75007 1.65736
vn -0.0705647 0.0505447 0.996226
v -3.73407 3.80941 1.66342
vn -0.0691549 0.0557504 0.996047
v -3.86107 3.87513 1.6136
vn -0.599642 0.290377 -0.745728
v -3.86194 3.88184 1.62742
vn -0.886379 0.455069 -0.0851119
v -3.85006 3.89324 1.61457
vn 0.0144563 0.931186 -0.364257
v -3.85149 2.91751 1.66026
vn 0.0699098 -0.050167 -0.996291
v -3.86331 3.74807 1.61771
vn 0.0692632 -0.0497129 -0.996359
v -3.61966 3.71593 1.63643
vn 0.0706545 -0.0498964 -0.996252
v -3.9061 1.48719 1.73068
vn 0.695621 -0.359255 -0.622131
v -3.90565 1.50628 1.72856
vn 0.141212 -0.0813552 -0.986631
v -3.89664 1.52355 1.72893
vn 0.364539 -0.115407 -0.924009
v -4.16748 1.57943 1.7452
vn -0.0759393 0.0451342 0.99609
v -4.17366 1.59854 1.74348
vn -0.171093 0.056327 0.983643
v -4.17657 1.54357 1.74574
vn -0.147024 0.0383078 0.988391
v -3.88491 3.76993 1.6538
vn -0.420833 0.0954552 0.902102
v -3.89614 3.70367 1.65518
vn -0.990216 0.135697 0.0325401
v -4.02989 2.70195 1.6975
vn -0.428631 0.0946206 0.898511
v -3.8823 3.76806 1.61662
vn -0.288659 0.00196165 -0.95743
v -3.99732 2.92181 1.65106
vn -0.298617 0.00132132 -0.954372
v -3.8937 3.70191 1.62031
vn -0.967265 0.122201 -0.222409
v -4.16474 1.57746 1.70618
vn 0.0638767 -0.0551973 -0.99643
v -4.17392 1.54167 1.70796
vn -0.00763743 -0.0617186 -0.998064
v -4.17096 1.5966 1.70509
vn -0.0320064 -0.043483 -0.998541
v -4.0468 1.48069 1.73529
vn -0.133739 -0.99019 0.0404744
v -4.17524 1.50458 1.7455
vn -0.282117 -0.909127 0.306427
v -4.17291 1.50291 1.71227
vn -0.236632 -0.927852 -0.288264
v -3.90634 1.61603 1.762
vn -0.0692553 0.0497893 0.996356
v -4.03833 1.55666 1.7555
vn -0.0706633 0.0445818 0.996503
v -3.864 3.85782 1.65115
vn -0.141211 0.0813562 0.986631
v -3.87577 3.80405 1.65333
vn -0.169252 0.0700338 0.983081
v -3.86134 3.85591 1.61336
vn -0.00181952 -0.0186714 -0.999824
v -3.87044 3.83871 1.61419
vn -0.231456 0.0199032 -0.972642
v -3.90356 1.61403 1.72234
vn 0.0705702 -0.050495 -0.996228
v -4.1472 1.64617 1.70363
vn 0.0691859 -0.0503123 -0.996334
v -3.9072 1.48189 1.74509
vn 0.886379 -0.45507 0.0851119
v -3.91725 1.46918 1.73191
vn 0.0298935 -0.963013 -0.267793
v -3.59091 3.84094 1.66997
vn 0.773951 0.19655 0.60197
v -3.59152 3.80341 1.6724
vn 0.238977 0.0357888 0.970365
v -3.59883 3.73219 1.67577
vn 0.290881 0.00156222 0.956758
v -3.6054 3.66531 1.67751
vn 0.975218 -0.123592 0.183508
v -3.73846 2.66259 1.69742
vn 0.988548 -0.130414 0.0759339
v -3.60295 3.66356 1.64265
vn 0.988107 -0.135761 -0.072207
v -3.59622 3.73032 1.63859
vn 0.419742 -0.0914941 -0.90302
v -3.58896 3.80157 1.63581
vn 0.372058 -0.0597141 -0.926287
v -3.58843 3.83916 1.63454
vn 0.759149 0.111117 -0.641362
v -3.58793 3.84569 1.64847
vn 0.97612 0.209361 0.0579536
v -3.8992 1.52539 1.76552
vn 0.231452 -0.019903 0.972643
v -3.62245 3.71793 1.67608
vn -0.069178 0.0503618 0.996332
v -3.8524 3.89491 1.6478
vn -0.0279218 0.972908 0.229499
v -3.73131 3.80744 1.62421
vn 0.070663 -0.0445823 -0.996503
v -3.89388 1.56005 1.72638
vn 0.169245 -0.070033 -0.983083
v -4.18122 1.52494 1.74517
vn -0.851623 -0.140816 0.504885
v -4.18069 1.56253 1.7439
vn -0.372052 0.0597146 0.926289
v -4.17343 1.63378 1.74112
vn -0.42132 0.0920439 0.902229
v -4.16669 1.70054 1.73706
vn -0.990381 0.134473 0.0325867
v -4.03067 2.70114 1.67497
vn -0.988548 0.130414 -0.0759344
v -4.16425 1.69879 1.70219
vn -0.963043 0.119567 -0.241355
v -4.17082 1.63191 1.70393
vn -0.292024 -0.00113432 -0.95641
v -4.17812 1.56068 1.70731
vn -0.238973 -0.0357889 -0.970367
v -4.17873 1.52315 1.70974
vn -0.663178 -0.179999 -0.726496
v -4.18121 1.51804 1.72404
vn -0.976119 -0.209363 -0.0579517
v -4.14998 1.64817 1.74328
vn -0.0706422 0.0499723 0.996249
v -3.87301 3.84055 1.65078
vn -0.364539 0.115407 0.924009
v -3.87308 3.80211 1.61494
vn -0.03016 -0.029777 -0.999101
v -4.03558 1.55468 1.71629
vn 0.0691547 -0.0557509 -0.996047
v -3.91958 1.47086 1.76514
vn -0.0111455 -0.944875 0.327243
v -3.90858 1.48897 1.76611
vn 0.70073 -0.345607 0.624126
v -3.88622 2.68305 1.70978
vn -0.0699101 0.0501671 0.996291
v -3.86355 3.87691 1.64903
vn -0.778394 0.40134 0.482731
v -3.862 3.81895 1.61456
vn 0.0654239 -0.0437478 -0.996898
v -3.90491 1.54319 1.72614
vn 0.0743928 -0.0565844 -0.995622
f 1//1 2//2 3//3
f 1//1 3//3 4//4
f 1//1 4//4 5//5
f 1//1 5//5 6//6
f 1//1 6//6 2//2
f 7//7 8//8 9//9
f 10//10 11//11 12//12
f 13//13 14//14 15//15
f 16//16 17//17 18//18
f 19//19 20//20 21//21
f 22//22 23//23 24//24
f 22//22 24//24 25//25
f 22//22 25//25 26//26
f 22//22 26//26 27//27
f 22//22 27//27 23//23
f 28//28 29//29 30//30
f 31//31 32//32 33//33
f 34//34 35//35 36//36
f 37//37 38//38 39//39
f 40//40 41//41 42//42
f 13//13 43//43 44//44
f 10//10 45//45 46//46
f 7//7 47//47 48//48
f 19//19 49//49 50//50
f 16//16 51//51 52//52
f 10//10 53//53 45//45
f 13//13 54//54 43//43
f 16//16 55//55 51//51
f 19//19 56//56 49//49
f 7//7 57//57 47//47
f 40//40 58//58 59//59
f 28//28 60//60 61//61
f 31//31 62//62 63//63
f 34//34 64//64 65//65
f 37//37 66//66 67//67
f 40//40 68//68 58//58
f 28//28 69//69 60//60
f 31//31 70//70 62//62
f 34//34 71//71 64//64
f 37//37 72//72 66//66
f 10//10 46//46 11//11
f 7//7 48//48 8//8
f 19//19 50//50 20//20
f 16//16 52//52 17//17
f 13//13 44//44 14//14
f 40//40 42//42 68//68
f 28//28 30//30 69//69
f 31//31 33//33 70//70
f 34//34 36//36 71//71
f 37//37 39//39 72//72
f 28//28 61//61 29//29
f 31//31 63//63 32//32
f 34//34 65//65 35//35
f 37//37 67//67 38//38
f 40//40 59//59 41//41
f 10//10 12//12 53//53
f 13//13 15//15 54//54
f 16//16 18//18 55//55
f 19//19 21//21 56//56
f 7//7 9//9 57//57
f 73//73 74//74 75//75
f 76//76 77//77 78//78
f 79//79 80//80 81//81
f 82//82 83//83 84//84
f 85//85 86//86 87//87
f 88//88 89//89 90//90
f 91//91 92//92 93//93
f 94//94 95//95 96//96
f 97//97 98//98 99//99
f 100//100 101//101 102//102
f 103//103 104//104 105//105
f 106//106 107//107 108//108
f 109//109 110//110 111//111
f 112//112 113//113 114//114
f 115//115 116//116 117//117
f 88//88 118//118 119//119
f 91//91 120//120 121//121
f 94//94 122//122 123//123
f 97//97 124//124 125//125
f 100//100 126//126 127//127
f 128//128 129//129 2//2
f 130//130 131//131 3//3
f 132//132 133//133 4//4
f 134//134 135//135 5//5
f 136//136 137//137 6//6
f 76//76 138//138 8//8
f 73//73 139//139 11//11
f 85//85 140//140 14//14
f 82//82 141//141 17//17
f 79//79 142//142 20//20
f 143//143 144//144 23//23
f 145//145 146//146 24//24
f 147//147 148//148 25//25
f 149//149 150//150 26//26
f 151//151 152//152 27//27
f 103//103 153//153 29//29
f 106//106 154//154 32//32
f 109//109 155//155 35//35
f 112//112 156//156 38//38
f 115//115 157//157 41//41
f 73//73 75//75 43//43
f 76//76 78//78 45//45
f 79//79 81//81 47//47
f 82//82 84//84 49//49
f 85//85 87//87 51//51
f 88//88 90//90 53//53
f 91//91 93//93 54//54
f 94//94 96//96 55//55
f 97//97 99//99 56//56
f 100//100 102//102 57//57
f 103//103 105//105 58//58
f 106//106 108//108 60//60
f 109//109 111//111 62//62
f 112//112 114//114 64//64
f 115//115 117//117 66//66
f 88//88 119//119 68//68
f 91//91 121//121 69//69
f 94//94 123//123 70//70
f 97//97 125//125 71//71
f 100//100 127//127 72//72
f 130//130 74//74 46//46
f 132//132 77//77 48//48
f 134//134 80//80 50//50
f 136//136 83//83 52//52
f 128//128 86//86 44//44
f 158//158 89//89 42//42
f 159//159 92//92 30//30
f 160//160 95//95 33//33
f 161//161 98//98 36//36
f 162//162 101//101 39//39
f 145//145 104//104 61//61
f 147//147 107//107 63//63
f 149//149 110//110 65//65
f 151//151 113//113 67//67
f 143//143 116//116 59//59
f 159//159 118//118 12//12
f 160//160 120//120 15//15
f 161//161 122//122 18//18
f 162//162 124//124 21//21
f 158//158 126//126 9//9
f 130//130 129//129 74//74
f 132//132 131//131 77//77
f 134//134 133//133 80//80
f 136//136 135//135 83//83
f 128//128 137//137 86//86
f 158//158 138//138 89//89
f 159//159 139//139 92//92
f 160//160 140//140 95//95
f 161//161 141//141 98//98
f 162//162 142//142 101//101
f 145//145 144//144 104//104
f 147//147 146//146 107//107
f 149//149 148//148 110//110
f 151//151 150//150 113//113
f 143//143 152//152 116//116
f 159//159 153//153 118//118
f 160//160 154//154 120//120
f 161//161 155//155 122//122
f 162//162 156//156 124//124
f 158//158 157//157 126//126
f 130//130 3//3 129//129
f 132//132 4//4 131//131
f 134//134 5//5 133//133
f 136//136 6//6 135//135
f 128//128 2//2 137//137
f 158//158 9//9 138//138
f 159//159 12//12 139//139
f 160//160 15//15 140//140
f 161//161 18//18 141//141
f 162//162 21//21 142//142
f 145//145 24//24 144//144
f 147//147 25//25 146//146
f 149//149 26//26 148//148
f 151//151 27//27 150//150
f 143//143 23//23 152//152
f 159//159 30//30 153//153
f 160//160 33//33 154//154
f 161//161 36//36 155//155
f 162//162 39//39 156//156
f 158//158 42//42 157//157
f 128//128 44//44 75//75
f 130//130 46//46 78//78
f 132//132 48//48 81//81
f 134//134 50//50 84//84
f 136//136 52//52 87//87
f 76//76 45//45 90//90
f 73//73 43//43 93//93
f 85//85 51//51 96//96
f 82//82 49//49 99//99
f 79//79 47//47 102//102
f 143//143 59//59 105//105
f 145//145 61//61 108//108
f 147//147 63//63 111//111
f 149//149 65//65 114//114
f 151//151 67//67 117//117
f 103//103 58//58 119//119
f 106//106 60//60 121//121
f 109//109 62//62 123//123
f 112//112 64//64 125//125
f 115//115 66//66 127//127
f 73//73 11//11 74//74
f 76//76 8//8 77//77
f 79//79 20//20 80//80
f 82//82 17//17 83//83
f 85//85 14//14 86//86
f 88//88 68//68 89//89
f 91//91 69//69 92//92
f 94//94 70//70 95//95
f 97//97 71//71 98//98
f 100//100 72//72 101//101
f 103//103 29//29 104//104
f 106//106 32//32 107//107
f 109//109 35//35 110//110
f 112//112 38//38 113//113
f 115//115 41//41 116//116
f 88//88 53//53 118//118
f 91//91 54//54 120//120
f 94//94 55//55 122//122
f 97//97 56//56 124//124
f 100//100 57//57 126//126
f 128//128 75//75 129//129
f 130//130 78//78 131//131
f 132//132 81//81 133//133
f 134//134 84//84 135//135
f 136//136 87//87 137//137
f 76//76 90//90 138//138
f 73//73 93//93 139//139
f 85//85 96//96 140//140
f 82//82 99//99 141//141
f 79//79 102//102 142//142
f 143//143 105//105 144//144
f 145//145 108//108 146//146
f 147//147 111//111 148//148
f 149//149 114//114 150//150
f 151//151 117//117 152//152
f 103//103 119//119 153//153
f 106//106 121//121 154//154
f 109//109 123//123 155//155
f 112//112 125//125 156//156
f 115//115 127//127 157//157
f 129//129 3//3 2//2
f 131//131 4//4 3//3
f 133//133 5//5 4//4
f 135//135 6//6 5//5
f 137//137 2//2 6//6
f 138//138 9//9 8//8
f 139//139 12//12 11//11
f 140//140 15//15 14//14
f 141//141 18//18 17//17
f 142//142 21//21 20//20
f 144//144 24//24 23//23
f 146//146 25//25 24//24
f 148//148 26//26 25//25
f 150//150 27//27 26//26
f 152//152 23//23 27//27
f 153//153 30//30 29//29
f 154//154 33//33 32//32
f 155//155 36//36 35//35
f 156//156 39//39 38//38
f 157//157 42//42 41//41
f 75//75 44//44 43//43
f 78//78 46//46 45//45
f 81//81 48//48 47//47
f 84//84 50//50 49//49
f 87//87 52//52 51//51
f 90//90 45//45 53//53
f 93//93 43//43 54//54
f 96//96 51//51 55//55
f 99//99 49//49 56//56
f 102//102 47//47 57//57
f 105//105 59//59 58//58
f 108//108 61//61 60//60
f 111//111 63//63 62//62
f 114//114 65//65 64//64
f 117//117 67//67 66//66
f 119//119 58//58 68//68
f 121//121 60//60 69//69
f 123//123 62//62 70//70
f 125//125 64//64 71//71
f 127//127 66//66 72//72
f 74//74 11//11 46//46
f 77//77 8//8 48//48
f 80//80 20//20 50//50
f 83//83 17//17 52//52
f 86//86 14//14 44//44
f 89//89 68//68 42//42
f 92//92 69//69 30//30
f 95//95 70//70 33//33
f 98//98 71//71 36//36
f 101//101 72//72 39//39
f 104//104 29//29 61//61
f 107//107 32//32 63//63
f 110//110 35//35 65//65
f 113//113 38//38 67//67
f 116//116 41//41 59//59
f 118//118 53//53 12//12
f 120//120 54//54 15//15
f 122//122 55//55 18//18
f 124//124 56//56 21//21
f 126//126 57//57 9//9
f 129//129 75//75 74//74
f 131//131 78//78 77//77
f 133//133 81//81 80//80
f 135//135 84//84 83//83
f 137//137 87//87 86//86
f 138//138 90//90 89//89
f 139//139 93//93 92//92
f 140//140 96//96 95//95
f 141//141 99//99 98//98
f 142//142 102//102 101//101
f 144//144 105//105 104//104
f 146//146 108//108 107//107
f 148//148 111//111 110//110
f 150//150 114//114 113//113
f 152//152 117//117 116//116
f 153//153 119//119 118//118
f 154//154 121//121 120//120
f 155//155 123//123 122//122
f 156//156 125//125 124//124
f 157//157 127//127 126//126
