# Created by Open3D 
# object name: part_043
# number of vertices: 162
# number of triangles: 320
v -4.01878 2.59866 1.69323
vn -0.998066 0.039067 0.0483579
v -4.01732 2.58112 1.7135
vn -0.990197 -0.0735233 0.118757
v -4.01653 2.61074 1.71393
vn -0.986054 0.0740002 0.149072
v -4.01572 2.6382 1.69283
vn -0.992258 0.114894 0.0471534
v -4.01824 2.61032 1.67901
vn -0.992728 0.070505 -0.0975663
v -4.01895 2.58072 1.68023
vn -0.996551 -0.0768736 -0.0312656
v -3.86942 3.84083 1.67094
vn -0.978678 0.200305 0.0454616
v -3.87001 3.8293 1.69206
vn -0.974858 0.167108 0.147402
v -3.86376 3.85823 1.69058
vn -0.944051 0.310246 0.111871
v -3.9366 3.21925 1.70488
vn -0.00694422 0.0187782 0.9998
v -4.00374 2.64011 1.71518
vn 0.0164173 0.0154448 0.999746
v -3.9284 3.21826 1.70473
vn 0.0452738 0.0124831 0.998897
v -3.88576 2.55188 1.70952
vn 0.0395917 -0.0638387 0.997175
v -3.88679 2.5438 1.70848
vn -0.0690624 -0.802544 0.592582
v -3.76543 2.53637 1.70346
vn 0.0436089 -0.119428 0.991885
v -3.88759 2.55142 1.67206
vn -0.0578338 -0.0878674 -0.994452
v -4.00092 2.57771 1.67676
vn -0.0542343 -0.0430926 -0.997598
v -3.77133 2.54991 1.66586
vn -0.0509438 -0.0434916 -0.997754
v -3.95395 3.09048 1.66787
vn -0.104496 -0.0052833 -0.994511
v -3.87581 3.77086 1.65622
vn -0.182041 0.00454564 -0.98328
v -3.86646 3.79732 1.65504
vn -0.0809591 -0.00771979 -0.996688
v -3.59817 3.80799 1.65807
vn 0.998066 -0.0390698 -0.0483512
v -3.59767 3.82601 1.67795
vn 0.996973 0.075192 0.0197511
v -3.59838 3.7964 1.67917
vn 0.995981 -0.0715537 0.0538728
v -3.60121 3.76844 1.65891
vn 0.992258 -0.114894 -0.047152
v -3.60009 3.79598 1.64425
vn 0.978553 -0.0740027 -0.192242
v -3.5993 3.82561 1.64468
vn 0.988653 0.0749209 -0.130203
v -3.6781 3.18795 1.69261
vn 0.104492 0.00528377 0.994512
v -3.61095 3.76709 1.68237
vn 0.0812331 0.00864247 0.996658
v -3.68627 3.18894 1.69324
vn 0.0524366 0.0116157 0.998557
v -3.74754 2.56581 1.68036
vn 0.978678 -0.200305 -0.0454616
v -3.7449 2.57785 1.70104
vn 0.984786 -0.164658 0.0555439
v -3.75123 2.54889 1.70087
vn 0.950828 -0.308573 0.0266416
v -3.69545 3.05918 1.65561
vn 0.00694841 -0.0187787 -0.9998
v -3.7427 2.6354 1.6634
vn 0.0871735 -0.0287119 -0.995779
v -3.75208 2.60893 1.66378
vn -0.0163174 -0.0166422 -0.999728
v -3.73086 3.85485 1.64866
vn -0.0395916 0.063839 -0.997175
v -3.61758 3.82855 1.64291
vn -0.0434287 0.0190058 -0.998876
v -3.84717 3.85635 1.65381
vn -0.0467193 0.0194029 -0.99872
v -3.72903 3.8553 1.68613
vn 0.0578338 0.0878674 0.994452
v -3.72812 3.86335 1.68479
vn 0.125617 0.816497 0.563518
v -3.84939 3.8708 1.69147
vn 0.0532541 0.143321 0.988242
v -3.99904 2.57818 1.71527
vn 0.0434289 -0.0190055 0.998876
v -4.00634 2.56555 1.71489
vn 0.0219758 -0.116807 0.992911
v -3.87392 3.77133 1.69478
vn -0.0860998 0.0285542 0.995877
v -4.00658 2.66805 1.71458
vn -0.0861857 0.0279078 0.995888
v -3.87171 3.82887 1.65715
vn -0.981565 0.163358 -0.0992207
v -3.87582 3.8017 1.67194
vn -0.99101 0.125272 0.0469659
v -4.00567 2.63964 1.67582
vn -0.0814989 -0.00874913 -0.996635
v -4.00847 2.66758 1.67602
vn -0.184059 0.00413316 -0.982906
v -3.8885 2.54338 1.67339
vn -0.118447 -0.703512 -0.700743
v -4.00814 2.5651 1.67815
vn -0.0748875 -0.140697 -0.987216
v -3.86454 3.7978 1.6944
vn 0.0165485 0.0164753 0.999727
v -3.76944 2.55037 1.70437
vn 0.0467193 -0.0194029 0.99872
v -3.76722 2.53593 1.66671
vn -0.0532541 -0.143321 -0.988242
v -3.94596 3.0879 1.66727
vn -0.052436 -0.0116158 -0.998557
v -3.86538 3.85783 1.65731
vn -0.950068 0.309696 -0.0381959
v -3.6157 3.82901 1.68143
vn 0.0542343 0.0430923 0.997598
v -3.60848 3.84162 1.68004
vn 0.0748875 0.140697 0.987216
v -3.74081 2.63586 1.70197
vn 0.18292 -0.00467982 0.983117
v -3.60815 3.73915 1.68217
vn 0.18299 -0.00403134 0.983106
v -3.74661 2.57743 1.66612
vn 0.967388 -0.166856 -0.190575
v -3.74112 2.60495 1.67979
vn 0.99101 -0.125272 -0.0469659
v -3.61288 3.76661 1.643
vn -0.0165919 -0.0155144 -0.999742
v -3.61004 3.73868 1.6436
vn 0.0852894 -0.027827 -0.995968
v -3.72983 3.86292 1.64971
vn 0.0486692 0.686301 -0.725688
v -3.61028 3.84118 1.64329
vn -0.0219759 0.116806 -0.992912
v -3.84529 3.85682 1.69232
vn 0.0509438 0.0434916 0.997754
v -3.75016 2.6094 1.70314
vn 0.0811089 0.00761085 0.996676
v -3.75286 2.54849 1.6676
vn 0.94217 -0.31164 -0.12327
v -3.70384 3.05858 1.65578
vn -0.045275 -0.012483 -0.998897
v -3.85119 3.87036 1.65472
vn -0.0436089 0.119428 -0.991885
v -4.00422 2.60046 1.71555
vn 0.0419889 0.00229121 0.999115
v -4.01119 2.61136 1.71545
vn -0.0601932 0.0124856 0.998109
v -4.01064 2.58087 1.71549
vn -0.0353593 -0.0175908 0.99922
v -3.87152 3.80887 1.69356
vn -0.330845 0.0598155 0.941787
v -3.87819 3.77245 1.69316
vn -0.981356 0.121737 0.148732
v -3.94302 3.22001 1.70426
vn -0.339446 0.0576658 0.938856
v -3.87335 3.80842 1.65629
vn -0.422477 0.0372124 -0.905609
v -3.95955 3.09729 1.66899
vn -0.429519 0.0354527 -0.902362
v -3.8799 3.77203 1.65821
vn -0.986841 0.117767 -0.110798
v -4.00614 2.59998 1.67644
vn -0.0557161 -0.0218044 -0.998209
v -4.0125 2.58041 1.67761
vn -0.132685 -0.0415918 -0.990285
v -4.01307 2.61089 1.67696
vn -0.157313 -0.0114722 -0.987482
v -3.88813 2.54098 1.68731
vn -0.119365 -0.992691 0.017811
v -4.00733 2.55915 1.7133
vn -0.191939 -0.964701 0.180312
v -4.00896 2.55874 1.67999
vn -0.207459 -0.964979 -0.160547
v -3.8556 3.83643 1.69337
vn 0.0444986 0.0231634 0.998741
v -3.8572 3.85696 1.69259
vn -0.0259354 0.060802 0.997813
v -3.86495 3.82749 1.69362
vn -0.0571839 0.0374466 0.997661
v -3.7591 2.57077 1.70392
vn 0.0532056 0.00093349 0.998583
v -3.76209 2.61018 1.70391
vn 0.0495333 0.0114379 0.998707
v -3.88203 2.58251 1.70989
vn 0.0476291 0.00186861 0.998863
v -3.75855 2.53913 1.66686
vn 0.585876 -0.480641 -0.652482
v -3.7576 2.53596 1.68104
vn 0.784877 -0.618879 -0.0309288
v -3.76777 2.52954 1.66854
vn -0.0442499 -0.984744 -0.168292
v -3.82496 3.07273 1.66146
vn -0.0488558 -0.0120495 -0.998733
v -3.76403 2.6097 1.66416
vn -0.0481933 -0.0127997 -0.998756
v -3.99389 2.63754 1.67507
vn -0.0496773 -0.01262 -0.998686
v -3.85981 3.86717 1.6558
vn -0.647322 0.46549 -0.603566
v -3.85906 3.8565 1.6547
vn -0.123255 0.0367965 -0.991693
v -3.86646 3.84728 1.65578
vn -0.359767 0.0777205 -0.9298
v -3.61048 3.80674 1.68174
vn 0.0557163 0.0218044 0.998209
v -3.60355 3.79584 1.68122
vn 0.157309 0.0114724 0.987483
v -3.60412 3.82631 1.68058
vn 0.132682 0.0415908 0.990286
v -3.74327 2.5983 1.70189
vn 0.421244 -0.0375207 0.906171
v -3.73672 2.6347 1.69997
vn 0.991329 -0.119277 0.055139
v -3.67177 3.18717 1.69139
vn 0.42953 -0.0354541 0.902356
v -3.74509 2.59785 1.66462
vn 0.329019 -0.0602713 -0.942398
v -3.68831 3.06444 1.65612
vn 0.339452 -0.0576665 -0.938854
v -3.73843 2.63428 1.66502
vn 0.97506 -0.121685 -0.185609
v -3.6124 3.80627 1.64263
vn -0.0419888 -0.00229118 -0.999115
v -3.60597 3.82586 1.64269
vn 0.0353593 0.0175909 -0.99922
v -3.60543 3.79537 1.64273
vn 0.060193 -0.0124856 -0.998109
v -3.72885 3.86566 1.66354
vn 0.119365 0.992691 -0.0178112
v -3.60766 3.84798 1.6782
vn 0.207482 0.968534 0.137451
v -3.60928 3.84758 1.64489
vn 0.189666 0.960592 -0.203197
v -3.85258 3.79702 1.69402
vn 0.0481785 0.0126608 0.998758
v -3.73267 3.82469 1.6876
vn 0.0500774 0.0222279 0.998498
v -3.75756 2.55022 1.70348
vn 0.123255 -0.0367965 0.991693
v -3.74978 2.5797 1.70304
vn 0.154317 -0.0134913 0.987929
v -3.75942 2.54977 1.6656
vn 0.0259354 -0.060802 -0.997813
v -3.75195 2.559 1.66572
vn 0.267401 -0.100502 -0.95833
v -3.85453 3.79654 1.65427
vn -0.0495424 -0.0115287 -0.998705
v -3.62467 3.76871 1.64336
vn -0.0480655 -0.0117075 -0.998776
v -3.85937 3.87068 1.66992
vn -0.784877 0.618879 0.0309288
v -3.85048 3.87679 1.65633
vn 0.0264562 0.980357 -0.195451
v -4.01402 2.5707 1.71459
vn -0.768344 -0.345801 0.53858
v -4.01571 2.5916 1.715
vn -0.279524 -0.000306044 0.960139
v -4.01316 2.63098 1.7147
vn -0.331565 0.053642 0.941906
v -4.01101 2.66791 1.71299
vn -0.981608 0.119638 0.148769
v -3.94632 3.22001 1.68196
vn -0.991648 0.120085 0.0470596
v -4.01272 2.66749 1.67803
vn -0.988923 0.116145 -0.092417
v -4.01498 2.63053 1.67743
vn -0.420368 0.0304764 -0.906842
v -4.01751 2.59116 1.67833
vn -0.371874 -0.0230873 -0.927996
v -4.01575 2.57027 1.67907
vn -0.741757 -0.319863 -0.589479
v -4.0161 2.56726 1.69331
vn -0.90905 -0.413741 0.0494583
v -3.86467 3.84772 1.69246
vn -0.267401 0.100502 0.95833
v -3.99195 2.63802 1.71482
vn 0.0480529 0.0116172 0.998777
v -3.76614 2.52994 1.70185
vn -0.0273738 -0.984629 0.172501
v -3.88395 2.58203 1.67058
vn -0.0500774 -0.0222279 -0.998498
v -3.86683 3.82703 1.65514
vn -0.154317 0.0134913 -0.987929
v -3.60086 3.83645 1.67911
vn 0.816825 0.357772 0.452543
v -3.59911 3.81556 1.67986
vn 0.371867 0.0230856 0.927999
v -3.60164 3.77619 1.68075
vn 0.421988 -0.0313495 0.906059
v -3.6039 3.73924 1.68015
vn 0.991581 -0.117178 0.0551032
v -3.67065 3.18663 1.66888
vn 0.991648 -0.120084 -0.0470596
v -3.60561 3.73881 1.6452
vn 0.971717 -0.119406 -0.203737
v -3.60346 3.77574 1.64348
vn 0.332746 -0.0542422 -0.941455
v -3.60091 3.81512 1.64318
vn 0.279524 0.000305659 -0.960139
v -3.6026 3.83602 1.64359
vn 0.680317 0.304712 -0.666573
v -3.60087 3.83938 1.65765
vn 0.909046 0.413749 -0.0494614
v -3.62273 3.76919 1.68311
vn 0.0496587 0.0124816 0.998688
v -3.75015 2.55945 1.7024
vn 0.359767 -0.0777205 0.9298
v -3.75167 2.57924 1.66456
vn 0.0571839 -0.0374466 -0.997661
v -3.73459 3.82422 1.64829
vn -0.0476291 -0.00186861 -0.998863
v -3.84885 3.87719 1.68964
vn 0.042919 0.988462 0.145261
v -3.85807 3.8676 1.69132
vn -0.662208 0.53688 0.522724
v -3.80733 3.2036 1.69907
vn 0.0488558 0.0120495 0.998733
v -3.75681 2.53956 1.70239
vn 0.710688 -0.524921 0.468381
v -3.76101 2.5703 1.66481
vn -0.0444986 -0.0231634 -0.998741
v -3.85752 3.83595 1.65426
vn -0.0532056 -0.00093349 -0.998583
f 1//1 2//2 3//3
f 1//1 3//3 4//4
f 1//1 4//4 5//5
f 1//1 5//5 6//6
f 1//1 6//6 2//2
f 7//7 8//8 9//9
f 10//10 11//11 12//12
f 13//13 14//14 15//15
f 16//16 17//17 18//18
f 19//19 20//20 21//21
f 22//22 23//23 24//24
f 22//22 24//24 25//25
f 22//22 25//25 26//26
f 22//22 26//26 27//27
f 22//22 27//27 23//23
f 28//28 29//29 30//30
f 31//31 32//32 33//33
f 34//34 35//35 36//36
f 37//37 38//38 39//39
f 40//40 41//41 42//42
f 13//13 43//43 44//44
f 10//10 45//45 46//46
f 7//7 47//47 48//48
f 19//19 49//49 50//50
f 16//16 51//51 52//52
f 10//10 53//53 45//45
f 13//13 54//54 43//43
f 16//16 55//55 51//51
f 19//19 56//56 49//49
f 7//7 57//57 47//47
f 40//40 58//58 59//59
f 28//28 60//60 61//61
f 31//31 62//62 63//63
f 34//34 64//64 65//65
f 37//37 66//66 67//67
f 40//40 68//68 58//58
f 28//28 69//69 60//60
f 31//31 70//70 62//62
f 34//34 71//71 64//64
f 37//37 72//72 66//66
f 10//10 46//46 11//11
f 7//7 48//48 8//8
f 19//19 50//50 20//20
f 16//16 52//52 17//17
f 13//13 44//44 14//14
f 40//40 42//42 68//68
f 28//28 30//30 69//69
f 31//31 33//33 70//70
f 34//34 36//36 71//71
f 37//37 39//39 72//72
f 28//28 61//61 29//29
f 31//31 63//63 32//32
f 34//34 65//65 35//35
f 37//37 67//67 38//38
f 40//40 59//59 41//41
f 10//10 12//12 53//53
f 13//13 15//15 54//54
f 16//16 18//18 55//55
f 19//19 21//21 56//56
f 7//7 9//9 57//57
f 73//73 74//74 75//75
f 76//76 77//77 78//78
f 79//79 80//80 81//81
f 82//82 83//83 84//84
f 85//85 86//86 87//87
f 88//88 89//89 90//90
f 91//91 92//92 93//93
f 94//94 95//95 96//96
f 97//97 98//98 99//99
f 100//100 101//101 102//102
f 103//103 104//104 105//105
f 106//106 107//107 108//108
f 109//109 110//110 111//111
f 112//112 113//113 114//114
f 115//115 116//116 117//117
f 88//88 118//118 119//119
f 91//91 120//120 121//121
f 94//94 122//122 123//123
f 97//97 124//124 125//125
f 100//100 126//126 127//127
f 128//128 129//129 2//2
f 130//130 131//131 3//3
f 132//132 133//133 4//4
f 134//134 135//135 5//5
f 136//136 137//137 6//6
f 76//76 138//138 8//8
f 73//73 139//139 11//11
f 85//85 140//140 14//14
f 82//82 141//141 17//17
f 79//79 142//142 20//20
f 143//143 144//144 23//23
f 145//145 146//146 24//24
f 147//147 148//148 25//25
f 149//149 150//150 26//26
f 151//151 152//152 27//27
f 103//103 153//153 29//29
f 106//106 154//154 32//32
f 109//109 155//155 35//35
f 112//112 156//156 38//38
f 115//115 157//157 41//41
f 73//73 75//75 43//43
f 76//76 78//78 45//45
f 79//79 81//81 47//47
f 82//82 84//84 49//49
f 85//85 87//87 51//51
f 88//88 90//90 53//53
f 91//91 93//93 54//54
f 94//94 96//96 55//55
f 97//97 99//99 56//56
f 100//100 102//102 57//57
f 103//103 105//105 58//58
f 106//106 108//108 60//60
f 109//109 111//111 62//62
f 112//112 114//114 64//64
f 115//115 117//117 66//66
f 88//88 119//119 68//68
f 91//91 121//121 69//69
f 94//94 123//123 70//70
f 97//97 125//125 71//71
f 100//100 127//127 72//72
f 130//130 74//74 46//46
f 132//132 77//77 48//48
f 134//134 80//80 50//50
f 136//136 83//83 52//52
f 128//128 86//86 44//44
f 158//158 89//89 42//42
f 159//159 92//92 30//30
f 160//160 95//95 33//33
f 161//161 98//98 36//36
f 162//162 101//101 39//39
f 145//145 104//104 61//61
f 147//147 107//107 63//63
f 149//149 110//110 65//65
f 151//151 113//113 67//67
f 143//143 116//116 59//59
f 159//159 118//118 12//12
f 160//160 120//120 15//15
f 161//161 122//122 18//18
f 162//162 124//124 21//21
f 158//158 126//126 9//9
f 130//130 129//129 74//74
f 132//132 131//131 77//77
f 134//134 133//133 80//80
f 136//136 135//135 83//83
f 128//128 137//137 86//86
f 158//158 138//138 89//89
f 159//159 139//139 92//92
f 160//160 140//140 95//95
f 161//161 141//141 98//98
f 162//162 142//142 101//101
f 145//145 144//144 104//104
f 147//147 146//146 107//107
f 149//149 148//148 110//110
f 151//151 150//150 113//113
f 143//143 152//152 116//116
f 159//159 153//153 118//118
f 160//160 154//154 120//120
f 161//161 155//155 122//122
f 162//162 156//156 124//124
f 158//158 157//157 126//126
f 130//130 3//3 129//129
f 132//132 4//4 131//131
f 134//134 5//5 133//133
f 136//136 6//6 135//135
f 128//128 2//2 137//137
f 158//158 9//9 138//138
f 159//159 12//12 139//139
f 160//160 15//15 140//140
f 161//161 18//18 141//141
f 162//162 21//21 142//142
f 145//145 24//24 144//144
f 147//147 25//25 146//146
f 149//149 26//26 148//148
f 151//151 27//27 150//150
f 143//143 23//23 152//152
f 159//159 30//30 153//153
f 160//160 33//33 154//154
f 161//161 36//36 155//155
f 162//162 39//39 156//156
f 158//158 42//42 157//157
f 128//128 44//44 75//75
f 130//130 46//46 78//78
f 132//132 48//48 81//81
f 134//134 50//50 84//84
f 136//136 52//52 87//87
f 76//76 45//45 90//90
f 73//73 43//43 93//93
f 85//85 51//51 96//96
f 82//82 49//49 99//99
f 79//79 47//47 102//102
f 143//143 59//59 105//105
f 145//145 61//61 108//108
f 147//147 63//63 111//111
f 149//149 65//65 114//114
f 151//151 67//67 117//117
f 103//103 58//58 119//119
f 106//106 60//60 121//121
f 109//109 62//62 123//123
f 112//112 64//64 125//125
f 115//115 66//66 127//127
f 73//73 11//11 74//74
f 76//76 8//8 77//77
f 79//79 20//20 80//80
f 82//82 17//17 83//83
f 85//85 14//14 86//86
f 88//88 68//68 89//89
f 91//91 69//69 92//92
f 94//94 70//70 95//95
f 97//97 71//71 98//98
f 100//100 72//72 101//101
f 103//103 29//29 104//104
f 106//106 32//32 107//107
f 109//109 35//35 110//110
f 112//112 38//38 113//113
f 115//115 41//41 116//116
f 88//88 53//53 118//118
f 91//91 54//54 120//120
f 94//94 55//55 122//122
f 97//97 56//56 124//124
f 100//100 57//57 126//126
f 128//128 75//75 129//129
f 130//130 78//78 131//131
f 132//132 81//81 133//133
f 134//134 84//84 135//135
f 136//136 87//87 137//137
f 76//76 90//90 138//138
f 73//73 93//93 139//139
f 85//85 96//96 140//140
f 82//82 99//99 141//141
f 79//79 102//102 142//142
f 143//143 105//105 144//144
f 145//145 108//108 146//146
f 147//147 111//111 148//148
f 149//149 114//114 150//150
f 151//151 117//117 152//152
f 103//103 119//119 153//153
f 106//106 121//121 154//154
f 109//109 123//123 155//155
f 112//112 125//125 156//156
f 115//115 127//127 157//157
f 129//129 3//3 2//2
f 131//131 4//4 3//3
f 133//133 5//5 4//4
f 135//135 6//6 5//5
f 137//137 2//2 6//6
f 138//138 9//9 8//8
f 139//139 12//12 11//11
f 140//140 15//15 14//14
f 141//141 18//18 17//17
f 142//142 21//21 20//20
f 144//144 24//24 23//23
f 146//146 25//25 24//24
f 148//148 26//26 25//25
f 150//150 27//27 26//26
f 152//152 23//23 27//27
f 153//153 30//30 29//29
f 154//154 33//33 32//32
f 155//155 36//36 35//35
f 156//156 39//39 38//38
f 157//157 42//42 41//41
f 75//75 44//44 43//43
f 78//78 46//46 45//45
f 81//81 48//48 47//47
f 84//84 50//50 49//49
f 87//87 52//52 51//51
f 90//90 45//45 53//53
f 93//93 43//43 54//54
f 96//96 51//51 55//55
f 99//99 49//49 56//56
f 102//102 47//47 57//57
f 105//105 59//59 58//58
f 108//108 61//61 60//60
f 111//111 63//63 62//62
f 114//114 65//65 64//64
f 117//117 67//67 66//66
f 119//119 58//58 68//68
f 121//121 60//60 69//69
f 123//123 62//62 70//70
f 125//125 64//64 71//71
f 127//127 66//66 72//72
f 74//74 11//11 46//46
f 77//77 8//8 48//48
f 80//80 20//20 50//50
f 83//83 17//17 52//52
f 86//86 14//14 44//44
f 89//89 68//68 42//42
f 92//92 69//69 30//30
f 95//95 70//70 33//33
f 98//98 71//71 36//36
f 101//101 72//72 39//39
f 104//104 29//29 61//61
f 107//107 32//32 63//63
f 110//110 35//35 65//65
f 113//113 38//38 67//67
f 116//116 41//41 59//59
f 118//118 53//53 12//12
f 120//120 54//54 15//15
f 122//122 55//55 18//18
f 124//124 56//56 21//21
f 126//126 57//57 9//9
f 129//129 75//75 74//74
f 131//131 78//78 77//77
f 133//133 81//81 80//80
f 135//135 84//84 83//83
f 137//137 87//87 86//86
f 138//138 90//90 89//89
f 139//139 93//93 92//92
f 140//140 96//96 95//95
f 141//141 99//99 98//98
f 142//142 102//102 101//101
f 144//144 105//105 104//104
f 146//146 108//108 107//107
f 148//148 111//111 110//110
f 150//150 114//114 113//113
f 152//152 117//117 116//116
f 153//153 119//119 118//118
f 154//154 121//121 120//120
f 155//155 123//123 122//122
f 156//156 125//125 124//124
f 157//157 127//127 126//126
