# Created by Open3D 
# object name: part_047
# number of vertices: 162
# number of triangles: 320
v -4.63123 2.65018 1.99612
vn -0.998205 0.0380099 0.0462741
v -4.62983 2.63256 2.01652
vn -0.990875 -0.0694683 0.115499
v -4.62905 2.66259 2.01673
vn -0.986963 0.0722118 0.143842
v -4.62825 2.69027 1.99542
vn -0.992861 0.110622 0.044611
v -4.6307 2.66191 1.98182
vn -0.993155 0.0671064 -0.0956003
v -4.63139 2.63192 1.98325
vn -0.996814 -0.0737758 -0.0303257
v -4.48589 3.90985 1.96492
vn -0.980384 0.192477 0.0424342
v -4.48648 3.8983 1.98612
vn -0.97667 0.161421 0.141629
v -4.4804 3.92766 1.98444
vn -0.948393 0.298724 0.106374
v -4.55129 3.27974 2.00333
vn -0.0105037 0.0259729 0.999607
v -4.61663 2.69247 2.0178
vn 0.0135978 0.022677 0.99965
v -4.54333 3.27882 2.00322
vn 0.0433352 0.0197426 0.998866
v -4.50207 2.60421 2.01315
vn 0.0382548 -0.0556111 0.997719
v -4.50307 2.59602 2.01217
vn -0.0655504 -0.794877 0.60322
v -4.38522 2.58965 2.00758
vn 0.0429714 -0.110542 0.992942
v -4.50384 2.60349 1.97569
vn -0.055531 -0.094127 -0.99401
v -4.61389 2.62903 1.97985
vn -0.0522584 -0.0499425 -0.997384
v -4.39093 2.60306 1.96986
vn -0.0488653 -0.0503392 -0.997536
v -4.56815 3.14888 1.96725
vn -0.104393 -0.0125886 -0.994456
v -4.49211 3.83881 1.9507
vn -0.184277 -0.00278613 -0.98287
v -4.48302 3.8657 1.94935
vn -0.0801309 -0.0150162 -0.996671
v -4.22249 3.87916 1.95311
vn 0.998205 -0.0380091 -0.0462741
v -4.22201 3.89756 1.97286
vn 0.997215 0.0720791 0.0191434
v -4.22271 3.86757 1.97429
vn 0.99624 -0.0684022 0.0531672
v -4.22546 3.83909 1.95424
vn 0.992861 -0.110622 -0.044611
v -4.22435 3.8669 1.93938
vn 0.979905 -0.0725444 -0.185807
v -4.22357 3.89692 1.93958
vn 0.989424 0.0707339 -0.12664
v -4.30026 3.2505 1.99208
vn 0.104398 0.012588 0.994456
v -4.23492 3.83777 1.97767
vn 0.0804098 0.0159261 0.996635
v -4.3082 3.25143 1.99268
vn 0.050718 0.0188826 0.998534
v -4.36783 2.6195 1.98431
vn 0.980384 -0.192477 -0.0424342
v -4.36528 2.63186 2.0049
vn 0.985947 -0.157612 0.0553827
v -4.37143 2.60246 2.00494
vn 0.954733 -0.296117 0.0282727
v -4.31713 3.11964 1.956
vn 0.0105067 -0.0259733 -0.999607
v -4.36311 2.68993 1.96685
vn 0.0931552 -0.035749 -0.99501
v -4.37223 2.66302 1.96739
vn -0.0134642 -0.0238612 -0.999625
v -4.35133 3.92527 1.94295
vn -0.0382548 0.0556111 -0.997719
v -4.24133 3.8997 1.93774
vn -0.0417492 0.0113391 -0.999064
v -4.46428 3.92568 1.94774
vn -0.0451423 0.0117346 -0.998912
v -4.34957 3.92599 1.98041
vn 0.055531 0.094127 0.99401
v -4.34868 3.93414 1.97902
vn 0.120478 0.817439 0.563274
v -4.46645 3.94054 1.98528
vn 0.0502866 0.148847 0.987581
v -4.61207 2.62978 2.01837
vn 0.0417492 -0.0113391 0.999064
v -4.61917 2.61691 2.01807
vn 0.0206589 -0.107945 0.993942
v -4.49029 3.83956 1.98926
vn -0.0920684 0.0355963 0.995116
v -4.61938 2.72074 2.01698
vn -0.0921433 0.0349578 0.995132
v -4.48812 3.89762 1.95121
vn -0.982888 0.156101 -0.0977987
v -4.49211 3.87015 1.9662
vn -0.991714 0.120562 0.0443638
v -4.61848 2.69171 1.97843
vn -0.0806781 -0.0160315 -0.996611
v -4.62119 2.71999 1.97842
vn -0.186358 -0.00318844 -0.982477
v -4.50472 2.59534 1.97708
vn -0.113461 -0.704262 -0.700815
v -4.6209 2.61619 1.98132
vn -0.0725997 -0.146245 -0.986581
v -4.48117 3.86646 1.98871
vn 0.0137094 0.0236958 0.999625
v -4.38912 2.6038 2.00837
vn 0.0451423 -0.0117346 0.998912
v -4.38695 2.58894 1.97083
vn -0.0502866 -0.148847 -0.987581
v -4.5604 3.14634 1.96669
vn -0.0507181 -0.0188826 -0.998534
v -4.48197 3.92702 1.95117
vn -0.954019 0.297131 -0.0395126
v -4.23951 3.90045 1.97625
vn 0.0522584 0.0499425 0.997384
v -4.2325 3.91329 1.97479
vn 0.0725997 0.146245 0.986581
v -4.36129 2.69067 2.0054
vn 0.18519 0.00265131 0.982699
v -4.23221 3.80949 1.97769
vn 0.185268 0.00328952 0.982683
v -4.36692 2.63118 1.96999
vn 0.969635 -0.161539 -0.183612
v -4.36159 2.65921 1.98347
vn 0.991714 -0.120561 -0.0443638
v -4.23678 3.83701 1.93831
vn -0.0137713 -0.0227464 -0.999646
v -4.23402 3.80874 1.93913
vn 0.0912015 -0.0348766 -0.995222
v -4.35033 3.93347 1.94394
vn 0.04585 0.67649 -0.735023
v -4.23423 3.91258 1.93804
vn -0.0206589 0.107945 -0.993942
v -4.46247 3.92642 1.98625
vn 0.0488653 0.0503392 0.997536
v -4.37038 2.66378 2.00675
vn 0.0802908 0.0149079 0.99666
v -4.373 2.60182 1.97167
vn 0.946627 -0.300167 -0.117459
v -4.32527 3.11895 1.95615
vn -0.0433347 -0.0197426 -0.998866
v -4.46818 3.93983 1.94853
vn -0.0429714 0.110542 -0.992942
v -4.6171 2.65229 2.01847
vn 0.040052 0.0096882 0.999151
v -4.62386 2.66327 2.01826
vn -0.0652421 0.0197551 0.997674
v -4.62334 2.63239 2.01853
vn -0.0393982 -0.00991826 0.999174
v -4.48795 3.8776 1.98777
vn -0.342727 0.065831 0.937126
v -4.49444 3.84064 1.98763
vn -0.982642 0.117943 0.14319
v -4.55752 3.28044 2.00269
vn -0.351455 0.0636875 0.934036
v -4.48971 3.87688 1.9505
vn -0.430611 0.0299556 -0.90204
v -4.57359 3.15573 1.9683
vn -0.437753 0.0282474 -0.898652
v -4.49608 3.83996 1.95268
vn -0.987704 0.112315 -0.108747
v -4.61894 2.65154 1.97936
vn -0.0539944 -0.0289366 -0.998122
v -4.62513 2.63166 1.98065
vn -0.133055 -0.0483823 -0.989927
v -4.62567 2.66252 1.97978
vn -0.158695 -0.0186275 -0.987152
v -4.50437 2.593 1.99102
vn -0.114585 -0.993109 0.0245996
v -4.62013 2.6104 2.01651
vn -0.191018 -0.963224 0.188976
v -4.6217 2.60976 1.9832
vn -0.206092 -0.965969 -0.1563
v -4.47249 3.90567 1.98742
vn 0.042429 0.0302842 0.99864
v -4.47403 3.92645 1.98648
vn -0.0304717 0.0674342 0.997258
v -4.48157 3.89653 1.98771
vn -0.0623974 0.0443831 0.997064
v -4.37907 2.62457 2.0078
vn 0.0516178 0.00833833 0.998632
v -4.38196 2.66446 2.00748
vn 0.0477295 0.018709 0.998685
v -4.49845 2.63528 2.01331
vn 0.0458653 0.00926655 0.998905
v -4.37852 2.59227 1.97098
vn 0.603147 -0.473889 -0.641594
v -4.37761 2.58916 1.98519
vn 0.799543 -0.600044 -0.0260437
v -4.38749 2.58247 1.9727
vn -0.0356312 -0.985826 -0.163947
v -4.4429 3.13213 1.96135
vn -0.0470267 -0.0193128 -0.998707
v -4.38384 2.66369 1.96773
vn -0.046337 -0.0200539 -0.998725
v -4.60704 2.68969 1.97774
vn -0.047867 -0.0198756 -0.998656
v -4.47655 3.93652 1.9496
vn -0.66162 0.449881 -0.599888
v -4.47582 3.92572 1.9486
vn -0.12413 0.0289695 -0.991843
v -4.48302 3.91631 1.94972
vn -0.367169 0.0696711 -0.927541
v -4.23446 3.87794 1.97675
vn 0.0539944 0.0289366 0.998122
v -4.22773 3.86696 1.97633
vn 0.158695 0.0186275 0.987152
v -4.22827 3.89782 1.97546
vn 0.133055 0.0483823 0.989927
v -4.36369 2.6526 2.00561
vn 0.429361 -0.0302549 0.902626
v -4.35732 2.68952 2.00343
vn 0.991961 -0.114117 0.0546956
v -4.29412 3.24976 1.99088
vn 0.437753 -0.0282474 0.898652
v -4.36545 2.65188 1.96834
vn 0.340875 -0.0662858 -0.937769
v -4.31019 3.12504 1.95649
vn 0.351455 -0.0636875 -0.934036
v -4.35896 2.68884 1.96848
vn 0.976716 -0.11819 -0.179043
v -4.2363 3.87719 1.93764
vn -0.040052 -0.0096882 -0.999151
v -4.23006 3.89709 1.93758
vn 0.0393982 0.00991826 -0.999174
v -4.22954 3.86621 1.93785
vn 0.0652421 -0.0197551 -0.997674
v -4.34938 3.93633 1.95775
vn 0.114585 0.993109 -0.0245996
v -4.2317 3.91972 1.9729
vn 0.206176 0.969448 0.132899
v -4.23327 3.91908 1.93959
vn 0.188744 0.958845 -0.212114
v -4.46956 3.86579 1.98837
vn 0.0463233 0.0199167 0.998728
v -4.3531 3.89496 1.98211
vn 0.0481835 0.0293578 0.998407
v -4.37758 2.60376 2.00751
vn 0.12413 -0.0289695 0.991843
v -4.37002 2.6337 2.00688
vn 0.155853 -0.00599985 0.987762
v -4.37937 2.60303 1.96963
vn 0.0304717 -0.0674342 -0.997258
v -4.37211 2.61246 1.96971
vn 0.278518 -0.10606 -0.954557
v -4.47144 3.86502 1.94863
vn -0.0477386 -0.0187985 -0.998683
v -4.24823 3.83902 1.93862
vn -0.0462164 -0.0189758 -0.998751
v -4.47613 3.94018 1.9637
vn -0.799543 0.600044 0.0260437
v -4.46748 3.94636 1.95009
vn 0.0182829 0.978702 -0.204473
v -4.62662 2.62205 2.0177
vn -0.77822 -0.332369 0.532826
v -4.62826 2.64321 2.01795
vn -0.28996 0.00688389 0.957014
v -4.62577 2.68313 2.01736
vn -0.343425 0.0597674 0.937276
v -4.62367 2.72055 2.01537
vn -0.982874 0.115932 0.143242
v -4.56072 3.28026 1.98039
vn -0.9923 0.115593 0.0444878
v -4.62532 2.71987 1.98042
vn -0.989671 0.110875 -0.0908727
v -4.62753 2.68241 1.98009
vn -0.42842 0.0233296 -0.903279
v -4.62999 2.6425 1.98127
vn -0.378583 -0.0295145 -0.925097
v -4.62829 2.62137 1.98218
vn -0.750003 -0.316264 -0.580924
v -4.62864 2.6184 1.99644
vn -0.91496 -0.400331 0.0508198
v -4.48129 3.91702 1.9864
vn -0.278518 0.10606 0.954557
v -4.60517 2.69046 2.01749
vn 0.0462044 0.0188867 0.998753
v -4.38592 2.58312 2.00601
vn -0.0191255 -0.983247 0.181271
v -4.5003 2.63452 1.974
vn -0.0481835 -0.0293578 -0.998407
v -4.48338 3.89578 1.94923
vn -0.155853 0.00599985 -0.987762
v -4.22511 3.90812 1.97393
vn 0.824229 0.351267 0.444137
v -4.22341 3.88698 1.97483
vn 0.378583 0.0295145 0.925097
v -4.22587 3.84707 1.97602
vn 0.430054 -0.0241904 0.902479
v -4.22808 3.80961 1.97569
vn 0.992193 -0.112106 0.0546474
v -4.29303 3.24908 1.96838
vn 0.9923 -0.115593 -0.0444878
v -4.22973 3.80893 1.94073
vn 0.97356 -0.116154 -0.196694
v -4.22763 3.84635 1.93875
vn 0.34462 -0.0603514 -0.9368
v -4.22514 3.88627 1.93816
vn 0.28996 -0.00688389 -0.957014
v -4.22678 3.90743 1.9384
vn 0.691543 0.292254 -0.660573
v -4.2251 3.91094 1.95245
vn 0.91496 0.400331 -0.0508198
v -4.24636 3.83979 1.97837
vn 0.0478487 0.0197391 0.99866
v -4.37038 2.61317 2.00639
vn 0.367169 -0.0696711 0.927541
v -4.37183 2.63295 1.9684
vn 0.0623974 -0.0443831 -0.997064
v -4.35495 3.8942 1.9428
vn -0.0458653 -0.00926655 -0.998905
v -4.46592 3.94701 1.9834
vn 0.0342824 0.989472 0.140609
v -4.47488 3.93721 1.98512
vn -0.679145 0.526391 0.511541
v -4.42576 3.26513 1.99803
vn 0.0470264 0.0193128 0.998707
v -4.37685 2.59296 2.0065
vn 0.725154 -0.50749 0.465409
v -4.38091 2.62381 1.96869
vn -0.042429 -0.0302842 -0.99864
v -4.47433 3.90491 1.94831
vn -0.0516178 -0.00833833 -0.998632
f 1//1 2//2 3//3
f 1//1 3//3 4//4
f 1//1 4//4 5//5
f 1//1 5//5 6//6
f 1//1 6//6 2//2
f 7//7 8//8 9//9
f 10//10 11//11 12//12
f 13//13 14//14 15//15
f 16//16 17//17 18//18
f 19//19 20//20 21//21
f 22//22 23//23 24//24
f 22//22 24//24 25//25
f 22//22 25//25 26//26
f 22//22 26//26 27//27
f 22//22 27//27 23//23
f 28//28 29//29 30//30
f 31//31 32//32 33//33
f 34//34 35//35 36//36
f 37//37 38//38 39//39
f 40//40 41//41 42//42
f 13//13 43//43 44//44
f 10//10 45//45 46//46
f 7//7 47//47 48//48
f 19//19 49//49 50//50
f 16//16 51//51 52//52
f 10//10 53//53 45//45
f 13//13 54//54 43//43
f 16//16 55//55 51//51
f 19//19 56//56 49//49
f 7//7 57//57 47//47
f 40//40 58//58 59//59
f 28//28 60//60 61//61
f 31//31 62//62 63//63
f 34//34 64//64 65//65
f 37//37 66//66 67//67
f 40//40 68//68 58//58
f 28//28 69//69 60//60
f 31//31 70//70 62//62
f 34//34 71//71 64//64
f 37//37 72//72 66//66
f 10//10 46//46 11//11
f 7//7 48//48 8//8
f 19//19 50//50 20//20
f 16//16 52//52 17//17
f 13//13 44//44 14//14
f 40//40 42//42 68//68
f 28//28 30//30 69//69
f 31//31 33//33 70//70
f 34//34 36//36 71//71
f 37//37 39//39 72//72
f 28//28 61//61 29//29
f 31//31 63//63 32//32
f 34//34 65//65 35//35
f 37//37 67//67 38//38
f 40//40 59//59 41//41
f 10//10 12//12 53//53
f 13//13 15//15 54//54
f 16//16 18//18 55//55
f 19//19 21//21 56//56
f 7//7 9//9 57//57
f 73//73 74//74 75//75
f 76//76 77//77 78//78
f 79//79 80//80 81//81
f 82//82 83//83 84//84
f 85//85 86//86 87//87
f 88//88 89//89 90//90
f 91//91 92//92 93//93
f 94//94 95//95 96//96
f 97//97 98//98 99//99
f 100//100 101//101 102//102
f 103//103 104//104 105//105
f 106//106 107//107 108//108
f 109//109 110//110 111//111
f 112//112 113//113 114//114
f 115//115 116//116 117//117
f 88//88 118//118 119//119
f 91//91 120//120 121//121
f 94//94 122//122 123//123
f 97//97 124//124 125//125
f 100//100 126//126 127//127
f 128//128 129//129 2//2
f 130//130 131//131 3//3
f 132//132 133//133 4//4
f 134//134 135//135 5//5
f 136//136 137//137 6//6
f 76//76 138//138 8//8
f 73//73 139//139 11//11
f 85//85 140//140 14//14
f 82//82 141//141 17//17
f 79//79 142//142 20//20
f 143//143 144//144 23//23
f 145//145 146//146 24//24
f 147//147 148//148 25//25
f 149//149 150//150 26//26
f 151//151 152//152 27//27
f 103//103 153//153 29//29
f 106//106 154//154 32//32
f 109//109 155//155 35//35
f 112//112 156//156 38//38
f 115//115 157//157 41//41
f 73//73 75//75 43//43
f 76//76 78//78 45//45
f 79//79 81//81 47//47
f 82//82 84//84 49//49
f 85//85 87//87 51//51
f 88//88 90//90 53//53
f 91//91 93//93 54//54
f 94//94 96//96 55//55
f 97//97 99//99 56//56
f 100//100 102//102 57//57
f 103//103 105//105 58//58
f 106//106 108//108 60//60
f 109//109 111//111 62//62
f 112//112 114//114 64//64
f 115//115 117//117 66//66
f 88//88 119//119 68//68
f 91//91 121//121 69//69
f 94//94 123//123 70//70
f 97//97 125//125 71//71
f 100//100 127//127 72//72
f 130//130 74//74 46//46
f 132//132 77//77 48//48
f 134//134 80//80 50//50
f 136//136 83//83 52//52
f 128//128 86//86 44//44
f 158//158 89//89 42//42
f 159//159 92//92 30//30
f 160//160 95//95 33//33
f 161//161 98//98 36//36
f 162//162 101//101 39//39
f 145//145 104//104 61//61
f 147//147 107//107 63//63
f 149//149 110//110 65//65
f 151//151 113//113 67//67
f 143//143 116//116 59//59
f 159//159 118//118 12//12
f 160//160 120//120 15//15
f 161//161 122//122 18//18
f 162//162 124//124 21//21
f 158//158 126//126 9//9
f 130//130 129//129 74//74
f 132//132 131//131 77//77
f 134//134 133//133 80//80
f 136//136 135//135 83//83
f 128//128 137//137 86//86
f 158//158 138//138 89//89
f 159//159 139//139 92//92
f 160//160 140//140 95//95
f 161//161 141//141 98//98
f 162//162 142//142 101//101
f 145//145 144//144 104//104
f 147//147 146//146 107//107
f 149//149 148//148 110//110
f 151//151 150//150 113//113
f 143//143 152//152 116//116
f 159//159 153//153 118//118
f 160//160 154//154 120//120
f 161//161 155//155 122//122
f 162//162 156//156 124//124
f 158//158 157//157 126//126
f 130//130 3//3 129//129
f 132//132 4//4 131//131
f 134//134 5//5 133//133
f 136//136 6//6 135//135
f 128//128 2//2 137//137
f 158//158 9//9 138//138
f 159//159 12//12 139//139
f 160//160 15//15 140//140
f 161//161 18//18 141//141
f 162//162 21//21 142//142
f 145//145 24//24 144//144
f 147//147 25//25 146//146
f 149//149 26//26 148//148
f 151//151 27//27 150//150
f 143//143 23//23 152//152
f 159//159 30//30 153//153
f 160//160 33//33 154//154
f 161//161 36//36 155//155
f 162//162 39//39 156//156
f 158//158 42//42 157//157
f 128//128 44//44 75//75
f 130//130 46//46 78//78
f 132//132 48//48 81//81
f 134//134 50//50 84//84
f 136//136 52//52 87//87
f 76//76 45//45 90//90
f 73//73 43//43 93//93
f 85//85 51//51 96//96
f 82//82 49//49 99//99
f 79//79 47//47 102//102
f 143//143 59//59 105//105
f 145//145 61//61 108//108
f 147//147 63//63 111//111
f 149//149 65//65 114//114
f 151//151 67//67 117//117
f 103//103 58//58 119//119
f 106//106 60//60 121//121
f 109//109 62//62 123//123
f 112//112 64//64 125//125
f 115//115 66//66 127//127
f 73//73 11//11 74//74
f 76//76 8//8 77//77
f 79//79 20//20 80//80
f 82//82 17//17 83//83
f 85//85 14//14 86//86
f 88//88 68//68 89//89
f 91//91 69//69 92//92
f 94//94 70//70 95//95
f 97//97 71//71 98//98
f 100//100 72//72 101//101
f 103//103 29//29 104//104
f 106//106 32//32 107//107
f 109//109 35//35 110//110
f 112//112 38//38 113//113
f 115//115 41//41 116//116
f 88//88 53//53 118//118
f 91//91 54//54 120//120
f 94//94 55//55 122//122
f 97//97 56//56 124//124
f 100//100 57//57 126//126
f 128//128 75//75 129//129
f 130//130 78//78 131//131
f 132//132 81//81 133//133
f 134//134 84//84 135//135
f 136//136 87//87 137//137
f 76//76 90//90 138//138
f 73//73 93//93 139//139
f 85//85 96//96 140//140
f 82//82 99//99 141//141
f 79//79 102//102 142//142
f 143//143 105//105 144//144
f 145//145 108//108 146//146
f 147//147 111//111 148//148
f 149//149 114//114 150//150
f 151//151 117//117 152//152
f 103//103 119//119 153//153
f 106//106 121//121 154//154
f 109//109 123//123 155//155
f 112//112 125//125 156//156
f 115//115 127//127 157//157
f 129//129 3//3 2//2
f 131//131 4//4 3//3
f 133//133 5//5 4//4
f 135//135 6//6 5//5
f 137//137 2//2 6//6
f 138//138 9//9 8//8
f 139//139 12//12 11//11
f 140//140 15//15 14//14
f 141//141 18//18 17//17
f 142//142 21//21 20//20
f 144//144 24//24 23//23
f 146//146 25//25 24//24
f 148//148 26//26 25//25
f 150//150 27//27 26//26
f 152//152 23//23 27//27
f 153//153 30//30 29//29
f 154//154 33//33 32//32
f 155//155 36//36 35//35
f 156//156 39//39 38//38
f 157//157 42//42 41//41
f 75//75 44//44 43//43
f 78//78 46//46 45//45
f 81//81 48//48 47//47
f 84//84 50//50 49//49
f 87//87 52//52 51//51
f 90//90 45//45 53//53
f 93//93 43//43 54//54
f 96//96 51//51 55//55
f 99//99 49//49 56//56
f 102//102 47//47 57//57
f 105//105 59//59 58//58
f 108//108 61//61 60//60
f 111//111 63//63 62//62
f 114//114 65//65 64//64
f 117//117 67//67 66//66
f 119//119 58//58 68//68
f 121//121 60//60 69//69
f 123//123 62//62 70//70
f 125//125 64//64 71//71
f 127//127 66//66 72//72
f 74//74 11//11 46//46
f 77//77 8//8 48//48
f 80//80 20//20 50//50
f 83//83 17//17 52//52
f 86//86 14//14 44//44
f 89//89 68//68 42//42
f 92//92 69//69 30//30
f 95//95 70//70 33//33
f 98//98 71//71 36//36
f 101//101 72//72 39//39
f 104//104 29//29 61//61
f 107//107 32//32 63//63
f 110//110 35//35 65//65
f 113//113 38//38 67//67
f 116//116 41//41 59//59
f 118//118 53//53 12//12
f 120//120 54//54 15//15
f 122//122 55//55 18//18
f 124//124 56//56 21//21
f 126//126 57//57 9//9
f 129//129 75//75 74//74
f 131//131 78//78 77//77
f 133//133 81//81 80//80
f 135//135 84//84 83//83
f 137//137 87//87 86//86
f 138//138 90//90 89//89
f 139//139 93//93 92//92
f 140//140 96//96 95//95
f 141//141 99//99 98//98
f 142//142 102//102 101//101
f 144//144 105//105 104//104
f 146//146 108//108 107//107
f 148//148 111//111 110//110
f 150//150 114//114 113//113
f 152//152 117//117 116//116
f 153//153 119//119 118//118
f 154//154 121//121 120//120
f 155//155 123//123 122//122
f 156//156 125//125 124//124
f 157//157 127//127 126//126
