# Created by Open3D 
# object name: part_019
# number of vertices: 162
# number of triangles: 320
v -2.33096 3.60877 0.975673
vn -0.0135411 -0.00167327 -0.999907
v -2.30683 3.63804 0.975844
vn 0.0232063 0.0234814 -0.999455
v -2.31304 3.58451 0.975835
vn 0.0327842 -0.016616 -0.999324
v -2.34015 3.53699 0.976638
vn -0.0160859 -0.0210754 -0.999648
v -2.34769 3.58906 0.976297
vn -0.0826982 -0.00140411 -0.996574
v -2.33986 3.64237 0.976284
vn -0.0479496 0.0332516 -0.998296
v -2.62762 1.34385 1.03126
vn -0.0189724 -0.0431285 -0.998889
v -2.60406 1.36266 1.03037
vn 0.0296418 -0.0406025 -0.998736
v -2.61184 1.30941 1.033
vn 0.0100627 -0.0768423 -0.996992
v -2.45631 2.47337 1.00617
vn 0.982395 -0.131923 -0.132275
v -2.31803 3.52882 0.98143
vn 0.987915 -0.131141 -0.0826205
v -2.45601 2.47342 1.01004
vn 0.991248 -0.130349 -0.0209097
v -2.30059 3.66316 1.03809
vn 0.995974 -0.0885066 -0.0142171
v -2.29984 3.67801 1.03775
vn 0.864224 0.50247 -0.0253205
v -2.2998 3.66615 1.09497
vn 0.998295 -0.0577462 0.00847118
v -2.33778 3.66804 1.03859
vn -0.985086 0.171632 0.0121777
v -2.34214 3.6443 0.984906
vn -0.989067 0.147175 0.00924765
v -2.34038 3.64673 1.09339
vn -0.988952 0.147334 0.0163275
v -2.46469 2.71242 1.00095
vn -0.986272 0.126581 -0.106044
v -2.62674 1.47257 1.02966
vn -0.95667 0.118619 -0.265917
v -2.63359 1.42309 1.03376
vn -0.990186 0.128088 -0.0558994
v -2.62554 1.34673 1.15943
vn 0.0135431 0.00167278 0.999907
v -2.6098 1.31223 1.15872
vn 0.0425263 -0.0321134 0.998579
v -2.60197 1.36554 1.15871
vn 0.0621256 0.00415353 0.99806
v -2.61591 1.41845 1.15846
vn 0.0160875 0.0210753 0.999648
v -2.63663 1.37009 1.15917
vn -0.0534043 0.0192756 0.998387
v -2.64283 1.31656 1.15916
vn -0.0287463 -0.0231816 0.999318
v -2.45433 2.47611 1.12831
vn 0.986271 -0.126581 0.106053
v -2.59256 1.42064 1.15306
vn 0.9901 -0.128591 0.0562649
v -2.45415 2.47599 1.12444
vn 0.991498 -0.130004 -0.00550852
v -2.32887 3.61164 1.10383
vn 0.0189729 0.0431284 0.998889
v -2.31095 3.58739 1.10418
vn 0.0652668 0.0281403 0.997471
v -2.30479 3.64085 1.10157
vn 0.0556649 0.0682115 0.996117
v -2.46271 2.71516 1.12309
vn -0.982396 0.131923 0.132264
v -2.3612 3.48706 1.10586
vn -0.946389 0.131394 0.295099
v -2.35515 3.53664 1.10177
vn -0.987787 0.131785 0.0831262
v -2.64907 1.29144 1.09692
vn -0.995974 0.0885065 0.0142171
v -2.64575 1.31532 1.15061
vn -0.99343 0.113145 0.0171657
v -2.64752 1.31289 1.04213
vn -0.993545 0.112986 0.0100879
v -2.61188 1.28656 1.09642
vn 0.985086 -0.171632 -0.0121777
v -2.61499 1.27202 1.0968
vn 0.705596 -0.708601 0.00440547
v -2.61338 1.28366 1.03955
vn 0.978794 -0.201867 -0.034811
v -2.30391 3.63928 0.984397
vn 0.99343 -0.113145 -0.0171656
v -2.30165 3.6636 0.981138
vn 0.997534 -0.0587955 -0.0383241
v -2.58846 1.46754 1.02915
vn 0.947033 -0.131411 -0.293019
v -2.32497 3.47921 0.979774
vn 0.947079 -0.131068 -0.293022
v -2.63871 1.36721 1.03083
vn -0.0858451 -0.0254269 -0.995984
v -2.61802 1.41554 1.02871
vn -0.016434 -0.0237356 -0.999583
v -2.3571 3.53396 0.981951
vn -0.990063 0.128649 -0.0567896
v -2.36324 3.48424 0.980284
vn -0.95558 0.118733 -0.269756
v -2.33467 3.68258 1.03821
vn -0.812087 0.583536 0.000130087
v -2.33813 3.66839 0.981624
vn -0.979554 0.200823 -0.0119847
v -2.59451 1.41796 1.03324
vn 0.987841 -0.131704 -0.0826065
v -2.30215 3.64171 1.09288
vn 0.993545 -0.112986 -0.010088
v -2.33628 3.67094 1.09546
vn -0.978794 0.201867 0.034811
v -2.46449 2.71544 1.00475
vn -0.991498 0.130004 0.00550687
v -2.64487 1.31374 1.03344
vn -0.0611993 -0.067901 -0.995813
v -2.60752 1.3103 1.1501
vn 0.989067 -0.147175 -0.00924766
v -2.61153 1.28621 1.15338
vn 0.979554 -0.200822 0.0119847
v -2.32292 3.48203 1.10535
vn 0.9562 -0.118501 0.267653
v -2.58642 1.47036 1.15472
vn 0.956159 -0.118845 0.267647
v -2.3456 3.59194 1.10464
vn -0.0502564 0.043298 0.997797
v -2.33804 3.5399 1.10639
vn 0.0164326 0.0237357 0.999583
v -2.63164 1.42577 1.15358
vn -0.987939 0.131185 0.082264
v -2.62469 1.47538 1.15523
vn -0.947608 0.131108 0.291288
v -2.64982 1.27659 1.09726
vn -0.934906 -0.35414 0.0231455
v -2.64801 1.291 1.15387
vn -0.997534 0.0587955 0.0383241
v -2.60928 1.30787 1.04162
vn 0.988952 -0.147334 -0.0163274
v -2.31608 3.53151 1.10125
vn 0.990174 -0.128028 0.0562556
v -2.33782 3.64519 1.10201
vn -0.0154967 0.0779722 0.996835
v -2.46263 2.718 1.11916
vn -0.991248 0.130349 0.0209117
v -2.64986 1.28845 1.04004
vn -0.998295 0.0577462 -0.00847117
v -2.30877 3.60026 0.981679
vn 0.991865 -0.124732 -0.0254095
v -2.31151 3.58213 0.978281
vn 0.962902 -0.125183 -0.239057
v -2.30462 3.63687 0.97891
vn 0.976976 -0.110859 -0.182284
v -2.59802 1.39959 1.02986
vn 0.735102 -0.114085 -0.668289
v -2.59043 1.46659 1.02719
vn 0.0313459 -0.028903 -0.999091
v -2.45728 2.47342 1.00318
vn 0.727002 -0.111852 -0.677463
v -2.63502 1.40445 1.03035
vn -0.755675 0.081843 -0.649813
v -2.46527 2.70125 0.998199
vn -0.748727 0.0819244 -0.657797
v -2.62513 1.47114 1.02765
vn -0.0901358 -0.0129204 -0.995846
v -2.34759 3.60535 0.982197
vn -0.990763 0.135605 0.00100477
v -2.34222 3.64181 0.979411
vn -0.976912 0.145705 -0.15625
v -2.34971 3.58714 0.97879
vn -0.96851 0.12843 -0.213295
v -2.32029 3.68545 1.03791
vn 0.129834 0.991237 -0.0243302
v -2.30183 3.67548 0.98081
vn 0.381648 0.86481 -0.326264
v -2.3349 3.67982 0.98125
vn -0.191703 0.929939 -0.313788
v -2.60395 1.34665 1.03699
vn 0.99037 -0.136147 -0.0251315
v -2.60938 1.31011 1.03602
vn 0.971425 -0.153268 -0.181226
v -2.60196 1.36469 1.03271
vn 0.961152 -0.13856 -0.238721
v -2.30689 3.60285 1.0975
vn 0.992258 -0.124191 -0.00128608
v -2.31582 3.53256 1.09561
vn 0.991464 -0.129859 -0.0116261
v -2.30699 3.60721 1.03945
vn 0.992116 -0.12461 -0.0133454
v -2.33661 3.66332 1.09948
vn -0.363117 0.208572 0.908099
v -2.32178 3.66743 1.09946
vn 0.0361169 0.175225 0.983866
v -2.33304 3.68238 1.09521
vn -0.18208 0.943199 0.277888
v -2.46352 2.71765 1.06193
vn -0.991402 0.13018 0.0132093
v -2.35528 3.53774 1.09614
vn -0.991328 0.130577 0.0147975
v -2.35704 3.53531 0.987529
vn -0.99138 0.130506 0.0116036
v -2.64832 1.29591 1.03599
vn -0.428302 -0.10465 -0.897555
v -2.64699 1.31505 1.03652
vn -0.982466 0.103294 -0.155215
v -2.64405 1.33311 1.03312
vn -0.814113 0.0684894 -0.576653
v -2.60207 1.34924 1.15281
vn 0.990763 -0.135604 -0.00100485
v -2.59995 1.36746 1.15622
vn 0.96851 -0.12843 0.213294
v -2.60744 1.31279 1.1556
vn 0.976911 -0.145705 0.156251
v -2.31464 3.55015 1.10466
vn 0.756888 -0.0818271 0.648402
v -2.32453 3.48345 1.10736
vn 0.0639006 0.0163963 0.997822
v -2.45519 2.47629 1.13134
vn 0.748727 -0.0819244 0.657797
v -2.35164 3.55501 1.10515
vn -0.73681 0.114559 0.666323
v -2.46318 2.70412 1.12636
vn -0.727002 0.111852 0.677464
v -2.35923 3.48801 1.10782
vn -0.0489199 0.0311981 0.998315
v -2.64089 1.35434 1.15333
vn -0.991865 0.124732 0.02541
v -2.64504 1.31773 1.1561
vn -0.976976 0.110859 0.182284
v -2.63815 1.37247 1.15673
vn -0.962902 0.125183 0.239057
v -2.63666 1.2701 1.09719
vn -0.129835 -0.991237 0.0243302
v -2.61476 1.27478 1.15376
vn 0.153899 -0.935131 0.319132
v -2.64783 1.27912 1.1542
vn -0.416954 -0.850017 0.321901
v -2.59439 1.41686 1.03887
vn 0.991338 -0.130501 -0.0147931
v -2.60365 1.34227 1.09504
vn 0.990658 -0.135745 -0.0130724
v -2.30267 3.63955 1.09849
vn 0.982466 -0.103294 0.155214
v -2.3095 3.58489 1.10179
vn 0.970254 -0.115051 0.213003
v -2.34028 3.64449 1.09899
vn -0.971425 0.153268 0.181226
v -2.34202 3.62627 1.10238
vn -0.788823 0.14199 0.597994
v -2.63384 1.42204 1.0394
vn -0.991458 0.129909 0.0116266
v -2.63208 1.42447 1.148
vn -0.991406 0.12998 0.0148038
v -2.63505 1.28811 1.03565
vn -0.0361172 -0.175225 -0.983866
v -2.64968 1.27656 1.04024
vn -0.426581 -0.863278 -0.269779
v -2.30332 3.65597 0.977484
vn 0.295474 0.0837764 -0.951671
v -2.30765 3.61867 0.976417
vn 0.794982 -0.094844 -0.599173
v -2.31671 3.54729 0.97714
vn 0.73545 -0.111339 -0.668369
v -2.32664 3.48055 0.977757
vn 0.0314165 -0.0283628 -0.999104
v -2.47953 2.47632 1.00243
vn -0.01626 -0.0224055 -0.999617
v -2.36134 3.48511 0.97822
vn -0.0813734 -0.0135155 -0.996592
v -2.35371 3.55215 0.977634
vn -0.758159 0.0851332 -0.646488
v -2.34406 3.62346 0.976902
vn -0.807937 0.115635 -0.577811
v -2.33858 3.6606 0.977954
vn -0.392611 0.167953 -0.904239
v -2.32376 3.6647 0.977315
vn 0.00398698 0.130953 -0.991381
v -2.60764 1.32833 1.03263
vn 0.788822 -0.141989 -0.597995
v -2.31758 3.53013 0.987004
vn 0.991413 -0.12993 -0.0148066
v -2.29998 3.67803 1.09477
vn 0.391424 0.878277 0.274621
v -2.34601 3.61233 1.03997
vn -0.990657 0.135745 0.0130724
v -2.64016 1.3697 1.03322
vn -0.970254 0.11505 -0.213006
v -2.61108 1.294 1.15705
vn 0.288653 -0.160479 0.943889
v -2.6056 1.33114 1.15811
vn 0.807927 -0.115634 0.577826
v -2.59595 1.40245 1.15737
vn 0.756506 -0.0845686 0.648495
v -2.58832 1.46949 1.15679
vn 0.0638296 0.0158561 0.997835
v -2.47741 2.47924 1.13268
vn 0.0162599 0.0224055 0.999617
v -2.62302 1.47405 1.15725
vn -0.0577028 0.0317656 0.997828
v -2.63295 1.40731 1.15787
vn -0.734199 0.111418 0.66973
v -2.64201 1.33592 1.15859
vn -0.794984 0.0948442 0.59917
v -2.64634 1.29863 1.15752
vn -0.398829 -0.0640289 0.914787
v -2.63307 1.29084 1.15779
vn -0.00398631 -0.130953 0.991381
v -2.59262 1.41929 1.14748
vn 0.99139 -0.13043 -0.0116115
v -2.30561 3.62149 1.10189
vn 0.814108 -0.0684886 0.57666
v -2.3477 3.58991 1.1023
vn -0.961152 0.13856 0.23872
v -2.64267 1.34739 1.09556
vn -0.992116 0.12461 0.0133454
v -2.61662 1.27222 1.0398
vn 0.144126 -0.948599 -0.281758
v -2.61305 1.29127 1.03553
vn 0.257932 -0.202807 -0.944638
v -2.455 2.4747 1.06724
vn 0.991402 -0.13018 -0.0132093
v -2.30134 3.65869 1.09901
vn 0.326188 0.126107 0.936856
v -2.34571 3.60795 1.09801
vn -0.99037 0.136147 0.0251316
v -2.64278 1.35175 1.03751
vn -0.992258 0.124191 0.00128581
f 1//1 2//2 3//3
f 1//1 3//3 4//4
f 1//1 4//4 5//5
f 1//1 5//5 6//6
f 1//1 6//6 2//2
f 7//7 8//8 9//9
f 10//10 11//11 12//12
f 13//13 14//14 15//15
f 16//16 17//17 18//18
f 19//19 20//20 21//21
f 22//22 23//23 24//24
f 22//22 24//24 25//25
f 22//22 25//25 26//26
f 22//22 26//26 27//27
f 22//22 27//27 23//23
f 28//28 29//29 30//30
f 31//31 32//32 33//33
f 34//34 35//35 36//36
f 37//37 38//38 39//39
f 40//40 41//41 42//42
f 13//13 43//43 44//44
f 10//10 45//45 46//46
f 7//7 47//47 48//48
f 19//19 49//49 50//50
f 16//16 51//51 52//52
f 10//10 53//53 45//45
f 13//13 54//54 43//43
f 16//16 55//55 51//51
f 19//19 56//56 49//49
f 7//7 57//57 47//47
f 40//40 58//58 59//59
f 28//28 60//60 61//61
f 31//31 62//62 63//63
f 34//34 64//64 65//65
f 37//37 66//66 67//67
f 40//40 68//68 58//58
f 28//28 69//69 60//60
f 31//31 70//70 62//62
f 34//34 71//71 64//64
f 37//37 72//72 66//66
f 10//10 46//46 11//11
f 7//7 48//48 8//8
f 19//19 50//50 20//20
f 16//16 52//52 17//17
f 13//13 44//44 14//14
f 40//40 42//42 68//68
f 28//28 30//30 69//69
f 31//31 33//33 70//70
f 34//34 36//36 71//71
f 37//37 39//39 72//72
f 28//28 61//61 29//29
f 31//31 63//63 32//32
f 34//34 65//65 35//35
f 37//37 67//67 38//38
f 40//40 59//59 41//41
f 10//10 12//12 53//53
f 13//13 15//15 54//54
f 16//16 18//18 55//55
f 19//19 21//21 56//56
f 7//7 9//9 57//57
f 73//73 74//74 75//75
f 76//76 77//77 78//78
f 79//79 80//80 81//81
f 82//82 83//83 84//84
f 85//85 86//86 87//87
f 88//88 89//89 90//90
f 91//91 92//92 93//93
f 94//94 95//95 96//96
f 97//97 98//98 99//99
f 100//100 101//101 102//102
f 103//103 104//104 105//105
f 106//106 107//107 108//108
f 109//109 110//110 111//111
f 112//112 113//113 114//114
f 115//115 116//116 117//117
f 88//88 118//118 119//119
f 91//91 120//120 121//121
f 94//94 122//122 123//123
f 97//97 124//124 125//125
f 100//100 126//126 127//127
f 128//128 129//129 2//2
f 130//130 131//131 3//3
f 132//132 133//133 4//4
f 134//134 135//135 5//5
f 136//136 137//137 6//6
f 76//76 138//138 8//8
f 73//73 139//139 11//11
f 85//85 140//140 14//14
f 82//82 141//141 17//17
f 79//79 142//142 20//20
f 143//143 144//144 23//23
f 145//145 146//146 24//24
f 147//147 148//148 25//25
f 149//149 150//150 26//26
f 151//151 152//152 27//27
f 103//103 153//153 29//29
f 106//106 154//154 32//32
f 109//109 155//155 35//35
f 112//112 156//156 38//38
f 115//115 157//157 41//41
f 73//73 75//75 43//43
f 76//76 78//78 45//45
f 79//79 81//81 47//47
f 82//82 84//84 49//49
f 85//85 87//87 51//51
f 88//88 90//90 53//53
f 91//91 93//93 54//54
f 94//94 96//96 55//55
f 97//97 99//99 56//56
f 100//100 102//102 57//57
f 103//103 105//105 58//58
f 106//106 108//108 60//60
f 109//109 111//111 62//62
f 112//112 114//114 64//64
f 115//115 117//117 66//66
f 88//88 119//119 68//68
f 91//91 121//121 69//69
f 94//94 123//123 70//70
f 97//97 125//125 71//71
f 100//100 127//127 72//72
f 130//130 74//74 46//46
f 132//132 77//77 48//48
f 134//134 80//80 50//50
f 136//136 83//83 52//52
f 128//128 86//86 44//44
f 158//158 89//89 42//42
f 159//159 92//92 30//30
f 160//160 95//95 33//33
f 161//161 98//98 36//36
f 162//162 101//101 39//39
f 145//145 104//104 61//61
f 147//147 107//107 63//63
f 149//149 110//110 65//65
f 151//151 113//113 67//67
f 143//143 116//116 59//59
f 159//159 118//118 12//12
f 160//160 120//120 15//15
f 161//161 122//122 18//18
f 162//162 124//124 21//21
f 158//158 126//126 9//9
f 130//130 129//129 74//74
f 132//132 131//131 77//77
f 134//134 133//133 80//80
f 136//136 135//135 83//83
f 128//128 137//137 86//86
f 158//158 138//138 89//89
f 159//159 139//139 92//92
f 160//160 140//140 95//95
f 161//161 141//141 98//98
f 162//162 142//142 101//101
f 145//145 144//144 104//104
f 147//147 146//146 107//107
f 149//149 148//148 110//110
f 151//151 150//150 113//113
f 143//143 152//152 116//116
f 159//159 153//153 118//118
f 160//160 154//154 120//120
f 161//161 155//155 122//122
f 162//162 156//156 124//124
f 158//158 157//157 126//126
f 130//130 3//3 129//129
f 132//132 4//4 131//131
f 134//134 5//5 133//133
f 136//136 6//6 135//135
f 128//128 2//2 137//137
f 158//158 9//9 138//138
f 159//159 12//12 139//139
f 160//160 15//15 140//140
f 161//161 18//18 141//141
f 162//162 21//21 142//142
f 145//145 24//24 144//144
f 147//147 25//25 146//146
f 149//149 26//26 148//148
f 151//151 27//27 150//150
f 143//143 23//23 152//152
f 159//159 30//30 153//153
f 160//160 33//33 154//154
f 161//161 36//36 155//155
f 162//162 39//39 156//156
f 158//158 42//42 157//157
f 128//128 44//44 75//75
f 130//130 46//46 78//78
f 132//132 48//48 81//81
f 134//134 50//50 84//84
f 136//136 52//52 87//87
f 76//76 45//45 90//90
f 73//73 43//43 93//93
f 85//85 51//51 96//96
f 82//82 49//49 99//99
f 79//79 47//47 102//102
f 143//143 59//59 105//105
f 145//145 61//61 108//108
f 147//147 63//63 111//111
f 149//149 65//65 114//114
f 151//151 67//67 117//117
f 103//103 58//58 119//119
f 106//106 60//60 121//121
f 109//109 62//62 123//123
f 112//112 64//64 125//125
f 115//115 66//66 127//127
f 73//73 11//11 74//74
f 76//76 8//8 77//77
f 79//79 20//20 80//80
f 82//82 17//17 83//83
f 85//85 14//14 86//86
f 88//88 68//68 89//89
f 91//91 69//69 92//92
f 94//94 70//70 95//95
f 97//97 71//71 98//98
f 100//100 72//72 101//101
f 103//103 29//29 104//104
f 106//106 32//32 107//107
f 109//109 35//35 110//110
f 112//112 38//38 113//113
f 115//115 41//41 116//116
f 88//88 53//53 118//118
f 91//91 54//54 120//120
f 94//94 55//55 122//122
f 97//97 56//56 124//124
f 100//100 57//57 126//126
f 128//128 75//75 129//129
f 130//130 78//78 131//131
f 132//132 81//81 133//133
f 134//134 84//84 135//135
f 136//136 87//87 137//137
f 76//76 90//90 138//138
f 73//73 93//93 139//139
f 85//85 96//96 140//140
f 82//82 99//99 141//141
f 79//79 102//102 142//142
f 143//143 105//105 144//144
f 145//145 108//108 146//146
f 147//147 111//111 148//148
f 149//149 114//114 150//150
f 151//151 117//117 152//152
f 103//103 119//119 153//153
f 106//106 121//121 154//154
f 109//109 123//123 155//155
f 112//112 125//125 156//156
f 115//115 127//127 157//157
f 129//129 3//3 2//2
f 131//131 4//4 3//3
f 133//133 5//5 4//4
f 135//135 6//6 5//5
f 137//137 2//2 6//6
f 138//138 9//9 8//8
f 139//139 12//12 11//11
f 140//140 15//15 14//14
f 141//141 18//18 17//17
f 142//142 21//21 20//20
f 144//144 24//24 23//23
f 146//146 25//25 24//24
f 148//148 26//26 25//25
f 150//150 27//27 26//26
f 152//152 23//23 27//27
f 153//153 30//30 29//29
f 154//154 33//33 32//32
f 155//155 36//36 35//35
f 156//156 39//39 38//38
f 157//157 42//42 41//41
f 75//75 44//44 43//43
f 78//78 46//46 45//45
f 81//81 48//48 47//47
f 84//84 50//50 49//49
f 87//87 52//52 51//51
f 90//90 45//45 53//53
f 93//93 43//43 54//54
f 96//96 51//51 55//55
f 99//99 49//49 56//56
f 102//102 47//47 57//57
f 105//105 59//59 58//58
f 108//108 61//61 60//60
f 111//111 63//63 62//62
f 114//114 65//65 64//64
f 117//117 67//67 66//66
f 119//119 58//58 68//68
f 121//121 60//60 69//69
f 123//123 62//62 70//70
f 125//125 64//64 71//71
f 127//127 66//66 72//72
f 74//74 11//11 46//46
f 77//77 8//8 48//48
f 80//80 20//20 50//50
f 83//83 17//17 52//52
f 86//86 14//14 44//44
f 89//89 68//68 42//42
f 92//92 69//69 30//30
f 95//95 70//70 33//33
f 98//98 71//71 36//36
f 101//101 72//72 39//39
f 104//104 29//29 61//61
f 107//107 32//32 63//63
f 110//110 35//35 65//65
f 113//113 38//38 67//67
f 116//116 41//41 59//59
f 118//118 53//53 12//12
f 120//120 54//54 15//15
f 122//122 55//55 18//18
f 124//124 56//56 21//21
f 126//126 57//57 9//9
f 129//129 75//75 74//74
f 131//131 78//78 77//77
f 133//133 81//81 80//80
f 135//135 84//84 83//83
f 137//137 87//87 86//86
f 138//138 90//90 89//89
f 139//139 93//93 92//92
f 140//140 96//96 95//95
f 141//141 99//99 98//98
f 142//142 102//102 101//101
f 144//144 105//105 104//104
f 146//146 108//108 107//107
f 148//148 111//111 110//110
f 150//150 114//114 113//113
f 152//152 117//117 116//116
f 153//153 119//119 118//118
f 154//154 121//121 120//120
f 155//155 123//123 122//122
f 156//156 125//125 124//124
f 157//157 127//127 126//126
