# Created by Open3D 
# object name: part_039
# number of vertices: 162
# number of triangles: 320
v -3.71612 2.52729 1.56083
vn -0.99835 0.0428815 0.0381915
v -3.7149 2.50983 1.58142
vn -0.991433 -0.0681016 0.111453
v -3.71401 2.53991 1.58132
vn -0.987013 0.0794468 0.139621
v -3.71288 2.56743 1.55974
vn -0.992321 0.118409 0.0357427
v -3.71539 2.53889 1.5464
vn -0.991361 0.0715721 -0.109916
v -3.71622 2.50885 1.54814
vn -0.996434 -0.0740924 -0.0403674
v -3.5606 3.78773 1.51767
vn -0.978537 0.203463 0.0326958
v -3.56144 3.77638 1.53899
vn -0.975572 0.172161 0.136451
v -3.55501 3.80572 1.53705
vn -0.944272 0.314124 0.0983698
v -3.63099 3.15738 1.56211
vn -0.0156447 0.0361412 0.999224
v -3.70098 2.56972 1.58216
vn 0.00743225 0.0327851 0.999435
v -3.6227 3.15636 1.56206
vn 0.0359334 0.0297664 0.998911
v -3.5818 2.47976 1.57914
vn 0.0301488 -0.0454025 0.998514
v -3.58285 2.47155 1.57823
vn -0.0762058 -0.787528 0.611549
v -3.46 2.46363 1.57444
vn 0.0340351 -0.100265 0.994378
v -3.58328 2.47866 1.54168
vn -0.048569 -0.103884 -0.993403
v -3.69795 2.5057 1.54488
vn -0.0448715 -0.0598542 -0.997198
v -3.46555 2.47674 1.53655
vn -0.0416198 -0.0602592 -0.997315
v -3.64861 3.02605 1.52726
vn -0.0944681 -0.0224196 -0.995275
v -3.56715 3.71645 1.50414
vn -0.171176 -0.0123102 -0.985164
v -3.55759 3.74327 1.50258
vn -0.0711943 -0.024929 -0.997151
v -3.28604 3.75351 1.50783
vn 0.99835 -0.0428821 -0.0381915
v -3.28567 3.77216 1.52739
vn 0.996974 0.0722152 0.0287566
v -3.2865 3.74212 1.52913
vn 0.99513 -0.0734135 0.0657798
v -3.28926 3.71339 1.50935
vn 0.992321 -0.118409 -0.0357427
v -3.28788 3.74109 1.49421
vn 0.979772 -0.0801852 -0.183348
v -3.28699 3.77118 1.49412
vn 0.989975 0.0692929 -0.123074
v -3.36934 3.12478 1.55273
vn 0.0944707 0.0224193 0.995275
v -3.29936 3.71244 1.53274
vn 0.0714735 0.0258354 0.997108
v -3.37762 3.12582 1.55327
vn 0.0430088 0.0288847 0.998657
v -3.44156 2.49308 1.55098
vn 0.978537 -0.203462 -0.0326959
v -3.43907 2.50565 1.57146
vn 0.98369 -0.166129 0.0689539
v -3.44557 2.47626 1.57176
vn 0.949814 -0.310004 0.0418423
v -3.38696 2.99344 1.51788
vn 0.0156474 -0.0361415 -0.999224
v -3.43626 2.56342 1.53283
vn 0.0948763 -0.0461064 -0.994421
v -3.44585 2.53658 1.53359
vn -0.0073249 -0.0339658 -0.999396
v -3.42009 3.80125 1.49639
vn -0.0301492 0.0454001 -0.998514
v -3.30546 3.77418 1.49213
vn -0.0340326 0.00123271 -0.99942
v -3.53786 3.80314 1.50046
vn -0.0372838 0.00163843 -0.999303
v -3.41861 3.80235 1.53386
vn 0.0485691 0.103886 0.993403
v -3.41765 3.81049 1.53239
vn 0.122364 0.821822 0.55645
v -3.54044 3.81846 1.53784
vn 0.0442425 0.158423 0.98638
v -3.69642 2.50683 1.5834
vn 0.0340324 -0.0012327 0.99942
v -3.70386 2.49402 1.58319
vn 0.012654 -0.0975971 0.995146
v -3.56562 3.71758 1.54271
vn -0.0938198 0.0459498 0.994528
v -3.70375 2.59808 1.58104
vn -0.0939046 0.0453133 0.994549
v -3.56282 3.77536 1.50407
vn -0.979954 0.164022 -0.113081
v -3.56721 3.74803 1.51932
vn -0.991046 0.128744 0.0353824
v -3.70253 2.56857 1.54279
vn -0.0717306 -0.02594 -0.997087
v -3.70528 2.59695 1.54247
vn -0.173184 -0.0127026 -0.984808
v -3.58424 2.47052 1.54314
vn -0.113397 -0.709984 -0.695028
v -3.70531 2.49294 1.54644
vn -0.0656243 -0.155757 -0.985613
v -3.55604 3.74443 1.54194
vn 0.00755754 0.0338002 0.9994
v -3.46403 2.47787 1.57507
vn 0.0372841 -0.00163727 0.999303
v -3.46145 2.46255 1.53769
vn -0.0442426 -0.158423 -0.98638
v -3.64053 3.0234 1.52677
vn -0.0430083 -0.0288848 -0.998657
v -3.55632 3.80474 1.50377
vn -0.94893 0.310908 -0.0535482
v -3.30394 3.77531 1.53065
vn 0.0448713 0.0598542 0.997198
v -3.29658 3.78807 1.5291
vn 0.0656249 0.155759 0.985613
v -3.43474 2.56456 1.57139
vn 0.172051 0.0121718 0.985013
v -3.29661 3.68406 1.53306
vn 0.172133 0.0128086 0.98499
v -3.44045 2.50463 1.53655
vn 0.968364 -0.172634 -0.18019
v -3.43493 2.53279 1.54977
vn 0.991046 -0.128744 -0.0353828
v -3.30091 3.71129 1.49337
vn -0.00760201 -0.0328534 -0.999431
v -3.29813 3.68293 1.4945
vn 0.0930112 -0.0452313 -0.994637
v -3.41903 3.80946 1.4973
vn 0.0565984 0.667781 -0.742203
v -3.29803 3.78699 1.49235
vn -0.0126547 0.0975921 -0.995146
v -3.53634 3.80427 1.53898
vn 0.0416197 0.0602598 0.997315
v -3.4443 2.53774 1.57296
vn 0.0713463 0.0248205 0.997143
v -3.44688 2.47529 1.53848
vn 0.942471 -0.315706 -0.109896
v -3.39545 2.99286 1.51799
vn -0.0359328 -0.0297665 -0.998911
v -3.54189 3.81738 1.50109
vn -0.0340351 0.100265 -0.994378
v -3.7016 2.52947 1.58324
vn 0.0326603 0.0197465 0.999271
v -3.70861 2.54055 1.58288
vn -0.0682605 0.0300792 0.997214
v -3.70816 2.5096 1.58347
vn -0.0438085 0.000406946 0.99904
v -3.56306 3.75568 1.54084
vn -0.335583 0.0766421 0.938888
v -3.56993 3.7187 1.54104
vn -0.982186 0.126991 0.138507
v -3.63748 3.15816 1.56142
vn -0.344119 0.0745041 0.935966
v -3.56454 3.75458 1.50357
vn -0.409982 0.0219979 -0.911828
v -3.65427 3.03299 1.5282
vn -0.417016 0.020343 -0.908672
v -3.57131 3.71768 1.50608
vn -0.985187 0.118401 -0.124049
v -3.70315 2.52832 1.54413
vn -0.0462767 -0.0389007 -0.998171
v -3.70966 2.50848 1.54558
vn -0.122445 -0.0580159 -0.990778
v -3.71013 2.53942 1.54439
vn -0.146744 -0.0282315 -0.988772
v -3.58401 2.46832 1.55711
vn -0.122386 -0.991901 0.0339595
v -3.70486 2.48749 1.58169
vn -0.1965 -0.960378 0.197641
v -3.70618 2.48651 1.54838
vn -0.208983 -0.966592 -0.148413
v -3.54686 3.78361 1.5403
vn 0.0351935 0.0402815 0.998568
v -3.5484 3.80445 1.53913
vn -0.034293 0.0775478 0.996399
v -3.55635 3.77456 1.54063
vn -0.0652242 0.0546453 0.996373
v -3.45349 2.49855 1.57434
vn 0.0437439 0.0183662 0.998874
v -3.45638 2.53857 1.5736
vn 0.0401388 0.0287212 0.998781
v -3.57793 2.51086 1.579
vn 0.0382333 0.0193092 0.999082
v -3.45266 2.46578 1.53786
vn 0.587946 -0.490344 -0.643337
v -3.45185 2.4628 1.55211
vn 0.784262 -0.620298 -0.0127809
v -3.46204 2.45609 1.53963
vn -0.0453118 -0.986988 -0.15428
v -3.51806 3.00761 1.52232
vn -0.0394712 -0.0293258 -0.99879
v -3.45795 2.5374 1.53385
vn -0.0388181 -0.0300671 -0.998794
v -3.69061 2.56639 1.54219
vn -0.0402844 -0.0298844 -0.998741
v -3.55064 3.81419 1.50214
vn -0.637974 0.453178 -0.62259
v -3.54989 3.80333 1.50125
vn -0.112931 0.0191253 -0.993419
v -3.55744 3.79401 1.50243
vn -0.347457 0.061307 -0.93569
v -3.29874 3.75269 1.5314
vn 0.046277 0.0389004 0.998171
v -3.29176 3.74159 1.53114
vn 0.146741 0.0282306 0.988772
v -3.29223 3.77252 1.52995
vn 0.122449 0.0580163 0.990778
v -3.43735 2.52643 1.57197
vn 0.408751 -0.0222877 0.912374
v -3.43058 2.56333 1.56945
vn 0.99034 -0.120933 0.0678318
v -3.36293 3.12395 1.55158
vn 0.417011 -0.0203424 0.908674
v -3.43883 2.52533 1.53469
vn 0.333775 -0.0770956 -0.939495
v -3.37972 2.99878 1.51836
vn 0.344119 -0.0745041 -0.935966
v -3.43196 2.5623 1.5345
vn 0.976115 -0.127564 -0.17586
v -3.30029 3.75154 1.49229
vn -0.0326596 -0.0197452 -0.999271
v -3.29373 3.77141 1.49206
vn 0.0438085 -0.000406946 -0.99904
v -3.29328 3.74046 1.49265
vn 0.0682579 -0.0300798 -0.997214
v -3.41817 3.81247 1.51109
vn 0.122386 0.991901 -0.0339597
v -3.29571 3.79449 1.52715
vn 0.209248 0.969849 0.124935
v -3.29703 3.79352 1.49384
vn 0.194393 0.955751 -0.220797
v -3.54394 3.74361 1.54168
vn 0.0388034 0.0299303 0.998799
v -3.42241 3.77131 1.53584
vn 0.0407048 0.0393393 0.998396
v -3.45199 2.47767 1.57428
vn 0.112931 -0.0191243 0.993419
v -3.44402 2.50758 1.57339
vn 0.143705 0.00366733 0.989614
v -3.45349 2.47656 1.5364
vn 0.0342913 -0.0775466 -0.996399
v -3.4459 2.48592 1.53643
vn 0.27274 -0.11682 -0.954969
v -3.54551 3.74244 1.50193
vn -0.0401484 -0.0288104 -0.998778
v -3.31285 3.71345 1.49359
vn -0.0386892 -0.0289923 -0.998831
v -3.55032 3.81799 1.51621
vn -0.784262 0.620299 0.0127808
v -3.54116 3.82394 1.50259
vn 0.0307201 0.976147 -0.214926
v -3.7116 2.49926 1.58272
vn -0.772146 -0.331869 0.541898
v -3.71325 2.5205 1.58274
vn -0.284985 0.0175039 0.958372
v -3.71053 2.56047 1.58176
vn -0.336347 0.0705611 0.939091
v -3.70822 2.59793 1.57941
vn -0.982444 0.124901 0.138576
v -3.64061 3.15778 1.5391
vn -0.991697 0.123578 0.0355634
v -3.7096 2.5969 1.54445
vn -0.987502 0.117127 -0.105453
v -3.71201 2.55937 1.54449
vn -0.407904 0.015327 -0.912896
v -3.7147 2.51942 1.54607
vn -0.359717 -0.0380075 -0.932287
v -3.71301 2.49822 1.5472
vn -0.734064 -0.325599 -0.595932
v -3.71351 2.49541 1.56149
vn -0.911265 -0.409011 0.048022
v -3.55599 3.79508 1.53911
vn -0.272732 0.116818 0.954972
v -3.68904 2.56756 1.58195
vn 0.038677 0.0289033 0.998834
v -3.46073 2.45707 1.57294
vn -0.0314501 -0.980945 0.191721
v -3.57948 2.5097 1.53969
vn -0.0407049 -0.0393398 -0.998396
v -3.55787 3.77343 1.50214
vn -0.14371 -0.0036659 -0.989613
v -3.28888 3.78279 1.52833
vn 0.811702 0.361248 0.458954
v -3.28719 3.76159 1.52947
vn 0.35972 0.0380078 0.932286
v -3.28988 3.72163 1.53105
vn 0.40949 -0.0162035 0.912171
v -3.29229 3.68411 1.53108
vn 0.990598 -0.118843 0.067761
v -3.36157 3.12301 1.52909
vn 0.991697 -0.123578 -0.0355637
v -3.29367 3.68308 1.49612
vn 0.972877 -0.125599 -0.194254
v -3.29136 3.72054 1.49377
vn 0.337504 -0.0711485 -0.938632
v -3.28864 3.76051 1.49279
vn 0.284985 -0.0175038 -0.958372
v -3.29029 3.78174 1.49281
vn 0.684032 0.288435 -0.670004
v -3.28867 3.78539 1.50682
vn 0.911265 0.409011 -0.048022
v -3.31128 3.71461 1.53334
vn 0.0402653 0.0297481 0.998746
v -3.44445 2.487 1.5731
vn 0.347454 -0.0613065 0.935691
v -3.44554 2.50645 1.5349
vn 0.0652226 -0.0546442 -0.996373
v -3.42396 3.77015 1.49653
vn -0.0382331 -0.0193083 -0.999082
v -3.53984 3.82492 1.5359
vn 0.0441979 0.990416 0.130852
v -3.54923 3.81523 1.53767
vn -0.663937 0.545138 0.511871
v -3.50016 3.14109 1.55774
vn 0.039471 0.0293258 0.99879
v -3.45125 2.46682 1.57339
vn 0.70349 -0.515753 0.488979
v -3.45503 2.4974 1.53523
vn -0.0351935 -0.0402822 -0.998568
v -3.5484 3.78246 1.50119
vn -0.0437437 -0.0183661 -0.998874
f 1//1 2//2 3//3
f 1//1 3//3 4//4
f 1//1 4//4 5//5
f 1//1 5//5 6//6
f 1//1 6//6 2//2
f 7//7 8//8 9//9
f 10//10 11//11 12//12
f 13//13 14//14 15//15
f 16//16 17//17 18//18
f 19//19 20//20 21//21
f 22//22 23//23 24//24
f 22//22 24//24 25//25
f 22//22 25//25 26//26
f 22//22 26//26 27//27
f 22//22 27//27 23//23
f 28//28 29//29 30//30
f 31//31 32//32 33//33
f 34//34 35//35 36//36
f 37//37 38//38 39//39
f 40//40 41//41 42//42
f 13//13 43//43 44//44
f 10//10 45//45 46//46
f 7//7 47//47 48//48
f 19//19 49//49 50//50
f 16//16 51//51 52//52
f 10//10 53//53 45//45
f 13//13 54//54 43//43
f 16//16 55//55 51//51
f 19//19 56//56 49//49
f 7//7 57//57 47//47
f 40//40 58//58 59//59
f 28//28 60//60 61//61
f 31//31 62//62 63//63
f 34//34 64//64 65//65
f 37//37 66//66 67//67
f 40//40 68//68 58//58
f 28//28 69//69 60//60
f 31//31 70//70 62//62
f 34//34 71//71 64//64
f 37//37 72//72 66//66
f 10//10 46//46 11//11
f 7//7 48//48 8//8
f 19//19 50//50 20//20
f 16//16 52//52 17//17
f 13//13 44//44 14//14
f 40//40 42//42 68//68
f 28//28 30//30 69//69
f 31//31 33//33 70//70
f 34//34 36//36 71//71
f 37//37 39//39 72//72
f 28//28 61//61 29//29
f 31//31 63//63 32//32
f 34//34 65//65 35//35
f 37//37 67//67 38//38
f 40//40 59//59 41//41
f 10//10 12//12 53//53
f 13//13 15//15 54//54
f 16//16 18//18 55//55
f 19//19 21//21 56//56
f 7//7 9//9 57//57
f 73//73 74//74 75//75
f 76//76 77//77 78//78
f 79//79 80//80 81//81
f 82//82 83//83 84//84
f 85//85 86//86 87//87
f 88//88 89//89 90//90
f 91//91 92//92 93//93
f 94//94 95//95 96//96
f 97//97 98//98 99//99
f 100//100 101//101 102//102
f 103//103 104//104 105//105
f 106//106 107//107 108//108
f 109//109 110//110 111//111
f 112//112 113//113 114//114
f 115//115 116//116 117//117
f 88//88 118//118 119//119
f 91//91 120//120 121//121
f 94//94 122//122 123//123
f 97//97 124//124 125//125
f 100//100 126//126 127//127
f 128//128 129//129 2//2
f 130//130 131//131 3//3
f 132//132 133//133 4//4
f 134//134 135//135 5//5
f 136//136 137//137 6//6
f 76//76 138//138 8//8
f 73//73 139//139 11//11
f 85//85 140//140 14//14
f 82//82 141//141 17//17
f 79//79 142//142 20//20
f 143//143 144//144 23//23
f 145//145 146//146 24//24
f 147//147 148//148 25//25
f 149//149 150//150 26//26
f 151//151 152//152 27//27
f 103//103 153//153 29//29
f 106//106 154//154 32//32
f 109//109 155//155 35//35
f 112//112 156//156 38//38
f 115//115 157//157 41//41
f 73//73 75//75 43//43
f 76//76 78//78 45//45
f 79//79 81//81 47//47
f 82//82 84//84 49//49
f 85//85 87//87 51//51
f 88//88 90//90 53//53
f 91//91 93//93 54//54
f 94//94 96//96 55//55
f 97//97 99//99 56//56
f 100//100 102//102 57//57
f 103//103 105//105 58//58
f 106//106 108//108 60//60
f 109//109 111//111 62//62
f 112//112 114//114 64//64
f 115//115 117//117 66//66
f 88//88 119//119 68//68
f 91//91 121//121 69//69
f 94//94 123//123 70//70
f 97//97 125//125 71//71
f 100//100 127//127 72//72
f 130//130 74//74 46//46
f 132//132 77//77 48//48
f 134//134 80//80 50//50
f 136//136 83//83 52//52
f 128//128 86//86 44//44
f 158//158 89//89 42//42
f 159//159 92//92 30//30
f 160//160 95//95 33//33
f 161//161 98//98 36//36
f 162//162 101//101 39//39
f 145//145 104//104 61//61
f 147//147 107//107 63//63
f 149//149 110//110 65//65
f 151//151 113//113 67//67
f 143//143 116//116 59//59
f 159//159 118//118 12//12
f 160//160 120//120 15//15
f 161//161 122//122 18//18
f 162//162 124//124 21//21
f 158//158 126//126 9//9
f 130//130 129//129 74//74
f 132//132 131//131 77//77
f 134//134 133//133 80//80
f 136//136 135//135 83//83
f 128//128 137//137 86//86
f 158//158 138//138 89//89
f 159//159 139//139 92//92
f 160//160 140//140 95//95
f 161//161 141//141 98//98
f 162//162 142//142 101//101
f 145//145 144//144 104//104
f 147//147 146//146 107//107
f 149//149 148//148 110//110
f 151//151 150//150 113//113
f 143//143 152//152 116//116
f 159//159 153//153 118//118
f 160//160 154//154 120//120
f 161//161 155//155 122//122
f 162//162 156//156 124//124
f 158//158 157//157 126//126
f 130//130 3//3 129//129
f 132//132 4//4 131//131
f 134//134 5//5 133//133
f 136//136 6//6 135//135
f 128//128 2//2 137//137
f 158//158 9//9 138//138
f 159//159 12//12 139//139
f 160//160 15//15 140//140
f 161//161 18//18 141//141
f 162//162 21//21 142//142
f 145//145 24//24 144//144
f 147//147 25//25 146//146
f 149//149 26//26 148//148
f 151//151 27//27 150//150
f 143//143 23//23 152//152
f 159//159 30//30 153//153
f 160//160 33//33 154//154
f 161//161 36//36 155//155
f 162//162 39//39 156//156
f 158//158 42//42 157//157
f 128//128 44//44 75//75
f 130//130 46//46 78//78
f 132//132 48//48 81//81
f 134//134 50//50 84//84
f 136//136 52//52 87//87
f 76//76 45//45 90//90
f 73//73 43//43 93//93
f 85//85 51//51 96//96
f 82//82 49//49 99//99
f 79//79 47//47 102//102
f 143//143 59//59 105//105
f 145//145 61//61 108//108
f 147//147 63//63 111//111
f 149//149 65//65 114//114
f 151//151 67//67 117//117
f 103//103 58//58 119//119
f 106//106 60//60 121//121
f 109//109 62//62 123//123
f 112//112 64//64 125//125
f 115//115 66//66 127//127
f 73//73 11//11 74//74
f 76//76 8//8 77//77
f 79//79 20//20 80//80
f 82//82 17//17 83//83
f 85//85 14//14 86//86
f 88//88 68//68 89//89
f 91//91 69//69 92//92
f 94//94 70//70 95//95
f 97//97 71//71 98//98
f 100//100 72//72 101//101
f 103//103 29//29 104//104
f 106//106 32//32 107//107
f 109//109 35//35 110//110
f 112//112 38//38 113//113
f 115//115 41//41 116//116
f 88//88 53//53 118//118
f 91//91 54//54 120//120
f 94//94 55//55 122//122
f 97//97 56//56 124//124
f 100//100 57//57 126//126
f 128//128 75//75 129//129
f 130//130 78//78 131//131
f 132//132 81//81 133//133
f 134//134 84//84 135//135
f 136//136 87//87 137//137
f 76//76 90//90 138//138
f 73//73 93//93 139//139
f 85//85 96//96 140//140
f 82//82 99//99 141//141
f 79//79 102//102 142//142
f 143//143 105//105 144//144
f 145//145 108//108 146//146
f 147//147 111//111 148//148
f 149//149 114//114 150//150
f 151//151 117//117 152//152
f 103//103 119//119 153//153
f 106//106 121//121 154//154
f 109//109 123//123 155//155
f 112//112 125//125 156//156
f 115//115 127//127 157//157
f 129//129 3//3 2//2
f 131//131 4//4 3//3
f 133//133 5//5 4//4
f 135//135 6//6 5//5
f 137//137 2//2 6//6
f 138//138 9//9 8//8
f 139//139 12//12 11//11
f 140//140 15//15 14//14
f 141//141 18//18 17//17
f 142//142 21//21 20//20
f 144//144 24//24 23//23
f 146//146 25//25 24//24
f 148//148 26//26 25//25
f 150//150 27//27 26//26
f 152//152 23//23 27//27
f 153//153 30//30 29//29
f 154//154 33//33 32//32
f 155//155 36//36 35//35
f 156//156 39//39 38//38
f 157//157 42//42 41//41
f 75//75 44//44 43//43
f 78//78 46//46 45//45
f 81//81 48//48 47//47
f 84//84 50//50 49//49
f 87//87 52//52 51//51
f 90//90 45//45 53//53
f 93//93 43//43 54//54
f 96//96 51//51 55//55
f 99//99 49//49 56//56
f 102//102 47//47 57//57
f 105//105 59//59 58//58
f 108//108 61//61 60//60
f 111//111 63//63 62//62
f 114//114 65//65 64//64
f 117//117 67//67 66//66
f 119//119 58//58 68//68
f 121//121 60//60 69//69
f 123//123 62//62 70//70
f 125//125 64//64 71//71
f 127//127 66//66 72//72
f 74//74 11//11 46//46
f 77//77 8//8 48//48
f 80//80 20//20 50//50
f 83//83 17//17 52//52
f 86//86 14//14 44//44
f 89//89 68//68 42//42
f 92//92 69//69 30//30
f 95//95 70//70 33//33
f 98//98 71//71 36//36
f 101//101 72//72 39//39
f 104//104 29//29 61//61
f 107//107 32//32 63//63
f 110//110 35//35 65//65
f 113//113 38//38 67//67
f 116//116 41//41 59//59
f 118//118 53//53 12//12
f 120//120 54//54 15//15
f 122//122 55//55 18//18
f 124//124 56//56 21//21
f 126//126 57//57 9//9
f 129//129 75//75 74//74
f 131//131 78//78 77//77
f 133//133 81//81 80//80
f 135//135 84//84 83//83
f 137//137 87//87 86//86
f 138//138 90//90 89//89
f 139//139 93//93 92//92
f 140//140 96//96 95//95
f 141//141 99//99 98//98
f 142//142 102//102 101//101
f 144//144 105//105 104//104
f 146//146 108//108 107//107
f 148//148 111//111 110//110
f 150//150 114//114 113//113
f 152//152 117//117 116//116
f 153//153 119//119 118//118
f 154//154 121//121 120//120
f 155//155 123//123 122//122
f 156//156 125//125 124//124
f 157//157 127//127 126//126
