# Created by Open3D 
# object name: part_011
# number of vertices: 162
# number of triangles: 320
v -4.6103 3.53039 -0.702408
vn -0.999815 -0.0136692 0.0135101
v -4.60833 3.52256 -0.68237
vn -0.936517 -0.338019 0.093162
v -4.60902 3.53492 -0.681476
vn -0.982561 0.100979 0.156133
v -4.60841 3.54622 -0.702134
vn -0.968359 0.249143 0.0144135
v -4.60949 3.5351 -0.71643
vn -0.97688 0.101231 -0.188303
v -4.60878 3.52273 -0.715682
vn -0.936457 -0.340447 -0.0845246
v -4.4773 4.00988 -0.70177
vn -0.849918 0.526723 0.0142266
v -4.47855 4.00529 -0.680851
vn -0.894288 0.419213 0.156554
v -4.47159 4.01553 -0.681714
vn -0.628642 0.771915 0.0946395
v -4.53466 3.76757 -0.6791
vn -0.0244307 0.00544712 0.999687
v -4.59323 3.54319 -0.67942
vn -0.0088193 -0.000240168 0.999961
v -4.52332 3.76443 -0.679026
vn 0.0111414 -0.00442034 0.999928
v -4.42542 3.46635 -0.683044
vn -0.0372427 -0.187348 0.981587
v -4.4263 3.46325 -0.684236
vn -0.253553 -0.928776 0.270345
v -4.25867 3.41972 -0.685903
vn -0.0643559 -0.310712 0.948323
v -4.42593 3.46655 -0.720549
vn -0.0639149 -0.177337 -0.982073
v -4.58362 3.51544 -0.718685
vn -0.0357573 -0.0706756 -0.996858
v -4.26559 3.42723 -0.723455
vn -0.0335192 -0.071292 -0.996892
v -4.54893 3.71825 -0.71852
vn -0.0515848 0.0156367 -0.998546
v -4.48116 3.98211 -0.717721
vn -0.104839 0.031191 -0.994
v -4.46981 3.99027 -0.718235
vn -0.0352279 0.0122224 -0.999305
v -4.10158 3.90567 -0.707404
vn 0.999815 0.0136726 -0.0135101
v -4.10301 3.91331 -0.687242
vn 0.938747 0.337186 0.0711325
v -4.1023 3.90093 -0.686493
vn 0.986425 -0.102434 0.128348
v -4.10347 3.88984 -0.707241
vn 0.968359 -0.249144 -0.0144135
v -4.10277 3.90111 -0.721447
vn 0.97139 -0.0991599 -0.215797
v -4.10346 3.91348 -0.720553
vn 0.933865 0.341415 -0.106452
v -4.17659 3.66826 -0.684469
vn 0.0515761 -0.0156343 0.998547
v -4.11802 3.89264 -0.684094
vn 0.0359746 -0.00995166 0.999303
v -4.18793 3.6714 -0.684056
vn 0.0160209 -0.00577394 0.999855
v -4.23458 3.42618 -0.708042
vn 0.849918 -0.526723 -0.0142266
v -4.23277 3.43056 -0.687119
vn 0.898155 -0.420659 0.127923
v -4.23975 3.42033 -0.687898
vn 0.630881 -0.772747 0.0696554
v -4.19087 3.61894 -0.72389
vn 0.0244284 -0.00544648 -0.999687
v -4.23115 3.45412 -0.723808
vn 0.0791191 -0.0215548 -0.996632
v -4.24251 3.44597 -0.724097
vn 0.00819354 -0.00265911 -0.999963
v -4.28637 3.96968 -0.719879
vn 0.0372427 0.187348 -0.981587
v -4.12869 3.92079 -0.722798
vn 0.00868212 0.0808492 -0.996689
v -4.44672 4.009 -0.718029
vn 0.00644491 0.0814682 -0.996655
v -4.28586 3.96949 -0.682375
vn 0.0639157 0.177341 0.982072
v -4.28501 3.9726 -0.683558
vn 0.260929 0.926001 0.272835
v -4.45262 4.01612 -0.680228
vn 0.090134 0.301049 0.94934
v -4.5831 3.51524 -0.680125
vn -0.00868212 -0.0808492 0.996689
v -4.59238 3.51228 -0.680899
vn -0.0784686 -0.306791 0.948537
v -4.48064 3.98191 -0.679115
vn -0.078402 0.0212768 0.996695
v -4.59877 3.55603 -0.679681
vn -0.0788424 0.0196888 0.996693
v -4.47902 4.00547 -0.715805
vn -0.889312 0.416923 -0.187881
v -4.48383 3.99534 -0.701537
vn -0.958343 0.285252 0.0144615
v -4.59377 3.54339 -0.71883
vn -0.0362422 0.0096651 -0.999296
v -4.59929 3.55623 -0.718287
vn -0.106627 0.0299641 -0.993848
v -4.42678 3.46343 -0.719365
vn -0.252792 -0.891027 -0.377051
v -4.59288 3.51247 -0.71769
vn -0.104246 -0.297122 -0.949132
v -4.46928 3.99007 -0.678826
vn -0.00812079 0.00227874 0.999964
v -4.26507 3.42703 -0.684895
vn -0.00644491 -0.0814682 0.996655
v -4.25917 3.41991 -0.722695
vn -0.090134 -0.301049 -0.94934
v -4.53777 3.71449 -0.718934
vn -0.0160212 0.00577402 -0.999855
v -4.47204 4.0157 -0.715026
vn -0.627224 0.7744 -0.0830389
v -4.12817 3.9206 -0.684238
vn 0.0357573 0.0706756 0.996858
v -4.11891 3.92356 -0.685233
vn 0.104246 0.297122 0.949132
v -4.23063 3.45393 -0.685202
vn 0.105447 -0.0314263 0.993928
v -4.1125 3.8798 -0.684636
vn 0.105881 -0.0298365 0.993931
v -4.23324 3.43074 -0.722073
vn 0.883819 -0.41487 -0.216211
v -4.22804 3.44072 -0.707839
vn 0.958344 -0.285252 -0.0144615
v -4.11856 3.89284 -0.723503
vn 0.00864385 5.35903e-05 -0.999963
v -4.11302 3.88 -0.723242
vn 0.0782099 -0.0195798 -0.996745
v -4.28549 3.97278 -0.718688
vn 0.242581 0.894857 -0.37468
v -4.11941 3.92375 -0.722025
vn 0.0784686 0.306791 -0.948537
v -4.44619 4.00881 -0.679469
vn 0.03352 0.071295 0.996892
v -4.24198 3.44577 -0.684688
vn 0.0352727 -0.0124696 0.9993
v -4.2402 3.4205 -0.721209
vn 0.624635 -0.773421 -0.107938
v -4.20238 3.62147 -0.723964
vn -0.0111416 0.00442039 -0.999928
v -4.45312 4.01631 -0.71702
vn 0.0643559 0.310712 -0.948323
v -4.59157 3.52646 -0.679655
vn 0.00269101 -0.0295027 0.999561
v -4.60178 3.53341 -0.679794
vn -0.0682182 -0.0153019 0.997553
v -4.59923 3.52025 -0.680198
vn -0.0668885 -0.0855422 0.994087
v -4.4795 3.9971 -0.679697
vn -0.251243 0.0768326 0.96487
v -4.48649 3.9838 -0.680832
vn -0.950396 0.267324 0.159012
v -4.5435 3.77003 -0.679892
vn -0.259636 0.0707375 0.963112
v -4.48001 3.99729 -0.717015
vn -0.278598 0.0857232 -0.956575
v -4.5571 3.72302 -0.71746
vn -0.28569 0.0805155 -0.954934
v -4.48697 3.98398 -0.715826
vn -0.941534 0.265429 -0.20751
v -4.5921 3.52666 -0.718811
vn -0.0244621 -0.0193132 -0.999514
v -4.59975 3.52044 -0.718124
vn -0.0938806 -0.0754195 -0.992723
v -4.60231 3.53361 -0.718323
vn -0.0952903 -0.00513897 -0.995436
v -4.42686 3.46237 -0.705475
vn -0.26729 -0.963615 -0.00128446
v -4.59328 3.50988 -0.68262
vn -0.288409 -0.955419 0.0631996
v -4.59373 3.51005 -0.71597
vn -0.289995 -0.954115 -0.0746109
v -4.45923 4.00355 -0.67902
vn 0.0168184 0.0214275 0.999629
v -4.4626 4.01283 -0.679543
vn -0.0139523 0.105328 0.99434
v -4.47157 4.00285 -0.67917
vn -0.0512761 0.0457931 0.997634
v -4.25203 3.43228 -0.684746
vn 0.0103342 -0.0316196 0.999447
v -4.25848 3.45007 -0.684249
vn 0.0137324 -0.00651058 0.999885
v -4.42213 3.47817 -0.682104
vn 0.00668671 -0.0299359 0.999529
v -4.24743 3.41839 -0.722248
vn 0.14049 -0.853025 -0.502604
v -4.24669 3.41681 -0.708095
vn 0.158246 -0.987374 -0.00718005
v -4.25964 3.41738 -0.72098
vn -0.244987 -0.966599 -0.0752884
v -4.37013 3.66779 -0.721527
vn -0.0135811 0.00509716 -0.999895
v -4.25902 3.45027 -0.724044
vn -0.0135227 0.00334448 -0.999903
v -4.57741 3.53858 -0.71927
vn -0.0145343 0.00362465 -0.999888
v -4.46484 4.01782 -0.716239
vn -0.153967 0.858092 -0.489869
v -4.46312 4.01302 -0.717468
vn -0.0409364 0.115453 -0.992469
v -4.47282 4.01156 -0.71674
vn -0.200528 0.192077 -0.960674
v -4.11969 3.90938 -0.684112
vn 0.0244621 0.0193132 0.999514
v -4.10948 3.90242 -0.6846
vn 0.0952903 0.00513897 0.995436
v -4.11204 3.91559 -0.6848
vn 0.0938806 0.0754195 0.992723
v -4.23178 3.43874 -0.685909
vn 0.277358 -0.0866327 0.956853
v -4.22482 3.45206 -0.687097
vn 0.954328 -0.268799 0.130405
v -4.16778 3.66582 -0.685526
vn 0.28569 -0.0805155 0.954934
v -4.23229 3.43893 -0.723226
vn 0.249468 -0.0781235 -0.965227
v -4.18138 3.61881 -0.723094
vn 0.259636 -0.0707374 -0.963112
v -4.2253 3.45224 -0.722091
vn 0.941018 -0.264794 -0.210641
v -4.12022 3.90958 -0.723269
vn -0.00269101 0.0295027 -0.999561
v -4.11256 3.91579 -0.722726
vn 0.0668885 0.0855422 -0.994087
v -4.11001 3.90262 -0.723129
vn 0.0682182 0.0153019 -0.997553
v -4.28503 3.9737 -0.704795
vn 0.26729 0.963615 0.00128446
v -4.11806 3.92599 -0.686954
vn 0.290152 0.954765 0.065087
v -4.11851 3.92616 -0.720303
vn 0.287994 0.954866 -0.0727335
v -4.45277 3.98576 -0.678879
vn 0.0134306 -0.00368358 0.999903
v -4.28913 3.95766 -0.681466
vn 0.0204672 0.0197449 0.999596
v -4.24867 3.42301 -0.685455
vn 0.0409364 -0.115453 0.992469
v -4.2397 3.43298 -0.685224
vn 0.0783493 -0.0559516 0.995355
v -4.24919 3.42321 -0.723381
vn 0.0139541 -0.105324 -0.99434
v -4.23947 3.42466 -0.722902
vn 0.174321 -0.182241 -0.967678
v -4.45331 3.98597 -0.718674
vn -0.0137923 0.00628964 -0.999885
v -4.13492 3.89766 -0.723449
vn -0.0127863 0.00601031 -0.9999
v -4.4652 4.01926 -0.702056
vn -0.158246 0.987374 0.00718005
v -4.4526 4.01882 -0.715293
vn 0.242985 0.96735 -0.0720525
v -4.60322 3.51703 -0.681341
vn -0.598425 -0.706652 0.377532
v -4.60681 3.5265 -0.680666
vn -0.243956 -0.0687874 0.967344
v -4.60562 3.54243 -0.680302
vn -0.255595 0.0611884 0.964846
v -4.60476 3.55744 -0.681399
vn -0.952411 0.260059 0.159004
v -4.54687 3.77099 -0.702272
vn -0.963521 0.267245 0.0144393
v -4.60523 3.55762 -0.716393
vn -0.948442 0.259271 -0.182309
v -4.60613 3.54262 -0.71762
vn -0.280842 0.0689633 -0.957273
v -4.60731 3.52669 -0.717385
vn -0.270147 -0.0589574 -0.961012
v -4.60371 3.51721 -0.716905
vn -0.573656 -0.654954 -0.491888
v -4.60476 3.51613 -0.702725
vn -0.644258 -0.764793 0.004849
v -4.47232 4.01137 -0.680022
vn -0.174322 0.182238 0.967678
v -4.57687 3.53838 -0.679474
vn 0.0127242 -0.00623105 0.9999
v -4.25919 3.41721 -0.687631
vn -0.243179 -0.967965 0.0625161
v -4.42266 3.47837 -0.721457
vn -0.0204672 -0.0197449 -0.999596
v -4.47209 4.00305 -0.717699
vn -0.0783493 0.0559516 -0.995355
v -4.10808 3.91882 -0.686018
vn 0.60856 0.702842 0.368331
v -4.10448 3.90935 -0.685538
vn 0.270147 0.0589574 0.961012
v -4.10566 3.89341 -0.685304
vn 0.281688 -0.0709821 0.956877
v -4.10656 3.87842 -0.68653
vn 0.956343 -0.261535 0.130415
v -4.16502 3.66508 -0.707998
vn 0.963521 -0.267245 -0.0144393
v -4.10703 3.8786 -0.721524
vn 0.937568 -0.255764 -0.235695
v -4.10617 3.8936 -0.722621
vn 0.256196 -0.0626089 -0.964595
v -4.10498 3.90953 -0.722257
vn 0.243956 0.0687874 -0.967344
v -4.10857 3.919 -0.721582
vn 0.560172 0.66002 -0.50058
v -4.10713 3.91994 -0.707426
vn 0.644258 0.764793 -0.004849
v -4.13438 3.89745 -0.683654
vn 0.014439 -0.00396338 0.999888
v -4.23897 3.42447 -0.686183
vn 0.200528 -0.192077 0.960674
v -4.24022 3.43318 -0.723753
vn 0.0512715 -0.0457918 -0.997634
v -4.28966 3.95786 -0.72082
vn -0.00668671 0.0299359 -0.999529
v -4.45215 4.01865 -0.681944
vn 0.244922 0.96731 0.0657683
v -4.46436 4.01764 -0.680675
vn -0.149172 0.913004 0.379699
v -4.35562 3.71791 -0.681464
vn 0.0135815 -0.00509727 0.999895
v -4.24694 3.41821 -0.686684
vn 0.159299 -0.916812 0.366168
v -4.25256 3.43248 -0.723903
vn -0.0168184 -0.0214275 -0.999629
v -4.45976 4.00375 -0.718177
vn -0.0103342 0.0316196 -0.999447
f 1//1 2//2 3//3
f 1//1 3//3 4//4
f 1//1 4//4 5//5
f 1//1 5//5 6//6
f 1//1 6//6 2//2
f 7//7 8//8 9//9
f 10//10 11//11 12//12
f 13//13 14//14 15//15
f 16//16 17//17 18//18
f 19//19 20//20 21//21
f 22//22 23//23 24//24
f 22//22 24//24 25//25
f 22//22 25//25 26//26
f 22//22 26//26 27//27
f 22//22 27//27 23//23
f 28//28 29//29 30//30
f 31//31 32//32 33//33
f 34//34 35//35 36//36
f 37//37 38//38 39//39
f 40//40 41//41 42//42
f 13//13 43//43 44//44
f 10//10 45//45 46//46
f 7//7 47//47 48//48
f 19//19 49//49 50//50
f 16//16 51//51 52//52
f 10//10 53//53 45//45
f 13//13 54//54 43//43
f 16//16 55//55 51//51
f 19//19 56//56 49//49
f 7//7 57//57 47//47
f 40//40 58//58 59//59
f 28//28 60//60 61//61
f 31//31 62//62 63//63
f 34//34 64//64 65//65
f 37//37 66//66 67//67
f 40//40 68//68 58//58
f 28//28 69//69 60//60
f 31//31 70//70 62//62
f 34//34 71//71 64//64
f 37//37 72//72 66//66
f 10//10 46//46 11//11
f 7//7 48//48 8//8
f 19//19 50//50 20//20
f 16//16 52//52 17//17
f 13//13 44//44 14//14
f 40//40 42//42 68//68
f 28//28 30//30 69//69
f 31//31 33//33 70//70
f 34//34 36//36 71//71
f 37//37 39//39 72//72
f 28//28 61//61 29//29
f 31//31 63//63 32//32
f 34//34 65//65 35//35
f 37//37 67//67 38//38
f 40//40 59//59 41//41
f 10//10 12//12 53//53
f 13//13 15//15 54//54
f 16//16 18//18 55//55
f 19//19 21//21 56//56
f 7//7 9//9 57//57
f 73//73 74//74 75//75
f 76//76 77//77 78//78
f 79//79 80//80 81//81
f 82//82 83//83 84//84
f 85//85 86//86 87//87
f 88//88 89//89 90//90
f 91//91 92//92 93//93
f 94//94 95//95 96//96
f 97//97 98//98 99//99
f 100//100 101//101 102//102
f 103//103 104//104 105//105
f 106//106 107//107 108//108
f 109//109 110//110 111//111
f 112//112 113//113 114//114
f 115//115 116//116 117//117
f 88//88 118//118 119//119
f 91//91 120//120 121//121
f 94//94 122//122 123//123
f 97//97 124//124 125//125
f 100//100 126//126 127//127
f 128//128 129//129 2//2
f 130//130 131//131 3//3
f 132//132 133//133 4//4
f 134//134 135//135 5//5
f 136//136 137//137 6//6
f 76//76 138//138 8//8
f 73//73 139//139 11//11
f 85//85 140//140 14//14
f 82//82 141//141 17//17
f 79//79 142//142 20//20
f 143//143 144//144 23//23
f 145//145 146//146 24//24
f 147//147 148//148 25//25
f 149//149 150//150 26//26
f 151//151 152//152 27//27
f 103//103 153//153 29//29
f 106//106 154//154 32//32
f 109//109 155//155 35//35
f 112//112 156//156 38//38
f 115//115 157//157 41//41
f 73//73 75//75 43//43
f 76//76 78//78 45//45
f 79//79 81//81 47//47
f 82//82 84//84 49//49
f 85//85 87//87 51//51
f 88//88 90//90 53//53
f 91//91 93//93 54//54
f 94//94 96//96 55//55
f 97//97 99//99 56//56
f 100//100 102//102 57//57
f 103//103 105//105 58//58
f 106//106 108//108 60//60
f 109//109 111//111 62//62
f 112//112 114//114 64//64
f 115//115 117//117 66//66
f 88//88 119//119 68//68
f 91//91 121//121 69//69
f 94//94 123//123 70//70
f 97//97 125//125 71//71
f 100//100 127//127 72//72
f 130//130 74//74 46//46
f 132//132 77//77 48//48
f 134//134 80//80 50//50
f 136//136 83//83 52//52
f 128//128 86//86 44//44
f 158//158 89//89 42//42
f 159//159 92//92 30//30
f 160//160 95//95 33//33
f 161//161 98//98 36//36
f 162//162 101//101 39//39
f 145//145 104//104 61//61
f 147//147 107//107 63//63
f 149//149 110//110 65//65
f 151//151 113//113 67//67
f 143//143 116//116 59//59
f 159//159 118//118 12//12
f 160//160 120//120 15//15
f 161//161 122//122 18//18
f 162//162 124//124 21//21
f 158//158 126//126 9//9
f 130//130 129//129 74//74
f 132//132 131//131 77//77
f 134//134 133//133 80//80
f 136//136 135//135 83//83
f 128//128 137//137 86//86
f 158//158 138//138 89//89
f 159//159 139//139 92//92
f 160//160 140//140 95//95
f 161//161 141//141 98//98
f 162//162 142//142 101//101
f 145//145 144//144 104//104
f 147//147 146//146 107//107
f 149//149 148//148 110//110
f 151//151 150//150 113//113
f 143//143 152//152 116//116
f 159//159 153//153 118//118
f 160//160 154//154 120//120
f 161//161 155//155 122//122
f 162//162 156//156 124//124
f 158//158 157//157 126//126
f 130//130 3//3 129//129
f 132//132 4//4 131//131
f 134//134 5//5 133//133
f 136//136 6//6 135//135
f 128//128 2//2 137//137
f 158//158 9//9 138//138
f 159//159 12//12 139//139
f 160//160 15//15 140//140
f 161//161 18//18 141//141
f 162//162 21//21 142//142
f 145//145 24//24 144//144
f 147//147 25//25 146//146
f 149//149 26//26 148//148
f 151//151 27//27 150//150
f 143//143 23//23 152//152
f 159//159 30//30 153//153
f 160//160 33//33 154//154
f 161//161 36//36 155//155
f 162//162 39//39 156//156
f 158//158 42//42 157//157
f 128//128 44//44 75//75
f 130//130 46//46 78//78
f 132//132 48//48 81//81
f 134//134 50//50 84//84
f 136//136 52//52 87//87
f 76//76 45//45 90//90
f 73//73 43//43 93//93
f 85//85 51//51 96//96
f 82//82 49//49 99//99
f 79//79 47//47 102//102
f 143//143 59//59 105//105
f 145//145 61//61 108//108
f 147//147 63//63 111//111
f 149//149 65//65 114//114
f 151//151 67//67 117//117
f 103//103 58//58 119//119
f 106//106 60//60 121//121
f 109//109 62//62 123//123
f 112//112 64//64 125//125
f 115//115 66//66 127//127
f 73//73 11//11 74//74
f 76//76 8//8 77//77
f 79//79 20//20 80//80
f 82//82 17//17 83//83
f 85//85 14//14 86//86
f 88//88 68//68 89//89
f 91//91 69//69 92//92
f 94//94 70//70 95//95
f 97//97 71//71 98//98
f 100//100 72//72 101//101
f 103//103 29//29 104//104
f 106//106 32//32 107//107
f 109//109 35//35 110//110
f 112//112 38//38 113//113
f 115//115 41//41 116//116
f 88//88 53//53 118//118
f 91//91 54//54 120//120
f 94//94 55//55 122//122
f 97//97 56//56 124//124
f 100//100 57//57 126//126
f 128//128 75//75 129//129
f 130//130 78//78 131//131
f 132//132 81//81 133//133
f 134//134 84//84 135//135
f 136//136 87//87 137//137
f 76//76 90//90 138//138
f 73//73 93//93 139//139
f 85//85 96//96 140//140
f 82//82 99//99 141//141
f 79//79 102//102 142//142
f 143//143 105//105 144//144
f 145//145 108//108 146//146
f 147//147 111//111 148//148
f 149//149 114//114 150//150
f 151//151 117//117 152//152
f 103//103 119//119 153//153
f 106//106 121//121 154//154
f 109//109 123//123 155//155
f 112//112 125//125 156//156
f 115//115 127//127 157//157
f 129//129 3//3 2//2
f 131//131 4//4 3//3
f 133//133 5//5 4//4
f 135//135 6//6 5//5
f 137//137 2//2 6//6
f 138//138 9//9 8//8
f 139//139 12//12 11//11
f 140//140 15//15 14//14
f 141//141 18//18 17//17
f 142//142 21//21 20//20
f 144//144 24//24 23//23
f 146//146 25//25 24//24
f 148//148 26//26 25//25
f 150//150 27//27 26//26
f 152//152 23//23 27//27
f 153//153 30//30 29//29
f 154//154 33//33 32//32
f 155//155 36//36 35//35
f 156//156 39//39 38//38
f 157//157 42//42 41//41
f 75//75 44//44 43//43
f 78//78 46//46 45//45
f 81//81 48//48 47//47
f 84//84 50//50 49//49
f 87//87 52//52 51//51
f 90//90 45//45 53//53
f 93//93 43//43 54//54
f 96//96 51//51 55//55
f 99//99 49//49 56//56
f 102//102 47//47 57//57
f 105//105 59//59 58//58
f 108//108 61//61 60//60
f 111//111 63//63 62//62
f 114//114 65//65 64//64
f 117//117 67//67 66//66
f 119//119 58//58 68//68
f 121//121 60//60 69//69
f 123//123 62//62 70//70
f 125//125 64//64 71//71
f 127//127 66//66 72//72
f 74//74 11//11 46//46
f 77//77 8//8 48//48
f 80//80 20//20 50//50
f 83//83 17//17 52//52
f 86//86 14//14 44//44
f 89//89 68//68 42//42
f 92//92 69//69 30//30
f 95//95 70//70 33//33
f 98//98 71//71 36//36
f 101//101 72//72 39//39
f 104//104 29//29 61//61
f 107//107 32//32 63//63
f 110//110 35//35 65//65
f 113//113 38//38 67//67
f 116//116 41//41 59//59
f 118//118 53//53 12//12
f 120//120 54//54 15//15
f 122//122 55//55 18//18
f 124//124 56//56 21//21
f 126//126 57//57 9//9
f 129//129 75//75 74//74
f 131//131 78//78 77//77
f 133//133 81//81 80//80
f 135//135 84//84 83//83
f 137//137 87//87 86//86
f 138//138 90//90 89//89
f 139//139 93//93 92//92
f 140//140 96//96 95//95
f 141//141 99//99 98//98
f 142//142 102//102 101//101
f 144//144 105//105 104//104
f 146//146 108//108 107//107
f 148//148 111//111 110//110
f 150//150 114//114 113//113
f 152//152 117//117 116//116
f 153//153 119//119 118//118
f 154//154 121//121 120//120
f 155//155 123//123 122//122
f 156//156 125//125 124//124
f 157//157 127//127 126//126
