# Created by Open3D 
# object name: part_017
# number of vertices: 162
# number of triangles: 320
v 0.60587 4.77301 1.2824
vn 0.0399304 0.0662771 0.997002
v 0.589543 4.79414 1.28047
vn -0.00662092 0.191627 0.981446
v 0.583041 4.76553 1.28303
vn -0.0673317 0.0523001 0.996359
v 0.597953 4.73443 1.28373
vn 0.0248496 -0.00933434 0.999648
v 0.617306 4.75866 1.28211
vn 0.176131 0.00343784 0.984361
v 0.622198 4.78759 1.2796
vn 0.141883 0.163336 0.976315
v 0.361357 3.55423 1.2705
vn 0.00752531 -0.0952445 0.995425
v 0.343178 3.56993 1.27135
vn -0.086047 -0.0409699 0.995448
v 0.338152 3.54108 1.26824
vn -0.083714 -0.192629 0.977694
v 0.460794 4.16826 1.27058
vn -0.977323 0.195273 0.0819009
v 0.574649 4.73624 1.27363
vn -0.978789 0.196329 0.0585472
v 0.460357 4.16842 1.26227
vn -0.980084 0.196336 0.0297833
v 0.586858 4.80942 1.1455
vn -0.962143 0.271217 0.0268613
v 0.589609 4.81709 1.14555
vn -0.404086 0.914434 0.0229203
v 0.584473 4.81203 1.02313
vn -0.945877 0.324111 0.0164151
v 0.623623 4.80205 1.14452
vn 0.992401 -0.120398 -0.0253887
v 0.624478 4.78809 1.261
vn 0.985954 -0.165251 -0.02424
v 0.618923 4.79148 1.02777
vn 0.985875 -0.165202 -0.0275319
v 0.524627 4.28641 1.27078
vn 0.979979 -0.196894 0.029578
v 0.390507 3.6193 1.26797
vn 0.974492 -0.196865 0.107743
v 0.385399 3.59262 1.26151
vn 0.980349 -0.197179 0.00600019
v 0.354794 3.55824 0.994959
vn -0.0399319 -0.0662773 -0.997002
v 0.331714 3.54501 0.997939
vn -0.13029 -0.164198 -0.977785
v 0.336606 3.57394 0.995428
vn -0.13336 -0.01209 -0.990994
v 0.362283 3.59691 0.993638
vn -0.0248498 0.00933442 -0.999648
v 0.37087 3.56707 0.994512
vn 0.110421 -0.0608504 -0.99202
v 0.364368 3.53846 0.997066
vn 0.0177109 -0.195314 -0.980581
v 0.454539 4.17207 1.00799
vn -0.979979 0.196894 -0.0295783
v 0.340631 3.6041 1.00494
vn -0.980536 0.196244 -0.00617068
v 0.454499 4.172 1.01631
vn -0.980255 0.19644 0.0226212
v 0.599307 4.77701 1.00686
vn -0.00752566 0.0952431 -0.995426
v 0.576469 4.76954 1.0071
vn -0.114651 0.0811823 -0.990083
v 0.583105 4.79807 1.01017
vn -0.0531993 0.220061 -0.974034
v 0.518372 4.29023 1.00819
vn 0.977323 -0.195273 -0.0819016
v 0.601249 4.70572 1.00856
vn 0.967944 -0.192247 -0.161633
v 0.607145 4.73224 1.015
vn 0.979008 -0.195162 -0.058783
v 0.367053 3.52318 1.13204
vn 0.962144 -0.271214 -0.0268611
v 0.367232 3.53693 1.01552
vn 0.973411 -0.227331 -0.0281386
v 0.372788 3.53354 1.24876
vn 0.973489 -0.227378 -0.0248465
v 0.330288 3.53055 1.13302
vn -0.992401 0.120398 0.0253888
v 0.329866 3.5224 1.13291
vn -0.725584 -0.688096 0.00727847
v 0.333373 3.5278 1.25537
vn -0.997238 0.0652154 0.0355292
v 0.586679 4.79567 1.26201
vn -0.973411 0.227332 0.0281386
v 0.590302 4.80847 1.26787
vn -0.945363 0.323792 0.0380533
v 0.352662 3.62688 1.26898
vn -0.968105 0.192321 0.160578
v 0.569835 4.70938 1.27955
vn -0.967976 0.192965 0.160584
v 0.377443 3.56306 1.27044
vn 0.157479 -0.089573 0.983452
v 0.368928 3.59285 1.27259
vn 0.0227662 -0.0197321 0.999546
v 0.613281 4.7285 1.2726
vn 0.980561 -0.19611 0.00642277
v 0.60768 4.7018 1.27854
vn 0.974408 -0.196193 0.109716
v 0.624046 4.8102 1.14463
vn 0.835857 0.548817 -0.0119301
v 0.626368 4.80124 1.2669
vn 0.997754 -0.0655295 -0.013891
v 0.346766 3.60036 1.26254
vn -0.978995 0.195303 0.0585361
v 0.581124 4.79906 1.02878
vn -0.973489 0.227379 0.0248468
v 0.620539 4.8048 1.02217
vn 0.997238 -0.0652154 -0.0355294
v 0.524979 4.28804 1.26247
vn 0.980255 -0.19644 -0.0226208
v 0.370807 3.53453 1.26737
vn 0.0642329 -0.223712 0.972536
v 0.329433 3.54451 1.01654
vn -0.985954 0.165249 0.0242401
v 0.327543 3.53136 1.01063
vn -0.997754 0.0655284 0.0138909
v 0.563405 4.7133 1.00957
vn -0.974389 0.196879 -0.108647
v 0.346232 3.6308 0.999001
vn -0.974519 0.196235 -0.10865
v 0.610733 4.76267 1.00618
vn 0.129089 0.0321553 -0.991112
v 0.591309 4.73848 1.00478
vn -0.0227643 0.0197317 -0.999546
v 0.379263 3.59636 1.00391
vn 0.978816 -0.196243 -0.0583852
v 0.384076 3.62322 0.99799
vn 0.968122 -0.192977 -0.159687
v 0.364302 3.51551 1.13199
vn 0.559555 -0.828404 -0.0253728
v 0.363609 3.52413 1.00967
vn 0.945362 -0.323794 -0.0380533
v 0.334988 3.54112 1.24977
vn -0.985876 0.165201 0.027532
v 0.568513 4.73998 1.01603
vn -0.98033 0.197269 -0.00615963
v 0.615759 4.79152 1.0093
vn 0.0953659 0.191734 -0.976803
v 0.519121 4.29161 1.01651
vn 0.980084 -0.196336 -0.0297833
v 0.369439 3.52057 1.2544
vn 0.945877 -0.32411 -0.0164149
v 0.582375 4.77468 1.2697
vn -0.97789 0.206669 0.0319125
v 0.580927 4.76477 1.27787
vn -0.969389 0.206088 0.133461
v 0.587023 4.79418 1.27392
vn -0.966599 0.233429 0.105814
v 0.346001 3.59012 1.2707
vn -0.899456 0.17334 0.401164
v 0.354412 3.62584 1.27325
vn -0.0773317 0.00468926 0.996994
v 0.461854 4.16798 1.27703
vn -0.895375 0.175637 0.409213
v 0.382582 3.58279 1.26972
vn 0.915821 -0.189906 0.353846
v 0.522688 4.28058 1.27722
vn 0.913719 -0.186834 0.360848
v 0.388716 3.61897 1.27234
vn 0.178784 -0.0465836 0.982785
v 0.62076 4.76699 1.26868
vn 0.982321 -0.186082 -0.0204892
v 0.624201 4.78673 1.27293
vn 0.986014 -0.1578 0.0536172
v 0.618696 4.7572 1.27686
vn 0.97948 -0.184388 0.0813623
v 0.610933 4.81544 1.14502
vn 0.196693 0.980419 0.00956938
v 0.593252 4.8144 1.26802
vn 0.0405489 0.994618 0.0953493
v 0.625943 4.80785 1.26715
vn 0.372093 0.924225 0.0857585
v 0.339083 3.56199 1.25786
vn -0.982053 0.18592 0.0317095
v 0.335834 3.54213 1.2617
vn -0.982235 0.155492 0.105055
v 0.34154 3.57154 1.26622
vn -0.974368 0.181269 0.133221
v 0.576444 4.7783 1.0207
vn -0.978158 0.206829 0.0206919
v 0.56874 4.74049 1.02809
vn -0.980089 0.196918 0.0254676
v 0.579925 4.77956 1.14523
vn -0.978094 0.206498 0.0262999
v 0.618917 4.80094 1.01387
vn 0.680491 0.27721 -0.678296
v 0.605656 4.80693 1.01362
vn 0.0831167 0.527626 -0.845401
v 0.620107 4.81141 1.02214
vn 0.36823 0.926583 -0.0764826
v 0.522225 4.29031 1.13949
vn 0.980176 -0.196389 -0.0262025
v 0.607751 4.73268 1.02705
vn 0.980289 -0.195721 -0.026938
v 0.613313 4.72928 1.26055
vn 0.980325 -0.195743 -0.0254543
v 0.369856 3.52467 1.26273
vn 0.555187 -0.524789 0.645263
v 0.373012 3.53468 1.2607
vn 0.970379 -0.235734 0.0528536
v 0.374537 3.5445 1.26715
vn 0.92481 -0.240583 0.294697
v 0.333152 3.56561 1.00886
vn -0.982321 0.186082 0.0204891
v 0.335215 3.5754 1.00068
vn -0.97948 0.184389 -0.0813641
v 0.32971 3.54587 1.00461
vn -0.986015 0.157799 -0.053618
v 0.571329 4.74981 1.00782
vn -0.916181 0.190443 -0.352625
v 0.565196 4.71363 1.0052
vn -0.124281 0.0357061 -0.991604
v 0.455291 4.17199 1.00149
vn -0.913719 0.186834 -0.360848
v 0.607911 4.74248 1.00684
vn 0.900306 -0.172849 -0.399465
v 0.516125 4.28459 1.00168
vn 0.895373 -0.175637 -0.409218
v 0.599499 4.70676 1.00428
vn 0.11413 -0.0120623 -0.993393
v 0.371537 3.55792 1.00784
vn 0.977891 -0.206668 -0.0319123
v 0.366888 3.53842 1.00362
vn 0.9666 -0.233428 -0.105813
v 0.372984 3.56783 0.99967
vn 0.969389 -0.206089 -0.133462
v 0.35018 3.51572 1.13233
vn -0.196693 -0.980419 -0.00956941
v 0.327968 3.52475 1.01039
vn -0.350448 -0.932527 -0.0870633
v 0.36066 3.5182 1.00951
vn -0.0173368 -0.995303 -0.0952414
v 0.34616 3.59993 1.25049
vn -0.980262 0.195859 0.0269373
v 0.335409 3.56077 1.13334
vn -0.982154 0.186259 0.0261023
v 0.580899 4.79792 1.01683
vn -0.970379 0.235735 -0.0528571
v 0.574602 4.76863 1.01233
vn -0.9745 0.209208 -0.0811252
v 0.618077 4.79047 1.01584
vn 0.982235 -0.155491 -0.105055
v 0.615369 4.78088 1.00942
vn 0.929684 -0.130982 -0.344284
v 0.385171 3.59211 1.24945
vn 0.980107 -0.196828 -0.0254682
v 0.37961 3.5955 1.01595
vn 0.980072 -0.196807 -0.0269449
v 0.355342 3.52425 1.26373
vn -0.0831152 -0.527619 0.845405
v 0.366496 3.51464 1.25453
vn -0.0134791 -0.997662 0.0669982
v 0.590279 4.80413 1.27609
vn -0.381824 0.527012 0.759255
v 0.5858 4.78417 1.28015
vn -0.909564 0.23128 0.345257
v 0.57786 4.74582 1.28198
vn -0.898223 0.179482 0.401225
v 0.571833 4.70958 1.28383
vn -0.0769091 0.00679166 0.997015
v 0.483892 4.16354 1.27869
vn 0.0238082 -0.0145335 0.999611
v 0.606136 4.7027 1.28291
vn 0.161276 -0.0408422 0.986064
v 0.614441 4.73849 1.281
vn 0.918186 -0.183761 0.350952
v 0.621795 4.77696 1.27918
vn 0.944931 -0.140288 0.295678
v 0.625141 4.79714 1.27515
vn 0.712199 0.257851 0.652905
v 0.61191 4.80311 1.27621
vn 0.123627 0.502889 0.855464
v 0.338542 3.55172 1.26812
vn -0.929685 0.130983 0.344282
v 0.574302 4.7371 1.26159
vn -0.980054 0.196897 0.0269473
v 0.587416 4.81796 1.02301
vn 0.0366585 0.996996 -0.0682303
v 0.618502 4.77183 1.1442
vn 0.982154 -0.18626 -0.0261022
v 0.379309 3.56397 1.26521
vn 0.974501 -0.209208 0.0811189
v 0.32877 3.53546 1.00238
vn -0.593744 -0.331544 -0.733176
v 0.332117 3.55564 0.998353
vn -0.944927 0.140286 -0.29569
v 0.33947 3.59411 0.996537
vn -0.917412 0.184301 -0.352686
v 0.347775 3.6299 0.994622
vn -0.124701 0.0336031 -0.991625
v 0.477221 4.16761 0.998655
vn -0.0238072 0.0145333 -0.999611
v 0.382079 3.62302 0.993705
vn 0.131762 -0.0178831 -0.99112
v 0.376052 3.58678 0.995559
vn 0.897805 -0.17891 -0.402414
v 0.368111 3.54843 0.997391
vn 0.909565 -0.23128 -0.345257
v 0.363633 3.52847 1.00145
vn 0.523477 -0.505433 -0.685937
v 0.349087 3.52807 1.00113
vn -0.123627 -0.502889 -0.855464
v 0.340599 3.60332 1.01699
vn -0.980297 0.195881 0.0254577
v 0.579375 4.7881 1.01038
vn -0.924806 0.240583 -0.294708
v 0.612371 4.76106 1.01132
vn 0.974369 -0.181268 -0.13322
v 0.373987 3.55304 1.1323
vn 0.978093 -0.206498 -0.0262999
v 0.333804 3.52119 1.2554
vn -0.34655 -0.934906 0.0765139
v 0.334994 3.53166 1.26366
vn -0.558403 -0.353116 0.750663
v 0.457352 4.17023 1.13929
vn -0.980176 0.196389 0.0262025
v 0.584055 4.80793 1.0148
vn -0.417168 0.548592 -0.724581
v 0.614829 4.77061 1.01967
vn 0.982053 -0.185921 -0.0317088
v 0.377468 3.5543 1.25684
vn 0.978158 -0.206831 -0.0206913
f 1//1 2//2 3//3
f 1//1 3//3 4//4
f 1//1 4//4 5//5
f 1//1 5//5 6//6
f 1//1 6//6 2//2
f 7//7 8//8 9//9
f 10//10 11//11 12//12
f 13//13 14//14 15//15
f 16//16 17//17 18//18
f 19//19 20//20 21//21
f 22//22 23//23 24//24
f 22//22 24//24 25//25
f 22//22 25//25 26//26
f 22//22 26//26 27//27
f 22//22 27//27 23//23
f 28//28 29//29 30//30
f 31//31 32//32 33//33
f 34//34 35//35 36//36
f 37//37 38//38 39//39
f 40//40 41//41 42//42
f 13//13 43//43 44//44
f 10//10 45//45 46//46
f 7//7 47//47 48//48
f 19//19 49//49 50//50
f 16//16 51//51 52//52
f 10//10 53//53 45//45
f 13//13 54//54 43//43
f 16//16 55//55 51//51
f 19//19 56//56 49//49
f 7//7 57//57 47//47
f 40//40 58//58 59//59
f 28//28 60//60 61//61
f 31//31 62//62 63//63
f 34//34 64//64 65//65
f 37//37 66//66 67//67
f 40//40 68//68 58//58
f 28//28 69//69 60//60
f 31//31 70//70 62//62
f 34//34 71//71 64//64
f 37//37 72//72 66//66
f 10//10 46//46 11//11
f 7//7 48//48 8//8
f 19//19 50//50 20//20
f 16//16 52//52 17//17
f 13//13 44//44 14//14
f 40//40 42//42 68//68
f 28//28 30//30 69//69
f 31//31 33//33 70//70
f 34//34 36//36 71//71
f 37//37 39//39 72//72
f 28//28 61//61 29//29
f 31//31 63//63 32//32
f 34//34 65//65 35//35
f 37//37 67//67 38//38
f 40//40 59//59 41//41
f 10//10 12//12 53//53
f 13//13 15//15 54//54
f 16//16 18//18 55//55
f 19//19 21//21 56//56
f 7//7 9//9 57//57
f 73//73 74//74 75//75
f 76//76 77//77 78//78
f 79//79 80//80 81//81
f 82//82 83//83 84//84
f 85//85 86//86 87//87
f 88//88 89//89 90//90
f 91//91 92//92 93//93
f 94//94 95//95 96//96
f 97//97 98//98 99//99
f 100//100 101//101 102//102
f 103//103 104//104 105//105
f 106//106 107//107 108//108
f 109//109 110//110 111//111
f 112//112 113//113 114//114
f 115//115 116//116 117//117
f 88//88 118//118 119//119
f 91//91 120//120 121//121
f 94//94 122//122 123//123
f 97//97 124//124 125//125
f 100//100 126//126 127//127
f 128//128 129//129 2//2
f 130//130 131//131 3//3
f 132//132 133//133 4//4
f 134//134 135//135 5//5
f 136//136 137//137 6//6
f 76//76 138//138 8//8
f 73//73 139//139 11//11
f 85//85 140//140 14//14
f 82//82 141//141 17//17
f 79//79 142//142 20//20
f 143//143 144//144 23//23
f 145//145 146//146 24//24
f 147//147 148//148 25//25
f 149//149 150//150 26//26
f 151//151 152//152 27//27
f 103//103 153//153 29//29
f 106//106 154//154 32//32
f 109//109 155//155 35//35
f 112//112 156//156 38//38
f 115//115 157//157 41//41
f 73//73 75//75 43//43
f 76//76 78//78 45//45
f 79//79 81//81 47//47
f 82//82 84//84 49//49
f 85//85 87//87 51//51
f 88//88 90//90 53//53
f 91//91 93//93 54//54
f 94//94 96//96 55//55
f 97//97 99//99 56//56
f 100//100 102//102 57//57
f 103//103 105//105 58//58
f 106//106 108//108 60//60
f 109//109 111//111 62//62
f 112//112 114//114 64//64
f 115//115 117//117 66//66
f 88//88 119//119 68//68
f 91//91 121//121 69//69
f 94//94 123//123 70//70
f 97//97 125//125 71//71
f 100//100 127//127 72//72
f 130//130 74//74 46//46
f 132//132 77//77 48//48
f 134//134 80//80 50//50
f 136//136 83//83 52//52
f 128//128 86//86 44//44
f 158//158 89//89 42//42
f 159//159 92//92 30//30
f 160//160 95//95 33//33
f 161//161 98//98 36//36
f 162//162 101//101 39//39
f 145//145 104//104 61//61
f 147//147 107//107 63//63
f 149//149 110//110 65//65
f 151//151 113//113 67//67
f 143//143 116//116 59//59
f 159//159 118//118 12//12
f 160//160 120//120 15//15
f 161//161 122//122 18//18
f 162//162 124//124 21//21
f 158//158 126//126 9//9
f 130//130 129//129 74//74
f 132//132 131//131 77//77
f 134//134 133//133 80//80
f 136//136 135//135 83//83
f 128//128 137//137 86//86
f 158//158 138//138 89//89
f 159//159 139//139 92//92
f 160//160 140//140 95//95
f 161//161 141//141 98//98
f 162//162 142//142 101//101
f 145//145 144//144 104//104
f 147//147 146//146 107//107
f 149//149 148//148 110//110
f 151//151 150//150 113//113
f 143//143 152//152 116//116
f 159//159 153//153 118//118
f 160//160 154//154 120//120
f 161//161 155//155 122//122
f 162//162 156//156 124//124
f 158//158 157//157 126//126
f 130//130 3//3 129//129
f 132//132 4//4 131//131
f 134//134 5//5 133//133
f 136//136 6//6 135//135
f 128//128 2//2 137//137
f 158//158 9//9 138//138
f 159//159 12//12 139//139
f 160//160 15//15 140//140
f 161//161 18//18 141//141
f 162//162 21//21 142//142
f 145//145 24//24 144//144
f 147//147 25//25 146//146
f 149//149 26//26 148//148
f 151//151 27//27 150//150
f 143//143 23//23 152//152
f 159//159 30//30 153//153
f 160//160 33//33 154//154
f 161//161 36//36 155//155
f 162//162 39//39 156//156
f 158//158 42//42 157//157
f 128//128 44//44 75//75
f 130//130 46//46 78//78
f 132//132 48//48 81//81
f 134//134 50//50 84//84
f 136//136 52//52 87//87
f 76//76 45//45 90//90
f 73//73 43//43 93//93
f 85//85 51//51 96//96
f 82//82 49//49 99//99
f 79//79 47//47 102//102
f 143//143 59//59 105//105
f 145//145 61//61 108//108
f 147//147 63//63 111//111
f 149//149 65//65 114//114
f 151//151 67//67 117//117
f 103//103 58//58 119//119
f 106//106 60//60 121//121
f 109//109 62//62 123//123
f 112//112 64//64 125//125
f 115//115 66//66 127//127
f 73//73 11//11 74//74
f 76//76 8//8 77//77
f 79//79 20//20 80//80
f 82//82 17//17 83//83
f 85//85 14//14 86//86
f 88//88 68//68 89//89
f 91//91 69//69 92//92
f 94//94 70//70 95//95
f 97//97 71//71 98//98
f 100//100 72//72 101//101
f 103//103 29//29 104//104
f 106//106 32//32 107//107
f 109//109 35//35 110//110
f 112//112 38//38 113//113
f 115//115 41//41 116//116
f 88//88 53//53 118//118
f 91//91 54//54 120//120
f 94//94 55//55 122//122
f 97//97 56//56 124//124
f 100//100 57//57 126//126
f 128//128 75//75 129//129
f 130//130 78//78 131//131
f 132//132 81//81 133//133
f 134//134 84//84 135//135
f 136//136 87//87 137//137
f 76//76 90//90 138//138
f 73//73 93//93 139//139
f 85//85 96//96 140//140
f 82//82 99//99 141//141
f 79//79 102//102 142//142
f 143//143 105//105 144//144
f 145//145 108//108 146//146
f 147//147 111//111 148//148
f 149//149 114//114 150//150
f 151//151 117//117 152//152
f 103//103 119//119 153//153
f 106//106 121//121 154//154
f 109//109 123//123 155//155
f 112//112 125//125 156//156
f 115//115 127//127 157//157
f 129//129 3//3 2//2
f 131//131 4//4 3//3
f 133//133 5//5 4//4
f 135//135 6//6 5//5
f 137//137 2//2 6//6
f 138//138 9//9 8//8
f 139//139 12//12 11//11
f 140//140 15//15 14//14
f 141//141 18//18 17//17
f 142//142 21//21 20//20
f 144//144 24//24 23//23
f 146//146 25//25 24//24
f 148//148 26//26 25//25
f 150//150 27//27 26//26
f 152//152 23//23 27//27
f 153//153 30//30 29//29
f 154//154 33//33 32//32
f 155//155 36//36 35//35
f 156//156 39//39 38//38
f 157//157 42//42 41//41
f 75//75 44//44 43//43
f 78//78 46//46 45//45
f 81//81 48//48 47//47
f 84//84 50//50 49//49
f 87//87 52//52 51//51
f 90//90 45//45 53//53
f 93//93 43//43 54//54
f 96//96 51//51 55//55
f 99//99 49//49 56//56
f 102//102 47//47 57//57
f 105//105 59//59 58//58
f 108//108 61//61 60//60
f 111//111 63//63 62//62
f 114//114 65//65 64//64
f 117//117 67//67 66//66
f 119//119 58//58 68//68
f 121//121 60//60 69//69
f 123//123 62//62 70//70
f 125//125 64//64 71//71
f 127//127 66//66 72//72
f 74//74 11//11 46//46
f 77//77 8//8 48//48
f 80//80 20//20 50//50
f 83//83 17//17 52//52
f 86//86 14//14 44//44
f 89//89 68//68 42//42
f 92//92 69//69 30//30
f 95//95 70//70 33//33
f 98//98 71//71 36//36
f 101//101 72//72 39//39
f 104//104 29//29 61//61
f 107//107 32//32 63//63
f 110//110 35//35 65//65
f 113//113 38//38 67//67
f 116//116 41//41 59//59
f 118//118 53//53 12//12
f 120//120 54//54 15//15
f 122//122 55//55 18//18
f 124//124 56//56 21//21
f 126//126 57//57 9//9
f 129//129 75//75 74//74
f 131//131 78//78 77//77
f 133//133 81//81 80//80
f 135//135 84//84 83//83
f 137//137 87//87 86//86
f 138//138 90//90 89//89
f 139//139 93//93 92//92
f 140//140 96//96 95//95
f 141//141 99//99 98//98
f 142//142 102//102 101//101
f 144//144 105//105 104//104
f 146//146 108//108 107//107
f 148//148 111//111 110//110
f 150//150 114//114 113//113
f 152//152 117//117 116//116
f 153//153 119//119 118//118
f 154//154 121//121 120//120
f 155//155 123//123 122//122
f 156//156 125//125 124//124
f 157//157 127//127 126//126
