# Created by Open3D 
# object name: part_010
# number of vertices: 162
# number of triangles: 320
v -2.06677 5.97134 0.195284
vn -0.323636 0.943459 0.0717266
v -2.07643 5.96299 0.2153
vn -0.661247 0.718065 0.217106
v -2.05942 5.96995 0.215887
vn -0.137171 0.922654 0.360408
v -2.04465 5.97432 0.194816
vn 0.0782646 0.99518 0.0590867
v -2.06079 5.97213 0.181025
vn -0.158999 0.92536 -0.344135
v -2.07774 5.96506 0.182076
vn -0.674205 0.73218 -0.0967502
v -1.38679 5.89906 0.163924
vn 0.519527 0.853823 0.0328369
v -1.39237 5.89904 0.185124
vn 0.359908 0.869813 0.337477
v -1.37732 5.88867 0.183058
vn 0.814139 0.561213 0.149059
v -1.72806 5.91369 0.201498
vn 0.041297 -0.044553 0.998153
v -2.04577 5.93963 0.215688
vn 0.0395445 -0.0519135 0.997868
v -1.73086 5.88789 0.20024
vn 0.0394933 -0.0611695 0.997346
v -2.12921 5.54462 0.193348
vn -0.0988306 -0.0470546 0.993991
v -2.13367 5.54517 0.192367
vn -0.911757 0.075891 0.403657
v -2.17108 5.16534 0.170946
vn -0.195385 -0.0391386 0.979945
v -2.13069 5.54696 0.155941
vn -0.176805 0.0763569 -0.98128
v -2.08452 5.90781 0.176135
vn -0.0963432 0.0687978 -0.992968
v -2.16333 5.18474 0.13407
vn -0.0964537 0.0677522 -0.993029
v -1.79984 5.92361 0.165485
vn -0.0374288 0.0800442 -0.996088
v -1.42637 5.89547 0.149359
vn -0.0341111 0.105048 -0.993882
v -1.41359 5.87472 0.147155
vn -0.0374711 0.0724617 -0.996667
v -1.4799 5.04482 0.114228
vn 0.323637 -0.943459 -0.0717257
v -1.46866 5.05067 0.134307
vn 0.672726 -0.736224 0.0735766
v -1.48561 5.0436 0.135358
vn 0.160515 -0.959608 0.231057
v -1.502 5.04181 0.115132
vn -0.0782653 -0.99518 -0.059087
v -1.48698 5.04578 0.100496
vn 0.126947 -0.874624 -0.467885
v -1.46997 5.05275 0.101083
vn 0.660925 -0.711162 -0.23964
v -1.81679 5.09959 0.154137
vn 0.0374289 -0.080044 0.996088
v -1.49908 5.07364 0.140001
vn 0.0391891 -0.0726985 0.996584
v -1.81397 5.12536 0.155879
vn 0.039245 -0.0634476 0.997213
v -2.15988 5.1171 0.145588
vn -0.519529 -0.853822 -0.032837
v -2.15265 5.11451 0.166122
vn -0.336561 -0.906766 0.253972
v -2.16776 5.12499 0.166549
vn -0.802665 -0.579374 0.141617
v -1.88857 5.10951 0.118125
vn -0.0412969 0.0445535 -0.998153
v -2.12155 5.12267 0.128519
vn -0.044725 0.0188181 -0.998822
v -2.13436 5.14347 0.129922
vn -0.0416924 0.052062 -0.997773
v -1.41718 5.47111 0.123035
vn 0.0988306 0.0470546 -0.993991
v -1.46339 5.11033 0.101789
vn 0.0177297 0.0556135 -0.998295
v -1.38458 5.8334 0.143855
vn 0.0178475 0.0566584 -0.998234
v -1.41571 5.46877 0.160442
vn 0.176806 -0.076357 0.981279
v -1.41134 5.46838 0.159054
vn 0.940252 -0.120994 0.318254
v -1.37387 5.8481 0.182133
vn 0.271908 -0.0819917 0.958824
v -2.08301 5.9054 0.214594
vn -0.0177295 -0.0556136 0.998295
v -2.08838 5.92406 0.215085
vn -0.194652 -0.0323912 0.980337
v -1.42485 5.89306 0.187864
vn 0.0446327 -0.0191591 0.99882
v -2.0288 5.95726 0.215717
vn 0.043438 -0.0190348 0.998875
v -1.39375 5.90122 0.150262
vn 0.317609 0.874697 -0.366101
v -1.40774 5.90662 0.165443
vn 0.137975 0.988832 0.056333
v -2.04732 5.94209 0.176382
vn -0.039431 0.0728046 -0.996566
v -2.03032 5.95967 0.177212
vn -0.0352432 0.105815 -0.993761
v -2.13506 5.54736 0.157329
vn -0.886605 0.122578 -0.44599
v -2.08983 5.92635 0.17839
vn -0.271184 0.0887387 -0.958428
v -1.41204 5.87226 0.186462
vn 0.041433 -0.0521145 0.997781
v -2.16181 5.18233 0.172529
vn -0.0178474 -0.0566585 0.998234
v -2.17252 5.16763 0.13425
vn -0.271908 0.0819917 -0.958824
v -1.80353 5.89793 0.163783
vn -0.039245 0.0634476 -0.997213
v -1.37864 5.89074 0.149834
vn 0.801147 0.575332 -0.164791
v -1.46188 5.10792 0.140249
vn 0.0963428 -0.0687978 0.992968
v -1.45657 5.08938 0.137994
vn 0.271183 -0.0887386 0.958429
v -2.12003 5.12027 0.167024
vn 0.0340315 -0.105341 0.993854
v -1.51608 5.05606 0.139171
vn 0.0352256 -0.105471 0.993798
v -2.15403 5.11669 0.131259
vn -0.349663 -0.823962 -0.445896
v -2.13891 5.10952 0.144505
vn -0.137975 -0.988832 -0.0563328
v -1.50063 5.0761 0.100695
vn -0.0397027 0.0519825 -0.997858
v -1.5176 5.05847 0.100666
vn -0.0434532 0.0193333 -0.998868
v -1.41272 5.47057 0.124016
vn 0.848236 -0.0618505 -0.525994
v -1.45802 5.09167 0.101298
vn 0.194652 0.0323914 -0.980337
v -1.38307 5.831 0.182314
vn 0.0964532 -0.0677521 0.993029
v -2.13281 5.14102 0.169228
vn 0.0373017 -0.0724955 0.996671
v -2.16907 5.12707 0.133325
vn -0.814427 -0.554313 -0.171598
v -1.88664 5.1354 0.119422
vn -0.0394933 0.0611696 -0.997346
v -1.37532 5.8504 0.145438
vn 0.195386 0.0391386 -0.979945
v -2.06865 5.92859 0.215775
vn 0.0204715 -0.0584847 0.998078
v -2.06044 5.95367 0.216703
vn 0.0201244 -0.0255343 0.999471
v -2.07829 5.94233 0.216397
vn -0.0297688 -0.0292451 0.999129
v -1.40375 5.89741 0.186657
vn 0.0590726 0.0658826 0.996077
v -1.42312 5.90655 0.186827
vn 0.12081 0.924675 0.361082
v -1.72591 5.93382 0.201743
vn 0.0533536 0.0697314 0.996138
v -1.40522 5.89974 0.149437
vn -0.0198472 0.190028 -0.981578
v -1.79432 5.94327 0.167423
vn -0.0246904 0.193255 -0.980838
v -1.4245 5.90873 0.151925
vn 0.084643 0.914407 -0.395849
v -2.07019 5.93103 0.176721
vn -0.0582527 0.0661096 -0.996111
v -2.07978 5.94469 0.17857
vn -0.108274 0.0950075 -0.989571
v -2.06196 5.95607 0.178275
vn -0.0585445 0.0989828 -0.993365
v -2.13591 5.54664 0.171249
vn -0.993353 0.105602 0.0458114
v -2.0919 5.92497 0.213555
vn -0.984335 0.114184 0.134336
v -2.09322 5.92705 0.180293
vn -0.990565 0.125765 -0.0544477
v -1.39207 5.85667 0.184572
vn 0.0586458 -0.0625427 0.996318
v -1.37975 5.86807 0.184181
vn 0.113772 -0.0445071 0.992509
v -1.39472 5.8829 0.186001
vn 0.0660209 -0.0304095 0.997355
v -2.15279 5.15663 0.170866
vn 0.0200819 -0.0620513 0.997871
v -2.12909 5.1784 0.171611
vn 0.0383888 -0.0624424 0.99731
v -2.11242 5.54278 0.193497
vn 0.0207459 -0.0603184 0.997964
v -2.17301 5.14169 0.133265
vn -0.780418 -0.0973751 -0.61763
v -2.17446 5.13896 0.147359
vn -0.984886 -0.170892 0.0281999
v -2.17601 5.16746 0.136103
vn -0.993707 0.0969365 -0.0561305
v -1.84536 5.5167 0.141538
vn -0.0393692 0.0623085 -0.99728
v -2.13066 5.18088 0.131919
vn -0.0406034 0.0622009 -0.997237
v -2.05176 5.90478 0.174032
vn -0.0405517 0.0626729 -0.99721
v -1.37479 5.87625 0.147648
vn 0.729983 0.177204 -0.660093
v -1.38124 5.87043 0.146354
vn 0.0352747 0.0797453 -0.996191
v -1.38454 5.89062 0.148351
vn 0.0691599 0.157812 -0.985044
v -1.47621 5.0847 0.139663
vn 0.0582525 -0.0661097 0.996111
v -1.48444 5.05966 0.138108
vn 0.0585446 -0.0989818 0.993366
v -1.46662 5.07104 0.137813
vn 0.108274 -0.095007 0.989571
v -2.14118 5.116 0.166946
vn 0.0190026 -0.189464 0.981704
v -2.1219 5.107 0.164458
vn -0.0966177 -0.962963 0.251729
v -1.81901 5.07958 0.152047
vn 0.0246903 -0.193256 0.980838
v -2.14265 5.11832 0.129726
vn -0.0602815 -0.065071 -0.996058
v -1.88742 5.08903 0.117727
vn -0.0533537 -0.0697326 -0.996138
v -2.12328 5.10918 0.129556
vn -0.120653 -0.88178 -0.455969
v -1.47775 5.08714 0.100608
vn -0.0204711 0.0584847 -0.998078
v -1.46811 5.0734 0.0999864
vn 0.0297692 0.0292449 -0.999129
v -1.48596 5.06206 0.0996802
vn -0.0201237 0.0255345 -0.999471
v -1.41077 5.46955 0.137807
vn 0.993353 -0.105602 -0.0458131
v -1.45318 5.08868 0.13609
vn 0.991272 -0.125164 0.0413942
v -1.4545 5.09076 0.102828
vn 0.982601 -0.113162 -0.147272
v -1.41574 5.83485 0.184464
vn 0.0403497 -0.0621746 0.997249
v -1.43243 5.4705 0.162137
vn 0.0579808 -0.0642767 0.996246
v -2.16516 5.1453 0.170029
vn -0.0352744 -0.0797448 0.996191
v -2.15017 5.13043 0.168811
vn 0.012652 -0.0940982 0.995483
v -2.16665 5.14766 0.132202
vn -0.113773 0.0445061 -0.992509
v -2.1633 5.1274 0.131409
vn -0.147062 -0.0345014 -0.988525
v -1.41731 5.83733 0.144772
vn -0.0385546 0.0624595 -0.997303
v -1.49621 5.11344 0.102659
vn -0.0386056 0.0619897 -0.99733
v -1.37222 5.87722 0.161815
vn 0.984886 0.170891 -0.0282028
v -1.37171 5.85035 0.147018
vn 0.985743 -0.0843326 -0.145598
v -2.08332 5.94951 0.21586
vn -0.776701 0.295648 0.556172
v -2.07071 5.96143 0.216686
vn -0.045962 0.0550235 0.997427
v -2.04854 5.96596 0.216394
vn 0.0469733 0.0671698 0.996635
v -2.02775 5.97083 0.214712
vn 0.109253 0.925902 0.361619
v -1.72603 5.94218 0.179781
vn 0.108169 0.992455 0.0577356
v -2.02913 5.97301 0.17981
vn 0.0771885 0.933425 -0.35037
v -2.05001 5.96828 0.179174
vn -0.0324581 0.190203 -0.981208
v -2.07215 5.96372 0.180063
vn -0.123861 0.178323 -0.976145
v -2.08472 5.95173 0.180389
vn -0.733531 0.332787 -0.592609
v -2.08573 5.95307 0.19472
vn -0.925499 0.373982 0.0599024
v -1.38309 5.88834 0.184974
vn 0.147061 0.0345019 0.988525
v -2.05019 5.9023 0.213724
vn 0.0384398 -0.0619716 0.997337
v -2.17469 5.16538 0.169365
vn -0.987494 0.085196 0.132655
v -2.11397 5.54524 0.154246
vn -0.0579807 0.0642767 -0.996246
v -1.39623 5.8853 0.147573
vn -0.0126516 0.0940987 -0.995482
v -1.46168 5.06401 0.135994
vn 0.816515 -0.358664 0.452398
v -1.47425 5.05201 0.13632
vn 0.12386 -0.178321 0.976146
v -1.49639 5.04745 0.13721
vn 0.0311024 -0.190734 0.981149
v -1.51727 5.04273 0.136573
vn -0.0850609 -0.96419 0.251201
v -1.82066 5.07401 0.129275
vn -0.108169 -0.992455 -0.0577356
v -1.51865 5.04491 0.101671
vn -0.108722 -0.859714 -0.49907
v -1.49786 5.04978 0.0999896
vn -0.0479213 -0.0675511 -0.996564
v -1.47569 5.0543 0.0996975
vn 0.0459628 -0.0550235 -0.997427
v -1.46308 5.06622 0.100524
vn 0.683096 -0.252958 -0.685122
v -1.46096 5.06311 0.114453
vn 0.925499 -0.373983 -0.0599018
v -1.49464 5.11096 0.142351
vn 0.0402982 -0.0626453 0.997222
v -2.16186 5.12511 0.168032
vn -0.0691601 -0.157813 0.985044
v -2.15168 5.13283 0.130382
vn -0.0660212 0.0304096 -0.997355
v -1.43398 5.47295 0.122886
vn -0.0207457 0.0603183 -0.997964
v -1.37039 5.84827 0.18028
vn 0.994432 -0.0961758 0.0430835
v -1.37339 5.87404 0.183119
vn 0.868766 0.120723 0.480283
v -1.77241 5.50662 0.178137
vn 0.0393692 -0.0623085 0.99728
v -2.17161 5.13948 0.168736
vn -0.828955 -0.183736 0.528275
v -2.15433 5.15907 0.131811
vn -0.0586453 0.0625427 -0.996318
v -1.39361 5.85911 0.145518
vn -0.0200819 0.0620513 -0.997871
f 1//1 2//2 3//3
f 1//1 3//3 4//4
f 1//1 4//4 5//5
f 1//1 5//5 6//6
f 1//1 6//6 2//2
f 7//7 8//8 9//9
f 10//10 11//11 12//12
f 13//13 14//14 15//15
f 16//16 17//17 18//18
f 19//19 20//20 21//21
f 22//22 23//23 24//24
f 22//22 24//24 25//25
f 22//22 25//25 26//26
f 22//22 26//26 27//27
f 22//22 27//27 23//23
f 28//28 29//29 30//30
f 31//31 32//32 33//33
f 34//34 35//35 36//36
f 37//37 38//38 39//39
f 40//40 41//41 42//42
f 13//13 43//43 44//44
f 10//10 45//45 46//46
f 7//7 47//47 48//48
f 19//19 49//49 50//50
f 16//16 51//51 52//52
f 10//10 53//53 45//45
f 13//13 54//54 43//43
f 16//16 55//55 51//51
f 19//19 56//56 49//49
f 7//7 57//57 47//47
f 40//40 58//58 59//59
f 28//28 60//60 61//61
f 31//31 62//62 63//63
f 34//34 64//64 65//65
f 37//37 66//66 67//67
f 40//40 68//68 58//58
f 28//28 69//69 60//60
f 31//31 70//70 62//62
f 34//34 71//71 64//64
f 37//37 72//72 66//66
f 10//10 46//46 11//11
f 7//7 48//48 8//8
f 19//19 50//50 20//20
f 16//16 52//52 17//17
f 13//13 44//44 14//14
f 40//40 42//42 68//68
f 28//28 30//30 69//69
f 31//31 33//33 70//70
f 34//34 36//36 71//71
f 37//37 39//39 72//72
f 28//28 61//61 29//29
f 31//31 63//63 32//32
f 34//34 65//65 35//35
f 37//37 67//67 38//38
f 40//40 59//59 41//41
f 10//10 12//12 53//53
f 13//13 15//15 54//54
f 16//16 18//18 55//55
f 19//19 21//21 56//56
f 7//7 9//9 57//57
f 73//73 74//74 75//75
f 76//76 77//77 78//78
f 79//79 80//80 81//81
f 82//82 83//83 84//84
f 85//85 86//86 87//87
f 88//88 89//89 90//90
f 91//91 92//92 93//93
f 94//94 95//95 96//96
f 97//97 98//98 99//99
f 100//100 101//101 102//102
f 103//103 104//104 105//105
f 106//106 107//107 108//108
f 109//109 110//110 111//111
f 112//112 113//113 114//114
f 115//115 116//116 117//117
f 88//88 118//118 119//119
f 91//91 120//120 121//121
f 94//94 122//122 123//123
f 97//97 124//124 125//125
f 100//100 126//126 127//127
f 128//128 129//129 2//2
f 130//130 131//131 3//3
f 132//132 133//133 4//4
f 134//134 135//135 5//5
f 136//136 137//137 6//6
f 76//76 138//138 8//8
f 73//73 139//139 11//11
f 85//85 140//140 14//14
f 82//82 141//141 17//17
f 79//79 142//142 20//20
f 143//143 144//144 23//23
f 145//145 146//146 24//24
f 147//147 148//148 25//25
f 149//149 150//150 26//26
f 151//151 152//152 27//27
f 103//103 153//153 29//29
f 106//106 154//154 32//32
f 109//109 155//155 35//35
f 112//112 156//156 38//38
f 115//115 157//157 41//41
f 73//73 75//75 43//43
f 76//76 78//78 45//45
f 79//79 81//81 47//47
f 82//82 84//84 49//49
f 85//85 87//87 51//51
f 88//88 90//90 53//53
f 91//91 93//93 54//54
f 94//94 96//96 55//55
f 97//97 99//99 56//56
f 100//100 102//102 57//57
f 103//103 105//105 58//58
f 106//106 108//108 60//60
f 109//109 111//111 62//62
f 112//112 114//114 64//64
f 115//115 117//117 66//66
f 88//88 119//119 68//68
f 91//91 121//121 69//69
f 94//94 123//123 70//70
f 97//97 125//125 71//71
f 100//100 127//127 72//72
f 130//130 74//74 46//46
f 132//132 77//77 48//48
f 134//134 80//80 50//50
f 136//136 83//83 52//52
f 128//128 86//86 44//44
f 158//158 89//89 42//42
f 159//159 92//92 30//30
f 160//160 95//95 33//33
f 161//161 98//98 36//36
f 162//162 101//101 39//39
f 145//145 104//104 61//61
f 147//147 107//107 63//63
f 149//149 110//110 65//65
f 151//151 113//113 67//67
f 143//143 116//116 59//59
f 159//159 118//118 12//12
f 160//160 120//120 15//15
f 161//161 122//122 18//18
f 162//162 124//124 21//21
f 158//158 126//126 9//9
f 130//130 129//129 74//74
f 132//132 131//131 77//77
f 134//134 133//133 80//80
f 136//136 135//135 83//83
f 128//128 137//137 86//86
f 158//158 138//138 89//89
f 159//159 139//139 92//92
f 160//160 140//140 95//95
f 161//161 141//141 98//98
f 162//162 142//142 101//101
f 145//145 144//144 104//104
f 147//147 146//146 107//107
f 149//149 148//148 110//110
f 151//151 150//150 113//113
f 143//143 152//152 116//116
f 159//159 153//153 118//118
f 160//160 154//154 120//120
f 161//161 155//155 122//122
f 162//162 156//156 124//124
f 158//158 157//157 126//126
f 130//130 3//3 129//129
f 132//132 4//4 131//131
f 134//134 5//5 133//133
f 136//136 6//6 135//135
f 128//128 2//2 137//137
f 158//158 9//9 138//138
f 159//159 12//12 139//139
f 160//160 15//15 140//140
f 161//161 18//18 141//141
f 162//162 21//21 142//142
f 145//145 24//24 144//144
f 147//147 25//25 146//146
f 149//149 26//26 148//148
f 151//151 27//27 150//150
f 143//143 23//23 152//152
f 159//159 30//30 153//153
f 160//160 33//33 154//154
f 161//161 36//36 155//155
f 162//162 39//39 156//156
f 158//158 42//42 157//157
f 128//128 44//44 75//75
f 130//130 46//46 78//78
f 132//132 48//48 81//81
f 134//134 50//50 84//84
f 136//136 52//52 87//87
f 76//76 45//45 90//90
f 73//73 43//43 93//93
f 85//85 51//51 96//96
f 82//82 49//49 99//99
f 79//79 47//47 102//102
f 143//143 59//59 105//105
f 145//145 61//61 108//108
f 147//147 63//63 111//111
f 149//149 65//65 114//114
f 151//151 67//67 117//117
f 103//103 58//58 119//119
f 106//106 60//60 121//121
f 109//109 62//62 123//123
f 112//112 64//64 125//125
f 115//115 66//66 127//127
f 73//73 11//11 74//74
f 76//76 8//8 77//77
f 79//79 20//20 80//80
f 82//82 17//17 83//83
f 85//85 14//14 86//86
f 88//88 68//68 89//89
f 91//91 69//69 92//92
f 94//94 70//70 95//95
f 97//97 71//71 98//98
f 100//100 72//72 101//101
f 103//103 29//29 104//104
f 106//106 32//32 107//107
f 109//109 35//35 110//110
f 112//112 38//38 113//113
f 115//115 41//41 116//116
f 88//88 53//53 118//118
f 91//91 54//54 120//120
f 94//94 55//55 122//122
f 97//97 56//56 124//124
f 100//100 57//57 126//126
f 128//128 75//75 129//129
f 130//130 78//78 131//131
f 132//132 81//81 133//133
f 134//134 84//84 135//135
f 136//136 87//87 137//137
f 76//76 90//90 138//138
f 73//73 93//93 139//139
f 85//85 96//96 140//140
f 82//82 99//99 141//141
f 79//79 102//102 142//142
f 143//143 105//105 144//144
f 145//145 108//108 146//146
f 147//147 111//111 148//148
f 149//149 114//114 150//150
f 151//151 117//117 152//152
f 103//103 119//119 153//153
f 106//106 121//121 154//154
f 109//109 123//123 155//155
f 112//112 125//125 156//156
f 115//115 127//127 157//157
f 129//129 3//3 2//2
f 131//131 4//4 3//3
f 133//133 5//5 4//4
f 135//135 6//6 5//5
f 137//137 2//2 6//6
f 138//138 9//9 8//8
f 139//139 12//12 11//11
f 140//140 15//15 14//14
f 141//141 18//18 17//17
f 142//142 21//21 20//20
f 144//144 24//24 23//23
f 146//146 25//25 24//24
f 148//148 26//26 25//25
f 150//150 27//27 26//26
f 152//152 23//23 27//27
f 153//153 30//30 29//29
f 154//154 33//33 32//32
f 155//155 36//36 35//35
f 156//156 39//39 38//38
f 157//157 42//42 41//41
f 75//75 44//44 43//43
f 78//78 46//46 45//45
f 81//81 48//48 47//47
f 84//84 50//50 49//49
f 87//87 52//52 51//51
f 90//90 45//45 53//53
f 93//93 43//43 54//54
f 96//96 51//51 55//55
f 99//99 49//49 56//56
f 102//102 47//47 57//57
f 105//105 59//59 58//58
f 108//108 61//61 60//60
f 111//111 63//63 62//62
f 114//114 65//65 64//64
f 117//117 67//67 66//66
f 119//119 58//58 68//68
f 121//121 60//60 69//69
f 123//123 62//62 70//70
f 125//125 64//64 71//71
f 127//127 66//66 72//72
f 74//74 11//11 46//46
f 77//77 8//8 48//48
f 80//80 20//20 50//50
f 83//83 17//17 52//52
f 86//86 14//14 44//44
f 89//89 68//68 42//42
f 92//92 69//69 30//30
f 95//95 70//70 33//33
f 98//98 71//71 36//36
f 101//101 72//72 39//39
f 104//104 29//29 61//61
f 107//107 32//32 63//63
f 110//110 35//35 65//65
f 113//113 38//38 67//67
f 116//116 41//41 59//59
f 118//118 53//53 12//12
f 120//120 54//54 15//15
f 122//122 55//55 18//18
f 124//124 56//56 21//21
f 126//126 57//57 9//9
f 129//129 75//75 74//74
f 131//131 78//78 77//77
f 133//133 81//81 80//80
f 135//135 84//84 83//83
f 137//137 87//87 86//86
f 138//138 90//90 89//89
f 139//139 93//93 92//92
f 140//140 96//96 95//95
f 141//141 99//99 98//98
f 142//142 102//102 101//101
f 144//144 105//105 104//104
f 146//146 108//108 107//107
f 148//148 111//111 110//110
f 150//150 114//114 113//113
f 152//152 117//117 116//116
f 153//153 119//119 118//118
f 154//154 121//121 120//120
f 155//155 123//123 122//122
f 156//156 125//125 124//124
f 157//157 127//127 126//126
