# Created by Open3D 
# object name: part_012
# number of vertices: 162
# number of triangles: 320
v -4.38539 4.25219 -0.701783
vn 0.0139817 0.99989 0.00491212
v -4.39003 4.25119 -0.68162
vn -0.29935 0.952295 0.0593593
v -4.38215 4.2514 -0.680905
vn 0.124583 0.988167 0.0894702
v -4.37531 4.25078 -0.701709
vn 0.261172 0.965291 0.0013683
v -4.38263 4.25158 -0.715859
vn 0.120852 0.985417 -0.119783
v -4.39048 4.25136 -0.714932
vn -0.304416 0.951242 -0.0496965
v -4.07998 4.16377 -0.706382
vn 0.522434 0.852675 -0.00274542
v -4.08256 4.16466 -0.685417
vn 0.42506 0.901171 0.084944
v -4.07603 4.16028 -0.686349
vn 0.76327 0.644624 0.0433486
v -4.2339 4.20258 -0.680967
vn 0.031799 0.0579278 0.997814
v -4.37681 4.24174 -0.678799
vn 0.0222029 0.0320627 0.999239
v -4.23586 4.19579 -0.680732
vn 0.014755 -0.0010474 0.999891
v -4.42518 4.14181 -0.679604
vn -0.26431 0.0754103 0.961485
v -4.42717 4.14239 -0.680761
vn -0.94279 0.272763 0.191696
v -4.45433 4.04199 -0.680073
vn -0.43426 0.112827 0.893694
v -4.42569 4.142 -0.717108
vn -0.290327 0.0851757 -0.953129
v -4.39509 4.2363 -0.717571
vn -0.131065 0.0411082 -0.990521
v -4.45021 4.04593 -0.717793
vn -0.132133 0.0374105 -0.990526
v -4.26598 4.21191 -0.719846
vn 0.0046904 0.068091 -0.997668
v -4.09793 4.16652 -0.721986
vn 0.0313675 0.15545 -0.987346
v -4.09271 4.15953 -0.722494
vn -0.00140719 0.0410316 -0.999157
v -4.1451 3.93886 -0.706644
vn -0.0139866 -0.99989 -0.00491206
v -4.13991 3.93965 -0.686606
vn 0.300737 -0.952804 0.0414903
v -4.14777 3.93944 -0.685679
vn -0.122259 -0.989043 0.082742
v -4.15517 3.94027 -0.706282
vn -0.261174 -0.965291 -0.00136827
v -4.14824 3.93962 -0.720633
vn -0.124192 -0.984163 -0.126488
v -4.14037 3.93982 -0.719918
vn 0.30282 -0.950644 -0.0676456
v -4.29596 3.98824 -0.681217
vn -0.00468938 -0.0680875 0.997668
v -4.15305 3.94907 -0.68333
vn 0.00494304 -0.0422464 0.999095
v -4.29399 3.99503 -0.680966
vn 0.0124091 -0.00914902 0.999881
v -4.45051 4.02729 -0.702045
vn -0.522439 -0.852672 0.0027455
v -4.44737 4.02618 -0.681167
vn -0.422724 -0.902046 0.0872735
v -4.45391 4.03057 -0.681878
vn -0.761929 -0.645104 0.0574969
v -4.32804 3.99757 -0.720096
vn -0.031802 -0.0579381 -0.997814
v -4.43299 4.02469 -0.718158
vn -0.0590313 -0.147507 -0.987298
v -4.43822 4.03169 -0.718453
vn -0.0267347 -0.0310624 -0.99916
v -4.10522 4.04921 -0.721934
vn 0.26431 -0.0754103 -0.961485
v -4.13583 3.95491 -0.722527
vn 0.104102 -0.0309878 -0.994084
v -4.08071 4.14528 -0.722305
vn 0.105178 -0.0272921 -0.994079
v -4.10471 4.04902 -0.68443
vn 0.290327 -0.0851757 0.953129
v -4.10274 4.04845 -0.685647
vn 0.947607 -0.274572 0.163251
v -4.07557 4.14884 -0.684673
vn 0.458361 -0.121873 0.88037
v -4.39456 4.23611 -0.679011
vn -0.104102 0.0309878 0.994084
v -4.39649 4.24175 -0.67984
vn -0.427944 0.134743 0.893705
v -4.0974 4.16632 -0.68338
vn 0.0585822 0.14637 0.987494
v -4.36866 4.24486 -0.679295
vn 0.0561273 0.147089 0.987529
v -4.08303 4.16484 -0.720371
vn 0.420942 0.89853 -0.124304
v -4.08925 4.16796 -0.706017
vn 0.294993 0.955499 0.000868697
v -4.37734 4.24194 -0.718208
vn -0.00538248 0.042681 -0.999074
v -4.36919 4.24506 -0.717901
vn 0.029533 0.158361 -0.98694
v -4.42765 4.14257 -0.715891
vn -0.933123 0.270464 -0.236918
v -4.39699 4.24194 -0.716632
vn -0.452022 0.143781 -0.880343
v -4.09217 4.15933 -0.683085
vn 0.0261288 0.0309222 0.99918
v -4.44968 4.04574 -0.679233
vn -0.105178 0.0272921 0.994079
v -4.45483 4.04218 -0.716865
vn -0.458361 0.121873 -0.88037
v -4.26834 4.20524 -0.720092
vn -0.0124088 0.00914992 -0.999881
v -4.07648 4.16045 -0.71966
vn 0.763963 0.641897 -0.0657915
v -4.13531 3.95472 -0.683967
vn 0.131065 -0.0411082 0.990521
v -4.13341 3.94908 -0.684906
vn 0.452022 -0.143781 0.880343
v -4.43247 4.0245 -0.679552
vn -0.0317568 -0.156428 0.987179
v -4.16121 3.94596 -0.683637
vn -0.0293 -0.157142 0.987141
v -4.44784 4.02636 -0.716121
vn -0.424285 -0.897276 -0.121976
v -4.44124 4.02309 -0.701974
vn -0.294991 -0.9555 -0.000868724
v -4.15359 3.94927 -0.722739
vn -0.0224933 -0.0317911 -0.999241
v -4.16173 3.94616 -0.722243
vn -0.0559293 -0.146039 -0.987697
v -4.10322 4.04863 -0.720777
vn 0.92631 -0.267906 -0.264908
v -4.13391 3.94927 -0.721698
vn 0.427944 -0.134743 -0.893705
v -4.08019 4.14508 -0.683745
vn 0.132133 -0.0374105 0.990526
v -4.43769 4.03148 -0.679044
vn 0.00101432 -0.0411138 0.999154
v -4.45436 4.03074 -0.715189
vn -0.765566 -0.641289 -0.051545
v -4.32647 4.00448 -0.720326
vn -0.0147554 0.00104582 -0.999891
v -4.07607 4.14902 -0.721465
vn 0.43426 -0.112827 -0.893694
v -4.38745 4.24102 -0.678784
vn -0.0242861 0.0127398 0.999624
v -4.38306 4.24707 -0.679127
vn 0.00112223 0.129636 0.991561
v -4.39143 4.24575 -0.679321
vn -0.108368 0.126309 0.986054
v -4.08775 4.16538 -0.684161
vn 0.143894 0.407204 0.901931
v -4.09625 4.16982 -0.685184
vn 0.281672 0.955417 0.0885428
v -4.23238 4.20786 -0.681885
vn 0.134844 0.419026 0.897906
v -4.08825 4.16557 -0.721478
vn 0.118075 0.418174 -0.90066
v -4.26295 4.21676 -0.718938
vn 0.110476 0.428216 -0.896898
v -4.09673 4.17 -0.720178
vn 0.277257 0.951384 -0.134157
v -4.38798 4.24122 -0.717941
vn -0.0514323 0.0229278 -0.998413
v -4.39195 4.24595 -0.717247
vn -0.135105 0.136333 -0.981407
v -4.38358 4.24726 -0.717656
vn -0.0258031 0.139729 -0.989854
v -4.42809 4.14268 -0.70199
vn -0.960448 0.278083 0.0144621
v -4.39805 4.24233 -0.681538
vn -0.951826 0.301573 0.0555075
v -4.3985 4.2425 -0.714887
vn -0.952798 0.301839 -0.0326836
v -4.08357 4.15304 -0.68336
vn 0.0550963 -0.010244 0.998428
v -4.07769 4.15491 -0.684046
vn 0.186436 0.0409588 0.981613
v -4.08406 4.1605 -0.68363
vn 0.0958474 0.102203 0.990135
v -4.4463 4.03778 -0.679021
vn -0.0279645 5.9293e-05 0.999609
v -4.435 4.04137 -0.678837
vn 0.0113528 -0.0053597 0.999921
v -4.41764 4.13962 -0.678792
vn -0.0251512 0.00611758 0.999665
v -4.45575 4.03513 -0.716274
vn -0.9293 -0.170139 -0.327803
v -4.45651 4.03475 -0.702095
vn -0.985198 -0.170963 0.0125161
v -4.45641 4.04252 -0.71512
vn -0.966647 0.254012 -0.0327429
v -4.29753 4.10489 -0.720284
vn -0.0135823 0.00509791 -0.999895
v -4.43554 4.04157 -0.718632
vn -0.0163406 0.00498653 -0.999854
v -4.38035 4.23216 -0.71841
vn -0.0158545 0.00666547 -0.999852
v -4.07513 4.15607 -0.720828
vn 0.920067 0.173603 -0.351196
v -4.0782 4.15511 -0.721972
vn 0.159712 0.0509804 -0.985846
v -4.07915 4.16099 -0.721325
vn 0.273689 0.299877 -0.913875
v -4.14242 3.9498 -0.683597
vn 0.0514323 -0.0229278 0.998413
v -4.14681 3.94375 -0.683882
vn 0.0258031 -0.139729 0.989854
v -4.13845 3.94507 -0.684291
vn 0.135105 -0.136333 0.981407
v -4.44214 4.02545 -0.68006
vn -0.119407 -0.416416 0.901299
v -4.43367 4.02102 -0.68136
vn -0.279294 -0.956309 0.0864127
v -4.2975 3.98296 -0.682147
vn -0.110476 -0.428216 0.896898
v -4.44265 4.02564 -0.717377
vn -0.145814 -0.404687 -0.902755
v -4.32807 3.99186 -0.7192
vn -0.134844 -0.419026 -0.897906
v -4.43415 4.0212 -0.716354
vn -0.281324 -0.952014 -0.120521
v -4.14295 3.95 -0.722754
vn 0.0242861 -0.0127398 -0.999624
v -4.13896 3.94526 -0.722217
vn 0.108368 -0.126309 -0.986054
v -4.14734 3.94395 -0.722411
vn -0.00112223 -0.129636 -0.991561
v -4.1024 4.04838 -0.706895
vn 0.960448 -0.278083 -0.0144621
v -4.13189 3.94852 -0.686651
vn 0.95294 -0.301992 0.0265672
v -4.13235 3.94869 -0.72
vn 0.951517 -0.30136 -0.0616208
v -4.09486 4.14945 -0.682906
vn 0.0158111 -0.00483572 0.999863
v -4.11223 4.0512 -0.683392
vn 0.0522912 -0.0163047 0.998499
v -4.45219 4.03591 -0.679566
vn -0.159712 -0.0509804 0.985846
v -4.44582 4.03033 -0.679379
vn -0.0689331 -0.112301 0.99128
v -4.45271 4.0361 -0.717492
vn -0.186436 -0.0409588 -0.981613
v -4.45174 4.03022 -0.716931
vn -0.298436 -0.290577 -0.909121
v -4.0954 4.14965 -0.722701
vn -0.0116976 0.00545789 -0.999917
v -4.15058 3.95906 -0.722923
vn -0.0121815 0.00378693 -0.999919
v -4.07398 4.1563 -0.706671
vn 0.985198 0.170963 -0.0125161
v -4.07444 4.14867 -0.719767
vn 0.965365 -0.253532 -0.0615727
v -4.39351 4.24821 -0.680462
vn -0.7098 0.655026 0.259085
v -4.38749 4.25022 -0.679956
vn -0.0716825 0.397752 0.914689
v -4.37735 4.24923 -0.679799
vn 0.121 0.413852 0.902267
v -4.36782 4.24845 -0.681095
vn 0.274822 0.9574 0.0886447
v -4.23216 4.20981 -0.704309
vn 0.278127 0.960544 0.00111807
v -4.36829 4.24862 -0.716088
vn 0.270941 0.955299 -0.118298
v -4.37785 4.24942 -0.717117
vn 0.0935512 0.421996 -0.901758
v -4.38799 4.2504 -0.716675
vn -0.0964534 0.407053 -0.908298
v -4.39399 4.24839 -0.716026
vn -0.694414 0.641044 -0.326881
v -4.39445 4.24909 -0.701845
vn -0.741441 0.670882 0.0134887
v -4.07865 4.1608 -0.684607
vn 0.298436 0.290577 0.909121
v -4.37981 4.23195 -0.678615
vn 0.0118379 -0.00368546 0.999923
v -4.45595 4.04234 -0.681771
vn -0.965737 0.253528 0.0554575
v -4.41817 4.13982 -0.718146
vn -0.0522912 0.0163047 -0.998499
v -4.08458 4.16069 -0.722159
vn 0.0689331 0.112301 -0.99128
v -4.1364 3.94263 -0.685512
vn 0.716491 -0.657529 0.233015
v -4.14241 3.94061 -0.684863
vn 0.0964534 -0.407053 0.908298
v -4.15254 3.9416 -0.684421
vn -0.0965195 -0.423097 0.900929
v -4.1621 3.94239 -0.68545
vn -0.272445 -0.958293 0.0863072
v -4.29834 3.98124 -0.704575
vn -0.278126 -0.960544 -0.00111807
v -4.16258 3.94257 -0.720443
vn -0.273883 -0.952046 -0.136369
v -4.15305 3.94179 -0.721739
vn -0.123065 -0.414628 -0.901631
v -4.14291 3.9408 -0.721582
vn 0.0716825 -0.397752 -0.914689
v -4.13688 3.94281 -0.721076
vn 0.685186 -0.637591 -0.352133
v -4.13605 3.94197 -0.706921
vn 0.741441 -0.670882 -0.0134887
v -4.15004 3.95886 -0.683128
vn 0.0153267 -0.00650978 0.999861
v -4.45124 4.03003 -0.680213
vn -0.273689 -0.299877 0.913875
v -4.44634 4.03052 -0.717908
vn -0.0958474 -0.102203 -0.990135
v -4.11276 4.0514 -0.722746
vn 0.0251512 -0.00611758 -0.999665
v -4.07399 4.1485 -0.686418
vn 0.966851 -0.253949 0.026627
v -4.07465 4.15589 -0.685264
vn 0.956819 0.172479 0.233985
v -4.26493 4.09541 -0.680771
vn 0.0135823 -0.00509765 0.999895
v -4.45526 4.03495 -0.68071
vn -0.950137 -0.174991 0.258103
v -4.44683 4.03798 -0.718178
vn -0.0550963 0.010244 -0.998428
v -4.0841 4.15324 -0.722517
vn 0.0279645 -5.9293e-05 -0.999609
f 1//1 2//2 3//3
f 1//1 3//3 4//4
f 1//1 4//4 5//5
f 1//1 5//5 6//6
f 1//1 6//6 2//2
f 7//7 8//8 9//9
f 10//10 11//11 12//12
f 13//13 14//14 15//15
f 16//16 17//17 18//18
f 19//19 20//20 21//21
f 22//22 23//23 24//24
f 22//22 24//24 25//25
f 22//22 25//25 26//26
f 22//22 26//26 27//27
f 22//22 27//27 23//23
f 28//28 29//29 30//30
f 31//31 32//32 33//33
f 34//34 35//35 36//36
f 37//37 38//38 39//39
f 40//40 41//41 42//42
f 13//13 43//43 44//44
f 10//10 45//45 46//46
f 7//7 47//47 48//48
f 19//19 49//49 50//50
f 16//16 51//51 52//52
f 10//10 53//53 45//45
f 13//13 54//54 43//43
f 16//16 55//55 51//51
f 19//19 56//56 49//49
f 7//7 57//57 47//47
f 40//40 58//58 59//59
f 28//28 60//60 61//61
f 31//31 62//62 63//63
f 34//34 64//64 65//65
f 37//37 66//66 67//67
f 40//40 68//68 58//58
f 28//28 69//69 60//60
f 31//31 70//70 62//62
f 34//34 71//71 64//64
f 37//37 72//72 66//66
f 10//10 46//46 11//11
f 7//7 48//48 8//8
f 19//19 50//50 20//20
f 16//16 52//52 17//17
f 13//13 44//44 14//14
f 40//40 42//42 68//68
f 28//28 30//30 69//69
f 31//31 33//33 70//70
f 34//34 36//36 71//71
f 37//37 39//39 72//72
f 28//28 61//61 29//29
f 31//31 63//63 32//32
f 34//34 65//65 35//35
f 37//37 67//67 38//38
f 40//40 59//59 41//41
f 10//10 12//12 53//53
f 13//13 15//15 54//54
f 16//16 18//18 55//55
f 19//19 21//21 56//56
f 7//7 9//9 57//57
f 73//73 74//74 75//75
f 76//76 77//77 78//78
f 79//79 80//80 81//81
f 82//82 83//83 84//84
f 85//85 86//86 87//87
f 88//88 89//89 90//90
f 91//91 92//92 93//93
f 94//94 95//95 96//96
f 97//97 98//98 99//99
f 100//100 101//101 102//102
f 103//103 104//104 105//105
f 106//106 107//107 108//108
f 109//109 110//110 111//111
f 112//112 113//113 114//114
f 115//115 116//116 117//117
f 88//88 118//118 119//119
f 91//91 120//120 121//121
f 94//94 122//122 123//123
f 97//97 124//124 125//125
f 100//100 126//126 127//127
f 128//128 129//129 2//2
f 130//130 131//131 3//3
f 132//132 133//133 4//4
f 134//134 135//135 5//5
f 136//136 137//137 6//6
f 76//76 138//138 8//8
f 73//73 139//139 11//11
f 85//85 140//140 14//14
f 82//82 141//141 17//17
f 79//79 142//142 20//20
f 143//143 144//144 23//23
f 145//145 146//146 24//24
f 147//147 148//148 25//25
f 149//149 150//150 26//26
f 151//151 152//152 27//27
f 103//103 153//153 29//29
f 106//106 154//154 32//32
f 109//109 155//155 35//35
f 112//112 156//156 38//38
f 115//115 157//157 41//41
f 73//73 75//75 43//43
f 76//76 78//78 45//45
f 79//79 81//81 47//47
f 82//82 84//84 49//49
f 85//85 87//87 51//51
f 88//88 90//90 53//53
f 91//91 93//93 54//54
f 94//94 96//96 55//55
f 97//97 99//99 56//56
f 100//100 102//102 57//57
f 103//103 105//105 58//58
f 106//106 108//108 60//60
f 109//109 111//111 62//62
f 112//112 114//114 64//64
f 115//115 117//117 66//66
f 88//88 119//119 68//68
f 91//91 121//121 69//69
f 94//94 123//123 70//70
f 97//97 125//125 71//71
f 100//100 127//127 72//72
f 130//130 74//74 46//46
f 132//132 77//77 48//48
f 134//134 80//80 50//50
f 136//136 83//83 52//52
f 128//128 86//86 44//44
f 158//158 89//89 42//42
f 159//159 92//92 30//30
f 160//160 95//95 33//33
f 161//161 98//98 36//36
f 162//162 101//101 39//39
f 145//145 104//104 61//61
f 147//147 107//107 63//63
f 149//149 110//110 65//65
f 151//151 113//113 67//67
f 143//143 116//116 59//59
f 159//159 118//118 12//12
f 160//160 120//120 15//15
f 161//161 122//122 18//18
f 162//162 124//124 21//21
f 158//158 126//126 9//9
f 130//130 129//129 74//74
f 132//132 131//131 77//77
f 134//134 133//133 80//80
f 136//136 135//135 83//83
f 128//128 137//137 86//86
f 158//158 138//138 89//89
f 159//159 139//139 92//92
f 160//160 140//140 95//95
f 161//161 141//141 98//98
f 162//162 142//142 101//101
f 145//145 144//144 104//104
f 147//147 146//146 107//107
f 149//149 148//148 110//110
f 151//151 150//150 113//113
f 143//143 152//152 116//116
f 159//159 153//153 118//118
f 160//160 154//154 120//120
f 161//161 155//155 122//122
f 162//162 156//156 124//124
f 158//158 157//157 126//126
f 130//130 3//3 129//129
f 132//132 4//4 131//131
f 134//134 5//5 133//133
f 136//136 6//6 135//135
f 128//128 2//2 137//137
f 158//158 9//9 138//138
f 159//159 12//12 139//139
f 160//160 15//15 140//140
f 161//161 18//18 141//141
f 162//162 21//21 142//142
f 145//145 24//24 144//144
f 147//147 25//25 146//146
f 149//149 26//26 148//148
f 151//151 27//27 150//150
f 143//143 23//23 152//152
f 159//159 30//30 153//153
f 160//160 33//33 154//154
f 161//161 36//36 155//155
f 162//162 39//39 156//156
f 158//158 42//42 157//157
f 128//128 44//44 75//75
f 130//130 46//46 78//78
f 132//132 48//48 81//81
f 134//134 50//50 84//84
f 136//136 52//52 87//87
f 76//76 45//45 90//90
f 73//73 43//43 93//93
f 85//85 51//51 96//96
f 82//82 49//49 99//99
f 79//79 47//47 102//102
f 143//143 59//59 105//105
f 145//145 61//61 108//108
f 147//147 63//63 111//111
f 149//149 65//65 114//114
f 151//151 67//67 117//117
f 103//103 58//58 119//119
f 106//106 60//60 121//121
f 109//109 62//62 123//123
f 112//112 64//64 125//125
f 115//115 66//66 127//127
f 73//73 11//11 74//74
f 76//76 8//8 77//77
f 79//79 20//20 80//80
f 82//82 17//17 83//83
f 85//85 14//14 86//86
f 88//88 68//68 89//89
f 91//91 69//69 92//92
f 94//94 70//70 95//95
f 97//97 71//71 98//98
f 100//100 72//72 101//101
f 103//103 29//29 104//104
f 106//106 32//32 107//107
f 109//109 35//35 110//110
f 112//112 38//38 113//113
f 115//115 41//41 116//116
f 88//88 53//53 118//118
f 91//91 54//54 120//120
f 94//94 55//55 122//122
f 97//97 56//56 124//124
f 100//100 57//57 126//126
f 128//128 75//75 129//129
f 130//130 78//78 131//131
f 132//132 81//81 133//133
f 134//134 84//84 135//135
f 136//136 87//87 137//137
f 76//76 90//90 138//138
f 73//73 93//93 139//139
f 85//85 96//96 140//140
f 82//82 99//99 141//141
f 79//79 102//102 142//142
f 143//143 105//105 144//144
f 145//145 108//108 146//146
f 147//147 111//111 148//148
f 149//149 114//114 150//150
f 151//151 117//117 152//152
f 103//103 119//119 153//153
f 106//106 121//121 154//154
f 109//109 123//123 155//155
f 112//112 125//125 156//156
f 115//115 127//127 157//157
f 129//129 3//3 2//2
f 131//131 4//4 3//3
f 133//133 5//5 4//4
f 135//135 6//6 5//5
f 137//137 2//2 6//6
f 138//138 9//9 8//8
f 139//139 12//12 11//11
f 140//140 15//15 14//14
f 141//141 18//18 17//17
f 142//142 21//21 20//20
f 144//144 24//24 23//23
f 146//146 25//25 24//24
f 148//148 26//26 25//25
f 150//150 27//27 26//26
f 152//152 23//23 27//27
f 153//153 30//30 29//29
f 154//154 33//33 32//32
f 155//155 36//36 35//35
f 156//156 39//39 38//38
f 157//157 42//42 41//41
f 75//75 44//44 43//43
f 78//78 46//46 45//45
f 81//81 48//48 47//47
f 84//84 50//50 49//49
f 87//87 52//52 51//51
f 90//90 45//45 53//53
f 93//93 43//43 54//54
f 96//96 51//51 55//55
f 99//99 49//49 56//56
f 102//102 47//47 57//57
f 105//105 59//59 58//58
f 108//108 61//61 60//60
f 111//111 63//63 62//62
f 114//114 65//65 64//64
f 117//117 67//67 66//66
f 119//119 58//58 68//68
f 121//121 60//60 69//69
f 123//123 62//62 70//70
f 125//125 64//64 71//71
f 127//127 66//66 72//72
f 74//74 11//11 46//46
f 77//77 8//8 48//48
f 80//80 20//20 50//50
f 83//83 17//17 52//52
f 86//86 14//14 44//44
f 89//89 68//68 42//42
f 92//92 69//69 30//30
f 95//95 70//70 33//33
f 98//98 71//71 36//36
f 101//101 72//72 39//39
f 104//104 29//29 61//61
f 107//107 32//32 63//63
f 110//110 35//35 65//65
f 113//113 38//38 67//67
f 116//116 41//41 59//59
f 118//118 53//53 12//12
f 120//120 54//54 15//15
f 122//122 55//55 18//18
f 124//124 56//56 21//21
f 126//126 57//57 9//9
f 129//129 75//75 74//74
f 131//131 78//78 77//77
f 133//133 81//81 80//80
f 135//135 84//84 83//83
f 137//137 87//87 86//86
f 138//138 90//90 89//89
f 139//139 93//93 92//92
f 140//140 96//96 95//95
f 141//141 99//99 98//98
f 142//142 102//102 101//101
f 144//144 105//105 104//104
f 146//146 108//108 107//107
f 148//148 111//111 110//110
f 150//150 114//114 113//113
f 152//152 117//117 116//116
f 153//153 119//119 118//118
f 154//154 121//121 120//120
f 155//155 123//123 122//122
f 156//156 125//125 124//124
f 157//157 127//127 126//126
