# https://github.com/mikedh/trimesh

o boxlarge_f1000.ply
v 0.18314974 -0.20671923 0.12188744 0.17647059 0.29019608 0.10196078
v 0.18445152 -0.20641857 0.12159383 0.18039216 0.29803922 0.10588235
v 0.18501140 -0.20433014 0.12285902 0.23921569 0.36078431 0.13725490
v 0.23923093 -0.18794121 0.06007980 0.52549020 0.66274510 0.33333333
v 0.24538259 -0.18438397 0.04503318 0.68627451 0.80784314 0.50980392
v 0.16680150 -0.20391026 0.13857404 0.44705882 0.56470588 0.24705882
v 0.22671332 -0.19996680 0.01638075 0.45098039 0.58431373 0.28235294
v 0.16219242 -0.20480038 0.13713039 0.39215686 0.51372549 0.21176471
v 0.20738396 -0.18867466 0.08522336 0.64705882 0.78431373 0.47058824
v 0.19998938 -0.19228257 0.09797180 0.39215686 0.53725490 0.22352941
v 0.09914878 -0.21746060 0.19096715 0.56078431 0.73333333 0.30196078
v 0.19459410 -0.20638934 -0.00610330 0.45490196 0.61568627 0.27058824
v 0.08973684 -0.21623510 0.20055259 0.57647059 0.74509804 0.32156863
v 0.12455796 -0.20267453 0.16650600 0.43137255 0.55294118 0.27843137
v 0.24158054 -0.13255714 0.03494889 0.86274510 0.95294118 0.71372549
v 0.18318653 -0.18968969 0.11211823 0.34901961 0.49411765 0.21568627
v 0.19882403 -0.19309029 -0.00704048 0.69803922 0.81960784 0.54509804
v 0.14422935 -0.19714272 0.14184702 0.34509804 0.47843137 0.22745098
v 0.12168054 -0.20351435 0.15933159 0.59607843 0.73333333 0.45882353
v 0.16003841 -0.18672218 0.12897517 0.57647059 0.71372549 0.41176471
v 0.11796597 -0.20017400 0.16944284 0.32941176 0.45098039 0.21176471
v 0.09379112 -0.20395557 0.15249754 0.37254902 0.50588235 0.25882353
v 0.11475443 -0.18872128 0.17574563 0.44313725 0.58431373 0.29803922
v 0.16005007 -0.21253879 0.00604281 0.37254902 0.52156863 0.26274510
v 0.17446938 -0.20228218 -0.02467964 0.43921569 0.58431373 0.29411765
v 0.10380787 -0.19823735 0.18204114 0.34117647 0.43529412 0.19215686
v 0.16086440 -0.20500467 -0.00630226 0.38431373 0.52156863 0.26666667
v 0.10417027 -0.19421099 0.16742527 0.36862745 0.50196078 0.25490196
v 0.16607990 -0.16140295 0.12565940 0.81960784 0.93333333 0.66274510
v 0.09447341 -0.19722228 0.15466401 0.39607843 0.54117647 0.28235294
v 0.14640634 -0.20996430 -0.03154477 0.47450980 0.60392157 0.33333333
v 0.13213077 -0.21233586 0.01316700 0.33725490 0.48627451 0.23921569
v 0.08222155 -0.19068908 0.19965861 0.50588235 0.65882353 0.36470588
v 0.08262017 -0.18718293 0.23594327 0.49411765 0.58431373 0.34509804
v 0.08455784 -0.19046201 0.17754579 0.39215686 0.52941176 0.27450980
v 0.07589332 -0.18587818 0.21798638 0.65098039 0.77647059 0.49411765
v 0.21982253 -0.12782364 0.01048962 0.87058824 0.95686275 0.71372549
v 0.12774447 -0.21149556 0.00795183 0.42745098 0.56862745 0.30196078
v 0.10071581 -0.18206683 0.19243794 0.71764706 0.84705882 0.54509804
v 0.08257397 -0.18508429 0.23615185 0.53725490 0.65098039 0.37254902
v 0.15539004 -0.19786079 -0.01898261 0.41176471 0.54901961 0.29803922
v 0.24100223 -0.11825864 0.04625845 0.85882353 0.96078431 0.70588235
v 0.12766177 -0.20177946 0.02486953 0.31764706 0.44705882 0.21568627
v 0.14251277 -0.19534797 -0.00748348 0.39607843 0.54117647 0.28235294
v 0.06237717 -0.18863142 0.20924088 0.58823529 0.72156863 0.43137255
v 0.07431330 -0.19184200 0.14061217 0.37254902 0.48627451 0.26666667
v 0.14940598 -0.19636347 -0.05823825 0.70196078 0.81568627 0.54509804
v 0.14756909 -0.19874254 -0.03799132 0.66666667 0.78823529 0.49803922
v 0.10547221 -0.20298407 0.01419741 0.36078431 0.50196078 0.25882353
v 0.03943837 -0.18687661 0.23950277 0.72941176 0.83529412 0.56470588
v 0.04726754 -0.18216317 0.24367453 0.76862745 0.86274510 0.58039216
v 0.06690594 -0.18452024 0.17232855 0.42745098 0.56078431 0.30980392
v 0.06591848 -0.20232120 0.11441280 0.41568627 0.52549020 0.30980392
v 0.12012709 -0.20495617 0.00688258 0.38431373 0.51764706 0.27450980
v 0.03837147 -0.18733066 0.22669128 0.62745098 0.75294118 0.47058824
v 0.10791132 -0.21041403 -0.00799122 0.45882353 0.59607843 0.32941176
v 0.13366259 -0.20620900 -0.05274236 0.59215686 0.71372549 0.42352941
v 0.05145003 -0.18137568 0.24749805 0.64705882 0.77254902 0.47058824
v 0.19078403 -0.11776186 -0.02101646 0.86274510 0.95294118 0.69803922
v 0.00896578 -0.18250273 0.22565482 0.53725490 0.64313725 0.40000000
v 0.04294137 -0.19097283 0.19402706 0.52941176 0.65098039 0.40000000
v 0.07066994 -0.19038340 0.14719843 0.43137255 0.56470588 0.31764706
v 0.09642695 -0.19651297 -0.00653366 0.46666667 0.61960784 0.34117647
v 0.05689795 -0.19519640 0.11169451 0.43529412 0.53333333 0.30980392
v 0.04291140 -0.19804408 0.15961584 0.52941176 0.67058824 0.39215686
v 0.06360456 -0.18828094 0.14680087 0.46666667 0.60000000 0.33725490
v 0.05775224 -0.19444169 0.13110480 0.45882353 0.59607843 0.34117647
v 0.07507318 -0.20482218 0.01524892 0.47058824 0.63529412 0.34509804
v 0.04095692 -0.19055422 0.16996750 0.58431373 0.72549020 0.44313725
v 0.08943130 -0.20197387 -0.01988029 0.51764706 0.65882353 0.37254902
v 0.00911921 -0.17878652 0.28282879 0.74509804 0.84313725 0.55686275
v 0.00859308 -0.18521739 0.23820092 0.68235294 0.79215686 0.52941176
v 0.04717247 -0.20331933 0.10730166 0.59215686 0.70980392 0.47843137
v 0.02620147 -0.19062313 0.16459760 0.61568627 0.74901961 0.46666667
v 0.01479345 -0.17398713 0.23358282 0.68235294 0.80784314 0.52156863
v 0.13461150 -0.18980244 -0.00619000 0.46666667 0.63921569 0.34901961
v 0.10108179 -0.20967555 -0.08083927 0.65098039 0.78431373 0.48627451
v 0.08334314 -0.20751983 -0.04884488 0.61568627 0.74901961 0.43529412
v -0.00950046 -0.19033285 0.25041013 0.65490196 0.76862745 0.47843137
v 0.02138600 -0.18610659 0.20615465 0.64313725 0.76862745 0.48627451
v 0.11877086 -0.19756969 -0.08586383 0.75686275 0.86666667 0.58823529
v 0.05910751 -0.21798907 -0.00205757 0.50980392 0.71372549 0.38823529
v 0.01595281 -0.19322986 0.18135462 0.62745098 0.75686275 0.47450980
v 0.06933639 -0.21629221 -0.00681873 0.53333333 0.69019608 0.38823529
v 0.09871091 -0.20485545 -0.10154112 0.59215686 0.69803922 0.43137255
v 0.03133862 -0.15203199 0.26560785 0.85490196 0.95294118 0.69019608
v 0.02571876 -0.18656674 0.12403446 0.53333333 0.65882353 0.39607843
v 0.07994825 -0.20394914 -0.03544186 0.63137255 0.76470588 0.45490196
v 0.03216005 -0.18993954 0.14507192 0.57647059 0.71372549 0.42745098
v 0.11773030 -0.10508777 0.17385716 0.85098039 0.95686275 0.70196078
v 0.00727259 -0.15926526 0.28654338 0.90980392 0.97647059 0.79215686
v 0.08180521 -0.20855163 -0.07895775 0.68235294 0.81568627 0.50588235
v 0.02514821 -0.20048752 0.08453492 0.69803922 0.80392157 0.56862745
v 0.07930280 -0.19112989 -0.00485827 0.55294118 0.71372549 0.41960784
v -0.00072076 -0.18902144 0.19177615 0.64705882 0.77254902 0.48627451
v -0.02207775 -0.18655122 0.22304721 0.67058824 0.78823529 0.50196078
v -0.00428656 -0.19068107 0.20893665 0.66666667 0.79215686 0.50588235
v 0.04977784 -0.20079121 -0.00301383 0.61568627 0.76470588 0.45882353
v -0.01435680 -0.18759812 0.17224491 0.62352941 0.74901961 0.46274510
v 0.01214682 -0.19027312 0.14011758 0.55686275 0.67843137 0.41176471
v 0.05747711 -0.20547315 -0.02817910 0.60000000 0.73333333 0.42745098
v -0.02859164 -0.17389117 0.25868984 0.91372549 0.96078431 0.82745098
v -0.03867252 -0.18213816 0.24239454 0.66666667 0.77254902 0.49411765
v 0.01693416 -0.19210532 0.09799775 0.62352941 0.75294118 0.47058824
v 0.04113893 -0.19717249 0.02794174 0.74901961 0.87450980 0.57647059
v 0.01273728 -0.19547318 0.06901388 0.67450980 0.78823529 0.45490196
v 0.02885244 -0.19494896 0.05490112 0.69803922 0.83137255 0.51764706
v 0.07630828 -0.21288709 -0.11478797 0.46274510 0.55294118 0.34509804
v -0.03822487 -0.18759085 0.21598612 0.65490196 0.78039216 0.49019608
v -0.00503218 -0.19437587 0.14197374 0.59607843 0.72156863 0.45098039
v -0.00372343 -0.19616516 0.10660272 0.60392157 0.72941176 0.46666667
v 0.06793821 -0.20442701 -0.08011818 0.68235294 0.80392157 0.49019608
v -0.02822689 -0.18546271 0.18779634 0.61568627 0.73725490 0.45490196
v 0.04840819 -0.20474617 -0.06593887 0.65490196 0.78431373 0.47058824
v 0.01312641 -0.18655792 0.14225447 0.60784314 0.73725490 0.45882353
v -0.01839217 -0.19022323 0.15722600 0.65098039 0.78039216 0.50196078
v -0.02092435 -0.19203395 0.12697370 0.46274510 0.55294118 0.33725490
v 0.05066659 -0.20602594 -0.09660009 0.69411765 0.79607843 0.49019608
v -0.04443547 -0.18390678 0.20452904 0.63921569 0.75686275 0.47450980
v 0.20059207 -0.07720888 0.08823482 0.85882353 0.96078431 0.71372549
v -0.06338923 -0.18529281 0.21319657 0.67058824 0.78431373 0.50980392
v -0.00851763 -0.19600796 0.08574529 0.67450980 0.80392157 0.50980392
v 0.02071730 -0.19445770 0.02022347 0.69803922 0.81176471 0.49803922
v 0.05418908 -0.21093847 -0.13614915 0.69803922 0.80784314 0.54901961
v 0.03935106 -0.21135426 -0.11447906 0.69019608 0.80392157 0.50588235
v -0.04353771 -0.18917038 0.14952626 0.66274510 0.78823529 0.51372549
v 0.00698613 -0.19767598 0.04200772 0.65490196 0.74117647 0.36470588
v 0.00454161 -0.19972729 0.00968727 0.65098039 0.75294118 0.41960784
v 0.02522975 -0.20144613 -0.03104964 0.65490196 0.78431373 0.48235294
v -0.07064990 -0.17858364 0.22067771 0.72941176 0.80000000 0.60000000
v 0.13494237 -0.10633753 -0.07923732 0.84705882 0.93725490 0.69411765
v -0.04712065 -0.19027196 0.16932695 0.64313725 0.76470588 0.48627451
v 0.07057961 -0.12733234 -0.13819673 0.82352941 0.91764706 0.67450980
v 0.02236470 -0.20792748 -0.08180430 0.68627451 0.80784314 0.50588235
v 0.02217279 -0.20504172 -0.05977194 0.66274510 0.78823529 0.48235294
v 0.21166678 -0.08535473 -0.00609425 0.87843137 0.96078431 0.71372549
v 0.23907390 -0.06572985 0.02623488 0.88627451 0.96862745 0.72941176
v -0.02433117 -0.19693082 0.03758430 0.60784314 0.68627451 0.34509804
v -0.05502674 -0.18339999 0.18976571 0.67058824 0.78823529 0.51372549
v -0.03490964 -0.19511239 0.09272283 0.46666667 0.55294118 0.33725490
v 0.03756057 -0.20715775 -0.16448890 0.72156863 0.83921569 0.56470588
v 0.02635925 -0.21427463 -0.14896566 0.68627451 0.80784314 0.52156863
v -0.00049119 -0.20215615 -0.04186800 0.66666667 0.79215686 0.49803922
v -0.07256281 -0.19326799 0.15702621 0.67843137 0.80000000 0.52941176
v -0.07803173 -0.18749956 0.18317486 0.67450980 0.78823529 0.50980392
v -0.04860587 -0.18869399 0.11426377 0.16078431 0.21176471 0.09411765
v -0.00743191 -0.20039405 -0.00330978 0.61176471 0.70588235 0.36470588
v 0.01979521 -0.21005232 -0.12628518 0.69019608 0.80784314 0.52156863
v 0.01711751 -0.20800056 -0.10186204 0.67843137 0.80392157 0.51372549
v -0.04297241 -0.18251113 0.12250590 0.42352941 0.51372549 0.29411765
v 0.15391106 -0.05108366 0.13431812 0.87058824 0.96470588 0.72549020
v -0.06138753 -0.19023175 0.08191870 0.19607843 0.25490196 0.12549020
v -0.04302985 -0.19903958 0.00680882 0.56862745 0.63137255 0.27450980
v 0.00792435 -0.10182761 0.28200562 0.89019608 0.96862745 0.75294118
v -0.07401102 -0.19192832 0.14045839 0.67843137 0.78823529 0.53333333
v -0.01932164 -0.19969128 -0.02312612 0.59215686 0.67450980 0.34509804
v -0.06549135 -0.19496472 0.05996438 0.65098039 0.77254902 0.48627451
v -0.09148623 -0.19446391 0.13471428 0.66274510 0.78431373 0.50588235
v 0.03590246 -0.06016058 0.25927574 0.86666667 0.96078431 0.70588235
v -0.01312689 -0.20501756 -0.08190360 0.67058824 0.79607843 0.50196078
v 0.03525534 -0.16498351 -0.16909219 0.85882353 0.94901961 0.71372549
v -0.09315484 -0.18603207 0.15814106 0.68627451 0.80392157 0.53333333
v -0.01088411 -0.20897660 -0.14284068 0.70196078 0.81960784 0.52941176
v -0.09855851 -0.18819323 0.17668262 0.67843137 0.78431373 0.52549020
v -0.07285338 -0.19219364 0.10328919 0.41960784 0.50980392 0.30588235
v -0.02342541 -0.20150684 -0.05240817 0.61960784 0.71764706 0.40000000
v 0.02058231 -0.20779793 -0.18083055 0.74901961 0.85882353 0.58823529
v -0.05640960 -0.19711473 0.03843770 0.56470588 0.63137255 0.27450980
v 0.24341287 -0.01808609 0.03251291 0.89019608 0.97254902 0.73725490
v 0.12220352 -0.09882784 -0.08855184 0.81176471 0.91372549 0.63921569
v 0.00231758 -0.21213857 -0.18900244 0.70980392 0.83921569 0.53333333
v -0.08233916 -0.18697562 0.08677010 0.43529412 0.54901961 0.31372549
v 0.17244281 -0.05154420 -0.04334556 0.87058824 0.95686275 0.70588235
v -0.12008476 -0.18907065 0.14812344 0.63137255 0.73333333 0.47058824
v -0.06711650 -0.20005952 -0.02483480 0.56078431 0.61568627 0.26666667
v -0.08262782 -0.19766484 0.02695675 0.62745098 0.72549020 0.41960784
v -0.10126529 -0.19403009 0.10129700 0.65882353 0.78039216 0.50196078
v -0.01039946 -0.06920614 0.26620798 0.95294118 0.98823529 0.87843137
v 0.10830166 -0.01557235 0.17946009 0.87450980 0.96862745 0.72941176
v 0.23666197 0.00108690 0.04697212 0.87058824 0.96078431 0.72549020
v -0.05316973 -0.20326475 -0.09286422 0.59215686 0.67450980 0.32941176
v -0.02098897 -0.20842691 -0.17854095 0.77647059 0.88627451 0.61568627
v -0.09895321 -0.19530284 0.06356753 0.66274510 0.78431373 0.50196078
v -0.04656625 -0.20492724 -0.13115362 0.68627451 0.80000000 0.50196078
v -0.00641831 -0.20641979 -0.20305274 0.85098039 0.93725490 0.69803922
v -0.14472794 -0.18103898 0.15376553 0.72549020 0.78039216 0.59607843
v -0.13961971 -0.19223665 0.10106093 0.67843137 0.79607843 0.51764706
v -0.03753914 -0.20620223 -0.16264617 0.74901961 0.86666667 0.58039216
v -0.08716001 -0.12446446 0.20185643 0.94509804 0.98431373 0.86666667
v -0.12394911 -0.19338622 0.07560071 0.67450980 0.79215686 0.51764706
v -0.09855771 -0.19898417 -0.02799030 0.59607843 0.67450980 0.33725490
v 0.21473938 -0.03730858 -0.00201896 0.87843137 0.96078431 0.71372549
v -0.12420600 -0.19650545 0.01970752 0.66666667 0.78431373 0.50588235
v -0.15654587 -0.18889584 0.12317407 0.69019608 0.79607843 0.52941176
v -0.10687214 -0.20067081 -0.07836130 0.58431373 0.64705882 0.27843137
v -0.05340447 -0.20171374 -0.15564940 0.81568627 0.90588235 0.66274510
v -0.15742697 -0.17688898 0.13586393 0.71372549 0.77647059 0.56862745
v -0.08040380 -0.19997730 -0.12619421 0.72549020 0.81176471 0.44705882
v -0.16684240 -0.19482367 0.05395935 0.68627451 0.80000000 0.52549020
v -0.18726818 -0.19158734 0.08356747 0.69411765 0.80000000 0.53333333
v 0.01117725 -0.15043395 -0.19227605 0.86666667 0.95686275 0.71764706
v -0.02001011 -0.17055983 -0.20324942 0.74509804 0.83137255 0.60784314
v -0.17848964 -0.18453898 0.11038089 0.81960784 0.86666667 0.70980392
v -0.15724947 -0.12223688 0.13675363 0.92156863 0.96078431 0.82745098
v 0.09692934 -0.07354086 -0.11639369 0.85490196 0.94117647 0.70980392
v -0.14982807 -0.19665658 -0.02456479 0.59215686 0.69019608 0.40392157
v -0.00923146 -0.16119269 -0.21059213 0.74901961 0.85098039 0.58431373
v -0.03984682 -0.02329771 0.23682426 0.90980392 0.94901961 0.83137255
v -0.18855414 -0.19475997 0.02300156 0.61960784 0.72549020 0.46274510
v 0.00883248 -0.01332446 0.27588746 0.89019608 0.96862745 0.75686275
v -0.14994440 -0.19464299 -0.05691368 0.75294118 0.83921569 0.51372549
v -0.08909883 -0.18361876 -0.13099960 0.69019608 0.76862745 0.44313725
v -0.15864291 -0.14845830 0.12815534 0.83137255 0.88627451 0.70588235
v -0.18315877 -0.19313625 -0.01966138 0.74509804 0.85490196 0.57647059
v 0.23794597 0.05583165 0.01581399 0.89411765 0.96470588 0.74901961
v 0.03335607 -0.09813312 -0.17425021 0.84705882 0.93725490 0.69411765
v -0.07615003 -0.15446979 -0.14695176 0.89411765 0.94117647 0.76862745
v -0.01282003 -0.15308029 -0.19502078 0.96470588 0.98823529 0.87450980
v -0.20480642 -0.13982483 0.07940045 0.84313725 0.89803922 0.75686275
v -0.02771586 -0.15737683 -0.18198767 0.93333333 0.97254902 0.82352941
v -0.10502628 -0.16371387 -0.12232617 0.79215686 0.84705882 0.60784314
v 0.24427904 0.04147835 0.03153105 0.88235294 0.96470588 0.73333333
v -0.20970817 -0.18393039 -0.00540276 0.73333333 0.82745098 0.55294118
v -0.23691945 -0.19353305 0.03997295 0.77254902 0.87450980 0.59607843
v 0.12353769 -0.03656796 -0.09180422 0.80000000 0.90588235 0.62352941
v -0.00988758 -0.13722639 -0.20289377 0.92549020 0.97254902 0.79607843
v 0.15606194 -0.00924668 -0.06444994 0.87843137 0.96078431 0.72156863
v 0.20991021 0.02959885 -0.01101689 0.87058824 0.95294118 0.70980392
v 0.05170536 0.06682575 0.23752268 0.87843137 0.96862745 0.72941176
v -0.05401519 -0.14207727 -0.15537975 0.96078431 0.98823529 0.86274510
v -0.12045004 -0.05221488 0.16564957 0.94901961 0.98431373 0.87843137
v -0.24699493 -0.18305353 0.03599819 0.86274510 0.91764706 0.75294118
v 0.18445367 0.09673362 0.09509618 0.87843137 0.96078431 0.74117647
v -0.15364556 -0.12153546 0.12957257 0.75686275 0.81568627 0.58431373
v -0.01209040 -0.11459556 -0.21022246 0.85490196 0.94509804 0.69803922
v -0.18164770 -0.16402330 -0.04678968 0.75294118 0.82745098 0.60000000
v 0.22717129 0.09440430 0.05070145 0.88627451 0.96862745 0.74901961
v -0.04256635 -0.09716685 -0.17152727 0.95686275 0.98431373 0.85490196
v -0.05208772 -0.11290867 -0.15859876 0.95294118 0.98431373 0.85098039
v -0.00870873 -0.10490183 -0.20211057 0.95686275 0.98823529 0.85490196
v -0.00222466 0.08546269 0.26266452 0.96078431 0.98823529 0.89019608
v 0.09259006 0.00184442 -0.12607661 0.87058824 0.95294118 0.72156863
v -0.09086164 -0.13094559 -0.12084804 0.95686275 0.98823529 0.85490196
v 0.01507395 -0.08241319 -0.19363192 0.88235294 0.96862745 0.73333333
v 0.03215742 -0.02816107 -0.18085742 0.83529412 0.92941176 0.67450980
v 0.13362184 0.07060510 0.14881695 0.89019608 0.97254902 0.74901961
v -0.08303031 -0.09864875 -0.12984910 0.96078431 0.98823529 0.87058824
v 0.11496420 -0.00338852 -0.10069301 0.87058824 0.95686275 0.70588235
v -0.22926424 -0.15446118 0.00140456 0.84313725 0.90588235 0.73333333
v -0.19090723 -0.12211153 -0.03976501 0.92549020 0.95686275 0.82352941
v -0.15349229 -0.08301241 0.12813676 0.70588235 0.75686275 0.51764706
v -0.24410633 -0.08004527 0.03086537 0.94117647 0.98039216 0.86274510
v 0.03174690 -0.04741603 -0.18657099 0.85882353 0.94509804 0.69019608
v -0.23962699 -0.11400167 0.01774024 0.88235294 0.92549020 0.79215686
v -0.11508998 -0.12250329 -0.09839524 0.95686275 0.98823529 0.85882353
v -0.02687301 -0.10319584 -0.20000910 0.95686275 0.98431373 0.87058824
v 0.09390940 0.11195798 0.18808354 0.89411765 0.97254902 0.76078431
v -0.15524604 -0.06496522 0.13430035 0.87450980 0.90980392 0.74901961
v 0.12366540 0.02767354 -0.09559357 0.82352941 0.92156863 0.65098039
v -0.16364059 -0.07151445 0.11393860 0.83529412 0.89411765 0.73333333
v -0.22072874 -0.08680525 0.05807000 0.80392157 0.86274510 0.70980392
v -0.00971032 -0.04951324 -0.21553511 0.89019608 0.96862745 0.74901961
v -0.14995390 -0.10756230 -0.06570268 0.95686275 0.98431373 0.85882353
v 0.14128541 0.03166657 -0.08236341 0.88627451 0.95686275 0.72941176
v -0.06822041 -0.07471153 -0.14634625 0.95686275 0.98431373 0.86274510
v -0.05847666 -0.07850851 -0.16820328 0.95294118 0.98431373 0.85490196
v 0.05779534 0.01481449 -0.15993713 0.80784314 0.89411765 0.65490196
v -0.02039167 -0.06087453 -0.21080086 0.92549020 0.96862745 0.82745098
v -0.20561758 -0.12284024 -0.01093016 0.94901961 0.97254902 0.86666667
v -0.12599804 -0.08729276 -0.08894442 0.95686275 0.98823529 0.86666667
v 0.24485621 0.11671957 0.02890687 0.88235294 0.96470588 0.75294118
v 0.20586149 0.09313009 -0.01898025 0.89019608 0.96470588 0.75294118
v -0.19471945 -0.09048490 -0.02480684 0.95686275 0.98823529 0.86666667
v -0.21638251 -0.10416827 -0.00220051 0.97254902 0.98823529 0.89411765
v 0.24427656 0.12441309 0.02053767 0.90588235 0.97254902 0.77647059
v 0.21645891 0.08325958 -0.01177494 0.90980392 0.97254902 0.78431373
v 0.18539830 0.06698710 -0.03917804 0.88235294 0.95686275 0.73333333
v -0.15567620 -0.01615446 0.12088326 0.82745098 0.88627451 0.67058824
v -0.16587276 -0.08190980 -0.05219203 0.95294118 0.98431373 0.86666667
v 0.00864772 0.11720970 0.26743406 0.93333333 0.98039216 0.83137255
v -0.21874275 -0.08561884 -0.00154726 0.96862745 0.98823529 0.89411765
v -0.04864158 -0.05771407 -0.18436111 0.96862745 0.98823529 0.88627451
v -0.09191028 -0.04273645 -0.12405852 0.96078431 0.98823529 0.87450980
v 0.00806286 -0.03187657 -0.20456541 0.90196078 0.98039216 0.76470588
v -0.13967781 -0.06117428 -0.07695125 0.94901961 0.98431373 0.85490196
v 0.24119033 0.16923881 0.01524471 0.90196078 0.96470588 0.79215686
v -0.23408287 -0.09037729 0.02185827 0.97254902 0.98823529 0.89803922
v 0.01849273 0.10515058 0.26650212 0.88235294 0.96862745 0.73333333
v -0.03984756 0.07091539 0.22835061 0.81960784 0.87450980 0.73333333
v -0.07418953 -0.04121840 -0.14699014 0.95686275 0.98823529 0.87058824
v -0.02470785 -0.02616570 -0.21150747 0.93725490 0.96862745 0.83921569
v -0.12005679 -0.03431354 -0.09740774 0.95686275 0.98431373 0.87450980
v 0.19834371 0.11061622 -0.03239759 0.89019608 0.96078431 0.76862745
v 0.12145977 0.06940422 -0.09896086 0.75294118 0.87450980 0.56470588
v -0.05834359 -0.02417961 -0.17506122 0.96862745 0.99215686 0.87843137
v 0.16069313 0.12973725 -0.08931502 0.87450980 0.95686275 0.72156863
v 0.10227036 0.07993280 -0.12228956 0.88627451 0.97647059 0.72549020
v -0.01316083 -0.01151586 -0.21758550 0.87450980 0.94901961 0.75294118
v 0.00568975 0.01006059 -0.20910265 0.90588235 0.98039216 0.77254902
v -0.21085466 -0.05145322 -0.01088263 0.95686275 0.98823529 0.87058824
v -0.07831499 -0.02776576 -0.15160167 0.96470588 0.99215686 0.87843137
v -0.15538062 -0.02965990 -0.06526982 0.96078431 0.98823529 0.87450980
v 0.02989005 0.02542375 -0.18953415 0.87450980 0.95686275 0.72156863
v -0.17507262 -0.02613242 -0.04618191 0.94901961 0.98431373 0.85882353
v -0.04503363 -0.01272747 -0.19028488 0.96078431 0.98823529 0.87058824
v 0.06867863 0.08013635 -0.15352060 0.83529412 0.93333333 0.68235294
v 0.13924519 0.12047156 -0.09896790 0.85882353 0.95686275 0.69411765
v 0.04861848 0.17942681 0.22936787 0.89803922 0.97254902 0.76862745
v 0.24518417 0.19648031 0.02521877 0.85882353 0.93333333 0.74901961
v -0.23668018 -0.02858510 0.03829240 0.89411765 0.94509804 0.79607843
v -0.07487421 -0.00668420 -0.15493067 0.95294118 0.98431373 0.85490196
v 0.22475937 0.17667392 -0.00583230 0.89803922 0.97254902 0.78823529
v -0.13165040 -0.00676670 -0.08765506 0.95294118 0.98431373 0.86666667
v -0.09739121 -0.00391992 -0.12630954 0.95294118 0.98431373 0.85882353
v -0.23753186 -0.01719483 0.01489114 0.94901961 0.98431373 0.85490196
v 0.17744104 0.15719539 -0.06274304 0.89411765 0.96470588 0.78039216
v -0.13475925 0.05790919 0.14054520 0.92549020 0.96470588 0.83921569
v -0.02571456 0.01684878 -0.21342031 0.92549020 0.96862745 0.81568627
v 0.14407810 0.21584703 0.12740376 0.89019608 0.96862745 0.76470588
v -0.00046834 0.17132529 0.25849324 0.95294118 0.98431373 0.88235294
v -0.22164406 -0.00708137 -0.00260952 0.96470588 0.98823529 0.88235294
v 0.12186706 0.10800458 -0.10162442 0.83529412 0.94117647 0.66274510
v 0.21619485 0.18281390 -0.01759645 0.89803922 0.97254902 0.78039216
v 0.21426299 0.18907540 -0.03377576 0.89411765 0.96078431 0.77647059
v -0.19945493 -0.00244602 -0.02374645 0.96078431 0.98823529 0.87843137
v -0.15695142 0.05257466 0.11510933 0.90196078 0.94901961 0.80392157
v -0.06176916 0.00617254 -0.17240747 0.94509804 0.98039216 0.83921569
v -0.11485512 0.01613165 -0.10566598 0.94901961 0.98431373 0.85490196
v -0.09674979 0.07105182 0.17941701 0.91764706 0.96470588 0.81960784
v 0.01243710 0.05308651 -0.20535436 0.90196078 0.98431373 0.77254902
v 0.18885993 0.16015948 -0.04657520 0.90588235 0.96862745 0.80392157
v -0.24612531 0.05013700 0.01892274 0.92156863 0.96862745 0.83137255
v 0.02454654 0.07343211 -0.19762248 0.89019608 0.97647059 0.75686275
v -0.07376549 0.02165455 -0.15860398 0.95686275 0.98823529 0.86274510
v -0.08091797 0.15288666 0.18253688 0.89411765 0.93725490 0.81568627
v -0.05527680 0.03201593 -0.18338385 0.95686275 0.98823529 0.85882353
v 0.20275031 0.23801349 0.06623577 0.90980392 0.97647059 0.80392157
v 0.25337521 0.19537516 0.00583288 0.59607843 0.69411765 0.49411765
v 0.04459970 0.10189524 -0.17758763 0.84313725 0.93725490 0.69019608
v -0.16468693 0.01569193 -0.05824931 0.96078431 0.98823529 0.87450980
v -0.02473768 0.05354381 -0.21756692 0.89411765 0.94509804 0.78039216
v 0.09323404 0.21124552 0.18014826 0.90196078 0.97254902 0.77647059
v 0.07901461 0.12045461 -0.14796900 0.88627451 0.97647059 0.72941176
v -0.09468440 0.10774668 0.18096469 0.93725490 0.97647059 0.85490196
v -0.01029131 0.05265519 -0.22085212 0.82745098 0.89803922 0.70588235
v -0.12457168 0.03948951 -0.10606255 0.96078431 0.98823529 0.86666667
v 0.24143305 0.21034537 -0.00858329 0.82352941 0.89803922 0.71372549
v -0.08833618 0.15487790 0.17836602 0.78431373 0.87058824 0.60392157
v 0.13154028 0.15654958 -0.09874228 0.87450980 0.96862745 0.71764706
v 0.24658629 0.21866319 0.02122743 0.85490196 0.93333333 0.76470588
v -0.09475264 0.03939111 -0.13911895 0.96078431 0.98823529 0.86666667
v 0.15178335 0.14710166 -0.09997075 0.88627451 0.97254902 0.73333333
v 0.15960841 0.16071150 -0.08133829 0.88627451 0.96862745 0.74117647
v 0.14299868 0.14829151 -0.08574691 0.90196078 0.98039216 0.74901961
v -0.04701875 0.05910704 -0.19356751 0.95686275 0.98823529 0.85882353
v 0.10391952 0.15076544 -0.12367611 0.89803922 0.98039216 0.75686275
v -0.23245865 0.06332831 0.03727599 0.93333333 0.97254902 0.85098039
v -0.07716650 0.06403445 -0.16246721 0.95294118 0.98431373 0.85490196
v -0.20134942 0.04117890 -0.02307004 0.96078431 0.98823529 0.87843137
v 0.24678689 0.23849083 0.00680560 0.85490196 0.92156863 0.75294118
v -0.15345625 0.04096416 -0.07179134 0.95686275 0.98823529 0.87450980
v -0.11061470 0.06061866 -0.12494976 0.96078431 0.98823529 0.86666667
v -0.23324315 0.03410815 0.01044829 0.94117647 0.97647059 0.85098039
v 0.20100334 0.21026253 -0.05547056 0.88627451 0.95294118 0.76470588
v -0.18438403 0.05439881 -0.04363902 0.94901961 0.98431373 0.86274510
v 0.00104121 0.10145435 -0.21859207 0.90588235 0.98431373 0.78823529
v -0.01332430 0.08668603 -0.22390579 0.77647059 0.83529412 0.66666667
v 0.16085622 0.18594091 -0.07769577 0.89803922 0.96862745 0.76862745
v -0.02985644 0.09156314 -0.21630644 0.91764706 0.96470588 0.81176471
v 0.24543612 0.26570411 0.01979017 0.89803922 0.96470588 0.80784314
v -0.09948991 0.08014806 -0.13893300 0.95686275 0.98823529 0.86274510
v -0.19244106 0.07286998 -0.05146593 0.95294118 0.98431373 0.86666667
v 0.03007242 0.12662416 -0.19454033 0.90196078 0.98039216 0.76862745
v -0.04816269 0.09396013 -0.19570782 0.94901961 0.98431373 0.84313725
v 0.24804632 0.28814643 0.00931429 0.88627451 0.94901961 0.77647059
v 0.14828402 0.19772457 -0.08932467 0.88627451 0.97254902 0.74117647
v 0.00822850 0.26087699 0.25959177 0.93725490 0.98431373 0.84705882
v -0.22491013 0.04856234 -0.01467765 0.96078431 0.98823529 0.88235294
v 0.05817417 0.18642352 -0.17025904 0.88235294 0.96862745 0.74117647
v 0.07540369 0.16604161 -0.15186560 0.89411765 0.98039216 0.75294118
v -0.12597368 0.07339685 -0.10666956 0.95686275 0.98823529 0.86274510
v 0.11797154 0.19659594 -0.11398872 0.89019608 0.98039216 0.74117647
v -0.15659876 0.07411116 -0.07856400 0.96078431 0.98823529 0.86666667
v -0.17793770 0.14524662 0.09199236 0.89803922 0.94509804 0.81176471
v -0.22338416 0.05978111 0.00577546 0.94901961 0.98431373 0.86274510
v -0.01736372 0.25515546 0.23932881 0.95294118 0.98431373 0.89019608
v -0.12293261 0.20635681 0.14729907 0.95686275 0.98823529 0.89411765
v -0.23532957 0.05674510 -0.00935849 0.96078431 0.98431373 0.89803922
v -0.06223234 0.10506432 -0.18092985 0.94901961 0.98431373 0.84313725
v 0.22772487 0.25639060 -0.03001995 0.86274510 0.92156863 0.74509804
v -0.13714357 0.09564962 -0.09896401 0.95294118 0.98823529 0.85490196
v -0.01110507 0.12623887 -0.22698500 0.75686275 0.81960784 0.65882353
v -0.12521239 0.10564556 -0.11165970 0.96078431 0.98823529 0.86666667
v -0.24979065 0.08651158 0.01568430 0.64705882 0.71764706 0.51372549
v -0.04743386 0.22799885 0.21110341 0.95686275 0.98823529 0.89411765
v 0.05002027 0.26101782 0.21913188 0.90980392 0.97647059 0.79607843
v 0.20140238 0.29183596 0.06163167 0.92549020 0.98039216 0.82745098
v -0.23770737 0.08204744 -0.00244570 0.90588235 0.94901961 0.82352941
v -0.07685988 0.12391749 -0.16654507 0.94901961 0.98823529 0.85098039
v -0.22166921 0.07535127 -0.02622374 0.91764706 0.95294118 0.83137255
v 0.19436418 0.24376847 -0.06268011 0.85098039 0.92156863 0.70196078
v 0.02683678 0.17743764 -0.20064721 0.88235294 0.97647059 0.74117647
v 0.11536646 0.22317166 -0.11917393 0.87843137 0.97254902 0.72941176
v -0.02724949 0.12740677 -0.21676637 0.87450980 0.92156863 0.77254902
v -0.10413902 0.11330270 -0.13673070 0.95294118 0.98823529 0.85490196
v 0.21529199 0.27303216 -0.03861658 0.82745098 0.88627451 0.68627451
v 0.08743176 0.21527633 -0.14357975 0.89411765 0.98039216 0.76078431
v -0.09419160 0.26434862 0.17321298 0.90980392 0.95294118 0.82352941
v 0.14207330 0.29310215 0.12241434 0.92549020 0.98039216 0.82745098
v 0.00566643 0.17471810 -0.21953081 0.89019608 0.96862745 0.76862745
v -0.16870098 0.11350772 -0.06551015 0.95686275 0.98823529 0.86666667
v -0.05267442 0.13599802 -0.19142574 0.94117647 0.98431373 0.83137255
v 0.23669983 0.29864861 0.01989373 0.91764706 0.96470588 0.80784314
v 0.23898965 0.29495424 0.00417426 0.71764706 0.78823529 0.54117647
v 0.13816724 0.23961889 -0.09909666 0.89019608 0.98039216 0.74509804
v -0.23477131 0.16113363 0.02872802 0.85490196 0.91372549 0.76862745
v -0.08536280 0.22854227 0.17567956 0.85490196 0.92549020 0.72941176
v 0.21625167 0.30180728 0.03959620 0.93725490 0.97647059 0.84313725
v -0.02636901 0.15198001 -0.22065338 0.92549020 0.98039216 0.80392157
v 0.20580682 0.28724105 -0.03589033 0.63921569 0.70196078 0.44313725
v -0.19409434 0.13822556 -0.03947890 0.95294118 0.98431373 0.85882353
v -0.12163366 0.14699449 -0.11900592 0.94901961 0.98431373 0.85098039
v -0.15087508 0.12329826 -0.08602921 0.96078431 0.98823529 0.87058824
v -0.01054864 0.15348591 -0.22602790 0.88627451 0.96862745 0.76078431
v 0.17951294 0.27655458 -0.06168175 0.84313725 0.90588235 0.67058824
v 0.16752213 0.26630146 -0.07515816 0.87843137 0.96078431 0.71764706
v 0.13272274 0.30837469 0.12710206 0.94117647 0.98039216 0.83921569
v 0.21294896 0.29815177 -0.01879772 0.84313725 0.89411765 0.70196078
v -0.15964867 0.13940688 -0.07825545 0.95686275 0.98823529 0.86274510
v 0.19605303 0.30376880 0.02533150 0.94117647 0.98039216 0.83137255
v -0.24590668 0.14311378 0.01072221 0.81568627 0.86666667 0.73333333
v 0.02191908 0.31136464 0.24268283 0.88235294 0.96078431 0.80000000
v 0.18768397 0.30426759 0.04562379 0.93725490 0.98039216 0.82352941
v -0.08674014 0.15224585 -0.15613618 0.94509804 0.98431373 0.83921569
v -0.05381915 0.16766277 -0.18921928 0.92941176 0.98039216 0.81176471
v 0.14726732 0.26692132 -0.09502629 0.88235294 0.97254902 0.72941176
v 0.19579421 0.30744868 0.04545037 0.83137255 0.89411765 0.72156863
v -0.21001289 0.15714732 -0.02716015 0.93725490 0.97647059 0.83529412
v -0.22880956 0.14578669 -0.02276164 0.91372549 0.95686275 0.82352941
v 0.05594029 0.30968986 0.20603483 0.93725490 0.98039216 0.84313725
v 0.17750528 0.29388060 -0.05298359 0.76470588 0.82745098 0.60000000
v 0.17831773 0.30159648 -0.01349202 0.91372549 0.96470588 0.78431373
v -0.07837131 0.26649835 0.17962569 0.89019608 0.94509804 0.80000000
v 0.02943789 0.23471897 -0.20139575 0.88627451 0.97254902 0.74901961
v 0.13913479 0.30492888 0.03760628 0.91372549 0.96862745 0.78039216
v -0.15937900 0.22949743 0.10711791 0.92941176 0.96862745 0.85490196
v 0.15731542 0.28697917 -0.08199360 0.78039216 0.85882353 0.59215686
v -0.00885099 0.18338884 -0.22970957 0.80000000 0.87058824 0.69411765
v -0.18291943 0.15885154 -0.05278300 0.95686275 0.98823529 0.86666667
v 0.10176886 0.25809681 -0.13423495 0.88627451 0.97647059 0.73725490
v 0.09445154 0.31091046 0.13452903 0.88235294 0.92941176 0.76078431
v -0.03777482 0.18685864 -0.20436505 0.94117647 0.98431373 0.83529412
v 0.00272979 0.31272779 0.25364034 0.92549020 0.97647059 0.81960784
v 0.12978593 0.28623059 -0.10728426 0.79607843 0.87058824 0.62352941
v 0.06387567 0.25413364 -0.17087454 0.89411765 0.98039216 0.75686275
v -0.02042593 0.19376792 -0.22654630 0.90980392 0.97254902 0.78431373
v -0.13182099 0.17486746 -0.10827817 0.94117647 0.98039216 0.83921569
v -0.09445509 0.18796246 -0.14715536 0.93725490 0.98039216 0.82745098
v 0.04717982 0.31368494 0.18111517 0.82745098 0.87058824 0.69803922
v -0.04733309 0.28446414 0.20995822 0.95686275 0.98823529 0.90196078
v 0.07808980 0.30891774 0.09577200 0.90980392 0.96078431 0.77647059
v 0.10357773 0.29652252 -0.10318978 0.92156863 0.97254902 0.79607843
v 0.04690518 0.31087026 0.22335266 0.95686275 0.99215686 0.86666667
v -0.16404841 0.16676412 -0.07471829 0.94117647 0.98039216 0.82745098
v -0.06164954 0.20365543 -0.18219573 0.92941176 0.97647059 0.81568627
v -0.25071501 0.16172449 -0.00159738 0.91764706 0.96078431 0.83529412
v 0.11007322 0.28270784 -0.12638215 0.74117647 0.82352941 0.54117647
v 0.11247864 0.29257810 -0.11414169 0.90980392 0.95686275 0.77647059
v 0.01904207 0.31566384 0.23139958 0.93333333 0.97647059 0.81568627
v -0.15479712 0.19246629 -0.08428088 0.94509804 0.98431373 0.83921569
v -0.00719482 0.21164850 -0.23064522 0.69803922 0.77254902 0.59607843
v 0.00082664 0.23238736 -0.22669914 0.85882353 0.93333333 0.75294118
v 0.08262442 0.28208586 -0.15598529 0.86666667 0.95294118 0.69411765
v -0.03087318 0.31467250 0.21389608 0.88235294 0.93725490 0.74901961
v -0.11625507 0.28076227 0.14937636 0.96470588 0.98823529 0.90588235
v -0.02483207 0.21785685 -0.21913903 0.91764706 0.97647059 0.80000000
v 0.02196807 0.31029292 0.10827554 0.91764706 0.96862745 0.78823529
v -0.05565322 0.30302437 0.19787292 0.92549020 0.96078431 0.83529412
v -0.24793784 0.18665790 0.00974103 0.83529412 0.87843137 0.76078431
v -0.20409209 0.18256429 -0.03215120 0.94509804 0.98431373 0.84313725
v -0.22913772 0.18504009 -0.00987349 0.93725490 0.98039216 0.83137255
v -0.02682001 0.31424934 0.17531844 0.90980392 0.96078431 0.78039216
v 0.04838651 0.30059854 -0.04972744 0.92549020 0.97647059 0.78823529
v -0.11607039 0.22631811 -0.12462656 0.92941176 0.98039216 0.81960784
v -0.24597443 0.18872854 -0.00776140 0.93333333 0.97254902 0.84705882
v -0.19179880 0.29019441 0.06800579 0.92941176 0.96862745 0.85882353
v 0.06324301 0.29041904 -0.16277667 0.81960784 0.88235294 0.64313725
v -0.17096650 0.22847214 -0.06853551 0.94509804 0.98431373 0.83921569
v -0.01553603 0.24225634 -0.23172053 0.85098039 0.92941176 0.74117647
v -0.06380075 0.26181418 -0.18044845 0.92156863 0.98039216 0.80784314
v -0.04575173 0.30981232 0.10742236 0.69803922 0.73725490 0.56862745
v -0.05262925 0.30712836 0.06391360 0.29019608 0.30980392 0.20000000
v 0.03310532 0.28015316 -0.20024704 0.81176471 0.88627451 0.61176471
v -0.09646029 0.30293824 0.16590542 0.82352941 0.87843137 0.67058824
v -0.08166590 0.31268195 0.15882273 0.86666667 0.91764706 0.72156863
v -0.04021787 0.25883949 -0.20496645 0.92549020 0.98431373 0.81176471
v -0.00625731 0.27986444 -0.23270998 0.87450980 0.94509804 0.74901961
v -0.11387005 0.30627401 0.03510449 0.85098039 0.89803922 0.70980392
v -0.03240551 0.29680532 -0.10483371 0.92941176 0.98039216 0.80000000
v -0.24698222 0.21522756 0.00757021 0.95294118 0.98431373 0.86274510
v -0.22082374 0.23435628 -0.01793025 0.93725490 0.98431373 0.82745098
v -0.02194841 0.26183548 -0.22867110 0.90588235 0.97647059 0.78431373
v -0.01927851 0.28890496 -0.22394585 0.89803922 0.95686275 0.76470588
v 0.00000542 0.28717232 -0.22619275 0.88627451 0.94901961 0.74509804
v -0.02617352 0.27201571 -0.22392326 0.91764706 0.98039216 0.79215686
v -0.13501432 0.30921220 0.10487307 0.90196078 0.94901961 0.76078431
v -0.24064977 0.28961239 0.01261340 0.94509804 0.98039216 0.87058824
v -0.19233135 0.26742665 -0.04676840 0.92549020 0.98039216 0.81176471
v -0.14778428 0.30163577 0.11164104 0.82745098 0.87450980 0.67450980
v -0.09541991 0.27145472 -0.14939576 0.92156863 0.97647059 0.80784314
v -0.07103619 0.27840297 -0.17704561 0.90196078 0.96862745 0.79215686
v -0.13435231 0.26940983 -0.10937777 0.92156863 0.97647059 0.80392157
v -0.12756389 0.29626512 -0.09154404 0.88627451 0.93725490 0.74117647
v -0.05174168 0.28337588 -0.19562635 0.90980392 0.96862745 0.77647059
v -0.07895025 0.27013716 -0.16975284 0.94901961 0.99215686 0.84705882
v -0.23958580 0.27306095 0.00385494 0.94117647 0.98039216 0.83137255
v -0.05833790 0.29080444 -0.16854617 0.88627451 0.94509804 0.72549020
v -0.11350533 0.28773606 -0.12983795 0.88627451 0.94901961 0.74901961
v -0.15395179 0.28820784 -0.08481451 0.89803922 0.96078431 0.76078431
v -0.21333423 0.30054329 0.03664996 0.86274510 0.91372549 0.72156863
v -0.18444567 0.30146398 -0.02293809 0.86666667 0.91764706 0.70980392
v -0.19979826 0.30522487 0.03297652 0.90196078 0.94901961 0.75294118
v -0.19869267 0.29744335 -0.03377597 0.90196078 0.95686275 0.74901961
v -0.23360886 0.29814154 0.00406092 0.84705882 0.89803922 0.65882353
f 4 5 9
f 5 7 17
f 16 10 9
f 5 17 15
f 16 9 20
f 12 27 25
f 29 20 9
f 30 22 28
f 28 21 23
f 18 20 29
f 35 23 33
f 27 31 25
f 23 21 18
f 18 29 39
f 23 18 39
f 31 27 41
f 39 33 23
f 35 28 23
f 28 35 30
f 15 42 5
f 31 41 38
f 15 17 37
f 27 24 43
f 30 46 22
f 37 17 59
f 41 27 44
f 47 17 25
f 48 25 31
f 50 45 36
f 27 43 44
f 36 33 39
f 51 50 36
f 45 33 36
f 48 47 25
f 35 52 30
f 33 52 35
f 45 50 55
f 52 46 30
f 31 57 48
f 41 44 38
f 48 57 47
f 45 52 33
f 61 45 60
f 9 5 42
f 45 61 52
f 60 45 55
f 17 47 59
f 67 66 65
f 61 69 52
f 73 53 64
f 46 66 67
f 65 66 52
f 65 52 69
f 55 50 75
f 70 56 63
f 67 53 46
f 64 53 67
f 9 42 29
f 69 67 65
f 66 46 52
f 50 51 71
f 69 65 74
f 60 80 61
f 50 72 75
f 72 50 79
f 56 77 57
f 56 88 78
f 51 36 86
f 69 74 65
f 57 77 85
f 69 83 74
f 81 47 57
f 64 67 87
f 75 60 55
f 90 39 29
f 68 63 49
f 57 85 81
f 71 79 50
f 77 56 78
f 89 67 69
f 71 51 91
f 39 86 36
f 69 61 80
f 56 70 88
f 78 92 77
f 87 67 89
f 86 39 90
f 91 51 86
f 83 80 95
f 69 74 89
f 84 88 70
f 72 79 96
f 70 94 84
f 80 83 69
f 94 63 68
f 97 80 60
f 71 103 79
f 74 100 89
f 80 97 95
f 72 60 75
f 88 84 101
f 101 84 98
f 71 91 102
f 99 83 95
f 60 96 97
f 96 79 103
f 96 60 72
f 97 96 109
f 70 63 94
f 103 71 102
f 74 83 99
f 87 89 100
f 93 64 104
f 108 85 77
f 92 108 77
f 100 110 111
f 74 99 100
f 78 112 92
f 107 93 106
f 93 104 106
f 97 113 95
f 114 112 78
f 87 104 64
f 100 111 104
f 87 100 104
f 105 93 107
f 110 100 99
f 114 78 88
f 111 110 117
f 109 96 103
f 99 95 113
f 92 112 118
f 113 97 109
f 110 99 116
f 103 121 109
f 118 108 92
f 101 129 114
f 119 109 121
f 104 122 106
f 98 105 123
f 59 47 131
f 117 110 116
f 131 47 81
f 88 101 114
f 109 119 113
f 108 118 125
f 98 129 101
f 127 107 106
f 114 118 112
f 103 102 130
f 127 105 107
f 123 128 98
f 42 15 137
f 124 108 125
f 98 128 129
f 122 104 111
f 85 108 124
f 126 117 116
f 116 99 132
f 113 132 99
f 123 105 127
f 37 136 15
f 126 116 132
f 15 136 137
f 134 118 114
f 132 113 139
f 138 128 127
f 129 135 114
f 134 125 118
f 117 140 111
f 85 141 81
f 123 127 128
f 135 134 114
f 120 29 42
f 106 138 127
f 133 81 141
f 124 125 142
f 113 119 139
f 85 124 141
f 111 140 122
f 91 86 154
f 138 106 122
f 144 126 132
f 143 129 128
f 138 122 140
f 140 117 146
f 29 151 90
f 121 139 119
f 135 129 143
f 125 134 149
f 117 126 150
f 145 132 139
f 146 117 150
f 142 125 148
f 142 141 124
f 59 136 37
f 138 147 128
f 156 128 147
f 130 145 121
f 103 130 121
f 148 125 149
f 145 144 132
f 126 144 155
f 143 128 156
f 138 153 147
f 139 121 145
f 157 140 152
f 150 126 155
f 152 140 146
f 156 147 153
f 135 160 134
f 143 160 135
f 144 162 155
f 145 130 164
f 134 160 149
f 102 91 178
f 166 143 156
f 150 165 146
f 150 155 165
f 154 86 159
f 140 168 138
f 144 145 164
f 166 160 143
f 157 168 140
f 158 165 155
f 149 163 148
f 91 154 178
f 161 133 141
f 133 170 81
f 142 167 141
f 142 148 163
f 29 120 151
f 164 162 144
f 168 153 138
f 165 152 146
f 162 158 155
f 163 149 160
f 142 163 171
f 142 171 167
f 173 59 131
f 152 165 172
f 131 81 170
f 157 176 168
f 90 179 86
f 165 158 177
f 158 162 174
f 175 156 153
f 169 42 137
f 174 177 158
f 153 168 176
f 164 174 162
f 157 183 176
f 172 165 177
f 181 160 166
f 163 182 171
f 163 160 181
f 181 166 156
f 130 174 164
f 156 175 181
f 183 157 172
f 157 152 172
f 172 177 183
f 167 171 185
f 120 42 180
f 185 171 182
f 175 153 176
f 174 187 177
f 130 102 189
f 188 163 184
f 183 177 190
f 182 163 188
f 130 186 174
f 191 175 176
f 181 184 163
f 175 191 181
f 141 167 161
f 169 180 42
f 177 187 190
f 192 59 173
f 191 195 181
f 174 194 187
f 193 183 190
f 193 191 176
f 192 137 136
f 136 59 192
f 183 193 176
f 169 137 192
f 186 130 189
f 186 197 174
f 184 196 188
f 184 181 195
f 196 184 198
f 195 198 184
f 197 194 174
f 161 167 201
f 193 190 199
f 194 200 187
f 182 188 196
f 201 167 185
f 102 178 208
f 190 187 199
f 185 182 196
f 194 197 203
f 205 170 133
f 187 200 199
f 196 202 185
f 159 86 179
f 154 159 210
f 210 178 154
f 102 208 189
f 199 209 193
f 186 189 204
f 200 194 203
f 209 206 193
f 195 211 198
f 197 186 204
f 191 193 206
f 207 185 202
f 180 151 120
f 195 191 206
f 196 198 212
f 202 196 212
f 179 90 151
f 213 197 204
f 206 211 195
f 185 207 201
f 169 192 215
f 214 206 209
f 180 169 222
f 203 197 213
f 216 161 201
f 199 200 209
f 220 218 202
f 211 212 198
f 202 221 217
f 202 212 221
f 211 206 214
f 216 133 161
f 209 200 224
f 217 220 202
f 173 131 227
f 215 192 228
f 192 173 228
f 211 223 212
f 170 225 131
f 159 179 229
f 202 218 226
f 218 220 230
f 179 151 233
f 214 209 224
f 224 200 203
f 204 189 231
f 211 214 223
f 219 203 213
f 234 213 204
f 232 224 203
f 220 217 230
f 207 235 201
f 203 219 232
f 214 224 223
f 223 224 232
f 222 169 215
f 226 235 207
f 236 221 212
f 225 170 205
f 228 173 227
f 212 223 236
f 151 180 237
f 218 230 238
f 189 208 231
f 233 151 237
f 240 218 238
f 218 240 226
f 249 223 232
f 216 201 244
f 227 131 225
f 217 243 230
f 241 178 210
f 225 205 248
f 235 226 240
f 246 179 233
f 234 219 213
f 244 201 235
f 247 230 243
f 234 204 251
f 238 230 239
f 250 217 221
f 236 223 249
f 205 133 242
f 216 245 133
f 208 178 241
f 243 217 255
f 253 216 244
f 180 222 237
f 242 133 245
f 232 219 252
f 179 257 229
f 239 230 247
f 256 235 240
f 254 249 232
f 248 205 242
f 245 216 253
f 217 250 263
f 179 246 257
f 219 234 260
f 258 251 204
f 227 225 259
f 247 243 255
f 217 263 255
f 232 252 254
f 240 238 256
f 251 260 234
f 204 231 258
f 225 248 259
f 235 256 262
f 238 239 266
f 244 235 262
f 249 254 250
f 236 249 250
f 264 227 259
f 219 260 261
f 210 159 229
f 265 239 247
f 266 239 265
f 255 263 270
f 271 237 222
f 245 267 242
f 254 269 250
f 271 222 215
f 262 256 268
f 256 238 266
f 277 228 227
f 263 250 273
f 272 228 277
f 247 255 270
f 215 228 276
f 260 251 278
f 251 258 278
f 271 215 275
f 276 228 272
f 250 281 273
f 269 254 274
f 277 227 264
f 268 256 282
f 252 219 261
f 210 280 241
f 275 215 286
f 244 262 284
f 263 273 279
f 256 266 282
f 286 215 276
f 280 210 288
f 283 247 270
f 263 279 270
f 250 269 274
f 254 287 274
f 288 210 229
f 274 287 281
f 270 279 285
f 253 244 284
f 283 265 247
f 208 241 289
f 283 270 292
f 250 274 281
f 259 248 242
f 266 265 290
f 268 282 291
f 265 283 290
f 270 285 292
f 252 287 254
f 231 208 289
f 297 259 242
f 242 267 297
f 273 281 300
f 245 253 284
f 252 281 287
f 266 290 282
f 296 277 264
f 284 262 298
f 285 279 302
f 245 284 303
f 290 301 295
f 282 290 295
f 293 272 277
f 276 272 293
f 282 295 305
f 273 304 279
f 291 282 305
f 298 262 291
f 262 268 291
f 294 307 259
f 297 267 306
f 302 279 304
f 264 259 307
f 293 277 296
f 303 284 299
f 237 271 309
f 298 299 284
f 281 252 300
f 260 278 310
f 294 259 297
f 311 295 301
f 292 285 313
f 271 275 286
f 286 309 271
f 276 293 312
f 288 229 308
f 231 289 317
f 301 290 314
f 252 315 300
f 303 267 245
f 314 290 283
f 273 300 304
f 310 261 260
f 285 302 313
f 298 291 318
f 310 278 326
f 241 280 320
f 252 261 310
f 305 318 291
f 312 293 323
f 301 314 311
f 314 283 292
f 324 323 293
f 231 317 258
f 246 319 257
f 307 294 322
f 331 293 316
f 294 297 322
f 229 257 308
f 295 311 327
f 305 295 327
f 252 310 332
f 233 237 309
f 325 304 300
f 303 299 330
f 292 328 314
f 321 300 315
f 276 312 286
f 296 264 307
f 296 316 293
f 317 289 329
f 325 300 321
f 331 324 293
f 303 330 333
f 337 233 309
f 305 327 336
f 246 233 319
f 292 313 328
f 267 303 339
f 329 289 335
f 318 305 336
f 241 335 289
f 327 311 334
f 286 338 309
f 278 258 317
f 338 286 312
f 302 304 340
f 339 306 267
f 298 318 345
f 336 327 334
f 297 306 343
f 278 317 326
f 335 241 320
f 329 335 348
f 315 252 332
f 346 311 314
f 344 329 348
f 299 298 345
f 330 299 345
f 334 311 346
f 322 297 343
f 309 338 350
f 324 312 323
f 338 312 324
f 322 349 307
f 313 302 340
f 233 337 319
f 304 325 340
f 334 346 351
f 352 296 307
f 257 342 308
f 339 303 333
f 341 345 318
f 347 350 338
f 328 313 340
f 317 357 326
f 316 296 352
f 352 353 316
f 355 341 318
f 318 336 355
f 347 338 324
f 322 343 356
f 257 319 342
f 354 353 352
f 329 357 317
f 358 334 351
f 350 347 360
f 352 307 349
f 359 325 321
f 343 306 339
f 328 340 361
f 357 329 344
f 322 356 349
f 314 328 346
f 315 332 363
f 354 352 349
f 310 326 357
f 334 355 336
f 355 334 358
f 354 349 353
f 324 331 364
f 346 362 351
f 346 328 361
f 321 315 363
f 333 330 366
f 365 361 340
f 325 359 340
f 359 321 363
f 370 337 309
f 341 367 345
f 316 353 368
f 347 324 364
f 340 359 365
f 350 370 309
f 345 366 330
f 310 357 332
f 350 360 370
f 341 355 369
f 362 371 351
f 358 351 371
f 366 345 367
f 361 372 346
f 369 367 341
f 339 333 373
f 368 353 376
f 333 366 373
f 280 288 377
f 320 280 377
f 364 331 316
f 353 349 376
f 362 346 381
f 355 358 374
f 372 361 365
f 316 368 364
f 359 363 378
f 383 346 372
f 356 343 380
f 349 356 382
f 376 349 382
f 381 346 383
f 380 339 379
f 343 339 380
f 320 386 335
f 378 363 388
f 369 355 374
f 363 385 388
f 377 288 308
f 363 332 385
f 344 384 357
f 382 356 380
f 364 368 376
f 360 347 390
f 374 358 389
f 339 373 379
f 378 365 359
f 367 369 392
f 366 367 392
f 358 371 389
f 308 342 396
f 337 370 397
f 332 357 394
f 381 383 391
f 377 308 396
f 335 386 395
f 393 362 381
f 393 381 391
f 370 360 375
f 389 371 399
f 369 404 392
f 378 388 400
f 364 376 401
f 360 390 375
f 372 378 400
f 378 372 365
f 386 320 377
f 332 398 385
f 371 362 405
f 344 408 387
f 373 366 410
f 374 404 369
f 388 385 398
f 390 406 375
f 409 319 337
f 342 319 396
f 405 362 393
f 366 392 410
f 412 404 374
f 408 344 348
f 400 388 398
f 412 374 389
f 391 383 411
f 344 387 384
f 382 380 407
f 375 413 370
f 348 335 417
f 337 397 409
f 373 410 402
f 376 382 415
f 394 398 332
f 375 406 414
f 372 411 383
f 413 375 414
f 399 371 405
f 397 370 413
f 389 399 412
f 397 413 418
f 414 406 420
f 379 373 402
f 408 348 417
f 376 426 401
f 391 423 393
f 319 409 396
f 379 407 380
f 391 411 423
f 406 401 425
f 425 401 426
f 357 384 416
f 403 382 407
f 377 396 432
f 423 411 429
f 424 392 419
f 404 419 392
f 357 431 394
f 413 414 428
f 422 405 393
f 416 431 357
f 410 392 424
f 415 382 403
f 399 405 434
f 422 393 423
f 418 430 433
f 404 412 435
f 415 426 376
f 404 435 419
f 418 413 430
f 438 421 411
f 425 420 406
f 434 405 422
f 409 397 427
f 427 397 418
f 426 415 436
f 394 431 398
f 439 411 372
f 399 434 412
f 428 430 413
f 335 395 443
f 441 428 414
f 379 402 444
f 420 441 414
f 427 418 433
f 417 335 443
f 441 420 425
f 442 430 428
f 396 409 440
f 411 439 438
f 415 403 436
f 434 435 412
f 448 424 419
f 442 433 430
f 425 426 447
f 422 423 429
f 427 433 451
f 407 450 403
f 446 384 387
f 429 411 449
f 386 377 453
f 447 426 436
f 419 452 448
f 433 442 445
f 400 398 431
f 396 440 432
f 436 403 450
f 407 379 455
f 435 452 419
f 377 432 453
f 448 452 456
f 428 441 442
f 410 424 448
f 440 409 427
f 411 421 449
f 422 429 457
f 386 460 395
f 451 433 445
f 441 425 447
f 434 422 458
f 436 450 454
f 443 395 460
f 427 459 440
f 441 462 442
f 436 454 447
f 464 457 429
f 434 458 435
f 455 379 444
f 427 451 459
f 445 461 451
f 450 407 455
f 462 445 442
f 467 454 450
f 458 422 457
f 468 441 447
f 400 431 466
f 429 449 464
f 441 468 462
f 454 468 447
f 410 448 471
f 465 452 435
f 457 464 470
f 432 440 469
f 402 410 472
f 444 402 472
f 471 472 410
f 386 453 460
f 459 469 440
f 439 400 466
f 461 459 451
f 387 475 446
f 471 448 456
f 462 461 445
f 465 435 458
f 450 455 473
f 460 453 474
f 475 387 408
f 454 467 468
f 469 453 432
f 461 477 459
f 449 421 480
f 456 452 476
f 421 438 480
f 443 460 478
f 474 453 469
f 462 483 461
f 471 456 476
f 459 482 469
f 438 439 481
f 480 438 481
f 473 467 450
f 482 474 469
f 416 479 431
f 443 408 417
f 452 465 476
f 464 449 470
f 477 482 459
f 384 446 486
f 439 466 485
f 457 484 458
f 478 460 474
f 473 455 487
f 480 488 449
f 473 487 467
f 466 431 485
f 485 431 479
f 467 487 468
f 470 449 488
f 487 462 468
f 461 492 477
f 489 471 476
f 490 465 458
f 484 457 470
f 384 486 416
f 489 472 471
f 493 487 455
f 476 465 490
f 458 484 490
f 494 408 443
f 493 455 444
f 481 439 485
f 492 491 477
f 443 478 495
f 494 443 495
f 474 495 478
f 495 474 482
f 476 490 496
f 475 408 494
f 444 472 497
f 491 482 477
f 476 496 489
f 498 461 483
f 500 481 485
f 498 492 461
f 484 470 488
f 483 462 499
f 497 472 489
f 502 489 496
f 503 462 487
f 501 480 481
f 489 502 497
f 497 493 444
f 487 493 504
f 499 462 503
f 475 486 446
f 504 503 487
f 491 495 482
f 496 505 502
f 479 416 500
f 492 498 491
f 498 506 491
f 488 480 508
f 500 416 507
f 475 494 509
f 495 491 506
f 490 484 510
f 499 513 483
f 509 494 495
f 493 497 504
f 501 481 500
f 511 490 510
f 508 480 501
f 505 497 502
f 509 495 506
f 475 509 486
f 512 484 488
f 513 498 483
f 496 490 514
f 496 514 505
f 512 510 484
f 507 416 486
f 501 500 516
f 507 516 500
f 503 504 497
f 514 490 511
f 503 497 505
f 517 499 503
f 505 514 503
f 514 517 503
f 510 517 511
f 511 517 514
f 510 512 518
f 499 517 513
f 512 488 519
f 519 488 508
f 518 517 510
f 518 513 517
f 509 520 486
f 509 506 520
f 521 498 513
f 518 512 519
f 506 498 522
f 518 519 513
f 508 501 516
f 498 521 522
f 522 520 506
f 508 516 523
f 508 523 519
f 519 521 513
f 519 523 521
f 507 486 520
f 523 516 524
f 522 524 520
f 521 524 522
f 516 507 524
f 523 524 521
f 520 524 507
f 38 44 43
f 25 17 12
f 63 56 49
f 56 57 31
f 12 17 7
f 21 28 22
f 84 94 68
f 22 46 53
f 24 27 12
f 73 64 93
f 49 56 31
f 105 98 84
f 43 24 32
f 73 93 105
f 73 105 84
f 73 84 68
f 73 68 49
f 4 9 10
f 49 31 38
f 49 38 43
f 73 49 43
f 16 20 18
f 18 21 22
f 18 22 53
f 16 18 53
f 73 43 32
f 16 53 73
f 16 73 32
f 24 12 7
f 10 16 32
f 401 406 390
f 364 401 390
f 364 390 347
f 400 439 372
f 236 250 221
f 485 479 500

