# Created by Open3D 
# object name: part_061
# number of vertices: 162
# number of triangles: 320
v 1.26176 4.61317 0.594552
vn -0.0691459 -0.393844 -0.916573
v 1.24985 4.59794 0.602998
vn 0.0401543 -0.588998 -0.807136
v 1.24284 4.60508 0.600126
vn -0.180531 -0.377468 -0.908254
v 1.25334 4.62365 0.59201
vn -0.175217 -0.257708 -0.950203
v 1.27039 4.62402 0.589909
vn -0.024144 -0.26941 -0.962723
v 1.27611 4.61599 0.593261
vn 0.13008 -0.530234 -0.837813
v 1.0091 4.95828 0.553071
vn -0.289241 -0.0932151 -0.952707
v 0.994988 4.94362 0.559434
vn -0.309094 -0.201868 -0.92936
v 0.990088 4.95276 0.56035
vn -0.45224 0.0835708 -0.887972
v 1.11815 4.77448 0.58548
vn -0.798876 -0.557823 0.225011
v 1.23623 4.61414 0.606712
vn -0.793918 -0.552651 0.253516
v 1.11917 4.77599 0.591859
vn -0.788861 -0.542922 0.287981
v 1.27053 4.61986 0.706557
vn -0.641056 -0.703737 0.306272
v 1.27311 4.61827 0.706479
vn 0.38462 -0.90857 0.162997
v 1.28879 4.64398 0.799293
vn -0.521884 -0.790892 0.319572
v 1.30009 4.64018 0.695594
vn 0.897195 0.353878 -0.26422
v 1.28103 4.62087 0.606577
vn 0.838082 0.465682 -0.284182
v 1.31494 4.66696 0.783475
vn 0.838831 0.466705 -0.280265
v 1.17526 4.76016 0.578262
vn 0.773372 0.52316 -0.35805
v 1.03613 4.94813 0.552864
vn 0.746005 0.493502 -0.447137
v 1.03181 4.95713 0.556533
vn 0.779302 0.53236 -0.330578
v 1.04917 5.01273 0.762059
vn 0.0691467 0.393843 0.916573
v 1.02939 5.00618 0.765364
vn -0.121457 0.533099 0.837289
v 1.03511 4.99815 0.768715
vn 0.0523371 0.289328 0.955798
v 1.05725 5.00202 0.764729
vn 0.175217 0.257708 0.950203
v 1.06266 5.01709 0.758499
vn 0.207553 0.395511 0.894703
v 1.05565 5.02423 0.755627
vn -0.0353806 0.595347 0.80269
v 1.15634 4.82637 0.784648
vn -0.773371 -0.523159 0.358054
v 1.03821 4.98668 0.763432
vn -0.780883 -0.530088 0.330497
v 1.15493 4.8246 0.778411
vn -0.787221 -0.540693 0.296538
v 1.30183 4.66762 0.80354
vn 0.289241 0.093214 0.952707
v 1.28297 4.65961 0.809407
vn 0.180895 0.113727 0.976905
v 1.28916 4.65136 0.808012
vn 0.370932 -0.139469 0.918127
v 1.21345 4.81205 0.777429
vn 0.798876 0.557823 -0.225014
v 1.2998 4.69496 0.794477
vn 0.808169 0.575154 -0.126731
v 1.30475 4.6864 0.790572
vn 0.795978 0.549964 -0.252901
v 1.03497 5.00231 0.652068
vn 0.64106 0.703733 -0.306271
v 1.05487 5.0222 0.740777
vn 0.731436 0.613399 -0.297898
v 1.02095 4.97611 0.563879
vn 0.730681 0.612383 -0.301815
v 1.00541 4.98199 0.663031
vn -0.897199 -0.353868 0.264219
v 1.00471 4.98487 0.662414
vn -0.757853 0.651963 -0.0245774
v 0.987714 4.95825 0.570085
vn -0.948903 -0.220343 0.225901
v 1.25064 4.59997 0.617848
vn -0.731434 -0.613401 0.297898
v 1.2532 4.59562 0.613673
vn -0.526568 -0.797219 0.295241
v 1.0057 4.92721 0.564148
vn -0.808055 -0.57502 0.128057
v 1.23011 4.62069 0.600991
vn -0.806944 -0.576536 0.12825
v 1.02254 4.96256 0.549217
vn -0.152598 -0.0939517 -0.983812
v 1.01668 4.9469 0.553156
vn -0.189589 -0.238076 -0.952563
v 1.26729 4.63549 0.595193
vn 0.781053 0.529682 -0.330747
v 1.26054 4.64161 0.589707
vn 0.746358 0.49115 -0.449135
v 1.30079 4.6373 0.696211
vn 0.815447 -0.578805 -0.00552641
v 1.2822 4.61555 0.602919
vn 0.944237 0.214007 -0.250235
v 1.00075 4.93577 0.568052
vn -0.795696 -0.550218 0.253235
v 1.28455 4.64606 0.794746
vn -0.73068 -0.612384 0.301815
v 1.31779 4.66392 0.788539
vn 0.948902 0.220349 -0.225902
v 1.17699 4.76149 0.584551
vn 0.787221 0.540692 -0.296538
v 1.01634 4.97081 0.550613
vn -0.365506 0.146704 -0.919175
v 1.02448 5.00131 0.752047
vn -0.838083 -0.46568 0.284182
v 1.0233 5.00662 0.755706
vn -0.94424 -0.213997 0.250233
v 1.26937 4.67404 0.805761
vn -0.745615 -0.493188 0.448133
v 1.04496 4.98056 0.768918
vn -0.746728 -0.491672 0.447946
v 1.31051 4.67855 0.799191
vn 0.336013 0.220054 0.91579
v 1.2939 4.67877 0.803583
vn 0.189589 0.238076 0.952563
v 1.06927 5.00804 0.751913
vn 0.794042 0.552394 -0.253689
v 1.07539 5.00148 0.757634
vn 0.806933 0.576305 -0.12935
v 1.0324 5.00391 0.652146
vn -0.294332 0.937083 -0.187737
v 1.0523 5.02655 0.744952
vn 0.526568 0.797219 -0.295241
v 0.99056 4.95521 0.57515
vn -0.838831 -0.466705 0.280265
v 1.27369 4.66504 0.802092
vn -0.779103 -0.532515 0.330797
v 1.31541 4.66941 0.798275
vn 0.460212 -0.0815895 0.884052
v 1.21275 4.8101 0.771103
vn 0.788862 0.542922 -0.287981
v 1.01671 4.97819 0.559331
vn 0.521889 0.790889 -0.319573
v 1.24492 4.60418 0.611242
vn -0.770953 -0.567866 0.288374
v 1.24194 4.60547 0.604547
vn -0.783426 -0.599102 0.165289
v 1.24889 4.59814 0.608666
vn -0.729956 -0.651753 0.205868
v 0.99832 4.93751 0.561129
vn -0.789846 -0.58826 -0.173474
v 1.00637 4.92751 0.560318
vn -0.247964 -0.289573 -0.924479
v 1.11794 4.7737 0.5803
vn -0.782723 -0.594988 -0.182576
v 1.02773 4.95773 0.550221
vn 0.613612 0.374939 -0.694911
v 1.17237 4.76005 0.573421
vn 0.613449 0.364934 -0.70036
v 1.03395 4.94647 0.55009
vn -0.0823615 -0.175049 -0.981109
v 1.27578 4.6254 0.599797
vn 0.80436 0.515237 -0.295865
v 1.27878 4.61869 0.59758
vn 0.828081 0.419443 -0.371954
v 1.27231 4.62635 0.593286
vn 0.777366 0.473996 -0.413557
v 1.29037 4.62906 0.700357
vn 0.587963 -0.803107 0.0965318
v 1.25584 4.59475 0.613278
vn 0.536445 -0.840298 0.0782708
v 1.28212 4.61282 0.60353
vn 0.630021 -0.775354 0.0435863
v 0.993517 4.94757 0.569968
vn -0.806933 -0.518722 0.282467
v 0.989335 4.95267 0.566052
vn -0.864142 -0.468465 0.183846
v 0.99458 4.94335 0.563936
vn -0.826316 -0.540519 0.158243
v 1.28112 4.65339 0.800102
vn -0.768391 -0.564368 0.30177
v 1.27192 4.66238 0.79303
vn -0.786978 -0.542811 0.293295
v 1.26357 4.62787 0.705805
vn -0.77015 -0.56554 0.295014
v 1.31766 4.66638 0.794855
vn 0.852166 -0.242946 0.463455
v 1.30725 4.65793 0.799604
vn 0.586006 -0.514764 0.625791
v 1.31775 4.66124 0.789362
vn 0.643088 -0.757594 0.111753
v 1.19503 4.7857 0.677821
vn 0.788049 0.541812 -0.292264
v 1.30328 4.68394 0.781398
vn 0.789356 0.540486 -0.29119
v 1.26933 4.63779 0.604299
vn 0.789016 0.540025 -0.292962
v 1.01587 4.97506 0.553374
vn -0.214688 0.681236 -0.699877
v 1.01923 4.97322 0.554967
vn 0.693882 0.602739 -0.393996
v 1.01986 4.96887 0.55067
vn 0.5636 0.512159 -0.648112
v 1.02973 4.99677 0.758828
vn -0.804361 -0.515235 0.295865
v 1.03319 4.99582 0.765339
vn -0.777366 -0.473996 0.413557
v 1.02672 5.00348 0.761045
vn -0.828083 -0.41944 0.371953
v 1.27777 4.66444 0.808404
vn -0.613629 -0.376686 0.693951
v 1.27155 4.6757 0.808535
vn 0.118547 0.200594 0.972476
v 1.15801 4.82815 0.789287
vn -0.613449 -0.364934 0.70036
v 1.30718 4.68466 0.797496
vn 0.791342 0.586816 0.171538
v 1.21243 4.8145 0.782408
vn 0.782723 0.594988 0.182576
v 1.29913 4.69466 0.798307
vn 0.27118 0.305049 0.912911
v 1.06059 5.01799 0.747383
vn 0.770953 0.567866 -0.288374
v 1.05661 5.02403 0.749959
vn 0.729956 0.651753 -0.205868
v 1.06356 5.0167 0.754077
vn 0.783426 0.599102 -0.165289
v 1.02093 4.99709 0.656121
vn -0.587963 0.803107 -0.0965318
v 1.02338 5.00936 0.755095
vn -0.623781 0.780251 -0.0458797
v 1.04966 5.02743 0.745347
vn -0.529694 0.844332 -0.0807942
v 1.00222 4.93823 0.577227
vn -0.789117 -0.540813 0.291232
v 1.01091 4.97298 0.664323
vn -0.805243 -0.517608 0.289252
v 1.28628 4.64895 0.803658
vn -0.693883 -0.602738 0.393997
v 1.28056 4.65795 0.80595
vn -0.734472 -0.53258 0.420606
v 1.31617 4.6695 0.792572
vn 0.864142 0.468465 -0.183845
v 1.31458 4.6732 0.797222
vn 0.872315 0.475083 0.115599
v 1.03358 4.9598 0.565595
vn 0.787135 0.542598 -0.293268
v 1.06754 5.00594 0.742694
vn 0.787473 0.543058 -0.291503
v 1.00395 4.96816 0.556908
vn -0.586005 0.514765 -0.625791
v 1.01403 4.97901 0.559515
vn -0.542766 0.826569 -0.148959
v 1.25163 4.59548 0.607078
vn 0.120312 -0.922122 -0.367717
v 1.24642 4.59999 0.603349
vn -0.704736 -0.703981 -0.0880807
v 1.2379 4.61026 0.600463
vn -0.779606 -0.602254 -0.17177
v 1.23103 4.62064 0.597203
vn -0.245051 -0.29355 -0.924001
v 1.13529 4.78541 0.572041
vn -0.182416 -0.247911 -0.951454
v 1.25861 4.6396 0.586974
vn -0.0913492 -0.187642 -0.97798
v 1.26732 4.63048 0.589555
vn 0.626066 0.362196 -0.690547
v 1.27535 4.61989 0.592617
vn 0.731175 0.283268 -0.620598
v 1.27966 4.61475 0.596683
vn 0.656542 -0.508796 -0.556848
v 1.26907 4.60603 0.600434
vn 0.376328 -0.799705 -0.467813
v 0.99092 4.94897 0.561403
vn -0.872314 -0.475084 -0.115599
v 1.23796 4.61623 0.615931
vn -0.787317 -0.543272 0.291527
v 1.29147 4.64317 0.799109
vn 0.549579 -0.82245 0.146758
v 1.29459 4.64919 0.694302
vn 0.805242 0.517608 -0.289252
v 1.02495 4.96422 0.552674
vn 0.73447 0.532581 -0.420608
v 1.02584 5.00743 0.761942
vn -0.588947 0.599924 0.54151
v 1.03015 5.00229 0.766008
vn -0.731173 -0.283262 0.620604
v 1.03819 4.99169 0.76907
vn -0.623867 -0.362684 0.692279
v 1.04689 4.98257 0.77165
vn 0.115635 0.204572 0.971997
v 1.17601 4.84075 0.784436
vn 0.182416 0.247911 0.951454
v 1.07447 5.00153 0.761422
vn 0.279514 0.316756 0.906387
v 1.0676 5.01191 0.758162
vn 0.780081 0.601177 0.173378
v 1.05909 5.02218 0.755276
vn 0.704736 0.703981 0.0880807
v 1.05387 5.0267 0.751547
vn -0.0190745 0.947076 0.320443
v 1.04213 5.02006 0.756078
vn -0.376328 0.799705 0.467813
v 1.03617 4.98438 0.754326
vn -0.788778 -0.540353 0.292999
v 1.28564 4.6533 0.807955
vn -0.563598 -0.512158 0.648114
v 1.31092 4.67883 0.794689
vn 0.826317 0.540518 -0.15824
v 1.04193 4.99431 0.65282
vn 0.770149 0.565542 -0.295014
v 0.987749 4.96093 0.569263
vn -0.63691 0.762407 -0.114371
v 0.987844 4.95579 0.563769
vn -0.791988 0.323996 -0.517476
v 1.13699 4.80025 0.685158
vn -0.788049 -0.541812 0.292264
v 1.28963 4.64711 0.80525
vn 0.323344 -0.646203 0.691282
v 1.31199 4.67461 0.788657
vn 0.806933 0.518722 -0.282467
v 1.02438 4.96878 0.558523
vn 0.768388 0.564371 -0.301771
f 1//1 2//2 3//3
f 1//1 3//3 4//4
f 1//1 4//4 5//5
f 1//1 5//5 6//6
f 1//1 6//6 2//2
f 7//7 8//8 9//9
f 10//10 11//11 12//12
f 13//13 14//14 15//15
f 16//16 17//17 18//18
f 19//19 20//20 21//21
f 22//22 23//23 24//24
f 22//22 24//24 25//25
f 22//22 25//25 26//26
f 22//22 26//26 27//27
f 22//22 27//27 23//23
f 28//28 29//29 30//30
f 31//31 32//32 33//33
f 34//34 35//35 36//36
f 37//37 38//38 39//39
f 40//40 41//41 42//42
f 13//13 43//43 44//44
f 10//10 45//45 46//46
f 7//7 47//47 48//48
f 19//19 49//49 50//50
f 16//16 51//51 52//52
f 10//10 53//53 45//45
f 13//13 54//54 43//43
f 16//16 55//55 51//51
f 19//19 56//56 49//49
f 7//7 57//57 47//47
f 40//40 58//58 59//59
f 28//28 60//60 61//61
f 31//31 62//62 63//63
f 34//34 64//64 65//65
f 37//37 66//66 67//67
f 40//40 68//68 58//58
f 28//28 69//69 60//60
f 31//31 70//70 62//62
f 34//34 71//71 64//64
f 37//37 72//72 66//66
f 10//10 46//46 11//11
f 7//7 48//48 8//8
f 19//19 50//50 20//20
f 16//16 52//52 17//17
f 13//13 44//44 14//14
f 40//40 42//42 68//68
f 28//28 30//30 69//69
f 31//31 33//33 70//70
f 34//34 36//36 71//71
f 37//37 39//39 72//72
f 28//28 61//61 29//29
f 31//31 63//63 32//32
f 34//34 65//65 35//35
f 37//37 67//67 38//38
f 40//40 59//59 41//41
f 10//10 12//12 53//53
f 13//13 15//15 54//54
f 16//16 18//18 55//55
f 19//19 21//21 56//56
f 7//7 9//9 57//57
f 73//73 74//74 75//75
f 76//76 77//77 78//78
f 79//79 80//80 81//81
f 82//82 83//83 84//84
f 85//85 86//86 87//87
f 88//88 89//89 90//90
f 91//91 92//92 93//93
f 94//94 95//95 96//96
f 97//97 98//98 99//99
f 100//100 101//101 102//102
f 103//103 104//104 105//105
f 106//106 107//107 108//108
f 109//109 110//110 111//111
f 112//112 113//113 114//114
f 115//115 116//116 117//117
f 88//88 118//118 119//119
f 91//91 120//120 121//121
f 94//94 122//122 123//123
f 97//97 124//124 125//125
f 100//100 126//126 127//127
f 128//128 129//129 2//2
f 130//130 131//131 3//3
f 132//132 133//133 4//4
f 134//134 135//135 5//5
f 136//136 137//137 6//6
f 76//76 138//138 8//8
f 73//73 139//139 11//11
f 85//85 140//140 14//14
f 82//82 141//141 17//17
f 79//79 142//142 20//20
f 143//143 144//144 23//23
f 145//145 146//146 24//24
f 147//147 148//148 25//25
f 149//149 150//150 26//26
f 151//151 152//152 27//27
f 103//103 153//153 29//29
f 106//106 154//154 32//32
f 109//109 155//155 35//35
f 112//112 156//156 38//38
f 115//115 157//157 41//41
f 73//73 75//75 43//43
f 76//76 78//78 45//45
f 79//79 81//81 47//47
f 82//82 84//84 49//49
f 85//85 87//87 51//51
f 88//88 90//90 53//53
f 91//91 93//93 54//54
f 94//94 96//96 55//55
f 97//97 99//99 56//56
f 100//100 102//102 57//57
f 103//103 105//105 58//58
f 106//106 108//108 60//60
f 109//109 111//111 62//62
f 112//112 114//114 64//64
f 115//115 117//117 66//66
f 88//88 119//119 68//68
f 91//91 121//121 69//69
f 94//94 123//123 70//70
f 97//97 125//125 71//71
f 100//100 127//127 72//72
f 130//130 74//74 46//46
f 132//132 77//77 48//48
f 134//134 80//80 50//50
f 136//136 83//83 52//52
f 128//128 86//86 44//44
f 158//158 89//89 42//42
f 159//159 92//92 30//30
f 160//160 95//95 33//33
f 161//161 98//98 36//36
f 162//162 101//101 39//39
f 145//145 104//104 61//61
f 147//147 107//107 63//63
f 149//149 110//110 65//65
f 151//151 113//113 67//67
f 143//143 116//116 59//59
f 159//159 118//118 12//12
f 160//160 120//120 15//15
f 161//161 122//122 18//18
f 162//162 124//124 21//21
f 158//158 126//126 9//9
f 130//130 129//129 74//74
f 132//132 131//131 77//77
f 134//134 133//133 80//80
f 136//136 135//135 83//83
f 128//128 137//137 86//86
f 158//158 138//138 89//89
f 159//159 139//139 92//92
f 160//160 140//140 95//95
f 161//161 141//141 98//98
f 162//162 142//142 101//101
f 145//145 144//144 104//104
f 147//147 146//146 107//107
f 149//149 148//148 110//110
f 151//151 150//150 113//113
f 143//143 152//152 116//116
f 159//159 153//153 118//118
f 160//160 154//154 120//120
f 161//161 155//155 122//122
f 162//162 156//156 124//124
f 158//158 157//157 126//126
f 130//130 3//3 129//129
f 132//132 4//4 131//131
f 134//134 5//5 133//133
f 136//136 6//6 135//135
f 128//128 2//2 137//137
f 158//158 9//9 138//138
f 159//159 12//12 139//139
f 160//160 15//15 140//140
f 161//161 18//18 141//141
f 162//162 21//21 142//142
f 145//145 24//24 144//144
f 147//147 25//25 146//146
f 149//149 26//26 148//148
f 151//151 27//27 150//150
f 143//143 23//23 152//152
f 159//159 30//30 153//153
f 160//160 33//33 154//154
f 161//161 36//36 155//155
f 162//162 39//39 156//156
f 158//158 42//42 157//157
f 128//128 44//44 75//75
f 130//130 46//46 78//78
f 132//132 48//48 81//81
f 134//134 50//50 84//84
f 136//136 52//52 87//87
f 76//76 45//45 90//90
f 73//73 43//43 93//93
f 85//85 51//51 96//96
f 82//82 49//49 99//99
f 79//79 47//47 102//102
f 143//143 59//59 105//105
f 145//145 61//61 108//108
f 147//147 63//63 111//111
f 149//149 65//65 114//114
f 151//151 67//67 117//117
f 103//103 58//58 119//119
f 106//106 60//60 121//121
f 109//109 62//62 123//123
f 112//112 64//64 125//125
f 115//115 66//66 127//127
f 73//73 11//11 74//74
f 76//76 8//8 77//77
f 79//79 20//20 80//80
f 82//82 17//17 83//83
f 85//85 14//14 86//86
f 88//88 68//68 89//89
f 91//91 69//69 92//92
f 94//94 70//70 95//95
f 97//97 71//71 98//98
f 100//100 72//72 101//101
f 103//103 29//29 104//104
f 106//106 32//32 107//107
f 109//109 35//35 110//110
f 112//112 38//38 113//113
f 115//115 41//41 116//116
f 88//88 53//53 118//118
f 91//91 54//54 120//120
f 94//94 55//55 122//122
f 97//97 56//56 124//124
f 100//100 57//57 126//126
f 128//128 75//75 129//129
f 130//130 78//78 131//131
f 132//132 81//81 133//133
f 134//134 84//84 135//135
f 136//136 87//87 137//137
f 76//76 90//90 138//138
f 73//73 93//93 139//139
f 85//85 96//96 140//140
f 82//82 99//99 141//141
f 79//79 102//102 142//142
f 143//143 105//105 144//144
f 145//145 108//108 146//146
f 147//147 111//111 148//148
f 149//149 114//114 150//150
f 151//151 117//117 152//152
f 103//103 119//119 153//153
f 106//106 121//121 154//154
f 109//109 123//123 155//155
f 112//112 125//125 156//156
f 115//115 127//127 157//157
f 129//129 3//3 2//2
f 131//131 4//4 3//3
f 133//133 5//5 4//4
f 135//135 6//6 5//5
f 137//137 2//2 6//6
f 138//138 9//9 8//8
f 139//139 12//12 11//11
f 140//140 15//15 14//14
f 141//141 18//18 17//17
f 142//142 21//21 20//20
f 144//144 24//24 23//23
f 146//146 25//25 24//24
f 148//148 26//26 25//25
f 150//150 27//27 26//26
f 152//152 23//23 27//27
f 153//153 30//30 29//29
f 154//154 33//33 32//32
f 155//155 36//36 35//35
f 156//156 39//39 38//38
f 157//157 42//42 41//41
f 75//75 44//44 43//43
f 78//78 46//46 45//45
f 81//81 48//48 47//47
f 84//84 50//50 49//49
f 87//87 52//52 51//51
f 90//90 45//45 53//53
f 93//93 43//43 54//54
f 96//96 51//51 55//55
f 99//99 49//49 56//56
f 102//102 47//47 57//57
f 105//105 59//59 58//58
f 108//108 61//61 60//60
f 111//111 63//63 62//62
f 114//114 65//65 64//64
f 117//117 67//67 66//66
f 119//119 58//58 68//68
f 121//121 60//60 69//69
f 123//123 62//62 70//70
f 125//125 64//64 71//71
f 127//127 66//66 72//72
f 74//74 11//11 46//46
f 77//77 8//8 48//48
f 80//80 20//20 50//50
f 83//83 17//17 52//52
f 86//86 14//14 44//44
f 89//89 68//68 42//42
f 92//92 69//69 30//30
f 95//95 70//70 33//33
f 98//98 71//71 36//36
f 101//101 72//72 39//39
f 104//104 29//29 61//61
f 107//107 32//32 63//63
f 110//110 35//35 65//65
f 113//113 38//38 67//67
f 116//116 41//41 59//59
f 118//118 53//53 12//12
f 120//120 54//54 15//15
f 122//122 55//55 18//18
f 124//124 56//56 21//21
f 126//126 57//57 9//9
f 129//129 75//75 74//74
f 131//131 78//78 77//77
f 133//133 81//81 80//80
f 135//135 84//84 83//83
f 137//137 87//87 86//86
f 138//138 90//90 89//89
f 139//139 93//93 92//92
f 140//140 96//96 95//95
f 141//141 99//99 98//98
f 142//142 102//102 101//101
f 144//144 105//105 104//104
f 146//146 108//108 107//107
f 148//148 111//111 110//110
f 150//150 114//114 113//113
f 152//152 117//117 116//116
f 153//153 119//119 118//118
f 154//154 121//121 120//120
f 155//155 123//123 122//122
f 156//156 125//125 124//124
f 157//157 127//127 126//126
