# Created by Open3D 
# object name: part_033
# number of vertices: 162
# number of triangles: 320
v -0.908313 1.97701 1.6015
vn -0.199234 -0.382728 0.902123
v -0.889911 1.96806 1.6006
vn -0.234905 -0.715723 0.657693
v -0.88784 1.97264 1.60339
vn -0.0589976 -0.249706 0.966523
v -0.90622 1.98335 1.60311
vn -0.083208 0.0102643 0.996479
v -0.921059 1.98314 1.60051
vn -0.285953 -0.177317 0.941695
v -0.921569 1.97806 1.59785
vn -0.329759 -0.688304 0.64614
v -0.844787 2.17708 1.59814
vn 0.0667383 0.454918 0.888029
v -0.825522 2.1689 1.60009
vn 0.1052 0.267409 0.957823
v -0.824598 2.17375 1.59714
vn 0.227274 0.739857 0.633213
v -0.854099 2.06984 1.59527
vn 0.944667 -0.297636 0.137898
v -0.883491 1.9765 1.59436
vn 0.946433 -0.301838 0.114711
v -0.853254 2.06943 1.58701
vn 0.94999 -0.3002 0.0860135
v -0.878623 1.95988 1.46612
vn 0.738622 -0.669156 0.0816503
v -0.880164 1.95894 1.46605
vn -0.188117 -0.981811 0.0256674
v -0.869983 1.95492 1.34415
vn 0.559803 -0.825983 0.0661283
v -0.914266 1.97114 1.46303
vn -0.99008 -0.122771 -0.0683277
v -0.922735 1.97798 1.57916
vn -0.989894 0.119435 -0.0764552
v -0.905533 1.96861 1.34674
vn -0.989655 0.119306 -0.079683
v -0.898061 2.061 1.59238
vn -0.952895 0.302119 -0.026732
v -0.863205 2.17055 1.59425
vn -0.95104 0.304729 0.0516113
v -0.861739 2.1748 1.58797
vn -0.951366 0.303922 -0.050342
v -0.824464 2.16601 1.32355
vn 0.199236 0.382732 -0.90212
v -0.804662 2.16289 1.32777
vn 0.322262 0.688108 -0.650119
v -0.805171 2.15781 1.32512
vn 0.246422 0.19047 -0.950262
v -0.826143 2.15954 1.32198
vn 0.083208 -0.0102642 -0.996479
v -0.83839 2.16831 1.32223
vn 0.0182849 0.261919 -0.964917
v -0.83632 2.17289 1.32503
vn 0.22835 0.720355 -0.654939
v -0.834731 2.05929 1.33359
vn 0.952895 -0.302119 0.0267315
v -0.805286 2.15261 1.33452
vn 0.953083 -0.298536 0.0500871
v -0.835113 2.05955 1.3419
vn 0.950519 -0.300488 0.07887
v -0.88799 1.96594 1.32692
vn -0.0667397 -0.454915 -0.888031
v -0.867489 1.96155 1.32842
vn 0.0822242 -0.326648 -0.941563
v -0.869975 1.95719 1.33123
vn -0.139922 -0.767469 -0.62563
v -0.878693 2.05045 1.3307
vn -0.944668 0.297637 -0.137895
v -0.899715 1.982 1.32819
vn -0.932088 0.290084 -0.216943
v -0.901945 1.97799 1.3344
vn -0.948528 0.295137 -0.114845
v -0.847608 2.18107 1.4595
vn -0.738631 0.669147 -0.0816505
v -0.840142 2.17455 1.34328
vn -0.878002 0.470942 -0.0855984
v -0.857344 2.18392 1.5757
vn -0.878241 0.471072 -0.0823711
v -0.811964 2.16981 1.46259
vn 0.99008 0.122773 0.0683276
v -0.812681 2.17146 1.46247
vn 0.412835 0.910785 -0.00617109
v -0.821282 2.17498 1.5845
vn 0.933039 0.354147 0.0633862
v -0.886089 1.9664 1.58234
vn 0.878002 -0.470942 0.0855987
v -0.888034 1.96475 1.58804
vn 0.558532 -0.825297 0.0832284
v -0.826515 2.15895 1.59743
vn 0.932252 -0.290342 0.21589
v -0.882938 1.98125 1.60042
vn 0.931075 -0.294047 0.215954
v -0.858741 2.1794 1.5972
vn -0.122183 0.338453 0.933017
v -0.846717 2.17075 1.59996
vn -0.0642209 0.0700588 0.995473
v -0.920944 1.98834 1.59111
vn -0.95334 0.297759 -0.0498266
v -0.919628 1.99285 1.59724
vn -0.952115 0.300996 0.0536475
v -0.913549 1.96949 1.46315
vn -0.458568 -0.888657 0.00189437
v -0.922999 1.97581 1.585
vn -0.934305 -0.353457 -0.0462874
v -0.824286 2.16296 1.59122
vn 0.948307 -0.295934 0.114614
v -0.868887 1.95703 1.34992
vn 0.878242 -0.471069 0.0823707
v -0.904949 1.96597 1.34112
vn -0.933041 -0.354141 -0.0633867
v -0.89776 2.06048 1.58407
vn -0.950519 0.300488 -0.0788709
v -0.856256 2.18376 1.59439
vn 0.133865 0.771823 0.621586
v -0.803496 2.16297 1.34646
vn 0.989894 -0.119434 0.0764552
v -0.803231 2.16515 1.34062
vn 0.934305 0.353456 0.0462876
v -0.863026 1.97041 1.33138
vn 0.950944 -0.304873 -0.0525117
v -0.806603 2.1481 1.32839
vn 0.952121 -0.301167 -0.052573
v -0.900708 1.97205 1.32554
vn -0.145482 -0.253849 -0.95624
v -0.885645 1.97214 1.32513
vn 0.0642216 -0.070059 -0.995473
v -0.84274 2.16445 1.33127
vn -0.946614 0.301334 -0.114537
v -0.843292 2.1597 1.3252
vn -0.9313 0.293975 -0.215077
v -0.846067 2.18202 1.45958
vn 0.13795 0.989993 -0.02971
v -0.838197 2.1762 1.33758
vn -0.558546 0.825288 -0.0832275
v -0.820698 2.17234 1.57888
vn 0.989655 -0.119304 0.079683
v -0.864492 1.96615 1.33765
vn 0.951209 -0.304439 0.0501854
v -0.901633 1.9672 1.32849
vn -0.235281 -0.739776 -0.630377
v -0.879619 2.0506 1.33897
vn -0.94999 0.3002 -0.0860123
v -0.856247 2.18603 1.58147
vn -0.559803 0.825983 -0.0661295
v -0.885296 1.97006 1.59017
vn 0.92905 -0.359123 0.0888657
v -0.885697 1.97209 1.59836
vn 0.911608 -0.364704 0.189635
v -0.887205 1.96718 1.5942
vn 0.846944 -0.506804 0.160734
v -0.825374 2.16524 1.59936
vn 0.857723 -0.24529 0.451823
v -0.828519 2.15977 1.60159
vn 0.0262605 0.0151371 0.999541
v -0.855455 2.07038 1.60165
vn 0.848484 -0.261677 0.46
v -0.860839 2.17644 1.59628
vn -0.902627 0.308223 0.300439
v -0.897351 2.06195 1.59889
vn -0.905314 0.29264 0.307844
v -0.861775 2.17028 1.5987
vn -0.221536 0.0935114 0.970658
v -0.922509 1.98183 1.58694
vn -0.967723 0.24038 -0.0756928
v -0.923248 1.97857 1.59107
vn -0.997104 0.0760459 0.000747545
v -0.922313 1.98366 1.59518
vn -0.972639 0.230846 0.0261589
v -0.900479 1.9649 1.4643
vn -0.302596 -0.952984 0.0160321
v -0.890007 1.96425 1.58805
vn -0.277723 -0.96012 0.0322507
v -0.921701 1.97426 1.5853
vn -0.333062 -0.942507 0.0273833
v -0.822087 2.16913 1.58682
vn 0.966897 -0.23993 0.0868612
v -0.821944 2.17271 1.59074
vn 0.985697 -0.069829 0.153382
v -0.823503 2.16796 1.59506
vn 0.956844 -0.222243 0.187236
v -0.86693 1.96006 1.34203
vn 0.929877 -0.359573 0.0776982
v -0.865231 1.96647 1.34968
vn 0.949362 -0.30336 0.0817542
v -0.876178 1.96453 1.46612
vn 0.930031 -0.357922 0.0832667
v -0.903541 1.96613 1.33291
vn -0.499004 -0.824325 -0.267364
v -0.890195 1.96132 1.33344
vn -0.272423 -0.929829 -0.247393
v -0.90363 1.96442 1.34114
vn -0.331002 -0.94363 -0.000475826
v -0.888789 2.05548 1.46152
vn -0.950261 0.300346 -0.0824421
v -0.903051 1.97843 1.3464
vn -0.951398 0.296535 -0.083118
v -0.920273 1.98781 1.57908
vn -0.951508 0.296595 -0.0816378
v -0.856488 2.18551 1.58978
vn 0.0264551 0.973681 0.226376
v -0.857987 2.1841 1.58762
vn -0.858354 0.513016 -0.00660235
v -0.858392 2.18257 1.59401
vn -0.796163 0.561142 0.22637
v -0.803722 2.15913 1.33868
vn 0.967723 -0.240381 0.0756926
v -0.803917 2.15729 1.33044
vn 0.972638 -0.230849 -0.0261568
v -0.802983 2.16238 1.33455
vn 0.997104 -0.0760468 -0.000746939
v -0.865391 1.96451 1.32934
vn 0.902127 -0.310939 -0.299138
v -0.864455 1.97067 1.32692
vn 0.169136 -0.0768953 -0.982588
v -0.835132 2.05931 1.32707
vn 0.905313 -0.292639 -0.307849
v -0.900857 1.97572 1.32626
vn -0.859635 0.2418 -0.450068
v -0.877029 2.05088 1.3243
vn -0.848482 0.261677 -0.460003
v -0.897712 1.98118 1.32403
vn -0.0622202 -0.00396534 -0.998055
v -0.840935 2.17089 1.33545
vn -0.929048 0.359127 -0.0888656
v -0.839026 2.17377 1.33142
vn -0.846949 0.506796 -0.160731
v -0.840534 2.16886 1.32727
vn -0.911607 0.364705 -0.18964
v -0.832734 2.17826 1.46071
vn 0.302596 0.952984 -0.0160317
v -0.80453 2.16669 1.34032
vn 0.329262 0.94383 -0.0277788
v -0.836224 2.1767 1.33757
vn 0.273834 0.961227 -0.0325214
v -0.82318 2.16253 1.57922
vn 0.951149 -0.297328 0.0831295
v -0.812652 2.1646 1.46275
vn 0.966952 -0.241646 0.0813105
v -0.868243 1.95685 1.33801
vn 0.858356 -0.513012 0.00660254
v -0.866112 1.96142 1.33374
vn 0.927403 -0.373307 -0.0237621
v -0.904286 1.96824 1.33488
vn -0.985697 0.0698294 -0.153382
v -0.902735 1.96941 1.32859
vn -0.926546 -0.0166479 -0.375814
v -0.861 2.17448 1.57594
vn -0.949529 0.302841 -0.0817471
v -0.843778 2.1651 1.34326
vn -0.94942 0.302782 -0.0832196
v -0.842905 2.1818 1.59159
vn 0.272423 0.929828 0.247397
v -0.854295 2.18655 1.58173
vn 0.271774 0.96235 -0.00466291
v -0.889014 1.96594 1.59622
vn -0.137695 -0.94594 0.293661
v -0.887735 1.96923 1.60044
vn 0.750908 -0.536487 0.385121
v -0.885612 1.97552 1.60255
vn 0.846502 -0.280634 0.452414
v -0.885006 1.98187 1.60458
vn 0.0224188 0.00303974 0.999744
v -0.876933 2.07721 1.60204
vn -0.0737507 0.0401811 0.996467
v -0.918263 1.99238 1.6017
vn -0.208261 0.0756012 0.975147
v -0.921078 1.98673 1.59947
vn -0.915002 0.271966 0.298003
v -0.922631 1.98025 1.59741
vn -0.971803 0.00800931 0.235657
v -0.922812 1.97663 1.59329
vn -0.53775 -0.803216 0.25626
v -0.909563 1.97187 1.59512
vn -0.311333 -0.908631 0.278319
v -0.823496 2.17154 1.59704
vn 0.926546 0.016647 0.375814
v -0.882452 1.97586 1.58237
vn 0.949253 -0.303301 0.0832298
v -0.871936 1.9544 1.34389
vn -0.275652 -0.961248 0.00426964
v -0.913579 1.97635 1.46287
vn -0.966952 0.241646 -0.0813106
v -0.860119 2.17953 1.59188
vn -0.927403 0.373307 0.0237688
v -0.803418 2.16432 1.33233
vn 0.474989 0.839327 -0.264414
v -0.803599 2.1607 1.32821
vn 0.971802 -0.00800794 -0.235662
v -0.805153 2.15422 1.32615
vn 0.913346 -0.275596 -0.299743
v -0.807968 2.14857 1.32393
vn 0.172977 -0.0647977 -0.982792
v -0.856279 2.06595 1.32298
vn 0.0737511 -0.0401813 -0.996467
v -0.841225 2.15908 1.32104
vn -0.0759052 0.0141679 -0.997014
v -0.840618 2.16543 1.32307
vn -0.846819 0.277818 -0.453559
v -0.838495 2.17173 1.32518
vn -0.750916 0.536476 -0.385122
v -0.837217 2.17501 1.3294
vn 0.0652091 0.952567 -0.297261
v -0.823537 2.17125 1.32991
vn 0.311335 0.908627 -0.278331
v -0.805958 2.15314 1.34654
vn 0.951259 -0.297388 0.0816535
v -0.867839 1.95839 1.33161
vn 0.796171 -0.56114 -0.22635
v -0.902728 1.97299 1.33056
vn -0.956844 0.222241 -0.187238
v -0.850052 2.17642 1.45951
vn -0.93003 0.357926 -0.0832668
v -0.822601 2.17653 1.58448
vn 0.327189 0.944959 0.000201182
v -0.822689 2.17482 1.59271
vn 0.435932 0.860611 0.263273
v -0.84411 2.06447 1.46446
vn 0.950261 -0.300346 0.0824421
v -0.869743 1.95545 1.33585
vn -0.0986396 -0.967217 -0.23401
v -0.904144 1.97182 1.3388
vn -0.966897 0.239929 -0.086861
v -0.8593 2.18089 1.58359
vn -0.929875 0.359576 -0.0776987
f 1//1 2//2 3//3
f 1//1 3//3 4//4
f 1//1 4//4 5//5
f 1//1 5//5 6//6
f 1//1 6//6 2//2
f 7//7 8//8 9//9
f 10//10 11//11 12//12
f 13//13 14//14 15//15
f 16//16 17//17 18//18
f 19//19 20//20 21//21
f 22//22 23//23 24//24
f 22//22 24//24 25//25
f 22//22 25//25 26//26
f 22//22 26//26 27//27
f 22//22 27//27 23//23
f 28//28 29//29 30//30
f 31//31 32//32 33//33
f 34//34 35//35 36//36
f 37//37 38//38 39//39
f 40//40 41//41 42//42
f 13//13 43//43 44//44
f 10//10 45//45 46//46
f 7//7 47//47 48//48
f 19//19 49//49 50//50
f 16//16 51//51 52//52
f 10//10 53//53 45//45
f 13//13 54//54 43//43
f 16//16 55//55 51//51
f 19//19 56//56 49//49
f 7//7 57//57 47//47
f 40//40 58//58 59//59
f 28//28 60//60 61//61
f 31//31 62//62 63//63
f 34//34 64//64 65//65
f 37//37 66//66 67//67
f 40//40 68//68 58//58
f 28//28 69//69 60//60
f 31//31 70//70 62//62
f 34//34 71//71 64//64
f 37//37 72//72 66//66
f 10//10 46//46 11//11
f 7//7 48//48 8//8
f 19//19 50//50 20//20
f 16//16 52//52 17//17
f 13//13 44//44 14//14
f 40//40 42//42 68//68
f 28//28 30//30 69//69
f 31//31 33//33 70//70
f 34//34 36//36 71//71
f 37//37 39//39 72//72
f 28//28 61//61 29//29
f 31//31 63//63 32//32
f 34//34 65//65 35//35
f 37//37 67//67 38//38
f 40//40 59//59 41//41
f 10//10 12//12 53//53
f 13//13 15//15 54//54
f 16//16 18//18 55//55
f 19//19 21//21 56//56
f 7//7 9//9 57//57
f 73//73 74//74 75//75
f 76//76 77//77 78//78
f 79//79 80//80 81//81
f 82//82 83//83 84//84
f 85//85 86//86 87//87
f 88//88 89//89 90//90
f 91//91 92//92 93//93
f 94//94 95//95 96//96
f 97//97 98//98 99//99
f 100//100 101//101 102//102
f 103//103 104//104 105//105
f 106//106 107//107 108//108
f 109//109 110//110 111//111
f 112//112 113//113 114//114
f 115//115 116//116 117//117
f 88//88 118//118 119//119
f 91//91 120//120 121//121
f 94//94 122//122 123//123
f 97//97 124//124 125//125
f 100//100 126//126 127//127
f 128//128 129//129 2//2
f 130//130 131//131 3//3
f 132//132 133//133 4//4
f 134//134 135//135 5//5
f 136//136 137//137 6//6
f 76//76 138//138 8//8
f 73//73 139//139 11//11
f 85//85 140//140 14//14
f 82//82 141//141 17//17
f 79//79 142//142 20//20
f 143//143 144//144 23//23
f 145//145 146//146 24//24
f 147//147 148//148 25//25
f 149//149 150//150 26//26
f 151//151 152//152 27//27
f 103//103 153//153 29//29
f 106//106 154//154 32//32
f 109//109 155//155 35//35
f 112//112 156//156 38//38
f 115//115 157//157 41//41
f 73//73 75//75 43//43
f 76//76 78//78 45//45
f 79//79 81//81 47//47
f 82//82 84//84 49//49
f 85//85 87//87 51//51
f 88//88 90//90 53//53
f 91//91 93//93 54//54
f 94//94 96//96 55//55
f 97//97 99//99 56//56
f 100//100 102//102 57//57
f 103//103 105//105 58//58
f 106//106 108//108 60//60
f 109//109 111//111 62//62
f 112//112 114//114 64//64
f 115//115 117//117 66//66
f 88//88 119//119 68//68
f 91//91 121//121 69//69
f 94//94 123//123 70//70
f 97//97 125//125 71//71
f 100//100 127//127 72//72
f 130//130 74//74 46//46
f 132//132 77//77 48//48
f 134//134 80//80 50//50
f 136//136 83//83 52//52
f 128//128 86//86 44//44
f 158//158 89//89 42//42
f 159//159 92//92 30//30
f 160//160 95//95 33//33
f 161//161 98//98 36//36
f 162//162 101//101 39//39
f 145//145 104//104 61//61
f 147//147 107//107 63//63
f 149//149 110//110 65//65
f 151//151 113//113 67//67
f 143//143 116//116 59//59
f 159//159 118//118 12//12
f 160//160 120//120 15//15
f 161//161 122//122 18//18
f 162//162 124//124 21//21
f 158//158 126//126 9//9
f 130//130 129//129 74//74
f 132//132 131//131 77//77
f 134//134 133//133 80//80
f 136//136 135//135 83//83
f 128//128 137//137 86//86
f 158//158 138//138 89//89
f 159//159 139//139 92//92
f 160//160 140//140 95//95
f 161//161 141//141 98//98
f 162//162 142//142 101//101
f 145//145 144//144 104//104
f 147//147 146//146 107//107
f 149//149 148//148 110//110
f 151//151 150//150 113//113
f 143//143 152//152 116//116
f 159//159 153//153 118//118
f 160//160 154//154 120//120
f 161//161 155//155 122//122
f 162//162 156//156 124//124
f 158//158 157//157 126//126
f 130//130 3//3 129//129
f 132//132 4//4 131//131
f 134//134 5//5 133//133
f 136//136 6//6 135//135
f 128//128 2//2 137//137
f 158//158 9//9 138//138
f 159//159 12//12 139//139
f 160//160 15//15 140//140
f 161//161 18//18 141//141
f 162//162 21//21 142//142
f 145//145 24//24 144//144
f 147//147 25//25 146//146
f 149//149 26//26 148//148
f 151//151 27//27 150//150
f 143//143 23//23 152//152
f 159//159 30//30 153//153
f 160//160 33//33 154//154
f 161//161 36//36 155//155
f 162//162 39//39 156//156
f 158//158 42//42 157//157
f 128//128 44//44 75//75
f 130//130 46//46 78//78
f 132//132 48//48 81//81
f 134//134 50//50 84//84
f 136//136 52//52 87//87
f 76//76 45//45 90//90
f 73//73 43//43 93//93
f 85//85 51//51 96//96
f 82//82 49//49 99//99
f 79//79 47//47 102//102
f 143//143 59//59 105//105
f 145//145 61//61 108//108
f 147//147 63//63 111//111
f 149//149 65//65 114//114
f 151//151 67//67 117//117
f 103//103 58//58 119//119
f 106//106 60//60 121//121
f 109//109 62//62 123//123
f 112//112 64//64 125//125
f 115//115 66//66 127//127
f 73//73 11//11 74//74
f 76//76 8//8 77//77
f 79//79 20//20 80//80
f 82//82 17//17 83//83
f 85//85 14//14 86//86
f 88//88 68//68 89//89
f 91//91 69//69 92//92
f 94//94 70//70 95//95
f 97//97 71//71 98//98
f 100//100 72//72 101//101
f 103//103 29//29 104//104
f 106//106 32//32 107//107
f 109//109 35//35 110//110
f 112//112 38//38 113//113
f 115//115 41//41 116//116
f 88//88 53//53 118//118
f 91//91 54//54 120//120
f 94//94 55//55 122//122
f 97//97 56//56 124//124
f 100//100 57//57 126//126
f 128//128 75//75 129//129
f 130//130 78//78 131//131
f 132//132 81//81 133//133
f 134//134 84//84 135//135
f 136//136 87//87 137//137
f 76//76 90//90 138//138
f 73//73 93//93 139//139
f 85//85 96//96 140//140
f 82//82 99//99 141//141
f 79//79 102//102 142//142
f 143//143 105//105 144//144
f 145//145 108//108 146//146
f 147//147 111//111 148//148
f 149//149 114//114 150//150
f 151//151 117//117 152//152
f 103//103 119//119 153//153
f 106//106 121//121 154//154
f 109//109 123//123 155//155
f 112//112 125//125 156//156
f 115//115 127//127 157//157
f 129//129 3//3 2//2
f 131//131 4//4 3//3
f 133//133 5//5 4//4
f 135//135 6//6 5//5
f 137//137 2//2 6//6
f 138//138 9//9 8//8
f 139//139 12//12 11//11
f 140//140 15//15 14//14
f 141//141 18//18 17//17
f 142//142 21//21 20//20
f 144//144 24//24 23//23
f 146//146 25//25 24//24
f 148//148 26//26 25//25
f 150//150 27//27 26//26
f 152//152 23//23 27//27
f 153//153 30//30 29//29
f 154//154 33//33 32//32
f 155//155 36//36 35//35
f 156//156 39//39 38//38
f 157//157 42//42 41//41
f 75//75 44//44 43//43
f 78//78 46//46 45//45
f 81//81 48//48 47//47
f 84//84 50//50 49//49
f 87//87 52//52 51//51
f 90//90 45//45 53//53
f 93//93 43//43 54//54
f 96//96 51//51 55//55
f 99//99 49//49 56//56
f 102//102 47//47 57//57
f 105//105 59//59 58//58
f 108//108 61//61 60//60
f 111//111 63//63 62//62
f 114//114 65//65 64//64
f 117//117 67//67 66//66
f 119//119 58//58 68//68
f 121//121 60//60 69//69
f 123//123 62//62 70//70
f 125//125 64//64 71//71
f 127//127 66//66 72//72
f 74//74 11//11 46//46
f 77//77 8//8 48//48
f 80//80 20//20 50//50
f 83//83 17//17 52//52
f 86//86 14//14 44//44
f 89//89 68//68 42//42
f 92//92 69//69 30//30
f 95//95 70//70 33//33
f 98//98 71//71 36//36
f 101//101 72//72 39//39
f 104//104 29//29 61//61
f 107//107 32//32 63//63
f 110//110 35//35 65//65
f 113//113 38//38 67//67
f 116//116 41//41 59//59
f 118//118 53//53 12//12
f 120//120 54//54 15//15
f 122//122 55//55 18//18
f 124//124 56//56 21//21
f 126//126 57//57 9//9
f 129//129 75//75 74//74
f 131//131 78//78 77//77
f 133//133 81//81 80//80
f 135//135 84//84 83//83
f 137//137 87//87 86//86
f 138//138 90//90 89//89
f 139//139 93//93 92//92
f 140//140 96//96 95//95
f 141//141 99//99 98//98
f 142//142 102//102 101//101
f 144//144 105//105 104//104
f 146//146 108//108 107//107
f 148//148 111//111 110//110
f 150//150 114//114 113//113
f 152//152 117//117 116//116
f 153//153 119//119 118//118
f 154//154 121//121 120//120
f 155//155 123//123 122//122
f 156//156 125//125 124//124
f 157//157 127//127 126//126
