# Created by Open3D 
# object name: part_029
# number of vertices: 162
# number of triangles: 320
v -0.324462 3.39941 0.363884
vn -0.0666055 0.0407847 0.996945
v -0.330435 3.37918 0.363949
vn -0.164195 0.0167902 0.986285
v -0.319793 3.37858 0.364806
vn -0.0365143 0.00961609 0.999287
v -0.310183 3.39947 0.364357
vn -0.000887266 0.0420793 0.999114
v -0.320433 3.4135 0.363334
vn -0.0380212 0.086904 0.995491
v -0.331045 3.41245 0.362547
vn -0.166429 0.0637968 0.983988
v 0.126211 3.40758 0.361903
vn 0.0738458 0.0433311 0.996328
v 0.122309 3.3866 0.362862
vn 0.0449248 0.0110935 0.998929
v 0.132915 3.38758 0.361912
vn 0.172146 0.0228868 0.984806
v -0.0987095 3.38031 0.361868
vn 0.0186499 -0.975512 0.219153
v -0.308722 3.37644 0.362022
vn 0.0171395 -0.989134 0.146013
v -0.0987144 3.37996 0.359311
vn 0.0183364 -0.99839 0.053674
v -0.335321 3.37523 0.322334
vn -0.19016 -0.980851 0.0420822
v -0.338267 3.37637 0.322297
vn -0.964137 -0.264999 0.0146849
v -0.335797 3.37399 0.284542
vn -0.327152 -0.944939 0.00786916
v -0.336008 3.4127 0.320755
vn -0.225954 0.973306 -0.0402538
v -0.33139 3.41483 0.356716
vn -0.105283 0.993782 -0.0362385
v -0.331652 3.41179 0.28471
vn -0.105326 0.993333 -0.0468527
v -0.145977 3.41878 0.360416
vn -0.0173582 0.990502 0.136398
v 0.100722 3.42293 0.360487
vn -0.0145404 0.932255 0.361509
v 0.110577 3.42343 0.358516
vn -0.0166342 0.997949 0.0618219
v 0.125902 3.40399 0.276835
vn 0.0666047 -0.0407847 -0.996946
v 0.132611 3.38405 0.278462
vn 0.164991 -0.0602152 -0.984455
v 0.121999 3.383 0.277675
vn 0.0376771 -0.0731171 -0.996611
v 0.111631 3.40349 0.276381
vn 0.00088733 -0.0420793 -0.999114
v 0.12136 3.41793 0.276204
vn 0.0363516 0.00421838 -0.99933
v 0.132002 3.41733 0.27706
vn 0.165501 -0.0131321 -0.986122
v -0.0990039 3.37689 0.280798
vn 0.0173583 -0.990505 -0.136379
v 0.111009 3.3807 0.280646
vn 0.019253 -0.99787 -0.0623291
v -0.0989902 3.37675 0.283376
vn 0.0182528 -0.999368 0.030501
v -0.324771 3.39582 0.278817
vn -0.0738472 -0.0433311 -0.996328
v -0.320103 3.37499 0.279619
vn -0.0437632 -0.0745948 -0.996253
v -0.330739 3.37565 0.2805
vn -0.171349 -0.0663122 -0.982976
v -0.146272 3.41536 0.279346
vn -0.0186499 0.975508 -0.219171
v -0.299862 3.41215 0.278897
vn -0.0191088 0.89605 -0.443542
v -0.309732 3.41245 0.280835
vn -0.0203922 0.988952 -0.146826
v 0.136888 3.42128 0.318676
vn 0.19016 0.980851 -0.0420823
v 0.132251 3.4202 0.282671
vn 0.0688393 0.996491 -0.0476204
v 0.132512 3.42324 0.354676
vn 0.068874 0.996939 -0.0370025
v 0.137574 3.38381 0.320254
vn 0.225954 -0.973306 0.0402537
v 0.140477 3.38505 0.320191
vn 0.973201 -0.229874 0.00616578
v 0.138036 3.38576 0.358016
vn 0.361499 -0.929656 0.0711146
v -0.330684 3.37631 0.358339
vn -0.0688394 -0.996491 0.0476204
v -0.335522 3.37718 0.360098
vn -0.326922 -0.942139 0.0741426
v 0.101429 3.38436 0.362112
vn 0.0190448 -0.897378 0.440852
v -0.298853 3.3771 0.363872
vn 0.0173723 -0.89741 0.440856
v 0.121669 3.42152 0.36139
vn 0.0435964 0.0883833 0.995132
v 0.111944 3.40712 0.362501
vn 0.00814502 0.0422431 0.999074
v -0.309443 3.41581 0.360363
vn -0.0196293 0.997811 0.063156
v -0.299559 3.41567 0.362247
vn -0.016166 0.930247 0.366577
v -0.33891 3.41146 0.320818
vn -0.944779 0.327545 -0.0103909
v -0.336195 3.41393 0.358549
vn -0.361266 0.93245 -0.00483836
v 0.111298 3.38405 0.360175
vn 0.0200095 -0.989077 0.146035
v -0.330946 3.37327 0.286334
vn -0.0688742 -0.996939 0.0370025
v -0.33647 3.41075 0.282994
vn -0.361499 0.929656 -0.0711147
v -0.146567 3.4189 0.357841
vn -0.0182528 0.999368 -0.0304961
v 0.132305 3.42086 0.36051
vn 0.172652 0.0699433 0.982496
v 0.132956 3.38168 0.284294
vn 0.105283 -0.993782 0.0362384
v 0.137762 3.38257 0.28246
vn 0.361267 -0.93245 0.00483821
v -0.299156 3.37358 0.280522
vn 0.0144489 -0.931343 -0.363857
v 0.101126 3.38084 0.278762
vn 0.0161216 -0.931321 -0.363842
v -0.320742 3.40991 0.278148
vn -0.0452655 0.00274027 -0.998971
v -0.310496 3.39583 0.278237
vn -0.00814508 -0.0422431 -0.999074
v 0.110288 3.42007 0.278988
vn -0.0173871 0.989205 -0.145501
v 0.10042 3.41941 0.277137
vn -0.0174465 0.898494 -0.438639
v 0.139834 3.42014 0.318713
vn 0.932157 0.361573 -0.0186442
v 0.137089 3.41933 0.280911
vn 0.326922 0.942139 -0.0741428
v 0.133218 3.38472 0.356299
vn 0.105326 -0.993333 0.0468526
v -0.30901 3.37308 0.282493
vn 0.0163825 -0.997922 -0.0623101
v -0.331348 3.40893 0.279097
vn -0.173583 -0.0192781 -0.984631
v -0.146843 3.4157 0.281906
vn -0.0183364 0.99839 -0.0536731
v 0.137363 3.42252 0.356467
vn 0.327152 0.944939 -0.00786903
v -0.32293 3.37625 0.360752
vn -0.0108046 -0.99812 0.0603368
v -0.319328 3.37674 0.363276
vn -0.0146668 -0.929192 0.369306
v -0.330214 3.37679 0.362006
vn -0.0874214 -0.953289 0.289132
v 0.114953 3.38527 0.362671
vn 0.0195857 -0.570076 0.821358
v 0.101628 3.38622 0.363371
vn 0.00512874 0.0102711 0.999934
v -0.0987191 3.38131 0.363828
vn 0.0138007 -0.560341 0.828147
v 0.11427 3.42256 0.3611
vn -0.00334943 0.636077 0.771619
v -0.143766 3.41798 0.362444
vn -0.00796679 0.628138 0.778061
v 0.100988 3.42118 0.361898
vn 0.00366615 0.0916423 0.995785
v -0.323647 3.41537 0.359104
vn -0.0473814 0.998593 -0.023792
v -0.330908 3.41468 0.36041
vn -0.122655 0.970387 0.2081
v -0.320033 3.41523 0.361654
vn -0.049187 0.955787 0.289916
v -0.339587 3.39757 0.321407
vn -0.999826 -0.0181267 0.0043965
v -0.337874 3.37886 0.360079
vn -0.992018 -0.0717384 0.103699
v -0.338484 3.41217 0.358675
vn -0.993801 0.0524839 0.0980042
v 0.125492 3.38438 0.35878
vn 0.0475203 -0.997062 0.0600806
v 0.132763 3.38518 0.35997
vn 0.124462 -0.949447 0.288202
v 0.121897 3.38474 0.361335
vn 0.051578 -0.927982 0.369039
v -0.323209 3.37301 0.283877
vn -0.0109476 -0.999651 0.0240493
v -0.309232 3.37304 0.286223
vn 0.0168285 -0.99907 0.0397025
v -0.324196 3.37451 0.322324
vn -0.0101608 -0.999058 0.0421968
v -0.334952 3.41005 0.280458
vn -0.447757 0.207429 -0.869763
v -0.335877 3.39587 0.280857
vn -0.468809 -0.0457521 -0.882114
v -0.338759 3.40898 0.283033
vn -0.994502 0.0443456 -0.0948681
v -0.146889 3.41738 0.319871
vn -0.0182958 0.998946 -0.0420893
v -0.309961 3.4128 0.284548
vn -0.0201516 0.998807 -0.0444823
v -0.309699 3.41584 0.356635
vn -0.0201343 0.99901 -0.039679
v 0.135868 3.42199 0.359054
vn 0.438531 0.29606 0.848551
v 0.132069 3.42307 0.358374
vn 0.0892193 0.974234 0.207141
v 0.128464 3.42248 0.360372
vn 0.090402 0.702881 0.70554
v 0.125213 3.38114 0.281906
vn 0.0473813 -0.998593 0.0237919
v 0.1216 3.38128 0.279355
vn 0.049187 -0.955787 -0.289916
v 0.132475 3.38183 0.2806
vn 0.122655 -0.970387 -0.2081
v -0.312704 3.37395 0.279909
vn 0.00253074 -0.637471 -0.77047
v -0.299422 3.37533 0.279111
vn -0.00396068 -0.0740441 -0.997247
v -0.0990281 3.37772 0.27876
vn 0.00796679 -0.628138 -0.778061
v -0.313387 3.41124 0.278338
vn -0.0208308 0.572154 -0.819881
v -0.144075 3.41439 0.277377
vn -0.0138007 0.560341 -0.828147
v -0.300062 3.41029 0.277638
vn -0.00538428 0.00153108 -0.999984
v 0.124497 3.42026 0.280257
vn 0.0108046 0.99812 -0.0603368
v 0.131781 3.41972 0.279003
vn 0.0874215 0.953289 -0.289132
v 0.120895 3.41977 0.277734
vn 0.0146668 0.929192 -0.369306
v 0.141019 3.40628 0.319293
vn 0.999826 0.0181266 -0.00439655
v 0.140051 3.38433 0.282334
vn 0.994136 -0.0438948 -0.098827
v 0.13944 3.41765 0.28093
vn 0.991368 0.0803482 -0.1036
v 0.111527 3.38371 0.356461
vn 0.0197635 -0.998815 0.0444772
v 0.126482 3.38268 0.320342
vn 0.0467431 -0.998026 0.0419461
v -0.330503 3.37344 0.282636
vn -0.0892193 -0.974234 -0.207141
v -0.319626 3.37328 0.281296
vn -0.0170576 -0.956983 -0.289642
v -0.331197 3.41133 0.281039
vn -0.124462 0.949447 -0.288202
v -0.32757 3.41071 0.279092
vn -0.114949 0.637303 -0.761992
v 0.110799 3.42347 0.354786
vn -0.0170814 0.999065 -0.0397065
v 0.110537 3.42042 0.282699
vn -0.0170989 0.998864 -0.0444838
v 0.137311 3.40786 0.359848
vn 0.468809 0.0457522 0.882114
v 0.139715 3.42084 0.356572
vn 0.992069 0.0884874 0.0892714
v -0.334008 3.37793 0.36262
vn -0.443834 -0.152183 0.883092
v -0.326596 3.37754 0.363921
vn -0.0850718 -0.64093 0.76287
v -0.312396 3.37753 0.36455
vn 0.00831262 -0.570285 0.821405
v -0.299109 3.37896 0.365133
vn 0.0032935 0.0102366 0.999942
v -0.099127 3.40375 0.363577
vn 0.00362897 0.0421616 0.999104
v -0.299749 3.41392 0.36366
vn 0.00186659 0.0857748 0.996313
v -0.313079 3.41481 0.36298
vn -0.0150602 0.639214 0.768881
v -0.327267 3.41422 0.362376
vn -0.109617 0.699261 0.706412
v -0.334659 3.41346 0.361123
vn -0.441502 0.280104 0.852419
v -0.335582 3.39929 0.361928
vn -0.46239 0.0288702 0.886207
v 0.129136 3.3858 0.361917
vn 0.114949 -0.637303 0.761992
v -0.308971 3.37608 0.35831
vn 0.0168461 -0.998868 0.04449
v -0.338149 3.37566 0.284437
vn -0.992722 -0.0799165 -0.0900897
v -0.324916 3.41383 0.320667
vn -0.0467432 0.998026 -0.0419461
v 0.121192 3.42323 0.359714
vn 0.0170576 0.956983 0.289642
v 0.136225 3.38305 0.279886
vn 0.450461 -0.209573 -0.86785
v 0.128834 3.38229 0.278634
vn 0.109617 -0.699261 -0.706412
v 0.114646 3.3817 0.27803
vn 0.0138039 -0.637268 -0.770518
v 0.101316 3.38259 0.277349
vn -0.00212538 -0.0740101 -0.997255
v -0.099441 3.4001 0.277123
vn -0.00362889 -0.0421616 -0.999104
v 0.100676 3.41755 0.275876
vn -0.00358279 0.00742191 -0.999966
v 0.113963 3.41898 0.276459
vn -0.00913908 0.568799 -0.822426
v 0.128162 3.41897 0.277088
vn 0.0850718 0.64093 -0.76287
v 0.135575 3.41858 0.278389
vn 0.432279 0.223389 -0.873632
v 0.137016 3.40444 0.278777
vn 0.46239 -0.0288703 -0.886207
v 0.111265 3.38067 0.284374
vn 0.0197462 -0.999017 0.0396876
v -0.326898 3.37402 0.280638
vn -0.0904018 -0.702881 -0.705539
v -0.320331 3.41177 0.279674
vn -0.051578 0.927982 -0.369038
v 0.125762 3.422 0.318685
vn 0.0101608 0.999058 -0.0421968
v 0.140325 3.38753 0.357976
vn 0.99484 -0.0357171 0.0949626
v 0.136518 3.38646 0.360551
vn 0.456806 -0.135851 0.879132
v -0.0988508 3.37828 0.321346
vn 0.0182958 -0.998946 0.0420892
v -0.334301 3.37452 0.281955
vn -0.450177 -0.225903 -0.863891
v -0.323926 3.41213 0.282229
vn -0.0475204 0.997062 -0.0600806
v 0.124776 3.4235 0.357132
vn 0.0109476 0.999651 -0.0240493
f 1//1 2//2 3//3
f 1//1 3//3 4//4
f 1//1 4//4 5//5
f 1//1 5//5 6//6
f 1//1 6//6 2//2
f 7//7 8//8 9//9
f 10//10 11//11 12//12
f 13//13 14//14 15//15
f 16//16 17//17 18//18
f 19//19 20//20 21//21
f 22//22 23//23 24//24
f 22//22 24//24 25//25
f 22//22 25//25 26//26
f 22//22 26//26 27//27
f 22//22 27//27 23//23
f 28//28 29//29 30//30
f 31//31 32//32 33//33
f 34//34 35//35 36//36
f 37//37 38//38 39//39
f 40//40 41//41 42//42
f 13//13 43//43 44//44
f 10//10 45//45 46//46
f 7//7 47//47 48//48
f 19//19 49//49 50//50
f 16//16 51//51 52//52
f 10//10 53//53 45//45
f 13//13 54//54 43//43
f 16//16 55//55 51//51
f 19//19 56//56 49//49
f 7//7 57//57 47//47
f 40//40 58//58 59//59
f 28//28 60//60 61//61
f 31//31 62//62 63//63
f 34//34 64//64 65//65
f 37//37 66//66 67//67
f 40//40 68//68 58//58
f 28//28 69//69 60//60
f 31//31 70//70 62//62
f 34//34 71//71 64//64
f 37//37 72//72 66//66
f 10//10 46//46 11//11
f 7//7 48//48 8//8
f 19//19 50//50 20//20
f 16//16 52//52 17//17
f 13//13 44//44 14//14
f 40//40 42//42 68//68
f 28//28 30//30 69//69
f 31//31 33//33 70//70
f 34//34 36//36 71//71
f 37//37 39//39 72//72
f 28//28 61//61 29//29
f 31//31 63//63 32//32
f 34//34 65//65 35//35
f 37//37 67//67 38//38
f 40//40 59//59 41//41
f 10//10 12//12 53//53
f 13//13 15//15 54//54
f 16//16 18//18 55//55
f 19//19 21//21 56//56
f 7//7 9//9 57//57
f 73//73 74//74 75//75
f 76//76 77//77 78//78
f 79//79 80//80 81//81
f 82//82 83//83 84//84
f 85//85 86//86 87//87
f 88//88 89//89 90//90
f 91//91 92//92 93//93
f 94//94 95//95 96//96
f 97//97 98//98 99//99
f 100//100 101//101 102//102
f 103//103 104//104 105//105
f 106//106 107//107 108//108
f 109//109 110//110 111//111
f 112//112 113//113 114//114
f 115//115 116//116 117//117
f 88//88 118//118 119//119
f 91//91 120//120 121//121
f 94//94 122//122 123//123
f 97//97 124//124 125//125
f 100//100 126//126 127//127
f 128//128 129//129 2//2
f 130//130 131//131 3//3
f 132//132 133//133 4//4
f 134//134 135//135 5//5
f 136//136 137//137 6//6
f 76//76 138//138 8//8
f 73//73 139//139 11//11
f 85//85 140//140 14//14
f 82//82 141//141 17//17
f 79//79 142//142 20//20
f 143//143 144//144 23//23
f 145//145 146//146 24//24
f 147//147 148//148 25//25
f 149//149 150//150 26//26
f 151//151 152//152 27//27
f 103//103 153//153 29//29
f 106//106 154//154 32//32
f 109//109 155//155 35//35
f 112//112 156//156 38//38
f 115//115 157//157 41//41
f 73//73 75//75 43//43
f 76//76 78//78 45//45
f 79//79 81//81 47//47
f 82//82 84//84 49//49
f 85//85 87//87 51//51
f 88//88 90//90 53//53
f 91//91 93//93 54//54
f 94//94 96//96 55//55
f 97//97 99//99 56//56
f 100//100 102//102 57//57
f 103//103 105//105 58//58
f 106//106 108//108 60//60
f 109//109 111//111 62//62
f 112//112 114//114 64//64
f 115//115 117//117 66//66
f 88//88 119//119 68//68
f 91//91 121//121 69//69
f 94//94 123//123 70//70
f 97//97 125//125 71//71
f 100//100 127//127 72//72
f 130//130 74//74 46//46
f 132//132 77//77 48//48
f 134//134 80//80 50//50
f 136//136 83//83 52//52
f 128//128 86//86 44//44
f 158//158 89//89 42//42
f 159//159 92//92 30//30
f 160//160 95//95 33//33
f 161//161 98//98 36//36
f 162//162 101//101 39//39
f 145//145 104//104 61//61
f 147//147 107//107 63//63
f 149//149 110//110 65//65
f 151//151 113//113 67//67
f 143//143 116//116 59//59
f 159//159 118//118 12//12
f 160//160 120//120 15//15
f 161//161 122//122 18//18
f 162//162 124//124 21//21
f 158//158 126//126 9//9
f 130//130 129//129 74//74
f 132//132 131//131 77//77
f 134//134 133//133 80//80
f 136//136 135//135 83//83
f 128//128 137//137 86//86
f 158//158 138//138 89//89
f 159//159 139//139 92//92
f 160//160 140//140 95//95
f 161//161 141//141 98//98
f 162//162 142//142 101//101
f 145//145 144//144 104//104
f 147//147 146//146 107//107
f 149//149 148//148 110//110
f 151//151 150//150 113//113
f 143//143 152//152 116//116
f 159//159 153//153 118//118
f 160//160 154//154 120//120
f 161//161 155//155 122//122
f 162//162 156//156 124//124
f 158//158 157//157 126//126
f 130//130 3//3 129//129
f 132//132 4//4 131//131
f 134//134 5//5 133//133
f 136//136 6//6 135//135
f 128//128 2//2 137//137
f 158//158 9//9 138//138
f 159//159 12//12 139//139
f 160//160 15//15 140//140
f 161//161 18//18 141//141
f 162//162 21//21 142//142
f 145//145 24//24 144//144
f 147//147 25//25 146//146
f 149//149 26//26 148//148
f 151//151 27//27 150//150
f 143//143 23//23 152//152
f 159//159 30//30 153//153
f 160//160 33//33 154//154
f 161//161 36//36 155//155
f 162//162 39//39 156//156
f 158//158 42//42 157//157
f 128//128 44//44 75//75
f 130//130 46//46 78//78
f 132//132 48//48 81//81
f 134//134 50//50 84//84
f 136//136 52//52 87//87
f 76//76 45//45 90//90
f 73//73 43//43 93//93
f 85//85 51//51 96//96
f 82//82 49//49 99//99
f 79//79 47//47 102//102
f 143//143 59//59 105//105
f 145//145 61//61 108//108
f 147//147 63//63 111//111
f 149//149 65//65 114//114
f 151//151 67//67 117//117
f 103//103 58//58 119//119
f 106//106 60//60 121//121
f 109//109 62//62 123//123
f 112//112 64//64 125//125
f 115//115 66//66 127//127
f 73//73 11//11 74//74
f 76//76 8//8 77//77
f 79//79 20//20 80//80
f 82//82 17//17 83//83
f 85//85 14//14 86//86
f 88//88 68//68 89//89
f 91//91 69//69 92//92
f 94//94 70//70 95//95
f 97//97 71//71 98//98
f 100//100 72//72 101//101
f 103//103 29//29 104//104
f 106//106 32//32 107//107
f 109//109 35//35 110//110
f 112//112 38//38 113//113
f 115//115 41//41 116//116
f 88//88 53//53 118//118
f 91//91 54//54 120//120
f 94//94 55//55 122//122
f 97//97 56//56 124//124
f 100//100 57//57 126//126
f 128//128 75//75 129//129
f 130//130 78//78 131//131
f 132//132 81//81 133//133
f 134//134 84//84 135//135
f 136//136 87//87 137//137
f 76//76 90//90 138//138
f 73//73 93//93 139//139
f 85//85 96//96 140//140
f 82//82 99//99 141//141
f 79//79 102//102 142//142
f 143//143 105//105 144//144
f 145//145 108//108 146//146
f 147//147 111//111 148//148
f 149//149 114//114 150//150
f 151//151 117//117 152//152
f 103//103 119//119 153//153
f 106//106 121//121 154//154
f 109//109 123//123 155//155
f 112//112 125//125 156//156
f 115//115 127//127 157//157
f 129//129 3//3 2//2
f 131//131 4//4 3//3
f 133//133 5//5 4//4
f 135//135 6//6 5//5
f 137//137 2//2 6//6
f 138//138 9//9 8//8
f 139//139 12//12 11//11
f 140//140 15//15 14//14
f 141//141 18//18 17//17
f 142//142 21//21 20//20
f 144//144 24//24 23//23
f 146//146 25//25 24//24
f 148//148 26//26 25//25
f 150//150 27//27 26//26
f 152//152 23//23 27//27
f 153//153 30//30 29//29
f 154//154 33//33 32//32
f 155//155 36//36 35//35
f 156//156 39//39 38//38
f 157//157 42//42 41//41
f 75//75 44//44 43//43
f 78//78 46//46 45//45
f 81//81 48//48 47//47
f 84//84 50//50 49//49
f 87//87 52//52 51//51
f 90//90 45//45 53//53
f 93//93 43//43 54//54
f 96//96 51//51 55//55
f 99//99 49//49 56//56
f 102//102 47//47 57//57
f 105//105 59//59 58//58
f 108//108 61//61 60//60
f 111//111 63//63 62//62
f 114//114 65//65 64//64
f 117//117 67//67 66//66
f 119//119 58//58 68//68
f 121//121 60//60 69//69
f 123//123 62//62 70//70
f 125//125 64//64 71//71
f 127//127 66//66 72//72
f 74//74 11//11 46//46
f 77//77 8//8 48//48
f 80//80 20//20 50//50
f 83//83 17//17 52//52
f 86//86 14//14 44//44
f 89//89 68//68 42//42
f 92//92 69//69 30//30
f 95//95 70//70 33//33
f 98//98 71//71 36//36
f 101//101 72//72 39//39
f 104//104 29//29 61//61
f 107//107 32//32 63//63
f 110//110 35//35 65//65
f 113//113 38//38 67//67
f 116//116 41//41 59//59
f 118//118 53//53 12//12
f 120//120 54//54 15//15
f 122//122 55//55 18//18
f 124//124 56//56 21//21
f 126//126 57//57 9//9
f 129//129 75//75 74//74
f 131//131 78//78 77//77
f 133//133 81//81 80//80
f 135//135 84//84 83//83
f 137//137 87//87 86//86
f 138//138 90//90 89//89
f 139//139 93//93 92//92
f 140//140 96//96 95//95
f 141//141 99//99 98//98
f 142//142 102//102 101//101
f 144//144 105//105 104//104
f 146//146 108//108 107//107
f 148//148 111//111 110//110
f 150//150 114//114 113//113
f 152//152 117//117 116//116
f 153//153 119//119 118//118
f 154//154 121//121 120//120
f 155//155 123//123 122//122
f 156//156 125//125 124//124
f 157//157 127//127 126//126
