# Created by Open3D 
# object name: part_014
# number of vertices: 162
# number of triangles: 320
v 0.447974 4.14144 0.40407
vn -0.997921 -0.0329694 0.0553769
v 0.451286 4.13242 0.424385
vn -0.929206 -0.331924 0.16249
v 0.450148 4.14828 0.424659
vn -0.973104 0.0787528 0.216485
v 0.449746 4.16195 0.403404
vn -0.977344 0.20681 0.0450301
v 0.448257 4.14694 0.389779
vn -0.980756 0.0618844 -0.185169
v 0.449484 4.13114 0.391143
vn -0.937872 -0.343157 -0.0513804
v 0.590402 4.76867 0.372202
vn -0.884879 0.46485 0.0300808
v 0.589868 4.76358 0.393397
vn -0.907096 0.369442 0.201717
v 0.597721 4.7773 0.39162
vn -0.691746 0.713812 0.109358
v 0.530887 4.45355 0.410735
vn 0.0212654 0.0459135 0.998719
v 0.468548 4.16034 0.42543
vn 0.034838 0.0417844 0.998519
v 0.544322 4.45048 0.410369
vn 0.0519948 0.0388935 0.99789
v 0.668005 4.07583 0.416914
vn 0.0209362 -0.105461 0.994203
v 0.667017 4.07171 0.415936
vn -0.189181 -0.901684 0.388814
v 0.865362 4.03006 0.407618
vn 0.00360282 -0.20649 0.978442
v 0.665976 4.07439 0.379488
vn -0.0860863 -0.181449 -0.979625
v 0.479167 4.1238 0.387186
vn -0.0684749 -0.0976077 -0.992867
v 0.85557 4.03746 0.370101
vn -0.0665419 -0.0980499 -0.992954
v 0.514047 4.38725 0.374755
vn -0.0868763 -0.0308636 -0.995741
v 0.586069 4.73197 0.357955
vn -0.132863 -0.0195739 -0.990941
v 0.599157 4.7434 0.356403
vn -0.072839 -0.0332472 -0.996789
v 1.03509 4.66667 0.352018
vn 0.997921 0.0329673 -0.0553769
v 1.03395 4.67723 0.37182
vn 0.939929 0.339539 0.0352997
v 1.03518 4.66144 0.373184
vn 0.991108 -0.0659722 0.115556
v 1.03334 4.64618 0.35312
vn 0.977344 -0.20681 -0.0450301
v 1.03328 4.6601 0.338304
vn 0.955281 -0.0799713 -0.284682
v 1.03215 4.67596 0.338578
vn 0.925406 0.334313 -0.178489
v 0.954675 4.35634 0.391499
vn 0.0868762 0.0308636 0.995741
v 1.01702 4.64955 0.37686
vn 0.0733428 0.035022 0.996692
v 0.941266 4.35943 0.392351
vn 0.0562064 0.0379274 0.997699
v 0.892658 4.03944 0.383886
vn 0.88488 -0.464847 -0.0300809
v 0.895456 4.04614 0.404446
vn 0.9251 -0.356659 0.130325
v 0.887514 4.03236 0.404584
vn 0.702467 -0.706201 0.0884325
v 0.937835 4.29005 0.355519
vn -0.0212657 -0.0459134 -0.998719
v 0.895274 4.07493 0.366483
vn 0.0261739 -0.0573647 -0.99801
v 0.882144 4.06347 0.367233
vn -0.0351989 -0.0440462 -0.998409
v 0.815428 4.73255 0.346049
vn -0.0209362 0.105461 -0.994203
v 1.00218 4.6831 0.337298
vn -0.0395246 0.0209293 -0.998999
v 0.625777 4.76944 0.354383
vn -0.0414576 0.0213726 -0.998912
v 0.817457 4.73399 0.383475
vn 0.0860862 0.181449 0.979625
v 0.818317 4.73801 0.382083
vn 0.226304 0.928037 0.29586
v 0.620061 4.77974 0.392059
vn 0.101195 0.280892 0.95439
v 0.481254 4.12528 0.425665
vn 0.0395246 -0.0209293 0.998999
v 0.4704 4.12065 0.425546
vn -0.00882961 -0.203638 0.979006
v 0.588158 4.73345 0.39648
vn -0.0255475 0.0571634 0.998038
v 0.461655 4.17635 0.424785
vn -0.0258284 0.0559214 0.998101
v 0.587977 4.76224 0.358517
vn -0.915523 0.349158 -0.199766
v 0.583153 4.74945 0.373554
vn -0.969844 0.239838 0.0433517
v 0.466416 4.15883 0.386103
vn -0.0735481 -0.0352497 -0.996669
v 0.459566 4.17487 0.38626
vn -0.134315 -0.0205517 -0.990726
v 0.665116 4.07036 0.38088
vn -0.220969 -0.880212 -0.419999
v 0.468409 4.11924 0.388831
vn -0.113628 -0.278046 -0.953823
v 0.601289 4.74491 0.39573
vn 0.0352858 0.0437516 0.998419
v 0.857656 4.03894 0.40858
vn 0.0414576 -0.0213726 0.998912
v 0.863372 4.02864 0.370904
vn -0.101195 -0.280892 -0.95439
v 0.527274 4.38337 0.373944
vn -0.0562063 -0.0379274 -0.997699
v 0.595919 4.77602 0.358379
vn -0.699407 0.707008 -0.104739
v 1.00427 4.68458 0.375777
vn 0.0684749 0.0976077 0.992867
v 1.01502 4.68914 0.374132
vn 0.113628 0.278046 0.953823
v 0.897363 4.07641 0.405008
vn 0.133388 0.0194002 0.990874
v 1.02387 4.63351 0.376703
vn 0.133671 0.0206417 0.990811
v 0.893565 4.04479 0.369566
vn 0.890049 -0.367243 -0.270086
v 0.89993 4.05868 0.38297
vn 0.969844 -0.239838 -0.0433517
v 1.01488 4.64804 0.337533
vn -0.0349728 -0.0419331 -0.998508
v 1.02178 4.63203 0.338178
vn 0.0252793 -0.0558487 -0.998119
v 0.816416 4.73666 0.347027
vn 0.170671 0.844501 -0.507632
v 1.01303 4.68773 0.337417
vn 0.00882959 0.203638 -0.979006
v 0.627863 4.77092 0.392862
vn 0.0665419 0.0980499 0.992954
v 0.884276 4.06498 0.40656
vn 0.0728957 0.0330546 0.996792
v 0.885712 4.03108 0.371343
vn 0.686937 -0.715864 -0.12513
v 0.924218 4.29231 0.355926
vn -0.0519949 -0.0388935 -0.99789
v 0.61807 4.77832 0.355345
vn -0.00360282 0.20649 -0.978442
v 0.470989 4.13898 0.425994
vn 0.0462739 0.0192672 0.998743
v 0.458765 4.14704 0.426031
vn -0.0147553 0.0289577 0.999472
v 0.462132 4.13032 0.42619
vn -0.00972798 -0.0257658 0.999621
v 0.589026 4.75304 0.395033
vn -0.178425 0.0967745 0.979183
v 0.581151 4.7353 0.394979
vn -0.949863 0.229943 0.211863
v 0.52039 4.45591 0.410287
vn -0.185418 0.0918117 0.978361
v 0.587007 4.7516 0.357794
vn -0.284516 0.0214523 -0.958431
v 0.504341 4.39273 0.375997
vn -0.290342 0.0173186 -0.956766
v 0.579257 4.73396 0.360058
vn -0.954117 0.209315 -0.21412
v 0.468871 4.13748 0.386919
vn -0.0619039 -0.0575361 -0.996422
v 0.46008 4.12887 0.388344
vn -0.117486 -0.102271 -0.987794
v 0.45668 4.14556 0.387583
vn -0.122697 -0.0476765 -0.991298
v 0.665573 4.0696 0.394808
vn -0.221167 -0.97398 0.0494831
v 0.469348 4.11741 0.424002
vn -0.241066 -0.96133 0.133161
v 0.467544 4.11613 0.390723
vn -0.250323 -0.967135 -0.0445874
v 0.612707 4.76308 0.394285
vn 0.0553078 0.0590491 0.996722
v 0.608449 4.77468 0.393452
vn 0.0242063 0.123667 0.992028
v 0.598208 4.76112 0.394831
vn -0.0039095 0.0767181 0.997045
v 0.872845 4.0468 0.407753
vn 0.0528708 0.0177553 0.998444
v 0.864762 4.06912 0.407652
vn 0.05431 0.0373159 0.997827
v 0.671566 4.09133 0.417051
vn 0.0496843 0.0190005 0.998584
v 0.877238 4.02771 0.370803
vn 0.174055 -0.80519 -0.566898
v 0.878691 4.02637 0.384976
vn 0.242442 -0.969864 0.0241953
v 0.862956 4.02543 0.372775
vn -0.200153 -0.978643 -0.0468627
v 0.725684 4.33758 0.364871
vn -0.0541008 -0.0384106 -0.997796
v 0.862609 4.06759 0.36794
vn -0.0539503 -0.0397698 -0.997751
v 0.485778 4.15403 0.385045
vn -0.054823 -0.0395696 -0.997712
v 0.60427 4.7793 0.356671
vn -0.237585 0.76008 -0.60484
v 0.606397 4.77322 0.355606
vn -0.0835518 0.0471625 -0.995387
v 0.595058 4.77055 0.356928
vn -0.224081 0.106113 -0.968777
v 1.01456 4.6709 0.376044
vn 0.061904 0.0575363 0.996422
v 1.02675 4.66282 0.37538
vn 0.122697 0.0476765 0.991298
v 1.02335 4.67951 0.374619
vn 0.117486 0.102271 0.987794
v 0.896425 4.05677 0.405169
vn 0.2835 -0.0221748 0.958716
v 0.904175 4.07442 0.402905
vn 0.968132 -0.216973 0.12507
v 0.965072 4.35391 0.390103
vn 0.290342 -0.0173186 0.956766
v 0.894406 4.05534 0.36793
vn 0.176947 -0.0978245 -0.979347
v 0.949023 4.29073 0.355813
vn 0.185418 -0.0918117 -0.978361
v 0.902282 4.07308 0.367985
vn 0.934832 -0.229641 -0.27084
v 1.01244 4.6694 0.336969
vn -0.0462739 -0.0192672 -0.998743
v 1.0213 4.67805 0.336773
vn 0.00972792 0.0257658 -0.999621
v 1.02467 4.66134 0.336932
vn 0.0147553 -0.0289577 -0.999472
v 0.817462 4.73849 0.360824
vn 0.221167 0.97398 -0.0494831
v 1.01589 4.69225 0.37224
vn 0.250036 0.967698 0.0322832
v 1.01408 4.69097 0.338961
vn 0.240026 0.959823 -0.145351
v 0.620824 4.74079 0.395023
vn 0.0538916 0.0395052 0.997765
v 0.813996 4.71856 0.385183
vn 0.0584956 0.0578046 0.996613
v 0.877035 4.03515 0.407357
vn 0.0835518 -0.0471625 0.995387
v 0.88731 4.04874 0.40658
vn 0.11185 -8.17578e-05 0.993725
v 0.874983 4.0337 0.369511
vn -0.0242063 -0.123667 -0.992028
v 0.886388 4.03642 0.369393
vn 0.118611 -0.180985 -0.976307
v 0.61867 4.73926 0.355311
vn -0.0543483 -0.0374888 -0.997818
v 0.995501 4.65282 0.338206
vn -0.0534799 -0.037688 -0.997857
v 0.60435 4.78173 0.370773
vn -0.242442 0.969864 -0.0241953
v 0.618672 4.78167 0.356909
vn 0.189853 0.971331 -0.143081
v 0.457491 4.1258 0.425432
vn -0.548777 -0.661828 0.510712
v 0.453017 4.13769 0.425796
vn -0.163607 -0.0171813 0.986376
v 0.453969 4.15827 0.425252
vn -0.181229 0.0844253 0.97981
v 0.454504 4.17757 0.423315
vn -0.951366 0.223324 0.212199
v 0.515551 4.45588 0.388073
vn -0.973734 0.223356 0.0441973
v 0.45261 4.17622 0.388395
vn -0.961107 0.205252 -0.184783
v 0.45195 4.15683 0.388013
vn -0.285451 0.00824039 -0.958358
v 0.45103 4.13628 0.389154
vn -0.269078 -0.0920569 -0.958709
v 0.455567 4.12444 0.389943
vn -0.555045 -0.637956 -0.533795
v 0.454899 4.12358 0.404212
vn -0.637087 -0.768121 0.0641109
v 0.597044 4.77196 0.39357
vn -0.118611 0.180985 0.976307
v 0.487931 4.15556 0.424757
vn 0.0534398 0.0375155 0.997866
v 0.864761 4.02671 0.406054
vn -0.190625 -0.972899 0.130878
v 0.669437 4.08981 0.37778
vn -0.0584956 -0.0578045 -0.996613
v 0.596123 4.75964 0.356383
vn -0.11185 8.17578e-05 -0.993725
v 1.02787 4.68394 0.37302
vn 0.597957 0.696746 0.396223
v 1.0324 4.6721 0.373809
vn 0.269077 0.0920567 0.958709
v 1.03148 4.65155 0.37495
vn 0.286305 -0.00982559 0.958088
v 1.03082 4.63215 0.374568
vn 0.969635 -0.210354 0.124734
v 0.967485 4.35222 0.367559
vn 0.973734 -0.223356 -0.0441972
v 1.02893 4.63081 0.339648
vn 0.927809 -0.222363 -0.299541
v 1.02946 4.65011 0.337711
vn 0.181851 -0.0855235 -0.9796
v 1.03042 4.67069 0.337167
vn 0.163607 0.0171813 -0.986376
v 1.02594 4.68258 0.337531
vn 0.491504 0.592842 -0.637936
v 1.02814 4.68452 0.351537
vn 0.637086 0.768122 -0.0641109
v 0.997654 4.65435 0.377918
vn 0.0547617 0.0393056 0.997726
v 0.888375 4.03783 0.406035
vn 0.224081 -0.106113 0.968777
v 0.885225 4.04726 0.368132
vn 0.0039095 -0.0767181 -0.997045
v 0.811867 4.71705 0.345912
vn -0.0496843 -0.0190005 -0.998584
v 0.620476 4.78295 0.390188
vn 0.199596 0.979268 0.0345712
v 0.606194 4.78067 0.39216
vn -0.19879 0.879497 0.432396
v 0.742798 4.40496 0.401437
vn 0.0541008 0.0384106 0.997796
v 0.879162 4.02908 0.406292
vn 0.247963 -0.844585 0.474543
v 0.870726 4.0453 0.368678
vn -0.0553078 -0.0590491 -0.996722
v 0.610588 4.76158 0.35521
vn -0.0528708 -0.0177553 -0.998444
f 1//1 2//2 3//3
f 1//1 3//3 4//4
f 1//1 4//4 5//5
f 1//1 5//5 6//6
f 1//1 6//6 2//2
f 7//7 8//8 9//9
f 10//10 11//11 12//12
f 13//13 14//14 15//15
f 16//16 17//17 18//18
f 19//19 20//20 21//21
f 22//22 23//23 24//24
f 22//22 24//24 25//25
f 22//22 25//25 26//26
f 22//22 26//26 27//27
f 22//22 27//27 23//23
f 28//28 29//29 30//30
f 31//31 32//32 33//33
f 34//34 35//35 36//36
f 37//37 38//38 39//39
f 40//40 41//41 42//42
f 13//13 43//43 44//44
f 10//10 45//45 46//46
f 7//7 47//47 48//48
f 19//19 49//49 50//50
f 16//16 51//51 52//52
f 10//10 53//53 45//45
f 13//13 54//54 43//43
f 16//16 55//55 51//51
f 19//19 56//56 49//49
f 7//7 57//57 47//47
f 40//40 58//58 59//59
f 28//28 60//60 61//61
f 31//31 62//62 63//63
f 34//34 64//64 65//65
f 37//37 66//66 67//67
f 40//40 68//68 58//58
f 28//28 69//69 60//60
f 31//31 70//70 62//62
f 34//34 71//71 64//64
f 37//37 72//72 66//66
f 10//10 46//46 11//11
f 7//7 48//48 8//8
f 19//19 50//50 20//20
f 16//16 52//52 17//17
f 13//13 44//44 14//14
f 40//40 42//42 68//68
f 28//28 30//30 69//69
f 31//31 33//33 70//70
f 34//34 36//36 71//71
f 37//37 39//39 72//72
f 28//28 61//61 29//29
f 31//31 63//63 32//32
f 34//34 65//65 35//35
f 37//37 67//67 38//38
f 40//40 59//59 41//41
f 10//10 12//12 53//53
f 13//13 15//15 54//54
f 16//16 18//18 55//55
f 19//19 21//21 56//56
f 7//7 9//9 57//57
f 73//73 74//74 75//75
f 76//76 77//77 78//78
f 79//79 80//80 81//81
f 82//82 83//83 84//84
f 85//85 86//86 87//87
f 88//88 89//89 90//90
f 91//91 92//92 93//93
f 94//94 95//95 96//96
f 97//97 98//98 99//99
f 100//100 101//101 102//102
f 103//103 104//104 105//105
f 106//106 107//107 108//108
f 109//109 110//110 111//111
f 112//112 113//113 114//114
f 115//115 116//116 117//117
f 88//88 118//118 119//119
f 91//91 120//120 121//121
f 94//94 122//122 123//123
f 97//97 124//124 125//125
f 100//100 126//126 127//127
f 128//128 129//129 2//2
f 130//130 131//131 3//3
f 132//132 133//133 4//4
f 134//134 135//135 5//5
f 136//136 137//137 6//6
f 76//76 138//138 8//8
f 73//73 139//139 11//11
f 85//85 140//140 14//14
f 82//82 141//141 17//17
f 79//79 142//142 20//20
f 143//143 144//144 23//23
f 145//145 146//146 24//24
f 147//147 148//148 25//25
f 149//149 150//150 26//26
f 151//151 152//152 27//27
f 103//103 153//153 29//29
f 106//106 154//154 32//32
f 109//109 155//155 35//35
f 112//112 156//156 38//38
f 115//115 157//157 41//41
f 73//73 75//75 43//43
f 76//76 78//78 45//45
f 79//79 81//81 47//47
f 82//82 84//84 49//49
f 85//85 87//87 51//51
f 88//88 90//90 53//53
f 91//91 93//93 54//54
f 94//94 96//96 55//55
f 97//97 99//99 56//56
f 100//100 102//102 57//57
f 103//103 105//105 58//58
f 106//106 108//108 60//60
f 109//109 111//111 62//62
f 112//112 114//114 64//64
f 115//115 117//117 66//66
f 88//88 119//119 68//68
f 91//91 121//121 69//69
f 94//94 123//123 70//70
f 97//97 125//125 71//71
f 100//100 127//127 72//72
f 130//130 74//74 46//46
f 132//132 77//77 48//48
f 134//134 80//80 50//50
f 136//136 83//83 52//52
f 128//128 86//86 44//44
f 158//158 89//89 42//42
f 159//159 92//92 30//30
f 160//160 95//95 33//33
f 161//161 98//98 36//36
f 162//162 101//101 39//39
f 145//145 104//104 61//61
f 147//147 107//107 63//63
f 149//149 110//110 65//65
f 151//151 113//113 67//67
f 143//143 116//116 59//59
f 159//159 118//118 12//12
f 160//160 120//120 15//15
f 161//161 122//122 18//18
f 162//162 124//124 21//21
f 158//158 126//126 9//9
f 130//130 129//129 74//74
f 132//132 131//131 77//77
f 134//134 133//133 80//80
f 136//136 135//135 83//83
f 128//128 137//137 86//86
f 158//158 138//138 89//89
f 159//159 139//139 92//92
f 160//160 140//140 95//95
f 161//161 141//141 98//98
f 162//162 142//142 101//101
f 145//145 144//144 104//104
f 147//147 146//146 107//107
f 149//149 148//148 110//110
f 151//151 150//150 113//113
f 143//143 152//152 116//116
f 159//159 153//153 118//118
f 160//160 154//154 120//120
f 161//161 155//155 122//122
f 162//162 156//156 124//124
f 158//158 157//157 126//126
f 130//130 3//3 129//129
f 132//132 4//4 131//131
f 134//134 5//5 133//133
f 136//136 6//6 135//135
f 128//128 2//2 137//137
f 158//158 9//9 138//138
f 159//159 12//12 139//139
f 160//160 15//15 140//140
f 161//161 18//18 141//141
f 162//162 21//21 142//142
f 145//145 24//24 144//144
f 147//147 25//25 146//146
f 149//149 26//26 148//148
f 151//151 27//27 150//150
f 143//143 23//23 152//152
f 159//159 30//30 153//153
f 160//160 33//33 154//154
f 161//161 36//36 155//155
f 162//162 39//39 156//156
f 158//158 42//42 157//157
f 128//128 44//44 75//75
f 130//130 46//46 78//78
f 132//132 48//48 81//81
f 134//134 50//50 84//84
f 136//136 52//52 87//87
f 76//76 45//45 90//90
f 73//73 43//43 93//93
f 85//85 51//51 96//96
f 82//82 49//49 99//99
f 79//79 47//47 102//102
f 143//143 59//59 105//105
f 145//145 61//61 108//108
f 147//147 63//63 111//111
f 149//149 65//65 114//114
f 151//151 67//67 117//117
f 103//103 58//58 119//119
f 106//106 60//60 121//121
f 109//109 62//62 123//123
f 112//112 64//64 125//125
f 115//115 66//66 127//127
f 73//73 11//11 74//74
f 76//76 8//8 77//77
f 79//79 20//20 80//80
f 82//82 17//17 83//83
f 85//85 14//14 86//86
f 88//88 68//68 89//89
f 91//91 69//69 92//92
f 94//94 70//70 95//95
f 97//97 71//71 98//98
f 100//100 72//72 101//101
f 103//103 29//29 104//104
f 106//106 32//32 107//107
f 109//109 35//35 110//110
f 112//112 38//38 113//113
f 115//115 41//41 116//116
f 88//88 53//53 118//118
f 91//91 54//54 120//120
f 94//94 55//55 122//122
f 97//97 56//56 124//124
f 100//100 57//57 126//126
f 128//128 75//75 129//129
f 130//130 78//78 131//131
f 132//132 81//81 133//133
f 134//134 84//84 135//135
f 136//136 87//87 137//137
f 76//76 90//90 138//138
f 73//73 93//93 139//139
f 85//85 96//96 140//140
f 82//82 99//99 141//141
f 79//79 102//102 142//142
f 143//143 105//105 144//144
f 145//145 108//108 146//146
f 147//147 111//111 148//148
f 149//149 114//114 150//150
f 151//151 117//117 152//152
f 103//103 119//119 153//153
f 106//106 121//121 154//154
f 109//109 123//123 155//155
f 112//112 125//125 156//156
f 115//115 127//127 157//157
f 129//129 3//3 2//2
f 131//131 4//4 3//3
f 133//133 5//5 4//4
f 135//135 6//6 5//5
f 137//137 2//2 6//6
f 138//138 9//9 8//8
f 139//139 12//12 11//11
f 140//140 15//15 14//14
f 141//141 18//18 17//17
f 142//142 21//21 20//20
f 144//144 24//24 23//23
f 146//146 25//25 24//24
f 148//148 26//26 25//25
f 150//150 27//27 26//26
f 152//152 23//23 27//27
f 153//153 30//30 29//29
f 154//154 33//33 32//32
f 155//155 36//36 35//35
f 156//156 39//39 38//38
f 157//157 42//42 41//41
f 75//75 44//44 43//43
f 78//78 46//46 45//45
f 81//81 48//48 47//47
f 84//84 50//50 49//49
f 87//87 52//52 51//51
f 90//90 45//45 53//53
f 93//93 43//43 54//54
f 96//96 51//51 55//55
f 99//99 49//49 56//56
f 102//102 47//47 57//57
f 105//105 59//59 58//58
f 108//108 61//61 60//60
f 111//111 63//63 62//62
f 114//114 65//65 64//64
f 117//117 67//67 66//66
f 119//119 58//58 68//68
f 121//121 60//60 69//69
f 123//123 62//62 70//70
f 125//125 64//64 71//71
f 127//127 66//66 72//72
f 74//74 11//11 46//46
f 77//77 8//8 48//48
f 80//80 20//20 50//50
f 83//83 17//17 52//52
f 86//86 14//14 44//44
f 89//89 68//68 42//42
f 92//92 69//69 30//30
f 95//95 70//70 33//33
f 98//98 71//71 36//36
f 101//101 72//72 39//39
f 104//104 29//29 61//61
f 107//107 32//32 63//63
f 110//110 35//35 65//65
f 113//113 38//38 67//67
f 116//116 41//41 59//59
f 118//118 53//53 12//12
f 120//120 54//54 15//15
f 122//122 55//55 18//18
f 124//124 56//56 21//21
f 126//126 57//57 9//9
f 129//129 75//75 74//74
f 131//131 78//78 77//77
f 133//133 81//81 80//80
f 135//135 84//84 83//83
f 137//137 87//87 86//86
f 138//138 90//90 89//89
f 139//139 93//93 92//92
f 140//140 96//96 95//95
f 141//141 99//99 98//98
f 142//142 102//102 101//101
f 144//144 105//105 104//104
f 146//146 108//108 107//107
f 148//148 111//111 110//110
f 150//150 114//114 113//113
f 152//152 117//117 116//116
f 153//153 119//119 118//118
f 154//154 121//121 120//120
f 155//155 123//123 122//122
f 156//156 125//125 124//124
f 157//157 127//127 126//126
