# Created by Open3D 
# object name: part_010
# number of vertices: 162
# number of triangles: 320
v 1.23755 3.61938 0.723836
vn 0.980518 0.0714252 0.182984
v 1.23214 3.6266 0.743861
vn 0.926323 0.278789 0.253382
v 1.23357 3.61219 0.743911
vn 0.961527 -0.00363862 0.274687
v 1.23765 3.60027 0.722692
vn 0.981734 -0.081001 0.172154
v 1.23979 3.61468 0.709602
vn 0.999165 0.0136496 0.0384985
v 1.23807 3.62897 0.711164
vn 0.949434 0.29122 0.117327
v 1.19079 3.02121 0.672008
vn 0.955234 -0.252025 0.154956
v 1.1877 3.02539 0.693068
vn 0.946825 -0.191726 0.258388
v 1.18407 3.0116 0.690574
vn 0.868768 -0.457492 0.189587
v 1.20391 3.31923 0.719544
vn -0.121134 -0.0762841 0.989701
v 1.22332 3.59819 0.74331
vn -0.144968 -0.0730769 0.986734
v 1.19597 3.31994 0.718405
vn -0.174342 -0.0714653 0.982088
v 1.10398 3.64475 0.724072
vn -0.163552 0.085953 0.982783
v 1.1045 3.64872 0.723243
vn 0.0159456 0.916946 0.398691
v 0.987931 3.65605 0.703483
vn -0.16173 0.195434 0.967289
v 1.11066 3.64742 0.687259
vn 0.187972 0.226434 -0.955717
v 1.22098 3.63116 0.705548
vn 0.184334 0.135676 -0.973454
v 0.999594 3.65182 0.6669
vn 0.180999 0.135986 -0.974036
v 1.21574 3.38381 0.686269
vn 0.234228 0.0657327 -0.969957
v 1.19359 3.05603 0.658878
vn 0.311802 0.0571745 -0.948425
v 1.18676 3.04351 0.656323
vn 0.210469 0.0671538 -0.975291
v 0.92925 3.04561 0.626348
vn -0.980518 -0.0714259 -0.182982
v 0.927501 3.03554 0.645783
vn -0.949101 -0.287892 -0.127773
v 0.925787 3.04983 0.647345
vn -0.996668 -0.0104045 -0.0808989
v 0.929074 3.06469 0.627922
vn -0.981734 0.0810011 -0.172156
v 0.932009 3.05232 0.613035
vn -0.948971 0.00641009 -0.3153
v 0.93343 3.03791 0.613086
vn -0.922901 -0.280617 -0.263645
v 0.954659 3.34248 0.676031
vn -0.234231 -0.0657325 0.969956
v 0.935235 3.06351 0.65232
vn -0.210786 -0.0690967 0.975087
v 0.96251 3.34173 0.677648
vn -0.181609 -0.0707873 0.98082
v 0.976009 3.64378 0.678177
vn -0.955235 0.252023 -0.154956
v 0.971657 3.63662 0.698188
vn -0.981965 0.177682 -0.0646032
v 0.975576 3.65053 0.69907
vn -0.891545 0.44839 -0.0639744
v 0.966494 3.40706 0.642755
vn 0.121135 0.076284 -0.9897
v 0.978857 3.61122 0.660174
vn 0.0387093 0.0839931 -0.995714
v 0.985828 3.6238 0.661941
vn 0.144906 0.0755292 -0.986558
v 1.06159 3.01975 0.632874
vn 0.163552 -0.085953 -0.982783
v 0.951462 3.03609 0.61355
vn 0.17086 0.00627383 -0.985275
v 1.17284 3.01543 0.652198
vn 0.174194 0.00596338 -0.984693
v 1.05492 3.01709 0.669688
vn -0.187972 -0.226433 0.955717
v 1.05482 3.01329 0.668186
vn -0.131006 -0.962926 0.235818
v 1.1711 3.00583 0.689577
vn -0.181494 -0.332592 0.925442
v 1.21411 3.62842 0.743397
vn -0.170859 -0.00627326 0.985275
v 1.22023 3.63438 0.744037
vn -0.140374 0.19344 0.971018
v 1.18672 3.05328 0.696772
vn -0.0398065 -0.0838418 0.995684
v 1.22825 3.58457 0.742806
vn -0.0397005 -0.0824964 0.9958
v 1.19392 3.02788 0.658759
vn 0.984498 -0.173978 0.0222457
v 1.19385 3.03999 0.674146
vn 0.98009 -0.102031 0.170335
v 1.23034 3.60099 0.704627
vn 0.211057 0.0693575 -0.97501
v 1.23512 3.58731 0.704912
vn 0.313846 0.0583238 -0.947681
v 1.11075 3.65122 0.688761
vn 0.148135 0.922938 -0.355305
v 1.22678 3.637 0.707924
vn 0.20285 0.330598 -0.921714
v 1.17975 3.0407 0.695006
vn -0.145138 -0.0752216 0.986548
v 0.992731 3.64907 0.704749
vn -0.174194 -0.00596215 0.984693
v 0.994479 3.65867 0.66737
vn 0.181494 0.332592 -0.925442
v 1.20795 3.38532 0.684718
vn 0.181609 0.0707873 -0.98082
v 1.19 3.01397 0.657877
vn 0.891504 -0.449888 0.0531089
v 0.944599 3.03334 0.651399
vn -0.184333 -0.135676 0.973454
v 0.938797 3.02751 0.649023
vn -0.20285 -0.330598 0.921714
v 0.971985 3.60848 0.698068
vn -0.312685 -0.0570279 0.948143
v 0.930455 3.07719 0.652035
vn -0.312792 -0.0583731 0.948026
v 0.977879 3.63911 0.663879
vn -0.934305 0.194035 -0.299041
v 0.972872 3.62497 0.676468
vn -0.98009 0.102031 -0.170335
v 0.942249 3.06632 0.613637
vn 0.145149 0.073248 -0.986695
v 0.937326 3.07994 0.614141
vn 0.0406371 0.0824732 -0.995764
v 1.06108 3.01579 0.633704
vn 0.00873949 -0.860253 -0.509792
v 0.945346 3.03012 0.612909
vn 0.140373 -0.193442 -0.971018
v 1.16598 3.01269 0.690047
vn -0.180999 -0.135986 0.974036
v 0.978814 3.621 0.700624
vn -0.210618 -0.0669521 0.975273
v 0.981505 3.6529 0.666373
vn -0.864966 0.4605 -0.199432
v 0.97449 3.40711 0.643961
vn 0.174342 0.0714653 -0.982088
v 1.17764 3.00845 0.653463
vn 0.16173 -0.195438 -0.967289
v 1.22074 3.61743 0.744107
vn -0.170544 -0.0499486 0.984083
v 1.22827 3.61194 0.744755
vn -0.0660037 -0.0548786 0.996309
v 1.22544 3.62677 0.745009
vn -0.0901599 0.00312542 0.995922
v 1.18741 3.03518 0.69493
vn 0.21603 -0.107451 0.970456
v 1.19112 3.05272 0.69569
vn 0.958219 -0.100271 0.267884
v 1.21022 3.31872 0.71971
vn 0.225262 -0.101567 0.96899
v 1.19405 3.03783 0.658301
vn 0.545282 0.0244624 -0.837896
v 1.2215 3.38026 0.687998
vn 0.552079 0.0290444 -0.833286
v 1.19735 3.05521 0.661342
vn 0.996489 -0.0816983 0.0183239
v 1.22771 3.62021 0.705672
vn 0.185318 0.092269 -0.978337
v 1.23219 3.62947 0.707783
vn 0.2634 0.144423 -0.953815
v 1.23513 3.61468 0.706936
vn 0.287634 0.0864484 -0.953831
v 1.10837 3.65146 0.702503
vn 0.0776426 0.993259 0.0860663
v 1.22091 3.63757 0.742638
vn 0.104239 0.980101 0.168925
v 1.22684 3.63994 0.709903
vn 0.133596 0.991021 0.00535098
v 1.17422 3.02224 0.692537
vn -0.173936 -0.09333 0.980324
v 1.17741 3.01227 0.691765
vn -0.102865 -0.159402 0.98184
v 1.18249 3.02631 0.694012
vn -0.0700607 -0.106747 0.991815
v 0.984389 3.63948 0.702845
vn -0.181927 -0.0488868 0.982096
v 0.990243 3.62024 0.702838
vn -0.178642 -0.0699718 0.981423
v 1.10266 3.62994 0.723702
vn -0.176282 -0.0499523 0.983071
v 0.986359 3.65735 0.666427
vn -0.400931 0.743914 -0.534646
v 0.983336 3.65797 0.680361
vn -0.557504 0.829161 -0.0410078
v 0.994282 3.66164 0.669303
vn 0.0526268 0.998576 -0.00878398
v 1.09126 3.39646 0.664285
vn 0.177977 0.0711268 -0.981461
v 0.997326 3.62307 0.663776
vn 0.177331 0.0725703 -0.981472
v 1.21896 3.60239 0.702468
vn 0.178837 0.0724297 -0.981209
v 1.18555 3.00969 0.655611
vn 0.581147 -0.671891 -0.459163
v 1.18416 3.01497 0.654539
vn 0.250699 -0.0181027 -0.967896
v 1.19044 3.01917 0.656598
vn 0.481085 -0.0673512 -0.874083
v 0.937863 3.04429 0.651275
vn -0.185317 -0.0922693 0.978337
v 0.930444 3.04982 0.65001
vn -0.287634 -0.0864479 0.953831
v 0.933381 3.03504 0.649164
vn -0.2634 -0.144425 0.953814
v 0.97152 3.62667 0.698646
vn -0.544096 -0.0236588 0.83869
v 0.968224 3.60929 0.695605
vn -0.99364 0.0861157 -0.072553
v 0.948679 3.34312 0.674051
vn -0.552079 -0.0290444 0.833286
v 0.978162 3.62933 0.662017
vn -0.214072 0.108698 -0.970751
v 0.959957 3.40467 0.642339
vn -0.225261 0.101567 -0.96899
v 0.974453 3.61178 0.661256
vn -0.947549 0.102544 -0.302714
v 0.944833 3.04708 0.61284
vn 0.170545 0.0499487 -0.984083
v 0.940131 3.03773 0.611937
vn 0.0901588 -0.00312637 -0.995922
v 0.937302 3.05256 0.612192
vn 0.066002 0.0548792 -0.996309
v 1.05851 3.01356 0.647232
vn -0.0776426 -0.993259 -0.0860664
v 0.93873 3.02456 0.647043
vn -0.131835 -0.99113 -0.0167475
v 0.944666 3.02693 0.614309
vn -0.101909 -0.978358 -0.180083
v 1.16825 3.04144 0.693171
vn -0.177311 -0.0722816 0.981497
v 1.0559 3.03176 0.671873
vn -0.17959 -0.0922691 0.979405
v 0.981417 3.64954 0.702408
vn -0.250698 0.0181033 0.967896
v 0.976223 3.63545 0.700753
vn -0.283577 -0.0345795 0.958326
v 0.988167 3.65224 0.665181
vn 0.102866 0.159402 -0.98184
v 0.981669 3.64795 0.664307
vn -0.146946 0.200887 -0.968531
v 1.17533 3.04427 0.654109
vn 0.178656 0.0701601 -0.981407
v 0.953698 3.06495 0.615417
vn 0.177157 0.0703 -0.981669
v 1.18353 3.00705 0.669491
vn 0.557505 -0.82916 0.0410082
v 1.17723 3.00524 0.654909
vn -0.0209424 -0.985912 -0.165948
v 1.22803 3.63168 0.744632
vn 0.565421 0.625746 0.537346
v 1.23119 3.62144 0.74505
vn 0.163216 0.00723941 0.986564
v 1.23175 3.60239 0.744077
vn 0.21703 -0.0946692 0.971563
v 1.2327 3.58462 0.741776
vn 0.958552 -0.0960171 0.268253
v 1.21634 3.32011 0.69807
vn 0.980967 -0.0915209 0.171254
v 1.23893 3.58711 0.707428
vn 0.996217 -0.0788034 0.0366244
v 1.23839 3.60505 0.707447
vn 0.543609 0.0380086 -0.838478
v 1.23773 3.62406 0.709009
vn 0.49735 0.140772 -0.856053
v 1.23437 3.63421 0.709723
vn 0.683911 0.642703 -0.345252
v 1.23259 3.63471 0.723875
vn 0.678125 0.713879 0.174708
v 1.18391 3.01656 0.69264
vn 0.146947 -0.200888 0.96853
v 1.21188 3.59956 0.74153
vn -0.177141 -0.0701119 0.981685
v 0.988346 3.65927 0.702038
vn 0.0228497 0.987695 0.154716
v 1.10967 3.63274 0.685074
vn 0.17959 0.0922691 -0.979405
v 1.18935 3.02905 0.656194
vn 0.283575 0.0345802 -0.958326
v 0.931209 3.0303 0.647223
vn -0.701484 -0.680118 0.212977
v 0.927849 3.04045 0.647938
vn -0.497354 -0.140774 0.85605
v 0.927181 3.05946 0.6495
vn -0.545092 -0.0364404 0.837584
v 0.926646 3.0774 0.649519
vn -0.993972 0.0818614 -0.0729213
v 0.950538 3.34491 0.651666
vn -0.980967 0.091521 -0.171255
v 0.932875 3.07989 0.61517
vn -0.94217 0.0991725 -0.320127
v 0.933823 3.06211 0.61287
vn -0.218252 0.0956974 -0.971189
v 0.934385 3.04306 0.611896
vn -0.163216 -0.00723944 -0.986564
v 0.937539 3.03282 0.612315
vn -0.503696 -0.570684 -0.648545
v 0.934271 3.0303 0.625977
vn -0.678125 -0.713879 -0.174708
v 0.946614 3.06212 0.654479
vn -0.178812 -0.0721415 0.981235
v 0.975133 3.64533 0.700349
vn -0.481084 0.0673506 0.874084
v 0.983081 3.6382 0.662934
vn 0.0700607 0.106747 -0.991815
v 1.06291 3.03456 0.633244
vn 0.176282 0.0499523 -0.983071
v 1.17129 3.00286 0.687643
vn -0.0504447 -0.998724 -0.00253908
v 1.17922 3.00716 0.69052
vn 0.454905 -0.788005 0.414861
v 1.07923 3.33083 0.698103
vn -0.177977 -0.0711268 0.981461
v 0.980028 3.65482 0.701335
vn -0.590968 0.733629 0.335477
v 0.991359 3.64226 0.66441
vn 0.173936 0.0933302 -0.980324
v 1.18119 3.02503 0.654102
vn 0.181927 0.0488869 -0.982096
f 1//1 2//2 3//3
f 1//1 3//3 4//4
f 1//1 4//4 5//5
f 1//1 5//5 6//6
f 1//1 6//6 2//2
f 7//7 8//8 9//9
f 10//10 11//11 12//12
f 13//13 14//14 15//15
f 16//16 17//17 18//18
f 19//19 20//20 21//21
f 22//22 23//23 24//24
f 22//22 24//24 25//25
f 22//22 25//25 26//26
f 22//22 26//26 27//27
f 22//22 27//27 23//23
f 28//28 29//29 30//30
f 31//31 32//32 33//33
f 34//34 35//35 36//36
f 37//37 38//38 39//39
f 40//40 41//41 42//42
f 13//13 43//43 44//44
f 10//10 45//45 46//46
f 7//7 47//47 48//48
f 19//19 49//49 50//50
f 16//16 51//51 52//52
f 10//10 53//53 45//45
f 13//13 54//54 43//43
f 16//16 55//55 51//51
f 19//19 56//56 49//49
f 7//7 57//57 47//47
f 40//40 58//58 59//59
f 28//28 60//60 61//61
f 31//31 62//62 63//63
f 34//34 64//64 65//65
f 37//37 66//66 67//67
f 40//40 68//68 58//58
f 28//28 69//69 60//60
f 31//31 70//70 62//62
f 34//34 71//71 64//64
f 37//37 72//72 66//66
f 10//10 46//46 11//11
f 7//7 48//48 8//8
f 19//19 50//50 20//20
f 16//16 52//52 17//17
f 13//13 44//44 14//14
f 40//40 42//42 68//68
f 28//28 30//30 69//69
f 31//31 33//33 70//70
f 34//34 36//36 71//71
f 37//37 39//39 72//72
f 28//28 61//61 29//29
f 31//31 63//63 32//32
f 34//34 65//65 35//35
f 37//37 67//67 38//38
f 40//40 59//59 41//41
f 10//10 12//12 53//53
f 13//13 15//15 54//54
f 16//16 18//18 55//55
f 19//19 21//21 56//56
f 7//7 9//9 57//57
f 73//73 74//74 75//75
f 76//76 77//77 78//78
f 79//79 80//80 81//81
f 82//82 83//83 84//84
f 85//85 86//86 87//87
f 88//88 89//89 90//90
f 91//91 92//92 93//93
f 94//94 95//95 96//96
f 97//97 98//98 99//99
f 100//100 101//101 102//102
f 103//103 104//104 105//105
f 106//106 107//107 108//108
f 109//109 110//110 111//111
f 112//112 113//113 114//114
f 115//115 116//116 117//117
f 88//88 118//118 119//119
f 91//91 120//120 121//121
f 94//94 122//122 123//123
f 97//97 124//124 125//125
f 100//100 126//126 127//127
f 128//128 129//129 2//2
f 130//130 131//131 3//3
f 132//132 133//133 4//4
f 134//134 135//135 5//5
f 136//136 137//137 6//6
f 76//76 138//138 8//8
f 73//73 139//139 11//11
f 85//85 140//140 14//14
f 82//82 141//141 17//17
f 79//79 142//142 20//20
f 143//143 144//144 23//23
f 145//145 146//146 24//24
f 147//147 148//148 25//25
f 149//149 150//150 26//26
f 151//151 152//152 27//27
f 103//103 153//153 29//29
f 106//106 154//154 32//32
f 109//109 155//155 35//35
f 112//112 156//156 38//38
f 115//115 157//157 41//41
f 73//73 75//75 43//43
f 76//76 78//78 45//45
f 79//79 81//81 47//47
f 82//82 84//84 49//49
f 85//85 87//87 51//51
f 88//88 90//90 53//53
f 91//91 93//93 54//54
f 94//94 96//96 55//55
f 97//97 99//99 56//56
f 100//100 102//102 57//57
f 103//103 105//105 58//58
f 106//106 108//108 60//60
f 109//109 111//111 62//62
f 112//112 114//114 64//64
f 115//115 117//117 66//66
f 88//88 119//119 68//68
f 91//91 121//121 69//69
f 94//94 123//123 70//70
f 97//97 125//125 71//71
f 100//100 127//127 72//72
f 130//130 74//74 46//46
f 132//132 77//77 48//48
f 134//134 80//80 50//50
f 136//136 83//83 52//52
f 128//128 86//86 44//44
f 158//158 89//89 42//42
f 159//159 92//92 30//30
f 160//160 95//95 33//33
f 161//161 98//98 36//36
f 162//162 101//101 39//39
f 145//145 104//104 61//61
f 147//147 107//107 63//63
f 149//149 110//110 65//65
f 151//151 113//113 67//67
f 143//143 116//116 59//59
f 159//159 118//118 12//12
f 160//160 120//120 15//15
f 161//161 122//122 18//18
f 162//162 124//124 21//21
f 158//158 126//126 9//9
f 130//130 129//129 74//74
f 132//132 131//131 77//77
f 134//134 133//133 80//80
f 136//136 135//135 83//83
f 128//128 137//137 86//86
f 158//158 138//138 89//89
f 159//159 139//139 92//92
f 160//160 140//140 95//95
f 161//161 141//141 98//98
f 162//162 142//142 101//101
f 145//145 144//144 104//104
f 147//147 146//146 107//107
f 149//149 148//148 110//110
f 151//151 150//150 113//113
f 143//143 152//152 116//116
f 159//159 153//153 118//118
f 160//160 154//154 120//120
f 161//161 155//155 122//122
f 162//162 156//156 124//124
f 158//158 157//157 126//126
f 130//130 3//3 129//129
f 132//132 4//4 131//131
f 134//134 5//5 133//133
f 136//136 6//6 135//135
f 128//128 2//2 137//137
f 158//158 9//9 138//138
f 159//159 12//12 139//139
f 160//160 15//15 140//140
f 161//161 18//18 141//141
f 162//162 21//21 142//142
f 145//145 24//24 144//144
f 147//147 25//25 146//146
f 149//149 26//26 148//148
f 151//151 27//27 150//150
f 143//143 23//23 152//152
f 159//159 30//30 153//153
f 160//160 33//33 154//154
f 161//161 36//36 155//155
f 162//162 39//39 156//156
f 158//158 42//42 157//157
f 128//128 44//44 75//75
f 130//130 46//46 78//78
f 132//132 48//48 81//81
f 134//134 50//50 84//84
f 136//136 52//52 87//87
f 76//76 45//45 90//90
f 73//73 43//43 93//93
f 85//85 51//51 96//96
f 82//82 49//49 99//99
f 79//79 47//47 102//102
f 143//143 59//59 105//105
f 145//145 61//61 108//108
f 147//147 63//63 111//111
f 149//149 65//65 114//114
f 151//151 67//67 117//117
f 103//103 58//58 119//119
f 106//106 60//60 121//121
f 109//109 62//62 123//123
f 112//112 64//64 125//125
f 115//115 66//66 127//127
f 73//73 11//11 74//74
f 76//76 8//8 77//77
f 79//79 20//20 80//80
f 82//82 17//17 83//83
f 85//85 14//14 86//86
f 88//88 68//68 89//89
f 91//91 69//69 92//92
f 94//94 70//70 95//95
f 97//97 71//71 98//98
f 100//100 72//72 101//101
f 103//103 29//29 104//104
f 106//106 32//32 107//107
f 109//109 35//35 110//110
f 112//112 38//38 113//113
f 115//115 41//41 116//116
f 88//88 53//53 118//118
f 91//91 54//54 120//120
f 94//94 55//55 122//122
f 97//97 56//56 124//124
f 100//100 57//57 126//126
f 128//128 75//75 129//129
f 130//130 78//78 131//131
f 132//132 81//81 133//133
f 134//134 84//84 135//135
f 136//136 87//87 137//137
f 76//76 90//90 138//138
f 73//73 93//93 139//139
f 85//85 96//96 140//140
f 82//82 99//99 141//141
f 79//79 102//102 142//142
f 143//143 105//105 144//144
f 145//145 108//108 146//146
f 147//147 111//111 148//148
f 149//149 114//114 150//150
f 151//151 117//117 152//152
f 103//103 119//119 153//153
f 106//106 121//121 154//154
f 109//109 123//123 155//155
f 112//112 125//125 156//156
f 115//115 127//127 157//157
f 129//129 3//3 2//2
f 131//131 4//4 3//3
f 133//133 5//5 4//4
f 135//135 6//6 5//5
f 137//137 2//2 6//6
f 138//138 9//9 8//8
f 139//139 12//12 11//11
f 140//140 15//15 14//14
f 141//141 18//18 17//17
f 142//142 21//21 20//20
f 144//144 24//24 23//23
f 146//146 25//25 24//24
f 148//148 26//26 25//25
f 150//150 27//27 26//26
f 152//152 23//23 27//27
f 153//153 30//30 29//29
f 154//154 33//33 32//32
f 155//155 36//36 35//35
f 156//156 39//39 38//38
f 157//157 42//42 41//41
f 75//75 44//44 43//43
f 78//78 46//46 45//45
f 81//81 48//48 47//47
f 84//84 50//50 49//49
f 87//87 52//52 51//51
f 90//90 45//45 53//53
f 93//93 43//43 54//54
f 96//96 51//51 55//55
f 99//99 49//49 56//56
f 102//102 47//47 57//57
f 105//105 59//59 58//58
f 108//108 61//61 60//60
f 111//111 63//63 62//62
f 114//114 65//65 64//64
f 117//117 67//67 66//66
f 119//119 58//58 68//68
f 121//121 60//60 69//69
f 123//123 62//62 70//70
f 125//125 64//64 71//71
f 127//127 66//66 72//72
f 74//74 11//11 46//46
f 77//77 8//8 48//48
f 80//80 20//20 50//50
f 83//83 17//17 52//52
f 86//86 14//14 44//44
f 89//89 68//68 42//42
f 92//92 69//69 30//30
f 95//95 70//70 33//33
f 98//98 71//71 36//36
f 101//101 72//72 39//39
f 104//104 29//29 61//61
f 107//107 32//32 63//63
f 110//110 35//35 65//65
f 113//113 38//38 67//67
f 116//116 41//41 59//59
f 118//118 53//53 12//12
f 120//120 54//54 15//15
f 122//122 55//55 18//18
f 124//124 56//56 21//21
f 126//126 57//57 9//9
f 129//129 75//75 74//74
f 131//131 78//78 77//77
f 133//133 81//81 80//80
f 135//135 84//84 83//83
f 137//137 87//87 86//86
f 138//138 90//90 89//89
f 139//139 93//93 92//92
f 140//140 96//96 95//95
f 141//141 99//99 98//98
f 142//142 102//102 101//101
f 144//144 105//105 104//104
f 146//146 108//108 107//107
f 148//148 111//111 110//110
f 150//150 114//114 113//113
f 152//152 117//117 116//116
f 153//153 119//119 118//118
f 154//154 121//121 120//120
f 155//155 123//123 122//122
f 156//156 125//125 124//124
f 157//157 127//127 126//126
