# Created by Open3D 
# object name: part_056
# number of vertices: 162
# number of triangles: 320
v -0.806794 2.56032 0.116518
vn -0.035674 -0.990032 -0.136249
v -0.78661 2.56066 0.109995
vn -0.0249013 -0.983555 -0.178886
v -0.785943 2.55903 0.121241
vn -0.0211382 -0.992132 -0.123401
v -0.806772 2.55846 0.131651
vn -0.0360451 -0.993503 -0.107944
v -0.820875 2.56033 0.120947
vn -0.0569434 -0.99068 -0.123734
v -0.8199 2.56189 0.109715
vn -0.0469074 -0.982605 -0.179683
v -0.812715 2.50948 0.595118
vn -0.0364234 -0.996468 -0.0756686
v -0.791751 2.50916 0.59074
vn -0.0215806 -0.99586 -0.0883015
v -0.792697 2.50839 0.602058
vn -0.0267081 -0.999119 -0.0323623
v -0.786614 2.53496 0.35611
vn 0.917492 -0.396561 -0.0307734
v -0.783814 2.559 0.133125
vn 0.966566 -0.255884 -0.0165492
v -0.786328 2.53613 0.356238
vn 0.998055 -0.0620799 0.00575248
v -0.783755 2.5803 0.106991
vn 0.982417 -0.0158134 -0.18603
v -0.784904 2.58067 0.103875
vn 0.275044 0.0921018 -0.95701
v -0.783477 2.59772 0.108488
vn 0.949171 0.0708536 -0.306684
v -0.821237 2.58169 0.106675
vn -0.977609 0.0570887 -0.202539
v -0.822424 2.56465 0.10968
vn -0.995286 0.0342332 -0.0907391
v -0.821222 2.59776 0.113211
vn -0.994457 0.0570857 -0.0883011
v -0.825332 2.54167 0.306347
vn -0.943763 -0.327345 -0.0464461
v -0.828218 2.5133 0.56827
vn -0.750951 -0.655692 -0.078362
v -0.828717 2.51308 0.578841
vn -0.982718 -0.182586 -0.0304557
v -0.811295 2.54859 0.59929
vn 0.0356741 0.990033 0.136244
v -0.791304 2.54675 0.606151
vn 0.0452203 0.982801 0.179047
v -0.790329 2.54832 0.594918
vn 0.0505378 0.991039 0.123645
v -0.810881 2.55043 0.58416
vn 0.0360451 0.993503 0.107944
v -0.825262 2.54962 0.594624
vn 0.0147375 0.99225 0.123379
v -0.824595 2.54799 0.60587
vn 0.0231954 0.98349 0.179469
v -0.785261 2.57223 0.360086
vn 0.943765 0.327338 0.0464454
v -0.788005 2.54818 0.583073
vn 0.982489 0.18338 0.0329586
v -0.785061 2.57104 0.359962
vn 0.999864 -0.0122318 0.0110698
v -0.805374 2.59943 0.12069
vn 0.0364234 0.996468 0.0756657
v -0.784521 2.59819 0.125419
vn 0.0509718 0.994767 0.0885485
v -0.785217 2.59902 0.114088
vn 0.0470324 0.998363 0.0325322
v -0.823979 2.57894 0.310323
vn -0.917488 0.396572 0.0307746
v -0.821568 2.59678 0.147271
vn -0.6961 0.714845 0.0666425
v -0.821872 2.59703 0.136693
vn -0.9661 0.2578 0.0137554
v -0.827449 2.52835 0.608875
vn -0.982417 0.0158133 0.186031
v -0.827317 2.54543 0.605861
vn -0.996464 0.0398479 0.0739672
v -0.828518 2.51232 0.60233
vn -0.997294 0.0169968 0.0715302
v -0.789968 2.52695 0.609191
vn 0.977609 -0.0570887 0.202539
v -0.791193 2.52667 0.612286
vn 0.251309 -0.11168 0.961442
v -0.790959 2.50956 0.607687
vn 0.935992 -0.140973 0.322563
v -0.783888 2.56322 0.110004
vn 0.996464 -0.0398479 -0.0739672
v -0.784738 2.56298 0.104783
vn 0.943966 -0.0725082 -0.321978
v -0.789636 2.51187 0.568595
vn 0.698954 -0.71208 -0.0663684
v -0.784378 2.55702 0.143508
vn 0.698954 -0.711964 -0.0676034
v -0.826683 2.51046 0.590446
vn -0.0573701 -0.994418 -0.0885476
v -0.812318 2.51084 0.579937
vn -0.0360932 -0.993916 -0.104056
v -0.823199 2.56046 0.132793
vn -0.982173 -0.184974 -0.0334754
v -0.822959 2.55846 0.143183
vn -0.746024 -0.661081 -0.0801286
v -0.820011 2.58198 0.103579
vn -0.353565 0.111897 -0.928693
v -0.821506 2.56435 0.104473
vn -0.941194 -0.00239239 -0.337858
v -0.789332 2.51162 0.579172
vn 0.966534 -0.256161 -0.0139273
v -0.782686 2.59633 0.113536
vn 0.997294 -0.0169968 -0.0715303
v -0.820246 2.59909 0.108179
vn -0.935992 0.140973 -0.322563
v -0.825525 2.54292 0.30586
vn -0.999864 0.0122303 -0.01107
v -0.825987 2.50963 0.601778
vn -0.0487365 -0.998301 -0.0319227
v -0.788781 2.544 0.606186
vn 0.995286 -0.0342332 0.0907391
v -0.789698 2.5443 0.611392
vn 0.941194 0.00239228 0.337857
v -0.782987 2.59534 0.147596
vn 0.748699 0.658238 0.078558
v -0.788245 2.55019 0.572682
vn 0.748672 0.658121 0.0797919
v -0.819454 2.59949 0.125125
vn 0.0151763 0.995988 0.0881862
v -0.805335 2.59805 0.135875
vn 0.0360932 0.993916 0.104055
v -0.82739 2.54965 0.582741
vn -0.966838 0.254876 0.016209
v -0.826827 2.55163 0.572357
vn -0.701394 0.709592 0.0672743
v -0.826301 2.52797 0.611991
vn -0.376472 -0.0847432 0.922544
v -0.826467 2.54567 0.611083
vn -0.943966 0.0725085 0.32198
v -0.789982 2.51089 0.602654
vn 0.994457 -0.0570857 0.0883011
v -0.782487 2.59556 0.137025
vn 0.982522 0.183659 0.0303376
v -0.818508 2.60026 0.113807
vn 0.0250177 0.999183 0.0317256
v -0.824258 2.57784 0.309584
vn -0.998055 0.0620808 -0.00575238
v -0.827728 2.51093 0.607377
vn -0.949171 -0.0708536 0.306684
v -0.783732 2.56122 0.118107
vn 0.99705 -0.0732617 -0.022902
v -0.784136 2.55965 0.121801
vn 0.775364 -0.626001 -0.0832727
v -0.784272 2.56149 0.110312
vn 0.852682 -0.505151 -0.133248
v -0.790468 2.51007 0.58293
vn 0.296641 -0.950315 -0.0943662
v -0.791466 2.5113 0.568756
vn -0.0213256 -0.994194 -0.105469
v -0.787571 2.53407 0.356005
vn 0.289326 -0.952245 -0.0975703
v -0.827763 2.51146 0.582616
vn -0.363695 -0.926091 -0.100403
v -0.82447 2.54047 0.308579
vn -0.35758 -0.928183 -0.103017
v -0.826438 2.5126 0.568461
vn -0.0589747 -0.992642 -0.105756
v -0.822865 2.56267 0.117778
vn -0.999211 0.000989794 -0.0397088
v -0.822175 2.5629 0.109993
vn -0.88548 -0.440514 -0.147892
v -0.82264 2.56108 0.121477
vn -0.81818 -0.566773 -0.0966944
v -0.806116 2.58157 0.102708
vn 0.0123 0.105619 -0.994331
v -0.786428 2.56329 0.102302
vn 0.0645804 -0.117576 -0.990962
v -0.819757 2.56453 0.102021
vn -0.0654408 -0.111771 -0.991577
v -0.789623 2.51063 0.594318
vn 0.996378 -0.0790263 0.0313861
v -0.790355 2.50926 0.60198
vn 0.850473 -0.524091 0.0449917
v -0.789932 2.50988 0.590368
vn 0.774741 -0.631512 -0.031123
v -0.782449 2.59656 0.121877
vn 0.999882 0.00477614 -0.014578
v -0.782353 2.59387 0.13659
vn 0.999463 -0.0318706 0.00760459
v -0.782977 2.57901 0.118795
vn 0.999247 -0.0343393 -0.018087
v -0.819609 2.60007 0.109919
vn -0.0932132 0.989411 -0.111257
v -0.805432 2.59977 0.108791
vn 0.0378979 0.99235 -0.117497
v -0.818494 2.5993 0.105731
vn -0.0496778 0.32255 -0.945248
v -0.824966 2.5604 0.307526
vn -0.999274 0.0371672 -0.00841384
v -0.822124 2.59535 0.136255
vn -0.99905 0.0425158 -0.00958225
v -0.823327 2.56221 0.13272
vn -0.999425 0.0321834 -0.0106844
v -0.827137 2.5099 0.605647
vn -0.168308 -0.979683 0.109059
v -0.828257 2.51067 0.601661
vn -0.887698 -0.459423 0.0303637
v -0.827639 2.51016 0.597722
vn -0.421753 -0.905498 -0.0468839
v -0.78834 2.54598 0.598088
vn 0.999211 -0.000989794 0.0397088
v -0.788564 2.54757 0.594389
vn 0.81818 0.566773 0.0966944
v -0.78903 2.54575 0.605872
vn 0.88548 0.440514 0.147892
v -0.783442 2.59719 0.133249
vn 0.36478 0.925715 0.0999369
v -0.784766 2.59605 0.147404
vn 0.0508168 0.993097 0.105718
v -0.786152 2.57318 0.360177
vn 0.35758 0.928183 0.103017
v -0.820736 2.59858 0.132935
vn -0.298222 0.949889 0.0936704
v -0.823051 2.57958 0.312751
vn -0.289326 0.952245 0.0975703
v -0.819738 2.59735 0.14711
vn 0.0158645 0.994304 0.105395
v -0.827473 2.54743 0.597758
vn -0.99705 0.0732617 0.0229019
v -0.826932 2.54716 0.605553
vn -0.852682 0.505152 0.133248
v -0.827069 2.549 0.594065
vn -0.775364 0.626001 0.0832727
v -0.81243 2.52735 0.613096
vn -0.0123004 -0.105619 0.994331
v -0.791448 2.54412 0.613844
vn 0.0564632 0.113074 0.991981
v -0.824777 2.54536 0.613564
vn -0.0736238 0.116942 0.990406
v -0.78908 2.5133 0.57961
vn 0.999056 -0.0424615 0.00922298
v -0.788898 2.52817 0.597401
vn 0.998591 -0.0399687 0.0349075
v -0.782948 2.59798 0.114205
vn 0.887698 0.459423 -0.0303637
v -0.782768 2.59734 0.125821
vn 0.818858 0.572265 0.04455
v -0.82085 2.59939 0.113886
vn -0.850473 0.524091 -0.0449917
v -0.820262 2.59986 0.117834
vn -0.354082 0.934344 0.0403446
v -0.828851 2.51478 0.579275
vn -0.99946 0.0319062 -0.00783923
v -0.827648 2.54792 0.582811
vn -0.999087 0.0421882 -0.00674244
v -0.812997 2.50915 0.607013
vn -0.0378979 -0.99235 0.117497
v -0.826039 2.51058 0.609854
vn -0.0893879 -0.317377 0.944077
v -0.785414 2.56166 0.106262
vn 0.0605782 -0.94625 -0.317712
v -0.784956 2.5602 0.114059
vn 0.355416 -0.922893 -0.148151
v -0.784854 2.55828 0.129098
vn 0.296722 -0.949702 -0.100116
v -0.786202 2.5565 0.143185
vn -0.0213099 -0.99411 -0.10626
v -0.809995 2.53459 0.355782
vn -0.0360697 -0.993712 -0.106
v -0.821174 2.5578 0.142891
vn -0.0562592 -0.992713 -0.106561
v -0.822149 2.55966 0.128784
vn -0.366267 -0.924422 -0.106263
v -0.821652 2.56157 0.11375
vn -0.420426 -0.894044 -0.154684
v -0.820955 2.56298 0.105963
vn -0.163025 -0.934486 -0.316479
v -0.806784 2.56249 0.104816
vn -0.032434 -0.945434 -0.324195
v -0.790943 2.50879 0.598031
vn 0.354082 -0.934344 -0.0403446
v -0.783556 2.56073 0.133055
vn 0.999089 -0.0421728 0.00650557
v -0.785166 2.59806 0.106012
vn 0.0804186 0.318761 -0.944417
v -0.822307 2.58047 0.118464
vn -0.998591 0.0399687 -0.0349075
v -0.828437 2.51131 0.590044
vn -0.818858 -0.572265 -0.04455
v -0.790249 2.54567 0.609903
vn 0.125353 0.939333 0.31928
v -0.789553 2.54708 0.602116
vn 0.420425 0.894044 0.154685
v -0.789056 2.54898 0.587081
vn 0.364724 0.925098 0.105685
v -0.790031 2.55085 0.572975
vn 0.0508055 0.993013 0.106508
v -0.808552 2.57433 0.360022
vn 0.0360697 0.993712 0.106
v -0.825003 2.55215 0.57268
vn 0.0131384 0.994259 0.106188
v -0.82635 2.55037 0.586767
vn -0.295607 0.95009 0.0997313
v -0.826249 2.54845 0.601807
vn -0.355417 0.922892 0.148151
v -0.825791 2.54699 0.609603
vn -0.0984692 0.944212 0.314274
v -0.811644 2.54642 0.610989
vn 0.0324339 0.945434 0.324195
v -0.787878 2.54644 0.583146
vn 0.999429 -0.0321601 0.0103218
v -0.783566 2.59849 0.118143
vn 0.421753 0.905498 0.0468839
v -0.821272 2.59877 0.125497
vn -0.774741 0.631512 0.031123
v -0.828227 2.52964 0.59707
vn -0.999247 0.0343392 0.018087
v -0.79271 2.50934 0.610135
vn 0.0406273 -0.323262 0.945437
v -0.791595 2.50858 0.605946
vn 0.055263 -0.992027 0.113265
v -0.785617 2.55358 0.358101
vn 0.999274 -0.0371664 0.00841392
v -0.784068 2.59875 0.110218
vn 0.130689 0.985111 -0.111702
v -0.821582 2.59802 0.121548
vn -0.996378 0.0790263 -0.0313861
v -0.828756 2.51209 0.593988
vn -0.999882 -0.00477614 0.014578
f 1//1 2//2 3//3
f 1//1 3//3 4//4
f 1//1 4//4 5//5
f 1//1 5//5 6//6
f 1//1 6//6 2//2
f 7//7 8//8 9//9
f 10//10 11//11 12//12
f 13//13 14//14 15//15
f 16//16 17//17 18//18
f 19//19 20//20 21//21
f 22//22 23//23 24//24
f 22//22 24//24 25//25
f 22//22 25//25 26//26
f 22//22 26//26 27//27
f 22//22 27//27 23//23
f 28//28 29//29 30//30
f 31//31 32//32 33//33
f 34//34 35//35 36//36
f 37//37 38//38 39//39
f 40//40 41//41 42//42
f 13//13 43//43 44//44
f 10//10 45//45 46//46
f 7//7 47//47 48//48
f 19//19 49//49 50//50
f 16//16 51//51 52//52
f 10//10 53//53 45//45
f 13//13 54//54 43//43
f 16//16 55//55 51//51
f 19//19 56//56 49//49
f 7//7 57//57 47//47
f 40//40 58//58 59//59
f 28//28 60//60 61//61
f 31//31 62//62 63//63
f 34//34 64//64 65//65
f 37//37 66//66 67//67
f 40//40 68//68 58//58
f 28//28 69//69 60//60
f 31//31 70//70 62//62
f 34//34 71//71 64//64
f 37//37 72//72 66//66
f 10//10 46//46 11//11
f 7//7 48//48 8//8
f 19//19 50//50 20//20
f 16//16 52//52 17//17
f 13//13 44//44 14//14
f 40//40 42//42 68//68
f 28//28 30//30 69//69
f 31//31 33//33 70//70
f 34//34 36//36 71//71
f 37//37 39//39 72//72
f 28//28 61//61 29//29
f 31//31 63//63 32//32
f 34//34 65//65 35//35
f 37//37 67//67 38//38
f 40//40 59//59 41//41
f 10//10 12//12 53//53
f 13//13 15//15 54//54
f 16//16 18//18 55//55
f 19//19 21//21 56//56
f 7//7 9//9 57//57
f 73//73 74//74 75//75
f 76//76 77//77 78//78
f 79//79 80//80 81//81
f 82//82 83//83 84//84
f 85//85 86//86 87//87
f 88//88 89//89 90//90
f 91//91 92//92 93//93
f 94//94 95//95 96//96
f 97//97 98//98 99//99
f 100//100 101//101 102//102
f 103//103 104//104 105//105
f 106//106 107//107 108//108
f 109//109 110//110 111//111
f 112//112 113//113 114//114
f 115//115 116//116 117//117
f 88//88 118//118 119//119
f 91//91 120//120 121//121
f 94//94 122//122 123//123
f 97//97 124//124 125//125
f 100//100 126//126 127//127
f 128//128 129//129 2//2
f 130//130 131//131 3//3
f 132//132 133//133 4//4
f 134//134 135//135 5//5
f 136//136 137//137 6//6
f 76//76 138//138 8//8
f 73//73 139//139 11//11
f 85//85 140//140 14//14
f 82//82 141//141 17//17
f 79//79 142//142 20//20
f 143//143 144//144 23//23
f 145//145 146//146 24//24
f 147//147 148//148 25//25
f 149//149 150//150 26//26
f 151//151 152//152 27//27
f 103//103 153//153 29//29
f 106//106 154//154 32//32
f 109//109 155//155 35//35
f 112//112 156//156 38//38
f 115//115 157//157 41//41
f 73//73 75//75 43//43
f 76//76 78//78 45//45
f 79//79 81//81 47//47
f 82//82 84//84 49//49
f 85//85 87//87 51//51
f 88//88 90//90 53//53
f 91//91 93//93 54//54
f 94//94 96//96 55//55
f 97//97 99//99 56//56
f 100//100 102//102 57//57
f 103//103 105//105 58//58
f 106//106 108//108 60//60
f 109//109 111//111 62//62
f 112//112 114//114 64//64
f 115//115 117//117 66//66
f 88//88 119//119 68//68
f 91//91 121//121 69//69
f 94//94 123//123 70//70
f 97//97 125//125 71//71
f 100//100 127//127 72//72
f 130//130 74//74 46//46
f 132//132 77//77 48//48
f 134//134 80//80 50//50
f 136//136 83//83 52//52
f 128//128 86//86 44//44
f 158//158 89//89 42//42
f 159//159 92//92 30//30
f 160//160 95//95 33//33
f 161//161 98//98 36//36
f 162//162 101//101 39//39
f 145//145 104//104 61//61
f 147//147 107//107 63//63
f 149//149 110//110 65//65
f 151//151 113//113 67//67
f 143//143 116//116 59//59
f 159//159 118//118 12//12
f 160//160 120//120 15//15
f 161//161 122//122 18//18
f 162//162 124//124 21//21
f 158//158 126//126 9//9
f 130//130 129//129 74//74
f 132//132 131//131 77//77
f 134//134 133//133 80//80
f 136//136 135//135 83//83
f 128//128 137//137 86//86
f 158//158 138//138 89//89
f 159//159 139//139 92//92
f 160//160 140//140 95//95
f 161//161 141//141 98//98
f 162//162 142//142 101//101
f 145//145 144//144 104//104
f 147//147 146//146 107//107
f 149//149 148//148 110//110
f 151//151 150//150 113//113
f 143//143 152//152 116//116
f 159//159 153//153 118//118
f 160//160 154//154 120//120
f 161//161 155//155 122//122
f 162//162 156//156 124//124
f 158//158 157//157 126//126
f 130//130 3//3 129//129
f 132//132 4//4 131//131
f 134//134 5//5 133//133
f 136//136 6//6 135//135
f 128//128 2//2 137//137
f 158//158 9//9 138//138
f 159//159 12//12 139//139
f 160//160 15//15 140//140
f 161//161 18//18 141//141
f 162//162 21//21 142//142
f 145//145 24//24 144//144
f 147//147 25//25 146//146
f 149//149 26//26 148//148
f 151//151 27//27 150//150
f 143//143 23//23 152//152
f 159//159 30//30 153//153
f 160//160 33//33 154//154
f 161//161 36//36 155//155
f 162//162 39//39 156//156
f 158//158 42//42 157//157
f 128//128 44//44 75//75
f 130//130 46//46 78//78
f 132//132 48//48 81//81
f 134//134 50//50 84//84
f 136//136 52//52 87//87
f 76//76 45//45 90//90
f 73//73 43//43 93//93
f 85//85 51//51 96//96
f 82//82 49//49 99//99
f 79//79 47//47 102//102
f 143//143 59//59 105//105
f 145//145 61//61 108//108
f 147//147 63//63 111//111
f 149//149 65//65 114//114
f 151//151 67//67 117//117
f 103//103 58//58 119//119
f 106//106 60//60 121//121
f 109//109 62//62 123//123
f 112//112 64//64 125//125
f 115//115 66//66 127//127
f 73//73 11//11 74//74
f 76//76 8//8 77//77
f 79//79 20//20 80//80
f 82//82 17//17 83//83
f 85//85 14//14 86//86
f 88//88 68//68 89//89
f 91//91 69//69 92//92
f 94//94 70//70 95//95
f 97//97 71//71 98//98
f 100//100 72//72 101//101
f 103//103 29//29 104//104
f 106//106 32//32 107//107
f 109//109 35//35 110//110
f 112//112 38//38 113//113
f 115//115 41//41 116//116
f 88//88 53//53 118//118
f 91//91 54//54 120//120
f 94//94 55//55 122//122
f 97//97 56//56 124//124
f 100//100 57//57 126//126
f 128//128 75//75 129//129
f 130//130 78//78 131//131
f 132//132 81//81 133//133
f 134//134 84//84 135//135
f 136//136 87//87 137//137
f 76//76 90//90 138//138
f 73//73 93//93 139//139
f 85//85 96//96 140//140
f 82//82 99//99 141//141
f 79//79 102//102 142//142
f 143//143 105//105 144//144
f 145//145 108//108 146//146
f 147//147 111//111 148//148
f 149//149 114//114 150//150
f 151//151 117//117 152//152
f 103//103 119//119 153//153
f 106//106 121//121 154//154
f 109//109 123//123 155//155
f 112//112 125//125 156//156
f 115//115 127//127 157//157
f 129//129 3//3 2//2
f 131//131 4//4 3//3
f 133//133 5//5 4//4
f 135//135 6//6 5//5
f 137//137 2//2 6//6
f 138//138 9//9 8//8
f 139//139 12//12 11//11
f 140//140 15//15 14//14
f 141//141 18//18 17//17
f 142//142 21//21 20//20
f 144//144 24//24 23//23
f 146//146 25//25 24//24
f 148//148 26//26 25//25
f 150//150 27//27 26//26
f 152//152 23//23 27//27
f 153//153 30//30 29//29
f 154//154 33//33 32//32
f 155//155 36//36 35//35
f 156//156 39//39 38//38
f 157//157 42//42 41//41
f 75//75 44//44 43//43
f 78//78 46//46 45//45
f 81//81 48//48 47//47
f 84//84 50//50 49//49
f 87//87 52//52 51//51
f 90//90 45//45 53//53
f 93//93 43//43 54//54
f 96//96 51//51 55//55
f 99//99 49//49 56//56
f 102//102 47//47 57//57
f 105//105 59//59 58//58
f 108//108 61//61 60//60
f 111//111 63//63 62//62
f 114//114 65//65 64//64
f 117//117 67//67 66//66
f 119//119 58//58 68//68
f 121//121 60//60 69//69
f 123//123 62//62 70//70
f 125//125 64//64 71//71
f 127//127 66//66 72//72
f 74//74 11//11 46//46
f 77//77 8//8 48//48
f 80//80 20//20 50//50
f 83//83 17//17 52//52
f 86//86 14//14 44//44
f 89//89 68//68 42//42
f 92//92 69//69 30//30
f 95//95 70//70 33//33
f 98//98 71//71 36//36
f 101//101 72//72 39//39
f 104//104 29//29 61//61
f 107//107 32//32 63//63
f 110//110 35//35 65//65
f 113//113 38//38 67//67
f 116//116 41//41 59//59
f 118//118 53//53 12//12
f 120//120 54//54 15//15
f 122//122 55//55 18//18
f 124//124 56//56 21//21
f 126//126 57//57 9//9
f 129//129 75//75 74//74
f 131//131 78//78 77//77
f 133//133 81//81 80//80
f 135//135 84//84 83//83
f 137//137 87//87 86//86
f 138//138 90//90 89//89
f 139//139 93//93 92//92
f 140//140 96//96 95//95
f 141//141 99//99 98//98
f 142//142 102//102 101//101
f 144//144 105//105 104//104
f 146//146 108//108 107//107
f 148//148 111//111 110//110
f 150//150 114//114 113//113
f 152//152 117//117 116//116
f 153//153 119//119 118//118
f 154//154 121//121 120//120
f 155//155 123//123 122//122
f 156//156 125//125 124//124
f 157//157 127//127 126//126
