# Created by Open3D 
# object name: part_026
# number of vertices: 162
# number of triangles: 320
v 1.0786 3.97429 0.414929
vn 0.910626 -0.0348973 -0.411755
v 1.07721 3.95394 0.41519
vn 0.98553 -0.124226 -0.115315
v 1.07515 3.95412 0.410092
vn 0.853614 -0.07304 -0.51576
v 1.07499 3.97538 0.408983
vn 0.784145 0.0110732 -0.620479
v 1.07887 3.98847 0.415404
vn 0.867577 0.0688057 -0.49252
v 1.08075 3.98668 0.420253
vn 0.99368 -0.0509172 -0.100041
v 0.941159 4.01496 0.248171
vn 0.581413 0.0625112 -0.811203
v 0.940328 3.99401 0.246505
vn 0.658729 -0.0153778 -0.752223
v 0.935904 3.99575 0.243741
vn 0.296107 0.0797591 -0.951819
v 1.00449 3.97185 0.330434
vn -0.0322737 -0.976822 -0.211604
v 1.06741 3.95285 0.409063
vn -0.0615682 -0.980892 -0.184553
v 1.00071 3.97154 0.333478
vn -0.101624 -0.982541 -0.15584
v 1.01736 3.95032 0.466704
vn 0.152376 -0.974638 0.163895
v 1.01838 3.95123 0.467967
vn 0.607062 -0.305123 0.733741
v 0.962191 3.94962 0.512212
vn 0.27912 -0.896582 0.34385
v 1.02135 3.98718 0.472404
vn 0.347365 0.826779 0.442463
v 1.07274 3.98908 0.42762
vn 0.21711 0.934645 0.281605
v 0.967326 3.98713 0.514021
vn 0.212819 0.934564 0.285127
v 1.02287 4.00632 0.353639
vn 0.179498 0.979547 0.0909285
v 0.949273 4.02824 0.260934
vn 0.276634 0.960967 0.00412381
v 0.943508 4.02948 0.259636
vn 0.147279 0.982392 0.114956
v 0.816626 4.01265 0.350245
vn -0.910626 0.0348965 0.411756
v 0.813739 3.99349 0.343874
vn -0.992926 0.0559012 0.104751
v 0.81562 3.9917 0.348723
vn -0.866237 -0.0436049 0.497726
v 0.820185 4.01114 0.356124
vn -0.784145 -0.0110732 0.620479
v 0.819338 4.02605 0.354035
vn -0.849484 0.0983447 0.518369
v 0.817283 4.02623 0.348937
vn -0.985072 0.130433 0.11234
v 0.885811 3.96965 0.427712
vn -0.179488 -0.979548 -0.0909364
v 0.822892 3.98859 0.349075
vn -0.150845 -0.981382 -0.118889
v 0.889544 3.96948 0.424594
vn -0.111104 -0.982716 -0.148069
v 0.954063 3.97199 0.517003
vn -0.581413 -0.0625114 0.811204
v 0.950443 3.95181 0.51231
vn -0.671356 -0.101266 0.734184
v 0.955042 3.95168 0.515323
vn -0.3035 -0.148086 0.941253
v 0.904193 4.00413 0.450916
vn 0.0322945 0.976825 0.211588
v 0.949323 3.98987 0.50906
vn -0.0717418 0.953059 0.294162
v 0.955173 3.98942 0.51048
vn 0.0654041 0.979621 0.18991
v 0.877133 4.02985 0.297423
vn -0.152398 0.974631 -0.163921
v 0.825854 4.02899 0.342367
vn -0.00770357 0.999816 0.0175595
v 0.931265 4.03094 0.255966
vn -0.00340566 0.999896 0.0140417
v 0.873143 3.99299 0.291723
vn -0.347365 -0.826779 -0.442463
v 0.872377 3.99442 0.290822
vn -0.63339 0.0619009 -0.771353
v 0.928384 3.9944 0.246324
vn -0.449107 -0.673858 -0.586701
v 1.06864 3.95119 0.42176
vn 0.00770274 -0.999816 -0.0175588
v 1.0728 3.95167 0.42155
vn 0.30222 -0.896154 0.324918
v 0.945166 3.99031 0.255067
vn 0.0705109 -0.953498 -0.293034
v 1.06724 3.95419 0.403179
vn 0.0728 -0.954171 -0.290272
v 0.944046 4.02836 0.251817
vn 0.672539 0.126513 -0.729168
v 0.946259 4.01347 0.252788
vn 0.762256 0.0175486 -0.647038
v 1.0716 3.99158 0.415052
vn 0.151679 0.981217 0.119195
v 1.07134 3.99213 0.409046
vn 0.28133 0.959599 0.0047639
v 1.02211 3.98575 0.473305
vn 0.633992 -0.00864494 0.773291
v 1.07671 3.98782 0.427142
vn 0.472219 0.674268 0.567778
v 0.939316 3.99075 0.253647
vn -0.065244 -0.979797 -0.189054
v 0.963224 3.94924 0.50816
vn 0.00341601 -0.999896 -0.0140319
v 0.966105 3.98578 0.517803
vn 0.449107 0.673858 0.586701
v 1.01932 4.00644 0.356969
vn 0.111105 0.982716 0.148069
v 0.939447 4.02849 0.248804
vn 0.300352 0.154225 -0.941277
v 0.821752 3.99109 0.336507
vn -0.21711 -0.934645 -0.281605
v 0.817775 3.99235 0.336985
vn -0.472217 -0.674272 -0.567775
v 0.945216 3.95193 0.503193
vn -0.277677 -0.96067 -0.00300434
v 0.823147 3.98805 0.355081
vn -0.279978 -0.959989 -0.00575277
v 0.954162 3.98616 0.517622
vn -0.654447 0.0406376 0.755015
v 0.948917 3.97305 0.51232
vn -0.762256 -0.0175485 0.647038
v 0.827084 4.02732 0.355064
vn 0.0621085 0.980818 0.184768
v 0.827254 4.02599 0.360948
vn -0.0715027 0.954512 0.289474
v 0.876114 4.02895 0.29616
vn -0.596457 0.355415 -0.719666
v 0.821689 4.02851 0.342577
vn -0.302218 0.896155 -0.324917
v 0.927163 3.99304 0.250106
vn -0.212819 -0.934564 -0.285127
v 0.950981 3.9507 0.504491
vn -0.147153 -0.982475 -0.114406
v 0.958586 3.98442 0.520386
vn -0.291747 -0.0747046 0.953574
v 0.908153 4.00438 0.448086
vn 0.101623 0.982541 0.155841
v 0.932298 4.03055 0.251915
vn -0.279135 0.896569 -0.343872
v 1.06981 3.95166 0.415929
vn -0.0614507 -0.99175 -0.112496
v 1.07248 3.95236 0.411582
vn 0.0799559 -0.974341 -0.210396
v 1.07392 3.95164 0.417218
vn 0.135445 -0.988643 -0.0651175
v 0.942052 3.99218 0.249382
vn 0.34498 -0.795053 -0.498879
v 0.947244 3.99214 0.253654
vn 0.763273 -0.0443037 -0.644556
v 1.00752 3.97281 0.328177
vn 0.362968 -0.79126 -0.4921
v 0.946022 4.02885 0.255054
vn 0.521985 0.815849 -0.248844
v 1.02503 4.00567 0.350291
vn 0.536069 0.8079 -0.244802
v 0.950967 4.02653 0.258972
vn 0.777578 0.106757 -0.619658
v 1.07397 3.99014 0.42188
vn 0.150907 0.969944 0.190883
v 1.07795 3.98891 0.422982
vn 0.341203 0.91173 0.228755
v 1.07658 3.99022 0.417438
vn 0.288667 0.953405 0.0876932
v 1.02092 3.97201 0.471539
vn 0.625031 -0.184933 0.758377
v 1.07375 3.95315 0.422619
vn 0.641015 -0.212343 0.73757
v 1.0773 3.98592 0.427687
vn 0.647342 -0.152353 0.746818
v 0.933056 3.99212 0.250004
vn -0.136065 -0.969672 -0.203032
v 0.932729 3.99341 0.245907
vn -0.137185 -0.907963 -0.395958
v 0.937924 3.99217 0.24832
vn -0.00827578 -0.948229 -0.317478
v 0.957268 3.94957 0.508172
vn -0.0762663 -0.992028 -0.100321
v 0.95648 3.95058 0.500085
vn -0.105475 -0.983213 -0.148886
v 1.01387 3.95042 0.462453
vn -0.0697869 -0.991749 -0.107537
v 0.961838 3.98524 0.520214
vn 0.22876 0.0713054 0.970868
v 0.960395 3.97121 0.518742
vn 0.220892 -0.172359 0.959947
v 0.966567 3.98387 0.518452
vn 0.608604 -0.153071 0.77857
v 0.963799 4.00547 0.402607
vn 0.106365 0.982647 0.151959
v 0.960713 3.98969 0.506133
vn 0.107747 0.981921 0.155633
v 1.06624 3.99165 0.419634
vn 0.109712 0.981957 0.154024
v 0.936435 4.02988 0.249318
vn -0.177301 0.404162 -0.897339
v 0.936764 4.03069 0.251671
vn 0.0685057 0.992415 -0.102078
v 0.940668 4.02982 0.250572
vn 0.303823 0.876289 -0.37391
v 0.820517 3.99004 0.342247
vn -0.150907 -0.969944 -0.190883
v 0.817911 3.98995 0.346689
vn -0.288669 -0.953405 -0.0876921
v 0.816536 3.99126 0.341145
vn -0.341204 -0.91173 -0.228754
v 0.948467 3.95132 0.509073
vn -0.5195 -0.817217 0.249553
v 0.943523 3.95365 0.505155
vn -0.776099 -0.0741936 0.626231
v 0.882984 3.97051 0.43025
vn -0.536069 -0.8079 0.244802
v 0.952437 3.988 0.514745
vn -0.341133 0.795815 0.500307
v 0.900501 4.00336 0.452365
vn -0.362968 0.79126 0.4921
v 0.947245 3.98804 0.510473
vn -0.759587 0.0660989 0.647039
v 0.824683 4.02852 0.348198
vn 0.0614508 0.99175 0.112496
v 0.820571 4.02853 0.346909
vn -0.135445 0.988643 0.065117
v 0.822009 4.02781 0.352545
vn -0.0799564 0.974341 0.210397
v 0.874353 4.01538 0.293705
vn -0.625031 0.184934 -0.758377
v 0.817188 3.99425 0.33644
vn -0.647055 0.156538 -0.746201
v 0.820735 4.02702 0.341508
vn -0.6404 0.216484 -0.736901
v 0.933776 3.99048 0.257994
vn -0.107255 -0.98207 -0.15503
v 0.876432 3.99108 0.295693
vn -0.142589 -0.970208 -0.19587
v 0.957726 3.94949 0.512456
vn -0.0684919 -0.992414 0.102092
v 0.952467 3.95014 0.509952
vn -0.200391 -0.979524 0.0193734
v 0.96176 3.98676 0.51822
vn 0.137185 0.907963 0.395958
v 0.957727 3.98644 0.519135
vn -0.125901 0.767813 0.628181
v 0.938009 4.02959 0.264042
vn 0.105797 0.983118 0.149283
v 0.832479 4.02764 0.350541
vn 0.103844 0.983082 0.150884
v 0.934864 4.01607 0.246483
vn -0.220892 0.172359 -0.959947
v 0.93147 4.02907 0.250744
vn -0.601662 0.217198 -0.768653
v 1.07614 3.95248 0.418017
vn 0.873123 -0.326304 0.362192
v 1.07574 3.95261 0.413622
vn 0.445508 -0.862419 -0.240324
v 1.07238 3.95362 0.40751
vn 0.36462 -0.800824 -0.475114
v 1.06945 3.95598 0.401935
vn 0.767715 -0.0456191 -0.639166
v 1.01092 3.99487 0.330752
vn 0.773319 0.0143131 -0.633856
v 1.07318 3.99037 0.407253
vn 0.78177 0.094625 -0.616345
v 1.07635 3.99029 0.413182
vn 0.539771 0.812085 -0.221734
v 1.07965 3.9887 0.419202
vn 0.62356 0.781652 0.0139083
v 1.07993 3.98743 0.423422
vn 0.905357 0.0838252 0.416295
v 1.07908 3.9734 0.421463
vn 0.90159 -0.159762 0.402009
v 0.936762 3.99373 0.244991
vn 0.125901 -0.767813 -0.628181
v 1.06201 3.95254 0.413586
vn -0.103517 -0.983177 -0.15049
v 0.963019 3.9511 0.513383
vn 0.602107 -0.213062 0.769462
v 1.01806 3.98909 0.468434
vn 0.142589 0.970208 0.19587
v 0.942023 4.03004 0.254175
vn 0.200368 0.979529 -0.0193675
v 0.814563 3.99275 0.340705
vn -0.909871 -0.0131618 -0.414682
v 0.814841 3.99148 0.344925
vn -0.623563 -0.781649 -0.0139058
v 0.818143 3.98988 0.350945
vn -0.539141 -0.811383 0.225799
v 0.821314 3.98981 0.356874
vn -0.780542 -0.0728797 0.620841
v 0.884354 3.99253 0.434491
vn -0.773319 -0.0143131 0.633856
v 0.825037 4.0242 0.362192
vn -0.762281 0.0782618 0.642498
v 0.822113 4.02656 0.356617
vn -0.364382 0.799413 0.477665
v 0.818747 4.02756 0.350505
vn -0.445512 0.862416 0.240328
v 0.818346 4.0277 0.34611
vn -0.853889 0.391645 -0.342764
v 0.816181 4.01388 0.343762
vn -0.901593 0.159761 -0.402003
v 0.828245 3.98853 0.344493
vn -0.109214 -0.982107 -0.153423
v 0.953821 3.95036 0.513555
vn -0.303837 -0.876277 0.373926
v 0.956565 3.988 0.515807
vn 0.00827578 0.948229 0.317478
v 0.880619 4.02976 0.301674
vn 0.0697943 0.991747 0.107546
v 0.927922 3.9963 0.245675
vn -0.608147 0.157259 -0.778091
v 0.932651 3.99493 0.243913
vn -0.22787 -0.000536593 -0.973691
v 0.945117 3.97043 0.379024
vn -0.106366 -0.982647 -0.151958
v 0.958055 3.95029 0.514809
vn 0.191131 -0.338919 0.921196
v 0.961433 3.98806 0.514123
vn 0.136065 0.969672 0.203032
v 0.937222 4.0306 0.255955
vn 0.0762789 0.992026 0.100332
f 1//1 2//2 3//3
f 1//1 3//3 4//4
f 1//1 4//4 5//5
f 1//1 5//5 6//6
f 1//1 6//6 2//2
f 7//7 8//8 9//9
f 10//10 11//11 12//12
f 13//13 14//14 15//15
f 16//16 17//17 18//18
f 19//19 20//20 21//21
f 22//22 23//23 24//24
f 22//22 24//24 25//25
f 22//22 25//25 26//26
f 22//22 26//26 27//27
f 22//22 27//27 23//23
f 28//28 29//29 30//30
f 31//31 32//32 33//33
f 34//34 35//35 36//36
f 37//37 38//38 39//39
f 40//40 41//41 42//42
f 13//13 43//43 44//44
f 10//10 45//45 46//46
f 7//7 47//47 48//48
f 19//19 49//49 50//50
f 16//16 51//51 52//52
f 10//10 53//53 45//45
f 13//13 54//54 43//43
f 16//16 55//55 51//51
f 19//19 56//56 49//49
f 7//7 57//57 47//47
f 40//40 58//58 59//59
f 28//28 60//60 61//61
f 31//31 62//62 63//63
f 34//34 64//64 65//65
f 37//37 66//66 67//67
f 40//40 68//68 58//58
f 28//28 69//69 60//60
f 31//31 70//70 62//62
f 34//34 71//71 64//64
f 37//37 72//72 66//66
f 10//10 46//46 11//11
f 7//7 48//48 8//8
f 19//19 50//50 20//20
f 16//16 52//52 17//17
f 13//13 44//44 14//14
f 40//40 42//42 68//68
f 28//28 30//30 69//69
f 31//31 33//33 70//70
f 34//34 36//36 71//71
f 37//37 39//39 72//72
f 28//28 61//61 29//29
f 31//31 63//63 32//32
f 34//34 65//65 35//35
f 37//37 67//67 38//38
f 40//40 59//59 41//41
f 10//10 12//12 53//53
f 13//13 15//15 54//54
f 16//16 18//18 55//55
f 19//19 21//21 56//56
f 7//7 9//9 57//57
f 73//73 74//74 75//75
f 76//76 77//77 78//78
f 79//79 80//80 81//81
f 82//82 83//83 84//84
f 85//85 86//86 87//87
f 88//88 89//89 90//90
f 91//91 92//92 93//93
f 94//94 95//95 96//96
f 97//97 98//98 99//99
f 100//100 101//101 102//102
f 103//103 104//104 105//105
f 106//106 107//107 108//108
f 109//109 110//110 111//111
f 112//112 113//113 114//114
f 115//115 116//116 117//117
f 88//88 118//118 119//119
f 91//91 120//120 121//121
f 94//94 122//122 123//123
f 97//97 124//124 125//125
f 100//100 126//126 127//127
f 128//128 129//129 2//2
f 130//130 131//131 3//3
f 132//132 133//133 4//4
f 134//134 135//135 5//5
f 136//136 137//137 6//6
f 76//76 138//138 8//8
f 73//73 139//139 11//11
f 85//85 140//140 14//14
f 82//82 141//141 17//17
f 79//79 142//142 20//20
f 143//143 144//144 23//23
f 145//145 146//146 24//24
f 147//147 148//148 25//25
f 149//149 150//150 26//26
f 151//151 152//152 27//27
f 103//103 153//153 29//29
f 106//106 154//154 32//32
f 109//109 155//155 35//35
f 112//112 156//156 38//38
f 115//115 157//157 41//41
f 73//73 75//75 43//43
f 76//76 78//78 45//45
f 79//79 81//81 47//47
f 82//82 84//84 49//49
f 85//85 87//87 51//51
f 88//88 90//90 53//53
f 91//91 93//93 54//54
f 94//94 96//96 55//55
f 97//97 99//99 56//56
f 100//100 102//102 57//57
f 103//103 105//105 58//58
f 106//106 108//108 60//60
f 109//109 111//111 62//62
f 112//112 114//114 64//64
f 115//115 117//117 66//66
f 88//88 119//119 68//68
f 91//91 121//121 69//69
f 94//94 123//123 70//70
f 97//97 125//125 71//71
f 100//100 127//127 72//72
f 130//130 74//74 46//46
f 132//132 77//77 48//48
f 134//134 80//80 50//50
f 136//136 83//83 52//52
f 128//128 86//86 44//44
f 158//158 89//89 42//42
f 159//159 92//92 30//30
f 160//160 95//95 33//33
f 161//161 98//98 36//36
f 162//162 101//101 39//39
f 145//145 104//104 61//61
f 147//147 107//107 63//63
f 149//149 110//110 65//65
f 151//151 113//113 67//67
f 143//143 116//116 59//59
f 159//159 118//118 12//12
f 160//160 120//120 15//15
f 161//161 122//122 18//18
f 162//162 124//124 21//21
f 158//158 126//126 9//9
f 130//130 129//129 74//74
f 132//132 131//131 77//77
f 134//134 133//133 80//80
f 136//136 135//135 83//83
f 128//128 137//137 86//86
f 158//158 138//138 89//89
f 159//159 139//139 92//92
f 160//160 140//140 95//95
f 161//161 141//141 98//98
f 162//162 142//142 101//101
f 145//145 144//144 104//104
f 147//147 146//146 107//107
f 149//149 148//148 110//110
f 151//151 150//150 113//113
f 143//143 152//152 116//116
f 159//159 153//153 118//118
f 160//160 154//154 120//120
f 161//161 155//155 122//122
f 162//162 156//156 124//124
f 158//158 157//157 126//126
f 130//130 3//3 129//129
f 132//132 4//4 131//131
f 134//134 5//5 133//133
f 136//136 6//6 135//135
f 128//128 2//2 137//137
f 158//158 9//9 138//138
f 159//159 12//12 139//139
f 160//160 15//15 140//140
f 161//161 18//18 141//141
f 162//162 21//21 142//142
f 145//145 24//24 144//144
f 147//147 25//25 146//146
f 149//149 26//26 148//148
f 151//151 27//27 150//150
f 143//143 23//23 152//152
f 159//159 30//30 153//153
f 160//160 33//33 154//154
f 161//161 36//36 155//155
f 162//162 39//39 156//156
f 158//158 42//42 157//157
f 128//128 44//44 75//75
f 130//130 46//46 78//78
f 132//132 48//48 81//81
f 134//134 50//50 84//84
f 136//136 52//52 87//87
f 76//76 45//45 90//90
f 73//73 43//43 93//93
f 85//85 51//51 96//96
f 82//82 49//49 99//99
f 79//79 47//47 102//102
f 143//143 59//59 105//105
f 145//145 61//61 108//108
f 147//147 63//63 111//111
f 149//149 65//65 114//114
f 151//151 67//67 117//117
f 103//103 58//58 119//119
f 106//106 60//60 121//121
f 109//109 62//62 123//123
f 112//112 64//64 125//125
f 115//115 66//66 127//127
f 73//73 11//11 74//74
f 76//76 8//8 77//77
f 79//79 20//20 80//80
f 82//82 17//17 83//83
f 85//85 14//14 86//86
f 88//88 68//68 89//89
f 91//91 69//69 92//92
f 94//94 70//70 95//95
f 97//97 71//71 98//98
f 100//100 72//72 101//101
f 103//103 29//29 104//104
f 106//106 32//32 107//107
f 109//109 35//35 110//110
f 112//112 38//38 113//113
f 115//115 41//41 116//116
f 88//88 53//53 118//118
f 91//91 54//54 120//120
f 94//94 55//55 122//122
f 97//97 56//56 124//124
f 100//100 57//57 126//126
f 128//128 75//75 129//129
f 130//130 78//78 131//131
f 132//132 81//81 133//133
f 134//134 84//84 135//135
f 136//136 87//87 137//137
f 76//76 90//90 138//138
f 73//73 93//93 139//139
f 85//85 96//96 140//140
f 82//82 99//99 141//141
f 79//79 102//102 142//142
f 143//143 105//105 144//144
f 145//145 108//108 146//146
f 147//147 111//111 148//148
f 149//149 114//114 150//150
f 151//151 117//117 152//152
f 103//103 119//119 153//153
f 106//106 121//121 154//154
f 109//109 123//123 155//155
f 112//112 125//125 156//156
f 115//115 127//127 157//157
f 129//129 3//3 2//2
f 131//131 4//4 3//3
f 133//133 5//5 4//4
f 135//135 6//6 5//5
f 137//137 2//2 6//6
f 138//138 9//9 8//8
f 139//139 12//12 11//11
f 140//140 15//15 14//14
f 141//141 18//18 17//17
f 142//142 21//21 20//20
f 144//144 24//24 23//23
f 146//146 25//25 24//24
f 148//148 26//26 25//25
f 150//150 27//27 26//26
f 152//152 23//23 27//27
f 153//153 30//30 29//29
f 154//154 33//33 32//32
f 155//155 36//36 35//35
f 156//156 39//39 38//38
f 157//157 42//42 41//41
f 75//75 44//44 43//43
f 78//78 46//46 45//45
f 81//81 48//48 47//47
f 84//84 50//50 49//49
f 87//87 52//52 51//51
f 90//90 45//45 53//53
f 93//93 43//43 54//54
f 96//96 51//51 55//55
f 99//99 49//49 56//56
f 102//102 47//47 57//57
f 105//105 59//59 58//58
f 108//108 61//61 60//60
f 111//111 63//63 62//62
f 114//114 65//65 64//64
f 117//117 67//67 66//66
f 119//119 58//58 68//68
f 121//121 60//60 69//69
f 123//123 62//62 70//70
f 125//125 64//64 71//71
f 127//127 66//66 72//72
f 74//74 11//11 46//46
f 77//77 8//8 48//48
f 80//80 20//20 50//50
f 83//83 17//17 52//52
f 86//86 14//14 44//44
f 89//89 68//68 42//42
f 92//92 69//69 30//30
f 95//95 70//70 33//33
f 98//98 71//71 36//36
f 101//101 72//72 39//39
f 104//104 29//29 61//61
f 107//107 32//32 63//63
f 110//110 35//35 65//65
f 113//113 38//38 67//67
f 116//116 41//41 59//59
f 118//118 53//53 12//12
f 120//120 54//54 15//15
f 122//122 55//55 18//18
f 124//124 56//56 21//21
f 126//126 57//57 9//9
f 129//129 75//75 74//74
f 131//131 78//78 77//77
f 133//133 81//81 80//80
f 135//135 84//84 83//83
f 137//137 87//87 86//86
f 138//138 90//90 89//89
f 139//139 93//93 92//92
f 140//140 96//96 95//95
f 141//141 99//99 98//98
f 142//142 102//102 101//101
f 144//144 105//105 104//104
f 146//146 108//108 107//107
f 148//148 111//111 110//110
f 150//150 114//114 113//113
f 152//152 117//117 116//116
f 153//153 119//119 118//118
f 154//154 121//121 120//120
f 155//155 123//123 122//122
f 156//156 125//125 124//124
f 157//157 127//127 126//126
