# Created by Open3D 
# object name: part_083
# number of vertices: 162
# number of triangles: 320
v 2.17317 6.29643 0.117516
vn 0.995422 0.0841622 0.0452897
v 2.17152 6.29549 0.138009
vn 0.921733 0.354263 0.157814
v 2.17242 6.28854 0.13707
vn 0.995595 -0.0315179 0.0883024
v 2.17297 6.28755 0.115422
vn 0.990498 -0.136964 -0.0124423
v 2.17321 6.29735 0.103251
vn 0.996866 0.0122865 -0.0781541
v 2.17228 6.30388 0.105779
vn 0.922081 0.380658 0.0697637
v 2.12988 6.02335 0.0453384
vn 0.921876 -0.379694 -0.0773126
v 2.12994 6.02065 0.0662647
vn 0.952249 -0.3049 0.0160478
v 2.12701 6.01472 0.0638008
vn 0.764735 -0.635914 -0.103891
v 2.14655 6.15475 0.103873
vn 0.0564315 -0.263475 0.963014
v 2.165 6.28226 0.137562
vn 0.0236042 -0.256731 0.966195
v 2.14082 6.15557 0.104204
vn -0.0176139 -0.252878 0.967338
v 2.07897 6.31218 0.142355
vn 0.0266828 0.065032 0.997526
v 2.07928 6.31425 0.141674
vn 0.145934 0.902995 0.404109
v 1.99484 6.32544 0.143469
vn 0.0428225 0.262544 0.963969
v 2.07982 6.32163 0.106067
vn 0.0697241 0.543023 -0.836818
v 2.15962 6.30668 0.103497
vn 0.0455031 0.379915 -0.923902
v 1.99919 6.33141 0.106177
vn 0.0408699 0.380641 -0.923819
v 2.15191 6.19287 0.0732509
vn 0.101687 0.239103 -0.965655
v 2.13074 6.04291 0.0340619
vn 0.210281 0.217229 -0.953202
v 2.12555 6.03768 0.0321636
vn 0.0681132 0.242983 -0.967636
v 1.94034 6.05256 0.0485035
vn -0.995421 -0.0841727 -0.0452936
v 1.94108 6.04337 0.0669058
vn -0.923661 -0.37566 -0.0756957
v 1.94015 6.0499 0.0694343
vn -0.998808 -0.00417233 0.0486322
v 1.94054 6.06133 0.0510201
vn -0.990498 0.136962 0.012448
v 1.94094 6.05872 0.035615
vn -0.992264 0.0388049 -0.117922
v 1.94184 6.05177 0.0346759
vn -0.919841 -0.355741 -0.165353
v 1.96592 6.18259 0.106889
vn -0.101686 -0.239103 0.965655
v 1.94746 6.05506 0.0732527
vn -0.0689564 -0.246917 0.96658
v 1.97164 6.18164 0.107029
vn -0.0277889 -0.25131 0.967508
v 1.98364 6.32565 0.120681
vn -0.921877 0.379693 0.0773123
v 1.98262 6.3178 0.14024
vn -0.955461 0.269221 0.120889
v 1.9856 6.32414 0.141114
vn -0.766677 0.614497 0.186011
v 1.97129 6.22072 0.0762673
vn -0.056434 0.263476 -0.963014
v 1.9835 6.31408 0.101271
vn -0.168376 0.278248 -0.945636
v 1.98871 6.31951 0.102392
vn -0.0231845 0.261705 -0.964869
v 2.03439 6.03508 0.0303303
vn -0.0266828 -0.0650321 -0.997526
v 1.95462 6.0503 0.0318797
vn -0.000526654 0.11955 -0.992828
v 2.11505 6.02557 0.0292005
vn 0.00410815 0.118832 -0.992906
v 2.03354 6.02562 0.0666177
vn -0.069724 -0.543023 0.836818
v 2.03328 6.02415 0.065
vn -0.153197 -0.983663 -0.094537
v 2.11768 6.01254 0.0648139
vn -0.0821172 -0.698897 0.710492
v 2.15874 6.29696 0.140805
vn 0.000526649 -0.11955 0.992828
v 2.16318 6.29949 0.140657
vn 0.0696622 0.258394 0.963525
v 2.12987 6.03317 0.0714143
vn 0.166953 -0.277974 0.945969
v 2.16832 6.27573 0.135522
vn 0.167382 -0.27527 0.946684
v 2.13074 6.02946 0.0324454
vn 0.953519 -0.26111 -0.150413
v 2.13241 6.03176 0.0478158
vn 0.985635 -0.167633 -0.0205548
v 2.1659 6.2922 0.0994324
vn 0.0694055 0.247434 -0.966416
v 2.1692 6.28546 0.0981694
vn 0.213397 0.219402 -0.952011
v 2.08008 6.32311 0.107685
vn 0.152716 0.987915 0.0265041
v 2.16402 6.30877 0.10506
vn 0.108961 0.694764 -0.710936
v 2.12465 6.02775 0.0702936
vn 0.0229167 -0.261078 0.965046
v 1.99831 6.32168 0.143485
vn -0.00410815 -0.118832 0.992906
v 1.99568 6.33472 0.107871
vn 0.0821172 0.698897 -0.710492
v 2.14625 6.19417 0.0732032
vn 0.0277904 0.25131 -0.967508
v 2.12776 6.02311 0.0315709
vn 0.764168 -0.615316 -0.193479
v 1.95374 6.04058 0.0691878
vn -0.045503 -0.379915 0.923902
v 1.94935 6.03849 0.0676252
vn -0.10896 -0.694763 0.710937
v 1.98262 6.30435 0.138623
vn -0.211508 -0.216869 0.953012
v 1.94416 6.0618 0.0745157
vn -0.211929 -0.219574 0.952299
v 1.98342 6.32661 0.10642
vn -0.948919 0.312199 -0.0456643
v 1.98109 6.31712 0.118626
vn -0.985635 0.167634 0.0205519
v 1.94836 6.065 0.0351227
vn -0.0233202 0.257077 -0.96611
v 1.94504 6.07153 0.0371631
vn -0.166092 0.275243 -0.946919
v 2.03408 6.03301 0.0310112
vn -0.142414 -0.87351 -0.46551
v 1.95018 6.04776 0.0320279
vn -0.0696623 -0.258395 -0.963524
v 2.11417 6.01585 0.0665085
vn -0.0408699 -0.380641 0.923819
v 1.98782 6.30957 0.140521
vn -0.0682776 -0.242569 0.967729
v 1.98635 6.33254 0.108884
vn -0.761932 0.640218 0.0978791
v 1.97707 6.22024 0.0760286
vn 0.0176124 0.252878 -0.967338
v 2.11852 6.02181 0.0292166
vn -0.0428225 -0.262544 -0.963969
v 2.16342 6.29135 0.139764
vn -0.00774677 -0.209103 0.977863
v 2.16876 6.28838 0.138789
vn 0.137177 -0.219839 0.965843
v 2.16691 6.29549 0.140288
vn 0.11432 -0.101486 0.988247
v 2.13002 6.02491 0.0685996
vn 0.477511 -0.306619 0.823388
v 2.13286 6.03303 0.0695808
vn 0.983519 -0.173123 0.0521358
v 2.15102 6.15429 0.102904
vn 0.488888 -0.294538 0.821119
v 2.13087 6.03432 0.0324935
vn 0.51837 0.129907 -0.845232
v 2.15613 6.19063 0.0737207
vn 0.527823 0.137825 -0.838098
v 2.13366 6.04185 0.0357231
vn 0.984084 -0.126572 -0.124729
v 2.1643 6.30123 0.101878
vn 0.0376073 0.29454 -0.954899
v 2.16777 6.30505 0.103593
vn 0.158767 0.392147 -0.906098
v 2.16964 6.29809 0.101511
vn 0.181971 0.277649 -0.943291
v 2.07985 6.32017 0.121275
vn 0.151518 0.955641 0.252573
v 2.16354 6.30132 0.139362
vn 0.177638 0.941151 0.287541
v 2.1643 6.30973 0.107095
vn 0.179283 0.960948 0.210799
v 2.12033 6.01963 0.0679466
vn -0.021682 -0.297001 0.954631
v 2.12243 6.01495 0.066139
vn 0.0628165 -0.426318 0.90239
v 2.12637 6.02101 0.068124
vn 0.120622 -0.324285 0.938237
v 1.99214 6.31775 0.142624
vn -0.0236717 -0.206649 0.978129
v 1.99612 6.30839 0.140608
vn -0.0234035 -0.249735 0.968031
v 2.07788 6.30521 0.14147
vn -0.0158811 -0.208973 0.977792
v 1.98983 6.33452 0.108317
vn -0.321234 0.944046 -0.0747428
v 1.98917 6.33174 0.122222
vn -0.33244 0.914522 0.230506
v 1.99577 6.3357 0.10991
vn 0.125293 0.969272 0.211693
v 2.06168 6.20734 0.0745703
vn 0.0227011 0.252097 -0.967436
v 1.99703 6.31842 0.102104
vn 0.0220879 0.255042 -0.966678
v 2.15764 6.29367 0.0994223
vn 0.0241973 0.254717 -0.966713
v 2.12434 6.0217 0.0299584
vn 0.335004 -0.791278 -0.511518
v 2.12329 6.02451 0.0294442
vn 0.107272 0.067325 -0.991948
v 2.12798 6.02588 0.0305357
vn 0.411446 -0.0411358 -0.910506
v 1.94906 6.04603 0.0708068
vn -0.0376072 -0.294539 0.954899
v 1.94372 6.04917 0.0711743
vn -0.181969 -0.277649 0.943291
v 1.94559 6.0422 0.0690921
vn -0.158766 -0.392145 0.906099
v 1.9825 6.31294 0.140192
vn -0.516692 -0.128516 0.846471
v 1.97971 6.3054 0.136962
vn -0.986777 0.136945 0.0867007
v 1.96149 6.18351 0.106069
vn -0.527815 -0.137827 0.838102
v 1.98334 6.32234 0.104086
vn -0.475079 0.309181 -0.823837
v 1.9666 6.21984 0.0768859
vn -0.488881 0.294538 -0.821123
v 1.9805 6.31423 0.103104
vn -0.980681 0.179556 -0.0776205
v 1.94995 6.0559 0.032921
vn 0.00774676 0.209103 -0.977863
v 1.94645 6.05177 0.0323974
vn -0.11432 0.101488 -0.988246
v 1.9446 6.05888 0.0338961
vn -0.137177 0.219839 -0.965843
v 2.03368 6.02894 0.0443026
vn -0.151517 -0.955641 -0.252573
v 1.94907 6.03753 0.0655898
vn -0.179312 -0.95975 -0.216165
v 1.94982 6.04594 0.0333231
vn -0.17736 -0.939576 -0.292814
v 2.11633 6.02883 0.0705807
vn -0.0219985 -0.254457 0.966834
v 2.03458 6.03212 0.0692913
vn -0.0294763 -0.294716 0.95513
v 1.99007 6.32275 0.143241
vn -0.107272 -0.067325 0.991948
v 1.98611 6.31653 0.141839
vn -0.165417 -0.173199 0.970896
v 1.99093 6.33231 0.106546
vn -0.0628165 0.426318 -0.90239
v 1.98621 6.33063 0.106623
vn -0.371496 0.484743 -0.791843
v 2.11724 6.03887 0.0320769
vn 0.023462 0.250117 -0.967931
v 1.95663 6.06362 0.0347591
vn 0.0213635 0.25044 -0.967896
v 2.12436 6.01734 0.043469
vn 0.33244 -0.914522 -0.230506
v 2.11835 6.01996 0.0305087
vn -0.123364 -0.9479 -0.293714
v 2.16874 6.29785 0.139725
vn 0.587162 0.692135 0.41975
v 2.17093 6.29278 0.139051
vn 0.434211 -0.0892049 0.896383
v 2.17108 6.28387 0.137042
vn 0.481371 -0.282353 0.829795
v 2.17136 6.27586 0.133761
vn 0.984506 -0.166903 0.0537785
v 2.15307 6.15971 0.0811802
vn 0.988194 -0.152318 -0.0165001
v 2.17216 6.28468 0.0999036
vn 0.986164 -0.123609 -0.110463
v 2.17192 6.29328 0.100936
vn 0.518988 0.155958 -0.840433
v 2.17177 6.30203 0.103524
vn 0.474145 0.354395 -0.805972
v 2.16955 6.30682 0.105316
vn 0.587917 0.80391 -0.0899013
v 2.16979 6.3039 0.119206
vn 0.599661 0.770848 0.21494
v 2.12715 6.01662 0.0660623
vn 0.371496 -0.484743 0.791843
v 2.15673 6.28364 0.137926
vn -0.0213011 -0.250059 0.967996
v 1.99501 6.3273 0.142176
vn 0.123404 0.949511 0.288446
v 2.07878 6.31514 0.103394
vn 0.0294763 0.294716 -0.95513
v 2.12725 6.03073 0.0308458
vn 0.165417 0.173199 -0.970896
v 1.94381 6.04044 0.067369
vn -0.597067 -0.802187 0.00257802
v 1.94159 6.04522 0.0691611
vn -0.474145 -0.354395 0.805972
v 1.94144 6.05398 0.071749
vn -0.52055 -0.152781 0.840051
v 1.9412 6.06257 0.0727815
vn -0.987763 0.130725 0.0850574
v 1.96045 6.1894 0.084397
vn -0.988194 0.152318 0.0165018
v 1.942 6.0714 0.0389238
vn -0.980056 0.176177 -0.0919303
v 1.94228 6.06339 0.0356428
vn -0.482485 0.284177 -0.828524
v 1.94243 6.05448 0.0336345
vn -0.434206 0.0892084 -0.896386
v 1.94462 6.0494 0.0329597
vn -0.574173 -0.651132 -0.496339
v 1.94373 6.04518 0.0464855
vn -0.599667 -0.770844 -0.214939
v 1.95572 6.05359 0.0732628
vn -0.0241013 -0.254133 0.966869
v 1.98538 6.32138 0.142149
vn -0.411446 0.0411358 0.910506
v 1.98699 6.32624 0.104561
vn -0.120622 0.324285 -0.938237
v 2.03548 6.04204 0.0312149
vn 0.0158811 0.208973 -0.977792
v 2.1176 6.01155 0.0627753
vn -0.125077 -0.968111 -0.217065
v 2.12354 6.01274 0.0643677
vn 0.327622 -0.944721 -0.0128658
v 2.05623 6.16859 0.105691
vn -0.0227011 -0.252097 0.967436
v 1.98902 6.32556 0.142727
vn -0.337543 0.834663 0.435203
v 1.99303 6.32763 0.104739
vn 0.021682 0.297001 -0.954631
v 2.12122 6.0295 0.0300606
vn 0.0236717 0.206649 -0.978129
f 1//1 2//2 3//3
f 1//1 3//3 4//4
f 1//1 4//4 5//5
f 1//1 5//5 6//6
f 1//1 6//6 2//2
f 7//7 8//8 9//9
f 10//10 11//11 12//12
f 13//13 14//14 15//15
f 16//16 17//17 18//18
f 19//19 20//20 21//21
f 22//22 23//23 24//24
f 22//22 24//24 25//25
f 22//22 25//25 26//26
f 22//22 26//26 27//27
f 22//22 27//27 23//23
f 28//28 29//29 30//30
f 31//31 32//32 33//33
f 34//34 35//35 36//36
f 37//37 38//38 39//39
f 40//40 41//41 42//42
f 13//13 43//43 44//44
f 10//10 45//45 46//46
f 7//7 47//47 48//48
f 19//19 49//49 50//50
f 16//16 51//51 52//52
f 10//10 53//53 45//45
f 13//13 54//54 43//43
f 16//16 55//55 51//51
f 19//19 56//56 49//49
f 7//7 57//57 47//47
f 40//40 58//58 59//59
f 28//28 60//60 61//61
f 31//31 62//62 63//63
f 34//34 64//64 65//65
f 37//37 66//66 67//67
f 40//40 68//68 58//58
f 28//28 69//69 60//60
f 31//31 70//70 62//62
f 34//34 71//71 64//64
f 37//37 72//72 66//66
f 10//10 46//46 11//11
f 7//7 48//48 8//8
f 19//19 50//50 20//20
f 16//16 52//52 17//17
f 13//13 44//44 14//14
f 40//40 42//42 68//68
f 28//28 30//30 69//69
f 31//31 33//33 70//70
f 34//34 36//36 71//71
f 37//37 39//39 72//72
f 28//28 61//61 29//29
f 31//31 63//63 32//32
f 34//34 65//65 35//35
f 37//37 67//67 38//38
f 40//40 59//59 41//41
f 10//10 12//12 53//53
f 13//13 15//15 54//54
f 16//16 18//18 55//55
f 19//19 21//21 56//56
f 7//7 9//9 57//57
f 73//73 74//74 75//75
f 76//76 77//77 78//78
f 79//79 80//80 81//81
f 82//82 83//83 84//84
f 85//85 86//86 87//87
f 88//88 89//89 90//90
f 91//91 92//92 93//93
f 94//94 95//95 96//96
f 97//97 98//98 99//99
f 100//100 101//101 102//102
f 103//103 104//104 105//105
f 106//106 107//107 108//108
f 109//109 110//110 111//111
f 112//112 113//113 114//114
f 115//115 116//116 117//117
f 88//88 118//118 119//119
f 91//91 120//120 121//121
f 94//94 122//122 123//123
f 97//97 124//124 125//125
f 100//100 126//126 127//127
f 128//128 129//129 2//2
f 130//130 131//131 3//3
f 132//132 133//133 4//4
f 134//134 135//135 5//5
f 136//136 137//137 6//6
f 76//76 138//138 8//8
f 73//73 139//139 11//11
f 85//85 140//140 14//14
f 82//82 141//141 17//17
f 79//79 142//142 20//20
f 143//143 144//144 23//23
f 145//145 146//146 24//24
f 147//147 148//148 25//25
f 149//149 150//150 26//26
f 151//151 152//152 27//27
f 103//103 153//153 29//29
f 106//106 154//154 32//32
f 109//109 155//155 35//35
f 112//112 156//156 38//38
f 115//115 157//157 41//41
f 73//73 75//75 43//43
f 76//76 78//78 45//45
f 79//79 81//81 47//47
f 82//82 84//84 49//49
f 85//85 87//87 51//51
f 88//88 90//90 53//53
f 91//91 93//93 54//54
f 94//94 96//96 55//55
f 97//97 99//99 56//56
f 100//100 102//102 57//57
f 103//103 105//105 58//58
f 106//106 108//108 60//60
f 109//109 111//111 62//62
f 112//112 114//114 64//64
f 115//115 117//117 66//66
f 88//88 119//119 68//68
f 91//91 121//121 69//69
f 94//94 123//123 70//70
f 97//97 125//125 71//71
f 100//100 127//127 72//72
f 130//130 74//74 46//46
f 132//132 77//77 48//48
f 134//134 80//80 50//50
f 136//136 83//83 52//52
f 128//128 86//86 44//44
f 158//158 89//89 42//42
f 159//159 92//92 30//30
f 160//160 95//95 33//33
f 161//161 98//98 36//36
f 162//162 101//101 39//39
f 145//145 104//104 61//61
f 147//147 107//107 63//63
f 149//149 110//110 65//65
f 151//151 113//113 67//67
f 143//143 116//116 59//59
f 159//159 118//118 12//12
f 160//160 120//120 15//15
f 161//161 122//122 18//18
f 162//162 124//124 21//21
f 158//158 126//126 9//9
f 130//130 129//129 74//74
f 132//132 131//131 77//77
f 134//134 133//133 80//80
f 136//136 135//135 83//83
f 128//128 137//137 86//86
f 158//158 138//138 89//89
f 159//159 139//139 92//92
f 160//160 140//140 95//95
f 161//161 141//141 98//98
f 162//162 142//142 101//101
f 145//145 144//144 104//104
f 147//147 146//146 107//107
f 149//149 148//148 110//110
f 151//151 150//150 113//113
f 143//143 152//152 116//116
f 159//159 153//153 118//118
f 160//160 154//154 120//120
f 161//161 155//155 122//122
f 162//162 156//156 124//124
f 158//158 157//157 126//126
f 130//130 3//3 129//129
f 132//132 4//4 131//131
f 134//134 5//5 133//133
f 136//136 6//6 135//135
f 128//128 2//2 137//137
f 158//158 9//9 138//138
f 159//159 12//12 139//139
f 160//160 15//15 140//140
f 161//161 18//18 141//141
f 162//162 21//21 142//142
f 145//145 24//24 144//144
f 147//147 25//25 146//146
f 149//149 26//26 148//148
f 151//151 27//27 150//150
f 143//143 23//23 152//152
f 159//159 30//30 153//153
f 160//160 33//33 154//154
f 161//161 36//36 155//155
f 162//162 39//39 156//156
f 158//158 42//42 157//157
f 128//128 44//44 75//75
f 130//130 46//46 78//78
f 132//132 48//48 81//81
f 134//134 50//50 84//84
f 136//136 52//52 87//87
f 76//76 45//45 90//90
f 73//73 43//43 93//93
f 85//85 51//51 96//96
f 82//82 49//49 99//99
f 79//79 47//47 102//102
f 143//143 59//59 105//105
f 145//145 61//61 108//108
f 147//147 63//63 111//111
f 149//149 65//65 114//114
f 151//151 67//67 117//117
f 103//103 58//58 119//119
f 106//106 60//60 121//121
f 109//109 62//62 123//123
f 112//112 64//64 125//125
f 115//115 66//66 127//127
f 73//73 11//11 74//74
f 76//76 8//8 77//77
f 79//79 20//20 80//80
f 82//82 17//17 83//83
f 85//85 14//14 86//86
f 88//88 68//68 89//89
f 91//91 69//69 92//92
f 94//94 70//70 95//95
f 97//97 71//71 98//98
f 100//100 72//72 101//101
f 103//103 29//29 104//104
f 106//106 32//32 107//107
f 109//109 35//35 110//110
f 112//112 38//38 113//113
f 115//115 41//41 116//116
f 88//88 53//53 118//118
f 91//91 54//54 120//120
f 94//94 55//55 122//122
f 97//97 56//56 124//124
f 100//100 57//57 126//126
f 128//128 75//75 129//129
f 130//130 78//78 131//131
f 132//132 81//81 133//133
f 134//134 84//84 135//135
f 136//136 87//87 137//137
f 76//76 90//90 138//138
f 73//73 93//93 139//139
f 85//85 96//96 140//140
f 82//82 99//99 141//141
f 79//79 102//102 142//142
f 143//143 105//105 144//144
f 145//145 108//108 146//146
f 147//147 111//111 148//148
f 149//149 114//114 150//150
f 151//151 117//117 152//152
f 103//103 119//119 153//153
f 106//106 121//121 154//154
f 109//109 123//123 155//155
f 112//112 125//125 156//156
f 115//115 127//127 157//157
f 129//129 3//3 2//2
f 131//131 4//4 3//3
f 133//133 5//5 4//4
f 135//135 6//6 5//5
f 137//137 2//2 6//6
f 138//138 9//9 8//8
f 139//139 12//12 11//11
f 140//140 15//15 14//14
f 141//141 18//18 17//17
f 142//142 21//21 20//20
f 144//144 24//24 23//23
f 146//146 25//25 24//24
f 148//148 26//26 25//25
f 150//150 27//27 26//26
f 152//152 23//23 27//27
f 153//153 30//30 29//29
f 154//154 33//33 32//32
f 155//155 36//36 35//35
f 156//156 39//39 38//38
f 157//157 42//42 41//41
f 75//75 44//44 43//43
f 78//78 46//46 45//45
f 81//81 48//48 47//47
f 84//84 50//50 49//49
f 87//87 52//52 51//51
f 90//90 45//45 53//53
f 93//93 43//43 54//54
f 96//96 51//51 55//55
f 99//99 49//49 56//56
f 102//102 47//47 57//57
f 105//105 59//59 58//58
f 108//108 61//61 60//60
f 111//111 63//63 62//62
f 114//114 65//65 64//64
f 117//117 67//67 66//66
f 119//119 58//58 68//68
f 121//121 60//60 69//69
f 123//123 62//62 70//70
f 125//125 64//64 71//71
f 127//127 66//66 72//72
f 74//74 11//11 46//46
f 77//77 8//8 48//48
f 80//80 20//20 50//50
f 83//83 17//17 52//52
f 86//86 14//14 44//44
f 89//89 68//68 42//42
f 92//92 69//69 30//30
f 95//95 70//70 33//33
f 98//98 71//71 36//36
f 101//101 72//72 39//39
f 104//104 29//29 61//61
f 107//107 32//32 63//63
f 110//110 35//35 65//65
f 113//113 38//38 67//67
f 116//116 41//41 59//59
f 118//118 53//53 12//12
f 120//120 54//54 15//15
f 122//122 55//55 18//18
f 124//124 56//56 21//21
f 126//126 57//57 9//9
f 129//129 75//75 74//74
f 131//131 78//78 77//77
f 133//133 81//81 80//80
f 135//135 84//84 83//83
f 137//137 87//87 86//86
f 138//138 90//90 89//89
f 139//139 93//93 92//92
f 140//140 96//96 95//95
f 141//141 99//99 98//98
f 142//142 102//102 101//101
f 144//144 105//105 104//104
f 146//146 108//108 107//107
f 148//148 111//111 110//110
f 150//150 114//114 113//113
f 152//152 117//117 116//116
f 153//153 119//119 118//118
f 154//154 121//121 120//120
f 155//155 123//123 122//122
f 156//156 125//125 124//124
f 157//157 127//127 126//126
