# Created by Open3D 
# object name: part_057
# number of vertices: 162
# number of triangles: 320
v 2.75331 6.4635 2.0478
vn 0.0314785 -0.0855647 -0.995835
v 2.77066 6.44311 2.05077
vn 0.0952207 -0.126957 -0.987327
v 2.7407 6.44298 2.04961
vn 0.0106155 -0.143128 -0.989647
v 2.71311 6.4643 2.04735
vn -0.0114967 -0.0844775 -0.996359
v 2.74162 6.4778 2.04665
vn 0.0143936 -0.00141978 -0.999895
v 2.77153 6.47629 2.04795
vn 0.0984095 -0.0400255 -0.994341
v 1.48441 6.49823 2.06326
vn -0.0603383 -0.0830519 -0.994717
v 1.49593 6.47705 2.06477
vn -0.0425103 -0.141676 -0.989
v 1.46606 6.47882 2.06666
vn -0.126024 -0.1209 -0.984633
v 2.11831 6.45814 2.06116
vn -0.0275215 -0.999535 -0.0131582
v 2.70963 6.44205 2.05537
vn -0.0265024 -0.99926 0.0278907
v 2.11837 6.4583 2.06588
vn -0.0263245 -0.996569 0.0784667
v 2.78515 6.44714 2.12731
vn 0.0491346 -0.995287 0.0835996
v 2.79341 6.44809 2.12711
vn 0.795827 -0.604225 0.039645
v 2.7871 6.45333 2.19655
vn 0.103373 -0.989456 0.101444
v 2.78613 6.4845 2.12413
vn 0.101456 0.991165 -0.0854323
v 2.77253 6.47978 2.05821
vn 0.0571915 0.994479 -0.0879777
v 2.77444 6.49096 2.19026
vn 0.0572677 0.994969 -0.0822038
v 2.2504 6.49376 2.05622
vn 0.0246944 0.983018 -0.181841
v 1.55579 6.51222 2.06262
vn 0.0218925 0.949565 -0.312804
v 1.52806 6.51368 2.06643
vn 0.0249509 0.989689 -0.141045
v 1.48667 6.51145 2.21926
vn -0.031479 0.0855647 0.995835
v 1.46828 6.49179 2.2197
vn -0.0973341 0.0467198 0.994155
v 1.49819 6.49028 2.221
vn -0.0136801 0.0267718 0.999548
v 1.52687 6.51021 2.21976
vn 0.0114966 0.0844775 0.996359
v 1.49911 6.5251 2.21804
vn -0.0100024 0.168179 0.985706
v 1.46915 6.52497 2.21688
vn -0.0959446 0.133634 0.986376
v 2.12046 6.47074 2.20983
vn -0.0246942 -0.983016 0.181851
v 1.52914 6.48677 2.21562
vn -0.02588 -0.98962 0.141357
v 2.12039 6.47009 2.20514
vn -0.0261422 -0.995504 0.0910414
v 2.75558 6.47671 2.20381
vn 0.0603378 0.083052 0.994717
v 2.74296 6.45621 2.20584
vn 0.0394457 0.0253194 0.998901
v 2.77287 6.45607 2.20381
vn 0.123908 0.0406644 0.99146
v 2.25256 6.50635 2.2049
vn 0.0275214 0.999535 0.013147
v 2.68503 6.49432 2.20175
vn 0.0292333 0.988079 0.151146
v 2.71278 6.49366 2.19788
vn 0.0276666 0.999239 -0.0274771
v 1.45466 6.52094 2.14034
vn -0.0491345 0.995287 -0.0835995
v 1.46829 6.52672 2.20617
vn -0.00474837 0.996666 -0.0814498
v 1.46637 6.51553 2.07412
vn -0.00483456 0.996177 -0.0872243
v 1.45367 6.48358 2.14352
vn -0.101456 -0.991165 0.0854323
v 1.44547 6.48499 2.14352
vn -0.826487 -0.559812 0.0594042
v 1.45175 6.4781 2.07422
vn -0.155393 -0.985604 0.0666134
v 2.77152 6.44136 2.06148
vn 0.00474836 -0.996666 0.0814498
v 2.78509 6.4416 2.05798
vn 0.102833 -0.992672 0.0634661
v 1.55478 6.47376 2.0659
vn -0.0291899 -0.988353 -0.149354
v 2.6818 6.44291 2.05217
vn -0.0285592 -0.988373 -0.149342
v 1.49684 6.51187 2.06181
vn -0.03878 3.5103e-05 -0.999248
v 1.52458 6.49683 2.06182
vn -0.0173931 -0.084317 -0.996287
v 2.71066 6.48131 2.05203
vn 0.026009 0.989557 -0.141779
v 2.68281 6.48137 2.0489
vn 0.02246 0.948489 -0.316012
v 2.79433 6.48309 2.12413
vn 0.713416 0.697294 -0.0694105
v 2.78605 6.47825 2.05486
vn 0.154848 0.982386 -0.10459
v 1.52703 6.47442 2.06977
vn -0.0275253 -0.999232 0.0278994
v 2.77343 6.45255 2.19353
vn 0.00483455 -0.996177 0.0872243
v 2.78806 6.48998 2.19343
vn 0.155393 0.985604 -0.0666134
v 2.2521 6.49435 2.06089
vn 0.0261422 0.995504 -0.0910414
v 1.46693 6.51201 2.06384
vn -0.124622 -0.0339211 -0.991624
v 1.46728 6.4883 2.20944
vn -0.0571916 -0.994479 0.0879777
v 1.45375 6.48983 2.21279
vn -0.154849 -0.982386 0.10459
v 2.68402 6.45586 2.20503
vn -0.0218385 -0.949107 0.314196
v 1.55699 6.48671 2.21875
vn -0.0224691 -0.949084 0.314221
v 2.74388 6.49103 2.20288
vn 0.0431719 0.16672 0.985059
v 2.7154 6.47768 2.20528
vn 0.0173932 0.084317 0.996287
v 1.53018 6.52603 2.21228
vn 0.0265872 0.999249 -0.0281905
v 1.55801 6.52517 2.21548
vn 0.0285713 0.988602 0.147819
v 1.44639 6.51999 2.14054
vn -0.675684 0.73532 -0.0524925
v 1.45472 6.52648 2.20967
vn -0.102833 0.992672 -0.0634662
v 1.46536 6.47712 2.07739
vn -0.0572678 -0.994969 0.0822038
v 2.71174 6.4544 2.20122
vn -0.0248575 -0.989649 0.14134
v 2.77375 6.48926 2.20099
vn 0.127086 0.127527 0.98366
v 2.25411 6.50615 2.20015
vn 0.0263245 0.996569 -0.0784665
v 1.45271 6.51475 2.0711
vn -0.103373 0.989456 -0.101444
v 2.74965 6.44128 2.05731
vn -0.0160205 -0.997072 0.0747755
v 2.73946 6.44148 2.05272
vn -0.0162279 -0.99456 -0.10289
v 2.77013 6.44114 2.05471
vn 0.0106847 -0.998433 -0.0549224
v 1.51667 6.47535 2.06512
vn -0.0324278 -0.858703 -0.511447
v 1.55415 6.47537 2.0633
vn -0.0165566 -0.142637 -0.989637
v 2.11828 6.45875 2.05741
vn -0.029694 -0.85268 -0.521589
v 1.51765 6.51252 2.06196
vn 0.0105716 0.759324 -0.650627
v 2.24417 6.49269 2.05271
vn 0.0125875 0.7527 -0.658243
v 1.55507 6.51023 2.06033
vn -0.0126182 0.0064994 -0.999899
v 2.75068 6.48029 2.05399
vn 0.036443 0.994837 -0.0947149
v 2.77112 6.47892 2.0515
vn 0.0626076 0.972883 -0.222665
v 2.74047 6.47986 2.04945
vn 0.0353136 0.962358 -0.26948
v 2.79659 6.46918 2.12527
vn 0.999551 -0.0273642 -0.0121737
v 2.79166 6.44313 2.05768
vn 0.969498 -0.198556 -0.1437
v 2.79254 6.47635 2.05485
vn 0.974622 0.143791 -0.17157
v 1.48708 6.47585 2.07268
vn -0.03673 -0.996504 0.0750319
v 1.46658 6.47683 2.07059
vn -0.066609 -0.99632 -0.0539357
v 1.49716 6.47549 2.06785
vn -0.0407059 -0.993892 -0.102574
v 2.7517 6.45323 2.19829
vn -0.0157297 -0.995404 0.0944653
v 2.71231 6.45361 2.1944
vn -0.025697 -0.99596 0.0860475
v 2.75385 6.44707 2.12777
vn -0.0161299 -0.996282 0.0846282
v 2.78384 6.48989 2.19822
vn 0.305771 0.516225 0.80001
v 2.78681 6.47571 2.19975
vn 0.338481 0.0709266 0.938296
v 2.79455 6.4881 2.19357
vn 0.978803 0.168218 0.11682
v 2.25362 6.50031 2.13051
vn 0.0262339 0.996056 -0.0847546
v 2.71336 6.49326 2.19103
vn 0.0269088 0.996148 -0.08346
v 2.71144 6.48206 2.05883
vn 0.0268708 0.995927 -0.0860649
v 1.4569 6.51362 2.06642
vn -0.281932 0.389022 -0.877027
v 1.46757 6.51461 2.06738
vn -0.0146943 0.975009 -0.221678
v 1.4777 6.51342 2.06372
vn -0.0302842 0.812953 -0.581541
v 1.48913 6.48779 2.21366
vn -0.036443 -0.994837 0.094715
v 1.49934 6.48822 2.2182
vn -0.0353136 -0.962358 0.26948
v 1.46869 6.48916 2.21615
vn -0.0626076 -0.972883 0.222665
v 2.72216 6.45556 2.20569
vn -0.0102166 -0.760481 0.64928
v 2.68474 6.45785 2.20732
vn 0.0134803 0.0258351 0.999575
v 2.12054 6.47197 2.21342
vn -0.0125875 -0.7527 0.658243
v 2.72314 6.49273 2.20253
vn 0.033011 0.859971 0.509274
v 2.24643 6.50591 2.20872
vn 0.029694 0.85268 0.521589
v 2.68566 6.49271 2.20435
vn 0.0171274 0.164003 0.986311
v 1.49015 6.5268 2.21035
vn 0.0160205 0.997072 -0.0747755
v 1.46968 6.52694 2.21294
vn -0.0106847 0.998433 0.0549224
v 1.50035 6.5266 2.21493
vn 0.0162279 0.99456 0.10289
v 1.44341 6.50622 2.14175
vn -0.999551 0.0273625 0.0121739
v 1.44727 6.49173 2.2128
vn -0.977902 -0.120497 0.170848
v 1.44814 6.52495 2.20997
vn -0.965003 0.221431 0.140493
v 1.52645 6.47482 2.07662
vn -0.0267709 -0.996151 0.0834631
v 1.48493 6.48181 2.14322
vn -0.0363338 -0.995729 0.0848719
v 2.77224 6.45347 2.20027
vn 0.0146943 -0.975009 0.221678
v 2.74164 6.45421 2.20307
vn -0.010835 -0.963042 0.269133
v 2.77323 6.49125 2.19706
vn 0.066609 0.99632 0.0539363
v 2.76307 6.49124 2.20082
vn 0.0753227 0.896754 0.436072
v 1.52749 6.51447 2.07325
vn 0.0257869 0.995957 -0.0860469
v 1.52941 6.52567 2.20545
vn 0.0258245 0.996177 -0.0834518
v 1.45319 6.49957 2.06729
vn -0.338482 -0.0709264 -0.938296
v 1.44613 6.5132 2.07125
vn -0.969184 0.197002 -0.147896
v 2.78077 6.44193 2.0533
vn 0.27798 -0.421656 -0.863095
v 2.75989 6.44172 2.0512
vn 0.0155227 -0.899256 -0.437146
v 2.71991 6.44241 2.05047
vn -0.0270475 -0.858875 -0.51147
v 2.68245 6.44448 2.04956
vn -0.0153599 -0.142668 -0.989651
v 2.11885 6.48098 2.05424
vn -0.0144449 -0.0843976 -0.996327
v 2.68337 6.47934 2.04659
vn -0.0116695 -0.00424724 -0.999923
v 2.72089 6.47958 2.0473
vn 0.0162417 0.761993 -0.647381
v 2.76085 6.4783 2.04809
vn 0.060547 0.810477 -0.582633
v 2.7817 6.47736 2.05028
vn 0.281355 0.373595 -0.883893
v 2.78465 6.46312 2.05107
vn 0.311159 -0.0887101 -0.946208
v 1.47674 6.47684 2.06683
vn -0.0753226 -0.896754 -0.436071
v 2.71039 6.44241 2.0622
vn -0.0257347 -0.99618 0.083449
v 2.79368 6.45488 2.1964
vn 0.973713 -0.173925 0.147079
v 2.75488 6.48627 2.12443
vn 0.0363339 0.995729 -0.084872
v 1.49817 6.51387 2.06458
vn 0.010835 0.963042 -0.269133
v 1.45811 6.49072 2.21737
vn -0.295793 -0.254766 0.920653
v 1.47895 6.48978 2.21956
vn -0.0605469 -0.810478 0.582632
v 1.51892 6.4885 2.22035
vn -0.0155998 -0.760379 0.649293
v 1.55643 6.48873 2.22106
vn 0.0122836 0.025867 0.99959
v 2.12115 6.49441 2.21279
vn 0.014445 0.0843976 0.996327
v 1.55735 6.52359 2.21809
vn 0.0161522 0.174596 0.984508
v 1.5199 6.52567 2.21718
vn 0.0274435 0.857961 0.512981
v 1.47992 6.52636 2.21645
vn -0.0155228 0.899256 0.437146
v 1.45904 6.52615 2.21435
vn -0.257517 0.531652 0.806865
v 1.45534 6.51216 2.21597
vn -0.31116 0.0887096 0.946208
v 1.52837 6.48602 2.20882
vn -0.0267331 -0.995931 0.0860586
v 2.7621 6.45466 2.20394
vn 0.0302842 -0.812953 0.581541
v 2.74265 6.49259 2.1998
vn 0.0407059 0.993892 0.102575
v 1.48596 6.52101 2.13988
vn 0.0161299 0.996282 -0.0846282
v 1.44526 6.47998 2.07408
vn -0.982117 -0.145127 -0.119932
v 1.45596 6.47819 2.06943
vn -0.32155 -0.40524 -0.855796
v 2.11938 6.46412 2.13552
vn -0.0262339 -0.996056 0.0847546
v 2.78291 6.45446 2.20123
vn 0.303736 -0.271183 0.913348
v 2.75272 6.49223 2.19497
vn 0.03673 0.996504 -0.0750319
v 1.48811 6.51485 2.06936
vn 0.0157297 0.995404 -0.0944652
f 1//1 2//2 3//3
f 1//1 3//3 4//4
f 1//1 4//4 5//5
f 1//1 5//5 6//6
f 1//1 6//6 2//2
f 7//7 8//8 9//9
f 10//10 11//11 12//12
f 13//13 14//14 15//15
f 16//16 17//17 18//18
f 19//19 20//20 21//21
f 22//22 23//23 24//24
f 22//22 24//24 25//25
f 22//22 25//25 26//26
f 22//22 26//26 27//27
f 22//22 27//27 23//23
f 28//28 29//29 30//30
f 31//31 32//32 33//33
f 34//34 35//35 36//36
f 37//37 38//38 39//39
f 40//40 41//41 42//42
f 13//13 43//43 44//44
f 10//10 45//45 46//46
f 7//7 47//47 48//48
f 19//19 49//49 50//50
f 16//16 51//51 52//52
f 10//10 53//53 45//45
f 13//13 54//54 43//43
f 16//16 55//55 51//51
f 19//19 56//56 49//49
f 7//7 57//57 47//47
f 40//40 58//58 59//59
f 28//28 60//60 61//61
f 31//31 62//62 63//63
f 34//34 64//64 65//65
f 37//37 66//66 67//67
f 40//40 68//68 58//58
f 28//28 69//69 60//60
f 31//31 70//70 62//62
f 34//34 71//71 64//64
f 37//37 72//72 66//66
f 10//10 46//46 11//11
f 7//7 48//48 8//8
f 19//19 50//50 20//20
f 16//16 52//52 17//17
f 13//13 44//44 14//14
f 40//40 42//42 68//68
f 28//28 30//30 69//69
f 31//31 33//33 70//70
f 34//34 36//36 71//71
f 37//37 39//39 72//72
f 28//28 61//61 29//29
f 31//31 63//63 32//32
f 34//34 65//65 35//35
f 37//37 67//67 38//38
f 40//40 59//59 41//41
f 10//10 12//12 53//53
f 13//13 15//15 54//54
f 16//16 18//18 55//55
f 19//19 21//21 56//56
f 7//7 9//9 57//57
f 73//73 74//74 75//75
f 76//76 77//77 78//78
f 79//79 80//80 81//81
f 82//82 83//83 84//84
f 85//85 86//86 87//87
f 88//88 89//89 90//90
f 91//91 92//92 93//93
f 94//94 95//95 96//96
f 97//97 98//98 99//99
f 100//100 101//101 102//102
f 103//103 104//104 105//105
f 106//106 107//107 108//108
f 109//109 110//110 111//111
f 112//112 113//113 114//114
f 115//115 116//116 117//117
f 88//88 118//118 119//119
f 91//91 120//120 121//121
f 94//94 122//122 123//123
f 97//97 124//124 125//125
f 100//100 126//126 127//127
f 128//128 129//129 2//2
f 130//130 131//131 3//3
f 132//132 133//133 4//4
f 134//134 135//135 5//5
f 136//136 137//137 6//6
f 76//76 138//138 8//8
f 73//73 139//139 11//11
f 85//85 140//140 14//14
f 82//82 141//141 17//17
f 79//79 142//142 20//20
f 143//143 144//144 23//23
f 145//145 146//146 24//24
f 147//147 148//148 25//25
f 149//149 150//150 26//26
f 151//151 152//152 27//27
f 103//103 153//153 29//29
f 106//106 154//154 32//32
f 109//109 155//155 35//35
f 112//112 156//156 38//38
f 115//115 157//157 41//41
f 73//73 75//75 43//43
f 76//76 78//78 45//45
f 79//79 81//81 47//47
f 82//82 84//84 49//49
f 85//85 87//87 51//51
f 88//88 90//90 53//53
f 91//91 93//93 54//54
f 94//94 96//96 55//55
f 97//97 99//99 56//56
f 100//100 102//102 57//57
f 103//103 105//105 58//58
f 106//106 108//108 60//60
f 109//109 111//111 62//62
f 112//112 114//114 64//64
f 115//115 117//117 66//66
f 88//88 119//119 68//68
f 91//91 121//121 69//69
f 94//94 123//123 70//70
f 97//97 125//125 71//71
f 100//100 127//127 72//72
f 130//130 74//74 46//46
f 132//132 77//77 48//48
f 134//134 80//80 50//50
f 136//136 83//83 52//52
f 128//128 86//86 44//44
f 158//158 89//89 42//42
f 159//159 92//92 30//30
f 160//160 95//95 33//33
f 161//161 98//98 36//36
f 162//162 101//101 39//39
f 145//145 104//104 61//61
f 147//147 107//107 63//63
f 149//149 110//110 65//65
f 151//151 113//113 67//67
f 143//143 116//116 59//59
f 159//159 118//118 12//12
f 160//160 120//120 15//15
f 161//161 122//122 18//18
f 162//162 124//124 21//21
f 158//158 126//126 9//9
f 130//130 129//129 74//74
f 132//132 131//131 77//77
f 134//134 133//133 80//80
f 136//136 135//135 83//83
f 128//128 137//137 86//86
f 158//158 138//138 89//89
f 159//159 139//139 92//92
f 160//160 140//140 95//95
f 161//161 141//141 98//98
f 162//162 142//142 101//101
f 145//145 144//144 104//104
f 147//147 146//146 107//107
f 149//149 148//148 110//110
f 151//151 150//150 113//113
f 143//143 152//152 116//116
f 159//159 153//153 118//118
f 160//160 154//154 120//120
f 161//161 155//155 122//122
f 162//162 156//156 124//124
f 158//158 157//157 126//126
f 130//130 3//3 129//129
f 132//132 4//4 131//131
f 134//134 5//5 133//133
f 136//136 6//6 135//135
f 128//128 2//2 137//137
f 158//158 9//9 138//138
f 159//159 12//12 139//139
f 160//160 15//15 140//140
f 161//161 18//18 141//141
f 162//162 21//21 142//142
f 145//145 24//24 144//144
f 147//147 25//25 146//146
f 149//149 26//26 148//148
f 151//151 27//27 150//150
f 143//143 23//23 152//152
f 159//159 30//30 153//153
f 160//160 33//33 154//154
f 161//161 36//36 155//155
f 162//162 39//39 156//156
f 158//158 42//42 157//157
f 128//128 44//44 75//75
f 130//130 46//46 78//78
f 132//132 48//48 81//81
f 134//134 50//50 84//84
f 136//136 52//52 87//87
f 76//76 45//45 90//90
f 73//73 43//43 93//93
f 85//85 51//51 96//96
f 82//82 49//49 99//99
f 79//79 47//47 102//102
f 143//143 59//59 105//105
f 145//145 61//61 108//108
f 147//147 63//63 111//111
f 149//149 65//65 114//114
f 151//151 67//67 117//117
f 103//103 58//58 119//119
f 106//106 60//60 121//121
f 109//109 62//62 123//123
f 112//112 64//64 125//125
f 115//115 66//66 127//127
f 73//73 11//11 74//74
f 76//76 8//8 77//77
f 79//79 20//20 80//80
f 82//82 17//17 83//83
f 85//85 14//14 86//86
f 88//88 68//68 89//89
f 91//91 69//69 92//92
f 94//94 70//70 95//95
f 97//97 71//71 98//98
f 100//100 72//72 101//101
f 103//103 29//29 104//104
f 106//106 32//32 107//107
f 109//109 35//35 110//110
f 112//112 38//38 113//113
f 115//115 41//41 116//116
f 88//88 53//53 118//118
f 91//91 54//54 120//120
f 94//94 55//55 122//122
f 97//97 56//56 124//124
f 100//100 57//57 126//126
f 128//128 75//75 129//129
f 130//130 78//78 131//131
f 132//132 81//81 133//133
f 134//134 84//84 135//135
f 136//136 87//87 137//137
f 76//76 90//90 138//138
f 73//73 93//93 139//139
f 85//85 96//96 140//140
f 82//82 99//99 141//141
f 79//79 102//102 142//142
f 143//143 105//105 144//144
f 145//145 108//108 146//146
f 147//147 111//111 148//148
f 149//149 114//114 150//150
f 151//151 117//117 152//152
f 103//103 119//119 153//153
f 106//106 121//121 154//154
f 109//109 123//123 155//155
f 112//112 125//125 156//156
f 115//115 127//127 157//157
f 129//129 3//3 2//2
f 131//131 4//4 3//3
f 133//133 5//5 4//4
f 135//135 6//6 5//5
f 137//137 2//2 6//6
f 138//138 9//9 8//8
f 139//139 12//12 11//11
f 140//140 15//15 14//14
f 141//141 18//18 17//17
f 142//142 21//21 20//20
f 144//144 24//24 23//23
f 146//146 25//25 24//24
f 148//148 26//26 25//25
f 150//150 27//27 26//26
f 152//152 23//23 27//27
f 153//153 30//30 29//29
f 154//154 33//33 32//32
f 155//155 36//36 35//35
f 156//156 39//39 38//38
f 157//157 42//42 41//41
f 75//75 44//44 43//43
f 78//78 46//46 45//45
f 81//81 48//48 47//47
f 84//84 50//50 49//49
f 87//87 52//52 51//51
f 90//90 45//45 53//53
f 93//93 43//43 54//54
f 96//96 51//51 55//55
f 99//99 49//49 56//56
f 102//102 47//47 57//57
f 105//105 59//59 58//58
f 108//108 61//61 60//60
f 111//111 63//63 62//62
f 114//114 65//65 64//64
f 117//117 67//67 66//66
f 119//119 58//58 68//68
f 121//121 60//60 69//69
f 123//123 62//62 70//70
f 125//125 64//64 71//71
f 127//127 66//66 72//72
f 74//74 11//11 46//46
f 77//77 8//8 48//48
f 80//80 20//20 50//50
f 83//83 17//17 52//52
f 86//86 14//14 44//44
f 89//89 68//68 42//42
f 92//92 69//69 30//30
f 95//95 70//70 33//33
f 98//98 71//71 36//36
f 101//101 72//72 39//39
f 104//104 29//29 61//61
f 107//107 32//32 63//63
f 110//110 35//35 65//65
f 113//113 38//38 67//67
f 116//116 41//41 59//59
f 118//118 53//53 12//12
f 120//120 54//54 15//15
f 122//122 55//55 18//18
f 124//124 56//56 21//21
f 126//126 57//57 9//9
f 129//129 75//75 74//74
f 131//131 78//78 77//77
f 133//133 81//81 80//80
f 135//135 84//84 83//83
f 137//137 87//87 86//86
f 138//138 90//90 89//89
f 139//139 93//93 92//92
f 140//140 96//96 95//95
f 141//141 99//99 98//98
f 142//142 102//102 101//101
f 144//144 105//105 104//104
f 146//146 108//108 107//107
f 148//148 111//111 110//110
f 150//150 114//114 113//113
f 152//152 117//117 116//116
f 153//153 119//119 118//118
f 154//154 121//121 120//120
f 155//155 123//123 122//122
f 156//156 125//125 124//124
f 157//157 127//127 126//126
