# Created by Open3D 
# object name: part_077
# number of vertices: 162
# number of triangles: 320
v 1.36879 6.37595 0.125121
vn -0.100292 0.900111 0.423959
v 1.36251 6.36627 0.142268
vn -0.377041 0.82894 0.413157
v 1.37002 6.36658 0.144028
vn -0.0126701 0.867739 0.496859
v 1.37878 6.37544 0.126043
vn 0.11097 0.891435 0.439352
v 1.37293 6.38169 0.112638
vn 0.00158386 0.941114 0.338086
v 1.36528 6.38067 0.112353
vn -0.372317 0.868773 0.326519
v 1.67995 6.32892 0.13131
vn 0.345122 0.832803 0.432815
v 1.67527 6.32045 0.150099
vn 0.249094 0.82819 0.502049
v 1.68243 6.31792 0.148631
vn 0.588703 0.683003 0.432361
v 1.52187 6.33836 0.146962
vn -0.0730409 -0.360979 0.929709
v 1.37665 6.35869 0.143325
vn -0.0793909 -0.390847 0.917026
v 1.52111 6.33302 0.144589
vn -0.0825361 -0.4277 0.900145
v 1.347 6.28069 0.101977
vn -0.367677 -0.3699 0.853222
v 1.34508 6.28151 0.10087
vn -0.987813 0.0711051 0.138457
v 1.33591 6.20377 0.0635279
vn -0.535124 -0.325219 0.779663
v 1.35012 6.29691 0.0682969
vn -0.208538 0.456977 -0.864687
v 1.36365 6.37015 0.104218
vn -0.0400027 0.449464 -0.892402
v 1.34289 6.22318 0.031552
vn -0.0405889 0.445361 -0.894431
v 1.49301 6.36023 0.110981
vn 0.0927895 0.500759 -0.860599
v 1.66363 6.33666 0.115856
vn 0.106392 0.590851 -0.799735
v 1.66993 6.3319 0.113702
vn 0.0904819 0.471908 -0.876992
v 1.65542 6.15529 0.0454614
vn 0.100285 -0.900111 -0.42396
v 1.65836 6.14759 0.0644151
vn 0.369701 -0.867045 -0.333997
v 1.65071 6.14657 0.0641303
vn 0.000668876 -0.93011 -0.36728
v 1.6454 6.15561 0.0449303
vn -0.110969 -0.891435 -0.439352
v 1.65361 6.16168 0.0327407
vn 0.0155965 -0.851815 -0.523611
v 1.66113 6.16199 0.0345006
vn 0.380824 -0.824418 -0.418698
v 1.49849 6.17289 0.0651477
vn -0.0927903 -0.500765 0.860595
v 1.64371 6.15254 0.0688344
vn -0.0867815 -0.472673 0.876955
v 1.49921 6.17802 0.0679574
vn -0.0838062 -0.436695 0.895698
v 1.34426 6.20231 0.0392724
vn -0.345114 -0.832807 -0.432816
v 1.34546 6.1927 0.0580591
vn -0.261082 -0.890557 -0.372485
v 1.33844 6.19594 0.058052
vn -0.596011 -0.721119 -0.353212
v 1.46963 6.19475 0.0291674
vn 0.0730387 0.360964 -0.929715
v 1.36322 6.20829 0.0262435
vn 0.0564123 0.255677 -0.965115
v 1.35699 6.21339 0.0276758
vn 0.074717 0.3912 -0.917268
v 1.67663 6.24756 0.0747911
vn 0.367677 0.3699 -0.853222
v 1.66319 6.17477 0.0379225
vn 0.205063 0.408238 -0.889545
v 1.68396 6.32175 0.110589
vn 0.205641 0.412343 -0.887516
v 1.67351 6.23135 0.108471
vn 0.208538 -0.456977 0.864687
v 1.67563 6.23156 0.107445
vn 0.958578 -0.223024 0.177168
v 1.68467 6.30858 0.14628
vn 0.387872 -0.439912 0.809958
v 1.36045 6.35348 0.138846
vn -0.205063 -0.408238 0.889545
v 1.3577 6.35799 0.139777
vn -0.531675 -0.300957 0.791673
v 1.66042 6.31997 0.150525
vn -0.0567351 -0.257072 0.964725
v 1.38404 6.36173 0.145028
vn -0.0592773 -0.256693 0.964673
v 1.67818 6.33556 0.118709
vn 0.263317 0.901563 0.343291
v 1.67023 6.33139 0.13184
vn 0.140293 0.887005 0.439933
v 1.37992 6.37572 0.107934
vn 0.0862818 0.473055 -0.876798
v 1.38726 6.37842 0.110359
vn 0.104128 0.593408 -0.798138
v 1.34801 6.2967 0.0693235
vn -0.936887 0.252127 -0.242229
v 1.36076 6.3739 0.106737
vn -0.384445 0.464183 -0.797957
v 1.66665 6.31486 0.149092
vn -0.075307 -0.391451 0.917112
v 1.33968 6.20651 0.0661797
vn -0.205641 -0.412343 0.887516
v 1.33897 6.21968 0.030488
vn -0.387872 0.439912 -0.809958
v 1.49189 6.35515 0.108164
vn 0.0838064 0.436696 -0.895697
v 1.6852 6.33232 0.118716
vn 0.599312 0.72195 0.345851
v 1.65998 6.15811 0.0725503
vn 0.0400027 -0.449464 0.892402
v 1.66288 6.15436 0.0700311
vn 0.384445 -0.464183 0.797957
v 1.36001 6.1916 0.0609126
vn -0.106627 -0.591843 0.79897
v 1.63638 6.14984 0.0664095
vn -0.104087 -0.592223 0.799023
v 1.34836 6.20781 0.0266695
vn -0.246145 -0.812274 -0.528795
v 1.35394 6.19965 0.0391334
vn -0.140294 -0.887004 -0.439933
v 1.64699 6.16957 0.0334437
vn 0.079065 0.391094 -0.916948
v 1.63959 6.16653 0.0317404
vn 0.0593538 0.257913 -0.964343
v 1.67855 6.24675 0.0758978
vn 0.978231 -0.0372753 -0.204143
v 1.66594 6.17027 0.0369912
vn 0.531675 0.300957 -0.791673
v 1.68075 6.30508 0.145216
vn 0.0405889 -0.445361 0.894431
v 1.35371 6.19636 0.0630665
vn -0.0908645 -0.472058 0.876872
v 1.34121 6.21033 0.0281376
vn -0.590759 -0.677602 -0.438018
v 1.46999 6.20016 0.0315319
vn 0.0825358 0.427698 -0.900146
v 1.68773 6.32449 0.11324
vn 0.535124 0.325219 -0.779663
v 1.36647 6.35752 0.141677
vn -0.123378 -0.418534 0.899782
v 1.36972 6.36249 0.144021
vn -0.112297 -0.285491 0.95178
v 1.36185 6.36109 0.142284
vn -0.220732 -0.303001 0.927075
v 1.67 6.32015 0.150784
vn 0.0019481 0.0667062 0.997771
v 1.66111 6.32345 0.150254
vn 0.122206 0.854921 0.504159
v 1.52252 6.34284 0.148148
vn -0.00786923 0.0791264 0.996834
v 1.67311 6.33628 0.117271
vn 0.144562 0.817261 -0.55784
v 1.49502 6.36368 0.113858
vn 0.135444 0.823856 -0.550378
v 1.66402 6.33858 0.118829
vn 0.137306 0.932015 0.335403
v 1.36973 6.37444 0.106513
vn 0.0428158 0.44509 -0.894462
v 1.36501 6.37748 0.108225
vn -0.0574283 0.54566 -0.836037
v 1.37292 6.37914 0.109421
vn 0.0519452 0.567992 -0.821393
v 1.34621 6.29079 0.0817855
vn -0.988583 0.14939 -0.0196627
v 1.35625 6.35907 0.138243
vn -0.98698 0.158043 0.0298925
v 1.35903 6.37348 0.108294
vn -0.979478 0.195617 -0.0485498
v 1.67608 6.31073 0.147835
vn -0.0408101 -0.43101 0.901424
v 1.68152 6.31278 0.148642
vn 0.0851887 -0.349216 0.933162
v 1.67436 6.31645 0.15008
vn -0.014126 -0.300302 0.953739
v 1.3443 6.2006 0.0640972
vn -0.125363 -0.432615 0.89282
v 1.3546 6.20389 0.0669912
vn -0.0853686 -0.432817 0.89743
v 1.3546 6.27913 0.10296
vn -0.123365 -0.425759 0.896388
v 1.33923 6.21404 0.028482
vn -0.836869 -0.169071 -0.520639
v 1.33718 6.20762 0.0409839
vn -0.918572 -0.316132 -0.237247
v 1.33721 6.21909 0.0319584
vn -0.986903 0.143057 -0.0745414
v 1.48082 6.27771 0.0697758
vn 0.0831722 0.432202 -0.897933
v 1.35791 6.2211 0.0312537
vn 0.0804246 0.431664 -0.898442
v 1.3787 6.36824 0.104003
vn 0.0806883 0.433528 -0.89752
v 1.68737 6.32959 0.116349
vn 0.89091 0.449833 -0.0626866
v 1.68467 6.32918 0.114583
vn 0.248494 0.499431 -0.829952
v 1.68268 6.33329 0.11705
vn 0.313931 0.731121 -0.60573
v 1.65391 6.15382 0.0702552
vn -0.0428158 -0.44509 0.894462
v 1.65072 6.14912 0.0673475
vn -0.0519452 -0.567992 0.821393
v 1.65863 6.15078 0.0685428
vn 0.0574283 -0.54566 0.836037
v 1.35053 6.19198 0.0594969
vn -0.14616 -0.816095 0.55913
v 1.35962 6.18968 0.0579397
vn -0.134356 -0.918054 -0.372995
v 1.49799 6.16921 0.0623006
vn -0.135444 -0.823856 0.550378
v 1.35363 6.20811 0.0259847
vn -0.00403903 -0.064071 -0.997937
v 1.47048 6.19005 0.0280107
vn 0.00786923 -0.0791264 -0.996834
v 1.36253 6.20481 0.0265144
vn -0.119813 -0.84125 -0.527202
v 1.65717 6.17074 0.0350912
vn 0.123378 0.418534 -0.899782
v 1.66178 6.16717 0.0344844
vn 0.220732 0.303001 -0.927075
v 1.65392 6.16577 0.0327476
vn 0.112297 0.285491 -0.95178
v 1.67804 6.24064 0.0883855
vn 0.988583 -0.14939 0.0196627
v 1.66461 6.15478 0.0684739
vn 0.980222 -0.193158 0.0430614
v 1.66738 6.16919 0.0385253
vn 0.987242 -0.155269 -0.0352747
v 1.66572 6.30716 0.145515
vn -0.0809754 -0.431584 0.898431
v 1.66577 6.23211 0.109149
vn -0.0428298 -0.437929 0.897989
v 1.33897 6.19908 0.062185
vn -0.248494 -0.499431 0.829952
v 1.34607 6.19515 0.0612884
vn -0.15011 -0.553162 0.819438
v 1.34212 6.21548 0.0281265
vn -0.0851887 0.349216 -0.933162
v 1.34401 6.21084 0.0267439
vn -0.166535 0.0347796 -0.985422
v 1.66903 6.32436 0.109777
vn 0.0850104 0.432871 -0.897439
v 1.64825 6.17722 0.0370283
vn 0.0847486 0.431016 -0.898356
v 1.68706 6.32376 0.129293
vn 0.918572 0.316132 0.237247
v 1.6892 6.32359 0.114861
vn 0.994668 -0.102707 -0.00928767
v 1.35953 6.36331 0.141825
vn -0.784613 0.463346 0.411938
v 1.36497 6.36497 0.143766
vn -0.20755 0.0217423 0.977983
v 1.37494 6.36474 0.144915
vn -0.020941 0.0701989 0.997313
v 1.38442 6.36526 0.144751
vn 0.11626 0.855816 0.504046
v 1.52459 6.35395 0.128709
vn 0.125645 0.889317 0.439691
v 1.38733 6.38039 0.113325
vn 0.130219 0.928487 0.347785
v 1.37804 6.38087 0.111403
vn 0.120671 0.818649 -0.561473
v 1.36802 6.38084 0.110792
vn -0.0601838 0.787633 -0.613199
v 1.36249 6.37869 0.109887
vn -0.715148 0.692538 -0.094627
v 1.36055 6.3731 0.122799
vn -0.792716 0.574726 0.203203
v 1.67963 6.31742 0.150024
vn 0.166535 -0.0347796 0.985422
v 1.37539 6.35104 0.13974
vn -0.0851057 -0.430959 0.898349
v 1.33444 6.20467 0.0619069
vn -0.994439 0.105244 0.00378822
v 1.35787 6.29615 0.0676191
vn 0.0428298 0.437929 -0.897989
v 1.67756 6.3331 0.11548
vn 0.15011 0.553162 -0.819438
v 1.66115 6.14957 0.0668809
vn 0.745527 -0.666402 0.00990389
v 1.65561 6.14742 0.0659767
vn 0.0601838 -0.787633 0.613199
v 1.64559 6.14739 0.0653655
vn -0.123268 -0.819585 0.55954
v 1.6363 6.14787 0.0634428
vn -0.12841 -0.918953 -0.372877
v 1.49966 6.17748 0.0414616
vn -0.125645 -0.889317 -0.439691
v 1.63921 6.16299 0.0320176
vn -0.112369 -0.835198 -0.538347
v 1.6487 6.16352 0.0318533
vn 0.0189897 -0.0715314 -0.997258
v 1.65867 6.16329 0.0330023
vn 0.20755 -0.0217423 -0.977983
v 1.6641 6.16494 0.0349435
vn 0.769186 -0.411766 -0.488674
v 1.66368 6.15828 0.0474781
vn 0.792716 -0.574726 -0.203203
v 1.64494 6.16002 0.0727658
vn -0.0812374 -0.433442 0.897512
v 1.34095 6.19497 0.0597183
vn -0.313931 -0.731121 0.60573
v 1.34928 6.21181 0.0266884
vn 0.014126 0.300302 -0.953739
v 1.66904 6.24912 0.0738081
vn 0.123365 0.425759 -0.896388
v 1.68642 6.30917 0.14481
vn 0.987681 -0.14036 0.0691695
v 1.68441 6.31422 0.148286
vn 0.869816 0.213346 0.444864
v 1.51016 6.25549 0.106343
vn -0.0831721 -0.432201 0.897933
v 1.33627 6.19867 0.0604193
vn -0.908896 -0.416388 -0.0230002
v 1.34756 6.21753 0.0289331
vn 0.0408101 0.43101 -0.901424
v 1.67934 6.32765 0.112671
vn 0.125363 0.432615 -0.89282
f 1//1 2//2 3//3
f 1//1 3//3 4//4
f 1//1 4//4 5//5
f 1//1 5//5 6//6
f 1//1 6//6 2//2
f 7//7 8//8 9//9
f 10//10 11//11 12//12
f 13//13 14//14 15//15
f 16//16 17//17 18//18
f 19//19 20//20 21//21
f 22//22 23//23 24//24
f 22//22 24//24 25//25
f 22//22 25//25 26//26
f 22//22 26//26 27//27
f 22//22 27//27 23//23
f 28//28 29//29 30//30
f 31//31 32//32 33//33
f 34//34 35//35 36//36
f 37//37 38//38 39//39
f 40//40 41//41 42//42
f 13//13 43//43 44//44
f 10//10 45//45 46//46
f 7//7 47//47 48//48
f 19//19 49//49 50//50
f 16//16 51//51 52//52
f 10//10 53//53 45//45
f 13//13 54//54 43//43
f 16//16 55//55 51//51
f 19//19 56//56 49//49
f 7//7 57//57 47//47
f 40//40 58//58 59//59
f 28//28 60//60 61//61
f 31//31 62//62 63//63
f 34//34 64//64 65//65
f 37//37 66//66 67//67
f 40//40 68//68 58//58
f 28//28 69//69 60//60
f 31//31 70//70 62//62
f 34//34 71//71 64//64
f 37//37 72//72 66//66
f 10//10 46//46 11//11
f 7//7 48//48 8//8
f 19//19 50//50 20//20
f 16//16 52//52 17//17
f 13//13 44//44 14//14
f 40//40 42//42 68//68
f 28//28 30//30 69//69
f 31//31 33//33 70//70
f 34//34 36//36 71//71
f 37//37 39//39 72//72
f 28//28 61//61 29//29
f 31//31 63//63 32//32
f 34//34 65//65 35//35
f 37//37 67//67 38//38
f 40//40 59//59 41//41
f 10//10 12//12 53//53
f 13//13 15//15 54//54
f 16//16 18//18 55//55
f 19//19 21//21 56//56
f 7//7 9//9 57//57
f 73//73 74//74 75//75
f 76//76 77//77 78//78
f 79//79 80//80 81//81
f 82//82 83//83 84//84
f 85//85 86//86 87//87
f 88//88 89//89 90//90
f 91//91 92//92 93//93
f 94//94 95//95 96//96
f 97//97 98//98 99//99
f 100//100 101//101 102//102
f 103//103 104//104 105//105
f 106//106 107//107 108//108
f 109//109 110//110 111//111
f 112//112 113//113 114//114
f 115//115 116//116 117//117
f 88//88 118//118 119//119
f 91//91 120//120 121//121
f 94//94 122//122 123//123
f 97//97 124//124 125//125
f 100//100 126//126 127//127
f 128//128 129//129 2//2
f 130//130 131//131 3//3
f 132//132 133//133 4//4
f 134//134 135//135 5//5
f 136//136 137//137 6//6
f 76//76 138//138 8//8
f 73//73 139//139 11//11
f 85//85 140//140 14//14
f 82//82 141//141 17//17
f 79//79 142//142 20//20
f 143//143 144//144 23//23
f 145//145 146//146 24//24
f 147//147 148//148 25//25
f 149//149 150//150 26//26
f 151//151 152//152 27//27
f 103//103 153//153 29//29
f 106//106 154//154 32//32
f 109//109 155//155 35//35
f 112//112 156//156 38//38
f 115//115 157//157 41//41
f 73//73 75//75 43//43
f 76//76 78//78 45//45
f 79//79 81//81 47//47
f 82//82 84//84 49//49
f 85//85 87//87 51//51
f 88//88 90//90 53//53
f 91//91 93//93 54//54
f 94//94 96//96 55//55
f 97//97 99//99 56//56
f 100//100 102//102 57//57
f 103//103 105//105 58//58
f 106//106 108//108 60//60
f 109//109 111//111 62//62
f 112//112 114//114 64//64
f 115//115 117//117 66//66
f 88//88 119//119 68//68
f 91//91 121//121 69//69
f 94//94 123//123 70//70
f 97//97 125//125 71//71
f 100//100 127//127 72//72
f 130//130 74//74 46//46
f 132//132 77//77 48//48
f 134//134 80//80 50//50
f 136//136 83//83 52//52
f 128//128 86//86 44//44
f 158//158 89//89 42//42
f 159//159 92//92 30//30
f 160//160 95//95 33//33
f 161//161 98//98 36//36
f 162//162 101//101 39//39
f 145//145 104//104 61//61
f 147//147 107//107 63//63
f 149//149 110//110 65//65
f 151//151 113//113 67//67
f 143//143 116//116 59//59
f 159//159 118//118 12//12
f 160//160 120//120 15//15
f 161//161 122//122 18//18
f 162//162 124//124 21//21
f 158//158 126//126 9//9
f 130//130 129//129 74//74
f 132//132 131//131 77//77
f 134//134 133//133 80//80
f 136//136 135//135 83//83
f 128//128 137//137 86//86
f 158//158 138//138 89//89
f 159//159 139//139 92//92
f 160//160 140//140 95//95
f 161//161 141//141 98//98
f 162//162 142//142 101//101
f 145//145 144//144 104//104
f 147//147 146//146 107//107
f 149//149 148//148 110//110
f 151//151 150//150 113//113
f 143//143 152//152 116//116
f 159//159 153//153 118//118
f 160//160 154//154 120//120
f 161//161 155//155 122//122
f 162//162 156//156 124//124
f 158//158 157//157 126//126
f 130//130 3//3 129//129
f 132//132 4//4 131//131
f 134//134 5//5 133//133
f 136//136 6//6 135//135
f 128//128 2//2 137//137
f 158//158 9//9 138//138
f 159//159 12//12 139//139
f 160//160 15//15 140//140
f 161//161 18//18 141//141
f 162//162 21//21 142//142
f 145//145 24//24 144//144
f 147//147 25//25 146//146
f 149//149 26//26 148//148
f 151//151 27//27 150//150
f 143//143 23//23 152//152
f 159//159 30//30 153//153
f 160//160 33//33 154//154
f 161//161 36//36 155//155
f 162//162 39//39 156//156
f 158//158 42//42 157//157
f 128//128 44//44 75//75
f 130//130 46//46 78//78
f 132//132 48//48 81//81
f 134//134 50//50 84//84
f 136//136 52//52 87//87
f 76//76 45//45 90//90
f 73//73 43//43 93//93
f 85//85 51//51 96//96
f 82//82 49//49 99//99
f 79//79 47//47 102//102
f 143//143 59//59 105//105
f 145//145 61//61 108//108
f 147//147 63//63 111//111
f 149//149 65//65 114//114
f 151//151 67//67 117//117
f 103//103 58//58 119//119
f 106//106 60//60 121//121
f 109//109 62//62 123//123
f 112//112 64//64 125//125
f 115//115 66//66 127//127
f 73//73 11//11 74//74
f 76//76 8//8 77//77
f 79//79 20//20 80//80
f 82//82 17//17 83//83
f 85//85 14//14 86//86
f 88//88 68//68 89//89
f 91//91 69//69 92//92
f 94//94 70//70 95//95
f 97//97 71//71 98//98
f 100//100 72//72 101//101
f 103//103 29//29 104//104
f 106//106 32//32 107//107
f 109//109 35//35 110//110
f 112//112 38//38 113//113
f 115//115 41//41 116//116
f 88//88 53//53 118//118
f 91//91 54//54 120//120
f 94//94 55//55 122//122
f 97//97 56//56 124//124
f 100//100 57//57 126//126
f 128//128 75//75 129//129
f 130//130 78//78 131//131
f 132//132 81//81 133//133
f 134//134 84//84 135//135
f 136//136 87//87 137//137
f 76//76 90//90 138//138
f 73//73 93//93 139//139
f 85//85 96//96 140//140
f 82//82 99//99 141//141
f 79//79 102//102 142//142
f 143//143 105//105 144//144
f 145//145 108//108 146//146
f 147//147 111//111 148//148
f 149//149 114//114 150//150
f 151//151 117//117 152//152
f 103//103 119//119 153//153
f 106//106 121//121 154//154
f 109//109 123//123 155//155
f 112//112 125//125 156//156
f 115//115 127//127 157//157
f 129//129 3//3 2//2
f 131//131 4//4 3//3
f 133//133 5//5 4//4
f 135//135 6//6 5//5
f 137//137 2//2 6//6
f 138//138 9//9 8//8
f 139//139 12//12 11//11
f 140//140 15//15 14//14
f 141//141 18//18 17//17
f 142//142 21//21 20//20
f 144//144 24//24 23//23
f 146//146 25//25 24//24
f 148//148 26//26 25//25
f 150//150 27//27 26//26
f 152//152 23//23 27//27
f 153//153 30//30 29//29
f 154//154 33//33 32//32
f 155//155 36//36 35//35
f 156//156 39//39 38//38
f 157//157 42//42 41//41
f 75//75 44//44 43//43
f 78//78 46//46 45//45
f 81//81 48//48 47//47
f 84//84 50//50 49//49
f 87//87 52//52 51//51
f 90//90 45//45 53//53
f 93//93 43//43 54//54
f 96//96 51//51 55//55
f 99//99 49//49 56//56
f 102//102 47//47 57//57
f 105//105 59//59 58//58
f 108//108 61//61 60//60
f 111//111 63//63 62//62
f 114//114 65//65 64//64
f 117//117 67//67 66//66
f 119//119 58//58 68//68
f 121//121 60//60 69//69
f 123//123 62//62 70//70
f 125//125 64//64 71//71
f 127//127 66//66 72//72
f 74//74 11//11 46//46
f 77//77 8//8 48//48
f 80//80 20//20 50//50
f 83//83 17//17 52//52
f 86//86 14//14 44//44
f 89//89 68//68 42//42
f 92//92 69//69 30//30
f 95//95 70//70 33//33
f 98//98 71//71 36//36
f 101//101 72//72 39//39
f 104//104 29//29 61//61
f 107//107 32//32 63//63
f 110//110 35//35 65//65
f 113//113 38//38 67//67
f 116//116 41//41 59//59
f 118//118 53//53 12//12
f 120//120 54//54 15//15
f 122//122 55//55 18//18
f 124//124 56//56 21//21
f 126//126 57//57 9//9
f 129//129 75//75 74//74
f 131//131 78//78 77//77
f 133//133 81//81 80//80
f 135//135 84//84 83//83
f 137//137 87//87 86//86
f 138//138 90//90 89//89
f 139//139 93//93 92//92
f 140//140 96//96 95//95
f 141//141 99//99 98//98
f 142//142 102//102 101//101
f 144//144 105//105 104//104
f 146//146 108//108 107//107
f 148//148 111//111 110//110
f 150//150 114//114 113//113
f 152//152 117//117 116//116
f 153//153 119//119 118//118
f 154//154 121//121 120//120
f 155//155 123//123 122//122
f 156//156 125//125 124//124
f 157//157 127//127 126//126
