# Created by Open3D 
# object name: part_060
# number of vertices: 162
# number of triangles: 320
v -1.61947 6.44364 2.26582
vn -0.151169 0.21637 0.964537
v -1.62391 6.42349 2.26891
vn -0.356413 0.155349 0.921323
v -1.61489 6.42346 2.27058
vn -0.0810733 0.160397 0.983717
v -1.6074 6.44417 2.26663
vn -0.000379107 0.225744 0.974187
v -1.6165 6.45748 2.26269
vn -0.0881034 0.306778 0.947694
v -1.62545 6.45591 2.2614
vn -0.363021 0.239616 0.900444
v -1.23905 6.45986 2.25811
vn 0.171093 0.230113 0.958006
v -1.2417 6.43937 2.26301
vn 0.106848 0.168408 0.979909
v -1.23279 6.44016 2.26098
vn 0.378866 0.186698 0.906424
v -1.42823 6.42836 2.26335
vn 0.0467939 -0.948261 0.314023
v -1.60552 6.42043 2.26548
vn 0.0448298 -0.959754 0.277241
v -1.42827 6.42698 2.2585
vn 0.0461201 -0.971794 0.231278
v -1.62867 6.40275 2.18968
vn -0.199237 -0.954091 0.223639
v -1.63119 6.4038 2.18946
vn -0.966642 -0.247102 0.0674036
v -1.62971 6.38631 2.11737
vn -0.355734 -0.9132 0.198792
v -1.6304 6.43925 2.18122
vn -0.28858 0.93329 -0.213753
v -1.62591 6.45591 2.24987
vn -0.148594 0.964206 -0.219607
v -1.62734 6.42394 2.11218
vn -0.148655 0.962981 -0.224875
v -1.46934 6.46498 2.25527
vn -0.0449391 0.989809 -0.135125
v -1.26106 6.474 2.25332
vn -0.0417933 0.999091 -0.00840838
v -1.25279 6.4739 2.24941
vn -0.0440513 0.983854 -0.173467
v -1.24073 6.42208 2.09544
vn 0.15117 -0.21637 -0.964537
v -1.23444 6.40311 2.10142
vn 0.360115 -0.233561 -0.903198
v -1.24339 6.40154 2.10012
vn 0.0867856 -0.28112 -0.95574
v -1.25278 6.42112 2.09473
vn 0.000379156 -0.225744 -0.974187
v -1.245 6.43556 2.09224
vn 0.07992 -0.133807 -0.98778
v -1.23598 6.43553 2.0939
vn 0.3587 -0.148467 -0.92157
v -1.42984 6.39236 2.10834
vn 0.0449392 -0.989807 0.135136
v -1.25255 6.40023 2.10622
vn 0.0471594 -0.983762 0.17317
v -1.42978 6.39326 2.1133
vn 0.0460006 -0.97447 0.219757
v -1.62116 6.40586 2.10315
vn -0.171092 -0.230113 -0.958006
v -1.61658 6.38563 2.10768
vn -0.101134 -0.28913 -0.951933
v -1.62556 6.38643 2.10934
vn -0.375159 -0.264912 -0.8883
v -1.47095 6.42898 2.10026
vn -0.0467938 0.948269 -0.313999
v -1.6006 6.42258 2.10079
vn -0.0483032 0.899253 -0.434753
v -1.60891 6.42347 2.10452
vn -0.0486925 0.959477 -0.277546
v -1.23122 6.45627 2.17313
vn 0.199237 0.954091 -0.223639
v -1.23575 6.44063 2.10425
vn 0.0569846 0.971747 -0.229042
v -1.23432 6.47261 2.24193
vn 0.0570483 0.97297 -0.223772
v -1.22949 6.41977 2.18159
vn 0.28858 -0.93329 0.213753
v -1.22708 6.42103 2.18127
vn 0.986093 -0.163845 0.0278316
v -1.22848 6.4369 2.25374
vn 0.440278 -0.871773 0.214865
v -1.62414 6.41838 2.25857
vn -0.0569846 -0.971747 0.229042
v -1.62822 6.41986 2.26184
vn -0.3554 -0.905722 0.230993
v -1.25929 6.43643 2.26203
vn 0.0482072 -0.899996 0.433225
v -1.59717 6.42203 2.26887
vn 0.0460999 -0.900067 0.433306
v -1.24331 6.47339 2.25513
vn 0.0999391 0.314795 0.943884
v -1.25108 6.45937 2.25941
vn 0.0205671 0.226639 0.973762
v -1.60734 6.45879 2.25659
vn -0.0476058 0.983817 -0.172737
v -1.59895 6.4596 2.26017
vn -0.0438515 0.999025 -0.00517597
v -1.63281 6.43799 2.18154
vn -0.967622 0.247886 -0.0475406
v -1.62991 6.45567 2.25355
vn -0.439904 0.87927 -0.182669
v -1.25097 6.43555 2.25829
vn 0.0482388 -0.95961 0.277167
v -1.62556 6.38641 2.12088
vn -0.0570483 -0.97297 0.223772
v -1.63141 6.42211 2.10907
vn -0.440278 0.871773 -0.214865
v -1.46989 6.46406 2.25032
vn -0.0460005 0.97447 -0.219754
v -1.23432 6.47258 2.25347
vn 0.377422 0.271188 0.885443
v -1.23397 6.4031 2.11294
vn 0.148594 -0.964206 0.219607
v -1.22998 6.40335 2.10927
vn 0.439904 -0.87927 0.182669
v -1.59882 6.38501 2.10949
vn 0.0416805 -0.999107 0.00686804
v -1.26094 6.39942 2.10265
vn 0.043787 -0.999018 0.00679605
v -1.61819 6.41965 2.0998
vn -0.108126 -0.141823 -0.983969
v -1.60911 6.40593 2.10195
vn -0.0205672 -0.226639 -0.973762
v -1.25437 6.43859 2.09733
vn -0.0451246 0.959817 -0.276974
v -1.26272 6.43699 2.09394
vn -0.0461825 0.900699 -0.431982
v -1.22869 6.45522 2.17335
vn 0.940304 0.329237 -0.0862054
v -1.23167 6.43916 2.10097
vn 0.3554 0.905722 -0.230993
v -1.23255 6.43508 2.25063
vn 0.148655 -0.962981 0.224875
v -1.6071 6.38511 2.11341
vn 0.0437525 -0.983909 0.173231
v -1.6271 6.41885 2.10183
vn -0.381739 -0.180036 -0.906566
v -1.47139 6.43034 2.10512
vn -0.0461201 0.971793 -0.23128
v -1.23017 6.47271 2.24544
vn 0.355734 0.9132 -0.198792
v -1.61754 6.41945 2.26316
vn 0.0116367 -0.971903 0.235094
v -1.61447 6.42102 2.2679
vn 0.00624791 -0.919333 0.393431
v -1.62369 6.42034 2.26553
vn -0.0813428 -0.933098 0.350302
v -1.24788 6.43783 2.26288
vn 0.0530122 -0.681152 0.73022
v -1.25915 6.43879 2.26417
vn 0.0150794 0.165012 0.986176
v -1.42824 6.43015 2.26697
vn 0.0436582 -0.673082 0.738278
v -1.2496 6.47415 2.25447
vn -0.0247567 0.933575 0.357525
v -1.46741 6.46505 2.25927
vn -0.0322045 0.929714 0.366871
v -1.26076 6.47285 2.25628
vn 0.00777698 0.319508 0.947552
v -1.61934 6.45756 2.25432
vn -0.0804279 0.97315 -0.215664
v -1.62543 6.45726 2.25697
vn -0.171926 0.980692 -0.0931908
v -1.61624 6.45852 2.25921
vn -0.0843647 0.995167 -0.0502441
v -1.63296 6.42443 2.18469
vn -0.998888 -0.0425877 0.0202422
v -1.63025 6.42147 2.26158
vn -0.994116 -0.0808016 0.0721446
v -1.63179 6.45393 2.25406
vn -0.998601 0.0218759 0.0481474
v -1.23902 6.43559 2.25549
vn 0.080597 -0.968963 0.233699
v -1.23288 6.43701 2.25761
vn 0.174534 -0.922182 0.345135
v -1.24202 6.4369 2.26036
vn 0.0879072 -0.915869 0.391735
v -1.61906 6.38532 2.11616
vn 0.0114543 -0.976093 0.217053
v -1.60722 6.38657 2.12057
vn 0.0443242 -0.973496 0.224366
v -1.61925 6.40225 2.1897
vn 0.0123931 -0.974031 0.226077
v -1.63015 6.42044 2.1043
vn -0.738183 0.170201 -0.652777
v -1.6305 6.40652 2.10713
vn -0.779333 -0.176239 -0.601315
v -1.63329 6.42034 2.10942
vn -0.999444 0.00297872 -0.0332119
v -1.4708 6.44727 2.17771
vn -0.0460612 0.973148 -0.225524
v -1.60905 6.4253 2.11159
vn -0.0482561 0.972775 -0.226673
v -1.60762 6.45731 2.24944
vn -0.0482315 0.973329 -0.224284
v -1.23137 6.47319 2.25049
vn 0.706227 0.504881 0.496325
v -1.23463 6.47392 2.24905
vn 0.0839651 0.991602 -0.0983673
v -1.23762 6.47407 2.25299
vn 0.117246 0.955203 0.271738
v -1.24054 6.40145 2.10849
vn 0.0804279 -0.97315 0.215664
v -1.24365 6.4005 2.1036
vn 0.0843647 -0.995167 0.0502441
v -1.23445 6.40176 2.10584
vn 0.171926 -0.980692 0.0931908
v -1.61029 6.38486 2.10835
vn 0.0234485 -0.934237 -0.355882
v -1.59913 6.38617 2.10654
vn -0.00932021 -0.286692 -0.957978
v -1.42992 6.39237 2.10431
vn 0.0322045 -0.929714 -0.366871
v -1.61201 6.42118 2.09993
vn -0.0550051 0.682851 -0.728484
v -1.4691 6.42727 2.09661
vn -0.0436582 0.673082 -0.738278
v -1.60074 6.42023 2.09864
vn -0.0162143 -0.142255 -0.989697
v -1.24235 6.43956 2.09966
vn -0.0116367 0.971903 -0.235094
v -1.2362 6.43867 2.09729
vn 0.0813428 0.933098 -0.350302
v -1.24542 6.43799 2.09491
vn -0.00624791 0.919333 -0.393431
v -1.22727 6.44173 2.17647
vn 0.998888 0.0425877 -0.0202422
v -1.2281 6.40509 2.10876
vn 0.99864 -0.0147879 -0.0499922
v -1.22963 6.43755 2.10124
vn 0.993403 0.0879453 -0.0735973
v -1.25084 6.43372 2.25122
vn 0.0477985 -0.972796 0.226677
v -1.23882 6.41847 2.18199
vn 0.0796723 -0.971162 0.224713
v -1.62526 6.3851 2.11376
vn -0.0839651 -0.991602 0.0983673
v -1.61609 6.38462 2.11115
vn 0.00271107 -0.998646 0.0519465
v -1.62701 6.42201 2.10521
vn -0.174534 0.922182 -0.345135
v -1.62396 6.42068 2.10154
vn -0.196732 0.724179 -0.660955
v -1.25267 6.47245 2.24224
vn -0.0446234 0.973484 -0.224363
v -1.2541 6.44043 2.1044
vn -0.0446481 0.972932 -0.226739
v -1.22972 6.45954 2.25406
vn 0.779333 0.176239 0.601315
v -1.22813 6.47114 2.24588
vn 0.994246 0.10684 0.00776237
v -1.62692 6.42165 2.26656
vn -0.723652 -0.136585 0.676514
v -1.62062 6.42193 2.26907
vn -0.107509 -0.73715 0.667122
v -1.60861 6.42245 2.27019
vn 0.0347082 -0.68194 0.730584
v -1.59742 6.42437 2.27102
vn 0.0108292 0.164831 0.986262
v -1.42926 6.45228 2.26324
vn 0.0100944 0.226204 0.974028
v -1.59903 6.45843 2.26313
vn 0.00390095 0.308491 0.951219
v -1.61033 6.45877 2.26178
vn -0.0437849 0.934225 0.353986
v -1.62231 6.45767 2.26079
vn -0.187001 0.942231 0.277907
v -1.62855 6.45626 2.25854
vn -0.72597 0.4438 0.525366
v -1.6289 6.44252 2.26215
vn -0.766539 0.110332 0.632649
v -1.23593 6.43833 2.26128
vn 0.196732 -0.724179 0.660955
v -1.60579 6.41858 2.25841
vn 0.0443482 -0.972944 0.226746
v -1.63175 6.38788 2.11694
vn -0.994963 -0.0997837 -0.00959157
v -1.62106 6.44055 2.18082
vn -0.0796723 0.971162 -0.224713
v -1.2438 6.4744 2.25167
vn -0.00271107 0.998646 -0.0519465
v -1.23133 6.40276 2.10427
vn 0.746881 -0.35418 -0.562784
v -1.23758 6.40135 2.10202
vn 0.187001 -0.942231 -0.277907
v -1.24956 6.40025 2.10104
vn 0.0417487 -0.933456 -0.356255
v -1.26085 6.40059 2.09968
vn -0.00507006 -0.286511 -0.958063
v -1.43097 6.41389 2.09792
vn -0.0100945 -0.226204 -0.974028
v -1.26247 6.43465 2.09179
vn -0.0123172 -0.130767 -0.991337
v -1.25127 6.43656 2.09262
vn -0.0360472 0.68063 -0.73174
v -1.23927 6.43709 2.09374
vn 0.107509 0.73715 -0.667122
v -1.23297 6.43737 2.09625
vn 0.694017 0.231267 -0.681803
v -1.23132 6.42353 2.09904
vn 0.766539 -0.110332 -0.632649
v -1.25227 6.4017 2.11338
vn 0.0477731 -0.973349 0.224297
v -1.62227 6.38495 2.10982
vn -0.117246 -0.955203 -0.271738
v -1.61787 6.42212 2.10246
vn -0.0879072 0.915869 -0.391735
v -1.24064 6.45677 2.17311
vn -0.0123931 0.974031 -0.226077
v -1.2266 6.43868 2.2534
vn 0.999487 0.0041967 0.0317444
v -1.22974 6.43858 2.25852
vn 0.759417 -0.0733541 0.646456
v -1.42902 6.41005 2.18592
vn 0.0460611 -0.973149 0.225522
v -1.62851 6.38582 2.11232
vn -0.736187 -0.417422 -0.532718
v -1.62087 6.42342 2.10733
vn -0.080597 0.968963 -0.233699
v -1.24082 6.4737 2.24665
vn -0.0114543 0.976093 -0.217053
f 1//1 2//2 3//3
f 1//1 3//3 4//4
f 1//1 4//4 5//5
f 1//1 5//5 6//6
f 1//1 6//6 2//2
f 7//7 8//8 9//9
f 10//10 11//11 12//12
f 13//13 14//14 15//15
f 16//16 17//17 18//18
f 19//19 20//20 21//21
f 22//22 23//23 24//24
f 22//22 24//24 25//25
f 22//22 25//25 26//26
f 22//22 26//26 27//27
f 22//22 27//27 23//23
f 28//28 29//29 30//30
f 31//31 32//32 33//33
f 34//34 35//35 36//36
f 37//37 38//38 39//39
f 40//40 41//41 42//42
f 13//13 43//43 44//44
f 10//10 45//45 46//46
f 7//7 47//47 48//48
f 19//19 49//49 50//50
f 16//16 51//51 52//52
f 10//10 53//53 45//45
f 13//13 54//54 43//43
f 16//16 55//55 51//51
f 19//19 56//56 49//49
f 7//7 57//57 47//47
f 40//40 58//58 59//59
f 28//28 60//60 61//61
f 31//31 62//62 63//63
f 34//34 64//64 65//65
f 37//37 66//66 67//67
f 40//40 68//68 58//58
f 28//28 69//69 60//60
f 31//31 70//70 62//62
f 34//34 71//71 64//64
f 37//37 72//72 66//66
f 10//10 46//46 11//11
f 7//7 48//48 8//8
f 19//19 50//50 20//20
f 16//16 52//52 17//17
f 13//13 44//44 14//14
f 40//40 42//42 68//68
f 28//28 30//30 69//69
f 31//31 33//33 70//70
f 34//34 36//36 71//71
f 37//37 39//39 72//72
f 28//28 61//61 29//29
f 31//31 63//63 32//32
f 34//34 65//65 35//35
f 37//37 67//67 38//38
f 40//40 59//59 41//41
f 10//10 12//12 53//53
f 13//13 15//15 54//54
f 16//16 18//18 55//55
f 19//19 21//21 56//56
f 7//7 9//9 57//57
f 73//73 74//74 75//75
f 76//76 77//77 78//78
f 79//79 80//80 81//81
f 82//82 83//83 84//84
f 85//85 86//86 87//87
f 88//88 89//89 90//90
f 91//91 92//92 93//93
f 94//94 95//95 96//96
f 97//97 98//98 99//99
f 100//100 101//101 102//102
f 103//103 104//104 105//105
f 106//106 107//107 108//108
f 109//109 110//110 111//111
f 112//112 113//113 114//114
f 115//115 116//116 117//117
f 88//88 118//118 119//119
f 91//91 120//120 121//121
f 94//94 122//122 123//123
f 97//97 124//124 125//125
f 100//100 126//126 127//127
f 128//128 129//129 2//2
f 130//130 131//131 3//3
f 132//132 133//133 4//4
f 134//134 135//135 5//5
f 136//136 137//137 6//6
f 76//76 138//138 8//8
f 73//73 139//139 11//11
f 85//85 140//140 14//14
f 82//82 141//141 17//17
f 79//79 142//142 20//20
f 143//143 144//144 23//23
f 145//145 146//146 24//24
f 147//147 148//148 25//25
f 149//149 150//150 26//26
f 151//151 152//152 27//27
f 103//103 153//153 29//29
f 106//106 154//154 32//32
f 109//109 155//155 35//35
f 112//112 156//156 38//38
f 115//115 157//157 41//41
f 73//73 75//75 43//43
f 76//76 78//78 45//45
f 79//79 81//81 47//47
f 82//82 84//84 49//49
f 85//85 87//87 51//51
f 88//88 90//90 53//53
f 91//91 93//93 54//54
f 94//94 96//96 55//55
f 97//97 99//99 56//56
f 100//100 102//102 57//57
f 103//103 105//105 58//58
f 106//106 108//108 60//60
f 109//109 111//111 62//62
f 112//112 114//114 64//64
f 115//115 117//117 66//66
f 88//88 119//119 68//68
f 91//91 121//121 69//69
f 94//94 123//123 70//70
f 97//97 125//125 71//71
f 100//100 127//127 72//72
f 130//130 74//74 46//46
f 132//132 77//77 48//48
f 134//134 80//80 50//50
f 136//136 83//83 52//52
f 128//128 86//86 44//44
f 158//158 89//89 42//42
f 159//159 92//92 30//30
f 160//160 95//95 33//33
f 161//161 98//98 36//36
f 162//162 101//101 39//39
f 145//145 104//104 61//61
f 147//147 107//107 63//63
f 149//149 110//110 65//65
f 151//151 113//113 67//67
f 143//143 116//116 59//59
f 159//159 118//118 12//12
f 160//160 120//120 15//15
f 161//161 122//122 18//18
f 162//162 124//124 21//21
f 158//158 126//126 9//9
f 130//130 129//129 74//74
f 132//132 131//131 77//77
f 134//134 133//133 80//80
f 136//136 135//135 83//83
f 128//128 137//137 86//86
f 158//158 138//138 89//89
f 159//159 139//139 92//92
f 160//160 140//140 95//95
f 161//161 141//141 98//98
f 162//162 142//142 101//101
f 145//145 144//144 104//104
f 147//147 146//146 107//107
f 149//149 148//148 110//110
f 151//151 150//150 113//113
f 143//143 152//152 116//116
f 159//159 153//153 118//118
f 160//160 154//154 120//120
f 161//161 155//155 122//122
f 162//162 156//156 124//124
f 158//158 157//157 126//126
f 130//130 3//3 129//129
f 132//132 4//4 131//131
f 134//134 5//5 133//133
f 136//136 6//6 135//135
f 128//128 2//2 137//137
f 158//158 9//9 138//138
f 159//159 12//12 139//139
f 160//160 15//15 140//140
f 161//161 18//18 141//141
f 162//162 21//21 142//142
f 145//145 24//24 144//144
f 147//147 25//25 146//146
f 149//149 26//26 148//148
f 151//151 27//27 150//150
f 143//143 23//23 152//152
f 159//159 30//30 153//153
f 160//160 33//33 154//154
f 161//161 36//36 155//155
f 162//162 39//39 156//156
f 158//158 42//42 157//157
f 128//128 44//44 75//75
f 130//130 46//46 78//78
f 132//132 48//48 81//81
f 134//134 50//50 84//84
f 136//136 52//52 87//87
f 76//76 45//45 90//90
f 73//73 43//43 93//93
f 85//85 51//51 96//96
f 82//82 49//49 99//99
f 79//79 47//47 102//102
f 143//143 59//59 105//105
f 145//145 61//61 108//108
f 147//147 63//63 111//111
f 149//149 65//65 114//114
f 151//151 67//67 117//117
f 103//103 58//58 119//119
f 106//106 60//60 121//121
f 109//109 62//62 123//123
f 112//112 64//64 125//125
f 115//115 66//66 127//127
f 73//73 11//11 74//74
f 76//76 8//8 77//77
f 79//79 20//20 80//80
f 82//82 17//17 83//83
f 85//85 14//14 86//86
f 88//88 68//68 89//89
f 91//91 69//69 92//92
f 94//94 70//70 95//95
f 97//97 71//71 98//98
f 100//100 72//72 101//101
f 103//103 29//29 104//104
f 106//106 32//32 107//107
f 109//109 35//35 110//110
f 112//112 38//38 113//113
f 115//115 41//41 116//116
f 88//88 53//53 118//118
f 91//91 54//54 120//120
f 94//94 55//55 122//122
f 97//97 56//56 124//124
f 100//100 57//57 126//126
f 128//128 75//75 129//129
f 130//130 78//78 131//131
f 132//132 81//81 133//133
f 134//134 84//84 135//135
f 136//136 87//87 137//137
f 76//76 90//90 138//138
f 73//73 93//93 139//139
f 85//85 96//96 140//140
f 82//82 99//99 141//141
f 79//79 102//102 142//142
f 143//143 105//105 144//144
f 145//145 108//108 146//146
f 147//147 111//111 148//148
f 149//149 114//114 150//150
f 151//151 117//117 152//152
f 103//103 119//119 153//153
f 106//106 121//121 154//154
f 109//109 123//123 155//155
f 112//112 125//125 156//156
f 115//115 127//127 157//157
f 129//129 3//3 2//2
f 131//131 4//4 3//3
f 133//133 5//5 4//4
f 135//135 6//6 5//5
f 137//137 2//2 6//6
f 138//138 9//9 8//8
f 139//139 12//12 11//11
f 140//140 15//15 14//14
f 141//141 18//18 17//17
f 142//142 21//21 20//20
f 144//144 24//24 23//23
f 146//146 25//25 24//24
f 148//148 26//26 25//25
f 150//150 27//27 26//26
f 152//152 23//23 27//27
f 153//153 30//30 29//29
f 154//154 33//33 32//32
f 155//155 36//36 35//35
f 156//156 39//39 38//38
f 157//157 42//42 41//41
f 75//75 44//44 43//43
f 78//78 46//46 45//45
f 81//81 48//48 47//47
f 84//84 50//50 49//49
f 87//87 52//52 51//51
f 90//90 45//45 53//53
f 93//93 43//43 54//54
f 96//96 51//51 55//55
f 99//99 49//49 56//56
f 102//102 47//47 57//57
f 105//105 59//59 58//58
f 108//108 61//61 60//60
f 111//111 63//63 62//62
f 114//114 65//65 64//64
f 117//117 67//67 66//66
f 119//119 58//58 68//68
f 121//121 60//60 69//69
f 123//123 62//62 70//70
f 125//125 64//64 71//71
f 127//127 66//66 72//72
f 74//74 11//11 46//46
f 77//77 8//8 48//48
f 80//80 20//20 50//50
f 83//83 17//17 52//52
f 86//86 14//14 44//44
f 89//89 68//68 42//42
f 92//92 69//69 30//30
f 95//95 70//70 33//33
f 98//98 71//71 36//36
f 101//101 72//72 39//39
f 104//104 29//29 61//61
f 107//107 32//32 63//63
f 110//110 35//35 65//65
f 113//113 38//38 67//67
f 116//116 41//41 59//59
f 118//118 53//53 12//12
f 120//120 54//54 15//15
f 122//122 55//55 18//18
f 124//124 56//56 21//21
f 126//126 57//57 9//9
f 129//129 75//75 74//74
f 131//131 78//78 77//77
f 133//133 81//81 80//80
f 135//135 84//84 83//83
f 137//137 87//87 86//86
f 138//138 90//90 89//89
f 139//139 93//93 92//92
f 140//140 96//96 95//95
f 141//141 99//99 98//98
f 142//142 102//102 101//101
f 144//144 105//105 104//104
f 146//146 108//108 107//107
f 148//148 111//111 110//110
f 150//150 114//114 113//113
f 152//152 117//117 116//116
f 153//153 119//119 118//118
f 154//154 121//121 120//120
f 155//155 123//123 122//122
f 156//156 125//125 124//124
f 157//157 127//127 126//126
