# Created by Open3D 
# object name: part_085
# number of vertices: 162
# number of triangles: 320
v -0.655935 6.43519 1.83768
vn 0.914065 0.404571 -0.028428
v -0.648149 6.41843 1.85692
vn 0.91873 0.394832 -0.00654059
v -0.647462 6.415 1.82773
vn 0.92138 0.387265 -0.0329403
v -0.655708 6.43124 1.79839
vn 0.914114 0.403268 -0.0420773
v -0.661635 6.44681 1.82464
vn 0.903132 0.42778 -0.0368522
v -0.661656 6.44875 1.85398
vn 0.907549 0.419858 -0.00867008
v -0.660317 6.31276 0.596987
vn 0.913961 0.401695 -0.0575915
v -0.65176 6.2949 0.610631
vn 0.921321 0.385596 -0.0498305
v -0.652654 6.29256 0.581333
vn 0.918479 0.387864 -0.0771856
v -0.649803 6.35247 1.21942
vn 0.660794 -0.747164 0.0713958
v -0.648156 6.40932 1.7976
vn 0.562719 -0.822795 0.0797211
v -0.651056 6.35165 1.21951
vn 0.423774 -0.901535 0.0874657
v -0.669227 6.40813 1.87128
vn 0.404529 -0.899626 0.164408
v -0.66968 6.41001 1.87923
vn 0.236963 -0.445129 0.863544
v -0.689265 6.39977 1.8731
vn 0.346097 -0.91188 0.22066
v -0.684435 6.44226 1.86797
vn -0.403986 0.91469 -0.0117594
v -0.665732 6.44988 1.85465
vn -0.396653 0.916181 -0.0572652
v -0.703654 6.43315 1.85643
vn -0.413584 0.908713 -0.0564684
v -0.665308 6.40093 1.34409
vn -0.11287 0.988846 -0.0971797
v -0.666954 6.33383 0.66497
vn 0.229908 0.968405 -0.0966168
v -0.66822 6.33108 0.637812
vn -0.235939 0.967111 -0.0950266
v -0.705118 6.293 0.599095
vn -0.914065 -0.404571 0.0284296
v -0.696603 6.27318 0.583401
vn -0.908442 -0.417918 0.00878045
v -0.696624 6.27511 0.612742
vn -0.906529 -0.42059 0.0361783
v -0.705168 6.29656 0.63842
vn -0.914114 -0.403268 0.0420773
v -0.710798 6.30692 0.609654
vn -0.92445 -0.37994 0.0322083
v -0.710111 6.30349 0.580458
vn -0.919555 -0.392916 0.00605143
v -0.692499 6.33364 1.22143
vn 0.112899 -0.988843 0.0971792
v -0.694124 6.27674 0.643265
vn 0.235147 -0.967392 0.094115
v -0.691048 6.33401 1.22139
vn 0.386956 -0.917774 0.0891982
v -0.700737 6.41543 1.83978
vn -0.913961 -0.401695 0.0575899
v -0.692326 6.39521 1.82984
vn -0.906471 -0.418919 0.0530676
v -0.692098 6.39905 1.85899
vn -0.908193 -0.410946 0.0794255
v -0.708004 6.38209 1.3461
vn -0.660811 0.747149 -0.0713942
v -0.70696 6.42321 1.769
vn -0.879064 0.474719 -0.0434532
v -0.70602 6.4267 1.79609
vn -0.56382 0.82216 -0.078486
v -0.689033 6.31379 0.566099
vn -0.404529 0.899626 -0.164408
v -0.708164 6.30713 0.579324
vn -0.413807 0.902508 -0.119346
v -0.670242 6.32385 0.577539
vn -0.39688 0.909974 -0.120142
v -0.673825 6.27966 0.569413
vn 0.403986 -0.91469 0.0117594
v -0.674335 6.27995 0.561257
vn 0.231226 -0.60549 -0.761522
v -0.654076 6.28867 0.567533
vn 0.456273 -0.888659 -0.0458284
v -0.650096 6.41479 1.85806
vn 0.413807 -0.902508 0.119346
v -0.649472 6.41732 1.87123
vn 0.457188 -0.862885 0.215425
v -0.6513 6.29871 0.668381
vn 0.877266 -0.478002 0.043807
v -0.647408 6.40745 1.77035
vn 0.877284 -0.47792 0.0443262
v -0.665933 6.32671 0.607543
vn 0.903072 0.426108 -0.053787
v -0.659812 6.31656 0.636286
vn 0.914108 0.403083 -0.0439484
v -0.664136 6.44518 1.79412
vn -0.233844 0.967718 -0.0940147
v -0.663063 6.44258 1.76693
vn 0.236906 0.966783 -0.0959504
v -0.683925 6.44197 1.87612
vn -0.286555 0.717433 0.634961
v -0.664391 6.4508 1.86798
vn -0.345174 0.937661 0.0405938
v -0.652239 6.29522 0.641295
vn 0.56265 -0.82294 0.0787038
v -0.688018 6.39807 1.85984
vn 0.39688 -0.909974 0.120142
v -0.704183 6.43325 1.86985
vn -0.456273 0.888659 0.0458284
v -0.666753 6.40071 1.34572
vn -0.386957 0.917773 -0.0891982
v -0.666161 6.32287 0.57839
vn 0.907295 0.412831 -0.0799105
v -0.692528 6.27204 0.582731
vn 0.396653 -0.916181 0.0572652
v -0.693869 6.27112 0.569405
vn 0.345174 -0.937661 -0.0405938
v -0.691305 6.38809 1.77241
vn -0.232945 -0.967683 0.0965763
v -0.695197 6.27934 0.670446
vn -0.232979 -0.967727 0.0960532
v -0.7065 6.42702 1.82675
vn -0.92439 -0.378271 0.0491399
v -0.701064 6.41123 1.80052
vn -0.914108 -0.403083 0.0439487
v -0.710104 6.3126 0.639783
vn -0.562039 0.823264 -0.0796802
v -0.710851 6.31447 0.667035
vn -0.875658 0.480868 -0.0446029
v -0.688579 6.31192 0.558153
vn -0.291482 0.579686 -0.760922
v -0.708787 6.3046 0.566154
vn -0.457188 0.862885 -0.215425
v -0.654606 6.28877 0.580946
vn 0.413584 -0.908713 0.0564684
v -0.69004 6.39084 1.79957
vn 0.235062 -0.967313 0.0951389
v -0.705606 6.42936 1.85605
vn -0.9193 -0.385892 0.0772929
v -0.706745 6.38307 1.3476
vn -0.42379 0.901528 -0.087465
v -0.668995 6.32215 0.564282
vn -0.346097 0.91188 -0.22066
v -0.648768 6.41298 1.83672
vn 0.4341 -0.895579 0.0974441
v -0.647586 6.41288 1.82672
vn 0.821023 -0.567298 0.0639839
v -0.648289 6.41581 1.85667
vn 0.743429 -0.661431 0.0991052
v -0.651353 6.29577 0.631049
vn 0.999972 0.0052249 -0.00540321
v -0.651331 6.3006 0.667561
vn 0.921407 0.386369 -0.0415723
v -0.649125 6.35378 1.21929
vn 0.999885 0.0143586 -0.00494795
v -0.666485 6.32972 0.627752
vn 0.676349 0.732667 -0.0758382
v -0.663902 6.39995 1.3381
vn 0.682028 0.727552 -0.0742025
v -0.665521 6.33244 0.664469
vn 0.902159 0.428975 -0.0457152
v -0.664646 6.44861 1.83326
vn -0.376354 0.923088 -0.0791639
v -0.663668 6.45032 1.85331
vn 0.00394295 0.998066 -0.06204
v -0.663209 6.44794 1.82331
vn 0.127933 0.987956 -0.0870373
v -0.678283 6.42958 1.87991
vn 0.00351361 0.0982011 0.99516
v -0.650125 6.41953 1.87746
vn 0.445755 0.126054 0.886235
v -0.663648 6.44987 1.87452
vn 0.317517 0.406546 0.856681
v -0.653127 6.29116 0.602221
vn 0.434017 -0.897655 0.0764516
v -0.65279 6.29004 0.5821
vn 0.743223 -0.668504 0.0268804
v -0.651875 6.29302 0.612036
vn 0.820927 -0.569457 0.0423891
v -0.689254 6.39513 1.83862
vn 0.376413 -0.921023 0.100153
v -0.688 6.3916 1.80015
vn 0.401642 -0.911457 0.0890531
v -0.66896 6.40427 1.84078
vn 0.405466 -0.908778 0.0985893
v -0.705295 6.43168 1.86579
vn -0.963086 -0.234987 0.131322
v -0.699645 6.41907 1.87031
vn -0.908295 -0.390091 0.151094
v -0.703485 6.4323 1.87639
vn -0.445411 0.0700469 0.892582
v -0.686779 6.39201 1.34716
vn -0.405447 0.909839 -0.0883499
v -0.704137 6.42781 1.79664
vn -0.409258 0.908213 -0.0875046
v -0.666172 6.44455 1.79485
vn -0.401627 0.911578 -0.0878639
v -0.667386 6.3226 0.568446
vn 0.829225 0.535377 -0.160488
v -0.668169 6.32455 0.578749
vn 0.0037796 0.990939 -0.134257
v -0.666859 6.32544 0.588727
vn 0.620255 0.777461 -0.104105
v -0.693614 6.27331 0.604126
vn 0.376354 -0.923088 0.0791639
v -0.695051 6.27398 0.614067
vn -0.127933 -0.987956 0.0870373
v -0.694592 6.2716 0.584067
vn -0.00394295 -0.998066 0.06204
v -0.691775 6.3922 1.80963
vn -0.675342 -0.733565 0.0761285
v -0.692739 6.38948 1.77291
vn -0.906504 -0.41981 0.0448198
v -0.693926 6.33402 1.2214
vn -0.682028 -0.727552 0.0742025
v -0.706907 6.42615 1.80633
vn -0.99998 -0.00324865 0.0055021
v -0.708703 6.38019 1.34021
vn -0.999885 -0.0143586 0.00494795
v -0.706929 6.42132 1.76982
vn -0.924029 -0.38012 0.0409738
v -0.709492 6.30894 0.600666
vn -0.4341 0.895579 -0.0974441
v -0.70997 6.30611 0.580716
vn -0.743429 0.661431 -0.0991052
v -0.710674 6.30904 0.610663
vn -0.821023 0.567298 -0.0639839
v -0.682956 6.29902 0.556819
vn -0.00351361 -0.0982011 -0.99516
v -0.694612 6.27205 0.562866
vn -0.328707 -0.388709 -0.86073
v -0.708135 6.30239 0.559919
vn -0.451693 -0.105454 -0.885919
v -0.654123 6.29411 0.640746
vn 0.409246 -0.908205 0.0876451
v -0.673342 6.28184 0.600077
vn 0.405392 -0.9108 0.078105
v -0.690091 6.39737 1.85863
vn -0.0037796 -0.990939 0.134257
v -0.690761 6.39384 1.82875
vn -0.127862 -0.985824 0.108637
v -0.705469 6.43188 1.85528
vn -0.743223 0.668504 -0.0268804
v -0.70629 6.4299 1.84541
vn -0.997393 0.0687529 0.02193
v -0.67026 6.33032 0.63723
vn -0.401648 0.911463 -0.0889619
v -0.708225 6.31358 0.639016
vn -0.409245 0.908112 -0.0886045
v -0.661546 6.30943 0.566435
vn 0.908295 0.390091 -0.151094
v -0.668297 6.31996 0.558045
vn 0.311237 0.231041 -0.92182
v -0.648391 6.41806 1.86694
vn 0.950682 0.301388 0.0732786
v -0.647539 6.41583 1.84659
vn 0.997569 -0.0638236 0.0279669
v -0.647198 6.41186 1.80753
vn 0.999981 0.00547353 -0.00271536
v -0.647435 6.40946 1.77078
vn 0.921408 0.386407 -0.0411921
v -0.657853 6.37434 1.21729
vn 0.914111 0.403175 -0.0430131
v -0.661625 6.4413 1.76769
vn 0.903611 0.425981 -0.0450257
v -0.66233 6.44582 1.80423
vn 0.673972 0.735114 -0.0732704
v -0.662428 6.44924 1.84335
vn 0.620457 0.782365 -0.0542034
v -0.662812 6.45042 1.86379
vn 0.829952 0.555856 0.0469547
v -0.656948 6.4379 1.8683
vn 0.909061 0.41147 0.0655808
v -0.65197 6.29203 0.591972
vn 0.997393 -0.0687529 -0.02193
v -0.650035 6.40834 1.79836
vn 0.409252 -0.9081 0.0886951
v -0.689963 6.40196 1.87934
vn -0.322411 -0.212751 0.922382
v -0.684918 6.44008 1.8373
vn -0.405392 0.9108 -0.078105
v -0.667498 6.32808 0.608631
vn 0.127862 0.985824 -0.108637
v -0.695448 6.2715 0.573588
vn -0.855225 -0.515593 -0.0524833
v -0.695832 6.27268 0.594036
vn -0.620457 -0.782365 0.0542034
v -0.69593 6.2761 0.633147
vn -0.675415 -0.733772 0.0734366
v -0.696635 6.28062 0.669693
vn -0.906505 -0.41985 0.0444395
v -0.703385 6.35426 1.21944
vn -0.914111 -0.403175 0.0430131
v -0.710825 6.31246 0.666601
vn -0.925316 -0.377053 0.0402762
v -0.711062 6.31006 0.629849
vn -0.999972 -0.00681139 0.00305237
v -0.710721 6.30609 0.590791
vn -0.997569 0.0638236 -0.0279669
v -0.709869 6.30386 0.570445
vn -0.963818 -0.255461 -0.0761195
v -0.704242 6.2906 0.568444
vn -0.909061 -0.41147 -0.0655808
v -0.692088 6.27737 0.642532
vn 0.40164 -0.911559 0.0880031
v -0.691401 6.39648 1.84865
vn -0.620255 -0.777461 0.104105
v -0.706384 6.4289 1.82535
vn -0.820927 0.569457 -0.0423891
v -0.689299 6.31765 0.5966
vn -0.405466 0.908778 -0.0985893
v -0.654774 6.28962 0.560991
vn 0.439456 -0.0499016 -0.896877
v -0.652965 6.29024 0.571589
vn 0.949938 0.280594 -0.137421
v -0.671021 6.34276 1.22046
vn 0.405447 -0.909839 0.0883499
v -0.690874 6.39932 1.86893
vn -0.854485 -0.494796 0.158218
v -0.705132 6.43076 1.83516
vn -0.434017 0.897655 -0.0764516
v -0.669005 6.32679 0.598761
vn -0.376413 0.921023 -0.100153
f 1//1 2//2 3//3
f 1//1 3//3 4//4
f 1//1 4//4 5//5
f 1//1 5//5 6//6
f 1//1 6//6 2//2
f 7//7 8//8 9//9
f 10//10 11//11 12//12
f 13//13 14//14 15//15
f 16//16 17//17 18//18
f 19//19 20//20 21//21
f 22//22 23//23 24//24
f 22//22 24//24 25//25
f 22//22 25//25 26//26
f 22//22 26//26 27//27
f 22//22 27//27 23//23
f 28//28 29//29 30//30
f 31//31 32//32 33//33
f 34//34 35//35 36//36
f 37//37 38//38 39//39
f 40//40 41//41 42//42
f 13//13 43//43 44//44
f 10//10 45//45 46//46
f 7//7 47//47 48//48
f 19//19 49//49 50//50
f 16//16 51//51 52//52
f 10//10 53//53 45//45
f 13//13 54//54 43//43
f 16//16 55//55 51//51
f 19//19 56//56 49//49
f 7//7 57//57 47//47
f 40//40 58//58 59//59
f 28//28 60//60 61//61
f 31//31 62//62 63//63
f 34//34 64//64 65//65
f 37//37 66//66 67//67
f 40//40 68//68 58//58
f 28//28 69//69 60//60
f 31//31 70//70 62//62
f 34//34 71//71 64//64
f 37//37 72//72 66//66
f 10//10 46//46 11//11
f 7//7 48//48 8//8
f 19//19 50//50 20//20
f 16//16 52//52 17//17
f 13//13 44//44 14//14
f 40//40 42//42 68//68
f 28//28 30//30 69//69
f 31//31 33//33 70//70
f 34//34 36//36 71//71
f 37//37 39//39 72//72
f 28//28 61//61 29//29
f 31//31 63//63 32//32
f 34//34 65//65 35//35
f 37//37 67//67 38//38
f 40//40 59//59 41//41
f 10//10 12//12 53//53
f 13//13 15//15 54//54
f 16//16 18//18 55//55
f 19//19 21//21 56//56
f 7//7 9//9 57//57
f 73//73 74//74 75//75
f 76//76 77//77 78//78
f 79//79 80//80 81//81
f 82//82 83//83 84//84
f 85//85 86//86 87//87
f 88//88 89//89 90//90
f 91//91 92//92 93//93
f 94//94 95//95 96//96
f 97//97 98//98 99//99
f 100//100 101//101 102//102
f 103//103 104//104 105//105
f 106//106 107//107 108//108
f 109//109 110//110 111//111
f 112//112 113//113 114//114
f 115//115 116//116 117//117
f 88//88 118//118 119//119
f 91//91 120//120 121//121
f 94//94 122//122 123//123
f 97//97 124//124 125//125
f 100//100 126//126 127//127
f 128//128 129//129 2//2
f 130//130 131//131 3//3
f 132//132 133//133 4//4
f 134//134 135//135 5//5
f 136//136 137//137 6//6
f 76//76 138//138 8//8
f 73//73 139//139 11//11
f 85//85 140//140 14//14
f 82//82 141//141 17//17
f 79//79 142//142 20//20
f 143//143 144//144 23//23
f 145//145 146//146 24//24
f 147//147 148//148 25//25
f 149//149 150//150 26//26
f 151//151 152//152 27//27
f 103//103 153//153 29//29
f 106//106 154//154 32//32
f 109//109 155//155 35//35
f 112//112 156//156 38//38
f 115//115 157//157 41//41
f 73//73 75//75 43//43
f 76//76 78//78 45//45
f 79//79 81//81 47//47
f 82//82 84//84 49//49
f 85//85 87//87 51//51
f 88//88 90//90 53//53
f 91//91 93//93 54//54
f 94//94 96//96 55//55
f 97//97 99//99 56//56
f 100//100 102//102 57//57
f 103//103 105//105 58//58
f 106//106 108//108 60//60
f 109//109 111//111 62//62
f 112//112 114//114 64//64
f 115//115 117//117 66//66
f 88//88 119//119 68//68
f 91//91 121//121 69//69
f 94//94 123//123 70//70
f 97//97 125//125 71//71
f 100//100 127//127 72//72
f 130//130 74//74 46//46
f 132//132 77//77 48//48
f 134//134 80//80 50//50
f 136//136 83//83 52//52
f 128//128 86//86 44//44
f 158//158 89//89 42//42
f 159//159 92//92 30//30
f 160//160 95//95 33//33
f 161//161 98//98 36//36
f 162//162 101//101 39//39
f 145//145 104//104 61//61
f 147//147 107//107 63//63
f 149//149 110//110 65//65
f 151//151 113//113 67//67
f 143//143 116//116 59//59
f 159//159 118//118 12//12
f 160//160 120//120 15//15
f 161//161 122//122 18//18
f 162//162 124//124 21//21
f 158//158 126//126 9//9
f 130//130 129//129 74//74
f 132//132 131//131 77//77
f 134//134 133//133 80//80
f 136//136 135//135 83//83
f 128//128 137//137 86//86
f 158//158 138//138 89//89
f 159//159 139//139 92//92
f 160//160 140//140 95//95
f 161//161 141//141 98//98
f 162//162 142//142 101//101
f 145//145 144//144 104//104
f 147//147 146//146 107//107
f 149//149 148//148 110//110
f 151//151 150//150 113//113
f 143//143 152//152 116//116
f 159//159 153//153 118//118
f 160//160 154//154 120//120
f 161//161 155//155 122//122
f 162//162 156//156 124//124
f 158//158 157//157 126//126
f 130//130 3//3 129//129
f 132//132 4//4 131//131
f 134//134 5//5 133//133
f 136//136 6//6 135//135
f 128//128 2//2 137//137
f 158//158 9//9 138//138
f 159//159 12//12 139//139
f 160//160 15//15 140//140
f 161//161 18//18 141//141
f 162//162 21//21 142//142
f 145//145 24//24 144//144
f 147//147 25//25 146//146
f 149//149 26//26 148//148
f 151//151 27//27 150//150
f 143//143 23//23 152//152
f 159//159 30//30 153//153
f 160//160 33//33 154//154
f 161//161 36//36 155//155
f 162//162 39//39 156//156
f 158//158 42//42 157//157
f 128//128 44//44 75//75
f 130//130 46//46 78//78
f 132//132 48//48 81//81
f 134//134 50//50 84//84
f 136//136 52//52 87//87
f 76//76 45//45 90//90
f 73//73 43//43 93//93
f 85//85 51//51 96//96
f 82//82 49//49 99//99
f 79//79 47//47 102//102
f 143//143 59//59 105//105
f 145//145 61//61 108//108
f 147//147 63//63 111//111
f 149//149 65//65 114//114
f 151//151 67//67 117//117
f 103//103 58//58 119//119
f 106//106 60//60 121//121
f 109//109 62//62 123//123
f 112//112 64//64 125//125
f 115//115 66//66 127//127
f 73//73 11//11 74//74
f 76//76 8//8 77//77
f 79//79 20//20 80//80
f 82//82 17//17 83//83
f 85//85 14//14 86//86
f 88//88 68//68 89//89
f 91//91 69//69 92//92
f 94//94 70//70 95//95
f 97//97 71//71 98//98
f 100//100 72//72 101//101
f 103//103 29//29 104//104
f 106//106 32//32 107//107
f 109//109 35//35 110//110
f 112//112 38//38 113//113
f 115//115 41//41 116//116
f 88//88 53//53 118//118
f 91//91 54//54 120//120
f 94//94 55//55 122//122
f 97//97 56//56 124//124
f 100//100 57//57 126//126
f 128//128 75//75 129//129
f 130//130 78//78 131//131
f 132//132 81//81 133//133
f 134//134 84//84 135//135
f 136//136 87//87 137//137
f 76//76 90//90 138//138
f 73//73 93//93 139//139
f 85//85 96//96 140//140
f 82//82 99//99 141//141
f 79//79 102//102 142//142
f 143//143 105//105 144//144
f 145//145 108//108 146//146
f 147//147 111//111 148//148
f 149//149 114//114 150//150
f 151//151 117//117 152//152
f 103//103 119//119 153//153
f 106//106 121//121 154//154
f 109//109 123//123 155//155
f 112//112 125//125 156//156
f 115//115 127//127 157//157
f 129//129 3//3 2//2
f 131//131 4//4 3//3
f 133//133 5//5 4//4
f 135//135 6//6 5//5
f 137//137 2//2 6//6
f 138//138 9//9 8//8
f 139//139 12//12 11//11
f 140//140 15//15 14//14
f 141//141 18//18 17//17
f 142//142 21//21 20//20
f 144//144 24//24 23//23
f 146//146 25//25 24//24
f 148//148 26//26 25//25
f 150//150 27//27 26//26
f 152//152 23//23 27//27
f 153//153 30//30 29//29
f 154//154 33//33 32//32
f 155//155 36//36 35//35
f 156//156 39//39 38//38
f 157//157 42//42 41//41
f 75//75 44//44 43//43
f 78//78 46//46 45//45
f 81//81 48//48 47//47
f 84//84 50//50 49//49
f 87//87 52//52 51//51
f 90//90 45//45 53//53
f 93//93 43//43 54//54
f 96//96 51//51 55//55
f 99//99 49//49 56//56
f 102//102 47//47 57//57
f 105//105 59//59 58//58
f 108//108 61//61 60//60
f 111//111 63//63 62//62
f 114//114 65//65 64//64
f 117//117 67//67 66//66
f 119//119 58//58 68//68
f 121//121 60//60 69//69
f 123//123 62//62 70//70
f 125//125 64//64 71//71
f 127//127 66//66 72//72
f 74//74 11//11 46//46
f 77//77 8//8 48//48
f 80//80 20//20 50//50
f 83//83 17//17 52//52
f 86//86 14//14 44//44
f 89//89 68//68 42//42
f 92//92 69//69 30//30
f 95//95 70//70 33//33
f 98//98 71//71 36//36
f 101//101 72//72 39//39
f 104//104 29//29 61//61
f 107//107 32//32 63//63
f 110//110 35//35 65//65
f 113//113 38//38 67//67
f 116//116 41//41 59//59
f 118//118 53//53 12//12
f 120//120 54//54 15//15
f 122//122 55//55 18//18
f 124//124 56//56 21//21
f 126//126 57//57 9//9
f 129//129 75//75 74//74
f 131//131 78//78 77//77
f 133//133 81//81 80//80
f 135//135 84//84 83//83
f 137//137 87//87 86//86
f 138//138 90//90 89//89
f 139//139 93//93 92//92
f 140//140 96//96 95//95
f 141//141 99//99 98//98
f 142//142 102//102 101//101
f 144//144 105//105 104//104
f 146//146 108//108 107//107
f 148//148 111//111 110//110
f 150//150 114//114 113//113
f 152//152 117//117 116//116
f 153//153 119//119 118//118
f 154//154 121//121 120//120
f 155//155 123//123 122//122
f 156//156 125//125 124//124
f 157//157 127//127 126//126
