# Created by Open3D 
# object name: part_086
# number of vertices: 162
# number of triangles: 320
v -2.53756 6.43269 2.27242
vn -0.0443258 0.109858 0.992958
v -2.55504 6.41235 2.27317
vn -0.113693 0.0655588 0.991351
v -2.52536 6.41203 2.27477
vn -0.0227277 0.0478218 0.998597
v -2.49771 6.433 2.27322
vn 0.00210042 0.11048 0.993876
v -2.52575 6.44677 2.27091
vn -0.0244521 0.198738 0.979748
v -2.55541 6.44546 2.26949
vn -0.115691 0.158243 0.980599
v -1.27959 6.44589 2.26426
vn 0.054886 0.110899 0.992315
v -1.29132 6.42498 2.26677
vn 0.0346694 0.0484242 0.998225
v -1.26169 6.42592 2.26478
vn 0.125141 0.0680659 0.989801
v -1.90834 6.41587 2.26698
vn 0.0115817 -0.979546 0.200884
v -2.49455 6.40952 2.26927
vn 0.0108939 -0.986542 0.163144
v -1.90836 6.41507 2.26198
vn 0.0111758 -0.993151 0.116301
v -2.56877 6.40104 2.19177
vn -0.0648824 -0.991742 0.110625
v -2.57695 6.40213 2.19169
vn -0.807476 -0.5858 0.0694345
v -2.57009 6.39315 2.11774
vn -0.119355 -0.98852 0.0926443
v -2.56919 6.43831 2.18762
vn -0.0871322 0.990145 -0.109639
v -2.55627 6.44681 2.258
vn -0.0424298 0.993299 -0.1075
v -2.55702 6.43113 2.11697
vn -0.0424625 0.9927 -0.112884
v -2.03871 6.45362 2.26347
vn -0.0106149 0.999761 -0.0191071
v -1.35011 6.46073 2.26128
vn -0.00944058 0.994163 0.107471
v -1.32259 6.461 2.25732
vn -0.0104231 0.998279 -0.0577147
v -1.28048 6.42736 2.09765
vn 0.0443258 -0.109858 -0.992958
v -1.26255 6.40775 2.10134
vn 0.114652 -0.151173 -0.981836
v -1.29221 6.40643 2.09992
vn 0.024121 -0.172079 -0.984788
v -1.32032 6.42661 2.0969
vn -0.00210045 -0.11048 -0.993876
v -1.2926 6.44117 2.09606
vn 0.0224557 -0.0207047 -0.999533
v -1.26293 6.44085 2.09766
vn 0.114573 -0.0583679 -0.991699
v -1.90918 6.39822 2.1082
vn 0.0106151 -0.999761 0.0191336
v -1.32297 6.40451 2.10591
vn 0.0113642 -0.998285 0.0574283
v -1.90915 6.39853 2.11325
vn 0.0111135 -0.994453 0.104591
v -2.53845 6.41416 2.10581
vn -0.0548855 -0.110899 -0.992315
v -2.52625 6.39348 2.10792
vn -0.0332754 -0.172682 -0.984415
v -2.55591 6.39417 2.10973
vn -0.12418 -0.153681 -0.980286
v -2.03955 6.43597 2.10469
vn -0.0115816 0.97955 -0.200868
v -2.46829 6.43085 2.10528
vn -0.0123834 0.945217 -0.326209
v -2.49582 6.43137 2.10916
vn -0.0120656 0.986464 -0.163532
v -1.24919 6.45216 2.17906
vn 0.0648824 0.991742 -0.110625
v -1.26212 6.44472 2.10857
vn 0.0201544 0.993358 -0.11329
v -1.26137 6.4604 2.2496
vn 0.0201841 0.993956 -0.107908
v -1.24877 6.41489 2.1832
vn 0.0871322 -0.990145 0.109639
v -1.24063 6.41615 2.18302
vn 0.82042 -0.568722 0.0588764
v -1.24746 6.42348 2.25715
vn 0.141465 -0.981849 0.126336
v -2.55584 6.40848 2.26226
vn -0.0201544 -0.993358 0.11329
v -2.56931 6.40961 2.26572
vn -0.119166 -0.984586 0.128023
v -1.34968 6.42235 2.26555
vn 0.0123492 -0.945792 0.324538
v -2.46699 6.41063 2.27279
vn 0.0117102 -0.945801 0.324536
v -1.29171 6.45972 2.2629
vn 0.032982 0.199345 0.979374
v -1.31943 6.44537 2.26557
vn 0.00847295 0.110547 0.993835
v -2.49499 6.44869 2.26492
vn -0.0114992 0.998308 -0.0570039
v -2.46742 6.449 2.26853
vn -0.0100602 0.993813 0.110614
v -2.57734 6.43705 2.18781
vn -0.706035 0.704241 -0.0745542
v -2.56972 6.44618 2.26166
vn -0.141278 0.985783 -0.0909544
v -1.32215 6.42183 2.26167
vn 0.0119268 -0.986531 0.163141
v -2.55659 6.3928 2.12123
vn -0.0201841 -0.993956 0.107908
v -2.5705 6.42972 2.11368
vn -0.141465 0.981849 -0.126336
v -2.04034 6.45329 2.25843
vn -0.0111135 0.994453 -0.104592
v -1.26206 6.45903 2.2611
vn 0.125056 0.160771 0.979037
v -1.26169 6.40639 2.11283
vn 0.04243 -0.993299 0.1075
v -1.24825 6.40702 2.10917
vn 0.141278 -0.985783 0.0909545
v -2.46785 6.39248 2.10955
vn 0.00940472 -0.994006 -0.108923
v -1.35055 6.4042 2.1023
vn 0.0100436 -0.993998 -0.108934
v -2.52664 6.42822 2.10406
vn -0.0349785 -0.0213078 -0.999161
v -2.49861 6.41425 2.10454
vn -0.00847293 -0.110547 -0.993835
v -1.32341 6.44368 2.10155
vn -0.0109822 0.986587 -0.162869
v -1.35098 6.44257 2.09803
vn -0.0117313 0.946253 -0.323213
v -1.24102 6.45107 2.17914
vn 0.690074 0.718893 -0.0836096
v -1.24866 6.44359 2.1051
vn 0.119166 0.984586 -0.128023
v -1.26094 6.42207 2.25386
vn 0.0424627 -0.9927 0.112884
v -2.49538 6.3922 2.11351
vn 0.0103324 -0.998294 0.0574654
v -2.55628 6.42728 2.10605
vn -0.126175 -0.0608951 -0.990137
v -2.04113 6.43675 2.1097
vn -0.0111758 0.993151 -0.116301
v -1.24787 6.46005 2.25309
vn 0.119355 0.98852 -0.0926442
v -2.5342 6.40895 2.26692
vn 0.000736972 -0.992813 0.119677
v -2.52414 6.40992 2.27182
vn -0.000488173 -0.959261 0.282521
v -2.55451 6.40962 2.26943
vn -0.0273338 -0.970712 0.238685
v -1.3119 6.42353 2.2665
vn 0.0149793 -0.764348 0.644629
v -1.34905 6.42445 2.26796
vn 0.00662218 0.0479331 0.998829
v -1.90833 6.41723 2.27079
vn 0.0121806 -0.756882 0.653439
v -1.31232 6.46062 2.26237
vn -0.003939 0.886515 0.462683
v -2.03257 6.4532 2.26745
vn -0.00619716 0.881924 0.471351
v -1.34944 6.45923 2.26409
vn 0.00484468 0.206646 0.978404
v -2.53464 6.44786 2.26259
vn -0.0215481 0.994633 -0.101195
v -2.55494 6.44731 2.26524
vn -0.0494149 0.998581 0.0198565
v -2.52457 6.44821 2.26756
vn -0.0224332 0.99763 0.065047
v -2.57978 6.42321 2.18936
vn -0.999924 -0.0104946 0.00648574
v -2.5758 6.41126 2.26566
vn -0.975401 -0.153319 0.158385
v -2.57617 6.44441 2.26198
vn -0.97534 0.185495 0.119594
v -1.28252 6.42208 2.2588
vn 0.0216471 -0.992593 0.119547
v -1.2622 6.42318 2.26104
vn 0.0507952 -0.969883 0.238216
v -1.29254 6.42284 2.26383
vn 0.024282 -0.958996 0.282379
v -2.53501 6.3922 2.11635
vn 0.000640596 -0.994852 0.101336
v -2.496 6.39282 2.12082
vn 0.0106161 -0.993958 0.109243
v -2.53775 6.40044 2.19167
vn 0.000945583 -0.993874 0.110512
v -2.56629 6.4286 2.10871
vn -0.307654 0.378782 -0.872854
v -2.56944 6.41444 2.1099
vn -0.352948 -0.10726 -0.929475
v -2.57696 6.42793 2.11383
vn -0.976759 0.155834 -0.147163
v -2.04125 6.44509 2.18406
vn -0.0111449 0.993819 -0.110451
v -2.49645 6.43237 2.11643
vn -0.0118127 0.993676 -0.111659
v -2.4957 6.44807 2.25762
vn -0.0118001 0.993946 -0.109232
v -1.25207 6.45995 2.25819
vn 0.297043 0.56788 0.767644
v -1.26262 6.46087 2.25686
vn 0.0287125 0.9994 0.0193538
v -1.27271 6.46059 2.26082
vn 0.039474 0.921663 0.385979
v -1.28332 6.40534 2.10823
vn 0.0215481 -0.994633 0.101195
v -1.2934 6.40499 2.10327
vn 0.0224332 -0.99763 -0.0650469
v -1.26303 6.40589 2.10559
vn 0.0494148 -0.998581 -0.0198562
v -2.50565 6.39258 2.10845
vn 0.00354225 -0.887315 -0.46115
v -2.46852 6.39397 2.10673
vn -0.00522336 -0.172672 -0.984966
v -1.90922 6.3987 2.10418
vn 0.00619717 -0.881924 -0.471351
v -2.50606 6.42967 2.10433
vn -0.0155754 0.765924 -0.642743
v -2.03346 6.43468 2.10084
vn -0.0121806 0.756882 -0.653439
v -2.46891 6.42876 2.10287
vn -0.00689862 -0.0248061 -0.999668
v -1.28376 6.44426 2.10391
vn -0.000736973 0.992813 -0.119677
v -1.26345 6.44359 2.1014
vn 0.0273338 0.970712 -0.238685
v -1.29383 6.44328 2.09901
vn 0.000488169 0.959261 -0.282521
v -1.23826 6.43729 2.18066
vn 0.999924 0.0104912 -0.00648535
v -1.24179 6.40879 2.10885
vn 0.978945 -0.162707 -0.123262
v -1.24216 6.44194 2.10517
vn 0.971283 0.176275 -0.159803
v -1.32152 6.42083 2.2544
vn 0.0116739 -0.993678 0.111656
v -1.27977 6.41364 2.18351
vn 0.0213416 -0.993661 0.110378
v -2.55534 6.39233 2.11397
vn -0.0287124 -0.9994 -0.0193536
v -2.52499 6.39206 2.11125
vn -0.00233862 -0.997889 -0.0648953
v -2.55576 6.43003 2.10978
vn -0.0507952 0.969883 -0.238216
v -2.54566 6.4291 2.10595
vn -0.0589301 0.813338 -0.5788
v -1.32196 6.46039 2.25
vn -0.0107066 0.993957 -0.109246
v -1.32271 6.44469 2.10881
vn -0.0107195 0.993689 -0.11166
v -1.2486 6.44595 2.26013
vn 0.352948 0.107259 0.929475
v -1.24137 6.45841 2.25332
vn 0.972702 0.205937 0.106961
v -2.56505 6.41082 2.27063
vn -0.310291 -0.262011 0.913821
v -2.54439 6.41075 2.27313
vn -0.0343399 -0.814296 0.579434
v -2.50476 6.41101 2.27423
vn 0.00942532 -0.764412 0.644659
v -2.46763 6.41271 2.27521
vn 0.00532926 0.0479195 0.998837
v -1.90857 6.43967 2.26967
vn 0.0052867 0.110514 0.993861
v -2.46802 6.44749 2.27135
vn 0.00363578 0.195404 0.980716
v -2.50518 6.4481 2.27011
vn -0.00971578 0.888426 0.458916
v -2.5448 6.44724 2.26907
vn -0.0537932 0.920682 0.38659
v -2.56545 6.44617 2.2667
vn -0.298904 0.561621 0.771517
v -2.56859 6.4321 2.26869
vn -0.343032 0.0999513 0.933991
v -1.2723 6.4241 2.26488
vn 0.0589302 -0.813338 0.578799
v -2.49525 6.40852 2.26201
vn 0.0106287 -0.993689 0.111663
v -2.57659 6.39479 2.11751
vn -0.976832 -0.183226 -0.110577
v -2.53819 6.43956 2.18732
vn -0.0213416 0.993661 -0.110378
v -1.29297 6.46114 2.25957
vn 0.00233862 0.997889 0.0648953
v -1.25251 6.40703 2.10412
vn 0.318265 -0.449296 -0.834769
v -1.27317 6.40596 2.10176
vn 0.0537932 -0.920682 -0.38659
v -1.31278 6.4051 2.10072
vn 0.00909737 -0.887304 -0.461096
v -1.34994 6.40571 2.09948
vn -0.00393039 -0.172658 -0.984974
v -1.90947 6.42084 2.10034
vn -0.00528672 -0.110514 -0.993861
v -1.35033 6.44049 2.09561
vn -0.00567865 -0.0133336 -0.999895
v -1.3132 6.44219 2.0966
vn -0.00983767 0.763297 -0.645973
v -1.27358 6.44245 2.0977
vn 0.0343399 0.814295 -0.579434
v -1.25291 6.44238 2.1002
vn 0.288292 0.385023 -0.876724
v -1.24945 6.42829 2.10134
vn 0.343032 -0.0999521 -0.933991
v -1.32227 6.40513 2.11321
vn 0.011661 -0.993947 0.109236
v -2.54525 6.39261 2.11001
vn -0.039474 -0.921663 -0.385979
v -2.52542 6.43036 2.107
vn -0.024282 0.958995 -0.282379
v -1.28021 6.45276 2.17916
vn -0.000945583 0.993874 -0.110512
v -1.241 6.42527 2.257
vn 0.980375 -0.132801 0.145699
v -1.25167 6.4246 2.26211
vn 0.327548 -0.255324 0.909682
v -1.90876 6.40672 2.18762
vn 0.0111449 -0.993819 0.110449
v -2.56589 6.39325 2.11264
vn -0.319575 -0.455995 -0.830626
v -2.53544 6.43112 2.11203
vn -0.0216471 0.992593 -0.119547
v -1.28296 6.461 2.25447
vn -0.000640596 0.994852 -0.101336
f 1//1 2//2 3//3
f 1//1 3//3 4//4
f 1//1 4//4 5//5
f 1//1 5//5 6//6
f 1//1 6//6 2//2
f 7//7 8//8 9//9
f 10//10 11//11 12//12
f 13//13 14//14 15//15
f 16//16 17//17 18//18
f 19//19 20//20 21//21
f 22//22 23//23 24//24
f 22//22 24//24 25//25
f 22//22 25//25 26//26
f 22//22 26//26 27//27
f 22//22 27//27 23//23
f 28//28 29//29 30//30
f 31//31 32//32 33//33
f 34//34 35//35 36//36
f 37//37 38//38 39//39
f 40//40 41//41 42//42
f 13//13 43//43 44//44
f 10//10 45//45 46//46
f 7//7 47//47 48//48
f 19//19 49//49 50//50
f 16//16 51//51 52//52
f 10//10 53//53 45//45
f 13//13 54//54 43//43
f 16//16 55//55 51//51
f 19//19 56//56 49//49
f 7//7 57//57 47//47
f 40//40 58//58 59//59
f 28//28 60//60 61//61
f 31//31 62//62 63//63
f 34//34 64//64 65//65
f 37//37 66//66 67//67
f 40//40 68//68 58//58
f 28//28 69//69 60//60
f 31//31 70//70 62//62
f 34//34 71//71 64//64
f 37//37 72//72 66//66
f 10//10 46//46 11//11
f 7//7 48//48 8//8
f 19//19 50//50 20//20
f 16//16 52//52 17//17
f 13//13 44//44 14//14
f 40//40 42//42 68//68
f 28//28 30//30 69//69
f 31//31 33//33 70//70
f 34//34 36//36 71//71
f 37//37 39//39 72//72
f 28//28 61//61 29//29
f 31//31 63//63 32//32
f 34//34 65//65 35//35
f 37//37 67//67 38//38
f 40//40 59//59 41//41
f 10//10 12//12 53//53
f 13//13 15//15 54//54
f 16//16 18//18 55//55
f 19//19 21//21 56//56
f 7//7 9//9 57//57
f 73//73 74//74 75//75
f 76//76 77//77 78//78
f 79//79 80//80 81//81
f 82//82 83//83 84//84
f 85//85 86//86 87//87
f 88//88 89//89 90//90
f 91//91 92//92 93//93
f 94//94 95//95 96//96
f 97//97 98//98 99//99
f 100//100 101//101 102//102
f 103//103 104//104 105//105
f 106//106 107//107 108//108
f 109//109 110//110 111//111
f 112//112 113//113 114//114
f 115//115 116//116 117//117
f 88//88 118//118 119//119
f 91//91 120//120 121//121
f 94//94 122//122 123//123
f 97//97 124//124 125//125
f 100//100 126//126 127//127
f 128//128 129//129 2//2
f 130//130 131//131 3//3
f 132//132 133//133 4//4
f 134//134 135//135 5//5
f 136//136 137//137 6//6
f 76//76 138//138 8//8
f 73//73 139//139 11//11
f 85//85 140//140 14//14
f 82//82 141//141 17//17
f 79//79 142//142 20//20
f 143//143 144//144 23//23
f 145//145 146//146 24//24
f 147//147 148//148 25//25
f 149//149 150//150 26//26
f 151//151 152//152 27//27
f 103//103 153//153 29//29
f 106//106 154//154 32//32
f 109//109 155//155 35//35
f 112//112 156//156 38//38
f 115//115 157//157 41//41
f 73//73 75//75 43//43
f 76//76 78//78 45//45
f 79//79 81//81 47//47
f 82//82 84//84 49//49
f 85//85 87//87 51//51
f 88//88 90//90 53//53
f 91//91 93//93 54//54
f 94//94 96//96 55//55
f 97//97 99//99 56//56
f 100//100 102//102 57//57
f 103//103 105//105 58//58
f 106//106 108//108 60//60
f 109//109 111//111 62//62
f 112//112 114//114 64//64
f 115//115 117//117 66//66
f 88//88 119//119 68//68
f 91//91 121//121 69//69
f 94//94 123//123 70//70
f 97//97 125//125 71//71
f 100//100 127//127 72//72
f 130//130 74//74 46//46
f 132//132 77//77 48//48
f 134//134 80//80 50//50
f 136//136 83//83 52//52
f 128//128 86//86 44//44
f 158//158 89//89 42//42
f 159//159 92//92 30//30
f 160//160 95//95 33//33
f 161//161 98//98 36//36
f 162//162 101//101 39//39
f 145//145 104//104 61//61
f 147//147 107//107 63//63
f 149//149 110//110 65//65
f 151//151 113//113 67//67
f 143//143 116//116 59//59
f 159//159 118//118 12//12
f 160//160 120//120 15//15
f 161//161 122//122 18//18
f 162//162 124//124 21//21
f 158//158 126//126 9//9
f 130//130 129//129 74//74
f 132//132 131//131 77//77
f 134//134 133//133 80//80
f 136//136 135//135 83//83
f 128//128 137//137 86//86
f 158//158 138//138 89//89
f 159//159 139//139 92//92
f 160//160 140//140 95//95
f 161//161 141//141 98//98
f 162//162 142//142 101//101
f 145//145 144//144 104//104
f 147//147 146//146 107//107
f 149//149 148//148 110//110
f 151//151 150//150 113//113
f 143//143 152//152 116//116
f 159//159 153//153 118//118
f 160//160 154//154 120//120
f 161//161 155//155 122//122
f 162//162 156//156 124//124
f 158//158 157//157 126//126
f 130//130 3//3 129//129
f 132//132 4//4 131//131
f 134//134 5//5 133//133
f 136//136 6//6 135//135
f 128//128 2//2 137//137
f 158//158 9//9 138//138
f 159//159 12//12 139//139
f 160//160 15//15 140//140
f 161//161 18//18 141//141
f 162//162 21//21 142//142
f 145//145 24//24 144//144
f 147//147 25//25 146//146
f 149//149 26//26 148//148
f 151//151 27//27 150//150
f 143//143 23//23 152//152
f 159//159 30//30 153//153
f 160//160 33//33 154//154
f 161//161 36//36 155//155
f 162//162 39//39 156//156
f 158//158 42//42 157//157
f 128//128 44//44 75//75
f 130//130 46//46 78//78
f 132//132 48//48 81//81
f 134//134 50//50 84//84
f 136//136 52//52 87//87
f 76//76 45//45 90//90
f 73//73 43//43 93//93
f 85//85 51//51 96//96
f 82//82 49//49 99//99
f 79//79 47//47 102//102
f 143//143 59//59 105//105
f 145//145 61//61 108//108
f 147//147 63//63 111//111
f 149//149 65//65 114//114
f 151//151 67//67 117//117
f 103//103 58//58 119//119
f 106//106 60//60 121//121
f 109//109 62//62 123//123
f 112//112 64//64 125//125
f 115//115 66//66 127//127
f 73//73 11//11 74//74
f 76//76 8//8 77//77
f 79//79 20//20 80//80
f 82//82 17//17 83//83
f 85//85 14//14 86//86
f 88//88 68//68 89//89
f 91//91 69//69 92//92
f 94//94 70//70 95//95
f 97//97 71//71 98//98
f 100//100 72//72 101//101
f 103//103 29//29 104//104
f 106//106 32//32 107//107
f 109//109 35//35 110//110
f 112//112 38//38 113//113
f 115//115 41//41 116//116
f 88//88 53//53 118//118
f 91//91 54//54 120//120
f 94//94 55//55 122//122
f 97//97 56//56 124//124
f 100//100 57//57 126//126
f 128//128 75//75 129//129
f 130//130 78//78 131//131
f 132//132 81//81 133//133
f 134//134 84//84 135//135
f 136//136 87//87 137//137
f 76//76 90//90 138//138
f 73//73 93//93 139//139
f 85//85 96//96 140//140
f 82//82 99//99 141//141
f 79//79 102//102 142//142
f 143//143 105//105 144//144
f 145//145 108//108 146//146
f 147//147 111//111 148//148
f 149//149 114//114 150//150
f 151//151 117//117 152//152
f 103//103 119//119 153//153
f 106//106 121//121 154//154
f 109//109 123//123 155//155
f 112//112 125//125 156//156
f 115//115 127//127 157//157
f 129//129 3//3 2//2
f 131//131 4//4 3//3
f 133//133 5//5 4//4
f 135//135 6//6 5//5
f 137//137 2//2 6//6
f 138//138 9//9 8//8
f 139//139 12//12 11//11
f 140//140 15//15 14//14
f 141//141 18//18 17//17
f 142//142 21//21 20//20
f 144//144 24//24 23//23
f 146//146 25//25 24//24
f 148//148 26//26 25//25
f 150//150 27//27 26//26
f 152//152 23//23 27//27
f 153//153 30//30 29//29
f 154//154 33//33 32//32
f 155//155 36//36 35//35
f 156//156 39//39 38//38
f 157//157 42//42 41//41
f 75//75 44//44 43//43
f 78//78 46//46 45//45
f 81//81 48//48 47//47
f 84//84 50//50 49//49
f 87//87 52//52 51//51
f 90//90 45//45 53//53
f 93//93 43//43 54//54
f 96//96 51//51 55//55
f 99//99 49//49 56//56
f 102//102 47//47 57//57
f 105//105 59//59 58//58
f 108//108 61//61 60//60
f 111//111 63//63 62//62
f 114//114 65//65 64//64
f 117//117 67//67 66//66
f 119//119 58//58 68//68
f 121//121 60//60 69//69
f 123//123 62//62 70//70
f 125//125 64//64 71//71
f 127//127 66//66 72//72
f 74//74 11//11 46//46
f 77//77 8//8 48//48
f 80//80 20//20 50//50
f 83//83 17//17 52//52
f 86//86 14//14 44//44
f 89//89 68//68 42//42
f 92//92 69//69 30//30
f 95//95 70//70 33//33
f 98//98 71//71 36//36
f 101//101 72//72 39//39
f 104//104 29//29 61//61
f 107//107 32//32 63//63
f 110//110 35//35 65//65
f 113//113 38//38 67//67
f 116//116 41//41 59//59
f 118//118 53//53 12//12
f 120//120 54//54 15//15
f 122//122 55//55 18//18
f 124//124 56//56 21//21
f 126//126 57//57 9//9
f 129//129 75//75 74//74
f 131//131 78//78 77//77
f 133//133 81//81 80//80
f 135//135 84//84 83//83
f 137//137 87//87 86//86
f 138//138 90//90 89//89
f 139//139 93//93 92//92
f 140//140 96//96 95//95
f 141//141 99//99 98//98
f 142//142 102//102 101//101
f 144//144 105//105 104//104
f 146//146 108//108 107//107
f 148//148 111//111 110//110
f 150//150 114//114 113//113
f 152//152 117//117 116//116
f 153//153 119//119 118//118
f 154//154 121//121 120//120
f 155//155 123//123 122//122
f 156//156 125//125 124//124
f 157//157 127//127 126//126
