# Created by Open3D 
# object name: part_018
# number of vertices: 162
# number of triangles: 320
v 2.74737 6.47581 1.99548
vn 0.00692914 0.410635 -0.911774
v 2.76667 6.45688 1.9874
vn 0.030794 0.394643 -0.918319
v 2.73348 6.457 1.9871
vn -0.000841187 0.388726 -0.921353
v 2.70279 6.47658 1.99588
vn -0.00904593 0.410984 -0.911598
v 2.73433 6.48886 2.00146
vn 0.000618523 0.442083 -0.896974
v 2.76748 6.48724 2.00108
vn 0.0320249 0.42756 -0.903419
v 1.3403 6.50128 2.02261
vn -0.0272073 0.411255 -0.911114
v 1.35316 6.48198 2.01372
vn -0.0206073 0.389082 -0.920972
v 1.32002 6.48306 2.0153
vn -0.0518762 0.396135 -0.916725
v 2.04328 6.46684 2.00093
vn -0.0261047 -0.79108 -0.611155
v 2.69897 6.45471 1.9888
vn -0.0251191 -0.84649 -0.531811
v 2.04329 6.46582 2.0026
vn -0.0245694 -0.905055 -0.424583
v 2.78184 6.4417 2.01508
vn 0.0435889 -0.910574 -0.411042
v 2.791 6.44261 2.01539
vn 0.765983 -0.582812 -0.271294
v 2.78318 6.43023 2.04131
vn 0.0927829 -0.925399 -0.36746
v 2.78276 6.47588 2.03048
vn 0.0923021 0.908117 0.408417
v 2.76846 6.48783 2.00609
vn 0.0523061 0.91346 0.403553
v 2.76901 6.4654 2.05584
vn 0.0524489 0.907677 0.41638
v 2.18957 6.50009 2.01429
vn 0.0213942 0.981983 0.187754
v 1.41935 6.51404 2.0282
vn 0.0158456 0.994868 -0.0999287
v 1.38857 6.51437 2.03028
vn 0.022426 0.959027 0.282425
v 1.34095 6.47477 2.08139
vn -0.00692811 -0.410635 0.911774
v 1.32066 6.45706 2.07295
vn -0.03161 -0.425056 0.904615
v 1.35382 6.45544 2.07258
vn -0.000333761 -0.43265 0.901562
v 1.38551 6.47361 2.0808
vn 0.00904609 -0.410984 0.911598
v 1.35467 6.48731 2.08693
vn 0.00107185 -0.379039 0.92538
v 1.32148 6.48743 2.08664
vn -0.0310762 -0.392067 0.919412
v 2.0439 6.44159 2.05694
vn -0.0213941 -0.981984 -0.187748
v 1.38821 6.45367 2.06904
vn -0.023253 -0.9592 -0.281772
v 2.04388 6.44217 2.05507
vn -0.0242588 -0.917643 -0.396665
v 2.74802 6.44931 2.05425
vn 0.0272084 -0.411255 0.911114
v 2.73413 6.43046 2.04596
vn 0.019433 -0.433006 0.901181
v 2.76731 6.43088 2.04505
vn 0.0510581 -0.426551 0.903021
v 2.19019 6.47483 2.0703
vn 0.0261047 0.791078 0.611158
v 2.66974 6.46545 2.06169
vn 0.0264704 0.578799 0.815041
v 2.70054 6.46586 2.05994
vn 0.0261634 0.845887 0.532719
v 1.3063 6.50261 2.05896
vn -0.0435888 0.910574 0.411042
v 1.32063 6.49162 2.08378
vn -0.00349993 0.908687 0.417464
v 1.32008 6.51405 2.03403
vn -0.00363851 0.914474 0.404629
v 1.30539 6.46842 2.04355
vn -0.0923022 -0.908117 -0.408417
v 1.29629 6.46967 2.04422
vn -0.796457 -0.554525 -0.241161
v 1.30407 6.48053 2.01762
vn -0.141227 -0.88311 -0.447405
v 2.76751 6.45269 1.99026
vn 0.00349993 -0.908687 -0.417464
v 2.7826 6.45377 1.9891
vn 0.0918341 -0.887331 -0.451895
v 1.41841 6.47885 2.01234
vn -0.0264597 -0.581573 -0.813064
v 2.66815 6.45623 1.98824
vn -0.0259536 -0.581559 -0.81309
v 1.35402 6.51384 2.02808
vn -0.0191966 0.442438 -0.896593
v 1.38485 6.50043 2.0213
vn -0.011236 0.411022 -0.911556
v 2.69993 6.49063 2.00499
vn 0.0233609 0.959484 0.280793
v 2.6691 6.49142 2.0041
vn 0.0162189 0.994194 -0.106374
v 2.79186 6.47464 2.02982
vn 0.675173 0.675253 0.296944
v 2.78349 6.48731 2.00421
vn 0.140282 0.921182 0.362968
v 1.3876 6.47844 2.01409
vn -0.0260349 -0.846464 -0.53181
v 2.76807 6.43025 2.04001
vn 0.00363851 -0.914474 -0.404629
v 2.78407 6.46377 2.05642
vn 0.141228 0.88311 0.447405
v 2.19139 6.49947 2.01613
vn 0.0242588 0.917643 0.396664
v 1.32083 6.51342 2.02898
vn -0.0513406 0.429071 -0.90181
v 1.31969 6.45647 2.06794
vn -0.052306 -0.91346 -0.403553
v 1.30465 6.45699 2.06982
vn -0.140283 -0.921182 -0.362967
v 2.66879 6.43026 2.04583
vn -0.0157645 -0.994571 0.102854
v 1.41905 6.45288 2.06993
vn -0.0162696 -0.994559 0.102897
v 2.73498 6.46232 2.06031
vn 0.0208853 -0.379394 0.924999
v 2.70346 6.44975 2.05538
vn 0.0112361 -0.411022 0.911556
v 1.38918 6.48959 2.08523
vn 0.0251943 0.846834 0.53126
v 1.41999 6.48807 2.08579
vn 0.0259834 0.584016 0.811326
v 1.29714 6.50169 2.05864
vn -0.638347 0.699035 0.322277
v 1.30555 6.49053 2.08493
vn -0.0918344 0.887331 0.451896
v 1.31914 6.4789 2.01819
vn -0.0524489 -0.907677 -0.41638
v 2.69958 6.42994 2.04375
vn -0.0223373 -0.959229 -0.281746
v 2.76813 6.46124 2.05874
vn 0.0522886 -0.393575 0.917804
v 2.19198 6.47582 2.06859
vn 0.0245695 0.90505 0.424595
v 1.30497 6.51407 2.03273
vn -0.0927826 0.925399 0.367461
v 2.74332 6.45361 1.98892
vn -0.0153094 -0.901461 -0.43259
v 2.73208 6.45489 1.9875
vn -0.0162105 -0.655426 -0.755085
v 2.76605 6.45415 1.98787
vn 0.00696185 -0.730435 -0.682947
v 1.37617 6.4804 2.01298
vn -0.0224445 -0.0976554 -0.994967
v 1.41773 6.48092 2.01218
vn -0.0109511 0.388853 -0.921235
v 2.04329 6.46831 1.99993
vn -0.0207837 -0.0870524 -0.995987
v 1.37708 6.51442 2.02831
vn 0.00206735 0.809549 -0.587049
v 2.18271 6.49999 2.01266
vn 0.00309132 0.804156 -0.59441
v 1.41859 6.51282 2.02655
vn -0.00944718 0.44495 -0.895506
v 2.74428 6.4893 2.005
vn 0.0335051 0.92084 0.388499
v 2.76698 6.48872 2.00345
vn 0.0531594 0.994147 0.0940567
v 2.73302 6.49001 2.00332
vn 0.0281225 0.99956 -0.00943198
v 2.79443 6.46192 2.02406
vn 0.999651 -0.0180919 -0.0192755
v 2.78988 6.45522 1.98964
vn 0.90663 -0.0168857 -0.421589
v 2.7907 6.48562 2.00334
vn 0.911856 0.307247 -0.272244
v 1.34328 6.47895 2.01592
vn -0.0339933 -0.901124 -0.432226
v 1.32056 6.48031 2.01575
vn -0.0596957 -0.729224 -0.681666
v 1.3545 6.47983 2.01407
vn -0.0366216 -0.655076 -0.754675
v 2.74391 6.42966 2.04203
vn -0.0148252 -0.921182 -0.38885
v 2.70029 6.4309 2.04109
vn -0.0239177 -0.912759 -0.407798
v 2.74714 6.44148 2.01537
vn -0.0153013 -0.911581 -0.410835
v 2.77935 6.4625 2.05802
vn 0.135056 -0.204925 0.969415
v 2.7827 6.44946 2.05227
vn 0.136599 -0.40999 0.901803
v 2.79128 6.46206 2.0556
vn 0.919263 0.00704263 0.39358
v 2.19226 6.48771 2.04238
vn 0.024417 0.911455 0.410675
v 2.70127 6.46718 2.05743
vn 0.0250405 0.910134 0.413557
v 2.70071 6.48964 2.00763
vn 0.0249761 0.912744 0.407769
v 1.30967 6.51422 2.03062
vn -0.124574 0.596165 -0.793138
v 1.32149 6.51488 2.03132
vn -0.013494 0.995347 0.0954022
v 1.33277 6.51474 2.02951
vn -0.0215949 0.856553 -0.515607
v 1.34387 6.455 2.06903
vn -0.033505 -0.92084 -0.388499
v 1.35513 6.45429 2.07071
vn -0.0281224 -0.99956 0.00943208
v 1.32117 6.45558 2.07059
vn -0.0531593 -0.994147 -0.0940549
v 2.71107 6.42988 2.04573
vn -0.00188526 -0.810495 0.585743
v 2.66956 6.43148 2.04748
vn 0.00977029 -0.43293 0.901374
v 2.04394 6.44181 2.0587
vn -0.00309132 -0.804156 0.59441
v 2.71198 6.4639 2.06105
vn 0.022803 0.0999403 0.994732
v 2.18336 6.47349 2.07144
vn 0.0207837 0.0870524 0.995987
v 2.67041 6.46338 2.06186
vn 0.011177 -0.380594 0.924675
v 1.34482 6.49069 2.08512
vn 0.0153094 0.901461 0.43259
v 1.3221 6.49016 2.08616
vn -0.00696187 0.730435 0.682947
v 1.35607 6.48941 2.08653
vn 0.0162105 0.655426 0.755085
v 1.2939 6.48908 2.05299
vn -0.99965 0.0180926 0.0192781
v 1.29745 6.45868 2.0707
vn -0.914755 -0.286429 0.284924
v 1.29826 6.48908 2.08439
vn -0.902552 0.0400151 0.428717
v 1.38688 6.47712 2.0166
vn -0.0249161 -0.910141 -0.413549
v 1.34005 6.46695 2.0425
vn -0.0335298 -0.911251 -0.410484
v 2.76666 6.42942 2.04271
vn 0.013494 -0.995347 -0.0954018
v 2.73271 6.42936 2.04414
vn -0.00771508 -0.99993 0.00892937
v 2.76759 6.46399 2.05829
vn 0.0596958 0.729224 0.681666
v 2.75627 6.46304 2.05961
vn 0.0493516 0.179614 0.982498
v 1.38785 6.5134 2.03294
vn 0.0239986 0.912756 0.4078
v 1.38841 6.49094 2.08275
vn 0.0240627 0.910159 0.413559
v 1.30563 6.50144 2.02473
vn -0.136599 0.40999 -0.901803
v 1.29768 6.51264 2.03213
vn -0.909959 0.340219 -0.237118
v 2.77786 6.45521 1.98768
vn 0.108747 0.260618 -0.959298
v 2.75474 6.45551 1.98698
vn 0.00491508 -0.180617 -0.983541
v 2.71042 6.45625 1.98725
vn -0.0194697 -0.0977171 -0.995024
v 2.6689 6.45828 1.98805
vn -0.0105061 0.388842 -0.921244
v 2.04383 6.48897 2.00866
vn -0.0101413 0.411003 -0.911578
v 2.66975 6.49018 2.00242
vn -0.00909425 0.440964 -0.897479
v 2.71133 6.49027 2.00257
vn 0.00524082 0.811752 -0.583979
v 2.75563 6.48898 2.00207
vn 0.0326706 0.855533 -0.516716
v 2.77873 6.48763 2.00229
vn 0.115389 0.591823 -0.797766
v 2.78207 6.47471 1.99626
vn 0.116475 0.405407 -0.906686
v 1.33187 6.48127 2.01442
vn -0.0493516 -0.179614 -0.982498
v 2.69974 6.45336 1.99128
vn -0.0239818 -0.910159 -0.413565
v 2.79046 6.43166 2.0419
vn 0.914097 -0.319527 0.249658
v 2.7481 6.47735 2.03153
vn 0.0335298 0.911251 0.410484
v 1.35544 6.51495 2.02989
vn 0.0077151 0.99993 -0.00892892
v 1.30942 6.45667 2.07175
vn -0.116255 -0.54092 0.833001
v 1.33251 6.45532 2.07197
vn -0.0326706 -0.855534 0.516715
v 1.37682 6.45403 2.07146
vn -0.00485875 -0.810413 0.585839
v 1.41839 6.45413 2.07161
vn 0.00932517 -0.432921 0.901384
v 2.0445 6.46203 2.06839
vn 0.0101412 -0.411003 0.911578
v 1.41925 6.48602 2.08598
vn 0.010821 -0.376478 0.926362
v 1.37773 6.48805 2.08679
vn 0.0196682 0.0961137 0.995176
v 1.33341 6.48879 2.08705
vn -0.0049151 0.180617 0.983541
v 1.31029 6.48909 2.08635
vn -0.104913 -0.200598 0.97404
v 1.30625 6.47618 2.08075
vn -0.116476 -0.405407 0.906685
v 1.38743 6.45467 2.06641
vn -0.0248519 -0.912741 -0.407782
v 2.75538 6.42957 2.04453
vn 0.021595 -0.856553 0.515607
v 2.73365 6.46448 2.05997
vn 0.0366216 0.655075 0.754676
v 1.34101 6.50282 2.05867
vn 0.0153013 0.911581 0.410835
v 1.29687 6.48225 2.01843
vn -0.922223 0.0162161 -0.386319
v 1.3088 6.4818 2.01601
vn -0.136147 0.265039 -0.954578
v 2.04358 6.45392 2.0288
vn -0.024417 -0.911455 -0.410675
v 2.77848 6.43008 2.04341
vn 0.128637 -0.545354 0.828277
v 2.74487 6.46535 2.05811
vn 0.0339933 0.901124 0.432226
v 1.34423 6.51464 2.032
vn 0.0148253 0.921182 0.38885
f 1//1 2//2 3//3
f 1//1 3//3 4//4
f 1//1 4//4 5//5
f 1//1 5//5 6//6
f 1//1 6//6 2//2
f 7//7 8//8 9//9
f 10//10 11//11 12//12
f 13//13 14//14 15//15
f 16//16 17//17 18//18
f 19//19 20//20 21//21
f 22//22 23//23 24//24
f 22//22 24//24 25//25
f 22//22 25//25 26//26
f 22//22 26//26 27//27
f 22//22 27//27 23//23
f 28//28 29//29 30//30
f 31//31 32//32 33//33
f 34//34 35//35 36//36
f 37//37 38//38 39//39
f 40//40 41//41 42//42
f 13//13 43//43 44//44
f 10//10 45//45 46//46
f 7//7 47//47 48//48
f 19//19 49//49 50//50
f 16//16 51//51 52//52
f 10//10 53//53 45//45
f 13//13 54//54 43//43
f 16//16 55//55 51//51
f 19//19 56//56 49//49
f 7//7 57//57 47//47
f 40//40 58//58 59//59
f 28//28 60//60 61//61
f 31//31 62//62 63//63
f 34//34 64//64 65//65
f 37//37 66//66 67//67
f 40//40 68//68 58//58
f 28//28 69//69 60//60
f 31//31 70//70 62//62
f 34//34 71//71 64//64
f 37//37 72//72 66//66
f 10//10 46//46 11//11
f 7//7 48//48 8//8
f 19//19 50//50 20//20
f 16//16 52//52 17//17
f 13//13 44//44 14//14
f 40//40 42//42 68//68
f 28//28 30//30 69//69
f 31//31 33//33 70//70
f 34//34 36//36 71//71
f 37//37 39//39 72//72
f 28//28 61//61 29//29
f 31//31 63//63 32//32
f 34//34 65//65 35//35
f 37//37 67//67 38//38
f 40//40 59//59 41//41
f 10//10 12//12 53//53
f 13//13 15//15 54//54
f 16//16 18//18 55//55
f 19//19 21//21 56//56
f 7//7 9//9 57//57
f 73//73 74//74 75//75
f 76//76 77//77 78//78
f 79//79 80//80 81//81
f 82//82 83//83 84//84
f 85//85 86//86 87//87
f 88//88 89//89 90//90
f 91//91 92//92 93//93
f 94//94 95//95 96//96
f 97//97 98//98 99//99
f 100//100 101//101 102//102
f 103//103 104//104 105//105
f 106//106 107//107 108//108
f 109//109 110//110 111//111
f 112//112 113//113 114//114
f 115//115 116//116 117//117
f 88//88 118//118 119//119
f 91//91 120//120 121//121
f 94//94 122//122 123//123
f 97//97 124//124 125//125
f 100//100 126//126 127//127
f 128//128 129//129 2//2
f 130//130 131//131 3//3
f 132//132 133//133 4//4
f 134//134 135//135 5//5
f 136//136 137//137 6//6
f 76//76 138//138 8//8
f 73//73 139//139 11//11
f 85//85 140//140 14//14
f 82//82 141//141 17//17
f 79//79 142//142 20//20
f 143//143 144//144 23//23
f 145//145 146//146 24//24
f 147//147 148//148 25//25
f 149//149 150//150 26//26
f 151//151 152//152 27//27
f 103//103 153//153 29//29
f 106//106 154//154 32//32
f 109//109 155//155 35//35
f 112//112 156//156 38//38
f 115//115 157//157 41//41
f 73//73 75//75 43//43
f 76//76 78//78 45//45
f 79//79 81//81 47//47
f 82//82 84//84 49//49
f 85//85 87//87 51//51
f 88//88 90//90 53//53
f 91//91 93//93 54//54
f 94//94 96//96 55//55
f 97//97 99//99 56//56
f 100//100 102//102 57//57
f 103//103 105//105 58//58
f 106//106 108//108 60//60
f 109//109 111//111 62//62
f 112//112 114//114 64//64
f 115//115 117//117 66//66
f 88//88 119//119 68//68
f 91//91 121//121 69//69
f 94//94 123//123 70//70
f 97//97 125//125 71//71
f 100//100 127//127 72//72
f 130//130 74//74 46//46
f 132//132 77//77 48//48
f 134//134 80//80 50//50
f 136//136 83//83 52//52
f 128//128 86//86 44//44
f 158//158 89//89 42//42
f 159//159 92//92 30//30
f 160//160 95//95 33//33
f 161//161 98//98 36//36
f 162//162 101//101 39//39
f 145//145 104//104 61//61
f 147//147 107//107 63//63
f 149//149 110//110 65//65
f 151//151 113//113 67//67
f 143//143 116//116 59//59
f 159//159 118//118 12//12
f 160//160 120//120 15//15
f 161//161 122//122 18//18
f 162//162 124//124 21//21
f 158//158 126//126 9//9
f 130//130 129//129 74//74
f 132//132 131//131 77//77
f 134//134 133//133 80//80
f 136//136 135//135 83//83
f 128//128 137//137 86//86
f 158//158 138//138 89//89
f 159//159 139//139 92//92
f 160//160 140//140 95//95
f 161//161 141//141 98//98
f 162//162 142//142 101//101
f 145//145 144//144 104//104
f 147//147 146//146 107//107
f 149//149 148//148 110//110
f 151//151 150//150 113//113
f 143//143 152//152 116//116
f 159//159 153//153 118//118
f 160//160 154//154 120//120
f 161//161 155//155 122//122
f 162//162 156//156 124//124
f 158//158 157//157 126//126
f 130//130 3//3 129//129
f 132//132 4//4 131//131
f 134//134 5//5 133//133
f 136//136 6//6 135//135
f 128//128 2//2 137//137
f 158//158 9//9 138//138
f 159//159 12//12 139//139
f 160//160 15//15 140//140
f 161//161 18//18 141//141
f 162//162 21//21 142//142
f 145//145 24//24 144//144
f 147//147 25//25 146//146
f 149//149 26//26 148//148
f 151//151 27//27 150//150
f 143//143 23//23 152//152
f 159//159 30//30 153//153
f 160//160 33//33 154//154
f 161//161 36//36 155//155
f 162//162 39//39 156//156
f 158//158 42//42 157//157
f 128//128 44//44 75//75
f 130//130 46//46 78//78
f 132//132 48//48 81//81
f 134//134 50//50 84//84
f 136//136 52//52 87//87
f 76//76 45//45 90//90
f 73//73 43//43 93//93
f 85//85 51//51 96//96
f 82//82 49//49 99//99
f 79//79 47//47 102//102
f 143//143 59//59 105//105
f 145//145 61//61 108//108
f 147//147 63//63 111//111
f 149//149 65//65 114//114
f 151//151 67//67 117//117
f 103//103 58//58 119//119
f 106//106 60//60 121//121
f 109//109 62//62 123//123
f 112//112 64//64 125//125
f 115//115 66//66 127//127
f 73//73 11//11 74//74
f 76//76 8//8 77//77
f 79//79 20//20 80//80
f 82//82 17//17 83//83
f 85//85 14//14 86//86
f 88//88 68//68 89//89
f 91//91 69//69 92//92
f 94//94 70//70 95//95
f 97//97 71//71 98//98
f 100//100 72//72 101//101
f 103//103 29//29 104//104
f 106//106 32//32 107//107
f 109//109 35//35 110//110
f 112//112 38//38 113//113
f 115//115 41//41 116//116
f 88//88 53//53 118//118
f 91//91 54//54 120//120
f 94//94 55//55 122//122
f 97//97 56//56 124//124
f 100//100 57//57 126//126
f 128//128 75//75 129//129
f 130//130 78//78 131//131
f 132//132 81//81 133//133
f 134//134 84//84 135//135
f 136//136 87//87 137//137
f 76//76 90//90 138//138
f 73//73 93//93 139//139
f 85//85 96//96 140//140
f 82//82 99//99 141//141
f 79//79 102//102 142//142
f 143//143 105//105 144//144
f 145//145 108//108 146//146
f 147//147 111//111 148//148
f 149//149 114//114 150//150
f 151//151 117//117 152//152
f 103//103 119//119 153//153
f 106//106 121//121 154//154
f 109//109 123//123 155//155
f 112//112 125//125 156//156
f 115//115 127//127 157//157
f 129//129 3//3 2//2
f 131//131 4//4 3//3
f 133//133 5//5 4//4
f 135//135 6//6 5//5
f 137//137 2//2 6//6
f 138//138 9//9 8//8
f 139//139 12//12 11//11
f 140//140 15//15 14//14
f 141//141 18//18 17//17
f 142//142 21//21 20//20
f 144//144 24//24 23//23
f 146//146 25//25 24//24
f 148//148 26//26 25//25
f 150//150 27//27 26//26
f 152//152 23//23 27//27
f 153//153 30//30 29//29
f 154//154 33//33 32//32
f 155//155 36//36 35//35
f 156//156 39//39 38//38
f 157//157 42//42 41//41
f 75//75 44//44 43//43
f 78//78 46//46 45//45
f 81//81 48//48 47//47
f 84//84 50//50 49//49
f 87//87 52//52 51//51
f 90//90 45//45 53//53
f 93//93 43//43 54//54
f 96//96 51//51 55//55
f 99//99 49//49 56//56
f 102//102 47//47 57//57
f 105//105 59//59 58//58
f 108//108 61//61 60//60
f 111//111 63//63 62//62
f 114//114 65//65 64//64
f 117//117 67//67 66//66
f 119//119 58//58 68//68
f 121//121 60//60 69//69
f 123//123 62//62 70//70
f 125//125 64//64 71//71
f 127//127 66//66 72//72
f 74//74 11//11 46//46
f 77//77 8//8 48//48
f 80//80 20//20 50//50
f 83//83 17//17 52//52
f 86//86 14//14 44//44
f 89//89 68//68 42//42
f 92//92 69//69 30//30
f 95//95 70//70 33//33
f 98//98 71//71 36//36
f 101//101 72//72 39//39
f 104//104 29//29 61//61
f 107//107 32//32 63//63
f 110//110 35//35 65//65
f 113//113 38//38 67//67
f 116//116 41//41 59//59
f 118//118 53//53 12//12
f 120//120 54//54 15//15
f 122//122 55//55 18//18
f 124//124 56//56 21//21
f 126//126 57//57 9//9
f 129//129 75//75 74//74
f 131//131 78//78 77//77
f 133//133 81//81 80//80
f 135//135 84//84 83//83
f 137//137 87//87 86//86
f 138//138 90//90 89//89
f 139//139 93//93 92//92
f 140//140 96//96 95//95
f 141//141 99//99 98//98
f 142//142 102//102 101//101
f 144//144 105//105 104//104
f 146//146 108//108 107//107
f 148//148 111//111 110//110
f 150//150 114//114 113//113
f 152//152 117//117 116//116
f 153//153 119//119 118//118
f 154//154 121//121 120//120
f 155//155 123//123 122//122
f 156//156 125//125 124//124
f 157//157 127//127 126//126
