# Created by Open3D 
# object name: part_062
# number of vertices: 162
# number of triangles: 320
v 0.31011 5.26124 0.0667088
vn 0.126415 0.927425 0.351998
v 0.303942 5.2545 0.0853651
vn -0.0275547 0.927247 0.373435
v 0.312517 5.25318 0.086182
vn 0.170423 0.905151 0.389433
v 0.321477 5.25904 0.0666897
vn 0.228665 0.908406 0.350014
v 0.314152 5.26538 0.0534617
vn 0.174742 0.938986 0.296262
v 0.305501 5.26612 0.0541824
vn -0.026921 0.947755 0.317863
v 0.664332 5.17479 0.0521868
vn 0.341941 0.874824 0.343161
v 0.660004 5.16838 0.0719362
vn 0.295649 0.874588 0.384302
v 0.668129 5.16562 0.0704345
vn 0.479698 0.803454 0.352636
v 0.485534 5.20762 0.0801931
vn -0.0134666 -0.219068 0.975617
v 0.320235 5.24699 0.0866396
vn -0.0291699 -0.273529 0.961421
v 0.484745 5.20454 0.0792667
vn -0.0446408 -0.340674 0.939121
v 0.287455 5.20604 0.068722
vn -0.291962 -0.277207 0.915377
v 0.285212 5.20702 0.0677044
vn -0.96005 0.161277 0.22868
v 0.275768 5.1622 0.0514139
vn -0.449094 -0.24262 0.859913
v 0.289209 5.21913 0.0336138
vn -0.201469 0.397631 -0.895154
v 0.303673 5.26042 0.0491619
vn -0.0567597 0.376039 -0.924864
v 0.281862 5.17649 0.0167883
vn -0.0587044 0.368553 -0.927751
v 0.450789 5.23027 0.0448536
vn 0.0791567 0.471856 -0.878115
v 0.645011 5.18415 0.0377676
vn 0.121121 0.622077 -0.77353
v 0.652208 5.18017 0.0362142
vn 0.0671126 0.42077 -0.904682
v 0.638565 5.07563 0.0139404
vn -0.126405 -0.927426 -0.351998
v 0.642852 5.06835 0.0329154
vn 0.0249711 -0.946317 -0.322275
v 0.6342 5.06908 0.033636
vn -0.174233 -0.933589 -0.313136
v 0.627177 5.07768 0.0143679
vn -0.228666 -0.908406 -0.350014
v 0.635835 5.08128 0.00091576
vn -0.169265 -0.898193 -0.405707
v 0.64441 5.07997 0.00173269
vn 0.0298744 -0.925515 -0.377532
v 0.460978 5.11312 0.043744
vn -0.0791624 -0.471877 0.878103
v 0.626275 5.07372 0.0373493
vn -0.0640584 -0.421903 0.904375
v 0.461744 5.11603 0.0451262
vn -0.0488962 -0.35705 0.932805
v 0.284343 5.16208 0.0284623
vn -0.341936 -0.874826 -0.343162
v 0.286714 5.15389 0.0478819
vn -0.299466 -0.903023 -0.308009
v 0.278665 5.15723 0.0478459
vn -0.482259 -0.82252 -0.301475
v 0.426233 5.13578 0.00840449
vn 0.01347 0.219082 -0.975614
v 0.305148 5.16378 0.0131913
vn -0.0338348 0.0340727 -0.998846
v 0.297988 5.16804 0.0139925
vn 0.0251166 0.273912 -0.961427
v 0.660898 5.12842 0.0183757
vn 0.291962 0.277207 -0.915377
v 0.646483 5.0875 0.00183994
vn 0.14975 0.317679 -0.936299
v 0.668294 5.17143 0.0342136
vn 0.151696 0.325166 -0.933411
v 0.659144 5.11533 0.053484
vn 0.201469 -0.397631 0.895154
v 0.661498 5.11519 0.0522779
vn 0.941091 -0.302698 0.150739
v 0.670864 5.15943 0.0701245
vn 0.363898 -0.392706 0.844606
v 0.301869 5.24696 0.0852578
vn -0.14975 -0.317679 0.936299
v 0.298654 5.25027 0.0853839
vn -0.437281 -0.197171 0.877445
v 0.643205 5.17068 0.0739064
vn 0.0331477 -0.0364646 0.998785
v 0.328589 5.24747 0.0868047
vn 0.0310759 -0.0359542 0.99887
v 0.661639 5.18058 0.0392159
vn 0.300205 0.908366 0.291117
v 0.653263 5.17806 0.0530874
vn 0.242575 0.905007 0.349455
v 0.322078 5.26074 0.0497485
vn 0.0637439 0.422555 -0.904093
v 0.330395 5.26094 0.0506658
vn 0.119984 0.625993 -0.770543
v 0.286855 5.21928 0.0348199
vn -0.917081 0.32655 -0.228752
v 0.300375 5.2631 0.0509433
vn -0.352083 0.43815 -0.827081
v 0.650364 5.16642 0.0731053
vn -0.0257189 -0.274365 0.961282
v 0.280059 5.16303 0.0528841
vn -0.151696 -0.325166 0.933411
v 0.277489 5.17504 0.0169733
vn -0.363898 0.392706 -0.844607
v 0.44957 5.22748 0.0434901
vn 0.0488963 0.35705 -0.932805
v 0.669687 5.17724 0.0392518
vn 0.484274 0.823 0.2969
v 0.64468 5.07405 0.0379359
vn 0.0567597 -0.376039 0.924864
v 0.647978 5.07136 0.0361545
vn 0.352083 -0.43815 0.827081
v 0.303342 5.15031 0.0493302
vn -0.121653 -0.623678 0.772157
v 0.617958 5.07353 0.0364319
vn -0.119588 -0.624212 0.772048
v 0.288349 5.16608 0.0151616
vn -0.29472 -0.867578 -0.400559
v 0.295391 5.15865 0.0279701
vn -0.242575 -0.905007 -0.349455
v 0.628118 5.08747 0.000458207
vn 0.0289724 0.273999 -0.961294
v 0.619764 5.087 0.00029306
vn -0.0306653 0.0379745 -0.998808
v 0.663141 5.12744 0.0193933
vn 0.943755 -0.12759 -0.305037
v 0.649699 5.0842 0.00171388
vn 0.437281 0.197171 -0.877445
v 0.66649 5.15798 0.0703094
vn 0.0587044 -0.368553 0.927751
v 0.296145 5.15429 0.0508836
vn -0.0675077 -0.421058 0.904518
v 0.280223 5.16885 0.0166633
vn -0.481297 -0.800758 -0.356566
v 0.426569 5.13897 0.00934961
vn 0.0446415 0.340677 -0.93912
v 0.672585 5.17227 0.0356839
vn 0.449094 0.24262 -0.859913
v 0.308676 5.24821 0.0863825
vn -0.078367 -0.327265 0.941677
v 0.312293 5.25061 0.0871202
vn -0.0238608 -0.0885342 0.995787
v 0.303363 5.25128 0.0866018
vn -0.127702 -0.130754 0.983156
v 0.654068 5.16906 0.0731576
vn 0.143928 0.404065 0.903336
v 0.643873 5.17283 0.0728089
vn 0.234924 0.891324 0.387752
v 0.486183 5.21027 0.0802263
vn 0.138575 0.416908 0.898323
v 0.655814 5.18209 0.0382246
vn 0.208268 0.891944 -0.401324
v 0.45307 5.23186 0.0465472
vn 0.203012 0.897582 -0.391322
v 0.64551 5.18504 0.0400514
vn 0.239583 0.926726 0.289446
v 0.310508 5.26187 0.0497276
vn 0.015098 0.369969 -0.928921
v 0.305137 5.26451 0.0510995
vn -0.036793 0.547303 -0.836125
v 0.314095 5.26405 0.0510535
vn 0.066317 0.584139 -0.80894
v 0.285474 5.21461 0.0478537
vn -0.970718 0.236904 0.039797
v 0.296923 5.25136 0.0838668
vn -0.95556 0.27541 0.105138
v 0.298483 5.263 0.0526486
vn -0.950573 0.310325 0.0104587
v 0.66113 5.1622 0.071933
vn -0.00843353 -0.344332 0.93881
v 0.667257 5.16247 0.0716834
vn 0.128772 -0.193367 0.972639
v 0.65909 5.16597 0.0729027
vn 0.0573175 -0.108361 0.992458
v 0.285391 5.15861 0.0518197
vn -0.0850323 -0.352902 0.931789
v 0.297075 5.15861 0.0527447
vn -0.0489599 -0.350141 0.935417
v 0.296143 5.20359 0.0692296
vn -0.08085 -0.340338 0.936821
v 0.277878 5.17155 0.0163505
vn -0.74924 -0.435443 -0.499028
v 0.276223 5.1666 0.0295598
vn -0.80299 -0.544216 -0.242971
v 0.275571 5.17483 0.01864
vn -0.979347 0.199598 -0.0322506
v 0.437929 5.18328 0.0263532
vn 0.0467708 0.348878 -0.936
v 0.298937 5.17249 0.0154922
vn 0.0441155 0.34772 -0.93656
v 0.320772 5.25652 0.0479027
vn 0.0449974 0.351113 -0.935251
v 0.672139 5.17532 0.0374559
vn 0.775442 0.630909 -0.0253742
v 0.669031 5.1757 0.036181
vn 0.219684 0.484742 -0.846619
v 0.666748 5.17847 0.0377424
vn 0.321386 0.812696 -0.486042
v 0.637845 5.07259 0.0373702
vn -0.015098 -0.369969 0.928921
v 0.634258 5.07041 0.0360443
vn -0.0663171 -0.584139 0.80894
v 0.643216 5.06995 0.0359983
vn 0.036793 -0.547303 0.836125
v 0.292539 5.15238 0.0488732
vn -0.209193 -0.890939 0.403071
v 0.302843 5.14943 0.0470464
vn -0.238758 -0.919921 -0.311029
v 0.460416 5.11111 0.04198
vn -0.203012 -0.897582 0.391322
v 0.294285 5.1654 0.0139402
vn -0.145073 -0.401299 -0.904386
v 0.427303 5.13271 0.00830091
vn -0.138575 -0.416908 -0.898323
v 0.30448 5.16164 0.0142889
vn -0.234107 -0.885367 -0.401646
v 0.639676 5.08625 0.000715238
vn 0.078367 0.327265 -0.941677
v 0.64499 5.08319 0.000495938
vn 0.127702 0.130755 -0.983156
v 0.63606 5.08386 -2.24657e-05
vn 0.0238608 0.0885343 -0.995787
v 0.663223 5.12242 0.0323672
vn 0.970718 -0.236904 -0.039797
v 0.649869 5.07146 0.0344492
vn 0.951163 -0.308215 -0.0171231
v 0.651429 5.0831 0.00323099
vn 0.955627 -0.272631 -0.11158
v 0.649416 5.16197 0.0716056
vn -0.0445814 -0.347612 0.936578
v 0.650369 5.11714 0.0547075
vn -0.0126271 -0.356988 0.934024
v 0.279321 5.15876 0.0509168
vn -0.219684 -0.484742 0.846619
v 0.287461 5.15505 0.050262
vn -0.147506 -0.564319 0.812272
v 0.281095 5.17199 0.0154144
vn -0.128772 0.193367 -0.972639
v 0.283322 5.16881 0.014983
vn -0.250914 -0.286975 -0.924493
v 0.651277 5.17586 0.034353
vn 0.0486552 0.350212 -0.935406
v 0.629442 5.09183 0.00194255
vn 0.0477776 0.346835 -0.936708
v 0.672468 5.17039 0.0507713
vn 0.80299 0.544216 0.242971
v 0.674341 5.17127 0.0372397
vn 0.9844 -0.161908 -0.0688709
v 0.300648 5.25317 0.085909
vn -0.432431 0.764088 0.47872
v 0.306831 5.25307 0.0867997
vn -0.0185362 0.352718 0.935546
v 0.318177 5.25104 0.086928
vn 0.128309 0.407828 0.903999
v 0.328899 5.2497 0.0857219
vn 0.232098 0.892016 0.387864
v 0.487442 5.2189 0.0595454
vn 0.235626 0.90673 0.349744
v 0.330536 5.26191 0.0529643
vn 0.236402 0.925235 0.29674
v 0.319923 5.26406 0.0519951
vn 0.191568 0.894157 -0.404704
v 0.308549 5.26589 0.0524275
vn 0.051954 0.878492 -0.474924
v 0.302311 5.26558 0.0526177
vn -0.397727 0.917222 0.0227267
v 0.30078 5.2611 0.0660094
vn -0.441236 0.847871 0.293981
v 0.66503 5.16566 0.0721147
vn 0.250914 0.286976 0.924493
v 0.318911 5.24263 0.0851552
vn -0.0480808 -0.346758 0.936721
v 0.274011 5.16319 0.0498581
vn -0.984466 0.164175 0.0622326
v 0.297983 5.21732 0.0323903
vn 0.0126271 0.356988 -0.934024
v 0.660892 5.17941 0.0368358
vn 0.147506 0.56432 -0.812272
v 0.646041 5.06889 0.03448
vn 0.413552 -0.904853 -0.101068
v 0.639804 5.06858 0.0346703
vn -0.051954 -0.878492 0.474925
v 0.62843 5.0704 0.0351026
vn -0.193597 -0.894783 0.402349
v 0.617817 5.07256 0.0341335
vn -0.235932 -0.920613 -0.311138
v 0.461254 5.11813 0.0206754
vn -0.235627 -0.90673 -0.349744
v 0.619454 5.08477 0.00137588
vn -0.230715 -0.883059 -0.408628
v 0.630175 5.08343 0.000169726
vn -0.12985 -0.409188 -0.903163
v 0.641521 5.08139 0.000298071
vn 0.0185361 -0.352718 -0.935546
v 0.647705 5.0813 0.00118877
vn 0.423936 -0.721741 -0.547145
v 0.647911 5.07589 0.0143218
vn 0.441236 -0.847872 -0.293981
v 0.627581 5.07795 0.0391951
vn -0.0454604 -0.350995 0.935273
v 0.281605 5.156 0.0493554
vn -0.321386 -0.812696 0.486041
v 0.289263 5.16849 0.0141951
vn -0.0573176 0.108361 -0.992458
v 0.65221 5.13087 0.0178682
vn 0.08085 0.340338 -0.936821
v 0.672782 5.15963 0.0684578
vn 0.980068 -0.196982 0.0257811
v 0.670475 5.16291 0.0707473
vn 0.770939 0.470409 0.429382
v 0.473241 5.16025 0.0622689
vn -0.0467708 -0.348878 0.936
v 0.276214 5.15914 0.0496419
vn -0.789808 -0.611167 -0.0517492
v 0.287222 5.17227 0.0151647
vn 0.00843354 0.344332 -0.93881
v 0.662962 5.17586 0.0352781
vn 0.0850323 0.352902 -0.931789
f 1//1 2//2 3//3
f 1//1 3//3 4//4
f 1//1 4//4 5//5
f 1//1 5//5 6//6
f 1//1 6//6 2//2
f 7//7 8//8 9//9
f 10//10 11//11 12//12
f 13//13 14//14 15//15
f 16//16 17//17 18//18
f 19//19 20//20 21//21
f 22//22 23//23 24//24
f 22//22 24//24 25//25
f 22//22 25//25 26//26
f 22//22 26//26 27//27
f 22//22 27//27 23//23
f 28//28 29//29 30//30
f 31//31 32//32 33//33
f 34//34 35//35 36//36
f 37//37 38//38 39//39
f 40//40 41//41 42//42
f 13//13 43//43 44//44
f 10//10 45//45 46//46
f 7//7 47//47 48//48
f 19//19 49//49 50//50
f 16//16 51//51 52//52
f 10//10 53//53 45//45
f 13//13 54//54 43//43
f 16//16 55//55 51//51
f 19//19 56//56 49//49
f 7//7 57//57 47//47
f 40//40 58//58 59//59
f 28//28 60//60 61//61
f 31//31 62//62 63//63
f 34//34 64//64 65//65
f 37//37 66//66 67//67
f 40//40 68//68 58//58
f 28//28 69//69 60//60
f 31//31 70//70 62//62
f 34//34 71//71 64//64
f 37//37 72//72 66//66
f 10//10 46//46 11//11
f 7//7 48//48 8//8
f 19//19 50//50 20//20
f 16//16 52//52 17//17
f 13//13 44//44 14//14
f 40//40 42//42 68//68
f 28//28 30//30 69//69
f 31//31 33//33 70//70
f 34//34 36//36 71//71
f 37//37 39//39 72//72
f 28//28 61//61 29//29
f 31//31 63//63 32//32
f 34//34 65//65 35//35
f 37//37 67//67 38//38
f 40//40 59//59 41//41
f 10//10 12//12 53//53
f 13//13 15//15 54//54
f 16//16 18//18 55//55
f 19//19 21//21 56//56
f 7//7 9//9 57//57
f 73//73 74//74 75//75
f 76//76 77//77 78//78
f 79//79 80//80 81//81
f 82//82 83//83 84//84
f 85//85 86//86 87//87
f 88//88 89//89 90//90
f 91//91 92//92 93//93
f 94//94 95//95 96//96
f 97//97 98//98 99//99
f 100//100 101//101 102//102
f 103//103 104//104 105//105
f 106//106 107//107 108//108
f 109//109 110//110 111//111
f 112//112 113//113 114//114
f 115//115 116//116 117//117
f 88//88 118//118 119//119
f 91//91 120//120 121//121
f 94//94 122//122 123//123
f 97//97 124//124 125//125
f 100//100 126//126 127//127
f 128//128 129//129 2//2
f 130//130 131//131 3//3
f 132//132 133//133 4//4
f 134//134 135//135 5//5
f 136//136 137//137 6//6
f 76//76 138//138 8//8
f 73//73 139//139 11//11
f 85//85 140//140 14//14
f 82//82 141//141 17//17
f 79//79 142//142 20//20
f 143//143 144//144 23//23
f 145//145 146//146 24//24
f 147//147 148//148 25//25
f 149//149 150//150 26//26
f 151//151 152//152 27//27
f 103//103 153//153 29//29
f 106//106 154//154 32//32
f 109//109 155//155 35//35
f 112//112 156//156 38//38
f 115//115 157//157 41//41
f 73//73 75//75 43//43
f 76//76 78//78 45//45
f 79//79 81//81 47//47
f 82//82 84//84 49//49
f 85//85 87//87 51//51
f 88//88 90//90 53//53
f 91//91 93//93 54//54
f 94//94 96//96 55//55
f 97//97 99//99 56//56
f 100//100 102//102 57//57
f 103//103 105//105 58//58
f 106//106 108//108 60//60
f 109//109 111//111 62//62
f 112//112 114//114 64//64
f 115//115 117//117 66//66
f 88//88 119//119 68//68
f 91//91 121//121 69//69
f 94//94 123//123 70//70
f 97//97 125//125 71//71
f 100//100 127//127 72//72
f 130//130 74//74 46//46
f 132//132 77//77 48//48
f 134//134 80//80 50//50
f 136//136 83//83 52//52
f 128//128 86//86 44//44
f 158//158 89//89 42//42
f 159//159 92//92 30//30
f 160//160 95//95 33//33
f 161//161 98//98 36//36
f 162//162 101//101 39//39
f 145//145 104//104 61//61
f 147//147 107//107 63//63
f 149//149 110//110 65//65
f 151//151 113//113 67//67
f 143//143 116//116 59//59
f 159//159 118//118 12//12
f 160//160 120//120 15//15
f 161//161 122//122 18//18
f 162//162 124//124 21//21
f 158//158 126//126 9//9
f 130//130 129//129 74//74
f 132//132 131//131 77//77
f 134//134 133//133 80//80
f 136//136 135//135 83//83
f 128//128 137//137 86//86
f 158//158 138//138 89//89
f 159//159 139//139 92//92
f 160//160 140//140 95//95
f 161//161 141//141 98//98
f 162//162 142//142 101//101
f 145//145 144//144 104//104
f 147//147 146//146 107//107
f 149//149 148//148 110//110
f 151//151 150//150 113//113
f 143//143 152//152 116//116
f 159//159 153//153 118//118
f 160//160 154//154 120//120
f 161//161 155//155 122//122
f 162//162 156//156 124//124
f 158//158 157//157 126//126
f 130//130 3//3 129//129
f 132//132 4//4 131//131
f 134//134 5//5 133//133
f 136//136 6//6 135//135
f 128//128 2//2 137//137
f 158//158 9//9 138//138
f 159//159 12//12 139//139
f 160//160 15//15 140//140
f 161//161 18//18 141//141
f 162//162 21//21 142//142
f 145//145 24//24 144//144
f 147//147 25//25 146//146
f 149//149 26//26 148//148
f 151//151 27//27 150//150
f 143//143 23//23 152//152
f 159//159 30//30 153//153
f 160//160 33//33 154//154
f 161//161 36//36 155//155
f 162//162 39//39 156//156
f 158//158 42//42 157//157
f 128//128 44//44 75//75
f 130//130 46//46 78//78
f 132//132 48//48 81//81
f 134//134 50//50 84//84
f 136//136 52//52 87//87
f 76//76 45//45 90//90
f 73//73 43//43 93//93
f 85//85 51//51 96//96
f 82//82 49//49 99//99
f 79//79 47//47 102//102
f 143//143 59//59 105//105
f 145//145 61//61 108//108
f 147//147 63//63 111//111
f 149//149 65//65 114//114
f 151//151 67//67 117//117
f 103//103 58//58 119//119
f 106//106 60//60 121//121
f 109//109 62//62 123//123
f 112//112 64//64 125//125
f 115//115 66//66 127//127
f 73//73 11//11 74//74
f 76//76 8//8 77//77
f 79//79 20//20 80//80
f 82//82 17//17 83//83
f 85//85 14//14 86//86
f 88//88 68//68 89//89
f 91//91 69//69 92//92
f 94//94 70//70 95//95
f 97//97 71//71 98//98
f 100//100 72//72 101//101
f 103//103 29//29 104//104
f 106//106 32//32 107//107
f 109//109 35//35 110//110
f 112//112 38//38 113//113
f 115//115 41//41 116//116
f 88//88 53//53 118//118
f 91//91 54//54 120//120
f 94//94 55//55 122//122
f 97//97 56//56 124//124
f 100//100 57//57 126//126
f 128//128 75//75 129//129
f 130//130 78//78 131//131
f 132//132 81//81 133//133
f 134//134 84//84 135//135
f 136//136 87//87 137//137
f 76//76 90//90 138//138
f 73//73 93//93 139//139
f 85//85 96//96 140//140
f 82//82 99//99 141//141
f 79//79 102//102 142//142
f 143//143 105//105 144//144
f 145//145 108//108 146//146
f 147//147 111//111 148//148
f 149//149 114//114 150//150
f 151//151 117//117 152//152
f 103//103 119//119 153//153
f 106//106 121//121 154//154
f 109//109 123//123 155//155
f 112//112 125//125 156//156
f 115//115 127//127 157//157
f 129//129 3//3 2//2
f 131//131 4//4 3//3
f 133//133 5//5 4//4
f 135//135 6//6 5//5
f 137//137 2//2 6//6
f 138//138 9//9 8//8
f 139//139 12//12 11//11
f 140//140 15//15 14//14
f 141//141 18//18 17//17
f 142//142 21//21 20//20
f 144//144 24//24 23//23
f 146//146 25//25 24//24
f 148//148 26//26 25//25
f 150//150 27//27 26//26
f 152//152 23//23 27//27
f 153//153 30//30 29//29
f 154//154 33//33 32//32
f 155//155 36//36 35//35
f 156//156 39//39 38//38
f 157//157 42//42 41//41
f 75//75 44//44 43//43
f 78//78 46//46 45//45
f 81//81 48//48 47//47
f 84//84 50//50 49//49
f 87//87 52//52 51//51
f 90//90 45//45 53//53
f 93//93 43//43 54//54
f 96//96 51//51 55//55
f 99//99 49//49 56//56
f 102//102 47//47 57//57
f 105//105 59//59 58//58
f 108//108 61//61 60//60
f 111//111 63//63 62//62
f 114//114 65//65 64//64
f 117//117 67//67 66//66
f 119//119 58//58 68//68
f 121//121 60//60 69//69
f 123//123 62//62 70//70
f 125//125 64//64 71//71
f 127//127 66//66 72//72
f 74//74 11//11 46//46
f 77//77 8//8 48//48
f 80//80 20//20 50//50
f 83//83 17//17 52//52
f 86//86 14//14 44//44
f 89//89 68//68 42//42
f 92//92 69//69 30//30
f 95//95 70//70 33//33
f 98//98 71//71 36//36
f 101//101 72//72 39//39
f 104//104 29//29 61//61
f 107//107 32//32 63//63
f 110//110 35//35 65//65
f 113//113 38//38 67//67
f 116//116 41//41 59//59
f 118//118 53//53 12//12
f 120//120 54//54 15//15
f 122//122 55//55 18//18
f 124//124 56//56 21//21
f 126//126 57//57 9//9
f 129//129 75//75 74//74
f 131//131 78//78 77//77
f 133//133 81//81 80//80
f 135//135 84//84 83//83
f 137//137 87//87 86//86
f 138//138 90//90 89//89
f 139//139 93//93 92//92
f 140//140 96//96 95//95
f 141//141 99//99 98//98
f 142//142 102//102 101//101
f 144//144 105//105 104//104
f 146//146 108//108 107//107
f 148//148 111//111 110//110
f 150//150 114//114 113//113
f 152//152 117//117 116//116
f 153//153 119//119 118//118
f 154//154 121//121 120//120
f 155//155 123//123 122//122
f 156//156 125//125 124//124
f 157//157 127//127 126//126
