# Created by Open3D 
# object name: part_069
# number of vertices: 162
# number of triangles: 320
v 0.474202 6.23637 0.0715922
vn 0.559411 0.807093 0.188842
v 0.468933 6.2346 0.091464
vn 0.354856 0.905475 0.232795
v 0.47528 6.23037 0.091832
vn 0.613988 0.75267 0.237711
v 0.481998 6.23008 0.0710227
vn 0.686182 0.705779 0.176154
v 0.477196 6.23706 0.0575736
vn 0.620156 0.777348 0.105531
v 0.470759 6.24097 0.0588154
vn 0.356135 0.921058 0.157542
v 0.70056 6.01869 0.0417627
vn 0.808213 0.56784 0.156047
v 0.697333 6.01683 0.0625698
vn 0.759323 0.612912 0.218555
v 0.701658 6.0108 0.0607954
vn 0.917712 0.364204 0.15862
v 0.583683 6.12066 0.0787261
vn 0.0168596 -0.118519 0.992809
v 0.477263 6.22115 0.0924171
vn -0.0146613 -0.14778 0.988912
v 0.580548 6.11748 0.0781774
vn -0.0502146 -0.18667 0.981139
v 0.415688 6.1855 0.0810411
vn -0.261152 0.0176669 0.965136
v 0.414285 6.18714 0.0800706
vn -0.716005 0.645561 0.265684
v 0.369608 6.13955 0.0691301
vn -0.394102 0.138468 0.908576
v 0.417745 6.19267 0.0442826
vn -0.156267 0.383737 -0.910125
v 0.463806 6.23461 0.0545071
vn -0.0324594 0.277477 -0.960184
v 0.376258 6.14659 0.0324288
vn -0.0366637 0.273259 -0.961242
v 0.562461 6.15068 0.0432359
vn 0.125907 0.262048 -0.956806
v 0.687731 6.03285 0.0276242
vn 0.222275 0.353943 -0.90847
v 0.690386 6.02582 0.0259912
vn 0.0972632 0.231329 -0.968002
v 0.597129 5.91471 0.0156792
vn -0.559417 -0.807088 -0.188842
v 0.600194 5.90879 0.0352079
vn -0.358718 -0.919055 -0.163276
v 0.593757 5.91271 0.0364497
vn -0.620064 -0.773823 -0.129301
v 0.589309 5.92092 0.0166764
vn -0.686183 -0.705778 -0.176153
v 0.595673 5.91939 0.00219123
vn -0.611467 -0.747011 -0.260925
v 0.60202 5.91517 0.00255932
vn -0.351578 -0.905254 -0.238553
v 0.485113 6.02157 0.0538683
vn -0.125912 -0.262053 0.956804
v 0.591529 5.92107 0.0402314
vn -0.09478 -0.234138 0.967572
v 0.488221 6.02466 0.0548941
vn -0.0594195 -0.195924 0.978817
v 0.370771 6.13239 0.0455087
vn -0.808214 -0.567837 -0.156047
v 0.371704 6.12624 0.0657119
vn -0.765396 -0.634064 -0.110145
v 0.367469 6.13259 0.0658765
vn -0.921594 -0.377789 -0.0891023
v 0.463891 6.05158 0.0183781
vn -0.0168581 0.118521 -0.992808
v 0.385339 6.1243 0.0285614
vn -0.118476 0.0148578 -0.992846
v 0.382728 6.13148 0.0294068
vn 0.0109977 0.150676 -0.988522
v 0.655264 5.96426 0.0129822
vn 0.261153 -0.0176682 -0.965136
v 0.609261 5.92253 0.00172359
vn 0.141251 0.10217 -0.984687
v 0.696809 6.01055 0.023802
vn 0.145448 0.106395 -0.983628
v 0.653208 5.95709 0.0497407
vn 0.156267 -0.383738 0.910124
v 0.654742 5.9559 0.048383
vn 0.696692 -0.712948 0.0795334
v 0.699327 6.00318 0.0609528
vn 0.297001 -0.477259 0.827052
v 0.461692 6.22723 0.0922997
vn -0.141251 -0.10217 0.984687
v 0.461475 6.2319 0.0922971
vn -0.369262 0.163451 0.914839
v 0.685614 6.02546 0.0654619
vn 0.117078 -0.0161628 0.992991
v 0.484566 6.2188 0.091956
vn 0.115267 -0.0144085 0.99323
v 0.699249 6.02352 0.0283114
vn 0.765652 0.637431 0.0863647
v 0.694019 6.02619 0.0430826
vn 0.702387 0.690193 0.174025
v 0.479424 6.22869 0.0537919
vn 0.0946993 0.234825 -0.967414
v 0.486682 6.22618 0.0541185
vn 0.222754 0.357909 -0.906798
v 0.416211 6.19386 0.0456403
vn -0.681299 0.715942 -0.152511
v 0.463492 6.23894 0.0562375
vn -0.272175 0.502249 -0.820772
v 0.688225 6.01828 0.0646165
vn -0.0117068 -0.150621 0.988522
v 0.374144 6.13922 0.0702213
vn -0.145447 -0.106396 0.983628
v 0.371626 6.14659 0.0330705
vn -0.297001 0.477259 -0.827052
v 0.559064 6.14786 0.0422482
vn 0.05942 0.195924 -0.978817
v 0.703484 6.01717 0.0281468
vn 0.922889 0.376046 0.0828532
v 0.607147 5.91515 0.0395162
vn 0.0324594 -0.277477 0.960184
v 0.607461 5.91082 0.0377857
vn 0.272175 -0.502249 0.820772
v 0.383222 6.11691 0.0663991
vn -0.223398 -0.35488 0.907829
v 0.584271 5.92358 0.0399048
vn -0.221576 -0.356623 0.907592
v 0.37362 6.13293 0.0314535
vn -0.75695 -0.607108 -0.241759
v 0.377288 6.12481 0.0446166
vn -0.702387 -0.690194 -0.174026
v 0.59369 5.92861 0.00160615
vn 0.0146168 0.148242 -0.988843
v 0.586387 5.93096 0.00206727
vn -0.114244 0.0156291 -0.99333
v 0.656668 5.96263 0.0139527
vn 0.708606 -0.620645 -0.335674
v 0.609478 5.91786 0.00172619
vn 0.369262 -0.163452 -0.914838
v 0.694695 6.00317 0.0615945
vn 0.0366637 -0.273259 0.961242
v 0.380567 6.12394 0.0680321
vn -0.0977315 -0.231293 0.967963
v 0.369295 6.13896 0.0332279
vn -0.918361 -0.360223 -0.163865
v 0.466737 6.05504 0.0189649
vn 0.0502141 0.186669 -0.981139
v 0.701344 6.01021 0.0248932
vn 0.394102 -0.138468 -0.908576
v 0.468524 6.22641 0.0928266
vn -0.0774595 -0.155133 0.984852
v 0.473452 6.22786 0.0930633
vn 0.0469188 -0.0168644 0.998756
v 0.46642 6.23157 0.0930876
vn -0.0638185 0.0196748 0.997768
v 0.693232 6.01984 0.0641327
vn 0.381625 0.259867 0.887035
v 0.687451 6.02733 0.0640862
vn 0.691832 0.684688 0.229286
v 0.586164 6.12328 0.0784329
vn 0.381036 0.275284 0.882627
v 0.695278 6.02698 0.0275577
vn 0.468958 0.567312 -0.676931
v 0.565939 6.15189 0.04461
vn 0.467785 0.578068 -0.668592
v 0.68937 6.03403 0.0297889
vn 0.698164 0.710328 0.0894445
v 0.470671 6.2339 0.0544487
vn 0.0320783 0.227116 -0.973339
v 0.468499 6.23883 0.0559163
vn 0.0433633 0.393686 -0.918222
v 0.475565 6.23523 0.0553011
vn 0.154284 0.357856 -0.920943
v 0.414982 6.19165 0.0593169
vn -0.717567 0.69004 0.0945618
v 0.460456 6.23341 0.0907769
vn -0.691594 0.708365 0.141125
v 0.462284 6.23979 0.0580912
vn -0.686735 0.724797 0.0553494
v 0.693752 6.00983 0.063146
vn -0.0176625 -0.212634 0.976972
v 0.698958 6.00795 0.0624436
vn 0.156793 -0.192474 0.968695
v 0.695065 6.01474 0.063859
vn 0.117435 -0.0846915 0.989463
v 0.375055 6.13245 0.0692552
vn -0.0918684 -0.169618 0.981219
v 0.38496 6.12857 0.0693778
vn -0.0572646 -0.190817 0.979954
v 0.421217 6.17995 0.081212
vn -0.0839369 -0.163098 0.983033
v 0.369247 6.14261 0.0327885
vn -0.930555 0.165086 -0.326823
v 0.367629 6.14023 0.0466904
vn -0.991437 0.126927 -0.0306801
v 0.370313 6.14733 0.0348978
vn -0.74062 0.670625 0.0417588
v 0.512812 6.10156 0.0305428
vn 0.0548181 0.191301 -0.979999
v 0.387142 6.13618 0.0303741
vn 0.0519698 0.192163 -0.979986
v 0.474791 6.2243 0.0524776
vn 0.0538776 0.194081 -0.979505
v 0.703655 6.01395 0.0263785
vn 0.96354 -0.0499802 -0.262854
v 0.701037 6.01521 0.0252724
vn 0.263955 0.181549 -0.947295
v 0.701564 6.01924 0.0267037
vn 0.535859 0.401479 -0.742745
v 0.600282 5.91586 0.0395746
vn -0.0320782 -0.227116 0.973339
v 0.595388 5.91454 0.0387222
vn -0.154284 -0.357855 0.920943
v 0.602454 5.91093 0.0381069
vn -0.0433632 -0.393686 0.918222
v 0.375675 6.12279 0.0664656
vn -0.469161 -0.565413 0.678378
v 0.381583 6.11574 0.0642344
vn -0.697949 -0.706033 -0.119936
v 0.482733 6.0193 0.0523495
vn -0.467785 -0.578067 0.668592
v 0.377721 6.12993 0.0298905
vn -0.381742 -0.25657 -0.887944
v 0.462508 6.0479 0.0185267
vn -0.381036 -0.275284 -0.882627
v 0.383502 6.12243 0.0299371
vn -0.689833 -0.679738 -0.249171
v 0.602429 5.92335 0.00119667
vn 0.0774593 0.155133 -0.984852
v 0.604533 5.91819 0.000935645
vn 0.0638183 -0.0196749 -0.997768
v 0.597501 5.92191 0.000960013
vn -0.0469189 0.0168644 -0.998756
v 0.656374 5.95952 0.0275061
vn 0.717567 -0.69004 -0.0945621
v 0.608669 5.90998 0.0359321
vn 0.687129 -0.723941 -0.0613456
v 0.610497 5.91636 0.00324641
vn 0.69186 -0.706905 -0.147018
v 0.683811 6.01358 0.0636492
vn -0.0523711 -0.191783 0.980039
v 0.647578 5.96228 0.0513822
vn -0.0256077 -0.21919 0.975346
v 0.369916 6.13455 0.0687509
vn -0.263955 -0.181549 0.947295
v 0.373775 6.12765 0.0679264
vn -0.224818 -0.290042 0.930233
v 0.371995 6.14181 0.0315797
vn -0.156793 0.192474 -0.968695
v 0.371403 6.13755 0.0313316
vn -0.4444 -0.0823371 -0.892037
v 0.685993 6.0212 0.0246454
vn 0.0570039 0.191065 -0.979921
v 0.598344 5.93308 0.00254193
vn 0.0551055 0.189157 -0.980399
v 0.70372 6.01092 0.0402483
vn 0.991437 -0.126927 0.0306793
v 0.702468 6.00882 0.0264398
vn 0.745749 -0.652729 -0.13343
v 0.465376 6.23441 0.0923784
vn -0.149475 0.908456 0.390338
v 0.470651 6.23233 0.0928561
vn 0.189363 0.32761 0.925642
v 0.478588 6.22625 0.0924184
vn 0.366349 0.274555 0.889049
v 0.486174 6.22089 0.0906105
vn 0.688542 0.68785 0.229721
v 0.588236 6.12842 0.0566659
vn 0.694329 0.698031 0.175102
v 0.488093 6.22758 0.0563132
vn 0.694768 0.712248 0.100001
v 0.480634 6.23339 0.0558434
vn 0.450925 0.580539 -0.677968
v 0.472664 6.23935 0.056868
vn 0.280784 0.646708 -0.709175
v 0.467325 6.24122 0.0575222
vn -0.113885 0.986111 -0.120893
v 0.466201 6.23932 0.0715484
vn -0.151076 0.971765 0.181243
v 0.69955 6.01221 0.0626917
vn 0.4444 0.0823372 0.892037
v 0.472609 6.21668 0.0914813
vn -0.0553635 -0.188906 0.980433
v 0.368485 6.14095 0.0675835
vn -0.745724 0.653947 0.127476
v 0.423375 6.18748 0.0426411
vn 0.0256077 0.21919 -0.975346
v 0.697178 6.02212 0.0260969
vn 0.224818 0.290042 -0.930233
v 0.603628 5.90855 0.0365011
vn 0.125707 -0.991455 0.0348574
v 0.598289 5.91041 0.0371553
vn -0.280784 -0.646709 0.709174
v 0.590319 5.91638 0.0381799
vn -0.453904 -0.580119 0.676337
v 0.58286 5.92218 0.0377101
vn -0.694659 -0.709196 -0.120372
v 0.483119 6.02274 0.0301571
vn -0.694328 -0.698031 -0.175102
v 0.584779 5.92888 0.00341277
vn -0.685285 -0.680498 -0.259436
v 0.592365 5.92352 0.00160484
vn -0.36855 -0.274665 -0.888105
v 0.600302 5.91743 0.00116716
vn -0.189363 -0.32761 -0.925642
v 0.605577 5.91535 0.00164484
vn 0.146858 -0.871006 -0.468808
v 0.605148 5.91182 0.0153901
vn 0.151076 -0.971765 -0.181243
v 0.596162 5.92547 0.0415457
vn -0.0542723 -0.193695 0.979559
v 0.369389 6.13053 0.0673195
vn -0.535857 -0.401479 0.742746
v 0.375888 6.13502 0.0301643
vn -0.117435 0.0846916 -0.989463
v 0.649736 5.96981 0.0128112
vn 0.0839369 0.163098 -0.983033
v 0.70064 6.00244 0.0591254
vn 0.74126 -0.669522 -0.0476931
v 0.701706 6.00715 0.0612348
vn 0.957072 -0.155652 0.244509
v 0.53438 6.07105 0.0666116
vn -0.0548181 -0.191301 0.979999
v 0.367297 6.13581 0.0676448
vn -0.980856 0.0726567 0.180673
v 0.377201 6.13994 0.0308773
vn 0.0176625 0.212634 -0.976972
v 0.695898 6.01732 0.0247681
vn 0.0918684 0.169618 -0.981219
f 1//1 2//2 3//3
f 1//1 3//3 4//4
f 1//1 4//4 5//5
f 1//1 5//5 6//6
f 1//1 6//6 2//2
f 7//7 8//8 9//9
f 10//10 11//11 12//12
f 13//13 14//14 15//15
f 16//16 17//17 18//18
f 19//19 20//20 21//21
f 22//22 23//23 24//24
f 22//22 24//24 25//25
f 22//22 25//25 26//26
f 22//22 26//26 27//27
f 22//22 27//27 23//23
f 28//28 29//29 30//30
f 31//31 32//32 33//33
f 34//34 35//35 36//36
f 37//37 38//38 39//39
f 40//40 41//41 42//42
f 13//13 43//43 44//44
f 10//10 45//45 46//46
f 7//7 47//47 48//48
f 19//19 49//49 50//50
f 16//16 51//51 52//52
f 10//10 53//53 45//45
f 13//13 54//54 43//43
f 16//16 55//55 51//51
f 19//19 56//56 49//49
f 7//7 57//57 47//47
f 40//40 58//58 59//59
f 28//28 60//60 61//61
f 31//31 62//62 63//63
f 34//34 64//64 65//65
f 37//37 66//66 67//67
f 40//40 68//68 58//58
f 28//28 69//69 60//60
f 31//31 70//70 62//62
f 34//34 71//71 64//64
f 37//37 72//72 66//66
f 10//10 46//46 11//11
f 7//7 48//48 8//8
f 19//19 50//50 20//20
f 16//16 52//52 17//17
f 13//13 44//44 14//14
f 40//40 42//42 68//68
f 28//28 30//30 69//69
f 31//31 33//33 70//70
f 34//34 36//36 71//71
f 37//37 39//39 72//72
f 28//28 61//61 29//29
f 31//31 63//63 32//32
f 34//34 65//65 35//35
f 37//37 67//67 38//38
f 40//40 59//59 41//41
f 10//10 12//12 53//53
f 13//13 15//15 54//54
f 16//16 18//18 55//55
f 19//19 21//21 56//56
f 7//7 9//9 57//57
f 73//73 74//74 75//75
f 76//76 77//77 78//78
f 79//79 80//80 81//81
f 82//82 83//83 84//84
f 85//85 86//86 87//87
f 88//88 89//89 90//90
f 91//91 92//92 93//93
f 94//94 95//95 96//96
f 97//97 98//98 99//99
f 100//100 101//101 102//102
f 103//103 104//104 105//105
f 106//106 107//107 108//108
f 109//109 110//110 111//111
f 112//112 113//113 114//114
f 115//115 116//116 117//117
f 88//88 118//118 119//119
f 91//91 120//120 121//121
f 94//94 122//122 123//123
f 97//97 124//124 125//125
f 100//100 126//126 127//127
f 128//128 129//129 2//2
f 130//130 131//131 3//3
f 132//132 133//133 4//4
f 134//134 135//135 5//5
f 136//136 137//137 6//6
f 76//76 138//138 8//8
f 73//73 139//139 11//11
f 85//85 140//140 14//14
f 82//82 141//141 17//17
f 79//79 142//142 20//20
f 143//143 144//144 23//23
f 145//145 146//146 24//24
f 147//147 148//148 25//25
f 149//149 150//150 26//26
f 151//151 152//152 27//27
f 103//103 153//153 29//29
f 106//106 154//154 32//32
f 109//109 155//155 35//35
f 112//112 156//156 38//38
f 115//115 157//157 41//41
f 73//73 75//75 43//43
f 76//76 78//78 45//45
f 79//79 81//81 47//47
f 82//82 84//84 49//49
f 85//85 87//87 51//51
f 88//88 90//90 53//53
f 91//91 93//93 54//54
f 94//94 96//96 55//55
f 97//97 99//99 56//56
f 100//100 102//102 57//57
f 103//103 105//105 58//58
f 106//106 108//108 60//60
f 109//109 111//111 62//62
f 112//112 114//114 64//64
f 115//115 117//117 66//66
f 88//88 119//119 68//68
f 91//91 121//121 69//69
f 94//94 123//123 70//70
f 97//97 125//125 71//71
f 100//100 127//127 72//72
f 130//130 74//74 46//46
f 132//132 77//77 48//48
f 134//134 80//80 50//50
f 136//136 83//83 52//52
f 128//128 86//86 44//44
f 158//158 89//89 42//42
f 159//159 92//92 30//30
f 160//160 95//95 33//33
f 161//161 98//98 36//36
f 162//162 101//101 39//39
f 145//145 104//104 61//61
f 147//147 107//107 63//63
f 149//149 110//110 65//65
f 151//151 113//113 67//67
f 143//143 116//116 59//59
f 159//159 118//118 12//12
f 160//160 120//120 15//15
f 161//161 122//122 18//18
f 162//162 124//124 21//21
f 158//158 126//126 9//9
f 130//130 129//129 74//74
f 132//132 131//131 77//77
f 134//134 133//133 80//80
f 136//136 135//135 83//83
f 128//128 137//137 86//86
f 158//158 138//138 89//89
f 159//159 139//139 92//92
f 160//160 140//140 95//95
f 161//161 141//141 98//98
f 162//162 142//142 101//101
f 145//145 144//144 104//104
f 147//147 146//146 107//107
f 149//149 148//148 110//110
f 151//151 150//150 113//113
f 143//143 152//152 116//116
f 159//159 153//153 118//118
f 160//160 154//154 120//120
f 161//161 155//155 122//122
f 162//162 156//156 124//124
f 158//158 157//157 126//126
f 130//130 3//3 129//129
f 132//132 4//4 131//131
f 134//134 5//5 133//133
f 136//136 6//6 135//135
f 128//128 2//2 137//137
f 158//158 9//9 138//138
f 159//159 12//12 139//139
f 160//160 15//15 140//140
f 161//161 18//18 141//141
f 162//162 21//21 142//142
f 145//145 24//24 144//144
f 147//147 25//25 146//146
f 149//149 26//26 148//148
f 151//151 27//27 150//150
f 143//143 23//23 152//152
f 159//159 30//30 153//153
f 160//160 33//33 154//154
f 161//161 36//36 155//155
f 162//162 39//39 156//156
f 158//158 42//42 157//157
f 128//128 44//44 75//75
f 130//130 46//46 78//78
f 132//132 48//48 81//81
f 134//134 50//50 84//84
f 136//136 52//52 87//87
f 76//76 45//45 90//90
f 73//73 43//43 93//93
f 85//85 51//51 96//96
f 82//82 49//49 99//99
f 79//79 47//47 102//102
f 143//143 59//59 105//105
f 145//145 61//61 108//108
f 147//147 63//63 111//111
f 149//149 65//65 114//114
f 151//151 67//67 117//117
f 103//103 58//58 119//119
f 106//106 60//60 121//121
f 109//109 62//62 123//123
f 112//112 64//64 125//125
f 115//115 66//66 127//127
f 73//73 11//11 74//74
f 76//76 8//8 77//77
f 79//79 20//20 80//80
f 82//82 17//17 83//83
f 85//85 14//14 86//86
f 88//88 68//68 89//89
f 91//91 69//69 92//92
f 94//94 70//70 95//95
f 97//97 71//71 98//98
f 100//100 72//72 101//101
f 103//103 29//29 104//104
f 106//106 32//32 107//107
f 109//109 35//35 110//110
f 112//112 38//38 113//113
f 115//115 41//41 116//116
f 88//88 53//53 118//118
f 91//91 54//54 120//120
f 94//94 55//55 122//122
f 97//97 56//56 124//124
f 100//100 57//57 126//126
f 128//128 75//75 129//129
f 130//130 78//78 131//131
f 132//132 81//81 133//133
f 134//134 84//84 135//135
f 136//136 87//87 137//137
f 76//76 90//90 138//138
f 73//73 93//93 139//139
f 85//85 96//96 140//140
f 82//82 99//99 141//141
f 79//79 102//102 142//142
f 143//143 105//105 144//144
f 145//145 108//108 146//146
f 147//147 111//111 148//148
f 149//149 114//114 150//150
f 151//151 117//117 152//152
f 103//103 119//119 153//153
f 106//106 121//121 154//154
f 109//109 123//123 155//155
f 112//112 125//125 156//156
f 115//115 127//127 157//157
f 129//129 3//3 2//2
f 131//131 4//4 3//3
f 133//133 5//5 4//4
f 135//135 6//6 5//5
f 137//137 2//2 6//6
f 138//138 9//9 8//8
f 139//139 12//12 11//11
f 140//140 15//15 14//14
f 141//141 18//18 17//17
f 142//142 21//21 20//20
f 144//144 24//24 23//23
f 146//146 25//25 24//24
f 148//148 26//26 25//25
f 150//150 27//27 26//26
f 152//152 23//23 27//27
f 153//153 30//30 29//29
f 154//154 33//33 32//32
f 155//155 36//36 35//35
f 156//156 39//39 38//38
f 157//157 42//42 41//41
f 75//75 44//44 43//43
f 78//78 46//46 45//45
f 81//81 48//48 47//47
f 84//84 50//50 49//49
f 87//87 52//52 51//51
f 90//90 45//45 53//53
f 93//93 43//43 54//54
f 96//96 51//51 55//55
f 99//99 49//49 56//56
f 102//102 47//47 57//57
f 105//105 59//59 58//58
f 108//108 61//61 60//60
f 111//111 63//63 62//62
f 114//114 65//65 64//64
f 117//117 67//67 66//66
f 119//119 58//58 68//68
f 121//121 60//60 69//69
f 123//123 62//62 70//70
f 125//125 64//64 71//71
f 127//127 66//66 72//72
f 74//74 11//11 46//46
f 77//77 8//8 48//48
f 80//80 20//20 50//50
f 83//83 17//17 52//52
f 86//86 14//14 44//44
f 89//89 68//68 42//42
f 92//92 69//69 30//30
f 95//95 70//70 33//33
f 98//98 71//71 36//36
f 101//101 72//72 39//39
f 104//104 29//29 61//61
f 107//107 32//32 63//63
f 110//110 35//35 65//65
f 113//113 38//38 67//67
f 116//116 41//41 59//59
f 118//118 53//53 12//12
f 120//120 54//54 15//15
f 122//122 55//55 18//18
f 124//124 56//56 21//21
f 126//126 57//57 9//9
f 129//129 75//75 74//74
f 131//131 78//78 77//77
f 133//133 81//81 80//80
f 135//135 84//84 83//83
f 137//137 87//87 86//86
f 138//138 90//90 89//89
f 139//139 93//93 92//92
f 140//140 96//96 95//95
f 141//141 99//99 98//98
f 142//142 102//102 101//101
f 144//144 105//105 104//104
f 146//146 108//108 107//107
f 148//148 111//111 110//110
f 150//150 114//114 113//113
f 152//152 117//117 116//116
f 153//153 119//119 118//118
f 154//154 121//121 120//120
f 155//155 123//123 122//122
f 156//156 125//125 124//124
f 157//157 127//127 126//126
