# https://github.com/mikedh/trimesh
v 0.28013000 0.09796440 -0.19982762 0.28235294 0.47843137 0.94901961
v 0.27854815 -0.00844601 -0.22833212 0.28235294 0.47843137 0.94901961
v 0.27913073 0.09616055 -0.27908008 0.28235294 0.47843137 0.94901961
v 0.22528950 0.09805238 -0.28013663 0.28235294 0.47843137 0.94901961
v 0.22529261 0.04776586 -0.19982992 0.28235294 0.47843137 0.94901961
v 0.27846947 -0.00840814 -0.27857865 0.28235294 0.47843137 0.94901961
v 0.28022788 0.04867587 -0.19983809 0.28235294 0.47843137 0.94901961
v 0.22529261 0.09878818 -0.19982992 0.28235294 0.47843137 0.94901961
v 0.22827094 -0.00845077 -0.27861829 0.28235294 0.47843137 0.94901961
v 0.22830106 -0.00853539 -0.22835392 0.28235294 0.47843137 0.94901961
v -0.19989584 0.04776586 -0.23384500 0.28235294 0.35294118 0.94901961
v -0.19990002 0.04878200 -0.28031928 0.28235294 0.35294118 0.94901961
v -0.19989622 0.05104264 -0.28061552 0.28235294 0.35294118 0.94901961
v -0.27947400 0.05181455 -0.27928520 0.28235294 0.35294118 0.94901961
v -0.27867003 -0.00841074 -0.27865763 0.28235294 0.35294118 0.94901961
v -0.28068142 0.05102943 -0.23384534 0.28235294 0.35294118 0.94901961
v -0.22842243 -0.00844257 -0.27856841 0.28235294 0.35294118 0.94901961
v -0.27966050 -0.00852805 -0.23384492 0.28235294 0.35294118 0.94901961
v -0.22761758 -0.00852799 -0.23384504 0.28235294 0.35294118 0.94901961
v -0.19989584 0.04776586 -0.19982992 0.33725490 0.28235294 0.94901961
v -0.19989584 0.04776586 -0.23384500 0.33725490 0.28235294 0.94901961
v -0.28068147 0.05111192 -0.19982862 0.33725490 0.28235294 0.94901961
v -0.28068142 0.05102943 -0.23384534 0.33725490 0.28235294 0.94901961
v -0.27966050 -0.00852805 -0.23384492 0.33725490 0.28235294 0.94901961
v -0.22761758 -0.00852799 -0.23384504 0.33725490 0.28235294 0.94901961
v -0.27875467 -0.00845857 -0.22838745 0.33725490 0.28235294 0.94901961
v -0.28028303 0.04864634 -0.19983968 0.33725490 0.28235294 0.94901961
v -0.23391081 -0.00852806 -0.22755166 0.33725490 0.28235294 0.94901961
v -0.22846397 -0.00853858 -0.22836540 0.33725490 0.28235294 0.94901961
v 0.27913615 0.09616006 0.27911389 0.46274510 0.28235294 0.94901961
v 0.27841510 -0.12755671 0.27856628 0.46274510 0.28235294 0.94901961
v 0.28012904 0.09796942 0.22536039 0.46274510 0.28235294 0.94901961
v 0.22529261 0.09878818 0.22535853 0.46274510 0.28235294 0.94901961
v 0.22529135 0.09801527 0.28018599 0.46274510 0.28235294 0.94901961
v 0.22827893 -0.12760103 0.22839874 0.46274510 0.28235294 0.94901961
v 0.27848675 -0.12756615 0.22835093 0.46274510 0.28235294 0.94901961
v 0.22823020 -0.12757177 0.27862088 0.46274510 0.28235294 0.94901961
v -0.19989582 0.05099840 0.28063280 0.58823529 0.28235294 0.94901961
v -0.19989906 0.04868179 0.28027100 0.58823529 0.28235294 0.94901961
v -0.19989584 0.04776586 0.22535853 0.58823529 0.28235294 0.94901961
v -0.23436262 0.04587954 0.22411184 0.58823529 0.28235294 0.94901961
v -0.23391097 0.02548709 0.27961188 0.58823529 0.28235294 0.94901961
v -0.23391113 0.05101796 0.28063280 0.58823529 0.28235294 0.94901961
v -0.22842646 0.02556154 0.27859288 0.58823529 0.28235294 0.94901961
v -0.23391096 0.02548708 0.22756896 0.58823529 0.28235294 0.94901961
v -0.22847340 0.02548210 0.22835418 0.58823529 0.28235294 0.94901961
v -0.22842646 0.02556154 0.27859288 0.71372549 0.28235294 0.94901961
v -0.22842391 -0.00845717 0.27858706 0.71372549 0.28235294 0.94901961
v -0.22845774 0.01698837 0.22836517 0.71372549 0.28235294 0.94901961
v -0.23391096 0.02548708 0.22756896 0.71372549 0.28235294 0.94901961
v -0.23391084 -0.00852805 0.27961189 0.71372549 0.28235294 0.94901961
v -0.22847340 0.02548210 0.22835418 0.71372549 0.28235294 0.94901961
v -0.23391084 0.02548703 0.27961188 0.71372549 0.28235294 0.94901961
v -0.23391096 -0.00852799 0.22756896 0.71372549 0.28235294 0.94901961
v -0.22846816 -0.00853645 0.22835827 0.71372549 0.28235294 0.94901961
v -0.22846397 -0.00853858 -0.22836540 0.83529412 0.28235294 0.94901961
v -0.22845762 -0.12758631 -0.22836764 0.83529412 0.28235294 0.94901961
v -0.22842243 -0.00844257 -0.27856841 0.83529412 0.28235294 0.94901961
v -0.27867003 -0.00841074 -0.27865763 0.83529412 0.28235294 0.94901961
v -0.27875467 -0.00845857 -0.22838745 0.83529412 0.28235294 0.94901961
v -0.22842091 -0.12756219 -0.27855385 0.83529412 0.28235294 0.94901961
v -0.22839933 -0.01710621 -0.27852901 0.83529412 0.28235294 0.94901961
v -0.27869280 -0.12756767 -0.22836865 0.83529412 0.28235294 0.94901961
v -0.27863949 -0.12756131 -0.27860049 0.83529412 0.28235294 0.94901961
v 0.15726134 0.09800856 0.28019205 0.94901961 0.28235294 0.93333333
v 0.15727082 0.04869006 0.28027551 0.94901961 0.28235294 0.93333333
v 0.15726246 0.04776586 0.14882461 0.94901961 0.28235294 0.93333333
v 0.01269838 0.09878818 0.14882461 0.94901961 0.28235294 0.93333333
v 0.01267485 0.04870743 0.28028814 0.94901961 0.28235294 0.93333333
v 0.15726246 0.09878818 0.14882461 0.94901961 0.28235294 0.93333333
v 0.01269877 0.09799514 0.28020368 0.94901961 0.28235294 0.93333333
v 0.01269840 0.04776585 0.14882461 0.94901961 0.28235294 0.93333333
v 0.15726246 0.09878818 -0.13179977 0.94901961 0.28235294 0.80784314
v 0.15726246 0.04776586 -0.13179977 0.94901961 0.28235294 0.80784314
v 0.15902614 0.04878063 -0.28031841 0.94901961 0.28235294 0.80784314
v 0.01269988 0.09803201 -0.28015775 0.94901961 0.28235294 0.80784314
v 0.01269838 0.04776586 -0.13179977 0.94901961 0.28235294 0.80784314
v 0.15725941 0.09804586 -0.28014270 0.94901961 0.28235294 0.80784314
v 0.01269838 0.09878818 -0.13179977 0.94901961 0.28235294 0.80784314
v 0.01311257 0.04843396 -0.27965511 0.94901961 0.28235294 0.80784314
v -0.13186569 0.09878818 0.14882461 0.94901961 0.28235294 0.68627451
v -0.13186569 0.04776586 0.14882461 0.94901961 0.28235294 0.68627451
v -0.13186569 0.09878818 0.00426053 0.94901961 0.28235294 0.68627451
v -0.27998590 0.09820516 0.00426098 0.94901961 0.28235294 0.68627451
v -0.28029460 0.04867435 0.14881072 0.94901961 0.28235294 0.68627451
v -0.13186569 0.04776586 0.00426053 0.94901961 0.28235294 0.68627451
v -0.28000589 0.09817803 0.14882383 0.94901961 0.28235294 0.68627451
v -0.28029571 0.04867453 0.00424769 0.94901961 0.28235294 0.68627451
v -0.13186569 0.09878818 0.00426053 0.94901961 0.28235294 0.56078431
v -0.13186569 0.04776586 0.00426053 0.94901961 0.28235294 0.56078431
v -0.13186569 0.04776586 -0.13179977 0.94901961 0.28235294 0.56078431
v -0.27999019 0.09820028 -0.13180044 0.94901961 0.28235294 0.56078431
v -0.28068134 0.09351709 0.00426053 0.94901961 0.28235294 0.56078431
v -0.13186569 0.09878818 -0.13179977 0.94901961 0.28235294 0.56078431
v -0.27998590 0.09820516 0.00426098 0.94901961 0.28235294 0.56078431
v -0.28028884 0.04865716 -0.13180939 0.94901961 0.28235294 0.56078431
v -0.14036946 0.04776586 -0.13179977 0.94901961 0.28235294 0.56078431
v -0.28029571 0.04867453 0.00424769 0.94901961 0.28235294 0.56078431
v 0.28011827 0.09799134 0.14883122 0.94901961 0.28235294 0.43529412
v 0.28022771 0.04866090 0.14883471 0.94901961 0.28235294 0.43529412
v 0.28055285 0.09350927 0.00426050 0.94901961 0.28235294 0.43529412
v 0.01269838 0.09878818 0.00426053 0.94901961 0.28235294 0.43529412
v 0.01269840 0.04776585 0.14882461 0.94901961 0.28235294 0.43529412
v 0.28008217 0.09800451 0.00424132 0.94901961 0.28235294 0.43529412
v 0.01269838 0.09878818 0.14882461 0.94901961 0.28235294 0.43529412
v 0.28022198 0.04865295 0.00426157 0.94901961 0.28235294 0.43529412
v 0.01269838 0.04776586 0.00426053 0.94901961 0.28235294 0.43529412
v 0.28008217 0.09800451 0.00424132 0.94901961 0.28235294 0.30980392
v 0.28022198 0.04865295 0.00426157 0.94901961 0.28235294 0.30980392
v 0.28055262 0.09350862 -0.13179819 0.94901961 0.28235294 0.30980392
v 0.01269838 0.09878818 -0.13179977 0.94901961 0.28235294 0.30980392
v 0.01269838 0.04776586 0.00426053 0.94901961 0.28235294 0.30980392
v 0.28013234 0.09796149 -0.13179966 0.94901961 0.28235294 0.30980392
v 0.01269838 0.09878818 0.00426053 0.94901961 0.28235294 0.30980392
v 0.01269838 0.04776586 -0.13179977 0.94901961 0.28235294 0.30980392
v 0.28023085 0.04869157 -0.13180300 0.94901961 0.28235294 0.30980392
v 0.01269877 0.09799514 0.28020368 0.94901961 0.38039216 0.28235294
v 0.01267485 0.04870743 0.28028814 0.94901961 0.38039216 0.28235294
v 0.01269838 0.04776586 0.00426053 0.94901961 0.38039216 0.28235294
v -0.13186569 0.09878818 0.00426053 0.94901961 0.38039216 0.28235294
v -0.13186587 0.04870977 0.28028697 0.94901961 0.38039216 0.28235294
v 0.01269838 0.09878818 0.00426053 0.94901961 0.38039216 0.28235294
v -0.13186519 0.09824766 0.27989459 0.94901961 0.38039216 0.28235294
v -0.13186569 0.04776586 0.00426053 0.94901961 0.38039216 0.28235294
v 0.01269838 0.09878818 0.00426053 0.94901961 0.50588235 0.28235294
v 0.01269838 0.04776586 0.00426053 0.94901961 0.50588235 0.28235294
v 0.01269842 0.09351709 -0.28061546 0.94901961 0.50588235 0.28235294
v -0.13186729 0.09805323 -0.28014035 0.94901961 0.50588235 0.28235294
v -0.13186569 0.04776586 0.00426053 0.94901961 0.50588235 0.28235294
v 0.01269988 0.09803201 -0.28015775 0.94901961 0.50588235 0.28235294
v -0.13186569 0.09878818 0.00426053 0.94901961 0.50588235 0.28235294
v 0.01311257 0.04843396 -0.27965511 0.94901961 0.50588235 0.28235294
v -0.13186470 0.04879366 -0.28032709 0.94901961 0.50588235 0.28235294
v 0.27841510 -0.12755671 0.27856628 0.94901961 0.62745098 0.28235294
v 0.27741016 -0.36039663 0.27759936 0.94901961 0.62745098 0.28235294
v 0.27848675 -0.12756615 0.22835093 0.94901961 0.62745098 0.28235294
v 0.22827893 -0.12760103 0.22839874 0.94901961 0.62745098 0.28235294
v 0.22823862 -0.13614914 0.27866351 0.94901961 0.62745098 0.28235294
v 0.22831478 -0.36143414 0.22847440 0.94901961 0.62745098 0.28235294
v 0.22823020 -0.12757177 0.27862088 0.94901961 0.62745098 0.28235294
v 0.27727993 -0.36143433 0.22858098 0.94901961 0.62745098 0.28235294
v 0.22836273 -0.36143427 0.27741451 0.94901961 0.62745098 0.28235294
v 0.27618510 -0.36143432 0.22853613 0.94901961 0.62745098 0.28235294
v 0.27848320 -0.12756532 -0.22832107 0.94901961 0.75294118 0.28235294
v 0.27750862 -0.36143438 -0.22841099 0.94901961 0.75294118 0.28235294
v 0.27842236 -0.12755658 -0.27853003 0.94901961 0.75294118 0.28235294
v 0.22825189 -0.12756551 -0.27855273 0.94901961 0.75294118 0.28235294
v 0.22829177 -0.12759030 -0.22833123 0.94901961 0.75294118 0.28235294
v 0.27741862 -0.36085489 -0.27745663 0.94901961 0.75294118 0.28235294
v 0.22818497 -0.36143422 -0.27712192 0.94901961 0.75294118 0.28235294
v 0.22833025 -0.36143414 -0.22844541 0.94901961 0.75294118 0.28235294
v 0.27633182 -0.36143438 -0.27725948 0.94901961 0.75294118 0.28235294
v -0.22840724 -0.12756374 0.27852756 0.94901961 0.87843137 0.28235294
v -0.22849142 -0.36143427 0.27745020 0.94901961 0.87843137 0.28235294
v -0.22846990 -0.12758514 0.22835576 0.94901961 0.87843137 0.28235294
v -0.27860118 -0.12756564 0.22837225 0.94901961 0.87843137 0.28235294
v -0.27867426 -0.13620964 0.27856598 0.94901961 0.87843137 0.28235294
v -0.27743708 -0.36143433 0.22825170 0.94901961 0.87843137 0.28235294
v -0.22851941 -0.36143417 0.22836331 0.94901961 0.87843137 0.28235294
v -0.27765455 -0.36051134 0.27758008 0.94901961 0.87843137 0.28235294
v -0.27863875 -0.12755760 0.27853186 0.94901961 0.87843137 0.28235294
v -0.22845762 -0.12758631 -0.22836764 0.89411765 0.94901961 0.28235294
v -0.22860578 -0.36143409 -0.22825166 0.89411765 0.94901961 0.28235294
v -0.22842091 -0.12756219 -0.27855385 0.89411765 0.94901961 0.28235294
v -0.27863949 -0.12756131 -0.27860049 0.89411765 0.94901961 0.28235294
v -0.27874038 -0.13615745 -0.22838160 0.89411765 0.94901961 0.28235294
v -0.27767724 -0.36105521 -0.27743077 0.89411765 0.94901961 0.28235294
v -0.22835327 -0.36143427 -0.27723135 0.89411765 0.94901961 0.28235294
v -0.27869280 -0.12756767 -0.22836865 0.89411765 0.94901961 0.28235294
v -0.27736669 -0.36143427 -0.22830231 0.89411765 0.94901961 0.28235294
v -0.22842391 -0.00845717 0.27858706 0.76862745 0.94901961 0.28235294
v -0.22840724 -0.12756374 0.27852756 0.76862745 0.94901961 0.28235294
v -0.22845698 -0.01702748 0.22836021 0.76862745 0.94901961 0.28235294
v -0.27866230 -0.00845974 0.22839076 0.76862745 0.94901961 0.28235294
v -0.27868072 -0.00841733 0.27857860 0.76862745 0.94901961 0.28235294
v -0.27860118 -0.12756564 0.22837225 0.76862745 0.94901961 0.28235294
v -0.22846816 -0.00853645 0.22835827 0.76862745 0.94901961 0.28235294
v -0.22846990 -0.12758514 0.22835576 0.76862745 0.94901961 0.28235294
v -0.27863875 -0.12755760 0.27853186 0.76862745 0.94901961 0.28235294
v 0.27854815 -0.00844601 -0.22833212 0.64313725 0.94901961 0.28235294
v 0.27848320 -0.12756532 -0.22832107 0.64313725 0.94901961 0.28235294
v 0.27846947 -0.00840814 -0.27857865 0.64313725 0.94901961 0.28235294
v 0.22827094 -0.00845077 -0.27861829 0.64313725 0.94901961 0.28235294
v 0.22828954 -0.01703224 -0.22835260 0.64313725 0.94901961 0.28235294
v 0.27567610 -0.12756699 -0.27882024 0.64313725 0.94901961 0.28235294
v 0.27842236 -0.12755658 -0.27853003 0.64313725 0.94901961 0.28235294
v 0.22830106 -0.00853539 -0.22835392 0.64313725 0.94901961 0.28235294
v 0.22825189 -0.12756551 -0.27855273 0.64313725 0.94901961 0.28235294
v 0.22829177 -0.12759030 -0.22833123 0.64313725 0.94901961 0.28235294
v -0.13186569 0.09878818 -0.13179977 0.51764706 0.94901961 0.28235294
v -0.13186569 0.04776586 -0.13179977 0.51764706 0.94901961 0.28235294
v -0.13186569 0.09351709 -0.28061542 0.51764706 0.94901961 0.28235294
v -0.19989437 0.09805491 -0.28013441 0.51764706 0.94901961 0.28235294
v -0.19989584 0.09878818 -0.13179977 0.51764706 0.94901961 0.28235294
v -0.19990002 0.04878200 -0.28031928 0.51764706 0.94901961 0.28235294
v -0.13186729 0.09805323 -0.28014035 0.51764706 0.94901961 0.28235294
v -0.13186470 0.04879366 -0.28032709 0.51764706 0.94901961 0.28235294
v -0.19989584 0.04776586 -0.13179977 0.51764706 0.94901961 0.28235294
v -0.13186519 0.09824766 0.27989459 0.39215686 0.94901961 0.28235294
v -0.13186587 0.04870977 0.28028697 0.39215686 0.94901961 0.28235294
v -0.13186569 0.04776586 0.14882461 0.39215686 0.94901961 0.28235294
v -0.19989584 0.09878818 0.14882461 0.39215686 0.94901961 0.28235294
v -0.19988527 0.09814860 0.28000768 0.39215686 0.94901961 0.28235294
v -0.13186569 0.09878818 0.14882461 0.39215686 0.94901961 0.28235294
v -0.19989906 0.04868179 0.28027100 0.39215686 0.94901961 0.28235294
v -0.19989584 0.04776586 0.14882461 0.39215686 0.94901961 0.28235294
v 0.28013234 0.09796149 -0.13179966 0.28235294 0.94901961 0.29803922
v 0.28023085 0.04869157 -0.13180300 0.28235294 0.94901961 0.29803922
v 0.28055312 0.09350911 -0.19982841 0.28235294 0.94901961 0.29803922
v 0.15726246 0.09878818 -0.19982992 0.28235294 0.94901961 0.29803922
v 0.15726246 0.04776586 -0.13179977 0.28235294 0.94901961 0.29803922
v 0.28013000 0.09796440 -0.19982762 0.28235294 0.94901961 0.29803922
v 0.15726246 0.09878818 -0.13179977 0.28235294 0.94901961 0.29803922
v 0.28022788 0.04867587 -0.19983809 0.28235294 0.94901961 0.29803922
v 0.15726246 0.04776586 -0.19982992 0.28235294 0.94901961 0.29803922
v 0.28012904 0.09796942 0.22536039 0.28235294 0.94901961 0.41960784
v 0.27839501 0.04262713 0.22764847 0.28235294 0.94901961 0.41960784
v 0.28022771 0.04866090 0.14883471 0.28235294 0.94901961 0.41960784
v 0.15726246 0.09878818 0.14882461 0.28235294 0.94901961 0.41960784
v 0.15726246 0.09878818 0.22535853 0.28235294 0.94901961 0.41960784
v 0.15726246 0.04776586 0.14882461 0.28235294 0.94901961 0.41960784
v 0.28011827 0.09799134 0.14883122 0.28235294 0.94901961 0.41960784
v 0.15726246 0.04776586 0.22535853 0.28235294 0.94901961 0.41960784
v 0.28055075 0.09351028 0.14882150 0.28235294 0.94901961 0.41960784
v -0.19989584 0.09878818 -0.13179977 0.28235294 0.94901961 0.54509804
v -0.19989584 0.04776586 -0.13179977 0.28235294 0.94901961 0.54509804
v -0.19989584 0.04776586 -0.19982992 0.28235294 0.94901961 0.54509804
v -0.27998665 0.09820303 -0.19982837 0.28235294 0.94901961 0.54509804
v -0.28068134 0.09351709 -0.13179977 0.28235294 0.94901961 0.54509804
v -0.19989584 0.09878818 -0.19982992 0.28235294 0.94901961 0.54509804
v -0.27999019 0.09820028 -0.13180044 0.28235294 0.94901961 0.54509804
v -0.28028303 0.04864634 -0.19983968 0.28235294 0.94901961 0.54509804
v -0.28028884 0.04865716 -0.13180939 0.28235294 0.94901961 0.54509804
v -0.19989584 0.09878818 0.22535853 0.28235294 0.94901961 0.67058824
v -0.19989584 0.04776586 0.22535853 0.28235294 0.94901961 0.67058824
v -0.19989584 0.04776586 0.14882461 0.28235294 0.94901961 0.67058824
v -0.28000589 0.09817803 0.14882383 0.28235294 0.94901961 0.67058824
v -0.27849080 0.04257106 0.22764751 0.28235294 0.94901961 0.67058824
v -0.19989584 0.09878818 0.14882461 0.28235294 0.94901961 0.67058824
v -0.27999023 0.09819897 0.22535700 0.28235294 0.94901961 0.67058824
v -0.28029460 0.04867435 0.14881072 0.28235294 0.94901961 0.67058824
v -0.28068134 0.09351709 0.22535853 0.28235294 0.94901961 0.67058824
v 0.22529261 0.09878818 -0.19982992 0.28235294 0.94901961 0.79607843
v 0.22529261 0.04776586 -0.19982992 0.28235294 0.94901961 0.79607843
v 0.22744814 0.04268784 -0.27850541 0.28235294 0.94901961 0.79607843
v 0.15725941 0.09804586 -0.28014270 0.28235294 0.94901961 0.79607843
v 0.15726246 0.09878818 -0.19982992 0.28235294 0.94901961 0.79607843
v 0.22528950 0.09805238 -0.28013663 0.28235294 0.94901961 0.79607843
v 0.15726246 0.04776586 -0.19982992 0.28235294 0.94901961 0.79607843
v 0.15902614 0.04878063 -0.28031841 0.28235294 0.94901961 0.79607843
v 0.22529268 0.09351709 -0.28061541 0.28235294 0.94901961 0.79607843
v 0.22529135 0.09801527 0.28018599 0.28235294 0.94901961 0.92156863
v 0.22744057 0.04262897 0.27850670 0.28235294 0.94901961 0.92156863
v 0.22529261 0.09878818 0.22535853 0.28235294 0.94901961 0.92156863
v 0.15726246 0.09878818 0.22535853 0.28235294 0.94901961 0.92156863
v 0.15727082 0.04869006 0.28027551 0.28235294 0.94901961 0.92156863
v 0.22580571 0.04500234 0.22567741 0.28235294 0.94901961 0.92156863
v 0.15726134 0.09800856 0.28019205 0.28235294 0.94901961 0.92156863
v 0.15726246 0.04776586 0.22535853 0.28235294 0.94901961 0.92156863
v -0.19989584 0.09878818 -0.19982992 0.28235294 0.85098039 0.94901961
v -0.19989584 0.04776586 -0.19982992 0.28235294 0.85098039 0.94901961
v -0.19989622 0.05104264 -0.28061552 0.28235294 0.85098039 0.94901961
v -0.27905590 0.09674547 -0.27864383 0.28235294 0.85098039 0.94901961
v -0.28068147 0.05111192 -0.19982862 0.28235294 0.85098039 0.94901961
v -0.19989437 0.09805491 -0.28013441 0.28235294 0.85098039 0.94901961
v -0.27998665 0.09820303 -0.19982837 0.28235294 0.85098039 0.94901961
v -0.27947400 0.05181455 -0.27928520 0.28235294 0.85098039 0.94901961
v -0.28068134 0.09351709 -0.19982992 0.28235294 0.85098039 0.94901961
v -0.19988527 0.09814860 0.28000768 0.28235294 0.72549020 0.94901961
v -0.19989582 0.05099840 0.28063280 0.28235294 0.72549020 0.94901961
v -0.19989584 0.04776586 0.22535853 0.28235294 0.72549020 0.94901961
v -0.27999023 0.09819897 0.22535700 0.28235294 0.72549020 0.94901961
v -0.27928234 0.05190626 0.27937985 0.28235294 0.72549020 0.94901961
v -0.19989584 0.09878818 0.22535853 0.28235294 0.72549020 0.94901961
v -0.27894043 0.09680910 0.27871841 0.28235294 0.72549020 0.94901961
v -0.28068147 0.05113783 0.22535657 0.28235294 0.72549020 0.94901961
v -0.23391113 0.05101796 0.28063280 0.28235294 0.60000000 0.94901961
v -0.23391084 -0.00852805 0.27961189 0.28235294 0.60000000 0.94901961
v -0.23436262 0.04587954 0.22411184 0.28235294 0.60000000 0.94901961
v -0.28068147 0.05113783 0.22535657 0.28235294 0.60000000 0.94901961
v -0.27928234 0.05190626 0.27937985 0.28235294 0.60000000 0.94901961
v -0.27866230 -0.00845974 0.22839076 0.28235294 0.60000000 0.94901961
v -0.23391096 -0.00852799 0.22756896 0.28235294 0.60000000 0.94901961
v -0.27868072 -0.00841733 0.27857860 0.28235294 0.60000000 0.94901961
f 1 3 4
f 6 4 3
f 7 5 2
f 7 1 5
f 7 2 6
f 7 6 3
f 7 3 1
f 8 5 1
f 8 1 4
f 8 4 5
f 9 5 4
f 9 4 6
f 10 9 6
f 10 6 2
f 10 2 5
f 10 5 9
f 11 12 13
f 15 14 13
f 16 11 13
f 16 13 14
f 16 14 15
f 17 15 13
f 17 13 12
f 18 16 15
f 18 11 16
f 18 15 17
f 19 17 12
f 19 12 11
f 19 18 17
f 19 11 18
f 20 21 22
f 22 21 23
f 24 22 23
f 25 21 20
f 25 24 23
f 25 23 21
f 26 22 24
f 27 20 22
f 27 22 26
f 28 27 26
f 28 20 27
f 28 26 24
f 29 25 20
f 29 20 28
f 29 28 24
f 29 24 25
f 30 31 32
f 34 31 30
f 34 30 32
f 34 32 33
f 36 32 31
f 36 31 35
f 36 35 33
f 36 33 32
f 37 34 33
f 37 33 35
f 37 35 31
f 37 31 34
f 38 39 40
f 42 39 38
f 43 38 40
f 43 40 41
f 43 42 38
f 43 41 42
f 44 40 39
f 44 39 42
f 45 42 41
f 45 41 40
f 46 44 42
f 46 42 45
f 46 45 40
f 46 40 44
f 47 48 49
f 51 48 47
f 52 47 49
f 52 50 47
f 53 51 47
f 53 47 50
f 54 50 52
f 54 53 50
f 54 51 53
f 55 49 48
f 55 48 51
f 55 51 54
f 55 54 52
f 55 52 49
f 60 56 58
f 60 58 59
f 61 59 58
f 62 56 57
f 62 58 56
f 62 61 58
f 62 57 61
f 63 57 56
f 63 56 60
f 64 61 57
f 64 57 63
f 64 59 61
f 64 63 60
f 64 60 59
f 69 66 65
f 70 67 68
f 70 68 65
f 70 65 66
f 70 66 67
f 71 69 65
f 71 65 68
f 71 68 69
f 72 69 68
f 72 68 67
f 72 67 66
f 72 66 69
f 73 74 75
f 77 74 73
f 78 73 75
f 78 75 76
f 79 77 73
f 79 76 77
f 79 78 76
f 79 73 78
f 80 75 74
f 80 74 77
f 80 77 76
f 80 76 75
f 81 82 83
f 81 83 84
f 86 83 82
f 86 82 85
f 87 81 84
f 87 85 82
f 87 82 81
f 88 86 85
f 88 84 83
f 88 83 86
f 88 87 84
f 88 85 87
f 89 90 91
f 94 89 91
f 95 92 93
f 95 94 92
f 95 89 94
f 95 93 90
f 95 90 89
f 96 93 92
f 96 94 91
f 96 92 94
f 97 96 91
f 97 91 90
f 98 90 93
f 98 93 96
f 98 97 90
f 98 96 97
f 99 100 101
f 104 99 101
f 105 104 102
f 105 99 104
f 105 103 100
f 105 100 99
f 106 101 100
f 106 100 103
f 106 104 101
f 107 106 103
f 107 102 104
f 107 104 106
f 107 105 102
f 107 103 105
f 108 109 110
f 113 108 110
f 113 111 108
f 114 108 111
f 114 111 112
f 114 112 109
f 114 109 108
f 115 109 112
f 115 112 111
f 116 110 109
f 116 109 115
f 116 113 110
f 116 115 111
f 116 111 113
f 117 118 119
f 121 118 117
f 122 117 119
f 122 119 120
f 123 121 117
f 123 120 121
f 123 122 120
f 123 117 122
f 124 121 120
f 124 120 119
f 124 119 118
f 124 118 121
f 129 126 125
f 130 127 128
f 130 128 125
f 131 129 125
f 131 125 128
f 131 128 129
f 132 126 129
f 132 127 130
f 132 130 125
f 132 125 126
f 133 132 129
f 133 129 128
f 133 128 127
f 133 127 132
f 134 135 136
f 138 135 134
f 139 137 136
f 140 138 134
f 140 137 139
f 140 134 136
f 140 136 137
f 141 136 135
f 142 135 138
f 142 140 139
f 142 138 140
f 142 141 135
f 142 139 141
f 143 141 139
f 143 139 136
f 143 136 141
f 144 145 146
f 144 146 147
f 148 145 144
f 148 144 147
f 149 146 145
f 149 147 146
f 150 148 147
f 150 147 149
f 151 150 145
f 151 145 148
f 151 148 150
f 152 150 149
f 152 149 145
f 152 145 150
f 153 155 156
f 158 156 155
f 159 153 154
f 159 155 153
f 159 158 155
f 159 154 158
f 160 154 153
f 160 153 157
f 160 158 154
f 160 157 156
f 160 156 158
f 161 157 153
f 161 153 156
f 161 156 157
f 167 165 164
f 167 166 165
f 168 162 163
f 168 164 162
f 168 167 164
f 169 165 166
f 169 162 164
f 169 164 165
f 169 163 162
f 170 166 167
f 170 169 166
f 170 163 169
f 170 168 163
f 170 167 168
f 171 172 173
f 175 171 174
f 177 171 173
f 177 174 171
f 177 176 174
f 178 173 172
f 178 177 173
f 178 176 177
f 179 175 174
f 179 174 176
f 179 172 171
f 179 171 175
f 179 178 172
f 179 176 178
f 180 182 183
f 185 183 182
f 186 180 181
f 186 182 180
f 186 185 182
f 186 181 185
f 187 180 183
f 187 183 184
f 188 184 183
f 188 183 185
f 189 188 185
f 189 185 181
f 189 184 188
f 189 181 180
f 189 187 184
f 189 180 187
f 194 191 190
f 194 190 193
f 195 193 192
f 195 194 193
f 196 190 192
f 196 192 193
f 196 193 190
f 197 195 192
f 197 191 195
f 197 190 191
f 197 192 190
f 198 195 191
f 198 191 194
f 198 194 195
f 199 200 201
f 203 200 199
f 203 199 202
f 204 199 201
f 204 201 202
f 204 202 199
f 205 201 200
f 205 200 203
f 205 203 202
f 206 205 202
f 206 202 201
f 206 201 205
f 207 208 209
f 211 208 207
f 212 207 209
f 213 211 207
f 213 210 211
f 213 212 210
f 213 207 212
f 214 209 208
f 214 208 211
f 214 212 209
f 214 210 212
f 215 214 211
f 215 211 210
f 215 210 214
f 216 217 218
f 220 217 216
f 221 218 217
f 221 220 219
f 222 220 216
f 222 219 220
f 223 221 217
f 223 217 220
f 223 220 221
f 224 222 216
f 224 216 218
f 224 218 221
f 224 221 219
f 224 219 222
f 225 226 227
f 229 226 225
f 230 225 227
f 230 228 225
f 231 229 225
f 231 225 228
f 231 228 229
f 232 227 226
f 232 229 228
f 232 230 227
f 232 228 230
f 233 232 226
f 233 226 229
f 233 229 232
f 234 235 236
f 238 235 234
f 238 236 235
f 239 234 236
f 240 238 234
f 240 239 237
f 240 234 239
f 241 236 238
f 241 239 236
f 241 237 239
f 242 240 237
f 242 237 241
f 242 241 238
f 242 238 240
f 243 244 245
f 247 244 243
f 248 243 245
f 248 247 243
f 248 246 247
f 249 245 244
f 249 244 247
f 249 247 246
f 250 249 246
f 250 245 249
f 251 248 245
f 251 245 250
f 251 250 246
f 251 246 248
f 252 253 254
f 252 254 255
f 256 253 252
f 257 254 253
f 258 256 252
f 258 252 255
f 259 255 254
f 259 254 257
f 259 258 255
f 259 256 258
f 259 257 253
f 259 253 256
f 265 260 261
f 265 261 262
f 266 265 263
f 266 260 265
f 266 264 261
f 266 261 260
f 267 262 261
f 267 261 264
f 267 265 262
f 267 263 265
f 268 266 263
f 268 264 266
f 268 267 264
f 268 263 267
f 269 270 271
f 273 270 269
f 273 271 270
f 274 269 271
f 274 272 269
f 275 273 269
f 275 269 272
f 276 271 273
f 276 274 271
f 276 272 274
f 276 275 272
f 276 273 275
f 277 279 280
f 281 277 280
f 282 280 279
f 283 277 278
f 283 279 277
f 283 282 279
f 283 278 282
f 284 278 277
f 284 277 281
f 284 282 278
f 284 281 280
f 284 280 282

