# https://github.com/mikedh/trimesh
v 0.09737972 0.16279470 -0.08811248 0.28235294 0.47843137 0.94901961
v 0.17054207 0.03071023 -0.11996008 0.28235294 0.47843137 0.94901961
v 0.09798376 0.16685682 -0.17247794 0.28235294 0.47843137 0.94901961
v 0.00710382 0.15372964 -0.17949701 0.28235294 0.47843137 0.94901961
v 0.00506369 0.01620472 -0.08754230 0.28235294 0.47843137 0.94901961
v 0.14827717 0.01712727 -0.15221760 0.28235294 0.47843137 0.94901961
v 0.00344548 0.16876676 -0.08855487 0.28235294 0.47843137 0.94901961
v 0.10337061 0.16202471 -0.14666982 0.28235294 0.47843137 0.94901961
v 0.09786679 0.01620472 -0.08754230 0.28235294 0.47843137 0.94901961
v 0.16242269 0.04880146 -0.14744522 0.28235294 0.47843137 0.94901961
v 0.10978745 0.10361910 -0.17210930 0.28235294 0.47843137 0.94901961
v 0.00404956 0.01665541 -0.16924476 0.28235294 0.47843137 0.94901961
v 0.02140185 0.16090282 -0.17873025 0.28235294 0.47843137 0.94901961
v 0.11204025 0.13398033 -0.08760470 0.28235294 0.47843137 0.94901961
v 0.15396947 0.06780453 -0.13992403 0.28235294 0.47843137 0.94901961
v 0.14620018 0.05148785 -0.15798695 0.28235294 0.47843137 0.94901961
v 0.10369004 0.09826974 -0.17205147 0.28235294 0.47843137 0.94901961
v 0.00433323 0.10246603 -0.17995691 0.28235294 0.47843137 0.94901961
v 0.03228530 0.01623953 -0.16546243 0.28235294 0.47843137 0.94901961
v 0.07560749 0.16685447 -0.17985266 0.28235294 0.47843137 0.94901961
v 0.00869884 0.15751809 -0.17180887 0.28235294 0.47843137 0.94901961
v 0.11815131 0.12265566 -0.08752095 0.28235294 0.47843137 0.94901961
v 0.15993160 0.05607924 -0.14792999 0.28235294 0.47843137 0.94901961
v 0.15763083 0.05056127 -0.15182134 0.28235294 0.47843137 0.94901961
v 0.12499855 0.03328749 -0.15793553 0.28235294 0.47843137 0.94901961
v 0.16283732 0.04840327 -0.13194719 0.28235294 0.47843137 0.94901961
v 0.10245713 0.16310468 -0.16974515 0.28235294 0.47843137 0.94901961
v 0.15311825 0.06920087 -0.14942902 0.28235294 0.47843137 0.94901961
v 0.15446731 0.06339903 -0.15121504 0.28235294 0.47843137 0.94901961
v 0.00709743 0.16910577 -0.09301864 0.28235294 0.35294118 0.94901961
v 0.00506369 0.05189822 -0.09468100 0.28235294 0.35294118 0.94901961
v 0.00431108 0.14894114 -0.18205370 0.28235294 0.35294118 0.94901961
v -0.10071135 0.09273910 -0.19008813 0.28235294 0.35294118 0.94901961
v -0.10945838 0.10908979 -0.09783071 0.28235294 0.35294118 0.94901961
v -0.04575783 -0.00509752 -0.17470548 0.28235294 0.35294118 0.94901961
v 0.00721225 0.15561708 -0.17749986 0.28235294 0.35294118 0.94901961
v -0.10201682 -0.00521139 -0.09468100 0.28235294 0.35294118 0.94901961
v 0.00345221 0.05156559 -0.17167474 0.28235294 0.35294118 0.94901961
v -0.03214113 0.11034889 -0.18680475 0.28235294 0.35294118 0.94901961
v 0.00823080 0.16699269 -0.09955857 0.28235294 0.35294118 0.94901961
v -0.04210359 0.14459990 -0.09289105 0.28235294 0.35294118 0.94901961
v -0.05555172 0.12088460 -0.18430708 0.28235294 0.35294118 0.94901961
v -0.04490722 -0.00521139 -0.09468100 0.28235294 0.35294118 0.94901961
v -0.10336553 -0.00469797 -0.18218369 0.28235294 0.35294118 0.94901961
v 0.00421334 0.09614819 -0.17896655 0.28235294 0.35294118 0.94901961
v -0.03098617 0.12222116 -0.18671385 0.28235294 0.35294118 0.94901961
v 0.00149177 0.16661667 -0.09188910 0.28235294 0.35294118 0.94901961
v -0.01255756 0.14365036 -0.18062050 0.28235294 0.35294118 0.94901961
v -0.05742970 0.11820777 -0.18582547 0.28235294 0.35294118 0.94901961
v -0.00005923 0.15164947 -0.17819727 0.28235294 0.35294118 0.94901961
v -0.10201682 -0.00521139 -0.14465190 0.28235294 0.35294118 0.94901961
v -0.10372704 0.03923001 -0.18736576 0.28235294 0.35294118 0.94901961
v -0.08134780 -0.00426576 -0.17974374 0.28235294 0.35294118 0.94901961
v 0.15371393 0.01427073 0.19267444 0.33725490 0.28235294 0.94901961
v 0.15820948 0.01307365 0.18843182 0.33725490 0.28235294 0.94901961
v 0.08151849 0.13402245 0.17128664 0.33725490 0.28235294 0.94901961
v 0.00506369 0.13042392 0.00526080 0.33725490 0.28235294 0.94901961
v 0.00506369 0.01620472 0.00526080 0.33725490 0.28235294 0.94901961
v 0.11940395 0.11178322 0.00450806 0.33725490 0.28235294 0.94901961
v 0.11535596 0.09113464 0.18373676 0.33725490 0.28235294 0.94901961
v 0.00601149 0.01524742 0.16181631 0.33725490 0.28235294 0.94901961
v 0.10876376 0.12853413 0.00474413 0.33725490 0.28235294 0.94901961
v 0.16272371 0.02985826 0.01064812 0.33725490 0.28235294 0.94901961
v 0.11076148 0.11822687 0.08290249 0.33725490 0.28235294 0.94901961
v 0.00419502 0.13119596 0.14836637 0.33725490 0.28235294 0.94901961
v 0.10808976 0.09614455 0.18267024 0.33725490 0.28235294 0.94901961
v 0.16118590 0.01568810 0.10512306 0.33725490 0.28235294 0.94901961
v 0.13332788 0.08481577 0.00443910 0.33725490 0.28235294 0.94901961
v 0.10301675 0.11841761 0.16020565 0.33725490 0.28235294 0.94901961
v 0.09432999 0.11840883 0.17586717 0.33725490 0.28235294 0.94901961
v 0.11098115 0.10308716 0.16522645 0.33725490 0.28235294 0.94901961
v 0.10361443 0.12536585 0.11151471 0.33725490 0.28235294 0.94901961
v 0.09711363 0.12598710 0.16459615 0.33725490 0.28235294 0.94901961
v 0.09347153 0.12442897 0.17112129 0.33725490 0.28235294 0.94901961
v 0.11150220 0.09867551 0.18055449 0.33725490 0.28235294 0.94901961
v 0.09407435 0.11958452 0.17525289 0.33725490 0.28235294 0.94901961
v 0.08429227 0.14940627 0.17458897 0.46274510 0.28235294 0.94901961
v 0.09847035 0.12692169 0.16035004 0.46274510 0.28235294 0.94901961
v 0.06559411 0.21092696 0.00538908 0.46274510 0.28235294 0.94901961
v 0.00877278 0.18589772 0.00641557 0.46274510 0.28235294 0.94901961
v 0.00394158 0.11002949 0.15053832 0.46274510 0.28235294 0.94901961
v 0.10876376 0.12853413 0.00474413 0.46274510 0.28235294 0.94901961
v 0.03332486 0.22577532 0.14949646 0.46274510 0.28235294 0.94901961
v 0.04847130 0.22587008 0.15983027 0.46274510 0.28235294 0.94901961
v 0.08757150 0.13170192 0.17178890 0.46274510 0.28235294 0.94901961
v 0.00506369 0.13042392 0.00526080 0.46274510 0.28235294 0.94901961
v 0.03370362 0.10893732 0.15453962 0.46274510 0.28235294 0.94901961
v 0.05202403 0.20867989 0.00651333 0.46274510 0.28235294 0.94901961
v 0.00805285 0.21100419 0.13828180 0.46274510 0.28235294 0.94901961
v 0.07121781 0.18158768 0.16740592 0.46274510 0.28235294 0.94901961
v 0.04917971 0.22236709 0.09149511 0.46274510 0.28235294 0.94901961
v 0.05037107 0.20950920 0.16626201 0.46274510 0.28235294 0.94901961
v 0.00558875 0.10852726 0.15089998 0.46274510 0.28235294 0.94901961
v 0.10623791 0.13496420 0.00394784 0.46274510 0.28235294 0.94901961
v 0.10665041 0.12740685 0.04081594 0.46274510 0.28235294 0.94901961
v 0.04420929 0.22560180 0.15939626 0.46274510 0.28235294 0.94901961
v 0.00768855 0.20687163 0.13978085 0.46274510 0.28235294 0.94901961
v 0.01695860 0.20690657 0.08708463 0.46274510 0.28235294 0.94901961
v 0.05080093 0.22272210 0.09894896 0.46274510 0.28235294 0.94901961
v 0.04390725 0.22134481 0.09269865 0.46274510 0.28235294 0.94901961
v 0.05827510 0.21603567 0.03306781 0.46274510 0.28235294 0.94901961
v 0.07852277 0.15836230 0.17358967 0.46274510 0.28235294 0.94901961
v 0.05465645 0.20910578 0.16412683 0.46274510 0.28235294 0.94901961
v 0.08151849 0.13402245 0.17128664 0.46274510 0.28235294 0.94901961
v 0.06975042 0.20528008 0.00705340 0.46274510 0.28235294 0.94901961
v 0.08908529 0.14644895 0.15942664 0.46274510 0.28235294 0.94901961
v 0.01898193 0.21728694 0.14413647 0.46274510 0.28235294 0.94901961
v 0.02419060 0.20007858 0.03529809 0.46274510 0.28235294 0.94901961
v 0.00925655 0.20709879 0.11319788 0.46274510 0.28235294 0.94901961
v 0.01595673 0.21461885 0.13220365 0.46274510 0.28235294 0.94901961
v 0.05165285 0.21567306 0.04268343 0.46274510 0.28235294 0.94901961
v 0.00506369 -0.00521139 0.10520261 0.58823529 0.28235294 0.94901961
v 0.00646683 -0.15767609 0.11287191 0.58823529 0.28235294 0.94901961
v 0.00247127 -0.17872323 0.01088485 0.58823529 0.28235294 0.94901961
v -0.13057162 -0.00521139 0.01239950 0.58823529 0.28235294 0.94901961
v -0.12929384 -0.10448390 0.11233670 0.58823529 0.28235294 0.94901961
v 0.00506369 -0.00521139 0.01239950 0.58823529 0.28235294 0.94901961
v 0.00506369 -0.10515319 0.11234131 0.58823529 0.28235294 0.94901961
v -0.13057162 -0.00521139 0.10520261 0.58823529 0.28235294 0.94901961
v -0.08232886 -0.19730072 0.11156560 0.58823529 0.28235294 0.94901961
v -0.04885106 -0.20403776 0.01054405 0.58823529 0.28235294 0.94901961
v -0.12379738 -0.11612800 0.11256747 0.58823529 0.28235294 0.94901961
v -0.06905011 -0.19872729 0.11115889 0.58823529 0.28235294 0.94901961
v -0.12235938 -0.10749504 0.01339079 0.58823529 0.28235294 0.94901961
v -0.00659585 -0.18351165 0.01131180 0.58823529 0.28235294 0.94901961
v 0.00221333 -0.16330453 0.09659296 0.58823529 0.28235294 0.94901961
v -0.06737712 -0.20922104 0.01236056 0.58823529 0.28235294 0.94901961
v -0.12176797 -0.11486324 0.04217788 0.58823529 0.28235294 0.94901961
v -0.06818911 -0.20507715 0.06132260 0.58823529 0.28235294 0.94901961
v -0.07903389 -0.19399968 0.04168527 0.58823529 0.28235294 0.94901961
v -0.08088916 -0.19757781 0.09118363 0.58823529 0.28235294 0.94901961
v -0.10066880 0.12816709 -0.00851643 0.71372549 0.28235294 0.94901961
v -0.10201682 -0.00521139 -0.00901660 0.71372549 0.28235294 0.94901961
v -0.09950156 0.09621371 -0.18853540 0.71372549 0.28235294 0.94901961
v -0.18347165 0.05388225 -0.19326832 0.71372549 0.28235294 0.94901961
v -0.21136115 0.07351672 -0.00764692 0.71372549 0.28235294 0.94901961
v -0.10336553 -0.00469797 -0.18218369 0.71372549 0.28235294 0.94901961
v -0.09857410 0.11747447 -0.08612886 0.71372549 0.28235294 0.94901961
v -0.10599590 0.12513415 -0.00784426 0.71372549 0.28235294 0.94901961
v -0.12576804 0.05339873 -0.19359892 0.71372549 0.28235294 0.94901961
v -0.17708345 -0.00342003 -0.00857770 0.71372549 0.28235294 0.94901961
v -0.11224912 0.09326615 -0.17955979 0.71372549 0.28235294 0.94901961
v -0.09896626 0.12435706 -0.04406999 0.71372549 0.28235294 0.94901961
v -0.15153239 -0.00405111 -0.19081492 0.71372549 0.28235294 0.94901961
v -0.12350487 0.07255476 -0.19425325 0.71372549 0.28235294 0.94901961
v -0.10370117 0.03298065 -0.18599273 0.71372549 0.28235294 0.94901961
v -0.20076510 0.04910144 -0.10069172 0.71372549 0.28235294 0.94901961
v -0.10599143 0.09386951 -0.18804343 0.71372549 0.28235294 0.94901961
v -0.13353695 0.10016407 -0.08554665 0.71372549 0.28235294 0.94901961
v -0.18151783 0.03542111 -0.19326564 0.71372549 0.28235294 0.94901961
v -0.13217580 -0.00727434 -0.18660786 0.71372549 0.28235294 0.94901961
v -0.15044149 0.06902342 -0.19288937 0.71372549 0.28235294 0.94901961
v -0.21022174 0.05543539 -0.00891525 0.71372549 0.28235294 0.94901961
v -0.20117834 0.05614065 -0.10753843 0.71372549 0.28235294 0.94901961
v -0.18621587 0.05280377 -0.19219105 0.71372549 0.28235294 0.94901961
v -0.14679141 0.03269407 -0.19318986 0.71372549 0.28235294 0.94901961
v -0.17296848 -0.00133993 -0.10106718 0.71372549 0.28235294 0.94901961
v -0.17080700 0.06012507 -0.19319155 0.71372549 0.28235294 0.94901961
v -0.18683459 0.01416421 -0.00834342 0.71372549 0.28235294 0.94901961
v -0.20929244 0.06358101 -0.05063480 0.71372549 0.28235294 0.94901961
v -0.18742167 0.04154285 -0.19213166 0.71372549 0.28235294 0.94901961
v -0.17885347 0.00623399 -0.07963746 0.71372549 0.28235294 0.94901961
v -0.20066256 0.06140855 -0.10005549 0.71372549 0.28235294 0.94901961
v -0.20901575 0.05962166 -0.05041364 0.71372549 0.28235294 0.94901961
v -0.20105103 0.05398761 -0.10780404 0.71372549 0.28235294 0.94901961
v -0.20776259 0.05521434 -0.04461073 0.71372549 0.28235294 0.94901961
v 0.00576953 -0.12846967 0.19075320 0.83529412 0.28235294 0.94901961
v 0.00347891 -0.13631212 0.19051209 0.83529412 0.28235294 0.94901961
v 0.00506369 -0.10515319 0.10520261 0.83529412 0.28235294 0.94901961
v -0.15152856 -0.05879835 0.10206208 0.83529412 0.28235294 0.94901961
v -0.11761114 -0.11229586 0.18664112 0.83529412 0.28235294 0.94901961
v 0.00590998 -0.04895934 0.16933087 0.83529412 0.28235294 0.94901961
v 0.00929030 -0.15598025 0.11383255 0.83529412 0.28235294 0.94901961
v -0.03590088 -0.15048072 0.19887768 0.83529412 0.28235294 0.94901961
v 0.00506369 -0.04804359 0.10520261 0.83529412 0.28235294 0.94901961
v -0.13126980 -0.04893592 0.15796077 0.83529412 0.28235294 0.94901961
v 0.00278379 -0.14183262 0.18509537 0.83529412 0.28235294 0.94901961
v -0.10878317 -0.14348160 0.11201148 0.83529412 0.28235294 0.94901961
v -0.01852559 -0.14889615 0.19899797 0.83529412 0.28235294 0.94901961
v -0.13223828 -0.07105824 0.17413452 0.83529412 0.28235294 0.94901961
v -0.13199087 -0.10201824 0.15430917 0.83529412 0.28235294 0.94901961
v -0.12931036 -0.10462477 0.10523605 0.83529412 0.28235294 0.94901961
v -0.10455377 -0.14345277 0.18757959 0.83529412 0.28235294 0.94901961
v -0.01820553 -0.14462322 0.19825166 0.83529412 0.28235294 0.94901961
v -0.13408599 -0.05887520 0.16384420 0.83529412 0.28235294 0.94901961
v -0.13216348 -0.10225222 0.14220386 0.83529412 0.28235294 0.94901961
v -0.10768277 -0.14359131 0.16460687 0.83529412 0.28235294 0.94901961
v -0.10885234 -0.13839891 0.18449884 0.83529412 0.28235294 0.94901961
v -0.12379738 -0.11612800 0.11256747 0.83529412 0.28235294 0.94901961
v -0.12894558 -0.10813182 0.14231285 0.83529412 0.28235294 0.94901961
v -0.12903391 -0.10753616 0.15386230 0.83529412 0.28235294 0.94901961
v 0.16959464 0.01254562 0.02506234 0.94901961 0.28235294 0.93333333
v 0.23512654 -0.09249196 -0.10502564 0.94901961 0.28235294 0.93333333
v 0.18233981 0.01185463 -0.14255732 0.94901961 0.28235294 0.93333333
v 0.12725316 0.01809552 -0.15327479 0.94901961 0.28235294 0.93333333
v 0.12419074 -0.11466314 0.02593316 0.94901961 0.28235294 0.93333333
v 0.22536759 -0.10276870 -0.13267948 0.94901961 0.28235294 0.93333333
v 0.17912102 0.01453324 -0.14609111 0.94901961 0.28235294 0.93333333
v 0.23201590 -0.08003979 -0.10487632 0.94901961 0.28235294 0.93333333
v 0.21154165 -0.06777225 0.02586026 0.94901961 0.28235294 0.93333333
v 0.12642159 0.01620472 0.02667690 0.94901961 0.28235294 0.93333333
v 0.12441949 -0.13841115 -0.13364827 0.94901961 0.28235294 0.93333333
v 0.22227561 -0.10449160 -0.11264383 0.94901961 0.28235294 0.93333333
v 0.18200501 0.01124985 -0.10976404 0.94901961 0.28235294 0.93333333
v 0.16848891 0.00983597 -0.15137018 0.94901961 0.28235294 0.93333333
v 0.22571377 -0.07138698 -0.12573832 0.94901961 0.28235294 0.93333333
v 0.21081439 -0.05954050 0.02590076 0.94901961 0.28235294 0.93333333
v 0.16853135 0.01568174 -0.15133429 0.94901961 0.28235294 0.93333333
v 0.20868238 -0.07000713 0.02610682 0.94901961 0.28235294 0.93333333
v 0.12352833 -0.13498376 -0.09526892 0.94901961 0.28235294 0.93333333
v 0.23268234 -0.09987427 -0.11971088 0.94901961 0.28235294 0.93333333
v 0.20664152 -0.11321160 -0.13229497 0.94901961 0.28235294 0.93333333
v 0.12690209 -0.08874266 -0.14415584 0.94901961 0.28235294 0.93333333
v 0.18875150 -0.00248697 -0.14167949 0.94901961 0.28235294 0.93333333
v 0.18290724 0.00698718 -0.14494464 0.94901961 0.28235294 0.93333333
v 0.23221085 -0.08188287 -0.11994633 0.94901961 0.28235294 0.93333333
v 0.12961331 -0.11217708 0.02549670 0.94901961 0.28235294 0.93333333
v 0.23404384 -0.09746306 -0.11172655 0.94901961 0.28235294 0.93333333
v 0.21149001 -0.11163031 -0.12480937 0.94901961 0.28235294 0.93333333
v 0.14573084 -0.12242769 -0.13626625 0.94901961 0.28235294 0.93333333
v 0.22492817 -0.06707843 -0.11569930 0.94901961 0.28235294 0.93333333
v 0.22670534 -0.10160447 -0.13072449 0.94901961 0.28235294 0.93333333
v 0.12386447 -0.12773800 -0.04600346 0.94901961 0.28235294 0.93333333
v 0.12082584 0.01579324 0.17688751 0.94901961 0.28235294 0.80784314
v 0.12218477 -0.06724718 0.19278499 0.94901961 0.28235294 0.80784314
v 0.11839454 -0.11626291 0.02618787 0.94901961 0.28235294 0.80784314
v 0.00506369 0.01620472 0.02667690 0.94901961 0.28235294 0.80784314
v 0.00415856 -0.13329435 0.19059754 0.94901961 0.28235294 0.80784314
v 0.11928289 0.01620472 0.02667690 0.94901961 0.28235294 0.80784314
v 0.00576953 -0.12846967 0.19075320 0.94901961 0.28235294 0.80784314
v 0.11586896 -0.08947698 0.18222067 0.94901961 0.28235294 0.80784314
v 0.00363479 -0.17407297 0.02623922 0.94901961 0.28235294 0.80784314
v 0.10916155 -0.12081395 0.02503822 0.94901961 0.28235294 0.80784314
v 0.00601149 0.01524742 0.16181631 0.94901961 0.28235294 0.80784314
v 0.11771394 -0.08354541 0.19072746 0.94901961 0.28235294 0.80784314
v 0.00188640 -0.14810412 0.17466723 0.94901961 0.28235294 0.80784314
v 0.08651318 -0.12425287 0.08122777 0.94901961 0.28235294 0.80784314
v 0.01586088 -0.16801407 0.02506865 0.94901961 0.28235294 0.80784314
v 0.01750270 -0.12913161 0.19074922 0.94901961 0.28235294 0.80784314
v 0.00178694 -0.17007535 0.05446240 0.94901961 0.28235294 0.80784314
v 0.00278379 -0.14183262 0.18509537 0.94901961 0.28235294 0.80784314
v 0.07115086 -0.14111197 0.02559417 0.94901961 0.28235294 0.80784314
v 0.11366179 -0.09623318 0.15928786 0.94901961 0.28235294 0.80784314
v 0.00179151 -0.15607949 0.13932434 0.94901961 0.28235294 0.80784314
v 0.03669949 -0.12174793 0.19045149 0.94901961 0.28235294 0.80784314
v 0.00816779 -0.14036470 0.18420607 0.94901961 0.28235294 0.80784314
v 0.10756492 -0.11798924 0.05258873 0.94901961 0.28235294 0.80784314
v 0.00746833 -0.14570481 0.17390540 0.94901961 0.28235294 0.80784314
v 0.00764093 -0.16079131 0.09601591 0.94901961 0.28235294 0.80784314
v 0.11375943 -0.11072687 0.07529388 0.94901961 0.28235294 0.80784314
v 0.07120692 -0.13182096 0.08190249 0.94901961 0.28235294 0.80784314
v 0.13799221 0.05682840 0.10484583 0.94901961 0.28235294 0.68627451
v 0.16330191 0.01310226 0.09738628 0.94901961 0.28235294 0.68627451
v 0.15522267 0.06244544 -0.13203391 0.94901961 0.28235294 0.68627451
v 0.14707498 0.05181108 -0.15750032 0.94901961 0.28235294 0.68627451
v 0.14827717 0.01712727 -0.15221760 0.94901961 0.28235294 0.68627451
v 0.14250416 0.07426118 -0.03752511 0.94901961 0.28235294 0.68627451
v 0.16118590 0.01568810 0.10512306 0.94901961 0.28235294 0.68627451
v 0.13769204 0.07159688 0.04056062 0.94901961 0.28235294 0.68627451
v 0.17912102 0.01453324 -0.14609111 0.94901961 0.28235294 0.68627451
v 0.14730932 0.07293463 -0.13047495 0.94901961 0.28235294 0.68627451
v 0.17533093 0.02480174 -0.12415059 0.94901961 0.28235294 0.68627451
v 0.15616916 0.02446892 0.10657428 0.94901961 0.28235294 0.68627451
v 0.13672941 0.06382797 0.08980955 0.94901961 0.28235294 0.68627451
v 0.14180678 0.05296893 0.10381755 0.94901961 0.28235294 0.68627451
v 0.17775076 0.01299177 -0.08119351 0.94901961 0.28235294 0.68627451
v 0.16853135 0.01568174 -0.15133429 0.94901961 0.28235294 0.68627451
v 0.16242269 0.04880146 -0.14744522 0.94901961 0.28235294 0.68627451
v 0.15005509 0.07005871 -0.13184762 0.94901961 0.28235294 0.68627451
v 0.17093413 0.01281222 0.01835385 0.94901961 0.28235294 0.68627451
v 0.13858627 0.06107035 0.08935409 0.94901961 0.28235294 0.68627451
v 0.15763083 0.05056127 -0.15182134 0.94901961 0.28235294 0.68627451
v 0.17528064 0.02670591 -0.14276523 0.94901961 0.28235294 0.68627451
v 0.13930758 0.06879850 0.03987331 0.94901961 0.28235294 0.68627451
v 0.14572105 0.06148522 0.01116026 0.94901961 0.28235294 0.68627451
v 0.16241659 0.04207956 -0.15095823 0.94901961 0.28235294 0.68627451
v 0.16782808 0.03926854 -0.14640626 0.94901961 0.28235294 0.68627451
v 0.07629808 0.19929068 -0.03737139 0.94901961 0.28235294 0.56078431
v 0.09621542 0.16537837 -0.08768057 0.94901961 0.28235294 0.56078431
v 0.09531501 0.18762508 -0.17654100 0.94901961 0.28235294 0.56078431
v 0.08553956 0.18666314 -0.18881768 0.94901961 0.28235294 0.56078431
v 0.00644465 0.16335474 -0.10814487 0.94901961 0.28235294 0.56078431
v 0.10173514 0.16500240 -0.17011397 0.94901961 0.28235294 0.56078431
v 0.07196466 0.20256596 -0.07948736 0.94901961 0.28235294 0.56078431
v 0.09210487 0.17037483 -0.06625235 0.94901961 0.28235294 0.56078431
v 0.09866781 0.16369536 -0.10926272 0.94901961 0.28235294 0.56078431
v 0.02192079 0.16151456 -0.17809190 0.94901961 0.28235294 0.56078431
v 0.06882148 0.20598398 -0.03744436 0.94901961 0.28235294 0.56078431
v 0.08713755 0.19447310 -0.17053385 0.94901961 0.28235294 0.56078431
v 0.04003929 0.19627677 -0.03783924 0.94901961 0.28235294 0.56078431
v 0.07560749 0.16685447 -0.17985266 0.94901961 0.28235294 0.56078431
v 0.06705678 0.18677352 -0.17684523 0.94901961 0.28235294 0.56078431
v 0.00344548 0.16876676 -0.08855487 0.94901961 0.28235294 0.56078431
v 0.04267391 0.19755364 -0.03725155 0.94901961 0.28235294 0.56078431
v 0.05545248 0.16592964 -0.18009762 0.94901961 0.28235294 0.56078431
v 0.09567155 0.16634281 -0.17446464 0.94901961 0.28235294 0.56078431
v 0.07921383 0.19386471 -0.17197641 0.94901961 0.28235294 0.56078431
v 0.07910113 0.18608498 -0.18699718 0.94901961 0.28235294 0.56078431
v 0.00780913 0.17258205 -0.08564411 0.94901961 0.28235294 0.56078431
v 0.05114980 0.20053839 -0.03716640 0.94901961 0.28235294 0.56078431
v 0.06860335 0.19507435 -0.13378589 0.94901961 0.28235294 0.56078431
v 0.08069945 0.18793146 -0.18481921 0.94901961 0.28235294 0.56078431
v 0.02449571 0.16405893 -0.17584257 0.94901961 0.28235294 0.56078431
v 0.05095395 0.20011153 -0.04392296 0.94901961 0.28235294 0.56078431
v 0.00805285 0.21100419 0.13828180 0.94901961 0.28235294 0.43529412
v 0.00564386 -0.00580124 0.16429344 0.94901961 0.28235294 0.43529412
v 0.00506369 -0.00521139 -0.00901660 0.94901961 0.28235294 0.43529412
v -0.10599590 0.12513415 -0.00784426 0.94901961 0.28235294 0.43529412
v -0.10881996 -0.00567177 0.15152783 0.94901961 0.28235294 0.43529412
v 0.00722329 0.18283878 -0.00792110 0.94901961 0.28235294 0.43529412
v 0.00847186 0.20223028 0.08605748 0.94901961 0.28235294 0.43529412
v -0.09662395 0.16196308 0.14366569 0.94901961 0.28235294 0.43529412
v -0.01543943 -0.00618168 0.16191002 0.94901961 0.28235294 0.43529412
v -0.10915552 -0.00521139 -0.00901660 0.94901961 0.28235294 0.43529412
v 0.00836177 0.21072302 0.13508906 0.94901961 0.28235294 0.43529412
v 0.00601149 0.01524742 0.16181631 0.94901961 0.28235294 0.43529412
v -0.10541784 0.15017974 0.12158289 0.94901961 0.28235294 0.43529412
v -0.09119654 0.16645330 0.13979614 0.94901961 0.28235294 0.43529412
v -0.07270698 -0.00606819 0.15536046 0.94901961 0.28235294 0.43529412
v -0.06121605 0.15009136 -0.00807510 0.94901961 0.28235294 0.43529412
v 0.00593551 0.13678381 0.14798283 0.94901961 0.28235294 0.43529412
v -0.10313303 0.15112519 0.13671771 0.94901961 0.28235294 0.43529412
v -0.10834885 0.02952700 0.14739437 0.94901961 0.28235294 0.43529412
v -0.00503888 0.17867978 -0.00031748 0.94901961 0.28235294 0.43529412
v -0.09120409 0.16575632 0.14359234 0.94901961 0.28235294 0.43529412
v -0.09761390 0.13021026 -0.00744803 0.94901961 0.28235294 0.43529412
v 0.00595771 0.19393952 0.14101085 0.94901961 0.28235294 0.43529412
v -0.10493503 0.14903728 0.13640022 0.94901961 0.28235294 0.30980392
v -0.10881996 -0.00567177 0.15152783 0.94901961 0.28235294 0.30980392
v -0.10915552 -0.00521139 0.08378651 0.94901961 0.28235294 0.30980392
v -0.16399410 0.11183564 0.08447596 0.94901961 0.28235294 0.30980392
v -0.16894954 -0.00722282 0.15925145 0.94901961 0.28235294 0.30980392
v -0.10730762 0.14112802 0.08459052 0.94901961 0.28235294 0.30980392
v -0.16485074 0.11995340 0.11998358 0.94901961 0.28235294 0.30980392
v -0.17776020 -0.01135390 0.08323546 0.94901961 0.28235294 0.30980392
v -0.10584583 0.14530078 0.09948680 0.94901961 0.28235294 0.30980392
v -0.14174788 0.13054318 0.13463693 0.94901961 0.28235294 0.30980392
v -0.14728491 0.12143387 0.08522409 0.94901961 0.28235294 0.30980392
v -0.16544169 -0.00860792 0.15692024 0.94901961 0.28235294 0.30980392
v -0.16966778 -0.00429162 0.15795509 0.94901961 0.28235294 0.30980392
v -0.11948132 0.14351811 0.12170455 0.94901961 0.28235294 0.30980392
v -0.11912133 0.13557283 0.08555920 0.94901961 0.28235294 0.30980392
v -0.15587979 0.12276133 0.12976075 0.94901961 0.28235294 0.30980392
v -0.11901226 0.14379428 0.13200073 0.94901961 0.28235294 0.30980392
v -0.14716691 0.12962150 0.12219923 0.94901961 0.28235294 0.30980392
v -0.14616280 0.13008582 0.13123053 0.94901961 0.28235294 0.30980392
v -0.16583840 0.07982398 0.13544918 0.94901961 0.28235294 0.30980392
v -0.13030930 0.12331238 0.13518340 0.94901961 0.38039216 0.28235294
v -0.13036595 0.08021817 0.13885654 0.94901961 0.38039216 0.28235294
v -0.13507860 0.13390217 0.11604822 0.94901961 0.38039216 0.28235294
v -0.17430052 0.10676178 0.07857886 0.94901961 0.38039216 0.28235294
v -0.22961750 0.07977375 0.14331333 0.94901961 0.38039216 0.28235294
v -0.16399410 0.11183564 0.08447596 0.94901961 0.38039216 0.28235294
v -0.21181034 0.07678654 0.14437242 0.94901961 0.38039216 0.28235294
v -0.19207393 0.11211164 0.13199671 0.94901961 0.38039216 0.28235294
v -0.22673170 0.07868376 0.08390338 0.94901961 0.38039216 0.28235294
v -0.14974732 0.12151591 0.13277390 0.94901961 0.38039216 0.28235294
v -0.20626111 0.10790420 0.12412851 0.94901961 0.38039216 0.28235294
v -0.20048735 0.10110202 0.08741328 0.94901961 0.38039216 0.28235294
v -0.23039298 0.09170006 0.12644264 0.94901961 0.38039216 0.28235294
v -0.22413074 0.08399236 0.08460412 0.94901961 0.38039216 0.28235294
v -0.22992271 0.08160563 0.12020212 0.94901961 0.38039216 0.28235294
v -0.22708358 0.09521716 0.13387499 0.94901961 0.38039216 0.28235294
v -0.22635071 0.09645360 0.13032845 0.94901961 0.38039216 0.28235294
v -0.23111869 0.08402362 0.14014733 0.94901961 0.38039216 0.28235294
v -0.20520129 0.10735850 0.13105429 0.94901961 0.38039216 0.28235294
v -0.21900663 0.08814850 0.08584773 0.94901961 0.38039216 0.28235294
v -0.23037459 0.09000293 0.13682930 0.94901961 0.38039216 0.28235294
v 0.09674199 0.15124495 0.00510845 0.94901961 0.50588235 0.28235294
v 0.16272371 0.02985826 0.01064812 0.94901961 0.50588235 0.28235294
v 0.10380744 0.14661085 -0.03093244 0.94901961 0.50588235 0.28235294
v 0.11486039 0.13189964 -0.12893500 0.94901961 0.50588235 0.28235294
v 0.09786679 0.01620472 -0.12323580 0.94901961 0.50588235 0.28235294
v 0.17054207 0.03071023 -0.11996008 0.94901961 0.50588235 0.28235294
v 0.09621542 0.16537837 -0.08768057 0.94901961 0.50588235 0.28235294
v 0.12426878 0.10447640 0.00400618 0.94901961 0.50588235 0.28235294
v 0.09786679 0.01620472 0.00526080 0.94901961 0.50588235 0.28235294
v 0.14103527 0.08455810 -0.13175668 0.94901961 0.50588235 0.28235294
v 0.09449960 0.15705676 -0.00223594 0.94901961 0.50588235 0.28235294
v 0.09786679 0.07331432 -0.13037450 0.94901961 0.50588235 0.28235294
v 0.16703534 0.02550293 -0.03724001 0.94901961 0.50588235 0.28235294
v 0.14730932 0.07293463 -0.13047495 0.94901961 0.50588235 0.28235294
v 0.12173476 0.12030452 -0.13094336 0.94901961 0.50588235 0.28235294
v 0.09449362 0.16423870 -0.05215836 0.94901961 0.50588235 0.28235294
v 0.12608145 0.11234965 -0.13058843 0.94901961 0.50588235 0.28235294
v -0.05204592 -0.11229189 0.01239950 0.94901961 0.62745098 0.28235294
v -0.05204592 -0.16226279 0.01239950 0.94901961 0.62745098 0.28235294
v -0.05250263 -0.11251094 -0.16246395 0.94901961 0.62745098 0.28235294
v -0.10579750 -0.10941812 -0.16915267 0.94901961 0.62745098 0.28235294
v -0.12047886 -0.11050183 0.01286189 0.94901961 0.62745098 0.28235294
v -0.04836858 -0.21573528 -0.14733592 0.94901961 0.62745098 0.28235294
v -0.11870158 -0.10821084 -0.01549476 0.94901961 0.62745098 0.28235294
v -0.09399309 -0.15775320 0.01316475 0.94901961 0.62745098 0.28235294
v -0.05286593 -0.18901951 -0.15817718 0.94901961 0.62745098 0.28235294
v -0.05257917 -0.21889748 -0.10749777 0.94901961 0.62745098 0.28235294
v -0.04886104 -0.22185699 -0.10888579 0.94901961 0.62745098 0.28235294
v -0.11103934 -0.10892481 -0.12262731 0.94901961 0.62745098 0.28235294
v -0.11731467 -0.11592519 0.01329475 0.94901961 0.62745098 0.28235294
v -0.05709243 -0.18855346 -0.15729002 0.94901961 0.62745098 0.28235294
v -0.07420062 -0.14613929 -0.16532315 0.94901961 0.62745098 0.28235294
v -0.05147722 -0.21434141 -0.14590779 0.94901961 0.62745098 0.28235294
v -0.05411803 -0.21897574 -0.08790520 0.94901961 0.62745098 0.28235294
v -0.06823372 -0.11199420 -0.16559622 0.94901961 0.62745098 0.28235294
v -0.10341525 -0.11653235 -0.16641729 0.94901961 0.62745098 0.28235294
v -0.08652129 -0.15666386 -0.10729717 0.94901961 0.62745098 0.28235294
v -0.05215648 -0.21822968 -0.07324453 0.94901961 0.62745098 0.28235294
v -0.09368496 -0.13572859 -0.15790203 0.94901961 0.62745098 0.28235294
v -0.05522612 -0.21719837 -0.07346213 0.94901961 0.62745098 0.28235294
v 0.12642159 0.01620472 0.02667690 0.94901961 0.75294118 0.28235294
v 0.12419074 -0.11466314 0.02593316 0.94901961 0.75294118 0.28235294
v 0.12725316 0.01809552 -0.15327479 0.94901961 0.75294118 0.28235294
v 0.00404956 0.01665541 -0.16924476 0.94901961 0.75294118 0.28235294
v 0.00506369 0.01620472 0.02667690 0.94901961 0.75294118 0.28235294
v 0.00259919 -0.20133182 -0.14459723 0.94901961 0.75294118 0.28235294
v 0.12690209 -0.08874266 -0.14415584 0.94901961 0.75294118 0.28235294
v 0.00363479 -0.17407297 0.02623922 0.94901961 0.75294118 0.28235294
v 0.08934405 0.01795277 -0.15974426 0.94901961 0.75294118 0.28235294
v 0.12728424 0.01084525 -0.15134554 0.94901961 0.75294118 0.28235294
v 0.12294940 -0.14151057 -0.13241016 0.94901961 0.75294118 0.28235294
v 0.00383602 -0.16183104 -0.15168924 0.94901961 0.75294118 0.28235294
v 0.00506369 -0.09087579 0.02667690 0.94901961 0.75294118 0.28235294
v 0.00100949 -0.17740180 0.01818901 0.94901961 0.75294118 0.28235294
v 0.11714720 -0.13718205 -0.13689792 0.94901961 0.75294118 0.28235294
v 0.00406012 -0.02661084 -0.16620241 0.94901961 0.75294118 0.28235294
v 0.01511240 -0.19736400 -0.12611414 0.94901961 0.75294118 0.28235294
v 0.01468044 -0.17525044 0.00313710 0.94901961 0.75294118 0.28235294
v 0.02268303 -0.19105803 -0.14405394 0.94901961 0.75294118 0.28235294
v 0.00255996 -0.19871370 -0.10949532 0.94901961 0.75294118 0.28235294
v 0.00942004 -0.20023686 -0.14300062 0.94901961 0.75294118 0.28235294
v 0.12231711 -0.13179420 -0.06086408 0.94901961 0.75294118 0.28235294
v 0.00220741 -0.18490313 -0.01732534 0.94901961 0.75294118 0.28235294
v 0.10040595 -0.15382412 -0.12774402 0.94901961 0.75294118 0.28235294
v 0.01587628 -0.19687392 -0.14257117 0.94901961 0.75294118 0.28235294
v 0.05771076 -0.15322233 0.00303853 0.94901961 0.75294118 0.28235294
v -0.01852559 -0.14889615 0.19899797 0.94901961 0.87843137 0.28235294
v 0.00371843 -0.14400469 0.18171392 0.94901961 0.87843137 0.28235294
v -0.10309003 -0.14354945 0.17336581 0.94901961 0.87843137 0.28235294
v -0.10680712 -0.14666267 0.11232976 0.94901961 0.87843137 0.28235294
v -0.06905011 -0.19872729 0.11115889 0.94901961 0.87843137 0.28235294
v -0.05371015 -0.17374063 0.19634403 0.94901961 0.87843137 0.28235294
v 0.00765680 -0.16001884 0.09922816 0.94901961 0.87843137 0.28235294
v -0.08749354 -0.19075625 0.15500726 0.94901961 0.87843137 0.28235294
v -0.03491639 -0.16404244 0.19763622 0.94901961 0.87843137 0.28235294
v -0.09842352 -0.14877744 0.19023003 0.94901961 0.87843137 0.28235294
v -0.02397112 -0.17561137 0.09790608 0.94901961 0.87843137 0.28235294
v 0.00929030 -0.15598025 0.11383255 0.94901961 0.87843137 0.28235294
v -0.10022815 -0.16539858 0.15218787 0.94901961 0.87843137 0.28235294
v -0.08630920 -0.19280610 0.11331314 0.94901961 0.87843137 0.28235294
v -0.07601907 -0.18961982 0.16558363 0.94901961 0.87843137 0.28235294
v -0.01892107 -0.14982049 0.19911461 0.94901961 0.87843137 0.28235294
v -0.04237261 -0.16886748 0.19480937 0.94901961 0.87843137 0.28235294
v 0.00221333 -0.16330453 0.09659296 0.94901961 0.87843137 0.28235294
v 0.00071158 -0.15360078 0.15335604 0.94901961 0.87843137 0.28235294
v -0.09671927 -0.15869211 0.19002332 0.94901961 0.87843137 0.28235294
v -0.08232886 -0.19730072 0.11156560 0.94901961 0.87843137 0.28235294
v -0.09448619 -0.17903356 0.11617460 0.94901961 0.87843137 0.28235294
v -0.07617903 -0.19764229 0.13221411 0.94901961 0.87843137 0.28235294
v -0.07190623 -0.17528482 0.19704445 0.94901961 0.87843137 0.28235294
v -0.04196654 -0.15296648 0.19799146 0.94901961 0.87843137 0.28235294
v -0.00649721 -0.16034678 0.13938955 0.94901961 0.87843137 0.28235294
v -0.01227393 -0.17009253 0.09676393 0.94901961 0.87843137 0.28235294
v 0.00128418 -0.14666256 0.17853932 0.94901961 0.87843137 0.28235294
v -0.09428599 -0.16541964 0.18635047 0.94901961 0.87843137 0.28235294
v -0.08326736 -0.19642203 0.12016335 0.94901961 0.87843137 0.28235294
v -0.08090773 -0.18878182 0.16710764 0.94901961 0.87843137 0.28235294
v -0.06983020 -0.18888426 0.16174889 0.94901961 0.87843137 0.28235294
v -0.07088126 -0.18043336 0.19536656 0.94901961 0.87843137 0.28235294
v -0.07158888 -0.16551970 0.19648973 0.94901961 0.87843137 0.28235294
v -0.07810688 -0.19719450 0.13161996 0.94901961 0.87843137 0.28235294
v -0.08273885 -0.17774937 0.19061519 0.94901961 0.87843137 0.28235294
v -0.08795398 -0.17166944 0.19046190 0.94901961 0.87843137 0.28235294
v 0.00506369 -0.00521139 0.01239950 0.89411765 0.94901961 0.28235294
v 0.00506369 -0.11229189 0.01239950 0.89411765 0.94901961 0.28235294
v 0.00419547 -0.00500604 -0.16704381 0.89411765 0.94901961 0.28235294
v -0.16199469 -0.00101338 -0.18806991 0.89411765 0.94901961 0.28235294
v -0.17874659 -0.00424979 0.01252658 0.89411765 0.94901961 0.28235294
v -0.06823372 -0.11199420 -0.16559622 0.89411765 0.94901961 0.28235294
v -0.12235938 -0.10749504 0.01339079 0.89411765 0.94901961 0.28235294
v -0.17501962 -0.00205253 -0.05159486 0.89411765 0.94901961 0.28235294
v 0.00415217 -0.11158365 -0.15379108 0.89411765 0.94901961 0.28235294
v -0.13440079 -0.02542261 -0.18698051 0.89411765 0.94901961 0.28235294
v -0.17280290 -0.01486078 0.01271612 0.89411765 0.94901961 0.28235294
v -0.10824660 -0.10665438 -0.16805183 0.89411765 0.94901961 0.28235294
v -0.15770932 -0.02197242 -0.17137814 0.89411765 0.94901961 0.28235294
v -0.03185977 -0.02607983 -0.17220936 0.89411765 0.94901961 0.28235294
v -0.13217580 -0.00727434 -0.18660786 0.89411765 0.94901961 0.28235294
v -0.08980254 -0.10425826 -0.17170552 0.89411765 0.94901961 0.28235294
v -0.10612886 -0.10186573 -0.17239328 0.89411765 0.94901961 0.28235294
v -0.12206804 -0.08661645 -0.16486321 0.89411765 0.94901961 0.28235294
v -0.16793355 -0.00222697 -0.13595930 0.89411765 0.94901961 0.28235294
v 0.00346250 -0.03945648 -0.16454270 0.89411765 0.94901961 0.28235294
v -0.03157981 -0.00549192 -0.17251431 0.89411765 0.94901961 0.28235294
v -0.13796768 -0.05061121 -0.17888383 0.89411765 0.94901961 0.28235294
v -0.14825823 -0.02309585 -0.18598666 0.89411765 0.94901961 0.28235294
v -0.01009296 -0.10450272 -0.15814004 0.89411765 0.94901961 0.28235294
v -0.12966518 -0.07106462 -0.17181039 0.89411765 0.94901961 0.28235294
v -0.15953716 -0.00757454 -0.18646359 0.89411765 0.94901961 0.28235294
v -0.15121966 -0.02845797 -0.18021304 0.89411765 0.94901961 0.28235294
v -0.15783842 -0.01486664 -0.18236338 0.89411765 0.94901961 0.28235294
v -0.13594091 -0.07221322 0.18030119 0.76862745 0.94901961 0.28235294
v -0.12747412 -0.10369070 0.16071474 0.76862745 0.94901961 0.28235294
v -0.13057162 -0.00521139 0.01239950 0.76862745 0.94901961 0.28235294
v -0.17874659 -0.00424979 0.01252658 0.76862745 0.94901961 0.28235294
v -0.18488146 -0.00325727 0.16055357 0.76862745 0.94901961 0.28235294
v -0.12841332 -0.09679627 0.01282001 0.76862745 0.94901961 0.28235294
v -0.13065589 -0.00498286 0.14977943 0.76862745 0.94901961 0.28235294
v -0.13981346 -0.07791875 0.17847063 0.76862745 0.94901961 0.28235294
v -0.18197275 -0.00250615 0.04155243 0.76862745 0.94901961 0.28235294
v -0.13657817 -0.09384764 0.14283027 0.76862745 0.94901961 0.28235294
v -0.13509158 -0.08049862 0.18009077 0.76862745 0.94901961 0.28235294
v -0.15954331 -0.03152385 0.17153119 0.76862745 0.94901961 0.28235294
v -0.17924432 -0.00789962 0.04202656 0.76862745 0.94901961 0.28235294
v -0.12831043 -0.10453015 0.08400088 0.76862745 0.94901961 0.28235294
v -0.13617517 -0.09228528 0.15875962 0.76862745 0.94901961 0.28235294
v -0.14093618 -0.06742852 0.17954606 0.76862745 0.94901961 0.28235294
v -0.17346569 -0.00895658 0.16446883 0.76862745 0.94901961 0.28235294
v -0.13019155 -0.09375620 0.01316292 0.76862745 0.94901961 0.28235294
v -0.16493093 -0.04350006 0.13946137 0.76862745 0.94901961 0.28235294
v -0.13029218 -0.10153041 0.15787610 0.76862745 0.94901961 0.28235294
v -0.17587096 -0.01802485 0.16485449 0.76862745 0.94901961 0.28235294
v -0.17920635 -0.00406643 0.16223184 0.76862745 0.94901961 0.28235294
v -0.16162049 -0.03868881 0.17126418 0.76862745 0.94901961 0.28235294
v -0.16445572 -0.03017205 0.17058915 0.76862745 0.94901961 0.28235294
v 0.06975042 0.20528008 0.00705340 0.64313725 0.94901961 0.28235294
v 0.09786679 0.01620472 0.00526080 0.64313725 0.94901961 0.28235294
v 0.09351877 0.17133208 -0.08798817 0.64313725 0.94901961 0.28235294
v 0.00780913 0.17258205 -0.08564411 0.64313725 0.94901961 0.28235294
v 0.00506369 0.01620472 0.00526080 0.64313725 0.94901961 0.28235294
v 0.07346727 0.20163635 -0.08828774 0.64313725 0.94901961 0.28235294
v 0.09077695 0.16232643 0.00440477 0.64313725 0.94901961 0.28235294
v 0.03768665 0.20147515 0.00727225 0.64313725 0.94901961 0.28235294
v 0.00506369 0.01620472 -0.08754230 0.64313725 0.94901961 0.28235294
v 0.08383615 0.19070135 -0.08780339 0.64313725 0.94901961 0.28235294
v 0.07500675 0.19759558 -0.00989117 0.64313725 0.94901961 0.28235294
v 0.00625169 0.18473676 0.00552112 0.64313725 0.94901961 0.28235294
v 0.05238659 0.20662793 -0.00710908 0.64313725 0.94901961 0.28235294
v 0.09786679 0.01620472 -0.08754230 0.64313725 0.94901961 0.28235294
v 0.06559411 0.21092696 0.00538908 0.64313725 0.94901961 0.28235294
v 0.08881145 0.16882866 -0.00965687 0.64313725 0.94901961 0.28235294
v 0.08199855 0.19065107 -0.05946351 0.64313725 0.94901961 0.28235294
v 0.03061700 0.18593332 -0.07133898 0.64313725 0.94901961 0.28235294
v 0.05202403 0.20867989 0.00651333 0.64313725 0.94901961 0.28235294
v 0.06747616 0.20873560 -0.02891659 0.64313725 0.94901961 0.28235294
v 0.07137639 0.20139165 -0.08644644 0.64313725 0.94901961 0.28235294
v 0.06476697 0.20852415 -0.02893065 0.64313725 0.94901961 0.28235294
v -0.04423612 0.14331953 -0.09419189 0.51764706 0.94901961 0.28235294
v -0.04490722 0.09473042 -0.09468100 0.51764706 0.94901961 0.28235294
v -0.03985999 0.09100287 -0.18344040 0.51764706 0.94901961 0.28235294
v -0.10071135 0.09273910 -0.19008813 0.51764706 0.94901961 0.28235294
v -0.10945838 0.10908979 -0.09783071 0.51764706 0.94901961 0.28235294
v -0.06410837 0.11588440 -0.18414191 0.51764706 0.94901961 0.28235294
v -0.04192312 0.13789526 -0.12127771 0.51764706 0.94901961 0.28235294
v -0.09782012 0.11625496 -0.09310286 0.51764706 0.94901961 0.28235294
v -0.06693721 0.09459635 -0.18985180 0.51764706 0.94901961 0.28235294
v -0.09820646 0.10071001 -0.17919717 0.51764706 0.94901961 0.28235294
v -0.04366148 0.12751706 -0.15889180 0.51764706 0.94901961 0.28235294
v -0.05573042 0.13837179 -0.09268005 0.51764706 0.94901961 0.28235294
v -0.06476600 0.11255082 -0.18729581 0.51764706 0.94901961 0.28235294
v -0.08390223 0.10695935 -0.18509180 0.51764706 0.94901961 0.28235294
v -0.09950156 0.09621371 -0.18853540 0.51764706 0.94901961 0.28235294
v -0.04157725 0.13082950 -0.14981777 0.51764706 0.94901961 0.28235294
v -0.06993754 0.11344966 -0.18517663 0.51764706 0.94901961 0.28235294
v 0.18087142 -0.03769649 0.20970333 0.39215686 0.94901961 0.28235294
v 0.19007214 -0.04850746 0.18404263 0.39215686 0.94901961 0.28235294
v 0.16959464 0.01254562 0.02506234 0.39215686 0.94901961 0.28235294
v 0.11928289 0.01620472 0.02667690 0.39215686 0.94901961 0.28235294
v 0.11589972 -0.11313917 0.05348997 0.39215686 0.94901961 0.28235294
v 0.14500981 0.01691723 0.19064494 0.39215686 0.94901961 0.28235294
v 0.16076830 0.01125246 0.18635854 0.39215686 0.94901961 0.28235294
v 0.11767193 -0.08559140 0.18783925 0.39215686 0.94901961 0.28235294
v 0.21154165 -0.06777225 0.02586026 0.39215686 0.94901961 0.28235294
v 0.18926365 -0.04358222 0.18299312 0.39215686 0.94901961 0.28235294
v 0.15603972 0.01229324 0.19203092 0.39215686 0.94901961 0.28235294
v 0.17149755 -0.06753402 0.15317731 0.39215686 0.94901961 0.28235294
v 0.18603772 -0.05135355 0.19307025 0.39215686 0.94901961 0.28235294
v 0.11853655 -0.08030616 0.19381259 0.39215686 0.94901961 0.28235294
v 0.11614745 -0.09214857 0.16736011 0.39215686 0.94901961 0.28235294
v 0.21041909 -0.05951554 0.03344811 0.39215686 0.94901961 0.28235294
v 0.11839454 -0.11626291 0.02618787 0.39215686 0.94901961 0.28235294
v 0.18286953 -0.03793389 0.20355109 0.39215686 0.94901961 0.28235294
v 0.12961331 -0.11217708 0.02549670 0.39215686 0.94901961 0.28235294
v 0.20676432 -0.06790268 0.04688236 0.39215686 0.94901961 0.28235294
v 0.19741003 -0.05425276 0.14030541 0.39215686 0.94901961 0.28235294
v 0.12082584 0.01579324 0.17688751 0.39215686 0.94901961 0.28235294
v 0.18083140 -0.05290870 0.19422028 0.39215686 0.94901961 0.28235294
v 0.14227247 -0.07529930 0.18546699 0.39215686 0.94901961 0.28235294
v 0.21081439 -0.05954050 0.02590076 0.39215686 0.94901961 0.28235294
v 0.19672999 -0.04908783 0.14055368 0.39215686 0.94901961 0.28235294
v 0.11632112 -0.09920535 0.13313890 0.39215686 0.94901961 0.28235294
v 0.18521794 -0.05423784 0.18292168 0.39215686 0.94901961 0.28235294
v 0.20868238 -0.07000713 0.02610682 0.39215686 0.94901961 0.28235294
v 0.19221198 -0.05454583 0.16052321 0.39215686 0.94901961 0.28235294
v 0.21085001 -0.06741168 0.03272173 0.39215686 0.94901961 0.28235294
v 0.12243918 -0.08393083 0.18675463 0.39215686 0.94901961 0.28235294
v 0.12892530 -0.08926150 0.15321090 0.39215686 0.94901961 0.28235294
v 0.20452264 -0.06227585 0.08197313 0.39215686 0.94901961 0.28235294
v 0.00564386 -0.00580124 0.16429344 0.28235294 0.94901961 0.29803922
v 0.00510155 -0.04808461 0.16912612 0.28235294 0.94901961 0.29803922
v 0.00506369 -0.04804359 0.10520261 0.28235294 0.94901961 0.29803922
v -0.13057162 -0.00521139 0.10520261 0.28235294 0.94901961 0.29803922
v -0.15224741 -0.01970914 0.15483899 0.28235294 0.94901961 0.29803922
v 0.00506369 -0.00521139 0.10520261 0.28235294 0.94901961 0.29803922
v -0.15193755 -0.00495055 0.14938336 0.28235294 0.94901961 0.29803922
v -0.15152856 -0.05879835 0.10206208 0.28235294 0.94901961 0.29803922
v -0.15352615 -0.00659394 0.15019835 0.28235294 0.94901961 0.29803922
v -0.13126980 -0.04893592 0.15796077 0.28235294 0.94901961 0.29803922
v -0.05839838 -0.04899882 0.16238383 0.28235294 0.94901961 0.29803922
v -0.10730762 0.14112802 0.08459052 0.28235294 0.94901961 0.41960784
v -0.10915552 -0.00521139 0.08378651 0.28235294 0.94901961 0.41960784
v -0.10599590 0.12513415 -0.00784426 0.28235294 0.94901961 0.41960784
v -0.21136115 0.07351672 -0.00764692 0.28235294 0.94901961 0.41960784
v -0.22413074 0.08399236 0.08460412 0.28235294 0.94901961 0.41960784
v -0.10915552 -0.00521139 -0.00901660 0.28235294 0.94901961 0.41960784
v -0.10586654 0.13825189 0.06333021 0.28235294 0.94901961 0.41960784
v -0.21900663 0.08814850 0.08584773 0.28235294 0.94901961 0.41960784
v -0.18244703 -0.00265070 0.08392820 0.28235294 0.94901961 0.41960784
v -0.21022174 0.05543539 -0.00891525 0.28235294 0.94901961 0.41960784
v -0.11322504 0.13827638 0.08493731 0.28235294 0.94901961 0.41960784
v -0.19355619 0.10173507 0.08573233 0.28235294 0.94901961 0.41960784
v -0.22335532 0.07008728 0.08401123 0.28235294 0.94901961 0.41960784
v -0.17858455 -0.00063638 -0.00790073 0.28235294 0.94901961 0.41960784
v -0.21089177 0.08573533 0.04994531 0.28235294 0.94901961 0.41960784
v -0.22281686 0.07059184 0.04893663 0.28235294 0.94901961 0.41960784
v -0.18615466 0.00634831 0.04124514 0.28235294 0.94901961 0.41960784
v -0.21545926 0.06621068 -0.00151547 0.28235294 0.94901961 0.41960784
v -0.21578038 0.06288234 0.00581998 0.28235294 0.94901961 0.41960784
v -0.22249925 0.07732317 0.04952102 0.28235294 0.94901961 0.41960784
v -0.21566387 0.07039706 -0.00057135 0.28235294 0.94901961 0.41960784
v -0.22358018 0.07971952 0.06487038 0.28235294 0.94901961 0.41960784
v -0.17358745 -0.00839819 0.16422506 0.28235294 0.94901961 0.54509804
v -0.16894954 -0.00722282 0.15925145 0.28235294 0.94901961 0.54509804
v -0.16583840 0.07982398 0.13544918 0.28235294 0.94901961 0.54509804
v -0.17430052 0.10676178 0.07857886 0.28235294 0.94901961 0.54509804
v -0.17776020 -0.01135390 0.08323546 0.28235294 0.94901961 0.54509804
v -0.23233313 0.08452641 0.12928528 0.28235294 0.94901961 0.54509804
v -0.20759890 0.04642401 0.15914881 0.28235294 0.94901961 0.54509804
v -0.22961750 0.07977375 0.14331333 0.28235294 0.94901961 0.54509804
v -0.22673170 0.07868376 0.08390338 0.28235294 0.94901961 0.54509804
v -0.20844068 0.06825872 0.14804561 0.28235294 0.94901961 0.54509804
v -0.22937349 0.07341494 0.14378471 0.28235294 0.94901961 0.54509804
v -0.21577713 0.05681785 0.08356792 0.28235294 0.94901961 0.54509804
v -0.22051801 0.06950258 0.14865004 0.28235294 0.94901961 0.54509804
v -0.18488146 -0.00325727 0.16055357 0.28235294 0.94901961 0.54509804
v -0.22335532 0.07008728 0.08401123 0.28235294 0.94901961 0.54509804
v 0.00506369 -0.11229189 -0.07326490 0.28235294 0.94901961 0.67058824
v 0.00274801 -0.19227084 -0.07409899 0.28235294 0.94901961 0.67058824
v 0.00415217 -0.11158365 -0.15379108 0.28235294 0.94901961 0.67058824
v -0.05250263 -0.11251094 -0.16246395 0.28235294 0.94901961 0.67058824
v -0.05204592 -0.11229189 -0.07326490 0.28235294 0.94901961 0.67058824
v -0.03425734 -0.22587441 -0.14299660 0.28235294 0.94901961 0.67058824
v 0.00424332 -0.16819946 -0.15111998 0.28235294 0.94901961 0.67058824
v -0.05215648 -0.21822968 -0.07324453 0.28235294 0.94901961 0.67058824
v -0.03187265 -0.11135637 -0.15911605 0.28235294 0.94901961 0.67058824
v 0.00219051 -0.20413318 -0.14180735 0.28235294 0.94901961 0.67058824
v -0.05335517 -0.18344944 -0.15949727 0.28235294 0.94901961 0.67058824
v -0.03477016 -0.22542942 -0.12672484 0.28235294 0.94901961 0.67058824
v 0.00259919 -0.20133182 -0.14459723 0.28235294 0.94901961 0.67058824
v -0.04781806 -0.22098738 -0.14520262 0.28235294 0.94901961 0.67058824
v -0.05284151 -0.21831033 -0.08056539 0.28235294 0.94901961 0.67058824
v -0.04556100 -0.21778406 -0.08089786 0.28235294 0.94901961 0.67058824
v 0.00129667 -0.20453569 -0.12632952 0.28235294 0.94901961 0.67058824
v -0.01946974 -0.20889231 -0.14943766 0.28235294 0.94901961 0.67058824
v -0.01366022 -0.21281310 -0.14411222 0.28235294 0.94901961 0.67058824
v -0.04661390 -0.22557886 -0.12408577 0.28235294 0.94901961 0.67058824
v -0.02254518 -0.21852409 -0.12656813 0.28235294 0.94901961 0.67058824
v -0.03256714 -0.21478616 -0.15064281 0.28235294 0.94901961 0.67058824
v -0.02067641 -0.21776281 -0.14302333 0.28235294 0.94901961 0.67058824
v -0.04194061 -0.22681731 -0.14320476 0.28235294 0.94901961 0.67058824
v -0.04648223 -0.22597466 -0.13602182 0.28235294 0.94901961 0.67058824
v -0.04252232 -0.21576943 -0.14977304 0.28235294 0.94901961 0.67058824
v -0.02713348 -0.22024992 -0.14443793 0.28235294 0.94901961 0.67058824
v -0.04898384 -0.20859833 -0.15058273 0.28235294 0.94901961 0.67058824
v -0.15198772 0.03048212 -0.10181970 0.28235294 0.94901961 0.79607843
v -0.16655936 -0.01317287 -0.10365584 0.28235294 0.94901961 0.79607843
v -0.15153239 -0.00405111 -0.19081492 0.28235294 0.94901961 0.79607843
v -0.17757717 0.03333641 -0.19408009 0.28235294 0.94901961 0.79607843
v -0.19059228 0.03271687 -0.10155988 0.28235294 0.94901961 0.79607843
v -0.16522933 -0.00095615 -0.18443862 0.28235294 0.94901961 0.79607843
v -0.15340844 0.03252738 -0.19452111 0.28235294 0.94901961 0.79607843
v -0.17296848 -0.00133993 -0.10106718 0.28235294 0.94901961 0.79607843
v -0.16199469 -0.00101338 -0.18806991 0.28235294 0.94901961 0.79607843
v -0.18272727 0.03470719 -0.19086715 0.28235294 0.94901961 0.79607843
v -0.16511370 0.02439991 -0.19460710 0.28235294 0.94901961 0.79607843
v -0.18768587 0.02721223 -0.10127873 0.28235294 0.94901961 0.79607843
v -0.18931558 0.03357505 -0.12258014 0.28235294 0.94901961 0.79607843
v -0.17581323 0.02748831 -0.19294924 0.28235294 0.94901961 0.79607843
v -0.17090563 0.01333736 -0.18944146 0.28235294 0.94901961 0.79607843
v -0.17938628 0.02788193 -0.19014052 0.28235294 0.94901961 0.79607843
v 0.00722329 0.18283878 -0.00792110 0.28235294 0.94901961 0.92156863
v 0.00506369 -0.00521139 -0.00901660 0.28235294 0.94901961 0.92156863
v 0.00506369 -0.00521139 -0.09468100 0.28235294 0.94901961 0.92156863
v -0.09782012 0.11625496 -0.09310286 0.28235294 0.94901961 0.92156863
v -0.10201682 -0.00521139 -0.00901660 0.28235294 0.94901961 0.92156863
v 0.00709743 0.16910577 -0.09301864 0.28235294 0.94901961 0.92156863
v -0.09761390 0.13021026 -0.00744803 0.28235294 0.94901961 0.92156863
v -0.10201682 -0.00521139 -0.09468100 0.28235294 0.94901961 0.92156863
v 0.00789671 0.17351250 -0.07962863 0.28235294 0.94901961 0.92156863
v 0.00141093 0.18022989 -0.00731281 0.28235294 0.94901961 0.92156863
v -0.09866461 0.12128169 -0.06466114 0.28235294 0.94901961 0.92156863
v 0.00781541 0.18146825 -0.01466670 0.28235294 0.94901961 0.92156863
v -0.04782961 0.14250622 -0.09177762 0.28235294 0.94901961 0.92156863
v -0.04059498 0.15732456 -0.02926863 0.28235294 0.94901961 0.92156863
v -0.04637183 0.15054539 -0.05715106 0.28235294 0.94901961 0.92156863
v -0.09088100 0.12170284 -0.08604311 0.28235294 0.94901961 0.92156863
v 0.01055349 -0.17303953 0.01578118 0.28235294 0.85098039 0.94901961
v 0.00247127 -0.17872323 0.01088485 0.28235294 0.85098039 0.94901961
v 0.01722852 -0.18466435 -0.07013585 0.28235294 0.85098039 0.94901961
v -0.08562734 -0.16109578 -0.07297529 0.28235294 0.85098039 0.94901961
v -0.09222142 -0.16084645 0.01263377 0.28235294 0.85098039 0.94901961
v 0.00131366 -0.18138952 0.00279680 0.28235294 0.85098039 0.94901961
v -0.06737712 -0.20922104 0.01236056 0.28235294 0.85098039 0.94901961
v -0.08912902 -0.15926708 -0.05147862 0.28235294 0.85098039 0.94901961
v -0.04885106 -0.20403776 0.01054405 0.28235294 0.85098039 0.94901961
v -0.08927576 -0.16641476 0.01289353 0.28235294 0.85098039 0.94901961
v -0.05736365 -0.21350619 -0.07277888 0.28235294 0.85098039 0.94901961
v -0.00659585 -0.18351165 0.01131180 0.28235294 0.85098039 0.94901961
v 0.00069987 -0.18916649 -0.03896351 0.28235294 0.85098039 0.94901961
v 0.00274801 -0.19227084 -0.07409899 0.28235294 0.85098039 0.94901961
v -0.04241608 -0.21347213 -0.07405968 0.28235294 0.85098039 0.94901961
v -0.01344658 -0.18855195 0.00326600 0.28235294 0.85098039 0.94901961
v -0.05423013 -0.21045274 -0.00866512 0.28235294 0.85098039 0.94901961
v -0.01991492 -0.19568943 -0.01774079 0.28235294 0.85098039 0.94901961
v -0.06240147 -0.21186043 -0.00867436 0.28235294 0.85098039 0.94901961
v -0.05055652 -0.21112757 -0.02488800 0.28235294 0.85098039 0.94901961
v -0.04301034 -0.21120975 -0.05337153 0.28235294 0.85098039 0.94901961
v 0.00506369 0.05189822 -0.09468100 0.28235294 0.72549020 0.94901961
v 0.00506369 -0.00521139 -0.09468100 0.28235294 0.72549020 0.94901961
v 0.00473285 0.05182993 -0.17142659 0.28235294 0.72549020 0.94901961
v -0.04506714 0.05207895 -0.17885181 0.28235294 0.72549020 0.94901961
v -0.04490722 0.05189822 -0.09468100 0.28235294 0.72549020 0.94901961
v -0.03157981 -0.00549192 -0.17251431 0.28235294 0.72549020 0.94901961
v -0.00325717 0.05195200 -0.17272751 0.28235294 0.72549020 0.94901961
v 0.00419547 -0.00500604 -0.16704381 0.28235294 0.72549020 0.94901961
v -0.04575783 -0.00509752 -0.17470548 0.28235294 0.72549020 0.94901961
v -0.01071008 0.00383986 -0.17164070 0.28235294 0.72549020 0.94901961
v -0.04490722 -0.00521139 -0.09468100 0.28235294 0.72549020 0.94901961
v -0.00354058 0.02413497 -0.17175397 0.28235294 0.72549020 0.94901961
v -0.04490722 -0.00521139 -0.13037450 0.28235294 0.72549020 0.94901961
v 0.00506369 -0.11229189 0.01239950 0.28235294 0.60000000 0.94901961
v 0.01055349 -0.17303953 0.01578118 0.28235294 0.60000000 0.94901961
v 0.01722852 -0.18466435 -0.07013585 0.28235294 0.60000000 0.94901961
v -0.05204592 -0.11229189 -0.07326490 0.28235294 0.60000000 0.94901961
v -0.05204592 -0.16226279 0.01239950 0.28235294 0.60000000 0.94901961
v 0.00506369 -0.11229189 -0.07326490 0.28235294 0.60000000 0.94901961
v -0.05204592 -0.11229189 0.01239950 0.28235294 0.60000000 0.94901961
v -0.05204592 -0.16226279 -0.07326490 0.28235294 0.60000000 0.94901961
v -0.00207502 -0.16226279 -0.07326490 0.28235294 0.60000000 0.94901961
f 7 1 3
f 8 3 1
f 9 6 2
f 10 2 6
f 12 5 7
f 14 7 5
f 14 1 7
f 15 8 1
f 15 1 2
f 16 6 11
f 16 11 3
f 17 11 6
f 18 12 7
f 18 7 4
f 18 17 12
f 18 11 17
f 19 9 5
f 19 5 12
f 19 12 6
f 19 6 9
f 20 13 7
f 20 7 3
f 20 3 11
f 20 11 18
f 20 18 4
f 20 4 13
f 21 13 4
f 21 4 7
f 21 7 13
f 22 14 5
f 22 5 9
f 22 9 2
f 22 2 1
f 22 1 14
f 23 2 10
f 24 10 6
f 24 6 16
f 24 16 3
f 24 23 10
f 25 17 6
f 25 6 12
f 25 12 17
f 26 23 15
f 26 15 2
f 26 2 23
f 27 3 8
f 27 24 3
f 28 27 8
f 28 8 15
f 28 15 23
f 28 23 27
f 29 27 23
f 29 23 24
f 29 24 27
f 38 31 35
f 38 36 31
f 40 36 30
f 40 30 31
f 40 31 36
f 41 36 34
f 41 34 37
f 42 33 34
f 43 35 31
f 44 37 34
f 45 32 36
f 45 36 38
f 45 39 32
f 45 38 35
f 45 35 39
f 46 39 33
f 46 33 32
f 46 32 39
f 47 30 36
f 47 36 41
f 47 41 37
f 47 37 43
f 47 43 31
f 47 31 30
f 48 42 36
f 48 36 32
f 49 32 33
f 49 33 42
f 49 48 32
f 49 42 48
f 50 42 34
f 50 34 36
f 50 36 42
f 51 43 37
f 51 35 43
f 51 44 35
f 51 37 44
f 52 44 34
f 52 34 33
f 52 33 39
f 53 39 35
f 53 35 44
f 53 52 39
f 53 44 52
f 59 58 57
f 60 54 55
f 61 58 55
f 61 55 54
f 62 59 57
f 62 57 56
f 64 59 62
f 64 63 59
f 64 55 63
f 65 61 56
f 65 56 57
f 65 57 58
f 65 58 61
f 66 56 61
f 66 61 54
f 66 54 60
f 67 63 55
f 67 55 58
f 67 58 63
f 68 63 58
f 68 58 59
f 68 59 63
f 70 66 60
f 70 56 66
f 71 69 60
f 71 60 55
f 71 55 64
f 71 64 69
f 72 69 64
f 72 64 62
f 73 69 72
f 73 72 62
f 73 62 56
f 74 73 56
f 75 60 69
f 75 69 73
f 75 73 74
f 76 74 56
f 76 56 70
f 76 75 74
f 76 70 60
f 76 60 75
f 85 78 77
f 86 80 79
f 87 78 85
f 88 79 80
f 90 77 78
f 92 77 90
f 93 87 85
f 93 82 87
f 93 86 82
f 93 81 86
f 94 86 79
f 94 82 86
f 94 78 82
f 95 87 82
f 95 82 78
f 95 78 87
f 96 84 83
f 96 92 84
f 97 86 81
f 97 81 92
f 97 92 96
f 97 89 80
f 97 80 86
f 99 84 79
f 99 91 83
f 99 83 84
f 100 83 91
f 101 79 88
f 101 100 91
f 101 99 79
f 101 91 99
f 102 92 81
f 102 77 92
f 102 93 77
f 102 81 93
f 103 92 90
f 103 90 84
f 103 84 92
f 104 93 85
f 104 85 77
f 104 77 93
f 105 94 79
f 105 79 84
f 105 84 90
f 105 90 94
f 106 94 90
f 106 90 78
f 106 78 94
f 107 96 83
f 107 83 89
f 107 97 96
f 107 89 97
f 108 98 88
f 108 88 80
f 108 80 98
f 109 98 80
f 109 80 89
f 109 89 98
f 110 98 89
f 110 89 83
f 110 100 98
f 110 83 100
f 111 88 98
f 111 98 100
f 111 101 88
f 111 100 101
f 117 115 112
f 117 112 113
f 117 113 114
f 118 113 112
f 118 112 116
f 119 116 112
f 119 112 115
f 119 115 116
f 121 117 114
f 121 115 117
f 122 118 116
f 122 113 118
f 122 120 113
f 123 113 120
f 124 116 115
f 124 115 121
f 125 123 121
f 125 121 114
f 126 114 113
f 126 113 123
f 126 125 114
f 126 123 125
f 127 124 121
f 128 122 116
f 128 116 124
f 128 120 122
f 129 123 120
f 129 120 127
f 129 127 121
f 129 121 123
f 130 128 124
f 130 124 127
f 131 130 127
f 131 127 120
f 131 120 128
f 131 128 130
f 137 134 133
f 138 133 134
f 139 136 133
f 139 133 132
f 139 132 136
f 142 138 134
f 143 136 132
f 143 132 133
f 143 133 138
f 144 140 137
f 146 134 137
f 146 137 140
f 146 145 134
f 146 140 145
f 148 142 134
f 148 135 142
f 149 138 142
f 149 143 138
f 149 136 143
f 150 135 145
f 151 144 137
f 151 137 133
f 151 133 141
f 151 141 144
f 152 134 145
f 155 149 142
f 155 142 135
f 155 136 149
f 156 140 144
f 156 144 150
f 156 150 145
f 156 145 140
f 157 144 141
f 158 152 145
f 158 145 135
f 158 135 148
f 158 148 134
f 158 134 152
f 159 153 141
f 159 136 153
f 159 141 133
f 159 133 136
f 160 153 136
f 161 155 135
f 161 135 150
f 161 154 155
f 161 157 147
f 161 150 144
f 161 144 157
f 162 147 157
f 162 157 141
f 162 141 153
f 163 160 136
f 163 136 155
f 163 155 154
f 163 154 160
f 164 153 160
f 165 161 147
f 165 154 161
f 165 147 164
f 165 164 160
f 165 160 154
f 166 164 147
f 166 153 164
f 166 162 153
f 166 147 162
f 173 172 167
f 175 169 170
f 175 173 169
f 175 172 173
f 176 175 170
f 176 172 175
f 177 173 167
f 177 167 168
f 179 168 167
f 179 177 168
f 179 174 173
f 179 173 177
f 180 172 176
f 181 180 170
f 181 171 180
f 182 170 169
f 182 169 173
f 182 173 178
f 183 174 171
f 184 179 167
f 184 167 172
f 184 172 180
f 184 180 171
f 184 171 174
f 184 174 179
f 185 180 176
f 185 176 170
f 185 170 180
f 186 181 170
f 186 170 182
f 187 178 173
f 187 173 174
f 187 174 183
f 188 183 171
f 188 171 181
f 188 187 183
f 189 186 182
f 189 182 178
f 190 178 187
f 190 189 178
f 190 186 189
f 191 188 181
f 191 187 188
f 191 190 187
f 191 181 186
f 191 186 190
f 204 198 192
f 204 194 198
f 204 199 194
f 207 192 201
f 207 204 192
f 207 199 204
f 207 200 193
f 207 193 199
f 208 195 201
f 208 205 195
f 208 197 205
f 208 201 192
f 208 192 198
f 209 201 196
f 209 207 201
f 209 200 207
f 210 201 195
f 210 195 202
f 210 196 201
f 213 202 195
f 213 195 205
f 213 205 197
f 214 194 206
f 215 206 197
f 215 214 206
f 215 198 194
f 215 194 214
f 215 208 198
f 215 197 208
f 216 206 194
f 216 199 193
f 216 193 211
f 216 197 206
f 217 209 196
f 217 196 203
f 217 203 209
f 218 209 203
f 218 203 211
f 218 200 209
f 218 211 193
f 218 193 200
f 219 211 203
f 219 203 196
f 219 210 202
f 219 202 212
f 219 212 197
f 219 197 211
f 220 212 202
f 220 202 213
f 220 213 197
f 220 197 212
f 221 216 194
f 221 194 199
f 221 199 216
f 222 216 211
f 222 211 197
f 222 197 216
f 223 219 196
f 223 196 210
f 223 210 219
f 229 227 224
f 229 224 225
f 229 225 226
f 230 225 224
f 233 229 226
f 233 227 229
f 234 230 224
f 234 224 227
f 234 228 230
f 235 231 226
f 235 226 225
f 236 234 227
f 238 232 227
f 238 227 233
f 239 235 225
f 239 230 228
f 239 225 230
f 240 227 232
f 241 228 234
f 241 234 236
f 241 239 228
f 242 232 238
f 242 238 233
f 242 233 226
f 243 226 231
f 244 236 227
f 244 227 240
f 244 240 232
f 245 235 239
f 245 239 241
f 246 241 236
f 246 236 231
f 246 231 235
f 246 245 241
f 246 235 245
f 247 242 226
f 247 237 242
f 247 243 237
f 248 243 231
f 248 231 236
f 248 244 243
f 248 236 244
f 249 244 232
f 249 232 242
f 250 247 226
f 250 226 243
f 250 243 247
f 251 249 242
f 251 242 237
f 251 244 249
f 251 237 243
f 251 243 244
f 258 256 253
f 259 255 256
f 261 259 257
f 261 255 259
f 262 254 257
f 263 252 256
f 263 256 258
f 264 259 256
f 264 256 252
f 265 258 253
f 265 263 258
f 265 264 252
f 265 252 263
f 266 256 260
f 267 260 256
f 267 256 255
f 267 255 260
f 269 261 257
f 269 257 254
f 269 254 268
f 270 266 262
f 270 253 256
f 270 256 266
f 270 265 253
f 271 265 259
f 271 259 264
f 271 264 265
f 272 269 268
f 272 255 261
f 272 261 269
f 273 266 260
f 273 262 266
f 273 268 254
f 273 254 262
f 274 259 265
f 274 265 270
f 275 270 262
f 275 262 257
f 275 274 270
f 275 257 259
f 275 259 274
f 276 272 268
f 276 260 255
f 276 255 272
f 277 273 260
f 277 268 273
f 277 276 268
f 277 260 276
f 283 281 280
f 285 279 280
f 285 280 278
f 285 282 279
f 286 283 280
f 286 280 279
f 286 279 282
f 287 286 282
f 287 283 286
f 288 278 280
f 289 280 281
f 289 288 280
f 289 284 288
f 290 285 278
f 291 283 287
f 293 282 285
f 293 285 290
f 293 287 282
f 294 290 278
f 295 291 287
f 295 287 281
f 295 281 291
f 296 291 281
f 296 281 283
f 296 283 291
f 297 289 281
f 297 284 289
f 298 281 287
f 298 287 292
f 299 293 290
f 299 297 292
f 300 294 278
f 300 278 288
f 301 290 294
f 301 284 297
f 301 299 290
f 301 297 299
f 302 297 281
f 302 281 298
f 302 298 292
f 302 292 297
f 303 299 292
f 303 292 287
f 303 287 293
f 303 293 299
f 304 300 288
f 304 288 284
f 304 284 301
f 304 301 294
f 304 294 300
f 311 307 310
f 312 309 306
f 313 307 306
f 313 306 309
f 314 307 313
f 314 310 307
f 316 306 307
f 316 307 311
f 316 311 315
f 316 315 305
f 318 317 312
f 318 308 317
f 318 315 311
f 318 305 315
f 319 314 313
f 319 313 309
f 319 309 314
f 320 314 308
f 320 310 314
f 321 306 316
f 321 316 305
f 322 312 317
f 323 314 309
f 323 322 317
f 323 309 312
f 323 312 322
f 323 317 308
f 323 308 314
f 324 318 311
f 324 311 310
f 324 320 318
f 324 310 320
f 325 318 312
f 325 305 318
f 325 312 306
f 325 306 321
f 326 320 308
f 326 308 318
f 326 318 320
f 327 325 321
f 327 321 305
f 327 305 325
f 328 329 330
f 332 329 328
f 335 330 329
f 335 333 330
f 335 331 333
f 335 334 331
f 336 328 330
f 336 330 333
f 337 332 328
f 338 333 331
f 338 331 334
f 339 335 329
f 339 329 332
f 339 332 335
f 340 335 332
f 340 334 335
f 341 328 336
f 342 336 333
f 342 333 338
f 342 341 336
f 342 338 341
f 343 340 332
f 343 332 337
f 344 328 341
f 345 341 338
f 345 338 334
f 345 344 341
f 346 343 337
f 346 334 343
f 346 345 334
f 346 344 345
f 346 337 328
f 346 328 344
f 347 343 334
f 347 334 340
f 347 340 343
f 348 349 350
f 353 350 349
f 353 349 351
f 353 351 350
f 354 349 348
f 354 348 352
f 355 352 348
f 356 354 352
f 356 351 349
f 356 349 354
f 357 355 348
f 357 348 350
f 357 350 355
f 358 355 350
f 359 358 350
f 359 350 351
f 361 359 351
f 361 351 356
f 361 356 360
f 362 360 356
f 362 356 352
f 364 361 360
f 364 358 359
f 364 360 363
f 365 362 352
f 365 360 362
f 366 363 355
f 366 355 358
f 366 364 363
f 366 358 364
f 367 364 359
f 367 359 361
f 367 361 364
f 368 363 360
f 368 360 365
f 368 355 363
f 368 365 352
f 368 352 355
f 375 371 374
f 376 369 370
f 376 374 371
f 376 370 374
f 377 370 369
f 379 376 371
f 379 369 376
f 379 377 369
f 379 373 377
f 380 375 372
f 381 374 370
f 381 370 377
f 381 377 373
f 381 373 374
f 382 378 374
f 382 374 373
f 382 380 378
f 382 373 380
f 383 372 375
f 383 380 372
f 383 378 380
f 384 379 371
f 384 371 375
f 384 373 379
f 384 380 373
f 384 375 380
f 385 374 378
f 385 378 383
f 385 383 375
f 385 375 374
f 391 388 386
f 392 386 388
f 392 390 386
f 393 387 386
f 394 388 391
f 396 391 386
f 396 386 387
f 397 392 388
f 397 388 389
f 397 390 392
f 398 393 386
f 398 386 390
f 398 390 393
f 399 394 391
f 399 389 394
f 400 394 389
f 400 388 394
f 401 396 395
f 401 391 396
f 401 399 391
f 401 389 399
f 402 393 390
f 402 395 396
f 403 400 389
f 403 389 388
f 403 388 400
f 404 397 389
f 404 389 401
f 405 402 390
f 405 390 397
f 405 397 404
f 405 395 402
f 406 402 396
f 406 396 387
f 406 387 393
f 407 404 401
f 407 401 395
f 407 405 404
f 407 395 405
f 408 406 393
f 408 393 402
f 408 402 406
f 413 409 411
f 415 409 410
f 416 410 409
f 417 413 411
f 417 412 413
f 417 411 415
f 418 415 411
f 418 411 409
f 418 409 415
f 419 415 410
f 421 416 409
f 421 409 413
f 421 413 416
f 422 416 413
f 422 413 412
f 422 412 414
f 423 415 419
f 424 420 414
f 424 414 412
f 424 412 417
f 424 417 415
f 424 415 420
f 426 410 416
f 426 416 422
f 427 423 419
f 427 414 420
f 427 420 415
f 427 415 423
f 428 422 414
f 429 414 427
f 429 428 414
f 429 425 428
f 430 419 410
f 430 426 425
f 431 426 422
f 431 425 426
f 431 428 425
f 431 422 428
f 432 429 419
f 432 425 429
f 432 430 425
f 432 419 430
f 433 429 427
f 433 427 419
f 433 419 429
f 434 430 410
f 434 410 426
f 434 426 430
f 435 436 437
f 437 436 438
f 444 435 437
f 446 441 438
f 446 438 436
f 447 437 438
f 450 443 436
f 450 436 435
f 451 443 440
f 452 441 439
f 452 438 441
f 453 441 446
f 453 443 451
f 453 446 436
f 454 444 437
f 454 437 447
f 455 445 439
f 455 448 438
f 455 438 445
f 456 447 438
f 456 438 448
f 456 448 442
f 456 442 447
f 457 455 439
f 458 440 443
f 458 443 450
f 458 444 454
f 459 450 435
f 459 435 444
f 459 458 450
f 460 451 439
f 460 439 441
f 460 453 451
f 460 441 453
f 461 452 439
f 461 439 445
f 461 445 438
f 461 438 452
f 462 453 436
f 462 436 443
f 462 443 453
f 463 454 447
f 463 447 442
f 464 442 448
f 464 448 455
f 465 457 449
f 465 442 457
f 466 449 457
f 466 451 440
f 466 457 439
f 466 439 451
f 467 440 458
f 467 466 440
f 467 449 466
f 467 465 449
f 468 459 444
f 468 444 458
f 468 458 459
f 469 457 442
f 469 442 464
f 469 464 455
f 469 455 457
f 470 442 465
f 470 465 467
f 470 467 458
f 471 463 442
f 471 442 470
f 471 454 463
f 471 470 458
f 471 458 454
f 472 473 474
f 472 474 475
f 478 473 472
f 478 477 473
f 479 476 472
f 479 472 475
f 480 474 473
f 480 473 477
f 482 478 472
f 482 472 476
f 482 476 478
f 483 477 478
f 484 478 476
f 484 476 479
f 486 481 475
f 487 477 483
f 487 481 485
f 487 480 477
f 488 487 483
f 488 481 487
f 489 483 478
f 489 478 484
f 490 484 479
f 490 479 475
f 490 475 484
f 491 485 474
f 491 474 480
f 491 487 485
f 492 485 481
f 492 474 485
f 492 481 486
f 492 486 475
f 492 475 474
f 493 488 483
f 494 475 481
f 494 481 488
f 494 488 493
f 495 491 480
f 495 480 487
f 495 487 491
f 496 493 483
f 496 483 489
f 496 489 484
f 497 494 493
f 497 475 494
f 498 497 493
f 498 493 496
f 498 496 484
f 499 484 475
f 499 475 497
f 499 498 484
f 499 497 498
f 505 502 501
f 505 503 502
f 506 501 502
f 508 502 503
f 508 506 502
f 508 504 506
f 510 506 500
f 510 501 506
f 510 507 501
f 511 500 506
f 512 508 503
f 513 505 501
f 515 510 500
f 515 507 510
f 515 500 511
f 516 511 506
f 517 512 503
f 517 503 505
f 517 513 512
f 517 505 513
f 518 504 508
f 518 508 512
f 518 514 504
f 518 509 514
f 518 513 509
f 518 512 513
f 519 513 501
f 519 509 513
f 519 514 509
f 519 501 507
f 519 507 514
f 520 514 507
f 520 504 514
f 521 516 506
f 521 506 504
f 522 520 507
f 522 507 515
f 523 504 520
f 523 521 504
f 523 511 516
f 523 516 521
f 523 520 522
f 523 522 515
f 523 515 511
f 530 524 525
f 530 525 526
f 531 528 525
f 531 525 524
f 532 525 528
f 532 527 529
f 533 526 529
f 534 524 530
f 534 533 524
f 535 531 527
f 535 528 531
f 535 532 528
f 535 527 532
f 537 526 525
f 537 525 532
f 537 532 529
f 537 529 526
f 538 524 533
f 539 534 530
f 539 530 526
f 539 526 534
f 540 534 526
f 540 526 533
f 540 533 534
f 542 527 531
f 542 531 524
f 542 524 538
f 542 541 527
f 542 536 541
f 543 538 533
f 543 533 529
f 544 529 527
f 544 527 541
f 545 542 538
f 545 538 543
f 545 543 529
f 545 529 544
f 545 536 542
f 545 544 541
f 545 541 536
f 548 547 549
f 550 549 547
f 552 546 547
f 552 547 548
f 552 551 546
f 553 550 547
f 554 548 549
f 555 550 553
f 557 553 547
f 557 547 546
f 557 555 553
f 558 548 554
f 558 556 548
f 558 551 556
f 558 554 549
f 559 555 557
f 560 549 550
f 560 550 555
f 560 555 559
f 560 558 549
f 561 552 548
f 561 548 556
f 561 556 551
f 561 551 552
f 562 551 558
f 562 560 559
f 562 558 560
f 562 546 551
f 562 559 557
f 562 557 546
f 568 565 566
f 569 565 568
f 573 569 568
f 573 568 563
f 573 563 569
f 575 564 563
f 576 563 568
f 577 566 567
f 578 565 569
f 579 567 566
f 580 572 569
f 580 569 563
f 580 563 564
f 580 564 572
f 581 567 579
f 581 565 571
f 581 579 566
f 581 566 565
f 582 574 581
f 584 576 568
f 584 568 566
f 584 570 576
f 584 577 570
f 584 566 577
f 585 575 563
f 585 563 576
f 585 576 570
f 585 570 575
f 587 578 571
f 587 571 565
f 587 565 578
f 588 578 569
f 588 569 572
f 588 583 578
f 588 572 564
f 588 564 583
f 589 577 567
f 589 567 581
f 590 574 582
f 590 575 586
f 591 582 581
f 591 581 571
f 592 583 564
f 592 564 575
f 592 590 582
f 592 575 590
f 593 571 578
f 593 578 583
f 593 591 571
f 593 582 591
f 594 586 575
f 594 575 570
f 594 570 577
f 594 577 586
f 595 586 577
f 595 590 586
f 595 574 590
f 595 577 589
f 595 589 581
f 595 581 574
f 596 592 582
f 596 582 593
f 596 593 583
f 596 583 592
f 597 598 599
f 601 598 597
f 602 597 599
f 603 602 600
f 603 597 602
f 604 599 598
f 604 602 599
f 604 600 602
f 605 601 597
f 605 597 603
f 605 604 601
f 605 603 600
f 605 600 604
f 606 598 601
f 606 601 604
f 607 606 604
f 607 604 598
f 607 598 606
f 613 610 609
f 614 608 609
f 614 609 610
f 615 611 612
f 616 609 615
f 616 613 609
f 617 611 610
f 617 610 613
f 618 609 608
f 619 608 614
f 619 614 610
f 619 610 611
f 619 618 608
f 619 615 609
f 619 609 618
f 620 616 615
f 620 615 612
f 621 617 613
f 621 613 616
f 622 619 611
f 622 611 615
f 622 615 619
f 623 616 620
f 624 621 616
f 624 616 623
f 625 611 617
f 626 624 623
f 626 617 621
f 626 621 624
f 626 625 617
f 626 623 625
f 627 612 611
f 628 625 623
f 628 623 627
f 628 627 611
f 628 611 625
f 629 627 623
f 629 612 627
f 629 623 620
f 629 620 612
f 630 631 632
f 634 631 630
f 634 632 631
f 634 633 632
f 636 630 632
f 637 632 633
f 637 633 635
f 638 635 633
f 639 636 632
f 639 632 637
f 640 637 635
f 640 636 637
f 640 635 638
f 641 638 633
f 641 633 634
f 642 639 637
f 642 637 636
f 642 636 639
f 643 640 634
f 643 634 630
f 643 630 636
f 643 636 640
f 644 640 638
f 644 638 641
f 644 641 634
f 644 634 640
f 651 645 646
f 651 647 645
f 652 646 645
f 652 645 649
f 653 649 645
f 653 645 647
f 653 647 648
f 653 648 649
f 655 648 647
f 655 647 651
f 655 649 648
f 657 651 646
f 657 646 654
f 659 652 649
f 659 649 655
f 659 655 658
f 660 656 646
f 660 646 652
f 660 652 656
f 661 654 646
f 661 650 654
f 662 655 651
f 662 651 657
f 663 657 654
f 663 662 657
f 664 656 652
f 664 652 659
f 665 661 646
f 665 646 656
f 665 656 650
f 665 650 661
f 666 655 662
f 667 663 654
f 667 654 650
f 667 650 663
f 668 650 656
f 668 656 664
f 668 666 650
f 669 664 659
f 669 659 658
f 669 668 664
f 669 658 668
f 670 655 666
f 670 668 658
f 670 666 668
f 671 663 650
f 671 650 666
f 671 666 662
f 671 662 663
f 672 670 658
f 672 658 655
f 672 655 670
f 673 674 675
f 678 675 674
f 679 673 675
f 680 674 673
f 681 675 678
f 682 679 676
f 682 673 679
f 683 679 675
f 683 675 676
f 683 676 679
f 684 680 673
f 684 673 677
f 684 677 680
f 685 678 674
f 685 674 680
f 685 680 677
f 685 677 673
f 685 673 682
f 686 676 675
f 686 675 681
f 686 682 676
f 687 681 678
f 687 686 681
f 688 685 682
f 688 678 685
f 688 687 678
f 688 682 686
f 688 686 687
f 693 691 690
f 695 693 690
f 696 691 693
f 696 694 691
f 696 692 694
f 697 690 691
f 697 691 694
f 698 695 690
f 698 690 689
f 698 689 697
f 699 692 696
f 699 696 693
f 699 693 695
f 700 697 689
f 700 689 690
f 700 690 697
f 701 697 694
f 701 694 692
f 702 698 697
f 702 695 698
f 703 697 701
f 703 702 697
f 703 699 695
f 703 695 702
f 704 703 701
f 704 701 692
f 704 692 699
f 704 699 703
f 705 707 708
f 710 705 706
f 710 707 705
f 712 709 705
f 712 705 708
f 712 711 709
f 713 705 711
f 714 711 705
f 714 705 709
f 714 709 711
f 715 712 708
f 715 711 712
f 716 706 705
f 716 705 713
f 716 710 706
f 717 707 710
f 718 708 707
f 718 707 717
f 719 715 708
f 719 708 718
f 719 718 717
f 720 716 713
f 720 710 716
f 721 713 711
f 721 720 713
f 722 717 710
f 722 710 720
f 722 721 717
f 722 720 721
f 723 721 711
f 723 711 715
f 723 715 719
f 724 717 721
f 724 723 719
f 724 721 723
f 725 724 719
f 725 719 717
f 725 717 724
f 726 727 728
f 730 727 726
f 730 726 729
f 732 726 728
f 732 729 726
f 733 728 727
f 733 727 731
f 734 730 729
f 735 733 731
f 735 731 734
f 735 734 729
f 736 731 727
f 736 727 730
f 736 730 734
f 737 732 728
f 737 728 733
f 737 733 735
f 737 735 729
f 737 729 732
f 738 736 734
f 738 734 731
f 738 731 736
f 739 740 741
f 743 741 740
f 744 739 741
f 744 742 739
f 745 743 740
f 745 740 739
f 745 739 742
f 745 742 743
f 746 743 742
f 746 741 743
f 746 742 744
f 747 746 744
f 747 744 741
f 747 741 746

