# https://github.com/mikedh/trimesh
v 0.17597986 -0.08318899 -0.15748124 0.28235294 0.47843137 0.94901961
v 0.17159839 -0.26259904 -0.15748127 0.28235294 0.47843137 0.94901961
v 0.17038790 -0.26259904 -0.17444872 0.28235294 0.47843137 0.94901961
v 0.16049624 -0.08318899 -0.17471033 0.28235294 0.47843137 0.94901961
v 0.16049624 -0.26312555 -0.15748127 0.28235294 0.47843137 0.94901961
v 0.17047434 -0.08319578 -0.17448847 0.28235294 0.47843137 0.94901961
v 0.17112127 -0.26259904 -0.17356116 0.28235294 0.47843137 0.94901961
v 0.16049624 -0.26259904 -0.17466240 0.28235294 0.47843137 0.94901961
v 0.17303470 -0.08321424 -0.17159334 0.28235294 0.47843137 0.94901961
v 0.17557737 0.05301841 -0.13543384 0.28235294 0.35294118 0.94901961
v 0.17410746 0.00539620 -0.14366538 0.28235294 0.35294118 0.94901961
v 0.17556531 0.05145837 -0.17429626 0.28235294 0.35294118 0.94901961
v 0.14059593 0.05208105 -0.17483020 0.28235294 0.35294118 0.94901961
v 0.13837388 0.05267605 -0.13535891 0.28235294 0.35294118 0.94901961
v 0.14494648 0.00539516 -0.17471033 0.28235294 0.35294118 0.94901961
v 0.17045441 0.00539551 -0.17449253 0.28235294 0.35294118 0.94901961
v 0.14367234 0.00539516 -0.17240331 0.28235294 0.35294118 0.94901961
v 0.17304272 0.00539642 -0.17157550 0.28235294 0.35294118 0.94901961
v 0.14302746 0.00539476 -0.14366538 0.28235294 0.35294118 0.94901961
v 0.17762258 0.07867953 0.18102187 0.33725490 0.28235294 0.94901961
v 0.17674911 0.07659067 0.18102187 0.33725490 0.28235294 0.94901961
v 0.17594033 0.04993540 0.14721106 0.33725490 0.28235294 0.94901961
v 0.16603259 0.08483188 0.14702676 0.33725490 0.28235294 0.94901961
v 0.16602785 0.08177890 0.17498050 0.33725490 0.28235294 0.94901961
v 0.17349961 0.08386166 0.14702456 0.33725490 0.28235294 0.94901961
v 0.17225164 0.05355327 0.17489570 0.33725490 0.28235294 0.94901961
v 0.17448225 0.07979454 0.18121872 0.33725490 0.28235294 0.94901961
v 0.16606801 0.04775941 0.14213527 0.33725490 0.28235294 0.94901961
v 0.16602065 0.08427216 0.17218881 0.33725490 0.28235294 0.94901961
v 0.16575352 0.05017178 0.17540903 0.33725490 0.28235294 0.94901961
v 0.17445003 0.08127519 0.17216782 0.33725490 0.28235294 0.94901961
v 0.17517802 0.07552913 0.18102187 0.33725490 0.28235294 0.94901961
v 0.00547397 0.08483200 -0.08550664 0.46274510 0.28235294 0.94901961
v 0.00547397 0.05270377 -0.08550664 0.46274510 0.28235294 0.94901961
v 0.00541977 0.05384488 -0.17491681 0.46274510 0.28235294 0.94901961
v -0.08311066 0.08184520 -0.17437906 0.46274510 0.28235294 0.94901961
v -0.08311018 0.08483200 -0.08550664 0.46274510 0.28235294 0.94901961
v -0.08311018 0.05270377 -0.15194476 0.46274510 0.28235294 0.94901961
v 0.00548255 0.08427216 -0.17173636 0.46274510 0.28235294 0.94901961
v -0.03066337 0.05330371 -0.18064074 0.46274510 0.28235294 0.94901961
v -0.08311018 0.05270377 -0.08550664 0.46274510 0.28235294 0.94901961
v -0.08311133 0.08427216 -0.17173949 0.46274510 0.28235294 0.94901961
v -0.08311126 0.05384488 -0.17488499 0.46274510 0.28235294 0.94901961
v 0.00547743 0.08184836 -0.17437759 0.46274510 0.28235294 0.94901961
v -0.03558831 0.05369477 -0.18042243 0.46274510 0.28235294 0.94901961
v -0.03215977 0.05635648 -0.18042243 0.46274510 0.28235294 0.94901961
v -0.03383679 0.05578502 -0.18042243 0.46274510 0.28235294 0.94901961
v 0.17010278 0.05085520 0.17489570 0.58823529 0.28235294 0.94901961
v 0.17278430 -0.21606522 0.17073809 0.58823529 0.28235294 0.94901961
v 0.17414362 0.03307660 0.14426482 0.58823529 0.28235294 0.94901961
v 0.13975636 0.05083146 0.14700197 0.58823529 0.28235294 0.94901961
v 0.14494648 -0.19946084 0.17394405 0.58823529 0.28235294 0.94901961
v 0.14291416 -0.21606522 0.14426482 0.58823529 0.28235294 0.94901961
v 0.17594033 0.04993540 0.14721106 0.58823529 0.28235294 0.94901961
v 0.16945120 -0.19935132 0.17443795 0.58823529 0.28235294 0.94901961
v 0.13957718 0.05245560 0.17431716 0.58823529 0.28235294 0.94901961
v 0.17353847 -0.21606522 0.14426482 0.58823529 0.28235294 0.94901961
v 0.14291416 0.03307771 0.14426482 0.58823529 0.28235294 0.94901961
v 0.14391155 -0.21606522 0.17189836 0.58823529 0.28235294 0.94901961
v 0.17415718 0.05205927 0.17178787 0.58823529 0.28235294 0.94901961
v 0.14434631 0.05072421 0.17495457 0.58823529 0.28235294 0.94901961
v 0.14989556 -0.20496071 0.17435832 0.58823529 0.28235294 0.94901961
v 0.16596141 -0.20496104 0.17442047 0.58823529 0.28235294 0.94901961
v -0.12740729 0.08218476 0.17489570 0.71372549 0.28235294 0.94901961
v -0.12743966 0.05384488 0.17550464 0.71372549 0.28235294 0.94901961
v -0.12740226 0.05270377 0.09719817 0.71372549 0.28235294 0.94901961
v -0.17366311 0.08469483 0.09719538 0.71372549 0.28235294 0.94901961
v -0.17361456 0.05016182 0.17226531 0.71372549 0.28235294 0.94901961
v -0.12740226 0.08483200 0.09719817 0.71372549 0.28235294 0.94901961
v -0.15163306 0.05333576 0.18102187 0.71372549 0.28235294 0.94901961
v -0.16959441 0.08427216 0.17489570 0.71372549 0.28235294 0.94901961
v -0.17361456 0.05321907 0.09720199 0.71372549 0.28235294 0.94901961
v -0.14706279 0.05291136 0.18103924 0.71372549 0.28235294 0.94901961
v -0.17043317 0.08110568 0.17489570 0.71372549 0.28235294 0.94901961
v -0.14849007 0.05629008 0.18102187 0.71372549 0.28235294 0.94901961
v -0.16992683 0.08427216 0.17324151 0.71372549 0.28235294 0.94901961
v -0.15016805 0.05585116 0.18102187 0.71372549 0.28235294 0.94901961
v 0.17410624 -0.17177477 -0.14366538 0.83529412 0.28235294 0.94901961
v 0.17462486 -0.24928428 -0.15748127 0.83529412 0.28235294 0.94901961
v 0.17587255 -0.17177320 -0.16285448 0.83529412 0.28235294 0.94901961
v 0.16049624 -0.17177314 -0.17471033 0.83529412 0.28235294 0.94901961
v 0.16049624 -0.23821126 -0.14201177 0.83529412 0.28235294 0.94901961
v 0.16049624 -0.24928428 -0.17471033 0.83529412 0.28235294 0.94901961
v 0.17331393 -0.23821126 -0.14366538 0.83529412 0.28235294 0.94901961
v 0.16049623 -0.17177314 -0.14184227 0.83529412 0.28235294 0.94901961
v 0.17462331 -0.24928428 -0.16301380 0.83529412 0.28235294 0.94901961
v 0.16049624 -0.26312555 -0.15748127 0.83529412 0.28235294 0.94901961
v 0.17350221 0.08386420 -0.08550831 0.94901961 0.28235294 0.93333333
v 0.17557737 0.05313583 -0.08550818 0.94901961 0.28235294 0.93333333
v 0.17557737 0.08005665 -0.17429626 0.94901961 0.28235294 0.93333333
v 0.00547743 0.08184836 -0.17437759 0.94901961 0.28235294 0.93333333
v 0.00547397 0.05270377 -0.08550664 0.94901961 0.28235294 0.93333333
v 0.08060625 0.08427216 -0.17429626 0.94901961 0.28235294 0.93333333
v 0.00547397 0.08483200 -0.08550664 0.94901961 0.28235294 0.93333333
v 0.17556531 0.05145837 -0.17429626 0.94901961 0.28235294 0.93333333
v 0.17491343 0.08116872 -0.17161588 0.94901961 0.28235294 0.93333333
v 0.07755858 0.08427216 -0.17471628 0.94901961 0.28235294 0.93333333
v 0.00541977 0.05384488 -0.17491681 0.94901961 0.28235294 0.93333333
v 0.00548255 0.08427216 -0.17173636 0.94901961 0.28235294 0.93333333
v 0.09408782 0.05384488 -0.17489420 0.94901961 0.28235294 0.93333333
v -0.08311018 0.08483200 -0.08550664 0.94901961 0.28235294 0.80784314
v -0.08311018 0.05270377 -0.08550664 0.94901961 0.28235294 0.80784314
v -0.08311126 0.05384488 -0.17488499 0.94901961 0.28235294 0.80784314
v -0.17361456 0.08036156 -0.17429626 0.94901961 0.28235294 0.80784314
v -0.17365391 0.08469930 -0.08550766 0.94901961 0.28235294 0.80784314
v -0.17164912 0.05018810 -0.17371214 0.94901961 0.28235294 0.80784314
v -0.08311133 0.08427216 -0.17173949 0.94901961 0.28235294 0.80784314
v -0.17361456 0.05324724 -0.08552057 0.94901961 0.28235294 0.80784314
v -0.08311066 0.08184520 -0.17437906 0.94901961 0.28235294 0.80784314
v -0.10268056 0.08394310 -0.17429626 0.94901961 0.28235294 0.80784314
v -0.17361456 0.08098569 -0.17203371 0.94901961 0.28235294 0.80784314
v -0.14172034 0.03308230 -0.14366538 0.94901961 0.28235294 0.68627451
v -0.14235617 -0.26259904 -0.14366538 0.94901961 0.28235294 0.68627451
v -0.14262476 -0.26259904 -0.17437864 0.94901961 0.28235294 0.68627451
v -0.17081217 0.03307771 -0.17429626 0.94901961 0.28235294 0.68627451
v -0.17397257 0.03307771 -0.14344137 0.94901961 0.28235294 0.68627451
v -0.14260511 0.03307771 -0.17441063 0.94901961 0.28235294 0.68627451
v -0.17390103 -0.26259904 -0.14348710 0.94901961 0.28235294 0.68627451
v -0.15508481 -0.26259904 -0.17466240 0.94901961 0.28235294 0.68627451
v -0.17361456 0.03307771 -0.17186114 0.94901961 0.28235294 0.68627451
v -0.17361456 -0.26259904 -0.17107733 0.94901961 0.28235294 0.68627451
v -0.17019560 -0.26259904 -0.17429626 0.94901961 0.28235294 0.68627451
v -0.14612457 0.03308140 0.17489570 0.94901961 0.28235294 0.56078431
v -0.14295298 -0.21606522 0.17328731 0.94901961 0.28235294 0.56078431
v -0.14162173 0.03308347 0.14426482 0.94901961 0.28235294 0.56078431
v -0.17391821 0.03307771 0.14395422 0.94901961 0.28235294 0.56078431
v -0.17361456 -0.21606522 0.17212244 0.94901961 0.28235294 0.56078431
v -0.14281842 0.03307959 0.17315316 0.94901961 0.28235294 0.56078431
v -0.16926314 -0.20496033 0.17377028 0.94901961 0.28235294 0.56078431
v -0.17361456 0.03307771 0.17212244 0.94901961 0.28235294 0.56078431
v -0.14167759 -0.21606522 0.14426482 0.94901961 0.28235294 0.56078431
v -0.14512412 -0.20493712 0.17377668 0.94901961 0.28235294 0.56078431
v -0.17051278 0.03307798 0.17489570 0.94901961 0.28235294 0.56078431
v -0.17391821 -0.21606522 0.14395422 0.94901961 0.28235294 0.56078431
v -0.17051274 0.00539495 0.17489570 0.94901961 0.28235294 0.56078431
v 0.16049623 -0.03336040 -0.14184227 0.94901961 0.28235294 0.43529412
v 0.17462486 -0.23821126 -0.15748127 0.94901961 0.28235294 0.43529412
v 0.17597986 -0.03336040 -0.15748127 0.94901961 0.28235294 0.43529412
v 0.14233011 -0.03336040 -0.15748127 0.94901961 0.28235294 0.43529412
v 0.14303660 -0.23821126 -0.14366538 0.94901961 0.28235294 0.43529412
v 0.16049624 -0.23821126 -0.14201177 0.94901961 0.28235294 0.43529412
v 0.14302801 -0.03336114 -0.14366538 0.94901961 0.28235294 0.43529412
v 0.14233011 -0.23821126 -0.15748127 0.94901961 0.28235294 0.43529412
v 0.16602785 0.08177890 0.17498050 0.94901961 0.28235294 0.30980392
v 0.16575352 0.05017178 0.17540903 0.94901961 0.28235294 0.30980392
v 0.16606801 0.04775941 0.14213527 0.94901961 0.28235294 0.30980392
v 0.09959463 0.08483200 0.14702676 0.94901961 0.28235294 0.30980392
v 0.09959546 0.05384488 0.17552955 0.94901961 0.28235294 0.30980392
v 0.16603259 0.08483188 0.14702676 0.94901961 0.28235294 0.30980392
v 0.09959366 0.08178010 0.17498260 0.94901961 0.28235294 0.30980392
v 0.09959463 0.05270377 0.14702676 0.94901961 0.28235294 0.30980392
v 0.09959216 0.08427216 0.17220105 0.94901961 0.28235294 0.30980392
v 0.16602065 0.08427216 0.17218881 0.94901961 0.28235294 0.30980392
v 0.17597986 -0.08318899 -0.15748124 0.94901961 0.38039216 0.28235294
v 0.16049624 -0.26312555 -0.15748127 0.94901961 0.38039216 0.28235294
v 0.16049624 -0.26259904 -0.17466240 0.94901961 0.38039216 0.28235294
v 0.14494648 -0.08318899 -0.17471033 0.94901961 0.38039216 0.28235294
v 0.14233011 -0.08318899 -0.15748127 0.94901961 0.38039216 0.28235294
v 0.16049624 -0.08318899 -0.17471033 0.94901961 0.38039216 0.28235294
v 0.14412135 -0.26259904 -0.15748127 0.94901961 0.38039216 0.28235294
v 0.14494648 -0.26259904 -0.17466240 0.94901961 0.38039216 0.28235294
v 0.14433325 -0.26259904 -0.17386831 0.94901961 0.38039216 0.28235294
v 0.14233011 -0.09979852 -0.15748127 0.94901961 0.38039216 0.28235294
v 0.14367234 -0.08318899 -0.17240331 0.94901961 0.38039216 0.28235294
v -0.13852977 0.05226766 -0.13558323 0.94901961 0.50588235 0.28235294
v -0.17083400 0.04976444 -0.17432190 0.94901961 0.50588235 0.28235294
v -0.17361456 0.05312312 -0.13545514 0.94901961 0.50588235 0.28235294
v -0.17361456 0.04979420 -0.17196345 0.94901961 0.50588235 0.28235294
v -0.14172034 0.03308230 -0.14366538 0.94901961 0.50588235 0.28235294
v -0.13964081 0.05108007 -0.17486333 0.94901961 0.50588235 0.28235294
v -0.17361456 0.03307771 -0.17186114 0.94901961 0.50588235 0.28235294
v -0.17397257 0.03307771 -0.14344137 0.94901961 0.50588235 0.28235294
v -0.17081217 0.03307771 -0.17429626 0.94901961 0.50588235 0.28235294
v -0.14260511 0.03307771 -0.17441063 0.94901961 0.50588235 0.28235294
v 0.17597986 -0.03336040 -0.15748127 0.94901961 0.62745098 0.28235294
v 0.17597986 -0.05550644 -0.15748127 0.94901961 0.62745098 0.28235294
v 0.16049624 -0.05550644 -0.17471033 0.94901961 0.62745098 0.28235294
v 0.14494648 -0.03336040 -0.17471033 0.94901961 0.62745098 0.28235294
v 0.14233011 -0.05550644 -0.15748127 0.94901961 0.62745098 0.28235294
v 0.16049624 -0.03336040 -0.17471033 0.94901961 0.62745098 0.28235294
v 0.14233011 -0.03336040 -0.15748127 0.94901961 0.62745098 0.28235294
v 0.14494648 -0.05550644 -0.17471033 0.94901961 0.62745098 0.28235294
v 0.14367234 -0.05550644 -0.17240331 0.94901961 0.62745098 0.28235294
v 0.14367234 -0.03336040 -0.17240331 0.94901961 0.62745098 0.28235294
v 0.17594033 0.04993540 0.14721106 0.94901961 0.75294118 0.28235294
v 0.17551181 0.03307738 0.14766781 0.94901961 0.75294118 0.28235294
v 0.17115644 0.05248281 0.13627081 0.94901961 0.75294118 0.28235294
v 0.13835020 0.05236744 0.13617053 0.94901961 0.75294118 0.28235294
v 0.13975636 0.05083146 0.14700197 0.94901961 0.75294118 0.28235294
v 0.17414362 0.03307660 0.14426482 0.94901961 0.75294118 0.28235294
v 0.17557737 0.05132580 0.14214398 0.94901961 0.75294118 0.28235294
v 0.13835020 0.05233146 0.13661544 0.94901961 0.75294118 0.28235294
v 0.14261211 0.03307771 0.14743307 0.94901961 0.75294118 0.28235294
v 0.14291416 0.03307771 0.14426482 0.94901961 0.75294118 0.28235294
v 0.17331393 -0.23821126 -0.14366538 0.94901961 0.87843137 0.28235294
v 0.17159839 -0.26259904 -0.14366538 0.94901961 0.87843137 0.28235294
v 0.17462486 -0.23821126 -0.15748127 0.94901961 0.87843137 0.28235294
v 0.14233011 -0.23821126 -0.15748127 0.94901961 0.87843137 0.28235294
v 0.14303660 -0.23821126 -0.14366538 0.94901961 0.87843137 0.28235294
v 0.16049624 -0.26312555 -0.15748127 0.94901961 0.87843137 0.28235294
v 0.17159839 -0.26259904 -0.15748127 0.94901961 0.87843137 0.28235294
v 0.14412135 -0.26259904 -0.14366538 0.94901961 0.87843137 0.28235294
v 0.14412135 -0.26259904 -0.15748127 0.94901961 0.87843137 0.28235294
v -0.13949354 0.05221201 0.17527917 0.89411765 0.94901961 0.28235294
v -0.14281842 0.03307959 0.17315316 0.89411765 0.94901961 0.28235294
v -0.13847528 0.05267406 0.13597613 0.89411765 0.94901961 0.28235294
v -0.17361456 0.05309532 0.13608763 0.89411765 0.94901961 0.28235294
v -0.17361456 0.04983374 0.17224580 0.89411765 0.94901961 0.28235294
v -0.17391821 0.03307771 0.14395422 0.89411765 0.94901961 0.28235294
v -0.14162173 0.03308347 0.14426482 0.89411765 0.94901961 0.28235294
v -0.17051278 0.03307798 0.17489570 0.89411765 0.94901961 0.28235294
v -0.16968463 0.05132442 0.17471387 0.89411765 0.94901961 0.28235294
v -0.14612457 0.03308140 0.17489570 0.89411765 0.94901961 0.28235294
v -0.17361456 0.03307771 0.17212244 0.89411765 0.94901961 0.28235294
v 0.17349748 0.08386143 0.00307440 0.76862745 0.94901961 0.28235294
v 0.17557737 0.05313801 0.00307688 0.76862745 0.94901961 0.28235294
v 0.17557737 0.05313583 -0.08550818 0.76862745 0.94901961 0.28235294
v -0.17365391 0.08469930 -0.08550766 0.76862745 0.94901961 0.28235294
v -0.17361456 0.05321930 0.00307703 0.76862745 0.94901961 0.28235294
v 0.17350221 0.08386420 -0.08550831 0.76862745 0.94901961 0.28235294
v -0.17365440 0.08469907 0.00307783 0.76862745 0.94901961 0.28235294
v -0.17361456 0.05324724 -0.08552057 0.76862745 0.94901961 0.28235294
v 0.16049623 0.00539516 -0.14184227 0.64313725 0.94901961 0.28235294
v 0.16049623 -0.03336040 -0.14184227 0.64313725 0.94901961 0.28235294
v 0.16049624 -0.01121437 -0.17471033 0.64313725 0.94901961 0.28235294
v 0.14494648 0.00539516 -0.17471033 0.64313725 0.94901961 0.28235294
v 0.14302746 0.00539476 -0.14366538 0.64313725 0.94901961 0.28235294
v 0.14494648 -0.03336040 -0.17471033 0.64313725 0.94901961 0.28235294
v 0.16049624 0.00539516 -0.17471033 0.64313725 0.94901961 0.28235294
v 0.16049624 -0.03336040 -0.17471033 0.64313725 0.94901961 0.28235294
v 0.14367234 0.00539516 -0.17240331 0.64313725 0.94901961 0.28235294
v 0.14302801 -0.03336114 -0.14366538 0.64313725 0.94901961 0.28235294
v 0.14367234 -0.03336040 -0.17240331 0.64313725 0.94901961 0.28235294
v 0.17349961 0.08386166 0.14702456 0.51764706 0.94901961 0.28235294
v 0.17594033 0.04993540 0.14721106 0.51764706 0.94901961 0.28235294
v 0.17557737 0.08223478 0.09719634 0.51764706 0.94901961 0.28235294
v 0.09959463 0.08483200 0.09719817 0.51764706 0.94901961 0.28235294
v 0.09959463 0.05270377 0.14702676 0.51764706 0.94901961 0.28235294
v 0.09959463 0.05270377 0.09719817 0.51764706 0.94901961 0.28235294
v 0.17350489 0.08386594 0.09718715 0.51764706 0.94901961 0.28235294
v 0.09959463 0.08483200 0.14702676 0.51764706 0.94901961 0.28235294
v 0.17557737 0.05313755 0.09720017 0.51764706 0.94901961 0.28235294
v -0.08311644 0.08427216 0.17535716 0.39215686 0.94901961 0.28235294
v -0.08310893 0.05384488 0.17553064 0.39215686 0.94901961 0.28235294
v -0.08311018 0.05270377 0.09719817 0.39215686 0.94901961 0.28235294
v -0.12740226 0.08483200 0.09719817 0.39215686 0.94901961 0.28235294
v -0.12743966 0.05384488 0.17550464 0.39215686 0.94901961 0.28235294
v -0.08311018 0.08483200 0.09719817 0.39215686 0.94901961 0.28235294
v -0.12740399 0.08427216 0.17220003 0.39215686 0.94901961 0.28235294
v -0.12740226 0.05270377 0.09719817 0.39215686 0.94901961 0.28235294
v -0.12740317 0.08177945 0.17498247 0.39215686 0.94901961 0.28235294
v 0.00211545 0.08349984 0.17489570 0.28235294 0.94901961 0.29803922
v 0.00552264 0.05384488 0.17548250 0.28235294 0.94901961 0.29803922
v 0.00547397 0.08483200 0.00307751 0.28235294 0.94901961 0.29803922
v -0.08311018 0.08483200 0.00307751 0.28235294 0.94901961 0.29803922
v -0.08310893 0.05384488 0.17553064 0.28235294 0.94901961 0.29803922
v 0.00547397 0.05270377 0.00307751 0.28235294 0.94901961 0.29803922
v -0.08311644 0.08427216 0.17535716 0.28235294 0.94901961 0.29803922
v -0.08311018 0.05270377 0.00307751 0.28235294 0.94901961 0.29803922
v -0.08311018 0.08259456 0.17546476 0.28235294 0.94901961 0.29803922
v 0.17350489 0.08386594 0.09718715 0.28235294 0.94901961 0.41960784
v 0.17557737 0.05313755 0.09720017 0.28235294 0.94901961 0.41960784
v 0.17557737 0.08222330 0.00307705 0.28235294 0.94901961 0.41960784
v 0.00547397 0.08483200 0.00307751 0.28235294 0.94901961 0.41960784
v 0.00547397 0.05270377 0.09719817 0.28235294 0.94901961 0.41960784
v 0.17349748 0.08386143 0.00307440 0.28235294 0.94901961 0.41960784
v 0.00547397 0.08483200 0.09719817 0.28235294 0.94901961 0.41960784
v 0.17557737 0.05313801 0.00307688 0.28235294 0.94901961 0.41960784
v 0.00547397 0.05270377 0.00307751 0.28235294 0.94901961 0.41960784
v -0.14295298 -0.21606522 0.17328731 0.28235294 0.94901961 0.54509804
v -0.14298369 -0.26259904 0.17188929 0.28235294 0.94901961 0.54509804
v -0.14167759 -0.21606522 0.14426482 0.28235294 0.94901961 0.54509804
v -0.17391821 -0.21606522 0.14395422 0.28235294 0.94901961 0.54509804
v -0.17361456 -0.26259904 0.17138186 0.28235294 0.94901961 0.54509804
v -0.17361456 -0.21606522 0.17212244 0.28235294 0.94901961 0.54509804
v -0.14235617 -0.26259904 0.14426482 0.28235294 0.94901961 0.54509804
v -0.17361456 -0.22160173 0.17212244 0.28235294 0.94901961 0.54509804
v -0.17384271 -0.26259904 0.14399669 0.28235294 0.94901961 0.54509804
v -0.08311018 0.08483200 0.09719817 0.28235294 0.94901961 0.67058824
v -0.08311018 0.05270377 0.09719817 0.28235294 0.94901961 0.67058824
v -0.08311018 0.08483200 0.00307751 0.28235294 0.94901961 0.67058824
v -0.17365440 0.08469907 0.00307783 0.28235294 0.94901961 0.67058824
v -0.17366311 0.08469483 0.09719538 0.28235294 0.94901961 0.67058824
v -0.08311018 0.05270377 0.00307751 0.28235294 0.94901961 0.67058824
v -0.17361456 0.05321930 0.00307703 0.28235294 0.94901961 0.67058824
v -0.17361456 0.05321907 0.09720199 0.28235294 0.94901961 0.67058824
v 0.17278430 -0.21606522 0.17073809 0.28235294 0.94901961 0.79607843
v 0.17057496 -0.26259904 0.17027778 0.28235294 0.94901961 0.79607843
v 0.17353847 -0.21606522 0.14426482 0.28235294 0.94901961 0.79607843
v 0.14291416 -0.21606522 0.14426482 0.28235294 0.94901961 0.79607843
v 0.14391155 -0.21606522 0.17189836 0.28235294 0.94901961 0.79607843
v 0.17159839 -0.26259904 0.14426482 0.28235294 0.94901961 0.79607843
v 0.14494648 -0.26259904 0.17193388 0.28235294 0.94901961 0.79607843
v 0.14391155 -0.22160173 0.17189836 0.28235294 0.94901961 0.79607843
v 0.14412135 -0.26259904 0.14426482 0.28235294 0.94901961 0.79607843
v 0.09959366 0.08178010 0.17498260 0.28235294 0.94901961 0.92156863
v 0.09959546 0.05384488 0.17552955 0.28235294 0.94901961 0.92156863
v 0.09959463 0.05270377 0.09719817 0.28235294 0.94901961 0.92156863
v 0.00547397 0.08483200 0.09719817 0.28235294 0.94901961 0.92156863
v 0.00547535 0.08178025 0.17498357 0.28235294 0.94901961 0.92156863
v 0.09959463 0.08483200 0.09719817 0.28235294 0.94901961 0.92156863
v 0.00547397 0.05270377 0.09719817 0.28235294 0.94901961 0.92156863
v 0.08061779 0.08427216 0.17489570 0.28235294 0.94901961 0.92156863
v 0.00552264 0.05384488 0.17548250 0.28235294 0.94901961 0.92156863
v 0.09959216 0.08427216 0.17220105 0.28235294 0.94901961 0.92156863
v 0.00547717 0.08427216 0.17220638 0.28235294 0.94901961 0.92156863
v 0.02510156 0.08400417 0.17489570 0.28235294 0.94901961 0.92156863
v 0.17597986 -0.05550644 -0.15748127 0.28235294 0.85098039 0.94901961
v 0.17597986 -0.08318899 -0.15748127 0.28235294 0.85098039 0.94901961
v 0.17047434 -0.08319578 -0.17448847 0.28235294 0.85098039 0.94901961
v 0.14494648 -0.05550644 -0.17471033 0.28235294 0.85098039 0.94901961
v 0.14233011 -0.08318899 -0.15748127 0.28235294 0.85098039 0.94901961
v 0.17045396 -0.05550726 -0.17449250 0.28235294 0.85098039 0.94901961
v 0.17304228 -0.05550943 -0.17157497 0.28235294 0.85098039 0.94901961
v 0.14233011 -0.05550644 -0.15748127 0.28235294 0.85098039 0.94901961
v 0.17303470 -0.08321424 -0.17159334 0.28235294 0.85098039 0.94901961
v 0.14494648 -0.08318899 -0.17471033 0.28235294 0.85098039 0.94901961
v 0.14367234 -0.08318899 -0.17240331 0.28235294 0.85098039 0.94901961
v 0.16049624 -0.08318899 -0.17471033 0.28235294 0.85098039 0.94901961
v 0.14367234 -0.05550644 -0.17240331 0.28235294 0.85098039 0.94901961
v 0.17597986 0.00539516 -0.15748127 0.28235294 0.72549020 0.94901961
v 0.17597986 -0.05550644 -0.15748127 0.28235294 0.72549020 0.94901961
v 0.17045441 0.00539551 -0.17449253 0.28235294 0.72549020 0.94901961
v 0.16049624 0.00539516 -0.17471033 0.28235294 0.72549020 0.94901961
v 0.17045396 -0.05550726 -0.17449250 0.28235294 0.72549020 0.94901961
v 0.17304272 0.00539642 -0.17157550 0.28235294 0.72549020 0.94901961
v 0.16049624 -0.05550644 -0.17471033 0.28235294 0.72549020 0.94901961
v 0.17304228 -0.05550943 -0.17157497 0.28235294 0.72549020 0.94901961
v 0.17410746 0.00539620 -0.14366538 0.28235294 0.60000000 0.94901961
v 0.17410624 -0.17177477 -0.14366538 0.28235294 0.60000000 0.94901961
v 0.17597986 0.00539516 -0.15748127 0.28235294 0.60000000 0.94901961
v 0.16049623 0.00539516 -0.14184227 0.28235294 0.60000000 0.94901961
v 0.16049623 -0.17177314 -0.14184227 0.28235294 0.60000000 0.94901961
v 0.17597986 -0.17177314 -0.15748127 0.28235294 0.60000000 0.94901961
f 5 2 1
f 5 1 4
f 6 3 4
f 6 4 1
f 7 1 2
f 7 5 3
f 7 2 5
f 8 5 4
f 8 4 3
f 8 3 5
f 9 6 1
f 9 1 7
f 9 7 3
f 9 3 6
f 10 11 12
f 10 12 13
f 14 11 10
f 14 10 13
f 16 15 13
f 16 13 12
f 17 14 13
f 17 13 15
f 18 16 12
f 18 12 11
f 18 11 16
f 19 11 14
f 19 14 17
f 19 16 11
f 19 17 15
f 19 15 16
f 25 20 22
f 26 20 21
f 26 22 20
f 27 21 20
f 28 25 22
f 28 23 25
f 29 25 23
f 29 24 27
f 30 26 21
f 30 27 24
f 30 24 29
f 30 29 23
f 30 23 28
f 30 28 22
f 30 22 26
f 31 29 27
f 31 27 20
f 31 20 25
f 31 25 29
f 32 30 21
f 32 21 27
f 32 27 30
f 37 34 33
f 39 33 34
f 40 35 34
f 40 34 38
f 41 38 34
f 41 34 37
f 42 37 33
f 42 33 39
f 42 41 37
f 43 40 38
f 43 42 36
f 43 38 41
f 43 41 42
f 44 35 40
f 44 39 34
f 44 34 35
f 44 42 39
f 44 36 42
f 45 43 36
f 45 40 43
f 46 44 40
f 46 36 44
f 47 45 36
f 47 36 46
f 47 46 40
f 47 40 45
f 54 50 51
f 56 51 53
f 57 53 50
f 57 49 53
f 57 54 49
f 57 50 54
f 58 53 51
f 58 51 50
f 58 50 53
f 59 53 49
f 59 56 53
f 59 52 56
f 60 49 54
f 60 55 49
f 60 48 55
f 60 56 48
f 60 54 51
f 60 51 56
f 61 55 48
f 61 48 56
f 61 56 52
f 62 52 59
f 62 61 52
f 63 62 59
f 63 59 49
f 63 49 55
f 63 55 61
f 63 61 62
f 64 65 66
f 68 66 65
f 69 64 66
f 69 66 67
f 71 69 67
f 71 64 69
f 72 68 67
f 72 67 66
f 72 66 68
f 73 70 68
f 73 68 65
f 73 65 64
f 74 67 68
f 74 68 70
f 74 70 71
f 75 64 71
f 75 73 64
f 76 74 71
f 76 71 67
f 76 67 74
f 77 75 71
f 77 71 70
f 77 70 73
f 77 73 75
f 78 79 80
f 83 81 80
f 84 79 78
f 85 81 83
f 85 78 80
f 85 80 81
f 85 84 78
f 85 82 84
f 86 83 80
f 86 80 79
f 87 85 83
f 87 82 85
f 87 84 82
f 87 79 84
f 87 86 79
f 87 83 86
f 88 89 90
f 94 88 93
f 94 92 89
f 94 89 88
f 95 90 89
f 95 89 92
f 96 93 88
f 96 88 90
f 97 94 93
f 97 96 90
f 97 93 96
f 98 94 91
f 98 92 94
f 98 95 92
f 98 91 97
f 99 97 91
f 99 91 94
f 99 94 97
f 100 97 90
f 100 90 95
f 100 98 97
f 100 95 98
f 105 102 101
f 106 103 102
f 106 104 103
f 107 105 101
f 108 105 104
f 108 104 106
f 108 106 102
f 108 102 105
f 109 103 104
f 109 107 101
f 109 101 102
f 109 102 103
f 110 105 107
f 110 109 104
f 110 107 109
f 111 110 104
f 111 104 105
f 111 105 110
f 112 113 114
f 116 113 112
f 117 112 114
f 117 115 112
f 118 114 113
f 118 113 116
f 119 117 114
f 119 115 117
f 119 114 118
f 120 116 112
f 120 112 115
f 121 118 116
f 121 116 120
f 121 119 118
f 122 121 120
f 122 120 115
f 122 115 119
f 122 119 121
f 128 123 124
f 128 125 123
f 129 127 124
f 130 126 127
f 130 123 125
f 130 125 126
f 131 124 127
f 131 128 124
f 131 125 128
f 132 129 124
f 132 124 123
f 133 123 130
f 133 130 127
f 134 131 127
f 134 127 126
f 134 126 125
f 134 125 131
f 135 132 123
f 135 123 133
f 135 129 132
f 135 133 127
f 135 127 129
f 136 138 139
f 138 137 139
f 141 137 138
f 141 138 136
f 141 140 137
f 141 136 140
f 142 140 136
f 142 136 139
f 143 139 137
f 143 137 140
f 143 142 139
f 143 140 142
f 144 145 146
f 148 145 144
f 148 146 145
f 149 144 146
f 149 146 147
f 150 148 144
f 151 147 146
f 151 146 148
f 152 149 147
f 152 147 151
f 152 151 148
f 152 148 150
f 152 150 144
f 153 152 144
f 153 144 149
f 153 149 152
f 154 155 156
f 158 154 157
f 159 154 156
f 159 156 157
f 159 157 154
f 160 155 154
f 161 156 155
f 161 157 156
f 162 161 155
f 162 155 160
f 162 157 161
f 163 162 160
f 163 160 154
f 163 154 158
f 164 158 157
f 164 157 162
f 164 163 158
f 164 162 163
f 167 166 168
f 170 166 167
f 170 167 165
f 170 165 169
f 172 169 165
f 172 165 167
f 172 167 168
f 172 168 171
f 173 171 168
f 173 168 166
f 173 166 170
f 173 172 171
f 174 173 170
f 174 170 169
f 174 169 172
f 174 172 173
f 175 176 177
f 179 176 175
f 179 177 176
f 180 175 177
f 180 177 178
f 180 178 175
f 181 179 175
f 181 175 178
f 182 178 177
f 182 177 179
f 183 179 181
f 183 182 179
f 183 178 182
f 184 183 181
f 184 181 178
f 184 178 183
f 189 186 185
f 190 188 187
f 191 189 185
f 191 187 189
f 191 190 187
f 191 185 186
f 191 186 190
f 192 189 187
f 192 187 188
f 193 190 186
f 193 186 189
f 193 189 192
f 193 192 188
f 194 193 188
f 194 188 190
f 194 190 193
f 195 196 197
f 195 197 198
f 199 196 195
f 199 195 198
f 200 198 197
f 201 200 197
f 201 197 196
f 201 196 200
f 202 199 198
f 202 200 196
f 202 196 199
f 203 202 198
f 203 198 200
f 203 200 202
f 204 206 207
f 209 207 206
f 209 208 207
f 210 204 205
f 210 206 204
f 210 209 206
f 210 205 209
f 212 204 207
f 212 207 208
f 212 211 204
f 212 208 211
f 213 211 205
f 213 205 204
f 213 204 211
f 214 211 208
f 214 208 209
f 214 209 205
f 214 205 211
f 219 217 216
f 220 215 216
f 220 216 217
f 221 220 218
f 221 215 220
f 221 219 216
f 221 216 215
f 222 217 219
f 222 220 217
f 222 218 220
f 222 221 218
f 222 219 221
f 223 224 225
f 227 224 223
f 228 226 225
f 229 223 225
f 229 225 226
f 229 226 223
f 230 228 225
f 230 225 224
f 231 226 228
f 231 227 223
f 231 223 226
f 232 224 227
f 232 230 224
f 232 228 230
f 233 231 228
f 233 228 232
f 233 232 227
f 233 227 231
f 234 235 236
f 239 238 237
f 239 235 238
f 240 234 236
f 240 239 237
f 241 238 235
f 241 235 234
f 241 237 238
f 241 240 237
f 241 234 240
f 242 236 235
f 242 235 239
f 242 240 236
f 242 239 240
f 247 244 243
f 248 245 246
f 248 246 243
f 248 243 244
f 248 244 245
f 249 243 246
f 249 246 247
f 250 247 246
f 250 246 245
f 250 245 244
f 250 244 247
f 251 249 247
f 251 247 243
f 251 243 249
f 252 253 254
f 257 254 253
f 257 255 254
f 257 253 256
f 258 252 254
f 258 254 255
f 259 257 256
f 259 255 257
f 259 258 255
f 259 256 258
f 260 258 256
f 260 256 253
f 260 253 252
f 260 252 258
f 261 262 263
f 266 261 263
f 266 264 261
f 267 261 264
f 267 264 265
f 267 265 262
f 267 262 261
f 268 263 262
f 268 266 263
f 269 265 264
f 269 264 266
f 269 266 268
f 269 268 262
f 269 262 265
f 270 271 272
f 270 272 273
f 274 271 270
f 275 270 273
f 276 272 271
f 276 271 274
f 276 273 272
f 277 274 270
f 277 270 275
f 277 275 273
f 277 273 274
f 278 276 274
f 278 274 273
f 278 273 276
f 279 280 281
f 279 281 282
f 283 279 282
f 284 281 280
f 285 283 282
f 285 282 281
f 285 281 284
f 286 283 285
f 286 280 279
f 286 279 283
f 286 285 284
f 286 284 280
f 287 289 290
f 291 287 290
f 292 290 289
f 292 287 288
f 292 289 287
f 293 288 287
f 293 287 291
f 293 292 288
f 294 293 291
f 294 291 290
f 294 290 293
f 295 293 290
f 295 290 292
f 295 292 293
f 300 297 296
f 301 298 299
f 301 296 297
f 301 297 298
f 302 298 297
f 302 300 299
f 302 299 298
f 303 300 296
f 303 301 299
f 304 302 297
f 304 297 300
f 304 300 302
f 305 303 296
f 305 296 301
f 305 301 303
f 306 303 299
f 306 299 300
f 307 306 300
f 307 300 303
f 307 303 306
f 312 309 308
f 313 311 308
f 314 308 309
f 314 313 308
f 314 310 313
f 315 312 308
f 315 308 311
f 316 309 312
f 316 314 309
f 316 310 314
f 317 310 316
f 318 312 315
f 318 311 317
f 318 317 316
f 318 316 312
f 319 313 310
f 319 310 317
f 319 317 311
f 319 311 313
f 320 318 315
f 320 315 311
f 320 311 318
f 322 321 324
f 326 321 322
f 326 323 324
f 326 324 321
f 326 325 323
f 327 322 324
f 327 324 323
f 327 323 325
f 328 326 322
f 328 325 326
f 328 327 325
f 328 322 327
f 329 331 332
f 333 332 331
f 333 330 329
f 333 329 332
f 334 333 331
f 334 330 333
f 334 329 330
f 334 331 329

