# https://github.com/mikedh/trimesh
v 0.07079672 0.10625819 -0.05900761 0.28235294 0.47843137 0.94901961
v 0.06616084 -0.00484853 -0.06577270 0.28235294 0.47843137 0.94901961
v -0.01597752 -0.10547239 -0.13976786 0.28235294 0.47843137 0.94901961
v -0.00572052 0.13373248 -0.11237766 0.28235294 0.47843137 0.94901961
v 0.04901209 -0.09443475 -0.07634746 0.28235294 0.47843137 0.94901961
v 0.01825336 0.08950973 -0.10601774 0.28235294 0.47843137 0.94901961
v -0.01304182 -0.10547213 -0.13720747 0.28235294 0.47843137 0.94901961
v -0.00091883 -0.10577121 -0.12238359 0.28235294 0.47843137 0.94901961
v 0.00346384 0.07844249 -0.11657498 0.28235294 0.47843137 0.94901961
v 0.00736746 0.13471746 -0.10817233 0.28235294 0.47843137 0.94901961
v 0.04057725 0.06138693 -0.08925218 0.28235294 0.47843137 0.94901961
v 0.06338431 -0.00455938 -0.06864782 0.28235294 0.47843137 0.94901961
v -0.01778148 -0.03294790 -0.13486124 0.28235294 0.47843137 0.94901961
v -0.00268685 -0.10643844 -0.12627757 0.28235294 0.47843137 0.94901961
v 0.01248296 0.06737955 -0.11146769 0.28235294 0.47843137 0.94901961
v 0.06741433 0.11214384 -0.06134823 0.28235294 0.47843137 0.94901961
v -0.00707587 0.06662943 -0.12192850 0.28235294 0.47843137 0.94901961
v 0.00823901 0.10568495 -0.11077200 0.28235294 0.47843137 0.94901961
v 0.02940699 0.11233597 -0.09550903 0.28235294 0.47843137 0.94901961
v 0.02399521 -0.09518157 -0.10123776 0.28235294 0.47843137 0.94901961
v 0.04079633 0.00661375 -0.08902210 0.28235294 0.47843137 0.94901961
v 0.07176054 0.08414358 -0.05996832 0.28235294 0.47843137 0.94901961
v -0.01431923 -0.00471384 -0.13189488 0.28235294 0.47843137 0.94901961
v -0.00337898 0.13524913 -0.11162142 0.28235294 0.47843137 0.94901961
v 0.00534119 0.13446771 -0.10915285 0.28235294 0.47843137 0.94901961
v 0.06825085 0.10584428 -0.06143510 0.28235294 0.47843137 0.94901961
v 0.06194030 0.09615206 -0.06806667 0.28235294 0.47843137 0.94901961
v -0.01627663 -0.00525431 -0.13278682 0.28235294 0.47843137 0.94901961
v -0.01082497 0.06658781 -0.12307278 0.28235294 0.47843137 0.94901961
v 0.06575689 0.08436874 -0.06537663 0.28235294 0.47843137 0.94901961
v -0.00246405 0.11871762 -0.11376799 0.28235294 0.47843137 0.94901961
v -0.00099237 0.13359920 -0.11131020 0.28235294 0.47843137 0.94901961
v -0.00967442 0.04535132 -0.12481614 0.28235294 0.35294118 0.94901961
v -0.01398977 -0.13315892 -0.13797355 0.28235294 0.35294118 0.94901961
v -0.02590787 -0.13429183 -0.15373583 0.28235294 0.35294118 0.94901961
v -0.07929862 -0.12640004 -0.15778066 0.28235294 0.35294118 0.94901961
v -0.07892296 -0.01557995 -0.11930781 0.28235294 0.35294118 0.94901961
v -0.01555618 -0.13888896 -0.14571854 0.28235294 0.35294118 0.94901961
v -0.02768401 0.01075639 -0.13346321 0.28235294 0.35294118 0.94901961
v -0.00293432 -0.00478223 -0.12531293 0.28235294 0.35294118 0.94901961
v -0.07863734 -0.12123229 -0.14973529 0.28235294 0.35294118 0.94901961
v -0.01135587 0.04477236 -0.12538140 0.28235294 0.35294118 0.94901961
v -0.04922881 0.04528481 -0.12348747 0.28235294 0.35294118 0.94901961
v -0.06626483 0.02306374 -0.11814464 0.28235294 0.35294118 0.94901961
v -0.02118296 -0.13474191 -0.15200258 0.28235294 0.35294118 0.94901961
v -0.08018827 -0.02641809 -0.12099941 0.28235294 0.35294118 0.94901961
v -0.02461304 -0.13467757 -0.14266395 0.28235294 0.35294118 0.94901961
v -0.03658401 0.03837322 -0.12813201 0.28235294 0.35294118 0.94901961
v -0.00341224 0.01180986 -0.12514029 0.28235294 0.35294118 0.94901961
v -0.06125439 0.02111808 -0.12286874 0.28235294 0.35294118 0.94901961
v -0.01899665 -0.13408902 -0.13996092 0.28235294 0.35294118 0.94901961
v -0.03703641 0.01077436 -0.13340573 0.28235294 0.35294118 0.94901961
v -0.04784028 0.04423108 -0.12439024 0.28235294 0.35294118 0.94901961
v -0.02210649 0.03899544 -0.12817129 0.28235294 0.35294118 0.94901961
v -0.05869699 0.02463937 -0.12357230 0.28235294 0.35294118 0.94901961
v 0.13624496 0.11780382 0.00399941 0.33725490 0.28235294 0.94901961
v 0.12223089 -0.16117069 -0.00006310 0.33725490 0.28235294 0.94901961
v 0.12355840 -0.16716050 -0.01747857 0.33725490 0.28235294 0.94901961
v 0.06287544 0.08429723 -0.06802663 0.33725490 0.28235294 0.94901961
v 0.09902939 0.12338738 -0.03116583 0.33725490 0.28235294 0.94901961
v 0.04607958 -0.09420651 -0.07911703 0.33725490 0.28235294 0.94901961
v 0.07339578 0.05000512 -0.06210909 0.33725490 0.28235294 0.94901961
v 0.13313267 -0.00493661 0.00538424 0.33725490 0.28235294 0.94901961
v 0.06168380 -0.13909199 -0.07230949 0.33725490 0.28235294 0.94901961
v 0.11826617 0.08365946 -0.01722842 0.33725490 0.28235294 0.94901961
v 0.11650417 0.12297090 -0.01631403 0.33725490 0.28235294 0.94901961
v 0.12424660 -0.13312803 0.00110182 0.33725490 0.28235294 0.94901961
v 0.11184571 -0.16145404 -0.02188773 0.33725490 0.28235294 0.94901961
v 0.07318568 0.04582140 -0.06234909 0.33725490 0.28235294 0.94901961
v 0.04794476 -0.00526446 -0.08130203 0.33725490 0.28235294 0.94901961
v 0.12361916 0.07858588 -0.01188267 0.33725490 0.28235294 0.94901961
v 0.10443718 0.12344719 -0.02669335 0.33725490 0.28235294 0.94901961
v 0.11978920 0.12357936 -0.01319887 0.33725490 0.28235294 0.94901961
v 0.11529782 -0.16394548 -0.02331470 0.33725490 0.28235294 0.94901961
v 0.12158427 -0.16190856 -0.00174465 0.33725490 0.28235294 0.94901961
v 0.13061299 0.11692967 -0.00241077 0.33725490 0.28235294 0.94901961
v 0.10236468 0.12358485 -0.02836353 0.33725490 0.28235294 0.94901961
v 0.13363741 0.11823843 0.00095077 0.33725490 0.28235294 0.94901961
v 0.11695933 -0.16741291 -0.01257130 0.46274510 0.28235294 0.94901961
v 0.11320991 -0.17477174 -0.01127995 0.46274510 0.28235294 0.94901961
v 0.11027929 -0.17936930 -0.03147923 0.46274510 0.28235294 0.94901961
v -0.01716667 -0.13897536 -0.14851621 0.46274510 0.28235294 0.94901961
v 0.06029832 -0.09434308 -0.06594679 0.46274510 0.28235294 0.94901961
v -0.01628799 -0.14646704 -0.12577459 0.46274510 0.28235294 0.94901961
v 0.11299022 -0.17950426 -0.02884668 0.46274510 0.28235294 0.94901961
v 0.06352248 -0.09423780 -0.06327037 0.46274510 0.28235294 0.94901961
v 0.08181922 -0.17466257 -0.05478043 0.46274510 0.28235294 0.94901961
v -0.00375938 -0.09432128 -0.12428357 0.46274510 0.28235294 0.94901961
v 0.08971331 -0.16929444 -0.02991304 0.46274510 0.28235294 0.94901961
v 0.11431943 -0.15537580 -0.01901470 0.46274510 0.28235294 0.94901961
v 0.10701710 -0.16527143 -0.03609472 0.46274510 0.28235294 0.94901961
v 0.10781742 -0.17910684 -0.03375442 0.46274510 0.28235294 0.94901961
v -0.00975273 -0.15156143 -0.14273506 0.46274510 0.28235294 0.94901961
v -0.01597752 -0.10547239 -0.13976786 0.46274510 0.28235294 0.94901961
v 0.00247720 -0.09385784 -0.11919322 0.46274510 0.28235294 0.94901961
v 0.05092376 -0.10289706 -0.07829264 0.46274510 0.28235294 0.94901961
v 0.10051536 -0.13891571 -0.03324670 0.46274510 0.28235294 0.94901961
v -0.01717800 -0.14752698 -0.14853439 0.46274510 0.28235294 0.94901961
v 0.10449810 -0.17852743 -0.03655382 0.46274510 0.28235294 0.94901961
v 0.02957827 -0.14915004 -0.10691640 0.46274510 0.28235294 0.94901961
v -0.01871362 -0.11727966 -0.14210134 0.46274510 0.28235294 0.94901961
v 0.05796008 -0.09425892 -0.06814476 0.46274510 0.28235294 0.94901961
v 0.02399521 -0.09518157 -0.10123776 0.46274510 0.28235294 0.94901961
v -0.01370427 -0.14756977 -0.14621618 0.46274510 0.28235294 0.94901961
v -0.01304182 -0.10547213 -0.13720747 0.46274510 0.28235294 0.94901961
v 0.13306067 0.12744926 0.07051960 0.58823529 0.28235294 0.94901961
v 0.12320496 -0.16007458 0.03112852 0.58823529 0.28235294 0.94901961
v 0.14041345 0.04541189 0.02733575 0.58823529 0.28235294 0.94901961
v 0.13167303 0.13231530 0.00187192 0.58823529 0.28235294 0.94901961
v 0.11666003 -0.12197514 0.04845579 0.58823529 0.28235294 0.94901961
v 0.12158427 -0.16190856 -0.00174465 0.58823529 0.28235294 0.94901961
v 0.14009837 0.13003644 0.05280147 0.58823529 0.28235294 0.94901961
v 0.13345632 0.09686766 0.06745104 0.58823529 0.28235294 0.94901961
v 0.13268968 0.13530190 0.05884441 0.58823529 0.28235294 0.94901961
v 0.12333401 -0.16111628 0.00233754 0.58823529 0.28235294 0.94901961
v 0.13377104 0.02897541 0.00255367 0.58823529 0.28235294 0.94901961
v 0.11903962 -0.16141951 0.03896494 0.58823529 0.28235294 0.94901961
v 0.13926502 0.13048062 0.01344778 0.58823529 0.28235294 0.94901961
v 0.13931677 0.10205698 0.05794066 0.58823529 0.28235294 0.94901961
v 0.13176547 0.09614105 0.06965667 0.58823529 0.28235294 0.94901961
v 0.13523473 0.13382320 0.05739602 0.58823529 0.28235294 0.94901961
v 0.13460796 -0.03193376 0.03256333 0.58823529 0.28235294 0.94901961
v 0.12847211 -0.03845565 -0.00296075 0.58823529 0.28235294 0.94901961
v 0.13955935 0.05703776 0.01755715 0.58823529 0.28235294 0.94901961
v 0.14034595 0.12709250 0.05772337 0.58823529 0.28235294 0.94901961
v 0.13228833 0.13619568 0.01251782 0.58823529 0.28235294 0.94901961
v 0.13403970 0.13112234 0.00428941 0.58823529 0.28235294 0.94901961
v 0.13456469 0.12688218 0.06830634 0.58823529 0.28235294 0.94901961
v 0.12044337 -0.16063703 0.03686016 0.58823529 0.28235294 0.94901961
v 0.13453627 -0.03222052 0.02198744 0.58823529 0.28235294 0.94901961
v 0.12890438 -0.09919671 0.01689320 0.58823529 0.28235294 0.94901961
v 0.13409888 -0.02680484 0.03658804 0.58823529 0.28235294 0.94901961
v 0.14038497 0.04540919 0.03254638 0.58823529 0.28235294 0.94901961
v 0.12346768 -0.12878790 -0.00275774 0.58823529 0.28235294 0.94901961
v 0.12844932 -0.07152518 0.00159901 0.58823529 0.28235294 0.94901961
v 0.13374000 -0.02105644 0.01153429 0.58823529 0.28235294 0.94901961
v 0.13926762 0.07893503 0.01279743 0.58823529 0.28235294 0.94901961
v 0.13545174 0.13424563 0.01287687 0.58823529 0.28235294 0.94901961
v 0.13950480 0.05733299 0.04213214 0.58823529 0.28235294 0.94901961
v 0.13390508 0.00143564 0.00688080 0.58823529 0.28235294 0.94901961
v -0.12051946 0.07290453 -0.02827276 0.71372549 0.28235294 0.94901961
v -0.04909958 0.02287657 -0.12870959 0.71372549 0.28235294 0.94901961
v -0.05662271 0.06280360 -0.11443323 0.71372549 0.28235294 0.94901961
v -0.05089330 0.02406595 -0.12790074 0.71372549 0.28235294 0.94901961
v -0.16037203 -0.08876668 -0.03959106 0.71372549 0.28235294 0.94901961
v -0.04784028 0.04423108 -0.12439024 0.71372549 0.28235294 0.94901961
v -0.12684696 0.04920895 -0.02772146 0.71372549 0.28235294 0.94901961
v -0.08348253 -0.07299073 -0.13460429 0.71372549 0.28235294 0.94901961
v -0.12213051 0.06611397 -0.02759636 0.71372549 0.28235294 0.94901961
v -0.15460006 -0.06773180 -0.04364484 0.71372549 0.28235294 0.94901961
v -0.07624352 -0.07226912 -0.13894146 0.71372549 0.28235294 0.94901961
v -0.12850145 0.04359863 -0.02823856 0.71372549 0.28235294 0.94901961
v -0.14992772 -0.08516889 -0.06435340 0.71372549 0.28235294 0.94901961
v -0.05231579 0.03586816 -0.12442993 0.71372549 0.28235294 0.94901961
v -0.05614440 0.03751433 -0.12191561 0.71372549 0.28235294 0.94901961
v -0.12034364 0.06619714 -0.03774087 0.71372549 0.28235294 0.94901961
v -0.15538272 -0.06752345 -0.03878003 0.71372549 0.28235294 0.94901961
v -0.15684518 -0.08994854 -0.05490543 0.71372549 0.28235294 0.94901961
v -0.08185377 0.06002059 -0.08956012 0.71372549 0.28235294 0.94901961
v -0.05143364 0.04620135 -0.12216295 0.71372549 0.28235294 0.94901961
v -0.12013291 0.07395658 -0.02922173 0.71372549 0.28235294 0.94901961
v -0.11464164 0.07114210 -0.04721361 0.71372549 0.28235294 0.94901961
v -0.14070408 -0.08427528 -0.07570753 0.71372549 0.28235294 0.94901961
v -0.09447561 -0.07396759 -0.12453469 0.71372549 0.28235294 0.94901961
v -0.05162572 0.04284244 -0.12298301 0.71372549 0.28235294 0.94901961
v -0.11673904 0.07420843 -0.04154297 0.71372549 0.28235294 0.94901961
v -0.15401666 -0.08696013 -0.05885589 0.71372549 0.28235294 0.94901961
v -0.10859675 0.07256163 -0.05471524 0.71372549 0.28235294 0.94901961
v -0.06568906 0.06040187 -0.10670826 0.71372549 0.28235294 0.94901961
v -0.05935666 0.06373578 -0.11179471 0.71372549 0.28235294 0.94901961
v -0.12636780 0.01078459 -0.05699522 0.71372549 0.28235294 0.94901961
v -0.12090308 0.01526751 -0.06192209 0.71372549 0.28235294 0.94901961
v -0.11118366 0.07144384 -0.05214146 0.71372549 0.28235294 0.94901961
v -0.09854970 0.05433810 -0.07286827 0.71372549 0.28235294 0.94901961
v 0.06610203 0.13442739 0.12839700 0.83529412 0.28235294 0.94901961
v 0.11852911 0.13528060 0.07761407 0.83529412 0.28235294 0.94901961
v 0.04446973 0.14509438 0.11522609 0.83529412 0.28235294 0.94901961
v 0.02869326 0.15462805 0.03810217 0.83529412 0.28235294 0.94901961
v 0.00504381 0.12379466 0.10747053 0.83529412 0.28235294 0.94901961
v 0.05537072 0.15190751 0.03716462 0.83529412 0.28235294 0.94901961
v 0.07196785 0.13979235 0.11952630 0.83529412 0.28235294 0.94901961
v 0.08091297 0.12324492 0.12575150 0.83529412 0.28235294 0.94901961
v 0.03637860 0.13696791 0.12641419 0.83529412 0.28235294 0.94901961
v 0.00883407 0.15010561 0.09652637 0.83529412 0.28235294 0.94901961
v 0.02333142 0.15047937 0.09873222 0.83529412 0.28235294 0.94901961
v 0.06907528 0.14865616 0.03920677 0.83529412 0.28235294 0.94901961
v 0.06162210 0.13959430 0.12281809 0.83529412 0.28235294 0.94901961
v 0.09927124 0.13924162 0.09198723 0.83529412 0.28235294 0.94901961
v 0.11853804 0.13613501 0.06685764 0.83529412 0.28235294 0.94901961
v 0.08244858 0.13440442 0.12125288 0.83529412 0.28235294 0.94901961
v 0.03092183 0.12242612 0.12687914 0.83529412 0.28235294 0.94901961
v 0.00652074 0.15496470 0.04915027 0.83529412 0.28235294 0.94901961
v 0.03255337 0.14150659 0.12197488 0.83529412 0.28235294 0.94901961
v 0.06771817 0.14935969 0.03831842 0.83529412 0.28235294 0.94901961
v 0.01045610 0.12266939 0.11186715 0.83529412 0.28235294 0.94901961
v 0.10328045 0.13990954 0.05044719 0.83529412 0.28235294 0.94901961
v 0.11662716 0.13610785 0.07705373 0.83529412 0.28235294 0.94901961
v 0.07601147 0.13272177 0.12653833 0.83529412 0.28235294 0.94901961
v 0.10279430 0.13147153 0.10218252 0.83529412 0.28235294 0.94901961
v 0.10180143 0.13373640 0.10097068 0.83529412 0.28235294 0.94901961
v 0.07700423 0.12350671 0.12735131 0.83529412 0.28235294 0.94901961
v 0.01199287 0.13807071 0.11062829 0.83529412 0.28235294 0.94901961
v 0.01654219 0.12231212 0.11700849 0.83529412 0.28235294 0.94901961
v 0.11758004 0.13677956 0.06535327 0.83529412 0.28235294 0.94901961
v 0.02261220 0.14107872 0.11696639 0.83529412 0.28235294 0.94901961
v 0.02684896 0.13739562 0.12218596 0.83529412 0.28235294 0.94901961
v 0.01734303 0.13350261 0.11594127 0.83529412 0.28235294 0.94901961
v 0.10002749 0.14098364 0.04931091 0.83529412 0.28235294 0.94901961
v 0.08321717 0.14537197 0.04877409 0.83529412 0.28235294 0.94901961
v 0.02145139 0.14463978 0.11176697 0.83529412 0.28235294 0.94901961
v 0.03224742 0.12885026 0.12646602 0.83529412 0.28235294 0.94901961
v -0.01337391 -0.12951197 0.12435279 0.94901961 0.28235294 0.93333333
v -0.01414389 -0.17015592 0.13188560 0.94901961 0.28235294 0.93333333
v -0.01464759 -0.17475524 0.11403569 0.94901961 0.28235294 0.93333333
v -0.17305353 -0.12424920 -0.01372648 0.94901961 0.28235294 0.93333333
v -0.15623171 -0.13483681 0.00958440 0.94901961 0.28235294 0.93333333
v -0.16030638 -0.11663531 -0.01198852 0.94901961 0.28235294 0.93333333
v -0.01297643 -0.15443424 0.12883036 0.94901961 0.28235294 0.93333333
v -0.02336671 -0.16063573 0.12821191 0.94901961 0.28235294 0.93333333
v -0.12100198 -0.11640740 0.02695392 0.94901961 0.28235294 0.93333333
v -0.17164827 -0.14078094 -0.00904776 0.94901961 0.28235294 0.93333333
v -0.02634579 -0.12812857 0.11110231 0.94901961 0.28235294 0.93333333
v -0.01597544 -0.13009522 0.12271397 0.94901961 0.28235294 0.93333333
v -0.16786556 -0.12551122 -0.00615668 0.94901961 0.28235294 0.93333333
v -0.11649065 -0.15156143 0.04514561 0.94901961 0.28235294 0.93333333
v -0.16018175 -0.13111684 -0.01039883 0.94901961 0.28235294 0.93333333
v -0.02134901 -0.12770978 0.11597191 0.94901961 0.28235294 0.93333333
v -0.13908299 -0.13087144 0.02233844 0.94901961 0.28235294 0.93333333
v -0.11531004 -0.11674762 0.03191670 0.94901961 0.28235294 0.93333333
v -0.16150680 -0.14123016 0.00585767 0.94901961 0.28235294 0.93333333
v -0.15580703 -0.11693117 -0.00397964 0.94901961 0.28235294 0.93333333
v -0.01684073 -0.17466257 0.11325685 0.94901961 0.28235294 0.93333333
v -0.02329081 -0.16435126 0.12802680 0.94901961 0.28235294 0.93333333
v -0.17393290 -0.14078094 -0.01354028 0.94901961 0.28235294 0.93333333
v -0.12709756 -0.11602329 0.02127563 0.94901961 0.28235294 0.93333333
v -0.16053498 -0.13536902 0.00538552 0.94901961 0.28235294 0.93333333
v -0.15662219 -0.14089805 0.01042642 0.94901961 0.28235294 0.93333333
v -0.17262414 -0.12621801 -0.01198801 0.94901961 0.28235294 0.93333333
v -0.15894451 -0.11656120 -0.00992058 0.94901961 0.28235294 0.93333333
v -0.00058972 0.14971160 0.09166291 0.94901961 0.28235294 0.80784314
v 0.00659616 0.15283603 0.08914240 0.94901961 0.28235294 0.80784314
v -0.09000371 0.17293939 -0.00131434 0.94901961 0.28235294 0.80784314
v -0.02046263 0.16134507 -0.10750224 0.94901961 0.28235294 0.80784314
v 0.00752510 0.15713429 0.04005620 0.94901961 0.28235294 0.80784314
v -0.07346530 0.15614241 -0.06955959 0.94901961 0.28235294 0.80784314
v -0.06427436 0.16669870 0.03015046 0.94901961 0.28235294 0.80784314
v -0.01735598 0.14411254 0.08481804 0.94901961 0.28235294 0.80784314
v -0.02176956 0.16171422 0.05471391 0.94901961 0.28235294 0.80784314
v -0.03821076 0.17321275 -0.07863220 0.94901961 0.28235294 0.80784314
v 0.00001612 0.15289966 0.08670683 0.94901961 0.28235294 0.80784314
v -0.05690951 0.15627184 -0.08602655 0.94901961 0.28235294 0.80784314
v -0.07956569 0.16366079 0.02581354 0.94901961 0.28235294 0.80784314
v 0.00616814 0.16201797 0.00361828 0.94901961 0.28235294 0.80784314
v -0.08236074 0.17262280 0.00853888 0.94901961 0.28235294 0.80784314
v -0.08987104 0.17278864 -0.03753559 0.94901961 0.28235294 0.80784314
v -0.02376722 0.14470549 0.07926713 0.94901961 0.28235294 0.80784314
v -0.02524428 0.16078759 -0.10657793 0.94901961 0.28235294 0.80784314
v -0.01696973 0.14751434 0.08336708 0.94901961 0.28235294 0.80784314
v -0.08465565 0.16723795 0.01776696 0.94901961 0.28235294 0.80784314
v 0.00673613 0.15334619 0.08748478 0.94901961 0.28235294 0.80784314
v 0.00742904 0.16222940 -0.00495300 0.94901961 0.28235294 0.80784314
v -0.06874401 0.17199401 0.00393448 0.94901961 0.28235294 0.80784314
v -0.07181939 0.16553530 -0.06827509 0.94901961 0.28235294 0.80784314
v -0.09886244 0.16115574 -0.00205935 0.94901961 0.28235294 0.80784314
v -0.06167809 0.15543589 0.04479804 0.94901961 0.28235294 0.80784314
v -0.03116724 0.16787010 -0.10070737 0.94901961 0.28235294 0.80784314
v -0.01260282 0.14973896 0.08402259 0.94901961 0.28235294 0.80784314
v -0.08886706 0.16802430 0.01257130 0.94901961 0.28235294 0.80784314
v 0.00589174 0.16298640 -0.00730059 0.94901961 0.28235294 0.80784314
v -0.07788837 0.17254619 0.00847395 0.94901961 0.28235294 0.80784314
v -0.05386619 0.15680967 -0.08906845 0.94901961 0.28235294 0.80784314
v -0.09250967 0.16919628 -0.04167904 0.94901961 0.28235294 0.80784314
v -0.09904085 0.16065988 -0.03216819 0.94901961 0.28235294 0.80784314
v -0.07357978 0.15634864 0.03456327 0.94901961 0.28235294 0.80784314
v -0.06194043 0.15771509 0.04309961 0.94901961 0.28235294 0.80784314
v -0.02485996 0.16391920 -0.10573345 0.94901961 0.28235294 0.80784314
v -0.05235209 0.17203398 -0.07622589 0.94901961 0.28235294 0.80784314
v -0.02906289 0.15131318 0.07164075 0.94901961 0.28235294 0.80784314
v -0.09375427 0.16942117 0.00281128 0.94901961 0.28235294 0.80784314
v -0.09250176 0.16476035 0.01210633 0.94901961 0.28235294 0.80784314
v -0.02097288 0.16828832 -0.10235671 0.94901961 0.28235294 0.80784314
v -0.03950375 0.16424560 -0.09967739 0.94901961 0.28235294 0.80784314
v -0.09361204 0.16192851 -0.04259256 0.94901961 0.28235294 0.80784314
v -0.09806661 0.16534521 -0.00226695 0.94901961 0.28235294 0.80784314
v -0.09308916 0.16081693 0.01274563 0.94901961 0.28235294 0.80784314
v -0.02054084 0.16486651 -0.10596589 0.94901961 0.28235294 0.80784314
v -0.04020548 0.16097619 -0.10049510 0.94901961 0.28235294 0.80784314
v -0.03983341 0.16679845 -0.09698594 0.94901961 0.28235294 0.80784314
v -0.09760102 0.16544944 -0.03215401 0.94901961 0.28235294 0.80784314
v -0.08380535 0.16311387 0.02311785 0.94901961 0.28235294 0.68627451
v -0.09078842 0.12363024 0.02456094 0.94901961 0.28235294 0.68627451
v -0.08546346 0.15179781 0.02505989 0.94901961 0.28235294 0.68627451
v -0.10179176 0.08347544 -0.05898621 0.94901961 0.28235294 0.68627451
v -0.11448011 0.09844132 -0.00726486 0.94901961 0.28235294 0.68627451
v -0.10355316 0.07267138 -0.06068884 0.94901961 0.28235294 0.68627451
v -0.10043365 0.16272646 -0.02296780 0.94901961 0.28235294 0.68627451
v -0.11572020 0.08049495 0.00166703 0.94901961 0.28235294 0.68627451
v -0.09886244 0.16115574 -0.00205935 0.94901961 0.28235294 0.68627451
v -0.08536989 0.16585694 0.01896345 0.94901961 0.28235294 0.68627451
v -0.11688450 0.07186464 -0.04253868 0.94901961 0.28235294 0.68627451
v -0.09812851 0.12230626 0.01722822 0.94901961 0.28235294 0.68627451
v -0.11789092 0.07346698 0.00000199 0.94901961 0.28235294 0.68627451
v -0.10077848 0.16152663 -0.02295446 0.94901961 0.28235294 0.68627451
v -0.10179456 0.11151917 -0.04843160 0.94901961 0.28235294 0.68627451
v -0.09308916 0.16081693 0.01274563 0.94901961 0.28235294 0.68627451
v -0.09394860 0.12392961 0.02156853 0.94901961 0.28235294 0.68627451
v -0.09915674 0.11685877 0.01713244 0.94901961 0.28235294 0.68627451
v -0.11858414 0.07235536 -0.00156489 0.94901961 0.28235294 0.68627451
v -0.11540107 0.08839975 -0.00247599 0.94901961 0.28235294 0.68627451
v -0.11452035 0.09904781 -0.02192529 0.94901961 0.28235294 0.68627451
v -0.10254283 0.14057395 -0.03469511 0.94901961 0.28235294 0.68627451
v -0.11118366 0.07144384 -0.05214146 0.94901961 0.28235294 0.68627451
v -0.08946355 0.16090143 0.01880585 0.94901961 0.28235294 0.68627451
v -0.10301192 0.12734806 0.00721983 0.94901961 0.28235294 0.68627451
v -0.09290368 0.14964740 0.01721168 0.94901961 0.28235294 0.68627451
v -0.09414828 0.11784092 0.02208771 0.94901961 0.28235294 0.68627451
v -0.10293431 0.14401146 -0.00249046 0.94901961 0.28235294 0.68627451
v -0.11419411 0.09364874 -0.03268209 0.94901961 0.28235294 0.68627451
v -0.10407273 0.08273543 -0.05677237 0.94901961 0.28235294 0.68627451
v -0.11151306 0.07521802 -0.05024337 0.94901961 0.28235294 0.68627451
v -0.10595515 0.07164447 -0.05841694 0.94901961 0.28235294 0.68627451
v -0.08940295 0.15255939 0.02111489 0.94901961 0.28235294 0.68627451
v -0.10992720 0.07677542 -0.05168769 0.94901961 0.28235294 0.68627451
v -0.10395018 0.11076878 -0.04579316 0.94901961 0.28235294 0.68627451
v -0.11446881 0.08196163 -0.04216081 0.94901961 0.28235294 0.68627451
v 0.00697180 0.16344976 -0.10161931 0.94901961 0.28235294 0.56078431
v 0.00736746 0.13471746 -0.10817233 0.94901961 0.28235294 0.56078431
v 0.00395037 0.15994345 -0.10612158 0.94901961 0.28235294 0.56078431
v -0.03200504 0.13892065 -0.11173575 0.94901961 0.28235294 0.56078431
v -0.06537689 0.04509367 -0.11162987 0.94901961 0.28235294 0.56078431
v -0.01135587 0.04477236 -0.12538140 0.94901961 0.28235294 0.56078431
v -0.03306957 0.16331793 -0.10306411 0.94901961 0.28235294 0.56078431
v 0.00856023 0.14635636 -0.10566912 0.94901961 0.28235294 0.56078431
v -0.00842938 0.06244201 -0.12286278 0.94901961 0.28235294 0.56078431
v -0.05162572 0.04284244 -0.12298301 0.94901961 0.28235294 0.56078431
v -0.00967442 0.04535132 -0.12481614 0.94901961 0.28235294 0.56078431
v -0.02994304 0.16095876 -0.10509758 0.94901961 0.28235294 0.56078431
v -0.06294950 0.06117892 -0.10927254 0.94901961 0.28235294 0.56078431
v 0.00534119 0.13446771 -0.10915285 0.94901961 0.28235294 0.56078431
v -0.02625050 0.07739520 -0.12249459 0.94901961 0.28235294 0.56078431
v -0.06268499 0.04428803 -0.11449066 0.94901961 0.28235294 0.56078431
v -0.00374064 0.07336792 -0.11986502 0.94901961 0.28235294 0.56078431
v -0.03472087 0.14902180 -0.10660317 0.94901961 0.28235294 0.56078431
v -0.00569479 0.10574480 -0.11644192 0.94901961 0.28235294 0.56078431
v -0.02172261 0.07759010 -0.12244312 0.94901961 0.28235294 0.56078431
v -0.04131391 0.06575952 -0.12188812 0.94901961 0.28235294 0.56078431
v -0.05874605 0.04654634 -0.11731098 0.94901961 0.28235294 0.56078431
v -0.00551227 0.07285116 -0.12058263 0.94901961 0.28235294 0.56078431
v -0.01094784 0.07194875 -0.12214221 0.94901961 0.28235294 0.56078431
v -0.00544657 0.13902670 -0.11150275 0.94901961 0.28235294 0.56078431
v -0.03639694 0.07153847 -0.12191343 0.94901961 0.28235294 0.56078431
v -0.06062043 0.06017528 -0.11179527 0.94901961 0.28235294 0.56078431
v 0.10160145 0.14047195 0.04965131 0.94901961 0.28235294 0.43529412
v -0.02046263 0.16134507 -0.10750224 0.94901961 0.28235294 0.43529412
v 0.09205372 0.13776727 -0.03579297 0.94901961 0.28235294 0.43529412
v -0.02054084 0.16486651 -0.10596589 0.94901961 0.28235294 0.43529412
v 0.00683163 0.15460880 0.05047784 0.94901961 0.28235294 0.43529412
v 0.01920359 0.15587419 -0.09974495 0.94901961 0.28235294 0.43529412
v 0.00626498 0.16781226 -0.09066597 0.94901961 0.28235294 0.43529412
v -0.02210249 0.16753077 -0.02388775 0.94901961 0.28235294 0.43529412
v 0.00653016 0.15124739 -0.10630194 0.94901961 0.28235294 0.43529412
v 0.08095787 0.13885412 -0.04596994 0.94901961 0.28235294 0.43529412
v -0.00598294 0.16745329 -0.10241997 0.94901961 0.28235294 0.43529412
v 0.09908867 0.14605465 -0.01625447 0.94901961 0.28235294 0.43529412
v -0.02097288 0.16828832 -0.10235671 0.94901961 0.28235294 0.43529412
v 0.06701638 0.15051626 0.03174254 0.94901961 0.28235294 0.43529412
v 0.01954602 0.15096235 -0.10022687 0.94901961 0.28235294 0.43529412
v 0.02403156 0.15687744 -0.09549989 0.94901961 0.28235294 0.43529412
v -0.00031561 0.16093680 -0.10704171 0.94901961 0.28235294 0.43529412
v 0.10280048 0.14184242 -0.01826093 0.94901961 0.28235294 0.43529412
v 0.00393973 0.16750869 -0.09727632 0.94901961 0.28235294 0.43529412
v 0.03365993 0.15583229 0.02723533 0.94901961 0.28235294 0.43529412
v 0.08060731 0.14578837 0.05045359 0.94901961 0.28235294 0.43529412
v 0.07870739 0.15079440 -0.02922338 0.94901961 0.28235294 0.43529412
v -0.00091298 0.16274760 -0.10574712 0.94901961 0.28235294 0.43529412
v 0.10055607 0.14450824 -0.00125089 0.94901961 0.28235294 0.43529412
v 0.09025667 0.14128302 -0.03558711 0.94901961 0.28235294 0.43529412
v 0.02476802 0.16051450 -0.08659213 0.94901961 0.28235294 0.43529412
v 0.00579175 0.15679101 0.04219099 0.94901961 0.28235294 0.43529412
v -0.01110561 0.16691376 -0.02933540 0.94901961 0.28235294 0.43529412
v 0.09443051 0.14444227 0.02607307 0.94901961 0.28235294 0.43529412
v 0.00853583 0.16196610 -0.10263537 0.94901961 0.28235294 0.43529412
v 0.00652074 0.15496470 0.04915027 0.94901961 0.28235294 0.43529412
v 0.02846557 0.15273936 0.04891997 0.94901961 0.28235294 0.43529412
v 0.08321717 0.14537197 0.04877409 0.94901961 0.28235294 0.43529412
v 0.10002749 0.14098364 0.04931091 0.94901961 0.28235294 0.43529412
v 0.11066739 0.12484688 0.09733523 0.94901961 0.28235294 0.30980392
v 0.13112283 0.11816199 0.07390702 0.94901961 0.28235294 0.30980392
v 0.13036869 0.13476062 0.06372047 0.94901961 0.28235294 0.30980392
v 0.09295501 0.14160730 -0.03137149 0.94901961 0.28235294 0.30980392
v 0.09580300 0.12336004 -0.03395358 0.94901961 0.28235294 0.30980392
v 0.10504059 0.13630752 0.09287329 0.94901961 0.28235294 0.30980392
v 0.12905240 0.12934622 0.07364369 0.94901961 0.28235294 0.30980392
v 0.11443280 0.11804689 0.09583921 0.94901961 0.28235294 0.30980392
v 0.13061299 0.11692967 -0.00241077 0.94901961 0.28235294 0.30980392
v 0.09457153 0.14733424 -0.01741483 0.94901961 0.28235294 0.30980392
v 0.10091391 0.13820904 0.06614001 0.94901961 0.28235294 0.30980392
v 0.10798638 0.13458885 0.09215971 0.94901961 0.28235294 0.30980392
v 0.11745807 0.12738388 0.08860771 0.94901961 0.28235294 0.30980392
v 0.11911130 0.11679559 0.09064916 0.94901961 0.28235294 0.30980392
v 0.13047630 0.13391298 0.00282050 0.94901961 0.28235294 0.30980392
v 0.10145245 0.13296157 -0.02825598 0.94901961 0.28235294 0.30980392
v 0.10027009 0.14038927 0.05487318 0.94901961 0.28235294 0.30980392
v 0.11901755 0.13410967 0.07983967 0.94901961 0.28235294 0.30980392
v 0.11686070 0.11921929 0.09250647 0.94901961 0.28235294 0.30980392
v 0.12306658 0.11706753 0.08518114 0.94901961 0.28235294 0.30980392
v 0.11711067 0.11771980 -0.01596778 0.94901961 0.28235294 0.30980392
v 0.12391474 0.14016609 0.00626819 0.94901961 0.28235294 0.30980392
v 0.12979646 0.13208219 -0.00066611 0.94901961 0.28235294 0.30980392
v 0.10136029 0.13004643 -0.02888138 0.94901961 0.28235294 0.30980392
v 0.12602481 0.13899770 0.01145127 0.94901961 0.28235294 0.30980392
v 0.09418728 0.14683958 -0.02169248 0.94901961 0.28235294 0.30980392
v 0.12003091 0.11774398 -0.01354411 0.94901961 0.28235294 0.30980392
v 0.09724793 0.14020404 -0.02843340 0.94901961 0.28235294 0.30980392
v 0.09908867 0.14605465 -0.01625447 0.94901961 0.28235294 0.30980392
v 0.10236468 0.12358485 -0.02836353 0.94901961 0.28235294 0.30980392
v 0.10135510 0.13932507 -0.02476234 0.94901961 0.28235294 0.30980392
v -0.09172631 0.04486954 0.03626226 0.94901961 0.38039216 0.28235294
v -0.09190018 -0.13870024 0.05311604 0.94901961 0.38039216 0.28235294
v -0.10867109 0.11742310 -0.00116943 0.94901961 0.38039216 0.28235294
v -0.12386951 0.06123678 -0.01245424 0.94901961 0.38039216 0.28235294
v -0.15580703 -0.11693117 -0.00397964 0.94901961 0.38039216 0.28235294
v -0.09072082 -0.12256126 0.05175398 0.94901961 0.38039216 0.28235294
v -0.10059742 -0.14128605 0.05522382 0.94901961 0.38039216 0.28235294
v -0.16030638 -0.11663531 -0.01198852 0.94901961 0.38039216 0.28235294
v -0.09915674 0.11685877 0.01713244 0.94901961 0.38039216 0.28235294
v -0.09705417 0.11735468 0.01934452 0.94901961 0.38039216 0.28235294
v -0.12691425 -0.00640258 0.01114799 0.94901961 0.38039216 0.28235294
v -0.08932023 -0.00481687 0.04539787 0.94901961 0.38039216 0.28235294
v -0.11190330 -0.14126850 0.03428372 0.94901961 0.38039216 0.28235294
v -0.13703288 -0.00108050 -0.00891288 0.94901961 0.38039216 0.28235294
v -0.10480451 0.11885134 0.00749347 0.94901961 0.38039216 0.28235294
v -0.10495980 0.02769756 0.02682283 0.94901961 0.38039216 0.28235294
v -0.09916665 0.09495888 0.02189543 0.94901961 0.38039216 0.28235294
v -0.13224750 -0.01148476 0.00570493 0.94901961 0.38039216 0.28235294
v -0.09094296 0.01663283 0.04111147 0.94901961 0.38039216 0.28235294
v -0.10523818 -0.14352945 0.04265096 0.94901961 0.38039216 0.28235294
v -0.10915679 -0.14107416 0.04256701 0.94901961 0.38039216 0.28235294
v -0.13802553 -0.00081866 -0.01274943 0.94901961 0.38039216 0.28235294
v -0.10788357 0.11854558 0.00054552 0.94901961 0.38039216 0.28235294
v -0.12060267 0.02728986 0.01132244 0.94901961 0.38039216 0.28235294
v -0.09657672 0.09529264 0.02445536 0.94901961 0.38039216 0.28235294
v -0.15375623 -0.08407892 -0.00953218 0.94901961 0.38039216 0.28235294
v -0.12576800 0.03320685 0.00187251 0.94901961 0.38039216 0.28235294
v -0.09989331 -0.14264340 0.04670829 0.94901961 0.38039216 0.28235294
v -0.15544738 -0.08373016 -0.01362709 0.94901961 0.38039216 0.28235294
v -0.15590520 -0.10413912 -0.00755572 0.94901961 0.38039216 0.28235294
v -0.13699550 -0.02289051 0.00075364 0.94901961 0.38039216 0.28235294
v -0.10887874 0.11053970 0.00274681 0.94901961 0.38039216 0.28235294
v -0.10411801 0.11035400 0.01216004 0.94901961 0.38039216 0.28235294
v -0.15375501 -0.10073593 -0.00489719 0.94901961 0.38039216 0.28235294
v -0.10913722 0.09992230 0.00730085 0.94901961 0.38039216 0.28235294
v -0.10640599 0.10817354 0.00923618 0.94901961 0.38039216 0.28235294
v 0.09708160 0.08410659 0.10651205 0.94901961 0.50588235 0.28235294
v 0.12215839 -0.13876537 0.03751623 0.94901961 0.50588235 0.28235294
v 0.13467778 0.08578505 0.06269098 0.94901961 0.50588235 0.28235294
v 0.13977149 0.08442732 0.04938441 0.94901961 0.50588235 0.28235294
v 0.07443866 -0.09437836 0.10061085 0.94901961 0.50588235 0.28235294
v 0.13608099 0.02889978 0.04716937 0.94901961 0.50588235 0.28235294
v 0.10239245 0.08514244 0.10098826 0.94901961 0.50588235 0.28235294
v 0.08811501 0.03907000 0.10883579 0.94901961 0.50588235 0.28235294
v 0.12991227 -0.06546865 0.03660094 0.94901961 0.50588235 0.28235294
v 0.13638669 0.08281509 0.05818185 0.94901961 0.50588235 0.28235294
v 0.11193558 -0.13817039 0.05168096 0.94901961 0.50588235 0.28235294
v 0.09362594 0.07261500 0.10836005 0.94901961 0.50588235 0.28235294
v 0.07683944 -0.03882288 0.10831519 0.94901961 0.50588235 0.28235294
v 0.13405837 -0.02163556 0.03818445 0.94901961 0.50588235 0.28235294
v 0.12513436 -0.11011865 0.03678064 0.94901961 0.50588235 0.28235294
v 0.11970196 -0.13897048 0.04185045 0.94901961 0.50588235 0.28235294
v 0.11839151 0.08559871 0.08380916 0.94901961 0.50588235 0.28235294
v 0.07525391 -0.12234622 0.09596191 0.94901961 0.50588235 0.28235294
v 0.13353883 -0.02198936 0.03976759 0.94901961 0.50588235 0.28235294
v 0.10014405 -0.13958732 0.06428697 0.94901961 0.50588235 0.28235294
v 0.07634731 -0.04425782 0.10796790 0.94901961 0.50588235 0.28235294
v 0.08072579 -0.12199235 0.09053949 0.94901961 0.50588235 0.28235294
v 0.11201991 0.00743458 0.07753115 0.94901961 0.50588235 0.28235294
v 0.07810230 -0.12261273 0.09311989 0.94901961 0.50588235 0.28235294
v 0.09750186 -0.13916860 0.06760933 0.94901961 0.50588235 0.28235294
v 0.10117343 -0.03199724 0.08302394 0.94901961 0.50588235 0.28235294
v 0.00938543 0.13905715 0.10794436 0.94901961 0.62745098 0.28235294
v 0.00776588 -0.00519065 0.12614160 0.94901961 0.62745098 0.28235294
v 0.00673613 0.15334619 0.08748478 0.94901961 0.62745098 0.28235294
v -0.09016622 0.15621632 0.01915438 0.94901961 0.62745098 0.28235294
v -0.08294046 0.01125407 0.04922196 0.94901961 0.62745098 0.28235294
v -0.07814420 0.16563817 0.02407581 0.94901961 0.62745098 0.28235294
v 0.00915532 0.03328666 0.12316652 0.94901961 0.62745098 0.28235294
v -0.01049184 0.13285552 0.09332266 0.94901961 0.62745098 0.28235294
v -0.09534439 -0.00473449 0.04026371 0.94901961 0.62745098 0.28235294
v 0.00895380 0.14625876 0.10167556 0.94901961 0.62745098 0.28235294
v -0.07897461 0.16083744 0.02817571 0.94901961 0.62745098 0.28235294
v -0.00526225 0.01085894 0.11583952 0.94901961 0.62745098 0.28235294
v -0.09407268 0.09470578 0.02694954 0.94901961 0.62745098 0.28235294
v -0.08356819 -0.00561860 0.05023351 0.94901961 0.62745098 0.28235294
v -0.10806604 0.05690420 0.01947055 0.94901961 0.62745098 0.28235294
v 0.00531614 0.15168282 0.09160760 0.94901961 0.62745098 0.28235294
v 0.00768266 0.15204493 0.09192916 0.94901961 0.62745098 0.28235294
v 0.00964232 0.07277842 0.11891841 0.94901961 0.62745098 0.28235294
v -0.08712816 0.16178645 0.02064216 0.94901961 0.62745098 0.28235294
v -0.01151344 0.14673512 0.08819515 0.94901961 0.62745098 0.28235294
v -0.03298704 0.14794381 0.07096106 0.94901961 0.62745098 0.28235294
v 0.00362516 -0.00515711 0.12353404 0.94901961 0.62745098 0.28235294
v -0.03925013 -0.00552043 0.08879411 0.94901961 0.62745098 0.28235294
v -0.02117631 0.03312377 0.09951680 0.94901961 0.62745098 0.28235294
v -0.08862903 0.15555442 0.02148483 0.94901961 0.62745098 0.28235294
v -0.10669114 0.07343784 0.01771135 0.94901961 0.62745098 0.28235294
v -0.10607335 0.04543731 0.02292769 0.94901961 0.62745098 0.28235294
v -0.09930075 0.06128434 0.02700728 0.94901961 0.62745098 0.28235294
v -0.00154940 0.15051730 0.08996860 0.94901961 0.62745098 0.28235294
v -0.03167168 0.15964783 0.05896403 0.94901961 0.62745098 0.28235294
v 0.00589783 0.03330005 0.12102804 0.94901961 0.62745098 0.28235294
v -0.00483592 0.12747332 0.09895564 0.94901961 0.62745098 0.28235294
v 0.00458052 0.14539311 0.09989608 0.94901961 0.62745098 0.28235294
v -0.00021222 0.14233839 0.09929872 0.94901961 0.62745098 0.28235294
v -0.08987000 -0.00552405 0.04502577 0.94901961 0.62745098 0.28235294
v -0.00613301 -0.00541482 0.11657976 0.94901961 0.62745098 0.28235294
v -0.01073095 0.02183301 0.11010790 0.94901961 0.62745098 0.28235294
v -0.09335428 0.12741544 0.02179602 0.94901961 0.62745098 0.28235294
v -0.08498784 0.16048167 0.02344715 0.94901961 0.62745098 0.28235294
v -0.08305582 0.15573462 0.02634333 0.94901961 0.62745098 0.28235294
v -0.09962799 0.11781964 0.01634471 0.94901961 0.62745098 0.28235294
v -0.01084408 0.06072491 0.10412168 0.94901961 0.62745098 0.28235294
v 0.00239069 -0.00437918 0.12262171 0.94901961 0.62745098 0.28235294
v -0.00521280 0.05469563 0.10979142 0.94901961 0.62745098 0.28235294
v -0.03860423 0.00535800 0.08815288 0.94901961 0.62745098 0.28235294
v 0.09629884 0.14045544 -0.02888612 0.94901961 0.75294118 0.28235294
v 0.10375452 0.08447076 -0.03081001 0.94901961 0.75294118 0.28235294
v 0.01954602 0.15096235 -0.10022687 0.94901961 0.75294118 0.28235294
v 0.00483474 0.15107175 -0.10688319 0.94901961 0.75294118 0.28235294
v 0.06361073 0.15363888 -0.04520596 0.94901961 0.75294118 0.28235294
v 0.00616799 0.11217242 -0.11115502 0.94901961 0.75294118 0.28235294
v 0.09205372 0.13776727 -0.03579297 0.94901961 0.75294118 0.28235294
v 0.09240246 0.14276013 -0.03026348 0.94901961 0.75294118 0.28235294
v 0.00853222 0.15135035 -0.10553818 0.94901961 0.75294118 0.28235294
v 0.02940699 0.11233597 -0.09550903 0.94901961 0.75294118 0.28235294
v 0.06865878 0.08434311 -0.06271002 0.94901961 0.75294118 0.28235294
v 0.10178068 0.12335662 -0.02883698 0.94901961 0.75294118 0.28235294
v 0.07406137 0.14231346 -0.05126996 0.94901961 0.75294118 0.28235294
v 0.06526352 0.15226496 -0.04834529 0.94901961 0.75294118 0.28235294
v 0.00994641 0.12989673 -0.10759296 0.94901961 0.75294118 0.28235294
v 0.02172130 0.11192777 -0.10151329 0.94901961 0.75294118 0.28235294
v 0.07488742 0.08408487 -0.05711331 0.94901961 0.75294118 0.28235294
v 0.02983130 0.12826729 -0.09464767 0.94901961 0.75294118 0.28235294
v 0.05181398 0.14410147 -0.07253930 0.94901961 0.75294118 0.28235294
v 0.06979887 0.15222551 -0.04283184 0.94901961 0.75294118 0.28235294
v 0.07468663 0.14599582 -0.04651434 0.94901961 0.75294118 0.28235294
v 0.00928456 0.15111563 -0.10522639 0.94901961 0.75294118 0.28235294
v 0.00856075 0.11224127 -0.10995685 0.94901961 0.75294118 0.28235294
v 0.09820866 0.08403059 -0.03610756 0.94901961 0.75294118 0.28235294
v 0.06591751 0.15311828 -0.04439737 0.94901961 0.75294118 0.28235294
v 0.06672083 0.15108855 -0.04837988 0.94901961 0.75294118 0.28235294
v 0.01415878 0.13349961 -0.10495170 0.94901961 0.75294118 0.28235294
v 0.01398750 0.11193728 -0.10657634 0.94901961 0.75294118 0.28235294
v 0.10076183 0.08466817 -0.03368813 0.94901961 0.75294118 0.28235294
v 0.07148270 0.08460523 -0.06018567 0.94901961 0.75294118 0.28235294
v -0.10043365 0.16272646 -0.02296780 0.94901961 0.87843137 0.28235294
v -0.03148320 0.08895872 -0.11933354 0.94901961 0.87843137 0.28235294
v -0.03170603 0.16141410 -0.10433665 0.94901961 0.87843137 0.28235294
v -0.03200504 0.13892065 -0.11173575 0.94901961 0.87843137 0.28235294
v -0.10540335 0.06023714 -0.06278885 0.94901961 0.87843137 0.28235294
v -0.03143297 0.09434736 -0.11805143 0.94901961 0.87843137 0.28235294
v -0.10416562 0.13988004 -0.02276604 0.94901961 0.87843137 0.28235294
v -0.05161761 0.06066787 -0.11874256 0.94901961 0.87843137 0.28235294
v -0.08758469 0.16531474 -0.05146944 0.94901961 0.87843137 0.28235294
v -0.11310559 0.06261873 -0.05258071 0.94901961 0.87843137 0.28235294
v -0.04330477 0.06176683 -0.12222872 0.94901961 0.87843137 0.28235294
v -0.07679822 0.17255952 -0.05052593 0.94901961 0.87843137 0.28235294
v -0.04367055 0.13838179 -0.10665200 0.94901961 0.87843137 0.28235294
v -0.10799593 0.11705163 -0.03326798 0.94901961 0.87843137 0.28235294
v -0.11058802 0.06358489 -0.05573453 0.94901961 0.87843137 0.28235294
v -0.08652876 0.16981314 -0.04922367 0.94901961 0.87843137 0.28235294
v -0.06519817 0.07652498 -0.10110369 0.94901961 0.87843137 0.28235294
v -0.09306942 0.07090294 -0.07323191 0.94901961 0.87843137 0.28235294
v -0.03542001 0.13883366 -0.11089745 0.94901961 0.87843137 0.28235294
v -0.04020548 0.16097619 -0.10049510 0.94901961 0.87843137 0.28235294
v -0.10077848 0.16152663 -0.02295446 0.94901961 0.87843137 0.28235294
v -0.09775209 0.16050382 -0.03560652 0.94901961 0.87843137 0.28235294
v -0.04493743 0.06277004 -0.12141546 0.94901961 0.87843137 0.28235294
v -0.04028424 0.12746230 -0.11100700 0.94901961 0.87843137 0.28235294
v -0.07721593 0.16540139 -0.06251465 0.94901961 0.87843137 0.28235294
v -0.03306957 0.16331793 -0.10306411 0.94901961 0.87843137 0.28235294
v -0.10026965 0.15821697 -0.02986500 0.94901961 0.87843137 0.28235294
v -0.09870330 0.16389664 -0.02976389 0.94901961 0.87843137 0.28235294
v -0.06559168 0.15523371 -0.07809101 0.94901961 0.87843137 0.28235294
v -0.08437076 0.16891202 -0.05276895 0.94901961 0.87843137 0.28235294
v -0.07552930 0.16982302 -0.06029234 0.94901961 0.87843137 0.28235294
v -0.07830123 0.16982732 -0.05766873 0.94901961 0.87843137 0.28235294
v -0.15582070 -0.08525705 -0.05389734 0.89411765 0.94901961 0.28235294
v -0.07683011 -0.12226409 -0.15057146 0.89411765 0.94901961 0.28235294
v -0.07873855 -0.07122417 -0.13683421 0.89411765 0.94901961 0.28235294
v -0.09166683 -0.12522001 -0.15285033 0.89411765 0.94901961 0.28235294
v -0.15985447 -0.14045652 -0.07816765 0.89411765 0.94901961 0.28235294
v -0.07444178 -0.07384150 -0.14054398 0.89411765 0.94901961 0.28235294
v -0.15697104 -0.09794276 -0.07427669 0.89411765 0.94901961 0.28235294
v -0.14177159 -0.13280031 -0.07930065 0.89411765 0.94901961 0.28235294
v -0.09083803 -0.13804741 -0.15349708 0.89411765 0.94901961 0.28235294
v -0.07561044 -0.09521718 -0.14540001 0.89411765 0.94901961 0.28235294
v -0.10147068 -0.10243661 -0.13883261 0.89411765 0.94901961 0.28235294
v -0.13573766 -0.07083184 -0.07608230 0.89411765 0.94901961 0.28235294
v -0.16233420 -0.12180715 -0.07626863 0.89411765 0.94901961 0.28235294
v -0.16051103 -0.10546736 -0.05630582 0.89411765 0.94901961 0.28235294
v -0.09602726 -0.12946403 -0.12648165 0.89411765 0.94901961 0.28235294
v -0.15473699 -0.14081291 -0.08365101 0.89411765 0.94901961 0.28235294
v -0.13869690 -0.07182210 -0.07333974 0.89411765 0.94901961 0.28235294
v -0.09927189 -0.07006013 -0.11638319 0.89411765 0.94901961 0.28235294
v -0.15427310 -0.10197581 -0.07905256 0.89411765 0.94901961 0.28235294
v -0.13281719 -0.13058423 -0.11243886 0.89411765 0.94901961 0.28235294
v -0.16340027 -0.13794567 -0.07607833 0.89411765 0.94901961 0.28235294
v -0.09828008 -0.13817646 -0.14469760 0.89411765 0.94901961 0.28235294
v -0.15247203 -0.08184668 -0.05800369 0.89411765 0.94901961 0.28235294
v -0.09532034 -0.12552813 -0.15097576 0.89411765 0.94901961 0.28235294
v -0.16042505 -0.12384032 -0.07912436 0.89411765 0.94901961 0.28235294
v -0.13782685 -0.13783134 -0.10753365 0.89411765 0.94901961 0.28235294
v -0.14818272 -0.14078094 -0.09192157 0.89411765 0.94901961 0.28235294
v -0.09298293 -0.13718115 -0.15166348 0.89411765 0.94901961 0.28235294
v -0.13792577 -0.13340140 -0.10715029 0.89411765 0.94901961 0.28235294
v -0.16075081 -0.13709658 -0.07934651 0.89411765 0.94901961 0.28235294
v 0.02715989 -0.17088396 0.13899191 0.76862745 0.94901961 0.28235294
v 0.08157111 -0.17507525 0.09252356 0.76862745 0.94901961 0.28235294
v 0.06333670 -0.16047078 0.11549564 0.76862745 0.94901961 0.28235294
v 0.07145338 -0.16029565 0.09208547 0.76862745 0.94901961 0.28235294
v -0.01640438 -0.17468101 0.11341181 0.76862745 0.94901961 0.28235294
v 0.08106313 -0.17201211 0.09251375 0.76862745 0.94901961 0.28235294
v 0.04186564 -0.17358590 0.13169473 0.76862745 0.94901961 0.28235294
v 0.06632354 -0.19006357 0.09428044 0.76862745 0.94901961 0.28235294
v -0.01345387 -0.16227518 0.13332598 0.76862745 0.94901961 0.28235294
v 0.07855884 -0.17156468 0.09644869 0.76862745 0.94901961 0.28235294
v 0.07500015 -0.18390209 0.09212393 0.76862745 0.94901961 0.28235294
v 0.04339394 -0.16941315 0.13217136 0.76862745 0.94901961 0.28235294
v 0.03360120 -0.18925093 0.11656755 0.76862745 0.94901961 0.28235294
v -0.00133283 -0.16386119 0.13875132 0.76862745 0.94901961 0.28235294
v 0.06861369 -0.15937641 0.09558428 0.76862745 0.94901961 0.28235294
v -0.01632861 -0.16480710 0.11361789 0.76862745 0.94901961 0.28235294
v 0.07550595 -0.18229167 0.09467999 0.76862745 0.94901961 0.28235294
v 0.07917724 -0.17602991 0.09486411 0.76862745 0.94901961 0.28235294
v 0.05653229 -0.16069186 0.12074739 0.76862745 0.94901961 0.28235294
v 0.04158819 -0.17874890 0.12825657 0.76862745 0.94901961 0.28235294
v 0.02936157 -0.18885229 0.11752939 0.76862745 0.94901961 0.28235294
v -0.01307399 -0.17006532 0.13274633 0.76862745 0.94901961 0.28235294
v 0.02765268 -0.16963738 0.13831075 0.76862745 0.94901961 0.28235294
v 0.05103776 -0.19023395 0.10532138 0.76862745 0.94901961 0.28235294
v 0.02213231 -0.17200492 0.13937514 0.76862745 0.94901961 0.28235294
v -0.00244511 -0.16551535 0.13888816 0.76862745 0.94901961 0.28235294
v 0.01396080 -0.18390313 0.11947549 0.76862745 0.94901961 0.28235294
v 0.01171585 -0.16660908 0.13887961 0.76862745 0.94901961 0.28235294
v 0.06444736 -0.19032348 0.09558299 0.76862745 0.94901961 0.28235294
v 0.01800537 -0.17124261 0.14021094 0.76862745 0.94901961 0.28235294
v 0.05154247 -0.04405324 0.12824389 0.64313725 0.94901961 0.28235294
v 0.07631582 -0.13836359 0.09158315 0.64313725 0.94901961 0.28235294
v 0.06209880 -0.15993156 0.11736061 0.64313725 0.94901961 0.28235294
v 0.08419245 -0.04395499 0.09933451 0.64313725 0.94901961 0.28235294
v 0.02893274 -0.07749601 0.13313636 0.64313725 0.94901961 0.28235294
v 0.05991977 -0.04375488 0.12349604 0.64313725 0.94901961 0.28235294
v 0.04497195 -0.04958049 0.13053907 0.64313725 0.94901961 0.28235294
v 0.07975836 -0.09430623 0.09476888 0.64313725 0.94901961 0.28235294
v 0.02922573 -0.16182908 0.12908899 0.64313725 0.94901961 0.28235294
v 0.03958140 -0.16718210 0.13243278 0.64313725 0.94901961 0.28235294
v 0.07908670 -0.04510415 0.10477480 0.64313725 0.94901961 0.28235294
v 0.08143195 -0.04355198 0.10245427 0.64313725 0.94901961 0.28235294
v 0.08150091 -0.07138145 0.09682114 0.64313725 0.94901961 0.28235294
v 0.06618443 -0.16016553 0.09773547 0.64313725 0.94901961 0.28235294
v 0.05388383 -0.04435793 0.12695110 0.64313725 0.94901961 0.28235294
v 0.04967178 -0.04953337 0.12897840 0.64313725 0.94901961 0.28235294
v 0.02944081 -0.07753492 0.13308485 0.64313725 0.94901961 0.28235294
v 0.02840404 -0.16022881 0.12981717 0.64313725 0.94901961 0.28235294
v 0.06136382 -0.16238192 0.10218819 0.64313725 0.94901961 0.28235294
v -0.11789092 0.07346698 0.00000199 0.51764706 0.94901961 0.28235294
v -0.11987782 0.06279833 0.00090692 0.51764706 0.94901961 0.28235294
v -0.12452582 0.04602756 -0.04049879 0.51764706 0.94901961 0.28235294
v -0.11858414 0.07235536 -0.00156489 0.51764706 0.94901961 0.28235294
v -0.15399253 -0.07372463 -0.01438921 0.51764706 0.94901961 0.28235294
v -0.12013291 0.07395658 -0.02922173 0.51764706 0.94901961 0.28235294
v -0.12540861 0.04362593 -0.00264329 0.51764706 0.94901961 0.28235294
v -0.15439585 -0.08775892 -0.00980064 0.51764706 0.94901961 0.28235294
v -0.12029452 0.07175433 -0.00775320 0.51764706 0.94901961 0.28235294
v -0.16037203 -0.08876668 -0.03959106 0.51764706 0.94901961 0.28235294
v -0.13020867 0.01234792 0.00110232 0.51764706 0.94901961 0.28235294
v -0.12034338 0.06592658 -0.00261760 0.51764706 0.94901961 0.28235294
v -0.14811064 -0.03999478 -0.01874868 0.51764706 0.94901961 0.28235294
v -0.15424736 -0.06261440 -0.03860124 0.51764706 0.94901961 0.28235294
v -0.15631029 -0.08955628 -0.01362534 0.51764706 0.94901961 0.28235294
v -0.12701778 0.03532888 -0.04140958 0.51764706 0.94901961 0.28235294
v -0.13150211 0.01593758 -0.00332786 0.51764706 0.94901961 0.28235294
v -0.15377913 -0.06251512 -0.02410494 0.51764706 0.94901961 0.28235294
v -0.13686131 0.00419492 -0.03758236 0.51764706 0.94901961 0.28235294
v -0.12081697 0.07178964 -0.02789283 0.51764706 0.94901961 0.28235294
v -0.15641629 -0.08747732 -0.01578052 0.51764706 0.94901961 0.28235294
v -0.15987658 -0.08731216 -0.04033841 0.51764706 0.94901961 0.28235294
v -0.15564927 -0.07091574 -0.04053037 0.51764706 0.94901961 0.28235294
v 0.06579361 -0.14478446 0.10339950 0.39215686 0.94901961 0.28235294
v 0.12426478 -0.17522341 0.03864644 0.39215686 0.94901961 0.28235294
v 0.11684565 -0.15220146 0.05703632 0.39215686 0.94901961 0.28235294
v 0.12215839 -0.13876537 0.03751623 0.39215686 0.94901961 0.28235294
v 0.06356464 -0.19044576 0.09619582 0.39215686 0.94901961 0.28235294
v 0.11784377 -0.15967918 0.05614388 0.39215686 0.94901961 0.28235294
v 0.08072579 -0.12199235 0.09053949 0.39215686 0.94901961 0.28235294
v 0.07855052 -0.17468807 0.07819361 0.39215686 0.94901961 0.28235294
v 0.10624788 -0.17978437 0.06297461 0.39215686 0.94901961 0.28235294
v 0.10117200 -0.12212873 0.06615257 0.39215686 0.94901961 0.28235294
v 0.08071183 -0.17960363 0.09131767 0.39215686 0.94901961 0.28235294
v 0.06306321 -0.16150087 0.10041488 0.39215686 0.94901961 0.28235294
v 0.11257371 -0.17486262 0.03967052 0.39215686 0.94901961 0.28235294
v 0.11560617 -0.19188794 0.04360544 0.39215686 0.94901961 0.28235294
v 0.09607853 -0.12163415 0.07277366 0.39215686 0.94901961 0.28235294
v 0.07525391 -0.12234622 0.09596191 0.39215686 0.94901961 0.28235294
v 0.11793601 -0.17364439 0.05317435 0.39215686 0.94901961 0.28235294
v 0.11366551 -0.17513689 0.03894159 0.39215686 0.94901961 0.28235294
v 0.07917843 -0.18274451 0.07774424 0.39215686 0.94901961 0.28235294
v 0.09672123 -0.18963697 0.06548149 0.39215686 0.94901961 0.28235294
v 0.10676482 -0.18944864 0.05525666 0.39215686 0.94901961 0.28235294
v 0.09904642 -0.12231080 0.06910248 0.39215686 0.94901961 0.28235294
v 0.06589138 -0.19012344 0.09458047 0.39215686 0.94901961 0.28235294
v 0.07072983 -0.18985134 0.09026032 0.39215686 0.94901961 0.28235294
v -0.01291986 -0.02205328 0.11326307 0.28235294 0.94901961 0.29803922
v -0.01552818 -0.12778077 0.12196118 0.28235294 0.94901961 0.29803922
v -0.07152852 -0.11621817 0.06635820 0.28235294 0.94901961 0.29803922
v -0.09261167 -0.00515359 0.04264114 0.28235294 0.94901961 0.29803922
v -0.04330826 -0.02821393 0.08845513 0.28235294 0.94901961 0.29803922
v -0.09647651 -0.12699495 0.04789524 0.28235294 0.94901961 0.29803922
v -0.07657755 0.01166560 0.05462765 0.28235294 0.94901961 0.29803922
v -0.02135501 -0.08767622 0.11085744 0.28235294 0.94901961 0.29803922
v -0.01887405 -0.12799698 0.11943351 0.28235294 0.94901961 0.29803922
v -0.06055024 -0.12590589 0.07758185 0.28235294 0.94901961 0.29803922
v -0.09328200 -0.12627514 0.05017732 0.28235294 0.94901961 0.29803922
v -0.01460683 -0.00505423 0.10982631 0.28235294 0.94901961 0.29803922
v -0.06804068 0.01132962 0.06247976 0.28235294 0.94901961 0.29803922
v -0.01263779 -0.08348072 0.11913297 0.28235294 0.94901961 0.29803922
v -0.02058669 -0.01539752 0.10630019 0.28235294 0.94901961 0.29803922
v -0.09891320 -0.08860479 0.04348887 0.28235294 0.94901961 0.29803922
v -0.09144981 -0.12877395 0.05233887 0.28235294 0.94901961 0.29803922
v -0.02134901 -0.12770978 0.11597191 0.28235294 0.94901961 0.29803922
v -0.07028872 0.01276937 0.06021167 0.28235294 0.94901961 0.29803922
v -0.06489948 0.01155295 0.06518155 0.28235294 0.94901961 0.29803922
v -0.09378443 -0.02841018 0.04380496 0.28235294 0.94901961 0.29803922
v -0.09678213 -0.02775994 0.04099585 0.28235294 0.94901961 0.29803922
v -0.03267204 -0.12812172 0.10542617 0.28235294 0.94901961 0.29803922
v -0.02159557 -0.01180641 0.10498693 0.28235294 0.94901961 0.29803922
v -0.15532798 -0.08863657 -0.01168791 0.28235294 0.94901961 0.41960784
v -0.14177159 -0.13280031 -0.07930065 0.28235294 0.94901961 0.41960784
v -0.15572546 -0.08848503 -0.05659420 0.28235294 0.94901961 0.41960784
v -0.15546883 -0.10530698 -0.07894071 0.28235294 0.94901961 0.41960784
v -0.17712880 -0.14089816 -0.02392846 0.28235294 0.94901961 0.41960784
v -0.16018175 -0.13111684 -0.01039883 0.28235294 0.94901961 0.41960784
v -0.16588506 -0.13696073 -0.07360871 0.28235294 0.94901961 0.41960784
v -0.17647471 -0.12457884 -0.05002076 0.28235294 0.94901961 0.41960784
v -0.17279474 -0.14078094 -0.01130219 0.28235294 0.94901961 0.41960784
v -0.15729248 -0.14065083 -0.08087579 0.28235294 0.94901961 0.41960784
v -0.17656605 -0.12581043 -0.02448237 0.28235294 0.94901961 0.41960784
v -0.15966795 -0.09047282 -0.02496044 0.28235294 0.94901961 0.41960784
v -0.17674596 -0.14095992 -0.04904431 0.28235294 0.94901961 0.41960784
v -0.17241670 -0.12047872 -0.05971417 0.28235294 0.94901961 0.41960784
v -0.16721058 -0.12944296 -0.07266733 0.28235294 0.94901961 0.41960784
v -0.17685360 -0.12907480 -0.05518630 0.28235294 0.94901961 0.41960784
v -0.17305353 -0.12424920 -0.01372648 0.28235294 0.94901961 0.41960784
v -0.15895174 -0.09058265 -0.04886846 0.28235294 0.94901961 0.41960784
v -0.17155135 -0.13965604 -0.06349532 0.28235294 0.94901961 0.41960784
v -0.15769776 -0.10594879 -0.07689309 0.28235294 0.94901961 0.41960784
v -0.15631029 -0.08955628 -0.01362534 0.28235294 0.94901961 0.41960784
v -0.17663710 -0.13792591 -0.01948984 0.28235294 0.94901961 0.41960784
v -0.16260188 -0.14049879 -0.07511738 0.28235294 0.94901961 0.41960784
v -0.17648328 -0.13761285 -0.05434579 0.28235294 0.94901961 0.41960784
v -0.17590251 -0.12952857 -0.01962475 0.28235294 0.94901961 0.41960784
v -0.17393290 -0.14078094 -0.01354028 0.28235294 0.94901961 0.41960784
v 0.07564417 0.12322035 0.12783708 0.28235294 0.94901961 0.54509804
v 0.08143195 -0.04355198 0.10245427 0.28235294 0.94901961 0.54509804
v 0.06344567 -0.03775785 0.12133040 0.28235294 0.94901961 0.54509804
v 0.09970426 0.08459974 0.10377127 0.28235294 0.94901961 0.54509804
v 0.04539591 0.12338173 0.13045552 0.28235294 0.94901961 0.54509804
v 0.07053965 -0.04923798 0.11348194 0.28235294 0.94901961 0.54509804
v 0.07948267 0.06835108 0.12137988 0.28235294 0.94901961 0.54509804
v 0.08091297 0.12324492 0.12575150 0.28235294 0.94901961 0.54509804
v 0.09813970 0.06819609 0.10227093 0.28235294 0.94901961 0.54509804
v 0.04491678 -0.04394290 0.13065203 0.28235294 0.94901961 0.54509804
v 0.09070410 0.06711178 0.11096415 0.28235294 0.94901961 0.54509804
v 0.07892746 0.02372908 0.11619824 0.28235294 0.94901961 0.54509804
v 0.07700423 0.12350671 0.12735131 0.28235294 0.94901961 0.54509804
v 0.05508511 -0.05499387 0.12512481 0.28235294 0.94901961 0.54509804
v 0.04599223 0.12333743 0.13052036 0.28235294 0.94901961 0.54509804
v 0.07869051 -0.04315803 0.10557918 0.28235294 0.94901961 0.54509804
v 0.09460887 0.08358026 0.10918697 0.28235294 0.94901961 0.54509804
v 0.07340360 0.02934307 0.12154370 0.28235294 0.94901961 0.54509804
v 0.06786163 -0.04905870 0.11610249 0.28235294 0.94901961 0.54509804
v 0.08476705 0.06290021 0.11605587 0.28235294 0.94901961 0.54509804
v 0.04921669 -0.05466686 0.12859153 0.28235294 0.94901961 0.54509804
v 0.09696348 0.08505684 0.10681047 0.28235294 0.94901961 0.54509804
v 0.05112332 -0.05516003 0.12750043 0.28235294 0.94901961 0.54509804
v 0.04655554 -0.04404759 0.13016892 0.28235294 0.94901961 0.54509804
v -0.01615781 -0.14649821 -0.12578109 0.28235294 0.94901961 0.67058824
v -0.07523714 -0.12856536 -0.16136560 0.28235294 0.94901961 0.67058824
v -0.03840194 -0.14567471 -0.16122524 0.28235294 0.94901961 0.67058824
v -0.07206143 -0.12876236 -0.16196137 0.28235294 0.94901961 0.67058824
v -0.02609754 -0.12233497 -0.14705047 0.28235294 0.94901961 0.67058824
v -0.07451037 -0.14074810 -0.16163806 0.28235294 0.94901961 0.67058824
v -0.09421019 -0.12969575 -0.12890239 0.28235294 0.94901961 0.67058824
v -0.08570853 -0.12099161 -0.14603906 0.28235294 0.94901961 0.67058824
v -0.01984929 -0.14736471 -0.15016247 0.28235294 0.94901961 0.67058824
v -0.04369002 -0.13130551 -0.16190863 0.28235294 0.94901961 0.67058824
v -0.09602804 -0.13831905 -0.14744008 0.28235294 0.94901961 0.67058824
v -0.01398977 -0.13315892 -0.13797355 0.28235294 0.94901961 0.67058824
v -0.03380767 -0.12254544 -0.14981656 0.28235294 0.94901961 0.67058824
v -0.08503592 -0.12560072 -0.15672401 0.28235294 0.94901961 0.67058824
v -0.09441993 -0.12091282 -0.14214711 0.28235294 0.94901961 0.67058824
v -0.02079694 -0.13479343 -0.15186342 0.28235294 0.94901961 0.67058824
v -0.01842442 -0.14595541 -0.12566797 0.28235294 0.94901961 0.67058824
v -0.02961529 -0.14694107 -0.15645267 0.28235294 0.94901961 0.67058824
v -0.02819165 -0.12186194 -0.14809413 0.28235294 0.94901961 0.67058824
v -0.08196946 -0.13838475 -0.15914106 0.28235294 0.94901961 0.67058824
v -0.09166683 -0.12522001 -0.15285033 0.28235294 0.94901961 0.67058824
v -0.03818840 -0.14436213 -0.16123873 0.28235294 0.94901961 0.67058824
v -0.09083803 -0.13804741 -0.15349708 0.28235294 0.94901961 0.67058824
v -0.08562194 -0.13814596 -0.15733972 0.28235294 0.94901961 0.67058824
v -0.08375396 -0.13868028 -0.15822171 0.28235294 0.94901961 0.67058824
v 0.04599223 0.12333743 0.13052036 0.28235294 0.94901961 0.79607843
v 0.04580748 0.08453598 0.13181755 0.28235294 0.94901961 0.79607843
v 0.00504381 0.12379466 0.10747053 0.28235294 0.94901961 0.79607843
v 0.04564662 0.08421797 0.13184041 0.28235294 0.94901961 0.79607843
v 0.00525860 -0.00486155 0.12450206 0.28235294 0.94901961 0.79607843
v 0.02400248 -0.00505987 0.13170095 0.28235294 0.94901961 0.79607843
v 0.03092183 0.12242612 0.12687914 0.28235294 0.94901961 0.79607843
v 0.00381512 0.10164232 0.10901738 0.28235294 0.94901961 0.79607843
v 0.04539591 0.12338173 0.13045552 0.28235294 0.94901961 0.79607843
v 0.01689748 0.09490204 0.12121479 0.28235294 0.94901961 0.79607843
v 0.00963265 -0.00599649 0.12716790 0.28235294 0.94901961 0.79607843
v 0.00393337 0.02880915 0.12013688 0.28235294 0.94901961 0.79607843
v 0.00864206 0.12421642 0.11015183 0.28235294 0.94901961 0.79607843
v 0.01589142 0.04466678 0.12627504 0.28235294 0.94901961 0.79607843
v 0.02274840 0.12141667 0.12138151 0.28235294 0.94901961 0.79607843
v 0.01045610 0.12266939 0.11186715 0.28235294 0.94901961 0.79607843
v 0.00774540 0.02934722 0.12285459 0.28235294 0.94901961 0.79607843
v 0.01120408 0.06081192 0.12142842 0.28235294 0.94901961 0.79607843
v 0.07800462 0.13295085 0.12553720 0.28235294 0.94901961 0.92156863
v 0.13532960 0.08421006 0.06101499 0.28235294 0.94901961 0.92156863
v 0.09626117 0.09661164 0.11030905 0.28235294 0.94901961 0.92156863
v 0.13735050 0.11787755 0.06438467 0.28235294 0.94901961 0.92156863
v 0.10218522 0.13798758 0.08829717 0.28235294 0.94901961 0.92156863
v 0.12290836 0.10733944 0.08483453 0.28235294 0.94901961 0.92156863
v 0.10837340 0.13159066 0.09583235 0.28235294 0.94901961 0.92156863
v 0.13731709 0.10049070 0.06195963 0.28235294 0.94901961 0.92156863
v 0.07770734 0.08463726 0.12443120 0.28235294 0.94901961 0.92156863
v 0.12383528 0.08323963 0.07661410 0.28235294 0.94901961 0.92156863
v 0.08502469 0.13155242 0.12192189 0.28235294 0.94901961 0.92156863
v 0.10799604 0.13570708 0.08920909 0.28235294 0.94901961 0.92156863
v 0.12306658 0.11706753 0.08518114 0.28235294 0.94901961 0.92156863
v 0.13495435 0.10736441 0.06800249 0.28235294 0.94901961 0.92156863
v 0.08051871 0.13725649 0.11811456 0.28235294 0.94901961 0.92156863
v 0.11769099 0.09736745 0.08839862 0.28235294 0.94901961 0.92156863
v 0.13046386 0.08495891 0.06860252 0.28235294 0.94901961 0.92156863
v 0.13400459 0.08357094 0.06314642 0.28235294 0.94901961 0.92156863
v 0.08264754 0.08373632 0.12069616 0.28235294 0.94901961 0.92156863
v 0.08549724 0.10725198 0.12160265 0.28235294 0.94901961 0.92156863
v 0.11027678 0.13236436 0.09244198 0.28235294 0.94901961 0.92156863
v 0.10325403 0.13770624 0.08770701 0.28235294 0.94901961 0.92156863
v 0.13514127 0.11887644 0.06849751 0.28235294 0.94901961 0.92156863
v 0.10108126 0.13074678 0.10552912 0.28235294 0.94901961 0.92156863
v 0.13721613 0.10717898 0.06422637 0.28235294 0.94901961 0.92156863
v 0.10656134 0.09288063 0.09899988 0.28235294 0.94901961 0.92156863
v 0.08054164 0.08533713 0.12294619 0.28235294 0.94901961 0.92156863
v 0.11232475 0.12650924 0.09465223 0.28235294 0.94901961 0.92156863
v 0.01329613 -0.00527455 0.12848715 0.28235294 0.85098039 0.94901961
v 0.01228309 -0.16086205 0.13217273 0.28235294 0.85098039 0.94901961
v 0.01182629 -0.16273556 0.13117705 0.28235294 0.85098039 0.94901961
v -0.01730145 -0.00483748 0.10744502 0.28235294 0.85098039 0.94901961
v -0.01496777 -0.16135746 0.13227355 0.28235294 0.85098039 0.94901961
v 0.00586736 -0.14517543 0.13282366 0.28235294 0.85098039 0.94901961
v 0.00239069 -0.00437918 0.12262171 0.28235294 0.85098039 0.94901961
v -0.01593328 -0.16192803 0.12252802 0.28235294 0.85098039 0.94901961
v -0.00385677 -0.15466170 0.13290941 0.28235294 0.85098039 0.94901961
v 0.00963265 -0.00599649 0.12716790 0.28235294 0.85098039 0.94901961
v 0.01011110 -0.00432296 0.12716942 0.28235294 0.85098039 0.94901961
v -0.01182606 -0.00535040 0.11234043 0.28235294 0.85098039 0.94901961
v -0.01980893 -0.13197464 0.11952615 0.28235294 0.85098039 0.94901961
v -0.01852526 -0.08830874 0.11378397 0.28235294 0.85098039 0.94901961
v -0.01192979 -0.16327383 0.12483916 0.28235294 0.85098039 0.94901961
v 0.00709445 -0.15568248 0.13258040 0.28235294 0.85098039 0.94901961
v 0.01027356 -0.03766548 0.12949992 0.28235294 0.85098039 0.94901961
v -0.01434459 -0.00464453 0.11003810 0.28235294 0.85098039 0.94901961
v -0.01851604 -0.02695951 0.10894942 0.28235294 0.85098039 0.94901961
v 0.04580748 0.08453598 0.13181755 0.28235294 0.72549020 0.94901961
v 0.02922573 -0.16182908 0.12908899 0.28235294 0.72549020 0.94901961
v 0.05146218 -0.04966077 0.12806854 0.28235294 0.72549020 0.94901961
v 0.02869835 0.08436892 0.12843828 0.28235294 0.72549020 0.94901961
v 0.01283296 -0.13844636 0.13294634 0.28235294 0.72549020 0.94901961
v 0.01210559 -0.00495110 0.12801997 0.28235294 0.72549020 0.94901961
v 0.05191026 -0.00500538 0.12957462 0.28235294 0.72549020 0.94901961
v 0.02949920 0.00074403 0.13300740 0.28235294 0.72549020 0.94901961
v 0.02330685 0.06759136 0.12792260 0.28235294 0.72549020 0.94901961
v 0.01182629 -0.16273556 0.13117705 0.28235294 0.72549020 0.94901961
v 0.02756770 -0.13833030 0.13254695 0.28235294 0.72549020 0.94901961
v 0.03046885 0.08390396 0.12912282 0.28235294 0.72549020 0.94901961
v 0.01353995 -0.09468521 0.13237800 0.28235294 0.72549020 0.94901961
v 0.02491801 0.06734073 0.12851582 0.28235294 0.72549020 0.94901961
v 0.02840404 -0.16022881 0.12981717 0.28235294 0.72549020 0.94901961
v 0.04967178 -0.04953337 0.12897840 0.28235294 0.72549020 0.94901961
v 0.01228309 -0.16086205 0.13217273 0.28235294 0.72549020 0.94901961
v 0.03385237 -0.00482179 0.13311475 0.28235294 0.72549020 0.94901961
v 0.04564662 0.08421797 0.13184041 0.28235294 0.72549020 0.94901961
v 0.01929512 -0.05039428 0.13227378 0.28235294 0.72549020 0.94901961
v 0.01329613 -0.00527455 0.12848715 0.28235294 0.72549020 0.94901961
v 0.05017246 -0.00491238 0.13018397 0.28235294 0.72549020 0.94901961
v 0.03377159 0.00065670 0.13312421 0.28235294 0.72549020 0.94901961
v 0.03309223 -0.07719620 0.13264681 0.28235294 0.72549020 0.94901961
v 0.11238992 -0.17245874 0.05939732 0.28235294 0.60000000 0.94901961
v 0.12835682 -0.18086708 0.03129214 0.28235294 0.60000000 0.94901961
v 0.12320496 -0.16007458 0.03112852 0.28235294 0.60000000 0.94901961
v 0.10964627 -0.16610434 -0.03288453 0.28235294 0.60000000 0.94901961
v 0.11560617 -0.19188794 0.04360544 0.28235294 0.60000000 0.94901961
v 0.12922889 -0.17161529 -0.00479201 0.28235294 0.60000000 0.94901961
v 0.11708346 -0.16233872 0.04121657 0.28235294 0.60000000 0.94901961
v 0.12920504 -0.17453592 0.03137499 0.28235294 0.60000000 0.94901961
v 0.12294904 -0.18474764 0.04039849 0.28235294 0.60000000 0.94901961
v 0.10952239 -0.18168625 0.05741036 0.28235294 0.60000000 0.94901961
v 0.12333401 -0.16111628 0.00233754 0.28235294 0.60000000 0.94901961
v 0.11716799 -0.18369364 -0.02049792 0.28235294 0.60000000 0.94901961
v 0.11494527 -0.17174269 0.05769375 0.28235294 0.60000000 0.94901961
v 0.12044337 -0.16063703 0.03686016 0.28235294 0.60000000 0.94901961
v 0.13018320 -0.17222349 0.00244774 0.28235294 0.60000000 0.94901961
v 0.12214066 -0.19006357 0.02164714 0.28235294 0.60000000 0.94901961
v 0.11793601 -0.17364439 0.05317435 0.28235294 0.60000000 0.94901961
v 0.11038933 -0.17937825 -0.03137338 0.28235294 0.60000000 0.94901961
v 0.11393437 -0.17651273 0.05771236 0.28235294 0.60000000 0.94901961
v 0.12359801 -0.16827196 -0.01775598 0.28235294 0.60000000 0.94901961
v 0.12951979 -0.17800830 0.00646668 0.28235294 0.60000000 0.94901961
v 0.11897668 -0.18896347 0.04205510 0.28235294 0.60000000 0.94901961
v 0.11241366 -0.18910192 0.04949753 0.28235294 0.60000000 0.94901961
v 0.11449113 -0.16604684 -0.02880931 0.28235294 0.60000000 0.94901961
v 0.12340660 -0.18005170 -0.01404770 0.28235294 0.60000000 0.94901961
v 0.11547757 -0.19050538 0.04490098 0.28235294 0.60000000 0.94901961
v 0.11732242 -0.16677152 -0.02567916 0.28235294 0.60000000 0.94901961
v 0.11777323 -0.17980971 -0.02339942 0.28235294 0.60000000 0.94901961
v 0.12832406 -0.17501159 -0.00518692 0.28235294 0.60000000 0.94901961
v 0.11788809 -0.18376302 -0.01923690 0.28235294 0.60000000 0.94901961
v 0.11302927 -0.17950418 -0.02880818 0.28235294 0.60000000 0.94901961
v 0.12191072 -0.17589440 -0.01843846 0.28235294 0.60000000 0.94901961
f 5 2 1
f 5 1 4
f 8 5 4
f 11 7 3
f 12 2 5
f 13 8 4
f 13 3 8
f 14 7 5
f 14 5 8
f 14 8 3
f 14 3 7
f 15 9 6
f 15 3 9
f 15 11 3
f 15 6 11
f 16 4 1
f 18 10 6
f 18 6 9
f 18 9 10
f 19 11 6
f 19 6 10
f 19 10 16
f 20 12 5
f 20 5 7
f 20 7 12
f 21 12 7
f 21 7 11
f 21 11 12
f 22 12 11
f 22 1 2
f 22 2 12
f 23 9 3
f 24 16 10
f 24 4 16
f 25 10 9
f 25 9 17
f 25 24 10
f 26 19 16
f 26 16 1
f 26 1 22
f 27 11 19
f 27 26 22
f 27 19 26
f 28 23 3
f 28 3 13
f 28 13 4
f 28 17 9
f 28 9 23
f 29 28 4
f 29 17 28
f 30 27 22
f 30 22 11
f 30 11 27
f 31 25 17
f 31 17 29
f 31 29 4
f 32 24 25
f 32 25 31
f 32 31 4
f 32 4 24
f 38 36 35
f 39 35 36
f 40 37 34
f 40 34 38
f 42 33 35
f 42 35 39
f 43 33 42
f 44 37 40
f 44 33 43
f 44 36 37
f 45 38 35
f 45 35 33
f 46 37 36
f 46 36 41
f 46 41 34
f 46 34 37
f 47 41 36
f 47 36 38
f 49 44 40
f 49 33 44
f 49 45 33
f 49 40 38
f 49 38 45
f 50 44 43
f 50 36 44
f 51 47 38
f 51 38 34
f 51 34 41
f 51 41 47
f 52 39 36
f 52 36 48
f 53 48 36
f 53 36 43
f 53 43 42
f 53 42 48
f 54 48 42
f 54 42 39
f 54 52 48
f 54 39 52
f 55 50 43
f 55 43 36
f 55 36 50
f 61 60 59
f 61 57 60
f 63 58 56
f 63 56 60
f 64 57 61
f 65 58 62
f 66 62 59
f 67 57 58
f 67 58 63
f 67 63 60
f 67 60 57
f 69 62 58
f 69 58 64
f 70 64 61
f 70 61 59
f 70 69 64
f 70 59 62
f 70 62 69
f 71 56 58
f 71 58 65
f 72 66 59
f 72 59 60
f 73 65 62
f 73 62 66
f 73 66 72
f 73 60 56
f 74 68 64
f 74 64 58
f 75 58 57
f 75 57 64
f 75 64 68
f 75 74 58
f 75 68 74
f 76 71 65
f 76 65 73
f 77 73 72
f 77 72 60
f 77 60 73
f 78 76 73
f 78 73 56
f 78 56 71
f 78 71 76
f 85 79 80
f 85 80 81
f 86 80 79
f 88 84 83
f 89 83 84
f 89 86 83
f 89 80 86
f 89 87 80
f 89 84 87
f 90 86 79
f 90 79 85
f 91 85 81
f 91 90 85
f 92 81 80
f 92 80 87
f 92 91 81
f 93 87 84
f 93 91 92
f 94 84 88
f 95 94 88
f 96 86 91
f 97 91 86
f 97 86 90
f 97 90 91
f 98 93 84
f 99 93 92
f 99 92 87
f 99 87 93
f 100 91 93
f 100 96 91
f 100 82 96
f 101 94 82
f 101 84 94
f 101 98 84
f 101 82 98
f 102 83 86
f 102 86 95
f 102 95 88
f 102 88 83
f 103 96 82
f 103 94 95
f 103 95 86
f 103 86 96
f 104 98 82
f 104 93 98
f 104 100 93
f 104 82 100
f 105 103 82
f 105 82 94
f 105 94 103
f 111 110 109
f 114 110 106
f 114 109 110
f 117 110 111
f 117 115 107
f 117 111 115
f 120 113 106
f 120 106 110
f 120 117 113
f 120 110 117
f 121 114 106
f 123 109 116
f 125 118 112
f 125 108 118
f 125 121 106
f 125 112 121
f 126 109 114
f 126 114 121
f 127 116 109
f 128 106 113
f 128 113 119
f 128 125 106
f 128 119 125
f 129 117 107
f 129 107 119
f 129 119 113
f 129 113 117
f 130 115 108
f 130 108 122
f 131 122 107
f 131 107 115
f 131 130 122
f 131 115 130
f 132 119 107
f 132 107 122
f 133 122 108
f 133 125 119
f 133 108 125
f 134 111 109
f 134 109 123
f 134 115 111
f 135 123 116
f 135 134 123
f 135 115 134
f 136 124 108
f 136 108 115
f 136 115 135
f 137 118 108
f 137 108 124
f 137 127 118
f 137 116 127
f 138 109 126
f 138 127 109
f 138 118 127
f 138 112 118
f 138 126 121
f 138 121 112
f 139 132 122
f 139 119 132
f 139 133 119
f 139 122 133
f 140 135 116
f 140 136 135
f 140 124 136
f 140 137 124
f 140 116 137
f 146 142 144
f 146 143 141
f 147 145 142
f 149 146 141
f 149 142 146
f 149 147 142
f 149 141 147
f 151 144 142
f 151 142 145
f 152 147 141
f 152 145 147
f 154 146 144
f 154 144 151
f 155 151 148
f 155 148 143
f 155 154 151
f 156 150 152
f 157 152 150
f 157 150 145
f 157 145 152
f 158 145 150
f 158 150 156
f 158 151 145
f 158 148 151
f 160 143 146
f 160 155 143
f 161 156 152
f 161 152 141
f 161 141 143
f 163 158 153
f 163 148 158
f 164 148 163
f 165 160 146
f 165 146 154
f 165 154 155
f 165 155 160
f 166 158 156
f 166 156 161
f 167 153 158
f 167 166 162
f 167 158 166
f 169 164 159
f 169 159 168
f 170 166 161
f 170 161 143
f 170 168 166
f 170 169 168
f 170 143 148
f 170 148 164
f 170 164 169
f 171 167 162
f 171 153 167
f 171 163 153
f 172 164 163
f 172 163 171
f 173 162 166
f 173 166 168
f 173 171 162
f 173 172 171
f 173 168 172
f 174 172 168
f 174 168 159
f 174 159 164
f 174 164 172
f 185 180 178
f 186 179 178
f 187 181 177
f 187 175 181
f 188 177 181
f 188 185 177
f 188 180 185
f 189 176 182
f 190 188 181
f 191 175 183
f 192 178 179
f 192 179 184
f 192 185 178
f 192 184 185
f 193 185 184
f 193 177 185
f 193 187 177
f 193 183 175
f 193 175 187
f 194 186 178
f 194 178 180
f 194 180 188
f 195 189 182
f 196 179 186
f 196 186 194
f 196 195 179
f 196 189 195
f 197 188 176
f 198 190 181
f 198 181 175
f 198 182 190
f 199 190 182
f 199 182 176
f 200 176 188
f 200 188 190
f 200 199 176
f 200 190 199
f 201 191 182
f 201 175 191
f 201 198 175
f 201 182 198
f 202 184 179
f 203 195 182
f 203 182 191
f 203 179 195
f 204 189 196
f 204 188 197
f 204 197 176
f 204 176 189
f 205 184 202
f 206 203 191
f 206 205 202
f 206 183 193
f 206 193 205
f 207 202 179
f 207 179 203
f 207 206 202
f 207 203 206
f 208 204 196
f 208 196 194
f 208 194 204
f 209 204 194
f 209 194 188
f 209 188 204
f 210 205 193
f 210 193 184
f 210 184 205
f 211 206 191
f 211 191 183
f 211 183 206
f 218 212 213
f 218 213 214
f 218 214 212
f 219 213 212
f 222 214 217
f 223 219 212
f 226 217 214
f 227 212 214
f 227 214 222
f 227 222 217
f 228 216 219
f 228 219 223
f 228 224 216
f 228 220 224
f 229 223 212
f 229 228 223
f 229 220 228
f 229 212 227
f 229 227 217
f 230 221 225
f 231 215 224
f 232 214 213
f 232 213 225
f 233 225 213
f 233 213 219
f 234 226 214
f 234 215 217
f 234 217 226
f 234 214 232
f 234 232 225
f 234 225 221
f 235 229 217
f 235 220 229
f 235 231 224
f 235 224 220
f 236 230 216
f 236 216 224
f 236 224 230
f 237 219 216
f 237 216 230
f 237 233 219
f 237 230 225
f 237 225 233
f 238 230 224
f 238 224 215
f 238 221 230
f 238 234 221
f 238 215 234
f 239 235 217
f 239 231 235
f 239 217 215
f 239 215 231
f 244 241 240
f 247 244 240
f 247 243 244
f 250 246 240
f 250 240 241
f 250 241 246
f 254 246 241
f 255 242 249
f 256 251 247
f 256 245 251
f 257 243 247
f 257 247 251
f 258 247 240
f 259 252 240
f 259 240 246
f 259 246 254
f 260 253 248
f 260 241 244
f 260 254 241
f 260 248 254
f 261 244 243
f 261 260 244
f 261 253 260
f 265 247 258
f 267 258 240
f 267 240 252
f 268 259 254
f 268 254 242
f 269 253 261
f 269 249 262
f 269 262 248
f 269 248 253
f 270 262 249
f 270 254 248
f 270 248 262
f 270 249 242
f 270 242 254
f 271 251 245
f 271 245 263
f 271 257 251
f 272 263 245
f 273 245 256
f 273 256 264
f 274 264 256
f 274 256 247
f 274 247 265
f 274 265 252
f 275 265 258
f 275 258 252
f 275 252 265
f 276 243 257
f 277 255 249
f 277 249 266
f 277 272 255
f 277 263 272
f 278 267 252
f 278 252 258
f 278 258 267
f 279 268 242
f 280 252 259
f 280 259 268
f 280 274 252
f 280 268 279
f 281 266 249
f 281 249 269
f 281 269 261
f 282 266 276
f 283 273 272
f 283 272 245
f 283 245 273
f 284 273 264
f 284 280 279
f 284 279 242
f 284 242 255
f 285 264 274
f 285 274 280
f 285 284 264
f 285 280 284
f 286 276 266
f 286 266 281
f 286 243 276
f 286 281 261
f 286 261 243
f 287 271 263
f 287 263 282
f 287 257 271
f 287 282 276
f 287 276 257
f 288 277 266
f 288 266 282
f 288 282 263
f 288 263 277
f 289 272 273
f 289 273 284
f 289 284 255
f 289 255 272
f 295 292 291
f 295 290 292
f 295 293 290
f 299 290 293
f 299 296 298
f 302 295 291
f 303 298 296
f 303 294 298
f 304 299 293
f 304 296 299
f 305 299 298
f 306 291 292
f 307 301 297
f 307 297 302
f 307 306 301
f 308 295 302
f 309 308 302
f 309 294 308
f 310 294 303
f 310 308 294
f 310 300 308
f 311 303 296
f 311 300 303
f 311 296 304
f 312 308 300
f 313 290 299
f 313 299 305
f 313 292 290
f 314 305 298
f 314 297 305
f 315 305 297
f 315 297 301
f 315 313 305
f 316 307 302
f 316 302 291
f 316 291 306
f 316 306 307
f 317 298 294
f 317 294 309
f 317 314 298
f 317 297 314
f 317 309 302
f 317 302 297
f 318 310 303
f 318 303 300
f 318 300 310
f 319 304 293
f 319 293 295
f 320 312 300
f 321 295 308
f 321 308 312
f 321 319 295
f 321 312 319
f 322 306 292
f 322 292 313
f 322 301 306
f 322 315 301
f 322 313 315
f 323 319 312
f 323 304 319
f 323 320 304
f 323 312 320
f 324 320 311
f 324 311 304
f 324 304 320
f 325 320 300
f 325 300 311
f 325 311 320
f 332 326 328
f 333 327 328
f 333 328 326
f 333 326 330
f 336 330 331
f 336 333 330
f 336 327 333
f 336 331 334
f 337 332 328
f 337 328 329
f 337 329 332
f 338 330 326
f 338 326 332
f 339 328 327
f 340 331 335
f 341 335 331
f 341 331 330
f 341 330 338
f 342 336 334
f 342 327 336
f 342 339 327
f 343 338 332
f 343 332 329
f 344 328 339
f 345 331 340
f 345 340 329
f 346 335 329
f 347 329 335
f 347 335 341
f 347 343 329
f 348 342 334
f 348 339 342
f 348 344 339
f 348 334 344
f 349 334 331
f 349 331 345
f 349 344 334
f 350 345 329
f 350 329 328
f 350 328 344
f 350 349 345
f 350 344 349
f 351 340 335
f 351 335 346
f 351 346 329
f 351 329 340
f 352 347 341
f 352 341 338
f 352 338 343
f 352 343 347
f 360 354 357
f 361 357 354
f 362 355 353
f 362 353 357
f 362 357 361
f 365 356 354
f 365 354 360
f 365 363 356
f 365 360 359
f 367 362 361
f 367 361 358
f 368 355 362
f 368 367 358
f 368 362 367
f 369 358 361
f 369 361 354
f 369 354 356
f 370 353 355
f 371 365 359
f 371 363 365
f 371 359 364
f 373 357 353
f 373 366 372
f 374 366 364
f 374 364 359
f 374 359 366
f 375 369 356
f 375 356 363
f 376 370 364
f 376 353 370
f 377 368 364
f 377 364 370
f 377 370 355
f 377 355 368
f 378 371 364
f 378 364 368
f 378 368 371
f 379 372 360
f 380 372 366
f 380 366 359
f 380 359 360
f 380 360 372
f 381 364 366
f 381 376 364
f 381 353 376
f 382 375 363
f 382 363 371
f 382 371 368
f 382 368 358
f 382 358 369
f 382 369 375
f 383 379 360
f 383 360 357
f 383 357 379
f 384 379 357
f 384 357 373
f 384 373 372
f 384 372 379
f 385 381 366
f 385 366 373
f 386 385 373
f 386 373 353
f 386 353 381
f 386 381 385
f 393 388 389
f 394 387 391
f 397 391 387
f 397 387 392
f 397 390 391
f 397 396 390
f 398 392 387
f 399 387 394
f 399 398 387
f 399 393 398
f 400 388 393
f 400 394 391
f 401 389 388
f 401 388 395
f 402 391 390
f 403 392 389
f 403 389 396
f 403 397 392
f 403 396 397
f 404 398 393
f 404 393 389
f 404 389 392
f 404 392 398
f 405 399 394
f 405 394 400
f 405 400 393
f 405 393 399
f 406 400 395
f 406 395 388
f 406 388 400
f 407 400 391
f 407 395 400
f 408 396 389
f 409 401 395
f 410 391 402
f 411 408 389
f 411 389 401
f 411 401 408
f 412 408 401
f 412 390 396
f 413 402 409
f 413 410 402
f 413 407 391
f 413 409 395
f 413 395 407
f 414 409 402
f 414 402 390
f 414 390 412
f 415 412 396
f 415 396 408
f 415 408 412
f 416 413 391
f 416 391 410
f 416 410 413
f 417 401 409
f 417 409 414
f 417 414 412
f 417 412 401
f 423 419 421
f 423 421 420
f 427 423 420
f 427 418 423
f 428 422 424
f 429 423 418
f 429 424 419
f 429 419 423
f 430 425 421
f 430 421 419
f 432 426 427
f 433 428 424
f 434 427 426
f 435 422 428
f 436 429 418
f 436 424 429
f 436 433 424
f 436 418 433
f 438 422 425
f 438 425 430
f 438 430 437
f 438 437 424
f 438 424 422
f 439 431 420
f 439 420 421
f 440 432 427
f 440 427 420
f 440 420 431
f 441 434 426
f 441 428 434
f 441 435 428
f 441 426 435
f 442 434 428
f 442 428 433
f 442 433 418
f 442 418 427
f 442 427 434
f 445 437 430
f 445 430 419
f 445 419 424
f 445 424 437
f 446 439 421
f 446 421 425
f 446 425 443
f 446 431 439
f 446 444 431
f 446 443 444
f 447 443 425
f 447 425 422
f 448 444 443
f 448 443 435
f 448 435 444
f 449 440 431
f 449 431 444
f 449 432 440
f 450 435 426
f 450 426 432
f 451 447 422
f 451 422 435
f 451 435 443
f 451 443 447
f 452 449 444
f 453 444 435
f 453 435 450
f 453 452 444
f 453 450 432
f 453 432 449
f 453 449 452
f 459 456 455
f 460 456 457
f 460 457 454
f 463 459 457
f 463 457 456
f 463 456 459
f 465 454 457
f 465 457 461
f 465 460 454
f 466 461 457
f 466 457 458
f 467 462 458
f 467 458 457
f 467 457 459
f 467 455 462
f 468 462 455
f 469 455 456
f 470 456 460
f 470 469 456
f 470 464 469
f 471 468 455
f 471 458 462
f 471 462 468
f 472 467 459
f 472 459 455
f 472 455 467
f 473 469 464
f 473 455 469
f 473 471 455
f 474 466 458
f 474 458 471
f 474 470 460
f 474 460 465
f 474 465 461
f 474 461 466
f 475 470 474
f 476 464 470
f 477 475 474
f 477 474 471
f 478 473 464
f 478 464 475
f 478 475 477
f 478 477 471
f 478 471 473
f 479 476 470
f 479 470 475
f 479 475 464
f 479 464 476
f 486 481 482
f 492 488 484
f 493 488 482
f 493 482 481
f 496 486 482
f 496 495 489
f 497 489 480
f 497 496 489
f 497 486 496
f 498 490 485
f 498 485 483
f 499 489 485
f 499 485 490
f 500 499 490
f 501 481 486
f 502 484 488
f 503 492 484
f 503 487 492
f 504 498 483
f 505 485 482
f 505 482 494
f 505 494 504
f 506 494 482
f 506 482 488
f 506 488 494
f 507 494 488
f 507 488 492
f 507 492 494
f 508 485 489
f 508 489 495
f 509 496 482
f 509 482 485
f 509 495 496
f 509 508 495
f 509 485 508
f 510 497 491
f 510 486 497
f 510 501 486
f 511 497 480
f 511 480 487
f 512 480 489
f 512 489 499
f 513 500 487
f 513 487 480
f 513 499 500
f 513 512 499
f 513 480 512
f 514 502 488
f 514 488 493
f 514 493 502
f 515 491 502
f 515 481 501
f 515 502 493
f 515 493 481
f 516 502 491
f 516 491 497
f 516 503 484
f 517 504 494
f 517 494 492
f 517 492 504
f 518 490 498
f 518 498 504
f 518 500 490
f 519 504 492
f 519 492 487
f 519 487 500
f 519 518 504
f 519 500 518
f 520 483 485
f 520 485 505
f 520 505 504
f 520 504 483
f 521 511 487
f 521 487 503
f 521 503 516
f 522 515 501
f 522 491 515
f 522 510 491
f 522 501 510
f 523 516 497
f 523 497 511
f 523 521 516
f 523 511 521
f 524 516 484
f 524 484 502
f 524 502 516
f 530 529 528
f 532 529 526
f 532 526 525
f 533 529 527
f 533 528 529
f 533 530 528
f 535 529 530
f 536 531 525
f 536 525 526
f 537 525 531
f 538 527 529
f 539 530 533
f 540 534 535
f 541 526 529
f 541 529 535
f 542 540 527
f 542 534 540
f 542 535 534
f 543 537 531
f 543 527 537
f 543 542 527
f 543 531 536
f 543 536 542
f 544 529 532
f 544 532 538
f 545 537 527
f 545 525 537
f 545 532 525
f 546 539 533
f 546 533 527
f 546 527 539
f 547 530 539
f 547 535 530
f 548 542 536
f 548 526 541
f 549 544 538
f 549 538 529
f 549 529 544
f 550 545 527
f 550 527 538
f 550 538 532
f 550 532 545
f 551 547 539
f 551 539 527
f 552 540 535
f 552 535 547
f 552 547 551
f 552 551 527
f 552 527 540
f 553 548 536
f 553 536 526
f 553 526 548
f 554 548 541
f 554 541 535
f 554 535 542
f 554 542 548
f 560 556 558
f 560 558 557
f 561 556 560
f 561 560 557
f 561 557 555
f 564 556 561
f 565 558 556
f 565 556 564
f 565 564 559
f 565 559 562
f 566 555 557
f 568 564 561
f 569 564 563
f 569 563 559
f 569 559 564
f 570 555 566
f 571 567 562
f 571 562 559
f 572 559 563
f 572 563 567
f 572 571 559
f 572 567 571
f 573 558 565
f 573 557 558
f 574 573 567
f 575 568 561
f 575 561 555
f 576 563 564
f 576 570 563
f 577 573 565
f 577 565 562
f 578 562 567
f 578 567 573
f 578 577 562
f 578 573 577
f 579 574 567
f 580 557 573
f 580 573 574
f 580 566 557
f 581 576 564
f 581 564 568
f 581 568 575
f 582 555 570
f 582 570 576
f 582 576 581
f 582 581 575
f 582 575 555
f 583 579 567
f 583 567 563
f 583 563 579
f 584 579 563
f 584 563 570
f 585 566 580
f 585 580 574
f 585 574 579
f 585 579 584
f 586 570 566
f 586 566 585
f 586 585 584
f 586 584 570
f 595 590 588
f 596 592 588
f 596 588 590
f 596 590 592
f 597 592 590
f 597 589 592
f 598 592 589
f 598 587 592
f 600 594 587
f 600 591 594
f 600 587 593
f 600 593 599
f 601 592 587
f 601 587 594
f 601 588 592
f 601 595 588
f 602 594 591
f 603 598 593
f 604 597 593
f 604 593 598
f 604 598 589
f 604 589 597
f 605 599 593
f 605 593 597
f 607 600 599
f 607 591 600
f 608 601 594
f 608 595 601
f 608 602 595
f 608 594 602
f 609 603 593
f 609 593 587
f 609 587 598
f 609 598 603
f 610 606 597
f 610 597 590
f 610 590 595
f 611 599 605
f 611 605 597
f 611 597 606
f 611 607 599
f 612 591 607
f 612 606 610
f 613 602 591
f 613 591 612
f 613 612 595
f 613 595 602
f 614 612 610
f 614 610 595
f 614 595 612
f 615 612 611
f 615 611 606
f 615 606 612
f 616 612 607
f 616 607 611
f 616 611 612
f 622 620 619
f 624 621 620
f 626 622 619
f 626 619 618
f 626 618 622
f 627 622 618
f 627 620 622
f 627 624 620
f 628 617 623
f 631 619 620
f 632 620 621
f 632 621 625
f 632 631 620
f 632 625 631
f 633 627 618
f 633 624 627
f 634 628 623
f 634 618 619
f 634 619 628
f 634 633 618
f 634 623 633
f 635 628 619
f 635 625 630
f 635 631 625
f 635 619 631
f 636 623 617
f 636 633 623
f 636 624 633
f 638 625 621
f 639 617 628
f 639 628 635
f 640 636 629
f 640 629 637
f 641 636 617
f 641 637 629
f 641 629 636
f 642 630 625
f 642 625 638
f 643 638 621
f 643 621 637
f 643 637 638
f 644 639 635
f 644 635 630
f 644 617 639
f 645 624 636
f 645 636 640
f 645 621 624
f 645 640 637
f 645 637 621
f 646 638 637
f 646 637 641
f 646 642 638
f 646 630 642
f 646 644 630
f 646 641 617
f 646 617 644
f 649 648 650
f 653 647 650
f 653 650 651
f 654 650 648
f 654 648 651
f 656 649 652
f 657 652 649
f 658 650 647
f 658 647 652
f 658 652 657
f 658 657 649
f 658 649 650
f 659 654 651
f 659 651 650
f 659 650 654
f 660 651 648
f 660 648 649
f 661 656 652
f 661 652 647
f 661 647 656
f 662 656 647
f 662 647 653
f 662 653 656
f 663 656 653
f 663 653 651
f 663 651 656
f 664 656 651
f 664 655 656
f 664 660 655
f 664 651 660
f 665 656 655
f 665 655 660
f 665 660 649
f 665 649 656
f 666 667 668
f 671 666 668
f 672 667 666
f 674 669 666
f 674 666 671
f 676 668 667
f 676 670 673
f 677 674 672
f 677 669 674
f 677 672 666
f 677 666 669
f 678 670 672
f 678 672 674
f 679 678 674
f 680 675 673
f 680 673 670
f 681 676 673
f 681 668 676
f 682 676 667
f 682 667 672
f 682 672 670
f 682 670 676
f 683 670 678
f 683 679 675
f 683 678 679
f 684 679 671
f 684 671 668
f 684 681 679
f 684 668 681
f 685 679 674
f 685 674 671
f 685 671 679
f 686 680 670
f 686 675 680
f 686 683 675
f 686 670 683
f 687 681 673
f 687 673 675
f 687 675 679
f 688 687 679
f 688 679 681
f 688 681 687
f 694 690 692
f 694 692 691
f 698 691 692
f 699 694 691
f 699 689 693
f 700 696 693
f 700 693 689
f 701 696 692
f 702 693 701
f 703 695 691
f 704 703 698
f 704 695 703
f 704 696 700
f 704 700 689
f 704 689 699
f 704 699 691
f 704 691 695
f 704 698 692
f 704 692 696
f 705 699 697
f 705 694 699
f 705 697 702
f 705 702 690
f 705 690 694
f 706 701 692
f 706 692 690
f 706 702 701
f 706 690 702
f 707 701 693
f 707 693 696
f 707 696 701
f 709 702 697
f 709 697 699
f 709 708 702
f 709 699 708
f 710 703 691
f 710 691 698
f 710 698 703
f 711 699 693
f 711 693 702
f 711 702 708
f 712 711 708
f 712 708 699
f 712 699 711
f 719 715 716
f 721 714 713
f 722 715 720
f 723 716 715
f 723 715 722
f 724 715 719
f 724 720 715
f 725 716 717
f 726 713 714
f 726 724 713
f 726 720 724
f 727 721 713
f 727 717 721
f 727 713 724
f 728 718 721
f 728 723 718
f 729 721 718
f 729 723 722
f 729 718 723
f 730 722 720
f 730 726 714
f 730 720 726
f 731 724 719
f 731 719 716
f 731 716 725
f 732 725 717
f 732 717 727
f 732 731 725
f 732 724 731
f 733 728 721
f 733 721 717
f 733 717 716
f 734 716 723
f 734 723 728
f 734 733 716
f 734 728 733
f 735 729 722
f 735 722 730
f 735 721 729
f 735 730 714
f 735 714 721
f 736 732 727
f 736 727 724
f 736 724 732
f 737 738 739
f 739 738 740
f 742 738 737
f 745 738 742
f 745 742 737
f 746 740 738
f 746 738 745
f 748 737 739
f 748 744 747
f 749 746 745
f 749 745 741
f 751 746 743
f 751 740 746
f 752 747 744
f 752 741 747
f 752 749 741
f 752 744 750
f 752 750 751
f 753 745 737
f 753 748 747
f 754 748 739
f 754 744 748
f 754 750 744
f 754 739 750
f 755 752 751
f 755 751 743
f 756 750 739
f 756 739 740
f 756 751 750
f 756 740 751
f 757 753 737
f 757 737 748
f 757 748 753
f 758 747 741
f 759 755 743
f 759 743 746
f 759 746 749
f 759 749 755
f 760 755 749
f 760 749 752
f 760 752 755
f 761 758 753
f 761 753 747
f 761 747 758
f 762 758 741
f 762 741 745
f 762 745 753
f 762 753 758
f 770 766 767
f 771 767 766
f 771 766 764
f 771 764 767
f 772 767 764
f 773 764 766
f 774 768 773
f 775 770 767
f 776 764 768
f 777 772 763
f 777 767 772
f 777 775 767
f 777 763 775
f 778 773 768
f 778 768 764
f 778 764 773
f 779 773 766
f 780 774 769
f 780 765 774
f 780 776 765
f 780 769 770
f 780 770 776
f 781 774 765
f 781 768 774
f 781 776 768
f 781 765 776
f 782 774 773
f 782 769 774
f 782 773 779
f 782 779 770
f 782 770 769
f 783 770 775
f 783 772 764
f 784 779 766
f 784 766 770
f 784 770 779
f 785 776 770
f 785 770 783
f 785 783 764
f 785 764 776
f 786 783 775
f 786 775 763
f 786 763 772
f 786 772 783
f 792 788 790
f 796 792 790
f 796 789 792
f 797 792 789
f 798 791 793
f 798 787 795
f 799 796 790
f 800 790 788
f 800 799 790
f 800 794 799
f 801 793 791
f 801 797 793
f 801 794 800
f 802 798 795
f 802 791 798
f 803 797 787
f 803 793 797
f 803 798 793
f 803 787 798
f 804 795 787
f 804 787 797
f 804 797 789
f 804 802 795
f 805 799 794
f 805 796 799
f 805 802 796
f 805 791 802
f 805 801 791
f 805 794 801
f 806 800 788
f 806 788 792
f 807 801 800
f 807 797 801
f 808 789 796
f 808 796 802
f 808 804 789
f 808 802 804
f 809 792 797
f 809 797 807
f 810 807 800
f 810 800 806
f 810 809 807
f 811 810 806
f 811 806 792
f 811 792 809
f 811 809 810
f 812 813 814
f 813 812 815
f 817 813 815
f 819 817 816
f 819 814 813
f 819 813 817
f 820 817 815
f 820 815 812
f 820 818 817
f 822 816 817
f 822 817 818
f 823 819 816
f 823 814 819
f 823 821 814
f 824 820 812
f 824 812 814
f 824 818 820
f 825 818 821
f 825 822 818
f 825 816 822
f 826 821 818
f 826 818 824
f 827 824 814
f 827 814 821
f 827 826 824
f 827 821 826
f 828 823 816
f 828 816 825
f 828 825 821
f 829 828 821
f 829 821 823
f 829 823 828
f 837 834 833
f 837 831 834
f 838 834 831
f 844 838 830
f 844 834 838
f 844 841 834
f 844 830 840
f 845 839 835
f 845 835 832
f 846 835 839
f 846 843 835
f 847 838 831
f 847 846 839
f 847 843 846
f 848 847 839
f 848 838 847
f 849 840 830
f 849 830 838
f 849 842 840
f 849 832 835
f 849 835 842
f 850 841 844
f 851 841 833
f 851 833 834
f 851 834 841
f 852 833 841
f 852 841 850
f 852 842 835
f 852 835 843
f 853 840 842
f 853 844 840
f 853 850 844
f 853 836 850
f 854 831 837
f 854 837 833
f 854 852 843
f 854 833 852
f 854 847 831
f 854 843 847
f 855 845 832
f 855 832 848
f 855 848 839
f 855 839 845
f 856 849 838
f 856 838 848
f 856 848 832
f 856 832 849
f 857 842 852
f 857 853 842
f 857 836 853
f 857 852 850
f 857 850 836
f 858 859 860
f 858 860 861
f 862 860 859
f 863 859 858
f 866 862 859
f 866 858 862
f 867 864 862
f 867 862 858
f 868 858 861
f 868 867 858
f 868 864 867
f 869 862 864
f 870 865 862
f 871 861 860
f 871 860 865
f 871 865 870
f 872 865 860
f 872 860 862
f 872 862 865
f 873 866 859
f 873 859 863
f 873 863 866
f 874 866 863
f 874 863 858
f 874 858 866
f 875 868 861
f 875 864 868
f 875 869 864
f 875 861 862
f 875 862 869
f 876 870 862
f 876 862 861
f 876 871 870
f 876 861 871
f 882 879 878
f 883 879 880
f 883 880 877
f 885 880 879
f 885 879 882
f 886 882 878
f 886 881 882
f 888 877 880
f 888 880 885
f 889 882 881
f 889 881 884
f 890 888 885
f 890 884 888
f 891 878 879
f 891 879 887
f 892 887 879
f 892 879 883
f 893 887 881
f 893 881 886
f 893 891 887
f 893 886 878
f 893 878 891
f 894 881 887
f 895 888 884
f 895 877 888
f 895 894 877
f 896 889 884
f 897 884 890
f 897 896 884
f 897 882 889
f 897 889 896
f 897 890 885
f 897 885 882
f 898 892 883
f 898 887 892
f 898 883 877
f 899 895 884
f 899 894 895
f 899 884 881
f 899 881 894
f 900 894 887
f 900 887 898
f 900 898 877
f 900 877 894
f 907 904 901
f 910 901 904
f 911 904 903
f 913 907 901
f 913 908 903
f 914 903 904
f 914 904 907
f 914 913 903
f 914 907 913
f 915 903 908
f 915 911 903
f 915 906 911
f 916 905 912
f 917 909 902
f 917 902 908
f 917 908 913
f 918 910 904
f 918 912 905
f 919 909 917
f 919 917 913
f 919 913 901
f 919 901 910
f 920 911 906
f 921 915 908
f 921 908 902
f 921 902 916
f 921 906 915
f 922 905 916
f 922 909 919
f 922 916 902
f 922 902 909
f 923 918 905
f 923 910 918
f 923 919 910
f 924 904 911
f 924 918 904
f 925 920 906
f 925 921 916
f 926 922 919
f 926 919 923
f 926 923 905
f 926 905 922
f 927 924 911
f 927 911 920
f 928 925 912
f 928 927 920
f 929 925 906
f 929 906 921
f 929 921 925
f 930 925 916
f 930 916 912
f 930 912 925
f 931 918 924
f 931 924 927
f 931 927 928
f 931 928 912
f 931 912 918
f 932 928 920
f 932 920 925
f 932 925 928

