# https://github.com/mikedh/trimesh
v 0.32325516 0.01230406 0.12980683 0.28235294 0.47843137 0.94901961
v 0.38025276 -0.05051517 0.08879474 0.28235294 0.47843137 0.94901961
v 0.38116714 -0.01779306 0.09798659 0.28235294 0.47843137 0.94901961
v 0.23320548 -0.04364595 -0.03927726 0.28235294 0.47843137 0.94901961
v 0.26491372 -0.06356869 0.00232936 0.28235294 0.47843137 0.94901961
v 0.36879019 -0.03798074 0.06370012 0.28235294 0.47843137 0.94901961
v 0.23639546 0.00765176 0.05330223 0.28235294 0.47843137 0.94901961
v 0.33002387 0.00064793 0.12395180 0.28235294 0.47843137 0.94901961
v 0.37994745 -0.03360365 0.07786570 0.28235294 0.47843137 0.94901961
v 0.33822911 -0.01924118 0.06428229 0.28235294 0.47843137 0.94901961
v 0.28560479 -0.06443861 -0.00661933 0.28235294 0.47843137 0.94901961
v 0.33913997 -0.00865395 0.08455825 0.28235294 0.47843137 0.94901961
v 0.23525496 -0.05740297 -0.03695717 0.28235294 0.47843137 0.94901961
v 0.34846928 -0.05208124 0.07900756 0.28235294 0.47843137 0.94901961
v 0.25798009 0.01394840 0.08590570 0.28235294 0.47843137 0.94901961
v 0.38027194 -0.02118748 0.09234195 0.28235294 0.47843137 0.94901961
v 0.37613864 -0.05460730 0.06955700 0.28235294 0.47843137 0.94901961
v 0.24775298 -0.00427674 0.03705334 0.28235294 0.47843137 0.94901961
v 0.27326416 -0.05067651 -0.01773481 0.28235294 0.47843137 0.94901961
v 0.35071648 -0.00562629 0.10403051 0.28235294 0.47843137 0.94901961
v 0.23480058 0.01198375 0.06244042 0.28235294 0.47843137 0.94901961
v 0.25553473 -0.06486423 -0.02000988 0.28235294 0.47843137 0.94901961
v 0.31189965 0.01325897 0.12647860 0.28235294 0.47843137 0.94901961
v 0.36162215 -0.06403717 0.06413037 0.28235294 0.47843137 0.94901961
v 0.31137938 -0.05283898 0.01008686 0.28235294 0.47843137 0.94901961
v 0.27335405 -0.06001071 -0.01835237 0.28235294 0.47843137 0.94901961
v 0.24102317 -0.05883092 -0.02752364 0.28235294 0.47843137 0.94901961
v 0.27746955 -0.06468452 0.01113053 0.28235294 0.47843137 0.94901961
v 0.35787206 -0.06387269 0.05708362 0.28235294 0.47843137 0.94901961
v 0.34157191 -0.06496683 0.05767755 0.28235294 0.47843137 0.94901961
v 0.32367539 -0.04735705 0.02212238 0.28235294 0.47843137 0.94901961
v 0.31010553 -0.05921392 0.01011687 0.28235294 0.47843137 0.94901961
v 0.31716395 -0.06459147 0.04038943 0.28235294 0.47843137 0.94901961
v 0.23020348 0.17417811 0.27724051 0.28235294 0.35294118 0.94901961
v 0.33331641 0.04956234 0.16843557 0.28235294 0.35294118 0.94901961
v 0.30195785 0.10030741 0.18589521 0.28235294 0.35294118 0.94901961
v 0.16811317 0.15099821 0.18041719 0.28235294 0.35294118 0.94901961
v 0.17975951 0.16150921 0.26543474 0.28235294 0.35294118 0.94901961
v 0.32238883 0.07851517 0.17514517 0.28235294 0.35294118 0.94901961
v 0.16231046 0.19139011 0.22036695 0.28235294 0.35294118 0.94901961
v 0.24461431 0.15484625 0.27154403 0.28235294 0.35294118 0.94901961
v 0.17509909 0.11739512 0.17383483 0.28235294 0.35294118 0.94901961
v 0.25535691 0.15742265 0.25013550 0.28235294 0.35294118 0.94901961
v 0.17913826 0.18633648 0.27231264 0.28235294 0.35294118 0.94901961
v 0.20043174 0.16033474 0.27520603 0.28235294 0.35294118 0.94901961
v 0.26710782 0.13957180 0.24619128 0.28235294 0.35294118 0.94901961
v 0.29840748 0.06129803 0.18045662 0.28235294 0.35294118 0.94901961
v 0.26728695 0.14469675 0.23437660 0.28235294 0.35294118 0.94901961
v 0.23940864 0.16639581 0.27480882 0.28235294 0.35294118 0.94901961
v 0.20262343 0.18463644 0.25638535 0.28235294 0.35294118 0.94901961
v 0.17911789 0.16837392 0.27134946 0.28235294 0.35294118 0.94901961
v 0.20850832 0.18499737 0.27914921 0.28235294 0.35294118 0.94901961
v 0.33036381 0.05481991 0.17296049 0.28235294 0.35294118 0.94901961
v 0.25597512 0.07546524 0.17086928 0.28235294 0.35294118 0.94901961
v 0.26661247 0.14494281 0.24188344 0.28235294 0.35294118 0.94901961
v 0.25228550 0.16032508 0.25738605 0.28235294 0.35294118 0.94901961
v 0.26832990 0.13341985 0.24470565 0.28235294 0.35294118 0.94901961
v 0.31896727 0.08149923 0.18253641 0.28235294 0.35294118 0.94901961
v 0.30009770 0.05621000 0.17092080 0.28235294 0.35294118 0.94901961
v 0.26436396 0.07665049 0.18083454 0.28235294 0.35294118 0.94901961
v 0.17950983 0.11737632 0.18229253 0.28235294 0.35294118 0.94901961
v -0.34908619 -0.02126697 0.02746805 0.33725490 0.28235294 0.94901961
v -0.35151303 -0.00373871 0.02378660 0.33725490 0.28235294 0.94901961
v -0.51425385 0.03918221 -0.14314871 0.33725490 0.28235294 0.94901961
v -0.52535184 0.05323420 -0.18237749 0.33725490 0.28235294 0.94901961
v -0.36295254 -0.00296234 0.00617344 0.33725490 0.28235294 0.94901961
v -0.53318773 0.05770209 -0.16895595 0.33725490 0.28235294 0.94901961
v -0.53668366 0.03826526 -0.18068123 0.33725490 0.28235294 0.94901961
v -0.37941726 -0.00280535 0.01412285 0.33725490 0.28235294 0.94901961
v -0.51507690 0.04135886 -0.17250834 0.33725490 0.28235294 0.94901961
v -0.52022647 0.05242349 -0.17873570 0.33725490 0.28235294 0.94901961
v -0.53524067 0.04156641 -0.16807611 0.33725490 0.28235294 0.94901961
v -0.51544250 0.04234447 -0.14483904 0.33725490 0.28235294 0.94901961
v -0.41600935 0.01758461 -0.03939239 0.33725490 0.28235294 0.94901961
v -0.36052124 -0.01274400 0.01007429 0.33725490 0.28235294 0.94901961
v -0.53650395 0.03836906 -0.18075420 0.33725490 0.28235294 0.94901961
v -0.37117371 0.00320690 -0.00051507 0.33725490 0.28235294 0.94901961
v -0.43115523 0.01161500 -0.04525792 0.33725490 0.28235294 0.94901961
v -0.37616386 -0.01281126 0.01558463 0.33725490 0.28235294 0.94901961
v -0.36688080 0.00224664 0.00931541 0.33725490 0.28235294 0.94901961
v -0.39262209 0.00499593 -0.00455247 0.33725490 0.28235294 0.94901961
v -0.51023346 0.03344361 -0.16184532 0.33725490 0.28235294 0.94901961
v -0.43089885 0.01415064 -0.04582170 0.33725490 0.28235294 0.94901961
v -0.39796532 -0.00821142 -0.01938569 0.33725490 0.28235294 0.94901961
v -0.49091926 0.04343429 -0.13222333 0.33725490 0.28235294 0.94901961
v -0.51867925 0.03458831 -0.16901862 0.33725490 0.28235294 0.94901961
v -0.38903257 -0.00887953 -0.00057521 0.33725490 0.28235294 0.94901961
v -0.44222681 0.00694361 -0.07432177 0.33725490 0.28235294 0.94901961
v -0.06807001 -0.10706813 -0.00484399 0.46274510 0.28235294 0.94901961
v -0.03479237 -0.26539601 -0.04755085 0.46274510 0.28235294 0.94901961
v -0.02058448 -0.13607063 -0.06806261 0.46274510 0.28235294 0.94901961
v -0.05644346 -0.20310546 -0.07680396 0.46274510 0.28235294 0.94901961
v -0.17421237 -0.16835478 0.00338274 0.46274510 0.28235294 0.94901961
v -0.02095492 -0.21984490 -0.07948213 0.46274510 0.28235294 0.94901961
v -0.03163802 -0.13408420 -0.03251080 0.46274510 0.28235294 0.94901961
v -0.07197092 -0.23913563 -0.02335386 0.46274510 0.28235294 0.94901961
v -0.11447423 -0.26461377 -0.06967469 0.46274510 0.28235294 0.94901961
v -0.16105042 -0.11006504 0.00130024 0.46274510 0.28235294 0.94901961
v -0.05159472 -0.13236887 -0.01700267 0.46274510 0.28235294 0.94901961
v -0.03060707 -0.19300300 -0.03894024 0.46274510 0.28235294 0.94901961
v -0.08837746 -0.27456874 -0.04715246 0.46274510 0.28235294 0.94901961
v -0.07488963 -0.29138240 -0.08383958 0.46274510 0.28235294 0.94901961
v -0.06659361 -0.10694705 -0.04637393 0.46274510 0.28235294 0.94901961
v -0.16298767 -0.19920287 -0.01341165 0.46274510 0.28235294 0.94901961
v -0.06362561 -0.22969912 -0.02441749 0.46274510 0.28235294 0.94901961
v -0.11816010 -0.23308957 -0.01884888 0.46274510 0.28235294 0.94901961
v -0.04709755 -0.27485312 -0.04710840 0.46274510 0.28235294 0.94901961
v -0.02892649 -0.25650388 -0.07257157 0.46274510 0.28235294 0.94901961
v -0.11788455 -0.26150691 -0.05287559 0.46274510 0.28235294 0.94901961
v -0.15798263 -0.11506852 -0.00255339 0.46274510 0.28235294 0.94901961
v -0.17128696 -0.17243428 -0.00083756 0.46274510 0.28235294 0.94901961
v -0.04889309 -0.25734452 -0.03792582 0.46274510 0.28235294 0.94901961
v -0.16903977 -0.19179539 -0.00541073 0.46274510 0.28235294 0.94901961
v -0.03819564 -0.27591525 -0.06410123 0.46274510 0.28235294 0.94901961
v -0.06820341 -0.28914734 -0.05827143 0.46274510 0.28235294 0.94901961
v -0.12528519 -0.25402879 -0.05628932 0.46274510 0.28235294 0.94901961
v -0.14211539 -0.22069214 -0.01822210 0.46274510 0.28235294 0.94901961
v -0.03874982 -0.27531012 -0.05220314 0.46274510 0.28235294 0.94901961
v -0.06551751 -0.29044256 -0.07618020 0.46274510 0.28235294 0.94901961
v -0.11470662 -0.25820453 -0.04603533 0.46274510 0.28235294 0.94901961
v -0.05805543 -0.28738971 -0.05765438 0.46274510 0.28235294 0.94901961
v 0.17840749 -0.01616892 -0.15336982 0.58823529 0.28235294 0.94901961
v 0.17475379 -0.01260936 -0.16075558 0.58823529 0.28235294 0.94901961
v 0.14378922 0.00040409 -0.15853534 0.58823529 0.28235294 0.94901961
v 0.04592107 0.07245502 -0.34318854 0.58823529 0.28235294 0.94901961
v 0.06291417 0.04807493 -0.32589511 0.58823529 0.28235294 0.94901961
v 0.17445030 0.00157090 -0.15787116 0.58823529 0.28235294 0.94901961
v 0.07763925 0.04564128 -0.31631434 0.58823529 0.28235294 0.94901961
v 0.12888991 -0.02220114 -0.15401994 0.58823529 0.28235294 0.94901961
v 0.14987464 0.01600397 -0.18919737 0.58823529 0.28235294 0.94901961
v 0.16849869 -0.00266337 -0.17583867 0.58823529 0.28235294 0.94901961
v 0.13162184 -0.00429032 -0.15295698 0.58823529 0.28235294 0.94901961
v 0.07196749 0.05237065 -0.32928077 0.58823529 0.28235294 0.94901961
v 0.16205580 -0.00875487 -0.17700753 0.58823529 0.28235294 0.94901961
v 0.04980013 0.05526987 -0.34078203 0.58823529 0.28235294 0.94901961
v 0.06770740 0.06520417 -0.33491397 0.58823529 0.28235294 0.94901961
v 0.08013541 0.05891402 -0.30086655 0.58823529 0.28235294 0.94901961
v 0.08651778 0.03558058 -0.29392067 0.58823529 0.28235294 0.94901961
v 0.16648929 0.00330407 -0.17804021 0.58823529 0.28235294 0.94901961
v 0.09582122 0.04603583 -0.29209982 0.58823529 0.28235294 0.94901961
v 0.05815557 0.06546419 -0.32302549 0.58823529 0.28235294 0.94901961
v 0.10659447 0.04332624 -0.26189471 0.58823529 0.28235294 0.94901961
v 0.09303115 0.03384139 -0.28790909 0.58823529 0.28235294 0.94901961
v 0.13859665 0.02311807 -0.22019921 0.58823529 0.28235294 0.94901961
v 0.16999202 0.00348951 -0.16917702 0.58823529 0.28235294 0.94901961
v 0.09873842 0.03913272 -0.28737783 0.58823529 0.28235294 0.94901961
v 0.10058375 0.04581595 -0.28184201 0.58823529 0.28235294 0.94901961
v -0.12967252 -0.26586002 -0.14261394 0.71372549 0.28235294 0.94901961
v -0.12967493 -0.28236594 -0.14079560 0.71372549 0.28235294 0.94901961
v -0.26186745 -0.24281586 -0.31585788 0.71372549 0.28235294 0.94901961
v -0.28890261 -0.22533258 -0.33033637 0.71372549 0.28235294 0.94901961
v -0.15789112 -0.26311101 -0.15700171 0.71372549 0.28235294 0.94901961
v -0.28994747 -0.24084860 -0.32843421 0.71372549 0.28235294 0.94901961
v -0.26483520 -0.23078915 -0.31771718 0.71372549 0.28235294 0.94901961
v -0.13946452 -0.27098556 -0.16082428 0.71372549 0.28235294 0.94901961
v -0.14001844 -0.26278157 -0.14655314 0.71372549 0.28235294 0.94901961
v -0.27697750 -0.24470308 -0.32557915 0.71372549 0.28235294 0.94901961
v -0.28002579 -0.23115462 -0.31304117 0.71372549 0.28235294 0.94901961
v -0.15327346 -0.27695032 -0.15332938 0.71372549 0.28235294 0.94901961
v -0.13331062 -0.27875972 -0.14898495 0.71372549 0.28235294 0.94901961
v -0.14059625 -0.26491171 -0.15999921 0.71372549 0.28235294 0.94901961
v -0.25077023 -0.23691570 -0.30238878 0.71372549 0.28235294 0.94901961
v -0.23651394 -0.24157649 -0.25785075 0.71372549 0.28235294 0.94901961
v -0.25007186 -0.23416082 -0.28669752 0.71372549 0.28235294 0.94901961
v -0.26948050 -0.24547131 -0.31973280 0.71372549 0.28235294 0.94901961
v -0.17816126 -0.26668499 -0.18183844 0.71372549 0.28235294 0.94901961
v -0.15824328 -0.27575372 -0.17570314 0.71372549 0.28235294 0.94901961
v -0.15247388 -0.26063065 -0.17443656 0.71372549 0.28235294 0.94901961
v -0.18223594 -0.25894790 -0.18660969 0.71372549 0.28235294 0.94901961
v -0.26618579 -0.23293991 -0.29768258 0.71372549 0.28235294 0.94901961
v -0.25108897 -0.24827205 -0.29963619 0.71372549 0.28235294 0.94901961
v -0.27558653 -0.24177393 -0.30727930 0.71372549 0.28235294 0.94901961
v -0.23288957 -0.25368818 -0.25237267 0.71372549 0.28235294 0.94901961
v -0.02422598 0.24990888 0.02179754 0.83529412 0.28235294 0.94901961
v -0.02393060 0.23044525 0.02402432 0.83529412 0.28235294 0.94901961
v -0.03746488 0.25154904 -0.02315061 0.83529412 0.28235294 0.94901961
v -0.22357716 0.38234357 -0.32278811 0.83529412 0.28235294 0.94901961
v -0.24041244 0.37634577 -0.30828033 0.83529412 0.28235294 0.94901961
v -0.23230495 0.36271048 -0.31646031 0.83529412 0.28235294 0.94901961
v -0.04085429 0.26144062 -0.02748574 0.83529412 0.28235294 0.94901961
v -0.03151901 0.24139247 -0.00616057 0.83529412 0.28235294 0.94901961
v -0.02976324 0.23607263 0.02347063 0.83529412 0.28235294 0.94901961
v -0.23200370 0.38605762 -0.31571875 0.83529412 0.28235294 0.94901961
v -0.22280440 0.36660527 -0.31526552 0.83529412 0.28235294 0.94901961
v -0.02958535 0.25663186 0.00609152 0.83529412 0.28235294 0.94901961
v -0.09594432 0.29394439 -0.11839981 0.83529412 0.28235294 0.94901961
v -0.03631746 0.24303802 -0.01069851 0.83529412 0.28235294 0.94901961
v -0.05415722 0.26302664 -0.01842971 0.83529412 0.28235294 0.94901961
v -0.23571394 0.36664962 -0.31080835 0.83529412 0.28235294 0.94901961
v -0.23462986 0.38248423 -0.31078223 0.83529412 0.28235294 0.94901961
v -0.20427595 0.35416957 -0.28541975 0.83529412 0.28235294 0.94901961
v -0.04451336 0.26600454 -0.02182918 0.83529412 0.28235294 0.94901961
v -0.05290280 0.26237738 -0.04867873 0.83529412 0.28235294 0.94901961
v -0.19464934 0.35065720 -0.27223926 0.83529412 0.28235294 0.94901961
v -0.03258528 0.25094124 0.01331847 0.83529412 0.28235294 0.94901961
v -0.04350445 0.25812161 -0.00309177 0.83529412 0.28235294 0.94901961
v -0.05950965 0.26988839 -0.03060167 0.83529412 0.28235294 0.94901961
v 0.17519894 0.18830577 0.26745093 0.94901961 0.28235294 0.93333333
v 0.17605384 0.16604060 0.26712622 0.94901961 0.28235294 0.93333333
v 0.17288768 0.10128913 0.12811878 0.94901961 0.28235294 0.93333333
v 0.06081037 0.19391771 0.15852154 0.94901961 0.28235294 0.93333333
v 0.08784581 0.17087128 0.19869241 0.94901961 0.28235294 0.93333333
v 0.16255510 0.18918169 0.21759640 0.94901961 0.28235294 0.93333333
v 0.17669365 0.15912301 0.25569376 0.94901961 0.28235294 0.93333333
v 0.12347035 0.17350882 0.23011169 0.94901961 0.28235294 0.93333333
v 0.06491500 0.17381437 0.16284844 0.94901961 0.28235294 0.93333333
v 0.17175964 0.10833626 0.13229996 0.94901961 0.28235294 0.93333333
v 0.17223853 0.12622632 0.19549513 0.94901961 0.28235294 0.93333333
v 0.10994001 0.16846808 0.21561669 0.94901961 0.28235294 0.93333333
v 0.16614701 0.16972344 0.26128168 0.94901961 0.28235294 0.93333333
v 0.09681207 0.18624458 0.20255536 0.94901961 0.28235294 0.93333333
v 0.06981922 0.18032167 0.17886501 0.94901961 0.28235294 0.93333333
v 0.16177231 0.11446403 0.15649159 0.94901961 0.28235294 0.93333333
v 0.17336102 0.10931564 0.15650693 0.94901961 0.28235294 0.93333333
v 0.16392204 0.13302649 0.20060079 0.94901961 0.28235294 0.93333333
v 0.12585427 0.18018911 0.23220380 0.94901961 0.28235294 0.93333333
v 0.06806849 0.17365784 0.17227287 0.94901961 0.28235294 0.93333333
v 0.06527010 0.19135645 0.16615080 0.94901961 0.28235294 0.93333333
v 0.16841107 0.10456578 0.13352847 0.94901961 0.28235294 0.93333333
v 0.16697239 0.18771945 0.26105115 0.94901961 0.28235294 0.93333333
v 0.07156161 0.17537322 0.17988472 0.94901961 0.28235294 0.93333333
v -0.22067903 -0.01457726 0.15604834 0.94901961 0.28235294 0.80784314
v -0.05868318 -0.02001211 -0.02702010 0.94901961 0.28235294 0.80784314
v -0.09343273 0.06694375 0.08364105 0.94901961 0.28235294 0.80784314
v -0.06069149 0.00276134 -0.02534697 0.94901961 0.28235294 0.80784314
v -0.20747816 -0.05432610 0.09514938 0.94901961 0.28235294 0.80784314
v -0.07431586 0.06297670 0.05600803 0.94901961 0.28235294 0.80784314
v -0.08025915 -0.04894385 0.02341771 0.94901961 0.28235294 0.80784314
v -0.08865930 -0.05274258 -0.00839248 0.94901961 0.28235294 0.80784314
v -0.16687322 0.04892305 0.11094032 0.94901961 0.28235294 0.80784314
v -0.06549626 0.06043802 0.01414459 0.94901961 0.28235294 0.80784314
v -0.18884369 -0.01598083 0.14578529 0.94901961 0.28235294 0.80784314
v -0.06782239 -0.05298487 -0.01461365 0.94901961 0.28235294 0.80784314
v -0.06968875 -0.00909932 -0.01956784 0.94901961 0.28235294 0.80784314
v -0.21366749 -0.02048149 0.10790688 0.94901961 0.28235294 0.80784314
v -0.14270503 0.05466038 0.11683254 0.94901961 0.28235294 0.80784314
v -0.11173100 0.05422163 0.05008575 0.94901961 0.28235294 0.80784314
v -0.15455024 0.01429577 0.12460182 0.94901961 0.28235294 0.80784314
v -0.21521549 -0.04305763 0.15145668 0.94901961 0.28235294 0.80784314
v -0.06870910 -0.00092552 -0.01908455 0.94901961 0.28235294 0.80784314
v -0.21129500 0.00271627 0.13509651 0.94901961 0.28235294 0.80784314
v -0.16358998 0.04770371 0.12036218 0.94901961 0.28235294 0.80784314
v -0.12166314 0.05988073 0.10736406 0.94901961 0.28235294 0.80784314
v -0.18714667 0.00222213 0.14434392 0.94901961 0.28235294 0.80784314
v -0.07565811 0.05922084 0.02180082 0.94901961 0.28235294 0.80784314
v -0.13906454 0.05093035 0.07868021 0.94901961 0.28235294 0.80784314
v -0.20297002 -0.04261300 0.14412743 0.94901961 0.28235294 0.80784314
v -0.19754066 0.01499687 0.13765369 0.94901961 0.28235294 0.80784314
v -0.12391707 0.05538647 0.10930501 0.94901961 0.28235294 0.80784314
v -0.21724614 -0.00738462 0.15091170 0.94901961 0.28235294 0.80784314
v -0.16969324 0.04555940 0.11759219 0.94901961 0.28235294 0.80784314
v -0.20893689 0.00339490 0.14246173 0.94901961 0.28235294 0.80784314
v 0.31270397 0.09096627 0.18200471 0.94901961 0.28235294 0.68627451
v 0.34730842 0.04051474 0.13859663 0.94901961 0.28235294 0.68627451
v 0.28078548 0.05165585 0.11391031 0.94901961 0.28235294 0.68627451
v 0.27963143 0.00279095 0.06683129 0.94901961 0.28235294 0.68627451
v 0.28350886 0.05597993 0.16937843 0.94901961 0.28235294 0.68627451
v 0.27873049 0.01045701 0.07209499 0.94901961 0.28235294 0.68627451
v 0.31307575 0.08583636 0.17331040 0.94901961 0.28235294 0.68627451
v 0.33754130 0.04701586 0.16549051 0.94901961 0.28235294 0.68627451
v 0.28044539 0.08694645 0.17806405 0.94901961 0.28235294 0.68627451
v 0.30864766 -0.00605948 0.07450872 0.94901961 0.28235294 0.68627451
v 0.34159393 0.04932606 0.14480935 0.94901961 0.28235294 0.68627451
v 0.29677159 0.09738695 0.18292470 0.94901961 0.28235294 0.68627451
v 0.32238883 0.07851517 0.17514517 0.94901961 0.28235294 0.68627451
v 0.32368314 0.04190304 0.16553750 0.94901961 0.28235294 0.68627451
v 0.28018223 0.07961160 0.15599720 0.94901961 0.28235294 0.68627451
v 0.30481543 0.00862657 0.08501412 0.94901961 0.28235294 0.68627451
v 0.32766017 0.01444109 0.13954839 0.94901961 0.28235294 0.68627451
v 0.32461775 0.07513884 0.16901488 0.94901961 0.28235294 0.68627451
v 0.33572550 0.05516118 0.16568092 0.94901961 0.28235294 0.68627451
v 0.31767009 -0.00473890 0.08134749 0.94901961 0.28235294 0.68627451
v 0.28775578 0.01655679 0.11173541 0.94901961 0.28235294 0.68627451
v 0.00123288 0.00391297 -0.03354084 0.94901961 0.28235294 0.56078431
v 0.12232558 -0.03590800 -0.12360063 0.94901961 0.28235294 0.56078431
v 0.05552378 0.00355353 -0.10300873 0.94901961 0.28235294 0.56078431
v 0.10732009 -0.06084513 -0.13645535 0.94901961 0.28235294 0.56078431
v -0.00256368 -0.13394441 -0.05213886 0.94901961 0.28235294 0.56078431
v 0.12129969 -0.00388348 -0.12305609 0.94901961 0.28235294 0.56078431
v 0.01755004 0.00910261 -0.04161892 0.94901961 0.28235294 0.56078431
v 0.06109575 -0.13042900 -0.09699394 0.94901961 0.28235294 0.56078431
v 0.01325005 0.00078419 -0.07569366 0.94901961 0.28235294 0.56078431
v 0.05857538 -0.11700459 -0.09048528 0.94901961 0.28235294 0.56078431
v 0.11405499 -0.00322540 -0.11605919 0.94901961 0.28235294 0.56078431
v 0.01208637 -0.13724114 -0.09450555 0.94901961 0.28235294 0.56078431
v 0.08230654 -0.10141818 -0.10804139 0.94901961 0.28235294 0.56078431
v -0.00489808 -0.07585000 -0.04387327 0.94901961 0.28235294 0.56078431
v 0.02479842 0.00288160 -0.08514040 0.94901961 0.28235294 0.56078431
v 0.03269723 -0.13149841 -0.07498744 0.94901961 0.28235294 0.56078431
v 0.00395829 -0.13474098 -0.05756603 0.94901961 0.28235294 0.56078431
v 0.04663828 -0.13303801 -0.11295815 0.94901961 0.28235294 0.56078431
v 0.08560091 -0.09646320 -0.12138886 0.94901961 0.28235294 0.56078431
v 0.10022202 -0.07266796 -0.11511855 0.94901961 0.28235294 0.56078431
v 0.03933627 -0.02768151 -0.10070022 0.94901961 0.28235294 0.56078431
v 0.02570304 -0.13707713 -0.10355208 0.94901961 0.28235294 0.56078431
v 0.06349832 -0.12357111 -0.11594153 0.94901961 0.28235294 0.56078431
v 0.10339228 -0.06873166 -0.13305208 0.94901961 0.28235294 0.56078431
v 0.08062369 -0.06305869 -0.12870216 0.94901961 0.28235294 0.56078431
v 0.07586958 -0.09026188 -0.12755167 0.94901961 0.28235294 0.56078431
v 0.09280169 -0.08208178 -0.12967475 0.94901961 0.28235294 0.56078431
v -0.27192488 -0.03238733 0.13989519 0.94901961 0.28235294 0.43529412
v -0.26384167 -0.05861557 0.10394333 0.94901961 0.28235294 0.43529412
v -0.27130338 -0.02743056 0.11260195 0.94901961 0.28235294 0.43529412
v -0.37279370 0.00066369 0.01713817 0.94901961 0.28235294 0.43529412
v -0.28100112 -0.05342769 0.12815852 0.94901961 0.28235294 0.43529412
v -0.34611429 -0.00522767 0.03044198 0.94901961 0.28235294 0.43529412
v -0.27923940 -0.02614110 0.11705945 0.94901961 0.28235294 0.43529412
v -0.26429554 -0.05220295 0.10789542 0.94901961 0.28235294 0.43529412
v -0.27318018 -0.04722643 0.14218775 0.94901961 0.28235294 0.43529412
v -0.36087900 -0.02149007 0.02297020 0.94901961 0.28235294 0.43529412
v -0.33268769 -0.01069709 0.04364070 0.94901961 0.28235294 0.43529412
v -0.32435249 -0.01238052 0.06293929 0.94901961 0.28235294 0.43529412
v -0.27296638 -0.05801442 0.12990785 0.94901961 0.28235294 0.43529412
v -0.28072766 -0.03634301 0.13589307 0.94901961 0.28235294 0.43529412
v -0.36756222 -0.01546347 0.02699788 0.94901961 0.28235294 0.43529412
v -0.34378898 -0.02291885 0.03377946 0.94901961 0.28235294 0.43529412
v -0.27225164 -0.06280662 0.10849119 0.94901961 0.28235294 0.43529412
v -0.37029109 -0.01639956 0.01992602 0.94901961 0.28235294 0.43529412
v -0.36806004 -0.00394775 0.02574997 0.94901961 0.28235294 0.43529412
v -0.27997771 -0.04622230 0.13647945 0.94901961 0.28235294 0.43529412
v 0.28292231 0.09709493 0.18494327 0.94901961 0.28235294 0.30980392
v 0.28775578 0.01655679 0.11173541 0.94901961 0.28235294 0.30980392
v 0.27703192 -0.00383712 0.05542375 0.94901961 0.28235294 0.30980392
v 0.24075461 0.00363422 0.04589956 0.94901961 0.28235294 0.30980392
v 0.17509909 0.11739512 0.17383483 0.94901961 0.28235294 0.30980392
v 0.26119521 0.03269496 0.14554930 0.94901961 0.28235294 0.30980392
v 0.25219148 0.04344431 0.07740508 0.94901961 0.28235294 0.30980392
v 0.26109759 -0.00341971 0.04350367 0.94901961 0.28235294 0.30980392
v 0.23674433 0.01431216 0.07313876 0.94901961 0.28235294 0.30980392
v 0.28350886 0.05597993 0.16937843 0.94901961 0.28235294 0.30980392
v 0.26912488 0.06178083 0.11321062 0.94901961 0.28235294 0.30980392
v 0.16398286 0.14640053 0.17269337 0.94901961 0.28235294 0.30980392
v 0.26069805 0.03292753 0.14543855 0.94901961 0.28235294 0.30980392
v 0.17954677 0.09179442 0.13129504 0.94901961 0.28235294 0.30980392
v 0.26509958 0.05584241 0.16486426 0.94901961 0.28235294 0.30980392
v 0.17896539 0.09429795 0.12144998 0.94901961 0.28235294 0.30980392
v 0.17503384 0.15085470 0.18257828 0.94901961 0.28235294 0.30980392
v 0.20667145 0.06494764 0.09409559 0.94901961 0.28235294 0.30980392
v 0.27327331 0.09251920 0.16818581 0.94901961 0.28235294 0.30980392
v 0.16811317 0.15099821 0.18041719 0.94901961 0.28235294 0.30980392
v 0.23571000 0.01251000 0.05252382 0.94901961 0.28235294 0.30980392
v 0.06664636 0.05338740 -0.33534868 0.94901961 0.38039216 0.28235294
v 0.06467498 0.06726916 -0.33849550 0.94901961 0.38039216 0.28235294
v 0.03058384 0.06984738 -0.36179490 0.94901961 0.38039216 0.28235294
v -0.07017472 0.14088815 -0.52494045 0.94901961 0.38039216 0.28235294
v -0.04762005 0.13638129 -0.52717172 0.94901961 0.38039216 0.28235294
v 0.03971591 0.07674066 -0.35302081 0.94901961 0.38039216 0.28235294
v -0.06866965 0.12254899 -0.52821996 0.94901961 0.38039216 0.28235294
v 0.05957658 0.07004586 -0.34852750 0.94901961 0.38039216 0.28235294
v 0.02942077 0.08041791 -0.36738480 0.94901961 0.38039216 0.28235294
v -0.05981252 0.14876033 -0.52181642 0.94901961 0.38039216 0.28235294
v 0.04392233 0.06019433 -0.34456090 0.94901961 0.38039216 0.28235294
v -0.07069281 0.12558413 -0.52714610 0.94901961 0.38039216 0.28235294
v -0.05140191 0.12504819 -0.52741047 0.94901961 0.38039216 0.28235294
v -0.03956633 0.13479432 -0.51322369 0.94901961 0.38039216 0.28235294
v -0.03893913 0.12531538 -0.51382050 0.94901961 0.38039216 0.28235294
v -0.05551332 0.13755962 -0.50379551 0.94901961 0.38039216 0.28235294
v -0.06233340 0.14634974 -0.52282496 0.94901961 0.38039216 0.28235294
v 0.05358662 0.07440301 -0.34242490 0.94901961 0.38039216 0.28235294
v 0.03722258 0.06348864 -0.36689051 0.94901961 0.38039216 0.28235294
v -0.07043183 0.14002306 -0.52499895 0.94901961 0.38039216 0.28235294
v -0.02640569 0.10465934 -0.47670426 0.94901961 0.38039216 0.28235294
v -0.04760196 0.14104529 -0.50828001 0.94901961 0.38039216 0.28235294
v -0.05146098 0.14298378 -0.52229330 0.94901961 0.38039216 0.28235294
v 0.02906238 0.08167522 -0.39965004 0.94901961 0.38039216 0.28235294
v 0.06142034 0.05631241 -0.34412212 0.94901961 0.38039216 0.28235294
v 0.00227771 0.09531629 -0.40945094 0.94901961 0.38039216 0.28235294
v 0.05027623 0.06131720 -0.35856254 0.94901961 0.38039216 0.28235294
v -0.21068313 -0.04882233 0.14459450 0.94901961 0.50588235 0.28235294
v -0.06659361 -0.10694705 -0.04637393 0.94901961 0.50588235 0.28235294
v -0.07946852 -0.10375438 0.01059450 0.94901961 0.50588235 0.28235294
v -0.06232376 -0.07222297 -0.04152117 0.94901961 0.50588235 0.28235294
v -0.20577814 -0.11052848 0.04323046 0.94901961 0.50588235 0.28235294
v -0.08025915 -0.04894385 0.02341771 0.94901961 0.50588235 0.28235294
v -0.20791827 -0.05695883 0.09293616 0.94901961 0.50588235 0.28235294
v -0.16105042 -0.11006504 0.00130024 0.94901961 0.50588235 0.28235294
v -0.07640969 -0.11715429 -0.04140624 0.94901961 0.50588235 0.28235294
v -0.20804102 -0.09974096 0.09944040 0.94901961 0.50588235 0.28235294
v -0.19988984 -0.04521276 0.14014812 0.94901961 0.50588235 0.28235294
v -0.21390134 -0.05887896 0.13976221 0.94901961 0.50588235 0.28235294
v -0.07859435 -0.05241548 -0.01298660 0.94901961 0.50588235 0.28235294
v -0.16210136 -0.10279912 0.00699211 0.94901961 0.50588235 0.28235294
v -0.10295180 -0.10435787 0.03108424 0.94901961 0.50588235 0.28235294
v -0.08198685 -0.05864672 0.02479519 0.94901961 0.50588235 0.28235294
v -0.17594394 -0.09724635 0.09184971 0.94901961 0.50588235 0.28235294
v -0.06708563 -0.06603326 -0.03020094 0.94901961 0.50588235 0.28235294
v -0.20607626 -0.10277131 0.05030826 0.94901961 0.50588235 0.28235294
v -0.16472245 -0.08664229 0.08954044 0.94901961 0.50588235 0.28235294
v -0.06972040 0.13001836 0.07442244 0.94901961 0.62745098 0.28235294
v 0.03018980 0.00438257 -0.08778272 0.94901961 0.62745098 0.28235294
v 0.01755004 0.00910261 -0.04161892 0.94901961 0.62745098 0.28235294
v 0.03482924 0.06667858 -0.07628620 0.94901961 0.62745098 0.28235294
v -0.04081444 0.08213235 -0.03412843 0.94901961 0.62745098 0.28235294
v 0.00216885 0.12872543 0.00344585 0.94901961 0.62745098 0.28235294
v 0.02451152 0.07109039 -0.07052669 0.94901961 0.62745098 0.28235294
v -0.06069149 0.00276134 -0.02534697 0.94901961 0.62745098 0.28235294
v -0.07391415 0.09168070 0.07479310 0.94901961 0.62745098 0.28235294
v 0.01872384 0.08021423 -0.02402610 0.94901961 0.62745098 0.28235294
v -0.04181443 0.12110633 -0.01186910 0.94901961 0.62745098 0.28235294
v -0.03482252 0.00158044 -0.04898977 0.94901961 0.62745098 0.28235294
v -0.06097581 0.13225851 0.06984561 0.94901961 0.62745098 0.28235294
v -0.07394817 0.00682951 0.03539915 0.94901961 0.62745098 0.28235294
v 0.01384912 0.11066008 -0.01408666 0.94901961 0.62745098 0.28235294
v -0.06822072 0.09515040 0.07005036 0.94901961 0.62745098 0.28235294
v -0.05715612 0.12414295 0.02181081 0.94901961 0.62745098 0.28235294
v -0.02186667 0.10782386 -0.03405124 0.94901961 0.62745098 0.28235294
v -0.01457856 0.12595299 -0.01885827 0.94901961 0.62745098 0.28235294
v 0.01325005 0.00078419 -0.07569366 0.94901961 0.62745098 0.28235294
v 0.02012004 0.10366695 -0.04184055 0.94901961 0.62745098 0.28235294
v -0.04071600 0.11348759 -0.01995877 0.94901961 0.62745098 0.28235294
v 0.00641679 0.12072990 -0.02601729 0.94901961 0.62745098 0.28235294
v -0.01355382 -0.00395201 -0.02662296 0.94901961 0.75294118 0.28235294
v 0.00778886 -0.13531310 -0.08680174 0.94901961 0.75294118 0.28235294
v 0.00123288 0.00391297 -0.03354084 0.94901961 0.75294118 0.28235294
v 0.00396009 0.00367648 -0.06909017 0.94901961 0.75294118 0.28235294
v -0.03254459 -0.26778226 -0.06734955 0.94901961 0.75294118 0.28235294
v 0.00655221 -0.05246695 -0.07690405 0.94901961 0.75294118 0.28235294
v -0.01521777 0.00627469 -0.05890400 0.94901961 0.75294118 0.28235294
v -0.02228366 -0.24376515 -0.05039559 0.94901961 0.75294118 0.28235294
v -0.03352649 -0.24505074 -0.04387803 0.94901961 0.75294118 0.28235294
v -0.02892649 -0.25650388 -0.07257157 0.94901961 0.75294118 0.28235294
v -0.00234231 -0.05318852 -0.07265398 0.94901961 0.75294118 0.28235294
v -0.00875109 -0.14930598 -0.05232186 0.94901961 0.75294118 0.28235294
v -0.03177629 -0.26897452 -0.05248436 0.94901961 0.75294118 0.28235294
v -0.01301513 -0.15145010 -0.07502861 0.94901961 0.75294118 0.28235294
v -0.02034879 -0.25039543 -0.07315722 0.94901961 0.75294118 0.28235294
v -0.02563592 -0.26169341 -0.05299021 0.94901961 0.75294118 0.28235294
v -0.02620912 -0.26357636 -0.06450532 0.94901961 0.75294118 0.28235294
v 0.00292089 0.21569169 0.05773817 0.94901961 0.87843137 0.28235294
v 0.00739766 0.12401461 -0.01713322 0.94901961 0.87843137 0.28235294
v -0.01185288 0.20589033 0.02898360 0.94901961 0.87843137 0.28235294
v -0.04006705 0.12113399 -0.01190539 0.94901961 0.87843137 0.28235294
v -0.06972040 0.13001836 0.07442244 0.94901961 0.87843137 0.28235294
v -0.02110223 0.14508175 -0.00389477 0.94901961 0.87843137 0.28235294
v 0.00216885 0.12872543 0.00344585 0.94901961 0.87843137 0.28235294
v -0.05715612 0.12414295 0.02181081 0.94901961 0.87843137 0.28235294
v -0.05964327 0.16031240 0.05669556 0.94901961 0.87843137 0.28235294
v -0.00676493 0.14271289 -0.00615248 0.94901961 0.87843137 0.28235294
v -0.02912397 0.19397016 0.02594598 0.94901961 0.87843137 0.28235294
v -0.05358110 0.13799760 0.06609563 0.94901961 0.87843137 0.28235294
v -0.06605877 0.14857348 0.06603367 0.94901961 0.87843137 0.28235294
v -0.05218617 0.16658247 0.03432413 0.94901961 0.87843137 0.28235294
v -0.03339695 0.19204711 0.04547515 0.94901961 0.87843137 0.28235294
v -0.01196155 0.13510652 0.02273248 0.94901961 0.87843137 0.28235294
v -0.05290584 0.13835250 0.01993542 0.94901961 0.87843137 0.28235294
v -0.16152170 -0.10152914 0.08032701 0.89411765 0.94901961 0.28235294
v -0.07252143 -0.20369453 -0.01202104 0.89411765 0.94901961 0.28235294
v -0.06807001 -0.10706813 -0.00484399 0.89411765 0.94901961 0.28235294
v -0.16105042 -0.11006504 0.00130024 0.89411765 0.94901961 0.28235294
v -0.16903977 -0.19179539 -0.00541073 0.89411765 0.94901961 0.28235294
v -0.23921150 -0.10136162 0.07225290 0.89411765 0.94901961 0.28235294
v -0.07946852 -0.10375438 0.01059450 0.89411765 0.94901961 0.28235294
v -0.16295502 -0.16397895 0.03666808 0.89411765 0.94901961 0.28235294
v -0.14876898 -0.21102542 -0.01100764 0.89411765 0.94901961 0.28235294
v -0.17845451 -0.17469907 0.00318488 0.89411765 0.94901961 0.28235294
v -0.08456556 -0.21711434 -0.01044922 0.89411765 0.94901961 0.28235294
v -0.23371728 -0.10166476 0.08920254 0.89411765 0.94901961 0.28235294
v -0.19388285 -0.15838650 0.01979614 0.89411765 0.94901961 0.28235294
v -0.16298816 -0.11159929 0.07583566 0.89411765 0.94901961 0.28235294
v -0.14633840 -0.20549081 -0.00254538 0.89411765 0.94901961 0.28235294
v -0.23587998 -0.10791882 0.07720241 0.89411765 0.94901961 0.28235294
v -0.23299723 -0.11145913 0.06760462 0.89411765 0.94901961 0.28235294
v -0.15436716 -0.16533476 0.03515973 0.89411765 0.94901961 0.28235294
v -0.24138535 -0.10155408 0.07871469 0.89411765 0.94901961 0.28235294
v -0.16830438 -0.19070908 0.00267146 0.89411765 0.94901961 0.28235294
v -0.23132908 -0.10771585 0.08176535 0.89411765 0.94901961 0.28235294
v -0.01310916 -0.13560968 -0.04873161 0.76862745 0.94901961 0.28235294
v 0.06109575 -0.13042900 -0.09699394 0.76862745 0.94901961 0.28235294
v 0.03269723 -0.13149841 -0.07498744 0.76862745 0.94901961 0.28235294
v 0.06208627 -0.12866357 -0.11254606 0.76862745 0.94901961 0.28235294
v -0.01870358 -0.24467076 -0.05308343 0.76862745 0.94901961 0.28235294
v -0.00823179 -0.21552177 -0.08599134 0.76862745 0.94901961 0.28235294
v -0.00087709 -0.22556616 -0.06853738 0.76862745 0.94901961 0.28235294
v 0.00395829 -0.13474098 -0.05756603 0.76862745 0.94901961 0.28235294
v -0.01578823 -0.24013207 -0.07756984 0.76862745 0.94901961 0.28235294
v 0.02570304 -0.13707713 -0.10355208 0.76862745 0.94901961 0.28235294
v 0.05739698 -0.13793961 -0.10705139 0.76862745 0.94901961 0.28235294
v -0.01347625 -0.24125324 -0.05733732 0.76862745 0.94901961 0.28235294
v -0.00376048 -0.13752112 -0.07587679 0.76862745 0.94901961 0.28235294
v 0.03428150 -0.16513019 -0.10303828 0.76862745 0.94901961 0.28235294
v 0.05382879 -0.14311872 -0.09445455 0.76862745 0.94901961 0.28235294
v -0.00901609 -0.23532365 -0.07734566 0.76862745 0.94901961 0.28235294
v 0.00191547 -0.18256832 -0.08983049 0.76862745 0.94901961 0.28235294
v 0.02091690 -0.17383757 -0.10040208 0.76862745 0.94901961 0.28235294
v 0.00038368 -0.22312681 -0.07975511 0.76862745 0.94901961 0.28235294
v 0.20546665 -0.03115509 -0.11139384 0.64313725 0.94901961 0.28235294
v 0.20673932 -0.02395147 -0.11364400 0.64313725 0.94901961 0.28235294
v 0.07475638 0.01808868 -0.11181927 0.64313725 0.94901961 0.28235294
v 0.09098259 -0.00538536 -0.14295162 0.64313725 0.94901961 0.28235294
v 0.18117237 -0.00471166 -0.15352912 0.64313725 0.94901961 0.28235294
v 0.06075515 -0.06579224 -0.11299897 0.64313725 0.94901961 0.28235294
v 0.18409313 -0.01662663 -0.14749484 0.64313725 0.94901961 0.28235294
v 0.19259049 -0.01075969 -0.11889882 0.64313725 0.94901961 0.28235294
v 0.06043082 -0.02484539 -0.10866588 0.64313725 0.94901961 0.28235294
v 0.09114819 -0.06596253 -0.13441711 0.64313725 0.94901961 0.28235294
v 0.20108016 -0.02720611 -0.11986813 0.64313725 0.94901961 0.28235294
v 0.08693966 -0.00547340 -0.13989851 0.64313725 0.94901961 0.28235294
v 0.09059715 -0.01759493 -0.14393756 0.64313725 0.94901961 0.28235294
v 0.12056140 -0.04112947 -0.14380141 0.64313725 0.94901961 0.28235294
v 0.19021446 -0.02304019 -0.13486927 0.64313725 0.94901961 0.28235294
v 0.11233626 -0.05862052 -0.12192130 0.64313725 0.94901961 0.28235294
v 0.06715466 -0.06377175 -0.11985079 0.64313725 0.94901961 0.28235294
v 0.10575199 -0.04850439 -0.14122326 0.64313725 0.94901961 0.28235294
v -0.20842154 -0.01204175 0.15454318 0.51764706 0.94901961 0.28235294
v -0.20958787 -0.09284829 0.10718948 0.51764706 0.94901961 0.28235294
v -0.20577814 -0.11052848 0.04323046 0.51764706 0.94901961 0.28235294
v -0.20607626 -0.10277131 0.05030826 0.51764706 0.94901961 0.28235294
v -0.28595700 -0.04291342 0.10063233 0.51764706 0.94901961 0.28235294
v -0.25713004 -0.05277425 0.14746141 0.51764706 0.94901961 0.28235294
v -0.21366749 -0.02048149 0.10790688 0.51764706 0.94901961 0.28235294
v -0.21710445 -0.05324035 0.14544020 0.51764706 0.94901961 0.28235294
v -0.26780198 -0.03386800 0.14506630 0.51764706 0.94901961 0.28235294
v -0.24509246 -0.09275842 0.09664187 0.51764706 0.94901961 0.28235294
v -0.27854652 -0.02654636 0.10756260 0.51764706 0.94901961 0.28235294
v -0.24104883 -0.02494210 0.15443542 0.51764706 0.94901961 0.28235294
v -0.26788215 -0.04542244 0.14667478 0.51764706 0.94901961 0.28235294
v -0.23921150 -0.10136162 0.07225290 0.51764706 0.94901961 0.28235294
v -0.24419981 -0.07690051 0.12181367 0.51764706 0.94901961 0.28235294
v -0.26851579 -0.06450432 0.12415290 0.51764706 0.94901961 0.28235294
v -0.21202380 -0.11377494 0.04754568 0.51764706 0.94901961 0.28235294
v -0.22025008 -0.09180533 0.10801041 0.51764706 0.94901961 0.28235294
v -0.25676503 -0.06259495 0.13603106 0.51764706 0.94901961 0.28235294
v -0.26280017 -0.07503064 0.09938468 0.51764706 0.94901961 0.28235294
v -0.06776396 -0.26655097 -0.03900459 0.39215686 0.94901961 0.28235294
v -0.06820341 -0.28914734 -0.05827143 0.39215686 0.94901961 0.28235294
v -0.06952517 -0.26946731 -0.07152605 0.39215686 0.94901961 0.28235294
v -0.14961478 -0.26438998 -0.14730941 0.39215686 0.94901961 0.28235294
v -0.12145379 -0.25677168 -0.04989809 0.39215686 0.94901961 0.28235294
v -0.12041955 -0.27912585 -0.13535656 0.39215686 0.94901961 0.28235294
v -0.07716205 -0.28901031 -0.05926613 0.39215686 0.94901961 0.28235294
v -0.08091302 -0.29091475 -0.08935733 0.39215686 0.94901961 0.28235294
v -0.12225795 -0.27023503 -0.13646093 0.39215686 0.94901961 0.28235294
v -0.10100600 -0.27543523 -0.05646148 0.39215686 0.94901961 0.28235294
v -0.14697793 -0.27874638 -0.14714573 0.39215686 0.94901961 0.28235294
v -0.08204632 -0.28125261 -0.08943160 0.39215686 0.94901961 0.28235294
v -0.10974835 -0.28814653 -0.09641642 0.39215686 0.94901961 0.28235294
v -0.10387698 -0.28908843 -0.10854897 0.39215686 0.94901961 0.28235294
v -0.09957695 -0.28677005 -0.07201668 0.39215686 0.94901961 0.28235294
v -0.11891313 -0.28728614 -0.11887963 0.39215686 0.94901961 0.28235294
v -0.11788455 -0.26150691 -0.05287559 0.39215686 0.94901961 0.28235294
v -0.11100827 -0.27510860 -0.06769600 0.39215686 0.94901961 0.28235294
v -0.07394817 0.00682951 0.03539915 0.28235294 0.94901961 0.29803922
v -0.02058448 -0.13607063 -0.06806261 0.28235294 0.94901961 0.29803922
v -0.02268743 0.00302832 -0.05371692 0.28235294 0.94901961 0.29803922
v -0.05483436 -0.10672002 -0.06941323 0.28235294 0.94901961 0.29803922
v -0.07543184 -0.13515730 0.00058585 0.28235294 0.94901961 0.29803922
v -0.01947187 -0.08207138 -0.06360342 0.28235294 0.94901961 0.29803922
v -0.05393524 -0.00011277 -0.03322683 0.28235294 0.94901961 0.29803922
v -0.03163802 -0.13408420 -0.03251080 0.28235294 0.94901961 0.29803922
v -0.06874279 -0.13611728 -0.04594141 0.28235294 0.94901961 0.29803922
v -0.06346489 0.01087720 0.02453327 0.28235294 0.94901961 0.29803922
v -0.04258309 -0.00084310 -0.04476889 0.28235294 0.94901961 0.29803922
v -0.03072314 -0.13700500 -0.06043515 0.28235294 0.94901961 0.29803922
v -0.03299809 0.00605937 -0.00113442 0.28235294 0.94901961 0.29803922
v -0.07495071 -0.02009998 0.02703004 0.28235294 0.94901961 0.29803922
v -0.05707452 -0.09282900 -0.06089684 0.28235294 0.94901961 0.29803922
v 0.02638938 0.20610731 0.08361826 0.28235294 0.94901961 0.41960784
v 0.02312237 0.21127547 0.07480913 0.28235294 0.94901961 0.41960784
v -0.01780722 0.24421462 0.03711192 0.28235294 0.94901961 0.41960784
v -0.03180696 0.25551550 -0.01588872 0.28235294 0.94901961 0.41960784
v -0.02941076 0.19735296 0.02747942 0.28235294 0.94901961 0.41960784
v 0.02330880 0.22275983 0.08008351 0.28235294 0.94901961 0.41960784
v -0.01185288 0.20589033 0.02898360 0.28235294 0.94901961 0.41960784
v -0.03258528 0.25094124 0.01331847 0.28235294 0.94901961 0.41960784
v 0.01551713 0.22428394 0.05990247 0.28235294 0.94901961 0.41960784
v -0.00317046 0.24039044 0.04552452 0.28235294 0.94901961 0.41960784
v -0.03339695 0.19204711 0.04547515 0.28235294 0.94901961 0.41960784
v -0.03208167 0.24695173 -0.01367161 0.28235294 0.94901961 0.41960784
v -0.01235641 0.24601863 0.01754808 0.28235294 0.94901961 0.41960784
v 0.01298459 0.22778460 0.07571171 0.28235294 0.94901961 0.41960784
v -0.02602045 0.24570818 0.02967779 0.28235294 0.94901961 0.41960784
v -0.02496010 0.24582762 -0.00553318 0.28235294 0.94901961 0.41960784
v 0.00217156 0.21753252 0.07448028 0.28235294 0.94901961 0.41960784
v -0.00025102 0.22902062 0.06582389 0.28235294 0.94901961 0.41960784
v 0.01833512 0.21684112 0.06457698 0.28235294 0.94901961 0.41960784
v -0.02756533 0.25118368 -0.00976326 0.28235294 0.94901961 0.41960784
v 0.00904857 0.21026179 0.07756384 0.28235294 0.94901961 0.41960784
v 0.02450830 0.09982133 -0.03357566 0.28235294 0.94901961 0.54509804
v 0.11087106 0.00229137 -0.11827402 0.28235294 0.94901961 0.54509804
v 0.03224581 0.08838161 -0.05535618 0.28235294 0.94901961 0.54509804
v 0.10511285 0.00745938 -0.11704191 0.28235294 0.94901961 0.54509804
v 0.02574945 0.00336487 -0.05192945 0.28235294 0.94901961 0.54509804
v 0.10407224 0.00317467 -0.10848012 0.28235294 0.94901961 0.54509804
v 0.03588944 0.00173353 -0.09265884 0.28235294 0.94901961 0.54509804
v 0.05873822 0.00312292 -0.07567088 0.28235294 0.94901961 0.54509804
v 0.05552378 0.00355353 -0.10300873 0.28235294 0.94901961 0.54509804
v 0.02533386 0.09260514 -0.05473151 0.28235294 0.94901961 0.54509804
v 0.02420734 0.04829187 -0.03903342 0.28235294 0.94901961 0.54509804
v 0.03821679 0.05339665 -0.08461112 0.28235294 0.94901961 0.54509804
v 0.07724812 0.03089403 -0.10518890 0.28235294 0.94901961 0.54509804
v 0.03748628 0.00731062 -0.05858954 0.28235294 0.94901961 0.54509804
v 0.03419302 0.05404006 -0.04536055 0.28235294 0.94901961 0.54509804
v 0.05271869 0.03016494 -0.09775903 0.28235294 0.94901961 0.54509804
v 0.06196453 0.03619903 -0.10129063 0.28235294 0.94901961 0.54509804
v -0.26971011 -0.22978223 -0.32404577 0.28235294 0.94901961 0.67058824
v -0.26841321 -0.24211918 -0.32327472 0.28235294 0.94901961 0.67058824
v -0.27274674 -0.24092132 -0.33009934 0.28235294 0.94901961 0.67058824
v -0.33060849 -0.22231948 -0.41557916 0.28235294 0.94901961 0.67058824
v -0.35458781 -0.20991545 -0.39655982 0.28235294 0.94901961 0.67058824
v -0.29642138 -0.22721050 -0.33472620 0.28235294 0.94901961 0.67058824
v -0.33876566 -0.20310296 -0.41002729 0.28235294 0.94901961 0.67058824
v -0.34608314 -0.23377477 -0.40127794 0.28235294 0.94901961 0.67058824
v -0.35347000 -0.22723072 -0.40997354 0.28235294 0.94901961 0.67058824
v -0.35109719 -0.20302046 -0.40191106 0.28235294 0.94901961 0.67058824
v -0.33784660 -0.23330602 -0.40429043 0.28235294 0.94901961 0.67058824
v -0.29543263 -0.23966319 -0.33428933 0.28235294 0.94901961 0.67058824
v -0.34708388 -0.22548884 -0.39523366 0.28235294 0.94901961 0.67058824
v -0.35395761 -0.22384322 -0.40873122 0.28235294 0.94901961 0.67058824
v 0.32255748 0.04976080 0.17186304 0.28235294 0.94901961 0.79607843
v 0.38289995 -0.04633893 0.09112442 0.28235294 0.94901961 0.79607843
v 0.35312023 0.03091005 0.13134973 0.28235294 0.94901961 0.79607843
v 0.32788754 -0.03210885 0.08511288 0.28235294 0.94901961 0.79607843
v 0.36823440 -0.03783016 0.10730382 0.28235294 0.94901961 0.79607843
v 0.38116714 -0.01779306 0.09798659 0.28235294 0.94901961 0.79607843
v 0.32067076 0.00976217 0.09929147 0.28235294 0.94901961 0.79607843
v 0.38030464 -0.02993303 0.10987907 0.28235294 0.94901961 0.79607843
v 0.32368314 0.04190304 0.16553750 0.28235294 0.94901961 0.79607843
v 0.34708446 -0.04314490 0.08690399 0.28235294 0.94901961 0.79607843
v 0.32259025 0.03157615 0.13016861 0.28235294 0.94901961 0.79607843
v 0.37352381 -0.00713305 0.10258861 0.28235294 0.94901961 0.79607843
v 0.37533619 -0.03856010 0.10630451 0.28235294 0.94901961 0.79607843
v 0.37898559 -0.01304071 0.11433641 0.28235294 0.94901961 0.79607843
v 0.38136010 -0.04334806 0.09826285 0.28235294 0.94901961 0.79607843
v 0.34716841 -0.03829170 0.09279278 0.28235294 0.94901961 0.79607843
v 0.33754130 0.04701586 0.16549051 0.28235294 0.94901961 0.79607843
v 0.32360695 0.01455844 0.10359533 0.28235294 0.94901961 0.79607843
v 0.36103709 -0.00199399 0.13257676 0.28235294 0.94901961 0.79607843
v 0.35043064 0.03797274 0.14591372 0.28235294 0.94901961 0.79607843
v 0.35339928 0.02153692 0.14584767 0.28235294 0.94901961 0.79607843
v 0.35892616 0.01903175 0.12146048 0.28235294 0.94901961 0.79607843
v 0.33990598 0.03879651 0.16064396 0.28235294 0.94901961 0.79607843
v 0.35022663 0.03195107 0.14994116 0.28235294 0.94901961 0.79607843
v 0.25845923 -0.04865066 -0.02727266 0.28235294 0.94901961 0.92156863
v 0.26179919 -0.05984892 -0.02655742 0.28235294 0.94901961 0.92156863
v 0.19860267 -0.01674372 -0.12558395 0.28235294 0.94901961 0.92156863
v 0.19423003 -0.01166904 -0.12987884 0.28235294 0.94901961 0.92156863
v 0.21479275 -0.04355793 -0.06707719 0.28235294 0.94901961 0.92156863
v 0.23525496 -0.05740297 -0.03695717 0.28235294 0.94901961 0.92156863
v 0.20477654 -0.02371859 -0.08671168 0.28235294 0.94901961 0.92156863
v 0.18835855 -0.02921079 -0.11729665 0.28235294 0.94901961 0.92156863
v 0.21906906 -0.02595585 -0.07869114 0.28235294 0.94901961 0.92156863
v 0.23320548 -0.04364595 -0.03927726 0.28235294 0.94901961 0.92156863
v 0.19550710 -0.02296565 -0.12983852 0.28235294 0.94901961 0.92156863
v 0.23237809 -0.05135892 -0.06364618 0.28235294 0.94901961 0.92156863
v 0.18521790 -0.01203394 -0.11912631 0.28235294 0.94901961 0.92156863
v 0.23456661 -0.03668126 -0.04876340 0.28235294 0.94901961 0.92156863
v 0.21083196 -0.03078939 -0.07380898 0.28235294 0.94901961 0.92156863
v 0.25354679 -0.05883484 -0.03563280 0.28235294 0.94901961 0.92156863
v 0.21815805 -0.04732665 -0.07235731 0.28235294 0.94901961 0.92156863
v 0.20131947 -0.03666644 -0.09953519 0.28235294 0.94901961 0.92156863
v 0.19750242 -0.03188926 -0.09522020 0.28235294 0.94901961 0.92156863
v 0.22125718 -0.03432989 -0.05983587 0.28235294 0.94901961 0.92156863
v 0.19420228 -0.01939999 -0.10225667 0.28235294 0.94901961 0.92156863
v 0.07738968 0.18776149 0.16513029 0.28235294 0.85098039 0.94901961
v 0.08237124 0.17538396 0.16584242 0.28235294 0.85098039 0.94901961
v 0.02859606 0.21672518 0.08193236 0.28235294 0.85098039 0.94901961
v 0.00530755 0.22447228 0.07581842 0.28235294 0.85098039 0.94901961
v 0.05695699 0.18064617 0.15811214 0.28235294 0.85098039 0.94901961
v 0.03912695 0.21231613 0.11544687 0.28235294 0.85098039 0.94901961
v 0.06730251 0.19183992 0.14110994 0.28235294 0.85098039 0.94901961
v 0.02205801 0.20172793 0.09294299 0.28235294 0.85098039 0.94901961
v 0.05477192 0.20128053 0.12588466 0.28235294 0.85098039 0.94901961
v 0.05316127 0.19253416 0.15274826 0.28235294 0.85098039 0.94901961
v 0.03315650 0.20903194 0.08712643 0.28235294 0.85098039 0.94901961
v 0.04703340 0.18744444 0.12562356 0.28235294 0.85098039 0.94901961
v 0.01774462 0.20802297 0.09896912 0.28235294 0.85098039 0.94901961
v 0.06105010 0.19876099 0.14724925 0.28235294 0.85098039 0.94901961
v 0.02900146 0.21374697 0.10924873 0.28235294 0.85098039 0.94901961
v 0.07201060 0.18335020 0.14863519 0.28235294 0.85098039 0.94901961
v 0.04033021 0.20833209 0.09950720 0.28235294 0.85098039 0.94901961
v 0.00904857 0.21026179 0.07756384 0.28235294 0.85098039 0.94901961
v 0.06085024 0.18779863 0.13300685 0.28235294 0.85098039 0.94901961
v 0.01574011 0.21529625 0.09444493 0.28235294 0.85098039 0.94901961
v 0.04524367 0.18846064 0.14092223 0.28235294 0.85098039 0.94901961
v 0.04277131 0.20106186 0.13518276 0.28235294 0.85098039 0.94901961
v 0.04438425 0.19957643 0.10673052 0.28235294 0.85098039 0.94901961
v 0.03076871 0.19716044 0.11708504 0.28235294 0.85098039 0.94901961
v -0.11785438 0.07198764 0.10440505 0.28235294 0.72549020 0.94901961
v -0.06549626 0.06043802 0.01414459 0.28235294 0.72549020 0.94901961
v -0.06605877 0.14857348 0.06603367 0.28235294 0.72549020 0.94901961
v -0.06517229 0.09840153 0.01267565 0.28235294 0.72549020 0.94901961
v -0.15546419 0.05765388 0.09903629 0.28235294 0.72549020 0.94901961
v -0.06099114 0.15675069 0.04320597 0.28235294 0.72549020 0.94901961
v -0.08200435 0.08186266 0.08086101 0.28235294 0.72549020 0.94901961
v -0.12166314 0.05988073 0.10736406 0.28235294 0.72549020 0.94901961
v -0.07565811 0.05922084 0.02180082 0.28235294 0.72549020 0.94901961
v -0.16153267 0.05303071 0.11595853 0.28235294 0.72549020 0.94901961
v -0.09628557 0.12160818 0.06390320 0.28235294 0.72549020 0.94901961
v -0.07179781 0.12686367 0.07583844 0.28235294 0.72549020 0.94901961
v -0.08112913 0.07383201 0.06999948 0.28235294 0.72549020 0.94901961
v -0.06925750 0.09515576 0.01509896 0.28235294 0.72549020 0.94901961
v -0.13785552 0.07991722 0.09093296 0.28235294 0.72549020 0.94901961
v -0.15148050 0.06501436 0.09830407 0.28235294 0.72549020 0.94901961
v -0.06869821 0.14949146 0.04761249 0.28235294 0.72549020 0.94901961
v -0.07578035 0.14383523 0.06621807 0.28235294 0.72549020 0.94901961
v -0.15592781 0.05948279 0.11146187 0.28235294 0.72549020 0.94901961
v -0.02888831 0.00490519 -0.00647353 0.28235294 0.60000000 0.94901961
v 0.01187454 0.00621386 -0.03875550 0.28235294 0.60000000 0.94901961
v -0.01355382 -0.00395201 -0.02662296 0.28235294 0.60000000 0.94901961
v 0.00738782 -0.00676017 -0.03895606 0.28235294 0.60000000 0.94901961
v -0.01679838 -0.11085645 -0.03933804 0.28235294 0.60000000 0.94901961
v -0.01667576 0.00417352 -0.01761068 0.28235294 0.60000000 0.94901961
v 0.00367390 -0.00407184 -0.03252031 0.28235294 0.60000000 0.94901961
v -0.00228894 -0.06664262 -0.04294195 0.28235294 0.60000000 0.94901961
v -0.02721941 -0.10671846 -0.03390011 0.28235294 0.60000000 0.94901961
v -0.02462447 -0.10104412 -0.03130125 0.28235294 0.60000000 0.94901961
v -0.03403241 -0.05097283 -0.01504585 0.28235294 0.60000000 0.94901961
v -0.02966407 -0.10403652 -0.02937934 0.28235294 0.60000000 0.94901961
f 8 2 3
f 8 3 1
f 9 3 2
f 10 6 4
f 12 3 10
f 14 2 8
f 16 9 6
f 16 3 9
f 16 10 3
f 16 6 10
f 17 9 2
f 17 6 9
f 18 10 4
f 18 4 7
f 18 12 10
f 18 7 12
f 19 4 6
f 20 12 1
f 20 1 3
f 20 3 12
f 21 7 4
f 21 4 13
f 21 5 15
f 21 12 7
f 21 15 1
f 21 1 12
f 23 14 8
f 23 8 1
f 23 1 15
f 24 17 2
f 24 2 14
f 25 6 17
f 26 13 4
f 26 4 19
f 26 22 13
f 26 11 22
f 26 19 25
f 27 21 13
f 27 5 21
f 27 22 5
f 27 13 22
f 28 23 15
f 28 15 5
f 28 14 23
f 28 5 22
f 29 17 24
f 30 22 11
f 30 29 24
f 30 11 29
f 30 28 22
f 30 24 14
f 31 25 19
f 31 19 6
f 31 6 25
f 32 26 25
f 32 11 26
f 32 29 11
f 32 25 17
f 32 17 29
f 33 30 14
f 33 14 28
f 33 28 30
f 39 35 37
f 39 37 36
f 40 36 37
f 42 37 35
f 42 40 37
f 42 38 40
f 47 45 38
f 47 35 41
f 47 41 45
f 48 39 36
f 48 36 40
f 48 40 43
f 49 41 46
f 49 45 41
f 49 34 45
f 50 43 40
f 51 44 40
f 51 40 38
f 51 38 45
f 52 45 34
f 52 51 45
f 52 44 51
f 52 34 50
f 52 50 40
f 52 40 44
f 53 41 35
f 53 35 39
f 54 42 35
f 55 39 48
f 55 48 43
f 56 34 49
f 56 50 34
f 56 43 50
f 56 55 43
f 56 49 46
f 56 46 55
f 57 53 46
f 57 46 41
f 57 41 53
f 58 53 39
f 58 46 53
f 58 55 46
f 58 39 55
f 59 54 35
f 59 35 47
f 59 47 54
f 60 54 47
f 60 47 38
f 61 38 42
f 61 42 54
f 61 60 38
f 61 54 60
f 66 63 62
f 68 67 65
f 69 62 63
f 71 65 67
f 71 70 65
f 71 66 70
f 72 67 68
f 73 72 64
f 73 67 72
f 75 70 66
f 75 66 62
f 76 68 65
f 76 65 70
f 77 63 66
f 77 66 71
f 78 64 72
f 78 73 64
f 79 78 72
f 79 62 69
f 79 69 78
f 80 69 63
f 80 67 74
f 80 63 77
f 80 77 71
f 81 74 67
f 81 67 69
f 81 80 74
f 81 69 80
f 82 75 62
f 82 70 75
f 83 78 69
f 83 69 67
f 83 67 73
f 83 73 78
f 84 62 79
f 85 80 71
f 85 71 67
f 85 67 80
f 86 76 70
f 86 70 82
f 86 68 76
f 86 82 62
f 87 84 79
f 87 68 84
f 87 79 72
f 87 72 68
f 88 84 68
f 88 68 86
f 88 86 62
f 88 62 84
f 94 92 91
f 95 91 89
f 96 89 93
f 98 93 89
f 99 95 89
f 100 94 91
f 100 91 95
f 100 90 94
f 100 95 99
f 102 97 92
f 102 92 94
f 103 98 89
f 103 89 91
f 103 91 92
f 103 92 97
f 105 100 99
f 105 90 100
f 105 99 89
f 105 89 96
f 106 96 93
f 107 106 101
f 107 96 106
f 108 102 94
f 108 94 90
f 109 97 102
f 110 103 97
f 110 98 103
f 110 97 104
f 111 93 98
f 111 110 104
f 111 98 110
f 112 105 96
f 112 90 105
f 112 107 90
f 112 96 107
f 113 106 93
f 113 111 104
f 113 93 111
f 114 102 108
f 115 107 101
f 115 109 102
f 115 101 109
f 116 113 104
f 116 104 97
f 116 97 109
f 116 109 113
f 117 113 109
f 117 101 106
f 117 106 113
f 118 90 107
f 118 114 108
f 118 108 90
f 119 115 102
f 119 102 114
f 120 117 109
f 120 109 101
f 120 101 117
f 121 118 107
f 121 107 115
f 121 115 119
f 121 119 114
f 121 114 118
f 130 124 127
f 131 127 122
f 131 122 123
f 132 127 124
f 132 122 127
f 132 129 122
f 132 125 129
f 133 131 123
f 133 128 126
f 134 122 129
f 134 128 133
f 134 133 123
f 134 123 122
f 135 129 125
f 135 126 129
f 135 133 126
f 136 135 125
f 136 133 135
f 137 124 130
f 137 132 124
f 137 136 125
f 138 126 128
f 138 134 129
f 138 129 126
f 140 133 136
f 140 139 131
f 141 137 125
f 141 125 132
f 141 132 137
f 142 137 130
f 142 130 127
f 142 136 137
f 143 138 128
f 143 128 134
f 143 134 138
f 144 142 127
f 145 127 131
f 145 131 139
f 145 144 127
f 145 139 144
f 146 140 131
f 146 131 133
f 146 133 140
f 147 136 142
f 147 142 144
f 147 140 136
f 147 144 139
f 147 139 140
f 156 149 148
f 156 148 154
f 157 153 151
f 157 154 150
f 157 151 154
f 158 151 153
f 159 156 152
f 159 149 156
f 159 153 157
f 160 155 148
f 160 148 149
f 160 150 155
f 161 148 155
f 162 155 150
f 162 150 154
f 162 161 155
f 163 156 151
f 163 152 156
f 164 156 154
f 164 154 151
f 164 151 156
f 165 157 150
f 166 159 152
f 167 159 157
f 167 149 159
f 167 165 149
f 167 157 165
f 168 154 148
f 168 148 161
f 168 162 154
f 168 161 162
f 169 163 158
f 169 152 163
f 169 166 152
f 170 163 151
f 170 151 158
f 170 158 163
f 171 160 149
f 171 149 165
f 171 165 150
f 171 150 160
f 172 158 153
f 172 169 158
f 173 172 153
f 173 153 159
f 173 159 166
f 173 166 169
f 173 169 172
f 181 174 175
f 181 176 174
f 182 175 174
f 183 179 178
f 183 177 179
f 184 179 177
f 185 174 176
f 185 176 180
f 185 183 174
f 185 177 183
f 186 177 180
f 187 181 175
f 187 175 179
f 187 179 181
f 188 178 182
f 189 179 175
f 189 175 182
f 189 182 178
f 189 178 179
f 190 183 178
f 190 174 183
f 191 181 179
f 191 179 184
f 191 176 181
f 192 185 180
f 192 180 177
f 192 177 185
f 193 186 180
f 193 180 176
f 193 176 191
f 194 184 177
f 194 177 186
f 194 186 193
f 194 193 191
f 194 191 184
f 195 182 174
f 196 195 174
f 196 188 182
f 196 182 195
f 196 190 178
f 196 178 188
f 197 196 174
f 197 174 190
f 197 190 196
f 203 201 198
f 204 198 199
f 204 200 198
f 206 201 200
f 207 203 198
f 207 198 200
f 207 200 201
f 207 201 203
f 208 204 199
f 209 205 202
f 209 199 205
f 210 205 199
f 210 199 198
f 211 198 201
f 213 208 202
f 214 200 204
f 214 204 208
f 214 208 213
f 215 208 199
f 215 199 209
f 215 209 202
f 215 202 208
f 216 210 198
f 216 205 210
f 216 202 205
f 216 212 202
f 216 211 212
f 217 213 202
f 217 212 201
f 217 201 206
f 218 212 211
f 218 211 201
f 218 201 212
f 219 214 213
f 219 200 214
f 219 213 217
f 219 217 206
f 219 206 200
f 220 216 198
f 220 198 211
f 220 211 216
f 221 217 202
f 221 202 212
f 221 212 217
f 228 227 224
f 229 225 223
f 231 227 223
f 231 223 225
f 231 224 227
f 233 223 227
f 233 227 228
f 233 229 223
f 233 228 226
f 233 226 229
f 234 229 226
f 234 225 229
f 235 226 222
f 237 230 224
f 237 225 235
f 238 232 228
f 238 228 224
f 239 232 222
f 239 222 226
f 239 226 228
f 240 234 226
f 240 225 234
f 240 235 225
f 240 226 235
f 241 235 222
f 241 230 235
f 242 236 230
f 242 222 236
f 243 224 230
f 243 230 236
f 244 236 222
f 244 222 232
f 245 237 224
f 245 224 231
f 245 231 225
f 245 225 237
f 246 237 235
f 246 235 230
f 246 230 237
f 247 239 228
f 247 228 232
f 247 232 239
f 249 238 224
f 249 224 243
f 249 232 238
f 249 244 232
f 249 243 236
f 249 236 244
f 250 241 222
f 250 222 242
f 250 242 248
f 251 248 242
f 251 242 230
f 251 230 241
f 252 250 248
f 252 241 250
f 252 251 241
f 252 248 251
f 258 255 254
f 258 256 257
f 261 258 257
f 262 256 258
f 263 254 255
f 263 255 259
f 264 259 255
f 264 253 259
f 264 261 257
f 264 257 253
f 265 253 260
f 265 254 263
f 266 260 253
f 266 253 257
f 267 255 258
f 267 258 261
f 267 264 255
f 267 261 264
f 268 262 258
f 268 258 254
f 268 254 262
f 269 254 260
f 269 260 266
f 269 266 257
f 270 263 259
f 270 259 253
f 270 265 263
f 270 253 265
f 271 265 260
f 271 260 254
f 271 254 265
f 272 269 262
f 272 262 254
f 272 254 269
f 273 269 257
f 273 257 256
f 273 256 262
f 273 262 269
f 279 275 277
f 279 277 276
f 280 274 278
f 280 279 276
f 282 274 280
f 283 275 280
f 283 281 275
f 284 280 275
f 284 275 279
f 284 279 280
f 287 278 274
f 287 274 282
f 287 285 278
f 287 282 285
f 288 282 280
f 288 280 276
f 288 285 282
f 289 283 280
f 289 280 278
f 289 281 283
f 290 278 285
f 290 289 278
f 290 281 289
f 292 286 281
f 293 275 281
f 293 281 286
f 294 288 276
f 294 285 288
f 295 290 285
f 295 281 290
f 295 291 281
f 295 285 294
f 296 292 281
f 296 281 291
f 297 293 286
f 297 286 292
f 297 277 275
f 297 275 293
f 297 292 296
f 298 294 276
f 298 276 277
f 298 295 294
f 299 296 291
f 299 298 277
f 299 291 295
f 299 295 298
f 300 297 296
f 300 277 297
f 300 299 277
f 300 296 299
f 307 301 303
f 307 304 301
f 308 302 303
f 308 303 301
f 309 308 301
f 309 302 308
f 310 304 306
f 311 306 303
f 311 303 302
f 311 302 306
f 312 306 304
f 312 304 307
f 312 307 303
f 312 303 306
f 313 309 305
f 313 302 309
f 314 309 301
f 314 301 304
f 316 310 306
f 316 306 302
f 316 302 310
f 317 310 302
f 317 302 313
f 317 313 305
f 318 305 315
f 318 317 305
f 318 310 317
f 318 315 304
f 318 304 310
f 319 315 314
f 319 314 304
f 319 304 315
f 320 315 305
f 320 305 309
f 320 309 314
f 320 314 315
f 321 322 323
f 326 323 322
f 328 323 326
f 328 327 323
f 328 324 327
f 329 328 326
f 329 324 328
f 330 326 322
f 330 322 321
f 330 321 325
f 331 321 323
f 331 323 327
f 333 329 326
f 333 326 325
f 333 325 329
f 334 329 325
f 334 324 329
f 334 325 332
f 335 330 325
f 335 325 326
f 335 326 330
f 336 334 332
f 336 324 334
f 337 331 327
f 337 327 332
f 337 325 321
f 338 336 332
f 338 332 327
f 339 337 321
f 339 321 331
f 339 331 337
f 340 337 332
f 340 332 325
f 340 325 337
f 341 338 327
f 341 327 324
f 341 324 336
f 341 336 338
f 348 345 346
f 349 343 342
f 350 344 347
f 352 347 344
f 353 352 344
f 353 348 352
f 354 348 346
f 355 343 349
f 356 355 349
f 356 346 355
f 356 354 346
f 357 350 347
f 357 351 345
f 357 347 351
f 358 351 346
f 358 346 345
f 358 345 351
f 359 351 347
f 359 347 352
f 359 352 342
f 359 342 343
f 360 352 348
f 360 342 352
f 361 353 344
f 361 345 348
f 361 348 353
f 362 348 354
f 362 360 348
f 363 343 355
f 363 359 343
f 363 351 359
f 364 355 346
f 364 346 351
f 364 363 355
f 364 351 363
f 365 356 349
f 365 349 342
f 366 354 356
f 366 362 354
f 366 342 360
f 366 365 342
f 366 356 365
f 367 357 345
f 367 344 350
f 367 350 357
f 367 361 344
f 367 345 361
f 368 366 360
f 368 360 362
f 368 362 366
f 371 370 372
f 374 371 372
f 376 372 370
f 377 370 371
f 377 376 370
f 377 373 376
f 378 373 377
f 379 375 369
f 380 369 375
f 380 373 378
f 381 379 374
f 381 375 379
f 382 376 373
f 382 375 381
f 382 381 372
f 382 372 376
f 383 378 377
f 383 377 371
f 383 371 379
f 384 379 371
f 384 371 374
f 384 374 379
f 385 379 369
f 385 369 380
f 385 380 378
f 385 378 383
f 386 381 374
f 386 374 372
f 386 372 381
f 387 382 373
f 387 375 382
f 387 380 375
f 387 373 380
f 388 385 383
f 388 383 379
f 388 379 385
f 391 390 392
f 395 392 390
f 395 390 393
f 397 389 396
f 398 391 392
f 400 396 393
f 400 393 390
f 401 389 397
f 402 397 396
f 402 391 397
f 402 396 400
f 403 398 392
f 403 394 398
f 404 397 391
f 404 391 398
f 404 398 394
f 404 401 397
f 404 394 401
f 405 396 389
f 405 389 401
f 405 393 396
f 406 395 393
f 406 392 395
f 407 401 394
f 407 405 401
f 407 399 405
f 407 406 399
f 408 402 400
f 408 400 390
f 408 390 391
f 408 391 402
f 409 403 392
f 409 394 403
f 410 405 399
f 410 393 405
f 410 406 393
f 410 399 406
f 411 392 406
f 411 406 407
f 411 409 392
f 411 407 394
f 411 394 409
f 417 414 413
f 417 415 414
f 418 412 414
f 418 414 415
f 420 418 416
f 420 412 418
f 420 419 414
f 420 414 412
f 421 416 418
f 422 417 413
f 422 413 418
f 422 418 415
f 422 415 417
f 423 419 413
f 423 413 414
f 423 414 419
f 424 420 416
f 425 421 418
f 425 418 413
f 425 413 421
f 426 416 421
f 426 421 413
f 427 419 420
f 427 420 424
f 427 426 413
f 427 413 419
f 428 427 424
f 428 424 416
f 428 416 426
f 428 426 427
f 429 430 431
f 434 430 432
f 435 433 430
f 435 430 429
f 436 432 430
f 436 430 433
f 438 434 431
f 438 431 430
f 438 430 434
f 439 434 432
f 439 431 434
f 440 429 433
f 440 433 435
f 441 433 429
f 441 436 433
f 442 439 432
f 442 441 437
f 442 436 441
f 443 429 431
f 443 431 439
f 443 441 429
f 443 437 441
f 443 442 437
f 443 439 442
f 444 440 435
f 444 435 429
f 444 429 440
f 445 442 432
f 445 432 436
f 445 436 442
f 452 446 447
f 452 447 448
f 452 451 446
f 452 448 449
f 452 449 451
f 454 448 447
f 454 450 449
f 454 449 448
f 455 449 450
f 456 447 446
f 456 454 447
f 457 446 451
f 458 451 449
f 458 449 455
f 458 455 450
f 459 456 446
f 459 446 457
f 460 456 453
f 460 454 456
f 460 457 454
f 460 453 457
f 462 458 450
f 462 451 458
f 463 453 456
f 463 456 459
f 463 459 457
f 463 457 453
f 464 461 457
f 464 457 451
f 464 451 462
f 464 462 450
f 464 450 461
f 465 461 450
f 465 450 454
f 465 454 461
f 466 461 454
f 466 454 457
f 466 457 461
f 467 469 470
f 469 468 470
f 471 468 469
f 474 471 469
f 474 469 467
f 474 467 471
f 475 471 467
f 477 470 468
f 478 468 471
f 478 471 475
f 479 475 467
f 479 472 475
f 479 467 470
f 479 470 476
f 481 477 468
f 481 473 477
f 481 478 473
f 481 468 478
f 482 480 470
f 482 475 480
f 482 478 475
f 482 473 478
f 483 479 476
f 483 476 472
f 483 472 479
f 484 480 475
f 484 475 472
f 484 472 476
f 484 476 470
f 484 470 480
f 485 482 470
f 485 470 477
f 485 477 473
f 485 473 482
f 486 487 488
f 490 489 488
f 492 490 487
f 493 490 488
f 493 488 487
f 493 487 490
f 494 491 486
f 494 486 488
f 496 492 487
f 496 487 486
f 497 494 488
f 497 488 489
f 497 491 494
f 498 489 490
f 498 497 489
f 499 490 492
f 499 492 495
f 499 498 490
f 500 495 492
f 500 486 495
f 500 496 486
f 500 492 496
f 501 495 486
f 501 486 491
f 501 491 495
f 502 498 495
f 502 495 491
f 502 491 497
f 502 497 498
f 503 499 495
f 503 495 498
f 503 498 499
f 504 505 506
f 504 506 507
f 510 504 507
f 510 507 506
f 511 509 505
f 511 505 504
f 514 504 510
f 514 508 512
f 514 510 506
f 514 506 508
f 515 511 504
f 515 509 511
f 515 514 512
f 515 504 514
f 516 512 508
f 516 515 512
f 516 509 515
f 519 509 516
f 519 516 508
f 520 517 508
f 520 508 506
f 520 506 505
f 520 513 517
f 521 518 513
f 521 505 509
f 521 509 518
f 521 520 505
f 521 513 520
f 522 518 509
f 522 509 519
f 522 519 513
f 522 513 518
f 523 517 513
f 523 513 519
f 523 519 508
f 523 508 517
f 524 525 526
f 528 524 526
f 528 526 527
f 530 525 524
f 531 526 525
f 531 525 530
f 532 527 526
f 532 531 529
f 533 530 524
f 533 524 528
f 534 532 529
f 534 527 532
f 534 528 527
f 535 532 526
f 535 526 531
f 535 531 532
f 536 531 530
f 537 529 531
f 537 531 536
f 538 536 530
f 538 530 533
f 538 534 536
f 539 534 529
f 539 529 537
f 539 537 536
f 539 536 534
f 540 538 533
f 540 533 528
f 541 540 528
f 541 528 534
f 541 534 538
f 541 538 540
f 547 543 545
f 547 545 544
f 549 542 546
f 550 545 543
f 550 542 548
f 551 548 542
f 551 544 548
f 552 548 544
f 552 544 545
f 552 545 548
f 553 549 546
f 553 543 549
f 553 550 543
f 553 546 550
f 554 549 543
f 554 543 547
f 554 547 544
f 554 544 551
f 554 551 542
f 554 542 549
f 555 550 546
f 555 546 542
f 555 542 550
f 556 550 548
f 556 548 545
f 556 545 550
f 562 557 558
f 563 558 557
f 563 557 561
f 565 562 558
f 566 564 559
f 566 560 564
f 567 561 557
f 568 563 561
f 568 561 567
f 568 567 564
f 568 564 560
f 569 565 560
f 569 562 565
f 569 566 562
f 569 560 566
f 570 566 559
f 570 562 566
f 571 559 564
f 571 564 567
f 572 563 568
f 572 568 560
f 573 557 562
f 573 562 570
f 573 571 567
f 574 570 559
f 574 559 571
f 574 573 570
f 574 571 573
f 575 558 563
f 575 563 572
f 575 572 565
f 575 565 558
f 576 572 560
f 576 560 565
f 576 565 572
f 577 573 567
f 577 567 557
f 577 557 573
f 578 579 580
f 580 579 581
f 583 579 578
f 584 579 582
f 585 582 579
f 585 579 583
f 586 581 579
f 586 579 584
f 587 584 582
f 587 578 580
f 588 587 582
f 588 578 587
f 589 584 587
f 590 587 580
f 590 580 581
f 591 585 583
f 591 583 588
f 591 588 582
f 591 582 585
f 592 588 583
f 592 583 578
f 592 578 588
f 593 586 584
f 593 584 589
f 594 589 587
f 594 587 590
f 594 593 589
f 594 586 593
f 594 590 581
f 594 581 586
f 595 596 597
f 595 597 598
f 600 596 595
f 601 595 598
f 603 601 598
f 604 600 595
f 604 595 601
f 604 599 600
f 605 597 596
f 605 596 602
f 605 598 597
f 605 603 598
f 605 602 603
f 606 600 599
f 606 602 596
f 606 596 600
f 607 603 602
f 607 599 603
f 607 606 599
f 607 602 606
f 608 603 599
f 608 599 604
f 608 604 601
f 608 601 603
f 614 610 612
f 615 612 609
f 615 614 612
f 616 610 614
f 617 613 609
f 617 609 612
f 618 612 610
f 619 615 609
f 620 611 614
f 620 614 615
f 621 609 613
f 622 616 614
f 623 618 610
f 623 613 618
f 623 621 613
f 623 610 616
f 623 616 621
f 624 617 612
f 624 612 618
f 624 618 613
f 624 613 617
f 625 619 609
f 626 619 611
f 626 615 619
f 626 620 615
f 627 621 616
f 627 609 621
f 627 616 625
f 628 622 614
f 628 614 611
f 628 611 619
f 628 619 625
f 629 625 616
f 629 616 622
f 630 626 611
f 630 611 620
f 630 620 626
f 631 627 625
f 631 625 609
f 631 609 627
f 632 628 625
f 632 622 628
f 632 629 622
f 632 625 629
f 633 634 635
f 633 635 636
f 638 634 633
f 640 638 637
f 641 633 636
f 642 638 633
f 642 637 638
f 643 636 635
f 643 635 634
f 645 643 640
f 645 636 643
f 645 641 636
f 646 645 639
f 646 641 645
f 646 642 633
f 646 633 641
f 647 637 642
f 648 634 638
f 648 638 644
f 648 644 643
f 648 643 634
f 649 644 638
f 649 638 640
f 650 640 643
f 650 643 644
f 650 649 640
f 650 644 649
f 651 645 640
f 651 640 637
f 651 637 647
f 652 646 639
f 652 642 646
f 652 647 642
f 652 639 647
f 653 647 639
f 653 639 645
f 653 651 647
f 653 645 651
f 658 655 654
f 659 656 657
f 660 654 655
f 662 656 659
f 662 660 656
f 662 654 660
f 663 658 654
f 665 655 658
f 665 658 661
f 665 661 664
f 667 662 659
f 667 654 662
f 667 663 654
f 668 659 657
f 668 667 659
f 669 664 660
f 669 660 655
f 670 664 656
f 670 656 660
f 670 660 664
f 671 664 661
f 671 657 656
f 671 656 664
f 671 666 657
f 671 661 658
f 672 655 665
f 672 669 655
f 672 664 669
f 673 666 663
f 673 657 666
f 674 658 663
f 674 663 666
f 675 668 657
f 675 663 667
f 675 667 668
f 675 673 663
f 675 657 673
f 676 672 665
f 676 665 664
f 676 664 672
f 677 671 658
f 677 658 674
f 677 674 666
f 677 666 671
f 683 680 679
f 683 679 681
f 686 679 685
f 687 678 680
f 687 685 678
f 687 686 685
f 687 682 686
f 689 684 679
f 689 679 680
f 689 680 678
f 689 685 684
f 689 678 685
f 690 685 679
f 690 679 684
f 690 684 685
f 691 686 682
f 691 681 679
f 691 679 686
f 691 683 681
f 693 691 682
f 693 688 691
f 693 692 688
f 693 682 687
f 694 691 688
f 694 683 691
f 694 688 692
f 695 687 680
f 695 694 692
f 695 680 683
f 695 683 694
f 696 693 687
f 696 692 693
f 696 695 692
f 696 687 695
f 699 698 700
f 702 697 698
f 702 698 699
f 702 699 697
f 703 698 697
f 704 700 698
f 704 703 701
f 704 698 703
f 704 699 700
f 705 704 701
f 705 699 704
f 706 703 697
f 706 701 703
f 707 697 699
f 707 699 705
f 707 706 697
f 708 705 701
f 708 701 706
f 708 707 705
f 708 706 707

