# Created by Open3D 
# object name: part_023
# number of vertices: 162
# number of triangles: 320
v 0.959047 4.66549 0.646313
vn 0.921198 0.326681 0.211361
v 0.962606 4.64698 0.655648
vn 0.855438 0.298592 0.423166
v 0.965687 4.64525 0.646152
vn 0.954921 0.252132 0.156701
v 0.961576 4.66355 0.633325
vn 0.949874 0.306725 0.060494
v 0.955483 4.67808 0.639869
vn 0.90272 0.411378 0.125959
v 0.952882 4.67828 0.64966
vn 0.825191 0.390615 0.408018
v 1.00184 4.59973 0.233118
vn 0.954777 0.275088 -0.112818
v 1.00767 4.58074 0.240814
vn 0.974499 0.222052 -0.0323159
v 1.00661 4.57937 0.23083
vn 0.931835 0.181211 -0.314399
v 0.982978 4.60953 0.44365
vn 0.368269 -0.91149 0.183207
v 0.961416 4.63963 0.636116
vn 0.336335 -0.923708 0.183417
v 0.977632 4.60756 0.44341
vn 0.296865 -0.937801 0.179999
v 0.874725 4.61746 0.655776
vn 0.261964 -0.881131 0.39368
v 0.8741 4.61901 0.658244
vn -0.0312506 -0.0658934 0.997337
v 0.794877 4.59228 0.651829
vn 0.220269 -0.821455 0.526017
v 0.863776 4.6527 0.649035
vn -0.307212 0.950662 0.0431494
v 0.940015 4.67691 0.648808
vn -0.297838 0.950627 -0.0871805
v 0.788083 4.62817 0.640827
vn -0.302394 0.949164 -0.0874358
v 0.967069 4.6533 0.479253
vn -0.213616 0.9611 -0.175084
v 0.993011 4.61772 0.253272
vn -0.102405 0.980529 -0.167558
v 0.989799 4.61536 0.24394
vn -0.246728 0.952514 -0.178447
v 0.822352 4.54215 0.22369
vn -0.921198 -0.326681 -0.211359
v 0.830528 4.52289 0.221581
vn -0.82902 -0.383629 -0.406884
v 0.827926 4.52308 0.231373
vn -0.914027 -0.383744 -0.131514
v 0.81995 4.54367 0.236757
vn -0.949874 -0.306725 -0.0604936
v 0.817722 4.55592 0.225089
vn -0.961281 -0.22291 -0.162017
v 0.820804 4.55418 0.215593
vn -0.855981 -0.291523 -0.426979
v 0.81192 4.55466 0.434665
vn 0.21361 -0.961102 0.175084
v 0.833498 4.52451 0.24221
vn 0.2468 -0.953013 0.175661
v 0.817408 4.55617 0.434993
vn 0.286917 -0.940993 0.179476
v 0.779554 4.60791 0.636885
vn -0.954777 -0.275087 0.112818
v 0.785942 4.58759 0.63671
vn -0.933606 -0.353659 0.0574957
v 0.786526 4.5905 0.646399
vn -0.905412 -0.266244 0.330671
v 0.796011 4.59843 0.470268
vn -0.368265 0.911491 -0.183207
v 0.779128 4.61971 0.611029
vn -0.472935 0.861453 -0.185017
v 0.782106 4.62282 0.620217
vn -0.337041 0.924124 -0.179993
v 0.908685 4.5837 0.215465
vn -0.261965 0.881132 -0.393676
v 0.832138 4.56048 0.215502
vn -0.283407 0.919993 -0.270726
v 0.98407 4.60922 0.223483
vn -0.278852 0.921454 -0.270489
v 0.919633 4.54846 0.222207
vn 0.307212 -0.950662 -0.0431491
v 0.919564 4.54915 0.219312
vn 0.166714 -0.370069 -0.913923
v 0.999273 4.57432 0.226026
vn 0.322969 -0.926827 -0.191526
v 0.951272 4.64068 0.655739
vn 0.283407 -0.919993 0.270726
v 0.954301 4.64342 0.660203
vn 0.248495 -0.81241 0.527484
v 1.00428 4.58145 0.260212
vn 0.471581 -0.862181 0.185083
v 0.966269 4.63986 0.627207
vn 0.471379 -0.861884 0.18697
v 0.997467 4.61358 0.234531
vn 0.922304 0.381284 -0.0630755
v 1.00166 4.60196 0.246301
vn 0.952058 0.303369 0.0394095
v 0.949912 4.67665 0.629031
vn -0.24649 0.953171 -0.175237
v 0.954999 4.67613 0.620267
vn -0.0997957 0.981161 -0.165419
v 0.863845 4.65201 0.651929
vn -0.19093 0.452584 0.871041
v 0.943561 4.67798 0.65359
vn -0.294742 0.935885 0.192992
v 1.0013 4.57834 0.251024
vn 0.336659 -0.924188 0.180381
v 0.79934 4.59194 0.647759
vn 0.278852 -0.921454 0.270487
v 0.784137 4.62684 0.645216
vn -0.322969 0.926828 0.191524
v 0.961526 4.65187 0.479452
vn -0.286915 0.940993 -0.179476
v 0.996884 4.61067 0.224842
vn 0.902114 0.272423 -0.33463
v 0.843394 4.52426 0.222434
vn 0.297838 -0.950627 0.0871815
v 0.839849 4.52318 0.217652
vn 0.294742 -0.935885 -0.192992
v 0.790398 4.58344 0.617969
vn 0.101104 -0.98067 0.167522
v 0.828411 4.52504 0.250974
vn 0.101291 -0.980972 0.165634
v 0.775738 4.62043 0.630427
vn -0.980861 -0.192826 0.027017
v 0.779863 4.60527 0.62378
vn -0.952057 -0.30337 -0.0394095
v 0.821993 4.56154 0.235126
vn -0.336142 0.923833 -0.183144
v 0.817141 4.56131 0.244034
vn -0.470246 0.862523 -0.186878
v 0.909309 4.58216 0.212997
vn 0.00158453 0.156787 -0.987631
v 0.829108 4.55775 0.211038
vn -0.248495 0.81241 -0.527484
v 0.995326 4.57299 0.230414
vn 0.302393 -0.949164 0.0874371
v 0.793611 4.5858 0.627301
vn 0.246477 -0.952532 0.178697
v 0.776802 4.62179 0.640411
vn -0.932902 -0.173332 0.315674
v 0.801303 4.60048 0.471036
vn -0.296867 0.937801 -0.179999
v 0.988532 4.60888 0.219412
vn -0.220269 0.821457 -0.526014
v 0.957231 4.64092 0.648966
vn 0.296353 -0.931534 0.210758
v 0.962868 4.64242 0.645893
vn 0.432377 -0.874016 0.22169
v 0.958994 4.6434 0.655666
vn 0.385319 -0.873555 0.297372
v 1.00674 4.58052 0.247759
vn 0.73779 -0.65286 0.171577
v 1.00659 4.58402 0.259827
vn 0.969479 0.237623 0.0603844
v 0.986926 4.61175 0.443706
vn 0.74426 -0.643325 0.179473
v 0.995847 4.61558 0.241051
vn 0.23747 0.961839 -0.135918
v 0.971764 4.65346 0.477636
vn 0.245777 0.960908 -0.12747
v 0.996378 4.61689 0.253536
vn 0.913628 0.405599 0.0277983
v 0.9458 4.67771 0.641927
vn -0.287133 0.946307 -0.148517
v 0.947922 4.67904 0.648849
vn -0.190622 0.979992 -0.0572685
v 0.95162 4.67861 0.638968
vn -0.143868 0.980598 -0.133153
v 0.867812 4.6391 0.65528
vn -0.10176 0.156356 0.982445
v 0.953669 4.6454 0.662026
vn -0.0467139 0.11756 0.991966
v 0.943933 4.67673 0.656031
vn -0.0808606 0.226885 0.970559
v 0.999815 4.57549 0.237834
vn 0.302716 -0.941306 0.149355
v 1.00296 4.57585 0.231189
vn 0.408982 -0.909949 0.0687536
v 1.00477 4.57804 0.24136
vn 0.439929 -0.885634 0.148708
v 0.795025 4.58889 0.640446
vn 0.280775 -0.936531 0.209941
v 0.801495 4.58817 0.627967
vn 0.29071 -0.939493 0.181223
v 0.87605 4.61498 0.645758
vn 0.288659 -0.934206 0.209606
v 0.77907 4.62432 0.643653
vn -0.743102 0.290216 0.602971
v 0.782665 4.61104 0.647262
vn -0.673517 -0.0684572 0.735995
v 0.784328 4.62554 0.647648
vn -0.158459 0.201993 0.966483
v 0.881374 4.62627 0.475398
vn -0.291897 0.939409 -0.17974
v 0.789877 4.62556 0.620814
vn -0.293128 0.939386 -0.177849
v 0.941982 4.67435 0.628804
vn -0.291067 0.940047 -0.177742
v 0.993958 4.61026 0.221195
vn 0.52059 0.425919 -0.739985
v 0.991889 4.61148 0.224372
vn -0.166954 0.943601 -0.285907
v 0.995849 4.61277 0.228019
vn 0.172527 0.945273 -0.276938
v 0.83761 4.52346 0.229314
vn 0.287133 -0.946307 0.148517
v 0.83179 4.52255 0.232274
vn 0.143868 -0.980598 0.133154
v 0.835488 4.52213 0.222392
vn 0.190622 -0.979992 0.0572689
v 0.787563 4.58559 0.63019
vn -0.236013 -0.961987 0.137398
v 0.787031 4.58427 0.617705
vn -0.928253 -0.370298 -0.0349994
v 0.807433 4.55418 0.434277
vn -0.245771 -0.96091 0.127471
v 0.776669 4.62065 0.623482
vn -0.736395 0.654874 -0.169891
v 0.792271 4.59588 0.468207
vn -0.744254 0.643331 -0.179474
v 0.776816 4.61715 0.611415
vn -0.974988 -0.212588 -0.0648436
v 0.826179 4.56024 0.222275
vn -0.296354 0.931534 -0.210758
v 0.824416 4.55776 0.215575
vn -0.385322 0.873555 -0.297371
v 0.820542 4.55875 0.225348
vn -0.432375 0.874017 -0.22169
v 0.913453 4.56897 0.214641
vn 0.10176 -0.156355 -0.982445
v 0.839476 4.52443 0.21521
vn 0.0783711 -0.219439 -0.972473
v 0.829741 4.55576 0.209215
vn 0.0444958 -0.109849 -0.992952
v 0.993532 4.57561 0.250427
vn 0.293083 -0.939323 0.178257
v 0.918848 4.54921 0.232558
vn 0.294865 -0.94374 0.149699
v 0.791521 4.58968 0.646869
vn 0.166956 -0.943601 0.285906
v 0.789889 4.58693 0.636807
vn 0.13636 -0.968975 0.206137
v 0.780449 4.62531 0.640052
vn -0.408985 0.909947 -0.0687521
v 0.776841 4.62289 0.636622
vn -0.69057 0.72204 -0.0420824
v 0.981915 4.61299 0.243274
vn -0.290739 0.939535 -0.180956
v 0.82981 4.5642 0.235284
vn -0.292791 0.938877 -0.181064
v 0.998634 4.59691 0.22268
vn 0.673517 0.0684582 -0.735995
v 0.989346 4.60696 0.217599
vn 0.122094 -0.0849582 -0.988876
v 0.959656 4.6455 0.658986
vn 0.583596 0.0395864 0.811079
v 0.96329 4.64477 0.652453
vn 0.661708 -0.677688 0.320752
v 0.966157 4.64287 0.639571
vn 0.736069 -0.650144 0.188456
v 0.968538 4.64249 0.627239
vn 0.969036 0.238303 0.0646604
v 0.981842 4.63329 0.439751
vn 0.951021 0.305064 0.0499544
v 0.958322 4.67537 0.620949
vn 0.918166 0.394683 0.0345998
v 0.955263 4.67793 0.632863
vn 0.231846 0.965443 -0.119024
v 0.95257 4.67926 0.645853
vn 0.143649 0.989627 0.00173043
v 0.949274 4.67892 0.652593
vn 0.375404 0.648983 0.661735
v 0.953726 4.66591 0.656248
vn 0.514584 0.312654 0.798405
v 1.00657 4.57827 0.234619
vn 0.690569 -0.722041 0.042084
v 0.9536 4.63696 0.635957
vn 0.292764 -0.938833 0.181331
v 0.794064 4.59421 0.653643
vn -0.124679 0.0925502 0.987871
v 0.864561 4.65195 0.638684
vn -0.294865 0.94374 -0.149699
v 0.993521 4.61423 0.234434
vn -0.136357 0.968976 -0.206136
v 0.834135 4.52225 0.218648
vn -0.420737 -0.563676 -0.710809
v 0.830839 4.5219 0.225389
vn -0.143649 -0.989627 -0.00173057
v 0.828146 4.52323 0.238378
vn -0.234289 -0.964669 0.120511
v 0.825087 4.5258 0.250293
vn -0.92781 -0.370979 -0.0392754
v 0.799423 4.57477 0.430169
vn -0.95102 -0.305065 -0.0499544
v 0.814872 4.55867 0.244002
vn -0.977006 -0.200859 -0.0715135
v 0.817252 4.55829 0.23167
vn -0.737298 0.649138 -0.187117
v 0.82012 4.5564 0.218788
vn -0.661706 0.67769 -0.320752
v 0.823753 4.55566 0.212255
vn -0.597921 0.067132 -0.798739
v 0.827574 4.54204 0.213694
vn -0.514583 -0.312653 -0.798406
v 0.841427 4.52681 0.242438
vn 0.291028 -0.939981 0.17815
v 0.787561 4.5884 0.643222
vn -0.172525 -0.945273 0.276937
v 0.778641 4.62313 0.629881
vn -0.439931 0.885633 -0.148708
v 0.90736 4.58619 0.225483
vn -0.288659 0.934206 -0.209608
v 0.999081 4.57563 0.223593
vn 0.156335 -0.19443 -0.968378
v 1.00434 4.57685 0.227588
vn 0.734933 -0.192967 -0.650106
v 0.897543 4.58179 0.439215
vn 0.291897 -0.939409 0.17974
v 0.789452 4.59091 0.650046
vn -0.572092 -0.33113 0.750375
v 0.783594 4.62568 0.633407
vn -0.302716 0.941306 -0.149354
v 0.988384 4.61228 0.230795
vn -0.280775 0.936531 -0.209943
f 1//1 2//2 3//3
f 1//1 3//3 4//4
f 1//1 4//4 5//5
f 1//1 5//5 6//6
f 1//1 6//6 2//2
f 7//7 8//8 9//9
f 10//10 11//11 12//12
f 13//13 14//14 15//15
f 16//16 17//17 18//18
f 19//19 20//20 21//21
f 22//22 23//23 24//24
f 22//22 24//24 25//25
f 22//22 25//25 26//26
f 22//22 26//26 27//27
f 22//22 27//27 23//23
f 28//28 29//29 30//30
f 31//31 32//32 33//33
f 34//34 35//35 36//36
f 37//37 38//38 39//39
f 40//40 41//41 42//42
f 13//13 43//43 44//44
f 10//10 45//45 46//46
f 7//7 47//47 48//48
f 19//19 49//49 50//50
f 16//16 51//51 52//52
f 10//10 53//53 45//45
f 13//13 54//54 43//43
f 16//16 55//55 51//51
f 19//19 56//56 49//49
f 7//7 57//57 47//47
f 40//40 58//58 59//59
f 28//28 60//60 61//61
f 31//31 62//62 63//63
f 34//34 64//64 65//65
f 37//37 66//66 67//67
f 40//40 68//68 58//58
f 28//28 69//69 60//60
f 31//31 70//70 62//62
f 34//34 71//71 64//64
f 37//37 72//72 66//66
f 10//10 46//46 11//11
f 7//7 48//48 8//8
f 19//19 50//50 20//20
f 16//16 52//52 17//17
f 13//13 44//44 14//14
f 40//40 42//42 68//68
f 28//28 30//30 69//69
f 31//31 33//33 70//70
f 34//34 36//36 71//71
f 37//37 39//39 72//72
f 28//28 61//61 29//29
f 31//31 63//63 32//32
f 34//34 65//65 35//35
f 37//37 67//67 38//38
f 40//40 59//59 41//41
f 10//10 12//12 53//53
f 13//13 15//15 54//54
f 16//16 18//18 55//55
f 19//19 21//21 56//56
f 7//7 9//9 57//57
f 73//73 74//74 75//75
f 76//76 77//77 78//78
f 79//79 80//80 81//81
f 82//82 83//83 84//84
f 85//85 86//86 87//87
f 88//88 89//89 90//90
f 91//91 92//92 93//93
f 94//94 95//95 96//96
f 97//97 98//98 99//99
f 100//100 101//101 102//102
f 103//103 104//104 105//105
f 106//106 107//107 108//108
f 109//109 110//110 111//111
f 112//112 113//113 114//114
f 115//115 116//116 117//117
f 88//88 118//118 119//119
f 91//91 120//120 121//121
f 94//94 122//122 123//123
f 97//97 124//124 125//125
f 100//100 126//126 127//127
f 128//128 129//129 2//2
f 130//130 131//131 3//3
f 132//132 133//133 4//4
f 134//134 135//135 5//5
f 136//136 137//137 6//6
f 76//76 138//138 8//8
f 73//73 139//139 11//11
f 85//85 140//140 14//14
f 82//82 141//141 17//17
f 79//79 142//142 20//20
f 143//143 144//144 23//23
f 145//145 146//146 24//24
f 147//147 148//148 25//25
f 149//149 150//150 26//26
f 151//151 152//152 27//27
f 103//103 153//153 29//29
f 106//106 154//154 32//32
f 109//109 155//155 35//35
f 112//112 156//156 38//38
f 115//115 157//157 41//41
f 73//73 75//75 43//43
f 76//76 78//78 45//45
f 79//79 81//81 47//47
f 82//82 84//84 49//49
f 85//85 87//87 51//51
f 88//88 90//90 53//53
f 91//91 93//93 54//54
f 94//94 96//96 55//55
f 97//97 99//99 56//56
f 100//100 102//102 57//57
f 103//103 105//105 58//58
f 106//106 108//108 60//60
f 109//109 111//111 62//62
f 112//112 114//114 64//64
f 115//115 117//117 66//66
f 88//88 119//119 68//68
f 91//91 121//121 69//69
f 94//94 123//123 70//70
f 97//97 125//125 71//71
f 100//100 127//127 72//72
f 130//130 74//74 46//46
f 132//132 77//77 48//48
f 134//134 80//80 50//50
f 136//136 83//83 52//52
f 128//128 86//86 44//44
f 158//158 89//89 42//42
f 159//159 92//92 30//30
f 160//160 95//95 33//33
f 161//161 98//98 36//36
f 162//162 101//101 39//39
f 145//145 104//104 61//61
f 147//147 107//107 63//63
f 149//149 110//110 65//65
f 151//151 113//113 67//67
f 143//143 116//116 59//59
f 159//159 118//118 12//12
f 160//160 120//120 15//15
f 161//161 122//122 18//18
f 162//162 124//124 21//21
f 158//158 126//126 9//9
f 130//130 129//129 74//74
f 132//132 131//131 77//77
f 134//134 133//133 80//80
f 136//136 135//135 83//83
f 128//128 137//137 86//86
f 158//158 138//138 89//89
f 159//159 139//139 92//92
f 160//160 140//140 95//95
f 161//161 141//141 98//98
f 162//162 142//142 101//101
f 145//145 144//144 104//104
f 147//147 146//146 107//107
f 149//149 148//148 110//110
f 151//151 150//150 113//113
f 143//143 152//152 116//116
f 159//159 153//153 118//118
f 160//160 154//154 120//120
f 161//161 155//155 122//122
f 162//162 156//156 124//124
f 158//158 157//157 126//126
f 130//130 3//3 129//129
f 132//132 4//4 131//131
f 134//134 5//5 133//133
f 136//136 6//6 135//135
f 128//128 2//2 137//137
f 158//158 9//9 138//138
f 159//159 12//12 139//139
f 160//160 15//15 140//140
f 161//161 18//18 141//141
f 162//162 21//21 142//142
f 145//145 24//24 144//144
f 147//147 25//25 146//146
f 149//149 26//26 148//148
f 151//151 27//27 150//150
f 143//143 23//23 152//152
f 159//159 30//30 153//153
f 160//160 33//33 154//154
f 161//161 36//36 155//155
f 162//162 39//39 156//156
f 158//158 42//42 157//157
f 128//128 44//44 75//75
f 130//130 46//46 78//78
f 132//132 48//48 81//81
f 134//134 50//50 84//84
f 136//136 52//52 87//87
f 76//76 45//45 90//90
f 73//73 43//43 93//93
f 85//85 51//51 96//96
f 82//82 49//49 99//99
f 79//79 47//47 102//102
f 143//143 59//59 105//105
f 145//145 61//61 108//108
f 147//147 63//63 111//111
f 149//149 65//65 114//114
f 151//151 67//67 117//117
f 103//103 58//58 119//119
f 106//106 60//60 121//121
f 109//109 62//62 123//123
f 112//112 64//64 125//125
f 115//115 66//66 127//127
f 73//73 11//11 74//74
f 76//76 8//8 77//77
f 79//79 20//20 80//80
f 82//82 17//17 83//83
f 85//85 14//14 86//86
f 88//88 68//68 89//89
f 91//91 69//69 92//92
f 94//94 70//70 95//95
f 97//97 71//71 98//98
f 100//100 72//72 101//101
f 103//103 29//29 104//104
f 106//106 32//32 107//107
f 109//109 35//35 110//110
f 112//112 38//38 113//113
f 115//115 41//41 116//116
f 88//88 53//53 118//118
f 91//91 54//54 120//120
f 94//94 55//55 122//122
f 97//97 56//56 124//124
f 100//100 57//57 126//126
f 128//128 75//75 129//129
f 130//130 78//78 131//131
f 132//132 81//81 133//133
f 134//134 84//84 135//135
f 136//136 87//87 137//137
f 76//76 90//90 138//138
f 73//73 93//93 139//139
f 85//85 96//96 140//140
f 82//82 99//99 141//141
f 79//79 102//102 142//142
f 143//143 105//105 144//144
f 145//145 108//108 146//146
f 147//147 111//111 148//148
f 149//149 114//114 150//150
f 151//151 117//117 152//152
f 103//103 119//119 153//153
f 106//106 121//121 154//154
f 109//109 123//123 155//155
f 112//112 125//125 156//156
f 115//115 127//127 157//157
f 129//129 3//3 2//2
f 131//131 4//4 3//3
f 133//133 5//5 4//4
f 135//135 6//6 5//5
f 137//137 2//2 6//6
f 138//138 9//9 8//8
f 139//139 12//12 11//11
f 140//140 15//15 14//14
f 141//141 18//18 17//17
f 142//142 21//21 20//20
f 144//144 24//24 23//23
f 146//146 25//25 24//24
f 148//148 26//26 25//25
f 150//150 27//27 26//26
f 152//152 23//23 27//27
f 153//153 30//30 29//29
f 154//154 33//33 32//32
f 155//155 36//36 35//35
f 156//156 39//39 38//38
f 157//157 42//42 41//41
f 75//75 44//44 43//43
f 78//78 46//46 45//45
f 81//81 48//48 47//47
f 84//84 50//50 49//49
f 87//87 52//52 51//51
f 90//90 45//45 53//53
f 93//93 43//43 54//54
f 96//96 51//51 55//55
f 99//99 49//49 56//56
f 102//102 47//47 57//57
f 105//105 59//59 58//58
f 108//108 61//61 60//60
f 111//111 63//63 62//62
f 114//114 65//65 64//64
f 117//117 67//67 66//66
f 119//119 58//58 68//68
f 121//121 60//60 69//69
f 123//123 62//62 70//70
f 125//125 64//64 71//71
f 127//127 66//66 72//72
f 74//74 11//11 46//46
f 77//77 8//8 48//48
f 80//80 20//20 50//50
f 83//83 17//17 52//52
f 86//86 14//14 44//44
f 89//89 68//68 42//42
f 92//92 69//69 30//30
f 95//95 70//70 33//33
f 98//98 71//71 36//36
f 101//101 72//72 39//39
f 104//104 29//29 61//61
f 107//107 32//32 63//63
f 110//110 35//35 65//65
f 113//113 38//38 67//67
f 116//116 41//41 59//59
f 118//118 53//53 12//12
f 120//120 54//54 15//15
f 122//122 55//55 18//18
f 124//124 56//56 21//21
f 126//126 57//57 9//9
f 129//129 75//75 74//74
f 131//131 78//78 77//77
f 133//133 81//81 80//80
f 135//135 84//84 83//83
f 137//137 87//87 86//86
f 138//138 90//90 89//89
f 139//139 93//93 92//92
f 140//140 96//96 95//95
f 141//141 99//99 98//98
f 142//142 102//102 101//101
f 144//144 105//105 104//104
f 146//146 108//108 107//107
f 148//148 111//111 110//110
f 150//150 114//114 113//113
f 152//152 117//117 116//116
f 153//153 119//119 118//118
f 154//154 121//121 120//120
f 155//155 123//123 122//122
f 156//156 125//125 124//124
f 157//157 127//127 126//126
