# Created by Open3D 
# object name: part_039
# number of vertices: 162
# number of triangles: 320
v 2.19985 6.58248 0.119682
vn -0.0161034 -0.287967 -0.957505
v 2.18082 6.57516 0.122979
vn -0.0127787 -0.530143 -0.847812
v 2.17874 6.5822 0.120639
vn -0.0950356 -0.215565 -0.971854
v 2.19799 6.59219 0.117814
vn -0.0476482 -0.101067 -0.993738
v 2.21321 6.58759 0.118438
vn 0.0628148 -0.19074 -0.979629
v 2.21367 6.5803 0.120881
vn 0.0752389 -0.519163 -0.851357
v 2.14967 6.89315 0.0947662
vn -0.0813601 0.11604 -0.989907
v 2.12951 6.88696 0.0961967
vn -0.133295 0.0212674 -0.990848
v 2.12923 6.89457 0.0973617
vn -0.156732 0.36105 -0.919281
v 2.15217 6.73462 0.112832
vn -0.986645 -0.161226 -0.0231723
v 2.1756 6.58999 0.126046
vn -0.986956 -0.160457 0.0131088
v 2.15219 6.73505 0.118181
vn -0.98629 -0.154705 0.0574285
v 2.18362 6.5792 0.210048
vn -0.897255 -0.433605 0.0831861
v 2.18512 6.57737 0.210135
vn -0.0173077 -0.9959 0.0887883
v 2.18794 6.58595 0.288518
vn -0.798818 -0.591922 0.107323
v 2.22061 6.58498 0.207686
vn 0.98966 -0.138501 -0.0373017
v 2.21688 6.58156 0.132618
vn 0.997996 0.0308972 -0.0552245
v 2.22437 6.59477 0.282191
vn 0.998248 0.0313469 -0.0501768
v 2.19616 6.7086 0.112928
vn 0.978047 0.146058 -0.148633
v 2.1682 6.87839 0.096944
vn 0.954683 0.134091 -0.265707
v 2.1677 6.8856 0.100343
vn 0.982041 0.151314 -0.112695
v 2.15851 6.90875 0.271473
vn 0.0161028 0.28797 0.957504
v 2.1379 6.90987 0.270708
vn -0.0680382 0.517526 0.852958
v 2.13837 6.90258 0.273151
vn -0.0346563 0.195277 0.980136
v 2.15994 6.89898 0.273368
vn 0.0476483 0.101066 0.993738
v 2.17283 6.90797 0.27095
vn 0.122962 0.219792 0.967766
v 2.17075 6.91501 0.26861
vn 0.0188796 0.533908 0.845332
v 2.1606 6.74948 0.281235
vn -0.978046 -0.146057 0.14864
v 2.1371 6.89411 0.268025
vn -0.982611 -0.147588 0.112668
v 2.16009 6.74898 0.275917
vn -0.985736 -0.153728 0.0684943
v 2.20869 6.59808 0.296389
vn 0.0813596 -0.116036 0.989907
v 2.18759 6.59782 0.297593
vn 0.00360317 -0.041547 0.99913
v 2.18949 6.59047 0.296325
vn 0.0759203 -0.373699 0.924438
v 2.20459 6.72347 0.28133
vn 0.986646 0.161226 0.0231659
v 2.22144 6.61774 0.292214
vn 0.975048 0.16774 0.145415
v 2.22273 6.61065 0.288764
vn 0.987696 0.1559 -0.0123564
v 2.16795 6.91097 0.181541
vn 0.897255 0.433605 -0.0831861
v 2.17271 6.91456 0.256543
vn 0.958865 0.275166 -0.0697314
v 2.16523 6.90135 0.10697
vn 0.958614 0.274714 -0.0747788
v 2.13097 6.90519 0.183903
vn -0.98966 0.138501 0.0373017
v 2.13181 6.90739 0.183666
vn -0.330249 0.941542 -0.0665978
v 2.12735 6.89854 0.105388
vn -0.947824 0.318767 0.00420633
v 2.17886 6.57562 0.135046
vn -0.958865 -0.275166 0.0697314
v 2.18008 6.5721 0.131569
vn -0.800301 -0.594574 0.077458
v 2.13013 6.87243 0.099375
vn -0.97528 -0.167769 -0.143817
v 2.1747 6.5965 0.121505
vn -0.974875 -0.170281 -0.143609
v 2.16398 6.89235 0.0939956
vn 0.0245481 0.0461847 -0.998631
v 2.15099 6.88318 0.0944762
vn -0.0519253 -0.0745874 -0.995862
v 2.21447 6.59606 0.123564
vn 0.982658 0.147014 -0.113006
v 2.21277 6.60245 0.119074
vn 0.954333 0.131206 -0.268389
v 2.21976 6.58279 0.207923
vn 0.3997 -0.914631 0.0607462
v 2.21636 6.57777 0.129253
vn 0.946332 -0.321396 -0.0340738
v 2.12884 6.87952 0.102825
vn -0.98761 -0.156407 0.0127825
v 2.18634 6.58882 0.284619
vn -0.958614 -0.274714 0.0747788
v 2.22422 6.59163 0.286201
vn 0.947824 -0.318767 -0.00420633
v 2.19673 6.70871 0.118277
vn 0.985737 0.153728 -0.0684927
v 2.16208 6.89971 0.0952641
vn -0.0696352 0.377752 -0.923285
v 2.13469 6.90861 0.258971
vn -0.997996 -0.0308972 0.0552245
v 2.13521 6.9124 0.262337
vn -0.946332 0.321396 0.0340738
v 2.18337 6.61179 0.294645
vn -0.954327 -0.134029 0.267014
v 2.1388 6.88772 0.272515
vn -0.95473 -0.131515 0.266823
v 2.22206 6.60321 0.295392
vn 0.161225 -0.0171286 0.986769
v 2.20694 6.60799 0.296706
vn 0.0519254 0.0745871 0.995862
v 2.17597 6.90019 0.265543
vn 0.987013 0.160086 -0.0133328
v 2.17687 6.89367 0.270084
vn 0.975103 0.170109 0.142256
v 2.16645 6.9128 0.181454
vn 0.0917862 0.991508 -0.092128
v 2.17149 6.91807 0.26002
vn 0.800301 0.594574 -0.077458
v 2.1272 6.8954 0.109398
vn -0.998248 -0.0313469 0.0501768
v 2.18387 6.60457 0.291246
vn -0.981958 -0.151642 0.112974
v 2.22234 6.5956 0.294227
vn 0.16376 -0.363042 0.917269
v 2.20462 6.72264 0.276013
vn 0.98629 0.154704 -0.0574302
v 2.16363 6.90422 0.103071
vn 0.798818 0.591922 -0.107323
v 2.17745 6.58046 0.129579
vn -0.978952 -0.195813 0.0575331
v 2.17709 6.58252 0.124058
vn -0.971651 -0.215014 -0.0983023
v 2.17874 6.57531 0.127351
vn -0.948429 -0.313523 -0.0467426
v 2.12919 6.88174 0.0972453
vn -0.861903 -0.1662 -0.479062
v 2.13175 6.87262 0.0964743
vn -0.11566 -0.0952058 -0.988716
v 2.15287 6.73439 0.108622
vn -0.854647 -0.177188 -0.488039
v 2.16599 6.8875 0.0948955
vn 0.80443 0.0926043 -0.586785
v 2.1948 6.7096 0.108713
vn 0.800497 0.0816804 -0.593745
v 2.16626 6.87802 0.0942708
vn 0.0515633 -0.0687171 -0.996303
v 2.21606 6.5865 0.127114
vn 0.991321 0.112339 -0.06828
v 2.21614 6.58116 0.124962
vn 0.985342 -0.0110689 -0.170232
v 2.21509 6.58846 0.121632
vn 0.970914 0.0888082 -0.222347
v 2.20616 6.58 0.208849
vn 0.158963 -0.984124 0.0789282
v 2.18203 6.57076 0.1315
vn 0.116946 -0.991937 0.0488276
v 2.21492 6.5759 0.1294
vn 0.203232 -0.978166 0.0434419
v 2.12752 6.88957 0.104788
vn -0.992188 -0.113867 0.0509602
v 2.12718 6.89446 0.101754
vn -0.997419 -0.0102427 -0.071067
v 2.12796 6.88667 0.0996641
vn -0.987353 -0.117805 -0.106098
v 2.18544 6.59456 0.289267
vn -0.978086 -0.194281 0.0748497
v 2.18332 6.60369 0.283543
vn -0.985637 -0.156168 0.0642704
v 2.18147 6.58672 0.209492
vn -0.97876 -0.194056 0.0661168
v 2.22371 6.59305 0.291463
vn 0.465164 -0.684954 0.560768
v 2.20989 6.59008 0.292842
vn 0.160794 -0.782415 0.601642
v 2.22278 6.58977 0.286527
vn 0.206483 -0.972442 0.108266
v 2.20077 6.71556 0.197151
vn 0.986029 0.154218 -0.0629631
v 2.22256 6.60983 0.281037
vn 0.986501 0.151724 -0.0616085
v 2.21507 6.59661 0.131294
vn 0.986386 0.151522 -0.0639006
v 2.16293 6.90261 0.097887
vn 0.161419 0.782948 -0.60078
v 2.16458 6.90031 0.0993659
vn 0.936358 0.292214 -0.194537
v 2.16419 6.89736 0.0955401
vn 0.805667 0.276341 -0.523962
v 2.13551 6.90367 0.264475
vn -0.991321 -0.112339 0.06828
v 2.13649 6.90171 0.269957
vn -0.970914 -0.0888082 0.222347
v 2.13544 6.90901 0.266627
vn -0.985342 0.0110689 0.170232
v 2.18558 6.60267 0.296694
vn -0.805107 -0.094523 0.585549
v 2.18531 6.61215 0.297318
vn -0.0154298 0.0747025 0.997086
v 2.16171 6.74999 0.285328
vn -0.800497 -0.0816804 0.593745
v 2.22238 6.60843 0.294344
vn 0.86342 0.163853 0.477135
v 2.20364 6.7252 0.285419
vn 0.854647 0.177188 0.488039
v 2.21982 6.61755 0.295115
vn 0.139667 0.098686 0.985269
v 2.17412 6.90971 0.26201
vn 0.978952 0.195813 -0.0575331
v 2.17284 6.91486 0.264238
vn 0.948429 0.313523 0.0467426
v 2.17448 6.90765 0.267531
vn 0.971651 0.215014 0.0983023
v 2.15265 6.9113 0.182278
vn -0.158963 0.984124 -0.0789282
v 2.13665 6.91427 0.262189
vn -0.197276 0.979374 -0.0436994
v 2.16954 6.91941 0.260089
vn -0.110932 0.992603 -0.0493362
v 2.12901 6.88034 0.110552
vn -0.986414 -0.152268 0.0616551
v 2.13129 6.89739 0.184575
vn -0.991671 -0.114119 0.059705
v 2.18699 6.58986 0.292223
vn -0.936358 -0.292214 0.194537
v 2.18561 6.59755 0.294351
vn -0.955218 -0.186017 0.230121
v 2.22439 6.59571 0.289835
vn 0.997419 0.0102427 0.071067
v 2.22359 6.59848 0.293737
vn 0.910056 -0.00800026 0.414407
v 2.16825 6.88648 0.108046
vn 0.985696 0.155811 -0.0642391
v 2.17574 6.8997 0.257789
vn 0.98581 0.156012 -0.0619582
v 2.14881 6.9012 0.0982923
vn -0.160794 0.782415 -0.601642
v 2.16167 6.90554 0.102962
vn -0.114178 0.98688 -0.114156
v 2.18025 6.57277 0.12614
vn -0.123203 -0.884559 -0.449863
v 2.17872 6.57754 0.123048
vn -0.851168 -0.356603 -0.385159
v 2.17678 6.58715 0.120872
vn -0.858341 -0.18836 -0.477254
v 2.17637 6.59638 0.11863
vn -0.114792 -0.100577 -0.988285
v 2.17491 6.73772 0.105769
vn -0.0497914 -0.0878347 -0.99489
v 2.21088 6.60177 0.116426
vn 0.0404988 -0.0762549 -0.996266
v 2.21358 6.59291 0.118522
vn 0.810461 0.0703912 -0.581548
v 2.21493 6.5832 0.120736
vn 0.864572 -0.0882549 -0.494698
v 2.21532 6.57825 0.123901
vn 0.413314 -0.776453 -0.475701
v 2.20146 6.57522 0.124437
vn 0.107229 -0.876903 -0.468554
v 2.12798 6.89169 0.0978524
vn -0.910056 0.00800026 -0.414407
v 2.17583 6.59047 0.1338
vn -0.985752 -0.156369 0.061984
v 2.1899 6.58463 0.288627
vn 0.120207 -0.986188 0.113946
v 2.22028 6.59279 0.207014
vn 0.991671 0.114119 -0.059705
v 2.16596 6.89262 0.0972379
vn 0.955218 0.186017 -0.230121
v 2.13625 6.91192 0.267688
vn -0.329543 0.813749 0.478763
v 2.13664 6.90697 0.270853
vn -0.864572 0.0882549 0.494698
v 2.13799 6.89726 0.273067
vn -0.808741 -0.0723777 0.583694
v 2.14069 6.8884 0.275163
vn -0.0162997 0.0800742 0.996656
v 2.1839 6.75358 0.285357
vn 0.0497914 0.0878344 0.99489
v 2.1752 6.89379 0.272959
vn 0.150616 0.106018 0.982891
v 2.17479 6.90302 0.270717
vn 0.857807 0.186694 0.478866
v 2.17285 6.91263 0.268541
vn 0.851168 0.356603 0.385159
v 2.17132 6.9174 0.265449
vn 0.213265 0.87446 0.435704
v 2.15724 6.91607 0.266697
vn -0.107229 0.876903 0.468554
v 2.1365 6.89356 0.260295
vn -0.9863 -0.152066 0.0639414
v 2.18738 6.59281 0.296049
vn -0.805667 -0.276341 0.523962
v 2.22361 6.6035 0.291925
vn 0.987353 0.117805 0.106098
v 2.1701 6.90346 0.182097
vn 0.97876 0.194056 -0.0661168
v 2.12879 6.9004 0.105062
vn -0.200542 0.973624 -0.108811
v 2.12786 6.89712 0.100126
vn -0.382457 0.720398 -0.578579
v 2.15606 6.742 0.197054
vn -0.986029 -0.154218 0.0629631
v 2.18864 6.58756 0.293702
vn -0.0702895 -0.791206 0.607497
v 2.22405 6.6006 0.286801
vn 0.992188 0.113867 -0.0509602
v 2.16613 6.89561 0.102322
vn 0.978086 0.194281 -0.0748497
f 1//1 2//2 3//3
f 1//1 3//3 4//4
f 1//1 4//4 5//5
f 1//1 5//5 6//6
f 1//1 6//6 2//2
f 7//7 8//8 9//9
f 10//10 11//11 12//12
f 13//13 14//14 15//15
f 16//16 17//17 18//18
f 19//19 20//20 21//21
f 22//22 23//23 24//24
f 22//22 24//24 25//25
f 22//22 25//25 26//26
f 22//22 26//26 27//27
f 22//22 27//27 23//23
f 28//28 29//29 30//30
f 31//31 32//32 33//33
f 34//34 35//35 36//36
f 37//37 38//38 39//39
f 40//40 41//41 42//42
f 13//13 43//43 44//44
f 10//10 45//45 46//46
f 7//7 47//47 48//48
f 19//19 49//49 50//50
f 16//16 51//51 52//52
f 10//10 53//53 45//45
f 13//13 54//54 43//43
f 16//16 55//55 51//51
f 19//19 56//56 49//49
f 7//7 57//57 47//47
f 40//40 58//58 59//59
f 28//28 60//60 61//61
f 31//31 62//62 63//63
f 34//34 64//64 65//65
f 37//37 66//66 67//67
f 40//40 68//68 58//58
f 28//28 69//69 60//60
f 31//31 70//70 62//62
f 34//34 71//71 64//64
f 37//37 72//72 66//66
f 10//10 46//46 11//11
f 7//7 48//48 8//8
f 19//19 50//50 20//20
f 16//16 52//52 17//17
f 13//13 44//44 14//14
f 40//40 42//42 68//68
f 28//28 30//30 69//69
f 31//31 33//33 70//70
f 34//34 36//36 71//71
f 37//37 39//39 72//72
f 28//28 61//61 29//29
f 31//31 63//63 32//32
f 34//34 65//65 35//35
f 37//37 67//67 38//38
f 40//40 59//59 41//41
f 10//10 12//12 53//53
f 13//13 15//15 54//54
f 16//16 18//18 55//55
f 19//19 21//21 56//56
f 7//7 9//9 57//57
f 73//73 74//74 75//75
f 76//76 77//77 78//78
f 79//79 80//80 81//81
f 82//82 83//83 84//84
f 85//85 86//86 87//87
f 88//88 89//89 90//90
f 91//91 92//92 93//93
f 94//94 95//95 96//96
f 97//97 98//98 99//99
f 100//100 101//101 102//102
f 103//103 104//104 105//105
f 106//106 107//107 108//108
f 109//109 110//110 111//111
f 112//112 113//113 114//114
f 115//115 116//116 117//117
f 88//88 118//118 119//119
f 91//91 120//120 121//121
f 94//94 122//122 123//123
f 97//97 124//124 125//125
f 100//100 126//126 127//127
f 128//128 129//129 2//2
f 130//130 131//131 3//3
f 132//132 133//133 4//4
f 134//134 135//135 5//5
f 136//136 137//137 6//6
f 76//76 138//138 8//8
f 73//73 139//139 11//11
f 85//85 140//140 14//14
f 82//82 141//141 17//17
f 79//79 142//142 20//20
f 143//143 144//144 23//23
f 145//145 146//146 24//24
f 147//147 148//148 25//25
f 149//149 150//150 26//26
f 151//151 152//152 27//27
f 103//103 153//153 29//29
f 106//106 154//154 32//32
f 109//109 155//155 35//35
f 112//112 156//156 38//38
f 115//115 157//157 41//41
f 73//73 75//75 43//43
f 76//76 78//78 45//45
f 79//79 81//81 47//47
f 82//82 84//84 49//49
f 85//85 87//87 51//51
f 88//88 90//90 53//53
f 91//91 93//93 54//54
f 94//94 96//96 55//55
f 97//97 99//99 56//56
f 100//100 102//102 57//57
f 103//103 105//105 58//58
f 106//106 108//108 60//60
f 109//109 111//111 62//62
f 112//112 114//114 64//64
f 115//115 117//117 66//66
f 88//88 119//119 68//68
f 91//91 121//121 69//69
f 94//94 123//123 70//70
f 97//97 125//125 71//71
f 100//100 127//127 72//72
f 130//130 74//74 46//46
f 132//132 77//77 48//48
f 134//134 80//80 50//50
f 136//136 83//83 52//52
f 128//128 86//86 44//44
f 158//158 89//89 42//42
f 159//159 92//92 30//30
f 160//160 95//95 33//33
f 161//161 98//98 36//36
f 162//162 101//101 39//39
f 145//145 104//104 61//61
f 147//147 107//107 63//63
f 149//149 110//110 65//65
f 151//151 113//113 67//67
f 143//143 116//116 59//59
f 159//159 118//118 12//12
f 160//160 120//120 15//15
f 161//161 122//122 18//18
f 162//162 124//124 21//21
f 158//158 126//126 9//9
f 130//130 129//129 74//74
f 132//132 131//131 77//77
f 134//134 133//133 80//80
f 136//136 135//135 83//83
f 128//128 137//137 86//86
f 158//158 138//138 89//89
f 159//159 139//139 92//92
f 160//160 140//140 95//95
f 161//161 141//141 98//98
f 162//162 142//142 101//101
f 145//145 144//144 104//104
f 147//147 146//146 107//107
f 149//149 148//148 110//110
f 151//151 150//150 113//113
f 143//143 152//152 116//116
f 159//159 153//153 118//118
f 160//160 154//154 120//120
f 161//161 155//155 122//122
f 162//162 156//156 124//124
f 158//158 157//157 126//126
f 130//130 3//3 129//129
f 132//132 4//4 131//131
f 134//134 5//5 133//133
f 136//136 6//6 135//135
f 128//128 2//2 137//137
f 158//158 9//9 138//138
f 159//159 12//12 139//139
f 160//160 15//15 140//140
f 161//161 18//18 141//141
f 162//162 21//21 142//142
f 145//145 24//24 144//144
f 147//147 25//25 146//146
f 149//149 26//26 148//148
f 151//151 27//27 150//150
f 143//143 23//23 152//152
f 159//159 30//30 153//153
f 160//160 33//33 154//154
f 161//161 36//36 155//155
f 162//162 39//39 156//156
f 158//158 42//42 157//157
f 128//128 44//44 75//75
f 130//130 46//46 78//78
f 132//132 48//48 81//81
f 134//134 50//50 84//84
f 136//136 52//52 87//87
f 76//76 45//45 90//90
f 73//73 43//43 93//93
f 85//85 51//51 96//96
f 82//82 49//49 99//99
f 79//79 47//47 102//102
f 143//143 59//59 105//105
f 145//145 61//61 108//108
f 147//147 63//63 111//111
f 149//149 65//65 114//114
f 151//151 67//67 117//117
f 103//103 58//58 119//119
f 106//106 60//60 121//121
f 109//109 62//62 123//123
f 112//112 64//64 125//125
f 115//115 66//66 127//127
f 73//73 11//11 74//74
f 76//76 8//8 77//77
f 79//79 20//20 80//80
f 82//82 17//17 83//83
f 85//85 14//14 86//86
f 88//88 68//68 89//89
f 91//91 69//69 92//92
f 94//94 70//70 95//95
f 97//97 71//71 98//98
f 100//100 72//72 101//101
f 103//103 29//29 104//104
f 106//106 32//32 107//107
f 109//109 35//35 110//110
f 112//112 38//38 113//113
f 115//115 41//41 116//116
f 88//88 53//53 118//118
f 91//91 54//54 120//120
f 94//94 55//55 122//122
f 97//97 56//56 124//124
f 100//100 57//57 126//126
f 128//128 75//75 129//129
f 130//130 78//78 131//131
f 132//132 81//81 133//133
f 134//134 84//84 135//135
f 136//136 87//87 137//137
f 76//76 90//90 138//138
f 73//73 93//93 139//139
f 85//85 96//96 140//140
f 82//82 99//99 141//141
f 79//79 102//102 142//142
f 143//143 105//105 144//144
f 145//145 108//108 146//146
f 147//147 111//111 148//148
f 149//149 114//114 150//150
f 151//151 117//117 152//152
f 103//103 119//119 153//153
f 106//106 121//121 154//154
f 109//109 123//123 155//155
f 112//112 125//125 156//156
f 115//115 127//127 157//157
f 129//129 3//3 2//2
f 131//131 4//4 3//3
f 133//133 5//5 4//4
f 135//135 6//6 5//5
f 137//137 2//2 6//6
f 138//138 9//9 8//8
f 139//139 12//12 11//11
f 140//140 15//15 14//14
f 141//141 18//18 17//17
f 142//142 21//21 20//20
f 144//144 24//24 23//23
f 146//146 25//25 24//24
f 148//148 26//26 25//25
f 150//150 27//27 26//26
f 152//152 23//23 27//27
f 153//153 30//30 29//29
f 154//154 33//33 32//32
f 155//155 36//36 35//35
f 156//156 39//39 38//38
f 157//157 42//42 41//41
f 75//75 44//44 43//43
f 78//78 46//46 45//45
f 81//81 48//48 47//47
f 84//84 50//50 49//49
f 87//87 52//52 51//51
f 90//90 45//45 53//53
f 93//93 43//43 54//54
f 96//96 51//51 55//55
f 99//99 49//49 56//56
f 102//102 47//47 57//57
f 105//105 59//59 58//58
f 108//108 61//61 60//60
f 111//111 63//63 62//62
f 114//114 65//65 64//64
f 117//117 67//67 66//66
f 119//119 58//58 68//68
f 121//121 60//60 69//69
f 123//123 62//62 70//70
f 125//125 64//64 71//71
f 127//127 66//66 72//72
f 74//74 11//11 46//46
f 77//77 8//8 48//48
f 80//80 20//20 50//50
f 83//83 17//17 52//52
f 86//86 14//14 44//44
f 89//89 68//68 42//42
f 92//92 69//69 30//30
f 95//95 70//70 33//33
f 98//98 71//71 36//36
f 101//101 72//72 39//39
f 104//104 29//29 61//61
f 107//107 32//32 63//63
f 110//110 35//35 65//65
f 113//113 38//38 67//67
f 116//116 41//41 59//59
f 118//118 53//53 12//12
f 120//120 54//54 15//15
f 122//122 55//55 18//18
f 124//124 56//56 21//21
f 126//126 57//57 9//9
f 129//129 75//75 74//74
f 131//131 78//78 77//77
f 133//133 81//81 80//80
f 135//135 84//84 83//83
f 137//137 87//87 86//86
f 138//138 90//90 89//89
f 139//139 93//93 92//92
f 140//140 96//96 95//95
f 141//141 99//99 98//98
f 142//142 102//102 101//101
f 144//144 105//105 104//104
f 146//146 108//108 107//107
f 148//148 111//111 110//110
f 150//150 114//114 113//113
f 152//152 117//117 116//116
f 153//153 119//119 118//118
f 154//154 121//121 120//120
f 155//155 123//123 122//122
f 156//156 125//125 124//124
f 157//157 127//127 126//126
