# Created by Open3D 
# object name: part_008
# number of vertices: 162
# number of triangles: 320
v 3.02027 6.80246 0.536954
vn 0.120202 0.0944194 -0.988249
v 3.02723 6.78292 0.536216
vn 0.214504 0.0852234 -0.972998
v 3.01882 6.78139 0.534953
vn 0.0945418 0.0676609 -0.993219
v 3.00887 6.80124 0.535823
vn 0.0578513 0.0889754 -0.994352
v 3.01551 6.81607 0.537863
vn 0.0889574 0.126896 -0.987919
v 3.02407 6.81597 0.53899
vn 0.212357 0.121411 -0.96962
v 2.65868 6.76979 0.514573
vn -0.0133259 0.082358 -0.996514
v 2.66411 6.74935 0.512998
vn 0.0171125 0.0606636 -0.998012
v 2.65547 6.74933 0.513206
vn -0.105617 0.0563031 -0.992812
v 2.84159 6.76305 0.525373
vn 0.104494 -0.945634 -0.307989
v 3.01006 6.77819 0.536392
vn 0.102884 -0.970889 -0.216308
v 2.8415 6.76263 0.527325
vn 0.0955668 -0.990569 -0.0981838
v 3.02953 6.77833 0.568326
vn 0.345071 -0.936336 -0.0648109
v 3.03177 6.77972 0.56857
vn 0.992702 -0.112499 0.0434367
v 3.0282 6.77612 0.597388
vn 0.495062 -0.868813 -0.00881527
v 3.02598 6.81554 0.571449
vn 0.161796 0.982125 0.0961881
v 3.02381 6.8182 0.543617
vn 0.0131982 0.996499 0.0825558
v 3.02083 6.81327 0.598922
vn 0.0124577 0.995281 0.096232
v 2.8752 6.80546 0.530962
vn -0.0800555 0.986063 -0.145847
v 2.67736 6.78729 0.517804
vn -0.0569704 0.906747 -0.417808
v 2.66932 6.78684 0.518815
vn -0.0882007 0.994805 -0.0508204
v 2.65517 6.76397 0.579911
vn -0.120202 -0.0944194 0.988249
v 2.65202 6.74362 0.577301
vn -0.211326 -0.118538 0.970201
v 2.66058 6.74352 0.578427
vn -0.0898933 -0.116324 0.989135
v 2.66662 6.76475 0.581005
vn -0.0578514 -0.0889754 0.994352
v 2.65727 6.7782 0.581338
vn -0.0956293 -0.0570487 0.993781
v 2.64886 6.77667 0.580075
vn -0.216073 -0.0825403 0.972882
v 2.83823 6.7575 0.587641
vn 0.0800537 -0.986059 0.145871
v 2.66977 6.7423 0.576617
vn 0.0849366 -0.995064 0.0513234
v 2.83836 6.75743 0.585648
vn 0.0939576 -0.993231 -0.0682995
v 3.01676 6.79664 0.602291
vn 0.0133251 -0.0823581 0.996514
v 3.0153 6.77556 0.600382
vn -0.0124621 -0.109329 0.993928
v 3.02378 6.77721 0.600311
vn 0.108801 -0.0896177 0.990016
v 2.87185 6.79992 0.593229
vn -0.104493 0.945641 0.307968
v 2.99507 6.8106 0.601701
vn -0.107791 0.815971 0.567954
v 3.00303 6.81185 0.600757
vn -0.0989319 0.971026 0.217536
v 2.64656 6.78126 0.547965
vn -0.345071 0.936336 0.0648109
v 2.64863 6.77965 0.575884
vn -0.201624 0.975942 0.0829785
v 2.65161 6.78457 0.520579
vn -0.200891 0.977159 0.0693024
v 2.65011 6.74405 0.544842
vn -0.161796 -0.982125 -0.0961881
v 2.64765 6.74502 0.544796
vn -0.954399 -0.288411 -0.0770822
v 2.65138 6.74697 0.515839
vn -0.322667 -0.935706 -0.142622
v 3.02747 6.77994 0.540406
vn 0.201624 -0.975942 -0.0829785
v 3.03133 6.78129 0.539356
vn 0.499512 -0.861436 -0.0917348
v 2.68102 6.74899 0.51459
vn 0.107881 -0.817866 -0.565205
v 3.00218 6.778 0.534468
vn 0.109837 -0.817691 -0.565081
v 2.66079 6.78403 0.515908
vn 0.0113398 0.119885 -0.992723
v 2.67018 6.77064 0.51486
vn 0.049266 0.0882 -0.994884
v 3.00632 6.81729 0.539674
vn -0.0844017 0.995057 -0.0523278
v 2.99852 6.8163 0.537682
vn -0.0544037 0.904272 -0.423476
v 3.02844 6.81457 0.571495
vn 0.926085 0.36815 0.0826598
v 3.02784 6.81779 0.54242
vn 0.327105 0.9431 0.0597085
v 2.67306 6.74774 0.515534
vn 0.0993573 -0.971214 -0.216498
v 3.02449 6.77502 0.595711
vn 0.200891 -0.977159 -0.0693024
v 3.02472 6.81262 0.600452
vn 0.322667 0.935706 0.142622
v 2.87554 6.80557 0.532983
vn -0.0939566 0.993232 0.0682815
v 2.65231 6.78238 0.51598
vn -0.110394 0.0922541 -0.989597
v 2.65228 6.74139 0.572674
vn -0.0131982 -0.996499 -0.0825558
v 2.64825 6.7418 0.573871
vn -0.327105 -0.9431 -0.0597085
v 2.99873 6.7723 0.598487
vn 0.0567741 -0.90554 0.420445
v 2.67757 6.74329 0.578608
vn 0.0548174 -0.905713 0.420332
v 3.01199 6.81024 0.603293
vn -0.018014 -0.0500351 0.998585
v 3.0053 6.79535 0.601968
vn -0.0492657 -0.0882 0.994884
v 2.66604 6.7814 0.579898
vn -0.102551 0.971063 0.215685
v 2.67391 6.78159 0.581823
vn -0.109763 0.819421 0.562584
v 2.64432 6.77987 0.54772
vn -0.979978 0.195946 -0.0353196
v 2.64476 6.7783 0.576934
vn -0.499512 0.861436 0.0917348
v 2.65526 6.74632 0.517369
vn -0.0124577 -0.995281 -0.096232
v 3.00677 6.77275 0.597475
vn 0.0884634 -0.994747 0.0514969
v 3.02062 6.81026 0.603085
vn 0.106681 -0.0533829 0.992859
v 2.8724 6.80038 0.591306
vn -0.0955677 0.990567 0.0982016
v 2.64789 6.78347 0.518903
vn -0.495062 0.868813 0.00881527
v 3.02138 6.77925 0.538127
vn 0.131854 -0.985761 -0.104353
v 3.01857 6.77948 0.536014
vn 0.14771 -0.862811 -0.483465
v 3.02722 6.78048 0.537581
vn 0.233491 -0.893661 -0.383214
v 2.67013 6.74869 0.513476
vn 0.0882907 -0.42514 -0.900811
v 2.68072 6.75086 0.513703
vn 0.0550049 0.0640475 -0.99643
v 2.84158 6.7641 0.523915
vn 0.0935022 -0.414922 -0.90504
v 2.66659 6.78571 0.516583
vn -0.00640258 0.575803 -0.817563
v 2.87362 6.80452 0.529241
vn -0.000483886 0.568834 -0.822452
v 2.6774 6.78557 0.516617
vn 0.0489916 0.126398 -0.990769
v 3.01767 6.8181 0.541388
vn -0.0575167 0.996418 0.0619972
v 3.02362 6.8181 0.540739
vn 0.0552202 0.972417 -0.22662
v 3.01492 6.8177 0.539222
vn -0.0248137 0.942982 -0.331918
v 3.0305 6.80086 0.570385
vn 0.994057 0.0898057 0.0615278
v 3.03303 6.78317 0.539582
vn 0.997698 0.0518918 -0.04366
v 3.02987 6.81626 0.542359
vn 0.987856 0.15141 -0.0348625
v 2.6616 6.74675 0.515858
vn 0.0600417 -0.992249 -0.108798
v 2.65575 6.74692 0.51459
vn -0.0215211 -0.916712 -0.398969
v 2.66456 6.7475 0.514103
vn 0.0689704 -0.869934 -0.488322
v 3.0182 6.77399 0.597172
vn 0.129338 -0.989929 -0.0575524
v 3.00713 6.77283 0.594614
vn 0.0964036 -0.992118 -0.0800514
v 3.02071 6.77661 0.567697
vn 0.129753 -0.98823 -0.0810296
v 3.02345 6.81173 0.602287
vn 0.361401 0.157691 0.918979
v 3.02574 6.79775 0.601322
vn 0.398903 -0.0387793 0.916173
v 3.02674 6.81108 0.600457
vn 0.977038 0.133512 0.166043
v 2.87411 6.80306 0.56216
vn -0.0947728 0.992012 0.0832506
v 3.00336 6.81231 0.597927
vn -0.0926618 0.991934 0.0864921
v 3.00634 6.81724 0.542559
vn -0.0923291 0.992486 0.0802914
v 2.64927 6.78314 0.516965
vn -0.39906 0.23651 -0.885898
v 2.65216 6.78454 0.517747
vn -0.199815 0.94939 -0.24235
v 2.6552 6.78434 0.516374
vn -0.115901 0.630515 -0.767475
v 2.65842 6.74149 0.574903
vn 0.0575167 -0.996418 -0.0619972
v 2.66117 6.74189 0.577069
vn 0.0248137 -0.942982 0.331918
v 2.65247 6.74149 0.575552
vn -0.0552202 -0.972417 0.22662
v 3.0095 6.77388 0.599708
vn 0.00745546 -0.577039 0.816683
v 2.99869 6.77402 0.599674
vn -0.0503359 -0.112918 0.992329
v 2.83806 6.75828 0.589253
vn 0.000483886 -0.568834 0.822452
v 3.00597 6.8109 0.602815
vn -0.0871625 0.427342 0.899879
v 2.8701 6.79871 0.594578
vn -0.0935022 0.414922 0.90504
v 2.99537 6.80874 0.602588
vn -0.0558144 -0.0549839 0.996926
v 2.65471 6.78034 0.578163
vn -0.131854 0.985761 0.104353
v 2.64888 6.77911 0.578709
vn -0.233491 0.893661 0.383214
v 2.65752 6.78011 0.580277
vn -0.14771 0.862811 0.483465
v 2.64489 6.76602 0.546518
vn -0.994057 -0.0898057 -0.0615278
v 2.64622 6.74333 0.573932
vn -0.988843 -0.144575 0.0358807
v 2.64306 6.77642 0.576709
vn -0.99803 -0.0449201 0.0438007
v 2.67273 6.74728 0.518364
vn 0.0931406 -0.991893 -0.0864478
v 2.65911 6.74394 0.545317
vn 0.0596823 -0.99456 -0.0853709
v 3.02393 6.77505 0.598543
vn 0.199815 -0.94939 0.24235
v 3.01518 6.77387 0.59898
vn 0.103545 -0.935896 0.336714
v 3.02034 6.81267 0.601701
vn 0.0215211 0.916712 0.398969
v 3.01741 6.81168 0.602974
vn 0.0073586 0.505466 0.862815
v 2.66896 6.78676 0.521677
vn -0.0960929 0.992147 0.0800713
v 2.66598 6.78183 0.577045
vn -0.0964254 0.991597 0.0862459
v 2.64967 6.76902 0.51557
vn -0.398903 0.0387793 -0.916173
v 2.64619 6.78159 0.518611
vn -0.987212 -0.0270255 -0.157108
v 3.03016 6.78197 0.53737
vn 0.495771 -0.0228118 -0.868154
v 3.02433 6.78095 0.535949
vn 0.202984 -0.486451 -0.849802
v 3.013 6.77967 0.534698
vn 0.099901 -0.42416 -0.90006
v 3.00225 6.7799 0.533604
vn 0.0567497 0.064206 -0.996322
v 2.83949 6.7864 0.52525
vn 0.0535592 0.0885885 -0.994627
v 2.99893 6.81462 0.536517
vn 0.0512427 0.122092 -0.991195
v 3.00947 6.81669 0.537805
vn 0.00514274 0.580157 -0.814488
v 3.02085 6.81738 0.539006
vn 0.0944483 0.649532 -0.754445
v 3.02679 6.81725 0.540331
vn 0.455741 0.313736 -0.832989
v 3.02909 6.80329 0.539054
vn 0.494594 0.119498 -0.86087
v 2.65868 6.74791 0.513317
vn -0.0073586 -0.505466 -0.862815
v 3.01011 6.77776 0.539246
vn 0.0967362 -0.991568 -0.0862272
v 3.0299 6.778 0.59768
vn 0.98683 0.0339159 0.158164
v 3.01698 6.81565 0.570974
vn -0.0596823 0.99456 0.0853709
v 2.66091 6.78572 0.517311
vn -0.103545 0.935896 -0.336714
v 2.6493 6.74234 0.57596
vn -0.468884 -0.258711 0.844521
v 2.65524 6.74222 0.577284
vn -0.0944483 -0.649532 0.754445
v 2.66663 6.7429 0.578486
vn -0.00414219 -0.578167 0.815908
v 2.67716 6.74497 0.579773
vn -0.0520809 -0.113076 0.99222
v 2.83591 6.78048 0.591653
vn -0.0535592 -0.0885885 0.994627
v 2.67385 6.77969 0.582687
vn -0.0580482 -0.0506497 0.997028
v 2.66309 6.77992 0.581593
vn -0.0989375 0.42278 0.900815
v 2.65176 6.77864 0.580342
vn -0.202984 0.486451 0.849802
v 2.64593 6.77762 0.578921
vn -0.493389 0.0804565 0.86608
v 2.64632 6.76347 0.577838
vn -0.494594 -0.119498 0.86087
v 2.66975 6.74235 0.573731
vn 0.0928092 -0.992443 -0.0802764
v 3.02089 6.77525 0.599916
vn 0.115901 -0.630515 0.767475
v 3.01153 6.81209 0.602188
vn -0.0689704 0.869934 0.488322
v 2.65538 6.78298 0.548593
vn -0.129753 0.98823 0.0810296
v 2.64935 6.74851 0.515834
vn -0.977976 -0.126597 -0.165942
v 2.65264 6.74786 0.514003
vn -0.373763 -0.101372 -0.921968
v 2.83994 6.75996 0.55648
vn 0.0947728 -0.992012 -0.0832506
v 3.02682 6.77645 0.599326
vn 0.400656 -0.18015 0.898343
v 3.01449 6.81284 0.600432
vn -0.0600417 0.992249 0.108798
v 2.65789 6.7856 0.519119
vn -0.129338 0.989929 0.0575524
f 1//1 2//2 3//3
f 1//1 3//3 4//4
f 1//1 4//4 5//5
f 1//1 5//5 6//6
f 1//1 6//6 2//2
f 7//7 8//8 9//9
f 10//10 11//11 12//12
f 13//13 14//14 15//15
f 16//16 17//17 18//18
f 19//19 20//20 21//21
f 22//22 23//23 24//24
f 22//22 24//24 25//25
f 22//22 25//25 26//26
f 22//22 26//26 27//27
f 22//22 27//27 23//23
f 28//28 29//29 30//30
f 31//31 32//32 33//33
f 34//34 35//35 36//36
f 37//37 38//38 39//39
f 40//40 41//41 42//42
f 13//13 43//43 44//44
f 10//10 45//45 46//46
f 7//7 47//47 48//48
f 19//19 49//49 50//50
f 16//16 51//51 52//52
f 10//10 53//53 45//45
f 13//13 54//54 43//43
f 16//16 55//55 51//51
f 19//19 56//56 49//49
f 7//7 57//57 47//47
f 40//40 58//58 59//59
f 28//28 60//60 61//61
f 31//31 62//62 63//63
f 34//34 64//64 65//65
f 37//37 66//66 67//67
f 40//40 68//68 58//58
f 28//28 69//69 60//60
f 31//31 70//70 62//62
f 34//34 71//71 64//64
f 37//37 72//72 66//66
f 10//10 46//46 11//11
f 7//7 48//48 8//8
f 19//19 50//50 20//20
f 16//16 52//52 17//17
f 13//13 44//44 14//14
f 40//40 42//42 68//68
f 28//28 30//30 69//69
f 31//31 33//33 70//70
f 34//34 36//36 71//71
f 37//37 39//39 72//72
f 28//28 61//61 29//29
f 31//31 63//63 32//32
f 34//34 65//65 35//35
f 37//37 67//67 38//38
f 40//40 59//59 41//41
f 10//10 12//12 53//53
f 13//13 15//15 54//54
f 16//16 18//18 55//55
f 19//19 21//21 56//56
f 7//7 9//9 57//57
f 73//73 74//74 75//75
f 76//76 77//77 78//78
f 79//79 80//80 81//81
f 82//82 83//83 84//84
f 85//85 86//86 87//87
f 88//88 89//89 90//90
f 91//91 92//92 93//93
f 94//94 95//95 96//96
f 97//97 98//98 99//99
f 100//100 101//101 102//102
f 103//103 104//104 105//105
f 106//106 107//107 108//108
f 109//109 110//110 111//111
f 112//112 113//113 114//114
f 115//115 116//116 117//117
f 88//88 118//118 119//119
f 91//91 120//120 121//121
f 94//94 122//122 123//123
f 97//97 124//124 125//125
f 100//100 126//126 127//127
f 128//128 129//129 2//2
f 130//130 131//131 3//3
f 132//132 133//133 4//4
f 134//134 135//135 5//5
f 136//136 137//137 6//6
f 76//76 138//138 8//8
f 73//73 139//139 11//11
f 85//85 140//140 14//14
f 82//82 141//141 17//17
f 79//79 142//142 20//20
f 143//143 144//144 23//23
f 145//145 146//146 24//24
f 147//147 148//148 25//25
f 149//149 150//150 26//26
f 151//151 152//152 27//27
f 103//103 153//153 29//29
f 106//106 154//154 32//32
f 109//109 155//155 35//35
f 112//112 156//156 38//38
f 115//115 157//157 41//41
f 73//73 75//75 43//43
f 76//76 78//78 45//45
f 79//79 81//81 47//47
f 82//82 84//84 49//49
f 85//85 87//87 51//51
f 88//88 90//90 53//53
f 91//91 93//93 54//54
f 94//94 96//96 55//55
f 97//97 99//99 56//56
f 100//100 102//102 57//57
f 103//103 105//105 58//58
f 106//106 108//108 60//60
f 109//109 111//111 62//62
f 112//112 114//114 64//64
f 115//115 117//117 66//66
f 88//88 119//119 68//68
f 91//91 121//121 69//69
f 94//94 123//123 70//70
f 97//97 125//125 71//71
f 100//100 127//127 72//72
f 130//130 74//74 46//46
f 132//132 77//77 48//48
f 134//134 80//80 50//50
f 136//136 83//83 52//52
f 128//128 86//86 44//44
f 158//158 89//89 42//42
f 159//159 92//92 30//30
f 160//160 95//95 33//33
f 161//161 98//98 36//36
f 162//162 101//101 39//39
f 145//145 104//104 61//61
f 147//147 107//107 63//63
f 149//149 110//110 65//65
f 151//151 113//113 67//67
f 143//143 116//116 59//59
f 159//159 118//118 12//12
f 160//160 120//120 15//15
f 161//161 122//122 18//18
f 162//162 124//124 21//21
f 158//158 126//126 9//9
f 130//130 129//129 74//74
f 132//132 131//131 77//77
f 134//134 133//133 80//80
f 136//136 135//135 83//83
f 128//128 137//137 86//86
f 158//158 138//138 89//89
f 159//159 139//139 92//92
f 160//160 140//140 95//95
f 161//161 141//141 98//98
f 162//162 142//142 101//101
f 145//145 144//144 104//104
f 147//147 146//146 107//107
f 149//149 148//148 110//110
f 151//151 150//150 113//113
f 143//143 152//152 116//116
f 159//159 153//153 118//118
f 160//160 154//154 120//120
f 161//161 155//155 122//122
f 162//162 156//156 124//124
f 158//158 157//157 126//126
f 130//130 3//3 129//129
f 132//132 4//4 131//131
f 134//134 5//5 133//133
f 136//136 6//6 135//135
f 128//128 2//2 137//137
f 158//158 9//9 138//138
f 159//159 12//12 139//139
f 160//160 15//15 140//140
f 161//161 18//18 141//141
f 162//162 21//21 142//142
f 145//145 24//24 144//144
f 147//147 25//25 146//146
f 149//149 26//26 148//148
f 151//151 27//27 150//150
f 143//143 23//23 152//152
f 159//159 30//30 153//153
f 160//160 33//33 154//154
f 161//161 36//36 155//155
f 162//162 39//39 156//156
f 158//158 42//42 157//157
f 128//128 44//44 75//75
f 130//130 46//46 78//78
f 132//132 48//48 81//81
f 134//134 50//50 84//84
f 136//136 52//52 87//87
f 76//76 45//45 90//90
f 73//73 43//43 93//93
f 85//85 51//51 96//96
f 82//82 49//49 99//99
f 79//79 47//47 102//102
f 143//143 59//59 105//105
f 145//145 61//61 108//108
f 147//147 63//63 111//111
f 149//149 65//65 114//114
f 151//151 67//67 117//117
f 103//103 58//58 119//119
f 106//106 60//60 121//121
f 109//109 62//62 123//123
f 112//112 64//64 125//125
f 115//115 66//66 127//127
f 73//73 11//11 74//74
f 76//76 8//8 77//77
f 79//79 20//20 80//80
f 82//82 17//17 83//83
f 85//85 14//14 86//86
f 88//88 68//68 89//89
f 91//91 69//69 92//92
f 94//94 70//70 95//95
f 97//97 71//71 98//98
f 100//100 72//72 101//101
f 103//103 29//29 104//104
f 106//106 32//32 107//107
f 109//109 35//35 110//110
f 112//112 38//38 113//113
f 115//115 41//41 116//116
f 88//88 53//53 118//118
f 91//91 54//54 120//120
f 94//94 55//55 122//122
f 97//97 56//56 124//124
f 100//100 57//57 126//126
f 128//128 75//75 129//129
f 130//130 78//78 131//131
f 132//132 81//81 133//133
f 134//134 84//84 135//135
f 136//136 87//87 137//137
f 76//76 90//90 138//138
f 73//73 93//93 139//139
f 85//85 96//96 140//140
f 82//82 99//99 141//141
f 79//79 102//102 142//142
f 143//143 105//105 144//144
f 145//145 108//108 146//146
f 147//147 111//111 148//148
f 149//149 114//114 150//150
f 151//151 117//117 152//152
f 103//103 119//119 153//153
f 106//106 121//121 154//154
f 109//109 123//123 155//155
f 112//112 125//125 156//156
f 115//115 127//127 157//157
f 129//129 3//3 2//2
f 131//131 4//4 3//3
f 133//133 5//5 4//4
f 135//135 6//6 5//5
f 137//137 2//2 6//6
f 138//138 9//9 8//8
f 139//139 12//12 11//11
f 140//140 15//15 14//14
f 141//141 18//18 17//17
f 142//142 21//21 20//20
f 144//144 24//24 23//23
f 146//146 25//25 24//24
f 148//148 26//26 25//25
f 150//150 27//27 26//26
f 152//152 23//23 27//27
f 153//153 30//30 29//29
f 154//154 33//33 32//32
f 155//155 36//36 35//35
f 156//156 39//39 38//38
f 157//157 42//42 41//41
f 75//75 44//44 43//43
f 78//78 46//46 45//45
f 81//81 48//48 47//47
f 84//84 50//50 49//49
f 87//87 52//52 51//51
f 90//90 45//45 53//53
f 93//93 43//43 54//54
f 96//96 51//51 55//55
f 99//99 49//49 56//56
f 102//102 47//47 57//57
f 105//105 59//59 58//58
f 108//108 61//61 60//60
f 111//111 63//63 62//62
f 114//114 65//65 64//64
f 117//117 67//67 66//66
f 119//119 58//58 68//68
f 121//121 60//60 69//69
f 123//123 62//62 70//70
f 125//125 64//64 71//71
f 127//127 66//66 72//72
f 74//74 11//11 46//46
f 77//77 8//8 48//48
f 80//80 20//20 50//50
f 83//83 17//17 52//52
f 86//86 14//14 44//44
f 89//89 68//68 42//42
f 92//92 69//69 30//30
f 95//95 70//70 33//33
f 98//98 71//71 36//36
f 101//101 72//72 39//39
f 104//104 29//29 61//61
f 107//107 32//32 63//63
f 110//110 35//35 65//65
f 113//113 38//38 67//67
f 116//116 41//41 59//59
f 118//118 53//53 12//12
f 120//120 54//54 15//15
f 122//122 55//55 18//18
f 124//124 56//56 21//21
f 126//126 57//57 9//9
f 129//129 75//75 74//74
f 131//131 78//78 77//77
f 133//133 81//81 80//80
f 135//135 84//84 83//83
f 137//137 87//87 86//86
f 138//138 90//90 89//89
f 139//139 93//93 92//92
f 140//140 96//96 95//95
f 141//141 99//99 98//98
f 142//142 102//102 101//101
f 144//144 105//105 104//104
f 146//146 108//108 107//107
f 148//148 111//111 110//110
f 150//150 114//114 113//113
f 152//152 117//117 116//116
f 153//153 119//119 118//118
f 154//154 121//121 120//120
f 155//155 123//123 122//122
f 156//156 125//125 124//124
f 157//157 127//127 126//126
