# Created by Open3D 
# object name: part_026
# number of vertices: 162
# number of triangles: 320
v 2.17014 6.74341 0.60485
vn 0.00324809 -0.982442 0.186542
v 2.15008 6.74497 0.609674
vn -0.0333756 -0.908963 0.41554
v 2.14919 6.74326 0.601942
vn -0.0586963 -0.992106 0.110818
v 2.16982 6.74236 0.59445
vn 0.00150105 -0.999891 0.0146986
v 2.18414 6.74331 0.601582
vn 0.090118 -0.989907 0.109372
v 2.1834 6.74501 0.609331
vn 0.050819 -0.907278 0.41745
v 2.16676 6.74252 0.276289
vn -0.00053716 -0.98344 -0.181235
v 2.14587 6.74239 0.279628
vn -0.0608985 -0.992688 -0.104219
v 2.14661 6.74405 0.27187
vn -0.0418591 -0.911206 -0.409818
v 2.14532 6.74681 0.440797
vn -0.995489 -0.0942964 0.0104887
v 2.14687 6.74872 0.5939
vn -0.998388 -0.0553852 0.0123913
v 2.14507 6.75179 0.440786
vn -0.99992 -0.00734033 0.0102985
v 2.14791 6.82586 0.612957
vn -0.95702 -0.000539195 0.290022
v 2.14912 6.82587 0.615077
vn -0.173099 0.00241749 0.984901
v 2.14817 6.8991 0.612997
vn -0.888468 0.0163101 0.458649
v 2.18542 6.82591 0.612571
vn 0.962783 0.00205834 0.270267
v 2.18601 6.75611 0.609476
vn 0.994054 -0.00106706 0.10888
v 2.18581 6.8957 0.609099
vn 0.994048 0.0044001 0.108857
v 2.18503 6.74696 0.474327
vn 0.995746 -0.0915977 -0.00998733
v 2.18281 6.74426 0.29449
vn 0.975723 -0.218755 -0.0105643
v 2.18313 6.74794 0.28728
vn 0.998555 -0.0524296 -0.0117571
v 2.16653 6.90744 0.275844
vn -0.0032486 0.98244 -0.18655
v 2.14639 6.90583 0.271433
vn -0.0443715 0.908859 -0.414737
v 2.14564 6.90754 0.279183
vn -0.0636432 0.991938 -0.109583
v 2.16642 6.90849 0.286249
vn -0.00150111 0.999891 -0.0146995
v 2.1806 6.90758 0.278823
vn 0.0851776 0.990144 -0.111171
v 2.1797 6.90588 0.271091
vn 0.0397628 0.907399 -0.418385
v 2.14511 6.90398 0.440373
vn -0.995747 0.0915857 0.00998737
v 2.14351 6.90207 0.28727
vn -0.998578 0.0526873 0.00814559
v 2.14487 6.899 0.440389
vn -0.999937 0.00463576 0.0102662
v 2.16991 6.90833 0.604406
vn 0.000537098 0.983442 0.181223
v 2.14896 6.90841 0.601496
vn -0.061436 0.992524 0.105459
v 2.14986 6.90675 0.609238
vn -0.0358905 0.911083 0.410657
v 2.18481 6.90412 0.473904
vn 0.99549 0.0942893 -0.0104887
v 2.18558 6.90664 0.585878
vn 0.974426 0.224516 -0.00929005
v 2.18607 6.90295 0.593079
vn 0.99841 0.0558144 -0.0079124
v 2.18187 6.82498 0.267808
vn 0.957019 0.000539191 -0.290024
v 2.18234 6.89479 0.270892
vn 0.991599 0.00375515 -0.129293
v 2.18253 6.75519 0.271269
vn 0.991606 -0.00171355 -0.129287
v 2.14437 6.82493 0.268194
vn -0.962782 -0.00205818 -0.27027
v 2.14553 6.82492 0.266049
vn -0.19331 -0.00291304 -0.981133
v 2.14482 6.75169 0.268146
vn -0.897659 -0.0187278 -0.440292
v 2.14745 6.75606 0.609872
vn -0.991599 -0.00375512 0.129293
v 2.14837 6.75263 0.613393
vn -0.888427 -0.0162888 0.458728
v 2.1442 6.7442 0.294887
vn -0.974808 -0.222846 0.00940198
v 2.1472 6.745 0.586711
vn -0.974783 -0.22284 0.0118472
v 2.18083 6.74243 0.279269
vn 0.0879149 -0.99049 -0.10583
v 2.16665 6.74153 0.286699
vn 0.0012543 -0.999956 -0.00930549
v 2.18628 6.74877 0.593495
vn 0.99856 -0.0531095 -0.00761897
v 2.18581 6.74505 0.586314
vn 0.975042 -0.221872 -0.00808638
v 2.18425 6.82592 0.614715
vn 0.268666 0.00296886 0.963229
v 2.18516 6.75268 0.613014
vn 0.897704 -0.0138716 0.44038
v 2.14372 6.74789 0.287686
vn -0.998428 -0.0554023 0.00843609
v 2.14725 6.89565 0.609496
vn -0.991606 0.00171353 0.129287
v 2.18496 6.89915 0.612619
vn 0.897662 0.0187277 0.440287
v 2.18527 6.75193 0.474731
vn 0.999937 -0.00463396 -0.0102662
v 2.17992 6.74409 0.271527
vn 0.0422748 -0.90953 -0.413482
v 2.14378 6.89474 0.271289
vn -0.994054 0.00106714 -0.10888
v 2.14462 6.89817 0.267751
vn -0.897702 0.013872 -0.440385
v 2.14698 6.90659 0.586275
vn -0.975398 0.220194 0.0106521
v 2.14398 6.9058 0.294451
vn -0.975422 0.22019 0.00820733
v 2.18391 6.90846 0.601137
vn 0.087376 0.990731 0.104011
v 2.16959 6.90932 0.593999
vn -0.00125431 0.999956 0.00930379
v 2.18292 6.90212 0.286865
vn 0.998408 0.0551115 -0.0120473
v 2.18258 6.90585 0.294054
vn 0.975114 0.221392 -0.0117516
v 2.18066 6.82497 0.265688
vn 0.248807 -0.00226853 -0.96855
v 2.18141 6.89822 0.267372
vn 0.888426 0.0162891 -0.458731
v 2.14397 6.75514 0.271665
vn -0.994048 -0.00440014 -0.108856
v 2.14665 6.9029 0.593484
vn -0.998538 0.0526918 0.0120988
v 2.18317 6.90679 0.608895
vn 0.0483121 0.909644 0.41257
v 2.18507 6.89915 0.474334
vn 0.99992 0.00733845 -0.0102985
v 2.18162 6.75174 0.267767
vn 0.888468 -0.0163103 -0.458649
v 2.1471 6.75132 0.604245
vn -0.998678 -0.0106187 0.0502984
v 2.14739 6.74636 0.601632
vn -0.982216 -0.178589 0.0579396
v 2.14777 6.74892 0.609551
vn -0.97858 -0.131482 0.158409
v 2.14474 6.74293 0.285016
vn -0.825978 -0.563701 -0.000558228
v 2.14601 6.74162 0.294709
vn -0.0603986 -0.998174 0.000891408
v 2.14625 6.74294 0.440798
vn -0.819298 -0.573281 0.00997635
v 2.18206 6.74298 0.284633
vn 0.826393 -0.562868 -0.0159655
v 2.18409 6.74308 0.472753
vn 0.820915 -0.571009 -0.00689046
v 2.181 6.74166 0.294349
vn 0.0970396 -0.99528 -0.000811845
v 2.18626 6.75137 0.603843
vn 0.999526 -0.00791276 0.0297545
v 2.1857 6.74897 0.609161
vn 0.98198 -0.128828 0.138268
v 2.18592 6.74642 0.601236
vn 0.983677 -0.175945 0.0377195
v 2.17037 6.8259 0.615537
vn 0.0102778 0.00271118 0.999944
v 2.15011 6.75255 0.615067
vn -0.0320797 -0.0340259 0.998906
v 2.18346 6.75259 0.614724
vn 0.0590187 -0.0337377 0.997687
v 2.14374 6.75043 0.277324
vn -0.9995 -0.0108342 -0.0297034
v 2.1443 6.748 0.272019
vn -0.981621 -0.132284 -0.137556
v 2.14408 6.74549 0.279958
vn -0.983189 -0.178852 -0.0367604
v 2.14689 6.90036 0.603843
vn -0.998704 0.00813115 0.0502482
v 2.14647 6.89569 0.59368
vn -0.999925 -0.000110016 0.0122812
v 2.1469 6.82584 0.604868
vn -0.998784 -0.00124694 0.0492934
v 2.18433 6.9041 0.611507
vn 0.325565 0.564876 0.758237
v 2.17017 6.90448 0.612514
vn 0.00755641 0.583907 0.811785
v 2.18326 6.89924 0.614328
vn 0.0589177 0.0392818 0.99749
v 2.18525 6.82554 0.474665
vn 0.999946 0.00135396 -0.0102825
v 2.18627 6.89574 0.593271
vn 0.999967 0.00260053 -0.00775345
v 2.18646 6.75599 0.593648
vn 0.99997 0.000120283 -0.00774662
v 2.18102 6.74679 0.268892
vn 0.311454 -0.564001 -0.764788
v 2.18223 6.74805 0.271629
vn 0.978937 -0.129637 -0.157721
v 2.18166 6.74427 0.274286
vn 0.855805 -0.483929 -0.182788
v 2.14353 6.89947 0.276922
vn -0.999526 0.00791277 -0.0297542
v 2.14386 6.90443 0.279529
vn -0.983677 0.175945 -0.0377197
v 2.14409 6.90188 0.271604
vn -0.98198 0.128829 -0.138269
v 2.14772 6.90787 0.596132
vn -0.827338 0.56143 0.0175603
v 2.14878 6.90918 0.586416
vn -0.0630959 0.998007 0.000379095
v 2.14602 6.90786 0.440353
vn -0.820915 0.571009 0.00689046
v 2.18504 6.90792 0.595748
vn 0.827371 0.561648 0.00280689
v 2.18386 6.90799 0.472308
vn 0.819298 0.573281 -0.00997635
v 2.18378 6.90923 0.586056
vn 0.0830947 0.996541 -0.00101288
v 2.18269 6.89952 0.27652
vn 0.998678 0.0106187 -0.0502984
v 2.18202 6.90193 0.271213
vn 0.97858 0.131482 -0.158409
v 2.18239 6.90448 0.279133
vn 0.982216 0.178589 -0.0579396
v 2.16676 6.82495 0.265153
vn -0.0102783 -0.00271097 -0.999944
v 2.14632 6.89825 0.266041
vn -0.0527066 0.0339118 -0.998034
v 2.17967 6.8983 0.265698
vn 0.0383981 0.0338704 -0.998688
v 2.14351 6.7551 0.287494
vn -0.999962 -0.00259571 0.00828417
v 2.14353 6.82495 0.276302
vn -0.999586 -0.00145853 -0.028748
v 2.14756 6.90279 0.609136
vn -0.978937 0.129636 0.157721
v 2.14717 6.9053 0.601203
vn -0.982706 0.176184 0.0569841
v 2.18548 6.90284 0.608746
vn 0.981621 0.132284 0.137557
v 2.18485 6.90663 0.606101
vn 0.85804 0.486298 0.165172
v 2.18331 6.75516 0.287085
vn 0.999929 0.00011475 -0.0119334
v 2.18312 6.89491 0.286708
vn 0.999925 0.00258336 -0.01194
v 2.16684 6.74637 0.268176
vn -0.00755554 -0.583905 -0.811787
v 2.17988 6.75165 0.266094
vn 0.0384998 -0.0391504 -0.998491
v 2.14898 6.74767 0.612294
vn -0.221403 -0.572214 0.789653
v 2.14835 6.74512 0.606914
vn -0.854449 -0.485328 0.1854
v 2.14795 6.74377 0.596575
vn -0.82575 -0.56366 0.0205947
v 2.14901 6.74241 0.586866
vn -0.0603501 -0.998161 0.00576264
v 2.16868 6.74162 0.440571
vn 0.00137795 -0.999995 0.00269736
v 2.18401 6.74246 0.586506
vn 0.0858516 -0.996298 0.00436136
v 2.18527 6.74382 0.596191
vn 0.828952 -0.55929 0.00582917
v 2.18507 6.74517 0.606536
vn 0.859387 -0.483015 0.167779
v 2.18455 6.74772 0.611929
vn 0.32713 -0.559885 0.761259
v 2.17039 6.74731 0.612938
vn 0.00916504 -0.579515 0.81491
v 2.14494 6.74422 0.274664
vn -0.858041 -0.486296 -0.16517
v 2.14667 6.75593 0.594057
vn -0.999921 -0.00258519 0.0122883
v 2.14991 6.89919 0.614671
vn -0.0321815 0.0393249 0.998708
v 2.18626 6.82589 0.604463
vn 0.999586 0.00145854 0.0287482
v 2.18261 6.74554 0.279561
vn 0.982706 -0.176184 -0.0569841
v 2.14524 6.90313 0.268836
vn -0.239138 0.57159 -0.784919
v 2.14471 6.90568 0.274228
vn -0.859386 0.483017 -0.167779
v 2.14452 6.90702 0.284574
vn -0.827565 0.561358 -0.00359277
v 2.14578 6.90839 0.294259
vn -0.0631477 0.997994 -0.00449228
v 2.16845 6.90923 0.440119
vn -0.00137794 0.999995 -0.00269657
v 2.18077 6.90843 0.293899
vn 0.0942875 0.995526 -0.00618116
v 2.18184 6.90707 0.28419
vn 0.8248 0.565105 -0.0190085
v 2.18143 6.90573 0.273851
vn 0.854449 0.485328 -0.1854
v 2.1808 6.90317 0.268471
vn 0.309882 0.56075 -0.76781
v 2.16663 6.90354 0.267752
vn -0.00916429 0.579515 -0.81491
v 2.14332 6.89486 0.287117
vn -0.999966 -0.0001212 0.0082779
v 2.14813 6.90658 0.606479
vn -0.855805 0.483929 0.182788
v 2.1857 6.90535 0.600807
vn 0.983189 0.178852 0.0367604
v 2.18288 6.825 0.275897
vn 0.998784 0.00124695 -0.0492934
v 2.14653 6.7516 0.266437
vn -0.0526041 -0.0394401 -0.997836
v 2.14545 6.74674 0.269258
vn -0.237548 -0.57646 -0.781834
v 2.14489 6.82539 0.440588
vn -0.999946 -0.00135311 0.0102825
v 2.14876 6.90405 0.611873
vn -0.222989 0.575829 0.786573
v 2.18605 6.90041 0.603441
vn 0.9995 0.0108341 0.0297034
v 2.18289 6.75049 0.276921
vn 0.998704 -0.00813111 -0.0502482
f 1//1 2//2 3//3
f 1//1 3//3 4//4
f 1//1 4//4 5//5
f 1//1 5//5 6//6
f 1//1 6//6 2//2
f 7//7 8//8 9//9
f 10//10 11//11 12//12
f 13//13 14//14 15//15
f 16//16 17//17 18//18
f 19//19 20//20 21//21
f 22//22 23//23 24//24
f 22//22 24//24 25//25
f 22//22 25//25 26//26
f 22//22 26//26 27//27
f 22//22 27//27 23//23
f 28//28 29//29 30//30
f 31//31 32//32 33//33
f 34//34 35//35 36//36
f 37//37 38//38 39//39
f 40//40 41//41 42//42
f 13//13 43//43 44//44
f 10//10 45//45 46//46
f 7//7 47//47 48//48
f 19//19 49//49 50//50
f 16//16 51//51 52//52
f 10//10 53//53 45//45
f 13//13 54//54 43//43
f 16//16 55//55 51//51
f 19//19 56//56 49//49
f 7//7 57//57 47//47
f 40//40 58//58 59//59
f 28//28 60//60 61//61
f 31//31 62//62 63//63
f 34//34 64//64 65//65
f 37//37 66//66 67//67
f 40//40 68//68 58//58
f 28//28 69//69 60//60
f 31//31 70//70 62//62
f 34//34 71//71 64//64
f 37//37 72//72 66//66
f 10//10 46//46 11//11
f 7//7 48//48 8//8
f 19//19 50//50 20//20
f 16//16 52//52 17//17
f 13//13 44//44 14//14
f 40//40 42//42 68//68
f 28//28 30//30 69//69
f 31//31 33//33 70//70
f 34//34 36//36 71//71
f 37//37 39//39 72//72
f 28//28 61//61 29//29
f 31//31 63//63 32//32
f 34//34 65//65 35//35
f 37//37 67//67 38//38
f 40//40 59//59 41//41
f 10//10 12//12 53//53
f 13//13 15//15 54//54
f 16//16 18//18 55//55
f 19//19 21//21 56//56
f 7//7 9//9 57//57
f 73//73 74//74 75//75
f 76//76 77//77 78//78
f 79//79 80//80 81//81
f 82//82 83//83 84//84
f 85//85 86//86 87//87
f 88//88 89//89 90//90
f 91//91 92//92 93//93
f 94//94 95//95 96//96
f 97//97 98//98 99//99
f 100//100 101//101 102//102
f 103//103 104//104 105//105
f 106//106 107//107 108//108
f 109//109 110//110 111//111
f 112//112 113//113 114//114
f 115//115 116//116 117//117
f 88//88 118//118 119//119
f 91//91 120//120 121//121
f 94//94 122//122 123//123
f 97//97 124//124 125//125
f 100//100 126//126 127//127
f 128//128 129//129 2//2
f 130//130 131//131 3//3
f 132//132 133//133 4//4
f 134//134 135//135 5//5
f 136//136 137//137 6//6
f 76//76 138//138 8//8
f 73//73 139//139 11//11
f 85//85 140//140 14//14
f 82//82 141//141 17//17
f 79//79 142//142 20//20
f 143//143 144//144 23//23
f 145//145 146//146 24//24
f 147//147 148//148 25//25
f 149//149 150//150 26//26
f 151//151 152//152 27//27
f 103//103 153//153 29//29
f 106//106 154//154 32//32
f 109//109 155//155 35//35
f 112//112 156//156 38//38
f 115//115 157//157 41//41
f 73//73 75//75 43//43
f 76//76 78//78 45//45
f 79//79 81//81 47//47
f 82//82 84//84 49//49
f 85//85 87//87 51//51
f 88//88 90//90 53//53
f 91//91 93//93 54//54
f 94//94 96//96 55//55
f 97//97 99//99 56//56
f 100//100 102//102 57//57
f 103//103 105//105 58//58
f 106//106 108//108 60//60
f 109//109 111//111 62//62
f 112//112 114//114 64//64
f 115//115 117//117 66//66
f 88//88 119//119 68//68
f 91//91 121//121 69//69
f 94//94 123//123 70//70
f 97//97 125//125 71//71
f 100//100 127//127 72//72
f 130//130 74//74 46//46
f 132//132 77//77 48//48
f 134//134 80//80 50//50
f 136//136 83//83 52//52
f 128//128 86//86 44//44
f 158//158 89//89 42//42
f 159//159 92//92 30//30
f 160//160 95//95 33//33
f 161//161 98//98 36//36
f 162//162 101//101 39//39
f 145//145 104//104 61//61
f 147//147 107//107 63//63
f 149//149 110//110 65//65
f 151//151 113//113 67//67
f 143//143 116//116 59//59
f 159//159 118//118 12//12
f 160//160 120//120 15//15
f 161//161 122//122 18//18
f 162//162 124//124 21//21
f 158//158 126//126 9//9
f 130//130 129//129 74//74
f 132//132 131//131 77//77
f 134//134 133//133 80//80
f 136//136 135//135 83//83
f 128//128 137//137 86//86
f 158//158 138//138 89//89
f 159//159 139//139 92//92
f 160//160 140//140 95//95
f 161//161 141//141 98//98
f 162//162 142//142 101//101
f 145//145 144//144 104//104
f 147//147 146//146 107//107
f 149//149 148//148 110//110
f 151//151 150//150 113//113
f 143//143 152//152 116//116
f 159//159 153//153 118//118
f 160//160 154//154 120//120
f 161//161 155//155 122//122
f 162//162 156//156 124//124
f 158//158 157//157 126//126
f 130//130 3//3 129//129
f 132//132 4//4 131//131
f 134//134 5//5 133//133
f 136//136 6//6 135//135
f 128//128 2//2 137//137
f 158//158 9//9 138//138
f 159//159 12//12 139//139
f 160//160 15//15 140//140
f 161//161 18//18 141//141
f 162//162 21//21 142//142
f 145//145 24//24 144//144
f 147//147 25//25 146//146
f 149//149 26//26 148//148
f 151//151 27//27 150//150
f 143//143 23//23 152//152
f 159//159 30//30 153//153
f 160//160 33//33 154//154
f 161//161 36//36 155//155
f 162//162 39//39 156//156
f 158//158 42//42 157//157
f 128//128 44//44 75//75
f 130//130 46//46 78//78
f 132//132 48//48 81//81
f 134//134 50//50 84//84
f 136//136 52//52 87//87
f 76//76 45//45 90//90
f 73//73 43//43 93//93
f 85//85 51//51 96//96
f 82//82 49//49 99//99
f 79//79 47//47 102//102
f 143//143 59//59 105//105
f 145//145 61//61 108//108
f 147//147 63//63 111//111
f 149//149 65//65 114//114
f 151//151 67//67 117//117
f 103//103 58//58 119//119
f 106//106 60//60 121//121
f 109//109 62//62 123//123
f 112//112 64//64 125//125
f 115//115 66//66 127//127
f 73//73 11//11 74//74
f 76//76 8//8 77//77
f 79//79 20//20 80//80
f 82//82 17//17 83//83
f 85//85 14//14 86//86
f 88//88 68//68 89//89
f 91//91 69//69 92//92
f 94//94 70//70 95//95
f 97//97 71//71 98//98
f 100//100 72//72 101//101
f 103//103 29//29 104//104
f 106//106 32//32 107//107
f 109//109 35//35 110//110
f 112//112 38//38 113//113
f 115//115 41//41 116//116
f 88//88 53//53 118//118
f 91//91 54//54 120//120
f 94//94 55//55 122//122
f 97//97 56//56 124//124
f 100//100 57//57 126//126
f 128//128 75//75 129//129
f 130//130 78//78 131//131
f 132//132 81//81 133//133
f 134//134 84//84 135//135
f 136//136 87//87 137//137
f 76//76 90//90 138//138
f 73//73 93//93 139//139
f 85//85 96//96 140//140
f 82//82 99//99 141//141
f 79//79 102//102 142//142
f 143//143 105//105 144//144
f 145//145 108//108 146//146
f 147//147 111//111 148//148
f 149//149 114//114 150//150
f 151//151 117//117 152//152
f 103//103 119//119 153//153
f 106//106 121//121 154//154
f 109//109 123//123 155//155
f 112//112 125//125 156//156
f 115//115 127//127 157//157
f 129//129 3//3 2//2
f 131//131 4//4 3//3
f 133//133 5//5 4//4
f 135//135 6//6 5//5
f 137//137 2//2 6//6
f 138//138 9//9 8//8
f 139//139 12//12 11//11
f 140//140 15//15 14//14
f 141//141 18//18 17//17
f 142//142 21//21 20//20
f 144//144 24//24 23//23
f 146//146 25//25 24//24
f 148//148 26//26 25//25
f 150//150 27//27 26//26
f 152//152 23//23 27//27
f 153//153 30//30 29//29
f 154//154 33//33 32//32
f 155//155 36//36 35//35
f 156//156 39//39 38//38
f 157//157 42//42 41//41
f 75//75 44//44 43//43
f 78//78 46//46 45//45
f 81//81 48//48 47//47
f 84//84 50//50 49//49
f 87//87 52//52 51//51
f 90//90 45//45 53//53
f 93//93 43//43 54//54
f 96//96 51//51 55//55
f 99//99 49//49 56//56
f 102//102 47//47 57//57
f 105//105 59//59 58//58
f 108//108 61//61 60//60
f 111//111 63//63 62//62
f 114//114 65//65 64//64
f 117//117 67//67 66//66
f 119//119 58//58 68//68
f 121//121 60//60 69//69
f 123//123 62//62 70//70
f 125//125 64//64 71//71
f 127//127 66//66 72//72
f 74//74 11//11 46//46
f 77//77 8//8 48//48
f 80//80 20//20 50//50
f 83//83 17//17 52//52
f 86//86 14//14 44//44
f 89//89 68//68 42//42
f 92//92 69//69 30//30
f 95//95 70//70 33//33
f 98//98 71//71 36//36
f 101//101 72//72 39//39
f 104//104 29//29 61//61
f 107//107 32//32 63//63
f 110//110 35//35 65//65
f 113//113 38//38 67//67
f 116//116 41//41 59//59
f 118//118 53//53 12//12
f 120//120 54//54 15//15
f 122//122 55//55 18//18
f 124//124 56//56 21//21
f 126//126 57//57 9//9
f 129//129 75//75 74//74
f 131//131 78//78 77//77
f 133//133 81//81 80//80
f 135//135 84//84 83//83
f 137//137 87//87 86//86
f 138//138 90//90 89//89
f 139//139 93//93 92//92
f 140//140 96//96 95//95
f 141//141 99//99 98//98
f 142//142 102//102 101//101
f 144//144 105//105 104//104
f 146//146 108//108 107//107
f 148//148 111//111 110//110
f 150//150 114//114 113//113
f 152//152 117//117 116//116
f 153//153 119//119 118//118
f 154//154 121//121 120//120
f 155//155 123//123 122//122
f 156//156 125//125 124//124
f 157//157 127//127 126//126
