# Created by Open3D 
# object name: part_027
# number of vertices: 162
# number of triangles: 320
v 3.08507 6.83024 0.642799
vn 0.130814 0.0284739 -0.990998
v 3.09864 6.81155 0.645145
vn 0.293965 -0.0168756 -0.955667
v 3.07989 6.80857 0.64222
vn 0.0928237 -0.0714613 -0.993115
v 3.05975 6.82709 0.640805
vn 0.0219771 0.0158677 -0.999633
v 3.07583 6.84329 0.642681
vn 0.0658715 0.1573 -0.985352
v 3.09477 6.84464 0.645585
vn 0.279918 0.119917 -0.952505
v 2.28392 6.73678 0.629814
vn -0.102103 0.00130162 -0.994773
v 2.29397 6.71689 0.629482
vn -0.0420883 -0.0871954 -0.995302
v 2.27495 6.71547 0.631795
vn -0.251484 -0.080506 -0.964507
v 2.68709 6.76046 0.642004
vn 0.116733 -0.990452 -0.0733357
v 3.06039 6.80395 0.650369
vn 0.117308 -0.99193 -0.0481111
v 2.68701 6.7601 0.649711
vn 0.116128 -0.993087 -0.0170774
v 3.10555 6.80858 0.770565
vn 0.232488 -0.972535 -0.0112211
v 3.11061 6.81037 0.770665
vn 0.951385 -0.307868 0.00913901
v 3.10446 6.8073 0.884035
vn 0.312979 -0.949758 0.00182445
v 3.1012 6.84583 0.77106
vn 0.00198683 0.999885 0.0150212
v 3.09471 6.84705 0.662813
vn -0.0674484 0.997648 0.0122085
v 3.09158 6.84381 0.879062
vn -0.0674961 0.997595 0.0157562
v 2.76527 6.8092 0.643865
vn -0.114994 0.992256 -0.0469413
v 2.32683 6.75772 0.633328
vn -0.113242 0.984896 -0.130982
v 2.30916 6.75599 0.638789
vn -0.116163 0.992997 -0.0215233
v 2.28023 6.73295 0.885293
vn -0.130814 -0.0284738 0.990998
v 2.27133 6.71171 0.882415
vn -0.279222 -0.109271 0.953989
v 2.29027 6.71306 0.885319
vn -0.0708007 -0.116974 0.990608
v 2.3056 6.73567 0.887281
vn -0.0219771 -0.0158677 0.999633
v 2.28621 6.74777 0.885781
vn -0.0973401 0.111961 0.988934
v 2.26746 6.74479 0.882856
vn -0.297103 0.0271075 0.954461
v 2.68357 6.75681 0.885477
vn 0.114994 -0.992256 0.0469449
v 2.31028 6.71326 0.877111
vn 0.114698 -0.993164 0.0216902
v 2.68371 6.75668 0.877763
vn 0.116017 -0.993203 -0.00934859
v 3.08138 6.82641 0.898277
vn 0.102103 -0.00130165 0.994773
v 3.07619 6.80474 0.898056
vn 0.0641108 -0.101234 0.992795
v 3.09501 6.8078 0.895765
vn 0.266228 -0.0456402 0.962829
v 2.76175 6.80555 0.887338
vn -0.116733 0.990452 0.0733367
v 3.03478 6.83698 0.895182
vn -0.116392 0.980357 0.159225
v 3.05237 6.83951 0.889733
vn -0.115497 0.992129 0.0483854
v 2.26054 6.74777 0.757436
vn -0.232488 0.972535 0.0112211
v 2.26691 6.7476 0.865697
vn -0.164424 0.986288 0.0141862
v 2.27004 6.75084 0.649447
vn -0.164369 0.986342 0.0106383
v 2.2649 6.71051 0.75694
vn -0.00198678 -0.999885 -0.0150212
v 2.25956 6.71109 0.756872
vn -0.854791 -0.518581 -0.0201341
v 2.26591 6.7125 0.643479
vn -0.0855771 -0.995946 -0.0277091
v 3.09919 6.80875 0.662303
vn 0.164424 -0.986288 -0.0141862
v 3.10774 6.81071 0.657123
vn 0.3133 -0.949417 -0.0212437
v 2.33131 6.71937 0.632818
vn 0.116442 -0.980535 -0.15809
v 3.04289 6.80238 0.644351
vn 0.117444 -0.980412 -0.158111
v 2.28991 6.75161 0.629944
vn -0.0687643 0.141594 -0.987534
v 2.30934 6.73955 0.628643
vn 0.00693174 0.0141128 -0.999876
v 3.05582 6.84309 0.65089
vn -0.11448 0.993183 -0.0219449
v 3.0384 6.84073 0.644861
vn -0.112165 0.984738 -0.13308
v 3.10654 6.84526 0.771129
vn 0.76599 0.642518 0.0207085
v 3.10347 6.84725 0.657609
vn 0.0859197 0.996291 0.00464159
v 2.31373 6.71684 0.638268
vn 0.115707 -0.992117 -0.0481232
v 3.09606 6.80551 0.878553
vn 0.164369 -0.986342 -0.0106383
v 3.10019 6.84385 0.884522
vn 0.0855772 0.995946 0.0277091
v 2.76616 6.80944 0.651595
vn -0.116017 0.993203 0.00935052
v 2.27108 6.74855 0.632235
vn -0.269402 0.0558333 -0.961408
v 2.27139 6.7093 0.865187
vn 0.0674484 -0.997648 -0.0122085
v 2.26263 6.7091 0.870392
vn -0.0859197 -0.996291 -0.00464159
v 3.03927 6.79863 0.894672
vn 0.113251 -0.984765 0.131952
v 2.32769 6.71562 0.88314
vn 0.112247 -0.984881 0.131947
v 3.07213 6.83946 0.898518
vn 0.0372964 0.127662 0.991116
v 3.05601 6.82321 0.899443
vn -0.00693168 -0.0141128 0.999876
v 2.30571 6.7524 0.877631
vn -0.117167 0.991955 0.0479292
v 2.32321 6.75397 0.88365
vn -0.117408 0.980572 0.157145
v 2.25548 6.74598 0.757336
vn -0.893549 0.448922 -0.00618789
v 2.25836 6.74564 0.870878
vn -0.3133 0.949417 0.0212437
v 2.27452 6.71254 0.648938
vn 0.0674962 -0.997595 -0.0157562
v 3.05694 6.80036 0.889212
vn 0.116299 -0.992977 0.021711
v 3.09115 6.84088 0.896205
vn 0.25222 0.0911901 0.963363
v 2.76286 6.80602 0.879647
vn -0.116128 0.993087 0.0170751
v 2.26164 6.74904 0.643965
vn -0.312979 0.949758 -0.00182446
v 3.08557 6.80696 0.654765
vn 0.132343 -0.991022 -0.0189995
v 3.07924 6.80664 0.646999
vn 0.136296 -0.982304 -0.128465
v 3.09849 6.80913 0.651234
vn 0.177395 -0.979288 -0.0976002
v 2.30721 6.71723 0.630498
vn 0.107348 -0.903834 -0.414198
v 2.33076 6.72118 0.628824
vn 0.0239412 -0.0800142 -0.996506
v 2.68707 6.76146 0.636014
vn 0.111776 -0.899453 -0.422482
v 2.30288 6.7543 0.630991
vn -0.104414 0.914341 -0.391252
v 2.76158 6.80792 0.637787
vn -0.0999061 0.911752 -0.398406
v 2.32669 6.75594 0.629287
vn -0.00436731 0.160953 -0.986952
v 3.08102 6.84585 0.655282
vn -0.0997827 0.994982 0.00742287
v 3.09408 6.8468 0.651736
vn -0.0534638 0.996018 -0.0713441
v 3.07477 6.84491 0.647508
vn -0.0942438 0.990286 -0.102232
v 3.1098 6.83166 0.770972
vn 0.993135 0.11586 0.0160959
v 3.11167 6.8129 0.657083
vn 0.998982 0.0131048 -0.0431652
v 3.1078 6.84602 0.657524
vn 0.971499 0.233661 -0.0399124
v 2.28842 6.71396 0.641845
vn 0.0999493 -0.994801 -0.0195221
v 2.27546 6.71312 0.637896
vn 0.0559201 -0.993456 -0.0995891
v 2.29489 6.71513 0.634286
vn 0.0975952 -0.986822 -0.129062
v 3.08223 6.80349 0.885638
vn 0.132157 -0.991205 -0.00689579
v 3.05755 6.80039 0.878043
vn 0.116872 -0.99307 -0.0124012
v 3.08591 6.80536 0.770232
vn 0.131855 -0.991184 -0.0129546
v 3.09746 6.84281 0.892142
vn 0.463985 0.604071 0.647932
v 3.1012 6.82897 0.892598
vn 0.646289 0.0654189 0.760284
v 3.10451 6.84262 0.884695
vn 0.969838 0.231938 0.074962
v 2.76482 6.80785 0.765627
vn -0.116073 0.993153 0.0132121
v 3.05293 6.83992 0.878568
vn -0.11506 0.99326 0.0140297
v 3.05606 6.84316 0.662073
vn -0.115036 0.993284 0.0124292
v 2.26451 6.74886 0.636328
vn -0.592741 0.497616 -0.633274
v 2.27106 6.75079 0.638397
vn -0.174919 0.98185 -0.0733061
v 2.27765 6.75103 0.632617
vn -0.181255 0.926181 -0.330659
v 2.28508 6.7105 0.872718
vn 0.0997827 -0.994982 -0.00742287
v 2.29133 6.71144 0.880493
vn 0.0942438 -0.990286 0.102232
v 2.27201 6.70955 0.876265
vn 0.0534638 -0.996018 0.0713441
v 3.06322 6.80205 0.897009
vn 0.105202 -0.914786 0.389998
v 3.0394 6.80041 0.898714
vn -0.00179163 -0.109503 0.993985
v 2.68338 6.75763 0.891491
vn 0.0999061 -0.911752 0.398406
v 3.05889 6.83911 0.897502
vn -0.106406 0.904753 0.412431
v 2.75788 6.80409 0.893265
vn -0.111776 0.899453 0.422482
v 3.03534 6.83517 0.899176
vn -0.0278597 0.114636 0.993017
v 2.28053 6.74939 0.873236
vn -0.132343 0.991022 0.0189995
v 2.26761 6.74722 0.876766
vn -0.177395 0.979288 0.0976002
v 2.28685 6.74971 0.881002
vn -0.136296 0.982304 0.128465
v 2.25544 6.73199 0.757125
vn -0.993135 -0.11586 -0.0160959
v 2.2583 6.71032 0.870477
vn -0.974951 -0.218716 0.0404315
v 2.25443 6.74345 0.870917
vn -0.99907 0.00224771 0.0430527
v 2.31317 6.71643 0.649432
vn 0.115275 -0.993235 -0.0140239
v 2.28475 6.7119 0.757248
vn 0.100267 -0.994869 -0.0134666
v 3.09504 6.80556 0.889604
vn 0.174919 -0.98185 0.0733061
v 3.07568 6.80295 0.893205
vn 0.132951 -0.985774 0.102832
v 3.09064 6.84323 0.890105
vn -0.0559201 0.993456 0.0995891
v 3.08418 6.84179 0.895868
vn -0.0361352 0.934006 0.355425
v 2.30855 6.75596 0.649958
vn -0.116731 0.993086 0.0124051
v 2.30542 6.75271 0.866454
vn -0.116754 0.993062 0.0139975
v 2.26406 6.73456 0.635498
vn -0.646289 -0.0654189 -0.760284
v 2.25771 6.74686 0.643746
vn -0.997409 0.00397042 -0.0718243
v 3.10509 6.81112 0.649415
vn 0.646812 -0.343907 -0.680707
v 3.09206 6.80907 0.645262
vn 0.191139 -0.915942 -0.352869
v 3.0669 6.80586 0.64281
vn 0.116827 -0.902758 -0.413981
v 3.04314 6.80428 0.64037
vn 0.0269863 -0.0796617 -0.996457
v 2.6845 6.78377 0.634227
vn 0.0144548 0.0149906 -0.999783
v 3.03908 6.83904 0.640832
vn 0.000803635 0.144363 -0.989524
v 3.06257 6.84293 0.643304
vn -0.0948348 0.916767 -0.388001
v 3.0878 6.84554 0.645747
vn -0.0262733 0.94427 -0.328122
v 3.10096 6.84644 0.649885
vn 0.482248 0.623032 -0.615847
v 3.10472 6.83262 0.649122
vn 0.667962 0.0879001 -0.738986
v 2.28192 6.71456 0.632132
vn 0.0361351 -0.934006 -0.355425
v 3.06068 6.80364 0.661547
vn 0.116895 -0.993046 -0.0139968
v 3.10839 6.80949 0.884254
vn 0.997311 0.0113722 0.0723958
v 3.08135 6.84445 0.770752
vn -0.100267 0.994869 0.0134666
v 2.29041 6.7534 0.634796
vn -0.132951 0.985774 -0.102832
v 2.26514 6.70991 0.878116
vn -0.548006 -0.501511 0.669459
v 2.2783 6.71081 0.882253
vn 0.0262733 -0.94427 0.328122
v 2.30353 6.71342 0.884697
vn 0.095725 -0.915902 0.389822
v 2.32702 6.71731 0.887168
vn -0.00483641 -0.109859 0.993935
v 2.68075 6.77988 0.893871
vn -0.0144548 -0.0149906 0.999783
v 2.32296 6.75206 0.887631
vn -0.0329615 0.1313 0.990795
v 2.2992 6.75049 0.88519
vn -0.116076 0.902275 0.415242
v 2.27404 6.74728 0.882738
vn -0.191139 0.915942 0.352869
v 2.26101 6.74523 0.878586
vn -0.611011 0.478671 0.630507
v 2.26054 6.7309 0.878974
vn -0.667962 -0.0879001 0.738986
v 2.31004 6.71319 0.865928
vn 0.115252 -0.993259 -0.0124281
v 3.08844 6.80532 0.895383
vn 0.181255 -0.926181 0.330658
v 3.07121 6.84121 0.893714
vn -0.0975952 0.986822 0.129062
v 2.28018 6.75099 0.757768
vn -0.131855 0.991184 0.0129546
v 2.26158 6.71373 0.643306
vn -0.97328 -0.216983 -0.0751312
v 2.26864 6.71354 0.635858
vn -0.528214 -0.480977 -0.699751
v 2.68537 6.75831 0.763736
vn 0.116073 -0.993153 -0.0132122
v 3.10158 6.80749 0.891672
vn 0.627019 -0.364429 0.688505
v 3.07768 6.84239 0.886155
vn -0.0999494 0.994801 0.0195221
v 2.28387 6.75285 0.642363
vn -0.132157 0.991205 0.00689579
f 1//1 2//2 3//3
f 1//1 3//3 4//4
f 1//1 4//4 5//5
f 1//1 5//5 6//6
f 1//1 6//6 2//2
f 7//7 8//8 9//9
f 10//10 11//11 12//12
f 13//13 14//14 15//15
f 16//16 17//17 18//18
f 19//19 20//20 21//21
f 22//22 23//23 24//24
f 22//22 24//24 25//25
f 22//22 25//25 26//26
f 22//22 26//26 27//27
f 22//22 27//27 23//23
f 28//28 29//29 30//30
f 31//31 32//32 33//33
f 34//34 35//35 36//36
f 37//37 38//38 39//39
f 40//40 41//41 42//42
f 13//13 43//43 44//44
f 10//10 45//45 46//46
f 7//7 47//47 48//48
f 19//19 49//49 50//50
f 16//16 51//51 52//52
f 10//10 53//53 45//45
f 13//13 54//54 43//43
f 16//16 55//55 51//51
f 19//19 56//56 49//49
f 7//7 57//57 47//47
f 40//40 58//58 59//59
f 28//28 60//60 61//61
f 31//31 62//62 63//63
f 34//34 64//64 65//65
f 37//37 66//66 67//67
f 40//40 68//68 58//58
f 28//28 69//69 60//60
f 31//31 70//70 62//62
f 34//34 71//71 64//64
f 37//37 72//72 66//66
f 10//10 46//46 11//11
f 7//7 48//48 8//8
f 19//19 50//50 20//20
f 16//16 52//52 17//17
f 13//13 44//44 14//14
f 40//40 42//42 68//68
f 28//28 30//30 69//69
f 31//31 33//33 70//70
f 34//34 36//36 71//71
f 37//37 39//39 72//72
f 28//28 61//61 29//29
f 31//31 63//63 32//32
f 34//34 65//65 35//35
f 37//37 67//67 38//38
f 40//40 59//59 41//41
f 10//10 12//12 53//53
f 13//13 15//15 54//54
f 16//16 18//18 55//55
f 19//19 21//21 56//56
f 7//7 9//9 57//57
f 73//73 74//74 75//75
f 76//76 77//77 78//78
f 79//79 80//80 81//81
f 82//82 83//83 84//84
f 85//85 86//86 87//87
f 88//88 89//89 90//90
f 91//91 92//92 93//93
f 94//94 95//95 96//96
f 97//97 98//98 99//99
f 100//100 101//101 102//102
f 103//103 104//104 105//105
f 106//106 107//107 108//108
f 109//109 110//110 111//111
f 112//112 113//113 114//114
f 115//115 116//116 117//117
f 88//88 118//118 119//119
f 91//91 120//120 121//121
f 94//94 122//122 123//123
f 97//97 124//124 125//125
f 100//100 126//126 127//127
f 128//128 129//129 2//2
f 130//130 131//131 3//3
f 132//132 133//133 4//4
f 134//134 135//135 5//5
f 136//136 137//137 6//6
f 76//76 138//138 8//8
f 73//73 139//139 11//11
f 85//85 140//140 14//14
f 82//82 141//141 17//17
f 79//79 142//142 20//20
f 143//143 144//144 23//23
f 145//145 146//146 24//24
f 147//147 148//148 25//25
f 149//149 150//150 26//26
f 151//151 152//152 27//27
f 103//103 153//153 29//29
f 106//106 154//154 32//32
f 109//109 155//155 35//35
f 112//112 156//156 38//38
f 115//115 157//157 41//41
f 73//73 75//75 43//43
f 76//76 78//78 45//45
f 79//79 81//81 47//47
f 82//82 84//84 49//49
f 85//85 87//87 51//51
f 88//88 90//90 53//53
f 91//91 93//93 54//54
f 94//94 96//96 55//55
f 97//97 99//99 56//56
f 100//100 102//102 57//57
f 103//103 105//105 58//58
f 106//106 108//108 60//60
f 109//109 111//111 62//62
f 112//112 114//114 64//64
f 115//115 117//117 66//66
f 88//88 119//119 68//68
f 91//91 121//121 69//69
f 94//94 123//123 70//70
f 97//97 125//125 71//71
f 100//100 127//127 72//72
f 130//130 74//74 46//46
f 132//132 77//77 48//48
f 134//134 80//80 50//50
f 136//136 83//83 52//52
f 128//128 86//86 44//44
f 158//158 89//89 42//42
f 159//159 92//92 30//30
f 160//160 95//95 33//33
f 161//161 98//98 36//36
f 162//162 101//101 39//39
f 145//145 104//104 61//61
f 147//147 107//107 63//63
f 149//149 110//110 65//65
f 151//151 113//113 67//67
f 143//143 116//116 59//59
f 159//159 118//118 12//12
f 160//160 120//120 15//15
f 161//161 122//122 18//18
f 162//162 124//124 21//21
f 158//158 126//126 9//9
f 130//130 129//129 74//74
f 132//132 131//131 77//77
f 134//134 133//133 80//80
f 136//136 135//135 83//83
f 128//128 137//137 86//86
f 158//158 138//138 89//89
f 159//159 139//139 92//92
f 160//160 140//140 95//95
f 161//161 141//141 98//98
f 162//162 142//142 101//101
f 145//145 144//144 104//104
f 147//147 146//146 107//107
f 149//149 148//148 110//110
f 151//151 150//150 113//113
f 143//143 152//152 116//116
f 159//159 153//153 118//118
f 160//160 154//154 120//120
f 161//161 155//155 122//122
f 162//162 156//156 124//124
f 158//158 157//157 126//126
f 130//130 3//3 129//129
f 132//132 4//4 131//131
f 134//134 5//5 133//133
f 136//136 6//6 135//135
f 128//128 2//2 137//137
f 158//158 9//9 138//138
f 159//159 12//12 139//139
f 160//160 15//15 140//140
f 161//161 18//18 141//141
f 162//162 21//21 142//142
f 145//145 24//24 144//144
f 147//147 25//25 146//146
f 149//149 26//26 148//148
f 151//151 27//27 150//150
f 143//143 23//23 152//152
f 159//159 30//30 153//153
f 160//160 33//33 154//154
f 161//161 36//36 155//155
f 162//162 39//39 156//156
f 158//158 42//42 157//157
f 128//128 44//44 75//75
f 130//130 46//46 78//78
f 132//132 48//48 81//81
f 134//134 50//50 84//84
f 136//136 52//52 87//87
f 76//76 45//45 90//90
f 73//73 43//43 93//93
f 85//85 51//51 96//96
f 82//82 49//49 99//99
f 79//79 47//47 102//102
f 143//143 59//59 105//105
f 145//145 61//61 108//108
f 147//147 63//63 111//111
f 149//149 65//65 114//114
f 151//151 67//67 117//117
f 103//103 58//58 119//119
f 106//106 60//60 121//121
f 109//109 62//62 123//123
f 112//112 64//64 125//125
f 115//115 66//66 127//127
f 73//73 11//11 74//74
f 76//76 8//8 77//77
f 79//79 20//20 80//80
f 82//82 17//17 83//83
f 85//85 14//14 86//86
f 88//88 68//68 89//89
f 91//91 69//69 92//92
f 94//94 70//70 95//95
f 97//97 71//71 98//98
f 100//100 72//72 101//101
f 103//103 29//29 104//104
f 106//106 32//32 107//107
f 109//109 35//35 110//110
f 112//112 38//38 113//113
f 115//115 41//41 116//116
f 88//88 53//53 118//118
f 91//91 54//54 120//120
f 94//94 55//55 122//122
f 97//97 56//56 124//124
f 100//100 57//57 126//126
f 128//128 75//75 129//129
f 130//130 78//78 131//131
f 132//132 81//81 133//133
f 134//134 84//84 135//135
f 136//136 87//87 137//137
f 76//76 90//90 138//138
f 73//73 93//93 139//139
f 85//85 96//96 140//140
f 82//82 99//99 141//141
f 79//79 102//102 142//142
f 143//143 105//105 144//144
f 145//145 108//108 146//146
f 147//147 111//111 148//148
f 149//149 114//114 150//150
f 151//151 117//117 152//152
f 103//103 119//119 153//153
f 106//106 121//121 154//154
f 109//109 123//123 155//155
f 112//112 125//125 156//156
f 115//115 127//127 157//157
f 129//129 3//3 2//2
f 131//131 4//4 3//3
f 133//133 5//5 4//4
f 135//135 6//6 5//5
f 137//137 2//2 6//6
f 138//138 9//9 8//8
f 139//139 12//12 11//11
f 140//140 15//15 14//14
f 141//141 18//18 17//17
f 142//142 21//21 20//20
f 144//144 24//24 23//23
f 146//146 25//25 24//24
f 148//148 26//26 25//25
f 150//150 27//27 26//26
f 152//152 23//23 27//27
f 153//153 30//30 29//29
f 154//154 33//33 32//32
f 155//155 36//36 35//35
f 156//156 39//39 38//38
f 157//157 42//42 41//41
f 75//75 44//44 43//43
f 78//78 46//46 45//45
f 81//81 48//48 47//47
f 84//84 50//50 49//49
f 87//87 52//52 51//51
f 90//90 45//45 53//53
f 93//93 43//43 54//54
f 96//96 51//51 55//55
f 99//99 49//49 56//56
f 102//102 47//47 57//57
f 105//105 59//59 58//58
f 108//108 61//61 60//60
f 111//111 63//63 62//62
f 114//114 65//65 64//64
f 117//117 67//67 66//66
f 119//119 58//58 68//68
f 121//121 60//60 69//69
f 123//123 62//62 70//70
f 125//125 64//64 71//71
f 127//127 66//66 72//72
f 74//74 11//11 46//46
f 77//77 8//8 48//48
f 80//80 20//20 50//50
f 83//83 17//17 52//52
f 86//86 14//14 44//44
f 89//89 68//68 42//42
f 92//92 69//69 30//30
f 95//95 70//70 33//33
f 98//98 71//71 36//36
f 101//101 72//72 39//39
f 104//104 29//29 61//61
f 107//107 32//32 63//63
f 110//110 35//35 65//65
f 113//113 38//38 67//67
f 116//116 41//41 59//59
f 118//118 53//53 12//12
f 120//120 54//54 15//15
f 122//122 55//55 18//18
f 124//124 56//56 21//21
f 126//126 57//57 9//9
f 129//129 75//75 74//74
f 131//131 78//78 77//77
f 133//133 81//81 80//80
f 135//135 84//84 83//83
f 137//137 87//87 86//86
f 138//138 90//90 89//89
f 139//139 93//93 92//92
f 140//140 96//96 95//95
f 141//141 99//99 98//98
f 142//142 102//102 101//101
f 144//144 105//105 104//104
f 146//146 108//108 107//107
f 148//148 111//111 110//110
f 150//150 114//114 113//113
f 152//152 117//117 116//116
f 153//153 119//119 118//118
f 154//154 121//121 120//120
f 155//155 123//123 122//122
f 156//156 125//125 124//124
f 157//157 127//127 126//126
