# Created by Open3D 
# object name: part_014
# number of vertices: 162
# number of triangles: 320
v 0.768335 4.62333 0.641259
vn 0.821387 -0.566746 0.0642006
v 0.756767 4.60831 0.651357
vn 0.808672 -0.570193 0.144667
v 0.756109 4.60575 0.638965
vn 0.803163 -0.594067 0.0448666
v 0.76746 4.62096 0.624488
vn 0.81909 -0.573531 0.0123999
v 0.776032 4.63411 0.63437
vn 0.84442 -0.534515 0.0353328
v 0.775754 4.63533 0.646979
vn 0.834025 -0.533697 0.139894
v 0.731794 4.56302 0.110659
vn 0.813759 -0.579335 -0.0465564
v 0.720262 4.54659 0.118454
vn 0.798745 -0.601359 -0.0193197
v 0.719197 4.5463 0.105831
vn 0.790331 -0.600466 -0.121722
v 0.735339 4.5755 0.378982
vn -0.405633 -0.904635 0.130757
v 0.751756 4.604 0.626234
vn -0.475884 -0.869423 0.132811
v 0.733215 4.57669 0.378992
vn -0.559816 -0.818109 0.13154
v 0.723689 4.62987 0.656904
vn -0.548957 -0.778527 0.304206
v 0.724603 4.63122 0.660191
vn -0.100245 -0.127823 0.986718
v 0.694701 4.65068 0.656932
vn -0.553326 -0.720692 0.417652
v 0.745066 4.66029 0.651974
vn 0.573038 0.81827 0.0454088
v 0.772846 4.6406 0.646911
vn 0.578009 0.813949 -0.0582439
v 0.717158 4.67963 0.64631
vn 0.568782 0.820417 -0.0583402
v 0.761545 4.61365 0.428611
vn 0.713806 0.688652 -0.127432
v 0.742212 4.57972 0.138231
vn 0.861227 0.494759 -0.116196
v 0.740162 4.57976 0.126543
vn 0.656349 0.743056 -0.130666
v 0.666003 4.60913 0.109948
vn -0.821387 0.566747 -0.064197
v 0.654657 4.59154 0.105134
vn -0.832175 0.536748 -0.139232
v 0.654379 4.59277 0.117743
vn -0.837363 0.545395 -0.0369836
v 0.666629 4.61115 0.126777
vn -0.81909 0.57353 -0.0124002
v 0.674302 4.62112 0.113148
vn -0.795343 0.604362 -0.0466499
v 0.673644 4.61856 0.100755
vn -0.806603 0.572729 -0.146198
v 0.67264 4.61945 0.378305
vn -0.713799 -0.68866 0.127432
v 0.656193 4.5909 0.131059
vn -0.656936 -0.742921 0.128464
v 0.674487 4.61786 0.378358
vn -0.579954 -0.803995 0.131324
v 0.702544 4.66944 0.640549
vn -0.813759 0.579335 0.04656
v 0.690226 4.65193 0.638253
vn -0.832943 0.55269 0.0272064
v 0.692227 4.65355 0.650661
vn -0.813827 0.567027 0.127146
v 0.698846 4.6576 0.427934
vn 0.405632 0.904636 -0.130757
v 0.710204 4.67847 0.608807
vn 0.167565 0.978287 -0.121965
v 0.712712 4.67908 0.62039
vn 0.475378 0.87011 -0.130093
v 0.706723 4.59701 0.095209
vn 0.548957 0.778527 -0.304207
v 0.679543 4.61755 0.100133
vn 0.558758 0.803871 -0.203912
v 0.735232 4.57852 0.100734
vn 0.567985 0.797405 -0.203811
v 0.685345 4.56658 0.100139
vn -0.573038 -0.81827 -0.0454088
v 0.685785 4.56715 0.09654
vn -0.230895 -0.343448 -0.910347
v 0.714739 4.54635 0.100017
vn -0.53504 -0.828236 -0.166606
v 0.750868 4.60932 0.65198
vn -0.558758 -0.803871 0.203912
v 0.753136 4.60972 0.657563
vn -0.494748 -0.761745 0.418293
v 0.720207 4.5484 0.143306
vn -0.17061 -0.977735 0.122176
v 0.752662 4.60197 0.614578
vn -0.170579 -0.977566 0.123562
v 0.740186 4.57494 0.11386
vn 0.839982 -0.541839 -0.0289959
v 0.733233 4.56447 0.127496
vn 0.818604 -0.574334 0.00528207
v 0.774219 4.63597 0.621054
vn 0.657581 0.742408 -0.128126
v 0.774667 4.63329 0.609503
vn 0.864171 0.490012 -0.114441
v 0.744626 4.65972 0.655573
vn 0.290515 0.427673 0.855977
v 0.774107 4.63957 0.652726
vn 0.593612 0.787183 0.167234
v 0.7177 4.54779 0.131723
vn -0.476079 -0.869678 0.130417
v 0.695179 4.64835 0.651379
vn -0.567985 -0.797405 0.203811
v 0.715672 4.68052 0.652095
vn 0.53504 0.828236 0.166606
v 0.759745 4.61532 0.429236
vn 0.579949 0.803999 -0.131324
v 0.738184 4.57333 0.101452
vn 0.815525 -0.564231 -0.128694
v 0.657565 4.58627 0.105202
vn -0.578009 -0.813949 0.0582439
v 0.656304 4.58731 0.0993866
vn -0.593612 -0.787183 -0.167234
v 0.6882 4.64715 0.613882
vn -0.862525 -0.492519 0.116084
v 0.655744 4.59359 0.14261
vn -0.862617 -0.492682 0.114702
v 0.710149 4.68028 0.633658
vn -0.790905 0.611684 0.0176812
v 0.700856 4.66764 0.623769
vn -0.818604 0.574334 -0.00528286
v 0.678655 4.62287 0.125879
vn 0.476403 0.86917 -0.132607
v 0.677749 4.6249 0.137535
vn 0.173104 0.977113 -0.123631
v 0.705808 4.59565 0.0919221
vn 0.165376 0.221143 -0.961117
v 0.677275 4.61715 0.0945501
vn 0.494747 0.761745 -0.418293
v 0.713253 4.54724 0.105803
vn -0.568782 -0.820417 0.0583401
v 0.690249 4.64711 0.62557
vn -0.65676 -0.742659 0.13086
v 0.711214 4.68057 0.646282
vn -0.788108 0.60325 0.122373
v 0.701017 4.65648 0.428601
vn 0.559821 0.818106 -0.13154
v 0.73571 4.57619 0.0951811
vn 0.553326 0.720692 -0.417652
v 0.751953 4.60672 0.642927
vn -0.552215 -0.818995 0.155903
v 0.753814 4.60511 0.63867
vn -0.248053 -0.956468 0.153748
v 0.753859 4.60752 0.651425
vn -0.326434 -0.920006 0.216866
v 0.719976 4.54677 0.127292
vn 0.333662 -0.939362 0.079178
v 0.722251 4.54911 0.142811
vn 0.801261 -0.598193 0.0120737
v 0.737412 4.57517 0.378877
vn 0.344985 -0.934974 0.0825111
v 0.741246 4.57704 0.122386
vn 0.997328 0.0033377 -0.0729816
v 0.762387 4.61153 0.426175
vn 0.997666 -0.00613885 -0.0680099
v 0.742197 4.5775 0.138211
vn 0.844565 -0.535449 0.001935
v 0.774272 4.63849 0.637779
vn 0.587096 0.802434 -0.106853
v 0.775476 4.63828 0.646439
vn 0.768725 0.638582 -0.035706
v 0.775775 4.63637 0.633605
vn 0.820425 0.564194 -0.0926674
v 0.736784 4.64857 0.658494
vn 0.0682683 0.112671 0.991284
v 0.754339 4.6114 0.660069
vn 0.128157 -0.0137951 0.991658
v 0.773347 4.63846 0.655685
vn 0.21149 0.105837 0.971633
v 0.715594 4.54671 0.114976
vn -0.555565 -0.824535 0.107191
v 0.71632 4.54556 0.106337
vn -0.338617 -0.940059 0.0403551
v 0.718039 4.54607 0.119192
vn -0.251789 -0.962725 0.0988078
v 0.692498 4.64839 0.642285
vn -0.583733 -0.796907 0.155549
v 0.693035 4.64497 0.625908
vn -0.571926 -0.809511 0.132637
v 0.722261 4.62763 0.643946
vn -0.568132 -0.808178 0.155159
v 0.713224 4.68121 0.65037
vn -0.569085 0.757201 0.320608
v 0.705087 4.66998 0.653624
vn -0.729128 0.572973 0.374265
v 0.714846 4.67946 0.655053
vn 0.0132845 0.244758 0.969493
v 0.73044 4.63599 0.429124
vn 0.569932 0.811111 -0.131442
v 0.715719 4.67725 0.620677
vn 0.567948 0.812745 -0.129922
v 0.771471 4.63817 0.621279
vn 0.572121 0.809821 -0.129877
v 0.737458 4.57451 0.0970679
vn 0.851432 -0.355364 -0.38572
v 0.737937 4.57633 0.101351
vn 0.756577 0.618508 -0.212225
v 0.7394 4.57526 0.105712
vn 0.983484 0.085003 -0.159792
v 0.656139 4.58839 0.114334
vn -0.587096 -0.802434 0.106852
v 0.654636 4.59051 0.118508
vn -0.820424 -0.564196 0.0926675
v 0.654935 4.58859 0.105674
vn -0.768725 -0.638582 0.035706
v 0.689165 4.64983 0.629726
vn -0.997256 -0.00501079 0.0738615
v 0.688214 4.64937 0.613902
vn -0.835596 0.549328 -0.00415531
v 0.671621 4.62128 0.378166
vn -0.997666 0.00613916 0.0680098
v 0.710435 4.68011 0.624821
vn -0.331215 0.940288 -0.0784573
v 0.696596 4.65764 0.425464
vn -0.344983 0.934975 -0.0825114
v 0.70816 4.67776 0.609302
vn -0.794592 0.606994 -0.0135004
v 0.678458 4.62015 0.109186
vn 0.552216 0.818995 -0.155902
v 0.676552 4.61935 0.100688
vn 0.32643 0.920007 -0.216867
v 0.676597 4.62176 0.113443
vn 0.248051 0.956469 -0.153748
v 0.697815 4.58426 0.0926526
vn -0.0682683 -0.112671 -0.991284
v 0.657064 4.58841 0.0964279
vn -0.206233 -0.0973176 -0.973651
v 0.676073 4.61547 0.0920439
vn -0.121823 0.0217817 -0.992313
v 0.714693 4.54962 0.131436
vn -0.567932 -0.812705 0.130246
v 0.685719 4.56732 0.11334
vn -0.571403 -0.813579 0.107641
v 0.692474 4.65054 0.650762
vn -0.756578 -0.618507 0.212225
v 0.690411 4.64955 0.637986
vn -0.816656 -0.557928 0.147615
v 0.714091 4.68131 0.645776
vn 0.338616 0.940059 -0.0403553
v 0.711941 4.68139 0.641574
vn -0.242001 0.970211 -0.0112175
v 0.737376 4.5819 0.126205
vn 0.571936 0.809538 -0.132426
v 0.681624 4.62098 0.125603
vn 0.567785 0.812448 -0.132471
v 0.729444 4.56275 0.0975388
vn 0.729128 -0.572974 -0.374264
v 0.734574 4.57446 0.0926756
vn 0.0763873 -0.117143 -0.990173
v 0.755339 4.60863 0.655718
vn 0.669729 -0.625015 0.401024
v 0.755422 4.60646 0.647096
vn 0.253227 -0.951789 0.173131
v 0.754626 4.60395 0.630433
vn 0.334291 -0.93833 0.088242
v 0.754743 4.60274 0.61462
vn 0.801361 -0.598028 0.01352
v 0.750731 4.59298 0.375935
vn 0.818853 -0.573936 0.00884078
v 0.774689 4.63113 0.61002
vn 0.841722 -0.539895 0.00416593
v 0.775897 4.63422 0.625528
vn 0.997906 0.00863999 -0.0641003
v 0.776352 4.63625 0.642269
vn 0.994636 0.103415 0.0021465
v 0.77561 4.63748 0.651043
vn 0.901162 -0.273279 0.33649
v 0.767787 4.62604 0.654301
vn 0.781795 -0.486032 0.3906
v 0.718471 4.54548 0.110539
vn 0.242 -0.970212 0.0112179
v 0.748788 4.60589 0.62651
vn -0.567766 -0.812427 0.132682
v 0.695837 4.65241 0.659437
vn -0.071031 0.125816 0.989507
v 0.744692 4.65955 0.638773
vn 0.571404 0.813579 -0.107641
v 0.74 4.57732 0.114127
vn 0.816656 0.557928 -0.147615
v 0.654801 4.58939 0.101069
vn -0.872597 0.3363 -0.354228
v 0.654059 4.59062 0.109844
vn -0.994636 -0.103415 -0.00214653
v 0.654514 4.59265 0.126585
vn -0.99788 -0.00602308 0.0647951
v 0.655722 4.59574 0.142093
vn -0.835695 0.549165 -0.00560135
v 0.683867 4.63985 0.375213
vn -0.818853 0.573936 -0.00884101
v 0.675668 4.62413 0.137493
vn -0.791353 0.611157 -0.0157264
v 0.675785 4.62292 0.12168
vn -0.335899 0.937836 -0.0873807
v 0.674989 4.62041 0.105017
vn -0.253227 0.951789 -0.173131
v 0.675072 4.61824 0.0963944
vn -0.618806 0.675118 -0.401617
v 0.666744 4.6067 0.0968618
vn -0.781796 0.486033 -0.390599
v 0.658941 4.5887 0.130834
vn -0.572093 -0.809788 0.130201
v 0.691011 4.65161 0.646401
vn -0.983484 -0.085003 0.159792
v 0.712372 4.6808 0.632921
vn 0.251791 0.962724 -0.0988081
v 0.70815 4.59924 0.108166
vn 0.568132 0.808178 -0.155159
v 0.715565 4.54741 0.0970596
vn -0.00704182 -0.23693 -0.971501
v 0.717187 4.54567 0.101743
vn 0.618832 -0.709032 -0.338114
v 0.703807 4.59721 0.378685
vn -0.569932 -0.811111 0.131442
v 0.692953 4.65236 0.655045
vn -0.8217 0.420313 0.384897
v 0.714817 4.68016 0.637137
vn 0.555565 0.824535 -0.107192
v 0.737913 4.57848 0.109828
vn 0.583733 0.796907 -0.155549
f 1//1 2//2 3//3
f 1//1 3//3 4//4
f 1//1 4//4 5//5
f 1//1 5//5 6//6
f 1//1 6//6 2//2
f 7//7 8//8 9//9
f 10//10 11//11 12//12
f 13//13 14//14 15//15
f 16//16 17//17 18//18
f 19//19 20//20 21//21
f 22//22 23//23 24//24
f 22//22 24//24 25//25
f 22//22 25//25 26//26
f 22//22 26//26 27//27
f 22//22 27//27 23//23
f 28//28 29//29 30//30
f 31//31 32//32 33//33
f 34//34 35//35 36//36
f 37//37 38//38 39//39
f 40//40 41//41 42//42
f 13//13 43//43 44//44
f 10//10 45//45 46//46
f 7//7 47//47 48//48
f 19//19 49//49 50//50
f 16//16 51//51 52//52
f 10//10 53//53 45//45
f 13//13 54//54 43//43
f 16//16 55//55 51//51
f 19//19 56//56 49//49
f 7//7 57//57 47//47
f 40//40 58//58 59//59
f 28//28 60//60 61//61
f 31//31 62//62 63//63
f 34//34 64//64 65//65
f 37//37 66//66 67//67
f 40//40 68//68 58//58
f 28//28 69//69 60//60
f 31//31 70//70 62//62
f 34//34 71//71 64//64
f 37//37 72//72 66//66
f 10//10 46//46 11//11
f 7//7 48//48 8//8
f 19//19 50//50 20//20
f 16//16 52//52 17//17
f 13//13 44//44 14//14
f 40//40 42//42 68//68
f 28//28 30//30 69//69
f 31//31 33//33 70//70
f 34//34 36//36 71//71
f 37//37 39//39 72//72
f 28//28 61//61 29//29
f 31//31 63//63 32//32
f 34//34 65//65 35//35
f 37//37 67//67 38//38
f 40//40 59//59 41//41
f 10//10 12//12 53//53
f 13//13 15//15 54//54
f 16//16 18//18 55//55
f 19//19 21//21 56//56
f 7//7 9//9 57//57
f 73//73 74//74 75//75
f 76//76 77//77 78//78
f 79//79 80//80 81//81
f 82//82 83//83 84//84
f 85//85 86//86 87//87
f 88//88 89//89 90//90
f 91//91 92//92 93//93
f 94//94 95//95 96//96
f 97//97 98//98 99//99
f 100//100 101//101 102//102
f 103//103 104//104 105//105
f 106//106 107//107 108//108
f 109//109 110//110 111//111
f 112//112 113//113 114//114
f 115//115 116//116 117//117
f 88//88 118//118 119//119
f 91//91 120//120 121//121
f 94//94 122//122 123//123
f 97//97 124//124 125//125
f 100//100 126//126 127//127
f 128//128 129//129 2//2
f 130//130 131//131 3//3
f 132//132 133//133 4//4
f 134//134 135//135 5//5
f 136//136 137//137 6//6
f 76//76 138//138 8//8
f 73//73 139//139 11//11
f 85//85 140//140 14//14
f 82//82 141//141 17//17
f 79//79 142//142 20//20
f 143//143 144//144 23//23
f 145//145 146//146 24//24
f 147//147 148//148 25//25
f 149//149 150//150 26//26
f 151//151 152//152 27//27
f 103//103 153//153 29//29
f 106//106 154//154 32//32
f 109//109 155//155 35//35
f 112//112 156//156 38//38
f 115//115 157//157 41//41
f 73//73 75//75 43//43
f 76//76 78//78 45//45
f 79//79 81//81 47//47
f 82//82 84//84 49//49
f 85//85 87//87 51//51
f 88//88 90//90 53//53
f 91//91 93//93 54//54
f 94//94 96//96 55//55
f 97//97 99//99 56//56
f 100//100 102//102 57//57
f 103//103 105//105 58//58
f 106//106 108//108 60//60
f 109//109 111//111 62//62
f 112//112 114//114 64//64
f 115//115 117//117 66//66
f 88//88 119//119 68//68
f 91//91 121//121 69//69
f 94//94 123//123 70//70
f 97//97 125//125 71//71
f 100//100 127//127 72//72
f 130//130 74//74 46//46
f 132//132 77//77 48//48
f 134//134 80//80 50//50
f 136//136 83//83 52//52
f 128//128 86//86 44//44
f 158//158 89//89 42//42
f 159//159 92//92 30//30
f 160//160 95//95 33//33
f 161//161 98//98 36//36
f 162//162 101//101 39//39
f 145//145 104//104 61//61
f 147//147 107//107 63//63
f 149//149 110//110 65//65
f 151//151 113//113 67//67
f 143//143 116//116 59//59
f 159//159 118//118 12//12
f 160//160 120//120 15//15
f 161//161 122//122 18//18
f 162//162 124//124 21//21
f 158//158 126//126 9//9
f 130//130 129//129 74//74
f 132//132 131//131 77//77
f 134//134 133//133 80//80
f 136//136 135//135 83//83
f 128//128 137//137 86//86
f 158//158 138//138 89//89
f 159//159 139//139 92//92
f 160//160 140//140 95//95
f 161//161 141//141 98//98
f 162//162 142//142 101//101
f 145//145 144//144 104//104
f 147//147 146//146 107//107
f 149//149 148//148 110//110
f 151//151 150//150 113//113
f 143//143 152//152 116//116
f 159//159 153//153 118//118
f 160//160 154//154 120//120
f 161//161 155//155 122//122
f 162//162 156//156 124//124
f 158//158 157//157 126//126
f 130//130 3//3 129//129
f 132//132 4//4 131//131
f 134//134 5//5 133//133
f 136//136 6//6 135//135
f 128//128 2//2 137//137
f 158//158 9//9 138//138
f 159//159 12//12 139//139
f 160//160 15//15 140//140
f 161//161 18//18 141//141
f 162//162 21//21 142//142
f 145//145 24//24 144//144
f 147//147 25//25 146//146
f 149//149 26//26 148//148
f 151//151 27//27 150//150
f 143//143 23//23 152//152
f 159//159 30//30 153//153
f 160//160 33//33 154//154
f 161//161 36//36 155//155
f 162//162 39//39 156//156
f 158//158 42//42 157//157
f 128//128 44//44 75//75
f 130//130 46//46 78//78
f 132//132 48//48 81//81
f 134//134 50//50 84//84
f 136//136 52//52 87//87
f 76//76 45//45 90//90
f 73//73 43//43 93//93
f 85//85 51//51 96//96
f 82//82 49//49 99//99
f 79//79 47//47 102//102
f 143//143 59//59 105//105
f 145//145 61//61 108//108
f 147//147 63//63 111//111
f 149//149 65//65 114//114
f 151//151 67//67 117//117
f 103//103 58//58 119//119
f 106//106 60//60 121//121
f 109//109 62//62 123//123
f 112//112 64//64 125//125
f 115//115 66//66 127//127
f 73//73 11//11 74//74
f 76//76 8//8 77//77
f 79//79 20//20 80//80
f 82//82 17//17 83//83
f 85//85 14//14 86//86
f 88//88 68//68 89//89
f 91//91 69//69 92//92
f 94//94 70//70 95//95
f 97//97 71//71 98//98
f 100//100 72//72 101//101
f 103//103 29//29 104//104
f 106//106 32//32 107//107
f 109//109 35//35 110//110
f 112//112 38//38 113//113
f 115//115 41//41 116//116
f 88//88 53//53 118//118
f 91//91 54//54 120//120
f 94//94 55//55 122//122
f 97//97 56//56 124//124
f 100//100 57//57 126//126
f 128//128 75//75 129//129
f 130//130 78//78 131//131
f 132//132 81//81 133//133
f 134//134 84//84 135//135
f 136//136 87//87 137//137
f 76//76 90//90 138//138
f 73//73 93//93 139//139
f 85//85 96//96 140//140
f 82//82 99//99 141//141
f 79//79 102//102 142//142
f 143//143 105//105 144//144
f 145//145 108//108 146//146
f 147//147 111//111 148//148
f 149//149 114//114 150//150
f 151//151 117//117 152//152
f 103//103 119//119 153//153
f 106//106 121//121 154//154
f 109//109 123//123 155//155
f 112//112 125//125 156//156
f 115//115 127//127 157//157
f 129//129 3//3 2//2
f 131//131 4//4 3//3
f 133//133 5//5 4//4
f 135//135 6//6 5//5
f 137//137 2//2 6//6
f 138//138 9//9 8//8
f 139//139 12//12 11//11
f 140//140 15//15 14//14
f 141//141 18//18 17//17
f 142//142 21//21 20//20
f 144//144 24//24 23//23
f 146//146 25//25 24//24
f 148//148 26//26 25//25
f 150//150 27//27 26//26
f 152//152 23//23 27//27
f 153//153 30//30 29//29
f 154//154 33//33 32//32
f 155//155 36//36 35//35
f 156//156 39//39 38//38
f 157//157 42//42 41//41
f 75//75 44//44 43//43
f 78//78 46//46 45//45
f 81//81 48//48 47//47
f 84//84 50//50 49//49
f 87//87 52//52 51//51
f 90//90 45//45 53//53
f 93//93 43//43 54//54
f 96//96 51//51 55//55
f 99//99 49//49 56//56
f 102//102 47//47 57//57
f 105//105 59//59 58//58
f 108//108 61//61 60//60
f 111//111 63//63 62//62
f 114//114 65//65 64//64
f 117//117 67//67 66//66
f 119//119 58//58 68//68
f 121//121 60//60 69//69
f 123//123 62//62 70//70
f 125//125 64//64 71//71
f 127//127 66//66 72//72
f 74//74 11//11 46//46
f 77//77 8//8 48//48
f 80//80 20//20 50//50
f 83//83 17//17 52//52
f 86//86 14//14 44//44
f 89//89 68//68 42//42
f 92//92 69//69 30//30
f 95//95 70//70 33//33
f 98//98 71//71 36//36
f 101//101 72//72 39//39
f 104//104 29//29 61//61
f 107//107 32//32 63//63
f 110//110 35//35 65//65
f 113//113 38//38 67//67
f 116//116 41//41 59//59
f 118//118 53//53 12//12
f 120//120 54//54 15//15
f 122//122 55//55 18//18
f 124//124 56//56 21//21
f 126//126 57//57 9//9
f 129//129 75//75 74//74
f 131//131 78//78 77//77
f 133//133 81//81 80//80
f 135//135 84//84 83//83
f 137//137 87//87 86//86
f 138//138 90//90 89//89
f 139//139 93//93 92//92
f 140//140 96//96 95//95
f 141//141 99//99 98//98
f 142//142 102//102 101//101
f 144//144 105//105 104//104
f 146//146 108//108 107//107
f 148//148 111//111 110//110
f 150//150 114//114 113//113
f 152//152 117//117 116//116
f 153//153 119//119 118//118
f 154//154 121//121 120//120
f 155//155 123//123 122//122
f 156//156 125//125 124//124
f 157//157 127//127 126//126
