# Created by Open3D 
# object name: part_000
# number of vertices: 162
# number of triangles: 320
v -1.85542 4.39969 0.698224
vn -0.603979 0.791163 0.0962872
v -1.87608 4.38048 0.717455
vn -0.643643 0.751173 0.146505
v -1.83945 4.40856 0.719452
vn -0.586421 0.79166 0.171418
v -1.80537 4.43626 0.699878
vn -0.574904 0.812435 0.0971307
v -1.8408 4.41177 0.684668
vn -0.591757 0.806038 -0.0112634
v -1.87736 4.38353 0.684306
vn -0.648267 0.760649 0.034105
v -0.252714 5.52289 0.739754
vn -0.540938 0.835342 0.0979286
v -0.267229 5.5104 0.760192
vn -0.549995 0.817187 0.172369
v -0.228296 5.53527 0.760153
vn -0.491595 0.857729 0.150447
v -1.05045 4.9553 0.741536
vn -0.00508049 -0.0297085 0.999546
v -1.79625 4.4304 0.722033
vn 0.0129342 -0.0559483 0.99835
v -1.04694 4.9503 0.741185
vn 0.0356978 -0.0877459 0.995503
v -1.83612 4.28762 0.709458
vn -0.00161108 -0.119684 0.992811
v -1.84657 4.28044 0.708006
vn -0.519314 -0.452143 0.725176
v -1.78584 4.2137 0.70034
vn -0.0220727 -0.151745 0.988173
v -1.83756 4.29106 0.672135
vn -0.0785092 0.0635351 -0.994887
v -1.87065 4.37201 0.680346
vn -0.0562516 0.0819782 -0.995045
v -1.77254 4.23263 0.663703
vn -0.0536803 0.0783261 -0.995482
v -1.2175 4.8429 0.698083
vn -0.0818467 0.1532 -0.9848
v -0.341756 5.45988 0.721452
vn -0.141321 0.237519 -0.961048
v -0.304071 5.48082 0.72152
vn -0.0633568 0.127481 -0.989815
v -0.136804 5.35822 0.720091
vn 0.603979 -0.791162 -0.0962879
v -0.11459 5.37374 0.740865
vn 0.647655 -0.760731 -0.042805
v -0.151156 5.34551 0.740502
vn 0.592226 -0.805488 -0.021389
v -0.186836 5.32161 0.718871
vn 0.574904 -0.812435 -0.0971307
v -0.152502 5.34871 0.705718
vn 0.583448 -0.786243 -0.203497
v -0.115873 5.3768 0.707715
vn 0.643589 -0.749498 -0.155068
v -0.939988 4.79837 0.722797
vn 0.0818439 -0.153196 0.984801
v -0.194191 5.32326 0.742356
vn 0.0639776 -0.127309 0.989798
v -0.943477 4.80332 0.723633
vn 0.0412907 -0.0956913 0.994554
v -1.73951 4.23502 0.678561
vn 0.540938 -0.835342 -0.0979293
v -1.72338 4.24366 0.699762
vn 0.555799 -0.831017 -0.0223374
v -1.76238 4.21894 0.698166
vn 0.495605 -0.867289 -0.0467463
v -1.10704 4.68597 0.679345
vn 0.0050784 0.0297115 -0.999546
v -1.65168 4.30093 0.6653
vn 0.0670834 -0.0592894 -0.995984
v -1.6894 4.28007 0.664432
vn -0.013358 0.0552434 -0.998384
v -0.155834 5.46965 0.715713
vn 0.00161101 0.119684 -0.992811
v -0.122788 5.3888 0.706452
vn -0.0207217 0.101423 -0.994628
v -0.220901 5.52818 0.723095
vn -0.0232931 0.105076 -0.994191
v -0.15439 5.46621 0.753035
vn 0.0785088 -0.0635355 0.994887
v -0.144035 5.47361 0.752123
vn 0.576528 0.315841 0.753565
v -0.204699 5.5402 0.761443
vn 0.0987821 -0.03102 0.994625
v -1.86917 4.36847 0.718719
vn 0.0207216 -0.101424 0.994628
v -1.88879 4.35996 0.717804
vn -0.039054 -0.127619 0.991054
v -0.34027 5.45634 0.75987
vn -0.0662763 0.0580999 0.996108
v -1.76377 4.45873 0.722984
vn -0.0666152 0.0578625 0.9961
v -0.268575 5.51361 0.725408
vn -0.55534 0.831559 -0.0103138
v -0.30418 5.48831 0.738777
vn -0.570857 0.815272 0.0972365
v -1.79776 4.43401 0.682815
vn -0.0642446 0.127534 -0.989751
v -1.76526 4.46227 0.684566
vn -0.143145 0.239369 -0.960319
v -1.84792 4.28367 0.673047
vn -0.467352 -0.226946 -0.854446
v -1.89021 4.36333 0.681191
vn -0.115763 0.055148 -0.991745
v -0.302554 5.4772 0.760738
vn 0.0134785 -0.0555682 0.998364
v -1.77105 4.22909 0.702075
vn 0.023293 -0.105076 0.994191
v -1.78726 4.21708 0.663727
vn -0.0987824 0.0310198 -0.994625
v -1.21606 4.83651 0.697195
vn -0.0412904 0.0956909 -0.994554
v -0.229579 5.53833 0.727004
vn -0.495016 0.868049 0.038078
v -0.121304 5.38526 0.744824
vn 0.0562517 -0.0819782 0.995045
v -0.101749 5.39394 0.743979
vn 0.115763 -0.0551484 0.991745
v -1.6502 4.29739 0.703718
vn 0.141977 -0.23847 0.960716
v -0.226699 5.295 0.740605
vn 0.14232 -0.238239 0.960722
v -1.72473 4.24687 0.664978
vn 0.547032 -0.811762 -0.204447
v -1.68802 4.26955 0.679972
vn 0.570857 -0.815271 -0.0972366
v -0.195708 5.32687 0.703138
vn -0.0131102 0.0560986 -0.998339
v -0.228185 5.29854 0.702186
vn 0.0659106 -0.0568814 -0.996203
v -0.145388 5.47683 0.717164
vn 0.402111 0.382388 -0.831917
v -0.103166 5.39732 0.707366
vn 0.039054 0.127619 -0.991054
v -0.219416 5.52465 0.761468
vn 0.0536803 -0.0783262 0.995482
v -1.68788 4.27645 0.70365
vn 0.0634347 -0.127691 0.989783
v -1.76366 4.222 0.665017
vn 0.490338 -0.856899 -0.159038
v -1.11259 4.68953 0.679643
vn -0.0356981 0.0877463 -0.995503
v -0.206116 5.54357 0.72483
vn 0.022073 0.151746 -0.988173
v -1.84495 4.39245 0.720292
vn 0.0286095 -0.0893475 0.99559
v -1.83564 4.40639 0.720901
vn -0.0518324 0.0231036 0.998389
v -1.87255 4.37678 0.719297
vn -0.0441678 -0.0178016 0.998866
v -0.293044 5.49138 0.760626
vn -0.242667 0.315618 0.917332
v -0.341349 5.45966 0.758403
vn -0.567916 0.804869 0.172215
v -1.05321 4.95925 0.741078
vn -0.249718 0.322565 0.913013
v -0.294481 5.49481 0.723489
vn -0.310975 0.476913 -0.8221
v -1.21241 4.85213 0.699667
vn -0.316639 0.482021 -0.816943
v -0.342696 5.46287 0.723579
vn -0.573025 0.819293 -0.0200153
v -1.84645 4.39604 0.681325
vn -0.0483755 0.0940821 -0.994388
v -1.87401 4.38026 0.681555
vn -0.120685 0.16451 -0.978964
v -1.83712 4.40992 0.682559
vn -0.128003 0.204589 -0.970442
v -1.85069 4.28007 0.686786
vn -0.818734 -0.573781 -0.0212202
v -1.89717 4.35441 0.715887
vn -0.870441 -0.431603 0.236752
v -1.89845 4.35747 0.6827
vn -0.881902 -0.381045 -0.277587
v -0.250247 5.51004 0.761614
vn 0.0396139 -0.0816364 0.995875
v -0.226091 5.53065 0.761961
vn -0.0029323 0.0111049 0.999934
v -0.266535 5.50604 0.76156
vn -0.0387354 0.0322855 0.998728
v -1.7402 4.24364 0.702523
vn 0.0373718 -0.101795 0.994103
v -1.6938 4.28304 0.70468
vn 0.0387975 -0.0927334 0.994935
v -1.79658 4.31522 0.711401
vn 0.0331267 -0.095479 0.99488
v -1.77836 4.21585 0.663887
vn 0.25403 -0.728727 -0.635945
v -1.78175 4.21121 0.67783
vn 0.323974 -0.940845 -0.0992536
v -1.79538 4.21105 0.665216
vn -0.689259 -0.654716 -0.310272
v -1.16498 4.76257 0.688325
vn -0.0384946 0.0917195 -0.995041
v -1.69533 4.28669 0.665078
vn -0.0382634 0.0906524 -0.995147
v -1.79355 4.42623 0.68174
vn -0.0394222 0.0922986 -0.994951
v -0.214964 5.54468 0.725892
vn -0.296847 0.830752 -0.470885
v -0.227551 5.53413 0.724219
vn -0.0794444 0.193407 -0.977897
v -0.243077 5.52883 0.724938
vn -0.249128 0.441668 -0.861896
v -0.1455 5.36123 0.743845
vn 0.0483755 -0.094082 0.994388
v -0.154831 5.34735 0.742611
vn 0.128004 -0.204589 0.970442
v -0.117943 5.37701 0.743615
vn 0.120686 -0.16451 0.978964
v -1.69747 4.26247 0.701681
vn 0.309983 -0.47602 0.822992
v -1.64926 4.2944 0.701591
vn 0.573742 -0.81875 -0.0216219
v -0.9373 4.79458 0.721415
vn 0.316641 -0.482023 0.816941
v -1.69891 4.26589 0.664544
vn 0.241167 -0.31414 -0.918234
v -1.0965 4.68746 0.680004
vn 0.249717 -0.322564 -0.913014
v -1.65061 4.29761 0.666767
vn 0.565401 -0.800306 -0.199577
v -0.147008 5.36482 0.704879
vn -0.0286096 0.0893475 -0.99559
v -0.119403 5.38049 0.705873
vn 0.0441676 0.017802 -0.998866
v -0.156315 5.35089 0.704269
vn 0.0518319 -0.0231029 -0.998389
v -0.141544 5.47787 0.731074
vn 0.818734 0.573781 0.0212188
v -0.0935047 5.3998 0.74247
vn 0.889045 0.387275 0.244167
v -0.0947886 5.40286 0.709283
vn 0.860715 0.431529 -0.270096
v -0.296627 5.47058 0.760092
vn 0.0381921 -0.0907061 0.995145
v -0.19386 5.43844 0.752932
vn 0.0438608 -0.0879566 0.995158
v -1.7644 4.22314 0.700951
vn 0.0794449 -0.193408 0.977897
v -1.72394 4.2477 0.701952
vn 0.114895 -0.213756 0.970107
v -1.76586 4.22662 0.663209
vn 0.00293241 -0.0111049 -0.999934
v -1.75029 4.23181 0.663692
vn 0.179262 -0.275183 -0.944531
v -0.298159 5.47423 0.72049
vn -0.038844 0.0926981 -0.994936
v -0.199935 5.33469 0.703827
vn -0.0376906 0.0910596 -0.995132
v -0.210487 5.54672 0.740147
vn -0.323974 0.940845 0.0992535
v -0.197856 5.54928 0.726767
vn 0.668074 0.705202 -0.237419
v -1.8869 4.36874 0.717923
vn -0.682587 0.527966 0.505299
v -1.86236 4.38965 0.719482
vn -0.230298 0.23942 0.943208
v -1.8128 4.42631 0.721245
vn -0.245751 0.313475 0.917246
v -1.76647 4.46091 0.721474
vn -0.568737 0.804294 0.17219
v -1.05502 4.96265 0.718921
vn -0.572882 0.813856 0.0971844
v -1.76782 4.46412 0.686651
vn -0.574219 0.818678 -0.0062647
v -1.81424 4.42973 0.684109
vn -0.312319 0.47216 -0.824331
v -1.86377 4.39302 0.682942
vn -0.300194 0.405943 -0.863188
v -1.88827 4.372 0.682532
vn -0.663052 0.574117 -0.480366
v -1.89221 4.36814 0.696569
vn -0.777054 0.62332 0.0875145
v -0.241663 5.52546 0.761478
vn -0.179262 0.275184 0.944531
v -1.79202 4.42258 0.721343
vn 0.0376418 -0.0910915 0.995131
v -1.7941 4.20799 0.698403
vn -0.675197 -0.708973 0.203634
v -1.7981 4.31883 0.672238
vn -0.0438607 0.0879566 -0.995158
v -0.268018 5.50958 0.723218
vn -0.114894 0.213754 -0.970108
v -0.103683 5.38527 0.742638
vn 0.715539 -0.606499 0.346644
v -0.128184 5.36425 0.742228
vn 0.300195 -0.405945 0.863187
v -0.177714 5.32754 0.741062
vn 0.313082 -0.473897 0.823044
v -0.224139 5.29315 0.73852
vn 0.574563 -0.818175 -0.0215987
v -0.937219 4.7953 0.698938
vn 0.572882 -0.813856 -0.0971844
v -0.225486 5.29636 0.703696
vn 0.564855 -0.797219 -0.213029
v -0.179151 5.33096 0.703925
vn 0.246342 -0.31483 -0.916623
v -0.129597 5.36762 0.705688
vn 0.230298 -0.239421 -0.943207
v -0.105052 5.38854 0.707247
vn 0.620239 -0.472091 -0.626445
v -0.100022 5.38979 0.721408
vn 0.777054 -0.62332 -0.0875159
v -0.198403 5.33104 0.74343
vn 0.0393476 -0.0923477 0.994949
v -1.74888 4.22844 0.700232
vn 0.249126 -0.441664 0.861899
v -1.72542 4.25123 0.66361
vn 0.0387359 -0.0322863 -0.998728
v -0.195375 5.44205 0.713769
vn -0.0331267 0.0954791 -0.99488
v -0.196572 5.54622 0.759954
vn 0.693803 0.664641 0.27729
v -0.213595 5.54142 0.761283
vn -0.281081 0.809343 0.515711
v -0.995207 4.8768 0.732486
vn 0.0384948 -0.0917198 0.995041
v -1.77699 4.21259 0.699278
vn 0.314037 -0.887874 0.336245
v -1.74171 4.24723 0.663556
vn -0.0396139 0.0816364 -0.995875
v -0.251755 5.51363 0.722647
vn -0.0373718 0.101795 -0.994103
f 1//1 2//2 3//3
f 1//1 3//3 4//4
f 1//1 4//4 5//5
f 1//1 5//5 6//6
f 1//1 6//6 2//2
f 7//7 8//8 9//9
f 10//10 11//11 12//12
f 13//13 14//14 15//15
f 16//16 17//17 18//18
f 19//19 20//20 21//21
f 22//22 23//23 24//24
f 22//22 24//24 25//25
f 22//22 25//25 26//26
f 22//22 26//26 27//27
f 22//22 27//27 23//23
f 28//28 29//29 30//30
f 31//31 32//32 33//33
f 34//34 35//35 36//36
f 37//37 38//38 39//39
f 40//40 41//41 42//42
f 13//13 43//43 44//44
f 10//10 45//45 46//46
f 7//7 47//47 48//48
f 19//19 49//49 50//50
f 16//16 51//51 52//52
f 10//10 53//53 45//45
f 13//13 54//54 43//43
f 16//16 55//55 51//51
f 19//19 56//56 49//49
f 7//7 57//57 47//47
f 40//40 58//58 59//59
f 28//28 60//60 61//61
f 31//31 62//62 63//63
f 34//34 64//64 65//65
f 37//37 66//66 67//67
f 40//40 68//68 58//58
f 28//28 69//69 60//60
f 31//31 70//70 62//62
f 34//34 71//71 64//64
f 37//37 72//72 66//66
f 10//10 46//46 11//11
f 7//7 48//48 8//8
f 19//19 50//50 20//20
f 16//16 52//52 17//17
f 13//13 44//44 14//14
f 40//40 42//42 68//68
f 28//28 30//30 69//69
f 31//31 33//33 70//70
f 34//34 36//36 71//71
f 37//37 39//39 72//72
f 28//28 61//61 29//29
f 31//31 63//63 32//32
f 34//34 65//65 35//35
f 37//37 67//67 38//38
f 40//40 59//59 41//41
f 10//10 12//12 53//53
f 13//13 15//15 54//54
f 16//16 18//18 55//55
f 19//19 21//21 56//56
f 7//7 9//9 57//57
f 73//73 74//74 75//75
f 76//76 77//77 78//78
f 79//79 80//80 81//81
f 82//82 83//83 84//84
f 85//85 86//86 87//87
f 88//88 89//89 90//90
f 91//91 92//92 93//93
f 94//94 95//95 96//96
f 97//97 98//98 99//99
f 100//100 101//101 102//102
f 103//103 104//104 105//105
f 106//106 107//107 108//108
f 109//109 110//110 111//111
f 112//112 113//113 114//114
f 115//115 116//116 117//117
f 88//88 118//118 119//119
f 91//91 120//120 121//121
f 94//94 122//122 123//123
f 97//97 124//124 125//125
f 100//100 126//126 127//127
f 128//128 129//129 2//2
f 130//130 131//131 3//3
f 132//132 133//133 4//4
f 134//134 135//135 5//5
f 136//136 137//137 6//6
f 76//76 138//138 8//8
f 73//73 139//139 11//11
f 85//85 140//140 14//14
f 82//82 141//141 17//17
f 79//79 142//142 20//20
f 143//143 144//144 23//23
f 145//145 146//146 24//24
f 147//147 148//148 25//25
f 149//149 150//150 26//26
f 151//151 152//152 27//27
f 103//103 153//153 29//29
f 106//106 154//154 32//32
f 109//109 155//155 35//35
f 112//112 156//156 38//38
f 115//115 157//157 41//41
f 73//73 75//75 43//43
f 76//76 78//78 45//45
f 79//79 81//81 47//47
f 82//82 84//84 49//49
f 85//85 87//87 51//51
f 88//88 90//90 53//53
f 91//91 93//93 54//54
f 94//94 96//96 55//55
f 97//97 99//99 56//56
f 100//100 102//102 57//57
f 103//103 105//105 58//58
f 106//106 108//108 60//60
f 109//109 111//111 62//62
f 112//112 114//114 64//64
f 115//115 117//117 66//66
f 88//88 119//119 68//68
f 91//91 121//121 69//69
f 94//94 123//123 70//70
f 97//97 125//125 71//71
f 100//100 127//127 72//72
f 130//130 74//74 46//46
f 132//132 77//77 48//48
f 134//134 80//80 50//50
f 136//136 83//83 52//52
f 128//128 86//86 44//44
f 158//158 89//89 42//42
f 159//159 92//92 30//30
f 160//160 95//95 33//33
f 161//161 98//98 36//36
f 162//162 101//101 39//39
f 145//145 104//104 61//61
f 147//147 107//107 63//63
f 149//149 110//110 65//65
f 151//151 113//113 67//67
f 143//143 116//116 59//59
f 159//159 118//118 12//12
f 160//160 120//120 15//15
f 161//161 122//122 18//18
f 162//162 124//124 21//21
f 158//158 126//126 9//9
f 130//130 129//129 74//74
f 132//132 131//131 77//77
f 134//134 133//133 80//80
f 136//136 135//135 83//83
f 128//128 137//137 86//86
f 158//158 138//138 89//89
f 159//159 139//139 92//92
f 160//160 140//140 95//95
f 161//161 141//141 98//98
f 162//162 142//142 101//101
f 145//145 144//144 104//104
f 147//147 146//146 107//107
f 149//149 148//148 110//110
f 151//151 150//150 113//113
f 143//143 152//152 116//116
f 159//159 153//153 118//118
f 160//160 154//154 120//120
f 161//161 155//155 122//122
f 162//162 156//156 124//124
f 158//158 157//157 126//126
f 130//130 3//3 129//129
f 132//132 4//4 131//131
f 134//134 5//5 133//133
f 136//136 6//6 135//135
f 128//128 2//2 137//137
f 158//158 9//9 138//138
f 159//159 12//12 139//139
f 160//160 15//15 140//140
f 161//161 18//18 141//141
f 162//162 21//21 142//142
f 145//145 24//24 144//144
f 147//147 25//25 146//146
f 149//149 26//26 148//148
f 151//151 27//27 150//150
f 143//143 23//23 152//152
f 159//159 30//30 153//153
f 160//160 33//33 154//154
f 161//161 36//36 155//155
f 162//162 39//39 156//156
f 158//158 42//42 157//157
f 128//128 44//44 75//75
f 130//130 46//46 78//78
f 132//132 48//48 81//81
f 134//134 50//50 84//84
f 136//136 52//52 87//87
f 76//76 45//45 90//90
f 73//73 43//43 93//93
f 85//85 51//51 96//96
f 82//82 49//49 99//99
f 79//79 47//47 102//102
f 143//143 59//59 105//105
f 145//145 61//61 108//108
f 147//147 63//63 111//111
f 149//149 65//65 114//114
f 151//151 67//67 117//117
f 103//103 58//58 119//119
f 106//106 60//60 121//121
f 109//109 62//62 123//123
f 112//112 64//64 125//125
f 115//115 66//66 127//127
f 73//73 11//11 74//74
f 76//76 8//8 77//77
f 79//79 20//20 80//80
f 82//82 17//17 83//83
f 85//85 14//14 86//86
f 88//88 68//68 89//89
f 91//91 69//69 92//92
f 94//94 70//70 95//95
f 97//97 71//71 98//98
f 100//100 72//72 101//101
f 103//103 29//29 104//104
f 106//106 32//32 107//107
f 109//109 35//35 110//110
f 112//112 38//38 113//113
f 115//115 41//41 116//116
f 88//88 53//53 118//118
f 91//91 54//54 120//120
f 94//94 55//55 122//122
f 97//97 56//56 124//124
f 100//100 57//57 126//126
f 128//128 75//75 129//129
f 130//130 78//78 131//131
f 132//132 81//81 133//133
f 134//134 84//84 135//135
f 136//136 87//87 137//137
f 76//76 90//90 138//138
f 73//73 93//93 139//139
f 85//85 96//96 140//140
f 82//82 99//99 141//141
f 79//79 102//102 142//142
f 143//143 105//105 144//144
f 145//145 108//108 146//146
f 147//147 111//111 148//148
f 149//149 114//114 150//150
f 151//151 117//117 152//152
f 103//103 119//119 153//153
f 106//106 121//121 154//154
f 109//109 123//123 155//155
f 112//112 125//125 156//156
f 115//115 127//127 157//157
f 129//129 3//3 2//2
f 131//131 4//4 3//3
f 133//133 5//5 4//4
f 135//135 6//6 5//5
f 137//137 2//2 6//6
f 138//138 9//9 8//8
f 139//139 12//12 11//11
f 140//140 15//15 14//14
f 141//141 18//18 17//17
f 142//142 21//21 20//20
f 144//144 24//24 23//23
f 146//146 25//25 24//24
f 148//148 26//26 25//25
f 150//150 27//27 26//26
f 152//152 23//23 27//27
f 153//153 30//30 29//29
f 154//154 33//33 32//32
f 155//155 36//36 35//35
f 156//156 39//39 38//38
f 157//157 42//42 41//41
f 75//75 44//44 43//43
f 78//78 46//46 45//45
f 81//81 48//48 47//47
f 84//84 50//50 49//49
f 87//87 52//52 51//51
f 90//90 45//45 53//53
f 93//93 43//43 54//54
f 96//96 51//51 55//55
f 99//99 49//49 56//56
f 102//102 47//47 57//57
f 105//105 59//59 58//58
f 108//108 61//61 60//60
f 111//111 63//63 62//62
f 114//114 65//65 64//64
f 117//117 67//67 66//66
f 119//119 58//58 68//68
f 121//121 60//60 69//69
f 123//123 62//62 70//70
f 125//125 64//64 71//71
f 127//127 66//66 72//72
f 74//74 11//11 46//46
f 77//77 8//8 48//48
f 80//80 20//20 50//50
f 83//83 17//17 52//52
f 86//86 14//14 44//44
f 89//89 68//68 42//42
f 92//92 69//69 30//30
f 95//95 70//70 33//33
f 98//98 71//71 36//36
f 101//101 72//72 39//39
f 104//104 29//29 61//61
f 107//107 32//32 63//63
f 110//110 35//35 65//65
f 113//113 38//38 67//67
f 116//116 41//41 59//59
f 118//118 53//53 12//12
f 120//120 54//54 15//15
f 122//122 55//55 18//18
f 124//124 56//56 21//21
f 126//126 57//57 9//9
f 129//129 75//75 74//74
f 131//131 78//78 77//77
f 133//133 81//81 80//80
f 135//135 84//84 83//83
f 137//137 87//87 86//86
f 138//138 90//90 89//89
f 139//139 93//93 92//92
f 140//140 96//96 95//95
f 141//141 99//99 98//98
f 142//142 102//102 101//101
f 144//144 105//105 104//104
f 146//146 108//108 107//107
f 148//148 111//111 110//110
f 150//150 114//114 113//113
f 152//152 117//117 116//116
f 153//153 119//119 118//118
f 154//154 121//121 120//120
f 155//155 123//123 122//122
f 156//156 125//125 124//124
f 157//157 127//127 126//126
