# Created by Open3D 
# object name: part_006
# number of vertices: 162
# number of triangles: 320
v 0.666758 1.6409 1.38551
vn 0.0337529 0.0846679 -0.995837
v 0.692886 1.62266 1.38547
vn 0.0800643 0.0504775 -0.995511
v 0.651695 1.61886 1.38354
vn 0.0248902 0.0298042 -0.999246
v 0.611349 1.63659 1.38409
vn 0.00502112 0.0825478 -0.996574
v 0.649059 1.6536 1.38641
vn 0.014972 0.160596 -0.986907
v 0.690373 1.65576 1.3882
vn 0.0745522 0.131125 -0.988559
v -1.08341 1.50943 1.36928
vn -0.0276544 0.0800545 -0.996407
v -1.06519 1.48989 1.36762
vn -0.0106352 0.0271353 -0.999575
v -1.10651 1.48749 1.36878
vn -0.0683363 0.0393282 -0.996887
v -0.206592 1.5519 1.3789
vn 0.075311 -0.979531 -0.186672
v 0.60897 1.61303 1.38777
vn 0.0758241 -0.986815 -0.142991
v -0.206587 1.5513 1.38324
vn 0.0754293 -0.993196 -0.0887198
v 0.711361 1.6161 1.45637
vn 0.129696 -0.988214 -0.0813105
v 0.722629 1.61814 1.45658
vn 0.759875 -0.648045 -0.0512559
v 0.712425 1.61125 1.52061
vn 0.168524 -0.983863 -0.0601065
v 0.708533 1.65338 1.45945
vn -0.0208991 0.996387 0.0823193
v 0.691219 1.65765 1.39815
vn -0.0529984 0.995464 0.0790042
v 0.690844 1.64753 1.52051
vn -0.0530173 0.994949 0.085242
v -0.0287944 1.6046 1.3838
vn -0.0746673 0.996927 -0.0236917
v -0.986764 1.53242 1.37295
vn -0.0724966 0.983075 -0.168247
v -1.02513 1.52967 1.37587
vn -0.0753878 0.996936 0.0208774
v -1.08385 1.49748 1.51384
vn -0.0337528 -0.0846679 0.995837
v -1.10695 1.47576 1.51059
vn -0.0744166 -0.124899 0.989375
v -1.06563 1.47793 1.51239
vn -0.0167259 -0.137398 0.990375
v -1.02841 1.50135 1.51523
vn -0.00502115 -0.0825478 0.996574
v -1.06827 1.51267 1.51525
vn -0.0266759 -0.00635645 0.999624
v -1.10946 1.50887 1.51332
vn -0.0811405 -0.0442941 0.995718
v -0.207014 1.54051 1.51667
vn 0.0746673 -0.996927 0.0236893
v -1.02257 1.47933 1.50779
vn 0.0747117 -0.996993 -0.0205854
v -0.206982 1.54063 1.51228
vn 0.0753877 -0.994318 -0.0751503
v 0.666315 1.62895 1.53007
vn 0.0276539 -0.0800551 0.996407
v 0.651252 1.60689 1.5283
vn 0.0187991 -0.134727 0.990704
v 0.692452 1.61093 1.52728
vn 0.0739842 -0.113751 0.990751
v -0.0292161 1.5932 1.52157
vn -0.075311 0.979533 0.186664
v 0.567279 1.63748 1.52901
vn -0.0734989 0.940982 0.330381
v 0.605584 1.64102 1.52615
vn -0.0749877 0.98681 0.143468
v -1.12793 1.51543 1.44242
vn -0.129696 0.988214 0.0813105
v -1.1107 1.5122 1.50381
vn -0.0977828 0.991586 0.0848274
v -1.11033 1.52232 1.38144
vn -0.0977635 0.992102 0.0785894
v -1.12511 1.47815 1.43935
vn 0.0208991 -0.996387 -0.0823193
v -1.13655 1.47848 1.43934
vn -0.653465 -0.754216 -0.0643601
v -1.12622 1.48372 1.37516
vn -0.018399 -0.99451 -0.103008
v 0.694127 1.61933 1.39499
vn 0.0977828 -0.991586 -0.0848274
v 0.712819 1.62186 1.39222
vn 0.168651 -0.980459 -0.101275
v -0.983852 1.49405 1.36979
vn 0.0735508 -0.941621 -0.328543
v 0.570624 1.61082 1.3842
vn 0.0740039 -0.941586 -0.328541
v -1.06783 1.52463 1.37049
vn -0.0205939 0.157921 -0.987237
v -1.02796 1.51345 1.36889
vn 0.00107965 0.0822548 -0.996611
v 0.605998 1.6522 1.391
vn -0.07461 0.99701 0.0201088
v 0.567712 1.64919 1.38736
vn -0.0719615 0.9825 -0.1718
v 0.719979 1.65305 1.45945
vn 0.509386 0.857482 0.0724574
v 0.710044 1.65843 1.39523
vn 0.0185245 0.997914 0.0618412
v -1.02216 1.4905 1.37265
vn 0.0750863 -0.98687 -0.143002
v 0.693752 1.60921 1.51735
vn 0.0977635 -0.992102 -0.0785894
v 0.709651 1.64781 1.52363
vn 0.0183991 0.99451 0.103008
v -0.0265904 1.60464 1.3882
vn -0.0753877 0.994318 0.0751498
v -1.10903 1.5206 1.37151
vn -0.0750619 0.119885 -0.989946
v -1.10779 1.47388 1.50065
vn 0.0529984 -0.995464 -0.0790042
v -1.12662 1.4731 1.50356
vn -0.0185245 -0.997914 -0.0618412
v 0.57019 1.59911 1.52584
vn 0.0724785 -0.982799 0.169864
v -0.984286 1.48234 1.51143
vn 0.072025 -0.98283 0.169878
v 0.648616 1.64163 1.53117
vn 0.00889067 -0.0036842 0.999954
v 0.610901 1.62449 1.53043
vn -0.00107972 -0.0822533 0.996611
v -1.02554 1.5185 1.51102
vn -0.0757606 0.986864 0.142685
v -0.987197 1.52071 1.51459
vn -0.0740122 0.942124 0.326992
v -1.1392 1.51339 1.44222
vn -0.633017 0.771662 0.0618651
v -1.12939 1.50967 1.50658
vn -0.168651 0.980459 0.101275
v -1.10742 1.484 1.37828
vn 0.0530172 -0.994949 -0.085242
v 0.608556 1.60186 1.52292
vn 0.0754494 -0.996937 -0.0205752
v 0.689939 1.64404 1.53001
vn 0.0684737 -0.0330536 0.997105
v -0.0269854 1.59398 1.51725
vn -0.0754293 0.993196 0.08872
v -1.129 1.52028 1.37818
vn -0.168525 0.983863 0.0601066
v 0.664103 1.61711 1.39055
vn 0.0829092 -0.992256 -0.0924891
v 0.650119 1.61673 1.3861
vn 0.0832901 -0.956238 -0.280485
v 0.692326 1.62002 1.38874
vn 0.102841 -0.967773 -0.229867
v -1.03646 1.49083 1.36825
vn 0.0596223 -0.73574 -0.674635
v -0.984866 1.49597 1.36766
vn 0.00674299 0.0282566 -0.999578
v -0.206651 1.5531 1.37558
vn 0.060978 -0.727401 -0.683498
v -1.03927 1.52792 1.37131
vn -0.0592952 0.835319 -0.546559
v -0.037207 1.60332 1.38025
vn -0.0571855 0.829798 -0.555126
v -0.987505 1.53075 1.37052
vn -0.00372653 0.165801 -0.986152
v 0.66115 1.65603 1.39375
vn -0.0678984 0.995136 0.0713706
v 0.689466 1.65772 1.39185
vn -0.0462216 0.996621 -0.0679022
v 0.647213 1.65503 1.38926
vn -0.0644466 0.990685 -0.119957
v 0.72464 1.63952 1.45835
vn 0.997148 0.0749042 0.00924512
v 0.7217 1.62426 1.39237
vn 0.967166 -0.125902 -0.220767
v 0.719185 1.6574 1.3951
vn 0.925395 0.333268 -0.180491
v -1.07732 1.4863 1.3744
vn 0.0679629 -0.993379 -0.0926274
v -1.10563 1.48496 1.37207
vn 0.0471344 -0.971958 -0.230381
v -1.06336 1.48802 1.37022
vn 0.0656734 -0.957562 -0.280646
v 0.663704 1.60631 1.52118
vn 0.0828445 -0.994013 -0.0712323
v 0.609518 1.60226 1.51659
vn 0.0757796 -0.993867 -0.080531
v 0.668291 1.61194 1.4559
vn 0.0826979 -0.993206 -0.0818671
v 0.703796 1.6464 1.52786
vn 0.159881 0.376879 0.91236
v 0.709459 1.63264 1.52709
vn 0.22075 -0.0634943 0.973261
v 0.718792 1.64677 1.52364
vn 0.924112 0.298634 0.238398
v -0.0260823 1.59944 1.45274
vn -0.0754103 0.99378 0.0819371
v 0.606517 1.64181 1.51985
vn -0.0749415 0.993699 0.0833472
v 0.606892 1.65194 1.39735
vn -0.0749329 0.993931 0.0805352
v -1.12305 1.52047 1.37384
vn -0.225826 0.492155 -0.840706
v -1.10849 1.52266 1.37517
vn -0.101928 0.992436 -0.068419
v -1.09436 1.52339 1.37193
vn -0.0938493 0.87758 -0.470156
v -1.07772 1.4755 1.50504
vn 0.0678984 -0.995136 -0.0713706
v -1.06379 1.4765 1.50953
vn 0.0644465 -0.990685 0.119957
v -1.10604 1.47381 1.50695
vn 0.0462216 -0.996621 0.0679024
v 0.622697 1.60361 1.52748
vn 0.0596662 -0.836283 0.545042
v 0.570932 1.60078 1.52827
vn 0.00145105 -0.13624 0.990675
v -0.207094 1.54115 1.52014
vn 0.0571858 -0.829801 0.555121
v 0.619882 1.6407 1.53054
vn -0.059331 0.7375 0.672736
v -0.0376495 1.59137 1.52481
vn -0.060978 0.727401 0.683498
v 0.568292 1.63556 1.53114
vn -0.00823042 -0.00826221 0.999932
v -1.08068 1.51442 1.50825
vn -0.0829091 0.992256 0.0924891
v -1.1089 1.51151 1.51005
vn -0.102841 0.967773 0.229867
v -1.06669 1.5148 1.51269
vn -0.08329 0.956238 0.280485
v -1.14177 1.49931 1.44104
vn -0.997148 -0.074904 -0.00924512
v -1.13576 1.47413 1.50369
vn -0.934567 -0.303696 0.185346
v -1.13827 1.50727 1.50642
vn -0.962591 0.156906 0.220905
v -1.02309 1.48972 1.37894
vn 0.0750407 -0.993692 -0.0833418
v -1.0819 1.48047 1.43967
vn 0.0681183 -0.994302 -0.082002
v 0.691913 1.60887 1.52362
vn 0.101928 -0.992436 0.0684199
v 0.649692 1.60521 1.52542
vn 0.0820636 -0.989364 0.120102
v 0.689053 1.64656 1.52672
vn -0.0471346 0.971958 0.23038
v 0.675019 1.64463 1.52987
vn -0.0329431 0.793317 0.607917
v -1.02609 1.52927 1.3822
vn -0.0757147 0.993872 0.0805347
v -1.02647 1.51914 1.50471
vn -0.0757233 0.993641 0.0833331
v -1.12658 1.50608 1.37229
vn -0.22075 0.0634935 -0.973261
v -1.13788 1.5179 1.37788
vn -0.961309 0.191542 -0.197983
v 0.706898 1.62239 1.38787
vn 0.234673 -0.23186 -0.944018
v 0.678221 1.61984 1.38533
vn 0.0971465 -0.7885 -0.607313
v 0.623137 1.6155 1.38364
vn 0.0633992 -0.735436 -0.674621
v 0.571379 1.61287 1.38209
vn 0.00754307 0.0283167 -0.999571
v -0.208339 1.57549 1.37624
vn 0.00305042 0.0824016 -0.996595
v 0.56874 1.64765 1.38495
vn -0.00214657 0.156086 -0.987741
v 0.620323 1.65259 1.3867
vn -0.0556084 0.837984 -0.542853
v 0.675452 1.65633 1.38834
vn -0.0296462 0.882414 -0.469539
v 0.704216 1.65773 1.39078
vn 0.165237 0.521526 -0.837083
v 0.709881 1.64403 1.38932
vn 0.226696 0.0971053 -0.969113
v -1.09159 1.4869 1.36892
vn 0.0329427 -0.793315 -0.60792
v 0.609893 1.61239 1.39408
vn 0.0757882 -0.993635 -0.083335
v 0.721307 1.61363 1.52091
vn 0.965869 -0.160938 0.202967
v 0.665323 1.65106 1.45912
vn -0.0681183 0.994302 0.082002
v -1.06627 1.52631 1.37337
vn -0.0820636 0.989364 -0.1201
v -1.12079 1.47379 1.50801
vn -0.185587 -0.41502 0.890683
v -1.09203 1.47519 1.51045
vn 0.0296462 -0.882414 0.469539
v -1.0369 1.47894 1.51209
vn 0.0558872 -0.836559 0.545019
v -0.985313 1.48388 1.51384
vn 0.000651034 -0.136301 0.990667
v -0.208789 1.56334 1.52316
vn -0.00305048 -0.0824007 0.996595
v -0.987953 1.51866 1.51671
vn -0.00980575 0.00158525 0.999951
v -1.03971 1.51603 1.51515
vn -0.0630374 0.734242 0.675955
v -1.0948 1.51169 1.51346
vn -0.0971464 0.7885 0.607314
v -1.12347 1.50914 1.51092
vn -0.231181 0.347505 0.908733
v -1.127 1.49469 1.51006
vn -0.226696 -0.0971053 0.969113
v -1.02347 1.47959 1.50145
vn 0.0750322 -0.993923 -0.0805381
v 0.677788 1.60814 1.52686
vn 0.0938495 -0.877576 0.470163
v 0.646787 1.64351 1.52857
vn -0.0656736 0.957563 0.280644
v -1.08486 1.51959 1.44289
vn -0.0826979 0.993206 0.0818671
v -1.13537 1.48476 1.37515
vn -0.93327 -0.268662 -0.238387
v -1.12037 1.48513 1.37093
vn -0.179957 -0.263006 -0.947863
v -0.206779 1.54589 1.44776
vn 0.0754103 -0.993781 -0.0819366
v 0.706479 1.61105 1.52495
vn 0.229044 -0.383872 0.894528
v 0.660751 1.64523 1.52439
vn -0.0679629 0.993379 0.0926274
v -1.08028 1.52522 1.37761
vn -0.0828445 0.994013 0.0712322
f 1//1 2//2 3//3
f 1//1 3//3 4//4
f 1//1 4//4 5//5
f 1//1 5//5 6//6
f 1//1 6//6 2//2
f 7//7 8//8 9//9
f 10//10 11//11 12//12
f 13//13 14//14 15//15
f 16//16 17//17 18//18
f 19//19 20//20 21//21
f 22//22 23//23 24//24
f 22//22 24//24 25//25
f 22//22 25//25 26//26
f 22//22 26//26 27//27
f 22//22 27//27 23//23
f 28//28 29//29 30//30
f 31//31 32//32 33//33
f 34//34 35//35 36//36
f 37//37 38//38 39//39
f 40//40 41//41 42//42
f 13//13 43//43 44//44
f 10//10 45//45 46//46
f 7//7 47//47 48//48
f 19//19 49//49 50//50
f 16//16 51//51 52//52
f 10//10 53//53 45//45
f 13//13 54//54 43//43
f 16//16 55//55 51//51
f 19//19 56//56 49//49
f 7//7 57//57 47//47
f 40//40 58//58 59//59
f 28//28 60//60 61//61
f 31//31 62//62 63//63
f 34//34 64//64 65//65
f 37//37 66//66 67//67
f 40//40 68//68 58//58
f 28//28 69//69 60//60
f 31//31 70//70 62//62
f 34//34 71//71 64//64
f 37//37 72//72 66//66
f 10//10 46//46 11//11
f 7//7 48//48 8//8
f 19//19 50//50 20//20
f 16//16 52//52 17//17
f 13//13 44//44 14//14
f 40//40 42//42 68//68
f 28//28 30//30 69//69
f 31//31 33//33 70//70
f 34//34 36//36 71//71
f 37//37 39//39 72//72
f 28//28 61//61 29//29
f 31//31 63//63 32//32
f 34//34 65//65 35//35
f 37//37 67//67 38//38
f 40//40 59//59 41//41
f 10//10 12//12 53//53
f 13//13 15//15 54//54
f 16//16 18//18 55//55
f 19//19 21//21 56//56
f 7//7 9//9 57//57
f 73//73 74//74 75//75
f 76//76 77//77 78//78
f 79//79 80//80 81//81
f 82//82 83//83 84//84
f 85//85 86//86 87//87
f 88//88 89//89 90//90
f 91//91 92//92 93//93
f 94//94 95//95 96//96
f 97//97 98//98 99//99
f 100//100 101//101 102//102
f 103//103 104//104 105//105
f 106//106 107//107 108//108
f 109//109 110//110 111//111
f 112//112 113//113 114//114
f 115//115 116//116 117//117
f 88//88 118//118 119//119
f 91//91 120//120 121//121
f 94//94 122//122 123//123
f 97//97 124//124 125//125
f 100//100 126//126 127//127
f 128//128 129//129 2//2
f 130//130 131//131 3//3
f 132//132 133//133 4//4
f 134//134 135//135 5//5
f 136//136 137//137 6//6
f 76//76 138//138 8//8
f 73//73 139//139 11//11
f 85//85 140//140 14//14
f 82//82 141//141 17//17
f 79//79 142//142 20//20
f 143//143 144//144 23//23
f 145//145 146//146 24//24
f 147//147 148//148 25//25
f 149//149 150//150 26//26
f 151//151 152//152 27//27
f 103//103 153//153 29//29
f 106//106 154//154 32//32
f 109//109 155//155 35//35
f 112//112 156//156 38//38
f 115//115 157//157 41//41
f 73//73 75//75 43//43
f 76//76 78//78 45//45
f 79//79 81//81 47//47
f 82//82 84//84 49//49
f 85//85 87//87 51//51
f 88//88 90//90 53//53
f 91//91 93//93 54//54
f 94//94 96//96 55//55
f 97//97 99//99 56//56
f 100//100 102//102 57//57
f 103//103 105//105 58//58
f 106//106 108//108 60//60
f 109//109 111//111 62//62
f 112//112 114//114 64//64
f 115//115 117//117 66//66
f 88//88 119//119 68//68
f 91//91 121//121 69//69
f 94//94 123//123 70//70
f 97//97 125//125 71//71
f 100//100 127//127 72//72
f 130//130 74//74 46//46
f 132//132 77//77 48//48
f 134//134 80//80 50//50
f 136//136 83//83 52//52
f 128//128 86//86 44//44
f 158//158 89//89 42//42
f 159//159 92//92 30//30
f 160//160 95//95 33//33
f 161//161 98//98 36//36
f 162//162 101//101 39//39
f 145//145 104//104 61//61
f 147//147 107//107 63//63
f 149//149 110//110 65//65
f 151//151 113//113 67//67
f 143//143 116//116 59//59
f 159//159 118//118 12//12
f 160//160 120//120 15//15
f 161//161 122//122 18//18
f 162//162 124//124 21//21
f 158//158 126//126 9//9
f 130//130 129//129 74//74
f 132//132 131//131 77//77
f 134//134 133//133 80//80
f 136//136 135//135 83//83
f 128//128 137//137 86//86
f 158//158 138//138 89//89
f 159//159 139//139 92//92
f 160//160 140//140 95//95
f 161//161 141//141 98//98
f 162//162 142//142 101//101
f 145//145 144//144 104//104
f 147//147 146//146 107//107
f 149//149 148//148 110//110
f 151//151 150//150 113//113
f 143//143 152//152 116//116
f 159//159 153//153 118//118
f 160//160 154//154 120//120
f 161//161 155//155 122//122
f 162//162 156//156 124//124
f 158//158 157//157 126//126
f 130//130 3//3 129//129
f 132//132 4//4 131//131
f 134//134 5//5 133//133
f 136//136 6//6 135//135
f 128//128 2//2 137//137
f 158//158 9//9 138//138
f 159//159 12//12 139//139
f 160//160 15//15 140//140
f 161//161 18//18 141//141
f 162//162 21//21 142//142
f 145//145 24//24 144//144
f 147//147 25//25 146//146
f 149//149 26//26 148//148
f 151//151 27//27 150//150
f 143//143 23//23 152//152
f 159//159 30//30 153//153
f 160//160 33//33 154//154
f 161//161 36//36 155//155
f 162//162 39//39 156//156
f 158//158 42//42 157//157
f 128//128 44//44 75//75
f 130//130 46//46 78//78
f 132//132 48//48 81//81
f 134//134 50//50 84//84
f 136//136 52//52 87//87
f 76//76 45//45 90//90
f 73//73 43//43 93//93
f 85//85 51//51 96//96
f 82//82 49//49 99//99
f 79//79 47//47 102//102
f 143//143 59//59 105//105
f 145//145 61//61 108//108
f 147//147 63//63 111//111
f 149//149 65//65 114//114
f 151//151 67//67 117//117
f 103//103 58//58 119//119
f 106//106 60//60 121//121
f 109//109 62//62 123//123
f 112//112 64//64 125//125
f 115//115 66//66 127//127
f 73//73 11//11 74//74
f 76//76 8//8 77//77
f 79//79 20//20 80//80
f 82//82 17//17 83//83
f 85//85 14//14 86//86
f 88//88 68//68 89//89
f 91//91 69//69 92//92
f 94//94 70//70 95//95
f 97//97 71//71 98//98
f 100//100 72//72 101//101
f 103//103 29//29 104//104
f 106//106 32//32 107//107
f 109//109 35//35 110//110
f 112//112 38//38 113//113
f 115//115 41//41 116//116
f 88//88 53//53 118//118
f 91//91 54//54 120//120
f 94//94 55//55 122//122
f 97//97 56//56 124//124
f 100//100 57//57 126//126
f 128//128 75//75 129//129
f 130//130 78//78 131//131
f 132//132 81//81 133//133
f 134//134 84//84 135//135
f 136//136 87//87 137//137
f 76//76 90//90 138//138
f 73//73 93//93 139//139
f 85//85 96//96 140//140
f 82//82 99//99 141//141
f 79//79 102//102 142//142
f 143//143 105//105 144//144
f 145//145 108//108 146//146
f 147//147 111//111 148//148
f 149//149 114//114 150//150
f 151//151 117//117 152//152
f 103//103 119//119 153//153
f 106//106 121//121 154//154
f 109//109 123//123 155//155
f 112//112 125//125 156//156
f 115//115 127//127 157//157
f 129//129 3//3 2//2
f 131//131 4//4 3//3
f 133//133 5//5 4//4
f 135//135 6//6 5//5
f 137//137 2//2 6//6
f 138//138 9//9 8//8
f 139//139 12//12 11//11
f 140//140 15//15 14//14
f 141//141 18//18 17//17
f 142//142 21//21 20//20
f 144//144 24//24 23//23
f 146//146 25//25 24//24
f 148//148 26//26 25//25
f 150//150 27//27 26//26
f 152//152 23//23 27//27
f 153//153 30//30 29//29
f 154//154 33//33 32//32
f 155//155 36//36 35//35
f 156//156 39//39 38//38
f 157//157 42//42 41//41
f 75//75 44//44 43//43
f 78//78 46//46 45//45
f 81//81 48//48 47//47
f 84//84 50//50 49//49
f 87//87 52//52 51//51
f 90//90 45//45 53//53
f 93//93 43//43 54//54
f 96//96 51//51 55//55
f 99//99 49//49 56//56
f 102//102 47//47 57//57
f 105//105 59//59 58//58
f 108//108 61//61 60//60
f 111//111 63//63 62//62
f 114//114 65//65 64//64
f 117//117 67//67 66//66
f 119//119 58//58 68//68
f 121//121 60//60 69//69
f 123//123 62//62 70//70
f 125//125 64//64 71//71
f 127//127 66//66 72//72
f 74//74 11//11 46//46
f 77//77 8//8 48//48
f 80//80 20//20 50//50
f 83//83 17//17 52//52
f 86//86 14//14 44//44
f 89//89 68//68 42//42
f 92//92 69//69 30//30
f 95//95 70//70 33//33
f 98//98 71//71 36//36
f 101//101 72//72 39//39
f 104//104 29//29 61//61
f 107//107 32//32 63//63
f 110//110 35//35 65//65
f 113//113 38//38 67//67
f 116//116 41//41 59//59
f 118//118 53//53 12//12
f 120//120 54//54 15//15
f 122//122 55//55 18//18
f 124//124 56//56 21//21
f 126//126 57//57 9//9
f 129//129 75//75 74//74
f 131//131 78//78 77//77
f 133//133 81//81 80//80
f 135//135 84//84 83//83
f 137//137 87//87 86//86
f 138//138 90//90 89//89
f 139//139 93//93 92//92
f 140//140 96//96 95//95
f 141//141 99//99 98//98
f 142//142 102//102 101//101
f 144//144 105//105 104//104
f 146//146 108//108 107//107
f 148//148 111//111 110//110
f 150//150 114//114 113//113
f 152//152 117//117 116//116
f 153//153 119//119 118//118
f 154//154 121//121 120//120
f 155//155 123//123 122//122
f 156//156 125//125 124//124
f 157//157 127//127 126//126
