# Created by Open3D 
# object name: part_001
# number of vertices: 162
# number of triangles: 320
v 0.794257 3.14648 3.21
vn 0.042969 -0.280861 0.958786
v 0.771822 3.16759 3.21338
vn -0.181612 -0.0448843 0.982345
v 0.774798 3.1309 3.20377
vn -0.258541 -0.376276 0.889704
v 0.798726 3.10038 3.19127
vn 0.0609372 -0.457547 0.887095
v 0.809554 3.13462 3.2033
vn 0.466662 -0.281874 0.838316
v 0.804945 3.17113 3.21293
vn 0.243525 0.00417687 0.969886
v 0.931595 1.77171 2.46789
vn 0.0786507 -0.638035 0.76598
v 0.909525 1.78227 2.47576
vn -0.238613 -0.575792 0.782002
v 0.913024 1.75414 2.45039
vn -0.104306 -0.818741 0.564609
v 0.838658 2.46629 2.82113
vn -0.992974 -0.114762 0.0288345
v 0.774139 3.11064 3.15997
vn -0.993571 -0.110944 0.0225265
v 0.836775 2.47866 2.79786
vn -0.994149 -0.107058 0.0143446
v 0.74161 3.38345 2.843
vn -0.997711 -0.0528303 0.0422059
v 0.7419 3.3925 2.8478
vn -0.726226 0.584159 0.362428
v 0.717714 3.56696 2.50105
vn -0.998128 -0.0124053 0.059891
v 0.778902 3.38745 2.8425
vn 0.987022 0.159829 0.0155533
v 0.803812 3.1999 3.16148
vn 0.991739 0.128272 -0.00100355
v 0.757782 3.54768 2.50869
vn 0.991674 0.128758 -0.0019172
v 0.863604 2.61247 2.89726
vn 0.995158 0.0982622 0.00213613
v 0.939137 1.85441 2.50138
vn 0.995982 0.0862947 0.0239471
v 0.941322 1.83357 2.4678
vn 0.994829 0.101462 -0.00457788
v 0.877215 2.18258 1.69668
vn -0.0429691 0.280862 -0.958786
v 0.859678 2.1572 1.69385
vn -0.213014 0.00259911 -0.977046
v 0.855068 2.19371 1.70348
vn -0.355907 0.310439 -0.881452
v 0.872312 2.22864 1.71542
vn -0.0609372 0.457547 -0.887095
v 0.889824 2.19744 1.70301
vn 0.37394 0.371943 -0.849604
v 0.8928 2.16075 1.6934
vn 0.213048 0.0447416 -0.976017
v 0.786833 2.85785 2.08617
vn -0.995158 -0.0982623 -0.00213591
v 0.851297 2.21349 1.74734
vn -0.994765 -0.102103 0.00417462
v 0.788233 2.84543 2.10945
vn -0.994289 -0.105999 0.0123576
v 0.739877 3.55736 2.4388
vn -0.0786507 0.638035 -0.76598
v 0.720342 3.54234 2.43148
vn -0.375839 0.509955 -0.773751
v 0.718476 3.57064 2.45684
vn -0.290323 0.776456 -0.55931
v 0.811779 3.00404 2.1623
vn 0.992974 0.114762 -0.0288347
v 0.763872 3.47804 2.40488
vn 0.990595 0.126904 -0.0511612
v 0.762486 3.49896 2.43845
vn 0.993483 0.111804 -0.0221512
v 0.923012 1.94488 2.06379
vn 0.997711 0.0528302 -0.042206
v 0.899152 2.13255 1.74479
vn 0.996074 0.0847186 -0.02569
v 0.945182 1.78477 2.39757
vn 0.996138 0.0842319 -0.0247767
v 0.885721 1.94089 2.06429
vn -0.987022 -0.159829 -0.0155531
v 0.887793 1.93209 2.05945
vn -0.595363 -0.725766 -0.344682
v 0.910326 1.75745 2.40622
vn -0.979336 -0.199473 -0.0333348
v 0.765471 3.19579 3.16199
vn -0.996074 -0.0847187 0.02569
v 0.766014 3.20203 3.18602
vn -0.997703 -0.015615 0.0659137
v 0.90075 1.85029 2.5019
vn -0.990633 -0.126723 0.0508707
v 0.778768 3.07135 3.16104
vn -0.990679 -0.126263 0.0511191
v 0.944281 1.78599 2.4753
vn 0.485708 -0.472499 0.735413
v 0.927365 1.81269 2.49616
vn 0.0632756 -0.48095 0.874462
v 0.813325 3.11484 3.15944
vn 0.99476 0.102162 -0.00405315
v 0.817155 3.07546 3.16052
vn 0.995948 0.0864583 0.0247547
v 0.77683 3.39624 2.84733
vn 0.729189 0.623955 0.281005
v 0.802596 3.20595 3.18553
vn 0.97976 0.196266 0.0393589
v 0.902137 1.82938 2.46833
vn -0.993499 -0.111671 0.0221339
v 0.719441 3.54357 2.50921
vn -0.996138 -0.0842318 0.0247767
v 0.754296 3.57088 2.50056
vn 0.979336 0.199474 0.0333351
v 0.862029 2.62666 2.87493
vn 0.994289 0.105999 -0.0123575
v 0.946146 1.75769 2.44994
vn 0.320814 -0.769471 0.552261
v 0.860811 2.12844 1.74531
vn -0.991739 -0.128272 0.00100358
v 0.862026 2.12238 1.72125
vn -0.97976 -0.196266 -0.0393588
v 0.725485 3.47393 2.4054
vn -0.995989 -0.0861395 -0.0241926
v 0.847468 2.25287 1.74626
vn -0.995943 -0.0865997 -0.0244407
v 0.755097 3.54607 2.43102
vn 0.354899 0.562569 -0.746702
v 0.743673 3.51633 2.41053
vn -0.0632755 0.48095 -0.874462
v 0.890483 2.21769 1.74681
vn 0.993569 0.110983 -0.0224477
v 0.885854 2.25698 1.74575
vn 0.990707 0.126146 -0.0508545
v 0.922723 1.93584 2.05899
vn 0.837088 -0.456133 -0.302038
v 0.898609 2.1263 1.72076
vn 0.997703 0.015615 -0.0659137
v 0.906841 1.78066 2.39809
vn -0.991674 -0.128758 0.00191714
v 0.7233 3.49476 2.43898
vn -0.994838 -0.101375 0.00456697
v 0.751598 3.57419 2.45639
vn 0.135761 0.818392 -0.558394
v 0.813487 2.99342 2.18652
vn 0.994149 0.107058 -0.0143447
v 0.946909 1.76137 2.40573
vn 0.998128 0.0124052 -0.059891
v 0.769089 3.16039 3.17132
vn -0.994808 -0.100001 0.0188763
v 0.77213 3.13711 3.18853
vn -0.992369 -0.113562 0.0480385
v 0.768281 3.17662 3.19461
vn -0.994621 -0.0905016 0.0503745
v 0.905928 1.80596 2.48545
vn -0.978018 -0.16766 0.123976
v 0.903469 1.84334 2.51361
vn -0.250969 -0.481359 0.839826
v 0.840855 2.45673 2.83924
vn -0.977652 -0.166765 0.128005
v 0.943033 1.80994 2.48496
vn 0.994214 0.0437867 0.0980928
v 0.864629 2.59605 2.91179
vn 0.993838 0.0444753 0.101532
v 0.938264 1.84707 2.51314
vn 0.507462 -0.371776 0.777345
v 0.808024 3.16456 3.1708
vn 0.993559 0.113048 -0.00782532
v 0.805992 3.18066 3.1941
vn 0.9922 0.122383 0.0236941
v 0.81044 3.14122 3.18802
vn 0.994822 0.0993605 0.0213534
v 0.762734 3.3976 2.84904
vn -0.0875709 0.876595 0.473195
v 0.767045 3.20909 3.19021
vn -0.281154 0.822346 0.494671
v 0.800205 3.21264 3.18977
vn 0.142179 0.862433 0.485792
v 0.905742 1.79248 2.43291
vn -0.993339 -0.114707 0.010938
v 0.909369 1.76431 2.43223
vn -0.989086 -0.145909 0.0204648
v 0.906589 1.79116 2.46197
vn -0.990602 -0.131245 0.038493
v 0.719946 3.53168 2.47439
vn -0.995028 -0.0983426 0.0157632
v 0.725414 3.4775 2.47311
vn -0.994271 -0.106052 0.0133443
v 0.744076 3.34946 2.82472
vn -0.994903 -0.0993529 0.0172223
v 0.752515 3.57853 2.47491
vn 0.796394 0.601899 -0.0589485
v 0.737937 3.58161 2.47521
vn -0.107252 0.991137 -0.0783917
v 0.75185 3.57799 2.50401
vn 0.138199 0.89248 0.429395
v 0.837779 2.81061 2.53102
vn 0.99422 0.106529 -0.0133511
v 0.764983 3.48174 2.47257
vn 0.994159 0.107104 -0.0133058
v 0.811066 3.13356 3.1261
vn 0.994188 0.106884 -0.012894
v 0.94747 1.75359 2.4314
vn 0.907095 -0.419377 0.036073
v 0.94708 1.76835 2.43173
vn 0.997735 0.0669751 -0.006215
v 0.946626 1.76989 2.45544
vn 0.998032 0.0188411 0.0598169
v 0.856599 2.16378 1.73598
vn -0.993559 -0.113048 0.00782528
v 0.854183 2.18712 1.71876
vn -0.994822 -0.0993607 -0.0213531
v 0.858631 2.14767 1.71268
vn -0.9922 -0.122383 -0.023694
v 0.721589 3.5184 2.42182
vn -0.994278 -0.0436659 -0.0974936
v 0.726358 3.48127 2.39364
vn -0.369442 0.414884 -0.831495
v 0.786475 2.8676 2.06804
vn -0.993838 -0.0444749 -0.101533
v 0.758695 3.52237 2.42133
vn 0.978093 0.16785 -0.123126
v 0.810249 3.00692 2.14059
vn 0.977652 0.166765 -0.128005
v 0.761153 3.48499 2.39317
vn 0.351087 0.473942 -0.807538
v 0.895534 2.16795 1.73546
vn 0.994808 0.100001 -0.0188762
v 0.896341 2.15171 1.71217
vn 0.994621 0.0905016 -0.0503745
v 0.892493 2.19122 1.71825
vn 0.992369 0.113562 -0.0480385
v 0.909194 1.93152 2.05764
vn 0.0875709 -0.876595 -0.473195
v 0.864417 2.11569 1.71701
vn -0.113609 -0.864645 -0.489369
v 0.897577 2.11924 1.71657
vn 0.308687 -0.814125 -0.491847
v 0.899639 1.8466 2.43421
vn -0.994169 -0.107006 0.0133579
v 0.881416 1.97468 2.08259
vn -0.99347 -0.113697 0.00947922
v 0.717543 3.55998 2.47505
vn -0.997735 -0.0669751 0.00621514
v 0.719723 3.53307 2.44532
vn -0.996589 -0.0816779 -0.0118082
v 0.755253 3.56402 2.47455
vn 0.989086 0.145909 -0.0204651
v 0.754506 3.56235 2.45085
vn 0.977426 0.192826 -0.0863452
v 0.939209 1.85084 2.43368
vn 0.994265 0.106116 -0.0133103
v 0.893126 2.19901 1.78015
vn 0.994236 0.106334 -0.01372
v 0.933873 1.74749 2.43147
vn 0.107252 -0.991137 0.0783917
v 0.945932 1.7539 2.40232
vn 0.312665 -0.844171 -0.43545
v 0.768719 3.18514 3.20668
vn -0.780953 0.227835 0.581553
v 0.771236 3.15619 3.20637
vn -0.984883 -0.118179 0.126642
v 0.775697 3.10959 3.18917
vn -0.978484 -0.162999 0.126494
v 0.781348 3.06579 3.1735
vn -0.251419 -0.476839 0.842267
v 0.863597 2.45577 2.84523
vn 0.0621119 -0.46929 0.880857
v 0.816143 3.06951 3.17303
vn 0.46437 -0.381983 0.799031
v 0.812803 3.11356 3.18867
vn 0.993805 0.0491421 0.0996875
v 0.807746 3.1601 3.20588
vn 0.990574 0.0934872 0.100113
v 0.804081 3.18893 3.2062
vn 0.831786 0.334475 0.44301
v 0.789763 3.19005 3.21018
vn -0.0400638 0.48351 0.874422
v 0.910116 1.76598 2.45593
vn -0.977426 -0.192826 0.0863452
v 0.771496 3.12932 3.12663
vn -0.994242 -0.10627 0.0137548
v 0.71869 3.57443 2.50446
vn -0.285173 0.852711 0.437676
v 0.783207 3.35366 2.82419
vn 0.99347 0.113697 -0.00947924
v 0.944899 1.79526 2.46146
vn 0.996589 0.0816779 0.0118082
v 0.860541 2.13941 1.70058
vn -0.730128 -0.389744 -0.56126
v 0.856876 2.16824 1.7009
vn -0.990574 -0.0934873 -0.100113
v 0.85182 2.21477 1.71811
vn -0.993812 -0.0483281 -0.100009
v 0.848479 2.25882 1.73375
vn -0.36899 0.410364 -0.833935
v 0.80833 2.87334 2.06145
vn -0.0621118 0.46929 -0.880857
v 0.883274 2.26255 1.73329
vn 0.396813 0.464236 -0.791849
v 0.888926 2.21875 1.71762
vn 0.978362 0.163558 -0.126718
v 0.893386 2.17215 1.70041
vn 0.984883 0.118179 -0.126642
v 0.895904 2.1432 1.7001
vn 0.8717 -0.15195 -0.465887
v 0.882047 2.13906 1.6965
vn 0.0400638 -0.48351 -0.874422
v 0.853557 2.19477 1.78068
vn -0.994198 -0.106787 0.0129474
v 0.717996 3.55844 2.45134
vn -0.998032 -0.0188411 -0.0598168
v 0.758033 3.53718 2.44481
vn 0.990602 0.131245 -0.038493
v 0.920547 1.97887 2.08207
vn 0.994903 0.0993531 -0.0172222
v 0.912772 1.75035 2.40277
vn -0.109589 -0.895009 -0.432376
v 0.912108 1.7498 2.43187
vn -0.685803 -0.724661 0.0673828
v 0.812427 2.66204 2.45366
vn -0.99422 -0.106529 0.0133511
v 0.717153 3.57474 2.47539
vn -0.825282 0.562754 -0.0470914
v 0.758881 3.53586 2.47387
vn 0.993339 0.114707 -0.010938
v 0.944676 1.79665 2.43239
vn 0.995028 0.0983428 -0.015763
f 1//1 2//2 3//3
f 1//1 3//3 4//4
f 1//1 4//4 5//5
f 1//1 5//5 6//6
f 1//1 6//6 2//2
f 7//7 8//8 9//9
f 10//10 11//11 12//12
f 13//13 14//14 15//15
f 16//16 17//17 18//18
f 19//19 20//20 21//21
f 22//22 23//23 24//24
f 22//22 24//24 25//25
f 22//22 25//25 26//26
f 22//22 26//26 27//27
f 22//22 27//27 23//23
f 28//28 29//29 30//30
f 31//31 32//32 33//33
f 34//34 35//35 36//36
f 37//37 38//38 39//39
f 40//40 41//41 42//42
f 13//13 43//43 44//44
f 10//10 45//45 46//46
f 7//7 47//47 48//48
f 19//19 49//49 50//50
f 16//16 51//51 52//52
f 10//10 53//53 45//45
f 13//13 54//54 43//43
f 16//16 55//55 51//51
f 19//19 56//56 49//49
f 7//7 57//57 47//47
f 40//40 58//58 59//59
f 28//28 60//60 61//61
f 31//31 62//62 63//63
f 34//34 64//64 65//65
f 37//37 66//66 67//67
f 40//40 68//68 58//58
f 28//28 69//69 60//60
f 31//31 70//70 62//62
f 34//34 71//71 64//64
f 37//37 72//72 66//66
f 10//10 46//46 11//11
f 7//7 48//48 8//8
f 19//19 50//50 20//20
f 16//16 52//52 17//17
f 13//13 44//44 14//14
f 40//40 42//42 68//68
f 28//28 30//30 69//69
f 31//31 33//33 70//70
f 34//34 36//36 71//71
f 37//37 39//39 72//72
f 28//28 61//61 29//29
f 31//31 63//63 32//32
f 34//34 65//65 35//35
f 37//37 67//67 38//38
f 40//40 59//59 41//41
f 10//10 12//12 53//53
f 13//13 15//15 54//54
f 16//16 18//18 55//55
f 19//19 21//21 56//56
f 7//7 9//9 57//57
f 73//73 74//74 75//75
f 76//76 77//77 78//78
f 79//79 80//80 81//81
f 82//82 83//83 84//84
f 85//85 86//86 87//87
f 88//88 89//89 90//90
f 91//91 92//92 93//93
f 94//94 95//95 96//96
f 97//97 98//98 99//99
f 100//100 101//101 102//102
f 103//103 104//104 105//105
f 106//106 107//107 108//108
f 109//109 110//110 111//111
f 112//112 113//113 114//114
f 115//115 116//116 117//117
f 88//88 118//118 119//119
f 91//91 120//120 121//121
f 94//94 122//122 123//123
f 97//97 124//124 125//125
f 100//100 126//126 127//127
f 128//128 129//129 2//2
f 130//130 131//131 3//3
f 132//132 133//133 4//4
f 134//134 135//135 5//5
f 136//136 137//137 6//6
f 76//76 138//138 8//8
f 73//73 139//139 11//11
f 85//85 140//140 14//14
f 82//82 141//141 17//17
f 79//79 142//142 20//20
f 143//143 144//144 23//23
f 145//145 146//146 24//24
f 147//147 148//148 25//25
f 149//149 150//150 26//26
f 151//151 152//152 27//27
f 103//103 153//153 29//29
f 106//106 154//154 32//32
f 109//109 155//155 35//35
f 112//112 156//156 38//38
f 115//115 157//157 41//41
f 73//73 75//75 43//43
f 76//76 78//78 45//45
f 79//79 81//81 47//47
f 82//82 84//84 49//49
f 85//85 87//87 51//51
f 88//88 90//90 53//53
f 91//91 93//93 54//54
f 94//94 96//96 55//55
f 97//97 99//99 56//56
f 100//100 102//102 57//57
f 103//103 105//105 58//58
f 106//106 108//108 60//60
f 109//109 111//111 62//62
f 112//112 114//114 64//64
f 115//115 117//117 66//66
f 88//88 119//119 68//68
f 91//91 121//121 69//69
f 94//94 123//123 70//70
f 97//97 125//125 71//71
f 100//100 127//127 72//72
f 130//130 74//74 46//46
f 132//132 77//77 48//48
f 134//134 80//80 50//50
f 136//136 83//83 52//52
f 128//128 86//86 44//44
f 158//158 89//89 42//42
f 159//159 92//92 30//30
f 160//160 95//95 33//33
f 161//161 98//98 36//36
f 162//162 101//101 39//39
f 145//145 104//104 61//61
f 147//147 107//107 63//63
f 149//149 110//110 65//65
f 151//151 113//113 67//67
f 143//143 116//116 59//59
f 159//159 118//118 12//12
f 160//160 120//120 15//15
f 161//161 122//122 18//18
f 162//162 124//124 21//21
f 158//158 126//126 9//9
f 130//130 129//129 74//74
f 132//132 131//131 77//77
f 134//134 133//133 80//80
f 136//136 135//135 83//83
f 128//128 137//137 86//86
f 158//158 138//138 89//89
f 159//159 139//139 92//92
f 160//160 140//140 95//95
f 161//161 141//141 98//98
f 162//162 142//142 101//101
f 145//145 144//144 104//104
f 147//147 146//146 107//107
f 149//149 148//148 110//110
f 151//151 150//150 113//113
f 143//143 152//152 116//116
f 159//159 153//153 118//118
f 160//160 154//154 120//120
f 161//161 155//155 122//122
f 162//162 156//156 124//124
f 158//158 157//157 126//126
f 130//130 3//3 129//129
f 132//132 4//4 131//131
f 134//134 5//5 133//133
f 136//136 6//6 135//135
f 128//128 2//2 137//137
f 158//158 9//9 138//138
f 159//159 12//12 139//139
f 160//160 15//15 140//140
f 161//161 18//18 141//141
f 162//162 21//21 142//142
f 145//145 24//24 144//144
f 147//147 25//25 146//146
f 149//149 26//26 148//148
f 151//151 27//27 150//150
f 143//143 23//23 152//152
f 159//159 30//30 153//153
f 160//160 33//33 154//154
f 161//161 36//36 155//155
f 162//162 39//39 156//156
f 158//158 42//42 157//157
f 128//128 44//44 75//75
f 130//130 46//46 78//78
f 132//132 48//48 81//81
f 134//134 50//50 84//84
f 136//136 52//52 87//87
f 76//76 45//45 90//90
f 73//73 43//43 93//93
f 85//85 51//51 96//96
f 82//82 49//49 99//99
f 79//79 47//47 102//102
f 143//143 59//59 105//105
f 145//145 61//61 108//108
f 147//147 63//63 111//111
f 149//149 65//65 114//114
f 151//151 67//67 117//117
f 103//103 58//58 119//119
f 106//106 60//60 121//121
f 109//109 62//62 123//123
f 112//112 64//64 125//125
f 115//115 66//66 127//127
f 73//73 11//11 74//74
f 76//76 8//8 77//77
f 79//79 20//20 80//80
f 82//82 17//17 83//83
f 85//85 14//14 86//86
f 88//88 68//68 89//89
f 91//91 69//69 92//92
f 94//94 70//70 95//95
f 97//97 71//71 98//98
f 100//100 72//72 101//101
f 103//103 29//29 104//104
f 106//106 32//32 107//107
f 109//109 35//35 110//110
f 112//112 38//38 113//113
f 115//115 41//41 116//116
f 88//88 53//53 118//118
f 91//91 54//54 120//120
f 94//94 55//55 122//122
f 97//97 56//56 124//124
f 100//100 57//57 126//126
f 128//128 75//75 129//129
f 130//130 78//78 131//131
f 132//132 81//81 133//133
f 134//134 84//84 135//135
f 136//136 87//87 137//137
f 76//76 90//90 138//138
f 73//73 93//93 139//139
f 85//85 96//96 140//140
f 82//82 99//99 141//141
f 79//79 102//102 142//142
f 143//143 105//105 144//144
f 145//145 108//108 146//146
f 147//147 111//111 148//148
f 149//149 114//114 150//150
f 151//151 117//117 152//152
f 103//103 119//119 153//153
f 106//106 121//121 154//154
f 109//109 123//123 155//155
f 112//112 125//125 156//156
f 115//115 127//127 157//157
f 129//129 3//3 2//2
f 131//131 4//4 3//3
f 133//133 5//5 4//4
f 135//135 6//6 5//5
f 137//137 2//2 6//6
f 138//138 9//9 8//8
f 139//139 12//12 11//11
f 140//140 15//15 14//14
f 141//141 18//18 17//17
f 142//142 21//21 20//20
f 144//144 24//24 23//23
f 146//146 25//25 24//24
f 148//148 26//26 25//25
f 150//150 27//27 26//26
f 152//152 23//23 27//27
f 153//153 30//30 29//29
f 154//154 33//33 32//32
f 155//155 36//36 35//35
f 156//156 39//39 38//38
f 157//157 42//42 41//41
f 75//75 44//44 43//43
f 78//78 46//46 45//45
f 81//81 48//48 47//47
f 84//84 50//50 49//49
f 87//87 52//52 51//51
f 90//90 45//45 53//53
f 93//93 43//43 54//54
f 96//96 51//51 55//55
f 99//99 49//49 56//56
f 102//102 47//47 57//57
f 105//105 59//59 58//58
f 108//108 61//61 60//60
f 111//111 63//63 62//62
f 114//114 65//65 64//64
f 117//117 67//67 66//66
f 119//119 58//58 68//68
f 121//121 60//60 69//69
f 123//123 62//62 70//70
f 125//125 64//64 71//71
f 127//127 66//66 72//72
f 74//74 11//11 46//46
f 77//77 8//8 48//48
f 80//80 20//20 50//50
f 83//83 17//17 52//52
f 86//86 14//14 44//44
f 89//89 68//68 42//42
f 92//92 69//69 30//30
f 95//95 70//70 33//33
f 98//98 71//71 36//36
f 101//101 72//72 39//39
f 104//104 29//29 61//61
f 107//107 32//32 63//63
f 110//110 35//35 65//65
f 113//113 38//38 67//67
f 116//116 41//41 59//59
f 118//118 53//53 12//12
f 120//120 54//54 15//15
f 122//122 55//55 18//18
f 124//124 56//56 21//21
f 126//126 57//57 9//9
f 129//129 75//75 74//74
f 131//131 78//78 77//77
f 133//133 81//81 80//80
f 135//135 84//84 83//83
f 137//137 87//87 86//86
f 138//138 90//90 89//89
f 139//139 93//93 92//92
f 140//140 96//96 95//95
f 141//141 99//99 98//98
f 142//142 102//102 101//101
f 144//144 105//105 104//104
f 146//146 108//108 107//107
f 148//148 111//111 110//110
f 150//150 114//114 113//113
f 152//152 117//117 116//116
f 153//153 119//119 118//118
f 154//154 121//121 120//120
f 155//155 123//123 122//122
f 156//156 125//125 124//124
f 157//157 127//127 126//126
