# Created by Open3D 
# object name: part_007
# number of vertices: 162
# number of triangles: 320
v -1.56594 2.08752 1.68303
vn -0.123252 0.99204 0.0257916
v -1.59816 2.08167 1.70262
vn -0.194049 0.97542 0.104405
v -1.54442 2.08875 1.70424
vn -0.102767 0.984593 0.141475
v -1.49356 2.09472 1.68427
vn -0.0762176 0.99674 0.0264525
v -1.54402 2.08971 1.6693
vn -0.0989655 0.985334 -0.139009
v -1.59778 2.08258 1.66932
vn -0.192874 0.978833 -0.0684544
v 0.724089 2.25435 1.71349
vn -0.0225274 0.999378 0.0271311
v 0.702063 2.25241 1.73412
vn -0.0447707 0.988817 0.142253
v 0.756288 2.25319 1.73393
vn 0.0478268 0.99304 0.107625
v -0.420651 2.163 1.72118
vn -0.0148854 0.0218556 0.99965
v -1.48758 2.08245 1.70694
vn -0.0136649 0.0011579 0.999906
v -0.419968 2.15362 1.72117
vn -0.0115279 -0.0242299 0.99964
v -1.61128 1.92752 1.70035
vn -0.0528972 -0.0303983 0.998137
v -1.62613 1.92647 1.69896
vn -0.616286 -0.0659697 0.784755
v -1.60287 1.78949 1.6963
vn -0.0822008 -0.0421457 0.995724
v -1.61086 1.92854 1.66285
vn -0.0303239 0.0243356 -0.999244
v -1.59763 2.06166 1.66612
vn -0.00592303 0.0275933 -0.999602
v -1.57838 1.79879 1.65914
vn -0.00571055 0.0246871 -0.999679
v -0.656732 2.14685 1.67869
vn 0.00768027 0.0765699 -0.997035
v 0.596471 2.24232 1.69585
vn 0.00272471 0.145453 -0.989361
v 0.647134 2.23901 1.69593
vn 0.00944526 0.0558127 -0.998397
v 0.746824 1.94379 1.70523
vn 0.123253 -0.99204 -0.0257928
v 0.77859 1.94854 1.72583
vn 0.192247 -0.979793 0.0551948
v 0.724829 1.94141 1.72585
vn 0.100155 -0.990926 0.0896393
v 0.674436 1.93658 1.70444
vn 0.0762175 -0.99674 -0.0264525
v 0.725224 1.94237 1.69091
vn 0.102689 -0.976304 -0.190486
v 0.778966 1.94945 1.69253
vn 0.194977 -0.973735 -0.117577
v -0.398986 1.86704 1.71331
vn -0.00768023 -0.0765704 0.997035
v 0.667943 1.94759 1.72761
vn -0.0089191 -0.0559156 0.998396
v -0.399675 1.8764 1.71381
vn -0.0110651 -0.0305516 0.999472
v -1.5432 1.77696 1.67478
vn 0.0225262 -0.999378 -0.0271323
v -1.52165 1.77775 1.69598
vn 0.0421577 -0.995151 0.0888669
v -1.57586 1.77701 1.69452
vn -0.0496299 -0.997414 0.0519774
v -0.635066 1.85088 1.67083
vn 0.0148853 -0.0218547 -0.99965
v -1.41523 1.78985 1.66071
vn 0.0198038 -0.0928059 -0.995487
v -1.46588 1.79319 1.65983
vn 0.013041 -0.0014226 -0.999914
v 0.79209 2.1036 1.69481
vn 0.0528971 0.0303983 -0.998137
v 0.77887 1.97051 1.69048
vn 0.0285132 0.0271805 -0.999224
v 0.759626 2.23339 1.69747
vn 0.0283002 0.0300864 -0.999147
v 0.791666 2.10257 1.7323
vn 0.0303238 -0.0243356 0.999244
v 0.80654 2.10369 1.73131
vn 0.598368 0.0225184 0.800905
v 0.783259 2.24062 1.73563
vn 0.059668 -0.0124916 0.99814
v -1.59806 2.0606 1.70467
vn -0.0285132 -0.0271804 0.999224
v -1.62306 2.06532 1.70363
vn -0.083607 -0.0229297 0.996235
v 0.596035 2.24126 1.73444
vn -0.0197527 0.0918624 0.995576
v -1.43794 2.09309 1.70739
vn -0.0201077 0.0918341 0.995571
v 0.702458 2.25336 1.69917
vn -0.0412188 0.989541 -0.138236
v 0.651421 2.25098 1.71279
vn -0.0697476 0.997212 0.0265385
v -1.48714 2.08353 1.66755
vn 0.00882796 0.0561297 -0.998384
v -1.4375 2.09414 1.6688
vn 0.00223737 0.147159 -0.98911
v -1.62573 1.92743 1.66384
vn -0.459916 -0.0100711 -0.887905
v -1.62264 2.06633 1.66685
vn -0.0610742 0.0317082 -0.997629
v 0.646689 2.23793 1.73532
vn -0.0131 0.00119716 0.999913
v -1.57882 1.79773 1.69768
vn -0.0283002 -0.0300864 0.999147
v -1.60245 1.79049 1.65952
vn -0.0596681 0.0124917 -0.99814
v -0.658968 2.13727 1.67816
vn 0.0110651 0.0305516 -0.999472
v 0.756664 2.2541 1.70063
vn 0.0507421 0.99658 -0.0652146
v 0.778434 1.96946 1.72903
vn 0.00592306 -0.0275933 0.999602
v 0.803451 1.96479 1.7283
vn 0.0610741 -0.0317082 0.997629
v -1.41566 1.7888 1.69931
vn -0.00267891 -0.146252 0.989244
v 0.61831 1.93697 1.72635
vn -0.0023238 -0.146224 0.989249
v -1.52126 1.77871 1.66104
vn 0.0449421 -0.980512 -0.191252
v -1.47054 1.78032 1.67591
vn 0.0697477 -0.997212 -0.0265385
v 0.668388 1.94867 1.68821
vn 0.0136055 -0.00101879 -0.999907
v 0.618746 1.93803 1.68776
vn 0.0200364 -0.091033 -0.995646
v 0.806937 2.10465 1.69619
vn 0.47984 0.0583906 -0.875411
v 0.803867 1.9658 1.69152
vn 0.0836068 0.0229297 -0.996235
v 0.759191 2.23233 1.73602
vn 0.00571055 -0.0246871 0.999679
v -1.46633 1.79211 1.69923
vn -0.00948376 -0.055959 0.998388
v -1.57548 1.77793 1.66122
vn -0.0486383 -0.991483 -0.120815
v -0.638675 1.86005 1.67079
vn 0.0115279 0.0242299 -0.99964
v 0.783675 2.24163 1.69885
vn 0.0822007 0.0421457 -0.995724
v -1.55939 2.07235 1.70573
vn -0.0173719 -0.0228548 0.999588
v -1.54178 2.08301 1.7059
vn -0.0250282 0.0670516 0.997436
v -1.59669 2.07423 1.70474
vn -0.0378828 0.0412236 0.998432
v 0.66464 2.24865 1.73477
vn -0.0336472 0.312276 0.949395
v 0.596856 2.24627 1.73278
vn -0.0731476 0.987113 0.142327
v -0.421175 2.17032 1.72045
vn -0.0358829 0.319724 0.946831
v 0.665062 2.24967 1.69747
vn -0.0127332 0.364898 -0.930961
v -0.646164 2.15493 1.67996
vn -0.0146894 0.371117 -0.92847
v 0.597251 2.24723 1.6978
vn -0.0691216 0.985886 -0.152484
v -1.55894 2.07342 1.66658
vn 0.00522093 0.0319252 -0.999477
v -1.59626 2.07527 1.66683
vn -0.0153507 0.095857 -0.995277
v -1.54134 2.08406 1.66739
vn -0.00253833 0.121586 -0.992578
v -1.63062 1.9267 1.67767
vn -0.997269 -0.0726514 -0.0132602
v -1.63484 2.06467 1.70176
vn -0.960664 0.0520223 0.272797
v -1.63447 2.06558 1.66842
vn -0.94189 0.0672356 -0.329124
v 0.719207 2.23835 1.73603
vn -0.00594589 -0.0220226 0.99974
v 0.755861 2.24561 1.73602
vn 0.00508693 0.0443564 0.999003
v 0.700243 2.24634 1.73572
vn -0.0113439 0.0680535 0.997617
v -1.53884 1.7917 1.69827
vn -0.0166471 -0.032758 0.999325
v -1.46854 1.8056 1.69976
vn -0.0115345 -0.0280647 0.99954
v -1.55485 1.9316 1.70202
vn -0.0168694 -0.0277964 0.999471
v -1.59407 1.78171 1.65999
vn -0.185903 -0.658668 -0.729107
v -1.60019 1.78015 1.67405
vn -0.284269 -0.958291 -0.0294713
v -1.61425 1.78943 1.66108
vn -0.923344 -0.186106 -0.335858
v -0.649751 1.99859 1.67439
vn 0.0112966 0.0273908 -0.999561
v -1.46809 1.80669 1.65998
vn 0.010983 0.0267096 -0.999583
v -1.48735 2.06986 1.66698
vn 0.0108871 0.0280194 -0.999548
v 0.775282 2.25038 1.69961
vn 0.201916 0.697492 -0.687557
v 0.756289 2.24665 1.69811
vn 0.0276185 0.098987 -0.994705
v 0.73735 2.25244 1.69866
vn 0.0178438 0.314133 -0.949211
v 0.739751 1.9577 1.72857
vn -0.00522093 -0.0319252 0.999477
v 0.722152 1.94705 1.72776
vn 0.00253833 -0.121585 0.992578
v 0.777072 1.95585 1.72832
vn 0.0153507 -0.095857 0.995277
v -1.48425 1.78145 1.69768
vn 0.0123908 -0.363806 0.931392
v -1.41644 1.78389 1.69736
vn 0.0705257 -0.993471 0.0896758
v -0.398441 1.85977 1.7122
vn 0.0146894 -0.371117 0.92847
v -1.48383 1.78247 1.66038
vn 0.0331737 -0.310705 -0.949927
v -0.62343 1.84437 1.67171
vn 0.0358835 -0.319732 -0.946828
v -1.41605 1.78484 1.66237
vn 0.0731721 -0.980165 -0.184178
v 0.740194 1.95877 1.68943
vn 0.017372 0.0228548 -0.999588
v 0.777501 1.95689 1.69041
vn 0.0378829 -0.041224 -0.998432
v 0.722588 1.94811 1.68925
vn 0.0250284 -0.0670528 -0.997435
v 0.811508 2.10461 1.71014
vn 0.997269 0.0726514 0.01326
v 0.815273 1.96554 1.72673
vn 0.954291 -0.0674767 0.291162
v 0.81565 1.96645 1.69339
vn 0.949122 -0.0496958 -0.310962
v 0.648895 2.22443 1.73517
vn -0.0110587 -0.026717 0.999582
v 0.735209 2.09844 1.73247
vn -0.00572392 -0.0269845 0.999619
v -1.57548 1.78447 1.69704
vn -0.0276185 -0.098987 0.994705
v -1.51987 1.78372 1.69795
vn -0.0111464 -0.122583 0.992396
v -1.57505 1.7855 1.65913
vn -0.005087 -0.0443549 -0.999003
v -1.55613 1.77969 1.65979
vn 0.00379151 -0.261687 -0.965145
v 0.649345 2.22552 1.69539
vn 0.011485 0.0280598 -0.99954
v 0.66861 1.96235 1.68839
vn 0.0115804 0.0267563 -0.999575
v 0.781081 2.25117 1.71387
vn 0.284271 0.958291 0.0294721
v 0.795435 2.2426 1.70073
vn 0.930577 0.203646 -0.304229
v -1.61603 2.07523 1.70337
vn -0.344407 0.725772 0.595515
v -1.5788 2.08273 1.70457
vn -0.059698 0.257609 0.964403
v -1.50687 2.09045 1.7059
vn -0.0370819 0.312014 0.949354
v -1.43943 2.09793 1.7057
vn -0.0744541 0.987018 0.142307
v -0.421107 2.17347 1.6981
vn -0.072983 0.996981 0.0264954
v -1.43904 2.09889 1.67072
vn -0.0709587 0.988726 -0.131852
v -1.50645 2.09147 1.66859
vn -0.0160681 0.361961 -0.932055
v -1.57839 2.08373 1.66787
vn -0.0380622 0.310064 -0.949953
v -1.61563 2.0762 1.66782
vn -0.282596 0.66219 -0.694006
v -1.62186 2.07611 1.68192
vn -0.420813 0.906925 0.0200966
v 0.736935 2.25143 1.73537
vn -0.00379167 0.261681 0.965147
v -1.4878 2.06877 1.70676
vn -0.0116301 -0.0267585 0.999574
v -1.61463 1.78852 1.69442
vn -0.941804 -0.205608 0.26595
v -1.5544 1.93268 1.66268
vn 0.00572392 0.0269845 -0.999619
v 0.700678 2.2474 1.6972
vn 0.0111464 0.122582 -0.992396
v 0.796438 1.95492 1.72734
vn 0.331318 -0.757505 0.562508
v 0.759193 1.94738 1.72729
vn 0.0380624 -0.310064 0.949953
v 0.687261 1.93964 1.72656
vn 0.0158272 -0.363567 0.931434
v 0.619845 1.93223 1.72443
vn 0.071832 -0.993376 0.089693
v -0.398002 1.85785 1.68971
vn 0.072983 -0.996981 -0.0264954
v 0.62024 1.93319 1.68945
vn 0.0744964 -0.976001 -0.204625
v 0.687682 1.94067 1.68926
vn 0.0369038 -0.313166 -0.948981
v 0.759608 1.94839 1.69058
vn 0.0596982 -0.257609 -0.964403
v 0.796839 1.95589 1.69178
vn 0.298607 -0.623371 -0.722664
v 0.802747 1.9552 1.70601
vn 0.420812 -0.906925 -0.0200959
v 0.668161 1.96126 1.72818
vn -0.0109631 -0.0280231 0.999547
v -1.55654 1.77868 1.69649
vn -0.0178438 -0.314131 0.949212
v -1.51944 1.78478 1.65943
vn 0.0113437 -0.068052 -0.997617
v 0.735653 2.09951 1.69313
vn 0.0168694 0.0277965 -0.999471
v 0.795058 2.24169 1.73407
vn 0.935432 0.190154 0.298008
v 0.77488 2.2494 1.73516
vn 0.219728 0.76687 0.603017
v -0.409822 2.01501 1.71757
vn -0.0112966 -0.0273908 0.999561
v -1.59447 1.78074 1.69554
vn -0.232815 -0.798604 0.555004
v -1.5384 1.79277 1.65912
vn 0.00594588 0.0220226 -0.99974
v 0.719649 2.23942 1.69688
vn 0.0166471 0.032758 -0.999325
f 1//1 2//2 3//3
f 1//1 3//3 4//4
f 1//1 4//4 5//5
f 1//1 5//5 6//6
f 1//1 6//6 2//2
f 7//7 8//8 9//9
f 10//10 11//11 12//12
f 13//13 14//14 15//15
f 16//16 17//17 18//18
f 19//19 20//20 21//21
f 22//22 23//23 24//24
f 22//22 24//24 25//25
f 22//22 25//25 26//26
f 22//22 26//26 27//27
f 22//22 27//27 23//23
f 28//28 29//29 30//30
f 31//31 32//32 33//33
f 34//34 35//35 36//36
f 37//37 38//38 39//39
f 40//40 41//41 42//42
f 13//13 43//43 44//44
f 10//10 45//45 46//46
f 7//7 47//47 48//48
f 19//19 49//49 50//50
f 16//16 51//51 52//52
f 10//10 53//53 45//45
f 13//13 54//54 43//43
f 16//16 55//55 51//51
f 19//19 56//56 49//49
f 7//7 57//57 47//47
f 40//40 58//58 59//59
f 28//28 60//60 61//61
f 31//31 62//62 63//63
f 34//34 64//64 65//65
f 37//37 66//66 67//67
f 40//40 68//68 58//58
f 28//28 69//69 60//60
f 31//31 70//70 62//62
f 34//34 71//71 64//64
f 37//37 72//72 66//66
f 10//10 46//46 11//11
f 7//7 48//48 8//8
f 19//19 50//50 20//20
f 16//16 52//52 17//17
f 13//13 44//44 14//14
f 40//40 42//42 68//68
f 28//28 30//30 69//69
f 31//31 33//33 70//70
f 34//34 36//36 71//71
f 37//37 39//39 72//72
f 28//28 61//61 29//29
f 31//31 63//63 32//32
f 34//34 65//65 35//35
f 37//37 67//67 38//38
f 40//40 59//59 41//41
f 10//10 12//12 53//53
f 13//13 15//15 54//54
f 16//16 18//18 55//55
f 19//19 21//21 56//56
f 7//7 9//9 57//57
f 73//73 74//74 75//75
f 76//76 77//77 78//78
f 79//79 80//80 81//81
f 82//82 83//83 84//84
f 85//85 86//86 87//87
f 88//88 89//89 90//90
f 91//91 92//92 93//93
f 94//94 95//95 96//96
f 97//97 98//98 99//99
f 100//100 101//101 102//102
f 103//103 104//104 105//105
f 106//106 107//107 108//108
f 109//109 110//110 111//111
f 112//112 113//113 114//114
f 115//115 116//116 117//117
f 88//88 118//118 119//119
f 91//91 120//120 121//121
f 94//94 122//122 123//123
f 97//97 124//124 125//125
f 100//100 126//126 127//127
f 128//128 129//129 2//2
f 130//130 131//131 3//3
f 132//132 133//133 4//4
f 134//134 135//135 5//5
f 136//136 137//137 6//6
f 76//76 138//138 8//8
f 73//73 139//139 11//11
f 85//85 140//140 14//14
f 82//82 141//141 17//17
f 79//79 142//142 20//20
f 143//143 144//144 23//23
f 145//145 146//146 24//24
f 147//147 148//148 25//25
f 149//149 150//150 26//26
f 151//151 152//152 27//27
f 103//103 153//153 29//29
f 106//106 154//154 32//32
f 109//109 155//155 35//35
f 112//112 156//156 38//38
f 115//115 157//157 41//41
f 73//73 75//75 43//43
f 76//76 78//78 45//45
f 79//79 81//81 47//47
f 82//82 84//84 49//49
f 85//85 87//87 51//51
f 88//88 90//90 53//53
f 91//91 93//93 54//54
f 94//94 96//96 55//55
f 97//97 99//99 56//56
f 100//100 102//102 57//57
f 103//103 105//105 58//58
f 106//106 108//108 60//60
f 109//109 111//111 62//62
f 112//112 114//114 64//64
f 115//115 117//117 66//66
f 88//88 119//119 68//68
f 91//91 121//121 69//69
f 94//94 123//123 70//70
f 97//97 125//125 71//71
f 100//100 127//127 72//72
f 130//130 74//74 46//46
f 132//132 77//77 48//48
f 134//134 80//80 50//50
f 136//136 83//83 52//52
f 128//128 86//86 44//44
f 158//158 89//89 42//42
f 159//159 92//92 30//30
f 160//160 95//95 33//33
f 161//161 98//98 36//36
f 162//162 101//101 39//39
f 145//145 104//104 61//61
f 147//147 107//107 63//63
f 149//149 110//110 65//65
f 151//151 113//113 67//67
f 143//143 116//116 59//59
f 159//159 118//118 12//12
f 160//160 120//120 15//15
f 161//161 122//122 18//18
f 162//162 124//124 21//21
f 158//158 126//126 9//9
f 130//130 129//129 74//74
f 132//132 131//131 77//77
f 134//134 133//133 80//80
f 136//136 135//135 83//83
f 128//128 137//137 86//86
f 158//158 138//138 89//89
f 159//159 139//139 92//92
f 160//160 140//140 95//95
f 161//161 141//141 98//98
f 162//162 142//142 101//101
f 145//145 144//144 104//104
f 147//147 146//146 107//107
f 149//149 148//148 110//110
f 151//151 150//150 113//113
f 143//143 152//152 116//116
f 159//159 153//153 118//118
f 160//160 154//154 120//120
f 161//161 155//155 122//122
f 162//162 156//156 124//124
f 158//158 157//157 126//126
f 130//130 3//3 129//129
f 132//132 4//4 131//131
f 134//134 5//5 133//133
f 136//136 6//6 135//135
f 128//128 2//2 137//137
f 158//158 9//9 138//138
f 159//159 12//12 139//139
f 160//160 15//15 140//140
f 161//161 18//18 141//141
f 162//162 21//21 142//142
f 145//145 24//24 144//144
f 147//147 25//25 146//146
f 149//149 26//26 148//148
f 151//151 27//27 150//150
f 143//143 23//23 152//152
f 159//159 30//30 153//153
f 160//160 33//33 154//154
f 161//161 36//36 155//155
f 162//162 39//39 156//156
f 158//158 42//42 157//157
f 128//128 44//44 75//75
f 130//130 46//46 78//78
f 132//132 48//48 81//81
f 134//134 50//50 84//84
f 136//136 52//52 87//87
f 76//76 45//45 90//90
f 73//73 43//43 93//93
f 85//85 51//51 96//96
f 82//82 49//49 99//99
f 79//79 47//47 102//102
f 143//143 59//59 105//105
f 145//145 61//61 108//108
f 147//147 63//63 111//111
f 149//149 65//65 114//114
f 151//151 67//67 117//117
f 103//103 58//58 119//119
f 106//106 60//60 121//121
f 109//109 62//62 123//123
f 112//112 64//64 125//125
f 115//115 66//66 127//127
f 73//73 11//11 74//74
f 76//76 8//8 77//77
f 79//79 20//20 80//80
f 82//82 17//17 83//83
f 85//85 14//14 86//86
f 88//88 68//68 89//89
f 91//91 69//69 92//92
f 94//94 70//70 95//95
f 97//97 71//71 98//98
f 100//100 72//72 101//101
f 103//103 29//29 104//104
f 106//106 32//32 107//107
f 109//109 35//35 110//110
f 112//112 38//38 113//113
f 115//115 41//41 116//116
f 88//88 53//53 118//118
f 91//91 54//54 120//120
f 94//94 55//55 122//122
f 97//97 56//56 124//124
f 100//100 57//57 126//126
f 128//128 75//75 129//129
f 130//130 78//78 131//131
f 132//132 81//81 133//133
f 134//134 84//84 135//135
f 136//136 87//87 137//137
f 76//76 90//90 138//138
f 73//73 93//93 139//139
f 85//85 96//96 140//140
f 82//82 99//99 141//141
f 79//79 102//102 142//142
f 143//143 105//105 144//144
f 145//145 108//108 146//146
f 147//147 111//111 148//148
f 149//149 114//114 150//150
f 151//151 117//117 152//152
f 103//103 119//119 153//153
f 106//106 121//121 154//154
f 109//109 123//123 155//155
f 112//112 125//125 156//156
f 115//115 127//127 157//157
f 129//129 3//3 2//2
f 131//131 4//4 3//3
f 133//133 5//5 4//4
f 135//135 6//6 5//5
f 137//137 2//2 6//6
f 138//138 9//9 8//8
f 139//139 12//12 11//11
f 140//140 15//15 14//14
f 141//141 18//18 17//17
f 142//142 21//21 20//20
f 144//144 24//24 23//23
f 146//146 25//25 24//24
f 148//148 26//26 25//25
f 150//150 27//27 26//26
f 152//152 23//23 27//27
f 153//153 30//30 29//29
f 154//154 33//33 32//32
f 155//155 36//36 35//35
f 156//156 39//39 38//38
f 157//157 42//42 41//41
f 75//75 44//44 43//43
f 78//78 46//46 45//45
f 81//81 48//48 47//47
f 84//84 50//50 49//49
f 87//87 52//52 51//51
f 90//90 45//45 53//53
f 93//93 43//43 54//54
f 96//96 51//51 55//55
f 99//99 49//49 56//56
f 102//102 47//47 57//57
f 105//105 59//59 58//58
f 108//108 61//61 60//60
f 111//111 63//63 62//62
f 114//114 65//65 64//64
f 117//117 67//67 66//66
f 119//119 58//58 68//68
f 121//121 60//60 69//69
f 123//123 62//62 70//70
f 125//125 64//64 71//71
f 127//127 66//66 72//72
f 74//74 11//11 46//46
f 77//77 8//8 48//48
f 80//80 20//20 50//50
f 83//83 17//17 52//52
f 86//86 14//14 44//44
f 89//89 68//68 42//42
f 92//92 69//69 30//30
f 95//95 70//70 33//33
f 98//98 71//71 36//36
f 101//101 72//72 39//39
f 104//104 29//29 61//61
f 107//107 32//32 63//63
f 110//110 35//35 65//65
f 113//113 38//38 67//67
f 116//116 41//41 59//59
f 118//118 53//53 12//12
f 120//120 54//54 15//15
f 122//122 55//55 18//18
f 124//124 56//56 21//21
f 126//126 57//57 9//9
f 129//129 75//75 74//74
f 131//131 78//78 77//77
f 133//133 81//81 80//80
f 135//135 84//84 83//83
f 137//137 87//87 86//86
f 138//138 90//90 89//89
f 139//139 93//93 92//92
f 140//140 96//96 95//95
f 141//141 99//99 98//98
f 142//142 102//102 101//101
f 144//144 105//105 104//104
f 146//146 108//108 107//107
f 148//148 111//111 110//110
f 150//150 114//114 113//113
f 152//152 117//117 116//116
f 153//153 119//119 118//118
f 154//154 121//121 120//120
f 155//155 123//123 122//122
f 156//156 125//125 124//124
f 157//157 127//127 126//126
