# Created by Open3D 
# object name: part_013
# number of vertices: 162
# number of triangles: 320
v -1.85469 2.47781 1.77343
vn -0.0800486 -0.195725 0.977386
v -1.88059 2.42809 1.75491
vn 0.0272444 -0.548833 0.835488
v -1.81388 2.48719 1.77436
vn 0.299623 -0.488535 0.819487
v -1.76597 2.55895 1.78846
vn 0.0188061 -0.104995 0.994295
v -1.83771 2.51258 1.77749
vn -0.453282 0.331022 0.827623
v -1.9033 2.45228 1.75789
vn -0.470072 -0.0118405 0.882548
v 0.934681 5.07382 1.95894
vn 0.130798 0.000506146 0.991409
v 0.92245 5.03384 1.95634
vn 0.407123 -0.388485 0.826638
v 0.987254 5.09714 1.94564
vn 0.484832 -0.122965 0.86592
v -0.445141 3.76248 1.82925
vn 0.681955 -0.727083 -0.0792999
v -1.7453 2.55407 1.72936
vn 0.681743 -0.726797 -0.0836236
v -0.446129 3.76674 1.78446
vn 0.681743 -0.726168 -0.0889128
v -1.92745 2.47123 1.0251
vn 0.663139 -0.742973 -0.0907653
v -1.94636 2.45525 1.02401
vn 0.312115 -0.944585 -0.101708
v -1.94673 2.53491 0.366178
vn 0.649368 -0.754693 -0.0935995
v -1.95302 2.49847 1.02846
vn -0.699885 0.708774 0.0883215
v -1.90937 2.46249 1.65822
vn -0.689235 0.719005 0.0893675
v -1.94174 2.58701 0.4025
vn -0.689251 0.719065 0.0887618
v -0.760073 3.52293 1.81362
vn -0.681426 0.725046 0.0998352
v 0.767539 4.94169 1.93501
vn -0.680802 0.723485 0.114361
v 0.827489 5.00213 1.90578
vn -0.681459 0.725599 0.095501
v 0.89644 5.22092 0.475417
vn 0.0800457 0.195727 -0.977386
v 0.94974 5.24144 0.490331
vn 0.439394 0.0518178 -0.896798
v 0.884155 5.18115 0.470739
vn 0.362447 -0.216632 -0.906478
v 0.808012 5.13946 0.460348
vn -0.0188073 0.104996 -0.994295
v 0.860323 5.20653 0.47387
vn -0.396831 0.574429 -0.715931
v 0.927029 5.26563 0.493316
vn -0.0629204 0.579526 -0.812521
v -0.481586 3.90267 0.415448
vn 0.681425 -0.725046 -0.0998368
v 0.818607 5.11104 0.515335
vn 0.681686 -0.725384 -0.0955158
v -0.480265 3.89805 0.460201
vn 0.681709 -0.726038 -0.0902303
v -1.89294 2.62491 0.289907
vn -0.1308 -0.000504636 -0.991409
v -1.85218 2.6345 0.288756
vn 0.254948 -0.316684 -0.913626
v -1.9181 2.5724 0.299603
vn -0.0181947 -0.374045 -0.927232
v -0.796517 3.66312 0.399813
vn -0.681955 0.727083 0.0792985
v -1.74742 2.78007 0.316671
vn -0.682244 0.728287 0.0643516
v -1.80792 2.72021 0.345972
vn -0.682027 0.726538 0.0835594
v 0.973896 5.22249 1.22312
vn -0.66314 0.742972 0.0907654
v 0.929521 5.25923 0.593457
vn -0.674146 0.733123 0.0897663
v 0.961891 5.13472 1.84918
vn -0.67413 0.733063 0.0903722
v 0.999466 5.19526 1.21976
vn 0.699885 -0.708773 -0.0883215
v 1.01676 5.21297 1.22107
vn 0.925564 -0.373659 -0.0609099
v 1.01826 5.1321 1.87875
vn 0.712803 -0.696149 -0.0853757
v -1.88308 2.43449 1.65477
vn 0.674146 -0.733123 -0.0897662
v -1.91277 2.40425 1.68382
vn 0.649471 -0.755091 -0.0895875
v 0.793861 4.91365 1.93156
vn 0.682234 -0.728278 -0.0645577
v -1.68363 2.6079 1.76679
vn 0.682077 -0.728425 -0.0645665
v 0.898619 5.05922 1.95947
vn -0.356881 0.420743 0.834033
v 0.846727 4.99054 1.96222
vn 0.0324745 -0.092274 0.995204
v -1.77216 2.58269 1.73289
vn -0.681717 0.725348 0.0955592
v -1.70995 2.63594 1.77025
vn -0.680945 0.723293 0.11472
v -1.97032 2.48076 1.02715
vn -0.872806 0.482965 0.0703883
v -1.93785 2.43097 1.68712
vn -0.712701 0.69575 0.0893875
v 0.854358 4.97351 1.90225
vn 0.681992 -0.726564 -0.0836085
v -1.91545 2.55901 0.399046
vn 0.674131 -0.733063 -0.0903722
v -1.97182 2.56163 0.369474
vn -0.712804 0.696148 0.0853755
v -0.764956 3.52423 1.76863
vn -0.681709 0.726038 0.0902304
v 0.964543 5.12133 1.94862
vn -0.018449 0.408469 0.912586
v 0.955811 5.23123 0.590002
vn 0.689235 -0.719005 -0.0893675
v 0.984293 5.26275 0.561109
vn 0.712701 -0.69575 -0.0893875
v -1.7211 2.75204 0.313212
vn 0.680789 -0.72347 -0.114531
v 0.756391 5.05779 0.47798
vn 0.680946 -0.723323 -0.114522
v -1.87601 2.65988 0.291887
vn -0.493237 0.484712 -0.722338
v -1.80468 2.70787 0.286588
vn -0.0324763 0.0922759 -0.995204
v 0.791737 5.13966 0.518865
vn -0.681764 0.726774 0.0836531
v 0.73007 5.08582 0.481439
vn -0.682081 0.728405 0.0647344
v 0.992806 5.23848 1.22422
vn -0.425204 0.899539 0.100157
v 0.959208 5.28947 0.564405
vn -0.649469 0.755092 0.0895876
v 0.988181 5.10672 1.84573
vn 0.68925 -0.719066 -0.0887619
v -1.78105 2.69159 0.342442
vn 0.681436 -0.725616 -0.0955324
v -1.94081 2.59659 0.302587
vn -0.51454 0.159214 -0.842556
v -0.799092 3.65554 0.444373
vn -0.681743 0.726168 0.0889131
v 0.993174 5.15882 1.88205
vn -0.649368 0.754692 0.0935993
v -1.83388 2.47465 1.70039
vn 0.679227 -0.728548 -0.0887066
v -1.81067 2.49119 1.74641
vn 0.679064 -0.730743 -0.0699056
v -1.87878 2.43102 1.71921
vn 0.672468 -0.736261 -0.0755389
v 0.877478 4.99096 1.94844
vn 0.682532 -0.73071 -0.0146043
v 0.79464 4.91397 1.9551
vn 0.356403 -0.439434 0.824545
v -0.444873 3.75969 1.86419
vn 0.681679 -0.73154 -0.0127789
v 0.852035 5.01806 1.95178
vn -0.677175 0.717248 0.164284
v -0.745008 3.5314 1.84929
vn -0.677735 0.716365 0.165822
v 0.770781 4.93938 1.95824
vn -0.426798 0.402912 0.809633
v -1.86057 2.50309 1.70389
vn -0.684216 0.72365 0.0904356
v -1.90464 2.45856 1.72261
vn -0.690722 0.715664 0.103572
v -1.83694 2.51917 1.74987
vn -0.684106 0.721161 0.109201
v -1.9666 2.46531 1.02553
vn -0.731159 -0.680472 -0.0486263
v -1.92828 2.39206 1.68377
vn -0.352936 -0.934744 -0.0411014
v -1.95102 2.41628 1.68676
vn -0.970358 -0.237911 0.0424646
v 0.941573 5.0577 1.88497
vn 0.68427 -0.723854 -0.0883716
v 0.986758 5.09792 1.90979
vn 0.691479 -0.718568 -0.0742714
v 0.920234 5.03279 1.92804
vn 0.685129 -0.725098 -0.069501
v -1.86843 2.60759 0.359748
vn 0.679174 -0.728342 -0.0907709
v -1.78072 2.68364 0.407209
vn 0.681597 -0.726207 -0.0897163
v -1.85807 2.53455 1.02959
vn 0.679263 -0.728388 -0.0897348
v -1.96316 2.57433 0.325492
vn -0.805716 0.581933 -0.110341
v -1.96092 2.55758 0.320198
vn -0.555885 -0.434488 -0.708669
v -1.98502 2.54708 0.367615
vn -0.972452 -0.229859 -0.0387666
v -0.783211 3.58888 1.10643
vn -0.681727 0.726103 0.0895718
v -1.80785 2.71254 0.410774
vn -0.68189 0.725968 0.0894247
v -1.77545 2.58788 1.66793
vn -0.681883 0.725941 0.0896976
v 0.985358 5.14522 1.92592
vn -0.50585 0.814998 0.282656
v 0.960901 5.12546 1.91318
vn -0.671712 0.733357 0.104835
v 0.939768 5.10077 1.94576
vn -0.665838 0.730381 0.152324
v 0.907014 5.19064 0.544332
vn 0.684216 -0.72365 -0.0904354
v 0.883381 5.17455 0.49836
vn 0.684106 -0.721161 -0.109204
v 0.951078 5.23517 0.525618
vn 0.690724 -0.715663 -0.103573
v -1.80559 2.67566 0.296443
vn 0.677076 -0.717401 -0.164023
v -1.72434 2.75435 0.289988
vn 0.309221 -0.269519 -0.911999
v -0.483114 3.9068 0.380677
vn 0.677734 -0.716365 -0.165825
v -1.83104 2.70276 0.299785
vn -0.682711 0.730534 0.0149951
v -0.78325 3.6785 0.365776
vn -0.681679 0.73154 0.012779
v -1.7482 2.77976 0.293123
vn -0.436204 0.518911 -0.735158
v 0.880317 5.21907 0.54784
vn -0.679227 0.728548 0.0887066
v 0.92522 5.26271 0.529016
vn -0.672469 0.736261 0.0755396
v 0.857112 5.20253 0.501812
vn -0.679064 0.730743 0.0699074
v 1.00804 5.23375 1.22336
vn 0.731159 0.680472 0.0486263
v 0.997462 5.27744 0.561469
vn 0.955304 0.293166 -0.0380434
v 0.974725 5.30166 0.564456
vn 0.29876 0.95323 0.0457765
v 0.854297 4.98118 1.83745
vn 0.681856 -0.725999 -0.0894272
v 0.931341 5.1306 1.21511
vn 0.684182 -0.723811 -0.0894077
v -1.91446 2.56827 0.335042
vn 0.671713 -0.733357 -0.104835
v -1.84752 2.63296 0.316738
vn 0.67804 -0.726807 -0.109603
v -1.94032 2.59581 0.33844
vn -0.691478 0.718569 0.0742736
v -1.91836 2.61962 0.305758
vn -0.694748 0.718767 0.0264337
v 0.827164 5.01008 1.84102
vn -0.681619 0.726187 0.0897146
v 0.794758 5.13474 0.583864
vn -0.681626 0.726214 0.0894429
v 1.00243 5.1414 1.92868
vn 0.555886 0.434487 0.708669
v 1.00873 5.17086 1.8836
vn 0.300856 0.945174 0.127007
v -1.90265 2.40902 1.72905
vn 0.439568 -0.884199 0.158027
v -1.85589 2.44894 1.75488
vn 0.669038 -0.742695 -0.0281507
v -1.76754 2.5293 1.77253
vn 0.680925 -0.732205 -0.0147218
v -1.68567 2.60559 1.79015
vn 0.353979 -0.441692 0.824382
v -0.459851 3.77478 1.8783
vn 0.0256413 -0.0986388 0.994793
v -1.70953 2.63101 1.79328
vn -0.395497 0.362327 0.84398
v -1.79299 2.5564 1.77587
vn -0.678883 0.715808 0.163511
v -1.88092 2.47561 1.75816
vn -0.691546 0.706454 0.150619
v -1.9269 2.43484 1.73224
vn -0.796082 0.54488 0.263362
v -1.92447 2.41739 1.73402
vn -0.521195 -0.567926 0.637037
v 0.964803 5.0741 1.94247
vn 0.694748 -0.718767 -0.0264365
v -1.74832 2.55899 1.66436
vn 0.681604 -0.726234 -0.089444
v -1.96229 2.52287 0.364627
vn -0.355105 -0.926406 -0.125194
v -1.8849 2.56313 1.03312
vn -0.684182 0.723811 0.0894077
v 0.893965 5.06077 1.93149
vn -0.67804 0.726807 0.109605
v 0.973343 5.25888 0.515989
vn 0.825077 -0.462762 -0.324192
v 0.927363 5.21812 0.490062
vn 0.691546 -0.706454 -0.150621
v 0.839428 5.13733 0.472352
vn 0.678683 -0.715906 -0.163913
v 0.755969 5.06272 0.454944
vn 0.311645 -0.267261 -0.911838
v -0.498716 3.92428 0.370589
vn -0.0256428 0.0986403 -0.994793
v 0.732111 5.08813 0.458079
vn -0.465504 0.551804 -0.691967
v 0.813985 5.16443 0.475696
vn -0.681037 0.732107 0.0144283
v 0.902329 5.24478 0.493351
vn -0.669038 0.742695 0.0281478
v 0.949095 5.28471 0.519175
vn -0.515477 0.852054 -0.0910329
v 0.965988 5.28159 0.514855
vn 0.521196 0.567927 -0.637035
v 0.82189 5.10584 0.580299
vn 0.681849 -0.725972 -0.0896994
v -1.89333 2.59296 0.302468
vn 0.665837 -0.730382 -0.152326
v -1.87379 2.66094 0.32019
vn -0.685129 0.725098 0.0695018
v 0.904509 5.15917 1.21863
vn -0.679263 0.728388 0.0897348
v 1.03147 5.14664 1.88061
vn 0.957472 0.284827 0.0460489
v 1.00961 5.1194 1.92273
vn 0.838191 -0.513205 0.184545
v -0.463145 3.83234 1.12232
vn 0.681727 -0.726103 -0.0895718
v -1.93892 2.5485 0.322306
vn 0.426455 -0.833755 -0.350698
v -1.89513 2.63602 0.363256
vn -0.68427 0.723854 0.0883715
v 0.914876 5.08614 1.88848
vn -0.679174 0.728342 0.0907709
f 1//1 2//2 3//3
f 1//1 3//3 4//4
f 1//1 4//4 5//5
f 1//1 5//5 6//6
f 1//1 6//6 2//2
f 7//7 8//8 9//9
f 10//10 11//11 12//12
f 13//13 14//14 15//15
f 16//16 17//17 18//18
f 19//19 20//20 21//21
f 22//22 23//23 24//24
f 22//22 24//24 25//25
f 22//22 25//25 26//26
f 22//22 26//26 27//27
f 22//22 27//27 23//23
f 28//28 29//29 30//30
f 31//31 32//32 33//33
f 34//34 35//35 36//36
f 37//37 38//38 39//39
f 40//40 41//41 42//42
f 13//13 43//43 44//44
f 10//10 45//45 46//46
f 7//7 47//47 48//48
f 19//19 49//49 50//50
f 16//16 51//51 52//52
f 10//10 53//53 45//45
f 13//13 54//54 43//43
f 16//16 55//55 51//51
f 19//19 56//56 49//49
f 7//7 57//57 47//47
f 40//40 58//58 59//59
f 28//28 60//60 61//61
f 31//31 62//62 63//63
f 34//34 64//64 65//65
f 37//37 66//66 67//67
f 40//40 68//68 58//58
f 28//28 69//69 60//60
f 31//31 70//70 62//62
f 34//34 71//71 64//64
f 37//37 72//72 66//66
f 10//10 46//46 11//11
f 7//7 48//48 8//8
f 19//19 50//50 20//20
f 16//16 52//52 17//17
f 13//13 44//44 14//14
f 40//40 42//42 68//68
f 28//28 30//30 69//69
f 31//31 33//33 70//70
f 34//34 36//36 71//71
f 37//37 39//39 72//72
f 28//28 61//61 29//29
f 31//31 63//63 32//32
f 34//34 65//65 35//35
f 37//37 67//67 38//38
f 40//40 59//59 41//41
f 10//10 12//12 53//53
f 13//13 15//15 54//54
f 16//16 18//18 55//55
f 19//19 21//21 56//56
f 7//7 9//9 57//57
f 73//73 74//74 75//75
f 76//76 77//77 78//78
f 79//79 80//80 81//81
f 82//82 83//83 84//84
f 85//85 86//86 87//87
f 88//88 89//89 90//90
f 91//91 92//92 93//93
f 94//94 95//95 96//96
f 97//97 98//98 99//99
f 100//100 101//101 102//102
f 103//103 104//104 105//105
f 106//106 107//107 108//108
f 109//109 110//110 111//111
f 112//112 113//113 114//114
f 115//115 116//116 117//117
f 88//88 118//118 119//119
f 91//91 120//120 121//121
f 94//94 122//122 123//123
f 97//97 124//124 125//125
f 100//100 126//126 127//127
f 128//128 129//129 2//2
f 130//130 131//131 3//3
f 132//132 133//133 4//4
f 134//134 135//135 5//5
f 136//136 137//137 6//6
f 76//76 138//138 8//8
f 73//73 139//139 11//11
f 85//85 140//140 14//14
f 82//82 141//141 17//17
f 79//79 142//142 20//20
f 143//143 144//144 23//23
f 145//145 146//146 24//24
f 147//147 148//148 25//25
f 149//149 150//150 26//26
f 151//151 152//152 27//27
f 103//103 153//153 29//29
f 106//106 154//154 32//32
f 109//109 155//155 35//35
f 112//112 156//156 38//38
f 115//115 157//157 41//41
f 73//73 75//75 43//43
f 76//76 78//78 45//45
f 79//79 81//81 47//47
f 82//82 84//84 49//49
f 85//85 87//87 51//51
f 88//88 90//90 53//53
f 91//91 93//93 54//54
f 94//94 96//96 55//55
f 97//97 99//99 56//56
f 100//100 102//102 57//57
f 103//103 105//105 58//58
f 106//106 108//108 60//60
f 109//109 111//111 62//62
f 112//112 114//114 64//64
f 115//115 117//117 66//66
f 88//88 119//119 68//68
f 91//91 121//121 69//69
f 94//94 123//123 70//70
f 97//97 125//125 71//71
f 100//100 127//127 72//72
f 130//130 74//74 46//46
f 132//132 77//77 48//48
f 134//134 80//80 50//50
f 136//136 83//83 52//52
f 128//128 86//86 44//44
f 158//158 89//89 42//42
f 159//159 92//92 30//30
f 160//160 95//95 33//33
f 161//161 98//98 36//36
f 162//162 101//101 39//39
f 145//145 104//104 61//61
f 147//147 107//107 63//63
f 149//149 110//110 65//65
f 151//151 113//113 67//67
f 143//143 116//116 59//59
f 159//159 118//118 12//12
f 160//160 120//120 15//15
f 161//161 122//122 18//18
f 162//162 124//124 21//21
f 158//158 126//126 9//9
f 130//130 129//129 74//74
f 132//132 131//131 77//77
f 134//134 133//133 80//80
f 136//136 135//135 83//83
f 128//128 137//137 86//86
f 158//158 138//138 89//89
f 159//159 139//139 92//92
f 160//160 140//140 95//95
f 161//161 141//141 98//98
f 162//162 142//142 101//101
f 145//145 144//144 104//104
f 147//147 146//146 107//107
f 149//149 148//148 110//110
f 151//151 150//150 113//113
f 143//143 152//152 116//116
f 159//159 153//153 118//118
f 160//160 154//154 120//120
f 161//161 155//155 122//122
f 162//162 156//156 124//124
f 158//158 157//157 126//126
f 130//130 3//3 129//129
f 132//132 4//4 131//131
f 134//134 5//5 133//133
f 136//136 6//6 135//135
f 128//128 2//2 137//137
f 158//158 9//9 138//138
f 159//159 12//12 139//139
f 160//160 15//15 140//140
f 161//161 18//18 141//141
f 162//162 21//21 142//142
f 145//145 24//24 144//144
f 147//147 25//25 146//146
f 149//149 26//26 148//148
f 151//151 27//27 150//150
f 143//143 23//23 152//152
f 159//159 30//30 153//153
f 160//160 33//33 154//154
f 161//161 36//36 155//155
f 162//162 39//39 156//156
f 158//158 42//42 157//157
f 128//128 44//44 75//75
f 130//130 46//46 78//78
f 132//132 48//48 81//81
f 134//134 50//50 84//84
f 136//136 52//52 87//87
f 76//76 45//45 90//90
f 73//73 43//43 93//93
f 85//85 51//51 96//96
f 82//82 49//49 99//99
f 79//79 47//47 102//102
f 143//143 59//59 105//105
f 145//145 61//61 108//108
f 147//147 63//63 111//111
f 149//149 65//65 114//114
f 151//151 67//67 117//117
f 103//103 58//58 119//119
f 106//106 60//60 121//121
f 109//109 62//62 123//123
f 112//112 64//64 125//125
f 115//115 66//66 127//127
f 73//73 11//11 74//74
f 76//76 8//8 77//77
f 79//79 20//20 80//80
f 82//82 17//17 83//83
f 85//85 14//14 86//86
f 88//88 68//68 89//89
f 91//91 69//69 92//92
f 94//94 70//70 95//95
f 97//97 71//71 98//98
f 100//100 72//72 101//101
f 103//103 29//29 104//104
f 106//106 32//32 107//107
f 109//109 35//35 110//110
f 112//112 38//38 113//113
f 115//115 41//41 116//116
f 88//88 53//53 118//118
f 91//91 54//54 120//120
f 94//94 55//55 122//122
f 97//97 56//56 124//124
f 100//100 57//57 126//126
f 128//128 75//75 129//129
f 130//130 78//78 131//131
f 132//132 81//81 133//133
f 134//134 84//84 135//135
f 136//136 87//87 137//137
f 76//76 90//90 138//138
f 73//73 93//93 139//139
f 85//85 96//96 140//140
f 82//82 99//99 141//141
f 79//79 102//102 142//142
f 143//143 105//105 144//144
f 145//145 108//108 146//146
f 147//147 111//111 148//148
f 149//149 114//114 150//150
f 151//151 117//117 152//152
f 103//103 119//119 153//153
f 106//106 121//121 154//154
f 109//109 123//123 155//155
f 112//112 125//125 156//156
f 115//115 127//127 157//157
f 129//129 3//3 2//2
f 131//131 4//4 3//3
f 133//133 5//5 4//4
f 135//135 6//6 5//5
f 137//137 2//2 6//6
f 138//138 9//9 8//8
f 139//139 12//12 11//11
f 140//140 15//15 14//14
f 141//141 18//18 17//17
f 142//142 21//21 20//20
f 144//144 24//24 23//23
f 146//146 25//25 24//24
f 148//148 26//26 25//25
f 150//150 27//27 26//26
f 152//152 23//23 27//27
f 153//153 30//30 29//29
f 154//154 33//33 32//32
f 155//155 36//36 35//35
f 156//156 39//39 38//38
f 157//157 42//42 41//41
f 75//75 44//44 43//43
f 78//78 46//46 45//45
f 81//81 48//48 47//47
f 84//84 50//50 49//49
f 87//87 52//52 51//51
f 90//90 45//45 53//53
f 93//93 43//43 54//54
f 96//96 51//51 55//55
f 99//99 49//49 56//56
f 102//102 47//47 57//57
f 105//105 59//59 58//58
f 108//108 61//61 60//60
f 111//111 63//63 62//62
f 114//114 65//65 64//64
f 117//117 67//67 66//66
f 119//119 58//58 68//68
f 121//121 60//60 69//69
f 123//123 62//62 70//70
f 125//125 64//64 71//71
f 127//127 66//66 72//72
f 74//74 11//11 46//46
f 77//77 8//8 48//48
f 80//80 20//20 50//50
f 83//83 17//17 52//52
f 86//86 14//14 44//44
f 89//89 68//68 42//42
f 92//92 69//69 30//30
f 95//95 70//70 33//33
f 98//98 71//71 36//36
f 101//101 72//72 39//39
f 104//104 29//29 61//61
f 107//107 32//32 63//63
f 110//110 35//35 65//65
f 113//113 38//38 67//67
f 116//116 41//41 59//59
f 118//118 53//53 12//12
f 120//120 54//54 15//15
f 122//122 55//55 18//18
f 124//124 56//56 21//21
f 126//126 57//57 9//9
f 129//129 75//75 74//74
f 131//131 78//78 77//77
f 133//133 81//81 80//80
f 135//135 84//84 83//83
f 137//137 87//87 86//86
f 138//138 90//90 89//89
f 139//139 93//93 92//92
f 140//140 96//96 95//95
f 141//141 99//99 98//98
f 142//142 102//102 101//101
f 144//144 105//105 104//104
f 146//146 108//108 107//107
f 148//148 111//111 110//110
f 150//150 114//114 113//113
f 152//152 117//117 116//116
f 153//153 119//119 118//118
f 154//154 121//121 120//120
f 155//155 123//123 122//122
f 156//156 125//125 124//124
f 157//157 127//127 126//126
