# Created by Open3D 
# object name: part_016
# number of vertices: 162
# number of triangles: 320
v -0.732234 1.47683 0.565732
vn 0.741574 0.660732 -0.116198
v -0.719359 1.46108 0.564697
vn 0.79558 0.560693 0.229514
v -0.719785 1.46104 0.559638
vn 0.745127 0.614474 -0.259245
v -0.734229 1.47654 0.559709
vn 0.637472 0.654282 -0.406872
v -0.741875 1.48712 0.566971
vn 0.641026 0.734071 -0.224111
v -0.740411 1.48594 0.571685
vn 0.745626 0.617752 0.24985
v -0.821944 1.44964 0.392185
vn 0.444932 0.570831 -0.690064
v -0.807788 1.43437 0.389391
vn 0.567299 0.560583 -0.603257
v -0.811592 1.43313 0.386267
vn 0.212456 0.383971 -0.89857
v -0.765168 1.44318 0.475937
vn 0.682415 -0.688735 -0.244854
v -0.724385 1.45476 0.557508
vn 0.663303 -0.712953 -0.227437
v -0.768472 1.43941 0.478235
vn 0.635298 -0.742581 -0.212063
v -0.773274 1.40148 0.604277
vn 0.76717 -0.610741 0.196076
v -0.773442 1.40254 0.605652
vn 0.522248 0.0540272 0.85108
v -0.824308 1.34896 0.63905
vn 0.768449 -0.491361 0.409938
v -0.796976 1.42946 0.612145
vn -0.369447 0.731284 0.573353
v -0.749721 1.47991 0.577578
vn -0.529024 0.760247 0.377038
v -0.846689 1.37926 0.64347
vn -0.532087 0.75707 0.379116
v -0.780774 1.47536 0.502118
vn -0.576948 0.798209 0.173187
v -0.828107 1.46179 0.405999
vn -0.494699 0.86092 0.118702
v -0.832899 1.45882 0.404032
vn -0.601909 0.776507 0.186394
v -0.936502 1.33073 0.47003
vn -0.741574 -0.660732 0.1162
v -0.923972 1.31648 0.462632
vn -0.749764 -0.61479 -0.24472
v -0.922507 1.31529 0.467345
vn -0.660751 -0.7141 0.231234
v -0.934231 1.33069 0.475961
vn -0.637473 -0.654282 0.406871
v -0.944598 1.34137 0.474678
vn -0.761873 -0.591384 0.264225
v -0.945024 1.34134 0.46962
vn -0.7989 -0.554855 -0.232154
v -0.874343 1.32986 0.550124
vn 0.576946 -0.79821 -0.173186
v -0.915092 1.31825 0.468541
vn 0.599005 -0.77749 -0.191578
v -0.870732 1.33327 0.547723
vn 0.628507 -0.749629 -0.207448
v -0.846793 1.35792 0.643577
vn -0.444933 -0.570832 0.690062
v -0.834504 1.34196 0.637592
vn -0.482926 -0.660208 0.575246
v -0.831739 1.34443 0.641061
vn -0.16664 -0.438062 0.883364
v -0.889949 1.36204 0.576304
vn -0.682416 0.688734 0.244855
v -0.860674 1.36943 0.636416
vn -0.744923 0.598993 0.293763
v -0.85639 1.373 0.638552
vn -0.660131 0.71372 0.234159
v -0.891109 1.40094 0.43004
vn -0.76717 0.610741 -0.196076
v -0.939031 1.35128 0.464828
vn -0.710299 0.703061 0.0343572
v -0.842063 1.45193 0.398936
vn -0.707238 0.706238 0.0322731
v -0.867407 1.37295 0.422172
vn 0.369443 -0.731283 -0.573356
v -0.868739 1.37366 0.421295
vn -0.381734 -0.219937 -0.897723
v -0.816823 1.426 0.387548
vn 0.199911 -0.652011 -0.731381
v -0.725352 1.45114 0.569489
vn 0.710299 -0.703061 -0.0343572
v -0.722559 1.45457 0.569909
vn 0.784307 -0.474902 0.399162
v -0.803709 1.43298 0.397901
vn 0.744237 -0.600217 -0.293003
v -0.72403 1.45713 0.552043
vn 0.746097 -0.599654 -0.289403
v -0.829878 1.46045 0.396724
vn 0.463157 0.680162 -0.568212
v -0.818256 1.45107 0.397154
vn 0.617346 0.648184 -0.445805
v -0.749291 1.48416 0.565776
vn -0.59836 0.777837 0.192184
v -0.748428 1.48594 0.560142
vn -0.490661 0.86291 0.120987
v -0.795643 1.42875 0.613022
vn 0.348718 0.254544 0.902
v -0.74581 1.48202 0.577627
vn -0.184071 0.668477 0.720594
v -0.807993 1.42942 0.395765
vn 0.660307 -0.71386 -0.233234
v -0.82232 1.35049 0.635381
vn 0.707239 -0.706238 -0.0322727
v -0.847559 1.37641 0.646768
vn -0.199914 0.652012 0.731379
v -0.784271 1.47199 0.50474
vn -0.628507 0.749629 0.207448
v -0.832644 1.45798 0.393255
vn 0.159751 0.440196 -0.883576
v -0.914662 1.3225 0.456739
vn 0.529024 -0.760247 -0.377038
v -0.918573 1.32039 0.456689
vn 0.184065 -0.668474 -0.720599
v -0.836276 1.34062 0.628317
vn 0.493782 -0.86155 -0.117949
v -0.915955 1.31648 0.474174
vn 0.491924 -0.862111 -0.121551
v -0.856594 1.36805 0.644925
vn -0.584 -0.537479 0.608326
v -0.850205 1.35616 0.638516
vn -0.617345 -0.648184 0.445805
v -0.939998 1.34766 0.476808
vn -0.662898 0.713201 0.227838
v -0.940353 1.34528 0.482273
vn -0.745374 0.600726 0.289042
v -0.89094 1.39987 0.428664
vn -0.549368 -0.0176306 -0.835395
v -0.941824 1.34784 0.464408
vn -0.784307 0.474902 -0.399162
v -0.817694 1.42315 0.390847
vn 0.532087 -0.75707 -0.379116
v -0.831484 1.34359 0.630284
vn 0.602005 -0.776578 -0.185784
v -0.852791 1.36929 0.648049
vn -0.21301 -0.37729 0.901265
v -0.88653 1.36584 0.574228
vn -0.635298 0.742581 0.212063
v -0.840075 1.45346 0.395267
vn -0.768449 0.491361 -0.409939
v -0.723425 1.45385 0.564218
vn 0.666057 -0.729757 -0.154349
v -0.720902 1.45744 0.560562
vn 0.758303 -0.618725 -0.20532
v -0.720685 1.45649 0.566007
vn 0.791611 -0.609821 -0.0383307
v -0.80594 1.43355 0.392233
vn 0.858587 -0.296916 -0.417935
v -0.803097 1.43618 0.39697
vn 0.667215 0.598279 -0.443719
v -0.763061 1.44667 0.474302
vn 0.869206 -0.283888 -0.404832
v -0.829524 1.4614 0.400062
vn -0.215198 0.974785 -0.0590214
v -0.777933 1.47733 0.499253
vn -0.199974 0.978528 -0.0499252
v -0.825212 1.4623 0.404311
vn 0.55507 0.726033 -0.405923
v -0.748171 1.48307 0.572432
vn -0.594914 0.759116 0.264235
v -0.744653 1.48479 0.573963
vn -0.425784 0.827596 0.365778
v -0.745251 1.48619 0.568645
vn -0.485162 0.849463 0.207436
v -0.786679 1.41844 0.610466
vn 0.45481 0.137837 0.879857
v -0.723127 1.45605 0.571124
vn 0.483167 0.131727 0.865562
v -0.744203 1.48094 0.57812
vn 0.448467 0.172509 0.876994
v -0.812686 1.4268 0.391537
vn 0.605533 -0.748098 -0.271439
v -0.812843 1.42856 0.387721
vn 0.57126 -0.676601 -0.464621
v -0.808731 1.43082 0.390652
vn 0.686492 -0.640485 -0.34425
v -0.82695 1.3464 0.634565
vn 0.655445 -0.740772 -0.147136
v -0.826304 1.34866 0.626931
vn 0.632723 -0.74638 -0.206347
v -0.774901 1.40012 0.599805
vn 0.660102 -0.735595 -0.152204
v -0.850914 1.37229 0.648393
vn 0.041267 0.0582707 0.997448
v -0.841998 1.36151 0.646062
vn 0.197093 -0.107046 0.974523
v -0.846068 1.37521 0.64734
vn 0.423584 0.146682 0.893902
v -0.835413 1.41898 0.53957
vn -0.631912 0.746116 0.209759
v -0.851454 1.37836 0.63528
vn -0.63069 0.74596 0.213949
v -0.754376 1.47912 0.569313
vn -0.629282 0.747421 0.212992
v -0.835945 1.45666 0.393384
vn -0.327679 0.279909 -0.902373
v -0.836812 1.45686 0.395678
vn -0.646144 0.760812 -0.0605232
v -0.833074 1.45937 0.395156
vn -0.397278 0.879376 -0.262427
v -0.916211 1.31934 0.461884
vn 0.594914 -0.759116 -0.264235
v -0.919131 1.31623 0.465672
vn 0.485162 -0.849463 -0.207436
v -0.91973 1.31762 0.460353
vn 0.425784 -0.827596 -0.365778
v -0.834859 1.34102 0.634255
vn 0.217861 -0.974095 0.0606184
v -0.839171 1.34012 0.630006
vn -0.580882 -0.700214 0.415062
v -0.877619 1.32776 0.552147
vn 0.199974 -0.978528 0.0499252
v -0.858442 1.36886 0.642083
vn -0.856275 0.299672 0.420702
v -0.892491 1.35842 0.577097
vn -0.869206 0.28389 0.404831
v -0.861286 1.36623 0.637347
vn -0.681704 -0.578204 0.448286
v -0.940958 1.34856 0.470099
vn -0.666057 0.729757 0.154349
v -0.943698 1.34592 0.468309
vn -0.791611 0.609821 0.0383307
v -0.943481 1.34498 0.473755
vn -0.758303 0.618725 0.20532
v -0.882346 1.38945 0.425392
vn -0.45481 -0.137837 -0.879857
v -0.92018 1.32147 0.456196
vn -0.450969 -0.169744 -0.87625
v -0.941256 1.34636 0.463192
vn -0.485469 -0.12882 -0.864711
v -0.812929 1.42406 0.399037
vn 0.631093 -0.745843 -0.213169
v -0.864611 1.37293 0.426256
vn 0.601053 -0.75349 -0.266437
v -0.827571 1.34555 0.638639
vn 0.646144 -0.760812 0.0605238
v -0.831303 1.34284 0.635581
vn 0.556972 -0.8277 -0.0685135
v -0.85154 1.37385 0.646595
vn -0.571261 0.676601 0.46462
v -0.854514 1.37045 0.646864
vn -0.679644 0.392192 0.619895
v -0.838079 1.45375 0.407385
vn -0.632462 0.746459 0.206857
v -0.935157 1.35299 0.473352
vn -0.633863 0.745006 0.207808
v -0.826954 1.4463 0.38977
vn -0.197094 0.107045 -0.974523
v -0.839391 1.45209 0.393973
vn -0.460586 -0.102992 -0.88162
v -0.719808 1.45851 0.567116
vn 0.747407 0.242822 0.618402
v -0.719153 1.45946 0.562948
vn 0.943772 -0.312136 -0.108927
v -0.720874 1.45933 0.5568
vn 0.8751 -0.291916 -0.385986
v -0.723327 1.46036 0.551288
vn 0.671298 0.599516 -0.435821
v -0.7763 1.46437 0.478372
vn 0.627563 0.651392 -0.426442
v -0.745443 1.48647 0.558629
vn 0.567919 0.718873 -0.40086
v -0.744458 1.48718 0.564628
vn -0.20165 0.97916 -0.024131
v -0.742358 1.48686 0.570651
vn -0.133158 0.959421 0.248556
v -0.742284 1.48505 0.574577
vn 0.494994 0.529229 0.689128
v -0.732821 1.47483 0.571875
vn 0.650969 0.364065 0.666105
v -0.809869 1.43197 0.387453
vn 0.679644 -0.392192 -0.619895
v -0.729226 1.44943 0.560964
vn 0.634126 -0.744923 -0.2073
v -0.824992 1.35032 0.640344
vn 0.458176 0.105787 0.882544
v -0.799772 1.42948 0.608061
vn -0.601053 0.75349 0.266436
v -0.83308 1.45957 0.398735
vn -0.556973 0.8277 0.0685141
v -0.922099 1.31737 0.45974
vn -0.543417 -0.483679 -0.686114
v -0.922025 1.31555 0.463665
vn 0.133158 -0.959421 -0.248556
v -0.919925 1.31524 0.469688
vn 0.201373 -0.979095 0.0286577
v -0.91894 1.31594 0.475688
vn -0.584966 -0.701451 0.407164
v -0.892726 1.34352 0.557486
vn -0.627563 -0.651392 0.426442
v -0.941055 1.34205 0.483029
vn -0.692995 -0.569429 0.442164
v -0.943509 1.34308 0.477517
vn -0.874243 0.290731 0.388811
v -0.94523 1.34295 0.471368
vn -0.943772 0.312136 0.108927
v -0.944575 1.34391 0.4672
vn -0.781408 -0.19105 -0.594055
v -0.93613 1.33298 0.463958
vn -0.650969 -0.364065 -0.666105
v -0.910007 1.32329 0.465004
vn 0.62969 -0.747299 -0.212215
v -0.831309 1.34305 0.639161
vn 0.397278 -0.879376 0.262427
v -0.855652 1.37159 0.643664
vn -0.686491 0.640486 0.34425
v -0.889482 1.4023 0.434511
vn -0.660102 0.735595 0.152204
v -0.818315 1.42721 0.386977
vn -0.425978 -0.143803 -0.893232
v -0.813469 1.43012 0.385923
vn -0.0871762 -0.010111 -0.996142
v -0.819553 1.38628 0.512963
vn 0.631912 -0.746116 -0.209759
v -0.828438 1.34575 0.640933
vn 0.29116 -0.230748 0.92843
v -0.851697 1.37561 0.64278
vn -0.605534 0.748098 0.271438
v -0.837433 1.45602 0.399751
vn -0.655445 0.740772 0.147136
f 1//1 2//2 3//3
f 1//1 3//3 4//4
f 1//1 4//4 5//5
f 1//1 5//5 6//6
f 1//1 6//6 2//2
f 7//7 8//8 9//9
f 10//10 11//11 12//12
f 13//13 14//14 15//15
f 16//16 17//17 18//18
f 19//19 20//20 21//21
f 22//22 23//23 24//24
f 22//22 24//24 25//25
f 22//22 25//25 26//26
f 22//22 26//26 27//27
f 22//22 27//27 23//23
f 28//28 29//29 30//30
f 31//31 32//32 33//33
f 34//34 35//35 36//36
f 37//37 38//38 39//39
f 40//40 41//41 42//42
f 13//13 43//43 44//44
f 10//10 45//45 46//46
f 7//7 47//47 48//48
f 19//19 49//49 50//50
f 16//16 51//51 52//52
f 10//10 53//53 45//45
f 13//13 54//54 43//43
f 16//16 55//55 51//51
f 19//19 56//56 49//49
f 7//7 57//57 47//47
f 40//40 58//58 59//59
f 28//28 60//60 61//61
f 31//31 62//62 63//63
f 34//34 64//64 65//65
f 37//37 66//66 67//67
f 40//40 68//68 58//58
f 28//28 69//69 60//60
f 31//31 70//70 62//62
f 34//34 71//71 64//64
f 37//37 72//72 66//66
f 10//10 46//46 11//11
f 7//7 48//48 8//8
f 19//19 50//50 20//20
f 16//16 52//52 17//17
f 13//13 44//44 14//14
f 40//40 42//42 68//68
f 28//28 30//30 69//69
f 31//31 33//33 70//70
f 34//34 36//36 71//71
f 37//37 39//39 72//72
f 28//28 61//61 29//29
f 31//31 63//63 32//32
f 34//34 65//65 35//35
f 37//37 67//67 38//38
f 40//40 59//59 41//41
f 10//10 12//12 53//53
f 13//13 15//15 54//54
f 16//16 18//18 55//55
f 19//19 21//21 56//56
f 7//7 9//9 57//57
f 73//73 74//74 75//75
f 76//76 77//77 78//78
f 79//79 80//80 81//81
f 82//82 83//83 84//84
f 85//85 86//86 87//87
f 88//88 89//89 90//90
f 91//91 92//92 93//93
f 94//94 95//95 96//96
f 97//97 98//98 99//99
f 100//100 101//101 102//102
f 103//103 104//104 105//105
f 106//106 107//107 108//108
f 109//109 110//110 111//111
f 112//112 113//113 114//114
f 115//115 116//116 117//117
f 88//88 118//118 119//119
f 91//91 120//120 121//121
f 94//94 122//122 123//123
f 97//97 124//124 125//125
f 100//100 126//126 127//127
f 128//128 129//129 2//2
f 130//130 131//131 3//3
f 132//132 133//133 4//4
f 134//134 135//135 5//5
f 136//136 137//137 6//6
f 76//76 138//138 8//8
f 73//73 139//139 11//11
f 85//85 140//140 14//14
f 82//82 141//141 17//17
f 79//79 142//142 20//20
f 143//143 144//144 23//23
f 145//145 146//146 24//24
f 147//147 148//148 25//25
f 149//149 150//150 26//26
f 151//151 152//152 27//27
f 103//103 153//153 29//29
f 106//106 154//154 32//32
f 109//109 155//155 35//35
f 112//112 156//156 38//38
f 115//115 157//157 41//41
f 73//73 75//75 43//43
f 76//76 78//78 45//45
f 79//79 81//81 47//47
f 82//82 84//84 49//49
f 85//85 87//87 51//51
f 88//88 90//90 53//53
f 91//91 93//93 54//54
f 94//94 96//96 55//55
f 97//97 99//99 56//56
f 100//100 102//102 57//57
f 103//103 105//105 58//58
f 106//106 108//108 60//60
f 109//109 111//111 62//62
f 112//112 114//114 64//64
f 115//115 117//117 66//66
f 88//88 119//119 68//68
f 91//91 121//121 69//69
f 94//94 123//123 70//70
f 97//97 125//125 71//71
f 100//100 127//127 72//72
f 130//130 74//74 46//46
f 132//132 77//77 48//48
f 134//134 80//80 50//50
f 136//136 83//83 52//52
f 128//128 86//86 44//44
f 158//158 89//89 42//42
f 159//159 92//92 30//30
f 160//160 95//95 33//33
f 161//161 98//98 36//36
f 162//162 101//101 39//39
f 145//145 104//104 61//61
f 147//147 107//107 63//63
f 149//149 110//110 65//65
f 151//151 113//113 67//67
f 143//143 116//116 59//59
f 159//159 118//118 12//12
f 160//160 120//120 15//15
f 161//161 122//122 18//18
f 162//162 124//124 21//21
f 158//158 126//126 9//9
f 130//130 129//129 74//74
f 132//132 131//131 77//77
f 134//134 133//133 80//80
f 136//136 135//135 83//83
f 128//128 137//137 86//86
f 158//158 138//138 89//89
f 159//159 139//139 92//92
f 160//160 140//140 95//95
f 161//161 141//141 98//98
f 162//162 142//142 101//101
f 145//145 144//144 104//104
f 147//147 146//146 107//107
f 149//149 148//148 110//110
f 151//151 150//150 113//113
f 143//143 152//152 116//116
f 159//159 153//153 118//118
f 160//160 154//154 120//120
f 161//161 155//155 122//122
f 162//162 156//156 124//124
f 158//158 157//157 126//126
f 130//130 3//3 129//129
f 132//132 4//4 131//131
f 134//134 5//5 133//133
f 136//136 6//6 135//135
f 128//128 2//2 137//137
f 158//158 9//9 138//138
f 159//159 12//12 139//139
f 160//160 15//15 140//140
f 161//161 18//18 141//141
f 162//162 21//21 142//142
f 145//145 24//24 144//144
f 147//147 25//25 146//146
f 149//149 26//26 148//148
f 151//151 27//27 150//150
f 143//143 23//23 152//152
f 159//159 30//30 153//153
f 160//160 33//33 154//154
f 161//161 36//36 155//155
f 162//162 39//39 156//156
f 158//158 42//42 157//157
f 128//128 44//44 75//75
f 130//130 46//46 78//78
f 132//132 48//48 81//81
f 134//134 50//50 84//84
f 136//136 52//52 87//87
f 76//76 45//45 90//90
f 73//73 43//43 93//93
f 85//85 51//51 96//96
f 82//82 49//49 99//99
f 79//79 47//47 102//102
f 143//143 59//59 105//105
f 145//145 61//61 108//108
f 147//147 63//63 111//111
f 149//149 65//65 114//114
f 151//151 67//67 117//117
f 103//103 58//58 119//119
f 106//106 60//60 121//121
f 109//109 62//62 123//123
f 112//112 64//64 125//125
f 115//115 66//66 127//127
f 73//73 11//11 74//74
f 76//76 8//8 77//77
f 79//79 20//20 80//80
f 82//82 17//17 83//83
f 85//85 14//14 86//86
f 88//88 68//68 89//89
f 91//91 69//69 92//92
f 94//94 70//70 95//95
f 97//97 71//71 98//98
f 100//100 72//72 101//101
f 103//103 29//29 104//104
f 106//106 32//32 107//107
f 109//109 35//35 110//110
f 112//112 38//38 113//113
f 115//115 41//41 116//116
f 88//88 53//53 118//118
f 91//91 54//54 120//120
f 94//94 55//55 122//122
f 97//97 56//56 124//124
f 100//100 57//57 126//126
f 128//128 75//75 129//129
f 130//130 78//78 131//131
f 132//132 81//81 133//133
f 134//134 84//84 135//135
f 136//136 87//87 137//137
f 76//76 90//90 138//138
f 73//73 93//93 139//139
f 85//85 96//96 140//140
f 82//82 99//99 141//141
f 79//79 102//102 142//142
f 143//143 105//105 144//144
f 145//145 108//108 146//146
f 147//147 111//111 148//148
f 149//149 114//114 150//150
f 151//151 117//117 152//152
f 103//103 119//119 153//153
f 106//106 121//121 154//154
f 109//109 123//123 155//155
f 112//112 125//125 156//156
f 115//115 127//127 157//157
f 129//129 3//3 2//2
f 131//131 4//4 3//3
f 133//133 5//5 4//4
f 135//135 6//6 5//5
f 137//137 2//2 6//6
f 138//138 9//9 8//8
f 139//139 12//12 11//11
f 140//140 15//15 14//14
f 141//141 18//18 17//17
f 142//142 21//21 20//20
f 144//144 24//24 23//23
f 146//146 25//25 24//24
f 148//148 26//26 25//25
f 150//150 27//27 26//26
f 152//152 23//23 27//27
f 153//153 30//30 29//29
f 154//154 33//33 32//32
f 155//155 36//36 35//35
f 156//156 39//39 38//38
f 157//157 42//42 41//41
f 75//75 44//44 43//43
f 78//78 46//46 45//45
f 81//81 48//48 47//47
f 84//84 50//50 49//49
f 87//87 52//52 51//51
f 90//90 45//45 53//53
f 93//93 43//43 54//54
f 96//96 51//51 55//55
f 99//99 49//49 56//56
f 102//102 47//47 57//57
f 105//105 59//59 58//58
f 108//108 61//61 60//60
f 111//111 63//63 62//62
f 114//114 65//65 64//64
f 117//117 67//67 66//66
f 119//119 58//58 68//68
f 121//121 60//60 69//69
f 123//123 62//62 70//70
f 125//125 64//64 71//71
f 127//127 66//66 72//72
f 74//74 11//11 46//46
f 77//77 8//8 48//48
f 80//80 20//20 50//50
f 83//83 17//17 52//52
f 86//86 14//14 44//44
f 89//89 68//68 42//42
f 92//92 69//69 30//30
f 95//95 70//70 33//33
f 98//98 71//71 36//36
f 101//101 72//72 39//39
f 104//104 29//29 61//61
f 107//107 32//32 63//63
f 110//110 35//35 65//65
f 113//113 38//38 67//67
f 116//116 41//41 59//59
f 118//118 53//53 12//12
f 120//120 54//54 15//15
f 122//122 55//55 18//18
f 124//124 56//56 21//21
f 126//126 57//57 9//9
f 129//129 75//75 74//74
f 131//131 78//78 77//77
f 133//133 81//81 80//80
f 135//135 84//84 83//83
f 137//137 87//87 86//86
f 138//138 90//90 89//89
f 139//139 93//93 92//92
f 140//140 96//96 95//95
f 141//141 99//99 98//98
f 142//142 102//102 101//101
f 144//144 105//105 104//104
f 146//146 108//108 107//107
f 148//148 111//111 110//110
f 150//150 114//114 113//113
f 152//152 117//117 116//116
f 153//153 119//119 118//118
f 154//154 121//121 120//120
f 155//155 123//123 122//122
f 156//156 125//125 124//124
f 157//157 127//127 126//126
