# Created by Open3D 
# object name: part_038
# number of vertices: 162
# number of triangles: 320
v -0.935652 1.78091 0.575285
vn -0.515412 0.360125 0.777599
v -0.93882 1.75319 0.58483
vn -0.5333 0.271432 0.801197
v -0.914422 1.77938 0.589268
vn -0.455255 0.328788 0.827431
v -0.902562 1.81595 0.579416
vn -0.481546 0.396263 0.781722
v -0.93315 1.79941 0.567581
vn -0.559186 0.440333 0.702437
v -0.956669 1.77227 0.564162
vn -0.598485 0.339756 0.725522
v 0.12588 2.87444 0.668215
vn -0.441592 0.436169 0.784062
v 0.126923 2.85211 0.680431
vn -0.412601 0.372727 0.831165
v 0.152573 2.87748 0.680374
vn -0.35586 0.45422 0.81673
v -0.390045 2.31239 0.632095
vn 0.500621 -0.543252 0.673985
v -0.88375 1.80201 0.587264
vn 0.515374 -0.556288 0.65187
v -0.386766 2.30963 0.627106
vn 0.533571 -0.570983 0.623924
v -0.897757 1.69782 0.501627
vn 0.491118 -0.616562 0.615349
v -0.905281 1.69141 0.500287
vn -0.174825 -0.916376 0.360126
v -0.852388 1.65866 0.425718
vn 0.464306 -0.65201 0.59942
v -0.917852 1.71931 0.478357
vn -0.578277 0.526777 -0.622979
v -0.951706 1.76727 0.551023
vn -0.554507 0.554958 -0.620116
v -0.863381 1.69377 0.406891
vn -0.55251 0.553295 -0.623376
v -0.520772 2.22199 0.598079
vn -0.568207 0.599487 -0.563699
v 0.0590899 2.82151 0.651462
vn -0.608635 0.631945 -0.4798
v 0.0844646 2.84374 0.649422
vn -0.554587 0.588821 -0.587982
v 0.230229 2.78761 0.497937
vn 0.515412 -0.360125 -0.7776
v 0.254937 2.7923 0.513334
vn 0.593152 -0.335424 -0.731889
v 0.231418 2.76517 0.509914
vn 0.542146 -0.421687 -0.726814
v 0.197372 2.75232 0.494076
vn 0.481546 -0.396263 -0.781722
v 0.21269 2.78519 0.488227
vn 0.434865 -0.307415 -0.846397
v 0.237088 2.81139 0.492666
vn 0.528679 -0.265124 -0.806354
v -0.290601 2.22964 0.469818
vn 0.568209 -0.599489 0.563695
v 0.203134 2.73999 0.514683
vn 0.55522 -0.588339 0.587867
v -0.29362 2.23212 0.475109
vn 0.537917 -0.574599 0.616831
v -0.831304 1.69409 0.405007
vn 0.441593 -0.436167 -0.784063
v -0.809927 1.69244 0.418752
vn 0.499493 -0.465626 -0.730547
v -0.836456 1.66802 0.41779
vn 0.415712 -0.518211 -0.747423
v -0.421327 2.13924 0.435803
vn -0.500621 0.543251 -0.673985
v -0.781507 1.76518 0.402081
vn -0.4462 0.496042 -0.744881
v -0.807313 1.74342 0.403622
vn -0.515891 0.555468 -0.652159
v 0.196024 2.86675 0.575869
vn -0.491118 0.616562 -0.615349
v 0.229314 2.8194 0.502549
vn -0.516633 0.590253 -0.620236
v 0.140988 2.89289 0.646681
vn -0.51863 0.591916 -0.616975
v 0.21612 2.84527 0.599139
vn 0.578276 -0.526778 0.622979
v 0.222372 2.85305 0.599005
vn 0.876284 0.16641 0.452144
v 0.170369 2.88484 0.674606
vn 0.600863 -0.486813 0.634016
v -0.931046 1.74518 0.574947
vn 0.516633 -0.590253 0.620236
v -0.945069 1.73578 0.576956
vn 0.45114 -0.641051 0.620908
v 0.0797751 2.79939 0.675415
vn 0.446943 -0.496721 0.743982
v -0.863064 1.82814 0.592875
vn 0.446571 -0.4971 0.743953
v 0.108195 2.87214 0.658744
vn -0.516566 0.484241 0.706166
v 0.0917332 2.84022 0.66646
vn -0.476805 0.401149 0.782136
v -0.904866 1.82459 0.562813
vn -0.55544 0.588375 -0.587624
v -0.883749 1.85025 0.568922
vn -0.609952 0.632294 -0.477663
v -0.924104 1.71153 0.478491
vn -0.853089 -0.0020032 -0.521762
v -0.964782 1.75686 0.554129
vn -0.614031 0.497772 -0.612527
v 0.10558 2.82116 0.673873
vn 0.51597 -0.555681 0.651916
v -0.84272 1.67168 0.430815
vn 0.51863 -0.591915 0.616976
v -0.872101 1.67974 0.40289
vn -0.600864 0.486813 -0.634016
v -0.519109 2.21811 0.59267
vn -0.537917 0.574599 -0.616832
v 0.134724 2.89656 0.659706
vn -0.419664 0.523965 0.741177
v 0.249974 2.79731 0.526473
vn 0.554507 -0.554958 0.620116
v 0.26305 2.80772 0.523367
vn 0.614029 -0.497774 0.612527
v -0.760822 1.74307 0.426034
vn 0.60905 -0.632293 0.478815
v 0.182017 2.71432 0.508574
vn 0.609421 -0.631914 0.478843
v -0.828656 1.71246 0.397065
vn 0.392244 -0.351321 -0.850128
v -0.796923 1.72806 0.407032
vn 0.476805 -0.40115 -0.782135
v 0.182018 2.76256 0.490232
vn -0.51553 0.556323 -0.651716
v 0.161332 2.73644 0.484621
vn -0.447221 0.497638 -0.743203
v 0.203549 2.87317 0.577209
vn 0.0177572 0.895092 -0.445527
v 0.243337 2.8288 0.500539
vn -0.451141 0.64105 -0.620908
v 0.161649 2.8708 0.670605
vn 0.55251 -0.553295 0.623376
v -0.786197 1.72084 0.428074
vn 0.554631 -0.588952 0.58781
v -0.854305 1.6871 0.397122
vn 0.349861 -0.449332 -0.822008
v -0.425963 2.14061 0.440673
vn -0.533571 0.570983 -0.623923
v 0.150656 2.90591 0.651778
vn -0.464309 0.652006 -0.59942
v -0.915641 1.76627 0.581601
vn 0.52632 -0.5761 0.625377
v -0.910465 1.77779 0.587258
vn 0.458763 -0.520859 0.71989
v -0.934644 1.75024 0.582217
vn 0.462246 -0.552755 0.693391
v 0.110517 2.83326 0.679098
vn 0.258413 -0.324753 0.909812
v 0.0777058 2.80234 0.677014
vn -0.43349 0.351247 0.829887
v -0.392992 2.31496 0.635522
vn 0.249863 -0.32021 0.913802
v 0.0905218 2.85464 0.655944
vn -0.694561 0.693435 -0.191657
v -0.517577 2.2288 0.603104
vn -0.697545 0.692711 -0.183255
v 0.0589559 2.82239 0.655303
vn -0.542331 0.468172 0.697633
v -0.936621 1.7887 0.557307
vn -0.54511 0.569424 -0.615314
v -0.954965 1.77196 0.558686
vn -0.603288 0.58646 -0.54047
v -0.931109 1.79986 0.563353
vn -0.602807 0.614119 -0.509393
v -0.918852 1.70132 0.486918
vn -0.695242 -0.716194 -0.0608641
v -0.95151 1.73118 0.575496
vn -0.634074 -0.7569 0.158283
v -0.969379 1.75028 0.554805
vn -0.849995 -0.517665 -0.0976338
v 0.140591 2.85434 0.674067
vn 0.538301 -0.563758 0.626425
v 0.155872 2.87362 0.677684
vn 0.507163 -0.506475 0.69733
v 0.128815 2.84839 0.67824
vn 0.473042 -0.506147 0.721143
v -0.821343 1.68781 0.427723
vn 0.533132 -0.581764 0.614265
v -0.79122 1.72395 0.435592
vn 0.535899 -0.573479 0.619624
v -0.871095 1.72425 0.504491
vn 0.529888 -0.578796 0.61985
v -0.865068 1.68046 0.39847
vn -0.145029 -0.188595 -0.971287
v -0.860015 1.66926 0.40661
vn 0.188601 -0.634985 -0.749148
v -0.876592 1.67308 0.403394
vn -0.730624 -0.616989 -0.292426
v -0.473009 2.17896 0.516586
vn -0.53575 0.572797 -0.620383
v -0.812543 1.74674 0.410901
vn -0.535678 0.572032 -0.621151
v -0.900969 1.82032 0.555196
vn -0.536579 0.572781 -0.619682
v 0.144281 2.90449 0.65696
vn -0.468131 0.844151 0.26127
v 0.135551 2.89535 0.654153
vn -0.558367 0.632737 -0.536535
v 0.124941 2.88821 0.657697
vn -0.652469 0.71191 -0.259746
v 0.234889 2.77587 0.520189
vn 0.54511 -0.569424 0.615314
v 0.229376 2.76472 0.514143
vn 0.602807 -0.614119 0.509393
v 0.253232 2.79261 0.51881
vn 0.603288 -0.58646 0.540471
v -0.792254 1.70994 0.421552
vn 0.694035 -0.693558 0.193115
v -0.760688 1.74219 0.422193
vn 0.520723 -0.444513 -0.728873
v -0.288644 2.22813 0.465244
vn 0.697545 -0.692711 0.183258
v -0.812249 1.73132 0.398398
vn -0.260232 0.325718 -0.908948
v -0.413229 2.14198 0.432827
vn -0.249865 0.320211 -0.913801
v -0.779438 1.76223 0.400481
vn 0.416118 -0.333044 -0.846125
v 0.213909 2.7983 0.495894
vn -0.526321 0.5761 -0.625376
v 0.232912 2.81434 0.495279
vn -0.462246 0.552754 -0.693391
v 0.208732 2.78679 0.490237
vn -0.458764 0.52086 -0.719889
v 0.213184 2.86747 0.58602
vn 0.695243 0.716193 0.0608644
v 0.267646 2.81429 0.522691
vn 0.839847 0.536896 0.0799983
v 0.249778 2.8334 0.502
vn 0.61487 0.76905 -0.174635
v 0.110811 2.81783 0.666595
vn 0.5356 -0.572115 0.621142
v 0.190449 2.81778 0.597422
vn 0.541574 -0.566758 0.620873
v -0.837284 1.66923 0.423343
vn 0.558367 -0.632737 0.536535
v -0.809903 1.69411 0.423161
vn 0.588526 -0.628829 0.508145
v -0.857604 1.69095 0.399811
vn -0.507163 0.506474 -0.697331
v -0.846348 1.6974 0.397017
vn -0.331668 0.340284 -0.879888
v 0.089488 2.84063 0.641904
vn -0.53595 0.573425 -0.61963
v 0.177914 2.76705 0.497608
vn -0.535054 0.572679 -0.621092
v 0.15441 2.89945 0.6664
vn -0.188602 0.634985 0.749149
v 0.156991 2.9106 0.653411
vn 0.495497 0.868376 0.0201563
v -0.944961 1.74242 0.582002
vn -0.389285 -0.15317 0.908293
v -0.928834 1.76137 0.586506
vn 0.275461 -0.398211 0.874957
v -0.89608 1.79633 0.590977
vn 0.255043 -0.32829 0.909494
v -0.866207 1.82998 0.594381
vn -0.434452 0.350258 0.829802
v -0.405859 2.32851 0.622996
vn -0.479178 0.398709 0.781933
v -0.884957 1.85003 0.572669
vn -0.536292 0.459426 0.708038
v -0.916075 1.81771 0.567823
vn -0.697408 0.689479 -0.195556
v -0.948508 1.78241 0.563724
vn -0.708693 0.653994 -0.26466
v -0.964016 1.76279 0.559936
vn -0.878346 0.421575 0.225351
v -0.959461 1.75201 0.568889
vn -0.702031 0.10608 0.704201
v 0.144615 2.86717 0.680479
vn 0.331666 -0.340283 0.879889
v -0.879646 1.79752 0.579887
vn 0.535001 -0.572732 0.621089
v -0.858723 1.65398 0.424085
vn -0.513494 -0.85723 -0.0384797
v -0.892181 1.74679 0.480074
vn -0.541573 0.566759 -0.620873
v 0.108171 2.87046 0.654335
vn -0.588527 0.628832 -0.50814
v 0.262284 2.80179 0.51756
vn 0.863602 -0.353945 -0.359047
v 0.246775 2.78217 0.513772
vn 0.708693 -0.653995 0.26466
v 0.214342 2.74687 0.509673
vn 0.697438 -0.690052 0.193414
v 0.183225 2.71455 0.504826
vn 0.521684 -0.443523 -0.728789
v -0.299809 2.24027 0.449942
vn 0.479178 -0.398709 -0.781933
v 0.164475 2.73459 0.483115
vn 0.408398 -0.3229 -0.853784
v 0.194347 2.76825 0.486519
vn -0.254276 0.32709 -0.910141
v 0.227101 2.8032 0.49099
vn -0.275461 0.398212 -0.874956
v 0.243229 2.82216 0.495494
vn 0.265184 0.233985 -0.935376
v 0.253856 2.81671 0.504122
vn 0.702031 -0.10608 -0.704201
v 0.199237 2.74426 0.5223
vn 0.536498 -0.572862 0.619677
v -0.826674 1.67637 0.419799
vn 0.652472 -0.711912 0.259732
v -0.830548 1.71619 0.399255
vn -0.47304 0.506145 -0.721145
v 0.169363 2.84033 0.573005
vn -0.529888 0.578796 -0.61985
v 0.17486 2.8915 0.674102
vn 0.719269 0.637225 0.276761
v 0.163336 2.88412 0.679026
vn 0.0627118 0.312449 0.947862
v -0.340151 2.27083 0.551156
vn 0.53575 -0.572797 0.620383
v -0.846013 1.66009 0.420536
vn 0.411603 -0.819565 -0.398618
v -0.842323 1.71024 0.403428
vn -0.538301 0.563759 -0.626425
v 0.11961 2.87677 0.649772
vn -0.533132 0.581764 -0.614265
f 1//1 2//2 3//3
f 1//1 3//3 4//4
f 1//1 4//4 5//5
f 1//1 5//5 6//6
f 1//1 6//6 2//2
f 7//7 8//8 9//9
f 10//10 11//11 12//12
f 13//13 14//14 15//15
f 16//16 17//17 18//18
f 19//19 20//20 21//21
f 22//22 23//23 24//24
f 22//22 24//24 25//25
f 22//22 25//25 26//26
f 22//22 26//26 27//27
f 22//22 27//27 23//23
f 28//28 29//29 30//30
f 31//31 32//32 33//33
f 34//34 35//35 36//36
f 37//37 38//38 39//39
f 40//40 41//41 42//42
f 13//13 43//43 44//44
f 10//10 45//45 46//46
f 7//7 47//47 48//48
f 19//19 49//49 50//50
f 16//16 51//51 52//52
f 10//10 53//53 45//45
f 13//13 54//54 43//43
f 16//16 55//55 51//51
f 19//19 56//56 49//49
f 7//7 57//57 47//47
f 40//40 58//58 59//59
f 28//28 60//60 61//61
f 31//31 62//62 63//63
f 34//34 64//64 65//65
f 37//37 66//66 67//67
f 40//40 68//68 58//58
f 28//28 69//69 60//60
f 31//31 70//70 62//62
f 34//34 71//71 64//64
f 37//37 72//72 66//66
f 10//10 46//46 11//11
f 7//7 48//48 8//8
f 19//19 50//50 20//20
f 16//16 52//52 17//17
f 13//13 44//44 14//14
f 40//40 42//42 68//68
f 28//28 30//30 69//69
f 31//31 33//33 70//70
f 34//34 36//36 71//71
f 37//37 39//39 72//72
f 28//28 61//61 29//29
f 31//31 63//63 32//32
f 34//34 65//65 35//35
f 37//37 67//67 38//38
f 40//40 59//59 41//41
f 10//10 12//12 53//53
f 13//13 15//15 54//54
f 16//16 18//18 55//55
f 19//19 21//21 56//56
f 7//7 9//9 57//57
f 73//73 74//74 75//75
f 76//76 77//77 78//78
f 79//79 80//80 81//81
f 82//82 83//83 84//84
f 85//85 86//86 87//87
f 88//88 89//89 90//90
f 91//91 92//92 93//93
f 94//94 95//95 96//96
f 97//97 98//98 99//99
f 100//100 101//101 102//102
f 103//103 104//104 105//105
f 106//106 107//107 108//108
f 109//109 110//110 111//111
f 112//112 113//113 114//114
f 115//115 116//116 117//117
f 88//88 118//118 119//119
f 91//91 120//120 121//121
f 94//94 122//122 123//123
f 97//97 124//124 125//125
f 100//100 126//126 127//127
f 128//128 129//129 2//2
f 130//130 131//131 3//3
f 132//132 133//133 4//4
f 134//134 135//135 5//5
f 136//136 137//137 6//6
f 76//76 138//138 8//8
f 73//73 139//139 11//11
f 85//85 140//140 14//14
f 82//82 141//141 17//17
f 79//79 142//142 20//20
f 143//143 144//144 23//23
f 145//145 146//146 24//24
f 147//147 148//148 25//25
f 149//149 150//150 26//26
f 151//151 152//152 27//27
f 103//103 153//153 29//29
f 106//106 154//154 32//32
f 109//109 155//155 35//35
f 112//112 156//156 38//38
f 115//115 157//157 41//41
f 73//73 75//75 43//43
f 76//76 78//78 45//45
f 79//79 81//81 47//47
f 82//82 84//84 49//49
f 85//85 87//87 51//51
f 88//88 90//90 53//53
f 91//91 93//93 54//54
f 94//94 96//96 55//55
f 97//97 99//99 56//56
f 100//100 102//102 57//57
f 103//103 105//105 58//58
f 106//106 108//108 60//60
f 109//109 111//111 62//62
f 112//112 114//114 64//64
f 115//115 117//117 66//66
f 88//88 119//119 68//68
f 91//91 121//121 69//69
f 94//94 123//123 70//70
f 97//97 125//125 71//71
f 100//100 127//127 72//72
f 130//130 74//74 46//46
f 132//132 77//77 48//48
f 134//134 80//80 50//50
f 136//136 83//83 52//52
f 128//128 86//86 44//44
f 158//158 89//89 42//42
f 159//159 92//92 30//30
f 160//160 95//95 33//33
f 161//161 98//98 36//36
f 162//162 101//101 39//39
f 145//145 104//104 61//61
f 147//147 107//107 63//63
f 149//149 110//110 65//65
f 151//151 113//113 67//67
f 143//143 116//116 59//59
f 159//159 118//118 12//12
f 160//160 120//120 15//15
f 161//161 122//122 18//18
f 162//162 124//124 21//21
f 158//158 126//126 9//9
f 130//130 129//129 74//74
f 132//132 131//131 77//77
f 134//134 133//133 80//80
f 136//136 135//135 83//83
f 128//128 137//137 86//86
f 158//158 138//138 89//89
f 159//159 139//139 92//92
f 160//160 140//140 95//95
f 161//161 141//141 98//98
f 162//162 142//142 101//101
f 145//145 144//144 104//104
f 147//147 146//146 107//107
f 149//149 148//148 110//110
f 151//151 150//150 113//113
f 143//143 152//152 116//116
f 159//159 153//153 118//118
f 160//160 154//154 120//120
f 161//161 155//155 122//122
f 162//162 156//156 124//124
f 158//158 157//157 126//126
f 130//130 3//3 129//129
f 132//132 4//4 131//131
f 134//134 5//5 133//133
f 136//136 6//6 135//135
f 128//128 2//2 137//137
f 158//158 9//9 138//138
f 159//159 12//12 139//139
f 160//160 15//15 140//140
f 161//161 18//18 141//141
f 162//162 21//21 142//142
f 145//145 24//24 144//144
f 147//147 25//25 146//146
f 149//149 26//26 148//148
f 151//151 27//27 150//150
f 143//143 23//23 152//152
f 159//159 30//30 153//153
f 160//160 33//33 154//154
f 161//161 36//36 155//155
f 162//162 39//39 156//156
f 158//158 42//42 157//157
f 128//128 44//44 75//75
f 130//130 46//46 78//78
f 132//132 48//48 81//81
f 134//134 50//50 84//84
f 136//136 52//52 87//87
f 76//76 45//45 90//90
f 73//73 43//43 93//93
f 85//85 51//51 96//96
f 82//82 49//49 99//99
f 79//79 47//47 102//102
f 143//143 59//59 105//105
f 145//145 61//61 108//108
f 147//147 63//63 111//111
f 149//149 65//65 114//114
f 151//151 67//67 117//117
f 103//103 58//58 119//119
f 106//106 60//60 121//121
f 109//109 62//62 123//123
f 112//112 64//64 125//125
f 115//115 66//66 127//127
f 73//73 11//11 74//74
f 76//76 8//8 77//77
f 79//79 20//20 80//80
f 82//82 17//17 83//83
f 85//85 14//14 86//86
f 88//88 68//68 89//89
f 91//91 69//69 92//92
f 94//94 70//70 95//95
f 97//97 71//71 98//98
f 100//100 72//72 101//101
f 103//103 29//29 104//104
f 106//106 32//32 107//107
f 109//109 35//35 110//110
f 112//112 38//38 113//113
f 115//115 41//41 116//116
f 88//88 53//53 118//118
f 91//91 54//54 120//120
f 94//94 55//55 122//122
f 97//97 56//56 124//124
f 100//100 57//57 126//126
f 128//128 75//75 129//129
f 130//130 78//78 131//131
f 132//132 81//81 133//133
f 134//134 84//84 135//135
f 136//136 87//87 137//137
f 76//76 90//90 138//138
f 73//73 93//93 139//139
f 85//85 96//96 140//140
f 82//82 99//99 141//141
f 79//79 102//102 142//142
f 143//143 105//105 144//144
f 145//145 108//108 146//146
f 147//147 111//111 148//148
f 149//149 114//114 150//150
f 151//151 117//117 152//152
f 103//103 119//119 153//153
f 106//106 121//121 154//154
f 109//109 123//123 155//155
f 112//112 125//125 156//156
f 115//115 127//127 157//157
f 129//129 3//3 2//2
f 131//131 4//4 3//3
f 133//133 5//5 4//4
f 135//135 6//6 5//5
f 137//137 2//2 6//6
f 138//138 9//9 8//8
f 139//139 12//12 11//11
f 140//140 15//15 14//14
f 141//141 18//18 17//17
f 142//142 21//21 20//20
f 144//144 24//24 23//23
f 146//146 25//25 24//24
f 148//148 26//26 25//25
f 150//150 27//27 26//26
f 152//152 23//23 27//27
f 153//153 30//30 29//29
f 154//154 33//33 32//32
f 155//155 36//36 35//35
f 156//156 39//39 38//38
f 157//157 42//42 41//41
f 75//75 44//44 43//43
f 78//78 46//46 45//45
f 81//81 48//48 47//47
f 84//84 50//50 49//49
f 87//87 52//52 51//51
f 90//90 45//45 53//53
f 93//93 43//43 54//54
f 96//96 51//51 55//55
f 99//99 49//49 56//56
f 102//102 47//47 57//57
f 105//105 59//59 58//58
f 108//108 61//61 60//60
f 111//111 63//63 62//62
f 114//114 65//65 64//64
f 117//117 67//67 66//66
f 119//119 58//58 68//68
f 121//121 60//60 69//69
f 123//123 62//62 70//70
f 125//125 64//64 71//71
f 127//127 66//66 72//72
f 74//74 11//11 46//46
f 77//77 8//8 48//48
f 80//80 20//20 50//50
f 83//83 17//17 52//52
f 86//86 14//14 44//44
f 89//89 68//68 42//42
f 92//92 69//69 30//30
f 95//95 70//70 33//33
f 98//98 71//71 36//36
f 101//101 72//72 39//39
f 104//104 29//29 61//61
f 107//107 32//32 63//63
f 110//110 35//35 65//65
f 113//113 38//38 67//67
f 116//116 41//41 59//59
f 118//118 53//53 12//12
f 120//120 54//54 15//15
f 122//122 55//55 18//18
f 124//124 56//56 21//21
f 126//126 57//57 9//9
f 129//129 75//75 74//74
f 131//131 78//78 77//77
f 133//133 81//81 80//80
f 135//135 84//84 83//83
f 137//137 87//87 86//86
f 138//138 90//90 89//89
f 139//139 93//93 92//92
f 140//140 96//96 95//95
f 141//141 99//99 98//98
f 142//142 102//102 101//101
f 144//144 105//105 104//104
f 146//146 108//108 107//107
f 148//148 111//111 110//110
f 150//150 114//114 113//113
f 152//152 117//117 116//116
f 153//153 119//119 118//118
f 154//154 121//121 120//120
f 155//155 123//123 122//122
f 156//156 125//125 124//124
f 157//157 127//127 126//126
