# Created by Open3D 
# object name: part_026
# number of vertices: 162
# number of triangles: 320
v 1.64746 2.65847 0.719813
vn 0.119295 0.392076 -0.912165
v 1.6507 2.63933 0.712221
vn 0.177934 0.371838 -0.911085
v 1.64152 2.63996 0.711221
vn 0.0995808 0.379299 -0.9199
v 1.63519 2.65999 0.719138
vn 0.0794671 0.397657 -0.914087
v 1.64529 2.67171 0.72536
vn 0.104058 0.416514 -0.903154
v 1.65429 2.66959 0.725696
vn 0.181497 0.394553 -0.90077
v 1.26033 2.70907 0.70935
vn 0.034033 0.403221 -0.91447
v 1.26176 2.6896 0.700957
vn 0.0501804 0.385759 -0.921234
v 1.25268 2.69136 0.701464
vn -0.027809 0.398732 -0.916646
v 1.45132 2.66235 0.706197
vn -0.0772102 -0.730928 -0.678073
v 1.63168 2.63858 0.711435
vn -0.0892068 -0.813843 -0.574196
v 1.45119 2.66158 0.707343
vn -0.106068 -0.899253 -0.424374
v 1.65288 2.62809 0.73171
vn 0.13168 -0.91288 -0.386406
v 1.65552 2.62884 0.732258
vn 0.94444 -0.322913 -0.06132
v 1.65166 2.6204 0.750174
vn 0.281995 -0.90956 -0.305254
v 1.65692 2.66215 0.74688
vn 0.341018 0.851094 0.399181
v 1.65458 2.67073 0.729538
vn 0.2075 0.89453 0.39593
v 1.65165 2.65554 0.764441
vn 0.205962 0.886558 0.41424
v 1.49555 2.69287 0.723197
vn 0.12678 0.988063 0.087512
v 1.28365 2.72046 0.716765
vn 0.13122 0.953949 -0.269744
v 1.27513 2.72153 0.717625
vn 0.119227 0.968142 0.220197
v 1.25687 2.69112 0.750585
vn -0.119296 -0.392076 0.912165
v 1.24929 2.67374 0.741915
vn -0.180438 -0.392948 0.901684
v 1.25829 2.67162 0.742251
vn -0.103217 -0.409915 0.906265
v 1.26908 2.68921 0.751083
vn -0.0794672 -0.397657 0.914087
v 1.26206 2.70337 0.75639
vn -0.0988434 -0.372563 0.922728
v 1.25288 2.704 0.75539
vn -0.178577 -0.369918 0.911741
v 1.44802 2.64524 0.745495
vn -0.12678 -0.988061 -0.0875342
v 1.26765 2.66895 0.740235
vn -0.122236 -0.967948 -0.219395
v 1.4481 2.64556 0.744152
vn -0.109427 -0.916677 -0.384356
v 1.644 2.64052 0.761048
vn -0.0340313 -0.403221 0.91447
v 1.63806 2.62198 0.752515
vn -0.0538087 -0.416372 0.907601
v 1.64731 2.62172 0.752673
vn 0.0253079 -0.419843 0.907244
v 1.49225 2.67576 0.762495
vn 0.0772128 0.730945 0.678055
v 1.6241 2.65793 0.766462
vn 0.034257 0.44075 0.896976
v 1.6327 2.65759 0.765927
vn 0.0927377 0.812551 0.575466
v 1.2507 2.71525 0.735902
vn -0.13168 0.91288 0.386406
v 1.25316 2.70762 0.753671
vn 0.00693788 0.91257 0.408862
v 1.25609 2.72282 0.718767
vn 0.00847932 0.920543 0.390548
v 1.24666 2.68118 0.720731
vn -0.341019 -0.851094 -0.399181
v 1.24428 2.68259 0.721143
vn -0.991059 -0.0699303 -0.113633
v 1.24795 2.68951 0.702555
vn -0.480141 -0.759878 -0.438235
v 1.65042 2.63571 0.71394
vn -0.00693835 -0.91257 -0.408862
v 1.65474 2.63635 0.713549
vn 0.291417 -0.860737 -0.417383
v 1.27949 2.6854 0.701149
vn -0.0346909 -0.444264 -0.895224
v 1.62333 2.64046 0.710442
vn -0.0330826 -0.444474 -0.895181
v 1.26552 2.72135 0.715096
vn 0.0545272 0.422987 -0.904494
v 1.27259 2.70738 0.709338
vn 0.0739926 0.398372 -0.914235
v 1.63593 2.67438 0.727377
vn 0.122746 0.968209 0.217954
v 1.62749 2.67552 0.726059
vn 0.132768 0.951737 -0.276711
v 1.65931 2.66074 0.746468
vn 0.977188 0.152082 0.148237
v 1.6587 2.66976 0.728431
vn 0.489542 0.808705 0.326105
v 1.27089 2.68574 0.701684
vn -0.0924448 -0.813413 -0.574294
v 1.64749 2.62051 0.748844
vn -0.00848001 -0.920543 -0.390548
v 1.65563 2.65382 0.765056
vn 0.480141 0.759878 0.438235
v 1.49596 2.69248 0.724553
vn 0.109427 0.916678 0.384354
v 1.25628 2.72161 0.714938
vn -0.0259673 0.421673 -0.906376
v 1.249 2.6726 0.738074
vn -0.2075 -0.89453 -0.39593
v 1.24488 2.67357 0.73918
vn -0.489542 -0.808705 -0.326105
v 1.61994 2.62287 0.750846
vn -0.131127 -0.953034 0.273005
v 1.27609 2.66781 0.741553
vn -0.132736 -0.952826 0.272955
v 1.64182 2.65373 0.766654
vn -0.0493114 -0.379041 0.924065
v 1.63169 2.64181 0.760884
vn -0.0739924 -0.398372 0.914235
v 1.2719 2.70475 0.756176
vn 0.0895835 0.814373 0.573387
v 1.28025 2.70287 0.757169
vn 0.0335695 0.447419 0.893694
v 1.24806 2.71449 0.735353
vn -0.91179 0.398991 0.0971845
v 1.24884 2.70699 0.754062
vn -0.291416 0.860737 0.417383
v 1.25193 2.68779 0.70317
vn -0.205961 -0.886558 -0.41424
v 1.62845 2.6218 0.749986
vn -0.118997 -0.968378 -0.219281
v 1.6509 2.65198 0.766147
vn 0.0288871 -0.397038 0.917348
v 1.49287 2.67645 0.761362
vn 0.106068 0.899256 0.424368
v 1.25192 2.72293 0.717437
vn -0.281994 0.90956 0.305254
v 1.64384 2.63682 0.712459
vn -0.0716757 -0.897858 -0.434412
v 1.64089 2.63805 0.711265
vn -0.0141646 -0.542934 -0.839656
v 1.65021 2.63683 0.712272
vn 0.0495619 -0.652843 -0.75587
v 1.26795 2.68764 0.700783
vn 0.0270245 0.0311412 -0.99915
v 1.27954 2.68735 0.701227
vn 0.0743398 0.382669 -0.92089
v 1.4515 2.66361 0.705602
vn 0.0321008 0.0390808 -0.99872
v 1.27198 2.72154 0.715878
vn 0.107919 0.707557 -0.698367
v 1.49365 2.69269 0.721803
vn 0.110776 0.702064 -0.703445
v 1.28331 2.71913 0.715382
vn 0.0789613 0.421828 -0.903231
v 1.64806 2.67239 0.728298
vn 0.143624 0.916414 0.373574
v 1.6543 2.67127 0.727613
vn 0.2421 0.96968 -0.0332753
v 1.64504 2.67304 0.72685
vn 0.165645 0.972317 -0.164809
v 1.65861 2.64802 0.74087
vn 0.99121 -0.129556 0.0267915
v 1.65692 2.63766 0.714278
vn 0.984319 -0.11032 -0.137642
v 1.66051 2.66795 0.727768
vn 0.995507 -0.0134173 -0.0937289
v 1.25865 2.68717 0.702049
vn -0.138368 -0.88914 -0.436216
v 1.25251 2.68881 0.701524
vn -0.175353 -0.623436 -0.761958
v 1.26188 2.68759 0.701022
vn -0.0811837 -0.534179 -0.841464
v 1.64071 2.6206 0.749723
vn -0.0769265 -0.925133 -0.371768
v 1.62878 2.62238 0.74811
vn -0.10645 -0.910191 -0.400275
v 1.64324 2.62849 0.731078
vn -0.0751674 -0.911948 -0.403361
v 1.65416 2.65289 0.766011
vn 0.235542 -0.281187 0.930298
v 1.65364 2.63985 0.760406
vn 0.230551 -0.418571 0.878433
v 1.65744 2.65198 0.764435
vn 0.971455 -0.138181 0.192825
v 1.49458 2.68452 0.742993
vn 0.107773 0.908183 0.404461
v 1.63307 2.65852 0.764207
vn 0.109537 0.90609 0.408659
v 1.63601 2.67374 0.729264
vn 0.110233 0.909702 0.400363
v 1.25326 2.72274 0.715986
vn -0.204005 0.546902 -0.811961
v 1.2566 2.72326 0.716865
vn 0.0171856 0.999077 -0.0393699
v 1.25973 2.72271 0.715756
vn 0.0416124 0.761312 -0.647049
v 1.25552 2.67094 0.739313
vn -0.143624 -0.916414 -0.373574
v 1.25854 2.67029 0.740761
vn -0.165645 -0.972317 0.16481
v 1.24928 2.67206 0.739998
vn -0.2421 -0.969681 0.033275
v 1.6316 2.6218 0.751733
vn -0.107409 -0.70853 0.697459
v 1.62027 2.6242 0.752229
vn -0.0779865 -0.413399 0.907204
v 1.44804 2.64566 0.746838
vn -0.110776 -0.702064 0.703445
v 1.63563 2.65569 0.766828
vn -0.025924 -0.0294236 0.999231
v 1.49019 2.67474 0.763039
vn -0.0321008 -0.0390808 0.99872
v 1.62404 2.65598 0.766384
vn -0.0736305 -0.376939 0.923307
v 1.25974 2.70651 0.755152
vn 0.0716755 0.897858 0.434412
v 1.25337 2.7065 0.755339
vn -0.0495618 0.652843 0.75587
v 1.26269 2.70528 0.756346
vn 0.0141649 0.542935 0.839656
v 1.24577 2.70198 0.729712
vn -0.99121 0.129556 -0.0267915
v 1.24307 2.67538 0.739843
vn -0.995049 0.0199024 0.0973764
v 1.24666 2.70567 0.753333
vn -0.983179 0.117301 0.140001
v 1.27051 2.68481 0.703404
vn -0.109095 -0.906155 -0.408633
v 1.2561 2.67909 0.720615
vn -0.140262 -0.90344 -0.405121
v 1.64698 2.62008 0.750746
vn -0.0171857 -0.999077 0.0393701
v 1.63755 2.62075 0.751004
vn -0.0986258 -0.981074 0.166635
v 1.65107 2.65452 0.766088
vn 0.175353 0.623434 0.761959
v 1.64781 2.65397 0.766708
vn 0.0519646 0.0272975 0.998276
v 1.2748 2.72095 0.719501
vn 0.106739 0.91015 0.400292
v 1.27187 2.70574 0.754445
vn 0.106047 0.906557 0.408545
v 1.25072 2.71005 0.710129
vn -0.230551 0.418571 -0.878433
v 1.24974 2.72164 0.716666
vn -0.959126 0.242066 -0.146563
v 1.65361 2.63761 0.712524
vn 0.357753 0.244326 -0.901287
v 1.64724 2.63819 0.711484
vn 0.0961535 -0.0466596 -0.994272
v 1.63505 2.63966 0.710704
vn 0.0349827 0.0300972 -0.998935
v 1.62377 2.64235 0.710531
vn 0.0754525 0.382523 -0.92086
v 1.45395 2.68412 0.714337
vn 0.0767302 0.398016 -0.914164
v 1.62754 2.67414 0.724686
vn 0.0797899 0.418887 -0.904526
v 1.63907 2.67355 0.725799
vn 0.116361 0.70866 -0.695889
v 1.6512 2.67155 0.726337
vn 0.189738 0.741953 -0.643043
v 1.65744 2.66991 0.72691
vn 0.380453 0.470501 -0.796169
v 1.65694 2.65696 0.721108
vn 0.376639 0.339205 -0.862022
v 1.25577 2.68936 0.700904
vn -0.0519645 -0.0272949 -0.998276
v 1.63172 2.63759 0.713166
vn -0.105756 -0.906591 -0.408544
v 1.65384 2.62169 0.750945
vn 0.960157 -0.235651 0.150221
v 1.64748 2.66424 0.746997
vn 0.140262 0.90344 0.405121
v 1.26603 2.72258 0.716607
vn 0.0986259 0.981074 -0.166635
v 1.24614 2.67342 0.740702
vn -0.380187 -0.433383 0.817091
v 1.25238 2.67179 0.741274
vn -0.189738 -0.741954 0.643043
v 1.26451 2.66978 0.741812
vn -0.115367 -0.707493 0.69724
v 1.27604 2.66919 0.742925
vn -0.0790994 -0.413255 0.907173
v 1.45043 2.66588 0.756245
vn -0.0767302 -0.398016 0.914164
v 1.27981 2.70098 0.75708
vn -0.0744466 -0.373935 0.924462
v 1.26853 2.70367 0.756907
vn -0.0345465 -0.0314524 0.998908
v 1.25634 2.70514 0.756127
vn -0.0961535 0.0466597 0.994272
v 1.24998 2.70572 0.755087
vn -0.348924 -0.204801 0.914499
v 1.24742 2.69294 0.749427
vn -0.376639 -0.339205 0.862022
v 1.26758 2.66959 0.738347
vn -0.109789 -0.909756 -0.400363
v 1.64385 2.62062 0.751855
vn -0.0416124 -0.761312 0.647049
v 1.64171 2.65574 0.766589
vn 0.0811838 0.53418 0.841464
v 1.26035 2.71484 0.736533
vn 0.0751672 0.911948 0.403361
v 1.24615 2.69135 0.703176
vn -0.970886 0.145237 -0.190489
v 1.24942 2.69044 0.7016
vn -0.234611 0.321747 -0.917298
v 1.44964 2.6535 0.725716
vn -0.107773 -0.908184 -0.404459
v 1.65032 2.62059 0.751626
vn 0.21217 -0.510815 0.833098
v 1.64494 2.65616 0.765563
vn 0.138367 0.88914 0.436216
v 1.26287 2.72273 0.717888
vn 0.0769266 0.925133 0.371767
f 1//1 2//2 3//3
f 1//1 3//3 4//4
f 1//1 4//4 5//5
f 1//1 5//5 6//6
f 1//1 6//6 2//2
f 7//7 8//8 9//9
f 10//10 11//11 12//12
f 13//13 14//14 15//15
f 16//16 17//17 18//18
f 19//19 20//20 21//21
f 22//22 23//23 24//24
f 22//22 24//24 25//25
f 22//22 25//25 26//26
f 22//22 26//26 27//27
f 22//22 27//27 23//23
f 28//28 29//29 30//30
f 31//31 32//32 33//33
f 34//34 35//35 36//36
f 37//37 38//38 39//39
f 40//40 41//41 42//42
f 13//13 43//43 44//44
f 10//10 45//45 46//46
f 7//7 47//47 48//48
f 19//19 49//49 50//50
f 16//16 51//51 52//52
f 10//10 53//53 45//45
f 13//13 54//54 43//43
f 16//16 55//55 51//51
f 19//19 56//56 49//49
f 7//7 57//57 47//47
f 40//40 58//58 59//59
f 28//28 60//60 61//61
f 31//31 62//62 63//63
f 34//34 64//64 65//65
f 37//37 66//66 67//67
f 40//40 68//68 58//58
f 28//28 69//69 60//60
f 31//31 70//70 62//62
f 34//34 71//71 64//64
f 37//37 72//72 66//66
f 10//10 46//46 11//11
f 7//7 48//48 8//8
f 19//19 50//50 20//20
f 16//16 52//52 17//17
f 13//13 44//44 14//14
f 40//40 42//42 68//68
f 28//28 30//30 69//69
f 31//31 33//33 70//70
f 34//34 36//36 71//71
f 37//37 39//39 72//72
f 28//28 61//61 29//29
f 31//31 63//63 32//32
f 34//34 65//65 35//35
f 37//37 67//67 38//38
f 40//40 59//59 41//41
f 10//10 12//12 53//53
f 13//13 15//15 54//54
f 16//16 18//18 55//55
f 19//19 21//21 56//56
f 7//7 9//9 57//57
f 73//73 74//74 75//75
f 76//76 77//77 78//78
f 79//79 80//80 81//81
f 82//82 83//83 84//84
f 85//85 86//86 87//87
f 88//88 89//89 90//90
f 91//91 92//92 93//93
f 94//94 95//95 96//96
f 97//97 98//98 99//99
f 100//100 101//101 102//102
f 103//103 104//104 105//105
f 106//106 107//107 108//108
f 109//109 110//110 111//111
f 112//112 113//113 114//114
f 115//115 116//116 117//117
f 88//88 118//118 119//119
f 91//91 120//120 121//121
f 94//94 122//122 123//123
f 97//97 124//124 125//125
f 100//100 126//126 127//127
f 128//128 129//129 2//2
f 130//130 131//131 3//3
f 132//132 133//133 4//4
f 134//134 135//135 5//5
f 136//136 137//137 6//6
f 76//76 138//138 8//8
f 73//73 139//139 11//11
f 85//85 140//140 14//14
f 82//82 141//141 17//17
f 79//79 142//142 20//20
f 143//143 144//144 23//23
f 145//145 146//146 24//24
f 147//147 148//148 25//25
f 149//149 150//150 26//26
f 151//151 152//152 27//27
f 103//103 153//153 29//29
f 106//106 154//154 32//32
f 109//109 155//155 35//35
f 112//112 156//156 38//38
f 115//115 157//157 41//41
f 73//73 75//75 43//43
f 76//76 78//78 45//45
f 79//79 81//81 47//47
f 82//82 84//84 49//49
f 85//85 87//87 51//51
f 88//88 90//90 53//53
f 91//91 93//93 54//54
f 94//94 96//96 55//55
f 97//97 99//99 56//56
f 100//100 102//102 57//57
f 103//103 105//105 58//58
f 106//106 108//108 60//60
f 109//109 111//111 62//62
f 112//112 114//114 64//64
f 115//115 117//117 66//66
f 88//88 119//119 68//68
f 91//91 121//121 69//69
f 94//94 123//123 70//70
f 97//97 125//125 71//71
f 100//100 127//127 72//72
f 130//130 74//74 46//46
f 132//132 77//77 48//48
f 134//134 80//80 50//50
f 136//136 83//83 52//52
f 128//128 86//86 44//44
f 158//158 89//89 42//42
f 159//159 92//92 30//30
f 160//160 95//95 33//33
f 161//161 98//98 36//36
f 162//162 101//101 39//39
f 145//145 104//104 61//61
f 147//147 107//107 63//63
f 149//149 110//110 65//65
f 151//151 113//113 67//67
f 143//143 116//116 59//59
f 159//159 118//118 12//12
f 160//160 120//120 15//15
f 161//161 122//122 18//18
f 162//162 124//124 21//21
f 158//158 126//126 9//9
f 130//130 129//129 74//74
f 132//132 131//131 77//77
f 134//134 133//133 80//80
f 136//136 135//135 83//83
f 128//128 137//137 86//86
f 158//158 138//138 89//89
f 159//159 139//139 92//92
f 160//160 140//140 95//95
f 161//161 141//141 98//98
f 162//162 142//142 101//101
f 145//145 144//144 104//104
f 147//147 146//146 107//107
f 149//149 148//148 110//110
f 151//151 150//150 113//113
f 143//143 152//152 116//116
f 159//159 153//153 118//118
f 160//160 154//154 120//120
f 161//161 155//155 122//122
f 162//162 156//156 124//124
f 158//158 157//157 126//126
f 130//130 3//3 129//129
f 132//132 4//4 131//131
f 134//134 5//5 133//133
f 136//136 6//6 135//135
f 128//128 2//2 137//137
f 158//158 9//9 138//138
f 159//159 12//12 139//139
f 160//160 15//15 140//140
f 161//161 18//18 141//141
f 162//162 21//21 142//142
f 145//145 24//24 144//144
f 147//147 25//25 146//146
f 149//149 26//26 148//148
f 151//151 27//27 150//150
f 143//143 23//23 152//152
f 159//159 30//30 153//153
f 160//160 33//33 154//154
f 161//161 36//36 155//155
f 162//162 39//39 156//156
f 158//158 42//42 157//157
f 128//128 44//44 75//75
f 130//130 46//46 78//78
f 132//132 48//48 81//81
f 134//134 50//50 84//84
f 136//136 52//52 87//87
f 76//76 45//45 90//90
f 73//73 43//43 93//93
f 85//85 51//51 96//96
f 82//82 49//49 99//99
f 79//79 47//47 102//102
f 143//143 59//59 105//105
f 145//145 61//61 108//108
f 147//147 63//63 111//111
f 149//149 65//65 114//114
f 151//151 67//67 117//117
f 103//103 58//58 119//119
f 106//106 60//60 121//121
f 109//109 62//62 123//123
f 112//112 64//64 125//125
f 115//115 66//66 127//127
f 73//73 11//11 74//74
f 76//76 8//8 77//77
f 79//79 20//20 80//80
f 82//82 17//17 83//83
f 85//85 14//14 86//86
f 88//88 68//68 89//89
f 91//91 69//69 92//92
f 94//94 70//70 95//95
f 97//97 71//71 98//98
f 100//100 72//72 101//101
f 103//103 29//29 104//104
f 106//106 32//32 107//107
f 109//109 35//35 110//110
f 112//112 38//38 113//113
f 115//115 41//41 116//116
f 88//88 53//53 118//118
f 91//91 54//54 120//120
f 94//94 55//55 122//122
f 97//97 56//56 124//124
f 100//100 57//57 126//126
f 128//128 75//75 129//129
f 130//130 78//78 131//131
f 132//132 81//81 133//133
f 134//134 84//84 135//135
f 136//136 87//87 137//137
f 76//76 90//90 138//138
f 73//73 93//93 139//139
f 85//85 96//96 140//140
f 82//82 99//99 141//141
f 79//79 102//102 142//142
f 143//143 105//105 144//144
f 145//145 108//108 146//146
f 147//147 111//111 148//148
f 149//149 114//114 150//150
f 151//151 117//117 152//152
f 103//103 119//119 153//153
f 106//106 121//121 154//154
f 109//109 123//123 155//155
f 112//112 125//125 156//156
f 115//115 127//127 157//157
f 129//129 3//3 2//2
f 131//131 4//4 3//3
f 133//133 5//5 4//4
f 135//135 6//6 5//5
f 137//137 2//2 6//6
f 138//138 9//9 8//8
f 139//139 12//12 11//11
f 140//140 15//15 14//14
f 141//141 18//18 17//17
f 142//142 21//21 20//20
f 144//144 24//24 23//23
f 146//146 25//25 24//24
f 148//148 26//26 25//25
f 150//150 27//27 26//26
f 152//152 23//23 27//27
f 153//153 30//30 29//29
f 154//154 33//33 32//32
f 155//155 36//36 35//35
f 156//156 39//39 38//38
f 157//157 42//42 41//41
f 75//75 44//44 43//43
f 78//78 46//46 45//45
f 81//81 48//48 47//47
f 84//84 50//50 49//49
f 87//87 52//52 51//51
f 90//90 45//45 53//53
f 93//93 43//43 54//54
f 96//96 51//51 55//55
f 99//99 49//49 56//56
f 102//102 47//47 57//57
f 105//105 59//59 58//58
f 108//108 61//61 60//60
f 111//111 63//63 62//62
f 114//114 65//65 64//64
f 117//117 67//67 66//66
f 119//119 58//58 68//68
f 121//121 60//60 69//69
f 123//123 62//62 70//70
f 125//125 64//64 71//71
f 127//127 66//66 72//72
f 74//74 11//11 46//46
f 77//77 8//8 48//48
f 80//80 20//20 50//50
f 83//83 17//17 52//52
f 86//86 14//14 44//44
f 89//89 68//68 42//42
f 92//92 69//69 30//30
f 95//95 70//70 33//33
f 98//98 71//71 36//36
f 101//101 72//72 39//39
f 104//104 29//29 61//61
f 107//107 32//32 63//63
f 110//110 35//35 65//65
f 113//113 38//38 67//67
f 116//116 41//41 59//59
f 118//118 53//53 12//12
f 120//120 54//54 15//15
f 122//122 55//55 18//18
f 124//124 56//56 21//21
f 126//126 57//57 9//9
f 129//129 75//75 74//74
f 131//131 78//78 77//77
f 133//133 81//81 80//80
f 135//135 84//84 83//83
f 137//137 87//87 86//86
f 138//138 90//90 89//89
f 139//139 93//93 92//92
f 140//140 96//96 95//95
f 141//141 99//99 98//98
f 142//142 102//102 101//101
f 144//144 105//105 104//104
f 146//146 108//108 107//107
f 148//148 111//111 110//110
f 150//150 114//114 113//113
f 152//152 117//117 116//116
f 153//153 119//119 118//118
f 154//154 121//121 120//120
f 155//155 123//123 122//122
f 156//156 125//125 124//124
f 157//157 127//127 126//126
