# Created by Open3D 
# object name: part_037
# number of vertices: 162
# number of triangles: 320
v 1.02835 4.88188 0.763025
vn 0.603061 -0.599118 -0.526664
v 1.04829 4.88718 0.780452
vn 0.632256 -0.58391 -0.509217
v 1.02724 4.86549 0.780812
vn 0.606607 -0.616251 -0.502257
v 0.999404 4.85344 0.76306
vn 0.588193 -0.61365 -0.526747
v 1.01445 4.87874 0.751097
vn 0.580947 -0.589634 -0.561099
v 1.0361 4.8998 0.752133
vn 0.616864 -0.567319 -0.545552
v 0.103156 3.9954 0.766114
vn 0.57098 -0.629857 -0.526557
v 0.11964 3.99587 0.783842
vn 0.588029 -0.63405 -0.502198
v 0.0970721 3.97576 0.783627
vn 0.554602 -0.658314 -0.508958
v 0.573159 4.43098 0.785171
vn 0.474692 -0.492878 0.729204
v 1.0039 4.84449 0.78412
vn 0.431936 -0.447338 0.783148
v 0.571895 4.43231 0.786592
vn 0.373462 -0.386831 0.843142
v 1.03686 4.9188 0.801936
vn 0.418771 -0.326225 0.847472
v 1.04243 4.92501 0.800907
vn 0.799202 0.336881 0.497783
v 1.01749 4.94044 0.819499
vn 0.432047 -0.263016 0.862646
v 1.02313 4.93302 0.770053
vn -0.310992 0.429496 -0.847831
v 1.03269 4.9045 0.752607
vn -0.340038 0.396347 -0.852809
v 0.994726 4.94424 0.786664
vn -0.347015 0.403651 -0.84655
v 0.654316 4.53746 0.751396
vn -0.242673 0.250003 -0.937341
v 0.148624 4.05144 0.752866
vn -0.0720204 0.0713135 -0.99485
v 0.127209 4.03324 0.753496
vn -0.295938 0.305104 -0.90517
v 0.0583051 4.04235 0.80635
vn -0.603062 0.599117 0.526664
v 0.0530742 4.02182 0.823098
vn -0.617802 0.56894 0.542796
v 0.0747266 4.04288 0.824134
vn -0.585724 0.594625 0.55077
v 0.0874084 4.07063 0.806686
vn -0.588192 0.61365 0.526748
v 0.0619355 4.05613 0.794419
vn -0.610919 0.620669 0.491475
v 0.0408842 4.03444 0.794779
vn -0.633732 0.584789 0.506365
v 0.530416 4.47573 0.823516
vn 0.242656 -0.249985 0.93735
v 0.0997005 4.06219 0.824614
vn 0.294899 -0.30535 0.905426
v 0.531859 4.47422 0.822508
vn 0.358282 -0.37094 0.85676
v 0.983497 4.92883 0.803261
vn -0.57098 0.629857 0.526556
v 0.982325 4.91251 0.821104
vn -0.567147 0.612422 0.550712
v 1.00429 4.93324 0.819922
vn -0.540146 0.643348 0.542536
v 0.611573 4.5822 0.789741
vn -0.474713 0.4929 -0.729176
v 0.926423 4.88481 0.789546
vn -0.587977 0.612263 -0.528599
v 0.947543 4.90332 0.788233
vn -0.431619 0.44866 -0.782566
v 0.052318 4.00282 0.773295
vn -0.418772 0.326224 -0.847471
v 0.0423738 4.03173 0.789844
vn -0.391409 0.361113 -0.846402
v 0.0803377 3.99199 0.755787
vn -0.384433 0.353811 -0.85266
v 0.0660426 3.98861 0.805178
vn 0.310993 -0.429496 0.847831
v 0.0596043 3.9833 0.804188
vn -0.36897 -0.782415 0.501684
v 0.0851494 3.96724 0.787009
vn 0.293186 -0.488009 0.822125
v 1.0468 4.88989 0.785387
vn 0.391409 -0.361113 0.846402
v 1.05732 4.89874 0.783763
vn 0.477904 -0.311017 0.821509
v 0.162752 4.03681 0.785685
vn 0.586851 -0.611041 0.531258
v 0.984496 4.82418 0.782942
vn 0.587285 -0.61066 0.531216
v 0.106849 4.00911 0.754127
vn 0.562328 -0.607473 -0.561038
v 0.132814 4.0231 0.765953
vn 0.586134 -0.615623 -0.526741
v 0.989474 4.85943 0.750617
vn -0.294261 0.304876 -0.905793
v 0.970368 4.83881 0.750123
vn -0.0675416 0.0674771 -0.995432
v 1.02957 4.93832 0.771043
vn 0.234988 0.75213 -0.615696
v 1.04386 4.91268 0.752486
vn -0.247324 0.440008 -0.863264
v 0.141631 4.0183 0.786998
vn 0.43123 -0.448058 0.783125
v 1.00884 4.92963 0.819444
vn 0.384433 -0.353811 0.85266
v 1.00402 4.95438 0.788222
vn -0.293186 0.488008 -0.822125
v 0.654055 4.5401 0.7524
vn -0.35828 0.370939 -0.856761
v 0.0848821 3.98838 0.755309
vn 0.538561 -0.642351 -0.545287
v 0.0564844 4.01712 0.822624
vn 0.340038 -0.396347 0.852809
v 0.0453135 4.00894 0.822745
vn 0.247323 -0.440008 0.863263
v 0.94055 4.87018 0.822365
vn 0.0702028 -0.0693835 0.995117
v 0.118806 4.08281 0.825108
vn 0.0697588 -0.0697544 0.995122
v 0.969534 4.92575 0.791389
vn -0.592299 0.638511 0.491412
v 0.953999 4.90097 0.803793
vn -0.586134 0.615622 0.526742
v 0.085279 4.07713 0.791111
vn -0.431569 0.44708 -0.783497
v 0.104679 4.09744 0.792289
vn -0.586277 0.609632 -0.533506
v 0.046749 3.99661 0.774324
vn -0.76362 -0.204699 -0.612358
v 0.0318499 4.02288 0.791468
vn -0.477905 0.311015 -0.821509
v 0.0944483 3.97738 0.788567
vn 0.347015 -0.403651 0.84655
v 0.961965 4.88838 0.821735
vn 0.295625 -0.304649 0.905425
v 0.992102 4.94586 0.791604
vn -0.555427 0.65982 0.506101
v 0.61402 4.58201 0.788316
vn -0.373463 0.386832 -0.843141
v 0.0716858 3.98118 0.755732
vn -0.432048 0.263015 -0.862646
v 1.0323 4.87321 0.784543
vn 0.385108 -0.384168 0.839111
v 1.02615 4.86484 0.783093
vn 0.562396 -0.568223 0.600694
v 1.04768 4.88707 0.783379
vn 0.540411 -0.507929 0.670793
v 0.135072 4.01008 0.784925
vn 0.689945 -0.722589 0.0428984
v 0.162327 4.03631 0.78352
vn 0.597195 -0.62544 -0.502178
v 0.573875 4.43023 0.78344
vn 0.691556 -0.721642 0.0313661
v 0.121416 4.02422 0.753201
vn 0.279471 -0.297122 -0.913025
v 0.651219 4.5317 0.751252
vn 0.286784 -0.302473 -0.908991
v 0.149521 4.04957 0.753771
vn 0.570092 -0.597383 -0.564029
v 1.01797 4.88805 0.751255
vn -0.346513 0.373477 -0.86049
v 1.0338 4.90144 0.751138
vn -0.162413 0.219897 -0.961908
v 1.01205 4.87944 0.750339
vn -0.11944 0.137865 -0.983223
v 1.03656 4.93488 0.782846
vn 0.722047 0.69184 -0.00241496
v 1.06148 4.90393 0.782263
vn 0.909867 0.414251 -0.0231866
v 1.04928 4.91657 0.753913
vn 0.783477 0.540345 -0.306905
v 0.111731 3.99115 0.787616
vn 0.370286 -0.398365 0.839163
v 0.0972232 3.97638 0.786552
vn 0.486703 -0.55936 0.670997
v 0.120349 3.99694 0.786117
vn 0.545747 -0.584114 0.600809
v 0.991772 4.91563 0.820903
vn 0.361331 -0.35927 0.860445
v 0.964488 4.88673 0.820138
vn 0.364704 -0.37692 0.851423
v 1.01439 4.8966 0.802799
vn 0.373115 -0.371971 0.849955
v 0.99979 4.95258 0.789963
vn -0.541699 0.788983 0.289946
v 1.0073 4.94965 0.802095
vn -0.460943 0.719676 0.519228
v 1.0094 4.95832 0.78969
vn 0.443418 0.896313 -0.00184538
v 0.634385 4.56144 0.770291
vn -0.365902 0.378917 -0.850022
v 0.949925 4.90181 0.786307
vn -0.367004 0.381012 -0.848609
v 0.987932 4.86202 0.752211
vn -0.363859 0.377719 -0.851431
v 0.0763695 3.98252 0.755035
vn 0.358226 -0.598979 -0.716169
v 0.0833446 3.99075 0.754311
vn -0.216094 0.168434 -0.961735
v 0.0920345 3.99657 0.753874
vn 0.198338 -0.258306 -0.945484
v 0.0711998 4.03358 0.823976
vn 0.346512 -0.373477 0.860491
v 0.0771262 4.04218 0.824892
vn 0.119439 -0.137864 0.983223
v 0.0553761 4.02018 0.824093
vn 0.162412 -0.219895 0.961909
v 0.967758 4.8974 0.82203
vn -0.278175 0.296173 0.913729
v 0.939653 4.87205 0.82146
vn -0.576235 0.603734 0.55087
v 0.529024 4.47718 0.823675
vn -0.286785 0.302474 0.908991
v 0.954102 4.91154 0.790306
vn -0.689585 0.722781 -0.0453898
v 0.606368 4.57865 0.791487
vn -0.691555 0.721641 -0.0313863
v 0.926847 4.88531 0.791711
vn -0.600846 0.629236 0.492997
v 0.0568707 4.04841 0.790688
vn -0.385108 0.384167 -0.839111
v 0.0414974 4.03455 0.791852
vn -0.540409 0.507928 -0.670796
v 0.063027 4.05678 0.792138
vn -0.5624 0.568226 -0.600687
v 0.0499222 3.98952 0.78614
vn -0.722048 -0.691839 0.00241438
v 0.0398972 4.00505 0.821318
vn -0.795522 -0.532664 0.288815
v 0.0276933 4.01769 0.792968
vn -0.91443 -0.404734 0.00269378
v 0.139249 4.01981 0.788924
vn 0.367098 -0.380912 0.848613
v 0.0891862 4.01011 0.805888
vn 0.358654 -0.385825 0.850004
v 1.00583 4.93087 0.82092
vn 0.216093 -0.168433 0.961735
v 0.982924 4.91008 0.821868
vn 0.136076 -0.121958 0.983163
v 0.991951 4.94524 0.788679
vn -0.486704 0.559361 -0.670995
v 0.983703 4.93897 0.790142
vn -0.661746 0.738197 -0.130987
v 0.124686 4.03489 0.755093
vn -0.364642 0.376983 -0.851422
v 0.0866792 4.07468 0.789189
vn -0.367773 0.38026 -0.848614
v 0.0792316 3.97471 0.766991
vn 0.460942 -0.719677 -0.519228
v 0.0675746 3.97594 0.75719
vn -0.574375 -0.760701 -0.302369
v 1.05533 4.89458 0.782043
vn 0.750022 -0.55587 -0.358435
v 1.04105 4.87909 0.781965
vn 0.709705 -0.692228 0.130915
v 1.01238 4.85069 0.781996
vn 0.692612 -0.720036 0.042857
v 0.985007 4.82457 0.780773
vn 0.597614 -0.625039 -0.50218
v 0.566034 4.43834 0.764047
vn 0.587164 -0.614637 -0.526745
v 0.972201 4.83783 0.751025
vn 0.57258 -0.599093 -0.559679
v 0.998728 4.86483 0.750272
vn 0.279561 -0.29171 -0.914741
v 1.02761 4.893 0.750751
vn 0.246307 -0.212344 -0.945644
v 1.04232 4.90806 0.75181
vn 0.580644 -0.385873 -0.716906
v 1.05004 4.90491 0.76375
vn 0.697523 -0.492991 -0.520021
v 0.105471 3.98265 0.785089
vn 0.661746 -0.738197 0.130986
v 1.00249 4.84694 0.786042
vn 0.36784 -0.380202 0.848611
v 1.0216 4.94568 0.818041
vn 0.56715 0.773003 0.284265
v 0.999988 4.91151 0.769343
vn -0.358654 0.385825 -0.850004
v 0.10625 4.01154 0.753363
vn -0.136077 0.121958 -0.983163
v 0.0468541 4.01356 0.823421
vn -0.618015 0.419167 0.665099
v 0.0615611 4.02862 0.824481
vn -0.246304 0.21234 0.945646
v 0.0904459 4.05679 0.824959
vn -0.280844 0.293622 0.913736
v 0.116973 4.08379 0.824206
vn -0.576655 0.603334 0.55087
v 0.520452 4.48606 0.804939
vn -0.587163 0.614636 0.526746
v 0.104168 4.09705 0.794458
vn -0.603074 0.630675 0.488417
v 0.0767899 4.07093 0.793235
vn -0.692459 0.720283 -0.0411432
v 0.0481243 4.04253 0.793266
vn -0.709706 0.69223 -0.130901
v 0.0338398 4.02704 0.793188
vn -0.764116 0.575871 0.290689
v 0.036488 4.01945 0.805336
vn -0.697523 0.492991 0.520021
v 0.101242 4.0596 0.82302
vn 0.363963 -0.377631 0.851426
v 0.99714 4.92505 0.821357
vn -0.198331 0.258299 0.945488
v 0.968825 4.92468 0.789114
vn -0.545749 0.584116 -0.600806
v 0.0747849 4.02502 0.772432
vn -0.373115 0.371971 -0.849955
v 0.0797784 3.9633 0.785541
vn -0.452806 -0.891415 -0.0186305
v 0.0893838 3.96904 0.785268
vn 0.522079 -0.774275 -0.357676
v 0.551905 4.45323 0.804616
vn 0.365903 -0.378918 0.850021
v 1.0128 4.9391 0.820196
vn -0.390072 0.637566 0.664344
v 0.977443 4.93047 0.787615
vn -0.370286 0.398365 -0.839163
v 0.0974018 4.00599 0.754328
vn -0.361331 0.359271 -0.860444
f 1//1 2//2 3//3
f 1//1 3//3 4//4
f 1//1 4//4 5//5
f 1//1 5//5 6//6
f 1//1 6//6 2//2
f 7//7 8//8 9//9
f 10//10 11//11 12//12
f 13//13 14//14 15//15
f 16//16 17//17 18//18
f 19//19 20//20 21//21
f 22//22 23//23 24//24
f 22//22 24//24 25//25
f 22//22 25//25 26//26
f 22//22 26//26 27//27
f 22//22 27//27 23//23
f 28//28 29//29 30//30
f 31//31 32//32 33//33
f 34//34 35//35 36//36
f 37//37 38//38 39//39
f 40//40 41//41 42//42
f 13//13 43//43 44//44
f 10//10 45//45 46//46
f 7//7 47//47 48//48
f 19//19 49//49 50//50
f 16//16 51//51 52//52
f 10//10 53//53 45//45
f 13//13 54//54 43//43
f 16//16 55//55 51//51
f 19//19 56//56 49//49
f 7//7 57//57 47//47
f 40//40 58//58 59//59
f 28//28 60//60 61//61
f 31//31 62//62 63//63
f 34//34 64//64 65//65
f 37//37 66//66 67//67
f 40//40 68//68 58//58
f 28//28 69//69 60//60
f 31//31 70//70 62//62
f 34//34 71//71 64//64
f 37//37 72//72 66//66
f 10//10 46//46 11//11
f 7//7 48//48 8//8
f 19//19 50//50 20//20
f 16//16 52//52 17//17
f 13//13 44//44 14//14
f 40//40 42//42 68//68
f 28//28 30//30 69//69
f 31//31 33//33 70//70
f 34//34 36//36 71//71
f 37//37 39//39 72//72
f 28//28 61//61 29//29
f 31//31 63//63 32//32
f 34//34 65//65 35//35
f 37//37 67//67 38//38
f 40//40 59//59 41//41
f 10//10 12//12 53//53
f 13//13 15//15 54//54
f 16//16 18//18 55//55
f 19//19 21//21 56//56
f 7//7 9//9 57//57
f 73//73 74//74 75//75
f 76//76 77//77 78//78
f 79//79 80//80 81//81
f 82//82 83//83 84//84
f 85//85 86//86 87//87
f 88//88 89//89 90//90
f 91//91 92//92 93//93
f 94//94 95//95 96//96
f 97//97 98//98 99//99
f 100//100 101//101 102//102
f 103//103 104//104 105//105
f 106//106 107//107 108//108
f 109//109 110//110 111//111
f 112//112 113//113 114//114
f 115//115 116//116 117//117
f 88//88 118//118 119//119
f 91//91 120//120 121//121
f 94//94 122//122 123//123
f 97//97 124//124 125//125
f 100//100 126//126 127//127
f 128//128 129//129 2//2
f 130//130 131//131 3//3
f 132//132 133//133 4//4
f 134//134 135//135 5//5
f 136//136 137//137 6//6
f 76//76 138//138 8//8
f 73//73 139//139 11//11
f 85//85 140//140 14//14
f 82//82 141//141 17//17
f 79//79 142//142 20//20
f 143//143 144//144 23//23
f 145//145 146//146 24//24
f 147//147 148//148 25//25
f 149//149 150//150 26//26
f 151//151 152//152 27//27
f 103//103 153//153 29//29
f 106//106 154//154 32//32
f 109//109 155//155 35//35
f 112//112 156//156 38//38
f 115//115 157//157 41//41
f 73//73 75//75 43//43
f 76//76 78//78 45//45
f 79//79 81//81 47//47
f 82//82 84//84 49//49
f 85//85 87//87 51//51
f 88//88 90//90 53//53
f 91//91 93//93 54//54
f 94//94 96//96 55//55
f 97//97 99//99 56//56
f 100//100 102//102 57//57
f 103//103 105//105 58//58
f 106//106 108//108 60//60
f 109//109 111//111 62//62
f 112//112 114//114 64//64
f 115//115 117//117 66//66
f 88//88 119//119 68//68
f 91//91 121//121 69//69
f 94//94 123//123 70//70
f 97//97 125//125 71//71
f 100//100 127//127 72//72
f 130//130 74//74 46//46
f 132//132 77//77 48//48
f 134//134 80//80 50//50
f 136//136 83//83 52//52
f 128//128 86//86 44//44
f 158//158 89//89 42//42
f 159//159 92//92 30//30
f 160//160 95//95 33//33
f 161//161 98//98 36//36
f 162//162 101//101 39//39
f 145//145 104//104 61//61
f 147//147 107//107 63//63
f 149//149 110//110 65//65
f 151//151 113//113 67//67
f 143//143 116//116 59//59
f 159//159 118//118 12//12
f 160//160 120//120 15//15
f 161//161 122//122 18//18
f 162//162 124//124 21//21
f 158//158 126//126 9//9
f 130//130 129//129 74//74
f 132//132 131//131 77//77
f 134//134 133//133 80//80
f 136//136 135//135 83//83
f 128//128 137//137 86//86
f 158//158 138//138 89//89
f 159//159 139//139 92//92
f 160//160 140//140 95//95
f 161//161 141//141 98//98
f 162//162 142//142 101//101
f 145//145 144//144 104//104
f 147//147 146//146 107//107
f 149//149 148//148 110//110
f 151//151 150//150 113//113
f 143//143 152//152 116//116
f 159//159 153//153 118//118
f 160//160 154//154 120//120
f 161//161 155//155 122//122
f 162//162 156//156 124//124
f 158//158 157//157 126//126
f 130//130 3//3 129//129
f 132//132 4//4 131//131
f 134//134 5//5 133//133
f 136//136 6//6 135//135
f 128//128 2//2 137//137
f 158//158 9//9 138//138
f 159//159 12//12 139//139
f 160//160 15//15 140//140
f 161//161 18//18 141//141
f 162//162 21//21 142//142
f 145//145 24//24 144//144
f 147//147 25//25 146//146
f 149//149 26//26 148//148
f 151//151 27//27 150//150
f 143//143 23//23 152//152
f 159//159 30//30 153//153
f 160//160 33//33 154//154
f 161//161 36//36 155//155
f 162//162 39//39 156//156
f 158//158 42//42 157//157
f 128//128 44//44 75//75
f 130//130 46//46 78//78
f 132//132 48//48 81//81
f 134//134 50//50 84//84
f 136//136 52//52 87//87
f 76//76 45//45 90//90
f 73//73 43//43 93//93
f 85//85 51//51 96//96
f 82//82 49//49 99//99
f 79//79 47//47 102//102
f 143//143 59//59 105//105
f 145//145 61//61 108//108
f 147//147 63//63 111//111
f 149//149 65//65 114//114
f 151//151 67//67 117//117
f 103//103 58//58 119//119
f 106//106 60//60 121//121
f 109//109 62//62 123//123
f 112//112 64//64 125//125
f 115//115 66//66 127//127
f 73//73 11//11 74//74
f 76//76 8//8 77//77
f 79//79 20//20 80//80
f 82//82 17//17 83//83
f 85//85 14//14 86//86
f 88//88 68//68 89//89
f 91//91 69//69 92//92
f 94//94 70//70 95//95
f 97//97 71//71 98//98
f 100//100 72//72 101//101
f 103//103 29//29 104//104
f 106//106 32//32 107//107
f 109//109 35//35 110//110
f 112//112 38//38 113//113
f 115//115 41//41 116//116
f 88//88 53//53 118//118
f 91//91 54//54 120//120
f 94//94 55//55 122//122
f 97//97 56//56 124//124
f 100//100 57//57 126//126
f 128//128 75//75 129//129
f 130//130 78//78 131//131
f 132//132 81//81 133//133
f 134//134 84//84 135//135
f 136//136 87//87 137//137
f 76//76 90//90 138//138
f 73//73 93//93 139//139
f 85//85 96//96 140//140
f 82//82 99//99 141//141
f 79//79 102//102 142//142
f 143//143 105//105 144//144
f 145//145 108//108 146//146
f 147//147 111//111 148//148
f 149//149 114//114 150//150
f 151//151 117//117 152//152
f 103//103 119//119 153//153
f 106//106 121//121 154//154
f 109//109 123//123 155//155
f 112//112 125//125 156//156
f 115//115 127//127 157//157
f 129//129 3//3 2//2
f 131//131 4//4 3//3
f 133//133 5//5 4//4
f 135//135 6//6 5//5
f 137//137 2//2 6//6
f 138//138 9//9 8//8
f 139//139 12//12 11//11
f 140//140 15//15 14//14
f 141//141 18//18 17//17
f 142//142 21//21 20//20
f 144//144 24//24 23//23
f 146//146 25//25 24//24
f 148//148 26//26 25//25
f 150//150 27//27 26//26
f 152//152 23//23 27//27
f 153//153 30//30 29//29
f 154//154 33//33 32//32
f 155//155 36//36 35//35
f 156//156 39//39 38//38
f 157//157 42//42 41//41
f 75//75 44//44 43//43
f 78//78 46//46 45//45
f 81//81 48//48 47//47
f 84//84 50//50 49//49
f 87//87 52//52 51//51
f 90//90 45//45 53//53
f 93//93 43//43 54//54
f 96//96 51//51 55//55
f 99//99 49//49 56//56
f 102//102 47//47 57//57
f 105//105 59//59 58//58
f 108//108 61//61 60//60
f 111//111 63//63 62//62
f 114//114 65//65 64//64
f 117//117 67//67 66//66
f 119//119 58//58 68//68
f 121//121 60//60 69//69
f 123//123 62//62 70//70
f 125//125 64//64 71//71
f 127//127 66//66 72//72
f 74//74 11//11 46//46
f 77//77 8//8 48//48
f 80//80 20//20 50//50
f 83//83 17//17 52//52
f 86//86 14//14 44//44
f 89//89 68//68 42//42
f 92//92 69//69 30//30
f 95//95 70//70 33//33
f 98//98 71//71 36//36
f 101//101 72//72 39//39
f 104//104 29//29 61//61
f 107//107 32//32 63//63
f 110//110 35//35 65//65
f 113//113 38//38 67//67
f 116//116 41//41 59//59
f 118//118 53//53 12//12
f 120//120 54//54 15//15
f 122//122 55//55 18//18
f 124//124 56//56 21//21
f 126//126 57//57 9//9
f 129//129 75//75 74//74
f 131//131 78//78 77//77
f 133//133 81//81 80//80
f 135//135 84//84 83//83
f 137//137 87//87 86//86
f 138//138 90//90 89//89
f 139//139 93//93 92//92
f 140//140 96//96 95//95
f 141//141 99//99 98//98
f 142//142 102//102 101//101
f 144//144 105//105 104//104
f 146//146 108//108 107//107
f 148//148 111//111 110//110
f 150//150 114//114 113//113
f 152//152 117//117 116//116
f 153//153 119//119 118//118
f 154//154 121//121 120//120
f 155//155 123//123 122//122
f 156//156 125//125 124//124
f 157//157 127//127 126//126
