# Created by Open3D 
# object name: part_063
# number of vertices: 162
# number of triangles: 320
v 1.00599 1.06657 1.01454
vn 0.75024 -0.617861 -0.235346
v 1.01065 1.06533 1.03418
vn 0.899625 -0.385615 -0.204878
v 1.00864 1.06241 1.03493
vn 0.69406 -0.690549 -0.203527
v 1.00275 1.0633 1.01483
vn 0.603328 -0.76303 -0.231905
v 1.00247 1.06786 1.00095
vn 0.680021 -0.67767 -0.279884
v 1.00477 1.07052 1.0018
vn 0.89342 -0.37566 -0.246335
v 0.892371 0.977519 1.02093
vn 0.40494 -0.888476 -0.215947
v 0.897184 0.975061 1.04119
vn 0.490887 -0.849778 -0.192111
v 0.893833 0.973777 1.04075
vn 0.146637 -0.975739 -0.162573
v 0.952053 1.02002 1.04068
vn 0.276819 -0.287483 0.91691
v 1.00454 1.06213 1.03792
vn 0.239496 -0.230716 0.943086
v 0.950537 1.02202 1.04153
vn 0.183327 -0.164442 0.969201
v 0.986889 1.09898 1.04605
vn 0.581984 0.211026 0.785342
v 0.987417 1.09974 1.04485
vn 0.798115 0.601466 0.0353605
v 0.963972 1.12901 1.05466
vn 0.694744 0.379047 0.611272
v 0.980264 1.10482 1.0096
vn 0.287619 0.470498 -0.834211
v 1.0009 1.07551 1.00061
vn 0.039457 0.308494 -0.950408
v 0.957177 1.13252 1.01769
vn 0.0335148 0.316249 -0.948084
v 0.956836 1.03535 1.00177
vn -0.0710692 0.0191889 -0.997287
v 0.895401 0.985647 1.00536
vn 0.0678644 -0.1611 -0.984602
v 0.891681 0.985273 1.00556
vn -0.118675 0.0744383 -0.990139
v 0.840719 1.04487 1.04111
vn -0.750238 0.617863 0.235347
v 0.843163 1.03985 1.06054
vn -0.892618 0.379438 0.243433
v 0.845459 1.04251 1.06139
vn -0.68264 0.680486 0.26635
v 0.844037 1.04808 1.04124
vn -0.603329 0.76303 0.231905
v 0.839284 1.04795 1.02742
vn -0.696405 0.692112 0.189739
v 0.837278 1.04504 1.02816
vn -0.901581 0.382856 0.201429
v 0.902828 1.08421 1.05991
vn 0.0710731 -0.0191939 0.997286
v 0.850354 1.0421 1.06273
vn 0.111937 -0.0790842 0.990563
v 0.90443 1.08214 1.05954
vn 0.169924 -0.146963 0.974437
v 0.954341 1.13392 1.03472
vn -0.404941 0.888476 0.215949
v 0.95692 1.12986 1.05513
vn -0.479473 0.83971 0.254938
v 0.959981 1.1314 1.05398
vn -0.139632 0.969562 0.201129
v 0.907611 1.09954 1.021
vn -0.276822 0.287487 -0.916908
v 0.945708 1.13073 1.01946
vn -0.395031 0.451326 -0.80016
v 0.949286 1.13123 1.01848
vn -0.231956 0.237545 -0.943276
v 0.86104 1.01138 1.01629
vn -0.581982 -0.211024 -0.785345
v 0.84022 1.04086 1.02426
vn -0.380273 -0.00804056 -0.924839
v 0.88394 0.98385 1.00718
vn -0.374326 -0.0157933 -0.927163
v 0.867665 1.00554 1.05275
vn -0.287619 -0.470498 0.834211
v 0.866718 1.00515 1.05164
vn -0.769257 -0.626906 0.123421
v 0.890457 0.975623 1.04345
vn -0.46236 -0.583893 0.667302
v 1.00771 1.06951 1.03809
vn 0.380275 0.00804183 0.924839
v 1.00985 1.06919 1.03674
vn 0.721617 0.344011 0.60077
v 0.90222 0.979635 1.04288
vn 0.393831 -0.449282 0.8019
v 1.00314 1.05873 1.03721
vn 0.397951 -0.446056 0.801667
v 0.891009 0.980504 1.00721
vn 0.476417 -0.837234 -0.268449
v 0.896327 0.979889 1.02081
vn 0.580625 -0.780823 -0.23063
v 0.997575 1.06826 0.999613
vn -0.110527 0.079204 -0.990712
v 0.996318 1.06474 0.99969
vn 0.0753144 -0.161997 -0.983913
v 0.981211 1.10522 1.01071
vn 0.760248 0.630231 -0.157582
v 1.00335 1.07492 1.00098
vn 0.489227 0.548853 -0.677803
v 0.898643 0.979136 1.04387
vn 0.232448 -0.236228 0.943485
v 0.963989 1.12652 1.05517
vn 0.374326 0.0157933 0.927163
v 0.957472 1.13474 1.0189
vn 0.462361 0.583891 -0.667303
v 0.955379 1.03753 1.00214
vn -0.169924 0.146963 -0.974437
v 0.887948 0.978965 1.00837
vn 0.135581 -0.969588 -0.203759
v 0.847031 1.03486 1.06174
vn -0.039457 -0.308494 0.950408
v 0.84458 1.03544 1.06137
vn -0.489227 -0.548853 0.677803
v 0.952528 1.12472 1.05699
vn -0.0692163 0.163122 0.984175
v 0.851611 1.04563 1.06266
vn -0.0733395 0.159899 0.984405
v 0.950745 1.13531 1.02116
vn -0.492809 0.851674 0.1783
v 0.950462 1.13148 1.03526
vn -0.580625 0.780823 0.23063
v 0.843392 1.04824 1.02443
vn -0.238597 0.230813 -0.94329
v 0.844791 1.05164 1.02513
vn -0.396632 0.444596 -0.80313
v 0.860512 1.01062 1.01749
vn -0.80158 -0.593796 -0.0698333
v 0.838081 1.04117 1.02561
vn -0.721614 -0.344006 -0.600777
v 0.890752 0.977845 1.04466
vn -0.0335148 -0.316249 0.948084
v 0.956248 1.12509 1.05678
vn 0.118978 -0.0735634 0.990168
v 0.954096 1.13659 1.0216
vn -0.143735 0.976784 0.158852
v 0.909273 1.09766 1.02015
vn -0.183327 0.164442 -0.969201
v 0.883957 0.981352 1.00768
vn -0.694744 -0.379047 -0.611272
v 1.00729 1.066 1.03791
vn 0.257615 -0.112818 0.959639
v 1.00788 1.06332 1.03705
vn 0.437492 -0.33096 0.836102
v 1.00977 1.06655 1.03691
vn 0.548032 -0.127443 0.826692
v 0.899086 0.97655 1.0423
vn 0.561694 -0.71596 0.41461
v 0.902655 0.978814 1.04081
vn 0.59519 -0.778491 -0.19925
v 0.953103 1.01859 1.03931
vn 0.578475 -0.709235 0.40293
v 0.892494 0.982362 1.00602
vn 0.347935 -0.524288 -0.777215
v 0.957662 1.03319 1.00223
vn 0.365018 -0.521064 -0.771527
v 0.896473 0.984263 1.0068
vn 0.579917 -0.764968 -0.280215
v 1.00037 1.0721 0.999849
vn -0.0941434 0.19728 -0.975816
v 1.00307 1.07245 1.00005
vn 0.222975 0.159096 -0.961754
v 1.00107 1.06932 0.9996
vn 0.104918 -0.0377854 -0.993763
v 0.9839 1.10324 1.0242
vn 0.786314 0.616245 -0.044177
v 1.01016 1.06988 1.03502
vn 0.807175 0.589385 -0.0330696
v 1.00426 1.07508 1.00261
vn 0.799972 0.5957 -0.0720187
v 0.894235 0.9774 1.04426
vn 0.115062 -0.224538 0.967648
v 0.893049 0.97507 1.04347
vn 0.0512848 -0.516753 0.854597
v 0.896636 0.976139 1.0433
vn 0.275327 -0.458053 0.845211
v 0.960612 1.12687 1.05614
vn 0.2367 -0.0855576 0.967808
v 0.958601 1.12216 1.05608
vn 0.178829 -0.1511 0.972208
v 0.984252 1.09664 1.04711
vn 0.245492 -0.100597 0.964165
v 0.955647 1.13637 1.02012
vn 0.329517 0.941688 -0.0681356
v 0.958325 1.13456 1.03393
vn 0.37333 0.924223 0.0802258
v 0.958335 1.13497 1.02055
vn 0.763992 0.642617 -0.0579634
v 0.932358 1.06764 1.01106
vn -0.176637 0.155713 -0.971881
v 0.951571 1.12836 1.0174
vn -0.173492 0.161071 -0.971574
v 0.995342 1.07129 1.0003
vn -0.170715 0.15745 -0.972659
v 0.885999 0.979533 1.00765
vn -0.384152 -0.893527 -0.232457
v 0.886349 0.980976 1.00661
vn -0.273751 -0.230204 -0.933845
v 0.888557 0.980049 1.00668
vn 0.058959 -0.622582 -0.780331
v 0.847557 1.03827 1.0625
vn 0.0941434 -0.19728 0.975816
v 0.846859 1.04105 1.06275
vn -0.104918 0.0377854 0.993763
v 0.844856 1.03791 1.0623
vn -0.222975 -0.159096 0.961754
v 0.955435 1.128 1.05632
vn -0.344901 0.524845 0.778191
v 0.951456 1.1261 1.05554
vn -0.583634 0.768305 0.262826
v 0.901451 1.08594 1.05949
vn -0.365018 0.521064 0.771527
v 0.948842 1.13382 1.02005
vn -0.558049 0.717363 -0.417098
v 0.90601 1.10054 1.02241
vn -0.578475 0.709235 -0.40293
v 0.945274 1.13155 1.02153
vn -0.596943 0.780093 0.187388
v 0.84064 1.04436 1.02444
vn -0.257615 0.112818 -0.959639
v 0.838156 1.04382 1.02543
vn -0.548029 0.127446 -0.826693
v 0.840053 1.04705 1.0253
vn -0.437492 0.33096 -0.836102
v 0.862731 1.00827 1.03101
vn -0.786314 -0.616246 0.0441773
v 0.843665 1.03529 1.05974
vn -0.800582 -0.595197 0.0693454
v 0.837774 1.04048 1.02732
vn -0.807549 -0.58902 0.0303309
v 0.896358 0.982004 1.04494
vn 0.174441 -0.160322 0.971528
v 0.870629 1.00759 1.05349
vn 0.106393 -0.209611 0.971979
v 0.96158 1.12939 1.05574
vn 0.273751 0.230204 0.933845
v 0.958099 1.12823 1.0565
vn 0.0572483 0.164863 0.984654
v 0.95488 1.1353 1.01888
vn -0.0512894 0.516742 -0.854603
v 0.952885 1.13604 1.01998
vn -0.288949 0.825323 -0.485129
v 0.889328 0.988201 1.00626
vn -0.178212 0.151591 -0.972245
v 0.845557 1.04528 1.02336
vn -0.180976 0.155195 -0.971165
v 0.888327 0.976933 1.02139
vn -0.37333 -0.924223 -0.0802246
v 0.883702 0.980592 1.00938
vn -0.771568 -0.635939 0.0162735
v 1.01091 1.06696 1.03556
vn 0.992849 0.108191 -0.0504543
v 1.00994 1.06438 1.03591
vn 0.765198 -0.452097 0.458346
v 1.00683 1.06099 1.03624
vn 0.589773 -0.693952 0.413035
v 1.00369 1.05799 1.03514
vn 0.599803 -0.774876 -0.199511
v 0.949563 1.02153 1.01735
vn 0.592038 -0.772007 -0.231292
v 0.997505 1.06344 1.00113
vn 0.585941 -0.762365 -0.274723
v 1.00024 1.0668 0.999971
vn 0.374679 -0.498895 -0.781485
v 1.00345 1.0701 1.00022
vn 0.535195 -0.249344 -0.807089
v 1.00463 1.0725 1.00099
vn 0.94067 0.144767 -0.30689
v 1.00755 1.07037 1.0147
vn 0.978436 0.135182 -0.156169
v 0.895044 0.97433 1.04237
vn 0.288948 -0.825335 0.485109
v 1.00237 1.06509 1.03898
vn 0.181599 -0.154711 0.971126
v 0.964226 1.12977 1.05296
vn 0.77104 0.636505 -0.0189529
v 0.9773 1.10277 1.00886
vn -0.106393 0.209611 -0.971979
v 0.88983 0.982139 1.00585
vn -0.0572483 -0.164863 -0.984654
v 0.843303 1.03786 1.06136
vn -0.954167 -0.142303 0.263278
v 0.844475 1.04027 1.06212
vn -0.535195 0.249344 0.807089
v 0.847693 1.04357 1.06237
vn -0.372983 0.502844 0.779764
v 0.850424 1.04692 1.06122
vn -0.588248 0.76469 0.263085
v 0.897069 1.08998 1.03786
vn -0.592038 0.772007 0.231292
v 0.844242 1.05237 1.02721
vn -0.602627 0.777047 0.181766
v 0.841101 1.04938 1.0261
vn -0.588089 0.696271 -0.411532
v 0.837988 1.04599 1.02643
vn -0.765194 0.452096 -0.458353
v 0.83702 1.0434 1.02679
vn -0.995304 -0.0965931 0.00629987
v 0.839101 1.04112 1.04062
vn -0.978436 -0.135182 0.15617
v 0.852587 1.03908 1.06204
vn 0.171671 -0.15671 0.97261
v 0.959372 1.13032 1.05567
vn -0.058959 0.622582 0.780331
v 0.951293 1.13423 1.01905
vn -0.275327 0.458053 -0.845211
v 0.863677 1.01372 1.01524
vn -0.245492 0.100597 -0.964165
v 0.889594 0.975398 1.0418
vn -0.764446 -0.642318 0.0552283
v 0.892282 0.973995 1.04222
vn -0.343243 -0.938924 0.0246119
v 0.927497 1.05207 1.05061
vn 0.176637 -0.155713 0.971881
v 0.96193 1.13083 1.05469
vn 0.381927 0.904824 0.188215
v 0.953694 1.13297 1.01808
vn -0.115062 0.224538 -0.967648
v 0.887317 0.983498 1.0062
vn -0.2367 0.0855576 -0.967808
f 1//1 2//2 3//3
f 1//1 3//3 4//4
f 1//1 4//4 5//5
f 1//1 5//5 6//6
f 1//1 6//6 2//2
f 7//7 8//8 9//9
f 10//10 11//11 12//12
f 13//13 14//14 15//15
f 16//16 17//17 18//18
f 19//19 20//20 21//21
f 22//22 23//23 24//24
f 22//22 24//24 25//25
f 22//22 25//25 26//26
f 22//22 26//26 27//27
f 22//22 27//27 23//23
f 28//28 29//29 30//30
f 31//31 32//32 33//33
f 34//34 35//35 36//36
f 37//37 38//38 39//39
f 40//40 41//41 42//42
f 13//13 43//43 44//44
f 10//10 45//45 46//46
f 7//7 47//47 48//48
f 19//19 49//49 50//50
f 16//16 51//51 52//52
f 10//10 53//53 45//45
f 13//13 54//54 43//43
f 16//16 55//55 51//51
f 19//19 56//56 49//49
f 7//7 57//57 47//47
f 40//40 58//58 59//59
f 28//28 60//60 61//61
f 31//31 62//62 63//63
f 34//34 64//64 65//65
f 37//37 66//66 67//67
f 40//40 68//68 58//58
f 28//28 69//69 60//60
f 31//31 70//70 62//62
f 34//34 71//71 64//64
f 37//37 72//72 66//66
f 10//10 46//46 11//11
f 7//7 48//48 8//8
f 19//19 50//50 20//20
f 16//16 52//52 17//17
f 13//13 44//44 14//14
f 40//40 42//42 68//68
f 28//28 30//30 69//69
f 31//31 33//33 70//70
f 34//34 36//36 71//71
f 37//37 39//39 72//72
f 28//28 61//61 29//29
f 31//31 63//63 32//32
f 34//34 65//65 35//35
f 37//37 67//67 38//38
f 40//40 59//59 41//41
f 10//10 12//12 53//53
f 13//13 15//15 54//54
f 16//16 18//18 55//55
f 19//19 21//21 56//56
f 7//7 9//9 57//57
f 73//73 74//74 75//75
f 76//76 77//77 78//78
f 79//79 80//80 81//81
f 82//82 83//83 84//84
f 85//85 86//86 87//87
f 88//88 89//89 90//90
f 91//91 92//92 93//93
f 94//94 95//95 96//96
f 97//97 98//98 99//99
f 100//100 101//101 102//102
f 103//103 104//104 105//105
f 106//106 107//107 108//108
f 109//109 110//110 111//111
f 112//112 113//113 114//114
f 115//115 116//116 117//117
f 88//88 118//118 119//119
f 91//91 120//120 121//121
f 94//94 122//122 123//123
f 97//97 124//124 125//125
f 100//100 126//126 127//127
f 128//128 129//129 2//2
f 130//130 131//131 3//3
f 132//132 133//133 4//4
f 134//134 135//135 5//5
f 136//136 137//137 6//6
f 76//76 138//138 8//8
f 73//73 139//139 11//11
f 85//85 140//140 14//14
f 82//82 141//141 17//17
f 79//79 142//142 20//20
f 143//143 144//144 23//23
f 145//145 146//146 24//24
f 147//147 148//148 25//25
f 149//149 150//150 26//26
f 151//151 152//152 27//27
f 103//103 153//153 29//29
f 106//106 154//154 32//32
f 109//109 155//155 35//35
f 112//112 156//156 38//38
f 115//115 157//157 41//41
f 73//73 75//75 43//43
f 76//76 78//78 45//45
f 79//79 81//81 47//47
f 82//82 84//84 49//49
f 85//85 87//87 51//51
f 88//88 90//90 53//53
f 91//91 93//93 54//54
f 94//94 96//96 55//55
f 97//97 99//99 56//56
f 100//100 102//102 57//57
f 103//103 105//105 58//58
f 106//106 108//108 60//60
f 109//109 111//111 62//62
f 112//112 114//114 64//64
f 115//115 117//117 66//66
f 88//88 119//119 68//68
f 91//91 121//121 69//69
f 94//94 123//123 70//70
f 97//97 125//125 71//71
f 100//100 127//127 72//72
f 130//130 74//74 46//46
f 132//132 77//77 48//48
f 134//134 80//80 50//50
f 136//136 83//83 52//52
f 128//128 86//86 44//44
f 158//158 89//89 42//42
f 159//159 92//92 30//30
f 160//160 95//95 33//33
f 161//161 98//98 36//36
f 162//162 101//101 39//39
f 145//145 104//104 61//61
f 147//147 107//107 63//63
f 149//149 110//110 65//65
f 151//151 113//113 67//67
f 143//143 116//116 59//59
f 159//159 118//118 12//12
f 160//160 120//120 15//15
f 161//161 122//122 18//18
f 162//162 124//124 21//21
f 158//158 126//126 9//9
f 130//130 129//129 74//74
f 132//132 131//131 77//77
f 134//134 133//133 80//80
f 136//136 135//135 83//83
f 128//128 137//137 86//86
f 158//158 138//138 89//89
f 159//159 139//139 92//92
f 160//160 140//140 95//95
f 161//161 141//141 98//98
f 162//162 142//142 101//101
f 145//145 144//144 104//104
f 147//147 146//146 107//107
f 149//149 148//148 110//110
f 151//151 150//150 113//113
f 143//143 152//152 116//116
f 159//159 153//153 118//118
f 160//160 154//154 120//120
f 161//161 155//155 122//122
f 162//162 156//156 124//124
f 158//158 157//157 126//126
f 130//130 3//3 129//129
f 132//132 4//4 131//131
f 134//134 5//5 133//133
f 136//136 6//6 135//135
f 128//128 2//2 137//137
f 158//158 9//9 138//138
f 159//159 12//12 139//139
f 160//160 15//15 140//140
f 161//161 18//18 141//141
f 162//162 21//21 142//142
f 145//145 24//24 144//144
f 147//147 25//25 146//146
f 149//149 26//26 148//148
f 151//151 27//27 150//150
f 143//143 23//23 152//152
f 159//159 30//30 153//153
f 160//160 33//33 154//154
f 161//161 36//36 155//155
f 162//162 39//39 156//156
f 158//158 42//42 157//157
f 128//128 44//44 75//75
f 130//130 46//46 78//78
f 132//132 48//48 81//81
f 134//134 50//50 84//84
f 136//136 52//52 87//87
f 76//76 45//45 90//90
f 73//73 43//43 93//93
f 85//85 51//51 96//96
f 82//82 49//49 99//99
f 79//79 47//47 102//102
f 143//143 59//59 105//105
f 145//145 61//61 108//108
f 147//147 63//63 111//111
f 149//149 65//65 114//114
f 151//151 67//67 117//117
f 103//103 58//58 119//119
f 106//106 60//60 121//121
f 109//109 62//62 123//123
f 112//112 64//64 125//125
f 115//115 66//66 127//127
f 73//73 11//11 74//74
f 76//76 8//8 77//77
f 79//79 20//20 80//80
f 82//82 17//17 83//83
f 85//85 14//14 86//86
f 88//88 68//68 89//89
f 91//91 69//69 92//92
f 94//94 70//70 95//95
f 97//97 71//71 98//98
f 100//100 72//72 101//101
f 103//103 29//29 104//104
f 106//106 32//32 107//107
f 109//109 35//35 110//110
f 112//112 38//38 113//113
f 115//115 41//41 116//116
f 88//88 53//53 118//118
f 91//91 54//54 120//120
f 94//94 55//55 122//122
f 97//97 56//56 124//124
f 100//100 57//57 126//126
f 128//128 75//75 129//129
f 130//130 78//78 131//131
f 132//132 81//81 133//133
f 134//134 84//84 135//135
f 136//136 87//87 137//137
f 76//76 90//90 138//138
f 73//73 93//93 139//139
f 85//85 96//96 140//140
f 82//82 99//99 141//141
f 79//79 102//102 142//142
f 143//143 105//105 144//144
f 145//145 108//108 146//146
f 147//147 111//111 148//148
f 149//149 114//114 150//150
f 151//151 117//117 152//152
f 103//103 119//119 153//153
f 106//106 121//121 154//154
f 109//109 123//123 155//155
f 112//112 125//125 156//156
f 115//115 127//127 157//157
f 129//129 3//3 2//2
f 131//131 4//4 3//3
f 133//133 5//5 4//4
f 135//135 6//6 5//5
f 137//137 2//2 6//6
f 138//138 9//9 8//8
f 139//139 12//12 11//11
f 140//140 15//15 14//14
f 141//141 18//18 17//17
f 142//142 21//21 20//20
f 144//144 24//24 23//23
f 146//146 25//25 24//24
f 148//148 26//26 25//25
f 150//150 27//27 26//26
f 152//152 23//23 27//27
f 153//153 30//30 29//29
f 154//154 33//33 32//32
f 155//155 36//36 35//35
f 156//156 39//39 38//38
f 157//157 42//42 41//41
f 75//75 44//44 43//43
f 78//78 46//46 45//45
f 81//81 48//48 47//47
f 84//84 50//50 49//49
f 87//87 52//52 51//51
f 90//90 45//45 53//53
f 93//93 43//43 54//54
f 96//96 51//51 55//55
f 99//99 49//49 56//56
f 102//102 47//47 57//57
f 105//105 59//59 58//58
f 108//108 61//61 60//60
f 111//111 63//63 62//62
f 114//114 65//65 64//64
f 117//117 67//67 66//66
f 119//119 58//58 68//68
f 121//121 60//60 69//69
f 123//123 62//62 70//70
f 125//125 64//64 71//71
f 127//127 66//66 72//72
f 74//74 11//11 46//46
f 77//77 8//8 48//48
f 80//80 20//20 50//50
f 83//83 17//17 52//52
f 86//86 14//14 44//44
f 89//89 68//68 42//42
f 92//92 69//69 30//30
f 95//95 70//70 33//33
f 98//98 71//71 36//36
f 101//101 72//72 39//39
f 104//104 29//29 61//61
f 107//107 32//32 63//63
f 110//110 35//35 65//65
f 113//113 38//38 67//67
f 116//116 41//41 59//59
f 118//118 53//53 12//12
f 120//120 54//54 15//15
f 122//122 55//55 18//18
f 124//124 56//56 21//21
f 126//126 57//57 9//9
f 129//129 75//75 74//74
f 131//131 78//78 77//77
f 133//133 81//81 80//80
f 135//135 84//84 83//83
f 137//137 87//87 86//86
f 138//138 90//90 89//89
f 139//139 93//93 92//92
f 140//140 96//96 95//95
f 141//141 99//99 98//98
f 142//142 102//102 101//101
f 144//144 105//105 104//104
f 146//146 108//108 107//107
f 148//148 111//111 110//110
f 150//150 114//114 113//113
f 152//152 117//117 116//116
f 153//153 119//119 118//118
f 154//154 121//121 120//120
f 155//155 123//123 122//122
f 156//156 125//125 124//124
f 157//157 127//127 126//126
