# Created by Open3D 
# object name: part_059
# number of vertices: 162
# number of triangles: 320
v 0.413301 0.740281 1.40805
vn 0.347331 -0.260867 0.900727
v 0.405522 0.757534 1.41586
vn 0.398979 -0.205622 0.893608
v 0.400093 0.754061 1.41701
vn 0.322081 -0.263979 0.909164
v 0.406389 0.735051 1.40895
vn 0.308434 -0.29173 0.905407
v 0.418728 0.728356 1.40238
vn 0.3412 -0.290228 0.894064
v 0.423281 0.733038 1.40191
vn 0.411453 -0.221033 0.884224
v 0.196359 0.572332 1.4268
vn 0.263274 -0.325941 0.907992
v 0.187277 0.589306 1.4354
vn 0.273357 -0.3017 0.913375
v 0.182478 0.584861 1.43513
vn 0.196636 -0.36227 0.911096
v 0.292221 0.673581 1.42626
vn -0.385087 0.577759 0.719654
v 0.39319 0.751969 1.41721
vn -0.450432 0.653513 0.608302
v 0.291728 0.674109 1.42529
vn -0.52524 0.727702 0.441105
v 0.400799 0.766527 1.39905
vn -0.243586 0.895398 0.37273
v 0.40284 0.766743 1.39843
vn 0.697317 0.716758 -0.00286546
v 0.395805 0.771524 1.38306
vn -0.0701222 0.962081 0.263595
v 0.420794 0.738946 1.38336
vn 0.763113 -0.493197 -0.41763
v 0.424004 0.731989 1.39841
vn 0.643044 -0.644546 -0.413588
v 0.413818 0.741777 1.36824
vn 0.636062 -0.637834 -0.434273
v 0.335608 0.661987 1.40785
vn 0.60782 -0.791814 -0.0598765
v 0.216821 0.570176 1.41875
vn 0.596618 -0.736793 0.318093
v 0.212014 0.566463 1.41819
vn 0.585794 -0.783107 -0.20878
v 0.184326 0.583896 1.39115
vn -0.347331 0.260867 -0.900727
v 0.170673 0.596205 1.40017
vn -0.409759 0.220491 -0.885145
v 0.175227 0.600886 1.3997
vn -0.337758 0.285603 -0.896856
v 0.191006 0.589447 1.39043
vn -0.308434 0.29173 -0.905407
v 0.193862 0.575182 1.38507
vn -0.318694 0.259185 -0.911733
v 0.188433 0.571709 1.38622
vn -0.398873 0.203683 -0.894099
v 0.280753 0.684602 1.39229
vn -0.607821 0.791814 0.0598723
v 0.179754 0.606255 1.40136
vn -0.589315 0.780669 0.208001
v 0.280986 0.684432 1.39347
vn -0.540578 0.742442 0.39567
v 0.401268 0.751845 1.3724
vn -0.263274 0.325942 -0.907992
v 0.388043 0.765641 1.38131
vn -0.289034 0.323322 -0.901067
v 0.393717 0.768879 1.38089
vn -0.207412 0.37714 -0.902633
v 0.324141 0.673008 1.37388
vn 0.385086 -0.577759 -0.719655
v 0.397715 0.730677 1.36717
vn 0.173923 -0.326443 -0.929078
v 0.402951 0.733799 1.36739
vn 0.453863 -0.649576 -0.609967
v 0.193155 0.562716 1.40303
vn 0.243586 -0.895398 -0.37273
v 0.190508 0.568898 1.38753
vn 0.41226 -0.811094 -0.414931
v 0.200694 0.55911 1.41771
vn 0.419244 -0.817804 -0.394247
v 0.17316 0.590296 1.41873
vn -0.763114 0.493197 0.417629
v 0.172386 0.588333 1.41835
vn -0.861624 -0.490119 0.131864
v 0.178535 0.584775 1.43442
vn -0.84157 0.295465 0.452172
v 0.403446 0.760345 1.41455
vn -0.41226 0.811094 0.414932
v 0.406493 0.761252 1.41472
vn -0.0301347 0.923652 0.382046
v 0.196239 0.598566 1.43491
vn -0.176201 0.329378 0.927612
v 0.388924 0.747736 1.41826
vn -0.174488 0.330702 0.927464
v 0.205912 0.563601 1.42077
vn 0.292348 -0.328046 0.898286
v 0.203188 0.57774 1.42651
vn 0.303034 -0.295911 0.905874
v 0.4142 0.722988 1.40072
vn 0.590095 -0.780498 -0.206424
v 0.409506 0.719346 1.4021
vn 0.597257 -0.733277 0.324943
v 0.421569 0.74091 1.38373
vn 0.886402 0.435088 -0.158082
v 0.426108 0.734197 1.39932
vn 0.881558 -0.333894 -0.333722
v 0.191004 0.595443 1.43469
vn -0.454072 0.650696 0.608615
v 0.393261 0.770133 1.38438
vn -0.419244 0.817804 0.394247
v 0.41542 0.744468 1.36766
vn 0.84157 -0.295467 -0.452172
v 0.335652 0.662372 1.40665
vn 0.540578 -0.742442 -0.39567
v 0.200237 0.560364 1.42119
vn 0.207424 -0.378984 0.901857
v 0.169951 0.597254 1.40367
vn -0.643045 0.644545 0.413588
v 0.167847 0.595046 1.40276
vn -0.881558 0.333894 0.333722
v 0.377133 0.759067 1.38333
vn -0.59606 0.735844 -0.321319
v 0.184449 0.609897 1.39998
vn -0.597771 0.734517 -0.321177
v 0.406678 0.739937 1.36668
vn -0.269843 0.297005 -0.915955
v 0.394206 0.746758 1.37287
vn -0.303035 0.295911 -0.905874
v 0.200765 0.577274 1.38487
vn 0.451197 -0.653755 -0.607475
v 0.205031 0.581507 1.38382
vn 0.176555 -0.333099 -0.926215
v 0.191114 0.5625 1.40365
vn -0.653171 -0.756797 -0.0250276
v 0.187462 0.56799 1.38736
vn 0.0301363 -0.923652 -0.382047
v 0.180136 0.587466 1.43385
vn -0.636062 0.637834 0.434273
v 0.38194 0.76278 1.38389
vn -0.585674 0.783486 0.207693
v 0.411477 0.744382 1.36695
vn -0.194844 0.361636 -0.911732
v 0.324911 0.672695 1.37483
vn 0.52524 -0.727701 -0.441106
v 0.198149 0.557719 1.41902
vn 0.0701234 -0.962081 -0.263596
v 0.399906 0.757349 1.41601
vn -0.482396 0.75153 0.449996
v 0.398702 0.75543 1.4171
vn -0.20437 0.436869 0.876001
v 0.403914 0.759439 1.41598
vn -0.189907 0.587864 0.786353
v 0.190159 0.592961 1.43547
vn 0.108098 -0.0370126 0.993451
v 0.197281 0.596971 1.43472
vn 0.297285 -0.28336 0.911772
v 0.292996 0.67263 1.42671
vn 0.116738 -0.0400111 0.992356
v 0.210054 0.565518 1.41985
vn 0.461067 -0.522532 0.717201
v 0.334346 0.661581 1.40917
vn 0.461819 -0.516 0.721434
v 0.215937 0.571238 1.42008
vn 0.317315 -0.311049 0.895857
v 0.420782 0.728554 1.39962
vn 0.58172 -0.716266 -0.385442
v 0.424133 0.731549 1.4001
vn 0.729755 -0.680677 0.0643227
v 0.419243 0.727097 1.40097
vn 0.645139 -0.734908 0.20906
v 0.414611 0.751472 1.38951
vn 0.788895 0.610735 -0.0681786
v 0.408534 0.760846 1.41392
vn 0.802204 0.593738 0.0627994
v 0.426313 0.736321 1.39996
vn 0.842287 0.538159 0.0306206
v 0.184047 0.590239 1.43467
vn -0.557729 0.69321 0.456506
v 0.181049 0.586904 1.43524
vn -0.43541 0.397803 0.807571
v 0.186308 0.591002 1.43546
vn -0.276729 0.380854 0.882254
v 0.389031 0.767799 1.3838
vn -0.506388 0.774585 0.378931
v 0.382479 0.762506 1.38552
vn -0.532766 0.738275 0.413654
v 0.394959 0.763067 1.3999
vn -0.495727 0.762971 0.414886
v 0.414001 0.744702 1.36691
vn 0.0661939 0.398557 -0.914752
v 0.406989 0.755589 1.37271
vn 0.00818074 0.49912 -0.866494
v 0.415613 0.746604 1.36827
vn 0.764552 0.612864 -0.199642
v 0.330411 0.667545 1.3907
vn 0.533077 -0.735303 -0.418519
v 0.403695 0.733241 1.36886
vn 0.533866 -0.731913 -0.423427
v 0.413892 0.723441 1.39907
vn 0.537045 -0.734969 -0.414009
v 0.198913 0.558388 1.42029
vn 0.0671433 -0.582487 0.810062
v 0.201268 0.559014 1.41936
vn 0.484253 -0.870736 0.0855448
v 0.202967 0.560542 1.42028
vn 0.412114 -0.611858 0.675124
v 0.173173 0.600689 1.40246
vn -0.58172 0.716266 0.385442
v 0.174711 0.602146 1.40111
vn -0.645139 0.734907 -0.209061
v 0.169821 0.597694 1.40198
vn -0.729755 0.680676 -0.0643277
v 0.3839 0.763725 1.38223
vn -0.460929 0.523692 -0.716444
v 0.378017 0.758005 1.38201
vn -0.313023 0.305069 -0.899416
v 0.280963 0.684194 1.39107
vn -0.461819 0.516 -0.721434
v 0.403796 0.736282 1.36661
vn -0.106224 0.0363649 -0.993677
v 0.322312 0.673145 1.37352
vn -0.116738 0.0400111 -0.992356
v 0.396673 0.732272 1.36736
vn -0.29432 0.279336 -0.913973
v 0.194049 0.571894 1.38607
vn 0.482396 -0.751531 -0.449995
v 0.190041 0.569804 1.38611
vn 0.189903 -0.58786 -0.786357
v 0.195252 0.573813 1.38498
vn 0.204364 -0.436862 -0.876006
v 0.18326 0.572368 1.4095
vn -0.788894 -0.610735 0.0681789
v 0.167641 0.592922 1.40212
vn -0.839759 -0.541937 -0.0333167
v 0.185421 0.568397 1.38816
vn -0.799131 -0.597686 -0.0645035
v 0.190259 0.596002 1.43322
vn -0.53337 0.732308 0.42337
v 0.178015 0.595116 1.41865
vn -0.569269 0.706037 0.421242
v 0.392686 0.770229 1.38272
vn -0.484253 0.870736 -0.0855467
v 0.387105 0.766575 1.38275
vn -0.572783 0.790926 -0.215304
v 0.412906 0.742339 1.36684
vn 0.43541 -0.397803 -0.807571
v 0.410563 0.741698 1.36643
vn 0.000521222 0.0426858 -0.999088
v 0.211476 0.566737 1.41656
vn 0.533091 -0.73802 -0.413692
v 0.201279 0.576537 1.38636
vn 0.529927 -0.734979 -0.423063
v 0.190819 0.568338 1.42635
vn -0.00818074 -0.49912 0.866494
v 0.196121 0.558114 1.41986
vn -0.721396 -0.672392 0.16576
v 0.406452 0.759889 1.4156
vn 0.522056 0.0138887 0.852798
v 0.402768 0.757379 1.41669
vn 0.148737 0.072859 0.986189
v 0.395873 0.752218 1.41769
vn 0.116079 -0.0308304 0.992761
v 0.390185 0.746311 1.41805
vn 0.298382 -0.282511 0.911677
v 0.30505 0.656044 1.41762
vn 0.305736 -0.293822 0.905646
v 0.408842 0.720578 1.4034
vn 0.317029 -0.30819 0.896946
v 0.415769 0.724776 1.40207
vn 0.470444 -0.517832 0.714516
v 0.422344 0.730377 1.40133
vn 0.561363 -0.4963 0.662237
v 0.425412 0.733736 1.40071
vn 0.631998 -0.145191 0.761248
v 0.418457 0.744568 1.40668
vn 0.576173 -0.046733 0.815991
v 0.183391 0.587545 1.43565
vn -0.000521196 -0.0426859 0.999088
v 0.392676 0.752706 1.41573
vn -0.529596 0.735229 0.423044
v 0.397834 0.771129 1.38223
vn 0.724128 0.668771 -0.168474
v 0.41594 0.734127 1.38343
vn 0.569268 -0.706037 -0.421242
v 0.206849 0.562668 1.41933
vn 0.572783 -0.790928 0.215296
v 0.168542 0.595507 1.40137
vn -0.61676 0.116745 -0.778446
v 0.17161 0.598866 1.40076
vn -0.561364 0.496301 -0.662235
v 0.178186 0.604467 1.40001
vn -0.468912 0.517513 -0.715753
v 0.185113 0.608665 1.39868
vn -0.314121 0.30422 -0.899321
v 0.292821 0.667797 1.38139
vn -0.305736 0.293822 -0.905646
v 0.203769 0.582932 1.38403
vn -0.293998 0.276442 -0.914956
v 0.198081 0.577025 1.38439
vn -0.116177 0.0322171 -0.992706
v 0.191186 0.571864 1.38539
vn -0.148735 -0.0728614 -0.986189
v 0.187503 0.569354 1.38649
vn -0.498658 -0.0387341 -0.865933
v 0.179351 0.579359 1.39238
vn -0.576173 0.046733 -0.815991
v 0.180062 0.605802 1.40301
vn -0.53654 0.735354 0.41398
v 0.390987 0.768701 1.3818
vn -0.412115 0.611858 -0.675123
v 0.407646 0.738241 1.36662
vn 0.276728 -0.380853 -0.882254
v 0.198996 0.566176 1.40218
vn 0.495727 -0.762971 -0.414886
v 0.178341 0.582639 1.43381
vn -0.761683 -0.61697 0.197957
v 0.179953 0.584541 1.43517
vn -0.0493917 -0.428506 0.902188
v 0.286316 0.679328 1.40941
vn -0.533077 0.735303 0.418519
v 0.395041 0.770855 1.3818
vn -0.0453092 0.559144 -0.827832
v 0.409907 0.739004 1.36741
vn 0.557729 -0.693211 -0.456506
v 0.204923 0.561443 1.41828
vn 0.506388 -0.774585 -0.378932
f 1//1 2//2 3//3
f 1//1 3//3 4//4
f 1//1 4//4 5//5
f 1//1 5//5 6//6
f 1//1 6//6 2//2
f 7//7 8//8 9//9
f 10//10 11//11 12//12
f 13//13 14//14 15//15
f 16//16 17//17 18//18
f 19//19 20//20 21//21
f 22//22 23//23 24//24
f 22//22 24//24 25//25
f 22//22 25//25 26//26
f 22//22 26//26 27//27
f 22//22 27//27 23//23
f 28//28 29//29 30//30
f 31//31 32//32 33//33
f 34//34 35//35 36//36
f 37//37 38//38 39//39
f 40//40 41//41 42//42
f 13//13 43//43 44//44
f 10//10 45//45 46//46
f 7//7 47//47 48//48
f 19//19 49//49 50//50
f 16//16 51//51 52//52
f 10//10 53//53 45//45
f 13//13 54//54 43//43
f 16//16 55//55 51//51
f 19//19 56//56 49//49
f 7//7 57//57 47//47
f 40//40 58//58 59//59
f 28//28 60//60 61//61
f 31//31 62//62 63//63
f 34//34 64//64 65//65
f 37//37 66//66 67//67
f 40//40 68//68 58//58
f 28//28 69//69 60//60
f 31//31 70//70 62//62
f 34//34 71//71 64//64
f 37//37 72//72 66//66
f 10//10 46//46 11//11
f 7//7 48//48 8//8
f 19//19 50//50 20//20
f 16//16 52//52 17//17
f 13//13 44//44 14//14
f 40//40 42//42 68//68
f 28//28 30//30 69//69
f 31//31 33//33 70//70
f 34//34 36//36 71//71
f 37//37 39//39 72//72
f 28//28 61//61 29//29
f 31//31 63//63 32//32
f 34//34 65//65 35//35
f 37//37 67//67 38//38
f 40//40 59//59 41//41
f 10//10 12//12 53//53
f 13//13 15//15 54//54
f 16//16 18//18 55//55
f 19//19 21//21 56//56
f 7//7 9//9 57//57
f 73//73 74//74 75//75
f 76//76 77//77 78//78
f 79//79 80//80 81//81
f 82//82 83//83 84//84
f 85//85 86//86 87//87
f 88//88 89//89 90//90
f 91//91 92//92 93//93
f 94//94 95//95 96//96
f 97//97 98//98 99//99
f 100//100 101//101 102//102
f 103//103 104//104 105//105
f 106//106 107//107 108//108
f 109//109 110//110 111//111
f 112//112 113//113 114//114
f 115//115 116//116 117//117
f 88//88 118//118 119//119
f 91//91 120//120 121//121
f 94//94 122//122 123//123
f 97//97 124//124 125//125
f 100//100 126//126 127//127
f 128//128 129//129 2//2
f 130//130 131//131 3//3
f 132//132 133//133 4//4
f 134//134 135//135 5//5
f 136//136 137//137 6//6
f 76//76 138//138 8//8
f 73//73 139//139 11//11
f 85//85 140//140 14//14
f 82//82 141//141 17//17
f 79//79 142//142 20//20
f 143//143 144//144 23//23
f 145//145 146//146 24//24
f 147//147 148//148 25//25
f 149//149 150//150 26//26
f 151//151 152//152 27//27
f 103//103 153//153 29//29
f 106//106 154//154 32//32
f 109//109 155//155 35//35
f 112//112 156//156 38//38
f 115//115 157//157 41//41
f 73//73 75//75 43//43
f 76//76 78//78 45//45
f 79//79 81//81 47//47
f 82//82 84//84 49//49
f 85//85 87//87 51//51
f 88//88 90//90 53//53
f 91//91 93//93 54//54
f 94//94 96//96 55//55
f 97//97 99//99 56//56
f 100//100 102//102 57//57
f 103//103 105//105 58//58
f 106//106 108//108 60//60
f 109//109 111//111 62//62
f 112//112 114//114 64//64
f 115//115 117//117 66//66
f 88//88 119//119 68//68
f 91//91 121//121 69//69
f 94//94 123//123 70//70
f 97//97 125//125 71//71
f 100//100 127//127 72//72
f 130//130 74//74 46//46
f 132//132 77//77 48//48
f 134//134 80//80 50//50
f 136//136 83//83 52//52
f 128//128 86//86 44//44
f 158//158 89//89 42//42
f 159//159 92//92 30//30
f 160//160 95//95 33//33
f 161//161 98//98 36//36
f 162//162 101//101 39//39
f 145//145 104//104 61//61
f 147//147 107//107 63//63
f 149//149 110//110 65//65
f 151//151 113//113 67//67
f 143//143 116//116 59//59
f 159//159 118//118 12//12
f 160//160 120//120 15//15
f 161//161 122//122 18//18
f 162//162 124//124 21//21
f 158//158 126//126 9//9
f 130//130 129//129 74//74
f 132//132 131//131 77//77
f 134//134 133//133 80//80
f 136//136 135//135 83//83
f 128//128 137//137 86//86
f 158//158 138//138 89//89
f 159//159 139//139 92//92
f 160//160 140//140 95//95
f 161//161 141//141 98//98
f 162//162 142//142 101//101
f 145//145 144//144 104//104
f 147//147 146//146 107//107
f 149//149 148//148 110//110
f 151//151 150//150 113//113
f 143//143 152//152 116//116
f 159//159 153//153 118//118
f 160//160 154//154 120//120
f 161//161 155//155 122//122
f 162//162 156//156 124//124
f 158//158 157//157 126//126
f 130//130 3//3 129//129
f 132//132 4//4 131//131
f 134//134 5//5 133//133
f 136//136 6//6 135//135
f 128//128 2//2 137//137
f 158//158 9//9 138//138
f 159//159 12//12 139//139
f 160//160 15//15 140//140
f 161//161 18//18 141//141
f 162//162 21//21 142//142
f 145//145 24//24 144//144
f 147//147 25//25 146//146
f 149//149 26//26 148//148
f 151//151 27//27 150//150
f 143//143 23//23 152//152
f 159//159 30//30 153//153
f 160//160 33//33 154//154
f 161//161 36//36 155//155
f 162//162 39//39 156//156
f 158//158 42//42 157//157
f 128//128 44//44 75//75
f 130//130 46//46 78//78
f 132//132 48//48 81//81
f 134//134 50//50 84//84
f 136//136 52//52 87//87
f 76//76 45//45 90//90
f 73//73 43//43 93//93
f 85//85 51//51 96//96
f 82//82 49//49 99//99
f 79//79 47//47 102//102
f 143//143 59//59 105//105
f 145//145 61//61 108//108
f 147//147 63//63 111//111
f 149//149 65//65 114//114
f 151//151 67//67 117//117
f 103//103 58//58 119//119
f 106//106 60//60 121//121
f 109//109 62//62 123//123
f 112//112 64//64 125//125
f 115//115 66//66 127//127
f 73//73 11//11 74//74
f 76//76 8//8 77//77
f 79//79 20//20 80//80
f 82//82 17//17 83//83
f 85//85 14//14 86//86
f 88//88 68//68 89//89
f 91//91 69//69 92//92
f 94//94 70//70 95//95
f 97//97 71//71 98//98
f 100//100 72//72 101//101
f 103//103 29//29 104//104
f 106//106 32//32 107//107
f 109//109 35//35 110//110
f 112//112 38//38 113//113
f 115//115 41//41 116//116
f 88//88 53//53 118//118
f 91//91 54//54 120//120
f 94//94 55//55 122//122
f 97//97 56//56 124//124
f 100//100 57//57 126//126
f 128//128 75//75 129//129
f 130//130 78//78 131//131
f 132//132 81//81 133//133
f 134//134 84//84 135//135
f 136//136 87//87 137//137
f 76//76 90//90 138//138
f 73//73 93//93 139//139
f 85//85 96//96 140//140
f 82//82 99//99 141//141
f 79//79 102//102 142//142
f 143//143 105//105 144//144
f 145//145 108//108 146//146
f 147//147 111//111 148//148
f 149//149 114//114 150//150
f 151//151 117//117 152//152
f 103//103 119//119 153//153
f 106//106 121//121 154//154
f 109//109 123//123 155//155
f 112//112 125//125 156//156
f 115//115 127//127 157//157
f 129//129 3//3 2//2
f 131//131 4//4 3//3
f 133//133 5//5 4//4
f 135//135 6//6 5//5
f 137//137 2//2 6//6
f 138//138 9//9 8//8
f 139//139 12//12 11//11
f 140//140 15//15 14//14
f 141//141 18//18 17//17
f 142//142 21//21 20//20
f 144//144 24//24 23//23
f 146//146 25//25 24//24
f 148//148 26//26 25//25
f 150//150 27//27 26//26
f 152//152 23//23 27//27
f 153//153 30//30 29//29
f 154//154 33//33 32//32
f 155//155 36//36 35//35
f 156//156 39//39 38//38
f 157//157 42//42 41//41
f 75//75 44//44 43//43
f 78//78 46//46 45//45
f 81//81 48//48 47//47
f 84//84 50//50 49//49
f 87//87 52//52 51//51
f 90//90 45//45 53//53
f 93//93 43//43 54//54
f 96//96 51//51 55//55
f 99//99 49//49 56//56
f 102//102 47//47 57//57
f 105//105 59//59 58//58
f 108//108 61//61 60//60
f 111//111 63//63 62//62
f 114//114 65//65 64//64
f 117//117 67//67 66//66
f 119//119 58//58 68//68
f 121//121 60//60 69//69
f 123//123 62//62 70//70
f 125//125 64//64 71//71
f 127//127 66//66 72//72
f 74//74 11//11 46//46
f 77//77 8//8 48//48
f 80//80 20//20 50//50
f 83//83 17//17 52//52
f 86//86 14//14 44//44
f 89//89 68//68 42//42
f 92//92 69//69 30//30
f 95//95 70//70 33//33
f 98//98 71//71 36//36
f 101//101 72//72 39//39
f 104//104 29//29 61//61
f 107//107 32//32 63//63
f 110//110 35//35 65//65
f 113//113 38//38 67//67
f 116//116 41//41 59//59
f 118//118 53//53 12//12
f 120//120 54//54 15//15
f 122//122 55//55 18//18
f 124//124 56//56 21//21
f 126//126 57//57 9//9
f 129//129 75//75 74//74
f 131//131 78//78 77//77
f 133//133 81//81 80//80
f 135//135 84//84 83//83
f 137//137 87//87 86//86
f 138//138 90//90 89//89
f 139//139 93//93 92//92
f 140//140 96//96 95//95
f 141//141 99//99 98//98
f 142//142 102//102 101//101
f 144//144 105//105 104//104
f 146//146 108//108 107//107
f 148//148 111//111 110//110
f 150//150 114//114 113//113
f 152//152 117//117 116//116
f 153//153 119//119 118//118
f 154//154 121//121 120//120
f 155//155 123//123 122//122
f 156//156 125//125 124//124
f 157//157 127//127 126//126
