# Created by Open3D 
# object name: part_070
# number of vertices: 162
# number of triangles: 320
v 0.311084 3.59179 0.830118
vn 0.360948 -0.233861 -0.902787
v 0.33485 3.58921 0.841095
vn 0.439536 -0.213672 -0.87244
v 0.314666 3.56953 0.837853
vn 0.380688 -0.292988 -0.877061
v 0.283041 3.56633 0.826564
vn 0.324288 -0.266816 -0.90755
v 0.294446 3.59412 0.823401
vn 0.290476 -0.183539 -0.939115
v 0.31558 3.61264 0.827322
vn 0.385251 -0.146134 -0.911168
v -0.589079 2.80155 0.745295
vn 0.281635 -0.303491 -0.910261
v -0.568379 2.79431 0.754644
vn 0.334801 -0.333272 -0.881384
v -0.590635 2.77673 0.753886
vn 0.248768 -0.381148 -0.890416
v -0.126913 3.18149 0.800907
vn 0.604973 -0.724559 0.330184
v 0.292074 3.55013 0.841849
vn 0.594825 -0.715966 0.365481
v -0.128429 3.1827 0.805684
vn 0.580256 -0.704774 0.408163
v 0.318663 3.61862 0.918851
vn 0.636243 -0.648609 0.417733
v 0.323817 3.62459 0.91891
vn 0.945166 0.148041 0.29111
v 0.294734 3.63985 0.987568
vn 0.669549 -0.602072 0.434987
v 0.296968 3.645 0.903344
vn -0.516894 0.753385 -0.406486
v 0.31092 3.61806 0.836711
vn -0.552647 0.723719 -0.413294
v 0.264442 3.65692 0.967849
vn -0.55436 0.725149 -0.408466
v -0.0567048 3.29079 0.793396
vn -0.547162 0.676216 -0.493301
v -0.548482 2.85734 0.745044
vn -0.49683 0.629579 -0.59732
v -0.56966 2.84135 0.746501
vn -0.561237 0.688003 -0.46007
v -0.643989 2.84746 0.900223
vn -0.360948 0.233862 0.902787
v -0.6445 2.82178 0.905867
vn -0.388863 0.152062 0.90866
v -0.623366 2.8403 0.909788
vn -0.307076 0.20349 0.929675
v -0.615694 2.87262 0.903957
vn -0.324288 0.266815 0.90755
v -0.643585 2.86488 0.895336
vn -0.395937 0.311762 0.863735
v -0.66377 2.8452 0.892094
vn -0.444364 0.218004 0.868916
v -0.179242 3.22525 0.948554
vn 0.547156 -0.676211 0.493315
v -0.598197 2.85656 0.907635
vn 0.560398 -0.688567 0.46025
v -0.177444 3.22369 0.943978
vn 0.576533 -0.701661 0.418667
v 0.256174 3.63771 0.985045
vn -0.281635 0.30349 0.910261
v 0.259679 3.61552 0.992998
vn -0.261188 0.243772 0.934
v 0.280984 3.63425 0.993076
vn -0.198092 0.319537 0.926637
v -0.109034 3.33455 0.941043
vn -0.604969 0.724556 -0.330199
v 0.19723 3.60422 0.972183
vn -0.633983 0.744991 -0.207496
v 0.217943 3.62078 0.970394
vn -0.594022 0.716865 -0.365024
v -0.647583 2.81579 0.814338
vn -0.636243 0.648609 -0.417733
v -0.662146 2.84348 0.880536
vn -0.603533 0.68198 -0.4131
v -0.615668 2.80461 0.749398
vn -0.601822 0.680548 -0.417928
v -0.625887 2.78941 0.829845
vn 0.516894 -0.753385 0.406486
v -0.632416 2.78512 0.828804
vn -0.29396 -0.939782 0.174348
v -0.602371 2.76869 0.760833
vn 0.476269 -0.791019 0.384
v 0.333226 3.59094 0.852654
vn 0.603533 -0.68198 0.4131
v 0.343504 3.59907 0.849964
vn 0.680792 -0.61147 0.40327
v -0.52615 2.83019 0.761006
vn 0.633686 -0.744783 0.209141
v 0.273363 3.53208 0.836345
vn 0.634188 -0.744342 0.209189
v -0.588599 2.8189 0.740191
vn 0.244561 -0.223846 -0.943442
v -0.560105 2.82614 0.747114
vn 0.319192 -0.271287 -0.908031
v 0.269277 3.57785 0.825555
vn -0.560152 0.688542 -0.460585
v 0.251031 3.55923 0.820383
vn -0.494965 0.628741 -0.599745
v 0.303496 3.64929 0.904385
vn 0.131035 0.962203 -0.238736
v 0.322221 3.62494 0.834752
vn -0.46503 0.781619 -0.415715
v -0.546863 2.81363 0.762796
vn 0.594016 -0.71668 0.365397
v 0.286748 3.6298 0.983792
vn 0.601823 -0.680548 0.417928
v 0.273451 3.66572 0.972356
vn -0.476268 0.79102 -0.384
v -0.0573529 3.29335 0.79808
vn -0.576532 0.701661 -0.418668
v -0.609904 2.80016 0.740113
vn 0.192957 -0.314947 -0.929288
v -0.63984 2.81636 0.896479
vn 0.552647 -0.723719 0.413294
v -0.651141 2.80947 0.898438
vn 0.465024 -0.781623 0.415714
v 0.219562 3.57707 0.988145
vn 0.496227 -0.628974 0.598457
v -0.579951 2.87518 0.912806
vn 0.495725 -0.629416 0.598408
v 0.23946 3.6401 0.978546
vn -0.350024 0.352069 0.868062
v 0.227453 3.61281 0.983407
vn -0.319191 0.271286 0.908032
v -0.620994 2.88428 0.89134
vn -0.594675 0.715964 -0.365728
v -0.602283 2.90233 0.896844
vn -0.633899 0.7442 -0.210569
v -0.652737 2.80982 0.814279
vn -0.940289 0.021688 -0.339686
v -0.672424 2.83535 0.883226
vn -0.680788 0.611474 -0.40327
v -0.593362 2.77749 0.765341
vn 0.55436 -0.725149 0.408466
v 0.24074 3.59306 0.986688
vn 0.561212 -0.687858 0.460318
v 0.261715 3.65768 0.979303
vn -0.25207 0.386819 0.887035
v -0.106367 3.33434 0.936375
vn -0.580256 0.704774 -0.408162
v -0.623654 2.79456 0.745621
vn -0.66955 0.60207 -0.434987
v 0.31951 3.57584 0.846886
vn 0.589473 -0.698389 0.405924
v 0.313789 3.56837 0.84143
vn 0.634759 -0.730389 0.252215
v 0.334496 3.58836 0.845729
vn 0.644914 -0.704268 0.296805
v -0.553138 2.80656 0.757017
vn 0.657859 -0.737325 -0.153539
v -0.526788 2.83034 0.757784
vn 0.357518 -0.313882 -0.879579
v -0.126158 3.18106 0.796885
vn 0.659448 -0.733498 -0.16465
v -0.574725 2.83281 0.741588
vn -0.307354 0.437054 -0.845292
v -0.059248 3.28522 0.789727
vn -0.299759 0.432714 -0.850237
v -0.54703 2.85495 0.743316
vn 0.262375 -0.19859 -0.94431
v 0.296859 3.60338 0.830696
vn -0.567217 0.707929 -0.420834
v 0.312557 3.61503 0.830048
vn -0.501472 0.68952 -0.522578
v 0.291501 3.59547 0.8255
vn -0.504755 0.655042 -0.562266
v 0.31339 3.64116 0.910304
vn 0.749621 0.658087 0.0706373
v 0.347171 3.60432 0.84961
vn 0.863629 0.503852 0.0166883
v 0.327879 3.62778 0.835822
vn 0.671922 0.731234 -0.117549
v -0.576158 2.78954 0.762487
vn 0.57305 -0.712806 0.404377
v -0.590245 2.77654 0.75859
vn 0.583538 -0.758143 0.291036
v -0.567505 2.79469 0.758385
vn 0.615292 -0.747477 0.250388
v 0.269889 3.61733 0.986892
vn 0.583641 -0.69351 0.422382
v 0.243731 3.59134 0.980037
vn 0.57843 -0.702547 0.414544
v 0.297009 3.5985 0.917142
vn 0.586381 -0.696158 0.414152
v 0.269129 3.66401 0.976977
vn -0.305248 0.764915 0.567211
v 0.279557 3.65623 0.983427
vn -0.0231948 0.492416 0.870051
v 0.279054 3.66861 0.973583
vn 0.590745 0.799117 0.111499
v -0.0815391 3.31422 0.86723
vn -0.578404 0.70323 -0.413421
v 0.220711 3.61932 0.963583
vn -0.57827 0.704008 -0.412283
v 0.267242 3.58041 0.832296
vn -0.577498 0.703362 -0.41446
v -0.618622 2.79541 0.741508
vn -0.24999 -0.0898527 -0.96407
v -0.612184 2.80321 0.742909
vn -0.562843 0.635636 -0.52837
v -0.603335 2.80808 0.740277
vn -0.389608 0.455194 -0.800627
v -0.625779 2.83103 0.902493
vn 0.567217 -0.707929 0.420834
v -0.620421 2.83894 0.90769
vn 0.504756 -0.655042 0.562264
v -0.641477 2.81938 0.903142
vn 0.501472 -0.689521 0.522577
v 0.245806 3.6016 0.991601
vn 0.308686 -0.437813 0.844413
v 0.21811 3.57946 0.989874
vn -0.283616 0.22403 0.932401
v -0.181067 3.22698 0.951811
vn 0.299757 -0.432713 0.850238
v 0.224219 3.62785 0.976172
vn -0.657507 0.738126 0.151176
v -0.114157 3.33114 0.944654
vn -0.659448 0.733498 0.164645
v 0.197868 3.60407 0.975405
vn -0.370508 0.329939 0.868254
v -0.64843 2.85857 0.886303
vn -0.589473 0.698389 -0.405924
v -0.663416 2.84605 0.887461
vn -0.644914 0.704269 -0.296803
v -0.642709 2.86604 0.891759
vn -0.634761 0.730389 -0.252212
v -0.64656 2.79842 0.819848
vn -0.749621 -0.658087 -0.0706368
v -0.656799 2.80664 0.897368
vn -0.687677 -0.717776 0.109076
v -0.676091 2.83009 0.883579
vn -0.873413 -0.48626 -0.0264693
v -0.549631 2.81509 0.769606
vn 0.578377 -0.703911 0.412297
v -0.603164 2.80824 0.832318
vn 0.570361 -0.710222 0.412642
v 0.283264 3.6312 0.99028
vn 0.562844 -0.635636 0.528368
v 0.260872 3.61262 0.990734
vn 0.524218 -0.637949 0.564108
v 0.261325 3.65788 0.974599
vn -0.583539 0.758143 -0.291034
v 0.253175 3.65215 0.97773
vn -0.624278 0.777501 0.0759548
v -0.572651 2.84308 0.753152
vn -0.578359 0.70261 -0.414536
v -0.619182 2.88199 0.884439
vn -0.579127 0.703252 -0.412369
v -0.612659 2.78326 0.746773
vn 0.0231957 -0.492415 -0.870051
v -0.627265 2.78926 0.745818
vn -0.792234 -0.554144 -0.255516
v 0.341769 3.59546 0.844772
vn 0.74121 -0.265994 -0.616324
v 0.328173 3.58138 0.841234
vn 0.697826 -0.712936 -0.069007
v 0.30044 3.55592 0.83745
vn 0.662244 -0.733472 -0.153141
v 0.273636 3.53303 0.833209
vn 0.358552 -0.312974 -0.879481
v -0.138682 3.19646 0.786349
vn 0.321742 -0.269053 -0.907796
v 0.253393 3.55764 0.81874
vn 0.270514 -0.206107 -0.940395
v 0.278853 3.58216 0.822021
vn -0.305301 0.443602 -0.84262
v 0.306933 3.6072 0.826052
vn -0.316046 0.519745 -0.793713
v 0.321197 3.62047 0.830068
vn 0.221711 0.324251 -0.919623
v 0.331887 3.61247 0.835779
vn 0.5751 -0.00790247 -0.818045
v -0.582095 2.78226 0.755459
vn 0.624279 -0.7775 -0.0759578
v 0.290262 3.55242 0.84875
vn 0.579199 -0.70319 0.412375
v 0.298345 3.64515 0.987371
vn 0.781807 0.572275 0.247546
v 0.274244 3.62617 0.900871
vn -0.570361 0.710222 -0.412642
v -0.589792 2.82179 0.742455
vn -0.524218 0.637949 -0.564107
v -0.650117 2.81394 0.903122
vn -0.323634 -0.241702 0.91479
v -0.635853 2.82721 0.907137
vn 0.316048 -0.519747 0.793711
v -0.607773 2.85225 0.911168
vn 0.304337 -0.441701 0.843966
v -0.582313 2.87677 0.914449
vn -0.28465 0.223123 0.932304
v -0.194487 3.24312 0.943802
vn -0.321741 0.269052 0.907796
v -0.602556 2.90138 0.899981
vn -0.377948 0.336872 0.862364
v -0.62936 2.8785 0.895739
vn -0.661832 0.733484 0.154851
v -0.657093 2.85304 0.891955
vn -0.697825 0.712936 0.0690068
v -0.670689 2.83895 0.888417
vn -0.77695 0.350811 0.522762
v -0.664988 2.82702 0.894422
vn -0.575102 0.00790027 0.818044
v -0.596161 2.854 0.900894
vn 0.577609 -0.703268 0.414467
v 0.274416 3.62633 0.992912
vn 0.389606 -0.455193 0.800629
v 0.238585 3.63972 0.974804
vn -0.615292 0.747477 -0.250387
v -0.625929 2.83592 0.816047
vn -0.586381 0.696158 -0.414152
v -0.607974 2.76581 0.759607
vn -0.605856 -0.786198 -0.121783
v -0.598049 2.7704 0.756212
vn 0.235902 -0.709599 -0.663942
v -0.152892 3.20314 0.874863
vn 0.578404 -0.70323 0.413421
v 0.289702 3.639 0.991681
vn 0.181674 0.201912 0.962407
v 0.247238 3.64487 0.970702
vn -0.57305 0.712806 -0.404377
v -0.598809 2.81708 0.746297
vn -0.583641 0.69351 -0.422383
f 1//1 2//2 3//3
f 1//1 3//3 4//4
f 1//1 4//4 5//5
f 1//1 5//5 6//6
f 1//1 6//6 2//2
f 7//7 8//8 9//9
f 10//10 11//11 12//12
f 13//13 14//14 15//15
f 16//16 17//17 18//18
f 19//19 20//20 21//21
f 22//22 23//23 24//24
f 22//22 24//24 25//25
f 22//22 25//25 26//26
f 22//22 26//26 27//27
f 22//22 27//27 23//23
f 28//28 29//29 30//30
f 31//31 32//32 33//33
f 34//34 35//35 36//36
f 37//37 38//38 39//39
f 40//40 41//41 42//42
f 13//13 43//43 44//44
f 10//10 45//45 46//46
f 7//7 47//47 48//48
f 19//19 49//49 50//50
f 16//16 51//51 52//52
f 10//10 53//53 45//45
f 13//13 54//54 43//43
f 16//16 55//55 51//51
f 19//19 56//56 49//49
f 7//7 57//57 47//47
f 40//40 58//58 59//59
f 28//28 60//60 61//61
f 31//31 62//62 63//63
f 34//34 64//64 65//65
f 37//37 66//66 67//67
f 40//40 68//68 58//58
f 28//28 69//69 60//60
f 31//31 70//70 62//62
f 34//34 71//71 64//64
f 37//37 72//72 66//66
f 10//10 46//46 11//11
f 7//7 48//48 8//8
f 19//19 50//50 20//20
f 16//16 52//52 17//17
f 13//13 44//44 14//14
f 40//40 42//42 68//68
f 28//28 30//30 69//69
f 31//31 33//33 70//70
f 34//34 36//36 71//71
f 37//37 39//39 72//72
f 28//28 61//61 29//29
f 31//31 63//63 32//32
f 34//34 65//65 35//35
f 37//37 67//67 38//38
f 40//40 59//59 41//41
f 10//10 12//12 53//53
f 13//13 15//15 54//54
f 16//16 18//18 55//55
f 19//19 21//21 56//56
f 7//7 9//9 57//57
f 73//73 74//74 75//75
f 76//76 77//77 78//78
f 79//79 80//80 81//81
f 82//82 83//83 84//84
f 85//85 86//86 87//87
f 88//88 89//89 90//90
f 91//91 92//92 93//93
f 94//94 95//95 96//96
f 97//97 98//98 99//99
f 100//100 101//101 102//102
f 103//103 104//104 105//105
f 106//106 107//107 108//108
f 109//109 110//110 111//111
f 112//112 113//113 114//114
f 115//115 116//116 117//117
f 88//88 118//118 119//119
f 91//91 120//120 121//121
f 94//94 122//122 123//123
f 97//97 124//124 125//125
f 100//100 126//126 127//127
f 128//128 129//129 2//2
f 130//130 131//131 3//3
f 132//132 133//133 4//4
f 134//134 135//135 5//5
f 136//136 137//137 6//6
f 76//76 138//138 8//8
f 73//73 139//139 11//11
f 85//85 140//140 14//14
f 82//82 141//141 17//17
f 79//79 142//142 20//20
f 143//143 144//144 23//23
f 145//145 146//146 24//24
f 147//147 148//148 25//25
f 149//149 150//150 26//26
f 151//151 152//152 27//27
f 103//103 153//153 29//29
f 106//106 154//154 32//32
f 109//109 155//155 35//35
f 112//112 156//156 38//38
f 115//115 157//157 41//41
f 73//73 75//75 43//43
f 76//76 78//78 45//45
f 79//79 81//81 47//47
f 82//82 84//84 49//49
f 85//85 87//87 51//51
f 88//88 90//90 53//53
f 91//91 93//93 54//54
f 94//94 96//96 55//55
f 97//97 99//99 56//56
f 100//100 102//102 57//57
f 103//103 105//105 58//58
f 106//106 108//108 60//60
f 109//109 111//111 62//62
f 112//112 114//114 64//64
f 115//115 117//117 66//66
f 88//88 119//119 68//68
f 91//91 121//121 69//69
f 94//94 123//123 70//70
f 97//97 125//125 71//71
f 100//100 127//127 72//72
f 130//130 74//74 46//46
f 132//132 77//77 48//48
f 134//134 80//80 50//50
f 136//136 83//83 52//52
f 128//128 86//86 44//44
f 158//158 89//89 42//42
f 159//159 92//92 30//30
f 160//160 95//95 33//33
f 161//161 98//98 36//36
f 162//162 101//101 39//39
f 145//145 104//104 61//61
f 147//147 107//107 63//63
f 149//149 110//110 65//65
f 151//151 113//113 67//67
f 143//143 116//116 59//59
f 159//159 118//118 12//12
f 160//160 120//120 15//15
f 161//161 122//122 18//18
f 162//162 124//124 21//21
f 158//158 126//126 9//9
f 130//130 129//129 74//74
f 132//132 131//131 77//77
f 134//134 133//133 80//80
f 136//136 135//135 83//83
f 128//128 137//137 86//86
f 158//158 138//138 89//89
f 159//159 139//139 92//92
f 160//160 140//140 95//95
f 161//161 141//141 98//98
f 162//162 142//142 101//101
f 145//145 144//144 104//104
f 147//147 146//146 107//107
f 149//149 148//148 110//110
f 151//151 150//150 113//113
f 143//143 152//152 116//116
f 159//159 153//153 118//118
f 160//160 154//154 120//120
f 161//161 155//155 122//122
f 162//162 156//156 124//124
f 158//158 157//157 126//126
f 130//130 3//3 129//129
f 132//132 4//4 131//131
f 134//134 5//5 133//133
f 136//136 6//6 135//135
f 128//128 2//2 137//137
f 158//158 9//9 138//138
f 159//159 12//12 139//139
f 160//160 15//15 140//140
f 161//161 18//18 141//141
f 162//162 21//21 142//142
f 145//145 24//24 144//144
f 147//147 25//25 146//146
f 149//149 26//26 148//148
f 151//151 27//27 150//150
f 143//143 23//23 152//152
f 159//159 30//30 153//153
f 160//160 33//33 154//154
f 161//161 36//36 155//155
f 162//162 39//39 156//156
f 158//158 42//42 157//157
f 128//128 44//44 75//75
f 130//130 46//46 78//78
f 132//132 48//48 81//81
f 134//134 50//50 84//84
f 136//136 52//52 87//87
f 76//76 45//45 90//90
f 73//73 43//43 93//93
f 85//85 51//51 96//96
f 82//82 49//49 99//99
f 79//79 47//47 102//102
f 143//143 59//59 105//105
f 145//145 61//61 108//108
f 147//147 63//63 111//111
f 149//149 65//65 114//114
f 151//151 67//67 117//117
f 103//103 58//58 119//119
f 106//106 60//60 121//121
f 109//109 62//62 123//123
f 112//112 64//64 125//125
f 115//115 66//66 127//127
f 73//73 11//11 74//74
f 76//76 8//8 77//77
f 79//79 20//20 80//80
f 82//82 17//17 83//83
f 85//85 14//14 86//86
f 88//88 68//68 89//89
f 91//91 69//69 92//92
f 94//94 70//70 95//95
f 97//97 71//71 98//98
f 100//100 72//72 101//101
f 103//103 29//29 104//104
f 106//106 32//32 107//107
f 109//109 35//35 110//110
f 112//112 38//38 113//113
f 115//115 41//41 116//116
f 88//88 53//53 118//118
f 91//91 54//54 120//120
f 94//94 55//55 122//122
f 97//97 56//56 124//124
f 100//100 57//57 126//126
f 128//128 75//75 129//129
f 130//130 78//78 131//131
f 132//132 81//81 133//133
f 134//134 84//84 135//135
f 136//136 87//87 137//137
f 76//76 90//90 138//138
f 73//73 93//93 139//139
f 85//85 96//96 140//140
f 82//82 99//99 141//141
f 79//79 102//102 142//142
f 143//143 105//105 144//144
f 145//145 108//108 146//146
f 147//147 111//111 148//148
f 149//149 114//114 150//150
f 151//151 117//117 152//152
f 103//103 119//119 153//153
f 106//106 121//121 154//154
f 109//109 123//123 155//155
f 112//112 125//125 156//156
f 115//115 127//127 157//157
f 129//129 3//3 2//2
f 131//131 4//4 3//3
f 133//133 5//5 4//4
f 135//135 6//6 5//5
f 137//137 2//2 6//6
f 138//138 9//9 8//8
f 139//139 12//12 11//11
f 140//140 15//15 14//14
f 141//141 18//18 17//17
f 142//142 21//21 20//20
f 144//144 24//24 23//23
f 146//146 25//25 24//24
f 148//148 26//26 25//25
f 150//150 27//27 26//26
f 152//152 23//23 27//27
f 153//153 30//30 29//29
f 154//154 33//33 32//32
f 155//155 36//36 35//35
f 156//156 39//39 38//38
f 157//157 42//42 41//41
f 75//75 44//44 43//43
f 78//78 46//46 45//45
f 81//81 48//48 47//47
f 84//84 50//50 49//49
f 87//87 52//52 51//51
f 90//90 45//45 53//53
f 93//93 43//43 54//54
f 96//96 51//51 55//55
f 99//99 49//49 56//56
f 102//102 47//47 57//57
f 105//105 59//59 58//58
f 108//108 61//61 60//60
f 111//111 63//63 62//62
f 114//114 65//65 64//64
f 117//117 67//67 66//66
f 119//119 58//58 68//68
f 121//121 60//60 69//69
f 123//123 62//62 70//70
f 125//125 64//64 71//71
f 127//127 66//66 72//72
f 74//74 11//11 46//46
f 77//77 8//8 48//48
f 80//80 20//20 50//50
f 83//83 17//17 52//52
f 86//86 14//14 44//44
f 89//89 68//68 42//42
f 92//92 69//69 30//30
f 95//95 70//70 33//33
f 98//98 71//71 36//36
f 101//101 72//72 39//39
f 104//104 29//29 61//61
f 107//107 32//32 63//63
f 110//110 35//35 65//65
f 113//113 38//38 67//67
f 116//116 41//41 59//59
f 118//118 53//53 12//12
f 120//120 54//54 15//15
f 122//122 55//55 18//18
f 124//124 56//56 21//21
f 126//126 57//57 9//9
f 129//129 75//75 74//74
f 131//131 78//78 77//77
f 133//133 81//81 80//80
f 135//135 84//84 83//83
f 137//137 87//87 86//86
f 138//138 90//90 89//89
f 139//139 93//93 92//92
f 140//140 96//96 95//95
f 141//141 99//99 98//98
f 142//142 102//102 101//101
f 144//144 105//105 104//104
f 146//146 108//108 107//107
f 148//148 111//111 110//110
f 150//150 114//114 113//113
f 152//152 117//117 116//116
f 153//153 119//119 118//118
f 154//154 121//121 120//120
f 155//155 123//123 122//122
f 156//156 125//125 124//124
f 157//157 127//127 126//126
