# Created by Open3D 
# object name: part_024
# number of vertices: 162
# number of triangles: 320
v 1.32863 2.26606 1.39001
vn 0.552441 -0.797157 0.243618
v 1.30961 2.25886 1.40261
vn 0.431081 -0.780412 0.452909
v 1.3117 2.25337 1.38223
vn 0.430241 -0.885263 0.176642
v 1.33046 2.26169 1.36236
vn 0.563833 -0.821218 0.0877168
v 1.34055 2.27308 1.38129
vn 0.720885 -0.673057 0.165288
v 1.3371 2.27764 1.40172
vn 0.601566 -0.660529 0.449243
v 1.34744 2.19686 0.510991
vn 0.559631 -0.823594 -0.0922261
v 1.33015 2.18549 0.51993
vn 0.4344 -0.900549 -0.0175503
v 1.32894 2.18771 0.49887
vn 0.447332 -0.840198 -0.306531
v 1.31359 2.22623 0.950387
vn -0.803375 -0.594735 0.0296288
v 1.30273 2.26148 1.35972
vn -0.812798 -0.581816 0.0291501
v 1.3065 2.23613 0.949456
vn -0.824052 -0.565874 0.0269143
v 1.19578 2.42148 1.39674
vn -0.822901 -0.552082 0.134311
v 1.19664 2.4226 1.40242
vn -0.388355 -0.182088 0.903341
v 1.09475 2.56939 1.38359
vn -0.819327 -0.533719 0.209396
v 1.22674 2.44263 1.39574
vn 0.818289 0.569046 0.0811727
v 1.32391 2.30153 1.4001
vn 0.82429 0.565886 0.0178743
v 1.13082 2.58295 1.37381
vn 0.823024 0.567731 0.0177032
v 1.34413 2.25557 1.04012
vn 0.846292 0.532189 -0.0237867
v 1.35718 2.21303 0.559397
vn 0.873654 0.486137 -0.0200058
v 1.3528 2.21921 0.539439
vn 0.83763 0.545635 -0.0256421
v 1.11932 2.52933 0.479936
vn -0.552441 0.797157 -0.243618
v 1.10516 2.51386 0.468405
vn -0.590102 0.671782 -0.44776
v 1.10171 2.51843 0.488831
vn -0.675819 0.717505 -0.16869
v 1.11713 2.53346 0.507588
vn -0.563832 0.821218 -0.0877169
v 1.13056 2.53814 0.487897
vn -0.372371 0.911132 -0.176573
v 1.13266 2.53265 0.467515
vn -0.416512 0.786944 -0.455233
v 1.09619 2.54308 0.92079
vn -0.846292 -0.532188 0.0237866
v 1.107 2.50781 0.511459
vn -0.837662 -0.545648 0.024291
v 1.10287 2.53291 0.921734
vn -0.826807 -0.561859 0.0265393
v 1.10051 2.59853 1.35895
vn -0.559631 0.823594 0.0922268
v 1.08326 2.58631 1.35113
vn -0.679976 0.732791 0.0255038
v 1.08582 2.58501 1.37215
vn -0.606357 0.731565 0.311679
v 1.12673 2.57242 1.01053
vn 0.803375 0.594736 -0.0296288
v 1.11695 2.60025 1.3097
vn 0.769401 0.637901 -0.0332445
v 1.122 2.59452 1.32963
vn 0.812665 0.582082 -0.0274975
v 1.24648 2.37002 0.473382
vn 0.822901 0.552082 -0.134311
v 1.15018 2.51172 0.468995
vn 0.824928 0.560725 -0.0712797
v 1.34328 2.2303 0.495282
vn 0.826194 0.558881 -0.0711079
v 1.21552 2.34887 0.474385
vn -0.818289 -0.569046 -0.0811725
v 1.21662 2.34909 0.468649
vn -0.350206 -0.322437 -0.879426
v 1.31714 2.20137 0.48752
vn -0.803211 -0.574669 -0.15687
v 1.29208 2.27979 1.40113
vn -0.824928 -0.560725 0.0712798
v 1.29737 2.27409 1.41117
vn -0.811073 -0.545745 0.210532
v 1.32531 2.19126 0.560428
vn -0.769875 -0.637329 0.0332325
v 1.3086 2.25272 1.34116
vn -0.76989 -0.637261 0.0341598
v 1.35901 2.2052 0.518996
vn 0.725003 -0.688209 -0.0271822
v 1.34808 2.19687 0.539028
vn 0.564297 -0.822941 0.0658606
v 1.33527 2.2837 1.35867
vn 0.837749 0.545524 -0.0240827
v 1.34047 2.27449 1.34013
vn 0.874296 0.485022 -0.0189645
v 1.22564 2.44241 1.40148
vn 0.464545 0.392875 0.793629
v 1.32774 2.29484 1.41019
vn 0.811464 0.56264 0.157994
v 1.32027 2.19698 0.540493
vn -0.812767 -0.581932 0.0276801
v 1.09899 2.56121 1.37484
vn -0.826194 -0.558881 0.0711079
v 1.12513 2.59013 1.3826
vn 0.803211 0.574668 0.15687
v 1.33743 2.26583 1.0403
vn 0.826807 0.561859 -0.0265393
v 1.35644 2.2065 0.49798
vn 0.617913 -0.720643 -0.314416
v 1.11835 2.48998 0.470025
vn -0.82429 -0.565886 -0.0178742
v 1.11452 2.49667 0.459937
vn -0.811464 -0.562641 -0.157994
v 1.08508 2.57848 1.31073
vn -0.87395 -0.485604 0.0199939
v 1.10179 2.51702 0.53
vn -0.873931 -0.485676 0.0190669
v 1.11211 2.60602 1.35019
vn -0.376491 0.926284 0.0158968
v 1.09951 2.59827 1.33093
vn -0.564297 0.82294 -0.0658604
v 1.13953 2.53003 0.510406
vn 0.812861 0.581734 -0.0290141
v 1.13366 2.53879 0.528968
vn 0.770285 0.636788 -0.0340778
v 1.24562 2.3689 0.46771
vn 0.499181 0.265464 -0.824831
v 1.14489 2.51742 0.458954
vn 0.811073 0.545745 -0.210532
v 1.31144 2.20855 0.496312
vn -0.823024 -0.567731 -0.0177031
v 1.08947 2.5723 1.33069
vn -0.837695 -0.54553 0.0257607
v 1.11332 2.60379 1.37126
vn -0.432854 0.847061 0.308422
v 1.13379 2.56261 1.01258
vn 0.824052 0.565874 -0.0269143
v 1.34751 2.22212 0.486537
vn 0.819327 0.533719 -0.209396
v 1.29869 2.26891 1.38693
vn -0.823495 -0.565776 0.0418803
v 1.30594 2.25856 1.38084
vn -0.78206 -0.621185 0.0501213
v 1.30224 2.2655 1.40156
vn -0.793572 -0.602269 0.0866927
v 1.32814 2.18702 0.53425
vn -0.644426 -0.763528 0.0417101
v 1.33039 2.18702 0.560423
vn 0.433969 -0.897568 0.0777363
v 1.31971 2.21894 0.951092
vn -0.63957 -0.767312 0.0467203
v 1.35894 2.20806 0.533252
vn 0.946598 0.322289 -0.00903864
v 1.34882 2.2469 1.03661
vn 0.948286 0.317383 -0.0046934
v 1.35928 2.20675 0.559488
vn 0.738475 -0.671006 0.0663758
v 1.33101 2.291 1.38588
vn 0.827174 0.561827 -0.0115685
v 1.33355 2.28689 1.40055
vn 0.852269 0.522036 0.0334016
v 1.33775 2.28029 1.37981
vn 0.864086 0.503334 -0.00317942
v 1.21413 2.43472 1.40366
vn -0.0213281 0.0784642 0.996689
v 1.29881 2.27525 1.41567
vn -0.0920513 -0.0187191 0.995578
v 1.32634 2.29405 1.41478
vn 0.108366 0.118303 0.987047
v 1.3174 2.20006 0.512306
vn -0.822859 -0.568116 0.0121535
v 1.32156 2.19441 0.49855
vn -0.791182 -0.611066 -0.0250859
v 1.32436 2.19081 0.520248
vn -0.781301 -0.623987 0.0144504
v 1.09253 2.56937 1.35887
vn -0.82781 -0.559486 0.0412949
v 1.09927 2.55769 1.33252
vn -0.825732 -0.563395 0.0274314
v 1.19548 2.41926 1.3751
vn -0.825655 -0.562667 0.0412227
v 1.11783 2.59954 1.37873
vn 0.263043 0.805672 0.530754
v 1.10554 2.59252 1.38134
vn -0.364513 0.568555 0.737479
v 1.12349 2.58969 1.38716
vn 0.0636144 0.183527 0.980954
v 1.23567 2.41429 1.0268
vn 0.825432 0.563868 -0.0267268
v 1.13212 2.58013 1.33145
vn 0.825126 0.564358 -0.0258247
v 1.32544 2.29839 1.35777
vn 0.825697 0.563526 -0.025747
v 1.35379 2.21202 0.490442
vn 0.821959 -0.0644888 -0.565884
v 1.35287 2.2158 0.497536
vn 0.854659 0.513241 -0.0783751
v 1.35747 2.20837 0.505333
vn 0.930114 0.357868 -0.0825733
v 1.11125 2.50051 0.484241
vn -0.827174 -0.561827 0.0115685
v 1.10451 2.51122 0.490319
vn -0.864086 -0.503335 0.00317942
v 1.10872 2.50462 0.469574
vn -0.852269 -0.522036 -0.0334012
v 1.08332 2.58344 1.33687
vn -0.9463 -0.323141 0.00979782
v 1.08298 2.58475 1.31064
vn -0.681561 0.728433 -0.0697194
v 1.09159 2.55141 0.920036
vn -0.948286 -0.317382 0.00469335
v 1.11413 2.60449 1.33588
vn 0.64545 0.762721 -0.0406488
v 1.1207 2.57938 1.00556
vn 0.639571 0.767311 -0.0467202
v 1.11187 2.60449 1.3097
vn -0.384376 0.919846 -0.0783506
v 1.14358 2.52259 0.483195
vn 0.823495 0.565776 -0.0418804
v 1.14002 2.52601 0.468561
vn 0.793572 0.602269 -0.0866924
v 1.13632 2.53295 0.48929
vn 0.78206 0.621184 -0.0501212
v 1.23419 2.36093 0.466266
vn 0.0213281 -0.0784642 -0.996689
v 1.11592 2.49745 0.455349
vn -0.094739 -0.108881 -0.98953
v 1.14345 2.51626 0.454458
vn 0.105876 0.0280498 -0.993984
v 1.31014 2.21138 0.538673
vn -0.825131 -0.564341 0.0260222
v 1.21429 2.35006 0.496076
vn -0.825035 -0.56495 0.0122267
v 1.08939 2.57571 1.37259
vn -0.854659 -0.51324 0.0783752
v 1.0861 2.57897 1.35091
vn -0.864848 -0.500528 0.0388511
v 1.1207 2.5971 1.37157
vn 0.791182 0.611066 0.0250859
v 1.11511 2.60385 1.36381
vn 0.674099 0.738005 0.0306303
v 1.34299 2.23382 0.53761
vn 0.825729 0.563406 -0.0273025
v 1.14968 2.51556 0.511293
vn 0.825161 0.564234 -0.0273799
v 1.34269 2.20306 0.488587
vn 0.364513 -0.568556 -0.737479
v 1.3463 2.22063 0.482072
vn 0.15063 -0.0371728 -0.987891
v 1.30479 2.26422 1.40913
vn -0.146093 -0.68041 0.718122
v 1.30813 2.25764 1.3952
vn -0.677253 -0.726388 0.116997
v 1.3103 2.25264 1.36777
vn -0.644632 -0.762799 0.0508652
v 1.31367 2.24855 1.34204
vn 0.433873 -0.897223 0.0821296
v 1.34009 2.22888 0.950745
vn 0.564099 -0.822129 0.0767933
v 1.34255 2.26829 1.34111
vn 0.720211 -0.690006 0.0720223
v 1.34111 2.27368 1.36678
vn 0.945638 0.32522 0.000217317
v 1.33845 2.27835 1.39421
vn 0.926958 0.369482 0.065055
v 1.33415 2.28427 1.40818
vn 0.796936 0.0275647 0.603434
v 1.32295 2.27567 1.41094
vn 0.330922 -0.444985 0.832153
v 1.32716 2.18766 0.506315
vn -0.674099 -0.738005 -0.0306307
v 1.29259 2.27595 1.35883
vn -0.825163 -0.564224 0.0275089
v 1.09596 2.57088 1.38805
vn -0.137087 0.0469147 0.989447
v 1.22797 2.44145 1.37405
vn 0.825035 0.56495 -0.0122267
v 1.35616 2.21254 0.519218
vn 0.864848 0.500528 -0.0388511
v 1.10811 2.50723 0.461945
vn -0.718047 0.0901027 -0.690138
v 1.10382 2.51316 0.47591
vn -0.926958 -0.369482 -0.065055
v 1.10116 2.51783 0.503349
vn -0.946107 -0.323854 0.000640593
v 1.09971 2.52322 0.529019
vn -0.681467 0.728086 -0.0741128
v 1.10824 2.56677 0.919183
vn -0.564099 0.822129 -0.0767934
v 1.1286 2.54296 0.528084
vn -0.35962 0.92939 -0.0831137
v 1.13196 2.53887 0.502352
vn 0.643885 0.763471 -0.0502487
v 1.13413 2.53387 0.474929
vn 0.677253 0.726388 -0.116997
v 1.13747 2.52729 0.460994
vn 0.288065 0.713616 -0.638569
v 1.12528 2.51991 0.458991
vn -0.330922 0.444985 -0.832153
v 1.11682 2.49312 0.512356
vn -0.8257 -0.563512 0.0259448
v 1.0848 2.58314 1.36479
vn -0.930114 -0.357868 0.0825732
v 1.1179 2.6007 1.34988
vn 0.781301 0.623987 -0.0144506
v 1.24678 2.37225 0.495025
vn 0.825655 0.562667 -0.0412227
v 1.31877 2.20182 0.482964
vn -0.0497048 -0.174516 -0.983399
v 1.32443 2.19197 0.491393
vn -0.117706 -0.784843 -0.608413
v 1.20462 2.38448 0.935597
vn -0.825432 -0.563868 0.0267268
v 1.08847 2.57948 1.37968
vn -0.746433 0.194534 0.636391
v 1.12486 2.59145 1.35782
vn 0.822859 0.568116 -0.0121535
v 1.34973 2.22214 0.511259
vn 0.82781 0.559486 -0.0412949
f 1//1 2//2 3//3
f 1//1 3//3 4//4
f 1//1 4//4 5//5
f 1//1 5//5 6//6
f 1//1 6//6 2//2
f 7//7 8//8 9//9
f 10//10 11//11 12//12
f 13//13 14//14 15//15
f 16//16 17//17 18//18
f 19//19 20//20 21//21
f 22//22 23//23 24//24
f 22//22 24//24 25//25
f 22//22 25//25 26//26
f 22//22 26//26 27//27
f 22//22 27//27 23//23
f 28//28 29//29 30//30
f 31//31 32//32 33//33
f 34//34 35//35 36//36
f 37//37 38//38 39//39
f 40//40 41//41 42//42
f 13//13 43//43 44//44
f 10//10 45//45 46//46
f 7//7 47//47 48//48
f 19//19 49//49 50//50
f 16//16 51//51 52//52
f 10//10 53//53 45//45
f 13//13 54//54 43//43
f 16//16 55//55 51//51
f 19//19 56//56 49//49
f 7//7 57//57 47//47
f 40//40 58//58 59//59
f 28//28 60//60 61//61
f 31//31 62//62 63//63
f 34//34 64//64 65//65
f 37//37 66//66 67//67
f 40//40 68//68 58//58
f 28//28 69//69 60//60
f 31//31 70//70 62//62
f 34//34 71//71 64//64
f 37//37 72//72 66//66
f 10//10 46//46 11//11
f 7//7 48//48 8//8
f 19//19 50//50 20//20
f 16//16 52//52 17//17
f 13//13 44//44 14//14
f 40//40 42//42 68//68
f 28//28 30//30 69//69
f 31//31 33//33 70//70
f 34//34 36//36 71//71
f 37//37 39//39 72//72
f 28//28 61//61 29//29
f 31//31 63//63 32//32
f 34//34 65//65 35//35
f 37//37 67//67 38//38
f 40//40 59//59 41//41
f 10//10 12//12 53//53
f 13//13 15//15 54//54
f 16//16 18//18 55//55
f 19//19 21//21 56//56
f 7//7 9//9 57//57
f 73//73 74//74 75//75
f 76//76 77//77 78//78
f 79//79 80//80 81//81
f 82//82 83//83 84//84
f 85//85 86//86 87//87
f 88//88 89//89 90//90
f 91//91 92//92 93//93
f 94//94 95//95 96//96
f 97//97 98//98 99//99
f 100//100 101//101 102//102
f 103//103 104//104 105//105
f 106//106 107//107 108//108
f 109//109 110//110 111//111
f 112//112 113//113 114//114
f 115//115 116//116 117//117
f 88//88 118//118 119//119
f 91//91 120//120 121//121
f 94//94 122//122 123//123
f 97//97 124//124 125//125
f 100//100 126//126 127//127
f 128//128 129//129 2//2
f 130//130 131//131 3//3
f 132//132 133//133 4//4
f 134//134 135//135 5//5
f 136//136 137//137 6//6
f 76//76 138//138 8//8
f 73//73 139//139 11//11
f 85//85 140//140 14//14
f 82//82 141//141 17//17
f 79//79 142//142 20//20
f 143//143 144//144 23//23
f 145//145 146//146 24//24
f 147//147 148//148 25//25
f 149//149 150//150 26//26
f 151//151 152//152 27//27
f 103//103 153//153 29//29
f 106//106 154//154 32//32
f 109//109 155//155 35//35
f 112//112 156//156 38//38
f 115//115 157//157 41//41
f 73//73 75//75 43//43
f 76//76 78//78 45//45
f 79//79 81//81 47//47
f 82//82 84//84 49//49
f 85//85 87//87 51//51
f 88//88 90//90 53//53
f 91//91 93//93 54//54
f 94//94 96//96 55//55
f 97//97 99//99 56//56
f 100//100 102//102 57//57
f 103//103 105//105 58//58
f 106//106 108//108 60//60
f 109//109 111//111 62//62
f 112//112 114//114 64//64
f 115//115 117//117 66//66
f 88//88 119//119 68//68
f 91//91 121//121 69//69
f 94//94 123//123 70//70
f 97//97 125//125 71//71
f 100//100 127//127 72//72
f 130//130 74//74 46//46
f 132//132 77//77 48//48
f 134//134 80//80 50//50
f 136//136 83//83 52//52
f 128//128 86//86 44//44
f 158//158 89//89 42//42
f 159//159 92//92 30//30
f 160//160 95//95 33//33
f 161//161 98//98 36//36
f 162//162 101//101 39//39
f 145//145 104//104 61//61
f 147//147 107//107 63//63
f 149//149 110//110 65//65
f 151//151 113//113 67//67
f 143//143 116//116 59//59
f 159//159 118//118 12//12
f 160//160 120//120 15//15
f 161//161 122//122 18//18
f 162//162 124//124 21//21
f 158//158 126//126 9//9
f 130//130 129//129 74//74
f 132//132 131//131 77//77
f 134//134 133//133 80//80
f 136//136 135//135 83//83
f 128//128 137//137 86//86
f 158//158 138//138 89//89
f 159//159 139//139 92//92
f 160//160 140//140 95//95
f 161//161 141//141 98//98
f 162//162 142//142 101//101
f 145//145 144//144 104//104
f 147//147 146//146 107//107
f 149//149 148//148 110//110
f 151//151 150//150 113//113
f 143//143 152//152 116//116
f 159//159 153//153 118//118
f 160//160 154//154 120//120
f 161//161 155//155 122//122
f 162//162 156//156 124//124
f 158//158 157//157 126//126
f 130//130 3//3 129//129
f 132//132 4//4 131//131
f 134//134 5//5 133//133
f 136//136 6//6 135//135
f 128//128 2//2 137//137
f 158//158 9//9 138//138
f 159//159 12//12 139//139
f 160//160 15//15 140//140
f 161//161 18//18 141//141
f 162//162 21//21 142//142
f 145//145 24//24 144//144
f 147//147 25//25 146//146
f 149//149 26//26 148//148
f 151//151 27//27 150//150
f 143//143 23//23 152//152
f 159//159 30//30 153//153
f 160//160 33//33 154//154
f 161//161 36//36 155//155
f 162//162 39//39 156//156
f 158//158 42//42 157//157
f 128//128 44//44 75//75
f 130//130 46//46 78//78
f 132//132 48//48 81//81
f 134//134 50//50 84//84
f 136//136 52//52 87//87
f 76//76 45//45 90//90
f 73//73 43//43 93//93
f 85//85 51//51 96//96
f 82//82 49//49 99//99
f 79//79 47//47 102//102
f 143//143 59//59 105//105
f 145//145 61//61 108//108
f 147//147 63//63 111//111
f 149//149 65//65 114//114
f 151//151 67//67 117//117
f 103//103 58//58 119//119
f 106//106 60//60 121//121
f 109//109 62//62 123//123
f 112//112 64//64 125//125
f 115//115 66//66 127//127
f 73//73 11//11 74//74
f 76//76 8//8 77//77
f 79//79 20//20 80//80
f 82//82 17//17 83//83
f 85//85 14//14 86//86
f 88//88 68//68 89//89
f 91//91 69//69 92//92
f 94//94 70//70 95//95
f 97//97 71//71 98//98
f 100//100 72//72 101//101
f 103//103 29//29 104//104
f 106//106 32//32 107//107
f 109//109 35//35 110//110
f 112//112 38//38 113//113
f 115//115 41//41 116//116
f 88//88 53//53 118//118
f 91//91 54//54 120//120
f 94//94 55//55 122//122
f 97//97 56//56 124//124
f 100//100 57//57 126//126
f 128//128 75//75 129//129
f 130//130 78//78 131//131
f 132//132 81//81 133//133
f 134//134 84//84 135//135
f 136//136 87//87 137//137
f 76//76 90//90 138//138
f 73//73 93//93 139//139
f 85//85 96//96 140//140
f 82//82 99//99 141//141
f 79//79 102//102 142//142
f 143//143 105//105 144//144
f 145//145 108//108 146//146
f 147//147 111//111 148//148
f 149//149 114//114 150//150
f 151//151 117//117 152//152
f 103//103 119//119 153//153
f 106//106 121//121 154//154
f 109//109 123//123 155//155
f 112//112 125//125 156//156
f 115//115 127//127 157//157
f 129//129 3//3 2//2
f 131//131 4//4 3//3
f 133//133 5//5 4//4
f 135//135 6//6 5//5
f 137//137 2//2 6//6
f 138//138 9//9 8//8
f 139//139 12//12 11//11
f 140//140 15//15 14//14
f 141//141 18//18 17//17
f 142//142 21//21 20//20
f 144//144 24//24 23//23
f 146//146 25//25 24//24
f 148//148 26//26 25//25
f 150//150 27//27 26//26
f 152//152 23//23 27//27
f 153//153 30//30 29//29
f 154//154 33//33 32//32
f 155//155 36//36 35//35
f 156//156 39//39 38//38
f 157//157 42//42 41//41
f 75//75 44//44 43//43
f 78//78 46//46 45//45
f 81//81 48//48 47//47
f 84//84 50//50 49//49
f 87//87 52//52 51//51
f 90//90 45//45 53//53
f 93//93 43//43 54//54
f 96//96 51//51 55//55
f 99//99 49//49 56//56
f 102//102 47//47 57//57
f 105//105 59//59 58//58
f 108//108 61//61 60//60
f 111//111 63//63 62//62
f 114//114 65//65 64//64
f 117//117 67//67 66//66
f 119//119 58//58 68//68
f 121//121 60//60 69//69
f 123//123 62//62 70//70
f 125//125 64//64 71//71
f 127//127 66//66 72//72
f 74//74 11//11 46//46
f 77//77 8//8 48//48
f 80//80 20//20 50//50
f 83//83 17//17 52//52
f 86//86 14//14 44//44
f 89//89 68//68 42//42
f 92//92 69//69 30//30
f 95//95 70//70 33//33
f 98//98 71//71 36//36
f 101//101 72//72 39//39
f 104//104 29//29 61//61
f 107//107 32//32 63//63
f 110//110 35//35 65//65
f 113//113 38//38 67//67
f 116//116 41//41 59//59
f 118//118 53//53 12//12
f 120//120 54//54 15//15
f 122//122 55//55 18//18
f 124//124 56//56 21//21
f 126//126 57//57 9//9
f 129//129 75//75 74//74
f 131//131 78//78 77//77
f 133//133 81//81 80//80
f 135//135 84//84 83//83
f 137//137 87//87 86//86
f 138//138 90//90 89//89
f 139//139 93//93 92//92
f 140//140 96//96 95//95
f 141//141 99//99 98//98
f 142//142 102//102 101//101
f 144//144 105//105 104//104
f 146//146 108//108 107//107
f 148//148 111//111 110//110
f 150//150 114//114 113//113
f 152//152 117//117 116//116
f 153//153 119//119 118//118
f 154//154 121//121 120//120
f 155//155 123//123 122//122
f 156//156 125//125 124//124
f 157//157 127//127 126//126
