# Created by Open3D 
# object name: part_067
# number of vertices: 162
# number of triangles: 320
v -0.619041 3.01009 1.3905
vn -0.0678588 0.0700985 0.995229
v -0.620181 2.98403 1.39203
vn -0.0810438 0.0453408 0.995679
v -0.598076 2.99817 1.39262
vn -0.0512525 0.0588459 0.996951
v -0.58984 3.02982 1.3908
vn -0.0543617 0.0793424 0.995364
v -0.618514 3.02807 1.38912
vn -0.0769038 0.0963167 0.992375
v -0.639658 3.01252 1.3887
vn -0.0971349 0.0682429 0.992929
v 0.299492 3.63799 1.38936
vn -0.0389963 0.0898279 0.995194
v 0.302989 3.61413 1.3915
vn -0.0345377 0.0702726 0.99693
v 0.32419 3.62959 1.39086
vn -0.0111414 0.0931265 0.995592
v -0.146189 3.30417 1.39102
vn 0.52138 -0.762013 0.384056
v -0.574177 3.01151 1.39108
vn 0.543243 -0.795267 0.269142
v -0.145963 3.30384 1.38948
vn 0.560638 -0.819929 0.115761
v -0.627314 2.97354 1.36678
vn 0.485798 -0.868796 0.0958837
v -0.633969 2.97048 1.36666
vn -0.41459 -0.908592 0.0507449
v -0.62696 2.97153 1.34367
vn 0.4314 -0.901439 0.0360964
v -0.649244 3.00562 1.36302
vn -0.633303 0.767964 -0.0957004
v -0.641568 3.0141 1.38494
vn -0.592287 0.801009 -0.0870656
v -0.639208 3.01056 1.34097
vn -0.591318 0.799564 -0.105076
v -0.264071 3.27297 1.3872
vn -0.552741 0.808951 0.200189
v 0.238896 3.61641 1.38731
vn -0.482772 0.707673 0.515877
v 0.258838 3.63041 1.38608
vn -0.5621 0.823299 0.0788788
v 0.302281 3.63382 1.33741
vn 0.0678602 -0.0700981 -0.995229
v 0.326926 3.6255 1.3399
vn 0.0956264 -0.0666662 -0.993182
v 0.305782 3.60995 1.33948
vn 0.0723091 -0.0896405 -0.993346
v 0.273335 3.61372 1.33715
vn 0.0543609 -0.0793413 -0.995364
v 0.285344 3.63984 1.33598
vn 0.0466767 -0.0521078 -0.99755
v 0.307448 3.65399 1.33657
vn 0.0801206 -0.0433558 -0.995842
v -0.143532 3.30019 1.34152
vn 0.552743 -0.808953 -0.200175
v 0.284488 3.5928 1.34146
vn 0.562964 -0.822626 -0.0797344
v -0.143474 3.30011 1.34311
vn 0.562742 -0.823079 0.0765623
v -0.616252 3.00592 1.33855
vn 0.0389968 -0.0898282 -0.995194
v -0.595283 2.99399 1.3406
vn 0.055594 -0.101067 -0.993325
v -0.617445 2.97994 1.34107
vn 0.0257225 -0.114452 -0.993096
v -0.261413 3.269 1.3377
vn -0.521385 0.76202 -0.384035
v -0.574201 3.05463 1.33743
vn -0.416913 0.608068 -0.675601
v -0.594613 3.04131 1.33858
vn -0.544168 0.794212 -0.270386
v 0.314582 3.66448 1.36183
vn -0.485798 0.868796 -0.0958839
v 0.306289 3.6569 1.3398
vn -0.530504 0.841135 -0.105153
v 0.303929 3.66043 1.38377
vn -0.531471 0.842582 -0.0871392
v 0.336511 3.6324 1.36558
vn 0.633304 -0.767963 0.0957011
v 0.341777 3.63749 1.36545
vn 0.9972 0.0564881 0.0489946
v 0.33574 3.63502 1.38861
vn 0.677041 -0.719724 0.153663
v -0.619022 2.98112 1.3888
vn 0.530505 -0.841135 0.105153
v -0.629437 2.97524 1.38981
vn 0.425071 -0.891967 0.153977
v 0.261469 3.58339 1.39117
vn 0.418362 -0.610242 0.672739
v -0.55436 3.0257 1.39219
vn 0.417856 -0.610595 0.672733
v 0.282551 3.64402 1.388
vn -0.060149 0.107774 0.992354
v 0.270512 3.61794 1.38974
vn -0.0525107 0.0806093 0.995362
v -0.59722 3.04521 1.38714
vn -0.563034 0.822449 0.0810603
v -0.576933 3.05872 1.38832
vn -0.481199 0.704281 0.521954
v -0.654509 3.00052 1.36315
vn -0.991463 0.114472 -0.0624231
v -0.650949 3.0067 1.38613
vn -0.683362 0.729202 -0.0357946
v 0.281881 3.5967 1.39002
vn 0.544234 -0.794592 0.269133
v -0.616661 2.97759 1.34483
vn 0.531471 -0.842582 0.0871389
v -0.648472 3.00299 1.33999
vn -0.67704 0.719725 -0.153664
v -0.265302 3.27225 1.38561
vn -0.562742 0.823079 -0.0765662
v 0.304713 3.65808 1.38753
vn -0.0266439 0.116431 0.992841
v 0.328836 3.62392 1.34366
vn 0.592287 -0.801009 0.087066
v 0.338217 3.63132 1.34248
vn 0.683364 -0.7292 0.0357936
v -0.551628 3.02161 1.34129
vn 0.481801 -0.706299 -0.518662
v 0.264201 3.5793 1.34028
vn 0.482312 -0.705952 -0.518659
v -0.615721 3.02389 1.3371
vn 0.0299222 -0.0635667 -0.997529
v -0.587017 3.02559 1.33822
vn 0.0525108 -0.0806092 -0.995362
v 0.261445 3.6265 1.33752
vn -0.543464 0.795407 -0.26828
v 0.241628 3.61232 1.33641
vn -0.419101 0.612379 -0.670332
v 0.321237 3.66753 1.36194
vn 0.253198 0.965297 -0.0639657
v 0.316705 3.66278 1.33879
vn -0.425071 0.891968 -0.153977
v 0.326475 3.62745 1.38763
vn 0.591318 -0.799564 0.105076
v -0.57157 3.00761 1.34252
vn 0.561975 -0.823302 -0.0797352
v -0.636922 3.00842 1.33774
vn 0.00962581 -0.0915443 -0.995754
v -0.262813 3.26853 1.33924
vn -0.560638 0.81993 -0.115756
v 0.314228 3.66649 1.38493
vn -0.4314 0.901438 -0.036098
v -0.603151 2.99177 1.3903
vn 0.54969 -0.825684 0.126834
v -0.596085 2.99718 1.39182
vn 0.445308 -0.67291 0.590672
v -0.618385 2.98222 1.39102
vn 0.457659 -0.743851 0.487067
v 0.288655 3.60283 1.39147
vn 0.181742 -0.261302 0.947993
v 0.260833 3.58532 1.39181
vn -0.042673 0.0646373 0.996996
v -0.146795 3.30506 1.39215
vn 0.175479 -0.254978 0.950891
v 0.266835 3.63474 1.38773
vn -0.276174 0.407998 0.87021
v -0.259138 3.27533 1.38851
vn -0.273448 0.401604 0.874037
v 0.240372 3.61524 1.38831
vn -0.069633 0.104081 0.992128
v -0.626047 3.02526 1.38638
vn -0.573289 0.816737 -0.0654276
v -0.640561 3.01465 1.38722
vn -0.570614 0.760055 0.310992
v -0.618613 3.03013 1.38796
vn -0.520858 0.740162 0.425286
v -0.648284 2.98735 1.36454
vn -0.825545 -0.564335 0.00102466
v -0.635174 2.97348 1.38967
vn -0.709783 -0.596698 0.374378
v -0.654674 3.002 1.38633
vn -0.861931 -0.370829 0.345776
v 0.310795 3.61653 1.38916
vn 0.569994 -0.811805 0.126804
v 0.325227 3.62726 1.38985
vn 0.527777 -0.695946 0.48694
v 0.303193 3.61191 1.3907
vn 0.466339 -0.658564 0.590611
v -0.600631 2.988 1.34336
vn 0.552986 -0.830616 0.0654428
v -0.572066 3.0073 1.34481
vn 0.561504 -0.822329 0.0921265
v -0.604132 2.98823 1.36684
vn 0.551852 -0.828377 0.0961826
v -0.64494 3.00446 1.33849
vn -0.144721 -0.00980492 -0.989424
v -0.639061 2.99068 1.33978
vn -0.0539784 -0.152418 -0.986841
v -0.652194 2.99829 1.34014
vn -0.823396 -0.428502 -0.372028
v -0.264476 3.2702 1.36242
vn -0.561799 0.821664 -0.096179
v -0.595335 3.04133 1.34083
vn -0.562219 0.820891 -0.100237
v -0.597698 3.04486 1.38485
vn -0.562655 0.821543 -0.0921167
v 0.311413 3.66397 1.38655
vn -0.0445065 0.286553 0.95703
v 0.303051 3.65969 1.38605
vn -0.500505 0.807975 0.310919
v 0.295956 3.65423 1.38731
vn -0.288397 0.47612 0.830744
v 0.313315 3.61276 1.34222
vn 0.573289 -0.816737 0.0654276
v 0.305881 3.60789 1.34064
vn 0.52086 -0.740164 -0.42528
v 0.327829 3.62337 1.34138
vn 0.570613 -0.760054 -0.310996
v -0.579567 3.00327 1.34087
vn 0.276644 -0.409114 -0.869536
v -0.553104 3.02277 1.34029
vn 0.0638027 -0.0955409 -0.993379
v -0.144007 3.30089 1.34021
vn 0.273457 -0.401617 -0.874028
v -0.601387 3.03519 1.33713
vn -0.18309 0.26266 -0.947358
v -0.25635 3.27115 1.33656
vn -0.175478 0.254976 -0.950892
v -0.573566 3.0527 1.33679
vn 0.0387496 -0.0589172 -0.997511
v 0.290419 3.64625 1.3383
vn -0.54969 0.825684 -0.126833
v 0.305653 3.6558 1.33758
vn -0.457657 0.743849 -0.487072
v 0.283353 3.64084 1.33678
vn -0.445308 0.67291 -0.590672
v 0.331256 3.65695 1.36333
vn 0.825545 0.564335 -0.00102479
v 0.341942 3.63602 1.34227
vn 0.853082 0.387114 -0.349848
v 0.322442 3.66454 1.33893
vn 0.697574 0.611213 -0.373911
v 0.282603 3.59669 1.38777
vn 0.562085 -0.820984 0.100226
v 0.314411 3.61613 1.3657
vn 0.571666 -0.814832 0.0961598
v -0.615783 2.97832 1.34255
vn 0.500504 -0.807976 -0.310918
v -0.593397 2.99316 1.34176
vn 0.499846 -0.754536 -0.425239
v -0.637959 3.01076 1.33875
vn -0.527775 0.695942 -0.486948
v -0.630158 3.01519 1.33761
vn -0.243458 0.301742 -0.921781
v 0.259334 3.63072 1.38379
vn -0.561592 0.822268 -0.0921364
v 0.261697 3.62719 1.33977
vn -0.561158 0.821619 -0.10022
v 0.322102 3.65352 1.38809
vn 0.0539786 0.152418 0.986841
v 0.319962 3.66825 1.38512
vn 0.659037 0.668888 0.343887
v -0.62679 2.978 1.3913
vn -0.0891297 -0.0910295 0.991852
v -0.611418 2.98788 1.39214
vn 0.194312 -0.335309 0.921852
v -0.582342 3.00743 1.39255
vn 0.179072 -0.263081 0.948009
v -0.555924 3.02699 1.39282
vn -0.0430497 0.0643806 0.996996
v -0.159931 3.32427 1.39033
vn -0.0534364 0.0799758 0.995363
v -0.576385 3.05692 1.38932
vn -0.0680891 0.100984 0.992555
v -0.604162 3.03934 1.38881
vn -0.28056 0.40854 0.868551
v -0.632888 3.01928 1.38847
vn -0.33752 0.442528 0.830812
v -0.647584 3.00841 1.38774
vn -0.249226 0.146606 0.957284
v -0.641719 2.99466 1.38929
vn -0.159948 0.00618339 0.987106
v 0.317426 3.62282 1.39099
vn 0.243466 -0.301755 0.921775
v -0.574429 3.01083 1.38883
vn 0.561069 -0.821678 0.100229
v -0.632694 2.96977 1.34348
vn -0.671003 -0.654738 -0.347956
v -0.627143 3.02188 1.3629
vn -0.571666 0.814832 -0.0961599
v 0.280665 3.64486 1.38684
vn -0.499846 0.754535 0.425243
v 0.334852 3.6296 1.34086
vn 0.224089 -0.106355 -0.968748
v 0.320156 3.61874 1.34013
vn 0.337514 -0.442517 -0.83082
v 0.29143 3.59868 1.33979
vn 0.279322 -0.407346 -0.86951
v 0.263653 3.5811 1.33928
vn 0.0641791 -0.0952838 -0.993379
v -0.157097 3.32003 1.33754
vn 0.0534359 -0.0799753 -0.995364
v 0.243192 3.61102 1.33578
vn 0.0371948 -0.0558034 -0.997749
v 0.26961 3.63059 1.33605
vn -0.178527 0.261855 -0.948451
v 0.298686 3.65014 1.33646
vn -0.194318 0.335316 -0.921848
v 0.314058 3.66002 1.3373
vn 0.0600011 0.13014 -0.989678
v 0.32476 3.64954 1.33859
vn 0.159948 -0.00618515 -0.987106
v 0.284966 3.59315 1.34375
vn 0.56252 -0.821635 0.0921267
v -0.608688 2.98379 1.34129
vn 0.288385 -0.476104 -0.830758
v -0.615926 3.0261 1.3379
vn -0.466334 0.658557 -0.590622
v 0.2914 3.64979 1.36176
vn -0.551852 0.828377 -0.0961824
v 0.339462 3.63973 1.38846
vn 0.814305 0.445151 0.372489
v 0.332208 3.63356 1.39011
vn 0.118861 0.0511445 0.991593
v -0.144673 3.30191 1.3663
vn 0.561799 -0.821664 0.0961769
v -0.624145 2.97404 1.34205
vn 0.0161084 -0.248537 -0.968489
v -0.623527 3.02148 1.33944
vn -0.569994 0.811805 -0.126805
v 0.287899 3.65002 1.38524
vn -0.552986 0.830616 -0.0654423
f 1//1 2//2 3//3
f 1//1 3//3 4//4
f 1//1 4//4 5//5
f 1//1 5//5 6//6
f 1//1 6//6 2//2
f 7//7 8//8 9//9
f 10//10 11//11 12//12
f 13//13 14//14 15//15
f 16//16 17//17 18//18
f 19//19 20//20 21//21
f 22//22 23//23 24//24
f 22//22 24//24 25//25
f 22//22 25//25 26//26
f 22//22 26//26 27//27
f 22//22 27//27 23//23
f 28//28 29//29 30//30
f 31//31 32//32 33//33
f 34//34 35//35 36//36
f 37//37 38//38 39//39
f 40//40 41//41 42//42
f 13//13 43//43 44//44
f 10//10 45//45 46//46
f 7//7 47//47 48//48
f 19//19 49//49 50//50
f 16//16 51//51 52//52
f 10//10 53//53 45//45
f 13//13 54//54 43//43
f 16//16 55//55 51//51
f 19//19 56//56 49//49
f 7//7 57//57 47//47
f 40//40 58//58 59//59
f 28//28 60//60 61//61
f 31//31 62//62 63//63
f 34//34 64//64 65//65
f 37//37 66//66 67//67
f 40//40 68//68 58//58
f 28//28 69//69 60//60
f 31//31 70//70 62//62
f 34//34 71//71 64//64
f 37//37 72//72 66//66
f 10//10 46//46 11//11
f 7//7 48//48 8//8
f 19//19 50//50 20//20
f 16//16 52//52 17//17
f 13//13 44//44 14//14
f 40//40 42//42 68//68
f 28//28 30//30 69//69
f 31//31 33//33 70//70
f 34//34 36//36 71//71
f 37//37 39//39 72//72
f 28//28 61//61 29//29
f 31//31 63//63 32//32
f 34//34 65//65 35//35
f 37//37 67//67 38//38
f 40//40 59//59 41//41
f 10//10 12//12 53//53
f 13//13 15//15 54//54
f 16//16 18//18 55//55
f 19//19 21//21 56//56
f 7//7 9//9 57//57
f 73//73 74//74 75//75
f 76//76 77//77 78//78
f 79//79 80//80 81//81
f 82//82 83//83 84//84
f 85//85 86//86 87//87
f 88//88 89//89 90//90
f 91//91 92//92 93//93
f 94//94 95//95 96//96
f 97//97 98//98 99//99
f 100//100 101//101 102//102
f 103//103 104//104 105//105
f 106//106 107//107 108//108
f 109//109 110//110 111//111
f 112//112 113//113 114//114
f 115//115 116//116 117//117
f 88//88 118//118 119//119
f 91//91 120//120 121//121
f 94//94 122//122 123//123
f 97//97 124//124 125//125
f 100//100 126//126 127//127
f 128//128 129//129 2//2
f 130//130 131//131 3//3
f 132//132 133//133 4//4
f 134//134 135//135 5//5
f 136//136 137//137 6//6
f 76//76 138//138 8//8
f 73//73 139//139 11//11
f 85//85 140//140 14//14
f 82//82 141//141 17//17
f 79//79 142//142 20//20
f 143//143 144//144 23//23
f 145//145 146//146 24//24
f 147//147 148//148 25//25
f 149//149 150//150 26//26
f 151//151 152//152 27//27
f 103//103 153//153 29//29
f 106//106 154//154 32//32
f 109//109 155//155 35//35
f 112//112 156//156 38//38
f 115//115 157//157 41//41
f 73//73 75//75 43//43
f 76//76 78//78 45//45
f 79//79 81//81 47//47
f 82//82 84//84 49//49
f 85//85 87//87 51//51
f 88//88 90//90 53//53
f 91//91 93//93 54//54
f 94//94 96//96 55//55
f 97//97 99//99 56//56
f 100//100 102//102 57//57
f 103//103 105//105 58//58
f 106//106 108//108 60//60
f 109//109 111//111 62//62
f 112//112 114//114 64//64
f 115//115 117//117 66//66
f 88//88 119//119 68//68
f 91//91 121//121 69//69
f 94//94 123//123 70//70
f 97//97 125//125 71//71
f 100//100 127//127 72//72
f 130//130 74//74 46//46
f 132//132 77//77 48//48
f 134//134 80//80 50//50
f 136//136 83//83 52//52
f 128//128 86//86 44//44
f 158//158 89//89 42//42
f 159//159 92//92 30//30
f 160//160 95//95 33//33
f 161//161 98//98 36//36
f 162//162 101//101 39//39
f 145//145 104//104 61//61
f 147//147 107//107 63//63
f 149//149 110//110 65//65
f 151//151 113//113 67//67
f 143//143 116//116 59//59
f 159//159 118//118 12//12
f 160//160 120//120 15//15
f 161//161 122//122 18//18
f 162//162 124//124 21//21
f 158//158 126//126 9//9
f 130//130 129//129 74//74
f 132//132 131//131 77//77
f 134//134 133//133 80//80
f 136//136 135//135 83//83
f 128//128 137//137 86//86
f 158//158 138//138 89//89
f 159//159 139//139 92//92
f 160//160 140//140 95//95
f 161//161 141//141 98//98
f 162//162 142//142 101//101
f 145//145 144//144 104//104
f 147//147 146//146 107//107
f 149//149 148//148 110//110
f 151//151 150//150 113//113
f 143//143 152//152 116//116
f 159//159 153//153 118//118
f 160//160 154//154 120//120
f 161//161 155//155 122//122
f 162//162 156//156 124//124
f 158//158 157//157 126//126
f 130//130 3//3 129//129
f 132//132 4//4 131//131
f 134//134 5//5 133//133
f 136//136 6//6 135//135
f 128//128 2//2 137//137
f 158//158 9//9 138//138
f 159//159 12//12 139//139
f 160//160 15//15 140//140
f 161//161 18//18 141//141
f 162//162 21//21 142//142
f 145//145 24//24 144//144
f 147//147 25//25 146//146
f 149//149 26//26 148//148
f 151//151 27//27 150//150
f 143//143 23//23 152//152
f 159//159 30//30 153//153
f 160//160 33//33 154//154
f 161//161 36//36 155//155
f 162//162 39//39 156//156
f 158//158 42//42 157//157
f 128//128 44//44 75//75
f 130//130 46//46 78//78
f 132//132 48//48 81//81
f 134//134 50//50 84//84
f 136//136 52//52 87//87
f 76//76 45//45 90//90
f 73//73 43//43 93//93
f 85//85 51//51 96//96
f 82//82 49//49 99//99
f 79//79 47//47 102//102
f 143//143 59//59 105//105
f 145//145 61//61 108//108
f 147//147 63//63 111//111
f 149//149 65//65 114//114
f 151//151 67//67 117//117
f 103//103 58//58 119//119
f 106//106 60//60 121//121
f 109//109 62//62 123//123
f 112//112 64//64 125//125
f 115//115 66//66 127//127
f 73//73 11//11 74//74
f 76//76 8//8 77//77
f 79//79 20//20 80//80
f 82//82 17//17 83//83
f 85//85 14//14 86//86
f 88//88 68//68 89//89
f 91//91 69//69 92//92
f 94//94 70//70 95//95
f 97//97 71//71 98//98
f 100//100 72//72 101//101
f 103//103 29//29 104//104
f 106//106 32//32 107//107
f 109//109 35//35 110//110
f 112//112 38//38 113//113
f 115//115 41//41 116//116
f 88//88 53//53 118//118
f 91//91 54//54 120//120
f 94//94 55//55 122//122
f 97//97 56//56 124//124
f 100//100 57//57 126//126
f 128//128 75//75 129//129
f 130//130 78//78 131//131
f 132//132 81//81 133//133
f 134//134 84//84 135//135
f 136//136 87//87 137//137
f 76//76 90//90 138//138
f 73//73 93//93 139//139
f 85//85 96//96 140//140
f 82//82 99//99 141//141
f 79//79 102//102 142//142
f 143//143 105//105 144//144
f 145//145 108//108 146//146
f 147//147 111//111 148//148
f 149//149 114//114 150//150
f 151//151 117//117 152//152
f 103//103 119//119 153//153
f 106//106 121//121 154//154
f 109//109 123//123 155//155
f 112//112 125//125 156//156
f 115//115 127//127 157//157
f 129//129 3//3 2//2
f 131//131 4//4 3//3
f 133//133 5//5 4//4
f 135//135 6//6 5//5
f 137//137 2//2 6//6
f 138//138 9//9 8//8
f 139//139 12//12 11//11
f 140//140 15//15 14//14
f 141//141 18//18 17//17
f 142//142 21//21 20//20
f 144//144 24//24 23//23
f 146//146 25//25 24//24
f 148//148 26//26 25//25
f 150//150 27//27 26//26
f 152//152 23//23 27//27
f 153//153 30//30 29//29
f 154//154 33//33 32//32
f 155//155 36//36 35//35
f 156//156 39//39 38//38
f 157//157 42//42 41//41
f 75//75 44//44 43//43
f 78//78 46//46 45//45
f 81//81 48//48 47//47
f 84//84 50//50 49//49
f 87//87 52//52 51//51
f 90//90 45//45 53//53
f 93//93 43//43 54//54
f 96//96 51//51 55//55
f 99//99 49//49 56//56
f 102//102 47//47 57//57
f 105//105 59//59 58//58
f 108//108 61//61 60//60
f 111//111 63//63 62//62
f 114//114 65//65 64//64
f 117//117 67//67 66//66
f 119//119 58//58 68//68
f 121//121 60//60 69//69
f 123//123 62//62 70//70
f 125//125 64//64 71//71
f 127//127 66//66 72//72
f 74//74 11//11 46//46
f 77//77 8//8 48//48
f 80//80 20//20 50//50
f 83//83 17//17 52//52
f 86//86 14//14 44//44
f 89//89 68//68 42//42
f 92//92 69//69 30//30
f 95//95 70//70 33//33
f 98//98 71//71 36//36
f 101//101 72//72 39//39
f 104//104 29//29 61//61
f 107//107 32//32 63//63
f 110//110 35//35 65//65
f 113//113 38//38 67//67
f 116//116 41//41 59//59
f 118//118 53//53 12//12
f 120//120 54//54 15//15
f 122//122 55//55 18//18
f 124//124 56//56 21//21
f 126//126 57//57 9//9
f 129//129 75//75 74//74
f 131//131 78//78 77//77
f 133//133 81//81 80//80
f 135//135 84//84 83//83
f 137//137 87//87 86//86
f 138//138 90//90 89//89
f 139//139 93//93 92//92
f 140//140 96//96 95//95
f 141//141 99//99 98//98
f 142//142 102//102 101//101
f 144//144 105//105 104//104
f 146//146 108//108 107//107
f 148//148 111//111 110//110
f 150//150 114//114 113//113
f 152//152 117//117 116//116
f 153//153 119//119 118//118
f 154//154 121//121 120//120
f 155//155 123//123 122//122
f 156//156 125//125 124//124
f 157//157 127//127 126//126
