# Created by Open3D 
# object name: part_071
# number of vertices: 162
# number of triangles: 320
v -0.632157 2.75567 0.727535
vn 0.350834 -0.243089 -0.904336
v -0.61698 2.7452 0.737103
vn 0.54821 -0.0992524 -0.83043
v -0.622669 2.73888 0.736306
vn 0.329143 -0.344534 -0.879182
v -0.640593 2.74833 0.727374
vn 0.211 -0.360579 -0.908549
v -0.642888 2.76346 0.721853
vn 0.231311 -0.225248 -0.946445
v -0.63625 2.76862 0.72333
vn 0.495543 -0.0305665 -0.868046
v -0.90987 2.54207 0.752729
vn 0.0434265 -0.479536 -0.876447
v -0.8951 2.52934 0.761021
vn 0.14925 -0.482902 -0.862862
v -0.902505 2.52558 0.763006
vn -0.135864 -0.625418 -0.76837
v -0.75852 2.63423 0.753675
vn 0.592956 -0.731107 0.33747
v -0.629432 2.73437 0.743482
vn 0.588799 -0.718885 0.369486
v -0.759512 2.63613 0.758893
vn 0.579458 -0.705167 0.408616
v -0.631236 2.77973 0.820857
vn 0.766193 -0.518261 0.379938
v -0.630121 2.78195 0.820202
vn 0.888388 0.458975 0.0104393
v -0.647907 2.81069 0.895979
vn 0.85706 -0.371789 0.356681
v -0.652932 2.8061 0.80535
vn -0.349751 0.838563 -0.417715
v -0.640122 2.77523 0.733633
vn -0.486174 0.765746 -0.421032
v -0.671893 2.83346 0.877133
vn -0.48715 0.767522 -0.416646
v -0.752602 2.68397 0.734801
vn -0.55994 0.670595 -0.486589
v -0.903896 2.56586 0.746475
vn -0.528833 0.61707 -0.582718
v -0.911053 2.56301 0.750669
vn -0.569413 0.684009 -0.455961
v -0.947404 2.61086 0.922261
vn -0.350835 0.243088 0.904336
v -0.939325 2.59307 0.929314
vn -0.497811 0.0379779 0.866454
v -0.932687 2.59823 0.93079
vn -0.249101 0.247218 0.936393
v -0.938714 2.6179 0.922602
vn -0.211 0.360579 0.908549
v -0.952907 2.62281 0.916338
vn -0.345938 0.36461 0.864515
v -0.958595 2.6165 0.915541
vn -0.554248 0.101944 0.826085
v -0.79429 2.69979 0.91524
vn 0.55994 -0.670595 0.486589
v -0.923346 2.59961 0.925456
vn 0.566686 -0.685965 0.456419
v -0.793017 2.69754 0.910224
vn 0.577333 -0.701272 0.418215
v -0.66969 2.82447 0.897066
vn -0.0434261 0.479536 0.876447
v -0.660255 2.80777 0.906075
vn -0.0692074 0.385588 0.920072
v -0.6538 2.81268 0.903411
vn 0.186264 0.564144 0.804393
v -0.788372 2.74953 0.896367
vn -0.592956 0.731108 -0.337468
v -0.694011 2.82299 0.890207
vn -0.605765 0.763041 -0.225426
v -0.687319 2.8264 0.885681
vn -0.585549 0.721556 -0.369446
v -0.944339 2.58196 0.831787
vn -0.766193 0.518262 -0.379938
v -0.957758 2.61358 0.903068
vn -0.663423 0.631938 -0.400653
v -0.925988 2.55535 0.759567
vn -0.662447 0.630164 -0.40504
v -0.922644 2.55559 0.847294
vn 0.349751 -0.838563 0.417715
v -0.925133 2.55504 0.846966
vn -0.66235 -0.733794 0.151124
v -0.906386 2.52513 0.771877
vn 0.189418 -0.900553 0.391311
v -0.617817 2.74811 0.749576
vn 0.663423 -0.631938 0.400653
v -0.61457 2.74958 0.745403
vn 0.862916 -0.382535 0.330216
v -0.881564 2.53871 0.762437
vn 0.60572 -0.762631 0.226928
v -0.634903 2.72843 0.740059
vn 0.607538 -0.761232 0.226766
v -0.91532 2.55392 0.746569
vn 0.0513902 -0.363636 -0.930122
v -0.900716 2.54825 0.750973
vn 0.190898 -0.376042 -0.906725
v -0.652229 2.76209 0.727188
vn -0.566214 0.686117 -0.456777
v -0.657235 2.75558 0.724097
vn -0.526109 0.617043 -0.585207
v -0.650442 2.80665 0.805678
vn 0.600821 0.778209 -0.18277
v -0.635852 2.77546 0.730191
vn -0.183548 0.889815 -0.417779
v -0.888256 2.53529 0.766963
vn 0.585874 -0.721135 0.369751
v -0.649587 2.80634 0.893077
vn 0.662447 -0.630164 0.40504
v -0.66919 2.83656 0.880767
vn -0.189418 0.900553 -0.391311
v -0.75352 2.68649 0.739785
vn -0.577333 0.701272 -0.418215
v -0.921775 2.54901 0.749233
vn -0.193001 -0.56017 -0.80558
v -0.935453 2.58646 0.919011
vn 0.486174 -0.765746 0.421032
v -0.939723 2.58623 0.922453
vn 0.183548 -0.889815 0.417779
v -0.671679 2.79583 0.906169
vn 0.528498 -0.616364 0.583769
v -0.91834 2.60611 0.928547
vn 0.526676 -0.617755 0.583944
v -0.680475 2.83235 0.891623
vn -0.166016 0.502999 0.848192
v -0.678592 2.81798 0.899003
vn -0.190898 0.376043 0.906725
v -0.946143 2.62732 0.909162
vn -0.588504 0.719 -0.369732
v -0.940672 2.63326 0.912585
vn -0.607358 0.760995 -0.228039
v -0.945454 2.57974 0.832441
vn -0.919295 -0.391003 -0.0448645
v -0.961005 2.61211 0.907241
vn -0.862916 0.382535 -0.330216
v -0.903682 2.52823 0.775511
vn 0.487151 -0.767522 0.416646
v -0.664522 2.79868 0.901975
vn 0.569611 -0.683716 0.456152
v -0.67307 2.83611 0.889638
vn 0.134296 0.631547 0.763619
v -0.787025 2.7479 0.891117
vn -0.579458 0.705167 -0.408616
v -0.927668 2.55101 0.756665
vn -0.85706 0.371789 -0.356681
v -0.621339 2.74226 0.745281
vn 0.609235 -0.683 0.402918
v -0.622612 2.73871 0.740264
vn 0.637372 -0.724653 0.261982
v -0.61666 2.74513 0.742132
vn 0.70193 -0.64979 0.291663
v -0.889992 2.53222 0.761641
vn 0.591152 -0.798692 -0.112384
v -0.88216 2.53879 0.759041
vn 0.238856 -0.418152 -0.876411
v -0.758173 2.63326 0.74931
vn 0.597867 -0.791932 -0.124088
v -0.911579 2.55847 0.746211
vn -0.398397 0.40664 -0.822146
v -0.752532 2.68066 0.731323
vn -0.387068 0.405564 -0.828068
v -0.902402 2.5634 0.744572
vn 0.135086 -0.291687 -0.946927
v -0.64399 2.7698 0.729091
vn -0.546731 0.722419 -0.423315
v -0.638599 2.77181 0.726451
vn -0.435811 0.733508 -0.52157
v -0.6449 2.76581 0.724334
vn -0.503894 0.662904 -0.553758
v -0.641833 2.79733 0.811369
vn 0.790609 0.608106 -0.0717249
v -0.614116 2.75186 0.744476
vn 0.822493 0.562494 -0.0842955
v -0.633408 2.77531 0.730687
vn 0.765872 0.630845 -0.124394
v -0.897666 2.52972 0.770349
vn 0.550054 -0.728519 0.408289
v -0.901956 2.5257 0.768015
vn 0.482314 -0.81871 0.311587
v -0.894504 2.52958 0.764931
vn 0.567081 -0.778717 0.268363
v -0.655258 2.80443 0.898485
vn 0.605904 -0.676905 0.417947
v -0.662621 2.79565 0.894627
vn 0.579663 -0.701687 0.414278
v -0.637547 2.77381 0.82186
vn 0.606885 -0.680558 0.410527
v -0.670896 2.83748 0.886197
vn 0.302673 0.90813 0.289289
v -0.662061 2.82824 0.892393
vn 0.542811 0.710102 0.448454
v -0.666783 2.83649 0.881435
vn 0.752022 0.656231 -0.0618316
v -0.770204 2.71733 0.815409
vn -0.578404 0.70323 -0.413421
v -0.685642 2.82364 0.878173
vn -0.576748 0.705072 -0.412595
v -0.653835 2.76534 0.734509
vn -0.576308 0.704265 -0.414585
v -0.925252 2.54923 0.751743
vn -0.700569 -0.424364 -0.573688
v -0.923895 2.55237 0.752333
vn -0.655437 0.564585 -0.501644
v -0.92045 2.55208 0.748482
vn -0.554941 0.355283 -0.752206
v -0.931585 2.59189 0.923553
vn 0.546731 -0.722419 0.423315
v -0.930675 2.59588 0.92831
vn 0.503894 -0.662904 0.553758
v -0.936976 2.58988 0.926193
vn 0.435811 -0.733508 0.52157
v -0.663997 2.80322 0.906433
vn 0.400378 -0.40682 0.821094
v -0.673173 2.79829 0.908072
vn -0.158013 0.319862 0.934195
v -0.795707 2.70205 0.918841
vn 0.387068 -0.405565 0.828067
v -0.685583 2.82947 0.891003
vn -0.589703 0.800108 0.1099
v -0.790066 2.74946 0.900854
vn -0.597867 0.791932 0.124089
v -0.693415 2.8229 0.893603
vn -0.253182 0.435481 0.863861
v -0.954236 2.61943 0.907363
vn -0.609235 0.683 -0.402918
v -0.958915 2.61656 0.910512
vn -0.70193 0.64979 -0.291663
v -0.952963 2.62298 0.912379
vn -0.637372 0.724653 -0.261982
v -0.937991 2.56953 0.838237
vn -0.790609 -0.608106 0.0717249
v -0.942167 2.58638 0.921957
vn -0.770064 -0.626237 0.12177
v -0.961459 2.60983 0.908168
vn -0.82611 -0.557607 0.0813384
v -0.889933 2.53805 0.774471
vn 0.577142 -0.704769 0.412563
v -0.915263 2.5602 0.847055
vn 0.549158 -0.72496 0.415764
v -0.651681 2.80932 0.90031
vn 0.655437 -0.564584 0.501644
v -0.658784 2.80501 0.903643
vn 0.574186 -0.608849 0.547369
v -0.673619 2.836 0.884629
vn -0.482314 0.81871 -0.311587
v -0.676366 2.83544 0.888981
vn -0.465139 0.884937 0.0230819
v -0.912954 2.56604 0.758017
vn -0.579407 0.701885 -0.4143
v -0.94476 2.62434 0.90168
vn -0.579845 0.702689 -0.41232
v -0.917696 2.53854 0.757263
vn -0.542811 -0.710102 -0.448454
v -0.928084 2.54866 0.757421
vn -0.81226 -0.582994 0.0187762
v -0.614732 2.74723 0.740143
vn 0.885152 0.106644 -0.452916
v -0.618379 2.74226 0.738186
vn 0.731946 -0.679721 -0.0472716
v -0.626651 2.73477 0.73775
vn 0.60737 -0.786213 -0.113888
v -0.635218 2.72873 0.736638
vn 0.242933 -0.415016 -0.876781
v -0.770839 2.64847 0.738655
vn 0.200965 -0.368341 -0.90771
v -0.65546 2.75334 0.72217
vn 0.146908 -0.297827 -0.943248
v -0.648238 2.76102 0.722321
vn -0.383519 0.4222 -0.821377
v -0.639619 2.76808 0.723004
vn -0.288137 0.560511 -0.776405
v -0.635304 2.77224 0.725438
vn 0.518211 0.513083 -0.684254
v -0.62629 2.76268 0.730826
vn 0.767706 0.297898 -0.567348
v -0.899209 2.52626 0.763663
vn 0.465139 -0.884937 -0.0230835
v -0.630815 2.73735 0.750964
vn 0.580102 -0.702492 0.412294
v -0.647492 2.81303 0.895223
vn 0.808579 0.587996 -0.0214473
v -0.660312 2.80149 0.805589
vn -0.549158 0.72496 -0.415764
v -0.916791 2.55668 0.749001
vn -0.574186 0.608849 -0.547369
v -0.940271 2.58945 0.927206
vn -0.596255 -0.457894 0.659404
v -0.935956 2.59361 0.92964
vn 0.288137 -0.560511 0.776405
v -0.927338 2.60067 0.930323
vn 0.384154 -0.419293 0.822569
v -0.920115 2.60835 0.930474
vn -0.16209 0.316725 0.934565
v -0.808985 2.71839 0.910951
vn -0.200965 0.368341 0.90771
v -0.940357 2.63296 0.916006
vn -0.264482 0.440665 0.857825
v -0.948925 2.62692 0.914894
vn -0.60596 0.787079 0.115411
v -0.957197 2.61943 0.914458
vn -0.731946 0.679721 0.0472716
v -0.960843 2.61446 0.912501
vn -0.916108 -0.0293096 0.399858
v -0.953466 2.6041 0.918829
vn -0.767706 -0.297898 0.567348
v -0.92174 2.59635 0.918134
vn 0.576703 -0.703964 0.414546
v -0.655125 2.80961 0.904162
vn 0.554941 -0.355283 0.752206
v -0.681071 2.83211 0.887713
vn -0.567081 0.778717 -0.268363
v -0.938028 2.58788 0.830784
vn -0.606885 0.680558 -0.410527
v -0.908792 2.52521 0.771209
vn -0.756151 -0.65174 0.0589209
v -0.904679 2.52421 0.766447
vn -0.375308 -0.862854 -0.338565
v -0.776219 2.66678 0.83459
vn 0.578404 -0.70323 0.413421
v -0.650323 2.81246 0.900901
vn 0.664207 0.51161 0.545055
v -0.677909 2.83197 0.882295
vn -0.550054 0.728519 -0.408289
v -0.920317 2.55726 0.754159
vn -0.605904 0.676905 -0.417947
f 1//1 2//2 3//3
f 1//1 3//3 4//4
f 1//1 4//4 5//5
f 1//1 5//5 6//6
f 1//1 6//6 2//2
f 7//7 8//8 9//9
f 10//10 11//11 12//12
f 13//13 14//14 15//15
f 16//16 17//17 18//18
f 19//19 20//20 21//21
f 22//22 23//23 24//24
f 22//22 24//24 25//25
f 22//22 25//25 26//26
f 22//22 26//26 27//27
f 22//22 27//27 23//23
f 28//28 29//29 30//30
f 31//31 32//32 33//33
f 34//34 35//35 36//36
f 37//37 38//38 39//39
f 40//40 41//41 42//42
f 13//13 43//43 44//44
f 10//10 45//45 46//46
f 7//7 47//47 48//48
f 19//19 49//49 50//50
f 16//16 51//51 52//52
f 10//10 53//53 45//45
f 13//13 54//54 43//43
f 16//16 55//55 51//51
f 19//19 56//56 49//49
f 7//7 57//57 47//47
f 40//40 58//58 59//59
f 28//28 60//60 61//61
f 31//31 62//62 63//63
f 34//34 64//64 65//65
f 37//37 66//66 67//67
f 40//40 68//68 58//58
f 28//28 69//69 60//60
f 31//31 70//70 62//62
f 34//34 71//71 64//64
f 37//37 72//72 66//66
f 10//10 46//46 11//11
f 7//7 48//48 8//8
f 19//19 50//50 20//20
f 16//16 52//52 17//17
f 13//13 44//44 14//14
f 40//40 42//42 68//68
f 28//28 30//30 69//69
f 31//31 33//33 70//70
f 34//34 36//36 71//71
f 37//37 39//39 72//72
f 28//28 61//61 29//29
f 31//31 63//63 32//32
f 34//34 65//65 35//35
f 37//37 67//67 38//38
f 40//40 59//59 41//41
f 10//10 12//12 53//53
f 13//13 15//15 54//54
f 16//16 18//18 55//55
f 19//19 21//21 56//56
f 7//7 9//9 57//57
f 73//73 74//74 75//75
f 76//76 77//77 78//78
f 79//79 80//80 81//81
f 82//82 83//83 84//84
f 85//85 86//86 87//87
f 88//88 89//89 90//90
f 91//91 92//92 93//93
f 94//94 95//95 96//96
f 97//97 98//98 99//99
f 100//100 101//101 102//102
f 103//103 104//104 105//105
f 106//106 107//107 108//108
f 109//109 110//110 111//111
f 112//112 113//113 114//114
f 115//115 116//116 117//117
f 88//88 118//118 119//119
f 91//91 120//120 121//121
f 94//94 122//122 123//123
f 97//97 124//124 125//125
f 100//100 126//126 127//127
f 128//128 129//129 2//2
f 130//130 131//131 3//3
f 132//132 133//133 4//4
f 134//134 135//135 5//5
f 136//136 137//137 6//6
f 76//76 138//138 8//8
f 73//73 139//139 11//11
f 85//85 140//140 14//14
f 82//82 141//141 17//17
f 79//79 142//142 20//20
f 143//143 144//144 23//23
f 145//145 146//146 24//24
f 147//147 148//148 25//25
f 149//149 150//150 26//26
f 151//151 152//152 27//27
f 103//103 153//153 29//29
f 106//106 154//154 32//32
f 109//109 155//155 35//35
f 112//112 156//156 38//38
f 115//115 157//157 41//41
f 73//73 75//75 43//43
f 76//76 78//78 45//45
f 79//79 81//81 47//47
f 82//82 84//84 49//49
f 85//85 87//87 51//51
f 88//88 90//90 53//53
f 91//91 93//93 54//54
f 94//94 96//96 55//55
f 97//97 99//99 56//56
f 100//100 102//102 57//57
f 103//103 105//105 58//58
f 106//106 108//108 60//60
f 109//109 111//111 62//62
f 112//112 114//114 64//64
f 115//115 117//117 66//66
f 88//88 119//119 68//68
f 91//91 121//121 69//69
f 94//94 123//123 70//70
f 97//97 125//125 71//71
f 100//100 127//127 72//72
f 130//130 74//74 46//46
f 132//132 77//77 48//48
f 134//134 80//80 50//50
f 136//136 83//83 52//52
f 128//128 86//86 44//44
f 158//158 89//89 42//42
f 159//159 92//92 30//30
f 160//160 95//95 33//33
f 161//161 98//98 36//36
f 162//162 101//101 39//39
f 145//145 104//104 61//61
f 147//147 107//107 63//63
f 149//149 110//110 65//65
f 151//151 113//113 67//67
f 143//143 116//116 59//59
f 159//159 118//118 12//12
f 160//160 120//120 15//15
f 161//161 122//122 18//18
f 162//162 124//124 21//21
f 158//158 126//126 9//9
f 130//130 129//129 74//74
f 132//132 131//131 77//77
f 134//134 133//133 80//80
f 136//136 135//135 83//83
f 128//128 137//137 86//86
f 158//158 138//138 89//89
f 159//159 139//139 92//92
f 160//160 140//140 95//95
f 161//161 141//141 98//98
f 162//162 142//142 101//101
f 145//145 144//144 104//104
f 147//147 146//146 107//107
f 149//149 148//148 110//110
f 151//151 150//150 113//113
f 143//143 152//152 116//116
f 159//159 153//153 118//118
f 160//160 154//154 120//120
f 161//161 155//155 122//122
f 162//162 156//156 124//124
f 158//158 157//157 126//126
f 130//130 3//3 129//129
f 132//132 4//4 131//131
f 134//134 5//5 133//133
f 136//136 6//6 135//135
f 128//128 2//2 137//137
f 158//158 9//9 138//138
f 159//159 12//12 139//139
f 160//160 15//15 140//140
f 161//161 18//18 141//141
f 162//162 21//21 142//142
f 145//145 24//24 144//144
f 147//147 25//25 146//146
f 149//149 26//26 148//148
f 151//151 27//27 150//150
f 143//143 23//23 152//152
f 159//159 30//30 153//153
f 160//160 33//33 154//154
f 161//161 36//36 155//155
f 162//162 39//39 156//156
f 158//158 42//42 157//157
f 128//128 44//44 75//75
f 130//130 46//46 78//78
f 132//132 48//48 81//81
f 134//134 50//50 84//84
f 136//136 52//52 87//87
f 76//76 45//45 90//90
f 73//73 43//43 93//93
f 85//85 51//51 96//96
f 82//82 49//49 99//99
f 79//79 47//47 102//102
f 143//143 59//59 105//105
f 145//145 61//61 108//108
f 147//147 63//63 111//111
f 149//149 65//65 114//114
f 151//151 67//67 117//117
f 103//103 58//58 119//119
f 106//106 60//60 121//121
f 109//109 62//62 123//123
f 112//112 64//64 125//125
f 115//115 66//66 127//127
f 73//73 11//11 74//74
f 76//76 8//8 77//77
f 79//79 20//20 80//80
f 82//82 17//17 83//83
f 85//85 14//14 86//86
f 88//88 68//68 89//89
f 91//91 69//69 92//92
f 94//94 70//70 95//95
f 97//97 71//71 98//98
f 100//100 72//72 101//101
f 103//103 29//29 104//104
f 106//106 32//32 107//107
f 109//109 35//35 110//110
f 112//112 38//38 113//113
f 115//115 41//41 116//116
f 88//88 53//53 118//118
f 91//91 54//54 120//120
f 94//94 55//55 122//122
f 97//97 56//56 124//124
f 100//100 57//57 126//126
f 128//128 75//75 129//129
f 130//130 78//78 131//131
f 132//132 81//81 133//133
f 134//134 84//84 135//135
f 136//136 87//87 137//137
f 76//76 90//90 138//138
f 73//73 93//93 139//139
f 85//85 96//96 140//140
f 82//82 99//99 141//141
f 79//79 102//102 142//142
f 143//143 105//105 144//144
f 145//145 108//108 146//146
f 147//147 111//111 148//148
f 149//149 114//114 150//150
f 151//151 117//117 152//152
f 103//103 119//119 153//153
f 106//106 121//121 154//154
f 109//109 123//123 155//155
f 112//112 125//125 156//156
f 115//115 127//127 157//157
f 129//129 3//3 2//2
f 131//131 4//4 3//3
f 133//133 5//5 4//4
f 135//135 6//6 5//5
f 137//137 2//2 6//6
f 138//138 9//9 8//8
f 139//139 12//12 11//11
f 140//140 15//15 14//14
f 141//141 18//18 17//17
f 142//142 21//21 20//20
f 144//144 24//24 23//23
f 146//146 25//25 24//24
f 148//148 26//26 25//25
f 150//150 27//27 26//26
f 152//152 23//23 27//27
f 153//153 30//30 29//29
f 154//154 33//33 32//32
f 155//155 36//36 35//35
f 156//156 39//39 38//38
f 157//157 42//42 41//41
f 75//75 44//44 43//43
f 78//78 46//46 45//45
f 81//81 48//48 47//47
f 84//84 50//50 49//49
f 87//87 52//52 51//51
f 90//90 45//45 53//53
f 93//93 43//43 54//54
f 96//96 51//51 55//55
f 99//99 49//49 56//56
f 102//102 47//47 57//57
f 105//105 59//59 58//58
f 108//108 61//61 60//60
f 111//111 63//63 62//62
f 114//114 65//65 64//64
f 117//117 67//67 66//66
f 119//119 58//58 68//68
f 121//121 60//60 69//69
f 123//123 62//62 70//70
f 125//125 64//64 71//71
f 127//127 66//66 72//72
f 74//74 11//11 46//46
f 77//77 8//8 48//48
f 80//80 20//20 50//50
f 83//83 17//17 52//52
f 86//86 14//14 44//44
f 89//89 68//68 42//42
f 92//92 69//69 30//30
f 95//95 70//70 33//33
f 98//98 71//71 36//36
f 101//101 72//72 39//39
f 104//104 29//29 61//61
f 107//107 32//32 63//63
f 110//110 35//35 65//65
f 113//113 38//38 67//67
f 116//116 41//41 59//59
f 118//118 53//53 12//12
f 120//120 54//54 15//15
f 122//122 55//55 18//18
f 124//124 56//56 21//21
f 126//126 57//57 9//9
f 129//129 75//75 74//74
f 131//131 78//78 77//77
f 133//133 81//81 80//80
f 135//135 84//84 83//83
f 137//137 87//87 86//86
f 138//138 90//90 89//89
f 139//139 93//93 92//92
f 140//140 96//96 95//95
f 141//141 99//99 98//98
f 142//142 102//102 101//101
f 144//144 105//105 104//104
f 146//146 108//108 107//107
f 148//148 111//111 110//110
f 150//150 114//114 113//113
f 152//152 117//117 116//116
f 153//153 119//119 118//118
f 154//154 121//121 120//120
f 155//155 123//123 122//122
f 156//156 125//125 124//124
f 157//157 127//127 126//126
