# Created by Open3D 
# object name: part_011
# number of vertices: 162
# number of triangles: 320
v -0.700379 2.18081 0.570609
vn -0.928967 -0.360629 0.0834713
v -0.696103 2.17622 0.590765
vn -0.850987 -0.510329 0.124036
v -0.700116 2.18609 0.591294
vn -0.94143 -0.308006 0.137267
v -0.704739 2.1943 0.57035
vn -0.964937 -0.250133 0.0795666
v -0.70247 2.18409 0.556473
vn -0.948947 -0.315428 0.00200355
v -0.698347 2.17431 0.55758
vn -0.854974 -0.516801 0.0439968
v -0.81023 2.61337 0.553228
vn -0.98998 -0.120375 0.0738185
v -0.807879 2.61043 0.574243
vn -0.976894 -0.168356 0.131657
v -0.809045 2.62095 0.572894
vn -0.993531 0.0509633 0.10148
v -0.750345 2.39926 0.584673
vn -0.031901 0.0320411 0.998977
v -0.697841 2.19802 0.592693
vn 0.0100384 0.0411954 0.999101
v -0.745958 2.40037 0.584557
vn 0.0609513 0.0555257 0.996595
v -0.623766 2.18956 0.587215
vn 0.11746 -0.147461 0.982069
v -0.623133 2.18669 0.586145
vn 0.254957 -0.924816 0.282333
v -0.559395 2.20534 0.581601
vn 0.166739 -0.278123 0.945963
v -0.626291 2.18742 0.549853
vn -0.0141954 -0.259164 -0.965729
v -0.688714 2.17634 0.554178
vn -0.0483687 -0.142762 -0.988575
v -0.566131 2.20707 0.54413
vn -0.0425287 -0.141298 -0.989053
v -0.741649 2.35234 0.547264
vn -0.165838 -0.0816068 -0.982771
v -0.803695 2.58865 0.538281
vn -0.29866 -0.113074 -0.947637
v -0.802874 2.59891 0.537234
vn -0.124743 -0.0702082 -0.989702
v -0.66541 2.64967 0.541357
vn 0.928966 0.36063 -0.0834713
v -0.666979 2.65656 0.561249
vn 0.855984 0.514567 -0.0501195
v -0.662855 2.64678 0.562356
vn 0.948937 0.314376 -0.0261984
v -0.661021 2.63621 0.542052
vn 0.964937 0.250133 -0.0795666
v -0.665209 2.64478 0.527535
vn 0.938186 0.3063 -0.161207
v -0.669222 2.65466 0.528065
vn 0.849145 0.511865 -0.130182
v -0.61233 2.43386 0.573361
vn 0.165842 0.0816076 0.98277
v -0.66483 2.6351 0.565396
vn 0.124375 0.0728511 0.989557
v -0.616685 2.43278 0.573961
vn 0.0737016 0.0587217 0.99555
v -0.555559 2.21711 0.558739
vn 0.98998 0.120376 -0.0738185
v -0.555093 2.22244 0.579407
vn 0.984402 0.174724 -0.0205884
v -0.554037 2.21183 0.57912
vn 0.998528 -0.0467236 -0.0275631
v -0.603634 2.38693 0.535951
vn 0.0318983 -0.0320418 -0.998977
v -0.564229 2.24002 0.542089
vn 0.17137 0.00292259 -0.985202
v -0.565104 2.22971 0.542336
vn -0.00878208 -0.0442728 -0.998981
v -0.741559 2.64131 0.531614
vn -0.117459 0.14746 -0.982069
v -0.679207 2.65233 0.526238
vn -0.0857638 0.0289505 -0.995895
v -0.80179 2.6216 0.536286
vn -0.091604 0.0274867 -0.995416
v -0.739034 2.64345 0.568976
vn 0.0141952 0.259165 0.965729
v -0.739827 2.64619 0.56768
vn -0.221891 0.952872 0.206879
v -0.803453 2.62763 0.57388
vn -0.0404875 0.38525 0.921924
v -0.686118 2.17854 0.592591
vn 0.085764 -0.0289515 0.995895
v -0.688023 2.1731 0.592144
vn 0.1303 -0.287262 0.948948
v -0.801096 2.59085 0.57674
vn -0.169553 -0.00253332 0.985518
v -0.703527 2.20666 0.592179
vn -0.169111 -0.0042658 0.985588
v -0.810232 2.60843 0.539422
vn -0.984449 -0.175631 -0.00361517
v -0.807632 2.59946 0.554069
vn -0.968881 -0.234601 0.0789443
v -0.700495 2.19577 0.553433
vn -0.124719 -0.0733337 -0.989478
v -0.706127 2.20445 0.55372
vn -0.301436 -0.115592 -0.946454
v -0.625498 2.18468 0.551149
vn 0.208077 -0.929595 -0.304231
v -0.6905 2.171 0.555493
vn 0.00404722 -0.394382 -0.918937
v -0.800221 2.60116 0.576493
vn 0.00931882 0.0440108 0.998988
v -0.563535 2.20927 0.582543
vn 0.0916042 -0.0274876 0.995416
v -0.561872 2.20324 0.544949
vn 0.0404876 -0.38525 -0.921924
v -0.737154 2.35287 0.546685
vn -0.0737025 -0.058722 -0.99555
v -0.811288 2.61904 0.539709
vn -0.998587 0.0487044 0.0212704
v -0.676611 2.65453 0.564651
vn 0.0483688 0.142761 0.988575
v -0.674825 2.65987 0.563337
vn -0.00404772 0.394384 0.918937
v -0.56163 2.24223 0.580548
vn 0.300159 0.113362 0.947129
v -0.659198 2.62642 0.56511
vn 0.299721 0.115096 0.947059
v -0.557446 2.22045 0.544586
vn 0.973689 0.166501 -0.155588
v -0.558127 2.23105 0.558332
vn 0.968881 0.234601 -0.0789443
v -0.667484 2.63285 0.526136
vn -0.010266 -0.0415131 -0.999085
v -0.661798 2.62422 0.52665
vn 0.167595 0.00379865 -0.985849
v -0.742192 2.64419 0.532684
vn -0.254147 0.890507 -0.377367
v -0.677302 2.65777 0.526685
vn -0.1303 0.287261 -0.948948
v -0.799194 2.6238 0.574699
vn 0.0425289 0.141297 0.989053
v -0.562451 2.23196 0.581595
vn 0.125092 0.0700351 0.98967
v -0.55628 2.20993 0.545935
vn 0.992762 -0.0536439 -0.107456
v -0.607881 2.38527 0.536089
vn -0.0609505 -0.0555255 -0.996595
v -0.80593 2.62553 0.537228
vn -0.166739 0.278123 -0.945963
v -0.692129 2.18495 0.59293
vn 0.0645525 0.026081 0.997573
v -0.697373 2.1873 0.592834
vn -0.113809 -0.0248609 0.993192
v -0.692521 2.1774 0.592771
vn -0.0463789 -0.0845676 0.995338
v -0.805537 2.60353 0.575667
vn -0.527781 -0.0923264 0.844348
v -0.803547 2.5904 0.575119
vn -0.96204 -0.237212 0.134942
v -0.75381 2.39836 0.584031
vn -0.53567 -0.102354 0.838201
v -0.80805 2.6014 0.538491
vn -0.636575 -0.185132 -0.748664
v -0.745522 2.35364 0.548379
vn -0.642448 -0.192955 -0.74164
v -0.805903 2.5884 0.540258
vn -0.969543 -0.244797 -0.00773569
v -0.694766 2.18271 0.553922
vn -0.0700381 -0.0881123 -0.993645
v -0.695075 2.17523 0.55499
vn -0.17881 -0.19693 -0.963974
v -0.699968 2.1851 0.554452
vn -0.245792 -0.136846 -0.959614
v -0.624336 2.18458 0.565024
vn 0.245955 -0.9685 0.038917
v -0.687646 2.17076 0.590525
vn 0.196057 -0.975434 0.100447
v -0.689892 2.16885 0.557303
vn 0.187859 -0.981933 -0.0227344
v -0.801432 2.61535 0.575635
vn 0.0500705 0.0831067 0.995282
v -0.805372 2.62177 0.574915
vn -0.100116 0.127016 0.986835
v -0.804922 2.61079 0.575817
vn -0.130902 0.0424253 0.990487
v -0.561257 2.21776 0.582203
vn 0.0845184 0.0310896 0.995937
v -0.568713 2.23015 0.582316
vn 0.0690072 0.0560288 0.996042
v -0.626411 2.20028 0.587708
vn 0.0743632 0.0292885 0.996801
v -0.557852 2.20582 0.545146
vn 0.799821 -0.460371 -0.385155
v -0.556264 2.20558 0.559277
vn 0.874489 -0.484032 -0.031349
v -0.561118 2.20113 0.546748
vn 0.293343 -0.955492 -0.0313836
v -0.672478 2.36889 0.541317
vn -0.0673279 -0.057125 -0.996094
v -0.571393 2.22788 0.542672
vn -0.0655482 -0.058599 -0.996127
v -0.694115 2.19712 0.552731
vn -0.0681907 -0.0592613 -0.995911
v -0.809868 2.62302 0.538255
vn -0.847779 0.419679 -0.324253
v -0.807926 2.6196 0.537133
vn -0.232545 0.0146521 -0.972475
v -0.810333 2.61533 0.538147
vn -0.594908 -0.0524706 -0.802079
v -0.670559 2.64816 0.564908
vn 0.0700382 0.088112 0.993645
v -0.665358 2.64578 0.564377
vn 0.245791 0.136846 0.959614
v -0.67025 2.65564 0.56384
vn 0.17881 0.19693 0.963974
v -0.557275 2.22947 0.580338
vn 0.635537 0.183753 0.749885
v -0.559422 2.24247 0.578571
vn 0.969593 0.243621 -0.0231984
v -0.60899 2.43466 0.572161
vn 0.642447 0.192955 0.741641
v -0.559788 2.22734 0.543162
vn 0.52609 0.0901842 -0.845634
v -0.600702 2.38994 0.536509
vn 0.535671 0.102354 -0.838201
v -0.561778 2.24047 0.543711
vn 0.959337 0.235629 -0.155404
v -0.673196 2.64592 0.525899
vn -0.0645526 -0.0260808 -0.997573
v -0.672804 2.65347 0.526058
vn 0.0463796 0.0845673 -0.995338
v -0.667952 2.64357 0.525995
vn 0.113808 0.0248612 -0.993192
v -0.741484 2.64587 0.546487
vn -0.245955 0.9685 -0.038917
v -0.675433 2.66202 0.561526
vn -0.18831 0.982007 0.0141703
v -0.677679 2.66011 0.528304
vn -0.196757 0.974382 -0.108928
v -0.793932 2.60299 0.576157
vn 0.0656488 0.0582209 0.996143
v -0.736264 2.63284 0.570326
vn 0.0602367 0.0849151 0.994566
v -0.557399 2.21127 0.581696
vn 0.232545 -0.014652 0.972475
v -0.557809 2.22228 0.581395
vn 0.262873 0.0695627 0.962319
v -0.559953 2.2091 0.543914
vn 0.100115 -0.127016 -0.986835
v -0.557465 2.21345 0.544103
vn 0.481521 -0.0437263 -0.875343
v -0.796612 2.60072 0.536513
vn -0.0689421 -0.0562756 -0.996032
v -0.673889 2.63148 0.526454
vn -0.0663126 -0.0556164 -0.996248
v -0.809548 2.62488 0.552351
vn -0.874489 0.484032 0.031349
v -0.806453 2.62784 0.538859
vn -0.302244 0.947941 -0.100281
v -0.692783 2.17343 0.591831
vn -0.511287 -0.789102 0.340446
v -0.696776 2.18001 0.592303
vn -0.419179 -0.20172 0.885211
v -0.70137 2.19335 0.592149
vn -0.524087 -0.10692 0.844927
v -0.705867 2.20577 0.590575
vn -0.961239 -0.240365 0.135068
v -0.756501 2.39678 0.561787
vn -0.96694 -0.242375 0.0792582
v -0.708223 2.20377 0.555714
vn -0.968836 -0.24769 0.00264477
v -0.703883 2.19122 0.554973
vn -0.629556 -0.199492 -0.750908
v -0.699248 2.17791 0.555724
vn -0.532565 -0.297918 -0.792225
v -0.695177 2.1714 0.556402
vn -0.539048 -0.795972 -0.275418
v -0.69428 2.17099 0.57059
vn -0.538682 -0.838262 0.0844865
v -0.80786 2.61742 0.574726
vn -0.481524 0.0437264 0.875342
v -0.691436 2.19939 0.592375
vn 0.0663731 0.0553684 0.996257
v -0.558872 2.20304 0.57997
vn 0.302046 -0.948867 0.0917585
v -0.629061 2.19803 0.548503
vn -0.0602367 -0.084915 -0.994566
v -0.807516 2.60859 0.537434
vn -0.262872 -0.0695624 -0.96232
v -0.670148 2.65947 0.562427
vn 0.546243 0.818764 0.176761
v -0.666077 2.65296 0.563105
vn 0.532563 0.297917 0.792226
v -0.661442 2.63965 0.563856
vn 0.631831 0.198344 0.749299
v -0.657102 2.62711 0.563115
vn 0.968792 0.246773 -0.0233242
v -0.609319 2.43367 0.549723
vn 0.96694 0.242375 -0.0792582
v -0.659458 2.62511 0.528255
vn 0.957006 0.238115 -0.165651
v -0.663955 2.63752 0.52668
vn 0.525824 0.106237 -0.843933
v -0.668549 2.65087 0.526526
vn 0.419177 0.20172 -0.885212
v -0.672542 2.65744 0.526998
vn 0.491103 0.755291 -0.433996
v -0.671531 2.65947 0.541038
vn 0.538682 0.838262 -0.0844864
v -0.67121 2.63375 0.566098
vn 0.0682828 0.0588811 0.995927
v -0.554992 2.21555 0.580682
vn 0.594908 0.052471 0.80208
v -0.560403 2.22008 0.543012
vn 0.130903 -0.0424253 -0.990487
v -0.738914 2.6306 0.531121
vn -0.0743632 -0.0292885 -0.996801
v -0.804207 2.62974 0.572082
vn -0.294299 0.95544 0.0228603
v -0.807474 2.62505 0.573683
vn -0.831884 0.473321 0.289718
v -0.681316 2.41658 0.579336
vn 0.067328 0.057125 0.996094
v -0.555457 2.20785 0.580575
vn 0.866848 -0.44365 0.227483
v -0.563893 2.21552 0.543194
vn -0.0500704 -0.0831063 -0.995282
v -0.804069 2.61312 0.536627
vn -0.0845182 -0.0310899 -0.995937
f 1//1 2//2 3//3
f 1//1 3//3 4//4
f 1//1 4//4 5//5
f 1//1 5//5 6//6
f 1//1 6//6 2//2
f 7//7 8//8 9//9
f 10//10 11//11 12//12
f 13//13 14//14 15//15
f 16//16 17//17 18//18
f 19//19 20//20 21//21
f 22//22 23//23 24//24
f 22//22 24//24 25//25
f 22//22 25//25 26//26
f 22//22 26//26 27//27
f 22//22 27//27 23//23
f 28//28 29//29 30//30
f 31//31 32//32 33//33
f 34//34 35//35 36//36
f 37//37 38//38 39//39
f 40//40 41//41 42//42
f 13//13 43//43 44//44
f 10//10 45//45 46//46
f 7//7 47//47 48//48
f 19//19 49//49 50//50
f 16//16 51//51 52//52
f 10//10 53//53 45//45
f 13//13 54//54 43//43
f 16//16 55//55 51//51
f 19//19 56//56 49//49
f 7//7 57//57 47//47
f 40//40 58//58 59//59
f 28//28 60//60 61//61
f 31//31 62//62 63//63
f 34//34 64//64 65//65
f 37//37 66//66 67//67
f 40//40 68//68 58//58
f 28//28 69//69 60//60
f 31//31 70//70 62//62
f 34//34 71//71 64//64
f 37//37 72//72 66//66
f 10//10 46//46 11//11
f 7//7 48//48 8//8
f 19//19 50//50 20//20
f 16//16 52//52 17//17
f 13//13 44//44 14//14
f 40//40 42//42 68//68
f 28//28 30//30 69//69
f 31//31 33//33 70//70
f 34//34 36//36 71//71
f 37//37 39//39 72//72
f 28//28 61//61 29//29
f 31//31 63//63 32//32
f 34//34 65//65 35//35
f 37//37 67//67 38//38
f 40//40 59//59 41//41
f 10//10 12//12 53//53
f 13//13 15//15 54//54
f 16//16 18//18 55//55
f 19//19 21//21 56//56
f 7//7 9//9 57//57
f 73//73 74//74 75//75
f 76//76 77//77 78//78
f 79//79 80//80 81//81
f 82//82 83//83 84//84
f 85//85 86//86 87//87
f 88//88 89//89 90//90
f 91//91 92//92 93//93
f 94//94 95//95 96//96
f 97//97 98//98 99//99
f 100//100 101//101 102//102
f 103//103 104//104 105//105
f 106//106 107//107 108//108
f 109//109 110//110 111//111
f 112//112 113//113 114//114
f 115//115 116//116 117//117
f 88//88 118//118 119//119
f 91//91 120//120 121//121
f 94//94 122//122 123//123
f 97//97 124//124 125//125
f 100//100 126//126 127//127
f 128//128 129//129 2//2
f 130//130 131//131 3//3
f 132//132 133//133 4//4
f 134//134 135//135 5//5
f 136//136 137//137 6//6
f 76//76 138//138 8//8
f 73//73 139//139 11//11
f 85//85 140//140 14//14
f 82//82 141//141 17//17
f 79//79 142//142 20//20
f 143//143 144//144 23//23
f 145//145 146//146 24//24
f 147//147 148//148 25//25
f 149//149 150//150 26//26
f 151//151 152//152 27//27
f 103//103 153//153 29//29
f 106//106 154//154 32//32
f 109//109 155//155 35//35
f 112//112 156//156 38//38
f 115//115 157//157 41//41
f 73//73 75//75 43//43
f 76//76 78//78 45//45
f 79//79 81//81 47//47
f 82//82 84//84 49//49
f 85//85 87//87 51//51
f 88//88 90//90 53//53
f 91//91 93//93 54//54
f 94//94 96//96 55//55
f 97//97 99//99 56//56
f 100//100 102//102 57//57
f 103//103 105//105 58//58
f 106//106 108//108 60//60
f 109//109 111//111 62//62
f 112//112 114//114 64//64
f 115//115 117//117 66//66
f 88//88 119//119 68//68
f 91//91 121//121 69//69
f 94//94 123//123 70//70
f 97//97 125//125 71//71
f 100//100 127//127 72//72
f 130//130 74//74 46//46
f 132//132 77//77 48//48
f 134//134 80//80 50//50
f 136//136 83//83 52//52
f 128//128 86//86 44//44
f 158//158 89//89 42//42
f 159//159 92//92 30//30
f 160//160 95//95 33//33
f 161//161 98//98 36//36
f 162//162 101//101 39//39
f 145//145 104//104 61//61
f 147//147 107//107 63//63
f 149//149 110//110 65//65
f 151//151 113//113 67//67
f 143//143 116//116 59//59
f 159//159 118//118 12//12
f 160//160 120//120 15//15
f 161//161 122//122 18//18
f 162//162 124//124 21//21
f 158//158 126//126 9//9
f 130//130 129//129 74//74
f 132//132 131//131 77//77
f 134//134 133//133 80//80
f 136//136 135//135 83//83
f 128//128 137//137 86//86
f 158//158 138//138 89//89
f 159//159 139//139 92//92
f 160//160 140//140 95//95
f 161//161 141//141 98//98
f 162//162 142//142 101//101
f 145//145 144//144 104//104
f 147//147 146//146 107//107
f 149//149 148//148 110//110
f 151//151 150//150 113//113
f 143//143 152//152 116//116
f 159//159 153//153 118//118
f 160//160 154//154 120//120
f 161//161 155//155 122//122
f 162//162 156//156 124//124
f 158//158 157//157 126//126
f 130//130 3//3 129//129
f 132//132 4//4 131//131
f 134//134 5//5 133//133
f 136//136 6//6 135//135
f 128//128 2//2 137//137
f 158//158 9//9 138//138
f 159//159 12//12 139//139
f 160//160 15//15 140//140
f 161//161 18//18 141//141
f 162//162 21//21 142//142
f 145//145 24//24 144//144
f 147//147 25//25 146//146
f 149//149 26//26 148//148
f 151//151 27//27 150//150
f 143//143 23//23 152//152
f 159//159 30//30 153//153
f 160//160 33//33 154//154
f 161//161 36//36 155//155
f 162//162 39//39 156//156
f 158//158 42//42 157//157
f 128//128 44//44 75//75
f 130//130 46//46 78//78
f 132//132 48//48 81//81
f 134//134 50//50 84//84
f 136//136 52//52 87//87
f 76//76 45//45 90//90
f 73//73 43//43 93//93
f 85//85 51//51 96//96
f 82//82 49//49 99//99
f 79//79 47//47 102//102
f 143//143 59//59 105//105
f 145//145 61//61 108//108
f 147//147 63//63 111//111
f 149//149 65//65 114//114
f 151//151 67//67 117//117
f 103//103 58//58 119//119
f 106//106 60//60 121//121
f 109//109 62//62 123//123
f 112//112 64//64 125//125
f 115//115 66//66 127//127
f 73//73 11//11 74//74
f 76//76 8//8 77//77
f 79//79 20//20 80//80
f 82//82 17//17 83//83
f 85//85 14//14 86//86
f 88//88 68//68 89//89
f 91//91 69//69 92//92
f 94//94 70//70 95//95
f 97//97 71//71 98//98
f 100//100 72//72 101//101
f 103//103 29//29 104//104
f 106//106 32//32 107//107
f 109//109 35//35 110//110
f 112//112 38//38 113//113
f 115//115 41//41 116//116
f 88//88 53//53 118//118
f 91//91 54//54 120//120
f 94//94 55//55 122//122
f 97//97 56//56 124//124
f 100//100 57//57 126//126
f 128//128 75//75 129//129
f 130//130 78//78 131//131
f 132//132 81//81 133//133
f 134//134 84//84 135//135
f 136//136 87//87 137//137
f 76//76 90//90 138//138
f 73//73 93//93 139//139
f 85//85 96//96 140//140
f 82//82 99//99 141//141
f 79//79 102//102 142//142
f 143//143 105//105 144//144
f 145//145 108//108 146//146
f 147//147 111//111 148//148
f 149//149 114//114 150//150
f 151//151 117//117 152//152
f 103//103 119//119 153//153
f 106//106 121//121 154//154
f 109//109 123//123 155//155
f 112//112 125//125 156//156
f 115//115 127//127 157//157
f 129//129 3//3 2//2
f 131//131 4//4 3//3
f 133//133 5//5 4//4
f 135//135 6//6 5//5
f 137//137 2//2 6//6
f 138//138 9//9 8//8
f 139//139 12//12 11//11
f 140//140 15//15 14//14
f 141//141 18//18 17//17
f 142//142 21//21 20//20
f 144//144 24//24 23//23
f 146//146 25//25 24//24
f 148//148 26//26 25//25
f 150//150 27//27 26//26
f 152//152 23//23 27//27
f 153//153 30//30 29//29
f 154//154 33//33 32//32
f 155//155 36//36 35//35
f 156//156 39//39 38//38
f 157//157 42//42 41//41
f 75//75 44//44 43//43
f 78//78 46//46 45//45
f 81//81 48//48 47//47
f 84//84 50//50 49//49
f 87//87 52//52 51//51
f 90//90 45//45 53//53
f 93//93 43//43 54//54
f 96//96 51//51 55//55
f 99//99 49//49 56//56
f 102//102 47//47 57//57
f 105//105 59//59 58//58
f 108//108 61//61 60//60
f 111//111 63//63 62//62
f 114//114 65//65 64//64
f 117//117 67//67 66//66
f 119//119 58//58 68//68
f 121//121 60//60 69//69
f 123//123 62//62 70//70
f 125//125 64//64 71//71
f 127//127 66//66 72//72
f 74//74 11//11 46//46
f 77//77 8//8 48//48
f 80//80 20//20 50//50
f 83//83 17//17 52//52
f 86//86 14//14 44//44
f 89//89 68//68 42//42
f 92//92 69//69 30//30
f 95//95 70//70 33//33
f 98//98 71//71 36//36
f 101//101 72//72 39//39
f 104//104 29//29 61//61
f 107//107 32//32 63//63
f 110//110 35//35 65//65
f 113//113 38//38 67//67
f 116//116 41//41 59//59
f 118//118 53//53 12//12
f 120//120 54//54 15//15
f 122//122 55//55 18//18
f 124//124 56//56 21//21
f 126//126 57//57 9//9
f 129//129 75//75 74//74
f 131//131 78//78 77//77
f 133//133 81//81 80//80
f 135//135 84//84 83//83
f 137//137 87//87 86//86
f 138//138 90//90 89//89
f 139//139 93//93 92//92
f 140//140 96//96 95//95
f 141//141 99//99 98//98
f 142//142 102//102 101//101
f 144//144 105//105 104//104
f 146//146 108//108 107//107
f 148//148 111//111 110//110
f 150//150 114//114 113//113
f 152//152 117//117 116//116
f 153//153 119//119 118//118
f 154//154 121//121 120//120
f 155//155 123//123 122//122
f 156//156 125//125 124//124
f 157//157 127//127 126//126
