# Created by Open3D 
# object name: part_077
# number of vertices: 162
# number of triangles: 320
v 1.15181 6.07492 1.48535
vn 0.0252017 -0.163666 -0.986194
v 1.16152 6.05435 1.48945
vn 0.0884476 -0.193738 -0.977058
v 1.14246 6.05497 1.48871
vn 0.00268231 -0.199007 -0.979994
v 1.12629 6.07675 1.48497
vn -0.0180977 -0.160204 -0.986918
v 1.1453 6.08935 1.48308
vn 0.0101962 -0.108872 -0.994004
v 1.16423 6.08712 1.48408
vn 0.0939374 -0.138569 -0.985888
v 0.34699 6.1425 1.49158
vn -0.0672948 -0.155901 -0.985478
v 0.352939 6.12127 1.49482
vn -0.0508901 -0.194509 -0.97958
v 0.334055 6.12383 1.49585
vn -0.134517 -0.175017 -0.975333
v 0.747571 6.08634 1.49452
vn -0.0835925 -0.996449 0.0101139
v 1.12263 6.05497 1.49253
vn -0.0820863 -0.993922 0.0733522
v 0.747615 6.08659 1.49756
vn -0.0815453 -0.985092 0.15147
v 1.17091 6.05947 1.53845
vn 0.0367219 -0.986576 0.159118
v 1.17623 6.0602 1.53822
vn 0.872047 -0.485717 0.0601068
v 1.17247 6.06692 1.58251
vn 0.120771 -0.975259 0.185159
v 1.17396 6.09636 1.53241
vn 0.198251 0.966848 -0.160939
v 1.16508 6.09074 1.49033
vn 0.129718 0.977594 -0.165779
v 1.16687 6.10437 1.57443
vn 0.129901 0.979036 -0.156891
v 0.833898 6.11808 1.48754
vn 0.077224 0.948101 -0.308449
v 0.393296 6.15448 1.48968
vn 0.0685591 0.867203 -0.493212
v 0.375752 6.15672 1.49198
vn 0.0785161 0.965768 -0.247238
v 0.349111 6.1586 1.59093
vn -0.0252012 0.163666 0.986194
v 0.336136 6.13963 1.59332
vn -0.0926577 0.142779 0.985408
v 0.355063 6.13739 1.59432
vn -0.00879833 0.125061 0.99211
v 0.374595 6.15635 1.59139
vn 0.0180977 0.160204 0.986918
v 0.357906 6.17178 1.58868
vn -0.00142215 0.214962 0.976621
v 0.338845 6.1724 1.58795
vn -0.0890176 0.198029 0.976146
v 0.749592 6.10169 1.58921
vn -0.0772244 -0.948104 0.30844
v 0.374529 6.13301 1.59122
vn -0.079964 -0.965542 0.247658
v 0.749508 6.10097 1.58625
vn -0.0811322 -0.981957 0.170818
v 1.15393 6.09102 1.5847
vn 0.0672947 0.155901 0.985478
v 1.14458 6.0711 1.58821
vn 0.0447748 0.12056 0.991696
v 1.1636 6.07015 1.58691
vn 0.1303 0.124058 0.983683
v 0.835919 6.13342 1.58222
vn 0.0835927 0.996449 -0.0100969
v 1.11021 6.11024 1.58149
vn 0.0840789 0.977024 0.195844
v 1.12782 6.10879 1.57906
vn 0.0839062 0.993815 -0.0727415
v 0.329453 6.16728 1.53894
vn -0.0367219 0.986576 -0.159118
v 0.338423 6.17394 1.58084
vn 0.0327789 0.987192 -0.156134
v 0.336628 6.16031 1.49674
vn 0.0325892 0.98575 -0.165032
v 0.326402 6.13038 1.54499
vn -0.198251 -0.966848 0.160939
v 0.321276 6.13199 1.54484
vn -0.939803 -0.33358 0.0741288
v 0.324897 6.12363 1.50081
vn -0.280069 -0.951073 0.130466
v 1.16194 6.05281 1.49655
vn -0.032779 -0.987192 0.156134
v 1.17059 6.05262 1.49427
vn 0.119544 -0.984625 0.127367
v 0.390155 6.11651 1.4959
vn -0.0840593 -0.977563 -0.193143
v 1.10499 6.05648 1.49037
vn -0.0831071 -0.977645 -0.193144
v 0.355782 6.15565 1.48919
vn -0.0434822 -0.10436 -0.993589
v 0.372448 6.14005 1.4908
vn -0.0240381 -0.159706 -0.986872
v 1.12584 6.09374 1.48618
vn 0.0801563 0.965351 -0.248339
v 1.10813 6.09446 1.48414
vn 0.0692849 0.864732 -0.497431
v 1.17909 6.09476 1.53256
vn 0.876976 0.471036 -0.0950658
v 1.17358 6.08881 1.48834
vn 0.278828 0.941711 -0.188245
v 0.372546 6.11795 1.49833
vn -0.0836843 -0.993786 0.0733966
v 1.16374 6.06644 1.58065
vn -0.0325892 -0.98575 0.165032
v 1.17547 6.10311 1.57658
vn 0.28007 0.951073 -0.130466
v 0.83501 6.11871 1.49049
vn 0.081132 0.981955 -0.170829
v 0.336765 6.1566 1.49048
vn -0.130867 -0.119693 -0.984148
v 0.335286 6.13601 1.58706
vn -0.129718 -0.977594 0.165779
v 0.32678 6.13794 1.58906
vn -0.278829 -0.94171 0.188245
v 1.10707 6.07226 1.58772
vn -0.0684117 -0.866074 0.495213
v 0.392234 6.13229 1.59325
vn -0.0693633 -0.865984 0.495237
v 1.14743 6.10548 1.58257
vn 0.0522564 0.210454 0.976206
v 1.12844 6.09305 1.58555
vn 0.0240381 0.159706 0.986872
v 0.377735 6.17178 1.58487
vn 0.0822181 0.993877 -0.0738131
v 0.395374 6.17026 1.58703
vn 0.0831616 0.978045 0.191083
v 0.324133 6.16655 1.53917
vn -0.787512 0.610796 -0.0821843
v 0.329773 6.17413 1.58313
vn -0.119544 0.984625 -0.127367
v 0.333491 6.12237 1.50296
vn -0.129901 -0.979036 0.156891
v 1.12461 6.07003 1.58541
vn -0.0783657 -0.965678 0.24764
v 1.16631 6.10291 1.58154
vn 0.13578 0.179154 0.974406
v 0.836903 6.13309 1.57918
vn 0.0815453 0.985093 -0.15147
v 0.32789 6.15982 1.49488
vn -0.120771 0.975259 -0.185159
v 1.14803 6.05322 1.49386
vn -0.0654245 -0.987145 0.145826
v 1.14157 6.05358 1.49088
vn -0.06524 -0.989964 -0.125357
v 1.16105 6.05249 1.4922
vn -0.0241292 -0.998289 -0.0532583
v 0.366022 6.11905 1.49523
vn -0.0734595 -0.775513 -0.627043
v 0.389862 6.11807 1.49405
vn -0.0247258 -0.196905 -0.980111
v 0.747596 6.08687 1.49204
vn -0.0694178 -0.76804 -0.636628
v 0.369058 6.15576 1.48921
vn 0.0355522 0.536398 -0.843216
v 0.829868 6.11712 1.48538
vn 0.0377082 0.527298 -0.848843
v 0.392709 6.15249 1.48841
vn -0.0168897 -0.102005 -0.99464
v 1.15122 6.09173 1.48755
vn 0.0972228 0.979507 -0.176392
v 1.16413 6.0898 1.48609
vn 0.134542 0.920202 -0.367595
v 1.1447 6.09148 1.48467
vn 0.090744 0.896136 -0.434403
v 1.17962 6.08095 1.53478
vn 0.996464 -0.0836721 -0.00771069
v 1.17487 6.05396 1.49391
vn 0.969104 -0.206636 -0.134678
v 1.17759 6.08676 1.48853
vn 0.985495 0.010568 -0.169374
v 0.347228 6.12046 1.50006
vn -0.0978713 -0.98442 0.146076
v 0.334251 6.12192 1.4986
vn -0.14349 -0.988266 -0.0523479
v 0.353616 6.11975 1.49698
vn -0.102688 -0.986815 -0.125106
v 1.14995 6.06777 1.58365
vn -0.0647794 -0.982229 0.176153
v 1.12493 6.0691 1.5811
vn -0.0804889 -0.983313 0.163146
v 1.151 6.06023 1.53875
vn -0.0655098 -0.984776 0.161009
v 1.17277 6.10322 1.57969
vn 0.34667 0.424895 0.836232
v 1.17374 6.08915 1.58219
vn 0.34677 0.123659 0.929763
v 1.17947 6.10108 1.57688
vn 0.991592 0.0568621 0.116238
v 0.83629 6.12595 1.53482
vn 0.0813427 0.983572 -0.161152
v 1.12817 6.10824 1.57468
vn 0.0824128 0.983808 -0.159154
v 1.12637 6.09459 1.49049
vn 0.0823271 0.983158 -0.163164
v 0.330483 6.15851 1.49197
vn -0.296012 0.187581 -0.936584
v 0.337336 6.15923 1.49249
vn 0.0151653 0.930222 -0.366684
v 0.343708 6.15772 1.49025
vn -0.0154475 0.616774 -0.786989
v 0.349145 6.13501 1.58984
vn -0.0972227 -0.979507 0.176392
v 0.35566 6.13526 1.59272
vn -0.0907439 -0.896135 0.434405
v 0.336229 6.13694 1.5913
vn -0.134542 -0.920202 0.367596
v 1.13131 6.07099 1.58818
vn -0.0351704 -0.537997 0.842213
v 1.10766 6.07426 1.58898
vn 0.0185866 0.122673 0.992273
v 0.749717 6.10298 1.5914
vn -0.0377083 -0.527299 0.848843
v 1.13434 6.1077 1.58217
vn 0.0743258 0.777102 0.62497
v 0.831989 6.13322 1.58474
vn 0.0694179 0.768041 0.636628
v 1.1105 6.10868 1.58334
vn 0.0258732 0.210509 0.977249
v 0.35233 6.17353 1.58353
vn 0.0654244 0.987145 -0.145826
v 0.339315 6.17425 1.58519
vn 0.0241292 0.998289 0.0532583
v 0.358795 6.17316 1.58651
vn 0.06524 0.989964 0.125356
v 0.321342 6.15302 1.54143
vn -0.996464 0.0836721 0.00771069
v 0.322777 6.13998 1.58886
vn -0.985813 0.0045961 0.167782
v 0.32549 6.17279 1.58349
vn -0.966322 0.221265 0.131389
v 0.372196 6.1185 1.50271
vn -0.0821962 -0.983825 0.15916
v 0.346165 6.12781 1.54498
vn -0.0971595 -0.982119 0.161254
v 1.16303 6.06752 1.5849
vn -0.0151653 -0.930222 0.366684
v 1.14361 6.0691 1.58663
vn -0.0533005 -0.8993 0.434072
v 1.16611 6.10483 1.57879
vn 0.14349 0.988266 0.0523482
v 1.15964 6.10515 1.58122
vn 0.134562 0.823581 0.551005
v 0.375434 6.15765 1.4963
vn 0.0806291 0.983302 -0.163145
v 0.377231 6.1713 1.58049
vn 0.0807143 0.983949 -0.159151
v 0.327212 6.14471 1.49404
vn -0.346771 -0.123659 -0.929763
v 0.323604 6.15847 1.49514
vn -0.972419 0.174974 -0.154223
v 1.16787 6.05297 1.4912
vn 0.274633 -0.39592 -0.876256
v 1.15458 6.05326 1.48987
vn -0.013134 -0.833763 -0.551967
v 1.1292 6.05497 1.48932
vn -0.0665352 -0.776131 -0.627052
v 1.10551 6.05797 1.48851
vn -0.023519 -0.197008 -0.98012
v 0.749403 6.1088 1.48762
vn -0.0210679 -0.159955 -0.986899
v 1.10836 6.0924 1.48287
vn -0.016206 -0.10897 -0.993913
v 1.13223 6.09167 1.48331
vn 0.043038 0.53957 -0.84084
v 1.15757 6.08938 1.48395
vn 0.105986 0.606551 -0.787949
v 1.17076 6.08795 1.48547
vn 0.308723 0.1368 -0.941263
v 1.17172 6.0738 1.4875
vn 0.306967 -0.178553 -0.934821
v 0.340721 6.1216 1.49617
vn -0.134562 -0.823582 -0.551005
v 1.12313 6.05545 1.4969
vn -0.0805742 -0.983961 0.159147
v 1.17676 6.06828 1.58225
vn 0.975238 -0.160071 0.152606
v 1.1542 6.09894 1.53241
vn 0.0971595 0.982119 -0.161254
v 0.356751 6.15765 1.49077
vn 0.0533005 0.8993 -0.434072
v 0.329601 6.1388 1.59192
vn -0.311374 -0.048391 0.949054
v 0.342797 6.13737 1.59344
vn -0.105986 -0.60655 0.787949
v 0.368133 6.13507 1.59409
vn -0.0420964 -0.537416 0.842266
v 0.392007 6.13435 1.59452
vn 0.01738 0.122777 0.992282
v 0.751559 6.12517 1.58859
vn 0.0210679 0.159955 0.986899
v 0.394854 6.16877 1.58888
vn 0.0251732 0.21735 0.975769
v 0.371169 6.17178 1.58807
vn 0.06697 0.774931 0.628488
v 0.345784 6.17348 1.58752
vn 0.013134 0.833763 0.551967
v 0.332494 6.17378 1.58619
vn -0.258074 0.475679 0.840909
v 0.329234 6.16006 1.58873
vn -0.306968 0.178552 0.934821
v 0.373994 6.13215 1.58691
vn -0.0821109 -0.983178 0.163155
v 1.15666 6.06903 1.58714
vn 0.0154475 -0.616774 0.786989
v 1.14675 6.107 1.58042
vn 0.102688 0.986815 0.125107
v 0.349366 6.16652 1.53864
vn 0.0655098 0.984776 -0.161009
v 0.320891 6.12567 1.50051
vn -0.991946 -0.0419671 -0.119505
v 0.32759 6.12352 1.49771
vn -0.350237 -0.343448 -0.871423
v 0.748555 6.0937 1.54192
vn -0.0813427 -0.983572 0.161152
v 1.16988 6.06824 1.58542
vn 0.313488 -0.100861 0.944221
v 1.15314 6.10629 1.57734
vn 0.0978712 0.98442 -0.146076
v 0.350414 6.15898 1.49375
vn 0.0647794 0.982229 -0.176153
f 1//1 2//2 3//3
f 1//1 3//3 4//4
f 1//1 4//4 5//5
f 1//1 5//5 6//6
f 1//1 6//6 2//2
f 7//7 8//8 9//9
f 10//10 11//11 12//12
f 13//13 14//14 15//15
f 16//16 17//17 18//18
f 19//19 20//20 21//21
f 22//22 23//23 24//24
f 22//22 24//24 25//25
f 22//22 25//25 26//26
f 22//22 26//26 27//27
f 22//22 27//27 23//23
f 28//28 29//29 30//30
f 31//31 32//32 33//33
f 34//34 35//35 36//36
f 37//37 38//38 39//39
f 40//40 41//41 42//42
f 13//13 43//43 44//44
f 10//10 45//45 46//46
f 7//7 47//47 48//48
f 19//19 49//49 50//50
f 16//16 51//51 52//52
f 10//10 53//53 45//45
f 13//13 54//54 43//43
f 16//16 55//55 51//51
f 19//19 56//56 49//49
f 7//7 57//57 47//47
f 40//40 58//58 59//59
f 28//28 60//60 61//61
f 31//31 62//62 63//63
f 34//34 64//64 65//65
f 37//37 66//66 67//67
f 40//40 68//68 58//58
f 28//28 69//69 60//60
f 31//31 70//70 62//62
f 34//34 71//71 64//64
f 37//37 72//72 66//66
f 10//10 46//46 11//11
f 7//7 48//48 8//8
f 19//19 50//50 20//20
f 16//16 52//52 17//17
f 13//13 44//44 14//14
f 40//40 42//42 68//68
f 28//28 30//30 69//69
f 31//31 33//33 70//70
f 34//34 36//36 71//71
f 37//37 39//39 72//72
f 28//28 61//61 29//29
f 31//31 63//63 32//32
f 34//34 65//65 35//35
f 37//37 67//67 38//38
f 40//40 59//59 41//41
f 10//10 12//12 53//53
f 13//13 15//15 54//54
f 16//16 18//18 55//55
f 19//19 21//21 56//56
f 7//7 9//9 57//57
f 73//73 74//74 75//75
f 76//76 77//77 78//78
f 79//79 80//80 81//81
f 82//82 83//83 84//84
f 85//85 86//86 87//87
f 88//88 89//89 90//90
f 91//91 92//92 93//93
f 94//94 95//95 96//96
f 97//97 98//98 99//99
f 100//100 101//101 102//102
f 103//103 104//104 105//105
f 106//106 107//107 108//108
f 109//109 110//110 111//111
f 112//112 113//113 114//114
f 115//115 116//116 117//117
f 88//88 118//118 119//119
f 91//91 120//120 121//121
f 94//94 122//122 123//123
f 97//97 124//124 125//125
f 100//100 126//126 127//127
f 128//128 129//129 2//2
f 130//130 131//131 3//3
f 132//132 133//133 4//4
f 134//134 135//135 5//5
f 136//136 137//137 6//6
f 76//76 138//138 8//8
f 73//73 139//139 11//11
f 85//85 140//140 14//14
f 82//82 141//141 17//17
f 79//79 142//142 20//20
f 143//143 144//144 23//23
f 145//145 146//146 24//24
f 147//147 148//148 25//25
f 149//149 150//150 26//26
f 151//151 152//152 27//27
f 103//103 153//153 29//29
f 106//106 154//154 32//32
f 109//109 155//155 35//35
f 112//112 156//156 38//38
f 115//115 157//157 41//41
f 73//73 75//75 43//43
f 76//76 78//78 45//45
f 79//79 81//81 47//47
f 82//82 84//84 49//49
f 85//85 87//87 51//51
f 88//88 90//90 53//53
f 91//91 93//93 54//54
f 94//94 96//96 55//55
f 97//97 99//99 56//56
f 100//100 102//102 57//57
f 103//103 105//105 58//58
f 106//106 108//108 60//60
f 109//109 111//111 62//62
f 112//112 114//114 64//64
f 115//115 117//117 66//66
f 88//88 119//119 68//68
f 91//91 121//121 69//69
f 94//94 123//123 70//70
f 97//97 125//125 71//71
f 100//100 127//127 72//72
f 130//130 74//74 46//46
f 132//132 77//77 48//48
f 134//134 80//80 50//50
f 136//136 83//83 52//52
f 128//128 86//86 44//44
f 158//158 89//89 42//42
f 159//159 92//92 30//30
f 160//160 95//95 33//33
f 161//161 98//98 36//36
f 162//162 101//101 39//39
f 145//145 104//104 61//61
f 147//147 107//107 63//63
f 149//149 110//110 65//65
f 151//151 113//113 67//67
f 143//143 116//116 59//59
f 159//159 118//118 12//12
f 160//160 120//120 15//15
f 161//161 122//122 18//18
f 162//162 124//124 21//21
f 158//158 126//126 9//9
f 130//130 129//129 74//74
f 132//132 131//131 77//77
f 134//134 133//133 80//80
f 136//136 135//135 83//83
f 128//128 137//137 86//86
f 158//158 138//138 89//89
f 159//159 139//139 92//92
f 160//160 140//140 95//95
f 161//161 141//141 98//98
f 162//162 142//142 101//101
f 145//145 144//144 104//104
f 147//147 146//146 107//107
f 149//149 148//148 110//110
f 151//151 150//150 113//113
f 143//143 152//152 116//116
f 159//159 153//153 118//118
f 160//160 154//154 120//120
f 161//161 155//155 122//122
f 162//162 156//156 124//124
f 158//158 157//157 126//126
f 130//130 3//3 129//129
f 132//132 4//4 131//131
f 134//134 5//5 133//133
f 136//136 6//6 135//135
f 128//128 2//2 137//137
f 158//158 9//9 138//138
f 159//159 12//12 139//139
f 160//160 15//15 140//140
f 161//161 18//18 141//141
f 162//162 21//21 142//142
f 145//145 24//24 144//144
f 147//147 25//25 146//146
f 149//149 26//26 148//148
f 151//151 27//27 150//150
f 143//143 23//23 152//152
f 159//159 30//30 153//153
f 160//160 33//33 154//154
f 161//161 36//36 155//155
f 162//162 39//39 156//156
f 158//158 42//42 157//157
f 128//128 44//44 75//75
f 130//130 46//46 78//78
f 132//132 48//48 81//81
f 134//134 50//50 84//84
f 136//136 52//52 87//87
f 76//76 45//45 90//90
f 73//73 43//43 93//93
f 85//85 51//51 96//96
f 82//82 49//49 99//99
f 79//79 47//47 102//102
f 143//143 59//59 105//105
f 145//145 61//61 108//108
f 147//147 63//63 111//111
f 149//149 65//65 114//114
f 151//151 67//67 117//117
f 103//103 58//58 119//119
f 106//106 60//60 121//121
f 109//109 62//62 123//123
f 112//112 64//64 125//125
f 115//115 66//66 127//127
f 73//73 11//11 74//74
f 76//76 8//8 77//77
f 79//79 20//20 80//80
f 82//82 17//17 83//83
f 85//85 14//14 86//86
f 88//88 68//68 89//89
f 91//91 69//69 92//92
f 94//94 70//70 95//95
f 97//97 71//71 98//98
f 100//100 72//72 101//101
f 103//103 29//29 104//104
f 106//106 32//32 107//107
f 109//109 35//35 110//110
f 112//112 38//38 113//113
f 115//115 41//41 116//116
f 88//88 53//53 118//118
f 91//91 54//54 120//120
f 94//94 55//55 122//122
f 97//97 56//56 124//124
f 100//100 57//57 126//126
f 128//128 75//75 129//129
f 130//130 78//78 131//131
f 132//132 81//81 133//133
f 134//134 84//84 135//135
f 136//136 87//87 137//137
f 76//76 90//90 138//138
f 73//73 93//93 139//139
f 85//85 96//96 140//140
f 82//82 99//99 141//141
f 79//79 102//102 142//142
f 143//143 105//105 144//144
f 145//145 108//108 146//146
f 147//147 111//111 148//148
f 149//149 114//114 150//150
f 151//151 117//117 152//152
f 103//103 119//119 153//153
f 106//106 121//121 154//154
f 109//109 123//123 155//155
f 112//112 125//125 156//156
f 115//115 127//127 157//157
f 129//129 3//3 2//2
f 131//131 4//4 3//3
f 133//133 5//5 4//4
f 135//135 6//6 5//5
f 137//137 2//2 6//6
f 138//138 9//9 8//8
f 139//139 12//12 11//11
f 140//140 15//15 14//14
f 141//141 18//18 17//17
f 142//142 21//21 20//20
f 144//144 24//24 23//23
f 146//146 25//25 24//24
f 148//148 26//26 25//25
f 150//150 27//27 26//26
f 152//152 23//23 27//27
f 153//153 30//30 29//29
f 154//154 33//33 32//32
f 155//155 36//36 35//35
f 156//156 39//39 38//38
f 157//157 42//42 41//41
f 75//75 44//44 43//43
f 78//78 46//46 45//45
f 81//81 48//48 47//47
f 84//84 50//50 49//49
f 87//87 52//52 51//51
f 90//90 45//45 53//53
f 93//93 43//43 54//54
f 96//96 51//51 55//55
f 99//99 49//49 56//56
f 102//102 47//47 57//57
f 105//105 59//59 58//58
f 108//108 61//61 60//60
f 111//111 63//63 62//62
f 114//114 65//65 64//64
f 117//117 67//67 66//66
f 119//119 58//58 68//68
f 121//121 60//60 69//69
f 123//123 62//62 70//70
f 125//125 64//64 71//71
f 127//127 66//66 72//72
f 74//74 11//11 46//46
f 77//77 8//8 48//48
f 80//80 20//20 50//50
f 83//83 17//17 52//52
f 86//86 14//14 44//44
f 89//89 68//68 42//42
f 92//92 69//69 30//30
f 95//95 70//70 33//33
f 98//98 71//71 36//36
f 101//101 72//72 39//39
f 104//104 29//29 61//61
f 107//107 32//32 63//63
f 110//110 35//35 65//65
f 113//113 38//38 67//67
f 116//116 41//41 59//59
f 118//118 53//53 12//12
f 120//120 54//54 15//15
f 122//122 55//55 18//18
f 124//124 56//56 21//21
f 126//126 57//57 9//9
f 129//129 75//75 74//74
f 131//131 78//78 77//77
f 133//133 81//81 80//80
f 135//135 84//84 83//83
f 137//137 87//87 86//86
f 138//138 90//90 89//89
f 139//139 93//93 92//92
f 140//140 96//96 95//95
f 141//141 99//99 98//98
f 142//142 102//102 101//101
f 144//144 105//105 104//104
f 146//146 108//108 107//107
f 148//148 111//111 110//110
f 150//150 114//114 113//113
f 152//152 117//117 116//116
f 153//153 119//119 118//118
f 154//154 121//121 120//120
f 155//155 123//123 122//122
f 156//156 125//125 124//124
f 157//157 127//127 126//126
