# Created by Open3D 
# object name: part_069
# number of vertices: 162
# number of triangles: 320
v 1.33301 6.93103 1.77857
vn 0.00862699 -0.229444 -0.973284
v 1.35026 6.91036 1.78412
vn 0.0531464 -0.26181 -0.963655
v 1.31889 6.91165 1.78336
vn -0.00837952 -0.270999 -0.962543
v 1.29096 6.93383 1.77822
vn -0.0221906 -0.22724 -0.973586
v 1.3214 6.9456 1.77538
vn -0.000634941 -0.166728 -0.986003
v 1.35265 6.94271 1.77651
vn 0.0585378 -0.197792 -0.978495
v 0.00634216 7.03134 1.7883
vn -0.0572085 -0.224466 -0.972801
v 0.0174534 7.01006 1.7929
vn -0.0464883 -0.268116 -0.962264
v -0.0137323 7.01349 1.79411
vn -0.105941 -0.24978 -0.96249
v 0.668085 6.95937 1.79141
vn -0.0742847 -0.992187 0.100232
v 1.28633 6.91284 1.78793
vn -0.0728856 -0.985369 0.154063
v 0.668154 6.95994 1.79493
vn -0.0719423 -0.972822 0.220093
v 1.36556 6.92039 1.84079
vn 0.000118149 -0.973861 0.227143
v 1.37425 6.9209 1.84046
vn 0.752709 -0.645053 0.131663
v 1.36783 6.93255 1.89168
vn 0.0524049 -0.966774 0.250203
v 1.36825 6.95681 1.83223
vn 0.143227 0.963023 -0.228194
v 1.35384 6.94699 1.78363
vn 0.101136 0.967415 -0.232119
v 1.35626 6.96966 1.88079
vn 0.101321 0.969163 -0.224627
v 0.807933 6.98722 1.78142
vn 0.0679876 0.93335 -0.352471
v 0.0816781 7.04141 1.78529
vn 0.0608327 0.857654 -0.510616
v 0.0527195 7.04459 1.78799
vn 0.0693096 0.951169 -0.300789
v 0.00920747 7.05812 1.90308
vn -0.00862738 0.229444 0.973284
v -0.0109214 7.03975 1.90671
vn -0.0575114 0.20272 0.977546
v 0.0203228 7.03687 1.90784
vn 0.00206353 0.185517 0.982639
v 0.0512252 7.05489 1.90353
vn 0.0221908 0.22724 0.973586
v 0.0228307 7.07081 1.89986
vn 0.00969403 0.289334 0.957179
v -0.0085314 7.0721 1.89911
vn -0.0534441 0.266741 0.962285
v 0.670815 6.98488 1.9008
vn -0.0679893 -0.933367 0.352424
v 0.0525707 7.03135 1.9043
vn -0.0701879 -0.951007 0.301097
v 0.670711 6.98384 1.89739
vn -0.0715352 -0.969018 0.236403
v 1.33588 6.95781 1.89336
vn 0.0572088 0.224466 0.972801
v 1.32176 6.93846 1.89831
vn 0.0401724 0.182637 0.982359
v 1.35307 6.93662 1.89672
vn 0.101575 0.190692 0.97638
v 0.810664 7.01273 1.89081
vn 0.0742845 0.992186 -0.100247
v 1.26282 6.97854 1.88912
vn 0.0760566 0.993921 0.0796005
v 1.29183 6.97614 1.88624
vn 0.0739976 0.985369 -0.15353
v -0.0238359 7.06207 1.84243
vn -0.000118147 0.973861 -0.227143
v -0.00934898 7.07291 1.89079
vn 0.0422872 0.973627 -0.224192
v -0.0117744 7.05025 1.79364
vn 0.0420989 0.971879 -0.231689
v -0.0265268 7.02565 1.85099
vn -0.143227 -0.963023 0.228194
v -0.0350504 7.02745 1.85079
vn -0.839141 -0.52469 0.143328
v -0.0287497 7.01418 1.79995
vn -0.194747 -0.959683 0.202687
v 1.35107 6.90955 1.79243
vn -0.0422872 -0.973627 0.224192
v 1.36529 6.90878 1.78973
vn 0.0511752 -0.978278 0.200882
v 0.0789082 7.00392 1.7941
vn -0.0760264 -0.994109 -0.0772493
v 1.25724 6.91482 1.78547
vn -0.0754382 -0.994157 -0.0772105
v 0.0199613 7.044 1.78492
vn -0.0388084 -0.163843 -0.985723
v 0.0483244 7.02779 1.78733
vn -0.0264167 -0.22692 -0.973555
v 1.28915 6.95111 1.77893
vn 0.0702983 0.950807 -0.301701
v 1.26001 6.95231 1.77666
vn 0.0612333 0.855433 -0.514281
v 1.37677 6.95501 1.83244
vn 0.728628 0.66276 -0.172773
v 1.36793 6.9445 1.78133
vn 0.193515 0.948181 -0.252003
v 0.049892 7.00632 1.79699
vn -0.073858 -0.985294 0.154079
v 1.3535 6.93221 1.88959
vn -0.042099 -0.971879 0.231689
v 1.37047 6.96828 1.88328
vn 0.194747 0.959683 -0.202687
v 0.809732 6.98814 1.78482
vn 0.071535 0.969016 -0.236411
v -0.0113423 7.04584 1.78651
vn -0.101863 -0.185664 -0.977319
v -0.0121156 7.03547 1.8996
vn -0.101136 -0.967415 0.232119
v -0.0262047 7.03796 1.90189
vn -0.193514 -0.948181 0.252003
v 1.26005 6.94106 1.89794
vn -0.06072 -0.856635 0.512337
v 0.0817157 7.03015 1.90657
vn -0.0613081 -0.856591 0.512342
v 1.32427 6.97241 1.89033
vn 0.0478672 0.286445 0.9569
v 1.29386 6.96094 1.89442
vn 0.0264166 0.22692 0.973555
v 0.0553983 7.06962 1.8953
vn 0.0729624 0.985301 -0.154459
v 0.0844856 7.06764 1.89776
vn 0.075458 0.994302 0.0752959
v -0.03253 7.06157 1.84277
vn -0.623134 0.76497 -0.162867
v -0.023565 7.07369 1.8935
vn -0.0511754 0.978278 -0.200882
v -0.014541 7.01281 1.80244
vn -0.101322 -0.969163 0.224627
v 1.289 6.93787 1.89524
vn -0.0692158 -0.951079 0.301096
v 1.35546 6.96897 1.88911
vn 0.106957 0.254611 0.961111
v 0.812289 7.01204 1.88728
vn 0.0719423 0.972822 -0.220093
v -0.02611 7.04991 1.79155
vn -0.0524049 0.966774 -0.250203
v 1.32818 6.91022 1.78938
vn -0.0621906 -0.974548 0.215379
v 1.31753 6.91052 1.78594
vn -0.0640021 -0.997805 -0.0169901
v 1.34961 6.9088 1.7874
vn -0.0384094 -0.998211 0.0458221
v 0.0390919 7.00735 1.79338
vn -0.0710027 -0.859684 -0.505868
v 0.0783221 7.0053 1.79189
vn -0.0278786 -0.269721 -0.962535
v 0.668084 6.95963 1.7885
vn -0.0683208 -0.853533 -0.516541
v 0.0417694 7.04359 1.78486
vn 0.0331433 0.545326 -0.837569
v 0.801362 6.98618 1.77898
vn 0.0343744 0.536357 -0.843291
v 0.0808328 7.03928 1.78391
vn -0.0197713 -0.159944 -0.986928
v 1.33099 6.94824 1.78044
vn 0.0812696 0.9671 -0.241067
v 1.35233 6.94563 1.77874
vn 0.102558 0.909564 -0.40271
v 1.32029 6.94793 1.77715
vn 0.0751057 0.884911 -0.459664
v 1.37852 6.94131 1.83559
vn 0.997127 -0.0753901 -0.00730794
v 1.37224 6.90992 1.78923
vn 0.945886 -0.279577 -0.16473
v 1.37463 6.9423 1.78162
vn 0.967399 0.0667511 -0.244304
v 0.00814039 7.01003 1.79906
vn -0.0819092 -0.973056 0.215531
v -0.0132811 7.01185 1.79739
vn -0.111449 -0.992689 0.0463511
v 0.0186699 7.00873 1.79546
vn -0.0870025 -0.996065 -0.0168853
v 1.33077 6.93441 1.89311
vn -0.0615548 -0.968589 0.240929
v 1.28957 6.93646 1.89025
vn -0.0712061 -0.970596 0.229942
v 1.33279 6.92197 1.84124
vn -0.0621203 -0.971636 0.228178
v 1.36605 6.96883 1.8869
vn 0.264411 0.544865 0.795745
v 1.36853 6.95487 1.89038
vn 0.26257 0.202393 0.943448
v 1.37718 6.96611 1.88368
vn 0.97708 0.15721 0.143525
v 0.811555 7.00012 1.83603
vn 0.0717412 0.970954 -0.228259
v 1.29242 6.9751 1.88117
vn 0.0724076 0.971299 -0.226574
v 1.29 6.95241 1.7839
vn 0.0723233 0.970511 -0.229952
v -0.0217775 7.04817 1.78821
vn -0.211838 0.166593 -0.963001
v -0.01056 7.04868 1.78873
vn 0.0295083 0.915089 -0.402171
v -4.25985e-06 7.04667 1.78615
vn 0.00167262 0.623047 -0.782183
v 0.0107298 7.03422 1.90278
vn -0.0812696 -0.9671 0.241067
v 0.0214312 7.03453 1.90608
vn -0.0751057 -0.884911 0.459664
v -0.0106076 7.03683 1.90448
vn -0.102558 -0.909564 0.40271
v 1.29995 6.93887 1.89837
vn -0.0329255 -0.546901 0.83655
v 1.26089 6.94318 1.89932
vn 0.0215396 0.183929 0.982704
v 0.670949 6.98641 1.90329
vn -0.0343744 -0.536357 0.843291
v 1.30263 6.97511 1.88985
vn 0.0715762 0.860985 0.503569
v 0.804227 7.01295 1.89377
vn 0.0683208 0.853532 0.516542
v 1.2634 6.97716 1.89133
vn 0.0290461 0.285351 0.957983
v 0.0135392 7.07224 1.89384
vn 0.0621905 0.974548 -0.215379
v -0.00788649 7.07366 1.89583
vn 0.0384095 0.998211 -0.0458224
v 0.0241957 7.07194 1.89728
vn 0.0640021 0.997805 0.0169901
v -0.0362658 7.04828 1.84596
vn -0.997127 0.0753918 0.00730755
v -0.0329108 7.04016 1.90161
vn -0.969704 -0.0427746 0.24051
v -0.0305181 7.07254 1.894
vn -0.94014 0.302169 0.157576
v 0.0492996 7.00736 1.80206
vn -0.0722762 -0.971307 0.22658
v 0.00610817 7.02228 1.85097
vn -0.0813542 -0.970181 0.228319
v 1.35228 6.93378 1.8945
vn -0.0295083 -0.915089 0.402171
v 1.32029 6.93632 1.89656
vn -0.0521071 -0.886653 0.45949
v 1.355 6.97061 1.88584
vn 0.111449 0.992689 -0.046352
v 1.34436 6.97145 1.88869
vn 0.110761 0.898677 0.424395
v 0.0521549 7.04601 1.79297
vn 0.0712914 0.970591 -0.229938
v 0.0545831 7.06869 1.89024
vn 0.0713754 0.971375 -0.226573
v -0.0262843 7.03461 1.79119
vn -0.26257 -0.202393 -0.943448
v -0.033066 7.04874 1.79193
vn -0.949822 0.21171 -0.230254
v 1.36078 6.90891 1.78618
vn 0.183615 -0.490402 -0.851934
v 1.33892 6.90958 1.7847
vn -0.0318115 -0.904649 -0.424968
v 1.2971 6.91223 1.78416
vn -0.0664405 -0.860063 -0.505843
v 1.25799 6.91611 1.78325
vn -0.0270203 -0.269787 -0.962541
v 0.669669 6.98119 1.78245
vn -0.0243037 -0.227081 -0.973573
v 1.2605 6.95009 1.77526
vn -0.0194717 -0.167973 -0.985599
v 1.29978 6.94847 1.77564
vn 0.0381614 0.548783 -0.835093
v 1.34156 6.94524 1.77632
vn 0.0806277 0.617079 -0.78276
v 1.36334 6.94344 1.77806
vn 0.220426 0.133903 -0.966169
v 1.3658 6.92936 1.78099
vn 0.215382 -0.238531 -0.94695
v -0.00263883 7.01101 1.79453
vn -0.110761 -0.898677 -0.424395
v 1.28714 6.91377 1.79299
vn -0.07129 -0.971382 0.226571
v 1.37479 6.93372 1.89129
vn 0.95565 -0.188348 0.226403
v 1.33562 6.96018 1.83226
vn 0.0813542 0.970181 -0.228319
v 0.0214343 7.04614 1.78667
vn 0.0521071 0.886653 -0.45949
v -0.021612 7.03902 1.90517
vn -0.222141 -0.031041 0.97452
v 0.000166441 7.03723 1.90691
vn -0.0806278 -0.61708 0.782759
v 0.0419429 7.03399 1.90759
vn -0.0374944 -0.546609 0.836548
v 0.0812196 7.03237 1.90796
vn 0.0206812 0.183994 0.98271
v 0.672581 7.0084 1.8991
vn 0.0243037 0.227081 0.973573
v 0.0837304 7.06635 1.89998
vn 0.0287215 0.293143 0.955637
v 0.0446205 7.07023 1.89907
vn 0.0667236 0.859096 0.507446
v 0.00280101 7.07288 1.89852
vn 0.0318116 0.904649 0.424968
v -0.0190604 7.07356 1.89705
vn -0.167859 0.577555 0.798908
v -0.0235536 7.06012 1.90058
vn -0.215382 0.238531 0.94695
v 0.0517277 7.03005 1.89932
vn -0.0721919 -0.970522 0.229947
v 1.34173 6.93579 1.89708
vn -0.00167262 -0.623047 0.782183
v 1.32305 6.97373 1.88776
vn 0.0870025 0.996065 0.0168855
v 0.00893174 7.06049 1.84198
vn 0.0621203 0.971636 -0.228178
v -0.0354587 7.01635 1.79954
vn -0.979467 -0.134003 -0.150621
v -0.0243291 7.01363 1.79633
vn -0.267654 -0.456273 -0.848632
v 0.669427 6.97181 1.84618
vn -0.0717412 -0.970953 0.228261
v 1.3635 6.93429 1.89502
vn 0.229123 -0.0651575 0.971214
v 1.33358 6.97244 1.88417
vn 0.0819093 0.973056 -0.215531
v 0.0109499 7.04805 1.79012
vn 0.0615549 0.968589 -0.240929
f 1//1 2//2 3//3
f 1//1 3//3 4//4
f 1//1 4//4 5//5
f 1//1 5//5 6//6
f 1//1 6//6 2//2
f 7//7 8//8 9//9
f 10//10 11//11 12//12
f 13//13 14//14 15//15
f 16//16 17//17 18//18
f 19//19 20//20 21//21
f 22//22 23//23 24//24
f 22//22 24//24 25//25
f 22//22 25//25 26//26
f 22//22 26//26 27//27
f 22//22 27//27 23//23
f 28//28 29//29 30//30
f 31//31 32//32 33//33
f 34//34 35//35 36//36
f 37//37 38//38 39//39
f 40//40 41//41 42//42
f 13//13 43//43 44//44
f 10//10 45//45 46//46
f 7//7 47//47 48//48
f 19//19 49//49 50//50
f 16//16 51//51 52//52
f 10//10 53//53 45//45
f 13//13 54//54 43//43
f 16//16 55//55 51//51
f 19//19 56//56 49//49
f 7//7 57//57 47//47
f 40//40 58//58 59//59
f 28//28 60//60 61//61
f 31//31 62//62 63//63
f 34//34 64//64 65//65
f 37//37 66//66 67//67
f 40//40 68//68 58//58
f 28//28 69//69 60//60
f 31//31 70//70 62//62
f 34//34 71//71 64//64
f 37//37 72//72 66//66
f 10//10 46//46 11//11
f 7//7 48//48 8//8
f 19//19 50//50 20//20
f 16//16 52//52 17//17
f 13//13 44//44 14//14
f 40//40 42//42 68//68
f 28//28 30//30 69//69
f 31//31 33//33 70//70
f 34//34 36//36 71//71
f 37//37 39//39 72//72
f 28//28 61//61 29//29
f 31//31 63//63 32//32
f 34//34 65//65 35//35
f 37//37 67//67 38//38
f 40//40 59//59 41//41
f 10//10 12//12 53//53
f 13//13 15//15 54//54
f 16//16 18//18 55//55
f 19//19 21//21 56//56
f 7//7 9//9 57//57
f 73//73 74//74 75//75
f 76//76 77//77 78//78
f 79//79 80//80 81//81
f 82//82 83//83 84//84
f 85//85 86//86 87//87
f 88//88 89//89 90//90
f 91//91 92//92 93//93
f 94//94 95//95 96//96
f 97//97 98//98 99//99
f 100//100 101//101 102//102
f 103//103 104//104 105//105
f 106//106 107//107 108//108
f 109//109 110//110 111//111
f 112//112 113//113 114//114
f 115//115 116//116 117//117
f 88//88 118//118 119//119
f 91//91 120//120 121//121
f 94//94 122//122 123//123
f 97//97 124//124 125//125
f 100//100 126//126 127//127
f 128//128 129//129 2//2
f 130//130 131//131 3//3
f 132//132 133//133 4//4
f 134//134 135//135 5//5
f 136//136 137//137 6//6
f 76//76 138//138 8//8
f 73//73 139//139 11//11
f 85//85 140//140 14//14
f 82//82 141//141 17//17
f 79//79 142//142 20//20
f 143//143 144//144 23//23
f 145//145 146//146 24//24
f 147//147 148//148 25//25
f 149//149 150//150 26//26
f 151//151 152//152 27//27
f 103//103 153//153 29//29
f 106//106 154//154 32//32
f 109//109 155//155 35//35
f 112//112 156//156 38//38
f 115//115 157//157 41//41
f 73//73 75//75 43//43
f 76//76 78//78 45//45
f 79//79 81//81 47//47
f 82//82 84//84 49//49
f 85//85 87//87 51//51
f 88//88 90//90 53//53
f 91//91 93//93 54//54
f 94//94 96//96 55//55
f 97//97 99//99 56//56
f 100//100 102//102 57//57
f 103//103 105//105 58//58
f 106//106 108//108 60//60
f 109//109 111//111 62//62
f 112//112 114//114 64//64
f 115//115 117//117 66//66
f 88//88 119//119 68//68
f 91//91 121//121 69//69
f 94//94 123//123 70//70
f 97//97 125//125 71//71
f 100//100 127//127 72//72
f 130//130 74//74 46//46
f 132//132 77//77 48//48
f 134//134 80//80 50//50
f 136//136 83//83 52//52
f 128//128 86//86 44//44
f 158//158 89//89 42//42
f 159//159 92//92 30//30
f 160//160 95//95 33//33
f 161//161 98//98 36//36
f 162//162 101//101 39//39
f 145//145 104//104 61//61
f 147//147 107//107 63//63
f 149//149 110//110 65//65
f 151//151 113//113 67//67
f 143//143 116//116 59//59
f 159//159 118//118 12//12
f 160//160 120//120 15//15
f 161//161 122//122 18//18
f 162//162 124//124 21//21
f 158//158 126//126 9//9
f 130//130 129//129 74//74
f 132//132 131//131 77//77
f 134//134 133//133 80//80
f 136//136 135//135 83//83
f 128//128 137//137 86//86
f 158//158 138//138 89//89
f 159//159 139//139 92//92
f 160//160 140//140 95//95
f 161//161 141//141 98//98
f 162//162 142//142 101//101
f 145//145 144//144 104//104
f 147//147 146//146 107//107
f 149//149 148//148 110//110
f 151//151 150//150 113//113
f 143//143 152//152 116//116
f 159//159 153//153 118//118
f 160//160 154//154 120//120
f 161//161 155//155 122//122
f 162//162 156//156 124//124
f 158//158 157//157 126//126
f 130//130 3//3 129//129
f 132//132 4//4 131//131
f 134//134 5//5 133//133
f 136//136 6//6 135//135
f 128//128 2//2 137//137
f 158//158 9//9 138//138
f 159//159 12//12 139//139
f 160//160 15//15 140//140
f 161//161 18//18 141//141
f 162//162 21//21 142//142
f 145//145 24//24 144//144
f 147//147 25//25 146//146
f 149//149 26//26 148//148
f 151//151 27//27 150//150
f 143//143 23//23 152//152
f 159//159 30//30 153//153
f 160//160 33//33 154//154
f 161//161 36//36 155//155
f 162//162 39//39 156//156
f 158//158 42//42 157//157
f 128//128 44//44 75//75
f 130//130 46//46 78//78
f 132//132 48//48 81//81
f 134//134 50//50 84//84
f 136//136 52//52 87//87
f 76//76 45//45 90//90
f 73//73 43//43 93//93
f 85//85 51//51 96//96
f 82//82 49//49 99//99
f 79//79 47//47 102//102
f 143//143 59//59 105//105
f 145//145 61//61 108//108
f 147//147 63//63 111//111
f 149//149 65//65 114//114
f 151//151 67//67 117//117
f 103//103 58//58 119//119
f 106//106 60//60 121//121
f 109//109 62//62 123//123
f 112//112 64//64 125//125
f 115//115 66//66 127//127
f 73//73 11//11 74//74
f 76//76 8//8 77//77
f 79//79 20//20 80//80
f 82//82 17//17 83//83
f 85//85 14//14 86//86
f 88//88 68//68 89//89
f 91//91 69//69 92//92
f 94//94 70//70 95//95
f 97//97 71//71 98//98
f 100//100 72//72 101//101
f 103//103 29//29 104//104
f 106//106 32//32 107//107
f 109//109 35//35 110//110
f 112//112 38//38 113//113
f 115//115 41//41 116//116
f 88//88 53//53 118//118
f 91//91 54//54 120//120
f 94//94 55//55 122//122
f 97//97 56//56 124//124
f 100//100 57//57 126//126
f 128//128 75//75 129//129
f 130//130 78//78 131//131
f 132//132 81//81 133//133
f 134//134 84//84 135//135
f 136//136 87//87 137//137
f 76//76 90//90 138//138
f 73//73 93//93 139//139
f 85//85 96//96 140//140
f 82//82 99//99 141//141
f 79//79 102//102 142//142
f 143//143 105//105 144//144
f 145//145 108//108 146//146
f 147//147 111//111 148//148
f 149//149 114//114 150//150
f 151//151 117//117 152//152
f 103//103 119//119 153//153
f 106//106 121//121 154//154
f 109//109 123//123 155//155
f 112//112 125//125 156//156
f 115//115 127//127 157//157
f 129//129 3//3 2//2
f 131//131 4//4 3//3
f 133//133 5//5 4//4
f 135//135 6//6 5//5
f 137//137 2//2 6//6
f 138//138 9//9 8//8
f 139//139 12//12 11//11
f 140//140 15//15 14//14
f 141//141 18//18 17//17
f 142//142 21//21 20//20
f 144//144 24//24 23//23
f 146//146 25//25 24//24
f 148//148 26//26 25//25
f 150//150 27//27 26//26
f 152//152 23//23 27//27
f 153//153 30//30 29//29
f 154//154 33//33 32//32
f 155//155 36//36 35//35
f 156//156 39//39 38//38
f 157//157 42//42 41//41
f 75//75 44//44 43//43
f 78//78 46//46 45//45
f 81//81 48//48 47//47
f 84//84 50//50 49//49
f 87//87 52//52 51//51
f 90//90 45//45 53//53
f 93//93 43//43 54//54
f 96//96 51//51 55//55
f 99//99 49//49 56//56
f 102//102 47//47 57//57
f 105//105 59//59 58//58
f 108//108 61//61 60//60
f 111//111 63//63 62//62
f 114//114 65//65 64//64
f 117//117 67//67 66//66
f 119//119 58//58 68//68
f 121//121 60//60 69//69
f 123//123 62//62 70//70
f 125//125 64//64 71//71
f 127//127 66//66 72//72
f 74//74 11//11 46//46
f 77//77 8//8 48//48
f 80//80 20//20 50//50
f 83//83 17//17 52//52
f 86//86 14//14 44//44
f 89//89 68//68 42//42
f 92//92 69//69 30//30
f 95//95 70//70 33//33
f 98//98 71//71 36//36
f 101//101 72//72 39//39
f 104//104 29//29 61//61
f 107//107 32//32 63//63
f 110//110 35//35 65//65
f 113//113 38//38 67//67
f 116//116 41//41 59//59
f 118//118 53//53 12//12
f 120//120 54//54 15//15
f 122//122 55//55 18//18
f 124//124 56//56 21//21
f 126//126 57//57 9//9
f 129//129 75//75 74//74
f 131//131 78//78 77//77
f 133//133 81//81 80//80
f 135//135 84//84 83//83
f 137//137 87//87 86//86
f 138//138 90//90 89//89
f 139//139 93//93 92//92
f 140//140 96//96 95//95
f 141//141 99//99 98//98
f 142//142 102//102 101//101
f 144//144 105//105 104//104
f 146//146 108//108 107//107
f 148//148 111//111 110//110
f 150//150 114//114 113//113
f 152//152 117//117 116//116
f 153//153 119//119 118//118
f 154//154 121//121 120//120
f 155//155 123//123 122//122
f 156//156 125//125 124//124
f 157//157 127//127 126//126
