# Created by Open3D 
# object name: part_062
# number of vertices: 162
# number of triangles: 320
v 0.75159 6.07762 1.46118
vn -0.100943 0.992505 -0.0688866
v 0.746483 6.07763 1.48144
vn -0.350087 0.936649 -0.0113207
v 0.755633 6.07889 1.48199
vn -0.0158359 0.999856 0.00615212
v 0.763708 6.0777 1.46114
vn 0.0869673 0.993546 -0.0728258
v 0.754915 6.0764 1.44713
vn -0.0199429 0.983367 -0.180531
v 0.745799 6.07526 1.44822
vn -0.355227 0.927626 -0.115428
v 1.13 6.03912 1.45615
vn 0.296902 0.952022 -0.0741849
v 1.12685 6.04112 1.47705
vn 0.217014 0.976164 0.00303773
v 1.13554 6.03804 1.47627
vn 0.531127 0.846979 -0.0230528
v 0.940783 6.05516 1.48208
vn 0.0278402 0.14425 0.98915
v 0.764257 6.07123 1.48459
vn 0.0230878 0.113892 0.993225
v 0.940159 6.04894 1.48278
vn 0.0209986 0.0760039 0.996886
v 0.732302 5.97681 1.49105
vn -0.223262 0.0938797 0.970227
v 0.729822 5.97698 1.48989
vn -0.968071 0.113982 0.223263
v 0.722767 5.88503 1.49745
vn -0.379103 0.0925876 0.920711
v 0.731532 5.97414 1.45364
vn -0.263068 -0.0443942 -0.963755
v 0.744112 6.06119 1.44663
vn -0.122708 -0.0583376 -0.990727
v 0.726482 5.88624 1.4595
vn -0.123146 -0.0626405 -0.99041
v 0.900891 6.05633 1.44335
vn -0.0130999 0.00202158 -0.999912
v 1.10831 6.03805 1.44076
vn -0.00164331 0.104202 -0.994555
v 1.11612 6.03254 1.44059
vn -0.0148413 -0.0291045 -0.999466
v 1.10918 5.83243 1.47135
vn 0.100934 -0.992505 0.0688868
v 1.11511 5.83529 1.49118
vn 0.352078 -0.929758 0.107667
v 1.10599 5.83415 1.49228
vn 0.0189945 -0.988864 0.147606
v 1.09707 5.83239 1.47182
vn -0.0869653 -0.993546 0.0728259
v 1.10528 5.83166 1.45741
vn 0.0154099 -0.9991 -0.0395282
v 1.11443 5.83292 1.45796
vn 0.352933 -0.935643 0.00321563
v 0.920934 5.85819 1.49657
vn 0.0131001 -0.00201921 0.999912
v 1.09746 5.84212 1.49411
vn 0.0179243 0.0285778 0.999431
v 0.921567 5.86445 1.49636
vn 0.0200505 0.0665929 0.997579
v 0.730762 5.87094 1.47639
vn -0.29691 -0.952019 0.0741847
v 0.734775 5.87192 1.49722
vn -0.213865 -0.965167 0.150712
v 0.726051 5.87488 1.49636
vn -0.529129 -0.840099 0.119397
v 0.881041 5.85936 1.45784
vn -0.0278396 -0.144243 -0.989151
v 0.751803 5.86974 1.46014
vn -0.0391935 -0.247068 -0.968205
v 0.743976 5.8752 1.4595
vn -0.0269708 -0.113827 -0.993134
v 1.12861 5.93373 1.44836
vn 0.223263 -0.0938798 -0.970227
v 1.11601 5.84661 1.45432
vn 0.0818819 -0.083503 -0.993138
v 1.13364 6.02155 1.44145
vn 0.0823112 -0.0791993 -0.993455
v 1.12938 5.93641 1.48576
vn 0.263065 0.0443945 0.963756
v 1.13181 5.93607 1.48454
vn 0.976727 -0.0839063 0.197392
v 1.1389 6.02814 1.47865
vn 0.416736 0.0381768 0.908226
v 0.744903 6.06394 1.48509
vn -0.0818812 0.0835029 0.993138
v 0.741266 6.0686 1.48394
vn -0.376443 0.118885 0.91878
v 1.10911 6.0408 1.47927
vn 0.0389618 0.245716 0.968559
v 0.773003 6.075 1.48374
vn 0.036842 0.245936 0.968586
v 1.12613 6.03863 1.44219
vn 0.21281 0.959685 -0.183622
v 1.11815 6.04163 1.45643
vn 0.113012 0.990896 -0.0731724
v 0.763448 6.06842 1.44529
vn -0.0183427 -0.0282048 -0.999434
v 0.77221 6.07225 1.44524
vn -0.00351568 0.106971 -0.994256
v 0.729101 5.97447 1.45486
vn -0.956215 0.0755599 -0.282742
v 0.740511 6.06598 1.44725
vn -0.41409 -0.0118773 -0.910158
v 1.11693 6.03535 1.4799
vn 0.0264877 0.113553 0.993179
v 0.727274 5.88899 1.49796
vn -0.0823105 0.0791992 0.993455
v 0.722012 5.88241 1.46075
vn -0.416742 -0.0381762 -0.908223
v 0.899774 6.05013 1.44357
vn -0.0200506 -0.0665933 -0.997579
v 1.13486 6.03567 1.44304
vn 0.531603 0.837384 -0.127229
v 1.1168 5.84936 1.49277
vn 0.122708 0.0583375 0.990727
v 1.1204 5.84457 1.49216
vn 0.414083 0.0118785 0.910161
v 0.752595 5.87249 1.49864
vn 0.00144037 -0.105361 0.994433
v 1.0887 5.8383 1.49417
vn 0.00356102 -0.105574 0.994405
v 0.734058 5.86943 1.46235
vn -0.217334 -0.975417 -0.036424
v 0.742622 5.86846 1.47654
vn -0.113014 -0.990895 0.0731725
v 1.09665 5.83931 1.45481
vn -0.0233609 -0.113645 -0.993247
v 1.08791 5.83554 1.45566
vn -0.0368136 -0.244799 -0.968875
v 1.13109 5.93357 1.44951
vn 0.944053 -0.117798 -0.308037
v 1.11964 5.84195 1.45546
vn 0.376441 -0.118884 -0.918781
v 1.13443 6.0243 1.4799
vn 0.123146 0.0626404 0.99041
v 0.744785 5.87801 1.49881
vn 0.0145249 0.0289206 0.999476
v 0.725367 5.8725 1.46314
vn -0.533903 -0.845412 0.0150222
v 0.881182 5.86563 1.45715
vn -0.0209986 -0.0760033 -0.996886
v 1.13814 6.02552 1.44196
vn 0.379101 -0.0925877 -0.920712
v 0.752005 6.06921 1.48486
vn -0.0131231 0.0821196 0.996536
v 0.755645 6.07509 1.48405
vn -0.00650689 0.214936 0.976606
v 0.746187 6.07282 1.48411
vn -0.0972949 0.186532 0.977619
v 1.12061 6.04117 1.47836
vn 0.0751778 0.532451 0.843115
v 1.10959 6.0439 1.47722
vn 0.103933 0.994573 0.00484794
v 0.941253 6.05995 1.4808
vn 0.0663174 0.542212 0.837621
v 1.11985 6.03851 1.44114
vn 0.0377487 0.408471 -0.91199
v 0.903235 6.06107 1.44389
vn 0.0303868 0.417403 -0.908213
v 1.10887 6.04141 1.44232
vn 0.0995157 0.976204 -0.192673
v 0.751201 6.06642 1.44581
vn -0.0541523 -0.0603895 -0.996705
v 0.745408 6.07012 1.44628
vn -0.137777 0.0458987 -0.989399
v 0.754854 6.07234 1.44563
vn -0.0471105 0.0738749 -0.996154
v 0.728605 5.97554 1.46872
vn -0.994776 0.101221 0.0132373
v 0.739293 6.06878 1.48224
vn -0.988646 0.137895 0.0596955
v 0.738608 6.0664 1.44898
vn -0.990447 0.130184 -0.045454
v 1.12853 6.0309 1.47985
vn 0.0556353 0.0751232 0.995621
v 1.13493 6.03327 1.47893
vn 0.158584 0.160498 0.974213
v 1.12613 6.03739 1.47912
vn 0.0753717 0.2066 0.975518
v 0.733183 5.88244 1.4986
vn -0.0146138 0.0673869 0.99762
v 0.745499 5.88708 1.49834
vn 0.018707 0.0705027 0.997336
v 0.741649 5.97593 1.49184
vn -0.0130243 0.0746718 0.997123
v 0.722672 5.87611 1.4618
vn -0.824817 -0.464335 -0.322598
v 0.721919 5.87673 1.47598
vn -0.886759 -0.4594 0.0510981
v 0.720088 5.88262 1.4625
vn -0.997139 0.0637838 -0.0405701
v 0.890322 5.95789 1.45028
vn -0.0205249 -0.0713001 -0.997244
v 0.744682 5.88425 1.45865
vn -0.0228 -0.0720532 -0.99714
v 0.762332 6.05939 1.44576
vn -0.0226036 -0.0701028 -0.997284
v 1.13751 6.0319 1.44213
vn 0.809556 0.41135 -0.41882
v 1.13415 6.03056 1.44111
vn 0.118084 0.0198563 -0.992805
v 1.1316 6.03567 1.4414
vn 0.180236 0.32006 -0.930095
v 1.10971 5.84413 1.49359
vn 0.0541523 0.0603895 0.996705
v 1.10605 5.83821 1.49378
vn 0.0471105 -0.073875 0.996154
v 1.1155 5.84043 1.49312
vn 0.137777 -0.0458983 0.989399
v 0.74106 5.87204 1.49826
vn -0.0390399 -0.406907 0.912635
v 0.75204 5.86914 1.49708
vn -0.100736 -0.983464 0.1505
v 0.920425 5.85327 1.49601
vn -0.0303868 -0.417403 0.908213
v 0.740294 5.86938 1.46104
vn -0.0770608 -0.530365 -0.84426
v 0.882407 5.85439 1.4591
vn -0.0663173 -0.542211 -0.837621
v 0.751322 5.86665 1.46218
vn -0.104368 -0.993974 -0.0335163
v 1.1089 5.84133 1.45454
vn 0.0131231 -0.0821196 -0.996536
v 1.11472 5.83772 1.4553
vn 0.0972949 -0.186532 -0.977619
v 1.10526 5.83546 1.45535
vn 0.00650692 -0.214936 -0.976606
v 1.13215 5.93448 1.46335
vn 0.994776 -0.101221 -0.0132382
v 1.1223 5.84414 1.49042
vn 0.99066 -0.130898 0.0381774
v 1.12162 5.84177 1.45716
vn 0.988133 -0.138224 -0.0669905
v 1.11623 6.0263 1.48075
vn 0.0223429 0.0720966 0.997147
v 1.12007 5.93742 1.48681
vn 0.0540524 0.0678464 0.996231
v 0.726754 5.87998 1.49829
vn -0.118084 -0.0198566 0.992805
v 0.735573 5.87591 1.49871
vn -0.0347658 -0.0655444 0.997244
v 0.725975 5.87728 1.46047
vn -0.158583 -0.160497 -0.974214
v 0.728551 5.87226 1.46138
vn -0.217221 -0.448522 -0.866973
v 1.11541 6.02346 1.44106
vn -0.0190057 -0.0704744 -0.997333
v 1.09776 5.84832 1.45395
vn -0.0192014 -0.0724146 -0.99719
v 1.13884 6.0333 1.45621
vn 0.886758 0.459402 -0.0510985
v 1.14014 6.02555 1.44364
vn 0.994824 -0.0718228 -0.0718758
v 0.743152 6.07463 1.48286
vn -0.736441 0.631708 0.242072
v 0.749696 6.07722 1.48311
vn -0.0995295 0.480744 0.871194
v 0.761784 6.07768 1.48313
vn 0.0558205 0.534409 0.843381
v 0.773102 6.07814 1.4817
vn 0.0986537 0.99511 0.00492911
v 0.940963 6.06004 1.45831
vn 0.099999 0.992306 -0.0730048
v 0.772383 6.07564 1.4468
vn 0.0944933 0.979359 -0.178678
v 0.761018 6.07502 1.44591
vn 0.0174104 0.407103 -0.913216
v 0.748942 6.07461 1.44649
vn -0.136524 0.35226 -0.925891
v 0.742422 6.0721 1.44739
vn -0.720884 0.567051 -0.398472
v 0.741769 6.0737 1.46149
vn -0.777117 0.62869 -0.028955
v 1.13236 6.03829 1.47802
vn 0.217221 0.448522 0.866973
v 0.763149 6.06223 1.48545
vn 0.0189029 0.0724466 0.997193
v 0.720773 5.885 1.49576
vn -0.995369 0.0711867 0.0646035
v 0.740841 5.97312 1.45259
vn -0.0540523 -0.0678464 -0.996231
v 1.12534 6.03464 1.4407
vn 0.0347657 0.0655443 -0.997244
v 1.11849 5.83845 1.49202
vn 0.747577 -0.593024 0.299083
v 1.11197 5.83594 1.49291
vn 0.136524 -0.35226 0.925891
v 1.09989 5.83552 1.49349
vn -0.0196873 -0.408918 0.912359
v 1.08853 5.8349 1.4926
vn -0.0954548 -0.984002 0.150426
v 0.919795 5.84999 1.47376
vn -0.0999984 -0.992306 0.0730049
v 1.08781 5.83241 1.4577
vn -0.0990233 -0.993938 -0.0477579
v 1.09912 5.83286 1.45627
vn -0.0573872 -0.535574 -0.842536
v 1.11121 5.83332 1.45629
vn 0.0995295 -0.480744 -0.871194
v 1.11776 5.83591 1.45655
vn 0.705625 -0.620061 -0.342954
v 1.11899 5.83633 1.4707
vn 0.777114 -0.628693 0.0289552
v 1.09858 5.85116 1.49364
vn 0.0221468 0.0701521 0.99729
v 0.729304 5.87488 1.498
vn -0.180235 -0.320059 0.930096
v 0.734782 5.87316 1.46028
vn -0.0753718 -0.2066 -0.975518
v 1.11926 5.93462 1.44756
vn 0.0130244 -0.0746718 -0.997123
v 1.14082 6.02792 1.4769
vn 0.997383 -0.0641883 0.0332704
v 1.13824 6.03443 1.4776
vn 0.854681 0.469812 0.220899
v 0.930865 5.9567 1.48965
vn 0.0205248 0.0712997 0.997244
v 0.723402 5.87865 1.49727
vn -0.843536 -0.431141 0.320256
v 0.732379 5.87965 1.45955
vn -0.0556352 -0.0751232 -0.995621
v 1.12773 6.02811 1.4408
vn 0.0146138 -0.0673869 -0.99762
f 1//1 2//2 3//3
f 1//1 3//3 4//4
f 1//1 4//4 5//5
f 1//1 5//5 6//6
f 1//1 6//6 2//2
f 7//7 8//8 9//9
f 10//10 11//11 12//12
f 13//13 14//14 15//15
f 16//16 17//17 18//18
f 19//19 20//20 21//21
f 22//22 23//23 24//24
f 22//22 24//24 25//25
f 22//22 25//25 26//26
f 22//22 26//26 27//27
f 22//22 27//27 23//23
f 28//28 29//29 30//30
f 31//31 32//32 33//33
f 34//34 35//35 36//36
f 37//37 38//38 39//39
f 40//40 41//41 42//42
f 13//13 43//43 44//44
f 10//10 45//45 46//46
f 7//7 47//47 48//48
f 19//19 49//49 50//50
f 16//16 51//51 52//52
f 10//10 53//53 45//45
f 13//13 54//54 43//43
f 16//16 55//55 51//51
f 19//19 56//56 49//49
f 7//7 57//57 47//47
f 40//40 58//58 59//59
f 28//28 60//60 61//61
f 31//31 62//62 63//63
f 34//34 64//64 65//65
f 37//37 66//66 67//67
f 40//40 68//68 58//58
f 28//28 69//69 60//60
f 31//31 70//70 62//62
f 34//34 71//71 64//64
f 37//37 72//72 66//66
f 10//10 46//46 11//11
f 7//7 48//48 8//8
f 19//19 50//50 20//20
f 16//16 52//52 17//17
f 13//13 44//44 14//14
f 40//40 42//42 68//68
f 28//28 30//30 69//69
f 31//31 33//33 70//70
f 34//34 36//36 71//71
f 37//37 39//39 72//72
f 28//28 61//61 29//29
f 31//31 63//63 32//32
f 34//34 65//65 35//35
f 37//37 67//67 38//38
f 40//40 59//59 41//41
f 10//10 12//12 53//53
f 13//13 15//15 54//54
f 16//16 18//18 55//55
f 19//19 21//21 56//56
f 7//7 9//9 57//57
f 73//73 74//74 75//75
f 76//76 77//77 78//78
f 79//79 80//80 81//81
f 82//82 83//83 84//84
f 85//85 86//86 87//87
f 88//88 89//89 90//90
f 91//91 92//92 93//93
f 94//94 95//95 96//96
f 97//97 98//98 99//99
f 100//100 101//101 102//102
f 103//103 104//104 105//105
f 106//106 107//107 108//108
f 109//109 110//110 111//111
f 112//112 113//113 114//114
f 115//115 116//116 117//117
f 88//88 118//118 119//119
f 91//91 120//120 121//121
f 94//94 122//122 123//123
f 97//97 124//124 125//125
f 100//100 126//126 127//127
f 128//128 129//129 2//2
f 130//130 131//131 3//3
f 132//132 133//133 4//4
f 134//134 135//135 5//5
f 136//136 137//137 6//6
f 76//76 138//138 8//8
f 73//73 139//139 11//11
f 85//85 140//140 14//14
f 82//82 141//141 17//17
f 79//79 142//142 20//20
f 143//143 144//144 23//23
f 145//145 146//146 24//24
f 147//147 148//148 25//25
f 149//149 150//150 26//26
f 151//151 152//152 27//27
f 103//103 153//153 29//29
f 106//106 154//154 32//32
f 109//109 155//155 35//35
f 112//112 156//156 38//38
f 115//115 157//157 41//41
f 73//73 75//75 43//43
f 76//76 78//78 45//45
f 79//79 81//81 47//47
f 82//82 84//84 49//49
f 85//85 87//87 51//51
f 88//88 90//90 53//53
f 91//91 93//93 54//54
f 94//94 96//96 55//55
f 97//97 99//99 56//56
f 100//100 102//102 57//57
f 103//103 105//105 58//58
f 106//106 108//108 60//60
f 109//109 111//111 62//62
f 112//112 114//114 64//64
f 115//115 117//117 66//66
f 88//88 119//119 68//68
f 91//91 121//121 69//69
f 94//94 123//123 70//70
f 97//97 125//125 71//71
f 100//100 127//127 72//72
f 130//130 74//74 46//46
f 132//132 77//77 48//48
f 134//134 80//80 50//50
f 136//136 83//83 52//52
f 128//128 86//86 44//44
f 158//158 89//89 42//42
f 159//159 92//92 30//30
f 160//160 95//95 33//33
f 161//161 98//98 36//36
f 162//162 101//101 39//39
f 145//145 104//104 61//61
f 147//147 107//107 63//63
f 149//149 110//110 65//65
f 151//151 113//113 67//67
f 143//143 116//116 59//59
f 159//159 118//118 12//12
f 160//160 120//120 15//15
f 161//161 122//122 18//18
f 162//162 124//124 21//21
f 158//158 126//126 9//9
f 130//130 129//129 74//74
f 132//132 131//131 77//77
f 134//134 133//133 80//80
f 136//136 135//135 83//83
f 128//128 137//137 86//86
f 158//158 138//138 89//89
f 159//159 139//139 92//92
f 160//160 140//140 95//95
f 161//161 141//141 98//98
f 162//162 142//142 101//101
f 145//145 144//144 104//104
f 147//147 146//146 107//107
f 149//149 148//148 110//110
f 151//151 150//150 113//113
f 143//143 152//152 116//116
f 159//159 153//153 118//118
f 160//160 154//154 120//120
f 161//161 155//155 122//122
f 162//162 156//156 124//124
f 158//158 157//157 126//126
f 130//130 3//3 129//129
f 132//132 4//4 131//131
f 134//134 5//5 133//133
f 136//136 6//6 135//135
f 128//128 2//2 137//137
f 158//158 9//9 138//138
f 159//159 12//12 139//139
f 160//160 15//15 140//140
f 161//161 18//18 141//141
f 162//162 21//21 142//142
f 145//145 24//24 144//144
f 147//147 25//25 146//146
f 149//149 26//26 148//148
f 151//151 27//27 150//150
f 143//143 23//23 152//152
f 159//159 30//30 153//153
f 160//160 33//33 154//154
f 161//161 36//36 155//155
f 162//162 39//39 156//156
f 158//158 42//42 157//157
f 128//128 44//44 75//75
f 130//130 46//46 78//78
f 132//132 48//48 81//81
f 134//134 50//50 84//84
f 136//136 52//52 87//87
f 76//76 45//45 90//90
f 73//73 43//43 93//93
f 85//85 51//51 96//96
f 82//82 49//49 99//99
f 79//79 47//47 102//102
f 143//143 59//59 105//105
f 145//145 61//61 108//108
f 147//147 63//63 111//111
f 149//149 65//65 114//114
f 151//151 67//67 117//117
f 103//103 58//58 119//119
f 106//106 60//60 121//121
f 109//109 62//62 123//123
f 112//112 64//64 125//125
f 115//115 66//66 127//127
f 73//73 11//11 74//74
f 76//76 8//8 77//77
f 79//79 20//20 80//80
f 82//82 17//17 83//83
f 85//85 14//14 86//86
f 88//88 68//68 89//89
f 91//91 69//69 92//92
f 94//94 70//70 95//95
f 97//97 71//71 98//98
f 100//100 72//72 101//101
f 103//103 29//29 104//104
f 106//106 32//32 107//107
f 109//109 35//35 110//110
f 112//112 38//38 113//113
f 115//115 41//41 116//116
f 88//88 53//53 118//118
f 91//91 54//54 120//120
f 94//94 55//55 122//122
f 97//97 56//56 124//124
f 100//100 57//57 126//126
f 128//128 75//75 129//129
f 130//130 78//78 131//131
f 132//132 81//81 133//133
f 134//134 84//84 135//135
f 136//136 87//87 137//137
f 76//76 90//90 138//138
f 73//73 93//93 139//139
f 85//85 96//96 140//140
f 82//82 99//99 141//141
f 79//79 102//102 142//142
f 143//143 105//105 144//144
f 145//145 108//108 146//146
f 147//147 111//111 148//148
f 149//149 114//114 150//150
f 151//151 117//117 152//152
f 103//103 119//119 153//153
f 106//106 121//121 154//154
f 109//109 123//123 155//155
f 112//112 125//125 156//156
f 115//115 127//127 157//157
f 129//129 3//3 2//2
f 131//131 4//4 3//3
f 133//133 5//5 4//4
f 135//135 6//6 5//5
f 137//137 2//2 6//6
f 138//138 9//9 8//8
f 139//139 12//12 11//11
f 140//140 15//15 14//14
f 141//141 18//18 17//17
f 142//142 21//21 20//20
f 144//144 24//24 23//23
f 146//146 25//25 24//24
f 148//148 26//26 25//25
f 150//150 27//27 26//26
f 152//152 23//23 27//27
f 153//153 30//30 29//29
f 154//154 33//33 32//32
f 155//155 36//36 35//35
f 156//156 39//39 38//38
f 157//157 42//42 41//41
f 75//75 44//44 43//43
f 78//78 46//46 45//45
f 81//81 48//48 47//47
f 84//84 50//50 49//49
f 87//87 52//52 51//51
f 90//90 45//45 53//53
f 93//93 43//43 54//54
f 96//96 51//51 55//55
f 99//99 49//49 56//56
f 102//102 47//47 57//57
f 105//105 59//59 58//58
f 108//108 61//61 60//60
f 111//111 63//63 62//62
f 114//114 65//65 64//64
f 117//117 67//67 66//66
f 119//119 58//58 68//68
f 121//121 60//60 69//69
f 123//123 62//62 70//70
f 125//125 64//64 71//71
f 127//127 66//66 72//72
f 74//74 11//11 46//46
f 77//77 8//8 48//48
f 80//80 20//20 50//50
f 83//83 17//17 52//52
f 86//86 14//14 44//44
f 89//89 68//68 42//42
f 92//92 69//69 30//30
f 95//95 70//70 33//33
f 98//98 71//71 36//36
f 101//101 72//72 39//39
f 104//104 29//29 61//61
f 107//107 32//32 63//63
f 110//110 35//35 65//65
f 113//113 38//38 67//67
f 116//116 41//41 59//59
f 118//118 53//53 12//12
f 120//120 54//54 15//15
f 122//122 55//55 18//18
f 124//124 56//56 21//21
f 126//126 57//57 9//9
f 129//129 75//75 74//74
f 131//131 78//78 77//77
f 133//133 81//81 80//80
f 135//135 84//84 83//83
f 137//137 87//87 86//86
f 138//138 90//90 89//89
f 139//139 93//93 92//92
f 140//140 96//96 95//95
f 141//141 99//99 98//98
f 142//142 102//102 101//101
f 144//144 105//105 104//104
f 146//146 108//108 107//107
f 148//148 111//111 110//110
f 150//150 114//114 113//113
f 152//152 117//117 116//116
f 153//153 119//119 118//118
f 154//154 121//121 120//120
f 155//155 123//123 122//122
f 156//156 125//125 124//124
f 157//157 127//127 126//126
