# Created by Open3D 
# object name: part_046
# number of vertices: 162
# number of triangles: 320
v 1.07094 4.97786 1.04134
vn 0.0203028 -0.181051 -0.983264
v 1.07655 4.95763 1.04567
vn 0.129318 -0.217255 -0.967511
v 1.06415 4.95783 1.04522
vn -0.0170003 -0.219314 -0.975506
v 1.0544 4.97913 1.04141
vn -0.0545617 -0.174326 -0.983175
v 1.06722 4.99208 1.03897
vn -0.00784889 -0.118577 -0.992914
v 1.07948 4.99028 1.03972
vn 0.136337 -0.156346 -0.978248
v 0.550754 5.0286 1.06396
vn -0.139316 -0.165482 -0.976323
v 0.553858 5.0076 1.06741
vn -0.109567 -0.210286 -0.971481
v 0.541736 5.0098 1.06893
vn -0.2515 -0.180111 -0.950951
v 0.808974 4.98103 1.05939
vn -0.0950708 -0.994483 0.0443302
v 1.05143 4.95754 1.04986
vn -0.0910133 -0.990753 0.100619
v 0.809156 4.98138 1.06279
vn -0.0883351 -0.98147 0.170039
v 1.08519 4.96468 1.10029
vn 0.0929178 -0.981414 0.16791
v 1.08867 4.96551 1.09993
vn 0.928284 -0.371754 0.00936323
v 1.0886 4.97371 1.14955
vn 0.217428 -0.958922 0.182191
v 1.08848 5.00144 1.09359
vn 0.265669 0.946439 -0.183501
v 1.08048 4.99415 1.04671
vn 0.162018 0.969231 -0.185315
v 1.08619 5.01077 1.14074
vn 0.162498 0.970624 -0.177434
v 0.866157 5.01436 1.05003
vn 0.0789535 0.947549 -0.309704
v 0.581296 5.0415 1.06099
vn 0.064057 0.876541 -0.477046
v 0.570092 5.04345 1.06391
vn 0.0818488 0.963447 -0.255088
v 0.557501 5.04824 1.17505
vn -0.0203015 0.18105 0.983264
v 0.548355 5.02907 1.1779
vn -0.134362 0.160963 0.977772
v 0.560614 5.02727 1.17865
vn 0.00959711 0.136681 0.990569
v 0.573997 5.04654 1.17506
vn 0.0545618 0.174326 0.983175
v 0.563684 5.06153 1.1724
vn 0.0184709 0.237104 0.971309
v 0.55128 5.06172 1.17195
vn -0.130452 0.222013 0.966278
v 0.815403 4.99975 1.16526
vn -0.0789517 -0.947541 0.309729
v 0.572938 5.02319 1.1748
vn -0.0840746 -0.963129 0.255565
v 0.815178 4.99892 1.16195
vn -0.0872919 -0.978433 0.187216
v 1.07768 4.99751 1.15243
vn 0.139314 0.165482 0.976323
v 1.07091 4.9775 1.15646
vn 0.10216 0.127653 0.986543
v 1.08317 4.97691 1.15465
vn 0.246456 0.12382 0.961212
v 0.872587 5.03308 1.15589
vn 0.0950725 0.994484 -0.0442935
v 1.04993 5.01569 1.14974
vn 0.10302 0.984485 0.142045
v 1.0612 5.01453 1.14668
vn 0.0938386 0.99054 -0.10012
v 0.542647 5.05467 1.11733
vn -0.0929175 0.981414 -0.16791
v 0.550738 5.063 1.16402
vn 0.0131007 0.985194 -0.170942
v 0.545027 5.04637 1.07
vn 0.0126231 0.983801 -0.178816
v 0.539353 5.01792 1.12403
vn -0.265668 -0.94644 0.183501
v 0.536081 5.01941 1.12396
vn -0.978247 -0.185793 0.0922683
v 0.536005 5.00958 1.07465
vn -0.384846 -0.909297 0.158344
v 1.0771 4.95635 1.0536
vn -0.0131005 -0.985194 0.170942
v 1.0826 4.95627 1.05088
vn 0.214399 -0.967746 0.132293
v 0.577906 5.00367 1.06788
vn -0.102885 -0.98483 -0.139732
v 1.03993 4.9586 1.04779
vn -0.101399 -0.984973 -0.13981
v 0.556928 5.04186 1.06116
vn -0.100578 -0.109531 -0.988882
v 0.567167 5.02666 1.0626
vn -0.0648346 -0.173323 -0.982729
v 1.0549 4.99616 1.04282
vn 0.0843601 0.962943 -0.256172
v 1.04332 4.99644 1.0409
vn 0.065182 0.874308 -0.480975
v 1.09175 4.99994 1.09366
vn 0.949086 0.295242 -0.109853
v 1.08584 4.99233 1.04431
vn 0.381846 0.900457 -0.208259
v 0.566631 5.00482 1.07095
vn -0.0934769 -0.99051 0.100756
v 1.08281 4.97298 1.14763
vn -0.0126229 -0.983801 0.178816
v 1.09183 5.00977 1.14297
vn 0.384846 0.909297 -0.158344
v 0.867047 5.01513 1.05331
vn 0.0872915 0.978431 -0.187223
v 0.544662 5.04245 1.06298
vn -0.247536 -0.118905 -0.961555
v 0.547352 5.02521 1.17091
vn -0.162018 -0.969231 0.185315
v 0.541997 5.02703 1.17331
vn -0.381844 -0.900457 0.20826
v 1.04654 4.97785 1.15664
vn -0.0638236 -0.875562 0.478871
v 0.584516 5.02291 1.17673
vn -0.0653118 -0.875425 0.478921
v 1.07398 5.01176 1.15021
vn 0.1112 0.22806 0.967276
v 1.06123 4.99902 1.15387
vn 0.0648347 0.173323 0.982729
v 0.576399 5.06181 1.16776
vn 0.0912089 0.9907 -0.10097
v 0.587907 5.06075 1.16983
vn 0.101396 0.985264 0.137746
v 0.539167 5.05384 1.11769
vn -0.880179 0.473673 -0.0303075
v 0.545229 5.06309 1.16674
vn -0.2144 0.967745 -0.132293
v 0.541641 5.00858 1.07688
vn -0.162497 -0.970624 0.177434
v 1.05774 4.9759 1.15372
vn -0.0816086 -0.963372 0.255449
v 1.0861 5.00955 1.14869
vn 0.253419 0.18457 0.949585
v 0.873069 5.03266 1.15247
vn 0.0883356 0.981471 -0.170032
v 0.539236 5.04564 1.06808
vn -0.217428 0.958922 -0.182192
v 1.06794 4.95637 1.05086
vn -0.063609 -0.984404 0.164023
v 1.06361 4.95649 1.04765
vn -0.0710094 -0.994355 -0.0788374
v 1.0763 4.95587 1.04876
vn -0.00501614 -0.999857 -0.0161425
v 0.56229 5.00567 1.06761
vn -0.110047 -0.817275 -0.565642
v 0.577696 5.00515 1.06583
vn -0.064408 -0.215073 -0.974472
v 0.808896 4.98147 1.05662
vn -0.104127 -0.810729 -0.576087
v 0.565567 5.04225 1.06094
vn 0.0152337 0.571832 -0.820229
v 0.863393 5.01324 1.04769
vn 0.0189514 0.562745 -0.826413
v 0.580769 5.03945 1.05958
vn -0.0548755 -0.108931 -0.992533
v 1.07138 4.99475 1.04387
vn 0.111957 0.97477 -0.193103
v 1.07963 4.99304 1.04198
vn 0.16665 0.915829 -0.365355
v 1.067 4.99425 1.04077
vn 0.0987662 0.900185 -0.424161
v 1.09161 4.98622 1.09609
vn 0.994346 -0.0969851 -0.0432397
v 1.08543 4.95768 1.0504
vn 0.977537 -0.177027 -0.114381
v 1.08836 4.99037 1.04444
vn 0.989557 -0.0353787 -0.139735
v 0.550355 5.00685 1.07337
vn -0.113597 -0.979529 0.166191
v 0.54191 5.00799 1.072
vn -0.189323 -0.981881 -0.00812393
v 0.554334 5.00617 1.0698
vn -0.129168 -0.988685 -0.0762758
v 1.07404 4.97412 1.15125
vn -0.0619642 -0.979646 0.190929
v 1.05771 4.97483 1.14888
vn -0.0864591 -0.979795 0.180353
v 1.07228 4.96502 1.10102
vn -0.0634073 -0.982072 0.17752
v 1.09023 5.00993 1.14649
vn 0.552224 0.407369 0.727392
v 1.09036 4.99596 1.14923
vn 0.56387 0.0989272 0.819917
v 1.09436 5.00783 1.14322
vn 0.999637 -0.0060275 0.0262458
v 0.870276 5.02395 1.10286
vn 0.0878169 0.979989 -0.178634
v 1.0612 5.01383 1.14177
vn 0.0895078 0.980147 -0.176921
v 1.05548 4.99718 1.04764
vn 0.0892912 0.979517 -0.180484
v 0.54073 5.04428 1.06477
vn -0.49642 0.215463 -0.840918
v 0.545241 5.04516 1.06522
vn -0.017662 0.933816 -0.357318
v 0.549215 5.04371 1.06259
vn -0.0684508 0.651622 -0.755449
v 0.556452 5.02461 1.17376
vn -0.111957 -0.97477 0.193103
v 0.560836 5.0251 1.17685
vn -0.0987661 -0.900185 0.424161
v 0.548205 5.02632 1.17564
vn -0.16665 -0.915829 0.365355
v 1.06227 4.97711 1.15668
vn -0.0145778 -0.573436 0.819121
v 1.04706 4.9799 1.15805
vn 0.0569695 0.132063 0.989603
v 0.815643 5.00112 1.1677
vn -0.0189518 -0.562749 0.826411
v 1.06554 5.01368 1.15002
vn 0.111313 0.818659 0.563389
v 0.87014 5.03288 1.15878
vn 0.104127 0.810723 0.576096
v 1.05014 5.0142 1.15179
vn 0.0657802 0.230248 0.970906
v 0.559891 5.06298 1.16676
vn 0.063609 0.984404 -0.164023
v 0.551536 5.06349 1.16887
vn 0.0050159 0.999857 0.0161415
v 0.56422 5.06286 1.16997
vn 0.0710093 0.994355 0.0788367
v 0.536873 5.04033 1.12022
vn -0.994346 0.096985 0.0432397
v 0.539474 5.02899 1.17318
vn -0.989341 0.0453004 0.138393
v 0.542403 5.06167 1.16722
vn -0.975999 0.18667 0.112158
v 0.566633 5.00552 1.07585
vn -0.0891746 -0.980179 0.176911
v 0.552094 5.01576 1.12364
vn -0.112175 -0.977316 0.17964
v 1.08259 4.97419 1.1524
vn 0.0176621 -0.933816 0.357318
v 1.07012 4.97542 1.15471
vn -0.0406127 -0.905844 0.421659
v 1.08592 5.01136 1.14563
vn 0.189324 0.981881 0.00812529
v 1.08184 5.01163 1.14847
vn 0.203263 0.852683 0.481265
v 0.570128 5.04452 1.06874
vn 0.0866761 0.979774 -0.18036
v 0.575845 5.06117 1.16288
vn 0.0868911 0.980401 -0.176817
v 0.538103 5.03048 1.0671
vn -0.563868 -0.0989282 -0.819918
v 0.536403 5.0442 1.06844
vn -0.98608 0.157319 -0.0538239
v 1.08071 4.95645 1.04751
vn 0.420861 -0.419494 -0.804301
v 1.07201 4.95641 1.04628
vn -0.00716378 -0.871789 -0.489829
v 1.05555 4.95756 1.04616
vn -0.0987083 -0.818405 -0.566101
v 1.04024 4.96004 1.04571
vn -0.0623213 -0.215277 -0.974562
v 0.810811 5.00329 1.05171
vn -0.059699 -0.173826 -0.982965
v 1.04332 4.99433 1.03946
vn -0.0534169 -0.116818 -0.991716
v 1.05883 4.99413 1.03949
vn 0.0274169 0.574427 -0.818097
v 1.07524 4.9924 1.03972
vn 0.127634 0.632475 -0.763993
v 1.08383 4.9913 1.04116
vn 0.454472 0.122718 -0.882267
v 1.08393 4.97724 1.04336
vn 0.461565 -0.198945 -0.86451
v 0.54599 5.00772 1.06915
vn -0.203263 -0.852681 -0.481269
v 1.05199 4.95818 1.05475
vn -0.0866751 -0.980422 0.176803
v 1.09143 4.97515 1.14918
vn 0.987667 -0.147531 0.0524219
v 1.07574 5.00359 1.09399
vn 0.112175 0.977316 -0.17964
v 0.557718 5.04393 1.06292
vn 0.0406128 0.905845 -0.421658
v 0.544004 5.02805 1.17647
vn -0.461349 -0.0322184 0.886634
v 0.552595 5.02695 1.17791
vn -0.127633 -0.632476 0.763992
v 0.569003 5.02522 1.17813
vn -0.0259242 -0.572388 0.819573
v 0.584518 5.02502 1.17816
vn 0.0548828 0.132267 0.989694
v 0.817668 5.02326 1.1646
vn 0.0596991 0.173827 0.982965
v 0.587591 5.05931 1.17191
vn 0.064264 0.237968 0.969145
v 0.57228 5.06179 1.17147
vn 0.0995228 0.817257 0.567614
v 0.55582 5.06294 1.17135
vn 0.00716315 0.871789 0.489829
v 0.547127 5.0629 1.17011
vn -0.39865 0.500108 0.768746
v 0.544533 5.0492 1.17297
vn -0.461567 0.198945 0.86451
v 0.57235 5.02217 1.16999
vn -0.0889593 -0.979551 0.180462
v 1.07862 4.97565 1.15503
vn 0.0684514 -0.651619 0.755451
v 1.0735 5.01319 1.14782
vn 0.129168 0.988685 0.0762768
v 0.55555 5.05433 1.11661
vn 0.0634073 0.982072 -0.17752
v 0.533474 5.01152 1.0744
vn -0.999471 0.0158029 -0.0284098
v 0.537606 5.00942 1.07113
vn -0.561442 -0.323687 -0.761584
v 0.81216 4.99008 1.11238
vn -0.087817 -0.979989 0.178632
v 1.0871 4.97508 1.15285
vn 0.520974 -0.128029 0.843916
v 1.07748 5.0125 1.14425
vn 0.113597 0.979529 -0.166191
v 0.553795 5.04523 1.06637
vn 0.0619642 0.979646 -0.190929
f 1//1 2//2 3//3
f 1//1 3//3 4//4
f 1//1 4//4 5//5
f 1//1 5//5 6//6
f 1//1 6//6 2//2
f 7//7 8//8 9//9
f 10//10 11//11 12//12
f 13//13 14//14 15//15
f 16//16 17//17 18//18
f 19//19 20//20 21//21
f 22//22 23//23 24//24
f 22//22 24//24 25//25
f 22//22 25//25 26//26
f 22//22 26//26 27//27
f 22//22 27//27 23//23
f 28//28 29//29 30//30
f 31//31 32//32 33//33
f 34//34 35//35 36//36
f 37//37 38//38 39//39
f 40//40 41//41 42//42
f 13//13 43//43 44//44
f 10//10 45//45 46//46
f 7//7 47//47 48//48
f 19//19 49//49 50//50
f 16//16 51//51 52//52
f 10//10 53//53 45//45
f 13//13 54//54 43//43
f 16//16 55//55 51//51
f 19//19 56//56 49//49
f 7//7 57//57 47//47
f 40//40 58//58 59//59
f 28//28 60//60 61//61
f 31//31 62//62 63//63
f 34//34 64//64 65//65
f 37//37 66//66 67//67
f 40//40 68//68 58//58
f 28//28 69//69 60//60
f 31//31 70//70 62//62
f 34//34 71//71 64//64
f 37//37 72//72 66//66
f 10//10 46//46 11//11
f 7//7 48//48 8//8
f 19//19 50//50 20//20
f 16//16 52//52 17//17
f 13//13 44//44 14//14
f 40//40 42//42 68//68
f 28//28 30//30 69//69
f 31//31 33//33 70//70
f 34//34 36//36 71//71
f 37//37 39//39 72//72
f 28//28 61//61 29//29
f 31//31 63//63 32//32
f 34//34 65//65 35//35
f 37//37 67//67 38//38
f 40//40 59//59 41//41
f 10//10 12//12 53//53
f 13//13 15//15 54//54
f 16//16 18//18 55//55
f 19//19 21//21 56//56
f 7//7 9//9 57//57
f 73//73 74//74 75//75
f 76//76 77//77 78//78
f 79//79 80//80 81//81
f 82//82 83//83 84//84
f 85//85 86//86 87//87
f 88//88 89//89 90//90
f 91//91 92//92 93//93
f 94//94 95//95 96//96
f 97//97 98//98 99//99
f 100//100 101//101 102//102
f 103//103 104//104 105//105
f 106//106 107//107 108//108
f 109//109 110//110 111//111
f 112//112 113//113 114//114
f 115//115 116//116 117//117
f 88//88 118//118 119//119
f 91//91 120//120 121//121
f 94//94 122//122 123//123
f 97//97 124//124 125//125
f 100//100 126//126 127//127
f 128//128 129//129 2//2
f 130//130 131//131 3//3
f 132//132 133//133 4//4
f 134//134 135//135 5//5
f 136//136 137//137 6//6
f 76//76 138//138 8//8
f 73//73 139//139 11//11
f 85//85 140//140 14//14
f 82//82 141//141 17//17
f 79//79 142//142 20//20
f 143//143 144//144 23//23
f 145//145 146//146 24//24
f 147//147 148//148 25//25
f 149//149 150//150 26//26
f 151//151 152//152 27//27
f 103//103 153//153 29//29
f 106//106 154//154 32//32
f 109//109 155//155 35//35
f 112//112 156//156 38//38
f 115//115 157//157 41//41
f 73//73 75//75 43//43
f 76//76 78//78 45//45
f 79//79 81//81 47//47
f 82//82 84//84 49//49
f 85//85 87//87 51//51
f 88//88 90//90 53//53
f 91//91 93//93 54//54
f 94//94 96//96 55//55
f 97//97 99//99 56//56
f 100//100 102//102 57//57
f 103//103 105//105 58//58
f 106//106 108//108 60//60
f 109//109 111//111 62//62
f 112//112 114//114 64//64
f 115//115 117//117 66//66
f 88//88 119//119 68//68
f 91//91 121//121 69//69
f 94//94 123//123 70//70
f 97//97 125//125 71//71
f 100//100 127//127 72//72
f 130//130 74//74 46//46
f 132//132 77//77 48//48
f 134//134 80//80 50//50
f 136//136 83//83 52//52
f 128//128 86//86 44//44
f 158//158 89//89 42//42
f 159//159 92//92 30//30
f 160//160 95//95 33//33
f 161//161 98//98 36//36
f 162//162 101//101 39//39
f 145//145 104//104 61//61
f 147//147 107//107 63//63
f 149//149 110//110 65//65
f 151//151 113//113 67//67
f 143//143 116//116 59//59
f 159//159 118//118 12//12
f 160//160 120//120 15//15
f 161//161 122//122 18//18
f 162//162 124//124 21//21
f 158//158 126//126 9//9
f 130//130 129//129 74//74
f 132//132 131//131 77//77
f 134//134 133//133 80//80
f 136//136 135//135 83//83
f 128//128 137//137 86//86
f 158//158 138//138 89//89
f 159//159 139//139 92//92
f 160//160 140//140 95//95
f 161//161 141//141 98//98
f 162//162 142//142 101//101
f 145//145 144//144 104//104
f 147//147 146//146 107//107
f 149//149 148//148 110//110
f 151//151 150//150 113//113
f 143//143 152//152 116//116
f 159//159 153//153 118//118
f 160//160 154//154 120//120
f 161//161 155//155 122//122
f 162//162 156//156 124//124
f 158//158 157//157 126//126
f 130//130 3//3 129//129
f 132//132 4//4 131//131
f 134//134 5//5 133//133
f 136//136 6//6 135//135
f 128//128 2//2 137//137
f 158//158 9//9 138//138
f 159//159 12//12 139//139
f 160//160 15//15 140//140
f 161//161 18//18 141//141
f 162//162 21//21 142//142
f 145//145 24//24 144//144
f 147//147 25//25 146//146
f 149//149 26//26 148//148
f 151//151 27//27 150//150
f 143//143 23//23 152//152
f 159//159 30//30 153//153
f 160//160 33//33 154//154
f 161//161 36//36 155//155
f 162//162 39//39 156//156
f 158//158 42//42 157//157
f 128//128 44//44 75//75
f 130//130 46//46 78//78
f 132//132 48//48 81//81
f 134//134 50//50 84//84
f 136//136 52//52 87//87
f 76//76 45//45 90//90
f 73//73 43//43 93//93
f 85//85 51//51 96//96
f 82//82 49//49 99//99
f 79//79 47//47 102//102
f 143//143 59//59 105//105
f 145//145 61//61 108//108
f 147//147 63//63 111//111
f 149//149 65//65 114//114
f 151//151 67//67 117//117
f 103//103 58//58 119//119
f 106//106 60//60 121//121
f 109//109 62//62 123//123
f 112//112 64//64 125//125
f 115//115 66//66 127//127
f 73//73 11//11 74//74
f 76//76 8//8 77//77
f 79//79 20//20 80//80
f 82//82 17//17 83//83
f 85//85 14//14 86//86
f 88//88 68//68 89//89
f 91//91 69//69 92//92
f 94//94 70//70 95//95
f 97//97 71//71 98//98
f 100//100 72//72 101//101
f 103//103 29//29 104//104
f 106//106 32//32 107//107
f 109//109 35//35 110//110
f 112//112 38//38 113//113
f 115//115 41//41 116//116
f 88//88 53//53 118//118
f 91//91 54//54 120//120
f 94//94 55//55 122//122
f 97//97 56//56 124//124
f 100//100 57//57 126//126
f 128//128 75//75 129//129
f 130//130 78//78 131//131
f 132//132 81//81 133//133
f 134//134 84//84 135//135
f 136//136 87//87 137//137
f 76//76 90//90 138//138
f 73//73 93//93 139//139
f 85//85 96//96 140//140
f 82//82 99//99 141//141
f 79//79 102//102 142//142
f 143//143 105//105 144//144
f 145//145 108//108 146//146
f 147//147 111//111 148//148
f 149//149 114//114 150//150
f 151//151 117//117 152//152
f 103//103 119//119 153//153
f 106//106 121//121 154//154
f 109//109 123//123 155//155
f 112//112 125//125 156//156
f 115//115 127//127 157//157
f 129//129 3//3 2//2
f 131//131 4//4 3//3
f 133//133 5//5 4//4
f 135//135 6//6 5//5
f 137//137 2//2 6//6
f 138//138 9//9 8//8
f 139//139 12//12 11//11
f 140//140 15//15 14//14
f 141//141 18//18 17//17
f 142//142 21//21 20//20
f 144//144 24//24 23//23
f 146//146 25//25 24//24
f 148//148 26//26 25//25
f 150//150 27//27 26//26
f 152//152 23//23 27//27
f 153//153 30//30 29//29
f 154//154 33//33 32//32
f 155//155 36//36 35//35
f 156//156 39//39 38//38
f 157//157 42//42 41//41
f 75//75 44//44 43//43
f 78//78 46//46 45//45
f 81//81 48//48 47//47
f 84//84 50//50 49//49
f 87//87 52//52 51//51
f 90//90 45//45 53//53
f 93//93 43//43 54//54
f 96//96 51//51 55//55
f 99//99 49//49 56//56
f 102//102 47//47 57//57
f 105//105 59//59 58//58
f 108//108 61//61 60//60
f 111//111 63//63 62//62
f 114//114 65//65 64//64
f 117//117 67//67 66//66
f 119//119 58//58 68//68
f 121//121 60//60 69//69
f 123//123 62//62 70//70
f 125//125 64//64 71//71
f 127//127 66//66 72//72
f 74//74 11//11 46//46
f 77//77 8//8 48//48
f 80//80 20//20 50//50
f 83//83 17//17 52//52
f 86//86 14//14 44//44
f 89//89 68//68 42//42
f 92//92 69//69 30//30
f 95//95 70//70 33//33
f 98//98 71//71 36//36
f 101//101 72//72 39//39
f 104//104 29//29 61//61
f 107//107 32//32 63//63
f 110//110 35//35 65//65
f 113//113 38//38 67//67
f 116//116 41//41 59//59
f 118//118 53//53 12//12
f 120//120 54//54 15//15
f 122//122 55//55 18//18
f 124//124 56//56 21//21
f 126//126 57//57 9//9
f 129//129 75//75 74//74
f 131//131 78//78 77//77
f 133//133 81//81 80//80
f 135//135 84//84 83//83
f 137//137 87//87 86//86
f 138//138 90//90 89//89
f 139//139 93//93 92//92
f 140//140 96//96 95//95
f 141//141 99//99 98//98
f 142//142 102//102 101//101
f 144//144 105//105 104//104
f 146//146 108//108 107//107
f 148//148 111//111 110//110
f 150//150 114//114 113//113
f 152//152 117//117 116//116
f 153//153 119//119 118//118
f 154//154 121//121 120//120
f 155//155 123//123 122//122
f 156//156 125//125 124//124
f 157//157 127//127 126//126
