# https://github.com/mikedh/trimesh
v 0.61334026 4.27258968 0.83021367
v 1.92918503 2.79757929 0.86626339
v 0.37557623 4.05959940 0.79408407
v 1.69142103 2.58458877 0.83013368
v 1.03686535 3.32567978 0.83593106
v 1.26345623 3.52866101 0.87036300
v 0.90473700 3.48044109 0.79310560
v 1.13132775 3.68342233 0.82753754
v 1.84421504 2.65565705 0.83387744
v 1.84061420 2.65335560 0.87114179
v 0.46348578 4.20340014 0.79605007
v 0.45988488 4.20109892 0.83331442
v 1.27322292 3.53683496 0.84830558
v 0.64467102 4.23253345 0.85301745
v 0.64825380 4.23482323 0.81593919
v 0.57958049 4.30044842 0.81423903
v 0.57616609 4.29826593 0.84957504
v 1.89241910 2.83385634 0.88720167
v 1.89600194 2.83614635 0.85012317
v 1.95339346 2.76045775 0.85187697
v 1.94997871 2.75827551 0.88721287
v 1.03158236 3.32037187 0.81158686
v 0.40809798 4.02060938 0.81706882
v 0.41168082 4.02289963 0.77999043
v 0.35412103 4.09848022 0.77997899
v 0.35070661 4.09629822 0.81531501
v 1.65584600 2.62193274 0.85125291
v 1.65942895 2.62422276 0.81417441
v 1.72793388 2.55849004 0.81761682
v 1.72451925 2.55630755 0.85295296
v 1.15012991 3.42715073 0.85346568
v 1.69737530 2.59711528 0.85465896
v 0.38810068 4.06476116 0.81878901
v 1.91223955 2.78959203 0.88730896
v 0.60296512 4.25723791 0.85143900
v 1.01584744 3.58443522 0.80994201
v 1.70113492 2.59951806 0.81575274
v 0.39186019 4.06716394 0.77988315
v 1.91599917 2.79199505 0.84840274
v 0.60672462 4.25964069 0.81253290
v 1.85402274 2.64211464 0.84916830
v 0.45078251 4.21509218 0.81072426
v 0.65646243 4.22718000 0.83179557
v 0.62400979 4.25743055 0.85136914
v 0.62736571 4.25957537 0.81663918
v 0.59384060 4.29212141 0.81623626
v 0.59064233 4.29007721 0.84933412
v 1.88896179 2.84559655 0.86556184
v 1.91483164 2.81046963 0.88673317
v 1.91818774 2.81261444 0.85200334
v 1.94670010 2.77561879 0.85330033
v 1.94350195 2.77357459 0.88639808
v 0.41575763 4.01155519 0.79521894
v 0.38591224 4.04414129 0.81518865
v 0.38926819 4.04628658 0.78045869
v 0.36059797 4.08318138 0.78079391
v 0.35739976 4.08113718 0.81389189
v 1.64825690 2.62997198 0.82898521
v 1.67673421 2.59718037 0.85055280
v 1.68008995 2.59932542 0.81582284
v 1.71345747 2.56667876 0.81785762
v 1.71025944 2.56463456 0.85095549
v 0.44935584 3.97789073 0.81906545
v 1.61807251 2.66780496 0.85108447
v 1.04401815 3.33209324 0.83726323
v 1.65219033 2.64026499 0.85308468
v 0.42584404 4.01495075 0.81948709
v 0.68232077 4.18658209 0.85446608
v 1.85103738 2.87649608 0.88648486
v 1.25625670 3.52221775 0.86951423
v 1.87447214 2.83938622 0.88686192
v 0.64812601 4.21407270 0.85326409
v 0.45306239 3.98025966 0.78070712
v 1.62177908 2.67017412 0.81272602
v 0.91025549 3.48876834 0.79390836
v 1.65597391 2.64268327 0.81392789
v 0.42962772 4.01736975 0.78032994
v 0.68602729 4.18895102 0.81610751
v 1.85474396 2.87886524 0.84812641
v 1.12249422 3.67889309 0.82615912
v 1.87825572 2.84180474 0.84770501
v 0.65190971 4.21649075 0.81410718
v 1.95073843 2.74913764 0.85030317
v 1.73955929 2.55996203 0.81821322
v 1.73050964 2.58026290 0.81770253
v 1.93176472 2.76054859 0.84828460
v 1.85263956 2.64601278 0.83529139
v 1.94720590 2.74687982 0.88685906
v 1.73602688 2.55770469 0.85476899
v 1.72680759 2.57789660 0.85601544
v 1.92806256 2.75818229 0.88659739
v 1.84926677 2.64385676 0.87019575
v 0.56807297 4.29905128 0.81242299
v 0.35689396 4.10987616 0.78033280
v 0.37603721 4.09857368 0.78059459
v 0.57729232 4.27885914 0.81117678
v 0.45483312 4.21289921 0.79699636
v 0.56454057 4.29679394 0.84897876
v 0.35336155 4.10761833 0.81688881
v 0.37233511 4.09620762 0.81890750
v 0.57359022 4.27649307 0.84948921
v 0.45146030 4.21074343 0.83190060
v 0.68556195 4.19078255 0.85322046
v 0.68892181 4.19292974 0.81845117
v 1.85560918 2.87920523 0.88527584
v 1.85896862 2.88135266 0.85050642
v 0.60136777 4.27729750 0.85129666
v 1.26913106 3.53372192 0.87029326
v 0.62063676 4.25187111 0.85249925
v 0.60489315 4.27955103 0.81481314
v 1.14321041 3.68121219 0.82947993
v 0.62433600 4.25423574 0.81421709
v 0.57533216 4.30395985 0.82830751
v 0.58890486 4.28654671 0.81309271
v 0.56125259 4.30664825 0.81396580
v 0.58526361 4.28421974 0.85077536
v 0.55805075 4.30460167 0.84710121
v 1.93198431 2.78572845 0.88775086
v 1.90889835 2.80778027 0.88779318
v 1.93550968 2.78798175 0.85126758
v 1.91259754 2.81014466 0.84951115
v 1.95605516 2.75622320 0.86613464
v 1.94067717 2.77126265 0.85012674
v 1.95746851 2.74154472 0.85221732
v 1.93703604 2.76893544 0.88780940
v 1.95426655 2.73949814 0.88535285
v 0.44513112 3.97540307 0.81668568
v 0.44849077 3.97755051 0.78191614
v 1.61517811 2.66382599 0.84874094
v 1.61853790 2.66597342 0.81397152
v 0.36859012 4.06877422 0.81592441
v 1.03136790 3.32073259 0.83416355
v 0.39150226 4.04661131 0.81768084
v 0.37211555 4.07102776 0.77944088
v 0.90544730 3.46822262 0.79335022
v 0.39520144 4.04897547 0.77939868
v 0.34873861 4.10097599 0.79387522
v 0.36706385 4.08782053 0.77938271
v 0.34983322 4.11725760 0.78183913
v 0.36342260 4.08549309 0.81706524
v 0.34663135 4.11521101 0.81497478
v 1.69920671 2.57720494 0.85237885
v 1.67976379 2.60252023 0.85297477
v 1.70273197 2.57945824 0.81589556
v 1.68346310 2.60488462 0.81469274
v 1.72946167 2.55323958 0.83170223
v 1.71883619 2.57253623 0.81641650
v 1.74604905 2.55215406 0.82009077
v 1.71519506 2.57020903 0.85409927
v 1.74284732 2.55010748 0.85322630
v 1.66326845 2.64878607 0.85487580
v 0.43552634 4.02503681 0.82124007
v 1.86475277 2.82927680 0.88549256
v 0.63701051 4.20552778 0.85185659
v 1.80809093 2.68965650 0.87117207
v 0.49223068 4.16468430 0.83512187
v 1.66708946 2.65122819 0.81533527
v 0.43934709 4.02747917 0.78169942
v 1.86857355 2.83171892 0.84595203
v 0.64083135 4.20796967 0.81231618
v 1.81186938 2.69207144 0.83207011
v 0.49600905 4.16709948 0.79602003
f 1 47 44
f 1 44 43
f 1 43 45
f 1 45 46
f 1 46 47
f 2 49 52
f 6 72 70
f 12 102 99
f 11 96 95
f 8 79 81
f 4 62 59
f 4 59 58
f 4 58 60
f 4 60 61
f 4 61 62
f 5 66 65
f 3 54 57
f 7 73 77
f 9 85 86
f 10 92 88
f 12 101 98
f 6 69 68
f 2 50 48
f 8 82 78
f 11 97 93
f 6 71 69
f 12 100 101
f 11 94 97
f 8 80 82
f 2 51 50
f 10 90 89
f 5 63 64
f 3 55 53
f 7 76 74
f 9 87 84
f 10 91 90
f 5 67 63
f 3 56 55
f 7 75 76
f 9 83 87
f 6 68 72
f 2 48 49
f 8 78 79
f 11 93 96
f 12 98 102
f 10 88 91
f 5 65 67
f 3 57 56
f 7 77 75
f 9 86 83
f 5 64 66
f 3 53 54
f 7 74 73
f 9 84 85
f 10 89 92
f 6 70 71
f 12 99 100
f 11 95 94
f 8 81 80
f 2 52 51
f 35 109 116
f 18 105 108
f 19 111 106
f 40 114 112
f 42 117 115
f 34 125 119
f 33 152 156
f 25 137 139
f 36 158 160
f 20 123 120
f 32 143 149
f 23 127 132
f 24 135 128
f 37 147 145
f 41 150 148
f 34 153 155
f 33 140 133
f 25 138 134
f 36 159 157
f 20 122 124
f 17 107 47
f 14 103 44
f 13 104 43
f 15 110 45
f 16 113 46
f 18 118 49
f 35 154 72
f 42 141 102
f 40 162 96
f 19 121 79
f 30 142 62
f 27 129 59
f 22 130 58
f 28 144 60
f 29 146 61
f 32 151 66
f 23 131 54
f 24 136 73
f 37 161 85
f 41 126 92
f 35 116 101
f 18 108 69
f 19 106 50
f 40 112 82
f 42 115 97
f 34 119 71
f 33 156 100
f 25 139 94
f 36 160 80
f 20 120 51
f 32 149 90
f 23 132 63
f 24 128 55
f 37 145 76
f 41 148 87
f 34 155 91
f 33 133 67
f 25 134 56
f 36 157 75
f 20 124 83
f 14 109 68
f 13 105 48
f 15 111 78
f 16 114 93
f 17 117 98
f 21 125 88
f 31 152 65
f 26 137 57
f 38 158 77
f 39 123 86
f 27 143 64
f 22 127 53
f 28 135 74
f 29 147 84
f 30 150 89
f 31 153 70
f 26 140 99
f 38 138 95
f 39 159 81
f 21 122 52
f 14 107 109
f 13 103 105
f 15 104 111
f 16 110 114
f 17 113 117
f 21 118 125
f 31 154 152
f 26 141 137
f 38 162 158
f 39 121 123
f 27 142 143
f 22 129 127
f 28 130 135
f 29 144 147
f 30 146 150
f 31 151 153
f 26 131 140
f 38 136 138
f 39 161 159
f 21 126 122
f 14 44 107
f 13 43 103
f 15 45 104
f 16 46 110
f 17 47 113
f 21 52 118
f 31 70 154
f 26 99 141
f 38 95 162
f 39 81 121
f 27 59 142
f 22 58 129
f 28 60 130
f 29 61 144
f 30 62 146
f 31 65 151
f 26 57 131
f 38 77 136
f 39 86 161
f 21 88 126
f 17 98 116
f 14 68 108
f 13 48 106
f 15 78 112
f 16 93 115
f 18 69 119
f 35 101 156
f 42 97 139
f 40 82 160
f 19 50 120
f 30 89 149
f 27 64 132
f 22 53 128
f 28 74 145
f 29 84 148
f 32 90 155
f 23 63 133
f 24 55 134
f 37 76 157
f 41 87 124
f 35 72 109
f 18 49 105
f 19 79 111
f 40 96 114
f 42 102 117
f 34 91 125
f 33 67 152
f 25 56 137
f 36 75 158
f 20 83 123
f 32 66 143
f 23 54 127
f 24 73 135
f 37 85 147
f 41 92 150
f 34 71 153
f 33 100 140
f 25 94 138
f 36 80 159
f 20 51 122
f 17 116 107
f 14 108 103
f 13 106 104
f 15 112 110
f 16 115 113
f 18 119 118
f 35 156 154
f 42 139 141
f 40 160 162
f 19 120 121
f 30 149 142
f 27 132 129
f 22 128 130
f 28 145 144
f 29 148 146
f 32 155 151
f 23 133 131
f 24 134 136
f 37 157 161
f 41 124 126
f 107 44 47
f 103 43 44
f 104 45 43
f 110 46 45
f 113 47 46
f 118 52 49
f 154 70 72
f 141 99 102
f 162 95 96
f 121 81 79
f 142 59 62
f 129 58 59
f 130 60 58
f 144 61 60
f 146 62 61
f 151 65 66
f 131 57 54
f 136 77 73
f 161 86 85
f 126 88 92
f 116 98 101
f 108 68 69
f 106 48 50
f 112 78 82
f 115 93 97
f 119 69 71
f 156 101 100
f 139 97 94
f 160 82 80
f 120 50 51
f 149 89 90
f 132 64 63
f 128 53 55
f 145 74 76
f 148 84 87
f 155 90 91
f 133 63 67
f 134 55 56
f 157 76 75
f 124 87 83
f 109 72 68
f 105 49 48
f 111 79 78
f 114 96 93
f 117 102 98
f 125 91 88
f 152 67 65
f 137 56 57
f 158 75 77
f 123 83 86
f 143 66 64
f 127 54 53
f 135 73 74
f 147 85 84
f 150 92 89
f 153 71 70
f 140 100 99
f 138 94 95
f 159 80 81
f 122 51 52
f 107 116 109
f 103 108 105
f 104 106 111
f 110 112 114
f 113 115 117
f 118 119 125
f 154 156 152
f 141 139 137
f 162 160 158
f 121 120 123
f 142 149 143
f 129 132 127
f 130 128 135
f 144 145 147
f 146 148 150
f 151 155 153
f 131 133 140
f 136 134 138
f 161 157 159
f 126 124 122

