# https://github.com/mikedh/trimesh
v 1.00474238 4.80410242 1.08646607
v 2.19358444 3.54590321 1.08437884
v 0.78204876 4.59367943 1.08964086
v 1.97089100 3.33547997 1.08755386
v 1.38189578 3.96966839 1.11164534
v 1.59412420 4.17020321 1.10861969
v 1.25877738 4.09937572 1.07250476
v 1.47100592 4.29991007 1.06947935
v 2.11142087 3.40957499 1.07060623
v 2.11173439 3.40980911 1.10811293
v 0.86395663 4.72981644 1.07279623
v 0.86427009 4.73005056 1.11030293
v 1.60097682 4.17671680 1.08516777
v 1.03513145 4.77115679 1.10852408
v 1.03481948 4.77092361 1.07120478
v 0.97267359 4.82628250 1.07225585
v 0.97297084 4.82650423 1.10782158
v 2.16244936 3.57807064 1.10654533
v 2.16213775 3.57783794 1.06922579
v 2.21388888 3.51265454 1.07007694
v 2.21418643 3.51287651 1.10564256
v 1.37465262 3.96286297 1.08839440
v 0.81355339 4.56178808 1.11168313
v 0.81324142 4.56155491 1.07436383
v 0.76150465 4.62674904 1.07526648
v 0.76180190 4.62697077 1.11083210
v 1.94087136 3.36870193 1.10970414
v 1.94055951 3.36846900 1.07238472
v 2.00272012 3.31312132 1.07308733
v 2.00301743 3.31334329 1.10865319
v 1.48801267 4.06993771 1.11045337
v 1.97883940 3.34889817 1.11043024
v 0.79593337 4.60081530 1.11250687
v 2.18008494 3.53905487 1.10756111
v 0.99717879 4.79097176 1.10963774
v 1.36288714 4.20175982 1.07067454
v 1.97851205 3.34865379 1.07127130
v 0.79560596 4.60057068 1.07334793
v 2.17975760 3.53881049 1.06840217
v 0.99685144 4.79072762 1.07047880
v 2.12171602 3.39890671 1.08566833
v 0.85391361 4.74067259 1.08789408
v 1.04377186 4.76555824 1.08659840
v 1.01637721 4.79241753 1.10736620
v 1.01608491 4.79219961 1.07241058
v 0.98579335 4.81971598 1.07331371
v 0.98607183 4.81992388 1.10662663
v 2.15731263 3.58705282 1.08464360
v 2.18261170 3.55814457 1.10531902
v 2.18231964 3.55792642 1.07036340
v 2.20807767 3.52612329 1.07116783
v 2.20835614 3.52633119 1.10448086
v 0.81832403 4.55253220 1.08981264
v 0.79337150 4.58169937 1.11054575
v 0.79307920 4.58148098 1.07558990
v 0.76733470 4.61329460 1.07642794
v 0.76761317 4.61350250 1.10974121
v 1.93186510 3.37402725 1.08785772
v 1.95960581 3.34742641 1.10849833
v 1.95931363 3.34720826 1.07354271
v 1.98961914 3.31970191 1.07428241
v 1.98989761 3.31990981 1.10759544
v 0.85095030 4.52560377 1.11224079
v 1.90686488 3.40808702 1.11038697
v 1.38861895 3.97602105 1.11179292
v 1.93790483 3.38526440 1.11067176
v 0.82992285 4.55788612 1.11261678
v 1.06914878 4.73177958 1.10912991
v 2.12506342 3.61426258 1.10727620
v 1.58740509 4.16385365 1.10895896
v 2.14609742 3.58198571 1.10770357
v 1.03811562 4.75460720 1.10964870
v 0.85062748 4.52536297 1.07363284
v 1.90654218 3.40784621 1.07177913
v 1.26397777 4.10733223 1.07216835
v 1.93757546 3.38501835 1.07126033
v 0.82959348 4.55764008 1.07320535
v 1.06882620 4.73153877 1.07052195
v 2.12474060 3.61402178 1.06866837
v 1.46276391 4.29516506 1.06933415
v 2.14576793 3.58173966 1.06829214
v 1.03778613 4.75436163 1.07023704
v 2.21119499 3.50209928 1.06955135
v 2.01340151 3.31520391 1.07237124
v 2.00530601 3.33306885 1.07144320
v 2.19380450 3.51118135 1.06875563
v 2.11914515 3.40141797 1.07178056
v 2.21150279 3.50232887 1.10634482
v 2.01370931 3.31543374 1.10916460
v 2.00562811 3.33330941 1.11000490
v 2.19412684 3.51142192 1.10731757
v 2.11943889 3.40163732 1.10691142
v 0.96198177 4.82419205 1.07174444
v 0.76418817 4.63729668 1.07456434
v 0.78156406 4.62820387 1.07359123
v 0.97006285 4.80631638 1.07090402
v 0.85625196 4.73798847 1.07399750
v 0.96228939 4.82442141 1.10853779
v 0.76449573 4.63752651 1.11135745
v 0.78188640 4.62844419 1.11215329
v 0.97038513 4.80655718 1.10946572
v 0.85654575 4.73820782 1.10912836
v 1.07202911 4.73570776 1.10727489
v 1.07173657 4.73548937 1.07227957
v 2.12914586 3.61691904 1.10541916
v 2.12885332 3.61670089 1.07042360
v 0.99591637 4.80909491 1.10831559
v 1.59934843 4.17514086 1.10762048
v 1.01335132 4.78723812 1.10921168
v 0.99560934 4.80886507 1.07159543
v 1.48201466 4.29875422 1.07031882
v 1.01302934 4.78699780 1.07068086
v 0.97020155 4.83017635 1.08642220
v 0.98092568 4.81413651 1.07108140
v 0.95598733 4.83078766 1.07347476
v 0.98124278 4.81437302 1.10900927
v 0.95626622 4.83099556 1.10682571
v 2.19810486 3.53677034 1.10620534
v 2.17727280 3.55541372 1.10716832
v 2.19779778 3.53654122 1.06948495
v 2.17695093 3.55517316 1.06863773
v 2.21766019 3.50994110 1.08423221
v 2.20222783 3.52158356 1.06893742
v 2.21744370 3.49573779 1.07126021
v 2.20254517 3.52182007 1.10686529
v 2.21772242 3.49594593 1.10461116
v 0.84683776 4.52292490 1.11048543
v 0.84654516 4.52270651 1.07549000
v 1.90395427 3.40413594 1.10862958
v 1.90366173 3.40391779 1.07363415
v 0.77789319 4.60308456 1.11142409
v 1.37665594 3.96471882 1.11079550
v 0.79874033 4.58445263 1.11227131
v 0.77758616 4.60285521 1.07470357
v 1.25932205 4.08833218 1.07349372
v 0.79841822 4.58421183 1.07374072
v 0.75797039 4.62963915 1.08944798
v 0.77314603 4.61780548 1.07404387
v 0.75796854 4.64367962 1.07629788
v 0.77346313 4.61804247 1.11197138
v 0.75824744 4.64388752 1.10964882
v 1.98008156 3.33076024 1.10931373
v 1.96266174 3.35262775 1.11022818
v 1.97977471 3.33053112 1.07259321
v 1.96233952 3.35238719 1.07169735
v 2.00542903 3.30940390 1.08725798
v 1.99444807 3.32525253 1.07189977
v 2.01942468 3.30862999 1.07408345
v 1.99476528 3.32548904 1.10982764
v 2.01970363 3.30883813 1.10743427
v 1.94827676 3.39380121 1.11072493
v 0.83903360 4.56775761 1.11267233
v 2.13698983 3.57211637 1.10803437
v 1.02774692 4.74607277 1.10998154
v 2.08243799 3.44082856 1.10908890
v 0.89358193 4.69904280 1.11117613
v 1.94794405 3.39355278 1.07092738
v 0.83870095 4.56750965 1.07287443
v 2.13665724 3.57186794 1.06823683
v 1.02741420 4.74582434 1.07018411
v 2.08210897 3.44058275 1.06973302
v 0.89325285 4.69879723 1.07181990
f 1 47 44
f 1 44 43
f 1 43 45
f 1 45 46
f 1 46 47
f 2 49 52
f 6 72 70
f 12 102 99
f 11 96 95
f 8 79 81
f 4 62 59
f 4 59 58
f 4 58 60
f 4 60 61
f 4 61 62
f 5 66 65
f 3 54 57
f 7 73 77
f 9 85 86
f 10 92 88
f 12 101 98
f 6 69 68
f 2 50 48
f 8 82 78
f 11 97 93
f 6 71 69
f 12 100 101
f 11 94 97
f 8 80 82
f 2 51 50
f 10 90 89
f 5 63 64
f 3 55 53
f 7 76 74
f 9 87 84
f 10 91 90
f 5 67 63
f 3 56 55
f 7 75 76
f 9 83 87
f 6 68 72
f 2 48 49
f 8 78 79
f 11 93 96
f 12 98 102
f 10 88 91
f 5 65 67
f 3 57 56
f 7 77 75
f 9 86 83
f 5 64 66
f 3 53 54
f 7 74 73
f 9 84 85
f 10 89 92
f 6 70 71
f 12 99 100
f 11 95 94
f 8 81 80
f 2 52 51
f 35 109 116
f 18 105 108
f 19 111 106
f 40 114 112
f 42 117 115
f 34 125 119
f 33 152 156
f 25 137 139
f 36 158 160
f 20 123 120
f 32 143 149
f 23 127 132
f 24 135 128
f 37 147 145
f 41 150 148
f 34 153 155
f 33 140 133
f 25 138 134
f 36 159 157
f 20 122 124
f 17 107 47
f 14 103 44
f 13 104 43
f 15 110 45
f 16 113 46
f 18 118 49
f 35 154 72
f 42 141 102
f 40 162 96
f 19 121 79
f 30 142 62
f 27 129 59
f 22 130 58
f 28 144 60
f 29 146 61
f 32 151 66
f 23 131 54
f 24 136 73
f 37 161 85
f 41 126 92
f 35 116 101
f 18 108 69
f 19 106 50
f 40 112 82
f 42 115 97
f 34 119 71
f 33 156 100
f 25 139 94
f 36 160 80
f 20 120 51
f 32 149 90
f 23 132 63
f 24 128 55
f 37 145 76
f 41 148 87
f 34 155 91
f 33 133 67
f 25 134 56
f 36 157 75
f 20 124 83
f 14 109 68
f 13 105 48
f 15 111 78
f 16 114 93
f 17 117 98
f 21 125 88
f 31 152 65
f 26 137 57
f 38 158 77
f 39 123 86
f 27 143 64
f 22 127 53
f 28 135 74
f 29 147 84
f 30 150 89
f 31 153 70
f 26 140 99
f 38 138 95
f 39 159 81
f 21 122 52
f 14 107 109
f 13 103 105
f 15 104 111
f 16 110 114
f 17 113 117
f 21 118 125
f 31 154 152
f 26 141 137
f 38 162 158
f 39 121 123
f 27 142 143
f 22 129 127
f 28 130 135
f 29 144 147
f 30 146 150
f 31 151 153
f 26 131 140
f 38 136 138
f 39 161 159
f 21 126 122
f 14 44 107
f 13 43 103
f 15 45 104
f 16 46 110
f 17 47 113
f 21 52 118
f 31 70 154
f 26 99 141
f 38 95 162
f 39 81 121
f 27 59 142
f 22 58 129
f 28 60 130
f 29 61 144
f 30 62 146
f 31 65 151
f 26 57 131
f 38 77 136
f 39 86 161
f 21 88 126
f 17 98 116
f 14 68 108
f 13 48 106
f 15 78 112
f 16 93 115
f 18 69 119
f 35 101 156
f 42 97 139
f 40 82 160
f 19 50 120
f 30 89 149
f 27 64 132
f 22 53 128
f 28 74 145
f 29 84 148
f 32 90 155
f 23 63 133
f 24 55 134
f 37 76 157
f 41 87 124
f 35 72 109
f 18 49 105
f 19 79 111
f 40 96 114
f 42 102 117
f 34 91 125
f 33 67 152
f 25 56 137
f 36 75 158
f 20 83 123
f 32 66 143
f 23 54 127
f 24 73 135
f 37 85 147
f 41 92 150
f 34 71 153
f 33 100 140
f 25 94 138
f 36 80 159
f 20 51 122
f 17 116 107
f 14 108 103
f 13 106 104
f 15 112 110
f 16 115 113
f 18 119 118
f 35 156 154
f 42 139 141
f 40 160 162
f 19 120 121
f 30 149 142
f 27 132 129
f 22 128 130
f 28 145 144
f 29 148 146
f 32 155 151
f 23 133 131
f 24 134 136
f 37 157 161
f 41 124 126
f 107 44 47
f 103 43 44
f 104 45 43
f 110 46 45
f 113 47 46
f 118 52 49
f 154 70 72
f 141 99 102
f 162 95 96
f 121 81 79
f 142 59 62
f 129 58 59
f 130 60 58
f 144 61 60
f 146 62 61
f 151 65 66
f 131 57 54
f 136 77 73
f 161 86 85
f 126 88 92
f 116 98 101
f 108 68 69
f 106 48 50
f 112 78 82
f 115 93 97
f 119 69 71
f 156 101 100
f 139 97 94
f 160 82 80
f 120 50 51
f 149 89 90
f 132 64 63
f 128 53 55
f 145 74 76
f 148 84 87
f 155 90 91
f 133 63 67
f 134 55 56
f 157 76 75
f 124 87 83
f 109 72 68
f 105 49 48
f 111 79 78
f 114 96 93
f 117 102 98
f 125 91 88
f 152 67 65
f 137 56 57
f 158 75 77
f 123 83 86
f 143 66 64
f 127 54 53
f 135 73 74
f 147 85 84
f 150 92 89
f 153 71 70
f 140 100 99
f 138 94 95
f 159 80 81
f 122 51 52
f 107 116 109
f 103 108 105
f 104 106 111
f 110 112 114
f 113 115 117
f 118 119 125
f 154 156 152
f 141 139 137
f 162 160 158
f 121 120 123
f 142 149 143
f 129 132 127
f 130 128 135
f 144 145 147
f 146 148 150
f 151 155 153
f 131 133 140
f 136 134 138
f 161 157 159
f 126 124 122

