# https://github.com/mikedh/trimesh
v 1.30990279 5.87045145 2.11451507
v 1.30475712 5.81089163 2.81885886
v 1.56862557 5.53355312 2.08791661
v 1.56347990 5.47399330 2.79226041
v 1.54161358 5.49769354 2.43939590
v 1.29504883 5.81875992 2.46474433
v 1.57339513 5.52766705 2.36889076
v 1.32683051 5.84873343 2.39423919
v 1.44614732 5.65023994 2.82379770
v 1.41636574 5.62753773 2.82166052
v 1.45154691 5.71273708 2.08472252
v 1.42176521 5.69003487 2.08258510
v 1.30540264 5.84355640 2.46691656
v 1.29286611 5.85468721 2.13141441
v 1.32249916 5.87727642 2.13354087
v 1.32809591 5.87172461 2.09912920
v 1.29985559 5.85019732 2.09710264
v 1.28798664 5.79820919 2.79930758
v 1.31761968 5.82079792 2.80143404
v 1.32272351 5.80954075 2.83450246
v 1.29448318 5.78801346 2.83247542
v 1.56834352 5.50116587 2.43988490
v 1.55029285 5.51947689 2.10494900
v 1.57992578 5.54206562 2.10707569
v 1.57342947 5.55226183 2.07390761
v 1.54518914 5.53073454 2.07188082
v 1.54541349 5.46299887 2.77284193
v 1.57504642 5.48558760 2.77496862
v 1.56805706 5.49007797 2.80928016
v 1.53981662 5.46855021 2.80725384
v 1.41807640 5.65803242 2.45205188
v 1.53275180 5.47642994 2.79047108
v 1.53787172 5.53569269 2.08964396
v 1.29894710 5.78088045 2.81450772
v 1.30406725 5.84014273 2.11368084
v 1.45037627 5.68849468 2.38039708
v 1.56384528 5.50013208 2.79270220
v 1.56896544 5.55939484 2.09187531
v 1.33004081 5.80458260 2.81673884
v 1.33516085 5.86384535 2.11591220
v 1.43412936 5.64060307 2.82896328
v 1.43961680 5.70411921 2.07783842
v 1.30796659 5.87051678 2.13697386
v 1.29305935 5.85745764 2.12003851
v 1.32081532 5.87861538 2.12203050
v 1.32292604 5.87608290 2.10510850
v 1.29647422 5.85591936 2.10321021
v 1.30314684 5.81472874 2.79670453
v 1.28801155 5.79902983 2.81098843
v 1.31576753 5.82018805 2.81298018
v 1.31763542 5.81484747 2.82926536
v 1.29118371 5.79468346 2.82736707
v 1.56988943 5.52945185 2.11004639
v 1.55214500 5.52008677 2.09340286
v 1.57990098 5.54124546 2.09539461
v 1.57672870 5.54559135 2.07901597
v 1.55027699 5.52542782 2.07711768
v 1.56506968 5.47366428 2.76977706
v 1.54709709 5.46165943 2.78435254
v 1.57485318 5.48281765 2.78634477
v 1.57143819 5.48435593 2.80317307
v 1.54498649 5.46419191 2.80127454
v 1.54766357 5.51985455 2.12626600
v 1.54309344 5.46695423 2.75185537
v 1.53361154 5.50771427 2.44018483
v 1.53684926 5.47297525 2.76785374
v 1.54164517 5.52848434 2.11141682
v 1.29416323 5.84995222 2.15232778
v 1.28959298 5.79705191 2.77791691
v 1.30266428 5.80844450 2.46392775
v 1.29497349 5.78793621 2.79272032
v 1.29976916 5.84344482 2.13628292
v 1.57831967 5.54322338 2.12846613
v 1.57374918 5.49032259 2.75405526
v 1.56578624 5.53805876 2.36880732
v 1.56814337 5.49682999 2.77010012
v 1.57293904 5.55233908 2.11366272
v 1.32481921 5.87332106 2.15452766
v 1.32024884 5.82042027 2.78011703
v 1.33483911 5.83878851 2.39255047
v 1.32626748 5.81179094 2.79496622
v 1.33106339 5.86730003 2.13852930
v 1.33096325 5.79959488 2.83610773
v 1.56075752 5.50036621 2.81248331
v 1.55611539 5.50857019 2.80554342
v 1.33711982 5.79373693 2.82805753
v 1.44517064 5.64913464 2.82830071
v 1.30174792 5.77732420 2.83401108
v 1.53154230 5.47809553 2.81038690
v 1.52549601 5.48522949 2.80334592
v 1.30650043 5.77039623 2.82586026
v 1.41727555 5.62787008 2.82629871
v 1.33637023 5.86217928 2.09599638
v 1.56616461 5.56295109 2.07237172
v 1.56141210 5.56987906 2.08052278
v 1.34241664 5.85504580 2.10303712
v 1.45063698 5.71240473 2.08008432
v 1.30715489 5.83990908 2.09389949
v 1.53694916 5.54068041 2.07027555
v 1.53079271 5.54653788 2.07832527
v 1.31179714 5.83170509 2.10083961
v 1.42274189 5.69114017 2.07808256
v 1.29153788 5.85636520 2.15249205
v 1.31932545 5.87754774 2.15448594
v 1.28696227 5.80340433 2.77879333
v 1.31474996 5.82458639 2.78078771
v 1.29533100 5.85405540 2.10903978
v 1.28970432 5.82723475 2.46542192
v 1.29651141 5.84996748 2.12012076
v 1.32448828 5.87628126 2.11113262
v 1.31999290 5.85579967 2.39822912
v 1.32710636 5.87329006 2.12231612
v 1.31624222 5.86410856 2.09653592
v 1.33095932 5.86937761 2.10489297
v 1.33489919 5.86161423 2.09228516
v 1.30084324 5.84642029 2.10273170
v 1.30841756 5.84142780 2.09038448
v 1.29012752 5.79382610 2.82129073
v 1.29147363 5.79165554 2.80969977
v 1.31928480 5.81605244 2.82338357
v 1.32206845 5.81497812 2.81189513
v 1.31084263 5.80161190 2.83560777
v 1.32567298 5.80819082 2.82846808
v 1.32943916 5.79841661 2.83964968
v 1.29555714 5.78523350 2.82630706
v 1.30295742 5.77822971 2.83774924
v 1.55316257 5.51568842 2.12559509
v 1.58095026 5.53687048 2.12758970
v 1.54858708 5.46272755 2.75189710
v 1.57637453 5.48391008 2.75389099
v 1.54862773 5.52422237 2.08299923
v 1.54842615 5.49033785 2.43882370
v 1.54584408 5.52529716 2.09448791
v 1.57778513 5.54644871 2.08509231
v 1.57871449 5.51890326 2.37163115
v 1.57643902 5.54861927 2.09668326
v 1.56280982 5.54303885 2.07118726
v 1.57235551 5.55504131 2.08007598
v 1.56495512 5.56204557 2.06863356
v 1.54223943 5.53208447 2.07791471
v 1.53847337 5.54185867 2.06673336
v 1.54342425 5.46399355 2.79525018
v 1.54080629 5.46698523 2.78406692
v 1.57258153 5.48621988 2.79734325
v 1.57140100 5.49030781 2.78626227
v 1.55741036 5.48054171 2.81025910
v 1.56706929 5.49385500 2.80365133
v 1.55949497 5.49884748 2.81599855
v 1.53695309 5.47089767 2.80149007
v 1.53301334 5.47866058 2.81409788
v 1.52537787 5.48756123 2.76937962
v 1.53017890 5.54313374 2.11219549
v 1.30613291 5.77305269 2.79191971
v 1.31093407 5.82862520 2.13473511
v 1.41575837 5.62844658 2.80424619
v 1.42090404 5.68800735 2.09989405
v 1.55697858 5.51165009 2.77164793
v 1.56177974 5.56722212 2.11446333
v 1.33773375 5.79714155 2.79418778
v 1.34253466 5.85271406 2.13700318
v 1.44700837 5.65226793 2.80648899
v 1.45215428 5.71182871 2.10213685
f 1 47 44
f 1 44 43
f 1 43 45
f 1 45 46
f 1 46 47
f 2 49 52
f 6 72 70
f 12 102 99
f 11 96 95
f 8 79 81
f 4 62 59
f 4 59 58
f 4 58 60
f 4 60 61
f 4 61 62
f 5 66 65
f 3 54 57
f 7 73 77
f 9 85 86
f 10 92 88
f 12 101 98
f 6 69 68
f 2 50 48
f 8 82 78
f 11 97 93
f 6 71 69
f 12 100 101
f 11 94 97
f 8 80 82
f 2 51 50
f 10 90 89
f 5 63 64
f 3 55 53
f 7 76 74
f 9 87 84
f 10 91 90
f 5 67 63
f 3 56 55
f 7 75 76
f 9 83 87
f 6 68 72
f 2 48 49
f 8 78 79
f 11 93 96
f 12 98 102
f 10 88 91
f 5 65 67
f 3 57 56
f 7 77 75
f 9 86 83
f 5 64 66
f 3 53 54
f 7 74 73
f 9 84 85
f 10 89 92
f 6 70 71
f 12 99 100
f 11 95 94
f 8 81 80
f 2 52 51
f 35 109 116
f 18 105 108
f 19 111 106
f 40 114 112
f 42 117 115
f 34 125 119
f 33 152 156
f 25 137 139
f 36 158 160
f 20 123 120
f 32 143 149
f 23 127 132
f 24 135 128
f 37 147 145
f 41 150 148
f 34 153 155
f 33 140 133
f 25 138 134
f 36 159 157
f 20 122 124
f 17 107 47
f 14 103 44
f 13 104 43
f 15 110 45
f 16 113 46
f 18 118 49
f 35 154 72
f 42 141 102
f 40 162 96
f 19 121 79
f 30 142 62
f 27 129 59
f 22 130 58
f 28 144 60
f 29 146 61
f 32 151 66
f 23 131 54
f 24 136 73
f 37 161 85
f 41 126 92
f 35 116 101
f 18 108 69
f 19 106 50
f 40 112 82
f 42 115 97
f 34 119 71
f 33 156 100
f 25 139 94
f 36 160 80
f 20 120 51
f 32 149 90
f 23 132 63
f 24 128 55
f 37 145 76
f 41 148 87
f 34 155 91
f 33 133 67
f 25 134 56
f 36 157 75
f 20 124 83
f 14 109 68
f 13 105 48
f 15 111 78
f 16 114 93
f 17 117 98
f 21 125 88
f 31 152 65
f 26 137 57
f 38 158 77
f 39 123 86
f 27 143 64
f 22 127 53
f 28 135 74
f 29 147 84
f 30 150 89
f 31 153 70
f 26 140 99
f 38 138 95
f 39 159 81
f 21 122 52
f 14 107 109
f 13 103 105
f 15 104 111
f 16 110 114
f 17 113 117
f 21 118 125
f 31 154 152
f 26 141 137
f 38 162 158
f 39 121 123
f 27 142 143
f 22 129 127
f 28 130 135
f 29 144 147
f 30 146 150
f 31 151 153
f 26 131 140
f 38 136 138
f 39 161 159
f 21 126 122
f 14 44 107
f 13 43 103
f 15 45 104
f 16 46 110
f 17 47 113
f 21 52 118
f 31 70 154
f 26 99 141
f 38 95 162
f 39 81 121
f 27 59 142
f 22 58 129
f 28 60 130
f 29 61 144
f 30 62 146
f 31 65 151
f 26 57 131
f 38 77 136
f 39 86 161
f 21 88 126
f 17 98 116
f 14 68 108
f 13 48 106
f 15 78 112
f 16 93 115
f 18 69 119
f 35 101 156
f 42 97 139
f 40 82 160
f 19 50 120
f 30 89 149
f 27 64 132
f 22 53 128
f 28 74 145
f 29 84 148
f 32 90 155
f 23 63 133
f 24 55 134
f 37 76 157
f 41 87 124
f 35 72 109
f 18 49 105
f 19 79 111
f 40 96 114
f 42 102 117
f 34 91 125
f 33 67 152
f 25 56 137
f 36 75 158
f 20 83 123
f 32 66 143
f 23 54 127
f 24 73 135
f 37 85 147
f 41 92 150
f 34 71 153
f 33 100 140
f 25 94 138
f 36 80 159
f 20 51 122
f 17 116 107
f 14 108 103
f 13 106 104
f 15 112 110
f 16 115 113
f 18 119 118
f 35 156 154
f 42 139 141
f 40 160 162
f 19 120 121
f 30 149 142
f 27 132 129
f 22 128 130
f 28 145 144
f 29 148 146
f 32 155 151
f 23 133 131
f 24 134 136
f 37 157 161
f 41 124 126
f 107 44 47
f 103 43 44
f 104 45 43
f 110 46 45
f 113 47 46
f 118 52 49
f 154 70 72
f 141 99 102
f 162 95 96
f 121 81 79
f 142 59 62
f 129 58 59
f 130 60 58
f 144 61 60
f 146 62 61
f 151 65 66
f 131 57 54
f 136 77 73
f 161 86 85
f 126 88 92
f 116 98 101
f 108 68 69
f 106 48 50
f 112 78 82
f 115 93 97
f 119 69 71
f 156 101 100
f 139 97 94
f 160 82 80
f 120 50 51
f 149 89 90
f 132 64 63
f 128 53 55
f 145 74 76
f 148 84 87
f 155 90 91
f 133 63 67
f 134 55 56
f 157 76 75
f 124 87 83
f 109 72 68
f 105 49 48
f 111 79 78
f 114 96 93
f 117 102 98
f 125 91 88
f 152 67 65
f 137 56 57
f 158 75 77
f 123 83 86
f 143 66 64
f 127 54 53
f 135 73 74
f 147 85 84
f 150 92 89
f 153 71 70
f 140 100 99
f 138 94 95
f 159 80 81
f 122 51 52
f 107 116 109
f 103 108 105
f 104 106 111
f 110 112 114
f 113 115 117
f 118 119 125
f 154 156 152
f 141 139 137
f 162 160 158
f 121 120 123
f 142 149 143
f 129 132 127
f 130 128 135
f 144 145 147
f 146 148 150
f 151 155 153
f 131 133 140
f 136 134 138
f 161 157 159
f 126 124 122

