# https://github.com/mikedh/trimesh
v -0.46309072 3.66894531 1.83955824
v -0.41490477 3.58814692 0.42198157
v -1.46074247 4.79481649 1.74147475
v -1.41255629 4.71401834 0.32389784
v -1.43052578 4.71264267 1.03527546
v -0.47975689 3.63967919 1.12874997
v -1.40602684 4.74706507 1.18120503
v -0.45525771 3.67410135 1.27467954
v -0.90107691 4.15923405 0.33780074
v -0.92916781 4.13438225 0.33826256
v -0.95163900 4.24401617 1.82527840
v -0.97972983 4.21916485 1.82574010
v -0.43069375 3.61951971 1.13156664
v -0.48089778 3.65502834 1.80290401
v -0.45294717 3.67975569 1.80244458
v -0.47922835 3.70935774 1.86806893
v -0.50586545 3.68579245 1.86850643
v -0.43520546 3.57841158 0.45868874
v -0.40725490 3.60313916 0.45822930
v -0.42891958 3.62500000 0.38804245
v -0.45555672 3.60143471 0.38848019
v -1.44461071 4.76374674 1.03188396
v -1.47355187 4.77525997 1.70531178
v -1.44560122 4.79998732 1.70485246
v -1.42525005 4.77696419 1.77506101
v -1.45188713 4.75339890 1.77549875
v -1.42785954 4.69864273 0.36109662
v -1.39990914 4.72337055 0.36063719
v -1.37494135 4.69260645 0.29503465
v -1.40157843 4.66904116 0.29547215
v -0.95538169 4.17594862 1.08201671
v -1.38187766 4.64474678 0.33244371
v -1.42982292 4.72514200 1.74294221
v -0.48031220 3.62731099 0.42108059
v -0.52825743 3.70770550 1.83157945
v -0.93048316 4.21093178 1.23032546
v -1.35254931 4.67069292 0.33196187
v -1.40049458 4.75108814 1.74246049
v -0.45098382 3.65325689 0.42059875
v -0.49892908 3.73365188 1.83109736
v -0.91195899 4.14855099 0.32586074
v -0.96334535 4.23471594 1.83758962
v -0.45555848 3.65927911 1.79527295
v -0.47760305 3.65352464 1.82640600
v -0.45142284 3.67668581 1.82597566
v -0.46335933 3.68954062 1.85840130
v -0.48830920 3.66746807 1.85881138
v -0.41042459 3.58359861 0.46748567
v -0.43033338 3.57426262 0.43578672
v -0.40415320 3.59742403 0.43535638
v -0.41381791 3.60646987 0.40094805
v -0.43876785 3.58439660 0.40135837
v -1.46554923 4.79907560 1.69597614
v -1.47665370 4.78097439 1.72818482
v -1.45047319 4.80413628 1.72775435
v -1.44203889 4.79400206 1.76218271
v -1.46698892 4.77192879 1.76259279
v -1.42041552 4.72339535 0.36818862
v -1.42938411 4.70171261 0.33756542
v -1.40320373 4.72487402 0.33713508
v -1.39249742 4.71093082 0.30472970
v -1.41744745 4.68885803 0.30513978
v -1.46501720 4.76386356 1.66349316
v -1.42221904 4.69210005 0.40441918
v -1.40059733 4.67850065 1.03823900
v -1.39905214 4.66477108 0.37558532
v -1.44396055 4.74007368 1.69674385
v -0.48750317 3.66071796 1.75959694
v -0.44470498 3.58895421 0.50052309
v -0.51005006 3.67349863 1.12579262
v -0.46636346 3.61221170 0.46728230
v -0.51127213 3.68751431 1.78844070
v -1.43610179 4.78944492 1.66301811
v -1.39330375 4.71768093 0.40394425
v -1.37579513 4.71334839 1.18597341
v -1.36953473 4.69088459 0.37510014
v -1.41444325 4.76618719 1.69625890
v -0.45858774 3.68629909 1.75912189
v -0.41578951 3.61453509 0.50004792
v -0.48524785 3.70834661 1.27352715
v -0.43684614 3.63832498 0.46679711
v -0.48175466 3.71362782 1.78795588
v -0.45825794 3.65894580 0.38032079
v -1.34435928 4.65893078 0.29320407
v -1.32339323 4.63688564 0.31042647
v -0.47893214 3.68389320 0.39344931
v -0.90165395 4.15792274 0.32861662
v -0.48581457 3.63456702 0.38077354
v -1.37191594 4.63455153 0.29365683
v -1.35227418 4.61133528 0.31090093
v -0.50781316 3.65834284 0.39392376
v -0.92796546 4.13464499 0.32904935
v -0.50889087 3.74384713 1.86988425
v -1.39499223 4.74383163 1.78276742
v -1.37299359 4.72005606 1.76961744
v -0.52853256 3.76706338 1.85264015
v -0.95284122 4.24375343 1.83449173
v -0.53644747 3.71946812 1.87033701
v -1.42254889 4.71945286 1.78322029
v -1.40187466 4.69450569 1.77009189
v -0.55741364 3.74151301 1.85311460
v -0.97915292 4.22047615 1.83492422
v -0.47051108 3.64427876 1.76183116
v -0.44430107 3.66746640 1.76140058
v -0.42766419 3.57243323 0.50132418
v -0.40145421 3.59562039 0.50089383
v -0.49015352 3.66675711 1.84675503
v -0.45562547 3.61384034 1.13104296
v -0.49769911 3.67348242 1.82319999
v -0.46265152 3.69108772 1.84630322
v -0.43227732 3.64664531 1.27011669
v -0.46884120 3.69901228 1.82272577
v -0.48758718 3.69749713 1.87219930
v -0.48553178 3.71803117 1.85543561
v -0.50992376 3.74255347 1.87725401
v -0.51393789 3.69290042 1.85590243
v -0.53490204 3.72045565 1.87766457
v -0.44142663 3.58505201 0.41326451
v -0.45052323 3.59437776 0.43533897
v -0.41392466 3.60938215 0.41281271
v -0.42166537 3.61990786 0.43486500
v -0.43702537 3.61271524 0.38472843
v -0.43603012 3.63502645 0.39915371
v -0.45879465 3.65682006 0.37309241
v -0.46443635 3.60989642 0.39962029
v -0.48377296 3.63472247 0.37350297
v -1.47935259 4.78277826 1.66264737
v -1.45314264 4.80596542 1.66221690
v -1.43650579 4.71093273 0.40214038
v -1.41029572 4.73411989 0.40171003
v -1.46688211 4.76901674 1.75072837
v -1.45327258 4.73970699 1.03295958
v -1.45914137 4.75849104 1.72867620
v -1.43938029 4.79334688 1.75027668
v -1.42992437 4.77251196 1.17203343
v -1.43028355 4.78402090 1.72820210
v -1.43836725 4.77047348 1.77872360
v -1.41637027 4.76850271 1.76392066
v -1.39703381 4.74367619 1.79003823
v -1.44477677 4.74337244 1.76438737
v -1.42201209 4.72157860 1.79044855
v -1.41815519 4.68731117 0.31723785
v -1.41196561 4.67938614 0.34081531
v -1.39065313 4.71164179 0.31678605
v -1.38310766 4.70491648 0.34034085
v -1.38780558 4.68569136 0.29125285
v -1.36686885 4.68549824 0.30763865
v -1.34590471 4.65794325 0.28587651
v -1.39527512 4.66036749 0.30810547
v -1.37088299 4.63584518 0.28628731
v -1.35553801 4.61535931 0.37912560
v -1.40049767 4.69074726 1.70178819
v -0.51011580 3.66128206 0.46224284
v -0.55507547 3.73667026 1.78490531
v -0.93104810 4.13576126 0.37321615
v -0.97923464 4.21656084 1.79080927
v -1.32573140 4.64172840 0.37863564
v -1.37069094 4.71711683 1.70129824
v -0.48030916 3.68765140 0.46175289
v -0.52526879 3.76303983 1.78441548
v -0.90157223 4.16183805 0.37273192
v -0.94975871 4.24263763 1.79032493
f 1 47 44
f 1 44 43
f 1 43 45
f 1 45 46
f 1 46 47
f 2 49 52
f 6 72 70
f 12 102 99
f 11 96 95
f 8 79 81
f 4 62 59
f 4 59 58
f 4 58 60
f 4 60 61
f 4 61 62
f 5 66 65
f 3 54 57
f 7 73 77
f 9 85 86
f 10 92 88
f 12 101 98
f 6 69 68
f 2 50 48
f 8 82 78
f 11 97 93
f 6 71 69
f 12 100 101
f 11 94 97
f 8 80 82
f 2 51 50
f 10 90 89
f 5 63 64
f 3 55 53
f 7 76 74
f 9 87 84
f 10 91 90
f 5 67 63
f 3 56 55
f 7 75 76
f 9 83 87
f 6 68 72
f 2 48 49
f 8 78 79
f 11 93 96
f 12 98 102
f 10 88 91
f 5 65 67
f 3 57 56
f 7 77 75
f 9 86 83
f 5 64 66
f 3 53 54
f 7 74 73
f 9 84 85
f 10 89 92
f 6 70 71
f 12 99 100
f 11 95 94
f 8 81 80
f 2 52 51
f 35 109 116
f 18 105 108
f 19 111 106
f 40 114 112
f 42 117 115
f 34 125 119
f 33 152 156
f 25 137 139
f 36 158 160
f 20 123 120
f 32 143 149
f 23 127 132
f 24 135 128
f 37 147 145
f 41 150 148
f 34 153 155
f 33 140 133
f 25 138 134
f 36 159 157
f 20 122 124
f 17 107 47
f 14 103 44
f 13 104 43
f 15 110 45
f 16 113 46
f 18 118 49
f 35 154 72
f 42 141 102
f 40 162 96
f 19 121 79
f 30 142 62
f 27 129 59
f 22 130 58
f 28 144 60
f 29 146 61
f 32 151 66
f 23 131 54
f 24 136 73
f 37 161 85
f 41 126 92
f 35 116 101
f 18 108 69
f 19 106 50
f 40 112 82
f 42 115 97
f 34 119 71
f 33 156 100
f 25 139 94
f 36 160 80
f 20 120 51
f 32 149 90
f 23 132 63
f 24 128 55
f 37 145 76
f 41 148 87
f 34 155 91
f 33 133 67
f 25 134 56
f 36 157 75
f 20 124 83
f 14 109 68
f 13 105 48
f 15 111 78
f 16 114 93
f 17 117 98
f 21 125 88
f 31 152 65
f 26 137 57
f 38 158 77
f 39 123 86
f 27 143 64
f 22 127 53
f 28 135 74
f 29 147 84
f 30 150 89
f 31 153 70
f 26 140 99
f 38 138 95
f 39 159 81
f 21 122 52
f 14 107 109
f 13 103 105
f 15 104 111
f 16 110 114
f 17 113 117
f 21 118 125
f 31 154 152
f 26 141 137
f 38 162 158
f 39 121 123
f 27 142 143
f 22 129 127
f 28 130 135
f 29 144 147
f 30 146 150
f 31 151 153
f 26 131 140
f 38 136 138
f 39 161 159
f 21 126 122
f 14 44 107
f 13 43 103
f 15 45 104
f 16 46 110
f 17 47 113
f 21 52 118
f 31 70 154
f 26 99 141
f 38 95 162
f 39 81 121
f 27 59 142
f 22 58 129
f 28 60 130
f 29 61 144
f 30 62 146
f 31 65 151
f 26 57 131
f 38 77 136
f 39 86 161
f 21 88 126
f 17 98 116
f 14 68 108
f 13 48 106
f 15 78 112
f 16 93 115
f 18 69 119
f 35 101 156
f 42 97 139
f 40 82 160
f 19 50 120
f 30 89 149
f 27 64 132
f 22 53 128
f 28 74 145
f 29 84 148
f 32 90 155
f 23 63 133
f 24 55 134
f 37 76 157
f 41 87 124
f 35 72 109
f 18 49 105
f 19 79 111
f 40 96 114
f 42 102 117
f 34 91 125
f 33 67 152
f 25 56 137
f 36 75 158
f 20 83 123
f 32 66 143
f 23 54 127
f 24 73 135
f 37 85 147
f 41 92 150
f 34 71 153
f 33 100 140
f 25 94 138
f 36 80 159
f 20 51 122
f 17 116 107
f 14 108 103
f 13 106 104
f 15 112 110
f 16 115 113
f 18 119 118
f 35 156 154
f 42 139 141
f 40 160 162
f 19 120 121
f 30 149 142
f 27 132 129
f 22 128 130
f 28 145 144
f 29 148 146
f 32 155 151
f 23 133 131
f 24 134 136
f 37 157 161
f 41 124 126
f 107 44 47
f 103 43 44
f 104 45 43
f 110 46 45
f 113 47 46
f 118 52 49
f 154 70 72
f 141 99 102
f 162 95 96
f 121 81 79
f 142 59 62
f 129 58 59
f 130 60 58
f 144 61 60
f 146 62 61
f 151 65 66
f 131 57 54
f 136 77 73
f 161 86 85
f 126 88 92
f 116 98 101
f 108 68 69
f 106 48 50
f 112 78 82
f 115 93 97
f 119 69 71
f 156 101 100
f 139 97 94
f 160 82 80
f 120 50 51
f 149 89 90
f 132 64 63
f 128 53 55
f 145 74 76
f 148 84 87
f 155 90 91
f 133 63 67
f 134 55 56
f 157 76 75
f 124 87 83
f 109 72 68
f 105 49 48
f 111 79 78
f 114 96 93
f 117 102 98
f 125 91 88
f 152 67 65
f 137 56 57
f 158 75 77
f 123 83 86
f 143 66 64
f 127 54 53
f 135 73 74
f 147 85 84
f 150 92 89
f 153 71 70
f 140 100 99
f 138 94 95
f 159 80 81
f 122 51 52
f 107 116 109
f 103 108 105
f 104 106 111
f 110 112 114
f 113 115 117
f 118 119 125
f 154 156 152
f 141 139 137
f 162 160 158
f 121 120 123
f 142 149 143
f 129 132 127
f 130 128 135
f 144 145 147
f 146 148 150
f 151 155 153
f 131 133 140
f 136 134 138
f 161 157 159
f 126 124 122

