# https://github.com/mikedh/trimesh
v 0.88627499 1.39898503 0.24814558
v -0.85072678 3.40455818 0.24666309
v 1.13627768 1.61551785 0.25989199
v -0.60072404 3.62109137 0.25840926
v 0.26127365 2.61268926 0.28198409
v 0.02301937 2.40633178 0.27078986
v 0.44174987 2.40644193 0.24280357
v 0.20349555 2.20008469 0.23160934
v -0.76813501 3.56262159 0.23719978
v -0.76915509 3.56176591 0.27468491
v 1.05451846 1.45815313 0.23875546
v 1.05349839 1.45729744 0.27624059
v 0.01574230 2.40001178 0.24708009
v 0.84135389 1.45091844 0.27022815
v 0.84236878 1.45176995 0.23293018
v 0.93139470 1.36073828 0.23415208
v 0.93042737 1.35992694 0.26969743
v -0.80575567 3.35270071 0.26882243
v -0.80474073 3.35355210 0.23152471
v -0.88212883 3.45466518 0.23260427
v -0.88309592 3.45385361 0.26814961
v 0.26982090 2.62007499 0.25901771
v 1.09010422 1.66636670 0.28191566
v 1.09111905 1.66721821 0.24461770
v 1.16845930 1.56606543 0.24529076
v 1.16749215 1.56525385 0.28083587
v -0.55700529 3.56814909 0.28050995
v -0.55599040 3.56900024 0.24321222
v -0.64506394 3.65999198 0.24374294
v -0.64603126 3.65918088 0.27928805
v 0.14213781 2.50950313 0.27670765
v -0.60905296 3.60513139 0.28085852
v 1.11927581 1.60957205 0.28233337
v -0.83497721 3.40945363 0.27024317
v 0.89335144 1.41389394 0.27171850
v 0.32555640 2.29989338 0.23688841
v -0.60798794 3.60602474 0.24172211
v 1.12034070 1.61046553 0.24319696
v -0.83391225 3.41034675 0.23110700
v 0.89441639 1.41478741 0.23258185
v -0.78340304 3.57943273 0.25225830
v 1.06896627 1.44065380 0.25383925
v 0.82971215 1.46115732 0.24824405
v 0.86901474 1.41742539 0.26903367
v 0.86996537 1.41822290 0.23409820
v 0.91344225 1.37313688 0.23507380
v 0.91253626 1.37237680 0.26836753
v -0.79726797 3.33969808 0.24685550
v -0.83495516 3.38485980 0.26757932
v -0.83400452 3.38565707 0.23264408
v -0.87242138 3.43512726 0.23354959
v -0.87332726 3.43436694 0.26684356
v 1.08280694 1.68036819 0.26013565
v 1.11936796 1.63426173 0.28079653
v 1.12031853 1.63505924 0.24586105
v 1.15869057 1.58555198 0.24659681
v 1.15778470 1.58479190 0.27989054
v -0.54417318 3.55890870 0.25874710
v -0.58460188 3.60169625 0.27934194
v -0.58365119 3.60249352 0.24440670
v -0.62717295 3.64754224 0.24507260
v -0.62807894 3.64678216 0.27836633
v 1.03602636 1.72493768 0.28242588
v -0.50675654 3.50626254 0.28110909
v 0.25372157 2.60614824 0.28187275
v -0.55042124 3.54530764 0.28121448
v 1.06843638 1.67614532 0.28259611
v 0.79106998 1.51277542 0.27091670
v -0.75171292 3.29410052 0.26959991
v 0.03055827 2.41286159 0.27138758
v -0.78414488 3.34287429 0.27023315
v 0.83471274 1.47371233 0.27161455
v 1.03707647 1.72581863 0.24384046
v -0.50570649 3.50714350 0.24252367
v 0.43642992 2.39735007 0.24220777
v -0.54934937 3.54620647 0.24182582
v 1.06950831 1.67704463 0.24320722
v 0.79212004 1.51365638 0.23233128
v -0.75066280 3.29498148 0.23101425
v 0.21326663 2.20406342 0.23172259
v -0.78307295 3.34377360 0.23084426
v 0.83578467 1.47461128 0.23222589
v -0.88044727 3.46792793 0.23233891
v -0.65839803 3.66024971 0.24277163
v -0.64498305 3.63426590 0.24165845
v -0.85659754 3.45098186 0.23171592
v -0.77943891 3.57560897 0.23837733
v -0.88144791 3.46708846 0.26911116
v -0.65939867 3.65941024 0.27954388
v -0.64603180 3.63338590 0.28019834
v -0.85764641 3.45010185 0.27025557
v -0.78039432 3.57480741 0.27348804
v 0.94476211 1.36050868 0.23389626
v 1.16681123 1.55283034 0.24432921
v 1.14300978 1.56981695 0.24318457
v 0.93139535 1.38653302 0.23324203
v 1.06575763 1.44511151 0.23995233
v 0.94376147 1.35966921 0.27066875
v 1.16581070 1.55199087 0.28110170
v 1.14196086 1.56893718 0.28172421
v 0.93034655 1.38565326 0.27178144
v 1.06480229 1.44431007 0.27506304
v 0.78807199 1.50840318 0.26892781
v 0.78902382 1.50920165 0.23395252
v -0.75646722 3.29175568 0.26760983
v -0.75551552 3.29255438 0.23263431
v 0.89805335 1.38950062 0.27006960
v 0.01717090 2.40126562 0.26958990
v 0.87198842 1.42341697 0.27104020
v 0.89905202 1.39033854 0.23337007
v 0.18916799 2.20470834 0.23225021
v 0.87303621 1.42429614 0.23253155
v 0.93497419 1.35463262 0.24828839
v 0.91878182 1.37920964 0.23304892
v 0.95353264 1.35003328 0.23561835
v 0.91775030 1.37834430 0.27095485
v 0.95262563 1.34927237 0.26895022
v -0.85844827 3.41758895 0.26857042
v -0.82860178 3.38694882 0.26958871
v -0.85744947 3.41842675 0.23187089
v -0.82755393 3.38782835 0.23108006
v -0.88767123 3.45909142 0.24673295
v -0.86564678 3.43954277 0.23152590
v -0.88956422 3.47810626 0.23404527
v -0.86667830 3.43867779 0.26943183
v -0.89047122 3.47734523 0.26737714
v 1.04087877 1.72736466 0.28080583
v 1.04183066 1.72816312 0.24583054
v -0.50366044 3.51071739 0.27948785
v -0.50270867 3.51151586 0.24451256
v 1.14281285 1.60149240 0.28156924
v 0.26717246 2.61779737 0.28133607
v 1.11291730 1.63209093 0.28236032
v 1.14381146 1.60233009 0.24486995
v 0.43916953 2.42124009 0.24399638
v 1.11396515 1.63296998 0.24385142
v 1.17323112 1.56099236 0.25948286
v 1.15204155 1.58124125 0.24400854
v 1.17583454 1.54257381 0.24606323
v 1.15101016 1.58037603 0.28191447
v 1.17492759 1.54181302 0.27939487
v -0.61368859 3.62958050 0.28007030
v -0.58767289 3.59562302 0.28090858
v -0.61268985 3.63041830 0.24337077
v -0.58662504 3.59650183 0.24240017
v -0.64941406 3.66545129 0.25792718
v -0.63238686 3.64157462 0.24248552
v -0.66726226 3.67064667 0.24449015
v -0.63341838 3.64070916 0.28039169
v -0.66816926 3.66988564 0.27782202
v -0.56228209 3.53689647 0.28089309
v 1.05841839 1.66560686 0.28227615
v -0.77413738 3.35340405 0.27093887
v 0.84656304 1.48211432 0.27232218
v -0.72636437 3.51230884 0.27564549
v 1.01065755 1.50671220 0.27712798
v -0.56119967 3.53780460 0.24111819
v 1.05950069 1.66651499 0.24250126
v -0.77305502 3.35431218 0.23116422
v 0.84764540 1.48302233 0.23254728
v -0.72529405 3.51320672 0.23631239
v 1.01172793 1.50760996 0.23779464
f 1 47 44
f 1 44 43
f 1 43 45
f 1 45 46
f 1 46 47
f 2 49 52
f 6 72 70
f 12 102 99
f 11 96 95
f 8 79 81
f 4 62 59
f 4 59 58
f 4 58 60
f 4 60 61
f 4 61 62
f 5 66 65
f 3 54 57
f 7 73 77
f 9 85 86
f 10 92 88
f 12 101 98
f 6 69 68
f 2 50 48
f 8 82 78
f 11 97 93
f 6 71 69
f 12 100 101
f 11 94 97
f 8 80 82
f 2 51 50
f 10 90 89
f 5 63 64
f 3 55 53
f 7 76 74
f 9 87 84
f 10 91 90
f 5 67 63
f 3 56 55
f 7 75 76
f 9 83 87
f 6 68 72
f 2 48 49
f 8 78 79
f 11 93 96
f 12 98 102
f 10 88 91
f 5 65 67
f 3 57 56
f 7 77 75
f 9 86 83
f 5 64 66
f 3 53 54
f 7 74 73
f 9 84 85
f 10 89 92
f 6 70 71
f 12 99 100
f 11 95 94
f 8 81 80
f 2 52 51
f 35 109 116
f 18 105 108
f 19 111 106
f 40 114 112
f 42 117 115
f 34 125 119
f 33 152 156
f 25 137 139
f 36 158 160
f 20 123 120
f 32 143 149
f 23 127 132
f 24 135 128
f 37 147 145
f 41 150 148
f 34 153 155
f 33 140 133
f 25 138 134
f 36 159 157
f 20 122 124
f 17 107 47
f 14 103 44
f 13 104 43
f 15 110 45
f 16 113 46
f 18 118 49
f 35 154 72
f 42 141 102
f 40 162 96
f 19 121 79
f 30 142 62
f 27 129 59
f 22 130 58
f 28 144 60
f 29 146 61
f 32 151 66
f 23 131 54
f 24 136 73
f 37 161 85
f 41 126 92
f 35 116 101
f 18 108 69
f 19 106 50
f 40 112 82
f 42 115 97
f 34 119 71
f 33 156 100
f 25 139 94
f 36 160 80
f 20 120 51
f 32 149 90
f 23 132 63
f 24 128 55
f 37 145 76
f 41 148 87
f 34 155 91
f 33 133 67
f 25 134 56
f 36 157 75
f 20 124 83
f 14 109 68
f 13 105 48
f 15 111 78
f 16 114 93
f 17 117 98
f 21 125 88
f 31 152 65
f 26 137 57
f 38 158 77
f 39 123 86
f 27 143 64
f 22 127 53
f 28 135 74
f 29 147 84
f 30 150 89
f 31 153 70
f 26 140 99
f 38 138 95
f 39 159 81
f 21 122 52
f 14 107 109
f 13 103 105
f 15 104 111
f 16 110 114
f 17 113 117
f 21 118 125
f 31 154 152
f 26 141 137
f 38 162 158
f 39 121 123
f 27 142 143
f 22 129 127
f 28 130 135
f 29 144 147
f 30 146 150
f 31 151 153
f 26 131 140
f 38 136 138
f 39 161 159
f 21 126 122
f 14 44 107
f 13 43 103
f 15 45 104
f 16 46 110
f 17 47 113
f 21 52 118
f 31 70 154
f 26 99 141
f 38 95 162
f 39 81 121
f 27 59 142
f 22 58 129
f 28 60 130
f 29 61 144
f 30 62 146
f 31 65 151
f 26 57 131
f 38 77 136
f 39 86 161
f 21 88 126
f 17 98 116
f 14 68 108
f 13 48 106
f 15 78 112
f 16 93 115
f 18 69 119
f 35 101 156
f 42 97 139
f 40 82 160
f 19 50 120
f 30 89 149
f 27 64 132
f 22 53 128
f 28 74 145
f 29 84 148
f 32 90 155
f 23 63 133
f 24 55 134
f 37 76 157
f 41 87 124
f 35 72 109
f 18 49 105
f 19 79 111
f 40 96 114
f 42 102 117
f 34 91 125
f 33 67 152
f 25 56 137
f 36 75 158
f 20 83 123
f 32 66 143
f 23 54 127
f 24 73 135
f 37 85 147
f 41 92 150
f 34 71 153
f 33 100 140
f 25 94 138
f 36 80 159
f 20 51 122
f 17 116 107
f 14 108 103
f 13 106 104
f 15 112 110
f 16 115 113
f 18 119 118
f 35 156 154
f 42 139 141
f 40 160 162
f 19 120 121
f 30 149 142
f 27 132 129
f 22 128 130
f 28 145 144
f 29 148 146
f 32 155 151
f 23 133 131
f 24 134 136
f 37 157 161
f 41 124 126
f 107 44 47
f 103 43 44
f 104 45 43
f 110 46 45
f 113 47 46
f 118 52 49
f 154 70 72
f 141 99 102
f 162 95 96
f 121 81 79
f 142 59 62
f 129 58 59
f 130 60 58
f 144 61 60
f 146 62 61
f 151 65 66
f 131 57 54
f 136 77 73
f 161 86 85
f 126 88 92
f 116 98 101
f 108 68 69
f 106 48 50
f 112 78 82
f 115 93 97
f 119 69 71
f 156 101 100
f 139 97 94
f 160 82 80
f 120 50 51
f 149 89 90
f 132 64 63
f 128 53 55
f 145 74 76
f 148 84 87
f 155 90 91
f 133 63 67
f 134 55 56
f 157 76 75
f 124 87 83
f 109 72 68
f 105 49 48
f 111 79 78
f 114 96 93
f 117 102 98
f 125 91 88
f 152 67 65
f 137 56 57
f 158 75 77
f 123 83 86
f 143 66 64
f 127 54 53
f 135 73 74
f 147 85 84
f 150 92 89
f 153 71 70
f 140 100 99
f 138 94 95
f 159 80 81
f 122 51 52
f 107 116 109
f 103 108 105
f 104 106 111
f 110 112 114
f 113 115 117
f 118 119 125
f 154 156 152
f 141 139 137
f 162 160 158
f 121 120 123
f 142 149 143
f 129 132 127
f 130 128 135
f 144 145 147
f 146 148 150
f 151 155 153
f 131 133 140
f 136 134 138
f 161 157 159
f 126 124 122

