# https://github.com/mikedh/trimesh
v 1.36059844 1.86171973 0.43073964
v -0.03253320 3.48292136 0.43151712
v 1.36581016 1.86614323 0.54537344
v -0.02732162 3.48734450 0.54615116
v 0.65161508 2.66159534 0.54444528
v 0.64664835 2.65737987 0.43519831
v 0.82530183 2.51975679 0.54202223
v 0.82033503 2.51554108 0.43277526
v -0.05268457 3.53506398 0.48794222
v -0.08108173 3.51066065 0.49017477
v 1.40914249 1.83392119 0.48712587
v 1.38074541 1.80951786 0.48935866
v 0.66416329 2.67243314 0.43018031
v 1.30782771 1.88929844 0.43236256
v 1.33608294 1.91358006 0.43014121
v 1.40227544 1.83545315 0.43283510
v 1.37534797 1.81231260 0.43495226
v -0.01320765 3.42660069 0.43309999
v 0.01504777 3.45088196 0.43087864
v -0.05222898 3.52807474 0.43364716
v -0.07915652 3.50493431 0.43576431
v 0.66945988 2.67692876 0.54668307
v 1.31301308 1.89369988 0.54642224
v 1.34126842 1.91798139 0.54420066
v 1.40721750 1.83964753 0.54153657
v 1.38028979 1.81650722 0.54365373
v -0.00802215 3.43100166 0.54715991
v 0.02023325 3.45528340 0.54493809
v -0.04728708 3.53226924 0.54234862
v -0.07421460 3.50912905 0.54446554
v 0.64888877 2.65927887 0.48984098
v -0.04152659 3.46810389 0.54199934
v 1.34464884 1.85499716 0.54122567
v -0.04623630 3.46410632 0.43840623
v 1.33993924 1.85099983 0.43763232
v 0.82540721 2.51512766 0.48737836
v -0.01187840 3.49358201 0.53966832
v 1.37429714 1.88047552 0.53889465
v -0.01658812 3.48958492 0.43607497
v 1.36958742 1.87647808 0.43530130
v -0.07601845 3.53911996 0.48884654
v 1.40964162 1.81024218 0.48801708
v 1.31628060 1.91289377 0.43006825
v 1.33150756 1.86351848 0.43191218
v 1.35797334 1.88626206 0.42983127
v 1.39024532 1.84755576 0.43103218
v 1.36502326 1.82588100 0.43301535
v 0.01138978 3.43140841 0.43079662
v -0.03513137 3.45389032 0.43267488
v -0.00866571 3.47663355 0.43059421
v -0.04207501 3.51436162 0.43183160
v -0.06729706 3.49268675 0.43381500
v 1.32155657 1.91737187 0.54611993
v 1.33672643 1.86794829 0.54670644
v 1.36319232 1.89069164 0.54462576
v 1.39535785 1.85189497 0.54348612
v 1.37013590 1.83022046 0.54546905
v 0.01666591 3.43588638 0.54684854
v -0.02991245 3.45831990 0.54746962
v -0.00344678 3.48106360 0.54538870
v -0.03696246 3.51870084 0.54428577
v -0.06218452 3.49702621 0.54626870
v 1.27064919 1.94193292 0.54561424
v 0.03328738 3.38186336 0.54630494
v 0.65127349 2.66130352 0.54099989
v 0.00235878 3.41700435 0.54377055
v 1.30073524 1.90607047 0.54304576
v 1.26554275 1.93759882 0.43329406
v 0.02818088 3.37752938 0.43398476
v 0.64662135 2.65735507 0.43867278
v -0.00251351 3.41286898 0.43660116
v 1.29586291 1.90193498 0.43587637
v 1.29988003 1.96705270 0.54331589
v 0.06251810 3.40698338 0.54400659
v 0.82710844 2.51771045 0.53854680
v 0.03219803 3.44264698 0.54142451
v 1.33057427 1.93171310 0.54069972
v 1.29477346 1.96271837 0.43099594
v 0.05741162 3.40264893 0.43168664
v 0.82245630 2.51376200 0.43621945
v 0.02732575 3.43851137 0.43425512
v 1.32570207 1.92757761 0.43353033
v -0.05629394 3.53406024 0.43705583
v -0.05166508 3.53798914 0.53887224
v -0.03617995 3.52110434 0.53641891
v -0.04059132 3.51736045 0.43938708
v -0.06262401 3.54481125 0.48801780
v -0.08415105 3.51012087 0.43924618
v -0.07952219 3.51404977 0.54106259
v -0.06537597 3.49601460 0.53871441
v -0.06978733 3.49227071 0.44168258
v -0.08922255 3.52195382 0.49010921
v 1.40758300 1.83053184 0.43623853
v 1.41221178 1.83446085 0.53805494
v 1.39784813 1.85231149 0.53561831
v 1.39343691 1.84856713 0.43858647
v 1.41728354 1.82262814 0.48719168
v 1.37972593 1.80659270 0.43842864
v 1.38435471 1.81052160 0.54024506
v 1.36865199 1.82722175 0.53791380
v 1.36424088 1.82347739 0.44088197
v 1.39068484 1.79977059 0.48928285
v 1.26753259 1.93788481 0.43138647
v 1.29402852 1.96065426 0.42930317
v 0.02876232 3.37945461 0.43207788
v 0.05525815 3.40222383 0.42999482
v 1.35196376 1.83847916 0.43323517
v 0.64722586 2.65787745 0.43245006
v 1.32889712 1.86401606 0.43417978
v 1.37976587 1.86237085 0.43104935
v 0.81275243 2.52270246 0.43014073
v 1.35806966 1.88908565 0.43188620
v 1.39519382 1.82196701 0.43340325
v 1.39154184 1.84983289 0.43364358
v 1.41345024 1.82106233 0.43627906
v 1.36282587 1.82515562 0.43590117
v 1.38819969 1.79936290 0.43826437
v -0.05680725 3.47788048 0.43402171
v -0.03503126 3.45123315 0.43494129
v -0.02900532 3.50177193 0.43183589
v -0.00585872 3.47630310 0.43264747
v -0.06662667 3.52310252 0.43421936
v -0.03962763 3.51529932 0.43444252
v -0.06477301 3.54128575 0.43710423
v -0.06834358 3.49062204 0.43670034
v -0.09002367 3.51958609 0.43908954
v 1.27280283 1.94235790 0.54730606
v 1.29929852 1.96512735 0.54522276
v 0.03403240 3.38392758 0.54799771
v 0.06052823 3.40669703 0.54591441
v 1.35706627 1.84280980 0.54546499
v 0.65243745 2.66230083 0.54708338
v 1.33391964 1.86827886 0.54465318
v 1.38486803 1.86670160 0.54327917
v 0.81796414 2.52712607 0.54477406
v 1.36309218 1.89334869 0.54235959
v 1.40016079 1.82618272 0.54265118
v 1.39640450 1.85395992 0.54060054
v 1.41808462 1.82499576 0.53821135
v 1.36768854 1.82928264 0.54285836
v 1.39283383 1.80329633 0.54019642
v -0.05170492 3.48221087 0.54625154
v -0.03000880 3.45549607 0.54541469
v -0.02390300 3.50610280 0.54406571
v -0.00083624 3.48056579 0.54312110
v -0.06165984 3.52731824 0.54346752
v -0.03476500 3.51942635 0.54139948
v -0.06013881 3.54521894 0.53903651
v -0.06348095 3.49474907 0.54365730
v -0.08538949 3.52351952 0.54102182
v 0.00124574 3.41754484 0.53876901
v 1.30110002 1.90489149 0.53804326
v -0.00317067 3.41379666 0.44162655
v 1.29668355 1.90114307 0.44090104
v -0.04744220 3.47009778 0.49021077
v 1.34570575 1.84887755 0.48943281
v 0.03137734 3.44343901 0.53639960
v 1.33123147 1.93078530 0.53567410
v 0.02696093 3.43969035 0.43925786
v 1.32681501 1.92703688 0.43853188
v -0.01764485 3.49570441 0.48786807
v 1.37550306 1.87448406 0.48709011
f 1 47 44
f 1 44 43
f 1 43 45
f 1 45 46
f 1 46 47
f 2 49 52
f 6 72 70
f 12 102 99
f 11 96 95
f 8 79 81
f 4 62 59
f 4 59 58
f 4 58 60
f 4 60 61
f 4 61 62
f 5 66 65
f 3 54 57
f 7 73 77
f 9 85 86
f 10 92 88
f 12 101 98
f 6 69 68
f 2 50 48
f 8 82 78
f 11 97 93
f 6 71 69
f 12 100 101
f 11 94 97
f 8 80 82
f 2 51 50
f 10 90 89
f 5 63 64
f 3 55 53
f 7 76 74
f 9 87 84
f 10 91 90
f 5 67 63
f 3 56 55
f 7 75 76
f 9 83 87
f 6 68 72
f 2 48 49
f 8 78 79
f 11 93 96
f 12 98 102
f 10 88 91
f 5 65 67
f 3 57 56
f 7 77 75
f 9 86 83
f 5 64 66
f 3 53 54
f 7 74 73
f 9 84 85
f 10 89 92
f 6 70 71
f 12 99 100
f 11 95 94
f 8 81 80
f 2 52 51
f 35 109 116
f 18 105 108
f 19 111 106
f 40 114 112
f 42 117 115
f 34 125 119
f 33 152 156
f 25 137 139
f 36 158 160
f 20 123 120
f 32 143 149
f 23 127 132
f 24 135 128
f 37 147 145
f 41 150 148
f 34 153 155
f 33 140 133
f 25 138 134
f 36 159 157
f 20 122 124
f 17 107 47
f 14 103 44
f 13 104 43
f 15 110 45
f 16 113 46
f 18 118 49
f 35 154 72
f 42 141 102
f 40 162 96
f 19 121 79
f 30 142 62
f 27 129 59
f 22 130 58
f 28 144 60
f 29 146 61
f 32 151 66
f 23 131 54
f 24 136 73
f 37 161 85
f 41 126 92
f 35 116 101
f 18 108 69
f 19 106 50
f 40 112 82
f 42 115 97
f 34 119 71
f 33 156 100
f 25 139 94
f 36 160 80
f 20 120 51
f 32 149 90
f 23 132 63
f 24 128 55
f 37 145 76
f 41 148 87
f 34 155 91
f 33 133 67
f 25 134 56
f 36 157 75
f 20 124 83
f 14 109 68
f 13 105 48
f 15 111 78
f 16 114 93
f 17 117 98
f 21 125 88
f 31 152 65
f 26 137 57
f 38 158 77
f 39 123 86
f 27 143 64
f 22 127 53
f 28 135 74
f 29 147 84
f 30 150 89
f 31 153 70
f 26 140 99
f 38 138 95
f 39 159 81
f 21 122 52
f 14 107 109
f 13 103 105
f 15 104 111
f 16 110 114
f 17 113 117
f 21 118 125
f 31 154 152
f 26 141 137
f 38 162 158
f 39 121 123
f 27 142 143
f 22 129 127
f 28 130 135
f 29 144 147
f 30 146 150
f 31 151 153
f 26 131 140
f 38 136 138
f 39 161 159
f 21 126 122
f 14 44 107
f 13 43 103
f 15 45 104
f 16 46 110
f 17 47 113
f 21 52 118
f 31 70 154
f 26 99 141
f 38 95 162
f 39 81 121
f 27 59 142
f 22 58 129
f 28 60 130
f 29 61 144
f 30 62 146
f 31 65 151
f 26 57 131
f 38 77 136
f 39 86 161
f 21 88 126
f 17 98 116
f 14 68 108
f 13 48 106
f 15 78 112
f 16 93 115
f 18 69 119
f 35 101 156
f 42 97 139
f 40 82 160
f 19 50 120
f 30 89 149
f 27 64 132
f 22 53 128
f 28 74 145
f 29 84 148
f 32 90 155
f 23 63 133
f 24 55 134
f 37 76 157
f 41 87 124
f 35 72 109
f 18 49 105
f 19 79 111
f 40 96 114
f 42 102 117
f 34 91 125
f 33 67 152
f 25 56 137
f 36 75 158
f 20 83 123
f 32 66 143
f 23 54 127
f 24 73 135
f 37 85 147
f 41 92 150
f 34 71 153
f 33 100 140
f 25 94 138
f 36 80 159
f 20 51 122
f 17 116 107
f 14 108 103
f 13 106 104
f 15 112 110
f 16 115 113
f 18 119 118
f 35 156 154
f 42 139 141
f 40 160 162
f 19 120 121
f 30 149 142
f 27 132 129
f 22 128 130
f 28 145 144
f 29 148 146
f 32 155 151
f 23 133 131
f 24 134 136
f 37 157 161
f 41 124 126
f 107 44 47
f 103 43 44
f 104 45 43
f 110 46 45
f 113 47 46
f 118 52 49
f 154 70 72
f 141 99 102
f 162 95 96
f 121 81 79
f 142 59 62
f 129 58 59
f 130 60 58
f 144 61 60
f 146 62 61
f 151 65 66
f 131 57 54
f 136 77 73
f 161 86 85
f 126 88 92
f 116 98 101
f 108 68 69
f 106 48 50
f 112 78 82
f 115 93 97
f 119 69 71
f 156 101 100
f 139 97 94
f 160 82 80
f 120 50 51
f 149 89 90
f 132 64 63
f 128 53 55
f 145 74 76
f 148 84 87
f 155 90 91
f 133 63 67
f 134 55 56
f 157 76 75
f 124 87 83
f 109 72 68
f 105 49 48
f 111 79 78
f 114 96 93
f 117 102 98
f 125 91 88
f 152 67 65
f 137 56 57
f 158 75 77
f 123 83 86
f 143 66 64
f 127 54 53
f 135 73 74
f 147 85 84
f 150 92 89
f 153 71 70
f 140 100 99
f 138 94 95
f 159 80 81
f 122 51 52
f 107 116 109
f 103 108 105
f 104 106 111
f 110 112 114
f 113 115 117
f 118 119 125
f 154 156 152
f 141 139 137
f 162 160 158
f 121 120 123
f 142 149 143
f 129 132 127
f 130 128 135
f 144 145 147
f 146 148 150
f 151 155 153
f 131 133 140
f 136 134 138
f 161 157 159
f 126 124 122

