# https://github.com/mikedh/trimesh
v 0.75492120 4.57758760 0.95726407
v 2.05102634 3.19729185 0.95865297
v 0.52925920 4.36566687 0.93443227
v 1.82536399 2.98537111 0.93582118
v 1.18136251 3.67934656 0.95872438
v 1.39641988 3.88130856 0.98048341
v 1.04962456 3.82387066 0.91932929
v 1.26468205 4.02583265 0.94108832
v 1.97097933 3.05806303 0.93200314
v 1.96894932 3.05619454 0.96941018
v 0.61096317 4.50642109 0.93054605
v 0.60893321 4.50455236 0.96795321
v 1.40482545 3.88917851 0.95791650
v 0.78669721 4.54023933 0.97928870
v 0.78871709 4.54209852 0.94206846
v 0.72130883 4.60322189 0.94234252
v 0.71938390 4.60144997 0.97781408
v 2.01572704 3.23137593 0.98060548
v 2.01774669 3.23323536 0.94338512
v 2.07451200 3.16211891 0.94379258
v 2.07258749 3.16034698 0.97926378
v 1.17548454 3.67380285 0.93471241
v 0.56216562 4.32938004 0.95657110
v 0.56418556 4.33123970 0.91935062
v 0.50732517 4.40226841 0.92069232
v 0.50540024 4.40049648 0.95616364
v 1.79119515 3.02051687 0.95788801
v 1.79321539 3.02237606 0.92066765
v 1.86052847 2.96116519 0.92214239
v 1.85860372 2.95939350 0.95761371
v 1.28887379 3.78031135 0.96992397
v 1.83174932 2.99787545 0.95988011
v 0.54211593 4.37127876 0.95849824
v 2.03567719 3.18938565 0.98051298
v 0.74604386 4.56278896 0.97913122
v 1.15498817 3.92719197 0.92988658
v 1.83386850 2.99982643 0.92082500
v 0.54423529 4.37322998 0.91944325
v 2.03779674 3.19133639 0.94145787
v 0.74816322 4.56474018 0.94007611
v 1.98124969 3.04550505 0.94705498
v 0.59906042 4.51747656 0.94557405
v 0.79735243 4.53517342 0.95766699
v 0.76627070 4.56356955 0.97816038
v 0.76816261 4.56531096 0.94329751
v 0.73526078 4.59564447 0.94385087
v 0.73345780 4.59398508 0.97707522
v 2.01136231 3.24230552 0.95896769
v 2.03772831 3.20952249 0.97952271
v 2.03962016 3.21126390 0.94465983
v 2.06782532 3.17652130 0.94527864
v 2.06602240 3.17486143 0.97850311
v 0.56889945 4.32063150 0.93455279
v 0.54029232 4.35135174 0.95529640
v 0.54218423 4.35309315 0.92043364
v 0.51389015 4.38775396 0.92145312
v 0.51208717 4.38609409 0.95467758
v 1.78290915 3.02776361 0.93585360
v 1.81174982 2.99730444 0.95665872
v 1.81364167 2.99904585 0.92179585
v 1.84645462 2.96863055 0.92288089
v 1.84465158 2.96697092 0.95610547
v 0.60276604 4.28950500 0.95742846
v 1.75394976 3.06354380 0.95866203
v 1.18816018 3.68573046 0.95965636
v 1.78738046 3.03805876 0.95960605
v 0.57943130 4.32447195 0.95831180
v 0.82387298 4.49714804 0.97979939
v 1.97505689 3.27118707 0.98103297
v 1.38959575 3.87490010 0.98003709
v 1.99834812 3.23618007 0.98095119
v 0.79039901 4.52259302 0.97965705
v 0.60485554 4.29142809 0.91892338
v 1.75603950 3.06546736 0.92015660
v 1.05479312 3.83204222 0.91977394
v 1.78951335 3.04002213 0.92029929
v 0.58156431 4.32643509 0.91900516
v 0.82596254 4.49907160 0.94129443
v 1.97714663 3.27311039 0.94252765
v 1.25622857 4.02121162 0.94015467
v 2.00048089 3.23814344 0.94164443
v 0.79253209 4.52455664 0.94035029
v 2.07212853 3.15114236 0.94249928
v 1.87169850 2.96291685 0.92222035
v 1.86257064 2.98217058 0.92180014
v 2.05358195 3.16155052 0.94112623
v 1.97932553 3.04904675 0.93319690
v 2.07013726 3.14930940 0.97919500
v 1.86970723 2.96108389 0.95891619
v 1.86048365 2.98024940 0.96025956
v 2.05149508 3.15962958 0.97958553
v 1.97742426 3.04729676 0.96823466
v 0.71020538 4.60153151 0.94104004
v 0.50977534 4.41330624 0.92076123
v 0.52841741 4.40298605 0.92037070
v 0.71942878 4.58236599 0.93969667
v 0.60248834 4.51531887 0.93172157
v 0.70821393 4.59969854 0.97773576
v 0.50778389 4.41147327 0.95745695
v 0.52633035 4.40106487 0.95883000
v 0.71734172 4.58044481 0.97815597
v 0.60058695 4.51356840 0.96675932
v 0.82685840 4.50126314 0.97835600
v 0.82875258 4.50300646 0.94345343
v 1.97935283 3.27390647 0.97959089
v 1.98124707 3.27565002 0.94468820
v 0.74409956 4.58202648 0.97876394
v 1.40177166 3.88633323 0.98009789
v 0.76318151 4.55814362 0.97951412
v 0.74608696 4.58385563 0.94214106
v 1.27622306 4.02406740 0.94255352
v 0.76526695 4.56006289 0.94108582
v 0.71767676 4.60664606 0.95652413
v 0.73051047 4.59010792 0.94100273
v 0.70355260 4.60865974 0.94276118
v 0.72845775 4.58821869 0.97882962
v 0.70174760 4.60699844 0.97602367
v 2.05475473 3.18623567 0.98016834
v 2.03211737 3.20678186 0.98087382
v 2.05674243 3.18806505 0.94354534
v 2.03420258 3.20870137 0.94244528
v 2.07768679 3.15829396 0.95798159
v 2.06200409 3.17212510 0.94242930
v 2.07882309 3.14405656 0.94423473
v 2.05995131 3.17023563 0.98025632
v 2.07701826 3.14239502 0.97749710
v 0.59866548 4.28696537 0.95526803
v 0.60055947 4.28870869 0.92036545
v 1.75115991 3.05960870 0.95650291
v 1.75305402 3.06135225 0.92160034
v 0.52317029 4.37455034 0.95641088
v 1.17611074 3.67441344 0.95726597
v 0.54570991 4.35391378 0.95751107
v 0.52515769 4.37637997 0.91978788
v 1.05056214 3.81214786 0.91972160
v 0.54779524 4.35583353 0.91908252
v 0.50261688 4.40468168 0.93476522
v 0.51996112 4.39237976 0.91969991
v 0.50289446 4.42022038 0.92245913
v 0.51790845 4.39049053 0.95752680
v 0.50108939 4.41855907 0.95572138
v 1.83382547 2.97875953 0.95781517
v 1.81464553 3.00255275 0.95887053
v 1.83581281 2.98058867 0.92119229
v 1.81673086 3.00447226 0.92044210
v 1.86262679 2.95632982 0.93622231
v 1.85145473 2.97439694 0.92112648
v 1.87816489 2.95561695 0.92393267
v 1.84940195 2.97250724 0.95895350
v 1.87635982 2.95395541 0.95719504
v 1.79792690 3.04658532 0.96079803
v 0.58860284 4.33446312 0.95950210
v 1.98915565 3.22616982 0.98014593
v 0.77983153 4.51404715 0.97885025
v 1.93695128 3.09017158 0.97029817
v 0.64083105 4.47048330 0.96890962
v 1.80008078 3.04856801 0.92110598
v 0.59075689 4.33644581 0.91981030
v 1.99130952 3.22815228 0.94045401
v 0.78198558 4.51603031 0.93915820
v 1.93908131 3.09213209 0.93104684
v 0.64296120 4.47244406 0.92965794
f 1 47 44
f 1 44 43
f 1 43 45
f 1 45 46
f 1 46 47
f 2 49 52
f 6 72 70
f 12 102 99
f 11 96 95
f 8 79 81
f 4 62 59
f 4 59 58
f 4 58 60
f 4 60 61
f 4 61 62
f 5 66 65
f 3 54 57
f 7 73 77
f 9 85 86
f 10 92 88
f 12 101 98
f 6 69 68
f 2 50 48
f 8 82 78
f 11 97 93
f 6 71 69
f 12 100 101
f 11 94 97
f 8 80 82
f 2 51 50
f 10 90 89
f 5 63 64
f 3 55 53
f 7 76 74
f 9 87 84
f 10 91 90
f 5 67 63
f 3 56 55
f 7 75 76
f 9 83 87
f 6 68 72
f 2 48 49
f 8 78 79
f 11 93 96
f 12 98 102
f 10 88 91
f 5 65 67
f 3 57 56
f 7 77 75
f 9 86 83
f 5 64 66
f 3 53 54
f 7 74 73
f 9 84 85
f 10 89 92
f 6 70 71
f 12 99 100
f 11 95 94
f 8 81 80
f 2 52 51
f 35 109 116
f 18 105 108
f 19 111 106
f 40 114 112
f 42 117 115
f 34 125 119
f 33 152 156
f 25 137 139
f 36 158 160
f 20 123 120
f 32 143 149
f 23 127 132
f 24 135 128
f 37 147 145
f 41 150 148
f 34 153 155
f 33 140 133
f 25 138 134
f 36 159 157
f 20 122 124
f 17 107 47
f 14 103 44
f 13 104 43
f 15 110 45
f 16 113 46
f 18 118 49
f 35 154 72
f 42 141 102
f 40 162 96
f 19 121 79
f 30 142 62
f 27 129 59
f 22 130 58
f 28 144 60
f 29 146 61
f 32 151 66
f 23 131 54
f 24 136 73
f 37 161 85
f 41 126 92
f 35 116 101
f 18 108 69
f 19 106 50
f 40 112 82
f 42 115 97
f 34 119 71
f 33 156 100
f 25 139 94
f 36 160 80
f 20 120 51
f 32 149 90
f 23 132 63
f 24 128 55
f 37 145 76
f 41 148 87
f 34 155 91
f 33 133 67
f 25 134 56
f 36 157 75
f 20 124 83
f 14 109 68
f 13 105 48
f 15 111 78
f 16 114 93
f 17 117 98
f 21 125 88
f 31 152 65
f 26 137 57
f 38 158 77
f 39 123 86
f 27 143 64
f 22 127 53
f 28 135 74
f 29 147 84
f 30 150 89
f 31 153 70
f 26 140 99
f 38 138 95
f 39 159 81
f 21 122 52
f 14 107 109
f 13 103 105
f 15 104 111
f 16 110 114
f 17 113 117
f 21 118 125
f 31 154 152
f 26 141 137
f 38 162 158
f 39 121 123
f 27 142 143
f 22 129 127
f 28 130 135
f 29 144 147
f 30 146 150
f 31 151 153
f 26 131 140
f 38 136 138
f 39 161 159
f 21 126 122
f 14 44 107
f 13 43 103
f 15 45 104
f 16 46 110
f 17 47 113
f 21 52 118
f 31 70 154
f 26 99 141
f 38 95 162
f 39 81 121
f 27 59 142
f 22 58 129
f 28 60 130
f 29 61 144
f 30 62 146
f 31 65 151
f 26 57 131
f 38 77 136
f 39 86 161
f 21 88 126
f 17 98 116
f 14 68 108
f 13 48 106
f 15 78 112
f 16 93 115
f 18 69 119
f 35 101 156
f 42 97 139
f 40 82 160
f 19 50 120
f 30 89 149
f 27 64 132
f 22 53 128
f 28 74 145
f 29 84 148
f 32 90 155
f 23 63 133
f 24 55 134
f 37 76 157
f 41 87 124
f 35 72 109
f 18 49 105
f 19 79 111
f 40 96 114
f 42 102 117
f 34 91 125
f 33 67 152
f 25 56 137
f 36 75 158
f 20 83 123
f 32 66 143
f 23 54 127
f 24 73 135
f 37 85 147
f 41 92 150
f 34 71 153
f 33 100 140
f 25 94 138
f 36 80 159
f 20 51 122
f 17 116 107
f 14 108 103
f 13 106 104
f 15 112 110
f 16 115 113
f 18 119 118
f 35 156 154
f 42 139 141
f 40 160 162
f 19 120 121
f 30 149 142
f 27 132 129
f 22 128 130
f 28 145 144
f 29 148 146
f 32 155 151
f 23 133 131
f 24 134 136
f 37 157 161
f 41 124 126
f 107 44 47
f 103 43 44
f 104 45 43
f 110 46 45
f 113 47 46
f 118 52 49
f 154 70 72
f 141 99 102
f 162 95 96
f 121 81 79
f 142 59 62
f 129 58 59
f 130 60 58
f 144 61 60
f 146 62 61
f 151 65 66
f 131 57 54
f 136 77 73
f 161 86 85
f 126 88 92
f 116 98 101
f 108 68 69
f 106 48 50
f 112 78 82
f 115 93 97
f 119 69 71
f 156 101 100
f 139 97 94
f 160 82 80
f 120 50 51
f 149 89 90
f 132 64 63
f 128 53 55
f 145 74 76
f 148 84 87
f 155 90 91
f 133 63 67
f 134 55 56
f 157 76 75
f 124 87 83
f 109 72 68
f 105 49 48
f 111 79 78
f 114 96 93
f 117 102 98
f 125 91 88
f 152 67 65
f 137 56 57
f 158 75 77
f 123 83 86
f 143 66 64
f 127 54 53
f 135 73 74
f 147 85 84
f 150 92 89
f 153 71 70
f 140 100 99
f 138 94 95
f 159 80 81
f 122 51 52
f 107 116 109
f 103 108 105
f 104 106 111
f 110 112 114
f 113 115 117
f 118 119 125
f 154 156 152
f 141 139 137
f 162 160 158
f 121 120 123
f 142 149 143
f 129 132 127
f 130 128 135
f 144 145 147
f 146 148 150
f 151 155 153
f 131 133 140
f 136 134 138
f 161 157 159
f 126 124 122

