# https://github.com/mikedh/trimesh
v -0.63895911 4.07237101 0.36622357
v 1.34908462 1.87289810 0.43822885
v -0.86274725 3.86860299 0.32064342
v 1.12529635 1.66912973 0.39264894
v 0.13360497 2.77175617 0.38057637
v 0.34687674 2.96594882 0.42401433
v -0.06674656 3.00215864 0.33423162
v 0.14652523 3.19635129 0.37766981
v 1.28814399 1.71804225 0.40207982
v 1.28339517 1.71496379 0.43915915
v -0.79793024 4.02597189 0.32652378
v -0.80267906 4.02289295 0.36360335
v 0.35691595 2.97431445 0.40237164
v -0.59087634 4.01313353 0.38982487
v -0.58615118 4.01619673 0.35293102
v -0.68672484 4.11672306 0.34928322
v -0.69122803 4.11380386 0.38444376
v 1.29428327 1.92748618 0.45810413
v 1.29900837 1.93054938 0.42120981
v 1.38889968 1.82035470 0.42446065
v 1.38439655 1.81743538 0.45962119
v 0.12947915 2.76722407 0.35604858
v -0.81354356 3.81038570 0.34447360
v -0.80881846 3.81344914 0.30757928
v -0.89893168 3.92350006 0.30606222
v -0.90343487 3.92058063 0.34122276
v 1.07161593 1.72473884 0.41275239
v 1.07634115 1.72780192 0.37585807
v 1.17669284 1.62713158 0.38123965
v 1.17218959 1.62421250 0.41639996
v 0.24020025 2.86882615 0.40261269
v 1.12819445 1.68254375 0.41742611
v -0.84992236 3.87103462 0.34578013
v 1.33042908 1.86668682 0.45861602
v -0.64768779 4.05517721 0.38697028
v 0.03658228 3.10298514 0.35551238
v 1.13315260 1.68575788 0.37871313
v -0.84496427 3.87424874 0.30706716
v 1.33538723 1.86990094 0.41990304
v -0.64272964 4.05839109 0.34825730
v 1.30323982 1.69799078 0.41760397
v -0.81684494 4.04354763 0.34081626
v -0.57464153 4.00395584 0.36900163
v -0.62254840 4.04988337 0.38762426
v -0.61812246 4.05275249 0.35306692
v -0.66737610 4.10245371 0.35171604
v -0.67159396 4.09971905 0.38464952
v 1.28747952 1.94379747 0.43644619
v 1.32768929 1.89223683 0.45826030
v 1.33211529 1.89510608 0.42370272
v 1.37659144 1.84110940 0.42574692
v 1.37237334 1.83837497 0.45868039
v -0.80119765 3.79766750 0.32285786
v -0.84665042 3.84582949 0.34198022
v -0.84222448 3.84869862 0.30742311
v -0.88690853 3.90256023 0.30700302
v -0.89112663 3.89982605 0.33993626
v 1.06092334 1.73750913 0.39030242
v 1.10358715 1.68818295 0.41261649
v 1.10801315 1.69105196 0.37805915
v 1.15705884 1.64121616 0.38103366
v 1.15284097 1.63848174 0.41396713
v -0.75222492 3.74582767 0.34761834
v 1.01353025 1.79228365 0.41157269
v 0.14032850 2.77788639 0.38219285
v 1.06204164 1.74866366 0.41457081
v -0.79078293 3.79853702 0.34746289
v -0.53295374 3.94548273 0.39227843
v 1.23280132 1.99193883 0.45623255
v 0.34009162 2.95977879 0.42287946
v 1.27125764 1.93916333 0.45718265
v -0.58156693 3.98903704 0.39007473
v -0.74733651 3.74899650 0.30945063
v 1.01841855 1.79545259 0.37340498
v -0.06250099 3.01113844 0.33527470
v 1.06703174 1.75189841 0.37560844
v -0.78579277 3.80177212 0.30850053
v -0.52806538 3.94865203 0.35411048
v 1.23768973 1.99510777 0.41806483
v 0.13726212 3.19303107 0.37596130
v 1.27624786 1.94239831 0.41822028
v -0.57657683 3.99227166 0.35111260
v 1.38894439 1.80688715 0.42272711
v 1.19017863 1.62590265 0.38224363
v 1.17366302 1.65379035 0.38154936
v 1.36308837 1.82626998 0.42013049
v 1.30089414 1.70367229 0.40372157
v 1.38428581 1.80386710 0.45910144
v 1.18551981 1.62288272 0.41861796
v 1.16878057 1.65062523 0.41967201
v 1.35820591 1.82310474 0.45825291
v 1.29644597 1.70078874 0.43845224
v -0.70005506 4.11805248 0.34706545
v -0.89882106 3.93706846 0.30658174
v -0.87274110 3.91783071 0.30743027
v -0.68331575 4.09031010 0.34601140
v -0.81098121 4.04014635 0.32723093
v -0.70471376 4.11503267 0.38343954
v -0.90347952 3.93404818 0.34295607
v -0.87762356 3.91466546 0.34555292
v -0.68819821 4.08714533 0.38413358
v -0.81542933 4.03726292 0.36196184
v -0.53021640 3.94994211 0.39117217
v -0.52578545 3.95281458 0.35657549
v 1.23754859 1.99417448 0.45519900
v 1.24197960 1.99704695 0.42060232
v -0.65522557 4.08079052 0.38689780
v 0.35225153 2.97081208 0.42417145
v -0.62505865 4.04375648 0.38860226
v -0.65057617 4.08380413 0.35059571
v 0.16131288 3.19038987 0.38000393
v -0.62017995 4.04691887 0.35051060
v -0.69320518 4.12182140 0.36320972
v -0.67162830 4.09684896 0.34837174
v -0.71039629 4.12933922 0.34841943
v -0.67643052 4.09373569 0.38586736
v -0.71461910 4.12660217 0.38139033
v 1.35513580 1.85662580 0.45971155
v 1.32131088 1.89038920 0.45909834
v 1.35978532 1.85964000 0.42340946
v 1.32618952 1.89355183 0.42100668
v 1.39285958 1.81390250 0.43876529
v 1.37069654 1.83732176 0.42234325
v 1.39907598 1.79552376 0.42482281
v 1.36589420 1.83420861 0.45983887
v 1.39485312 1.79278624 0.45779347
v -0.75651473 3.74388814 0.34508109
v -0.75208384 3.74676061 0.31048441
v 1.01125026 1.78812075 0.40910792
v 1.01568127 1.79099309 0.37451124
v -0.87432051 3.88129568 0.34227371
v 0.12846431 2.76704454 0.37859178
v -0.84072471 3.84738350 0.34467673
v -0.86967105 3.88430953 0.30597162
v -0.06247434 2.98662233 0.33442426
v -0.83584607 3.85054612 0.30658507
v -0.90647942 3.92762637 0.31977129
v -0.88042939 3.90672708 0.30584431
v -0.90938836 3.94814897 0.30788994
v -0.88523173 3.90361357 0.34334016
v -0.91361123 3.94541144 0.34086061
v 1.13604105 1.65713108 0.41508746
v 1.10564482 1.69401646 0.41517258
v 1.14069045 1.66014504 0.37878561
v 1.11052358 1.69717932 0.37708092
v 1.17958534 1.61970747 0.39532685
v 1.16189539 1.64719975 0.37981582
v 1.20008397 1.61433339 0.38429308
v 1.15709317 1.64408672 0.41731143
v 1.19586110 1.61159587 0.41726398
v 1.07285929 1.75639307 0.41679335
v -0.78207445 3.80859995 0.34960890
v 1.26250029 1.92906880 0.45541835
v -0.59243345 3.98127556 0.38823414
v 1.23427427 1.76910317 0.43829846
v -0.75379246 3.96860170 0.36629248
v 1.07789838 1.75965965 0.37744927
v -0.77703542 3.81186652 0.31026483
v 1.26753926 1.93233538 0.41607428
v -0.58739442 3.98454213 0.34889007
v 1.23925734 1.77233362 0.39939094
v -0.74880946 3.97183204 0.32738495
f 1 47 44
f 1 44 43
f 1 43 45
f 1 45 46
f 1 46 47
f 2 49 52
f 6 72 70
f 12 102 99
f 11 96 95
f 8 79 81
f 4 62 59
f 4 59 58
f 4 58 60
f 4 60 61
f 4 61 62
f 5 66 65
f 3 54 57
f 7 73 77
f 9 85 86
f 10 92 88
f 12 101 98
f 6 69 68
f 2 50 48
f 8 82 78
f 11 97 93
f 6 71 69
f 12 100 101
f 11 94 97
f 8 80 82
f 2 51 50
f 10 90 89
f 5 63 64
f 3 55 53
f 7 76 74
f 9 87 84
f 10 91 90
f 5 67 63
f 3 56 55
f 7 75 76
f 9 83 87
f 6 68 72
f 2 48 49
f 8 78 79
f 11 93 96
f 12 98 102
f 10 88 91
f 5 65 67
f 3 57 56
f 7 77 75
f 9 86 83
f 5 64 66
f 3 53 54
f 7 74 73
f 9 84 85
f 10 89 92
f 6 70 71
f 12 99 100
f 11 95 94
f 8 81 80
f 2 52 51
f 35 109 116
f 18 105 108
f 19 111 106
f 40 114 112
f 42 117 115
f 34 125 119
f 33 152 156
f 25 137 139
f 36 158 160
f 20 123 120
f 32 143 149
f 23 127 132
f 24 135 128
f 37 147 145
f 41 150 148
f 34 153 155
f 33 140 133
f 25 138 134
f 36 159 157
f 20 122 124
f 17 107 47
f 14 103 44
f 13 104 43
f 15 110 45
f 16 113 46
f 18 118 49
f 35 154 72
f 42 141 102
f 40 162 96
f 19 121 79
f 30 142 62
f 27 129 59
f 22 130 58
f 28 144 60
f 29 146 61
f 32 151 66
f 23 131 54
f 24 136 73
f 37 161 85
f 41 126 92
f 35 116 101
f 18 108 69
f 19 106 50
f 40 112 82
f 42 115 97
f 34 119 71
f 33 156 100
f 25 139 94
f 36 160 80
f 20 120 51
f 32 149 90
f 23 132 63
f 24 128 55
f 37 145 76
f 41 148 87
f 34 155 91
f 33 133 67
f 25 134 56
f 36 157 75
f 20 124 83
f 14 109 68
f 13 105 48
f 15 111 78
f 16 114 93
f 17 117 98
f 21 125 88
f 31 152 65
f 26 137 57
f 38 158 77
f 39 123 86
f 27 143 64
f 22 127 53
f 28 135 74
f 29 147 84
f 30 150 89
f 31 153 70
f 26 140 99
f 38 138 95
f 39 159 81
f 21 122 52
f 14 107 109
f 13 103 105
f 15 104 111
f 16 110 114
f 17 113 117
f 21 118 125
f 31 154 152
f 26 141 137
f 38 162 158
f 39 121 123
f 27 142 143
f 22 129 127
f 28 130 135
f 29 144 147
f 30 146 150
f 31 151 153
f 26 131 140
f 38 136 138
f 39 161 159
f 21 126 122
f 14 44 107
f 13 43 103
f 15 45 104
f 16 46 110
f 17 47 113
f 21 52 118
f 31 70 154
f 26 99 141
f 38 95 162
f 39 81 121
f 27 59 142
f 22 58 129
f 28 60 130
f 29 61 144
f 30 62 146
f 31 65 151
f 26 57 131
f 38 77 136
f 39 86 161
f 21 88 126
f 17 98 116
f 14 68 108
f 13 48 106
f 15 78 112
f 16 93 115
f 18 69 119
f 35 101 156
f 42 97 139
f 40 82 160
f 19 50 120
f 30 89 149
f 27 64 132
f 22 53 128
f 28 74 145
f 29 84 148
f 32 90 155
f 23 63 133
f 24 55 134
f 37 76 157
f 41 87 124
f 35 72 109
f 18 49 105
f 19 79 111
f 40 96 114
f 42 102 117
f 34 91 125
f 33 67 152
f 25 56 137
f 36 75 158
f 20 83 123
f 32 66 143
f 23 54 127
f 24 73 135
f 37 85 147
f 41 92 150
f 34 71 153
f 33 100 140
f 25 94 138
f 36 80 159
f 20 51 122
f 17 116 107
f 14 108 103
f 13 106 104
f 15 112 110
f 16 115 113
f 18 119 118
f 35 156 154
f 42 139 141
f 40 160 162
f 19 120 121
f 30 149 142
f 27 132 129
f 22 128 130
f 28 145 144
f 29 148 146
f 32 155 151
f 23 133 131
f 24 134 136
f 37 157 161
f 41 124 126
f 107 44 47
f 103 43 44
f 104 45 43
f 110 46 45
f 113 47 46
f 118 52 49
f 154 70 72
f 141 99 102
f 162 95 96
f 121 81 79
f 142 59 62
f 129 58 59
f 130 60 58
f 144 61 60
f 146 62 61
f 151 65 66
f 131 57 54
f 136 77 73
f 161 86 85
f 126 88 92
f 116 98 101
f 108 68 69
f 106 48 50
f 112 78 82
f 115 93 97
f 119 69 71
f 156 101 100
f 139 97 94
f 160 82 80
f 120 50 51
f 149 89 90
f 132 64 63
f 128 53 55
f 145 74 76
f 148 84 87
f 155 90 91
f 133 63 67
f 134 55 56
f 157 76 75
f 124 87 83
f 109 72 68
f 105 49 48
f 111 79 78
f 114 96 93
f 117 102 98
f 125 91 88
f 152 67 65
f 137 56 57
f 158 75 77
f 123 83 86
f 143 66 64
f 127 54 53
f 135 73 74
f 147 85 84
f 150 92 89
f 153 71 70
f 140 100 99
f 138 94 95
f 159 80 81
f 122 51 52
f 107 116 109
f 103 108 105
f 104 106 111
f 110 112 114
f 113 115 117
f 118 119 125
f 154 156 152
f 141 139 137
f 162 160 158
f 121 120 123
f 142 149 143
f 129 132 127
f 130 128 135
f 144 145 147
f 146 148 150
f 151 155 153
f 131 133 140
f 136 134 138
f 161 157 159
f 126 124 122

