# https://github.com/mikedh/trimesh
v -0.59468538 0.21757387 0.07988524
v -3.09921432 3.17866492 0.01543140
v 0.85403293 1.44354558 0.10869598
v -1.65049589 4.40463638 0.04424238
v -0.43278733 2.89535189 0.09891009
v -1.81342614 1.72699189 0.07145333
v -0.17322916 2.58940291 0.06621885
v -1.55386806 1.42104292 0.03876209
v -2.43626285 3.86461258 0.01294208
v -2.43709993 3.86472058 0.05044150
v 0.19176482 0.75750977 0.08057380
v 0.19092764 0.75761783 0.11807299
v -1.85875416 1.68812478 0.04719472
v -0.65635669 0.29732829 0.10038924
v -0.65552354 0.29722077 0.06307721
v -0.50171155 0.18403150 0.06771493
v -0.50250542 0.18413399 0.10327339
v -3.03127313 3.10517907 0.03927135
v -3.03043985 3.10507131 0.00195932
v -3.11657476 3.27557015 0.00042200
v -3.11736846 3.27567267 0.03598046
v -0.38641673 2.93408442 0.07647514
v 0.78510469 1.51715910 0.12905574
v 0.78593779 1.51705134 0.09174395
v 0.87203348 1.34655762 0.09503460
v 0.87123966 1.34666026 0.13059330
v -1.58981156 4.32500935 0.06793785
v -1.58897841 4.32490206 0.03062558
v -1.74282968 4.43809652 0.02774167
v -1.74362361 4.43819904 0.06330013
v -1.12311387 2.31117272 0.08550262
v -1.71452188 4.33827257 0.06603503
v 0.77750158 1.39196670 0.13016701
v -3.02371097 3.23037648 0.03999949
v -0.53168732 0.28407088 0.10413122
v -0.85932398 2.00023580 0.05227828
v -1.71364772 4.33815956 0.02688384
v 0.77837569 1.39185369 0.09101582
v -3.02283692 3.23026371 0.00084829
v -0.53081322 0.28395811 0.06498003
v -2.45802236 3.88998437 0.02746773
v 0.21285136 0.73222470 0.09620214
v -0.68296766 0.30377063 0.07788372
v -0.61998188 0.24492957 0.10017014
v -0.61920160 0.24482885 0.06522155
v -0.54538929 0.18754505 0.06785631
v -0.54613304 0.18764096 0.10116267
v -3.02885985 3.07730603 0.01751280
v -3.07688308 3.14971042 0.03694248
v -3.07610297 3.14961004 0.00199366
v -3.12037086 3.23193121 0.00158978
v -3.12111425 3.23202729 0.03489614
v 0.78366876 1.54490578 0.10705090
v 0.83076793 1.47262061 0.12902141
v 0.83154815 1.47251976 0.09407282
v 0.87577933 1.39020300 0.09611917
v 0.87503582 1.39029896 0.12942553
v -1.56222343 4.31844139 0.04667974
v -1.62613356 4.37740135 0.06579375
v -1.62535322 4.37730074 0.03084493
v -1.69920218 4.43458939 0.02985263
v -1.69994581 4.43468571 0.06315875
v 0.69888496 1.59678197 0.12754560
v -1.52560568 4.22678566 0.07029867
v -0.47651765 2.85835052 0.09828377
v -1.61300576 4.26408768 0.06864190
v 0.72117472 1.50439823 0.12871146
v -0.72059113 0.39555615 0.09931636
v -2.94508219 3.02555943 0.04206967
v -1.76970696 1.76399446 0.07256627
v -2.96738958 3.11794591 0.04170704
v -0.63320899 0.35825652 0.10177684
v 0.69974691 1.59667063 0.08894563
v -1.52474403 4.22667408 0.03169894
v -0.21374916 2.54861760 0.06518841
v -1.61212623 4.26397371 0.02923822
v 0.72205454 1.50428450 0.08930779
v -0.71972936 0.39544475 0.06071639
v -2.94422007 3.02544856 0.00346923
v -1.50693846 1.45426142 0.03947067
v -2.96650982 3.11783242 0.00230360
v -0.63232923 0.35814288 0.06237340
v -3.08147979 3.32234573 0.00045657
v -1.79474664 4.41123819 0.02604580
v -1.79812992 4.35392904 0.02525115
v -3.02439594 3.31620646 0.00086427
v -2.45254159 3.88383079 0.01371121
v -3.08230114 3.32245159 0.03724265
v -1.79556787 4.41134405 0.06283212
v -1.79899073 4.35404015 0.06380534
v -3.02525687 3.31631756 0.03941846
v -2.45332527 3.88393188 0.04883552
v -0.44976711 0.21088597 0.06818318
v 0.83696610 1.29977870 0.09377241
v 0.77992171 1.30591285 0.09159660
v -0.44634438 0.26819009 0.06720996
v 0.20799035 0.73829848 0.08217978
v -0.45058843 0.21099219 0.10496926
v 0.83614469 1.29988468 0.13055849
v 0.77906090 1.30602396 0.13015079
v -0.44720519 0.26830128 0.10576415
v 0.20720626 0.73839974 0.11730385
v -0.74203044 0.37480578 0.09709072
v -0.74124920 0.37470472 0.06210232
v -2.96905351 3.00780296 0.03977895
v -2.96827245 3.00770211 0.00479031
v -0.56592268 0.21387163 0.10234952
v -1.84744215 1.69818604 0.06985211
v -0.59515262 0.27092284 0.10243773
v -0.56510299 0.21376598 0.06563640
v -1.60007834 1.40661097 0.03869677
v -0.59429246 0.27081186 0.06391454
v -0.49890637 0.17337340 0.08198118
v -0.51163685 0.21815625 0.06621361
v -0.43764222 0.19502468 0.07022142
v -0.51248348 0.21826549 0.10413384
v -0.43838665 0.19512077 0.10356569
v -3.09856749 3.20820403 0.03717232
v -3.04718089 3.16994238 0.03933549
v -3.09774780 3.20809817 0.00045919
v -3.04632068 3.16983151 0.00081229
v -3.12692237 3.28046250 0.01434946
v -3.08454919 3.26009631 0.00000000
v -3.09514594 3.33697748 0.00183082
v -3.08539557 3.26020551 0.03792024
v -3.09589076 3.33707356 0.03517532
v 0.72293711 1.61452830 0.12622476
v 0.72371829 1.61442733 0.09123635
v -1.50408590 4.24752522 0.06891298
v -1.50330472 4.24742460 0.03392434
v 0.85241288 1.41413224 0.13055587
v -0.39873022 2.92415237 0.09866261
v 0.80098552 1.45239890 0.13020277
v 0.85323250 1.41402626 0.09384274
v -0.15136655 2.63257742 0.06750727
v 0.80184561 1.45228791 0.09167981
v 0.88174838 1.34174705 0.10943818
v 0.84006053 1.36202478 0.09309483
v 0.85055566 1.28515673 0.09583998
v 0.83921391 1.36213398 0.13101506
v 0.84981114 1.28525293 0.12918401
v -1.68023217 4.40846443 0.06537890
v -1.65104258 4.35141850 0.06710052
v -1.67941248 4.40835857 0.02866578
v -1.65018237 4.35130739 0.02857733
v -1.74626744 4.44883585 0.04180670
v -1.73285162 4.40396500 0.02688146
v -1.80694854 4.42710972 0.02744937
v -1.73369837 4.40407419 0.06480169
v -1.80769300 4.42720556 0.06079364
v -1.67769980 4.21203947 0.06754065
v 0.65913802 1.44920897 0.12767887
v -2.90536165 3.17313600 0.04312611
v -0.56852365 0.41030529 0.10326409
v -2.37538600 3.79173470 0.05295467
v 0.12917227 0.83060926 0.11740875
v -1.67681146 4.21192503 0.02775097
v 0.66002637 1.44909430 0.08788919
v -2.90447307 3.17302155 0.00333619
v -0.56763542 0.41019064 0.06347442
v -2.37450719 3.79162097 0.01360631
v 0.13005084 0.83049572 0.07806063
f 1 47 44
f 1 44 43
f 1 43 45
f 1 45 46
f 1 46 47
f 2 49 52
f 6 72 70
f 12 102 99
f 11 96 95
f 8 79 81
f 4 62 59
f 4 59 58
f 4 58 60
f 4 60 61
f 4 61 62
f 5 66 65
f 3 54 57
f 7 73 77
f 9 85 86
f 10 92 88
f 12 101 98
f 6 69 68
f 2 50 48
f 8 82 78
f 11 97 93
f 6 71 69
f 12 100 101
f 11 94 97
f 8 80 82
f 2 51 50
f 10 90 89
f 5 63 64
f 3 55 53
f 7 76 74
f 9 87 84
f 10 91 90
f 5 67 63
f 3 56 55
f 7 75 76
f 9 83 87
f 6 68 72
f 2 48 49
f 8 78 79
f 11 93 96
f 12 98 102
f 10 88 91
f 5 65 67
f 3 57 56
f 7 77 75
f 9 86 83
f 5 64 66
f 3 53 54
f 7 74 73
f 9 84 85
f 10 89 92
f 6 70 71
f 12 99 100
f 11 95 94
f 8 81 80
f 2 52 51
f 35 109 116
f 18 105 108
f 19 111 106
f 40 114 112
f 42 117 115
f 34 125 119
f 33 152 156
f 25 137 139
f 36 158 160
f 20 123 120
f 32 143 149
f 23 127 132
f 24 135 128
f 37 147 145
f 41 150 148
f 34 153 155
f 33 140 133
f 25 138 134
f 36 159 157
f 20 122 124
f 17 107 47
f 14 103 44
f 13 104 43
f 15 110 45
f 16 113 46
f 18 118 49
f 35 154 72
f 42 141 102
f 40 162 96
f 19 121 79
f 30 142 62
f 27 129 59
f 22 130 58
f 28 144 60
f 29 146 61
f 32 151 66
f 23 131 54
f 24 136 73
f 37 161 85
f 41 126 92
f 35 116 101
f 18 108 69
f 19 106 50
f 40 112 82
f 42 115 97
f 34 119 71
f 33 156 100
f 25 139 94
f 36 160 80
f 20 120 51
f 32 149 90
f 23 132 63
f 24 128 55
f 37 145 76
f 41 148 87
f 34 155 91
f 33 133 67
f 25 134 56
f 36 157 75
f 20 124 83
f 14 109 68
f 13 105 48
f 15 111 78
f 16 114 93
f 17 117 98
f 21 125 88
f 31 152 65
f 26 137 57
f 38 158 77
f 39 123 86
f 27 143 64
f 22 127 53
f 28 135 74
f 29 147 84
f 30 150 89
f 31 153 70
f 26 140 99
f 38 138 95
f 39 159 81
f 21 122 52
f 14 107 109
f 13 103 105
f 15 104 111
f 16 110 114
f 17 113 117
f 21 118 125
f 31 154 152
f 26 141 137
f 38 162 158
f 39 121 123
f 27 142 143
f 22 129 127
f 28 130 135
f 29 144 147
f 30 146 150
f 31 151 153
f 26 131 140
f 38 136 138
f 39 161 159
f 21 126 122
f 14 44 107
f 13 43 103
f 15 45 104
f 16 46 110
f 17 47 113
f 21 52 118
f 31 70 154
f 26 99 141
f 38 95 162
f 39 81 121
f 27 59 142
f 22 58 129
f 28 60 130
f 29 61 144
f 30 62 146
f 31 65 151
f 26 57 131
f 38 77 136
f 39 86 161
f 21 88 126
f 17 98 116
f 14 68 108
f 13 48 106
f 15 78 112
f 16 93 115
f 18 69 119
f 35 101 156
f 42 97 139
f 40 82 160
f 19 50 120
f 30 89 149
f 27 64 132
f 22 53 128
f 28 74 145
f 29 84 148
f 32 90 155
f 23 63 133
f 24 55 134
f 37 76 157
f 41 87 124
f 35 72 109
f 18 49 105
f 19 79 111
f 40 96 114
f 42 102 117
f 34 91 125
f 33 67 152
f 25 56 137
f 36 75 158
f 20 83 123
f 32 66 143
f 23 54 127
f 24 73 135
f 37 85 147
f 41 92 150
f 34 71 153
f 33 100 140
f 25 94 138
f 36 80 159
f 20 51 122
f 17 116 107
f 14 108 103
f 13 106 104
f 15 112 110
f 16 115 113
f 18 119 118
f 35 156 154
f 42 139 141
f 40 160 162
f 19 120 121
f 30 149 142
f 27 132 129
f 22 128 130
f 28 145 144
f 29 148 146
f 32 155 151
f 23 133 131
f 24 134 136
f 37 157 161
f 41 124 126
f 107 44 47
f 103 43 44
f 104 45 43
f 110 46 45
f 113 47 46
f 118 52 49
f 154 70 72
f 141 99 102
f 162 95 96
f 121 81 79
f 142 59 62
f 129 58 59
f 130 60 58
f 144 61 60
f 146 62 61
f 151 65 66
f 131 57 54
f 136 77 73
f 161 86 85
f 126 88 92
f 116 98 101
f 108 68 69
f 106 48 50
f 112 78 82
f 115 93 97
f 119 69 71
f 156 101 100
f 139 97 94
f 160 82 80
f 120 50 51
f 149 89 90
f 132 64 63
f 128 53 55
f 145 74 76
f 148 84 87
f 155 90 91
f 133 63 67
f 134 55 56
f 157 76 75
f 124 87 83
f 109 72 68
f 105 49 48
f 111 79 78
f 114 96 93
f 117 102 98
f 125 91 88
f 152 67 65
f 137 56 57
f 158 75 77
f 123 83 86
f 143 66 64
f 127 54 53
f 135 73 74
f 147 85 84
f 150 92 89
f 153 71 70
f 140 100 99
f 138 94 95
f 159 80 81
f 122 51 52
f 107 116 109
f 103 108 105
f 104 106 111
f 110 112 114
f 113 115 117
f 118 119 125
f 154 156 152
f 141 139 137
f 162 160 158
f 121 120 123
f 142 149 143
f 129 132 127
f 130 128 135
f 144 145 147
f 146 148 150
f 151 155 153
f 131 133 140
f 136 134 138
f 161 157 159
f 126 124 122

