# https://github.com/mikedh/trimesh
v 1.39067304 1.87790382 0.54425097
v -0.07134614 3.53550100 0.53408217
v 1.64460754 2.10213542 0.58634377
v 0.18258862 3.75973272 0.57617497
v 0.90542328 2.92385840 0.60321760
v 0.66342175 2.71016431 0.56310272
v 1.06018615 2.75572944 0.56521034
v 0.81818461 2.54203510 0.52509546
v 0.02103708 3.68968129 0.53968525
v 0.01745513 3.68675065 0.57690716
v 1.55514860 1.95034778 0.55035543
v 1.55156648 1.94741678 0.58757758
v 0.65761524 2.70489264 0.53859615
v 1.35136712 1.91962957 0.56602979
v 1.35493135 1.92254591 0.52899361
v 1.43081665 1.84831464 0.53133464
v 1.42742026 1.84553528 0.56663036
v -0.03499041 3.49144411 0.55638719
v -0.03142631 3.49436045 0.51935101
v -0.09560992 3.57893538 0.52071786
v -0.09900641 3.57615638 0.55601358
v 0.91568995 2.93277979 0.58137536
v 1.60403001 2.14273787 0.60791183
v 1.60759389 2.14565420 0.57087541
v 1.67161000 2.06094193 0.57124925
v 1.66821361 2.05816245 0.60654497
v 0.21767233 3.71455240 0.59826922
v 0.22123644 3.71746874 0.56123281
v 0.14518337 3.79156280 0.56063247
v 0.14178684 3.78878355 0.59592819
v 0.78439188 2.81698608 0.58347869
v 0.17181124 3.74299693 0.59702277
v 1.62653017 2.09367633 0.60714078
v -0.05766641 3.54036188 0.55898380
v 1.39705253 1.89104104 0.56910181
v 0.94167793 2.64611602 0.54485154
v 0.17555101 3.74605703 0.55816078
v 1.63027012 2.09673619 0.56827903
v -0.05392663 3.54342222 0.52012181
v 1.40079236 1.89410126 0.53024006
v 0.00709116 3.70268154 0.55456376
v 1.56621408 1.93499053 0.56540799
v 1.34277964 1.92899621 0.54388499
v 1.37459540 1.89187264 0.56488824
v 1.37793386 1.89460409 0.53019786
v 1.41491246 1.85775411 0.53168249
v 1.41173100 1.85515094 0.56474280
v -0.02663522 3.48160148 0.53436017
v -0.05962095 3.51794815 0.55491304
v -0.05628268 3.52067995 0.52022243
v -0.08823321 3.56197977 0.52122760
v -0.09141468 3.55937672 0.55428767
v 1.59985495 2.15600085 0.58649850
v 1.62888622 2.11641836 0.60704017
v 1.63222456 2.11914992 0.57235003
v 1.66401827 2.07772160 0.57297492
v 1.66083682 2.07511830 0.60603523
v 0.23044011 3.70860600 0.57697392
v 0.19466984 3.74249387 0.59706497
v 0.19800812 3.74522591 0.56237435
v 0.16087258 3.78194737 0.56252003
v 0.15769112 3.77934408 0.59558010
v 1.55813622 2.19076490 0.60792613
v 0.25958940 3.66302156 0.59889460
v 0.89773583 2.91707158 0.60218883
v 0.22183053 3.69425130 0.59812498
v 1.58440888 2.14939737 0.60760212
v 1.30932713 1.97105932 0.56668305
v 0.01078026 3.44331646 0.55765128
v 0.67106265 2.71691298 0.56461477
v -0.01556907 3.48462105 0.55877280
v 1.34700930 1.93976676 0.56825018
v 1.56182337 2.19378161 0.56961155
v 0.26327649 3.66603875 0.56057954
v 1.05441284 2.74686313 0.56371140
v 0.22559436 3.69733143 0.55901241
v 1.58817279 2.15247703 0.56848979
v 1.31301427 1.97407639 0.52836823
v 0.01446736 3.44633341 0.51933646
v 0.82773966 2.54670429 0.52613735
v -0.01180523 3.48770070 0.51966071
v 1.35077310 1.94284678 0.52913785
v -0.09284346 3.59129333 0.52133846
v 0.13269818 3.79045272 0.55872488
v 0.14314559 3.76808476 0.55707788
v -0.07179716 3.57828450 0.52144814
v 0.01143649 3.70034504 0.54079795
v -0.09635732 3.58841801 0.55785275
v 0.12918431 3.78757787 0.59523892
v 0.13946293 3.76507139 0.59534693
v -0.07547982 3.57527113 0.55971742
v 0.00808146 3.69759965 0.57566237
v 1.44341922 1.84952056 0.53202367
v 1.66896093 2.04868007 0.56941009
v 1.64808333 2.06182718 0.56754518
v 1.43314052 1.87202668 0.53191566
v 1.56452215 1.93949854 0.55160022
v 1.43990541 1.84664524 0.56853795
v 1.66544712 2.04580498 0.60592437
v 1.64440084 2.05881381 0.60581446
v 1.42945802 1.86901343 0.57018495
v 1.56116700 1.93675327 0.58646464
v 1.30625176 1.96684206 0.56423497
v 1.30959392 1.96957684 0.52950478
v 0.00622688 3.44077516 0.55519271
v 0.00956892 3.44350982 0.52046275
v 1.39945972 1.86924708 0.56638885
v 0.65754408 2.70496845 0.56119633
v 1.37778866 1.89757192 0.56744576
v 1.40296662 1.87211657 0.52994704
v 0.80503589 2.54473829 0.52497482
v 1.38146853 1.90058279 0.52920747
v 1.43269706 1.84232032 0.54532170
v 1.42061758 1.86399555 0.53039765
v 1.45065439 1.84073794 0.53376293
v 1.41699541 1.86103177 0.56803775
v 1.44746947 1.83813167 0.56686091
v -0.07897211 3.54545259 0.55610585
v -0.05358312 3.52042222 0.55749011
v -0.07546525 3.54832220 0.51966405
v -0.04990334 3.52343321 0.51925182
v -0.10140744 3.58164620 0.53465152
v -0.08132041 3.56685185 0.51995111
v -0.10066406 3.59958029 0.52297306
v -0.08494250 3.56388807 0.55759096
v -0.10384907 3.59697437 0.55607080
v 1.56303465 2.19358850 0.60680008
v 1.56637681 2.19632339 0.57206988
v 0.26300976 3.66752124 0.59775782
v 0.26635182 3.67025590 0.56302810
v 1.64806890 2.08877587 0.60759902
v 0.91147763 2.92919874 0.60328913
v 1.62250698 2.11366510 0.60801101
v 1.65157580 2.09164548 0.57115698
v 1.05896950 2.76896858 0.56706738
v 1.62618661 2.11667609 0.56977272
v 1.67470145 2.05601692 0.58543706
v 1.65754628 2.07321024 0.56967163
v 1.67645264 2.04012418 0.57119179
v 1.65392411 2.07024646 0.60731149
v 1.67326784 2.03751779 0.60428977
v 0.16963705 3.76498151 0.59731579
v 0.19113514 3.73651528 0.59805536
v 0.17314392 3.76785111 0.56087399
v 0.19481492 3.73952627 0.55981684
v 0.14059693 3.79534292 0.57476687
v 0.15560824 3.77606630 0.55922532
v 0.12513427 3.79896665 0.56040192
v 0.15198615 3.77310252 0.59686494
v 0.12194929 3.79636049 0.59349966
v 0.20993045 3.68530846 0.59647036
v 1.57405984 2.13869596 0.60595822
v -0.00525689 3.49529219 0.56080008
v 1.35887241 1.94867945 0.57028818
v 0.05340443 3.64581990 0.57807565
v 1.51544070 1.98820293 0.58824444
v 0.21373112 3.68841863 0.55697465
v 1.57786047 2.14180613 0.56646252
v -0.00145622 3.49840236 0.52130437
v 1.36267316 1.95178950 0.53079247
v 0.05716294 3.64889503 0.53901815
v 1.51919913 1.99127829 0.54918718
f 1 47 44
f 1 44 43
f 1 43 45
f 1 45 46
f 1 46 47
f 2 49 52
f 6 72 70
f 12 102 99
f 11 96 95
f 8 79 81
f 4 62 59
f 4 59 58
f 4 58 60
f 4 60 61
f 4 61 62
f 5 66 65
f 3 54 57
f 7 73 77
f 9 85 86
f 10 92 88
f 12 101 98
f 6 69 68
f 2 50 48
f 8 82 78
f 11 97 93
f 6 71 69
f 12 100 101
f 11 94 97
f 8 80 82
f 2 51 50
f 10 90 89
f 5 63 64
f 3 55 53
f 7 76 74
f 9 87 84
f 10 91 90
f 5 67 63
f 3 56 55
f 7 75 76
f 9 83 87
f 6 68 72
f 2 48 49
f 8 78 79
f 11 93 96
f 12 98 102
f 10 88 91
f 5 65 67
f 3 57 56
f 7 77 75
f 9 86 83
f 5 64 66
f 3 53 54
f 7 74 73
f 9 84 85
f 10 89 92
f 6 70 71
f 12 99 100
f 11 95 94
f 8 81 80
f 2 52 51
f 35 109 116
f 18 105 108
f 19 111 106
f 40 114 112
f 42 117 115
f 34 125 119
f 33 152 156
f 25 137 139
f 36 158 160
f 20 123 120
f 32 143 149
f 23 127 132
f 24 135 128
f 37 147 145
f 41 150 148
f 34 153 155
f 33 140 133
f 25 138 134
f 36 159 157
f 20 122 124
f 17 107 47
f 14 103 44
f 13 104 43
f 15 110 45
f 16 113 46
f 18 118 49
f 35 154 72
f 42 141 102
f 40 162 96
f 19 121 79
f 30 142 62
f 27 129 59
f 22 130 58
f 28 144 60
f 29 146 61
f 32 151 66
f 23 131 54
f 24 136 73
f 37 161 85
f 41 126 92
f 35 116 101
f 18 108 69
f 19 106 50
f 40 112 82
f 42 115 97
f 34 119 71
f 33 156 100
f 25 139 94
f 36 160 80
f 20 120 51
f 32 149 90
f 23 132 63
f 24 128 55
f 37 145 76
f 41 148 87
f 34 155 91
f 33 133 67
f 25 134 56
f 36 157 75
f 20 124 83
f 14 109 68
f 13 105 48
f 15 111 78
f 16 114 93
f 17 117 98
f 21 125 88
f 31 152 65
f 26 137 57
f 38 158 77
f 39 123 86
f 27 143 64
f 22 127 53
f 28 135 74
f 29 147 84
f 30 150 89
f 31 153 70
f 26 140 99
f 38 138 95
f 39 159 81
f 21 122 52
f 14 107 109
f 13 103 105
f 15 104 111
f 16 110 114
f 17 113 117
f 21 118 125
f 31 154 152
f 26 141 137
f 38 162 158
f 39 121 123
f 27 142 143
f 22 129 127
f 28 130 135
f 29 144 147
f 30 146 150
f 31 151 153
f 26 131 140
f 38 136 138
f 39 161 159
f 21 126 122
f 14 44 107
f 13 43 103
f 15 45 104
f 16 46 110
f 17 47 113
f 21 52 118
f 31 70 154
f 26 99 141
f 38 95 162
f 39 81 121
f 27 59 142
f 22 58 129
f 28 60 130
f 29 61 144
f 30 62 146
f 31 65 151
f 26 57 131
f 38 77 136
f 39 86 161
f 21 88 126
f 17 98 116
f 14 68 108
f 13 48 106
f 15 78 112
f 16 93 115
f 18 69 119
f 35 101 156
f 42 97 139
f 40 82 160
f 19 50 120
f 30 89 149
f 27 64 132
f 22 53 128
f 28 74 145
f 29 84 148
f 32 90 155
f 23 63 133
f 24 55 134
f 37 76 157
f 41 87 124
f 35 72 109
f 18 49 105
f 19 79 111
f 40 96 114
f 42 102 117
f 34 91 125
f 33 67 152
f 25 56 137
f 36 75 158
f 20 83 123
f 32 66 143
f 23 54 127
f 24 73 135
f 37 85 147
f 41 92 150
f 34 71 153
f 33 100 140
f 25 94 138
f 36 80 159
f 20 51 122
f 17 116 107
f 14 108 103
f 13 106 104
f 15 112 110
f 16 115 113
f 18 119 118
f 35 156 154
f 42 139 141
f 40 160 162
f 19 120 121
f 30 149 142
f 27 132 129
f 22 128 130
f 28 145 144
f 29 148 146
f 32 155 151
f 23 133 131
f 24 134 136
f 37 157 161
f 41 124 126
f 107 44 47
f 103 43 44
f 104 45 43
f 110 46 45
f 113 47 46
f 118 52 49
f 154 70 72
f 141 99 102
f 162 95 96
f 121 81 79
f 142 59 62
f 129 58 59
f 130 60 58
f 144 61 60
f 146 62 61
f 151 65 66
f 131 57 54
f 136 77 73
f 161 86 85
f 126 88 92
f 116 98 101
f 108 68 69
f 106 48 50
f 112 78 82
f 115 93 97
f 119 69 71
f 156 101 100
f 139 97 94
f 160 82 80
f 120 50 51
f 149 89 90
f 132 64 63
f 128 53 55
f 145 74 76
f 148 84 87
f 155 90 91
f 133 63 67
f 134 55 56
f 157 76 75
f 124 87 83
f 109 72 68
f 105 49 48
f 111 79 78
f 114 96 93
f 117 102 98
f 125 91 88
f 152 67 65
f 137 56 57
f 158 75 77
f 123 83 86
f 143 66 64
f 127 54 53
f 135 73 74
f 147 85 84
f 150 92 89
f 153 71 70
f 140 100 99
f 138 94 95
f 159 80 81
f 122 51 52
f 107 116 109
f 103 108 105
f 104 106 111
f 110 112 114
f 113 115 117
f 118 119 125
f 154 156 152
f 141 139 137
f 162 160 158
f 121 120 123
f 142 149 143
f 129 132 127
f 130 128 135
f 144 145 147
f 146 148 150
f 151 155 153
f 131 133 140
f 136 134 138
f 161 157 159
f 126 124 122

