# https://github.com/mikedh/trimesh
v 0.32967019 0.76034492 0.81497860
v 0.82617444 0.74712980 0.85067308
v 0.32515159 0.62649912 0.82827795
v 0.82165575 0.61328417 0.86397219
v 0.57192206 0.62537056 0.86876357
v 0.57622820 0.75292653 0.85608935
v 0.52334338 0.62276280 0.82601285
v 0.52764952 0.75031877 0.81333876
v 0.83720767 0.67833579 0.84300756
v 0.83463204 0.68212181 0.88023591
v 0.31622088 0.69220257 0.80555320
v 0.31364521 0.69598860 0.84278131
v 0.57797480 0.75480539 0.83249032
v 0.34098837 0.76189893 0.83787584
v 0.34355110 0.75813180 0.80083346
v 0.31960145 0.75572526 0.80030489
v 0.31715912 0.75931531 0.83560646
v 0.81179774 0.74936777 0.87172294
v 0.81436050 0.74560070 0.83468056
v 0.83797854 0.74192810 0.83757162
v 0.83553624 0.74551815 0.87287319
v 0.57338262 0.61877745 0.84600639
v 0.33649242 0.62872374 0.85110831
v 0.33905518 0.62495655 0.81406593
v 0.31531671 0.62880623 0.81291580
v 0.31287438 0.63239628 0.84821737
v 0.80730176 0.61619258 0.88495541
v 0.80986458 0.61242545 0.84791315
v 0.83369380 0.61500901 0.85018253
v 0.83125138 0.61859912 0.88548422
v 0.57405317 0.68918091 0.86274493
v 0.81905270 0.62208658 0.88609576
v 0.32502770 0.63523573 0.85057962
v 0.82313615 0.74304140 0.87407744
v 0.32911107 0.75619048 0.83856130
v 0.52468234 0.68653059 0.81929719
v 0.82174182 0.61813390 0.84722757
v 0.32771677 0.63128293 0.81171155
v 0.82582527 0.73908865 0.83520925
v 0.33180016 0.75223780 0.79969311
v 0.84041905 0.67974502 0.85828090
v 0.31093833 0.69383776 0.82021582
v 0.34540746 0.76077616 0.81624341
v 0.33295754 0.76242512 0.83607578
v 0.33535796 0.75889653 0.80137968
v 0.32355118 0.75792444 0.80148935
v 0.32126352 0.76128715 0.83455503
v 0.81046301 0.74839813 0.84967697
v 0.82001990 0.74946123 0.87109137
v 0.82242030 0.74593288 0.83639538
v 0.83402199 0.74433768 0.83818781
v 0.83173436 0.74770033 0.87125337
v 0.34083301 0.62527496 0.82970715
v 0.32843259 0.62839150 0.84939361
v 0.33083302 0.62486315 0.81469750
v 0.31911856 0.62662399 0.81453562
v 0.31683093 0.62998664 0.84760118
v 0.80588859 0.61289686 0.86314070
v 0.81549495 0.61542785 0.88440931
v 0.81789541 0.61189932 0.84971321
v 0.82958937 0.61303723 0.85123408
v 0.82730180 0.61639994 0.88429964
v 0.35139281 0.62940753 0.85271883
v 0.79238147 0.61767000 0.88442206
v 0.57204175 0.62943488 0.86860383
v 0.80332804 0.62042809 0.88530362
v 0.34059408 0.63274431 0.85203707
v 0.35582015 0.76055151 0.83968806
v 0.79680890 0.74881417 0.87139130
v 0.57607520 0.74891138 0.85673225
v 0.80755240 0.74555838 0.87287056
v 0.34481847 0.75787455 0.83960390
v 0.35404399 0.62551022 0.81439757
v 0.79503274 0.61377281 0.84610093
v 0.52286220 0.62679476 0.82532442
v 0.80603451 0.61644977 0.84618509
v 0.34330055 0.62876600 0.81291842
v 0.35847142 0.75665432 0.80136681
v 0.79946005 0.74491686 0.83307028
v 0.52689564 0.74627131 0.81345296
v 0.81025881 0.74158001 0.83375180
v 0.34752488 0.75389630 0.80048537
v 0.83955514 0.73780215 0.83748174
v 0.83554178 0.61892205 0.84929395
v 0.83037782 0.62176764 0.84775639
v 0.83420259 0.73506123 0.83649933
v 0.84034795 0.67837006 0.84441829
v 0.83702850 0.74151623 0.87400210
v 0.83301520 0.62263596 0.88581419
v 0.82772988 0.62566006 0.88603187
v 0.83155447 0.73895371 0.87477469
v 0.83793551 0.68191618 0.87928843
v 0.31783769 0.75168836 0.79997468
v 0.31382439 0.63280821 0.81178689
v 0.31929839 0.63537067 0.81101418
v 0.32312310 0.74866432 0.79975724
v 0.31291741 0.69240814 0.80650043
v 0.31531107 0.75540233 0.83649504
v 0.31129777 0.63652223 0.84830725
v 0.31665030 0.63926309 0.84928966
v 0.32047507 0.75255674 0.83803248
v 0.31050494 0.69595438 0.84137070
v 0.35576412 0.76247740 0.83766842
v 0.35816732 0.75894481 0.80293274
v 0.79725480 0.75072652 0.86940777
v 0.79965794 0.74719399 0.83467221
v 0.32533857 0.76121658 0.83656073
v 0.57639796 0.75597781 0.85485923
v 0.33323261 0.76006985 0.83813560
v 0.32786021 0.75750995 0.80011296
v 0.53010154 0.75349253 0.81411719
v 0.33587858 0.75618047 0.79989076
v 0.31733555 0.75750935 0.81424260
v 0.32380638 0.75447690 0.79953265
v 0.31516534 0.75199771 0.80149269
v 0.32120186 0.75830543 0.83717883
v 0.31287509 0.75536424 0.83459604
v 0.82741660 0.74785316 0.87265575
v 0.81932896 0.74713176 0.87308168
v 0.82993811 0.74414647 0.83620811
v 0.82197481 0.74324244 0.83483696
v 0.83832008 0.74364275 0.85169685
v 0.83386701 0.74090093 0.83620155
v 0.84199572 0.73797548 0.83936727
v 0.83126247 0.74472952 0.87384784
v 0.83970553 0.74134201 0.87247050
v 0.35119492 0.62713033 0.85111666
v 0.35359809 0.62359786 0.81638122
v 0.79268563 0.61537957 0.88285613
v 0.79508871 0.61184698 0.84812045
v 0.32091478 0.63017786 0.84958088
v 0.57187939 0.62213260 0.86815834
v 0.32887807 0.63108194 0.85095203
v 0.32343638 0.62647122 0.81313324
v 0.52558291 0.61964744 0.82741618
v 0.33152398 0.62719262 0.81270719
v 0.31302923 0.62995201 0.82691693
v 0.31959042 0.62959492 0.81194115
v 0.31114742 0.63298231 0.81331849
v 0.31698591 0.63342339 0.84958744
v 0.30885717 0.63634884 0.84642172
v 0.82299268 0.61681443 0.88567603
v 0.81497431 0.61814386 0.88589811
v 0.82551432 0.61310780 0.84922826
v 0.81762028 0.61425453 0.84765339
v 0.83401376 0.61608529 0.86437118
v 0.82965106 0.61601895 0.84861016
v 0.83797789 0.61896014 0.85119295
v 0.82704651 0.61984754 0.88625634
v 0.83568758 0.62232667 0.88429618
v 0.80377579 0.62629449 0.88493264
v 0.34051511 0.63862473 0.85162830
v 0.80760485 0.73971695 0.87366283
v 0.34434420 0.75204724 0.84035838
v 0.82233018 0.68254095 0.88027370
v 0.32582015 0.69575614 0.84457898
v 0.80650872 0.62227708 0.84543061
v 0.34324804 0.63460743 0.81212616
v 0.81033778 0.73569965 0.83416069
v 0.34707713 0.74802989 0.80085635
v 0.82503277 0.67856830 0.84121001
v 0.32852274 0.69178343 0.80551529
f 1 47 44
f 1 44 43
f 1 43 45
f 1 45 46
f 1 46 47
f 2 49 52
f 6 72 70
f 12 102 99
f 11 96 95
f 8 79 81
f 4 62 59
f 4 59 58
f 4 58 60
f 4 60 61
f 4 61 62
f 5 66 65
f 3 54 57
f 7 73 77
f 9 85 86
f 10 92 88
f 12 101 98
f 6 69 68
f 2 50 48
f 8 82 78
f 11 97 93
f 6 71 69
f 12 100 101
f 11 94 97
f 8 80 82
f 2 51 50
f 10 90 89
f 5 63 64
f 3 55 53
f 7 76 74
f 9 87 84
f 10 91 90
f 5 67 63
f 3 56 55
f 7 75 76
f 9 83 87
f 6 68 72
f 2 48 49
f 8 78 79
f 11 93 96
f 12 98 102
f 10 88 91
f 5 65 67
f 3 57 56
f 7 77 75
f 9 86 83
f 5 64 66
f 3 53 54
f 7 74 73
f 9 84 85
f 10 89 92
f 6 70 71
f 12 99 100
f 11 95 94
f 8 81 80
f 2 52 51
f 35 109 116
f 18 105 108
f 19 111 106
f 40 114 112
f 42 117 115
f 34 125 119
f 33 152 156
f 25 137 139
f 36 158 160
f 20 123 120
f 32 143 149
f 23 127 132
f 24 135 128
f 37 147 145
f 41 150 148
f 34 153 155
f 33 140 133
f 25 138 134
f 36 159 157
f 20 122 124
f 17 107 47
f 14 103 44
f 13 104 43
f 15 110 45
f 16 113 46
f 18 118 49
f 35 154 72
f 42 141 102
f 40 162 96
f 19 121 79
f 30 142 62
f 27 129 59
f 22 130 58
f 28 144 60
f 29 146 61
f 32 151 66
f 23 131 54
f 24 136 73
f 37 161 85
f 41 126 92
f 35 116 101
f 18 108 69
f 19 106 50
f 40 112 82
f 42 115 97
f 34 119 71
f 33 156 100
f 25 139 94
f 36 160 80
f 20 120 51
f 32 149 90
f 23 132 63
f 24 128 55
f 37 145 76
f 41 148 87
f 34 155 91
f 33 133 67
f 25 134 56
f 36 157 75
f 20 124 83
f 14 109 68
f 13 105 48
f 15 111 78
f 16 114 93
f 17 117 98
f 21 125 88
f 31 152 65
f 26 137 57
f 38 158 77
f 39 123 86
f 27 143 64
f 22 127 53
f 28 135 74
f 29 147 84
f 30 150 89
f 31 153 70
f 26 140 99
f 38 138 95
f 39 159 81
f 21 122 52
f 14 107 109
f 13 103 105
f 15 104 111
f 16 110 114
f 17 113 117
f 21 118 125
f 31 154 152
f 26 141 137
f 38 162 158
f 39 121 123
f 27 142 143
f 22 129 127
f 28 130 135
f 29 144 147
f 30 146 150
f 31 151 153
f 26 131 140
f 38 136 138
f 39 161 159
f 21 126 122
f 14 44 107
f 13 43 103
f 15 45 104
f 16 46 110
f 17 47 113
f 21 52 118
f 31 70 154
f 26 99 141
f 38 95 162
f 39 81 121
f 27 59 142
f 22 58 129
f 28 60 130
f 29 61 144
f 30 62 146
f 31 65 151
f 26 57 131
f 38 77 136
f 39 86 161
f 21 88 126
f 17 98 116
f 14 68 108
f 13 48 106
f 15 78 112
f 16 93 115
f 18 69 119
f 35 101 156
f 42 97 139
f 40 82 160
f 19 50 120
f 30 89 149
f 27 64 132
f 22 53 128
f 28 74 145
f 29 84 148
f 32 90 155
f 23 63 133
f 24 55 134
f 37 76 157
f 41 87 124
f 35 72 109
f 18 49 105
f 19 79 111
f 40 96 114
f 42 102 117
f 34 91 125
f 33 67 152
f 25 56 137
f 36 75 158
f 20 83 123
f 32 66 143
f 23 54 127
f 24 73 135
f 37 85 147
f 41 92 150
f 34 71 153
f 33 100 140
f 25 94 138
f 36 80 159
f 20 51 122
f 17 116 107
f 14 108 103
f 13 106 104
f 15 112 110
f 16 115 113
f 18 119 118
f 35 156 154
f 42 139 141
f 40 160 162
f 19 120 121
f 30 149 142
f 27 132 129
f 22 128 130
f 28 145 144
f 29 148 146
f 32 155 151
f 23 133 131
f 24 134 136
f 37 157 161
f 41 124 126
f 107 44 47
f 103 43 44
f 104 45 43
f 110 46 45
f 113 47 46
f 118 52 49
f 154 70 72
f 141 99 102
f 162 95 96
f 121 81 79
f 142 59 62
f 129 58 59
f 130 60 58
f 144 61 60
f 146 62 61
f 151 65 66
f 131 57 54
f 136 77 73
f 161 86 85
f 126 88 92
f 116 98 101
f 108 68 69
f 106 48 50
f 112 78 82
f 115 93 97
f 119 69 71
f 156 101 100
f 139 97 94
f 160 82 80
f 120 50 51
f 149 89 90
f 132 64 63
f 128 53 55
f 145 74 76
f 148 84 87
f 155 90 91
f 133 63 67
f 134 55 56
f 157 76 75
f 124 87 83
f 109 72 68
f 105 49 48
f 111 79 78
f 114 96 93
f 117 102 98
f 125 91 88
f 152 67 65
f 137 56 57
f 158 75 77
f 123 83 86
f 143 66 64
f 127 54 53
f 135 73 74
f 147 85 84
f 150 92 89
f 153 71 70
f 140 100 99
f 138 94 95
f 159 80 81
f 122 51 52
f 107 116 109
f 103 108 105
f 104 106 111
f 110 112 114
f 113 115 117
f 118 119 125
f 154 156 152
f 141 139 137
f 162 160 158
f 121 120 123
f 142 149 143
f 129 132 127
f 130 128 135
f 144 145 147
f 146 148 150
f 151 155 153
f 131 133 140
f 136 134 138
f 161 157 159
f 126 124 122

