# https://github.com/mikedh/trimesh
v 1.02535975 4.79970980 1.07255006
v 2.20948458 3.56653690 1.10518217
v 0.79628605 4.57914114 1.04963195
v 1.98041081 3.34596801 1.08226407
v 1.39222682 3.96690297 1.08954656
v 1.61053562 4.17710686 1.11138737
v 1.27248478 4.09569025 1.04692674
v 1.49079347 4.30589437 1.06876767
v 2.12513828 3.42640066 1.07926047
v 2.12269855 3.42504787 1.11666536
v 0.88262403 4.72038126 1.04501939
v 0.88018429 4.71902895 1.08242416
v 1.61930430 4.18492985 1.08882451
v 1.05398822 4.76645136 1.09538102
v 1.05641556 4.76779699 1.05816305
v 0.99428231 4.82168293 1.05693865
v 0.99196881 4.82040024 1.09240782
v 2.17683315 3.59709644 1.12632465
v 2.17926049 3.59844255 1.08910644
v 2.23057246 3.53418374 1.09100854
v 2.22825909 3.53290105 1.12647772
v 1.38649607 3.96076465 1.06553316
v 0.82606196 4.54698706 1.07257795
v 0.82848948 4.54833269 1.03535998
v 0.77706355 4.61252880 1.03520656
v 0.77475005 4.61124563 1.07067597
v 1.94890690 3.37763238 1.10352147
v 1.95133424 3.37897849 1.06630325
v 2.01335359 3.32502961 1.06927669
v 2.01103997 3.32374668 1.10474586
v 1.50136042 4.07199335 1.10078681
v 1.98698843 3.35883784 1.10624802
v 0.80877596 4.58585358 1.07377839
v 2.19399953 3.55816364 1.12695849
v 1.01578712 4.78517914 1.09448934
v 1.37966609 4.20288086 1.05747235
v 1.98953557 3.36025047 1.06719518
v 0.81132311 4.58726597 1.03472602
v 2.19654655 3.55957603 1.08790588
v 1.01833415 4.78659153 1.05543649
v 2.13428593 3.41530871 1.09457862
v 0.87151432 4.73038626 1.05977893
v 1.06426334 4.76201153 1.07394278
v 1.03541839 4.78738451 1.09374189
v 1.03769207 4.78864527 1.05888116
v 1.00738633 4.81543350 1.05869710
v 1.00521946 4.81423235 1.09191954
v 2.17338586 3.60694790 1.10450792
v 2.19702506 3.57766247 1.12575352
v 2.19929886 3.57892323 1.09089279
v 2.22482061 3.54757166 1.09224725
v 2.22265387 3.54637027 1.12546968
v 0.83235651 4.53871441 1.05074131
v 0.80602354 4.56650639 1.07079184
v 0.80829728 4.56776714 1.03593099
v 0.78266877 4.59905910 1.03621495
v 0.78050196 4.59785795 1.06943738
v 1.94147885 3.38365054 1.08130658
v 1.96763027 3.35678411 1.10280347
v 1.96990407 3.35804486 1.06794262
v 2.00010300 3.33119726 1.06976497
v 1.99793637 3.32999563 1.10298753
v 0.86331832 4.51160431 1.07437420
v 1.91504300 3.41631579 1.10335779
v 1.39912486 3.97355127 1.09048092
v 1.94609344 3.39425206 1.10498786
v 0.84250814 4.54354954 1.07457519
v 1.08776820 4.72772121 1.09682977
v 2.13949299 3.63243270 1.12581313
v 1.60360610 4.17044115 1.11093843
v 2.16025090 3.60045838 1.12641370
v 1.05666542 4.74975634 1.09600067
v 0.86582959 4.51299667 1.03587139
v 1.91755438 3.41770840 1.06485474
v 1.27790177 4.10393190 1.04733396
v 1.94865704 3.39567351 1.06568360
v 0.84507167 4.54497099 1.03527081
v 1.09027958 4.72911406 1.05832672
v 2.14200401 3.63382506 1.08731031
v 1.48238289 4.30082130 1.06779158
v 2.16281438 3.60188007 1.08710933
v 1.05922902 4.75117731 1.05669677
v 2.22771645 3.52343392 1.08981776
v 2.02425599 3.32752728 1.06946242
v 2.01640868 3.34537315 1.06870937
v 2.21030784 3.53207350 1.08810818
v 2.13274479 3.41835570 1.08065677
v 2.22532296 3.52210689 1.12651145
v 2.02186275 3.32620025 1.10615599
v 2.01390028 3.34398222 1.10716641
v 2.20779967 3.53068280 1.12656522
v 2.13045955 3.41708875 1.11569238
v 0.98345971 4.81922960 1.05552840
v 0.77999938 4.62332249 1.03517318
v 0.79752290 4.61474657 1.03511918
v 0.99142206 4.80144739 1.05451810
v 0.87486285 4.72834063 1.04599202
v 0.98106652 4.81790209 1.09222221
v 0.77760613 4.62199545 1.07186675
v 0.79501462 4.61335611 1.07357633
v 0.98891383 4.80005646 1.09297526
v 0.87257779 4.72707367 1.08102763
v 1.09088361 4.73187256 1.09537184
v 1.09315991 4.73313522 1.06047130
v 2.14380574 3.63533759 1.12438810
v 2.14608169 3.63659978 1.08948767
v 1.01489282 4.80353212 1.09387219
v 1.61597764 4.18232203 1.11100399
v 1.03213656 4.78196287 1.09512448
v 1.01728129 4.80485725 1.05725121
v 1.50186121 4.30505943 1.07038641
v 1.03464270 4.78335285 1.05669796
v 0.99079782 4.82493544 1.07103777
v 1.00253296 4.80971909 1.05585980
v 0.97736663 4.82562828 1.05708873
v 1.00006604 4.80835152 1.09368455
v 0.97519737 4.82442522 1.09034896
v 2.21231079 3.55651569 1.12687063
v 2.19143939 3.57464027 1.12707245
v 2.21469903 3.55784035 1.09024990
v 2.19394541 3.57603002 1.08864641
v 2.23330641 3.53096080 1.10527885
v 2.21898937 3.54287577 1.08938313
v 2.23381710 3.51713371 1.09171402
v 2.21652198 3.54150772 1.12720776
v 2.23164773 3.51593089 1.12497437
v 0.85924065 4.50882959 1.07219672
v 0.86151695 4.51009226 1.03729630
v 1.91216254 3.41229439 1.10121322
v 1.91443884 3.41355658 1.06631279
v 0.79062325 4.58758926 1.07143486
v 1.38690519 3.96175408 1.08808613
v 0.81137693 4.56939936 1.07303834
v 0.79301178 4.58891392 1.03481388
v 1.27278876 4.08449125 1.04746854
v 0.81388313 4.57078934 1.03461194
v 0.77248633 4.61472940 1.04919648
v 0.78880042 4.60392141 1.03447676
v 0.77367467 4.62949848 1.03671002
v 0.78633344 4.60255337 1.07230151
v 0.77150542 4.62829590 1.06997037
v 1.98804116 3.34057260 1.10443318
v 1.97067976 3.36207676 1.10498631
v 1.99042988 3.34189725 1.06781244
v 1.97318602 3.36346650 1.06656003
v 2.01499510 3.32075453 1.08343744
v 2.00525641 3.33707833 1.06799984
v 2.03012538 3.32100415 1.07133555
v 2.00278950 3.33571053 1.10582459
v 2.02795577 3.31980133 1.10459578
v 1.95672762 3.40323782 1.10620010
v 0.85188621 4.55384350 1.07575297
v 2.15084767 3.59015059 1.12562120
v 1.04600608 4.74075651 1.09517372
v 2.09345078 3.45541120 1.11678314
v 0.90931195 4.68859863 1.08415067
v 1.95931625 3.40467334 1.06651068
v 0.85447484 4.55527878 1.03606319
v 2.15343642 3.59158611 1.08593154
v 1.04859471 4.74219179 1.05548429
v 2.09601068 3.45683074 1.07753396
v 0.91187191 4.69001818 1.04490149
f 1 47 44
f 1 44 43
f 1 43 45
f 1 45 46
f 1 46 47
f 2 49 52
f 6 72 70
f 12 102 99
f 11 96 95
f 8 79 81
f 4 62 59
f 4 59 58
f 4 58 60
f 4 60 61
f 4 61 62
f 5 66 65
f 3 54 57
f 7 73 77
f 9 85 86
f 10 92 88
f 12 101 98
f 6 69 68
f 2 50 48
f 8 82 78
f 11 97 93
f 6 71 69
f 12 100 101
f 11 94 97
f 8 80 82
f 2 51 50
f 10 90 89
f 5 63 64
f 3 55 53
f 7 76 74
f 9 87 84
f 10 91 90
f 5 67 63
f 3 56 55
f 7 75 76
f 9 83 87
f 6 68 72
f 2 48 49
f 8 78 79
f 11 93 96
f 12 98 102
f 10 88 91
f 5 65 67
f 3 57 56
f 7 77 75
f 9 86 83
f 5 64 66
f 3 53 54
f 7 74 73
f 9 84 85
f 10 89 92
f 6 70 71
f 12 99 100
f 11 95 94
f 8 81 80
f 2 52 51
f 35 109 116
f 18 105 108
f 19 111 106
f 40 114 112
f 42 117 115
f 34 125 119
f 33 152 156
f 25 137 139
f 36 158 160
f 20 123 120
f 32 143 149
f 23 127 132
f 24 135 128
f 37 147 145
f 41 150 148
f 34 153 155
f 33 140 133
f 25 138 134
f 36 159 157
f 20 122 124
f 17 107 47
f 14 103 44
f 13 104 43
f 15 110 45
f 16 113 46
f 18 118 49
f 35 154 72
f 42 141 102
f 40 162 96
f 19 121 79
f 30 142 62
f 27 129 59
f 22 130 58
f 28 144 60
f 29 146 61
f 32 151 66
f 23 131 54
f 24 136 73
f 37 161 85
f 41 126 92
f 35 116 101
f 18 108 69
f 19 106 50
f 40 112 82
f 42 115 97
f 34 119 71
f 33 156 100
f 25 139 94
f 36 160 80
f 20 120 51
f 32 149 90
f 23 132 63
f 24 128 55
f 37 145 76
f 41 148 87
f 34 155 91
f 33 133 67
f 25 134 56
f 36 157 75
f 20 124 83
f 14 109 68
f 13 105 48
f 15 111 78
f 16 114 93
f 17 117 98
f 21 125 88
f 31 152 65
f 26 137 57
f 38 158 77
f 39 123 86
f 27 143 64
f 22 127 53
f 28 135 74
f 29 147 84
f 30 150 89
f 31 153 70
f 26 140 99
f 38 138 95
f 39 159 81
f 21 122 52
f 14 107 109
f 13 103 105
f 15 104 111
f 16 110 114
f 17 113 117
f 21 118 125
f 31 154 152
f 26 141 137
f 38 162 158
f 39 121 123
f 27 142 143
f 22 129 127
f 28 130 135
f 29 144 147
f 30 146 150
f 31 151 153
f 26 131 140
f 38 136 138
f 39 161 159
f 21 126 122
f 14 44 107
f 13 43 103
f 15 45 104
f 16 46 110
f 17 47 113
f 21 52 118
f 31 70 154
f 26 99 141
f 38 95 162
f 39 81 121
f 27 59 142
f 22 58 129
f 28 60 130
f 29 61 144
f 30 62 146
f 31 65 151
f 26 57 131
f 38 77 136
f 39 86 161
f 21 88 126
f 17 98 116
f 14 68 108
f 13 48 106
f 15 78 112
f 16 93 115
f 18 69 119
f 35 101 156
f 42 97 139
f 40 82 160
f 19 50 120
f 30 89 149
f 27 64 132
f 22 53 128
f 28 74 145
f 29 84 148
f 32 90 155
f 23 63 133
f 24 55 134
f 37 76 157
f 41 87 124
f 35 72 109
f 18 49 105
f 19 79 111
f 40 96 114
f 42 102 117
f 34 91 125
f 33 67 152
f 25 56 137
f 36 75 158
f 20 83 123
f 32 66 143
f 23 54 127
f 24 73 135
f 37 85 147
f 41 92 150
f 34 71 153
f 33 100 140
f 25 94 138
f 36 80 159
f 20 51 122
f 17 116 107
f 14 108 103
f 13 106 104
f 15 112 110
f 16 115 113
f 18 119 118
f 35 156 154
f 42 139 141
f 40 160 162
f 19 120 121
f 30 149 142
f 27 132 129
f 22 128 130
f 28 145 144
f 29 148 146
f 32 155 151
f 23 133 131
f 24 134 136
f 37 157 161
f 41 124 126
f 107 44 47
f 103 43 44
f 104 45 43
f 110 46 45
f 113 47 46
f 118 52 49
f 154 70 72
f 141 99 102
f 162 95 96
f 121 81 79
f 142 59 62
f 129 58 59
f 130 60 58
f 144 61 60
f 146 62 61
f 151 65 66
f 131 57 54
f 136 77 73
f 161 86 85
f 126 88 92
f 116 98 101
f 108 68 69
f 106 48 50
f 112 78 82
f 115 93 97
f 119 69 71
f 156 101 100
f 139 97 94
f 160 82 80
f 120 50 51
f 149 89 90
f 132 64 63
f 128 53 55
f 145 74 76
f 148 84 87
f 155 90 91
f 133 63 67
f 134 55 56
f 157 76 75
f 124 87 83
f 109 72 68
f 105 49 48
f 111 79 78
f 114 96 93
f 117 102 98
f 125 91 88
f 152 67 65
f 137 56 57
f 158 75 77
f 123 83 86
f 143 66 64
f 127 54 53
f 135 73 74
f 147 85 84
f 150 92 89
f 153 71 70
f 140 100 99
f 138 94 95
f 159 80 81
f 122 51 52
f 107 116 109
f 103 108 105
f 104 106 111
f 110 112 114
f 113 115 117
f 118 119 125
f 154 156 152
f 141 139 137
f 162 160 158
f 121 120 123
f 142 149 143
f 129 132 127
f 130 128 135
f 144 145 147
f 146 148 150
f 151 155 153
f 131 133 140
f 136 134 138
f 161 157 159
f 126 124 122

