# https://github.com/mikedh/trimesh
v -0.60074633 3.50026679 1.64236379
v 1.27089608 5.21926880 2.50754809
v -0.29150799 3.73411703 0.50876427
v 1.58013475 5.45311928 1.37394857
v 0.65251243 4.57094526 0.96866715
v 0.35780600 4.34808445 2.04899549
v 0.43287772 4.42263651 0.87815785
v 0.13817124 4.19977617 1.95848608
v 1.46142185 5.38994932 1.96163285
v 1.48650753 5.36208487 1.96272767
v -0.50251162 3.58618307 1.05378592
v -0.47742593 3.55831885 1.05488086
v 0.33240098 4.35803175 2.08419013
v -0.53675789 3.52891135 1.66255724
v -0.56171817 3.55663657 1.66146767
v -0.64356101 3.47910595 1.59355509
v -0.61977363 3.45268369 1.59459341
v 1.23802447 5.15895271 2.48296690
v 1.21306419 5.18667793 2.48187733
v 1.31053436 5.27383661 2.49685431
v 1.33432186 5.24741411 2.49789262
v 0.64668119 4.59569454 0.93210900
v -0.22906835 3.76159000 0.53463602
v -0.25402874 3.78931499 0.53354669
v -0.35032600 3.70085382 0.51862097
v -0.32653862 3.67443132 0.51965928
v 1.54571402 5.39163160 1.35504591
v 1.52075362 5.41935635 1.35395646
v 1.60376942 5.49558449 1.42192018
v 1.62755668 5.46916199 1.42295849
v 0.50537378 4.45927668 1.50884056
v 1.57596946 5.42046118 1.42705083
v -0.28632772 3.71004248 0.56618643
v 1.29651427 5.20913363 2.45147085
v -0.56578279 3.49871492 1.59060609
v 0.28215820 4.30854988 1.41685569
v 1.54977858 5.44955301 1.42590749
v -0.31251848 3.73913431 0.56504297
v 1.27032351 5.23822546 2.45032740
v -0.59197354 3.52780700 1.58946288
v 1.48751724 5.39345026 1.96947360
v -0.50843519 3.56027579 1.04682565
v -0.54323804 3.55309963 1.67678082
v -0.56917357 3.50090432 1.65199578
v -0.59255296 3.52687335 1.65097523
v -0.63296735 3.48812795 1.61903071
v -0.61068660 3.46337938 1.62000310
v 1.20985496 5.16321993 2.48716450
v 1.26687682 5.18721676 2.50072718
v 1.24349737 5.21318579 2.49970675
v 1.29132450 5.25548553 2.50855255
v 1.31360531 5.23073673 2.50952506
v -0.23017481 3.78984165 0.52916074
v -0.25950143 3.73508215 0.51680684
v -0.28288084 3.76105118 0.51578641
v -0.32960942 3.71753097 0.50698853
v -0.30732870 3.69278216 0.50796103
v 1.52291811 5.39996243 1.33954442
v 1.57654870 5.42139482 1.36553848
v 1.55316937 5.44736385 1.36451781
v 1.59468257 5.48488855 1.39651036
v 1.61696327 5.46013975 1.39748311
v -0.17477734 3.81096005 0.56923842
v 1.48759174 5.33775568 1.33768439
v 0.64334184 4.56370640 1.00288844
v 1.52189910 5.36984682 1.38210893
v -0.22244163 3.76776433 0.57577133
v -0.47777390 3.58183026 1.67995644
v 1.18459523 5.10862589 2.44840217
v 0.36730215 4.35496187 2.01478863
v 1.23279703 5.15122414 2.44189310
v -0.51154381 3.54914188 1.63555515
v -0.20059937 3.83964205 0.56811142
v 1.46176982 5.36643791 1.33655703
v 0.42099062 4.41356325 0.91125953
v 1.49553967 5.39912605 1.38095844
v -0.24880116 3.79704404 0.57462049
v -0.50359589 3.61051226 1.67882931
v 1.15877330 5.13730812 2.44727516
v 0.14495088 4.20481873 1.92315972
v 1.20643759 5.18050337 2.44074249
v -0.53790331 3.57842112 1.63440454
v 1.32570636 5.28709745 2.46570396
v 1.60036814 5.49480009 1.45885539
v 1.57327259 5.47216129 1.47321844
v 1.31151807 5.27421951 2.43275237
v 1.47436166 5.40022135 1.96728170
v 1.35031509 5.25976324 2.46677828
v 1.62497663 5.46746588 1.45992947
v 1.59906375 5.44351339 1.47434413
v 1.33730948 5.24557161 2.43387794
v 1.49785805 5.37412214 1.96830726
v -0.64098090 3.48080206 1.55658412
v -0.36631918 3.68850470 0.54973531
v -0.35331357 3.70269656 0.58263564
v -0.61506802 3.50475478 1.54216957
v -0.51386231 3.57414579 1.04820633
v -0.61637241 3.45346761 1.55765843
v -0.34171054 3.66117024 0.55080962
v -0.32752222 3.67404866 0.58376145
v -0.58927667 3.47610641 1.54329538
v -0.49036568 3.54804635 1.04923201
v -0.48478326 3.57863140 1.69726443
v -0.50818926 3.60462999 1.69624269
v 1.17947829 5.10716534 2.46658540
v 1.15607226 5.13316393 2.46556354
v -0.59342569 3.47687101 1.62625718
v 0.34992236 4.34327698 2.07560158
v -0.56032854 3.50565624 1.63152337
v -0.61798537 3.50415134 1.62518489
v 0.14060640 4.20193624 1.98934436
v -0.58609909 3.53428125 1.63039839
v -0.63973677 3.46350861 1.59440041
v -0.62632281 3.49615908 1.59214056
v -0.64962304 3.47055411 1.55275249
v -0.60095549 3.46798229 1.59324801
v -0.62731689 3.44577718 1.55372632
v 1.29922819 5.21517086 2.50115418
v 1.27208018 5.18862391 2.47857165
v 1.27466822 5.24245119 2.50008202
v 1.24630940 5.21724892 2.47744656
v 1.32418799 5.26726627 2.50224328
v 1.29642260 5.26209688 2.48094773
v 1.33633840 5.29455185 2.47078180
v 1.32179010 5.23391962 2.48205543
v 1.35864460 5.26977491 2.47175574
v -0.17207634 3.81510425 0.55095029
v -0.19548234 3.84110284 0.54992843
v 1.49218524 5.34363794 1.32027102
v 1.46877909 5.36963654 1.31924927
v -0.29067251 3.70581675 0.51643181
v 0.65915936 4.57712603 0.94200706
v -0.26231363 3.73101902 0.53906703
v -0.31523231 3.73309684 0.51535964
v 0.44984350 4.43578577 0.85574996
v -0.28808421 3.75964403 0.53794193
v -0.34502691 3.68637204 0.51405931
v -0.33779404 3.71434855 0.53445840
v -0.37464872 3.67849278 0.54475808
v -0.31242678 3.68617105 0.53556585
v -0.35234255 3.65371609 0.54573178
v 1.60198116 5.44411659 1.39132857
v 1.57009494 5.41398668 1.38611519
v 1.57742155 5.47139692 1.39025652
v 1.54432440 5.44261169 1.38499022
v 1.61889780 5.49012995 1.42190206
v 1.58495128 5.48028564 1.42326570
v 1.61131275 5.50249052 1.46278739
v 1.61031854 5.45210838 1.42437327
v 1.63361883 5.47771406 1.46376097
v 1.50949597 5.36038733 1.43215263
v -0.23683007 3.75648165 0.62489653
v 1.24744356 5.16222000 2.39277887
v -0.49888256 3.55831409 1.58552289
v 1.44099140 5.31902599 1.94142866
v -0.43067303 3.60000372 1.07623410
v 1.48287833 5.38995361 1.43099082
v -0.26344788 3.78604770 0.62373495
v 1.22082591 5.19178629 2.39161706
v -0.52550030 3.58788037 1.58436108
v 1.41466868 5.34826422 1.94027960
v -0.45699546 3.62924218 1.07508492
f 1 47 44
f 1 44 43
f 1 43 45
f 1 45 46
f 1 46 47
f 2 49 52
f 6 72 70
f 12 102 99
f 11 96 95
f 8 79 81
f 4 62 59
f 4 59 58
f 4 58 60
f 4 60 61
f 4 61 62
f 5 66 65
f 3 54 57
f 7 73 77
f 9 85 86
f 10 92 88
f 12 101 98
f 6 69 68
f 2 50 48
f 8 82 78
f 11 97 93
f 6 71 69
f 12 100 101
f 11 94 97
f 8 80 82
f 2 51 50
f 10 90 89
f 5 63 64
f 3 55 53
f 7 76 74
f 9 87 84
f 10 91 90
f 5 67 63
f 3 56 55
f 7 75 76
f 9 83 87
f 6 68 72
f 2 48 49
f 8 78 79
f 11 93 96
f 12 98 102
f 10 88 91
f 5 65 67
f 3 57 56
f 7 77 75
f 9 86 83
f 5 64 66
f 3 53 54
f 7 74 73
f 9 84 85
f 10 89 92
f 6 70 71
f 12 99 100
f 11 95 94
f 8 81 80
f 2 52 51
f 35 109 116
f 18 105 108
f 19 111 106
f 40 114 112
f 42 117 115
f 34 125 119
f 33 152 156
f 25 137 139
f 36 158 160
f 20 123 120
f 32 143 149
f 23 127 132
f 24 135 128
f 37 147 145
f 41 150 148
f 34 153 155
f 33 140 133
f 25 138 134
f 36 159 157
f 20 122 124
f 17 107 47
f 14 103 44
f 13 104 43
f 15 110 45
f 16 113 46
f 18 118 49
f 35 154 72
f 42 141 102
f 40 162 96
f 19 121 79
f 30 142 62
f 27 129 59
f 22 130 58
f 28 144 60
f 29 146 61
f 32 151 66
f 23 131 54
f 24 136 73
f 37 161 85
f 41 126 92
f 35 116 101
f 18 108 69
f 19 106 50
f 40 112 82
f 42 115 97
f 34 119 71
f 33 156 100
f 25 139 94
f 36 160 80
f 20 120 51
f 32 149 90
f 23 132 63
f 24 128 55
f 37 145 76
f 41 148 87
f 34 155 91
f 33 133 67
f 25 134 56
f 36 157 75
f 20 124 83
f 14 109 68
f 13 105 48
f 15 111 78
f 16 114 93
f 17 117 98
f 21 125 88
f 31 152 65
f 26 137 57
f 38 158 77
f 39 123 86
f 27 143 64
f 22 127 53
f 28 135 74
f 29 147 84
f 30 150 89
f 31 153 70
f 26 140 99
f 38 138 95
f 39 159 81
f 21 122 52
f 14 107 109
f 13 103 105
f 15 104 111
f 16 110 114
f 17 113 117
f 21 118 125
f 31 154 152
f 26 141 137
f 38 162 158
f 39 121 123
f 27 142 143
f 22 129 127
f 28 130 135
f 29 144 147
f 30 146 150
f 31 151 153
f 26 131 140
f 38 136 138
f 39 161 159
f 21 126 122
f 14 44 107
f 13 43 103
f 15 45 104
f 16 46 110
f 17 47 113
f 21 52 118
f 31 70 154
f 26 99 141
f 38 95 162
f 39 81 121
f 27 59 142
f 22 58 129
f 28 60 130
f 29 61 144
f 30 62 146
f 31 65 151
f 26 57 131
f 38 77 136
f 39 86 161
f 21 88 126
f 17 98 116
f 14 68 108
f 13 48 106
f 15 78 112
f 16 93 115
f 18 69 119
f 35 101 156
f 42 97 139
f 40 82 160
f 19 50 120
f 30 89 149
f 27 64 132
f 22 53 128
f 28 74 145
f 29 84 148
f 32 90 155
f 23 63 133
f 24 55 134
f 37 76 157
f 41 87 124
f 35 72 109
f 18 49 105
f 19 79 111
f 40 96 114
f 42 102 117
f 34 91 125
f 33 67 152
f 25 56 137
f 36 75 158
f 20 83 123
f 32 66 143
f 23 54 127
f 24 73 135
f 37 85 147
f 41 92 150
f 34 71 153
f 33 100 140
f 25 94 138
f 36 80 159
f 20 51 122
f 17 116 107
f 14 108 103
f 13 106 104
f 15 112 110
f 16 115 113
f 18 119 118
f 35 156 154
f 42 139 141
f 40 160 162
f 19 120 121
f 30 149 142
f 27 132 129
f 22 128 130
f 28 145 144
f 29 148 146
f 32 155 151
f 23 133 131
f 24 134 136
f 37 157 161
f 41 124 126
f 107 44 47
f 103 43 44
f 104 45 43
f 110 46 45
f 113 47 46
f 118 52 49
f 154 70 72
f 141 99 102
f 162 95 96
f 121 81 79
f 142 59 62
f 129 58 59
f 130 60 58
f 144 61 60
f 146 62 61
f 151 65 66
f 131 57 54
f 136 77 73
f 161 86 85
f 126 88 92
f 116 98 101
f 108 68 69
f 106 48 50
f 112 78 82
f 115 93 97
f 119 69 71
f 156 101 100
f 139 97 94
f 160 82 80
f 120 50 51
f 149 89 90
f 132 64 63
f 128 53 55
f 145 74 76
f 148 84 87
f 155 90 91
f 133 63 67
f 134 55 56
f 157 76 75
f 124 87 83
f 109 72 68
f 105 49 48
f 111 79 78
f 114 96 93
f 117 102 98
f 125 91 88
f 152 67 65
f 137 56 57
f 158 75 77
f 123 83 86
f 143 66 64
f 127 54 53
f 135 73 74
f 147 85 84
f 150 92 89
f 153 71 70
f 140 100 99
f 138 94 95
f 159 80 81
f 122 51 52
f 107 116 109
f 103 108 105
f 104 106 111
f 110 112 114
f 113 115 117
f 118 119 125
f 154 156 152
f 141 139 137
f 162 160 158
f 121 120 123
f 142 149 143
f 129 132 127
f 130 128 135
f 144 145 147
f 146 148 150
f 151 155 153
f 131 133 140
f 136 134 138
f 161 157 159
f 126 124 122

