# https://github.com/mikedh/trimesh
v -1.35389280 3.88839078 0.20113897
v 0.86169106 1.48404849 0.24564981
v -1.36063170 3.87994194 0.08020043
v 0.85495216 1.47559977 0.12471128
v -0.26963919 2.66238046 0.10733128
v -0.26321703 2.67043233 0.22258663
v -0.46961203 2.93724561 0.09927201
v -0.46318990 2.94529724 0.21452761
v 0.92417419 1.43086565 0.18493128
v 0.89666730 1.40557933 0.18823051
v -1.40066028 3.95376658 0.13822556
v -1.42816722 3.92848015 0.14152479
v -0.24587815 2.68644261 0.22436023
v -1.31279087 3.81125331 0.20393205
v -1.28542149 3.83641338 0.20064926
v -1.39235413 3.95079875 0.19576788
v -1.41843772 3.92682123 0.19889641
v 0.78813356 1.53133881 0.24613953
v 0.81550294 1.55649900 0.24285674
v 0.92083466 1.44053590 0.24223948
v 0.89475125 1.41655827 0.24536800
v -0.25272688 2.67785621 0.10144973
v -1.31949592 3.80284691 0.08359933
v -1.29212666 3.82800674 0.08031678
v -1.39874423 3.94278765 0.08108783
v -1.42482769 3.91880989 0.08421659
v 0.78142840 1.52293241 0.12580681
v 0.80879784 1.54809272 0.12252402
v 0.91444457 1.43252444 0.12755990
v 0.88836116 1.40854681 0.13068819
v -0.26666340 2.66619015 0.16498709
v 0.83285981 1.46648681 0.13244939
v -1.37166131 3.85882401 0.08816051
v 0.83894956 1.47412169 0.24173999
v -1.36557150 3.86645865 0.19745159
v -0.46989655 2.94553638 0.15679669
v 0.86157846 1.49288690 0.12900472
v -1.34294260 3.88522410 0.08471608
v 0.86766827 1.50052202 0.23829532
v -1.33685291 3.89285922 0.19400668
v 0.93206638 1.40013289 0.18663859
v -1.43067145 3.96416616 0.13917136
v -1.28384364 3.81215048 0.20331573
v -1.34816587 3.85143018 0.20348716
v -1.32252991 3.87499642 0.20041251
v -1.37542963 3.93103480 0.19820070
v -1.39986098 3.90857577 0.20113111
v 0.79140526 1.56009889 0.24500728
v 0.82528526 1.49280977 0.24715185
v 0.85092115 1.51637638 0.24407697
v 0.90247858 1.45905805 0.24396396
v 0.87804729 1.43659925 0.24689388
v -1.29066586 3.80359745 0.08088136
v -1.35491419 3.84296966 0.08237886
v -1.32927823 3.86653614 0.07930422
v -1.38204026 3.92274642 0.07956219
v -1.40647161 3.90028787 0.08249235
v 0.78458315 1.55154562 0.12257290
v 0.81853688 1.48434937 0.12604356
v 0.84417278 1.50791574 0.12296891
v 0.89586782 1.45077014 0.12532496
v 0.87143654 1.42831099 0.12825537
v -1.25338185 3.73027253 0.08591056
v 0.71447170 1.59476638 0.12544441
v -0.26961431 2.66247153 0.11100292
v 0.76284593 1.54203415 0.12917137
v -1.30204284 3.78284287 0.08768773
v -1.24677920 3.73855090 0.20440793
v 0.72107452 1.60304451 0.24394178
v -0.26359889 2.67001319 0.21895790
v 0.76914603 1.54993284 0.24223495
v -1.29574263 3.79074144 0.20075154
v -1.22506762 3.75630140 0.08251429
v 0.74278611 1.62079489 0.12204838
v -0.47206050 2.94073606 0.10284400
v 0.79174972 1.56860435 0.12570453
v -1.27313912 3.80941296 0.08422112
v -1.21846473 3.76457977 0.20101166
v 0.74938881 1.62907302 0.24054575
v -0.46604514 2.94827771 0.21079922
v 0.79804969 1.57650316 0.23876810
v -1.26683903 3.81731153 0.19728494
v 0.92853528 1.43260813 0.23870349
v 0.92254996 1.42510438 0.13128734
v 0.89960390 1.45163405 0.13325667
v 0.90530807 1.45878553 0.23562479
v 0.93768013 1.41446292 0.18532467
v 0.90155166 1.40780282 0.24194002
v 0.89556634 1.40029895 0.13452363
v 0.87132317 1.42563653 0.13664865
v 0.87702739 1.43278801 0.23901701
v 0.91191566 1.39077818 0.18841481
v -1.39955950 3.95904684 0.19193244
v -1.40554464 3.95154309 0.08451605
v -1.38102043 3.92655778 0.08743906
v -1.37531614 3.93370938 0.18980742
v -1.41590869 3.96856737 0.13804126
v -1.42654312 3.93424153 0.19516873
v -1.43252838 3.92673755 0.08775258
v -1.40930104 3.90056038 0.09083128
v -1.40359688 3.90771174 0.19319940
v -1.44167316 3.94488311 0.14113140
v -1.24646878 3.74111652 0.20612526
v -1.22080362 3.76470995 0.20304704
v 0.72362494 1.60317934 0.24570441
v 0.74928999 1.62677252 0.24262595
v -1.38239086 3.88709736 0.20153904
v -0.26238069 2.67125392 0.22534680
v -1.34744847 3.84772682 0.20140815
v -1.35546064 3.91185379 0.19830871
v -0.45295849 2.93320537 0.21766615
v -1.31919038 3.87370300 0.19801927
v -1.40854669 3.94758034 0.19718575
v -1.37298369 3.93139434 0.19511676
v -1.41222620 3.97027087 0.19191551
v -1.40079939 3.90582442 0.19845271
v -1.43668520 3.94778633 0.19484925
v 0.85806525 1.45576382 0.24654937
v 0.82169169 1.49378467 0.24498630
v 0.88499558 1.48051977 0.24331951
v 0.84994960 1.51976120 0.24159694
v 0.91627741 1.42469096 0.24389124
v 0.90309399 1.46140432 0.24084258
v 0.93868440 1.41907239 0.23914528
v 0.87527829 1.43583417 0.24417901
v 0.91422534 1.39658785 0.24207878
v -1.25328302 3.73257327 0.08383012
v -1.22761798 3.75616646 0.08075166
v 0.71681052 1.59463584 0.12340927
v 0.74247563 1.61822903 0.12033081
v -1.38898861 3.87882590 0.08313656
v -0.26911953 2.66280532 0.10440874
v -1.35394263 3.83958483 0.08485913
v -1.36205828 3.90358210 0.07990670
v -0.45969728 2.92475677 0.09672809
v -1.32568479 3.86556101 0.08147001
v -1.41496885 3.93952870 0.08192897
v -1.37927127 3.92351151 0.08227706
v -1.41821837 3.96275806 0.08437729
v -1.40708697 3.89794159 0.08561325
v -1.44267738 3.94027352 0.08731079
v 0.85146761 1.44749212 0.12814736
v 0.81519747 1.48564267 0.12843704
v 0.87839788 1.47224844 0.12491727
v 0.84345531 1.51161921 0.12504768
v 0.90985519 1.41663885 0.12863445
v 0.89680642 1.45352149 0.12800336
v 0.93269217 1.41155958 0.13160682
v 0.86899072 1.42795146 0.13133955
v 0.90823305 1.38907504 0.13454056
v 0.76417416 1.54099822 0.13450122
v -1.30306482 3.78435731 0.09297061
v 0.76988482 1.54815757 0.23698640
v -1.29735410 3.79151726 0.19545531
v 0.84137696 1.46422112 0.18721461
v -1.37423313 3.86859179 0.14270329
v 0.79336113 1.56782889 0.13100076
v -1.27387786 3.81118822 0.08946991
v 0.79907173 1.57498848 0.23348546
v -1.26816726 3.81834769 0.19195485
v 0.87023997 1.49075401 0.18375278
v -1.34536994 3.89512467 0.13924146
f 1 47 44
f 1 44 43
f 1 43 45
f 1 45 46
f 1 46 47
f 2 49 52
f 6 72 70
f 12 102 99
f 11 96 95
f 8 79 81
f 4 62 59
f 4 59 58
f 4 58 60
f 4 60 61
f 4 61 62
f 5 66 65
f 3 54 57
f 7 73 77
f 9 85 86
f 10 92 88
f 12 101 98
f 6 69 68
f 2 50 48
f 8 82 78
f 11 97 93
f 6 71 69
f 12 100 101
f 11 94 97
f 8 80 82
f 2 51 50
f 10 90 89
f 5 63 64
f 3 55 53
f 7 76 74
f 9 87 84
f 10 91 90
f 5 67 63
f 3 56 55
f 7 75 76
f 9 83 87
f 6 68 72
f 2 48 49
f 8 78 79
f 11 93 96
f 12 98 102
f 10 88 91
f 5 65 67
f 3 57 56
f 7 77 75
f 9 86 83
f 5 64 66
f 3 53 54
f 7 74 73
f 9 84 85
f 10 89 92
f 6 70 71
f 12 99 100
f 11 95 94
f 8 81 80
f 2 52 51
f 35 109 116
f 18 105 108
f 19 111 106
f 40 114 112
f 42 117 115
f 34 125 119
f 33 152 156
f 25 137 139
f 36 158 160
f 20 123 120
f 32 143 149
f 23 127 132
f 24 135 128
f 37 147 145
f 41 150 148
f 34 153 155
f 33 140 133
f 25 138 134
f 36 159 157
f 20 122 124
f 17 107 47
f 14 103 44
f 13 104 43
f 15 110 45
f 16 113 46
f 18 118 49
f 35 154 72
f 42 141 102
f 40 162 96
f 19 121 79
f 30 142 62
f 27 129 59
f 22 130 58
f 28 144 60
f 29 146 61
f 32 151 66
f 23 131 54
f 24 136 73
f 37 161 85
f 41 126 92
f 35 116 101
f 18 108 69
f 19 106 50
f 40 112 82
f 42 115 97
f 34 119 71
f 33 156 100
f 25 139 94
f 36 160 80
f 20 120 51
f 32 149 90
f 23 132 63
f 24 128 55
f 37 145 76
f 41 148 87
f 34 155 91
f 33 133 67
f 25 134 56
f 36 157 75
f 20 124 83
f 14 109 68
f 13 105 48
f 15 111 78
f 16 114 93
f 17 117 98
f 21 125 88
f 31 152 65
f 26 137 57
f 38 158 77
f 39 123 86
f 27 143 64
f 22 127 53
f 28 135 74
f 29 147 84
f 30 150 89
f 31 153 70
f 26 140 99
f 38 138 95
f 39 159 81
f 21 122 52
f 14 107 109
f 13 103 105
f 15 104 111
f 16 110 114
f 17 113 117
f 21 118 125
f 31 154 152
f 26 141 137
f 38 162 158
f 39 121 123
f 27 142 143
f 22 129 127
f 28 130 135
f 29 144 147
f 30 146 150
f 31 151 153
f 26 131 140
f 38 136 138
f 39 161 159
f 21 126 122
f 14 44 107
f 13 43 103
f 15 45 104
f 16 46 110
f 17 47 113
f 21 52 118
f 31 70 154
f 26 99 141
f 38 95 162
f 39 81 121
f 27 59 142
f 22 58 129
f 28 60 130
f 29 61 144
f 30 62 146
f 31 65 151
f 26 57 131
f 38 77 136
f 39 86 161
f 21 88 126
f 17 98 116
f 14 68 108
f 13 48 106
f 15 78 112
f 16 93 115
f 18 69 119
f 35 101 156
f 42 97 139
f 40 82 160
f 19 50 120
f 30 89 149
f 27 64 132
f 22 53 128
f 28 74 145
f 29 84 148
f 32 90 155
f 23 63 133
f 24 55 134
f 37 76 157
f 41 87 124
f 35 72 109
f 18 49 105
f 19 79 111
f 40 96 114
f 42 102 117
f 34 91 125
f 33 67 152
f 25 56 137
f 36 75 158
f 20 83 123
f 32 66 143
f 23 54 127
f 24 73 135
f 37 85 147
f 41 92 150
f 34 71 153
f 33 100 140
f 25 94 138
f 36 80 159
f 20 51 122
f 17 116 107
f 14 108 103
f 13 106 104
f 15 112 110
f 16 115 113
f 18 119 118
f 35 156 154
f 42 139 141
f 40 160 162
f 19 120 121
f 30 149 142
f 27 132 129
f 22 128 130
f 28 145 144
f 29 148 146
f 32 155 151
f 23 133 131
f 24 134 136
f 37 157 161
f 41 124 126
f 107 44 47
f 103 43 44
f 104 45 43
f 110 46 45
f 113 47 46
f 118 52 49
f 154 70 72
f 141 99 102
f 162 95 96
f 121 81 79
f 142 59 62
f 129 58 59
f 130 60 58
f 144 61 60
f 146 62 61
f 151 65 66
f 131 57 54
f 136 77 73
f 161 86 85
f 126 88 92
f 116 98 101
f 108 68 69
f 106 48 50
f 112 78 82
f 115 93 97
f 119 69 71
f 156 101 100
f 139 97 94
f 160 82 80
f 120 50 51
f 149 89 90
f 132 64 63
f 128 53 55
f 145 74 76
f 148 84 87
f 155 90 91
f 133 63 67
f 134 55 56
f 157 76 75
f 124 87 83
f 109 72 68
f 105 49 48
f 111 79 78
f 114 96 93
f 117 102 98
f 125 91 88
f 152 67 65
f 137 56 57
f 158 75 77
f 123 83 86
f 143 66 64
f 127 54 53
f 135 73 74
f 147 85 84
f 150 92 89
f 153 71 70
f 140 100 99
f 138 94 95
f 159 80 81
f 122 51 52
f 107 116 109
f 103 108 105
f 104 106 111
f 110 112 114
f 113 115 117
f 118 119 125
f 154 156 152
f 141 139 137
f 162 160 158
f 121 120 123
f 142 149 143
f 129 132 127
f 130 128 135
f 144 145 147
f 146 148 150
f 151 155 153
f 131 133 140
f 136 134 138
f 161 157 159
f 126 124 122

