# https://github.com/mikedh/trimesh
v 0.30721399 4.08974743 0.69760656
v 1.78060603 2.42590213 0.70900464
v 0.07993595 3.88836670 0.68034220
v 1.55332792 2.22452140 0.69174051
v 0.82091105 3.06039405 0.70953345
v 1.03750861 3.25231147 0.72598624
v 0.67053825 3.23357439 0.66906166
v 0.88713586 3.42549133 0.68551493
v 1.70399630 2.28470683 0.68536878
v 1.70227492 2.28343916 0.72281671
v 0.15795098 4.03059673 0.67340875
v 0.15622965 4.02932882 0.71085668
v 1.04577327 3.25947404 0.70321798
v 0.34375528 4.04544258 0.71992803
v 0.34546801 4.04670382 0.68266726
v 0.26953667 4.12167072 0.68259311
v 0.26790449 4.12046814 0.71810293
v 1.74089742 2.46770358 0.73073626
v 1.74261010 2.46896482 0.69347525
v 1.80783749 2.38452625 0.69449329
v 1.80620527 2.38332415 0.73000336
v 0.81478983 3.05481005 0.68567228
v 0.11761568 3.84507060 0.70275021
v 0.11932842 3.84633207 0.66548920
v 0.05402058 3.93071151 0.66622210
v 0.05238839 3.92950916 0.70173216
v 1.51475775 2.26733136 0.71355844
v 1.51647055 2.26859283 0.67629766
v 1.59232140 2.19356728 0.67812252
v 1.59068906 2.19236517 0.71363235
v 0.92919511 3.15634179 0.71808028
v 1.55953777 2.23759460 0.71553135
v 0.09350259 3.89313221 0.70419002
v 1.76492596 2.41957974 0.73113298
v 0.29889098 4.07511759 0.71979165
v 0.77637064 3.33234549 0.67694879
v 1.56133485 2.23891807 0.67643380
v 0.09529975 3.89445567 0.66509247
v 1.76672328 2.42090344 0.69203544
v 0.30068812 4.07644081 0.68069410
v 1.71590710 2.26996493 0.70052266
v 0.14465584 4.04431915 0.68836737
v 0.35527176 4.03829145 0.69829226
v 0.32042253 4.07336140 0.71861649
v 0.32202670 4.07454252 0.68371606
v 0.28493595 4.11168098 0.68409109
v 0.28340718 4.11055517 0.71735168
v 1.73533940 2.47983384 0.70896840
v 1.76579583 2.44115615 0.72979808
v 1.76739991 2.44233775 0.69489741
v 1.79977465 2.40103173 0.69580984
v 1.79824591 2.39990568 0.72907043
v 0.12518269 3.83441973 0.68081427
v 0.09282582 3.87169790 0.70132804
v 0.09443004 3.87287951 0.66642737
v 0.06198003 3.91412997 0.66715479
v 0.06045122 3.91300368 0.70041585
v 1.50525010 2.27596235 0.69149065
v 1.53819919 2.23949313 0.71250963
v 1.53980315 2.24067450 0.67760897
v 1.57681859 2.20348048 0.67887378
v 1.57528985 2.20235443 0.71213436
v 0.16355768 3.79661059 0.70386648
v 1.47220588 2.31880426 0.71399021
v 0.82775950 3.06646371 0.71029758
v 1.50955808 2.28687906 0.71502900
v 0.13638026 3.83755636 0.70440602
v 0.38624820 3.99392629 0.72078228
v 1.69489634 2.51612020 0.73090601
v 1.03063786 3.24622488 0.72570848
v 1.72203684 2.47514701 0.73116899
v 0.34885895 4.02582407 0.72054625
v 0.16532947 3.79791546 0.66531944
v 1.47397757 2.32010913 0.67544293
v 0.67552686 3.24178600 0.66932535
v 1.51136684 2.28821135 0.67567921
v 0.13818900 3.83888865 0.66505647
v 0.38802001 3.99523139 0.68223524
v 1.69666815 2.51742506 0.69235897
v 0.87840515 3.42154694 0.68473625
v 1.72384560 2.47647905 0.69181943
v 0.35066766 4.02715635 0.68119645
v 1.80599642 2.37290263 0.69340038
v 1.60413110 2.19403887 0.67806649
v 1.59313047 2.21609569 0.67742181
v 1.78550971 2.38655424 0.69203520
v 1.71350265 2.27386975 0.68662882
v 1.80430794 2.37165880 0.73013616
v 1.60244238 2.19279504 0.71480203
v 1.59136081 2.21479249 0.71592307
v 1.78374004 2.38525081 0.73053646
v 1.71189034 2.27268219 0.72170472
v 0.25778335 4.12124062 0.68142343
v 0.05591788 3.94237661 0.66608930
v 0.07648578 3.92878461 0.66568923
v 0.26886499 4.09924364 0.68030238
v 0.14833553 4.04135323 0.67452073
v 0.25609484 4.11999702 0.71815920
v 0.05422937 3.94113278 0.70282507
v 0.07471601 3.92748141 0.70419002
v 0.26709524 4.09793997 0.71880364
v 0.14672321 4.04016542 0.70959663
v 0.38915455 3.99799037 0.71924448
v 0.39076063 3.99917316 0.68430400
v 1.69929242 2.51850176 0.72937965
v 1.70089853 2.51968455 0.69443917
v 0.29555982 4.09623814 0.71913218
v 1.04289079 3.25707388 0.72546887
v 0.31749013 4.06788635 0.72008705
v 0.29724506 4.09747934 0.68246913
v 0.89958274 3.42211771 0.68689871
v 0.31925848 4.06918859 0.68161678
v 0.26555973 4.12604046 0.69675064
v 0.28020117 4.10624313 0.68137813
v 0.25023276 4.12985134 0.68309188
v 0.27846053 4.10496140 0.71924615
v 0.24870220 4.12872410 0.71639037
v 1.78549242 2.41371393 0.73065853
v 1.75999653 2.43891883 0.73124623
v 1.78717756 2.41495514 0.69399548
v 1.76176476 2.44022131 0.69277596
v 1.81159782 2.38015866 0.70871067
v 1.79382241 2.39696860 0.69308734
v 1.81361890 2.36437917 0.69518638
v 1.79208183 2.39568663 0.73095560
v 1.81208837 2.36325169 0.72848487
v 0.15932734 3.79435110 0.70178628
v 0.16093341 3.79553390 0.66684580
v 1.46946514 2.31486225 0.71192145
v 1.47107124 2.31604528 0.67698121
v 0.07304825 3.89908051 0.70222998
v 0.81561369 3.05569410 0.70820475
v 0.09846096 3.87381458 0.70344925
v 0.07473350 3.90032172 0.66556692
v 0.67230576 3.22073793 0.66963458
v 0.10022929 3.87511683 0.66497898
v 0.04895960 3.93412137 0.68029714
v 0.06814399 3.91834903 0.66526985
v 0.04813747 3.95078397 0.66774058
v 0.06640336 3.91706705 0.70313811
v 0.04660693 3.94965672 0.70103908
v 1.56298089 2.21655655 0.71375608
v 1.54096746 2.24484706 0.71460867
v 1.56466603 2.21779752 0.67709327
v 1.54273558 2.24614954 0.67613840
v 1.59499788 2.18823934 0.69225740
v 1.58176529 2.20907426 0.67697930
v 1.61152363 2.18531156 0.67983484
v 1.58002460 2.20779228 0.71484733
v 1.60999310 2.18418431 0.71313334
v 1.52027106 2.29479766 0.71598291
v 0.14553009 3.84723997 0.70534778
v 1.71286929 2.46545029 0.73061275
v 0.33812833 4.01789284 0.71997762
v 1.66591454 2.32442021 0.72345901
v 0.19250517 3.98828483 0.71206093
v 1.52209747 2.29614305 0.67624760
v 0.14735655 3.84858537 0.66561246
v 1.71469581 2.46679544 0.69087768
v 0.33995479 4.01923800 0.68024254
v 1.66772068 2.32575059 0.68416476
v 0.19431135 3.98961544 0.67276645
f 1 47 44
f 1 44 43
f 1 43 45
f 1 45 46
f 1 46 47
f 2 49 52
f 6 72 70
f 12 102 99
f 11 96 95
f 8 79 81
f 4 62 59
f 4 59 58
f 4 58 60
f 4 60 61
f 4 61 62
f 5 66 65
f 3 54 57
f 7 73 77
f 9 85 86
f 10 92 88
f 12 101 98
f 6 69 68
f 2 50 48
f 8 82 78
f 11 97 93
f 6 71 69
f 12 100 101
f 11 94 97
f 8 80 82
f 2 51 50
f 10 90 89
f 5 63 64
f 3 55 53
f 7 76 74
f 9 87 84
f 10 91 90
f 5 67 63
f 3 56 55
f 7 75 76
f 9 83 87
f 6 68 72
f 2 48 49
f 8 78 79
f 11 93 96
f 12 98 102
f 10 88 91
f 5 65 67
f 3 57 56
f 7 77 75
f 9 86 83
f 5 64 66
f 3 53 54
f 7 74 73
f 9 84 85
f 10 89 92
f 6 70 71
f 12 99 100
f 11 95 94
f 8 81 80
f 2 52 51
f 35 109 116
f 18 105 108
f 19 111 106
f 40 114 112
f 42 117 115
f 34 125 119
f 33 152 156
f 25 137 139
f 36 158 160
f 20 123 120
f 32 143 149
f 23 127 132
f 24 135 128
f 37 147 145
f 41 150 148
f 34 153 155
f 33 140 133
f 25 138 134
f 36 159 157
f 20 122 124
f 17 107 47
f 14 103 44
f 13 104 43
f 15 110 45
f 16 113 46
f 18 118 49
f 35 154 72
f 42 141 102
f 40 162 96
f 19 121 79
f 30 142 62
f 27 129 59
f 22 130 58
f 28 144 60
f 29 146 61
f 32 151 66
f 23 131 54
f 24 136 73
f 37 161 85
f 41 126 92
f 35 116 101
f 18 108 69
f 19 106 50
f 40 112 82
f 42 115 97
f 34 119 71
f 33 156 100
f 25 139 94
f 36 160 80
f 20 120 51
f 32 149 90
f 23 132 63
f 24 128 55
f 37 145 76
f 41 148 87
f 34 155 91
f 33 133 67
f 25 134 56
f 36 157 75
f 20 124 83
f 14 109 68
f 13 105 48
f 15 111 78
f 16 114 93
f 17 117 98
f 21 125 88
f 31 152 65
f 26 137 57
f 38 158 77
f 39 123 86
f 27 143 64
f 22 127 53
f 28 135 74
f 29 147 84
f 30 150 89
f 31 153 70
f 26 140 99
f 38 138 95
f 39 159 81
f 21 122 52
f 14 107 109
f 13 103 105
f 15 104 111
f 16 110 114
f 17 113 117
f 21 118 125
f 31 154 152
f 26 141 137
f 38 162 158
f 39 121 123
f 27 142 143
f 22 129 127
f 28 130 135
f 29 144 147
f 30 146 150
f 31 151 153
f 26 131 140
f 38 136 138
f 39 161 159
f 21 126 122
f 14 44 107
f 13 43 103
f 15 45 104
f 16 46 110
f 17 47 113
f 21 52 118
f 31 70 154
f 26 99 141
f 38 95 162
f 39 81 121
f 27 59 142
f 22 58 129
f 28 60 130
f 29 61 144
f 30 62 146
f 31 65 151
f 26 57 131
f 38 77 136
f 39 86 161
f 21 88 126
f 17 98 116
f 14 68 108
f 13 48 106
f 15 78 112
f 16 93 115
f 18 69 119
f 35 101 156
f 42 97 139
f 40 82 160
f 19 50 120
f 30 89 149
f 27 64 132
f 22 53 128
f 28 74 145
f 29 84 148
f 32 90 155
f 23 63 133
f 24 55 134
f 37 76 157
f 41 87 124
f 35 72 109
f 18 49 105
f 19 79 111
f 40 96 114
f 42 102 117
f 34 91 125
f 33 67 152
f 25 56 137
f 36 75 158
f 20 83 123
f 32 66 143
f 23 54 127
f 24 73 135
f 37 85 147
f 41 92 150
f 34 71 153
f 33 100 140
f 25 94 138
f 36 80 159
f 20 51 122
f 17 116 107
f 14 108 103
f 13 106 104
f 15 112 110
f 16 115 113
f 18 119 118
f 35 156 154
f 42 139 141
f 40 160 162
f 19 120 121
f 30 149 142
f 27 132 129
f 22 128 130
f 28 145 144
f 29 148 146
f 32 155 151
f 23 133 131
f 24 134 136
f 37 157 161
f 41 124 126
f 107 44 47
f 103 43 44
f 104 45 43
f 110 46 45
f 113 47 46
f 118 52 49
f 154 70 72
f 141 99 102
f 162 95 96
f 121 81 79
f 142 59 62
f 129 58 59
f 130 60 58
f 144 61 60
f 146 62 61
f 151 65 66
f 131 57 54
f 136 77 73
f 161 86 85
f 126 88 92
f 116 98 101
f 108 68 69
f 106 48 50
f 112 78 82
f 115 93 97
f 119 69 71
f 156 101 100
f 139 97 94
f 160 82 80
f 120 50 51
f 149 89 90
f 132 64 63
f 128 53 55
f 145 74 76
f 148 84 87
f 155 90 91
f 133 63 67
f 134 55 56
f 157 76 75
f 124 87 83
f 109 72 68
f 105 49 48
f 111 79 78
f 114 96 93
f 117 102 98
f 125 91 88
f 152 67 65
f 137 56 57
f 158 75 77
f 123 83 86
f 143 66 64
f 127 54 53
f 135 73 74
f 147 85 84
f 150 92 89
f 153 71 70
f 140 100 99
f 138 94 95
f 159 80 81
f 122 51 52
f 107 116 109
f 103 108 105
f 104 106 111
f 110 112 114
f 113 115 117
f 118 119 125
f 154 156 152
f 141 139 137
f 162 160 158
f 121 120 123
f 142 149 143
f 129 132 127
f 130 128 135
f 144 145 147
f 146 148 150
f 151 155 153
f 131 133 140
f 136 134 138
f 161 157 159
f 126 124 122

