# https://github.com/mikedh/trimesh
v 0.89496857 1.44032037 0.13210559
v -1.15696323 3.68127012 0.09892559
v 0.88879186 1.43649268 0.25557661
v -1.16313982 3.67744231 0.22239685
v -0.15404509 2.54145670 0.23475051
v -0.14815859 2.54510450 0.11708212
v 0.08685081 2.33655405 0.24044967
v 0.09273732 2.34020185 0.12278104
v -1.19937599 3.74493575 0.16072702
v -1.22697759 3.71963000 0.15856194
v 0.95373654 1.39348447 0.19554305
v 0.92613482 1.36817896 0.19337773
v -0.13077852 2.56098056 0.11452246
v 0.82559115 1.48338330 0.13028026
v 0.85305482 1.50856233 0.13243484
v 0.95055813 1.40053380 0.13685918
v 0.92438489 1.37653792 0.13480592
v -1.12015021 3.60836077 0.09881735
v -1.09268641 3.63353992 0.10097194
v -1.19176888 3.74020600 0.10221767
v -1.21794212 3.71621037 0.10016418
v -0.13705598 2.55709076 0.24000645
v 0.81944525 1.47957468 0.25313258
v 0.84690905 1.50475395 0.25528717
v 0.94470102 1.39690447 0.25394034
v 0.91852784 1.37290859 0.25188708
v -1.12629604 3.60455227 0.22166991
v -1.09883213 3.62973118 0.22382450
v -1.19762599 3.73657656 0.21929860
v -1.22379923 3.71258044 0.21724558
v -0.15133797 2.54306412 0.17589784
v -1.17466342 3.65649772 0.21520448
v 0.86702275 1.42673743 0.24821877
v -1.16908157 3.65995693 0.10362530
v 0.87260455 1.43019652 0.13663960
v 0.09348545 2.33482075 0.18168974
v -1.14584577 3.68291831 0.21746492
v 0.89584047 1.45315766 0.25047946
v -1.14026392 3.68637705 0.10588598
v 0.90142226 1.45661676 0.13890028
v -1.22802544 3.75392985 0.15957260
v 0.96019071 1.36414158 0.19495606
v 0.82986164 1.51116753 0.13027883
v 0.86006552 1.44751430 0.13049579
v 0.88578975 1.47109866 0.13251376
v 0.93349314 1.41767883 0.13450909
v 0.90897769 1.39520288 0.13258576
v -1.09210074 3.61017561 0.09920049
v -1.15284538 3.64584899 0.09794664
v -1.12712109 3.66943336 0.09996486
v -1.17615950 3.72166634 0.10039592
v -1.20067489 3.69919062 0.09847260
v 0.82360840 1.50729263 0.25527668
v 0.85387999 1.44368136 0.25413990
v 0.87960434 1.46726573 0.25615788
v 0.92743379 1.41392410 0.25563192
v 0.90291834 1.39144790 0.25370884
v -1.09835386 3.60630083 0.22419834
v -1.15903091 3.64201593 0.22159100
v -1.13330650 3.66560030 0.22360897
v -1.18221879 3.71791172 0.22151875
v -1.20673430 3.69543552 0.21959567
v 0.75739741 1.54646635 0.25116229
v -1.06510234 3.53684974 0.22169232
v -0.15403776 2.54140806 0.23101020
v -1.11019301 3.58573723 0.21816874
v 0.80217427 1.49720824 0.24909163
v 0.76344949 1.55021667 0.13018346
v -1.05905032 3.54059982 0.10071349
v -0.14852414 2.54482460 0.12079453
v -1.10441852 3.58931565 0.10273767
v 0.80794877 1.50078654 0.13366079
v 0.78580922 1.57251465 0.25339127
v -1.03669059 3.56289768 0.22392130
v 0.08983762 2.33397126 0.23677945
v -1.08118975 3.61232805 0.22044396
v 0.83117747 1.52379882 0.25136685
v 0.79186130 1.57626510 0.13241243
v -1.03063846 3.56664848 0.10294223
v 0.09535126 2.33738780 0.12656403
v -1.07541513 3.61590648 0.10501289
v 0.83695203 1.52737713 0.13593602
v -1.19840503 3.74804354 0.10584927
v -1.20389116 3.74464417 0.21551442
v -1.18112957 3.72131324 0.21334457
v -1.17590117 3.72455311 0.10883260
v -1.21356535 3.75867605 0.16044307
v -1.22548187 3.72321916 0.10372519
v -1.23096788 3.71981931 0.21339059
v -1.20950770 3.69529605 0.21111822
v -1.20427942 3.69853592 0.10660648
v -1.23941851 3.73497319 0.15841508
v 0.95772684 1.39329493 0.14071417
v 0.95224071 1.38989520 0.25037932
v 0.93103826 1.41457868 0.24749827
v 0.93626654 1.41781867 0.14298654
v 0.96617746 1.37814140 0.19568968
v 0.93065006 1.36847067 0.13858986
v 0.92516392 1.36507094 0.24825525
v 0.90266013 1.38856113 0.24527216
v 0.90788847 1.39180112 0.14076042
v 0.94032419 1.35443854 0.19366169
v 0.76591283 1.55036247 0.12836623
v 0.79166633 1.57397377 0.13038635
v -1.05866146 3.54301143 0.09886241
v -1.03290784 3.56662273 0.10088277
v 0.89037502 1.41299021 0.13232780
v -0.14733315 2.54581833 0.11423445
v 0.85663730 1.44841623 0.13268757
v 0.91739810 1.43776500 0.13444781
v 0.08224510 2.35054231 0.11966586
v 0.88499254 1.47441268 0.13491201
v 0.94553399 1.38509965 0.13583398
v 0.93419534 1.42006958 0.13758898
v 0.96702856 1.38059711 0.14072323
v 0.90628386 1.39447999 0.13539934
v 0.94248533 1.35809529 0.13879776
v -1.18459177 3.67909670 0.09877539
v -1.15228117 3.64239025 0.10020328
v -1.15756881 3.70387149 0.10089564
v -1.12392581 3.66838694 0.10242772
v -1.20756876 3.73653984 0.10101819
v -1.17376184 3.72220588 0.10350323
v -1.21023405 3.75842261 0.10551691
v -1.20167339 3.69661617 0.10131359
v -1.23477733 3.73592114 0.10359144
v 0.75966674 1.54649198 0.25322175
v 0.78542030 1.57010317 0.25524235
v -1.06490743 3.53914070 0.22371840
v -1.03915393 3.56275201 0.22573853
v 0.88432771 1.40924263 0.25320935
v -0.15350986 2.54199052 0.23770499
v 0.85068476 1.44472766 0.25167704
v 0.91135073 1.43401778 0.25532937
v 0.07606838 2.34671474 0.24313617
v 0.87904000 1.47072423 0.25390148
v 0.93964750 1.38145185 0.25350380
v 0.92843229 1.41649830 0.25279117
v 0.96153623 1.37719345 0.25051332
v 0.90052080 1.39090872 0.25060153
v 0.93699294 1.35469186 0.24858809
v -1.19063914 3.67534947 0.21965694
v -1.15823364 3.63870192 0.21919274
v -1.16361606 3.70012450 0.22177696
v -1.12987828 3.66469836 0.22141719
v -1.21345532 3.73289204 0.21868825
v -1.17952502 3.71863437 0.21870518
v -1.21572638 3.75501919 0.21530676
v -1.20743644 3.69304490 0.21651578
v -1.24026966 3.73251748 0.21338177
v -1.11115360 3.58696318 0.21273994
v 0.80339062 1.49605668 0.24369812
v -1.10591924 3.59020686 0.10810900
v 0.80862498 1.49930024 0.13906717
v -1.17707968 3.66376877 0.15932608
v 0.87487602 1.42279267 0.19250631
v -1.08186603 3.61381459 0.21503735
v 0.83267820 1.52290797 0.24599576
v -1.07663167 3.61705780 0.11040664
v 0.83791250 1.52615142 0.14136481
v -1.14811718 3.69032192 0.16159821
v 0.90383846 1.44934607 0.19477844
f 1 47 44
f 1 44 43
f 1 43 45
f 1 45 46
f 1 46 47
f 2 49 52
f 6 72 70
f 12 102 99
f 11 96 95
f 8 79 81
f 4 62 59
f 4 59 58
f 4 58 60
f 4 60 61
f 4 61 62
f 5 66 65
f 3 54 57
f 7 73 77
f 9 85 86
f 10 92 88
f 12 101 98
f 6 69 68
f 2 50 48
f 8 82 78
f 11 97 93
f 6 71 69
f 12 100 101
f 11 94 97
f 8 80 82
f 2 51 50
f 10 90 89
f 5 63 64
f 3 55 53
f 7 76 74
f 9 87 84
f 10 91 90
f 5 67 63
f 3 56 55
f 7 75 76
f 9 83 87
f 6 68 72
f 2 48 49
f 8 78 79
f 11 93 96
f 12 98 102
f 10 88 91
f 5 65 67
f 3 57 56
f 7 77 75
f 9 86 83
f 5 64 66
f 3 53 54
f 7 74 73
f 9 84 85
f 10 89 92
f 6 70 71
f 12 99 100
f 11 95 94
f 8 81 80
f 2 52 51
f 35 109 116
f 18 105 108
f 19 111 106
f 40 114 112
f 42 117 115
f 34 125 119
f 33 152 156
f 25 137 139
f 36 158 160
f 20 123 120
f 32 143 149
f 23 127 132
f 24 135 128
f 37 147 145
f 41 150 148
f 34 153 155
f 33 140 133
f 25 138 134
f 36 159 157
f 20 122 124
f 17 107 47
f 14 103 44
f 13 104 43
f 15 110 45
f 16 113 46
f 18 118 49
f 35 154 72
f 42 141 102
f 40 162 96
f 19 121 79
f 30 142 62
f 27 129 59
f 22 130 58
f 28 144 60
f 29 146 61
f 32 151 66
f 23 131 54
f 24 136 73
f 37 161 85
f 41 126 92
f 35 116 101
f 18 108 69
f 19 106 50
f 40 112 82
f 42 115 97
f 34 119 71
f 33 156 100
f 25 139 94
f 36 160 80
f 20 120 51
f 32 149 90
f 23 132 63
f 24 128 55
f 37 145 76
f 41 148 87
f 34 155 91
f 33 133 67
f 25 134 56
f 36 157 75
f 20 124 83
f 14 109 68
f 13 105 48
f 15 111 78
f 16 114 93
f 17 117 98
f 21 125 88
f 31 152 65
f 26 137 57
f 38 158 77
f 39 123 86
f 27 143 64
f 22 127 53
f 28 135 74
f 29 147 84
f 30 150 89
f 31 153 70
f 26 140 99
f 38 138 95
f 39 159 81
f 21 122 52
f 14 107 109
f 13 103 105
f 15 104 111
f 16 110 114
f 17 113 117
f 21 118 125
f 31 154 152
f 26 141 137
f 38 162 158
f 39 121 123
f 27 142 143
f 22 129 127
f 28 130 135
f 29 144 147
f 30 146 150
f 31 151 153
f 26 131 140
f 38 136 138
f 39 161 159
f 21 126 122
f 14 44 107
f 13 43 103
f 15 45 104
f 16 46 110
f 17 47 113
f 21 52 118
f 31 70 154
f 26 99 141
f 38 95 162
f 39 81 121
f 27 59 142
f 22 58 129
f 28 60 130
f 29 61 144
f 30 62 146
f 31 65 151
f 26 57 131
f 38 77 136
f 39 86 161
f 21 88 126
f 17 98 116
f 14 68 108
f 13 48 106
f 15 78 112
f 16 93 115
f 18 69 119
f 35 101 156
f 42 97 139
f 40 82 160
f 19 50 120
f 30 89 149
f 27 64 132
f 22 53 128
f 28 74 145
f 29 84 148
f 32 90 155
f 23 63 133
f 24 55 134
f 37 76 157
f 41 87 124
f 35 72 109
f 18 49 105
f 19 79 111
f 40 96 114
f 42 102 117
f 34 91 125
f 33 67 152
f 25 56 137
f 36 75 158
f 20 83 123
f 32 66 143
f 23 54 127
f 24 73 135
f 37 85 147
f 41 92 150
f 34 71 153
f 33 100 140
f 25 94 138
f 36 80 159
f 20 51 122
f 17 116 107
f 14 108 103
f 13 106 104
f 15 112 110
f 16 115 113
f 18 119 118
f 35 156 154
f 42 139 141
f 40 160 162
f 19 120 121
f 30 149 142
f 27 132 129
f 22 128 130
f 28 145 144
f 29 148 146
f 32 155 151
f 23 133 131
f 24 134 136
f 37 157 161
f 41 124 126
f 107 44 47
f 103 43 44
f 104 45 43
f 110 46 45
f 113 47 46
f 118 52 49
f 154 70 72
f 141 99 102
f 162 95 96
f 121 81 79
f 142 59 62
f 129 58 59
f 130 60 58
f 144 61 60
f 146 62 61
f 151 65 66
f 131 57 54
f 136 77 73
f 161 86 85
f 126 88 92
f 116 98 101
f 108 68 69
f 106 48 50
f 112 78 82
f 115 93 97
f 119 69 71
f 156 101 100
f 139 97 94
f 160 82 80
f 120 50 51
f 149 89 90
f 132 64 63
f 128 53 55
f 145 74 76
f 148 84 87
f 155 90 91
f 133 63 67
f 134 55 56
f 157 76 75
f 124 87 83
f 109 72 68
f 105 49 48
f 111 79 78
f 114 96 93
f 117 102 98
f 125 91 88
f 152 67 65
f 137 56 57
f 158 75 77
f 123 83 86
f 143 66 64
f 127 54 53
f 135 73 74
f 147 85 84
f 150 92 89
f 153 71 70
f 140 100 99
f 138 94 95
f 159 80 81
f 122 51 52
f 107 116 109
f 103 108 105
f 104 106 111
f 110 112 114
f 113 115 117
f 118 119 125
f 154 156 152
f 141 139 137
f 162 160 158
f 121 120 123
f 142 149 143
f 129 132 127
f 130 128 135
f 144 145 147
f 146 148 150
f 151 155 153
f 131 133 140
f 136 134 138
f 161 157 159
f 126 124 122

