# https://github.com/mikedh/trimesh
v 0.47586483 0.71759528 0.81583762
v 0.90350181 0.69205296 0.89583182
v 0.46665409 0.62234783 0.83466411
v 0.89429104 0.59680551 0.91465855
v 0.67680520 0.61659580 0.89650738
v 0.68558317 0.70736724 0.87856555
v 0.63924724 0.61109626 0.85030901
v 0.64802510 0.70186776 0.83236706
v 0.91201121 0.64063406 0.89246106
v 0.90571147 0.64838934 0.92861450
v 0.46328735 0.66743594 0.80852222
v 0.45698762 0.67519134 0.84467566
v 0.68979686 0.70555335 0.85546076
v 0.48319453 0.72126639 0.83926141
v 0.48946276 0.71354979 0.80328846
v 0.46861526 0.71272868 0.80074167
v 0.46264157 0.72008258 0.83502424
v 0.88870066 0.69704586 0.91511595
v 0.89496893 0.68932933 0.87914288
v 0.91509134 0.68606102 0.88426018
v 0.90911758 0.69341493 0.91854262
v 0.68043590 0.60875291 0.87459421
v 0.47402990 0.62649608 0.85799372
v 0.48029813 0.61877948 0.82202077
v 0.45988119 0.62241042 0.81859410
v 0.45390749 0.62976438 0.85287654
v 0.87953603 0.60227555 0.93384826
v 0.88580430 0.59455901 0.89787531
v 0.90635717 0.59574282 0.90211248
v 0.90038353 0.60309672 0.93639493
v 0.68114030 0.66204780 0.88784575
v 0.88979977 0.60621679 0.93574572
v 0.46429807 0.63163161 0.85615063
v 0.89812344 0.69229072 0.91873229
v 0.47262174 0.71770561 0.83913720
v 0.64296997 0.65645862 0.84089410
v 0.89637703 0.59811980 0.89799953
v 0.47087535 0.62353468 0.81840432
v 0.90470064 0.68419379 0.88098598
v 0.47919899 0.70960855 0.80139112
v 0.91313618 0.64353371 0.90768111
v 0.45709661 0.67077255 0.82237387
v 0.48942840 0.71742052 0.81846488
v 0.47642320 0.72174543 0.83675241
v 0.48229444 0.71451753 0.80305791
v 0.47198167 0.71431714 0.80215621
v 0.46638638 0.72120529 0.83426738
v 0.88997889 0.69349599 0.89339232
v 0.89592803 0.69668877 0.91522563
v 0.90179920 0.68946093 0.88153112
v 0.91164804 0.68805617 0.88440084
v 0.90605277 0.69494444 0.91651189
v 0.48010370 0.62099516 0.83752429
v 0.46719953 0.62636447 0.85560548
v 0.47307077 0.61913657 0.82191098
v 0.46294603 0.62088090 0.82062483
v 0.45735073 0.62776923 0.85273588
v 0.88065422 0.59707057 0.91245186
v 0.88670439 0.60130781 0.93407869
v 0.89257556 0.59407997 0.90038419
v 0.90261239 0.59462005 0.90286934
v 0.89701712 0.60150826 0.93498051
v 0.48683381 0.62658489 0.86087406
v 0.86665559 0.60389858 0.93192410
v 0.67704237 0.61952090 0.89617383
v 0.87615955 0.60556203 0.93364012
v 0.47760865 0.62936717 0.85908675
v 0.49585861 0.71990985 0.84242749
v 0.87568033 0.69722337 0.91347742
v 0.68526435 0.70454293 0.87936842
v 0.88477051 0.69460732 0.91603947
v 0.48621967 0.71841246 0.84148598
v 0.49331844 0.61860204 0.82365930
v 0.87314016 0.59591556 0.89470923
v 0.63901973 0.61395323 0.84940398
v 0.88277912 0.59741294 0.89565074
v 0.48422828 0.62121803 0.82109725
v 0.50234324 0.71192682 0.80521274
v 0.88216501 0.68924052 0.87626266
v 0.64724171 0.69897532 0.83259857
v 0.89139009 0.68645817 0.87805009
v 0.49283928 0.71026337 0.80349660
v 0.91635633 0.68298787 0.88450289
v 0.90817535 0.59839034 0.90122449
v 0.90393490 0.60046881 0.89912224
v 0.91173130 0.68109089 0.88318658
v 0.91458666 0.64071399 0.89412510
v 0.91017640 0.69059569 0.91996884
v 0.90199548 0.60599810 0.93669045
v 0.89745802 0.60844225 0.93629289
v 0.90525442 0.68906444 0.92035711
v 0.90868592 0.64797807 0.92798865
v 0.46700329 0.70982730 0.80044627
v 0.45882237 0.62522972 0.81716788
v 0.46374434 0.62676096 0.81677961
v 0.47154078 0.70738316 0.80084395
v 0.46031284 0.66784734 0.80914807
v 0.46082339 0.71743506 0.83591223
v 0.45264250 0.63283747 0.85263383
v 0.45726743 0.63473445 0.85395014
v 0.46506387 0.71535647 0.83801448
v 0.45441216 0.67511141 0.84301162
v 0.49609041 0.72104472 0.84035051
v 0.50196826 0.71380866 0.80661774
v 0.87634450 0.69833255 0.91148126
v 0.88222241 0.69109643 0.87774849
v 0.46970552 0.72124851 0.83660412
v 0.68595487 0.70941389 0.87723196
v 0.47636542 0.72029501 0.83890831
v 0.47587317 0.71365571 0.80120850
v 0.65016139 0.70417273 0.83320415
v 0.48283717 0.71232784 0.80176759
v 0.46513456 0.71595246 0.81414390
v 0.47232500 0.71154571 0.80041647
v 0.46451691 0.71036285 0.80168414
v 0.46595460 0.71938819 0.83697581
v 0.45891526 0.71725881 0.83383167
v 0.90214324 0.69541949 0.91749644
v 0.89503813 0.69528800 0.91722584
v 0.90831089 0.68782669 0.88210082
v 0.90150988 0.68732095 0.88008511
v 0.91385639 0.68915075 0.89808249
v 0.91163814 0.68530601 0.88259506
v 0.91827369 0.68326038 0.88656449
v 0.90526766 0.69314831 0.91915441
v 0.91267204 0.69015646 0.91871214
v 0.48677635 0.62472898 0.85938823
v 0.49265426 0.61749285 0.82565546
v 0.86703050 0.60201675 0.93051910
v 0.87290835 0.59478068 0.89678621
v 0.46068794 0.62799871 0.85503590
v 0.67674404 0.61416680 0.89605856
v 0.46748894 0.62850446 0.85705161
v 0.46685559 0.62040591 0.81964028
v 0.64095062 0.60892564 0.85203063
v 0.47396064 0.62053740 0.81991088
v 0.45635659 0.62517989 0.83208621
v 0.46373111 0.62267703 0.81798232
v 0.45632675 0.62566894 0.81842458
v 0.45736066 0.63051939 0.85454166
v 0.45072505 0.63256496 0.85057223
v 0.89312559 0.60216957 0.93592834
v 0.88616163 0.60349756 0.93536901
v 0.89929324 0.59457690 0.90053260
v 0.89263338 0.59553039 0.89822841
v 0.90507841 0.59837812 0.91602468
v 0.90304416 0.59643722 0.90016091
v 0.91008353 0.59856659 0.90330493
v 0.89667380 0.60427958 0.93672025
v 0.90448183 0.60546249 0.93545270
v 0.87675667 0.60975409 0.93304539
v 0.47775221 0.63358641 0.85840702
v 0.88456208 0.69046795 0.91709149
v 0.48555759 0.71430022 0.84245312
v 0.89501518 0.64921021 0.92753398
v 0.46737325 0.67475289 0.84753871
v 0.88344127 0.60152519 0.89468360
v 0.48443672 0.62535745 0.82004523
v 0.89124656 0.68223900 0.87872970
v 0.49224207 0.70607126 0.80409145
v 0.90162557 0.64107245 0.88959801
v 0.47398359 0.66661519 0.80960274
f 1 47 44
f 1 44 43
f 1 43 45
f 1 45 46
f 1 46 47
f 2 49 52
f 6 72 70
f 12 102 99
f 11 96 95
f 8 79 81
f 4 62 59
f 4 59 58
f 4 58 60
f 4 60 61
f 4 61 62
f 5 66 65
f 3 54 57
f 7 73 77
f 9 85 86
f 10 92 88
f 12 101 98
f 6 69 68
f 2 50 48
f 8 82 78
f 11 97 93
f 6 71 69
f 12 100 101
f 11 94 97
f 8 80 82
f 2 51 50
f 10 90 89
f 5 63 64
f 3 55 53
f 7 76 74
f 9 87 84
f 10 91 90
f 5 67 63
f 3 56 55
f 7 75 76
f 9 83 87
f 6 68 72
f 2 48 49
f 8 78 79
f 11 93 96
f 12 98 102
f 10 88 91
f 5 65 67
f 3 57 56
f 7 77 75
f 9 86 83
f 5 64 66
f 3 53 54
f 7 74 73
f 9 84 85
f 10 89 92
f 6 70 71
f 12 99 100
f 11 95 94
f 8 81 80
f 2 52 51
f 35 109 116
f 18 105 108
f 19 111 106
f 40 114 112
f 42 117 115
f 34 125 119
f 33 152 156
f 25 137 139
f 36 158 160
f 20 123 120
f 32 143 149
f 23 127 132
f 24 135 128
f 37 147 145
f 41 150 148
f 34 153 155
f 33 140 133
f 25 138 134
f 36 159 157
f 20 122 124
f 17 107 47
f 14 103 44
f 13 104 43
f 15 110 45
f 16 113 46
f 18 118 49
f 35 154 72
f 42 141 102
f 40 162 96
f 19 121 79
f 30 142 62
f 27 129 59
f 22 130 58
f 28 144 60
f 29 146 61
f 32 151 66
f 23 131 54
f 24 136 73
f 37 161 85
f 41 126 92
f 35 116 101
f 18 108 69
f 19 106 50
f 40 112 82
f 42 115 97
f 34 119 71
f 33 156 100
f 25 139 94
f 36 160 80
f 20 120 51
f 32 149 90
f 23 132 63
f 24 128 55
f 37 145 76
f 41 148 87
f 34 155 91
f 33 133 67
f 25 134 56
f 36 157 75
f 20 124 83
f 14 109 68
f 13 105 48
f 15 111 78
f 16 114 93
f 17 117 98
f 21 125 88
f 31 152 65
f 26 137 57
f 38 158 77
f 39 123 86
f 27 143 64
f 22 127 53
f 28 135 74
f 29 147 84
f 30 150 89
f 31 153 70
f 26 140 99
f 38 138 95
f 39 159 81
f 21 122 52
f 14 107 109
f 13 103 105
f 15 104 111
f 16 110 114
f 17 113 117
f 21 118 125
f 31 154 152
f 26 141 137
f 38 162 158
f 39 121 123
f 27 142 143
f 22 129 127
f 28 130 135
f 29 144 147
f 30 146 150
f 31 151 153
f 26 131 140
f 38 136 138
f 39 161 159
f 21 126 122
f 14 44 107
f 13 43 103
f 15 45 104
f 16 46 110
f 17 47 113
f 21 52 118
f 31 70 154
f 26 99 141
f 38 95 162
f 39 81 121
f 27 59 142
f 22 58 129
f 28 60 130
f 29 61 144
f 30 62 146
f 31 65 151
f 26 57 131
f 38 77 136
f 39 86 161
f 21 88 126
f 17 98 116
f 14 68 108
f 13 48 106
f 15 78 112
f 16 93 115
f 18 69 119
f 35 101 156
f 42 97 139
f 40 82 160
f 19 50 120
f 30 89 149
f 27 64 132
f 22 53 128
f 28 74 145
f 29 84 148
f 32 90 155
f 23 63 133
f 24 55 134
f 37 76 157
f 41 87 124
f 35 72 109
f 18 49 105
f 19 79 111
f 40 96 114
f 42 102 117
f 34 91 125
f 33 67 152
f 25 56 137
f 36 75 158
f 20 83 123
f 32 66 143
f 23 54 127
f 24 73 135
f 37 85 147
f 41 92 150
f 34 71 153
f 33 100 140
f 25 94 138
f 36 80 159
f 20 51 122
f 17 116 107
f 14 108 103
f 13 106 104
f 15 112 110
f 16 115 113
f 18 119 118
f 35 156 154
f 42 139 141
f 40 160 162
f 19 120 121
f 30 149 142
f 27 132 129
f 22 128 130
f 28 145 144
f 29 148 146
f 32 155 151
f 23 133 131
f 24 134 136
f 37 157 161
f 41 124 126
f 107 44 47
f 103 43 44
f 104 45 43
f 110 46 45
f 113 47 46
f 118 52 49
f 154 70 72
f 141 99 102
f 162 95 96
f 121 81 79
f 142 59 62
f 129 58 59
f 130 60 58
f 144 61 60
f 146 62 61
f 151 65 66
f 131 57 54
f 136 77 73
f 161 86 85
f 126 88 92
f 116 98 101
f 108 68 69
f 106 48 50
f 112 78 82
f 115 93 97
f 119 69 71
f 156 101 100
f 139 97 94
f 160 82 80
f 120 50 51
f 149 89 90
f 132 64 63
f 128 53 55
f 145 74 76
f 148 84 87
f 155 90 91
f 133 63 67
f 134 55 56
f 157 76 75
f 124 87 83
f 109 72 68
f 105 49 48
f 111 79 78
f 114 96 93
f 117 102 98
f 125 91 88
f 152 67 65
f 137 56 57
f 158 75 77
f 123 83 86
f 143 66 64
f 127 54 53
f 135 73 74
f 147 85 84
f 150 92 89
f 153 71 70
f 140 100 99
f 138 94 95
f 159 80 81
f 122 51 52
f 107 116 109
f 103 108 105
f 104 106 111
f 110 112 114
f 113 115 117
f 118 119 125
f 154 156 152
f 141 139 137
f 162 160 158
f 121 120 123
f 142 149 143
f 129 132 127
f 130 128 135
f 144 145 147
f 146 148 150
f 151 155 153
f 131 133 140
f 136 134 138
f 161 157 159
f 126 124 122

