# https://github.com/mikedh/trimesh
v 0.89363134 1.07303202 0.92501855
v 1.03366649 0.72117507 0.91385603
v 0.62739128 0.96841091 0.88279867
v 0.76742631 0.61655390 0.87163615
v 0.70077538 0.79306537 0.90107536
v 0.95450407 0.89277011 0.94131124
v 0.69122940 0.83259857 0.86330903
v 0.94495815 0.93230337 0.90354490
v 0.90591174 0.66143101 0.87733209
v 0.90122539 0.65838915 0.91442251
v 0.75897157 1.03063810 0.88904500
v 0.75428510 1.02759624 0.92613530
v 0.96584791 0.89797497 0.91955519
v 0.89382613 1.06187272 0.94648278
v 0.89848918 1.06489944 0.90957773
v 0.88544929 1.07923818 0.90999281
v 0.88100541 1.07635379 0.94516361
v 1.02661431 0.72822493 0.93589818
v 1.03127730 0.73125154 0.89899290
v 1.03165340 0.71188045 0.89833868
v 1.02720940 0.70899600 0.93350959
v 0.69526702 0.79164815 0.87664700
v 0.62891972 0.95777565 0.90447450
v 0.63358271 0.96080232 0.86756933
v 0.63298744 0.98003125 0.86995780
v 0.62854356 0.97714680 0.90512884
v 0.76170778 0.62412786 0.89388978
v 0.76637077 0.62715447 0.85698450
v 0.77919155 0.61267352 0.85830379
v 0.77474773 0.60978913 0.89347458
v 0.82759964 0.84289169 0.92151058
v 0.77702093 0.62060320 0.89646578
v 0.63768512 0.97070336 0.90757239
v 1.01761889 0.71514809 0.93461931
v 0.87828302 1.06524813 0.94572592
v 0.81789798 0.88306963 0.88312852
v 0.78191394 0.62377906 0.85774148
v 0.64257795 0.97387922 0.86884809
v 1.02251184 0.71832389 0.89589500
v 0.88317591 1.06842399 0.90700173
v 0.90522540 0.65719837 0.89214921
v 0.75588948 1.03242481 0.90405309
v 0.89968544 1.06251800 0.92514193
v 0.89253527 1.06806302 0.94563210
v 0.89690298 1.07089794 0.91106451
v 0.89078110 1.07805765 0.91170883
v 0.88661873 1.07535589 0.94465196
v 1.03085077 0.73294765 0.91468644
v 1.02990735 0.72289723 0.93468189
v 1.03427505 0.72573209 0.90011430
v 1.03475535 0.71630293 0.90023243
v 1.03059292 0.71360123 0.93317556
v 0.63015246 0.95660293 0.88239968
v 0.62592191 0.96329516 0.90335298
v 0.63028961 0.96613008 0.86878550
v 0.62960404 0.97542608 0.87029183
v 0.62544155 0.97272432 0.90323496
v 0.76131767 0.62703258 0.87194443
v 0.76329392 0.61812931 0.89240289
v 0.76766163 0.62096423 0.85783541
v 0.77357823 0.61367136 0.85881543
v 0.76941580 0.61096972 0.89175856
v 0.63506472 0.94795084 0.90509653
v 0.75944209 0.63543594 0.89518225
v 0.70878053 0.79620332 0.90259039
v 0.76843971 0.63004863 0.89628363
v 0.63792920 0.95797372 0.90668690
v 0.89593083 1.05046022 0.94646430
v 1.02030814 0.73794532 0.93654990
v 0.94643801 0.88959271 0.94027770
v 1.01734328 0.72785735 0.93575430
v 0.88683295 1.05578244 0.94615757
v 0.63988870 0.95108199 0.86691749
v 0.76426607 0.63856697 0.85700309
v 0.69911647 0.83622557 0.86435688
v 0.77336407 0.63324493 0.85730994
v 0.64285368 0.96116996 0.86771309
v 0.90075481 1.05359137 0.90828514
v 1.02513206 0.74107641 0.89837086
v 0.93677396 0.92961484 0.90204418
v 1.02226770 0.73105353 0.89678049
v 0.89175731 1.05897856 0.90718377
v 1.02420568 0.70760477 0.89642620
v 0.78773469 0.61468160 0.85892701
v 0.79190123 0.62070608 0.85905337
v 1.01725984 0.70926243 0.89479029
v 0.90667206 0.65905148 0.87843442
v 1.01960838 0.70462090 0.93281126
v 0.78313738 0.61169767 0.89531207
v 0.78708297 0.61757869 0.89718699
v 1.01244164 0.70613521 0.93292403
v 0.90228248 0.65620226 0.91317546
v 0.87705952 1.07732964 0.90815544
v 0.64058840 0.98440641 0.87065625
v 0.64775527 0.98289210 0.87054348
v 0.87311393 1.07144856 0.90628040
v 0.75791448 1.03282499 0.89029205
v 0.87246227 1.07434571 0.94454038
v 0.63599122 0.98142248 0.90704119
v 0.64293706 0.97976476 0.90867710
v 0.86829573 1.06832123 0.94441402
v 0.75352484 1.02997589 0.92503309
v 0.90026581 1.05242717 0.94534671
v 0.90463847 1.05526531 0.91073978
v 1.02478480 0.73955655 0.93542099
v 1.02915752 0.74239463 0.90081406
v 0.88732898 1.07214153 0.94620121
v 0.96087468 0.89530301 0.94138896
v 0.88743001 1.06560373 0.94659317
v 0.89191723 1.07511961 0.90988839
v 0.95177716 0.93297899 0.90539694
v 0.89224434 1.06872869 0.90849018
v 0.88394618 1.07926250 0.92413402
v 0.88474369 1.07559097 0.90841019
v 0.87625808 1.07905459 0.90993643
v 0.88000470 1.07251501 0.94591689
v 0.87209082 1.07634985 0.94291699
v 1.02893627 0.71633470 0.93491352
v 1.02452958 0.72112262 0.93566477
v 1.03352439 0.71931267 0.89860058
v 1.02934408 0.72424734 0.89756179
v 1.03088570 0.71005696 0.91242123
v 1.02860236 0.71412688 0.89694297
v 1.02484632 0.70570642 0.89809227
v 1.02386332 0.71105093 0.93444967
v 1.02067924 0.70300162 0.93107283
v 0.63103944 0.94663262 0.90265334
v 0.63541216 0.94947076 0.86804640
v 0.75555843 0.63376194 0.89272773
v 0.75993115 0.63660002 0.85812080
v 0.62667257 0.96971452 0.90486681
v 0.69463581 0.79068238 0.89916921
v 0.63085288 0.96477985 0.90590560
v 0.63126075 0.97269261 0.86855400
v 0.68553823 0.82835823 0.86317718
v 0.63566732 0.96790469 0.86780274
v 0.63021451 0.97955656 0.88389766
v 0.63633370 0.97797638 0.86901772
v 0.63951778 0.98602563 0.87239456
v 0.63159466 0.97490042 0.90652442
v 0.63535058 0.98332089 0.90537524
v 0.76827973 0.61390764 0.89357901
v 0.76795256 0.62029856 0.89497721
v 0.77286792 0.61688572 0.85726619
v 0.77276689 0.62342346 0.85687423
v 0.77715403 0.61035120 0.87218487
v 0.78019220 0.61651224 0.85755050
v 0.78810602 0.61267745 0.86055040
v 0.77545321 0.61343634 0.89505732
v 0.78393894 0.60997272 0.89353108
v 0.78013408 0.63442206 0.89831519
v 0.64947504 0.96272039 0.90873027
v 1.00574911 0.72307920 0.93409288
v 0.87509018 1.05137753 0.94450796
v 0.89765811 0.66698718 0.91561198
v 0.75762135 1.01884830 0.92677450
v 0.78510672 0.63764971 0.85895944
v 0.65444767 0.96594799 0.86937451
v 1.01072168 0.72630692 0.89473712
v 0.88006288 1.05460525 0.90515220
v 0.90257549 0.67017901 0.87669301
v 0.76253891 1.02204013 0.88785541
f 1 47 44
f 1 44 43
f 1 43 45
f 1 45 46
f 1 46 47
f 2 49 52
f 6 72 70
f 12 102 99
f 11 96 95
f 8 79 81
f 4 62 59
f 4 59 58
f 4 58 60
f 4 60 61
f 4 61 62
f 5 66 65
f 3 54 57
f 7 73 77
f 9 85 86
f 10 92 88
f 12 101 98
f 6 69 68
f 2 50 48
f 8 82 78
f 11 97 93
f 6 71 69
f 12 100 101
f 11 94 97
f 8 80 82
f 2 51 50
f 10 90 89
f 5 63 64
f 3 55 53
f 7 76 74
f 9 87 84
f 10 91 90
f 5 67 63
f 3 56 55
f 7 75 76
f 9 83 87
f 6 68 72
f 2 48 49
f 8 78 79
f 11 93 96
f 12 98 102
f 10 88 91
f 5 65 67
f 3 57 56
f 7 77 75
f 9 86 83
f 5 64 66
f 3 53 54
f 7 74 73
f 9 84 85
f 10 89 92
f 6 70 71
f 12 99 100
f 11 95 94
f 8 81 80
f 2 52 51
f 35 109 116
f 18 105 108
f 19 111 106
f 40 114 112
f 42 117 115
f 34 125 119
f 33 152 156
f 25 137 139
f 36 158 160
f 20 123 120
f 32 143 149
f 23 127 132
f 24 135 128
f 37 147 145
f 41 150 148
f 34 153 155
f 33 140 133
f 25 138 134
f 36 159 157
f 20 122 124
f 17 107 47
f 14 103 44
f 13 104 43
f 15 110 45
f 16 113 46
f 18 118 49
f 35 154 72
f 42 141 102
f 40 162 96
f 19 121 79
f 30 142 62
f 27 129 59
f 22 130 58
f 28 144 60
f 29 146 61
f 32 151 66
f 23 131 54
f 24 136 73
f 37 161 85
f 41 126 92
f 35 116 101
f 18 108 69
f 19 106 50
f 40 112 82
f 42 115 97
f 34 119 71
f 33 156 100
f 25 139 94
f 36 160 80
f 20 120 51
f 32 149 90
f 23 132 63
f 24 128 55
f 37 145 76
f 41 148 87
f 34 155 91
f 33 133 67
f 25 134 56
f 36 157 75
f 20 124 83
f 14 109 68
f 13 105 48
f 15 111 78
f 16 114 93
f 17 117 98
f 21 125 88
f 31 152 65
f 26 137 57
f 38 158 77
f 39 123 86
f 27 143 64
f 22 127 53
f 28 135 74
f 29 147 84
f 30 150 89
f 31 153 70
f 26 140 99
f 38 138 95
f 39 159 81
f 21 122 52
f 14 107 109
f 13 103 105
f 15 104 111
f 16 110 114
f 17 113 117
f 21 118 125
f 31 154 152
f 26 141 137
f 38 162 158
f 39 121 123
f 27 142 143
f 22 129 127
f 28 130 135
f 29 144 147
f 30 146 150
f 31 151 153
f 26 131 140
f 38 136 138
f 39 161 159
f 21 126 122
f 14 44 107
f 13 43 103
f 15 45 104
f 16 46 110
f 17 47 113
f 21 52 118
f 31 70 154
f 26 99 141
f 38 95 162
f 39 81 121
f 27 59 142
f 22 58 129
f 28 60 130
f 29 61 144
f 30 62 146
f 31 65 151
f 26 57 131
f 38 77 136
f 39 86 161
f 21 88 126
f 17 98 116
f 14 68 108
f 13 48 106
f 15 78 112
f 16 93 115
f 18 69 119
f 35 101 156
f 42 97 139
f 40 82 160
f 19 50 120
f 30 89 149
f 27 64 132
f 22 53 128
f 28 74 145
f 29 84 148
f 32 90 155
f 23 63 133
f 24 55 134
f 37 76 157
f 41 87 124
f 35 72 109
f 18 49 105
f 19 79 111
f 40 96 114
f 42 102 117
f 34 91 125
f 33 67 152
f 25 56 137
f 36 75 158
f 20 83 123
f 32 66 143
f 23 54 127
f 24 73 135
f 37 85 147
f 41 92 150
f 34 71 153
f 33 100 140
f 25 94 138
f 36 80 159
f 20 51 122
f 17 116 107
f 14 108 103
f 13 106 104
f 15 112 110
f 16 115 113
f 18 119 118
f 35 156 154
f 42 139 141
f 40 160 162
f 19 120 121
f 30 149 142
f 27 132 129
f 22 128 130
f 28 145 144
f 29 148 146
f 32 155 151
f 23 133 131
f 24 134 136
f 37 157 161
f 41 124 126
f 107 44 47
f 103 43 44
f 104 45 43
f 110 46 45
f 113 47 46
f 118 52 49
f 154 70 72
f 141 99 102
f 162 95 96
f 121 81 79
f 142 59 62
f 129 58 59
f 130 60 58
f 144 61 60
f 146 62 61
f 151 65 66
f 131 57 54
f 136 77 73
f 161 86 85
f 126 88 92
f 116 98 101
f 108 68 69
f 106 48 50
f 112 78 82
f 115 93 97
f 119 69 71
f 156 101 100
f 139 97 94
f 160 82 80
f 120 50 51
f 149 89 90
f 132 64 63
f 128 53 55
f 145 74 76
f 148 84 87
f 155 90 91
f 133 63 67
f 134 55 56
f 157 76 75
f 124 87 83
f 109 72 68
f 105 49 48
f 111 79 78
f 114 96 93
f 117 102 98
f 125 91 88
f 152 67 65
f 137 56 57
f 158 75 77
f 123 83 86
f 143 66 64
f 127 54 53
f 135 73 74
f 147 85 84
f 150 92 89
f 153 71 70
f 140 100 99
f 138 94 95
f 159 80 81
f 122 51 52
f 107 116 109
f 103 108 105
f 104 106 111
f 110 112 114
f 113 115 117
f 118 119 125
f 154 156 152
f 141 139 137
f 162 160 158
f 121 120 123
f 142 149 143
f 129 132 127
f 130 128 135
f 144 145 147
f 146 148 150
f 151 155 153
f 131 133 140
f 136 134 138
f 161 157 159
f 126 124 122

