# Created by Open3D 
# object name: part_028
# number of vertices: 162
# number of triangles: 320
v -0.637174 4.58313 0.544781
vn 0.927496 -0.298372 0.225225
v -0.645883 4.56441 0.549909
vn 0.785558 -0.346439 0.512717
v -0.643157 4.56339 0.539304
vn 0.905851 -0.409252 0.109302
v -0.635593 4.58331 0.530684
vn 0.956301 -0.291587 -0.0215868
v -0.632936 4.59675 0.541414
vn 0.983266 -0.1313 0.126284
v -0.636143 4.59621 0.551919
vn 0.827148 -0.201242 0.524718
v -0.645937 4.61379 0.102547
vn 0.917077 -0.261924 -0.300609
v -0.651753 4.59346 0.10548
vn 0.899717 -0.387791 -0.20032
v -0.654892 4.59593 0.0952341
vn 0.763782 -0.270271 -0.586166
v -0.655618 4.57861 0.322567
vn -0.24681 -0.967069 -0.062143
v -0.654359 4.56515 0.528758
vn -0.265976 -0.962114 -0.0599503
v -0.665069 4.58122 0.322935
vn -0.289462 -0.955277 -0.060481
v -0.798835 4.60839 0.560695
vn -0.281585 -0.947445 0.151846
v -0.79843 4.60932 0.563636
vn -0.0521378 -0.299812 0.952572
v -0.936736 4.65063 0.566683
vn -0.275309 -0.915824 0.292355
v -0.787868 4.64419 0.562959
vn 0.28994 0.918216 0.269842
v -0.656275 4.60504 0.553203
vn 0.294301 0.944126 0.148365
v -0.919328 4.68495 0.563954
vn 0.291641 0.944935 0.148471
v -0.643206 4.613 0.370618
vn 0.337285 0.939586 0.058446
v -0.643946 4.62816 0.128356
vn 0.399196 0.915234 0.0546775
v -0.651002 4.63134 0.118981
vn 0.318362 0.946189 0.0580619
v -0.956709 4.70818 0.115248
vn -0.927496 0.298372 -0.225224
v -0.959755 4.68853 0.107694
vn -0.8265 0.212783 -0.521173
v -0.962961 4.68799 0.118199
vn -0.975523 0.181818 -0.123684
v -0.958417 4.70759 0.129319
vn -0.956301 0.291587 0.0215867
v -0.952741 4.72135 0.120309
vn -0.883986 0.455387 -0.105786
v -0.950014 4.72033 0.109705
vn -0.779525 0.356693 -0.51489
v -0.951786 4.66857 0.334671
vn -0.337283 -0.939587 -0.0584461
v -0.953062 4.68197 0.128476
vn -0.318539 -0.945962 -0.06073
v -0.942478 4.66549 0.334273
vn -0.295274 -0.953511 -0.0602436
v -0.947946 4.67753 0.557482
vn -0.917077 0.261923 0.30061
v -0.954365 4.65792 0.552023
vn -0.969387 0.160358 0.185941
v -0.950746 4.65702 0.562368
vn -0.804727 0.136613 0.577713
v -0.939374 4.70297 0.382723
vn 0.24681 0.967069 0.062143
v -0.940663 4.69343 0.533588
vn 0.180107 0.981466 0.0654734
v -0.933372 4.69102 0.543011
vn 0.265845 0.961937 0.0632717
v -0.797063 4.67635 0.0989181
vn 0.281585 0.947445 -0.151846
v -0.928348 4.7165 0.108738
vn 0.288142 0.957175 -0.0281096
v -0.665295 4.6366 0.0979867
vn 0.290803 0.956367 -0.0282074
v -0.808029 4.64055 0.096654
vn -0.28994 -0.918215 -0.269843
v -0.807739 4.64189 0.0938559
vn -0.0904725 -0.165719 -0.982014
v -0.669919 4.59899 0.0907096
vn -0.272532 -0.872526 -0.405493
v -0.66755 4.56824 0.550876
vn -0.288142 -0.957175 0.0281099
v -0.660712 4.56678 0.555401
vn -0.25872 -0.92086 0.291687
v -0.655234 4.59131 0.126025
vn -0.180992 -0.98131 -0.0653595
v -0.647452 4.56409 0.518812
vn -0.180965 -0.981436 -0.0635186
v -0.641532 4.62682 0.10759
vn 0.977161 -0.109943 -0.181849
v -0.643801 4.61202 0.116461
vn 0.955608 -0.289164 -0.0565517
v -0.642836 4.60277 0.531137
vn 0.318747 0.945868 0.0611102
v -0.636163 4.60093 0.521143
vn 0.400771 0.914437 0.0564553
v -0.788159 4.64285 0.565757
vn 0.117974 0.259418 0.958533
v -0.649954 4.6019 0.557623
vn 0.289123 0.867491 0.404806
v -0.662526 4.59372 0.116602
vn -0.266041 -0.961909 -0.0628752
v -0.930603 4.64814 0.561626
vn -0.290803 -0.956367 0.0282079
v -0.925978 4.68574 0.568904
vn 0.272532 0.872526 0.405492
v -0.652503 4.61605 0.371581
vn 0.295274 0.953511 0.0602436
v -0.645152 4.62772 0.097245
vn 0.805264 -0.12469 -0.579657
v -0.939623 4.6797 0.10641
vn -0.294301 -0.944126 -0.148365
v -0.945944 4.68284 0.101991
vn -0.289123 -0.86749 -0.404806
v -0.951951 4.65658 0.531257
vn -0.399912 -0.914927 -0.05457
v -0.959734 4.6838 0.13847
vn -0.399941 -0.914803 -0.0564115
v -0.944145 4.69128 0.554134
vn -0.877883 0.434025 0.202347
v -0.95021 4.67888 0.543542
vn -0.955608 0.289164 0.0565526
v -0.941538 4.71959 0.130855
vn 0.266114 0.96206 0.0601986
v -0.948446 4.72065 0.140801
vn 0.181739 0.98129 0.0635652
v -0.797467 4.67542 0.0959767
vn 0.0808025 0.38946 -0.917492
v -0.935186 4.71796 0.104212
vn 0.25872 0.92086 -0.291687
v -0.67657 4.59979 0.0956589
vn -0.291641 -0.944935 -0.148471
v -0.944895 4.6534 0.540632
vn -0.318487 -0.946163 -0.0578025
v -0.941005 4.68881 0.564379
vn -0.757645 0.280142 0.589487
v -0.929912 4.70031 0.382919
vn 0.289462 0.955277 0.060481
v -0.659161 4.63411 0.0929306
vn 0.275309 0.915824 -0.292354
v -0.658893 4.56578 0.542899
vn -0.287101 -0.957401 -0.0309332
v -0.649546 4.56349 0.539006
vn -0.203162 -0.978739 -0.0282061
v -0.654013 4.56449 0.549891
vn -0.223653 -0.973478 0.0481638
v -0.652951 4.59213 0.112687
vn 0.0354949 -0.996263 -0.0787455
v -0.649832 4.59157 0.125711
vn 0.913614 -0.403543 -0.0496218
v -0.648046 4.57727 0.322324
vn 0.0433903 -0.996607 -0.0699411
v -0.64204 4.62775 0.11494
vn 0.589128 0.807209 0.0366328
v -0.636217 4.61005 0.368118
vn 0.594634 0.802799 0.0438649
v -0.639599 4.62497 0.127824
vn 0.993736 -0.107438 -0.030769
v -0.647444 4.60315 0.545263
vn 0.297373 0.950535 0.0897391
v -0.642923 4.60069 0.552181
vn 0.356149 0.919224 0.167886
v -0.63828 4.60027 0.541332
vn 0.378778 0.920909 0.0919412
v -0.792202 4.62953 0.565832
vn 0.0197627 -0.069139 0.997411
v -0.660006 4.56822 0.557776
vn 0.0270038 -0.13087 0.991032
v -0.650255 4.60005 0.559789
vn 0.0628043 -0.0135279 0.997934
v -0.667612 4.59628 0.102873
vn -0.288275 -0.953298 -0.0901099
v -0.663014 4.59598 0.095582
vn -0.228052 -0.958137 -0.173104
v -0.658124 4.5935 0.106041
vn -0.204565 -0.973828 -0.0990606
v -0.939735 4.65109 0.554377
vn -0.2962 -0.954637 -0.0305601
v -0.931355 4.64907 0.540299
vn -0.29294 -0.954318 -0.0588574
v -0.799321 4.60826 0.549738
vn -0.291676 -0.955999 -0.0314738
v -0.93552 4.6881 0.56776
vn -0.237686 0.490514 0.838392
v -0.94038 4.67472 0.568097
vn -0.402708 0.0656232 0.912973
v -0.926593 4.68399 0.571083
vn 0.0150352 0.000982518 0.999886
v -0.791181 4.65824 0.377435
vn 0.292369 0.954399 0.0603626
v -0.919719 4.68706 0.542702
vn 0.291804 0.95445 0.0622599
v -0.656366 4.60706 0.531938
vn 0.293008 0.954084 0.062211
v -0.649979 4.63059 0.0939998
vn 0.500396 0.367038 -0.784148
v -0.651925 4.63218 0.0978715
vn 0.351759 0.934567 -0.0533807
v -0.644883 4.62918 0.101098
vn 0.53619 0.838499 -0.0970552
v -0.948454 4.68159 0.11435
vn -0.297373 -0.950535 -0.0897391
v -0.957618 4.68447 0.118282
vn -0.378778 -0.920909 -0.0919412
v -0.952974 4.68405 0.107432
vn -0.356149 -0.919224 -0.167886
v -0.953858 4.65699 0.544673
vn -0.588166 -0.807967 -0.0353679
v -0.956298 4.65977 0.531789
vn -0.984381 0.172533 0.0350112
v -0.958818 4.67167 0.335025
vn -0.594633 -0.8028 -0.043865
v -0.942946 4.69261 0.546926
vn -0.0338202 0.996172 0.080611
v -0.946988 4.70445 0.380819
vn -0.0433896 0.996607 0.0699411
v -0.946066 4.69317 0.533902
vn -0.894783 0.443445 0.0521527
v -0.937004 4.71896 0.116714
vn 0.287101 0.957401 0.0309332
v -0.941885 4.72025 0.109722
vn 0.223653 0.973478 -0.0481639
v -0.946352 4.72125 0.120608
vn 0.203161 0.978739 0.0282062
v -0.801547 4.66222 0.094225
vn -0.0197627 0.0691389 -0.997411
v -0.945642 4.68469 0.0998239
vn -0.0604431 0.0217133 -0.997935
v -0.935891 4.71652 0.101837
vn -0.0243926 0.138918 -0.990003
v -0.676179 4.59768 0.116912
vn -0.291798 -0.954477 -0.0618665
v -0.808084 4.63892 0.107499
vn -0.292819 -0.951998 -0.0892021
v -0.943973 4.65256 0.561742
vn -0.351759 -0.934567 0.0533808
v -0.949039 4.65446 0.551246
vn -0.377378 -0.925819 -0.0210844
v -0.932883 4.68876 0.564031
vn 0.228052 0.958137 0.173104
v -0.940277 4.6906 0.560732
vn 0.0199685 0.977089 0.211893
v -0.664542 4.63567 0.119314
vn 0.292944 0.9543 0.0591142
v -0.927895 4.71566 0.130077
vn 0.291745 0.954665 0.0591639
v -0.653403 4.61692 0.091953
vn 0.402708 -0.0656237 -0.912973
v -0.659553 4.63258 0.0905433
vn 0.0233766 0.124408 -0.991956
v -0.651229 4.56464 0.553569
vn 0.322389 -0.499004 0.804401
v -0.646759 4.56314 0.54608
vn -0.014305 -0.997026 0.0757251
v -0.644642 4.56306 0.532036
vn 0.0357997 -0.997504 -0.0608688
v -0.64204 4.56431 0.518946
vn 0.913753 -0.404033 -0.0425651
v -0.638955 4.59791 0.323574
vn 0.956101 -0.29042 -0.0390757
v -0.631808 4.59771 0.521058
vn 0.991272 -0.129454 -0.02493
v -0.63373 4.59868 0.534288
vn 0.587253 0.807517 0.0552267
v -0.636022 4.59819 0.548297
vn 0.541893 0.818556 0.190571
v -0.64083 4.59858 0.555716
vn 0.531918 0.256749 0.806935
v -0.644209 4.58476 0.555992
vn 0.438207 -0.189809 0.878605
v -0.65562 4.59414 0.0988814
vn -0.0199692 -0.977089 -0.211893
v -0.668003 4.56908 0.529536
vn -0.291739 -0.954682 -0.0589074
v -0.936345 4.65216 0.56907
vn -0.0209931 -0.116291 0.992993
v -0.787814 4.64582 0.552114
vn 0.292819 0.951998 0.0892021
v -0.646859 4.63028 0.108367
vn 0.377378 0.925819 0.0210843
v -0.955067 4.68616 0.103897
vn -0.517363 -0.137457 -0.844655
v -0.959875 4.68655 0.111316
vn -0.541892 -0.818557 -0.190571
v -0.962167 4.68606 0.125325
vn -0.588551 -0.806705 -0.0532399
v -0.96409 4.68703 0.138555
vn -0.984521 0.173022 0.0279541
v -0.954794 4.69384 0.336482
vn -0.956101 0.29042 0.0390756
v -0.953858 4.72043 0.140668
vn -0.885032 0.46325 0.0460158
v -0.951255 4.72168 0.127578
vn -0.0369214 0.997379 0.0622189
v -0.949138 4.7216 0.113533
vn 0.0143049 0.997026 -0.075725
v -0.944668 4.7201 0.106044
vn -0.269213 0.600811 -0.752695
v -0.949575 4.70688 0.104057
vn -0.438208 0.189809 -0.878605
v -0.939531 4.67768 0.127675
vn -0.292999 -0.954112 -0.0618176
v -0.951014 4.65556 0.558515
vn -0.536189 -0.838499 0.0970552
v -0.937773 4.69124 0.553572
vn 0.204565 0.973828 0.0990603
v -0.796576 4.67648 0.109875
vn 0.291676 0.955999 0.0314738
v -0.669304 4.60075 0.08853
vn -0.0124454 0.00713345 -0.999897
v -0.660378 4.59664 0.0918529
vn 0.289061 -0.38241 -0.877614
v -0.803796 4.62328 0.328599
vn -0.292369 -0.954399 -0.0603626
v -0.945919 4.65415 0.565613
vn -0.484037 -0.254046 0.837358
v -0.928285 4.68846 0.556741
vn 0.288275 0.953298 0.0901098
v -0.656163 4.63365 0.105236
vn 0.2962 0.954637 0.0305601
f 1//1 2//2 3//3
f 1//1 3//3 4//4
f 1//1 4//4 5//5
f 1//1 5//5 6//6
f 1//1 6//6 2//2
f 7//7 8//8 9//9
f 10//10 11//11 12//12
f 13//13 14//14 15//15
f 16//16 17//17 18//18
f 19//19 20//20 21//21
f 22//22 23//23 24//24
f 22//22 24//24 25//25
f 22//22 25//25 26//26
f 22//22 26//26 27//27
f 22//22 27//27 23//23
f 28//28 29//29 30//30
f 31//31 32//32 33//33
f 34//34 35//35 36//36
f 37//37 38//38 39//39
f 40//40 41//41 42//42
f 13//13 43//43 44//44
f 10//10 45//45 46//46
f 7//7 47//47 48//48
f 19//19 49//49 50//50
f 16//16 51//51 52//52
f 10//10 53//53 45//45
f 13//13 54//54 43//43
f 16//16 55//55 51//51
f 19//19 56//56 49//49
f 7//7 57//57 47//47
f 40//40 58//58 59//59
f 28//28 60//60 61//61
f 31//31 62//62 63//63
f 34//34 64//64 65//65
f 37//37 66//66 67//67
f 40//40 68//68 58//58
f 28//28 69//69 60//60
f 31//31 70//70 62//62
f 34//34 71//71 64//64
f 37//37 72//72 66//66
f 10//10 46//46 11//11
f 7//7 48//48 8//8
f 19//19 50//50 20//20
f 16//16 52//52 17//17
f 13//13 44//44 14//14
f 40//40 42//42 68//68
f 28//28 30//30 69//69
f 31//31 33//33 70//70
f 34//34 36//36 71//71
f 37//37 39//39 72//72
f 28//28 61//61 29//29
f 31//31 63//63 32//32
f 34//34 65//65 35//35
f 37//37 67//67 38//38
f 40//40 59//59 41//41
f 10//10 12//12 53//53
f 13//13 15//15 54//54
f 16//16 18//18 55//55
f 19//19 21//21 56//56
f 7//7 9//9 57//57
f 73//73 74//74 75//75
f 76//76 77//77 78//78
f 79//79 80//80 81//81
f 82//82 83//83 84//84
f 85//85 86//86 87//87
f 88//88 89//89 90//90
f 91//91 92//92 93//93
f 94//94 95//95 96//96
f 97//97 98//98 99//99
f 100//100 101//101 102//102
f 103//103 104//104 105//105
f 106//106 107//107 108//108
f 109//109 110//110 111//111
f 112//112 113//113 114//114
f 115//115 116//116 117//117
f 88//88 118//118 119//119
f 91//91 120//120 121//121
f 94//94 122//122 123//123
f 97//97 124//124 125//125
f 100//100 126//126 127//127
f 128//128 129//129 2//2
f 130//130 131//131 3//3
f 132//132 133//133 4//4
f 134//134 135//135 5//5
f 136//136 137//137 6//6
f 76//76 138//138 8//8
f 73//73 139//139 11//11
f 85//85 140//140 14//14
f 82//82 141//141 17//17
f 79//79 142//142 20//20
f 143//143 144//144 23//23
f 145//145 146//146 24//24
f 147//147 148//148 25//25
f 149//149 150//150 26//26
f 151//151 152//152 27//27
f 103//103 153//153 29//29
f 106//106 154//154 32//32
f 109//109 155//155 35//35
f 112//112 156//156 38//38
f 115//115 157//157 41//41
f 73//73 75//75 43//43
f 76//76 78//78 45//45
f 79//79 81//81 47//47
f 82//82 84//84 49//49
f 85//85 87//87 51//51
f 88//88 90//90 53//53
f 91//91 93//93 54//54
f 94//94 96//96 55//55
f 97//97 99//99 56//56
f 100//100 102//102 57//57
f 103//103 105//105 58//58
f 106//106 108//108 60//60
f 109//109 111//111 62//62
f 112//112 114//114 64//64
f 115//115 117//117 66//66
f 88//88 119//119 68//68
f 91//91 121//121 69//69
f 94//94 123//123 70//70
f 97//97 125//125 71//71
f 100//100 127//127 72//72
f 130//130 74//74 46//46
f 132//132 77//77 48//48
f 134//134 80//80 50//50
f 136//136 83//83 52//52
f 128//128 86//86 44//44
f 158//158 89//89 42//42
f 159//159 92//92 30//30
f 160//160 95//95 33//33
f 161//161 98//98 36//36
f 162//162 101//101 39//39
f 145//145 104//104 61//61
f 147//147 107//107 63//63
f 149//149 110//110 65//65
f 151//151 113//113 67//67
f 143//143 116//116 59//59
f 159//159 118//118 12//12
f 160//160 120//120 15//15
f 161//161 122//122 18//18
f 162//162 124//124 21//21
f 158//158 126//126 9//9
f 130//130 129//129 74//74
f 132//132 131//131 77//77
f 134//134 133//133 80//80
f 136//136 135//135 83//83
f 128//128 137//137 86//86
f 158//158 138//138 89//89
f 159//159 139//139 92//92
f 160//160 140//140 95//95
f 161//161 141//141 98//98
f 162//162 142//142 101//101
f 145//145 144//144 104//104
f 147//147 146//146 107//107
f 149//149 148//148 110//110
f 151//151 150//150 113//113
f 143//143 152//152 116//116
f 159//159 153//153 118//118
f 160//160 154//154 120//120
f 161//161 155//155 122//122
f 162//162 156//156 124//124
f 158//158 157//157 126//126
f 130//130 3//3 129//129
f 132//132 4//4 131//131
f 134//134 5//5 133//133
f 136//136 6//6 135//135
f 128//128 2//2 137//137
f 158//158 9//9 138//138
f 159//159 12//12 139//139
f 160//160 15//15 140//140
f 161//161 18//18 141//141
f 162//162 21//21 142//142
f 145//145 24//24 144//144
f 147//147 25//25 146//146
f 149//149 26//26 148//148
f 151//151 27//27 150//150
f 143//143 23//23 152//152
f 159//159 30//30 153//153
f 160//160 33//33 154//154
f 161//161 36//36 155//155
f 162//162 39//39 156//156
f 158//158 42//42 157//157
f 128//128 44//44 75//75
f 130//130 46//46 78//78
f 132//132 48//48 81//81
f 134//134 50//50 84//84
f 136//136 52//52 87//87
f 76//76 45//45 90//90
f 73//73 43//43 93//93
f 85//85 51//51 96//96
f 82//82 49//49 99//99
f 79//79 47//47 102//102
f 143//143 59//59 105//105
f 145//145 61//61 108//108
f 147//147 63//63 111//111
f 149//149 65//65 114//114
f 151//151 67//67 117//117
f 103//103 58//58 119//119
f 106//106 60//60 121//121
f 109//109 62//62 123//123
f 112//112 64//64 125//125
f 115//115 66//66 127//127
f 73//73 11//11 74//74
f 76//76 8//8 77//77
f 79//79 20//20 80//80
f 82//82 17//17 83//83
f 85//85 14//14 86//86
f 88//88 68//68 89//89
f 91//91 69//69 92//92
f 94//94 70//70 95//95
f 97//97 71//71 98//98
f 100//100 72//72 101//101
f 103//103 29//29 104//104
f 106//106 32//32 107//107
f 109//109 35//35 110//110
f 112//112 38//38 113//113
f 115//115 41//41 116//116
f 88//88 53//53 118//118
f 91//91 54//54 120//120
f 94//94 55//55 122//122
f 97//97 56//56 124//124
f 100//100 57//57 126//126
f 128//128 75//75 129//129
f 130//130 78//78 131//131
f 132//132 81//81 133//133
f 134//134 84//84 135//135
f 136//136 87//87 137//137
f 76//76 90//90 138//138
f 73//73 93//93 139//139
f 85//85 96//96 140//140
f 82//82 99//99 141//141
f 79//79 102//102 142//142
f 143//143 105//105 144//144
f 145//145 108//108 146//146
f 147//147 111//111 148//148
f 149//149 114//114 150//150
f 151//151 117//117 152//152
f 103//103 119//119 153//153
f 106//106 121//121 154//154
f 109//109 123//123 155//155
f 112//112 125//125 156//156
f 115//115 127//127 157//157
f 129//129 3//3 2//2
f 131//131 4//4 3//3
f 133//133 5//5 4//4
f 135//135 6//6 5//5
f 137//137 2//2 6//6
f 138//138 9//9 8//8
f 139//139 12//12 11//11
f 140//140 15//15 14//14
f 141//141 18//18 17//17
f 142//142 21//21 20//20
f 144//144 24//24 23//23
f 146//146 25//25 24//24
f 148//148 26//26 25//25
f 150//150 27//27 26//26
f 152//152 23//23 27//27
f 153//153 30//30 29//29
f 154//154 33//33 32//32
f 155//155 36//36 35//35
f 156//156 39//39 38//38
f 157//157 42//42 41//41
f 75//75 44//44 43//43
f 78//78 46//46 45//45
f 81//81 48//48 47//47
f 84//84 50//50 49//49
f 87//87 52//52 51//51
f 90//90 45//45 53//53
f 93//93 43//43 54//54
f 96//96 51//51 55//55
f 99//99 49//49 56//56
f 102//102 47//47 57//57
f 105//105 59//59 58//58
f 108//108 61//61 60//60
f 111//111 63//63 62//62
f 114//114 65//65 64//64
f 117//117 67//67 66//66
f 119//119 58//58 68//68
f 121//121 60//60 69//69
f 123//123 62//62 70//70
f 125//125 64//64 71//71
f 127//127 66//66 72//72
f 74//74 11//11 46//46
f 77//77 8//8 48//48
f 80//80 20//20 50//50
f 83//83 17//17 52//52
f 86//86 14//14 44//44
f 89//89 68//68 42//42
f 92//92 69//69 30//30
f 95//95 70//70 33//33
f 98//98 71//71 36//36
f 101//101 72//72 39//39
f 104//104 29//29 61//61
f 107//107 32//32 63//63
f 110//110 35//35 65//65
f 113//113 38//38 67//67
f 116//116 41//41 59//59
f 118//118 53//53 12//12
f 120//120 54//54 15//15
f 122//122 55//55 18//18
f 124//124 56//56 21//21
f 126//126 57//57 9//9
f 129//129 75//75 74//74
f 131//131 78//78 77//77
f 133//133 81//81 80//80
f 135//135 84//84 83//83
f 137//137 87//87 86//86
f 138//138 90//90 89//89
f 139//139 93//93 92//92
f 140//140 96//96 95//95
f 141//141 99//99 98//98
f 142//142 102//102 101//101
f 144//144 105//105 104//104
f 146//146 108//108 107//107
f 148//148 111//111 110//110
f 150//150 114//114 113//113
f 152//152 117//117 116//116
f 153//153 119//119 118//118
f 154//154 121//121 120//120
f 155//155 123//123 122//122
f 156//156 125//125 124//124
f 157//157 127//127 126//126
