# Created by Open3D 
# object name: part_035
# number of vertices: 162
# number of triangles: 320
v 0.298842 1.56056 0.386274
vn -0.885867 0.29291 -0.359783
v 0.294622 1.54135 0.381877
vn -0.713905 0.277041 -0.643108
v 0.293396 1.54048 0.383903
vn -0.931946 0.258743 -0.254023
v 0.297964 1.56009 0.389182
vn -0.957145 0.270085 -0.104531
v 0.302221 1.57386 0.389352
vn -0.914368 0.323247 -0.24381
v 0.303032 1.57316 0.38707
vn -0.702556 0.309694 -0.640706
v 0.286987 1.54832 0.48045
vn -0.955672 0.220846 0.194727
v 0.281766 1.52847 0.476288
vn -0.973471 0.215875 0.0758413
v 0.282433 1.52876 0.478703
vn -0.857553 0.128738 0.498025
v 0.288777 1.53189 0.429909
vn -0.43932 -0.88211 -0.169942
v 0.29495 1.53738 0.386078
vn -0.362674 -0.915989 -0.171557
v 0.290899 1.53105 0.430067
vn -0.264993 -0.951383 -0.157
v 0.329707 1.52957 0.383734
vn -0.0906497 -0.584074 -0.806623
v 0.330084 1.53079 0.383308
vn 0.110007 0.0759319 -0.991026
v 0.361938 1.52096 0.3866
vn -3.7701e-05 -0.372897 -0.927873
v 0.339176 1.56539 0.389581
vn 0.266005 0.765097 -0.586403
v 0.308569 1.57432 0.387858
vn 0.275248 0.933206 -0.231009
v 0.369813 1.55723 0.393347
vn 0.285936 0.930227 -0.230039
v 0.299937 1.57074 0.426318
vn 0.0553655 0.989225 0.135529
v 0.292383 1.56395 0.477723
vn -0.198739 0.974387 0.105229
v 0.293851 1.56361 0.479993
vn 0.137759 0.979005 0.150242
v 0.359341 1.52814 0.486935
vn 0.885866 -0.29291 0.359784
v 0.353412 1.50896 0.485064
vn 0.705867 -0.307426 0.638154
v 0.354222 1.50826 0.482782
vn 0.917924 -0.311789 0.245363
v 0.360109 1.52819 0.483958
vn 0.957146 -0.270085 0.10453
v 0.363047 1.54164 0.488232
vn 0.934492 -0.247123 0.256233
v 0.361822 1.54078 0.490258
vn 0.71189 -0.274333 0.646494
v 0.357731 1.51265 0.43609
vn -0.0553683 -0.989225 -0.135529
v 0.351544 1.5071 0.479912
vn -0.13871 -0.980664 -0.13805
v 0.355486 1.51303 0.435856
vn -0.239858 -0.958395 -0.154747
v 0.371196 1.54038 0.392758
vn 0.955672 -0.220846 -0.194726
v 0.365852 1.52027 0.390397
vn 0.959449 -0.26892 -0.0844977
v 0.3656 1.52155 0.388239
vn 0.849525 -0.159128 -0.502976
v 0.368891 1.5515 0.432498
vn 0.439324 0.882108 0.169942
v 0.373807 1.55504 0.40043
vn 0.655991 0.734495 0.173761
v 0.372543 1.55615 0.398285
vn 0.365399 0.91759 0.156566
v 0.326736 1.55255 0.488401
vn 0.0906497 0.584074 0.806623
v 0.35761 1.54463 0.490288
vn 0.191611 0.832849 0.519277
v 0.296366 1.56172 0.484799
vn 0.18092 0.835826 0.518326
v 0.317267 1.51673 0.482554
vn -0.266005 -0.765097 0.586403
v 0.31749 1.51779 0.48335
vn -0.137374 -0.179458 0.974127
v 0.285216 1.52603 0.479799
vn -0.25279 -0.583512 0.771758
v 0.298834 1.53749 0.381846
vn -0.191611 -0.832849 -0.519277
v 0.297674 1.53889 0.38084
vn -0.0384052 -0.362193 -0.931312
v 0.282636 1.52708 0.471704
vn -0.653557 -0.736586 -0.174082
v 0.293166 1.53795 0.388058
vn -0.652601 -0.735601 -0.181667
v 0.290591 1.56186 0.481738
vn -0.955986 0.280282 0.0867932
v 0.286859 1.54863 0.477393
vn -0.961812 0.265268 -0.0674609
v 0.3049 1.57502 0.392222
vn 0.138045 0.981018 0.136191
v 0.302913 1.57482 0.394076
vn -0.203523 0.974281 0.0967248
v 0.338953 1.56434 0.388784
vn 0.143134 0.201781 -0.968915
v 0.306963 1.57403 0.386576
vn 0.214425 0.594223 -0.775191
v 0.283901 1.52597 0.473849
vn -0.364352 -0.917713 -0.158271
v 0.360078 1.5204 0.387335
vn -0.18092 -0.835826 -0.518326
v 0.371227 1.5561 0.392336
vn 0.25279 0.583512 -0.771758
v 0.302197 1.57038 0.426431
vn 0.239856 0.958396 0.154747
v 0.290843 1.56058 0.483896
vn -0.846999 0.160569 0.506764
v 0.347875 1.50781 0.484277
vn -0.275248 -0.933206 0.231009
v 0.349481 1.5081 0.485559
vn -0.214425 -0.594223 0.775191
v 0.36406 1.51817 0.394412
vn 0.201409 -0.97385 -0.105124
v 0.35353 1.5073 0.478058
vn 0.200463 -0.974834 -0.0975373
v 0.374677 1.55365 0.395846
vn 0.976109 -0.204159 -0.0743661
v 0.371213 1.53966 0.395747
vn 0.961812 -0.265268 0.0674615
v 0.361494 1.54474 0.486056
vn 0.362281 0.916366 0.170367
v 0.363277 1.54417 0.484077
vn 0.650619 0.737432 0.181355
v 0.32636 1.55134 0.488827
vn -0.10386 -0.0532111 0.993167
v 0.35877 1.54324 0.491295
vn 0.0384052 0.362193 0.931312
v 0.28663 1.52489 0.478787
vn -0.285936 -0.930227 0.230039
v 0.362593 1.51851 0.392141
vn -0.137039 -0.978938 -0.151332
v 0.374011 1.55336 0.393432
vn 0.856348 -0.125208 -0.50099
v 0.366784 1.55236 0.43222
vn 0.264995 0.951383 0.157
v 0.294505 1.56116 0.485535
vn 3.7701e-05 0.372897 0.927873
v 0.296484 1.53757 0.383232
vn -0.252684 -0.923028 -0.29012
v 0.294297 1.53838 0.383838
vn -0.56149 -0.761354 -0.324144
v 0.295769 1.53865 0.381712
vn -0.402096 -0.696837 -0.593916
v 0.281894 1.52748 0.474583
vn -0.9401 -0.313379 -0.134182
v 0.28195 1.52912 0.471931
vn -0.966869 0.240129 -0.0866156
v 0.28731 1.53324 0.429901
vn -0.941022 -0.299514 -0.157384
v 0.291316 1.56312 0.480401
vn -0.659509 0.750849 0.035697
v 0.297946 1.57027 0.426478
vn -0.664282 0.74736 0.0135041
v 0.290785 1.56254 0.477387
vn -0.948123 0.308884 -0.0751888
v 0.30637 1.57497 0.389336
vn 0.247406 0.968732 0.018674
v 0.305344 1.57488 0.387624
vn 0.0318969 0.944846 -0.325959
v 0.304025 1.57518 0.389845
vn -0.0973376 0.994544 -0.0375096
v 0.335471 1.5511 0.386424
vn 0.123873 0.127883 -0.984023
v 0.298133 1.5406 0.38062
vn 0.0982568 0.122295 -0.987618
v 0.306553 1.57245 0.385819
vn 0.105059 0.147642 -0.983445
v 0.284688 1.52539 0.476938
vn -0.286414 -0.957849 -0.0221818
v 0.28359 1.52608 0.478459
vn -0.512471 -0.810779 0.282861
v 0.28269 1.5264 0.47604
vn -0.599165 -0.800238 -0.0249138
v 0.36187 1.51933 0.389092
vn -0.213673 -0.933909 -0.286632
v 0.359386 1.51921 0.391777
vn -0.248992 -0.954791 -0.162412
v 0.329182 1.52839 0.385911
vn -0.233747 -0.929507 -0.285269
v 0.373205 1.55486 0.392752
vn 0.544502 0.106423 -0.831981
v 0.369832 1.54132 0.390311
vn 0.510622 0.00536668 -0.859789
v 0.37089 1.55451 0.391586
vn 0.149769 0.135169 -0.979438
v 0.334515 1.56145 0.429299
vn 0.252446 0.954971 0.155887
v 0.369433 1.55722 0.397982
vn 0.256119 0.955317 0.147553
v 0.308119 1.57433 0.392486
vn 0.250909 0.956771 0.147087
v 0.292217 1.56123 0.484927
vn -0.489274 0.102512 0.866085
v 0.293165 1.5623 0.484372
vn -0.0784821 0.830909 0.550845
v 0.291444 1.56229 0.483372
vn -0.587579 0.688016 0.425894
v 0.350074 1.50715 0.482798
vn -0.247406 -0.968732 -0.018674
v 0.352419 1.50695 0.48229
vn 0.0973376 -0.994544 0.0375096
v 0.351099 1.50725 0.48451
vn -0.0318969 -0.944846 0.325959
v 0.365128 1.519 0.391733
vn 0.658629 -0.751423 -0.0396311
v 0.365658 1.51959 0.394747
vn 0.952596 -0.294122 0.0778019
v 0.359664 1.51306 0.436386
vn 0.664282 -0.74736 -0.0135041
v 0.37455 1.55464 0.397551
vn 0.939814 0.316331 0.129166
v 0.3703 1.55008 0.432963
vn 0.941022 0.299514 0.157384
v 0.374493 1.55301 0.400203
vn 0.969192 -0.230033 0.0880443
v 0.35996 1.54455 0.488903
vn 0.252684 0.923028 0.29012
v 0.360674 1.54347 0.490423
vn 0.402096 0.696837 0.593916
v 0.362146 1.54374 0.488297
vn 0.56149 0.761354 0.324144
v 0.322828 1.53804 0.486856
vn -0.123873 -0.127883 0.984023
v 0.349891 1.50967 0.486315
vn -0.104499 -0.145909 0.983763
v 0.358311 1.54152 0.491514
vn -0.0978832 -0.120503 0.987875
v 0.28701 1.5249 0.474153
vn -0.255888 -0.9551 -0.149352
v 0.317326 1.51615 0.480088
vn -0.26667 -0.963496 -0.0237364
v 0.363278 1.51982 0.387762
vn 0.0784821 -0.830909 -0.550845
v 0.364026 1.51893 0.390088
vn 0.134991 -0.955658 -0.261714
v 0.372853 1.55604 0.393675
vn 0.512471 0.810779 -0.282861
v 0.37427 1.5549 0.394487
vn 0.877944 0.410372 -0.246596
v 0.297058 1.56291 0.480357
vn 0.249146 0.954949 0.161241
v 0.358372 1.5458 0.485853
vn 0.25433 0.953503 0.161706
v 0.288437 1.54771 0.48295
vn -0.510622 -0.00536668 0.859789
v 0.293973 1.55947 0.485748
vn -0.142595 -0.10803 0.983868
v 0.295616 1.54004 0.381058
vn -0.311235 0.154544 -0.937683
v 0.294162 1.5396 0.382414
vn -0.777882 -0.307071 -0.548276
v 0.293136 1.53909 0.385281
vn -0.934037 -0.307103 -0.182379
v 0.292492 1.54 0.38819
vn -0.965921 0.241108 -0.0941502
v 0.292382 1.55483 0.433345
vn -0.959649 0.267724 -0.086011
v 0.301327 1.57342 0.393645
vn -0.948652 0.305008 -0.0838475
v 0.302557 1.57473 0.391099
vn -0.649965 0.759848 -0.0133229
v 0.303433 1.57467 0.388138
vn -0.487537 0.791302 -0.368983
v 0.304595 1.574 0.386602
vn -0.266355 0.332635 -0.90466
v 0.300877 1.56055 0.384131
vn -0.285175 0.227378 -0.931114
v 0.282174 1.52722 0.477647
vn -0.877944 -0.410372 0.246596
v 0.298072 1.53632 0.386282
vn -0.254185 -0.953342 -0.162878
v 0.36247 1.52266 0.386386
vn 0.143159 0.109768 -0.983594
v 0.339117 1.56597 0.392046
vn 0.26667 0.963496 0.0237364
v 0.292418 1.5632 0.482047
vn -0.134991 0.955658 0.261714
v 0.351849 1.50812 0.485532
vn 0.272268 -0.301903 0.913632
v 0.353011 1.50746 0.483996
vn 0.487537 -0.791302 0.368983
v 0.353886 1.5074 0.481036
vn 0.65255 -0.757697 0.00856327
v 0.355116 1.5087 0.478489
vn 0.951647 -0.295102 0.0853362
v 0.365916 1.53431 0.439935
vn 0.959649 -0.267724 0.086011
v 0.363951 1.54212 0.483945
vn 0.96931 -0.226041 0.0966665
v 0.363308 1.54304 0.486854
vn 0.935132 0.305977 0.178622
v 0.362281 1.54253 0.489721
vn 0.777882 0.307071 0.548276
v 0.360828 1.54209 0.491077
vn 0.321598 -0.123704 0.938761
v 0.357392 1.52847 0.489131
vn 0.285175 -0.227378 0.931114
v 0.348324 1.5078 0.479648
vn -0.250694 -0.956548 -0.148888
v 0.364999 1.51983 0.388763
vn 0.587584 -0.688013 -0.425891
v 0.373753 1.55573 0.396094
vn 0.599165 0.800238 0.0249138
v 0.327262 1.55374 0.486224
vn 0.233747 0.929507 0.285269
v 0.285553 1.52762 0.480549
vn -0.149402 -0.133382 0.979739
v 0.283239 1.52726 0.479383
vn -0.535169 -0.0766462 0.841261
v 0.323173 1.52196 0.43295
vn -0.252446 -0.954971 -0.155887
v 0.364226 1.5209 0.387207
vn 0.496218 -0.070717 -0.865313
v 0.371756 1.55673 0.395197
vn 0.286414 0.957849 0.0221818
v 0.294574 1.56279 0.483043
vn 0.213673 0.933909 0.286632
f 1//1 2//2 3//3
f 1//1 3//3 4//4
f 1//1 4//4 5//5
f 1//1 5//5 6//6
f 1//1 6//6 2//2
f 7//7 8//8 9//9
f 10//10 11//11 12//12
f 13//13 14//14 15//15
f 16//16 17//17 18//18
f 19//19 20//20 21//21
f 22//22 23//23 24//24
f 22//22 24//24 25//25
f 22//22 25//25 26//26
f 22//22 26//26 27//27
f 22//22 27//27 23//23
f 28//28 29//29 30//30
f 31//31 32//32 33//33
f 34//34 35//35 36//36
f 37//37 38//38 39//39
f 40//40 41//41 42//42
f 13//13 43//43 44//44
f 10//10 45//45 46//46
f 7//7 47//47 48//48
f 19//19 49//49 50//50
f 16//16 51//51 52//52
f 10//10 53//53 45//45
f 13//13 54//54 43//43
f 16//16 55//55 51//51
f 19//19 56//56 49//49
f 7//7 57//57 47//47
f 40//40 58//58 59//59
f 28//28 60//60 61//61
f 31//31 62//62 63//63
f 34//34 64//64 65//65
f 37//37 66//66 67//67
f 40//40 68//68 58//58
f 28//28 69//69 60//60
f 31//31 70//70 62//62
f 34//34 71//71 64//64
f 37//37 72//72 66//66
f 10//10 46//46 11//11
f 7//7 48//48 8//8
f 19//19 50//50 20//20
f 16//16 52//52 17//17
f 13//13 44//44 14//14
f 40//40 42//42 68//68
f 28//28 30//30 69//69
f 31//31 33//33 70//70
f 34//34 36//36 71//71
f 37//37 39//39 72//72
f 28//28 61//61 29//29
f 31//31 63//63 32//32
f 34//34 65//65 35//35
f 37//37 67//67 38//38
f 40//40 59//59 41//41
f 10//10 12//12 53//53
f 13//13 15//15 54//54
f 16//16 18//18 55//55
f 19//19 21//21 56//56
f 7//7 9//9 57//57
f 73//73 74//74 75//75
f 76//76 77//77 78//78
f 79//79 80//80 81//81
f 82//82 83//83 84//84
f 85//85 86//86 87//87
f 88//88 89//89 90//90
f 91//91 92//92 93//93
f 94//94 95//95 96//96
f 97//97 98//98 99//99
f 100//100 101//101 102//102
f 103//103 104//104 105//105
f 106//106 107//107 108//108
f 109//109 110//110 111//111
f 112//112 113//113 114//114
f 115//115 116//116 117//117
f 88//88 118//118 119//119
f 91//91 120//120 121//121
f 94//94 122//122 123//123
f 97//97 124//124 125//125
f 100//100 126//126 127//127
f 128//128 129//129 2//2
f 130//130 131//131 3//3
f 132//132 133//133 4//4
f 134//134 135//135 5//5
f 136//136 137//137 6//6
f 76//76 138//138 8//8
f 73//73 139//139 11//11
f 85//85 140//140 14//14
f 82//82 141//141 17//17
f 79//79 142//142 20//20
f 143//143 144//144 23//23
f 145//145 146//146 24//24
f 147//147 148//148 25//25
f 149//149 150//150 26//26
f 151//151 152//152 27//27
f 103//103 153//153 29//29
f 106//106 154//154 32//32
f 109//109 155//155 35//35
f 112//112 156//156 38//38
f 115//115 157//157 41//41
f 73//73 75//75 43//43
f 76//76 78//78 45//45
f 79//79 81//81 47//47
f 82//82 84//84 49//49
f 85//85 87//87 51//51
f 88//88 90//90 53//53
f 91//91 93//93 54//54
f 94//94 96//96 55//55
f 97//97 99//99 56//56
f 100//100 102//102 57//57
f 103//103 105//105 58//58
f 106//106 108//108 60//60
f 109//109 111//111 62//62
f 112//112 114//114 64//64
f 115//115 117//117 66//66
f 88//88 119//119 68//68
f 91//91 121//121 69//69
f 94//94 123//123 70//70
f 97//97 125//125 71//71
f 100//100 127//127 72//72
f 130//130 74//74 46//46
f 132//132 77//77 48//48
f 134//134 80//80 50//50
f 136//136 83//83 52//52
f 128//128 86//86 44//44
f 158//158 89//89 42//42
f 159//159 92//92 30//30
f 160//160 95//95 33//33
f 161//161 98//98 36//36
f 162//162 101//101 39//39
f 145//145 104//104 61//61
f 147//147 107//107 63//63
f 149//149 110//110 65//65
f 151//151 113//113 67//67
f 143//143 116//116 59//59
f 159//159 118//118 12//12
f 160//160 120//120 15//15
f 161//161 122//122 18//18
f 162//162 124//124 21//21
f 158//158 126//126 9//9
f 130//130 129//129 74//74
f 132//132 131//131 77//77
f 134//134 133//133 80//80
f 136//136 135//135 83//83
f 128//128 137//137 86//86
f 158//158 138//138 89//89
f 159//159 139//139 92//92
f 160//160 140//140 95//95
f 161//161 141//141 98//98
f 162//162 142//142 101//101
f 145//145 144//144 104//104
f 147//147 146//146 107//107
f 149//149 148//148 110//110
f 151//151 150//150 113//113
f 143//143 152//152 116//116
f 159//159 153//153 118//118
f 160//160 154//154 120//120
f 161//161 155//155 122//122
f 162//162 156//156 124//124
f 158//158 157//157 126//126
f 130//130 3//3 129//129
f 132//132 4//4 131//131
f 134//134 5//5 133//133
f 136//136 6//6 135//135
f 128//128 2//2 137//137
f 158//158 9//9 138//138
f 159//159 12//12 139//139
f 160//160 15//15 140//140
f 161//161 18//18 141//141
f 162//162 21//21 142//142
f 145//145 24//24 144//144
f 147//147 25//25 146//146
f 149//149 26//26 148//148
f 151//151 27//27 150//150
f 143//143 23//23 152//152
f 159//159 30//30 153//153
f 160//160 33//33 154//154
f 161//161 36//36 155//155
f 162//162 39//39 156//156
f 158//158 42//42 157//157
f 128//128 44//44 75//75
f 130//130 46//46 78//78
f 132//132 48//48 81//81
f 134//134 50//50 84//84
f 136//136 52//52 87//87
f 76//76 45//45 90//90
f 73//73 43//43 93//93
f 85//85 51//51 96//96
f 82//82 49//49 99//99
f 79//79 47//47 102//102
f 143//143 59//59 105//105
f 145//145 61//61 108//108
f 147//147 63//63 111//111
f 149//149 65//65 114//114
f 151//151 67//67 117//117
f 103//103 58//58 119//119
f 106//106 60//60 121//121
f 109//109 62//62 123//123
f 112//112 64//64 125//125
f 115//115 66//66 127//127
f 73//73 11//11 74//74
f 76//76 8//8 77//77
f 79//79 20//20 80//80
f 82//82 17//17 83//83
f 85//85 14//14 86//86
f 88//88 68//68 89//89
f 91//91 69//69 92//92
f 94//94 70//70 95//95
f 97//97 71//71 98//98
f 100//100 72//72 101//101
f 103//103 29//29 104//104
f 106//106 32//32 107//107
f 109//109 35//35 110//110
f 112//112 38//38 113//113
f 115//115 41//41 116//116
f 88//88 53//53 118//118
f 91//91 54//54 120//120
f 94//94 55//55 122//122
f 97//97 56//56 124//124
f 100//100 57//57 126//126
f 128//128 75//75 129//129
f 130//130 78//78 131//131
f 132//132 81//81 133//133
f 134//134 84//84 135//135
f 136//136 87//87 137//137
f 76//76 90//90 138//138
f 73//73 93//93 139//139
f 85//85 96//96 140//140
f 82//82 99//99 141//141
f 79//79 102//102 142//142
f 143//143 105//105 144//144
f 145//145 108//108 146//146
f 147//147 111//111 148//148
f 149//149 114//114 150//150
f 151//151 117//117 152//152
f 103//103 119//119 153//153
f 106//106 121//121 154//154
f 109//109 123//123 155//155
f 112//112 125//125 156//156
f 115//115 127//127 157//157
f 129//129 3//3 2//2
f 131//131 4//4 3//3
f 133//133 5//5 4//4
f 135//135 6//6 5//5
f 137//137 2//2 6//6
f 138//138 9//9 8//8
f 139//139 12//12 11//11
f 140//140 15//15 14//14
f 141//141 18//18 17//17
f 142//142 21//21 20//20
f 144//144 24//24 23//23
f 146//146 25//25 24//24
f 148//148 26//26 25//25
f 150//150 27//27 26//26
f 152//152 23//23 27//27
f 153//153 30//30 29//29
f 154//154 33//33 32//32
f 155//155 36//36 35//35
f 156//156 39//39 38//38
f 157//157 42//42 41//41
f 75//75 44//44 43//43
f 78//78 46//46 45//45
f 81//81 48//48 47//47
f 84//84 50//50 49//49
f 87//87 52//52 51//51
f 90//90 45//45 53//53
f 93//93 43//43 54//54
f 96//96 51//51 55//55
f 99//99 49//49 56//56
f 102//102 47//47 57//57
f 105//105 59//59 58//58
f 108//108 61//61 60//60
f 111//111 63//63 62//62
f 114//114 65//65 64//64
f 117//117 67//67 66//66
f 119//119 58//58 68//68
f 121//121 60//60 69//69
f 123//123 62//62 70//70
f 125//125 64//64 71//71
f 127//127 66//66 72//72
f 74//74 11//11 46//46
f 77//77 8//8 48//48
f 80//80 20//20 50//50
f 83//83 17//17 52//52
f 86//86 14//14 44//44
f 89//89 68//68 42//42
f 92//92 69//69 30//30
f 95//95 70//70 33//33
f 98//98 71//71 36//36
f 101//101 72//72 39//39
f 104//104 29//29 61//61
f 107//107 32//32 63//63
f 110//110 35//35 65//65
f 113//113 38//38 67//67
f 116//116 41//41 59//59
f 118//118 53//53 12//12
f 120//120 54//54 15//15
f 122//122 55//55 18//18
f 124//124 56//56 21//21
f 126//126 57//57 9//9
f 129//129 75//75 74//74
f 131//131 78//78 77//77
f 133//133 81//81 80//80
f 135//135 84//84 83//83
f 137//137 87//87 86//86
f 138//138 90//90 89//89
f 139//139 93//93 92//92
f 140//140 96//96 95//95
f 141//141 99//99 98//98
f 142//142 102//102 101//101
f 144//144 105//105 104//104
f 146//146 108//108 107//107
f 148//148 111//111 110//110
f 150//150 114//114 113//113
f 152//152 117//117 116//116
f 153//153 119//119 118//118
f 154//154 121//121 120//120
f 155//155 123//123 122//122
f 156//156 125//125 124//124
f 157//157 127//127 126//126
