# Created by Open3D 
# object name: part_030
# number of vertices: 162
# number of triangles: 320
v 0.0550196 1.54758 0.892075
vn -0.243332 -0.758478 0.604566
v 0.047785 1.53724 0.875921
vn -0.314217 -0.740482 0.594099
v 0.0540103 1.53473 0.87537
vn -0.224997 -0.773224 0.592875
v 0.0635931 1.54495 0.891861
vn -0.196809 -0.77202 0.60436
v 0.0600305 1.555 0.903213
vn -0.218887 -0.752358 0.621326
v 0.0535223 1.55655 0.902455
vn -0.31142 -0.727393 0.611488
v 0.328407 1.47447 0.886162
vn -0.143345 -0.785215 0.602404
v 0.322199 1.46302 0.869569
vn -0.167045 -0.788721 0.59162
v 0.328863 1.46208 0.869841
vn -0.0734299 -0.80487 0.588891
v 0.18791 1.49834 0.870142
vn -0.230902 -0.821316 -0.521655
v 0.060578 1.53266 0.872659
vn -0.212932 -0.735614 -0.643064
v 0.188098 1.49911 0.86923
vn -0.177017 -0.598816 -0.781079
v 0.048266 1.55172 0.862647
vn -0.473031 -0.466089 -0.747665
v 0.0466966 1.55289 0.863632
vn -0.980935 0.163123 -0.105631
v 0.0515102 1.56549 0.852373
vn -0.62182 -0.318425 -0.715503
v 0.0547256 1.57346 0.892522
vn -0.146814 0.631835 0.761071
v 0.0543192 1.56017 0.90295
vn 0.035171 0.600818 0.798612
v 0.0607689 1.58591 0.882818
vn 0.0395967 0.618481 0.784801
v 0.166451 1.5287 0.902101
vn 0.0898634 0.258264 0.961886
v 0.315931 1.48806 0.898885
vn -0.00690893 -0.110002 0.993907
v 0.322158 1.48738 0.898541
vn 0.127166 0.394791 0.909928
v 0.336027 1.50489 0.862378
vn 0.243333 0.758478 -0.604566
v 0.336338 1.49192 0.84651
vn 0.310732 0.728757 -0.610212
v 0.329829 1.49348 0.845752
vn 0.219937 0.75618 -0.616295
v 0.327378 1.50727 0.862244
vn 0.196809 0.77202 -0.60436
v 0.335849 1.51374 0.873595
vn 0.226153 0.776825 -0.587705
v 0.342075 1.51123 0.873044
vn 0.315477 0.741079 -0.592686
v 0.195172 1.52733 0.847475
vn -0.0898612 -0.258255 -0.961888
v 0.322494 1.49297 0.844913
vn -0.122964 -0.394887 -0.910464
v 0.1949 1.52627 0.847999
vn -0.167304 -0.560042 -0.811395
v 0.0626393 1.578 0.868291
vn 0.143345 0.785215 -0.602404
v 0.0616408 1.5652 0.851552
vn 0.161976 0.771678 -0.615042
v 0.0552598 1.56708 0.852589
vn 0.0699435 0.793144 -0.605004
v 0.173713 1.55769 0.879434
vn 0.2309 0.821309 0.521667
v 0.0805778 1.5828 0.880833
vn 0.257192 0.953618 0.156414
v 0.0744891 1.58395 0.881816
vn 0.208278 0.737964 0.641895
v 0.341594 1.49675 0.886318
vn 0.473029 0.46609 0.747665
v 0.342182 1.51066 0.876731
vn 0.305946 0.547259 0.779041
v 0.335732 1.48492 0.896863
vn 0.30152 0.529596 0.792852
v 0.335134 1.47501 0.856443
vn 0.146813 -0.631835 -0.761072
v 0.337113 1.47523 0.85735
vn 0.926336 -0.346881 -0.146883
v 0.332013 1.46166 0.867285
vn 0.325079 -0.680294 -0.656904
v 0.047678 1.53781 0.872234
vn -0.305946 -0.547259 -0.779041
v 0.0447425 1.53847 0.873498
vn -0.647329 -0.420271 -0.635875
v 0.309282 1.46568 0.868133
vn -0.257199 -0.952965 -0.160331
v 0.0664627 1.53061 0.873384
vn -0.259235 -0.95242 -0.160293
v 0.328219 1.48328 0.897413
vn -0.160776 -0.767895 0.620071
v 0.319664 1.47647 0.886322
vn -0.190386 -0.773738 0.604221
v 0.0673656 1.55551 0.904052
vn 0.122014 0.39358 0.911157
v 0.0731119 1.55299 0.904136
vn -0.010873 -0.116548 0.993126
v 0.052747 1.57325 0.891615
vn -0.902393 0.38198 0.199445
v 0.0510792 1.5598 0.902805
vn -0.350586 0.578449 0.736537
v 0.315371 1.46453 0.867149
vn -0.208603 -0.736776 -0.643153
v 0.0541277 1.56356 0.852102
vn -0.30152 -0.529596 -0.792852
v 0.0578469 1.58682 0.88168
vn -0.32508 0.680294 0.656904
v 0.166374 1.52985 0.901584
vn 0.167304 0.560042 0.811395
v 0.3346 1.48139 0.896376
vn -0.0686242 -0.792317 0.606238
v 0.335541 1.48831 0.846016
vn -0.035171 -0.600818 -0.798612
v 0.338781 1.48868 0.84616
vn 0.350581 -0.57845 -0.736538
v 0.0739287 1.56042 0.85008
vn 0.00771528 0.113294 -0.993532
v 0.316748 1.49549 0.844829
vn 0.00975119 0.112749 -0.993576
v 0.067661 1.58546 0.879396
vn 0.168049 0.792363 -0.586447
v 0.071307 1.57574 0.867783
vn 0.190386 0.773738 -0.604221
v 0.329282 1.51581 0.876306
vn 0.212394 0.735037 0.643902
v 0.323397 1.51787 0.875581
vn 0.259083 0.951885 0.163679
v 0.343163 1.49559 0.885333
vn 0.979838 -0.121327 0.158736
v 0.345117 1.51 0.875467
vn 0.64733 0.42027 0.635875
v 0.329091 1.46256 0.866148
vn -0.039596 -0.618481 -0.784802
v 0.0677015 1.5611 0.850424
vn -0.127293 -0.393729 -0.91037
v 0.0609971 1.58639 0.879124
vn 0.0726869 0.806001 -0.587434
v 0.173176 1.55701 0.880354
vn 0.177017 0.598818 0.781078
v 0.33835 1.48299 0.896592
vn 0.621819 0.318427 0.715504
v 0.0521037 1.53551 0.872575
vn -0.224297 -0.596887 -0.770335
v 0.0541121 1.5342 0.873492
vn -0.296914 -0.916037 -0.269665
v 0.0476832 1.53661 0.87351
vn -0.388014 -0.833533 -0.393277
v 0.317545 1.46363 0.868649
vn -0.234932 -0.922407 0.306551
v 0.309612 1.46621 0.869942
vn -0.195467 -0.781528 0.592458
v 0.18789 1.49816 0.871437
vn -0.238916 -0.918876 0.313985
v 0.323972 1.48526 0.898375
vn -0.121923 -0.539496 0.833114
v 0.16744 1.5271 0.901894
vn -0.127432 -0.543658 0.829577
v 0.315639 1.4865 0.897817
vn -0.188923 -0.759565 0.62239
v 0.0588479 1.55821 0.903767
vn 0.119495 0.560196 0.819696
v 0.0542153 1.55859 0.903721
vn -0.090709 0.167086 0.981761
v 0.060748 1.55653 0.904183
vn -0.0224563 0.00768528 0.999718
v 0.04979 1.56535 0.880561
vn -0.965848 0.258267 0.0208897
v 0.0436274 1.53983 0.874911
vn -0.98851 0.133331 0.0712105
v 0.0493712 1.55916 0.901476
vn -0.974855 0.17888 0.13289
v 0.324126 1.46278 0.866692
vn -0.134689 -0.62085 -0.772272
v 0.328535 1.46151 0.867436
vn -0.0958053 -0.911677 -0.399582
v 0.321769 1.46263 0.867703
vn -0.210839 -0.939052 -0.271528
v 0.0589896 1.563 0.851082
vn -0.209104 -0.536234 -0.817758
v 0.06719 1.5597 0.851314
vn -0.173453 -0.574997 -0.799558
v 0.0548456 1.54938 0.861765
vn -0.215777 -0.567322 -0.794724
v 0.0588897 1.58713 0.880457
vn -0.135747 0.880648 -0.453907
v 0.0557498 1.57918 0.86913
vn -0.168343 0.81399 -0.555951
v 0.0561467 1.58621 0.880328
vn -0.924216 0.38104 -0.0251716
v 0.169677 1.5435 0.891033
vn 0.172215 0.579613 0.796487
v 0.0740441 1.58277 0.883014
vn 0.170378 0.584381 0.793392
v 0.0675871 1.55699 0.903168
vn 0.168364 0.576343 0.799676
v 0.337095 1.48196 0.896837
vn 0.178967 -0.73514 0.653866
v 0.335067 1.48349 0.897646
vn 0.201503 0.0889482 0.975441
v 0.33259 1.48303 0.89776
vn -0.022158 -0.508433 0.860816
v 0.331012 1.49027 0.845199
vn -0.119494 -0.560196 -0.819696
v 0.329112 1.49194 0.844782
vn 0.0224577 -0.00768147 -0.999718
v 0.335645 1.48989 0.845244
vn 0.0907067 -0.16709 -0.98176
v 0.0658874 1.56322 0.85059
vn 0.120939 0.538747 -0.833742
v 0.0742212 1.56198 0.851148
vn 0.190383 0.764416 -0.615972
v 0.19551 1.52858 0.847653
vn 0.127431 0.543655 -0.829578
v 0.0723147 1.58485 0.880317
vn 0.234063 0.92316 -0.304942
v 0.175059 1.55751 0.87811
vn 0.238916 0.918875 -0.313986
v 0.0802482 1.58226 0.879023
vn 0.196359 0.784627 -0.58805
v 0.337756 1.51296 0.87639
vn 0.224297 0.596887 0.770335
v 0.342177 1.51187 0.875455
vn 0.388014 0.833534 0.393276
v 0.335748 1.51428 0.875473
vn 0.296913 0.916036 0.269667
v 0.341335 1.48739 0.874256
vn 0.965848 -0.258267 -0.0208896
v 0.340489 1.48931 0.847489
vn 0.976029 -0.175338 -0.128936
v 0.346232 1.50864 0.874054
vn 0.989198 -0.130607 -0.0665552
v 0.315816 1.46571 0.865952
vn -0.170971 -0.58421 -0.79339
v 0.328236 1.47628 0.855852
vn -0.128298 -0.590714 -0.796616
v 0.0547926 1.56499 0.851319
vn -0.201502 -0.088948 -0.975441
v 0.0614552 1.56352 0.850571
vn -0.0636126 0.0153376 -0.997857
v 0.0613247 1.58697 0.881529
vn 0.0958053 0.911677 0.399582
v 0.0635937 1.58673 0.880454
vn 0.155491 0.957197 -0.244123
v 0.32267 1.48878 0.897651
vn 0.173065 0.575109 0.799561
v 0.329127 1.51456 0.877497
vn 0.175069 0.583107 0.793308
v 0.335355 1.47348 0.885593
vn 0.168343 -0.81399 0.555951
v 0.339457 1.4816 0.895202
vn 0.938559 -0.332767 0.0915081
v 0.045539 1.53767 0.874681
vn -0.536765 -0.680251 0.499141
v 0.0498096 1.53567 0.87449
vn -0.333072 -0.909711 0.247969
v 0.0583059 1.53295 0.874255
vn -0.244425 -0.919862 0.306775
v 0.066516 1.53122 0.875199
vn -0.196772 -0.781178 0.592487
v 0.191691 1.51091 0.889494
vn -0.193599 -0.772883 0.604294
v 0.072543 1.5515 0.903074
vn -0.190759 -0.76082 0.620293
v 0.0647332 1.55458 0.903981
vn -0.131091 -0.534608 0.834871
v 0.0561338 1.55695 0.903739
vn -0.199737 -0.460938 0.864662
v 0.0516643 1.55829 0.90301
vn -0.49532 -0.55483 0.668447
v 0.0484881 1.55019 0.891797
vn -0.529403 -0.62741 0.571042
v 0.326266 1.46174 0.868511
vn -0.155492 -0.957197 0.244123
v 0.060733 1.53392 0.871468
vn -0.17546 -0.58301 -0.793293
v 0.0504028 1.56688 0.853763
vn -0.937648 0.336379 -0.0875472
v 0.0616236 1.5722 0.893113
vn 0.128299 0.590714 0.796615
v 0.328405 1.48496 0.898394
vn 0.0636121 -0.0153408 0.997857
v 0.338196 1.49019 0.845955
vn 0.506056 0.576891 -0.641174
v 0.333726 1.49152 0.845226
vn 0.199737 0.460937 -0.864663
v 0.325127 1.4939 0.844984
vn 0.13044 0.536227 -0.833934
v 0.317317 1.49697 0.845891
vn 0.191689 0.764068 -0.616
v 0.199435 1.54183 0.865323
vn 0.193599 0.772883 -0.604294
v 0.323344 1.51726 0.873766
vn 0.198172 0.78579 -0.585886
v 0.331554 1.51553 0.87471
vn 0.243593 0.919718 -0.307866
v 0.34005 1.51281 0.874475
vn 0.333073 0.909711 -0.247968
v 0.344321 1.51081 0.874284
vn 0.53855 0.700343 -0.46849
v 0.342617 1.50247 0.862926
vn 0.529402 0.627411 -0.571042
v 0.322273 1.49149 0.845797
vn -0.168964 -0.576197 -0.799655
v 0.0572696 1.56545 0.851205
vn 0.0221591 0.508436 -0.860815
v 0.0680912 1.58585 0.881262
vn 0.210839 0.939053 0.271526
v 0.335014 1.49909 0.8872
vn 0.215777 0.567322 0.794724
v 0.333713 1.46226 0.868637
vn 0.925167 -0.378387 0.0298215
v 0.33097 1.46135 0.868508
vn 0.145462 -0.862678 0.484383
v 0.191486 1.51265 0.858553
vn -0.172215 -0.579613 -0.796487
v 0.0527644 1.56652 0.852128
vn -0.176157 0.759322 -0.626417
v 0.0657337 1.5857 0.882273
vn 0.134689 0.620849 0.772273
v 0.33087 1.48547 0.897883
vn 0.209105 0.536234 0.817758
f 1//1 2//2 3//3
f 1//1 3//3 4//4
f 1//1 4//4 5//5
f 1//1 5//5 6//6
f 1//1 6//6 2//2
f 7//7 8//8 9//9
f 10//10 11//11 12//12
f 13//13 14//14 15//15
f 16//16 17//17 18//18
f 19//19 20//20 21//21
f 22//22 23//23 24//24
f 22//22 24//24 25//25
f 22//22 25//25 26//26
f 22//22 26//26 27//27
f 22//22 27//27 23//23
f 28//28 29//29 30//30
f 31//31 32//32 33//33
f 34//34 35//35 36//36
f 37//37 38//38 39//39
f 40//40 41//41 42//42
f 13//13 43//43 44//44
f 10//10 45//45 46//46
f 7//7 47//47 48//48
f 19//19 49//49 50//50
f 16//16 51//51 52//52
f 10//10 53//53 45//45
f 13//13 54//54 43//43
f 16//16 55//55 51//51
f 19//19 56//56 49//49
f 7//7 57//57 47//47
f 40//40 58//58 59//59
f 28//28 60//60 61//61
f 31//31 62//62 63//63
f 34//34 64//64 65//65
f 37//37 66//66 67//67
f 40//40 68//68 58//58
f 28//28 69//69 60//60
f 31//31 70//70 62//62
f 34//34 71//71 64//64
f 37//37 72//72 66//66
f 10//10 46//46 11//11
f 7//7 48//48 8//8
f 19//19 50//50 20//20
f 16//16 52//52 17//17
f 13//13 44//44 14//14
f 40//40 42//42 68//68
f 28//28 30//30 69//69
f 31//31 33//33 70//70
f 34//34 36//36 71//71
f 37//37 39//39 72//72
f 28//28 61//61 29//29
f 31//31 63//63 32//32
f 34//34 65//65 35//35
f 37//37 67//67 38//38
f 40//40 59//59 41//41
f 10//10 12//12 53//53
f 13//13 15//15 54//54
f 16//16 18//18 55//55
f 19//19 21//21 56//56
f 7//7 9//9 57//57
f 73//73 74//74 75//75
f 76//76 77//77 78//78
f 79//79 80//80 81//81
f 82//82 83//83 84//84
f 85//85 86//86 87//87
f 88//88 89//89 90//90
f 91//91 92//92 93//93
f 94//94 95//95 96//96
f 97//97 98//98 99//99
f 100//100 101//101 102//102
f 103//103 104//104 105//105
f 106//106 107//107 108//108
f 109//109 110//110 111//111
f 112//112 113//113 114//114
f 115//115 116//116 117//117
f 88//88 118//118 119//119
f 91//91 120//120 121//121
f 94//94 122//122 123//123
f 97//97 124//124 125//125
f 100//100 126//126 127//127
f 128//128 129//129 2//2
f 130//130 131//131 3//3
f 132//132 133//133 4//4
f 134//134 135//135 5//5
f 136//136 137//137 6//6
f 76//76 138//138 8//8
f 73//73 139//139 11//11
f 85//85 140//140 14//14
f 82//82 141//141 17//17
f 79//79 142//142 20//20
f 143//143 144//144 23//23
f 145//145 146//146 24//24
f 147//147 148//148 25//25
f 149//149 150//150 26//26
f 151//151 152//152 27//27
f 103//103 153//153 29//29
f 106//106 154//154 32//32
f 109//109 155//155 35//35
f 112//112 156//156 38//38
f 115//115 157//157 41//41
f 73//73 75//75 43//43
f 76//76 78//78 45//45
f 79//79 81//81 47//47
f 82//82 84//84 49//49
f 85//85 87//87 51//51
f 88//88 90//90 53//53
f 91//91 93//93 54//54
f 94//94 96//96 55//55
f 97//97 99//99 56//56
f 100//100 102//102 57//57
f 103//103 105//105 58//58
f 106//106 108//108 60//60
f 109//109 111//111 62//62
f 112//112 114//114 64//64
f 115//115 117//117 66//66
f 88//88 119//119 68//68
f 91//91 121//121 69//69
f 94//94 123//123 70//70
f 97//97 125//125 71//71
f 100//100 127//127 72//72
f 130//130 74//74 46//46
f 132//132 77//77 48//48
f 134//134 80//80 50//50
f 136//136 83//83 52//52
f 128//128 86//86 44//44
f 158//158 89//89 42//42
f 159//159 92//92 30//30
f 160//160 95//95 33//33
f 161//161 98//98 36//36
f 162//162 101//101 39//39
f 145//145 104//104 61//61
f 147//147 107//107 63//63
f 149//149 110//110 65//65
f 151//151 113//113 67//67
f 143//143 116//116 59//59
f 159//159 118//118 12//12
f 160//160 120//120 15//15
f 161//161 122//122 18//18
f 162//162 124//124 21//21
f 158//158 126//126 9//9
f 130//130 129//129 74//74
f 132//132 131//131 77//77
f 134//134 133//133 80//80
f 136//136 135//135 83//83
f 128//128 137//137 86//86
f 158//158 138//138 89//89
f 159//159 139//139 92//92
f 160//160 140//140 95//95
f 161//161 141//141 98//98
f 162//162 142//142 101//101
f 145//145 144//144 104//104
f 147//147 146//146 107//107
f 149//149 148//148 110//110
f 151//151 150//150 113//113
f 143//143 152//152 116//116
f 159//159 153//153 118//118
f 160//160 154//154 120//120
f 161//161 155//155 122//122
f 162//162 156//156 124//124
f 158//158 157//157 126//126
f 130//130 3//3 129//129
f 132//132 4//4 131//131
f 134//134 5//5 133//133
f 136//136 6//6 135//135
f 128//128 2//2 137//137
f 158//158 9//9 138//138
f 159//159 12//12 139//139
f 160//160 15//15 140//140
f 161//161 18//18 141//141
f 162//162 21//21 142//142
f 145//145 24//24 144//144
f 147//147 25//25 146//146
f 149//149 26//26 148//148
f 151//151 27//27 150//150
f 143//143 23//23 152//152
f 159//159 30//30 153//153
f 160//160 33//33 154//154
f 161//161 36//36 155//155
f 162//162 39//39 156//156
f 158//158 42//42 157//157
f 128//128 44//44 75//75
f 130//130 46//46 78//78
f 132//132 48//48 81//81
f 134//134 50//50 84//84
f 136//136 52//52 87//87
f 76//76 45//45 90//90
f 73//73 43//43 93//93
f 85//85 51//51 96//96
f 82//82 49//49 99//99
f 79//79 47//47 102//102
f 143//143 59//59 105//105
f 145//145 61//61 108//108
f 147//147 63//63 111//111
f 149//149 65//65 114//114
f 151//151 67//67 117//117
f 103//103 58//58 119//119
f 106//106 60//60 121//121
f 109//109 62//62 123//123
f 112//112 64//64 125//125
f 115//115 66//66 127//127
f 73//73 11//11 74//74
f 76//76 8//8 77//77
f 79//79 20//20 80//80
f 82//82 17//17 83//83
f 85//85 14//14 86//86
f 88//88 68//68 89//89
f 91//91 69//69 92//92
f 94//94 70//70 95//95
f 97//97 71//71 98//98
f 100//100 72//72 101//101
f 103//103 29//29 104//104
f 106//106 32//32 107//107
f 109//109 35//35 110//110
f 112//112 38//38 113//113
f 115//115 41//41 116//116
f 88//88 53//53 118//118
f 91//91 54//54 120//120
f 94//94 55//55 122//122
f 97//97 56//56 124//124
f 100//100 57//57 126//126
f 128//128 75//75 129//129
f 130//130 78//78 131//131
f 132//132 81//81 133//133
f 134//134 84//84 135//135
f 136//136 87//87 137//137
f 76//76 90//90 138//138
f 73//73 93//93 139//139
f 85//85 96//96 140//140
f 82//82 99//99 141//141
f 79//79 102//102 142//142
f 143//143 105//105 144//144
f 145//145 108//108 146//146
f 147//147 111//111 148//148
f 149//149 114//114 150//150
f 151//151 117//117 152//152
f 103//103 119//119 153//153
f 106//106 121//121 154//154
f 109//109 123//123 155//155
f 112//112 125//125 156//156
f 115//115 127//127 157//157
f 129//129 3//3 2//2
f 131//131 4//4 3//3
f 133//133 5//5 4//4
f 135//135 6//6 5//5
f 137//137 2//2 6//6
f 138//138 9//9 8//8
f 139//139 12//12 11//11
f 140//140 15//15 14//14
f 141//141 18//18 17//17
f 142//142 21//21 20//20
f 144//144 24//24 23//23
f 146//146 25//25 24//24
f 148//148 26//26 25//25
f 150//150 27//27 26//26
f 152//152 23//23 27//27
f 153//153 30//30 29//29
f 154//154 33//33 32//32
f 155//155 36//36 35//35
f 156//156 39//39 38//38
f 157//157 42//42 41//41
f 75//75 44//44 43//43
f 78//78 46//46 45//45
f 81//81 48//48 47//47
f 84//84 50//50 49//49
f 87//87 52//52 51//51
f 90//90 45//45 53//53
f 93//93 43//43 54//54
f 96//96 51//51 55//55
f 99//99 49//49 56//56
f 102//102 47//47 57//57
f 105//105 59//59 58//58
f 108//108 61//61 60//60
f 111//111 63//63 62//62
f 114//114 65//65 64//64
f 117//117 67//67 66//66
f 119//119 58//58 68//68
f 121//121 60//60 69//69
f 123//123 62//62 70//70
f 125//125 64//64 71//71
f 127//127 66//66 72//72
f 74//74 11//11 46//46
f 77//77 8//8 48//48
f 80//80 20//20 50//50
f 83//83 17//17 52//52
f 86//86 14//14 44//44
f 89//89 68//68 42//42
f 92//92 69//69 30//30
f 95//95 70//70 33//33
f 98//98 71//71 36//36
f 101//101 72//72 39//39
f 104//104 29//29 61//61
f 107//107 32//32 63//63
f 110//110 35//35 65//65
f 113//113 38//38 67//67
f 116//116 41//41 59//59
f 118//118 53//53 12//12
f 120//120 54//54 15//15
f 122//122 55//55 18//18
f 124//124 56//56 21//21
f 126//126 57//57 9//9
f 129//129 75//75 74//74
f 131//131 78//78 77//77
f 133//133 81//81 80//80
f 135//135 84//84 83//83
f 137//137 87//87 86//86
f 138//138 90//90 89//89
f 139//139 93//93 92//92
f 140//140 96//96 95//95
f 141//141 99//99 98//98
f 142//142 102//102 101//101
f 144//144 105//105 104//104
f 146//146 108//108 107//107
f 148//148 111//111 110//110
f 150//150 114//114 113//113
f 152//152 117//117 116//116
f 153//153 119//119 118//118
f 154//154 121//121 120//120
f 155//155 123//123 122//122
f 156//156 125//125 124//124
f 157//157 127//127 126//126
