# Created by Open3D 
# object name: part_049
# number of vertices: 162
# number of triangles: 320
v 0.785034 1.52779 1.19079
vn 0.84549 0.452578 0.283407
v 0.792819 1.50885 1.19418
vn 0.754764 0.321246 0.571955
v 0.795302 1.50981 1.18645
vn 0.906223 0.388684 0.166387
v 0.786288 1.52894 1.18043
vn 0.87374 0.485573 0.0282227
v 0.778299 1.54029 1.1885
vn 0.793463 0.581632 0.179223
v 0.776616 1.53789 1.19614
vn 0.696331 0.420443 0.58168
v 0.778487 1.54624 0.863551
vn 0.834533 0.483451 -0.264254
v 0.788879 1.52791 0.865432
vn 0.89974 0.406951 -0.157668
v 0.786088 1.52781 0.857741
vn 0.732079 0.385163 -0.561881
v 0.787858 1.51399 1.02575
vn 0.538963 -0.840319 -0.0581547
v 0.788936 1.50426 1.17821
vn 0.517166 -0.854018 -0.056504
v 0.781362 1.51009 1.02566
vn 0.489811 -0.869841 -0.0588355
v 0.686419 1.44694 1.1963
vn 0.47242 -0.852497 0.22376
v 0.685884 1.44785 1.19849
vn 0.108546 -0.214687 0.970632
v 0.588929 1.39301 1.19545
vn 0.433855 -0.808832 0.396939
v 0.668176 1.47963 1.19851
vn -0.461207 0.8209 0.336767
v 0.760602 1.53195 1.19633
vn -0.478945 0.859688 0.177617
v 0.575106 1.4286 1.19422
vn -0.482085 0.857939 0.177579
v 0.769391 1.54639 1.06186
vn -0.431958 0.899937 0.0593747
v 0.768927 1.5578 0.882754
vn -0.352992 0.933792 0.0585558
v 0.763665 1.55581 0.875555
vn -0.455197 0.888528 0.0575545
v 0.559341 1.42414 0.861052
vn -0.84549 -0.452578 -0.283407
v 0.57111 1.40804 0.85529
vn -0.702842 -0.414308 -0.578241
v 0.569426 1.40564 0.86293
vn -0.816604 -0.549313 -0.177237
v 0.558299 1.42261 0.871387
vn -0.87374 -0.485573 -0.0282226
v 0.552424 1.43611 0.864988
vn -0.92155 -0.352054 -0.163717
v 0.554906 1.43708 0.857251
vn -0.756733 -0.312183 -0.574367
v 0.57901 1.39763 1.02337
vn 0.431954 -0.899939 -0.0593748
v 0.577959 1.40731 0.870899
vn 0.454965 -0.888406 -0.0611714
v 0.585743 1.4011 1.02343
vn 0.482935 -0.873672 -0.058914
v 0.565888 1.40569 1.18829
vn -0.834533 -0.483451 0.264252
v 0.575849 1.38754 1.18394
vn -0.810122 -0.567579 0.14682
v 0.577841 1.38907 1.19173
vn -0.680159 -0.478225 0.555594
v 0.560544 1.43003 1.05948
vn -0.538963 0.840319 0.0581547
v 0.56002 1.42178 1.17095
vn -0.610953 0.789532 0.0580918
v 0.564891 1.42447 1.1782
vn -0.517311 0.853622 0.0609859
v 0.661306 1.49899 0.855135
vn -0.47242 0.852497 -0.22376
v 0.568367 1.44759 0.857373
vn -0.486853 0.871372 -0.0607029
v 0.753863 1.55094 0.859488
vn -0.483713 0.873122 -0.0606642
v 0.67955 1.46629 0.852926
vn 0.461207 -0.8209 -0.336767
v 0.678929 1.46745 0.850873
vn 0.0692772 -0.104037 -0.992158
v 0.776693 1.52084 0.853816
vn 0.434579 -0.747718 -0.502055
v 0.779358 1.49833 1.19406
vn 0.486853 -0.871372 0.060703
v 0.783572 1.50146 1.19767
vn 0.452567 -0.798405 0.397155
v 0.787706 1.52414 0.880481
vn 0.61003 -0.790253 -0.0579992
v 0.793521 1.50776 1.17113
vn 0.610079 -0.790393 -0.0555179
v 0.771877 1.55838 0.86749
vn 0.786992 0.599866 -0.144238
v 0.780155 1.54622 0.873917
vn 0.873009 0.487632 -0.00830619
v 0.769767 1.53862 1.18053
vn -0.454714 0.888498 0.0616988
v 0.774742 1.54142 1.1734
vn -0.350918 0.934414 0.0610563
v 0.668796 1.47848 1.20056
vn -0.106285 0.170718 0.979571
v 0.765675 1.53353 1.19984
vn -0.415867 0.758145 0.502266
v 0.782835 1.52145 0.873235
vn 0.517087 -0.853795 -0.0604636
v 0.593863 1.39499 1.19195
vn 0.483713 -0.873122 0.0606642
v 0.571033 1.42509 1.19762
vn -0.434579 0.747717 0.502055
v 0.762667 1.5429 1.06222
vn -0.482934 0.873672 0.0589141
v 0.769885 1.55686 0.859702
vn 0.673529 0.484692 -0.558061
v 0.587124 1.41397 0.855102
vn 0.478945 -0.859688 -0.177617
v 0.58205 1.41239 0.851597
vn 0.415867 -0.758145 -0.502265
v 0.578798 1.38813 1.16868
vn 0.352069 -0.934147 -0.0584603
v 0.572984 1.40451 0.878032
vn 0.35202 -0.934006 -0.0609405
v 0.558846 1.41802 1.186
vn -0.915077 -0.370291 0.159744
v 0.564431 1.40533 1.1779
vn -0.873009 -0.487633 0.00830638
v 0.558789 1.44167 0.873219
vn -0.517008 0.854091 0.0568496
v 0.554205 1.43817 0.880305
vn -0.609289 0.790995 0.055633
v 0.661841 1.49808 0.852941
vn -0.144872 0.279447 -0.949169
v 0.564154 1.44447 0.853763
vn -0.452567 0.798405 -0.397156
v 0.772619 1.51732 0.857218
vn 0.482085 -0.857939 -0.17758
v 0.58406 1.39011 1.17588
vn 0.455043 -0.88863 -0.0572123
v 0.561637 1.41811 1.19369
vn -0.73393 -0.376434 0.56537
v 0.567048 1.43391 1.05999
vn -0.489812 0.869841 0.0588355
v 0.758796 1.55292 0.855982
vn -0.433855 0.808832 -0.396939
v 0.785663 1.50189 1.18849
vn 0.49216 -0.870303 -0.0187437
v 0.792034 1.50597 1.18597
vn 0.58618 -0.810126 -0.0094198
v 0.788684 1.50392 1.19385
vn 0.557423 -0.825154 0.0916523
v 0.788859 1.52619 0.87071
vn 0.800385 -0.596338 -0.0613574
v 0.790265 1.52764 0.880461
vn 0.915167 0.403074 0.000702748
v 0.792557 1.51766 1.02586
vn 0.806238 -0.589528 -0.049364
v 0.770707 1.55872 0.872908
vn -0.0861237 0.995135 0.0478437
v 0.774958 1.54855 1.06028
vn -0.0779865 0.995285 0.0576681
v 0.773243 1.55815 0.882521
vn 0.793873 0.607909 0.0145727
v 0.766616 1.53602 1.1908
vn -0.479793 0.871788 0.0989135
v 0.770236 1.53698 1.19608
vn -0.4008 0.892324 0.207649
v 0.773293 1.53956 1.18824
vn -0.378693 0.919272 0.107377
v 0.675567 1.46633 1.20042
vn 0.019971 -0.0562731 0.998216
v 0.782879 1.50292 1.19946
vn 0.0615478 -0.0813831 0.994781
v 0.766657 1.532 1.20142
vn 0.0172196 -0.00214846 0.999849
v 0.779149 1.52024 0.862892
vn 0.490559 -0.865791 -0.0987843
v 0.781959 1.52287 0.85768
vn 0.551468 -0.80838 -0.205925
v 0.785625 1.52403 0.865598
vn 0.584265 -0.804738 -0.10503
v 0.587624 1.39155 1.18624
vn 0.481394 -0.876301 -0.0188645
v 0.593742 1.39528 1.17615
vn 0.485706 -0.87227 -0.0568804
v 0.686708 1.44658 1.18818
vn 0.486786 -0.873297 -0.0197896
v 0.564728 1.42095 1.1964
vn -0.50988 0.0603024 0.858129
v 0.571115 1.40826 1.19642
vn -0.352867 -0.257621 0.899509
v 0.571793 1.42343 1.1992
vn -0.0246299 -0.0254652 0.999372
v 0.664822 1.48846 1.06124
vn -0.486377 0.871763 0.0588753
v 0.574385 1.42997 1.17849
vn -0.487037 0.87122 0.0614019
v 0.760092 1.53344 1.18061
vn -0.485612 0.872014 0.0614179
v 0.765698 1.55599 0.857122
vn 0.168359 0.551827 -0.816788
v 0.763511 1.55593 0.859913
vn -0.406756 0.909099 -0.089935
v 0.768897 1.55807 0.862566
vn -0.152531 0.979606 -0.130792
v 0.581109 1.4099 0.860634
vn 0.479793 -0.871788 -0.0989134
v 0.574433 1.40637 0.86319
vn 0.378693 -0.919272 -0.107377
v 0.577489 1.40895 0.855349
vn 0.4008 -0.892324 -0.207649
v 0.577019 1.38721 1.17853
vn 0.087541 -0.995093 -0.0461221
v 0.574483 1.38777 1.16891
vn -0.824032 -0.566422 -0.0117346
v 0.573412 1.39557 1.02336
vn 0.0779864 -0.995285 -0.0576681
v 0.558867 1.41974 1.18072
vn -0.799122 0.597763 0.0639022
v 0.555813 1.42645 1.05778
vn -0.806238 0.589528 0.049364
v 0.557461 1.41828 1.17097
vn -0.92846 -0.37143 0.00150134
v 0.562062 1.44404 0.862939
vn -0.49216 0.870303 0.0187436
v 0.559041 1.44201 0.857582
vn -0.557423 0.825155 -0.0916523
v 0.555691 1.43996 0.865459
vn -0.58618 0.810126 0.00941976
v 0.668585 1.486 0.851448
vn -0.0199711 0.0562731 -0.998216
v 0.581068 1.41393 0.850012
vn -0.0203866 0.00760756 -0.999763
v 0.564846 1.443 0.851976
vn -0.0645131 0.0869156 -0.994125
v 0.773341 1.51596 0.872941
vn 0.487046 -0.871253 -0.0608696
v 0.680161 1.46503 0.860938
vn 0.485224 -0.868895 -0.0978704
v 0.584215 1.38999 1.19152
vn 0.406756 -0.909099 0.089935
v 0.580842 1.3883 1.18357
vn 0.380611 -0.92466 -0.0117659
v 0.565767 1.42306 1.19375
vn -0.551468 0.80838 0.205925
v 0.560968 1.41987 1.19103
vn -0.742867 0.625255 0.239174
v 0.753983 1.55065 0.875284
vn -0.4857 0.87225 0.057228
v 0.568276 1.44718 0.873166
vn -0.487118 0.87146 0.0572118
v 0.773095 1.54397 0.855435
vn 0.352868 0.257621 -0.899509
v 0.75971 1.55157 0.854197
vn -0.0226634 0.110232 -0.993648
v 0.789832 1.50572 1.19668
vn 0.506384 -0.0680004 0.859622
v 0.793378 1.5074 1.19131
vn 0.7504 -0.646502 0.137602
v 0.795067 1.50869 1.18101
vn 0.800849 -0.59766 -0.0379878
v 0.796086 1.51124 1.17144
vn 0.915315 0.402657 0.00809756
v 0.783435 1.53821 1.0272
vn 0.873521 0.486684 0.00996
v 0.779064 1.54175 1.1735
vn 0.804226 0.593944 0.0212579
v 0.776915 1.54123 1.18321
vn -0.0889727 0.993428 0.0719998
v 0.775517 1.53941 1.19348
vn -0.144985 0.958366 0.245995
v 0.772533 1.53673 1.19877
vn 0.202031 0.456946 0.866247
v 0.779964 1.52462 1.19881
vn 0.389029 0.155728 0.907968
v 0.786758 1.52605 0.860404
vn 0.742868 -0.625255 -0.239174
v 0.779449 1.49874 1.17827
vn 0.487126 -0.871478 -0.0568644
v 0.588015 1.39435 1.19724
vn 0.0195079 -0.104805 0.994301
v 0.667565 1.4809 1.1905
vn -0.485224 0.868895 0.0978704
v 0.766883 1.55762 0.867867
vn -0.380611 0.92466 0.0117658
v 0.575192 1.4092 0.852659
vn -0.258369 -0.376534 -0.889645
v 0.572208 1.40652 0.857957
vn 0.144985 -0.958366 -0.245996
v 0.570811 1.4047 0.868224
vn 0.0870533 -0.993777 -0.0694915
v 0.568661 1.40418 0.877934
vn -0.824179 -0.566006 -0.0191294
v 0.560717 1.41412 1.02466
vn -0.873521 -0.486684 -0.0099599
v 0.551639 1.43469 0.879994
vn -0.934772 -0.355212 -0.00513769
v 0.552659 1.43723 0.870421
vn -0.801661 0.596461 0.0396839
v 0.554347 1.43853 0.86012
vn -0.7504 0.646502 -0.137602
v 0.557893 1.44021 0.854753
vn -0.543553 0.155182 -0.824905
v 0.564245 1.42761 0.853053
vn -0.38903 -0.155729 -0.907967
v 0.587634 1.41249 0.870823
vn 0.485625 -0.872044 -0.0608858
v 0.578828 1.38786 1.18887
vn 0.152531 -0.979606 0.130792
v 0.562101 1.4219 1.18584
vn -0.584266 0.804738 0.10503
v 0.661018 1.49934 0.863255
vn -0.486786 0.873297 0.0197895
v 0.775932 1.5225 0.852234
vn 0.0216529 0.03103 -0.999284
v 0.782997 1.52498 0.855028
vn 0.471554 0.0301435 -0.881322
v 0.68359 1.45553 1.02454
vn 0.486377 -0.871763 -0.0588753
v 0.582028 1.38994 1.19431
vn -0.223537 -0.474678 0.8513
v 0.568577 1.42569 1.18854
vn -0.490559 0.865791 0.0987843
v 0.760102 1.55438 0.865197
vn -0.481395 0.876301 0.0188644
f 1//1 2//2 3//3
f 1//1 3//3 4//4
f 1//1 4//4 5//5
f 1//1 5//5 6//6
f 1//1 6//6 2//2
f 7//7 8//8 9//9
f 10//10 11//11 12//12
f 13//13 14//14 15//15
f 16//16 17//17 18//18
f 19//19 20//20 21//21
f 22//22 23//23 24//24
f 22//22 24//24 25//25
f 22//22 25//25 26//26
f 22//22 26//26 27//27
f 22//22 27//27 23//23
f 28//28 29//29 30//30
f 31//31 32//32 33//33
f 34//34 35//35 36//36
f 37//37 38//38 39//39
f 40//40 41//41 42//42
f 13//13 43//43 44//44
f 10//10 45//45 46//46
f 7//7 47//47 48//48
f 19//19 49//49 50//50
f 16//16 51//51 52//52
f 10//10 53//53 45//45
f 13//13 54//54 43//43
f 16//16 55//55 51//51
f 19//19 56//56 49//49
f 7//7 57//57 47//47
f 40//40 58//58 59//59
f 28//28 60//60 61//61
f 31//31 62//62 63//63
f 34//34 64//64 65//65
f 37//37 66//66 67//67
f 40//40 68//68 58//58
f 28//28 69//69 60//60
f 31//31 70//70 62//62
f 34//34 71//71 64//64
f 37//37 72//72 66//66
f 10//10 46//46 11//11
f 7//7 48//48 8//8
f 19//19 50//50 20//20
f 16//16 52//52 17//17
f 13//13 44//44 14//14
f 40//40 42//42 68//68
f 28//28 30//30 69//69
f 31//31 33//33 70//70
f 34//34 36//36 71//71
f 37//37 39//39 72//72
f 28//28 61//61 29//29
f 31//31 63//63 32//32
f 34//34 65//65 35//35
f 37//37 67//67 38//38
f 40//40 59//59 41//41
f 10//10 12//12 53//53
f 13//13 15//15 54//54
f 16//16 18//18 55//55
f 19//19 21//21 56//56
f 7//7 9//9 57//57
f 73//73 74//74 75//75
f 76//76 77//77 78//78
f 79//79 80//80 81//81
f 82//82 83//83 84//84
f 85//85 86//86 87//87
f 88//88 89//89 90//90
f 91//91 92//92 93//93
f 94//94 95//95 96//96
f 97//97 98//98 99//99
f 100//100 101//101 102//102
f 103//103 104//104 105//105
f 106//106 107//107 108//108
f 109//109 110//110 111//111
f 112//112 113//113 114//114
f 115//115 116//116 117//117
f 88//88 118//118 119//119
f 91//91 120//120 121//121
f 94//94 122//122 123//123
f 97//97 124//124 125//125
f 100//100 126//126 127//127
f 128//128 129//129 2//2
f 130//130 131//131 3//3
f 132//132 133//133 4//4
f 134//134 135//135 5//5
f 136//136 137//137 6//6
f 76//76 138//138 8//8
f 73//73 139//139 11//11
f 85//85 140//140 14//14
f 82//82 141//141 17//17
f 79//79 142//142 20//20
f 143//143 144//144 23//23
f 145//145 146//146 24//24
f 147//147 148//148 25//25
f 149//149 150//150 26//26
f 151//151 152//152 27//27
f 103//103 153//153 29//29
f 106//106 154//154 32//32
f 109//109 155//155 35//35
f 112//112 156//156 38//38
f 115//115 157//157 41//41
f 73//73 75//75 43//43
f 76//76 78//78 45//45
f 79//79 81//81 47//47
f 82//82 84//84 49//49
f 85//85 87//87 51//51
f 88//88 90//90 53//53
f 91//91 93//93 54//54
f 94//94 96//96 55//55
f 97//97 99//99 56//56
f 100//100 102//102 57//57
f 103//103 105//105 58//58
f 106//106 108//108 60//60
f 109//109 111//111 62//62
f 112//112 114//114 64//64
f 115//115 117//117 66//66
f 88//88 119//119 68//68
f 91//91 121//121 69//69
f 94//94 123//123 70//70
f 97//97 125//125 71//71
f 100//100 127//127 72//72
f 130//130 74//74 46//46
f 132//132 77//77 48//48
f 134//134 80//80 50//50
f 136//136 83//83 52//52
f 128//128 86//86 44//44
f 158//158 89//89 42//42
f 159//159 92//92 30//30
f 160//160 95//95 33//33
f 161//161 98//98 36//36
f 162//162 101//101 39//39
f 145//145 104//104 61//61
f 147//147 107//107 63//63
f 149//149 110//110 65//65
f 151//151 113//113 67//67
f 143//143 116//116 59//59
f 159//159 118//118 12//12
f 160//160 120//120 15//15
f 161//161 122//122 18//18
f 162//162 124//124 21//21
f 158//158 126//126 9//9
f 130//130 129//129 74//74
f 132//132 131//131 77//77
f 134//134 133//133 80//80
f 136//136 135//135 83//83
f 128//128 137//137 86//86
f 158//158 138//138 89//89
f 159//159 139//139 92//92
f 160//160 140//140 95//95
f 161//161 141//141 98//98
f 162//162 142//142 101//101
f 145//145 144//144 104//104
f 147//147 146//146 107//107
f 149//149 148//148 110//110
f 151//151 150//150 113//113
f 143//143 152//152 116//116
f 159//159 153//153 118//118
f 160//160 154//154 120//120
f 161//161 155//155 122//122
f 162//162 156//156 124//124
f 158//158 157//157 126//126
f 130//130 3//3 129//129
f 132//132 4//4 131//131
f 134//134 5//5 133//133
f 136//136 6//6 135//135
f 128//128 2//2 137//137
f 158//158 9//9 138//138
f 159//159 12//12 139//139
f 160//160 15//15 140//140
f 161//161 18//18 141//141
f 162//162 21//21 142//142
f 145//145 24//24 144//144
f 147//147 25//25 146//146
f 149//149 26//26 148//148
f 151//151 27//27 150//150
f 143//143 23//23 152//152
f 159//159 30//30 153//153
f 160//160 33//33 154//154
f 161//161 36//36 155//155
f 162//162 39//39 156//156
f 158//158 42//42 157//157
f 128//128 44//44 75//75
f 130//130 46//46 78//78
f 132//132 48//48 81//81
f 134//134 50//50 84//84
f 136//136 52//52 87//87
f 76//76 45//45 90//90
f 73//73 43//43 93//93
f 85//85 51//51 96//96
f 82//82 49//49 99//99
f 79//79 47//47 102//102
f 143//143 59//59 105//105
f 145//145 61//61 108//108
f 147//147 63//63 111//111
f 149//149 65//65 114//114
f 151//151 67//67 117//117
f 103//103 58//58 119//119
f 106//106 60//60 121//121
f 109//109 62//62 123//123
f 112//112 64//64 125//125
f 115//115 66//66 127//127
f 73//73 11//11 74//74
f 76//76 8//8 77//77
f 79//79 20//20 80//80
f 82//82 17//17 83//83
f 85//85 14//14 86//86
f 88//88 68//68 89//89
f 91//91 69//69 92//92
f 94//94 70//70 95//95
f 97//97 71//71 98//98
f 100//100 72//72 101//101
f 103//103 29//29 104//104
f 106//106 32//32 107//107
f 109//109 35//35 110//110
f 112//112 38//38 113//113
f 115//115 41//41 116//116
f 88//88 53//53 118//118
f 91//91 54//54 120//120
f 94//94 55//55 122//122
f 97//97 56//56 124//124
f 100//100 57//57 126//126
f 128//128 75//75 129//129
f 130//130 78//78 131//131
f 132//132 81//81 133//133
f 134//134 84//84 135//135
f 136//136 87//87 137//137
f 76//76 90//90 138//138
f 73//73 93//93 139//139
f 85//85 96//96 140//140
f 82//82 99//99 141//141
f 79//79 102//102 142//142
f 143//143 105//105 144//144
f 145//145 108//108 146//146
f 147//147 111//111 148//148
f 149//149 114//114 150//150
f 151//151 117//117 152//152
f 103//103 119//119 153//153
f 106//106 121//121 154//154
f 109//109 123//123 155//155
f 112//112 125//125 156//156
f 115//115 127//127 157//157
f 129//129 3//3 2//2
f 131//131 4//4 3//3
f 133//133 5//5 4//4
f 135//135 6//6 5//5
f 137//137 2//2 6//6
f 138//138 9//9 8//8
f 139//139 12//12 11//11
f 140//140 15//15 14//14
f 141//141 18//18 17//17
f 142//142 21//21 20//20
f 144//144 24//24 23//23
f 146//146 25//25 24//24
f 148//148 26//26 25//25
f 150//150 27//27 26//26
f 152//152 23//23 27//27
f 153//153 30//30 29//29
f 154//154 33//33 32//32
f 155//155 36//36 35//35
f 156//156 39//39 38//38
f 157//157 42//42 41//41
f 75//75 44//44 43//43
f 78//78 46//46 45//45
f 81//81 48//48 47//47
f 84//84 50//50 49//49
f 87//87 52//52 51//51
f 90//90 45//45 53//53
f 93//93 43//43 54//54
f 96//96 51//51 55//55
f 99//99 49//49 56//56
f 102//102 47//47 57//57
f 105//105 59//59 58//58
f 108//108 61//61 60//60
f 111//111 63//63 62//62
f 114//114 65//65 64//64
f 117//117 67//67 66//66
f 119//119 58//58 68//68
f 121//121 60//60 69//69
f 123//123 62//62 70//70
f 125//125 64//64 71//71
f 127//127 66//66 72//72
f 74//74 11//11 46//46
f 77//77 8//8 48//48
f 80//80 20//20 50//50
f 83//83 17//17 52//52
f 86//86 14//14 44//44
f 89//89 68//68 42//42
f 92//92 69//69 30//30
f 95//95 70//70 33//33
f 98//98 71//71 36//36
f 101//101 72//72 39//39
f 104//104 29//29 61//61
f 107//107 32//32 63//63
f 110//110 35//35 65//65
f 113//113 38//38 67//67
f 116//116 41//41 59//59
f 118//118 53//53 12//12
f 120//120 54//54 15//15
f 122//122 55//55 18//18
f 124//124 56//56 21//21
f 126//126 57//57 9//9
f 129//129 75//75 74//74
f 131//131 78//78 77//77
f 133//133 81//81 80//80
f 135//135 84//84 83//83
f 137//137 87//87 86//86
f 138//138 90//90 89//89
f 139//139 93//93 92//92
f 140//140 96//96 95//95
f 141//141 99//99 98//98
f 142//142 102//102 101//101
f 144//144 105//105 104//104
f 146//146 108//108 107//107
f 148//148 111//111 110//110
f 150//150 114//114 113//113
f 152//152 117//117 116//116
f 153//153 119//119 118//118
f 154//154 121//121 120//120
f 155//155 123//123 122//122
f 156//156 125//125 124//124
f 157//157 127//127 126//126
