# Created by Open3D 
# object name: part_055
# number of vertices: 162
# number of triangles: 320
v 0.708229 1.87956 1.29912
vn 0.527083 -0.840841 0.123168
v 0.691063 1.86936 1.30163
vn 0.498785 -0.769474 0.398903
v 0.690389 1.86866 1.3002
vn 0.511958 -0.858509 0.0293611
v 0.707924 1.87934 1.29715
vn 0.514235 -0.852752 -0.0915213
v 0.720096 1.88688 1.29741
vn 0.542089 -0.839891 0.0268844
v 0.719374 1.88672 1.29897
vn 0.514536 -0.75809 0.40069
v 0.700525 1.88266 1.23727
vn 0.470588 -0.818139 -0.330447
v 0.682832 1.8717 1.23952
vn 0.478656 -0.845124 -0.23802
v 0.683142 1.87255 1.23804
vn 0.376552 -0.720351 -0.582497
v 0.684252 1.86985 1.27014
vn -0.604759 -0.795617 0.0354996
v 0.687636 1.8687 1.299
vn -0.714129 -0.697054 0.0643104
v 0.683437 1.87073 1.27028
vn -0.836687 -0.542232 0.0770686
v 0.67947 1.88469 1.30451
vn -0.360065 -0.32577 0.874201
v 0.680529 1.88529 1.30482
vn 0.0933043 -0.0680082 0.993312
v 0.670822 1.89976 1.30639
vn -0.198278 -0.20727 0.95798
v 0.711345 1.90423 1.30152
vn 0.566986 0.242607 0.78719
v 0.720252 1.89034 1.29909
vn 0.789405 0.405715 0.460689
v 0.703181 1.91873 1.30263
vn 0.77941 0.422342 0.462761
v 0.718495 1.89003 1.27338
vn 0.978084 0.174832 -0.113069
v 0.714231 1.89109 1.2395
vn 0.969011 -0.206542 -0.135491
v 0.71395 1.89212 1.23821
vn 0.940692 0.321081 -0.109572
v 0.680357 1.91619 1.24146
vn -0.527083 0.840841 -0.123168
v 0.663357 1.90544 1.24215
vn -0.513842 0.760248 -0.39748
v 0.662635 1.90529 1.24372
vn -0.536733 0.843319 -0.0270315
v 0.680291 1.91619 1.24346
vn -0.514235 0.852752 0.0915205
v 0.692342 1.9235 1.24093
vn -0.506523 0.861696 -0.0302274
v 0.691669 1.9228 1.23949
vn -0.497003 0.768841 -0.402332
v 0.665032 1.90181 1.27413
vn -0.978082 -0.174846 0.113068
v 0.661601 1.90293 1.24527
vn -0.943307 -0.319131 0.0912588
v 0.665434 1.90067 1.27402
vn -0.862396 -0.499482 0.0824094
v 0.688061 1.9131 1.30331
vn -0.470587 0.818138 0.330451
v 0.670192 1.90225 1.30439
vn -0.503432 0.829938 0.240332
v 0.671278 1.90226 1.30574
vn -0.391609 0.711123 0.583906
v 0.699274 1.922 1.27738
vn 0.604755 0.79562 -0.0354989
v 0.701312 1.9212 1.29854
vn 0.259056 0.965627 0.0213189
v 0.702275 1.92058 1.29977
vn 0.715799 0.697085 -0.041284
v 0.703261 1.90748 1.23662
vn 0.360065 0.32577 -0.874201
v 0.695251 1.92192 1.23896
vn 0.647613 0.475321 -0.595539
v 0.712322 1.89353 1.23542
vn 0.657611 0.458699 -0.597614
v 0.671386 1.88794 1.23961
vn -0.566986 -0.242607 -0.78719
v 0.672346 1.88857 1.23911
vn -0.153427 0.0311478 -0.987669
v 0.68064 1.87323 1.23767
vn -0.401534 -0.160476 -0.901675
v 0.68748 1.87025 1.30216
vn -0.647613 -0.475321 0.595539
v 0.688735 1.86998 1.30267
vn -0.170624 -0.25327 0.95223
v 0.68142 1.87097 1.24258
vn -0.262838 -0.964625 -0.0203711
v 0.688262 1.86822 1.29752
vn -0.261684 -0.965092 -0.0108906
v 0.712539 1.88992 1.23673
vn 0.508701 -0.826477 -0.24116
v 0.700709 1.88224 1.23922
vn 0.510515 -0.851255 -0.121405
v 0.72113 1.88923 1.29585
vn 0.944128 0.317411 -0.0887276
v 0.721073 1.88834 1.29444
vn 0.968602 -0.214256 -0.126114
v 0.710386 1.90359 1.30201
vn 0.166465 -0.0230713 0.985777
v 0.720004 1.88915 1.29973
vn 0.429192 0.114479 0.895929
v 0.680456 1.87158 1.24135
vn -0.716631 -0.696053 0.044159
v 0.670409 1.89864 1.30571
vn -0.657611 -0.458699 0.597614
v 0.702091 1.91893 1.30345
vn 0.401534 0.160476 0.901675
v 0.718103 1.89117 1.27357
vn 0.862398 0.499479 -0.0824098
v 0.711454 1.8899 1.23538
vn 0.391526 -0.708655 -0.586954
v 0.662479 1.90182 1.24204
vn -0.789405 -0.405715 -0.460689
v 0.662727 1.90302 1.24139
vn -0.429192 -0.114479 -0.895929
v 0.668501 1.90108 1.30162
vn -0.968244 0.20983 0.135921
v 0.661658 1.90383 1.24669
vn -0.969422 0.210317 0.126445
v 0.699899 1.92046 1.3016
vn -0.473134 0.848278 0.237843
v 0.687507 1.91329 1.30139
vn -0.510515 0.851255 0.121405
v 0.695095 1.92347 1.24213
vn 0.715101 0.696203 -0.0626981
v 0.694469 1.92395 1.24361
vn 0.264973 0.964195 0.0107976
v 0.702202 1.90688 1.23631
vn -0.0801054 0.0760171 -0.993884
v 0.693996 1.92219 1.23846
vn 0.170624 0.25327 -0.95223
v 0.679551 1.87344 1.23849
vn -0.77941 -0.422342 -0.462761
v 0.668781 1.90005 1.30292
vn -0.940795 -0.320144 0.111408
v 0.699589 1.91962 1.30309
vn -0.37399 0.719403 0.585312
v 0.7001 1.92111 1.27731
vn 0.836685 0.542234 -0.0770683
v 0.711909 1.8924 1.23474
vn 0.198278 0.20727 -0.95798
v 0.687671 1.86919 1.301
vn -0.785782 -0.552417 0.278176
v 0.688482 1.86837 1.30036
vn -0.33697 -0.920904 0.195925
v 0.688615 1.86897 1.30189
vn -0.334084 -0.74317 0.57973
v 0.681889 1.87114 1.24064
vn 0.199467 -0.975177 -0.0961436
v 0.683267 1.87138 1.24234
vn 0.499452 -0.859543 -0.108323
v 0.685512 1.86954 1.26996
vn 0.209782 -0.974873 -0.0749249
v 0.713605 1.89059 1.23766
vn 0.761582 -0.631512 -0.145552
v 0.718146 1.88878 1.27306
vn 0.759897 -0.637604 -0.12656
v 0.713008 1.88962 1.23955
vn 0.531391 -0.839768 -0.111417
v 0.720951 1.88959 1.29788
vn 0.87606 0.466466 0.12218
v 0.720848 1.88873 1.29887
vn 0.885144 0.00436146 0.465296
v 0.721228 1.88844 1.29728
vn 0.991788 -0.106237 0.0712091
v 0.698595 1.89635 1.30325
vn 0.123443 -0.0496092 0.991111
v 0.690248 1.87084 1.30284
vn 0.13151 -0.078686 0.988187
v 0.718591 1.88822 1.30018
vn 0.14617 -0.069553 0.986811
v 0.680006 1.87227 1.23946
vn -0.836667 -0.531969 -0.130374
v 0.680701 1.87215 1.23835
vn -0.474868 -0.686599 -0.55053
v 0.68094 1.8714 1.2398
vn -0.385903 -0.901237 -0.197106
v 0.669445 1.89949 1.30479
vn -0.82517 -0.486914 0.286372
v 0.669503 1.89848 1.30278
vn -0.851106 -0.51709 0.0907567
v 0.678494 1.88428 1.30306
vn -0.807532 -0.520335 0.277748
v 0.700938 1.91963 1.30342
vn -0.0944458 0.42296 0.901213
v 0.688869 1.91232 1.30472
vn -0.146193 0.37838 0.914033
v 0.700658 1.91804 1.30391
vn 0.116348 -0.0199659 0.993008
v 0.70917 1.90618 1.27546
vn 0.849809 0.521021 -0.079764
v 0.703325 1.91922 1.29961
vn 0.848705 0.524735 -0.0659805
v 0.720416 1.8908 1.29606
vn 0.854033 0.515875 -0.0670884
v 0.712019 1.89106 1.23487
vn 0.210402 -0.351862 -0.912099
v 0.712934 1.89191 1.23532
vn 0.744366 0.0609265 -0.664986
v 0.712947 1.8908 1.23577
vn 0.692561 -0.518133 -0.501893
v 0.66178 1.90257 1.24325
vn -0.87606 -0.466466 -0.12218
v 0.661504 1.90372 1.24384
vn -0.991788 0.106237 -0.0712091
v 0.661883 1.90344 1.24226
vn -0.885144 -0.00436146 -0.465296
v 0.669126 1.90158 1.30346
vn -0.761848 0.630402 0.148932
v 0.669723 1.90255 1.30158
vn -0.524539 0.844162 0.110678
v 0.665344 1.90308 1.27415
vn -0.759897 0.637604 0.12656
v 0.700842 1.92102 1.30048
vn -0.197228 0.975168 0.100743
v 0.697978 1.92232 1.27725
vn -0.209782 0.974873 0.0749249
v 0.699464 1.92078 1.29879
vn -0.494745 0.862299 0.108015
v 0.69506 1.92298 1.24012
vn 0.785782 0.552417 -0.278176
v 0.694116 1.9232 1.23923
vn 0.334084 0.74317 -0.57973
v 0.694249 1.9238 1.24077
vn 0.33697 0.920904 -0.195925
v 0.69038 1.89965 1.23729
vn -0.123443 0.0496092 -0.991111
v 0.66414 1.90395 1.24094
vn -0.14521 0.0702857 -0.986901
v 0.692483 1.92132 1.23828
vn -0.130423 0.079206 -0.98829
v 0.679406 1.87295 1.24152
vn -0.848395 -0.524878 0.0687623
v 0.67079 1.88738 1.24121
vn -0.857257 -0.500355 -0.12147
v 0.669797 1.90026 1.3058
vn -0.744366 -0.0609265 0.664986
v 0.669046 1.90069 1.3044
vn -0.942834 0.086563 0.321823
v 0.70203 1.92002 1.30278
vn 0.474868 0.686599 0.55053
v 0.700991 1.9205 1.30242
vn -0.0830429 0.891833 0.444678
v 0.713228 1.89368 1.23834
vn 0.851342 0.517017 -0.088946
v 0.696137 1.9221 1.2419
vn 0.846038 0.525836 -0.0878438
v 0.700006 1.88361 1.23583
vn 0.146193 -0.37838 -0.914033
v 0.710417 1.8915 1.23455
vn -0.100603 0.0296204 -0.994486
v 0.689837 1.8693 1.30228
vn 0.323016 -0.495675 0.806205
v 0.68953 1.86853 1.30125
vn 0.178417 -0.93015 0.320919
v 0.689194 1.86821 1.29929
vn 0.205047 -0.977371 -0.0519721
v 0.690117 1.86863 1.29734
vn 0.500208 -0.859847 -0.102247
v 0.704736 1.88095 1.26814
vn 0.512433 -0.852101 -0.106475
v 0.719859 1.88687 1.29455
vn 0.529906 -0.841545 -0.10489
v 0.72091 1.88765 1.29632
vn 0.76891 -0.631487 -0.100011
v 0.720737 1.88767 1.29832
vn 0.787916 -0.55646 0.263705
v 0.720062 1.88783 1.29945
vn 0.422858 -0.437238 0.793734
v 0.70809 1.88036 1.30073
vn 0.360762 -0.464614 0.808693
v 0.68174 1.87166 1.2387
vn 0.0830429 -0.891833 -0.444678
v 0.686594 1.87006 1.29923
vn -0.845792 -0.525926 0.0896525
v 0.672314 1.90066 1.30657
vn 0.101562 -0.0288877 0.99441
v 0.711941 1.90479 1.29992
vn 0.857257 0.500355 0.12147
v 0.713686 1.89148 1.23673
vn 0.942834 -0.086563 -0.321823
v 0.662669 1.90433 1.24168
vn -0.40469 0.445565 -0.79856
v 0.661994 1.9045 1.24281
vn -0.787916 0.55646 -0.263705
v 0.661821 1.90451 1.24481
vn -0.767352 0.632613 0.10475
v 0.662873 1.9053 1.24658
vn -0.525296 0.844466 0.104602
v 0.684239 1.91504 1.2724
vn -0.512433 0.852101 0.106475
v 0.692614 1.92353 1.24379
vn -0.493198 0.863978 0.101474
v 0.693537 1.92396 1.24183
vn -0.205774 0.977028 0.0554462
v 0.693201 1.92363 1.23988
vn -0.178417 0.93015 -0.320919
v 0.692895 1.92286 1.23884
vn -0.306915 0.50836 -0.804595
v 0.680785 1.91557 1.23982
vn -0.360762 0.464614 -0.808693
v 0.662315 1.90137 1.24507
vn -0.853708 -0.516044 0.0698666
v 0.669784 1.90137 1.30535
vn -0.692561 0.518133 0.501893
v 0.701791 1.92076 1.30132
vn 0.385903 0.901237 0.197106
v 0.704237 1.90788 1.23807
vn 0.807532 0.520335 -0.277748
v 0.682074 1.87413 1.23721
vn -0.115263 0.0204881 -0.993124
v 0.681794 1.87253 1.23771
vn 0.109818 -0.409982 -0.905458
v 0.674369 1.88566 1.27216
vn -0.849809 -0.52102 0.079764
v 0.670712 1.9011 1.30626
vn -0.191504 0.359896 0.913127
v 0.702725 1.9199 1.30167
vn 0.836667 0.531969 0.130374
v 0.713286 1.89267 1.23634
vn 0.82517 0.486914 -0.286372
f 1//1 2//2 3//3
f 1//1 3//3 4//4
f 1//1 4//4 5//5
f 1//1 5//5 6//6
f 1//1 6//6 2//2
f 7//7 8//8 9//9
f 10//10 11//11 12//12
f 13//13 14//14 15//15
f 16//16 17//17 18//18
f 19//19 20//20 21//21
f 22//22 23//23 24//24
f 22//22 24//24 25//25
f 22//22 25//25 26//26
f 22//22 26//26 27//27
f 22//22 27//27 23//23
f 28//28 29//29 30//30
f 31//31 32//32 33//33
f 34//34 35//35 36//36
f 37//37 38//38 39//39
f 40//40 41//41 42//42
f 13//13 43//43 44//44
f 10//10 45//45 46//46
f 7//7 47//47 48//48
f 19//19 49//49 50//50
f 16//16 51//51 52//52
f 10//10 53//53 45//45
f 13//13 54//54 43//43
f 16//16 55//55 51//51
f 19//19 56//56 49//49
f 7//7 57//57 47//47
f 40//40 58//58 59//59
f 28//28 60//60 61//61
f 31//31 62//62 63//63
f 34//34 64//64 65//65
f 37//37 66//66 67//67
f 40//40 68//68 58//58
f 28//28 69//69 60//60
f 31//31 70//70 62//62
f 34//34 71//71 64//64
f 37//37 72//72 66//66
f 10//10 46//46 11//11
f 7//7 48//48 8//8
f 19//19 50//50 20//20
f 16//16 52//52 17//17
f 13//13 44//44 14//14
f 40//40 42//42 68//68
f 28//28 30//30 69//69
f 31//31 33//33 70//70
f 34//34 36//36 71//71
f 37//37 39//39 72//72
f 28//28 61//61 29//29
f 31//31 63//63 32//32
f 34//34 65//65 35//35
f 37//37 67//67 38//38
f 40//40 59//59 41//41
f 10//10 12//12 53//53
f 13//13 15//15 54//54
f 16//16 18//18 55//55
f 19//19 21//21 56//56
f 7//7 9//9 57//57
f 73//73 74//74 75//75
f 76//76 77//77 78//78
f 79//79 80//80 81//81
f 82//82 83//83 84//84
f 85//85 86//86 87//87
f 88//88 89//89 90//90
f 91//91 92//92 93//93
f 94//94 95//95 96//96
f 97//97 98//98 99//99
f 100//100 101//101 102//102
f 103//103 104//104 105//105
f 106//106 107//107 108//108
f 109//109 110//110 111//111
f 112//112 113//113 114//114
f 115//115 116//116 117//117
f 88//88 118//118 119//119
f 91//91 120//120 121//121
f 94//94 122//122 123//123
f 97//97 124//124 125//125
f 100//100 126//126 127//127
f 128//128 129//129 2//2
f 130//130 131//131 3//3
f 132//132 133//133 4//4
f 134//134 135//135 5//5
f 136//136 137//137 6//6
f 76//76 138//138 8//8
f 73//73 139//139 11//11
f 85//85 140//140 14//14
f 82//82 141//141 17//17
f 79//79 142//142 20//20
f 143//143 144//144 23//23
f 145//145 146//146 24//24
f 147//147 148//148 25//25
f 149//149 150//150 26//26
f 151//151 152//152 27//27
f 103//103 153//153 29//29
f 106//106 154//154 32//32
f 109//109 155//155 35//35
f 112//112 156//156 38//38
f 115//115 157//157 41//41
f 73//73 75//75 43//43
f 76//76 78//78 45//45
f 79//79 81//81 47//47
f 82//82 84//84 49//49
f 85//85 87//87 51//51
f 88//88 90//90 53//53
f 91//91 93//93 54//54
f 94//94 96//96 55//55
f 97//97 99//99 56//56
f 100//100 102//102 57//57
f 103//103 105//105 58//58
f 106//106 108//108 60//60
f 109//109 111//111 62//62
f 112//112 114//114 64//64
f 115//115 117//117 66//66
f 88//88 119//119 68//68
f 91//91 121//121 69//69
f 94//94 123//123 70//70
f 97//97 125//125 71//71
f 100//100 127//127 72//72
f 130//130 74//74 46//46
f 132//132 77//77 48//48
f 134//134 80//80 50//50
f 136//136 83//83 52//52
f 128//128 86//86 44//44
f 158//158 89//89 42//42
f 159//159 92//92 30//30
f 160//160 95//95 33//33
f 161//161 98//98 36//36
f 162//162 101//101 39//39
f 145//145 104//104 61//61
f 147//147 107//107 63//63
f 149//149 110//110 65//65
f 151//151 113//113 67//67
f 143//143 116//116 59//59
f 159//159 118//118 12//12
f 160//160 120//120 15//15
f 161//161 122//122 18//18
f 162//162 124//124 21//21
f 158//158 126//126 9//9
f 130//130 129//129 74//74
f 132//132 131//131 77//77
f 134//134 133//133 80//80
f 136//136 135//135 83//83
f 128//128 137//137 86//86
f 158//158 138//138 89//89
f 159//159 139//139 92//92
f 160//160 140//140 95//95
f 161//161 141//141 98//98
f 162//162 142//142 101//101
f 145//145 144//144 104//104
f 147//147 146//146 107//107
f 149//149 148//148 110//110
f 151//151 150//150 113//113
f 143//143 152//152 116//116
f 159//159 153//153 118//118
f 160//160 154//154 120//120
f 161//161 155//155 122//122
f 162//162 156//156 124//124
f 158//158 157//157 126//126
f 130//130 3//3 129//129
f 132//132 4//4 131//131
f 134//134 5//5 133//133
f 136//136 6//6 135//135
f 128//128 2//2 137//137
f 158//158 9//9 138//138
f 159//159 12//12 139//139
f 160//160 15//15 140//140
f 161//161 18//18 141//141
f 162//162 21//21 142//142
f 145//145 24//24 144//144
f 147//147 25//25 146//146
f 149//149 26//26 148//148
f 151//151 27//27 150//150
f 143//143 23//23 152//152
f 159//159 30//30 153//153
f 160//160 33//33 154//154
f 161//161 36//36 155//155
f 162//162 39//39 156//156
f 158//158 42//42 157//157
f 128//128 44//44 75//75
f 130//130 46//46 78//78
f 132//132 48//48 81//81
f 134//134 50//50 84//84
f 136//136 52//52 87//87
f 76//76 45//45 90//90
f 73//73 43//43 93//93
f 85//85 51//51 96//96
f 82//82 49//49 99//99
f 79//79 47//47 102//102
f 143//143 59//59 105//105
f 145//145 61//61 108//108
f 147//147 63//63 111//111
f 149//149 65//65 114//114
f 151//151 67//67 117//117
f 103//103 58//58 119//119
f 106//106 60//60 121//121
f 109//109 62//62 123//123
f 112//112 64//64 125//125
f 115//115 66//66 127//127
f 73//73 11//11 74//74
f 76//76 8//8 77//77
f 79//79 20//20 80//80
f 82//82 17//17 83//83
f 85//85 14//14 86//86
f 88//88 68//68 89//89
f 91//91 69//69 92//92
f 94//94 70//70 95//95
f 97//97 71//71 98//98
f 100//100 72//72 101//101
f 103//103 29//29 104//104
f 106//106 32//32 107//107
f 109//109 35//35 110//110
f 112//112 38//38 113//113
f 115//115 41//41 116//116
f 88//88 53//53 118//118
f 91//91 54//54 120//120
f 94//94 55//55 122//122
f 97//97 56//56 124//124
f 100//100 57//57 126//126
f 128//128 75//75 129//129
f 130//130 78//78 131//131
f 132//132 81//81 133//133
f 134//134 84//84 135//135
f 136//136 87//87 137//137
f 76//76 90//90 138//138
f 73//73 93//93 139//139
f 85//85 96//96 140//140
f 82//82 99//99 141//141
f 79//79 102//102 142//142
f 143//143 105//105 144//144
f 145//145 108//108 146//146
f 147//147 111//111 148//148
f 149//149 114//114 150//150
f 151//151 117//117 152//152
f 103//103 119//119 153//153
f 106//106 121//121 154//154
f 109//109 123//123 155//155
f 112//112 125//125 156//156
f 115//115 127//127 157//157
f 129//129 3//3 2//2
f 131//131 4//4 3//3
f 133//133 5//5 4//4
f 135//135 6//6 5//5
f 137//137 2//2 6//6
f 138//138 9//9 8//8
f 139//139 12//12 11//11
f 140//140 15//15 14//14
f 141//141 18//18 17//17
f 142//142 21//21 20//20
f 144//144 24//24 23//23
f 146//146 25//25 24//24
f 148//148 26//26 25//25
f 150//150 27//27 26//26
f 152//152 23//23 27//27
f 153//153 30//30 29//29
f 154//154 33//33 32//32
f 155//155 36//36 35//35
f 156//156 39//39 38//38
f 157//157 42//42 41//41
f 75//75 44//44 43//43
f 78//78 46//46 45//45
f 81//81 48//48 47//47
f 84//84 50//50 49//49
f 87//87 52//52 51//51
f 90//90 45//45 53//53
f 93//93 43//43 54//54
f 96//96 51//51 55//55
f 99//99 49//49 56//56
f 102//102 47//47 57//57
f 105//105 59//59 58//58
f 108//108 61//61 60//60
f 111//111 63//63 62//62
f 114//114 65//65 64//64
f 117//117 67//67 66//66
f 119//119 58//58 68//68
f 121//121 60//60 69//69
f 123//123 62//62 70//70
f 125//125 64//64 71//71
f 127//127 66//66 72//72
f 74//74 11//11 46//46
f 77//77 8//8 48//48
f 80//80 20//20 50//50
f 83//83 17//17 52//52
f 86//86 14//14 44//44
f 89//89 68//68 42//42
f 92//92 69//69 30//30
f 95//95 70//70 33//33
f 98//98 71//71 36//36
f 101//101 72//72 39//39
f 104//104 29//29 61//61
f 107//107 32//32 63//63
f 110//110 35//35 65//65
f 113//113 38//38 67//67
f 116//116 41//41 59//59
f 118//118 53//53 12//12
f 120//120 54//54 15//15
f 122//122 55//55 18//18
f 124//124 56//56 21//21
f 126//126 57//57 9//9
f 129//129 75//75 74//74
f 131//131 78//78 77//77
f 133//133 81//81 80//80
f 135//135 84//84 83//83
f 137//137 87//87 86//86
f 138//138 90//90 89//89
f 139//139 93//93 92//92
f 140//140 96//96 95//95
f 141//141 99//99 98//98
f 142//142 102//102 101//101
f 144//144 105//105 104//104
f 146//146 108//108 107//107
f 148//148 111//111 110//110
f 150//150 114//114 113//113
f 152//152 117//117 116//116
f 153//153 119//119 118//118
f 154//154 121//121 120//120
f 155//155 123//123 122//122
f 156//156 125//125 124//124
f 157//157 127//127 126//126
