# Created by Open3D 
# object name: part_001
# number of vertices: 162
# number of triangles: 320
v 0.460872 3.66079 0.72174
vn 0.982237 -0.187498 -0.00737698
v 0.460965 3.68902 0.741829
vn 0.956891 0.120934 0.264073
v 0.454378 3.64497 0.74272
vn 0.865563 -0.263317 0.425987
v 0.443213 3.60587 0.722115
vn 0.907473 -0.420057 -0.00671041
v 0.454113 3.64495 0.707763
vn 0.783458 -0.240619 -0.572971
v 0.460712 3.68901 0.708516
vn 0.939743 0.122778 -0.319075
v -0.324985 2.03686 0.728404
vn 0.756501 -0.65397 -0.00546274
v -0.316534 2.05192 0.749258
vn 0.744954 -0.512548 0.42701
v -0.346998 2.01941 0.748682
vn 0.499777 -0.823666 0.267951
v 0.0406584 2.86213 0.748398
vn 0.0182634 -0.00473481 0.999822
v 0.396271 3.62399 0.745398
vn 0.0139374 -0.0022405 0.9999
v 0.00538605 2.8792 0.748902
vn 0.00827751 9.81822e-05 0.999966
v -0.103947 3.98365 0.748089
vn 0.0307033 0.0482076 0.998365
v -0.0988567 3.99418 0.746858
vn 0.30988 0.629437 0.712589
v -0.622396 4.23602 0.751561
vn 0.0452485 0.083606 0.995471
v -0.104232 3.98363 0.710582
vn 0.01554 0.0473517 -0.998757
v 0.382557 3.72805 0.706468
vn 0.00223634 0.0190756 -0.999816
v -0.60671 4.20681 0.713774
vn 0.00160703 0.0193805 -0.999811
v 0.121527 3.02984 0.708352
vn 0.00307883 -0.00559383 -0.99998
v -0.292966 2.13335 0.712259
vn 0.0181006 -0.013096 -0.99975
v -0.336434 2.1105 0.712197
vn -0.00156541 -0.0036775 -0.999992
v -1.49371 2.60247 0.737035
vn -0.982237 0.187497 0.00737698
v -1.4935 2.57426 0.757149
vn -0.952771 -0.120701 0.278675
v -1.4869 2.61832 0.757901
vn -0.858997 0.263688 0.438855
v -1.47605 2.6574 0.737096
vn -0.907473 0.420057 0.00671041
v -1.48716 2.6183 0.722944
vn -0.792071 0.240131 -0.561214
v -1.49375 2.57425 0.723835
vn -0.94448 -0.123044 -0.304661
v -1.07315 3.40116 0.756624
vn -0.00307886 0.00559384 0.99998
v -1.42876 2.63929 0.759679
vn 0.00124774 0.00309954 0.999994
v -1.03787 3.38409 0.756606
vn 0.00690818 0.000760869 0.999976
v -0.707854 4.2264 0.730371
vn -0.756498 0.653973 0.0054611
v -0.715987 4.21137 0.751363
vn -0.738388 0.512921 0.437829
v -0.685536 4.24387 0.750297
vn -0.49566 0.8239 0.274791
v -0.992278 3.56887 0.716578
vn -0.0182637 0.00473497 -0.999822
v -0.740114 4.1299 0.714797
vn -0.0336483 0.0124588 -0.999356
v -0.696652 4.15275 0.714055
vn -0.0136297 0.00299913 -0.999903
v -0.92884 2.27962 0.717575
vn -0.0307035 -0.048208 -0.998365
v -1.41564 2.5352 0.720634
vn -0.0174186 -0.019935 -0.99965
v -0.426369 2.05644 0.713328
vn -0.0167892 -0.0202397 -0.999654
v -0.928555 2.27964 0.755083
vn -0.0155397 -0.0473511 0.998757
v -0.933663 2.2691 0.753938
vn -0.299019 -0.62882 0.717756
v -0.410112 2.02726 0.750898
vn -0.0301266 -0.0827513 0.996115
v 0.38285 3.72806 0.74503
vn 0.0174186 0.019935 0.99965
v 0.415652 3.73366 0.743895
vn 0.0494044 0.0815954 0.99544
v -0.292673 2.13337 0.750868
vn 0.0334485 -0.0123387 0.999364
v 0.405315 3.57572 0.744948
vn 0.0336472 -0.0119278 0.999363
v -0.3168 2.0519 0.714301
vn 0.672995 -0.468891 -0.572031
v -0.292867 2.08479 0.728358
vn 0.892482 -0.451036 -0.00658323
v 0.395972 3.62397 0.705986
vn -0.0011583 -0.00303645 -0.999995
v 0.405022 3.57571 0.70634
vn 0.0186855 -0.0128683 -0.999743
v -0.0991234 3.99417 0.711726
vn 0.238638 0.505752 -0.829016
v 0.415373 3.73364 0.7071
vn 0.0342825 0.0807405 -0.996145
v -0.336135 2.11051 0.751609
vn 0.0136237 -0.00288981 0.999903
v -0.606417 4.20682 0.752336
vn 0.0167892 0.0202396 0.999654
v -0.622675 4.23601 0.714767
vn 0.0301269 0.082752 -0.996115
v 0.0872545 3.04898 0.708361
vn -0.00690812 -0.000760883 -0.999976
v -0.347251 2.01939 0.715368
vn 0.485816 -0.815241 -0.315223
v -1.41534 2.53522 0.759197
vn -0.00223632 -0.0190756 0.999816
v -1.44816 2.52963 0.758564
vn -0.0342825 -0.0807405 0.996145
v -0.739821 4.12992 0.753405
vn -0.0182693 0.0131974 0.999746
v -1.43781 2.68756 0.759325
vn -0.0184682 0.0127866 0.999748
v -0.716252 4.21135 0.716407
vn -0.681603 0.468403 -0.562153
v -0.739968 4.17847 0.730853
vn -0.892482 0.451036 0.00658323
v -1.42906 2.63928 0.720266
vn -0.0138793 0.00228182 -0.999901
v -1.4381 2.68754 0.720716
vn -0.033464 0.0118588 -0.99937
v -0.93393 2.26908 0.718806
vn -0.251196 -0.506464 -0.82486
v -1.44844 2.52961 0.721769
vn -0.0494041 -0.0815947 -0.99544
v -0.426076 2.05646 0.751891
vn -0.00160707 -0.0193806 0.999811
v -0.696353 4.15277 0.753467
vn 0.00156189 0.00374869 0.999992
v -0.685789 4.24386 0.716983
vn -0.490553 0.814972 -0.308511
v -0.956002 3.55387 0.716066
vn -0.0082775 -9.81849e-05 -0.999966
v -0.410391 2.02724 0.714103
vn -0.0452486 -0.0836061 -0.995471
v 0.402804 3.68399 0.745197
vn 0.0118412 0.00647369 0.999909
v 0.431599 3.65405 0.744677
vn 0.0320361 -0.00165771 0.999485
v 0.432636 3.70191 0.744347
vn 0.0347781 0.0178014 0.999237
v -0.30741 2.08031 0.750358
vn 0.0840596 -0.0391713 0.995691
v -0.274734 2.12367 0.748929
vn 0.811187 -0.394274 0.431885
v 0.0681097 2.84884 0.747271
vn 0.0870086 -0.03802 0.995482
v -0.307693 2.08029 0.713038
vn 0.069369 -0.0398562 -0.996795
v 0.145179 3.00867 0.709106
vn 0.0718832 -0.0388761 -0.996655
v -0.275 2.12365 0.713933
vn 0.711892 -0.350205 -0.608742
v 0.402506 3.68397 0.706036
vn -0.00334393 0.00561475 -0.999979
v 0.432348 3.7019 0.706418
vn 0.0195997 0.0169426 -0.999664
v 0.431306 3.65403 0.706145
vn 0.0168545 -0.00251624 -0.999855
v -0.0973953 3.99753 0.725605
vn 0.435596 0.900135 -0.00369367
v 0.420276 3.74173 0.742135
vn 0.44826 0.865586 0.223213
v 0.420023 3.74172 0.708783
vn 0.440832 0.858357 -0.26247
v -0.379129 2.06816 0.751828
vn 0.00548897 -0.00665306 0.999963
v -0.374678 2.03364 0.751193
vn 0.0108363 -0.0316732 0.99944
v -0.337785 2.06416 0.751201
vn 0.0243955 -0.0174467 0.99955
v -0.65336 4.19512 0.752996
vn 0.00969623 0.00751187 0.999925
v -0.644819 4.12889 0.753279
vn 0.00761018 0.000826147 0.999971
v -0.123311 3.94362 0.749178
vn 0.0106907 0.0068315 0.99992
v -0.660411 4.24753 0.715662
vn -0.0174148 0.439918 -0.897869
v -0.661028 4.25315 0.729834
vn -0.0119403 0.999929 -0.000342223
v -0.619206 4.24466 0.716458
vn 0.396489 0.879818 -0.26214
v -0.434055 3.30209 0.712133
vn -0.00759283 -0.000429526 -0.999971
v -0.645121 4.12888 0.713481
vn -0.00753368 5.4541e-05 -0.999972
v 0.345272 3.64957 0.706167
vn -0.00724992 -8.27817e-05 -0.999974
v -0.372645 2.01572 0.714436
vn 0.00377771 -0.440691 -0.897651
v -0.374966 2.03363 0.713264
vn -0.00434175 -0.0325311 -0.999461
v -0.341764 2.03367 0.713616
vn 0.0407059 -0.0650455 -0.997052
v -1.43529 2.5793 0.759628
vn 0.00334394 -0.00561475 0.999979
v -1.46409 2.60924 0.759519
vn -0.0168545 0.00251624 0.999855
v -1.46513 2.56137 0.759246
vn -0.0195997 -0.0169425 0.999664
v -0.725094 4.18297 0.752626
vn -0.0689314 0.0400277 0.996818
v -0.757787 4.13962 0.751731
vn -0.804538 0.39465 0.443813
v -1.10061 3.41444 0.755902
vn -0.0718832 0.0388761 0.996655
v -0.725377 4.18296 0.715306
vn -0.0834376 0.039415 -0.995733
v -1.02354 3.57428 0.717738
vn -0.0870086 0.03802 -0.995482
v -0.758052 4.1396 0.716735
vn -0.751603 0.364843 -0.54953
v -1.43559 2.57928 0.720468
vn -0.0118412 -0.00647368 -0.999909
v -1.46542 2.56136 0.721318
vn -0.034778 -0.0178014 -0.999237
v -1.46439 2.60922 0.720988
vn -0.0320361 0.00165771 -0.999485
v -0.935447 2.26574 0.732712
vn -0.435596 -0.900135 0.00369335
v -1.45281 2.52155 0.756881
vn -0.444812 -0.865391 0.23074
v -1.45306 2.52154 0.72353
vn -0.444761 -0.85858 -0.255007
v -0.387666 2.13439 0.752184
vn 0.00757548 3.28885e-05 0.999971
v -0.909177 2.31967 0.755843
vn 0.0044945 -0.0059726 0.999972
v -0.657821 4.22964 0.7524
vn 0.00434154 0.0325311 0.999461
v -0.694709 4.19913 0.752995
vn -0.00921416 0.0183053 0.99979
v -0.658109 4.22963 0.714471
vn -0.0108363 0.0316733 -0.99944
v -0.691301 4.22958 0.715327
vn -0.0558415 0.0641898 -0.996374
v -0.387968 2.13437 0.712385
vn -0.0075829 -0.00076907 -0.999971
v -1.37836 2.61368 0.719699
vn -0.00786525 -0.000632421 -0.999969
v -0.371814 2.01011 0.728601
vn 0.0119386 -0.999929 0.000337472
v -0.413834 2.0186 0.715855
vn -0.400418 -0.880039 -0.255337
v 0.448102 3.71121 0.743044
vn 0.46202 0.346063 0.816565
v 0.453193 3.67585 0.743598
vn 0.0881945 0.002664 0.9961
v 0.437778 3.6202 0.744038
vn 0.0860839 -0.0349924 0.995673
v 0.424049 3.56766 0.743003
vn 0.813927 -0.388611 0.431861
v 0.0774692 2.84422 0.724773
vn 0.90011 -0.435611 -0.00664785
v 0.423783 3.56765 0.708007
vn 0.745827 -0.359843 -0.560585
v 0.437495 3.62018 0.706718
vn 0.0707601 -0.0352092 -0.996872
v 0.452915 3.67583 0.706877
vn 0.0730567 0.00180809 -0.997326
v 0.447832 3.71119 0.707477
vn 0.345041 0.26451 -0.900545
v 0.45279 3.71411 0.721608
vn 0.791542 0.611082 -0.00627261
v -0.341486 2.03369 0.750337
vn 0.0558416 -0.0641891 0.996374
v 0.345574 3.64959 0.745965
vn 0.00789308 0.00068922 0.999969
v -0.618953 4.24467 0.74981
vn 0.403361 0.887314 0.223549
v -0.12361 3.9436 0.709821
vn -0.00449457 0.00597245 -0.999972
v -0.338077 2.06414 0.71267
vn 0.00921404 -0.0183051 -0.99979
v -1.48062 2.55207 0.758187
vn -0.449566 -0.345359 0.823783
v -1.4857 2.58743 0.758788
vn -0.0730566 -0.00180804 0.997326
v -1.47028 2.64308 0.758946
vn -0.0709552 0.0358486 0.996835
v -1.45657 2.69562 0.757657
vn -0.807279 0.388987 0.443836
v -1.11031 3.41905 0.733545
vn -0.90011 0.435611 0.00664785
v -1.45684 2.6956 0.722661
vn -0.723569 0.34449 -0.598143
v -1.47056 2.64307 0.721626
vn -0.0862206 0.0354418 -0.995645
v -1.48598 2.58742 0.722066
vn -0.0881944 -0.00266395 -0.9961
v -1.48089 2.55206 0.72262
vn -0.358674 -0.26528 -0.894975
v -1.48563 2.54915 0.736827
vn -0.791542 -0.611082 0.00627184
v -1.37806 2.61369 0.759498
vn 0.00729256 0.000169796 0.999973
v -0.691022 4.2296 0.752048
vn -0.0407059 0.0650454 0.997052
v -0.695002 4.19911 0.714463
vn -0.0243954 0.0174465 -0.99955
v -0.909476 2.31965 0.716486
vn -0.0106907 -0.00683149 -0.99992
v -0.41358 2.01861 0.749206
vn -0.399914 -0.88712 0.230406
v -0.372375 2.01574 0.750002
vn 0.01794 -0.571607 0.820332
v -0.516241 3.13164 0.752832
vn 0.00759284 0.00042953 0.999971
v -0.660141 4.24755 0.751229
vn -0.00548167 0.572312 0.820018
v -0.653657 4.1951 0.713836
vn -0.00548909 0.0066528 -0.999963
v -0.379427 2.06815 0.712668
vn -0.00969622 -0.00751187 -0.999925
f 1//1 2//2 3//3
f 1//1 3//3 4//4
f 1//1 4//4 5//5
f 1//1 5//5 6//6
f 1//1 6//6 2//2
f 7//7 8//8 9//9
f 10//10 11//11 12//12
f 13//13 14//14 15//15
f 16//16 17//17 18//18
f 19//19 20//20 21//21
f 22//22 23//23 24//24
f 22//22 24//24 25//25
f 22//22 25//25 26//26
f 22//22 26//26 27//27
f 22//22 27//27 23//23
f 28//28 29//29 30//30
f 31//31 32//32 33//33
f 34//34 35//35 36//36
f 37//37 38//38 39//39
f 40//40 41//41 42//42
f 13//13 43//43 44//44
f 10//10 45//45 46//46
f 7//7 47//47 48//48
f 19//19 49//49 50//50
f 16//16 51//51 52//52
f 10//10 53//53 45//45
f 13//13 54//54 43//43
f 16//16 55//55 51//51
f 19//19 56//56 49//49
f 7//7 57//57 47//47
f 40//40 58//58 59//59
f 28//28 60//60 61//61
f 31//31 62//62 63//63
f 34//34 64//64 65//65
f 37//37 66//66 67//67
f 40//40 68//68 58//58
f 28//28 69//69 60//60
f 31//31 70//70 62//62
f 34//34 71//71 64//64
f 37//37 72//72 66//66
f 10//10 46//46 11//11
f 7//7 48//48 8//8
f 19//19 50//50 20//20
f 16//16 52//52 17//17
f 13//13 44//44 14//14
f 40//40 42//42 68//68
f 28//28 30//30 69//69
f 31//31 33//33 70//70
f 34//34 36//36 71//71
f 37//37 39//39 72//72
f 28//28 61//61 29//29
f 31//31 63//63 32//32
f 34//34 65//65 35//35
f 37//37 67//67 38//38
f 40//40 59//59 41//41
f 10//10 12//12 53//53
f 13//13 15//15 54//54
f 16//16 18//18 55//55
f 19//19 21//21 56//56
f 7//7 9//9 57//57
f 73//73 74//74 75//75
f 76//76 77//77 78//78
f 79//79 80//80 81//81
f 82//82 83//83 84//84
f 85//85 86//86 87//87
f 88//88 89//89 90//90
f 91//91 92//92 93//93
f 94//94 95//95 96//96
f 97//97 98//98 99//99
f 100//100 101//101 102//102
f 103//103 104//104 105//105
f 106//106 107//107 108//108
f 109//109 110//110 111//111
f 112//112 113//113 114//114
f 115//115 116//116 117//117
f 88//88 118//118 119//119
f 91//91 120//120 121//121
f 94//94 122//122 123//123
f 97//97 124//124 125//125
f 100//100 126//126 127//127
f 128//128 129//129 2//2
f 130//130 131//131 3//3
f 132//132 133//133 4//4
f 134//134 135//135 5//5
f 136//136 137//137 6//6
f 76//76 138//138 8//8
f 73//73 139//139 11//11
f 85//85 140//140 14//14
f 82//82 141//141 17//17
f 79//79 142//142 20//20
f 143//143 144//144 23//23
f 145//145 146//146 24//24
f 147//147 148//148 25//25
f 149//149 150//150 26//26
f 151//151 152//152 27//27
f 103//103 153//153 29//29
f 106//106 154//154 32//32
f 109//109 155//155 35//35
f 112//112 156//156 38//38
f 115//115 157//157 41//41
f 73//73 75//75 43//43
f 76//76 78//78 45//45
f 79//79 81//81 47//47
f 82//82 84//84 49//49
f 85//85 87//87 51//51
f 88//88 90//90 53//53
f 91//91 93//93 54//54
f 94//94 96//96 55//55
f 97//97 99//99 56//56
f 100//100 102//102 57//57
f 103//103 105//105 58//58
f 106//106 108//108 60//60
f 109//109 111//111 62//62
f 112//112 114//114 64//64
f 115//115 117//117 66//66
f 88//88 119//119 68//68
f 91//91 121//121 69//69
f 94//94 123//123 70//70
f 97//97 125//125 71//71
f 100//100 127//127 72//72
f 130//130 74//74 46//46
f 132//132 77//77 48//48
f 134//134 80//80 50//50
f 136//136 83//83 52//52
f 128//128 86//86 44//44
f 158//158 89//89 42//42
f 159//159 92//92 30//30
f 160//160 95//95 33//33
f 161//161 98//98 36//36
f 162//162 101//101 39//39
f 145//145 104//104 61//61
f 147//147 107//107 63//63
f 149//149 110//110 65//65
f 151//151 113//113 67//67
f 143//143 116//116 59//59
f 159//159 118//118 12//12
f 160//160 120//120 15//15
f 161//161 122//122 18//18
f 162//162 124//124 21//21
f 158//158 126//126 9//9
f 130//130 129//129 74//74
f 132//132 131//131 77//77
f 134//134 133//133 80//80
f 136//136 135//135 83//83
f 128//128 137//137 86//86
f 158//158 138//138 89//89
f 159//159 139//139 92//92
f 160//160 140//140 95//95
f 161//161 141//141 98//98
f 162//162 142//142 101//101
f 145//145 144//144 104//104
f 147//147 146//146 107//107
f 149//149 148//148 110//110
f 151//151 150//150 113//113
f 143//143 152//152 116//116
f 159//159 153//153 118//118
f 160//160 154//154 120//120
f 161//161 155//155 122//122
f 162//162 156//156 124//124
f 158//158 157//157 126//126
f 130//130 3//3 129//129
f 132//132 4//4 131//131
f 134//134 5//5 133//133
f 136//136 6//6 135//135
f 128//128 2//2 137//137
f 158//158 9//9 138//138
f 159//159 12//12 139//139
f 160//160 15//15 140//140
f 161//161 18//18 141//141
f 162//162 21//21 142//142
f 145//145 24//24 144//144
f 147//147 25//25 146//146
f 149//149 26//26 148//148
f 151//151 27//27 150//150
f 143//143 23//23 152//152
f 159//159 30//30 153//153
f 160//160 33//33 154//154
f 161//161 36//36 155//155
f 162//162 39//39 156//156
f 158//158 42//42 157//157
f 128//128 44//44 75//75
f 130//130 46//46 78//78
f 132//132 48//48 81//81
f 134//134 50//50 84//84
f 136//136 52//52 87//87
f 76//76 45//45 90//90
f 73//73 43//43 93//93
f 85//85 51//51 96//96
f 82//82 49//49 99//99
f 79//79 47//47 102//102
f 143//143 59//59 105//105
f 145//145 61//61 108//108
f 147//147 63//63 111//111
f 149//149 65//65 114//114
f 151//151 67//67 117//117
f 103//103 58//58 119//119
f 106//106 60//60 121//121
f 109//109 62//62 123//123
f 112//112 64//64 125//125
f 115//115 66//66 127//127
f 73//73 11//11 74//74
f 76//76 8//8 77//77
f 79//79 20//20 80//80
f 82//82 17//17 83//83
f 85//85 14//14 86//86
f 88//88 68//68 89//89
f 91//91 69//69 92//92
f 94//94 70//70 95//95
f 97//97 71//71 98//98
f 100//100 72//72 101//101
f 103//103 29//29 104//104
f 106//106 32//32 107//107
f 109//109 35//35 110//110
f 112//112 38//38 113//113
f 115//115 41//41 116//116
f 88//88 53//53 118//118
f 91//91 54//54 120//120
f 94//94 55//55 122//122
f 97//97 56//56 124//124
f 100//100 57//57 126//126
f 128//128 75//75 129//129
f 130//130 78//78 131//131
f 132//132 81//81 133//133
f 134//134 84//84 135//135
f 136//136 87//87 137//137
f 76//76 90//90 138//138
f 73//73 93//93 139//139
f 85//85 96//96 140//140
f 82//82 99//99 141//141
f 79//79 102//102 142//142
f 143//143 105//105 144//144
f 145//145 108//108 146//146
f 147//147 111//111 148//148
f 149//149 114//114 150//150
f 151//151 117//117 152//152
f 103//103 119//119 153//153
f 106//106 121//121 154//154
f 109//109 123//123 155//155
f 112//112 125//125 156//156
f 115//115 127//127 157//157
f 129//129 3//3 2//2
f 131//131 4//4 3//3
f 133//133 5//5 4//4
f 135//135 6//6 5//5
f 137//137 2//2 6//6
f 138//138 9//9 8//8
f 139//139 12//12 11//11
f 140//140 15//15 14//14
f 141//141 18//18 17//17
f 142//142 21//21 20//20
f 144//144 24//24 23//23
f 146//146 25//25 24//24
f 148//148 26//26 25//25
f 150//150 27//27 26//26
f 152//152 23//23 27//27
f 153//153 30//30 29//29
f 154//154 33//33 32//32
f 155//155 36//36 35//35
f 156//156 39//39 38//38
f 157//157 42//42 41//41
f 75//75 44//44 43//43
f 78//78 46//46 45//45
f 81//81 48//48 47//47
f 84//84 50//50 49//49
f 87//87 52//52 51//51
f 90//90 45//45 53//53
f 93//93 43//43 54//54
f 96//96 51//51 55//55
f 99//99 49//49 56//56
f 102//102 47//47 57//57
f 105//105 59//59 58//58
f 108//108 61//61 60//60
f 111//111 63//63 62//62
f 114//114 65//65 64//64
f 117//117 67//67 66//66
f 119//119 58//58 68//68
f 121//121 60//60 69//69
f 123//123 62//62 70//70
f 125//125 64//64 71//71
f 127//127 66//66 72//72
f 74//74 11//11 46//46
f 77//77 8//8 48//48
f 80//80 20//20 50//50
f 83//83 17//17 52//52
f 86//86 14//14 44//44
f 89//89 68//68 42//42
f 92//92 69//69 30//30
f 95//95 70//70 33//33
f 98//98 71//71 36//36
f 101//101 72//72 39//39
f 104//104 29//29 61//61
f 107//107 32//32 63//63
f 110//110 35//35 65//65
f 113//113 38//38 67//67
f 116//116 41//41 59//59
f 118//118 53//53 12//12
f 120//120 54//54 15//15
f 122//122 55//55 18//18
f 124//124 56//56 21//21
f 126//126 57//57 9//9
f 129//129 75//75 74//74
f 131//131 78//78 77//77
f 133//133 81//81 80//80
f 135//135 84//84 83//83
f 137//137 87//87 86//86
f 138//138 90//90 89//89
f 139//139 93//93 92//92
f 140//140 96//96 95//95
f 141//141 99//99 98//98
f 142//142 102//102 101//101
f 144//144 105//105 104//104
f 146//146 108//108 107//107
f 148//148 111//111 110//110
f 150//150 114//114 113//113
f 152//152 117//117 116//116
f 153//153 119//119 118//118
f 154//154 121//121 120//120
f 155//155 123//123 122//122
f 156//156 125//125 124//124
f 157//157 127//127 126//126
