# Created by Open3D 
# object name: part_087
# number of vertices: 162
# number of triangles: 320
v 1.64463 4.97325 1.17729
vn -0.705895 0.376961 -0.599677
v 1.638 4.95421 1.17462
vn -0.428313 0.214479 -0.877808
v 1.63513 4.95457 1.17773
vn -0.848207 0.33916 -0.406835
v 1.64291 4.97367 1.18155
vn -0.892312 0.445297 -0.0740886
v 1.65063 4.98587 1.17915
vn -0.748528 0.531005 -0.397165
v 1.65277 4.98404 1.17598
vn -0.39299 0.278342 -0.876405
v 1.63862 4.97001 1.31357
vn -0.756721 0.349553 0.552436
v 1.62923 4.95139 1.31142
vn -0.881431 0.321243 0.34624
v 1.63182 4.95088 1.31474
vn -0.504377 0.173486 0.845876
v 1.63681 4.94823 1.24466
vn -0.495897 -0.867341 -0.0425087
v 1.64169 4.94867 1.18122
vn -0.473865 -0.879364 -0.0465973
v 1.64368 4.94454 1.24488
vn -0.446847 -0.893672 -0.0409691
v 1.75063 4.89599 1.17676
vn -0.337461 -0.718911 -0.60769
v 1.75119 4.89708 1.17593
vn 0.0097225 -0.0454108 -0.998921
v 1.85355 4.84527 1.18
vn -0.24156 -0.554771 -0.796165
v 1.76726 4.92958 1.17829
vn 0.388137 0.746218 -0.540841
v 1.66951 4.97866 1.17651
vn 0.436736 0.867561 -0.237906
v 1.86536 4.88137 1.18284
vn 0.439758 0.866057 -0.237819
v 1.65488 4.9838 1.23219
vn 0.389424 0.92023 0.039068
v 1.64832 4.98324 1.30668
vn 0.311211 0.949537 0.0390736
v 1.65357 4.98094 1.30985
vn 0.412244 0.910021 0.0437765
v 1.87 4.85508 1.32105
vn 0.70589 -0.376958 0.599685
v 1.8588 4.83813 1.32207
vn 0.398378 -0.274932 0.875047
v 1.86094 4.8363 1.3189
vn 0.769211 -0.498664 0.399561
v 1.87153 4.85428 1.31677
vn 0.892312 -0.445298 0.0740901
v 1.87644 4.8676 1.32033
vn 0.861418 -0.303039 0.407587
v 1.87357 4.86796 1.32343
vn 0.427701 -0.208244 0.879606
v 1.85732 4.8387 1.25179
vn -0.389418 -0.920232 -0.0390678
v 1.85241 4.8382 1.31522
vn -0.412466 -0.910297 -0.0350779
v 1.85023 4.84195 1.25155
vn -0.440006 -0.89707 -0.0407484
v 1.87601 4.85832 1.18477
vn 0.756724 -0.349554 -0.552431
v 1.86684 4.83948 1.18521
vn 0.80244 -0.48075 -0.353509
v 1.86498 4.84146 1.18196
vn 0.474436 -0.233935 -0.848637
v 1.87539 4.87427 1.23932
vn 0.495891 0.867344 0.0425085
v 1.88038 4.8735 1.19296
vn 0.568351 0.821746 0.0413568
v 1.87549 4.87651 1.18982
vn 0.474555 0.879497 0.0358186
v 1.76095 4.92618 1.3213
vn 0.337461 0.718911 0.60769
v 1.85917 4.87804 1.32312
vn 0.415311 0.852892 0.316374
v 1.66332 4.97532 1.31679
vn 0.412286 0.854387 0.316297
v 1.74432 4.89259 1.31976
vn -0.388137 -0.746218 0.540841
v 1.7448 4.89363 1.3207
vn -0.0781582 -0.092774 0.992615
v 1.64171 4.94395 1.31656
vn -0.322814 -0.584815 0.744166
v 1.65241 4.94413 1.17494
vn -0.415311 -0.852892 -0.316374
v 1.64803 4.94735 1.17336
vn -0.254837 -0.548194 -0.796581
v 1.6312 4.94867 1.3051
vn -0.56739 -0.822398 -0.0416064
v 1.63654 4.95154 1.18405
vn -0.567133 -0.822252 -0.0475708
v 1.64473 4.98269 1.31284
vn -0.781686 0.513124 0.354501
v 1.63728 4.97063 1.3092
vn -0.8963 0.443148 0.0162956
v 1.65917 4.98396 1.18283
vn 0.412287 0.910427 0.033806
v 1.65366 4.98611 1.18563
vn 0.309485 0.950332 0.0329906
v 1.76677 4.92853 1.17736
vn 0.0928282 0.122601 -0.988105
v 1.66435 4.9803 1.17486
vn 0.309563 0.591444 -0.744557
v 1.63609 4.94565 1.30823
vn -0.474278 -0.879594 -0.0370757
v 1.84826 4.84684 1.18126
vn -0.412286 -0.854387 -0.316297
v 1.86986 4.87822 1.1815
vn 0.322814 0.584815 -0.744166
v 1.66198 4.98056 1.23226
vn 0.440007 0.89707 0.0407484
v 1.64659 4.98071 1.3161
vn -0.469198 0.237265 0.850623
v 1.84207 4.84351 1.32155
vn -0.436736 -0.867561 0.237906
v 1.84723 4.84187 1.3232
vn -0.309563 -0.591444 0.744557
v 1.86326 4.83893 1.19138
vn -0.310336 -0.949815 -0.0392746
v 1.85791 4.83605 1.31242
vn -0.31061 -0.949954 -0.0333073
v 1.88234 4.87078 1.18664
vn 0.894586 -0.285159 -0.344094
v 1.87716 4.85731 1.18912
vn 0.8963 -0.443148 -0.0162956
v 1.86988 4.87349 1.31684
vn 0.473742 0.879473 0.0457665
v 1.87503 4.87062 1.314
vn 0.566357 0.8228 0.0473173
v 1.76038 4.92509 1.32213
vn 0.00522523 0.0753879 0.997141
v 1.86354 4.87481 1.3247
vn 0.254837 0.548194 0.796581
v 1.64622 4.94079 1.31522
vn -0.439758 -0.866057 0.237819
v 1.85801 4.84122 1.18821
vn -0.41204 -0.910074 -0.0445961
v 1.87976 4.87129 1.18332
vn 0.503908 -0.167168 -0.847426
v 1.86852 4.87796 1.23893
vn 0.446847 0.893672 0.0409691
v 1.65803 4.97689 1.31806
vn 0.24156 0.554771 0.796165
v 1.64555 4.9471 1.17705
vn -0.44248 -0.886297 -0.136704
v 1.6387 4.9508 1.17793
vn -0.534302 -0.830401 -0.157975
v 1.64252 4.94939 1.17476
vn -0.4717 -0.795345 -0.380691
v 1.62955 4.95002 1.30916
vn -0.764215 -0.644627 -0.0207713
v 1.62837 4.95209 1.30512
vn -0.934201 0.355966 -0.0235814
v 1.63178 4.95176 1.24452
vn -0.769162 -0.637165 -0.0490941
v 1.6461 4.98343 1.31069
vn 0.0477166 0.997613 0.0499045
v 1.649 4.98566 1.23264
vn 0.0410196 0.998831 0.0255645
v 1.64388 4.98342 1.30655
vn -0.819551 0.572857 -0.0131098
v 1.66291 4.98216 1.17865
vn 0.440271 0.896159 -0.0553179
v 1.65934 4.98335 1.17631
vn 0.359167 0.88233 -0.304128
v 1.65578 4.9853 1.1795
vn 0.340951 0.936898 -0.0772951
v 1.76062 4.9161 1.17651
vn 0.0440719 0.0237529 -0.998746
v 1.64871 4.94897 1.17272
vn 0.0275324 0.0122882 -0.999545
v 1.6635 4.97883 1.17408
vn 0.044371 0.0461978 -0.997946
v 1.63956 4.94387 1.31265
vn -0.45094 -0.890861 0.0549554
v 1.63635 4.94606 1.31477
vn -0.501709 -0.811523 0.29953
v 1.63281 4.94763 1.31135
vn -0.544388 -0.835848 0.0707093
v 1.85465 4.84323 1.18381
vn -0.431812 -0.891597 -0.136355
v 1.84781 4.84608 1.18781
vn -0.442507 -0.895602 -0.0456532
v 1.75007 4.89508 1.18008
vn -0.437356 -0.889218 -0.134207
v 1.87652 4.87421 1.18216
vn 0.286178 0.0891357 -0.954021
v 1.8708 4.86125 1.18124
vn 0.209989 -0.0594593 -0.975894
v 1.86925 4.87664 1.18073
vn 0.0617203 0.0375807 -0.997386
v 1.76529 4.92933 1.23554
vn 0.443431 0.895377 0.0408589
v 1.86546 4.88172 1.18943
vn 0.4444 0.895153 0.0347912
v 1.66938 4.97911 1.1831
vn 0.442983 0.895857 0.0347448
v 1.65083 4.97981 1.31735
vn -0.137432 0.211219 0.967729
v 1.65316 4.98002 1.31632
vn 0.329139 0.866142 0.376119
v 1.64762 4.98215 1.31502
vn 0.0841737 0.891142 0.445849
v 1.84866 4.84001 1.31941
vn -0.440271 -0.896159 0.0553179
v 1.85579 4.83687 1.31856
vn -0.340951 -0.936898 0.0772951
v 1.85223 4.83882 1.32174
vn -0.359167 -0.88233 0.304128
v 1.86548 4.83873 1.18737
vn -0.0488858 -0.997334 -0.0541673
v 1.86769 4.83875 1.1915
vn 0.848625 -0.528763 0.0156947
v 1.86316 4.83682 1.252
vn -0.0410196 -0.998831 -0.0255645
v 1.88203 4.87215 1.1889
vn 0.763085 0.64613 0.0147596
v 1.88039 4.87073 1.24012
vn 0.769162 0.637165 0.0490941
v 1.88321 4.87008 1.19293
vn 0.946197 -0.32266 0.0245232
v 1.86603 4.87507 1.32101
vn 0.44248 0.886297 0.136704
v 1.86905 4.87278 1.32329
vn 0.4717 0.795345 0.380691
v 1.87288 4.87137 1.32013
vn 0.534302 0.830401 0.157975
v 1.75421 4.91264 1.32185
vn -0.0440719 -0.0237529 0.998746
v 1.84808 4.84333 1.32397
vn -0.0431689 -0.0438616 0.998105
v 1.86287 4.8732 1.32534
vn -0.0264006 -0.00991218 0.999602
v 1.64612 4.94045 1.30863
vn -0.444344 -0.89513 -0.0360707
v 1.74405 4.89184 1.31637
vn -0.445609 -0.89367 0.052789
v 1.85841 4.84215 1.18174
vn -0.329139 -0.866142 -0.376119
v 1.86168 4.84004 1.18513
vn -0.330842 -0.931469 -0.15136
v 1.87523 4.87611 1.18329
vn 0.501709 0.811523 -0.29953
v 1.88024 4.8729 1.18453
vn 0.672704 0.637201 -0.376091
v 1.66377 4.97609 1.31025
vn 0.442546 0.895625 0.044818
v 1.85985 4.87869 1.31659
vn 0.443957 0.894924 0.044865
v 1.64398 4.96739 1.31711
vn -0.209989 0.0594593 0.975894
v 1.65712 4.97539 1.31869
vn -0.0437503 -0.00129511 0.999042
v 1.64134 4.95134 1.17361
vn -0.178578 0.000839861 -0.983925
v 1.63742 4.95254 1.17571
vn -0.635642 -0.61723 -0.463665
v 1.63525 4.95309 1.17993
vn -0.761746 -0.64326 -0.0771978
v 1.63371 4.95497 1.18394
vn -0.933393 0.356404 -0.0418883
v 1.63984 4.97278 1.24538
vn -0.895223 0.444678 -0.0289288
v 1.64923 4.9863 1.18537
vn -0.82858 0.558908 -0.0328265
v 1.6518 4.98651 1.18146
vn 0.0536114 0.998528 -0.00816958
v 1.6537 4.98542 1.17721
vn 0.121272 0.911119 -0.393898
v 1.65711 4.98319 1.17507
vn -0.0521432 0.257194 -0.964952
v 1.65029 4.97079 1.17411
vn -0.123385 0.106133 -0.986667
v 1.63134 4.94927 1.31352
vn -0.672704 -0.637201 0.376091
v 1.65173 4.94348 1.18147
vn -0.443919 -0.894901 -0.0457005
v 1.85446 4.84677 1.17937
vn 0.0449566 0.00363403 -0.998982
v 1.76752 4.93032 1.18169
vn 0.445609 0.89367 -0.052789
v 1.64989 4.98213 1.31293
vn 0.330842 0.931469 0.15136
v 1.85447 4.83898 1.32299
vn 0.0733634 -0.213298 0.974229
v 1.85787 4.83674 1.32084
vn -0.121272 -0.911119 0.393898
v 1.85977 4.83566 1.3166
vn -0.0514217 -0.998674 0.00227023
v 1.86234 4.83586 1.31268
vn 0.847816 -0.529199 0.0340023
v 1.875 4.85597 1.25298
vn 0.895223 -0.444678 0.0289279
v 1.87786 4.8672 1.31411
vn 0.950837 -0.306535 0.0440976
v 1.87632 4.86908 1.31813
vn 0.762893 0.642388 0.0730153
v 1.87416 4.86962 1.32234
vn 0.635642 0.61723 0.463665
v 1.87024 4.87082 1.32444
vn 0.200894 0.0431717 0.978661
v 1.86449 4.85785 1.32424
vn 0.123385 -0.106133 0.986667
v 1.8422 4.84306 1.31496
vn -0.442932 -0.895831 -0.0360246
v 1.86395 4.84002 1.18303
vn -0.0841737 -0.891142 -0.445849
v 1.87877 4.87454 1.18671
vn 0.544388 0.835848 -0.0707093
v 1.76151 4.92708 1.31797
vn 0.437356 0.889218 0.134207
v 1.64233 4.94553 1.31733
vn -0.0605932 -0.0352071 0.997541
v 1.63506 4.94796 1.3159
vn -0.264505 -0.0454688 0.963312
v 1.74692 4.89318 1.24821
vn -0.443431 -0.895377 -0.0408589
v 1.86075 4.84236 1.1807
vn 0.159291 -0.166983 -0.973007
v 1.87201 4.8783 1.18541
vn 0.45094 0.890861 -0.0549554
v 1.65693 4.97893 1.31425
vn 0.431812 0.891597 0.136355
f 1//1 2//2 3//3
f 1//1 3//3 4//4
f 1//1 4//4 5//5
f 1//1 5//5 6//6
f 1//1 6//6 2//2
f 7//7 8//8 9//9
f 10//10 11//11 12//12
f 13//13 14//14 15//15
f 16//16 17//17 18//18
f 19//19 20//20 21//21
f 22//22 23//23 24//24
f 22//22 24//24 25//25
f 22//22 25//25 26//26
f 22//22 26//26 27//27
f 22//22 27//27 23//23
f 28//28 29//29 30//30
f 31//31 32//32 33//33
f 34//34 35//35 36//36
f 37//37 38//38 39//39
f 40//40 41//41 42//42
f 13//13 43//43 44//44
f 10//10 45//45 46//46
f 7//7 47//47 48//48
f 19//19 49//49 50//50
f 16//16 51//51 52//52
f 10//10 53//53 45//45
f 13//13 54//54 43//43
f 16//16 55//55 51//51
f 19//19 56//56 49//49
f 7//7 57//57 47//47
f 40//40 58//58 59//59
f 28//28 60//60 61//61
f 31//31 62//62 63//63
f 34//34 64//64 65//65
f 37//37 66//66 67//67
f 40//40 68//68 58//58
f 28//28 69//69 60//60
f 31//31 70//70 62//62
f 34//34 71//71 64//64
f 37//37 72//72 66//66
f 10//10 46//46 11//11
f 7//7 48//48 8//8
f 19//19 50//50 20//20
f 16//16 52//52 17//17
f 13//13 44//44 14//14
f 40//40 42//42 68//68
f 28//28 30//30 69//69
f 31//31 33//33 70//70
f 34//34 36//36 71//71
f 37//37 39//39 72//72
f 28//28 61//61 29//29
f 31//31 63//63 32//32
f 34//34 65//65 35//35
f 37//37 67//67 38//38
f 40//40 59//59 41//41
f 10//10 12//12 53//53
f 13//13 15//15 54//54
f 16//16 18//18 55//55
f 19//19 21//21 56//56
f 7//7 9//9 57//57
f 73//73 74//74 75//75
f 76//76 77//77 78//78
f 79//79 80//80 81//81
f 82//82 83//83 84//84
f 85//85 86//86 87//87
f 88//88 89//89 90//90
f 91//91 92//92 93//93
f 94//94 95//95 96//96
f 97//97 98//98 99//99
f 100//100 101//101 102//102
f 103//103 104//104 105//105
f 106//106 107//107 108//108
f 109//109 110//110 111//111
f 112//112 113//113 114//114
f 115//115 116//116 117//117
f 88//88 118//118 119//119
f 91//91 120//120 121//121
f 94//94 122//122 123//123
f 97//97 124//124 125//125
f 100//100 126//126 127//127
f 128//128 129//129 2//2
f 130//130 131//131 3//3
f 132//132 133//133 4//4
f 134//134 135//135 5//5
f 136//136 137//137 6//6
f 76//76 138//138 8//8
f 73//73 139//139 11//11
f 85//85 140//140 14//14
f 82//82 141//141 17//17
f 79//79 142//142 20//20
f 143//143 144//144 23//23
f 145//145 146//146 24//24
f 147//147 148//148 25//25
f 149//149 150//150 26//26
f 151//151 152//152 27//27
f 103//103 153//153 29//29
f 106//106 154//154 32//32
f 109//109 155//155 35//35
f 112//112 156//156 38//38
f 115//115 157//157 41//41
f 73//73 75//75 43//43
f 76//76 78//78 45//45
f 79//79 81//81 47//47
f 82//82 84//84 49//49
f 85//85 87//87 51//51
f 88//88 90//90 53//53
f 91//91 93//93 54//54
f 94//94 96//96 55//55
f 97//97 99//99 56//56
f 100//100 102//102 57//57
f 103//103 105//105 58//58
f 106//106 108//108 60//60
f 109//109 111//111 62//62
f 112//112 114//114 64//64
f 115//115 117//117 66//66
f 88//88 119//119 68//68
f 91//91 121//121 69//69
f 94//94 123//123 70//70
f 97//97 125//125 71//71
f 100//100 127//127 72//72
f 130//130 74//74 46//46
f 132//132 77//77 48//48
f 134//134 80//80 50//50
f 136//136 83//83 52//52
f 128//128 86//86 44//44
f 158//158 89//89 42//42
f 159//159 92//92 30//30
f 160//160 95//95 33//33
f 161//161 98//98 36//36
f 162//162 101//101 39//39
f 145//145 104//104 61//61
f 147//147 107//107 63//63
f 149//149 110//110 65//65
f 151//151 113//113 67//67
f 143//143 116//116 59//59
f 159//159 118//118 12//12
f 160//160 120//120 15//15
f 161//161 122//122 18//18
f 162//162 124//124 21//21
f 158//158 126//126 9//9
f 130//130 129//129 74//74
f 132//132 131//131 77//77
f 134//134 133//133 80//80
f 136//136 135//135 83//83
f 128//128 137//137 86//86
f 158//158 138//138 89//89
f 159//159 139//139 92//92
f 160//160 140//140 95//95
f 161//161 141//141 98//98
f 162//162 142//142 101//101
f 145//145 144//144 104//104
f 147//147 146//146 107//107
f 149//149 148//148 110//110
f 151//151 150//150 113//113
f 143//143 152//152 116//116
f 159//159 153//153 118//118
f 160//160 154//154 120//120
f 161//161 155//155 122//122
f 162//162 156//156 124//124
f 158//158 157//157 126//126
f 130//130 3//3 129//129
f 132//132 4//4 131//131
f 134//134 5//5 133//133
f 136//136 6//6 135//135
f 128//128 2//2 137//137
f 158//158 9//9 138//138
f 159//159 12//12 139//139
f 160//160 15//15 140//140
f 161//161 18//18 141//141
f 162//162 21//21 142//142
f 145//145 24//24 144//144
f 147//147 25//25 146//146
f 149//149 26//26 148//148
f 151//151 27//27 150//150
f 143//143 23//23 152//152
f 159//159 30//30 153//153
f 160//160 33//33 154//154
f 161//161 36//36 155//155
f 162//162 39//39 156//156
f 158//158 42//42 157//157
f 128//128 44//44 75//75
f 130//130 46//46 78//78
f 132//132 48//48 81//81
f 134//134 50//50 84//84
f 136//136 52//52 87//87
f 76//76 45//45 90//90
f 73//73 43//43 93//93
f 85//85 51//51 96//96
f 82//82 49//49 99//99
f 79//79 47//47 102//102
f 143//143 59//59 105//105
f 145//145 61//61 108//108
f 147//147 63//63 111//111
f 149//149 65//65 114//114
f 151//151 67//67 117//117
f 103//103 58//58 119//119
f 106//106 60//60 121//121
f 109//109 62//62 123//123
f 112//112 64//64 125//125
f 115//115 66//66 127//127
f 73//73 11//11 74//74
f 76//76 8//8 77//77
f 79//79 20//20 80//80
f 82//82 17//17 83//83
f 85//85 14//14 86//86
f 88//88 68//68 89//89
f 91//91 69//69 92//92
f 94//94 70//70 95//95
f 97//97 71//71 98//98
f 100//100 72//72 101//101
f 103//103 29//29 104//104
f 106//106 32//32 107//107
f 109//109 35//35 110//110
f 112//112 38//38 113//113
f 115//115 41//41 116//116
f 88//88 53//53 118//118
f 91//91 54//54 120//120
f 94//94 55//55 122//122
f 97//97 56//56 124//124
f 100//100 57//57 126//126
f 128//128 75//75 129//129
f 130//130 78//78 131//131
f 132//132 81//81 133//133
f 134//134 84//84 135//135
f 136//136 87//87 137//137
f 76//76 90//90 138//138
f 73//73 93//93 139//139
f 85//85 96//96 140//140
f 82//82 99//99 141//141
f 79//79 102//102 142//142
f 143//143 105//105 144//144
f 145//145 108//108 146//146
f 147//147 111//111 148//148
f 149//149 114//114 150//150
f 151//151 117//117 152//152
f 103//103 119//119 153//153
f 106//106 121//121 154//154
f 109//109 123//123 155//155
f 112//112 125//125 156//156
f 115//115 127//127 157//157
f 129//129 3//3 2//2
f 131//131 4//4 3//3
f 133//133 5//5 4//4
f 135//135 6//6 5//5
f 137//137 2//2 6//6
f 138//138 9//9 8//8
f 139//139 12//12 11//11
f 140//140 15//15 14//14
f 141//141 18//18 17//17
f 142//142 21//21 20//20
f 144//144 24//24 23//23
f 146//146 25//25 24//24
f 148//148 26//26 25//25
f 150//150 27//27 26//26
f 152//152 23//23 27//27
f 153//153 30//30 29//29
f 154//154 33//33 32//32
f 155//155 36//36 35//35
f 156//156 39//39 38//38
f 157//157 42//42 41//41
f 75//75 44//44 43//43
f 78//78 46//46 45//45
f 81//81 48//48 47//47
f 84//84 50//50 49//49
f 87//87 52//52 51//51
f 90//90 45//45 53//53
f 93//93 43//43 54//54
f 96//96 51//51 55//55
f 99//99 49//49 56//56
f 102//102 47//47 57//57
f 105//105 59//59 58//58
f 108//108 61//61 60//60
f 111//111 63//63 62//62
f 114//114 65//65 64//64
f 117//117 67//67 66//66
f 119//119 58//58 68//68
f 121//121 60//60 69//69
f 123//123 62//62 70//70
f 125//125 64//64 71//71
f 127//127 66//66 72//72
f 74//74 11//11 46//46
f 77//77 8//8 48//48
f 80//80 20//20 50//50
f 83//83 17//17 52//52
f 86//86 14//14 44//44
f 89//89 68//68 42//42
f 92//92 69//69 30//30
f 95//95 70//70 33//33
f 98//98 71//71 36//36
f 101//101 72//72 39//39
f 104//104 29//29 61//61
f 107//107 32//32 63//63
f 110//110 35//35 65//65
f 113//113 38//38 67//67
f 116//116 41//41 59//59
f 118//118 53//53 12//12
f 120//120 54//54 15//15
f 122//122 55//55 18//18
f 124//124 56//56 21//21
f 126//126 57//57 9//9
f 129//129 75//75 74//74
f 131//131 78//78 77//77
f 133//133 81//81 80//80
f 135//135 84//84 83//83
f 137//137 87//87 86//86
f 138//138 90//90 89//89
f 139//139 93//93 92//92
f 140//140 96//96 95//95
f 141//141 99//99 98//98
f 142//142 102//102 101//101
f 144//144 105//105 104//104
f 146//146 108//108 107//107
f 148//148 111//111 110//110
f 150//150 114//114 113//113
f 152//152 117//117 116//116
f 153//153 119//119 118//118
f 154//154 121//121 120//120
f 155//155 123//123 122//122
f 156//156 125//125 124//124
f 157//157 127//127 126//126
