# Created by Open3D 
# object name: part_040
# number of vertices: 162
# number of triangles: 320
v -1.94596 2.74603 0.126523
vn -0.5106 -0.851725 -0.117695
v -1.92778 2.73677 0.120917
vn -0.446228 -0.842294 -0.302358
v -1.92825 2.73527 0.131694
vn -0.458964 -0.886696 -0.0558811
v -1.94666 2.7456 0.140934
vn -0.51877 -0.854788 0.0146587
v -1.95812 2.75337 0.13027
vn -0.592398 -0.803227 -0.0623845
v -1.95625 2.75402 0.11956
vn -0.524395 -0.793621 -0.308506
v -1.95618 2.76489 0.58047
vn -0.516955 -0.839988 0.164853
v -1.93826 2.75377 0.577009
vn -0.462666 -0.879865 0.108523
v -1.93828 2.75616 0.587634
vn -0.460924 -0.815161 0.350801
v -1.92919 2.74698 0.354341
vn 0.805473 -0.591094 0.0426709
v -1.92359 2.73953 0.142769
vn 0.826831 -0.560993 0.0404701
v -1.92625 2.75135 0.354225
vn 0.851526 -0.522718 0.040867
v -1.88154 2.80848 0.114161
vn 0.84071 -0.515289 -0.166383
v -1.88249 2.80898 0.111167
vn 0.235039 -0.16944 -0.957103
v -1.8417 2.87475 0.11197
vn 0.818963 -0.486903 -0.303686
v -1.91359 2.82791 0.112633
vn -0.831432 0.498156 -0.246093
v -1.95241 2.76538 0.118896
vn -0.850691 0.510139 -0.126818
v -1.87589 2.89136 0.115385
vn -0.847995 0.514578 -0.12694
v -1.96176 2.76542 0.305852
vn -0.896854 0.440651 -0.0384778
v -1.96824 2.77355 0.554403
vn -0.944066 0.327995 -0.0340425
v -1.96678 2.77751 0.564234
vn -0.879828 0.473748 -0.0382865
v -1.86578 2.91371 0.576322
vn 0.5106 0.851726 0.117691
v -1.8496 2.90215 0.583565
vn 0.519025 0.798175 0.305826
v -1.84774 2.9028 0.572855
vn 0.569618 0.819632 0.0611484
v -1.86471 2.91392 0.561928
vn 0.51877 0.854788 -0.0146587
v -1.87761 2.92091 0.571431
vn 0.433881 0.8993 0.0548309
v -1.87807 2.91941 0.582208
vn 0.439539 0.84505 0.30446
v -1.84304 2.88881 0.350388
vn 0.896853 -0.440651 0.0384778
v -1.84859 2.89624 0.561962
vn 0.879891 -0.473414 0.0408882
v -1.84556 2.8842 0.350523
vn 0.857411 -0.513028 0.0405969
v -1.85557 2.89486 0.122375
vn 0.516955 0.839988 -0.164857
v -1.83772 2.88431 0.12754
vn 0.573322 0.812799 -0.103248
v -1.8391 2.88277 0.116848
vn 0.533718 0.771044 -0.347327
v -1.87561 2.90725 0.301899
vn -0.805473 0.591095 -0.0426709
v -1.8706 2.90262 0.147149
vn -0.725094 0.687124 -0.0458201
v -1.87275 2.89908 0.137285
vn -0.826538 0.561182 -0.0437136
v -1.92431 2.84769 0.588964
vn -0.84071 0.515289 0.166383
v -1.8864 2.91077 0.582658
vn -0.851878 0.521747 0.0456511
v -1.96292 2.78479 0.586169
vn -0.854574 0.517308 0.0457734
v -1.89226 2.82827 0.590492
vn 0.831432 -0.498156 0.246093
v -1.89334 2.82901 0.593389
vn 0.191523 -0.0890891 0.977436
v -1.93272 2.76237 0.592654
vn 0.786745 -0.486278 0.380218
v -1.91945 2.74541 0.120467
vn 0.851878 -0.521747 -0.0456508
v -1.92199 2.74256 0.115655
vn 0.802114 -0.514653 -0.302896
v -1.93525 2.75355 0.555976
vn 0.726241 -0.685918 0.0457141
v -1.92618 2.73681 0.152786
vn 0.726288 -0.685985 0.043944
v -1.96813 2.77187 0.575585
vn -0.596099 -0.796394 0.102091
v -1.95622 2.76326 0.566128
vn -0.519181 -0.854028 0.0329685
v -1.95726 2.75994 0.141163
vn -0.880068 0.473052 -0.0412573
v -1.95917 2.7568 0.151213
vn -0.945026 0.325038 -0.0357284
v -1.91251 2.82717 0.109736
vn -0.275788 0.141014 -0.950819
v -1.95343 2.76162 0.114156
vn -0.8036 0.458532 -0.379441
v -1.9331 2.7571 0.56584
vn 0.826767 -0.560874 0.0433258
v -1.84294 2.87139 0.116956
vn 0.854574 -0.517308 -0.0457731
v -1.87314 2.8938 0.110471
vn -0.786745 0.486278 -0.380218
v -1.95923 2.77001 0.305137
vn -0.857411 0.513028 -0.0405969
v -1.96675 2.77341 0.586277
vn -0.539194 -0.766294 0.349376
v -1.85345 2.89079 0.584229
vn 0.850691 -0.510139 0.126818
v -1.85243 2.89456 0.588969
vn 0.8036 -0.458532 0.379441
v -1.83761 2.88263 0.148722
vn 0.944527 -0.326677 0.0339292
v -1.84668 2.89938 0.551912
vn 0.944489 -0.326598 0.0356994
v -1.86759 2.90241 0.126116
vn 0.437577 0.89247 -0.109654
v -1.85514 2.89626 0.136734
vn 0.519181 0.854028 -0.0329685
v -1.88227 2.91665 0.560356
vn -0.82697 0.56077 -0.0407121
v -1.87967 2.91937 0.550339
vn -0.727236 0.684976 -0.0439924
v -1.92336 2.8472 0.591958
vn -0.317932 0.218825 0.922515
v -1.88387 2.91362 0.587471
vn -0.802114 0.514653 0.302894
v -1.92997 2.76482 0.58774
vn 0.847995 -0.514578 0.12694
v -1.83907 2.87866 0.138891
vn 0.879955 -0.473532 0.0380323
v -1.86757 2.90002 0.115491
vn 0.454343 0.817721 -0.35342
v -1.87854 2.90286 0.301434
vn -0.851526 0.522718 -0.040867
v -1.96416 2.78143 0.591155
vn -0.818964 0.486904 0.303683
v -1.92196 2.74132 0.128394
vn 0.850133 -0.526431 0.0120214
v -1.92502 2.73717 0.13213
vn 0.755197 -0.655424 0.0098626
v -1.92365 2.73915 0.121099
vn 0.780707 -0.621569 -0.0644073
v -1.9368 2.75332 0.569614
vn 0.437032 -0.897769 0.0549055
v -1.93822 2.75216 0.556197
vn -0.462225 -0.886311 0.0282772
v -1.9321 2.74396 0.3544
vn 0.426946 -0.903049 0.0471133
v -1.96869 2.77265 0.568093
vn -0.999476 -0.0288536 -0.0146636
v -1.96315 2.76153 0.30819
vn -0.999029 -0.0388146 -0.0208615
v -1.96813 2.77029 0.554772
vn -0.602694 -0.797683 0.0214941
v -1.95542 2.7616 0.126799
vn -0.858049 0.508857 -0.0694045
v -1.95606 2.7588 0.119554
vn -0.904974 0.400083 -0.144762
v -1.95795 2.75712 0.130561
vn -0.928369 0.364932 -0.0703916
v -1.90062 2.81994 0.109364
vn 0.0224705 -0.0414895 -0.998886
v -1.92345 2.74328 0.113249
vn 0.0475512 -0.112683 -0.992493
v -1.95195 2.76055 0.111891
vn -0.059861 -0.0473 -0.997085
v -1.93212 2.76008 0.580075
vn 0.848834 -0.524029 0.0698254
v -1.93414 2.75852 0.587441
vn 0.775867 -0.612636 0.15069
v -1.93502 2.75563 0.576562
vn 0.753651 -0.652581 0.0784084
v -1.84027 2.87581 0.124646
vn 0.859349 -0.511258 0.0116023
v -1.84286 2.87205 0.138839
vn 0.855121 -0.516939 0.0392588
v -1.88101 2.80847 0.125388
vn 0.854776 -0.518846 0.0125227
v -1.86993 2.89802 0.111899
vn 0.0199833 0.719087 -0.694633
v -1.85758 2.89099 0.111274
vn 0.371175 0.553801 -0.745341
v -1.87157 2.89289 0.108202
vn -0.0103103 0.0342778 -0.999359
v -1.91894 2.83647 0.303098
vn -0.854482 0.517881 -0.0407326
v -1.87686 2.89266 0.137218
vn -0.853829 0.518808 -0.0425905
v -1.95347 2.76654 0.140733
vn -0.855049 0.5168 -0.0425344
v -1.96631 2.77658 0.589777
vn -0.675576 -0.321741 0.663385
v -1.96655 2.77817 0.585896
vn -0.90981 0.409022 0.0703269
v -1.96803 2.77428 0.582367
vn -0.992807 0.0581036 0.104684
v -1.85043 2.89457 0.576326
vn 0.858049 -0.508857 0.0694045
v -1.8479 2.89905 0.572564
vn 0.928369 -0.364932 0.0703916
v -1.8498 2.89738 0.583571
vn 0.904974 -0.400083 0.144762
v -1.83717 2.88353 0.135032
vn 0.99954 0.0271098 0.0135739
v -1.83773 2.88589 0.148354
vn 0.57364 0.818785 -0.0229657
v -1.8417 2.89279 0.350252
vn 0.999029 0.0388146 0.0208615
v -1.86906 2.90285 0.133511
vn -0.439163 0.896625 -0.056565
v -1.87275 2.91036 0.304042
vn -0.426946 0.903049 -0.0471133
v -1.86763 2.90402 0.146928
vn 0.440785 0.897135 -0.02929
v -1.88389 2.91486 0.574731
vn -0.850133 0.526431 -0.0120216
v -1.88221 2.91703 0.582026
vn -0.780707 0.62157 0.0644073
v -1.88083 2.91901 0.570995
vn -0.755197 0.655424 -0.00986268
v -1.91151 2.84004 0.593461
vn -0.0224698 0.0414891 0.998886
v -1.8539 2.89562 0.591234
vn 0.0525282 0.0520277 0.997263
v -1.8824 2.9129 0.589876
vn -0.0550976 0.116975 0.991605
v -1.92899 2.76352 0.565907
vn 0.85384 -0.518821 0.0422062
v -1.89122 2.82732 0.57934
vn 0.853508 -0.516504 0.0689082
v -1.8393 2.87801 0.117229
vn 0.90981 -0.409022 -0.0703269
v -1.83791 2.88059 0.128133
vn 0.929907 -0.367789 0.00184864
v -1.87171 2.89766 0.115684
vn -0.775867 0.612636 -0.15069
v -1.8692 2.90092 0.119263
vn -0.501087 0.847329 -0.175911
v -1.963 2.78413 0.564286
vn -0.855115 0.516931 -0.0395097
v -1.88639 2.91025 0.560771
vn -0.853901 0.518929 -0.0395655
v -1.95445 2.76894 0.591556
vn -0.371175 -0.553801 0.745341
v -1.96279 2.78056 0.593564
vn -0.104648 0.0353955 0.993879
v -1.92526 2.73847 0.117281
vn -0.0885531 -0.741184 -0.665436
v -1.92633 2.73619 0.124819
vn 0.506909 -0.858053 -0.0823927
v -1.92711 2.73544 0.139159
vn 0.437367 -0.898421 0.039369
v -1.92914 2.7354 0.152548
vn -0.462142 -0.886466 0.0245623
v -1.952 2.75436 0.353521
vn -0.518997 -0.854444 0.023815
v -1.95904 2.75352 0.151123
vn -0.593073 -0.804944 0.0181498
v -1.959 2.75477 0.137639
vn -0.9992 -0.0254171 -0.0308655
v -1.9577 2.75521 0.123324
vn -0.986996 0.0473876 -0.153601
v -1.95565 2.75689 0.115832
vn -0.645717 -0.376872 -0.664091
v -1.94373 2.74915 0.115227
vn -0.338373 -0.614364 -0.712784
v -1.93665 2.75526 0.583862
vn 0.501087 -0.847329 0.175911
v -1.91946 2.74593 0.142354
vn 0.853905 -0.518942 0.0393147
v -1.84307 2.87562 0.109561
vn 0.0973391 -0.0307133 -0.994777
v -1.91464 2.82885 0.123785
vn -0.853508 0.516504 -0.0689082
v -1.96795 2.77558 0.574992
vn -0.929907 0.367789 -0.00184864
v -1.8502 2.89928 0.587293
vn 0.568896 0.450051 0.68834
v -1.84815 2.90097 0.579801
vn 0.986996 -0.0473876 0.153601
v -1.84685 2.9014 0.565486
vn 0.999191 0.0277672 0.0291086
v -1.84681 2.90266 0.552002
vn 0.573553 0.818942 -0.0192513
v -1.86013 2.90562 0.349305
vn 0.518997 0.854444 -0.0238146
v -1.87671 2.92078 0.550577
vn 0.429994 0.90246 -0.0258914
v -1.87874 2.92073 0.563966
vn -0.435818 0.899122 -0.0405271
v -1.87953 2.91998 0.578306
vn -0.506908 0.858054 0.0823928
v -1.88059 2.9177 0.585844
vn -0.00988149 0.774225 0.632833
v -1.8683 2.91077 0.587603
vn 0.338373 0.614364 0.712784
v -1.85238 2.88964 0.562392
vn 0.855056 -0.516819 0.0421503
v -1.83782 2.8819 0.120758
vn 0.992807 -0.0581036 -0.104684
v -1.87083 2.90055 0.126563
vn -0.753651 0.652581 -0.0784084
v -1.92485 2.84771 0.577737
vn -0.854776 0.518846 -0.0125227
v -1.93429 2.76329 0.594923
vn 0.00273939 -0.0299421 0.999548
v -1.93592 2.75816 0.591226
vn -0.119722 -0.68364 0.719932
v -1.88584 2.81773 0.352377
vn 0.854482 -0.517881 0.0407326
v -1.83954 2.8796 0.113348
vn 0.600058 0.392513 -0.697039
v -1.87373 2.89609 0.123051
vn -0.848834 0.524029 -0.0698254
v -1.96558 2.78036 0.578479
vn -0.859349 0.511258 -0.0116023
f 1//1 2//2 3//3
f 1//1 3//3 4//4
f 1//1 4//4 5//5
f 1//1 5//5 6//6
f 1//1 6//6 2//2
f 7//7 8//8 9//9
f 10//10 11//11 12//12
f 13//13 14//14 15//15
f 16//16 17//17 18//18
f 19//19 20//20 21//21
f 22//22 23//23 24//24
f 22//22 24//24 25//25
f 22//22 25//25 26//26
f 22//22 26//26 27//27
f 22//22 27//27 23//23
f 28//28 29//29 30//30
f 31//31 32//32 33//33
f 34//34 35//35 36//36
f 37//37 38//38 39//39
f 40//40 41//41 42//42
f 13//13 43//43 44//44
f 10//10 45//45 46//46
f 7//7 47//47 48//48
f 19//19 49//49 50//50
f 16//16 51//51 52//52
f 10//10 53//53 45//45
f 13//13 54//54 43//43
f 16//16 55//55 51//51
f 19//19 56//56 49//49
f 7//7 57//57 47//47
f 40//40 58//58 59//59
f 28//28 60//60 61//61
f 31//31 62//62 63//63
f 34//34 64//64 65//65
f 37//37 66//66 67//67
f 40//40 68//68 58//58
f 28//28 69//69 60//60
f 31//31 70//70 62//62
f 34//34 71//71 64//64
f 37//37 72//72 66//66
f 10//10 46//46 11//11
f 7//7 48//48 8//8
f 19//19 50//50 20//20
f 16//16 52//52 17//17
f 13//13 44//44 14//14
f 40//40 42//42 68//68
f 28//28 30//30 69//69
f 31//31 33//33 70//70
f 34//34 36//36 71//71
f 37//37 39//39 72//72
f 28//28 61//61 29//29
f 31//31 63//63 32//32
f 34//34 65//65 35//35
f 37//37 67//67 38//38
f 40//40 59//59 41//41
f 10//10 12//12 53//53
f 13//13 15//15 54//54
f 16//16 18//18 55//55
f 19//19 21//21 56//56
f 7//7 9//9 57//57
f 73//73 74//74 75//75
f 76//76 77//77 78//78
f 79//79 80//80 81//81
f 82//82 83//83 84//84
f 85//85 86//86 87//87
f 88//88 89//89 90//90
f 91//91 92//92 93//93
f 94//94 95//95 96//96
f 97//97 98//98 99//99
f 100//100 101//101 102//102
f 103//103 104//104 105//105
f 106//106 107//107 108//108
f 109//109 110//110 111//111
f 112//112 113//113 114//114
f 115//115 116//116 117//117
f 88//88 118//118 119//119
f 91//91 120//120 121//121
f 94//94 122//122 123//123
f 97//97 124//124 125//125
f 100//100 126//126 127//127
f 128//128 129//129 2//2
f 130//130 131//131 3//3
f 132//132 133//133 4//4
f 134//134 135//135 5//5
f 136//136 137//137 6//6
f 76//76 138//138 8//8
f 73//73 139//139 11//11
f 85//85 140//140 14//14
f 82//82 141//141 17//17
f 79//79 142//142 20//20
f 143//143 144//144 23//23
f 145//145 146//146 24//24
f 147//147 148//148 25//25
f 149//149 150//150 26//26
f 151//151 152//152 27//27
f 103//103 153//153 29//29
f 106//106 154//154 32//32
f 109//109 155//155 35//35
f 112//112 156//156 38//38
f 115//115 157//157 41//41
f 73//73 75//75 43//43
f 76//76 78//78 45//45
f 79//79 81//81 47//47
f 82//82 84//84 49//49
f 85//85 87//87 51//51
f 88//88 90//90 53//53
f 91//91 93//93 54//54
f 94//94 96//96 55//55
f 97//97 99//99 56//56
f 100//100 102//102 57//57
f 103//103 105//105 58//58
f 106//106 108//108 60//60
f 109//109 111//111 62//62
f 112//112 114//114 64//64
f 115//115 117//117 66//66
f 88//88 119//119 68//68
f 91//91 121//121 69//69
f 94//94 123//123 70//70
f 97//97 125//125 71//71
f 100//100 127//127 72//72
f 130//130 74//74 46//46
f 132//132 77//77 48//48
f 134//134 80//80 50//50
f 136//136 83//83 52//52
f 128//128 86//86 44//44
f 158//158 89//89 42//42
f 159//159 92//92 30//30
f 160//160 95//95 33//33
f 161//161 98//98 36//36
f 162//162 101//101 39//39
f 145//145 104//104 61//61
f 147//147 107//107 63//63
f 149//149 110//110 65//65
f 151//151 113//113 67//67
f 143//143 116//116 59//59
f 159//159 118//118 12//12
f 160//160 120//120 15//15
f 161//161 122//122 18//18
f 162//162 124//124 21//21
f 158//158 126//126 9//9
f 130//130 129//129 74//74
f 132//132 131//131 77//77
f 134//134 133//133 80//80
f 136//136 135//135 83//83
f 128//128 137//137 86//86
f 158//158 138//138 89//89
f 159//159 139//139 92//92
f 160//160 140//140 95//95
f 161//161 141//141 98//98
f 162//162 142//142 101//101
f 145//145 144//144 104//104
f 147//147 146//146 107//107
f 149//149 148//148 110//110
f 151//151 150//150 113//113
f 143//143 152//152 116//116
f 159//159 153//153 118//118
f 160//160 154//154 120//120
f 161//161 155//155 122//122
f 162//162 156//156 124//124
f 158//158 157//157 126//126
f 130//130 3//3 129//129
f 132//132 4//4 131//131
f 134//134 5//5 133//133
f 136//136 6//6 135//135
f 128//128 2//2 137//137
f 158//158 9//9 138//138
f 159//159 12//12 139//139
f 160//160 15//15 140//140
f 161//161 18//18 141//141
f 162//162 21//21 142//142
f 145//145 24//24 144//144
f 147//147 25//25 146//146
f 149//149 26//26 148//148
f 151//151 27//27 150//150
f 143//143 23//23 152//152
f 159//159 30//30 153//153
f 160//160 33//33 154//154
f 161//161 36//36 155//155
f 162//162 39//39 156//156
f 158//158 42//42 157//157
f 128//128 44//44 75//75
f 130//130 46//46 78//78
f 132//132 48//48 81//81
f 134//134 50//50 84//84
f 136//136 52//52 87//87
f 76//76 45//45 90//90
f 73//73 43//43 93//93
f 85//85 51//51 96//96
f 82//82 49//49 99//99
f 79//79 47//47 102//102
f 143//143 59//59 105//105
f 145//145 61//61 108//108
f 147//147 63//63 111//111
f 149//149 65//65 114//114
f 151//151 67//67 117//117
f 103//103 58//58 119//119
f 106//106 60//60 121//121
f 109//109 62//62 123//123
f 112//112 64//64 125//125
f 115//115 66//66 127//127
f 73//73 11//11 74//74
f 76//76 8//8 77//77
f 79//79 20//20 80//80
f 82//82 17//17 83//83
f 85//85 14//14 86//86
f 88//88 68//68 89//89
f 91//91 69//69 92//92
f 94//94 70//70 95//95
f 97//97 71//71 98//98
f 100//100 72//72 101//101
f 103//103 29//29 104//104
f 106//106 32//32 107//107
f 109//109 35//35 110//110
f 112//112 38//38 113//113
f 115//115 41//41 116//116
f 88//88 53//53 118//118
f 91//91 54//54 120//120
f 94//94 55//55 122//122
f 97//97 56//56 124//124
f 100//100 57//57 126//126
f 128//128 75//75 129//129
f 130//130 78//78 131//131
f 132//132 81//81 133//133
f 134//134 84//84 135//135
f 136//136 87//87 137//137
f 76//76 90//90 138//138
f 73//73 93//93 139//139
f 85//85 96//96 140//140
f 82//82 99//99 141//141
f 79//79 102//102 142//142
f 143//143 105//105 144//144
f 145//145 108//108 146//146
f 147//147 111//111 148//148
f 149//149 114//114 150//150
f 151//151 117//117 152//152
f 103//103 119//119 153//153
f 106//106 121//121 154//154
f 109//109 123//123 155//155
f 112//112 125//125 156//156
f 115//115 127//127 157//157
f 129//129 3//3 2//2
f 131//131 4//4 3//3
f 133//133 5//5 4//4
f 135//135 6//6 5//5
f 137//137 2//2 6//6
f 138//138 9//9 8//8
f 139//139 12//12 11//11
f 140//140 15//15 14//14
f 141//141 18//18 17//17
f 142//142 21//21 20//20
f 144//144 24//24 23//23
f 146//146 25//25 24//24
f 148//148 26//26 25//25
f 150//150 27//27 26//26
f 152//152 23//23 27//27
f 153//153 30//30 29//29
f 154//154 33//33 32//32
f 155//155 36//36 35//35
f 156//156 39//39 38//38
f 157//157 42//42 41//41
f 75//75 44//44 43//43
f 78//78 46//46 45//45
f 81//81 48//48 47//47
f 84//84 50//50 49//49
f 87//87 52//52 51//51
f 90//90 45//45 53//53
f 93//93 43//43 54//54
f 96//96 51//51 55//55
f 99//99 49//49 56//56
f 102//102 47//47 57//57
f 105//105 59//59 58//58
f 108//108 61//61 60//60
f 111//111 63//63 62//62
f 114//114 65//65 64//64
f 117//117 67//67 66//66
f 119//119 58//58 68//68
f 121//121 60//60 69//69
f 123//123 62//62 70//70
f 125//125 64//64 71//71
f 127//127 66//66 72//72
f 74//74 11//11 46//46
f 77//77 8//8 48//48
f 80//80 20//20 50//50
f 83//83 17//17 52//52
f 86//86 14//14 44//44
f 89//89 68//68 42//42
f 92//92 69//69 30//30
f 95//95 70//70 33//33
f 98//98 71//71 36//36
f 101//101 72//72 39//39
f 104//104 29//29 61//61
f 107//107 32//32 63//63
f 110//110 35//35 65//65
f 113//113 38//38 67//67
f 116//116 41//41 59//59
f 118//118 53//53 12//12
f 120//120 54//54 15//15
f 122//122 55//55 18//18
f 124//124 56//56 21//21
f 126//126 57//57 9//9
f 129//129 75//75 74//74
f 131//131 78//78 77//77
f 133//133 81//81 80//80
f 135//135 84//84 83//83
f 137//137 87//87 86//86
f 138//138 90//90 89//89
f 139//139 93//93 92//92
f 140//140 96//96 95//95
f 141//141 99//99 98//98
f 142//142 102//102 101//101
f 144//144 105//105 104//104
f 146//146 108//108 107//107
f 148//148 111//111 110//110
f 150//150 114//114 113//113
f 152//152 117//117 116//116
f 153//153 119//119 118//118
f 154//154 121//121 120//120
f 155//155 123//123 122//122
f 156//156 125//125 124//124
f 157//157 127//127 126//126
