# Created by Open3D 
# object name: part_037
# number of vertices: 162
# number of triangles: 320
v 0.0457217 2.7455 0.667112
vn -0.00712368 0.0134547 -0.999884
v 0.0680658 2.74499 0.667141
vn 0.0194366 0.039153 -0.999044
v 0.061312 2.73006 0.666923
vn 0.00337777 -0.00359857 -0.999988
v 0.0358673 2.72586 0.667175
vn -0.0176642 -0.00704552 -0.999819
v 0.0302262 2.74605 0.66736
vn -0.0337183 0.0155211 -0.999311
v 0.0384409 2.76022 0.667557
vn -0.0031812 0.0513491 -0.998676
v -0.271401 2.12849 0.678159
vn -0.0296389 -0.030351 -0.9991
v -0.249781 2.12479 0.677761
vn -0.00966428 -0.028972 -0.999534
v -0.257978 2.11062 0.678499
vn -0.0350543 -0.0668673 -0.997146
v -0.0922572 2.42643 0.673424
vn 0.83717 -0.436186 -0.329983
v 0.0555518 2.71394 0.668691
vn 0.86977 -0.449637 -0.203291
v -0.0920153 2.42633 0.674805
vn 0.888641 -0.457341 -0.0340099
v 0.0737025 2.75075 0.689487
vn 0.943447 -0.331203 -0.0145517
v 0.074704 2.7553 0.68943
vn 0.750956 0.660068 -0.0193856
v 0.0739931 2.75154 0.709845
vn 0.970187 -0.237578 0.0478943
v 0.0403481 2.76791 0.689955
vn -0.81829 0.574716 0.0101903
v 0.0363581 2.76183 0.670667
vn -0.862032 0.506851 0.00168002
v 0.0370718 2.76216 0.709477
vn -0.861669 0.507018 0.0214482
v -0.0945023 2.50815 0.672774
vn -0.848861 0.430801 -0.306343
v -0.267767 2.17024 0.678202
vn -0.702338 0.349396 -0.620196
v -0.27505 2.15692 0.679479
vn -0.876866 0.44664 -0.177817
v -0.270558 2.12888 0.724009
vn 0.0071239 -0.0134543 0.999884
v -0.257151 2.111 0.723477
vn 0.00165117 -0.0499965 0.998748
v -0.248936 2.12517 0.723674
vn 0.0271008 -0.0120737 0.99956
v -0.260316 2.14832 0.723939
vn 0.0176642 0.00704553 0.999819
v -0.280022 2.14116 0.724111
vn -0.0100344 0.0069781 0.999925
v -0.286776 2.12624 0.723893
vn -0.0214287 -0.0386941 0.999021
v -0.0914537 2.4268 0.717119
vn 0.848861 -0.430801 0.306341
v -0.239214 2.13926 0.721851
vn 0.875953 -0.448044 0.178783
v -0.0912627 2.42668 0.715732
vn 0.889433 -0.456977 0.00903828
v 0.0465649 2.74589 0.712961
vn 0.0296385 0.0303515 0.9991
v 0.0621564 2.73045 0.712837
vn 0.0401421 0.0132991 0.999105
v 0.068893 2.74537 0.712119
vn 0.0561424 0.056024 0.99685
v -0.0936988 2.50852 0.716469
vn -0.837167 0.436185 0.329991
v 0.0147237 2.71864 0.713314
vn -0.674546 0.358809 0.64517
v 0.0212919 2.73233 0.712047
vn -0.868543 0.451376 0.204675
v -0.292412 2.12047 0.701547
vn -0.943447 0.331203 0.0145519
v -0.289361 2.12703 0.720848
vn -0.913504 0.406166 0.0232539
v -0.290074 2.1267 0.682039
vn -0.913866 0.406 0.00348686
v -0.259058 2.10332 0.701079
vn 0.81829 -0.574715 -0.0101903
v -0.262172 2.09986 0.701165
vn -0.0996785 -0.994967 0.0102478
v -0.259983 2.10286 0.68073
vn 0.756314 -0.650219 -0.0721427
v 0.0706507 2.74419 0.670186
vn 0.913504 -0.406165 -0.0232536
v 0.0732442 2.7512 0.669122
vn 0.967845 -0.23865 -0.0795121
v -0.233434 2.15258 0.67772
vn 0.676824 -0.35988 -0.64218
v 0.0482311 2.70061 0.667908
vn 0.677236 -0.359058 -0.642206
v -0.280866 2.14077 0.678197
vn -0.0467929 -0.00991824 -0.998855
v -0.261169 2.14793 0.677523
vn -0.0191092 -0.00985667 -0.999769
v 0.0205036 2.73196 0.669183
vn -0.875621 0.448123 -0.180202
v 0.0138975 2.71826 0.66839
vn -0.697926 0.348067 -0.625898
v 0.0434622 2.77137 0.689869
vn -0.0399707 0.999171 -0.00771495
v 0.0405241 2.76802 0.669581
vn -0.758654 0.649145 -0.0552665
v -0.240002 2.1389 0.678987
vn 0.86893 -0.451275 -0.20325
v 0.0713645 2.74452 0.708995
vn 0.913867 -0.406 -0.00348715
v 0.041273 2.76837 0.710304
vn -0.756314 0.650219 0.0721425
v -0.0942882 2.50907 0.674147
vn -0.889433 0.456977 -0.00903813
v -0.287603 2.12586 0.678915
vn -0.0581314 -0.0555634 -0.996761
v -0.255068 2.1094 0.720367
vn 0.862033 -0.50685 -0.00167998
v -0.259234 2.1032 0.721453
vn 0.758653 -0.649146 0.0552674
v 0.0490572 2.70099 0.712832
vn 0.700536 -0.348384 0.622798
v -0.232608 2.15296 0.722644
vn 0.700111 -0.349199 0.622819
v 0.0310706 2.74644 0.713274
vn 0.00303918 0.0324164 0.99947
v 0.0367209 2.72625 0.713592
vn 0.019109 0.0098566 0.999769
v -0.274262 2.15728 0.722343
vn -0.86987 0.449852 0.202386
v -0.266941 2.17062 0.723126
vn -0.679152 0.360036 0.63963
v -0.293414 2.11592 0.701604
vn -0.835639 -0.548914 0.0200041
v -0.291954 2.12002 0.721913
vn -0.967845 0.238649 0.0795131
v -0.255782 2.10907 0.681557
vn 0.861669 -0.507017 -0.0214483
v 0.0563401 2.7143 0.711555
vn 0.876796 -0.446408 0.178743
v 0.039268 2.7606 0.712535
vn 0.0335217 0.0682198 0.997107
v -0.0935356 2.50941 0.715074
vn -0.888641 0.457341 0.0340141
v -0.292703 2.11968 0.68119
vn -0.970187 0.237576 -0.0478948
v 0.0654458 2.73345 0.669059
vn 0.896618 -0.440357 -0.0464848
v 0.062609 2.72865 0.667776
vn 0.74453 -0.371086 -0.55495
v 0.070007 2.74369 0.668216
vn 0.821831 -0.357969 -0.443228
v -0.243536 2.13435 0.677712
vn 0.318315 -0.182836 -0.930186
v -0.235213 2.15309 0.677028
vn -0.00323781 -0.0165994 -0.999857
v -0.0930992 2.42684 0.672358
vn 0.312174 -0.177159 -0.93336
v -0.276724 2.15141 0.678178
vn -0.353227 0.162864 -0.921252
v -0.0952388 2.50473 0.671739
vn -0.346337 0.16146 -0.924111
v -0.266335 2.1691 0.677465
vn -0.0422914 0.00347397 -0.999099
v 0.030622 2.75136 0.669549
vn -0.880539 0.473485 -0.0215288
v 0.0362781 2.76103 0.66869
vn -0.778853 0.465129 -0.420765
v 0.0283439 2.74627 0.668257
vn -0.747062 0.395918 -0.533992
v 0.0564712 2.76629 0.689672
vn 0.457066 0.88929 -0.015922
v 0.0733459 2.75516 0.669063
vn 0.510214 0.811807 -0.283992
v 0.0436872 2.77041 0.669479
vn 0.345479 0.895586 -0.280302
v -0.250094 2.11952 0.680052
vn 0.879299 -0.474054 -0.0458849
v -0.255775 2.10983 0.679565
vn 0.763 -0.472414 -0.441198
v -0.247867 2.12458 0.678592
vn 0.727045 -0.405116 -0.554335
v 0.0662078 2.7338 0.710493
vn 0.897857 -0.43979 0.0209211
v 0.0566431 2.71453 0.709541
vn 0.889749 -0.456379 -0.00805444
v 0.0667079 2.73512 0.689747
vn 0.897543 -0.440742 -0.0127796
v 0.0407775 2.76602 0.71171
vn -0.0389049 0.232846 0.971735
v 0.054212 2.76117 0.711614
vn 0.100852 0.169352 0.980382
v 0.044437 2.77076 0.710249
vn 0.355278 0.900087 0.252232
v -0.0938519 2.50952 0.694607
vn -0.889243 0.457265 0.0124873
v 0.0212515 2.73273 0.710038
vn -0.888603 0.458365 0.0169295
v 0.020537 2.7324 0.671185
vn -0.888767 0.458289 0.00800915
v -0.291116 2.12146 0.679768
vn -0.233568 -0.0927395 -0.967908
v -0.289504 2.12717 0.680039
vn -0.837683 0.350687 -0.418695
v -0.286437 2.13185 0.678888
vn -0.427984 0.15601 -0.89022
v -0.249332 2.11987 0.721486
vn 0.880539 -0.473485 0.0215286
v -0.247054 2.12495 0.722777
vn 0.747061 -0.395918 0.533994
v -0.254988 2.11019 0.722344
vn 0.778852 -0.465129 0.420767
v 0.0580142 2.71981 0.712856
vn 0.35444 -0.163107 0.920743
v 0.0476246 2.70213 0.713569
vn 0.0338247 0.000871107 0.999427
v -0.092256 2.42723 0.718207
vn 0.346333 -0.161457 0.924113
v 0.0248264 2.73688 0.713322
vn -0.319626 0.184056 0.929496
v -0.0943956 2.50512 0.717588
vn -0.312167 0.177155 0.933364
v 0.0165035 2.71813 0.714006
vn -0.00241697 0.0195213 0.999807
v -0.284156 2.13778 0.721975
vn -0.896618 0.440357 0.046486
v -0.288717 2.12754 0.722818
vn -0.821831 0.357969 0.44323
v -0.281319 2.14257 0.723258
vn -0.744531 0.371087 0.554948
v -0.281715 2.1083 0.701454
vn -0.457066 -0.88929 0.0159219
v -0.262397 2.10081 0.721555
vn -0.357188 -0.890496 0.281841
v -0.292056 2.11606 0.721971
vn -0.521199 -0.80523 0.282765
v -0.239961 2.1385 0.680996
vn 0.888719 -0.458141 -0.0169205
v -0.250419 2.1181 0.700795
vn 0.88064 -0.473628 -0.0121917
v 0.0707937 2.74405 0.710995
vn 0.837683 -0.350687 0.418695
v 0.0634216 2.72903 0.711961
vn 0.764563 -0.361896 0.533361
v 0.0370649 2.76139 0.711469
vn -0.763 0.472414 0.441199
v 0.0350717 2.75617 0.712605
vn -0.355987 0.247122 0.901224
v -0.275353 2.1567 0.681493
vn -0.889674 0.456526 0.00806034
v -0.274639 2.15703 0.720346
vn -0.88951 0.456601 0.0169381
v -0.279351 2.11336 0.679511
vn -0.100852 -0.169353 -0.980382
v -0.292806 2.11572 0.681202
vn -0.530997 -0.809728 -0.249765
v 0.0716062 2.74939 0.667789
vn 0.159651 0.0986563 -0.982231
v 0.0669014 2.739 0.667258
vn 0.395021 -0.171168 -0.902585
v 0.0571752 2.71943 0.667236
vn 0.320395 -0.178751 -0.930266
v 0.0467719 2.70174 0.667205
vn -0.00294376 -0.0160282 -0.999867
v -0.11305 2.4371 0.672264
vn -0.0183866 -0.00845106 -0.999795
v 0.0156508 2.71774 0.667642
vn -0.0391792 0.00262342 -0.999229
v 0.0239874 2.73649 0.667702
vn -0.353646 0.168424 -0.920091
v 0.0342462 2.75579 0.667717
vn -0.388969 0.231974 -0.891567
v 0.0399779 2.76566 0.668234
vn -0.0746782 0.216408 -0.973443
v 0.0534084 2.7608 0.667918
vn 0.0646862 0.152729 -0.986149
v -0.253782 2.11506 0.67843
vn 0.355991 -0.247125 -0.901221
v 0.0559286 2.7142 0.670688
vn 0.889585 -0.456455 -0.0169493
v 0.0740956 2.75551 0.709832
vn 0.520063 0.816329 0.251279
v 0.031709 2.75312 0.690239
vn -0.88064 0.473628 0.0121917
v -0.282132 2.1422 0.679073
vn -0.764565 0.361897 -0.533358
v -0.258688 2.10557 0.7228
vn 0.0344254 -0.198457 0.979505
v -0.252956 2.11544 0.723317
vn 0.388968 -0.231974 0.891567
v -0.242697 2.13473 0.723332
vn 0.35235 -0.167187 0.920814
v -0.234361 2.15348 0.723392
vn 0.033531 0.000299692 0.999438
v -0.112193 2.43749 0.718861
vn 0.0183866 0.00845106 0.999795
v -0.265482 2.16949 0.723829
vn -0.00553203 0.0203705 0.999777
v -0.275885 2.1518 0.723798
vn -0.319154 0.178512 0.930739
v -0.285611 2.13223 0.723776
vn -0.39502 0.171168 0.902586
v -0.290316 2.12183 0.723245
vn -0.197794 -0.0762946 0.97727
v -0.278547 2.11373 0.723206
vn -0.0646862 -0.152729 0.986149
v -0.239247 2.13883 0.719849
vn 0.888882 -0.458065 -0.00802642
v 0.067727 2.73937 0.712146
vn 0.42799 -0.156012 0.890216
v 0.0291565 2.74665 0.712442
vn -0.727042 0.405114 0.55434
v -0.285418 2.1361 0.701287
vn -0.897543 0.440742 0.0127797
v -0.263147 2.10047 0.680785
vn -0.367036 -0.895018 -0.253432
v -0.259487 2.1052 0.679324
vn -0.00154953 -0.214988 -0.976616
v -0.0915701 2.42647 0.695267
vn 0.889243 -0.457265 -0.0124876
v 0.0724057 2.74976 0.711266
vn 0.195628 0.115191 0.97389
v 0.031384 2.75171 0.710982
vn -0.879299 0.474054 0.045885
v -0.284918 2.13743 0.680541
vn -0.897857 0.43979 -0.0209223
f 1//1 2//2 3//3
f 1//1 3//3 4//4
f 1//1 4//4 5//5
f 1//1 5//5 6//6
f 1//1 6//6 2//2
f 7//7 8//8 9//9
f 10//10 11//11 12//12
f 13//13 14//14 15//15
f 16//16 17//17 18//18
f 19//19 20//20 21//21
f 22//22 23//23 24//24
f 22//22 24//24 25//25
f 22//22 25//25 26//26
f 22//22 26//26 27//27
f 22//22 27//27 23//23
f 28//28 29//29 30//30
f 31//31 32//32 33//33
f 34//34 35//35 36//36
f 37//37 38//38 39//39
f 40//40 41//41 42//42
f 13//13 43//43 44//44
f 10//10 45//45 46//46
f 7//7 47//47 48//48
f 19//19 49//49 50//50
f 16//16 51//51 52//52
f 10//10 53//53 45//45
f 13//13 54//54 43//43
f 16//16 55//55 51//51
f 19//19 56//56 49//49
f 7//7 57//57 47//47
f 40//40 58//58 59//59
f 28//28 60//60 61//61
f 31//31 62//62 63//63
f 34//34 64//64 65//65
f 37//37 66//66 67//67
f 40//40 68//68 58//58
f 28//28 69//69 60//60
f 31//31 70//70 62//62
f 34//34 71//71 64//64
f 37//37 72//72 66//66
f 10//10 46//46 11//11
f 7//7 48//48 8//8
f 19//19 50//50 20//20
f 16//16 52//52 17//17
f 13//13 44//44 14//14
f 40//40 42//42 68//68
f 28//28 30//30 69//69
f 31//31 33//33 70//70
f 34//34 36//36 71//71
f 37//37 39//39 72//72
f 28//28 61//61 29//29
f 31//31 63//63 32//32
f 34//34 65//65 35//35
f 37//37 67//67 38//38
f 40//40 59//59 41//41
f 10//10 12//12 53//53
f 13//13 15//15 54//54
f 16//16 18//18 55//55
f 19//19 21//21 56//56
f 7//7 9//9 57//57
f 73//73 74//74 75//75
f 76//76 77//77 78//78
f 79//79 80//80 81//81
f 82//82 83//83 84//84
f 85//85 86//86 87//87
f 88//88 89//89 90//90
f 91//91 92//92 93//93
f 94//94 95//95 96//96
f 97//97 98//98 99//99
f 100//100 101//101 102//102
f 103//103 104//104 105//105
f 106//106 107//107 108//108
f 109//109 110//110 111//111
f 112//112 113//113 114//114
f 115//115 116//116 117//117
f 88//88 118//118 119//119
f 91//91 120//120 121//121
f 94//94 122//122 123//123
f 97//97 124//124 125//125
f 100//100 126//126 127//127
f 128//128 129//129 2//2
f 130//130 131//131 3//3
f 132//132 133//133 4//4
f 134//134 135//135 5//5
f 136//136 137//137 6//6
f 76//76 138//138 8//8
f 73//73 139//139 11//11
f 85//85 140//140 14//14
f 82//82 141//141 17//17
f 79//79 142//142 20//20
f 143//143 144//144 23//23
f 145//145 146//146 24//24
f 147//147 148//148 25//25
f 149//149 150//150 26//26
f 151//151 152//152 27//27
f 103//103 153//153 29//29
f 106//106 154//154 32//32
f 109//109 155//155 35//35
f 112//112 156//156 38//38
f 115//115 157//157 41//41
f 73//73 75//75 43//43
f 76//76 78//78 45//45
f 79//79 81//81 47//47
f 82//82 84//84 49//49
f 85//85 87//87 51//51
f 88//88 90//90 53//53
f 91//91 93//93 54//54
f 94//94 96//96 55//55
f 97//97 99//99 56//56
f 100//100 102//102 57//57
f 103//103 105//105 58//58
f 106//106 108//108 60//60
f 109//109 111//111 62//62
f 112//112 114//114 64//64
f 115//115 117//117 66//66
f 88//88 119//119 68//68
f 91//91 121//121 69//69
f 94//94 123//123 70//70
f 97//97 125//125 71//71
f 100//100 127//127 72//72
f 130//130 74//74 46//46
f 132//132 77//77 48//48
f 134//134 80//80 50//50
f 136//136 83//83 52//52
f 128//128 86//86 44//44
f 158//158 89//89 42//42
f 159//159 92//92 30//30
f 160//160 95//95 33//33
f 161//161 98//98 36//36
f 162//162 101//101 39//39
f 145//145 104//104 61//61
f 147//147 107//107 63//63
f 149//149 110//110 65//65
f 151//151 113//113 67//67
f 143//143 116//116 59//59
f 159//159 118//118 12//12
f 160//160 120//120 15//15
f 161//161 122//122 18//18
f 162//162 124//124 21//21
f 158//158 126//126 9//9
f 130//130 129//129 74//74
f 132//132 131//131 77//77
f 134//134 133//133 80//80
f 136//136 135//135 83//83
f 128//128 137//137 86//86
f 158//158 138//138 89//89
f 159//159 139//139 92//92
f 160//160 140//140 95//95
f 161//161 141//141 98//98
f 162//162 142//142 101//101
f 145//145 144//144 104//104
f 147//147 146//146 107//107
f 149//149 148//148 110//110
f 151//151 150//150 113//113
f 143//143 152//152 116//116
f 159//159 153//153 118//118
f 160//160 154//154 120//120
f 161//161 155//155 122//122
f 162//162 156//156 124//124
f 158//158 157//157 126//126
f 130//130 3//3 129//129
f 132//132 4//4 131//131
f 134//134 5//5 133//133
f 136//136 6//6 135//135
f 128//128 2//2 137//137
f 158//158 9//9 138//138
f 159//159 12//12 139//139
f 160//160 15//15 140//140
f 161//161 18//18 141//141
f 162//162 21//21 142//142
f 145//145 24//24 144//144
f 147//147 25//25 146//146
f 149//149 26//26 148//148
f 151//151 27//27 150//150
f 143//143 23//23 152//152
f 159//159 30//30 153//153
f 160//160 33//33 154//154
f 161//161 36//36 155//155
f 162//162 39//39 156//156
f 158//158 42//42 157//157
f 128//128 44//44 75//75
f 130//130 46//46 78//78
f 132//132 48//48 81//81
f 134//134 50//50 84//84
f 136//136 52//52 87//87
f 76//76 45//45 90//90
f 73//73 43//43 93//93
f 85//85 51//51 96//96
f 82//82 49//49 99//99
f 79//79 47//47 102//102
f 143//143 59//59 105//105
f 145//145 61//61 108//108
f 147//147 63//63 111//111
f 149//149 65//65 114//114
f 151//151 67//67 117//117
f 103//103 58//58 119//119
f 106//106 60//60 121//121
f 109//109 62//62 123//123
f 112//112 64//64 125//125
f 115//115 66//66 127//127
f 73//73 11//11 74//74
f 76//76 8//8 77//77
f 79//79 20//20 80//80
f 82//82 17//17 83//83
f 85//85 14//14 86//86
f 88//88 68//68 89//89
f 91//91 69//69 92//92
f 94//94 70//70 95//95
f 97//97 71//71 98//98
f 100//100 72//72 101//101
f 103//103 29//29 104//104
f 106//106 32//32 107//107
f 109//109 35//35 110//110
f 112//112 38//38 113//113
f 115//115 41//41 116//116
f 88//88 53//53 118//118
f 91//91 54//54 120//120
f 94//94 55//55 122//122
f 97//97 56//56 124//124
f 100//100 57//57 126//126
f 128//128 75//75 129//129
f 130//130 78//78 131//131
f 132//132 81//81 133//133
f 134//134 84//84 135//135
f 136//136 87//87 137//137
f 76//76 90//90 138//138
f 73//73 93//93 139//139
f 85//85 96//96 140//140
f 82//82 99//99 141//141
f 79//79 102//102 142//142
f 143//143 105//105 144//144
f 145//145 108//108 146//146
f 147//147 111//111 148//148
f 149//149 114//114 150//150
f 151//151 117//117 152//152
f 103//103 119//119 153//153
f 106//106 121//121 154//154
f 109//109 123//123 155//155
f 112//112 125//125 156//156
f 115//115 127//127 157//157
f 129//129 3//3 2//2
f 131//131 4//4 3//3
f 133//133 5//5 4//4
f 135//135 6//6 5//5
f 137//137 2//2 6//6
f 138//138 9//9 8//8
f 139//139 12//12 11//11
f 140//140 15//15 14//14
f 141//141 18//18 17//17
f 142//142 21//21 20//20
f 144//144 24//24 23//23
f 146//146 25//25 24//24
f 148//148 26//26 25//25
f 150//150 27//27 26//26
f 152//152 23//23 27//27
f 153//153 30//30 29//29
f 154//154 33//33 32//32
f 155//155 36//36 35//35
f 156//156 39//39 38//38
f 157//157 42//42 41//41
f 75//75 44//44 43//43
f 78//78 46//46 45//45
f 81//81 48//48 47//47
f 84//84 50//50 49//49
f 87//87 52//52 51//51
f 90//90 45//45 53//53
f 93//93 43//43 54//54
f 96//96 51//51 55//55
f 99//99 49//49 56//56
f 102//102 47//47 57//57
f 105//105 59//59 58//58
f 108//108 61//61 60//60
f 111//111 63//63 62//62
f 114//114 65//65 64//64
f 117//117 67//67 66//66
f 119//119 58//58 68//68
f 121//121 60//60 69//69
f 123//123 62//62 70//70
f 125//125 64//64 71//71
f 127//127 66//66 72//72
f 74//74 11//11 46//46
f 77//77 8//8 48//48
f 80//80 20//20 50//50
f 83//83 17//17 52//52
f 86//86 14//14 44//44
f 89//89 68//68 42//42
f 92//92 69//69 30//30
f 95//95 70//70 33//33
f 98//98 71//71 36//36
f 101//101 72//72 39//39
f 104//104 29//29 61//61
f 107//107 32//32 63//63
f 110//110 35//35 65//65
f 113//113 38//38 67//67
f 116//116 41//41 59//59
f 118//118 53//53 12//12
f 120//120 54//54 15//15
f 122//122 55//55 18//18
f 124//124 56//56 21//21
f 126//126 57//57 9//9
f 129//129 75//75 74//74
f 131//131 78//78 77//77
f 133//133 81//81 80//80
f 135//135 84//84 83//83
f 137//137 87//87 86//86
f 138//138 90//90 89//89
f 139//139 93//93 92//92
f 140//140 96//96 95//95
f 141//141 99//99 98//98
f 142//142 102//102 101//101
f 144//144 105//105 104//104
f 146//146 108//108 107//107
f 148//148 111//111 110//110
f 150//150 114//114 113//113
f 152//152 117//117 116//116
f 153//153 119//119 118//118
f 154//154 121//121 120//120
f 155//155 123//123 122//122
f 156//156 125//125 124//124
f 157//157 127//127 126//126
