# Created by Open3D 
# object name: part_010
# number of vertices: 162
# number of triangles: 320
v 0.86747 2.17702 0.448624
vn -0.00750784 0.99919 -0.0395424
v 0.862233 2.17752 0.468267
vn -0.141392 0.989155 -0.0397677
v 0.867208 2.17769 0.469635
vn 0.0303635 0.999434 -0.0144801
v 0.874213 2.17679 0.449595
vn 0.0819235 0.9962 -0.029577
v 0.87103 2.17634 0.434913
vn 0.0357248 0.997264 -0.0647157
v 0.865876 2.17624 0.435177
vn -0.139918 0.987674 -0.0701572
v 1.08019 2.1589 0.472747
vn 0.182798 0.982986 -0.0179618
v 1.07589 2.15992 0.493299
vn 0.140891 0.990023 -0.001944
v 1.08094 2.1589 0.493068
vn 0.309788 0.950737 0.0113994
v 0.971188 2.16755 0.483691
vn -0.0819202 0.302562 0.949603
v 0.872013 2.17549 0.472492
vn -0.0969905 0.195937 0.975808
v 0.971013 2.16588 0.483981
vn -0.107777 0.0561461 0.992588
v 0.857347 2.15061 0.470883
vn -0.5034 0.069504 0.861253
v 0.856097 2.15068 0.469546
vn -0.996052 0.0883404 0.00870144
v 0.855053 2.12601 0.471224
vn -0.693726 0.0392088 0.719171
v 0.861449 2.14917 0.433627
vn -0.303688 -0.00078103 -0.952771
v 0.865703 2.17242 0.432663
vn -0.0703499 -0.0146522 -0.997415
v 0.861555 2.12552 0.434024
vn -0.0717599 -0.030635 -0.996951
v 0.953521 2.1679 0.442107
vn 0.128876 0.228384 -0.965004
v 1.06999 2.15875 0.455661
vn 0.141306 0.521297 -0.841595
v 1.07458 2.15709 0.455826
vn 0.124315 0.118721 -0.985115
v 1.07529 2.10349 0.474354
vn 0.00751175 -0.99919 0.0395428
v 1.07613 2.10454 0.494645
vn 0.138341 -0.988072 0.0676471
v 1.07098 2.10443 0.494908
vn -0.0348961 -0.997836 0.0557295
v 1.0685 2.10373 0.473817
vn -0.0819244 -0.9962 0.0295771
v 1.0748 2.10309 0.460186
vn -0.0292179 -0.999558 0.00550568
v 1.07978 2.10326 0.461554
vn 0.143504 -0.988934 0.0376376
v 0.966518 2.11474 0.485223
vn -0.128876 -0.22839 0.965002
v 1.06569 2.10681 0.496477
vn -0.118963 -0.11996 0.985625
v 0.966639 2.11642 0.485416
vn -0.110902 0.0208087 0.993613
v 0.862569 2.12161 0.450231
vn -0.182801 -0.982986 0.0179616
v 0.8623 2.1222 0.471244
vn -0.14545 -0.988422 0.0431907
v 0.857426 2.12316 0.469844
vn -0.312838 -0.949663 0.0164821
v 0.948851 2.1151 0.443639
vn 0.0819187 -0.302575 -0.949599
v 0.876246 2.12054 0.435811
vn 0.0393247 -0.590813 -0.80585
v 0.871742 2.12217 0.434847
vn 0.090159 -0.196544 -0.976341
v 1.08466 2.13016 0.458939
vn 0.503409 -0.0695044 -0.861248
v 1.08052 2.10687 0.458854
vn 0.285467 -0.0610519 -0.956442
v 1.08467 2.15377 0.457494
vn 0.28688 -0.0450692 -0.956906
v 1.08056 2.13161 0.496195
vn 0.30369 0.000780645 0.95277
v 1.08207 2.13144 0.495171
vn 0.969596 -0.0790292 0.231599
v 1.08293 2.15619 0.495144
vn 0.520595 0.021728 0.853527
v 0.861486 2.1739 0.470967
vn -0.285468 0.0610521 0.956442
v 0.859406 2.17522 0.469797
vn -0.686182 0.124481 0.7167
v 1.06576 2.16023 0.494011
vn -0.0399716 0.587798 0.80802
v 0.876825 2.17632 0.472585
vn -0.0431184 0.58808 0.807653
v 1.07971 2.15857 0.458577
vn 0.146548 0.987828 -0.0521526
v 1.07346 2.15983 0.472189
vn 0.0941867 0.995155 -0.0281865
v 0.876323 2.17397 0.433344
vn 0.118261 0.12121 -0.985557
v 0.881047 2.17483 0.434236
vn 0.138218 0.527392 -0.838304
v 0.859939 2.14933 0.43465
vn -0.956379 0.0764015 -0.28196
v 0.86343 2.1738 0.433249
vn -0.513042 0.0635474 -0.856008
v 1.07027 2.15861 0.494974
vn -0.0910705 0.195435 0.976479
v 0.857338 2.127 0.472327
vn -0.28688 0.0450694 0.956906
v 0.859077 2.12459 0.434677
vn -0.52058 -0.0217281 -0.853537
v 0.953128 2.16625 0.441883
vn 0.110902 -0.0208095 -0.993613
v 1.08458 2.15761 0.459978
vn 0.314873 0.948952 -0.0185868
v 1.07631 2.10836 0.497158
vn 0.0703495 0.0146522 0.997415
v 1.07858 2.10697 0.496572
vn 0.513045 -0.0635478 0.856006
v 0.872024 2.12203 0.47416
vn -0.141464 -0.523936 0.839928
v 1.06096 2.10594 0.495585
vn -0.138316 -0.524217 0.840277
v 0.866123 2.12086 0.436523
vn -0.140028 -0.990122 -0.00705681
v 0.869252 2.1207 0.451222
vn -0.0941878 -0.995155 0.0281864
v 1.07 2.10529 0.457329
vn 0.0965595 -0.195127 -0.976013
v 1.06518 2.10446 0.457236
vn 0.0434144 -0.585571 -0.809458
v 1.08591 2.13009 0.460275
vn 0.994114 -0.0896808 -0.0607786
v 1.0826 2.10556 0.460024
vn 0.686192 -0.12448 -0.716691
v 1.08045 2.15526 0.495798
vn 0.0717592 0.0306351 0.996951
v 0.867431 2.12369 0.473995
vn -0.124883 -0.11946 0.984954
v 0.861069 2.12188 0.436753
vn -0.311281 -0.950216 -0.0139347
v 0.948753 2.11679 0.443317
vn 0.107777 -0.0561455 -0.992588
v 1.08696 2.15477 0.458597
vn 0.693726 -0.0392088 -0.719171
v 0.865247 2.17519 0.471632
vn -0.16715 0.0711677 0.98336
v 0.867127 2.1767 0.471464
vn -0.11897 0.507916 0.853151
v 0.861951 2.17627 0.470607
vn -0.275736 0.410099 0.869361
v 1.07226 2.16008 0.494083
vn 0.0389105 0.908364 0.416366
v 1.06615 2.16102 0.492203
vn 0.0870026 0.996176 -0.00801331
v 0.971404 2.16881 0.482735
vn 0.0316537 0.913105 0.406494
v 1.07634 2.15865 0.457013
vn 0.134692 0.874978 -0.46505
v 0.954567 2.16915 0.443104
vn 0.126891 0.879568 -0.458539
v 1.06997 2.15968 0.457442
vn 0.0928451 0.993815 -0.0609249
v 0.869529 2.17368 0.432735
vn 0.0510654 -0.00562803 -0.998679
v 0.866099 2.17481 0.432933
vn -0.0768415 0.340102 -0.937244
v 0.87134 2.17521 0.433191
vn 0.0734851 0.440199 -0.894888
v 0.85798 2.1499 0.448399
vn -0.990094 0.0843048 -0.112275
v 0.858501 2.17527 0.467962
vn -0.983994 0.155797 -0.0865021
v 0.862149 2.17399 0.434834
vn -0.977414 0.153192 -0.14558
v 1.07691 2.15717 0.495634
vn -0.0461855 0.0608678 0.997077
v 1.08048 2.15766 0.495388
vn 0.140045 0.374709 0.916505
v 1.07539 2.15896 0.495081
vn 0.00938976 0.49697 0.867717
v 0.860818 2.12512 0.473084
vn -0.172039 0.015929 0.984961
v 0.867512 2.12613 0.474104
vn -0.112709 0.0350919 0.993008
v 0.862489 2.1502 0.472396
vn -0.168188 0.0434426 0.984797
v 0.859579 2.12289 0.435416
vn -0.615398 -0.764003 -0.193869
v 0.857459 2.12335 0.44943
vn -0.650743 -0.758121 -0.0422726
v 0.857791 2.12472 0.436263
vn -0.98986 0.0124621 -0.141496
v 0.950863 2.14152 0.442513
vn 0.109356 -0.0384854 -0.993257
v 0.871864 2.1246 0.434572
vn 0.105194 -0.0418198 -0.993572
v 0.876017 2.17155 0.43321
vn 0.105842 -0.034496 -0.993784
v 1.08632 2.15652 0.459077
vn 0.649203 0.752117 -0.113377
v 1.08463 2.1562 0.457714
vn 0.338945 0.304684 -0.890103
v 1.08297 2.15765 0.458083
vn 0.286684 0.811519 -0.509165
v 1.07248 2.10709 0.497086
vn -0.0510654 0.00562803 0.998679
v 1.07067 2.10556 0.49663
vn -0.0734853 -0.440198 0.894889
v 1.07591 2.10597 0.496888
vn 0.0768414 -0.340103 0.937243
v 0.865669 2.12213 0.472808
vn -0.136078 -0.874156 0.466191
v 0.872037 2.1211 0.472379
vn -0.0915661 -0.99457 0.049464
v 0.966504 2.11341 0.484342
vn -0.126891 -0.87957 0.458536
v 0.86975 2.12069 0.435738
vn -0.0404803 -0.907322 -0.418483
v 0.949667 2.11375 0.444712
vn -0.0316538 -0.913105 -0.406493
v 0.875864 2.11975 0.437618
vn -0.0861972 -0.996278 0.000329102
v 1.07676 2.10559 0.458189
vn 0.167149 -0.0711679 -0.98336
v 1.08006 2.10451 0.459214
vn 0.275732 -0.410099 -0.869362
v 1.07488 2.10408 0.458357
vn 0.11897 -0.507917 -0.853151
v 1.08483 2.13059 0.474124
vn 0.990094 -0.0843042 0.112275
v 1.07986 2.10679 0.494987
vn 0.977939 -0.153665 0.141497
v 1.08351 2.1055 0.461859
vn 0.984373 -0.155639 0.0823769
v 1.07015 2.15618 0.495249
vn -0.106001 0.0418777 0.993484
v 1.07522 2.13209 0.496518
vn -0.0501363 0.0333908 0.998184
v 0.857379 2.12457 0.472107
vn -0.338944 -0.304678 0.890106
v 0.862404 2.1233 0.473013
vn -0.201847 -0.429242 0.880346
v 0.861527 2.12311 0.434433
vn -0.140046 -0.374707 -0.916505
v 0.863058 2.12172 0.435263
vn -0.176045 -0.850421 -0.495775
v 1.0745 2.15465 0.455717
vn 0.112183 -0.0350542 -0.993069
v 1.07035 2.1077 0.45708
vn 0.111538 -0.0423417 -0.992858
v 1.08534 2.15715 0.47321
vn 0.650743 0.758121 0.0422727
v 1.08787 2.15477 0.46043
vn 0.996819 -0.01491 0.0782955
v 0.860336 2.1768 0.46922
vn -0.508308 0.860912 0.0213139
v 0.863839 2.17738 0.470165
vn -0.137357 0.877108 0.460234
v 0.870544 2.17726 0.471209
vn 0.021702 0.909844 0.414382
v 0.876992 2.17713 0.470754
vn 0.0845104 0.996388 -0.00829565
v 0.973896 2.1684 0.460445
vn 0.088057 0.995697 -0.0288822
v 0.880819 2.17578 0.435992
vn 0.0898448 0.994299 -0.0574158
v 0.874626 2.17582 0.434139
vn 0.117123 0.874759 -0.47019
v 0.867855 2.17596 0.43369
vn -0.0267166 0.838154 -0.54478
v 0.864225 2.17543 0.433892
vn -0.472867 0.847643 -0.240622
v 0.862129 2.17615 0.447898
vn -0.507922 0.85678 -0.0891223
v 1.07895 2.15906 0.494558
vn 0.176044 0.850418 0.495779
v 0.871664 2.17308 0.472742
vn -0.112064 0.0423936 0.992796
v 0.854144 2.126 0.469391
vn -0.996494 0.0144538 -0.0824009
v 0.866794 2.14869 0.433303
vn 0.0501364 -0.0333909 -0.998184
v 1.07961 2.15748 0.456808
vn 0.201847 0.429244 -0.880345
v 1.07778 2.10535 0.495929
vn 0.484286 -0.852446 0.196985
v 1.07415 2.10481 0.496132
vn 0.0267166 -0.838153 0.54478
v 1.06738 2.10495 0.495682
vn -0.118863 -0.875632 0.468124
v 1.06119 2.10499 0.493829
vn -0.0890742 -0.994782 0.0497468
v 0.968916 2.11209 0.462079
vn -0.088057 -0.995697 0.0288822
v 1.06502 2.10365 0.459067
vn -0.0831775 -0.99653 -0.00318523
v 1.07147 2.10352 0.458612
vn -0.0232066 -0.910346 -0.413196
v 1.07817 2.1034 0.459657
vn 0.137356 -0.877107 -0.460236
v 1.08167 2.10398 0.460601
vn 0.506682 -0.859555 -0.066625
v 1.08067 2.10434 0.474742
vn 0.507922 -0.85678 0.0891223
v 1.06599 2.10923 0.496611
vn -0.106647 0.0345756 0.993696
v 0.859042 2.12313 0.471738
vn -0.286682 -0.811522 0.509162
v 0.866618 2.12181 0.43474
vn -0.00938974 -0.49697 -0.867717
v 1.07952 2.13057 0.457426
vn 0.168187 -0.0434425 -0.984797
v 1.08422 2.15605 0.493558
vn 0.990439 -0.012323 0.137397
v 1.08243 2.15789 0.494405
vn 0.627266 0.764206 0.150088
v 0.968818 2.14116 0.484776
vn -0.109356 0.0384855 0.993257
v 0.855689 2.12426 0.470744
vn -0.65128 -0.755766 0.0682095
v 0.865101 2.12361 0.434187
vn 0.0461857 -0.0608681 -0.997077
v 1.08119 2.15566 0.456737
vn 0.172038 -0.0159293 -0.984961
f 1//1 2//2 3//3
f 1//1 3//3 4//4
f 1//1 4//4 5//5
f 1//1 5//5 6//6
f 1//1 6//6 2//2
f 7//7 8//8 9//9
f 10//10 11//11 12//12
f 13//13 14//14 15//15
f 16//16 17//17 18//18
f 19//19 20//20 21//21
f 22//22 23//23 24//24
f 22//22 24//24 25//25
f 22//22 25//25 26//26
f 22//22 26//26 27//27
f 22//22 27//27 23//23
f 28//28 29//29 30//30
f 31//31 32//32 33//33
f 34//34 35//35 36//36
f 37//37 38//38 39//39
f 40//40 41//41 42//42
f 13//13 43//43 44//44
f 10//10 45//45 46//46
f 7//7 47//47 48//48
f 19//19 49//49 50//50
f 16//16 51//51 52//52
f 10//10 53//53 45//45
f 13//13 54//54 43//43
f 16//16 55//55 51//51
f 19//19 56//56 49//49
f 7//7 57//57 47//47
f 40//40 58//58 59//59
f 28//28 60//60 61//61
f 31//31 62//62 63//63
f 34//34 64//64 65//65
f 37//37 66//66 67//67
f 40//40 68//68 58//58
f 28//28 69//69 60//60
f 31//31 70//70 62//62
f 34//34 71//71 64//64
f 37//37 72//72 66//66
f 10//10 46//46 11//11
f 7//7 48//48 8//8
f 19//19 50//50 20//20
f 16//16 52//52 17//17
f 13//13 44//44 14//14
f 40//40 42//42 68//68
f 28//28 30//30 69//69
f 31//31 33//33 70//70
f 34//34 36//36 71//71
f 37//37 39//39 72//72
f 28//28 61//61 29//29
f 31//31 63//63 32//32
f 34//34 65//65 35//35
f 37//37 67//67 38//38
f 40//40 59//59 41//41
f 10//10 12//12 53//53
f 13//13 15//15 54//54
f 16//16 18//18 55//55
f 19//19 21//21 56//56
f 7//7 9//9 57//57
f 73//73 74//74 75//75
f 76//76 77//77 78//78
f 79//79 80//80 81//81
f 82//82 83//83 84//84
f 85//85 86//86 87//87
f 88//88 89//89 90//90
f 91//91 92//92 93//93
f 94//94 95//95 96//96
f 97//97 98//98 99//99
f 100//100 101//101 102//102
f 103//103 104//104 105//105
f 106//106 107//107 108//108
f 109//109 110//110 111//111
f 112//112 113//113 114//114
f 115//115 116//116 117//117
f 88//88 118//118 119//119
f 91//91 120//120 121//121
f 94//94 122//122 123//123
f 97//97 124//124 125//125
f 100//100 126//126 127//127
f 128//128 129//129 2//2
f 130//130 131//131 3//3
f 132//132 133//133 4//4
f 134//134 135//135 5//5
f 136//136 137//137 6//6
f 76//76 138//138 8//8
f 73//73 139//139 11//11
f 85//85 140//140 14//14
f 82//82 141//141 17//17
f 79//79 142//142 20//20
f 143//143 144//144 23//23
f 145//145 146//146 24//24
f 147//147 148//148 25//25
f 149//149 150//150 26//26
f 151//151 152//152 27//27
f 103//103 153//153 29//29
f 106//106 154//154 32//32
f 109//109 155//155 35//35
f 112//112 156//156 38//38
f 115//115 157//157 41//41
f 73//73 75//75 43//43
f 76//76 78//78 45//45
f 79//79 81//81 47//47
f 82//82 84//84 49//49
f 85//85 87//87 51//51
f 88//88 90//90 53//53
f 91//91 93//93 54//54
f 94//94 96//96 55//55
f 97//97 99//99 56//56
f 100//100 102//102 57//57
f 103//103 105//105 58//58
f 106//106 108//108 60//60
f 109//109 111//111 62//62
f 112//112 114//114 64//64
f 115//115 117//117 66//66
f 88//88 119//119 68//68
f 91//91 121//121 69//69
f 94//94 123//123 70//70
f 97//97 125//125 71//71
f 100//100 127//127 72//72
f 130//130 74//74 46//46
f 132//132 77//77 48//48
f 134//134 80//80 50//50
f 136//136 83//83 52//52
f 128//128 86//86 44//44
f 158//158 89//89 42//42
f 159//159 92//92 30//30
f 160//160 95//95 33//33
f 161//161 98//98 36//36
f 162//162 101//101 39//39
f 145//145 104//104 61//61
f 147//147 107//107 63//63
f 149//149 110//110 65//65
f 151//151 113//113 67//67
f 143//143 116//116 59//59
f 159//159 118//118 12//12
f 160//160 120//120 15//15
f 161//161 122//122 18//18
f 162//162 124//124 21//21
f 158//158 126//126 9//9
f 130//130 129//129 74//74
f 132//132 131//131 77//77
f 134//134 133//133 80//80
f 136//136 135//135 83//83
f 128//128 137//137 86//86
f 158//158 138//138 89//89
f 159//159 139//139 92//92
f 160//160 140//140 95//95
f 161//161 141//141 98//98
f 162//162 142//142 101//101
f 145//145 144//144 104//104
f 147//147 146//146 107//107
f 149//149 148//148 110//110
f 151//151 150//150 113//113
f 143//143 152//152 116//116
f 159//159 153//153 118//118
f 160//160 154//154 120//120
f 161//161 155//155 122//122
f 162//162 156//156 124//124
f 158//158 157//157 126//126
f 130//130 3//3 129//129
f 132//132 4//4 131//131
f 134//134 5//5 133//133
f 136//136 6//6 135//135
f 128//128 2//2 137//137
f 158//158 9//9 138//138
f 159//159 12//12 139//139
f 160//160 15//15 140//140
f 161//161 18//18 141//141
f 162//162 21//21 142//142
f 145//145 24//24 144//144
f 147//147 25//25 146//146
f 149//149 26//26 148//148
f 151//151 27//27 150//150
f 143//143 23//23 152//152
f 159//159 30//30 153//153
f 160//160 33//33 154//154
f 161//161 36//36 155//155
f 162//162 39//39 156//156
f 158//158 42//42 157//157
f 128//128 44//44 75//75
f 130//130 46//46 78//78
f 132//132 48//48 81//81
f 134//134 50//50 84//84
f 136//136 52//52 87//87
f 76//76 45//45 90//90
f 73//73 43//43 93//93
f 85//85 51//51 96//96
f 82//82 49//49 99//99
f 79//79 47//47 102//102
f 143//143 59//59 105//105
f 145//145 61//61 108//108
f 147//147 63//63 111//111
f 149//149 65//65 114//114
f 151//151 67//67 117//117
f 103//103 58//58 119//119
f 106//106 60//60 121//121
f 109//109 62//62 123//123
f 112//112 64//64 125//125
f 115//115 66//66 127//127
f 73//73 11//11 74//74
f 76//76 8//8 77//77
f 79//79 20//20 80//80
f 82//82 17//17 83//83
f 85//85 14//14 86//86
f 88//88 68//68 89//89
f 91//91 69//69 92//92
f 94//94 70//70 95//95
f 97//97 71//71 98//98
f 100//100 72//72 101//101
f 103//103 29//29 104//104
f 106//106 32//32 107//107
f 109//109 35//35 110//110
f 112//112 38//38 113//113
f 115//115 41//41 116//116
f 88//88 53//53 118//118
f 91//91 54//54 120//120
f 94//94 55//55 122//122
f 97//97 56//56 124//124
f 100//100 57//57 126//126
f 128//128 75//75 129//129
f 130//130 78//78 131//131
f 132//132 81//81 133//133
f 134//134 84//84 135//135
f 136//136 87//87 137//137
f 76//76 90//90 138//138
f 73//73 93//93 139//139
f 85//85 96//96 140//140
f 82//82 99//99 141//141
f 79//79 102//102 142//142
f 143//143 105//105 144//144
f 145//145 108//108 146//146
f 147//147 111//111 148//148
f 149//149 114//114 150//150
f 151//151 117//117 152//152
f 103//103 119//119 153//153
f 106//106 121//121 154//154
f 109//109 123//123 155//155
f 112//112 125//125 156//156
f 115//115 127//127 157//157
f 129//129 3//3 2//2
f 131//131 4//4 3//3
f 133//133 5//5 4//4
f 135//135 6//6 5//5
f 137//137 2//2 6//6
f 138//138 9//9 8//8
f 139//139 12//12 11//11
f 140//140 15//15 14//14
f 141//141 18//18 17//17
f 142//142 21//21 20//20
f 144//144 24//24 23//23
f 146//146 25//25 24//24
f 148//148 26//26 25//25
f 150//150 27//27 26//26
f 152//152 23//23 27//27
f 153//153 30//30 29//29
f 154//154 33//33 32//32
f 155//155 36//36 35//35
f 156//156 39//39 38//38
f 157//157 42//42 41//41
f 75//75 44//44 43//43
f 78//78 46//46 45//45
f 81//81 48//48 47//47
f 84//84 50//50 49//49
f 87//87 52//52 51//51
f 90//90 45//45 53//53
f 93//93 43//43 54//54
f 96//96 51//51 55//55
f 99//99 49//49 56//56
f 102//102 47//47 57//57
f 105//105 59//59 58//58
f 108//108 61//61 60//60
f 111//111 63//63 62//62
f 114//114 65//65 64//64
f 117//117 67//67 66//66
f 119//119 58//58 68//68
f 121//121 60//60 69//69
f 123//123 62//62 70//70
f 125//125 64//64 71//71
f 127//127 66//66 72//72
f 74//74 11//11 46//46
f 77//77 8//8 48//48
f 80//80 20//20 50//50
f 83//83 17//17 52//52
f 86//86 14//14 44//44
f 89//89 68//68 42//42
f 92//92 69//69 30//30
f 95//95 70//70 33//33
f 98//98 71//71 36//36
f 101//101 72//72 39//39
f 104//104 29//29 61//61
f 107//107 32//32 63//63
f 110//110 35//35 65//65
f 113//113 38//38 67//67
f 116//116 41//41 59//59
f 118//118 53//53 12//12
f 120//120 54//54 15//15
f 122//122 55//55 18//18
f 124//124 56//56 21//21
f 126//126 57//57 9//9
f 129//129 75//75 74//74
f 131//131 78//78 77//77
f 133//133 81//81 80//80
f 135//135 84//84 83//83
f 137//137 87//87 86//86
f 138//138 90//90 89//89
f 139//139 93//93 92//92
f 140//140 96//96 95//95
f 141//141 99//99 98//98
f 142//142 102//102 101//101
f 144//144 105//105 104//104
f 146//146 108//108 107//107
f 148//148 111//111 110//110
f 150//150 114//114 113//113
f 152//152 117//117 116//116
f 153//153 119//119 118//118
f 154//154 121//121 120//120
f 155//155 123//123 122//122
f 156//156 125//125 124//124
f 157//157 127//127 126//126
