# Created by Open3D 
# object name: part_076
# number of vertices: 162
# number of triangles: 320
v -1.63984 2.50296 0.0396436
vn -0.995279 0.0942173 0.0233147
v -1.64155 2.48276 0.0304488
vn -0.996291 0.0672188 -0.0537287
v -1.64137 2.4822 0.0464302
vn -0.997242 0.0574234 0.0470204
v -1.63877 2.50302 0.0610395
vn -0.992686 0.0948916 0.0746385
v -1.63809 2.517 0.0458069
vn -0.988012 0.147589 0.0452832
v -1.63842 2.51592 0.0298549
vn -0.990911 0.122391 -0.0558192
v -1.5861 2.50996 0.713588
vn -0.986551 0.0953555 0.132756
v -1.58864 2.48908 0.707558
vn -0.992186 0.0580811 0.110427
v -1.58629 2.48996 0.723351
vn -0.975296 0.0699537 0.209533
v -1.61282 2.48322 0.376845
vn -0.244136 -0.969291 0.029547
v -1.63697 2.47984 0.0627222
vn -0.181979 -0.983015 0.0237713
v -1.60985 2.48269 0.376614
vn -0.103635 -0.994441 0.0186039
v -1.59377 2.47595 0.0195264
vn -0.104046 -0.987022 -0.122321
v -1.59401 2.47709 0.0151319
vn -0.107811 -0.366103 -0.924308
v -1.54982 2.4721 0.0155629
vn -0.0808824 -0.97175 -0.221722
v -1.59025 2.51329 0.0188576
vn 0.0817205 0.984111 -0.157632
v -1.63155 2.51789 0.0288707
vn 0.0845164 0.993562 -0.0754358
v -1.54778 2.50988 0.0222735
vn 0.09354 0.992699 -0.0761485
v -1.61467 2.52167 0.306535
vn -0.0586773 0.998261 -0.00569968
v -1.58662 2.52526 0.675549
vn -0.258984 0.965817 0.0111394
v -1.58318 2.52561 0.690125
vn 0.00548752 0.999935 -0.0100395
v -1.48713 2.5005 0.705794
vn 0.995279 -0.0942174 -0.0233168
v -1.4892 2.48068 0.715705
vn 0.991488 -0.118177 0.0546432
v -1.48954 2.4796 0.699753
vn 0.990256 -0.131546 -0.0456934
v -1.48824 2.5 0.684406
vn 0.992686 -0.0948916 -0.0746384
v -1.48626 2.51439 0.69913
vn 0.998034 -0.0412461 -0.0471895
v -1.48608 2.51384 0.715111
vn 0.996515 -0.0629336 0.0547548
v -1.5185 2.4742 0.369417
vn 0.0586922 -0.99826 0.00569848
v -1.49435 2.47752 0.683541
vn -0.00488717 -0.999919 0.0117476
v -1.52151 2.47424 0.369657
vn -0.0839794 -0.996322 0.017056
v -1.54088 2.49349 0.0318497
vn 0.986551 -0.0953553 -0.132756
v -1.54226 2.47272 0.0386254
vn 0.9852 -0.132205 -0.1091
v -1.54446 2.47347 0.0228032
vn 0.970494 -0.120915 -0.208619
v -1.52036 2.51265 0.299107
vn 0.244124 0.969294 -0.0295461
v -1.53738 2.50977 0.0693232
vn 0.439115 0.897305 -0.044972
v -1.54075 2.51022 0.054733
vn 0.1825 0.982862 -0.0259893
v -1.53385 2.52064 0.726034
vn 0.104046 0.987022 0.122321
v -1.49246 2.51709 0.716002
vn 0.102788 0.993905 0.0398385
v -1.57623 2.52511 0.722599
vn 0.0937668 0.994768 0.0405468
v -1.53737 2.48331 0.726703
vn -0.0817205 -0.984111 0.157632
v -1.53691 2.48453 0.731055
vn 0.0406292 -0.346749 0.937077
v -1.58125 2.48787 0.730654
vn -0.101293 -0.961263 0.256347
v -1.63517 2.4795 0.0295583
vn -0.102788 -0.993905 -0.0398381
v -1.63773 2.48051 0.0224853
vn -0.13905 -0.966186 -0.217139
v -1.59024 2.48683 0.676237
vn -0.436798 -0.898446 0.0447468
v -1.63798 2.48061 0.0776483
vn -0.436875 -0.898464 0.043609
v -1.58536 2.52387 0.706935
vn -0.982945 0.148248 0.108816
v -1.58843 2.50958 0.692296
vn -0.992125 0.0949642 0.0816697
v -1.63327 2.51907 0.0620194
vn 0.00420548 0.99992 -0.0119484
v -1.63435 2.51904 0.0769599
vn -0.263786 0.964525 0.0103834
v -1.59071 2.51206 0.0145054
vn -0.0243295 0.471445 -0.88156
v -1.63427 2.51713 0.0218293
vn 0.0431204 0.966826 -0.251771
v -1.58688 2.48637 0.690827
vn -0.181849 -0.982991 0.0256838
v -1.5514 2.47149 0.0229612
vn -0.0937668 -0.994768 -0.0405468
v -1.54637 2.50873 0.0149068
vn 0.101293 0.961263 -0.256347
v -1.61173 2.52162 0.305434
vn 0.0839843 0.996321 -0.0170563
v -1.58316 2.52313 0.722757
vn -0.969744 0.125152 0.209603
v -1.49607 2.4787 0.71669
vn -0.0845163 -0.993562 0.0754359
v -1.49335 2.47946 0.723731
vn -0.0431202 -0.966826 0.251771
v -1.54101 2.47133 0.0700117
vn 0.261095 -0.965246 -0.0113578
v -1.49327 2.47756 0.6686
vn 0.261198 -0.965231 -0.010222
v -1.53898 2.50752 0.038002
vn 0.992968 -0.0419012 -0.110721
v -1.53858 2.49344 0.0531492
vn 0.992125 -0.0949642 -0.08167
v -1.49066 2.51676 0.682838
vn 0.18153 0.983095 -0.0239033
v -1.48965 2.51599 0.667912
vn 0.434822 0.899465 -0.0434999
v -1.53362 2.51951 0.730428
vn 0.114901 0.489597 0.864345
v -1.4899 2.51609 0.723075
vn 0.139049 0.966187 0.217137
v -1.57984 2.48672 0.723287
vn -0.09354 -0.992699 0.0761486
v -1.54444 2.47099 0.0554358
vn -0.00503647 -0.999939 0.00983681
v -1.54133 2.50663 0.0222091
vn 0.975348 -0.065691 -0.210669
v -1.52339 2.51317 0.298477
vn 0.103634 0.994442 -0.0186038
v -1.5778 2.5245 0.729997
vn 0.0808825 0.97175 0.221721
v -1.6371 2.4796 0.0413614
vn -0.110719 -0.993852 -0.000346185
v -1.63962 2.48025 0.0469708
vn -0.375378 -0.926715 0.0170722
v -1.63937 2.48024 0.0305816
vn -0.309988 -0.950016 -0.0370977
v -1.58932 2.48775 0.696524
vn -0.803788 -0.590247 0.0743803
v -1.5916 2.48878 0.676668
vn -0.995167 0.0576622 0.0794808
v -1.61505 2.48436 0.377012
vn -0.811345 -0.580272 0.0707356
v -1.58581 2.52491 0.695858
vn -0.680571 0.730961 0.0501947
v -1.61683 2.52101 0.310005
vn -0.688464 0.723721 0.0473781
v -1.58831 2.52362 0.676044
vn -0.985237 0.152536 0.0777265
v -1.63343 2.51858 0.0406632
vn 0.0768484 0.996393 -0.036001
v -1.63581 2.51799 0.0299053
vn -0.12721 0.989271 -0.071839
v -1.636 2.51861 0.0462838
vn -0.19563 0.980529 -0.0170937
v -1.59212 2.49822 0.0133616
vn -0.0794903 -0.0103643 -0.996782
v -1.63789 2.48219 0.0189886
vn -0.20932 -0.0844959 -0.97419
v -1.63476 2.51539 0.0183938
vn -0.191167 0.100141 -0.976436
v -1.58363 2.48657 0.71194
vn -0.107627 -0.993448 0.0384244
v -1.58415 2.48744 0.722927
vn -0.298617 -0.948538 0.105374
v -1.587 2.48711 0.706788
vn -0.371822 -0.926246 0.0617812
v -1.54767 2.47104 0.0343181
vn -0.07994 -0.996796 -0.00277098
v -1.54882 2.47121 0.0554226
vn -0.0918592 -0.995632 0.0167011
v -1.59253 2.47521 0.036155
vn -0.0953036 -0.995448 -0.00108213
v -1.54328 2.50785 0.0169508
vn 0.87884 0.214084 -0.426389
v -1.54451 2.49371 0.0154152
vn 0.88773 -0.0917441 -0.451131
v -1.54676 2.50697 0.0114635
vn 0.0527883 0.0768041 -0.995648
v -1.56758 2.51747 0.301681
vn 0.0938125 0.99543 -0.0178309
v -1.54508 2.51083 0.0547129
vn 0.0957504 0.99522 -0.0192187
v -1.62895 2.51885 0.0613176
vn 0.0916783 0.995609 -0.018898
v -1.58101 2.52415 0.727975
vn -0.821961 0.389456 0.415576
v -1.5806 2.52519 0.722251
vn -0.115857 0.990751 0.0706323
v -1.58336 2.52475 0.717023
vn -0.602049 0.790503 0.112438
v -1.49419 2.47802 0.704897
vn -0.0768483 -0.996393 0.036001
v -1.49162 2.47799 0.699277
vn 0.195629 -0.980529 0.0170939
v -1.49181 2.4786 0.715655
vn 0.12721 -0.989271 0.0718389
v -1.54181 2.47169 0.0497021
vn 0.679173 -0.732226 -0.050693
v -1.53931 2.47298 0.0695164
vn 0.988154 -0.132078 -0.0781479
v -1.51609 2.4749 0.369218
vn 0.688465 -0.72372 -0.0473782
v -1.53831 2.50884 0.0490366
vn 0.802151 0.592372 -0.0751619
v -1.51786 2.51154 0.302211
vn 0.811345 0.580272 -0.0707356
v -1.53603 2.50782 0.0688924
vn 0.995853 -0.0438609 -0.0797113
v -1.49052 2.517 0.704199
vn 0.11072 0.993852 0.000346374
v -1.48826 2.51636 0.714979
vn 0.309987 0.950017 0.0370978
v -1.48801 2.51635 0.698589
vn 0.375378 0.926715 -0.0170722
v -1.53481 2.50569 0.732068
vn 0.0794902 0.0103634 0.996782
v -1.49286 2.48121 0.727167
vn 0.193113 -0.0874661 0.97727
v -1.48973 2.51441 0.726572
vn 0.209772 0.0972731 0.9729
v -1.58254 2.48577 0.690847
vn -0.0957653 -0.995223 0.0189609
v -1.53878 2.48221 0.710107
vn -0.0922873 -0.995054 0.0367403
v -1.54703 2.4714 0.0233096
vn 0.115857 -0.990751 -0.0706326
v -1.54424 2.47113 0.0394598
vn 0.192065 -0.980994 -0.027614
v -1.54347 2.50916 0.0226333
vn 0.298617 0.948538 -0.105374
v -1.54082 2.5084 0.0278825
vn 0.738678 0.659694 -0.138412
v -1.5788 2.52539 0.690138
vn 0.0918501 0.99563 -0.01687
v -1.49494 2.51737 0.683533
vn 0.0959023 0.995242 -0.0171891
v -1.58243 2.51008 0.730016
vn -0.88773 0.0917438 0.45113
v -1.57773 2.52282 0.733502
vn -0.0341823 0.120607 0.992112
v -1.64046 2.48143 0.0249756
vn -0.947782 -0.136409 -0.288273
v -1.64115 2.48111 0.0361679
vn -0.750223 -0.661158 -0.00594338
v -1.64028 2.48111 0.057457
vn -0.804476 -0.59029 0.0661481
v -1.63939 2.48255 0.0773979
vn -0.995281 0.057647 0.0780525
v -1.61376 2.50677 0.376675
vn -0.992411 0.0949283 0.0781549
v -1.6361 2.51739 0.0767738
vn -0.986368 0.145745 0.0763934
v -1.63678 2.51826 0.0567915
vn -0.677994 0.733901 0.0414037
v -1.63771 2.51767 0.0355131
vn -0.613564 0.788999 -0.0319246
v -1.63712 2.51683 0.0243414
vn -0.878073 0.38214 -0.288021
v -1.63883 2.50273 0.0228429
vn -0.948153 0.0838669 -0.306549
v -1.58681 2.4882 0.717678
vn -0.738699 -0.659671 0.138413
v -1.63268 2.47923 0.0620273
vn -0.0959201 -0.995244 0.0170209
v -1.54989 2.47377 0.0120582
vn 0.0359522 -0.107957 -0.993505
v -1.58884 2.51438 0.0354532
vn 0.0922873 0.995054 -0.0367404
v -1.58338 2.52547 0.706101
vn -0.192066 0.980994 0.0276141
v -1.4905 2.47977 0.721219
vn 0.906591 -0.300702 0.296094
v -1.48991 2.47893 0.710047
vn 0.613565 -0.788999 0.0319247
v -1.49084 2.47834 0.688769
vn 0.679858 -0.732113 -0.0424612
v -1.49152 2.47921 0.668787
vn 0.988268 -0.132064 -0.0767193
v -1.51318 2.49714 0.368754
vn 0.992411 -0.0949283 -0.0781548
v -1.48824 2.51405 0.668163
vn 0.996242 -0.0369984 -0.0783196
v -1.48734 2.51549 0.688103
vn 0.805517 0.588791 -0.0668381
v -1.48647 2.51548 0.709393
vn 0.750223 0.661158 0.00594329
v -1.48716 2.51517 0.720585
vn 0.934952 0.221395 0.277217
v -1.48812 2.50106 0.722589
vn 0.948153 -0.0838669 0.306548
v -1.49867 2.47775 0.684243
vn -0.0917045 -0.995612 0.0186411
v -1.54426 2.47184 0.0285373
vn 0.60205 -0.790502 -0.112438
v -1.54063 2.50949 0.0387727
vn 0.371823 0.926246 -0.0617813
v -1.53509 2.52139 0.709405
vn 0.0953036 0.995448 0.00108223
v -1.58086 2.48962 0.734097
vn -0.0521564 -0.064005 0.996586
v -1.58435 2.48874 0.72861
vn -0.889899 -0.128864 0.437578
v -1.56569 2.47839 0.373137
vn -0.0938125 -0.99543 0.0178309
v -1.54661 2.47245 0.017585
vn 0.848704 -0.308249 -0.429749
v -1.54399 2.51003 0.0336199
vn 0.107627 0.993448 -0.0384245
v -1.57995 2.52555 0.711242
vn 0.07994 0.996796 0.00277101
f 1//1 2//2 3//3
f 1//1 3//3 4//4
f 1//1 4//4 5//5
f 1//1 5//5 6//6
f 1//1 6//6 2//2
f 7//7 8//8 9//9
f 10//10 11//11 12//12
f 13//13 14//14 15//15
f 16//16 17//17 18//18
f 19//19 20//20 21//21
f 22//22 23//23 24//24
f 22//22 24//24 25//25
f 22//22 25//25 26//26
f 22//22 26//26 27//27
f 22//22 27//27 23//23
f 28//28 29//29 30//30
f 31//31 32//32 33//33
f 34//34 35//35 36//36
f 37//37 38//38 39//39
f 40//40 41//41 42//42
f 13//13 43//43 44//44
f 10//10 45//45 46//46
f 7//7 47//47 48//48
f 19//19 49//49 50//50
f 16//16 51//51 52//52
f 10//10 53//53 45//45
f 13//13 54//54 43//43
f 16//16 55//55 51//51
f 19//19 56//56 49//49
f 7//7 57//57 47//47
f 40//40 58//58 59//59
f 28//28 60//60 61//61
f 31//31 62//62 63//63
f 34//34 64//64 65//65
f 37//37 66//66 67//67
f 40//40 68//68 58//58
f 28//28 69//69 60//60
f 31//31 70//70 62//62
f 34//34 71//71 64//64
f 37//37 72//72 66//66
f 10//10 46//46 11//11
f 7//7 48//48 8//8
f 19//19 50//50 20//20
f 16//16 52//52 17//17
f 13//13 44//44 14//14
f 40//40 42//42 68//68
f 28//28 30//30 69//69
f 31//31 33//33 70//70
f 34//34 36//36 71//71
f 37//37 39//39 72//72
f 28//28 61//61 29//29
f 31//31 63//63 32//32
f 34//34 65//65 35//35
f 37//37 67//67 38//38
f 40//40 59//59 41//41
f 10//10 12//12 53//53
f 13//13 15//15 54//54
f 16//16 18//18 55//55
f 19//19 21//21 56//56
f 7//7 9//9 57//57
f 73//73 74//74 75//75
f 76//76 77//77 78//78
f 79//79 80//80 81//81
f 82//82 83//83 84//84
f 85//85 86//86 87//87
f 88//88 89//89 90//90
f 91//91 92//92 93//93
f 94//94 95//95 96//96
f 97//97 98//98 99//99
f 100//100 101//101 102//102
f 103//103 104//104 105//105
f 106//106 107//107 108//108
f 109//109 110//110 111//111
f 112//112 113//113 114//114
f 115//115 116//116 117//117
f 88//88 118//118 119//119
f 91//91 120//120 121//121
f 94//94 122//122 123//123
f 97//97 124//124 125//125
f 100//100 126//126 127//127
f 128//128 129//129 2//2
f 130//130 131//131 3//3
f 132//132 133//133 4//4
f 134//134 135//135 5//5
f 136//136 137//137 6//6
f 76//76 138//138 8//8
f 73//73 139//139 11//11
f 85//85 140//140 14//14
f 82//82 141//141 17//17
f 79//79 142//142 20//20
f 143//143 144//144 23//23
f 145//145 146//146 24//24
f 147//147 148//148 25//25
f 149//149 150//150 26//26
f 151//151 152//152 27//27
f 103//103 153//153 29//29
f 106//106 154//154 32//32
f 109//109 155//155 35//35
f 112//112 156//156 38//38
f 115//115 157//157 41//41
f 73//73 75//75 43//43
f 76//76 78//78 45//45
f 79//79 81//81 47//47
f 82//82 84//84 49//49
f 85//85 87//87 51//51
f 88//88 90//90 53//53
f 91//91 93//93 54//54
f 94//94 96//96 55//55
f 97//97 99//99 56//56
f 100//100 102//102 57//57
f 103//103 105//105 58//58
f 106//106 108//108 60//60
f 109//109 111//111 62//62
f 112//112 114//114 64//64
f 115//115 117//117 66//66
f 88//88 119//119 68//68
f 91//91 121//121 69//69
f 94//94 123//123 70//70
f 97//97 125//125 71//71
f 100//100 127//127 72//72
f 130//130 74//74 46//46
f 132//132 77//77 48//48
f 134//134 80//80 50//50
f 136//136 83//83 52//52
f 128//128 86//86 44//44
f 158//158 89//89 42//42
f 159//159 92//92 30//30
f 160//160 95//95 33//33
f 161//161 98//98 36//36
f 162//162 101//101 39//39
f 145//145 104//104 61//61
f 147//147 107//107 63//63
f 149//149 110//110 65//65
f 151//151 113//113 67//67
f 143//143 116//116 59//59
f 159//159 118//118 12//12
f 160//160 120//120 15//15
f 161//161 122//122 18//18
f 162//162 124//124 21//21
f 158//158 126//126 9//9
f 130//130 129//129 74//74
f 132//132 131//131 77//77
f 134//134 133//133 80//80
f 136//136 135//135 83//83
f 128//128 137//137 86//86
f 158//158 138//138 89//89
f 159//159 139//139 92//92
f 160//160 140//140 95//95
f 161//161 141//141 98//98
f 162//162 142//142 101//101
f 145//145 144//144 104//104
f 147//147 146//146 107//107
f 149//149 148//148 110//110
f 151//151 150//150 113//113
f 143//143 152//152 116//116
f 159//159 153//153 118//118
f 160//160 154//154 120//120
f 161//161 155//155 122//122
f 162//162 156//156 124//124
f 158//158 157//157 126//126
f 130//130 3//3 129//129
f 132//132 4//4 131//131
f 134//134 5//5 133//133
f 136//136 6//6 135//135
f 128//128 2//2 137//137
f 158//158 9//9 138//138
f 159//159 12//12 139//139
f 160//160 15//15 140//140
f 161//161 18//18 141//141
f 162//162 21//21 142//142
f 145//145 24//24 144//144
f 147//147 25//25 146//146
f 149//149 26//26 148//148
f 151//151 27//27 150//150
f 143//143 23//23 152//152
f 159//159 30//30 153//153
f 160//160 33//33 154//154
f 161//161 36//36 155//155
f 162//162 39//39 156//156
f 158//158 42//42 157//157
f 128//128 44//44 75//75
f 130//130 46//46 78//78
f 132//132 48//48 81//81
f 134//134 50//50 84//84
f 136//136 52//52 87//87
f 76//76 45//45 90//90
f 73//73 43//43 93//93
f 85//85 51//51 96//96
f 82//82 49//49 99//99
f 79//79 47//47 102//102
f 143//143 59//59 105//105
f 145//145 61//61 108//108
f 147//147 63//63 111//111
f 149//149 65//65 114//114
f 151//151 67//67 117//117
f 103//103 58//58 119//119
f 106//106 60//60 121//121
f 109//109 62//62 123//123
f 112//112 64//64 125//125
f 115//115 66//66 127//127
f 73//73 11//11 74//74
f 76//76 8//8 77//77
f 79//79 20//20 80//80
f 82//82 17//17 83//83
f 85//85 14//14 86//86
f 88//88 68//68 89//89
f 91//91 69//69 92//92
f 94//94 70//70 95//95
f 97//97 71//71 98//98
f 100//100 72//72 101//101
f 103//103 29//29 104//104
f 106//106 32//32 107//107
f 109//109 35//35 110//110
f 112//112 38//38 113//113
f 115//115 41//41 116//116
f 88//88 53//53 118//118
f 91//91 54//54 120//120
f 94//94 55//55 122//122
f 97//97 56//56 124//124
f 100//100 57//57 126//126
f 128//128 75//75 129//129
f 130//130 78//78 131//131
f 132//132 81//81 133//133
f 134//134 84//84 135//135
f 136//136 87//87 137//137
f 76//76 90//90 138//138
f 73//73 93//93 139//139
f 85//85 96//96 140//140
f 82//82 99//99 141//141
f 79//79 102//102 142//142
f 143//143 105//105 144//144
f 145//145 108//108 146//146
f 147//147 111//111 148//148
f 149//149 114//114 150//150
f 151//151 117//117 152//152
f 103//103 119//119 153//153
f 106//106 121//121 154//154
f 109//109 123//123 155//155
f 112//112 125//125 156//156
f 115//115 127//127 157//157
f 129//129 3//3 2//2
f 131//131 4//4 3//3
f 133//133 5//5 4//4
f 135//135 6//6 5//5
f 137//137 2//2 6//6
f 138//138 9//9 8//8
f 139//139 12//12 11//11
f 140//140 15//15 14//14
f 141//141 18//18 17//17
f 142//142 21//21 20//20
f 144//144 24//24 23//23
f 146//146 25//25 24//24
f 148//148 26//26 25//25
f 150//150 27//27 26//26
f 152//152 23//23 27//27
f 153//153 30//30 29//29
f 154//154 33//33 32//32
f 155//155 36//36 35//35
f 156//156 39//39 38//38
f 157//157 42//42 41//41
f 75//75 44//44 43//43
f 78//78 46//46 45//45
f 81//81 48//48 47//47
f 84//84 50//50 49//49
f 87//87 52//52 51//51
f 90//90 45//45 53//53
f 93//93 43//43 54//54
f 96//96 51//51 55//55
f 99//99 49//49 56//56
f 102//102 47//47 57//57
f 105//105 59//59 58//58
f 108//108 61//61 60//60
f 111//111 63//63 62//62
f 114//114 65//65 64//64
f 117//117 67//67 66//66
f 119//119 58//58 68//68
f 121//121 60//60 69//69
f 123//123 62//62 70//70
f 125//125 64//64 71//71
f 127//127 66//66 72//72
f 74//74 11//11 46//46
f 77//77 8//8 48//48
f 80//80 20//20 50//50
f 83//83 17//17 52//52
f 86//86 14//14 44//44
f 89//89 68//68 42//42
f 92//92 69//69 30//30
f 95//95 70//70 33//33
f 98//98 71//71 36//36
f 101//101 72//72 39//39
f 104//104 29//29 61//61
f 107//107 32//32 63//63
f 110//110 35//35 65//65
f 113//113 38//38 67//67
f 116//116 41//41 59//59
f 118//118 53//53 12//12
f 120//120 54//54 15//15
f 122//122 55//55 18//18
f 124//124 56//56 21//21
f 126//126 57//57 9//9
f 129//129 75//75 74//74
f 131//131 78//78 77//77
f 133//133 81//81 80//80
f 135//135 84//84 83//83
f 137//137 87//87 86//86
f 138//138 90//90 89//89
f 139//139 93//93 92//92
f 140//140 96//96 95//95
f 141//141 99//99 98//98
f 142//142 102//102 101//101
f 144//144 105//105 104//104
f 146//146 108//108 107//107
f 148//148 111//111 110//110
f 150//150 114//114 113//113
f 152//152 117//117 116//116
f 153//153 119//119 118//118
f 154//154 121//121 120//120
f 155//155 123//123 122//122
f 156//156 125//125 124//124
f 157//157 127//127 126//126
