# Created by Open3D 
# object name: part_028
# number of vertices: 162
# number of triangles: 320
v 1.07005 1.9542 0.429634
vn 0.89094 -0.336019 0.30548
v 1.06072 1.93611 0.433571
vn 0.724287 -0.338648 0.600605
v 1.06307 1.93456 0.426139
vn 0.883374 -0.429624 0.187281
v 1.07172 1.9536 0.41963
vn 0.93724 -0.346471 0.0392161
v 1.07515 1.96735 0.426953
vn 0.957364 -0.215736 0.192124
v 1.07224 1.96736 0.434347
vn 0.761421 -0.229751 0.606178
v 1.07857 1.95892 0.112939
vn 0.906336 -0.327477 -0.267046
v 1.07142 1.93919 0.115466
vn 0.892506 -0.424559 -0.152259
v 1.06947 1.94097 0.107967
vn 0.755784 -0.321178 -0.570645
v 1.06072 1.93694 0.270628
vn -0.288426 -0.957249 -0.0220361
v 1.05458 1.93551 0.418158
vn -0.3127 -0.94963 -0.0205225
v 1.05344 1.93937 0.270468
vn -0.342141 -0.939362 -0.0232135
v 0.943013 1.97725 0.434377
vn -0.338749 -0.902123 0.267252
v 0.943368 1.97833 0.436459
vn -0.0876166 -0.180592 0.979648
v 0.837298 2.01665 0.432355
vn -0.328809 -0.834769 0.44164
v 0.955983 2.01243 0.43525
vn 0.323178 0.893488 0.311824
v 1.05711 1.97574 0.43426
vn 0.341491 0.928396 0.146509
v 0.855392 2.05021 0.429946
vn 0.338164 0.929624 0.146439
v 1.07345 1.97337 0.304254
vn 0.40188 0.915365 0.0244623
v 1.08117 1.97443 0.130962
vn 0.478064 0.877976 0.0247664
v 1.07614 1.97688 0.123922
vn 0.378388 0.925379 0.0222826
v 0.84026 2.0469 0.107843
vn -0.890942 0.336019 -0.305473
v 0.835695 2.02727 0.102969
vn -0.761095 0.238805 -0.603081
v 0.832777 2.02729 0.110363
vn -0.947813 0.254826 -0.191611
v 0.838441 2.04709 0.117836
vn -0.93724 0.346473 -0.0392156
v 0.844865 2.06008 0.111177
vn -0.865278 0.46554 -0.185922
v 0.847215 2.05852 0.103745
vn -0.718614 0.34588 -0.603292
v 0.833605 2.02078 0.265771
vn -0.401882 -0.915365 -0.0244623
v 0.839724 2.02216 0.11824
vn -0.378457 -0.925253 -0.0260333
v 0.840714 2.0179 0.265919
vn -0.349432 -0.93667 -0.0233693
v 0.831744 2.04218 0.424538
vn -0.906337 0.327476 0.267045
v 0.824423 2.02266 0.421036
vn -0.956942 0.24976 0.147922
v 0.826939 2.02242 0.428572
vn -0.792589 0.221332 0.568168
v 0.846336 2.05721 0.299398
vn 0.288429 0.957248 0.0220361
v 0.84011 2.05643 0.407253
vn 0.204094 0.978715 0.0214939
v 0.845416 2.05473 0.414312
vn 0.312323 0.949643 0.0251634
v 0.964919 2.01739 0.102939
vn 0.338748 0.902122 -0.267256
v 0.864158 2.05507 0.103954
vn 0.344799 0.933304 -0.100286
v 1.06587 1.9806 0.108268
vn 0.348126 0.932076 -0.100217
v 0.951949 1.98221 0.102065
vn -0.323179 -0.89349 -0.311818
v 0.952415 1.98335 0.100038
vn -0.0347103 -0.151245 -0.987887
v 1.05791 1.94347 0.104104
vn -0.284244 -0.828258 -0.482902
v 1.04377 1.93957 0.433361
vn -0.344799 -0.933304 0.100286
v 1.04896 1.93851 0.436881
vn -0.30911 -0.84204 0.442062
v 1.06782 1.93821 0.130062
vn -0.205261 -0.978473 -0.021403
v 1.06026 1.93401 0.411347
vn -0.20533 -0.978512 -0.0188326
v 1.08351 1.97198 0.11628
vn 0.966478 -0.210678 -0.146751
v 1.0797 1.95803 0.122995
vn 0.938269 -0.345904 0.000889531
v 1.06821 1.97248 0.419076
vn 0.378693 0.92514 0.0265827
v 1.07361 1.97023 0.412246
vn 0.479868 0.876913 0.0273913
v 0.955517 2.01129 0.437278
vn 0.060459 0.220165 0.973587
v 1.06168 1.97302 0.437738
vn 0.303937 0.820974 0.483346
v 1.06252 1.93991 0.123004
vn -0.312588 -0.94957 -0.0246241
v 0.842057 2.01403 0.429048
vn -0.348126 -0.932076 0.100217
v 0.850021 2.05116 0.433212
vn 0.284243 0.828256 0.482905
v 1.06633 1.97625 0.304511
vn 0.349433 0.93667 0.0233693
v 1.08099 1.97222 0.108743
vn 0.793079 -0.212187 -0.570967
v 0.850823 2.0189 0.103056
vn -0.341491 -0.928396 -0.14651
v 0.846246 2.02161 0.0995777
vn -0.303938 -0.820976 -0.483342
v 0.826759 2.02021 0.406354
vn -0.478935 -0.877503 -0.0246824
v 0.834323 2.02441 0.125069
vn -0.478866 -0.877465 -0.0272541
v 0.836511 2.05545 0.42185
vn -0.874392 0.460482 0.152956
v 0.830465 2.04267 0.414471
vn -0.93827 0.345903 -0.000888586
v 0.853353 2.05913 0.119157
vn 0.312863 0.949569 0.0208819
v 0.847673 2.06063 0.125969
vn 0.206259 0.978314 0.0189547
v 0.964563 2.01631 0.100856
vn 0.112507 0.249041 -0.961936
v 0.85897 2.05613 0.100435
vn 0.30911 0.84204 -0.442062
v 1.05254 1.94443 0.10737
vn -0.338164 -0.929624 -0.146438
v 0.831787 2.01776 0.413394
vn -0.378558 -0.925318 -0.0219296
v 0.838459 2.05367 0.429348
vn -0.750268 0.328316 0.573852
v 0.853601 2.05478 0.299962
vn 0.342142 0.939362 0.0232134
v 1.07063 1.97799 0.104961
vn 0.32881 0.834771 -0.441635
v 1.05064 1.93685 0.428061
vn -0.340895 -0.939923 0.0183133
v 1.05796 1.93454 0.425693
vn -0.235373 -0.97148 0.0287555
v 1.05421 1.93606 0.433264
vn -0.264718 -0.955134 0.132828
v 1.07011 1.93829 0.120606
vn 0.0629796 -0.997693 -0.0253326
v 1.07219 1.93852 0.130024
vn 0.900987 -0.433623 0.0138765
v 1.06663 1.93574 0.270769
vn 0.0718881 -0.997329 -0.012945
v 1.08301 1.9733 0.121475
vn 0.6965 0.717303 0.0190968
v 1.07877 1.97046 0.302816
vn 0.701891 0.711673 0.0294909
v 1.08429 1.97135 0.13084
vn 0.978566 -0.205032 0.0192647
v 1.06418 1.97358 0.428973
vn 0.350076 0.934473 0.0648628
v 1.06732 1.97164 0.434148
vn 0.416059 0.891611 0.178675
v 1.07129 1.97069 0.42659
vn 0.450667 0.88954 0.0749596
v 0.950695 1.99825 0.437608
vn -0.0268783 -0.0149119 0.999527
v 1.04963 1.94006 0.438554
vn -0.019451 -0.0612136 0.997935
v 1.06117 1.97134 0.439331
vn 0.0108531 0.0212752 0.999715
v 1.05911 1.94155 0.112947
vn -0.338663 -0.938686 -0.0646172
v 1.06296 1.94091 0.107922
vn -0.256443 -0.950539 -0.175252
v 1.0663 1.93917 0.115636
vn -0.232713 -0.970001 -0.0703044
v 0.835279 2.01635 0.423456
vn -0.352307 -0.93571 0.0180721
v 0.842138 2.01372 0.413781
vn -0.346597 -0.937774 -0.0212325
v 0.942903 1.9765 0.426549
vn -0.346593 -0.937858 0.0171747
v 0.842681 2.05325 0.431979
vn -0.273222 0.445525 0.852559
v 0.837191 2.04015 0.432469
vn -0.40774 0.127858 0.904102
v 0.849262 2.04957 0.4348
vn -0.0320347 0.0371082 0.998798
v 0.959987 2.01558 0.302367
vn 0.345789 0.938023 0.0232915
v 0.855901 2.05106 0.414708
vn 0.344961 0.938259 0.0259022
v 1.05785 1.97651 0.419026
vn 0.346473 0.937701 0.0259348
v 1.07755 1.97476 0.106165
vn 0.510633 0.198515 -0.836568
v 1.07607 1.97649 0.108806
vn 0.424341 0.896208 -0.129407
v 1.08128 1.97387 0.111455
vn 0.64059 0.749506 -0.166987
v 0.843753 2.02105 0.108342
vn -0.350076 -0.934473 -0.0648646
v 0.836642 2.02395 0.110726
vn -0.450667 -0.889539 -0.0749599
v 0.840607 2.023 0.103168
vn -0.416059 -0.89161 -0.178678
v 0.824917 2.02134 0.415841
vn -0.695546 -0.718274 -0.0172759
v 0.823637 2.02329 0.406476
vn -0.9666 0.255636 -0.0182961
v 0.828326 2.02371 0.265673
vn -0.701893 -0.711672 -0.0294909
v 0.837823 2.05635 0.41671
vn -0.0610813 0.997741 0.0279593
v 0.840458 2.05843 0.29772
vn -0.0718906 0.997329 0.012945
v 0.835739 2.05611 0.407291
vn -0.88536 0.464728 -0.0128315
v 0.857295 2.05779 0.109255
vn 0.340895 0.939923 -0.0183109
v 0.853723 2.05858 0.104051
vn 0.264718 0.955134 -0.132828
v 0.849966 2.0601 0.111623
vn 0.235374 0.971479 -0.0287549
v 0.959777 2.00328 0.0998788
vn 0.0268778 0.0149112 -0.999528
v 0.846765 2.0233 0.0979845
vn -0.00883571 -0.0155194 -0.999841
v 0.858298 2.05458 0.0987614
vn 0.0216486 0.0668916 -0.997525
v 1.05203 1.94358 0.122608
vn -0.344979 -0.938268 -0.0253509
v 0.951419 1.98122 0.10985
vn -0.344418 -0.936651 -0.0637267
v 0.831859 2.01814 0.42851
vn -0.424341 -0.896208 0.129407
v 0.828305 2.01933 0.420782
vn -0.453325 -0.891019 0.0240955
v 0.844974 2.05372 0.429393
vn 0.256442 0.950539 0.175253
v 0.839353 2.05522 0.426716
vn -0.00386916 0.97772 0.209876
v 1.06579 1.98091 0.123535
vn 0.346586 0.93777 0.0215928
v 0.863847 2.05547 0.119217
vn 0.345083 0.938325 0.0215608
v 1.07324 1.96127 0.105015
vn 0.407739 -0.127858 -0.904103
v 1.0702 1.97635 0.103293
vn 0.0645355 0.0510573 -0.996608
v 1.05636 1.93646 0.435983
vn 0.268001 -0.386067 0.882682
v 1.05997 1.93464 0.43085
vn -0.00658281 -0.98354 0.180571
v 1.06203 1.93381 0.420911
vn 0.0622907 -0.998057 -0.00107103
v 1.06462 1.93432 0.411629
vn 0.900778 -0.433741 0.0216343
v 1.07633 1.95606 0.271333
vn 0.937927 -0.346252 0.0200558
v 1.07672 1.96715 0.412444
vn 0.974689 -0.221937 0.0269426
v 1.07494 1.96882 0.42178
vn 0.693366 0.719235 0.044095
v 1.07266 1.96909 0.431705
vn 0.630113 0.743661 0.223442
v 1.06866 1.96982 0.436811
vn 0.464791 0.17307 0.868341
v 1.0643 1.95631 0.437325
vn 0.358676 -0.155079 0.92049
v 1.06858 1.93942 0.1106
vn 0.00389265 -0.97772 -0.209876
v 1.04408 1.93917 0.418099
vn -0.345091 -0.93833 -0.0212005
v 0.837729 2.01828 0.434023
vn -0.0625325 -0.045309 0.997014
v 0.956512 2.01342 0.427466
vn 0.344418 0.936651 0.0637247
v 1.07963 1.97531 0.116534
vn 0.453328 0.891018 -0.024097
v 0.839274 2.02482 0.100504
vn -0.440144 -0.0809001 -0.894275
v 0.835267 2.02555 0.105611
vn -0.630114 -0.74366 -0.223443
v 0.832993 2.02582 0.115535
vn -0.694873 -0.717932 -0.0415385
v 0.83121 2.02749 0.124871
vn -0.966391 0.255752 -0.0260542
v 0.834139 2.04547 0.266154
vn -0.937927 0.346252 -0.020056
v 0.843312 2.06032 0.125687
vn -0.877036 0.47999 -0.0204145
v 0.845898 2.06083 0.116405
vn -0.0637174 0.997964 0.00284142
v 0.847965 2.06 0.106466
vn 0.00658242 0.98354 -0.180571
v 0.851572 2.05818 0.101333
vn -0.227371 0.470955 -0.852352
v 0.846127 2.04511 0.100159
vn -0.358673 0.155077 -0.920492
v 0.850084 2.01813 0.11829
vn -0.346486 -0.937712 -0.0253834
v 0.826655 2.02077 0.425861
vn -0.640595 -0.749502 0.166989
v 0.841629 2.05547 0.421679
vn 0.232714 0.970001 0.0703054
v 0.965029 2.01814 0.110767
vn 0.346593 0.937858 -0.0171725
v 1.05867 1.94507 0.102516
vn 0.0342454 -0.0314248 -0.998919
v 1.06525 1.94139 0.105336
vn 0.315345 -0.359803 -0.878122
v 0.94705 1.97856 0.268192
vn -0.345789 -0.938023 -0.0232915
v 0.830382 2.01988 0.431151
vn -0.487486 -0.107166 0.866529
v 0.848821 2.05309 0.424368
vn 0.338664 0.938686 0.0646155
v 1.07265 1.97829 0.11386
vn 0.352307 0.93571 -0.0180709
f 1//1 2//2 3//3
f 1//1 3//3 4//4
f 1//1 4//4 5//5
f 1//1 5//5 6//6
f 1//1 6//6 2//2
f 7//7 8//8 9//9
f 10//10 11//11 12//12
f 13//13 14//14 15//15
f 16//16 17//17 18//18
f 19//19 20//20 21//21
f 22//22 23//23 24//24
f 22//22 24//24 25//25
f 22//22 25//25 26//26
f 22//22 26//26 27//27
f 22//22 27//27 23//23
f 28//28 29//29 30//30
f 31//31 32//32 33//33
f 34//34 35//35 36//36
f 37//37 38//38 39//39
f 40//40 41//41 42//42
f 13//13 43//43 44//44
f 10//10 45//45 46//46
f 7//7 47//47 48//48
f 19//19 49//49 50//50
f 16//16 51//51 52//52
f 10//10 53//53 45//45
f 13//13 54//54 43//43
f 16//16 55//55 51//51
f 19//19 56//56 49//49
f 7//7 57//57 47//47
f 40//40 58//58 59//59
f 28//28 60//60 61//61
f 31//31 62//62 63//63
f 34//34 64//64 65//65
f 37//37 66//66 67//67
f 40//40 68//68 58//58
f 28//28 69//69 60//60
f 31//31 70//70 62//62
f 34//34 71//71 64//64
f 37//37 72//72 66//66
f 10//10 46//46 11//11
f 7//7 48//48 8//8
f 19//19 50//50 20//20
f 16//16 52//52 17//17
f 13//13 44//44 14//14
f 40//40 42//42 68//68
f 28//28 30//30 69//69
f 31//31 33//33 70//70
f 34//34 36//36 71//71
f 37//37 39//39 72//72
f 28//28 61//61 29//29
f 31//31 63//63 32//32
f 34//34 65//65 35//35
f 37//37 67//67 38//38
f 40//40 59//59 41//41
f 10//10 12//12 53//53
f 13//13 15//15 54//54
f 16//16 18//18 55//55
f 19//19 21//21 56//56
f 7//7 9//9 57//57
f 73//73 74//74 75//75
f 76//76 77//77 78//78
f 79//79 80//80 81//81
f 82//82 83//83 84//84
f 85//85 86//86 87//87
f 88//88 89//89 90//90
f 91//91 92//92 93//93
f 94//94 95//95 96//96
f 97//97 98//98 99//99
f 100//100 101//101 102//102
f 103//103 104//104 105//105
f 106//106 107//107 108//108
f 109//109 110//110 111//111
f 112//112 113//113 114//114
f 115//115 116//116 117//117
f 88//88 118//118 119//119
f 91//91 120//120 121//121
f 94//94 122//122 123//123
f 97//97 124//124 125//125
f 100//100 126//126 127//127
f 128//128 129//129 2//2
f 130//130 131//131 3//3
f 132//132 133//133 4//4
f 134//134 135//135 5//5
f 136//136 137//137 6//6
f 76//76 138//138 8//8
f 73//73 139//139 11//11
f 85//85 140//140 14//14
f 82//82 141//141 17//17
f 79//79 142//142 20//20
f 143//143 144//144 23//23
f 145//145 146//146 24//24
f 147//147 148//148 25//25
f 149//149 150//150 26//26
f 151//151 152//152 27//27
f 103//103 153//153 29//29
f 106//106 154//154 32//32
f 109//109 155//155 35//35
f 112//112 156//156 38//38
f 115//115 157//157 41//41
f 73//73 75//75 43//43
f 76//76 78//78 45//45
f 79//79 81//81 47//47
f 82//82 84//84 49//49
f 85//85 87//87 51//51
f 88//88 90//90 53//53
f 91//91 93//93 54//54
f 94//94 96//96 55//55
f 97//97 99//99 56//56
f 100//100 102//102 57//57
f 103//103 105//105 58//58
f 106//106 108//108 60//60
f 109//109 111//111 62//62
f 112//112 114//114 64//64
f 115//115 117//117 66//66
f 88//88 119//119 68//68
f 91//91 121//121 69//69
f 94//94 123//123 70//70
f 97//97 125//125 71//71
f 100//100 127//127 72//72
f 130//130 74//74 46//46
f 132//132 77//77 48//48
f 134//134 80//80 50//50
f 136//136 83//83 52//52
f 128//128 86//86 44//44
f 158//158 89//89 42//42
f 159//159 92//92 30//30
f 160//160 95//95 33//33
f 161//161 98//98 36//36
f 162//162 101//101 39//39
f 145//145 104//104 61//61
f 147//147 107//107 63//63
f 149//149 110//110 65//65
f 151//151 113//113 67//67
f 143//143 116//116 59//59
f 159//159 118//118 12//12
f 160//160 120//120 15//15
f 161//161 122//122 18//18
f 162//162 124//124 21//21
f 158//158 126//126 9//9
f 130//130 129//129 74//74
f 132//132 131//131 77//77
f 134//134 133//133 80//80
f 136//136 135//135 83//83
f 128//128 137//137 86//86
f 158//158 138//138 89//89
f 159//159 139//139 92//92
f 160//160 140//140 95//95
f 161//161 141//141 98//98
f 162//162 142//142 101//101
f 145//145 144//144 104//104
f 147//147 146//146 107//107
f 149//149 148//148 110//110
f 151//151 150//150 113//113
f 143//143 152//152 116//116
f 159//159 153//153 118//118
f 160//160 154//154 120//120
f 161//161 155//155 122//122
f 162//162 156//156 124//124
f 158//158 157//157 126//126
f 130//130 3//3 129//129
f 132//132 4//4 131//131
f 134//134 5//5 133//133
f 136//136 6//6 135//135
f 128//128 2//2 137//137
f 158//158 9//9 138//138
f 159//159 12//12 139//139
f 160//160 15//15 140//140
f 161//161 18//18 141//141
f 162//162 21//21 142//142
f 145//145 24//24 144//144
f 147//147 25//25 146//146
f 149//149 26//26 148//148
f 151//151 27//27 150//150
f 143//143 23//23 152//152
f 159//159 30//30 153//153
f 160//160 33//33 154//154
f 161//161 36//36 155//155
f 162//162 39//39 156//156
f 158//158 42//42 157//157
f 128//128 44//44 75//75
f 130//130 46//46 78//78
f 132//132 48//48 81//81
f 134//134 50//50 84//84
f 136//136 52//52 87//87
f 76//76 45//45 90//90
f 73//73 43//43 93//93
f 85//85 51//51 96//96
f 82//82 49//49 99//99
f 79//79 47//47 102//102
f 143//143 59//59 105//105
f 145//145 61//61 108//108
f 147//147 63//63 111//111
f 149//149 65//65 114//114
f 151//151 67//67 117//117
f 103//103 58//58 119//119
f 106//106 60//60 121//121
f 109//109 62//62 123//123
f 112//112 64//64 125//125
f 115//115 66//66 127//127
f 73//73 11//11 74//74
f 76//76 8//8 77//77
f 79//79 20//20 80//80
f 82//82 17//17 83//83
f 85//85 14//14 86//86
f 88//88 68//68 89//89
f 91//91 69//69 92//92
f 94//94 70//70 95//95
f 97//97 71//71 98//98
f 100//100 72//72 101//101
f 103//103 29//29 104//104
f 106//106 32//32 107//107
f 109//109 35//35 110//110
f 112//112 38//38 113//113
f 115//115 41//41 116//116
f 88//88 53//53 118//118
f 91//91 54//54 120//120
f 94//94 55//55 122//122
f 97//97 56//56 124//124
f 100//100 57//57 126//126
f 128//128 75//75 129//129
f 130//130 78//78 131//131
f 132//132 81//81 133//133
f 134//134 84//84 135//135
f 136//136 87//87 137//137
f 76//76 90//90 138//138
f 73//73 93//93 139//139
f 85//85 96//96 140//140
f 82//82 99//99 141//141
f 79//79 102//102 142//142
f 143//143 105//105 144//144
f 145//145 108//108 146//146
f 147//147 111//111 148//148
f 149//149 114//114 150//150
f 151//151 117//117 152//152
f 103//103 119//119 153//153
f 106//106 121//121 154//154
f 109//109 123//123 155//155
f 112//112 125//125 156//156
f 115//115 127//127 157//157
f 129//129 3//3 2//2
f 131//131 4//4 3//3
f 133//133 5//5 4//4
f 135//135 6//6 5//5
f 137//137 2//2 6//6
f 138//138 9//9 8//8
f 139//139 12//12 11//11
f 140//140 15//15 14//14
f 141//141 18//18 17//17
f 142//142 21//21 20//20
f 144//144 24//24 23//23
f 146//146 25//25 24//24
f 148//148 26//26 25//25
f 150//150 27//27 26//26
f 152//152 23//23 27//27
f 153//153 30//30 29//29
f 154//154 33//33 32//32
f 155//155 36//36 35//35
f 156//156 39//39 38//38
f 157//157 42//42 41//41
f 75//75 44//44 43//43
f 78//78 46//46 45//45
f 81//81 48//48 47//47
f 84//84 50//50 49//49
f 87//87 52//52 51//51
f 90//90 45//45 53//53
f 93//93 43//43 54//54
f 96//96 51//51 55//55
f 99//99 49//49 56//56
f 102//102 47//47 57//57
f 105//105 59//59 58//58
f 108//108 61//61 60//60
f 111//111 63//63 62//62
f 114//114 65//65 64//64
f 117//117 67//67 66//66
f 119//119 58//58 68//68
f 121//121 60//60 69//69
f 123//123 62//62 70//70
f 125//125 64//64 71//71
f 127//127 66//66 72//72
f 74//74 11//11 46//46
f 77//77 8//8 48//48
f 80//80 20//20 50//50
f 83//83 17//17 52//52
f 86//86 14//14 44//44
f 89//89 68//68 42//42
f 92//92 69//69 30//30
f 95//95 70//70 33//33
f 98//98 71//71 36//36
f 101//101 72//72 39//39
f 104//104 29//29 61//61
f 107//107 32//32 63//63
f 110//110 35//35 65//65
f 113//113 38//38 67//67
f 116//116 41//41 59//59
f 118//118 53//53 12//12
f 120//120 54//54 15//15
f 122//122 55//55 18//18
f 124//124 56//56 21//21
f 126//126 57//57 9//9
f 129//129 75//75 74//74
f 131//131 78//78 77//77
f 133//133 81//81 80//80
f 135//135 84//84 83//83
f 137//137 87//87 86//86
f 138//138 90//90 89//89
f 139//139 93//93 92//92
f 140//140 96//96 95//95
f 141//141 99//99 98//98
f 142//142 102//102 101//101
f 144//144 105//105 104//104
f 146//146 108//108 107//107
f 148//148 111//111 110//110
f 150//150 114//114 113//113
f 152//152 117//117 116//116
f 153//153 119//119 118//118
f 154//154 121//121 120//120
f 155//155 123//123 122//122
f 156//156 125//125 124//124
f 157//157 127//127 126//126
