# Created by Open3D 
# object name: part_057
# number of vertices: 162
# number of triangles: 320
v -2.1149 6.08442 2.50249
vn 0.722966 0.688215 0.0606616
v -2.10333 6.06757 2.5285
vn 0.778644 0.604393 0.168589
v -2.10054 6.06928 2.48484
vn 0.815786 0.577723 0.0270094
v -2.11388 6.08534 2.44388
vn 0.724086 0.689592 -0.0127117
v -2.12464 6.0946 2.48495
vn 0.567464 0.822925 0.0279071
v -2.12631 6.09169 2.5286
vn 0.629769 0.757845 0.170476
v -2.1426 6.0659 0.653376
vn 0.720614 0.68665 -0.0960611
v -2.12771 6.05111 0.670889
vn 0.814442 0.576814 -0.0629989
v -2.13182 6.04852 0.627372
vn 0.773066 0.600659 -0.203907
v -2.11944 6.05209 1.57802
vn 0.717634 -0.69641 -0.0037752
v -2.10907 6.05827 2.43976
vn 0.706008 -0.708197 -0.00313123
v -2.1278 6.0438 1.57823
vn 0.691448 -0.722419 -0.00312232
v -2.24011 5.93432 2.55147
vn 0.689467 -0.722678 0.048704
v -2.24075 5.9353 2.56348
vn 0.509481 -0.517242 0.687671
v -2.36575 5.81515 2.55591
vn 0.682625 -0.725676 0.0861274
v -2.26598 5.96148 2.55159
vn -0.687917 0.723715 0.0548436
v -2.1471 6.07551 2.53021
vn -0.688298 0.725019 0.0243578
v -2.38614 5.84785 2.53607
vn -0.689983 0.723414 0.0244009
v -2.14372 6.08251 1.76913
vn -0.660521 0.750804 0.00237463
v -2.15484 6.0757 0.756872
vn -0.617748 0.786375 0.00117313
v -2.16207 6.06955 0.716536
vn -0.672961 0.739674 0.00238167
v -2.42501 5.79694 0.660301
vn -0.722966 -0.688215 -0.060662
v -2.40885 5.78468 0.634166
vn -0.642423 -0.747439 -0.169196
v -2.41051 5.78177 0.677824
vn -0.616996 -0.786472 -0.0278973
v -2.42573 5.7957 0.718905
vn -0.724086 -0.689592 0.0127118
v -2.43462 5.80709 0.677931
vn -0.84978 -0.526464 -0.0266465
v -2.43182 5.8088 0.634268
vn -0.788426 -0.591239 -0.169767
v -2.38857 5.79577 1.58462
vn 0.660516 -0.750808 -0.00237451
v -2.3989 5.78956 0.722889
vn 0.672863 -0.739761 -0.00302207
v -2.37988 5.80371 1.58441
vn 0.687782 -0.725911 -0.00303239
v -2.3973 5.81546 2.50941
vn -0.720614 -0.68665 0.0960586
v -2.38334 5.79994 2.49177
vn -0.615653 -0.785566 0.0621106
v -2.38037 5.80372 2.53529
vn -0.636838 -0.743711 0.203299
v -2.41285 5.82619 1.77573
vn -0.71764 0.696404 0.00377534
v -2.40694 5.82862 2.40602
vn -0.75617 0.654356 0.00501587
v -2.40027 5.83536 2.44635
vn -0.706121 0.70808 0.00393098
v -2.29505 5.94205 0.611296
vn -0.689467 0.722678 -0.048704
v -2.41465 5.82878 0.632677
vn -0.690622 0.722987 -0.0182026
v -2.17561 6.05644 0.626815
vn -0.688936 0.724592 -0.0182447
v -2.26918 5.91488 0.61118
vn 0.687917 -0.723715 -0.0548435
v -2.27018 5.91562 0.599185
vn 0.488812 -0.531066 -0.692121
v -2.14403 6.03457 0.606746
vn 0.691087 -0.71686 -0.0922531
v -2.1205 6.04758 2.53009
vn 0.690622 -0.722987 0.0182026
v -2.11492 6.05404 2.54976
vn 0.693755 -0.715075 0.0858603
v -2.12822 6.04774 0.756753
vn 0.755667 -0.654937 -0.00498209
v -2.10361 6.06419 2.39911
vn 0.75568 -0.654925 -0.00453891
v -2.15182 6.07642 0.670996
vn 0.566123 0.822033 -0.0613684
v -2.13983 6.06799 0.711894
vn 0.723934 0.689492 -0.0227966
v -2.13625 6.08681 2.43988
vn -0.672733 0.739879 0.00311219
v -2.13024 6.09215 2.39923
vn -0.616621 0.787259 0.00159397
v -2.26498 5.96074 2.56358
vn -0.566423 0.60903 0.5552
v -2.1403 6.08068 2.54987
vn -0.679958 0.72746 0.0919739
v -2.13489 6.041 0.716415
vn 0.705993 -0.708208 -0.0038343
v -2.35954 5.81992 2.53595
vn 0.688936 -0.724592 0.0182447
v -2.39112 5.8418 2.55602
vn -0.691087 0.71686 0.0922533
v -2.15238 6.07459 1.7717
vn -0.687782 0.725911 0.00303239
v -2.15479 6.07265 0.627475
vn 0.624148 0.754094 -0.204406
v -2.38806 5.80086 0.632558
vn 0.688298 -0.725019 -0.0243578
v -2.39486 5.79569 0.612896
vn 0.679958 -0.72746 -0.0919737
v -2.38031 5.80066 2.4059
vn 0.617251 -0.786766 -0.00114442
v -2.40492 5.78421 0.763538
vn 0.617234 -0.786778 -0.00158756
v -2.40744 5.82526 2.49188
vn -0.848443 -0.525569 0.0626267
v -2.39978 5.81305 2.45089
vn -0.723934 -0.689492 0.0227966
v -2.42609 5.8181 0.72301
vn -0.705931 0.708273 0.00319025
v -2.43155 5.81217 0.763657
vn -0.755259 0.655411 0.00454508
v -2.29441 5.94107 0.599293
vn -0.582978 0.597956 -0.550077
v -2.42023 5.82233 0.61301
vn -0.693755 0.715075 -0.0858603
v -2.14902 6.02852 0.626697
vn 0.689983 -0.723414 -0.0244009
v -2.37309 5.80682 2.44623
vn 0.672876 -0.739752 -0.00231845
v -2.40334 5.82785 2.5354
vn -0.782811 -0.587481 0.205117
v -2.40446 5.83451 1.77788
vn -0.691448 0.722419 0.00312232
v -2.16941 6.06122 0.606859
vn -0.682625 0.725676 -0.0861274
v -2.11269 6.05475 2.49814
vn 0.692573 -0.721337 0.00396278
v -2.10465 6.0629 2.48316
vn 0.742806 -0.669494 0.00411242
v -2.10853 6.05944 2.5279
vn 0.729374 -0.683738 0.0226954
v -2.12735 6.04969 0.701172
vn 0.862887 -0.505296 -0.0100507
v -2.12504 6.05326 0.755715
vn 0.816213 0.577438 -0.0190271
v -2.11344 6.05908 1.57786
vn 0.866275 -0.499503 -0.00797444
v -2.15309 6.07672 0.701287
vn -0.461689 0.887034 -0.00382881
v -2.13658 6.08807 1.75999
vn -0.456631 0.889654 -0.00207077
v -2.14918 6.07861 0.755823
vn 0.553104 0.832925 -0.0176644
v -2.1397 6.08311 2.49826
vn -0.686616 0.72695 0.0101189
v -2.13468 6.08691 2.52801
vn -0.647193 0.76178 0.0288388
v -2.13123 6.0908 2.48328
vn -0.63238 0.774591 0.0102492
v -2.25534 5.95072 2.56736
vn 0.0149783 0.0100166 0.999838
v -2.11582 6.05551 2.55928
vn 0.23558 -0.0996025 0.966738
v -2.13883 6.07967 2.55938
vn -0.107066 0.258442 0.960075
v -2.14026 6.03632 0.658255
vn 0.69236 -0.72148 -0.0102591
v -2.13698 6.04041 0.628295
vn 0.728566 -0.684281 -0.0308369
v -2.13178 6.04476 0.672813
vn 0.742538 -0.669679 -0.0129486
v -2.3679 5.81169 2.50439
vn 0.686829 -0.726808 0.00410372
v -2.36059 5.81845 2.44691
vn 0.689244 -0.724524 -0.00271236
v -2.24016 5.93319 2.50589
vn 0.689704 -0.724081 0.00385822
v -2.39928 5.83321 2.55001
vn -0.928126 0.162048 0.335145
v -2.3901 5.82236 2.55484
vn -0.616655 -0.589453 0.521806
v -2.38994 5.84051 2.56554
vn -0.228188 0.143086 0.963046
v -2.27846 5.95461 1.77554
vn -0.689617 0.724168 0.00307735
v -2.38803 5.84728 2.44703
vn -0.68999 0.72381 0.00353683
v -2.14872 6.0752 2.44116
vn -0.689231 0.724533 0.00351819
v -2.16041 6.06891 0.612869
vn -0.117936 0.936417 -0.330475
v -2.16314 6.06788 0.628412
vn -0.647993 0.761246 -0.0246912
v -2.15601 6.07377 0.643115
vn -0.502538 0.863786 -0.0364534
v -2.39546 5.79326 0.664513
vn 0.686616 -0.72695 -0.010119
v -2.40393 5.78557 0.679486
vn 0.63238 -0.774591 -0.0102492
v -2.40047 5.78946 0.634756
vn 0.647193 -0.76178 -0.0288387
v -2.38207 5.79965 2.46148
vn 0.462573 -0.886572 0.00413627
v -2.38598 5.79776 2.40695
vn -0.616549 -0.787108 0.0181363
v -2.39585 5.79012 1.58479
vn 0.456631 -0.889654 0.00207076
v -2.40781 5.82667 2.4616
vn -0.862165 0.506518 0.0104902
v -2.41899 5.81911 1.76692
vn -0.866275 0.499503 0.00797444
v -2.41012 5.8231 2.40705
vn -0.845421 -0.533761 0.0190638
v -2.42247 5.82162 0.664634
vn -0.692573 0.721337 -0.00396273
v -2.42663 5.81693 0.634873
vn -0.729374 0.683738 -0.0226954
v -2.4305 5.81347 0.679605
vn -0.742806 0.669494 -0.00411242
v -2.28488 5.93097 0.595432
vn -0.0149795 -0.0100153 -0.999838
v -2.39633 5.7967 0.603384
vn 0.0838715 -0.235853 -0.968163
v -2.41933 5.82085 0.603487
vn -0.256974 0.123837 -0.958451
v -2.14712 6.02909 0.715736
vn 0.689991 -0.72381 -0.00344227
v -2.26786 5.91467 0.656757
vn 0.689496 -0.72422 -0.0100144
v -2.37202 5.80849 2.53436
vn 0.647993 -0.761246 0.0246912
v -2.37681 5.8037 2.48984
vn 0.632646 -0.774411 0.00681469
v -2.39817 5.83596 2.53447
vn -0.728566 0.684281 0.0308369
v -2.40447 5.82919 2.51977
vn -0.838046 0.543947 0.0424382
v -2.17457 6.05791 0.715859
vn -0.689244 0.724524 0.00277419
v -2.41388 5.82999 0.721727
vn -0.689999 0.723805 0.00279275
v -2.15004 6.05924 0.607954
vn 0.616655 0.589453 -0.521807
v -2.16822 6.06001 0.597329
vn -0.135855 0.239195 -0.96142
v -2.10696 6.06249 2.54333
vn 0.928541 0.00551089 0.37119
v -2.10267 6.06591 2.51287
vn 0.83909 -0.543261 0.0281992
v -2.10108 6.06726 2.45459
vn 0.862945 -0.505265 -0.00568222
v -2.10041 6.06974 2.39994
vn 0.816241 0.577461 -0.0169985
v -2.12661 6.07752 1.57788
vn 0.72402 0.689551 -0.0177543
v -2.12454 6.09508 2.40005
vn 0.574369 0.818445 -0.0157523
v -2.12682 6.09429 2.45471
vn -0.463795 0.885942 0.000720624
v -2.12799 6.09251 2.51299
vn -0.501477 0.864495 0.0341834
v -2.13149 6.08825 2.54344
vn -0.108258 0.942885 0.315037
v -2.12097 6.07868 2.54824
vn 0.631832 0.599602 0.491188
v -2.13068 6.04718 0.643002
vn 0.838046 -0.543946 -0.0424382
v -2.12128 6.04637 2.44104
vn 0.690001 -0.723803 -0.0027311
v -2.36694 5.81636 2.56544
vn 0.112905 -0.216442 0.969745
v -2.2673 5.9617 2.50601
vn -0.689496 0.72422 0.0100144
v -2.15835 6.07267 0.672931
vn -0.632646 0.774411 -0.00681469
v -2.40367 5.78812 0.619326
vn -0.0524446 -0.9255 -0.3751
v -2.40716 5.78386 0.649782
vn 0.501478 -0.864495 -0.0341833
v -2.40834 5.78208 0.708063
vn 0.462552 -0.886592 -0.000233242
v -2.41061 5.78129 0.762718
vn -0.616574 -0.787132 0.0161075
v -2.41362 5.80417 1.58491
vn -0.72402 -0.689551 0.0177544
v -2.43475 5.80663 0.762826
vn -0.858899 -0.511864 0.0169608
v -2.43408 5.80911 0.708178
vn -0.863442 0.504413 0.00602328
v -2.43249 5.81046 0.649895
vn -0.83909 0.543261 -0.0281992
v -2.4282 5.81387 0.619436
vn -0.937798 0.155588 -0.310367
v -2.41917 5.80292 0.614553
vn -0.631832 -0.599602 -0.491188
v -2.38644 5.80117 0.721605
vn 0.689233 -0.724531 -0.00342382
v -2.37915 5.80259 2.51965
vn 0.502538 -0.863786 0.0364533
v -2.40338 5.8316 2.48996
vn -0.742538 0.669679 0.0129486
v -2.295 5.94317 0.656878
vn -0.689704 0.724081 -0.00385817
v -2.14522 6.03586 0.597226
vn 0.206548 -0.119017 -0.971171
v -2.13588 6.04316 0.61276
vn 0.917003 -0.00220512 -0.398875
v -2.25379 5.9237 1.58132
vn 0.689617 -0.724167 -0.00307736
v -2.37475 5.80745 2.5499
vn -0.0409042 -0.917785 0.394965
v -2.3949 5.84005 2.50451
vn -0.69236 0.72148 0.0102591
v -2.16726 6.06468 0.658376
vn -0.686829 0.726808 -0.00410367
f 1//1 2//2 3//3
f 1//1 3//3 4//4
f 1//1 4//4 5//5
f 1//1 5//5 6//6
f 1//1 6//6 2//2
f 7//7 8//8 9//9
f 10//10 11//11 12//12
f 13//13 14//14 15//15
f 16//16 17//17 18//18
f 19//19 20//20 21//21
f 22//22 23//23 24//24
f 22//22 24//24 25//25
f 22//22 25//25 26//26
f 22//22 26//26 27//27
f 22//22 27//27 23//23
f 28//28 29//29 30//30
f 31//31 32//32 33//33
f 34//34 35//35 36//36
f 37//37 38//38 39//39
f 40//40 41//41 42//42
f 13//13 43//43 44//44
f 10//10 45//45 46//46
f 7//7 47//47 48//48
f 19//19 49//49 50//50
f 16//16 51//51 52//52
f 10//10 53//53 45//45
f 13//13 54//54 43//43
f 16//16 55//55 51//51
f 19//19 56//56 49//49
f 7//7 57//57 47//47
f 40//40 58//58 59//59
f 28//28 60//60 61//61
f 31//31 62//62 63//63
f 34//34 64//64 65//65
f 37//37 66//66 67//67
f 40//40 68//68 58//58
f 28//28 69//69 60//60
f 31//31 70//70 62//62
f 34//34 71//71 64//64
f 37//37 72//72 66//66
f 10//10 46//46 11//11
f 7//7 48//48 8//8
f 19//19 50//50 20//20
f 16//16 52//52 17//17
f 13//13 44//44 14//14
f 40//40 42//42 68//68
f 28//28 30//30 69//69
f 31//31 33//33 70//70
f 34//34 36//36 71//71
f 37//37 39//39 72//72
f 28//28 61//61 29//29
f 31//31 63//63 32//32
f 34//34 65//65 35//35
f 37//37 67//67 38//38
f 40//40 59//59 41//41
f 10//10 12//12 53//53
f 13//13 15//15 54//54
f 16//16 18//18 55//55
f 19//19 21//21 56//56
f 7//7 9//9 57//57
f 73//73 74//74 75//75
f 76//76 77//77 78//78
f 79//79 80//80 81//81
f 82//82 83//83 84//84
f 85//85 86//86 87//87
f 88//88 89//89 90//90
f 91//91 92//92 93//93
f 94//94 95//95 96//96
f 97//97 98//98 99//99
f 100//100 101//101 102//102
f 103//103 104//104 105//105
f 106//106 107//107 108//108
f 109//109 110//110 111//111
f 112//112 113//113 114//114
f 115//115 116//116 117//117
f 88//88 118//118 119//119
f 91//91 120//120 121//121
f 94//94 122//122 123//123
f 97//97 124//124 125//125
f 100//100 126//126 127//127
f 128//128 129//129 2//2
f 130//130 131//131 3//3
f 132//132 133//133 4//4
f 134//134 135//135 5//5
f 136//136 137//137 6//6
f 76//76 138//138 8//8
f 73//73 139//139 11//11
f 85//85 140//140 14//14
f 82//82 141//141 17//17
f 79//79 142//142 20//20
f 143//143 144//144 23//23
f 145//145 146//146 24//24
f 147//147 148//148 25//25
f 149//149 150//150 26//26
f 151//151 152//152 27//27
f 103//103 153//153 29//29
f 106//106 154//154 32//32
f 109//109 155//155 35//35
f 112//112 156//156 38//38
f 115//115 157//157 41//41
f 73//73 75//75 43//43
f 76//76 78//78 45//45
f 79//79 81//81 47//47
f 82//82 84//84 49//49
f 85//85 87//87 51//51
f 88//88 90//90 53//53
f 91//91 93//93 54//54
f 94//94 96//96 55//55
f 97//97 99//99 56//56
f 100//100 102//102 57//57
f 103//103 105//105 58//58
f 106//106 108//108 60//60
f 109//109 111//111 62//62
f 112//112 114//114 64//64
f 115//115 117//117 66//66
f 88//88 119//119 68//68
f 91//91 121//121 69//69
f 94//94 123//123 70//70
f 97//97 125//125 71//71
f 100//100 127//127 72//72
f 130//130 74//74 46//46
f 132//132 77//77 48//48
f 134//134 80//80 50//50
f 136//136 83//83 52//52
f 128//128 86//86 44//44
f 158//158 89//89 42//42
f 159//159 92//92 30//30
f 160//160 95//95 33//33
f 161//161 98//98 36//36
f 162//162 101//101 39//39
f 145//145 104//104 61//61
f 147//147 107//107 63//63
f 149//149 110//110 65//65
f 151//151 113//113 67//67
f 143//143 116//116 59//59
f 159//159 118//118 12//12
f 160//160 120//120 15//15
f 161//161 122//122 18//18
f 162//162 124//124 21//21
f 158//158 126//126 9//9
f 130//130 129//129 74//74
f 132//132 131//131 77//77
f 134//134 133//133 80//80
f 136//136 135//135 83//83
f 128//128 137//137 86//86
f 158//158 138//138 89//89
f 159//159 139//139 92//92
f 160//160 140//140 95//95
f 161//161 141//141 98//98
f 162//162 142//142 101//101
f 145//145 144//144 104//104
f 147//147 146//146 107//107
f 149//149 148//148 110//110
f 151//151 150//150 113//113
f 143//143 152//152 116//116
f 159//159 153//153 118//118
f 160//160 154//154 120//120
f 161//161 155//155 122//122
f 162//162 156//156 124//124
f 158//158 157//157 126//126
f 130//130 3//3 129//129
f 132//132 4//4 131//131
f 134//134 5//5 133//133
f 136//136 6//6 135//135
f 128//128 2//2 137//137
f 158//158 9//9 138//138
f 159//159 12//12 139//139
f 160//160 15//15 140//140
f 161//161 18//18 141//141
f 162//162 21//21 142//142
f 145//145 24//24 144//144
f 147//147 25//25 146//146
f 149//149 26//26 148//148
f 151//151 27//27 150//150
f 143//143 23//23 152//152
f 159//159 30//30 153//153
f 160//160 33//33 154//154
f 161//161 36//36 155//155
f 162//162 39//39 156//156
f 158//158 42//42 157//157
f 128//128 44//44 75//75
f 130//130 46//46 78//78
f 132//132 48//48 81//81
f 134//134 50//50 84//84
f 136//136 52//52 87//87
f 76//76 45//45 90//90
f 73//73 43//43 93//93
f 85//85 51//51 96//96
f 82//82 49//49 99//99
f 79//79 47//47 102//102
f 143//143 59//59 105//105
f 145//145 61//61 108//108
f 147//147 63//63 111//111
f 149//149 65//65 114//114
f 151//151 67//67 117//117
f 103//103 58//58 119//119
f 106//106 60//60 121//121
f 109//109 62//62 123//123
f 112//112 64//64 125//125
f 115//115 66//66 127//127
f 73//73 11//11 74//74
f 76//76 8//8 77//77
f 79//79 20//20 80//80
f 82//82 17//17 83//83
f 85//85 14//14 86//86
f 88//88 68//68 89//89
f 91//91 69//69 92//92
f 94//94 70//70 95//95
f 97//97 71//71 98//98
f 100//100 72//72 101//101
f 103//103 29//29 104//104
f 106//106 32//32 107//107
f 109//109 35//35 110//110
f 112//112 38//38 113//113
f 115//115 41//41 116//116
f 88//88 53//53 118//118
f 91//91 54//54 120//120
f 94//94 55//55 122//122
f 97//97 56//56 124//124
f 100//100 57//57 126//126
f 128//128 75//75 129//129
f 130//130 78//78 131//131
f 132//132 81//81 133//133
f 134//134 84//84 135//135
f 136//136 87//87 137//137
f 76//76 90//90 138//138
f 73//73 93//93 139//139
f 85//85 96//96 140//140
f 82//82 99//99 141//141
f 79//79 102//102 142//142
f 143//143 105//105 144//144
f 145//145 108//108 146//146
f 147//147 111//111 148//148
f 149//149 114//114 150//150
f 151//151 117//117 152//152
f 103//103 119//119 153//153
f 106//106 121//121 154//154
f 109//109 123//123 155//155
f 112//112 125//125 156//156
f 115//115 127//127 157//157
f 129//129 3//3 2//2
f 131//131 4//4 3//3
f 133//133 5//5 4//4
f 135//135 6//6 5//5
f 137//137 2//2 6//6
f 138//138 9//9 8//8
f 139//139 12//12 11//11
f 140//140 15//15 14//14
f 141//141 18//18 17//17
f 142//142 21//21 20//20
f 144//144 24//24 23//23
f 146//146 25//25 24//24
f 148//148 26//26 25//25
f 150//150 27//27 26//26
f 152//152 23//23 27//27
f 153//153 30//30 29//29
f 154//154 33//33 32//32
f 155//155 36//36 35//35
f 156//156 39//39 38//38
f 157//157 42//42 41//41
f 75//75 44//44 43//43
f 78//78 46//46 45//45
f 81//81 48//48 47//47
f 84//84 50//50 49//49
f 87//87 52//52 51//51
f 90//90 45//45 53//53
f 93//93 43//43 54//54
f 96//96 51//51 55//55
f 99//99 49//49 56//56
f 102//102 47//47 57//57
f 105//105 59//59 58//58
f 108//108 61//61 60//60
f 111//111 63//63 62//62
f 114//114 65//65 64//64
f 117//117 67//67 66//66
f 119//119 58//58 68//68
f 121//121 60//60 69//69
f 123//123 62//62 70//70
f 125//125 64//64 71//71
f 127//127 66//66 72//72
f 74//74 11//11 46//46
f 77//77 8//8 48//48
f 80//80 20//20 50//50
f 83//83 17//17 52//52
f 86//86 14//14 44//44
f 89//89 68//68 42//42
f 92//92 69//69 30//30
f 95//95 70//70 33//33
f 98//98 71//71 36//36
f 101//101 72//72 39//39
f 104//104 29//29 61//61
f 107//107 32//32 63//63
f 110//110 35//35 65//65
f 113//113 38//38 67//67
f 116//116 41//41 59//59
f 118//118 53//53 12//12
f 120//120 54//54 15//15
f 122//122 55//55 18//18
f 124//124 56//56 21//21
f 126//126 57//57 9//9
f 129//129 75//75 74//74
f 131//131 78//78 77//77
f 133//133 81//81 80//80
f 135//135 84//84 83//83
f 137//137 87//87 86//86
f 138//138 90//90 89//89
f 139//139 93//93 92//92
f 140//140 96//96 95//95
f 141//141 99//99 98//98
f 142//142 102//102 101//101
f 144//144 105//105 104//104
f 146//146 108//108 107//107
f 148//148 111//111 110//110
f 150//150 114//114 113//113
f 152//152 117//117 116//116
f 153//153 119//119 118//118
f 154//154 121//121 120//120
f 155//155 123//123 122//122
f 156//156 125//125 124//124
f 157//157 127//127 126//126
