# Created by Open3D 
# object name: part_075
# number of vertices: 162
# number of triangles: 320
v 0.108217 2.75457 0.661321
vn 0.960814 -0.269376 0.0653673
v 0.102106 2.73569 0.670548
vn 0.955063 -0.278102 0.102536
v 0.102733 2.7342 0.656126
vn 0.956875 -0.28526 0.0549248
v 0.10899 2.75351 0.641906
vn 0.96186 -0.270443 0.0410594
v 0.112233 2.76782 0.65506
vn 0.967352 -0.247666 0.0537682
v 0.111159 2.76773 0.669532
vn 0.961524 -0.25495 0.102332
v 0.126427 2.72997 0.0477438
vn 0.962357 -0.271459 0.0133901
v 0.120597 2.71007 0.054217
vn 0.957769 -0.286467 0.0248177
v 0.120828 2.7104 0.0397107
vn 0.958796 -0.283144 -0.0232422
v 0.110069 2.7203 0.355198
vn 0.0690892 -0.996726 0.0420029
v 0.101201 2.73184 0.641105
vn -0.0701676 -0.996776 0.0389103
v 0.108757 2.72041 0.355154
vn -0.249545 -0.967854 0.0313891
v 0.0811021 2.73962 0.676281
vn -0.27307 -0.944201 0.184164
v 0.0813067 2.74092 0.680226
vn -0.11741 -0.2787 0.953174
v 0.0628593 2.74514 0.675971
vn -0.334516 -0.89802 0.28576
v 0.0912951 2.7757 0.675137
vn 0.263929 0.95655 0.123912
v 0.109085 2.77105 0.669714
vn 0.279442 0.959563 0.0339212
v 0.074155 2.78087 0.668284
vn 0.259123 0.965277 0.0330881
v 0.118883 2.7607 0.417371
vn 0.580679 0.813987 -0.0153938
v 0.129303 2.74672 0.0815461
vn 0.835582 0.549361 0.00231098
v 0.128884 2.74683 0.0680595
vn 0.461121 0.887046 -0.0227288
v 0.0851606 2.74158 0.046054
vn -0.960814 0.269377 -0.0653667
v 0.0803463 2.72178 0.0380529
vn -0.96109 0.256768 -0.101862
v 0.0792725 2.72169 0.0525248
vn -0.965588 0.254421 -0.0539464
v 0.0842694 2.74222 0.065482
vn -0.96186 0.270443 -0.0410592
v 0.0887723 2.75532 0.0514589
vn -0.954845 0.291938 -0.0551698
v 0.0893997 2.75383 0.0370371
vn -0.95449 0.279848 -0.103122
v 0.0707411 2.73136 0.353587
vn -0.580682 -0.813985 0.0153936
v 0.0795934 2.71977 0.0676814
vn -0.461958 -0.886658 0.0207926
v 0.0719205 2.73077 0.353646
vn -0.293814 -0.955405 0.0295763
v 0.0669503 2.76617 0.659631
vn -0.962357 0.271459 -0.0133896
v 0.0614085 2.74582 0.654434
vn -0.966482 0.255626 -0.0238395
v 0.0616238 2.74707 0.66889
vn -0.964823 0.26181 0.0239172
v 0.0795559 2.77176 0.41576
vn -0.0690922 0.996726 -0.042003
v 0.0726949 2.77993 0.624862
vn -0.431585 0.900775 -0.0483648
v 0.0733323 2.7806 0.638324
vn 0.0685084 0.996978 -0.0366161
v 0.110403 2.74989 0.0313042
vn 0.27307 0.944201 -0.184165
v 0.0928999 2.75556 0.0366946
vn 0.262913 0.960153 -0.0947733
v 0.12783 2.74573 0.0381251
vn 0.283234 0.954439 -0.0939418
v 0.10021 2.71381 0.032448
vn -0.263929 -0.956549 -0.123914
v 0.100651 2.7148 0.0284302
vn -0.061427 -0.354312 -0.933108
v 0.118647 2.70899 0.0327361
vn -0.1891 -0.955358 -0.227008
v 0.0986055 2.73396 0.67089
vn -0.262913 -0.960153 0.0947731
v 0.0995119 2.73483 0.677472
vn -0.204476 -0.934593 0.291078
v 0.118811 2.70958 0.0827232
vn 0.42804 -0.902464 0.0483721
v 0.102636 2.73143 0.627695
vn 0.42802 -0.902419 0.0493813
v 0.130097 2.7437 0.0531512
vn 0.968249 -0.248875 0.0235827
v 0.126047 2.73047 0.0671929
vn 0.961959 -0.270576 0.0377237
v 0.111912 2.76975 0.639904
vn 0.463286 0.885973 -0.0204503
v 0.113129 2.76856 0.626518
vn 0.839551 0.543269 0.00369111
v 0.0908541 2.77472 0.679155
vn 0.0951904 0.46654 0.879363
v 0.109511 2.77022 0.67635
vn 0.319139 0.91879 0.232325
v 0.118173 2.70892 0.0692612
vn -0.0700694 -0.996862 0.0368402
v 0.0636753 2.74378 0.66946
vn -0.283234 -0.954439 0.0939417
v 0.0728585 2.78053 0.674849
vn 0.1891 0.955358 0.227007
v 0.117681 2.76131 0.418096
vn 0.293808 0.955407 -0.0295765
v 0.129882 2.74244 0.0386949
vn 0.965288 -0.260034 -0.0245065
v 0.0824202 2.71846 0.0378705
vn -0.279442 -0.959563 -0.0339216
v 0.0819943 2.71929 0.0312351
vn -0.319138 -0.91879 -0.232325
v 0.0622026 2.7428 0.626039
vn -0.837414 -0.546564 -0.00243944
v 0.0783768 2.72095 0.0810675
vn -0.837379 -0.546612 -0.00344777
v 0.0709083 2.77944 0.653368
vn -0.95574 0.293149 -0.024986
v 0.0672125 2.76525 0.640195
vn -0.961959 0.270577 -0.0377237
v 0.0903041 2.75768 0.0664796
vn 0.071138 0.996715 -0.038699
v 0.088869 2.75809 0.0798902
vn -0.424931 0.903882 -0.0493101
v 0.110199 2.74859 0.0273589
vn 0.148196 0.394947 -0.906672
v 0.0919935 2.75469 0.0301132
vn 0.204475 0.934592 -0.29108
v 0.11735 2.70864 0.0393009
vn -0.259123 -0.965277 -0.0330884
v 0.0626217 2.74269 0.639526
vn -0.462037 -0.886566 0.022862
v 0.0706771 2.77912 0.667874
vn -0.958254 0.284932 0.023717
v 0.0808443 2.77167 0.416588
vn 0.249542 0.967855 -0.0313893
v 0.128646 2.74438 0.0316142
vn 0.334516 0.89802 -0.285761
v 0.100018 2.73292 0.66041
vn -0.237481 -0.969931 0.0532527
v 0.101487 2.73267 0.655552
vn 0.324277 -0.943469 0.0686357
v 0.100497 2.73373 0.670324
vn 0.193841 -0.974082 0.116572
v 0.119846 2.70937 0.0642903
vn 0.801539 -0.596229 0.0452416
v 0.119959 2.71112 0.0823846
vn 0.957424 -0.285964 0.039538
v 0.111289 2.72092 0.355209
vn 0.806371 -0.589494 0.0475614
v 0.129988 2.74527 0.0631524
vn 0.995703 0.0894726 0.0238885
v 0.11969 2.75942 0.414461
vn 0.996237 0.0826012 0.0262563
v 0.129469 2.74479 0.0813175
vn 0.968414 -0.246395 0.0382664
v 0.11066 2.77058 0.659216
vn 0.305533 0.952151 -0.00767309
v 0.110804 2.77022 0.669168
vn 0.676376 0.733906 0.062438
v 0.111959 2.76974 0.654377
vn 0.77079 0.636819 0.018541
v 0.0870411 2.76141 0.680845
vn -0.0296419 0.0400342 0.998759
v 0.0999068 2.73661 0.680579
vn 0.195456 -0.103875 0.975196
v 0.10897 2.76869 0.679562
vn 0.238961 0.0546085 0.969492
v 0.118138 2.70844 0.0498964
vn -0.236212 -0.971645 0.0105157
v 0.119204 2.70847 0.039994
vn 0.19809 -0.979822 -0.0266224
v 0.119316 2.70859 0.0548366
vn 0.325525 -0.945166 0.0263585
v 0.0627259 2.7434 0.658883
vn -0.306807 -0.950436 0.0504096
v 0.0643644 2.74201 0.639931
vn -0.276354 -0.960544 0.0313721
v 0.0812997 2.73813 0.661185
vn -0.27231 -0.960839 0.0513392
v 0.0715136 2.7802 0.672753
vn -0.90197 0.408239 0.140681
v 0.0675169 2.76667 0.674792
vn -0.94987 0.273176 0.152058
v 0.0722761 2.77901 0.67806
vn -0.248299 0.191636 0.949539
v 0.0992762 2.76658 0.417589
vn 0.271752 0.961884 -0.0304907
v 0.07518 2.78029 0.638717
vn 0.267119 0.963217 -0.0293249
v 0.11015 2.77046 0.640149
vn 0.276297 0.960636 -0.0289491
v 0.129657 2.74352 0.0337477
vn 0.979842 -0.132601 -0.149419
v 0.129512 2.74495 0.0388375
vn 0.680659 0.728135 -0.0807602
v 0.13015 2.7443 0.0438273
vn 0.987783 0.154191 -0.0225912
v 0.0808452 2.71893 0.0483692
vn -0.305532 -0.952151 0.00767336
v 0.0795468 2.71978 0.053208
vn -0.770791 -0.636818 -0.018541
v 0.0807012 2.7193 0.0384172
vn -0.676378 -0.733904 -0.0624381
v 0.0615177 2.74424 0.644433
vn -0.995602 -0.0906968 -0.0234663
v 0.0620363 2.74473 0.626268
vn -0.966169 0.255012 -0.0385568
v 0.0700229 2.73252 0.353519
vn -0.996236 -0.0826082 -0.026256
v 0.0716598 2.78014 0.643295
vn -0.800488 0.597677 -0.0447378
v 0.0784235 2.77102 0.412772
vn -0.806373 0.589492 -0.0475613
v 0.0715469 2.77839 0.6252
vn -0.955698 0.291659 -0.0396997
v 0.0914873 2.7566 0.0471751
vn 0.237481 0.969931 -0.0532527
v 0.0910086 2.75578 0.0372608
vn -0.193839 0.974083 -0.116572
v 0.0900182 2.75684 0.0520331
vn -0.324276 0.943469 -0.0686357
v 0.106461 2.73518 0.0265157
vn 0.0296419 -0.0400342 -0.998759
v 0.082535 2.72083 0.0280225
vn -0.237053 -0.0433605 -0.970528
v 0.0915987 2.75291 0.0270056
vn -0.191186 0.1145 -0.974853
v 0.116325 2.70923 0.0688678
vn -0.267141 -0.963202 0.0296084
v 0.0995102 2.71353 0.0476003
vn -0.271073 -0.962511 0.00962549
v 0.0619937 2.74456 0.668748
vn -0.680659 -0.728135 0.0807604
v 0.0617183 2.74386 0.653923
vn -0.772056 -0.635111 0.0237334
v 0.0723011 2.78105 0.667591
vn -0.19809 0.979822 0.0266225
v 0.0713344 2.78054 0.662638
vn -0.760898 0.648866 -0.00286421
v 0.127141 2.74751 0.0676543
vn 0.276339 0.960554 -0.031187
v 0.0921711 2.75734 0.0662222
vn 0.26721 0.963121 -0.0315609
v 0.125953 2.7298 0.0325725
vn 0.94987 -0.273176 -0.152058
v 0.128293 2.74259 0.0285082
vn 0.296074 -0.0225288 -0.954899
v 0.100979 2.73499 0.67544
vn 0.906771 -0.354988 0.227487
v 0.101756 2.73385 0.665412
vn 0.758188 -0.645211 0.0940935
v 0.102578 2.7327 0.646114
vn 0.80142 -0.595999 0.0501216
v 0.103766 2.73299 0.627976
vn 0.957404 -0.285937 0.040216
v 0.117721 2.74239 0.354539
vn 0.961911 -0.27051 0.0393916
v 0.113277 2.76666 0.626909
vn 0.967657 -0.249228 0.0390643
v 0.11272 2.76859 0.644976
vn 0.99528 0.0926745 0.0288016
v 0.111736 2.76917 0.664293
vn 0.985077 0.157834 0.0686363
v 0.110645 2.7692 0.674355
vn 0.968958 -0.117902 0.217299
v 0.106845 2.75561 0.676403
vn 0.938549 -0.257886 0.229391
v 0.120171 2.70898 0.044947
vn 0.760898 -0.648865 0.00286421
v 0.0993344 2.73217 0.641363
vn -0.267207 -0.963116 0.0317468
v 0.0632125 2.74692 0.679077
vn -0.294204 0.0338275 0.955144
v 0.0919953 2.77598 0.659985
vn 0.271073 0.962511 -0.00962526
v 0.129787 2.74566 0.0536617
vn 0.772058 0.635108 -0.0237336
v 0.0808607 2.72031 0.0332297
vn -0.962196 0.158807 -0.22127
v 0.0797698 2.72034 0.0432925
vn -0.985078 -0.157833 -0.0686362
v 0.0787856 2.72092 0.0626088
vn -0.995457 -0.090892 -0.0283476
v 0.0782289 2.72286 0.0806756
vn -0.966149 0.254985 -0.0392349
v 0.0757812 2.75419 0.352822
vn -0.961911 0.27051 -0.0393916
v 0.0877395 2.75652 0.0796087
vn -0.954807 0.294454 -0.040492
v 0.0889277 2.75682 0.0614709
vn -0.802176 0.595013 -0.0497344
v 0.0897491 2.75566 0.0421727
vn -0.75819 0.645209 -0.0940934
v 0.0905262 2.75453 0.0321452
vn -0.891085 0.393543 -0.226034
v 0.0866251 2.74086 0.0309621
vn -0.938549 0.257886 -0.22939
v 0.0813555 2.71906 0.0674357
vn -0.276292 -0.960629 0.0292338
v 0.061355 2.74521 0.663758
vn -0.987782 -0.154193 0.0225916
v 0.0721896 2.78092 0.652748
vn -0.325526 0.945166 -0.0263586
v 0.110206 2.75139 0.0464003
vn 0.27231 0.960839 -0.0513393
v 0.119229 2.71051 0.0295252
vn 0.252607 -0.181064 -0.950477
v 0.119992 2.70931 0.0348321
vn 0.917806 -0.369886 -0.144281
v 0.0903177 2.72552 0.354402
vn -0.271752 -0.961884 0.0304907
v 0.0618481 2.74599 0.673837
vn -0.973229 0.173707 0.150501
v 0.0733679 2.78107 0.657689
vn 0.236212 0.971645 -0.0105155
v 0.12878 2.74611 0.0487023
vn 0.306807 0.950436 -0.0504098
f 1//1 2//2 3//3
f 1//1 3//3 4//4
f 1//1 4//4 5//5
f 1//1 5//5 6//6
f 1//1 6//6 2//2
f 7//7 8//8 9//9
f 10//10 11//11 12//12
f 13//13 14//14 15//15
f 16//16 17//17 18//18
f 19//19 20//20 21//21
f 22//22 23//23 24//24
f 22//22 24//24 25//25
f 22//22 25//25 26//26
f 22//22 26//26 27//27
f 22//22 27//27 23//23
f 28//28 29//29 30//30
f 31//31 32//32 33//33
f 34//34 35//35 36//36
f 37//37 38//38 39//39
f 40//40 41//41 42//42
f 13//13 43//43 44//44
f 10//10 45//45 46//46
f 7//7 47//47 48//48
f 19//19 49//49 50//50
f 16//16 51//51 52//52
f 10//10 53//53 45//45
f 13//13 54//54 43//43
f 16//16 55//55 51//51
f 19//19 56//56 49//49
f 7//7 57//57 47//47
f 40//40 58//58 59//59
f 28//28 60//60 61//61
f 31//31 62//62 63//63
f 34//34 64//64 65//65
f 37//37 66//66 67//67
f 40//40 68//68 58//58
f 28//28 69//69 60//60
f 31//31 70//70 62//62
f 34//34 71//71 64//64
f 37//37 72//72 66//66
f 10//10 46//46 11//11
f 7//7 48//48 8//8
f 19//19 50//50 20//20
f 16//16 52//52 17//17
f 13//13 44//44 14//14
f 40//40 42//42 68//68
f 28//28 30//30 69//69
f 31//31 33//33 70//70
f 34//34 36//36 71//71
f 37//37 39//39 72//72
f 28//28 61//61 29//29
f 31//31 63//63 32//32
f 34//34 65//65 35//35
f 37//37 67//67 38//38
f 40//40 59//59 41//41
f 10//10 12//12 53//53
f 13//13 15//15 54//54
f 16//16 18//18 55//55
f 19//19 21//21 56//56
f 7//7 9//9 57//57
f 73//73 74//74 75//75
f 76//76 77//77 78//78
f 79//79 80//80 81//81
f 82//82 83//83 84//84
f 85//85 86//86 87//87
f 88//88 89//89 90//90
f 91//91 92//92 93//93
f 94//94 95//95 96//96
f 97//97 98//98 99//99
f 100//100 101//101 102//102
f 103//103 104//104 105//105
f 106//106 107//107 108//108
f 109//109 110//110 111//111
f 112//112 113//113 114//114
f 115//115 116//116 117//117
f 88//88 118//118 119//119
f 91//91 120//120 121//121
f 94//94 122//122 123//123
f 97//97 124//124 125//125
f 100//100 126//126 127//127
f 128//128 129//129 2//2
f 130//130 131//131 3//3
f 132//132 133//133 4//4
f 134//134 135//135 5//5
f 136//136 137//137 6//6
f 76//76 138//138 8//8
f 73//73 139//139 11//11
f 85//85 140//140 14//14
f 82//82 141//141 17//17
f 79//79 142//142 20//20
f 143//143 144//144 23//23
f 145//145 146//146 24//24
f 147//147 148//148 25//25
f 149//149 150//150 26//26
f 151//151 152//152 27//27
f 103//103 153//153 29//29
f 106//106 154//154 32//32
f 109//109 155//155 35//35
f 112//112 156//156 38//38
f 115//115 157//157 41//41
f 73//73 75//75 43//43
f 76//76 78//78 45//45
f 79//79 81//81 47//47
f 82//82 84//84 49//49
f 85//85 87//87 51//51
f 88//88 90//90 53//53
f 91//91 93//93 54//54
f 94//94 96//96 55//55
f 97//97 99//99 56//56
f 100//100 102//102 57//57
f 103//103 105//105 58//58
f 106//106 108//108 60//60
f 109//109 111//111 62//62
f 112//112 114//114 64//64
f 115//115 117//117 66//66
f 88//88 119//119 68//68
f 91//91 121//121 69//69
f 94//94 123//123 70//70
f 97//97 125//125 71//71
f 100//100 127//127 72//72
f 130//130 74//74 46//46
f 132//132 77//77 48//48
f 134//134 80//80 50//50
f 136//136 83//83 52//52
f 128//128 86//86 44//44
f 158//158 89//89 42//42
f 159//159 92//92 30//30
f 160//160 95//95 33//33
f 161//161 98//98 36//36
f 162//162 101//101 39//39
f 145//145 104//104 61//61
f 147//147 107//107 63//63
f 149//149 110//110 65//65
f 151//151 113//113 67//67
f 143//143 116//116 59//59
f 159//159 118//118 12//12
f 160//160 120//120 15//15
f 161//161 122//122 18//18
f 162//162 124//124 21//21
f 158//158 126//126 9//9
f 130//130 129//129 74//74
f 132//132 131//131 77//77
f 134//134 133//133 80//80
f 136//136 135//135 83//83
f 128//128 137//137 86//86
f 158//158 138//138 89//89
f 159//159 139//139 92//92
f 160//160 140//140 95//95
f 161//161 141//141 98//98
f 162//162 142//142 101//101
f 145//145 144//144 104//104
f 147//147 146//146 107//107
f 149//149 148//148 110//110
f 151//151 150//150 113//113
f 143//143 152//152 116//116
f 159//159 153//153 118//118
f 160//160 154//154 120//120
f 161//161 155//155 122//122
f 162//162 156//156 124//124
f 158//158 157//157 126//126
f 130//130 3//3 129//129
f 132//132 4//4 131//131
f 134//134 5//5 133//133
f 136//136 6//6 135//135
f 128//128 2//2 137//137
f 158//158 9//9 138//138
f 159//159 12//12 139//139
f 160//160 15//15 140//140
f 161//161 18//18 141//141
f 162//162 21//21 142//142
f 145//145 24//24 144//144
f 147//147 25//25 146//146
f 149//149 26//26 148//148
f 151//151 27//27 150//150
f 143//143 23//23 152//152
f 159//159 30//30 153//153
f 160//160 33//33 154//154
f 161//161 36//36 155//155
f 162//162 39//39 156//156
f 158//158 42//42 157//157
f 128//128 44//44 75//75
f 130//130 46//46 78//78
f 132//132 48//48 81//81
f 134//134 50//50 84//84
f 136//136 52//52 87//87
f 76//76 45//45 90//90
f 73//73 43//43 93//93
f 85//85 51//51 96//96
f 82//82 49//49 99//99
f 79//79 47//47 102//102
f 143//143 59//59 105//105
f 145//145 61//61 108//108
f 147//147 63//63 111//111
f 149//149 65//65 114//114
f 151//151 67//67 117//117
f 103//103 58//58 119//119
f 106//106 60//60 121//121
f 109//109 62//62 123//123
f 112//112 64//64 125//125
f 115//115 66//66 127//127
f 73//73 11//11 74//74
f 76//76 8//8 77//77
f 79//79 20//20 80//80
f 82//82 17//17 83//83
f 85//85 14//14 86//86
f 88//88 68//68 89//89
f 91//91 69//69 92//92
f 94//94 70//70 95//95
f 97//97 71//71 98//98
f 100//100 72//72 101//101
f 103//103 29//29 104//104
f 106//106 32//32 107//107
f 109//109 35//35 110//110
f 112//112 38//38 113//113
f 115//115 41//41 116//116
f 88//88 53//53 118//118
f 91//91 54//54 120//120
f 94//94 55//55 122//122
f 97//97 56//56 124//124
f 100//100 57//57 126//126
f 128//128 75//75 129//129
f 130//130 78//78 131//131
f 132//132 81//81 133//133
f 134//134 84//84 135//135
f 136//136 87//87 137//137
f 76//76 90//90 138//138
f 73//73 93//93 139//139
f 85//85 96//96 140//140
f 82//82 99//99 141//141
f 79//79 102//102 142//142
f 143//143 105//105 144//144
f 145//145 108//108 146//146
f 147//147 111//111 148//148
f 149//149 114//114 150//150
f 151//151 117//117 152//152
f 103//103 119//119 153//153
f 106//106 121//121 154//154
f 109//109 123//123 155//155
f 112//112 125//125 156//156
f 115//115 127//127 157//157
f 129//129 3//3 2//2
f 131//131 4//4 3//3
f 133//133 5//5 4//4
f 135//135 6//6 5//5
f 137//137 2//2 6//6
f 138//138 9//9 8//8
f 139//139 12//12 11//11
f 140//140 15//15 14//14
f 141//141 18//18 17//17
f 142//142 21//21 20//20
f 144//144 24//24 23//23
f 146//146 25//25 24//24
f 148//148 26//26 25//25
f 150//150 27//27 26//26
f 152//152 23//23 27//27
f 153//153 30//30 29//29
f 154//154 33//33 32//32
f 155//155 36//36 35//35
f 156//156 39//39 38//38
f 157//157 42//42 41//41
f 75//75 44//44 43//43
f 78//78 46//46 45//45
f 81//81 48//48 47//47
f 84//84 50//50 49//49
f 87//87 52//52 51//51
f 90//90 45//45 53//53
f 93//93 43//43 54//54
f 96//96 51//51 55//55
f 99//99 49//49 56//56
f 102//102 47//47 57//57
f 105//105 59//59 58//58
f 108//108 61//61 60//60
f 111//111 63//63 62//62
f 114//114 65//65 64//64
f 117//117 67//67 66//66
f 119//119 58//58 68//68
f 121//121 60//60 69//69
f 123//123 62//62 70//70
f 125//125 64//64 71//71
f 127//127 66//66 72//72
f 74//74 11//11 46//46
f 77//77 8//8 48//48
f 80//80 20//20 50//50
f 83//83 17//17 52//52
f 86//86 14//14 44//44
f 89//89 68//68 42//42
f 92//92 69//69 30//30
f 95//95 70//70 33//33
f 98//98 71//71 36//36
f 101//101 72//72 39//39
f 104//104 29//29 61//61
f 107//107 32//32 63//63
f 110//110 35//35 65//65
f 113//113 38//38 67//67
f 116//116 41//41 59//59
f 118//118 53//53 12//12
f 120//120 54//54 15//15
f 122//122 55//55 18//18
f 124//124 56//56 21//21
f 126//126 57//57 9//9
f 129//129 75//75 74//74
f 131//131 78//78 77//77
f 133//133 81//81 80//80
f 135//135 84//84 83//83
f 137//137 87//87 86//86
f 138//138 90//90 89//89
f 139//139 93//93 92//92
f 140//140 96//96 95//95
f 141//141 99//99 98//98
f 142//142 102//102 101//101
f 144//144 105//105 104//104
f 146//146 108//108 107//107
f 148//148 111//111 110//110
f 150//150 114//114 113//113
f 152//152 117//117 116//116
f 153//153 119//119 118//118
f 154//154 121//121 120//120
f 155//155 123//123 122//122
f 156//156 125//125 124//124
f 157//157 127//127 126//126
