# Created by Open3D 
# object name: part_081
# number of vertices: 162
# number of triangles: 320
v 1.2504 1.92356 0.268497
vn 0.23813 -0.0383505 -0.970476
v 1.24863 1.90331 0.26933
vn 0.454874 -0.116811 -0.882861
v 1.24369 1.90365 0.267949
vn 0.153629 -0.0595287 -0.986334
v 1.24392 1.92487 0.267471
vn 0.0677748 0.00205793 -0.997699
v 1.25166 1.93768 0.268561
vn 0.17608 0.0356214 -0.983731
v 1.25623 1.93574 0.269913
vn 0.470141 -0.0639314 -0.880273
v 1.04623 1.9716 0.257321
vn -0.128523 0.0479258 -0.990548
v 1.04341 1.95078 0.256985
vn -0.0611161 -0.00899786 -0.99809
v 1.03872 1.9527 0.257839
vn -0.365311 0.0761843 -0.927763
v 1.1429 1.92506 0.265043
vn -0.217978 -0.963093 -0.157916
v 1.23798 1.90264 0.271229
vn -0.219748 -0.970485 -0.0993435
v 1.14266 1.92481 0.268299
vn -0.227589 -0.973394 -0.0266129
v 1.24735 1.9005 0.322406
vn 0.196194 -0.980546 0.00617714
v 1.24894 1.90135 0.322499
vn 0.938225 -0.342281 0.0507674
v 1.2449 1.90058 0.370402
vn 0.420794 -0.90623 0.0409772
v 1.2559 1.93702 0.323063
vn 0.611225 0.790543 0.0380225
v 1.25654 1.93823 0.277233
vn 0.40366 0.914623 0.022897
v 1.25143 1.93779 0.368687
vn 0.403214 0.914576 0.0311312
v 1.17296 1.95841 0.266886
vn 0.233694 0.964464 -0.123275
v 1.0612 1.98435 0.259313
vn 0.232196 0.922562 -0.308163
v 1.05669 1.98578 0.261503
vn 0.229427 0.971196 -0.0643576
v 1.04019 1.97108 0.365365
vn -0.238129 0.0383502 0.970476
v 1.0328 1.95219 0.363828
vn -0.46646 0.0673485 0.881975
v 1.03736 1.95025 0.365181
vn -0.171951 -0.0186814 0.984928
v 1.04657 1.96934 0.366383
vn -0.0677748 -0.00205793 0.997699
v 1.04533 1.98428 0.365792
vn -0.149795 0.0765696 0.985748
v 1.04039 1.98462 0.364412
vn -0.456637 0.121564 0.881309
v 1.13714 1.92456 0.36801
vn -0.233694 -0.964464 0.123271
v 1.04205 1.94692 0.361822
vn -0.234923 -0.969873 0.0644828
v 1.13727 1.92434 0.364744
vn -0.228607 -0.973483 -0.00838901
v 1.24436 1.92303 0.376541
vn 0.128524 -0.0479261 0.990548
v 1.23764 1.90312 0.376145
vn 0.0427931 -0.0692125 0.996684
v 1.2427 1.90279 0.375319
vn 0.353727 -0.125648 0.926871
v 1.16721 1.95791 0.369853
vn 0.217977 0.963092 0.157922
v 1.23662 1.94117 0.375104
vn 0.198955 0.917062 0.345564
v 1.24132 1.94052 0.372928
vn 0.226496 0.968829 0.100349
v 1.04167 1.98743 0.311335
vn -0.196194 0.980546 -0.00617714
v 1.04127 1.98724 0.357183
vn 0.0447166 0.998933 0.0115074
v 1.04639 1.98768 0.265729
vn 0.0451767 0.998974 0.00327167
v 1.03312 1.95091 0.310679
vn -0.611225 -0.790543 -0.0380225
v 1.03206 1.95238 0.310627
vn -0.992194 0.111967 -0.0549084
v 1.03573 1.95153 0.262695
vn -0.779164 -0.623069 -0.0684726
v 1.24775 1.90069 0.276558
vn -0.0447166 -0.998933 -0.0115074
v 1.25026 1.90105 0.274439
vn 0.42322 -0.906023 -0.0026511
v 1.0524 1.94677 0.258638
vn -0.199101 -0.917893 -0.343266
v 1.23373 1.9041 0.268564
vn -0.195497 -0.918738 -0.343077
v 1.05138 1.98481 0.257597
vn -0.0390572 0.0862448 -0.995508
v 1.05269 1.96987 0.257003
vn 0.0438247 0.00769193 -0.99901
v 1.24697 1.94101 0.271919
vn 0.235742 0.969635 -0.0650722
v 1.24254 1.94168 0.26924
vn 0.235723 0.920273 -0.312301
v 1.25696 1.93555 0.323114
vn 0.99659 -0.0611485 0.0554022
v 1.25865 1.93687 0.275083
vn 0.781605 0.623279 0.0248473
v 1.0477 1.94741 0.260813
vn -0.225748 -0.969073 -0.0996728
v 1.24263 1.90025 0.368012
vn -0.0451767 -0.998974 -0.00327167
v 1.25329 1.9364 0.371046
vn 0.779164 0.623069 0.0684726
v 1.1731 1.95857 0.270165
vn 0.228607 0.973483 0.00838898
v 1.04632 1.98514 0.258422
vn -0.355649 0.130385 -0.92548
v 1.03248 1.9497 0.356508
vn -0.40366 -0.914623 -0.022897
v 1.03037 1.95106 0.358658
vn -0.781605 -0.623279 -0.0248473
v 1.22782 1.90358 0.374428
vn -0.232011 -0.921939 0.31016
v 1.04648 1.94625 0.364501
vn -0.235614 -0.921095 0.309952
v 1.24561 1.93715 0.376756
vn 0.0653444 0.0259463 0.997525
v 1.23781 1.92434 0.376852
vn -0.0438245 -0.00769196 0.99901
v 1.05104 1.98529 0.362512
vn 0.220298 0.970399 0.0989705
v 1.05529 1.98383 0.365177
vn 0.195908 0.919392 0.341083
v 1.04008 1.98658 0.311242
vn -0.919592 0.389745 -0.0494942
v 1.03876 1.98688 0.359302
vn -0.42322 0.906023 0.0026511
v 1.03759 1.95014 0.265054
vn -0.403214 -0.914576 -0.0311312
v 1.23233 1.90215 0.372238
vn -0.228921 -0.971286 0.06479
v 1.2503 1.93523 0.375902
vn 0.369161 -0.0727529 0.926514
v 1.16771 1.9581 0.36661
vn 0.227589 0.973394 0.026613
v 1.04412 1.98735 0.263339
vn -0.420794 0.90623 -0.0409772
v 1.24434 1.90124 0.273269
vn -0.166084 -0.985703 -0.0283839
v 1.24297 1.90195 0.269943
vn -0.134169 -0.951445 -0.27704
v 1.24787 1.90107 0.271875
vn 0.0122094 -0.98009 -0.198179
v 1.04646 1.94884 0.257493
vn -0.131651 -0.668943 -0.731562
v 1.0528 1.94856 0.256967
vn 0.0440739 -0.0340372 -0.998448
v 1.14325 1.92597 0.26252
vn -0.115631 -0.663395 -0.739281
v 1.05497 1.98517 0.258147
vn 0.186784 0.680593 -0.708452
v 1.1719 1.95776 0.264277
vn 0.196935 0.670528 -0.715269
v 1.06078 1.98263 0.25758
vn 0.0675387 0.0667363 -0.995482
v 1.25328 1.93936 0.273955
vn 0.289203 0.957245 0.00655051
v 1.25652 1.938 0.272539
vn 0.447791 0.878829 -0.164753
v 1.25176 1.93946 0.270617
vn 0.30455 0.920884 -0.243353
v 1.25421 1.92193 0.322894
vn 0.972036 -0.228725 0.0532116
v 1.25171 1.90248 0.274472
vn 0.966866 -0.254717 0.0169894
v 1.25932 1.93495 0.275056
vn 0.980041 -0.197963 0.0181594
v 1.0412 1.94904 0.262148
vn -0.287594 -0.957111 -0.0350356
v 1.03813 1.95043 0.260394
vn -0.426179 -0.876925 -0.222203
v 1.04308 1.94898 0.259001
vn -0.275043 -0.918293 -0.284761
v 1.23889 1.90077 0.370907
vn -0.167673 -0.985843 0.000106017
v 1.23266 1.90196 0.367515
vn -0.225168 -0.974197 -0.0154538
v 1.2421 1.90079 0.322114
vn -0.168404 -0.985615 -0.0142256
v 1.25228 1.93595 0.374243
vn 0.788183 0.0218507 0.615053
v 1.24957 1.92203 0.374282
vn 0.765651 -0.190456 0.614415
v 1.25395 1.93448 0.371128
vn 0.976069 -0.198309 0.0892361
v 1.1705 1.95839 0.318394
vn 0.228107 0.973479 0.0175031
v 1.24174 1.9407 0.368212
vn 0.231853 0.972553 0.0196023
v 1.24685 1.94115 0.276654
vn 0.232065 0.972572 0.015825
v 1.04485 1.98661 0.260121
vn -0.691545 0.390577 -0.607631
v 1.04678 1.98735 0.261057
vn 0.0094127 0.981977 -0.188764
v 1.04843 1.98639 0.258652
vn -0.0256573 0.773611 -0.633141
v 1.03574 1.94857 0.359787
vn -0.289203 -0.957245 -0.00655051
v 1.03726 1.94847 0.363124
vn -0.30455 -0.920884 0.243353
v 1.0325 1.94993 0.361202
vn -0.447791 -0.878829 0.164753
v 1.23405 1.90276 0.375595
vn -0.184985 -0.682351 0.707232
v 1.22824 1.90531 0.376161
vn -0.0625766 -0.0449252 0.997029
v 1.13721 1.92544 0.370564
vn -0.196935 -0.670528 0.715269
v 1.24256 1.93909 0.376248
vn 0.135083 0.670101 0.729874
v 1.16587 1.95723 0.372321
vn 0.115631 0.663395 0.739281
v 1.23622 1.93937 0.376774
vn -0.0405094 0.0485904 0.997997
v 1.04468 1.98669 0.360472
vn 0.166084 0.985703 0.0283839
v 1.04115 1.98686 0.361866
vn -0.0122094 0.98009 0.198179
v 1.04605 1.98598 0.363798
vn 0.134169 0.951445 0.27704
v 1.03649 1.97316 0.310976
vn -0.972036 0.228725 -0.0532116
v 1.0297 1.95298 0.358686
vn -0.979236 0.201927 -0.0179415
v 1.03731 1.98545 0.359269
vn -0.965826 0.258629 -0.0170704
v 1.04728 1.94723 0.265529
vn -0.231045 -0.972747 -0.0195528
v 1.03794 1.94883 0.310938
vn -0.286964 -0.957717 -0.0207143
v 1.24224 1.90058 0.372684
vn -0.0094127 -0.981977 0.188764
v 1.23715 1.90144 0.374066
vn -0.163676 -0.954029 0.251076
v 1.25089 1.9375 0.373348
vn 0.426179 0.876925 0.222203
v 1.24897 1.93729 0.375732
vn 0.361495 0.659636 0.65894
v 1.05636 1.98597 0.266226
vn 0.225696 0.974075 0.0154868
v 1.05124 1.98553 0.357784
vn 0.225486 0.974056 0.0192436
v 1.0411 1.97294 0.259586
vn -0.765651 0.190456 -0.614415
v 1.04268 1.98592 0.263197
vn -0.961853 0.258976 -0.0881428
v 1.2499 1.90182 0.271167
vn 0.780456 -0.328297 -0.53208
v 1.24651 1.90206 0.269311
vn 0.0964868 -0.767382 -0.633889
v 1.24006 1.90328 0.268091
vn -0.104651 -0.675326 -0.730057
v 1.23434 1.90584 0.266905
vn 0.0489393 -0.0351818 -0.998182
v 1.14842 1.94781 0.262032
vn 0.0558039 0.00487525 -0.99843
v 1.24233 1.93991 0.267518
vn 0.0709256 0.0583237 -0.995775
v 1.24857 1.93962 0.268745
vn 0.215217 0.677143 -0.703676
v 1.25488 1.93781 0.269954
vn 0.432308 0.665812 -0.608115
v 1.25801 1.93645 0.27179
vn 0.851807 0.0274028 -0.523139
v 1.25533 1.92253 0.271314
vn 0.829451 -0.184883 -0.527096
v 1.04005 1.95064 0.258009
vn -0.361495 -0.659636 -0.65894
v 1.23778 1.9024 0.275957
vn -0.224958 -0.974179 -0.0192187
v 1.24634 1.90201 0.370545
vn 0.962876 -0.255066 0.0883773
v 1.25108 1.9391 0.322803
vn 0.286964 0.957717 0.0207143
v 1.05187 1.98649 0.259675
vn 0.163676 0.954029 -0.251076
v 1.03101 1.95148 0.361951
vn -0.849299 0.0345513 0.52678
v 1.03414 1.95012 0.363787
vn -0.432308 -0.665812 0.608115
v 1.04045 1.94831 0.364996
vn -0.211996 -0.676005 0.705745
v 1.04669 1.94802 0.366223
vn -0.0674421 -0.0437802 0.996762
v 1.14228 1.94727 0.371838
vn -0.0558039 -0.00487524 0.99843
v 1.05468 1.98209 0.366836
vn -0.0438471 0.0570064 0.997411
v 1.04896 1.98465 0.36565
vn 0.106303 0.673556 0.731452
v 1.04251 1.98587 0.36443
vn -0.0964868 0.767382 0.633889
v 1.03912 1.98611 0.362574
vn -0.755154 0.385012 0.530573
v 1.03534 1.97244 0.362554
vn -0.829451 0.184883 0.527096
v 1.04217 1.94678 0.357087
vn -0.231256 -0.972765 -0.0157861
v 1.24059 1.90154 0.375089
vn 0.0256573 -0.773611 0.633141
v 1.24594 1.93895 0.37474
vn 0.275043 0.918293 0.284761
v 1.04692 1.98714 0.311627
vn 0.168404 0.985615 0.0142256
v 1.03507 1.95345 0.262613
vn -0.975247 0.202275 -0.0893244
v 1.03674 1.95198 0.259499
vn -0.785321 0.0401354 -0.617787
v 1.13995 1.9245 0.316521
vn -0.228107 -0.973479 -0.0175032
v 1.24417 1.90132 0.37362
vn 0.716491 -0.333891 0.612501
v 1.24782 1.93889 0.371593
vn 0.287594 0.957111 0.0350356
v 1.05013 1.98717 0.262834
vn 0.167673 0.985843 -0.000106017
f 1//1 2//2 3//3
f 1//1 3//3 4//4
f 1//1 4//4 5//5
f 1//1 5//5 6//6
f 1//1 6//6 2//2
f 7//7 8//8 9//9
f 10//10 11//11 12//12
f 13//13 14//14 15//15
f 16//16 17//17 18//18
f 19//19 20//20 21//21
f 22//22 23//23 24//24
f 22//22 24//24 25//25
f 22//22 25//25 26//26
f 22//22 26//26 27//27
f 22//22 27//27 23//23
f 28//28 29//29 30//30
f 31//31 32//32 33//33
f 34//34 35//35 36//36
f 37//37 38//38 39//39
f 40//40 41//41 42//42
f 13//13 43//43 44//44
f 10//10 45//45 46//46
f 7//7 47//47 48//48
f 19//19 49//49 50//50
f 16//16 51//51 52//52
f 10//10 53//53 45//45
f 13//13 54//54 43//43
f 16//16 55//55 51//51
f 19//19 56//56 49//49
f 7//7 57//57 47//47
f 40//40 58//58 59//59
f 28//28 60//60 61//61
f 31//31 62//62 63//63
f 34//34 64//64 65//65
f 37//37 66//66 67//67
f 40//40 68//68 58//58
f 28//28 69//69 60//60
f 31//31 70//70 62//62
f 34//34 71//71 64//64
f 37//37 72//72 66//66
f 10//10 46//46 11//11
f 7//7 48//48 8//8
f 19//19 50//50 20//20
f 16//16 52//52 17//17
f 13//13 44//44 14//14
f 40//40 42//42 68//68
f 28//28 30//30 69//69
f 31//31 33//33 70//70
f 34//34 36//36 71//71
f 37//37 39//39 72//72
f 28//28 61//61 29//29
f 31//31 63//63 32//32
f 34//34 65//65 35//35
f 37//37 67//67 38//38
f 40//40 59//59 41//41
f 10//10 12//12 53//53
f 13//13 15//15 54//54
f 16//16 18//18 55//55
f 19//19 21//21 56//56
f 7//7 9//9 57//57
f 73//73 74//74 75//75
f 76//76 77//77 78//78
f 79//79 80//80 81//81
f 82//82 83//83 84//84
f 85//85 86//86 87//87
f 88//88 89//89 90//90
f 91//91 92//92 93//93
f 94//94 95//95 96//96
f 97//97 98//98 99//99
f 100//100 101//101 102//102
f 103//103 104//104 105//105
f 106//106 107//107 108//108
f 109//109 110//110 111//111
f 112//112 113//113 114//114
f 115//115 116//116 117//117
f 88//88 118//118 119//119
f 91//91 120//120 121//121
f 94//94 122//122 123//123
f 97//97 124//124 125//125
f 100//100 126//126 127//127
f 128//128 129//129 2//2
f 130//130 131//131 3//3
f 132//132 133//133 4//4
f 134//134 135//135 5//5
f 136//136 137//137 6//6
f 76//76 138//138 8//8
f 73//73 139//139 11//11
f 85//85 140//140 14//14
f 82//82 141//141 17//17
f 79//79 142//142 20//20
f 143//143 144//144 23//23
f 145//145 146//146 24//24
f 147//147 148//148 25//25
f 149//149 150//150 26//26
f 151//151 152//152 27//27
f 103//103 153//153 29//29
f 106//106 154//154 32//32
f 109//109 155//155 35//35
f 112//112 156//156 38//38
f 115//115 157//157 41//41
f 73//73 75//75 43//43
f 76//76 78//78 45//45
f 79//79 81//81 47//47
f 82//82 84//84 49//49
f 85//85 87//87 51//51
f 88//88 90//90 53//53
f 91//91 93//93 54//54
f 94//94 96//96 55//55
f 97//97 99//99 56//56
f 100//100 102//102 57//57
f 103//103 105//105 58//58
f 106//106 108//108 60//60
f 109//109 111//111 62//62
f 112//112 114//114 64//64
f 115//115 117//117 66//66
f 88//88 119//119 68//68
f 91//91 121//121 69//69
f 94//94 123//123 70//70
f 97//97 125//125 71//71
f 100//100 127//127 72//72
f 130//130 74//74 46//46
f 132//132 77//77 48//48
f 134//134 80//80 50//50
f 136//136 83//83 52//52
f 128//128 86//86 44//44
f 158//158 89//89 42//42
f 159//159 92//92 30//30
f 160//160 95//95 33//33
f 161//161 98//98 36//36
f 162//162 101//101 39//39
f 145//145 104//104 61//61
f 147//147 107//107 63//63
f 149//149 110//110 65//65
f 151//151 113//113 67//67
f 143//143 116//116 59//59
f 159//159 118//118 12//12
f 160//160 120//120 15//15
f 161//161 122//122 18//18
f 162//162 124//124 21//21
f 158//158 126//126 9//9
f 130//130 129//129 74//74
f 132//132 131//131 77//77
f 134//134 133//133 80//80
f 136//136 135//135 83//83
f 128//128 137//137 86//86
f 158//158 138//138 89//89
f 159//159 139//139 92//92
f 160//160 140//140 95//95
f 161//161 141//141 98//98
f 162//162 142//142 101//101
f 145//145 144//144 104//104
f 147//147 146//146 107//107
f 149//149 148//148 110//110
f 151//151 150//150 113//113
f 143//143 152//152 116//116
f 159//159 153//153 118//118
f 160//160 154//154 120//120
f 161//161 155//155 122//122
f 162//162 156//156 124//124
f 158//158 157//157 126//126
f 130//130 3//3 129//129
f 132//132 4//4 131//131
f 134//134 5//5 133//133
f 136//136 6//6 135//135
f 128//128 2//2 137//137
f 158//158 9//9 138//138
f 159//159 12//12 139//139
f 160//160 15//15 140//140
f 161//161 18//18 141//141
f 162//162 21//21 142//142
f 145//145 24//24 144//144
f 147//147 25//25 146//146
f 149//149 26//26 148//148
f 151//151 27//27 150//150
f 143//143 23//23 152//152
f 159//159 30//30 153//153
f 160//160 33//33 154//154
f 161//161 36//36 155//155
f 162//162 39//39 156//156
f 158//158 42//42 157//157
f 128//128 44//44 75//75
f 130//130 46//46 78//78
f 132//132 48//48 81//81
f 134//134 50//50 84//84
f 136//136 52//52 87//87
f 76//76 45//45 90//90
f 73//73 43//43 93//93
f 85//85 51//51 96//96
f 82//82 49//49 99//99
f 79//79 47//47 102//102
f 143//143 59//59 105//105
f 145//145 61//61 108//108
f 147//147 63//63 111//111
f 149//149 65//65 114//114
f 151//151 67//67 117//117
f 103//103 58//58 119//119
f 106//106 60//60 121//121
f 109//109 62//62 123//123
f 112//112 64//64 125//125
f 115//115 66//66 127//127
f 73//73 11//11 74//74
f 76//76 8//8 77//77
f 79//79 20//20 80//80
f 82//82 17//17 83//83
f 85//85 14//14 86//86
f 88//88 68//68 89//89
f 91//91 69//69 92//92
f 94//94 70//70 95//95
f 97//97 71//71 98//98
f 100//100 72//72 101//101
f 103//103 29//29 104//104
f 106//106 32//32 107//107
f 109//109 35//35 110//110
f 112//112 38//38 113//113
f 115//115 41//41 116//116
f 88//88 53//53 118//118
f 91//91 54//54 120//120
f 94//94 55//55 122//122
f 97//97 56//56 124//124
f 100//100 57//57 126//126
f 128//128 75//75 129//129
f 130//130 78//78 131//131
f 132//132 81//81 133//133
f 134//134 84//84 135//135
f 136//136 87//87 137//137
f 76//76 90//90 138//138
f 73//73 93//93 139//139
f 85//85 96//96 140//140
f 82//82 99//99 141//141
f 79//79 102//102 142//142
f 143//143 105//105 144//144
f 145//145 108//108 146//146
f 147//147 111//111 148//148
f 149//149 114//114 150//150
f 151//151 117//117 152//152
f 103//103 119//119 153//153
f 106//106 121//121 154//154
f 109//109 123//123 155//155
f 112//112 125//125 156//156
f 115//115 127//127 157//157
f 129//129 3//3 2//2
f 131//131 4//4 3//3
f 133//133 5//5 4//4
f 135//135 6//6 5//5
f 137//137 2//2 6//6
f 138//138 9//9 8//8
f 139//139 12//12 11//11
f 140//140 15//15 14//14
f 141//141 18//18 17//17
f 142//142 21//21 20//20
f 144//144 24//24 23//23
f 146//146 25//25 24//24
f 148//148 26//26 25//25
f 150//150 27//27 26//26
f 152//152 23//23 27//27
f 153//153 30//30 29//29
f 154//154 33//33 32//32
f 155//155 36//36 35//35
f 156//156 39//39 38//38
f 157//157 42//42 41//41
f 75//75 44//44 43//43
f 78//78 46//46 45//45
f 81//81 48//48 47//47
f 84//84 50//50 49//49
f 87//87 52//52 51//51
f 90//90 45//45 53//53
f 93//93 43//43 54//54
f 96//96 51//51 55//55
f 99//99 49//49 56//56
f 102//102 47//47 57//57
f 105//105 59//59 58//58
f 108//108 61//61 60//60
f 111//111 63//63 62//62
f 114//114 65//65 64//64
f 117//117 67//67 66//66
f 119//119 58//58 68//68
f 121//121 60//60 69//69
f 123//123 62//62 70//70
f 125//125 64//64 71//71
f 127//127 66//66 72//72
f 74//74 11//11 46//46
f 77//77 8//8 48//48
f 80//80 20//20 50//50
f 83//83 17//17 52//52
f 86//86 14//14 44//44
f 89//89 68//68 42//42
f 92//92 69//69 30//30
f 95//95 70//70 33//33
f 98//98 71//71 36//36
f 101//101 72//72 39//39
f 104//104 29//29 61//61
f 107//107 32//32 63//63
f 110//110 35//35 65//65
f 113//113 38//38 67//67
f 116//116 41//41 59//59
f 118//118 53//53 12//12
f 120//120 54//54 15//15
f 122//122 55//55 18//18
f 124//124 56//56 21//21
f 126//126 57//57 9//9
f 129//129 75//75 74//74
f 131//131 78//78 77//77
f 133//133 81//81 80//80
f 135//135 84//84 83//83
f 137//137 87//87 86//86
f 138//138 90//90 89//89
f 139//139 93//93 92//92
f 140//140 96//96 95//95
f 141//141 99//99 98//98
f 142//142 102//102 101//101
f 144//144 105//105 104//104
f 146//146 108//108 107//107
f 148//148 111//111 110//110
f 150//150 114//114 113//113
f 152//152 117//117 116//116
f 153//153 119//119 118//118
f 154//154 121//121 120//120
f 155//155 123//123 122//122
f 156//156 125//125 124//124
f 157//157 127//127 126//126
