# Created by Open3D 
# object name: part_020
# number of vertices: 162
# number of triangles: 320
v 1.37496 3.92846 1.65675
vn 0.647424 -0.624875 0.436318
v 1.35843 3.91748 1.66271
vn 0.46716 -0.46787 0.75024
v 1.35982 3.91377 1.65629
vn 0.587899 -0.75023 0.302539
v 1.37584 3.9258 1.64788
vn 0.68673 -0.721203 0.090935
v 1.38522 3.9375 1.65256
vn 0.784337 -0.557698 0.27164
v 1.38264 3.94009 1.65916
vn 0.5559 -0.380152 0.739229
v 1.36543 3.89393 1.37188
vn 0.622251 -0.71609 -0.316256
v 1.35047 3.8799 1.37683
vn 0.572665 -0.805423 -0.152806
v 1.34863 3.88198 1.36982
vn 0.420458 -0.637101 -0.646001
v 1.3483 3.90088 1.5163
vn -0.692482 -0.713063 0.109589
v 1.35076 3.91902 1.64886
vn -0.707001 -0.698512 0.110594
v 1.34159 3.90762 1.51571
vn -0.724607 -0.680843 0.106759
v 1.25076 4.02863 1.6559
vn -0.678803 -0.605521 0.415418
v 1.25169 4.02966 1.65762
vn -0.0840598 0.0096233 0.996414
v 1.15484 4.13049 1.64698
vn -0.618827 -0.521967 0.587029
v 1.27802 4.05408 1.6519
vn 0.699844 0.681728 0.213227
v 1.36998 3.95728 1.65767
vn 0.725496 0.687596 0.0294556
v 1.18664 4.15092 1.64034
vn 0.723541 0.689661 0.029267
v 1.37789 3.93115 1.54153
vn 0.75931 0.642482 -0.103271
v 1.37531 3.90893 1.38591
vn 0.802019 0.588947 -0.0995337
v 1.37052 3.91359 1.37917
vn 0.7457 0.657708 -0.106547
v 1.14883 4.1227 1.3514
vn -0.647426 0.624879 -0.436308
v 1.13615 4.1064 1.34973
vn -0.551346 0.389269 -0.737894
v 1.13356 4.10899 1.35632
vn -0.753697 0.595427 -0.278224
v 1.14763 4.12506 1.36031
vn -0.686726 0.721205 -0.090937
v 1.15897 4.13271 1.35259
vn -0.54794 0.778423 -0.306298
v 1.16036 4.129 1.34618
vn -0.458118 0.471455 -0.753564
v 1.14188 4.1189 1.49678
vn -0.759312 -0.642481 0.10327
v 1.13938 4.10071 1.36422
vn -0.745931 -0.658099 0.102431
v 1.14824 4.11183 1.49742
vn -0.7289 -0.676309 0.106353
v 1.15836 4.15723 1.63627
vn -0.622253 0.716088 0.316257
v 1.14291 4.14286 1.63578
vn -0.738472 0.650608 0.177112
v 1.14594 4.1419 1.64261
vn -0.504643 0.558494 0.658347
v 1.17147 4.14917 1.52201
vn 0.692467 0.713077 -0.10959
v 1.17154 4.16375 1.61886
vn 0.640203 0.760003 -0.111962
v 1.17691 4.15964 1.62552
vn 0.707009 0.699289 -0.105518
v 1.26802 4.01785 1.35298
vn 0.678802 0.60552 -0.41542
v 1.17683 4.11537 1.3471
vn 0.714516 0.656956 -0.240575
v 1.36017 3.92174 1.36444
vn 0.716473 0.654893 -0.240379
v 1.24076 3.9924 1.35698
vn -0.699841 -0.681727 -0.213239
v 1.24156 3.99298 1.355
vn -0.149571 -0.227766 -0.96216
v 1.33721 3.89102 1.36583
vn -0.640631 -0.653996 -0.402345
v 1.34195 3.93111 1.66178
vn -0.714514 -0.656953 0.240588
v 1.34722 3.92731 1.66517
vn -0.607487 -0.533935 0.58811
v 1.34725 3.88273 1.39002
vn -0.640891 -0.759411 0.112045
v 1.35571 3.9134 1.64304
vn -0.640803 -0.759063 0.114872
v 1.37587 3.90362 1.37311
vn 0.769169 -0.612653 -0.181757
v 1.36692 3.89346 1.38105
vn 0.684982 -0.727528 0.0387766
v 1.3794 3.94577 1.64467
vn 0.746093 0.65801 -0.101822
v 1.38377 3.9396 1.63893
vn 0.803152 0.587899 -0.0965526
v 1.27722 4.0535 1.65388
vn 0.197953 0.271752 0.941788
v 1.37396 3.95227 1.66125
vn 0.651968 0.642026 0.403411
v 1.34188 3.88684 1.38337
vn -0.707149 -0.699059 0.1061
v 1.15861 4.12475 1.64445
vn -0.716471 -0.65489 0.240393
v 1.18158 4.15546 1.64306
vn 0.640637 0.654002 0.402325
v 1.37154 3.93827 1.54125
vn 0.7289 0.676309 -0.106353
v 1.37284 3.90459 1.36627
vn 0.509027 -0.550001 -0.66211
v 1.1488 4.08921 1.35121
vn -0.725497 -0.687596 -0.0294416
v 1.14482 4.09421 1.34763
vn -0.651968 -0.642026 -0.403412
v 1.14348 4.13755 1.62297
vn -0.80249 -0.588297 0.0995833
v 1.13502 4.10688 1.36995
vn -0.802592 -0.58863 0.0967537
v 1.16832 4.16658 1.63205
vn -0.532783 0.833373 0.147077
v 1.15656 4.1574 1.62714
vn -0.684982 0.727527 -0.0387782
v 1.16802 4.12746 1.36002
vn 0.707105 0.698469 -0.110196
v 1.16308 4.13308 1.36584
vn 0.641424 0.758561 -0.11472
v 1.2671 4.01682 1.35126
vn 0.133323 0.0375628 -0.990361
v 1.17156 4.11918 1.34371
vn 0.607492 0.533941 -0.588098
v 1.33215 3.89557 1.36855
vn -0.723541 -0.689661 -0.0292528
v 1.14826 4.13289 1.62972
vn -0.745782 -0.657552 0.106928
v 1.17015 4.1645 1.63906
vn -0.411246 0.641297 0.647777
v 1.17819 4.14247 1.52296
vn 0.724607 0.680843 -0.106758
v 1.36395 3.91599 1.36191
vn 0.618827 0.521968 -0.587029
v 1.34777 3.92377 1.65751
vn -0.721109 -0.675904 0.15217
v 1.35443 3.91684 1.65582
vn -0.656347 -0.735883 0.166386
v 1.35155 3.92139 1.66234
vn -0.6619 -0.696243 0.277729
v 1.34907 3.8804 1.38155
vn -0.455394 -0.883662 0.108433
v 1.35195 3.88035 1.39001
vn 0.595681 -0.800015 0.0716914
v 1.35406 3.89613 1.51668
vn -0.447911 -0.88567 0.122329
v 1.3762 3.90572 1.37758
vn 0.914593 0.394185 -0.0902031
v 1.38226 3.92498 1.54072
vn 0.917744 0.389458 -0.0779015
v 1.37739 3.9041 1.38628
vn 0.806095 -0.590491 0.0391273
v 1.37623 3.95034 1.65334
vn 0.730865 0.679817 -0.0607108
v 1.37912 3.94712 1.6583
vn 0.767028 0.637978 0.0682014
v 1.38243 3.94299 1.65171
vn 0.788577 0.613253 -0.0454746
v 1.26714 4.04415 1.65595
vn 0.0331866 0.120258 0.992188
v 1.34863 3.92854 1.66646
vn 0.0177106 0.0828613 0.996404
v 1.37287 3.95117 1.66291
vn 0.0755553 0.136954 0.987692
v 1.33829 3.88941 1.37406
vn -0.724147 -0.686913 0.0613402
v 1.34176 3.88591 1.36969
vn -0.673187 -0.737089 -0.0593185
v 1.3451 3.88303 1.37691
vn -0.659983 -0.749067 0.0576295
v 1.15203 4.1305 1.639
vn -0.727828 -0.668807 0.151538
v 1.1576 4.12278 1.63078
vn -0.727122 -0.677833 0.108787
v 1.24985 4.02715 1.64898
vn -0.724551 -0.672534 0.150747
v 1.17459 4.1618 1.64155
vn 0.0604316 0.547819 0.834411
v 1.16381 4.15282 1.64376
vn -0.181374 0.339197 0.923065
v 1.18027 4.15459 1.6447
vn 0.0526677 0.161125 0.985528
v 1.27493 4.04044 1.53221
vn 0.726757 0.678579 -0.106556
v 1.18652 4.14978 1.62654
vn 0.726405 0.679395 -0.103722
v 1.37008 3.95592 1.6439
vn 0.727295 0.678455 -0.103638
v 1.37004 3.90882 1.36355
vn 0.414493 -0.10438 -0.904046
v 1.36933 3.91165 1.36565
vn 0.75576 0.597122 -0.268835
v 1.37395 3.90626 1.36847
vn 0.862452 0.408301 -0.299112
v 1.14255 4.09614 1.35555
vn -0.730865 -0.679817 0.0607095
v 1.13636 4.1035 1.35717
vn -0.788584 -0.613244 0.0454642
v 1.13967 4.09936 1.35058
vn -0.767034 -0.637972 -0.0681963
v 1.14259 4.14076 1.63131
vn -0.914027 -0.395001 0.0923533
v 1.1414 4.14238 1.6226
vn -0.766615 0.640412 -0.0466288
v 1.13746 4.1249 1.4962
vn -0.917747 -0.38945 0.0779002
v 1.16971 4.16609 1.62733
vn 0.456962 0.883209 -0.105486
v 1.16566 4.15375 1.52024
vn 0.447929 0.885661 -0.122329
v 1.16683 4.16613 1.61888
vn -0.560655 0.824588 -0.0756309
v 1.17101 4.12272 1.35137
vn 0.721109 0.675904 -0.15217
v 1.16723 4.1251 1.34654
vn 0.6619 0.696243 -0.27773
v 1.16436 4.12964 1.35307
vn 0.65634 0.735891 -0.166381
v 1.25698 4.00732 1.35215
vn -0.033187 -0.120258 -0.992188
v 1.14592 4.09532 1.34597
vn -0.0715971 -0.133176 -0.988503
v 1.17016 4.11795 1.34242
vn -0.0136362 -0.0791397 -0.99677
v 1.33226 3.8967 1.38234
vn -0.726388 -0.679321 0.104325
v 1.24033 3.99262 1.3641
vn -0.727514 -0.683272 0.0621456
v 1.14946 4.13483 1.64323
vn -0.755762 -0.597123 0.268828
v 1.14568 4.1373 1.63608
vn -0.784934 -0.600079 0.154217
v 1.17702 4.16057 1.63919
vn 0.673184 0.737091 0.059328
v 1.17152 4.16514 1.63649
vn 0.497662 0.861622 0.0996973
v 1.36119 3.92371 1.3781
vn 0.727136 0.677883 -0.108393
v 1.17763 4.11757 1.36074
vn 0.726251 0.678817 -0.108477
v 1.36023 3.89857 1.36436
vn 0.181373 -0.339197 -0.923065
v 1.36276 3.91453 1.36063
vn 0.00924991 -0.103312 -0.994606
v 1.35414 3.92074 1.66476
vn 0.0699378 -0.272073 0.959732
v 1.3569 3.91626 1.66046
vn -0.48311 -0.80894 0.334994
v 1.35811 3.91314 1.65169
vn -0.454488 -0.880339 0.135809
v 1.36043 3.91105 1.64332
vn 0.596036 -0.798736 0.0822248
v 1.37213 3.90949 1.51446
vn 0.686093 -0.724615 0.0648787
v 1.38586 3.9348 1.63959
vn 0.793798 -0.605915 0.0524495
v 1.38523 3.93847 1.64771
vn 0.914331 0.400158 -0.0622333
v 1.38358 3.94118 1.65655
vn 0.876993 0.460982 0.135566
v 1.37999 3.94487 1.66097
vn 0.473948 0.11107 0.87352
v 1.37023 3.9348 1.66328
vn 0.24447 -0.110555 0.963334
v 1.34726 3.88134 1.37239
vn -0.497651 -0.86163 -0.0996888
v 1.34115 3.92892 1.64814
vn -0.726235 -0.67877 0.108871
v 1.15603 4.13195 1.64825
vn -0.0052784 0.107142 0.99423
v 1.27846 4.05386 1.64478
vn 0.727514 0.683272 -0.0621514
v 1.3731 3.90918 1.37281
vn 0.784935 0.600079 -0.154213
v 1.1388 4.10161 1.34791
vn -0.413053 -0.0482995 -0.909425
v 1.1352 4.10531 1.35233
vn -0.876985 -0.461002 -0.135551
v 1.13355 4.10802 1.36117
vn -0.914956 -0.398288 0.0649745
v 1.13292 4.11168 1.36929
vn -0.766965 0.639138 -0.0571641
v 1.15199 4.14198 1.49364
vn -0.686091 0.724617 -0.0648787
v 1.15836 4.13543 1.36557
vn -0.543412 0.834789 -0.0884863
v 1.16068 4.13334 1.3572
vn 0.453549 0.88113 -0.133804
v 1.16189 4.13023 1.34842
vn 0.483097 0.80895 -0.334989
v 1.16465 4.12575 1.34412
vn 0.000973624 0.332374 -0.943147
v 1.15381 4.11659 1.34484
vn -0.244471 0.110556 -0.963334
v 1.14871 4.09056 1.36498
vn -0.727274 -0.678385 0.104241
v 1.14484 4.14022 1.64041
vn -0.862448 -0.408315 0.299102
v 1.17369 4.16345 1.63197
vn 0.659994 0.749056 -0.0576453
v 1.26893 4.01933 1.35991
vn 0.724551 0.672534 -0.150741
v 1.33852 3.8919 1.36419
vn -0.0486084 -0.157456 -0.986329
v 1.34419 3.88469 1.36734
vn 0.00874933 -0.49379 -0.869537
v 1.24486 4.00967 1.50657
vn -0.726757 -0.67858 0.106556
v 1.14875 4.13766 1.64534
vn -0.351867 0.17342 0.919845
v 1.18049 4.15707 1.63483
vn 0.724146 0.686912 -0.061352
v 1.36675 3.91598 1.36988
vn 0.727827 0.66881 -0.151528
f 1//1 2//2 3//3
f 1//1 3//3 4//4
f 1//1 4//4 5//5
f 1//1 5//5 6//6
f 1//1 6//6 2//2
f 7//7 8//8 9//9
f 10//10 11//11 12//12
f 13//13 14//14 15//15
f 16//16 17//17 18//18
f 19//19 20//20 21//21
f 22//22 23//23 24//24
f 22//22 24//24 25//25
f 22//22 25//25 26//26
f 22//22 26//26 27//27
f 22//22 27//27 23//23
f 28//28 29//29 30//30
f 31//31 32//32 33//33
f 34//34 35//35 36//36
f 37//37 38//38 39//39
f 40//40 41//41 42//42
f 13//13 43//43 44//44
f 10//10 45//45 46//46
f 7//7 47//47 48//48
f 19//19 49//49 50//50
f 16//16 51//51 52//52
f 10//10 53//53 45//45
f 13//13 54//54 43//43
f 16//16 55//55 51//51
f 19//19 56//56 49//49
f 7//7 57//57 47//47
f 40//40 58//58 59//59
f 28//28 60//60 61//61
f 31//31 62//62 63//63
f 34//34 64//64 65//65
f 37//37 66//66 67//67
f 40//40 68//68 58//58
f 28//28 69//69 60//60
f 31//31 70//70 62//62
f 34//34 71//71 64//64
f 37//37 72//72 66//66
f 10//10 46//46 11//11
f 7//7 48//48 8//8
f 19//19 50//50 20//20
f 16//16 52//52 17//17
f 13//13 44//44 14//14
f 40//40 42//42 68//68
f 28//28 30//30 69//69
f 31//31 33//33 70//70
f 34//34 36//36 71//71
f 37//37 39//39 72//72
f 28//28 61//61 29//29
f 31//31 63//63 32//32
f 34//34 65//65 35//35
f 37//37 67//67 38//38
f 40//40 59//59 41//41
f 10//10 12//12 53//53
f 13//13 15//15 54//54
f 16//16 18//18 55//55
f 19//19 21//21 56//56
f 7//7 9//9 57//57
f 73//73 74//74 75//75
f 76//76 77//77 78//78
f 79//79 80//80 81//81
f 82//82 83//83 84//84
f 85//85 86//86 87//87
f 88//88 89//89 90//90
f 91//91 92//92 93//93
f 94//94 95//95 96//96
f 97//97 98//98 99//99
f 100//100 101//101 102//102
f 103//103 104//104 105//105
f 106//106 107//107 108//108
f 109//109 110//110 111//111
f 112//112 113//113 114//114
f 115//115 116//116 117//117
f 88//88 118//118 119//119
f 91//91 120//120 121//121
f 94//94 122//122 123//123
f 97//97 124//124 125//125
f 100//100 126//126 127//127
f 128//128 129//129 2//2
f 130//130 131//131 3//3
f 132//132 133//133 4//4
f 134//134 135//135 5//5
f 136//136 137//137 6//6
f 76//76 138//138 8//8
f 73//73 139//139 11//11
f 85//85 140//140 14//14
f 82//82 141//141 17//17
f 79//79 142//142 20//20
f 143//143 144//144 23//23
f 145//145 146//146 24//24
f 147//147 148//148 25//25
f 149//149 150//150 26//26
f 151//151 152//152 27//27
f 103//103 153//153 29//29
f 106//106 154//154 32//32
f 109//109 155//155 35//35
f 112//112 156//156 38//38
f 115//115 157//157 41//41
f 73//73 75//75 43//43
f 76//76 78//78 45//45
f 79//79 81//81 47//47
f 82//82 84//84 49//49
f 85//85 87//87 51//51
f 88//88 90//90 53//53
f 91//91 93//93 54//54
f 94//94 96//96 55//55
f 97//97 99//99 56//56
f 100//100 102//102 57//57
f 103//103 105//105 58//58
f 106//106 108//108 60//60
f 109//109 111//111 62//62
f 112//112 114//114 64//64
f 115//115 117//117 66//66
f 88//88 119//119 68//68
f 91//91 121//121 69//69
f 94//94 123//123 70//70
f 97//97 125//125 71//71
f 100//100 127//127 72//72
f 130//130 74//74 46//46
f 132//132 77//77 48//48
f 134//134 80//80 50//50
f 136//136 83//83 52//52
f 128//128 86//86 44//44
f 158//158 89//89 42//42
f 159//159 92//92 30//30
f 160//160 95//95 33//33
f 161//161 98//98 36//36
f 162//162 101//101 39//39
f 145//145 104//104 61//61
f 147//147 107//107 63//63
f 149//149 110//110 65//65
f 151//151 113//113 67//67
f 143//143 116//116 59//59
f 159//159 118//118 12//12
f 160//160 120//120 15//15
f 161//161 122//122 18//18
f 162//162 124//124 21//21
f 158//158 126//126 9//9
f 130//130 129//129 74//74
f 132//132 131//131 77//77
f 134//134 133//133 80//80
f 136//136 135//135 83//83
f 128//128 137//137 86//86
f 158//158 138//138 89//89
f 159//159 139//139 92//92
f 160//160 140//140 95//95
f 161//161 141//141 98//98
f 162//162 142//142 101//101
f 145//145 144//144 104//104
f 147//147 146//146 107//107
f 149//149 148//148 110//110
f 151//151 150//150 113//113
f 143//143 152//152 116//116
f 159//159 153//153 118//118
f 160//160 154//154 120//120
f 161//161 155//155 122//122
f 162//162 156//156 124//124
f 158//158 157//157 126//126
f 130//130 3//3 129//129
f 132//132 4//4 131//131
f 134//134 5//5 133//133
f 136//136 6//6 135//135
f 128//128 2//2 137//137
f 158//158 9//9 138//138
f 159//159 12//12 139//139
f 160//160 15//15 140//140
f 161//161 18//18 141//141
f 162//162 21//21 142//142
f 145//145 24//24 144//144
f 147//147 25//25 146//146
f 149//149 26//26 148//148
f 151//151 27//27 150//150
f 143//143 23//23 152//152
f 159//159 30//30 153//153
f 160//160 33//33 154//154
f 161//161 36//36 155//155
f 162//162 39//39 156//156
f 158//158 42//42 157//157
f 128//128 44//44 75//75
f 130//130 46//46 78//78
f 132//132 48//48 81//81
f 134//134 50//50 84//84
f 136//136 52//52 87//87
f 76//76 45//45 90//90
f 73//73 43//43 93//93
f 85//85 51//51 96//96
f 82//82 49//49 99//99
f 79//79 47//47 102//102
f 143//143 59//59 105//105
f 145//145 61//61 108//108
f 147//147 63//63 111//111
f 149//149 65//65 114//114
f 151//151 67//67 117//117
f 103//103 58//58 119//119
f 106//106 60//60 121//121
f 109//109 62//62 123//123
f 112//112 64//64 125//125
f 115//115 66//66 127//127
f 73//73 11//11 74//74
f 76//76 8//8 77//77
f 79//79 20//20 80//80
f 82//82 17//17 83//83
f 85//85 14//14 86//86
f 88//88 68//68 89//89
f 91//91 69//69 92//92
f 94//94 70//70 95//95
f 97//97 71//71 98//98
f 100//100 72//72 101//101
f 103//103 29//29 104//104
f 106//106 32//32 107//107
f 109//109 35//35 110//110
f 112//112 38//38 113//113
f 115//115 41//41 116//116
f 88//88 53//53 118//118
f 91//91 54//54 120//120
f 94//94 55//55 122//122
f 97//97 56//56 124//124
f 100//100 57//57 126//126
f 128//128 75//75 129//129
f 130//130 78//78 131//131
f 132//132 81//81 133//133
f 134//134 84//84 135//135
f 136//136 87//87 137//137
f 76//76 90//90 138//138
f 73//73 93//93 139//139
f 85//85 96//96 140//140
f 82//82 99//99 141//141
f 79//79 102//102 142//142
f 143//143 105//105 144//144
f 145//145 108//108 146//146
f 147//147 111//111 148//148
f 149//149 114//114 150//150
f 151//151 117//117 152//152
f 103//103 119//119 153//153
f 106//106 121//121 154//154
f 109//109 123//123 155//155
f 112//112 125//125 156//156
f 115//115 127//127 157//157
f 129//129 3//3 2//2
f 131//131 4//4 3//3
f 133//133 5//5 4//4
f 135//135 6//6 5//5
f 137//137 2//2 6//6
f 138//138 9//9 8//8
f 139//139 12//12 11//11
f 140//140 15//15 14//14
f 141//141 18//18 17//17
f 142//142 21//21 20//20
f 144//144 24//24 23//23
f 146//146 25//25 24//24
f 148//148 26//26 25//25
f 150//150 27//27 26//26
f 152//152 23//23 27//27
f 153//153 30//30 29//29
f 154//154 33//33 32//32
f 155//155 36//36 35//35
f 156//156 39//39 38//38
f 157//157 42//42 41//41
f 75//75 44//44 43//43
f 78//78 46//46 45//45
f 81//81 48//48 47//47
f 84//84 50//50 49//49
f 87//87 52//52 51//51
f 90//90 45//45 53//53
f 93//93 43//43 54//54
f 96//96 51//51 55//55
f 99//99 49//49 56//56
f 102//102 47//47 57//57
f 105//105 59//59 58//58
f 108//108 61//61 60//60
f 111//111 63//63 62//62
f 114//114 65//65 64//64
f 117//117 67//67 66//66
f 119//119 58//58 68//68
f 121//121 60//60 69//69
f 123//123 62//62 70//70
f 125//125 64//64 71//71
f 127//127 66//66 72//72
f 74//74 11//11 46//46
f 77//77 8//8 48//48
f 80//80 20//20 50//50
f 83//83 17//17 52//52
f 86//86 14//14 44//44
f 89//89 68//68 42//42
f 92//92 69//69 30//30
f 95//95 70//70 33//33
f 98//98 71//71 36//36
f 101//101 72//72 39//39
f 104//104 29//29 61//61
f 107//107 32//32 63//63
f 110//110 35//35 65//65
f 113//113 38//38 67//67
f 116//116 41//41 59//59
f 118//118 53//53 12//12
f 120//120 54//54 15//15
f 122//122 55//55 18//18
f 124//124 56//56 21//21
f 126//126 57//57 9//9
f 129//129 75//75 74//74
f 131//131 78//78 77//77
f 133//133 81//81 80//80
f 135//135 84//84 83//83
f 137//137 87//87 86//86
f 138//138 90//90 89//89
f 139//139 93//93 92//92
f 140//140 96//96 95//95
f 141//141 99//99 98//98
f 142//142 102//102 101//101
f 144//144 105//105 104//104
f 146//146 108//108 107//107
f 148//148 111//111 110//110
f 150//150 114//114 113//113
f 152//152 117//117 116//116
f 153//153 119//119 118//118
f 154//154 121//121 120//120
f 155//155 123//123 122//122
f 156//156 125//125 124//124
f 157//157 127//127 126//126
