# Created by Open3D 
# object name: part_051
# number of vertices: 162
# number of triangles: 320
v -2.97567 4.33921 0.579712
vn -0.87444 -0.485086 0.00684912
v -2.96549 4.32083 0.553225
vn -0.869188 -0.494467 -0.00380768
v -2.96561 4.32159 0.59878
vn -0.867101 -0.498019 0.0106097
v -2.976 4.34114 0.640879
vn -0.874492 -0.484835 0.0140851
v -2.98257 4.35213 0.597599
vn -0.884702 -0.466062 0.0093629
v -2.98164 4.34995 0.5521
vn -0.880084 -0.474795 -0.00472776
v -2.9827 4.40997 2.51076
vn -0.874497 -0.484517 0.0223105
v -2.97251 4.391 2.49311
vn -0.867133 -0.497692 0.0195616
v -2.97271 4.39358 2.53859
vn -0.869326 -0.493092 0.0336622
v -2.96714 4.35484 1.546
vn 0.13939 -0.989555 0.0367678
v -2.96354 4.32202 0.646146
vn 0.283477 -0.95831 0.0358187
v -2.96597 4.35521 1.54599
vn 0.463341 -0.885522 0.0341353
v -2.94719 4.32779 0.532559
vn 0.484601 -0.874593 -0.0157908
v -2.94772 4.32837 0.519988
vn 0.360756 -0.67022 -0.648584
v -2.93179 4.33668 0.530867
vn 0.547434 -0.8352 -0.0525055
v -2.96538 4.36057 0.531292
vn -0.484247 0.870959 -0.0832747
v -2.98055 4.3535 0.550788
vn -0.494714 0.867378 -0.0539851
v -2.95087 4.36996 0.550293
vn -0.474918 0.878352 -0.0543145
v -2.98551 4.38193 1.34523
vn -0.766175 0.642093 -0.026318
v -2.98964 4.42007 2.40226
vn -0.950353 0.310826 -0.014706
v -2.98921 4.42241 2.44452
vn -0.662623 0.74837 -0.0295635
v -2.94763 4.42941 2.51017
vn 0.87444 0.485085 -0.0068493
v -2.93831 4.41266 2.53802
vn 0.879262 0.476318 0.00450843
v -2.93739 4.41047 2.49252
vn 0.881639 0.471828 -0.00959643
v -2.94708 4.4271 2.44902
vn 0.874492 0.484835 -0.014085
v -2.95434 4.44102 2.49134
vn 0.863833 0.503662 -0.010816
v -2.95447 4.44177 2.53689
vn 0.868327 0.495976 0.0039056
v -2.93372 4.37337 1.54545
vn 0.766178 -0.642089 0.0263178
v -2.9373 4.40614 2.4453
vn 0.663393 -0.747664 0.0301411
v -2.93466 4.37257 1.54547
vn 0.5064 -0.861651 0.0334173
v -2.9406 4.35865 0.579127
vn 0.874497 0.484517 -0.0223103
v -2.93049 4.34106 0.598195
vn 0.881675 0.471492 -0.0185493
v -2.93108 4.33991 0.552652
vn 0.879402 0.474937 -0.0329617
v -2.95209 4.40045 1.34467
vn -0.139431 0.989549 -0.0367678
v -2.94904 4.37627 0.686555
vn 0.246639 0.968484 -0.0347598
v -2.94987 4.37464 0.644268
vn -0.281879 0.958753 -0.0365738
v -2.97276 4.43481 2.55756
vn -0.484601 0.874593 0.0157911
v -2.95811 4.4428 2.53803
vn -0.475061 0.879848 -0.0135685
v -2.98779 4.42634 2.53852
vn -0.494862 0.868871 -0.0132384
v -2.95457 4.40204 2.55883
vn 0.484247 -0.870959 0.0832747
v -2.95519 4.40353 2.57132
vn 0.355845 -0.620855 0.698508
v -2.97032 4.39377 2.56049
vn 0.416391 -0.90128 0.119636
v -2.96185 4.31981 0.552091
vn 0.475061 -0.879848 0.0135683
v -2.96293 4.31941 0.531386
vn 0.417014 -0.907506 -0.0503216
v -2.97092 4.38633 2.40356
vn -0.242556 -0.969513 0.0347986
v -2.96467 4.32348 0.688432
vn -0.242503 -0.969538 0.034488
v -2.98946 4.42155 2.49192
vn -0.884738 -0.465728 0.0183391
v -2.98259 4.40742 2.44961
vn -0.874496 -0.484798 0.0150767
v -2.98265 4.35646 0.644814
vn -0.66464 0.746554 -0.030192
v -2.9834 4.35722 0.687128
vn -0.952621 0.303801 -0.0147705
v -2.96476 4.35907 0.518801
vn -0.407537 0.718136 -0.564087
v -2.98078 4.35157 0.530143
vn -0.546816 0.828972 -0.117464
v -2.97009 4.38797 2.44585
vn 0.283371 -0.958316 0.036476
v -2.93216 4.33626 0.551596
vn 0.494862 -0.868871 0.0132383
v -2.94963 4.36884 0.529624
vn -0.416391 0.90128 -0.119636
v -2.98456 4.38263 1.34273
vn -0.506414 0.861643 -0.0334171
v -2.98887 4.4227 2.53747
vn -0.880224 -0.473405 0.0330607
v -2.9394 4.4091 2.53933
vn 0.494714 -0.867378 0.0539851
v -2.93917 4.41104 2.55998
vn 0.546816 -0.828972 0.117464
v -2.93031 4.34253 0.687859
vn 0.95139 -0.307643 0.0145813
v -2.93656 4.40538 2.40299
vn 0.95138 -0.307661 0.0148937
v -2.94745 4.3716 0.597013
vn 0.863862 0.50334 -0.0197916
v -2.9405 4.36082 0.640287
vn 0.874496 0.484798 -0.0150766
v -2.95642 4.44058 2.44397
vn -0.284571 0.957984 -0.0358676
v -2.95528 4.43912 2.40169
vn 0.2394 0.970307 -0.0345391
v -2.97223 4.43424 2.57013
vn -0.411441 0.757387 0.507031
v -2.95702 4.44319 2.55873
vn -0.417014 0.907506 0.0503219
v -2.96909 4.39264 2.53983
vn 0.474918 -0.878352 0.0543145
v -2.93075 4.3402 0.645599
vn 0.663392 -0.747691 0.0294843
v -2.94724 4.36902 0.551526
vn 0.868464 0.494592 -0.0338795
v -2.95325 4.39999 1.34221
vn -0.463347 0.885519 -0.0341352
v -2.98817 4.42592 2.55925
vn -0.547435 0.8352 0.0525058
v -2.96283 4.3202 0.585282
vn 0.450972 -0.892114 0.027523
v -2.96409 4.32046 0.600708
vn -0.131619 -0.990869 0.0292449
v -2.96353 4.31931 0.554087
vn 0.00547797 -0.999885 0.0141325
v -2.97171 4.38887 2.46154
vn -0.660241 -0.75061 0.025833
v -2.97235 4.38764 2.40449
vn -0.867101 -0.4979 0.015188
v -2.96842 4.35519 1.54599
vn -0.666175 -0.74538 0.0248872
v -2.98981 4.42148 2.46028
vn -0.986511 -0.163669 0.00302676
v -2.98592 4.381 1.35464
vn -0.985406 -0.170202 0.00264851
v -2.98932 4.41822 2.40331
vn -0.885591 -0.464258 0.0138914
v -2.98182 4.35442 0.583959
vn -0.518326 0.854247 -0.0399954
v -2.98192 4.35246 0.552805
vn -0.845147 0.532627 -0.0451218
v -2.98278 4.35413 0.599406
vn -0.910546 0.412651 -0.025018
v -2.95801 4.34678 0.515284
vn 0.00364147 -0.0366183 -0.999323
v -2.96375 4.32054 0.521385
vn -0.479249 -0.503803 -0.718681
v -2.97993 4.34969 0.520258
vn -0.665749 -0.157214 -0.729426
v -2.96982 4.39061 2.50669
vn 0.450909 -0.891622 0.0411236
v -2.97075 4.392 2.53786
vn 0.00529772 -0.998237 0.0591203
v -2.97097 4.38974 2.49128
vn -0.131787 -0.990371 0.0423898
v -2.93114 4.33777 0.584754
vn 0.518387 -0.854739 0.0264025
v -2.93219 4.33914 0.644607
vn 0.489469 -0.871382 0.0333716
v -2.94692 4.32873 0.580189
vn 0.485033 -0.874074 0.0271503
v -2.9483 4.36912 0.536123
vn 0.799111 0.596551 -0.0744825
v -2.94133 4.3566 0.531529
vn 0.873248 0.481892 -0.0722362
v -2.94874 4.36698 0.519739
vn 0.467211 0.470887 -0.748318
v -2.96894 4.39135 1.34168
vn -0.485022 0.873849 -0.0337864
v -2.95149 4.37392 0.643262
vn -0.480548 0.876298 -0.034291
v -2.98121 4.35744 0.643758
vn -0.489479 0.871347 -0.0341423
v -2.9889 4.42456 2.55279
vn -0.931255 -0.358474 0.0652705
v -2.98915 4.42515 2.53658
vn -0.845317 0.534266 -0.000130207
v -2.98961 4.42361 2.52109
vn -0.994921 -0.0997079 0.0137793
v -2.93813 4.40818 2.50616
vn 0.518326 -0.854247 0.0399953
v -2.93718 4.40847 2.49071
vn 0.910546 -0.412651 0.025018
v -2.93803 4.41014 2.53731
vn 0.845147 -0.532627 0.0451218
v -2.93015 4.34112 0.629842
vn 0.986703 0.162501 -0.00309425
v -2.93063 4.34438 0.686813
vn 0.881691 0.471615 -0.0141717
v -2.93335 4.37463 1.5454
vn 0.985406 0.170202 -0.00264851
v -2.94825 4.37373 0.628582
vn 0.658975 0.751714 -0.0260368
v -2.95085 4.40045 1.35406
vn 0.666175 0.74538 -0.0248872
v -2.94761 4.37496 0.68563
vn 0.864312 0.502721 -0.0153794
v -2.95713 4.4424 2.50484
vn -0.450972 0.892114 -0.027523
v -2.95643 4.44329 2.53603
vn -0.00547627 0.999885 -0.0141326
v -2.95587 4.44214 2.48941
vn 0.131618 0.990869 -0.0292449
v -2.96551 4.42224 2.57459
vn -0.00364147 0.0366183 0.999323
v -2.94003 4.41291 2.56986
vn 0.657271 0.183064 0.731083
v -2.9562 4.44206 2.56873
vn 0.46188 0.524521 0.715223
v -2.96847 4.38868 2.44686
vn 0.480565 -0.876292 0.0342003
v -2.95395 4.39949 2.51126
vn 0.48499 -0.873585 0.0404224
v -2.93081 4.33745 0.553541
vn 0.845316 -0.534266 0.000130205
v -2.93029 4.3392 0.600145
vn 0.910615 -0.413086 0.0118705
v -2.9492 4.3706 0.55226
vn -0.00529734 0.998237 -0.0591203
v -2.94816 4.37109 0.56779
vn 0.611788 0.789986 -0.0404639
v -2.98777 4.42346 2.44551
vn -0.489463 0.871383 -0.0334307
v -2.95805 4.43994 2.44502
vn -0.480576 0.87631 -0.0335789
v -2.98213 4.41232 2.55834
vn -0.873248 -0.481892 0.0722362
v -2.98739 4.42477 2.56925
vn -0.671078 -0.103588 0.734115
v -2.96431 4.3196 0.537879
vn -0.821765 -0.568529 -0.0384383
v -2.96468 4.31996 0.569603
vn -0.611711 -0.790975 0.0130076
v -2.96504 4.32177 0.630424
vn -0.66041 -0.75051 0.0243636
v -2.9661 4.32472 0.687404
vn -0.867101 -0.497906 0.0149864
v -2.97958 4.37463 1.54523
vn -0.874494 -0.484816 0.0145807
v -2.98307 4.3553 0.686222
vn -0.884303 -0.466711 0.0137761
v -2.98314 4.35439 0.629163
vn -0.986979 -0.160842 0.00140855
v -2.9825 4.35205 0.568363
vn -0.994822 -0.100711 -0.0136815
v -2.98156 4.35069 0.536677
vn -0.930856 -0.362525 -0.0456367
v -2.97475 4.33807 0.532087
vn -0.872828 -0.486119 -0.0431218
v -2.97179 4.39152 2.52233
vn -0.611787 -0.789987 0.0404639
v -2.9619 4.32266 0.645103
vn 0.48057 -0.876315 0.0335199
v -2.93257 4.33783 0.520865
vn 0.662621 0.129247 -0.737719
v -2.96601 4.36312 0.578859
vn -0.48499 0.873585 -0.0404224
v -2.98966 4.42341 2.48997
vn -0.910614 0.413086 -0.0118705
v -2.9384 4.41192 2.55344
vn 0.915799 0.399108 0.0449939
v -2.93746 4.41055 2.52176
vn 0.994822 0.100711 0.0136815
v -2.93681 4.40822 2.46096
vn 0.986707 0.162503 -0.00162917
v -2.93688 4.4073 2.4039
vn 0.881689 0.471624 -0.0139702
v -2.94394 4.39439 1.54464
vn 0.874494 0.484816 -0.0145807
v -2.95386 4.43788 2.40271
vn 0.86292 0.50511 -0.0152622
v -2.95492 4.44083 2.45969
vn 0.661294 0.749728 -0.0244428
v -2.95527 4.44264 2.52052
vn 0.611709 0.790976 -0.0130076
v -2.95565 4.443 2.55224
vn 0.798707 0.600616 0.0364256
v -2.94871 4.43085 2.55779
vn 0.872828 0.486119 0.0431216
v -2.93875 4.40516 2.44636
vn 0.489463 -0.871359 0.0340521
v -2.93035 4.339 0.569031
vn 0.994921 0.0997079 -0.0137793
v -2.94898 4.37287 0.598843
vn 0.131788 0.990371 -0.0423898
v -2.97304 4.43388 2.50993
vn -0.485033 0.874074 -0.0271504
v -2.97121 4.39563 2.57038
vn -0.484603 -0.449979 0.750119
v -2.97165 4.39348 2.554
vn -0.822176 -0.564406 0.0739737
v -2.95028 4.36382 1.54574
vn 0.485022 -0.873849 0.0337864
v -2.93105 4.33804 0.537324
vn 0.916205 0.394999 -0.0674162
v -2.95013 4.37199 0.583431
vn -0.45091 0.891622 -0.0411236
v -2.98882 4.42483 2.50536
vn -0.518387 0.854739 -0.0264025
f 1//1 2//2 3//3
f 1//1 3//3 4//4
f 1//1 4//4 5//5
f 1//1 5//5 6//6
f 1//1 6//6 2//2
f 7//7 8//8 9//9
f 10//10 11//11 12//12
f 13//13 14//14 15//15
f 16//16 17//17 18//18
f 19//19 20//20 21//21
f 22//22 23//23 24//24
f 22//22 24//24 25//25
f 22//22 25//25 26//26
f 22//22 26//26 27//27
f 22//22 27//27 23//23
f 28//28 29//29 30//30
f 31//31 32//32 33//33
f 34//34 35//35 36//36
f 37//37 38//38 39//39
f 40//40 41//41 42//42
f 13//13 43//43 44//44
f 10//10 45//45 46//46
f 7//7 47//47 48//48
f 19//19 49//49 50//50
f 16//16 51//51 52//52
f 10//10 53//53 45//45
f 13//13 54//54 43//43
f 16//16 55//55 51//51
f 19//19 56//56 49//49
f 7//7 57//57 47//47
f 40//40 58//58 59//59
f 28//28 60//60 61//61
f 31//31 62//62 63//63
f 34//34 64//64 65//65
f 37//37 66//66 67//67
f 40//40 68//68 58//58
f 28//28 69//69 60//60
f 31//31 70//70 62//62
f 34//34 71//71 64//64
f 37//37 72//72 66//66
f 10//10 46//46 11//11
f 7//7 48//48 8//8
f 19//19 50//50 20//20
f 16//16 52//52 17//17
f 13//13 44//44 14//14
f 40//40 42//42 68//68
f 28//28 30//30 69//69
f 31//31 33//33 70//70
f 34//34 36//36 71//71
f 37//37 39//39 72//72
f 28//28 61//61 29//29
f 31//31 63//63 32//32
f 34//34 65//65 35//35
f 37//37 67//67 38//38
f 40//40 59//59 41//41
f 10//10 12//12 53//53
f 13//13 15//15 54//54
f 16//16 18//18 55//55
f 19//19 21//21 56//56
f 7//7 9//9 57//57
f 73//73 74//74 75//75
f 76//76 77//77 78//78
f 79//79 80//80 81//81
f 82//82 83//83 84//84
f 85//85 86//86 87//87
f 88//88 89//89 90//90
f 91//91 92//92 93//93
f 94//94 95//95 96//96
f 97//97 98//98 99//99
f 100//100 101//101 102//102
f 103//103 104//104 105//105
f 106//106 107//107 108//108
f 109//109 110//110 111//111
f 112//112 113//113 114//114
f 115//115 116//116 117//117
f 88//88 118//118 119//119
f 91//91 120//120 121//121
f 94//94 122//122 123//123
f 97//97 124//124 125//125
f 100//100 126//126 127//127
f 128//128 129//129 2//2
f 130//130 131//131 3//3
f 132//132 133//133 4//4
f 134//134 135//135 5//5
f 136//136 137//137 6//6
f 76//76 138//138 8//8
f 73//73 139//139 11//11
f 85//85 140//140 14//14
f 82//82 141//141 17//17
f 79//79 142//142 20//20
f 143//143 144//144 23//23
f 145//145 146//146 24//24
f 147//147 148//148 25//25
f 149//149 150//150 26//26
f 151//151 152//152 27//27
f 103//103 153//153 29//29
f 106//106 154//154 32//32
f 109//109 155//155 35//35
f 112//112 156//156 38//38
f 115//115 157//157 41//41
f 73//73 75//75 43//43
f 76//76 78//78 45//45
f 79//79 81//81 47//47
f 82//82 84//84 49//49
f 85//85 87//87 51//51
f 88//88 90//90 53//53
f 91//91 93//93 54//54
f 94//94 96//96 55//55
f 97//97 99//99 56//56
f 100//100 102//102 57//57
f 103//103 105//105 58//58
f 106//106 108//108 60//60
f 109//109 111//111 62//62
f 112//112 114//114 64//64
f 115//115 117//117 66//66
f 88//88 119//119 68//68
f 91//91 121//121 69//69
f 94//94 123//123 70//70
f 97//97 125//125 71//71
f 100//100 127//127 72//72
f 130//130 74//74 46//46
f 132//132 77//77 48//48
f 134//134 80//80 50//50
f 136//136 83//83 52//52
f 128//128 86//86 44//44
f 158//158 89//89 42//42
f 159//159 92//92 30//30
f 160//160 95//95 33//33
f 161//161 98//98 36//36
f 162//162 101//101 39//39
f 145//145 104//104 61//61
f 147//147 107//107 63//63
f 149//149 110//110 65//65
f 151//151 113//113 67//67
f 143//143 116//116 59//59
f 159//159 118//118 12//12
f 160//160 120//120 15//15
f 161//161 122//122 18//18
f 162//162 124//124 21//21
f 158//158 126//126 9//9
f 130//130 129//129 74//74
f 132//132 131//131 77//77
f 134//134 133//133 80//80
f 136//136 135//135 83//83
f 128//128 137//137 86//86
f 158//158 138//138 89//89
f 159//159 139//139 92//92
f 160//160 140//140 95//95
f 161//161 141//141 98//98
f 162//162 142//142 101//101
f 145//145 144//144 104//104
f 147//147 146//146 107//107
f 149//149 148//148 110//110
f 151//151 150//150 113//113
f 143//143 152//152 116//116
f 159//159 153//153 118//118
f 160//160 154//154 120//120
f 161//161 155//155 122//122
f 162//162 156//156 124//124
f 158//158 157//157 126//126
f 130//130 3//3 129//129
f 132//132 4//4 131//131
f 134//134 5//5 133//133
f 136//136 6//6 135//135
f 128//128 2//2 137//137
f 158//158 9//9 138//138
f 159//159 12//12 139//139
f 160//160 15//15 140//140
f 161//161 18//18 141//141
f 162//162 21//21 142//142
f 145//145 24//24 144//144
f 147//147 25//25 146//146
f 149//149 26//26 148//148
f 151//151 27//27 150//150
f 143//143 23//23 152//152
f 159//159 30//30 153//153
f 160//160 33//33 154//154
f 161//161 36//36 155//155
f 162//162 39//39 156//156
f 158//158 42//42 157//157
f 128//128 44//44 75//75
f 130//130 46//46 78//78
f 132//132 48//48 81//81
f 134//134 50//50 84//84
f 136//136 52//52 87//87
f 76//76 45//45 90//90
f 73//73 43//43 93//93
f 85//85 51//51 96//96
f 82//82 49//49 99//99
f 79//79 47//47 102//102
f 143//143 59//59 105//105
f 145//145 61//61 108//108
f 147//147 63//63 111//111
f 149//149 65//65 114//114
f 151//151 67//67 117//117
f 103//103 58//58 119//119
f 106//106 60//60 121//121
f 109//109 62//62 123//123
f 112//112 64//64 125//125
f 115//115 66//66 127//127
f 73//73 11//11 74//74
f 76//76 8//8 77//77
f 79//79 20//20 80//80
f 82//82 17//17 83//83
f 85//85 14//14 86//86
f 88//88 68//68 89//89
f 91//91 69//69 92//92
f 94//94 70//70 95//95
f 97//97 71//71 98//98
f 100//100 72//72 101//101
f 103//103 29//29 104//104
f 106//106 32//32 107//107
f 109//109 35//35 110//110
f 112//112 38//38 113//113
f 115//115 41//41 116//116
f 88//88 53//53 118//118
f 91//91 54//54 120//120
f 94//94 55//55 122//122
f 97//97 56//56 124//124
f 100//100 57//57 126//126
f 128//128 75//75 129//129
f 130//130 78//78 131//131
f 132//132 81//81 133//133
f 134//134 84//84 135//135
f 136//136 87//87 137//137
f 76//76 90//90 138//138
f 73//73 93//93 139//139
f 85//85 96//96 140//140
f 82//82 99//99 141//141
f 79//79 102//102 142//142
f 143//143 105//105 144//144
f 145//145 108//108 146//146
f 147//147 111//111 148//148
f 149//149 114//114 150//150
f 151//151 117//117 152//152
f 103//103 119//119 153//153
f 106//106 121//121 154//154
f 109//109 123//123 155//155
f 112//112 125//125 156//156
f 115//115 127//127 157//157
f 129//129 3//3 2//2
f 131//131 4//4 3//3
f 133//133 5//5 4//4
f 135//135 6//6 5//5
f 137//137 2//2 6//6
f 138//138 9//9 8//8
f 139//139 12//12 11//11
f 140//140 15//15 14//14
f 141//141 18//18 17//17
f 142//142 21//21 20//20
f 144//144 24//24 23//23
f 146//146 25//25 24//24
f 148//148 26//26 25//25
f 150//150 27//27 26//26
f 152//152 23//23 27//27
f 153//153 30//30 29//29
f 154//154 33//33 32//32
f 155//155 36//36 35//35
f 156//156 39//39 38//38
f 157//157 42//42 41//41
f 75//75 44//44 43//43
f 78//78 46//46 45//45
f 81//81 48//48 47//47
f 84//84 50//50 49//49
f 87//87 52//52 51//51
f 90//90 45//45 53//53
f 93//93 43//43 54//54
f 96//96 51//51 55//55
f 99//99 49//49 56//56
f 102//102 47//47 57//57
f 105//105 59//59 58//58
f 108//108 61//61 60//60
f 111//111 63//63 62//62
f 114//114 65//65 64//64
f 117//117 67//67 66//66
f 119//119 58//58 68//68
f 121//121 60//60 69//69
f 123//123 62//62 70//70
f 125//125 64//64 71//71
f 127//127 66//66 72//72
f 74//74 11//11 46//46
f 77//77 8//8 48//48
f 80//80 20//20 50//50
f 83//83 17//17 52//52
f 86//86 14//14 44//44
f 89//89 68//68 42//42
f 92//92 69//69 30//30
f 95//95 70//70 33//33
f 98//98 71//71 36//36
f 101//101 72//72 39//39
f 104//104 29//29 61//61
f 107//107 32//32 63//63
f 110//110 35//35 65//65
f 113//113 38//38 67//67
f 116//116 41//41 59//59
f 118//118 53//53 12//12
f 120//120 54//54 15//15
f 122//122 55//55 18//18
f 124//124 56//56 21//21
f 126//126 57//57 9//9
f 129//129 75//75 74//74
f 131//131 78//78 77//77
f 133//133 81//81 80//80
f 135//135 84//84 83//83
f 137//137 87//87 86//86
f 138//138 90//90 89//89
f 139//139 93//93 92//92
f 140//140 96//96 95//95
f 141//141 99//99 98//98
f 142//142 102//102 101//101
f 144//144 105//105 104//104
f 146//146 108//108 107//107
f 148//148 111//111 110//110
f 150//150 114//114 113//113
f 152//152 117//117 116//116
f 153//153 119//119 118//118
f 154//154 121//121 120//120
f 155//155 123//123 122//122
f 156//156 125//125 124//124
f 157//157 127//127 126//126
