# Created by Open3D 
# object name: part_052
# number of vertices: 162
# number of triangles: 320
v 1.58505 5.01453 2.62002
vn 0.708805 0.700209 0.0854568
v 1.59792 4.99916 2.63219
vn 0.725137 0.666908 0.171497
v 1.6 4.99978 2.61212
vn 0.746216 0.66298 0.0601605
v 1.58647 5.01525 2.59303
vn 0.71154 0.702084 0.0280981
v 1.57546 5.02467 2.61177
vn 0.655446 0.752943 0.058886
v 1.57453 5.02288 2.63185
vn 0.669988 0.722199 0.171884
v 1.60576 5.02288 1.76703
vn 0.711785 0.701409 -0.0372408
v 1.62032 5.00798 1.77536
vn 0.747935 0.663682 -0.0108924
v 1.61921 5.00775 1.7552
vn 0.732281 0.6698 -0.123019
v 1.60928 4.99992 2.19368
vn 0.775328 -0.631432 0.0126426
v 1.59875 4.99511 2.59114
vn 0.74574 -0.666122 0.0123458
v 1.60643 4.99677 2.19358
vn 0.707104 -0.707035 0.0102458
v 1.55004 4.94911 2.63958
vn 0.695023 -0.70862 0.121655
v 1.54908 4.9499 2.6451
vn 0.284018 -0.318973 0.904207
v 1.5053 4.90547 2.63869
vn 0.669585 -0.715421 0.199573
v 1.52371 4.97582 2.6392
vn -0.700445 0.706435 0.101623
v 1.56593 5.0181 2.63212
vn -0.700201 0.713031 0.0361266
v 1.48116 4.93445 2.62924
vn -0.704788 0.708505 0.0359694
v 1.57951 5.02708 2.28138
vn -0.620574 0.784113 -0.00738966
v 1.59245 5.03271 1.81453
vn -0.496903 0.867797 -0.0039976
v 1.59037 5.03096 1.79577
vn -0.6559 0.754792 -0.00916344
v 1.5056 4.92407 1.76363
vn -0.708805 -0.700209 -0.0854574
v 1.52096 4.91081 1.75187
vn -0.674532 -0.718224 -0.170765
v 1.52003 4.90902 1.77195
vn -0.672478 -0.737753 -0.0591096
v 1.50448 4.92304 1.79063
vn -0.71154 -0.702084 -0.0280987
v 1.49548 4.93391 1.7716
vn -0.761161 -0.645744 -0.0604024
v 1.49757 4.93453 1.75153
vn -0.729025 -0.662334 -0.172731
v 1.51384 4.90575 2.19044
vn 0.620563 -0.784122 0.00738927
v 1.52441 4.91052 1.79298
vn 0.655677 -0.755001 0.00776603
v 1.51703 4.90856 2.19054
vn 0.697114 -0.716892 0.00990667
v 1.48489 4.91571 2.61662
vn -0.711785 -0.70141 0.03724
v 1.49971 4.90083 2.60872
vn -0.674205 -0.738447 0.0119497
v 1.49967 4.90222 2.62885
vn -0.681681 -0.721109 0.123747
v 1.48406 4.93291 2.27814
vn -0.775341 0.631417 -0.012643
v 1.47592 4.92847 2.56881
vn -0.86256 0.505717 -0.0154822
v 1.47744 4.93079 2.58756
vn -0.746113 0.665734 -0.0106337
v 1.54544 4.98458 1.74415
vn -0.695023 0.70862 -0.121655
v 1.50248 4.94305 1.75121
vn -0.702549 0.709408 -0.0562567
v 1.58725 5.0267 1.75409
vn -0.697962 0.713934 -0.0561053
v 1.57178 4.95788 1.74453
vn 0.700445 -0.706435 -0.101624
v 1.57108 4.95878 1.73898
vn 0.327722 -0.301356 -0.895423
v 1.61602 5.00202 1.7454
vn 0.708702 -0.68222 -0.179771
v 1.59301 4.99064 2.63251
vn 0.702549 -0.709408 0.0562568
v 1.59426 4.99324 2.64171
vn 0.699466 -0.685945 0.200568
v 1.61956 5.00522 1.81491
vn 0.861572 -0.507399 0.0154846
v 1.60117 4.9978 2.57253
vn 0.861548 -0.50741 0.0164174
v 1.59578 5.03287 1.775
vn 0.657181 0.753633 -0.0122602
v 1.60587 5.02308 1.79407
vn 0.711726 0.702167 0.0202119
v 1.57107 5.02318 2.59074
vn -0.655321 0.755313 -0.00755254
v 1.57406 5.02529 2.57214
vn -0.493731 0.86961 -0.0029632
v 1.52441 4.97492 2.64474
vn -0.420879 0.398546 0.814876
v 1.56842 5.01944 2.64134
vn -0.678823 0.711695 0.180802
v 1.61805 5.0029 1.79616
vn 0.745775 -0.66611 0.0108241
v 1.50823 4.907 2.62963
vn 0.697962 -0.713934 0.0561053
v 1.47947 4.93167 2.63832
vn -0.708702 0.68222 0.17977
v 1.57629 5.02426 2.28237
vn -0.697116 0.71689 -0.00990674
v 1.59582 5.03147 1.75487
vn 0.6772 0.725102 -0.125007
v 1.52955 4.9156 1.7516
vn 0.700201 -0.713031 -0.0361268
v 1.52706 4.91425 1.74238
vn 0.678823 -0.711695 -0.180803
v 1.50303 4.90098 2.5692
vn 0.495445 -0.86863 0.00399031
v 1.52143 4.9084 1.81158
vn 0.495467 -0.868621 0.00305784
v 1.47516 4.92572 2.60837
vn -0.762885 -0.646445 0.0107417
v 1.48508 4.91521 2.58959
vn -0.711726 -0.702167 -0.0202122
v 1.49674 4.93858 1.79259
vn -0.745543 0.666346 -0.0122069
v 1.49432 4.93589 1.81119
vn -0.860669 0.508903 -0.0163452
v 1.54641 4.98379 1.73862
vn -0.381022 0.414614 -0.826388
v 1.50123 4.94045 1.74201
vn -0.699466 0.685945 -0.200567
v 1.61433 4.99924 1.75448
vn 0.704788 -0.708505 -0.0359696
v 1.50511 4.90273 2.58796
vn 0.655652 -0.755006 0.0092875
v 1.47628 4.92594 2.62852
vn -0.73623 -0.665245 0.124153
v 1.48689 4.93605 2.27933
vn -0.707102 0.707037 -0.0102457
v 1.59019 5.02822 1.74503
vn -0.669585 0.715421 -0.199573
v 1.59644 4.9934 2.61796
vn 0.709449 -0.704287 0.0257505
v 1.59939 4.99666 2.61125
vn 0.833568 -0.551431 0.0329883
v 1.59714 4.99515 2.63178
vn 0.800731 -0.594804 0.070974
v 1.62049 5.00668 1.78932
vn 0.992724 -0.118888 0.0190871
v 1.61988 5.00806 1.81452
vn 0.747686 0.663624 0.0238525
v 1.61099 5.0029 2.19375
vn 0.994007 -0.106853 0.0230894
v 1.59429 5.03325 1.78894
vn -0.103412 0.994631 0.00395284
v 1.58261 5.02879 2.27733
vn -0.0932665 0.995613 0.00748518
v 1.5953 5.03298 1.81417
vn 0.651862 0.758006 0.0224239
v 1.56895 5.02128 2.61757
vn -0.694552 0.719421 0.00560111
v 1.57051 5.02216 2.6314
vn -0.58442 0.80984 0.0511021
v 1.57234 5.02409 2.61086
vn -0.540043 0.841533 0.0132806
v 1.53412 4.96501 2.64665
vn -0.0242735 -0.0097893 0.999657
v 1.59299 4.99448 2.64609
vn 0.13109 -0.00969338 0.991323
v 1.56957 5.01822 2.64575
vn -0.0335705 0.156386 0.987125
v 1.61705 5.00171 1.76923
vn 0.710197 -0.703985 -0.00507408
v 1.61842 5.00373 1.7555
vn 0.803522 -0.593672 -0.0436622
v 1.61967 5.00483 1.77614
vn 0.834455 -0.551066 -0.00328496
v 1.50593 4.9041 2.61489
vn 0.693804 -0.719722 0.0252151
v 1.50962 4.90691 2.58856
vn 0.701075 -0.713006 0.0108119
v 1.5512 4.94866 2.61856
vn 0.701682 -0.712047 0.0251056
v 1.47696 4.9283 2.63535
vn -0.887191 -0.302774 0.348167
v 1.48661 4.91795 2.63773
vn -0.656773 -0.642094 0.395429
v 1.48052 4.93035 2.64273
vn -0.189784 0.00225653 0.981823
v 1.53153 4.98021 2.2812
vn -0.702125 0.711982 -0.0100764
v 1.48167 4.93525 2.58816
vn -0.703183 0.71095 -0.00913605
v 1.56654 5.01899 2.59104
vn -0.701113 0.712992 -0.00906605
v 1.59355 5.03072 1.74801
vn 0.320124 0.877821 -0.356301
v 1.59179 5.03074 1.75512
vn -0.581625 0.810971 -0.063549
v 1.59435 5.03251 1.76206
vn -0.190112 0.979892 -0.0605688
v 1.52654 4.91241 1.76616
vn 0.694552 -0.719421 -0.00560099
v 1.52315 4.9096 1.77286
vn 0.540043 -0.841533 -0.0132806
v 1.52497 4.91153 1.75233
vn 0.584419 -0.809841 -0.051102
v 1.5012 4.90044 2.59478
vn 0.105204 -0.994445 -0.0033302
v 1.50018 4.90071 2.56956
vn -0.673653 -0.738696 -0.0227899
v 1.51083 4.90408 2.19035
vn 0.0932665 -0.995613 -0.00748518
v 1.47499 4.92701 2.5944
vn -0.99243 0.121453 -0.0182308
v 1.48246 4.92997 2.27393
vn -0.994007 0.106853 -0.0230894
v 1.47561 4.92563 2.5692
vn -0.760463 -0.648938 -0.0239834
v 1.49904 4.94029 1.76576
vn -0.709449 0.704287 -0.0257504
v 1.49834 4.93854 1.75194
vn -0.800731 0.594804 -0.070974
v 1.49609 4.93704 1.77247
vn -0.833568 0.55143 -0.0329884
v 1.55621 4.97392 1.737
vn 0.0242735 0.0097893 -0.999657
v 1.52591 4.91547 1.73797
vn 0.0218794 -0.145425 -0.989127
v 1.50249 4.93922 1.73764
vn -0.141916 0.0215628 -0.989644
v 1.61381 4.99844 1.79556
vn 0.703177 -0.710954 0.0093406
v 1.57192 4.95701 1.76556
vn 0.702412 -0.711754 -0.0049595
v 1.5037 4.90295 2.62861
vn 0.581625 -0.810971 0.063549
v 1.50287 4.90142 2.60797
vn 0.539158 -0.84189 0.0229991
v 1.47706 4.92996 2.62822
vn -0.803521 0.593673 0.0436623
v 1.47535 4.92732 2.62129
vn -0.977883 0.204516 0.0437986
v 1.58587 5.02678 1.79516
vn -0.70108 0.713002 -0.0106779
v 1.501 4.94304 1.79228
vn -0.703138 0.710972 -0.0107481
v 1.6038 5.02089 1.74592
vn 0.656773 0.642094 -0.395429
v 1.59155 5.02708 1.74066
vn 0.0143012 0.175692 -0.984341
v 1.5969 4.99668 2.63894
vn 0.819252 0.395201 0.415502
v 1.59919 4.99792 2.62499
vn 0.974698 -0.205819 0.0871919
v 1.60085 4.99876 2.59816
vn 0.992534 -0.118988 0.0267882
v 1.60146 5.00064 2.57299
vn 0.747648 0.663607 0.0254536
v 1.59606 5.01968 2.19355
vn 0.711638 0.70213 0.0241553
v 1.57689 5.02555 2.57264
vn 0.659101 0.751665 0.0242013
v 1.57465 5.02533 2.59779
vn -0.108099 0.99407 0.0117873
v 1.57341 5.02407 2.62462
vn -0.19328 0.978612 0.0704341
v 1.57193 5.022 2.63858
vn 0.302013 0.870538 0.388525
v 1.58206 5.01212 2.64097
vn 0.636507 0.633914 0.439331
v 1.62013 5.00637 1.76243
vn 0.977883 -0.204516 -0.0437985
v 1.59449 4.99065 2.59144
vn 0.703139 -0.710969 0.0108821
v 1.50393 4.90661 2.64306
vn -0.0260807 -0.164764 0.985988
v 1.52357 4.97668 2.61816
vn -0.702412 0.711754 0.00495962
v 1.59261 5.03227 1.77575
vn -0.539158 0.841891 -0.0229992
v 1.52356 4.91169 1.74515
vn -0.400764 -0.819579 -0.409486
v 1.52208 4.90962 1.7591
vn 0.193282 -0.978612 -0.0704339
v 1.52084 4.90836 1.78594
vn 0.105507 -0.994357 -0.0110296
v 1.5186 4.90814 1.81108
vn -0.673612 -0.738682 -0.0243909
v 1.49427 4.91925 2.1901
vn -0.711638 -0.70213 -0.0241552
v 1.49403 4.93306 1.81073
vn -0.766651 -0.641549 -0.0257248
v 1.49463 4.93493 1.78556
vn -0.992764 0.117178 -0.0262346
v 1.4963 4.93577 1.75873
vn -0.974698 0.205819 -0.0871919
v 1.49858 4.93702 1.74479
vn -0.869106 -0.295474 -0.396674
v 1.50835 4.92672 1.74268
vn -0.636507 -0.633914 -0.439331
v 1.52894 4.91471 1.79268
vn 0.701111 -0.712992 0.00927041
v 1.50114 4.90118 2.62166
vn 0.190112 -0.979892 0.0605688
v 1.47582 4.92886 2.60758
vn -0.834455 0.551066 0.00328496
v 1.54428 4.98503 1.76516
vn -0.701682 0.712047 -0.0251056
v 1.61497 5.00334 1.741
vn 0.17905 0.0096476 -0.983793
v 1.61853 5.0054 1.74837
vn 0.838259 0.40288 -0.367437
v 1.56179 4.95261 2.19206
vn 0.702126 -0.711981 0.0100765
v 1.50193 4.90297 2.63571
vn -0.419778 -0.827244 0.373434
v 1.47844 4.93198 2.61449
vn -0.710197 0.703985 0.0050742
v 1.58955 5.02959 1.76883
vn -0.693804 0.719722 -0.0252151
f 1//1 2//2 3//3
f 1//1 3//3 4//4
f 1//1 4//4 5//5
f 1//1 5//5 6//6
f 1//1 6//6 2//2
f 7//7 8//8 9//9
f 10//10 11//11 12//12
f 13//13 14//14 15//15
f 16//16 17//17 18//18
f 19//19 20//20 21//21
f 22//22 23//23 24//24
f 22//22 24//24 25//25
f 22//22 25//25 26//26
f 22//22 26//26 27//27
f 22//22 27//27 23//23
f 28//28 29//29 30//30
f 31//31 32//32 33//33
f 34//34 35//35 36//36
f 37//37 38//38 39//39
f 40//40 41//41 42//42
f 13//13 43//43 44//44
f 10//10 45//45 46//46
f 7//7 47//47 48//48
f 19//19 49//49 50//50
f 16//16 51//51 52//52
f 10//10 53//53 45//45
f 13//13 54//54 43//43
f 16//16 55//55 51//51
f 19//19 56//56 49//49
f 7//7 57//57 47//47
f 40//40 58//58 59//59
f 28//28 60//60 61//61
f 31//31 62//62 63//63
f 34//34 64//64 65//65
f 37//37 66//66 67//67
f 40//40 68//68 58//58
f 28//28 69//69 60//60
f 31//31 70//70 62//62
f 34//34 71//71 64//64
f 37//37 72//72 66//66
f 10//10 46//46 11//11
f 7//7 48//48 8//8
f 19//19 50//50 20//20
f 16//16 52//52 17//17
f 13//13 44//44 14//14
f 40//40 42//42 68//68
f 28//28 30//30 69//69
f 31//31 33//33 70//70
f 34//34 36//36 71//71
f 37//37 39//39 72//72
f 28//28 61//61 29//29
f 31//31 63//63 32//32
f 34//34 65//65 35//35
f 37//37 67//67 38//38
f 40//40 59//59 41//41
f 10//10 12//12 53//53
f 13//13 15//15 54//54
f 16//16 18//18 55//55
f 19//19 21//21 56//56
f 7//7 9//9 57//57
f 73//73 74//74 75//75
f 76//76 77//77 78//78
f 79//79 80//80 81//81
f 82//82 83//83 84//84
f 85//85 86//86 87//87
f 88//88 89//89 90//90
f 91//91 92//92 93//93
f 94//94 95//95 96//96
f 97//97 98//98 99//99
f 100//100 101//101 102//102
f 103//103 104//104 105//105
f 106//106 107//107 108//108
f 109//109 110//110 111//111
f 112//112 113//113 114//114
f 115//115 116//116 117//117
f 88//88 118//118 119//119
f 91//91 120//120 121//121
f 94//94 122//122 123//123
f 97//97 124//124 125//125
f 100//100 126//126 127//127
f 128//128 129//129 2//2
f 130//130 131//131 3//3
f 132//132 133//133 4//4
f 134//134 135//135 5//5
f 136//136 137//137 6//6
f 76//76 138//138 8//8
f 73//73 139//139 11//11
f 85//85 140//140 14//14
f 82//82 141//141 17//17
f 79//79 142//142 20//20
f 143//143 144//144 23//23
f 145//145 146//146 24//24
f 147//147 148//148 25//25
f 149//149 150//150 26//26
f 151//151 152//152 27//27
f 103//103 153//153 29//29
f 106//106 154//154 32//32
f 109//109 155//155 35//35
f 112//112 156//156 38//38
f 115//115 157//157 41//41
f 73//73 75//75 43//43
f 76//76 78//78 45//45
f 79//79 81//81 47//47
f 82//82 84//84 49//49
f 85//85 87//87 51//51
f 88//88 90//90 53//53
f 91//91 93//93 54//54
f 94//94 96//96 55//55
f 97//97 99//99 56//56
f 100//100 102//102 57//57
f 103//103 105//105 58//58
f 106//106 108//108 60//60
f 109//109 111//111 62//62
f 112//112 114//114 64//64
f 115//115 117//117 66//66
f 88//88 119//119 68//68
f 91//91 121//121 69//69
f 94//94 123//123 70//70
f 97//97 125//125 71//71
f 100//100 127//127 72//72
f 130//130 74//74 46//46
f 132//132 77//77 48//48
f 134//134 80//80 50//50
f 136//136 83//83 52//52
f 128//128 86//86 44//44
f 158//158 89//89 42//42
f 159//159 92//92 30//30
f 160//160 95//95 33//33
f 161//161 98//98 36//36
f 162//162 101//101 39//39
f 145//145 104//104 61//61
f 147//147 107//107 63//63
f 149//149 110//110 65//65
f 151//151 113//113 67//67
f 143//143 116//116 59//59
f 159//159 118//118 12//12
f 160//160 120//120 15//15
f 161//161 122//122 18//18
f 162//162 124//124 21//21
f 158//158 126//126 9//9
f 130//130 129//129 74//74
f 132//132 131//131 77//77
f 134//134 133//133 80//80
f 136//136 135//135 83//83
f 128//128 137//137 86//86
f 158//158 138//138 89//89
f 159//159 139//139 92//92
f 160//160 140//140 95//95
f 161//161 141//141 98//98
f 162//162 142//142 101//101
f 145//145 144//144 104//104
f 147//147 146//146 107//107
f 149//149 148//148 110//110
f 151//151 150//150 113//113
f 143//143 152//152 116//116
f 159//159 153//153 118//118
f 160//160 154//154 120//120
f 161//161 155//155 122//122
f 162//162 156//156 124//124
f 158//158 157//157 126//126
f 130//130 3//3 129//129
f 132//132 4//4 131//131
f 134//134 5//5 133//133
f 136//136 6//6 135//135
f 128//128 2//2 137//137
f 158//158 9//9 138//138
f 159//159 12//12 139//139
f 160//160 15//15 140//140
f 161//161 18//18 141//141
f 162//162 21//21 142//142
f 145//145 24//24 144//144
f 147//147 25//25 146//146
f 149//149 26//26 148//148
f 151//151 27//27 150//150
f 143//143 23//23 152//152
f 159//159 30//30 153//153
f 160//160 33//33 154//154
f 161//161 36//36 155//155
f 162//162 39//39 156//156
f 158//158 42//42 157//157
f 128//128 44//44 75//75
f 130//130 46//46 78//78
f 132//132 48//48 81//81
f 134//134 50//50 84//84
f 136//136 52//52 87//87
f 76//76 45//45 90//90
f 73//73 43//43 93//93
f 85//85 51//51 96//96
f 82//82 49//49 99//99
f 79//79 47//47 102//102
f 143//143 59//59 105//105
f 145//145 61//61 108//108
f 147//147 63//63 111//111
f 149//149 65//65 114//114
f 151//151 67//67 117//117
f 103//103 58//58 119//119
f 106//106 60//60 121//121
f 109//109 62//62 123//123
f 112//112 64//64 125//125
f 115//115 66//66 127//127
f 73//73 11//11 74//74
f 76//76 8//8 77//77
f 79//79 20//20 80//80
f 82//82 17//17 83//83
f 85//85 14//14 86//86
f 88//88 68//68 89//89
f 91//91 69//69 92//92
f 94//94 70//70 95//95
f 97//97 71//71 98//98
f 100//100 72//72 101//101
f 103//103 29//29 104//104
f 106//106 32//32 107//107
f 109//109 35//35 110//110
f 112//112 38//38 113//113
f 115//115 41//41 116//116
f 88//88 53//53 118//118
f 91//91 54//54 120//120
f 94//94 55//55 122//122
f 97//97 56//56 124//124
f 100//100 57//57 126//126
f 128//128 75//75 129//129
f 130//130 78//78 131//131
f 132//132 81//81 133//133
f 134//134 84//84 135//135
f 136//136 87//87 137//137
f 76//76 90//90 138//138
f 73//73 93//93 139//139
f 85//85 96//96 140//140
f 82//82 99//99 141//141
f 79//79 102//102 142//142
f 143//143 105//105 144//144
f 145//145 108//108 146//146
f 147//147 111//111 148//148
f 149//149 114//114 150//150
f 151//151 117//117 152//152
f 103//103 119//119 153//153
f 106//106 121//121 154//154
f 109//109 123//123 155//155
f 112//112 125//125 156//156
f 115//115 127//127 157//157
f 129//129 3//3 2//2
f 131//131 4//4 3//3
f 133//133 5//5 4//4
f 135//135 6//6 5//5
f 137//137 2//2 6//6
f 138//138 9//9 8//8
f 139//139 12//12 11//11
f 140//140 15//15 14//14
f 141//141 18//18 17//17
f 142//142 21//21 20//20
f 144//144 24//24 23//23
f 146//146 25//25 24//24
f 148//148 26//26 25//25
f 150//150 27//27 26//26
f 152//152 23//23 27//27
f 153//153 30//30 29//29
f 154//154 33//33 32//32
f 155//155 36//36 35//35
f 156//156 39//39 38//38
f 157//157 42//42 41//41
f 75//75 44//44 43//43
f 78//78 46//46 45//45
f 81//81 48//48 47//47
f 84//84 50//50 49//49
f 87//87 52//52 51//51
f 90//90 45//45 53//53
f 93//93 43//43 54//54
f 96//96 51//51 55//55
f 99//99 49//49 56//56
f 102//102 47//47 57//57
f 105//105 59//59 58//58
f 108//108 61//61 60//60
f 111//111 63//63 62//62
f 114//114 65//65 64//64
f 117//117 67//67 66//66
f 119//119 58//58 68//68
f 121//121 60//60 69//69
f 123//123 62//62 70//70
f 125//125 64//64 71//71
f 127//127 66//66 72//72
f 74//74 11//11 46//46
f 77//77 8//8 48//48
f 80//80 20//20 50//50
f 83//83 17//17 52//52
f 86//86 14//14 44//44
f 89//89 68//68 42//42
f 92//92 69//69 30//30
f 95//95 70//70 33//33
f 98//98 71//71 36//36
f 101//101 72//72 39//39
f 104//104 29//29 61//61
f 107//107 32//32 63//63
f 110//110 35//35 65//65
f 113//113 38//38 67//67
f 116//116 41//41 59//59
f 118//118 53//53 12//12
f 120//120 54//54 15//15
f 122//122 55//55 18//18
f 124//124 56//56 21//21
f 126//126 57//57 9//9
f 129//129 75//75 74//74
f 131//131 78//78 77//77
f 133//133 81//81 80//80
f 135//135 84//84 83//83
f 137//137 87//87 86//86
f 138//138 90//90 89//89
f 139//139 93//93 92//92
f 140//140 96//96 95//95
f 141//141 99//99 98//98
f 142//142 102//102 101//101
f 144//144 105//105 104//104
f 146//146 108//108 107//107
f 148//148 111//111 110//110
f 150//150 114//114 113//113
f 152//152 117//117 116//116
f 153//153 119//119 118//118
f 154//154 121//121 120//120
f 155//155 123//123 122//122
f 156//156 125//125 124//124
f 157//157 127//127 126//126
