# Created by Open3D 
# object name: part_078
# number of vertices: 162
# number of triangles: 320
v -0.395126 1.94554 0.173064
vn -0.992299 -0.123711 -0.00619047
v -0.3924 1.92535 0.166576
vn -0.989745 -0.135208 -0.0460828
v -0.392487 1.92499 0.178783
vn -0.990437 -0.137822 0.00631312
v -0.395059 1.94597 0.189423
vn -0.992239 -0.122666 0.0203549
v -0.3968 1.95965 0.177428
vn -0.994743 -0.102287 0.0048786
v -0.39651 1.95839 0.165284
vn -0.992416 -0.11337 -0.0475172
v -0.386221 1.96682 0.689186
vn -0.99132 -0.121372 0.0505231
v -0.383752 1.94587 0.68509
vn -0.98987 -0.136467 0.0391664
v -0.383244 1.94724 0.697216
vn -0.987378 -0.12955 0.0911132
v -0.386903 1.93336 0.432001
vn -0.246508 -0.968133 0.044178
v -0.390695 1.92346 0.191485
vn -0.0991595 -0.994207 0.0414817
v -0.385694 1.93327 0.431984
vn 0.0984554 -0.994365 0.0393083
v -0.373081 1.92541 0.160763
vn 0.118164 -0.982464 -0.144225
v -0.373285 1.92645 0.157368
vn 0.0181537 -0.318378 -0.94779
v -0.355789 1.92789 0.159982
vn 0.184033 -0.945515 -0.268575
v -0.377709 1.96261 0.159309
vn -0.124457 0.96743 -0.22043
v -0.394213 1.9613 0.164807
vn -0.135741 0.984121 -0.11437
v -0.361157 1.96539 0.164069
vn -0.112915 0.986941 -0.11488
v -0.392679 1.97019 0.377167
vn -0.47632 0.878825 -0.028024
v -0.388282 1.98141 0.659708
vn -0.771292 0.636361 -0.0124008
v -0.387259 1.98238 0.670975
vn -0.338688 0.940357 -0.0319199
v -0.347169 1.97165 0.688313
vn 0.992299 0.12371 0.00619163
v -0.344935 1.95197 0.69636
vn 0.992255 0.115038 0.0468706
v -0.344645 1.9507 0.684216
vn 0.994066 0.108653 -0.00517172
v -0.347183 1.97079 0.67197
vn 0.992239 0.122666 -0.0203547
v -0.348958 1.98537 0.682861
vn 0.989532 0.144164 -0.00651539
v -0.349046 1.985 0.695068
vn 0.989487 0.136909 0.046595
v -0.349686 1.93796 0.431169
vn 0.476367 -0.8788 0.0280222
v -0.345887 1.94781 0.671686
vn 0.339838 -0.939865 0.0341256
v -0.350835 1.93758 0.431205
vn 0.14823 -0.988215 0.0381955
v -0.356074 1.95036 0.172191
vn 0.99132 0.121372 -0.0505239
v -0.353381 1.92982 0.177909
vn 0.993499 0.107298 -0.0380265
v -0.354091 1.93009 0.165719
vn 0.989887 0.109381 -0.0903258
v -0.355462 1.97479 0.376336
vn 0.246524 0.968129 -0.0441781
v -0.357928 1.96723 0.20044
vn 0.59794 0.800335 -0.043951
v -0.359049 1.96706 0.189141
vn 0.100702 0.993931 -0.044282
v -0.368365 1.98494 0.700881
vn -0.118164 0.982465 0.144224
v -0.351991 1.98729 0.695342
vn -0.110288 0.993208 0.0370653
v -0.385046 1.98321 0.69608
vn -0.133123 0.990387 0.0375813
v -0.363737 1.94775 0.702335
vn 0.124457 -0.96743 0.22043
v -0.363826 1.94906 0.705638
vn 0.0512374 -0.239311 0.96959
v -0.381117 1.94597 0.703088
vn 0.0503682 -0.938273 0.342209
v -0.389455 1.92306 0.166302
vn 0.110288 -0.993208 -0.0370653
v -0.390474 1.92361 0.160757
vn 0.0398743 -0.963324 -0.265363
v -0.383518 1.94312 0.661204
vn -0.594691 -0.802752 0.0439437
v -0.391427 1.92422 0.202791
vn -0.594704 -0.802805 0.0427896
v -0.388065 1.98053 0.683735
vn -0.994175 -0.100929 0.0378179
v -0.386718 1.9659 0.672854
vn -0.992177 -0.122515 0.0239946
v -0.395558 1.96255 0.189957
vn -0.341356 0.939304 -0.0344019
v -0.396191 1.9625 0.201295
vn -0.775984 0.630614 -0.0132466
v -0.37762 1.96129 0.156006
vn -0.063777 0.34693 -0.93572
v -0.395014 1.9601 0.159331
vn -0.194508 0.920466 -0.338982
v -0.382396 1.9433 0.672502
vn -0.0990504 -0.994112 0.0439348
v -0.356399 1.92715 0.165564
vn 0.133123 -0.990387 -0.0375813
v -0.360329 1.96438 0.158555
vn -0.0503682 0.938273 -0.342209
v -0.391542 1.97055 0.376472
vn -0.148225 0.988216 -0.0381956
v -0.387355 1.98027 0.695924
vn -0.990029 -0.107665 0.0908361
v -0.347233 1.94905 0.696836
vn 0.135741 -0.984121 0.11437
v -0.346432 1.95026 0.702313
vn 0.194508 -0.920466 0.338981
v -0.353164 1.92895 0.201936
vn 0.773428 -0.633766 0.0122136
v -0.345254 1.94785 0.660349
vn 0.773427 -0.633744 0.0133688
v -0.357694 1.96449 0.176554
vn 0.988964 0.142805 -0.0394558
v -0.355524 1.95085 0.18854
vn 0.992177 0.122515 -0.0239948
v -0.35075 1.98689 0.670159
vn 0.0980847 0.994305 -0.0416801
v -0.350018 1.98614 0.658852
vn 0.592007 0.804792 -0.0428684
v -0.36816 1.9839 0.704276
vn -0.032006 0.422868 0.905626
v -0.350971 1.98675 0.700887
vn -0.0398752 0.963324 0.265362
v -0.380288 1.94497 0.697575
vn 0.112915 -0.986941 0.11488
v -0.354187 1.92797 0.190669
vn 0.33975 -0.939982 0.0316728
v -0.358201 1.96312 0.164428
vn 0.9871 0.131203 -0.0917556
v -0.356682 1.97486 0.375693
vn -0.0984582 0.994365 -0.0393082
v -0.385657 1.98246 0.701662
vn -0.184033 0.945516 0.268575
v -0.390382 1.92299 0.175203
vn 0.0838434 -0.996378 0.0141855
v -0.391522 1.92333 0.179338
vn -0.500272 -0.86564 0.0198789
v -0.391175 1.92319 0.166857
vn -0.375877 -0.92585 -0.0389632
v -0.383626 1.94436 0.676685
vn -0.89542 -0.443728 0.0364442
v -0.384349 1.94485 0.661409
vn -0.990274 -0.137198 0.0231145
v -0.387935 1.93417 0.431985
vn -0.898864 -0.436943 0.0335278
v -0.388231 1.98137 0.675239
vn -0.977332 0.211454 0.0104303
v -0.393439 1.96927 0.379728
vn -0.978732 0.20497 0.00843391
v -0.388667 1.97955 0.660052
vn -0.994772 -0.0998014 0.0216626
v -0.395214 1.96182 0.173685
vn -0.162654 0.984653 -0.0632633
v -0.395855 1.9608 0.165387
vn -0.590608 0.79991 -0.106426
v -0.396276 1.96154 0.177844
vn -0.697025 0.715819 -0.041946
v -0.375924 1.94747 0.155479
vn -0.0172371 -0.0411983 -0.999002
v -0.390752 1.9252 0.158033
vn -0.241629 -0.132944 -0.961219
v -0.394867 1.95828 0.15674
vn -0.257698 0.0051832 -0.966212
v -0.381522 1.94417 0.688748
vn 0.0847225 -0.994282 0.0649998
v -0.382027 1.94505 0.697071
vn -0.372984 -0.918972 0.127961
v -0.382804 1.94417 0.684641
vn -0.499456 -0.863612 0.0686838
v -0.355092 1.92735 0.174414
vn 0.161766 -0.986751 0.0124458
v -0.355875 1.92756 0.190441
vn 0.128499 -0.991005 0.0373767
v -0.372747 1.92502 0.173521
vn 0.122914 -0.992319 0.0139519
v -0.35905 1.96399 0.160289
vn 0.943772 0.24093 -0.22638
v -0.357232 1.94989 0.159481
vn 0.967014 0.111366 -0.229089
v -0.360142 1.96257 0.155964
vn 0.205922 0.0624642 -0.976573
v -0.374125 1.97278 0.37587
vn -0.123383 0.991602 -0.038764
v -0.360786 1.96703 0.188898
vn -0.118248 0.992158 -0.0404884
v -0.393879 1.96294 0.189638
vn -0.128568 0.990883 -0.0402577
v -0.386784 1.98164 0.699976
vn -0.976156 0.019346 0.216207
v -0.386707 1.98267 0.695601
vn -0.587765 0.806766 0.0605072
v -0.387602 1.98178 0.691495
vn -0.960025 0.274291 0.0558183
v -0.346231 1.94853 0.687959
vn 0.162654 -0.984653 0.0632633
v -0.345169 1.94882 0.6838
vn 0.697025 -0.715818 0.041946
v -0.345591 1.94956 0.696257
vn 0.590608 -0.79991 0.106426
v -0.353214 1.92898 0.186405
vn 0.977079 -0.212603 -0.0107866
v -0.352778 1.9308 0.201592
vn 0.993916 0.107923 -0.0219701
v -0.348883 1.93899 0.431113
vn 0.978732 -0.204969 -0.00843396
v -0.357819 1.96599 0.184959
vn 0.894666 0.445194 -0.0370765
v -0.354387 1.97409 0.378855
vn 0.898864 0.436944 -0.0335278
v -0.357096 1.96551 0.200235
vn 0.989505 0.142604 -0.023341
v -0.351063 1.98736 0.686441
vn -0.0838434 0.996378 -0.014185
v -0.35027 1.98717 0.694787
vn 0.375873 0.925852 0.0389633
v -0.349924 1.98703 0.682306
vn 0.500273 0.86564 -0.0198789
v -0.366428 1.97017 0.70588
vn 0.0172371 0.0411983 0.999002
v -0.346578 1.95208 0.704903
vn 0.257607 0.0045224 0.966239
v -0.350693 1.98515 0.703611
vn 0.239344 0.142348 0.960443
v -0.380659 1.94333 0.672745
vn 0.118256 -0.992171 0.0401502
v -0.363842 1.94631 0.689649
vn 0.123771 -0.990273 0.0635577
v -0.354739 1.92769 0.166043
vn 0.587763 -0.806767 -0.0605072
v -0.353888 1.92798 0.178497
vn 0.696229 -0.717787 -0.0068675
v -0.359419 1.9653 0.164573
vn 0.372984 0.918972 -0.127961
v -0.358374 1.96499 0.168725
vn 0.864223 0.495719 -0.0859156
v -0.38557 1.9828 0.671203
vn -0.128496 0.990997 -0.0375979
v -0.352477 1.98688 0.670463
vn -0.118229 0.992266 -0.037827
v -0.385105 1.96763 0.701882
vn -0.967014 -0.111366 0.229089
v -0.385418 1.98086 0.704387
vn -0.22428 0.0850658 0.970805
v -0.391693 1.92414 0.162496
vn -0.959199 -0.220389 -0.177105
v -0.392076 1.92385 0.171003
vn -0.865965 -0.49988 -0.0150067
v -0.39207 1.92418 0.187274
vn -0.895509 -0.443958 0.0310635
v -0.392268 1.92592 0.202474
vn -0.990287 -0.137228 0.0223746
v -0.39102 1.95637 0.431123
vn -0.99221 -0.12259 0.0221748
v -0.396586 1.96063 0.201118
vn -0.994508 -0.102529 0.0209996
v -0.396675 1.96119 0.185827
vn -0.976827 0.213977 0.00474883
v -0.396607 1.96026 0.16958
vn -0.961765 0.270135 -0.0451113
v -0.396081 1.95941 0.161117
vn -0.983049 0.00287214 -0.183321
v -0.394449 1.9453 0.160313
vn -0.97417 -0.128472 -0.18571
v -0.383071 1.94537 0.692919
vn -0.864223 -0.49572 0.0859156
v -0.388968 1.92347 0.191181
vn 0.118213 -0.992276 0.0376065
v -0.356027 1.92949 0.157257
vn 0.224174 -0.075392 -0.971629
v -0.377603 1.96405 0.171995
vn -0.123772 0.990273 -0.0635577
v -0.387558 1.98238 0.683147
vn -0.69623 0.717786 0.00686753
v -0.345365 1.95094 0.700527
vn 0.982229 0.0353037 0.184338
v -0.344838 1.95009 0.692064
vn 0.961765 -0.270135 0.0451114
v -0.34477 1.94917 0.675817
vn 0.977173 -0.212375 -0.00540584
v -0.34486 1.94973 0.660526
vn 0.993929 0.107954 -0.0212302
v -0.351332 1.96127 0.430236
vn 0.99221 0.12259 -0.0221748
v -0.349178 1.98443 0.65917
vn 0.989125 0.145318 -0.0226754
v -0.349375 1.98617 0.67437
vn 0.896016 0.442907 -0.0314373
v -0.349369 1.98651 0.690641
vn 0.86595 0.499906 0.0150084
v -0.349753 1.98621 0.699148
vn 0.950663 0.25741 0.173147
v -0.347888 1.97223 0.701051
vn 0.97417 0.128472 0.185709
v -0.347567 1.94742 0.672006
vn 0.128545 -0.9909 0.0399206
v -0.353843 1.92857 0.170148
vn 0.960025 -0.274291 -0.0558183
v -0.358642 1.96619 0.177003
vn 0.499456 0.863612 -0.0686837
v -0.368698 1.98533 0.688123
vn -0.122914 0.992319 -0.0139517
v -0.381303 1.94779 0.70568
vn -0.208192 -0.053028 0.976649
v -0.382395 1.94637 0.701355
vn -0.952218 -0.203699 0.227569
v -0.368255 1.93535 0.431597
vn 0.123379 -0.991602 0.0387641
v -0.354662 1.92872 0.161668
vn 0.975246 0.0186185 -0.220336
v -0.359924 1.96619 0.172896
vn -0.0847224 0.994282 -0.0649998
v -0.386354 1.983 0.68723
vn -0.161766 0.986751 -0.0124458
f 1//1 2//2 3//3
f 1//1 3//3 4//4
f 1//1 4//4 5//5
f 1//1 5//5 6//6
f 1//1 6//6 2//2
f 7//7 8//8 9//9
f 10//10 11//11 12//12
f 13//13 14//14 15//15
f 16//16 17//17 18//18
f 19//19 20//20 21//21
f 22//22 23//23 24//24
f 22//22 24//24 25//25
f 22//22 25//25 26//26
f 22//22 26//26 27//27
f 22//22 27//27 23//23
f 28//28 29//29 30//30
f 31//31 32//32 33//33
f 34//34 35//35 36//36
f 37//37 38//38 39//39
f 40//40 41//41 42//42
f 13//13 43//43 44//44
f 10//10 45//45 46//46
f 7//7 47//47 48//48
f 19//19 49//49 50//50
f 16//16 51//51 52//52
f 10//10 53//53 45//45
f 13//13 54//54 43//43
f 16//16 55//55 51//51
f 19//19 56//56 49//49
f 7//7 57//57 47//47
f 40//40 58//58 59//59
f 28//28 60//60 61//61
f 31//31 62//62 63//63
f 34//34 64//64 65//65
f 37//37 66//66 67//67
f 40//40 68//68 58//58
f 28//28 69//69 60//60
f 31//31 70//70 62//62
f 34//34 71//71 64//64
f 37//37 72//72 66//66
f 10//10 46//46 11//11
f 7//7 48//48 8//8
f 19//19 50//50 20//20
f 16//16 52//52 17//17
f 13//13 44//44 14//14
f 40//40 42//42 68//68
f 28//28 30//30 69//69
f 31//31 33//33 70//70
f 34//34 36//36 71//71
f 37//37 39//39 72//72
f 28//28 61//61 29//29
f 31//31 63//63 32//32
f 34//34 65//65 35//35
f 37//37 67//67 38//38
f 40//40 59//59 41//41
f 10//10 12//12 53//53
f 13//13 15//15 54//54
f 16//16 18//18 55//55
f 19//19 21//21 56//56
f 7//7 9//9 57//57
f 73//73 74//74 75//75
f 76//76 77//77 78//78
f 79//79 80//80 81//81
f 82//82 83//83 84//84
f 85//85 86//86 87//87
f 88//88 89//89 90//90
f 91//91 92//92 93//93
f 94//94 95//95 96//96
f 97//97 98//98 99//99
f 100//100 101//101 102//102
f 103//103 104//104 105//105
f 106//106 107//107 108//108
f 109//109 110//110 111//111
f 112//112 113//113 114//114
f 115//115 116//116 117//117
f 88//88 118//118 119//119
f 91//91 120//120 121//121
f 94//94 122//122 123//123
f 97//97 124//124 125//125
f 100//100 126//126 127//127
f 128//128 129//129 2//2
f 130//130 131//131 3//3
f 132//132 133//133 4//4
f 134//134 135//135 5//5
f 136//136 137//137 6//6
f 76//76 138//138 8//8
f 73//73 139//139 11//11
f 85//85 140//140 14//14
f 82//82 141//141 17//17
f 79//79 142//142 20//20
f 143//143 144//144 23//23
f 145//145 146//146 24//24
f 147//147 148//148 25//25
f 149//149 150//150 26//26
f 151//151 152//152 27//27
f 103//103 153//153 29//29
f 106//106 154//154 32//32
f 109//109 155//155 35//35
f 112//112 156//156 38//38
f 115//115 157//157 41//41
f 73//73 75//75 43//43
f 76//76 78//78 45//45
f 79//79 81//81 47//47
f 82//82 84//84 49//49
f 85//85 87//87 51//51
f 88//88 90//90 53//53
f 91//91 93//93 54//54
f 94//94 96//96 55//55
f 97//97 99//99 56//56
f 100//100 102//102 57//57
f 103//103 105//105 58//58
f 106//106 108//108 60//60
f 109//109 111//111 62//62
f 112//112 114//114 64//64
f 115//115 117//117 66//66
f 88//88 119//119 68//68
f 91//91 121//121 69//69
f 94//94 123//123 70//70
f 97//97 125//125 71//71
f 100//100 127//127 72//72
f 130//130 74//74 46//46
f 132//132 77//77 48//48
f 134//134 80//80 50//50
f 136//136 83//83 52//52
f 128//128 86//86 44//44
f 158//158 89//89 42//42
f 159//159 92//92 30//30
f 160//160 95//95 33//33
f 161//161 98//98 36//36
f 162//162 101//101 39//39
f 145//145 104//104 61//61
f 147//147 107//107 63//63
f 149//149 110//110 65//65
f 151//151 113//113 67//67
f 143//143 116//116 59//59
f 159//159 118//118 12//12
f 160//160 120//120 15//15
f 161//161 122//122 18//18
f 162//162 124//124 21//21
f 158//158 126//126 9//9
f 130//130 129//129 74//74
f 132//132 131//131 77//77
f 134//134 133//133 80//80
f 136//136 135//135 83//83
f 128//128 137//137 86//86
f 158//158 138//138 89//89
f 159//159 139//139 92//92
f 160//160 140//140 95//95
f 161//161 141//141 98//98
f 162//162 142//142 101//101
f 145//145 144//144 104//104
f 147//147 146//146 107//107
f 149//149 148//148 110//110
f 151//151 150//150 113//113
f 143//143 152//152 116//116
f 159//159 153//153 118//118
f 160//160 154//154 120//120
f 161//161 155//155 122//122
f 162//162 156//156 124//124
f 158//158 157//157 126//126
f 130//130 3//3 129//129
f 132//132 4//4 131//131
f 134//134 5//5 133//133
f 136//136 6//6 135//135
f 128//128 2//2 137//137
f 158//158 9//9 138//138
f 159//159 12//12 139//139
f 160//160 15//15 140//140
f 161//161 18//18 141//141
f 162//162 21//21 142//142
f 145//145 24//24 144//144
f 147//147 25//25 146//146
f 149//149 26//26 148//148
f 151//151 27//27 150//150
f 143//143 23//23 152//152
f 159//159 30//30 153//153
f 160//160 33//33 154//154
f 161//161 36//36 155//155
f 162//162 39//39 156//156
f 158//158 42//42 157//157
f 128//128 44//44 75//75
f 130//130 46//46 78//78
f 132//132 48//48 81//81
f 134//134 50//50 84//84
f 136//136 52//52 87//87
f 76//76 45//45 90//90
f 73//73 43//43 93//93
f 85//85 51//51 96//96
f 82//82 49//49 99//99
f 79//79 47//47 102//102
f 143//143 59//59 105//105
f 145//145 61//61 108//108
f 147//147 63//63 111//111
f 149//149 65//65 114//114
f 151//151 67//67 117//117
f 103//103 58//58 119//119
f 106//106 60//60 121//121
f 109//109 62//62 123//123
f 112//112 64//64 125//125
f 115//115 66//66 127//127
f 73//73 11//11 74//74
f 76//76 8//8 77//77
f 79//79 20//20 80//80
f 82//82 17//17 83//83
f 85//85 14//14 86//86
f 88//88 68//68 89//89
f 91//91 69//69 92//92
f 94//94 70//70 95//95
f 97//97 71//71 98//98
f 100//100 72//72 101//101
f 103//103 29//29 104//104
f 106//106 32//32 107//107
f 109//109 35//35 110//110
f 112//112 38//38 113//113
f 115//115 41//41 116//116
f 88//88 53//53 118//118
f 91//91 54//54 120//120
f 94//94 55//55 122//122
f 97//97 56//56 124//124
f 100//100 57//57 126//126
f 128//128 75//75 129//129
f 130//130 78//78 131//131
f 132//132 81//81 133//133
f 134//134 84//84 135//135
f 136//136 87//87 137//137
f 76//76 90//90 138//138
f 73//73 93//93 139//139
f 85//85 96//96 140//140
f 82//82 99//99 141//141
f 79//79 102//102 142//142
f 143//143 105//105 144//144
f 145//145 108//108 146//146
f 147//147 111//111 148//148
f 149//149 114//114 150//150
f 151//151 117//117 152//152
f 103//103 119//119 153//153
f 106//106 121//121 154//154
f 109//109 123//123 155//155
f 112//112 125//125 156//156
f 115//115 127//127 157//157
f 129//129 3//3 2//2
f 131//131 4//4 3//3
f 133//133 5//5 4//4
f 135//135 6//6 5//5
f 137//137 2//2 6//6
f 138//138 9//9 8//8
f 139//139 12//12 11//11
f 140//140 15//15 14//14
f 141//141 18//18 17//17
f 142//142 21//21 20//20
f 144//144 24//24 23//23
f 146//146 25//25 24//24
f 148//148 26//26 25//25
f 150//150 27//27 26//26
f 152//152 23//23 27//27
f 153//153 30//30 29//29
f 154//154 33//33 32//32
f 155//155 36//36 35//35
f 156//156 39//39 38//38
f 157//157 42//42 41//41
f 75//75 44//44 43//43
f 78//78 46//46 45//45
f 81//81 48//48 47//47
f 84//84 50//50 49//49
f 87//87 52//52 51//51
f 90//90 45//45 53//53
f 93//93 43//43 54//54
f 96//96 51//51 55//55
f 99//99 49//49 56//56
f 102//102 47//47 57//57
f 105//105 59//59 58//58
f 108//108 61//61 60//60
f 111//111 63//63 62//62
f 114//114 65//65 64//64
f 117//117 67//67 66//66
f 119//119 58//58 68//68
f 121//121 60//60 69//69
f 123//123 62//62 70//70
f 125//125 64//64 71//71
f 127//127 66//66 72//72
f 74//74 11//11 46//46
f 77//77 8//8 48//48
f 80//80 20//20 50//50
f 83//83 17//17 52//52
f 86//86 14//14 44//44
f 89//89 68//68 42//42
f 92//92 69//69 30//30
f 95//95 70//70 33//33
f 98//98 71//71 36//36
f 101//101 72//72 39//39
f 104//104 29//29 61//61
f 107//107 32//32 63//63
f 110//110 35//35 65//65
f 113//113 38//38 67//67
f 116//116 41//41 59//59
f 118//118 53//53 12//12
f 120//120 54//54 15//15
f 122//122 55//55 18//18
f 124//124 56//56 21//21
f 126//126 57//57 9//9
f 129//129 75//75 74//74
f 131//131 78//78 77//77
f 133//133 81//81 80//80
f 135//135 84//84 83//83
f 137//137 87//87 86//86
f 138//138 90//90 89//89
f 139//139 93//93 92//92
f 140//140 96//96 95//95
f 141//141 99//99 98//98
f 142//142 102//102 101//101
f 144//144 105//105 104//104
f 146//146 108//108 107//107
f 148//148 111//111 110//110
f 150//150 114//114 113//113
f 152//152 117//117 116//116
f 153//153 119//119 118//118
f 154//154 121//121 120//120
f 155//155 123//123 122//122
f 156//156 125//125 124//124
f 157//157 127//127 126//126
