# Created by Open3D 
# object name: part_009
# number of vertices: 162
# number of triangles: 320
v 1.05131 1.99374 0.475966
vn 0.110505 -0.992585 0.0506239
v 1.05202 1.99532 0.496222
vn 0.354921 -0.929442 0.100836
v 1.04711 1.99463 0.496535
vn 0.0235633 -0.99633 0.0822885
v 1.04489 1.99361 0.475484
vn -0.0751706 -0.996709 0.0303404
v 1.05094 1.99329 0.461813
vn 0.0347176 -0.999263 -0.0164031
v 1.05567 1.99403 0.463132
vn 0.364029 -0.930245 0.0461286
v 0.851113 2.01079 0.453264
vn -0.283108 -0.959069 0.00598905
v 0.850721 2.01135 0.474264
vn -0.207259 -0.976675 0.056114
v 0.846191 2.01284 0.472881
vn -0.518511 -0.855069 0.00178413
v 0.948911 2.00573 0.487508
vn -0.120502 -0.0998453 0.987679
v 1.04229 1.99878 0.498086
vn -0.112943 -0.0424253 0.992695
v 0.949177 2.00904 0.487654
vn -0.110142 0.0295461 0.993477
v 1.05867 2.04895 0.496986
vn 0.325463 -0.00135426 0.945554
v 1.06009 2.0488 0.495954
vn 0.971186 -0.0793726 0.224718
v 1.06315 2.09758 0.495237
vn 0.543942 -0.0025023 0.839119
v 1.06277 2.04751 0.45973
vn 0.523073 -0.0708984 -0.849334
v 1.05673 2.00129 0.460325
vn 0.296373 -0.057934 -0.953314
v 1.06493 2.09403 0.457635
vn 0.297084 -0.0498672 -0.953548
v 0.973893 2.00245 0.45076
vn 0.0961001 -0.176079 -0.979674
v 0.864137 2.01033 0.438748
vn 0.0736233 -0.355269 -0.93186
v 0.860015 2.01315 0.43778
vn 0.0992926 -0.118244 -0.988008
v 0.860802 2.12034 0.450086
vn -0.110518 0.992584 -0.0506254
v 0.855695 2.12032 0.469763
vn -0.360499 0.931417 -0.0500351
v 0.860424 2.12106 0.471082
vn -0.0325029 0.999471 -0.00121041
v 0.867178 2.12049 0.451002
vn 0.0751695 0.996709 -0.0303404
v 0.864247 2.11972 0.43636
vn -0.021925 0.994756 -0.0999022
v 0.859339 2.11903 0.436673
vn -0.357514 0.927951 -0.105311
v 0.958145 2.11014 0.48448
vn -0.0961002 0.176077 0.979674
v 0.864763 2.11709 0.473957
vn -0.105053 0.11914 0.987304
v 0.957826 2.10684 0.484817
vn -0.108562 0.0474198 0.992958
v 1.061 2.1033 0.472788
vn 0.283121 0.959066 -0.00598719
v 1.05682 2.10434 0.493352
vn 0.198347 0.979814 0.0249657
v 1.06153 2.10279 0.493104
vn 0.512913 0.85704 0.0490092
v 0.983127 2.10686 0.447731
vn 0.120502 0.0998464 -0.987679
v 1.05145 2.10253 0.455798
vn 0.134105 0.286667 -0.948598
v 1.05566 2.09968 0.455967
vn 0.120185 0.0424243 -0.991845
v 0.852695 2.0654 0.435909
vn -0.325464 0.00135415 -0.945554
v 0.858851 2.11157 0.434266
vn -0.0817023 -0.0176136 -0.996501
v 0.85065 2.01884 0.436956
vn -0.0824169 -0.0256798 -0.996267
v 0.848594 2.06684 0.473165
vn -0.523082 0.070899 0.849328
v 0.847424 2.06691 0.471837
vn -0.996107 0.0881416 0.00163032
v 0.844182 2.01819 0.474205
vn -0.713205 0.0620685 0.698202
v 1.05251 2.00278 0.498629
vn 0.0817029 0.0176135 0.996501
v 1.05455 2.00027 0.49806
vn 0.540207 -0.044659 0.840346
v 0.859915 2.01182 0.477097
vn -0.133812 -0.28433 0.949342
v 1.03773 1.99667 0.497261
vn -0.129992 -0.284641 0.94978
v 0.854544 2.01001 0.439543
vn -0.196523 -0.979572 -0.0426226
v 0.857369 2.00958 0.454219
vn -0.100931 -0.994515 0.027419
v 1.0466 1.99726 0.458938
vn 0.105835 -0.119825 -0.987138
v 1.04195 1.99519 0.458912
vn 0.0769313 -0.35981 -0.929849
v 1.06394 2.04744 0.461058
vn 0.994697 -0.0894424 -0.050767
v 1.05857 1.99886 0.461513
vn 0.709475 -0.104226 -0.696981
v 0.855705 2.01467 0.476928
vn -0.119293 -0.0418806 0.991975
v 1.06071 2.09551 0.495939
vn 0.0824169 0.0256798 0.996267
v 1.06718 2.09616 0.45869
vn 0.713206 -0.0620675 -0.698202
v 0.974468 2.00573 0.450452
vn 0.108562 -0.0474199 -0.992958
v 0.849834 2.01156 0.439791
vn -0.515248 -0.855365 -0.053581
v 0.854634 2.11306 0.47257
vn -0.296375 0.0579344 0.953313
v 0.852788 2.11549 0.471382
vn -0.709475 0.104226 0.696981
v 1.04722 2.10402 0.494147
vn -0.0732318 0.357169 0.931165
v 0.869408 2.11916 0.473983
vn -0.0770495 0.357501 0.930729
v 1.06064 2.103 0.458631
vn 0.209338 0.975064 -0.0736775
v 1.0547 2.10452 0.472266
vn 0.100933 0.994515 -0.027419
v 0.869073 2.11557 0.434809
vn 0.113462 0.0419749 -0.992655
v 0.873631 2.11767 0.435634
vn 0.130041 0.282659 -0.950365
v 0.851266 2.06555 0.436941
vn -0.959123 0.0769239 -0.272334
v 0.856812 2.11408 0.434835
vn -0.540211 0.0446592 -0.840344
v 0.846433 2.02032 0.47526
vn -0.297088 0.0498674 0.953547
v 1.05135 2.1012 0.495115
vn -0.0987028 0.118598 0.988024
v 1.06517 2.10151 0.460014
vn 0.521749 0.853081 -0.00559679
v 0.983117 2.10352 0.447615
vn 0.110142 -0.0295463 -0.993477
v 0.848206 2.01677 0.437658
vn -0.543942 0.00250329 -0.839119
v 1.04876 1.99995 0.498627
vn -0.0460766 0.0189571 0.998758
v 1.04691 1.99678 0.498229
vn -0.0535894 -0.228534 0.97206
v 1.05192 1.99804 0.498428
vn 0.110558 -0.172532 0.97878
v 0.8539 2.01147 0.4758
vn -0.153833 -0.68275 0.714274
v 0.859859 2.01003 0.475342
vn -0.0951099 -0.993036 0.0695212
v 0.948785 2.00312 0.486665
vn -0.139223 -0.693011 0.707356
v 0.857981 2.01004 0.43873
vn 0.00116652 -0.738097 -0.674694
v 0.972593 2 0.451643
vn 0.0119357 -0.746225 -0.665587
v 0.863686 2.00869 0.44058
vn -0.0835828 -0.995884 -0.0350476
v 1.05304 1.99844 0.459729
vn 0.172147 -0.0578418 -0.983372
v 1.05607 1.99658 0.460754
vn 0.31909 -0.245923 -0.915261
v 1.05112 1.9953 0.459956
vn 0.156937 -0.302635 -0.940097
v 1.06283 2.04794 0.474904
vn 0.990094 -0.0843061 0.112275
v 1.05576 2.00006 0.496469
vn 0.983353 -0.116929 0.139081
v 1.05941 1.99878 0.463341
vn 0.989399 -0.118933 0.0833379
v 0.849561 2.01691 0.476038
vn -0.174624 0.0299035 0.984181
v 0.846253 2.01555 0.475106
vn -0.352607 -0.133083 0.92626
v 0.850903 2.01347 0.476002
vn -0.202789 -0.215839 0.955139
v 1.05752 2.09895 0.495755
vn -0.0436113 0.0468966 0.997947
v 1.05101 2.09641 0.495458
vn -0.105972 0.0400569 0.993562
v 1.05363 2.04941 0.497345
vn -0.0464331 0.0330684 0.998374
v 1.06673 2.09953 0.459128
vn 0.872088 0.471361 -0.131458
v 1.06573 2.1003 0.473254
vn 0.874957 0.477906 0.0778153
v 1.06803 2.0962 0.460515
vn 0.995335 -0.0518163 0.0813897
v 0.978882 2.05462 0.448965
vn 0.109356 -0.0384851 -0.993257
v 1.05536 2.09488 0.455926
vn 0.113596 -0.03698 -0.992839
v 1.04715 2.00204 0.45862
vn 0.113268 -0.0406836 -0.992731
v 0.848522 2.01345 0.438439
vn -0.826633 -0.487367 -0.281339
v 0.850401 2.01409 0.437432
vn -0.14408 -0.206479 -0.967785
v 0.851722 2.01146 0.438287
vn -0.217686 -0.631827 -0.743914
v 0.858317 2.11591 0.473166
vn -0.172146 0.0578417 0.983372
v 0.860241 2.11905 0.47294
vn -0.156938 0.302635 0.940097
v 0.855293 2.11777 0.472141
vn -0.31909 0.245922 0.915261
v 1.05338 2.10431 0.494165
vn 0.000737371 0.736645 0.676279
v 1.04767 2.10566 0.492315
vn 0.0860902 0.99621 0.0123955
v 0.958474 2.11267 0.483487
vn -0.0119356 0.746225 0.665586
v 1.05746 2.10288 0.457095
vn 0.15696 0.680521 -0.71572
v 0.982282 2.10955 0.448465
vn 0.139223 0.693011 -0.707356
v 1.0515 2.10431 0.457553
vn 0.0968257 0.991699 -0.084607
v 0.862599 2.1144 0.434269
vn 0.046076 -0.0189571 -0.998758
v 0.859441 2.11631 0.434467
vn -0.110557 0.172531 -0.97878
v 0.864454 2.11757 0.434666
vn 0.0535892 0.228535 -0.97206
v 0.849334 2.06612 0.450694
vn -0.990094 0.0843058 -0.112275
v 0.85195 2.11557 0.469554
vn -0.989063 0.118939 -0.0872188
v 0.855598 2.11429 0.436426
vn -0.982837 0.116624 -0.142934
v 0.856001 2.01947 0.476969
vn -0.11274 0.0369128 0.992939
v 0.853427 2.06646 0.474643
vn -0.171839 0.0437468 0.984153
v 1.06096 2.10026 0.495463
vn 0.144084 0.206482 0.967783
v 1.05624 2.10236 0.495166
vn -0.0077355 0.289927 0.957017
v 1.06511 2.0988 0.457789
vn 0.352605 0.133081 -0.926261
v 1.06365 2.10148 0.458133
vn 0.379392 0.574912 -0.72494
v 0.860353 2.01794 0.437437
vn 0.106531 -0.040101 -0.9935
v 0.868564 2.11078 0.434744
vn 0.106857 -0.0364153 -0.993607
v 0.846423 2.01377 0.452461
vn -0.874957 -0.477906 -0.0778159
v 0.846982 2.01687 0.439252
vn -0.988773 0.0495069 -0.140985
v 1.05365 1.99702 0.497469
vn 0.747217 -0.613724 0.254969
v 1.05015 1.99563 0.497719
vn 0.107297 -0.616342 0.780135
v 1.04374 1.99531 0.497327
vn -0.125012 -0.685202 0.717545
v 1.03788 1.99488 0.495529
vn -0.0898755 -0.993482 0.0701129
v 0.951158 2.00136 0.464414
vn -0.0880583 -0.995697 0.028882
v 1.0417 1.99353 0.460767
vn -0.0790099 -0.99651 -0.0269278
v 1.04782 1.99387 0.460257
vn 0.0315464 -0.737539 -0.674567
v 1.05417 1.99422 0.461244
vn 0.26901 -0.67328 -0.688714
v 1.05754 1.99565 0.462142
vn 0.77523 -0.623763 -0.0996872
v 1.05649 1.99589 0.476283
vn 0.777981 -0.61865 0.109627
v 0.847706 2.01287 0.474762
vn -0.37939 -0.574913 0.72494
v 1.0428 2.00357 0.498151
vn -0.106298 0.036364 0.993669
v 1.06438 2.09748 0.493643
vn 0.989315 -0.0495197 0.137124
v 1.05793 2.04789 0.458252
vn 0.171839 -0.0437466 -0.984153
v 0.855117 2.01199 0.437729
vn 0.00773558 -0.289927 -0.957018
v 0.85382 2.1187 0.470753
vn -0.779563 0.625117 0.0388659
v 0.857192 2.12013 0.471651
vn -0.269012 0.673274 0.68872
v 0.86354 2.12048 0.472638
vn -0.0280849 0.739098 0.673012
v 0.869657 2.12082 0.472128
vn 0.0808573 0.996656 0.011804
v 0.961005 2.1127 0.461184
vn 0.0880583 0.995697 -0.028882
v 0.873484 2.11947 0.437367
vn 0.0921733 0.991418 -0.0927014
v 0.867622 2.11904 0.435568
vn 0.127148 0.686386 -0.716036
v 0.861207 2.11872 0.435176
vn -0.107297 0.616343 -0.780134
v 0.857709 2.11733 0.435426
vn -0.729782 0.607765 -0.313112
v 0.855657 2.11818 0.449432
vn -0.777979 0.618653 -0.109626
v 0.864212 2.11231 0.474276
vn -0.112413 0.0406053 0.992832
v 1.05964 2.10289 0.494608
vn 0.21769 0.631826 0.743913
v 1.06046 2.10088 0.456893
vn 0.202788 0.215839 -0.955139
v 0.857731 2.06494 0.43555
vn 0.0464331 -0.0330685 -0.998374
v 0.843335 2.01815 0.47238
vn -0.995025 0.0515287 -0.0852633
v 0.844632 2.01481 0.473767
vn -0.8769 -0.475432 0.0707939
v 0.953493 2.05794 0.486313
vn -0.109356 0.0384851 0.993257
v 1.06284 2.1009 0.494456
vn 0.844542 0.486828 0.22304
v 1.0618 2.09744 0.456857
vn 0.174623 -0.0299037 -0.984181
v 0.853844 2.0154 0.437141
vn 0.0436119 -0.0468967 -0.997947
f 1//1 2//2 3//3
f 1//1 3//3 4//4
f 1//1 4//4 5//5
f 1//1 5//5 6//6
f 1//1 6//6 2//2
f 7//7 8//8 9//9
f 10//10 11//11 12//12
f 13//13 14//14 15//15
f 16//16 17//17 18//18
f 19//19 20//20 21//21
f 22//22 23//23 24//24
f 22//22 24//24 25//25
f 22//22 25//25 26//26
f 22//22 26//26 27//27
f 22//22 27//27 23//23
f 28//28 29//29 30//30
f 31//31 32//32 33//33
f 34//34 35//35 36//36
f 37//37 38//38 39//39
f 40//40 41//41 42//42
f 13//13 43//43 44//44
f 10//10 45//45 46//46
f 7//7 47//47 48//48
f 19//19 49//49 50//50
f 16//16 51//51 52//52
f 10//10 53//53 45//45
f 13//13 54//54 43//43
f 16//16 55//55 51//51
f 19//19 56//56 49//49
f 7//7 57//57 47//47
f 40//40 58//58 59//59
f 28//28 60//60 61//61
f 31//31 62//62 63//63
f 34//34 64//64 65//65
f 37//37 66//66 67//67
f 40//40 68//68 58//58
f 28//28 69//69 60//60
f 31//31 70//70 62//62
f 34//34 71//71 64//64
f 37//37 72//72 66//66
f 10//10 46//46 11//11
f 7//7 48//48 8//8
f 19//19 50//50 20//20
f 16//16 52//52 17//17
f 13//13 44//44 14//14
f 40//40 42//42 68//68
f 28//28 30//30 69//69
f 31//31 33//33 70//70
f 34//34 36//36 71//71
f 37//37 39//39 72//72
f 28//28 61//61 29//29
f 31//31 63//63 32//32
f 34//34 65//65 35//35
f 37//37 67//67 38//38
f 40//40 59//59 41//41
f 10//10 12//12 53//53
f 13//13 15//15 54//54
f 16//16 18//18 55//55
f 19//19 21//21 56//56
f 7//7 9//9 57//57
f 73//73 74//74 75//75
f 76//76 77//77 78//78
f 79//79 80//80 81//81
f 82//82 83//83 84//84
f 85//85 86//86 87//87
f 88//88 89//89 90//90
f 91//91 92//92 93//93
f 94//94 95//95 96//96
f 97//97 98//98 99//99
f 100//100 101//101 102//102
f 103//103 104//104 105//105
f 106//106 107//107 108//108
f 109//109 110//110 111//111
f 112//112 113//113 114//114
f 115//115 116//116 117//117
f 88//88 118//118 119//119
f 91//91 120//120 121//121
f 94//94 122//122 123//123
f 97//97 124//124 125//125
f 100//100 126//126 127//127
f 128//128 129//129 2//2
f 130//130 131//131 3//3
f 132//132 133//133 4//4
f 134//134 135//135 5//5
f 136//136 137//137 6//6
f 76//76 138//138 8//8
f 73//73 139//139 11//11
f 85//85 140//140 14//14
f 82//82 141//141 17//17
f 79//79 142//142 20//20
f 143//143 144//144 23//23
f 145//145 146//146 24//24
f 147//147 148//148 25//25
f 149//149 150//150 26//26
f 151//151 152//152 27//27
f 103//103 153//153 29//29
f 106//106 154//154 32//32
f 109//109 155//155 35//35
f 112//112 156//156 38//38
f 115//115 157//157 41//41
f 73//73 75//75 43//43
f 76//76 78//78 45//45
f 79//79 81//81 47//47
f 82//82 84//84 49//49
f 85//85 87//87 51//51
f 88//88 90//90 53//53
f 91//91 93//93 54//54
f 94//94 96//96 55//55
f 97//97 99//99 56//56
f 100//100 102//102 57//57
f 103//103 105//105 58//58
f 106//106 108//108 60//60
f 109//109 111//111 62//62
f 112//112 114//114 64//64
f 115//115 117//117 66//66
f 88//88 119//119 68//68
f 91//91 121//121 69//69
f 94//94 123//123 70//70
f 97//97 125//125 71//71
f 100//100 127//127 72//72
f 130//130 74//74 46//46
f 132//132 77//77 48//48
f 134//134 80//80 50//50
f 136//136 83//83 52//52
f 128//128 86//86 44//44
f 158//158 89//89 42//42
f 159//159 92//92 30//30
f 160//160 95//95 33//33
f 161//161 98//98 36//36
f 162//162 101//101 39//39
f 145//145 104//104 61//61
f 147//147 107//107 63//63
f 149//149 110//110 65//65
f 151//151 113//113 67//67
f 143//143 116//116 59//59
f 159//159 118//118 12//12
f 160//160 120//120 15//15
f 161//161 122//122 18//18
f 162//162 124//124 21//21
f 158//158 126//126 9//9
f 130//130 129//129 74//74
f 132//132 131//131 77//77
f 134//134 133//133 80//80
f 136//136 135//135 83//83
f 128//128 137//137 86//86
f 158//158 138//138 89//89
f 159//159 139//139 92//92
f 160//160 140//140 95//95
f 161//161 141//141 98//98
f 162//162 142//142 101//101
f 145//145 144//144 104//104
f 147//147 146//146 107//107
f 149//149 148//148 110//110
f 151//151 150//150 113//113
f 143//143 152//152 116//116
f 159//159 153//153 118//118
f 160//160 154//154 120//120
f 161//161 155//155 122//122
f 162//162 156//156 124//124
f 158//158 157//157 126//126
f 130//130 3//3 129//129
f 132//132 4//4 131//131
f 134//134 5//5 133//133
f 136//136 6//6 135//135
f 128//128 2//2 137//137
f 158//158 9//9 138//138
f 159//159 12//12 139//139
f 160//160 15//15 140//140
f 161//161 18//18 141//141
f 162//162 21//21 142//142
f 145//145 24//24 144//144
f 147//147 25//25 146//146
f 149//149 26//26 148//148
f 151//151 27//27 150//150
f 143//143 23//23 152//152
f 159//159 30//30 153//153
f 160//160 33//33 154//154
f 161//161 36//36 155//155
f 162//162 39//39 156//156
f 158//158 42//42 157//157
f 128//128 44//44 75//75
f 130//130 46//46 78//78
f 132//132 48//48 81//81
f 134//134 50//50 84//84
f 136//136 52//52 87//87
f 76//76 45//45 90//90
f 73//73 43//43 93//93
f 85//85 51//51 96//96
f 82//82 49//49 99//99
f 79//79 47//47 102//102
f 143//143 59//59 105//105
f 145//145 61//61 108//108
f 147//147 63//63 111//111
f 149//149 65//65 114//114
f 151//151 67//67 117//117
f 103//103 58//58 119//119
f 106//106 60//60 121//121
f 109//109 62//62 123//123
f 112//112 64//64 125//125
f 115//115 66//66 127//127
f 73//73 11//11 74//74
f 76//76 8//8 77//77
f 79//79 20//20 80//80
f 82//82 17//17 83//83
f 85//85 14//14 86//86
f 88//88 68//68 89//89
f 91//91 69//69 92//92
f 94//94 70//70 95//95
f 97//97 71//71 98//98
f 100//100 72//72 101//101
f 103//103 29//29 104//104
f 106//106 32//32 107//107
f 109//109 35//35 110//110
f 112//112 38//38 113//113
f 115//115 41//41 116//116
f 88//88 53//53 118//118
f 91//91 54//54 120//120
f 94//94 55//55 122//122
f 97//97 56//56 124//124
f 100//100 57//57 126//126
f 128//128 75//75 129//129
f 130//130 78//78 131//131
f 132//132 81//81 133//133
f 134//134 84//84 135//135
f 136//136 87//87 137//137
f 76//76 90//90 138//138
f 73//73 93//93 139//139
f 85//85 96//96 140//140
f 82//82 99//99 141//141
f 79//79 102//102 142//142
f 143//143 105//105 144//144
f 145//145 108//108 146//146
f 147//147 111//111 148//148
f 149//149 114//114 150//150
f 151//151 117//117 152//152
f 103//103 119//119 153//153
f 106//106 121//121 154//154
f 109//109 123//123 155//155
f 112//112 125//125 156//156
f 115//115 127//127 157//157
f 129//129 3//3 2//2
f 131//131 4//4 3//3
f 133//133 5//5 4//4
f 135//135 6//6 5//5
f 137//137 2//2 6//6
f 138//138 9//9 8//8
f 139//139 12//12 11//11
f 140//140 15//15 14//14
f 141//141 18//18 17//17
f 142//142 21//21 20//20
f 144//144 24//24 23//23
f 146//146 25//25 24//24
f 148//148 26//26 25//25
f 150//150 27//27 26//26
f 152//152 23//23 27//27
f 153//153 30//30 29//29
f 154//154 33//33 32//32
f 155//155 36//36 35//35
f 156//156 39//39 38//38
f 157//157 42//42 41//41
f 75//75 44//44 43//43
f 78//78 46//46 45//45
f 81//81 48//48 47//47
f 84//84 50//50 49//49
f 87//87 52//52 51//51
f 90//90 45//45 53//53
f 93//93 43//43 54//54
f 96//96 51//51 55//55
f 99//99 49//49 56//56
f 102//102 47//47 57//57
f 105//105 59//59 58//58
f 108//108 61//61 60//60
f 111//111 63//63 62//62
f 114//114 65//65 64//64
f 117//117 67//67 66//66
f 119//119 58//58 68//68
f 121//121 60//60 69//69
f 123//123 62//62 70//70
f 125//125 64//64 71//71
f 127//127 66//66 72//72
f 74//74 11//11 46//46
f 77//77 8//8 48//48
f 80//80 20//20 50//50
f 83//83 17//17 52//52
f 86//86 14//14 44//44
f 89//89 68//68 42//42
f 92//92 69//69 30//30
f 95//95 70//70 33//33
f 98//98 71//71 36//36
f 101//101 72//72 39//39
f 104//104 29//29 61//61
f 107//107 32//32 63//63
f 110//110 35//35 65//65
f 113//113 38//38 67//67
f 116//116 41//41 59//59
f 118//118 53//53 12//12
f 120//120 54//54 15//15
f 122//122 55//55 18//18
f 124//124 56//56 21//21
f 126//126 57//57 9//9
f 129//129 75//75 74//74
f 131//131 78//78 77//77
f 133//133 81//81 80//80
f 135//135 84//84 83//83
f 137//137 87//87 86//86
f 138//138 90//90 89//89
f 139//139 93//93 92//92
f 140//140 96//96 95//95
f 141//141 99//99 98//98
f 142//142 102//102 101//101
f 144//144 105//105 104//104
f 146//146 108//108 107//107
f 148//148 111//111 110//110
f 150//150 114//114 113//113
f 152//152 117//117 116//116
f 153//153 119//119 118//118
f 154//154 121//121 120//120
f 155//155 123//123 122//122
f 156//156 125//125 124//124
f 157//157 127//127 126//126
