# Created by Open3D 
# object name: part_012
# number of vertices: 162
# number of triangles: 320
v 0.825065 3.35857 0.857904
vn 0.995606 -0.0853963 -0.0384164
v 0.82555 3.38048 0.87834
vn 0.99262 0.0805654 0.090633
v 0.823149 3.34385 0.87869
vn 0.979192 -0.137233 0.149502
v 0.818027 3.31017 0.857643
vn 0.979063 -0.199676 -0.039552
v 0.821847 3.34438 0.843761
vn 0.944624 -0.127665 -0.302304
v 0.824309 3.38099 0.845052
vn 0.979427 0.0868165 -0.182168
v 0.504638 1.85112 0.846751
vn 0.94438 -0.326389 -0.0402002
v 0.508816 1.86505 0.86775
vn 0.949903 -0.275022 0.148483
v 0.49611 1.83062 0.866874
vn 0.873764 -0.478597 0.0864944
v 0.653925 2.60699 0.875911
vn 0.0665277 -0.0215213 0.997552
v 0.798696 3.31042 0.881319
vn 0.0543204 -0.018501 0.998352
v 0.638793 2.6102 0.876767
vn 0.0391228 -0.0157076 0.999111
v 0.582954 3.44864 0.890525
vn 0.050082 0.0454653 0.99771
v 0.584989 3.45844 0.889411
vn 0.181045 0.726347 0.663056
v 0.360386 3.49705 0.899205
vn 0.0535131 0.0903516 0.994471
v 0.581557 3.44922 0.853047
vn -0.0242582 0.0760239 -0.996811
v 0.790662 3.38912 0.843804
vn -0.0310508 0.0401223 -0.998712
v 0.366019 3.47925 0.861013
vn -0.0327799 0.0404893 -0.998642
v 0.685554 2.76329 0.837736
vn -0.00792244 0.00908168 -0.999927
v 0.516898 1.93671 0.831733
vn 0.0334763 2.70571e-05 -0.99944
v 0.498596 1.9061 0.831544
vn -0.0203981 0.0113754 -0.999727
v 0.00296273 1.9576 0.867082
vn -0.995606 0.0853955 0.0384165
v 0.00397465 1.93508 0.886817
vn -0.983213 -0.0844329 0.161749
v 0.00643697 1.97169 0.888108
vn -0.965192 0.131479 0.226091
v 0.0100164 2.006 0.867778
vn -0.979063 0.199677 0.0395505
v 0.00513509 1.97222 0.853179
vn -0.964356 0.135775 -0.227116
v 0.00273394 1.93559 0.853529
vn -0.990367 -0.0823198 -0.111338
v 0.175825 2.70847 0.895285
vn 0.00792245 -0.00908168 0.999927
v 0.0310555 2.00505 0.889932
vn 0.0201528 -0.0121114 0.999724
v 0.190975 2.70526 0.894915
vn 0.0353613 -0.0149092 0.999263
v 0.32339 3.46506 0.878234
vn -0.94438 0.326389 0.0402009
v 0.32077 3.45048 0.899049
vn -0.935903 0.269268 0.227111
v 0.333415 3.48494 0.898283
vn -0.864358 0.474729 0.165887
v 0.207454 2.86477 0.857111
vn -0.0665281 0.0215214 -0.997552
v 0.309948 3.37995 0.861558
vn -0.108804 0.030776 -0.993587
v 0.32822 3.41058 0.860944
vn -0.0542514 0.0194638 -0.998338
v 0.24533 1.86743 0.841344
vn -0.050082 -0.045465 -0.99771
v 0.0361861 1.92754 0.849533
vn -0.043409 -0.00951593 -0.999012
v 0.460828 1.83741 0.832324
vn -0.04168 -0.00988271 -0.999082
v 0.246727 1.86685 0.878823
vn 0.0242583 -0.0760235 0.996811
v 0.244603 1.85709 0.877563
vn -0.132024 -0.746497 0.65216
v 0.469269 1.81846 0.86943
vn 0.0205446 -0.120794 0.992465
v 0.792098 3.38853 0.882337
vn 0.0434091 0.00951604 0.999012
v 0.805967 3.40247 0.881149
vn 0.0649116 0.0879327 0.994009
v 0.518336 1.93612 0.870311
vn 0.108238 -0.030631 0.993653
v 0.802935 3.27502 0.880217
vn 0.108347 -0.0301092 0.993657
v 0.507514 1.86559 0.832821
vn 0.91579 -0.263308 -0.30331
v 0.517896 1.89819 0.847197
vn 0.975752 -0.215255 -0.0396668
v 0.797229 3.31102 0.841938
vn -0.019999 0.0121933 -0.999726
v 0.801497 3.27561 0.841638
vn 0.0346412 0.000328112 -0.9994
v 0.583681 3.45898 0.854306
vn 0.100334 0.621087 -0.777293
v 0.804597 3.40303 0.844383
vn -0.00914581 0.118375 -0.992927
v 0.500064 1.90549 0.870925
vn 0.0541449 -0.0193266 0.998346
v 0.367456 3.47866 0.899545
vn 0.0416799 0.00988265 0.999082
v 0.359015 3.49761 0.86244
vn -0.0205446 0.120794 -0.992465
v 0.670813 2.76844 0.838121
vn -0.0353612 0.0149092 -0.999263
v 0.494869 1.83113 0.833586
vn 0.859991 -0.475079 -0.186323
v 0.0376223 1.92695 0.888065
vn 0.0310508 -0.0401222 0.998712
v 0.0236872 1.91304 0.887487
vn 0.00914581 -0.118375 0.992927
v 0.311386 3.37936 0.900137
vn -0.0339529 9.56182e-05 0.999423
v 0.026787 2.04045 0.890231
vn -0.034064 -0.000425763 0.99942
v 0.319469 3.45102 0.86412
vn -0.935524 0.271419 -0.226113
v 0.310147 3.41797 0.878225
vn -0.975752 0.215255 0.0396669
v 0.0295877 2.00565 0.85055
vn -0.0542192 0.0185543 -0.998357
v 0.0253491 2.04105 0.851653
vn -0.107867 0.0300288 -0.993712
v 0.243295 1.85763 0.842459
vn -0.158613 -0.597133 -0.786304
v 0.0223168 1.9136 0.850721
vn -0.0649116 -0.0879322 -0.994009
v 0.462265 1.83682 0.870857
vn 0.0327798 -0.0404896 0.998642
v 0.329688 3.40997 0.900326
vn 0.0203285 -0.0112858 0.99973
v 0.332174 3.48545 0.864996
vn -0.87093 0.479575 -0.107181
v 0.222996 2.86349 0.856268
vn -0.0391227 0.0157076 -0.999111
v 0.467898 1.81902 0.832664
vn -0.053513 -0.0903512 -0.994471
v 0.800963 3.35959 0.881862
vn 0.0419615 -0.00758512 0.99909
v 0.813448 3.34436 0.880849
vn 0.095887 -0.0172633 0.995243
v 0.813475 3.38238 0.881128
vn 0.0856403 0.00728473 0.996299
v 0.512496 1.89005 0.869179
vn 0.244614 -0.0618788 0.967644
v 0.525983 1.93371 0.868182
vn 0.966522 -0.20818 0.149989
v 0.665677 2.6045 0.874509
vn 0.250141 -0.0603194 0.966329
v 0.511106 1.89062 0.831887
vn 0.172679 -0.0317411 -0.984467
v 0.69582 2.75346 0.838128
vn 0.177461 -0.030444 -0.983657
v 0.52468 1.93425 0.833213
vn 0.925423 -0.19595 -0.32434
v 0.799505 3.36018 0.842732
vn -0.0325197 0.0230306 -0.999206
v 0.812063 3.38296 0.843229
vn 0.0112614 0.0378579 -0.99922
v 0.812013 3.34495 0.842347
vn 0.0215324 0.0133005 -0.99968
v 0.58486 3.46188 0.868211
vn 0.20791 0.978121 0.00723657
v 0.807807 3.4102 0.879476
vn 0.263862 0.943635 0.199825
v 0.806564 3.41071 0.84615
vn 0.246528 0.944365 -0.217713
v 0.482137 1.85965 0.870765
vn 0.0384123 -0.0242818 0.998967
v 0.484299 1.83376 0.869671
vn 0.0722745 -0.0555894 0.995834
v 0.499738 1.8685 0.86993
vn 0.0916249 -0.0373194 0.995094
v 0.347606 3.45582 0.900234
vn 0.0360688 -0.0063343 0.999329
v 0.351807 3.40611 0.899635
vn 0.0369422 -0.0148085 0.999208
v 0.57509 3.41147 0.891174
vn 0.0389716 -0.00716497 0.999215
v 0.342895 3.49573 0.863626
vn -0.385974 0.502826 -0.773428
v 0.343067 3.49972 0.877862
vn -0.575144 0.817347 0.0339589
v 0.360476 3.5054 0.864227
vn 0.141629 0.966631 -0.213462
v 0.447032 2.81658 0.847122
vn -0.0372421 0.0153084 -0.999189
v 0.350324 3.40672 0.859868
vn -0.0375194 0.0159196 -0.999169
v 0.77545 3.31648 0.84264
vn -0.03674 0.0157541 -0.999201
v 0.484065 1.82089 0.832704
vn 0.32677 -0.47849 -0.815026
v 0.482887 1.83434 0.831772
vn -0.00210313 -0.0250163 -0.999685
v 0.497023 1.844 0.831998
vn 0.129084 -0.0639461 -0.98957
v 0.028779 1.95588 0.889137
vn 0.0325197 -0.0230306 0.999206
v 0.016271 1.97112 0.889522
vn -0.0215323 -0.0133006 0.99968
v 0.0162216 1.93311 0.88864
vn -0.0112619 -0.0378577 0.99922
v 0.317178 3.42545 0.899982
vn -0.171846 0.0319679 0.984605
v 0.303604 3.38182 0.898657
vn -0.952441 0.202392 0.227803
v 0.164004 2.71099 0.894839
vn -0.17746 0.0304438 0.983657
v 0.315788 3.42602 0.862691
vn -0.243447 0.0622092 -0.967917
v 0.194147 2.85995 0.858458
vn -0.250141 0.0603194 -0.966329
v 0.302301 3.38236 0.863688
vn -0.954269 0.206116 -0.216534
v 0.0273206 1.95648 0.850008
vn -0.0419615 0.0075851 -0.99909
v 0.0148089 1.93369 0.850741
vn -0.0856403 -0.00728474 -0.996299
v 0.0148359 1.97171 0.851021
vn -0.095887 0.0172633 -0.995243
v 0.243151 1.8543 0.856318
vn -0.207911 -0.978121 -0.00723825
v 0.0217196 1.90536 0.885719
vn -0.249335 -0.949607 0.189944
v 0.0204775 1.90587 0.852394
vn -0.263124 -0.937543 -0.22755
v 0.47796 1.90935 0.872002
vn 0.0375419 -0.0158083 0.99917
v 0.25466 1.904 0.880022
vn 0.0355098 -0.0234511 0.999094
v 0.345397 3.48173 0.900097
vn 0.00210341 0.025016 0.999685
v 0.329981 3.44698 0.900441
vn -0.0172688 0.00675497 0.999828
v 0.343985 3.48231 0.862198
vn -0.0722745 0.0555894 -0.995834
v 0.329893 3.47263 0.863179
vn -0.202298 0.0940416 -0.974798
v 0.476477 1.90996 0.832234
vn -0.0369276 0.0148811 -0.999207
v 0.0513518 2.00019 0.849462
vn -0.0377033 0.0150458 -0.999176
v 0.484947 1.81646 0.846784
vn 0.575145 -0.817347 -0.0339603
v 0.466566 1.81118 0.834316
vn -0.158225 -0.959809 -0.2318
v 0.819932 3.39421 0.879887
vn 0.659308 0.359789 0.660201
v 0.822415 3.36782 0.879968
vn 0.220126 -0.0101779 0.975418
v 0.81634 3.31949 0.879754
vn 0.245724 -0.0566659 0.967682
v 0.810906 3.27414 0.878099
vn 0.967183 -0.20507 0.15001
v 0.668932 2.60398 0.851933
vn 0.977439 -0.207472 -0.0396107
v 0.809603 3.27468 0.84313
vn 0.935952 -0.195105 -0.293134
v 0.81495 3.32007 0.842463
vn 0.172013 -0.0259768 -0.984752
v 0.821047 3.36838 0.843275
vn 0.146911 0.019918 -0.988949
v 0.818608 3.39475 0.844348
vn 0.495586 0.315706 -0.80915
v 0.821173 3.39824 0.858487
vn 0.857956 0.513156 -0.0241159
v 0.498391 1.84344 0.86869
vn 0.202299 -0.0940411 0.974798
v 0.776932 3.31587 0.882407
vn 0.0377193 -0.0149735 0.999176
v 0.361718 3.50489 0.897553
vn 0.157877 0.966132 0.204119
v 0.573624 3.41207 0.851848
vn -0.0355099 0.0234511 -0.999094
v 0.498303 1.86909 0.831428
vn 0.0172686 -0.00675495 -0.999828
v 0.00967651 1.92132 0.887521
vn -0.608754 -0.380565 0.696124
v 0.00723691 1.94769 0.888594
vn -0.146911 -0.0199181 0.988949
v 0.0133338 1.996 0.889407
vn -0.172963 0.0267565 0.984565
v 0.0186812 2.04139 0.88874
vn -0.953102 0.199282 0.227779
v 0.159078 2.7122 0.872595
vn -0.977439 0.207472 0.0396099
v 0.0173778 2.04193 0.853771
vn -0.947439 0.201586 -0.248441
v 0.0119439 1.99657 0.852116
vn -0.24638 0.0572088 -0.967483
v 0.00586926 1.94825 0.851901
vn -0.220126 0.0101777 -0.975418
v 0.00835191 1.92186 0.851982
vn -0.55479 -0.29137 -0.779302
v 0.00684183 1.91794 0.866159
vn -0.857957 -0.513155 0.0241159
v 0.052834 1.99959 0.88923
vn 0.0367648 -0.0156434 0.999201
v 0.331261 3.47207 0.899872
vn -0.129083 0.0639457 0.98957
v 0.328546 3.44757 0.861939
vn -0.0916243 0.0373194 -0.995094
v 0.253194 1.9046 0.840695
vn -0.0389717 0.00716477 -0.999215
v 0.467808 1.81067 0.867642
vn -0.143349 -0.972104 0.185648
v 0.485389 1.82034 0.868243
vn 0.453988 -0.606146 0.653056
v 0.414887 2.65773 0.885919
vn 0.0372421 -0.0153084 0.999189
v 0.344219 3.49518 0.899165
vn -0.403435 0.585365 0.70327
v 0.346147 3.45641 0.861104
vn -0.0384123 0.0242818 -0.998967
v 0.480678 1.86025 0.831636
vn -0.0360688 0.00633393 -0.999329
f 1//1 2//2 3//3
f 1//1 3//3 4//4
f 1//1 4//4 5//5
f 1//1 5//5 6//6
f 1//1 6//6 2//2
f 7//7 8//8 9//9
f 10//10 11//11 12//12
f 13//13 14//14 15//15
f 16//16 17//17 18//18
f 19//19 20//20 21//21
f 22//22 23//23 24//24
f 22//22 24//24 25//25
f 22//22 25//25 26//26
f 22//22 26//26 27//27
f 22//22 27//27 23//23
f 28//28 29//29 30//30
f 31//31 32//32 33//33
f 34//34 35//35 36//36
f 37//37 38//38 39//39
f 40//40 41//41 42//42
f 13//13 43//43 44//44
f 10//10 45//45 46//46
f 7//7 47//47 48//48
f 19//19 49//49 50//50
f 16//16 51//51 52//52
f 10//10 53//53 45//45
f 13//13 54//54 43//43
f 16//16 55//55 51//51
f 19//19 56//56 49//49
f 7//7 57//57 47//47
f 40//40 58//58 59//59
f 28//28 60//60 61//61
f 31//31 62//62 63//63
f 34//34 64//64 65//65
f 37//37 66//66 67//67
f 40//40 68//68 58//58
f 28//28 69//69 60//60
f 31//31 70//70 62//62
f 34//34 71//71 64//64
f 37//37 72//72 66//66
f 10//10 46//46 11//11
f 7//7 48//48 8//8
f 19//19 50//50 20//20
f 16//16 52//52 17//17
f 13//13 44//44 14//14
f 40//40 42//42 68//68
f 28//28 30//30 69//69
f 31//31 33//33 70//70
f 34//34 36//36 71//71
f 37//37 39//39 72//72
f 28//28 61//61 29//29
f 31//31 63//63 32//32
f 34//34 65//65 35//35
f 37//37 67//67 38//38
f 40//40 59//59 41//41
f 10//10 12//12 53//53
f 13//13 15//15 54//54
f 16//16 18//18 55//55
f 19//19 21//21 56//56
f 7//7 9//9 57//57
f 73//73 74//74 75//75
f 76//76 77//77 78//78
f 79//79 80//80 81//81
f 82//82 83//83 84//84
f 85//85 86//86 87//87
f 88//88 89//89 90//90
f 91//91 92//92 93//93
f 94//94 95//95 96//96
f 97//97 98//98 99//99
f 100//100 101//101 102//102
f 103//103 104//104 105//105
f 106//106 107//107 108//108
f 109//109 110//110 111//111
f 112//112 113//113 114//114
f 115//115 116//116 117//117
f 88//88 118//118 119//119
f 91//91 120//120 121//121
f 94//94 122//122 123//123
f 97//97 124//124 125//125
f 100//100 126//126 127//127
f 128//128 129//129 2//2
f 130//130 131//131 3//3
f 132//132 133//133 4//4
f 134//134 135//135 5//5
f 136//136 137//137 6//6
f 76//76 138//138 8//8
f 73//73 139//139 11//11
f 85//85 140//140 14//14
f 82//82 141//141 17//17
f 79//79 142//142 20//20
f 143//143 144//144 23//23
f 145//145 146//146 24//24
f 147//147 148//148 25//25
f 149//149 150//150 26//26
f 151//151 152//152 27//27
f 103//103 153//153 29//29
f 106//106 154//154 32//32
f 109//109 155//155 35//35
f 112//112 156//156 38//38
f 115//115 157//157 41//41
f 73//73 75//75 43//43
f 76//76 78//78 45//45
f 79//79 81//81 47//47
f 82//82 84//84 49//49
f 85//85 87//87 51//51
f 88//88 90//90 53//53
f 91//91 93//93 54//54
f 94//94 96//96 55//55
f 97//97 99//99 56//56
f 100//100 102//102 57//57
f 103//103 105//105 58//58
f 106//106 108//108 60//60
f 109//109 111//111 62//62
f 112//112 114//114 64//64
f 115//115 117//117 66//66
f 88//88 119//119 68//68
f 91//91 121//121 69//69
f 94//94 123//123 70//70
f 97//97 125//125 71//71
f 100//100 127//127 72//72
f 130//130 74//74 46//46
f 132//132 77//77 48//48
f 134//134 80//80 50//50
f 136//136 83//83 52//52
f 128//128 86//86 44//44
f 158//158 89//89 42//42
f 159//159 92//92 30//30
f 160//160 95//95 33//33
f 161//161 98//98 36//36
f 162//162 101//101 39//39
f 145//145 104//104 61//61
f 147//147 107//107 63//63
f 149//149 110//110 65//65
f 151//151 113//113 67//67
f 143//143 116//116 59//59
f 159//159 118//118 12//12
f 160//160 120//120 15//15
f 161//161 122//122 18//18
f 162//162 124//124 21//21
f 158//158 126//126 9//9
f 130//130 129//129 74//74
f 132//132 131//131 77//77
f 134//134 133//133 80//80
f 136//136 135//135 83//83
f 128//128 137//137 86//86
f 158//158 138//138 89//89
f 159//159 139//139 92//92
f 160//160 140//140 95//95
f 161//161 141//141 98//98
f 162//162 142//142 101//101
f 145//145 144//144 104//104
f 147//147 146//146 107//107
f 149//149 148//148 110//110
f 151//151 150//150 113//113
f 143//143 152//152 116//116
f 159//159 153//153 118//118
f 160//160 154//154 120//120
f 161//161 155//155 122//122
f 162//162 156//156 124//124
f 158//158 157//157 126//126
f 130//130 3//3 129//129
f 132//132 4//4 131//131
f 134//134 5//5 133//133
f 136//136 6//6 135//135
f 128//128 2//2 137//137
f 158//158 9//9 138//138
f 159//159 12//12 139//139
f 160//160 15//15 140//140
f 161//161 18//18 141//141
f 162//162 21//21 142//142
f 145//145 24//24 144//144
f 147//147 25//25 146//146
f 149//149 26//26 148//148
f 151//151 27//27 150//150
f 143//143 23//23 152//152
f 159//159 30//30 153//153
f 160//160 33//33 154//154
f 161//161 36//36 155//155
f 162//162 39//39 156//156
f 158//158 42//42 157//157
f 128//128 44//44 75//75
f 130//130 46//46 78//78
f 132//132 48//48 81//81
f 134//134 50//50 84//84
f 136//136 52//52 87//87
f 76//76 45//45 90//90
f 73//73 43//43 93//93
f 85//85 51//51 96//96
f 82//82 49//49 99//99
f 79//79 47//47 102//102
f 143//143 59//59 105//105
f 145//145 61//61 108//108
f 147//147 63//63 111//111
f 149//149 65//65 114//114
f 151//151 67//67 117//117
f 103//103 58//58 119//119
f 106//106 60//60 121//121
f 109//109 62//62 123//123
f 112//112 64//64 125//125
f 115//115 66//66 127//127
f 73//73 11//11 74//74
f 76//76 8//8 77//77
f 79//79 20//20 80//80
f 82//82 17//17 83//83
f 85//85 14//14 86//86
f 88//88 68//68 89//89
f 91//91 69//69 92//92
f 94//94 70//70 95//95
f 97//97 71//71 98//98
f 100//100 72//72 101//101
f 103//103 29//29 104//104
f 106//106 32//32 107//107
f 109//109 35//35 110//110
f 112//112 38//38 113//113
f 115//115 41//41 116//116
f 88//88 53//53 118//118
f 91//91 54//54 120//120
f 94//94 55//55 122//122
f 97//97 56//56 124//124
f 100//100 57//57 126//126
f 128//128 75//75 129//129
f 130//130 78//78 131//131
f 132//132 81//81 133//133
f 134//134 84//84 135//135
f 136//136 87//87 137//137
f 76//76 90//90 138//138
f 73//73 93//93 139//139
f 85//85 96//96 140//140
f 82//82 99//99 141//141
f 79//79 102//102 142//142
f 143//143 105//105 144//144
f 145//145 108//108 146//146
f 147//147 111//111 148//148
f 149//149 114//114 150//150
f 151//151 117//117 152//152
f 103//103 119//119 153//153
f 106//106 121//121 154//154
f 109//109 123//123 155//155
f 112//112 125//125 156//156
f 115//115 127//127 157//157
f 129//129 3//3 2//2
f 131//131 4//4 3//3
f 133//133 5//5 4//4
f 135//135 6//6 5//5
f 137//137 2//2 6//6
f 138//138 9//9 8//8
f 139//139 12//12 11//11
f 140//140 15//15 14//14
f 141//141 18//18 17//17
f 142//142 21//21 20//20
f 144//144 24//24 23//23
f 146//146 25//25 24//24
f 148//148 26//26 25//25
f 150//150 27//27 26//26
f 152//152 23//23 27//27
f 153//153 30//30 29//29
f 154//154 33//33 32//32
f 155//155 36//36 35//35
f 156//156 39//39 38//38
f 157//157 42//42 41//41
f 75//75 44//44 43//43
f 78//78 46//46 45//45
f 81//81 48//48 47//47
f 84//84 50//50 49//49
f 87//87 52//52 51//51
f 90//90 45//45 53//53
f 93//93 43//43 54//54
f 96//96 51//51 55//55
f 99//99 49//49 56//56
f 102//102 47//47 57//57
f 105//105 59//59 58//58
f 108//108 61//61 60//60
f 111//111 63//63 62//62
f 114//114 65//65 64//64
f 117//117 67//67 66//66
f 119//119 58//58 68//68
f 121//121 60//60 69//69
f 123//123 62//62 70//70
f 125//125 64//64 71//71
f 127//127 66//66 72//72
f 74//74 11//11 46//46
f 77//77 8//8 48//48
f 80//80 20//20 50//50
f 83//83 17//17 52//52
f 86//86 14//14 44//44
f 89//89 68//68 42//42
f 92//92 69//69 30//30
f 95//95 70//70 33//33
f 98//98 71//71 36//36
f 101//101 72//72 39//39
f 104//104 29//29 61//61
f 107//107 32//32 63//63
f 110//110 35//35 65//65
f 113//113 38//38 67//67
f 116//116 41//41 59//59
f 118//118 53//53 12//12
f 120//120 54//54 15//15
f 122//122 55//55 18//18
f 124//124 56//56 21//21
f 126//126 57//57 9//9
f 129//129 75//75 74//74
f 131//131 78//78 77//77
f 133//133 81//81 80//80
f 135//135 84//84 83//83
f 137//137 87//87 86//86
f 138//138 90//90 89//89
f 139//139 93//93 92//92
f 140//140 96//96 95//95
f 141//141 99//99 98//98
f 142//142 102//102 101//101
f 144//144 105//105 104//104
f 146//146 108//108 107//107
f 148//148 111//111 110//110
f 150//150 114//114 113//113
f 152//152 117//117 116//116
f 153//153 119//119 118//118
f 154//154 121//121 120//120
f 155//155 123//123 122//122
f 156//156 125//125 124//124
f 157//157 127//127 126//126
