# Created by Open3D 
# object name: part_036
# number of vertices: 162
# number of triangles: 320
v 1.18351 4.89024 2.41976
vn 0.95773 -0.286261 0.0284337
v 1.1757 4.87098 2.44352
vn 0.925353 -0.360035 0.118731
v 1.17727 4.87069 2.40291
vn 0.919851 -0.392261 -0.00206537
v 1.18368 4.89135 2.36531
vn 0.958016 -0.284772 -0.0333125
v 1.18725 4.90418 2.40377
vn 0.991835 -0.127444 0.00473594
v 1.18521 4.9029 2.44433
vn 0.97223 -0.198464 0.124021
v 1.13364 4.94888 0.703
vn 0.953901 -0.281759 -0.103369
v 1.12835 4.92821 0.718805
vn 0.917646 -0.389665 -0.0780236
v 1.12442 4.93127 0.678472
vn 0.916195 -0.34927 -0.196459
v 1.14511 4.89944 1.56108
vn -0.23694 -0.971168 -0.02629
v 1.1657 4.87288 2.36118
vn -0.257453 -0.965964 -0.0251377
v 1.13623 4.90183 1.56142
vn -0.28252 -0.958947 -0.0245484
v 1.03243 4.9109 2.46726
vn -0.283564 -0.958443 0.0312799
v 1.03309 4.91166 2.47843
vn -0.178585 -0.69314 0.698329
v 0.902909 4.94972 2.47362
vn -0.290932 -0.954049 0.0717584
v 1.04314 4.94683 2.46818
vn 0.286799 0.954641 0.0800388
v 1.16636 4.91121 2.44622
vn 0.287641 0.956571 0.0472711
v 0.91923 4.98464 2.45591
vn 0.284788 0.957419 0.0473821
v 1.16151 4.93109 1.73936
vn 0.333585 0.942451 0.0225014
v 1.13801 4.96167 0.799481
vn 0.399579 0.916492 0.019478
v 1.13048 4.96529 0.762154
vn 0.313405 0.949341 0.0230098
v 0.841687 5.03563 0.714445
vn -0.95773 0.286262 -0.0284334
v 0.83802 5.01637 0.689699
vn -0.96975 0.21112 -0.122529
v 0.83598 5.01509 0.730265
vn -0.984469 0.175527 -0.00346038
v 0.841399 5.0341 0.76888
vn -0.958016 0.284772 0.0333125
v 0.845965 5.04858 0.731119
vn -0.899684 0.43653 0.00314414
v 0.847535 5.04829 0.690513
vn -0.920482 0.372035 -0.119595
v 0.866878 4.98212 1.57199
vn -0.333574 -0.942455 -0.0225019
v 0.846276 5.00863 0.77189
vn -0.313554 -0.949275 -0.0236954
v 0.87562 4.97927 1.57164
vn -0.288727 -0.957103 -0.0243051
v 0.891559 4.97699 2.4312
vn -0.953901 0.281759 0.103368
v 0.884904 4.95756 2.41437
vn -0.982262 0.172933 0.0724968
v 0.889295 4.95608 2.45475
vn -0.960594 0.200352 0.192662
v 0.883271 5.01377 1.75027
vn 0.23693 0.971171 0.0262903
v 0.896248 4.99459 2.33549
vn 0.165687 0.985748 0.0291182
v 0.904013 4.99174 2.37284
vn 0.257244 0.965997 0.0260032
v 0.990808 5.00837 0.66677
vn 0.283564 0.958443 -0.0312795
v 0.867893 5.045 0.688755
vn 0.283458 0.958983 0.00156886
v 1.11502 4.97157 0.679067
vn 0.286311 0.958136 0.00145622
v 0.980095 4.97243 0.665854
vn -0.286799 -0.954641 -0.0800385
v 0.98011 4.97395 0.654742
vn -0.220148 -0.644268 -0.73243
v 1.10982 4.93429 0.659517
vn -0.277661 -0.953108 -0.12037
v 1.15534 4.87426 2.44528
vn -0.283458 -0.958983 -0.00156872
v 1.16222 4.87267 2.46345
vn -0.272105 -0.959644 0.071012
v 1.12699 4.92468 0.798538
vn -0.166629 -0.985591 -0.0290634
v 1.17128 4.8726 2.32334
vn -0.166611 -0.985608 -0.0285883
v 1.13833 4.9617 0.719658
vn 0.989637 -0.124861 -0.0709169
v 1.13697 4.94628 0.757294
vn 0.95777 -0.284482 -0.0417862
v 1.17696 4.91064 2.36214
vn 0.313777 0.949199 0.0237872
v 1.18231 4.90959 2.32428
vn 0.401249 0.915753 0.0198841
v 1.04312 4.94532 2.47929
vn 0.24934 0.759949 0.600255
v 1.17273 4.90792 2.46435
vn 0.296492 0.947513 0.119629
v 1.11922 4.92753 0.761191
vn -0.257464 -0.965941 -0.0258941
v 0.908215 4.94769 2.45497
vn -0.286311 -0.958136 -0.00145621
v 0.913419 4.98498 2.47452
vn 0.277663 0.953108 0.120368
v 1.15283 4.93387 1.7419
vn 0.288727 0.957103 0.024305
v 1.13394 4.96319 0.679286
vn 0.963008 -0.187621 -0.193429
v 0.856879 5.00806 0.687813
vn -0.287641 -0.956571 -0.047271
v 0.850504 5.01134 0.669682
vn -0.296492 -0.947513 -0.11963
v 0.88522 4.9576 2.33455
vn -0.400347 -0.916158 -0.0194257
v 0.840924 5.00968 0.809751
vn -0.400374 -0.916136 -0.0199006
v 0.894889 4.99105 2.41523
vn -0.897489 0.43394 0.0787964
v 0.888112 4.97917 2.3769
vn -0.95777 0.284482 0.0417861
v 0.857533 5.04639 0.772853
vn 0.257591 0.965925 0.0251979
v 0.851952 5.04667 0.810694
vn 0.167438 0.985468 0.028578
v 0.990145 5.00761 0.655601
vn 0.215619 0.799593 -0.5605
v 0.861014 5.04659 0.670581
vn 0.272105 0.959644 -0.0710112
v 1.104 4.93463 0.678125
vn -0.284788 -0.957419 -0.047382
v 0.892756 4.95398 2.37188
vn -0.313538 -0.949299 -0.0229389
v 0.89881 4.988 2.45556
vn -0.911259 0.361194 0.197854
v 0.892216 5.01131 1.75212
vn 0.28252 0.958947 0.0245484
v 1.12033 4.96954 0.660416
vn 0.290932 0.954049 -0.0717586
v 1.16275 4.8725 2.41546
vn -0.280529 -0.959696 -0.0169699
v 1.17121 4.87067 2.40142
vn -0.190907 -0.981428 -0.018804
v 1.16802 4.87087 2.44303
vn -0.215116 -0.976587 0.00169849
v 1.12789 4.9264 0.746911
vn 0.0628692 -0.997291 -0.0381895
v 1.13206 4.92508 0.797534
vn 0.919234 -0.391577 -0.0409369
v 1.15224 4.89829 1.56084
vn 0.0710771 -0.996817 -0.036114
v 1.13855 4.96216 0.747823
vn 0.599904 0.800033 0.00794403
v 1.16786 4.92845 1.73074
vn 0.605515 0.795776 0.00959179
v 1.14206 4.95861 0.798389
vn 0.993068 -0.112642 -0.0335755
v 1.17394 4.91002 2.41642
vn 0.290698 0.956283 0.0318866
v 1.17885 4.90721 2.44396
vn 0.354415 0.933729 0.050405
v 1.18221 4.90758 2.40236
vn 0.377623 0.925479 0.0298189
v 1.03926 4.93189 2.4825
vn 0.0290209 -0.0341247 0.998996
v 1.16312 4.87398 2.47233
vn 0.0632919 -0.268517 0.961193
v 1.17264 4.90593 2.47314
vn 0.193861 0.174445 0.965395
v 1.11313 4.93085 0.707275
vn -0.28097 -0.959174 -0.0322677
v 1.11678 4.93111 0.679399
vn -0.21678 -0.974624 -0.0558011
v 1.12238 4.92808 0.720647
vn -0.191446 -0.980801 -0.037117
v 0.898917 4.9509 2.4258
vn -0.290255 -0.956806 -0.0165875
v 0.905496 4.94997 2.37228
vn -0.286255 -0.957852 -0.0240196
v 1.03093 4.91146 2.42492
vn -0.2854 -0.958258 -0.0169666
v 0.904308 4.98719 2.46907
vn -0.422974 0.833504 0.355477
v 0.899695 4.97367 2.47326
vn -0.845939 0.240064 0.476189
v 0.913036 4.98307 2.48332
vn 0.0026681 0.231256 0.972889
v 1.02256 4.97264 1.74771
vn 0.285625 0.95803 0.0244269
v 0.916864 4.9881 2.37326
vn 0.284996 0.958204 0.024936
v 1.16427 4.91458 2.36356
vn 0.286282 0.957822 0.0248857
v 1.12909 4.96615 0.665832
vn 0.815081 0.481656 -0.321949
v 1.12762 4.96745 0.680326
vn 0.352752 0.93569 -0.00709302
v 1.13456 4.96441 0.693848
vn 0.551974 0.833487 -0.0249761
v 0.849294 5.00925 0.717617
vn -0.290698 -0.956283 -0.0318866
v 0.841021 5.01168 0.731676
vn -0.377623 -0.925479 -0.0298188
v 0.844381 5.01206 0.690077
vn -0.354415 -0.933729 -0.0504049
v 0.884686 4.95711 2.38621
vn -0.598934 -0.800762 -0.00765509
v 0.881177 4.96066 2.33564
vn -0.98412 0.173942 0.035388
v 0.860283 4.98504 1.57228
vn -0.605519 -0.795773 -0.00959153
v 0.895346 4.99287 2.38712
vn -0.0611308 0.997382 0.0386296
v 0.875906 5.0152 1.74218
vn -0.0710746 0.996817 0.036114
v 0.891173 4.99419 2.3365
vn -0.902139 0.42942 0.041767
v 0.86048 5.04676 0.718574
vn 0.280529 0.959696 0.0169697
v 0.855215 5.04839 0.691004
vn 0.215116 0.976587 -0.00169822
v 0.852027 5.0486 0.732617
vn 0.190906 0.981428 0.0188039
v 0.986074 4.99442 0.651717
vn -0.0290209 0.0341247 -0.998996
v 0.850591 5.01334 0.66089
vn -0.186505 -0.144757 -0.971731
v 0.860118 5.04529 0.661705
vn -0.05329 0.29705 -0.953374
v 1.10637 4.93117 0.760776
vn -0.284995 -0.958207 -0.0248342
v 0.98106 4.9701 0.708148
vn -0.285834 -0.957748 -0.03189
v 0.895615 4.95181 2.45371
vn -0.352752 -0.93569 0.00709322
v 0.889848 4.95427 2.41244
vn -0.377077 -0.926111 -0.0115052
v 0.906449 4.98815 2.45463
vn 0.21679 0.974622 0.0557968
v 0.899161 4.99004 2.44108
vn -0.00607144 0.997411 0.0716551
v 1.11774 4.9693 0.761748
vn 0.286256 0.957851 0.0240859
v 0.870331 5.04281 0.771446
vn 0.284976 0.958231 0.0241361
v 1.1256 4.95252 0.660951
vn 0.845939 -0.240065 -0.476189
v 1.11972 4.96815 0.651528
vn 0.137902 0.240242 -0.960868
v 1.171 4.87085 2.45735
vn 0.569217 -0.757297 0.320144
v 1.1745 4.86993 2.42898
vn 0.0083325 -0.999961 0.0030155
v 1.17518 4.87079 2.37482
vn 0.0630365 -0.997445 -0.0336038
v 1.17641 4.87294 2.32407
vn 0.919284 -0.391636 -0.0392254
v 1.16102 4.91907 1.56129
vn 0.957902 -0.28463 -0.0375497
v 1.1864 4.90646 2.32493
vn 0.990588 -0.132977 -0.0324275
v 1.18584 4.90655 2.37573
vn 0.597733 0.801593 0.0128022
v 1.18499 4.90511 2.42988
vn 0.554128 0.830947 0.0496953
v 1.18115 4.90493 2.45822
vn 0.833324 0.460211 0.306228
v 1.17793 4.89099 2.46235
vn 0.871652 -0.270295 0.408856
v 1.12407 4.92923 0.692951
vn 0.00607204 -0.997411 -0.0716592
v 1.1529 4.87645 2.36259
vn -0.284972 -0.958233 -0.02407
v 0.90351 4.95112 2.4825
vn -0.130134 -0.211044 0.968775
v 1.04217 4.94917 2.42588
vn 0.285834 0.957748 0.03189
v 1.13339 4.965 0.721588
vn 0.377075 0.926111 0.0115057
v 0.84208 5.01434 0.675815
vn -0.886317 -0.306344 -0.347269
v 0.83824 5.01416 0.704156
vn -0.554128 -0.830947 -0.0496951
v 0.837395 5.01272 0.758298
vn -0.599101 -0.80058 -0.0122403
v 0.836831 5.0128 0.809107
vn -0.98417 0.174 0.0336764
v 0.864308 5.00724 1.57292
vn -0.957902 0.28463 0.0375497
v 0.846827 5.04633 0.809962
vn -0.893201 0.447842 0.0403661
v 0.848055 5.04847 0.75921
vn -0.0642322 0.997356 0.0339775
v 0.848729 5.04934 0.705053
vn -0.00833185 0.999961 -0.00301561
v 0.852238 5.04841 0.676684
vn -0.441248 0.854948 -0.272697
v 0.847364 5.0352 0.671857
vn -0.871651 0.270295 -0.408857
v 0.858963 5.00468 0.770474
vn -0.286277 -0.957826 -0.024784
v 0.888672 4.95486 2.44018
vn -0.551973 -0.833488 0.0249761
v 0.900854 4.99119 2.41339
vn 0.191446 0.980801 0.037117
v 0.992301 5.00781 0.709109
vn 0.2854 0.958258 0.0169667
v 1.1102 4.9362 0.650713
vn 0.00692071 -0.202231 -0.979313
v 1.11893 4.93208 0.664963
vn 0.54818 -0.732589 -0.4035
v 1.0059 4.94047 1.56653
vn -0.285625 -0.95803 -0.0244269
v 0.894149 4.95311 2.4682
vn -0.865296 -0.331058 0.376382
v 0.910103 4.98842 2.42676
vn 0.280971 0.959174 0.0322677
v 1.12432 4.96837 0.708231
vn 0.290255 0.956806 0.0165879
f 1//1 2//2 3//3
f 1//1 3//3 4//4
f 1//1 4//4 5//5
f 1//1 5//5 6//6
f 1//1 6//6 2//2
f 7//7 8//8 9//9
f 10//10 11//11 12//12
f 13//13 14//14 15//15
f 16//16 17//17 18//18
f 19//19 20//20 21//21
f 22//22 23//23 24//24
f 22//22 24//24 25//25
f 22//22 25//25 26//26
f 22//22 26//26 27//27
f 22//22 27//27 23//23
f 28//28 29//29 30//30
f 31//31 32//32 33//33
f 34//34 35//35 36//36
f 37//37 38//38 39//39
f 40//40 41//41 42//42
f 13//13 43//43 44//44
f 10//10 45//45 46//46
f 7//7 47//47 48//48
f 19//19 49//49 50//50
f 16//16 51//51 52//52
f 10//10 53//53 45//45
f 13//13 54//54 43//43
f 16//16 55//55 51//51
f 19//19 56//56 49//49
f 7//7 57//57 47//47
f 40//40 58//58 59//59
f 28//28 60//60 61//61
f 31//31 62//62 63//63
f 34//34 64//64 65//65
f 37//37 66//66 67//67
f 40//40 68//68 58//58
f 28//28 69//69 60//60
f 31//31 70//70 62//62
f 34//34 71//71 64//64
f 37//37 72//72 66//66
f 10//10 46//46 11//11
f 7//7 48//48 8//8
f 19//19 50//50 20//20
f 16//16 52//52 17//17
f 13//13 44//44 14//14
f 40//40 42//42 68//68
f 28//28 30//30 69//69
f 31//31 33//33 70//70
f 34//34 36//36 71//71
f 37//37 39//39 72//72
f 28//28 61//61 29//29
f 31//31 63//63 32//32
f 34//34 65//65 35//35
f 37//37 67//67 38//38
f 40//40 59//59 41//41
f 10//10 12//12 53//53
f 13//13 15//15 54//54
f 16//16 18//18 55//55
f 19//19 21//21 56//56
f 7//7 9//9 57//57
f 73//73 74//74 75//75
f 76//76 77//77 78//78
f 79//79 80//80 81//81
f 82//82 83//83 84//84
f 85//85 86//86 87//87
f 88//88 89//89 90//90
f 91//91 92//92 93//93
f 94//94 95//95 96//96
f 97//97 98//98 99//99
f 100//100 101//101 102//102
f 103//103 104//104 105//105
f 106//106 107//107 108//108
f 109//109 110//110 111//111
f 112//112 113//113 114//114
f 115//115 116//116 117//117
f 88//88 118//118 119//119
f 91//91 120//120 121//121
f 94//94 122//122 123//123
f 97//97 124//124 125//125
f 100//100 126//126 127//127
f 128//128 129//129 2//2
f 130//130 131//131 3//3
f 132//132 133//133 4//4
f 134//134 135//135 5//5
f 136//136 137//137 6//6
f 76//76 138//138 8//8
f 73//73 139//139 11//11
f 85//85 140//140 14//14
f 82//82 141//141 17//17
f 79//79 142//142 20//20
f 143//143 144//144 23//23
f 145//145 146//146 24//24
f 147//147 148//148 25//25
f 149//149 150//150 26//26
f 151//151 152//152 27//27
f 103//103 153//153 29//29
f 106//106 154//154 32//32
f 109//109 155//155 35//35
f 112//112 156//156 38//38
f 115//115 157//157 41//41
f 73//73 75//75 43//43
f 76//76 78//78 45//45
f 79//79 81//81 47//47
f 82//82 84//84 49//49
f 85//85 87//87 51//51
f 88//88 90//90 53//53
f 91//91 93//93 54//54
f 94//94 96//96 55//55
f 97//97 99//99 56//56
f 100//100 102//102 57//57
f 103//103 105//105 58//58
f 106//106 108//108 60//60
f 109//109 111//111 62//62
f 112//112 114//114 64//64
f 115//115 117//117 66//66
f 88//88 119//119 68//68
f 91//91 121//121 69//69
f 94//94 123//123 70//70
f 97//97 125//125 71//71
f 100//100 127//127 72//72
f 130//130 74//74 46//46
f 132//132 77//77 48//48
f 134//134 80//80 50//50
f 136//136 83//83 52//52
f 128//128 86//86 44//44
f 158//158 89//89 42//42
f 159//159 92//92 30//30
f 160//160 95//95 33//33
f 161//161 98//98 36//36
f 162//162 101//101 39//39
f 145//145 104//104 61//61
f 147//147 107//107 63//63
f 149//149 110//110 65//65
f 151//151 113//113 67//67
f 143//143 116//116 59//59
f 159//159 118//118 12//12
f 160//160 120//120 15//15
f 161//161 122//122 18//18
f 162//162 124//124 21//21
f 158//158 126//126 9//9
f 130//130 129//129 74//74
f 132//132 131//131 77//77
f 134//134 133//133 80//80
f 136//136 135//135 83//83
f 128//128 137//137 86//86
f 158//158 138//138 89//89
f 159//159 139//139 92//92
f 160//160 140//140 95//95
f 161//161 141//141 98//98
f 162//162 142//142 101//101
f 145//145 144//144 104//104
f 147//147 146//146 107//107
f 149//149 148//148 110//110
f 151//151 150//150 113//113
f 143//143 152//152 116//116
f 159//159 153//153 118//118
f 160//160 154//154 120//120
f 161//161 155//155 122//122
f 162//162 156//156 124//124
f 158//158 157//157 126//126
f 130//130 3//3 129//129
f 132//132 4//4 131//131
f 134//134 5//5 133//133
f 136//136 6//6 135//135
f 128//128 2//2 137//137
f 158//158 9//9 138//138
f 159//159 12//12 139//139
f 160//160 15//15 140//140
f 161//161 18//18 141//141
f 162//162 21//21 142//142
f 145//145 24//24 144//144
f 147//147 25//25 146//146
f 149//149 26//26 148//148
f 151//151 27//27 150//150
f 143//143 23//23 152//152
f 159//159 30//30 153//153
f 160//160 33//33 154//154
f 161//161 36//36 155//155
f 162//162 39//39 156//156
f 158//158 42//42 157//157
f 128//128 44//44 75//75
f 130//130 46//46 78//78
f 132//132 48//48 81//81
f 134//134 50//50 84//84
f 136//136 52//52 87//87
f 76//76 45//45 90//90
f 73//73 43//43 93//93
f 85//85 51//51 96//96
f 82//82 49//49 99//99
f 79//79 47//47 102//102
f 143//143 59//59 105//105
f 145//145 61//61 108//108
f 147//147 63//63 111//111
f 149//149 65//65 114//114
f 151//151 67//67 117//117
f 103//103 58//58 119//119
f 106//106 60//60 121//121
f 109//109 62//62 123//123
f 112//112 64//64 125//125
f 115//115 66//66 127//127
f 73//73 11//11 74//74
f 76//76 8//8 77//77
f 79//79 20//20 80//80
f 82//82 17//17 83//83
f 85//85 14//14 86//86
f 88//88 68//68 89//89
f 91//91 69//69 92//92
f 94//94 70//70 95//95
f 97//97 71//71 98//98
f 100//100 72//72 101//101
f 103//103 29//29 104//104
f 106//106 32//32 107//107
f 109//109 35//35 110//110
f 112//112 38//38 113//113
f 115//115 41//41 116//116
f 88//88 53//53 118//118
f 91//91 54//54 120//120
f 94//94 55//55 122//122
f 97//97 56//56 124//124
f 100//100 57//57 126//126
f 128//128 75//75 129//129
f 130//130 78//78 131//131
f 132//132 81//81 133//133
f 134//134 84//84 135//135
f 136//136 87//87 137//137
f 76//76 90//90 138//138
f 73//73 93//93 139//139
f 85//85 96//96 140//140
f 82//82 99//99 141//141
f 79//79 102//102 142//142
f 143//143 105//105 144//144
f 145//145 108//108 146//146
f 147//147 111//111 148//148
f 149//149 114//114 150//150
f 151//151 117//117 152//152
f 103//103 119//119 153//153
f 106//106 121//121 154//154
f 109//109 123//123 155//155
f 112//112 125//125 156//156
f 115//115 127//127 157//157
f 129//129 3//3 2//2
f 131//131 4//4 3//3
f 133//133 5//5 4//4
f 135//135 6//6 5//5
f 137//137 2//2 6//6
f 138//138 9//9 8//8
f 139//139 12//12 11//11
f 140//140 15//15 14//14
f 141//141 18//18 17//17
f 142//142 21//21 20//20
f 144//144 24//24 23//23
f 146//146 25//25 24//24
f 148//148 26//26 25//25
f 150//150 27//27 26//26
f 152//152 23//23 27//27
f 153//153 30//30 29//29
f 154//154 33//33 32//32
f 155//155 36//36 35//35
f 156//156 39//39 38//38
f 157//157 42//42 41//41
f 75//75 44//44 43//43
f 78//78 46//46 45//45
f 81//81 48//48 47//47
f 84//84 50//50 49//49
f 87//87 52//52 51//51
f 90//90 45//45 53//53
f 93//93 43//43 54//54
f 96//96 51//51 55//55
f 99//99 49//49 56//56
f 102//102 47//47 57//57
f 105//105 59//59 58//58
f 108//108 61//61 60//60
f 111//111 63//63 62//62
f 114//114 65//65 64//64
f 117//117 67//67 66//66
f 119//119 58//58 68//68
f 121//121 60//60 69//69
f 123//123 62//62 70//70
f 125//125 64//64 71//71
f 127//127 66//66 72//72
f 74//74 11//11 46//46
f 77//77 8//8 48//48
f 80//80 20//20 50//50
f 83//83 17//17 52//52
f 86//86 14//14 44//44
f 89//89 68//68 42//42
f 92//92 69//69 30//30
f 95//95 70//70 33//33
f 98//98 71//71 36//36
f 101//101 72//72 39//39
f 104//104 29//29 61//61
f 107//107 32//32 63//63
f 110//110 35//35 65//65
f 113//113 38//38 67//67
f 116//116 41//41 59//59
f 118//118 53//53 12//12
f 120//120 54//54 15//15
f 122//122 55//55 18//18
f 124//124 56//56 21//21
f 126//126 57//57 9//9
f 129//129 75//75 74//74
f 131//131 78//78 77//77
f 133//133 81//81 80//80
f 135//135 84//84 83//83
f 137//137 87//87 86//86
f 138//138 90//90 89//89
f 139//139 93//93 92//92
f 140//140 96//96 95//95
f 141//141 99//99 98//98
f 142//142 102//102 101//101
f 144//144 105//105 104//104
f 146//146 108//108 107//107
f 148//148 111//111 110//110
f 150//150 114//114 113//113
f 152//152 117//117 116//116
f 153//153 119//119 118//118
f 154//154 121//121 120//120
f 155//155 123//123 122//122
f 156//156 125//125 124//124
f 157//157 127//127 126//126
