# Created by Open3D 
# object name: part_045
# number of vertices: 162
# number of triangles: 320
v 0.451496 1.56029 0.474776
vn 0.938375 -0.292178 0.184618
v 0.445049 1.54121 0.475985
vn 0.855401 -0.28572 0.432033
v 0.445367 1.5403 0.473384
vn 0.943497 -0.315888 0.100136
v 0.451746 1.56004 0.471305
vn 0.955736 -0.294174 -0.0055655
v 0.455653 1.57371 0.473973
vn 0.959382 -0.263276 0.101355
v 0.454851 1.57305 0.476546
vn 0.862914 -0.256201 0.435593
v 0.450066 1.56265 0.365518
vn 0.933055 -0.283385 -0.221586
v 0.443964 1.54262 0.366204
vn 0.940374 -0.310726 -0.13837
v 0.443578 1.54364 0.363654
vn 0.843638 -0.266276 -0.466232
v 0.442611 1.53979 0.419785
vn -0.0507847 -0.99849 -0.0209483
v 0.442743 1.53883 0.470708
vn -0.152301 -0.988242 -0.0135057
v 0.440785 1.5401 0.419816
vn -0.278678 -0.960232 -0.0171357
v 0.41593 1.54796 0.47767
vn -0.212527 -0.732558 0.646677
v 0.416289 1.54907 0.478399
vn -0.00514026 -0.0807198 0.996724
v 0.390217 1.55623 0.478267
vn -0.177295 -0.536677 0.824951
v 0.426966 1.5838 0.478302
vn 0.22979 0.704006 0.671991
v 0.451713 1.57676 0.476734
vn 0.287925 0.88951 0.354782
v 0.402501 1.59189 0.477706
vn 0.274506 0.893639 0.355042
v 0.454339 1.57716 0.431732
vn 0.51966 0.854293 0.0116887
v 0.454226 1.57786 0.371905
vn 0.749566 0.661927 0.00154922
v 0.453006 1.57869 0.369545
vn 0.429109 0.903207 0.00906231
v 0.391927 1.58053 0.366667
vn -0.938374 0.292178 -0.184622
v 0.386545 1.56119 0.364781
vn -0.86368 0.258814 -0.432518
v 0.385743 1.56053 0.367354
vn -0.95678 0.272748 -0.100896
v 0.391548 1.58036 0.37013
vn -0.955736 0.294174 0.00556616
v 0.396029 1.59393 0.367942
vn -0.940316 0.325196 -0.100264
v 0.396347 1.59302 0.365341
vn -0.85326 0.287545 -0.435046
v 0.387204 1.55683 0.420879
vn -0.519652 -0.854298 -0.0116889
v 0.387056 1.55775 0.369955
vn -0.429916 -0.902652 -0.0197998
v 0.388887 1.55606 0.42084
vn -0.309699 -0.950691 -0.016523
v 0.393357 1.57817 0.475924
vn -0.933055 0.283386 0.221586
v 0.387146 1.55821 0.474534
vn -0.953658 0.267585 0.137605
v 0.388015 1.55875 0.477112
vn -0.85192 0.239371 0.465762
v 0.398932 1.5942 0.432826
vn 0.0507993 0.998489 0.0209481
v 0.39853 1.59327 0.470071
vn -0.253965 0.966815 0.0277511
v 0.399986 1.5932 0.472445
vn 0.151382 0.98811 0.0268601
v 0.425465 1.58628 0.363656
vn 0.212527 0.732559 -0.646675
v 0.401029 1.59433 0.365241
vn 0.265626 0.908314 -0.323122
v 0.450241 1.57919 0.364269
vn 0.279046 0.904192 -0.323373
v 0.414429 1.55044 0.363025
vn -0.22979 -0.704006 -0.671991
v 0.41477 1.55159 0.362336
vn -0.0312674 -0.0375272 -0.998806
v 0.440353 1.54284 0.362441
vn -0.14701 -0.516603 -0.84351
v 0.440367 1.53991 0.476085
vn -0.265626 -0.908314 0.323122
v 0.441856 1.54035 0.477247
vn -0.125181 -0.552703 0.823923
v 0.442866 1.54096 0.371255
vn 0.250516 -0.967724 -0.0274365
v 0.444136 1.53886 0.468297
vn 0.250617 -0.967858 -0.0210209
v 0.454249 1.57603 0.366793
vn 0.956251 -0.258099 -0.137725
v 0.450407 1.56226 0.368968
vn 0.955387 -0.293598 -0.0321781
v 0.45434 1.57649 0.471372
vn 0.430936 0.90213 0.0213383
v 0.455496 1.57575 0.468946
vn 0.754003 0.656824 0.00784467
v 0.426626 1.58265 0.478991
vn 0.0391483 0.0632532 0.997229
v 0.452682 1.57551 0.477866
vn 0.199122 0.50057 0.842484
v 0.44141 1.54103 0.368882
vn -0.152447 -0.987988 -0.0252812
v 0.391155 1.55504 0.477057
vn -0.279046 -0.904192 0.323373
v 0.401043 1.5914 0.478886
vn 0.14701 0.516603 0.84351
v 0.452658 1.57793 0.43191
vn 0.309699 0.950691 0.016523
v 0.453381 1.57548 0.364215
vn 0.851072 -0.236627 -0.468705
v 0.389683 1.55748 0.364592
vn -0.287925 -0.88951 -0.354782
v 0.388714 1.55872 0.363461
vn -0.199122 -0.50057 -0.842484
v 0.38717 1.55638 0.469422
vn -0.751553 -0.659672 -0.00122915
v 0.3859 1.55848 0.37238
vn -0.751627 -0.659544 -0.00764592
v 0.397432 1.59161 0.475122
vn -0.937186 0.320021 0.138815
v 0.392888 1.57814 0.472468
vn -0.955387 0.293598 0.0321774
v 0.398653 1.59541 0.370618
vn 0.153036 0.988114 0.0145153
v 0.39726 1.59537 0.37303
vn -0.247663 0.968613 0.0212435
v 0.425107 1.58516 0.362927
vn 0.0130755 0.106362 -0.994242
v 0.39954 1.59388 0.36408
vn 0.125184 0.552704 -0.823922
v 0.438894 1.54234 0.36362
vn -0.274506 -0.893639 -0.355042
v 0.38839 1.55554 0.471782
vn -0.429737 -0.902918 -0.00802676
v 0.397818 1.59059 0.477672
vn -0.841419 0.267971 0.46926
v 0.40076 1.59389 0.432935
vn 0.278677 0.960232 0.0171357
v 0.451179 1.578 0.36306
vn 0.177295 0.536678 -0.824951
v 0.441918 1.53915 0.474171
vn -0.266344 -0.958439 0.102251
v 0.443744 1.53893 0.473269
vn 0.156053 -0.982073 0.105736
v 0.442976 1.53944 0.475929
vn 0.0490655 -0.926909 0.372064
v 0.443453 1.54151 0.367976
vn 0.699545 -0.713298 -0.0429338
v 0.444309 1.54241 0.371212
vn 0.948646 -0.315577 -0.021957
v 0.444249 1.54026 0.419774
vn 0.707266 -0.706521 -0.0245526
v 0.454434 1.57717 0.368604
vn 0.980343 0.195813 -0.0241645
v 0.455426 1.57587 0.431159
vn 0.982344 0.186875 -0.00881628
v 0.454606 1.57585 0.371801
vn 0.965433 -0.2598 -0.0210616
v 0.453441 1.57657 0.47483
vn 0.317711 0.938434 0.135655
v 0.454136 1.57568 0.476567
vn 0.558113 0.726344 0.401165
v 0.455081 1.57575 0.473918
vn 0.680194 0.720358 0.135722
v 0.422542 1.56937 0.478982
vn 0.0130883 -0.0216388 0.99968
v 0.442399 1.54198 0.477838
vn 0.040558 -0.044841 0.99817
v 0.452212 1.57385 0.478399
vn 0.049348 -0.0158107 0.998656
v 0.440495 1.5415 0.365459
vn -0.269467 -0.953271 -0.136611
v 0.441506 1.54187 0.363688
vn 0.038789 -0.909924 -0.412958
v 0.442344 1.54125 0.366302
vn 0.152648 -0.976495 -0.152171
v 0.389379 1.55531 0.475209
vn -0.314581 -0.943606 0.103181
v 0.390876 1.55457 0.471786
vn -0.297345 -0.95471 -0.0107521
v 0.415623 1.54713 0.474962
vn -0.290693 -0.951593 0.0998462
v 0.399112 1.59135 0.478543
vn -0.480807 0.253468 0.839392
v 0.394808 1.57785 0.478594
vn -0.506913 0.1411 0.850371
v 0.400515 1.58975 0.47942
vn -0.0136444 0.00356453 0.999901
v 0.426733 1.58598 0.432469
vn 0.294226 0.955588 0.0168315
v 0.402586 1.59261 0.472456
vn 0.2911 0.956379 0.0245097
v 0.451854 1.57745 0.471483
vn 0.297531 0.954401 0.0243824
v 0.452749 1.57687 0.363383
vn 0.548399 -0.0339218 -0.835529
v 0.452666 1.57811 0.364326
vn 0.547837 0.743344 -0.383816
v 0.453837 1.57711 0.365168
vn 0.906953 0.268401 -0.324649
v 0.387955 1.55766 0.366496
vn -0.317711 -0.938434 -0.135655
v 0.386314 1.55848 0.367409
vn -0.680194 -0.720358 -0.135722
v 0.38726 1.55855 0.364759
vn -0.558113 -0.726344 -0.401165
v 0.386962 1.55706 0.472722
vn -0.979956 -0.197392 0.0268931
v 0.38679 1.55839 0.469525
vn -0.962071 0.271974 0.0211889
v 0.38611 1.55814 0.420922
vn -0.982344 -0.186875 0.00881628
v 0.397943 1.59272 0.47335
vn -0.697841 0.714715 0.0469058
v 0.397287 1.59375 0.432308
vn -0.707266 0.706521 0.0245526
v 0.397087 1.59183 0.470114
vn -0.945944 0.323569 0.0222172
v 0.399478 1.59508 0.367156
vn 0.266344 0.958439 -0.102251
v 0.39842 1.5948 0.365398
vn -0.0490527 0.926915 -0.372051
v 0.397652 1.5953 0.368057
vn -0.156053 0.982073 -0.105736
v 0.421016 1.57189 0.362468
vn -0.0130883 0.0216388 -0.99968
v 0.389184 1.56039 0.362928
vn -0.048865 0.0178659 -0.998646
v 0.398997 1.59226 0.363489
vn -0.0398037 0.0468134 -0.99811
v 0.43881 1.54163 0.368871
vn -0.291093 -0.95642 -0.0229111
v 0.414193 1.54949 0.365703
vn -0.293744 -0.946546 -0.133288
v 0.38873 1.55612 0.477
vn -0.547837 -0.743344 0.383816
v 0.387715 1.55616 0.474376
vn -0.676821 -0.725936 0.12219
v 0.39989 1.59237 0.477639
vn -0.038789 0.909924 0.412958
v 0.398364 1.59222 0.476777
vn -0.602228 0.721317 0.342087
v 0.45052 1.57966 0.369541
vn 0.297354 0.954694 0.0117958
v 0.401252 1.59481 0.370514
vn 0.290957 0.956662 0.0119225
v 0.448715 1.56329 0.362855
vn 0.506913 -0.1411 -0.850371
v 0.450694 1.57636 0.362468
vn 0.0231916 0.0274384 -0.999354
v 0.443778 1.54041 0.476855
vn 0.510967 -0.256684 0.820382
v 0.444479 1.53962 0.475034
vn 0.610573 -0.735095 0.29468
v 0.44481 1.53927 0.47158
vn 0.70004 -0.714076 -0.00628678
v 0.445581 1.5403 0.468364
vn 0.948717 -0.315694 -0.0165477
v 0.451322 1.56154 0.420142
vn 0.955646 -0.293912 -0.0188733
v 0.455878 1.57375 0.468953
vn 0.964408 -0.263965 -0.0155108
v 0.455791 1.57493 0.472208
vn 0.979963 0.198701 0.0137694
v 0.455284 1.57471 0.475652
vn 0.915288 0.254618 0.312117
v 0.454242 1.5744 0.477454
vn 0.570061 -0.0697289 0.818638
v 0.450216 1.56081 0.477499
vn 0.528908 -0.17747 0.829916
v 0.443032 1.54201 0.36455
vn 0.602228 -0.721317 -0.342087
v 0.440144 1.53942 0.470813
vn -0.290937 -0.95668 -0.0108785
v 0.390702 1.55788 0.478859
vn -0.0227046 -0.0253838 0.99942
v 0.427203 1.58474 0.475624
vn 0.293744 0.946546 0.133288
v 0.453681 1.57807 0.366951
vn 0.676821 0.725936 -0.12219
v 0.387154 1.55984 0.363873
vn -0.558723 0.101624 -0.823105
v 0.386112 1.55952 0.365674
vn -0.915288 -0.254618 -0.312117
v 0.385605 1.5593 0.369119
vn -0.980432 -0.196615 -0.00975543
v 0.385518 1.56049 0.372373
vn -0.962142 0.272091 0.0157799
v 0.392235 1.57971 0.421309
vn -0.955646 0.293912 0.0188735
v 0.395815 1.59393 0.372962
vn -0.944652 0.327652 0.0166614
v 0.396586 1.59497 0.369747
vn -0.701148 0.712958 0.00904412
v 0.396917 1.59461 0.366292
vn -0.610576 0.735097 -0.294668
v 0.397618 1.59382 0.364472
vn -0.502452 0.289268 -0.81478
v 0.393307 1.58033 0.363949
vn -0.528909 0.177469 -0.829916
v 0.389542 1.55678 0.369844
vn -0.297504 -0.954449 -0.0227836
v 0.387559 1.55713 0.476158
vn -0.906953 -0.268401 0.324649
v 0.399052 1.59299 0.475025
vn -0.152648 0.976495 0.152171
v 0.425773 1.5871 0.366365
vn 0.290693 0.951593 -0.0998462
v 0.440881 1.54449 0.361907
vn 0.0144002 -0.00159296 -0.999895
v 0.442284 1.54288 0.362784
vn 0.489192 -0.220665 -0.8438
v 0.414813 1.54801 0.420327
vn -0.294227 -0.955587 -0.0168314
v 0.388647 1.55737 0.477944
vn -0.53693 0.065598 0.841073
v 0.400901 1.59273 0.475868
vn 0.269467 0.953271 0.136611
v 0.452017 1.57893 0.366118
vn 0.314581 0.943606 -0.103181
f 1//1 2//2 3//3
f 1//1 3//3 4//4
f 1//1 4//4 5//5
f 1//1 5//5 6//6
f 1//1 6//6 2//2
f 7//7 8//8 9//9
f 10//10 11//11 12//12
f 13//13 14//14 15//15
f 16//16 17//17 18//18
f 19//19 20//20 21//21
f 22//22 23//23 24//24
f 22//22 24//24 25//25
f 22//22 25//25 26//26
f 22//22 26//26 27//27
f 22//22 27//27 23//23
f 28//28 29//29 30//30
f 31//31 32//32 33//33
f 34//34 35//35 36//36
f 37//37 38//38 39//39
f 40//40 41//41 42//42
f 13//13 43//43 44//44
f 10//10 45//45 46//46
f 7//7 47//47 48//48
f 19//19 49//49 50//50
f 16//16 51//51 52//52
f 10//10 53//53 45//45
f 13//13 54//54 43//43
f 16//16 55//55 51//51
f 19//19 56//56 49//49
f 7//7 57//57 47//47
f 40//40 58//58 59//59
f 28//28 60//60 61//61
f 31//31 62//62 63//63
f 34//34 64//64 65//65
f 37//37 66//66 67//67
f 40//40 68//68 58//58
f 28//28 69//69 60//60
f 31//31 70//70 62//62
f 34//34 71//71 64//64
f 37//37 72//72 66//66
f 10//10 46//46 11//11
f 7//7 48//48 8//8
f 19//19 50//50 20//20
f 16//16 52//52 17//17
f 13//13 44//44 14//14
f 40//40 42//42 68//68
f 28//28 30//30 69//69
f 31//31 33//33 70//70
f 34//34 36//36 71//71
f 37//37 39//39 72//72
f 28//28 61//61 29//29
f 31//31 63//63 32//32
f 34//34 65//65 35//35
f 37//37 67//67 38//38
f 40//40 59//59 41//41
f 10//10 12//12 53//53
f 13//13 15//15 54//54
f 16//16 18//18 55//55
f 19//19 21//21 56//56
f 7//7 9//9 57//57
f 73//73 74//74 75//75
f 76//76 77//77 78//78
f 79//79 80//80 81//81
f 82//82 83//83 84//84
f 85//85 86//86 87//87
f 88//88 89//89 90//90
f 91//91 92//92 93//93
f 94//94 95//95 96//96
f 97//97 98//98 99//99
f 100//100 101//101 102//102
f 103//103 104//104 105//105
f 106//106 107//107 108//108
f 109//109 110//110 111//111
f 112//112 113//113 114//114
f 115//115 116//116 117//117
f 88//88 118//118 119//119
f 91//91 120//120 121//121
f 94//94 122//122 123//123
f 97//97 124//124 125//125
f 100//100 126//126 127//127
f 128//128 129//129 2//2
f 130//130 131//131 3//3
f 132//132 133//133 4//4
f 134//134 135//135 5//5
f 136//136 137//137 6//6
f 76//76 138//138 8//8
f 73//73 139//139 11//11
f 85//85 140//140 14//14
f 82//82 141//141 17//17
f 79//79 142//142 20//20
f 143//143 144//144 23//23
f 145//145 146//146 24//24
f 147//147 148//148 25//25
f 149//149 150//150 26//26
f 151//151 152//152 27//27
f 103//103 153//153 29//29
f 106//106 154//154 32//32
f 109//109 155//155 35//35
f 112//112 156//156 38//38
f 115//115 157//157 41//41
f 73//73 75//75 43//43
f 76//76 78//78 45//45
f 79//79 81//81 47//47
f 82//82 84//84 49//49
f 85//85 87//87 51//51
f 88//88 90//90 53//53
f 91//91 93//93 54//54
f 94//94 96//96 55//55
f 97//97 99//99 56//56
f 100//100 102//102 57//57
f 103//103 105//105 58//58
f 106//106 108//108 60//60
f 109//109 111//111 62//62
f 112//112 114//114 64//64
f 115//115 117//117 66//66
f 88//88 119//119 68//68
f 91//91 121//121 69//69
f 94//94 123//123 70//70
f 97//97 125//125 71//71
f 100//100 127//127 72//72
f 130//130 74//74 46//46
f 132//132 77//77 48//48
f 134//134 80//80 50//50
f 136//136 83//83 52//52
f 128//128 86//86 44//44
f 158//158 89//89 42//42
f 159//159 92//92 30//30
f 160//160 95//95 33//33
f 161//161 98//98 36//36
f 162//162 101//101 39//39
f 145//145 104//104 61//61
f 147//147 107//107 63//63
f 149//149 110//110 65//65
f 151//151 113//113 67//67
f 143//143 116//116 59//59
f 159//159 118//118 12//12
f 160//160 120//120 15//15
f 161//161 122//122 18//18
f 162//162 124//124 21//21
f 158//158 126//126 9//9
f 130//130 129//129 74//74
f 132//132 131//131 77//77
f 134//134 133//133 80//80
f 136//136 135//135 83//83
f 128//128 137//137 86//86
f 158//158 138//138 89//89
f 159//159 139//139 92//92
f 160//160 140//140 95//95
f 161//161 141//141 98//98
f 162//162 142//142 101//101
f 145//145 144//144 104//104
f 147//147 146//146 107//107
f 149//149 148//148 110//110
f 151//151 150//150 113//113
f 143//143 152//152 116//116
f 159//159 153//153 118//118
f 160//160 154//154 120//120
f 161//161 155//155 122//122
f 162//162 156//156 124//124
f 158//158 157//157 126//126
f 130//130 3//3 129//129
f 132//132 4//4 131//131
f 134//134 5//5 133//133
f 136//136 6//6 135//135
f 128//128 2//2 137//137
f 158//158 9//9 138//138
f 159//159 12//12 139//139
f 160//160 15//15 140//140
f 161//161 18//18 141//141
f 162//162 21//21 142//142
f 145//145 24//24 144//144
f 147//147 25//25 146//146
f 149//149 26//26 148//148
f 151//151 27//27 150//150
f 143//143 23//23 152//152
f 159//159 30//30 153//153
f 160//160 33//33 154//154
f 161//161 36//36 155//155
f 162//162 39//39 156//156
f 158//158 42//42 157//157
f 128//128 44//44 75//75
f 130//130 46//46 78//78
f 132//132 48//48 81//81
f 134//134 50//50 84//84
f 136//136 52//52 87//87
f 76//76 45//45 90//90
f 73//73 43//43 93//93
f 85//85 51//51 96//96
f 82//82 49//49 99//99
f 79//79 47//47 102//102
f 143//143 59//59 105//105
f 145//145 61//61 108//108
f 147//147 63//63 111//111
f 149//149 65//65 114//114
f 151//151 67//67 117//117
f 103//103 58//58 119//119
f 106//106 60//60 121//121
f 109//109 62//62 123//123
f 112//112 64//64 125//125
f 115//115 66//66 127//127
f 73//73 11//11 74//74
f 76//76 8//8 77//77
f 79//79 20//20 80//80
f 82//82 17//17 83//83
f 85//85 14//14 86//86
f 88//88 68//68 89//89
f 91//91 69//69 92//92
f 94//94 70//70 95//95
f 97//97 71//71 98//98
f 100//100 72//72 101//101
f 103//103 29//29 104//104
f 106//106 32//32 107//107
f 109//109 35//35 110//110
f 112//112 38//38 113//113
f 115//115 41//41 116//116
f 88//88 53//53 118//118
f 91//91 54//54 120//120
f 94//94 55//55 122//122
f 97//97 56//56 124//124
f 100//100 57//57 126//126
f 128//128 75//75 129//129
f 130//130 78//78 131//131
f 132//132 81//81 133//133
f 134//134 84//84 135//135
f 136//136 87//87 137//137
f 76//76 90//90 138//138
f 73//73 93//93 139//139
f 85//85 96//96 140//140
f 82//82 99//99 141//141
f 79//79 102//102 142//142
f 143//143 105//105 144//144
f 145//145 108//108 146//146
f 147//147 111//111 148//148
f 149//149 114//114 150//150
f 151//151 117//117 152//152
f 103//103 119//119 153//153
f 106//106 121//121 154//154
f 109//109 123//123 155//155
f 112//112 125//125 156//156
f 115//115 127//127 157//157
f 129//129 3//3 2//2
f 131//131 4//4 3//3
f 133//133 5//5 4//4
f 135//135 6//6 5//5
f 137//137 2//2 6//6
f 138//138 9//9 8//8
f 139//139 12//12 11//11
f 140//140 15//15 14//14
f 141//141 18//18 17//17
f 142//142 21//21 20//20
f 144//144 24//24 23//23
f 146//146 25//25 24//24
f 148//148 26//26 25//25
f 150//150 27//27 26//26
f 152//152 23//23 27//27
f 153//153 30//30 29//29
f 154//154 33//33 32//32
f 155//155 36//36 35//35
f 156//156 39//39 38//38
f 157//157 42//42 41//41
f 75//75 44//44 43//43
f 78//78 46//46 45//45
f 81//81 48//48 47//47
f 84//84 50//50 49//49
f 87//87 52//52 51//51
f 90//90 45//45 53//53
f 93//93 43//43 54//54
f 96//96 51//51 55//55
f 99//99 49//49 56//56
f 102//102 47//47 57//57
f 105//105 59//59 58//58
f 108//108 61//61 60//60
f 111//111 63//63 62//62
f 114//114 65//65 64//64
f 117//117 67//67 66//66
f 119//119 58//58 68//68
f 121//121 60//60 69//69
f 123//123 62//62 70//70
f 125//125 64//64 71//71
f 127//127 66//66 72//72
f 74//74 11//11 46//46
f 77//77 8//8 48//48
f 80//80 20//20 50//50
f 83//83 17//17 52//52
f 86//86 14//14 44//44
f 89//89 68//68 42//42
f 92//92 69//69 30//30
f 95//95 70//70 33//33
f 98//98 71//71 36//36
f 101//101 72//72 39//39
f 104//104 29//29 61//61
f 107//107 32//32 63//63
f 110//110 35//35 65//65
f 113//113 38//38 67//67
f 116//116 41//41 59//59
f 118//118 53//53 12//12
f 120//120 54//54 15//15
f 122//122 55//55 18//18
f 124//124 56//56 21//21
f 126//126 57//57 9//9
f 129//129 75//75 74//74
f 131//131 78//78 77//77
f 133//133 81//81 80//80
f 135//135 84//84 83//83
f 137//137 87//87 86//86
f 138//138 90//90 89//89
f 139//139 93//93 92//92
f 140//140 96//96 95//95
f 141//141 99//99 98//98
f 142//142 102//102 101//101
f 144//144 105//105 104//104
f 146//146 108//108 107//107
f 148//148 111//111 110//110
f 150//150 114//114 113//113
f 152//152 117//117 116//116
f 153//153 119//119 118//118
f 154//154 121//121 120//120
f 155//155 123//123 122//122
f 156//156 125//125 124//124
f 157//157 127//127 126//126
