# Created by Open3D 
# object name: part_050
# number of vertices: 162
# number of triangles: 320
v 0.0336815 3.33715 0.485383
vn 0.491976 -0.0195997 -0.870388
v 0.0481371 3.32567 0.495737
vn 0.757375 0.168427 -0.630885
v 0.0422207 3.31885 0.491905
vn 0.454832 -0.238523 -0.858041
v 0.0246602 3.32953 0.482992
vn 0.206186 -0.251847 -0.945548
v 0.0232178 3.34591 0.480555
vn 0.249304 0.0501656 -0.967125
v 0.0300272 3.35146 0.48492
vn 0.668604 0.298617 -0.681027
v -0.270254 3.12421 0.486632
vn -0.154392 -0.472446 -0.867732
v -0.255935 3.10996 0.49313
vn 0.0641217 -0.512257 -0.856435
v -0.264348 3.10675 0.497021
vn -0.420427 -0.65674 -0.626046
v -0.107562 3.21547 0.503017
vn 0.549857 -0.783133 0.290448
v 0.0333732 3.31572 0.506109
vn 0.548749 -0.778413 0.304874
v -0.1098 3.21874 0.515302
vn 0.544021 -0.774616 0.322507
v 0.0139707 3.38246 0.694757
vn 0.731217 -0.605825 0.313524
v 0.0152972 3.38476 0.694363
vn 0.913402 0.402061 0.0635863
v -0.0208802 3.43373 0.87423
vn 0.828708 -0.471671 0.301279
v -0.00641898 3.41149 0.682578
vn -0.321417 0.892936 -0.315209
v 0.0235034 3.36132 0.51127
vn -0.453887 0.829976 -0.324231
v -0.0429797 3.45822 0.853569
vn -0.454281 0.830538 -0.322234
v -0.0975648 3.26793 0.490109
vn -0.536636 0.763863 -0.358518
v -0.262676 3.14955 0.485493
vn -0.526462 0.747291 -0.405456
v -0.271315 3.14777 0.494475
vn -0.540851 0.767439 -0.344263
v -0.348797 3.23869 0.891026
vn -0.491976 0.0196004 0.870388
v -0.341398 3.21905 0.893725
vn -0.6742 -0.28685 0.680567
v -0.334589 3.2246 0.898091
vn -0.288205 0.00127136 0.957568
v -0.339539 3.24597 0.893558
vn -0.206187 0.251847 0.945548
v -0.353592 3.25166 0.886741
vn -0.485578 0.286251 0.825999
v -0.359508 3.24483 0.882908
vn -0.765149 -0.161153 0.623359
v -0.182414 3.32457 0.888408
vn 0.536635 -0.763863 0.35852
v -0.323319 3.22429 0.885334
vn 0.538209 -0.769246 0.344372
v -0.179911 3.32093 0.876282
vn 0.543173 -0.773379 0.326876
v -0.044862 3.45163 0.889777
vn 0.15439 0.472444 0.867733
v -0.036433 3.43349 0.896867
vn 0.102507 0.275005 0.955963
v -0.0289128 3.43798 0.892442
vn 0.5036 0.538316 0.675724
v -0.172417 3.37703 0.8755
vn -0.549856 0.783132 -0.290451
v -0.0696828 3.45085 0.880616
vn -0.556662 0.795247 -0.240229
v -0.061481 3.45325 0.871373
vn -0.545525 0.780731 -0.304732
v -0.325342 3.18805 0.683889
vn -0.731219 0.605823 -0.313524
v -0.355837 3.23904 0.854855
vn -0.627242 0.70936 -0.321522
v -0.289354 3.14213 0.512555
vn -0.626858 0.708791 -0.32352
v -0.304952 3.15902 0.696067
vn 0.321418 -0.892936 0.315209
v -0.30757 3.15856 0.69569
vn -0.689468 -0.720909 0.0701702
v -0.270489 3.1083 0.516364
vn 0.164312 -0.942243 0.291855
v 0.0444666 3.33147 0.523791
vn 0.627242 -0.70936 0.321522
v 0.0488811 3.33205 0.515052
vn 0.831071 -0.475114 0.289117
v -0.241688 3.11966 0.49803
vn 0.556653 -0.795052 0.240893
v 0.0282636 3.30879 0.496921
vn 0.558464 -0.793782 0.24089
v -0.274938 3.13702 0.481779
vn -0.137619 -0.220914 -0.965535
v -0.260024 3.13008 0.484162
vn 0.161076 -0.283452 -0.945362
v 0.0119481 3.34622 0.493312
vn -0.537796 0.769466 -0.344525
v 0.00727536 3.33868 0.484384
vn -0.524342 0.748138 -0.406638
v -0.00380099 3.41195 0.682956
vn 0.626493 0.773337 -0.0972434
v 0.0288792 3.36053 0.503104
vn -0.161956 0.938798 -0.304019
v -0.24989 3.11726 0.507272
vn 0.545878 -0.780425 0.304884
v -0.0220165 3.42837 0.866091
vn 0.626858 -0.70879 0.32352
v -0.0408822 3.46221 0.862282
vn -0.164313 0.942243 -0.291855
v -0.0996794 3.27184 0.502234
vn -0.543173 0.773379 -0.326876
v -0.282458 3.13253 0.486204
vn -0.51275 -0.529038 -0.676171
v -0.334874 3.20919 0.867376
vn 0.453888 -0.829976 0.324231
v -0.34025 3.20998 0.875542
vn 0.161956 -0.938799 0.304019
v -0.0486945 3.42096 0.893153
vn 0.526394 -0.747039 0.406007
v -0.318646 3.23183 0.894262
vn 0.524583 -0.748309 0.406013
v -0.0554359 3.46055 0.885516
vn -0.0986585 0.55733 0.824409
v -0.0548548 3.44542 0.892389
vn -0.161076 0.283452 0.945362
v -0.344744 3.25479 0.872537
vn -0.548482 0.778562 -0.304974
v -0.339634 3.26172 0.881725
vn -0.558312 0.793712 -0.241475
v -0.326668 3.18575 0.684282
vn -0.941321 -0.325069 -0.0908043
v -0.360252 3.23846 0.863594
vn -0.831072 0.475112 -0.289116
v -0.268391 3.11229 0.525077
vn 0.454282 -0.830538 0.322234
v -0.0400559 3.42274 0.884171
vn 0.54108 -0.767235 0.344359
v -0.0470227 3.46376 0.881625
vn 0.416206 0.666503 0.618503
v -0.169791 3.37403 0.863214
vn -0.544021 0.774616 -0.322507
v -0.290491 3.13678 0.504416
vn -0.828709 0.47167 -0.301279
v 0.0416569 3.32431 0.512336
vn 0.572933 -0.754149 0.320946
v 0.0414164 3.31942 0.500109
vn 0.589357 -0.765617 0.257857
v 0.0473827 3.32654 0.506183
vn 0.655812 -0.703882 0.272874
v -0.25057 3.1129 0.49479
vn 0.563418 -0.822855 0.0739589
v -0.24159 3.11916 0.491095
vn 0.262931 -0.390106 -0.882431
v -0.106219 3.2135 0.493216
vn 0.57266 -0.816987 0.0677723
v -0.270858 3.14179 0.482672
vn -0.486483 0.674871 -0.554873
v -0.0966918 3.26349 0.480914
vn -0.477196 0.677845 -0.559295
v -0.260615 3.14624 0.479731
vn 0.0421917 -0.0758613 -0.996225
v 0.0203689 3.35462 0.499621
vn -0.513572 0.79287 -0.328026
v 0.026764 3.3559 0.493868
vn -0.420395 0.828495 -0.369952
v 0.02047 3.34924 0.487597
vn -0.494241 0.777247 -0.389375
v 0.0043787 3.40164 0.687464
vn 0.818996 0.573789 -0.0033644
v 0.0495501 3.33442 0.514282
vn 0.846924 0.531705 -0.00292457
v 0.0314196 3.36024 0.503452
vn 0.79066 0.611181 -0.0362734
v -0.260761 3.11243 0.513579
vn 0.514898 -0.794808 0.321185
v -0.264851 3.10779 0.507466
vn 0.439086 -0.85572 0.273765
v -0.256148 3.11094 0.501331
vn 0.519725 -0.814402 0.258137
v -0.0293219 3.42776 0.877783
vn 0.571602 -0.752214 0.327788
v -0.0363545 3.4177 0.866546
vn 0.544961 -0.772854 0.325137
v 0.00698162 3.37649 0.695088
vn 0.571575 -0.753709 0.324382
v -0.0439296 3.46446 0.87463
vn 0.437563 0.890046 0.127895
v -0.0356165 3.45432 0.880192
vn 0.727281 0.627461 0.278128
v -0.0384212 3.46203 0.863039
vn 0.784817 0.619697 -0.00617856
v -0.134654 3.32309 0.682698
vn -0.543599 0.774 -0.324692
v -0.0579897 3.4485 0.853624
vn -0.541848 0.775413 -0.324246
v 0.00856912 3.35149 0.510935
vn -0.541672 0.775157 -0.325152
v -0.286776 3.13358 0.492467
vn -0.882782 -0.256118 -0.393827
v -0.28547 3.13715 0.495151
vn -0.637136 0.676646 -0.369063
v -0.280892 3.13576 0.486036
vn -0.627137 0.588474 -0.510292
v -0.33174 3.21589 0.879025
vn 0.513572 -0.79287 0.328026
v -0.331841 3.22127 0.891048
vn 0.494241 -0.777247 0.389376
v -0.338135 3.21461 0.884778
vn 0.420395 -0.828495 0.369952
v -0.0405133 3.42872 0.895974
vn 0.488098 -0.674342 0.554096
v -0.050756 3.42426 0.898915
vn -0.0907712 0.144977 0.985262
v -0.184762 3.32798 0.897609
vn 0.477196 -0.677844 0.559295
v -0.0608012 3.45761 0.883856
vn -0.56145 0.824081 -0.0752656
v -0.175235 3.37797 0.885307
vn -0.57266 0.816987 -0.0677722
v -0.0697805 3.45135 0.887551
vn -0.291395 0.430898 0.854058
v -0.353028 3.2462 0.86631
vn -0.572933 0.75415 -0.320946
v -0.358753 3.24396 0.872463
vn -0.655813 0.703882 -0.272873
v -0.352787 3.25109 0.878537
vn -0.589357 0.765617 -0.257856
v -0.319743 3.17456 0.688796
vn -0.818996 -0.573789 0.0033644
v -0.34279 3.21027 0.875194
vn -0.79485 -0.605852 0.0340286
v -0.360921 3.23609 0.864364
vn -0.850488 -0.525995 0.000537906
v -0.253381 3.12201 0.525022
vn 0.542233 -0.775143 0.324246
v -0.296957 3.16355 0.696337
vn 0.514967 -0.793369 0.324614
v -0.0259008 3.43336 0.883495
vn 0.637136 -0.676646 0.369063
v -0.0342765 3.42974 0.889826
vn 0.563867 -0.728466 0.38909
v -0.0465194 3.46272 0.87118
vn -0.439085 0.85572 -0.273765
v -0.050441 3.46317 0.880687
vn -0.41883 0.900822 -0.114459
v -0.275016 3.15281 0.5121
vn -0.54471 0.773031 -0.325137
v -0.341575 3.24982 0.854789
vn -0.544885 0.773286 -0.324236
v -0.279684 3.12178 0.496107
vn -0.727281 -0.627461 -0.278129
v -0.29108 3.13429 0.504777
vn -0.844641 -0.534516 -0.0295545
v 0.0498837 3.32837 0.502712
vn 0.960925 0.211196 -0.178939
v 0.0464176 3.32267 0.496697
vn 0.704246 -0.70086 0.113283
v 0.0376368 3.31482 0.493606
vn 0.581365 -0.81028 0.0739013
v 0.0286685 3.3085 0.489984
vn 0.271989 -0.383759 -0.882469
v -0.11777 3.22992 0.482636
vn 0.183701 -0.267751 -0.945814
v 0.00964403 3.33559 0.478621
vn 0.067438 -0.0921143 -0.993462
v 0.0173489 3.3437 0.481488
vn -0.468651 0.688823 -0.553073
v 0.0264553 3.35109 0.484773
vn -0.341722 0.788431 -0.511471
v 0.0305492 3.3559 0.491164
vn 0.540019 0.740704 -0.399671
v 0.0392369 3.34522 0.494797
vn 0.836568 0.468171 -0.284553
v -0.26093 3.10734 0.497959
vn 0.41883 -0.900822 0.114458
v 0.0302042 3.32069 0.523857
vn 0.545137 -0.773109 0.324234
v -0.0202907 3.43622 0.873869
vn 0.841051 0.540266 0.0273074
v -0.0144134 3.40696 0.682309
vn -0.514967 0.793369 -0.324614
v -0.277094 3.14077 0.48882
vn -0.563867 0.728467 -0.389089
v -0.34192 3.21461 0.887482
vn -0.6339 -0.676827 0.374268
v -0.337826 3.21942 0.893873
vn 0.341722 -0.788431 0.511471
v -0.32872 3.22681 0.897158
vn 0.470153 -0.686918 0.554166
v -0.321015 3.23492 0.900025
vn -0.0998298 0.138631 0.9853
v -0.197594 3.34627 0.893624
vn -0.183701 0.267751 0.945814
v -0.340039 3.26201 0.888662
vn -0.314299 0.443737 0.839234
v -0.349008 3.25569 0.88504
vn -0.580076 0.811285 -0.072994
v -0.357788 3.24784 0.881949
vn -0.704246 0.700859 -0.113283
v -0.361255 3.24214 0.875934
vn -0.985248 -0.106768 0.13374
v -0.354538 3.23088 0.881502
vn -0.836568 -0.468171 0.284554
v -0.31994 3.21902 0.867711
vn 0.542058 -0.774888 0.325149
v -0.0304787 3.43475 0.89261
vn 0.627136 -0.588475 0.510292
v -0.0552229 3.45957 0.877315
vn -0.519725 0.814402 -0.258137
v -0.318352 3.19402 0.683558
vn -0.571575 0.75371 -0.324382
v -0.27295 3.10848 0.515607
vn -0.78898 -0.614408 0.00379523
v -0.267441 3.10605 0.504016
vn -0.527648 -0.831697 -0.172822
v -0.144813 3.26977 0.695817
vn 0.543599 -0.774 0.324692
v -0.0245951 3.43693 0.886179
vn 0.854667 0.366074 0.368151
v -0.0506099 3.45807 0.865067
vn -0.514898 0.794808 -0.321185
v -0.282049 3.14275 0.500863
vn -0.571602 0.752214 -0.327788
f 1//1 2//2 3//3
f 1//1 3//3 4//4
f 1//1 4//4 5//5
f 1//1 5//5 6//6
f 1//1 6//6 2//2
f 7//7 8//8 9//9
f 10//10 11//11 12//12
f 13//13 14//14 15//15
f 16//16 17//17 18//18
f 19//19 20//20 21//21
f 22//22 23//23 24//24
f 22//22 24//24 25//25
f 22//22 25//25 26//26
f 22//22 26//26 27//27
f 22//22 27//27 23//23
f 28//28 29//29 30//30
f 31//31 32//32 33//33
f 34//34 35//35 36//36
f 37//37 38//38 39//39
f 40//40 41//41 42//42
f 13//13 43//43 44//44
f 10//10 45//45 46//46
f 7//7 47//47 48//48
f 19//19 49//49 50//50
f 16//16 51//51 52//52
f 10//10 53//53 45//45
f 13//13 54//54 43//43
f 16//16 55//55 51//51
f 19//19 56//56 49//49
f 7//7 57//57 47//47
f 40//40 58//58 59//59
f 28//28 60//60 61//61
f 31//31 62//62 63//63
f 34//34 64//64 65//65
f 37//37 66//66 67//67
f 40//40 68//68 58//58
f 28//28 69//69 60//60
f 31//31 70//70 62//62
f 34//34 71//71 64//64
f 37//37 72//72 66//66
f 10//10 46//46 11//11
f 7//7 48//48 8//8
f 19//19 50//50 20//20
f 16//16 52//52 17//17
f 13//13 44//44 14//14
f 40//40 42//42 68//68
f 28//28 30//30 69//69
f 31//31 33//33 70//70
f 34//34 36//36 71//71
f 37//37 39//39 72//72
f 28//28 61//61 29//29
f 31//31 63//63 32//32
f 34//34 65//65 35//35
f 37//37 67//67 38//38
f 40//40 59//59 41//41
f 10//10 12//12 53//53
f 13//13 15//15 54//54
f 16//16 18//18 55//55
f 19//19 21//21 56//56
f 7//7 9//9 57//57
f 73//73 74//74 75//75
f 76//76 77//77 78//78
f 79//79 80//80 81//81
f 82//82 83//83 84//84
f 85//85 86//86 87//87
f 88//88 89//89 90//90
f 91//91 92//92 93//93
f 94//94 95//95 96//96
f 97//97 98//98 99//99
f 100//100 101//101 102//102
f 103//103 104//104 105//105
f 106//106 107//107 108//108
f 109//109 110//110 111//111
f 112//112 113//113 114//114
f 115//115 116//116 117//117
f 88//88 118//118 119//119
f 91//91 120//120 121//121
f 94//94 122//122 123//123
f 97//97 124//124 125//125
f 100//100 126//126 127//127
f 128//128 129//129 2//2
f 130//130 131//131 3//3
f 132//132 133//133 4//4
f 134//134 135//135 5//5
f 136//136 137//137 6//6
f 76//76 138//138 8//8
f 73//73 139//139 11//11
f 85//85 140//140 14//14
f 82//82 141//141 17//17
f 79//79 142//142 20//20
f 143//143 144//144 23//23
f 145//145 146//146 24//24
f 147//147 148//148 25//25
f 149//149 150//150 26//26
f 151//151 152//152 27//27
f 103//103 153//153 29//29
f 106//106 154//154 32//32
f 109//109 155//155 35//35
f 112//112 156//156 38//38
f 115//115 157//157 41//41
f 73//73 75//75 43//43
f 76//76 78//78 45//45
f 79//79 81//81 47//47
f 82//82 84//84 49//49
f 85//85 87//87 51//51
f 88//88 90//90 53//53
f 91//91 93//93 54//54
f 94//94 96//96 55//55
f 97//97 99//99 56//56
f 100//100 102//102 57//57
f 103//103 105//105 58//58
f 106//106 108//108 60//60
f 109//109 111//111 62//62
f 112//112 114//114 64//64
f 115//115 117//117 66//66
f 88//88 119//119 68//68
f 91//91 121//121 69//69
f 94//94 123//123 70//70
f 97//97 125//125 71//71
f 100//100 127//127 72//72
f 130//130 74//74 46//46
f 132//132 77//77 48//48
f 134//134 80//80 50//50
f 136//136 83//83 52//52
f 128//128 86//86 44//44
f 158//158 89//89 42//42
f 159//159 92//92 30//30
f 160//160 95//95 33//33
f 161//161 98//98 36//36
f 162//162 101//101 39//39
f 145//145 104//104 61//61
f 147//147 107//107 63//63
f 149//149 110//110 65//65
f 151//151 113//113 67//67
f 143//143 116//116 59//59
f 159//159 118//118 12//12
f 160//160 120//120 15//15
f 161//161 122//122 18//18
f 162//162 124//124 21//21
f 158//158 126//126 9//9
f 130//130 129//129 74//74
f 132//132 131//131 77//77
f 134//134 133//133 80//80
f 136//136 135//135 83//83
f 128//128 137//137 86//86
f 158//158 138//138 89//89
f 159//159 139//139 92//92
f 160//160 140//140 95//95
f 161//161 141//141 98//98
f 162//162 142//142 101//101
f 145//145 144//144 104//104
f 147//147 146//146 107//107
f 149//149 148//148 110//110
f 151//151 150//150 113//113
f 143//143 152//152 116//116
f 159//159 153//153 118//118
f 160//160 154//154 120//120
f 161//161 155//155 122//122
f 162//162 156//156 124//124
f 158//158 157//157 126//126
f 130//130 3//3 129//129
f 132//132 4//4 131//131
f 134//134 5//5 133//133
f 136//136 6//6 135//135
f 128//128 2//2 137//137
f 158//158 9//9 138//138
f 159//159 12//12 139//139
f 160//160 15//15 140//140
f 161//161 18//18 141//141
f 162//162 21//21 142//142
f 145//145 24//24 144//144
f 147//147 25//25 146//146
f 149//149 26//26 148//148
f 151//151 27//27 150//150
f 143//143 23//23 152//152
f 159//159 30//30 153//153
f 160//160 33//33 154//154
f 161//161 36//36 155//155
f 162//162 39//39 156//156
f 158//158 42//42 157//157
f 128//128 44//44 75//75
f 130//130 46//46 78//78
f 132//132 48//48 81//81
f 134//134 50//50 84//84
f 136//136 52//52 87//87
f 76//76 45//45 90//90
f 73//73 43//43 93//93
f 85//85 51//51 96//96
f 82//82 49//49 99//99
f 79//79 47//47 102//102
f 143//143 59//59 105//105
f 145//145 61//61 108//108
f 147//147 63//63 111//111
f 149//149 65//65 114//114
f 151//151 67//67 117//117
f 103//103 58//58 119//119
f 106//106 60//60 121//121
f 109//109 62//62 123//123
f 112//112 64//64 125//125
f 115//115 66//66 127//127
f 73//73 11//11 74//74
f 76//76 8//8 77//77
f 79//79 20//20 80//80
f 82//82 17//17 83//83
f 85//85 14//14 86//86
f 88//88 68//68 89//89
f 91//91 69//69 92//92
f 94//94 70//70 95//95
f 97//97 71//71 98//98
f 100//100 72//72 101//101
f 103//103 29//29 104//104
f 106//106 32//32 107//107
f 109//109 35//35 110//110
f 112//112 38//38 113//113
f 115//115 41//41 116//116
f 88//88 53//53 118//118
f 91//91 54//54 120//120
f 94//94 55//55 122//122
f 97//97 56//56 124//124
f 100//100 57//57 126//126
f 128//128 75//75 129//129
f 130//130 78//78 131//131
f 132//132 81//81 133//133
f 134//134 84//84 135//135
f 136//136 87//87 137//137
f 76//76 90//90 138//138
f 73//73 93//93 139//139
f 85//85 96//96 140//140
f 82//82 99//99 141//141
f 79//79 102//102 142//142
f 143//143 105//105 144//144
f 145//145 108//108 146//146
f 147//147 111//111 148//148
f 149//149 114//114 150//150
f 151//151 117//117 152//152
f 103//103 119//119 153//153
f 106//106 121//121 154//154
f 109//109 123//123 155//155
f 112//112 125//125 156//156
f 115//115 127//127 157//157
f 129//129 3//3 2//2
f 131//131 4//4 3//3
f 133//133 5//5 4//4
f 135//135 6//6 5//5
f 137//137 2//2 6//6
f 138//138 9//9 8//8
f 139//139 12//12 11//11
f 140//140 15//15 14//14
f 141//141 18//18 17//17
f 142//142 21//21 20//20
f 144//144 24//24 23//23
f 146//146 25//25 24//24
f 148//148 26//26 25//25
f 150//150 27//27 26//26
f 152//152 23//23 27//27
f 153//153 30//30 29//29
f 154//154 33//33 32//32
f 155//155 36//36 35//35
f 156//156 39//39 38//38
f 157//157 42//42 41//41
f 75//75 44//44 43//43
f 78//78 46//46 45//45
f 81//81 48//48 47//47
f 84//84 50//50 49//49
f 87//87 52//52 51//51
f 90//90 45//45 53//53
f 93//93 43//43 54//54
f 96//96 51//51 55//55
f 99//99 49//49 56//56
f 102//102 47//47 57//57
f 105//105 59//59 58//58
f 108//108 61//61 60//60
f 111//111 63//63 62//62
f 114//114 65//65 64//64
f 117//117 67//67 66//66
f 119//119 58//58 68//68
f 121//121 60//60 69//69
f 123//123 62//62 70//70
f 125//125 64//64 71//71
f 127//127 66//66 72//72
f 74//74 11//11 46//46
f 77//77 8//8 48//48
f 80//80 20//20 50//50
f 83//83 17//17 52//52
f 86//86 14//14 44//44
f 89//89 68//68 42//42
f 92//92 69//69 30//30
f 95//95 70//70 33//33
f 98//98 71//71 36//36
f 101//101 72//72 39//39
f 104//104 29//29 61//61
f 107//107 32//32 63//63
f 110//110 35//35 65//65
f 113//113 38//38 67//67
f 116//116 41//41 59//59
f 118//118 53//53 12//12
f 120//120 54//54 15//15
f 122//122 55//55 18//18
f 124//124 56//56 21//21
f 126//126 57//57 9//9
f 129//129 75//75 74//74
f 131//131 78//78 77//77
f 133//133 81//81 80//80
f 135//135 84//84 83//83
f 137//137 87//87 86//86
f 138//138 90//90 89//89
f 139//139 93//93 92//92
f 140//140 96//96 95//95
f 141//141 99//99 98//98
f 142//142 102//102 101//101
f 144//144 105//105 104//104
f 146//146 108//108 107//107
f 148//148 111//111 110//110
f 150//150 114//114 113//113
f 152//152 117//117 116//116
f 153//153 119//119 118//118
f 154//154 121//121 120//120
f 155//155 123//123 122//122
f 156//156 125//125 124//124
f 157//157 127//127 126//126
