# Created by Open3D 
# object name: part_039
# number of vertices: 162
# number of triangles: 320
v -0.434557 6.71919 0.589088
vn -0.971554 0.122111 -0.202909
v -0.435123 6.69878 0.584526
vn -0.879666 0.0431166 -0.473634
v -0.437376 6.69863 0.593556
vn -0.994061 0.0379701 -0.101988
v -0.435636 6.71962 0.601122
vn -0.990847 0.133903 0.017073
v -0.432723 6.73325 0.592108
vn -0.960521 0.255104 -0.111
v -0.430688 6.73177 0.583147
vn -0.86169 0.160085 -0.481521
v -0.420242 6.73308 0.967212
vn -0.953795 0.139337 0.266196
v -0.423333 6.71225 0.964489
vn -0.983624 0.0480936 0.173699
v -0.420405 6.71305 0.973287
vn -0.84151 0.0801317 0.534265
v -0.424765 6.70246 0.77892
vn -0.194833 -0.979877 0.0433613
v -0.429237 6.69566 0.602646
vn -0.169086 -0.984755 0.0408447
v -0.417461 6.70122 0.778689
vn -0.137091 -0.989687 0.0415354
v -0.316315 6.68036 0.576689
vn -0.138314 -0.968926 -0.205067
v -0.31625 6.68145 0.574186
vn -0.0649122 -0.243783 -0.967655
v -0.20832 6.66605 0.572848
vn -0.125972 -0.923569 -0.362148
v -0.311323 6.71751 0.575136
vn 0.119754 0.95094 -0.285259
v -0.413995 6.73214 0.582269
vn 0.126656 0.981366 -0.144498
v -0.208224 6.7042 0.575505
vn 0.130298 0.980872 -0.144609
v -0.421005 6.74 0.738236
vn 0.0708527 0.996713 -0.0392854
v -0.416478 6.74768 0.945335
vn -0.0167711 0.999244 -0.0350677
v -0.410649 6.74764 0.95342
vn 0.0972684 0.994502 -0.0387827
v -0.177143 6.70007 0.959221
vn 0.971554 -0.122111 0.20291
v -0.181929 6.68067 0.965448
vn 0.865085 -0.151612 0.478166
v -0.179894 6.67919 0.956487
vn 0.96997 -0.21719 0.10948
v -0.176122 6.69921 0.947206
vn 0.990847 -0.133903 -0.017073
v -0.175241 6.71381 0.955039
vn 0.994958 0.00108841 0.100291
v -0.177495 6.71366 0.964068
vn 0.878668 -0.0338026 0.476235
v -0.193091 6.671 0.771305
vn -0.0708355 -0.996714 0.0392848
v -0.188626 6.67775 0.947581
vn -0.0969512 -0.994406 0.041908
v -0.20046 6.67176 0.771556
vn -0.12912 -0.99077 0.0412733
v -0.191458 6.68618 0.581097
vn 0.953795 -0.139337 -0.266197
v -0.193937 6.66557 0.585553
vn 0.959533 -0.227316 -0.166203
v -0.196647 6.66639 0.576687
vn 0.826925 -0.188626 -0.529732
v -0.18933 6.70854 0.73062
vn 0.19482 0.97988 -0.0433609
v -0.191 6.703 0.601661
vn 0.282118 0.958225 -0.0470461
v -0.196722 6.70383 0.593543
vn 0.16919 0.984568 -0.0447374
v -0.296302 6.73208 0.971906
vn 0.138314 0.968926 0.205066
v -0.193489 6.71849 0.964729
vn 0.138127 0.988464 0.0621308
v -0.39926 6.74643 0.971493
vn 0.134482 0.988958 0.0622585
v -0.301294 6.69493 0.973459
vn -0.119754 -0.95094 0.285259
v -0.301043 6.6962 0.975863
vn 0.0090122 -0.17208 0.985042
v -0.409195 6.70996 0.977271
vn -0.117968 -0.891216 0.43797
v -0.419128 6.69395 0.583866
vn -0.138127 -0.988464 -0.062131
v -0.424237 6.69537 0.579945
vn -0.148229 -0.920553 -0.361401
v -0.421617 6.70944 0.946934
vn -0.280947 -0.958576 0.0469154
v -0.434331 6.69711 0.611089
vn -0.281036 -0.958652 0.0447676
v -0.41868 6.74687 0.963041
vn -0.950101 0.265214 0.164225
v -0.422228 6.73263 0.955296
vn -0.989676 0.135039 0.0480297
v -0.423991 6.73469 0.601014
vn 0.0966672 0.994415 -0.0423533
v -0.429192 6.73534 0.609491
vn -0.0190531 0.999128 -0.0371465
v -0.311574 6.71624 0.572732
vn 0.00313852 0.257046 -0.966394
v -0.419339 6.7318 0.578422
vn 0.0957159 0.89425 -0.437213
v -0.415896 6.70861 0.955051
vn -0.168943 -0.984631 0.0442746
v -0.213357 6.66601 0.577102
vn -0.134482 -0.988958 -0.0622589
v -0.203422 6.70248 0.571324
vn 0.117968 0.891216 -0.43797
v -0.413654 6.73923 0.737502
vn 0.129121 0.99077 -0.0412733
v -0.41597 6.74604 0.971907
vn -0.823315 0.197312 0.532184
v -0.198622 6.6803 0.966326
vn -0.126656 -0.981366 0.144498
v -0.193278 6.68064 0.970173
vn -0.095716 -0.894251 0.437212
v -0.196139 6.66476 0.603259
vn 0.0178007 -0.999231 0.0349445
v -0.183425 6.6771 0.939104
vn 0.0178736 -0.999152 0.0370925
v -0.189284 6.70019 0.584106
vn 0.984538 -0.00901933 -0.174939
v -0.189531 6.6862 0.593032
vn 0.989675 -0.135039 -0.0480296
v -0.18338 6.71677 0.945949
vn 0.168884 0.984777 -0.0411369
v -0.178286 6.71533 0.937506
vn 0.280086 0.958928 -0.0448258
v -0.296367 6.73099 0.974408
vn 0.0753841 0.327118 0.941972
v -0.18838 6.71707 0.96865
vn 0.148229 0.920553 0.361401
v -0.404393 6.70824 0.97309
vn -0.130298 -0.980872 0.144609
v -0.201968 6.6648 0.595175
vn -0.097087 -0.994532 0.0384779
v -0.192212 6.69938 0.575308
vn 0.84029 -0.0710316 -0.537464
v -0.196653 6.70976 0.730369
vn 0.137089 0.989688 -0.0415354
v -0.404297 6.74639 0.975747
vn 0.125972 0.923569 0.362148
v -0.425879 6.69484 0.590601
vn -0.140576 -0.990046 0.00691705
v -0.433018 6.69625 0.593847
vn -0.252686 -0.967542 0.00358289
v -0.429595 6.69571 0.584587
vn -0.223871 -0.970869 -0.0854124
v -0.422946 6.71075 0.958323
vn -0.5325 -0.844209 0.0612725
v -0.425186 6.71176 0.947176
vn -0.998289 0.0432462 0.0393478
v -0.430354 6.70415 0.779069
vn -0.54089 -0.839527 0.0513079
v -0.417978 6.7477 0.956778
vn -0.291774 0.956362 -0.0154698
v -0.42677 6.73993 0.740297
vn -0.299807 0.953706 -0.0236734
v -0.420528 6.74641 0.945727
vn -0.961419 0.273494 0.0295854
v -0.420667 6.73362 0.588979
vn 0.125474 0.989194 -0.0758446
v -0.424546 6.73327 0.583016
vn 0.0390396 0.985144 -0.167236
v -0.427889 6.73441 0.592251
vn 0.011355 0.996846 -0.078548
v -0.313452 6.70245 0.572526
vn -0.0378057 -0.0366732 -0.998612
v -0.424205 6.69702 0.577931
vn -0.0723712 -0.0811742 -0.994069
v -0.419765 6.73004 0.57655
vn -0.0582534 0.0227811 -0.998042
v -0.411636 6.70865 0.966837
vn -0.137947 -0.9875 0.0762584
v -0.414889 6.70997 0.973035
vn -0.214075 -0.961382 0.172965
v -0.419003 6.70984 0.964044
vn -0.249549 -0.964502 0.0863753
v -0.206194 6.66501 0.58338
vn -0.128094 -0.991741 0.00651284
v -0.212633 6.66605 0.595332
vn -0.132348 -0.99041 0.0396421
v -0.316086 6.67979 0.586048
vn -0.13431 -0.99091 0.00756779
v -0.196155 6.70093 0.572381
vn 0.473931 0.290838 -0.831146
v -0.197499 6.68678 0.571956
vn 0.446692 -0.0972317 -0.889389
v -0.203602 6.70069 0.569444
vn -0.00226674 0.0151786 -0.999882
v -0.305149 6.72457 0.733778
vn 0.133106 0.990237 -0.0414047
v -0.207336 6.70546 0.593684
vn 0.133848 0.990041 -0.0436266
v -0.413341 6.73343 0.600456
vn 0.132197 0.990265 -0.0435721
v -0.411728 6.74673 0.974741
vn -0.371302 0.472626 0.799224
v -0.40984 6.74753 0.971464
vn 0.0488103 0.994637 0.0911885
v -0.415627 6.74758 0.968633
vn -0.218082 0.966312 0.136679
v -0.19195 6.67882 0.959615
vn -0.125474 -0.989194 0.0758446
v -0.184728 6.67803 0.956343
vn -0.0113549 -0.996846 0.0785478
v -0.188071 6.67917 0.965579
vn -0.0390396 -0.985144 0.167236
v -0.194639 6.66473 0.591817
vn 0.290365 -0.956813 0.0140334
v -0.192089 6.66603 0.602868
vn 0.973882 -0.224824 -0.0317555
v -0.187256 6.67114 0.771078
vn 0.299807 -0.953706 0.0236733
v -0.189671 6.70169 0.590272
vn 0.530704 0.845184 -0.0633861
v -0.183672 6.70692 0.732306
vn 0.540888 0.839528 -0.0513079
v -0.187431 6.70068 0.601419
vn 0.999123 -0.0096142 -0.0407456
v -0.186738 6.7176 0.957994
vn 0.140576 0.990046 -0.00691695
v -0.183022 6.71673 0.964008
vn 0.223871 0.970869 0.0854123
v -0.179599 6.71619 0.954748
vn 0.252687 0.967542 -0.00358281
v -0.298187 6.71726 0.975764
vn 0.0378057 0.0366732 0.998612
v -0.192852 6.6824 0.972045
vn 0.0593651 -0.0155827 0.998115
v -0.188413 6.71542 0.970664
vn 0.0731951 0.0883806 0.993394
v -0.405281 6.70698 0.95491
vn -0.133863 -0.990059 0.0431668
v -0.30177 6.69368 0.964176
vn -0.131749 -0.988426 0.0752047
v -0.202777 6.66491 0.577131
vn -0.0488097 -0.994637 -0.0911894
v -0.198743 6.66444 0.586146
vn -0.0144858 -0.999886 -0.00424734
v -0.197728 6.70247 0.57556
vn 0.214075 0.961382 -0.172965
v -0.192102 6.70122 0.578441
vn 0.463622 0.860036 -0.213056
v -0.399984 6.74639 0.953263
vn 0.132338 0.9904 -0.0399442
v -0.193979 6.71842 0.946491
vn 0.133981 0.990176 -0.0399981
v -0.414156 6.73281 0.976339
vn -0.446691 0.0972314 0.889389
v -0.404576 6.74478 0.977769
vn 0.0172087 0.0959816 0.995234
v -0.431408 6.69701 0.581432
vn -0.536902 -0.246367 -0.806871
v -0.434991 6.69718 0.587785
vn -0.47599 -0.872048 -0.113867
v -0.43652 6.69758 0.599768
vn -0.533223 -0.844976 0.0411061
v -0.437915 6.69941 0.610949
vn -0.998527 0.0430165 0.0330802
v -0.429351 6.72663 0.778206
vn -0.99038 0.134487 0.0325552
v -0.433257 6.73406 0.6095
vn -0.966053 0.25724 0.0238524
v -0.431552 6.73454 0.598223
vn -0.289254 0.956559 -0.0364366
v -0.430103 6.73354 0.586265
vn -0.230512 0.954289 -0.190256
v -0.426673 6.73223 0.579959
vn -0.431908 0.413848 -0.801364
v -0.429177 6.71824 0.579572
vn -0.512841 0.0330652 -0.857847
v -0.420515 6.71122 0.970154
vn -0.463621 -0.860036 0.213056
v -0.418638 6.69402 0.602104
vn -0.133994 -0.990187 0.039696
v -0.208041 6.66766 0.570825
vn -0.0161252 -0.0888108 -0.995918
v -0.310847 6.71876 0.584418
vn 0.131749 0.988426 -0.0752047
v -0.413874 6.748 0.962449
vn 0.0144867 0.999886 0.00424702
v -0.185944 6.68021 0.968636
vn 0.46183 -0.312167 0.83022
v -0.182514 6.6789 0.96233
vn 0.230512 -0.954289 0.190256
v -0.181065 6.6779 0.950372
vn 0.2911 -0.956081 0.0342009
v -0.179361 6.67837 0.939095
vn 0.974119 -0.224593 -0.025488
v -0.182288 6.69308 0.770085
vn 0.99038 -0.134487 -0.0325552
v -0.174702 6.71303 0.937646
vn 0.999366 0.00723398 -0.0348684
v -0.176097 6.71486 0.948827
vn 0.534364 0.844179 -0.0426279
v -0.177626 6.71526 0.96081
vn 0.475991 0.872048 0.113867
v -0.18121 6.71543 0.967163
vn 0.534527 0.349623 0.769444
v -0.182478 6.70135 0.968724
vn 0.512842 -0.033065 0.857846
v -0.199277 6.67901 0.948139
vn -0.132217 -0.990283 0.0431125
v -0.19699 6.66486 0.579962
vn 0.218083 -0.966312 -0.13668
v -0.193614 6.70259 0.58455
vn 0.249549 0.964502 -0.0863753
v -0.296532 6.73265 0.962547
vn 0.13431 0.99091 -0.00756768
v -0.409015 6.71175 0.97915
vn 0.00311933 -0.00794484 0.999964
v -0.416462 6.71151 0.976213
vn -0.473759 -0.18511 0.86098
v -0.308971 6.68641 0.775126
vn -0.133106 -0.990237 0.0414047
v -0.200889 6.66571 0.573854
vn 0.398683 -0.373408 -0.837627
v -0.200981 6.70378 0.581758
vn 0.137947 0.9875 -0.0762585
v -0.406423 6.74743 0.965215
vn 0.128094 0.991741 -0.00651278
f 1//1 2//2 3//3
f 1//1 3//3 4//4
f 1//1 4//4 5//5
f 1//1 5//5 6//6
f 1//1 6//6 2//2
f 7//7 8//8 9//9
f 10//10 11//11 12//12
f 13//13 14//14 15//15
f 16//16 17//17 18//18
f 19//19 20//20 21//21
f 22//22 23//23 24//24
f 22//22 24//24 25//25
f 22//22 25//25 26//26
f 22//22 26//26 27//27
f 22//22 27//27 23//23
f 28//28 29//29 30//30
f 31//31 32//32 33//33
f 34//34 35//35 36//36
f 37//37 38//38 39//39
f 40//40 41//41 42//42
f 13//13 43//43 44//44
f 10//10 45//45 46//46
f 7//7 47//47 48//48
f 19//19 49//49 50//50
f 16//16 51//51 52//52
f 10//10 53//53 45//45
f 13//13 54//54 43//43
f 16//16 55//55 51//51
f 19//19 56//56 49//49
f 7//7 57//57 47//47
f 40//40 58//58 59//59
f 28//28 60//60 61//61
f 31//31 62//62 63//63
f 34//34 64//64 65//65
f 37//37 66//66 67//67
f 40//40 68//68 58//58
f 28//28 69//69 60//60
f 31//31 70//70 62//62
f 34//34 71//71 64//64
f 37//37 72//72 66//66
f 10//10 46//46 11//11
f 7//7 48//48 8//8
f 19//19 50//50 20//20
f 16//16 52//52 17//17
f 13//13 44//44 14//14
f 40//40 42//42 68//68
f 28//28 30//30 69//69
f 31//31 33//33 70//70
f 34//34 36//36 71//71
f 37//37 39//39 72//72
f 28//28 61//61 29//29
f 31//31 63//63 32//32
f 34//34 65//65 35//35
f 37//37 67//67 38//38
f 40//40 59//59 41//41
f 10//10 12//12 53//53
f 13//13 15//15 54//54
f 16//16 18//18 55//55
f 19//19 21//21 56//56
f 7//7 9//9 57//57
f 73//73 74//74 75//75
f 76//76 77//77 78//78
f 79//79 80//80 81//81
f 82//82 83//83 84//84
f 85//85 86//86 87//87
f 88//88 89//89 90//90
f 91//91 92//92 93//93
f 94//94 95//95 96//96
f 97//97 98//98 99//99
f 100//100 101//101 102//102
f 103//103 104//104 105//105
f 106//106 107//107 108//108
f 109//109 110//110 111//111
f 112//112 113//113 114//114
f 115//115 116//116 117//117
f 88//88 118//118 119//119
f 91//91 120//120 121//121
f 94//94 122//122 123//123
f 97//97 124//124 125//125
f 100//100 126//126 127//127
f 128//128 129//129 2//2
f 130//130 131//131 3//3
f 132//132 133//133 4//4
f 134//134 135//135 5//5
f 136//136 137//137 6//6
f 76//76 138//138 8//8
f 73//73 139//139 11//11
f 85//85 140//140 14//14
f 82//82 141//141 17//17
f 79//79 142//142 20//20
f 143//143 144//144 23//23
f 145//145 146//146 24//24
f 147//147 148//148 25//25
f 149//149 150//150 26//26
f 151//151 152//152 27//27
f 103//103 153//153 29//29
f 106//106 154//154 32//32
f 109//109 155//155 35//35
f 112//112 156//156 38//38
f 115//115 157//157 41//41
f 73//73 75//75 43//43
f 76//76 78//78 45//45
f 79//79 81//81 47//47
f 82//82 84//84 49//49
f 85//85 87//87 51//51
f 88//88 90//90 53//53
f 91//91 93//93 54//54
f 94//94 96//96 55//55
f 97//97 99//99 56//56
f 100//100 102//102 57//57
f 103//103 105//105 58//58
f 106//106 108//108 60//60
f 109//109 111//111 62//62
f 112//112 114//114 64//64
f 115//115 117//117 66//66
f 88//88 119//119 68//68
f 91//91 121//121 69//69
f 94//94 123//123 70//70
f 97//97 125//125 71//71
f 100//100 127//127 72//72
f 130//130 74//74 46//46
f 132//132 77//77 48//48
f 134//134 80//80 50//50
f 136//136 83//83 52//52
f 128//128 86//86 44//44
f 158//158 89//89 42//42
f 159//159 92//92 30//30
f 160//160 95//95 33//33
f 161//161 98//98 36//36
f 162//162 101//101 39//39
f 145//145 104//104 61//61
f 147//147 107//107 63//63
f 149//149 110//110 65//65
f 151//151 113//113 67//67
f 143//143 116//116 59//59
f 159//159 118//118 12//12
f 160//160 120//120 15//15
f 161//161 122//122 18//18
f 162//162 124//124 21//21
f 158//158 126//126 9//9
f 130//130 129//129 74//74
f 132//132 131//131 77//77
f 134//134 133//133 80//80
f 136//136 135//135 83//83
f 128//128 137//137 86//86
f 158//158 138//138 89//89
f 159//159 139//139 92//92
f 160//160 140//140 95//95
f 161//161 141//141 98//98
f 162//162 142//142 101//101
f 145//145 144//144 104//104
f 147//147 146//146 107//107
f 149//149 148//148 110//110
f 151//151 150//150 113//113
f 143//143 152//152 116//116
f 159//159 153//153 118//118
f 160//160 154//154 120//120
f 161//161 155//155 122//122
f 162//162 156//156 124//124
f 158//158 157//157 126//126
f 130//130 3//3 129//129
f 132//132 4//4 131//131
f 134//134 5//5 133//133
f 136//136 6//6 135//135
f 128//128 2//2 137//137
f 158//158 9//9 138//138
f 159//159 12//12 139//139
f 160//160 15//15 140//140
f 161//161 18//18 141//141
f 162//162 21//21 142//142
f 145//145 24//24 144//144
f 147//147 25//25 146//146
f 149//149 26//26 148//148
f 151//151 27//27 150//150
f 143//143 23//23 152//152
f 159//159 30//30 153//153
f 160//160 33//33 154//154
f 161//161 36//36 155//155
f 162//162 39//39 156//156
f 158//158 42//42 157//157
f 128//128 44//44 75//75
f 130//130 46//46 78//78
f 132//132 48//48 81//81
f 134//134 50//50 84//84
f 136//136 52//52 87//87
f 76//76 45//45 90//90
f 73//73 43//43 93//93
f 85//85 51//51 96//96
f 82//82 49//49 99//99
f 79//79 47//47 102//102
f 143//143 59//59 105//105
f 145//145 61//61 108//108
f 147//147 63//63 111//111
f 149//149 65//65 114//114
f 151//151 67//67 117//117
f 103//103 58//58 119//119
f 106//106 60//60 121//121
f 109//109 62//62 123//123
f 112//112 64//64 125//125
f 115//115 66//66 127//127
f 73//73 11//11 74//74
f 76//76 8//8 77//77
f 79//79 20//20 80//80
f 82//82 17//17 83//83
f 85//85 14//14 86//86
f 88//88 68//68 89//89
f 91//91 69//69 92//92
f 94//94 70//70 95//95
f 97//97 71//71 98//98
f 100//100 72//72 101//101
f 103//103 29//29 104//104
f 106//106 32//32 107//107
f 109//109 35//35 110//110
f 112//112 38//38 113//113
f 115//115 41//41 116//116
f 88//88 53//53 118//118
f 91//91 54//54 120//120
f 94//94 55//55 122//122
f 97//97 56//56 124//124
f 100//100 57//57 126//126
f 128//128 75//75 129//129
f 130//130 78//78 131//131
f 132//132 81//81 133//133
f 134//134 84//84 135//135
f 136//136 87//87 137//137
f 76//76 90//90 138//138
f 73//73 93//93 139//139
f 85//85 96//96 140//140
f 82//82 99//99 141//141
f 79//79 102//102 142//142
f 143//143 105//105 144//144
f 145//145 108//108 146//146
f 147//147 111//111 148//148
f 149//149 114//114 150//150
f 151//151 117//117 152//152
f 103//103 119//119 153//153
f 106//106 121//121 154//154
f 109//109 123//123 155//155
f 112//112 125//125 156//156
f 115//115 127//127 157//157
f 129//129 3//3 2//2
f 131//131 4//4 3//3
f 133//133 5//5 4//4
f 135//135 6//6 5//5
f 137//137 2//2 6//6
f 138//138 9//9 8//8
f 139//139 12//12 11//11
f 140//140 15//15 14//14
f 141//141 18//18 17//17
f 142//142 21//21 20//20
f 144//144 24//24 23//23
f 146//146 25//25 24//24
f 148//148 26//26 25//25
f 150//150 27//27 26//26
f 152//152 23//23 27//27
f 153//153 30//30 29//29
f 154//154 33//33 32//32
f 155//155 36//36 35//35
f 156//156 39//39 38//38
f 157//157 42//42 41//41
f 75//75 44//44 43//43
f 78//78 46//46 45//45
f 81//81 48//48 47//47
f 84//84 50//50 49//49
f 87//87 52//52 51//51
f 90//90 45//45 53//53
f 93//93 43//43 54//54
f 96//96 51//51 55//55
f 99//99 49//49 56//56
f 102//102 47//47 57//57
f 105//105 59//59 58//58
f 108//108 61//61 60//60
f 111//111 63//63 62//62
f 114//114 65//65 64//64
f 117//117 67//67 66//66
f 119//119 58//58 68//68
f 121//121 60//60 69//69
f 123//123 62//62 70//70
f 125//125 64//64 71//71
f 127//127 66//66 72//72
f 74//74 11//11 46//46
f 77//77 8//8 48//48
f 80//80 20//20 50//50
f 83//83 17//17 52//52
f 86//86 14//14 44//44
f 89//89 68//68 42//42
f 92//92 69//69 30//30
f 95//95 70//70 33//33
f 98//98 71//71 36//36
f 101//101 72//72 39//39
f 104//104 29//29 61//61
f 107//107 32//32 63//63
f 110//110 35//35 65//65
f 113//113 38//38 67//67
f 116//116 41//41 59//59
f 118//118 53//53 12//12
f 120//120 54//54 15//15
f 122//122 55//55 18//18
f 124//124 56//56 21//21
f 126//126 57//57 9//9
f 129//129 75//75 74//74
f 131//131 78//78 77//77
f 133//133 81//81 80//80
f 135//135 84//84 83//83
f 137//137 87//87 86//86
f 138//138 90//90 89//89
f 139//139 93//93 92//92
f 140//140 96//96 95//95
f 141//141 99//99 98//98
f 142//142 102//102 101//101
f 144//144 105//105 104//104
f 146//146 108//108 107//107
f 148//148 111//111 110//110
f 150//150 114//114 113//113
f 152//152 117//117 116//116
f 153//153 119//119 118//118
f 154//154 121//121 120//120
f 155//155 123//123 122//122
f 156//156 125//125 124//124
f 157//157 127//127 126//126
