# Created by Open3D 
# object name: part_004
# number of vertices: 162
# number of triangles: 320
v -1.60579 4.48342 0.306847
vn -0.89894 -0.219842 -0.378915
v -1.60953 4.47276 0.325237
vn -0.815958 -0.480325 -0.321714
v -1.61358 4.48463 0.326848
vn -0.952234 -0.152175 -0.26475
v -1.60879 4.49954 0.309003
vn -0.934466 -0.0239205 -0.355247
v -1.60148 4.49071 0.29462
vn -0.852208 -0.104358 -0.512689
v -1.598 4.47856 0.294523
vn -0.761592 -0.456799 -0.459688
v -1.64252 4.99418 0.389517
vn -0.929136 0.200032 -0.310955
v -1.64961 4.98568 0.407946
vn -0.969882 0.0932183 -0.225033
v -1.6473 4.99789 0.410232
vn -0.882021 0.438291 -0.173035
v -1.62548 4.73484 0.37202
vn -0.392946 -0.174394 0.902873
v -1.6058 4.49686 0.334493
vn -0.373277 -0.175561 0.910957
v -1.61699 4.73489 0.37548
vn -0.349066 -0.174136 0.920777
v -1.47052 4.4685 0.378881
vn -0.327384 -0.350217 0.877592
v -1.46987 4.46539 0.37725
vn -0.0297291 -0.99378 0.107317
v -1.3442 4.46955 0.426104
vn -0.29931 -0.46489 0.833241
v -1.45754 4.47503 0.344301
vn 0.353132 -0.00781019 -0.935541
v -1.57796 4.47891 0.299264
vn 0.348999 0.0989963 -0.931879
v -1.33748 4.48152 0.390014
vn 0.351789 0.099026 -0.930827
v -1.60807 4.68894 0.327196
vn 0.298221 0.173367 -0.93862
v -1.63212 4.96842 0.371355
vn 0.229634 0.172294 -0.957905
v -1.6264 4.97974 0.375203
vn 0.318455 0.174753 -0.931691
v -1.35842 4.99726 0.496729
vn 0.89894 0.219841 0.378915
v -1.3686 5.00091 0.515405
vn 0.767953 0.456167 0.449622
v -1.36511 4.98876 0.515308
vn 0.874788 0.113208 0.471095
v -1.35558 4.98106 0.494975
vn 0.934466 0.0239205 0.355247
v -1.35302 4.99485 0.48308
vn 0.962667 0.159932 0.218387
v -1.35707 5.00671 0.484691
vn 0.817464 0.484921 0.310811
v -1.35473 4.73778 0.474194
vn -0.298221 -0.173367 0.93862
v -1.37443 4.97576 0.511771
vn -0.318477 -0.172496 0.932104
v -1.36339 4.73764 0.471182
vn -0.34298 -0.17407 0.923073
v -1.32169 4.48649 0.414059
vn 0.929137 -0.200031 0.310955
v -1.32908 4.48771 0.434211
vn 0.892436 -0.132186 0.431376
v -1.33083 4.47578 0.43041
vn 0.834012 -0.462449 0.30094
v -1.33732 4.69188 0.42937
vn 0.392947 0.174394 -0.902873
v -1.32112 4.51778 0.402977
vn 0.458886 0.173176 -0.871455
v -1.32656 4.5066 0.398388
vn 0.373685 0.172765 -0.911324
v -1.49608 5.01098 0.431047
vn 0.327385 0.350213 -0.877593
v -1.37529 5.00728 0.47511
vn 0.341061 0.248211 -0.90668
v -1.61577 5.00467 0.384361
vn 0.33827 0.248183 -0.907733
v -1.50906 5.00445 0.465627
vn -0.353132 0.00781019 0.935541
v -1.50889 5.00797 0.465068
vn -0.165598 0.8955 0.413107
v -1.63513 5.00352 0.417747
vn -0.360003 0.133145 0.923402
v -1.5913 4.4722 0.334818
vn -0.341061 -0.248211 0.90668
v -1.59653 4.46682 0.330879
vn -0.316982 -0.465072 0.826577
v -1.64548 4.96169 0.406951
vn -0.458014 -0.173259 0.871897
v -1.61285 4.50804 0.333525
vn -0.457906 -0.174811 0.871644
v -1.63752 4.99176 0.375717
vn -0.869787 0.140077 -0.473126
v -1.64319 4.97795 0.386437
vn -0.936449 0.00364662 -0.350785
v -1.59216 4.50372 0.298157
vn 0.318284 0.172165 -0.932231
v -1.59949 4.51476 0.297929
vn 0.228003 0.170674 -0.958585
v -1.45771 4.47151 0.344859
vn 0.199994 -0.839105 -0.505871
v -1.5838 4.47322 0.296956
vn 0.342334 -0.133339 -0.930069
v -1.64004 4.97288 0.41154
vn -0.373454 -0.173092 0.911357
v -1.35083 4.4748 0.425567
vn -0.33827 -0.248183 0.907733
v -1.33147 4.47596 0.392181
vn 0.360003 -0.133145 -0.923402
v -1.59937 4.68843 0.330101
vn 0.34298 0.17407 -0.923073
v -1.63577 5.00369 0.379518
vn -0.828029 0.467091 -0.310153
v -1.38864 5.00056 0.510663
vn -0.348999 -0.0989963 0.931879
v -1.3828 5.00625 0.512971
vn -0.342334 0.133337 0.930069
v -1.33448 4.51106 0.438573
vn -0.22882 -0.172329 0.958094
v -1.36711 4.96471 0.511999
vn -0.228937 -0.170776 0.958344
v -1.31698 4.4938 0.401982
vn 0.980245 -0.0844979 0.178828
v -1.32117 4.50265 0.417542
vn 0.936449 -0.00364666 0.350785
v -1.3608 4.98262 0.475434
vn 0.373155 0.175346 -0.911048
v -1.35375 4.97143 0.476403
vn 0.457182 0.17476 -0.872034
v -1.49673 5.01408 0.432678
vn 0.0695463 0.974731 -0.212282
v -1.37006 5.01266 0.479048
vn 0.316983 0.465069 -0.826579
v -1.62912 4.99796 0.419914
vn -0.351789 -0.099026 0.930827
v -1.3402 4.49973 0.434724
vn -0.318301 -0.174965 0.931704
v -1.3193 4.48158 0.399696
vn 0.883906 -0.438976 0.161278
v -1.34576 4.69117 0.425804
vn 0.349065 0.174136 -0.920777
v -1.6224 5.00992 0.383824
vn 0.299311 0.464886 -0.833243
v -1.60017 4.48083 0.333444
vn -0.348879 -0.199062 0.915783
v -1.60888 4.48487 0.330597
vn -0.433277 -0.204073 0.877853
v -1.60353 4.47265 0.329969
vn -0.404027 -0.267088 0.874887
v -1.64851 4.97712 0.408026
vn -0.649395 -0.159332 0.743572
v -1.64933 4.96222 0.403644
vn -0.968896 -0.0269922 -0.245993
v -1.63184 4.73493 0.368648
vn -0.655046 -0.166402 0.737039
v -1.6356 4.98362 0.373618
vn -0.00140514 0.166078 -0.986112
v -1.61524 4.69119 0.32593
vn -0.00789028 0.159218 -0.987212
v -1.63722 4.96831 0.371379
vn -0.861123 0.0232163 -0.507867
v -1.58662 4.48765 0.29734
vn 0.342939 0.14903 -0.92746
v -1.59041 4.47925 0.295
vn 0.283101 0.0786408 -0.955861
v -1.59555 4.49158 0.295073
vn 0.255159 0.142317 -0.956368
v -1.46244 4.46803 0.357497
vn 0.0708141 -0.984675 -0.159376
v -1.59589 4.46449 0.328812
vn 0.0181055 -0.993943 -0.108395
v -1.58435 4.47029 0.298064
vn 0.0679022 -0.968235 -0.240647
v -1.63672 4.98904 0.415701
vn -0.352469 -0.149132 0.923864
v -1.64127 4.99735 0.414895
vn -0.417474 -0.0800951 0.905152
v -1.64484 4.98493 0.411534
vn -0.437574 -0.144293 0.887529
v -1.34343 4.48361 0.430331
vn -0.339349 -0.198956 0.91938
v -1.35267 4.49929 0.430169
vn -0.345306 -0.175345 0.921964
v -1.47174 4.48093 0.381771
vn -0.344168 -0.1984 0.917707
v -1.32327 4.47766 0.396245
vn 0.657266 -0.637735 -0.401617
v -1.3274 4.47386 0.409346
vn 0.549385 -0.83415 0.048678
v -1.33173 4.47303 0.393396
vn 0.126374 -0.967603 -0.218574
v -1.47252 4.68961 0.377848
vn 0.346024 0.174104 -0.92193
v -1.3389 4.50622 0.393477
vn 0.346768 0.17253 -0.921947
v -1.57965 4.50362 0.302624
vn 0.345507 0.172516 -0.922422
v -1.63102 5.00801 0.380892
vn -0.320456 0.807204 -0.495712
v -1.62814 5.00396 0.379927
vn 0.269651 0.265637 -0.925595
v -1.63459 4.99967 0.377353
vn 0.0469582 0.283257 -0.957894
v -1.37998 4.99183 0.512587
vn -0.342939 -0.149031 0.92746
v -1.37105 4.98789 0.514855
vn -0.255161 -0.142318 0.956368
v -1.37619 5.00023 0.514928
vn -0.283101 -0.0786401 0.955861
v -1.331 4.49586 0.43631
vn 0.000275444 -0.167276 0.98591
v -1.32938 4.51116 0.438549
vn 0.890575 -0.0124155 0.454667
v -1.34774 4.73801 0.47586
vn 0.00789028 -0.159218 0.987212
v -1.31809 4.50235 0.401902
vn 0.64819 0.15783 -0.744942
v -1.33114 4.69427 0.433142
vn 0.655046 0.166402 -0.737039
v -1.31727 4.51726 0.406284
vn 0.977921 0.0339686 0.206195
v -1.36643 4.99864 0.476483
vn 0.348879 0.199062 -0.915783
v -1.36307 5.00683 0.479959
vn 0.404027 0.267088 -0.874887
v -1.35772 4.9946 0.47933
vn 0.433277 0.204073 -0.877853
v -1.50161 5.01272 0.445657
vn -0.070814 0.984675 0.159376
v -1.38225 5.00918 0.511864
vn -0.0643716 0.970665 0.231661
v -1.37071 5.01499 0.481115
vn -0.0147668 0.99497 0.0990772
v -1.6277 4.97325 0.416451
vn -0.346742 -0.172862 0.921894
v -1.50847 4.9917 0.464442
vn -0.34767 -0.149699 0.92559
v -1.33846 4.47552 0.430001
vn -0.269651 -0.265637 0.925595
v -1.33509 4.48784 0.433918
vn -0.250854 -0.202096 0.946694
v -1.32533 4.48212 0.395032
vn 0.417474 0.0800951 -0.905152
v -1.3193 4.48619 0.398719
vn 0.609575 0.0470757 -0.79133
v -1.61393 4.98018 0.379758
vn 0.345323 0.175129 -0.921999
v -1.37317 4.98279 0.470611
vn 0.346577 0.175142 -0.921526
v -1.6367 5.00687 0.393917
vn -0.549385 0.83415 -0.048678
v -1.62333 5.01225 0.385782
vn -0.0732411 0.994337 0.0770082
v -1.60498 4.46855 0.327372
vn -0.532746 -0.845495 0.0363362
v -1.61015 4.47679 0.327611
vn -0.592146 -0.289161 0.752163
v -1.61368 4.49279 0.329635
vn -0.648319 -0.174303 0.741149
v -1.61667 4.50805 0.330134
vn -0.968495 -0.0325609 -0.246894
v -1.62639 4.73881 0.347097
vn -0.935549 -0.0101379 -0.35305
v -1.60456 4.51414 0.297869
vn -0.870792 0.0139346 -0.491454
v -1.60077 4.49929 0.295227
vn 0.00263165 0.150834 -0.988556
v -1.59745 4.48318 0.293756
vn 0.0643611 0.041168 -0.997077
v -1.59267 4.47474 0.294581
vn -0.215864 -0.647197 -0.731121
v -1.59815 4.47093 0.307171
vn -0.428645 -0.84475 -0.320408
v -1.6473 4.99328 0.411209
vn -0.609575 -0.0470757 0.79133
v -1.59342 4.49669 0.339317
vn -0.346563 -0.175359 0.92149
v -1.34327 4.46722 0.424145
vn 0.0768713 -0.993306 -0.0862165
v -1.45812 4.48778 0.345486
vn 0.34767 0.149699 -0.92559
v -1.63151 4.99164 0.376009
vn 0.250854 0.202096 -0.946694
v -1.37393 5.00473 0.515347
vn 0.280124 0.718386 0.636751
v -1.36915 4.9963 0.516172
vn -0.0643631 -0.0411674 0.997077
v -1.36583 4.98018 0.514701
vn -0.00079408 -0.152303 0.988334
v -1.36204 4.96533 0.512058
vn 0.890174 -0.00684662 0.455569
v -1.33766 4.74194 0.456057
vn 0.935549 0.0101379 0.35305
v -1.34993 4.97142 0.479793
vn 0.98133 0.0431828 0.187419
v -1.35292 4.98668 0.480293
vn 0.649323 0.173128 -0.740545
v -1.35645 5.00269 0.482317
vn 0.592146 0.289161 -0.752163
v -1.36162 5.01092 0.482556
vn 0.552663 0.816656 -0.166243
v -1.36594 5.00981 0.496092
vn 0.428645 0.844749 0.320408
v -1.38695 4.97586 0.507304
vn -0.345485 -0.172848 0.922369
v -1.33201 4.4798 0.432575
vn -0.0469582 -0.283257 0.957894
v -1.32176 4.49455 0.398394
vn 0.437574 0.144293 -0.887529
v -1.49486 4.99855 0.428156
vn 0.344168 0.1984 -0.917707
v -1.63487 5.00645 0.416531
vn -0.123133 0.970029 0.209479
v -1.64333 5.00181 0.413683
vn -0.644503 0.708365 0.287812
v -1.49022 4.73626 0.423402
vn -0.346024 -0.174104 0.92193
v -1.33558 4.47147 0.429036
vn 0.391868 -0.835481 0.385241
v -1.32988 4.49043 0.394227
vn 0.352469 0.149132 -0.923864
v -1.62317 4.99586 0.379597
vn 0.339349 0.198956 -0.91938
f 1//1 2//2 3//3
f 1//1 3//3 4//4
f 1//1 4//4 5//5
f 1//1 5//5 6//6
f 1//1 6//6 2//2
f 7//7 8//8 9//9
f 10//10 11//11 12//12
f 13//13 14//14 15//15
f 16//16 17//17 18//18
f 19//19 20//20 21//21
f 22//22 23//23 24//24
f 22//22 24//24 25//25
f 22//22 25//25 26//26
f 22//22 26//26 27//27
f 22//22 27//27 23//23
f 28//28 29//29 30//30
f 31//31 32//32 33//33
f 34//34 35//35 36//36
f 37//37 38//38 39//39
f 40//40 41//41 42//42
f 13//13 43//43 44//44
f 10//10 45//45 46//46
f 7//7 47//47 48//48
f 19//19 49//49 50//50
f 16//16 51//51 52//52
f 10//10 53//53 45//45
f 13//13 54//54 43//43
f 16//16 55//55 51//51
f 19//19 56//56 49//49
f 7//7 57//57 47//47
f 40//40 58//58 59//59
f 28//28 60//60 61//61
f 31//31 62//62 63//63
f 34//34 64//64 65//65
f 37//37 66//66 67//67
f 40//40 68//68 58//58
f 28//28 69//69 60//60
f 31//31 70//70 62//62
f 34//34 71//71 64//64
f 37//37 72//72 66//66
f 10//10 46//46 11//11
f 7//7 48//48 8//8
f 19//19 50//50 20//20
f 16//16 52//52 17//17
f 13//13 44//44 14//14
f 40//40 42//42 68//68
f 28//28 30//30 69//69
f 31//31 33//33 70//70
f 34//34 36//36 71//71
f 37//37 39//39 72//72
f 28//28 61//61 29//29
f 31//31 63//63 32//32
f 34//34 65//65 35//35
f 37//37 67//67 38//38
f 40//40 59//59 41//41
f 10//10 12//12 53//53
f 13//13 15//15 54//54
f 16//16 18//18 55//55
f 19//19 21//21 56//56
f 7//7 9//9 57//57
f 73//73 74//74 75//75
f 76//76 77//77 78//78
f 79//79 80//80 81//81
f 82//82 83//83 84//84
f 85//85 86//86 87//87
f 88//88 89//89 90//90
f 91//91 92//92 93//93
f 94//94 95//95 96//96
f 97//97 98//98 99//99
f 100//100 101//101 102//102
f 103//103 104//104 105//105
f 106//106 107//107 108//108
f 109//109 110//110 111//111
f 112//112 113//113 114//114
f 115//115 116//116 117//117
f 88//88 118//118 119//119
f 91//91 120//120 121//121
f 94//94 122//122 123//123
f 97//97 124//124 125//125
f 100//100 126//126 127//127
f 128//128 129//129 2//2
f 130//130 131//131 3//3
f 132//132 133//133 4//4
f 134//134 135//135 5//5
f 136//136 137//137 6//6
f 76//76 138//138 8//8
f 73//73 139//139 11//11
f 85//85 140//140 14//14
f 82//82 141//141 17//17
f 79//79 142//142 20//20
f 143//143 144//144 23//23
f 145//145 146//146 24//24
f 147//147 148//148 25//25
f 149//149 150//150 26//26
f 151//151 152//152 27//27
f 103//103 153//153 29//29
f 106//106 154//154 32//32
f 109//109 155//155 35//35
f 112//112 156//156 38//38
f 115//115 157//157 41//41
f 73//73 75//75 43//43
f 76//76 78//78 45//45
f 79//79 81//81 47//47
f 82//82 84//84 49//49
f 85//85 87//87 51//51
f 88//88 90//90 53//53
f 91//91 93//93 54//54
f 94//94 96//96 55//55
f 97//97 99//99 56//56
f 100//100 102//102 57//57
f 103//103 105//105 58//58
f 106//106 108//108 60//60
f 109//109 111//111 62//62
f 112//112 114//114 64//64
f 115//115 117//117 66//66
f 88//88 119//119 68//68
f 91//91 121//121 69//69
f 94//94 123//123 70//70
f 97//97 125//125 71//71
f 100//100 127//127 72//72
f 130//130 74//74 46//46
f 132//132 77//77 48//48
f 134//134 80//80 50//50
f 136//136 83//83 52//52
f 128//128 86//86 44//44
f 158//158 89//89 42//42
f 159//159 92//92 30//30
f 160//160 95//95 33//33
f 161//161 98//98 36//36
f 162//162 101//101 39//39
f 145//145 104//104 61//61
f 147//147 107//107 63//63
f 149//149 110//110 65//65
f 151//151 113//113 67//67
f 143//143 116//116 59//59
f 159//159 118//118 12//12
f 160//160 120//120 15//15
f 161//161 122//122 18//18
f 162//162 124//124 21//21
f 158//158 126//126 9//9
f 130//130 129//129 74//74
f 132//132 131//131 77//77
f 134//134 133//133 80//80
f 136//136 135//135 83//83
f 128//128 137//137 86//86
f 158//158 138//138 89//89
f 159//159 139//139 92//92
f 160//160 140//140 95//95
f 161//161 141//141 98//98
f 162//162 142//142 101//101
f 145//145 144//144 104//104
f 147//147 146//146 107//107
f 149//149 148//148 110//110
f 151//151 150//150 113//113
f 143//143 152//152 116//116
f 159//159 153//153 118//118
f 160//160 154//154 120//120
f 161//161 155//155 122//122
f 162//162 156//156 124//124
f 158//158 157//157 126//126
f 130//130 3//3 129//129
f 132//132 4//4 131//131
f 134//134 5//5 133//133
f 136//136 6//6 135//135
f 128//128 2//2 137//137
f 158//158 9//9 138//138
f 159//159 12//12 139//139
f 160//160 15//15 140//140
f 161//161 18//18 141//141
f 162//162 21//21 142//142
f 145//145 24//24 144//144
f 147//147 25//25 146//146
f 149//149 26//26 148//148
f 151//151 27//27 150//150
f 143//143 23//23 152//152
f 159//159 30//30 153//153
f 160//160 33//33 154//154
f 161//161 36//36 155//155
f 162//162 39//39 156//156
f 158//158 42//42 157//157
f 128//128 44//44 75//75
f 130//130 46//46 78//78
f 132//132 48//48 81//81
f 134//134 50//50 84//84
f 136//136 52//52 87//87
f 76//76 45//45 90//90
f 73//73 43//43 93//93
f 85//85 51//51 96//96
f 82//82 49//49 99//99
f 79//79 47//47 102//102
f 143//143 59//59 105//105
f 145//145 61//61 108//108
f 147//147 63//63 111//111
f 149//149 65//65 114//114
f 151//151 67//67 117//117
f 103//103 58//58 119//119
f 106//106 60//60 121//121
f 109//109 62//62 123//123
f 112//112 64//64 125//125
f 115//115 66//66 127//127
f 73//73 11//11 74//74
f 76//76 8//8 77//77
f 79//79 20//20 80//80
f 82//82 17//17 83//83
f 85//85 14//14 86//86
f 88//88 68//68 89//89
f 91//91 69//69 92//92
f 94//94 70//70 95//95
f 97//97 71//71 98//98
f 100//100 72//72 101//101
f 103//103 29//29 104//104
f 106//106 32//32 107//107
f 109//109 35//35 110//110
f 112//112 38//38 113//113
f 115//115 41//41 116//116
f 88//88 53//53 118//118
f 91//91 54//54 120//120
f 94//94 55//55 122//122
f 97//97 56//56 124//124
f 100//100 57//57 126//126
f 128//128 75//75 129//129
f 130//130 78//78 131//131
f 132//132 81//81 133//133
f 134//134 84//84 135//135
f 136//136 87//87 137//137
f 76//76 90//90 138//138
f 73//73 93//93 139//139
f 85//85 96//96 140//140
f 82//82 99//99 141//141
f 79//79 102//102 142//142
f 143//143 105//105 144//144
f 145//145 108//108 146//146
f 147//147 111//111 148//148
f 149//149 114//114 150//150
f 151//151 117//117 152//152
f 103//103 119//119 153//153
f 106//106 121//121 154//154
f 109//109 123//123 155//155
f 112//112 125//125 156//156
f 115//115 127//127 157//157
f 129//129 3//3 2//2
f 131//131 4//4 3//3
f 133//133 5//5 4//4
f 135//135 6//6 5//5
f 137//137 2//2 6//6
f 138//138 9//9 8//8
f 139//139 12//12 11//11
f 140//140 15//15 14//14
f 141//141 18//18 17//17
f 142//142 21//21 20//20
f 144//144 24//24 23//23
f 146//146 25//25 24//24
f 148//148 26//26 25//25
f 150//150 27//27 26//26
f 152//152 23//23 27//27
f 153//153 30//30 29//29
f 154//154 33//33 32//32
f 155//155 36//36 35//35
f 156//156 39//39 38//38
f 157//157 42//42 41//41
f 75//75 44//44 43//43
f 78//78 46//46 45//45
f 81//81 48//48 47//47
f 84//84 50//50 49//49
f 87//87 52//52 51//51
f 90//90 45//45 53//53
f 93//93 43//43 54//54
f 96//96 51//51 55//55
f 99//99 49//49 56//56
f 102//102 47//47 57//57
f 105//105 59//59 58//58
f 108//108 61//61 60//60
f 111//111 63//63 62//62
f 114//114 65//65 64//64
f 117//117 67//67 66//66
f 119//119 58//58 68//68
f 121//121 60//60 69//69
f 123//123 62//62 70//70
f 125//125 64//64 71//71
f 127//127 66//66 72//72
f 74//74 11//11 46//46
f 77//77 8//8 48//48
f 80//80 20//20 50//50
f 83//83 17//17 52//52
f 86//86 14//14 44//44
f 89//89 68//68 42//42
f 92//92 69//69 30//30
f 95//95 70//70 33//33
f 98//98 71//71 36//36
f 101//101 72//72 39//39
f 104//104 29//29 61//61
f 107//107 32//32 63//63
f 110//110 35//35 65//65
f 113//113 38//38 67//67
f 116//116 41//41 59//59
f 118//118 53//53 12//12
f 120//120 54//54 15//15
f 122//122 55//55 18//18
f 124//124 56//56 21//21
f 126//126 57//57 9//9
f 129//129 75//75 74//74
f 131//131 78//78 77//77
f 133//133 81//81 80//80
f 135//135 84//84 83//83
f 137//137 87//87 86//86
f 138//138 90//90 89//89
f 139//139 93//93 92//92
f 140//140 96//96 95//95
f 141//141 99//99 98//98
f 142//142 102//102 101//101
f 144//144 105//105 104//104
f 146//146 108//108 107//107
f 148//148 111//111 110//110
f 150//150 114//114 113//113
f 152//152 117//117 116//116
f 153//153 119//119 118//118
f 154//154 121//121 120//120
f 155//155 123//123 122//122
f 156//156 125//125 124//124
f 157//157 127//127 126//126
