# Created by Open3D 
# object name: part_002
# number of vertices: 162
# number of triangles: 320
v 2.74778 5.18776 1.50208
vn 0.416117 -0.892853 0.17222
v 2.74035 5.18917 1.52108
vn 0.676329 -0.628566 0.384036
v 2.7361 5.18648 1.51948
vn 0.196539 -0.966728 0.163737
v 2.7426 5.18641 1.49935
vn -0.0111682 -0.997276 -0.0729116
v 2.75309 5.18851 1.48899
vn 0.318079 -0.946432 -0.0556178
v 2.75654 5.19111 1.49203
vn 0.723121 -0.619938 0.304586
v 2.59026 5.20295 1.4153
vn -0.493559 -0.805123 -0.328902
v 2.58158 5.20138 1.43435
vn -0.382345 -0.9109 -0.155158
v 2.5784 5.20479 1.43187
vn -0.768718 -0.489199 -0.412016
v 2.65809 5.20092 1.47949
vn -0.487699 -0.109949 0.866061
v 2.7316 5.1965 1.5202
vn -0.483997 -0.0885947 0.870573
v 2.65838 5.20978 1.48052
vn -0.486145 -0.0616257 0.871702
v 2.74758 5.33314 1.53714
vn -0.0196519 -0.0909825 0.995659
v 2.74918 5.33311 1.53667
vn 0.818754 -0.0896733 0.567099
v 2.75382 5.46375 1.54895
vn 0.231695 -0.0923846 0.968392
v 2.76581 5.33532 1.50444
vn 0.838699 0.0119907 -0.544463
v 2.75882 5.21104 1.49162
vn 0.660927 0.0375119 -0.749512
v 2.77017 5.45998 1.5146
vn 0.661062 0.0404975 -0.749238
v 2.69349 5.20164 1.45413
vn 0.482981 0.00650202 -0.875607
v 2.60691 5.20599 1.4066
vn 0.474704 -0.0661907 -0.877653
v 2.60395 5.21296 1.40496
vn 0.481814 0.0286601 -0.875805
v 2.60367 5.49705 1.44244
vn -0.416124 0.892849 -0.172224
v 2.59156 5.49329 1.45849
vn -0.717965 0.623573 -0.309327
v 2.59501 5.49589 1.46153
vn -0.297254 0.954647 0.0170023
v 2.60863 5.49837 1.44555
vn 0.0111684 0.997276 0.0729116
v 2.612 5.49793 1.43105
vn -0.174347 0.96367 -0.202344
v 2.60775 5.49523 1.42944
vn -0.67483 0.625723 -0.391248
v 2.67088 5.48119 1.50535
vn -0.482981 -0.00650421 0.875607
v 2.59734 5.4856 1.4647
vn -0.487548 -0.0279553 0.872648
v 2.67035 5.4723 1.50475
vn -0.485843 -0.0549802 0.872315
v 2.76119 5.48185 1.52922
vn 0.493564 0.805119 0.328904
v 2.74953 5.48099 1.54666
vn 0.281605 0.898818 0.335894
v 2.75351 5.47767 1.54771
vn 0.727095 0.484178 0.486728
v 2.70627 5.48192 1.48
vn 0.487699 0.109951 -0.86606
v 2.75996 5.48066 1.51026
vn 0.489985 0.18365 -0.852166
v 2.7633 5.47374 1.5112
vn 0.491126 0.0881484 -0.866617
v 2.60052 5.35127 1.41338
vn 0.0196519 0.0909825 -0.995659
v 2.60802 5.47561 1.42527
vn 0.288688 0.0764106 -0.954369
v 2.59667 5.22668 1.4023
vn 0.288555 0.0734247 -0.954644
v 2.58229 5.34908 1.44609
vn -0.838699 -0.0119907 0.544463
v 2.58185 5.34925 1.44449
vn -0.917736 0.0777997 -0.389497
v 2.57639 5.2185 1.43366
vn -0.948272 0.00641494 0.317395
v 2.74007 5.20879 1.52525
vn -0.288688 -0.0764106 0.954369
v 2.74191 5.20254 1.52484
vn 0.231005 -0.107317 0.967016
v 2.58814 5.20374 1.44026
vn -0.48982 -0.182688 0.852468
v 2.72805 5.19025 1.51734
vn -0.485868 -0.183071 0.854645
v 2.59856 5.20342 1.40387
vn -0.258913 -0.890777 -0.37347
v 2.59506 5.20064 1.41807
vn -0.0794996 -0.990687 -0.11054
v 2.75076 5.1988 1.48583
vn 0.488368 0.0276433 -0.8722
v 2.74681 5.1925 1.48367
vn 0.478489 -0.0684099 -0.875424
v 2.76625 5.33516 1.50603
vn 0.934231 -0.074791 0.34874
v 2.75979 5.20469 1.49276
vn 0.947596 -0.0213495 -0.318757
v 2.5848 5.21066 1.43932
vn -0.490286 -0.0879956 0.867108
v 2.75143 5.45773 1.54822
vn -0.288555 -0.0734247 0.954644
v 2.77171 5.4659 1.51686
vn 0.948272 -0.00641499 -0.317395
v 2.69422 5.21051 1.45485
vn 0.485843 0.0549806 -0.872315
v 2.59459 5.20673 1.40282
vn -0.725273 -0.48024 -0.493305
v 2.58928 5.47337 1.4589
vn -0.660927 -0.0375119 0.749512
v 2.5883 5.47972 1.45777
vn -0.947597 0.0213497 0.318755
v 2.74119 5.47841 1.54393
vn -0.474461 0.0670172 0.877722
v 2.60128 5.4919 1.46686
vn -0.478414 0.0673946 0.875545
v 2.76652 5.48302 1.51617
vn 0.402667 0.90803 0.115504
v 2.75618 5.48414 1.52683
vn 0.079496 0.990687 0.110538
v 2.61649 5.4879 1.43033
vn 0.484539 0.0883955 -0.870292
v 2.62005 5.49415 1.43319
vn 0.486036 0.182225 -0.85473
v 2.59892 5.35129 1.41385
vn -0.792739 0.0917642 -0.602614
v 2.60619 5.48186 1.42568
vn -0.231005 0.107317 -0.967016
v 2.57793 5.22443 1.43593
vn -0.661062 -0.0404975 0.749238
v 2.74414 5.47145 1.54557
vn -0.481258 -0.0285619 0.876113
v 2.7697 5.47962 1.51866
vn 0.77358 0.486013 0.406652
v 2.70619 5.47304 1.47908
vn 0.486145 0.061626 -0.871702
v 2.59427 5.22065 1.40158
vn -0.231695 0.0923846 -0.968392
v 2.73684 5.20062 1.52325
vn -0.421504 -0.0694586 0.904162
v 2.73533 5.19193 1.52146
vn -0.410385 -0.164358 0.896979
v 2.73948 5.19609 1.52371
vn -0.23995 -0.149403 0.95922
v 2.58362 5.20201 1.43689
vn -0.489356 -0.405588 0.772029
v 2.58873 5.19924 1.43822
vn -0.105563 -0.994412 0.00106989
v 2.65823 5.19406 1.47805
vn -0.469367 -0.415072 0.779365
v 2.60176 5.20418 1.40435
vn 0.421751 -0.298062 -0.856321
v 2.69196 5.19475 1.45388
vn 0.436458 -0.30642 -0.845938
v 2.60574 5.20128 1.4077
vn 0.030746 -0.969675 -0.242456
v 2.75587 5.2029 1.4891
vn 0.547913 0.0468371 -0.835223
v 2.75792 5.1983 1.49064
vn 0.694889 -0.0372514 -0.718151
v 2.75406 5.19418 1.48786
vn 0.553064 -0.0487733 -0.83171
v 2.75983 5.33432 1.51833
vn 0.872781 -0.0841743 0.480799
v 2.74355 5.20241 1.52378
vn 0.860647 -0.0966965 0.499936
v 2.75976 5.20436 1.49469
vn 0.884927 -0.0937195 0.456202
v 2.5801 5.21573 1.4369
vn -0.548389 -0.0572209 0.834263
v 2.57766 5.2117 1.43457
vn -0.701374 -0.104897 0.705033
v 2.58111 5.2068 1.43651
vn -0.562108 -0.149719 0.813399
v 2.74896 5.46639 1.54777
vn -0.421023 -0.0590748 0.905124
v 2.74355 5.45856 1.5446
vn -0.482782 -0.0579233 0.873823
v 2.74325 5.33346 1.53581
vn -0.422884 -0.0641253 0.903912
v 2.77128 5.47475 1.51792
vn 0.946644 0.146424 0.287097
v 2.76484 5.47458 1.53057
vn 0.862265 0.1307 0.489303
v 2.77169 5.46587 1.51882
vn 0.885943 -0.0714326 0.458261
v 2.7003 5.34177 1.46693
vn 0.485997 0.0583033 -0.872014
v 2.76289 5.46088 1.50989
vn 0.490049 0.0586029 -0.869723
v 2.75152 5.21166 1.48689
vn 0.489986 0.0572257 -0.86985
v 2.5941 5.21173 1.40159
vn -0.734498 -0.120982 -0.66774
v 2.5961 5.21391 1.40149
vn 0.233474 0.00725131 -0.972336
v 2.59676 5.20699 1.40209
vn 0.131794 -0.201459 -0.97059
v 2.59223 5.4815 1.46143
vn -0.547913 -0.0468371 0.835223
v 2.59404 5.49023 1.46266
vn -0.553064 0.0487733 0.83171
v 2.59018 5.4861 1.45989
vn -0.694889 0.0372514 0.718151
v 2.74634 5.48022 1.54618
vn -0.41916 0.296593 0.858101
v 2.74236 5.48312 1.54282
vn -0.0015723 0.981559 0.191155
v 2.67164 5.48816 1.50519
vn -0.436458 0.30642 0.845938
v 2.76448 5.4824 1.51363
vn 0.493558 0.403552 -0.770419
v 2.70538 5.48885 1.48102
vn 0.469367 0.415072 -0.779365
v 2.75937 5.48516 1.51231
vn 0.125044 0.991487 -0.0362877
v 2.61126 5.48379 1.42728
vn 0.421504 0.0694586 -0.904162
v 2.60861 5.48831 1.42681
vn 0.23995 0.149403 -0.95922
v 2.61277 5.49247 1.42906
vn 0.410385 0.164358 -0.896979
v 2.59184 5.35052 1.42579
vn -0.872781 0.0841742 -0.480799
v 2.58834 5.48004 1.45583
vn -0.88331 0.0939782 -0.459272
v 2.60455 5.48199 1.42675
vn -0.858882 0.0968439 -0.502934
v 2.58521 5.22352 1.44063
vn -0.489206 -0.0586827 0.870192
v 2.58572 5.34865 1.44903
vn -0.54667 -0.0521869 0.83572
v 2.752 5.47049 1.54903
vn -0.233474 -0.00725131 0.972336
v 2.74826 5.47535 1.54762
vn -0.401331 0.034143 0.915296
v 2.77043 5.4727 1.51596
vn 0.701372 0.104896 -0.705035
v 2.76918 5.47956 1.51641
vn 0.741718 0.306252 -0.596711
v 2.60455 5.22584 1.40593
vn 0.483335 0.0578717 -0.873521
v 2.61592 5.47506 1.42893
vn 0.483398 0.0592416 -0.873394
v 2.58677 5.21024 1.41365
vn -0.862264 -0.1307 -0.489303
v 2.59262 5.22048 1.40262
vn -0.859898 0.0745574 -0.504992
v 2.74128 5.1938 1.5232
vn 0.756173 -0.304843 0.579027
v 2.7382 5.18949 1.52186
vn -0.157508 -0.362592 0.918541
v 2.73299 5.1876 1.51918
vn -0.451352 -0.409238 0.792972
v 2.7288 5.18573 1.51538
vn -0.0917442 -0.995745 0.0086774
v 2.66902 5.19297 1.45827
vn -0.0453671 -0.994744 -0.0917959
v 2.7458 5.18777 1.48486
vn 0.0353395 -0.975356 -0.217786
v 2.75113 5.18978 1.48663
vn 0.461518 -0.298958 -0.83524
v 2.75605 5.19163 1.48984
vn 0.715989 -0.257813 -0.648762
v 2.75856 5.19587 1.49219
vn 0.927142 -0.28123 0.247625
v 2.75206 5.1943 1.50471
vn 0.842843 -0.295147 0.450005
v 2.57891 5.20485 1.43411
vn -0.741719 -0.306252 0.59671
v 2.73218 5.20934 1.5216
vn -0.482845 -0.0592962 0.873696
v 2.75548 5.46392 1.54791
vn 0.861667 -0.0743136 0.502003
v 2.76237 5.33575 1.50149
vn 0.54667 0.0521869 -0.83572
v 2.59984 5.20905 1.40291
vn 0.401331 -0.034143 -0.915296
v 2.58954 5.48853 1.45834
vn -0.907018 0.286741 -0.308381
v 2.59205 5.49278 1.46068
vn -0.715989 0.257813 0.648762
v 2.59697 5.49463 1.46389
vn -0.457161 0.300278 0.83716
v 2.60229 5.49663 1.46566
vn -0.0153843 0.982892 0.183542
v 2.68265 5.49186 1.48585
vn 0.0453668 0.994744 0.0917958
v 2.6193 5.49867 1.43515
vn 0.120156 0.990846 -0.0615303
v 2.61511 5.4968 1.43135
vn 0.454052 0.410117 -0.790975
v 2.60989 5.49492 1.42866
vn 0.157508 0.362592 -0.918541
v 2.60682 5.49061 1.42732
vn -0.71498 0.306688 -0.628288
v 2.59955 5.49052 1.43952
vn -0.842842 0.295147 -0.450005
v 2.59657 5.47274 1.46363
vn -0.489143 -0.0573094 0.870319
v 2.75134 5.47741 1.54843
vn -0.131794 0.201459 0.97059
v 2.76698 5.4776 1.51402
vn 0.562108 0.149719 -0.813399
v 2.60485 5.35095 1.41471
vn 0.422884 0.0641253 -0.903912
v 2.57641 5.21853 1.4317
vn -0.88433 0.0715942 -0.46134
v 2.57682 5.20966 1.4326
vn -0.926596 -0.14254 -0.347998
v 2.66433 5.34104 1.4927
vn -0.485997 -0.0583033 0.872014
v 2.754 5.47267 1.54894
vn 0.775763 0.124453 0.61863
v 2.76799 5.46867 1.51362
vn 0.548389 0.0572209 -0.834263
v 2.59914 5.21802 1.40275
vn 0.421023 0.0590748 -0.905124
f 1//1 2//2 3//3
f 1//1 3//3 4//4
f 1//1 4//4 5//5
f 1//1 5//5 6//6
f 1//1 6//6 2//2
f 7//7 8//8 9//9
f 10//10 11//11 12//12
f 13//13 14//14 15//15
f 16//16 17//17 18//18
f 19//19 20//20 21//21
f 22//22 23//23 24//24
f 22//22 24//24 25//25
f 22//22 25//25 26//26
f 22//22 26//26 27//27
f 22//22 27//27 23//23
f 28//28 29//29 30//30
f 31//31 32//32 33//33
f 34//34 35//35 36//36
f 37//37 38//38 39//39
f 40//40 41//41 42//42
f 13//13 43//43 44//44
f 10//10 45//45 46//46
f 7//7 47//47 48//48
f 19//19 49//49 50//50
f 16//16 51//51 52//52
f 10//10 53//53 45//45
f 13//13 54//54 43//43
f 16//16 55//55 51//51
f 19//19 56//56 49//49
f 7//7 57//57 47//47
f 40//40 58//58 59//59
f 28//28 60//60 61//61
f 31//31 62//62 63//63
f 34//34 64//64 65//65
f 37//37 66//66 67//67
f 40//40 68//68 58//58
f 28//28 69//69 60//60
f 31//31 70//70 62//62
f 34//34 71//71 64//64
f 37//37 72//72 66//66
f 10//10 46//46 11//11
f 7//7 48//48 8//8
f 19//19 50//50 20//20
f 16//16 52//52 17//17
f 13//13 44//44 14//14
f 40//40 42//42 68//68
f 28//28 30//30 69//69
f 31//31 33//33 70//70
f 34//34 36//36 71//71
f 37//37 39//39 72//72
f 28//28 61//61 29//29
f 31//31 63//63 32//32
f 34//34 65//65 35//35
f 37//37 67//67 38//38
f 40//40 59//59 41//41
f 10//10 12//12 53//53
f 13//13 15//15 54//54
f 16//16 18//18 55//55
f 19//19 21//21 56//56
f 7//7 9//9 57//57
f 73//73 74//74 75//75
f 76//76 77//77 78//78
f 79//79 80//80 81//81
f 82//82 83//83 84//84
f 85//85 86//86 87//87
f 88//88 89//89 90//90
f 91//91 92//92 93//93
f 94//94 95//95 96//96
f 97//97 98//98 99//99
f 100//100 101//101 102//102
f 103//103 104//104 105//105
f 106//106 107//107 108//108
f 109//109 110//110 111//111
f 112//112 113//113 114//114
f 115//115 116//116 117//117
f 88//88 118//118 119//119
f 91//91 120//120 121//121
f 94//94 122//122 123//123
f 97//97 124//124 125//125
f 100//100 126//126 127//127
f 128//128 129//129 2//2
f 130//130 131//131 3//3
f 132//132 133//133 4//4
f 134//134 135//135 5//5
f 136//136 137//137 6//6
f 76//76 138//138 8//8
f 73//73 139//139 11//11
f 85//85 140//140 14//14
f 82//82 141//141 17//17
f 79//79 142//142 20//20
f 143//143 144//144 23//23
f 145//145 146//146 24//24
f 147//147 148//148 25//25
f 149//149 150//150 26//26
f 151//151 152//152 27//27
f 103//103 153//153 29//29
f 106//106 154//154 32//32
f 109//109 155//155 35//35
f 112//112 156//156 38//38
f 115//115 157//157 41//41
f 73//73 75//75 43//43
f 76//76 78//78 45//45
f 79//79 81//81 47//47
f 82//82 84//84 49//49
f 85//85 87//87 51//51
f 88//88 90//90 53//53
f 91//91 93//93 54//54
f 94//94 96//96 55//55
f 97//97 99//99 56//56
f 100//100 102//102 57//57
f 103//103 105//105 58//58
f 106//106 108//108 60//60
f 109//109 111//111 62//62
f 112//112 114//114 64//64
f 115//115 117//117 66//66
f 88//88 119//119 68//68
f 91//91 121//121 69//69
f 94//94 123//123 70//70
f 97//97 125//125 71//71
f 100//100 127//127 72//72
f 130//130 74//74 46//46
f 132//132 77//77 48//48
f 134//134 80//80 50//50
f 136//136 83//83 52//52
f 128//128 86//86 44//44
f 158//158 89//89 42//42
f 159//159 92//92 30//30
f 160//160 95//95 33//33
f 161//161 98//98 36//36
f 162//162 101//101 39//39
f 145//145 104//104 61//61
f 147//147 107//107 63//63
f 149//149 110//110 65//65
f 151//151 113//113 67//67
f 143//143 116//116 59//59
f 159//159 118//118 12//12
f 160//160 120//120 15//15
f 161//161 122//122 18//18
f 162//162 124//124 21//21
f 158//158 126//126 9//9
f 130//130 129//129 74//74
f 132//132 131//131 77//77
f 134//134 133//133 80//80
f 136//136 135//135 83//83
f 128//128 137//137 86//86
f 158//158 138//138 89//89
f 159//159 139//139 92//92
f 160//160 140//140 95//95
f 161//161 141//141 98//98
f 162//162 142//142 101//101
f 145//145 144//144 104//104
f 147//147 146//146 107//107
f 149//149 148//148 110//110
f 151//151 150//150 113//113
f 143//143 152//152 116//116
f 159//159 153//153 118//118
f 160//160 154//154 120//120
f 161//161 155//155 122//122
f 162//162 156//156 124//124
f 158//158 157//157 126//126
f 130//130 3//3 129//129
f 132//132 4//4 131//131
f 134//134 5//5 133//133
f 136//136 6//6 135//135
f 128//128 2//2 137//137
f 158//158 9//9 138//138
f 159//159 12//12 139//139
f 160//160 15//15 140//140
f 161//161 18//18 141//141
f 162//162 21//21 142//142
f 145//145 24//24 144//144
f 147//147 25//25 146//146
f 149//149 26//26 148//148
f 151//151 27//27 150//150
f 143//143 23//23 152//152
f 159//159 30//30 153//153
f 160//160 33//33 154//154
f 161//161 36//36 155//155
f 162//162 39//39 156//156
f 158//158 42//42 157//157
f 128//128 44//44 75//75
f 130//130 46//46 78//78
f 132//132 48//48 81//81
f 134//134 50//50 84//84
f 136//136 52//52 87//87
f 76//76 45//45 90//90
f 73//73 43//43 93//93
f 85//85 51//51 96//96
f 82//82 49//49 99//99
f 79//79 47//47 102//102
f 143//143 59//59 105//105
f 145//145 61//61 108//108
f 147//147 63//63 111//111
f 149//149 65//65 114//114
f 151//151 67//67 117//117
f 103//103 58//58 119//119
f 106//106 60//60 121//121
f 109//109 62//62 123//123
f 112//112 64//64 125//125
f 115//115 66//66 127//127
f 73//73 11//11 74//74
f 76//76 8//8 77//77
f 79//79 20//20 80//80
f 82//82 17//17 83//83
f 85//85 14//14 86//86
f 88//88 68//68 89//89
f 91//91 69//69 92//92
f 94//94 70//70 95//95
f 97//97 71//71 98//98
f 100//100 72//72 101//101
f 103//103 29//29 104//104
f 106//106 32//32 107//107
f 109//109 35//35 110//110
f 112//112 38//38 113//113
f 115//115 41//41 116//116
f 88//88 53//53 118//118
f 91//91 54//54 120//120
f 94//94 55//55 122//122
f 97//97 56//56 124//124
f 100//100 57//57 126//126
f 128//128 75//75 129//129
f 130//130 78//78 131//131
f 132//132 81//81 133//133
f 134//134 84//84 135//135
f 136//136 87//87 137//137
f 76//76 90//90 138//138
f 73//73 93//93 139//139
f 85//85 96//96 140//140
f 82//82 99//99 141//141
f 79//79 102//102 142//142
f 143//143 105//105 144//144
f 145//145 108//108 146//146
f 147//147 111//111 148//148
f 149//149 114//114 150//150
f 151//151 117//117 152//152
f 103//103 119//119 153//153
f 106//106 121//121 154//154
f 109//109 123//123 155//155
f 112//112 125//125 156//156
f 115//115 127//127 157//157
f 129//129 3//3 2//2
f 131//131 4//4 3//3
f 133//133 5//5 4//4
f 135//135 6//6 5//5
f 137//137 2//2 6//6
f 138//138 9//9 8//8
f 139//139 12//12 11//11
f 140//140 15//15 14//14
f 141//141 18//18 17//17
f 142//142 21//21 20//20
f 144//144 24//24 23//23
f 146//146 25//25 24//24
f 148//148 26//26 25//25
f 150//150 27//27 26//26
f 152//152 23//23 27//27
f 153//153 30//30 29//29
f 154//154 33//33 32//32
f 155//155 36//36 35//35
f 156//156 39//39 38//38
f 157//157 42//42 41//41
f 75//75 44//44 43//43
f 78//78 46//46 45//45
f 81//81 48//48 47//47
f 84//84 50//50 49//49
f 87//87 52//52 51//51
f 90//90 45//45 53//53
f 93//93 43//43 54//54
f 96//96 51//51 55//55
f 99//99 49//49 56//56
f 102//102 47//47 57//57
f 105//105 59//59 58//58
f 108//108 61//61 60//60
f 111//111 63//63 62//62
f 114//114 65//65 64//64
f 117//117 67//67 66//66
f 119//119 58//58 68//68
f 121//121 60//60 69//69
f 123//123 62//62 70//70
f 125//125 64//64 71//71
f 127//127 66//66 72//72
f 74//74 11//11 46//46
f 77//77 8//8 48//48
f 80//80 20//20 50//50
f 83//83 17//17 52//52
f 86//86 14//14 44//44
f 89//89 68//68 42//42
f 92//92 69//69 30//30
f 95//95 70//70 33//33
f 98//98 71//71 36//36
f 101//101 72//72 39//39
f 104//104 29//29 61//61
f 107//107 32//32 63//63
f 110//110 35//35 65//65
f 113//113 38//38 67//67
f 116//116 41//41 59//59
f 118//118 53//53 12//12
f 120//120 54//54 15//15
f 122//122 55//55 18//18
f 124//124 56//56 21//21
f 126//126 57//57 9//9
f 129//129 75//75 74//74
f 131//131 78//78 77//77
f 133//133 81//81 80//80
f 135//135 84//84 83//83
f 137//137 87//87 86//86
f 138//138 90//90 89//89
f 139//139 93//93 92//92
f 140//140 96//96 95//95
f 141//141 99//99 98//98
f 142//142 102//102 101//101
f 144//144 105//105 104//104
f 146//146 108//108 107//107
f 148//148 111//111 110//110
f 150//150 114//114 113//113
f 152//152 117//117 116//116
f 153//153 119//119 118//118
f 154//154 121//121 120//120
f 155//155 123//123 122//122
f 156//156 125//125 124//124
f 157//157 127//127 126//126
