# Created by Open3D 
# object name: part_012
# number of vertices: 162
# number of triangles: 320
v 2.14745 4.53183 0.449693
vn -0.257497 -0.121179 0.958651
v 2.14322 4.51078 0.444071
vn -0.511547 -0.258338 0.8195
v 2.15731 4.51253 0.448684
vn -0.123664 -0.25195 0.959806
v 2.16624 4.53527 0.45277
vn -0.0269276 -0.0762303 0.996727
v 2.15025 4.54668 0.451105
vn -0.197628 0.114633 0.973551
v 2.13649 4.54333 0.446378
vn -0.554182 -0.0634858 0.829971
v 2.74007 4.65323 0.464825
vn 0.237105 -0.0198602 0.971281
v 2.73865 4.63161 0.463528
vn 0.165544 -0.192705 0.967192
v 2.7525 4.63559 0.459628
vn 0.531106 -0.0447542 0.846123
v 2.44853 4.57067 0.44573
vn 0.20138 -0.978957 -0.0329948
v 2.17243 4.51435 0.434848
vn 0.200577 -0.978489 -0.0482557
v 2.44872 4.57136 0.432962
vn 0.201871 -0.977122 -0.0669367
v 2.13956 4.52259 0.236533
vn 0.0461117 -0.996315 -0.0723246
v 2.13547 4.52296 0.236518
vn -0.860773 -0.506894 -0.0461371
v 2.14103 4.53656 0.0489185
vn -0.0633844 -0.994758 -0.0802389
v 2.13198 4.55924 0.239131
vn -0.352672 0.933522 0.0644969
v 2.1359 4.54789 0.41813
vn -0.265126 0.961773 0.0685592
v 2.13968 4.57403 0.0605076
vn -0.265108 0.961928 0.0664257
v 2.37938 4.59658 0.446893
vn -0.202146 0.973665 0.105419
v 2.70378 4.66225 0.460814
vn -0.201431 0.966958 0.15626
v 2.71678 4.66599 0.451681
vn -0.201203 0.975391 0.0901631
v 2.74453 4.68411 0.0423274
vn 0.257495 0.12118 -0.958651
v 2.75688 4.66588 0.0451651
vn 0.548832 0.0779052 -0.832295
v 2.74312 4.66253 0.040438
vn 0.186129 -0.050312 -0.981236
v 2.72583 4.68024 0.0392203
vn 0.0269278 0.0762303 -0.996727
v 2.73607 4.69668 0.0428594
vn 0.109066 0.313909 -0.943168
v 2.75016 4.69843 0.0474726
vn 0.510832 0.273238 -0.815102
v 2.45279 4.60009 0.0430869
vn 0.202146 -0.973665 -0.105426
v 2.72891 4.65635 0.053965
vn 0.203126 -0.974986 -0.0902302
v 2.4527 4.59892 0.0558217
vn 0.20192 -0.976782 -0.0715891
v 2.15192 4.56271 0.0271954
vn -0.237107 0.0198614 -0.97128
v 2.16178 4.54344 0.0255937
vn -0.103082 -0.109553 -0.988621
v 2.1476 4.54107 0.0296073
vn -0.493813 -0.135678 -0.858918
v 2.38363 4.626 0.0442501
vn -0.20138 0.978957 0.0330016
v 2.1818 4.58468 0.0334039
vn -0.200889 0.979418 -0.0195862
v 2.16864 4.58172 0.0425919
vn -0.202959 0.978008 0.0480401
v 2.75382 4.68662 0.25501
vn -0.0461117 0.996315 0.0723246
v 2.74969 4.69899 0.076084
vn -0.137812 0.988005 0.0696767
v 2.74591 4.67285 0.433707
vn -0.137838 0.987848 0.0718089
v 2.76139 4.64997 0.252412
vn 0.352673 -0.933521 -0.0644969
v 2.765 4.65192 0.252592
vn 0.991852 -0.127393 0.00116805
v 2.75977 4.6367 0.440076
vn 0.452845 -0.889989 -0.0533859
v 2.14369 4.51022 0.415459
vn 0.137812 -0.988005 -0.0696767
v 2.13707 4.50914 0.424176
vn -0.0635312 -0.995757 -0.066571
v 2.71158 4.62453 0.458139
vn 0.200847 -0.979441 0.0188688
v 2.18522 4.51671 0.444699
vn 0.19952 -0.979713 0.018829
v 2.7316 4.66576 0.465949
vn 0.0887405 0.173293 0.980864
v 2.72132 4.64898 0.466943
vn 0.0058603 -0.0695153 0.997564
v 2.16447 4.55286 0.437578
vn -0.203407 0.974914 0.0903773
v 2.17743 4.55443 0.447373
vn -0.20276 0.966477 0.157513
v 2.12838 4.55729 0.238951
vn -0.967613 0.252306 0.00821677
v 2.12964 4.54509 0.426724
vn -0.452992 0.888989 0.067055
v 2.72473 4.62749 0.448951
vn 0.202682 -0.978058 -0.048201
v 2.14746 4.53636 0.0578366
vn 0.137838 -0.987848 -0.0718089
v 2.1336 4.57251 0.0514671
vn -0.452845 0.88999 0.0533859
v 2.37871 4.59759 0.434139
vn -0.20192 0.976782 0.0715887
v 2.74578 4.66814 0.461936
vn 0.493173 0.151062 0.856715
v 2.75748 4.66132 0.0734129
vn 0.265126 -0.961773 -0.0685592
v 2.76374 4.66412 0.064819
vn 0.452992 -0.888989 -0.067055
v 2.1896 4.54696 0.0307296
vn 0.201376 -0.966876 -0.156841
v 2.71595 4.65478 0.0441698
vn 0.202704 -0.966603 -0.156811
v 2.15472 4.5776 0.028015
vn -0.177302 0.255241 -0.950482
v 2.17076 4.56653 0.0250467
vn -0.00586064 0.0695154 -0.997564
v 2.72095 4.69486 0.0566949
vn -0.200761 0.978446 0.0483647
v 2.70815 4.6925 0.046844
vn -0.199588 0.97971 -0.0182438
v 2.7579 4.68625 0.255026
vn 0.788973 0.612131 0.0530695
v 2.75631 4.70007 0.0673677
vn 0.0635306 0.995757 0.066571
v 2.7537 4.63518 0.431036
vn 0.265108 -0.961928 -0.0664257
v 2.1766 4.54322 0.039862
vn 0.201021 -0.975418 -0.0902804
v 2.14087 4.57362 0.0319149
vn -0.53652 0.0586937 -0.841844
v 2.38269 4.62516 0.0569993
vn -0.201871 0.977122 0.0669372
v 2.75235 4.67265 0.442625
vn 0.0633844 0.994758 0.0802389
v 2.1538 4.51113 0.42779
vn 0.180517 -0.981345 -0.0661493
v 2.15833 4.51148 0.440611
vn 0.175057 -0.984558 0.000141367
v 2.14404 4.50932 0.433787
vn 0.120502 -0.992521 -0.0195187
v 2.72921 4.62857 0.461844
vn 0.19904 -0.961679 0.188564
v 2.71144 4.62587 0.464906
vn 0.0245731 -0.224629 0.974135
v 2.44824 4.57084 0.45572
vn 0.192079 -0.961911 0.194507
v 2.72167 4.66503 0.464429
vn -0.192221 0.926544 0.323369
v 2.38234 4.59554 0.456829
vn -0.1976 0.923701 0.328224
v 2.70437 4.66006 0.46733
vn -0.0552812 0.164135 0.984888
v 2.14589 4.54939 0.430503
vn -0.223175 0.97209 0.0723451
v 2.13638 4.54637 0.436414
vn -0.281398 0.952264 0.118356
v 2.15055 4.54912 0.44328
vn -0.227622 0.963882 0.138272
v 2.12996 4.54346 0.237957
vn -0.97935 -0.200619 -0.0250071
v 2.13366 4.51018 0.42443
vn -0.960576 -0.277988 -0.00414667
v 2.12693 4.54276 0.426741
vn -0.993427 -0.114233 0.00733661
v 2.74345 4.63192 0.442847
vn 0.223104 -0.972621 -0.0650614
v 2.75283 4.63403 0.449332
vn 0.280315 -0.959784 -0.0154385
v 2.73852 4.63033 0.455426
vn 0.226138 -0.974094 0.00145011
v 2.15783 4.53903 0.0459841
vn 0.180601 -0.980812 -0.0734311
v 2.17613 4.54161 0.058319
vn 0.200836 -0.977137 -0.0697717
v 2.15435 4.52468 0.236842
vn 0.181085 -0.980989 -0.0697791
v 2.13585 4.57325 0.0387876
vn -0.82557 0.430637 -0.364673
v 2.13717 4.55916 0.0367588
vn -0.866672 -0.145269 -0.477259
v 2.1309 4.57022 0.0510564
vn -0.992878 -0.11042 -0.0447375
v 2.38044 4.6114 0.245568
vn -0.201896 0.976955 0.0692643
v 2.16809 4.58049 0.0610756
vn -0.203239 0.976713 0.0687473
v 2.16431 4.55433 0.419105
vn -0.203249 0.976642 0.0697116
v 2.75034 4.67071 0.455219
vn 0.598587 0.667725 0.442535
v 2.74517 4.67108 0.451959
vn -0.121592 0.985 0.122434
v 2.74043 4.66881 0.461513
vn -0.0926622 0.9546 0.283113
v 2.74749 4.65982 0.0610407
vn 0.223175 -0.97209 -0.0723451
v 2.74282 4.66009 0.0482629
vn 0.227622 -0.963882 -0.138272
v 2.757 4.66284 0.0551292
vn 0.281398 -0.952264 -0.118356
v 2.1717 4.54418 0.027114
vn 0.19128 -0.927036 -0.322514
v 2.189 4.54915 0.0242136
vn 0.0387982 -0.0820186 -0.995875
v 2.45271 4.60172 0.0332247
vn 0.1976 -0.923702 -0.328222
v 2.16417 4.58064 0.0296989
vn -0.200511 0.96162 -0.187305
v 2.3868 4.62642 0.0343333
vn -0.19208 0.961911 -0.194506
v 2.18194 4.58334 0.0266377
vn -0.0360633 0.278356 -0.959801
v 2.73958 4.69808 0.0637531
vn -0.180517 0.981345 0.0661493
v 2.74934 4.69989 0.0577563
vn -0.120502 0.992521 0.0195188
v 2.73504 4.69773 0.0509319
vn -0.175057 0.984558 -0.000141055
v 2.76193 4.67292 0.254095
vn 0.97935 0.200619 0.0250071
v 2.76644 4.66645 0.0648026
vn 0.992043 0.12572 -0.00664839
v 2.75971 4.69903 0.0671128
vn 0.957295 0.289068 0.00505894
v 2.72528 4.62872 0.430468
vn 0.202956 -0.976771 -0.0687563
v 2.74697 4.64608 0.251975
vn 0.22262 -0.97248 -0.0687184
v 2.1482 4.53813 0.0395839
vn 0.121592 -0.985 -0.122434
v 2.16263 4.54123 0.0334479
vn 0.176525 -0.97435 -0.139574
v 2.14054 4.57518 0.0422111
vn -0.280315 0.959784 0.0154385
v 2.14553 4.57628 0.0325739
vn -0.299386 0.942489 -0.148605
v 2.71725 4.6676 0.433224
vn -0.201021 0.977099 0.0697664
v 2.72103 4.69376 0.0751946
vn -0.201011 0.97717 0.0688064
v 2.75475 4.65711 0.455285
vn 0.866672 0.145269 0.477259
v 2.75574 4.67157 0.442797
vn 0.956744 0.285265 0.057134
v 2.1388 4.50922 0.436957
vn -0.700055 -0.612226 0.367563
v 2.14858 4.51017 0.443667
vn 0.088166 -0.985756 0.143221
v 2.16726 4.51346 0.447495
vn 0.185889 -0.964375 0.188217
v 2.18449 4.51793 0.45145
vn 0.0179896 -0.225979 0.973966
v 2.44368 4.5925 0.460719
vn -0.0105351 -0.0728832 0.997285
v 2.17742 4.55212 0.453874
vn -0.0566505 0.135924 0.989098
v 2.15973 4.54992 0.45008
vn -0.205881 0.924483 0.320849
v 2.14116 4.54605 0.446211
vn -0.303894 0.911332 0.277708
v 2.13162 4.54397 0.43942
vn -0.833709 0.374321 0.405972
v 2.13291 4.52973 0.439407
vn -0.876286 -0.211775 0.432753
v 2.74784 4.63293 0.458969
vn 0.299385 -0.942489 0.148605
v 2.17235 4.51545 0.416349
vn 0.200826 -0.977207 -0.0688105
v 2.13763 4.53764 0.0487462
vn -0.960022 -0.274165 -0.0564939
v 2.1464 4.56313 0.239569
vn -0.22262 0.97248 0.0687184
v 2.73074 4.66798 0.458095
vn -0.176524 0.97435 0.139574
v 2.76176 4.66524 0.0521228
vn 0.874209 -0.230551 -0.427323
v 2.75221 4.66316 0.0453324
vn 0.303893 -0.911333 -0.277707
v 2.73365 4.65929 0.041463
vn 0.204436 -0.924357 -0.322133
v 2.71595 4.65709 0.0376691
vn 0.0453822 -0.0806697 -0.995707
v 2.44821 4.62388 0.031333
vn 0.0105351 0.0728832 -0.997285
v 2.70889 4.69128 0.0400931
vn -0.0348271 0.305656 -0.951505
v 2.72611 4.69575 0.044048
vn -0.18681 0.964015 -0.189149
v 2.7448 4.69904 0.0478759
vn -0.0881661 0.985756 -0.143221
v 2.75457 4.69999 0.0545863
vn 0.60674 0.724031 -0.328094
v 2.759 4.68654 0.0526371
vn 0.876286 0.211776 -0.432752
v 2.72906 4.65488 0.0724378
vn 0.202966 -0.976701 -0.0697171
v 2.15295 4.5404 0.0300303
vn 0.0926624 -0.9546 -0.283112
v 2.15485 4.57888 0.0361169
vn -0.226138 0.974094 -0.0014504
v 2.73903 4.68453 0.254701
vn -0.181084 0.980989 0.069779
v 2.76248 4.63899 0.440487
vn 0.991491 0.121889 0.0456983
v 2.75752 4.63596 0.452756
vn 0.865393 -0.291553 0.407543
v 2.45073 4.58507 0.244386
vn 0.201896 -0.976955 -0.0692643
v 2.14303 4.5385 0.0363241
vn -0.691224 -0.55123 -0.467285
v 2.14992 4.57729 0.0486966
vn -0.223104 0.972621 0.0650614
v 2.73555 4.67018 0.445559
vn -0.180601 0.980812 0.0734311
f 1//1 2//2 3//3
f 1//1 3//3 4//4
f 1//1 4//4 5//5
f 1//1 5//5 6//6
f 1//1 6//6 2//2
f 7//7 8//8 9//9
f 10//10 11//11 12//12
f 13//13 14//14 15//15
f 16//16 17//17 18//18
f 19//19 20//20 21//21
f 22//22 23//23 24//24
f 22//22 24//24 25//25
f 22//22 25//25 26//26
f 22//22 26//26 27//27
f 22//22 27//27 23//23
f 28//28 29//29 30//30
f 31//31 32//32 33//33
f 34//34 35//35 36//36
f 37//37 38//38 39//39
f 40//40 41//41 42//42
f 13//13 43//43 44//44
f 10//10 45//45 46//46
f 7//7 47//47 48//48
f 19//19 49//49 50//50
f 16//16 51//51 52//52
f 10//10 53//53 45//45
f 13//13 54//54 43//43
f 16//16 55//55 51//51
f 19//19 56//56 49//49
f 7//7 57//57 47//47
f 40//40 58//58 59//59
f 28//28 60//60 61//61
f 31//31 62//62 63//63
f 34//34 64//64 65//65
f 37//37 66//66 67//67
f 40//40 68//68 58//58
f 28//28 69//69 60//60
f 31//31 70//70 62//62
f 34//34 71//71 64//64
f 37//37 72//72 66//66
f 10//10 46//46 11//11
f 7//7 48//48 8//8
f 19//19 50//50 20//20
f 16//16 52//52 17//17
f 13//13 44//44 14//14
f 40//40 42//42 68//68
f 28//28 30//30 69//69
f 31//31 33//33 70//70
f 34//34 36//36 71//71
f 37//37 39//39 72//72
f 28//28 61//61 29//29
f 31//31 63//63 32//32
f 34//34 65//65 35//35
f 37//37 67//67 38//38
f 40//40 59//59 41//41
f 10//10 12//12 53//53
f 13//13 15//15 54//54
f 16//16 18//18 55//55
f 19//19 21//21 56//56
f 7//7 9//9 57//57
f 73//73 74//74 75//75
f 76//76 77//77 78//78
f 79//79 80//80 81//81
f 82//82 83//83 84//84
f 85//85 86//86 87//87
f 88//88 89//89 90//90
f 91//91 92//92 93//93
f 94//94 95//95 96//96
f 97//97 98//98 99//99
f 100//100 101//101 102//102
f 103//103 104//104 105//105
f 106//106 107//107 108//108
f 109//109 110//110 111//111
f 112//112 113//113 114//114
f 115//115 116//116 117//117
f 88//88 118//118 119//119
f 91//91 120//120 121//121
f 94//94 122//122 123//123
f 97//97 124//124 125//125
f 100//100 126//126 127//127
f 128//128 129//129 2//2
f 130//130 131//131 3//3
f 132//132 133//133 4//4
f 134//134 135//135 5//5
f 136//136 137//137 6//6
f 76//76 138//138 8//8
f 73//73 139//139 11//11
f 85//85 140//140 14//14
f 82//82 141//141 17//17
f 79//79 142//142 20//20
f 143//143 144//144 23//23
f 145//145 146//146 24//24
f 147//147 148//148 25//25
f 149//149 150//150 26//26
f 151//151 152//152 27//27
f 103//103 153//153 29//29
f 106//106 154//154 32//32
f 109//109 155//155 35//35
f 112//112 156//156 38//38
f 115//115 157//157 41//41
f 73//73 75//75 43//43
f 76//76 78//78 45//45
f 79//79 81//81 47//47
f 82//82 84//84 49//49
f 85//85 87//87 51//51
f 88//88 90//90 53//53
f 91//91 93//93 54//54
f 94//94 96//96 55//55
f 97//97 99//99 56//56
f 100//100 102//102 57//57
f 103//103 105//105 58//58
f 106//106 108//108 60//60
f 109//109 111//111 62//62
f 112//112 114//114 64//64
f 115//115 117//117 66//66
f 88//88 119//119 68//68
f 91//91 121//121 69//69
f 94//94 123//123 70//70
f 97//97 125//125 71//71
f 100//100 127//127 72//72
f 130//130 74//74 46//46
f 132//132 77//77 48//48
f 134//134 80//80 50//50
f 136//136 83//83 52//52
f 128//128 86//86 44//44
f 158//158 89//89 42//42
f 159//159 92//92 30//30
f 160//160 95//95 33//33
f 161//161 98//98 36//36
f 162//162 101//101 39//39
f 145//145 104//104 61//61
f 147//147 107//107 63//63
f 149//149 110//110 65//65
f 151//151 113//113 67//67
f 143//143 116//116 59//59
f 159//159 118//118 12//12
f 160//160 120//120 15//15
f 161//161 122//122 18//18
f 162//162 124//124 21//21
f 158//158 126//126 9//9
f 130//130 129//129 74//74
f 132//132 131//131 77//77
f 134//134 133//133 80//80
f 136//136 135//135 83//83
f 128//128 137//137 86//86
f 158//158 138//138 89//89
f 159//159 139//139 92//92
f 160//160 140//140 95//95
f 161//161 141//141 98//98
f 162//162 142//142 101//101
f 145//145 144//144 104//104
f 147//147 146//146 107//107
f 149//149 148//148 110//110
f 151//151 150//150 113//113
f 143//143 152//152 116//116
f 159//159 153//153 118//118
f 160//160 154//154 120//120
f 161//161 155//155 122//122
f 162//162 156//156 124//124
f 158//158 157//157 126//126
f 130//130 3//3 129//129
f 132//132 4//4 131//131
f 134//134 5//5 133//133
f 136//136 6//6 135//135
f 128//128 2//2 137//137
f 158//158 9//9 138//138
f 159//159 12//12 139//139
f 160//160 15//15 140//140
f 161//161 18//18 141//141
f 162//162 21//21 142//142
f 145//145 24//24 144//144
f 147//147 25//25 146//146
f 149//149 26//26 148//148
f 151//151 27//27 150//150
f 143//143 23//23 152//152
f 159//159 30//30 153//153
f 160//160 33//33 154//154
f 161//161 36//36 155//155
f 162//162 39//39 156//156
f 158//158 42//42 157//157
f 128//128 44//44 75//75
f 130//130 46//46 78//78
f 132//132 48//48 81//81
f 134//134 50//50 84//84
f 136//136 52//52 87//87
f 76//76 45//45 90//90
f 73//73 43//43 93//93
f 85//85 51//51 96//96
f 82//82 49//49 99//99
f 79//79 47//47 102//102
f 143//143 59//59 105//105
f 145//145 61//61 108//108
f 147//147 63//63 111//111
f 149//149 65//65 114//114
f 151//151 67//67 117//117
f 103//103 58//58 119//119
f 106//106 60//60 121//121
f 109//109 62//62 123//123
f 112//112 64//64 125//125
f 115//115 66//66 127//127
f 73//73 11//11 74//74
f 76//76 8//8 77//77
f 79//79 20//20 80//80
f 82//82 17//17 83//83
f 85//85 14//14 86//86
f 88//88 68//68 89//89
f 91//91 69//69 92//92
f 94//94 70//70 95//95
f 97//97 71//71 98//98
f 100//100 72//72 101//101
f 103//103 29//29 104//104
f 106//106 32//32 107//107
f 109//109 35//35 110//110
f 112//112 38//38 113//113
f 115//115 41//41 116//116
f 88//88 53//53 118//118
f 91//91 54//54 120//120
f 94//94 55//55 122//122
f 97//97 56//56 124//124
f 100//100 57//57 126//126
f 128//128 75//75 129//129
f 130//130 78//78 131//131
f 132//132 81//81 133//133
f 134//134 84//84 135//135
f 136//136 87//87 137//137
f 76//76 90//90 138//138
f 73//73 93//93 139//139
f 85//85 96//96 140//140
f 82//82 99//99 141//141
f 79//79 102//102 142//142
f 143//143 105//105 144//144
f 145//145 108//108 146//146
f 147//147 111//111 148//148
f 149//149 114//114 150//150
f 151//151 117//117 152//152
f 103//103 119//119 153//153
f 106//106 121//121 154//154
f 109//109 123//123 155//155
f 112//112 125//125 156//156
f 115//115 127//127 157//157
f 129//129 3//3 2//2
f 131//131 4//4 3//3
f 133//133 5//5 4//4
f 135//135 6//6 5//5
f 137//137 2//2 6//6
f 138//138 9//9 8//8
f 139//139 12//12 11//11
f 140//140 15//15 14//14
f 141//141 18//18 17//17
f 142//142 21//21 20//20
f 144//144 24//24 23//23
f 146//146 25//25 24//24
f 148//148 26//26 25//25
f 150//150 27//27 26//26
f 152//152 23//23 27//27
f 153//153 30//30 29//29
f 154//154 33//33 32//32
f 155//155 36//36 35//35
f 156//156 39//39 38//38
f 157//157 42//42 41//41
f 75//75 44//44 43//43
f 78//78 46//46 45//45
f 81//81 48//48 47//47
f 84//84 50//50 49//49
f 87//87 52//52 51//51
f 90//90 45//45 53//53
f 93//93 43//43 54//54
f 96//96 51//51 55//55
f 99//99 49//49 56//56
f 102//102 47//47 57//57
f 105//105 59//59 58//58
f 108//108 61//61 60//60
f 111//111 63//63 62//62
f 114//114 65//65 64//64
f 117//117 67//67 66//66
f 119//119 58//58 68//68
f 121//121 60//60 69//69
f 123//123 62//62 70//70
f 125//125 64//64 71//71
f 127//127 66//66 72//72
f 74//74 11//11 46//46
f 77//77 8//8 48//48
f 80//80 20//20 50//50
f 83//83 17//17 52//52
f 86//86 14//14 44//44
f 89//89 68//68 42//42
f 92//92 69//69 30//30
f 95//95 70//70 33//33
f 98//98 71//71 36//36
f 101//101 72//72 39//39
f 104//104 29//29 61//61
f 107//107 32//32 63//63
f 110//110 35//35 65//65
f 113//113 38//38 67//67
f 116//116 41//41 59//59
f 118//118 53//53 12//12
f 120//120 54//54 15//15
f 122//122 55//55 18//18
f 124//124 56//56 21//21
f 126//126 57//57 9//9
f 129//129 75//75 74//74
f 131//131 78//78 77//77
f 133//133 81//81 80//80
f 135//135 84//84 83//83
f 137//137 87//87 86//86
f 138//138 90//90 89//89
f 139//139 93//93 92//92
f 140//140 96//96 95//95
f 141//141 99//99 98//98
f 142//142 102//102 101//101
f 144//144 105//105 104//104
f 146//146 108//108 107//107
f 148//148 111//111 110//110
f 150//150 114//114 113//113
f 152//152 117//117 116//116
f 153//153 119//119 118//118
f 154//154 121//121 120//120
f 155//155 123//123 122//122
f 156//156 125//125 124//124
f 157//157 127//127 126//126
