# Created by Open3D 
# object name: part_025
# number of vertices: 162
# number of triangles: 320
v 0.916257 5.46459 0.834748
vn 0.341499 -0.576392 0.742395
v 0.909687 5.44792 0.824152
vn 0.184231 -0.616837 0.765226
v 0.918051 5.44852 0.820996
vn 0.383929 -0.603242 0.699069
v 0.927151 5.4666 0.830404
vn 0.442484 -0.556204 0.703452
v 0.920422 5.47659 0.841698
vn 0.390673 -0.516035 0.762288
v 0.911947 5.47467 0.843881
vn 0.186357 -0.56536 0.803517
v 1.25028 5.54654 0.685388
vn 0.550784 -0.525051 0.648813
v 1.24573 5.52891 0.674476
vn 0.505586 -0.573391 0.644675
v 1.25311 5.53218 0.67059
vn 0.675089 -0.496416 0.545734
v 1.08045 5.48855 0.744416
vn -0.00961032 -0.867458 -0.497418
v 0.924306 5.45094 0.813245
vn -0.0355632 -0.842547 -0.537447
v 1.07882 5.49034 0.741756
vn -0.0640907 -0.807508 -0.586364
v 0.879787 5.47774 0.783611
vn -0.286447 -0.832045 -0.475026
v 0.8777 5.47816 0.785283
vn -0.885446 -0.38079 0.26643
v 0.855825 5.50727 0.746917
vn -0.431851 -0.809788 -0.397176
v 0.882331 5.50786 0.805823
vn -0.155007 0.72375 0.672428
v 0.908324 5.48117 0.83992
vn -0.023955 0.773581 0.633244
v 0.863075 5.53703 0.76937
vn -0.0273599 0.777793 0.627924
v 1.04862 5.51169 0.78315
vn 0.124908 0.725137 0.677181
v 1.23215 5.55536 0.702289
vn 0.199651 0.601081 0.773848
v 1.23829 5.55895 0.697384
vn 0.102357 0.759725 0.642138
v 1.19682 5.61252 0.60204
vn -0.341496 0.576393 -0.742395
v 1.20067 5.59691 0.588827
vn -0.188262 0.56928 -0.800299
v 1.19219 5.59499 0.591011
vn -0.389934 0.532053 -0.751579
v 1.1859 5.61016 0.606125
vn -0.442483 0.556205 -0.703452
v 1.19456 5.62306 0.611712
vn -0.382044 0.618141 -0.686982
v 1.20293 5.62366 0.608556
vn -0.181678 0.620818 -0.762613
v 1.0295 5.55143 0.664984
vn -0.124914 -0.725128 -0.677189
v 1.18564 5.589 0.596123
vn -0.0996923 -0.758826 -0.643619
v 1.0311 5.54925 0.667356
vn -0.0715478 -0.798303 -0.597992
v 0.862799 5.53058 0.7514
vn -0.550783 0.525051 -0.648814
v 0.864518 5.5146 0.737531
vn -0.511594 0.502202 -0.697183
v 0.857246 5.51266 0.742389
vn -0.679107 0.448852 -0.580815
v 0.997669 5.57457 0.703719
vn 0.00961485 0.867453 0.497426
v 0.883088 5.54723 0.753284
vn -0.0722564 0.932807 0.353057
v 0.877002 5.54427 0.758665
vn 0.0318117 0.841972 0.538583
v 1.23283 5.59384 0.649098
vn 0.286446 0.832045 0.475026
v 1.20691 5.62138 0.615625
vn 0.158863 0.823478 0.544653
v 1.25216 5.56552 0.686175
vn 0.162279 0.819268 0.549968
v 1.23028 5.56373 0.626885
vn 0.155007 -0.72375 -0.672428
v 1.23253 5.56521 0.626619
vn 0.857227 0.0467287 -0.512815
v 1.25429 5.53477 0.664001
vn 0.307772 -0.659104 -0.686191
v 0.905709 5.45021 0.817083
vn -0.158864 -0.823478 -0.544653
v 0.903306 5.44866 0.820946
vn -0.411056 -0.83545 -0.364768
v 1.22953 5.52435 0.679425
vn 0.0711456 -0.932173 -0.354952
v 0.932849 5.45157 0.812085
vn 0.0693038 -0.932647 -0.354071
v 1.2481 5.55698 0.695177
vn 0.512531 -0.486138 0.707801
v 1.24002 5.54336 0.690504
vn 0.456004 -0.552882 0.697411
v 0.926979 5.48258 0.836586
vn 0.099544 0.758365 0.644185
v 0.935467 5.48257 0.834949
vn 0.199513 0.597335 0.776779
v 0.880083 5.50637 0.806089
vn -0.832083 0.02573 0.554055
v 0.905801 5.47821 0.842736
vn -0.286984 0.633437 0.718608
v 1.23561 5.52731 0.674043
vn -0.0324748 -0.841797 -0.538817
v 0.860459 5.50606 0.746533
vn -0.162281 -0.819268 -0.549968
v 0.858321 5.53682 0.768707
vn -0.307773 0.659103 0.686191
v 1.04659 5.51377 0.78097
vn 0.0715487 0.798301 0.597993
v 1.25537 5.55892 0.690319
vn 0.680972 -0.444013 0.582349
v 1.20429 5.59041 0.592788
vn 0.0239553 -0.773581 -0.633245
v 1.20681 5.59338 0.589972
vn 0.286981 -0.63344 -0.718607
v 0.88047 5.51623 0.730419
vn -0.200543 -0.599554 -0.774801
v 1.17715 5.58901 0.597759
vn -0.198687 -0.599078 -0.775648
v 0.866889 5.54267 0.758233
vn -0.503908 0.588243 -0.632493
v 0.873032 5.53341 0.746025
vn -0.456003 0.552882 -0.697411
v 1.18831 5.62065 0.619463
vn 0.0354716 0.842291 0.537855
v 1.17977 5.62001 0.620623
vn -0.0684952 0.932063 0.355762
v 1.23491 5.59342 0.647425
vn 0.871735 0.443728 -0.207808
v 1.20931 5.62292 0.611762
vn 0.411056 0.83545 0.364769
v 1.24954 5.53456 0.663338
vn 0.0273605 -0.777793 -0.627925
v 0.874329 5.51263 0.735324
vn -0.102784 -0.759569 -0.642254
v 0.859505 5.53941 0.762118
vn -0.676296 0.499477 -0.54143
v 0.998873 5.57267 0.70657
vn 0.0640929 0.807506 0.586367
v 1.25679 5.56431 0.685791
vn 0.431849 0.809788 0.397178
v 0.912955 5.44949 0.816726
vn -0.0931688 -0.817237 -0.568721
v 0.917248 5.44841 0.818221
vn 0.00673544 -0.921684 -0.387883
v 0.908387 5.44769 0.820726
vn -0.100199 -0.911011 -0.400025
v 1.24001 5.52683 0.675953
vn 0.266141 -0.962813 0.0464723
v 1.23066 5.52481 0.681727
vn 0.447158 -0.589473 0.672734
v 1.08176 5.48774 0.746922
vn 0.26351 -0.962718 0.0611205
v 1.24254 5.5568 0.698055
vn 0.364265 0.203389 0.908815
v 1.05143 5.50979 0.783836
vn 0.361035 0.19177 0.912622
v 1.23303 5.55291 0.702453
vn 0.454291 -0.497327 0.739112
v 0.915611 5.48093 0.839917
vn 0.0423851 0.787504 0.614851
v 0.91096 5.47814 0.843188
vn 0.0320853 0.654977 0.754967
v 0.919861 5.47935 0.84104
vn 0.138207 0.634897 0.760134
v 0.878451 5.49505 0.79817
vn -0.890825 -0.218545 0.398333
v 0.90173 5.44959 0.822777
vn -0.865538 -0.288843 0.409163
v 0.903992 5.47637 0.842528
vn -0.858295 -0.205249 0.470321
v 1.24531 5.53102 0.668111
vn -0.030697 -0.801915 -0.596648
v 1.25153 5.53187 0.667287
vn 0.129642 -0.854628 -0.502796
v 1.24427 5.52864 0.671991
vn 0.079601 -0.903775 -0.420541
v 0.864646 5.50912 0.741406
vn -0.104846 -0.802827 -0.586921
v 0.876477 5.50954 0.738934
vn -0.0701552 -0.802362 -0.5927
v 0.887958 5.47902 0.779381
vn -0.0982489 -0.809938 -0.578228
v 0.857797 5.53858 0.765339
vn -0.859579 0.503949 -0.0846183
v 0.855832 5.52715 0.757141
vn -0.926618 0.270724 -0.260937
v 0.856457 5.53504 0.768415
vn -0.910108 -0.141291 0.389539
v 1.0226 5.54325 0.743876
vn 0.0678222 0.802932 0.592199
v 0.879176 5.5415 0.762504
vn 0.0650723 0.803398 0.591876
v 0.924477 5.48558 0.833134
vn 0.0666178 0.80149 0.594285
v 1.25723 5.56156 0.688433
vn 0.899755 -0.0282481 0.43548
v 1.25411 5.56233 0.689749
vn 0.261939 0.711365 0.652187
v 1.25261 5.55966 0.692509
vn 0.451742 0.317495 0.833742
v 1.197 5.59065 0.592791
vn -0.042385 -0.787504 -0.614851
v 1.19275 5.59223 0.591668
vn -0.138206 -0.634898 -0.760134
v 1.20166 5.59344 0.589521
vn -0.0320856 -0.654978 -0.754966
v 0.870077 5.51478 0.734653
vn -0.364831 -0.205431 -0.908128
v 0.879584 5.51867 0.730256
vn -0.453207 0.517874 -0.725542
v 1.02831 5.55373 0.663574
vn -0.361034 -0.191774 -0.912621
v 0.872608 5.54475 0.756755
vn -0.266702 0.962804 -0.0433423
v 0.997971 5.57578 0.700489
vn -0.26351 0.962718 -0.0611205
v 0.881958 5.54677 0.750981
vn -0.445714 0.602179 -0.662359
v 1.19966 5.6221 0.615982
vn 0.0931692 0.817237 0.56872
v 1.20423 5.6239 0.611983
vn 0.100199 0.91101 0.400026
v 1.19537 5.62317 0.614487
vn -0.0067351 0.921684 0.387884
v 1.23466 5.58244 0.638889
vn 0.890825 0.218545 -0.398333
v 1.20862 5.59522 0.59018
vn 0.858982 0.211252 -0.466392
v 1.21089 5.622 0.609932
vn 0.865824 0.294397 -0.404572
v 1.23344 5.53008 0.670205
vn -0.0654887 -0.803498 -0.591695
v 1.22199 5.56096 0.630019
vn -0.0373132 -0.794988 -0.605477
v 0.858509 5.50926 0.742959
vn -0.261941 -0.711364 -0.652187
v 0.86573 5.512 0.737898
vn -0.211096 -0.652797 -0.727526
v 0.861082 5.53971 0.765421
vn -0.129641 0.854628 0.502797
v 0.862496 5.5414 0.761946
vn -0.346019 0.933969 0.0892942
v 1.23614 5.56204 0.693774
vn 0.0698817 0.802298 0.592819
v 1.19084 5.61796 0.623144
vn 0.0683445 0.804196 0.590422
v 1.25727 5.55024 0.679848
vn 0.926616 -0.270726 0.260939
v 1.25842 5.56332 0.684045
vn 0.917638 0.230437 -0.323788
v 0.906076 5.44745 0.82331
vn -0.252166 -0.721001 0.645423
v 0.912343 5.44731 0.821799
vn 0.0971466 -0.995026 0.0220478
v 0.923267 5.44913 0.817584
vn 0.251628 -0.966371 0.053017
v 0.933642 5.45194 0.814539
vn 0.444412 -0.590151 0.673959
v 1.08372 5.50521 0.760883
vn 0.449257 -0.554559 0.700452
v 0.936015 5.48004 0.835264
vn 0.451124 -0.504867 0.735932
v 0.925798 5.47909 0.839686
vn 0.347994 0.204002 0.915032
v 0.914833 5.4768 0.843546
vn 0.202844 0.25645 0.945033
v 0.908489 5.47601 0.844373
vn -0.208221 -0.300062 0.930917
v 0.906778 5.46426 0.836573
vn -0.253449 -0.56023 0.78861
v 1.25012 5.53018 0.670762
vn 0.346019 -0.933969 -0.0892942
v 0.921778 5.45362 0.809565
vn -0.0686145 -0.804264 -0.590297
v 0.854195 5.50826 0.748664
vn -0.917589 -0.224591 0.328008
v 0.890627 5.51062 0.802689
vn 0.0373132 0.794988 0.605477
v 1.24689 5.55958 0.69481
vn 0.211095 0.652798 0.727525
v 1.20413 5.59558 0.588335
vn 0.223152 0.377674 -0.898647
v 1.19778 5.59478 0.589162
vn -0.202842 -0.256453 -0.945033
v 1.18682 5.59249 0.593022
vn -0.3503 -0.201862 -0.914627
v 1.1766 5.59154 0.597444
vn -0.450461 0.518547 -0.72677
v 1.02939 5.57227 0.676176
vn -0.449257 0.554559 -0.700451
v 1.17897 5.61964 0.61817
vn -0.442069 0.609135 -0.658429
v 1.18935 5.62246 0.615124
vn -0.253413 0.965837 -0.0542313
v 1.20027 5.62427 0.610909
vn -0.0971465 0.995026 -0.0220475
v 1.20654 5.62414 0.609398
vn 0.248419 0.775777 -0.58005
v 1.20633 5.61313 0.600416
vn 0.253451 0.560229 -0.78861
v 1.18814 5.586 0.599574
vn -0.0670301 -0.801595 -0.594097
v 0.860006 5.51192 0.740199
vn -0.45174 -0.317499 -0.833742
v 0.868343 5.54294 0.760717
vn -0.0796011 0.903775 0.420541
v 1.22466 5.59257 0.653327
vn 0.0982491 0.809938 0.578228
v 1.25616 5.53654 0.664293
vn 0.911036 0.146996 -0.385235
v 1.25482 5.533 0.66737
vn 0.886844 -0.441565 0.136118
v 1.05495 5.51973 0.70451
vn -0.0678222 -0.802932 -0.592199
v 0.855385 5.51002 0.744275
vn -0.915841 0.0982467 -0.389336
v 0.867302 5.54056 0.764597
vn 0.030697 0.801915 0.596648
v 1.24797 5.56247 0.691303
vn 0.104846 0.802827 0.586921
f 1//1 2//2 3//3
f 1//1 3//3 4//4
f 1//1 4//4 5//5
f 1//1 5//5 6//6
f 1//1 6//6 2//2
f 7//7 8//8 9//9
f 10//10 11//11 12//12
f 13//13 14//14 15//15
f 16//16 17//17 18//18
f 19//19 20//20 21//21
f 22//22 23//23 24//24
f 22//22 24//24 25//25
f 22//22 25//25 26//26
f 22//22 26//26 27//27
f 22//22 27//27 23//23
f 28//28 29//29 30//30
f 31//31 32//32 33//33
f 34//34 35//35 36//36
f 37//37 38//38 39//39
f 40//40 41//41 42//42
f 13//13 43//43 44//44
f 10//10 45//45 46//46
f 7//7 47//47 48//48
f 19//19 49//49 50//50
f 16//16 51//51 52//52
f 10//10 53//53 45//45
f 13//13 54//54 43//43
f 16//16 55//55 51//51
f 19//19 56//56 49//49
f 7//7 57//57 47//47
f 40//40 58//58 59//59
f 28//28 60//60 61//61
f 31//31 62//62 63//63
f 34//34 64//64 65//65
f 37//37 66//66 67//67
f 40//40 68//68 58//58
f 28//28 69//69 60//60
f 31//31 70//70 62//62
f 34//34 71//71 64//64
f 37//37 72//72 66//66
f 10//10 46//46 11//11
f 7//7 48//48 8//8
f 19//19 50//50 20//20
f 16//16 52//52 17//17
f 13//13 44//44 14//14
f 40//40 42//42 68//68
f 28//28 30//30 69//69
f 31//31 33//33 70//70
f 34//34 36//36 71//71
f 37//37 39//39 72//72
f 28//28 61//61 29//29
f 31//31 63//63 32//32
f 34//34 65//65 35//35
f 37//37 67//67 38//38
f 40//40 59//59 41//41
f 10//10 12//12 53//53
f 13//13 15//15 54//54
f 16//16 18//18 55//55
f 19//19 21//21 56//56
f 7//7 9//9 57//57
f 73//73 74//74 75//75
f 76//76 77//77 78//78
f 79//79 80//80 81//81
f 82//82 83//83 84//84
f 85//85 86//86 87//87
f 88//88 89//89 90//90
f 91//91 92//92 93//93
f 94//94 95//95 96//96
f 97//97 98//98 99//99
f 100//100 101//101 102//102
f 103//103 104//104 105//105
f 106//106 107//107 108//108
f 109//109 110//110 111//111
f 112//112 113//113 114//114
f 115//115 116//116 117//117
f 88//88 118//118 119//119
f 91//91 120//120 121//121
f 94//94 122//122 123//123
f 97//97 124//124 125//125
f 100//100 126//126 127//127
f 128//128 129//129 2//2
f 130//130 131//131 3//3
f 132//132 133//133 4//4
f 134//134 135//135 5//5
f 136//136 137//137 6//6
f 76//76 138//138 8//8
f 73//73 139//139 11//11
f 85//85 140//140 14//14
f 82//82 141//141 17//17
f 79//79 142//142 20//20
f 143//143 144//144 23//23
f 145//145 146//146 24//24
f 147//147 148//148 25//25
f 149//149 150//150 26//26
f 151//151 152//152 27//27
f 103//103 153//153 29//29
f 106//106 154//154 32//32
f 109//109 155//155 35//35
f 112//112 156//156 38//38
f 115//115 157//157 41//41
f 73//73 75//75 43//43
f 76//76 78//78 45//45
f 79//79 81//81 47//47
f 82//82 84//84 49//49
f 85//85 87//87 51//51
f 88//88 90//90 53//53
f 91//91 93//93 54//54
f 94//94 96//96 55//55
f 97//97 99//99 56//56
f 100//100 102//102 57//57
f 103//103 105//105 58//58
f 106//106 108//108 60//60
f 109//109 111//111 62//62
f 112//112 114//114 64//64
f 115//115 117//117 66//66
f 88//88 119//119 68//68
f 91//91 121//121 69//69
f 94//94 123//123 70//70
f 97//97 125//125 71//71
f 100//100 127//127 72//72
f 130//130 74//74 46//46
f 132//132 77//77 48//48
f 134//134 80//80 50//50
f 136//136 83//83 52//52
f 128//128 86//86 44//44
f 158//158 89//89 42//42
f 159//159 92//92 30//30
f 160//160 95//95 33//33
f 161//161 98//98 36//36
f 162//162 101//101 39//39
f 145//145 104//104 61//61
f 147//147 107//107 63//63
f 149//149 110//110 65//65
f 151//151 113//113 67//67
f 143//143 116//116 59//59
f 159//159 118//118 12//12
f 160//160 120//120 15//15
f 161//161 122//122 18//18
f 162//162 124//124 21//21
f 158//158 126//126 9//9
f 130//130 129//129 74//74
f 132//132 131//131 77//77
f 134//134 133//133 80//80
f 136//136 135//135 83//83
f 128//128 137//137 86//86
f 158//158 138//138 89//89
f 159//159 139//139 92//92
f 160//160 140//140 95//95
f 161//161 141//141 98//98
f 162//162 142//142 101//101
f 145//145 144//144 104//104
f 147//147 146//146 107//107
f 149//149 148//148 110//110
f 151//151 150//150 113//113
f 143//143 152//152 116//116
f 159//159 153//153 118//118
f 160//160 154//154 120//120
f 161//161 155//155 122//122
f 162//162 156//156 124//124
f 158//158 157//157 126//126
f 130//130 3//3 129//129
f 132//132 4//4 131//131
f 134//134 5//5 133//133
f 136//136 6//6 135//135
f 128//128 2//2 137//137
f 158//158 9//9 138//138
f 159//159 12//12 139//139
f 160//160 15//15 140//140
f 161//161 18//18 141//141
f 162//162 21//21 142//142
f 145//145 24//24 144//144
f 147//147 25//25 146//146
f 149//149 26//26 148//148
f 151//151 27//27 150//150
f 143//143 23//23 152//152
f 159//159 30//30 153//153
f 160//160 33//33 154//154
f 161//161 36//36 155//155
f 162//162 39//39 156//156
f 158//158 42//42 157//157
f 128//128 44//44 75//75
f 130//130 46//46 78//78
f 132//132 48//48 81//81
f 134//134 50//50 84//84
f 136//136 52//52 87//87
f 76//76 45//45 90//90
f 73//73 43//43 93//93
f 85//85 51//51 96//96
f 82//82 49//49 99//99
f 79//79 47//47 102//102
f 143//143 59//59 105//105
f 145//145 61//61 108//108
f 147//147 63//63 111//111
f 149//149 65//65 114//114
f 151//151 67//67 117//117
f 103//103 58//58 119//119
f 106//106 60//60 121//121
f 109//109 62//62 123//123
f 112//112 64//64 125//125
f 115//115 66//66 127//127
f 73//73 11//11 74//74
f 76//76 8//8 77//77
f 79//79 20//20 80//80
f 82//82 17//17 83//83
f 85//85 14//14 86//86
f 88//88 68//68 89//89
f 91//91 69//69 92//92
f 94//94 70//70 95//95
f 97//97 71//71 98//98
f 100//100 72//72 101//101
f 103//103 29//29 104//104
f 106//106 32//32 107//107
f 109//109 35//35 110//110
f 112//112 38//38 113//113
f 115//115 41//41 116//116
f 88//88 53//53 118//118
f 91//91 54//54 120//120
f 94//94 55//55 122//122
f 97//97 56//56 124//124
f 100//100 57//57 126//126
f 128//128 75//75 129//129
f 130//130 78//78 131//131
f 132//132 81//81 133//133
f 134//134 84//84 135//135
f 136//136 87//87 137//137
f 76//76 90//90 138//138
f 73//73 93//93 139//139
f 85//85 96//96 140//140
f 82//82 99//99 141//141
f 79//79 102//102 142//142
f 143//143 105//105 144//144
f 145//145 108//108 146//146
f 147//147 111//111 148//148
f 149//149 114//114 150//150
f 151//151 117//117 152//152
f 103//103 119//119 153//153
f 106//106 121//121 154//154
f 109//109 123//123 155//155
f 112//112 125//125 156//156
f 115//115 127//127 157//157
f 129//129 3//3 2//2
f 131//131 4//4 3//3
f 133//133 5//5 4//4
f 135//135 6//6 5//5
f 137//137 2//2 6//6
f 138//138 9//9 8//8
f 139//139 12//12 11//11
f 140//140 15//15 14//14
f 141//141 18//18 17//17
f 142//142 21//21 20//20
f 144//144 24//24 23//23
f 146//146 25//25 24//24
f 148//148 26//26 25//25
f 150//150 27//27 26//26
f 152//152 23//23 27//27
f 153//153 30//30 29//29
f 154//154 33//33 32//32
f 155//155 36//36 35//35
f 156//156 39//39 38//38
f 157//157 42//42 41//41
f 75//75 44//44 43//43
f 78//78 46//46 45//45
f 81//81 48//48 47//47
f 84//84 50//50 49//49
f 87//87 52//52 51//51
f 90//90 45//45 53//53
f 93//93 43//43 54//54
f 96//96 51//51 55//55
f 99//99 49//49 56//56
f 102//102 47//47 57//57
f 105//105 59//59 58//58
f 108//108 61//61 60//60
f 111//111 63//63 62//62
f 114//114 65//65 64//64
f 117//117 67//67 66//66
f 119//119 58//58 68//68
f 121//121 60//60 69//69
f 123//123 62//62 70//70
f 125//125 64//64 71//71
f 127//127 66//66 72//72
f 74//74 11//11 46//46
f 77//77 8//8 48//48
f 80//80 20//20 50//50
f 83//83 17//17 52//52
f 86//86 14//14 44//44
f 89//89 68//68 42//42
f 92//92 69//69 30//30
f 95//95 70//70 33//33
f 98//98 71//71 36//36
f 101//101 72//72 39//39
f 104//104 29//29 61//61
f 107//107 32//32 63//63
f 110//110 35//35 65//65
f 113//113 38//38 67//67
f 116//116 41//41 59//59
f 118//118 53//53 12//12
f 120//120 54//54 15//15
f 122//122 55//55 18//18
f 124//124 56//56 21//21
f 126//126 57//57 9//9
f 129//129 75//75 74//74
f 131//131 78//78 77//77
f 133//133 81//81 80//80
f 135//135 84//84 83//83
f 137//137 87//87 86//86
f 138//138 90//90 89//89
f 139//139 93//93 92//92
f 140//140 96//96 95//95
f 141//141 99//99 98//98
f 142//142 102//102 101//101
f 144//144 105//105 104//104
f 146//146 108//108 107//107
f 148//148 111//111 110//110
f 150//150 114//114 113//113
f 152//152 117//117 116//116
f 153//153 119//119 118//118
f 154//154 121//121 120//120
f 155//155 123//123 122//122
f 156//156 125//125 124//124
f 157//157 127//127 126//126
