# Created by Open3D 
# object name: part_010
# number of vertices: 162
# number of triangles: 320
v 1.32564 2.47015 0.0114539
vn 0.104849 -0.00822468 -0.994454
v 1.35905 2.46987 0.0174368
vn 0.308582 -0.0340395 -0.950589
v 1.32313 2.44263 0.0130558
vn 0.187907 -0.205376 -0.960475
v 1.27682 2.43459 0.00984031
vn 0.0196764 -0.0697956 -0.997367
v 1.30275 2.47094 0.0106731
vn -0.10813 0.204815 -0.97281
v 1.33962 2.49685 0.0151662
vn 0.129612 0.216631 -0.967611
v -0.221592 1.36127 0.0723595
vn -0.0774388 -0.138869 -0.987278
v -0.194678 1.35484 0.0728033
vn 0.0842596 -0.279665 -0.956393
v -0.231711 1.3298 0.0800557
vn -0.115926 -0.338279 -0.933878
v 0.565317 1.89799 0.0569987
vn 0.583107 -0.811333 0.0415316
v 1.28626 2.41508 0.0338315
vn 0.583367 -0.810497 0.052708
v 0.565219 1.89908 0.0743769
vn 0.582969 -0.809772 0.0664518
v 1.37275 2.50086 0.299082
vn 0.623063 -0.779342 0.0664648
v 1.3821 2.50902 0.298605
vn 0.979667 -0.198624 0.0282935
v 1.37015 2.52093 0.55447
vn 0.650964 -0.755845 0.070319
v 1.35089 2.53123 0.296525
vn -0.541357 0.837901 -0.0696809
v 1.33851 2.50252 0.0536443
vn -0.566006 0.821459 -0.0695906
v 1.33177 2.53866 0.540549
vn -0.566026 0.821576 -0.0680215
v 0.702179 2.04438 0.0480255
vn -0.582371 0.807384 -0.0947393
v -0.144418 1.43653 0.073679
vn -0.581011 0.803088 -0.132192
v -0.178713 1.41353 0.0879082
vn -0.582894 0.808247 -0.0834953
v -0.229549 1.40396 0.647592
vn -0.104849 0.00822428 0.994454
v -0.239517 1.37168 0.644349
vn -0.14226 -0.196962 0.970035
v -0.202646 1.3976 0.648842
vn 0.0573469 -0.135255 0.98915
v -0.18047 1.43917 0.649235
vn -0.0196768 0.0697961 0.997367
v -0.223024 1.4259 0.64646
vn -0.236003 0.273148 0.932573
v -0.258937 1.39866 0.642079
vn -0.322903 0.0518283 0.945012
v 0.557735 1.93868 0.6052
vn 0.582371 -0.807384 0.0947406
v -0.163175 1.42154 0.62837
vn 0.582385 -0.808603 0.0835927
v 0.558117 1.93719 0.587855
vn 0.582922 -0.809519 0.0698662
v 1.31768 2.51284 0.586686
vn 0.0774391 0.138868 0.987279
v 1.31516 2.48539 0.589095
vn 0.160997 -0.0609683 0.98507
v 1.35124 2.51176 0.581731
vn 0.282246 0.107278 0.953325
v 0.694597 2.08507 0.596226
vn -0.583107 0.811333 -0.0415297
v 1.22202 2.46326 0.583205
vn -0.58241 0.81289 -0.00287921
v 1.25585 2.48691 0.568921
vn -0.582739 0.810954 -0.0526166
v -0.272642 1.36767 0.360434
vn -0.623063 0.779343 -0.0664647
v -0.26088 1.39723 0.603243
vn -0.599639 0.797487 -0.0666983
v -0.254146 1.36109 0.116338
vn -0.599616 0.797371 -0.0682678
v -0.250777 1.3373 0.362991
vn 0.541356 -0.837901 0.0696811
v -0.261509 1.33107 0.363305
vn -0.1241 -0.989673 0.0717419
v -0.24859 1.31781 0.107554
vn 0.51054 -0.857357 0.065486
v 1.36099 2.4713 0.0562727
vn 0.599639 -0.797486 0.0666983
v 1.37721 2.48301 0.0435554
vn 0.651107 -0.756614 0.0599529
v -0.121911 1.40527 0.0763106
vn 0.582439 -0.812867 0.003407
v 1.25232 2.39017 0.0222149
vn 0.58279 -0.812616 0.00339152
v -0.215056 1.38314 0.0704206
vn -0.209707 0.132022 -0.96881
v -0.172415 1.39594 0.0668881
vn 0.00790886 -0.0782303 -0.996904
v 1.26328 2.44699 0.0311452
vn -0.582309 0.808646 -0.0837123
v 1.22981 2.42143 0.0195833
vn -0.580609 0.803221 -0.133151
v 1.36162 2.53746 0.296211
vn -0.0502041 0.995948 -0.0746184
v 1.35576 2.5128 0.0410474
vn -0.510399 0.856586 -0.0758527
v -0.155737 1.38162 0.0905946
vn 0.582812 -0.810894 0.0527322
v 1.35425 2.50744 0.543178
vn 0.599618 -0.79737 0.0682678
v 1.3487 2.55072 0.551962
vn -0.51054 0.857357 -0.0654861
v 0.703774 2.04729 0.0652926
vn -0.582922 0.809519 -0.0698664
v -0.251132 1.35677 0.0777851
vn -0.296682 -0.0888892 -0.950831
v -0.2384 1.36601 0.605871
vn 0.566006 -0.821459 0.0695906
v -0.255657 1.35574 0.618468
vn 0.510397 -0.856587 0.0758529
v 1.24453 2.432 0.585837
vn 0.581003 -0.803024 0.132621
v -0.129707 1.44711 0.639932
vn 0.580652 -0.803276 0.132633
v 1.29479 2.51369 0.586712
vn -0.13443 0.345945 0.928574
v 1.26876 2.47781 0.592188
vn -0.00790833 0.0782297 0.996904
v -0.186151 1.45345 0.625684
vn -0.583319 0.810526 -0.0527884
v -0.152214 1.47837 0.637301
vn -0.582787 0.812616 -0.00382661
v -0.28199 1.35951 0.36091
vn -0.92998 0.365428 -0.0399871
v -0.277106 1.38553 0.61596
vn -0.651108 0.756614 -0.0599528
v -0.231665 1.32987 0.118966
vn 0.566027 -0.821575 0.0680214
v 1.27882 2.455 0.571607
vn 0.58294 -0.808206 0.0835711
v 1.33182 2.53873 0.57946
vn 0.10339 0.357347 0.928231
v 0.696671 2.0854 0.57877
vn -0.582969 0.809772 -0.0664518
v -0.270039 1.3476 0.105046
vn -0.650963 0.755845 -0.0703193
v 1.33482 2.45079 0.0408764
vn 0.588579 -0.805801 0.0652618
v 1.32252 2.44091 0.0240791
vn 0.589605 -0.807525 0.0164236
v 1.35956 2.46857 0.0314116
vn 0.603989 -0.796453 0.0293266
v -0.16869 1.37217 0.073731
vn 0.573091 -0.810141 -0.123441
v -0.123621 1.4055 0.0671869
vn 0.135599 -0.24441 -0.960144
v 0.564965 1.89773 0.0434211
vn 0.574385 -0.808486 -0.128189
v -0.190447 1.40239 0.0711872
vn -0.570995 0.779379 -0.25794
v 0.695397 2.03725 0.0348694
vn -0.568989 0.779532 -0.261879
v -0.144022 1.43384 0.0648014
vn -0.17389 0.187047 -0.966838
v 1.31199 2.4825 0.0382071
vn -0.577282 0.813448 -0.0710519
v 1.33745 2.49928 0.0288263
vn -0.560666 0.82112 -0.106845
v 1.30006 2.47211 0.0214527
vn -0.5747 0.809562 -0.119702
v 1.37291 2.52851 0.297032
vn 0.812393 0.582233 -0.0319794
v 1.38418 2.49009 0.0428337
vn 0.927366 0.366851 -0.0735741
v 1.36474 2.51709 0.0405604
vn 0.622796 0.774991 -0.1073
v -0.20469 1.34745 0.101478
vn 0.577356 -0.813845 0.0657042
v -0.229918 1.32941 0.0939801
vn 0.561715 -0.82675 0.0309968
v -0.192281 1.35528 0.083708
vn 0.576121 -0.817188 0.0169621
v 1.32763 2.48938 0.560707
vn 0.588504 -0.805405 0.070611
v 1.2801 2.45356 0.54643
vn 0.583222 -0.80942 0.0685007
v 1.33515 2.47278 0.300646
vn 0.588407 -0.805706 0.0679423
v 1.34361 2.54777 0.569483
vn -0.21285 0.910935 0.353402
v 1.35592 2.53932 0.571661
vn 0.513369 0.432047 0.741477
v 1.35766 2.55506 0.552056
vn 0.62119 0.783611 0.00881927
v 0.700806 2.06686 0.322001
vn -0.582946 0.809647 -0.0681593
v 1.2569 2.48579 0.543717
vn -0.582596 0.809928 -0.0678197
v 1.26364 2.44961 0.056258
vn -0.582586 0.809875 -0.0685269
v -0.264238 1.34956 0.0876084
vn -0.763617 0.445267 -0.467575
v -0.252029 1.36012 0.0913949
vn -0.602938 0.790824 -0.105179
v -0.239056 1.36757 0.0777166
vn -0.601209 0.766703 -0.225199
v -0.21188 1.38603 0.621309
vn 0.577282 -0.813447 0.0710519
v -0.199948 1.39642 0.638063
vn 0.5747 -0.809562 0.119703
v -0.237341 1.36925 0.630689
vn 0.560665 -0.82112 0.106844
v 1.29055 2.46615 0.588328
vn 0.571345 -0.779352 0.257245
v 1.24413 2.43469 0.594714
vn 0.110974 -0.0980509 0.988975
v 0.557009 1.94043 0.618651
vn 0.56899 -0.779535 0.261869
v 1.2688 2.49636 0.585785
vn -0.572816 0.810489 0.122431
v 0.687441 2.07995 0.610099
vn -0.574385 0.808486 0.128185
v 1.22373 2.46303 0.592329
vn -0.177723 0.301957 0.936609
v -0.234709 1.41774 0.618639
vn -0.588579 0.805801 -0.0652617
v -0.259452 1.39996 0.628104
vn -0.603989 0.796453 -0.029327
v -0.222411 1.42762 0.635437
vn -0.589604 0.807525 -0.0164252
v -0.277086 1.34598 0.361983
vn -0.812393 -0.582233 0.0319794
v -0.264631 1.35144 0.618955
vn -0.649218 -0.753166 0.106095
v -0.284073 1.37845 0.616682
vn -0.9396 -0.334987 0.0702589
v -0.156793 1.38275 0.115798
vn 0.58267 -0.809874 0.0678178
v -0.2121 1.36389 0.361552
vn 0.57746 -0.813551 0.0683732
v 1.35214 2.50841 0.568121
vn 0.602939 -0.790824 0.105179
v 1.31485 2.48206 0.578434
vn 0.588184 -0.799899 0.119174
v 1.33003 2.53912 0.565535
vn -0.561714 0.826751 -0.0309939
v 1.31776 2.5307 0.579296
vn -0.549037 0.830861 0.0907117
v -0.179994 1.41497 0.113086
vn -0.583173 0.809455 -0.0685021
v -0.186737 1.45115 0.600545
vn -0.583183 0.809507 -0.067798
v -0.260022 1.33507 0.0873622
vn -0.51337 -0.432045 -0.741477
v -0.276999 1.34048 0.105186
vn -0.937994 -0.343606 -0.0458606
v 1.37189 2.47849 0.0264438
vn 0.786498 -0.381576 -0.485613
v 1.34695 2.45916 0.0186302
vn 0.60561 -0.790316 -0.0929351
v 1.29847 2.42366 0.0159772
vn 0.576612 -0.807618 -0.123578
v 1.25218 2.39152 0.0130296
vn 0.137936 -0.242733 -0.960237
v 0.551956 1.91554 0.037202
vn 0.013793 -0.0740149 -0.997162
v 1.23178 2.41985 0.0106442
vn -0.151274 0.160032 -0.975452
v 1.27672 2.45388 0.0134335
vn -0.567574 0.782365 -0.256444
v 1.32555 2.4889 0.0161273
vn -0.544635 0.807248 -0.227427
v 1.35116 2.50729 0.0240195
vn -0.201183 0.848353 -0.489717
v 1.3635 2.49863 0.0234535
vn 0.534453 0.318914 -0.782722
v -0.217649 1.33783 0.0802196
vn 0.549037 -0.830861 -0.0907101
v 1.28684 2.41738 0.0589708
vn 0.583231 -0.809472 0.0677956
v 1.37711 2.52805 0.554329
vn 0.925739 0.375583 0.0440984
v 1.31221 2.50465 0.297963
vn -0.57746 0.813551 -0.0683733
v -0.214743 1.38647 0.0810816
vn -0.588183 0.799899 -0.119174
v -0.251049 1.36125 0.635496
vn 0.0696476 -0.807517 0.585718
v -0.225438 1.37964 0.643388
vn 0.544635 -0.807247 0.22743
v -0.176607 1.41465 0.646082
vn 0.567824 -0.781876 0.257383
v -0.131667 1.44868 0.648871
vn 0.108636 -0.0997273 0.989067
v 0.54387 1.95894 0.621813
vn -0.013793 0.074015 0.997162
v -0.152068 1.47701 0.646486
vn -0.200036 0.327355 0.923485
v -0.198363 1.44487 0.643538
vn -0.576282 0.807749 0.124262
v -0.246846 1.40937 0.640885
vn -0.605609 0.790317 0.0929337
v -0.271783 1.39004 0.633072
vn -0.77528 0.507848 0.375542
v -0.267604 1.37576 0.635569
vn -0.534451 -0.318914 0.782723
v -0.163536 1.41893 0.603258
vn 0.582661 -0.809822 0.0685228
v 1.33916 2.50097 0.581799
vn 0.601209 -0.766703 0.2252
v 1.29239 2.51326 0.575808
vn -0.57612 0.817189 -0.0169545
v -0.235043 1.39575 0.35887
vn -0.588407 0.805705 -0.0679423
v -0.257556 1.31348 0.107459
vn -0.64759 -0.761901 -0.0115766
v -0.243504 1.32076 0.0900326
vn 0.0840857 -0.884987 -0.457961
v 0.561713 1.91807 0.331121
vn 0.582946 -0.809647 0.0681593
v 1.36435 2.51898 0.571907
vn 0.772062 -0.30411 0.558066
v 1.3048 2.52108 0.558038
vn -0.577356 0.813844 -0.0657042
v -0.227519 1.37915 0.0988087
vn -0.588505 0.805404 -0.0706109
f 1//1 2//2 3//3
f 1//1 3//3 4//4
f 1//1 4//4 5//5
f 1//1 5//5 6//6
f 1//1 6//6 2//2
f 7//7 8//8 9//9
f 10//10 11//11 12//12
f 13//13 14//14 15//15
f 16//16 17//17 18//18
f 19//19 20//20 21//21
f 22//22 23//23 24//24
f 22//22 24//24 25//25
f 22//22 25//25 26//26
f 22//22 26//26 27//27
f 22//22 27//27 23//23
f 28//28 29//29 30//30
f 31//31 32//32 33//33
f 34//34 35//35 36//36
f 37//37 38//38 39//39
f 40//40 41//41 42//42
f 13//13 43//43 44//44
f 10//10 45//45 46//46
f 7//7 47//47 48//48
f 19//19 49//49 50//50
f 16//16 51//51 52//52
f 10//10 53//53 45//45
f 13//13 54//54 43//43
f 16//16 55//55 51//51
f 19//19 56//56 49//49
f 7//7 57//57 47//47
f 40//40 58//58 59//59
f 28//28 60//60 61//61
f 31//31 62//62 63//63
f 34//34 64//64 65//65
f 37//37 66//66 67//67
f 40//40 68//68 58//58
f 28//28 69//69 60//60
f 31//31 70//70 62//62
f 34//34 71//71 64//64
f 37//37 72//72 66//66
f 10//10 46//46 11//11
f 7//7 48//48 8//8
f 19//19 50//50 20//20
f 16//16 52//52 17//17
f 13//13 44//44 14//14
f 40//40 42//42 68//68
f 28//28 30//30 69//69
f 31//31 33//33 70//70
f 34//34 36//36 71//71
f 37//37 39//39 72//72
f 28//28 61//61 29//29
f 31//31 63//63 32//32
f 34//34 65//65 35//35
f 37//37 67//67 38//38
f 40//40 59//59 41//41
f 10//10 12//12 53//53
f 13//13 15//15 54//54
f 16//16 18//18 55//55
f 19//19 21//21 56//56
f 7//7 9//9 57//57
f 73//73 74//74 75//75
f 76//76 77//77 78//78
f 79//79 80//80 81//81
f 82//82 83//83 84//84
f 85//85 86//86 87//87
f 88//88 89//89 90//90
f 91//91 92//92 93//93
f 94//94 95//95 96//96
f 97//97 98//98 99//99
f 100//100 101//101 102//102
f 103//103 104//104 105//105
f 106//106 107//107 108//108
f 109//109 110//110 111//111
f 112//112 113//113 114//114
f 115//115 116//116 117//117
f 88//88 118//118 119//119
f 91//91 120//120 121//121
f 94//94 122//122 123//123
f 97//97 124//124 125//125
f 100//100 126//126 127//127
f 128//128 129//129 2//2
f 130//130 131//131 3//3
f 132//132 133//133 4//4
f 134//134 135//135 5//5
f 136//136 137//137 6//6
f 76//76 138//138 8//8
f 73//73 139//139 11//11
f 85//85 140//140 14//14
f 82//82 141//141 17//17
f 79//79 142//142 20//20
f 143//143 144//144 23//23
f 145//145 146//146 24//24
f 147//147 148//148 25//25
f 149//149 150//150 26//26
f 151//151 152//152 27//27
f 103//103 153//153 29//29
f 106//106 154//154 32//32
f 109//109 155//155 35//35
f 112//112 156//156 38//38
f 115//115 157//157 41//41
f 73//73 75//75 43//43
f 76//76 78//78 45//45
f 79//79 81//81 47//47
f 82//82 84//84 49//49
f 85//85 87//87 51//51
f 88//88 90//90 53//53
f 91//91 93//93 54//54
f 94//94 96//96 55//55
f 97//97 99//99 56//56
f 100//100 102//102 57//57
f 103//103 105//105 58//58
f 106//106 108//108 60//60
f 109//109 111//111 62//62
f 112//112 114//114 64//64
f 115//115 117//117 66//66
f 88//88 119//119 68//68
f 91//91 121//121 69//69
f 94//94 123//123 70//70
f 97//97 125//125 71//71
f 100//100 127//127 72//72
f 130//130 74//74 46//46
f 132//132 77//77 48//48
f 134//134 80//80 50//50
f 136//136 83//83 52//52
f 128//128 86//86 44//44
f 158//158 89//89 42//42
f 159//159 92//92 30//30
f 160//160 95//95 33//33
f 161//161 98//98 36//36
f 162//162 101//101 39//39
f 145//145 104//104 61//61
f 147//147 107//107 63//63
f 149//149 110//110 65//65
f 151//151 113//113 67//67
f 143//143 116//116 59//59
f 159//159 118//118 12//12
f 160//160 120//120 15//15
f 161//161 122//122 18//18
f 162//162 124//124 21//21
f 158//158 126//126 9//9
f 130//130 129//129 74//74
f 132//132 131//131 77//77
f 134//134 133//133 80//80
f 136//136 135//135 83//83
f 128//128 137//137 86//86
f 158//158 138//138 89//89
f 159//159 139//139 92//92
f 160//160 140//140 95//95
f 161//161 141//141 98//98
f 162//162 142//142 101//101
f 145//145 144//144 104//104
f 147//147 146//146 107//107
f 149//149 148//148 110//110
f 151//151 150//150 113//113
f 143//143 152//152 116//116
f 159//159 153//153 118//118
f 160//160 154//154 120//120
f 161//161 155//155 122//122
f 162//162 156//156 124//124
f 158//158 157//157 126//126
f 130//130 3//3 129//129
f 132//132 4//4 131//131
f 134//134 5//5 133//133
f 136//136 6//6 135//135
f 128//128 2//2 137//137
f 158//158 9//9 138//138
f 159//159 12//12 139//139
f 160//160 15//15 140//140
f 161//161 18//18 141//141
f 162//162 21//21 142//142
f 145//145 24//24 144//144
f 147//147 25//25 146//146
f 149//149 26//26 148//148
f 151//151 27//27 150//150
f 143//143 23//23 152//152
f 159//159 30//30 153//153
f 160//160 33//33 154//154
f 161//161 36//36 155//155
f 162//162 39//39 156//156
f 158//158 42//42 157//157
f 128//128 44//44 75//75
f 130//130 46//46 78//78
f 132//132 48//48 81//81
f 134//134 50//50 84//84
f 136//136 52//52 87//87
f 76//76 45//45 90//90
f 73//73 43//43 93//93
f 85//85 51//51 96//96
f 82//82 49//49 99//99
f 79//79 47//47 102//102
f 143//143 59//59 105//105
f 145//145 61//61 108//108
f 147//147 63//63 111//111
f 149//149 65//65 114//114
f 151//151 67//67 117//117
f 103//103 58//58 119//119
f 106//106 60//60 121//121
f 109//109 62//62 123//123
f 112//112 64//64 125//125
f 115//115 66//66 127//127
f 73//73 11//11 74//74
f 76//76 8//8 77//77
f 79//79 20//20 80//80
f 82//82 17//17 83//83
f 85//85 14//14 86//86
f 88//88 68//68 89//89
f 91//91 69//69 92//92
f 94//94 70//70 95//95
f 97//97 71//71 98//98
f 100//100 72//72 101//101
f 103//103 29//29 104//104
f 106//106 32//32 107//107
f 109//109 35//35 110//110
f 112//112 38//38 113//113
f 115//115 41//41 116//116
f 88//88 53//53 118//118
f 91//91 54//54 120//120
f 94//94 55//55 122//122
f 97//97 56//56 124//124
f 100//100 57//57 126//126
f 128//128 75//75 129//129
f 130//130 78//78 131//131
f 132//132 81//81 133//133
f 134//134 84//84 135//135
f 136//136 87//87 137//137
f 76//76 90//90 138//138
f 73//73 93//93 139//139
f 85//85 96//96 140//140
f 82//82 99//99 141//141
f 79//79 102//102 142//142
f 143//143 105//105 144//144
f 145//145 108//108 146//146
f 147//147 111//111 148//148
f 149//149 114//114 150//150
f 151//151 117//117 152//152
f 103//103 119//119 153//153
f 106//106 121//121 154//154
f 109//109 123//123 155//155
f 112//112 125//125 156//156
f 115//115 127//127 157//157
f 129//129 3//3 2//2
f 131//131 4//4 3//3
f 133//133 5//5 4//4
f 135//135 6//6 5//5
f 137//137 2//2 6//6
f 138//138 9//9 8//8
f 139//139 12//12 11//11
f 140//140 15//15 14//14
f 141//141 18//18 17//17
f 142//142 21//21 20//20
f 144//144 24//24 23//23
f 146//146 25//25 24//24
f 148//148 26//26 25//25
f 150//150 27//27 26//26
f 152//152 23//23 27//27
f 153//153 30//30 29//29
f 154//154 33//33 32//32
f 155//155 36//36 35//35
f 156//156 39//39 38//38
f 157//157 42//42 41//41
f 75//75 44//44 43//43
f 78//78 46//46 45//45
f 81//81 48//48 47//47
f 84//84 50//50 49//49
f 87//87 52//52 51//51
f 90//90 45//45 53//53
f 93//93 43//43 54//54
f 96//96 51//51 55//55
f 99//99 49//49 56//56
f 102//102 47//47 57//57
f 105//105 59//59 58//58
f 108//108 61//61 60//60
f 111//111 63//63 62//62
f 114//114 65//65 64//64
f 117//117 67//67 66//66
f 119//119 58//58 68//68
f 121//121 60//60 69//69
f 123//123 62//62 70//70
f 125//125 64//64 71//71
f 127//127 66//66 72//72
f 74//74 11//11 46//46
f 77//77 8//8 48//48
f 80//80 20//20 50//50
f 83//83 17//17 52//52
f 86//86 14//14 44//44
f 89//89 68//68 42//42
f 92//92 69//69 30//30
f 95//95 70//70 33//33
f 98//98 71//71 36//36
f 101//101 72//72 39//39
f 104//104 29//29 61//61
f 107//107 32//32 63//63
f 110//110 35//35 65//65
f 113//113 38//38 67//67
f 116//116 41//41 59//59
f 118//118 53//53 12//12
f 120//120 54//54 15//15
f 122//122 55//55 18//18
f 124//124 56//56 21//21
f 126//126 57//57 9//9
f 129//129 75//75 74//74
f 131//131 78//78 77//77
f 133//133 81//81 80//80
f 135//135 84//84 83//83
f 137//137 87//87 86//86
f 138//138 90//90 89//89
f 139//139 93//93 92//92
f 140//140 96//96 95//95
f 141//141 99//99 98//98
f 142//142 102//102 101//101
f 144//144 105//105 104//104
f 146//146 108//108 107//107
f 148//148 111//111 110//110
f 150//150 114//114 113//113
f 152//152 117//117 116//116
f 153//153 119//119 118//118
f 154//154 121//121 120//120
f 155//155 123//123 122//122
f 156//156 125//125 124//124
f 157//157 127//127 126//126
