# Created by Open3D 
# object name: part_014
# number of vertices: 162
# number of triangles: 320
v 0.581694 0.587999 1.15934
vn 0.109755 0.993511 -0.0298282
v 0.562288 0.589749 1.15343
vn 0.111488 0.983014 -0.145788
v 0.56078 0.590144 1.15865
vn 0.0864737 0.996252 0.00208918
v 0.580504 0.588058 1.16645
vn 0.0992679 0.993951 0.0469765
v 0.595223 0.586481 1.16337
vn 0.131854 0.991235 0.00818225
v 0.595112 0.586258 1.15793
vn 0.139139 0.979802 -0.143626
v 0.549913 0.579321 1.38431
vn 0.0866177 0.987193 0.133968
v 0.529604 0.581631 1.37935
vn 0.0730458 0.992585 0.0971581
v 0.529613 0.580827 1.38474
vn 0.0563202 0.967951 0.244744
v 0.542903 0.5849 1.26864
vn -0.914071 0.389168 -0.114113
v 0.55764 0.58849 1.16377
vn -0.952833 0.275731 -0.126812
v 0.542513 0.583406 1.26853
vn -0.983163 0.124135 -0.134096
v 0.55811 0.565365 1.14947
vn -0.853514 0.111383 -0.509027
v 0.559486 0.565297 1.14817
vn 0.0126002 0.0512549 -0.998606
v 0.556268 0.542975 1.14817
vn -0.718476 0.0593793 -0.693012
v 0.595066 0.561435 1.15454
vn 0.96215 -0.0817215 -0.25998
v 0.597381 0.582601 1.15797
vn 0.995497 -0.087953 -0.035349
v 0.593156 0.539984 1.15573
vn 0.993757 -0.105503 -0.0362705
v 0.584964 0.581672 1.25072
vn 0.971355 0.188659 0.144493
v 0.567266 0.577636 1.37385
vn 0.852249 0.503726 0.141181
v 0.566854 0.576273 1.37878
vn 0.987155 0.0682805 0.144436
v 0.544922 0.528973 1.38167
vn -0.109756 -0.993511 0.0298297
v 0.524716 0.531436 1.38214
vn -0.136838 -0.980317 0.142313
v 0.524605 0.531213 1.3767
vn -0.123743 -0.992288 -0.00720003
v 0.545682 0.52896 1.3745
vn -0.0992679 -0.993951 -0.0469766
v 0.559048 0.52755 1.38142
vn -0.0783549 -0.996925 -0.000845806
v 0.55754 0.527945 1.38664
vn -0.109564 -0.982947 0.147684
v 0.538146 0.536918 1.26612
vn -0.971354 -0.188663 -0.144493
v 0.523354 0.533334 1.37097
vn -0.987809 -0.0693552 -0.139368
v 0.538057 0.538463 1.26616
vn -0.987003 0.0854011 -0.136133
v 0.576703 0.537651 1.15669
vn -0.0866176 -0.987193 -0.133968
v 0.555782 0.539726 1.156
vn -0.110314 -0.988621 -0.102268
v 0.557391 0.540358 1.15083
vn -0.0816701 -0.965253 -0.248225
v 0.580207 0.53369 1.2482
vn 0.914071 -0.389169 0.114113
v 0.590603 0.536012 1.17144
vn 0.731298 -0.677861 0.0755547
v 0.591807 0.537291 1.16662
vn 0.953371 -0.276744 0.120398
v 0.561718 0.552329 1.39061
vn 0.853513 -0.111383 0.509027
v 0.560442 0.531052 1.38731
vn 0.946022 -0.118538 0.301649
v 0.564667 0.573669 1.38955
vn 0.947762 -0.100986 0.30257
v 0.524762 0.556259 1.38554
vn -0.96215 0.0817215 0.259979
v 0.525726 0.556078 1.38716
vn -0.264648 -0.0244485 0.964035
v 0.527306 0.578575 1.38693
vn -0.873265 0.109911 0.474687
v 0.559385 0.586642 1.15276
vn -0.946022 0.118538 -0.301648
v 0.560701 0.587693 1.15052
vn -0.709016 0.154758 -0.688002
v 0.529225 0.581682 1.36864
vn -0.73385 0.675029 -0.0761561
v 0.557452 0.589389 1.16881
vn -0.733436 0.675148 -0.0790374
v 0.564046 0.577968 1.38407
vn 0.118391 0.987559 0.103491
v 0.550736 0.57993 1.37718
vn 0.0977786 0.993545 0.0575202
v 0.596473 0.58436 1.1691
vn 0.987814 0.0706856 0.138664
v 0.595494 0.585343 1.17403
vn 0.84907 0.509935 0.138007
v 0.594102 0.561615 1.15292
vn 0.31701 0.0184268 -0.948243
v 0.596955 0.583837 1.1555
vn 0.882719 -0.014531 -0.469677
v 0.528021 0.580403 1.37345
vn -0.95362 0.275517 -0.121236
v 0.55516 0.544025 1.15052
vn -0.947762 0.100986 -0.30257
v 0.592521 0.539119 1.15315
vn 0.873264 -0.109911 -0.474688
v 0.585094 0.580138 1.25039
vn 0.987003 -0.0854024 0.136132
v 0.562437 0.577336 1.38924
vn 0.0835242 0.964617 0.250077
v 0.522446 0.535093 1.3821
vn -0.995497 0.087953 0.035349
v 0.522873 0.533856 1.38458
vn -0.882719 0.0145312 0.469676
v 0.552562 0.540058 1.16622
vn -0.850593 -0.506522 -0.141167
v 0.524334 0.53235 1.36604
vn -0.851001 -0.506631 -0.138284
v 0.590224 0.536063 1.16072
vn -0.064894 -0.993249 -0.0961542
v 0.57545 0.537088 1.16377
vn -0.0977786 -0.993545 -0.0575201
v 0.562187 0.529203 1.3763
vn 0.953134 -0.274882 0.126394
v 0.562375 0.528305 1.37126
vn 0.735595 -0.672761 0.0793229
v 0.560341 0.552397 1.39191
vn 0.0421491 -0.056625 0.997505
v 0.559126 0.530001 1.38955
vn 0.709016 -0.154758 0.688001
v 0.526672 0.57771 1.38434
vn -0.993757 0.105503 0.0362705
v 0.552974 0.541421 1.1613
vn -0.987022 -0.0691258 -0.144944
v 0.590215 0.536867 1.15534
vn -0.0539477 -0.967761 -0.246025
v 0.580638 0.535195 1.24802
vn 0.983163 -0.124134 0.134096
v 0.56356 0.574719 1.3919
vn 0.718476 -0.0593791 0.693012
v 0.558688 0.587965 1.15666
vn -0.972097 0.13705 -0.190379
v 0.558894 0.589374 1.15858
vn -0.789823 0.594917 -0.149177
v 0.559881 0.58878 1.15315
vn -0.820535 0.489349 -0.295398
v 0.528943 0.581736 1.3755
vn -0.31665 0.948542 -0.000454825
v 0.531067 0.582279 1.36904
vn 0.0796367 0.995532 0.0507439
v 0.543931 0.585986 1.26883
vn -0.3069 0.951719 -0.00664376
v 0.565715 0.577825 1.38054
vn 0.493077 0.863071 0.109471
v 0.584016 0.58291 1.25175
vn 0.487237 0.86726 0.10228
v 0.565549 0.578611 1.37377
vn 0.127408 0.990192 0.0573237
v 0.597273 0.583862 1.16195
vn 0.99424 -0.0720799 0.0793203
v 0.597252 0.584805 1.15827
vn 0.952253 0.300807 -0.0522417
v 0.596859 0.585336 1.16379
vn 0.906197 0.414539 0.0834507
v 0.580479 0.563089 1.15057
vn 0.139772 0.0381652 -0.989448
v 0.562563 0.587583 1.1496
vn 0.118518 0.123 -0.985304
v 0.595425 0.584088 1.15411
vn 0.18045 0.116048 -0.976714
v 0.527066 0.579331 1.38051
vn -0.988235 0.132643 -0.076134
v 0.527233 0.579865 1.38427
vn -0.875399 0.474371 0.0929984
v 0.527779 0.580878 1.37884
vn -0.806573 0.590341 -0.0306168
v 0.554177 0.542467 1.15427
vn -0.978101 0.0764856 -0.193565
v 0.553019 0.543648 1.16127
vn -0.98525 0.100896 -0.138211
v 0.556415 0.565248 1.15489
vn -0.97583 0.106772 -0.190672
v 0.59166 0.537642 1.15374
vn 0.133096 -0.837937 -0.529289
v 0.577771 0.53903 1.15123
vn -0.00999532 -0.824197 -0.566215
v 0.590986 0.539319 1.15175
vn 0.164278 -0.0470685 -0.98529
v 0.582955 0.557662 1.24912
vn 0.98527 -0.104788 0.13514
v 0.592232 0.539477 1.16665
vn 0.985369 -0.108661 0.131304
v 0.596462 0.582143 1.16889
vn 0.986165 -0.100633 0.131726
v 0.563212 0.576324 1.39114
vn 0.157385 0.807038 0.569139
v 0.564604 0.57589 1.38939
vn 0.89739 0.285823 0.336148
v 0.564379 0.577181 1.38757
vn 0.531865 0.809833 0.247569
v 0.522555 0.533832 1.37812
vn -0.99424 0.07208 -0.0793203
v 0.522969 0.532358 1.37629
vn -0.906197 -0.41454 -0.0834507
v 0.522575 0.532889 1.3818
vn -0.952253 -0.300807 0.0522418
v 0.554113 0.539869 1.15953
vn -0.49411 -0.862317 -0.11075
v 0.554279 0.539083 1.16631
vn -0.117076 -0.99155 -0.0558791
v 0.53894 0.535638 1.26618
vn -0.487237 -0.86726 -0.10228
v 0.590885 0.535958 1.16457
vn 0.318753 -0.947838 -0.000886252
v 0.579025 0.532562 1.2491
vn 0.3069 -0.951719 0.00664376
v 0.588761 0.535415 1.17104
vn -0.0726886 -0.996109 -0.0498343
v 0.561139 0.529729 1.38341
vn 0.972097 -0.13705 0.190379
v 0.559946 0.528914 1.38693
vn 0.820535 -0.489349 0.295398
v 0.560934 0.52832 1.3815
vn 0.789823 -0.594917 0.149177
v 0.546587 0.553835 1.39049
vn -0.139772 -0.0381652 0.989448
v 0.524403 0.533606 1.38597
vn -0.176197 -0.116865 0.977393
v 0.557264 0.530111 1.39047
vn -0.114164 -0.123097 0.985806
v 0.527596 0.578216 1.37343
vn -0.985265 0.108678 -0.132066
v 0.524634 0.55657 1.37987
vn -0.99158 0.102471 -0.0791741
v 0.555224 0.541804 1.15068
vn -0.897391 -0.285823 -0.336148
v 0.554083 0.540854 1.15603
vn -0.889451 -0.409962 -0.202011
v 0.592595 0.537829 1.1558
vn 0.875399 -0.474371 -0.0929987
v 0.59163 0.536665 1.15747
vn 0.399465 -0.908883 -0.119831
v 0.566809 0.574046 1.3788
vn 0.985321 -0.100885 0.137714
v 0.562579 0.531381 1.37656
vn 0.984529 -0.108872 0.137294
v 0.54918 0.577906 1.38982
vn 0.00999532 0.824197 0.566215
v 0.561703 0.57488 1.39283
vn -0.0979919 0.0400183 0.994382
v 0.561349 0.589112 1.15144
vn 0.0527278 0.875261 -0.480768
v 0.560335 0.589804 1.1551
vn -0.360406 0.919549 -0.156644
v 0.559079 0.589964 1.16216
vn -0.314535 0.949119 -0.0155118
v 0.559327 0.589995 1.16899
vn 0.0799388 0.995614 0.0486006
v 0.56607 0.584046 1.27188
vn 0.0985246 0.993762 0.0522493
v 0.593808 0.586328 1.17372
vn 0.124294 0.99074 0.0546288
v 0.595851 0.586054 1.16721
vn 0.498192 0.861927 0.0942678
v 0.596517 0.585956 1.16006
vn 0.570917 0.820499 -0.0289035
v 0.596393 0.585385 1.15625
vn 0.300044 0.845993 -0.440761
v 0.582528 0.587012 1.15375
vn 0.157423 0.86445 -0.477436
v 0.528198 0.581029 1.3826
vn -0.399467 0.908882 0.119831
v 0.557249 0.586313 1.16351
vn -0.984457 0.108899 -0.13779
v 0.558125 0.542814 1.14725
vn 0.102275 -0.040828 -0.993918
v 0.595194 0.561124 1.16021
vn 0.99158 -0.102471 0.079174
v 0.565744 0.57684 1.38405
vn 0.889451 0.409961 0.202011
v 0.523435 0.532309 1.38382
vn -0.259113 -0.853312 0.452459
v 0.523311 0.531737 1.38001
vn -0.570916 -0.8205 0.0289036
v 0.523977 0.53164 1.37287
vn -0.496255 -0.862887 -0.0956965
v 0.526019 0.531366 1.36636
vn -0.117378 -0.991632 -0.0537359
v 0.560997 0.532878 1.26919
vn -0.0985246 -0.993762 -0.0522493
v 0.560501 0.527699 1.37109
vn -0.0695552 -0.996464 -0.0471292
v 0.560748 0.527729 1.37791
vn 0.313389 -0.949519 0.0141721
v 0.559492 0.527889 1.38497
vn 0.360405 -0.919549 0.156644
v 0.558479 0.528582 1.38863
vn -0.00956154 -0.876886 0.480604
v 0.544423 0.529924 1.3873
vn -0.157423 -0.86445 0.477436
v 0.523366 0.535551 1.37118
vn -0.986059 0.100675 -0.132486
v 0.555448 0.540513 1.15251
vn -0.531865 -0.809833 -0.247569
v 0.592049 0.536816 1.16123
vn 0.806573 -0.590341 0.0306169
v 0.563412 0.552446 1.38519
vn 0.97583 -0.106772 0.190672
v 0.528841 0.578375 1.38832
vn -0.159955 0.0469626 0.986007
v 0.528168 0.580051 1.38633
vn -0.0916457 0.835845 0.541262
v 0.540209 0.560943 1.26733
vn -0.98527 0.104788 -0.13514
v 0.556616 0.54137 1.14893
vn -0.114737 -0.813889 -0.569578
v 0.592762 0.538363 1.15956
vn 0.988235 -0.132643 0.076134
v 0.56565 0.575227 1.38581
vn 0.978101 -0.0764856 0.193565
f 1//1 2//2 3//3
f 1//1 3//3 4//4
f 1//1 4//4 5//5
f 1//1 5//5 6//6
f 1//1 6//6 2//2
f 7//7 8//8 9//9
f 10//10 11//11 12//12
f 13//13 14//14 15//15
f 16//16 17//17 18//18
f 19//19 20//20 21//21
f 22//22 23//23 24//24
f 22//22 24//24 25//25
f 22//22 25//25 26//26
f 22//22 26//26 27//27
f 22//22 27//27 23//23
f 28//28 29//29 30//30
f 31//31 32//32 33//33
f 34//34 35//35 36//36
f 37//37 38//38 39//39
f 40//40 41//41 42//42
f 13//13 43//43 44//44
f 10//10 45//45 46//46
f 7//7 47//47 48//48
f 19//19 49//49 50//50
f 16//16 51//51 52//52
f 10//10 53//53 45//45
f 13//13 54//54 43//43
f 16//16 55//55 51//51
f 19//19 56//56 49//49
f 7//7 57//57 47//47
f 40//40 58//58 59//59
f 28//28 60//60 61//61
f 31//31 62//62 63//63
f 34//34 64//64 65//65
f 37//37 66//66 67//67
f 40//40 68//68 58//58
f 28//28 69//69 60//60
f 31//31 70//70 62//62
f 34//34 71//71 64//64
f 37//37 72//72 66//66
f 10//10 46//46 11//11
f 7//7 48//48 8//8
f 19//19 50//50 20//20
f 16//16 52//52 17//17
f 13//13 44//44 14//14
f 40//40 42//42 68//68
f 28//28 30//30 69//69
f 31//31 33//33 70//70
f 34//34 36//36 71//71
f 37//37 39//39 72//72
f 28//28 61//61 29//29
f 31//31 63//63 32//32
f 34//34 65//65 35//35
f 37//37 67//67 38//38
f 40//40 59//59 41//41
f 10//10 12//12 53//53
f 13//13 15//15 54//54
f 16//16 18//18 55//55
f 19//19 21//21 56//56
f 7//7 9//9 57//57
f 73//73 74//74 75//75
f 76//76 77//77 78//78
f 79//79 80//80 81//81
f 82//82 83//83 84//84
f 85//85 86//86 87//87
f 88//88 89//89 90//90
f 91//91 92//92 93//93
f 94//94 95//95 96//96
f 97//97 98//98 99//99
f 100//100 101//101 102//102
f 103//103 104//104 105//105
f 106//106 107//107 108//108
f 109//109 110//110 111//111
f 112//112 113//113 114//114
f 115//115 116//116 117//117
f 88//88 118//118 119//119
f 91//91 120//120 121//121
f 94//94 122//122 123//123
f 97//97 124//124 125//125
f 100//100 126//126 127//127
f 128//128 129//129 2//2
f 130//130 131//131 3//3
f 132//132 133//133 4//4
f 134//134 135//135 5//5
f 136//136 137//137 6//6
f 76//76 138//138 8//8
f 73//73 139//139 11//11
f 85//85 140//140 14//14
f 82//82 141//141 17//17
f 79//79 142//142 20//20
f 143//143 144//144 23//23
f 145//145 146//146 24//24
f 147//147 148//148 25//25
f 149//149 150//150 26//26
f 151//151 152//152 27//27
f 103//103 153//153 29//29
f 106//106 154//154 32//32
f 109//109 155//155 35//35
f 112//112 156//156 38//38
f 115//115 157//157 41//41
f 73//73 75//75 43//43
f 76//76 78//78 45//45
f 79//79 81//81 47//47
f 82//82 84//84 49//49
f 85//85 87//87 51//51
f 88//88 90//90 53//53
f 91//91 93//93 54//54
f 94//94 96//96 55//55
f 97//97 99//99 56//56
f 100//100 102//102 57//57
f 103//103 105//105 58//58
f 106//106 108//108 60//60
f 109//109 111//111 62//62
f 112//112 114//114 64//64
f 115//115 117//117 66//66
f 88//88 119//119 68//68
f 91//91 121//121 69//69
f 94//94 123//123 70//70
f 97//97 125//125 71//71
f 100//100 127//127 72//72
f 130//130 74//74 46//46
f 132//132 77//77 48//48
f 134//134 80//80 50//50
f 136//136 83//83 52//52
f 128//128 86//86 44//44
f 158//158 89//89 42//42
f 159//159 92//92 30//30
f 160//160 95//95 33//33
f 161//161 98//98 36//36
f 162//162 101//101 39//39
f 145//145 104//104 61//61
f 147//147 107//107 63//63
f 149//149 110//110 65//65
f 151//151 113//113 67//67
f 143//143 116//116 59//59
f 159//159 118//118 12//12
f 160//160 120//120 15//15
f 161//161 122//122 18//18
f 162//162 124//124 21//21
f 158//158 126//126 9//9
f 130//130 129//129 74//74
f 132//132 131//131 77//77
f 134//134 133//133 80//80
f 136//136 135//135 83//83
f 128//128 137//137 86//86
f 158//158 138//138 89//89
f 159//159 139//139 92//92
f 160//160 140//140 95//95
f 161//161 141//141 98//98
f 162//162 142//142 101//101
f 145//145 144//144 104//104
f 147//147 146//146 107//107
f 149//149 148//148 110//110
f 151//151 150//150 113//113
f 143//143 152//152 116//116
f 159//159 153//153 118//118
f 160//160 154//154 120//120
f 161//161 155//155 122//122
f 162//162 156//156 124//124
f 158//158 157//157 126//126
f 130//130 3//3 129//129
f 132//132 4//4 131//131
f 134//134 5//5 133//133
f 136//136 6//6 135//135
f 128//128 2//2 137//137
f 158//158 9//9 138//138
f 159//159 12//12 139//139
f 160//160 15//15 140//140
f 161//161 18//18 141//141
f 162//162 21//21 142//142
f 145//145 24//24 144//144
f 147//147 25//25 146//146
f 149//149 26//26 148//148
f 151//151 27//27 150//150
f 143//143 23//23 152//152
f 159//159 30//30 153//153
f 160//160 33//33 154//154
f 161//161 36//36 155//155
f 162//162 39//39 156//156
f 158//158 42//42 157//157
f 128//128 44//44 75//75
f 130//130 46//46 78//78
f 132//132 48//48 81//81
f 134//134 50//50 84//84
f 136//136 52//52 87//87
f 76//76 45//45 90//90
f 73//73 43//43 93//93
f 85//85 51//51 96//96
f 82//82 49//49 99//99
f 79//79 47//47 102//102
f 143//143 59//59 105//105
f 145//145 61//61 108//108
f 147//147 63//63 111//111
f 149//149 65//65 114//114
f 151//151 67//67 117//117
f 103//103 58//58 119//119
f 106//106 60//60 121//121
f 109//109 62//62 123//123
f 112//112 64//64 125//125
f 115//115 66//66 127//127
f 73//73 11//11 74//74
f 76//76 8//8 77//77
f 79//79 20//20 80//80
f 82//82 17//17 83//83
f 85//85 14//14 86//86
f 88//88 68//68 89//89
f 91//91 69//69 92//92
f 94//94 70//70 95//95
f 97//97 71//71 98//98
f 100//100 72//72 101//101
f 103//103 29//29 104//104
f 106//106 32//32 107//107
f 109//109 35//35 110//110
f 112//112 38//38 113//113
f 115//115 41//41 116//116
f 88//88 53//53 118//118
f 91//91 54//54 120//120
f 94//94 55//55 122//122
f 97//97 56//56 124//124
f 100//100 57//57 126//126
f 128//128 75//75 129//129
f 130//130 78//78 131//131
f 132//132 81//81 133//133
f 134//134 84//84 135//135
f 136//136 87//87 137//137
f 76//76 90//90 138//138
f 73//73 93//93 139//139
f 85//85 96//96 140//140
f 82//82 99//99 141//141
f 79//79 102//102 142//142
f 143//143 105//105 144//144
f 145//145 108//108 146//146
f 147//147 111//111 148//148
f 149//149 114//114 150//150
f 151//151 117//117 152//152
f 103//103 119//119 153//153
f 106//106 121//121 154//154
f 109//109 123//123 155//155
f 112//112 125//125 156//156
f 115//115 127//127 157//157
f 129//129 3//3 2//2
f 131//131 4//4 3//3
f 133//133 5//5 4//4
f 135//135 6//6 5//5
f 137//137 2//2 6//6
f 138//138 9//9 8//8
f 139//139 12//12 11//11
f 140//140 15//15 14//14
f 141//141 18//18 17//17
f 142//142 21//21 20//20
f 144//144 24//24 23//23
f 146//146 25//25 24//24
f 148//148 26//26 25//25
f 150//150 27//27 26//26
f 152//152 23//23 27//27
f 153//153 30//30 29//29
f 154//154 33//33 32//32
f 155//155 36//36 35//35
f 156//156 39//39 38//38
f 157//157 42//42 41//41
f 75//75 44//44 43//43
f 78//78 46//46 45//45
f 81//81 48//48 47//47
f 84//84 50//50 49//49
f 87//87 52//52 51//51
f 90//90 45//45 53//53
f 93//93 43//43 54//54
f 96//96 51//51 55//55
f 99//99 49//49 56//56
f 102//102 47//47 57//57
f 105//105 59//59 58//58
f 108//108 61//61 60//60
f 111//111 63//63 62//62
f 114//114 65//65 64//64
f 117//117 67//67 66//66
f 119//119 58//58 68//68
f 121//121 60//60 69//69
f 123//123 62//62 70//70
f 125//125 64//64 71//71
f 127//127 66//66 72//72
f 74//74 11//11 46//46
f 77//77 8//8 48//48
f 80//80 20//20 50//50
f 83//83 17//17 52//52
f 86//86 14//14 44//44
f 89//89 68//68 42//42
f 92//92 69//69 30//30
f 95//95 70//70 33//33
f 98//98 71//71 36//36
f 101//101 72//72 39//39
f 104//104 29//29 61//61
f 107//107 32//32 63//63
f 110//110 35//35 65//65
f 113//113 38//38 67//67
f 116//116 41//41 59//59
f 118//118 53//53 12//12
f 120//120 54//54 15//15
f 122//122 55//55 18//18
f 124//124 56//56 21//21
f 126//126 57//57 9//9
f 129//129 75//75 74//74
f 131//131 78//78 77//77
f 133//133 81//81 80//80
f 135//135 84//84 83//83
f 137//137 87//87 86//86
f 138//138 90//90 89//89
f 139//139 93//93 92//92
f 140//140 96//96 95//95
f 141//141 99//99 98//98
f 142//142 102//102 101//101
f 144//144 105//105 104//104
f 146//146 108//108 107//107
f 148//148 111//111 110//110
f 150//150 114//114 113//113
f 152//152 117//117 116//116
f 153//153 119//119 118//118
f 154//154 121//121 120//120
f 155//155 123//123 122//122
f 156//156 125//125 124//124
f 157//157 127//127 126//126
