# Created by Open3D 
# object name: part_028
# number of vertices: 162
# number of triangles: 320
v -1.53386 3.1246 0.0214823
vn 0.975985 0.217794 -0.00432428
v -1.53607 3.13135 0.0415912
vn 0.917847 0.394844 0.040697
v -1.53326 3.11997 0.0424055
vn 0.984939 0.160763 0.0636385
v -1.53147 3.10921 0.0216969
vn 0.995903 0.0903219 -0.004354
v -1.53341 3.11996 0.00744821
vn 0.981782 0.160513 -0.101686
v -1.53621 3.13134 0.00827667
vn 0.916078 0.397012 -0.0564232
v -1.49389 2.6355 0.0215251
vn 0.998396 -0.0564573 -0.00430354
v -1.49405 2.64017 0.0424475
vn 0.997971 0.00128528 0.063654
v -1.49497 2.62848 0.0416352
vn 0.969771 -0.240589 0.0407526
v -1.51806 2.87971 0.0446461
vn 0.0879285 0.00727244 0.9961
v -1.53833 3.1075 0.0446609
vn 0.0528111 0.00573164 0.998588
v -1.52356 2.87926 0.0449135
vn 0.00971544 0.000881486 0.999952
v -1.62588 3.12923 0.0440783
vn -0.0113662 0.191578 0.981412
v -1.62614 3.1324 0.0428902
vn -0.0773004 0.960295 0.268064
v -1.70685 3.12297 0.0440754
vn -0.0374458 0.317419 0.947546
v -1.62604 3.12921 0.00656992
vn -0.0198734 0.190714 -0.981445
v -1.54851 3.13063 0.00570577
vn -0.00837188 0.0795374 -0.996797
v -1.70278 3.11803 0.00637993
vn -0.0133056 0.0791354 -0.996775
v -1.52236 2.93021 0.00528367
vn 0.0792934 0.00639224 -0.996831
v -1.49803 2.66268 0.00567074
vn 0.194537 0.0150502 -0.98078
v -1.50125 2.65164 0.00528772
vn 0.0441083 0.00241868 -0.999024
v -1.67615 2.6206 0.0223216
vn -0.975985 -0.217796 0.00432428
v -1.67377 2.61387 0.0424166
vn -0.917456 -0.394809 0.0489993
v -1.67657 2.62525 0.043245
vn -0.98435 -0.160706 0.0723163
v -1.67854 2.636 0.0225433
vn -0.995903 -0.090322 0.004354
v -1.67672 2.62524 0.00828776
vn -0.982626 -0.160598 -0.093032
v -1.67391 2.61386 0.00910207
vn -0.916532 -0.397055 -0.0481326
v -1.69175 2.86552 0.0454051
vn -0.0792908 -0.00639202 0.996831
v -1.67148 2.63773 0.0454455
vn -0.0441574 -0.00484939 0.999013
v -1.68625 2.86597 0.0456245
vn -0.00104863 2.05308e-06 0.999999
v -1.71612 3.10971 0.0222786
vn -0.998396 0.0564578 0.00430354
v -1.71578 3.10506 0.043203
vn -0.997382 -0.00122194 0.0723034
v -1.71486 3.11674 0.0423725
vn -0.969383 0.240628 0.0489444
v -1.69605 2.91602 0.00604277
vn -0.0879251 -0.00727216 -0.996101
v -1.71211 3.08251 0.00641304
vn -0.205876 -0.0160083 -0.978447
v -1.7089 3.09356 0.00599241
vn -0.0534259 -0.0027721 -0.998568
v -1.5841 2.61598 0.0066149
vn 0.0113662 -0.191578 -0.981412
v -1.66164 2.61456 0.00642407
vn -0.000267291 -0.0804196 -0.996761
v -1.50737 2.62717 0.00574985
vn 0.00466601 -0.0800163 -0.996783
v -1.58394 2.616 0.0441233
vn 0.0198734 -0.190714 0.981445
v -1.58368 2.61283 0.0429357
vn 0.0796246 -0.960057 0.268234
v -1.50297 2.62225 0.043413
vn 0.0456571 -0.316578 0.947467
v -1.54834 3.13065 0.0442692
vn 0.000267291 0.0804196 0.996761
v -1.54497 3.1362 0.043368
vn -0.00635769 0.319956 0.947411
v -1.49787 2.6627 0.0442802
vn 0.204334 0.0159583 0.978771
v -1.53337 3.09712 0.0442421
vn 0.204201 0.0175973 0.978771
v -1.4942 2.64015 0.00749021
vn 0.994817 0.000989746 -0.101675
v -1.49403 2.65108 0.0217369
vn 0.997355 0.0725602 -0.00435282
v -1.5385 3.10748 0.00524777
vn 0.0445014 0.00523047 -0.998996
v -1.53353 3.0971 0.00563266
vn 0.197255 0.0169341 -0.980206
v -1.6263 3.13238 0.00775759
vn -0.077228 0.925205 -0.371527
v -1.54513 3.13618 0.00657286
vn -0.0145702 0.319118 -0.947603
v -1.50108 2.65166 0.0447008
vn 0.0530251 0.00309193 0.998588
v -1.70261 3.11804 0.0449434
vn -0.00466601 0.0800163 0.996783
v -1.70701 3.12296 0.00728028
vn -0.0456571 0.316578 -0.947467
v -1.52791 2.93039 0.00506427
vn 0.00104802 -2.10273e-06 -0.999999
v -1.49512 2.62847 0.00832076
vn 0.968381 -0.243024 -0.0563696
v -1.66147 2.61458 0.0449875
vn 0.00837188 -0.0795374 0.996797
v -1.66485 2.60903 0.0441204
vn 0.0145702 -0.319118 0.947603
v -1.71195 3.08253 0.0450225
vn -0.195835 -0.0150921 0.980521
v -1.67645 2.64811 0.0450606
vn -0.195703 -0.0167313 0.98052
v -1.71593 3.10504 0.00824576
vn -0.995661 -0.00107764 -0.0930474
v -1.71598 3.09413 0.0225031
vn -0.997355 -0.0725599 0.00435282
v -1.67165 2.63771 0.0060323
vn -0.0525859 -0.00548266 -0.998601
v -1.67661 2.64809 0.00645113
vn -0.202898 -0.0174266 -0.979045
v -1.58384 2.61281 0.00780304
vn 0.074008 -0.925531 -0.37137
v -1.66501 2.60901 0.00732527
vn 0.00635769 -0.319956 -0.947411
v -1.5072 2.62718 0.0443133
vn 0.0133056 -0.0791354 0.996775
v -1.70873 3.09357 0.0454055
vn -0.0443708 -0.00220984 0.999013
v -1.71501 3.11673 0.009058
vn -0.968832 0.242985 -0.0481872
v -1.6906 2.91709 0.00577529
vn -0.00971569 -0.000881507 -0.999952
v -1.50313 2.62224 0.00661784
vn 0.0374451 -0.317414 -0.947547
v -1.54244 3.12268 0.0445458
vn 0.0105776 0.0278376 0.999556
v -1.53665 3.11922 0.0442081
vn 0.161694 0.045222 0.985804
v -1.54041 3.13079 0.0439179
vn 0.114404 0.109627 0.987367
v -1.49529 2.64812 0.0436313
vn 0.525584 0.035698 0.849992
v -1.49499 2.66269 0.0424614
vn 0.994774 0.0794821 0.0640858
v -1.51378 2.88006 0.0437028
vn 0.534425 0.0437454 0.844083
v -1.49545 2.64811 0.00631012
vn 0.519515 0.0361472 -0.853696
v -1.51788 2.92819 0.00618979
vn 0.527077 0.0429967 -0.848729
v -1.49514 2.66267 0.00746446
vn 0.990745 0.0790811 -0.110322
v -1.54261 3.12266 0.00538506
vn 0.00191402 0.0269573 -0.999635
v -1.54057 3.13078 0.00598836
vn 0.10584 0.108755 -0.988418
v -1.53682 3.1192 0.00567559
vn 0.153146 0.0443532 -0.987208
v -1.62632 3.1334 0.0216503
vn -0.0814453 0.996678 -8.63339e-05
v -1.54509 3.13873 0.041646
vn -0.0317558 0.997514 0.0629129
v -1.54523 3.13871 0.00829355
vn -0.0325325 0.996808 -0.0729063
v -1.50267 2.63601 0.0445884
vn 0.0149424 -0.0255755 0.999561
v -1.49935 2.62833 0.0439619
vn 0.130668 -0.0894286 0.987385
v -1.49752 2.64036 0.0442501
vn 0.166877 -0.0181989 0.98581
v -1.70714 3.10922 0.0452656
vn -0.00627886 0.0264591 0.99963
v -1.70077 3.09448 0.0455638
vn 0.00311279 0.00168682 0.999994
v -1.62489 3.11717 0.0450041
vn 0.00220355 0.0264934 0.999647
v -1.71235 3.12086 0.00791823
vn -0.696734 0.594201 -0.401854
v -1.71282 3.12212 0.0220891
vn -0.750108 0.661309 0.00295818
v -1.7073 3.12547 0.00900176
vn -0.130361 0.988814 -0.0724801
v -1.60927 2.92394 0.00534234
vn -0.00433412 -0.000441839 -0.999991
v -1.70095 3.09447 0.00576445
vn -0.00558762 0.00115798 -0.999984
v -1.5465 3.10709 0.00508942
vn -0.00335706 0.0013404 -0.999993
v -1.49779 2.62433 0.00720775
vn 0.693225 -0.594558 -0.407357
v -1.49952 2.62831 0.00603237
vn 0.122107 -0.0903003 -0.988401
v -1.49564 2.63259 0.00661728
vn 0.455551 -0.0843699 -0.886202
v -1.66737 2.62255 0.0453082
vn -0.00191402 -0.0269573 0.999635
v -1.67316 2.62601 0.0450177
vn -0.153146 -0.0443532 0.987208
v -1.6694 2.61443 0.0447049
vn -0.10584 -0.108755 0.988418
v -1.71453 3.0971 0.0443831
vn -0.518186 -0.0349439 0.854554
v -1.71484 3.08254 0.0432288
vn -0.994181 -0.0794214 0.072778
v -1.69604 2.86517 0.0444993
vn -0.527077 -0.0429967 0.848729
v -1.71469 3.09709 0.00706196
vn -0.523695 -0.0339834 -0.851228
v -1.70014 2.91329 0.00698623
vn -0.534425 -0.0437454 -0.844083
v -1.71499 3.08252 0.00823181
vn -0.992853 -0.0792485 -0.0892352
v -1.66754 2.62253 0.00614744
vn -0.0105776 -0.0278376 -0.999556
v -1.66957 2.61442 0.0067754
vn -0.114404 -0.109627 -0.987367
v -1.67333 2.62599 0.00648513
vn -0.161694 -0.045222 -0.985804
v -1.58369 2.61181 0.0216959
vn 0.0814452 -0.996678 8.64771e-05
v -1.66475 2.6065 0.0423997
vn 0.032303 -0.997458 0.0635161
v -1.66489 2.60648 0.00904728
vn 0.0319023 -0.996872 -0.0723083
v -1.50903 2.65074 0.0449288
vn 0.00555515 -0.000803347 0.999984
v -1.58492 2.62806 0.0450469
vn 0.00646142 -0.0256114 0.999651
v -1.71046 3.1169 0.0446609
vn -0.122107 0.0903003 0.988401
v -1.71229 3.10487 0.0449757
vn -0.158325 0.0190713 0.987203
v -1.71063 3.11688 0.00673139
vn -0.130668 0.0894286 -0.987385
v -1.7145 3.11261 0.00735376
vn -0.463213 0.0835886 -0.882296
v -1.50921 2.65073 0.00512947
vn -0.00313409 -0.00145521 -0.999994
v -1.66365 2.63811 0.00580442
vn -0.00535326 -0.00163649 -0.999984
v -1.49719 2.62309 0.021375
vn 0.750108 -0.661309 -0.00295806
v -1.50282 2.61973 0.00833901
vn 0.129732 -0.988878 -0.0727369
v -1.53936 3.135 0.0427303
vn 0.613178 0.732856 0.294847
v -1.5359 3.1272 0.0432962
vn 0.44349 0.157836 0.882272
v -1.53319 3.11192 0.0435907
vn 0.524397 0.0502522 0.84999
v -1.53053 3.0976 0.0424234
vn 0.99448 0.0830847 0.0640844
v -1.51239 2.88017 0.0212683
vn 0.996668 0.0814441 -0.00435344
v -1.53068 3.09759 0.00742638
vn 0.991735 0.0829249 -0.0979058
v -1.53335 3.1119 0.00626952
vn 0.514848 0.0508829 -0.85577
v -1.53606 3.12719 0.00657401
vn 0.435815 0.157054 -0.886228
v -1.53952 3.13499 0.007163
vn 0.587508 0.699141 -0.407476
v -1.53913 3.13631 0.02133
vn 0.632795 0.774313 -0.00308378
v -1.49548 2.6326 0.0433395
vn 0.463213 -0.0835886 0.882296
v -1.54633 3.1071 0.0448888
vn 0.00533635 0.00186856 0.999984
v -1.70716 3.12548 0.0423542
vn -0.130062 0.98948 0.0633433
v -1.62506 3.11715 0.00564634
vn -0.00646142 0.0256114 -0.999651
v -1.49769 2.64035 0.00571755
vn 0.158325 -0.0190713 -0.987203
v -1.67046 2.61022 0.0435302
vn -0.610597 -0.732592 0.300801
v -1.67392 2.61802 0.0441192
vn -0.435815 -0.157054 0.886228
v -1.67663 2.63331 0.0444237
vn -0.517001 -0.0494988 0.854552
v -1.6793 2.64763 0.0432669
vn -0.993887 -0.0830242 0.0727774
v -1.69762 2.86504 0.0220778
vn -0.996668 -0.0814441 0.00435344
v -1.67945 2.64761 0.00826989
vn -0.99136 -0.0828893 -0.101658
v -1.67679 2.63329 0.00710256
vn -0.525897 -0.0492803 -0.84912
v -1.67408 2.61801 0.00739708
vn -0.44349 -0.157836 -0.882272
v -1.67062 2.61021 0.00796297
vn -0.591016 -0.699499 -0.401746
v -1.67088 2.60889 0.022134
vn -0.632795 -0.774313 0.00308378
v -1.66348 2.63812 0.0456038
vn 0.00333122 -0.000985077 0.999994
v -1.71434 3.11262 0.044076
vn -0.455551 0.0843699 0.886202
v -1.71246 3.10485 0.00644317
vn -0.166877 0.0181989 -0.98581
v -1.58509 2.62804 0.00568919
vn -0.00220355 -0.0264934 -0.999647
v -1.50268 2.61974 0.0416915
vn 0.130611 -0.989424 0.063088
v -1.49763 2.62435 0.042775
vn 0.724018 -0.623534 0.294963
v -1.6049 2.87261 0.0453464
vn 0.0043339 0.000441822 0.999991
v -1.71219 3.12088 0.0434855
vn -0.721435 0.623799 0.300676
v -1.70731 3.1092 0.0061048
vn -0.0149424 0.0255755 -0.999561
v -1.50284 2.63599 0.00542767
vn 0.00627886 -0.0264591 -0.99963
f 1//1 2//2 3//3
f 1//1 3//3 4//4
f 1//1 4//4 5//5
f 1//1 5//5 6//6
f 1//1 6//6 2//2
f 7//7 8//8 9//9
f 10//10 11//11 12//12
f 13//13 14//14 15//15
f 16//16 17//17 18//18
f 19//19 20//20 21//21
f 22//22 23//23 24//24
f 22//22 24//24 25//25
f 22//22 25//25 26//26
f 22//22 26//26 27//27
f 22//22 27//27 23//23
f 28//28 29//29 30//30
f 31//31 32//32 33//33
f 34//34 35//35 36//36
f 37//37 38//38 39//39
f 40//40 41//41 42//42
f 13//13 43//43 44//44
f 10//10 45//45 46//46
f 7//7 47//47 48//48
f 19//19 49//49 50//50
f 16//16 51//51 52//52
f 10//10 53//53 45//45
f 13//13 54//54 43//43
f 16//16 55//55 51//51
f 19//19 56//56 49//49
f 7//7 57//57 47//47
f 40//40 58//58 59//59
f 28//28 60//60 61//61
f 31//31 62//62 63//63
f 34//34 64//64 65//65
f 37//37 66//66 67//67
f 40//40 68//68 58//58
f 28//28 69//69 60//60
f 31//31 70//70 62//62
f 34//34 71//71 64//64
f 37//37 72//72 66//66
f 10//10 46//46 11//11
f 7//7 48//48 8//8
f 19//19 50//50 20//20
f 16//16 52//52 17//17
f 13//13 44//44 14//14
f 40//40 42//42 68//68
f 28//28 30//30 69//69
f 31//31 33//33 70//70
f 34//34 36//36 71//71
f 37//37 39//39 72//72
f 28//28 61//61 29//29
f 31//31 63//63 32//32
f 34//34 65//65 35//35
f 37//37 67//67 38//38
f 40//40 59//59 41//41
f 10//10 12//12 53//53
f 13//13 15//15 54//54
f 16//16 18//18 55//55
f 19//19 21//21 56//56
f 7//7 9//9 57//57
f 73//73 74//74 75//75
f 76//76 77//77 78//78
f 79//79 80//80 81//81
f 82//82 83//83 84//84
f 85//85 86//86 87//87
f 88//88 89//89 90//90
f 91//91 92//92 93//93
f 94//94 95//95 96//96
f 97//97 98//98 99//99
f 100//100 101//101 102//102
f 103//103 104//104 105//105
f 106//106 107//107 108//108
f 109//109 110//110 111//111
f 112//112 113//113 114//114
f 115//115 116//116 117//117
f 88//88 118//118 119//119
f 91//91 120//120 121//121
f 94//94 122//122 123//123
f 97//97 124//124 125//125
f 100//100 126//126 127//127
f 128//128 129//129 2//2
f 130//130 131//131 3//3
f 132//132 133//133 4//4
f 134//134 135//135 5//5
f 136//136 137//137 6//6
f 76//76 138//138 8//8
f 73//73 139//139 11//11
f 85//85 140//140 14//14
f 82//82 141//141 17//17
f 79//79 142//142 20//20
f 143//143 144//144 23//23
f 145//145 146//146 24//24
f 147//147 148//148 25//25
f 149//149 150//150 26//26
f 151//151 152//152 27//27
f 103//103 153//153 29//29
f 106//106 154//154 32//32
f 109//109 155//155 35//35
f 112//112 156//156 38//38
f 115//115 157//157 41//41
f 73//73 75//75 43//43
f 76//76 78//78 45//45
f 79//79 81//81 47//47
f 82//82 84//84 49//49
f 85//85 87//87 51//51
f 88//88 90//90 53//53
f 91//91 93//93 54//54
f 94//94 96//96 55//55
f 97//97 99//99 56//56
f 100//100 102//102 57//57
f 103//103 105//105 58//58
f 106//106 108//108 60//60
f 109//109 111//111 62//62
f 112//112 114//114 64//64
f 115//115 117//117 66//66
f 88//88 119//119 68//68
f 91//91 121//121 69//69
f 94//94 123//123 70//70
f 97//97 125//125 71//71
f 100//100 127//127 72//72
f 130//130 74//74 46//46
f 132//132 77//77 48//48
f 134//134 80//80 50//50
f 136//136 83//83 52//52
f 128//128 86//86 44//44
f 158//158 89//89 42//42
f 159//159 92//92 30//30
f 160//160 95//95 33//33
f 161//161 98//98 36//36
f 162//162 101//101 39//39
f 145//145 104//104 61//61
f 147//147 107//107 63//63
f 149//149 110//110 65//65
f 151//151 113//113 67//67
f 143//143 116//116 59//59
f 159//159 118//118 12//12
f 160//160 120//120 15//15
f 161//161 122//122 18//18
f 162//162 124//124 21//21
f 158//158 126//126 9//9
f 130//130 129//129 74//74
f 132//132 131//131 77//77
f 134//134 133//133 80//80
f 136//136 135//135 83//83
f 128//128 137//137 86//86
f 158//158 138//138 89//89
f 159//159 139//139 92//92
f 160//160 140//140 95//95
f 161//161 141//141 98//98
f 162//162 142//142 101//101
f 145//145 144//144 104//104
f 147//147 146//146 107//107
f 149//149 148//148 110//110
f 151//151 150//150 113//113
f 143//143 152//152 116//116
f 159//159 153//153 118//118
f 160//160 154//154 120//120
f 161//161 155//155 122//122
f 162//162 156//156 124//124
f 158//158 157//157 126//126
f 130//130 3//3 129//129
f 132//132 4//4 131//131
f 134//134 5//5 133//133
f 136//136 6//6 135//135
f 128//128 2//2 137//137
f 158//158 9//9 138//138
f 159//159 12//12 139//139
f 160//160 15//15 140//140
f 161//161 18//18 141//141
f 162//162 21//21 142//142
f 145//145 24//24 144//144
f 147//147 25//25 146//146
f 149//149 26//26 148//148
f 151//151 27//27 150//150
f 143//143 23//23 152//152
f 159//159 30//30 153//153
f 160//160 33//33 154//154
f 161//161 36//36 155//155
f 162//162 39//39 156//156
f 158//158 42//42 157//157
f 128//128 44//44 75//75
f 130//130 46//46 78//78
f 132//132 48//48 81//81
f 134//134 50//50 84//84
f 136//136 52//52 87//87
f 76//76 45//45 90//90
f 73//73 43//43 93//93
f 85//85 51//51 96//96
f 82//82 49//49 99//99
f 79//79 47//47 102//102
f 143//143 59//59 105//105
f 145//145 61//61 108//108
f 147//147 63//63 111//111
f 149//149 65//65 114//114
f 151//151 67//67 117//117
f 103//103 58//58 119//119
f 106//106 60//60 121//121
f 109//109 62//62 123//123
f 112//112 64//64 125//125
f 115//115 66//66 127//127
f 73//73 11//11 74//74
f 76//76 8//8 77//77
f 79//79 20//20 80//80
f 82//82 17//17 83//83
f 85//85 14//14 86//86
f 88//88 68//68 89//89
f 91//91 69//69 92//92
f 94//94 70//70 95//95
f 97//97 71//71 98//98
f 100//100 72//72 101//101
f 103//103 29//29 104//104
f 106//106 32//32 107//107
f 109//109 35//35 110//110
f 112//112 38//38 113//113
f 115//115 41//41 116//116
f 88//88 53//53 118//118
f 91//91 54//54 120//120
f 94//94 55//55 122//122
f 97//97 56//56 124//124
f 100//100 57//57 126//126
f 128//128 75//75 129//129
f 130//130 78//78 131//131
f 132//132 81//81 133//133
f 134//134 84//84 135//135
f 136//136 87//87 137//137
f 76//76 90//90 138//138
f 73//73 93//93 139//139
f 85//85 96//96 140//140
f 82//82 99//99 141//141
f 79//79 102//102 142//142
f 143//143 105//105 144//144
f 145//145 108//108 146//146
f 147//147 111//111 148//148
f 149//149 114//114 150//150
f 151//151 117//117 152//152
f 103//103 119//119 153//153
f 106//106 121//121 154//154
f 109//109 123//123 155//155
f 112//112 125//125 156//156
f 115//115 127//127 157//157
f 129//129 3//3 2//2
f 131//131 4//4 3//3
f 133//133 5//5 4//4
f 135//135 6//6 5//5
f 137//137 2//2 6//6
f 138//138 9//9 8//8
f 139//139 12//12 11//11
f 140//140 15//15 14//14
f 141//141 18//18 17//17
f 142//142 21//21 20//20
f 144//144 24//24 23//23
f 146//146 25//25 24//24
f 148//148 26//26 25//25
f 150//150 27//27 26//26
f 152//152 23//23 27//27
f 153//153 30//30 29//29
f 154//154 33//33 32//32
f 155//155 36//36 35//35
f 156//156 39//39 38//38
f 157//157 42//42 41//41
f 75//75 44//44 43//43
f 78//78 46//46 45//45
f 81//81 48//48 47//47
f 84//84 50//50 49//49
f 87//87 52//52 51//51
f 90//90 45//45 53//53
f 93//93 43//43 54//54
f 96//96 51//51 55//55
f 99//99 49//49 56//56
f 102//102 47//47 57//57
f 105//105 59//59 58//58
f 108//108 61//61 60//60
f 111//111 63//63 62//62
f 114//114 65//65 64//64
f 117//117 67//67 66//66
f 119//119 58//58 68//68
f 121//121 60//60 69//69
f 123//123 62//62 70//70
f 125//125 64//64 71//71
f 127//127 66//66 72//72
f 74//74 11//11 46//46
f 77//77 8//8 48//48
f 80//80 20//20 50//50
f 83//83 17//17 52//52
f 86//86 14//14 44//44
f 89//89 68//68 42//42
f 92//92 69//69 30//30
f 95//95 70//70 33//33
f 98//98 71//71 36//36
f 101//101 72//72 39//39
f 104//104 29//29 61//61
f 107//107 32//32 63//63
f 110//110 35//35 65//65
f 113//113 38//38 67//67
f 116//116 41//41 59//59
f 118//118 53//53 12//12
f 120//120 54//54 15//15
f 122//122 55//55 18//18
f 124//124 56//56 21//21
f 126//126 57//57 9//9
f 129//129 75//75 74//74
f 131//131 78//78 77//77
f 133//133 81//81 80//80
f 135//135 84//84 83//83
f 137//137 87//87 86//86
f 138//138 90//90 89//89
f 139//139 93//93 92//92
f 140//140 96//96 95//95
f 141//141 99//99 98//98
f 142//142 102//102 101//101
f 144//144 105//105 104//104
f 146//146 108//108 107//107
f 148//148 111//111 110//110
f 150//150 114//114 113//113
f 152//152 117//117 116//116
f 153//153 119//119 118//118
f 154//154 121//121 120//120
f 155//155 123//123 122//122
f 156//156 125//125 124//124
f 157//157 127//127 126//126
