# Created by Open3D 
# object name: part_027
# number of vertices: 162
# number of triangles: 320
v -1.89173 2.5579 0.0232833
vn -0.56502 0.825074 0.00208219
v -1.89462 2.555 0.0433995
vn -0.77539 0.630099 0.0417763
v -1.88927 2.55895 0.044196
vn -0.482075 0.873688 0.0653694
v -1.88408 2.56199 0.0234666
vn -0.374293 0.92731 0.00121226
v -1.88942 2.55893 0.00923876
vn -0.482033 0.871569 -0.0895099
v -1.89476 2.55498 0.010085
vn -0.777839 0.627061 -0.0419611
v -1.63817 2.6558 0.0221413
vn -0.136083 0.990697 0.00014965
v -1.64053 2.65499 0.0430757
vn -0.229675 0.971145 0.0642371
v -1.63392 2.65566 0.0422254
vn 0.151039 0.987812 0.0376051
v -1.76339 2.60308 0.0458314
vn -0.0277462 0.0834773 0.996123
v -1.88098 2.556 0.0463894
vn -0.0165418 0.0478544 0.998717
v -1.76151 2.59823 0.0460688
vn 0.00226795 0.00578987 0.999981
v -1.86686 2.47514 0.0454114
vn -0.306271 -0.11942 0.944424
v -1.86851 2.47451 0.044231
vn -0.921313 -0.355927 0.156519
v -1.83949 2.40371 0.0449677
vn -0.475761 -0.200754 0.856358
v -1.86702 2.47513 0.00790301
vn -0.314459 -0.120258 -0.941623
v -1.89075 2.54411 0.00744785
vn -0.139079 -0.049686 -0.989034
v -1.83823 2.40809 0.00728032
vn -0.137199 -0.0545534 -0.98904
v -1.78975 2.59295 0.00659136
vn -0.0363788 0.0825989 -0.995919
v -1.65178 2.6487 0.00634321
vn -0.0790112 0.197021 -0.97721
v -1.64484 2.64723 0.00591188
vn -0.0210302 0.0483021 -0.998611
v -1.57612 2.4951 0.0219434
vn 0.565025 -0.825071 -0.00208222
v -1.57306 2.49802 0.0420312
vn 0.775726 -0.630065 0.0356118
v -1.5784 2.49407 0.0428775
vn 0.482634 -0.873627 0.0619664
v -1.58376 2.49101 0.0221966
vn 0.374294 -0.927309 -0.00121227
v -1.57855 2.49405 0.00792028
vn 0.481245 -0.871648 -0.092913
v -1.5732 2.498 0.00871678
vn 0.777452 -0.627097 -0.048145
v -1.70426 2.44994 0.0456428
vn 0.0363798 -0.0826015 0.995918
v -1.58666 2.49702 0.04514
vn 0.0251968 -0.0469737 0.998578
v -1.70613 2.45479 0.0458922
vn 0.00639827 -0.0049066 0.999967
v -1.82968 2.3972 0.0230854
vn 0.136079 -0.990698 -0.000149632
v -1.82713 2.39803 0.0439978
vn 0.230219 -0.971091 0.0630979
v -1.83375 2.39736 0.0432054
vn -0.1507 -0.987779 0.0397836
v -1.73062 2.43981 0.0064028
vn 0.0277474 -0.0834803 -0.996123
v -1.8162 2.40429 0.00716358
vn 0.0713871 -0.200767 -0.977034
v -1.82315 2.40575 0.00679119
vn 0.0116353 -0.0501793 -0.998672
v -1.60096 2.57786 0.00670481
vn 0.306271 0.11942 -0.944424
v -1.57723 2.50887 0.00610491
vn 0.1305 0.0488114 -0.990246
v -1.62975 2.64489 0.00627239
vn 0.128624 0.0536798 -0.990239
v -1.60079 2.57788 0.0442132
vn 0.314465 0.12026 0.94162
v -1.59915 2.57851 0.0430178
vn 0.922633 0.356062 0.148214
v -1.62816 2.64931 0.0439436
vn 0.483185 0.201516 0.852011
v -1.89059 2.54413 0.0460113
vn -0.1305 -0.0488114 0.990246
v -1.8946 2.54644 0.0451436
vn -0.486512 -0.172906 0.856393
v -1.65162 2.64872 0.0449527
vn -0.0709288 0.199206 0.977387
v -1.87683 2.56176 0.0459669
vn -0.0736925 0.198142 0.977399
v -1.64068 2.65498 0.0081185
vn -0.229495 0.96908 -0.0906413
v -1.64658 2.65369 0.022397
vn -0.346021 0.938226 0.0010849
v -1.88115 2.55599 0.00697623
vn -0.0259299 0.0471105 -0.998553
v -1.87699 2.56174 0.00735748
vn -0.0828729 0.198749 -0.97654
v -1.86866 2.47449 0.00909836
vn -0.911711 -0.351766 -0.212236
v -1.89476 2.54642 0.00834847
vn -0.493927 -0.173665 -0.851984
v -1.64467 2.64725 0.0453251
vn -0.0120833 0.0495776 0.998697
v -1.83807 2.40811 0.0458439
vn -0.128624 -0.0536798 0.990239
v -1.83965 2.40369 0.00817262
vn -0.48318 -0.201514 -0.852015
v -1.7882 2.58798 0.00634353
vn -0.00639815 0.00490627 -0.999967
v -1.63407 2.65564 0.0089109
vn 0.154238 0.986955 -0.0461587
v -1.57706 2.50889 0.0446684
vn 0.139079 0.049686 0.989034
v -1.57305 2.50658 0.0437678
vn 0.493932 0.173667 0.851981
v -1.81603 2.4043 0.045773
vn 0.079396 -0.19834 0.976912
v -1.59082 2.49126 0.0447588
vn 0.0821572 -0.19727 0.976901
v -1.82729 2.39801 0.00904055
vn 0.228704 -0.96916 -0.0917804
v -1.82126 2.39931 0.0232662
vn 0.346021 -0.938226 -0.0010849
v -1.58683 2.497 0.00572689
vn 0.0160629 -0.0477648 -0.998729
v -1.59099 2.49125 0.0061493
vn 0.0730847 -0.196891 -0.977698
v -1.59931 2.5785 0.00788522
vn 0.909835 0.351574 -0.220445
v -1.57321 2.50657 0.00697266
vn 0.486512 0.172906 -0.856393
v -1.62958 2.64491 0.0448359
vn 0.137199 0.0545534 0.98904
v -1.82298 2.40577 0.0462044
vn 0.0207387 -0.0486979 0.998598
v -1.83389 2.39734 0.00989087
vn -0.154628 -0.986995 -0.0439484
v -1.73281 2.44453 0.00616683
vn -0.00226785 -0.00579014 -0.999981
v -1.62832 2.6493 0.0071485
vn 0.475761 0.200753 -0.856358
v -1.88801 2.55041 0.0462961
vn -0.044001 -0.0086042 0.998994
v -1.88785 2.55602 0.0459788
vn -0.110401 0.13836 0.984209
v -1.89301 2.55119 0.0457017
vn -0.206779 0.0523689 0.976985
v -1.64448 2.65288 0.0442757
vn -0.18088 0.514207 0.838375
v -1.65247 2.65129 0.043149
vn -0.3563 0.932065 0.0656162
v -1.76485 2.60686 0.0449115
vn -0.196452 0.51849 0.832211
v -1.64464 2.65286 0.00695461
vn -0.190462 0.514114 -0.836308
v -1.78997 2.5972 0.00751504
vn -0.203658 0.517753 -0.830937
v -1.65262 2.65127 0.00815196
vn -0.35587 0.929302 -0.0987696
v -1.88818 2.55039 0.00713528
vn -0.0526507 -0.00948388 -0.998568
v -1.89318 2.55117 0.00777224
vn -0.215243 0.0515042 -0.975201
v -1.88801 2.556 0.00744617
vn -0.118924 0.137493 -0.983338
v -1.86912 2.4743 0.0229935
vn -0.932865 -0.3602 0.00420041
v -1.89595 2.54601 0.0434282
vn -0.942213 -0.3327 0.0393169
v -1.89609 2.546 0.0100757
vn -0.942312 -0.332784 -0.03609
v -1.63571 2.64783 0.0451599
vn 0.0461906 0.0262225 0.998588
v -1.63253 2.65177 0.0445286
vn 0.125579 0.180699 0.975488
v -1.6396 2.65187 0.0448607
vn -0.00351804 0.179623 0.983729
v -1.83193 2.40519 0.0461172
vn -0.0375373 -0.0253395 0.998974
v -1.82582 2.41275 0.0464067
vn 0.00250218 -0.00153497 0.999996
v -1.8606 2.47756 0.046308
vn -0.0396647 -0.0165455 0.999076
v -1.83693 2.39919 0.00877677
vn -0.599303 -0.748885 -0.282856
v -1.83739 2.39856 0.0229484
vn -0.63419 -0.773171 0.00308995
v -1.84092 2.40311 0.00989977
vn -0.921469 -0.386765 -0.0361552
v -1.76061 2.51622 0.00617817
vn -0.00433326 -0.000441416 -0.999991
v -1.826 2.41273 0.00660728
vn -0.00676239 -0.00265302 -0.999974
v -1.87858 2.54891 0.00677504
vn -0.00761839 -0.000436092 -0.999971
v -1.63104 2.65379 0.00777215
vn 0.596818 0.748639 -0.2887
v -1.63269 2.65175 0.00659914
vn 0.117123 0.179834 -0.9767
v -1.63616 2.65466 0.00721652
vn 0.0269063 0.510216 -0.859625
v -1.57964 2.50261 0.044981
vn 0.0526507 0.00948388 0.998568
v -1.5798 2.497 0.0446701
vn 0.118924 -0.137493 0.983338
v -1.57464 2.50183 0.044344
vn 0.215243 -0.0515042 0.975201
v -1.82318 2.40014 0.0451616
vn 0.188141 -0.513468 0.837229
v -1.81519 2.40173 0.0439643
vn 0.356859 -0.932008 0.063346
v -1.7028 2.44616 0.0447136
vn 0.203658 -0.517753 0.830937
v -1.82334 2.40013 0.00784052
vn 0.177556 -0.51328 -0.839653
v -1.72792 2.43651 0.00731712
vn 0.196452 -0.51849 -0.832211
v -1.81534 2.40172 0.00896725
vn 0.355418 -0.93043 -0.089324
v -1.57981 2.50259 0.00582019
vn 0.044001 0.0086042 -0.998994
v -1.5748 2.50181 0.00641452
vn 0.206779 -0.0523689 -0.976985
v -1.57997 2.49699 0.00613747
vn 0.110401 -0.13836 -0.984209
v -1.59872 2.5787 0.0217757
vn 0.932865 0.3602 -0.00420032
v -1.57173 2.50701 0.0420405
vn 0.942517 0.332731 0.0308586
v -1.57187 2.50699 0.00868809
vn 0.941963 0.332748 -0.0445477
v -1.64182 2.64027 0.045509
vn 0.00616355 0.00241809 0.999978
v -1.60704 2.57546 0.0451661
vn 0.0483173 0.0174259 0.99868
v -1.83512 2.40125 0.0455171
vn -0.117125 -0.179837 0.976699
v -1.82805 2.40115 0.0457881
vn 0.0120454 -0.178759 0.983819
v -1.83529 2.40124 0.00758768
vn -0.125579 -0.180699 -0.975488
v -1.83182 2.39833 0.00817751
vn -0.0343549 -0.51096 -0.858918
v -1.64199 2.64026 0.0057095
vn -0.00289316 0.00138175 -0.999995
v -1.58941 2.50408 0.0055418
vn -0.00204136 -0.00082398 -0.999998
v -1.63046 2.65444 0.0219387
vn 0.63419 0.773171 -0.00309016
v -1.62704 2.64988 0.00886407
vn 0.92112 0.38673 -0.04448
v -1.89561 2.55159 0.0445317
vn -0.965899 0.152169 0.209484
v -1.89241 2.55567 0.0450934
vn -0.362092 0.357886 0.860702
v -1.88491 2.56004 0.0453585
vn -0.20506 0.504877 0.83848
v -1.87794 2.56423 0.0441644
vn -0.362036 0.92985 0.0656403
v -1.76545 2.60816 0.0224851
vn -0.360199 0.932875 0.00114891
v -1.87809 2.56421 0.00916738
vn -0.362169 0.928041 -0.0870252
v -1.88508 2.56002 0.00803748
vn -0.214162 0.501222 -0.838398
v -1.89256 2.55565 0.00837136
vn -0.369552 0.357149 -0.857832
v -1.89577 2.55157 0.00896443
vn -0.947305 0.152414 -0.281752
v -1.89652 2.55171 0.023137
vn -0.989226 0.146338 0.00422131
v -1.636 2.65468 0.0439387
vn 0.0343549 0.51096 0.858918
v -1.8784 2.54892 0.0465744
vn 0.00164893 0.000675048 0.999998
v -1.84077 2.40312 0.0432522
vn -0.921277 -0.386922 0.0392491
v -1.86078 2.47754 0.00695019
vn -0.0483173 -0.0174259 -0.99868
v -1.63977 2.65185 0.00632819
vn -0.0120454 0.178759 -0.983819
v -1.57205 2.50143 0.0431518
vn 0.96768 -0.151981 0.20124
v -1.57525 2.49735 0.0437449
vn 0.369552 -0.357149 0.857832
v -1.58274 2.49298 0.0440788
vn 0.212321 -0.504138 0.837117
v -1.58973 2.48879 0.0429489
vn 0.362595 -0.929793 0.0633224
v -1.70239 2.44484 0.0222841
vn 0.360199 -0.932875 -0.00114891
v -1.58988 2.48877 0.00795183
vn 0.36092 -0.927104 -0.101066
v -1.5829 2.49297 0.00675773
vn 0.203776 -0.506918 -0.837561
v -1.57541 2.49733 0.00702282
vn 0.362092 -0.357886 -0.860702
v -1.5722 2.50141 0.00758454
vn 0.944828 -0.152673 -0.289811
v -1.57133 2.50129 0.0217501
vn 0.989226 -0.146338 -0.00422131
v -1.58924 2.5041 0.0453412
vn 0.00701714 0.000207969 0.999975
v -1.83166 2.39834 0.0448997
vn -0.0269084 -0.510216 0.859625
v -1.82822 2.40113 0.00725553
vn 0.00351804 -0.179623 -0.983729
v -1.60721 2.57545 0.00580828
vn 0.0396647 0.0165455 -0.999076
v -1.6269 2.6499 0.0422165
vn 0.921581 0.386953 0.0309242
v -1.63088 2.65381 0.0433395
vn 0.614615 0.762429 0.202362
v -1.73382 2.52651 0.0460579
vn 0.00433318 0.000441641 0.999991
v -1.83678 2.39921 0.044344
vn -0.612827 -0.762254 0.208355
v -1.8321 2.40517 0.0069564
vn -0.0461906 -0.0262225 -0.998588
v -1.63588 2.64781 0.00599902
vn 0.0375373 0.0253395 -0.998974
f 1//1 2//2 3//3
f 1//1 3//3 4//4
f 1//1 4//4 5//5
f 1//1 5//5 6//6
f 1//1 6//6 2//2
f 7//7 8//8 9//9
f 10//10 11//11 12//12
f 13//13 14//14 15//15
f 16//16 17//17 18//18
f 19//19 20//20 21//21
f 22//22 23//23 24//24
f 22//22 24//24 25//25
f 22//22 25//25 26//26
f 22//22 26//26 27//27
f 22//22 27//27 23//23
f 28//28 29//29 30//30
f 31//31 32//32 33//33
f 34//34 35//35 36//36
f 37//37 38//38 39//39
f 40//40 41//41 42//42
f 13//13 43//43 44//44
f 10//10 45//45 46//46
f 7//7 47//47 48//48
f 19//19 49//49 50//50
f 16//16 51//51 52//52
f 10//10 53//53 45//45
f 13//13 54//54 43//43
f 16//16 55//55 51//51
f 19//19 56//56 49//49
f 7//7 57//57 47//47
f 40//40 58//58 59//59
f 28//28 60//60 61//61
f 31//31 62//62 63//63
f 34//34 64//64 65//65
f 37//37 66//66 67//67
f 40//40 68//68 58//58
f 28//28 69//69 60//60
f 31//31 70//70 62//62
f 34//34 71//71 64//64
f 37//37 72//72 66//66
f 10//10 46//46 11//11
f 7//7 48//48 8//8
f 19//19 50//50 20//20
f 16//16 52//52 17//17
f 13//13 44//44 14//14
f 40//40 42//42 68//68
f 28//28 30//30 69//69
f 31//31 33//33 70//70
f 34//34 36//36 71//71
f 37//37 39//39 72//72
f 28//28 61//61 29//29
f 31//31 63//63 32//32
f 34//34 65//65 35//35
f 37//37 67//67 38//38
f 40//40 59//59 41//41
f 10//10 12//12 53//53
f 13//13 15//15 54//54
f 16//16 18//18 55//55
f 19//19 21//21 56//56
f 7//7 9//9 57//57
f 73//73 74//74 75//75
f 76//76 77//77 78//78
f 79//79 80//80 81//81
f 82//82 83//83 84//84
f 85//85 86//86 87//87
f 88//88 89//89 90//90
f 91//91 92//92 93//93
f 94//94 95//95 96//96
f 97//97 98//98 99//99
f 100//100 101//101 102//102
f 103//103 104//104 105//105
f 106//106 107//107 108//108
f 109//109 110//110 111//111
f 112//112 113//113 114//114
f 115//115 116//116 117//117
f 88//88 118//118 119//119
f 91//91 120//120 121//121
f 94//94 122//122 123//123
f 97//97 124//124 125//125
f 100//100 126//126 127//127
f 128//128 129//129 2//2
f 130//130 131//131 3//3
f 132//132 133//133 4//4
f 134//134 135//135 5//5
f 136//136 137//137 6//6
f 76//76 138//138 8//8
f 73//73 139//139 11//11
f 85//85 140//140 14//14
f 82//82 141//141 17//17
f 79//79 142//142 20//20
f 143//143 144//144 23//23
f 145//145 146//146 24//24
f 147//147 148//148 25//25
f 149//149 150//150 26//26
f 151//151 152//152 27//27
f 103//103 153//153 29//29
f 106//106 154//154 32//32
f 109//109 155//155 35//35
f 112//112 156//156 38//38
f 115//115 157//157 41//41
f 73//73 75//75 43//43
f 76//76 78//78 45//45
f 79//79 81//81 47//47
f 82//82 84//84 49//49
f 85//85 87//87 51//51
f 88//88 90//90 53//53
f 91//91 93//93 54//54
f 94//94 96//96 55//55
f 97//97 99//99 56//56
f 100//100 102//102 57//57
f 103//103 105//105 58//58
f 106//106 108//108 60//60
f 109//109 111//111 62//62
f 112//112 114//114 64//64
f 115//115 117//117 66//66
f 88//88 119//119 68//68
f 91//91 121//121 69//69
f 94//94 123//123 70//70
f 97//97 125//125 71//71
f 100//100 127//127 72//72
f 130//130 74//74 46//46
f 132//132 77//77 48//48
f 134//134 80//80 50//50
f 136//136 83//83 52//52
f 128//128 86//86 44//44
f 158//158 89//89 42//42
f 159//159 92//92 30//30
f 160//160 95//95 33//33
f 161//161 98//98 36//36
f 162//162 101//101 39//39
f 145//145 104//104 61//61
f 147//147 107//107 63//63
f 149//149 110//110 65//65
f 151//151 113//113 67//67
f 143//143 116//116 59//59
f 159//159 118//118 12//12
f 160//160 120//120 15//15
f 161//161 122//122 18//18
f 162//162 124//124 21//21
f 158//158 126//126 9//9
f 130//130 129//129 74//74
f 132//132 131//131 77//77
f 134//134 133//133 80//80
f 136//136 135//135 83//83
f 128//128 137//137 86//86
f 158//158 138//138 89//89
f 159//159 139//139 92//92
f 160//160 140//140 95//95
f 161//161 141//141 98//98
f 162//162 142//142 101//101
f 145//145 144//144 104//104
f 147//147 146//146 107//107
f 149//149 148//148 110//110
f 151//151 150//150 113//113
f 143//143 152//152 116//116
f 159//159 153//153 118//118
f 160//160 154//154 120//120
f 161//161 155//155 122//122
f 162//162 156//156 124//124
f 158//158 157//157 126//126
f 130//130 3//3 129//129
f 132//132 4//4 131//131
f 134//134 5//5 133//133
f 136//136 6//6 135//135
f 128//128 2//2 137//137
f 158//158 9//9 138//138
f 159//159 12//12 139//139
f 160//160 15//15 140//140
f 161//161 18//18 141//141
f 162//162 21//21 142//142
f 145//145 24//24 144//144
f 147//147 25//25 146//146
f 149//149 26//26 148//148
f 151//151 27//27 150//150
f 143//143 23//23 152//152
f 159//159 30//30 153//153
f 160//160 33//33 154//154
f 161//161 36//36 155//155
f 162//162 39//39 156//156
f 158//158 42//42 157//157
f 128//128 44//44 75//75
f 130//130 46//46 78//78
f 132//132 48//48 81//81
f 134//134 50//50 84//84
f 136//136 52//52 87//87
f 76//76 45//45 90//90
f 73//73 43//43 93//93
f 85//85 51//51 96//96
f 82//82 49//49 99//99
f 79//79 47//47 102//102
f 143//143 59//59 105//105
f 145//145 61//61 108//108
f 147//147 63//63 111//111
f 149//149 65//65 114//114
f 151//151 67//67 117//117
f 103//103 58//58 119//119
f 106//106 60//60 121//121
f 109//109 62//62 123//123
f 112//112 64//64 125//125
f 115//115 66//66 127//127
f 73//73 11//11 74//74
f 76//76 8//8 77//77
f 79//79 20//20 80//80
f 82//82 17//17 83//83
f 85//85 14//14 86//86
f 88//88 68//68 89//89
f 91//91 69//69 92//92
f 94//94 70//70 95//95
f 97//97 71//71 98//98
f 100//100 72//72 101//101
f 103//103 29//29 104//104
f 106//106 32//32 107//107
f 109//109 35//35 110//110
f 112//112 38//38 113//113
f 115//115 41//41 116//116
f 88//88 53//53 118//118
f 91//91 54//54 120//120
f 94//94 55//55 122//122
f 97//97 56//56 124//124
f 100//100 57//57 126//126
f 128//128 75//75 129//129
f 130//130 78//78 131//131
f 132//132 81//81 133//133
f 134//134 84//84 135//135
f 136//136 87//87 137//137
f 76//76 90//90 138//138
f 73//73 93//93 139//139
f 85//85 96//96 140//140
f 82//82 99//99 141//141
f 79//79 102//102 142//142
f 143//143 105//105 144//144
f 145//145 108//108 146//146
f 147//147 111//111 148//148
f 149//149 114//114 150//150
f 151//151 117//117 152//152
f 103//103 119//119 153//153
f 106//106 121//121 154//154
f 109//109 123//123 155//155
f 112//112 125//125 156//156
f 115//115 127//127 157//157
f 129//129 3//3 2//2
f 131//131 4//4 3//3
f 133//133 5//5 4//4
f 135//135 6//6 5//5
f 137//137 2//2 6//6
f 138//138 9//9 8//8
f 139//139 12//12 11//11
f 140//140 15//15 14//14
f 141//141 18//18 17//17
f 142//142 21//21 20//20
f 144//144 24//24 23//23
f 146//146 25//25 24//24
f 148//148 26//26 25//25
f 150//150 27//27 26//26
f 152//152 23//23 27//27
f 153//153 30//30 29//29
f 154//154 33//33 32//32
f 155//155 36//36 35//35
f 156//156 39//39 38//38
f 157//157 42//42 41//41
f 75//75 44//44 43//43
f 78//78 46//46 45//45
f 81//81 48//48 47//47
f 84//84 50//50 49//49
f 87//87 52//52 51//51
f 90//90 45//45 53//53
f 93//93 43//43 54//54
f 96//96 51//51 55//55
f 99//99 49//49 56//56
f 102//102 47//47 57//57
f 105//105 59//59 58//58
f 108//108 61//61 60//60
f 111//111 63//63 62//62
f 114//114 65//65 64//64
f 117//117 67//67 66//66
f 119//119 58//58 68//68
f 121//121 60//60 69//69
f 123//123 62//62 70//70
f 125//125 64//64 71//71
f 127//127 66//66 72//72
f 74//74 11//11 46//46
f 77//77 8//8 48//48
f 80//80 20//20 50//50
f 83//83 17//17 52//52
f 86//86 14//14 44//44
f 89//89 68//68 42//42
f 92//92 69//69 30//30
f 95//95 70//70 33//33
f 98//98 71//71 36//36
f 101//101 72//72 39//39
f 104//104 29//29 61//61
f 107//107 32//32 63//63
f 110//110 35//35 65//65
f 113//113 38//38 67//67
f 116//116 41//41 59//59
f 118//118 53//53 12//12
f 120//120 54//54 15//15
f 122//122 55//55 18//18
f 124//124 56//56 21//21
f 126//126 57//57 9//9
f 129//129 75//75 74//74
f 131//131 78//78 77//77
f 133//133 81//81 80//80
f 135//135 84//84 83//83
f 137//137 87//87 86//86
f 138//138 90//90 89//89
f 139//139 93//93 92//92
f 140//140 96//96 95//95
f 141//141 99//99 98//98
f 142//142 102//102 101//101
f 144//144 105//105 104//104
f 146//146 108//108 107//107
f 148//148 111//111 110//110
f 150//150 114//114 113//113
f 152//152 117//117 116//116
f 153//153 119//119 118//118
f 154//154 121//121 120//120
f 155//155 123//123 122//122
f 156//156 125//125 124//124
f 157//157 127//127 126//126
