# Created by Open3D 
# object name: part_016
# number of vertices: 162
# number of triangles: 320
v 2.09936 3.51983 0.824631
vn -0.150514 -0.191925 -0.969799
v 2.09169 3.49665 0.830764
vn -0.144792 -0.235611 -0.961001
v 2.07664 3.51703 0.828949
vn -0.181582 -0.198396 -0.963155
v 2.07996 3.54779 0.822578
vn -0.165289 -0.170347 -0.971422
v 2.10498 3.53582 0.820831
vn -0.121861 -0.158801 -0.979761
v 2.11869 3.51456 0.823029
vn -0.107759 -0.211721 -0.971371
v 1.49509 4.40886 0.77354
vn -0.181954 -0.14567 -0.972457
v 1.48387 4.38914 0.778829
vn -0.19979 -0.171611 -0.964694
v 1.47043 4.41068 0.778236
vn -0.220839 -0.12373 -0.96743
v 1.7788 3.95223 0.806301
vn -0.827391 -0.559709 0.0463679
v 2.06048 3.53807 0.830827
vn -0.823607 -0.553391 0.124216
v 1.77901 3.95252 0.808728
vn -0.812562 -0.539633 0.220315
v 2.10298 3.49281 0.870321
vn -0.757557 -0.60881 0.235496
v 2.10787 3.48768 0.870377
vn 0.0569574 -0.985228 0.161498
v 2.10969 3.49841 0.905161
vn -0.709298 -0.650202 0.272274
v 2.13339 3.51297 0.861612
vn 0.857232 0.462161 -0.227068
v 2.1221 3.51635 0.827734
vn 0.829652 0.50606 -0.235756
v 2.13348 3.52791 0.894225
vn 0.831519 0.507957 -0.224847
v 1.87311 3.88157 0.802439
vn 0.765186 0.496542 -0.4098
v 1.54187 4.36782 0.773507
vn 0.666664 0.418054 -0.617082
v 1.52926 4.38781 0.774059
vn 0.78731 0.516371 -0.336904
v 1.50854 4.42251 0.852092
vn 0.150514 0.191926 0.969799
v 1.48362 4.42408 0.855295
vn 0.110923 0.213148 0.970703
v 1.49733 4.40282 0.857491
vn 0.132612 0.165917 0.977182
v 1.52758 4.39432 0.854247
vn 0.165289 0.170347 0.971422
v 1.52567 4.42161 0.849374
vn 0.192135 0.205411 0.95963
v 1.51062 4.44199 0.847559
vn 0.147283 0.237935 0.960049
v 1.79161 3.96525 0.881161
vn -0.765182 -0.49654 0.40981
v 1.50989 4.37938 0.856648
vn -0.787789 -0.515341 0.337362
v 1.79101 3.9647 0.878847
vn -0.8085 -0.535509 0.244046
v 2.1128 3.53349 0.903183
vn 0.181953 0.14567 0.972457
v 2.09011 3.5307 0.907611
vn 0.150819 0.139133 0.978722
v 2.10488 3.51005 0.907822
vn 0.186968 0.101266 0.977133
v 1.88593 3.89458 0.877299
vn 0.827391 0.559709 -0.0463767
v 2.09174 3.59158 0.895851
vn 0.805019 0.558247 0.20076
v 2.105 3.57202 0.895112
vn 0.824434 0.552356 -0.123332
v 1.49933 4.44583 0.808002
vn 0.757552 0.608815 -0.235497
v 1.51148 4.44302 0.841634
vn 0.790422 0.56842 -0.228325
v 1.50009 4.43147 0.775144
vn 0.788555 0.566524 -0.23923
v 1.46892 4.42567 0.816711
vn -0.857229 -0.462168 0.227068
v 1.46597 4.43207 0.816104
vn -0.901593 0.425039 0.0804516
v 1.4628 4.42045 0.781706
vn -0.891993 -0.41182 0.186421
v 2.09084 3.49562 0.836689
vn -0.79042 -0.568423 0.228325
v 2.09775 3.48628 0.835392
vn -0.721526 -0.66262 0.200837
v 1.51057 4.34706 0.782472
vn -0.805578 -0.558495 -0.197807
v 2.04727 3.55744 0.82785
vn -0.805189 -0.559069 -0.197769
v 1.51221 4.40794 0.770712
vn -0.140105 -0.131956 -0.981304
v 1.51397 4.3805 0.774723
vn -0.167307 -0.167379 -0.971593
v 2.09243 3.55926 0.821675
vn 0.787661 0.515016 -0.338155
v 2.07857 3.5782 0.818885
vn 0.664286 0.415339 -0.621464
v 2.13635 3.50657 0.862219
vn 0.956668 -0.266446 -0.117446
v 2.12757 3.50606 0.826848
vn 0.879764 0.3994 -0.257867
v 1.49731 4.36662 0.783211
vn -0.824282 -0.552398 0.124158
v 2.10222 3.50717 0.903179
vn -0.788554 -0.566527 0.239229
v 2.13951 3.51819 0.896617
vn 0.891995 0.411818 -0.186417
v 1.87449 3.88098 0.804818
vn 0.8085 0.535509 -0.244046
v 1.49743 4.42859 0.770501
vn -0.18444 -0.0989029 -0.977855
v 1.48022 4.42229 0.850589
vn -0.829651 -0.506062 0.235755
v 1.47474 4.43258 0.851475
vn -0.879761 -0.399408 0.257863
v 2.06044 3.57082 0.904816
vn -0.665369 -0.417088 0.619129
v 1.52375 4.36044 0.859438
vn -0.665763 -0.416517 0.61909
v 2.11844 3.5495 0.899494
vn 0.210379 0.178564 0.961174
v 2.09357 3.56161 0.902101
vn 0.167307 0.167379 0.971593
v 1.54183 4.40057 0.847496
vn 0.823622 0.553243 -0.124772
v 1.55504 4.3812 0.850473
vn 0.805702 0.559237 0.19519
v 1.49444 4.45096 0.807946
vn 0.11251 0.975544 -0.188824
v 1.50457 4.45236 0.842931
vn 0.721527 0.662619 -0.200833
v 1.46883 4.41073 0.784098
vn -0.831519 -0.507955 0.224851
v 2.07305 3.55083 0.904264
vn -0.787113 -0.516334 0.33742
v 2.13188 3.52796 0.900087
vn 0.223964 0.125117 0.966533
v 1.88649 3.89317 0.874937
vn 0.812561 0.539633 -0.220319
v 1.49262 4.44023 0.773163
vn 0.709294 0.650204 -0.272281
v 2.07983 3.51033 0.833633
vn -0.806699 -0.550802 0.214133
v 2.07486 3.51719 0.830795
vn -0.81031 -0.574195 -0.117038
v 2.08989 3.49611 0.833162
vn -0.800069 -0.599233 -0.0284452
v 1.49284 4.374 0.780192
vn -0.610062 -0.449395 -0.652586
v 1.51152 4.34827 0.780793
vn -0.191 -0.184782 -0.964041
v 1.77923 3.95241 0.80424
vn -0.602153 -0.447286 -0.661322
v 1.5231 4.39407 0.771526
vn 0.336453 0.17789 -0.924746
v 1.86911 3.88507 0.80056
vn 0.329985 0.170937 -0.928381
v 1.53989 4.36708 0.772667
vn -0.128164 -0.143054 -0.981381
v 2.11158 3.53139 0.82454
vn 0.814061 0.524146 -0.250151
v 2.12064 3.5165 0.824355
vn 0.762871 0.437358 -0.476177
v 2.10609 3.53791 0.821847
vn 0.710946 0.434754 -0.552762
v 2.12633 3.49726 0.865551
vn 0.561503 -0.826111 0.0474752
v 2.10225 3.48262 0.835215
vn 0.392648 -0.906928 -0.152672
v 2.12928 3.50055 0.827471
vn 0.624359 -0.750124 -0.217924
v 1.47859 4.39491 0.782797
vn -0.820428 -0.530606 0.212969
v 1.46913 4.4094 0.780677
vn -0.849975 -0.525809 -0.0326731
v 1.48326 4.38758 0.780775
vn -0.825809 -0.551394 -0.118338
v 2.09198 3.52267 0.904619
vn -0.800339 -0.544338 0.251305
v 2.07263 3.54966 0.9009
vn -0.809825 -0.537688 0.234679
v 2.08734 3.51422 0.869277
vn -0.803837 -0.547424 0.23275
v 2.13739 3.52126 0.898946
vn 0.477936 0.142176 0.866812
v 2.12752 3.51134 0.902558
vn 0.277807 -0.00396399 0.960629
v 2.14124 3.51269 0.897319
vn 0.702369 -0.67091 0.237818
v 1.8808 3.88675 0.83988
vn 0.810591 0.537611 -0.232198
v 2.10489 3.57106 0.891659
vn 0.811444 0.537398 -0.229702
v 2.09349 3.55949 0.825093
vn 0.810602 0.536543 -0.23462
v 1.49375 4.4365 0.771118
vn -0.0522469 0.140158 -0.98875
v 1.49987 4.42979 0.771869
vn 0.712965 0.510786 -0.480395
v 1.50393 4.42201 0.770614
vn 0.382025 0.258149 -0.887365
v 1.49074 4.40725 0.853783
vn -0.814063 -0.524145 0.250148
v 1.49622 4.40073 0.856476
vn -0.71095 -0.43476 0.552752
v 1.48167 4.42214 0.853968
vn -0.762881 -0.437375 0.476146
v 2.07922 3.54457 0.906797
vn -0.337628 -0.179143 0.924075
v 2.06243 3.57156 0.905656
vn 0.141854 0.152187 0.978119
v 1.79268 3.96606 0.882792
vn -0.330004 -0.17095 0.928371
v 2.10947 3.56464 0.898131
vn 0.611758 0.449843 0.650686
v 1.88256 3.89872 0.879112
vn 0.602156 0.447288 0.661318
v 2.09079 3.59037 0.89753
vn 0.200025 0.190724 0.961049
v 1.52248 4.42831 0.84469
vn 0.806702 0.550797 -0.214136
v 1.51242 4.44253 0.845161
vn 0.800068 0.599233 0.028477
v 1.52745 4.42145 0.847529
vn 0.810312 0.574196 0.117022
v 1.48194 4.44533 0.811066
vn -0.561506 0.82611 -0.0474741
v 1.47303 4.43809 0.850852
vn -0.609641 0.76301 0.214832
v 1.50007 4.45602 0.843108
vn -0.375624 0.915091 0.146677
v 1.49743 4.36758 0.786664
vn -0.811351 -0.537531 0.229717
v 1.48307 4.40326 0.818185
vn -0.817229 -0.527722 0.231618
v 2.10244 3.50885 0.906454
vn -0.712972 -0.510788 0.480382
v 2.08782 3.53035 0.906496
vn -0.695437 -0.457549 0.55409
v 2.13318 3.52924 0.897646
vn 0.849977 0.525806 0.0326674
v 2.12815 3.53637 0.899182
vn 0.67903 0.44558 0.583418
v 1.52969 4.38898 0.777423
vn 0.809886 0.537602 -0.234666
v 1.54108 4.40055 0.843989
vn 0.810724 0.538452 -0.229774
v 1.48065 4.43118 0.774087
vn -0.277808 0.00396488 -0.960629
v 1.48811 4.44388 0.773259
vn -0.453634 0.835876 -0.309076
v 2.09581 3.48919 0.832718
vn -0.202649 -0.42699 -0.881256
v 2.08521 3.50326 0.830805
vn -0.633095 -0.5131 -0.579585
v 2.06584 3.53099 0.828639
vn -0.607497 -0.453168 -0.652369
v 2.04883 3.55775 0.826223
vn -0.19059 -0.185385 -0.964006
v 1.7973 3.96436 0.798392
vn -0.166298 -0.168863 -0.971509
v 2.0772 3.57657 0.818097
vn -0.132285 -0.146711 -0.980294
v 2.09609 3.55105 0.819973
vn 0.342366 0.176308 -0.922876
v 2.11498 3.52301 0.822278
vn 0.42794 0.190615 -0.883478
v 2.12464 3.50831 0.82446
vn 0.163435 -0.177179 -0.970514
v 2.11471 3.49833 0.827696
vn -0.0477351 -0.334528 -0.941176
v 1.47417 4.40227 0.779141
vn -0.679011 -0.44557 -0.583448
v 2.06123 3.53809 0.834334
vn -0.810665 -0.53854 0.229774
v 2.1142 3.49476 0.905064
vn 0.471199 -0.827167 0.306213
v 2.11924 3.53538 0.860138
vn 0.817228 0.527724 -0.231616
v 1.5145 4.40829 0.771828
vn 0.695445 0.457558 -0.554073
v 1.47767 4.43033 0.853864
vn -0.104069 0.223567 0.969117
v 1.48733 4.41563 0.856045
vn -0.427905 -0.190593 0.8835
v 1.50622 4.38759 0.85835
vn -0.340177 -0.175359 0.923866
v 1.52512 4.36207 0.860226
vn 0.141443 0.152789 0.978084
v 1.81097 3.97823 0.878225
vn 0.166299 0.168864 0.971509
v 1.55348 4.38089 0.8521
vn 0.204064 0.194298 0.959482
v 1.53648 4.40765 0.849684
vn 0.606705 0.452291 0.653714
v 1.5171 4.43538 0.847518
vn 0.63312 0.513115 0.579545
v 1.5065 4.44945 0.845605
vn 0.262255 0.459504 0.848574
v 1.49346 4.4442 0.848948
vn 0.0477362 0.334527 0.941176
v 1.50882 4.37916 0.85323
vn -0.810512 -0.536678 0.234623
v 2.09838 3.51663 0.907709
vn -0.382005 -0.258131 0.887379
v 2.11905 3.55106 0.897548
vn 0.825812 0.551395 0.118315
v 1.51497 4.42442 0.809046
vn 0.80384 0.547421 -0.232748
v 1.46107 4.42595 0.781004
vn -0.688191 0.683248 -0.244059
v 1.46492 4.41738 0.779377
vn -0.424011 -0.10131 -0.899973
v 1.78494 3.95857 0.843806
vn -0.810591 -0.537611 0.232198
v 2.10856 3.50214 0.907205
vn 0.117293 -0.102114 0.987833
v 2.12373 3.54373 0.895526
vn 0.820426 0.530608 -0.21297
v 1.51033 4.41597 0.773704
vn 0.80034 0.544338 -0.251302
f 1//1 2//2 3//3
f 1//1 3//3 4//4
f 1//1 4//4 5//5
f 1//1 5//5 6//6
f 1//1 6//6 2//2
f 7//7 8//8 9//9
f 10//10 11//11 12//12
f 13//13 14//14 15//15
f 16//16 17//17 18//18
f 19//19 20//20 21//21
f 22//22 23//23 24//24
f 22//22 24//24 25//25
f 22//22 25//25 26//26
f 22//22 26//26 27//27
f 22//22 27//27 23//23
f 28//28 29//29 30//30
f 31//31 32//32 33//33
f 34//34 35//35 36//36
f 37//37 38//38 39//39
f 40//40 41//41 42//42
f 13//13 43//43 44//44
f 10//10 45//45 46//46
f 7//7 47//47 48//48
f 19//19 49//49 50//50
f 16//16 51//51 52//52
f 10//10 53//53 45//45
f 13//13 54//54 43//43
f 16//16 55//55 51//51
f 19//19 56//56 49//49
f 7//7 57//57 47//47
f 40//40 58//58 59//59
f 28//28 60//60 61//61
f 31//31 62//62 63//63
f 34//34 64//64 65//65
f 37//37 66//66 67//67
f 40//40 68//68 58//58
f 28//28 69//69 60//60
f 31//31 70//70 62//62
f 34//34 71//71 64//64
f 37//37 72//72 66//66
f 10//10 46//46 11//11
f 7//7 48//48 8//8
f 19//19 50//50 20//20
f 16//16 52//52 17//17
f 13//13 44//44 14//14
f 40//40 42//42 68//68
f 28//28 30//30 69//69
f 31//31 33//33 70//70
f 34//34 36//36 71//71
f 37//37 39//39 72//72
f 28//28 61//61 29//29
f 31//31 63//63 32//32
f 34//34 65//65 35//35
f 37//37 67//67 38//38
f 40//40 59//59 41//41
f 10//10 12//12 53//53
f 13//13 15//15 54//54
f 16//16 18//18 55//55
f 19//19 21//21 56//56
f 7//7 9//9 57//57
f 73//73 74//74 75//75
f 76//76 77//77 78//78
f 79//79 80//80 81//81
f 82//82 83//83 84//84
f 85//85 86//86 87//87
f 88//88 89//89 90//90
f 91//91 92//92 93//93
f 94//94 95//95 96//96
f 97//97 98//98 99//99
f 100//100 101//101 102//102
f 103//103 104//104 105//105
f 106//106 107//107 108//108
f 109//109 110//110 111//111
f 112//112 113//113 114//114
f 115//115 116//116 117//117
f 88//88 118//118 119//119
f 91//91 120//120 121//121
f 94//94 122//122 123//123
f 97//97 124//124 125//125
f 100//100 126//126 127//127
f 128//128 129//129 2//2
f 130//130 131//131 3//3
f 132//132 133//133 4//4
f 134//134 135//135 5//5
f 136//136 137//137 6//6
f 76//76 138//138 8//8
f 73//73 139//139 11//11
f 85//85 140//140 14//14
f 82//82 141//141 17//17
f 79//79 142//142 20//20
f 143//143 144//144 23//23
f 145//145 146//146 24//24
f 147//147 148//148 25//25
f 149//149 150//150 26//26
f 151//151 152//152 27//27
f 103//103 153//153 29//29
f 106//106 154//154 32//32
f 109//109 155//155 35//35
f 112//112 156//156 38//38
f 115//115 157//157 41//41
f 73//73 75//75 43//43
f 76//76 78//78 45//45
f 79//79 81//81 47//47
f 82//82 84//84 49//49
f 85//85 87//87 51//51
f 88//88 90//90 53//53
f 91//91 93//93 54//54
f 94//94 96//96 55//55
f 97//97 99//99 56//56
f 100//100 102//102 57//57
f 103//103 105//105 58//58
f 106//106 108//108 60//60
f 109//109 111//111 62//62
f 112//112 114//114 64//64
f 115//115 117//117 66//66
f 88//88 119//119 68//68
f 91//91 121//121 69//69
f 94//94 123//123 70//70
f 97//97 125//125 71//71
f 100//100 127//127 72//72
f 130//130 74//74 46//46
f 132//132 77//77 48//48
f 134//134 80//80 50//50
f 136//136 83//83 52//52
f 128//128 86//86 44//44
f 158//158 89//89 42//42
f 159//159 92//92 30//30
f 160//160 95//95 33//33
f 161//161 98//98 36//36
f 162//162 101//101 39//39
f 145//145 104//104 61//61
f 147//147 107//107 63//63
f 149//149 110//110 65//65
f 151//151 113//113 67//67
f 143//143 116//116 59//59
f 159//159 118//118 12//12
f 160//160 120//120 15//15
f 161//161 122//122 18//18
f 162//162 124//124 21//21
f 158//158 126//126 9//9
f 130//130 129//129 74//74
f 132//132 131//131 77//77
f 134//134 133//133 80//80
f 136//136 135//135 83//83
f 128//128 137//137 86//86
f 158//158 138//138 89//89
f 159//159 139//139 92//92
f 160//160 140//140 95//95
f 161//161 141//141 98//98
f 162//162 142//142 101//101
f 145//145 144//144 104//104
f 147//147 146//146 107//107
f 149//149 148//148 110//110
f 151//151 150//150 113//113
f 143//143 152//152 116//116
f 159//159 153//153 118//118
f 160//160 154//154 120//120
f 161//161 155//155 122//122
f 162//162 156//156 124//124
f 158//158 157//157 126//126
f 130//130 3//3 129//129
f 132//132 4//4 131//131
f 134//134 5//5 133//133
f 136//136 6//6 135//135
f 128//128 2//2 137//137
f 158//158 9//9 138//138
f 159//159 12//12 139//139
f 160//160 15//15 140//140
f 161//161 18//18 141//141
f 162//162 21//21 142//142
f 145//145 24//24 144//144
f 147//147 25//25 146//146
f 149//149 26//26 148//148
f 151//151 27//27 150//150
f 143//143 23//23 152//152
f 159//159 30//30 153//153
f 160//160 33//33 154//154
f 161//161 36//36 155//155
f 162//162 39//39 156//156
f 158//158 42//42 157//157
f 128//128 44//44 75//75
f 130//130 46//46 78//78
f 132//132 48//48 81//81
f 134//134 50//50 84//84
f 136//136 52//52 87//87
f 76//76 45//45 90//90
f 73//73 43//43 93//93
f 85//85 51//51 96//96
f 82//82 49//49 99//99
f 79//79 47//47 102//102
f 143//143 59//59 105//105
f 145//145 61//61 108//108
f 147//147 63//63 111//111
f 149//149 65//65 114//114
f 151//151 67//67 117//117
f 103//103 58//58 119//119
f 106//106 60//60 121//121
f 109//109 62//62 123//123
f 112//112 64//64 125//125
f 115//115 66//66 127//127
f 73//73 11//11 74//74
f 76//76 8//8 77//77
f 79//79 20//20 80//80
f 82//82 17//17 83//83
f 85//85 14//14 86//86
f 88//88 68//68 89//89
f 91//91 69//69 92//92
f 94//94 70//70 95//95
f 97//97 71//71 98//98
f 100//100 72//72 101//101
f 103//103 29//29 104//104
f 106//106 32//32 107//107
f 109//109 35//35 110//110
f 112//112 38//38 113//113
f 115//115 41//41 116//116
f 88//88 53//53 118//118
f 91//91 54//54 120//120
f 94//94 55//55 122//122
f 97//97 56//56 124//124
f 100//100 57//57 126//126
f 128//128 75//75 129//129
f 130//130 78//78 131//131
f 132//132 81//81 133//133
f 134//134 84//84 135//135
f 136//136 87//87 137//137
f 76//76 90//90 138//138
f 73//73 93//93 139//139
f 85//85 96//96 140//140
f 82//82 99//99 141//141
f 79//79 102//102 142//142
f 143//143 105//105 144//144
f 145//145 108//108 146//146
f 147//147 111//111 148//148
f 149//149 114//114 150//150
f 151//151 117//117 152//152
f 103//103 119//119 153//153
f 106//106 121//121 154//154
f 109//109 123//123 155//155
f 112//112 125//125 156//156
f 115//115 127//127 157//157
f 129//129 3//3 2//2
f 131//131 4//4 3//3
f 133//133 5//5 4//4
f 135//135 6//6 5//5
f 137//137 2//2 6//6
f 138//138 9//9 8//8
f 139//139 12//12 11//11
f 140//140 15//15 14//14
f 141//141 18//18 17//17
f 142//142 21//21 20//20
f 144//144 24//24 23//23
f 146//146 25//25 24//24
f 148//148 26//26 25//25
f 150//150 27//27 26//26
f 152//152 23//23 27//27
f 153//153 30//30 29//29
f 154//154 33//33 32//32
f 155//155 36//36 35//35
f 156//156 39//39 38//38
f 157//157 42//42 41//41
f 75//75 44//44 43//43
f 78//78 46//46 45//45
f 81//81 48//48 47//47
f 84//84 50//50 49//49
f 87//87 52//52 51//51
f 90//90 45//45 53//53
f 93//93 43//43 54//54
f 96//96 51//51 55//55
f 99//99 49//49 56//56
f 102//102 47//47 57//57
f 105//105 59//59 58//58
f 108//108 61//61 60//60
f 111//111 63//63 62//62
f 114//114 65//65 64//64
f 117//117 67//67 66//66
f 119//119 58//58 68//68
f 121//121 60//60 69//69
f 123//123 62//62 70//70
f 125//125 64//64 71//71
f 127//127 66//66 72//72
f 74//74 11//11 46//46
f 77//77 8//8 48//48
f 80//80 20//20 50//50
f 83//83 17//17 52//52
f 86//86 14//14 44//44
f 89//89 68//68 42//42
f 92//92 69//69 30//30
f 95//95 70//70 33//33
f 98//98 71//71 36//36
f 101//101 72//72 39//39
f 104//104 29//29 61//61
f 107//107 32//32 63//63
f 110//110 35//35 65//65
f 113//113 38//38 67//67
f 116//116 41//41 59//59
f 118//118 53//53 12//12
f 120//120 54//54 15//15
f 122//122 55//55 18//18
f 124//124 56//56 21//21
f 126//126 57//57 9//9
f 129//129 75//75 74//74
f 131//131 78//78 77//77
f 133//133 81//81 80//80
f 135//135 84//84 83//83
f 137//137 87//87 86//86
f 138//138 90//90 89//89
f 139//139 93//93 92//92
f 140//140 96//96 95//95
f 141//141 99//99 98//98
f 142//142 102//102 101//101
f 144//144 105//105 104//104
f 146//146 108//108 107//107
f 148//148 111//111 110//110
f 150//150 114//114 113//113
f 152//152 117//117 116//116
f 153//153 119//119 118//118
f 154//154 121//121 120//120
f 155//155 123//123 122//122
f 156//156 125//125 124//124
f 157//157 127//127 126//126
