# Created by Open3D 
# object name: part_046
# number of vertices: 162
# number of triangles: 320
v -0.516827 4.98063 0.715163
vn 0.311164 0.261042 -0.913802
v -0.501666 4.96704 0.717663
vn 0.602828 0.436421 -0.667933
v -0.505148 4.96315 0.71496
vn 0.239462 0.0674165 -0.968562
v -0.521953 4.97617 0.71375
vn -0.0248575 -0.0129932 -0.999607
v -0.527272 4.99022 0.715158
vn 0.0779685 0.264049 -0.961353
v -0.522749 4.99283 0.717852
vn 0.539917 0.517253 -0.664032
v -0.680157 4.84703 0.728002
vn -0.40099 -0.321482 -0.857821
v -0.665373 4.83209 0.727555
vn -0.203157 -0.294633 -0.933766
v -0.66959 4.82968 0.730864
vn -0.605716 -0.552135 -0.572936
v -0.583507 4.89616 0.728359
vn 0.629359 -0.774964 -0.0577732
v -0.507244 4.95849 0.725039
vn 0.633414 -0.77297 -0.0361021
v -0.582903 4.89628 0.73723
vn 0.632691 -0.774352 -0.00902174
v -0.491298 4.97175 0.861705
vn 0.895498 -0.444035 -0.0302561
v -0.49099 4.97354 0.861629
vn 0.842461 0.535295 -0.0609793
v -0.484784 4.97658 0.992249
vn 0.974886 -0.220115 -0.0338572
v -0.515036 5.00079 0.861918
vn -0.257121 0.966174 -0.0199263
v -0.523308 4.99562 0.737634
vn -0.480602 0.87691 -0.00706829
v -0.510691 5.00411 0.986465
vn -0.480441 0.877018 -0.00404225
v -0.591546 4.94043 0.727256
vn -0.634644 0.771409 -0.046427
v -0.680913 4.86688 0.730341
vn -0.635593 0.762741 -0.119362
v -0.684409 4.86449 0.737229
vn -0.636064 0.771255 -0.0242582
v -0.665251 4.85706 1.02197
vn -0.311159 -0.261038 0.913805
v -0.654968 4.83952 1.01924
vn -0.542819 -0.509814 0.667411
v -0.650446 4.84214 1.02194
vn -0.106759 -0.229774 0.967371
v -0.659848 4.86118 1.02338
vn 0.0248573 0.012993 0.999607
v -0.67257 4.8692 1.02214
vn -0.267363 -0.0323443 0.963053
v -0.676052 4.86532 1.01943
vn -0.609542 -0.432055 0.66467
v -0.569302 4.90572 1.00851
vn 0.634643 -0.77141 0.0464217
v -0.64553 4.84335 1.01183
vn 0.631727 -0.774796 0.0247406
v -0.569598 4.90523 0.999641
vn 0.63303 -0.774123 -0.00232694
v -0.501921 4.99066 1.00913
vn 0.400991 0.321484 0.85782
v -0.490222 4.9732 1.00934
vn 0.335861 0.132282 0.932577
v -0.487044 4.97688 1.00604
vn 0.665711 0.478738 0.572397
v -0.577341 4.94999 1.00741
vn -0.629358 0.774964 0.0577788
v -0.52124 4.99537 1.00697
vn -0.619657 0.773619 0.132437
v -0.518253 4.99838 1.00009
vn -0.628011 0.777375 0.0359119
v -0.68642 4.8606 0.875391
vn -0.895498 0.444036 0.0302561
v -0.678816 4.86659 0.999681
vn -0.763654 0.645369 0.018221
v -0.691433 4.8581 0.75085
vn -0.763815 0.645257 0.0151957
v -0.662682 4.83156 0.875178
vn 0.257121 -0.966174 0.0199263
v -0.664494 4.83162 0.875268
vn -0.691757 -0.719664 0.0596282
v -0.669647 4.82729 0.744639
vn 0.0220163 -0.999447 0.0249191
v -0.498902 4.96577 0.737415
vn 0.763652 -0.64537 -0.0182208
v -0.498023 4.96767 0.731148
vn 0.974071 -0.220667 -0.0499248
v -0.656478 4.83699 0.730122
vn 0.619927 -0.773572 -0.131446
v -0.51141 4.95565 0.718718
vn 0.622912 -0.771127 -0.131693
v -0.687496 4.85916 0.727754
vn -0.363182 -0.0968211 -0.926674
v -0.674938 4.85103 0.725776
vn -0.0763066 -0.055077 -0.995562
v -0.532188 4.989 0.725263
vn -0.631101 0.775297 -0.0250287
v -0.535845 4.98554 0.718937
vn -0.632528 0.764955 -0.121459
v -0.513224 5.00074 0.861828
vn 0.653872 0.75431 -0.0588893
v -0.521309 4.99616 0.731356
vn -0.0228197 0.998899 -0.0409856
v -0.659465 4.83398 0.737005
vn 0.628661 -0.776858 -0.0357246
v -0.486285 4.97425 0.986246
vn 0.763814 -0.645258 -0.0151956
v -0.508071 5.00507 0.992457
vn -0.0220163 0.999447 -0.0249191
v -0.591042 4.9411 0.736113
vn -0.63303 0.774123 0.00232627
v -0.690674 4.85548 0.731053
vn -0.672084 -0.474141 -0.568765
v -0.65441 4.83673 0.999463
vn 0.480603 -0.87691 0.00706825
v -0.656408 4.8362 1.00574
vn 0.0228169 -0.998899 0.0409859
v -0.496805 4.96548 1.00676
vn 0.635685 -0.762533 0.120199
v -0.641873 4.84681 1.01816
vn 0.632696 -0.764975 0.120452
v -0.512345 5.00026 1.00954
vn 0.173798 0.328515 0.928371
v -0.506863 4.98632 1.01136
vn 0.0763056 0.0550762 0.995562
v -0.670474 4.87387 1.01206
vn -0.633013 0.773307 0.0359223
v -0.666308 4.87671 1.01838
vn -0.622905 0.771276 0.130853
v -0.686728 4.85882 0.875468
vn -0.868871 -0.491289 0.060817
v -0.679695 4.86468 1.00595
vn -0.974071 0.220665 0.049925
v -0.667027 4.82824 0.750632
vn 0.480441 -0.877018 0.00404225
v -0.493309 4.96787 0.999867
vn 0.63648 -0.770908 0.02437
v -0.508127 5.00267 1.00623
vn 0.602456 0.559326 0.569387
v -0.577736 4.95005 0.998524
vn -0.632691 0.774352 0.00902187
v -0.692934 4.85578 0.744848
vn -0.974885 0.220119 0.0338572
v -0.501945 4.96295 0.729221
vn 0.679363 -0.733655 -0.0146692
v -0.503895 4.96183 0.720503
vn 0.680235 -0.72466 -0.110218
v -0.499915 4.96544 0.724704
vn 0.786877 -0.610272 -0.0916147
v -0.661904 4.8334 0.728281
vn 0.55891 -0.747239 -0.359517
v -0.657938 4.83816 0.725523
vn 0.0139865 -0.123115 -0.992294
v -0.584443 4.89664 0.721457
vn 0.571073 -0.733565 -0.368453
v -0.685523 4.86229 0.728493
vn -0.621326 0.700907 -0.350262
v -0.592104 4.93883 0.720406
vn -0.60789 0.708766 -0.357939
v -0.680086 4.86526 0.725722
vn -0.162285 0.0930653 -0.982345
v -0.526728 4.99327 0.729443
vn -0.583929 0.811798 -0.00334279
v -0.52392 4.99481 0.724919
vn -0.442144 0.893314 -0.0806156
v -0.528281 4.99166 0.720722
vn -0.575587 0.811729 -0.0989737
v -0.504095 4.99026 0.861723
vn 0.772608 0.631971 -0.0607358
v -0.498279 4.96969 0.730943
vn 0.788866 0.610085 -0.0740666
v -0.519387 4.99551 0.731132
vn 0.75163 0.655458 -0.0736692
v -0.664459 4.83002 0.741996
vn 0.583381 -0.812167 -0.00712539
v -0.667705 4.82819 0.737894
vn 0.43479 -0.898258 -0.0639457
v -0.663801 4.83103 0.733074
vn 0.565455 -0.818548 -0.101191
v -0.488475 4.97202 0.994878
vn 0.679877 -0.733315 -0.00419999
v -0.493752 4.96735 0.987003
vn 0.6353 -0.772248 -0.00517025
v -0.494739 4.96774 0.862017
vn 0.678513 -0.734529 -0.00934331
v -0.507784 5.00445 1.00133
vn 0.576347 0.794196 0.192552
v -0.498352 4.99385 1.00191
vn 0.760798 0.620481 0.190234
v -0.506133 5.00443 0.99253
vn 0.752963 0.656356 -0.0473758
v -0.584372 4.94569 0.867314
vn -0.632864 0.774242 0.00567296
v -0.51894 4.99816 0.987228
vn -0.629781 0.776748 0.00612789
v -0.531571 4.98966 0.738114
vn -0.629852 0.776701 0.00474055
v -0.692444 4.85545 0.735973
vn -0.894353 -0.405154 -0.189691
v -0.69171 4.85756 0.738109
vn -0.794207 0.605337 -0.0529354
v -0.690358 4.85793 0.731242
vn -0.816126 0.513222 -0.265595
v -0.650989 4.83908 1.00765
vn 0.58393 -0.811797 0.00334259
v -0.649437 4.84069 1.01637
vn 0.575587 -0.811729 0.0989722
v -0.653798 4.83755 1.01218
vn 0.442143 -0.893314 0.0806154
v -0.492195 4.97006 1.0086
vn 0.623656 -0.699506 0.348918
v -0.497632 4.9671 1.01137
vn 0.124992 -0.0469114 0.991048
v -0.569537 4.90667 1.01543
vn 0.60789 -0.708766 0.35794
v -0.515814 4.99896 1.00882
vn -0.556305 0.750099 0.357598
v -0.577198 4.94886 1.01438
vn -0.571074 0.733566 0.36845
v -0.51978 4.9942 1.01157
vn -0.0392624 0.153962 0.987296
v -0.675773 4.8694 1.00788
vn -0.679364 0.733655 0.0146695
v -0.677802 4.86692 1.01239
vn -0.786877 0.610271 0.0916161
v -0.673823 4.87053 1.01659
vn -0.680236 0.724659 0.11022
v -0.678273 4.84779 0.875415
vn -0.772608 -0.631971 0.0607359
v -0.658331 4.83685 1.00596
vn -0.754299 -0.652375 0.073756
v -0.679439 4.86267 1.00615
vn -0.791354 -0.60686 0.0740242
v -0.658778 4.83419 0.749868
vn 0.630422 -0.776228 -0.0061762
v -0.658071 4.83414 0.874857
vn 0.584899 -0.811104 -0.00198344
v -0.486008 4.9748 0.998987
vn 0.794208 -0.605336 0.0529358
v -0.48953 4.97149 1.0038
vn 0.690387 -0.717829 0.0899313
v -0.510013 5.00416 0.999202
vn -0.434791 0.898258 0.063945
v -0.510601 5.00285 1.00606
vn -0.338648 0.899535 0.275962
v -0.683966 4.86501 0.750094
vn -0.634884 0.772591 0.005139
v -0.671335 4.87351 0.999208
vn -0.634814 0.772637 0.00651937
v -0.683941 4.8441 0.735225
vn -0.760799 -0.620481 -0.190232
v -0.692693 4.85375 0.744756
vn -0.792687 -0.607757 0.0477328
v -0.499408 4.9674 0.722366
vn 0.835893 0.45384 -0.308726
v -0.501953 4.9646 0.71805
vn 0.78688 -0.532898 -0.31119
v -0.507026 4.96008 0.716106
vn 0.587632 -0.723765 -0.361736
v -0.512704 4.95696 0.714107
vn 0.0243886 -0.114607 -0.993112
v -0.598758 4.91393 0.719187
vn -0.0506099 -0.0340537 -0.998138
v -0.534853 4.98405 0.714305
vn -0.139342 0.0866257 -0.986448
v -0.530645 4.98898 0.716318
vn -0.592157 0.725952 -0.349778
v -0.525194 4.99303 0.718258
vn -0.367913 0.879849 -0.300843
v -0.521918 4.99493 0.722568
vn 0.551198 0.777279 -0.303346
v -0.512557 4.98429 0.721753
vn 0.735542 0.603486 -0.307867
v -0.667117 4.8295 0.731033
vn 0.338651 -0.899534 -0.275961
v -0.506383 4.95885 0.737888
vn 0.63523 -0.772295 -0.00655364
v -0.485025 4.97861 0.992341
vn 0.790205 0.610986 -0.0476588
v -0.519647 4.99822 0.86224
vn -0.584898 0.811105 0.00198338
v -0.688188 4.86086 0.733292
vn -0.690385 0.717831 -0.0899302
v -0.6558 4.83742 1.01453
vn -0.608841 -0.731604 0.306705
v -0.652524 4.83932 1.01884
vn 0.367913 -0.879849 0.300843
v -0.647073 4.84338 1.02078
vn 0.594935 -0.722977 0.351222
v -0.642865 4.8483 1.02279
vn 0.114592 -0.0554203 0.991866
v -0.58361 4.92412 1.01795
vn 0.0506096 0.0340535 0.998138
v -0.665013 4.8754 1.02299
vn -0.0625284 0.160191 0.985104
v -0.670692 4.87227 1.02099
vn -0.585183 0.725245 0.36274
v -0.675765 4.86775 1.01905
vn -0.78688 0.532899 0.311188
v -0.678309 4.86496 1.01473
vn -0.869211 -0.388233 0.306183
v -0.669736 4.85366 1.01538
vn -0.735542 -0.603486 0.307867
v -0.646147 4.84269 0.998982
vn 0.630492 -0.776181 -0.00479262
v -0.48736 4.97442 1.00585
vn 0.816125 -0.513224 0.265594
v -0.513916 5.00133 1.00402
vn -0.565457 0.818547 0.101189
v -0.682979 4.86461 0.87508
vn -0.678515 0.734527 0.00934348
v -0.671585 4.82793 0.744567
vn -0.755638 -0.653276 0.0473495
v -0.669934 4.82791 0.735771
vn -0.634192 -0.748657 -0.193167
v -0.576202 4.90069 0.868435
vn 0.632864 -0.774242 -0.00567292
v -0.485274 4.97691 1.00112
vn 0.861239 0.470892 0.191122
v -0.513258 5.00234 0.9951
vn -0.58338 0.812168 0.00712544
v -0.689243 4.86034 0.742218
vn -0.679879 0.733312 0.00419993
f 1//1 2//2 3//3
f 1//1 3//3 4//4
f 1//1 4//4 5//5
f 1//1 5//5 6//6
f 1//1 6//6 2//2
f 7//7 8//8 9//9
f 10//10 11//11 12//12
f 13//13 14//14 15//15
f 16//16 17//17 18//18
f 19//19 20//20 21//21
f 22//22 23//23 24//24
f 22//22 24//24 25//25
f 22//22 25//25 26//26
f 22//22 26//26 27//27
f 22//22 27//27 23//23
f 28//28 29//29 30//30
f 31//31 32//32 33//33
f 34//34 35//35 36//36
f 37//37 38//38 39//39
f 40//40 41//41 42//42
f 13//13 43//43 44//44
f 10//10 45//45 46//46
f 7//7 47//47 48//48
f 19//19 49//49 50//50
f 16//16 51//51 52//52
f 10//10 53//53 45//45
f 13//13 54//54 43//43
f 16//16 55//55 51//51
f 19//19 56//56 49//49
f 7//7 57//57 47//47
f 40//40 58//58 59//59
f 28//28 60//60 61//61
f 31//31 62//62 63//63
f 34//34 64//64 65//65
f 37//37 66//66 67//67
f 40//40 68//68 58//58
f 28//28 69//69 60//60
f 31//31 70//70 62//62
f 34//34 71//71 64//64
f 37//37 72//72 66//66
f 10//10 46//46 11//11
f 7//7 48//48 8//8
f 19//19 50//50 20//20
f 16//16 52//52 17//17
f 13//13 44//44 14//14
f 40//40 42//42 68//68
f 28//28 30//30 69//69
f 31//31 33//33 70//70
f 34//34 36//36 71//71
f 37//37 39//39 72//72
f 28//28 61//61 29//29
f 31//31 63//63 32//32
f 34//34 65//65 35//35
f 37//37 67//67 38//38
f 40//40 59//59 41//41
f 10//10 12//12 53//53
f 13//13 15//15 54//54
f 16//16 18//18 55//55
f 19//19 21//21 56//56
f 7//7 9//9 57//57
f 73//73 74//74 75//75
f 76//76 77//77 78//78
f 79//79 80//80 81//81
f 82//82 83//83 84//84
f 85//85 86//86 87//87
f 88//88 89//89 90//90
f 91//91 92//92 93//93
f 94//94 95//95 96//96
f 97//97 98//98 99//99
f 100//100 101//101 102//102
f 103//103 104//104 105//105
f 106//106 107//107 108//108
f 109//109 110//110 111//111
f 112//112 113//113 114//114
f 115//115 116//116 117//117
f 88//88 118//118 119//119
f 91//91 120//120 121//121
f 94//94 122//122 123//123
f 97//97 124//124 125//125
f 100//100 126//126 127//127
f 128//128 129//129 2//2
f 130//130 131//131 3//3
f 132//132 133//133 4//4
f 134//134 135//135 5//5
f 136//136 137//137 6//6
f 76//76 138//138 8//8
f 73//73 139//139 11//11
f 85//85 140//140 14//14
f 82//82 141//141 17//17
f 79//79 142//142 20//20
f 143//143 144//144 23//23
f 145//145 146//146 24//24
f 147//147 148//148 25//25
f 149//149 150//150 26//26
f 151//151 152//152 27//27
f 103//103 153//153 29//29
f 106//106 154//154 32//32
f 109//109 155//155 35//35
f 112//112 156//156 38//38
f 115//115 157//157 41//41
f 73//73 75//75 43//43
f 76//76 78//78 45//45
f 79//79 81//81 47//47
f 82//82 84//84 49//49
f 85//85 87//87 51//51
f 88//88 90//90 53//53
f 91//91 93//93 54//54
f 94//94 96//96 55//55
f 97//97 99//99 56//56
f 100//100 102//102 57//57
f 103//103 105//105 58//58
f 106//106 108//108 60//60
f 109//109 111//111 62//62
f 112//112 114//114 64//64
f 115//115 117//117 66//66
f 88//88 119//119 68//68
f 91//91 121//121 69//69
f 94//94 123//123 70//70
f 97//97 125//125 71//71
f 100//100 127//127 72//72
f 130//130 74//74 46//46
f 132//132 77//77 48//48
f 134//134 80//80 50//50
f 136//136 83//83 52//52
f 128//128 86//86 44//44
f 158//158 89//89 42//42
f 159//159 92//92 30//30
f 160//160 95//95 33//33
f 161//161 98//98 36//36
f 162//162 101//101 39//39
f 145//145 104//104 61//61
f 147//147 107//107 63//63
f 149//149 110//110 65//65
f 151//151 113//113 67//67
f 143//143 116//116 59//59
f 159//159 118//118 12//12
f 160//160 120//120 15//15
f 161//161 122//122 18//18
f 162//162 124//124 21//21
f 158//158 126//126 9//9
f 130//130 129//129 74//74
f 132//132 131//131 77//77
f 134//134 133//133 80//80
f 136//136 135//135 83//83
f 128//128 137//137 86//86
f 158//158 138//138 89//89
f 159//159 139//139 92//92
f 160//160 140//140 95//95
f 161//161 141//141 98//98
f 162//162 142//142 101//101
f 145//145 144//144 104//104
f 147//147 146//146 107//107
f 149//149 148//148 110//110
f 151//151 150//150 113//113
f 143//143 152//152 116//116
f 159//159 153//153 118//118
f 160//160 154//154 120//120
f 161//161 155//155 122//122
f 162//162 156//156 124//124
f 158//158 157//157 126//126
f 130//130 3//3 129//129
f 132//132 4//4 131//131
f 134//134 5//5 133//133
f 136//136 6//6 135//135
f 128//128 2//2 137//137
f 158//158 9//9 138//138
f 159//159 12//12 139//139
f 160//160 15//15 140//140
f 161//161 18//18 141//141
f 162//162 21//21 142//142
f 145//145 24//24 144//144
f 147//147 25//25 146//146
f 149//149 26//26 148//148
f 151//151 27//27 150//150
f 143//143 23//23 152//152
f 159//159 30//30 153//153
f 160//160 33//33 154//154
f 161//161 36//36 155//155
f 162//162 39//39 156//156
f 158//158 42//42 157//157
f 128//128 44//44 75//75
f 130//130 46//46 78//78
f 132//132 48//48 81//81
f 134//134 50//50 84//84
f 136//136 52//52 87//87
f 76//76 45//45 90//90
f 73//73 43//43 93//93
f 85//85 51//51 96//96
f 82//82 49//49 99//99
f 79//79 47//47 102//102
f 143//143 59//59 105//105
f 145//145 61//61 108//108
f 147//147 63//63 111//111
f 149//149 65//65 114//114
f 151//151 67//67 117//117
f 103//103 58//58 119//119
f 106//106 60//60 121//121
f 109//109 62//62 123//123
f 112//112 64//64 125//125
f 115//115 66//66 127//127
f 73//73 11//11 74//74
f 76//76 8//8 77//77
f 79//79 20//20 80//80
f 82//82 17//17 83//83
f 85//85 14//14 86//86
f 88//88 68//68 89//89
f 91//91 69//69 92//92
f 94//94 70//70 95//95
f 97//97 71//71 98//98
f 100//100 72//72 101//101
f 103//103 29//29 104//104
f 106//106 32//32 107//107
f 109//109 35//35 110//110
f 112//112 38//38 113//113
f 115//115 41//41 116//116
f 88//88 53//53 118//118
f 91//91 54//54 120//120
f 94//94 55//55 122//122
f 97//97 56//56 124//124
f 100//100 57//57 126//126
f 128//128 75//75 129//129
f 130//130 78//78 131//131
f 132//132 81//81 133//133
f 134//134 84//84 135//135
f 136//136 87//87 137//137
f 76//76 90//90 138//138
f 73//73 93//93 139//139
f 85//85 96//96 140//140
f 82//82 99//99 141//141
f 79//79 102//102 142//142
f 143//143 105//105 144//144
f 145//145 108//108 146//146
f 147//147 111//111 148//148
f 149//149 114//114 150//150
f 151//151 117//117 152//152
f 103//103 119//119 153//153
f 106//106 121//121 154//154
f 109//109 123//123 155//155
f 112//112 125//125 156//156
f 115//115 127//127 157//157
f 129//129 3//3 2//2
f 131//131 4//4 3//3
f 133//133 5//5 4//4
f 135//135 6//6 5//5
f 137//137 2//2 6//6
f 138//138 9//9 8//8
f 139//139 12//12 11//11
f 140//140 15//15 14//14
f 141//141 18//18 17//17
f 142//142 21//21 20//20
f 144//144 24//24 23//23
f 146//146 25//25 24//24
f 148//148 26//26 25//25
f 150//150 27//27 26//26
f 152//152 23//23 27//27
f 153//153 30//30 29//29
f 154//154 33//33 32//32
f 155//155 36//36 35//35
f 156//156 39//39 38//38
f 157//157 42//42 41//41
f 75//75 44//44 43//43
f 78//78 46//46 45//45
f 81//81 48//48 47//47
f 84//84 50//50 49//49
f 87//87 52//52 51//51
f 90//90 45//45 53//53
f 93//93 43//43 54//54
f 96//96 51//51 55//55
f 99//99 49//49 56//56
f 102//102 47//47 57//57
f 105//105 59//59 58//58
f 108//108 61//61 60//60
f 111//111 63//63 62//62
f 114//114 65//65 64//64
f 117//117 67//67 66//66
f 119//119 58//58 68//68
f 121//121 60//60 69//69
f 123//123 62//62 70//70
f 125//125 64//64 71//71
f 127//127 66//66 72//72
f 74//74 11//11 46//46
f 77//77 8//8 48//48
f 80//80 20//20 50//50
f 83//83 17//17 52//52
f 86//86 14//14 44//44
f 89//89 68//68 42//42
f 92//92 69//69 30//30
f 95//95 70//70 33//33
f 98//98 71//71 36//36
f 101//101 72//72 39//39
f 104//104 29//29 61//61
f 107//107 32//32 63//63
f 110//110 35//35 65//65
f 113//113 38//38 67//67
f 116//116 41//41 59//59
f 118//118 53//53 12//12
f 120//120 54//54 15//15
f 122//122 55//55 18//18
f 124//124 56//56 21//21
f 126//126 57//57 9//9
f 129//129 75//75 74//74
f 131//131 78//78 77//77
f 133//133 81//81 80//80
f 135//135 84//84 83//83
f 137//137 87//87 86//86
f 138//138 90//90 89//89
f 139//139 93//93 92//92
f 140//140 96//96 95//95
f 141//141 99//99 98//98
f 142//142 102//102 101//101
f 144//144 105//105 104//104
f 146//146 108//108 107//107
f 148//148 111//111 110//110
f 150//150 114//114 113//113
f 152//152 117//117 116//116
f 153//153 119//119 118//118
f 154//154 121//121 120//120
f 155//155 123//123 122//122
f 156//156 125//125 124//124
f 157//157 127//127 126//126
