# Created by Open3D 
# object name: part_032
# number of vertices: 162
# number of triangles: 320
v -1.62119 1.77378 0.390789
vn 0.312024 0.173367 -0.934122
v -1.61112 1.75626 0.391559
vn 0.645103 0.292295 -0.705979
v -1.61338 1.75435 0.39023
vn 0.167815 0.0439625 -0.984838
v -1.62444 1.77205 0.390249
vn -0.0993579 -0.0153146 -0.994934
v -1.62807 1.78606 0.391209
vn 0.108763 0.172546 -0.978978
v -1.62512 1.78648 0.392491
vn 0.624346 0.343725 -0.70146
v -1.72245 1.72642 0.405556
vn -0.541728 -0.225946 -0.809617
v -1.71271 1.70789 0.404716
vn -0.36766 -0.206489 -0.906746
v -1.71522 1.70757 0.406741
vn -0.781915 -0.375142 -0.497873
v -1.6616 1.72924 0.401331
vn 0.406055 -0.905829 -0.120804
v -1.61421 1.75133 0.395916
vn 0.41757 -0.904869 -0.0827517
v -1.66086 1.72917 0.406212
vn 0.419351 -0.907188 -0.0339858
v -1.5987 1.75725 0.470786
vn 0.90184 -0.418822 -0.106171
v -1.59854 1.75864 0.470724
vn 0.923001 0.361272 -0.132481
v -1.5893 1.75978 0.542714
vn 0.979956 -0.163587 -0.113689
v -1.61446 1.79128 0.471837
vn 0.261702 0.963057 -0.0635131
v -1.62472 1.78922 0.403451
vn -0.100719 0.994726 -0.0193728
v -1.60666 1.79335 0.540547
vn -0.100029 0.994884 -0.014175
v -1.66768 1.76983 0.400907
vn -0.430538 0.900225 -0.0650585
v -1.72324 1.7435 0.406809
vn -0.44159 0.876379 -0.192244
v -1.72514 1.74294 0.410782
vn -0.430884 0.902056 -0.0251971
v -1.70111 1.7313 0.567522
vn -0.312024 -0.173368 0.934123
v -1.69429 1.71236 0.565627
vn -0.623514 -0.338884 0.704547
v -1.69134 1.71278 0.566909
vn -0.118911 -0.149552 0.981577
v -1.69768 1.73264 0.56805
vn 0.0993579 0.0153133 0.994934
v -1.70603 1.74449 0.567888
vn -0.178843 -0.0212557 0.983648
v -1.70829 1.74258 0.566559
vn -0.649394 -0.289643 0.703132
v -1.64127 1.7339 0.555685
vn 0.430538 -0.900224 0.0650583
v -1.68864 1.71176 0.561098
vn 0.421463 -0.906448 0.0268451
v -1.64181 1.73353 0.55079
vn 0.420929 -0.906827 -0.0220075
v -1.59986 1.77866 0.552755
vn 0.541728 0.225946 0.809617
v -1.59201 1.75924 0.552423
vn 0.416572 0.100903 0.903486
v -1.59019 1.76105 0.550444
vn 0.803498 0.328552 0.496432
v -1.64735 1.77449 0.555262
vn -0.406054 0.905829 0.120804
v -1.6124 1.79035 0.55239
vn -0.376482 0.892096 0.249852
v -1.61083 1.79164 0.548439
vn -0.405781 0.910333 0.08146
v -1.72071 1.74158 0.487331
vn -0.90184 0.418822 0.106171
v -1.71089 1.7446 0.555747
vn -0.69255 0.717744 0.0722349
v -1.72895 1.74046 0.418651
vn -0.69324 0.717582 0.0670373
v -1.70495 1.70756 0.486281
vn -0.261755 -0.963042 0.0635194
v -1.70611 1.70833 0.48641
vn -0.869372 -0.477049 0.128906
v -1.71465 1.70568 0.414374
vn -0.506659 -0.858224 0.0821515
v -1.60852 1.75424 0.402371
vn 0.69255 -0.717744 -0.0722353
v -1.60825 1.75544 0.398858
vn 0.97725 -0.164192 -0.134251
v -1.70701 1.70848 0.405728
vn 0.377164 -0.892264 -0.248218
v -1.61708 1.75055 0.392612
vn 0.383559 -0.889272 -0.249153
v -1.7274 1.7396 0.405695
vn -0.427086 -0.0780786 -0.900833
v -1.71928 1.72769 0.40408
vn -0.161573 -0.0444121 -0.985861
v -1.63077 1.78708 0.39702
vn -0.420129 0.907049 -0.0274622
v -1.6333 1.78557 0.393693
vn -0.435256 0.878641 -0.196319
v -1.6133 1.79051 0.471707
vn 0.855789 0.501279 -0.127848
v -1.62371 1.78882 0.399888
vn 0.5039 0.857634 -0.102706
v -1.70858 1.70719 0.409679
vn 0.407224 -0.909708 -0.0812416
v -1.59046 1.75837 0.539467
vn 0.69324 -0.717582 -0.0670373
v -1.60476 1.79316 0.543744
vn 0.506639 0.858235 -0.0821495
v -1.66701 1.77026 0.405784
vn -0.420929 0.906827 0.0220084
v -1.72922 1.73778 0.407673
vn -0.80693 -0.325704 -0.492728
v -1.69469 1.70962 0.554667
vn 0.100706 -0.994728 0.0193742
v -1.6957 1.71002 0.55823
vn -0.503938 -0.857611 0.102711
v -1.59617 1.75533 0.551309
vn 0.441887 -0.875925 0.193625
v -1.68611 1.71327 0.564425
vn 0.435493 -0.878915 0.194564
v -1.6067 1.79095 0.553402
vn 0.357005 0.229368 0.905504
v -1.60284 1.777 0.554218
vn 0.161573 0.0444123 0.985861
v -1.7052 1.74751 0.562202
vn -0.416718 0.905299 0.082344
v -1.70233 1.74829 0.565506
vn -0.383636 0.889646 0.247697
v -1.72087 1.7402 0.487394
vn -0.932706 -0.335229 0.132974
v -1.71116 1.74339 0.55926
vn -0.97725 0.164192 0.134251
v -1.71275 1.70549 0.417571
vn 0.100029 -0.994884 0.0141746
v -1.59427 1.7559 0.547336
vn 0.431807 -0.90161 0.0253349
v -1.60419 1.79127 0.551377
vn 0.781877 0.379782 0.494402
v -1.64797 1.77462 0.550362
vn -0.419352 0.907187 0.0339836
v -1.73011 1.73905 0.415404
vn -0.979956 0.163587 0.113689
v -1.61074 1.75301 0.397981
vn 0.520127 -0.852486 -0.0523016
v -1.61232 1.75277 0.393247
vn 0.509145 -0.831806 -0.221064
v -1.60968 1.75426 0.395383
vn 0.724673 -0.659803 -0.198769
v -1.71049 1.70761 0.404961
vn 0.244747 -0.777185 -0.579726
v -1.70816 1.71002 0.403243
vn -0.110903 -0.088277 -0.989903
v -1.66249 1.72997 0.397551
vn 0.268421 -0.758892 -0.593324
v -1.72617 1.74146 0.406005
vn -0.443347 0.718643 -0.53572
v -1.66829 1.76865 0.397148
vn -0.418705 0.724487 -0.547544
v -1.72286 1.74176 0.404223
vn -0.176311 0.0532212 -0.982895
v -1.6272 1.78853 0.399077
vn -0.314456 0.949266 0.00331357
v -1.62562 1.78867 0.396445
vn -0.0387562 0.988246 -0.147877
v -1.62851 1.78772 0.394326
vn -0.309793 0.936115 -0.166483
v -1.60726 1.778 0.471288
vn 0.898017 0.420017 -0.13096
v -1.60846 1.75725 0.398748
vn 0.90231 0.406344 -0.143947
v -1.62248 1.7875 0.399682
vn 0.889132 0.434732 -0.143012
v -1.71149 1.70589 0.412674
vn 0.312013 -0.949824 -0.0219497
v -1.7137 1.70561 0.410553
vn 0.00685028 -0.995541 -0.0940832
v -1.71146 1.70641 0.407704
vn 0.263456 -0.946722 -0.185226
v -1.59146 1.75743 0.544347
vn 0.522587 -0.851921 -0.033665
v -1.59506 1.75553 0.540239
vn 0.425542 -0.90452 -0.027523
v -1.60081 1.75525 0.471124
vn 0.518993 -0.853715 -0.0426255
v -1.6042 1.79259 0.54864
vn 0.836082 0.535121 0.120881
v -1.59793 1.77987 0.548591
vn 0.903066 0.414884 0.111099
v -1.6035 1.79184 0.543701
vn 0.892438 0.435489 -0.117914
v -1.65748 1.77253 0.478069
vn -0.420148 0.907024 0.0279974
v -1.61179 1.79163 0.541353
vn -0.413343 0.910137 0.0282701
v -1.62987 1.78749 0.404101
vn -0.413669 0.910062 0.0257885
v -1.73015 1.73851 0.410474
vn -0.951601 -0.285731 -0.113199
v -1.72964 1.74001 0.411615
vn -0.756561 0.652493 -0.0432161
v -1.72906 1.73974 0.407755
vn -0.794388 0.493306 -0.354396
v -1.69221 1.7103 0.559041
vn 0.31447 -0.949262 -0.00331587
v -1.6909 1.71111 0.563792
vn 0.309785 -0.936115 0.166503
v -1.69379 1.71017 0.561672
vn 0.0387201 -0.988244 0.147898
v -1.59324 1.75738 0.552112
vn 0.447643 -0.717555 0.533601
v -1.59655 1.75707 0.553895
vn 0.16232 -0.0227204 0.986477
v -1.64116 1.73485 0.559516
vn 0.418705 -0.724487 0.547544
v -1.60892 1.79123 0.553157
vn -0.239665 0.780973 0.576751
v -1.64695 1.77353 0.559113
vn -0.268414 0.758882 0.59334
v -1.61125 1.78882 0.554875
vn 0.101509 0.108776 0.98887
v -1.70867 1.74582 0.560137
vn -0.520115 0.852494 0.0522967
v -1.70973 1.74457 0.562734
vn -0.724684 0.65979 0.198772
v -1.70709 1.74606 0.564871
vn -0.509151 0.831803 0.221063
v -1.71524 1.7275 0.487036
vn -0.898017 -0.420018 0.13096
v -1.69693 1.71134 0.558436
vn -0.890068 -0.432773 0.143131
v -1.71095 1.74159 0.55937
vn -0.903201 -0.404359 0.143949
v -1.70762 1.7072 0.416765
vn 0.414738 -0.909495 -0.0284703
v -1.70207 1.70789 0.485891
vn 0.315917 -0.948698 -0.0130102
v -1.58977 1.75882 0.546502
vn 0.756561 -0.652493 0.0432161
v -1.59176 1.75748 0.549335
vn 0.555477 -0.821201 0.130667
v -1.60571 1.79322 0.547564
vn -0.00686521 0.995541 0.0940812
v -1.60578 1.79241 0.551391
vn 0.146273 0.905831 0.397586
v -1.72435 1.7433 0.417879
vn -0.424634 0.904951 0.027394
v -1.70626 1.74744 0.555131
vn -0.424309 0.905025 0.0298625
v -1.72452 1.72552 0.409729
vn -0.903066 -0.414884 -0.111099
v -1.72992 1.73725 0.41535
vn -0.906507 -0.405118 0.118851
v -1.60949 1.7557 0.39406
vn 0.87539 0.309964 -0.370965
v -1.61124 1.75432 0.391794
vn 0.679464 -0.519621 -0.517999
v -1.61447 1.75252 0.390958
vn 0.299931 -0.751383 -0.587763
v -1.61812 1.75213 0.390112
vn -0.0982722 -0.0823682 -0.991745
v -1.67209 1.75027 0.396859
vn -0.130543 -0.0298811 -0.990992
v -1.63283 1.78388 0.391092
vn -0.158655 0.0492229 -0.986106
v -1.63015 1.78637 0.392003
vn -0.38682 0.747299 -0.540291
v -1.62667 1.78763 0.392822
vn 0.0313551 0.879525 -0.474819
v -1.62443 1.78796 0.395056
vn 0.772126 0.520485 -0.364578
v -1.61827 1.77522 0.394234
vn 0.840302 0.400515 -0.365349
v -1.71363 1.70643 0.406727
vn -0.146283 -0.905831 -0.397582
v -1.61315 1.75139 0.402987
vn 0.425216 -0.904595 -0.0299987
v -1.58949 1.76159 0.542768
vn 0.90563 0.407105 -0.118741
v -1.61734 1.79095 0.472226
vn -0.315908 0.948701 0.0130084
v -1.72765 1.74136 0.408783
vn -0.555477 0.821201 -0.130667
v -1.69498 1.71088 0.563062
vn -0.793852 -0.48599 0.36553
v -1.69274 1.71121 0.565296
vn -0.0313574 -0.879523 0.474822
v -1.68926 1.71247 0.566115
vn 0.392466 -0.74338 0.541624
v -1.68658 1.71496 0.567026
vn 0.149688 -0.0286282 0.988319
v -1.65041 1.75523 0.561465
vn 0.130544 0.0298807 0.990992
v -1.70129 1.7467 0.568005
vn 0.0835922 0.112713 0.990105
v -1.70494 1.74632 0.56716
vn -0.29523 0.75254 0.588662
v -1.70817 1.74452 0.566324
vn -0.679468 0.519604 0.51801
v -1.70992 1.74314 0.564057
vn -0.887651 -0.271091 0.372271
v -1.70418 1.73018 0.564086
vn -0.840303 -0.400517 0.365346
v -1.68954 1.71134 0.554017
vn 0.415064 -0.909421 -0.0259952
v -1.59035 1.7591 0.550363
vn 0.794388 -0.493306 0.354396
v -1.60795 1.79243 0.550413
vn -0.263456 0.946722 0.185226
v -1.7186 1.74359 0.486993
vn -0.518985 0.85372 0.0426246
v -1.71591 1.70699 0.414417
vn -0.893388 -0.433533 0.117925
v -1.71521 1.70625 0.409478
vn -0.857583 -0.500574 -0.118226
v -1.6513 1.73128 0.478499
vn 0.420148 -0.907024 -0.0279971
v -1.58926 1.76033 0.547644
vn 0.939117 0.324551 0.112809
v -1.60792 1.79295 0.545444
vn -0.312013 0.949824 0.0219497
v -1.72795 1.74141 0.41377
vn -0.522587 0.851921 0.033665
f 1//1 2//2 3//3
f 1//1 3//3 4//4
f 1//1 4//4 5//5
f 1//1 5//5 6//6
f 1//1 6//6 2//2
f 7//7 8//8 9//9
f 10//10 11//11 12//12
f 13//13 14//14 15//15
f 16//16 17//17 18//18
f 19//19 20//20 21//21
f 22//22 23//23 24//24
f 22//22 24//24 25//25
f 22//22 25//25 26//26
f 22//22 26//26 27//27
f 22//22 27//27 23//23
f 28//28 29//29 30//30
f 31//31 32//32 33//33
f 34//34 35//35 36//36
f 37//37 38//38 39//39
f 40//40 41//41 42//42
f 13//13 43//43 44//44
f 10//10 45//45 46//46
f 7//7 47//47 48//48
f 19//19 49//49 50//50
f 16//16 51//51 52//52
f 10//10 53//53 45//45
f 13//13 54//54 43//43
f 16//16 55//55 51//51
f 19//19 56//56 49//49
f 7//7 57//57 47//47
f 40//40 58//58 59//59
f 28//28 60//60 61//61
f 31//31 62//62 63//63
f 34//34 64//64 65//65
f 37//37 66//66 67//67
f 40//40 68//68 58//58
f 28//28 69//69 60//60
f 31//31 70//70 62//62
f 34//34 71//71 64//64
f 37//37 72//72 66//66
f 10//10 46//46 11//11
f 7//7 48//48 8//8
f 19//19 50//50 20//20
f 16//16 52//52 17//17
f 13//13 44//44 14//14
f 40//40 42//42 68//68
f 28//28 30//30 69//69
f 31//31 33//33 70//70
f 34//34 36//36 71//71
f 37//37 39//39 72//72
f 28//28 61//61 29//29
f 31//31 63//63 32//32
f 34//34 65//65 35//35
f 37//37 67//67 38//38
f 40//40 59//59 41//41
f 10//10 12//12 53//53
f 13//13 15//15 54//54
f 16//16 18//18 55//55
f 19//19 21//21 56//56
f 7//7 9//9 57//57
f 73//73 74//74 75//75
f 76//76 77//77 78//78
f 79//79 80//80 81//81
f 82//82 83//83 84//84
f 85//85 86//86 87//87
f 88//88 89//89 90//90
f 91//91 92//92 93//93
f 94//94 95//95 96//96
f 97//97 98//98 99//99
f 100//100 101//101 102//102
f 103//103 104//104 105//105
f 106//106 107//107 108//108
f 109//109 110//110 111//111
f 112//112 113//113 114//114
f 115//115 116//116 117//117
f 88//88 118//118 119//119
f 91//91 120//120 121//121
f 94//94 122//122 123//123
f 97//97 124//124 125//125
f 100//100 126//126 127//127
f 128//128 129//129 2//2
f 130//130 131//131 3//3
f 132//132 133//133 4//4
f 134//134 135//135 5//5
f 136//136 137//137 6//6
f 76//76 138//138 8//8
f 73//73 139//139 11//11
f 85//85 140//140 14//14
f 82//82 141//141 17//17
f 79//79 142//142 20//20
f 143//143 144//144 23//23
f 145//145 146//146 24//24
f 147//147 148//148 25//25
f 149//149 150//150 26//26
f 151//151 152//152 27//27
f 103//103 153//153 29//29
f 106//106 154//154 32//32
f 109//109 155//155 35//35
f 112//112 156//156 38//38
f 115//115 157//157 41//41
f 73//73 75//75 43//43
f 76//76 78//78 45//45
f 79//79 81//81 47//47
f 82//82 84//84 49//49
f 85//85 87//87 51//51
f 88//88 90//90 53//53
f 91//91 93//93 54//54
f 94//94 96//96 55//55
f 97//97 99//99 56//56
f 100//100 102//102 57//57
f 103//103 105//105 58//58
f 106//106 108//108 60//60
f 109//109 111//111 62//62
f 112//112 114//114 64//64
f 115//115 117//117 66//66
f 88//88 119//119 68//68
f 91//91 121//121 69//69
f 94//94 123//123 70//70
f 97//97 125//125 71//71
f 100//100 127//127 72//72
f 130//130 74//74 46//46
f 132//132 77//77 48//48
f 134//134 80//80 50//50
f 136//136 83//83 52//52
f 128//128 86//86 44//44
f 158//158 89//89 42//42
f 159//159 92//92 30//30
f 160//160 95//95 33//33
f 161//161 98//98 36//36
f 162//162 101//101 39//39
f 145//145 104//104 61//61
f 147//147 107//107 63//63
f 149//149 110//110 65//65
f 151//151 113//113 67//67
f 143//143 116//116 59//59
f 159//159 118//118 12//12
f 160//160 120//120 15//15
f 161//161 122//122 18//18
f 162//162 124//124 21//21
f 158//158 126//126 9//9
f 130//130 129//129 74//74
f 132//132 131//131 77//77
f 134//134 133//133 80//80
f 136//136 135//135 83//83
f 128//128 137//137 86//86
f 158//158 138//138 89//89
f 159//159 139//139 92//92
f 160//160 140//140 95//95
f 161//161 141//141 98//98
f 162//162 142//142 101//101
f 145//145 144//144 104//104
f 147//147 146//146 107//107
f 149//149 148//148 110//110
f 151//151 150//150 113//113
f 143//143 152//152 116//116
f 159//159 153//153 118//118
f 160//160 154//154 120//120
f 161//161 155//155 122//122
f 162//162 156//156 124//124
f 158//158 157//157 126//126
f 130//130 3//3 129//129
f 132//132 4//4 131//131
f 134//134 5//5 133//133
f 136//136 6//6 135//135
f 128//128 2//2 137//137
f 158//158 9//9 138//138
f 159//159 12//12 139//139
f 160//160 15//15 140//140
f 161//161 18//18 141//141
f 162//162 21//21 142//142
f 145//145 24//24 144//144
f 147//147 25//25 146//146
f 149//149 26//26 148//148
f 151//151 27//27 150//150
f 143//143 23//23 152//152
f 159//159 30//30 153//153
f 160//160 33//33 154//154
f 161//161 36//36 155//155
f 162//162 39//39 156//156
f 158//158 42//42 157//157
f 128//128 44//44 75//75
f 130//130 46//46 78//78
f 132//132 48//48 81//81
f 134//134 50//50 84//84
f 136//136 52//52 87//87
f 76//76 45//45 90//90
f 73//73 43//43 93//93
f 85//85 51//51 96//96
f 82//82 49//49 99//99
f 79//79 47//47 102//102
f 143//143 59//59 105//105
f 145//145 61//61 108//108
f 147//147 63//63 111//111
f 149//149 65//65 114//114
f 151//151 67//67 117//117
f 103//103 58//58 119//119
f 106//106 60//60 121//121
f 109//109 62//62 123//123
f 112//112 64//64 125//125
f 115//115 66//66 127//127
f 73//73 11//11 74//74
f 76//76 8//8 77//77
f 79//79 20//20 80//80
f 82//82 17//17 83//83
f 85//85 14//14 86//86
f 88//88 68//68 89//89
f 91//91 69//69 92//92
f 94//94 70//70 95//95
f 97//97 71//71 98//98
f 100//100 72//72 101//101
f 103//103 29//29 104//104
f 106//106 32//32 107//107
f 109//109 35//35 110//110
f 112//112 38//38 113//113
f 115//115 41//41 116//116
f 88//88 53//53 118//118
f 91//91 54//54 120//120
f 94//94 55//55 122//122
f 97//97 56//56 124//124
f 100//100 57//57 126//126
f 128//128 75//75 129//129
f 130//130 78//78 131//131
f 132//132 81//81 133//133
f 134//134 84//84 135//135
f 136//136 87//87 137//137
f 76//76 90//90 138//138
f 73//73 93//93 139//139
f 85//85 96//96 140//140
f 82//82 99//99 141//141
f 79//79 102//102 142//142
f 143//143 105//105 144//144
f 145//145 108//108 146//146
f 147//147 111//111 148//148
f 149//149 114//114 150//150
f 151//151 117//117 152//152
f 103//103 119//119 153//153
f 106//106 121//121 154//154
f 109//109 123//123 155//155
f 112//112 125//125 156//156
f 115//115 127//127 157//157
f 129//129 3//3 2//2
f 131//131 4//4 3//3
f 133//133 5//5 4//4
f 135//135 6//6 5//5
f 137//137 2//2 6//6
f 138//138 9//9 8//8
f 139//139 12//12 11//11
f 140//140 15//15 14//14
f 141//141 18//18 17//17
f 142//142 21//21 20//20
f 144//144 24//24 23//23
f 146//146 25//25 24//24
f 148//148 26//26 25//25
f 150//150 27//27 26//26
f 152//152 23//23 27//27
f 153//153 30//30 29//29
f 154//154 33//33 32//32
f 155//155 36//36 35//35
f 156//156 39//39 38//38
f 157//157 42//42 41//41
f 75//75 44//44 43//43
f 78//78 46//46 45//45
f 81//81 48//48 47//47
f 84//84 50//50 49//49
f 87//87 52//52 51//51
f 90//90 45//45 53//53
f 93//93 43//43 54//54
f 96//96 51//51 55//55
f 99//99 49//49 56//56
f 102//102 47//47 57//57
f 105//105 59//59 58//58
f 108//108 61//61 60//60
f 111//111 63//63 62//62
f 114//114 65//65 64//64
f 117//117 67//67 66//66
f 119//119 58//58 68//68
f 121//121 60//60 69//69
f 123//123 62//62 70//70
f 125//125 64//64 71//71
f 127//127 66//66 72//72
f 74//74 11//11 46//46
f 77//77 8//8 48//48
f 80//80 20//20 50//50
f 83//83 17//17 52//52
f 86//86 14//14 44//44
f 89//89 68//68 42//42
f 92//92 69//69 30//30
f 95//95 70//70 33//33
f 98//98 71//71 36//36
f 101//101 72//72 39//39
f 104//104 29//29 61//61
f 107//107 32//32 63//63
f 110//110 35//35 65//65
f 113//113 38//38 67//67
f 116//116 41//41 59//59
f 118//118 53//53 12//12
f 120//120 54//54 15//15
f 122//122 55//55 18//18
f 124//124 56//56 21//21
f 126//126 57//57 9//9
f 129//129 75//75 74//74
f 131//131 78//78 77//77
f 133//133 81//81 80//80
f 135//135 84//84 83//83
f 137//137 87//87 86//86
f 138//138 90//90 89//89
f 139//139 93//93 92//92
f 140//140 96//96 95//95
f 141//141 99//99 98//98
f 142//142 102//102 101//101
f 144//144 105//105 104//104
f 146//146 108//108 107//107
f 148//148 111//111 110//110
f 150//150 114//114 113//113
f 152//152 117//117 116//116
f 153//153 119//119 118//118
f 154//154 121//121 120//120
f 155//155 123//123 122//122
f 156//156 125//125 124//124
f 157//157 127//127 126//126
