# Created by Open3D 
# object name: part_047
# number of vertices: 162
# number of triangles: 320
v -2.0072 4.03791 0.825399
vn 0.156252 0.120675 -0.980318
v -1.98976 4.02554 0.827855
vn 0.393527 0.205903 -0.895958
v -1.99922 4.01797 0.825016
vn 0.147232 -0.012237 -0.989026
v -2.02039 4.02845 0.823713
vn 0.00239406 0.0134649 -0.999906
v -2.01923 4.04663 0.825354
vn 0.00260755 0.194286 -0.980942
v -2.00884 4.05285 0.828177
vn 0.315007 0.323025 -0.892427
v -2.42719 3.7446 0.827173
vn -0.172662 -0.109027 -0.978929
v -2.41122 3.73024 0.826756
vn -0.0448263 -0.146359 -0.988215
v -2.42157 3.72398 0.829679
vn -0.333896 -0.3021 -0.892888
v -2.2039 3.87226 0.832674
vn 0.571196 -0.818293 -0.0642753
v -2.00815 4.0089 0.834396
vn 0.572995 -0.818514 -0.0413742
v -2.20369 3.87201 0.841164
vn 0.572475 -0.819816 -0.0131797
v -1.98296 4.0261 0.965828
vn 0.713586 -0.700494 -0.0101414
v -1.98092 4.02898 0.965828
vn 0.947035 0.321073 -0.00602269
v -1.98181 4.02587 1.09079
vn 0.796756 -0.604301 -8.67726e-05
v -2.00443 4.05685 0.966191
vn -0.411854 0.911207 0.00886788
v -2.00992 4.05507 0.847129
vn -0.507954 0.861349 0.00776658
v -2.00793 4.05365 1.0853
vn -0.507915 0.861337 0.0109843
v -2.18306 3.93482 0.832871
vn -0.572111 0.818943 -0.0449703
v -2.41277 3.77399 0.830067
vn -0.569267 0.813124 -0.121511
v -2.42214 3.76785 0.836431
vn -0.573348 0.81902 -0.0218705
v -2.42483 3.74293 1.10855
vn -0.156254 -0.120675 0.980317
v -2.41926 3.72234 1.1057
vn -0.318924 -0.312735 0.894698
v -2.40886 3.72856 1.10853
vn -0.0282803 -0.158107 0.987017
v -2.41139 3.75203 1.11023
vn -0.00239422 -0.0134645 0.999906
v -2.42887 3.75722 1.10886
vn -0.172422 0.0488892 0.983809
v -2.43833 3.74965 1.10602
vn -0.401862 -0.198643 0.893895
v -2.20166 3.87066 1.10083
vn 0.572111 -0.818942 0.0449695
v -2.39737 3.73398 1.0991
vn 0.571445 -0.820344 0.0220362
v -2.20159 3.87051 1.09233
vn 0.572534 -0.819858 -0.00616108
v -2.00485 4.03623 1.10677
vn 0.172661 0.109026 0.978929
v -1.99686 4.01629 1.10679
vn 0.163774 -0.0239801 0.986206
v -1.98745 4.0239 1.10388
vn 0.408495 0.195273 0.891628
v -2.18081 3.93323 1.10102
vn -0.571196 0.818293 0.0642798
v -2.03743 4.03286 1.10419
vn -0.565593 0.812264 0.142588
v -2.02852 4.03965 1.09783
vn -0.570631 0.820152 0.0416025
v -2.44513 3.74909 0.968052
vn -0.7136 0.70048 0.0101413
v -2.44025 3.75174 1.08712
vn -0.633695 0.773498 0.0115156
v -2.44224 3.75315 0.848955
vn -0.633722 0.773517 0.00829751
v -2.42366 3.71833 0.967689
vn 0.411861 -0.911204 -0.0088674
v -2.42706 3.71741 0.967712
vn -0.627557 -0.778571 0.000625985
v -2.42522 3.71915 0.842737
vn 0.292814 -0.955994 -0.0183168
v -1.98785 4.02345 0.846756
vn 0.633688 -0.773503 -0.0115158
v -1.9839 4.02735 0.840873
vn 0.796574 -0.604195 -0.020442
v -2.39066 3.74233 0.829693
vn 0.565742 -0.812343 -0.141546
v -2.01763 4.00284 0.828118
vn 0.567049 -0.81143 -0.141548
v -2.43123 3.7589 0.827094
vn -0.188868 0.0605623 -0.980133
v -2.41378 3.75372 0.825374
vn -0.0191434 -0.00157386 -0.999816
v -2.03072 4.04121 0.834778
vn -0.571165 0.820533 -0.0222855
v -2.03974 4.0345 0.828491
vn -0.56782 0.813845 -0.123439
v -2.00103 4.05778 0.966168
vn 0.53591 0.844275 0.000531557
v -2.00497 4.05752 0.841229
vn -0.292979 0.956117 -0.00203987
v -2.39958 3.73554 0.836049
vn 0.570914 -0.819967 -0.0413557
v -1.98585 4.02204 1.08493
vn 0.633721 -0.773517 -0.00829818
v -2.00287 4.05603 1.09114
vn -0.292813 0.955994 0.0183152
v -2.18259 3.93534 0.841363
vn -0.572534 0.819858 0.00616214
v -2.44064 3.75129 0.830001
vn -0.416792 -0.188044 -0.889339
v -2.41817 3.72012 1.08675
vn 0.507953 -0.86135 -0.00776642
v -2.42313 3.71767 1.09265
vn 0.292994 -0.956112 0.00204085
v -2.01533 4.0012 1.10381
vn 0.56926 -0.812999 0.122377
v -2.38835 3.74069 1.10539
vn 0.567952 -0.813911 0.122387
v -2.01687 4.04495 1.10712
vn 0.0190613 0.182606 0.983001
v -2.01801 4.02676 1.10857
vn 0.0191433 0.00157377 0.999816
v -2.41994 3.76629 1.09948
vn -0.572819 0.818645 0.0412121
v -2.41046 3.77235 1.10576
vn -0.567072 0.811567 0.140671
v -2.44718 3.74621 0.968052
vn -0.977158 -0.2124 0.00692069
v -2.44419 3.74783 1.09301
vn -0.796581 0.604186 0.0204433
v -2.42016 3.72154 0.848582
vn 0.507923 -0.861332 -0.0109846
v -2.00595 4.00733 1.09745
vn 0.573527 -0.818891 0.0220251
v -2.00653 4.05121 1.1042
vn 0.329941 0.312419 0.890805
v -2.18049 3.93385 1.09253
vn -0.572475 0.819816 0.0131777
v -2.44628 3.74932 0.843093
vn -0.79676 0.604296 8.72275e-05
v -1.99496 4.01822 0.838731
vn 0.59332 -0.804822 -0.0152526
v -1.99856 4.01618 0.830304
vn 0.593363 -0.796702 -0.114835
v -1.98856 4.02348 0.83458
vn 0.646251 -0.758107 -0.0873726
v -2.40366 3.73406 0.827618
vn 0.522403 -0.763646 -0.379394
v -2.39195 3.74369 0.825294
vn 0.0495871 -0.081662 -0.995426
v -2.20449 3.87306 0.826072
vn 0.526752 -0.756607 -0.3874
v -2.42503 3.76466 0.827979
vn -0.539918 0.759595 -0.362634
v -2.18462 3.93268 0.82626
vn -0.533089 0.761104 -0.36951
v -2.41198 3.77238 0.825632
vn -0.103163 0.137003 -0.985184
v -2.01738 4.05032 0.839109
vn -0.551318 0.834285 0.00408059
v -2.01028 4.05458 0.834947
vn -0.490013 0.869044 -0.0681944
v -2.02062 4.04777 0.830677
vn -0.544768 0.833119 -0.0956068
v -1.99221 4.047 0.96603
vn 0.819854 0.572562 -0.00346229
v -1.98273 4.03028 0.840739
vn 0.855121 0.517065 -0.0375618
v -2.00182 4.05762 0.841061
vn 0.773353 0.632952 -0.0360222
v -2.41285 3.72638 0.840495
vn 0.551225 -0.83422 -0.0150727
v -2.42002 3.72217 0.836402
vn 0.488693 -0.868135 -0.0867248
v -2.40974 3.72903 0.832041
vn 0.543005 -0.831868 -0.114635
v -1.99283 4.01671 1.09301
vn 0.593397 -0.804899 -0.00425969
v -2.00572 4.0074 1.08514
vn 0.573567 -0.81911 -0.00894829
v -1.99278 4.01812 0.965863
vn 0.59286 -0.805247 -0.00975333
v -2.00387 4.05449 1.09959
vn 0.330587 0.804421 0.493577
v -1.99465 4.04364 1.10012
vn 0.69089 0.476044 0.544108
v -1.99973 4.05613 1.09126
vn 0.77391 0.632557 0.0305878
v -2.18141 3.93478 0.966947
vn -0.572508 0.819842 0.00966968
v -2.02851 4.04003 1.08553
vn -0.571169 0.820766 0.0103906
v -2.0305 4.04145 0.847085
vn -0.571181 0.820776 0.00893724
v -2.44459 3.74985 0.834631
vn -0.874474 -0.0255569 -0.484398
v -2.44173 3.75327 0.836769
vn -0.647562 0.759015 -0.0675206
v -2.43806 3.75517 0.830277
vn -0.643204 0.703331 -0.302677
v -2.41072 3.72487 1.09477
vn 0.551317 -0.834286 -0.00408247
v -2.40747 3.72741 1.1032
vn 0.544763 -0.83312 0.0956259
v -2.41782 3.72061 1.09893
vn 0.489994 -0.869054 0.0681969
v -2.00306 4.01053 1.1059
vn 0.541109 -0.759322 0.361431
v -2.01611 4.00281 1.10825
vn 0.070599 -0.0904467 0.993396
v -2.20213 3.87138 1.10745
vn 0.533089 -0.761104 0.36951
v -2.02443 4.04112 1.10626
vn -0.521472 0.765125 0.377691
v -2.18227 3.931 1.10763
vn -0.526752 0.756607 0.3874
v -2.03615 4.0315 1.10859
vn -0.0713847 0.113036 0.991023
v -2.43314 3.75697 1.09515
vn -0.593309 0.80483 0.0152513
v -2.43953 3.75171 1.0993
vn -0.646268 0.758091 0.0873869
v -2.42953 3.75901 1.10358
vn -0.593361 0.796702 0.114842
v -2.44009 3.73421 0.967921
vn -0.819856 -0.572559 0.00346168
v -2.42627 3.71757 1.09282
vn -0.77953 -0.625313 0.036285
v -2.44537 3.74491 1.09314
vn -0.86017 -0.508628 0.0374888
v -2.39959 3.73516 0.848355
vn 0.571449 -0.820572 -0.0103905
v -2.41278 3.72481 0.967636
vn 0.551807 -0.833917 -0.00957971
v -1.98636 4.02192 1.09711
vn 0.647563 -0.759014 0.0675265
v -1.99629 4.01457 1.10147
vn 0.595123 -0.797951 0.0954077
v -2.00808 4.05302 1.09748
vn -0.488693 0.868135 0.0867248
v -2.01105 4.05013 1.10396
vn -0.435319 0.841141 0.320904
v -2.42237 3.76778 0.84874
vn -0.573384 0.819238 0.00895029
v -2.42038 3.76637 1.08718
vn -0.573372 0.81923 0.0103964
v -2.43759 3.73747 0.833828
vn -0.690889 -0.476043 -0.54411
v -2.44746 3.7464 0.842943
vn -0.860726 -0.508234 -0.0291219
v -1.98574 4.02692 0.832436
vn 0.836441 0.157015 -0.525084
v -1.99234 4.02166 0.828129
vn 0.637971 -0.699629 -0.321733
v -2.00541 4.01219 0.825936
vn 0.534909 -0.754925 -0.37942
v -2.01849 4.0045 0.823717
vn 0.0539426 -0.0786222 -0.995444
v -2.21735 3.89146 0.823994
vn -0.00837526 0.00594613 -0.999947
v -2.03853 4.03319 0.824055
vn -0.0879652 0.124809 -0.988274
v -2.02678 4.04279 0.826297
vn -0.527649 0.769512 -0.359774
v -2.01336 4.05177 0.828484
vn -0.440551 0.844851 -0.303548
v -2.0061 4.05608 0.832779
vn 0.322362 0.810259 -0.489451
v -1.99689 4.04524 0.831967
vn 0.681727 0.482546 -0.549908
v -2.41704 3.72506 0.829922
vn 0.435319 -0.841141 -0.320904
v -2.00772 4.00882 0.8467
vn 0.573555 -0.819101 -0.0103995
v -1.98063 4.02879 1.09094
vn 0.855681 0.516669 0.0293794
v -2.01532 4.05038 0.966243
vn -0.551807 0.833917 0.00957933
v -2.4318 3.76062 0.832413
vn -0.595124 0.797951 -0.0954045
v -2.42199 3.71911 1.1011
vn -0.429707 -0.739466 0.51821
v -2.41473 3.72342 1.1054
vn 0.440546 -0.844854 0.303547
v -2.40132 3.7324 1.10758
vn 0.52861 -0.768053 0.361479
v -2.38956 3.742 1.10982
vn 0.0662448 -0.0934878 0.993414
v -2.21495 3.88976 1.10996
vn 0.00837529 -0.00594611 0.999947
v -2.4096 3.77069 1.11016
vn -0.0866317 0.125265 0.988334
v -2.42268 3.763 1.10794
vn -0.533699 0.755184 0.380607
v -2.43576 3.75353 1.10575
vn -0.637979 0.699619 0.321739
v -2.44236 3.74827 1.10144
vn -0.866237 -0.0313986 0.498645
v -2.43534 3.73588 1.10198
vn -0.681724 -0.482545 0.549912
v -2.39759 3.73374 1.08679
vn 0.571461 -0.820581 -0.00894029
v -1.99003 4.02002 1.1036
vn 0.643203 -0.703332 0.302677
v -2.01835 4.04616 1.10184
vn -0.543005 0.831868 0.114635
v -2.43531 3.75707 0.968017
vn -0.592854 0.805251 0.0097529
v -2.42837 3.71906 0.842621
vn -0.780093 -0.624912 -0.0306569
v -2.42423 3.72069 0.834287
vn -0.438413 -0.733294 -0.519686
v -2.2026 3.8712 0.966747
vn 0.572508 -0.819842 -0.00966952
v -1.9835 4.02533 1.09925
vn 0.845139 0.150845 0.512821
v -2.01525 4.04881 1.09338
vn -0.551225 0.83422 0.0150727
v -2.43527 3.75848 0.840874
vn -0.593397 0.804898 0.00425993
f 1//1 2//2 3//3
f 1//1 3//3 4//4
f 1//1 4//4 5//5
f 1//1 5//5 6//6
f 1//1 6//6 2//2
f 7//7 8//8 9//9
f 10//10 11//11 12//12
f 13//13 14//14 15//15
f 16//16 17//17 18//18
f 19//19 20//20 21//21
f 22//22 23//23 24//24
f 22//22 24//24 25//25
f 22//22 25//25 26//26
f 22//22 26//26 27//27
f 22//22 27//27 23//23
f 28//28 29//29 30//30
f 31//31 32//32 33//33
f 34//34 35//35 36//36
f 37//37 38//38 39//39
f 40//40 41//41 42//42
f 13//13 43//43 44//44
f 10//10 45//45 46//46
f 7//7 47//47 48//48
f 19//19 49//49 50//50
f 16//16 51//51 52//52
f 10//10 53//53 45//45
f 13//13 54//54 43//43
f 16//16 55//55 51//51
f 19//19 56//56 49//49
f 7//7 57//57 47//47
f 40//40 58//58 59//59
f 28//28 60//60 61//61
f 31//31 62//62 63//63
f 34//34 64//64 65//65
f 37//37 66//66 67//67
f 40//40 68//68 58//58
f 28//28 69//69 60//60
f 31//31 70//70 62//62
f 34//34 71//71 64//64
f 37//37 72//72 66//66
f 10//10 46//46 11//11
f 7//7 48//48 8//8
f 19//19 50//50 20//20
f 16//16 52//52 17//17
f 13//13 44//44 14//14
f 40//40 42//42 68//68
f 28//28 30//30 69//69
f 31//31 33//33 70//70
f 34//34 36//36 71//71
f 37//37 39//39 72//72
f 28//28 61//61 29//29
f 31//31 63//63 32//32
f 34//34 65//65 35//35
f 37//37 67//67 38//38
f 40//40 59//59 41//41
f 10//10 12//12 53//53
f 13//13 15//15 54//54
f 16//16 18//18 55//55
f 19//19 21//21 56//56
f 7//7 9//9 57//57
f 73//73 74//74 75//75
f 76//76 77//77 78//78
f 79//79 80//80 81//81
f 82//82 83//83 84//84
f 85//85 86//86 87//87
f 88//88 89//89 90//90
f 91//91 92//92 93//93
f 94//94 95//95 96//96
f 97//97 98//98 99//99
f 100//100 101//101 102//102
f 103//103 104//104 105//105
f 106//106 107//107 108//108
f 109//109 110//110 111//111
f 112//112 113//113 114//114
f 115//115 116//116 117//117
f 88//88 118//118 119//119
f 91//91 120//120 121//121
f 94//94 122//122 123//123
f 97//97 124//124 125//125
f 100//100 126//126 127//127
f 128//128 129//129 2//2
f 130//130 131//131 3//3
f 132//132 133//133 4//4
f 134//134 135//135 5//5
f 136//136 137//137 6//6
f 76//76 138//138 8//8
f 73//73 139//139 11//11
f 85//85 140//140 14//14
f 82//82 141//141 17//17
f 79//79 142//142 20//20
f 143//143 144//144 23//23
f 145//145 146//146 24//24
f 147//147 148//148 25//25
f 149//149 150//150 26//26
f 151//151 152//152 27//27
f 103//103 153//153 29//29
f 106//106 154//154 32//32
f 109//109 155//155 35//35
f 112//112 156//156 38//38
f 115//115 157//157 41//41
f 73//73 75//75 43//43
f 76//76 78//78 45//45
f 79//79 81//81 47//47
f 82//82 84//84 49//49
f 85//85 87//87 51//51
f 88//88 90//90 53//53
f 91//91 93//93 54//54
f 94//94 96//96 55//55
f 97//97 99//99 56//56
f 100//100 102//102 57//57
f 103//103 105//105 58//58
f 106//106 108//108 60//60
f 109//109 111//111 62//62
f 112//112 114//114 64//64
f 115//115 117//117 66//66
f 88//88 119//119 68//68
f 91//91 121//121 69//69
f 94//94 123//123 70//70
f 97//97 125//125 71//71
f 100//100 127//127 72//72
f 130//130 74//74 46//46
f 132//132 77//77 48//48
f 134//134 80//80 50//50
f 136//136 83//83 52//52
f 128//128 86//86 44//44
f 158//158 89//89 42//42
f 159//159 92//92 30//30
f 160//160 95//95 33//33
f 161//161 98//98 36//36
f 162//162 101//101 39//39
f 145//145 104//104 61//61
f 147//147 107//107 63//63
f 149//149 110//110 65//65
f 151//151 113//113 67//67
f 143//143 116//116 59//59
f 159//159 118//118 12//12
f 160//160 120//120 15//15
f 161//161 122//122 18//18
f 162//162 124//124 21//21
f 158//158 126//126 9//9
f 130//130 129//129 74//74
f 132//132 131//131 77//77
f 134//134 133//133 80//80
f 136//136 135//135 83//83
f 128//128 137//137 86//86
f 158//158 138//138 89//89
f 159//159 139//139 92//92
f 160//160 140//140 95//95
f 161//161 141//141 98//98
f 162//162 142//142 101//101
f 145//145 144//144 104//104
f 147//147 146//146 107//107
f 149//149 148//148 110//110
f 151//151 150//150 113//113
f 143//143 152//152 116//116
f 159//159 153//153 118//118
f 160//160 154//154 120//120
f 161//161 155//155 122//122
f 162//162 156//156 124//124
f 158//158 157//157 126//126
f 130//130 3//3 129//129
f 132//132 4//4 131//131
f 134//134 5//5 133//133
f 136//136 6//6 135//135
f 128//128 2//2 137//137
f 158//158 9//9 138//138
f 159//159 12//12 139//139
f 160//160 15//15 140//140
f 161//161 18//18 141//141
f 162//162 21//21 142//142
f 145//145 24//24 144//144
f 147//147 25//25 146//146
f 149//149 26//26 148//148
f 151//151 27//27 150//150
f 143//143 23//23 152//152
f 159//159 30//30 153//153
f 160//160 33//33 154//154
f 161//161 36//36 155//155
f 162//162 39//39 156//156
f 158//158 42//42 157//157
f 128//128 44//44 75//75
f 130//130 46//46 78//78
f 132//132 48//48 81//81
f 134//134 50//50 84//84
f 136//136 52//52 87//87
f 76//76 45//45 90//90
f 73//73 43//43 93//93
f 85//85 51//51 96//96
f 82//82 49//49 99//99
f 79//79 47//47 102//102
f 143//143 59//59 105//105
f 145//145 61//61 108//108
f 147//147 63//63 111//111
f 149//149 65//65 114//114
f 151//151 67//67 117//117
f 103//103 58//58 119//119
f 106//106 60//60 121//121
f 109//109 62//62 123//123
f 112//112 64//64 125//125
f 115//115 66//66 127//127
f 73//73 11//11 74//74
f 76//76 8//8 77//77
f 79//79 20//20 80//80
f 82//82 17//17 83//83
f 85//85 14//14 86//86
f 88//88 68//68 89//89
f 91//91 69//69 92//92
f 94//94 70//70 95//95
f 97//97 71//71 98//98
f 100//100 72//72 101//101
f 103//103 29//29 104//104
f 106//106 32//32 107//107
f 109//109 35//35 110//110
f 112//112 38//38 113//113
f 115//115 41//41 116//116
f 88//88 53//53 118//118
f 91//91 54//54 120//120
f 94//94 55//55 122//122
f 97//97 56//56 124//124
f 100//100 57//57 126//126
f 128//128 75//75 129//129
f 130//130 78//78 131//131
f 132//132 81//81 133//133
f 134//134 84//84 135//135
f 136//136 87//87 137//137
f 76//76 90//90 138//138
f 73//73 93//93 139//139
f 85//85 96//96 140//140
f 82//82 99//99 141//141
f 79//79 102//102 142//142
f 143//143 105//105 144//144
f 145//145 108//108 146//146
f 147//147 111//111 148//148
f 149//149 114//114 150//150
f 151//151 117//117 152//152
f 103//103 119//119 153//153
f 106//106 121//121 154//154
f 109//109 123//123 155//155
f 112//112 125//125 156//156
f 115//115 127//127 157//157
f 129//129 3//3 2//2
f 131//131 4//4 3//3
f 133//133 5//5 4//4
f 135//135 6//6 5//5
f 137//137 2//2 6//6
f 138//138 9//9 8//8
f 139//139 12//12 11//11
f 140//140 15//15 14//14
f 141//141 18//18 17//17
f 142//142 21//21 20//20
f 144//144 24//24 23//23
f 146//146 25//25 24//24
f 148//148 26//26 25//25
f 150//150 27//27 26//26
f 152//152 23//23 27//27
f 153//153 30//30 29//29
f 154//154 33//33 32//32
f 155//155 36//36 35//35
f 156//156 39//39 38//38
f 157//157 42//42 41//41
f 75//75 44//44 43//43
f 78//78 46//46 45//45
f 81//81 48//48 47//47
f 84//84 50//50 49//49
f 87//87 52//52 51//51
f 90//90 45//45 53//53
f 93//93 43//43 54//54
f 96//96 51//51 55//55
f 99//99 49//49 56//56
f 102//102 47//47 57//57
f 105//105 59//59 58//58
f 108//108 61//61 60//60
f 111//111 63//63 62//62
f 114//114 65//65 64//64
f 117//117 67//67 66//66
f 119//119 58//58 68//68
f 121//121 60//60 69//69
f 123//123 62//62 70//70
f 125//125 64//64 71//71
f 127//127 66//66 72//72
f 74//74 11//11 46//46
f 77//77 8//8 48//48
f 80//80 20//20 50//50
f 83//83 17//17 52//52
f 86//86 14//14 44//44
f 89//89 68//68 42//42
f 92//92 69//69 30//30
f 95//95 70//70 33//33
f 98//98 71//71 36//36
f 101//101 72//72 39//39
f 104//104 29//29 61//61
f 107//107 32//32 63//63
f 110//110 35//35 65//65
f 113//113 38//38 67//67
f 116//116 41//41 59//59
f 118//118 53//53 12//12
f 120//120 54//54 15//15
f 122//122 55//55 18//18
f 124//124 56//56 21//21
f 126//126 57//57 9//9
f 129//129 75//75 74//74
f 131//131 78//78 77//77
f 133//133 81//81 80//80
f 135//135 84//84 83//83
f 137//137 87//87 86//86
f 138//138 90//90 89//89
f 139//139 93//93 92//92
f 140//140 96//96 95//95
f 141//141 99//99 98//98
f 142//142 102//102 101//101
f 144//144 105//105 104//104
f 146//146 108//108 107//107
f 148//148 111//111 110//110
f 150//150 114//114 113//113
f 152//152 117//117 116//116
f 153//153 119//119 118//118
f 154//154 121//121 120//120
f 155//155 123//123 122//122
f 156//156 125//125 124//124
f 157//157 127//127 126//126
