# Created by Open3D 
# object name: part_027
# number of vertices: 162
# number of triangles: 320
v -1.32257 4.87546 0.0383772
vn 0.155261 0.162869 -0.974355
v -1.3034 4.86163 0.0412758
vn 0.439175 0.155278 -0.884881
v -1.32141 4.85319 0.0362766
vn 0.145877 -0.0420502 -0.988409
v -1.34694 4.86464 0.0355248
vn -0.0319868 0.0815441 -0.996156
v -1.33558 4.885 0.0393356
vn -0.0347717 0.359258 -0.93259
v -1.31691 4.89195 0.0441909
vn 0.34108 0.380437 -0.859612
v -2.09059 4.53246 0.0470743
vn -0.243263 -0.0151184 -0.969842
v -2.07482 4.51671 0.0448082
vn -0.0846869 -0.145019 -0.985798
v -2.09303 4.50898 0.0502174
vn -0.425361 -0.230826 -0.875093
v -1.69667 4.68202 0.0525139
vn 0.403831 -0.907212 -0.11784
v -1.33856 4.84149 0.053014
vn 0.40524 -0.908147 -0.105116
v -1.69589 4.68065 0.067665
vn 0.405306 -0.909794 -0.0894514
v -1.28326 4.84462 0.287569
vn 0.506205 -0.857901 -0.0881093
v -1.27876 4.84793 0.287617
vn 0.99861 -0.0238142 -0.0470107
v -1.27273 4.82823 0.510838
vn 0.574177 -0.814612 -0.0820209
v -1.29846 4.87875 0.290851
vn -0.299383 0.95027 0.0857671
v -1.31597 4.89198 0.0782303
vn -0.362267 0.928096 0.0860262
v -1.29671 4.85964 0.503738
vn -0.362184 0.927961 0.0878162
v -1.6333 4.75327 0.0550596
vn -0.406581 0.911829 0.0570846
v -2.05385 4.56568 0.0530492
vn -0.408024 0.912864 0.0140201
v -2.07032 4.55768 0.0645681
vn -0.406709 0.910874 0.0699718
v -2.06784 4.49426 0.549771
vn -0.15526 -0.162869 0.974355
v -2.07071 4.47151 0.543355
vn -0.346601 -0.363061 0.864901
v -2.05204 4.47846 0.54821
vn 0.00322187 -0.292607 0.956227
v -2.04328 4.50469 0.552586
vn 0.0319874 -0.0815447 0.996156
v -2.06621 4.51026 0.551269
vn -0.175545 0.112815 0.977986
v -2.08421 4.50182 0.54627
vn -0.448663 -0.138963 0.882831
v -1.67499 4.64562 0.531588
vn 0.406581 -0.91183 -0.057082
v -2.03307 4.4861 0.531083
vn 0.405423 -0.911456 -0.0698645
v -1.67557 4.64655 0.516394
vn 0.405483 -0.910091 -0.0855523
v -1.29982 4.83726 0.541074
vn 0.243262 0.0151174 0.969843
v -1.29862 4.81493 0.539679
vn 0.233778 -0.189632 0.953618
v -1.28108 4.82416 0.534413
vn 0.51793 0.0230481 0.855113
v -1.61162 4.71686 0.534134
vn -0.403832 0.907213 0.117837
v -1.34941 4.8329 0.537875
vn -0.400415 0.901979 0.161562
v -1.33327 4.84164 0.526426
vn -0.403634 0.908849 0.105233
v -2.10436 4.51884 0.299977
vn -0.506199 0.857904 0.0881094
v -2.08728 4.50657 0.51269
vn -0.447644 0.889793 0.0887845
v -2.10654 4.53891 0.0871824
vn -0.447721 0.889931 0.0869938
v -2.08915 4.4847 0.296695
vn 0.299379 -0.950272 -0.085767
v -2.09462 4.48356 0.296855
vn -0.649472 -0.759857 -0.0283479
v -2.09996 4.50174 0.0734878
vn 0.221379 -0.971055 -0.0896909
v -1.30034 4.85689 0.0748558
vn 0.447644 -0.889794 -0.0887846
v -1.29294 4.86216 0.0643491
vn 0.573638 -0.813734 -0.0936792
v -2.0382 4.53055 0.0496708
vn 0.4005 -0.902043 -0.160992
v -1.35605 4.8352 0.0419463
vn 0.401391 -0.901645 -0.161002
v -2.08899 4.54852 0.047867
vn -0.261908 0.25781 -0.93002
v -2.06632 4.54336 0.0436709
vn -0.0581821 0.0698455 -0.99586
v -1.35454 4.87735 0.0564627
vn -0.40524 0.911547 0.0697297
v -1.37171 4.87033 0.0453247
vn -0.407142 0.913273 0.0129181
v -1.293 4.8799 0.290691
vn 0.52371 0.850911 0.04096
v -1.30786 4.89564 0.0675688
vn -0.221913 0.971939 0.0780325
v -2.05435 4.52182 0.0611194
vn 0.403828 -0.908777 -0.105103
v -1.28108 4.82455 0.500363
vn 0.447722 -0.889931 -0.0869937
v -1.28765 4.86171 0.514058
vn -0.221379 0.971054 0.0896908
v -1.63173 4.75277 0.0702421
vn -0.405483 0.910091 0.085552
v -2.10653 4.5393 0.0531325
vn -0.527083 -0.00729586 -0.849782
v -2.07164 4.47148 0.509316
vn 0.362266 -0.928096 -0.0860261
v -2.07975 4.46781 0.519977
vn 0.221912 -0.971939 -0.0780324
v -1.33376 4.79777 0.534497
vn 0.408066 -0.912852 -0.013524
v -2.01591 4.49312 0.542221
vn 0.407175 -0.91325 -0.0135142
v -1.31279 4.84674 0.542738
vn 0.0515962 0.214252 0.975415
v -1.32391 4.82596 0.544439
vn 0.0581818 -0.0698454 0.99586
v -2.04905 4.52197 0.534532
vn -0.405122 0.90821 0.105024
v -2.03156 4.52825 0.5456
vn -0.401395 0.901734 0.160494
v -2.10886 4.51553 0.299929
vn -0.982257 0.178339 0.0580137
v -2.09467 4.50129 0.523197
vn -0.573635 0.813736 0.0936791
v -2.0909 4.50381 0.0838081
vn 0.362183 -0.927961 -0.0878162
v -1.31729 4.80577 0.522978
vn 0.406835 -0.910825 -0.0698837
v -1.29459 4.85447 0.537328
vn 0.419506 0.248765 0.873001
v -1.61142 4.71867 0.518971
vn -0.405306 0.909794 0.0894516
v -2.11488 4.53522 0.0767074
vn -0.574174 0.814614 0.0820213
v -1.31406 4.85182 0.0605922
vn 0.419482 -0.903221 -0.0907051
v -1.321 4.85051 0.0456037
vn 0.419113 -0.896093 -0.146158
v -1.30224 4.85848 0.0531305
vn 0.456051 -0.880242 -0.131112
v -2.0617 4.52113 0.046174
vn 0.381482 -0.873792 -0.301594
v -2.03968 4.53262 0.0419406
vn 0.0284835 -0.0960336 -0.99497
v -1.69758 4.68376 0.0407843
vn 0.385231 -0.870353 -0.30673
v -2.07683 4.55509 0.0494397
vn -0.409269 0.902879 -0.13156
v -1.63719 4.75166 0.0432104
vn -0.405275 0.904007 -0.136103
v -2.05387 4.56447 0.045003
vn -0.1603 0.328229 -0.930897
v -1.32993 4.88745 0.0640189
vn -0.391202 0.916438 0.0842764
v -1.31761 4.89299 0.0564494
vn -0.352569 0.934777 0.0434324
v -1.33662 4.88557 0.0489753
vn -0.39013 0.920318 0.0285123
v -1.28578 4.86796 0.289457
vn 0.913029 0.407764 -0.0103391
v -1.2897 4.86551 0.0642009
vn 0.949671 0.309208 -0.0501438
v -1.30322 4.89586 0.0671193
vn 0.853966 0.519484 -0.0296446
v -2.07824 4.51053 0.0692457
vn 0.390929 -0.915973 -0.0903809
v -2.09123 4.50611 0.062065
vn 0.34865 -0.928208 -0.129899
v -2.07292 4.5147 0.0541184
vn 0.384822 -0.911407 -0.145771
v -1.29349 4.81729 0.514873
vn 0.419754 -0.903687 -0.0845982
v -1.3178 4.80745 0.50097
vn 0.406127 -0.909656 -0.0871066
v -1.30181 4.83532 0.287702
vn 0.419271 -0.90362 -0.0876486
v -1.2893 4.85885 0.52913
vn 0.319626 0.839656 0.439109
v -1.28149 4.84677 0.529066
vn 0.806643 0.311046 0.502571
v -1.28298 4.86189 0.514117
vn 0.856703 0.514889 0.0308208
v -1.6213 4.73593 0.29461
vn -0.405395 0.909944 0.0875011
v -1.33393 4.84367 0.504453
vn -0.404472 0.910317 0.0878952
v -1.35322 4.87604 0.078461
vn -0.404509 0.910378 0.0870867
v -2.11273 4.53697 0.0615281
vn -0.865198 0.38492 -0.321356
v -2.10661 4.54062 0.0653838
vn -0.459962 0.886816 0.044642
v -2.10071 4.54371 0.0536995
vn -0.477107 0.873816 -0.0938891
v -2.05768 4.476 0.523527
vn 0.391203 -0.916438 -0.0842762
v -2.05099 4.47788 0.538571
vn 0.390131 -0.920318 -0.028512
v -2.07 4.47046 0.531096
vn 0.352568 -0.934778 -0.0434317
v -1.31078 4.80837 0.538106
vn 0.409965 -0.902678 0.130768
v -1.33375 4.79899 0.542543
vn 0.122317 -0.24245 0.962422
v -1.67483 4.64556 0.543479
vn 0.405275 -0.904007 0.1361
v -1.32591 4.84233 0.541372
vn -0.380685 0.874513 0.300509
v -1.61443 4.71345 0.545905
vn -0.38523 0.870352 0.306732
v -1.34793 4.83083 0.545605
vn -0.0554364 0.156372 0.986141
v -2.07356 4.51164 0.526954
vn -0.419482 0.90322 0.0907049
v -2.08538 4.50498 0.534415
vn -0.456052 0.880242 0.13111
v -2.06661 4.51295 0.541942
vn -0.419113 0.896093 0.146159
v -2.10481 4.50218 0.298732
vn -0.913029 -0.407764 0.0103391
v -2.0844 4.46759 0.520426
vn -0.862092 -0.505788 0.0312402
v -2.09792 4.49794 0.523345
vn -0.954434 -0.293973 0.0513299
v -2.05368 4.51979 0.0830931
vn 0.404663 -0.910232 -0.0878958
v -2.06984 4.49232 0.296399
vn 0.39142 -0.916058 -0.0873329
v -1.28101 4.82283 0.522162
vn 0.459964 -0.886815 -0.0446403
v -1.29907 4.81369 0.530056
vn 0.424422 -0.905003 -0.0288991
v -1.29638 4.85735 0.525481
vn -0.348652 0.928207 0.129897
v -1.30179 4.85316 0.53706
vn -0.317725 0.910263 0.265464
v -2.06981 4.556 0.0865756
vn -0.406003 0.909711 0.0871058
v -2.05053 4.52363 0.512567
vn -0.405967 0.90965 0.08791
v -2.10906 4.52326 0.0591123
vn -0.806643 -0.311045 -0.502572
v -2.11815 4.53191 0.0763475
vn -0.957171 -0.289381 -0.00913564
v -1.29646 4.86271 0.0493359
vn 0.854892 -0.16431 -0.4921
v -1.30918 4.85715 0.0416917
vn 0.460767 -0.846383 -0.267077
v -1.33342 4.84638 0.0379272
vn 0.39039 -0.869812 -0.301701
v -1.35676 4.83762 0.0342073
vn 0.0337166 -0.0936967 -0.99503
v -1.70686 4.70448 0.0386478
vn -0.0450891 0.0757028 -0.99611
v -1.37094 4.86946 0.0372696
vn -0.142725 0.302926 -0.942266
v -1.34855 4.88034 0.0411928
vn -0.400161 0.907212 -0.129762
v -1.32407 4.89056 0.044905
vn -0.33406 0.937698 -0.0955378
v -1.31088 4.89508 0.0524481
vn 0.284616 0.898438 -0.334369
v -1.30317 4.88318 0.0499865
vn 0.760344 0.388779 -0.520316
v -2.08582 4.51029 0.0504862
vn 0.317724 -0.910264 -0.265463
v -1.33708 4.83982 0.0749784
vn 0.406091 -0.909594 -0.0879119
v -1.26946 4.83154 0.511198
vn 0.952425 0.304585 0.0106929
v -1.31777 4.87114 0.291146
vn -0.39142 0.916058 0.087333
v -2.08854 4.54976 0.05749
vn -0.424422 0.905003 0.0288971
v -2.07674 4.46838 0.535098
vn -0.41776 -0.81687 0.397743
v -2.06355 4.47289 0.542641
vn 0.33406 -0.937697 0.0955374
v -2.03906 4.48312 0.546353
vn 0.401057 -0.906658 0.130861
v -2.01667 4.49399 0.550276
vn 0.117084 -0.244789 0.962481
v -1.68373 4.66566 0.549541
vn 0.0450892 -0.0757031 0.99611
v -2.03086 4.52584 0.553339
vn -0.0737892 0.182981 0.980343
v -2.05419 4.51708 0.549619
vn -0.389624 0.869894 0.302452
v -2.07843 4.50631 0.545854
vn -0.460767 0.846383 0.267076
v -2.09116 4.50074 0.53821
vn -0.830186 0.326144 0.45213
v -2.08737 4.48686 0.538192
vn -0.760344 -0.388779 0.520316
v -2.0344 4.48742 0.509085
vn 0.404699 -0.910293 -0.0870902
v -1.2869 4.81975 0.533846
vn 0.477108 -0.873815 0.0938891
v -1.31469 4.84876 0.533427
vn -0.384823 0.911407 0.14577
v -2.0858 4.52813 0.299843
vn -0.419272 0.90362 0.0876485
v -2.10463 4.50156 0.0734291
vn -0.864845 -0.501166 -0.0295963
v -2.09831 4.5046 0.0584159
vn -0.457363 -0.750376 -0.477237
v -1.6857 4.66353 0.292023
vn 0.405395 -0.909944 -0.087501
v -1.27488 4.82649 0.526018
vn 0.894498 -0.230806 0.382885
v -1.30937 4.85293 0.5183
vn -0.39093 0.915972 0.0903807
v -2.09412 4.54616 0.0726724
vn -0.419755 0.903686 0.0845983
f 1//1 2//2 3//3
f 1//1 3//3 4//4
f 1//1 4//4 5//5
f 1//1 5//5 6//6
f 1//1 6//6 2//2
f 7//7 8//8 9//9
f 10//10 11//11 12//12
f 13//13 14//14 15//15
f 16//16 17//17 18//18
f 19//19 20//20 21//21
f 22//22 23//23 24//24
f 22//22 24//24 25//25
f 22//22 25//25 26//26
f 22//22 26//26 27//27
f 22//22 27//27 23//23
f 28//28 29//29 30//30
f 31//31 32//32 33//33
f 34//34 35//35 36//36
f 37//37 38//38 39//39
f 40//40 41//41 42//42
f 13//13 43//43 44//44
f 10//10 45//45 46//46
f 7//7 47//47 48//48
f 19//19 49//49 50//50
f 16//16 51//51 52//52
f 10//10 53//53 45//45
f 13//13 54//54 43//43
f 16//16 55//55 51//51
f 19//19 56//56 49//49
f 7//7 57//57 47//47
f 40//40 58//58 59//59
f 28//28 60//60 61//61
f 31//31 62//62 63//63
f 34//34 64//64 65//65
f 37//37 66//66 67//67
f 40//40 68//68 58//58
f 28//28 69//69 60//60
f 31//31 70//70 62//62
f 34//34 71//71 64//64
f 37//37 72//72 66//66
f 10//10 46//46 11//11
f 7//7 48//48 8//8
f 19//19 50//50 20//20
f 16//16 52//52 17//17
f 13//13 44//44 14//14
f 40//40 42//42 68//68
f 28//28 30//30 69//69
f 31//31 33//33 70//70
f 34//34 36//36 71//71
f 37//37 39//39 72//72
f 28//28 61//61 29//29
f 31//31 63//63 32//32
f 34//34 65//65 35//35
f 37//37 67//67 38//38
f 40//40 59//59 41//41
f 10//10 12//12 53//53
f 13//13 15//15 54//54
f 16//16 18//18 55//55
f 19//19 21//21 56//56
f 7//7 9//9 57//57
f 73//73 74//74 75//75
f 76//76 77//77 78//78
f 79//79 80//80 81//81
f 82//82 83//83 84//84
f 85//85 86//86 87//87
f 88//88 89//89 90//90
f 91//91 92//92 93//93
f 94//94 95//95 96//96
f 97//97 98//98 99//99
f 100//100 101//101 102//102
f 103//103 104//104 105//105
f 106//106 107//107 108//108
f 109//109 110//110 111//111
f 112//112 113//113 114//114
f 115//115 116//116 117//117
f 88//88 118//118 119//119
f 91//91 120//120 121//121
f 94//94 122//122 123//123
f 97//97 124//124 125//125
f 100//100 126//126 127//127
f 128//128 129//129 2//2
f 130//130 131//131 3//3
f 132//132 133//133 4//4
f 134//134 135//135 5//5
f 136//136 137//137 6//6
f 76//76 138//138 8//8
f 73//73 139//139 11//11
f 85//85 140//140 14//14
f 82//82 141//141 17//17
f 79//79 142//142 20//20
f 143//143 144//144 23//23
f 145//145 146//146 24//24
f 147//147 148//148 25//25
f 149//149 150//150 26//26
f 151//151 152//152 27//27
f 103//103 153//153 29//29
f 106//106 154//154 32//32
f 109//109 155//155 35//35
f 112//112 156//156 38//38
f 115//115 157//157 41//41
f 73//73 75//75 43//43
f 76//76 78//78 45//45
f 79//79 81//81 47//47
f 82//82 84//84 49//49
f 85//85 87//87 51//51
f 88//88 90//90 53//53
f 91//91 93//93 54//54
f 94//94 96//96 55//55
f 97//97 99//99 56//56
f 100//100 102//102 57//57
f 103//103 105//105 58//58
f 106//106 108//108 60//60
f 109//109 111//111 62//62
f 112//112 114//114 64//64
f 115//115 117//117 66//66
f 88//88 119//119 68//68
f 91//91 121//121 69//69
f 94//94 123//123 70//70
f 97//97 125//125 71//71
f 100//100 127//127 72//72
f 130//130 74//74 46//46
f 132//132 77//77 48//48
f 134//134 80//80 50//50
f 136//136 83//83 52//52
f 128//128 86//86 44//44
f 158//158 89//89 42//42
f 159//159 92//92 30//30
f 160//160 95//95 33//33
f 161//161 98//98 36//36
f 162//162 101//101 39//39
f 145//145 104//104 61//61
f 147//147 107//107 63//63
f 149//149 110//110 65//65
f 151//151 113//113 67//67
f 143//143 116//116 59//59
f 159//159 118//118 12//12
f 160//160 120//120 15//15
f 161//161 122//122 18//18
f 162//162 124//124 21//21
f 158//158 126//126 9//9
f 130//130 129//129 74//74
f 132//132 131//131 77//77
f 134//134 133//133 80//80
f 136//136 135//135 83//83
f 128//128 137//137 86//86
f 158//158 138//138 89//89
f 159//159 139//139 92//92
f 160//160 140//140 95//95
f 161//161 141//141 98//98
f 162//162 142//142 101//101
f 145//145 144//144 104//104
f 147//147 146//146 107//107
f 149//149 148//148 110//110
f 151//151 150//150 113//113
f 143//143 152//152 116//116
f 159//159 153//153 118//118
f 160//160 154//154 120//120
f 161//161 155//155 122//122
f 162//162 156//156 124//124
f 158//158 157//157 126//126
f 130//130 3//3 129//129
f 132//132 4//4 131//131
f 134//134 5//5 133//133
f 136//136 6//6 135//135
f 128//128 2//2 137//137
f 158//158 9//9 138//138
f 159//159 12//12 139//139
f 160//160 15//15 140//140
f 161//161 18//18 141//141
f 162//162 21//21 142//142
f 145//145 24//24 144//144
f 147//147 25//25 146//146
f 149//149 26//26 148//148
f 151//151 27//27 150//150
f 143//143 23//23 152//152
f 159//159 30//30 153//153
f 160//160 33//33 154//154
f 161//161 36//36 155//155
f 162//162 39//39 156//156
f 158//158 42//42 157//157
f 128//128 44//44 75//75
f 130//130 46//46 78//78
f 132//132 48//48 81//81
f 134//134 50//50 84//84
f 136//136 52//52 87//87
f 76//76 45//45 90//90
f 73//73 43//43 93//93
f 85//85 51//51 96//96
f 82//82 49//49 99//99
f 79//79 47//47 102//102
f 143//143 59//59 105//105
f 145//145 61//61 108//108
f 147//147 63//63 111//111
f 149//149 65//65 114//114
f 151//151 67//67 117//117
f 103//103 58//58 119//119
f 106//106 60//60 121//121
f 109//109 62//62 123//123
f 112//112 64//64 125//125
f 115//115 66//66 127//127
f 73//73 11//11 74//74
f 76//76 8//8 77//77
f 79//79 20//20 80//80
f 82//82 17//17 83//83
f 85//85 14//14 86//86
f 88//88 68//68 89//89
f 91//91 69//69 92//92
f 94//94 70//70 95//95
f 97//97 71//71 98//98
f 100//100 72//72 101//101
f 103//103 29//29 104//104
f 106//106 32//32 107//107
f 109//109 35//35 110//110
f 112//112 38//38 113//113
f 115//115 41//41 116//116
f 88//88 53//53 118//118
f 91//91 54//54 120//120
f 94//94 55//55 122//122
f 97//97 56//56 124//124
f 100//100 57//57 126//126
f 128//128 75//75 129//129
f 130//130 78//78 131//131
f 132//132 81//81 133//133
f 134//134 84//84 135//135
f 136//136 87//87 137//137
f 76//76 90//90 138//138
f 73//73 93//93 139//139
f 85//85 96//96 140//140
f 82//82 99//99 141//141
f 79//79 102//102 142//142
f 143//143 105//105 144//144
f 145//145 108//108 146//146
f 147//147 111//111 148//148
f 149//149 114//114 150//150
f 151//151 117//117 152//152
f 103//103 119//119 153//153
f 106//106 121//121 154//154
f 109//109 123//123 155//155
f 112//112 125//125 156//156
f 115//115 127//127 157//157
f 129//129 3//3 2//2
f 131//131 4//4 3//3
f 133//133 5//5 4//4
f 135//135 6//6 5//5
f 137//137 2//2 6//6
f 138//138 9//9 8//8
f 139//139 12//12 11//11
f 140//140 15//15 14//14
f 141//141 18//18 17//17
f 142//142 21//21 20//20
f 144//144 24//24 23//23
f 146//146 25//25 24//24
f 148//148 26//26 25//25
f 150//150 27//27 26//26
f 152//152 23//23 27//27
f 153//153 30//30 29//29
f 154//154 33//33 32//32
f 155//155 36//36 35//35
f 156//156 39//39 38//38
f 157//157 42//42 41//41
f 75//75 44//44 43//43
f 78//78 46//46 45//45
f 81//81 48//48 47//47
f 84//84 50//50 49//49
f 87//87 52//52 51//51
f 90//90 45//45 53//53
f 93//93 43//43 54//54
f 96//96 51//51 55//55
f 99//99 49//49 56//56
f 102//102 47//47 57//57
f 105//105 59//59 58//58
f 108//108 61//61 60//60
f 111//111 63//63 62//62
f 114//114 65//65 64//64
f 117//117 67//67 66//66
f 119//119 58//58 68//68
f 121//121 60//60 69//69
f 123//123 62//62 70//70
f 125//125 64//64 71//71
f 127//127 66//66 72//72
f 74//74 11//11 46//46
f 77//77 8//8 48//48
f 80//80 20//20 50//50
f 83//83 17//17 52//52
f 86//86 14//14 44//44
f 89//89 68//68 42//42
f 92//92 69//69 30//30
f 95//95 70//70 33//33
f 98//98 71//71 36//36
f 101//101 72//72 39//39
f 104//104 29//29 61//61
f 107//107 32//32 63//63
f 110//110 35//35 65//65
f 113//113 38//38 67//67
f 116//116 41//41 59//59
f 118//118 53//53 12//12
f 120//120 54//54 15//15
f 122//122 55//55 18//18
f 124//124 56//56 21//21
f 126//126 57//57 9//9
f 129//129 75//75 74//74
f 131//131 78//78 77//77
f 133//133 81//81 80//80
f 135//135 84//84 83//83
f 137//137 87//87 86//86
f 138//138 90//90 89//89
f 139//139 93//93 92//92
f 140//140 96//96 95//95
f 141//141 99//99 98//98
f 142//142 102//102 101//101
f 144//144 105//105 104//104
f 146//146 108//108 107//107
f 148//148 111//111 110//110
f 150//150 114//114 113//113
f 152//152 117//117 116//116
f 153//153 119//119 118//118
f 154//154 121//121 120//120
f 155//155 123//123 122//122
f 156//156 125//125 124//124
f 157//157 127//127 126//126
