# Created by Open3D 
# object name: part_048
# number of vertices: 162
# number of triangles: 320
v -0.815226 3.52034 0.410662
vn -0.649578 -0.65247 -0.390297
v -0.798288 3.50932 0.404575
vn -0.46957 -0.547986 -0.692254
v -0.80038 3.50539 0.413404
vn -0.576957 -0.77167 -0.267667
v -0.81682 3.51759 0.422757
vn -0.69208 -0.715656 -0.0941348
v -0.825586 3.52956 0.414944
vn -0.797056 -0.548791 -0.252053
v -0.822309 3.53236 0.406042
vn -0.577659 -0.439469 -0.687879
v -0.822382 3.48821 0.797914
vn -0.661471 -0.705875 0.253371
v -0.8074 3.47387 0.793292
vn -0.584036 -0.803465 0.115528
v -0.805645 3.47629 0.80272
vn -0.492986 -0.653116 0.574808
v -0.79634 3.49429 0.603874
vn 0.690428 -0.721864 -0.0471347
v -0.790752 3.51155 0.42365
vn 0.703471 -0.709134 -0.0475172
v -0.788725 3.50183 0.60464
vn 0.719113 -0.693482 -0.0442498
v -0.675807 3.63347 0.413007
vn 0.704453 -0.651551 -0.281474
v -0.676617 3.6345 0.410547
vn 0.173197 -0.0681234 -0.982528
v -0.566602 3.74714 0.42417
vn 0.676043 -0.598302 -0.430117
v -0.702853 3.6594 0.41466
vn -0.695633 0.691163 -0.195929
v -0.807617 3.55137 0.407652
vn -0.716382 0.695394 -0.0567836
v -0.598991 3.76752 0.429441
vn -0.714623 0.697216 -0.0566059
v -0.823979 3.52482 0.565611
vn -0.750302 0.65983 0.0408816
v -0.83093 3.50355 0.777223
vn -0.789181 0.61303 0.0372555
v -0.825839 3.50886 0.786299
vn -0.73812 0.673259 0.0436091
v -0.57591 3.74358 0.823656
vn 0.649577 0.65247 0.390299
v -0.56386 3.72679 0.827972
vn 0.57173 0.450008 0.686016
v -0.560582 3.72959 0.81907
vn 0.763544 0.592729 0.256268
v -0.574002 3.74602 0.811541
vn 0.692081 0.715656 0.0941342
v -0.585788 3.75376 0.82061
vn 0.531533 0.803432 0.268272
v -0.587881 3.74983 0.82944
vn 0.458939 0.553322 0.695133
v -0.56145 3.73765 0.628406
vn 0.750304 -0.659828 -0.0408814
v -0.566998 3.72034 0.808628
vn 0.738149 -0.673418 -0.0405535
v -0.568713 3.72977 0.627619
vn 0.722958 -0.689499 -0.0438483
v -0.568754 3.77571 0.436404
vn 0.661472 0.705875 -0.253367
v -0.553563 3.76111 0.439182
vn 0.770626 0.624522 -0.126921
v -0.556503 3.75983 0.429827
vn 0.595141 0.555136 -0.58106
v -0.58909 3.76818 0.590143
vn -0.690429 0.721863 0.0471345
v -0.583077 3.7823 0.458492
vn -0.643896 0.763459 0.05029
v -0.588748 3.77754 0.449452
vn -0.703266 0.709579 0.0437531
v -0.710361 3.62569 0.821007
vn -0.704453 0.651551 0.281473
v -0.606357 3.73445 0.828061
vn -0.718338 0.680536 0.144438
v -0.814983 3.5183 0.806272
vn -0.720096 0.678713 0.144255
v -0.683316 3.59975 0.819355
vn 0.695633 -0.691163 0.195929
v -0.684219 3.60036 0.82192
vn 0.137238 -0.229591 0.963563
v -0.793035 3.48657 0.808224
vn 0.650849 -0.674217 0.349037
v -0.779811 3.5247 0.405953
vn 0.718338 -0.680536 -0.144438
v -0.785516 3.52033 0.401306
vn 0.665261 -0.609472 -0.431244
v -0.803091 3.47685 0.775522
vn 0.644536 -0.762915 -0.050331
v -0.796735 3.50539 0.43157
vn 0.644575 -0.762741 -0.0524315
v -0.832606 3.49804 0.794832
vn -0.804095 -0.580385 0.128779
v -0.823522 3.4875 0.785481
vn -0.692886 -0.719275 -0.0505126
v -0.81917 3.53881 0.425386
vn -0.738268 0.673314 0.0400967
v -0.824574 3.53209 0.43327
vn -0.790092 0.611986 0.035021
v -0.70195 3.65879 0.412094
vn -0.200236 0.287674 -0.936563
v -0.812047 3.54577 0.402927
vn -0.661626 0.663044 -0.350177
v -0.797421 3.48161 0.784563
vn 0.70341 -0.70941 -0.0441823
v -0.571185 3.74086 0.427742
vn 0.720096 -0.678713 -0.144255
v -0.593133 3.77258 0.425791
vn -0.650849 0.674217 -0.349037
v -0.816707 3.53274 0.565904
vn -0.722958 0.689499 0.0438483
v -0.829666 3.49932 0.804187
vn -0.601172 -0.545035 0.584405
v -0.578551 3.70778 0.826362
vn 0.716382 -0.695394 0.0567836
v -0.574122 3.71338 0.831087
vn 0.661626 -0.663044 0.350177
v -0.555238 3.7556 0.456792
vn 0.789612 -0.612473 -0.0372838
v -0.561594 3.72706 0.800744
vn 0.789576 -0.612643 -0.0351827
v -0.578768 3.78528 0.440722
vn 0.538573 0.835028 -0.112553
v -0.567299 3.77612 0.448818
vn 0.692887 0.719275 0.0505132
v -0.595417 3.7476 0.810364
vn -0.703557 0.709068 0.0472188
v -0.589433 3.75376 0.802445
vn -0.645115 0.762294 0.052302
v -0.709551 3.62466 0.823468
vn -0.235337 0.130051 0.963174
v -0.600653 3.73882 0.832708
vn -0.665262 0.609472 0.431243
v -0.787177 3.49163 0.804573
vn 0.714623 -0.697216 0.056606
v -0.560329 3.75029 0.447716
vn 0.738211 -0.67314 -0.0438889
v -0.580524 3.78287 0.431294
vn 0.482447 0.65888 -0.577167
v -0.596695 3.76069 0.588882
vn -0.719114 0.693482 0.0442498
v -0.819566 3.51201 0.809844
vn -0.676044 0.598303 0.430115
v -0.786773 3.51664 0.411854
vn 0.718232 -0.691413 -0.078044
v -0.794453 3.50893 0.414188
vn 0.661006 -0.744929 -0.0902892
v -0.790717 3.51384 0.40525
vn 0.673897 -0.718056 -0.173949
v -0.805641 3.4744 0.786984
vn 0.47909 -0.876135 -0.0534867
v -0.808267 3.47408 0.775393
vn -0.59124 -0.803173 -0.0731361
v -0.802797 3.48893 0.60331
vn 0.472974 -0.878737 -0.0641684
v -0.832551 3.5002 0.788628
vn -0.896583 0.441931 0.0289118
v -0.829138 3.51803 0.566844
vn -0.899161 0.437175 0.0196571
v -0.833501 3.49828 0.776935
vn -0.824725 -0.562613 -0.0573946
v -0.815009 3.54372 0.413579
vn -0.723006 0.690769 0.0100059
v -0.818066 3.54006 0.406921
vn -0.753902 0.651239 -0.0867178
v -0.822236 3.53558 0.415885
vn -0.774875 0.63211 -0.00256841
v -0.691917 3.64925 0.410683
vn 0.0184117 0.0826715 -0.996407
v -0.786845 3.52156 0.399375
vn 0.0406171 0.0334425 -0.998615
v -0.810893 3.54462 0.400844
vn -0.0370283 0.107995 -0.993462
v -0.793893 3.48467 0.797173
vn 0.716986 -0.697006 -0.0106276
v -0.798068 3.48083 0.803075
vn 0.669243 -0.73895 0.0778926
v -0.801458 3.47748 0.793322
vn 0.659512 -0.751634 -0.00948147
v -0.564039 3.74741 0.435117
vn 0.724252 -0.685176 -0.0774149
v -0.570966 3.739 0.446376
vn 0.721466 -0.69094 -0.0456942
v -0.675317 3.63203 0.422512
vn 0.721254 -0.688388 -0.076904
v -0.585313 3.77972 0.427839
vn -0.0486754 0.601963 -0.797039
v -0.57449 3.77062 0.42626
vn 0.269964 0.338912 -0.901254
v -0.591731 3.77169 0.423734
vn -0.00930262 0.136722 -0.990566
v -0.706754 3.64678 0.577239
vn -0.721039 0.691493 0.0440492
v -0.599663 3.76653 0.448129
vn -0.720599 0.692081 0.0419563
v -0.808526 3.55013 0.426315
vn -0.721396 0.691256 0.0418727
v -0.826501 3.50403 0.807742
vn -0.551576 -0.0263011 0.83371
v -0.825417 3.50706 0.804746
vn -0.758555 0.630344 0.165108
v -0.830593 3.50102 0.801015
vn -0.864174 0.466616 0.188343
v -0.571159 3.71544 0.820435
vn 0.723006 -0.690769 -0.0100059
v -0.563932 3.72357 0.818129
vn 0.774875 -0.63211 0.00256847
v -0.568102 3.71909 0.827093
vn 0.753902 -0.651239 0.0867178
v -0.553618 3.75895 0.445386
vn 0.896123 -0.442754 -0.0305291
v -0.552667 3.76088 0.45708
vn 0.782031 0.620199 0.0614802
v -0.556326 3.74429 0.629052
vn 0.899161 -0.437176 -0.0196571
v -0.580528 3.78476 0.44703
vn -0.480375 0.875566 0.0512224
v -0.582667 3.77339 0.592586
vn -0.472976 0.878736 0.0641684
v -0.577902 3.78508 0.458621
vn 0.551719 0.830694 0.0745224
v -0.599396 3.74252 0.82216
vn -0.718232 0.691413 0.0780444
v -0.595451 3.74532 0.828764
vn -0.673897 0.718056 0.173949
v -0.591716 3.75022 0.819827
vn -0.661005 0.744929 0.0902892
v -0.699548 3.61498 0.823655
vn -0.0184117 -0.0826715 0.996407
v -0.575275 3.71453 0.83317
vn 0.0317022 -0.102799 0.994197
v -0.599324 3.7376 0.834639
vn -0.0460566 -0.0283151 0.998537
v -0.786506 3.49263 0.785885
vn 0.720609 -0.692043 -0.0424042
v -0.682473 3.5999 0.809769
vn 0.720039 -0.693844 -0.0111456
v -0.560751 3.7521 0.429268
vn 0.758555 -0.630344 -0.165108
v -0.556926 3.75503 0.438995
vn 0.776364 -0.62541 -0.0782355
v -0.5881 3.77833 0.430939
vn -0.669243 0.73895 -0.0778926
v -0.582054 3.78352 0.434617
vn -0.511653 0.852839 -0.104295
v -0.815203 3.52015 0.787638
vn -0.72146 0.690966 0.0454016
v -0.606339 3.73655 0.809452
vn -0.720667 0.691787 0.0454845
v -0.816891 3.49354 0.808073
vn -0.269964 -0.338912 0.901254
v -0.818486 3.51053 0.811749
vn -0.0737824 -0.0570407 0.995642
v -0.793384 3.51298 0.401863
vn -0.00798854 -0.392726 -0.919621
v -0.796878 3.50812 0.407798
vn 0.517735 -0.825554 -0.224523
v -0.798855 3.50486 0.419773
vn 0.47949 -0.874418 -0.0740432
v -0.801904 3.50265 0.431049
vn -0.59108 -0.802441 -0.0819283
v -0.820978 3.50235 0.604088
vn -0.692649 -0.717638 -0.0723412
v -0.827138 3.52685 0.432591
vn -0.810967 -0.581151 -0.0677977
v -0.825765 3.53067 0.421417
vn -0.895009 0.445977 0.00791834
v -0.823357 3.53351 0.409415
vn -0.858097 0.493903 -0.140465
v -0.81903 3.53757 0.40343
vn -0.520527 0.113087 -0.846323
v -0.809382 3.52725 0.401727
vn -0.235679 -0.184974 -0.954065
v -0.804115 3.47563 0.799397
vn 0.511653 -0.852838 0.104295
v -0.779829 3.52261 0.424562
vn 0.720672 -0.691763 -0.0457773
v -0.567682 3.74863 0.422265
vn 0.0684727 0.0623026 -0.995706
v -0.703696 3.65925 0.424246
vn -0.720039 0.693844 0.0111456
v -0.829242 3.50412 0.795019
vn -0.776364 0.62541 0.0782356
v -0.567138 3.72158 0.830585
vn 0.44972 -0.0309084 0.892635
v -0.562812 3.72564 0.824599
vn 0.858097 -0.493903 0.140465
v -0.560403 3.72848 0.812597
vn 0.895749 -0.444448 -0.00997051
v -0.55903 3.73231 0.801423
vn 0.781869 0.61947 0.0702727
v -0.570488 3.76188 0.63025
vn 0.692649 0.717637 0.072341
v -0.584265 3.75651 0.802965
vn 0.531694 0.842733 0.0842706
v -0.587313 3.75429 0.814241
vn -0.478531 0.875066 0.0725745
v -0.58929 3.75103 0.826217
vn -0.517735 0.825554 0.224523
v -0.592784 3.74618 0.832151
vn -0.0797231 0.46257 0.882991
v -0.581999 3.7369 0.832605
vn 0.235678 0.184974 0.954065
v -0.577642 3.70903 0.807699
vn 0.721404 -0.69122 -0.042321
v -0.555575 3.75813 0.433
vn 0.864174 -0.466616 -0.188343
v -0.58471 3.78168 0.440692
vn -0.659512 0.751634 0.00948157
v -0.710851 3.62712 0.811502
vn -0.721254 0.688388 0.0769043
v -0.794438 3.48746 0.81028
vn 0.00384799 -0.131659 0.991288
v -0.800855 3.47943 0.806175
vn -0.0405286 -0.538847 0.841428
v -0.678663 3.61575 0.616126
vn 0.721039 -0.691493 -0.0440492
v -0.559667 3.75513 0.426273
vn 0.482262 0.11521 -0.868418
v -0.592276 3.77449 0.436842
vn -0.716986 0.697006 0.0106276
v -0.822129 3.51175 0.798898
vn -0.724252 0.685176 0.0774149
f 1//1 2//2 3//3
f 1//1 3//3 4//4
f 1//1 4//4 5//5
f 1//1 5//5 6//6
f 1//1 6//6 2//2
f 7//7 8//8 9//9
f 10//10 11//11 12//12
f 13//13 14//14 15//15
f 16//16 17//17 18//18
f 19//19 20//20 21//21
f 22//22 23//23 24//24
f 22//22 24//24 25//25
f 22//22 25//25 26//26
f 22//22 26//26 27//27
f 22//22 27//27 23//23
f 28//28 29//29 30//30
f 31//31 32//32 33//33
f 34//34 35//35 36//36
f 37//37 38//38 39//39
f 40//40 41//41 42//42
f 13//13 43//43 44//44
f 10//10 45//45 46//46
f 7//7 47//47 48//48
f 19//19 49//49 50//50
f 16//16 51//51 52//52
f 10//10 53//53 45//45
f 13//13 54//54 43//43
f 16//16 55//55 51//51
f 19//19 56//56 49//49
f 7//7 57//57 47//47
f 40//40 58//58 59//59
f 28//28 60//60 61//61
f 31//31 62//62 63//63
f 34//34 64//64 65//65
f 37//37 66//66 67//67
f 40//40 68//68 58//58
f 28//28 69//69 60//60
f 31//31 70//70 62//62
f 34//34 71//71 64//64
f 37//37 72//72 66//66
f 10//10 46//46 11//11
f 7//7 48//48 8//8
f 19//19 50//50 20//20
f 16//16 52//52 17//17
f 13//13 44//44 14//14
f 40//40 42//42 68//68
f 28//28 30//30 69//69
f 31//31 33//33 70//70
f 34//34 36//36 71//71
f 37//37 39//39 72//72
f 28//28 61//61 29//29
f 31//31 63//63 32//32
f 34//34 65//65 35//35
f 37//37 67//67 38//38
f 40//40 59//59 41//41
f 10//10 12//12 53//53
f 13//13 15//15 54//54
f 16//16 18//18 55//55
f 19//19 21//21 56//56
f 7//7 9//9 57//57
f 73//73 74//74 75//75
f 76//76 77//77 78//78
f 79//79 80//80 81//81
f 82//82 83//83 84//84
f 85//85 86//86 87//87
f 88//88 89//89 90//90
f 91//91 92//92 93//93
f 94//94 95//95 96//96
f 97//97 98//98 99//99
f 100//100 101//101 102//102
f 103//103 104//104 105//105
f 106//106 107//107 108//108
f 109//109 110//110 111//111
f 112//112 113//113 114//114
f 115//115 116//116 117//117
f 88//88 118//118 119//119
f 91//91 120//120 121//121
f 94//94 122//122 123//123
f 97//97 124//124 125//125
f 100//100 126//126 127//127
f 128//128 129//129 2//2
f 130//130 131//131 3//3
f 132//132 133//133 4//4
f 134//134 135//135 5//5
f 136//136 137//137 6//6
f 76//76 138//138 8//8
f 73//73 139//139 11//11
f 85//85 140//140 14//14
f 82//82 141//141 17//17
f 79//79 142//142 20//20
f 143//143 144//144 23//23
f 145//145 146//146 24//24
f 147//147 148//148 25//25
f 149//149 150//150 26//26
f 151//151 152//152 27//27
f 103//103 153//153 29//29
f 106//106 154//154 32//32
f 109//109 155//155 35//35
f 112//112 156//156 38//38
f 115//115 157//157 41//41
f 73//73 75//75 43//43
f 76//76 78//78 45//45
f 79//79 81//81 47//47
f 82//82 84//84 49//49
f 85//85 87//87 51//51
f 88//88 90//90 53//53
f 91//91 93//93 54//54
f 94//94 96//96 55//55
f 97//97 99//99 56//56
f 100//100 102//102 57//57
f 103//103 105//105 58//58
f 106//106 108//108 60//60
f 109//109 111//111 62//62
f 112//112 114//114 64//64
f 115//115 117//117 66//66
f 88//88 119//119 68//68
f 91//91 121//121 69//69
f 94//94 123//123 70//70
f 97//97 125//125 71//71
f 100//100 127//127 72//72
f 130//130 74//74 46//46
f 132//132 77//77 48//48
f 134//134 80//80 50//50
f 136//136 83//83 52//52
f 128//128 86//86 44//44
f 158//158 89//89 42//42
f 159//159 92//92 30//30
f 160//160 95//95 33//33
f 161//161 98//98 36//36
f 162//162 101//101 39//39
f 145//145 104//104 61//61
f 147//147 107//107 63//63
f 149//149 110//110 65//65
f 151//151 113//113 67//67
f 143//143 116//116 59//59
f 159//159 118//118 12//12
f 160//160 120//120 15//15
f 161//161 122//122 18//18
f 162//162 124//124 21//21
f 158//158 126//126 9//9
f 130//130 129//129 74//74
f 132//132 131//131 77//77
f 134//134 133//133 80//80
f 136//136 135//135 83//83
f 128//128 137//137 86//86
f 158//158 138//138 89//89
f 159//159 139//139 92//92
f 160//160 140//140 95//95
f 161//161 141//141 98//98
f 162//162 142//142 101//101
f 145//145 144//144 104//104
f 147//147 146//146 107//107
f 149//149 148//148 110//110
f 151//151 150//150 113//113
f 143//143 152//152 116//116
f 159//159 153//153 118//118
f 160//160 154//154 120//120
f 161//161 155//155 122//122
f 162//162 156//156 124//124
f 158//158 157//157 126//126
f 130//130 3//3 129//129
f 132//132 4//4 131//131
f 134//134 5//5 133//133
f 136//136 6//6 135//135
f 128//128 2//2 137//137
f 158//158 9//9 138//138
f 159//159 12//12 139//139
f 160//160 15//15 140//140
f 161//161 18//18 141//141
f 162//162 21//21 142//142
f 145//145 24//24 144//144
f 147//147 25//25 146//146
f 149//149 26//26 148//148
f 151//151 27//27 150//150
f 143//143 23//23 152//152
f 159//159 30//30 153//153
f 160//160 33//33 154//154
f 161//161 36//36 155//155
f 162//162 39//39 156//156
f 158//158 42//42 157//157
f 128//128 44//44 75//75
f 130//130 46//46 78//78
f 132//132 48//48 81//81
f 134//134 50//50 84//84
f 136//136 52//52 87//87
f 76//76 45//45 90//90
f 73//73 43//43 93//93
f 85//85 51//51 96//96
f 82//82 49//49 99//99
f 79//79 47//47 102//102
f 143//143 59//59 105//105
f 145//145 61//61 108//108
f 147//147 63//63 111//111
f 149//149 65//65 114//114
f 151//151 67//67 117//117
f 103//103 58//58 119//119
f 106//106 60//60 121//121
f 109//109 62//62 123//123
f 112//112 64//64 125//125
f 115//115 66//66 127//127
f 73//73 11//11 74//74
f 76//76 8//8 77//77
f 79//79 20//20 80//80
f 82//82 17//17 83//83
f 85//85 14//14 86//86
f 88//88 68//68 89//89
f 91//91 69//69 92//92
f 94//94 70//70 95//95
f 97//97 71//71 98//98
f 100//100 72//72 101//101
f 103//103 29//29 104//104
f 106//106 32//32 107//107
f 109//109 35//35 110//110
f 112//112 38//38 113//113
f 115//115 41//41 116//116
f 88//88 53//53 118//118
f 91//91 54//54 120//120
f 94//94 55//55 122//122
f 97//97 56//56 124//124
f 100//100 57//57 126//126
f 128//128 75//75 129//129
f 130//130 78//78 131//131
f 132//132 81//81 133//133
f 134//134 84//84 135//135
f 136//136 87//87 137//137
f 76//76 90//90 138//138
f 73//73 93//93 139//139
f 85//85 96//96 140//140
f 82//82 99//99 141//141
f 79//79 102//102 142//142
f 143//143 105//105 144//144
f 145//145 108//108 146//146
f 147//147 111//111 148//148
f 149//149 114//114 150//150
f 151//151 117//117 152//152
f 103//103 119//119 153//153
f 106//106 121//121 154//154
f 109//109 123//123 155//155
f 112//112 125//125 156//156
f 115//115 127//127 157//157
f 129//129 3//3 2//2
f 131//131 4//4 3//3
f 133//133 5//5 4//4
f 135//135 6//6 5//5
f 137//137 2//2 6//6
f 138//138 9//9 8//8
f 139//139 12//12 11//11
f 140//140 15//15 14//14
f 141//141 18//18 17//17
f 142//142 21//21 20//20
f 144//144 24//24 23//23
f 146//146 25//25 24//24
f 148//148 26//26 25//25
f 150//150 27//27 26//26
f 152//152 23//23 27//27
f 153//153 30//30 29//29
f 154//154 33//33 32//32
f 155//155 36//36 35//35
f 156//156 39//39 38//38
f 157//157 42//42 41//41
f 75//75 44//44 43//43
f 78//78 46//46 45//45
f 81//81 48//48 47//47
f 84//84 50//50 49//49
f 87//87 52//52 51//51
f 90//90 45//45 53//53
f 93//93 43//43 54//54
f 96//96 51//51 55//55
f 99//99 49//49 56//56
f 102//102 47//47 57//57
f 105//105 59//59 58//58
f 108//108 61//61 60//60
f 111//111 63//63 62//62
f 114//114 65//65 64//64
f 117//117 67//67 66//66
f 119//119 58//58 68//68
f 121//121 60//60 69//69
f 123//123 62//62 70//70
f 125//125 64//64 71//71
f 127//127 66//66 72//72
f 74//74 11//11 46//46
f 77//77 8//8 48//48
f 80//80 20//20 50//50
f 83//83 17//17 52//52
f 86//86 14//14 44//44
f 89//89 68//68 42//42
f 92//92 69//69 30//30
f 95//95 70//70 33//33
f 98//98 71//71 36//36
f 101//101 72//72 39//39
f 104//104 29//29 61//61
f 107//107 32//32 63//63
f 110//110 35//35 65//65
f 113//113 38//38 67//67
f 116//116 41//41 59//59
f 118//118 53//53 12//12
f 120//120 54//54 15//15
f 122//122 55//55 18//18
f 124//124 56//56 21//21
f 126//126 57//57 9//9
f 129//129 75//75 74//74
f 131//131 78//78 77//77
f 133//133 81//81 80//80
f 135//135 84//84 83//83
f 137//137 87//87 86//86
f 138//138 90//90 89//89
f 139//139 93//93 92//92
f 140//140 96//96 95//95
f 141//141 99//99 98//98
f 142//142 102//102 101//101
f 144//144 105//105 104//104
f 146//146 108//108 107//107
f 148//148 111//111 110//110
f 150//150 114//114 113//113
f 152//152 117//117 116//116
f 153//153 119//119 118//118
f 154//154 121//121 120//120
f 155//155 123//123 122//122
f 156//156 125//125 124//124
f 157//157 127//127 126//126
