# Created by Open3D 
# object name: part_080
# number of vertices: 162
# number of triangles: 320
v 2.23305 4.03817 0.30276
vn 0.0640044 -0.55465 -0.829618
v 2.23697 4.02175 0.316102
vn 0.393418 -0.622657 -0.676403
v 2.22532 4.02196 0.314376
vn -0.0925 -0.656667 -0.748486
v 2.21837 4.04075 0.302623
vn -0.236683 -0.497684 -0.834441
v 2.23109 4.05082 0.295522
vn -0.0297702 -0.34308 -0.938834
v 2.24247 4.04926 0.298134
vn 0.426732 -0.470879 -0.772122
v 1.792 4.16614 0.363696
vn -0.551551 -0.376037 -0.744572
v 1.79266 4.1475 0.374154
vn -0.457692 -0.550701 -0.69803
v 1.78352 4.15333 0.378753
vn -0.81668 -0.271531 -0.50922
v 2.01128 4.08796 0.353997
vn -0.174314 -0.843031 0.508835
v 2.21779 4.0302 0.328816
vn -0.169129 -0.836295 0.521542
v 2.01454 4.09406 0.364787
vn -0.165686 -0.826896 0.537393
v 2.29494 4.12107 0.489803
vn 0.0313102 -0.864607 0.501473
v 2.298 4.12122 0.488767
vn 0.878834 -0.477025 0.00984014
v 2.3439 4.21399 0.646397
vn 0.166344 -0.867259 0.469246
v 2.30114 4.15205 0.469574
vn 0.354643 0.752615 -0.554796
v 2.25053 4.06539 0.320437
vn 0.244929 0.798837 -0.549425
v 2.34311 4.24212 0.619358
vn 0.245471 0.799889 -0.547651
v 2.06333 4.10725 0.326476
vn 0.155643 0.807388 -0.569121
v 1.82038 4.17419 0.355299
vn 0.141191 0.779896 -0.609776
v 1.81325 4.18201 0.364351
vn 0.158558 0.815606 -0.556459
v 1.90137 4.37493 0.716843
vn -0.0640094 0.554651 0.829618
v 1.89081 4.35814 0.725184
vn -0.421278 0.48326 0.767453
v 1.90219 4.35658 0.727796
vn 0.0417054 0.402605 0.914423
v 1.91598 4.37199 0.717215
vn 0.236683 0.497685 0.834441
v 1.90796 4.38545 0.708942
vn 0.101783 0.703323 0.703546
v 1.89631 4.38565 0.707216
vn -0.394352 0.632804 0.666367
v 2.11551 4.28694 0.690549
vn -0.155641 -0.807385 0.569126
v 1.90899 4.34466 0.715759
vn -0.160973 -0.814846 0.556879
v 2.11217 4.28044 0.680021
vn -0.164488 -0.824608 0.541262
v 2.34242 4.24695 0.655907
vn 0.55155 0.376038 0.744572
v 2.33485 4.23104 0.668018
vn 0.406896 0.296642 0.863967
v 2.34427 4.22657 0.662534
vn 0.788809 0.132136 0.600267
v 2.16756 4.30622 0.663028
vn 0.174316 0.843035 -0.508829
v 2.31928 4.2651 0.647196
vn 0.188178 0.8658 -0.463659
v 2.32655 4.25794 0.637711
vn 0.1722 0.835496 -0.521817
v 1.83834 4.28633 0.533515
vn -0.0313099 0.864606 -0.501473
v 1.88912 4.37385 0.682083
vn 0.0840818 0.846719 -0.525354
v 1.79654 4.19713 0.383162
vn 0.0835228 0.845673 -0.527126
v 1.83215 4.25536 0.553744
vn -0.354642 -0.752616 0.554796
v 1.82948 4.25717 0.553499
vn -0.962741 0.057326 0.26428
v 1.78331 4.16303 0.396767
vn -0.477265 -0.68808 0.546593
v 2.24417 4.03355 0.341235
vn -0.0840821 -0.846719 0.525354
v 2.24675 4.02855 0.332736
vn 0.162899 -0.873825 0.458142
v 1.81401 4.14231 0.376123
vn -0.187933 -0.865535 0.464253
v 2.20574 4.02864 0.322
vn -0.186247 -0.866024 0.46402
v 1.79843 4.17637 0.3553
vn -0.391405 -0.238148 -0.888869
v 1.80526 4.16062 0.3597
vn -0.278404 -0.485578 -0.828677
v 2.22429 4.06274 0.307559
vn 0.161284 0.81466 -0.55706
v 2.21211 4.06052 0.301177
vn 0.14254 0.77868 -0.611015
v 2.3038 4.15023 0.469819
vn 0.948969 0.0333182 -0.313605
v 2.25283 4.05894 0.312891
vn 0.473832 0.68151 -0.557698
v 1.80674 4.14947 0.385608
vn -0.171802 -0.835518 0.521914
v 2.33675 4.21028 0.640156
vn -0.0835228 -0.845673 0.527126
v 2.34997 4.24438 0.626552
vn 0.477268 0.688078 -0.546592
v 2.06723 4.11359 0.336925
vn 0.164488 0.824608 -0.541262
v 1.78902 4.18084 0.360785
vn -0.787896 -0.118441 -0.604311
v 1.88275 4.34201 0.702882
vn -0.244931 -0.798837 0.549426
v 1.88046 4.34847 0.710427
vn -0.473828 -0.681513 0.557698
v 2.3129 4.23321 0.668019
vn -0.140962 -0.779578 0.610236
v 1.92117 4.34688 0.722142
vn -0.142651 -0.779095 0.61046
v 2.34062 4.2599 0.649165
vn 0.463422 0.598388 0.653584
v 2.32909 4.25212 0.660138
vn 0.278403 0.485577 0.828677
v 1.9155 4.37721 0.694502
vn 0.169337 0.836184 -0.521653
v 1.92755 4.37876 0.701318
vn 0.186166 0.865753 -0.464558
v 1.83528 4.28618 0.534551
vn -0.832315 0.550178 -0.0674973
v 1.88653 4.37885 0.690583
vn -0.162898 0.873825 -0.458143
v 1.79017 4.16528 0.403961
vn -0.24547 -0.799889 0.547651
v 2.32004 4.22539 0.658968
vn -0.158298 -0.81562 0.556512
v 2.34977 4.25408 0.644566
vn 0.820268 0.280368 0.498551
v 2.16486 4.29996 0.65216
vn 0.165686 0.826896 -0.537393
v 1.78939 4.19341 0.376922
vn -0.166346 0.867259 -0.469246
v 2.23341 4.02953 0.332336
vn -0.138921 -0.835053 0.532342
v 2.22666 4.02454 0.322056
vn -0.150159 -0.867033 0.475085
v 2.23903 4.0249 0.325839
vn -0.0759525 -0.874604 0.478851
v 1.80004 4.1451 0.374926
vn -0.233777 -0.921536 0.310033
v 1.81236 4.14059 0.369635
vn -0.28455 -0.614279 -0.735997
v 2.00886 4.08382 0.345201
vn -0.226711 -0.925618 0.303039
v 1.8062 4.17592 0.354797
vn 0.0864008 0.674095 -0.733574
v 2.05847 4.1022 0.318973
vn 0.0919678 0.668401 -0.738093
v 1.81814 4.16948 0.35076
vn -0.21466 -0.27774 -0.936366
v 2.23988 4.06186 0.311215
vn 0.191098 0.815785 -0.545872
v 2.24529 4.05623 0.305382
vn 0.251929 0.765344 -0.592267
v 2.23302 4.05636 0.301274
vn 0.179013 0.779487 -0.600296
v 2.30242 4.1385 0.477186
vn 0.952043 -0.276247 -0.131537
v 2.24925 4.02921 0.331315
vn 0.935114 -0.334907 -0.11575
v 2.25476 4.05675 0.313327
vn 0.95579 -0.228696 -0.184832
v 1.79457 4.15686 0.392968
vn -0.192987 -0.819365 0.539813
v 1.78594 4.15637 0.388439
vn -0.278388 -0.815867 0.506814
v 1.79486 4.14983 0.381715
vn -0.215025 -0.848209 0.484052
v 2.33225 4.2182 0.651471
vn -0.137055 -0.831467 0.538404
v 2.31546 4.21603 0.643594
vn -0.163612 -0.825909 0.539542
v 2.28392 4.12346 0.491804
vn -0.138656 -0.833088 0.535479
v 2.35167 4.25057 0.637693
vn 0.938663 0.332288 -0.0921755
v 2.35075 4.23903 0.646017
vn 0.980421 -0.0778866 0.180854
v 2.35202 4.2424 0.627345
vn 0.966085 -0.209043 -0.151597
v 2.11624 4.20678 0.494476
vn 0.165087 0.825754 -0.53933
v 2.32203 4.2489 0.622129
vn 0.166922 0.825493 -0.539165
v 2.22934 4.07197 0.322868
vn 0.166673 0.825019 -0.539966
v 1.78748 4.1862 0.366443
vn -0.780492 0.458883 -0.424568
v 1.7922 4.18769 0.367982
vn 0.0494652 0.82409 -0.564295
v 1.79313 4.18137 0.359696
vn -0.0286509 0.732843 -0.679794
v 1.89341 4.34554 0.712103
vn -0.191098 -0.815785 0.545872
v 1.90026 4.35104 0.722045
vn -0.179014 -0.779486 0.600297
v 1.88799 4.35118 0.717936
vn -0.25193 -0.765343 0.592268
v 2.32709 4.23149 0.668521
vn -0.0854262 -0.675082 0.73278
v 2.31514 4.23792 0.672559
vn 0.232622 0.354541 0.905642
v 2.11823 4.29261 0.698347
vn -0.0919679 -0.668402 0.738093
v 2.33325 4.26231 0.648393
vn 0.23527 0.920659 -0.311504
v 2.16784 4.31098 0.672119
vn 0.226711 0.925619 -0.303038
v 2.32092 4.26682 0.653683
vn 0.291208 0.655218 0.697057
v 1.89987 4.37788 0.690982
vn 0.138921 0.835053 -0.532342
v 1.89425 4.3825 0.697479
vn 0.0759519 0.874605 -0.478851
v 1.90662 4.38286 0.701263
vn 0.150159 0.867033 -0.475085
v 1.83208 4.27497 0.54217
vn -0.952043 0.276248 0.131536
v 1.87852 4.35065 0.709991
vn -0.954842 0.236232 0.180199
v 1.88403 4.37819 0.692003
vn -0.933131 0.342037 0.110806
v 1.81126 4.15851 0.401189
vn -0.166563 -0.825597 0.539116
v 1.84287 4.25144 0.552741
vn -0.191383 -0.817789 0.542764
v 2.34108 4.21971 0.655336
vn -0.0494651 -0.82409 0.564295
v 2.33206 4.22575 0.662386
vn -0.114153 -0.798296 0.591348
v 2.34734 4.25103 0.634879
vn 0.27839 0.815867 -0.506814
v 2.34621 4.25636 0.643817
vn 0.347955 0.864251 -0.363314
v 1.81783 4.19137 0.379724
vn 0.163847 0.825842 -0.539574
v 1.91051 4.3683 0.678985
vn 0.164094 0.826313 -0.538776
v 1.78373 4.17434 0.373402
vn -0.980421 0.077886 -0.180857
v 1.78678 4.19254 0.377985
vn -0.943424 0.322388 0.0775668
v 2.24209 4.02322 0.322005
vn 0.676815 -0.705768 -0.209315
v 2.23307 4.02163 0.317881
vn -0.0808017 -0.941769 0.326409
v 2.21826 4.02375 0.317143
vn -0.217067 -0.92638 0.307737
v 2.20454 4.02679 0.315451
vn -0.276171 -0.616709 -0.737156
v 2.01167 4.10064 0.330226
vn -0.257605 -0.491749 -0.831759
v 2.21032 4.05569 0.296575
vn -0.212153 -0.305659 -0.928204
v 2.22442 4.05456 0.297015
vn 0.104275 0.670603 -0.734451
v 2.23913 4.05195 0.298076
vn 0.238503 0.655307 -0.716721
v 2.24796 4.05259 0.302822
vn 0.7694 0.00915974 -0.638701
v 2.24652 4.04006 0.309462
vn 0.79253 -0.436558 -0.425809
v 1.78707 4.15104 0.379502
vn -0.347957 -0.864252 0.363311
v 2.22277 4.0391 0.344333
vn -0.16386 -0.826382 0.538742
v 2.34651 4.21486 0.645333
vn 0.945458 -0.315162 -0.0823534
v 2.29042 4.15596 0.470577
vn 0.191383 0.817789 -0.542764
v 1.80122 4.18165 0.360933
vn 0.114153 0.798296 -0.591348
v 1.88532 4.35481 0.720497
vn -0.795079 0.114251 0.595648
v 1.89415 4.35545 0.725243
vn -0.238503 -0.655308 0.71672
v 1.90886 4.35284 0.726304
vn -0.102127 -0.670228 0.735095
v 1.92296 4.35171 0.726743
vn 0.224244 0.356971 0.9068
v 2.12283 4.31283 0.68913
vn 0.257605 0.491749 0.831759
v 1.92874 4.38061 0.707868
vn 0.285458 0.676947 0.678421
v 1.91502 4.38366 0.706175
vn 0.218503 0.926272 -0.307044
v 1.90021 4.38577 0.705437
vn 0.0808015 0.941768 -0.32641
v 1.8912 4.38418 0.701314
vn -0.611222 0.782003 0.121979
v 1.88796 4.37332 0.709958
vn -0.792528 0.436557 0.425813
v 1.90394 4.33544 0.700451
vn -0.166315 -0.825125 0.539916
v 2.34015 4.22604 0.663622
vn 0.0286503 -0.732844 0.679793
v 2.33843 4.25757 0.641604
vn 0.215026 0.848209 -0.484052
v 1.84937 4.28394 0.531514
vn 0.138656 0.833089 -0.535479
v 1.78127 4.165 0.395973
vn -0.965185 0.216487 0.1468
v 1.78161 4.15683 0.385625
vn -0.973754 -0.226831 0.018734
v 2.06334 4.18719 0.522446
vn -0.165088 -0.825754 0.539329
v 2.3458 4.2212 0.656876
vn 0.855491 -0.364692 0.367606
v 2.33872 4.25054 0.63035
vn 0.192988 0.819364 -0.539813
v 1.80103 4.1892 0.371847
vn 0.137055 0.831467 -0.538404
f 1//1 2//2 3//3
f 1//1 3//3 4//4
f 1//1 4//4 5//5
f 1//1 5//5 6//6
f 1//1 6//6 2//2
f 7//7 8//8 9//9
f 10//10 11//11 12//12
f 13//13 14//14 15//15
f 16//16 17//17 18//18
f 19//19 20//20 21//21
f 22//22 23//23 24//24
f 22//22 24//24 25//25
f 22//22 25//25 26//26
f 22//22 26//26 27//27
f 22//22 27//27 23//23
f 28//28 29//29 30//30
f 31//31 32//32 33//33
f 34//34 35//35 36//36
f 37//37 38//38 39//39
f 40//40 41//41 42//42
f 13//13 43//43 44//44
f 10//10 45//45 46//46
f 7//7 47//47 48//48
f 19//19 49//49 50//50
f 16//16 51//51 52//52
f 10//10 53//53 45//45
f 13//13 54//54 43//43
f 16//16 55//55 51//51
f 19//19 56//56 49//49
f 7//7 57//57 47//47
f 40//40 58//58 59//59
f 28//28 60//60 61//61
f 31//31 62//62 63//63
f 34//34 64//64 65//65
f 37//37 66//66 67//67
f 40//40 68//68 58//58
f 28//28 69//69 60//60
f 31//31 70//70 62//62
f 34//34 71//71 64//64
f 37//37 72//72 66//66
f 10//10 46//46 11//11
f 7//7 48//48 8//8
f 19//19 50//50 20//20
f 16//16 52//52 17//17
f 13//13 44//44 14//14
f 40//40 42//42 68//68
f 28//28 30//30 69//69
f 31//31 33//33 70//70
f 34//34 36//36 71//71
f 37//37 39//39 72//72
f 28//28 61//61 29//29
f 31//31 63//63 32//32
f 34//34 65//65 35//35
f 37//37 67//67 38//38
f 40//40 59//59 41//41
f 10//10 12//12 53//53
f 13//13 15//15 54//54
f 16//16 18//18 55//55
f 19//19 21//21 56//56
f 7//7 9//9 57//57
f 73//73 74//74 75//75
f 76//76 77//77 78//78
f 79//79 80//80 81//81
f 82//82 83//83 84//84
f 85//85 86//86 87//87
f 88//88 89//89 90//90
f 91//91 92//92 93//93
f 94//94 95//95 96//96
f 97//97 98//98 99//99
f 100//100 101//101 102//102
f 103//103 104//104 105//105
f 106//106 107//107 108//108
f 109//109 110//110 111//111
f 112//112 113//113 114//114
f 115//115 116//116 117//117
f 88//88 118//118 119//119
f 91//91 120//120 121//121
f 94//94 122//122 123//123
f 97//97 124//124 125//125
f 100//100 126//126 127//127
f 128//128 129//129 2//2
f 130//130 131//131 3//3
f 132//132 133//133 4//4
f 134//134 135//135 5//5
f 136//136 137//137 6//6
f 76//76 138//138 8//8
f 73//73 139//139 11//11
f 85//85 140//140 14//14
f 82//82 141//141 17//17
f 79//79 142//142 20//20
f 143//143 144//144 23//23
f 145//145 146//146 24//24
f 147//147 148//148 25//25
f 149//149 150//150 26//26
f 151//151 152//152 27//27
f 103//103 153//153 29//29
f 106//106 154//154 32//32
f 109//109 155//155 35//35
f 112//112 156//156 38//38
f 115//115 157//157 41//41
f 73//73 75//75 43//43
f 76//76 78//78 45//45
f 79//79 81//81 47//47
f 82//82 84//84 49//49
f 85//85 87//87 51//51
f 88//88 90//90 53//53
f 91//91 93//93 54//54
f 94//94 96//96 55//55
f 97//97 99//99 56//56
f 100//100 102//102 57//57
f 103//103 105//105 58//58
f 106//106 108//108 60//60
f 109//109 111//111 62//62
f 112//112 114//114 64//64
f 115//115 117//117 66//66
f 88//88 119//119 68//68
f 91//91 121//121 69//69
f 94//94 123//123 70//70
f 97//97 125//125 71//71
f 100//100 127//127 72//72
f 130//130 74//74 46//46
f 132//132 77//77 48//48
f 134//134 80//80 50//50
f 136//136 83//83 52//52
f 128//128 86//86 44//44
f 158//158 89//89 42//42
f 159//159 92//92 30//30
f 160//160 95//95 33//33
f 161//161 98//98 36//36
f 162//162 101//101 39//39
f 145//145 104//104 61//61
f 147//147 107//107 63//63
f 149//149 110//110 65//65
f 151//151 113//113 67//67
f 143//143 116//116 59//59
f 159//159 118//118 12//12
f 160//160 120//120 15//15
f 161//161 122//122 18//18
f 162//162 124//124 21//21
f 158//158 126//126 9//9
f 130//130 129//129 74//74
f 132//132 131//131 77//77
f 134//134 133//133 80//80
f 136//136 135//135 83//83
f 128//128 137//137 86//86
f 158//158 138//138 89//89
f 159//159 139//139 92//92
f 160//160 140//140 95//95
f 161//161 141//141 98//98
f 162//162 142//142 101//101
f 145//145 144//144 104//104
f 147//147 146//146 107//107
f 149//149 148//148 110//110
f 151//151 150//150 113//113
f 143//143 152//152 116//116
f 159//159 153//153 118//118
f 160//160 154//154 120//120
f 161//161 155//155 122//122
f 162//162 156//156 124//124
f 158//158 157//157 126//126
f 130//130 3//3 129//129
f 132//132 4//4 131//131
f 134//134 5//5 133//133
f 136//136 6//6 135//135
f 128//128 2//2 137//137
f 158//158 9//9 138//138
f 159//159 12//12 139//139
f 160//160 15//15 140//140
f 161//161 18//18 141//141
f 162//162 21//21 142//142
f 145//145 24//24 144//144
f 147//147 25//25 146//146
f 149//149 26//26 148//148
f 151//151 27//27 150//150
f 143//143 23//23 152//152
f 159//159 30//30 153//153
f 160//160 33//33 154//154
f 161//161 36//36 155//155
f 162//162 39//39 156//156
f 158//158 42//42 157//157
f 128//128 44//44 75//75
f 130//130 46//46 78//78
f 132//132 48//48 81//81
f 134//134 50//50 84//84
f 136//136 52//52 87//87
f 76//76 45//45 90//90
f 73//73 43//43 93//93
f 85//85 51//51 96//96
f 82//82 49//49 99//99
f 79//79 47//47 102//102
f 143//143 59//59 105//105
f 145//145 61//61 108//108
f 147//147 63//63 111//111
f 149//149 65//65 114//114
f 151//151 67//67 117//117
f 103//103 58//58 119//119
f 106//106 60//60 121//121
f 109//109 62//62 123//123
f 112//112 64//64 125//125
f 115//115 66//66 127//127
f 73//73 11//11 74//74
f 76//76 8//8 77//77
f 79//79 20//20 80//80
f 82//82 17//17 83//83
f 85//85 14//14 86//86
f 88//88 68//68 89//89
f 91//91 69//69 92//92
f 94//94 70//70 95//95
f 97//97 71//71 98//98
f 100//100 72//72 101//101
f 103//103 29//29 104//104
f 106//106 32//32 107//107
f 109//109 35//35 110//110
f 112//112 38//38 113//113
f 115//115 41//41 116//116
f 88//88 53//53 118//118
f 91//91 54//54 120//120
f 94//94 55//55 122//122
f 97//97 56//56 124//124
f 100//100 57//57 126//126
f 128//128 75//75 129//129
f 130//130 78//78 131//131
f 132//132 81//81 133//133
f 134//134 84//84 135//135
f 136//136 87//87 137//137
f 76//76 90//90 138//138
f 73//73 93//93 139//139
f 85//85 96//96 140//140
f 82//82 99//99 141//141
f 79//79 102//102 142//142
f 143//143 105//105 144//144
f 145//145 108//108 146//146
f 147//147 111//111 148//148
f 149//149 114//114 150//150
f 151//151 117//117 152//152
f 103//103 119//119 153//153
f 106//106 121//121 154//154
f 109//109 123//123 155//155
f 112//112 125//125 156//156
f 115//115 127//127 157//157
f 129//129 3//3 2//2
f 131//131 4//4 3//3
f 133//133 5//5 4//4
f 135//135 6//6 5//5
f 137//137 2//2 6//6
f 138//138 9//9 8//8
f 139//139 12//12 11//11
f 140//140 15//15 14//14
f 141//141 18//18 17//17
f 142//142 21//21 20//20
f 144//144 24//24 23//23
f 146//146 25//25 24//24
f 148//148 26//26 25//25
f 150//150 27//27 26//26
f 152//152 23//23 27//27
f 153//153 30//30 29//29
f 154//154 33//33 32//32
f 155//155 36//36 35//35
f 156//156 39//39 38//38
f 157//157 42//42 41//41
f 75//75 44//44 43//43
f 78//78 46//46 45//45
f 81//81 48//48 47//47
f 84//84 50//50 49//49
f 87//87 52//52 51//51
f 90//90 45//45 53//53
f 93//93 43//43 54//54
f 96//96 51//51 55//55
f 99//99 49//49 56//56
f 102//102 47//47 57//57
f 105//105 59//59 58//58
f 108//108 61//61 60//60
f 111//111 63//63 62//62
f 114//114 65//65 64//64
f 117//117 67//67 66//66
f 119//119 58//58 68//68
f 121//121 60//60 69//69
f 123//123 62//62 70//70
f 125//125 64//64 71//71
f 127//127 66//66 72//72
f 74//74 11//11 46//46
f 77//77 8//8 48//48
f 80//80 20//20 50//50
f 83//83 17//17 52//52
f 86//86 14//14 44//44
f 89//89 68//68 42//42
f 92//92 69//69 30//30
f 95//95 70//70 33//33
f 98//98 71//71 36//36
f 101//101 72//72 39//39
f 104//104 29//29 61//61
f 107//107 32//32 63//63
f 110//110 35//35 65//65
f 113//113 38//38 67//67
f 116//116 41//41 59//59
f 118//118 53//53 12//12
f 120//120 54//54 15//15
f 122//122 55//55 18//18
f 124//124 56//56 21//21
f 126//126 57//57 9//9
f 129//129 75//75 74//74
f 131//131 78//78 77//77
f 133//133 81//81 80//80
f 135//135 84//84 83//83
f 137//137 87//87 86//86
f 138//138 90//90 89//89
f 139//139 93//93 92//92
f 140//140 96//96 95//95
f 141//141 99//99 98//98
f 142//142 102//102 101//101
f 144//144 105//105 104//104
f 146//146 108//108 107//107
f 148//148 111//111 110//110
f 150//150 114//114 113//113
f 152//152 117//117 116//116
f 153//153 119//119 118//118
f 154//154 121//121 120//120
f 155//155 123//123 122//122
f 156//156 125//125 124//124
f 157//157 127//127 126//126
