# Created by Open3D 
# object name: part_049
# number of vertices: 162
# number of triangles: 320
v 2.41286 3.08549 0.3813
vn 0.93556 -0.349054 0.0537554
v 2.40552 3.06697 0.385708
vn 0.925878 -0.352184 0.136806
v 2.40549 3.06582 0.379885
vn 0.930856 -0.364178 0.0296982
v 2.41285 3.08488 0.37344
vn 0.936036 -0.351902 -0.00129237
v 2.41777 3.09851 0.378302
vn 0.943332 -0.330654 0.0281724
v 2.41723 3.09812 0.384198
vn 0.933413 -0.331626 0.136985
v 2.40772 3.07539 0.132831
vn 0.933123 -0.353837 -0.0638884
v 2.40044 3.05591 0.136141
vn 0.929442 -0.366953 -0.0385079
v 2.40023 3.05658 0.130248
vn 0.92002 -0.363682 -0.145941
v 2.4013 3.05915 0.258118
vn 0.0135127 -0.999095 0.040341
v 2.40335 3.06395 0.373906
vn -0.13579 -0.989687 0.0456041
v 2.4001 3.05934 0.258135
vn -0.327902 -0.943632 0.0451585
v 2.38677 3.07191 0.388532
vn -0.320514 -0.857889 0.401619
v 2.38722 3.07309 0.39009
vn -0.0286118 -0.0904106 0.995493
v 2.37054 3.07841 0.388787
vn -0.340149 -0.732282 0.589968
v 2.39995 3.10699 0.386833
vn 0.335397 0.887103 0.317107
v 2.41568 3.10152 0.384245
vn 0.361036 0.925859 0.111527
v 2.3845 3.11324 0.384414
vn 0.339703 0.933884 0.111637
v 2.41566 3.09699 0.281998
vn 0.668235 0.742646 -0.044036
v 2.41321 3.09093 0.146005
vn 0.898349 0.437677 -0.037513
v 2.41241 3.09139 0.140551
vn 0.548859 0.83457 -0.0474106
v 2.37088 3.08925 0.13303
vn -0.93556 0.349053 -0.0537589
v 2.36409 3.07018 0.130444
vn -0.932972 0.333313 -0.135887
v 2.36355 3.06979 0.136341
vn -0.941191 0.336683 -0.0283739
v 2.37074 3.08945 0.140911
vn -0.936036 0.351902 0.00129192
v 2.37584 3.10248 0.134757
vn -0.928494 0.370126 -0.0300785
v 2.3758 3.10133 0.128935
vn -0.925136 0.353646 -0.138053
v 2.36619 3.07235 0.258308
vn -0.668279 -0.742607 0.0440353
v 2.36412 3.06749 0.142523
vn -0.549852 -0.834167 0.0427504
v 2.36722 3.0717 0.258313
vn -0.374851 -0.925972 0.0454127
v 2.37603 3.09935 0.3815
vn -0.933122 0.353837 0.0638924
v 2.3686 3.0797 0.380085
vn -0.939778 0.339456 0.0398437
v 2.36938 3.08056 0.385903
vn -0.927114 0.344809 0.146856
v 2.38056 3.1102 0.282188
vn -0.0135663 0.999094 -0.0403399
v 2.38168 3.11348 0.366888
vn -0.394334 0.918545 -0.0278716
v 2.38277 3.11376 0.372307
vn 0.134176 0.990158 -0.0398061
v 2.39455 3.09639 0.126111
vn 0.320513 0.85789 -0.401617
v 2.3792 3.10285 0.128651
vn 0.333229 0.92117 -0.201007
v 2.41038 3.09112 0.128482
vn 0.354561 0.913147 -0.201118
v 2.38137 3.06131 0.12781
vn -0.335398 -0.887104 -0.317104
v 2.38175 3.06236 0.126144
vn -0.0695894 -0.170843 -0.982838
v 2.39785 3.05549 0.127522
vn -0.244048 -0.821925 -0.514665
v 2.40212 3.06545 0.385992
vn -0.33323 -0.92117 0.201007
v 2.40326 3.0661 0.38861
vn -0.221181 -0.777037 0.589315
v 2.39964 3.05482 0.147754
vn 0.39067 -0.920101 0.0281166
v 2.40421 3.0638 0.368442
vn 0.390733 -0.919998 0.0305132
v 2.41272 3.0886 0.134557
vn 0.941917 -0.333431 -0.0402162
v 2.40803 3.07542 0.140708
vn 0.935881 -0.352204 -0.00885119
v 2.41721 3.10081 0.37212
vn 0.551255 0.833275 -0.0420677
v 2.41778 3.0999 0.366693
vn 0.901642 0.431074 -0.0348953
v 2.39957 3.10594 0.388499
vn 0.0901307 0.225642 0.970032
v 2.41619 3.10051 0.386943
vn 0.363012 0.777171 0.51403
v 2.39856 3.05454 0.142336
vn -0.135849 -0.989901 0.0405076
v 2.37094 3.07718 0.386161
vn -0.354561 -0.913147 0.201118
v 2.38347 3.11281 0.38712
vn 0.24405 0.821924 0.514665
v 2.41464 3.09765 0.28231
vn 0.374861 0.925968 -0.0454128
v 2.41194 3.08774 0.128739
vn 0.927508 -0.343213 -0.148099
v 2.36564 3.06678 0.130398
vn -0.361036 -0.925859 -0.111528
v 2.36513 3.06779 0.1277
vn -0.363014 -0.777168 -0.514034
v 2.36811 3.07737 0.368637
vn -0.899861 -0.434561 0.0375083
v 2.36354 3.0684 0.14795
vn -0.899932 -0.434615 0.0351093
v 2.38088 3.11239 0.378502
vn -0.927078 0.372906 0.0383119
v 2.37556 3.09891 0.373642
vn -0.935881 0.352204 0.00885232
v 2.37797 3.10435 0.140737
vn 0.136827 0.989564 -0.0451785
v 2.37711 3.1045 0.146201
vn -0.387588 0.921327 -0.0305421
v 2.3941 3.09521 0.124552
vn 0.0495745 0.146026 -0.988038
v 2.37806 3.1022 0.126033
vn 0.221183 0.777043 -0.589307
v 2.39683 3.05506 0.130229
vn -0.339703 -0.933884 -0.111636
v 2.36891 3.07691 0.374092
vn -0.549748 -0.833959 0.0478477
v 2.38109 3.11172 0.384394
vn -0.919229 0.365236 0.14704
v 2.38176 3.11002 0.282489
vn 0.327897 0.943633 -0.0451584
v 2.41078 3.08989 0.125856
vn 0.340149 0.732279 -0.589972
v 2.40298 3.06461 0.381733
vn -0.312928 -0.944737 0.0977156
v 2.40416 3.0644 0.379729
vn 0.284846 -0.954914 0.083674
v 2.40382 3.06514 0.385714
vn 0.150506 -0.966493 0.207939
v 2.39999 3.05502 0.140262
vn 0.766724 -0.64196 0.00461989
v 2.40085 3.05629 0.147544
vn 0.930658 -0.365855 -0.00517042
v 2.40249 3.05968 0.258071
vn 0.771801 -0.635788 0.00986441
v 2.41311 3.08992 0.138571
vn 0.99941 -0.0240901 -0.0244722
v 2.41618 3.09575 0.280829
vn 0.999346 -0.0304812 -0.0194596
v 2.41315 3.08902 0.145958
vn 0.943761 -0.330556 -0.00690349
v 2.41675 3.10122 0.379959
vn 0.388538 0.921404 0.0073266
v 2.41716 3.10061 0.383996
vn 0.755235 0.642436 0.129986
v 2.4177 3.10043 0.377983
vn 0.84483 0.534912 0.0114983
v 2.3947 3.09297 0.389641
vn 0.0206916 0.0406164 0.998961
v 2.40391 3.06776 0.389811
vn 0.117593 -0.030241 0.992601
v 2.41563 3.09894 0.3883
vn 0.141226 0.0340632 0.989391
v 2.39786 3.05455 0.134504
vn -0.315102 -0.949026 -0.00772167
v 2.39854 3.05476 0.13046
vn 0.143373 -0.980437 -0.134859
v 2.39912 3.05451 0.136467
vn 0.28269 -0.95905 -0.0176045
v 2.36969 3.07713 0.381913
vn -0.386356 -0.917116 0.0981195
v 2.37046 3.07613 0.374224
vn -0.356276 -0.933149 0.0479661
v 2.38632 3.0708 0.382449
vn -0.349953 -0.931763 0.0967016
v 2.38213 3.11262 0.386318
vn -0.802548 0.452387 0.388925
v 2.37708 3.09943 0.387613
vn -0.848098 0.338529 0.407589
v 2.38287 3.11126 0.388478
vn -0.0743656 0.115157 0.99056
v 2.39823 3.10391 0.282497
vn 0.351487 0.935096 -0.0452999
v 2.38445 3.11334 0.372421
vn 0.346678 0.937046 -0.0419277
v 2.41566 3.1016 0.372252
vn 0.356417 0.933383 -0.0419815
v 2.41169 3.08894 0.126713
vn 0.88924 -0.221746 -0.400102
v 2.41187 3.09023 0.128742
vn 0.748179 0.62845 -0.212787
v 2.41255 3.08943 0.130762
vn 0.991353 0.0347395 -0.126538
v 2.36457 3.06708 0.134684
vn -0.388538 -0.921404 -0.0073266
v 2.36362 3.06787 0.13666
vn -0.84483 -0.534912 -0.0114983
v 2.36417 3.06769 0.130647
vn -0.755236 -0.642434 -0.129987
v 2.36822 3.07838 0.376071
vn -0.999414 0.0229679 0.0253663
v 2.36817 3.07928 0.368684
vn -0.941033 0.338252 0.00650785
v 2.36565 3.07354 0.258271
vn -0.999346 0.0304835 0.0194595
v 2.38133 3.11328 0.374381
vn -0.765623 0.64328 -0.00348057
v 2.37934 3.10961 0.281029
vn -0.771801 0.635788 -0.00986442
v 2.38047 3.11201 0.367099
vn -0.928647 0.370931 0.00495749
v 2.37834 3.10369 0.13291
vn 0.312927 0.944737 -0.0977162
v 2.3775 3.10316 0.128929
vn -0.150502 0.966494 -0.207939
v 2.37716 3.1039 0.134914
vn -0.284846 0.954914 -0.083674
v 2.38921 3.0822 0.124669
vn -0.0206906 -0.0406163 -0.998961
v 2.36569 3.06936 0.126343
vn -0.140025 -0.0294393 -0.98971
v 2.37741 3.10054 0.124832
vn -0.115446 0.0345192 -0.992714
v 2.39687 3.05496 0.142222
vn -0.346679 -0.937015 0.0426306
v 2.38117 3.0607 0.133977
vn -0.352083 -0.935948 -0.0062339
v 2.36945 3.07807 0.3859
vn -0.748177 -0.628453 0.212788
v 2.36866 3.07776 0.379921
vn -0.842724 -0.530807 0.0897782
v 2.38278 3.11354 0.384182
vn -0.143374 0.980437 0.134859
v 2.38168 3.11321 0.382217
vn -0.719533 0.688403 0.0915034
v 2.41086 3.09217 0.140419
vn 0.35628 0.933171 -0.0475078
v 2.37965 3.10392 0.140588
vn 0.346593 0.936814 -0.0474555
v 2.40679 3.07563 0.126702
vn 0.848095 -0.338528 -0.407594
v 2.41017 3.08822 0.124654
vn 0.100147 -0.0465752 -0.993882
v 2.40456 3.06622 0.38774
vn 0.833434 -0.387853 0.393648
v 2.40484 3.06531 0.383685
vn 0.723859 -0.679914 0.117243
v 2.40487 3.0646 0.375873
vn 0.767024 -0.641424 0.0157916
v 2.40542 3.06527 0.368483
vn 0.930689 -0.365793 -0.00363419
v 2.41067 3.08054 0.257054
vn 0.935965 -0.352055 -0.00507187
v 2.41773 3.098 0.366897
vn 0.942897 -0.333045 -0.005184
v 2.41799 3.0995 0.374182
vn 0.999697 -0.020894 -0.0130425
v 2.41775 3.09964 0.382021
vn 0.99568 0.0431625 0.0822066
v 2.41706 3.09948 0.386129
vn 0.905386 -0.190047 0.379682
v 2.41219 3.08623 0.387423
vn 0.864785 -0.30576 0.39832
v 2.39964 3.05509 0.132426
vn 0.719536 -0.6884 -0.091504
v 2.40168 3.06438 0.374055
vn -0.346574 -0.936798 0.0479132
v 2.37115 3.08008 0.389989
vn -0.0989403 0.0512064 0.993775
v 2.40015 3.1076 0.380666
vn 0.352083 0.935948 0.0062339
v 2.41266 3.09054 0.134722
vn 0.842723 0.530808 -0.0897778
v 2.36426 3.06882 0.128514
vn -0.89499 0.224084 -0.385719
v 2.36357 3.06866 0.132621
vn -0.99568 -0.0431633 -0.0822066
v 2.36334 3.0688 0.140461
vn -0.999644 0.0226092 0.0141855
v 2.3636 3.0703 0.147746
vn -0.941065 0.338189 0.00497186
v 2.37323 3.09463 0.257256
vn -0.935965 0.352055 0.00507198
v 2.3759 3.10303 0.14616
vn -0.927671 0.373383 0.00323656
v 2.37645 3.1037 0.13877
vn -0.767754 0.640571 -0.0148947
v 2.37648 3.10299 0.130958
vn -0.723858 0.679915 -0.117243
v 2.37676 3.10208 0.126903
vn -0.818687 0.420697 -0.390852
v 2.37168 3.08883 0.126893
vn -0.864784 0.305759 -0.398322
v 2.36566 3.0667 0.142391
vn -0.356386 -0.933363 0.0426835
v 2.36878 3.07887 0.38388
vn -0.991353 -0.0347347 0.126538
v 2.3822 3.11379 0.378175
vn -0.28269 0.95905 0.0176046
v 2.395 3.0975 0.132194
vn 0.349953 0.931763 -0.0967021
v 2.39845 3.05704 0.126165
vn 0.0765114 -0.110885 -0.990884
v 2.39919 3.05568 0.128325
vn 0.817107 -0.419913 -0.39498
v 2.38363 3.06545 0.258227
vn -0.351484 -0.935097 0.0452999
v 2.36963 3.07936 0.387929
vn -0.878664 0.256157 0.402907
v 2.38346 3.11375 0.380139
vn 0.315102 0.949026 0.00772165
v 2.41163 3.09117 0.13273
vn 0.386357 0.917116 -0.0981198
f 1//1 2//2 3//3
f 1//1 3//3 4//4
f 1//1 4//4 5//5
f 1//1 5//5 6//6
f 1//1 6//6 2//2
f 7//7 8//8 9//9
f 10//10 11//11 12//12
f 13//13 14//14 15//15
f 16//16 17//17 18//18
f 19//19 20//20 21//21
f 22//22 23//23 24//24
f 22//22 24//24 25//25
f 22//22 25//25 26//26
f 22//22 26//26 27//27
f 22//22 27//27 23//23
f 28//28 29//29 30//30
f 31//31 32//32 33//33
f 34//34 35//35 36//36
f 37//37 38//38 39//39
f 40//40 41//41 42//42
f 13//13 43//43 44//44
f 10//10 45//45 46//46
f 7//7 47//47 48//48
f 19//19 49//49 50//50
f 16//16 51//51 52//52
f 10//10 53//53 45//45
f 13//13 54//54 43//43
f 16//16 55//55 51//51
f 19//19 56//56 49//49
f 7//7 57//57 47//47
f 40//40 58//58 59//59
f 28//28 60//60 61//61
f 31//31 62//62 63//63
f 34//34 64//64 65//65
f 37//37 66//66 67//67
f 40//40 68//68 58//58
f 28//28 69//69 60//60
f 31//31 70//70 62//62
f 34//34 71//71 64//64
f 37//37 72//72 66//66
f 10//10 46//46 11//11
f 7//7 48//48 8//8
f 19//19 50//50 20//20
f 16//16 52//52 17//17
f 13//13 44//44 14//14
f 40//40 42//42 68//68
f 28//28 30//30 69//69
f 31//31 33//33 70//70
f 34//34 36//36 71//71
f 37//37 39//39 72//72
f 28//28 61//61 29//29
f 31//31 63//63 32//32
f 34//34 65//65 35//35
f 37//37 67//67 38//38
f 40//40 59//59 41//41
f 10//10 12//12 53//53
f 13//13 15//15 54//54
f 16//16 18//18 55//55
f 19//19 21//21 56//56
f 7//7 9//9 57//57
f 73//73 74//74 75//75
f 76//76 77//77 78//78
f 79//79 80//80 81//81
f 82//82 83//83 84//84
f 85//85 86//86 87//87
f 88//88 89//89 90//90
f 91//91 92//92 93//93
f 94//94 95//95 96//96
f 97//97 98//98 99//99
f 100//100 101//101 102//102
f 103//103 104//104 105//105
f 106//106 107//107 108//108
f 109//109 110//110 111//111
f 112//112 113//113 114//114
f 115//115 116//116 117//117
f 88//88 118//118 119//119
f 91//91 120//120 121//121
f 94//94 122//122 123//123
f 97//97 124//124 125//125
f 100//100 126//126 127//127
f 128//128 129//129 2//2
f 130//130 131//131 3//3
f 132//132 133//133 4//4
f 134//134 135//135 5//5
f 136//136 137//137 6//6
f 76//76 138//138 8//8
f 73//73 139//139 11//11
f 85//85 140//140 14//14
f 82//82 141//141 17//17
f 79//79 142//142 20//20
f 143//143 144//144 23//23
f 145//145 146//146 24//24
f 147//147 148//148 25//25
f 149//149 150//150 26//26
f 151//151 152//152 27//27
f 103//103 153//153 29//29
f 106//106 154//154 32//32
f 109//109 155//155 35//35
f 112//112 156//156 38//38
f 115//115 157//157 41//41
f 73//73 75//75 43//43
f 76//76 78//78 45//45
f 79//79 81//81 47//47
f 82//82 84//84 49//49
f 85//85 87//87 51//51
f 88//88 90//90 53//53
f 91//91 93//93 54//54
f 94//94 96//96 55//55
f 97//97 99//99 56//56
f 100//100 102//102 57//57
f 103//103 105//105 58//58
f 106//106 108//108 60//60
f 109//109 111//111 62//62
f 112//112 114//114 64//64
f 115//115 117//117 66//66
f 88//88 119//119 68//68
f 91//91 121//121 69//69
f 94//94 123//123 70//70
f 97//97 125//125 71//71
f 100//100 127//127 72//72
f 130//130 74//74 46//46
f 132//132 77//77 48//48
f 134//134 80//80 50//50
f 136//136 83//83 52//52
f 128//128 86//86 44//44
f 158//158 89//89 42//42
f 159//159 92//92 30//30
f 160//160 95//95 33//33
f 161//161 98//98 36//36
f 162//162 101//101 39//39
f 145//145 104//104 61//61
f 147//147 107//107 63//63
f 149//149 110//110 65//65
f 151//151 113//113 67//67
f 143//143 116//116 59//59
f 159//159 118//118 12//12
f 160//160 120//120 15//15
f 161//161 122//122 18//18
f 162//162 124//124 21//21
f 158//158 126//126 9//9
f 130//130 129//129 74//74
f 132//132 131//131 77//77
f 134//134 133//133 80//80
f 136//136 135//135 83//83
f 128//128 137//137 86//86
f 158//158 138//138 89//89
f 159//159 139//139 92//92
f 160//160 140//140 95//95
f 161//161 141//141 98//98
f 162//162 142//142 101//101
f 145//145 144//144 104//104
f 147//147 146//146 107//107
f 149//149 148//148 110//110
f 151//151 150//150 113//113
f 143//143 152//152 116//116
f 159//159 153//153 118//118
f 160//160 154//154 120//120
f 161//161 155//155 122//122
f 162//162 156//156 124//124
f 158//158 157//157 126//126
f 130//130 3//3 129//129
f 132//132 4//4 131//131
f 134//134 5//5 133//133
f 136//136 6//6 135//135
f 128//128 2//2 137//137
f 158//158 9//9 138//138
f 159//159 12//12 139//139
f 160//160 15//15 140//140
f 161//161 18//18 141//141
f 162//162 21//21 142//142
f 145//145 24//24 144//144
f 147//147 25//25 146//146
f 149//149 26//26 148//148
f 151//151 27//27 150//150
f 143//143 23//23 152//152
f 159//159 30//30 153//153
f 160//160 33//33 154//154
f 161//161 36//36 155//155
f 162//162 39//39 156//156
f 158//158 42//42 157//157
f 128//128 44//44 75//75
f 130//130 46//46 78//78
f 132//132 48//48 81//81
f 134//134 50//50 84//84
f 136//136 52//52 87//87
f 76//76 45//45 90//90
f 73//73 43//43 93//93
f 85//85 51//51 96//96
f 82//82 49//49 99//99
f 79//79 47//47 102//102
f 143//143 59//59 105//105
f 145//145 61//61 108//108
f 147//147 63//63 111//111
f 149//149 65//65 114//114
f 151//151 67//67 117//117
f 103//103 58//58 119//119
f 106//106 60//60 121//121
f 109//109 62//62 123//123
f 112//112 64//64 125//125
f 115//115 66//66 127//127
f 73//73 11//11 74//74
f 76//76 8//8 77//77
f 79//79 20//20 80//80
f 82//82 17//17 83//83
f 85//85 14//14 86//86
f 88//88 68//68 89//89
f 91//91 69//69 92//92
f 94//94 70//70 95//95
f 97//97 71//71 98//98
f 100//100 72//72 101//101
f 103//103 29//29 104//104
f 106//106 32//32 107//107
f 109//109 35//35 110//110
f 112//112 38//38 113//113
f 115//115 41//41 116//116
f 88//88 53//53 118//118
f 91//91 54//54 120//120
f 94//94 55//55 122//122
f 97//97 56//56 124//124
f 100//100 57//57 126//126
f 128//128 75//75 129//129
f 130//130 78//78 131//131
f 132//132 81//81 133//133
f 134//134 84//84 135//135
f 136//136 87//87 137//137
f 76//76 90//90 138//138
f 73//73 93//93 139//139
f 85//85 96//96 140//140
f 82//82 99//99 141//141
f 79//79 102//102 142//142
f 143//143 105//105 144//144
f 145//145 108//108 146//146
f 147//147 111//111 148//148
f 149//149 114//114 150//150
f 151//151 117//117 152//152
f 103//103 119//119 153//153
f 106//106 121//121 154//154
f 109//109 123//123 155//155
f 112//112 125//125 156//156
f 115//115 127//127 157//157
f 129//129 3//3 2//2
f 131//131 4//4 3//3
f 133//133 5//5 4//4
f 135//135 6//6 5//5
f 137//137 2//2 6//6
f 138//138 9//9 8//8
f 139//139 12//12 11//11
f 140//140 15//15 14//14
f 141//141 18//18 17//17
f 142//142 21//21 20//20
f 144//144 24//24 23//23
f 146//146 25//25 24//24
f 148//148 26//26 25//25
f 150//150 27//27 26//26
f 152//152 23//23 27//27
f 153//153 30//30 29//29
f 154//154 33//33 32//32
f 155//155 36//36 35//35
f 156//156 39//39 38//38
f 157//157 42//42 41//41
f 75//75 44//44 43//43
f 78//78 46//46 45//45
f 81//81 48//48 47//47
f 84//84 50//50 49//49
f 87//87 52//52 51//51
f 90//90 45//45 53//53
f 93//93 43//43 54//54
f 96//96 51//51 55//55
f 99//99 49//49 56//56
f 102//102 47//47 57//57
f 105//105 59//59 58//58
f 108//108 61//61 60//60
f 111//111 63//63 62//62
f 114//114 65//65 64//64
f 117//117 67//67 66//66
f 119//119 58//58 68//68
f 121//121 60//60 69//69
f 123//123 62//62 70//70
f 125//125 64//64 71//71
f 127//127 66//66 72//72
f 74//74 11//11 46//46
f 77//77 8//8 48//48
f 80//80 20//20 50//50
f 83//83 17//17 52//52
f 86//86 14//14 44//44
f 89//89 68//68 42//42
f 92//92 69//69 30//30
f 95//95 70//70 33//33
f 98//98 71//71 36//36
f 101//101 72//72 39//39
f 104//104 29//29 61//61
f 107//107 32//32 63//63
f 110//110 35//35 65//65
f 113//113 38//38 67//67
f 116//116 41//41 59//59
f 118//118 53//53 12//12
f 120//120 54//54 15//15
f 122//122 55//55 18//18
f 124//124 56//56 21//21
f 126//126 57//57 9//9
f 129//129 75//75 74//74
f 131//131 78//78 77//77
f 133//133 81//81 80//80
f 135//135 84//84 83//83
f 137//137 87//87 86//86
f 138//138 90//90 89//89
f 139//139 93//93 92//92
f 140//140 96//96 95//95
f 141//141 99//99 98//98
f 142//142 102//102 101//101
f 144//144 105//105 104//104
f 146//146 108//108 107//107
f 148//148 111//111 110//110
f 150//150 114//114 113//113
f 152//152 117//117 116//116
f 153//153 119//119 118//118
f 154//154 121//121 120//120
f 155//155 123//123 122//122
f 156//156 125//125 124//124
f 157//157 127//127 126//126
