# Created by Open3D 
# object name: part_082
# number of vertices: 162
# number of triangles: 320
v -2.0862 3.52507 0.453123
vn -0.0545445 -0.66687 -0.743175
v -2.08716 3.51014 0.467051
vn 0.0946337 -0.705076 -0.702789
v -2.09334 3.51074 0.466814
vn -0.108128 -0.677327 -0.727692
v -2.09419 3.5269 0.452675
vn -0.158709 -0.640942 -0.751002
v -2.08537 3.53578 0.44376
vn -0.0913029 -0.624886 -0.775359
v -2.07957 3.534 0.44508
vn 0.106636 -0.674192 -0.730817
v -2.33444 3.59766 0.446189
vn -0.274921 -0.602433 -0.749329
v -2.33686 3.58195 0.460012
vn -0.23628 -0.63986 -0.731267
v -2.34239 3.58477 0.459922
vn -0.423044 -0.553708 -0.717245
v -2.21528 3.54601 0.466323
vn -0.25504 -0.823851 0.506186
v -2.09948 3.51262 0.470118
vn -0.242414 -0.783247 0.572502
v -2.21493 3.54738 0.468303
vn -0.229904 -0.724135 0.65021
v -2.07848 3.53301 0.498074
vn 0.119775 -0.76918 0.627708
v -2.0766 3.53339 0.497336
vn 0.916209 -0.381589 0.122274
v -2.07231 3.55598 0.524614
vn 0.329832 -0.7341 0.593555
v -2.06994 3.55988 0.473337
vn 0.547126 0.574172 -0.609081
v -2.07792 3.53929 0.447408
vn 0.368825 0.662329 -0.652141
v -2.06666 3.58268 0.498432
vn 0.370678 0.669478 -0.643737
v -2.18067 3.5667 0.441082
vn 0.192553 0.583115 -0.789241
v -2.31681 3.60548 0.436725
vn 0.135707 0.381501 -0.914352
v -2.32186 3.60851 0.437663
vn 0.206273 0.642275 -0.738197
v -2.32113 3.64892 0.506469
vn 0.0545488 0.666869 0.743176
v -2.32933 3.63506 0.519056
vn -0.103754 0.67641 0.729181
v -2.32353 3.63328 0.520376
vn 0.0944982 0.634474 0.767146
v -2.31324 3.64679 0.507205
vn 0.15871 0.640941 0.751003
v -2.31557 3.65832 0.497322
vn 0.110878 0.686381 0.71874
v -2.32174 3.65892 0.497084
vn -0.0960019 0.707626 0.700036
v -2.20259 3.59486 0.52377
vn -0.192553 -0.583116 0.78924
v -2.3184 3.6282 0.520011
vn -0.210548 -0.6406 0.738445
v -2.20305 3.59314 0.522111
vn -0.225823 -0.70841 0.6687
v -2.07289 3.57634 0.513403
vn 0.274922 0.602432 0.749329
v -2.08001 3.56207 0.527178
vn 0.222637 0.597 0.770729
v -2.07411 3.56043 0.526185
vn 0.413933 0.525033 0.74364
v -2.16799 3.61556 0.498529
vn 0.255041 0.823858 -0.506174
v -2.08329 3.59124 0.501947
vn 0.278314 0.919753 -0.27676
v -2.07806 3.58878 0.50048
vn 0.247967 0.782141 -0.571637
v -2.33042 3.63605 0.466061
vn -0.119779 0.76918 -0.627707
v -2.32219 3.6574 0.491294
vn 0.0817447 0.753965 -0.651808
v -2.33345 3.61401 0.440271
vn 0.0798964 0.746817 -0.660213
v -2.33897 3.60918 0.490798
vn -0.547127 -0.574172 0.609081
v -2.34031 3.6105 0.48997
vn -0.982383 0.173577 0.0692409
v -2.34498 3.58672 0.463788
vn -0.713644 -0.472409 0.517244
v -2.08671 3.51166 0.472841
vn -0.0817447 -0.753965 0.651809
v -2.08413 3.51045 0.471074
vn 0.319364 -0.77446 0.546094
v -2.32561 3.57782 0.462189
vn -0.278021 -0.918929 0.279777
v -2.10513 3.51335 0.468347
vn -0.275252 -0.919739 0.27985
v -2.32889 3.60699 0.436957
vn -0.219732 -0.587324 -0.778953
v -2.32671 3.59489 0.44618
vn -0.172939 -0.636778 -0.751403
v -2.0905 3.54086 0.444125
vn 0.211023 0.639807 -0.738997
v -2.09633 3.54101 0.442884
vn 0.137089 0.375663 -0.916561
v -2.0686 3.55856 0.474166
vn 0.985838 -0.126686 -0.109882
v -2.07574 3.53681 0.446808
vn 0.703181 0.432034 -0.564698
v -2.33084 3.58028 0.463656
vn -0.247212 -0.781857 0.572351
v -2.07545 3.55506 0.523865
vn -0.0798973 -0.746817 0.660213
v -2.06392 3.58234 0.500347
vn 0.713644 0.472409 -0.517244
v -2.17989 3.56833 0.44275
vn 0.225823 0.70841 -0.6687
v -2.33479 3.60863 0.437951
vn -0.41507 -0.521638 -0.745393
v -2.33098 3.62977 0.516727
vn -0.368826 -0.662329 0.652141
v -2.33316 3.63226 0.517328
vn -0.703182 -0.432032 0.564697
v -2.09209 3.56358 0.52741
vn -0.134954 -0.379224 0.915411
v -2.31257 3.62805 0.521252
vn -0.13772 -0.378404 0.915338
v -2.07204 3.58712 0.504124
vn 0.239308 0.648832 0.722322
v -2.08072 3.5788 0.5137
vn 0.172939 0.636778 0.751403
v -2.30942 3.65644 0.494017
vn 0.242753 0.782821 -0.572941
v -2.30378 3.65571 0.495788
vn 0.275221 0.919002 -0.282292
v -2.3323 3.63567 0.4668
vn -0.891769 0.422364 -0.162346
v -2.32477 3.65861 0.493061
vn -0.319366 0.77446 -0.546093
v -2.34224 3.58638 0.465704
vn -0.370678 -0.669478 0.643737
v -2.08704 3.56055 0.526473
vn -0.205752 -0.642002 0.73858
v -2.06652 3.58429 0.504214
vn 0.425713 0.555074 0.714606
v -2.16801 3.61409 0.496558
vn 0.229904 0.724134 -0.650211
v -2.33659 3.61308 0.439522
vn -0.329832 0.7341 -0.593556
v -2.09142 3.51123 0.471194
vn -0.182027 -0.74181 0.645434
v -2.09373 3.51049 0.469123
vn -0.215939 -0.908382 0.358068
v -2.08747 3.50974 0.470016
vn -0.084706 -0.896252 0.435382
v -2.33302 3.58007 0.461098
vn -0.276497 -0.933647 -0.227712
v -2.32553 3.57835 0.460048
vn -0.174055 -0.659715 -0.731082
v -2.21538 3.54546 0.464297
vn -0.266375 -0.933793 -0.238903
v -2.32452 3.60681 0.436484
vn -0.0105558 -0.102504 -0.994677
v -2.1824 3.56519 0.440242
vn -0.00565705 -0.114246 -0.993436
v -2.31756 3.60342 0.436967
vn -0.156495 -0.604274 -0.781257
v -2.0825 3.53928 0.445367
vn 0.273059 0.688729 -0.671634
v -2.07883 3.53691 0.445001
vn 0.347548 0.462514 -0.815654
v -2.08495 3.5381 0.44371
vn 0.210676 0.432638 -0.876607
v -2.07125 3.54846 0.483342
vn 0.959464 -0.280555 0.0267999
v -2.08246 3.51128 0.469944
vn 0.939805 -0.341687 0.0041841
v -2.07486 3.53517 0.447948
vn 0.956027 -0.290125 -0.0429007
v -2.33843 3.58345 0.464295
vn -0.279453 -0.713324 0.642709
v -2.34249 3.58431 0.462892
vn -0.433658 -0.794238 0.425589
v -2.33677 3.58156 0.462334
vn -0.325824 -0.876262 0.35497
v -2.0794 3.55756 0.525668
vn -0.175643 -0.717214 0.674354
v -2.08754 3.55813 0.523968
vn -0.225018 -0.715411 0.661478
v -2.08481 3.53414 0.498513
vn -0.180077 -0.729345 0.660022
v -2.0645 3.58368 0.502539
vn 0.774533 0.450665 0.443846
v -2.06705 3.57346 0.512046
vn 0.752748 0.300019 0.585969
v -2.06303 3.58076 0.501549
vn 0.97561 -0.214678 0.045815
v -2.17384 3.59124 0.469606
vn 0.227881 0.716327 -0.659504
v -2.07847 3.58664 0.49772
vn 0.23139 0.717048 -0.657496
v -2.08974 3.5432 0.446638
vn 0.230544 0.713788 -0.661329
v -2.3363 3.61086 0.43814
vn -0.68037 -0.154647 -0.716367
v -2.33385 3.61148 0.437877
vn -0.00138072 0.56456 -0.825391
v -2.33229 3.60929 0.436945
vn -0.137693 0.0299542 -0.990022
v -2.3264 3.62978 0.518769
vn -0.273059 -0.688729 0.671634
v -2.32395 3.63096 0.520426
vn -0.210675 -0.432638 0.876607
v -2.33007 3.63215 0.519135
vn -0.34755 -0.462514 0.815653
v -2.08439 3.56225 0.527651
vn 0.0114175 0.100398 0.994882
v -2.09134 3.56564 0.527169
vn 0.160343 0.616614 0.770764
v -2.20207 3.59673 0.524576
vn 0.00565516 0.114239 0.993437
v -2.07588 3.58899 0.503038
vn 0.278667 0.933585 0.225309
v -2.16909 3.61645 0.500521
vn 0.266375 0.933793 0.238903
v -2.08337 3.59071 0.504088
vn 0.176589 0.667409 0.723451
v -2.31748 3.65783 0.492942
vn 0.182026 0.741809 -0.645434
v -2.32143 3.65932 0.49412
vn 0.0847059 0.896251 -0.435383
v -2.31517 3.65857 0.495013
vn 0.215939 0.908381 -0.35807
v -2.33598 3.62587 0.475948
vn -0.959464 0.280555 -0.0267999
v -2.33404 3.63389 0.516188
vn -0.955006 0.293901 0.0398185
v -2.32644 3.65778 0.494191
vn -0.938556 0.345043 -0.00765452
v -2.33043 3.58242 0.466416
vn -0.230741 -0.717234 0.657521
v -2.33306 3.60673 0.491579
vn -0.275127 -0.701551 0.657368
v -2.07505 3.55758 0.526258
vn 0.00137482 -0.564564 0.825388
v -2.08091 3.5599 0.527215
vn -0.100805 -0.464799 0.879659
v -2.06641 3.58475 0.501244
vn 0.433658 0.794238 -0.425589
v -2.06824 3.58608 0.502972
vn 0.430748 0.891245 0.141912
v -2.32136 3.61093 0.440168
vn 0.225443 0.715292 -0.661463
v -2.31009 3.65437 0.49125
vn 0.226284 0.718534 -0.657651
v -2.34021 3.60077 0.447322
vn -0.752748 -0.300019 -0.585969
v -2.33827 3.61219 0.440591
vn -0.958139 0.269594 -0.0963792
v -2.08522 3.50959 0.468836
vn 0.454056 -0.767241 -0.452961
v -2.08963 3.50958 0.468175
vn -0.1102 -0.984977 -0.132953
v -2.09763 3.51124 0.467673
vn -0.258353 -0.938935 -0.227275
v -2.1048 3.5138 0.466213
vn -0.171163 -0.660559 -0.731003
v -2.21038 3.56111 0.449014
vn -0.165829 -0.638877 -0.751224
v -2.09682 3.53887 0.443132
vn -0.154788 -0.609262 -0.777715
v -2.08912 3.53798 0.44306
vn 0.00938505 -0.103856 -0.994548
v -2.08127 3.53589 0.443957
vn 0.182854 -0.0637783 -0.981069
v -2.07712 3.53507 0.445379
vn 0.525876 -0.507367 -0.682666
v -2.07973 3.52461 0.454598
vn 0.501798 -0.66685 -0.550917
v -2.34066 3.58298 0.461163
vn -0.430748 -0.891245 -0.141912
v -2.09881 3.51469 0.472886
vn -0.225862 -0.71866 0.657658
v -2.07063 3.55687 0.523545
vn 0.959473 -0.265909 0.0932939
v -2.07584 3.56233 0.472556
vn 0.275127 0.701551 -0.657368
v -2.32799 3.60916 0.436921
vn 0.100804 0.464801 -0.879658
v -2.33178 3.63399 0.518757
vn -0.521223 0.556077 0.647384
v -2.32764 3.63317 0.520179
vn -0.182853 0.0637831 0.981069
v -2.31978 3.63108 0.521076
vn -0.00671708 0.105704 0.994375
v -2.31208 3.63019 0.521003
vn 0.157453 0.617462 0.770681
v -2.19685 3.61321 0.510276
vn 0.165829 0.638877 0.751224
v -2.3041 3.65526 0.497922
vn 0.174799 0.672082 0.719549
v -2.31128 3.65782 0.496462
vn 0.259566 0.938174 0.229031
v -2.31927 3.65948 0.49596
vn 0.1102 0.984977 0.132952
v -2.32368 3.65947 0.4953
vn -0.431723 0.803375 0.410127
v -2.32753 3.64963 0.50477
vn -0.501799 0.66685 0.550917
v -2.31916 3.62586 0.517498
vn -0.229897 -0.713984 0.661343
v -2.07661 3.55977 0.527191
vn 0.137689 -0.0299543 0.990022
v -2.07213 3.5875 0.501802
vn 0.325824 0.876262 -0.35497
v -2.32409 3.63492 0.465622
vn 0.180078 0.729344 -0.660022
v -2.34587 3.5883 0.462587
vn -0.974677 0.218115 -0.0492956
v -2.3444 3.58538 0.461596
vn -0.771665 -0.408845 -0.487216
v -2.20901 3.5702 0.495258
vn -0.227881 -0.716327 0.659504
v -2.07261 3.5582 0.525996
vn 0.704493 0.19767 0.681627
v -2.07047 3.58561 0.499841
vn 0.279453 0.713324 -0.642709
v -2.3295 3.61151 0.438468
vn 0.175644 0.717214 -0.674354
f 1//1 2//2 3//3
f 1//1 3//3 4//4
f 1//1 4//4 5//5
f 1//1 5//5 6//6
f 1//1 6//6 2//2
f 7//7 8//8 9//9
f 10//10 11//11 12//12
f 13//13 14//14 15//15
f 16//16 17//17 18//18
f 19//19 20//20 21//21
f 22//22 23//23 24//24
f 22//22 24//24 25//25
f 22//22 25//25 26//26
f 22//22 26//26 27//27
f 22//22 27//27 23//23
f 28//28 29//29 30//30
f 31//31 32//32 33//33
f 34//34 35//35 36//36
f 37//37 38//38 39//39
f 40//40 41//41 42//42
f 13//13 43//43 44//44
f 10//10 45//45 46//46
f 7//7 47//47 48//48
f 19//19 49//49 50//50
f 16//16 51//51 52//52
f 10//10 53//53 45//45
f 13//13 54//54 43//43
f 16//16 55//55 51//51
f 19//19 56//56 49//49
f 7//7 57//57 47//47
f 40//40 58//58 59//59
f 28//28 60//60 61//61
f 31//31 62//62 63//63
f 34//34 64//64 65//65
f 37//37 66//66 67//67
f 40//40 68//68 58//58
f 28//28 69//69 60//60
f 31//31 70//70 62//62
f 34//34 71//71 64//64
f 37//37 72//72 66//66
f 10//10 46//46 11//11
f 7//7 48//48 8//8
f 19//19 50//50 20//20
f 16//16 52//52 17//17
f 13//13 44//44 14//14
f 40//40 42//42 68//68
f 28//28 30//30 69//69
f 31//31 33//33 70//70
f 34//34 36//36 71//71
f 37//37 39//39 72//72
f 28//28 61//61 29//29
f 31//31 63//63 32//32
f 34//34 65//65 35//35
f 37//37 67//67 38//38
f 40//40 59//59 41//41
f 10//10 12//12 53//53
f 13//13 15//15 54//54
f 16//16 18//18 55//55
f 19//19 21//21 56//56
f 7//7 9//9 57//57
f 73//73 74//74 75//75
f 76//76 77//77 78//78
f 79//79 80//80 81//81
f 82//82 83//83 84//84
f 85//85 86//86 87//87
f 88//88 89//89 90//90
f 91//91 92//92 93//93
f 94//94 95//95 96//96
f 97//97 98//98 99//99
f 100//100 101//101 102//102
f 103//103 104//104 105//105
f 106//106 107//107 108//108
f 109//109 110//110 111//111
f 112//112 113//113 114//114
f 115//115 116//116 117//117
f 88//88 118//118 119//119
f 91//91 120//120 121//121
f 94//94 122//122 123//123
f 97//97 124//124 125//125
f 100//100 126//126 127//127
f 128//128 129//129 2//2
f 130//130 131//131 3//3
f 132//132 133//133 4//4
f 134//134 135//135 5//5
f 136//136 137//137 6//6
f 76//76 138//138 8//8
f 73//73 139//139 11//11
f 85//85 140//140 14//14
f 82//82 141//141 17//17
f 79//79 142//142 20//20
f 143//143 144//144 23//23
f 145//145 146//146 24//24
f 147//147 148//148 25//25
f 149//149 150//150 26//26
f 151//151 152//152 27//27
f 103//103 153//153 29//29
f 106//106 154//154 32//32
f 109//109 155//155 35//35
f 112//112 156//156 38//38
f 115//115 157//157 41//41
f 73//73 75//75 43//43
f 76//76 78//78 45//45
f 79//79 81//81 47//47
f 82//82 84//84 49//49
f 85//85 87//87 51//51
f 88//88 90//90 53//53
f 91//91 93//93 54//54
f 94//94 96//96 55//55
f 97//97 99//99 56//56
f 100//100 102//102 57//57
f 103//103 105//105 58//58
f 106//106 108//108 60//60
f 109//109 111//111 62//62
f 112//112 114//114 64//64
f 115//115 117//117 66//66
f 88//88 119//119 68//68
f 91//91 121//121 69//69
f 94//94 123//123 70//70
f 97//97 125//125 71//71
f 100//100 127//127 72//72
f 130//130 74//74 46//46
f 132//132 77//77 48//48
f 134//134 80//80 50//50
f 136//136 83//83 52//52
f 128//128 86//86 44//44
f 158//158 89//89 42//42
f 159//159 92//92 30//30
f 160//160 95//95 33//33
f 161//161 98//98 36//36
f 162//162 101//101 39//39
f 145//145 104//104 61//61
f 147//147 107//107 63//63
f 149//149 110//110 65//65
f 151//151 113//113 67//67
f 143//143 116//116 59//59
f 159//159 118//118 12//12
f 160//160 120//120 15//15
f 161//161 122//122 18//18
f 162//162 124//124 21//21
f 158//158 126//126 9//9
f 130//130 129//129 74//74
f 132//132 131//131 77//77
f 134//134 133//133 80//80
f 136//136 135//135 83//83
f 128//128 137//137 86//86
f 158//158 138//138 89//89
f 159//159 139//139 92//92
f 160//160 140//140 95//95
f 161//161 141//141 98//98
f 162//162 142//142 101//101
f 145//145 144//144 104//104
f 147//147 146//146 107//107
f 149//149 148//148 110//110
f 151//151 150//150 113//113
f 143//143 152//152 116//116
f 159//159 153//153 118//118
f 160//160 154//154 120//120
f 161//161 155//155 122//122
f 162//162 156//156 124//124
f 158//158 157//157 126//126
f 130//130 3//3 129//129
f 132//132 4//4 131//131
f 134//134 5//5 133//133
f 136//136 6//6 135//135
f 128//128 2//2 137//137
f 158//158 9//9 138//138
f 159//159 12//12 139//139
f 160//160 15//15 140//140
f 161//161 18//18 141//141
f 162//162 21//21 142//142
f 145//145 24//24 144//144
f 147//147 25//25 146//146
f 149//149 26//26 148//148
f 151//151 27//27 150//150
f 143//143 23//23 152//152
f 159//159 30//30 153//153
f 160//160 33//33 154//154
f 161//161 36//36 155//155
f 162//162 39//39 156//156
f 158//158 42//42 157//157
f 128//128 44//44 75//75
f 130//130 46//46 78//78
f 132//132 48//48 81//81
f 134//134 50//50 84//84
f 136//136 52//52 87//87
f 76//76 45//45 90//90
f 73//73 43//43 93//93
f 85//85 51//51 96//96
f 82//82 49//49 99//99
f 79//79 47//47 102//102
f 143//143 59//59 105//105
f 145//145 61//61 108//108
f 147//147 63//63 111//111
f 149//149 65//65 114//114
f 151//151 67//67 117//117
f 103//103 58//58 119//119
f 106//106 60//60 121//121
f 109//109 62//62 123//123
f 112//112 64//64 125//125
f 115//115 66//66 127//127
f 73//73 11//11 74//74
f 76//76 8//8 77//77
f 79//79 20//20 80//80
f 82//82 17//17 83//83
f 85//85 14//14 86//86
f 88//88 68//68 89//89
f 91//91 69//69 92//92
f 94//94 70//70 95//95
f 97//97 71//71 98//98
f 100//100 72//72 101//101
f 103//103 29//29 104//104
f 106//106 32//32 107//107
f 109//109 35//35 110//110
f 112//112 38//38 113//113
f 115//115 41//41 116//116
f 88//88 53//53 118//118
f 91//91 54//54 120//120
f 94//94 55//55 122//122
f 97//97 56//56 124//124
f 100//100 57//57 126//126
f 128//128 75//75 129//129
f 130//130 78//78 131//131
f 132//132 81//81 133//133
f 134//134 84//84 135//135
f 136//136 87//87 137//137
f 76//76 90//90 138//138
f 73//73 93//93 139//139
f 85//85 96//96 140//140
f 82//82 99//99 141//141
f 79//79 102//102 142//142
f 143//143 105//105 144//144
f 145//145 108//108 146//146
f 147//147 111//111 148//148
f 149//149 114//114 150//150
f 151//151 117//117 152//152
f 103//103 119//119 153//153
f 106//106 121//121 154//154
f 109//109 123//123 155//155
f 112//112 125//125 156//156
f 115//115 127//127 157//157
f 129//129 3//3 2//2
f 131//131 4//4 3//3
f 133//133 5//5 4//4
f 135//135 6//6 5//5
f 137//137 2//2 6//6
f 138//138 9//9 8//8
f 139//139 12//12 11//11
f 140//140 15//15 14//14
f 141//141 18//18 17//17
f 142//142 21//21 20//20
f 144//144 24//24 23//23
f 146//146 25//25 24//24
f 148//148 26//26 25//25
f 150//150 27//27 26//26
f 152//152 23//23 27//27
f 153//153 30//30 29//29
f 154//154 33//33 32//32
f 155//155 36//36 35//35
f 156//156 39//39 38//38
f 157//157 42//42 41//41
f 75//75 44//44 43//43
f 78//78 46//46 45//45
f 81//81 48//48 47//47
f 84//84 50//50 49//49
f 87//87 52//52 51//51
f 90//90 45//45 53//53
f 93//93 43//43 54//54
f 96//96 51//51 55//55
f 99//99 49//49 56//56
f 102//102 47//47 57//57
f 105//105 59//59 58//58
f 108//108 61//61 60//60
f 111//111 63//63 62//62
f 114//114 65//65 64//64
f 117//117 67//67 66//66
f 119//119 58//58 68//68
f 121//121 60//60 69//69
f 123//123 62//62 70//70
f 125//125 64//64 71//71
f 127//127 66//66 72//72
f 74//74 11//11 46//46
f 77//77 8//8 48//48
f 80//80 20//20 50//50
f 83//83 17//17 52//52
f 86//86 14//14 44//44
f 89//89 68//68 42//42
f 92//92 69//69 30//30
f 95//95 70//70 33//33
f 98//98 71//71 36//36
f 101//101 72//72 39//39
f 104//104 29//29 61//61
f 107//107 32//32 63//63
f 110//110 35//35 65//65
f 113//113 38//38 67//67
f 116//116 41//41 59//59
f 118//118 53//53 12//12
f 120//120 54//54 15//15
f 122//122 55//55 18//18
f 124//124 56//56 21//21
f 126//126 57//57 9//9
f 129//129 75//75 74//74
f 131//131 78//78 77//77
f 133//133 81//81 80//80
f 135//135 84//84 83//83
f 137//137 87//87 86//86
f 138//138 90//90 89//89
f 139//139 93//93 92//92
f 140//140 96//96 95//95
f 141//141 99//99 98//98
f 142//142 102//102 101//101
f 144//144 105//105 104//104
f 146//146 108//108 107//107
f 148//148 111//111 110//110
f 150//150 114//114 113//113
f 152//152 117//117 116//116
f 153//153 119//119 118//118
f 154//154 121//121 120//120
f 155//155 123//123 122//122
f 156//156 125//125 124//124
f 157//157 127//127 126//126
