# Created by Open3D 
# object name: part_010
# number of vertices: 162
# number of triangles: 320
v -1.35112 4.80879 2.29486
vn 0.894523 -0.171539 -0.4128
v -1.33827 4.83314 2.31341
vn 0.906615 -0.151241 -0.393923
v -1.34624 4.78959 2.31395
vn 0.904797 -0.180339 -0.385773
v -1.36272 4.75047 2.29503
vn 0.891642 -0.185916 -0.412807
v -1.36039 4.79245 2.28211
vn 0.875328 -0.174368 -0.450995
v -1.35175 4.83586 2.28306
vn 0.888687 -0.147298 -0.434209
v -1.73404 2.97062 2.3002
vn 0.888132 -0.202217 -0.41271
v -1.72188 2.98638 2.31918
vn 0.901098 -0.198101 -0.385718
v -1.73196 2.94327 2.31889
vn 0.891136 -0.225549 -0.393705
v -1.53487 3.88817 2.31936
vn 0.567805 -0.115918 0.81496
v -1.35706 4.74487 2.31719
vn 0.50234 -0.101802 0.858656
v -1.5369 3.88859 2.32056
vn 0.415778 -0.0839847 0.90558
v -1.36788 4.85967 2.33124
vn 0.414535 -0.0316115 0.909484
v -1.36587 4.8717 2.33013
vn 0.434598 0.610594 0.662041
v -1.39899 4.86761 2.34538
vn 0.386853 0.011655 0.922068
v -1.38306 4.86274 2.29708
vn -0.393729 0.131481 -0.909775
v -1.35731 4.8382 2.28286
vn -0.395156 0.101101 -0.913034
v -1.41687 4.85068 2.31044
vn -0.40541 0.103251 -0.908285
v -1.51125 4.08123 2.28296
vn -0.226532 0.0443657 -0.972993
v -1.71976 3.07483 2.28578
vn 0.0139872 -0.00600364 -0.999884
v -1.72989 3.03494 2.28627
vn -0.302501 0.0599637 -0.951261
v -1.80441 2.98538 2.33278
vn -0.894523 0.171538 0.4128
v -1.80099 2.95774 2.35086
vn -0.890081 0.147907 0.431138
v -1.79235 3.00116 2.35181
vn -0.880927 0.175522 0.439499
v -1.79263 3.04367 2.33302
vn -0.891642 0.185916 0.412807
v -1.80649 3.00401 2.31997
vn -0.909584 0.18128 0.373892
v -1.81447 2.96046 2.32052
vn -0.907982 0.151193 0.39078
v -1.60194 3.90223 2.35041
vn 0.226544 -0.0443681 0.97299
v -1.77973 3.04552 2.35263
vn 0.301856 -0.0604712 0.951434
v -1.59971 3.90176 2.34965
vn 0.393474 -0.0793083 0.915909
v -1.42149 4.82354 2.32745
vn -0.888132 0.202216 0.41271
v -1.41671 4.80437 2.34658
vn -0.877228 0.193284 0.439445
v -1.4073 4.84762 2.34537
vn -0.874603 0.22221 0.430921
v -1.57831 4.09529 2.31401
vn -0.567808 0.115918 -0.814959
v -1.4486 4.72192 2.31297
vn -0.749662 0.15452 -0.64353
v -1.4388 4.76188 2.31176
vn -0.502902 0.102716 -0.858219
v -1.78486 2.93393 2.30268
vn -0.414535 0.0316115 -0.909484
v -1.81103 2.95856 2.31594
vn -0.413969 0.0621668 -0.908166
v -1.75147 2.94607 2.28835
vn -0.403716 0.0600179 -0.912914
v -1.76968 2.93087 2.33684
vn 0.393729 -0.131482 0.909775
v -1.77265 2.91904 2.33579
vn 0.155396 -0.72965 0.66593
v -1.73886 2.92299 2.32205
vn 0.418761 -0.174211 0.891229
v -1.3417 4.83505 2.31798
vn 0.413969 -0.0621674 0.908166
v -1.33649 4.8545 2.31644
vn 0.454523 -0.00253503 0.890731
v -1.70414 3.07168 2.32095
vn 0.74774 -0.154095 0.645863
v -1.36403 4.70432 2.31621
vn 0.747809 -0.153704 0.645876
v -1.73603 2.98924 2.28734
vn 0.871619 -0.192171 -0.450945
v -1.72139 3.02873 2.30003
vn 0.891232 -0.187885 -0.412801
v -1.37301 4.74809 2.28129
vn -0.301029 0.0603916 -0.951701
v -1.37965 4.70747 2.28104
vn 0.0197079 -0.0067874 -0.999783
v -1.38009 4.87457 2.29813
vn -0.227238 0.603774 -0.764081
v -1.35138 4.85751 2.28293
vn -0.351089 0.160022 -0.922567
v -1.71394 3.03173 2.32216
vn 0.502189 -0.102473 0.858665
v -1.40127 4.84754 2.34557
vn 0.403716 -0.0600187 0.912914
v -1.41388 4.87061 2.31187
vn -0.418762 0.174209 -0.891229
v -1.51298 4.08405 2.28371
vn -0.393474 0.0793082 -0.915909
v -1.74544 2.94599 2.28855
vn 0.873079 -0.222229 -0.433991
v -1.79543 2.95541 2.35106
vn 0.395156 -0.101101 0.913033
v -1.80136 2.9361 2.35099
vn 0.35109 -0.160022 0.922566
v -1.43298 4.71877 2.34814
vn -0.0165593 0.0065549 0.999841
v -1.77308 3.08614 2.35288
vn -0.0166601 0.00617105 0.999842
v -1.43085 4.80722 2.31474
vn -0.905875 0.199082 0.373841
v -1.43396 4.7654 2.32802
vn -0.891232 0.187885 0.412801
v -1.79567 3.04874 2.31673
vn -0.50186 0.101762 -0.858942
v -1.78871 3.08929 2.31771
vn -0.746116 0.153361 -0.647913
v -1.78686 2.92191 2.3038
vn -0.450313 -0.467061 -0.760968
v -1.81625 2.9391 2.31748
vn -0.454523 0.00253524 -0.890731
v -1.73587 2.94292 2.32348
vn 0.40541 -0.10325 0.908285
v -1.42285 4.75866 2.34765
vn 0.301994 -0.0597966 0.951433
v -1.42078 4.85034 2.31503
vn -0.892375 0.226121 0.390558
v -1.5758 4.09722 2.3128
vn -0.415781 0.0839852 -0.905579
v -1.75375 2.926 2.28854
vn -0.386853 -0.0116546 -0.922068
v -1.34614 4.80303 2.31742
vn 0.423468 -0.0784398 0.902509
v -1.34722 4.78794 2.31619
vn 0.694699 -0.13461 0.706593
v -1.33918 4.83255 2.31629
vn 0.633781 -0.103812 0.766515
v -1.71536 3.01642 2.32028
vn 0.961678 -0.201109 0.186359
v -1.70396 3.07067 2.3188
vn 0.902982 -0.189435 -0.385665
v -1.53359 3.88789 2.31775
vn 0.963999 -0.20031 0.174877
v -1.73046 3.01947 2.28628
vn 0.497551 -0.107265 -0.860777
v -1.51108 4.07189 2.28306
vn 0.506097 -0.107913 -0.855699
v -1.71812 3.07352 2.28692
vn 0.871853 -0.183157 -0.454232
v -1.36199 4.80623 2.28175
vn -0.385671 0.0848299 -0.918728
v -1.35453 4.83565 2.28174
vn -0.145651 0.0534637 -0.98789
v -1.36281 4.79108 2.2811
vn -0.0625515 0.0181902 -0.997876
v -1.37368 4.87723 2.31077
vn 0.203942 0.978979 -0.00284641
v -1.33518 4.8641 2.31483
vn 0.619603 0.784213 0.0331921
v -1.34868 4.86682 2.28445
vn 0.42652 0.816976 -0.388112
v -1.72715 2.97404 2.32273
vn 0.420609 -0.0921545 0.902549
v -1.73255 2.94419 2.32177
vn 0.62342 -0.153633 0.766645
v -1.72211 2.9883 2.32142
vn 0.691508 -0.150059 0.706611
v -1.40974 4.81636 2.34686
vn 0.388534 -0.0711161 0.918686
v -1.41949 4.75897 2.3464
vn 0.402424 -0.0808265 0.911878
v -1.37694 4.81429 2.33222
vn 0.406042 -0.0749605 0.910775
v -1.41703 4.86482 2.31343
vn -0.938264 0.307295 0.158839
v -1.41046 4.86853 2.3264
vn -0.861664 0.299511 0.409669
v -1.41125 4.87994 2.31343
vn -0.264767 0.961911 -0.0680042
v -1.54427 4.09139 2.29818
vn -0.404658 0.081653 -0.910815
v -1.43559 4.76222 2.31015
vn -0.406878 0.0825714 -0.909743
v -1.37596 4.74972 2.28254
vn -0.402256 0.0816024 -0.911883
v -1.7501 2.93169 2.2881
vn 0.727765 -0.264821 -0.632636
v -1.7479 2.94729 2.28723
vn -0.156032 0.00364641 -0.987745
v -1.74296 2.96168 2.28698
vn 0.414223 -0.112528 -0.903193
v -1.79075 2.98738 2.35217
vn 0.385672 -0.0848301 0.918728
v -1.78993 3.00252 2.35282
vn 0.0625487 -0.0181895 0.997876
v -1.79821 2.95796 2.35218
vn 0.145649 -0.0534639 0.987891
v -1.42227 4.77414 2.34764
vn -0.49604 0.107151 0.861663
v -1.43462 4.72008 2.347
vn -0.879029 0.184602 0.439579
v -1.60396 3.90265 2.35034
vn -0.5061 0.107914 0.855697
v -1.43737 4.77718 2.31364
vn -0.961159 0.201278 -0.18884
v -1.58145 4.08665 2.31565
vn -0.963997 0.20031 -0.174888
v -1.44878 4.72294 2.31513
vn -0.907062 0.190265 0.37555
v -1.80659 2.99057 2.3165
vn -0.423468 0.0784398 -0.902509
v -1.81356 2.96106 2.31763
vn -0.633783 0.103812 -0.766513
v -1.80552 3.00567 2.31773
vn -0.694704 0.134611 -0.706588
v -1.78203 2.91698 2.31646
vn -0.203939 -0.978979 0.00284503
v -1.80406 2.92678 2.34947
vn -0.444037 -0.819641 0.361966
v -1.81756 2.9295 2.31909
vn -0.626914 -0.776541 -0.0629454
v -1.71714 3.03138 2.32377
vn 0.406889 -0.0824787 0.909746
v -1.75987 2.9761 2.33755
vn 0.403256 -0.0883412 0.910813
v -1.40483 4.84631 2.34669
vn 0.156033 -0.00364681 0.987745
v -1.41503 4.80215 2.3476
vn 0.0657886 -0.00275207 0.99783
v -1.42018 4.84941 2.31215
vn -0.623424 0.153635 -0.766642
v -1.42463 4.83492 2.31349
vn -0.936903 0.217996 -0.273294
v -1.73325 3.03463 2.28752
vn -0.402416 0.0808871 -0.911876
v -1.79288 3.04713 2.31513
vn -0.407015 0.0818513 -0.909747
v -1.7452 2.92567 2.30094
vn 0.861663 -0.299513 -0.40967
v -1.75499 2.91638 2.29011
vn 0.064367 -0.921476 -0.383066
v -1.33591 4.84793 2.31492
vn 0.968594 -0.0881515 -0.232499
v -1.34088 4.81748 2.31503
vn 0.94634 -0.172731 0.273139
v -1.35226 4.75946 2.31521
vn 0.962206 -0.198587 0.186341
v -1.36346 4.70516 2.31405
vn 0.903065 -0.189035 -0.385667
v -1.5421 3.88961 2.29706
vn 0.891437 -0.186901 -0.412804
v -1.37762 4.70802 2.28217
vn 0.874346 -0.183228 -0.449385
v -1.36736 4.76251 2.28122
vn 0.494495 -0.103918 -0.862946
v -1.35574 4.82048 2.28159
vn 0.423643 -0.0672599 -0.903329
v -1.35031 4.85083 2.28253
vn 0.772243 -0.0513336 -0.63325
v -1.3434 4.85447 2.29534
vn 0.909109 -0.0717529 -0.410332
v -1.7281 2.95868 2.32043
vn 0.936901 -0.217995 0.273305
v -1.35986 4.74647 2.31879
vn 0.407032 -0.0817927 0.909744
v -1.39775 4.87722 2.34381
vn -0.0793927 0.930767 0.35689
v -1.39287 4.8175 2.29637
vn -0.403256 0.0883415 -0.910813
v -1.7377 2.99145 2.28632
vn -0.0657853 0.0027512 -0.99783
v -1.80243 2.94277 2.35139
vn -0.816939 0.0575521 0.573846
v -1.79699 2.97312 2.35233
vn -0.423644 0.0672601 0.903328
v -1.78538 3.0311 2.3527
vn -0.496555 0.104627 0.861676
v -1.77511 3.08559 2.35175
vn -0.879112 0.184202 0.439582
v -1.61361 3.9046 2.33017
vn -0.891437 0.186901 0.412804
v -1.78927 3.08844 2.31987
vn -0.909136 0.190249 0.370509
v -1.80048 3.03415 2.31871
vn -0.962483 0.198848 -0.184621
v -1.81185 2.97612 2.31889
vn -0.946339 0.17273 -0.273144
v -1.81682 2.94568 2.319
vn -0.982737 0.0938063 0.15946
v -1.81226 2.93973 2.332
vn -0.909109 0.071753 0.410332
v -1.77677 3.04388 2.35138
vn 0.402282 -0.0815126 0.91188
v -1.40977 4.83193 2.34694
vn -0.41422 0.112527 0.903194
v -1.43062 4.8053 2.3125
vn -0.691513 0.15006 -0.706606
v -1.77579 2.97932 2.3017
vn -0.406043 0.0749607 -0.910775
v -1.74149 2.91366 2.32049
vn 0.25496 -0.966194 0.0382769
v -1.7357 2.92878 2.32049
vn 0.922953 -0.307241 -0.231863
v -1.56827 3.89517 2.33518
vn 0.404658 -0.0816529 0.910815
v -1.40264 4.86192 2.34582
vn -0.771295 0.276635 0.573217
v -1.42558 4.81956 2.31119
vn -0.42061 0.0921553 -0.902549
v -1.743 2.97724 2.28706
vn -0.388533 0.0711163 -0.918686
f 1//1 2//2 3//3
f 1//1 3//3 4//4
f 1//1 4//4 5//5
f 1//1 5//5 6//6
f 1//1 6//6 2//2
f 7//7 8//8 9//9
f 10//10 11//11 12//12
f 13//13 14//14 15//15
f 16//16 17//17 18//18
f 19//19 20//20 21//21
f 22//22 23//23 24//24
f 22//22 24//24 25//25
f 22//22 25//25 26//26
f 22//22 26//26 27//27
f 22//22 27//27 23//23
f 28//28 29//29 30//30
f 31//31 32//32 33//33
f 34//34 35//35 36//36
f 37//37 38//38 39//39
f 40//40 41//41 42//42
f 13//13 43//43 44//44
f 10//10 45//45 46//46
f 7//7 47//47 48//48
f 19//19 49//49 50//50
f 16//16 51//51 52//52
f 10//10 53//53 45//45
f 13//13 54//54 43//43
f 16//16 55//55 51//51
f 19//19 56//56 49//49
f 7//7 57//57 47//47
f 40//40 58//58 59//59
f 28//28 60//60 61//61
f 31//31 62//62 63//63
f 34//34 64//64 65//65
f 37//37 66//66 67//67
f 40//40 68//68 58//58
f 28//28 69//69 60//60
f 31//31 70//70 62//62
f 34//34 71//71 64//64
f 37//37 72//72 66//66
f 10//10 46//46 11//11
f 7//7 48//48 8//8
f 19//19 50//50 20//20
f 16//16 52//52 17//17
f 13//13 44//44 14//14
f 40//40 42//42 68//68
f 28//28 30//30 69//69
f 31//31 33//33 70//70
f 34//34 36//36 71//71
f 37//37 39//39 72//72
f 28//28 61//61 29//29
f 31//31 63//63 32//32
f 34//34 65//65 35//35
f 37//37 67//67 38//38
f 40//40 59//59 41//41
f 10//10 12//12 53//53
f 13//13 15//15 54//54
f 16//16 18//18 55//55
f 19//19 21//21 56//56
f 7//7 9//9 57//57
f 73//73 74//74 75//75
f 76//76 77//77 78//78
f 79//79 80//80 81//81
f 82//82 83//83 84//84
f 85//85 86//86 87//87
f 88//88 89//89 90//90
f 91//91 92//92 93//93
f 94//94 95//95 96//96
f 97//97 98//98 99//99
f 100//100 101//101 102//102
f 103//103 104//104 105//105
f 106//106 107//107 108//108
f 109//109 110//110 111//111
f 112//112 113//113 114//114
f 115//115 116//116 117//117
f 88//88 118//118 119//119
f 91//91 120//120 121//121
f 94//94 122//122 123//123
f 97//97 124//124 125//125
f 100//100 126//126 127//127
f 128//128 129//129 2//2
f 130//130 131//131 3//3
f 132//132 133//133 4//4
f 134//134 135//135 5//5
f 136//136 137//137 6//6
f 76//76 138//138 8//8
f 73//73 139//139 11//11
f 85//85 140//140 14//14
f 82//82 141//141 17//17
f 79//79 142//142 20//20
f 143//143 144//144 23//23
f 145//145 146//146 24//24
f 147//147 148//148 25//25
f 149//149 150//150 26//26
f 151//151 152//152 27//27
f 103//103 153//153 29//29
f 106//106 154//154 32//32
f 109//109 155//155 35//35
f 112//112 156//156 38//38
f 115//115 157//157 41//41
f 73//73 75//75 43//43
f 76//76 78//78 45//45
f 79//79 81//81 47//47
f 82//82 84//84 49//49
f 85//85 87//87 51//51
f 88//88 90//90 53//53
f 91//91 93//93 54//54
f 94//94 96//96 55//55
f 97//97 99//99 56//56
f 100//100 102//102 57//57
f 103//103 105//105 58//58
f 106//106 108//108 60//60
f 109//109 111//111 62//62
f 112//112 114//114 64//64
f 115//115 117//117 66//66
f 88//88 119//119 68//68
f 91//91 121//121 69//69
f 94//94 123//123 70//70
f 97//97 125//125 71//71
f 100//100 127//127 72//72
f 130//130 74//74 46//46
f 132//132 77//77 48//48
f 134//134 80//80 50//50
f 136//136 83//83 52//52
f 128//128 86//86 44//44
f 158//158 89//89 42//42
f 159//159 92//92 30//30
f 160//160 95//95 33//33
f 161//161 98//98 36//36
f 162//162 101//101 39//39
f 145//145 104//104 61//61
f 147//147 107//107 63//63
f 149//149 110//110 65//65
f 151//151 113//113 67//67
f 143//143 116//116 59//59
f 159//159 118//118 12//12
f 160//160 120//120 15//15
f 161//161 122//122 18//18
f 162//162 124//124 21//21
f 158//158 126//126 9//9
f 130//130 129//129 74//74
f 132//132 131//131 77//77
f 134//134 133//133 80//80
f 136//136 135//135 83//83
f 128//128 137//137 86//86
f 158//158 138//138 89//89
f 159//159 139//139 92//92
f 160//160 140//140 95//95
f 161//161 141//141 98//98
f 162//162 142//142 101//101
f 145//145 144//144 104//104
f 147//147 146//146 107//107
f 149//149 148//148 110//110
f 151//151 150//150 113//113
f 143//143 152//152 116//116
f 159//159 153//153 118//118
f 160//160 154//154 120//120
f 161//161 155//155 122//122
f 162//162 156//156 124//124
f 158//158 157//157 126//126
f 130//130 3//3 129//129
f 132//132 4//4 131//131
f 134//134 5//5 133//133
f 136//136 6//6 135//135
f 128//128 2//2 137//137
f 158//158 9//9 138//138
f 159//159 12//12 139//139
f 160//160 15//15 140//140
f 161//161 18//18 141//141
f 162//162 21//21 142//142
f 145//145 24//24 144//144
f 147//147 25//25 146//146
f 149//149 26//26 148//148
f 151//151 27//27 150//150
f 143//143 23//23 152//152
f 159//159 30//30 153//153
f 160//160 33//33 154//154
f 161//161 36//36 155//155
f 162//162 39//39 156//156
f 158//158 42//42 157//157
f 128//128 44//44 75//75
f 130//130 46//46 78//78
f 132//132 48//48 81//81
f 134//134 50//50 84//84
f 136//136 52//52 87//87
f 76//76 45//45 90//90
f 73//73 43//43 93//93
f 85//85 51//51 96//96
f 82//82 49//49 99//99
f 79//79 47//47 102//102
f 143//143 59//59 105//105
f 145//145 61//61 108//108
f 147//147 63//63 111//111
f 149//149 65//65 114//114
f 151//151 67//67 117//117
f 103//103 58//58 119//119
f 106//106 60//60 121//121
f 109//109 62//62 123//123
f 112//112 64//64 125//125
f 115//115 66//66 127//127
f 73//73 11//11 74//74
f 76//76 8//8 77//77
f 79//79 20//20 80//80
f 82//82 17//17 83//83
f 85//85 14//14 86//86
f 88//88 68//68 89//89
f 91//91 69//69 92//92
f 94//94 70//70 95//95
f 97//97 71//71 98//98
f 100//100 72//72 101//101
f 103//103 29//29 104//104
f 106//106 32//32 107//107
f 109//109 35//35 110//110
f 112//112 38//38 113//113
f 115//115 41//41 116//116
f 88//88 53//53 118//118
f 91//91 54//54 120//120
f 94//94 55//55 122//122
f 97//97 56//56 124//124
f 100//100 57//57 126//126
f 128//128 75//75 129//129
f 130//130 78//78 131//131
f 132//132 81//81 133//133
f 134//134 84//84 135//135
f 136//136 87//87 137//137
f 76//76 90//90 138//138
f 73//73 93//93 139//139
f 85//85 96//96 140//140
f 82//82 99//99 141//141
f 79//79 102//102 142//142
f 143//143 105//105 144//144
f 145//145 108//108 146//146
f 147//147 111//111 148//148
f 149//149 114//114 150//150
f 151//151 117//117 152//152
f 103//103 119//119 153//153
f 106//106 121//121 154//154
f 109//109 123//123 155//155
f 112//112 125//125 156//156
f 115//115 127//127 157//157
f 129//129 3//3 2//2
f 131//131 4//4 3//3
f 133//133 5//5 4//4
f 135//135 6//6 5//5
f 137//137 2//2 6//6
f 138//138 9//9 8//8
f 139//139 12//12 11//11
f 140//140 15//15 14//14
f 141//141 18//18 17//17
f 142//142 21//21 20//20
f 144//144 24//24 23//23
f 146//146 25//25 24//24
f 148//148 26//26 25//25
f 150//150 27//27 26//26
f 152//152 23//23 27//27
f 153//153 30//30 29//29
f 154//154 33//33 32//32
f 155//155 36//36 35//35
f 156//156 39//39 38//38
f 157//157 42//42 41//41
f 75//75 44//44 43//43
f 78//78 46//46 45//45
f 81//81 48//48 47//47
f 84//84 50//50 49//49
f 87//87 52//52 51//51
f 90//90 45//45 53//53
f 93//93 43//43 54//54
f 96//96 51//51 55//55
f 99//99 49//49 56//56
f 102//102 47//47 57//57
f 105//105 59//59 58//58
f 108//108 61//61 60//60
f 111//111 63//63 62//62
f 114//114 65//65 64//64
f 117//117 67//67 66//66
f 119//119 58//58 68//68
f 121//121 60//60 69//69
f 123//123 62//62 70//70
f 125//125 64//64 71//71
f 127//127 66//66 72//72
f 74//74 11//11 46//46
f 77//77 8//8 48//48
f 80//80 20//20 50//50
f 83//83 17//17 52//52
f 86//86 14//14 44//44
f 89//89 68//68 42//42
f 92//92 69//69 30//30
f 95//95 70//70 33//33
f 98//98 71//71 36//36
f 101//101 72//72 39//39
f 104//104 29//29 61//61
f 107//107 32//32 63//63
f 110//110 35//35 65//65
f 113//113 38//38 67//67
f 116//116 41//41 59//59
f 118//118 53//53 12//12
f 120//120 54//54 15//15
f 122//122 55//55 18//18
f 124//124 56//56 21//21
f 126//126 57//57 9//9
f 129//129 75//75 74//74
f 131//131 78//78 77//77
f 133//133 81//81 80//80
f 135//135 84//84 83//83
f 137//137 87//87 86//86
f 138//138 90//90 89//89
f 139//139 93//93 92//92
f 140//140 96//96 95//95
f 141//141 99//99 98//98
f 142//142 102//102 101//101
f 144//144 105//105 104//104
f 146//146 108//108 107//107
f 148//148 111//111 110//110
f 150//150 114//114 113//113
f 152//152 117//117 116//116
f 153//153 119//119 118//118
f 154//154 121//121 120//120
f 155//155 123//123 122//122
f 156//156 125//125 124//124
f 157//157 127//127 126//126
