# Created by Open3D 
# object name: part_062
# number of vertices: 162
# number of triangles: 320
v -2.09829 3.54024 1.03475
vn -0.988672 0.149906 0.0074566
v -2.10087 3.5208 1.02219
vn -0.990239 0.124733 -0.0622006
v -2.10112 3.5192 1.04181
vn -0.993708 0.108893 0.02619
v -2.09769 3.53886 1.0611
vn -0.987593 0.147892 0.0528068
v -2.09587 3.55374 1.04322
vn -0.978046 0.206209 0.0300601
v -2.09587 3.55371 1.02353
vn -0.980958 0.184479 -0.0607395
v -2.05724 3.50013 1.86578
vn -0.983891 0.145234 0.10424
v -2.06084 3.47985 1.85704
vn -0.99094 0.106184 0.0822408
v -2.05866 3.47956 1.8766
vn -0.978719 0.113477 0.170972
v -2.07872 3.49697 1.44919
vn -0.287279 -0.957312 -0.032017
v -2.09688 3.51549 1.06188
vn -0.230572 -0.972377 -0.0363261
v -2.07552 3.49624 1.449
vn -0.159067 -0.986467 -0.0397586
v -2.04906 3.51129 1.01033
vn -0.154737 -0.975866 -0.154087
v -2.04914 3.51272 1.00499
vn -0.108679 -0.378469 -0.919212
v -2.00144 3.50455 1.00704
vn -0.129904 -0.963226 -0.235204
v -2.04343 3.54834 1.01184
vn 0.143464 0.986879 -0.0740774
v -2.08829 3.55525 1.02272
vn 0.143462 0.989633 -0.00668551
v -1.99758 3.54167 1.01759
vn 0.151714 0.988398 -0.00715345
v -2.07705 3.53999 1.36494
vn 0.00994508 0.998811 0.0477217
v -2.05607 3.51788 1.8199
vn -0.178223 0.982358 0.0566559
v -2.0527 3.51704 1.83798
vn 0.0690791 0.99658 0.0453374
v -1.95007 3.4841 1.85971
vn 0.988672 -0.149906 -0.00745927
v -1.95353 3.46383 1.87065
vn 0.981862 -0.17987 0.0599498
v -1.95353 3.4638 1.85097
vn 0.981546 -0.188944 -0.0294526
v -1.95074 3.48505 1.83335
vn 0.987593 -0.147892 -0.0528066
v -1.94828 3.49833 1.85237
vn 0.995493 -0.0913759 -0.02538
v -1.94853 3.49674 1.87199
vn 0.990733 -0.120142 0.063358
v -1.97659 3.48169 1.44341
vn -0.009938 -0.998811 -0.0477221
v -1.95843 3.46311 1.83072
vn -0.0686047 -0.996676 -0.0439402
v -1.97986 3.48193 1.44358
vn -0.141095 -0.989156 -0.0407763
v -1.99113 3.52421 1.02868
vn 0.983891 -0.145234 -0.10424
v -1.9938 3.50315 1.03573
vn 0.978777 -0.186235 -0.0855058
v -1.99574 3.50507 1.01624
vn 0.970342 -0.168616 -0.173221
v -1.97492 3.52471 1.35916
vn 0.287271 0.957314 0.0320175
v -1.98754 3.5378 1.07584
vn 0.466205 0.884469 0.0191499
v -1.99078 3.53943 1.05779
vn 0.23109 0.97232 0.0345304
v -2.00035 3.50625 1.88385
vn 0.154737 0.975865 0.154088
v -1.95532 3.50038 1.87302
vn 0.156372 0.983848 0.0871306
v -2.04603 3.51395 1.87815
vn 0.148121 0.985082 0.0876008
v -2.00598 3.46919 1.88234
vn -0.143464 -0.986879 0.0740788
v -2.00553 3.47011 1.88778
vn -0.0195532 -0.465549 0.884806
v -2.05348 3.47664 1.88566
vn -0.164415 -0.973941 0.156229
v -2.09408 3.51715 1.02117
vn -0.156372 -0.983848 -0.0871302
v -2.09662 3.51879 1.01243
vn -0.183603 -0.955192 -0.232159
v -2.06187 3.47974 1.81835
vn -0.464032 -0.885607 -0.0193552
v -2.09833 3.51537 1.08023
vn -0.464082 -0.88556 -0.0202873
v -2.0556 3.51439 1.85845
vn -0.975272 0.203495 0.0862172
v -2.05923 3.50128 1.83949
vn -0.987286 0.147593 0.0590227
v -2.09097 3.55442 1.06347
vn 0.0679598 0.996728 0.0437676
v -2.09254 3.55351 1.08179
vn -0.182782 0.981563 0.055899
v -2.04387 3.54743 1.0064
vn 0.0435459 0.594822 -0.802677
v -2.0911 3.55514 1.01391
vn 0.110715 0.981975 -0.153193
v -2.05862 3.4781 1.83639
vn -0.230501 -0.972451 -0.034773
v -2.00337 3.50358 1.01603
vn -0.148121 -0.985082 -0.0876006
v -1.99592 3.5409 1.00852
vn 0.164415 0.973941 -0.156228
v -2.07383 3.5398 1.36371
vn 0.141094 0.989156 0.0407763
v -2.05366 3.51247 1.87795
vn -0.969343 0.173131 0.174353
v -1.96111 3.46229 1.87146
vn -0.143461 -0.989633 0.00668568
v -1.9583 3.4624 1.88027
vn -0.110715 -0.981974 0.153194
v -1.99333 3.49966 1.07428
vn 0.180305 -0.981971 -0.0567764
v -1.95686 3.46403 1.8124
vn 0.180376 -0.982011 -0.0558446
v -1.98856 3.53768 1.03714
vn 0.992719 -0.0886596 -0.0815353
v -1.9892 3.52262 1.05495
vn 0.987286 -0.147593 -0.0590227
v -1.95252 3.50205 1.8323
vn 0.230152 0.97248 0.0362166
v -1.95107 3.50217 1.81395
vn 0.462212 0.886535 0.0203906
v -2.00026 3.50481 1.8892
vn 0.125092 0.515146 0.847925
v -1.95278 3.49874 1.88176
vn 0.183602 0.955192 0.23216
v -2.05182 3.47586 1.8766
vn -0.151714 -0.988398 0.00715398
v -1.9967 3.5005 1.05621
vn -0.0686865 -0.9966 -0.0454932
v -1.99074 3.53798 1.01758
vn 0.979119 -0.108795 -0.171728
v -1.97817 3.52549 1.35829
vn 0.159064 0.986467 0.0397588
v -2.04796 3.51299 1.88715
vn 0.129904 0.963226 0.235204
v -2.09649 3.51663 1.0356
vn -0.164904 -0.984763 -0.0552178
v -2.09933 3.5171 1.04243
vn -0.406698 -0.912582 -0.0423241
v -2.09863 3.51812 1.0223
vn -0.345248 -0.934521 -0.0864533
v -2.06135 3.47929 1.84337
vn -0.813979 -0.580682 0.0157001
v -2.06326 3.48175 1.81893
vn -0.9927 0.107407 0.0548619
v -2.0811 3.49826 1.44937
vn -0.82128 -0.570376 0.0130421
v -2.05575 3.51616 1.84488
vn -0.606859 0.791616 0.0711815
v -2.07951 3.53926 1.36908
vn -0.615318 0.785314 0.0683063
v -2.058 3.51633 1.82034
vn -0.975966 0.209782 0.058998
v -2.09061 3.55531 1.03718
vn 0.135201 0.990495 0.0253032
v -2.09294 3.55559 1.02382
vn -0.0515262 0.998642 -0.00765219
v -2.09354 3.55516 1.04399
vn -0.117286 0.992469 0.0353379
v -2.04604 3.53379 1.00413
vn -0.0492865 0.0481561 -0.997623
v -2.09663 3.5207 1.00822
vn -0.202014 -0.036703 -0.978695
v -2.09163 3.55365 1.00956
vn -0.166953 0.18792 -0.967891
v -2.05564 3.47671 1.86249
vn -0.163349 -0.986283 -0.0237104
v -2.05645 3.47691 1.87602
vn -0.339515 -0.940129 0.029799
v -2.05913 3.47782 1.85605
vn -0.404907 -0.91434 -0.00576921
v -1.99964 3.50214 1.03012
vn -0.136757 -0.988974 -0.0568119
v -2.00143 3.50103 1.05602
vn -0.148267 -0.98809 -0.0411621
v -2.04818 3.50938 1.03078
vn -0.150828 -0.986993 -0.0556344
v -1.99265 3.53967 1.01111
vn 0.912984 0.211249 -0.349049
v -1.99463 3.52574 1.00834
vn 0.91138 -0.122452 -0.392927
v -1.99633 3.53939 1.00417
vn 0.106571 0.146994 -0.98338
v -2.02601 3.53273 1.36067
vn 0.150086 0.987852 0.0402691
v -1.99546 3.54035 1.05763
vn 0.151899 0.98762 0.039167
v -2.08627 3.55393 1.06277
vn 0.148175 0.988177 0.0393777
v -2.05141 3.513 1.88451
vn -0.813428 0.444 0.375764
v -2.05076 3.51438 1.87755
vn -0.0457963 0.99303 0.108601
v -2.05365 3.51447 1.87098
vn -0.525802 0.840952 0.127795
v -1.95879 3.46222 1.857
vn -0.1352 -0.990495 -0.0253032
v -1.95586 3.46237 1.8502
vn 0.117288 -0.992469 -0.0353378
v -1.95646 3.46195 1.87036
vn 0.0515257 -0.998642 0.00765217
v -1.99365 3.50137 1.04931
vn 0.605353 -0.792722 -0.0716886
v -1.9914 3.50121 1.07384
vn 0.98049 -0.187773 -0.058138
v -1.97393 3.48222 1.4433
vn 0.615318 -0.785314 -0.0683063
v -1.98805 3.53824 1.05081
vn 0.812397 0.582877 -0.016271
v -1.97234 3.52323 1.36301
vn 0.821291 0.57036 -0.0130434
v -1.98614 3.53578 1.07525
vn 0.994237 -0.0924678 -0.0542451
v -1.95291 3.50091 1.85858
vn 0.164903 0.984763 0.0552174
v -1.95077 3.49942 1.87189
vn 0.345251 0.93452 0.086454
v -1.95007 3.50044 1.85175
vn 0.406703 0.91258 0.0423236
v -2.00226 3.49101 1.89036
vn 0.0492865 -0.0481558 0.997623
v -1.95778 3.46388 1.88462
vn 0.170197 -0.172697 0.970159
v -1.95277 3.49683 1.88596
vn 0.203455 0.052333 0.977685
v -2.05394 3.47719 1.83656
vn -0.151904 -0.987611 -0.0393764
v -2.00713 3.46927 1.86182
vn -0.149308 -0.988477 -0.0248963
v -1.99864 3.50316 1.01664
vn 0.0457954 -0.99303 -0.108601
v -1.99605 3.50164 1.03659
vn 0.115466 -0.990707 -0.0718897
v -1.99295 3.54063 1.01816
vn 0.339515 0.940129 -0.029799
v -1.99024 3.53934 1.02468
vn 0.753001 0.654618 -0.0668258
v -2.04797 3.5165 1.83816
vn 0.148264 0.988096 0.041025
v -1.95715 3.50292 1.83302
vn 0.151971 0.987542 0.0408152
v -2.05368 3.49893 1.88613
vn -0.91138 0.122452 0.392926
v -2.04806 3.51109 1.89136
vn -0.0700695 0.0932583 0.993173
v -2.09961 3.51974 1.01543
vn -0.955179 -0.0877173 -0.282735
v -2.10067 3.51876 1.02914
vn -0.759011 -0.648747 -0.0550426
v -2.10028 3.51733 1.05535
vn -0.81431 -0.580365 0.00869895
v -2.09976 3.51742 1.07998
vn -0.992762 0.10747 0.0535994
v -2.07861 3.52054 1.45032
vn -0.987444 0.147743 0.0559149
v -2.09451 3.55199 1.08139
vn -0.977585 0.20256 0.0574113
v -2.09468 3.5542 1.05685
vn -0.603537 0.794769 0.0639094
v -2.09516 3.55504 1.03062
vn -0.531823 0.846835 0.00592689
v -2.09427 3.55488 1.01686
vn -0.844327 0.47418 -0.249531
v -2.09676 3.54102 1.01412
vn -0.945014 0.155309 -0.287798
v -2.05916 3.4782 1.86951
vn -0.753001 -0.654618 0.0668258
v -2.09225 3.51462 1.06117
vn -0.151982 -0.987535 -0.0409518
v -2.00134 3.50645 1.00283
vn 0.0731489 -0.0778732 -0.994276
v -2.04228 3.54826 1.03236
vn 0.149308 0.988477 0.0248963
v -2.05335 3.51589 1.8576
vn -0.115467 0.990706 0.0718898
v -1.95513 3.46266 1.87732
vn 0.882718 -0.389214 0.26329
v -1.95424 3.4625 1.86356
vn 0.531824 -0.846834 -0.00592918
v -1.95472 3.46334 1.83734
vn 0.605621 -0.79312 -0.0646872
v -1.95489 3.46554 1.8128
vn 0.980553 -0.187835 -0.0568754
v -1.96969 3.50425 1.44416
vn 0.987444 -0.147743 -0.0559149
v -1.94964 3.50011 1.81421
vn 0.994981 -0.0851174 -0.052609
v -1.94912 3.5002 1.83884
vn 0.815384 0.578845 -0.00935294
v -1.94873 3.49877 1.86504
vn 0.75903 0.648725 0.0550401
v -1.94979 3.49779 1.87875
vn 0.943878 0.181055 0.27625
v -1.95155 3.48365 1.88035
vn 0.945013 -0.155308 0.287802
v -1.96313 3.4636 1.83142
vn -0.148191 -0.988166 -0.0395865
v -1.99576 3.50306 1.0232
vn 0.525805 -0.84095 -0.127795
v -1.99027 3.53971 1.03814
vn 0.404907 0.91434 0.00576922
v -2.00122 3.50815 1.86341
vn 0.150828 0.986993 0.0556342
v -2.05307 3.47814 1.89002
vn -0.104962 -0.131527 0.98574
v -2.05675 3.47786 1.88308
vn -0.923151 -0.119012 0.365553
v -2.0277 3.48901 1.44629
vn -0.150086 -0.987852 -0.0402691
v -1.99799 3.50454 1.00968
vn 0.850687 -0.35792 -0.384999
v -1.99377 3.54082 1.0317
vn 0.163349 0.986283 0.0237104
v -2.04976 3.5154 1.86407
vn 0.136757 0.988974 0.0568119
f 1//1 2//2 3//3
f 1//1 3//3 4//4
f 1//1 4//4 5//5
f 1//1 5//5 6//6
f 1//1 6//6 2//2
f 7//7 8//8 9//9
f 10//10 11//11 12//12
f 13//13 14//14 15//15
f 16//16 17//17 18//18
f 19//19 20//20 21//21
f 22//22 23//23 24//24
f 22//22 24//24 25//25
f 22//22 25//25 26//26
f 22//22 26//26 27//27
f 22//22 27//27 23//23
f 28//28 29//29 30//30
f 31//31 32//32 33//33
f 34//34 35//35 36//36
f 37//37 38//38 39//39
f 40//40 41//41 42//42
f 13//13 43//43 44//44
f 10//10 45//45 46//46
f 7//7 47//47 48//48
f 19//19 49//49 50//50
f 16//16 51//51 52//52
f 10//10 53//53 45//45
f 13//13 54//54 43//43
f 16//16 55//55 51//51
f 19//19 56//56 49//49
f 7//7 57//57 47//47
f 40//40 58//58 59//59
f 28//28 60//60 61//61
f 31//31 62//62 63//63
f 34//34 64//64 65//65
f 37//37 66//66 67//67
f 40//40 68//68 58//58
f 28//28 69//69 60//60
f 31//31 70//70 62//62
f 34//34 71//71 64//64
f 37//37 72//72 66//66
f 10//10 46//46 11//11
f 7//7 48//48 8//8
f 19//19 50//50 20//20
f 16//16 52//52 17//17
f 13//13 44//44 14//14
f 40//40 42//42 68//68
f 28//28 30//30 69//69
f 31//31 33//33 70//70
f 34//34 36//36 71//71
f 37//37 39//39 72//72
f 28//28 61//61 29//29
f 31//31 63//63 32//32
f 34//34 65//65 35//35
f 37//37 67//67 38//38
f 40//40 59//59 41//41
f 10//10 12//12 53//53
f 13//13 15//15 54//54
f 16//16 18//18 55//55
f 19//19 21//21 56//56
f 7//7 9//9 57//57
f 73//73 74//74 75//75
f 76//76 77//77 78//78
f 79//79 80//80 81//81
f 82//82 83//83 84//84
f 85//85 86//86 87//87
f 88//88 89//89 90//90
f 91//91 92//92 93//93
f 94//94 95//95 96//96
f 97//97 98//98 99//99
f 100//100 101//101 102//102
f 103//103 104//104 105//105
f 106//106 107//107 108//108
f 109//109 110//110 111//111
f 112//112 113//113 114//114
f 115//115 116//116 117//117
f 88//88 118//118 119//119
f 91//91 120//120 121//121
f 94//94 122//122 123//123
f 97//97 124//124 125//125
f 100//100 126//126 127//127
f 128//128 129//129 2//2
f 130//130 131//131 3//3
f 132//132 133//133 4//4
f 134//134 135//135 5//5
f 136//136 137//137 6//6
f 76//76 138//138 8//8
f 73//73 139//139 11//11
f 85//85 140//140 14//14
f 82//82 141//141 17//17
f 79//79 142//142 20//20
f 143//143 144//144 23//23
f 145//145 146//146 24//24
f 147//147 148//148 25//25
f 149//149 150//150 26//26
f 151//151 152//152 27//27
f 103//103 153//153 29//29
f 106//106 154//154 32//32
f 109//109 155//155 35//35
f 112//112 156//156 38//38
f 115//115 157//157 41//41
f 73//73 75//75 43//43
f 76//76 78//78 45//45
f 79//79 81//81 47//47
f 82//82 84//84 49//49
f 85//85 87//87 51//51
f 88//88 90//90 53//53
f 91//91 93//93 54//54
f 94//94 96//96 55//55
f 97//97 99//99 56//56
f 100//100 102//102 57//57
f 103//103 105//105 58//58
f 106//106 108//108 60//60
f 109//109 111//111 62//62
f 112//112 114//114 64//64
f 115//115 117//117 66//66
f 88//88 119//119 68//68
f 91//91 121//121 69//69
f 94//94 123//123 70//70
f 97//97 125//125 71//71
f 100//100 127//127 72//72
f 130//130 74//74 46//46
f 132//132 77//77 48//48
f 134//134 80//80 50//50
f 136//136 83//83 52//52
f 128//128 86//86 44//44
f 158//158 89//89 42//42
f 159//159 92//92 30//30
f 160//160 95//95 33//33
f 161//161 98//98 36//36
f 162//162 101//101 39//39
f 145//145 104//104 61//61
f 147//147 107//107 63//63
f 149//149 110//110 65//65
f 151//151 113//113 67//67
f 143//143 116//116 59//59
f 159//159 118//118 12//12
f 160//160 120//120 15//15
f 161//161 122//122 18//18
f 162//162 124//124 21//21
f 158//158 126//126 9//9
f 130//130 129//129 74//74
f 132//132 131//131 77//77
f 134//134 133//133 80//80
f 136//136 135//135 83//83
f 128//128 137//137 86//86
f 158//158 138//138 89//89
f 159//159 139//139 92//92
f 160//160 140//140 95//95
f 161//161 141//141 98//98
f 162//162 142//142 101//101
f 145//145 144//144 104//104
f 147//147 146//146 107//107
f 149//149 148//148 110//110
f 151//151 150//150 113//113
f 143//143 152//152 116//116
f 159//159 153//153 118//118
f 160//160 154//154 120//120
f 161//161 155//155 122//122
f 162//162 156//156 124//124
f 158//158 157//157 126//126
f 130//130 3//3 129//129
f 132//132 4//4 131//131
f 134//134 5//5 133//133
f 136//136 6//6 135//135
f 128//128 2//2 137//137
f 158//158 9//9 138//138
f 159//159 12//12 139//139
f 160//160 15//15 140//140
f 161//161 18//18 141//141
f 162//162 21//21 142//142
f 145//145 24//24 144//144
f 147//147 25//25 146//146
f 149//149 26//26 148//148
f 151//151 27//27 150//150
f 143//143 23//23 152//152
f 159//159 30//30 153//153
f 160//160 33//33 154//154
f 161//161 36//36 155//155
f 162//162 39//39 156//156
f 158//158 42//42 157//157
f 128//128 44//44 75//75
f 130//130 46//46 78//78
f 132//132 48//48 81//81
f 134//134 50//50 84//84
f 136//136 52//52 87//87
f 76//76 45//45 90//90
f 73//73 43//43 93//93
f 85//85 51//51 96//96
f 82//82 49//49 99//99
f 79//79 47//47 102//102
f 143//143 59//59 105//105
f 145//145 61//61 108//108
f 147//147 63//63 111//111
f 149//149 65//65 114//114
f 151//151 67//67 117//117
f 103//103 58//58 119//119
f 106//106 60//60 121//121
f 109//109 62//62 123//123
f 112//112 64//64 125//125
f 115//115 66//66 127//127
f 73//73 11//11 74//74
f 76//76 8//8 77//77
f 79//79 20//20 80//80
f 82//82 17//17 83//83
f 85//85 14//14 86//86
f 88//88 68//68 89//89
f 91//91 69//69 92//92
f 94//94 70//70 95//95
f 97//97 71//71 98//98
f 100//100 72//72 101//101
f 103//103 29//29 104//104
f 106//106 32//32 107//107
f 109//109 35//35 110//110
f 112//112 38//38 113//113
f 115//115 41//41 116//116
f 88//88 53//53 118//118
f 91//91 54//54 120//120
f 94//94 55//55 122//122
f 97//97 56//56 124//124
f 100//100 57//57 126//126
f 128//128 75//75 129//129
f 130//130 78//78 131//131
f 132//132 81//81 133//133
f 134//134 84//84 135//135
f 136//136 87//87 137//137
f 76//76 90//90 138//138
f 73//73 93//93 139//139
f 85//85 96//96 140//140
f 82//82 99//99 141//141
f 79//79 102//102 142//142
f 143//143 105//105 144//144
f 145//145 108//108 146//146
f 147//147 111//111 148//148
f 149//149 114//114 150//150
f 151//151 117//117 152//152
f 103//103 119//119 153//153
f 106//106 121//121 154//154
f 109//109 123//123 155//155
f 112//112 125//125 156//156
f 115//115 127//127 157//157
f 129//129 3//3 2//2
f 131//131 4//4 3//3
f 133//133 5//5 4//4
f 135//135 6//6 5//5
f 137//137 2//2 6//6
f 138//138 9//9 8//8
f 139//139 12//12 11//11
f 140//140 15//15 14//14
f 141//141 18//18 17//17
f 142//142 21//21 20//20
f 144//144 24//24 23//23
f 146//146 25//25 24//24
f 148//148 26//26 25//25
f 150//150 27//27 26//26
f 152//152 23//23 27//27
f 153//153 30//30 29//29
f 154//154 33//33 32//32
f 155//155 36//36 35//35
f 156//156 39//39 38//38
f 157//157 42//42 41//41
f 75//75 44//44 43//43
f 78//78 46//46 45//45
f 81//81 48//48 47//47
f 84//84 50//50 49//49
f 87//87 52//52 51//51
f 90//90 45//45 53//53
f 93//93 43//43 54//54
f 96//96 51//51 55//55
f 99//99 49//49 56//56
f 102//102 47//47 57//57
f 105//105 59//59 58//58
f 108//108 61//61 60//60
f 111//111 63//63 62//62
f 114//114 65//65 64//64
f 117//117 67//67 66//66
f 119//119 58//58 68//68
f 121//121 60//60 69//69
f 123//123 62//62 70//70
f 125//125 64//64 71//71
f 127//127 66//66 72//72
f 74//74 11//11 46//46
f 77//77 8//8 48//48
f 80//80 20//20 50//50
f 83//83 17//17 52//52
f 86//86 14//14 44//44
f 89//89 68//68 42//42
f 92//92 69//69 30//30
f 95//95 70//70 33//33
f 98//98 71//71 36//36
f 101//101 72//72 39//39
f 104//104 29//29 61//61
f 107//107 32//32 63//63
f 110//110 35//35 65//65
f 113//113 38//38 67//67
f 116//116 41//41 59//59
f 118//118 53//53 12//12
f 120//120 54//54 15//15
f 122//122 55//55 18//18
f 124//124 56//56 21//21
f 126//126 57//57 9//9
f 129//129 75//75 74//74
f 131//131 78//78 77//77
f 133//133 81//81 80//80
f 135//135 84//84 83//83
f 137//137 87//87 86//86
f 138//138 90//90 89//89
f 139//139 93//93 92//92
f 140//140 96//96 95//95
f 141//141 99//99 98//98
f 142//142 102//102 101//101
f 144//144 105//105 104//104
f 146//146 108//108 107//107
f 148//148 111//111 110//110
f 150//150 114//114 113//113
f 152//152 117//117 116//116
f 153//153 119//119 118//118
f 154//154 121//121 120//120
f 155//155 123//123 122//122
f 156//156 125//125 124//124
f 157//157 127//127 126//126
