# Created by Open3D 
# object name: part_019
# number of vertices: 162
# number of triangles: 320
v -1.90186 6.20866 1.39191
vn 0.324218 0.874747 0.360139
v -1.8834 6.20375 1.38509
vn 0.456352 0.60113 0.656038
v -1.88381 6.20558 1.38171
vn 0.31743 0.935125 0.157412
v -1.90339 6.20973 1.3879
vn 0.137214 0.98845 -0.0643286
v -1.91488 6.21088 1.39682
vn 0.160441 0.95898 0.233699
v -1.91302 6.2088 1.39949
vn 0.397316 0.608069 0.687307
v -1.96088 6.20411 1.27212
vn -0.113814 0.840992 -0.528941
v -1.9417 6.20112 1.2642
vn 0.0407811 0.913799 -0.404115
v -1.94408 6.19907 1.26194
vn -0.259347 0.545989 -0.79664
v -1.9114 6.19813 1.32249
vn 0.895531 -0.0770218 -0.438284
v -1.8841 6.19841 1.37847
vn 0.895521 -0.108181 -0.431671
v -1.91193 6.19199 1.32298
vn 0.889524 -0.146765 -0.432675
v -1.89307 6.10431 1.39521
vn 0.979741 -0.103251 0.171602
v -1.89375 6.10452 1.3965
vn 0.507606 0.0225099 0.861295
v -1.90436 6.01458 1.40429
vn 0.901059 -0.0778602 0.426651
v -1.92642 6.10999 1.41142
vn -0.464653 0.142968 0.873875
v -1.91698 6.1956 1.40204
vn -0.727411 0.157081 0.667981
v -1.93797 6.02446 1.41888
vn -0.727933 0.152877 0.668388
v -1.94029 6.20456 1.35187
vn -0.87736 0.225204 0.423701
v -1.97193 6.20472 1.28587
vn -0.854181 0.325684 0.405346
v -1.97414 6.20014 1.28387
vn -0.884632 0.194078 0.423982
v -1.98567 6.00192 1.29202
vn -0.324225 -0.874738 -0.360155
v -1.9684 6.00073 1.28145
vn -0.401171 -0.610568 -0.682838
v -1.96653 5.99865 1.28413
vn -0.188632 -0.957081 -0.220031
v -1.98376 6.00078 1.29584
vn -0.137218 -0.98845 0.0643204
v -1.9976 6.00395 1.29924
vn -0.344826 -0.927536 -0.144125
v -1.99801 6.00578 1.29585
vn -0.461338 -0.597174 -0.656163
v -1.93503 6.00544 1.34145
vn 0.877359 -0.225207 -0.423701
v -1.96228 6.00515 1.28544
vn 0.880667 -0.194603 -0.43192
v -1.93406 6.01151 1.34074
vn 0.888355 -0.1563 -0.431737
v -1.92666 6.00647 1.4118
vn 0.113805 -0.841002 0.528927
v -1.90864 6.00311 1.40163
vn 0.0880085 -0.935755 0.341493
v -1.90772 6.00541 1.40461
vn 0.314528 -0.555379 0.769822
v -1.96392 6.01187 1.37083
vn -0.895531 0.0770097 0.438284
v -1.94381 6.01066 1.41176
vn -0.894705 -0.0301152 0.445641
v -1.94231 6.01536 1.41411
vn -0.890674 0.108224 0.441573
v -1.98834 6.10522 1.28573
vn -0.979741 0.103251 -0.171602
v -1.99871 6.01977 1.29558
vn -0.977843 0.133609 0.16116
v -1.97773 6.19092 1.27874
vn -0.977328 0.137812 0.160742
v -1.955 6.09954 1.26952
vn 0.464648 -0.142967 -0.873878
v -1.95644 6.09969 1.26926
vn -0.373258 -0.0454116 -0.926616
v -1.94435 6.18938 1.26075
vn 0.21617 -0.112587 -0.969843
v -1.8827 6.18976 1.38537
vn 0.977845 -0.133608 -0.161149
v -1.88234 6.19416 1.38662
vn 0.903298 -0.059602 0.424854
v -1.93761 6.19887 1.26919
vn 0.894889 0.028694 -0.445366
v -1.88519 6.20291 1.37558
vn 0.897567 0.0289039 -0.439929
v -1.97278 6.20642 1.27931
vn -0.116106 0.937642 -0.327638
v -1.95866 6.20547 1.2757
vn 0.104889 0.985955 -0.129966
v -1.91914 6.20438 1.39551
vn -0.880038 0.194968 0.433037
v -1.91951 6.20876 1.39227
vn -0.850744 0.328384 0.410364
v -1.92498 6.10984 1.41169
vn 0.342839 0.0502664 0.938048
v -1.91504 6.19973 1.40252
vn -0.213922 0.130844 0.968048
v -1.9391 6.19417 1.26684
vn 0.891224 -0.108512 -0.440391
v -1.90368 6.01861 1.40221
vn 0.977328 -0.137812 -0.160742
v -1.93707 6.02015 1.42019
vn -0.216169 0.112586 0.969843
v -1.94118 6.1985 1.35273
vn -0.888355 0.156299 0.431737
v -1.97369 6.20412 1.27634
vn -0.320325 0.552767 -0.769312
v -1.96443 6.01393 1.27891
vn 0.727411 -0.157081 -0.667981
v -1.96637 6.0098 1.27842
vn 0.213928 -0.130844 -0.968047
v -1.90948 6.00481 1.39507
vn 0.853949 -0.32681 -0.404927
v -1.9619 6.00077 1.28868
vn 0.851268 -0.327028 -0.410361
v -1.93971 6.00841 1.41674
vn -0.0682674 -0.906233 0.417231
v -1.92849 6.00504 1.40804
vn -0.104888 -0.985955 0.129969
v -1.99731 6.01112 1.30247
vn -0.895134 0.108429 0.432409
v -1.99622 6.00662 1.30537
vn -0.897512 -0.027694 0.440119
v -1.98767 6.10501 1.28444
vn -0.535356 -0.0174493 -0.844446
v -1.99908 6.01537 1.29433
vn -0.903296 0.0596012 -0.424857
v -1.94345 6.18507 1.26207
vn 0.727933 -0.152877 -0.668388
v -1.90728 6.00939 1.39707
vn 0.884965 -0.194269 -0.423198
v -1.93734 6.01046 1.41901
vn 0.256303 -0.541842 0.800448
v -1.96331 6.01802 1.37049
vn -0.889524 0.146767 0.432674
v -1.97706 6.19495 1.27665
vn -0.90106 0.0778605 -0.426649
v -1.88274 6.19542 1.38261
vn 0.928837 -0.140032 -0.343005
v -1.88274 6.2015 1.3812
vn 0.942455 -0.00378624 -0.33431
v -1.88197 6.19855 1.38452
vn 0.994269 -0.0306667 -0.102413
v -1.93976 6.20037 1.26572
vn 0.825205 0.34101 -0.450277
v -1.93885 6.20232 1.26959
vn 0.185539 0.973087 -0.13666
v -1.91164 6.20302 1.32242
vn 0.834264 0.35198 -0.424397
v -1.97294 6.20602 1.28185
vn -0.730548 0.608109 0.31065
v -1.93917 6.20915 1.35042
vn -0.715553 0.616162 0.329132
v -1.96996 6.20762 1.28472
vn 0.0116133 0.99857 -0.0521869
v -1.91755 6.20135 1.39954
vn -0.840454 0.16157 0.517235
v -1.91569 6.2043 1.40092
vn -0.664097 0.252026 0.703888
v -1.917 6.20734 1.39785
vn -0.804971 0.294098 0.515294
v -1.9125 6.10775 1.40593
vn 0.441696 0.0340578 0.896518
v -1.88355 6.19454 1.38797
vn 0.458401 0.0433219 0.887689
v -1.9132 6.1996 1.40239
vn 0.425394 0.0488915 0.903687
v -1.94146 6.19089 1.26343
vn 0.84228 -0.146705 -0.518693
v -1.9426 6.19388 1.26147
vn 0.688355 -0.0542577 -0.723342
v -1.94052 6.19704 1.26392
vn 0.839601 -0.0117242 -0.543077
v -1.90514 6.0127 1.40059
vn 0.927016 -0.154895 -0.341539
v -1.90599 6.0182 1.39618
vn 0.890992 -0.15235 -0.427694
v -1.8937 6.10406 1.39186
vn 0.927106 -0.147584 -0.34452
v -1.93746 6.01397 1.42012
vn 0.250854 -0.171458 0.952719
v -1.92477 6.01136 1.41436
vn 0.402412 -0.192213 0.895052
v -1.93524 6.01981 1.42008
vn 0.42249 0.0252186 0.906017
v -1.95229 6.10827 1.36169
vn -0.88895 0.151534 0.43221
v -1.94137 6.02423 1.41339
vn -0.886301 0.150756 0.437884
v -1.92036 6.19557 1.39653
vn -0.886059 0.152731 0.43769
v -1.97557 6.20095 1.27619
vn -0.540291 0.220793 -0.811995
v -1.97631 6.19962 1.27786
vn -0.970018 0.22843 0.0829769
v -1.97473 6.20422 1.2781
vn -0.873684 0.483688 -0.0521849
v -1.96386 6.00818 1.28141
vn 0.840455 -0.16157 -0.517233
v -1.96442 6.00219 1.2831
vn 0.804971 -0.294096 -0.515295
v -1.96573 6.00523 1.28003
vn 0.664097 -0.252027 -0.703888
v -1.90847 6.00351 1.3991
vn 0.733127 -0.60666 -0.30739
v -1.91145 6.00191 1.39623
vn -0.0494422 -0.996286 0.0704913
v -1.93643 6.00083 1.34231
vn 0.715554 -0.616161 -0.329132
v -1.94165 6.00916 1.41523
vn -0.823185 -0.33864 0.45573
v -1.96397 6.00696 1.37032
vn -0.83427 -0.351965 0.424399
v -1.94256 6.00721 1.41135
vn -0.21004 -0.966298 0.148832
v -1.99868 6.01411 1.29833
vn -0.928831 0.140034 0.34302
v -1.99944 6.01098 1.29642
vn -0.994267 0.0306738 0.10243
v -1.99867 6.00803 1.29975
vn -0.942448 0.00380627 0.334331
v -1.97544 6.1029 1.27819
vn -0.441697 -0.0340579 -0.896518
v -1.96821 6.00993 1.27856
vn -0.427711 -0.0485528 -0.90261
v -1.99786 6.01498 1.29298
vn -0.460665 -0.0428782 -0.886538
v -1.94004 6.18529 1.26756
vn 0.886885 -0.150715 -0.436715
v -1.95272 6.09951 1.27207
vn 0.842651 -0.154096 -0.515939
v -1.9051 6.0099 1.40309
vn 0.970018 -0.22843 -0.0829769
v -1.90664 6.00665 1.40037
vn 0.907832 -0.286139 -0.306538
v -1.93882 6.01565 1.41948
vn -0.688355 0.0542577 0.723342
v -1.93933 6.01087 1.41871
vn -0.597342 -0.232933 0.767414
v -1.97542 6.19133 1.28476
vn -0.890618 0.152377 0.428462
v -1.99643 6.01999 1.30162
vn -0.89086 0.150411 0.428656
v -1.96307 6.19927 1.26971
vn -0.402412 0.192218 -0.895051
v -1.97582 6.19477 1.27528
vn -0.457762 -0.0192064 -0.888867
v -1.88234 6.20031 1.38588
vn 0.557054 0.243894 0.793856
v -1.88241 6.20326 1.38336
vn 0.965032 0.261284 -0.0210902
v -1.8838 6.20468 1.3793
vn 0.849566 0.342891 -0.400828
v -1.88638 6.20636 1.37611
vn 0.192094 0.973594 -0.123349
v -1.93137 6.20806 1.33195
vn 0.121135 0.987865 -0.0972086
v -1.91749 6.21167 1.39123
vn 0.0309123 0.99853 -0.0445279
v -1.91698 6.21034 1.39543
vn -0.707259 0.606822 0.362701
v -1.91505 6.20882 1.39923
vn -0.506018 0.512027 0.694099
v -1.91395 6.2057 1.40126
vn 0.306969 0.286126 0.90769
v -1.90114 6.20404 1.3954
vn 0.457685 0.258543 0.850694
v -1.94209 6.19866 1.26223
vn 0.597344 0.232931 -0.767413
v -1.88498 6.18954 1.37932
vn 0.891233 -0.15038 -0.427889
v -1.90559 6.01476 1.40566
vn 0.455486 0.0195472 0.890028
v -1.92869 6.11002 1.40887
vn -0.842651 0.154096 0.51594
v -1.97478 6.20288 1.28058
vn -0.907832 0.286139 0.306538
v -1.96746 6.00383 1.27969
vn -0.352377 -0.278775 -0.893373
v -1.96636 6.00071 1.28171
vn 0.506019 -0.512026 -0.6941
v -1.96443 5.99919 1.28551
vn 0.708786 -0.608508 -0.356848
v -1.96392 5.99786 1.28971
vn -0.0559977 -0.996792 0.0571754
v -1.95657 6.00258 1.35217
vn -0.121134 -0.987865 0.09721
v -1.99504 6.00317 1.30484
vn -0.228965 -0.963188 0.140868
v -1.99761 6.00485 1.30164
vn -0.847338 -0.344241 0.404371
v -1.999 6.00627 1.29758
vn -0.965029 -0.261293 0.0210778
v -1.99908 6.00922 1.29506
vn -0.596399 -0.236797 -0.766965
v -1.9867 6.00658 1.28867
vn -0.457686 -0.258544 -0.850693
v -1.96105 6.01396 1.28442
vn 0.886644 -0.152685 -0.436521
v -1.90668 6.00531 1.40284
vn 0.873684 -0.483688 0.052185
v -1.94089 6.01249 1.41702
vn -0.839601 0.0117228 0.543077
v -1.98771 6.10547 1.28908
vn -0.927103 0.147584 0.344528
v -1.94617 6.18972 1.26087
vn -0.424795 -0.0247792 -0.90495
v -1.94395 6.19556 1.26082
vn -0.296356 0.178079 -0.938329
v -1.92293 6.10173 1.33183
vn 0.88895 -0.151534 -0.432211
v -1.90584 6.00858 1.40475
vn 0.501035 -0.21296 0.838816
v -1.93995 6.01864 1.41752
vn -0.842279 0.146705 0.518694
v -1.97627 6.19683 1.28035
vn -0.927016 0.154895 0.341539
f 1//1 2//2 3//3
f 1//1 3//3 4//4
f 1//1 4//4 5//5
f 1//1 5//5 6//6
f 1//1 6//6 2//2
f 7//7 8//8 9//9
f 10//10 11//11 12//12
f 13//13 14//14 15//15
f 16//16 17//17 18//18
f 19//19 20//20 21//21
f 22//22 23//23 24//24
f 22//22 24//24 25//25
f 22//22 25//25 26//26
f 22//22 26//26 27//27
f 22//22 27//27 23//23
f 28//28 29//29 30//30
f 31//31 32//32 33//33
f 34//34 35//35 36//36
f 37//37 38//38 39//39
f 40//40 41//41 42//42
f 13//13 43//43 44//44
f 10//10 45//45 46//46
f 7//7 47//47 48//48
f 19//19 49//49 50//50
f 16//16 51//51 52//52
f 10//10 53//53 45//45
f 13//13 54//54 43//43
f 16//16 55//55 51//51
f 19//19 56//56 49//49
f 7//7 57//57 47//47
f 40//40 58//58 59//59
f 28//28 60//60 61//61
f 31//31 62//62 63//63
f 34//34 64//64 65//65
f 37//37 66//66 67//67
f 40//40 68//68 58//58
f 28//28 69//69 60//60
f 31//31 70//70 62//62
f 34//34 71//71 64//64
f 37//37 72//72 66//66
f 10//10 46//46 11//11
f 7//7 48//48 8//8
f 19//19 50//50 20//20
f 16//16 52//52 17//17
f 13//13 44//44 14//14
f 40//40 42//42 68//68
f 28//28 30//30 69//69
f 31//31 33//33 70//70
f 34//34 36//36 71//71
f 37//37 39//39 72//72
f 28//28 61//61 29//29
f 31//31 63//63 32//32
f 34//34 65//65 35//35
f 37//37 67//67 38//38
f 40//40 59//59 41//41
f 10//10 12//12 53//53
f 13//13 15//15 54//54
f 16//16 18//18 55//55
f 19//19 21//21 56//56
f 7//7 9//9 57//57
f 73//73 74//74 75//75
f 76//76 77//77 78//78
f 79//79 80//80 81//81
f 82//82 83//83 84//84
f 85//85 86//86 87//87
f 88//88 89//89 90//90
f 91//91 92//92 93//93
f 94//94 95//95 96//96
f 97//97 98//98 99//99
f 100//100 101//101 102//102
f 103//103 104//104 105//105
f 106//106 107//107 108//108
f 109//109 110//110 111//111
f 112//112 113//113 114//114
f 115//115 116//116 117//117
f 88//88 118//118 119//119
f 91//91 120//120 121//121
f 94//94 122//122 123//123
f 97//97 124//124 125//125
f 100//100 126//126 127//127
f 128//128 129//129 2//2
f 130//130 131//131 3//3
f 132//132 133//133 4//4
f 134//134 135//135 5//5
f 136//136 137//137 6//6
f 76//76 138//138 8//8
f 73//73 139//139 11//11
f 85//85 140//140 14//14
f 82//82 141//141 17//17
f 79//79 142//142 20//20
f 143//143 144//144 23//23
f 145//145 146//146 24//24
f 147//147 148//148 25//25
f 149//149 150//150 26//26
f 151//151 152//152 27//27
f 103//103 153//153 29//29
f 106//106 154//154 32//32
f 109//109 155//155 35//35
f 112//112 156//156 38//38
f 115//115 157//157 41//41
f 73//73 75//75 43//43
f 76//76 78//78 45//45
f 79//79 81//81 47//47
f 82//82 84//84 49//49
f 85//85 87//87 51//51
f 88//88 90//90 53//53
f 91//91 93//93 54//54
f 94//94 96//96 55//55
f 97//97 99//99 56//56
f 100//100 102//102 57//57
f 103//103 105//105 58//58
f 106//106 108//108 60//60
f 109//109 111//111 62//62
f 112//112 114//114 64//64
f 115//115 117//117 66//66
f 88//88 119//119 68//68
f 91//91 121//121 69//69
f 94//94 123//123 70//70
f 97//97 125//125 71//71
f 100//100 127//127 72//72
f 130//130 74//74 46//46
f 132//132 77//77 48//48
f 134//134 80//80 50//50
f 136//136 83//83 52//52
f 128//128 86//86 44//44
f 158//158 89//89 42//42
f 159//159 92//92 30//30
f 160//160 95//95 33//33
f 161//161 98//98 36//36
f 162//162 101//101 39//39
f 145//145 104//104 61//61
f 147//147 107//107 63//63
f 149//149 110//110 65//65
f 151//151 113//113 67//67
f 143//143 116//116 59//59
f 159//159 118//118 12//12
f 160//160 120//120 15//15
f 161//161 122//122 18//18
f 162//162 124//124 21//21
f 158//158 126//126 9//9
f 130//130 129//129 74//74
f 132//132 131//131 77//77
f 134//134 133//133 80//80
f 136//136 135//135 83//83
f 128//128 137//137 86//86
f 158//158 138//138 89//89
f 159//159 139//139 92//92
f 160//160 140//140 95//95
f 161//161 141//141 98//98
f 162//162 142//142 101//101
f 145//145 144//144 104//104
f 147//147 146//146 107//107
f 149//149 148//148 110//110
f 151//151 150//150 113//113
f 143//143 152//152 116//116
f 159//159 153//153 118//118
f 160//160 154//154 120//120
f 161//161 155//155 122//122
f 162//162 156//156 124//124
f 158//158 157//157 126//126
f 130//130 3//3 129//129
f 132//132 4//4 131//131
f 134//134 5//5 133//133
f 136//136 6//6 135//135
f 128//128 2//2 137//137
f 158//158 9//9 138//138
f 159//159 12//12 139//139
f 160//160 15//15 140//140
f 161//161 18//18 141//141
f 162//162 21//21 142//142
f 145//145 24//24 144//144
f 147//147 25//25 146//146
f 149//149 26//26 148//148
f 151//151 27//27 150//150
f 143//143 23//23 152//152
f 159//159 30//30 153//153
f 160//160 33//33 154//154
f 161//161 36//36 155//155
f 162//162 39//39 156//156
f 158//158 42//42 157//157
f 128//128 44//44 75//75
f 130//130 46//46 78//78
f 132//132 48//48 81//81
f 134//134 50//50 84//84
f 136//136 52//52 87//87
f 76//76 45//45 90//90
f 73//73 43//43 93//93
f 85//85 51//51 96//96
f 82//82 49//49 99//99
f 79//79 47//47 102//102
f 143//143 59//59 105//105
f 145//145 61//61 108//108
f 147//147 63//63 111//111
f 149//149 65//65 114//114
f 151//151 67//67 117//117
f 103//103 58//58 119//119
f 106//106 60//60 121//121
f 109//109 62//62 123//123
f 112//112 64//64 125//125
f 115//115 66//66 127//127
f 73//73 11//11 74//74
f 76//76 8//8 77//77
f 79//79 20//20 80//80
f 82//82 17//17 83//83
f 85//85 14//14 86//86
f 88//88 68//68 89//89
f 91//91 69//69 92//92
f 94//94 70//70 95//95
f 97//97 71//71 98//98
f 100//100 72//72 101//101
f 103//103 29//29 104//104
f 106//106 32//32 107//107
f 109//109 35//35 110//110
f 112//112 38//38 113//113
f 115//115 41//41 116//116
f 88//88 53//53 118//118
f 91//91 54//54 120//120
f 94//94 55//55 122//122
f 97//97 56//56 124//124
f 100//100 57//57 126//126
f 128//128 75//75 129//129
f 130//130 78//78 131//131
f 132//132 81//81 133//133
f 134//134 84//84 135//135
f 136//136 87//87 137//137
f 76//76 90//90 138//138
f 73//73 93//93 139//139
f 85//85 96//96 140//140
f 82//82 99//99 141//141
f 79//79 102//102 142//142
f 143//143 105//105 144//144
f 145//145 108//108 146//146
f 147//147 111//111 148//148
f 149//149 114//114 150//150
f 151//151 117//117 152//152
f 103//103 119//119 153//153
f 106//106 121//121 154//154
f 109//109 123//123 155//155
f 112//112 125//125 156//156
f 115//115 127//127 157//157
f 129//129 3//3 2//2
f 131//131 4//4 3//3
f 133//133 5//5 4//4
f 135//135 6//6 5//5
f 137//137 2//2 6//6
f 138//138 9//9 8//8
f 139//139 12//12 11//11
f 140//140 15//15 14//14
f 141//141 18//18 17//17
f 142//142 21//21 20//20
f 144//144 24//24 23//23
f 146//146 25//25 24//24
f 148//148 26//26 25//25
f 150//150 27//27 26//26
f 152//152 23//23 27//27
f 153//153 30//30 29//29
f 154//154 33//33 32//32
f 155//155 36//36 35//35
f 156//156 39//39 38//38
f 157//157 42//42 41//41
f 75//75 44//44 43//43
f 78//78 46//46 45//45
f 81//81 48//48 47//47
f 84//84 50//50 49//49
f 87//87 52//52 51//51
f 90//90 45//45 53//53
f 93//93 43//43 54//54
f 96//96 51//51 55//55
f 99//99 49//49 56//56
f 102//102 47//47 57//57
f 105//105 59//59 58//58
f 108//108 61//61 60//60
f 111//111 63//63 62//62
f 114//114 65//65 64//64
f 117//117 67//67 66//66
f 119//119 58//58 68//68
f 121//121 60//60 69//69
f 123//123 62//62 70//70
f 125//125 64//64 71//71
f 127//127 66//66 72//72
f 74//74 11//11 46//46
f 77//77 8//8 48//48
f 80//80 20//20 50//50
f 83//83 17//17 52//52
f 86//86 14//14 44//44
f 89//89 68//68 42//42
f 92//92 69//69 30//30
f 95//95 70//70 33//33
f 98//98 71//71 36//36
f 101//101 72//72 39//39
f 104//104 29//29 61//61
f 107//107 32//32 63//63
f 110//110 35//35 65//65
f 113//113 38//38 67//67
f 116//116 41//41 59//59
f 118//118 53//53 12//12
f 120//120 54//54 15//15
f 122//122 55//55 18//18
f 124//124 56//56 21//21
f 126//126 57//57 9//9
f 129//129 75//75 74//74
f 131//131 78//78 77//77
f 133//133 81//81 80//80
f 135//135 84//84 83//83
f 137//137 87//87 86//86
f 138//138 90//90 89//89
f 139//139 93//93 92//92
f 140//140 96//96 95//95
f 141//141 99//99 98//98
f 142//142 102//102 101//101
f 144//144 105//105 104//104
f 146//146 108//108 107//107
f 148//148 111//111 110//110
f 150//150 114//114 113//113
f 152//152 117//117 116//116
f 153//153 119//119 118//118
f 154//154 121//121 120//120
f 155//155 123//123 122//122
f 156//156 125//125 124//124
f 157//157 127//127 126//126
