# Created by Open3D 
# object name: part_037
# number of vertices: 162
# number of triangles: 320
v -0.196233 5.92631 0.725117
vn -0.908174 0.26575 -0.323415
v -0.188047 5.90385 0.702447
vn -0.775166 -0.0547987 -0.629376
v -0.202749 5.90594 0.739189
vn -0.956956 -0.228928 -0.1784
v -0.20476 5.92688 0.774273
vn -0.962665 0.270678 -0.00295115
v -0.193294 5.93957 0.740279
vn -0.570472 0.811423 -0.127101
v -0.179036 5.9359 0.703486
vn -0.59934 0.524177 -0.605004
v -0.178817 5.87129 2.27141
vn -0.900456 0.241372 0.361828
v -0.185664 5.85197 2.25607
vn -0.952883 -0.241797 0.183163
v -0.170141 5.84729 2.29223
vn -0.760855 -0.100006 0.641169
v -0.159509 5.86694 1.49681
vn -0.280227 -0.959434 -0.030979
v -0.154415 5.88884 0.775973
vn -0.276128 -0.960605 -0.0314881
v -0.115553 5.85436 1.49587
vn -0.271087 -0.96205 -0.0311753
v 0.526601 5.70182 0.670812
vn -0.270638 -0.958184 -0.0929437
v 0.52681 5.70332 0.660815
vn -0.186864 -0.607995 -0.771637
v 1.17441 5.52059 0.655929
vn -0.268222 -0.953528 -0.137262
v 0.536746 5.73791 0.671982
vn 0.269246 0.962583 -0.0306829
v -0.0802254 5.91095 0.700537
vn 0.269797 0.9629 0.00574454
v 1.15435 5.56479 0.674316
vn 0.270374 0.962738 0.00572989
v -0.150663 5.91049 1.33833
vn 0.260665 0.964919 0.0313945
v -0.160781 5.8855 2.18514
vn 0.246746 0.968554 0.0319261
v -0.127524 5.87549 2.21832
vn 0.264814 0.96378 0.0316549
v 1.27972 5.46233 2.24043
vn 0.908174 -0.26575 0.323414
v 1.26066 5.44611 2.26185
vn 0.622621 -0.487914 0.611786
v 1.27492 5.44244 2.22505
vn 0.694795 -0.703781 0.148166
v 1.28813 5.46134 2.19126
vn 0.962665 -0.270678 0.00295091
v 1.28437 5.47607 2.22614
vn 0.907204 0.386585 0.165931
v 1.26967 5.47816 2.26288
vn 0.774278 0.0982138 0.625178
v 1.23049 5.4772 1.46729
vn -0.260668 -0.964918 -0.0313945
v 1.22538 5.45524 2.18813
vn -0.264783 -0.963813 -0.0308881
v 1.1864 5.48931 1.46822
vn -0.269833 -0.962402 -0.0312017
v 1.2623 5.51735 0.694139
vn 0.900457 -0.241369 -0.361827
v 1.25783 5.49641 0.708168
vn 0.69072 -0.690918 -0.213397
v 1.24275 5.50267 0.672059
vn 0.608309 -0.442712 -0.658761
v 1.23933 5.52075 1.30881
vn 0.280225 0.959434 0.030979
v 1.25285 5.53366 0.781394
vn 0.294355 0.955213 0.0303789
v 1.21981 5.54444 0.748242
vn 0.276165 0.960625 0.0305352
v 0.555021 5.68019 2.29452
vn 0.270638 0.958184 0.0929438
v 1.17228 5.50816 2.266
vn 0.270947 0.960928 0.0566132
v -0.0622981 5.85432 2.29222
vn 0.27037 0.96109 0.0566272
v 0.544876 5.6441 2.29335
vn -0.269246 -0.962583 0.0306832
v 0.545311 5.64488 2.30342
vn -0.169943 -0.661433 0.730497
v -0.102741 5.82601 2.30826
vn -0.269633 -0.96002 0.0752328
v -0.0906554 5.87385 0.699334
vn -0.270947 -0.960928 -0.0566133
v -0.121041 5.88382 0.683443
vn -0.272025 -0.952462 -0.137179
v -0.171223 5.84835 2.18394
vn -0.29417 -0.955269 -0.0304074
v -0.186692 5.89721 0.810543
vn -0.294176 -0.95525 -0.0309396
v -0.176209 5.8856 2.25716
vn -0.566814 0.799886 0.197239
v -0.188447 5.87535 2.22262
vn -0.962138 0.269014 0.0438321
v -0.143756 5.92677 0.777202
vn 0.264734 0.96383 0.0307775
v -0.17625 5.93436 0.811747
vn 0.246388 0.968663 0.0313978
v 0.536312 5.73713 0.661911
vn 0.204951 0.776124 -0.596345
v -0.11109 5.91923 0.68459
vn 0.265829 0.961086 -0.0751566
v -0.138184 5.83757 2.21709
vn -0.276122 -0.960634 -0.0306473
v 1.14392 5.52769 0.673113
vn -0.27037 -0.96109 -0.0566272
v 1.18436 5.556 0.657076
vn 0.269633 0.96002 -0.0752327
v -0.106598 5.89845 1.33543
vn 0.269832 0.962402 0.0312017
v -0.16113 5.87934 2.29327
vn -0.585153 0.479389 0.65405
v 1.16185 5.47106 2.2648
vn -0.269797 -0.9629 -0.00574452
v 1.19271 5.46278 2.28074
vn -0.265829 -0.961086 0.0751558
v 1.2424 5.49651 0.78019
vn -0.246579 -0.968596 -0.0319504
v 1.25787 5.44765 2.15359
vn -0.246577 -0.968614 -0.0314184
v 1.26729 5.53004 0.709258
vn 0.903549 0.398129 -0.158406
v 1.27181 5.51287 0.742912
vn 0.962138 -0.269014 -0.0438322
v 1.23604 5.49317 2.18936
vn 0.2761 0.960615 0.0314155
v 1.26831 5.4848 2.15479
vn 0.294011 0.955302 0.0309223
v 0.554813 5.67869 2.30452
vn 0.218936 0.731956 0.645219
v 1.20266 5.49819 2.28189
vn 0.272025 0.952462 0.137179
v -0.072728 5.81722 2.29102
vn -0.270374 -0.962738 -0.00572981
v 1.20915 5.50652 0.747012
vn -0.26479 -0.963784 -0.0317283
v 1.25176 5.53472 0.673098
vn 0.760097 0.143012 -0.633877
v 1.19535 5.5334 1.30778
vn 0.271087 0.96205 0.0311753
v -0.092789 5.86142 2.3094
vn 0.268222 0.953528 0.137263
v -0.132179 5.88432 0.726768
vn -0.271528 -0.961613 -0.0396579
v -0.175725 5.89645 0.740054
vn -0.28941 -0.956327 -0.040999
v -0.153692 5.8918 0.702271
vn -0.284599 -0.956582 -0.0628857
v -0.181593 5.85042 2.23063
vn -0.340802 -0.939751 -0.0268849
v -0.193626 5.85648 2.18526
vn -0.970527 -0.240903 0.00650158
v -0.193526 5.87744 1.49757
vn -0.342577 -0.939025 -0.0295505
v -0.171499 5.88633 2.23179
vn 0.198375 0.979504 0.0349234
v -0.185095 5.91894 1.34653
vn 0.196791 0.979902 0.0326471
v -0.18416 5.89016 2.18635
vn -0.542498 0.83912 0.0396583
v -0.121588 5.922 0.727989
vn 0.269371 0.962769 0.0227154
v -0.143434 5.9283 0.703454
vn 0.255986 0.96668 -0.000545689
v -0.165303 5.93353 0.741256
vn 0.251379 0.967653 0.0213659
v 0.532518 5.72387 0.658285
vn -0.0112552 0.0355544 -0.999304
v -0.121403 5.88597 0.67555
vn -0.0818303 -0.148803 -0.985475
v -0.112382 5.91806 0.676591
vn 0.0320115 0.25506 -0.966395
v -0.11485 5.82958 2.26534
vn -0.271337 -0.962217 -0.0226723
v -0.135801 5.83528 2.29078
vn -0.283882 -0.958859 0.00114515
v -0.158674 5.84259 2.25393
vn -0.289187 -0.957052 -0.0205593
v 1.18588 5.51475 0.698774
vn -0.269563 -0.962164 -0.0397049
v 1.14529 5.52424 0.747541
vn -0.270335 -0.962247 -0.0316158
v 0.526781 5.69958 0.708898
vn -0.270544 -0.961898 -0.0394723
v 1.22806 5.54294 0.661328
vn 0.395107 0.81564 -0.422637
v 1.22766 5.52848 0.656752
vn 0.320784 -0.0595262 -0.94528
v 1.18455 5.55442 0.649045
vn 0.0671887 0.245199 -0.967142
v 0.544392 5.71602 1.32098
vn 0.27046 0.962226 0.0311885
v 1.15606 5.56254 0.748782
vn 0.270584 0.962208 0.0306482
v -0.0799222 5.9091 0.775033
vn 0.270323 0.962281 0.0306535
v -0.136814 5.87329 2.30511
vn 0.080094 0.875003 0.477445
v -0.125542 5.87178 2.29196
vn 0.256706 0.964402 0.0634824
v -0.15939 5.88105 2.28023
vn 0.211082 0.974537 0.0756465
v 1.20321 5.46001 2.23734
vn -0.269371 -0.962769 -0.0227154
v 1.24693 5.44848 2.22408
vn -0.251379 -0.967653 -0.0213661
v 1.22506 5.45371 2.26188
vn -0.255987 -0.96668 0.000545815
v 1.25312 5.49568 0.733539
vn -0.198648 -0.979434 -0.0353206
v 1.26578 5.49185 0.778978
vn 0.703266 -0.709946 -0.0373212
v 1.265 5.46848 1.46659
vn -0.196791 -0.979902 -0.0326471
v 1.26322 5.53159 0.734703
vn 0.340427 0.939903 0.0263216
v 1.27343 5.50999 1.31556
vn 0.342577 0.939025 0.0295506
v 1.27525 5.52553 0.78007
vn 0.925673 0.378323 -0.000895519
v 1.2138 5.49769 2.23856
vn 0.271528 0.961613 0.0396578
v 1.23531 5.49021 2.26306
vn 0.284599 0.956582 0.0628853
v 1.25735 5.48556 2.22528
vn 0.28941 0.956327 0.0409988
v 0.551091 5.66521 2.30728
vn 0.0112552 -0.0355544 0.999304
v 1.194 5.46395 2.28874
vn -0.0242159 -0.228482 0.973247
v 1.20302 5.49604 2.28978
vn 0.0891239 0.175908 0.980364
v -0.0744364 5.81947 2.21655
vn -0.270585 -0.962205 -0.0307611
v 0.544197 5.64456 2.25521
vn -0.270357 -0.962488 -0.0229027
v 1.20716 5.51023 0.673368
vn -0.256707 -0.964402 -0.0634825
v 1.22987 5.50234 0.7102
vn -0.251604 -0.966927 -0.0418017
v 1.21742 5.54673 0.674551
vn 0.283882 0.958859 -0.00114482
v 1.25094 5.5363 0.68625
vn 0.328304 0.944476 -0.0134404
v -0.0636721 5.85777 2.21779
vn 0.270334 0.96225 0.0315423
v 1.17231 5.51121 2.19154
vn 0.270593 0.962177 0.0315369
v -0.144079 5.86049 2.30881
vn -0.320784 0.059526 0.94528
v -0.0939022 5.85969 2.31733
vn 0.0539468 0.185771 0.981111
v -0.164617 5.89651 0.689594
vn -0.426946 -0.682722 -0.592966
v -0.186934 5.90134 0.715433
vn -0.329277 -0.941397 -0.0731306
v -0.198108 5.90259 0.764362
vn -0.340861 -0.939559 -0.0323007
v -0.209112 5.9054 0.810304
vn -0.970621 -0.240606 -0.00176945
v -0.199353 5.90235 1.49852
vn -0.962666 0.26992 0.0204461
v -0.199647 5.93907 0.811395
vn -0.593435 0.80427 0.0313693
v -0.188014 5.9385 0.765526
vn 0.198947 0.979571 0.0293273
v -0.177002 5.93668 0.716578
vn 0.210113 0.977616 -0.0109295
v -0.154998 5.93073 0.690703
vn 0.0700303 0.906778 -0.415751
v -0.162354 5.91822 0.686275
vn -0.34192 0.12629 -0.931205
v -0.169322 5.84571 2.27908
vn -0.328304 -0.944477 0.0134403
v -0.0906864 5.8708 0.773792
vn -0.270594 -0.962174 -0.0316106
v 1.17552 5.52232 0.648005
vn -0.0462864 -0.158768 -0.98623
v 0.537425 5.73745 0.710126
vn 0.270357 0.962488 0.0229025
v -0.148252 5.87967 2.25513
vn 0.251604 0.966927 0.0418016
v 1.23662 5.45128 2.27463
vn -0.000862395 -0.83932 0.543637
v 1.25862 5.44533 2.24875
vn -0.210113 -0.977616 0.0109296
v 1.26964 5.44351 2.19981
vn -0.198571 -0.97963 -0.0299064
v 1.28127 5.44294 2.15394
vn 0.703361 -0.710238 -0.0290501
v 1.28296 5.48673 1.46704
vn 0.962666 -0.26992 -0.020446
v 1.29073 5.47661 2.15503
vn 0.900638 0.434477 0.00900734
v 1.27973 5.47942 2.20097
vn 0.341115 0.93948 0.0318922
v 1.26856 5.48067 2.2499
vn 0.329277 0.941397 0.0731307
v 1.24624 5.4855 2.27574
vn 0.405166 0.783855 0.470545
v 1.24593 5.47075 2.27928
vn 0.341919 -0.126289 0.931205
v 1.16154 5.47291 2.1903
vn -0.270325 -0.962277 -0.0307667
v 1.24101 5.50096 0.685105
vn -0.211082 -0.974537 -0.0756467
v 1.2403 5.53942 0.711402
vn 0.289186 0.957052 0.0205592
v 0.554842 5.68243 2.25643
vn 0.270544 0.961898 0.039472
v -0.102923 5.82759 2.31629
vn -0.0597599 -0.218517 0.974002
v -0.146434 5.83907 2.304
vn -0.414049 -0.723472 0.552405
v 0.535402 5.67176 1.48204
vn -0.27046 -0.962226 -0.0311885
v 1.21844 5.50872 0.660219
vn -0.013762 -0.798569 -0.601746
v 1.19647 5.55243 0.699995
vn 0.271337 0.962217 0.0226718
v -0.104259 5.86726 2.26656
vn 0.269563 0.962164 0.0397044
f 1//1 2//2 3//3
f 1//1 3//3 4//4
f 1//1 4//4 5//5
f 1//1 5//5 6//6
f 1//1 6//6 2//2
f 7//7 8//8 9//9
f 10//10 11//11 12//12
f 13//13 14//14 15//15
f 16//16 17//17 18//18
f 19//19 20//20 21//21
f 22//22 23//23 24//24
f 22//22 24//24 25//25
f 22//22 25//25 26//26
f 22//22 26//26 27//27
f 22//22 27//27 23//23
f 28//28 29//29 30//30
f 31//31 32//32 33//33
f 34//34 35//35 36//36
f 37//37 38//38 39//39
f 40//40 41//41 42//42
f 13//13 43//43 44//44
f 10//10 45//45 46//46
f 7//7 47//47 48//48
f 19//19 49//49 50//50
f 16//16 51//51 52//52
f 10//10 53//53 45//45
f 13//13 54//54 43//43
f 16//16 55//55 51//51
f 19//19 56//56 49//49
f 7//7 57//57 47//47
f 40//40 58//58 59//59
f 28//28 60//60 61//61
f 31//31 62//62 63//63
f 34//34 64//64 65//65
f 37//37 66//66 67//67
f 40//40 68//68 58//58
f 28//28 69//69 60//60
f 31//31 70//70 62//62
f 34//34 71//71 64//64
f 37//37 72//72 66//66
f 10//10 46//46 11//11
f 7//7 48//48 8//8
f 19//19 50//50 20//20
f 16//16 52//52 17//17
f 13//13 44//44 14//14
f 40//40 42//42 68//68
f 28//28 30//30 69//69
f 31//31 33//33 70//70
f 34//34 36//36 71//71
f 37//37 39//39 72//72
f 28//28 61//61 29//29
f 31//31 63//63 32//32
f 34//34 65//65 35//35
f 37//37 67//67 38//38
f 40//40 59//59 41//41
f 10//10 12//12 53//53
f 13//13 15//15 54//54
f 16//16 18//18 55//55
f 19//19 21//21 56//56
f 7//7 9//9 57//57
f 73//73 74//74 75//75
f 76//76 77//77 78//78
f 79//79 80//80 81//81
f 82//82 83//83 84//84
f 85//85 86//86 87//87
f 88//88 89//89 90//90
f 91//91 92//92 93//93
f 94//94 95//95 96//96
f 97//97 98//98 99//99
f 100//100 101//101 102//102
f 103//103 104//104 105//105
f 106//106 107//107 108//108
f 109//109 110//110 111//111
f 112//112 113//113 114//114
f 115//115 116//116 117//117
f 88//88 118//118 119//119
f 91//91 120//120 121//121
f 94//94 122//122 123//123
f 97//97 124//124 125//125
f 100//100 126//126 127//127
f 128//128 129//129 2//2
f 130//130 131//131 3//3
f 132//132 133//133 4//4
f 134//134 135//135 5//5
f 136//136 137//137 6//6
f 76//76 138//138 8//8
f 73//73 139//139 11//11
f 85//85 140//140 14//14
f 82//82 141//141 17//17
f 79//79 142//142 20//20
f 143//143 144//144 23//23
f 145//145 146//146 24//24
f 147//147 148//148 25//25
f 149//149 150//150 26//26
f 151//151 152//152 27//27
f 103//103 153//153 29//29
f 106//106 154//154 32//32
f 109//109 155//155 35//35
f 112//112 156//156 38//38
f 115//115 157//157 41//41
f 73//73 75//75 43//43
f 76//76 78//78 45//45
f 79//79 81//81 47//47
f 82//82 84//84 49//49
f 85//85 87//87 51//51
f 88//88 90//90 53//53
f 91//91 93//93 54//54
f 94//94 96//96 55//55
f 97//97 99//99 56//56
f 100//100 102//102 57//57
f 103//103 105//105 58//58
f 106//106 108//108 60//60
f 109//109 111//111 62//62
f 112//112 114//114 64//64
f 115//115 117//117 66//66
f 88//88 119//119 68//68
f 91//91 121//121 69//69
f 94//94 123//123 70//70
f 97//97 125//125 71//71
f 100//100 127//127 72//72
f 130//130 74//74 46//46
f 132//132 77//77 48//48
f 134//134 80//80 50//50
f 136//136 83//83 52//52
f 128//128 86//86 44//44
f 158//158 89//89 42//42
f 159//159 92//92 30//30
f 160//160 95//95 33//33
f 161//161 98//98 36//36
f 162//162 101//101 39//39
f 145//145 104//104 61//61
f 147//147 107//107 63//63
f 149//149 110//110 65//65
f 151//151 113//113 67//67
f 143//143 116//116 59//59
f 159//159 118//118 12//12
f 160//160 120//120 15//15
f 161//161 122//122 18//18
f 162//162 124//124 21//21
f 158//158 126//126 9//9
f 130//130 129//129 74//74
f 132//132 131//131 77//77
f 134//134 133//133 80//80
f 136//136 135//135 83//83
f 128//128 137//137 86//86
f 158//158 138//138 89//89
f 159//159 139//139 92//92
f 160//160 140//140 95//95
f 161//161 141//141 98//98
f 162//162 142//142 101//101
f 145//145 144//144 104//104
f 147//147 146//146 107//107
f 149//149 148//148 110//110
f 151//151 150//150 113//113
f 143//143 152//152 116//116
f 159//159 153//153 118//118
f 160//160 154//154 120//120
f 161//161 155//155 122//122
f 162//162 156//156 124//124
f 158//158 157//157 126//126
f 130//130 3//3 129//129
f 132//132 4//4 131//131
f 134//134 5//5 133//133
f 136//136 6//6 135//135
f 128//128 2//2 137//137
f 158//158 9//9 138//138
f 159//159 12//12 139//139
f 160//160 15//15 140//140
f 161//161 18//18 141//141
f 162//162 21//21 142//142
f 145//145 24//24 144//144
f 147//147 25//25 146//146
f 149//149 26//26 148//148
f 151//151 27//27 150//150
f 143//143 23//23 152//152
f 159//159 30//30 153//153
f 160//160 33//33 154//154
f 161//161 36//36 155//155
f 162//162 39//39 156//156
f 158//158 42//42 157//157
f 128//128 44//44 75//75
f 130//130 46//46 78//78
f 132//132 48//48 81//81
f 134//134 50//50 84//84
f 136//136 52//52 87//87
f 76//76 45//45 90//90
f 73//73 43//43 93//93
f 85//85 51//51 96//96
f 82//82 49//49 99//99
f 79//79 47//47 102//102
f 143//143 59//59 105//105
f 145//145 61//61 108//108
f 147//147 63//63 111//111
f 149//149 65//65 114//114
f 151//151 67//67 117//117
f 103//103 58//58 119//119
f 106//106 60//60 121//121
f 109//109 62//62 123//123
f 112//112 64//64 125//125
f 115//115 66//66 127//127
f 73//73 11//11 74//74
f 76//76 8//8 77//77
f 79//79 20//20 80//80
f 82//82 17//17 83//83
f 85//85 14//14 86//86
f 88//88 68//68 89//89
f 91//91 69//69 92//92
f 94//94 70//70 95//95
f 97//97 71//71 98//98
f 100//100 72//72 101//101
f 103//103 29//29 104//104
f 106//106 32//32 107//107
f 109//109 35//35 110//110
f 112//112 38//38 113//113
f 115//115 41//41 116//116
f 88//88 53//53 118//118
f 91//91 54//54 120//120
f 94//94 55//55 122//122
f 97//97 56//56 124//124
f 100//100 57//57 126//126
f 128//128 75//75 129//129
f 130//130 78//78 131//131
f 132//132 81//81 133//133
f 134//134 84//84 135//135
f 136//136 87//87 137//137
f 76//76 90//90 138//138
f 73//73 93//93 139//139
f 85//85 96//96 140//140
f 82//82 99//99 141//141
f 79//79 102//102 142//142
f 143//143 105//105 144//144
f 145//145 108//108 146//146
f 147//147 111//111 148//148
f 149//149 114//114 150//150
f 151//151 117//117 152//152
f 103//103 119//119 153//153
f 106//106 121//121 154//154
f 109//109 123//123 155//155
f 112//112 125//125 156//156
f 115//115 127//127 157//157
f 129//129 3//3 2//2
f 131//131 4//4 3//3
f 133//133 5//5 4//4
f 135//135 6//6 5//5
f 137//137 2//2 6//6
f 138//138 9//9 8//8
f 139//139 12//12 11//11
f 140//140 15//15 14//14
f 141//141 18//18 17//17
f 142//142 21//21 20//20
f 144//144 24//24 23//23
f 146//146 25//25 24//24
f 148//148 26//26 25//25
f 150//150 27//27 26//26
f 152//152 23//23 27//27
f 153//153 30//30 29//29
f 154//154 33//33 32//32
f 155//155 36//36 35//35
f 156//156 39//39 38//38
f 157//157 42//42 41//41
f 75//75 44//44 43//43
f 78//78 46//46 45//45
f 81//81 48//48 47//47
f 84//84 50//50 49//49
f 87//87 52//52 51//51
f 90//90 45//45 53//53
f 93//93 43//43 54//54
f 96//96 51//51 55//55
f 99//99 49//49 56//56
f 102//102 47//47 57//57
f 105//105 59//59 58//58
f 108//108 61//61 60//60
f 111//111 63//63 62//62
f 114//114 65//65 64//64
f 117//117 67//67 66//66
f 119//119 58//58 68//68
f 121//121 60//60 69//69
f 123//123 62//62 70//70
f 125//125 64//64 71//71
f 127//127 66//66 72//72
f 74//74 11//11 46//46
f 77//77 8//8 48//48
f 80//80 20//20 50//50
f 83//83 17//17 52//52
f 86//86 14//14 44//44
f 89//89 68//68 42//42
f 92//92 69//69 30//30
f 95//95 70//70 33//33
f 98//98 71//71 36//36
f 101//101 72//72 39//39
f 104//104 29//29 61//61
f 107//107 32//32 63//63
f 110//110 35//35 65//65
f 113//113 38//38 67//67
f 116//116 41//41 59//59
f 118//118 53//53 12//12
f 120//120 54//54 15//15
f 122//122 55//55 18//18
f 124//124 56//56 21//21
f 126//126 57//57 9//9
f 129//129 75//75 74//74
f 131//131 78//78 77//77
f 133//133 81//81 80//80
f 135//135 84//84 83//83
f 137//137 87//87 86//86
f 138//138 90//90 89//89
f 139//139 93//93 92//92
f 140//140 96//96 95//95
f 141//141 99//99 98//98
f 142//142 102//102 101//101
f 144//144 105//105 104//104
f 146//146 108//108 107//107
f 148//148 111//111 110//110
f 150//150 114//114 113//113
f 152//152 117//117 116//116
f 153//153 119//119 118//118
f 154//154 121//121 120//120
f 155//155 123//123 122//122
f 156//156 125//125 124//124
f 157//157 127//127 126//126
