# https://github.com/mikedh/trimesh

o boxlong_f1000.ply
v 0.34262652 -0.12666211 0.10189908 0.85098039 0.95294118 0.69019608
v 0.29943586 -0.12557164 0.10983484 0.76078431 0.82352941 0.48235294
v 0.31663556 -0.12209663 0.09723484 0.84705882 0.95294118 0.68235294
v 0.32289989 -0.12310633 0.11745995 0.73333333 0.81176471 0.45882353
v 0.29067171 -0.12527785 0.12434252 0.76862745 0.81960784 0.48235294
v 0.34679610 -0.09650871 0.11741134 0.63529412 0.71764706 0.40000000
v 0.30787648 -0.11159465 0.09716117 0.79607843 0.88235294 0.58431373
v 0.29316831 -0.11036721 0.08860501 0.73333333 0.80392157 0.47058824
v 0.26761831 -0.11652789 0.13514566 0.78823529 0.83137255 0.48627451
v 0.34062661 -0.10742161 0.10455646 0.74117647 0.85098039 0.55294118
v 0.30383933 -0.11231330 0.08372098 0.72941176 0.82352941 0.59215686
v 0.30928839 -0.10917434 0.16344272 0.76470588 0.85490196 0.50980392
v 0.27449621 -0.10446045 0.06980687 0.72941176 0.83529412 0.53333333
v 0.33293385 -0.10210714 0.15440791 0.72941176 0.81568627 0.52941176
v 0.30867059 -0.10256014 0.08589473 0.71764706 0.80000000 0.52941176
v 0.32983590 -0.10343674 0.09114444 0.72549020 0.81960784 0.52941176
v 0.23263050 -0.10540662 0.11199539 0.78823529 0.90196078 0.55294118
v 0.24956203 -0.10227022 0.14594489 0.79215686 0.85098039 0.49803922
v 0.32094611 -0.09630964 0.17456716 0.67843137 0.79215686 0.48235294
v 0.22968228 -0.09788433 0.12167516 0.81568627 0.86666667 0.45098039
v 0.36205209 -0.09627065 0.09587609 0.68627451 0.78039216 0.42745098
v 0.34066213 -0.09703985 0.08886480 0.68627451 0.79607843 0.47450980
v 0.35189933 -0.09623626 0.10440811 0.59215686 0.67450980 0.36470588
v 0.33947957 -0.09417835 0.13931983 0.61568627 0.70196078 0.40000000
v 0.29680909 -0.09642712 0.17040398 0.72941176 0.82745098 0.47843137
v 0.33933366 -0.09201125 0.15542569 0.74509804 0.81568627 0.47058824
v 0.24021895 -0.10266480 0.13315221 0.83137255 0.85882353 0.49411765
v 0.25188101 -0.10068640 0.05971985 0.78823529 0.81960784 0.44705882
v 0.21893067 -0.09625724 0.10135504 0.75294118 0.84705882 0.49019608
v 0.17754770 -0.09904364 0.09266912 0.42352941 0.64313725 0.33333333
v 0.22940625 -0.09995506 0.08528941 0.74117647 0.82745098 0.47450980
v 0.32712931 -0.09204778 0.16624712 0.66274510 0.73333333 0.44313725
v 0.23703791 -0.09653291 0.06554001 0.66274510 0.71764706 0.35686275
v 0.15651072 -0.09867022 0.07093190 0.58823529 0.68627451 0.33725490
v 0.20095558 -0.09830740 0.07271009 0.65882353 0.75686275 0.40392157
v 0.24012555 -0.09751925 0.05727305 0.77647059 0.78823529 0.39607843
v 0.24445713 -0.09240786 0.07341375 0.62352941 0.70196078 0.33725490
v 0.29927469 -0.09551499 0.10029807 0.65490196 0.67843137 0.31764706
v 0.15246273 -0.08725700 0.08988439 0.47058824 0.65098039 0.32941176
v 0.28796084 -0.08751932 0.07617991 0.65098039 0.70588235 0.34117647
v 0.30934907 -0.08797053 0.07487529 0.70588235 0.78431373 0.41568627
v 0.30651004 -0.09541545 0.10323104 0.65490196 0.67843137 0.31372549
v 0.27673257 -0.08738330 0.11112600 0.64705882 0.65882353 0.30980392
v 0.33937348 -0.09497109 0.09847757 0.58431373 0.70196078 0.36078431
v 0.33239133 -0.09574792 0.09173917 0.65490196 0.67450980 0.30588235
v 0.27867962 -0.09071020 0.16783281 0.74117647 0.81176471 0.43137255
v 0.19663734 -0.09209892 0.09955149 0.64705882 0.75294118 0.40392157
v 0.23301322 -0.08688864 0.11737441 0.75686275 0.83529412 0.38823529
v 0.35046435 -0.08997628 0.13228589 0.81176471 0.88627451 0.45882353
v 0.35640562 -0.09365657 0.11928802 0.79607843 0.85882353 0.41960784
v 0.18378181 -0.07350204 0.09581273 0.43529412 0.64313725 0.33725490
v 0.22081221 -0.08317307 0.13441449 0.77254902 0.82745098 0.47843137
v 0.15634883 -0.08827922 0.04963356 0.62745098 0.72156863 0.36470588
v 0.21223188 -0.08332453 0.06488281 0.64313725 0.69019608 0.34117647
v 0.24225200 -0.08305583 0.07010963 0.66666667 0.70588235 0.33333333
v 0.28315873 -0.08418641 0.06654554 0.70980392 0.80392157 0.49019608
v 0.27226580 -0.07909903 0.10864654 0.65098039 0.65490196 0.29803922
v 0.35851175 -0.07899079 0.11555364 0.80392157 0.87450980 0.43921569
v 0.17954726 -0.09095922 0.05132424 0.82352941 0.94509804 0.61960784
v 0.28151167 -0.08115766 0.07071527 0.62352941 0.69411765 0.32549020
v 0.19660575 -0.08108178 0.05186334 0.73333333 0.82352941 0.49411765
v 0.31363417 -0.08616874 0.18144756 0.52156863 0.65098039 0.37647059
v 0.33760602 -0.08765653 0.17135423 0.82352941 0.89019608 0.45882353
v 0.25236131 -0.07565430 0.05838671 0.67058824 0.73333333 0.40392157
v 0.33369643 -0.08421740 0.17686423 0.79607843 0.87058824 0.46274510
v 0.29101855 -0.08316306 0.09917241 0.66274510 0.68235294 0.29803922
v 0.19534446 -0.08403775 0.10473352 0.60000000 0.72941176 0.39215686
v 0.23796321 -0.08117828 0.06192490 0.61568627 0.64313725 0.29803922
v 0.30919678 -0.08819774 0.09449991 0.63921569 0.64705882 0.29411765
v 0.12959028 -0.07282099 0.09126689 0.56862745 0.62352941 0.28627451
v 0.22033305 -0.06820283 0.14575174 0.71372549 0.78823529 0.40784314
v 0.23072333 -0.07836745 0.12435799 0.68235294 0.74509804 0.32941176
v 0.35695142 -0.07498995 0.08921032 0.53725490 0.65098039 0.33725490
v 0.33488292 -0.07444635 0.18519881 0.74901961 0.84313725 0.45882353
v 0.24173541 -0.07994637 0.08221417 0.62745098 0.70196078 0.32549020
v 0.16684026 -0.07803038 0.09297501 0.51372549 0.66666667 0.32941176
v 0.12464673 -0.08083371 0.06583636 0.57647059 0.63137255 0.28627451
v 0.13901473 -0.08130327 0.02572730 0.74509804 0.83921569 0.52549020
v 0.32251246 -0.07634607 0.18570944 0.59607843 0.72941176 0.39215686
v 0.34150321 -0.07009921 0.16299032 0.81568627 0.89411765 0.45882353
v 0.35289855 -0.06004832 0.13862725 0.81176471 0.88627451 0.46274510
v 0.27067954 -0.07022110 0.16453835 0.78823529 0.87843137 0.44313725
v 0.16913421 -0.07676885 0.04130214 0.60392157 0.74117647 0.40000000
v 0.24245901 -0.07941267 0.12822052 0.63921569 0.65490196 0.29019608
v 0.20476646 -0.07376293 0.11427134 0.74901961 0.84705882 0.49019608
v 0.11008097 -0.07133624 0.02908336 0.63137255 0.68627451 0.34509804
v 0.26070107 -0.07405338 0.05473056 0.64313725 0.70980392 0.30588235
v 0.15851254 -0.07402620 0.02381259 0.75686275 0.87450980 0.57647059
v 0.18967212 -0.07508037 0.04233097 0.70980392 0.81960784 0.48627451
v 0.18017198 -0.07407382 0.11314672 0.57254902 0.66274510 0.31372549
v 0.08966721 -0.06571153 0.04928493 0.58431373 0.63529412 0.31372549
v 0.24947644 -0.07423422 0.11843707 0.65490196 0.66666667 0.30980392
v 0.19199736 -0.07754025 0.03342863 0.67450980 0.78823529 0.50588235
v 0.21797348 -0.06845162 0.05876162 0.60000000 0.63137255 0.29411765
v 0.26145554 -0.06665627 0.05304711 0.72941176 0.80784314 0.36078431
v 0.23789514 -0.06832800 0.05606260 0.56078431 0.60392157 0.26666667
v 0.17692167 -0.07447431 0.03565400 0.65098039 0.80784314 0.49019608
v 0.19960512 -0.07520786 0.12637552 0.65490196 0.73333333 0.37647059
v 0.19318003 -0.06226442 0.04187771 0.60784314 0.67450980 0.32549020
v 0.12127001 -0.06532637 0.01874086 0.70196078 0.78431373 0.43921569
v 0.11352307 -0.07076273 0.07819875 0.61960784 0.68627451 0.35686275
v 0.36842568 -0.06606648 0.10328200 0.79607843 0.87450980 0.45098039
v 0.23616869 -0.07093874 0.04882192 0.63137255 0.67058824 0.30196078
v 0.19691343 -0.06437490 0.06117224 0.58039216 0.61568627 0.27058824
v 0.16339136 -0.06572137 0.03991180 0.46666667 0.67450980 0.34901961
v 0.21597446 -0.06452129 0.12587797 0.67843137 0.74509804 0.36470588
v 0.20950861 -0.06684956 0.03595387 0.66666667 0.74901961 0.41960784
v 0.18624044 -0.06723127 0.12858286 0.58823529 0.67450980 0.37254902
v 0.21090681 -0.06660447 0.04572790 0.60000000 0.65098039 0.30196078
v 0.33684207 -0.05187640 0.18576261 0.61568627 0.73725490 0.40000000
v 0.18466020 -0.07100049 0.06482243 0.61176471 0.62352941 0.27843137
v 0.23102845 -0.06965873 0.10904663 0.69411765 0.72941176 0.33333333
v 0.17821223 -0.06424758 0.03842690 0.47058824 0.65882353 0.33333333
v 0.10688359 -0.07189164 0.08443033 0.53333333 0.56470588 0.23137255
v 0.09184236 -0.06962321 0.02215242 0.61568627 0.66274510 0.32549020
v 0.12212933 -0.05679503 0.10293051 0.61176471 0.68627451 0.34901961
v 0.09319914 -0.07401577 0.01413369 0.63921569 0.69411765 0.35294118
v 0.27026976 -0.06752095 0.06586563 0.56078431 0.58431373 0.28235294
v 0.22138692 -0.06684640 0.11666142 0.69411765 0.76470588 0.37254902
v 0.17844886 -0.06262783 0.12260311 0.51372549 0.53333333 0.21960784
v 0.18460459 -0.06260291 0.06465112 0.58823529 0.61176471 0.25882353
v 0.15194196 -0.06422994 0.10542139 0.58431373 0.63529412 0.27058824
v 0.08560688 -0.05852834 0.02705177 0.60784314 0.65882353 0.33333333
v 0.22990752 -0.05082915 0.14887195 0.77647059 0.86666667 0.41960784
v 0.17756374 -0.05774585 0.02300840 0.70980392 0.79607843 0.43921569
v 0.34390415 -0.05659488 0.19155570 0.81960784 0.91372549 0.56078431
v 0.36787779 -0.05273530 0.11260330 0.79215686 0.86274510 0.45098039
v 0.34127576 -0.05363319 0.17543774 0.81568627 0.89411765 0.48235294
v 0.07449538 -0.06294129 0.03193825 0.70588235 0.80784314 0.51764706
v 0.09408677 -0.05197654 0.07835981 0.48627451 0.49803922 0.19215686
v 0.11312021 -0.05697510 0.08574148 0.54509804 0.59215686 0.30588235
v 0.07913465 -0.05386672 0.05956056 0.52549020 0.54901961 0.22352941
v 0.16170866 -0.05412534 0.01769503 0.65882353 0.72941176 0.38431373
v 0.34804065 -0.05410871 0.15794041 0.77647059 0.85098039 0.43529412
v 0.07817937 -0.05298397 0.02025770 0.60784314 0.65882353 0.33333333
v 0.15683622 -0.05880931 0.11800688 0.57254902 0.61960784 0.26666667
v 0.13630653 -0.04978147 0.00993543 0.75294118 0.83921569 0.49803922
v 0.15651334 -0.05827323 0.09873306 0.56862745 0.63137255 0.27843137
v 0.09339178 -0.05814174 0.04558256 0.60000000 0.65098039 0.32549020
v 0.08767355 -0.05941406 0.00472792 0.79607843 0.90980392 0.60000000
v 0.14039511 -0.05380705 0.10523241 0.54509804 0.59607843 0.25098039
v 0.10375548 -0.04888222 0.00012618 0.79607843 0.90196078 0.59215686
v 0.16712649 -0.05248449 0.12474679 0.68627451 0.76470588 0.33333333
v 0.09275765 -0.04970393 0.05044689 0.57647059 0.61176471 0.27450980
v 0.07696594 -0.04437849 0.03176796 0.58039216 0.61568627 0.29803922
v 0.07721938 -0.05062244 0.00726213 0.64313725 0.69803922 0.35294118
v 0.37838257 -0.03670094 0.10111415 0.80392157 0.87450980 0.46274510
v 0.06974960 -0.04875359 0.03211176 0.63137255 0.69411765 0.37647059
v 0.10714323 -0.04556463 0.04155382 0.53333333 0.55294118 0.21960784
v 0.12957920 -0.04693470 0.00148069 0.76470588 0.86274510 0.49803922
v 0.08229620 -0.05010745 0.04436701 0.57647059 0.60784314 0.27058824
v 0.35815788 -0.04347876 0.14511990 0.80000000 0.87058824 0.47843137
v 0.37878270 -0.02847621 0.09636342 0.59607843 0.70196078 0.37647059
v 0.03696156 -0.05328396 0.01812901 0.41960784 0.55686275 0.25882353
v 0.36446817 -0.04436788 0.13040464 0.81960784 0.88627451 0.50980392
v 0.03184540 -0.04059264 0.01169997 0.49411765 0.54901961 0.23137255
v 0.09308822 -0.03904978 0.02309727 0.52941176 0.54509804 0.23921569
v 0.09797789 -0.03922776 0.08813530 0.48235294 0.48627451 0.18431373
v 0.02896405 -0.04205582 0.02052551 0.43137255 0.54509804 0.24313725
v 0.34724201 -0.03847376 0.18105506 0.80000000 0.87843137 0.47450980
v 0.07375378 -0.04472640 0.07780277 0.44705882 0.44313725 0.16078431
v 0.11784548 -0.04742650 0.09950807 0.52549020 0.56078431 0.24705882
v 0.30084474 -0.02697978 0.17363190 0.77647059 0.86666667 0.42352941
v 0.36914552 -0.00285295 0.08949112 0.63137255 0.73333333 0.36078431
v 0.04807002 -0.04022429 0.02493133 0.48235294 0.51372549 0.21176471
v 0.22609676 -0.01994387 0.14486026 0.76862745 0.85490196 0.41176471
v 0.08505125 -0.03778854 0.08203652 0.46274510 0.46274510 0.16862745
v 0.06541575 -0.03893748 0.06308337 0.45098039 0.45490196 0.16078431
v 0.04643656 -0.04584214 0.04177528 0.47450980 0.47450980 0.17254902
v 0.14154262 -0.03368888 0.00392633 0.72549020 0.80784314 0.36470588
v 0.11353476 -0.04183653 0.05938190 0.46666667 0.47058824 0.17647059
v 0.07469899 -0.04097411 0.01626261 0.52941176 0.54901961 0.23529412
v 0.06209029 -0.04219261 -0.00331495 0.62745098 0.67058824 0.30588235
v 0.09344918 -0.03840497 0.09287145 0.52941176 0.55686275 0.22352941
v 0.16645599 -0.03032503 0.12451076 0.75686275 0.84313725 0.38431373
v 0.11462624 -0.04365644 0.03012174 0.67058824 0.71764706 0.32549020
v 0.35113741 -0.03275940 0.16774272 0.83137255 0.90980392 0.48627451
v 0.03476096 -0.03705064 0.04794198 0.51372549 0.52941176 0.21176471
v 0.08816142 -0.03225670 0.04654127 0.57254902 0.60000000 0.25490196
v 0.04463316 -0.03647152 0.00722005 0.59215686 0.62745098 0.27843137
v 0.07166994 -0.04006002 -0.01725177 0.61960784 0.65882353 0.30980392
v 0.06699956 -0.03561125 0.07914364 0.49411765 0.51372549 0.20000000
v 0.04995770 -0.03146521 0.05410757 0.48235294 0.48235294 0.18431373
v 0.11030031 -0.03859845 0.10319813 0.72156863 0.80392157 0.34117647
v 0.09788425 -0.03663746 0.03501260 0.60392157 0.62745098 0.30196078
v 0.03243066 -0.03275165 0.02966970 0.48235294 0.49019608 0.17254902
v 0.08191551 -0.03369800 -0.01775806 0.66666667 0.73333333 0.35686275
v 0.08853818 -0.03870651 0.06537681 0.48235294 0.46666667 0.20000000
v 0.04982115 -0.03125403 0.00404429 0.61176471 0.64313725 0.29411765
v 0.05674166 -0.03187380 0.03021022 0.51372549 0.51764706 0.21568627
v 0.05847091 -0.03599242 0.07507377 0.45490196 0.45490196 0.16862745
v 0.01801319 -0.03332982 0.00797045 0.52941176 0.53725490 0.21568627
v 0.36602772 -0.02816770 0.13135397 0.78823529 0.85882353 0.43529412
v 0.10071225 -0.02883330 0.04404607 0.56862745 0.59607843 0.24705882
v 0.01719893 -0.03105614 0.05415916 0.45882353 0.50588235 0.18823529
v 0.03274036 -0.03372440 0.06915125 0.49019608 0.49019608 0.19607843
v 0.03923322 -0.02635476 0.03488609 0.48627451 0.48627451 0.18039216
v 0.08005489 -0.03599301 0.01456510 0.50196078 0.50980392 0.20392157
v 0.08767713 -0.03563592 0.00510844 0.48235294 0.48235294 0.20784314
v 0.03536786 -0.03059933 -0.02206176 0.69411765 0.74117647 0.36862745
v 0.07684399 -0.02924356 0.02410933 0.54901961 0.56862745 0.26274510
v 0.02396805 -0.03484395 -0.01970785 0.63137255 0.67843137 0.31372549
v 0.05834568 -0.03246835 -0.01580305 0.65490196 0.70196078 0.32156863
v 0.02213103 -0.02559904 0.01842316 0.50588235 0.50588235 0.19607843
v 0.24349607 0.03277662 0.03916549 0.74509804 0.82745098 0.37647059
v 0.04168917 -0.03031692 -0.02838927 0.69803922 0.74117647 0.38431373
v 0.02605558 -0.02704344 0.06096544 0.50196078 0.52156863 0.19607843
v 0.02896202 -0.02723089 -0.03987438 0.72156863 0.65098039 0.30980392
v 0.03637041 -0.02520660 0.05526089 0.49803922 0.50196078 0.18823529
v 0.05807585 -0.02205310 -0.02904802 0.73725490 0.81960784 0.42745098
v 0.35788036 -0.01923386 0.15350273 0.82352941 0.90196078 0.46274510
v 0.02580262 -0.02742109 0.04323005 0.49019608 0.49411765 0.17647059
v 0.04648001 -0.02771077 0.06788381 0.50196078 0.52156863 0.20000000
v 0.03271354 -0.02691976 -0.01604479 0.71372549 0.76078431 0.36862745
v 0.01983125 -0.02501199 -0.03647529 0.63921569 0.66666667 0.21960784
v 0.04595745 -0.02788481 -0.00098581 0.66274510 0.70196078 0.32941176
v 0.02097119 -0.02889225 -0.00331635 0.64705882 0.70196078 0.30980392
v 0.05614150 -0.02854178 0.01666572 0.50980392 0.51764706 0.21960784
v 0.35218794 -0.02124659 0.18167862 0.81176471 0.89019608 0.47450980
v 0.05394019 -0.02456698 0.08055034 0.67450980 0.74117647 0.31372549
v 0.27343834 -0.00691221 0.16156309 0.78431373 0.87058824 0.43137255
v 0.37838102 -0.01521114 0.11043292 0.79607843 0.86274510 0.41960784
v 0.02443773 -0.02024940 0.06841516 0.60784314 0.64313725 0.27450980
v 0.04449470 -0.02496067 -0.01375408 0.68235294 0.70980392 0.34509804
v 0.01395512 -0.01901976 -0.00208879 0.60392157 0.61568627 0.14901961
v 0.01096160 -0.02152887 0.01431569 0.55294118 0.57254902 0.21568627
v 0.01648165 -0.02018980 0.05304688 0.49019608 0.51372549 0.20000000
v 0.02559383 -0.02178511 -0.02722794 0.58431373 0.59215686 0.16862745
v 0.00455917 -0.02646265 -0.03185854 0.62352941 0.63921569 0.22352941
v 0.03755886 -0.02436820 0.02507692 0.52156863 0.52941176 0.20784314
v 0.03236295 -0.02507958 0.01193982 0.50980392 0.52549020 0.20392157
v 0.34635479 -0.01377055 0.19088476 0.52156863 0.68627451 0.41568627
v 0.32167471 0.01397195 0.07031234 0.74117647 0.81568627 0.37254902
v 0.00399370 -0.01866708 0.04221331 0.54901961 0.55686275 0.19215686
v -0.00099265 -0.02064577 -0.03975224 0.60000000 0.61176471 0.25882353
v 0.36875064 -0.00849781 0.13421189 0.80000000 0.87058824 0.42745098
v -0.02107762 -0.01821152 -0.04706748 0.58431373 0.62352941 0.27843137
v -0.00843315 -0.01657018 -0.04912940 0.66666667 0.68627451 0.32156863
v -0.00728302 -0.01181087 -0.05438202 0.71764706 0.78823529 0.38431373
v -0.00475811 -0.01408854 -0.03105821 0.54509804 0.55294118 0.19607843
v 0.35081685 -0.00744018 0.17887562 0.80392157 0.87450980 0.44705882
v 0.11724991 0.02832004 0.10131981 0.73725490 0.82352941 0.35294118
v -0.00518548 -0.01331696 -0.00535459 0.55294118 0.55294118 0.16470588
v 0.12544210 0.05646822 -0.00795559 0.72156863 0.79607843 0.35686275
v -0.00688093 -0.01272777 0.02250021 0.60000000 0.60000000 0.10980392
v -0.00954913 -0.01297000 0.04645439 0.67843137 0.67058824 0.07843137
v -0.03131916 -0.01153240 -0.05044966 0.58431373 0.61568627 0.27450980
v -0.04809179 -0.01228896 -0.04155872 0.53725490 0.55686275 0.22352941
v -0.03279584 -0.01069221 -0.03715072 0.53333333 0.54901961 0.22352941
v -0.03279918 -0.00659588 0.04348942 0.58431373 0.61568627 0.23921569
v -0.02706989 -0.00632307 0.02100756 0.50588235 0.50980392 0.19215686
v -0.04371216 -0.00799939 -0.05186338 0.59215686 0.63137255 0.27843137
v 0.38283498 0.00343677 0.09748807 0.56862745 0.67450980 0.35686275
v 0.36016715 -0.00291565 0.16110691 0.82352941 0.89411765 0.46666667
v -0.02253174 -0.00868151 -0.02100935 0.54509804 0.55294118 0.20392157
v 0.23155934 0.01271698 0.14422046 0.76862745 0.85490196 0.41176471
v -0.02987616 -0.00860116 -0.00079600 0.51372549 0.51764706 0.20000000
v 0.02406288 0.04018739 -0.04609809 0.76470588 0.83921569 0.27843137
v -0.04586085 -0.00641761 -0.06091640 0.67450980 0.73725490 0.40784314
v -0.06487390 -0.00382272 -0.06418580 0.60784314 0.65098039 0.28627451
v -0.04124781 -0.00757793 -0.01639300 0.51372549 0.52941176 0.20392157
v -0.07619157 -0.00497106 -0.05391280 0.58039216 0.60392157 0.27058824
v -0.06071912 -0.00590763 -0.03175259 0.52549020 0.54117647 0.22352941
v 0.18546624 0.03794261 0.12606179 0.75294118 0.83529412 0.38039216
v -0.07057875 0.00540062 0.03039184 0.67058824 0.72941176 0.32156863
v 0.28273416 0.02306834 0.16384717 0.78431373 0.87450980 0.43137255
v -0.05454253 -0.00620625 0.02161553 0.56078431 0.58039216 0.23137255
v -0.04380303 -0.00420037 -0.03356976 0.52156863 0.52156863 0.20000000
v -0.03841450 -0.00369713 0.02489399 0.52549020 0.53333333 0.20000000
v 0.37750680 0.00636068 0.11392581 0.54901961 0.64705882 0.35294118
v -0.08826800 -0.00643644 -0.03582334 0.60000000 0.61176471 0.30196078
v -0.07580706 -0.00259695 -0.04343865 0.55686275 0.56862745 0.25490196
v 0.36007334 -0.00449291 0.18865036 0.76862745 0.87450980 0.56078431
v -0.10972094 -0.00445447 -0.08710124 0.67843137 0.69019608 0.32549020
v -0.04297193 -0.00033936 -0.06838948 0.71764706 0.79607843 0.36862745
v -0.13440429 -0.00162247 -0.09725905 0.68235294 0.71764706 0.33725490
v -0.08957764 -0.00128201 -0.07387913 0.63921569 0.67450980 0.35686275
v -0.05067970 -0.00140319 0.00124919 0.52941176 0.53725490 0.21176471
v -0.05418240 0.00053361 -0.01115829 0.50980392 0.50980392 0.20784314
v 0.31302566 0.02065846 0.17459374 0.76470588 0.85098039 0.40392157
v -0.06642460 -0.00129798 -0.00215239 0.50980392 0.50980392 0.18039216
v -0.06879591 -0.00364623 -0.02051555 0.50588235 0.51372549 0.19215686
v -0.10456871 0.00372126 -0.06297848 0.53725490 0.55294118 0.22352941
v -0.13906260 0.00171753 -0.08840535 0.60784314 0.63921569 0.28235294
v -0.11739417 0.00213524 -0.04257861 0.65882353 0.65882353 0.36078431
v -0.08610877 0.00217083 -0.04119665 0.57254902 0.59215686 0.26666667
v -0.12034201 0.00101116 -0.07416574 0.61568627 0.63137255 0.28235294
v -0.09149074 -0.00113961 -0.00632412 0.50588235 0.51372549 0.18823529
v 0.33732671 0.01421407 0.18109586 0.49411765 0.63921569 0.35294118
v -0.03457620 0.01789811 -0.06740855 0.72941176 0.80784314 0.36078431
v -0.08370175 0.00033030 -0.02396459 0.50980392 0.52549020 0.19607843
v -0.06853127 0.00192305 -0.03022731 0.52941176 0.54509804 0.22352941
v -0.13387208 -0.00261250 -0.07066960 0.54509804 0.57647059 0.23921569
v -0.08472263 0.00338098 0.00456476 0.53333333 0.55686275 0.21568627
v -0.10882520 0.00509157 -0.09025916 0.67843137 0.71764706 0.33333333
v -0.07449671 0.00875070 -0.08189858 0.70588235 0.76470588 0.37254902
v 0.35235454 0.00757613 0.18731030 0.68627451 0.79607843 0.46666667
v -0.08959570 0.00368485 -0.06947472 0.54117647 0.56470588 0.24705882
v -0.10855131 0.00673285 -0.02665818 0.54509804 0.56470588 0.23137255
v -0.15092509 0.00124326 -0.05537652 0.49803922 0.56078431 0.23529412
v -0.06997209 0.00221893 -0.05416802 0.50196078 0.54117647 0.23529412
v -0.10878419 0.01429352 -0.05411280 0.49019608 0.49803922 0.18039216
v -0.11333840 0.00987175 -0.01701461 0.53333333 0.57647059 0.23137255
v 0.36796130 0.00475070 0.14370414 0.69411765 0.77647059 0.40392157
v -0.11701184 0.01198199 -0.04695783 0.55294118 0.55686275 0.23921569
v -0.12595235 0.01195833 -0.09649578 0.66274510 0.69411765 0.31372549
v -0.13147103 0.01430556 -0.08390770 0.57647059 0.60392157 0.25490196
v -0.15471517 0.01380482 -0.10721657 0.72156863 0.79607843 0.43921569
v -0.09426349 0.00682333 -0.06039344 0.65882353 0.69019608 0.32941176
v -0.13826116 0.00707867 -0.06154600 0.47450980 0.50980392 0.18431373
v -0.15148517 0.00606677 -0.08635994 0.48627451 0.52941176 0.20392157
v -0.15347730 0.00974390 -0.07129946 0.51372549 0.55686275 0.21960784
v -0.03528225 0.02129289 0.04369222 0.78039216 0.85882353 0.36862745
v -0.16218924 0.00644269 -0.04658481 0.37254902 0.54509804 0.26666667
v -0.18352874 0.00871762 -0.05562771 0.39215686 0.56078431 0.28627451
v 0.35119064 0.01170888 0.15292700 0.39607843 0.53333333 0.31372549
v -0.12178200 0.00954851 -0.05523812 0.45882353 0.47450980 0.17254902
v -0.17264321 0.01218226 -0.11185782 0.77647059 0.87450980 0.57254902
v -0.17171814 0.00890514 -0.08931138 0.54117647 0.59607843 0.24705882
v -0.18541437 0.00846496 -0.07291228 0.54117647 0.60784314 0.26666667
v -0.10801109 0.00981787 0.00443765 0.50588235 0.52941176 0.19215686
v -0.13938787 0.01191988 -0.00440154 0.56078431 0.60784314 0.25098039
v -0.14761766 0.01318690 -0.01396302 0.53725490 0.57647059 0.23137255
v -0.13026511 0.01531019 -0.10297737 0.71764706 0.77647059 0.35294118
v 0.33729202 0.01535007 0.07857644 0.71372549 0.79215686 0.36078431
v 0.34692402 0.01430401 0.11788132 0.61176471 0.70588235 0.33725490
v -0.16930895 0.01569381 -0.05555718 0.47450980 0.58823529 0.27843137
v -0.12540268 0.01098534 -0.00230000 0.49803922 0.51764706 0.17647059
v -0.13045444 0.01507231 -0.04261585 0.45098039 0.48235294 0.16470588
v -0.20786893 0.01040849 -0.07652038 0.56862745 0.63921569 0.27843137
v -0.15839856 0.01811668 -0.06466860 0.49019608 0.51764706 0.18823529
v -0.17664676 0.01342401 -0.10345174 0.58823529 0.63921569 0.29803922
v -0.13507035 0.01763495 -0.01826458 0.53333333 0.58823529 0.26274510
v -0.18859594 0.01525792 -0.06507737 0.46274510 0.59215686 0.29019608
v -0.14006620 0.01318177 -0.02862845 0.54117647 0.58431373 0.26666667
v 0.30945099 0.02374491 0.07729145 0.69411765 0.76078431 0.33725490
v -0.13214110 0.02044102 0.00554746 0.66274510 0.73333333 0.33333333
v -0.21372496 0.01438358 -0.06386978 0.47843137 0.61176471 0.29019608
v -0.14397269 0.01802721 -0.08594022 0.44313725 0.48235294 0.16078431
v -0.17323314 0.02370789 -0.08484664 0.47058824 0.52549020 0.18823529
v -0.15174057 0.02235594 -0.03748927 0.52156863 0.57254902 0.24313725
v -0.22166832 0.02394023 -0.07405621 0.56470588 0.64313725 0.29019608
v -0.13073798 0.01444277 -0.06403115 0.41176471 0.45490196 0.16078431
v -0.18844306 0.01562640 -0.07406408 0.52156863 0.57254902 0.23137255
v -0.17514687 0.02274266 -0.02275454 0.60784314 0.65490196 0.29803922
v -0.15888395 0.02229657 -0.08682167 0.43137255 0.47843137 0.15686275
v -0.14032894 0.01951000 -0.06576354 0.51372549 0.54117647 0.20784314
v -0.18683200 0.02777871 -0.02791371 0.60784314 0.65098039 0.29411765
v -0.19780194 0.02474311 -0.11704437 0.60784314 0.65098039 0.30588235
v -0.17072271 0.01959833 -0.06890499 0.48627451 0.51764706 0.18431373
v -0.20015227 0.02922299 -0.09589790 0.48627451 0.52941176 0.18431373
v -0.18738031 0.02845248 -0.12277272 0.74509804 0.83921569 0.46274510
v 0.29616273 0.02548524 0.14382335 0.71764706 0.78823529 0.34509804
v -0.15066754 0.02026394 -0.05386946 0.47843137 0.50196078 0.16862745
v 0.25598354 0.03225937 0.15147763 0.76078431 0.84313725 0.41176471
v -0.16377138 0.02394488 -0.00930951 0.57647059 0.62352941 0.25882353
v -0.16317706 0.02029887 -0.03930574 0.56078431 0.57647059 0.22745098
v -0.16097122 0.02557364 -0.02725119 0.49803922 0.52156863 0.19215686
v -0.17253422 0.02971950 -0.12086856 0.73333333 0.81960784 0.43921569
v -0.16078397 0.02642479 -0.07201063 0.46274510 0.50196078 0.15686275
v -0.17973911 0.02781757 -0.09377637 0.50196078 0.52549020 0.18431373
v -0.17497563 0.02629032 -0.05149414 0.58039216 0.61176471 0.26274510
v 0.24363531 0.03740891 0.04161041 0.69411765 0.76470588 0.35294118
v -0.15151995 0.02553221 -0.05972388 0.49803922 0.51372549 0.16470588
v -0.12618481 0.02977708 -0.10405938 0.74509804 0.82745098 0.36470588
v 0.07095970 0.07027623 0.08013275 0.75294118 0.83921569 0.36862745
v -0.17494359 0.02521881 -0.10705002 0.54901961 0.59215686 0.24313725
v -0.18044247 0.02914676 -0.06937394 0.48627451 0.49411765 0.17254902
v -0.16620367 0.02794823 -0.05356606 0.47843137 0.48627451 0.17254902
v 0.24731667 0.03781184 0.08183321 0.68235294 0.74509804 0.32549020
v -0.18342035 0.02781877 -0.04154824 0.56078431 0.59607843 0.23529412
v -0.20348757 0.02441182 -0.04087870 0.61960784 0.68627451 0.30196078
v -0.19393449 0.03279891 -0.08216412 0.49803922 0.54901961 0.20784314
v -0.25189724 0.02446153 -0.06440193 0.62745098 0.70196078 0.34117647
v -0.24756621 0.02739730 -0.08295434 0.65098039 0.70196078 0.34117647
v -0.22862851 0.02950009 -0.04544548 0.56470588 0.61176471 0.26666667
v -0.22481387 0.03307226 -0.09814478 0.56862745 0.60784314 0.25490196
v 0.22986949 0.03873744 0.14122646 0.75294118 0.83137255 0.40392157
v -0.21233024 0.03161320 -0.07371478 0.57647059 0.63529412 0.27843137
v -0.20724850 0.03292903 -0.06238127 0.60000000 0.65098039 0.30588235
v -0.21442836 0.03569105 -0.09992125 0.42745098 0.48627451 0.16470588
v -0.19763734 0.03260073 -0.04917786 0.54509804 0.58431373 0.23137255
v -0.19958588 0.02933004 -0.13276028 0.72549020 0.79215686 0.36862745
v -0.24389516 0.03879353 -0.05288900 0.61176471 0.65098039 0.32549020
v -0.22566938 0.03705981 -0.07956431 0.59215686 0.63137255 0.25098039
v -0.20627539 0.03413936 -0.10534533 0.45490196 0.50588235 0.17647059
v -0.20198064 0.03060141 -0.03332154 0.56470588 0.61960784 0.27058824
v -0.21235507 0.03756657 -0.02678393 0.64313725 0.70196078 0.32156863
v -0.21857019 0.03793350 -0.05133171 0.52549020 0.58431373 0.23137255
v -0.20767727 0.03809580 -0.12472586 0.52941176 0.56470588 0.22745098
v -0.26583705 0.04554674 -0.06540539 0.63137255 0.67058824 0.32941176
v -0.25893109 0.03372648 -0.08540191 0.59215686 0.62745098 0.26666667
v -0.21686985 0.03466883 -0.13186783 0.73333333 0.84313725 0.47450980
v -0.22735470 0.05838641 -0.03228014 0.77254902 0.85490196 0.41568627
v 0.22370304 0.04185864 0.12324857 0.68235294 0.74901961 0.32549020
v -0.24748339 0.03997776 -0.09485785 0.61960784 0.65490196 0.28235294
v -0.11514609 0.11824128 -0.10463513 0.73333333 0.81568627 0.36862745
v -0.23309972 0.03642335 -0.08036717 0.63529412 0.64705882 0.30980392
v -0.23044320 0.03599456 -0.06460064 0.58823529 0.67058824 0.28627451
v -0.24991753 0.04067149 -0.10855687 0.54509804 0.60784314 0.25882353
v -0.22279265 0.04323044 -0.11132689 0.60000000 0.63529412 0.27450980
v -0.23118608 0.04108408 -0.12737165 0.59607843 0.67058824 0.30980392
v -0.05283313 0.10463902 -0.07969091 0.73333333 0.81568627 0.36470588
v -0.24557241 0.03745284 -0.14435745 0.69411765 0.78431373 0.42745098
v -0.22942462 0.04199895 -0.09231286 0.54509804 0.59215686 0.24313725
v -0.25947370 0.04080787 -0.14927009 0.74117647 0.85098039 0.49019608
v -0.24689286 0.03915003 -0.12914161 0.54901961 0.61568627 0.26666667
v -0.28359952 0.04279622 -0.11023558 0.48627451 0.61960784 0.29019608
v -0.22102453 0.04512629 -0.12602841 0.58431373 0.62745098 0.25098039
v -0.02838965 0.09238168 0.04106512 0.76862745 0.85490196 0.41568627
v -0.22700428 0.04782363 -0.14421305 0.74901961 0.83137255 0.38823529
v -0.25637000 0.04194924 -0.08119238 0.59215686 0.63529412 0.26666667
v -0.28964030 0.04365399 -0.10083348 0.58431373 0.65882353 0.27450980
v -0.25830423 0.04552802 -0.04680172 0.57254902 0.61568627 0.25882353
v 0.17469151 0.05510702 0.01992955 0.65490196 0.72549020 0.32156863
v -0.26010340 0.04566446 -0.13752741 0.56862745 0.60392157 0.23529412
v -0.26486609 0.04673192 -0.11593378 0.40392157 0.50196078 0.23921569
v -0.24999811 0.04946729 -0.07797501 0.58823529 0.64313725 0.27058824
v -0.29661996 0.04427549 -0.07789024 0.60784314 0.66666667 0.31764706
v -0.26015498 0.04650625 -0.07207795 0.58431373 0.62352941 0.26666667
v -0.29328466 0.05589112 -0.05769574 0.68627451 0.78823529 0.41568627
v -0.30151216 0.05031445 -0.06544203 0.63137255 0.69411765 0.34901961
v -0.28152167 0.05047199 -0.09801609 0.46274510 0.60392157 0.23529412
v -0.26095908 0.04738930 -0.08999780 0.55294118 0.63921569 0.25490196
v -0.31746624 0.05117872 -0.07710800 0.63921569 0.58823529 0.31764706
v -0.28547703 0.04789957 -0.07066979 0.61568627 0.65882353 0.29411765
v 0.16497345 0.05495163 0.11505803 0.72156863 0.80000000 0.36470588
v -0.27428747 0.04915914 -0.14893933 0.62745098 0.69411765 0.31764706
v -0.27729539 0.05590936 -0.08642264 0.60784314 0.63529412 0.23921569
v -0.29316085 0.04768988 -0.16928586 0.79215686 0.91764706 0.63921569
v -0.27149326 0.05337682 -0.16159601 0.62352941 0.72156863 0.41568627
v -0.28834233 0.05185333 -0.09128948 0.61568627 0.69411765 0.33725490
v -0.28970634 0.05126401 -0.11281782 0.50196078 0.61960784 0.31372549
v -0.28687819 0.05556187 -0.15983938 0.63529412 0.72941176 0.40784314
v -0.28034615 0.05204042 -0.12165333 0.48235294 0.60000000 0.29411765
v -0.32321247 0.05247786 -0.07700493 0.57254902 0.74901961 0.47058824
v -0.31701297 0.05869916 -0.08270705 0.52941176 0.56470588 0.29019608
v -0.29385269 0.05501565 -0.14226323 0.56862745 0.68235294 0.32156863
v 0.10420979 0.06917074 -0.01562641 0.70196078 0.78039216 0.35294118
v 0.01413859 0.08574238 -0.05268278 0.74117647 0.81568627 0.33725490
v -0.32126663 0.06019559 -0.10633997 0.53333333 0.64313725 0.30980392
v 0.14241935 0.06231412 0.06000596 0.66666667 0.73725490 0.32156863
v -0.30566578 0.05805155 -0.17435862 0.61176471 0.73333333 0.47058824
v -0.32192049 0.05998781 -0.17819908 0.71764706 0.84313725 0.48235294
v -0.30146190 0.05785909 -0.12303392 0.37254902 0.51372549 0.21176471
v -0.17784446 0.12294051 -0.01827263 0.77254902 0.85098039 0.41568627
v -0.18756988 0.09041926 -0.13196281 0.74117647 0.82352941 0.36862745
v -0.31593386 0.06114640 -0.13181760 0.57647059 0.70196078 0.30196078
v -0.32905700 0.06156996 -0.15322774 0.58039216 0.68235294 0.36862745
v 0.11040659 0.06838199 0.09051522 0.67058824 0.74509804 0.32941176
v -0.34173446 0.06543740 -0.16687430 0.58431373 0.66274510 0.33333333
v -0.24153676 0.09257671 -0.15418594 0.70980392 0.81176471 0.43921569
v -0.29359547 0.08791527 -0.17353914 0.64313725 0.79607843 0.49803922
v -0.34181049 0.06694367 -0.09590933 0.58823529 0.65490196 0.27843137
v -0.34187058 0.06572583 -0.12523713 0.60784314 0.70980392 0.36862745
v -0.34147655 0.06689086 -0.18504003 0.60000000 0.55686275 0.27450980
v -0.35314023 0.06588384 -0.11026422 0.59215686 0.65490196 0.28235294
v -0.35893989 0.07063177 -0.08568817 0.67058824 0.72156863 0.34117647
v -0.35988583 0.06987086 -0.13296048 0.51372549 0.49411765 0.24705882
v -0.35777091 0.07021239 -0.16391888 0.52941176 0.41176471 0.20784314
v -0.36509877 0.07205155 -0.17695335 0.52156863 0.35686275 0.18823529
v -0.37439518 0.07404908 -0.10700481 0.56470588 0.52156863 0.24313725
v -0.37518265 0.06972804 -0.13776582 0.52941176 0.46274510 0.23529412
v 0.03207476 0.08778307 0.05811503 0.71764706 0.78823529 0.27843137
v 0.07962907 0.07793918 -0.02344098 0.66274510 0.72941176 0.30196078
v -0.35871274 0.07710752 -0.19456339 0.72549020 0.62745098 0.32156863
v -0.33929448 0.10285958 -0.07756545 0.78823529 0.87843137 0.58823529
v -0.37507585 0.07491484 -0.12598544 0.53333333 0.38431373 0.20784314
v -0.33284371 0.08119514 -0.18700030 0.73333333 0.74901961 0.38431373
v -0.37392417 0.07906058 -0.16429826 0.75294118 0.86666667 0.51764706
v 0.02335454 0.08622202 0.05965077 0.74509804 0.82745098 0.36078431
v -0.38680845 0.07956704 -0.09828915 0.62745098 0.40000000 0.21176471
v -0.39550312 0.08182415 -0.10441334 0.68627451 0.74509804 0.36078431
v 0.04112358 0.08720734 -0.02935668 0.65882353 0.72156863 0.29019608
v -0.27279735 0.14838215 -0.05516890 0.74117647 0.84313725 0.45490196
v -0.37572736 0.09573576 -0.15388787 0.64705882 0.78431373 0.50588235
v -0.34608627 0.09343961 -0.19230202 0.70196078 0.47058824 0.27058824
v -0.38909230 0.10756942 -0.10990436 0.78039216 0.87843137 0.50196078
v -0.35570552 0.10187706 -0.19470119 0.82745098 0.92156863 0.61960784
v -0.00913411 0.09759304 -0.05934060 0.66274510 0.73725490 0.33725490
v -0.03422838 0.10442689 -0.03728322 0.63529412 0.70196078 0.31372549
v -0.05775656 0.10835853 0.02022811 0.63921569 0.70588235 0.32156863
v -0.37892134 0.13379153 -0.09524115 0.68627451 0.56470588 0.31764706
v -0.31743339 0.12384489 -0.18280303 0.64705882 0.70980392 0.40784314
v -0.26158189 0.11835029 -0.16280091 0.66666667 0.78823529 0.48235294
v -0.37181244 0.13298091 -0.14638892 0.72941176 0.89019608 0.60392157
v -0.16604879 0.12804243 -0.12441493 0.72549020 0.80784314 0.37254902
v -0.08920073 0.11224129 0.01471692 0.74901961 0.83529412 0.40784314
v -0.36293458 0.11905273 -0.16873493 0.71764706 0.85882353 0.58823529
v -0.28007150 0.13196948 -0.17185685 0.53333333 0.68235294 0.42352941
v -0.08181997 0.11538401 -0.08646553 0.62745098 0.69411765 0.31372549
v -0.34959503 0.12126365 -0.19248746 0.70980392 0.67450980 0.41568627
v -0.38986454 0.12244114 -0.10328346 0.76862745 0.90588235 0.57647059
v -0.39009058 0.11754694 -0.11514861 0.72156863 0.86274510 0.52156863
v -0.35682829 0.12656721 -0.18622056 0.75294118 0.85490196 0.56862745
v -0.10655894 0.11943820 0.00397956 0.65098039 0.71764706 0.32549020
v -0.37997753 0.12981864 -0.12369717 0.68235294 0.83529412 0.53333333
v -0.12952100 0.12648949 -0.07271170 0.63137255 0.69803922 0.31372549
v -0.22534250 0.14446661 -0.14829159 0.74117647 0.82352941 0.38823529
v -0.18467217 0.13656923 -0.02647789 0.68627451 0.76078431 0.34901961
v -0.38326157 0.13799306 -0.10269020 0.74117647 0.86666667 0.59215686
v -0.16975050 0.13509717 -0.03072295 0.63137255 0.69019608 0.31764706
v -0.35782527 0.13965848 -0.16830391 0.74901961 0.86274510 0.59215686
v -0.15809344 0.13354507 -0.11767048 0.65490196 0.72549020 0.32156863
v -0.34576585 0.14148762 -0.19227249 0.78431373 0.87450980 0.54509804
v -0.37456802 0.14487365 -0.12253145 0.74901961 0.84313725 0.55294118
v -0.26709270 0.14879653 -0.16505244 0.75294118 0.85490196 0.47058824
v -0.19100150 0.14128115 -0.13121784 0.65882353 0.73333333 0.32156863
v -0.34776906 0.16319820 -0.08435362 0.73725490 0.73725490 0.40392157
v -0.36486149 0.14754948 -0.14254621 0.83137255 0.93333333 0.67058824
v -0.23767894 0.15052864 -0.06001162 0.65490196 0.73333333 0.36862745
v -0.30439141 0.16258225 -0.17816789 0.78823529 0.83529412 0.51372549
v -0.38102413 0.15089395 -0.09786428 0.80000000 0.86274510 0.47058824
v -0.35908923 0.15568408 -0.16225740 0.67058824 0.78039216 0.53333333
v -0.24320447 0.15251192 -0.15176592 0.65882353 0.74901961 0.36078431
v -0.29129707 0.16199711 -0.07150667 0.62745098 0.71764706 0.37647059
v -0.33991060 0.16492739 -0.19051371 0.78823529 0.83921569 0.45882353
v -0.36524124 0.16596576 -0.14137261 0.70588235 0.80784314 0.58431373
v -0.28011162 0.16174569 -0.16628706 0.73725490 0.85098039 0.50588235
v -0.32455932 0.16864898 -0.08051852 0.54901961 0.67058824 0.38039216
v -0.34431521 0.17030677 -0.17720307 0.73725490 0.79607843 0.40784314
v -0.34347195 0.17454150 -0.14461169 0.58431373 0.51372549 0.28627451
v -0.37126169 0.17367240 -0.10964442 0.73333333 0.80392157 0.40000000
v -0.33050624 0.17244032 -0.18435694 0.63921569 0.47450980 0.25882353
v -0.35516047 0.17574581 -0.13346098 0.69411765 0.64705882 0.42745098
v -0.37518137 0.17992773 -0.09941239 0.67843137 0.59215686 0.30588235
f 43 42 38
f 43 38 57
f 57 38 66
f 66 38 42
f 57 42 43
f 57 66 42
f 57 92 43
f 43 92 57
f 2 3 1
f 5 2 1
f 1 4 5
f 4 1 6
f 6 1 10
f 8 11 7
f 4 12 5
f 4 6 14
f 9 5 12
f 1 3 16
f 3 7 16
f 1 16 10
f 7 11 15
f 12 4 14
f 10 23 6
f 18 9 12
f 14 19 12
f 8 15 11
f 14 6 24
f 21 10 22
f 10 16 22
f 13 40 8
f 14 32 19
f 18 12 25
f 15 41 7
f 24 26 14
f 21 23 10
f 17 20 29
f 32 14 26
f 12 19 25
f 46 18 25
f 8 40 15
f 16 41 22
f 24 6 49
f 20 27 52
f 26 24 49
f 7 41 16
f 23 50 6
f 49 6 50
f 40 13 56
f 55 33 37
f 23 58 50
f 19 32 65
f 25 19 62
f 23 21 58
f 51 76 30
f 21 22 73
f 74 62 19
f 74 19 65
f 28 36 64
f 50 58 49
f 47 67 30
f 15 40 41
f 56 60 40
f 37 33 75
f 18 46 71
f 54 68 33
f 47 29 67
f 32 26 65
f 20 72 48
f 13 28 60
f 29 20 48
f 67 51 30
f 68 36 33
f 41 73 22
f 52 72 20
f 82 25 62
f 60 28 64
f 56 13 60
f 53 34 78
f 71 52 18
f 56 41 60
f 26 49 81
f 64 36 68
f 40 60 41
f 62 74 79
f 53 89 59
f 67 29 85
f 75 33 55
f 35 61 54
f 83 53 78
f 59 89 61
f 75 55 37
f 46 25 82
f 89 53 83
f 29 48 72
f 46 82 71
f 65 26 80
f 81 49 58
f 85 29 72
f 90 51 67
f 78 88 83
f 86 34 91
f 77 91 34
f 34 86 78
f 34 70 77
f 26 81 80
f 82 62 79
f 73 41 95
f 58 21 102
f 65 80 74
f 97 83 88
f 60 87 56
f 78 86 100
f 68 54 94
f 64 87 60
f 41 56 87
f 68 96 64
f 61 89 99
f 97 89 83
f 98 85 72
f 89 97 93
f 52 98 72
f 67 98 108
f 98 67 85
f 96 103 87
f 79 74 110
f 41 87 95
f 54 61 104
f 52 108 98
f 108 90 67
f 96 87 64
f 94 96 68
f 51 90 76
f 113 97 83
f 108 52 71
f 76 116 39
f 99 89 93
f 99 93 107
f 61 99 109
f 39 116 70
f 77 101 91
f 91 115 86
f 97 107 93
f 107 97 125
f 87 103 107
f 71 82 124
f 83 97 105
f 90 108 120
f 90 120 122
f 115 91 123
f 90 122 76
f 70 101 77
f 116 76 122
f 88 125 97
f 88 78 137
f 87 107 95
f 94 109 96
f 81 58 127
f 109 103 96
f 107 103 109
f 113 83 105
f 54 104 94
f 104 61 109
f 110 74 126
f 97 113 105
f 127 58 102
f 107 109 99
f 101 70 116
f 86 117 115
f 120 136 122
f 114 132 91
f 91 101 114
f 117 86 115
f 109 94 104
f 74 80 128
f 135 123 129
f 114 101 131
f 74 128 126
f 133 125 88
f 116 122 141
f 140 115 123
f 71 143 108
f 116 131 101
f 115 140 142
f 143 136 120
f 136 141 122
f 134 80 81
f 120 108 143
f 139 91 144
f 150 100 86
f 130 132 114
f 115 142 86
f 100 137 78
f 123 91 139
f 91 132 144
f 95 107 125
f 73 153 21
f 133 88 137
f 129 148 135
f 131 130 114
f 147 21 153
f 102 21 147
f 143 71 124
f 129 145 148
f 145 129 123
f 123 139 149
f 140 123 146
f 151 144 132
f 86 142 150
f 135 146 123
f 100 150 137
f 127 155 81
f 149 139 144
f 134 81 152
f 164 153 73
f 80 134 128
f 157 123 149
f 158 131 116
f 154 165 159
f 102 147 127
f 160 134 152
f 152 81 155
f 133 170 125
f 128 134 160
f 146 142 140
f 145 151 148
f 132 130 161
f 148 151 132
f 123 135 145
f 132 169 148
f 79 163 82
f 158 130 131
f 141 136 143
f 95 125 170
f 116 162 158
f 126 128 110
f 159 156 154
f 170 133 137
f 141 162 116
f 158 162 174
f 148 145 135
f 123 172 135
f 148 169 165
f 146 135 172
f 132 168 169
f 128 160 110
f 124 175 143
f 165 154 180
f 161 130 167
f 167 130 158
f 142 146 181
f 132 161 168
f 172 123 157
f 73 95 164
f 162 141 184
f 127 147 155
f 184 141 143
f 152 177 160
f 151 179 144
f 183 169 168
f 148 165 145
f 146 173 181
f 166 82 163
f 82 166 124
f 170 137 150
f 149 144 194
f 149 185 157
f 159 165 186
f 174 162 184
f 186 165 169
f 161 167 182
f 181 187 142
f 182 168 161
f 201 151 145
f 146 172 189
f 154 156 180
f 189 173 146
f 179 194 144
f 152 155 193
f 172 157 201
f 212 169 178
f 211 177 152
f 167 158 174
f 193 155 147
f 150 142 187
f 190 201 145
f 200 202 206
f 185 201 157
f 159 204 156
f 145 165 190
f 201 179 151
f 200 180 156
f 203 173 189
f 202 156 192
f 200 156 202
f 170 150 187
f 164 95 233
f 169 212 197
f 186 169 197
f 169 183 178
f 194 185 149
f 180 218 165
f 201 185 179
f 180 200 214
f 204 159 186
f 181 203 210
f 187 181 210
f 182 167 174
f 201 218 172
f 79 110 163
f 192 156 204
f 202 215 208
f 202 192 217
f 194 179 185
f 208 206 202
f 173 203 181
f 168 213 183
f 189 172 218
f 193 211 152
f 193 147 222
f 166 163 221
f 147 153 222
f 216 180 214
f 165 201 190
f 174 220 182
f 226 192 204
f 220 213 168
f 175 124 166
f 218 201 165
f 182 220 168
f 213 223 196
f 212 178 209
f 189 180 216
f 183 209 178
f 189 218 180
f 217 228 202
f 217 192 225
f 203 224 210
f 206 224 200
f 216 224 203
f 224 206 210
f 223 207 196
f 219 160 177
f 95 170 205
f 220 174 184
f 225 192 226
f 187 244 170
f 143 175 184
f 184 175 242
f 215 202 228
f 195 207 227
f 212 226 204
f 196 209 213
f 110 160 219
f 186 212 204
f 200 224 214
f 216 203 189
f 212 186 197
f 209 227 212
f 163 110 232
f 216 214 224
f 183 213 209
f 195 227 207
f 207 227 209
f 196 207 209
f 226 212 234
f 210 206 208
f 223 213 220
f 232 110 219
f 228 217 225
f 211 193 236
f 240 235 215
f 215 235 239
f 239 208 215
f 211 241 177
f 223 227 207
f 243 240 228
f 227 234 212
f 226 234 245
f 215 228 240
f 241 219 177
f 237 238 235
f 240 237 235
f 225 243 228
f 245 225 226
f 223 234 227
f 210 244 187
f 234 246 245
f 246 234 223
f 235 238 239
f 225 245 243
f 233 95 205
f 237 239 238
f 248 247 249
f 253 153 164
f 211 254 241
f 221 256 166
f 246 251 245
f 193 222 236
f 247 237 240
f 247 248 252
f 240 243 255
f 250 251 246
f 246 223 265
f 265 250 246
f 166 264 175
f 237 247 239
f 255 243 257
f 255 261 249
f 257 261 255
f 252 259 247
f 248 262 260
f 248 260 252
f 262 248 263
f 240 249 247
f 259 239 247
f 222 153 270
f 245 257 243
f 255 249 240
f 251 257 245
f 251 250 269
f 261 268 249
f 205 170 244
f 219 241 273
f 163 266 221
f 258 208 239
f 273 232 219
f 272 262 263
f 278 261 257
f 239 259 275
f 208 258 210
f 163 232 289
f 248 249 268
f 153 253 270
f 251 278 257
f 262 277 260
f 248 268 263
f 267 278 269
f 251 269 278
f 260 259 252
f 272 291 271
f 281 282 279
f 276 274 287
f 288 285 271
f 287 274 283
f 291 286 271
f 232 273 297
f 281 278 267
f 269 250 267
f 239 275 290
f 278 279 261
f 259 260 275
f 272 286 262
f 263 268 279
f 280 163 289
f 250 265 267
f 242 220 184
f 272 271 285
f 268 261 279
f 296 277 274
f 263 292 272
f 297 273 241
f 294 288 281
f 279 292 263
f 275 277 296
f 277 275 260
f 272 292 291
f 292 279 282
f 284 287 293
f 285 288 299
f 262 298 277
f 276 287 284
f 299 288 303
f 291 288 271
f 236 222 270
f 267 294 281
f 211 236 304
f 291 282 281
f 282 291 292
f 297 241 254
f 274 276 306
f 211 304 254
f 272 285 305
f 288 291 281
f 277 283 274
f 271 286 291
f 306 295 274
f 286 272 305
f 279 278 281
f 265 294 267
f 296 274 295
f 287 284 307
f 284 293 311
f 312 311 293
f 309 298 262
f 293 310 312
f 283 302 287
f 284 287 307
f 242 175 264
f 265 223 313
f 270 304 236
f 266 163 280
f 164 233 253
f 283 277 298
f 309 262 286
f 297 254 316
f 304 316 254
f 232 297 289
f 220 313 223
f 283 298 309
f 302 283 309
f 285 299 305
f 317 310 293
f 319 318 308
f 308 284 319
f 287 317 293
f 317 287 302
f 311 319 284
f 284 308 276
f 288 294 303
f 321 294 265
f 286 302 309
f 253 233 325
f 302 286 305
f 306 276 324
f 270 326 304
f 294 321 303
f 315 314 327
f 317 329 310
f 331 327 314
f 331 314 300
f 323 333 322
f 319 332 318
f 300 312 331
f 312 310 331
f 304 326 316
f 328 303 321
f 336 253 325
f 295 306 324
f 297 316 289
f 270 253 336
f 324 276 308
f 303 329 305
f 299 303 305
f 337 328 321
f 296 290 275
f 303 328 333
f 321 265 337
f 256 221 355
f 328 337 322
f 340 332 319
f 329 317 305
f 339 311 312
f 334 315 327
f 317 302 305
f 328 322 333
f 335 303 333
f 336 326 270
f 335 329 303
f 318 332 349
f 311 339 346
f 347 331 310
f 341 335 333
f 353 289 316
f 347 310 329
f 258 239 290
f 354 347 329
f 323 322 356
f 338 315 334
f 311 340 319
f 350 320 344
f 312 320 350
f 327 350 334
f 333 323 358
f 326 353 316
f 329 335 341
f 365 295 324
f 220 242 366
f 308 318 359
f 344 334 350
f 333 358 341
f 327 331 350
f 349 352 318
f 340 311 346
f 339 312 360
f 349 332 361
f 296 295 365
f 325 233 363
f 355 221 266
f 289 353 280
f 329 341 354
f 352 359 318
f 322 337 356
f 336 353 326
f 338 334 344
f 330 351 344
f 325 363 336
f 323 356 358
f 364 331 347
f 336 370 353
f 350 331 369
f 357 341 358
f 363 233 205
f 351 349 361
f 364 347 354
f 264 166 256
f 362 357 371
f 345 371 357
f 358 345 357
f 369 368 350
f 312 350 360
f 368 344 373
f 331 364 369
f 338 379 342
f 374 375 342
f 374 342 376
f 377 351 330
f 339 360 346
f 345 358 356
f 364 354 341
f 340 361 332
f 379 338 380
f 371 345 348
f 349 351 386
f 341 369 364
f 341 357 362
f 382 368 362
f 338 344 382
f 382 344 368
f 361 340 351
f 341 362 369
f 324 308 365
f 340 346 360
f 371 382 362
f 355 378 256
f 340 368 373
f 353 266 280
f 373 351 340
f 384 374 376
f 360 350 368
f 351 373 344
f 349 383 352
f 376 342 379
f 375 385 342
f 377 342 385
f 342 377 330
f 377 381 351
f 368 340 360
f 368 369 362
f 345 387 348
f 387 371 348
f 380 338 382
f 266 353 355
f 345 356 388
f 383 349 390
f 371 387 382
f 356 337 394
f 383 390 393
f 387 345 388
f 394 388 356
f 365 308 359
f 384 391 374
f 376 379 389
f 395 353 370
f 375 392 396
f 390 349 377
f 381 377 386
f 377 349 386
f 385 375 398
f 379 380 389
f 380 382 389
f 365 403 296
f 387 388 376
f 376 389 387
f 377 385 405
f 387 389 382
f 220 366 313
f 384 376 388
f 398 375 396
f 390 377 401
f 353 378 355
f 386 351 381
f 394 337 265
f 313 410 265
f 402 377 400
f 393 402 404
f 401 377 402
f 402 393 409
f 411 383 393
f 395 378 353
f 415 370 336
f 401 409 390
f 256 378 264
f 396 392 412
f 402 407 404
f 393 404 411
f 409 393 390
f 396 377 405
f 391 412 392
f 210 258 244
f 363 415 336
f 404 407 416
f 414 384 388
f 396 400 377
f 412 391 420
f 409 401 402
f 396 405 398
f 400 407 402
f 359 383 365
f 388 421 414
f 385 398 405
f 417 407 400
f 290 296 403
f 359 352 383
f 417 400 424
f 404 416 406
f 396 424 400
f 391 384 414
f 412 420 418
f 413 408 423
f 426 420 391
f 412 424 396
f 426 429 420
f 408 417 423
f 427 395 370
f 264 378 427
f 432 413 423
f 408 413 433
f 421 388 394
f 417 416 407
f 406 428 431
f 428 416 417
f 428 406 416
f 424 423 417
f 264 427 242
f 408 433 435
f 391 414 426
f 395 427 378
f 435 428 417
f 426 414 421
f 408 435 417
f 419 426 422
f 419 432 426
f 423 424 429
f 439 415 205
f 413 432 433
f 363 205 415
f 205 244 439
f 429 424 412
f 437 432 425
f 406 431 404
f 422 426 421
f 438 434 428
f 435 438 428
f 290 403 440
f 370 442 427
f 423 429 432
f 418 429 412
f 426 432 429
f 445 433 441
f 290 440 258
f 415 442 370
f 429 418 420
f 435 445 438
f 433 445 435
f 431 434 430
f 430 434 443
f 434 431 428
f 404 431 411
f 432 441 433
f 437 441 432
f 438 443 434
f 421 425 422
f 445 448 438
f 394 265 446
f 242 427 366
f 443 438 449
f 448 449 438
f 442 450 427
f 365 383 447
f 454 441 437
f 437 425 421
f 449 444 443
f 445 441 448
f 444 449 451
f 441 449 448
f 449 441 455
f 453 431 430
f 443 444 453
f 410 313 366
f 421 454 437
f 366 427 450
f 451 456 444
f 441 457 455
f 454 457 441
f 454 421 458
f 449 459 451
f 455 459 449
f 443 453 430
f 411 447 383
f 455 457 459
f 460 456 451
f 258 440 439
f 459 460 451
f 459 463 460
f 244 258 439
f 415 439 465
f 450 442 464
f 458 462 454
f 456 461 466
f 415 465 442
f 452 411 431
f 463 461 460
f 454 462 457
f 460 461 456
f 462 459 457
f 458 421 467
f 453 452 431
f 468 463 459
f 462 468 459
f 458 472 462
f 444 456 469
f 410 366 471
f 366 450 471
f 456 466 469
f 466 461 470
f 470 461 463
f 465 474 442
f 365 447 397
f 463 468 473
f 447 411 452
f 473 468 462
f 471 450 464
f 472 473 462
f 470 463 473
f 403 365 397
f 453 444 469
f 473 476 470
f 474 464 442
f 479 466 470
f 466 477 469
f 458 467 472
f 473 478 476
f 439 440 480
f 465 439 480
f 479 477 466
f 421 394 475
f 465 480 474
f 467 421 475
f 474 481 464
f 472 467 483
f 473 472 483
f 484 453 469
f 482 471 464
f 464 481 482
f 452 453 485
f 470 476 479
f 446 265 410
f 486 476 478
f 410 471 482
f 403 480 440
f 446 475 394
f 482 488 410
f 480 481 474
f 397 447 487
f 493 473 483
f 479 476 489
f 477 484 469
f 491 481 480
f 480 403 491
f 486 478 497
f 453 484 490
f 478 473 493
f 477 479 492
f 494 497 478
f 488 482 496
f 403 397 491
f 498 482 481
f 485 453 490
f 478 493 494
f 479 495 492
f 488 446 410
f 491 498 481
f 476 486 489
f 498 496 482
f 484 477 492
f 495 479 489
f 447 452 499
f 499 452 485
f 493 483 501
f 498 502 496
f 504 491 397
f 500 488 496
f 495 489 503
f 491 504 498
f 397 487 504
f 446 488 500
f 500 496 502
f 492 505 484
f 492 495 505
f 475 446 500
f 487 447 499
f 493 501 494
f 494 506 497
f 485 490 507
f 467 509 483
f 506 494 501
f 504 502 498
f 489 486 503
f 487 508 504
f 486 497 510
f 467 475 509
f 499 508 487
f 505 495 503
f 499 485 507
f 486 510 503
f 508 502 504
f 500 502 511
f 484 505 517
f 507 490 484
f 484 517 512
f 483 513 501
f 506 501 513
f 508 499 515
f 502 508 511
f 516 500 511
f 506 510 497
f 475 500 516
f 507 484 512
f 505 503 517
f 515 511 508
f 517 503 514
f 503 510 514
f 507 515 499
f 509 475 520
f 511 515 516
f 506 518 510
f 519 507 512
f 475 516 520
f 510 518 514
f 515 507 519
f 506 513 518
f 513 483 509
f 517 514 521
f 515 522 516
f 522 515 519
f 520 516 522
f 518 513 523
f 512 517 524
f 512 524 519
f 523 513 526
f 526 509 520
f 521 514 518
f 518 523 525
f 524 522 519
f 513 509 526
f 524 517 521
f 521 522 524
f 526 520 522
f 522 521 518
f 525 522 518
f 526 522 525
f 523 526 525
f 39 70 34
f 17 29 31
f 18 52 27
f 30 76 39
f 7 3 2
f 33 36 28
f 8 7 2
f 59 61 35
f 9 18 27
f 31 29 47
f 34 53 59
f 30 39 34
f 8 2 5
f 35 54 33
f 13 8 5
f 30 34 59
f 28 13 5
f 30 59 35
f 31 47 30
f 28 5 9
f 28 9 27
f 30 35 33
f 27 20 17
f 31 30 33
f 28 27 17
f 31 33 28
f 31 28 17
f 338 342 330
f 338 330 344
f 320 312 300
f 338 344 320
f 338 320 300
f 300 314 315
f 375 374 391
f 375 391 392
f 425 432 419
f 419 422 425

