# Created by Open3D 
# object name: part_044
# number of vertices: 162
# number of triangles: 320
v -1.54621 4.7551 0.935202
vn 0.309095 0.270393 -0.911783
v -1.52132 4.75081 0.947335
vn 0.664513 0.308473 -0.680637
v -1.54012 4.73228 0.933808
vn 0.453827 -0.114473 -0.883706
v -1.5726 4.73048 0.925501
vn 0.0791426 0.0584642 -0.995147
v -1.56374 4.75805 0.933444
vn -0.161983 0.531712 -0.83129
v -1.54383 4.77537 0.946988
vn 0.350403 0.647134 -0.677078
v -2.3977 3.9735 0.848695
vn -0.192459 -0.189995 -0.962737
v -2.37542 3.96554 0.848946
vn 0.174295 -0.371058 -0.912106
v -2.39676 3.94723 0.858394
vn -0.283753 -0.561952 -0.776978
v -1.95798 4.34612 0.918648
vn 0.676398 -0.73653 -0.00317357
v -1.56181 4.70988 0.969163
vn 0.676496 -0.736442 0.00258011
v -1.95993 4.34448 0.952637
vn 0.675669 -0.737143 0.00954826
v -1.54525 4.73385 1.5006
vn 0.73389 -0.679067 0.0165395
v -1.54053 4.7398 1.50115
vn 0.985005 0.158522 0.0680903
v -1.57599 4.71324 2.00074
vn 0.772452 -0.634639 0.0234908
v -1.5706 4.7615 1.50021
vn -0.612736 0.790276 -0.00423062
v -1.54979 4.77454 1.02276
vn -0.650237 0.759686 -0.00827906
v -1.6091 4.73365 1.97592
vn -0.650286 0.759653 -0.00747784
v -1.89662 4.45586 0.927172
vn -0.674706 0.737696 -0.0240117
v -2.36152 4.0284 0.86473
vn -0.673446 0.737969 -0.0432763
v -2.38201 4.0105 0.888129
vn -0.675447 0.737182 -0.0182975
v -2.46777 3.9252 1.97476
vn -0.309099 -0.270396 0.911781
v -2.4655 3.89985 1.96305
vn -0.374729 -0.624663 0.685109
v -2.44558 3.91717 1.97659
vn 0.0620568 -0.448425 0.891664
v -2.44109 3.94949 1.98447
vn -0.0791423 -0.0584642 0.995147
v -2.4692 3.94294 1.97623
vn -0.527241 0.220315 0.820657
v -2.488 3.92441 1.9627
vn -0.68466 -0.282416 0.671924
v -2.02475 4.30009 1.9918
vn 0.674706 -0.737696 0.0240121
v -2.42089 3.93629 1.94128
vn 0.674691 -0.737875 0.0182605
v -2.02248 4.30137 1.95781
vn 0.67556 -0.737218 0.0112928
v -1.61628 4.7068 2.06127
vn 0.192458 0.189995 0.962736
v -1.61029 4.68391 2.06145
vn 0.341591 -0.19184 0.920061
v -1.59006 4.70343 2.05199
vn 0.573532 0.245767 0.781447
v -1.9634 4.40983 2.00032
vn -0.676398 0.73653 0.00317211
v -1.67389 4.67528 2.0449
vn -0.677026 0.735601 0.0229436
v -1.65394 4.69378 2.0215
vn -0.675566 0.737296 -0.00242459
v -2.46407 3.94137 1.40944
vn -0.73389 0.679067 -0.0165395
v -2.48559 3.92911 1.88687
vn -0.700212 0.713825 -0.0125501
v -2.42628 3.96999 0.933714
vn -0.700163 0.713858 -0.0133516
v -2.43873 3.91371 1.40983
vn 0.61274 -0.790273 0.00423121
v -2.44506 3.90952 1.40925
vn -0.242728 -0.968439 -0.0566414
v -2.40848 3.93485 0.90968
vn 0.565233 -0.824927 -0.00285745
v -1.52374 4.74611 1.02316
vn 0.700211 -0.713826 0.0125499
v -1.51375 4.75614 1.00058
vn 0.772774 -0.634419 0.0182278
v -2.33543 3.99994 0.865133
vn 0.67704 -0.735597 -0.0226735
v -1.57915 4.69414 0.941967
vn 0.677561 -0.735119 -0.0226156
v -2.39904 3.99131 0.848581
vn -0.422801 0.292305 -0.857786
v -2.37015 3.99839 0.844473
vn 0.0449179 0.0270524 -0.998624
v -1.58844 4.73893 0.968753
vn -0.674577 0.737977 -0.0183094
v -1.60524 4.72261 0.941565
vn -0.672879 0.73846 -0.0437112
v -1.56427 4.7657 1.50078
vn 0.0699464 0.996439 0.0470915
v -1.53861 4.78327 1.0002
vn -0.5649 0.825156 -0.00240392
v -2.35538 3.98144 0.88854
vn 0.675672 -0.737198 0.00249532
v -1.58305 4.70523 1.97632
vn 0.700163 -0.713858 0.0133515
v -1.60084 4.74037 2.00036
vn -0.565224 0.824933 0.00285794
v -1.89782 4.45558 0.961267
vn -0.67556 0.737218 -0.0112929
v -2.41927 3.97179 0.858047
vn -0.594741 -0.220439 -0.773104
v -2.45953 3.90068 1.88727
vn 0.650235 -0.759688 0.00827905
v -2.47071 3.89195 1.90984
vn 0.5649 -0.825156 0.00240422
v -1.64781 4.64682 2.04531
vn 0.673447 -0.737954 0.0435043
v -2.40409 3.95261 1.96847
vn 0.672925 -0.738433 0.0434483
v -1.63391 4.70968 2.06109
vn -0.266423 0.459726 0.847155
v -1.64353 4.68159 2.0655
vn -0.0449181 -0.0270523 0.998624
v -2.44752 3.96534 1.94087
vn -0.676422 0.736509 -0.00261352
v -2.43017 3.98108 1.96807
vn -0.677532 0.735152 0.0223983
v -2.46879 3.93542 1.40889
vn -0.997982 0.0161629 -0.0614054
v -2.49557 3.91908 1.90946
vn -0.77278 0.634412 -0.0182284
v -2.40022 3.94157 0.934116
vn 0.650286 -0.759653 0.00747756
v -1.62731 4.66472 2.02191
vn 0.675516 -0.737118 0.0183429
v -1.61256 4.72799 2.05164
vn 0.260489 0.585151 0.767947
v -1.96036 4.41246 1.96644
vn -0.675669 0.737143 -0.00954832
v -2.43334 3.96198 0.909297
vn -0.772449 0.634642 -0.0234904
v -1.53615 4.73385 0.989453
vn 0.683992 -0.729423 0.00990092
v -1.54106 4.72929 0.954967
vn 0.686978 -0.726527 -0.0148286
v -1.52179 4.74763 0.974323
vn 0.707479 -0.70671 -0.00577223
v -2.36091 3.97731 0.853984
vn 0.675783 -0.731768 -0.0885008
v -2.33598 4.00163 0.84739
vn 0.317443 -0.251087 -0.914432
v -1.95696 4.34793 0.892182
vn 0.678424 -0.72905 -0.0907003
v -2.38612 4.00482 0.853595
vn -0.668374 0.73571 -0.109576
v -1.89848 4.45252 0.900306
vn -0.665846 0.73772 -0.111436
v -2.35963 4.02743 0.847026
vn -0.322637 0.438272 -0.838942
v -1.56261 4.76272 0.989045
vn -0.66715 0.744843 -0.0109384
v -1.54742 4.77559 0.973927
vn -0.642257 0.766028 -0.0265897
v -1.5671 4.75769 0.954565
vn -0.663656 0.747187 -0.0356668
v -1.55312 4.75707 1.50111
vn 0.734639 0.67434 0.0746358
v -1.51049 4.76146 1.00044
vn 0.827632 0.558401 0.0566849
v -1.53303 4.78605 1.00009
vn 0.61042 0.790285 0.0532599
v -2.38339 3.95615 0.903378
vn 0.667319 -0.744727 0.00820674
v -2.39653 3.94469 0.885453
vn 0.644671 -0.764363 -0.012153
v -2.3747 3.96407 0.870273
vn 0.666924 -0.744935 -0.0168721
v -1.59947 4.6902 2.00707
vn 0.683821 -0.72954 0.0126329
v -1.62367 4.66711 1.9727
vn 0.67602 -0.736806 0.0106432
v -1.56562 4.71391 1.49848
vn 0.683704 -0.729673 0.011246
v -1.6054 4.73584 2.03389
vn -0.155893 0.958023 0.240604
v -1.59376 4.72733 2.03695
vn 0.667892 0.617976 0.414761
v -1.59533 4.7431 2.00139
vn 0.608109 0.788703 0.0902874
v -1.92879 4.4344 1.46389
vn -0.675615 0.737181 -0.0104205
v -1.65056 4.69645 1.97229
vn -0.675098 0.737658 -0.0101863
v -1.59118 4.73738 1.01805
vn -0.675076 0.737673 -0.0105476
v -2.42796 3.9656 0.875777
vn -0.937323 0.234817 -0.257463
v -2.42216 3.97265 0.885058
vn -0.705072 0.708369 -0.0329712
v -2.41329 3.9796 0.859862
vn -0.709488 0.698062 -0.0966221
v -2.44671 3.9125 1.92099
vn 0.667149 -0.744844 0.010939
v -2.44223 3.91753 1.95547
vn 0.663657 -0.747187 0.0356623
v -2.46191 3.89963 1.93611
vn 0.642257 -0.766028 0.0265901
v -1.6232 4.6704 2.05644
vn 0.668815 -0.735358 0.109247
v -1.6497 4.64779 2.06301
vn 0.209587 -0.323969 0.92256
v -2.02703 4.29963 2.01824
vn 0.665847 -0.73772 0.111434
v -1.64842 4.69791 2.05605
vn -0.675223 0.73234 0.0880416
v -1.96855 4.40422 2.02637
vn -0.678424 0.72905 0.0907003
v -1.67334 4.67359 2.06265
vn -0.389644 0.335928 0.857514
v -2.47317 3.94137 1.92058
vn -0.683991 0.729423 -0.00990098
v -2.48753 3.92759 1.93571
vn -0.70748 0.70671 0.00577187
v -2.46826 3.94593 1.95507
vn -0.686977 0.726527 0.0148312
v -2.46117 3.92356 1.40885
vn -0.73464 -0.674339 -0.0746359
v -2.4763 3.88917 1.90994
vn -0.627507 -0.776764 -0.0535983
v -2.49883 3.91376 1.9096
vn -0.839617 -0.540201 -0.0567949
v -2.35877 3.97877 0.937746
vn 0.675209 -0.737556 0.0101981
v -2.41712 3.9323 1.41197
vn 0.667441 -0.7446 0.00959382
v -1.58717 4.70257 2.02498
vn 0.70507 -0.70837 0.0329741
v -1.60859 4.68274 2.04016
vn 0.683711 -0.728779 0.0377053
v -1.61279 4.73053 2.02458
vn -0.644669 0.764366 0.0121548
v -1.62084 4.72269 2.04979
vn -0.634915 0.768847 0.0758827
v -2.38566 4.00811 0.937331
vn -0.675948 0.736872 -0.0106355
v -2.44503 3.96718 1.89157
vn -0.675971 0.736857 -0.0102756
v -2.42045 3.95322 0.873012
vn -0.667892 -0.617977 -0.414759
v -2.43652 3.95671 0.9083
vn -0.837314 -0.538612 -0.0938228
v -1.51493 4.75541 0.966466
vn 0.979626 -0.0481752 -0.194964
v -1.52743 4.7429 0.947723
vn 0.719689 -0.69103 -0.067273
v -1.55348 4.71846 0.936014
vn 0.681086 -0.726899 -0.0879739
v -1.57884 4.69663 0.924312
vn 0.323851 -0.245205 -0.913781
v -1.97154 4.36486 0.882766
vn 0.0620471 0.0427698 -0.997156
v -1.60249 4.72243 0.923948
vn -0.282315 0.409908 -0.867337
v -1.5787 4.74597 0.935625
vn -0.663016 0.740754 -0.108132
v -1.55224 4.76997 0.94734
vn -0.624714 0.775878 -0.0880099
v -1.53896 4.78163 0.966096
vn -0.130008 0.975868 -0.175444
v -1.52698 4.77336 0.963785
vn 0.710796 0.647545 -0.274689
v -2.38848 3.95253 0.860244
vn 0.634914 -0.768847 -0.0758809
v -1.56429 4.70804 1.01846
vn 0.676043 -0.73679 0.0102828
v -1.5728 4.71851 2.00174
vn 0.825309 0.556803 0.0940008
v -1.59221 4.74292 1.49807
vn -0.667442 0.7446 -0.00959388
v -2.40074 3.99248 0.869871
vn -0.683711 0.728778 -0.0377032
v -2.47037 3.89358 1.94394
vn -0.0400747 -0.976997 0.209455
v -2.45708 3.90524 1.9627
vn 0.624711 -0.77588 0.0880103
v -2.43062 3.92925 1.97441
vn 0.663512 -0.740226 0.108706
v -2.40684 3.95279 1.98609
vn 0.203177 -0.32985 0.92191
v -2.04275 4.31577 2.02719
vn -0.0620471 -0.0427698 0.997156
v -2.43048 3.97859 1.98572
vn -0.42629 0.366822 0.826873
v -2.45584 3.95676 1.97402
vn -0.680691 0.72722 0.0883758
v -2.48189 3.93232 1.96231
vn -0.719687 0.691032 0.0672756
v -2.4944 3.9198 1.94357
vn -0.963211 0.216968 0.158584
v -2.48723 3.90719 1.94618
vn -0.710795 -0.647546 0.274691
v -2.41814 3.93784 1.89199
vn 0.675186 -0.737572 0.0105584
v -1.59603 4.69562 2.05017
vn 0.709487 -0.698064 0.096618
v -1.63462 4.71115 2.03976
vn -0.666925 0.744934 0.0168737
v -2.44371 3.96131 1.41156
vn -0.683705 0.729671 -0.0112462
v -2.41399 3.93212 0.908647
vn -0.625186 -0.775162 -0.0909144
v -2.40393 3.93938 0.876148
vn -0.00866049 -0.955344 -0.29537
v -1.99115 4.32287 1.45523
vn 0.675615 -0.737181 0.0104206
v -1.58137 4.70962 2.03426
vn 0.948214 -0.0698298 0.309863
v -1.62593 4.71907 2.00666
vn -0.667319 0.744727 -0.00820718
v -2.40985 3.98502 0.902969
vn -0.683824 0.729538 -0.0126331
f 1//1 2//2 3//3
f 1//1 3//3 4//4
f 1//1 4//4 5//5
f 1//1 5//5 6//6
f 1//1 6//6 2//2
f 7//7 8//8 9//9
f 10//10 11//11 12//12
f 13//13 14//14 15//15
f 16//16 17//17 18//18
f 19//19 20//20 21//21
f 22//22 23//23 24//24
f 22//22 24//24 25//25
f 22//22 25//25 26//26
f 22//22 26//26 27//27
f 22//22 27//27 23//23
f 28//28 29//29 30//30
f 31//31 32//32 33//33
f 34//34 35//35 36//36
f 37//37 38//38 39//39
f 40//40 41//41 42//42
f 13//13 43//43 44//44
f 10//10 45//45 46//46
f 7//7 47//47 48//48
f 19//19 49//49 50//50
f 16//16 51//51 52//52
f 10//10 53//53 45//45
f 13//13 54//54 43//43
f 16//16 55//55 51//51
f 19//19 56//56 49//49
f 7//7 57//57 47//47
f 40//40 58//58 59//59
f 28//28 60//60 61//61
f 31//31 62//62 63//63
f 34//34 64//64 65//65
f 37//37 66//66 67//67
f 40//40 68//68 58//58
f 28//28 69//69 60//60
f 31//31 70//70 62//62
f 34//34 71//71 64//64
f 37//37 72//72 66//66
f 10//10 46//46 11//11
f 7//7 48//48 8//8
f 19//19 50//50 20//20
f 16//16 52//52 17//17
f 13//13 44//44 14//14
f 40//40 42//42 68//68
f 28//28 30//30 69//69
f 31//31 33//33 70//70
f 34//34 36//36 71//71
f 37//37 39//39 72//72
f 28//28 61//61 29//29
f 31//31 63//63 32//32
f 34//34 65//65 35//35
f 37//37 67//67 38//38
f 40//40 59//59 41//41
f 10//10 12//12 53//53
f 13//13 15//15 54//54
f 16//16 18//18 55//55
f 19//19 21//21 56//56
f 7//7 9//9 57//57
f 73//73 74//74 75//75
f 76//76 77//77 78//78
f 79//79 80//80 81//81
f 82//82 83//83 84//84
f 85//85 86//86 87//87
f 88//88 89//89 90//90
f 91//91 92//92 93//93
f 94//94 95//95 96//96
f 97//97 98//98 99//99
f 100//100 101//101 102//102
f 103//103 104//104 105//105
f 106//106 107//107 108//108
f 109//109 110//110 111//111
f 112//112 113//113 114//114
f 115//115 116//116 117//117
f 88//88 118//118 119//119
f 91//91 120//120 121//121
f 94//94 122//122 123//123
f 97//97 124//124 125//125
f 100//100 126//126 127//127
f 128//128 129//129 2//2
f 130//130 131//131 3//3
f 132//132 133//133 4//4
f 134//134 135//135 5//5
f 136//136 137//137 6//6
f 76//76 138//138 8//8
f 73//73 139//139 11//11
f 85//85 140//140 14//14
f 82//82 141//141 17//17
f 79//79 142//142 20//20
f 143//143 144//144 23//23
f 145//145 146//146 24//24
f 147//147 148//148 25//25
f 149//149 150//150 26//26
f 151//151 152//152 27//27
f 103//103 153//153 29//29
f 106//106 154//154 32//32
f 109//109 155//155 35//35
f 112//112 156//156 38//38
f 115//115 157//157 41//41
f 73//73 75//75 43//43
f 76//76 78//78 45//45
f 79//79 81//81 47//47
f 82//82 84//84 49//49
f 85//85 87//87 51//51
f 88//88 90//90 53//53
f 91//91 93//93 54//54
f 94//94 96//96 55//55
f 97//97 99//99 56//56
f 100//100 102//102 57//57
f 103//103 105//105 58//58
f 106//106 108//108 60//60
f 109//109 111//111 62//62
f 112//112 114//114 64//64
f 115//115 117//117 66//66
f 88//88 119//119 68//68
f 91//91 121//121 69//69
f 94//94 123//123 70//70
f 97//97 125//125 71//71
f 100//100 127//127 72//72
f 130//130 74//74 46//46
f 132//132 77//77 48//48
f 134//134 80//80 50//50
f 136//136 83//83 52//52
f 128//128 86//86 44//44
f 158//158 89//89 42//42
f 159//159 92//92 30//30
f 160//160 95//95 33//33
f 161//161 98//98 36//36
f 162//162 101//101 39//39
f 145//145 104//104 61//61
f 147//147 107//107 63//63
f 149//149 110//110 65//65
f 151//151 113//113 67//67
f 143//143 116//116 59//59
f 159//159 118//118 12//12
f 160//160 120//120 15//15
f 161//161 122//122 18//18
f 162//162 124//124 21//21
f 158//158 126//126 9//9
f 130//130 129//129 74//74
f 132//132 131//131 77//77
f 134//134 133//133 80//80
f 136//136 135//135 83//83
f 128//128 137//137 86//86
f 158//158 138//138 89//89
f 159//159 139//139 92//92
f 160//160 140//140 95//95
f 161//161 141//141 98//98
f 162//162 142//142 101//101
f 145//145 144//144 104//104
f 147//147 146//146 107//107
f 149//149 148//148 110//110
f 151//151 150//150 113//113
f 143//143 152//152 116//116
f 159//159 153//153 118//118
f 160//160 154//154 120//120
f 161//161 155//155 122//122
f 162//162 156//156 124//124
f 158//158 157//157 126//126
f 130//130 3//3 129//129
f 132//132 4//4 131//131
f 134//134 5//5 133//133
f 136//136 6//6 135//135
f 128//128 2//2 137//137
f 158//158 9//9 138//138
f 159//159 12//12 139//139
f 160//160 15//15 140//140
f 161//161 18//18 141//141
f 162//162 21//21 142//142
f 145//145 24//24 144//144
f 147//147 25//25 146//146
f 149//149 26//26 148//148
f 151//151 27//27 150//150
f 143//143 23//23 152//152
f 159//159 30//30 153//153
f 160//160 33//33 154//154
f 161//161 36//36 155//155
f 162//162 39//39 156//156
f 158//158 42//42 157//157
f 128//128 44//44 75//75
f 130//130 46//46 78//78
f 132//132 48//48 81//81
f 134//134 50//50 84//84
f 136//136 52//52 87//87
f 76//76 45//45 90//90
f 73//73 43//43 93//93
f 85//85 51//51 96//96
f 82//82 49//49 99//99
f 79//79 47//47 102//102
f 143//143 59//59 105//105
f 145//145 61//61 108//108
f 147//147 63//63 111//111
f 149//149 65//65 114//114
f 151//151 67//67 117//117
f 103//103 58//58 119//119
f 106//106 60//60 121//121
f 109//109 62//62 123//123
f 112//112 64//64 125//125
f 115//115 66//66 127//127
f 73//73 11//11 74//74
f 76//76 8//8 77//77
f 79//79 20//20 80//80
f 82//82 17//17 83//83
f 85//85 14//14 86//86
f 88//88 68//68 89//89
f 91//91 69//69 92//92
f 94//94 70//70 95//95
f 97//97 71//71 98//98
f 100//100 72//72 101//101
f 103//103 29//29 104//104
f 106//106 32//32 107//107
f 109//109 35//35 110//110
f 112//112 38//38 113//113
f 115//115 41//41 116//116
f 88//88 53//53 118//118
f 91//91 54//54 120//120
f 94//94 55//55 122//122
f 97//97 56//56 124//124
f 100//100 57//57 126//126
f 128//128 75//75 129//129
f 130//130 78//78 131//131
f 132//132 81//81 133//133
f 134//134 84//84 135//135
f 136//136 87//87 137//137
f 76//76 90//90 138//138
f 73//73 93//93 139//139
f 85//85 96//96 140//140
f 82//82 99//99 141//141
f 79//79 102//102 142//142
f 143//143 105//105 144//144
f 145//145 108//108 146//146
f 147//147 111//111 148//148
f 149//149 114//114 150//150
f 151//151 117//117 152//152
f 103//103 119//119 153//153
f 106//106 121//121 154//154
f 109//109 123//123 155//155
f 112//112 125//125 156//156
f 115//115 127//127 157//157
f 129//129 3//3 2//2
f 131//131 4//4 3//3
f 133//133 5//5 4//4
f 135//135 6//6 5//5
f 137//137 2//2 6//6
f 138//138 9//9 8//8
f 139//139 12//12 11//11
f 140//140 15//15 14//14
f 141//141 18//18 17//17
f 142//142 21//21 20//20
f 144//144 24//24 23//23
f 146//146 25//25 24//24
f 148//148 26//26 25//25
f 150//150 27//27 26//26
f 152//152 23//23 27//27
f 153//153 30//30 29//29
f 154//154 33//33 32//32
f 155//155 36//36 35//35
f 156//156 39//39 38//38
f 157//157 42//42 41//41
f 75//75 44//44 43//43
f 78//78 46//46 45//45
f 81//81 48//48 47//47
f 84//84 50//50 49//49
f 87//87 52//52 51//51
f 90//90 45//45 53//53
f 93//93 43//43 54//54
f 96//96 51//51 55//55
f 99//99 49//49 56//56
f 102//102 47//47 57//57
f 105//105 59//59 58//58
f 108//108 61//61 60//60
f 111//111 63//63 62//62
f 114//114 65//65 64//64
f 117//117 67//67 66//66
f 119//119 58//58 68//68
f 121//121 60//60 69//69
f 123//123 62//62 70//70
f 125//125 64//64 71//71
f 127//127 66//66 72//72
f 74//74 11//11 46//46
f 77//77 8//8 48//48
f 80//80 20//20 50//50
f 83//83 17//17 52//52
f 86//86 14//14 44//44
f 89//89 68//68 42//42
f 92//92 69//69 30//30
f 95//95 70//70 33//33
f 98//98 71//71 36//36
f 101//101 72//72 39//39
f 104//104 29//29 61//61
f 107//107 32//32 63//63
f 110//110 35//35 65//65
f 113//113 38//38 67//67
f 116//116 41//41 59//59
f 118//118 53//53 12//12
f 120//120 54//54 15//15
f 122//122 55//55 18//18
f 124//124 56//56 21//21
f 126//126 57//57 9//9
f 129//129 75//75 74//74
f 131//131 78//78 77//77
f 133//133 81//81 80//80
f 135//135 84//84 83//83
f 137//137 87//87 86//86
f 138//138 90//90 89//89
f 139//139 93//93 92//92
f 140//140 96//96 95//95
f 141//141 99//99 98//98
f 142//142 102//102 101//101
f 144//144 105//105 104//104
f 146//146 108//108 107//107
f 148//148 111//111 110//110
f 150//150 114//114 113//113
f 152//152 117//117 116//116
f 153//153 119//119 118//118
f 154//154 121//121 120//120
f 155//155 123//123 122//122
f 156//156 125//125 124//124
f 157//157 127//127 126//126
