# Created by Open3D 
# object name: part_046
# number of vertices: 162
# number of triangles: 320
v -1.00949 4.43078 1.10188
vn -0.761715 -0.55758 -0.329992
v -0.992447 4.41835 1.09181
vn -0.5311 -0.552056 -0.64278
v -0.99748 4.41363 1.10865
vn -0.625451 -0.756469 -0.191222
v -1.01265 4.42817 1.12447
vn -0.806646 -0.590747 -0.018424
v -1.01813 4.44183 1.10867
vn -0.943409 -0.274757 -0.185709
v -1.01213 4.44523 1.09183
vn -0.695507 -0.319126 -0.643762
v -1.00672 4.43221 1.81475
vn -0.759126 -0.556242 0.338116
v -0.994771 4.41503 1.80796
vn -0.623939 -0.755685 0.199096
v -0.989609 4.41982 1.82474
vn -0.526097 -0.549468 0.649082
v -0.981593 4.42225 1.45823
vn 0.572386 -0.819984 -0.000575038
v -0.977909 4.42519 1.12601
vn 0.580178 -0.814488 -0.0015286
v -0.964945 4.43414 1.45814
vn 0.589681 -0.807636 -0.000666797
v -0.723023 4.61307 1.08283
vn 0.585066 -0.799841 -0.133986
v -0.723743 4.61402 1.0782
vn 0.217897 -0.304282 -0.927326
v -0.480393 4.79121 1.08101
vn 0.578179 -0.78379 -0.226676
v -0.745185 4.64334 1.08285
vn -0.5861 0.799309 -0.132634
v -0.9769 4.47428 1.0912
vn -0.590709 0.80504 -0.0545296
v -0.514039 4.81327 1.08873
vn -0.58963 0.80583 -0.0545334
v -1.00513 4.45385 1.38463
vn -0.609024 0.793151 0.000770398
v -1.01073 4.44896 1.77488
vn -0.634189 0.773177 0.00144004
v -0.998623 4.45832 1.79042
vn -0.601372 0.798967 0.00148363
v -0.459897 4.83269 1.81183
vn 0.761715 0.55758 0.329993
v -0.45318 4.81268 1.82187
vn 0.687101 0.339046 0.642604
v -0.447177 4.81607 1.80504
vn 0.910099 0.367799 0.190901
v -0.456474 4.83494 1.78924
vn 0.806646 0.590747 0.0184243
v -0.467832 4.84428 1.80506
vn 0.546794 0.816309 0.186162
v -0.472864 4.83956 1.82189
vn 0.514648 0.566076 0.643969
v -0.460463 4.80391 1.45545
vn 0.609022 -0.793153 -0.000770441
v -0.464115 4.80092 1.78767
vn 0.601434 -0.798923 0.000182094
v -0.476823 4.79162 1.45554
vn 0.592032 -0.805914 -0.000679413
v -0.462658 4.83126 1.09896
vn 0.759127 0.556241 -0.338115
v -0.449885 4.81467 1.10572
vn 0.908589 0.367015 -0.199416
v -0.456018 4.81121 1.08895
vn 0.6821 0.336457 -0.649259
v -0.484003 4.83551 1.38185
vn -0.572384 0.819986 0.00057501
v -0.477393 4.84009 1.13885
vn -0.545073 0.838389 -0.000197333
v -0.489976 4.83139 1.12331
vn -0.580104 0.814542 -0.000538358
v -0.742288 4.64483 1.83088
vn -0.585066 0.799841 0.133986
v -0.511197 4.81474 1.82253
vn -0.589203 0.806052 0.0558648
v -0.974059 4.47575 1.825
vn -0.590282 0.805261 0.0558731
v -0.720126 4.61457 1.83085
vn 0.5861 -0.799309 0.132633
v -0.72081 4.61554 1.83548
vn 0.225076 -0.300569 0.926822
v -0.963178 4.43701 1.83267
vn 0.572952 -0.788002 0.225343
v -0.954115 4.44317 1.09118
vn 0.589203 -0.806052 -0.0558648
v -0.966078 4.43551 1.0836
vn 0.571199 -0.788903 -0.226638
v -0.987918 4.41781 1.77485
vn 0.545439 -0.83815 0.000142158
v -0.99037 4.41655 1.14169
vn 0.545431 -0.838155 -0.00101131
v -1.01543 4.44323 1.80798
vn -0.94194 -0.27399 0.194111
v -1.01006 4.42951 1.79219
vn -0.80647 -0.590656 0.0270367
v -1.0012 4.45699 1.12604
vn -0.601517 0.79886 -0.000423996
v -1.01318 4.4477 1.14171
vn -0.634819 0.772661 0.000281519
v -0.744501 4.64237 1.07823
vn -0.300238 0.403653 -0.864246
v -0.987819 4.4652 1.08363
vn -0.579931 0.782891 -0.225304
v -0.975336 4.42652 1.7904
vn 0.580187 -0.814483 0.000295608
v -0.491253 4.78216 1.08871
vn 0.590282 -0.805261 -0.0558727
v -0.502134 4.8209 1.08103
vn -0.572952 0.788002 -0.225343
v -0.988777 4.46613 1.38363
vn -0.592032 0.805914 0.000679383
v -1.00929 4.44669 1.82476
vn -0.690494 -0.316537 0.650402
v -0.488411 4.78363 1.8225
vn 0.590709 -0.80504 0.0545296
v -0.477492 4.79271 1.83008
vn 0.579932 -0.782891 0.225303
v -0.45458 4.80894 1.13883
vn 0.634479 -0.772939 -0.0014866
v -0.452128 4.81021 1.77199
vn 0.634479 -0.77294 -0.000332953
v -0.47054 4.84288 1.10575
vn 0.545319 0.815551 -0.19366
v -0.459059 4.83361 1.12152
vn 0.80647 0.590656 -0.0270363
v -0.487403 4.83272 1.78769
vn -0.580231 0.814451 0.00137073
v -0.474941 4.84136 1.77202
vn -0.545748 0.837949 0.000967949
v -0.741569 4.64388 1.8355
vn -0.293544 0.407118 0.86492
v -0.499233 4.8224 1.8301
vn -0.571199 0.788903 0.226637
v -0.951273 4.44464 1.82497
vn 0.58963 -0.80583 0.0545334
v -0.466688 4.79959 1.12328
vn 0.601424 -0.798929 -0.00164197
v -0.475703 4.83809 1.08897
vn 0.509631 0.563487 -0.6502
v -0.500655 4.82362 1.38102
vn -0.589681 0.807636 0.000666793
v -0.984918 4.4667 1.8327
vn -0.578179 0.78379 0.226676
v -0.969541 4.43149 1.1035
vn 0.588842 -0.808022 -0.0191127
v -0.986114 4.41974 1.10928
vn 0.554676 -0.831758 -0.0226581
v -0.977971 4.42609 1.09203
vn 0.56279 -0.823639 -0.0699078
v -0.992365 4.41534 1.79628
vn 0.45116 -0.892424 0.00585694
v -0.99757 4.41298 1.77526
vn -0.636277 -0.771414 0.00848771
v -0.994987 4.41358 1.4583
vn 0.447515 -0.894276 5.69465e-05
v -1.01442 4.44545 1.79631
vn -0.71511 0.698983 0.00632369
v -1.01742 4.4437 1.38816
vn -0.717538 0.696518 0.00138453
v -1.01825 4.44122 1.77528
vn -0.967409 -0.253071 0.00869983
v -0.992679 4.46309 1.10353
vn -0.592667 0.805251 -0.0177668
v -1.00038 4.45669 1.09206
vn -0.615459 0.785181 -0.0685691
v -1.00888 4.45083 1.10931
vn -0.62561 0.779845 -0.0213116
v -0.736298 4.63116 1.07675
vn -0.00387273 -0.00200166 -0.99999
v -0.967386 4.43669 1.07993
vn 0.034761 -0.0873957 -0.995567
v -0.987093 4.4636 1.07996
vn -0.0815381 0.0715953 -0.994095
v -0.966794 4.43291 1.81281
vn 0.588985 -0.807948 0.0177851
v -0.975135 4.42756 1.82437
vn 0.563324 -0.823363 0.068848
v -0.983411 4.42114 1.80721
vn 0.55485 -0.831668 0.0216902
v -0.475379 4.7934 1.10086
vn 0.592525 -0.805325 -0.0191325
v -0.490491 4.78192 1.12303
vn 0.591096 -0.8066 -0.00159693
v -0.722409 4.61236 1.1004
vn 0.590692 -0.806681 -0.0186688
v -0.48534 4.83243 1.08334
vn -0.160299 0.682647 -0.71295
v -0.475671 4.82195 1.08145
vn 0.281328 0.206819 -0.93706
v -0.500855 4.8197 1.07736
vn -0.0505598 0.09428 -0.994261
v -0.744763 4.64494 1.38204
vn -0.590857 0.806776 0.000673121
v -0.514007 4.81403 1.12306
vn -0.590617 0.806952 -0.000495704
v -0.977396 4.47466 1.12553
vn -0.591105 0.806595 -0.000493133
v -1.00099 4.45417 1.83039
vn -0.601878 0.358068 0.713814
v -0.997546 4.45816 1.82439
vn -0.614921 0.785459 0.0701941
v -1.00979 4.44845 1.81873
vn -0.691948 0.715769 0.0942466
v -0.472632 4.79482 1.81018
vn 0.592667 -0.805251 0.0177673
v -0.45643 4.80708 1.8044
vn 0.625611 -0.779844 0.021312
v -0.464929 4.80122 1.82165
vn 0.615459 -0.78518 0.0685692
v -0.450894 4.81246 1.1174
vn 0.714683 -0.699412 -0.00718559
v -0.447063 4.81669 1.13842
vn 0.927454 0.373833 -0.0088197
v -0.448162 4.81406 1.45538
vn 0.717539 -0.696516 -0.00138449
v -0.472946 4.84257 1.11742
vn -0.451925 0.892028 -0.00708363
v -0.470596 4.84418 1.38524
vn -0.447516 0.894276 -5.69305e-05
v -0.467742 4.84492 1.13845
vn 0.567475 0.823348 -0.00840936
v -0.495771 4.82642 1.8102
vn -0.588842 0.808022 0.0191127
v -0.48734 4.83182 1.82167
vn -0.56279 0.823639 0.0699078
v -0.479197 4.83817 1.80442
vn -0.554675 0.831758 0.0226581
v -0.733354 4.63268 1.83696
vn 0.00387293 0.0020013 0.99999
v -0.478219 4.79431 1.83375
vn 0.0736231 -0.0605961 0.995443
v -0.497925 4.82122 1.83377
vn -0.0428607 0.0982633 0.994237
v -0.951304 4.44388 1.79065
vn 0.590617 -0.806952 0.000250631
v -0.719648 4.61379 1.81328
vn 0.590831 -0.806609 0.0173233
v -0.467765 4.79975 1.08931
vn 0.614921 -0.785458 -0.0701942
v -0.459133 4.80568 1.10647
vn 0.62544 -0.779932 -0.0230386
v -0.490176 4.83035 1.08934
vn -0.563323 0.823363 -0.0688484
v -0.477221 4.83909 1.095
vn -0.473658 0.875793 -0.0929255
v -0.97482 4.47599 1.79067
vn -0.591096 0.8066 0.00143681
v -0.511431 4.81536 1.7882
vn -0.590612 0.806955 0.0014342
v -0.993911 4.44179 1.83226
vn -0.281327 -0.206819 0.93706
v -0.984163 4.46511 1.83637
vn -0.0738383 0.0755771 0.994402
v -0.982853 4.42398 1.08609
vn 0.0486927 -0.596071 -0.801454
v -0.990882 4.41738 1.09783
vn 0.472938 -0.876166 -0.0930778
v -0.994983 4.41398 1.1203
vn 0.451109 -0.89245 -0.00577772
v -1.00002 4.41172 1.14138
vn -0.636313 -0.771431 -0.000471317
v -1.0127 4.42841 1.45834
vn -0.806767 -0.590854 0.00430693
v -1.0207 4.43995 1.1414
vn -0.956239 -0.292586 -0.000275041
v -1.01703 4.44409 1.12033
vn -0.714104 0.700017 -0.00568352
v -1.01258 4.447 1.09786
vn -0.69267 0.715395 -0.0917501
v -1.00387 4.45268 1.08611
vn -0.607395 0.35521 -0.710562
v -0.996808 4.44029 1.08424
vn -0.288574 -0.210564 -0.934017
v -0.988091 4.41882 1.81871
vn 0.473659 -0.875792 0.0929247
v -0.95388 4.44255 1.12551
vn 0.59061 -0.806955 -0.00159433
v -0.481148 4.7928 1.07734
vn 0.0659122 -0.0645823 -0.995733
v -0.745664 4.64412 1.10043
vn -0.590831 0.806609 -0.017323
v -1.00618 4.45222 1.80724
vn -0.625441 0.779932 0.0230394
v -0.461442 4.80523 1.82759
vn 0.554222 -0.227172 0.800769
v -0.452731 4.8109 1.81585
vn 0.692669 -0.715396 0.0917488
v -0.448277 4.81381 1.79338
vn 0.714705 -0.699412 0.00444989
v -0.444608 4.81796 1.77231
vn 0.927489 0.373851 0.000139524
v -0.456955 4.83542 1.45537
vn 0.806767 0.590854 -0.004307
v -0.465287 4.84619 1.77233
vn 0.533241 0.845963 0.000688354
v -0.470328 4.84392 1.7934
vn -0.450579 0.892723 0.00491091
v -0.474429 4.84053 1.81587
vn -0.472938 0.876166 0.0930776
v -0.482458 4.83392 1.82762
vn -0.154786 0.685502 0.711427
v -0.472775 4.82345 1.82947
vn 0.288575 0.210564 0.934017
v -0.487915 4.78325 1.78817
vn 0.591103 -0.806596 0.000248043
v -0.455523 4.80946 1.09497
vn 0.69195 -0.715767 -0.0942486
v -0.4819 4.83677 1.1065
vn -0.55485 0.831668 -0.0216903
v -0.742903 4.64554 1.81331
vn -0.590692 0.806681 0.0186691
v -0.964457 4.4382 1.83635
vn 0.0424704 -0.0834074 0.99561
v -0.979971 4.42547 1.83036
vn 0.054897 -0.592849 0.80344
v -0.720838 4.61282 1.45684
vn 0.590857 -0.806776 -0.000673134
v -0.464325 4.80374 1.08332
vn 0.548006 -0.230384 -0.804123
v -0.498518 4.825 1.10089
vn -0.588985 0.807948 -0.0177851
v -0.989932 4.46451 1.81284
vn -0.592525 0.805325 0.0191331
f 1//1 2//2 3//3
f 1//1 3//3 4//4
f 1//1 4//4 5//5
f 1//1 5//5 6//6
f 1//1 6//6 2//2
f 7//7 8//8 9//9
f 10//10 11//11 12//12
f 13//13 14//14 15//15
f 16//16 17//17 18//18
f 19//19 20//20 21//21
f 22//22 23//23 24//24
f 22//22 24//24 25//25
f 22//22 25//25 26//26
f 22//22 26//26 27//27
f 22//22 27//27 23//23
f 28//28 29//29 30//30
f 31//31 32//32 33//33
f 34//34 35//35 36//36
f 37//37 38//38 39//39
f 40//40 41//41 42//42
f 13//13 43//43 44//44
f 10//10 45//45 46//46
f 7//7 47//47 48//48
f 19//19 49//49 50//50
f 16//16 51//51 52//52
f 10//10 53//53 45//45
f 13//13 54//54 43//43
f 16//16 55//55 51//51
f 19//19 56//56 49//49
f 7//7 57//57 47//47
f 40//40 58//58 59//59
f 28//28 60//60 61//61
f 31//31 62//62 63//63
f 34//34 64//64 65//65
f 37//37 66//66 67//67
f 40//40 68//68 58//58
f 28//28 69//69 60//60
f 31//31 70//70 62//62
f 34//34 71//71 64//64
f 37//37 72//72 66//66
f 10//10 46//46 11//11
f 7//7 48//48 8//8
f 19//19 50//50 20//20
f 16//16 52//52 17//17
f 13//13 44//44 14//14
f 40//40 42//42 68//68
f 28//28 30//30 69//69
f 31//31 33//33 70//70
f 34//34 36//36 71//71
f 37//37 39//39 72//72
f 28//28 61//61 29//29
f 31//31 63//63 32//32
f 34//34 65//65 35//35
f 37//37 67//67 38//38
f 40//40 59//59 41//41
f 10//10 12//12 53//53
f 13//13 15//15 54//54
f 16//16 18//18 55//55
f 19//19 21//21 56//56
f 7//7 9//9 57//57
f 73//73 74//74 75//75
f 76//76 77//77 78//78
f 79//79 80//80 81//81
f 82//82 83//83 84//84
f 85//85 86//86 87//87
f 88//88 89//89 90//90
f 91//91 92//92 93//93
f 94//94 95//95 96//96
f 97//97 98//98 99//99
f 100//100 101//101 102//102
f 103//103 104//104 105//105
f 106//106 107//107 108//108
f 109//109 110//110 111//111
f 112//112 113//113 114//114
f 115//115 116//116 117//117
f 88//88 118//118 119//119
f 91//91 120//120 121//121
f 94//94 122//122 123//123
f 97//97 124//124 125//125
f 100//100 126//126 127//127
f 128//128 129//129 2//2
f 130//130 131//131 3//3
f 132//132 133//133 4//4
f 134//134 135//135 5//5
f 136//136 137//137 6//6
f 76//76 138//138 8//8
f 73//73 139//139 11//11
f 85//85 140//140 14//14
f 82//82 141//141 17//17
f 79//79 142//142 20//20
f 143//143 144//144 23//23
f 145//145 146//146 24//24
f 147//147 148//148 25//25
f 149//149 150//150 26//26
f 151//151 152//152 27//27
f 103//103 153//153 29//29
f 106//106 154//154 32//32
f 109//109 155//155 35//35
f 112//112 156//156 38//38
f 115//115 157//157 41//41
f 73//73 75//75 43//43
f 76//76 78//78 45//45
f 79//79 81//81 47//47
f 82//82 84//84 49//49
f 85//85 87//87 51//51
f 88//88 90//90 53//53
f 91//91 93//93 54//54
f 94//94 96//96 55//55
f 97//97 99//99 56//56
f 100//100 102//102 57//57
f 103//103 105//105 58//58
f 106//106 108//108 60//60
f 109//109 111//111 62//62
f 112//112 114//114 64//64
f 115//115 117//117 66//66
f 88//88 119//119 68//68
f 91//91 121//121 69//69
f 94//94 123//123 70//70
f 97//97 125//125 71//71
f 100//100 127//127 72//72
f 130//130 74//74 46//46
f 132//132 77//77 48//48
f 134//134 80//80 50//50
f 136//136 83//83 52//52
f 128//128 86//86 44//44
f 158//158 89//89 42//42
f 159//159 92//92 30//30
f 160//160 95//95 33//33
f 161//161 98//98 36//36
f 162//162 101//101 39//39
f 145//145 104//104 61//61
f 147//147 107//107 63//63
f 149//149 110//110 65//65
f 151//151 113//113 67//67
f 143//143 116//116 59//59
f 159//159 118//118 12//12
f 160//160 120//120 15//15
f 161//161 122//122 18//18
f 162//162 124//124 21//21
f 158//158 126//126 9//9
f 130//130 129//129 74//74
f 132//132 131//131 77//77
f 134//134 133//133 80//80
f 136//136 135//135 83//83
f 128//128 137//137 86//86
f 158//158 138//138 89//89
f 159//159 139//139 92//92
f 160//160 140//140 95//95
f 161//161 141//141 98//98
f 162//162 142//142 101//101
f 145//145 144//144 104//104
f 147//147 146//146 107//107
f 149//149 148//148 110//110
f 151//151 150//150 113//113
f 143//143 152//152 116//116
f 159//159 153//153 118//118
f 160//160 154//154 120//120
f 161//161 155//155 122//122
f 162//162 156//156 124//124
f 158//158 157//157 126//126
f 130//130 3//3 129//129
f 132//132 4//4 131//131
f 134//134 5//5 133//133
f 136//136 6//6 135//135
f 128//128 2//2 137//137
f 158//158 9//9 138//138
f 159//159 12//12 139//139
f 160//160 15//15 140//140
f 161//161 18//18 141//141
f 162//162 21//21 142//142
f 145//145 24//24 144//144
f 147//147 25//25 146//146
f 149//149 26//26 148//148
f 151//151 27//27 150//150
f 143//143 23//23 152//152
f 159//159 30//30 153//153
f 160//160 33//33 154//154
f 161//161 36//36 155//155
f 162//162 39//39 156//156
f 158//158 42//42 157//157
f 128//128 44//44 75//75
f 130//130 46//46 78//78
f 132//132 48//48 81//81
f 134//134 50//50 84//84
f 136//136 52//52 87//87
f 76//76 45//45 90//90
f 73//73 43//43 93//93
f 85//85 51//51 96//96
f 82//82 49//49 99//99
f 79//79 47//47 102//102
f 143//143 59//59 105//105
f 145//145 61//61 108//108
f 147//147 63//63 111//111
f 149//149 65//65 114//114
f 151//151 67//67 117//117
f 103//103 58//58 119//119
f 106//106 60//60 121//121
f 109//109 62//62 123//123
f 112//112 64//64 125//125
f 115//115 66//66 127//127
f 73//73 11//11 74//74
f 76//76 8//8 77//77
f 79//79 20//20 80//80
f 82//82 17//17 83//83
f 85//85 14//14 86//86
f 88//88 68//68 89//89
f 91//91 69//69 92//92
f 94//94 70//70 95//95
f 97//97 71//71 98//98
f 100//100 72//72 101//101
f 103//103 29//29 104//104
f 106//106 32//32 107//107
f 109//109 35//35 110//110
f 112//112 38//38 113//113
f 115//115 41//41 116//116
f 88//88 53//53 118//118
f 91//91 54//54 120//120
f 94//94 55//55 122//122
f 97//97 56//56 124//124
f 100//100 57//57 126//126
f 128//128 75//75 129//129
f 130//130 78//78 131//131
f 132//132 81//81 133//133
f 134//134 84//84 135//135
f 136//136 87//87 137//137
f 76//76 90//90 138//138
f 73//73 93//93 139//139
f 85//85 96//96 140//140
f 82//82 99//99 141//141
f 79//79 102//102 142//142
f 143//143 105//105 144//144
f 145//145 108//108 146//146
f 147//147 111//111 148//148
f 149//149 114//114 150//150
f 151//151 117//117 152//152
f 103//103 119//119 153//153
f 106//106 121//121 154//154
f 109//109 123//123 155//155
f 112//112 125//125 156//156
f 115//115 127//127 157//157
f 129//129 3//3 2//2
f 131//131 4//4 3//3
f 133//133 5//5 4//4
f 135//135 6//6 5//5
f 137//137 2//2 6//6
f 138//138 9//9 8//8
f 139//139 12//12 11//11
f 140//140 15//15 14//14
f 141//141 18//18 17//17
f 142//142 21//21 20//20
f 144//144 24//24 23//23
f 146//146 25//25 24//24
f 148//148 26//26 25//25
f 150//150 27//27 26//26
f 152//152 23//23 27//27
f 153//153 30//30 29//29
f 154//154 33//33 32//32
f 155//155 36//36 35//35
f 156//156 39//39 38//38
f 157//157 42//42 41//41
f 75//75 44//44 43//43
f 78//78 46//46 45//45
f 81//81 48//48 47//47
f 84//84 50//50 49//49
f 87//87 52//52 51//51
f 90//90 45//45 53//53
f 93//93 43//43 54//54
f 96//96 51//51 55//55
f 99//99 49//49 56//56
f 102//102 47//47 57//57
f 105//105 59//59 58//58
f 108//108 61//61 60//60
f 111//111 63//63 62//62
f 114//114 65//65 64//64
f 117//117 67//67 66//66
f 119//119 58//58 68//68
f 121//121 60//60 69//69
f 123//123 62//62 70//70
f 125//125 64//64 71//71
f 127//127 66//66 72//72
f 74//74 11//11 46//46
f 77//77 8//8 48//48
f 80//80 20//20 50//50
f 83//83 17//17 52//52
f 86//86 14//14 44//44
f 89//89 68//68 42//42
f 92//92 69//69 30//30
f 95//95 70//70 33//33
f 98//98 71//71 36//36
f 101//101 72//72 39//39
f 104//104 29//29 61//61
f 107//107 32//32 63//63
f 110//110 35//35 65//65
f 113//113 38//38 67//67
f 116//116 41//41 59//59
f 118//118 53//53 12//12
f 120//120 54//54 15//15
f 122//122 55//55 18//18
f 124//124 56//56 21//21
f 126//126 57//57 9//9
f 129//129 75//75 74//74
f 131//131 78//78 77//77
f 133//133 81//81 80//80
f 135//135 84//84 83//83
f 137//137 87//87 86//86
f 138//138 90//90 89//89
f 139//139 93//93 92//92
f 140//140 96//96 95//95
f 141//141 99//99 98//98
f 142//142 102//102 101//101
f 144//144 105//105 104//104
f 146//146 108//108 107//107
f 148//148 111//111 110//110
f 150//150 114//114 113//113
f 152//152 117//117 116//116
f 153//153 119//119 118//118
f 154//154 121//121 120//120
f 155//155 123//123 122//122
f 156//156 125//125 124//124
f 157//157 127//127 126//126
