# Created by Open3D 
# object name: part_018
# number of vertices: 162
# number of triangles: 320
v 0.611275 1.78941 0.0340658
vn 0.0138586 -0.132913 -0.991031
v 0.607735 1.76063 0.0398372
vn 0.0120736 -0.319757 -0.947423
v 0.585925 1.78877 0.035104
vn -0.149939 -0.192347 -0.969805
v 0.582871 1.82788 0.0310924
vn -0.0482163 -0.0480364 -0.997681
v 0.614165 1.80924 0.0327536
vn 0.179143 0.0472023 -0.98269
v 0.634648 1.78014 0.0375973
vn 0.211955 -0.176662 -0.961179
v -0.275338 3.01203 0.0290355
vn -0.118151 0.0491261 -0.99178
v -0.283827 2.98814 0.0301695
vn -0.225624 -0.0879826 -0.970234
v -0.303819 3.01764 0.0346656
vn -0.296468 0.105717 -0.949173
v 0.149853 2.38764 0.0438529
vn -0.809149 -0.586635 0.0337089
v 0.563204 1.81806 0.0503435
vn -0.808459 -0.586609 0.0477975
v 0.150383 2.38808 0.0576746
vn -0.807954 -0.58564 0.0650847
v 0.62723 1.75593 0.264386
vn -0.769017 -0.635675 0.0673102
v 0.633943 1.74869 0.264339
vn -0.0797123 -0.995743 0.0462697
v 0.638855 1.76383 0.467498
vn -0.73878 -0.669904 0.073707
v 0.657532 1.7779 0.261865
vn 0.843419 0.533076 -0.0668882
v 0.63893 1.78222 0.0681926
vn 0.822829 0.564193 -0.0681124
v 0.659294 1.79858 0.455365
vn 0.822932 0.564277 -0.0661368
v 0.273222 2.2844 0.0417262
vn 0.805627 0.583805 -0.100683
v -0.212715 2.95316 0.0328668
vn 0.800803 0.580423 -0.147727
v -0.231265 2.9806 0.0430056
vn 0.806466 0.584912 -0.0865488
v -0.251279 3.03136 0.486444
vn -0.0138591 0.132913 0.991031
v -0.280217 3.0366 0.483376
vn -0.195907 0.186507 0.962723
v -0.259735 3.0075 0.488219
vn -0.122389 -0.00504403 0.992469
v -0.223227 2.99263 0.489447
vn 0.0482163 0.0480364 0.997681
v -0.231495 3.02797 0.485869
vn 0.206085 0.232023 0.950628
v -0.253304 3.05611 0.481136
vn 0.0019722 0.331722 0.943375
v 0.172782 2.40606 0.479766
vn -0.805627 -0.583805 0.100684
v -0.240613 2.9756 0.473279
vn -0.806921 -0.58427 0.0866436
v 0.171859 2.40533 0.465977
vn -0.807728 -0.585458 0.0693832
v 0.635334 1.80874 0.491474
vn 0.118151 -0.0491259 0.99178
v 0.610017 1.80813 0.493154
vn -0.0467062 -0.109411 0.992899
v 0.631336 1.77959 0.488547
vn 0.112635 -0.238966 0.964473
v 0.29615 2.30282 0.47764
vn 0.809149 0.586635 -0.0337094
v 0.598336 1.88618 0.48551
vn 0.809599 0.586794 0.0148982
v 0.617536 1.85921 0.475317
vn 0.809037 0.585823 -0.0476464
v -0.2728 3.0608 0.256586
vn 0.76902 0.635671 -0.0673102
v -0.253346 3.0571 0.450188
vn 0.792307 0.606509 -0.0663106
v -0.27371 3.04073 0.0630148
vn 0.792203 0.606425 -0.0682859
v -0.303101 3.03884 0.259108
vn -0.843421 -0.533073 0.0668881
v -0.307895 3.04747 0.258996
vn -0.971393 0.233875 0.0412103
v -0.31415 3.03137 0.0559484
vn -0.867271 -0.494212 0.0599593
v 0.607776 1.75964 0.0707853
vn -0.792306 -0.606509 0.0663104
v 0.617487 1.74666 0.061234
vn -0.739465 -0.670454 0.0606848
v -0.243906 2.93055 0.0354627
vn -0.809593 -0.586819 -0.0142426
v 0.543572 1.84464 0.0399304
vn -0.809274 -0.587259 -0.0142461
v -0.255587 3.00861 0.0278191
vn 0.104379 0.150312 -0.983113
v -0.247584 2.97306 0.0263809
vn -0.0567389 -0.036284 -0.99773
v 0.595043 1.84114 0.0476936
vn 0.806978 0.584169 -0.0867912
v 0.574763 1.86725 0.0373346
vn 0.800983 0.579872 -0.14891
v 0.662325 1.76927 0.261977
vn 0.997182 -0.0558505 -0.0500896
v 0.647212 1.7682 0.0587601
vn 0.866585 0.493664 -0.0729822
v -0.263105 2.95753 0.0456555
vn -0.808965 -0.585911 0.0477957
v 0.628141 1.776 0.457958
vn -0.792202 -0.606426 0.0682861
v 0.66858 1.78537 0.465024
vn 0.867271 0.494212 -0.0599594
v 0.275278 2.28357 0.0555216
vn 0.807728 0.585458 -0.0693834
v -0.276905 3.03715 0.0324257
vn -0.0982953 0.25117 -0.962939
v -0.284499 3.03451 0.45278
vn -0.822829 -0.564192 0.0681125
v -0.292781 3.04853 0.462213
vn -0.866585 -0.493664 0.072982
v 0.567145 1.86358 0.488106
vn -0.800726 -0.580391 0.14827
v -0.220333 2.94949 0.483638
vn -0.801046 -0.579952 0.148263
v 0.638258 1.8286 0.490803
vn 0.280855 0.128917 0.951052
v 0.607227 1.84745 0.494158
vn 0.0567389 0.0362839 0.99773
v -0.208773 2.99867 0.470629
vn 0.808499 0.586545 -0.0478956
v -0.189142 2.9721 0.481043
vn 0.809294 0.587245 0.0136976
v -0.279513 3.06804 0.256634
vn 0.256966 0.964894 -0.0542892
v -0.263056 3.07008 0.459739
vn 0.739464 0.670455 -0.0606847
v -0.304864 3.01815 0.0656076
vn -0.822933 -0.564275 0.0661367
v 0.585696 1.83613 0.477967
vn -0.806415 -0.584967 0.0866474
v 0.658249 1.7991 0.486307
vn 0.312222 -0.0961081 0.945135
v 0.296754 2.30082 0.463824
vn 0.807954 0.58564 -0.0650845
v -0.284425 3.05291 0.0534745
vn 0.738781 0.669903 -0.0737071
v 0.591619 1.77991 0.0576283
vn -0.802872 -0.592718 0.063893
v 0.584072 1.78928 0.0438406
vn -0.803363 -0.595485 0.00249414
v 0.606081 1.76025 0.0509575
vn -0.789744 -0.613126 0.019511
v -0.270194 2.9675 0.0317976
vn -0.798738 -0.576592 -0.171927
v -0.243273 2.93193 0.0281572
vn -0.189482 -0.13961 -0.971908
v 0.150035 2.38772 0.0330442
vn -0.79632 -0.578201 -0.177643
v -0.240044 2.98935 0.0292884
vn 0.770636 0.56044 -0.30336
v 0.267608 2.28934 0.0310175
vn 0.770774 0.557678 -0.308064
v -0.215 2.95242 0.0258041
vn 0.156989 0.111629 -0.981271
v 0.623255 1.80284 0.0549953
vn 0.812744 0.578331 -0.0705692
v 0.636722 1.78245 0.0484073
vn 0.823223 0.556004 -0.11473
v 0.6152 1.81184 0.0412499
vn 0.808842 0.573092 -0.131682
v 0.652933 1.75861 0.262922
vn 0.587058 -0.809538 0.00333058
v 0.62343 1.74136 0.060913
vn 0.417569 -0.907615 -0.0432526
v 0.650374 1.76089 0.0586706
vn 0.745244 -0.663084 -0.0702235
v -0.290566 2.99643 0.0526233
vn -0.813098 -0.578617 0.0638353
v -0.30474 3.01625 0.04579
vn -0.828244 -0.560036 0.0192912
v -0.283955 2.98627 0.038916
vn -0.81564 -0.578555 0.00242988
v 0.613361 1.79738 0.470983
vn -0.802517 -0.592434 0.0706274
v 0.584958 1.83453 0.457978
vn -0.807564 -0.585884 0.0676796
v 0.604629 1.78553 0.264325
vn -0.802826 -0.592407 0.0672601
v 0.665824 1.78971 0.478785
vn 0.886346 0.147105 0.439033
v 0.656763 1.77824 0.480842
vn 0.419145 -0.490542 0.763993
v 0.671767 1.77808 0.465397
vn 0.751427 -0.658117 0.0473317
v 0.286439 2.29174 0.25967
vn 0.807843 0.58555 -0.0672343
v 0.61711 1.85783 0.455302
vn 0.80819 0.585122 -0.066787
v 0.596722 1.84145 0.0676884
vn 0.808143 0.585085 -0.0676778
v -0.282661 3.04786 0.0397965
vn 0.362007 0.757741 -0.542936
v -0.274098 3.03846 0.0432397
vn 0.784725 0.609093 -0.11495
v -0.268012 3.02783 0.0328009
vn 0.754842 0.600124 -0.264698
v -0.268825 3.01389 0.465978
vn -0.812744 -0.578331 0.0705693
v -0.26077 3.0049 0.479723
vn -0.808842 -0.573092 0.131683
v -0.282292 3.03428 0.472566
vn -0.823224 -0.556003 0.114731
v 0.594474 1.82738 0.491685
vn -0.770609 -0.560921 0.30254
v 0.569431 1.86432 0.495169
vn -0.0843357 -0.0588622 0.994697
v 0.174094 2.40705 0.490451
vn -0.770774 -0.557678 0.308064
v 0.624624 1.84924 0.489175
vn 0.799245 0.576248 0.17072
v 0.291667 2.30867 0.488424
vn 0.79632 0.578202 0.177642
v 0.597703 1.88481 0.492816
vn 0.237225 0.174106 0.955726
v -0.237189 3.03683 0.463345
vn 0.802872 0.592718 -0.0638931
v -0.251651 3.05649 0.470015
vn 0.789745 0.613125 -0.0195111
v -0.229641 3.02746 0.477132
vn 0.803363 0.595484 -0.00249425
v -0.292567 3.06243 0.257557
vn -0.587057 0.809539 -0.0033306
v -0.295944 3.05585 0.462302
vn -0.726515 0.683681 0.0689648
v -0.269 3.07538 0.46006
vn -0.39223 0.91896 0.0408426
v -0.262679 2.95891 0.065671
vn -0.808122 -0.585216 0.0667888
v -0.281994 3.00816 0.259294
vn -0.812801 -0.578652 0.0672036
v 0.628529 1.77828 0.477733
vn -0.784724 -0.609093 0.11495
v 0.607257 1.8079 0.484648
vn -0.796563 -0.590023 0.131758
v 0.65917 1.80049 0.475183
vn 0.828243 0.560037 -0.0192928
v 0.652108 1.81041 0.485703
vn 0.826904 0.546376 0.133052
v -0.230527 2.98221 0.0629951
vn 0.807608 0.585823 -0.0676787
v -0.21014 2.99859 0.450609
vn 0.807655 0.58586 -0.0667922
v -0.296493 3.04273 0.0396451
vn -0.419143 0.490543 -0.763994
v -0.290393 3.05819 0.0533332
vn -0.398415 0.913992 -0.0767113
v 0.614278 1.75055 0.0474396
vn -0.273064 -0.797785 -0.537564
v 0.598888 1.76998 0.0403565
vn -0.775749 -0.616918 -0.132758
v 0.570536 1.80815 0.0365674
vn -0.795563 -0.580969 -0.171913
v 0.545102 1.84477 0.03263
vn -0.187774 -0.141964 -0.971899
v 0.167957 2.4007 0.0278066
vn -0.052479 -0.0421613 -0.997732
v 0.573374 1.86527 0.0302769
vn 0.135064 0.092031 -0.986554
v 0.600686 1.83001 0.0340581
vn 0.774417 0.5563 -0.301345
v 0.628554 1.79149 0.0378875
vn 0.806 0.529582 -0.2644
v 0.643011 1.77138 0.0450482
vn 0.834839 0.105726 -0.540246
v 0.633835 1.75982 0.0449233
vn 0.339004 -0.554928 -0.759692
v -0.297678 3.00633 0.0352699
vn -0.826905 -0.546374 -0.133055
v 0.56457 1.81815 0.0703643
vn -0.807611 -0.585921 0.0667917
v 0.644823 1.75855 0.46764
vn 0.423815 -0.902597 0.0754915
v 0.636424 1.80857 0.261678
vn 0.812801 0.578652 -0.0672036
v -0.252827 3.00883 0.0363253
vn 0.796564 0.590022 -0.131758
v -0.28858 3.04536 0.475925
vn -0.779706 0.0347019 0.625183
v -0.274124 3.02525 0.483085
vn -0.806 -0.529581 0.264403
v -0.246255 2.98673 0.486915
vn -0.773784 -0.556544 0.302518
v -0.218944 2.95147 0.490696
vn -0.0860428 -0.0565071 0.994688
v 0.192408 2.42034 0.492672
vn 0.052479 0.0421613 0.997732
v -0.190672 2.97196 0.488343
vn 0.258386 0.193091 0.946548
v -0.216105 3.00859 0.484406
vn 0.795678 0.580559 0.172762
v -0.244458 3.04676 0.480616
vn 0.77575 0.616918 0.132757
v -0.259847 3.06619 0.473533
vn 0.413522 0.799124 0.436348
v -0.273564 3.06115 0.475564
vn -0.339003 0.554927 0.759693
v -0.242292 2.97529 0.453284
vn -0.808075 -0.585179 0.0676767
v 0.622442 1.78891 0.488172
vn -0.754843 -0.600124 0.264695
v 0.638386 1.83047 0.482057
vn 0.81564 0.578555 -0.00243047
v -0.250199 3.03121 0.256648
vn 0.802826 0.592408 -0.0672602
v -0.317336 3.03866 0.0555757
vn -0.732759 0.678665 -0.0497786
v -0.311394 3.02703 0.0421878
vn -0.841034 -0.0145662 -0.540787
v 0.161058 2.39666 0.261831
vn -0.807843 -0.58555 0.0672343
v 0.637091 1.76888 0.481176
vn -0.211735 -0.748512 0.628409
v 0.644997 1.82031 0.46835
vn 0.813098 0.578617 -0.0638353
v -0.25893 3.01936 0.0499903
vn 0.802517 0.592435 -0.0706271
f 1//1 2//2 3//3
f 1//1 3//3 4//4
f 1//1 4//4 5//5
f 1//1 5//5 6//6
f 1//1 6//6 2//2
f 7//7 8//8 9//9
f 10//10 11//11 12//12
f 13//13 14//14 15//15
f 16//16 17//17 18//18
f 19//19 20//20 21//21
f 22//22 23//23 24//24
f 22//22 24//24 25//25
f 22//22 25//25 26//26
f 22//22 26//26 27//27
f 22//22 27//27 23//23
f 28//28 29//29 30//30
f 31//31 32//32 33//33
f 34//34 35//35 36//36
f 37//37 38//38 39//39
f 40//40 41//41 42//42
f 13//13 43//43 44//44
f 10//10 45//45 46//46
f 7//7 47//47 48//48
f 19//19 49//49 50//50
f 16//16 51//51 52//52
f 10//10 53//53 45//45
f 13//13 54//54 43//43
f 16//16 55//55 51//51
f 19//19 56//56 49//49
f 7//7 57//57 47//47
f 40//40 58//58 59//59
f 28//28 60//60 61//61
f 31//31 62//62 63//63
f 34//34 64//64 65//65
f 37//37 66//66 67//67
f 40//40 68//68 58//58
f 28//28 69//69 60//60
f 31//31 70//70 62//62
f 34//34 71//71 64//64
f 37//37 72//72 66//66
f 10//10 46//46 11//11
f 7//7 48//48 8//8
f 19//19 50//50 20//20
f 16//16 52//52 17//17
f 13//13 44//44 14//14
f 40//40 42//42 68//68
f 28//28 30//30 69//69
f 31//31 33//33 70//70
f 34//34 36//36 71//71
f 37//37 39//39 72//72
f 28//28 61//61 29//29
f 31//31 63//63 32//32
f 34//34 65//65 35//35
f 37//37 67//67 38//38
f 40//40 59//59 41//41
f 10//10 12//12 53//53
f 13//13 15//15 54//54
f 16//16 18//18 55//55
f 19//19 21//21 56//56
f 7//7 9//9 57//57
f 73//73 74//74 75//75
f 76//76 77//77 78//78
f 79//79 80//80 81//81
f 82//82 83//83 84//84
f 85//85 86//86 87//87
f 88//88 89//89 90//90
f 91//91 92//92 93//93
f 94//94 95//95 96//96
f 97//97 98//98 99//99
f 100//100 101//101 102//102
f 103//103 104//104 105//105
f 106//106 107//107 108//108
f 109//109 110//110 111//111
f 112//112 113//113 114//114
f 115//115 116//116 117//117
f 88//88 118//118 119//119
f 91//91 120//120 121//121
f 94//94 122//122 123//123
f 97//97 124//124 125//125
f 100//100 126//126 127//127
f 128//128 129//129 2//2
f 130//130 131//131 3//3
f 132//132 133//133 4//4
f 134//134 135//135 5//5
f 136//136 137//137 6//6
f 76//76 138//138 8//8
f 73//73 139//139 11//11
f 85//85 140//140 14//14
f 82//82 141//141 17//17
f 79//79 142//142 20//20
f 143//143 144//144 23//23
f 145//145 146//146 24//24
f 147//147 148//148 25//25
f 149//149 150//150 26//26
f 151//151 152//152 27//27
f 103//103 153//153 29//29
f 106//106 154//154 32//32
f 109//109 155//155 35//35
f 112//112 156//156 38//38
f 115//115 157//157 41//41
f 73//73 75//75 43//43
f 76//76 78//78 45//45
f 79//79 81//81 47//47
f 82//82 84//84 49//49
f 85//85 87//87 51//51
f 88//88 90//90 53//53
f 91//91 93//93 54//54
f 94//94 96//96 55//55
f 97//97 99//99 56//56
f 100//100 102//102 57//57
f 103//103 105//105 58//58
f 106//106 108//108 60//60
f 109//109 111//111 62//62
f 112//112 114//114 64//64
f 115//115 117//117 66//66
f 88//88 119//119 68//68
f 91//91 121//121 69//69
f 94//94 123//123 70//70
f 97//97 125//125 71//71
f 100//100 127//127 72//72
f 130//130 74//74 46//46
f 132//132 77//77 48//48
f 134//134 80//80 50//50
f 136//136 83//83 52//52
f 128//128 86//86 44//44
f 158//158 89//89 42//42
f 159//159 92//92 30//30
f 160//160 95//95 33//33
f 161//161 98//98 36//36
f 162//162 101//101 39//39
f 145//145 104//104 61//61
f 147//147 107//107 63//63
f 149//149 110//110 65//65
f 151//151 113//113 67//67
f 143//143 116//116 59//59
f 159//159 118//118 12//12
f 160//160 120//120 15//15
f 161//161 122//122 18//18
f 162//162 124//124 21//21
f 158//158 126//126 9//9
f 130//130 129//129 74//74
f 132//132 131//131 77//77
f 134//134 133//133 80//80
f 136//136 135//135 83//83
f 128//128 137//137 86//86
f 158//158 138//138 89//89
f 159//159 139//139 92//92
f 160//160 140//140 95//95
f 161//161 141//141 98//98
f 162//162 142//142 101//101
f 145//145 144//144 104//104
f 147//147 146//146 107//107
f 149//149 148//148 110//110
f 151//151 150//150 113//113
f 143//143 152//152 116//116
f 159//159 153//153 118//118
f 160//160 154//154 120//120
f 161//161 155//155 122//122
f 162//162 156//156 124//124
f 158//158 157//157 126//126
f 130//130 3//3 129//129
f 132//132 4//4 131//131
f 134//134 5//5 133//133
f 136//136 6//6 135//135
f 128//128 2//2 137//137
f 158//158 9//9 138//138
f 159//159 12//12 139//139
f 160//160 15//15 140//140
f 161//161 18//18 141//141
f 162//162 21//21 142//142
f 145//145 24//24 144//144
f 147//147 25//25 146//146
f 149//149 26//26 148//148
f 151//151 27//27 150//150
f 143//143 23//23 152//152
f 159//159 30//30 153//153
f 160//160 33//33 154//154
f 161//161 36//36 155//155
f 162//162 39//39 156//156
f 158//158 42//42 157//157
f 128//128 44//44 75//75
f 130//130 46//46 78//78
f 132//132 48//48 81//81
f 134//134 50//50 84//84
f 136//136 52//52 87//87
f 76//76 45//45 90//90
f 73//73 43//43 93//93
f 85//85 51//51 96//96
f 82//82 49//49 99//99
f 79//79 47//47 102//102
f 143//143 59//59 105//105
f 145//145 61//61 108//108
f 147//147 63//63 111//111
f 149//149 65//65 114//114
f 151//151 67//67 117//117
f 103//103 58//58 119//119
f 106//106 60//60 121//121
f 109//109 62//62 123//123
f 112//112 64//64 125//125
f 115//115 66//66 127//127
f 73//73 11//11 74//74
f 76//76 8//8 77//77
f 79//79 20//20 80//80
f 82//82 17//17 83//83
f 85//85 14//14 86//86
f 88//88 68//68 89//89
f 91//91 69//69 92//92
f 94//94 70//70 95//95
f 97//97 71//71 98//98
f 100//100 72//72 101//101
f 103//103 29//29 104//104
f 106//106 32//32 107//107
f 109//109 35//35 110//110
f 112//112 38//38 113//113
f 115//115 41//41 116//116
f 88//88 53//53 118//118
f 91//91 54//54 120//120
f 94//94 55//55 122//122
f 97//97 56//56 124//124
f 100//100 57//57 126//126
f 128//128 75//75 129//129
f 130//130 78//78 131//131
f 132//132 81//81 133//133
f 134//134 84//84 135//135
f 136//136 87//87 137//137
f 76//76 90//90 138//138
f 73//73 93//93 139//139
f 85//85 96//96 140//140
f 82//82 99//99 141//141
f 79//79 102//102 142//142
f 143//143 105//105 144//144
f 145//145 108//108 146//146
f 147//147 111//111 148//148
f 149//149 114//114 150//150
f 151//151 117//117 152//152
f 103//103 119//119 153//153
f 106//106 121//121 154//154
f 109//109 123//123 155//155
f 112//112 125//125 156//156
f 115//115 127//127 157//157
f 129//129 3//3 2//2
f 131//131 4//4 3//3
f 133//133 5//5 4//4
f 135//135 6//6 5//5
f 137//137 2//2 6//6
f 138//138 9//9 8//8
f 139//139 12//12 11//11
f 140//140 15//15 14//14
f 141//141 18//18 17//17
f 142//142 21//21 20//20
f 144//144 24//24 23//23
f 146//146 25//25 24//24
f 148//148 26//26 25//25
f 150//150 27//27 26//26
f 152//152 23//23 27//27
f 153//153 30//30 29//29
f 154//154 33//33 32//32
f 155//155 36//36 35//35
f 156//156 39//39 38//38
f 157//157 42//42 41//41
f 75//75 44//44 43//43
f 78//78 46//46 45//45
f 81//81 48//48 47//47
f 84//84 50//50 49//49
f 87//87 52//52 51//51
f 90//90 45//45 53//53
f 93//93 43//43 54//54
f 96//96 51//51 55//55
f 99//99 49//49 56//56
f 102//102 47//47 57//57
f 105//105 59//59 58//58
f 108//108 61//61 60//60
f 111//111 63//63 62//62
f 114//114 65//65 64//64
f 117//117 67//67 66//66
f 119//119 58//58 68//68
f 121//121 60//60 69//69
f 123//123 62//62 70//70
f 125//125 64//64 71//71
f 127//127 66//66 72//72
f 74//74 11//11 46//46
f 77//77 8//8 48//48
f 80//80 20//20 50//50
f 83//83 17//17 52//52
f 86//86 14//14 44//44
f 89//89 68//68 42//42
f 92//92 69//69 30//30
f 95//95 70//70 33//33
f 98//98 71//71 36//36
f 101//101 72//72 39//39
f 104//104 29//29 61//61
f 107//107 32//32 63//63
f 110//110 35//35 65//65
f 113//113 38//38 67//67
f 116//116 41//41 59//59
f 118//118 53//53 12//12
f 120//120 54//54 15//15
f 122//122 55//55 18//18
f 124//124 56//56 21//21
f 126//126 57//57 9//9
f 129//129 75//75 74//74
f 131//131 78//78 77//77
f 133//133 81//81 80//80
f 135//135 84//84 83//83
f 137//137 87//87 86//86
f 138//138 90//90 89//89
f 139//139 93//93 92//92
f 140//140 96//96 95//95
f 141//141 99//99 98//98
f 142//142 102//102 101//101
f 144//144 105//105 104//104
f 146//146 108//108 107//107
f 148//148 111//111 110//110
f 150//150 114//114 113//113
f 152//152 117//117 116//116
f 153//153 119//119 118//118
f 154//154 121//121 120//120
f 155//155 123//123 122//122
f 156//156 125//125 124//124
f 157//157 127//127 126//126
