# Created by Open3D 
# object name: part_052
# number of vertices: 162
# number of triangles: 320
v -0.56215 4.50358 0.45294
vn 0.752407 0.580279 0.311705
v -0.551805 4.48564 0.456967
vn 0.680375 0.40473 0.61097
v -0.548976 4.48775 0.447681
vn 0.842928 0.507214 0.179462
v -0.56088 4.5055 0.440508
vn 0.777974 0.627628 0.0289753
v -0.570924 4.51483 0.450234
vn 0.649421 0.733597 0.200221
v -0.572722 4.51145 0.4594
vn 0.584408 0.518107 0.624526
v -0.577626 4.52803 0.0603299
vn 0.728473 0.618088 -0.295456
v -0.564158 4.51174 0.0625372
vn 0.828729 0.529645 -0.180788
v -0.567717 4.51078 0.0533128
vn 0.632339 0.480626 -0.607574
v -0.561533 4.4929 0.254879
vn 0.662626 -0.745428 -0.0725485
v -0.556682 4.47956 0.437804
vn 0.64826 -0.758091 -0.0711144
v -0.569299 4.4863 0.254774
vn 0.630134 -0.773048 -0.0729883
v -0.679004 4.37962 0.459559
vn 0.61933 -0.767579 0.165086
v -0.679649 4.38039 0.462193
vn 0.17519 -0.229486 0.957416
v -0.795723 4.2856 0.458594
vn 0.587665 -0.743609 0.318897
v -0.702554 4.40869 0.462297
vn -0.600719 0.738174 0.306978
v -0.592008 4.49919 0.459638
vn -0.619782 0.76569 0.172014
v -0.814072 4.31949 0.457199
vn -0.621864 0.764006 0.171988
v -0.584647 4.52087 0.298303
vn -0.591776 0.802761 0.0733269
v -0.589367 4.53681 0.0834083
vn -0.538942 0.839213 0.0725539
v -0.595852 4.53289 0.0747753
vn -0.607243 0.79126 0.0718511
v -0.839974 4.31573 0.0574486
vn -0.752407 -0.580277 -0.311708
v -0.825076 4.30252 0.0504862
vn -0.593794 -0.511591 -0.621034
v -0.826873 4.29914 0.0596518
vn -0.688339 -0.698002 -0.197438
v -0.840969 4.31348 0.0698487
vn -0.777974 -0.627628 -0.0289757
v -0.848822 4.32623 0.0622043
vn -0.869587 -0.461871 -0.174623
v -0.845993 4.32834 0.0529185
vn -0.685051 -0.393893 -0.612824
v -0.811553 4.29058 0.252133
vn 0.59178 -0.802757 -0.0733269
v -0.81637 4.30387 0.0692039
vn 0.607022 -0.791151 -0.0748609
v -0.803482 4.2968 0.252202
vn 0.625586 -0.776729 -0.0730383
v -0.824497 4.29128 0.450059
vn -0.728475 -0.618088 0.295451
v -0.811691 4.27515 0.444796
vn -0.674144 -0.720433 0.162806
v -0.809164 4.27738 0.454141
vn -0.545759 -0.587482 0.597505
v -0.834666 4.31855 0.295557
vn -0.662629 0.745426 0.0725485
v -0.832673 4.30708 0.429297
vn -0.710356 0.700073 0.072744
v -0.826692 4.31163 0.437988
vn -0.648267 0.757725 0.0748451
v -0.718794 4.43435 0.0503272
vn -0.61933 0.767579 -0.165086
v -0.830003 4.34466 0.0530633
vn -0.629697 0.776382 -0.0266935
v -0.607939 4.52436 0.0555023
vn -0.627614 0.778067 -0.026674
v -0.695243 4.40528 0.0475885
vn 0.60072 -0.738174 -0.306978
v -0.69609 4.40636 0.0451276
vn 0.0984575 -0.108243 -0.989237
v -0.578972 4.49986 0.0486053
vn 0.570005 -0.685161 -0.453484
v -0.567795 4.46931 0.456822
vn 0.629697 -0.776382 0.0266934
v -0.56271 4.47416 0.461153
vn 0.600448 -0.733263 0.319041
v -0.565125 4.50689 0.0805893
vn 0.709743 -0.700703 -0.0726631
v -0.551379 4.48517 0.429301
vn 0.709828 -0.700829 -0.0705882
v -0.586106 4.53882 0.0650896
vn 0.635294 0.755913 -0.158103
v -0.575377 4.5284 0.0727657
vn 0.776362 0.630175 -0.0119048
v -0.581428 4.5101 0.440682
vn -0.606837 0.791251 0.0752996
v -0.575621 4.51509 0.43212
vn -0.537483 0.839965 0.0746422
v -0.701708 4.40761 0.464758
vn -0.154436 0.177654 0.971899
v -0.585812 4.50268 0.46384
vn -0.557218 0.695498 0.453641
v -0.571105 4.50235 0.0718976
vn 0.648126 -0.757889 -0.0744099
v -0.789859 4.28961 0.454383
vn 0.627614 -0.778067 0.0266737
v -0.818826 4.31412 0.461281
vn -0.570005 0.685161 0.453485
v -0.592698 4.51462 0.298736
vn -0.625585 0.77673 0.0730383
v -0.588634 4.5366 0.0557451
vn 0.53616 0.594335 -0.599415
v -0.80579 4.31478 0.0502477
vn 0.619782 -0.765691 -0.172013
v -0.811986 4.3113 0.0460461
vn 0.557218 -0.695498 -0.453641
v -0.808431 4.27716 0.426478
vn 0.538314 -0.839622 -0.0724731
v -0.822177 4.29888 0.0777659
vn 0.538224 -0.839498 -0.0745464
v -0.83364 4.30224 0.447349
vn -0.855461 -0.484189 0.183704
v -0.826473 4.29057 0.437591
vn -0.776362 -0.630175 0.0119053
v -0.841116 4.33442 0.0720816
vn -0.648153 0.758156 0.0714016
v -0.846419 4.3288 0.080585
vn -0.709299 0.701355 0.0706817
v -0.718148 4.43359 0.0476928
vn -0.229292 0.295933 -0.92728
v -0.835088 4.33981 0.0487327
vn -0.600448 0.733263 -0.319041
v -0.583726 4.49448 0.0526865
vn 0.621864 -0.764006 -0.171988
v -0.801946 4.28108 0.43511
vn 0.607156 -0.791354 -0.0715661
v -0.830081 4.30319 0.456573
vn -0.636803 -0.470125 0.611117
v -0.826881 4.32512 0.296164
vn -0.630136 0.773047 0.0729883
v -0.602074 4.52837 0.0512918
vn -0.587665 0.743609 -0.318897
v -0.560365 4.47557 0.45014
vn 0.632382 -0.773643 -0.0396253
v -0.552813 4.48238 0.447115
vn 0.694736 -0.718552 -0.0320149
v -0.556653 4.47877 0.456567
vn 0.676635 -0.734433 0.0526645
v -0.564004 4.50974 0.0688678
vn 0.840632 -0.536149 -0.0766931
v -0.562148 4.51164 0.0805678
vn 0.849864 0.52698 -0.00482348
v -0.55595 4.4986 0.255014
vn 0.8451 -0.530474 -0.0663533
v -0.587436 4.53866 0.0715926
vn -0.349836 0.934666 0.0633585
v -0.577978 4.52526 0.296399
vn -0.343494 0.936401 0.0718641
v -0.584121 4.53876 0.083123
vn 0.641349 0.767032 0.0182521
v -0.584953 4.50592 0.452999
vn -0.622632 0.775259 0.106312
v -0.580468 4.50816 0.459337
vn -0.566646 0.799997 0.197273
v -0.577007 4.51224 0.449928
vn -0.555128 0.824007 0.113336
v -0.692953 4.39679 0.464554
vn 0.039313 -0.0621168 0.997294
v -0.563578 4.47548 0.463302
vn 0.0878384 -0.0878766 0.992251
v -0.584519 4.50132 0.465737
vn 0.0192109 -0.00333123 0.99981
v -0.575764 4.49991 0.0594901
vn 0.629754 -0.769494 -0.106251
v -0.572552 4.50389 0.0532373
vn 0.66682 -0.718938 -0.19616
v -0.567965 4.50632 0.0627345
vn 0.691586 -0.713583 -0.11184
v -0.797446 4.28372 0.447536
vn 0.625256 -0.779409 -0.0397051
v -0.790343 4.29021 0.435431
vn 0.627457 -0.775375 -0.0713531
v -0.678805 4.37951 0.449814
vn 0.62881 -0.776504 -0.0404859
v -0.826371 4.30735 0.459828
vn -0.509078 0.0450535 0.859541
v -0.81806 4.2958 0.459818
vn -0.263959 -0.300242 0.916614
v -0.817798 4.31255 0.463175
vn -0.0140175 -0.0302209 0.999445
v -0.709832 4.41992 0.297615
vn -0.627863 0.774892 0.0730136
v -0.815332 4.32105 0.438337
vn -0.628249 0.774377 0.0751182
v -0.593015 4.50095 0.440778
vn -0.627307 0.77514 0.0751285
v -0.593758 4.53419 0.0526543
vn -0.014945 0.601668 -0.798607
v -0.596367 4.53328 0.0560067
vn -0.576461 0.815496 -0.0515722
v -0.589829 4.5375 0.059185
vn -0.399235 0.912395 -0.0902574
v -0.812845 4.30805 0.0568863
vn 0.622632 -0.775259 -0.106312
v -0.820791 4.30173 0.0599577
vn 0.555128 -0.824007 -0.113336
v -0.81733 4.30581 0.0505489
vn 0.566647 -0.799997 -0.197273
v -0.810362 4.27532 0.438293
vn 0.350936 -0.934353 -0.06187
v -0.813676 4.27522 0.426763
vn -0.692152 -0.721625 -0.0135164
v -0.818297 4.28631 0.252133
vn 0.343495 -0.936401 -0.0718641
v -0.833794 4.30424 0.441018
vn -0.839669 0.53734 0.0788821
v -0.840324 4.31296 0.293517
vn -0.8451 0.530474 0.0663533
v -0.83565 4.30234 0.429318
vn -0.873021 -0.487611 0.00834802
v -0.837433 4.3384 0.0597456
vn -0.632382 0.773643 0.0396254
v -0.841145 4.3352 0.0533184
vn -0.676635 0.734433 -0.0526644
v -0.844985 4.33159 0.0627711
vn -0.694736 0.718552 0.032015
v -0.709458 4.42287 0.0458678
vn -0.039313 0.0621168 -0.997294
v -0.813279 4.31265 0.0441488
vn -0.0240516 0.00915289 -0.999669
v -0.83422 4.3385 0.0465841
vn -0.092491 0.0937721 -0.991288
v -0.582466 4.49293 0.0715493
vn 0.628266 -0.774407 -0.0746745
v -0.694281 4.40397 0.0571986
vn 0.626249 -0.772457 -0.105466
v -0.801431 4.28069 0.453879
vn 0.576461 -0.815496 0.0515719
v -0.805639 4.27779 0.444338
vn 0.558288 -0.82897 -0.0335111
v -0.825246 4.31008 0.456648
vn -0.666821 0.718938 0.19616
v -0.831025 4.30493 0.453382
vn -0.795081 0.561553 0.229139
v -0.607455 4.52377 0.0744552
vn -0.627447 0.775356 0.0716414
v -0.829772 4.34386 0.0720134
vn -0.628385 0.774597 0.0716311
v -0.584277 4.52378 0.0505957
vn 0.26396 0.300243 -0.916613
v -0.600941 4.52727 0.0491462
vn -0.0592623 0.120661 -0.990923
v -0.555269 4.4811 0.459964
vn 0.518178 -0.0570126 0.853371
v -0.551123 4.48432 0.453522
vn 0.807847 -0.581729 0.094735
v -0.549328 4.48655 0.44116
vn 0.841409 -0.537439 -0.0564801
v -0.548386 4.4899 0.429676
vn 0.850186 0.526471 0.00342326
v -0.567893 4.51771 0.256675
vn 0.777332 0.629033 0.00853783
v -0.57036 4.51701 0.432232
vn 0.658757 0.751935 0.025172
v -0.572761 4.51547 0.443885
vn -0.351505 0.932388 0.084242
v -0.574179 4.51277 0.456203
vn -0.386434 0.892236 0.233631
v -0.5776 4.50866 0.462561
vn 0.05066 0.498011 0.86569
v -0.568038 4.49812 0.462564
vn 0.336483 0.185649 0.923209
v -0.566773 4.50905 0.0565037
vn 0.795081 -0.561552 -0.229138
v -0.568026 4.47011 0.437872
vn 0.628397 -0.774614 -0.0713427
v -0.796857 4.2867 0.46074
vn 0.0544544 -0.114891 0.991884
v -0.703516 4.41001 0.452687
vn -0.626249 0.772457 0.105465
v -0.592159 4.53618 0.0655478
vn -0.558288 0.82897 0.0335112
v -0.820198 4.30532 0.0473251
vn -0.132401 -0.419105 -0.898232
v -0.823618 4.3012 0.0536828
vn 0.386432 -0.892237 -0.233632
v -0.825037 4.2985 0.0660008
vn 0.350112 -0.933105 -0.0820797
v -0.827438 4.29696 0.0776541
vn -0.692475 -0.721113 -0.0217637
v -0.834518 4.30195 0.253747
vn -0.777332 -0.629033 -0.00853742
v -0.849412 4.32408 0.0802094
vn -0.884062 -0.467367 0.00149787
v -0.84847 4.32742 0.0687259
vn -0.841964 0.536413 0.0579506
v -0.846675 4.32966 0.0563641
vn -0.807847 0.581729 -0.094735
v -0.842529 4.33288 0.049922
vn -0.574682 0.14872 -0.80475
v -0.834299 4.32146 0.0478497
vn -0.336484 -0.18565 -0.923208
v -0.804783 4.31302 0.0691075
vn 0.627326 -0.775167 -0.0746847
v -0.807968 4.27647 0.450701
vn 0.399235 -0.912395 0.0902575
v -0.829833 4.30765 0.447151
vn -0.691586 0.713583 0.11184
v -0.718993 4.43446 0.0600722
vn -0.62881 0.776504 0.0404861
v -0.58 4.50143 0.0467109
vn 0.0093316 0.036168 -0.999302
v -0.571427 4.50663 0.0500574
vn 0.449386 0.0516958 -0.891841
v -0.686342 4.39149 0.253483
vn 0.627863 -0.774892 -0.0730136
v -0.804039 4.27979 0.457231
vn -0.0636017 -0.527801 0.846984
v -0.822033 4.31407 0.450396
vn -0.629754 0.769494 0.10625
v -0.600352 4.53025 0.0623494
vn -0.625256 0.779409 0.0397053
f 1//1 2//2 3//3
f 1//1 3//3 4//4
f 1//1 4//4 5//5
f 1//1 5//5 6//6
f 1//1 6//6 2//2
f 7//7 8//8 9//9
f 10//10 11//11 12//12
f 13//13 14//14 15//15
f 16//16 17//17 18//18
f 19//19 20//20 21//21
f 22//22 23//23 24//24
f 22//22 24//24 25//25
f 22//22 25//25 26//26
f 22//22 26//26 27//27
f 22//22 27//27 23//23
f 28//28 29//29 30//30
f 31//31 32//32 33//33
f 34//34 35//35 36//36
f 37//37 38//38 39//39
f 40//40 41//41 42//42
f 13//13 43//43 44//44
f 10//10 45//45 46//46
f 7//7 47//47 48//48
f 19//19 49//49 50//50
f 16//16 51//51 52//52
f 10//10 53//53 45//45
f 13//13 54//54 43//43
f 16//16 55//55 51//51
f 19//19 56//56 49//49
f 7//7 57//57 47//47
f 40//40 58//58 59//59
f 28//28 60//60 61//61
f 31//31 62//62 63//63
f 34//34 64//64 65//65
f 37//37 66//66 67//67
f 40//40 68//68 58//58
f 28//28 69//69 60//60
f 31//31 70//70 62//62
f 34//34 71//71 64//64
f 37//37 72//72 66//66
f 10//10 46//46 11//11
f 7//7 48//48 8//8
f 19//19 50//50 20//20
f 16//16 52//52 17//17
f 13//13 44//44 14//14
f 40//40 42//42 68//68
f 28//28 30//30 69//69
f 31//31 33//33 70//70
f 34//34 36//36 71//71
f 37//37 39//39 72//72
f 28//28 61//61 29//29
f 31//31 63//63 32//32
f 34//34 65//65 35//35
f 37//37 67//67 38//38
f 40//40 59//59 41//41
f 10//10 12//12 53//53
f 13//13 15//15 54//54
f 16//16 18//18 55//55
f 19//19 21//21 56//56
f 7//7 9//9 57//57
f 73//73 74//74 75//75
f 76//76 77//77 78//78
f 79//79 80//80 81//81
f 82//82 83//83 84//84
f 85//85 86//86 87//87
f 88//88 89//89 90//90
f 91//91 92//92 93//93
f 94//94 95//95 96//96
f 97//97 98//98 99//99
f 100//100 101//101 102//102
f 103//103 104//104 105//105
f 106//106 107//107 108//108
f 109//109 110//110 111//111
f 112//112 113//113 114//114
f 115//115 116//116 117//117
f 88//88 118//118 119//119
f 91//91 120//120 121//121
f 94//94 122//122 123//123
f 97//97 124//124 125//125
f 100//100 126//126 127//127
f 128//128 129//129 2//2
f 130//130 131//131 3//3
f 132//132 133//133 4//4
f 134//134 135//135 5//5
f 136//136 137//137 6//6
f 76//76 138//138 8//8
f 73//73 139//139 11//11
f 85//85 140//140 14//14
f 82//82 141//141 17//17
f 79//79 142//142 20//20
f 143//143 144//144 23//23
f 145//145 146//146 24//24
f 147//147 148//148 25//25
f 149//149 150//150 26//26
f 151//151 152//152 27//27
f 103//103 153//153 29//29
f 106//106 154//154 32//32
f 109//109 155//155 35//35
f 112//112 156//156 38//38
f 115//115 157//157 41//41
f 73//73 75//75 43//43
f 76//76 78//78 45//45
f 79//79 81//81 47//47
f 82//82 84//84 49//49
f 85//85 87//87 51//51
f 88//88 90//90 53//53
f 91//91 93//93 54//54
f 94//94 96//96 55//55
f 97//97 99//99 56//56
f 100//100 102//102 57//57
f 103//103 105//105 58//58
f 106//106 108//108 60//60
f 109//109 111//111 62//62
f 112//112 114//114 64//64
f 115//115 117//117 66//66
f 88//88 119//119 68//68
f 91//91 121//121 69//69
f 94//94 123//123 70//70
f 97//97 125//125 71//71
f 100//100 127//127 72//72
f 130//130 74//74 46//46
f 132//132 77//77 48//48
f 134//134 80//80 50//50
f 136//136 83//83 52//52
f 128//128 86//86 44//44
f 158//158 89//89 42//42
f 159//159 92//92 30//30
f 160//160 95//95 33//33
f 161//161 98//98 36//36
f 162//162 101//101 39//39
f 145//145 104//104 61//61
f 147//147 107//107 63//63
f 149//149 110//110 65//65
f 151//151 113//113 67//67
f 143//143 116//116 59//59
f 159//159 118//118 12//12
f 160//160 120//120 15//15
f 161//161 122//122 18//18
f 162//162 124//124 21//21
f 158//158 126//126 9//9
f 130//130 129//129 74//74
f 132//132 131//131 77//77
f 134//134 133//133 80//80
f 136//136 135//135 83//83
f 128//128 137//137 86//86
f 158//158 138//138 89//89
f 159//159 139//139 92//92
f 160//160 140//140 95//95
f 161//161 141//141 98//98
f 162//162 142//142 101//101
f 145//145 144//144 104//104
f 147//147 146//146 107//107
f 149//149 148//148 110//110
f 151//151 150//150 113//113
f 143//143 152//152 116//116
f 159//159 153//153 118//118
f 160//160 154//154 120//120
f 161//161 155//155 122//122
f 162//162 156//156 124//124
f 158//158 157//157 126//126
f 130//130 3//3 129//129
f 132//132 4//4 131//131
f 134//134 5//5 133//133
f 136//136 6//6 135//135
f 128//128 2//2 137//137
f 158//158 9//9 138//138
f 159//159 12//12 139//139
f 160//160 15//15 140//140
f 161//161 18//18 141//141
f 162//162 21//21 142//142
f 145//145 24//24 144//144
f 147//147 25//25 146//146
f 149//149 26//26 148//148
f 151//151 27//27 150//150
f 143//143 23//23 152//152
f 159//159 30//30 153//153
f 160//160 33//33 154//154
f 161//161 36//36 155//155
f 162//162 39//39 156//156
f 158//158 42//42 157//157
f 128//128 44//44 75//75
f 130//130 46//46 78//78
f 132//132 48//48 81//81
f 134//134 50//50 84//84
f 136//136 52//52 87//87
f 76//76 45//45 90//90
f 73//73 43//43 93//93
f 85//85 51//51 96//96
f 82//82 49//49 99//99
f 79//79 47//47 102//102
f 143//143 59//59 105//105
f 145//145 61//61 108//108
f 147//147 63//63 111//111
f 149//149 65//65 114//114
f 151//151 67//67 117//117
f 103//103 58//58 119//119
f 106//106 60//60 121//121
f 109//109 62//62 123//123
f 112//112 64//64 125//125
f 115//115 66//66 127//127
f 73//73 11//11 74//74
f 76//76 8//8 77//77
f 79//79 20//20 80//80
f 82//82 17//17 83//83
f 85//85 14//14 86//86
f 88//88 68//68 89//89
f 91//91 69//69 92//92
f 94//94 70//70 95//95
f 97//97 71//71 98//98
f 100//100 72//72 101//101
f 103//103 29//29 104//104
f 106//106 32//32 107//107
f 109//109 35//35 110//110
f 112//112 38//38 113//113
f 115//115 41//41 116//116
f 88//88 53//53 118//118
f 91//91 54//54 120//120
f 94//94 55//55 122//122
f 97//97 56//56 124//124
f 100//100 57//57 126//126
f 128//128 75//75 129//129
f 130//130 78//78 131//131
f 132//132 81//81 133//133
f 134//134 84//84 135//135
f 136//136 87//87 137//137
f 76//76 90//90 138//138
f 73//73 93//93 139//139
f 85//85 96//96 140//140
f 82//82 99//99 141//141
f 79//79 102//102 142//142
f 143//143 105//105 144//144
f 145//145 108//108 146//146
f 147//147 111//111 148//148
f 149//149 114//114 150//150
f 151//151 117//117 152//152
f 103//103 119//119 153//153
f 106//106 121//121 154//154
f 109//109 123//123 155//155
f 112//112 125//125 156//156
f 115//115 127//127 157//157
f 129//129 3//3 2//2
f 131//131 4//4 3//3
f 133//133 5//5 4//4
f 135//135 6//6 5//5
f 137//137 2//2 6//6
f 138//138 9//9 8//8
f 139//139 12//12 11//11
f 140//140 15//15 14//14
f 141//141 18//18 17//17
f 142//142 21//21 20//20
f 144//144 24//24 23//23
f 146//146 25//25 24//24
f 148//148 26//26 25//25
f 150//150 27//27 26//26
f 152//152 23//23 27//27
f 153//153 30//30 29//29
f 154//154 33//33 32//32
f 155//155 36//36 35//35
f 156//156 39//39 38//38
f 157//157 42//42 41//41
f 75//75 44//44 43//43
f 78//78 46//46 45//45
f 81//81 48//48 47//47
f 84//84 50//50 49//49
f 87//87 52//52 51//51
f 90//90 45//45 53//53
f 93//93 43//43 54//54
f 96//96 51//51 55//55
f 99//99 49//49 56//56
f 102//102 47//47 57//57
f 105//105 59//59 58//58
f 108//108 61//61 60//60
f 111//111 63//63 62//62
f 114//114 65//65 64//64
f 117//117 67//67 66//66
f 119//119 58//58 68//68
f 121//121 60//60 69//69
f 123//123 62//62 70//70
f 125//125 64//64 71//71
f 127//127 66//66 72//72
f 74//74 11//11 46//46
f 77//77 8//8 48//48
f 80//80 20//20 50//50
f 83//83 17//17 52//52
f 86//86 14//14 44//44
f 89//89 68//68 42//42
f 92//92 69//69 30//30
f 95//95 70//70 33//33
f 98//98 71//71 36//36
f 101//101 72//72 39//39
f 104//104 29//29 61//61
f 107//107 32//32 63//63
f 110//110 35//35 65//65
f 113//113 38//38 67//67
f 116//116 41//41 59//59
f 118//118 53//53 12//12
f 120//120 54//54 15//15
f 122//122 55//55 18//18
f 124//124 56//56 21//21
f 126//126 57//57 9//9
f 129//129 75//75 74//74
f 131//131 78//78 77//77
f 133//133 81//81 80//80
f 135//135 84//84 83//83
f 137//137 87//87 86//86
f 138//138 90//90 89//89
f 139//139 93//93 92//92
f 140//140 96//96 95//95
f 141//141 99//99 98//98
f 142//142 102//102 101//101
f 144//144 105//105 104//104
f 146//146 108//108 107//107
f 148//148 111//111 110//110
f 150//150 114//114 113//113
f 152//152 117//117 116//116
f 153//153 119//119 118//118
f 154//154 121//121 120//120
f 155//155 123//123 122//122
f 156//156 125//125 124//124
f 157//157 127//127 126//126
