# Created by Open3D 
# object name: part_027
# number of vertices: 162
# number of triangles: 320
v 0.470998 0.576052 1.51709
vn 0.462756 -0.86878 0.176291
v 0.452848 0.567268 1.51936
vn 0.410452 -0.823554 0.39152
v 0.452628 0.566109 1.51492
vn 0.439845 -0.891913 0.105016
v 0.471172 0.575492 1.51113
vn 0.472616 -0.881101 0.0171784
v 0.483424 0.58264 1.51555
vn 0.50907 -0.854093 0.106645
v 0.482196 0.583022 1.51996
vn 0.449532 -0.801148 0.395074
v 0.474518 0.576641 1.32915
vn 0.469133 -0.867712 -0.164289
v 0.456081 0.566687 1.33056
vn 0.443574 -0.891288 -0.0940634
v 0.456466 0.567873 1.32614
vn 0.42492 -0.821132 -0.381032
v 0.451419 0.567216 1.42269
vn -0.785273 -0.618926 -0.0166451
v 0.449381 0.567624 1.51026
vn -0.828246 -0.560194 -0.0138222
v 0.44996 0.569419 1.42267
vn -0.875529 -0.482834 -0.0179087
v 0.430748 0.60394 1.52105
vn -0.79323 -0.422655 0.438347
v 0.431771 0.604498 1.5223
vn -0.112011 -0.0532488 0.992279
v 0.412756 0.638215 1.52096
vn -0.685781 -0.334139 0.646572
v 0.463791 0.621677 1.52173
vn 0.776216 0.419809 0.470372
v 0.481734 0.589429 1.52009
vn 0.860757 0.457679 0.222774
v 0.446847 0.654437 1.51964
vn 0.855935 0.466664 0.222711
v 0.485728 0.585767 1.44281
vn 0.949756 0.312428 0.0187646
v 0.487877 0.584883 1.33993
vn 0.995886 0.0889975 0.0170699
v 0.487382 0.586811 1.33581
vn 0.924386 0.381136 0.0156585
v 0.433302 0.653442 1.32862
vn -0.462756 0.86878 -0.17629
v 0.416035 0.643214 1.32562
vn -0.447135 0.803865 -0.392264
v 0.414808 0.643596 1.33003
vn -0.496934 0.861268 -0.106184
v 0.432744 0.653795 1.33456
vn -0.472616 0.881101 -0.0171789
v 0.445603 0.660126 1.33065
vn -0.427152 0.898065 -0.104974
v 0.445383 0.658968 1.32622
vn -0.406778 0.824099 -0.394199
v 0.41214 0.640408 1.42218
vn -0.949757 -0.312426 -0.0187647
v 0.414129 0.639973 1.33461
vn -0.924462 -0.380641 -0.0219483
v 0.41317 0.637975 1.42219
vn -0.886243 -0.462868 -0.0180466
v 0.429783 0.652853 1.51655
vn -0.469133 0.867712 0.16429
v 0.411355 0.643018 1.51439
vn -0.500662 0.860643 0.092902
v 0.412416 0.642608 1.51884
vn -0.461602 0.801442 0.380282
v 0.446449 0.658959 1.4423
vn 0.785274 0.618924 0.0166451
v 0.444368 0.659611 1.50634
vn 0.620315 0.784184 0.0162709
v 0.44557 0.658062 1.51047
vn 0.827662 0.560811 0.0216146
v 0.467484 0.622295 1.32452
vn 0.79323 0.422655 -0.438348
v 0.45047 0.655043 1.32618
vn 0.863618 0.46795 -0.187582
v 0.485357 0.590035 1.32663
vn 0.86844 0.458965 -0.187517
v 0.434441 0.604558 1.32385
vn -0.776215 -0.419808 -0.470374
v 0.43551 0.605124 1.32265
vn -0.0747763 -0.0470171 -0.996091
v 0.453061 0.57062 1.32395
vn -0.636546 -0.375673 -0.673557
v 0.447761 0.571193 1.51939
vn -0.863618 -0.46795 0.187582
v 0.449363 0.570002 1.52144
vn -0.661271 -0.379811 0.646888
v 0.453864 0.566625 1.33924
vn -0.622605 -0.78237 -0.0161247
v 0.450738 0.566102 1.50616
vn -0.622677 -0.782385 -0.012099
v 0.486876 0.583218 1.33119
vn 0.512807 -0.853467 -0.0928628
v 0.474469 0.576044 1.3351
vn 0.473031 -0.881032 -0.00499205
v 0.484102 0.586262 1.51097
vn 0.924738 0.379917 0.0228653
v 0.484751 0.58436 1.50686
vn 0.996274 0.0836252 0.0211156
v 0.462721 0.621112 1.52293
vn 0.114934 0.0685328 0.991006
v 0.481777 0.587401 1.5221
vn 0.661056 0.330002 0.673872
v 0.452661 0.568173 1.3351
vn -0.828117 -0.560173 -0.020707
v 0.412875 0.636201 1.51895
vn -0.86844 -0.458965 0.187517
v 0.44517 0.655615 1.52162
vn 0.636547 0.375674 0.673555
v 0.484694 0.588199 1.44304
vn 0.886243 0.462868 0.0180466
v 0.485815 0.583627 1.32674
vn 0.464101 -0.798708 -0.382982
v 0.416497 0.636807 1.32549
vn -0.860757 -0.457679 -0.222773
v 0.416454 0.638834 1.32348
vn -0.661056 -0.330002 -0.673872
v 0.410354 0.641353 1.50564
vn -0.996105 -0.086543 -0.0169112
v 0.41348 0.641876 1.33872
vn -0.996029 -0.0865278 -0.0209367
v 0.442151 0.659549 1.51502
vn -0.43089 0.897439 0.0945351
v 0.429447 0.653243 1.5106
vn -0.473031 0.881032 0.00499264
v 0.44885 0.658611 1.33532
vn 0.828523 0.559769 0.0144232
v 0.447493 0.660134 1.33941
vn 0.624597 0.78085 0.0122852
v 0.46646 0.621738 1.32328
vn 0.151948 0.0747276 -0.985559
v 0.448869 0.656234 1.32414
vn 0.661272 0.379811 -0.646887
v 0.451384 0.571799 1.32594
vn -0.855935 -0.466664 -0.222712
v 0.410849 0.639424 1.50976
vn -0.92459 -0.380665 -0.0150637
v 0.441765 0.658362 1.51944
vn -0.42135 0.82166 0.383848
v 0.447903 0.656755 1.44256
vn 0.875529 0.482834 0.0179087
v 0.485475 0.58802 1.32461
vn 0.685782 0.33414 -0.646571
v 0.448738 0.568863 1.51618
vn -0.871591 -0.487472 0.0519634
v 0.45028 0.566712 1.5147
vn -0.680228 -0.730164 0.0644208
v 0.449828 0.568018 1.51923
vn -0.72028 -0.65359 0.232416
v 0.45485 0.566365 1.33361
vn -0.166658 -0.985813 -0.0199304
v 0.456104 0.566274 1.33919
vn 0.443855 -0.896092 0.00325021
v 0.453201 0.565849 1.42272
vn -0.155068 -0.987886 -0.00599982
v 0.487728 0.584013 1.33428
vn 0.913239 -0.407402 0.00416898
v 0.485898 0.583528 1.44189
vn 0.908875 -0.416773 0.0157138
v 0.486934 0.582823 1.33981
vn 0.516984 -0.855982 0.00466946
v 0.483237 0.587382 1.51688
vn 0.88572 0.455836 0.0878313
v 0.483242 0.585955 1.51991
vn 0.934865 0.23488 0.266194
v 0.484225 0.584933 1.51539
vn 0.981871 0.162042 0.0983409
v 0.450475 0.614541 1.52307
vn -0.0187232 -0.00313367 0.99982
v 0.450882 0.570774 1.52243
vn -0.0212986 -0.0496008 0.998542
v 0.480264 0.586546 1.52303
vn 0.0245642 -0.0247879 0.999391
v 0.45224 0.56945 1.32918
vn -0.868977 -0.487035 -0.0876117
v 0.453444 0.568623 1.32616
vn -0.711001 -0.652033 -0.263307
v 0.453725 0.567289 1.3307
vn -0.677262 -0.729659 -0.094415
v 0.411492 0.638268 1.5157
vn -0.888334 -0.456274 0.0517462
v 0.41248 0.635974 1.50988
vn -0.882107 -0.470826 -0.0144942
v 0.43002 0.603517 1.51641
vn -0.880172 -0.471997 0.050153
v 0.443404 0.657633 1.52097
vn -0.142605 0.624527 0.767873
v 0.430814 0.651114 1.5212
vn -0.304257 0.536889 0.786878
v 0.443615 0.654837 1.52256
vn -0.0128345 0.0449013 0.998909
v 0.466365 0.622514 1.44288
vn 0.880942 0.472882 0.0179788
v 0.447541 0.654794 1.5106
vn 0.879738 0.474931 0.0223929
v 0.482468 0.589712 1.51105
vn 0.881959 0.470793 0.0224215
v 0.486161 0.585422 1.32525
vn 0.465921 -0.450976 -0.761274
v 0.486858 0.58656 1.32684
vn 0.944148 0.236433 -0.229529
v 0.487246 0.584503 1.32835
vn 0.924382 -0.31101 -0.220884
v 0.414994 0.638854 1.3287
vn -0.88572 -0.455836 -0.0878311
v 0.414006 0.641302 1.33019
vn -0.981871 -0.162042 -0.0983408
v 0.414989 0.640281 1.32567
vn -0.934865 -0.234881 -0.266194
v 0.410504 0.642222 1.5113
vn -0.913987 0.405738 -0.00212357
v 0.411297 0.643412 1.50576
vn -0.501428 0.865188 -0.00442507
v 0.411986 0.642649 1.42219
vn -0.908875 0.416773 -0.0157138
v 0.443382 0.659871 1.51197
vn 0.169137 0.985326 0.0229284
v 0.444683 0.660329 1.44136
vn 0.155068 0.987886 0.00599982
v 0.442127 0.659962 1.50639
vn -0.433 0.901389 -0.0029287
v 0.449493 0.657372 1.3294
vn 0.871591 0.487472 -0.0519635
v 0.448403 0.658217 1.32635
vn 0.72028 0.65359 -0.232416
v 0.447951 0.659524 1.33088
vn 0.680228 0.730164 -0.0644208
v 0.454228 0.615169 1.32264
vn 0.018723 0.00313359 -0.99982
v 0.417968 0.63969 1.32254
vn -0.021454 0.0266517 -0.999415
v 0.447349 0.655462 1.32314
vn 0.0245675 0.0511612 -0.998388
v 0.45069 0.571441 1.33498
vn -0.879762 -0.474929 -0.0214632
v 0.433539 0.604106 1.32846
vn -0.877622 -0.47157 -0.0860299
v 0.411373 0.639676 1.51874
vn -0.944148 -0.236433 0.22953
v 0.41056 0.640726 1.51419
vn -0.984845 -0.162543 0.0604941
v 0.444787 0.657612 1.51942
vn 0.711002 0.652032 0.263305
v 0.443336 0.659098 1.51788
vn 0.244256 0.93832 0.244732
v 0.485751 0.590262 1.33569
vn 0.882095 0.470829 0.0151014
v 0.450825 0.655344 1.33524
vn 0.879886 0.474946 0.015073
v 0.473786 0.57854 1.3245
vn 0.304257 -0.53689 -0.786877
v 0.483998 0.587171 1.32362
vn 0.061966 -0.0185281 -0.997906
v 0.451153 0.567987 1.52083
vn 0.161363 -0.605941 0.778972
v 0.451336 0.566542 1.51774
vn -0.253133 -0.939808 0.22953
v 0.451512 0.565806 1.51182
vn -0.167167 -0.9859 0.00750013
v 0.452974 0.56575 1.5063
vn 0.443771 -0.896107 0.00775519
v 0.473295 0.575828 1.42312
vn 0.472853 -0.881121 0.00609337
v 0.483805 0.5823 1.50693
vn 0.511756 -0.859081 0.00924601
v 0.48439 0.583455 1.51249
vn 0.914421 -0.403454 0.0325329
v 0.483687 0.583908 1.5184
vn 0.915498 -0.312505 0.253383
v 0.482486 0.584807 1.52147
vn 0.437145 -0.455789 0.775346
v 0.470093 0.577922 1.52171
vn 0.274644 -0.541843 0.794341
v 0.454895 0.567138 1.32769
vn -0.244254 -0.938321 -0.244733
v 0.447406 0.570892 1.51033
vn -0.879893 -0.474951 -0.0144658
v 0.414233 0.639065 1.52196
vn -0.0588598 0.0203909 0.998058
v 0.464692 0.622129 1.51711
vn 0.877622 0.47157 0.0860303
v 0.487671 0.58551 1.33139
vn 0.984845 0.162543 -0.0604941
v 0.415745 0.641429 1.32411
vn -0.391082 0.482632 -0.783659
v 0.414544 0.642328 1.32717
vn -0.915498 0.312506 -0.253383
v 0.413841 0.642781 1.33308
vn -0.913474 0.405822 -0.0295547
v 0.414426 0.643936 1.33865
vn -0.501343 0.865202 -0.00893033
v 0.431408 0.653882 1.42258
vn -0.472853 0.88112 -0.0060934
v 0.445257 0.660486 1.33928
vn -0.427501 0.903984 -0.00750172
v 0.446719 0.66043 1.33375
vn 0.165356 0.986219 -0.00546854
v 0.446895 0.659693 1.32783
vn 0.253133 0.939808 -0.22953
v 0.447078 0.658248 1.32475
vn -0.11383 0.62934 -0.768749
v 0.434507 0.651733 1.324
vn -0.274644 0.541843 -0.794341
v 0.415764 0.636523 1.33453
vn -0.881976 -0.470804 -0.0214918
v 0.410986 0.641732 1.51722
vn -0.924383 0.311009 0.220885
v 0.444506 0.658947 1.51488
vn 0.677262 0.729658 0.0944155
v 0.468211 0.622718 1.32917
vn 0.880172 0.471997 -0.050153
v 0.454616 0.571399 1.32302
vn 0.0161069 -0.0433406 -0.998931
v 0.454827 0.568602 1.32461
vn 0.190487 -0.601072 -0.776162
v 0.431497 0.60366 1.42243
vn -0.880942 -0.472882 -0.0179788
v 0.412071 0.640814 1.52033
vn -0.420206 0.47776 0.771474
v 0.445991 0.656786 1.5164
vn 0.868977 0.487035 0.0876123
v 0.486739 0.587968 1.32988
vn 0.888334 0.456274 -0.0517462
f 1//1 2//2 3//3
f 1//1 3//3 4//4
f 1//1 4//4 5//5
f 1//1 5//5 6//6
f 1//1 6//6 2//2
f 7//7 8//8 9//9
f 10//10 11//11 12//12
f 13//13 14//14 15//15
f 16//16 17//17 18//18
f 19//19 20//20 21//21
f 22//22 23//23 24//24
f 22//22 24//24 25//25
f 22//22 25//25 26//26
f 22//22 26//26 27//27
f 22//22 27//27 23//23
f 28//28 29//29 30//30
f 31//31 32//32 33//33
f 34//34 35//35 36//36
f 37//37 38//38 39//39
f 40//40 41//41 42//42
f 13//13 43//43 44//44
f 10//10 45//45 46//46
f 7//7 47//47 48//48
f 19//19 49//49 50//50
f 16//16 51//51 52//52
f 10//10 53//53 45//45
f 13//13 54//54 43//43
f 16//16 55//55 51//51
f 19//19 56//56 49//49
f 7//7 57//57 47//47
f 40//40 58//58 59//59
f 28//28 60//60 61//61
f 31//31 62//62 63//63
f 34//34 64//64 65//65
f 37//37 66//66 67//67
f 40//40 68//68 58//58
f 28//28 69//69 60//60
f 31//31 70//70 62//62
f 34//34 71//71 64//64
f 37//37 72//72 66//66
f 10//10 46//46 11//11
f 7//7 48//48 8//8
f 19//19 50//50 20//20
f 16//16 52//52 17//17
f 13//13 44//44 14//14
f 40//40 42//42 68//68
f 28//28 30//30 69//69
f 31//31 33//33 70//70
f 34//34 36//36 71//71
f 37//37 39//39 72//72
f 28//28 61//61 29//29
f 31//31 63//63 32//32
f 34//34 65//65 35//35
f 37//37 67//67 38//38
f 40//40 59//59 41//41
f 10//10 12//12 53//53
f 13//13 15//15 54//54
f 16//16 18//18 55//55
f 19//19 21//21 56//56
f 7//7 9//9 57//57
f 73//73 74//74 75//75
f 76//76 77//77 78//78
f 79//79 80//80 81//81
f 82//82 83//83 84//84
f 85//85 86//86 87//87
f 88//88 89//89 90//90
f 91//91 92//92 93//93
f 94//94 95//95 96//96
f 97//97 98//98 99//99
f 100//100 101//101 102//102
f 103//103 104//104 105//105
f 106//106 107//107 108//108
f 109//109 110//110 111//111
f 112//112 113//113 114//114
f 115//115 116//116 117//117
f 88//88 118//118 119//119
f 91//91 120//120 121//121
f 94//94 122//122 123//123
f 97//97 124//124 125//125
f 100//100 126//126 127//127
f 128//128 129//129 2//2
f 130//130 131//131 3//3
f 132//132 133//133 4//4
f 134//134 135//135 5//5
f 136//136 137//137 6//6
f 76//76 138//138 8//8
f 73//73 139//139 11//11
f 85//85 140//140 14//14
f 82//82 141//141 17//17
f 79//79 142//142 20//20
f 143//143 144//144 23//23
f 145//145 146//146 24//24
f 147//147 148//148 25//25
f 149//149 150//150 26//26
f 151//151 152//152 27//27
f 103//103 153//153 29//29
f 106//106 154//154 32//32
f 109//109 155//155 35//35
f 112//112 156//156 38//38
f 115//115 157//157 41//41
f 73//73 75//75 43//43
f 76//76 78//78 45//45
f 79//79 81//81 47//47
f 82//82 84//84 49//49
f 85//85 87//87 51//51
f 88//88 90//90 53//53
f 91//91 93//93 54//54
f 94//94 96//96 55//55
f 97//97 99//99 56//56
f 100//100 102//102 57//57
f 103//103 105//105 58//58
f 106//106 108//108 60//60
f 109//109 111//111 62//62
f 112//112 114//114 64//64
f 115//115 117//117 66//66
f 88//88 119//119 68//68
f 91//91 121//121 69//69
f 94//94 123//123 70//70
f 97//97 125//125 71//71
f 100//100 127//127 72//72
f 130//130 74//74 46//46
f 132//132 77//77 48//48
f 134//134 80//80 50//50
f 136//136 83//83 52//52
f 128//128 86//86 44//44
f 158//158 89//89 42//42
f 159//159 92//92 30//30
f 160//160 95//95 33//33
f 161//161 98//98 36//36
f 162//162 101//101 39//39
f 145//145 104//104 61//61
f 147//147 107//107 63//63
f 149//149 110//110 65//65
f 151//151 113//113 67//67
f 143//143 116//116 59//59
f 159//159 118//118 12//12
f 160//160 120//120 15//15
f 161//161 122//122 18//18
f 162//162 124//124 21//21
f 158//158 126//126 9//9
f 130//130 129//129 74//74
f 132//132 131//131 77//77
f 134//134 133//133 80//80
f 136//136 135//135 83//83
f 128//128 137//137 86//86
f 158//158 138//138 89//89
f 159//159 139//139 92//92
f 160//160 140//140 95//95
f 161//161 141//141 98//98
f 162//162 142//142 101//101
f 145//145 144//144 104//104
f 147//147 146//146 107//107
f 149//149 148//148 110//110
f 151//151 150//150 113//113
f 143//143 152//152 116//116
f 159//159 153//153 118//118
f 160//160 154//154 120//120
f 161//161 155//155 122//122
f 162//162 156//156 124//124
f 158//158 157//157 126//126
f 130//130 3//3 129//129
f 132//132 4//4 131//131
f 134//134 5//5 133//133
f 136//136 6//6 135//135
f 128//128 2//2 137//137
f 158//158 9//9 138//138
f 159//159 12//12 139//139
f 160//160 15//15 140//140
f 161//161 18//18 141//141
f 162//162 21//21 142//142
f 145//145 24//24 144//144
f 147//147 25//25 146//146
f 149//149 26//26 148//148
f 151//151 27//27 150//150
f 143//143 23//23 152//152
f 159//159 30//30 153//153
f 160//160 33//33 154//154
f 161//161 36//36 155//155
f 162//162 39//39 156//156
f 158//158 42//42 157//157
f 128//128 44//44 75//75
f 130//130 46//46 78//78
f 132//132 48//48 81//81
f 134//134 50//50 84//84
f 136//136 52//52 87//87
f 76//76 45//45 90//90
f 73//73 43//43 93//93
f 85//85 51//51 96//96
f 82//82 49//49 99//99
f 79//79 47//47 102//102
f 143//143 59//59 105//105
f 145//145 61//61 108//108
f 147//147 63//63 111//111
f 149//149 65//65 114//114
f 151//151 67//67 117//117
f 103//103 58//58 119//119
f 106//106 60//60 121//121
f 109//109 62//62 123//123
f 112//112 64//64 125//125
f 115//115 66//66 127//127
f 73//73 11//11 74//74
f 76//76 8//8 77//77
f 79//79 20//20 80//80
f 82//82 17//17 83//83
f 85//85 14//14 86//86
f 88//88 68//68 89//89
f 91//91 69//69 92//92
f 94//94 70//70 95//95
f 97//97 71//71 98//98
f 100//100 72//72 101//101
f 103//103 29//29 104//104
f 106//106 32//32 107//107
f 109//109 35//35 110//110
f 112//112 38//38 113//113
f 115//115 41//41 116//116
f 88//88 53//53 118//118
f 91//91 54//54 120//120
f 94//94 55//55 122//122
f 97//97 56//56 124//124
f 100//100 57//57 126//126
f 128//128 75//75 129//129
f 130//130 78//78 131//131
f 132//132 81//81 133//133
f 134//134 84//84 135//135
f 136//136 87//87 137//137
f 76//76 90//90 138//138
f 73//73 93//93 139//139
f 85//85 96//96 140//140
f 82//82 99//99 141//141
f 79//79 102//102 142//142
f 143//143 105//105 144//144
f 145//145 108//108 146//146
f 147//147 111//111 148//148
f 149//149 114//114 150//150
f 151//151 117//117 152//152
f 103//103 119//119 153//153
f 106//106 121//121 154//154
f 109//109 123//123 155//155
f 112//112 125//125 156//156
f 115//115 127//127 157//157
f 129//129 3//3 2//2
f 131//131 4//4 3//3
f 133//133 5//5 4//4
f 135//135 6//6 5//5
f 137//137 2//2 6//6
f 138//138 9//9 8//8
f 139//139 12//12 11//11
f 140//140 15//15 14//14
f 141//141 18//18 17//17
f 142//142 21//21 20//20
f 144//144 24//24 23//23
f 146//146 25//25 24//24
f 148//148 26//26 25//25
f 150//150 27//27 26//26
f 152//152 23//23 27//27
f 153//153 30//30 29//29
f 154//154 33//33 32//32
f 155//155 36//36 35//35
f 156//156 39//39 38//38
f 157//157 42//42 41//41
f 75//75 44//44 43//43
f 78//78 46//46 45//45
f 81//81 48//48 47//47
f 84//84 50//50 49//49
f 87//87 52//52 51//51
f 90//90 45//45 53//53
f 93//93 43//43 54//54
f 96//96 51//51 55//55
f 99//99 49//49 56//56
f 102//102 47//47 57//57
f 105//105 59//59 58//58
f 108//108 61//61 60//60
f 111//111 63//63 62//62
f 114//114 65//65 64//64
f 117//117 67//67 66//66
f 119//119 58//58 68//68
f 121//121 60//60 69//69
f 123//123 62//62 70//70
f 125//125 64//64 71//71
f 127//127 66//66 72//72
f 74//74 11//11 46//46
f 77//77 8//8 48//48
f 80//80 20//20 50//50
f 83//83 17//17 52//52
f 86//86 14//14 44//44
f 89//89 68//68 42//42
f 92//92 69//69 30//30
f 95//95 70//70 33//33
f 98//98 71//71 36//36
f 101//101 72//72 39//39
f 104//104 29//29 61//61
f 107//107 32//32 63//63
f 110//110 35//35 65//65
f 113//113 38//38 67//67
f 116//116 41//41 59//59
f 118//118 53//53 12//12
f 120//120 54//54 15//15
f 122//122 55//55 18//18
f 124//124 56//56 21//21
f 126//126 57//57 9//9
f 129//129 75//75 74//74
f 131//131 78//78 77//77
f 133//133 81//81 80//80
f 135//135 84//84 83//83
f 137//137 87//87 86//86
f 138//138 90//90 89//89
f 139//139 93//93 92//92
f 140//140 96//96 95//95
f 141//141 99//99 98//98
f 142//142 102//102 101//101
f 144//144 105//105 104//104
f 146//146 108//108 107//107
f 148//148 111//111 110//110
f 150//150 114//114 113//113
f 152//152 117//117 116//116
f 153//153 119//119 118//118
f 154//154 121//121 120//120
f 155//155 123//123 122//122
f 156//156 125//125 124//124
f 157//157 127//127 126//126
