# Created by Open3D 
# object name: part_078
# number of vertices: 162
# number of triangles: 320
v 0.703503 1.78419 0.470589
vn 0.991331 0.0404274 -0.12501
v 0.705126 1.76491 0.478753
vn 0.996958 0.0350472 -0.0696165
v 0.704013 1.76295 0.468783
vn 0.990018 0.0220003 -0.139213
v 0.701627 1.78243 0.457156
vn 0.986357 0.0363491 -0.160556
v 0.702129 1.79766 0.465065
vn 0.987685 0.0624201 -0.143461
v 0.703331 1.79799 0.47521
vn 0.995638 0.0599528 -0.0714925
v 0.635296 1.73513 0.0471226
vn 0.979137 0.0316569 -0.200718
v 0.637103 1.71483 0.053369
vn 0.982953 0.01692 -0.183078
v 0.635001 1.71447 0.0433736
vn 0.967508 0.0138639 -0.252461
v 0.66961 1.73667 0.261486
vn 0.371849 -0.927076 0.0475131
v 0.700995 1.75949 0.458888
vn 0.246042 -0.966442 0.073844
v 0.668292 1.73638 0.261732
vn 0.0756521 -0.991829 0.102723
v 0.684329 1.76256 0.487036
vn 0.0868788 -0.944601 0.316513
v 0.684708 1.76405 0.489658
vn 0.166275 -0.125769 0.978026
v 0.664774 1.76223 0.490547
vn 0.0448105 -0.887027 0.459539
v 0.682308 1.7998 0.483047
vn -0.0183618 0.993887 0.108868
v 0.700264 1.80051 0.475681
vn -0.0293491 0.9994 -0.0183844
v 0.662933 1.79915 0.481852
vn -0.0492813 0.998671 -0.0150945
v 0.674533 1.78081 0.301038
vn 0.269904 0.950557 -0.153599
v 0.637809 1.75361 0.0691839
vn 0.588942 0.786327 -0.186649
v 0.635303 1.75289 0.0600318
vn 0.138992 0.980736 -0.137256
v 0.591192 1.73352 0.0544132
vn -0.991331 -0.0404272 0.125011
v 0.591736 1.71289 0.0505256
vn -0.995714 -0.0579555 0.0720713
v 0.592938 1.71321 0.0606698
vn -0.988216 -0.0551908 0.142769
v 0.593092 1.73485 0.0678926
vn -0.986357 -0.0363493 0.160556
v 0.591054 1.74792 0.0569522
vn -0.990272 -0.0147733 0.138359
v 0.58994 1.74596 0.0469827
vn -0.997089 -0.0332188 0.0686309
v 0.627579 1.73513 0.268434
vn -0.26992 -0.950552 0.153601
v 0.596196 1.71225 0.0710391
vn -0.140353 -0.98089 0.134741
v 0.628923 1.73494 0.26824
vn 0.0321219 -0.993421 0.109919
v 0.659399 1.78258 0.47788
vn -0.979137 -0.0316567 0.200719
v 0.659848 1.76134 0.476084
vn -0.981151 -0.0501091 0.186633
v 0.661862 1.76333 0.485904
vn -0.966264 -0.0367716 0.254915
v 0.632502 1.77927 0.307986
vn -0.371838 0.927081 -0.0475154
v 0.655176 1.7956 0.452445
vn -0.677087 0.73549 0.0246591
v 0.657639 1.79711 0.461512
vn -0.246948 0.966476 -0.070289
v 0.610737 1.74832 0.0386991
vn -0.0868763 0.944603 -0.316509
v 0.592724 1.74865 0.0459536
vn -0.0780019 0.978013 -0.193405
v 0.630055 1.75001 0.0397824
vn -0.0580668 0.978743 -0.196698
v 0.612759 1.71108 0.042688
vn 0.0183619 -0.993887 -0.108868
v 0.612252 1.71194 0.0398138
vn -0.140634 -0.346524 -0.927439
v 0.632276 1.71211 0.0391009
vn 0.0556592 -0.963653 -0.261297
v 0.702343 1.76223 0.479782
vn 0.0780036 -0.978011 0.193415
v 0.703946 1.76366 0.484072
vn 0.168473 -0.882505 0.439092
v 0.63989 1.71527 0.07329
vn 0.674269 -0.738101 -0.0238366
v 0.700471 1.75885 0.449408
vn 0.674499 -0.737936 -0.0224013
v 0.635219 1.74953 0.0496514
vn 0.980602 0.0573237 -0.187439
v 0.637741 1.73648 0.0605118
vn 0.985574 0.0357877 -0.165417
v 0.698871 1.79862 0.454696
vn 0.141847 0.9807 -0.134561
v 0.69839 1.79718 0.445302
vn 0.594906 0.78207 -0.185615
v 0.682814 1.79894 0.485921
vn 0.131132 0.436825 0.889937
v 0.701963 1.8002 0.480159
vn 0.0680003 0.968177 0.24085
v 0.637427 1.71376 0.0642233
vn 0.245607 -0.96677 0.0709386
v 0.665012 1.76086 0.485953
vn 0.0580704 -0.978741 0.196708
v 0.662791 1.79876 0.486634
vn -0.0556584 0.963653 0.261297
v 0.673276 1.78107 0.301774
vn -0.0321184 0.993421 -0.109919
v 0.633205 1.74755 0.0398307
vn 0.965941 0.0385921 -0.255868
v 0.594802 1.71036 0.0500546
vn 0.0293491 -0.9994 0.0183849
v 0.593104 1.71068 0.0455763
vn -0.068002 -0.968177 -0.240851
v 0.657258 1.75727 0.456551
vn -0.591573 -0.784291 0.186893
v 0.596677 1.71369 0.0804334
vn -0.591799 -0.784461 0.185458
v 0.657964 1.79605 0.472366
vn -0.983189 -0.00967874 0.182336
v 0.656978 1.7808 0.464537
vn -0.985574 -0.0357877 0.165417
v 0.594071 1.75139 0.0668476
vn -0.245073 0.966694 -0.0737681
v 0.594596 1.75203 0.0763274
vn -0.672062 0.740174 0.0218057
v 0.610359 1.74682 0.0360776
vn -0.166924 0.222426 -0.960554
v 0.59112 1.74721 0.0416632
vn -0.168477 0.882495 -0.43911
v 0.632134 1.71172 0.0438836
vn 0.0492815 -0.998671 0.015095
v 0.659764 1.75798 0.465703
vn -0.139877 -0.980556 0.137638
v 0.660066 1.7964 0.482362
vn -0.967391 -0.0118583 0.253009
v 0.633907 1.77963 0.308281
vn -0.0756516 0.991829 -0.102723
v 0.630292 1.74864 0.0351878
vn -0.044804 0.887022 -0.459549
v 0.70245 1.76113 0.472332
vn 0.0927133 -0.987109 0.130459
v 0.703212 1.7611 0.468699
vn 0.595591 -0.802793 0.0281817
v 0.704165 1.76256 0.478998
vn 0.496621 -0.859046 0.124132
v 0.638142 1.71445 0.0604491
vn 0.935284 -0.334496 -0.115568
v 0.640451 1.71707 0.0727693
vn 0.986655 0.0193502 -0.161674
v 0.670596 1.73762 0.261217
vn 0.938495 -0.326148 -0.113376
v 0.63613 1.75151 0.0564802
vn 0.895993 0.399582 -0.19373
v 0.675288 1.77969 0.298911
vn 0.899435 0.393379 -0.190445
v 0.638564 1.75181 0.0690475
vn 0.984147 0.0618743 -0.166214
v 0.700339 1.80001 0.468167
vn -0.0149783 0.996519 -0.0820055
v 0.702121 1.80022 0.474964
vn 0.400383 0.913984 -0.0657726
v 0.701135 1.79936 0.464601
vn 0.50589 0.849665 -0.148815
v 0.683704 1.78524 0.488273
vn 0.157989 0.11364 0.98088
v 0.704227 1.76562 0.486066
vn 0.330743 0.0635687 0.941577
v 0.702429 1.79874 0.482519
vn 0.323544 0.180518 0.928834
v 0.634583 1.71232 0.0509795
vn 0.0830981 -0.994028 0.070738
v 0.634096 1.71216 0.0439687
vn 0.464175 -0.882379 -0.0771269
v 0.636435 1.71307 0.0541085
vn 0.58595 -0.809728 -0.0316739
v 0.662594 1.75967 0.47892
vn 0.0245871 -0.989602 0.141719
v 0.661739 1.75788 0.46563
vn 0.0496454 -0.992847 0.108583
v 0.682698 1.76043 0.476696
vn 0.0585707 -0.989053 0.135438
v 0.66127 1.79794 0.485494
vn -0.904943 0.141252 0.401404
v 0.662108 1.784 0.48813
vn -0.903482 -0.00313832 0.428614
v 0.663213 1.79731 0.489001
vn -0.0198241 0.167957 0.985595
v 0.653615 1.78044 0.305191
vn -0.053901 0.992867 -0.106347
v 0.659594 1.7974 0.461397
vn -0.0581051 0.992909 -0.103708
v 0.696968 1.79877 0.455219
vn -0.0490838 0.993239 -0.105199
v 0.631879 1.74825 0.0364587
vn 0.889172 0.149326 -0.432522
v 0.632051 1.74982 0.0399351
vn 0.367959 0.890671 -0.267042
v 0.633647 1.74965 0.0432358
vn 0.853146 0.453182 -0.258396
v 0.594728 1.71086 0.057568
vn 0.0149786 -0.996519 0.0820058
v 0.593932 1.71151 0.0611345
vn -0.50589 -0.849665 0.148815
v 0.592946 1.71065 0.0507711
vn -0.400385 -0.913984 0.0657724
v 0.658937 1.75937 0.469255
vn -0.895374 -0.400683 0.194314
v 0.656502 1.75906 0.456688
vn -0.984846 -0.0526627 0.165242
v 0.626493 1.73601 0.268507
vn -0.899435 -0.393379 0.190445
v 0.656925 1.79642 0.465286
vn -0.934578 0.336301 0.116042
v 0.631185 1.77808 0.306201
vn -0.938498 0.32614 0.113377
v 0.654616 1.79381 0.452966
vn -0.986864 -0.0131798 0.161016
v 0.592617 1.74974 0.0534033
vn -0.0927135 0.987109 -0.130459
v 0.590902 1.74831 0.0467374
vn -0.496613 0.859051 -0.124126
v 0.591855 1.74977 0.0570366
vn -0.595593 0.802792 -0.0281814
v 0.610967 1.73292 0.0366807
vn -0.157989 -0.113639 -0.98088
v 0.592637 1.71213 0.0432165
vn -0.32483 -0.172476 -0.929913
v 0.59084 1.74525 0.0396696
vn -0.330335 -0.055393 -0.942237
v 0.635473 1.71347 0.0643381
vn 0.0581549 -0.992864 0.104107
v 0.61449 1.71137 0.0532245
vn 0.0491837 -0.995805 0.0771541
v 0.663015 1.76105 0.4858
vn -0.367963 -0.890669 0.267044
v 0.660709 1.75955 0.475724
vn -0.496238 -0.842737 0.208668
v 0.660971 1.79871 0.481766
vn -0.464176 0.882379 0.0771267
v 0.659441 1.79768 0.478594
vn -0.899655 0.403554 0.166631
v 0.633328 1.75299 0.0601054
vn -0.0496116 0.992877 -0.108323
v 0.595954 1.75162 0.0662836
vn -0.0585882 0.992549 -0.106839
v 0.632569 1.73405 0.0368361
vn 0.903482 0.00313853 -0.428615
v 0.630056 1.74668 0.0331868
vn 0.0130293 -0.0428322 -0.998997
v 0.705008 1.76416 0.482363
vn 0.991997 -0.0381363 0.120362
v 0.704599 1.7628 0.475362
vn 0.920883 -0.388278 -0.0348597
v 0.702819 1.76097 0.462001
vn 0.936416 -0.333699 -0.10849
v 0.7011 1.76069 0.449315
vn 0.986814 0.0194639 -0.160686
v 0.669747 1.7599 0.258772
vn 0.985969 0.0360685 -0.162987
v 0.699214 1.79544 0.445593
vn 0.984553 0.0589372 -0.164871
v 0.700807 1.79803 0.458032
vn 0.895862 0.403278 -0.186543
v 0.702619 1.79926 0.471456
vn 0.874382 0.468426 -0.126622
v 0.703091 1.79947 0.478581
vn 0.973476 0.209965 0.0908832
v 0.704139 1.78553 0.481182
vn 0.99111 0.0661682 0.115424
v 0.635626 1.71319 0.0471411
vn 0.899655 -0.403553 -0.166631
v 0.699113 1.75925 0.459452
vn 0.0586361 -0.992518 0.107097
v 0.66501 1.76419 0.492548
vn -0.014208 0.0509503 0.9986
v 0.680577 1.79951 0.472511
vn -0.0491836 0.995805 -0.0771539
v 0.634358 1.75133 0.0500107
vn 0.496243 0.842734 -0.208668
v 0.591976 1.7114 0.0471544
vn -0.980771 -0.168649 -0.0982106
v 0.592447 1.71161 0.0542787
vn -0.874382 -0.468426 0.126622
v 0.594259 1.71285 0.0677033
vn -0.896504 -0.401524 0.18724
v 0.595853 1.71543 0.0801417
vn -0.985005 -0.0527768 0.164254
v 0.624924 1.75826 0.266182
vn -0.985969 -0.0360686 0.162987
v 0.593966 1.75018 0.0764199
vn -0.987121 -0.0102371 0.159649
v 0.592248 1.7499 0.0637342
vn -0.936739 0.33255 0.109231
v 0.590468 1.74807 0.0503735
vn -0.920882 0.388279 0.0348614
v 0.590058 1.74672 0.0433719
vn -0.98925 0.0806087 -0.122008
v 0.590538 1.73252 0.0437842
vn -0.99111 -0.0661682 -0.115423
v 0.598099 1.71211 0.0705162
vn 0.049162 -0.993193 0.105594
v 0.66142 1.76122 0.482499
vn -0.853146 -0.453182 0.258395
v 0.658632 1.7978 0.471627
vn -0.58595 0.809728 0.0316739
v 0.612369 1.75044 0.0490389
vn -0.0585705 0.989053 -0.135441
v 0.631854 1.71357 0.0367337
vn 0.0201195 -0.159858 -0.986935
v 0.633797 1.71293 0.0402411
vn 0.906538 -0.0996099 -0.410204
v 0.648611 1.73558 0.264995
vn 0.0539 -0.992867 0.106347
v 0.663187 1.76263 0.489277
vn -0.895317 -0.107179 0.432344
v 0.660483 1.79856 0.474756
vn -0.0830983 0.994028 -0.0707379
v 0.632473 1.7512 0.0468149
vn -0.0245843 0.989601 -0.141724
f 1//1 2//2 3//3
f 1//1 3//3 4//4
f 1//1 4//4 5//5
f 1//1 5//5 6//6
f 1//1 6//6 2//2
f 7//7 8//8 9//9
f 10//10 11//11 12//12
f 13//13 14//14 15//15
f 16//16 17//17 18//18
f 19//19 20//20 21//21
f 22//22 23//23 24//24
f 22//22 24//24 25//25
f 22//22 25//25 26//26
f 22//22 26//26 27//27
f 22//22 27//27 23//23
f 28//28 29//29 30//30
f 31//31 32//32 33//33
f 34//34 35//35 36//36
f 37//37 38//38 39//39
f 40//40 41//41 42//42
f 13//13 43//43 44//44
f 10//10 45//45 46//46
f 7//7 47//47 48//48
f 19//19 49//49 50//50
f 16//16 51//51 52//52
f 10//10 53//53 45//45
f 13//13 54//54 43//43
f 16//16 55//55 51//51
f 19//19 56//56 49//49
f 7//7 57//57 47//47
f 40//40 58//58 59//59
f 28//28 60//60 61//61
f 31//31 62//62 63//63
f 34//34 64//64 65//65
f 37//37 66//66 67//67
f 40//40 68//68 58//58
f 28//28 69//69 60//60
f 31//31 70//70 62//62
f 34//34 71//71 64//64
f 37//37 72//72 66//66
f 10//10 46//46 11//11
f 7//7 48//48 8//8
f 19//19 50//50 20//20
f 16//16 52//52 17//17
f 13//13 44//44 14//14
f 40//40 42//42 68//68
f 28//28 30//30 69//69
f 31//31 33//33 70//70
f 34//34 36//36 71//71
f 37//37 39//39 72//72
f 28//28 61//61 29//29
f 31//31 63//63 32//32
f 34//34 65//65 35//35
f 37//37 67//67 38//38
f 40//40 59//59 41//41
f 10//10 12//12 53//53
f 13//13 15//15 54//54
f 16//16 18//18 55//55
f 19//19 21//21 56//56
f 7//7 9//9 57//57
f 73//73 74//74 75//75
f 76//76 77//77 78//78
f 79//79 80//80 81//81
f 82//82 83//83 84//84
f 85//85 86//86 87//87
f 88//88 89//89 90//90
f 91//91 92//92 93//93
f 94//94 95//95 96//96
f 97//97 98//98 99//99
f 100//100 101//101 102//102
f 103//103 104//104 105//105
f 106//106 107//107 108//108
f 109//109 110//110 111//111
f 112//112 113//113 114//114
f 115//115 116//116 117//117
f 88//88 118//118 119//119
f 91//91 120//120 121//121
f 94//94 122//122 123//123
f 97//97 124//124 125//125
f 100//100 126//126 127//127
f 128//128 129//129 2//2
f 130//130 131//131 3//3
f 132//132 133//133 4//4
f 134//134 135//135 5//5
f 136//136 137//137 6//6
f 76//76 138//138 8//8
f 73//73 139//139 11//11
f 85//85 140//140 14//14
f 82//82 141//141 17//17
f 79//79 142//142 20//20
f 143//143 144//144 23//23
f 145//145 146//146 24//24
f 147//147 148//148 25//25
f 149//149 150//150 26//26
f 151//151 152//152 27//27
f 103//103 153//153 29//29
f 106//106 154//154 32//32
f 109//109 155//155 35//35
f 112//112 156//156 38//38
f 115//115 157//157 41//41
f 73//73 75//75 43//43
f 76//76 78//78 45//45
f 79//79 81//81 47//47
f 82//82 84//84 49//49
f 85//85 87//87 51//51
f 88//88 90//90 53//53
f 91//91 93//93 54//54
f 94//94 96//96 55//55
f 97//97 99//99 56//56
f 100//100 102//102 57//57
f 103//103 105//105 58//58
f 106//106 108//108 60//60
f 109//109 111//111 62//62
f 112//112 114//114 64//64
f 115//115 117//117 66//66
f 88//88 119//119 68//68
f 91//91 121//121 69//69
f 94//94 123//123 70//70
f 97//97 125//125 71//71
f 100//100 127//127 72//72
f 130//130 74//74 46//46
f 132//132 77//77 48//48
f 134//134 80//80 50//50
f 136//136 83//83 52//52
f 128//128 86//86 44//44
f 158//158 89//89 42//42
f 159//159 92//92 30//30
f 160//160 95//95 33//33
f 161//161 98//98 36//36
f 162//162 101//101 39//39
f 145//145 104//104 61//61
f 147//147 107//107 63//63
f 149//149 110//110 65//65
f 151//151 113//113 67//67
f 143//143 116//116 59//59
f 159//159 118//118 12//12
f 160//160 120//120 15//15
f 161//161 122//122 18//18
f 162//162 124//124 21//21
f 158//158 126//126 9//9
f 130//130 129//129 74//74
f 132//132 131//131 77//77
f 134//134 133//133 80//80
f 136//136 135//135 83//83
f 128//128 137//137 86//86
f 158//158 138//138 89//89
f 159//159 139//139 92//92
f 160//160 140//140 95//95
f 161//161 141//141 98//98
f 162//162 142//142 101//101
f 145//145 144//144 104//104
f 147//147 146//146 107//107
f 149//149 148//148 110//110
f 151//151 150//150 113//113
f 143//143 152//152 116//116
f 159//159 153//153 118//118
f 160//160 154//154 120//120
f 161//161 155//155 122//122
f 162//162 156//156 124//124
f 158//158 157//157 126//126
f 130//130 3//3 129//129
f 132//132 4//4 131//131
f 134//134 5//5 133//133
f 136//136 6//6 135//135
f 128//128 2//2 137//137
f 158//158 9//9 138//138
f 159//159 12//12 139//139
f 160//160 15//15 140//140
f 161//161 18//18 141//141
f 162//162 21//21 142//142
f 145//145 24//24 144//144
f 147//147 25//25 146//146
f 149//149 26//26 148//148
f 151//151 27//27 150//150
f 143//143 23//23 152//152
f 159//159 30//30 153//153
f 160//160 33//33 154//154
f 161//161 36//36 155//155
f 162//162 39//39 156//156
f 158//158 42//42 157//157
f 128//128 44//44 75//75
f 130//130 46//46 78//78
f 132//132 48//48 81//81
f 134//134 50//50 84//84
f 136//136 52//52 87//87
f 76//76 45//45 90//90
f 73//73 43//43 93//93
f 85//85 51//51 96//96
f 82//82 49//49 99//99
f 79//79 47//47 102//102
f 143//143 59//59 105//105
f 145//145 61//61 108//108
f 147//147 63//63 111//111
f 149//149 65//65 114//114
f 151//151 67//67 117//117
f 103//103 58//58 119//119
f 106//106 60//60 121//121
f 109//109 62//62 123//123
f 112//112 64//64 125//125
f 115//115 66//66 127//127
f 73//73 11//11 74//74
f 76//76 8//8 77//77
f 79//79 20//20 80//80
f 82//82 17//17 83//83
f 85//85 14//14 86//86
f 88//88 68//68 89//89
f 91//91 69//69 92//92
f 94//94 70//70 95//95
f 97//97 71//71 98//98
f 100//100 72//72 101//101
f 103//103 29//29 104//104
f 106//106 32//32 107//107
f 109//109 35//35 110//110
f 112//112 38//38 113//113
f 115//115 41//41 116//116
f 88//88 53//53 118//118
f 91//91 54//54 120//120
f 94//94 55//55 122//122
f 97//97 56//56 124//124
f 100//100 57//57 126//126
f 128//128 75//75 129//129
f 130//130 78//78 131//131
f 132//132 81//81 133//133
f 134//134 84//84 135//135
f 136//136 87//87 137//137
f 76//76 90//90 138//138
f 73//73 93//93 139//139
f 85//85 96//96 140//140
f 82//82 99//99 141//141
f 79//79 102//102 142//142
f 143//143 105//105 144//144
f 145//145 108//108 146//146
f 147//147 111//111 148//148
f 149//149 114//114 150//150
f 151//151 117//117 152//152
f 103//103 119//119 153//153
f 106//106 121//121 154//154
f 109//109 123//123 155//155
f 112//112 125//125 156//156
f 115//115 127//127 157//157
f 129//129 3//3 2//2
f 131//131 4//4 3//3
f 133//133 5//5 4//4
f 135//135 6//6 5//5
f 137//137 2//2 6//6
f 138//138 9//9 8//8
f 139//139 12//12 11//11
f 140//140 15//15 14//14
f 141//141 18//18 17//17
f 142//142 21//21 20//20
f 144//144 24//24 23//23
f 146//146 25//25 24//24
f 148//148 26//26 25//25
f 150//150 27//27 26//26
f 152//152 23//23 27//27
f 153//153 30//30 29//29
f 154//154 33//33 32//32
f 155//155 36//36 35//35
f 156//156 39//39 38//38
f 157//157 42//42 41//41
f 75//75 44//44 43//43
f 78//78 46//46 45//45
f 81//81 48//48 47//47
f 84//84 50//50 49//49
f 87//87 52//52 51//51
f 90//90 45//45 53//53
f 93//93 43//43 54//54
f 96//96 51//51 55//55
f 99//99 49//49 56//56
f 102//102 47//47 57//57
f 105//105 59//59 58//58
f 108//108 61//61 60//60
f 111//111 63//63 62//62
f 114//114 65//65 64//64
f 117//117 67//67 66//66
f 119//119 58//58 68//68
f 121//121 60//60 69//69
f 123//123 62//62 70//70
f 125//125 64//64 71//71
f 127//127 66//66 72//72
f 74//74 11//11 46//46
f 77//77 8//8 48//48
f 80//80 20//20 50//50
f 83//83 17//17 52//52
f 86//86 14//14 44//44
f 89//89 68//68 42//42
f 92//92 69//69 30//30
f 95//95 70//70 33//33
f 98//98 71//71 36//36
f 101//101 72//72 39//39
f 104//104 29//29 61//61
f 107//107 32//32 63//63
f 110//110 35//35 65//65
f 113//113 38//38 67//67
f 116//116 41//41 59//59
f 118//118 53//53 12//12
f 120//120 54//54 15//15
f 122//122 55//55 18//18
f 124//124 56//56 21//21
f 126//126 57//57 9//9
f 129//129 75//75 74//74
f 131//131 78//78 77//77
f 133//133 81//81 80//80
f 135//135 84//84 83//83
f 137//137 87//87 86//86
f 138//138 90//90 89//89
f 139//139 93//93 92//92
f 140//140 96//96 95//95
f 141//141 99//99 98//98
f 142//142 102//102 101//101
f 144//144 105//105 104//104
f 146//146 108//108 107//107
f 148//148 111//111 110//110
f 150//150 114//114 113//113
f 152//152 117//117 116//116
f 153//153 119//119 118//118
f 154//154 121//121 120//120
f 155//155 123//123 122//122
f 156//156 125//125 124//124
f 157//157 127//127 126//126
