# Created by Open3D 
# object name: part_030
# number of vertices: 162
# number of triangles: 320
v 1.4576 2.3567 1.64414
vn -0.369628 0.526478 0.765635
v 1.43998 2.34724 1.64154
vn -0.501147 0.750709 0.43045
v 1.44003 2.34535 1.64306
vn -0.327826 0.356704 0.87481
v 1.45857 2.35451 1.64532
vn -0.15754 0.145654 0.976712
v 1.46999 2.36324 1.64523
vn -0.235533 0.412071 0.880183
v 1.46853 2.36428 1.6436
vn -0.467087 0.772981 0.429337
v 1.49741 2.28837 1.65769
vn 0.129003 -0.329329 0.935361
v 1.47909 2.27833 1.65635
vn -0.0115524 -0.186115 0.98246
v 1.48091 2.27699 1.65547
vn 0.307925 -0.637917 0.705864
v 1.4581 2.31037 1.64659
vn -0.867567 -0.493845 0.0586885
v 1.43968 2.34207 1.63916
vn -0.868702 -0.495287 0.00686926
v 1.45841 2.30982 1.64287
vn -0.858059 -0.510687 -0.0541668
v 1.4463 2.3399 1.58091
vn -0.930488 0.324865 -0.169274
v 1.44706 2.34095 1.58089
vn -0.534636 0.827491 -0.171531
v 1.4543 2.3338 1.52628
vn -0.818974 0.541705 -0.189308
v 1.47844 2.35909 1.58323
vn 0.169313 0.981463 -0.0897968
v 1.47192 2.36471 1.63548
vn 0.549998 0.835019 -0.0156611
v 1.48666 2.35264 1.53132
vn 0.550894 0.834283 -0.0220745
v 1.48771 2.33756 1.64763
vn 0.833572 0.521697 0.181631
v 1.50895 2.30016 1.65668
vn 0.783987 0.519004 0.340588
v 1.51056 2.29855 1.65423
vn 0.848278 0.512688 0.132569
v 1.51482 2.27411 1.53464
vn 0.369627 -0.526476 -0.765636
v 1.49798 2.263 1.53476
vn 0.46901 -0.769907 -0.43275
v 1.49652 2.26405 1.53313
vn 0.251944 -0.402002 -0.880295
v 1.51348 2.27608 1.53344
vn 0.157541 -0.145655 -0.976712
v 1.52648 2.28193 1.5353
vn 0.344335 -0.347116 -0.872321
v 1.52653 2.28005 1.53682
vn 0.504387 -0.750717 -0.426636
v 1.47468 2.29678 1.52933
vn -0.83357 -0.521698 -0.181639
v 1.49305 2.26505 1.53676
vn -0.840868 -0.525292 -0.130423
v 1.47395 2.29709 1.53303
vn -0.855862 -0.512486 -0.069697
v 1.47501 2.34244 1.52109
vn -0.129005 0.329332 -0.93536
v 1.45746 2.33107 1.51984
vn -0.0643293 0.140823 -0.987943
v 1.45705 2.33325 1.52083
vn -0.340093 0.618762 -0.708146
v 1.5043 2.32397 1.53037
vn 0.867567 0.493847 -0.0586819
v 1.49065 2.34688 1.52408
vn 0.857957 0.461392 -0.225893
v 1.48973 2.3489 1.52657
vn 0.859637 0.510797 -0.0105037
v 1.52021 2.28739 1.59745
vn 0.930488 -0.324865 0.169274
v 1.52764 2.28231 1.54527
vn 0.988415 0.0833426 0.126846
v 1.5129 2.29438 1.64943
vn 0.987508 0.0840839 0.133257
v 1.48807 2.2682 1.59513
vn -0.169313 -0.981463 0.0897968
v 1.48935 2.26836 1.59529
vn 0.456725 -0.874002 0.165901
v 1.48067 2.27467 1.6498
vn 0.0709538 -0.988268 0.13525
v 1.43887 2.34498 1.63309
vn -0.988415 -0.0833426 -0.126846
v 1.43884 2.34646 1.63557
vn -0.821903 0.544091 -0.168645
v 1.47586 2.28041 1.65428
vn -0.858429 -0.461565 0.223736
v 1.4405 2.3411 1.64225
vn -0.86331 -0.453188 0.222075
v 1.50905 2.29621 1.65852
vn 0.0811877 -0.131523 0.987983
v 1.49585 2.29051 1.65801
vn -0.120566 0.0821965 0.989297
v 1.47346 2.36223 1.6416
vn 0.839677 0.527151 0.130591
v 1.47359 2.36085 1.64464
vn 0.777523 0.527284 0.342681
v 1.47716 2.35892 1.58307
vn -0.439206 0.883199 -0.164489
v 1.47038 2.36529 1.63785
vn -0.0738531 0.990665 -0.114583
v 1.47678 2.27839 1.65179
vn -0.860676 -0.509062 0.00960323
v 1.45361 2.33291 1.52893
vn -0.987508 -0.0840839 -0.133257
v 1.48584 2.35262 1.52856
vn -0.0709538 0.988268 -0.13525
v 1.4884 2.33734 1.64392
vn 0.855862 0.512486 0.0696974
v 1.50946 2.29404 1.65753
vn 0.344223 -0.619478 0.70552
v 1.49459 2.26258 1.54288
vn -0.549998 -0.835019 0.0156611
v 1.49613 2.262 1.54051
vn 0.0738531 -0.990665 0.114583
v 1.45756 2.32712 1.52168
vn -0.783469 -0.518608 -0.342377
v 1.49292 2.26644 1.53372
vn -0.778587 -0.526986 -0.340717
v 1.48742 2.34896 1.52201
vn 0.0276202 0.196462 -0.980122
v 1.47619 2.34007 1.52075
vn 0.120565 -0.0821956 -0.989297
v 1.52683 2.28522 1.5392
vn 0.867987 0.496541 -0.00675471
v 1.52601 2.28619 1.53611
vn 0.863335 0.454 -0.220312
v 1.51945 2.28634 1.59747
vn 0.551069 -0.81642 0.172573
v 1.52767 2.28082 1.54279
vn 0.821916 -0.544072 0.168644
v 1.47985 2.27465 1.64704
vn -0.550894 -0.834283 0.0220745
v 1.45595 2.32873 1.52413
vn -0.848895 -0.511515 -0.133153
v 1.4856 2.35029 1.52289
vn -0.306941 0.641778 -0.702786
v 1.50393 2.32461 1.53408
vn 0.858059 0.510686 0.0541666
v 1.51221 2.29349 1.65208
vn 0.818974 -0.541705 0.189308
v 1.4388 2.34406 1.63682
vn -0.927607 -0.365655 -0.0764306
v 1.43887 2.3441 1.64064
vn -0.943926 -0.302358 0.132605
v 1.43843 2.34569 1.63845
vn -0.999554 0.0293927 0.0053604
v 1.47748 2.2788 1.65566
vn -0.710931 -0.337647 0.616905
v 1.47716 2.28152 1.65633
vn -0.175401 0.0834515 0.980954
v 1.45848 2.31118 1.64954
vn -0.724962 -0.299376 0.620326
v 1.50946 2.29789 1.65798
vn 0.559868 0.427997 0.709483
v 1.48671 2.33709 1.65053
vn 0.536569 0.453729 0.711494
v 1.50715 2.29943 1.6585
vn -0.0725814 0.144241 0.986877
v 1.47236 2.3641 1.63925
vn 0.763656 0.643997 0.0457953
v 1.47094 2.36509 1.6408
vn 0.442292 0.890154 0.109559
v 1.47189 2.36382 1.64303
vn 0.69362 0.675219 0.250939
v 1.46518 2.35195 1.58218
vn -0.496197 0.851625 -0.168891
v 1.4401 2.3477 1.63567
vn -0.506664 0.847564 -0.157879
v 1.46869 2.36477 1.63773
vn -0.487555 0.858943 -0.156546
v 1.47842 2.27608 1.65031
vn -0.767047 -0.641221 -0.0217824
v 1.47933 2.2755 1.65237
vn -0.483374 -0.856485 0.181061
v 1.47785 2.27721 1.65391
vn -0.756873 -0.623394 0.196273
v 1.45453 2.33117 1.52563
vn -0.924208 -0.368444 -0.100441
v 1.455 2.3293 1.52949
vn -0.860798 -0.50479 -0.0649209
v 1.44649 2.33774 1.58119
vn -0.92459 -0.370702 -0.0878267
v 1.48597 2.35165 1.52487
vn -0.363903 0.848878 -0.38338
v 1.47376 2.34454 1.52366
vn -0.452331 0.80434 -0.385271
v 1.48416 2.35208 1.52832
vn -0.48428 0.856257 -0.179711
v 1.49622 2.33105 1.589
vn 0.856987 0.511602 0.0619342
v 1.48911 2.34966 1.53195
vn 0.852019 0.520224 0.058569
v 1.47436 2.36174 1.63623
vn 0.851563 0.520598 0.0617876
v 1.51103 2.29383 1.6557
vn 0.533052 -0.747899 0.395604
v 1.51184 2.2949 1.65472
vn 0.958447 0.004269 0.285239
v 1.5106 2.29547 1.6574
vn 0.777933 -0.0777547 0.623518
v 1.49415 2.26319 1.53911
vn -0.763656 -0.643997 -0.0457953
v 1.49462 2.26347 1.53533
vn -0.69362 -0.675219 -0.250939
v 1.49557 2.26219 1.53756
vn -0.442292 -0.890154 -0.109559
v 1.45705 2.3294 1.52038
vn -0.563902 -0.423406 -0.709043
v 1.45936 2.32786 1.51986
vn 0.0950695 -0.131406 -0.986759
v 1.47589 2.29692 1.52649
vn -0.536569 -0.453729 -0.711494
v 1.48903 2.34849 1.5227
vn 0.707768 0.345759 -0.616048
v 1.50411 2.32283 1.52748
vn 0.724962 0.299376 -0.620326
v 1.48935 2.34576 1.52203
vn 0.18991 -0.0742118 -0.978993
v 1.52771 2.28322 1.54154
vn 0.927607 0.365655 0.0764306
v 1.52808 2.2816 1.53991
vn 0.999554 -0.0293927 -0.0053604
v 1.52764 2.28318 1.53772
vn 0.943926 0.302358 -0.132605
v 1.50763 2.27909 1.59663
vn 0.496196 -0.851625 0.168891
v 1.49782 2.26252 1.54063
vn 0.488896 -0.858172 0.156594
v 1.52641 2.27958 1.54269
vn 0.507976 -0.846752 0.158021
v 1.4774 2.27763 1.64641
vn -0.853116 -0.518381 -0.0589428
v 1.4863 2.26941 1.59474
vn -0.767871 -0.639675 -0.0344855
v 1.45467 2.33238 1.52364
vn -0.958447 -0.004269 -0.285239
v 1.45564 2.33036 1.52206
vn -0.880663 -0.354193 -0.31461
v 1.48718 2.35179 1.52599
vn 0.483374 0.856485 -0.181061
v 1.48738 2.3506 1.52323
vn 0.362726 0.758711 -0.541099
v 1.51151 2.29799 1.64887
vn 0.860101 0.506007 0.0646782
v 1.52626 2.28591 1.5446
vn 0.860554 0.505635 0.0614752
v 1.49895 2.28644 1.65515
vn 0.452331 -0.80434 0.385271
v 1.51093 2.29226 1.65211
vn 0.504698 -0.844069 0.181185
v 1.43898 2.34697 1.63935
vn -0.57318 0.817491 0.0563316
v 1.43887 2.34578 1.64143
vn -0.916035 0.190885 0.352765
v 1.43973 2.34359 1.64282
vn -0.749601 -0.271254 0.603754
v 1.44176 2.34228 1.64429
vn -0.182914 0.0963468 0.978397
v 1.47756 2.32277 1.65193
vn -0.13915 0.114005 0.983687
v 1.47175 2.36018 1.64645
vn -0.0878071 0.153321 0.984267
v 1.47171 2.36268 1.64513
vn 0.522689 0.497395 0.692383
v 1.47034 2.36456 1.6437
vn 0.224656 0.87186 0.43519
v 1.46946 2.36517 1.64155
vn -0.427826 0.901257 0.0685685
v 1.45717 2.35814 1.64093
vn -0.514766 0.855492 0.0561183
v 1.47913 2.27668 1.65513
vn -0.362726 -0.758711 0.541099
v 1.44025 2.34138 1.63376
vn -0.861252 -0.504418 -0.0617119
v 1.45558 2.33502 1.52625
vn -0.503372 0.844869 -0.181143
v 1.48021 2.35787 1.58362
vn 0.767871 0.639675 0.0344855
v 1.51087 2.29692 1.6563
vn 0.880663 0.354193 0.31461
v 1.49705 2.26211 1.53681
vn 0.454079 -0.888591 -0.064948
v 1.49617 2.26272 1.53466
vn -0.224656 -0.87186 -0.43519
v 1.4948 2.26461 1.53323
vn -0.525234 -0.489791 -0.69587
v 1.49476 2.2671 1.53191
vn 0.102584 -0.144303 -0.984202
v 1.49525 2.30828 1.52688
vn 0.13915 -0.114005 -0.983687
v 1.52475 2.28501 1.53407
vn 0.204972 -0.0831589 -0.975229
v 1.52678 2.2837 1.53554
vn 0.745991 0.275496 -0.606299
v 1.52764 2.28151 1.53693
vn 0.916035 -0.190885 -0.352765
v 1.52753 2.28031 1.53901
vn 0.596976 -0.800278 -0.056345
v 1.51553 2.27285 1.53788
vn 0.514765 -0.855492 -0.0561235
v 1.49215 2.26554 1.54213
vn -0.852662 -0.518754 -0.0621516
v 1.45591 2.33182 1.52096
vn -0.777933 0.0777547 -0.623518
v 1.48867 2.35008 1.52445
vn 0.756873 0.623394 -0.196273
v 1.52003 2.28955 1.59717
vn 0.92459 0.370702 0.0878267
v 1.48235 2.2752 1.65004
vn 0.485607 -0.855475 0.179858
v 1.48054 2.27564 1.65349
vn 0.390521 -0.836527 0.384338
v 1.46612 2.30341 1.58794
vn -0.856987 -0.511602 -0.0619342
v 1.45549 2.33345 1.52266
vn -0.509624 0.765426 -0.392945
v 1.48809 2.35121 1.52805
vn 0.767047 0.641221 0.0217824
v 1.51198 2.29611 1.65273
vn 0.924208 0.368444 0.100441
f 1//1 2//2 3//3
f 1//1 3//3 4//4
f 1//1 4//4 5//5
f 1//1 5//5 6//6
f 1//1 6//6 2//2
f 7//7 8//8 9//9
f 10//10 11//11 12//12
f 13//13 14//14 15//15
f 16//16 17//17 18//18
f 19//19 20//20 21//21
f 22//22 23//23 24//24
f 22//22 24//24 25//25
f 22//22 25//25 26//26
f 22//22 26//26 27//27
f 22//22 27//27 23//23
f 28//28 29//29 30//30
f 31//31 32//32 33//33
f 34//34 35//35 36//36
f 37//37 38//38 39//39
f 40//40 41//41 42//42
f 13//13 43//43 44//44
f 10//10 45//45 46//46
f 7//7 47//47 48//48
f 19//19 49//49 50//50
f 16//16 51//51 52//52
f 10//10 53//53 45//45
f 13//13 54//54 43//43
f 16//16 55//55 51//51
f 19//19 56//56 49//49
f 7//7 57//57 47//47
f 40//40 58//58 59//59
f 28//28 60//60 61//61
f 31//31 62//62 63//63
f 34//34 64//64 65//65
f 37//37 66//66 67//67
f 40//40 68//68 58//58
f 28//28 69//69 60//60
f 31//31 70//70 62//62
f 34//34 71//71 64//64
f 37//37 72//72 66//66
f 10//10 46//46 11//11
f 7//7 48//48 8//8
f 19//19 50//50 20//20
f 16//16 52//52 17//17
f 13//13 44//44 14//14
f 40//40 42//42 68//68
f 28//28 30//30 69//69
f 31//31 33//33 70//70
f 34//34 36//36 71//71
f 37//37 39//39 72//72
f 28//28 61//61 29//29
f 31//31 63//63 32//32
f 34//34 65//65 35//35
f 37//37 67//67 38//38
f 40//40 59//59 41//41
f 10//10 12//12 53//53
f 13//13 15//15 54//54
f 16//16 18//18 55//55
f 19//19 21//21 56//56
f 7//7 9//9 57//57
f 73//73 74//74 75//75
f 76//76 77//77 78//78
f 79//79 80//80 81//81
f 82//82 83//83 84//84
f 85//85 86//86 87//87
f 88//88 89//89 90//90
f 91//91 92//92 93//93
f 94//94 95//95 96//96
f 97//97 98//98 99//99
f 100//100 101//101 102//102
f 103//103 104//104 105//105
f 106//106 107//107 108//108
f 109//109 110//110 111//111
f 112//112 113//113 114//114
f 115//115 116//116 117//117
f 88//88 118//118 119//119
f 91//91 120//120 121//121
f 94//94 122//122 123//123
f 97//97 124//124 125//125
f 100//100 126//126 127//127
f 128//128 129//129 2//2
f 130//130 131//131 3//3
f 132//132 133//133 4//4
f 134//134 135//135 5//5
f 136//136 137//137 6//6
f 76//76 138//138 8//8
f 73//73 139//139 11//11
f 85//85 140//140 14//14
f 82//82 141//141 17//17
f 79//79 142//142 20//20
f 143//143 144//144 23//23
f 145//145 146//146 24//24
f 147//147 148//148 25//25
f 149//149 150//150 26//26
f 151//151 152//152 27//27
f 103//103 153//153 29//29
f 106//106 154//154 32//32
f 109//109 155//155 35//35
f 112//112 156//156 38//38
f 115//115 157//157 41//41
f 73//73 75//75 43//43
f 76//76 78//78 45//45
f 79//79 81//81 47//47
f 82//82 84//84 49//49
f 85//85 87//87 51//51
f 88//88 90//90 53//53
f 91//91 93//93 54//54
f 94//94 96//96 55//55
f 97//97 99//99 56//56
f 100//100 102//102 57//57
f 103//103 105//105 58//58
f 106//106 108//108 60//60
f 109//109 111//111 62//62
f 112//112 114//114 64//64
f 115//115 117//117 66//66
f 88//88 119//119 68//68
f 91//91 121//121 69//69
f 94//94 123//123 70//70
f 97//97 125//125 71//71
f 100//100 127//127 72//72
f 130//130 74//74 46//46
f 132//132 77//77 48//48
f 134//134 80//80 50//50
f 136//136 83//83 52//52
f 128//128 86//86 44//44
f 158//158 89//89 42//42
f 159//159 92//92 30//30
f 160//160 95//95 33//33
f 161//161 98//98 36//36
f 162//162 101//101 39//39
f 145//145 104//104 61//61
f 147//147 107//107 63//63
f 149//149 110//110 65//65
f 151//151 113//113 67//67
f 143//143 116//116 59//59
f 159//159 118//118 12//12
f 160//160 120//120 15//15
f 161//161 122//122 18//18
f 162//162 124//124 21//21
f 158//158 126//126 9//9
f 130//130 129//129 74//74
f 132//132 131//131 77//77
f 134//134 133//133 80//80
f 136//136 135//135 83//83
f 128//128 137//137 86//86
f 158//158 138//138 89//89
f 159//159 139//139 92//92
f 160//160 140//140 95//95
f 161//161 141//141 98//98
f 162//162 142//142 101//101
f 145//145 144//144 104//104
f 147//147 146//146 107//107
f 149//149 148//148 110//110
f 151//151 150//150 113//113
f 143//143 152//152 116//116
f 159//159 153//153 118//118
f 160//160 154//154 120//120
f 161//161 155//155 122//122
f 162//162 156//156 124//124
f 158//158 157//157 126//126
f 130//130 3//3 129//129
f 132//132 4//4 131//131
f 134//134 5//5 133//133
f 136//136 6//6 135//135
f 128//128 2//2 137//137
f 158//158 9//9 138//138
f 159//159 12//12 139//139
f 160//160 15//15 140//140
f 161//161 18//18 141//141
f 162//162 21//21 142//142
f 145//145 24//24 144//144
f 147//147 25//25 146//146
f 149//149 26//26 148//148
f 151//151 27//27 150//150
f 143//143 23//23 152//152
f 159//159 30//30 153//153
f 160//160 33//33 154//154
f 161//161 36//36 155//155
f 162//162 39//39 156//156
f 158//158 42//42 157//157
f 128//128 44//44 75//75
f 130//130 46//46 78//78
f 132//132 48//48 81//81
f 134//134 50//50 84//84
f 136//136 52//52 87//87
f 76//76 45//45 90//90
f 73//73 43//43 93//93
f 85//85 51//51 96//96
f 82//82 49//49 99//99
f 79//79 47//47 102//102
f 143//143 59//59 105//105
f 145//145 61//61 108//108
f 147//147 63//63 111//111
f 149//149 65//65 114//114
f 151//151 67//67 117//117
f 103//103 58//58 119//119
f 106//106 60//60 121//121
f 109//109 62//62 123//123
f 112//112 64//64 125//125
f 115//115 66//66 127//127
f 73//73 11//11 74//74
f 76//76 8//8 77//77
f 79//79 20//20 80//80
f 82//82 17//17 83//83
f 85//85 14//14 86//86
f 88//88 68//68 89//89
f 91//91 69//69 92//92
f 94//94 70//70 95//95
f 97//97 71//71 98//98
f 100//100 72//72 101//101
f 103//103 29//29 104//104
f 106//106 32//32 107//107
f 109//109 35//35 110//110
f 112//112 38//38 113//113
f 115//115 41//41 116//116
f 88//88 53//53 118//118
f 91//91 54//54 120//120
f 94//94 55//55 122//122
f 97//97 56//56 124//124
f 100//100 57//57 126//126
f 128//128 75//75 129//129
f 130//130 78//78 131//131
f 132//132 81//81 133//133
f 134//134 84//84 135//135
f 136//136 87//87 137//137
f 76//76 90//90 138//138
f 73//73 93//93 139//139
f 85//85 96//96 140//140
f 82//82 99//99 141//141
f 79//79 102//102 142//142
f 143//143 105//105 144//144
f 145//145 108//108 146//146
f 147//147 111//111 148//148
f 149//149 114//114 150//150
f 151//151 117//117 152//152
f 103//103 119//119 153//153
f 106//106 121//121 154//154
f 109//109 123//123 155//155
f 112//112 125//125 156//156
f 115//115 127//127 157//157
f 129//129 3//3 2//2
f 131//131 4//4 3//3
f 133//133 5//5 4//4
f 135//135 6//6 5//5
f 137//137 2//2 6//6
f 138//138 9//9 8//8
f 139//139 12//12 11//11
f 140//140 15//15 14//14
f 141//141 18//18 17//17
f 142//142 21//21 20//20
f 144//144 24//24 23//23
f 146//146 25//25 24//24
f 148//148 26//26 25//25
f 150//150 27//27 26//26
f 152//152 23//23 27//27
f 153//153 30//30 29//29
f 154//154 33//33 32//32
f 155//155 36//36 35//35
f 156//156 39//39 38//38
f 157//157 42//42 41//41
f 75//75 44//44 43//43
f 78//78 46//46 45//45
f 81//81 48//48 47//47
f 84//84 50//50 49//49
f 87//87 52//52 51//51
f 90//90 45//45 53//53
f 93//93 43//43 54//54
f 96//96 51//51 55//55
f 99//99 49//49 56//56
f 102//102 47//47 57//57
f 105//105 59//59 58//58
f 108//108 61//61 60//60
f 111//111 63//63 62//62
f 114//114 65//65 64//64
f 117//117 67//67 66//66
f 119//119 58//58 68//68
f 121//121 60//60 69//69
f 123//123 62//62 70//70
f 125//125 64//64 71//71
f 127//127 66//66 72//72
f 74//74 11//11 46//46
f 77//77 8//8 48//48
f 80//80 20//20 50//50
f 83//83 17//17 52//52
f 86//86 14//14 44//44
f 89//89 68//68 42//42
f 92//92 69//69 30//30
f 95//95 70//70 33//33
f 98//98 71//71 36//36
f 101//101 72//72 39//39
f 104//104 29//29 61//61
f 107//107 32//32 63//63
f 110//110 35//35 65//65
f 113//113 38//38 67//67
f 116//116 41//41 59//59
f 118//118 53//53 12//12
f 120//120 54//54 15//15
f 122//122 55//55 18//18
f 124//124 56//56 21//21
f 126//126 57//57 9//9
f 129//129 75//75 74//74
f 131//131 78//78 77//77
f 133//133 81//81 80//80
f 135//135 84//84 83//83
f 137//137 87//87 86//86
f 138//138 90//90 89//89
f 139//139 93//93 92//92
f 140//140 96//96 95//95
f 141//141 99//99 98//98
f 142//142 102//102 101//101
f 144//144 105//105 104//104
f 146//146 108//108 107//107
f 148//148 111//111 110//110
f 150//150 114//114 113//113
f 152//152 117//117 116//116
f 153//153 119//119 118//118
f 154//154 121//121 120//120
f 155//155 123//123 122//122
f 156//156 125//125 124//124
f 157//157 127//127 126//126
