# Created by Open3D 
# object name: part_045
# number of vertices: 162
# number of triangles: 320
v 5.96711 -5.93919 1.51442
vn 0.963732 0.0489815 0.262337
v 5.96478 -5.95958 1.52061
vn 0.814869 -0.0460512 0.577813
v 5.96833 -5.96 1.50971
vn 0.986955 -0.092638 0.131677
v 5.96884 -5.93905 1.49994
vn 0.997946 0.0563485 -0.0304872
v 5.96638 -5.9251 1.51036
vn 0.956538 0.257314 0.137206
v 5.96293 -5.92632 1.52123
vn 0.801818 0.127887 0.583724
v 5.9433 -5.93209 1.06137
vn 0.931008 0.0587531 -0.360238
v 5.94498 -5.95303 1.06528
vn 0.967569 -0.086859 -0.237203
v 5.94031 -5.95228 1.05482
vn 0.749749 -0.0266197 -0.661187
v 5.94714 -5.95926 1.28795
vn 0.094149 -0.995346 -0.0205499
v 5.95463 -5.9628 1.49925
vn 0.0781268 -0.996776 -0.0182938
v 5.93514 -5.96018 1.28857
vn 0.0582652 -0.998126 -0.0187068
v 5.76983 -5.97285 1.53546
vn 0.065445 -0.979931 0.188285
v 5.76992 -5.97171 1.53843
vn 0.0647264 -0.263957 0.96236
v 5.59299 -5.98255 1.54494
vn 0.0633362 -0.94364 0.324858
v 5.76774 -5.93541 1.53616
vn -0.0437427 0.973455 0.224661
v 5.93601 -5.92523 1.52294
vn -0.0499197 0.993233 0.104863
v 5.59894 -5.94439 1.54036
vn -0.0521787 0.993103 0.10499
v 5.94741 -5.9207 1.33547
vn -0.0173489 0.999712 0.0165815
v 5.93973 -5.91689 1.0872
vn 0.0368599 0.999237 0.0128914
v 5.93024 -5.91684 1.07775
vn -0.0336735 0.999301 0.0162477
v 5.54509 -5.95473 1.08195
vn -0.963731 -0.0489813 -0.262342
v 5.54967 -5.97449 1.07501
vn -0.805857 -0.115079 -0.58082
v 5.54621 -5.9757 1.08588
vn -0.970757 -0.197087 -0.137064
v 5.5434 -5.95532 1.09642
vn -0.997946 -0.0563485 0.0304878
v 5.54426 -5.94081 1.08653
vn -0.979533 0.154054 -0.129549
v 5.54781 -5.94123 1.07562
vn -0.812279 0.059336 -0.580244
v 5.56765 -5.98084 1.30756
vn 0.0173539 -0.999712 -0.0165818
v 5.56016 -5.97735 1.09625
vn 0.0334306 -0.999263 -0.0188558
v 5.57968 -5.9804 1.30693
vn 0.053334 -0.998406 -0.018452
v 5.5689 -5.96184 1.53499
vn -0.931007 -0.0587531 0.360242
v 5.56957 -5.98267 1.53031
vn -0.951372 -0.202859 0.231816
v 5.57415 -5.98179 1.5408
vn -0.740739 -0.134501 0.658191
v 5.56791 -5.94228 1.35508
vn -0.0941554 0.995345 0.0205502
v 5.57071 -5.94538 1.50975
vn -0.149368 0.988482 0.0243329
v 5.58015 -5.94462 1.51922
vn -0.0781362 0.99671 0.0215461
v 5.74276 -5.92795 1.06078
vn -0.065445 0.979931 -0.188285
v 5.57443 -5.93708 1.07401
vn -0.0612608 0.995814 -0.0678342
v 5.9115 -5.91792 1.0566
vn -0.0590031 0.995942 -0.067955
v 5.74485 -5.9654 1.06008
vn 0.0437427 -0.973455 -0.224661
v 5.74463 -5.96417 1.05716
vn -0.0369122 -0.233642 -0.971622
v 5.92166 -5.95498 1.05062
vn 0.0415153 -0.932132 -0.359731
v 5.93816 -5.96372 1.52223
vn 0.0612608 -0.995814 0.0678342
v 5.94668 -5.96244 1.52667
vn 0.0774536 -0.942842 0.324115
v 5.94189 -5.95543 1.08649
vn 0.148625 -0.988597 -0.024212
v 5.96303 -5.96174 1.48888
vn 0.148723 -0.988625 -0.0224067
v 5.94303 -5.91813 1.06593
vn 0.937317 0.263033 -0.228582
v 5.94653 -5.93239 1.07559
vn 0.995737 0.0570086 -0.0725111
v 5.95243 -5.92346 1.49998
vn -0.0332257 0.999263 0.0192257
v 5.96088 -5.92319 1.48959
vn 0.038337 0.999158 0.0146351
v 5.76796 -5.93664 1.53908
vn 0.0298575 0.331647 0.942931
v 5.94462 -5.92571 1.52735
vn -0.0273963 0.932929 0.359016
v 5.93244 -5.95618 1.07702
vn 0.077983 -0.99673 -0.0211567
v 5.60109 -5.98289 1.53964
vn 0.0590031 -0.995942 0.067955
v 5.59094 -5.94582 1.54562
vn -0.0415153 0.932132 0.359731
v 5.9354 -5.92115 1.33668
vn -0.0533328 0.998406 0.018452
v 5.93845 -5.91902 1.05544
vn 0.736436 0.147388 -0.660256
v 5.57659 -5.97558 1.0733
vn 0.0499197 -0.993233 -0.104863
v 5.56797 -5.97509 1.06889
vn 0.0273963 -0.932929 -0.359016
v 5.57286 -5.98392 1.50903
vn -0.0375082 -0.999215 -0.0127859
v 5.55171 -5.97761 1.10664
vn -0.0376128 -0.999186 -0.0145906
v 5.56761 -5.94777 1.53096
vn -0.96031 0.148325 0.23623
v 5.5657 -5.96197 1.52077
vn -0.995737 -0.0570086 0.072511
v 5.55796 -5.938 1.09699
vn -0.078004 0.996781 0.0185362
v 5.54956 -5.93907 1.10736
vn -0.148102 0.988717 0.022446
v 5.74267 -5.92909 1.05781
vn -0.0685747 0.361007 -0.930039
v 5.56592 -5.93836 1.06957
vn -0.0774536 0.942842 -0.324115
v 5.91365 -5.95641 1.05588
vn 0.0521787 -0.993103 -0.10499
v 5.58235 -5.98397 1.51849
vn 0.0335884 -0.999308 -0.0159941
v 5.57229 -5.94853 1.54141
vn -0.746899 0.0398233 0.663744
v 5.57994 -5.94136 1.35504
vn -0.0582638 0.998126 0.0187068
v 5.9196 -5.91825 1.0513
vn -0.0633362 0.94364 -0.324858
v 5.94916 -5.96325 1.51385
vn 0.0611577 -0.998076 0.0101679
v 5.96091 -5.9622 1.50962
vn 0.131477 -0.991242 0.0123721
v 5.95536 -5.96242 1.52088
vn 0.115499 -0.989482 0.0870957
v 5.94416 -5.9544 1.07274
vn 0.322989 -0.945526 -0.0407291
v 5.94803 -5.95327 1.08597
vn 0.994095 -0.0917577 -0.0579199
v 5.95645 -5.9578 1.28748
vn 0.329649 -0.943557 -0.0321145
v 5.94207 -5.91714 1.07343
vn 0.216526 0.97627 -0.00368164
v 5.9567 -5.92106 1.33278
vn 0.222353 0.97496 0.00359663
v 5.94607 -5.91833 1.08662
vn 0.95821 0.281615 -0.0502614
v 5.94698 -5.92416 1.51458
vn -0.050393 0.997608 0.0473126
v 5.95324 -5.92456 1.52158
vn 0.00473626 0.992274 0.123976
v 5.95876 -5.92374 1.51034
vn 0.0202655 0.998573 0.0494039
v 5.76879 -5.95052 1.53976
vn 0.0524752 -0.0156518 0.9985
v 5.9469 -5.96075 1.52902
vn 0.0764832 -0.0728591 0.994405
v 5.94504 -5.92746 1.52964
vn 0.0693382 0.0526733 0.996202
v 5.92547 -5.95619 1.06307
vn 0.0581171 -0.997169 -0.0477081
v 5.9309 -5.95512 1.05546
vn 0.104117 -0.986083 -0.129619
v 5.9376 -5.95525 1.06607
vn 0.12783 -0.990154 -0.0570541
v 5.58931 -5.98371 1.53244
vn 0.0534368 -0.998515 0.0105686
v 5.59979 -5.98317 1.51782
vn 0.0553661 -0.99832 -0.0171063
v 5.7693 -5.9736 1.52428
vn 0.0572619 -0.998312 0.00965811
v 5.57893 -5.94709 1.54471
vn -0.324582 0.436315 0.839211
v 5.57884 -5.96131 1.54568
vn -0.32791 -0.0359013 0.944026
v 5.59095 -5.94759 1.54793
vn 0.0278501 0.0503137 0.998345
v 5.75768 -5.93118 1.34605
vn -0.0558003 0.998269 0.0185795
v 5.59757 -5.94344 1.51856
vn -0.0562152 0.998209 0.0204374
v 5.93502 -5.92426 1.50113
vn -0.0551928 0.998268 0.020385
v 5.93168 -5.91821 1.05219
vn 0.272213 0.500573 -0.821783
v 5.92878 -5.91726 1.05617
vn -0.00665232 0.995668 -0.092737
v 5.93816 -5.9174 1.05932
vn 0.163163 0.977145 -0.136252
v 5.56561 -5.97665 1.08166
vn 0.050393 -0.997608 -0.0473126
v 5.55384 -5.97707 1.0859
vn -0.0202655 -0.998573 -0.0494039
v 5.55935 -5.97625 1.07466
vn -0.00473626 -0.992274 -0.123976
v 5.57052 -5.98366 1.52281
vn -0.215507 -0.97649 0.00495398
v 5.56652 -5.98248 1.50962
vn -0.977562 -0.204023 0.0524153
v 5.55824 -5.98045 1.30806
vn -0.222353 -0.97496 -0.00359663
v 5.56844 -5.94641 1.5235
vn -0.321576 0.945927 0.0425525
v 5.55849 -5.9437 1.35335
vn -0.329649 0.943557 0.0321145
v 5.56457 -5.94754 1.51027
vn -0.98768 0.145111 0.0585701
v 5.56343 -5.93755 1.08239
vn -0.0611577 0.998076 -0.0101679
v 5.55724 -5.93839 1.07536
vn -0.115499 0.989482 -0.0870957
v 5.55169 -5.9386 1.08662
vn -0.131477 0.991242 -0.0123721
v 5.7434 -5.94295 1.05662
vn -0.0524752 0.0156518 -0.9985
v 5.56755 -5.97335 1.0666
vn -0.069952 -0.0439847 -0.99658
v 5.56569 -5.94005 1.06722
vn -0.0768405 0.081543 -0.993703
v 5.91502 -5.95736 1.07768
vn 0.0562345 -0.998216 -0.0200533
v 5.74549 -5.9665 1.07123
vn 0.0542941 -0.997428 -0.0468009
v 5.58381 -5.98354 1.54007
vn 0.00665232 -0.995668 0.092737
v 5.57715 -5.98402 1.52945
vn -0.0166149 -0.999662 0.0200163
v 5.5817 -5.94568 1.54078
vn -0.104117 0.986083 0.129619
v 5.57238 -5.94675 1.5376
vn -0.27072 0.947157 0.172061
v 5.9128 -5.91763 1.07842
vn -0.0553545 0.998316 0.0173578
v 5.57535 -5.93682 1.09585
vn -0.0563711 0.998258 0.0174099
v 5.93335 -5.93228 1.05069
vn 0.32791 0.0359013 -0.944026
v 5.91978 -5.91992 1.04892
vn -0.035352 0.0838978 -0.995847
v 5.95852 -5.96113 1.52454
vn 0.424052 -0.342449 0.838396
v 5.96429 -5.96124 1.51677
vn 0.285711 -0.951623 0.11306
v 5.96673 -5.96113 1.50234
vn 0.323918 -0.945807 -0.0229142
v 5.9692 -5.95958 1.48882
vn 0.99454 -0.0918867 -0.0494695
v 5.95844 -5.93523 1.28773
vn 0.997062 0.0566909 -0.0515114
v 5.96724 -5.92464 1.48947
vn 0.9657 0.256183 -0.0423472
v 5.96465 -5.92388 1.50303
vn 0.215175 0.976463 0.0148225
v 5.96224 -5.92458 1.51746
vn 0.178142 0.972679 0.148867
v 5.95654 -5.92562 1.5252
vn 0.357659 0.475093 0.803969
v 5.95834 -5.93973 1.52608
vn 0.425088 0.00691069 0.905126
v 5.94021 -5.95406 1.05864
vn 0.27072 -0.947157 -0.172061
v 5.93724 -5.96399 1.50039
vn 0.0563859 -0.998262 -0.0171585
v 5.59281 -5.98088 1.54731
vn 0.0347956 -0.0752257 0.996559
v 5.7671 -5.93431 1.52501
vn -0.0542941 0.997428 0.0468009
v 5.93545 -5.91678 1.06679
vn 0.0166149 0.999662 -0.0200163
v 5.55606 -5.97518 1.07104
vn -0.385007 -0.356219 -0.851397
v 5.55035 -5.97622 1.07878
vn -0.178142 -0.972679 -0.148867
v 5.54794 -5.97693 1.09321
vn -0.216428 -0.976214 -0.0128619
v 5.54535 -5.97616 1.10677
vn -0.978005 -0.203894 0.0439645
v 5.55374 -5.95824 1.30864
vn -0.997062 -0.0566909 0.0515114
v 5.5434 -5.94122 1.10742
vn -0.983966 0.171179 0.0500774
v 5.54586 -5.93967 1.0939
vn -0.32477 0.945481 0.0242828
v 5.5483 -5.93957 1.07947
vn -0.285711 0.951623 -0.11306
v 5.55407 -5.93968 1.0717
vn -0.410018 0.46179 -0.786534
v 5.55385 -5.95386 1.0703
vn -0.425088 -0.00691069 -0.905126
v 5.57757 -5.97655 1.09511
vn 0.0552139 -0.998274 -0.0200008
v 5.57443 -5.98341 1.53691
vn -0.163163 -0.977145 0.136252
v 5.575 -5.94556 1.53016
vn -0.12783 0.990154 0.0570541
v 5.74329 -5.92721 1.07196
vn -0.0572619 0.998312 -0.00965811
v 5.92164 -5.95322 1.0483
vn -0.0282645 -0.041614 -0.998734
v 5.93366 -5.95371 1.05153
vn 0.333301 -0.315386 -0.888505
v 5.75741 -5.97037 1.29775
vn 0.0558002 -0.998269 -0.0185795
v 5.58092 -5.9826 1.54405
vn -0.294246 -0.383286 0.875506
v 5.58712 -5.94462 1.53317
vn -0.0581171 0.997169 0.0477081
v 5.92329 -5.91709 1.0638
vn -0.0534368 0.998515 -0.0105686
f 1//1 2//2 3//3
f 1//1 3//3 4//4
f 1//1 4//4 5//5
f 1//1 5//5 6//6
f 1//1 6//6 2//2
f 7//7 8//8 9//9
f 10//10 11//11 12//12
f 13//13 14//14 15//15
f 16//16 17//17 18//18
f 19//19 20//20 21//21
f 22//22 23//23 24//24
f 22//22 24//24 25//25
f 22//22 25//25 26//26
f 22//22 26//26 27//27
f 22//22 27//27 23//23
f 28//28 29//29 30//30
f 31//31 32//32 33//33
f 34//34 35//35 36//36
f 37//37 38//38 39//39
f 40//40 41//41 42//42
f 13//13 43//43 44//44
f 10//10 45//45 46//46
f 7//7 47//47 48//48
f 19//19 49//49 50//50
f 16//16 51//51 52//52
f 10//10 53//53 45//45
f 13//13 54//54 43//43
f 16//16 55//55 51//51
f 19//19 56//56 49//49
f 7//7 57//57 47//47
f 40//40 58//58 59//59
f 28//28 60//60 61//61
f 31//31 62//62 63//63
f 34//34 64//64 65//65
f 37//37 66//66 67//67
f 40//40 68//68 58//58
f 28//28 69//69 60//60
f 31//31 70//70 62//62
f 34//34 71//71 64//64
f 37//37 72//72 66//66
f 10//10 46//46 11//11
f 7//7 48//48 8//8
f 19//19 50//50 20//20
f 16//16 52//52 17//17
f 13//13 44//44 14//14
f 40//40 42//42 68//68
f 28//28 30//30 69//69
f 31//31 33//33 70//70
f 34//34 36//36 71//71
f 37//37 39//39 72//72
f 28//28 61//61 29//29
f 31//31 63//63 32//32
f 34//34 65//65 35//35
f 37//37 67//67 38//38
f 40//40 59//59 41//41
f 10//10 12//12 53//53
f 13//13 15//15 54//54
f 16//16 18//18 55//55
f 19//19 21//21 56//56
f 7//7 9//9 57//57
f 73//73 74//74 75//75
f 76//76 77//77 78//78
f 79//79 80//80 81//81
f 82//82 83//83 84//84
f 85//85 86//86 87//87
f 88//88 89//89 90//90
f 91//91 92//92 93//93
f 94//94 95//95 96//96
f 97//97 98//98 99//99
f 100//100 101//101 102//102
f 103//103 104//104 105//105
f 106//106 107//107 108//108
f 109//109 110//110 111//111
f 112//112 113//113 114//114
f 115//115 116//116 117//117
f 88//88 118//118 119//119
f 91//91 120//120 121//121
f 94//94 122//122 123//123
f 97//97 124//124 125//125
f 100//100 126//126 127//127
f 128//128 129//129 2//2
f 130//130 131//131 3//3
f 132//132 133//133 4//4
f 134//134 135//135 5//5
f 136//136 137//137 6//6
f 76//76 138//138 8//8
f 73//73 139//139 11//11
f 85//85 140//140 14//14
f 82//82 141//141 17//17
f 79//79 142//142 20//20
f 143//143 144//144 23//23
f 145//145 146//146 24//24
f 147//147 148//148 25//25
f 149//149 150//150 26//26
f 151//151 152//152 27//27
f 103//103 153//153 29//29
f 106//106 154//154 32//32
f 109//109 155//155 35//35
f 112//112 156//156 38//38
f 115//115 157//157 41//41
f 73//73 75//75 43//43
f 76//76 78//78 45//45
f 79//79 81//81 47//47
f 82//82 84//84 49//49
f 85//85 87//87 51//51
f 88//88 90//90 53//53
f 91//91 93//93 54//54
f 94//94 96//96 55//55
f 97//97 99//99 56//56
f 100//100 102//102 57//57
f 103//103 105//105 58//58
f 106//106 108//108 60//60
f 109//109 111//111 62//62
f 112//112 114//114 64//64
f 115//115 117//117 66//66
f 88//88 119//119 68//68
f 91//91 121//121 69//69
f 94//94 123//123 70//70
f 97//97 125//125 71//71
f 100//100 127//127 72//72
f 130//130 74//74 46//46
f 132//132 77//77 48//48
f 134//134 80//80 50//50
f 136//136 83//83 52//52
f 128//128 86//86 44//44
f 158//158 89//89 42//42
f 159//159 92//92 30//30
f 160//160 95//95 33//33
f 161//161 98//98 36//36
f 162//162 101//101 39//39
f 145//145 104//104 61//61
f 147//147 107//107 63//63
f 149//149 110//110 65//65
f 151//151 113//113 67//67
f 143//143 116//116 59//59
f 159//159 118//118 12//12
f 160//160 120//120 15//15
f 161//161 122//122 18//18
f 162//162 124//124 21//21
f 158//158 126//126 9//9
f 130//130 129//129 74//74
f 132//132 131//131 77//77
f 134//134 133//133 80//80
f 136//136 135//135 83//83
f 128//128 137//137 86//86
f 158//158 138//138 89//89
f 159//159 139//139 92//92
f 160//160 140//140 95//95
f 161//161 141//141 98//98
f 162//162 142//142 101//101
f 145//145 144//144 104//104
f 147//147 146//146 107//107
f 149//149 148//148 110//110
f 151//151 150//150 113//113
f 143//143 152//152 116//116
f 159//159 153//153 118//118
f 160//160 154//154 120//120
f 161//161 155//155 122//122
f 162//162 156//156 124//124
f 158//158 157//157 126//126
f 130//130 3//3 129//129
f 132//132 4//4 131//131
f 134//134 5//5 133//133
f 136//136 6//6 135//135
f 128//128 2//2 137//137
f 158//158 9//9 138//138
f 159//159 12//12 139//139
f 160//160 15//15 140//140
f 161//161 18//18 141//141
f 162//162 21//21 142//142
f 145//145 24//24 144//144
f 147//147 25//25 146//146
f 149//149 26//26 148//148
f 151//151 27//27 150//150
f 143//143 23//23 152//152
f 159//159 30//30 153//153
f 160//160 33//33 154//154
f 161//161 36//36 155//155
f 162//162 39//39 156//156
f 158//158 42//42 157//157
f 128//128 44//44 75//75
f 130//130 46//46 78//78
f 132//132 48//48 81//81
f 134//134 50//50 84//84
f 136//136 52//52 87//87
f 76//76 45//45 90//90
f 73//73 43//43 93//93
f 85//85 51//51 96//96
f 82//82 49//49 99//99
f 79//79 47//47 102//102
f 143//143 59//59 105//105
f 145//145 61//61 108//108
f 147//147 63//63 111//111
f 149//149 65//65 114//114
f 151//151 67//67 117//117
f 103//103 58//58 119//119
f 106//106 60//60 121//121
f 109//109 62//62 123//123
f 112//112 64//64 125//125
f 115//115 66//66 127//127
f 73//73 11//11 74//74
f 76//76 8//8 77//77
f 79//79 20//20 80//80
f 82//82 17//17 83//83
f 85//85 14//14 86//86
f 88//88 68//68 89//89
f 91//91 69//69 92//92
f 94//94 70//70 95//95
f 97//97 71//71 98//98
f 100//100 72//72 101//101
f 103//103 29//29 104//104
f 106//106 32//32 107//107
f 109//109 35//35 110//110
f 112//112 38//38 113//113
f 115//115 41//41 116//116
f 88//88 53//53 118//118
f 91//91 54//54 120//120
f 94//94 55//55 122//122
f 97//97 56//56 124//124
f 100//100 57//57 126//126
f 128//128 75//75 129//129
f 130//130 78//78 131//131
f 132//132 81//81 133//133
f 134//134 84//84 135//135
f 136//136 87//87 137//137
f 76//76 90//90 138//138
f 73//73 93//93 139//139
f 85//85 96//96 140//140
f 82//82 99//99 141//141
f 79//79 102//102 142//142
f 143//143 105//105 144//144
f 145//145 108//108 146//146
f 147//147 111//111 148//148
f 149//149 114//114 150//150
f 151//151 117//117 152//152
f 103//103 119//119 153//153
f 106//106 121//121 154//154
f 109//109 123//123 155//155
f 112//112 125//125 156//156
f 115//115 127//127 157//157
f 129//129 3//3 2//2
f 131//131 4//4 3//3
f 133//133 5//5 4//4
f 135//135 6//6 5//5
f 137//137 2//2 6//6
f 138//138 9//9 8//8
f 139//139 12//12 11//11
f 140//140 15//15 14//14
f 141//141 18//18 17//17
f 142//142 21//21 20//20
f 144//144 24//24 23//23
f 146//146 25//25 24//24
f 148//148 26//26 25//25
f 150//150 27//27 26//26
f 152//152 23//23 27//27
f 153//153 30//30 29//29
f 154//154 33//33 32//32
f 155//155 36//36 35//35
f 156//156 39//39 38//38
f 157//157 42//42 41//41
f 75//75 44//44 43//43
f 78//78 46//46 45//45
f 81//81 48//48 47//47
f 84//84 50//50 49//49
f 87//87 52//52 51//51
f 90//90 45//45 53//53
f 93//93 43//43 54//54
f 96//96 51//51 55//55
f 99//99 49//49 56//56
f 102//102 47//47 57//57
f 105//105 59//59 58//58
f 108//108 61//61 60//60
f 111//111 63//63 62//62
f 114//114 65//65 64//64
f 117//117 67//67 66//66
f 119//119 58//58 68//68
f 121//121 60//60 69//69
f 123//123 62//62 70//70
f 125//125 64//64 71//71
f 127//127 66//66 72//72
f 74//74 11//11 46//46
f 77//77 8//8 48//48
f 80//80 20//20 50//50
f 83//83 17//17 52//52
f 86//86 14//14 44//44
f 89//89 68//68 42//42
f 92//92 69//69 30//30
f 95//95 70//70 33//33
f 98//98 71//71 36//36
f 101//101 72//72 39//39
f 104//104 29//29 61//61
f 107//107 32//32 63//63
f 110//110 35//35 65//65
f 113//113 38//38 67//67
f 116//116 41//41 59//59
f 118//118 53//53 12//12
f 120//120 54//54 15//15
f 122//122 55//55 18//18
f 124//124 56//56 21//21
f 126//126 57//57 9//9
f 129//129 75//75 74//74
f 131//131 78//78 77//77
f 133//133 81//81 80//80
f 135//135 84//84 83//83
f 137//137 87//87 86//86
f 138//138 90//90 89//89
f 139//139 93//93 92//92
f 140//140 96//96 95//95
f 141//141 99//99 98//98
f 142//142 102//102 101//101
f 144//144 105//105 104//104
f 146//146 108//108 107//107
f 148//148 111//111 110//110
f 150//150 114//114 113//113
f 152//152 117//117 116//116
f 153//153 119//119 118//118
f 154//154 121//121 120//120
f 155//155 123//123 122//122
f 156//156 125//125 124//124
f 157//157 127//127 126//126
