# Created by Open3D 
# object name: part_012
# number of vertices: 162
# number of triangles: 320
v 3.00973 3.84602 0.607556
vn -0.371963 0.0305981 0.927743
v 3.00093 3.82574 0.601929
vn -0.685783 -0.0973474 0.721267
v 3.01569 3.82512 0.608789
vn -0.226574 -0.19776 0.953706
v 3.02965 3.84591 0.611897
vn -0.0420615 0.0323389 0.998592
v 3.01575 3.86005 0.60766
vn -0.220158 0.349708 0.910623
v 3.00099 3.85904 0.600853
vn -0.686575 0.165243 0.708032
v 3.64074 3.84533 0.618741
vn 0.338914 0.0298249 0.940345
v 3.6347 3.82444 0.619762
vn 0.1922 -0.198214 0.96113
v 3.64969 3.82503 0.613429
vn 0.659574 -0.0988091 0.745116
v 3.32547 3.82208 0.598775
vn -0.00208083 -0.998419 0.056173
v 3.03152 3.82218 0.587733
vn -0.00293411 -0.998931 0.0461275
v 3.32581 3.8212 0.579361
vn -0.00168598 -0.999426 0.0338303
v 2.99983 3.81344 0.286241
vn -0.151833 -0.987973 0.0292692
v 2.99574 3.81463 0.28613
vn -0.941908 -0.335822 -0.00580068
v 3.00442 3.80456 0.000440959
vn -0.254972 -0.966693 0.0222318
v 2.99989 3.85093 0.285029
vn -0.148563 0.988298 -0.034594
v 3.00137 3.86026 0.557474
vn -0.0606581 0.997625 -0.0326365
v 3.01101 3.84264 0.0127734
vn -0.0606316 0.99758 -0.034043
v 3.26036 3.86148 0.596349
vn 0.00123599 0.999964 -0.00840122
v 3.60561 3.86101 0.611109
vn 0.00123697 0.999676 0.0254147
v 3.61968 3.86093 0.596884
vn 0.00226683 0.999826 -0.018496
v 3.65213 3.82452 -0.024772
vn 0.371962 -0.0305979 -0.927743
v 3.66086 3.80462 -0.0178467
vn 0.685374 -0.145983 -0.713408
v 3.6461 3.8036 -0.0246538
vn 0.225815 -0.259668 -0.938925
v 3.63221 3.82419 -0.0290987
vn 0.0420612 -0.0323402 -0.998591
v 3.64616 3.83854 -0.0257829
vn 0.221221 0.289456 -0.931277
v 3.66092 3.83791 -0.0189227
vn 0.687043 0.116912 -0.71715
v 3.33632 3.80224 -0.0144974
vn -0.00123605 -0.999964 0.00840435
v 3.63026 3.80208 -0.00345313
vn -0.000383323 -0.999829 0.0184635
v 3.33597 3.80262 0.00493282
vn -0.00163145 -0.999525 0.0307654
v 3.02112 3.82521 -0.035957
vn -0.338918 -0.0298264 -0.940343
v 3.02709 3.80427 -0.0356261
vn -0.192962 -0.259215 -0.946347
v 3.0121 3.80532 -0.0293463
vn -0.659977 -0.144522 -0.737255
v 3.27121 3.84165 -0.0169238
vn 0.00208111 0.998419 -0.0561732
v 3.05631 3.84123 -0.0293494
vn 0.00197918 0.99587 -0.0907668
v 3.04223 3.84211 -0.0151504
vn 0.000600733 0.998929 -0.04627
v 3.66202 3.85021 0.296766
vn 0.151826 0.987974 -0.0292695
v 3.66054 3.84194 0.0242868
vn 0.0639761 0.997444 -0.0318343
v 3.6509 3.85955 0.568988
vn 0.0639576 0.997489 -0.0304276
v 3.66196 3.81272 0.297977
vn 0.14855 -0.9883 0.0345935
v 3.66605 3.81391 0.298012
vn 0.94079 -0.337868 0.0275709
v 3.65736 3.82232 0.583754
vn 0.251768 -0.96695 0.0402537
v 3.00131 3.82172 0.55872
vn -0.0639858 -0.997443 0.0318338
v 2.99431 3.82304 0.572001
vn -0.255145 -0.966397 0.0312689
v 3.60554 3.82242 0.612356
vn -0.00203132 -0.995913 0.0902902
v 3.04509 3.82303 0.602422
vn -0.0033342 -0.995912 0.0902682
v 3.63476 3.85938 0.618633
vn 0.188508 0.349263 0.917867
v 3.62069 3.84527 0.622373
vn 0.00671513 0.0322857 0.999456
v 3.03159 3.86157 0.58646
vn 0.000107109 0.999831 -0.0183591
v 3.04515 3.86162 0.601175
vn -9.06907e-05 0.999655 0.0262551
v 2.9958 3.84975 0.284995
vn -0.888307 0.458234 -0.0305358
v 2.99437 3.85982 0.570813
vn -0.251948 0.967237 -0.0312168
v 3.61962 3.82154 0.598157
vn -0.000873187 -0.998934 0.0461629
v 3.01094 3.8041 0.0140189
vn -0.0639525 -0.997489 0.030427
v 3.00448 3.84133 -0.000747473
vn -0.251796 0.966943 -0.0402543
v 3.2599 3.8611 0.576904
vn 0.00163181 0.999525 -0.0307656
v 3.64975 3.85833 0.612353
vn 0.661406 0.163779 0.731928
v 3.66048 3.80339 0.0255323
vn 0.0606672 -0.997624 0.0326367
v 3.66748 3.80383 0.0121939
vn 0.251908 -0.967248 0.0312178
v 3.05624 3.80264 -0.0281023
vn -0.00128082 -0.999666 -0.0257948
v 3.6167 3.80203 -0.0181679
vn 2.17356e-05 -0.999668 -0.0257706
v 3.02715 3.83921 -0.0367552
vn -0.18745 0.289898 -0.938521
v 3.04117 3.82484 -0.0395753
vn -0.00671506 -0.0322871 -0.999456
v 3.63032 3.84147 -0.00472612
vn 0.00275462 0.998935 -0.0460599
v 3.61676 3.84062 -0.0194149
vn 0.00327685 0.995947 -0.0898874
v 3.66611 3.84902 0.296877
vn 0.889822 0.456307 0.00098226
v 3.66754 3.84061 0.0110055
vn 0.25513 0.966401 -0.031269
v 3.65084 3.82101 0.570233
vn 0.0606408 -0.997579 0.0340428
v 3.04217 3.80272 -0.0138774
vn -0.00244396 -0.999827 0.0184227
v 3.01216 3.83862 -0.0304223
vn -0.660938 0.118373 -0.741046
v 3.27006 3.84252 0.00247644
vn 0.00168566 0.999426 -0.0338298
v 3.65743 3.8591 0.582566
vn 0.254974 0.966692 -0.0222319
v 3.01182 3.822 0.577339
vn -0.0225309 -0.999157 0.0343224
v 3.01652 3.82294 0.596729
vn -0.0275116 -0.996579 0.0779321
v 3.00146 3.82293 0.586579
vn -0.0805603 -0.994644 0.0647555
v 3.62441 3.82321 0.617554
vn 0.00189247 -0.979071 0.203511
v 3.60569 3.82456 0.622407
vn -0.0127527 -0.203252 0.979043
v 3.3252 3.82349 0.613864
vn -0.00474236 -0.978211 0.207561
v 3.62447 3.86051 0.616348
vn 0.00417404 0.990077 0.140466
v 3.26315 3.86105 0.611552
vn -0.00147627 0.989582 0.143964
v 3.60574 3.85953 0.621276
vn -0.0111648 0.38147 0.924314
v 3.01188 3.86114 0.576074
vn -0.0192225 0.999357 -0.0302601
v 3.00153 3.86084 0.585354
vn -0.077251 0.997012 0.000392235
v 3.01658 3.86145 0.595484
vn -0.0242008 0.999617 0.0134247
v 2.99447 3.83586 0.285421
vn -0.999842 0.00108713 -0.0177226
v 2.99106 3.82478 0.572213
vn -0.996825 -0.0795681 0.00295882
v 2.99112 3.85811 0.571136
vn -0.99548 0.0949269 -0.00275656
v 3.63968 3.82132 0.588468
vn 0.0191313 -0.999202 0.0350606
v 3.6497 3.82223 0.598069
vn 0.0760428 -0.994815 0.067529
v 3.6343 3.82226 0.607679
vn 0.0225692 -0.996634 0.0788173
v 3.02211 3.80319 -0.00419628
vn -0.0224591 -0.999312 0.0295212
v 3.04133 3.80344 0.0142675
vn -0.00269512 -0.999485 0.031963
v 3.01538 3.8125 0.286546
vn -0.021983 -0.999248 0.0319309
v 3.00695 3.84009 -0.0200152
vn -0.744812 0.593625 -0.304736
v 3.00529 3.82588 -0.0211216
vn -0.937312 -0.00969955 -0.348357
v 3.00124 3.8396 -0.00107474
vn -0.994847 0.0937711 -0.0385561
v 3.26472 3.85189 0.289683
vn 0.00165871 0.999477 -0.0322983
v 3.0414 3.84322 0.0129821
vn 0.000345412 0.999467 -0.032639
v 3.03175 3.86086 0.558303
vn 0.000333858 0.999488 -0.0320042
v 3.65496 3.85911 0.601873
vn 0.746813 0.609581 0.26586
v 3.64976 3.86014 0.596844
vn 0.0793519 0.996842 0.00316836
v 3.64443 3.86002 0.611574
vn 0.103921 0.988198 0.112541
v 3.64996 3.80251 0.00693293
vn 0.0192216 -0.999357 0.0302612
v 3.64527 3.80221 -0.0124777
vn 0.0242001 -0.999617 -0.0134291
v 3.66032 3.80281 -0.00234737
vn 0.0772446 -0.997012 -0.000390228
v 3.03738 3.80315 -0.0333419
vn -0.00516164 -0.990158 -0.13986
v 3.0561 3.80412 -0.0382698
vn 0.0119736 -0.266078 -0.963877
v 3.33659 3.80267 -0.0296461
vn 0.00147607 -0.989582 -0.143964
v 3.03744 3.84045 -0.0345473
vn -0.0032959 0.97925 -0.202629
v 3.27454 3.84023 -0.0319584
vn 0.00474217 0.978215 -0.207538
v 3.05616 3.8391 -0.0394002
vn 0.0123814 0.283336 -0.958941
v 3.65003 3.84165 0.00566817
vn 0.0225445 0.999157 -0.0343224
v 3.66039 3.84072 -0.00357247
vn 0.0805457 0.994645 -0.0647541
v 3.64533 3.84072 -0.0137223
vn 0.0275147 0.996579 -0.0779314
v 3.66739 3.83513 0.297349
vn 0.999842 -0.00108708 0.0177226
v 3.67073 3.80554 0.0118707
vn 0.996555 -0.0828994 0.00229141
v 3.67079 3.83888 0.0107935
vn 0.99579 0.0916026 -0.00327109
v 3.62045 3.82044 0.570025
vn -0.000622311 -0.999467 0.032633
v 3.6464 3.81182 0.297731
vn 0.0186646 -0.999293 0.0326515
v 3.01208 3.80351 -0.0138378
vn -0.0793492 -0.996842 -0.00316453
v 3.02749 3.80288 -0.0234282
vn -0.0258825 -0.999563 -0.0143138
v 3.01215 3.84142 -0.0150628
vn -0.076038 0.994815 -0.0675307
v 3.01748 3.84034 -0.0297535
vn -0.100649 0.979214 -0.176096
v 3.62051 3.86022 0.568739
vn 0.00251431 0.999486 -0.0319667
v 3.63016 3.84258 0.0234181
vn 0.0025255 0.999465 -0.0325989
v 3.65657 3.845 0.603895
vn 0.937312 0.00969934 0.348356
v 3.66067 3.85738 0.583004
vn 0.995157 0.0927624 0.032528
v 2.99609 3.82428 0.591344
vn -0.837543 -0.457287 0.299017
v 3.00627 3.82401 0.60145
vn -0.108959 -0.978984 0.172392
v 3.02605 3.82386 0.606948
vn -0.0112303 -0.979059 0.203267
v 3.04459 3.82517 0.612461
vn -0.0223943 -0.203242 0.978872
v 3.32515 3.84608 0.618387
vn -0.0176784 0.0323219 0.999321
v 3.04465 3.86014 0.611331
vn -0.0211847 0.344707 0.938471
v 3.02611 3.86116 0.605742
vn -0.0093334 0.990288 0.138718
v 3.00634 3.86071 0.600264
vn -0.105695 0.988427 0.108817
v 2.99615 3.85983 0.590195
vn -0.75444 0.611214 0.239244
v 2.99444 3.84572 0.592158
vn -0.949046 0.0117508 0.314918
v 3.64437 3.82332 0.61276
vn 0.100647 -0.979212 0.176107
v 3.03169 3.82108 0.559588
vn -0.00270606 -0.999465 0.0325962
v 3.00118 3.80627 2.39388e-06
vn -0.996188 -0.0807339 -0.0330306
v 3.01545 3.85184 0.285275
vn -0.0186684 0.999292 -0.0326518
v 3.63436 3.86078 0.606435
vn 0.025876 0.999563 0.0143096
v 3.6657 3.80383 -0.00718861
vn 0.835991 -0.478409 -0.268781
v 3.65551 3.80294 -0.017257
vn 0.105699 -0.988424 -0.10884
v 3.63573 3.8025 -0.0227357
vn 0.00796418 -0.990171 -0.139636
v 3.6172 3.80351 -0.0283241
vn 0.0216155 -0.266089 -0.963706
v 3.33672 3.82492 -0.0356176
vn 0.0176785 -0.0323233 -0.999321
v 3.61726 3.83849 -0.0294545
vn 0.0219366 0.320948 -0.946843
v 3.6358 3.8398 -0.0239411
vn 0.0102658 0.978942 -0.203881
v 3.65557 3.83964 -0.018443
vn 0.108964 0.978983 -0.17239
v 3.66575 3.83937 -0.00833736
vn 0.756436 0.591986 -0.278134
v 3.66742 3.82516 -0.00938509
vn 0.949046 -0.0117507 -0.314917
v 3.63009 3.8028 0.0247036
vn -0.000611112 -0.999488 0.0320001
v 3.01742 3.80363 -0.0285676
vn -0.103917 -0.988199 -0.112536
v 3.02755 3.84139 -0.0246728
vn -0.0225762 0.996633 -0.0788208
v 3.64647 3.85115 0.29646
vn 0.0219868 0.999248 -0.0319312
v 3.66061 3.82405 0.584081
vn 0.995919 -0.0817368 0.038281
v 3.6549 3.82356 0.603022
vn 0.825422 -0.459101 0.32849
v 3.33089 3.81184 0.292149
vn -0.00165871 -0.999477 0.0322981
v 3.00689 3.80454 -0.0188663
vn -0.826974 -0.476609 -0.298257
v 3.02217 3.84233 -0.00546104
vn -0.019139 0.999202 -0.0350608
v 3.63974 3.86046 0.587203
vn 0.0224514 0.999312 -0.0295208
f 1//1 2//2 3//3
f 1//1 3//3 4//4
f 1//1 4//4 5//5
f 1//1 5//5 6//6
f 1//1 6//6 2//2
f 7//7 8//8 9//9
f 10//10 11//11 12//12
f 13//13 14//14 15//15
f 16//16 17//17 18//18
f 19//19 20//20 21//21
f 22//22 23//23 24//24
f 22//22 24//24 25//25
f 22//22 25//25 26//26
f 22//22 26//26 27//27
f 22//22 27//27 23//23
f 28//28 29//29 30//30
f 31//31 32//32 33//33
f 34//34 35//35 36//36
f 37//37 38//38 39//39
f 40//40 41//41 42//42
f 13//13 43//43 44//44
f 10//10 45//45 46//46
f 7//7 47//47 48//48
f 19//19 49//49 50//50
f 16//16 51//51 52//52
f 10//10 53//53 45//45
f 13//13 54//54 43//43
f 16//16 55//55 51//51
f 19//19 56//56 49//49
f 7//7 57//57 47//47
f 40//40 58//58 59//59
f 28//28 60//60 61//61
f 31//31 62//62 63//63
f 34//34 64//64 65//65
f 37//37 66//66 67//67
f 40//40 68//68 58//58
f 28//28 69//69 60//60
f 31//31 70//70 62//62
f 34//34 71//71 64//64
f 37//37 72//72 66//66
f 10//10 46//46 11//11
f 7//7 48//48 8//8
f 19//19 50//50 20//20
f 16//16 52//52 17//17
f 13//13 44//44 14//14
f 40//40 42//42 68//68
f 28//28 30//30 69//69
f 31//31 33//33 70//70
f 34//34 36//36 71//71
f 37//37 39//39 72//72
f 28//28 61//61 29//29
f 31//31 63//63 32//32
f 34//34 65//65 35//35
f 37//37 67//67 38//38
f 40//40 59//59 41//41
f 10//10 12//12 53//53
f 13//13 15//15 54//54
f 16//16 18//18 55//55
f 19//19 21//21 56//56
f 7//7 9//9 57//57
f 73//73 74//74 75//75
f 76//76 77//77 78//78
f 79//79 80//80 81//81
f 82//82 83//83 84//84
f 85//85 86//86 87//87
f 88//88 89//89 90//90
f 91//91 92//92 93//93
f 94//94 95//95 96//96
f 97//97 98//98 99//99
f 100//100 101//101 102//102
f 103//103 104//104 105//105
f 106//106 107//107 108//108
f 109//109 110//110 111//111
f 112//112 113//113 114//114
f 115//115 116//116 117//117
f 88//88 118//118 119//119
f 91//91 120//120 121//121
f 94//94 122//122 123//123
f 97//97 124//124 125//125
f 100//100 126//126 127//127
f 128//128 129//129 2//2
f 130//130 131//131 3//3
f 132//132 133//133 4//4
f 134//134 135//135 5//5
f 136//136 137//137 6//6
f 76//76 138//138 8//8
f 73//73 139//139 11//11
f 85//85 140//140 14//14
f 82//82 141//141 17//17
f 79//79 142//142 20//20
f 143//143 144//144 23//23
f 145//145 146//146 24//24
f 147//147 148//148 25//25
f 149//149 150//150 26//26
f 151//151 152//152 27//27
f 103//103 153//153 29//29
f 106//106 154//154 32//32
f 109//109 155//155 35//35
f 112//112 156//156 38//38
f 115//115 157//157 41//41
f 73//73 75//75 43//43
f 76//76 78//78 45//45
f 79//79 81//81 47//47
f 82//82 84//84 49//49
f 85//85 87//87 51//51
f 88//88 90//90 53//53
f 91//91 93//93 54//54
f 94//94 96//96 55//55
f 97//97 99//99 56//56
f 100//100 102//102 57//57
f 103//103 105//105 58//58
f 106//106 108//108 60//60
f 109//109 111//111 62//62
f 112//112 114//114 64//64
f 115//115 117//117 66//66
f 88//88 119//119 68//68
f 91//91 121//121 69//69
f 94//94 123//123 70//70
f 97//97 125//125 71//71
f 100//100 127//127 72//72
f 130//130 74//74 46//46
f 132//132 77//77 48//48
f 134//134 80//80 50//50
f 136//136 83//83 52//52
f 128//128 86//86 44//44
f 158//158 89//89 42//42
f 159//159 92//92 30//30
f 160//160 95//95 33//33
f 161//161 98//98 36//36
f 162//162 101//101 39//39
f 145//145 104//104 61//61
f 147//147 107//107 63//63
f 149//149 110//110 65//65
f 151//151 113//113 67//67
f 143//143 116//116 59//59
f 159//159 118//118 12//12
f 160//160 120//120 15//15
f 161//161 122//122 18//18
f 162//162 124//124 21//21
f 158//158 126//126 9//9
f 130//130 129//129 74//74
f 132//132 131//131 77//77
f 134//134 133//133 80//80
f 136//136 135//135 83//83
f 128//128 137//137 86//86
f 158//158 138//138 89//89
f 159//159 139//139 92//92
f 160//160 140//140 95//95
f 161//161 141//141 98//98
f 162//162 142//142 101//101
f 145//145 144//144 104//104
f 147//147 146//146 107//107
f 149//149 148//148 110//110
f 151//151 150//150 113//113
f 143//143 152//152 116//116
f 159//159 153//153 118//118
f 160//160 154//154 120//120
f 161//161 155//155 122//122
f 162//162 156//156 124//124
f 158//158 157//157 126//126
f 130//130 3//3 129//129
f 132//132 4//4 131//131
f 134//134 5//5 133//133
f 136//136 6//6 135//135
f 128//128 2//2 137//137
f 158//158 9//9 138//138
f 159//159 12//12 139//139
f 160//160 15//15 140//140
f 161//161 18//18 141//141
f 162//162 21//21 142//142
f 145//145 24//24 144//144
f 147//147 25//25 146//146
f 149//149 26//26 148//148
f 151//151 27//27 150//150
f 143//143 23//23 152//152
f 159//159 30//30 153//153
f 160//160 33//33 154//154
f 161//161 36//36 155//155
f 162//162 39//39 156//156
f 158//158 42//42 157//157
f 128//128 44//44 75//75
f 130//130 46//46 78//78
f 132//132 48//48 81//81
f 134//134 50//50 84//84
f 136//136 52//52 87//87
f 76//76 45//45 90//90
f 73//73 43//43 93//93
f 85//85 51//51 96//96
f 82//82 49//49 99//99
f 79//79 47//47 102//102
f 143//143 59//59 105//105
f 145//145 61//61 108//108
f 147//147 63//63 111//111
f 149//149 65//65 114//114
f 151//151 67//67 117//117
f 103//103 58//58 119//119
f 106//106 60//60 121//121
f 109//109 62//62 123//123
f 112//112 64//64 125//125
f 115//115 66//66 127//127
f 73//73 11//11 74//74
f 76//76 8//8 77//77
f 79//79 20//20 80//80
f 82//82 17//17 83//83
f 85//85 14//14 86//86
f 88//88 68//68 89//89
f 91//91 69//69 92//92
f 94//94 70//70 95//95
f 97//97 71//71 98//98
f 100//100 72//72 101//101
f 103//103 29//29 104//104
f 106//106 32//32 107//107
f 109//109 35//35 110//110
f 112//112 38//38 113//113
f 115//115 41//41 116//116
f 88//88 53//53 118//118
f 91//91 54//54 120//120
f 94//94 55//55 122//122
f 97//97 56//56 124//124
f 100//100 57//57 126//126
f 128//128 75//75 129//129
f 130//130 78//78 131//131
f 132//132 81//81 133//133
f 134//134 84//84 135//135
f 136//136 87//87 137//137
f 76//76 90//90 138//138
f 73//73 93//93 139//139
f 85//85 96//96 140//140
f 82//82 99//99 141//141
f 79//79 102//102 142//142
f 143//143 105//105 144//144
f 145//145 108//108 146//146
f 147//147 111//111 148//148
f 149//149 114//114 150//150
f 151//151 117//117 152//152
f 103//103 119//119 153//153
f 106//106 121//121 154//154
f 109//109 123//123 155//155
f 112//112 125//125 156//156
f 115//115 127//127 157//157
f 129//129 3//3 2//2
f 131//131 4//4 3//3
f 133//133 5//5 4//4
f 135//135 6//6 5//5
f 137//137 2//2 6//6
f 138//138 9//9 8//8
f 139//139 12//12 11//11
f 140//140 15//15 14//14
f 141//141 18//18 17//17
f 142//142 21//21 20//20
f 144//144 24//24 23//23
f 146//146 25//25 24//24
f 148//148 26//26 25//25
f 150//150 27//27 26//26
f 152//152 23//23 27//27
f 153//153 30//30 29//29
f 154//154 33//33 32//32
f 155//155 36//36 35//35
f 156//156 39//39 38//38
f 157//157 42//42 41//41
f 75//75 44//44 43//43
f 78//78 46//46 45//45
f 81//81 48//48 47//47
f 84//84 50//50 49//49
f 87//87 52//52 51//51
f 90//90 45//45 53//53
f 93//93 43//43 54//54
f 96//96 51//51 55//55
f 99//99 49//49 56//56
f 102//102 47//47 57//57
f 105//105 59//59 58//58
f 108//108 61//61 60//60
f 111//111 63//63 62//62
f 114//114 65//65 64//64
f 117//117 67//67 66//66
f 119//119 58//58 68//68
f 121//121 60//60 69//69
f 123//123 62//62 70//70
f 125//125 64//64 71//71
f 127//127 66//66 72//72
f 74//74 11//11 46//46
f 77//77 8//8 48//48
f 80//80 20//20 50//50
f 83//83 17//17 52//52
f 86//86 14//14 44//44
f 89//89 68//68 42//42
f 92//92 69//69 30//30
f 95//95 70//70 33//33
f 98//98 71//71 36//36
f 101//101 72//72 39//39
f 104//104 29//29 61//61
f 107//107 32//32 63//63
f 110//110 35//35 65//65
f 113//113 38//38 67//67
f 116//116 41//41 59//59
f 118//118 53//53 12//12
f 120//120 54//54 15//15
f 122//122 55//55 18//18
f 124//124 56//56 21//21
f 126//126 57//57 9//9
f 129//129 75//75 74//74
f 131//131 78//78 77//77
f 133//133 81//81 80//80
f 135//135 84//84 83//83
f 137//137 87//87 86//86
f 138//138 90//90 89//89
f 139//139 93//93 92//92
f 140//140 96//96 95//95
f 141//141 99//99 98//98
f 142//142 102//102 101//101
f 144//144 105//105 104//104
f 146//146 108//108 107//107
f 148//148 111//111 110//110
f 150//150 114//114 113//113
f 152//152 117//117 116//116
f 153//153 119//119 118//118
f 154//154 121//121 120//120
f 155//155 123//123 122//122
f 156//156 125//125 124//124
f 157//157 127//127 126//126
