# Created by Open3D 
# object name: part_034
# number of vertices: 162
# number of triangles: 320
v 5.75648 -0.632332 1.91039
vn -0.059577 0.989913 0.128539
v 5.77701 -0.634683 1.92785
vn 0.0212754 0.96804 0.249892
v 5.77715 -0.630366 1.89806
vn 0.0539964 0.994588 0.0887629
v 5.75593 -0.628899 1.8703
vn -0.0611818 0.997133 0.0445236
v 5.74227 -0.632528 1.89854
vn -0.222031 0.970681 0.0920867
v 5.74376 -0.636744 1.9283
vn -0.146462 0.956147 0.253637
v 5.73606 -0.584333 0.642011
vn -0.0624755 0.996722 -0.0513939
v 5.75712 -0.58328 0.653792
vn 0.0523256 0.998517 -0.0150511
v 5.75601 -0.585335 0.623781
vn 0.0144086 0.984179 -0.176591
v 5.76979 -0.614118 1.27561
vn 0.993686 0.111577 -0.0117776
v 5.7795 -0.639266 1.86655
vn 0.995804 0.0907107 -0.0120889
v 5.7706 -0.623371 1.27524
vn 0.99779 0.065045 -0.013605
v 5.78857 -0.785687 1.9354
vn 0.996368 0.058823 0.0615715
v 5.78752 -0.786072 1.94365
vn 0.596196 0.00545419 0.802821
v 5.79661 -0.922121 1.93104
vn 0.992253 0.0467752 0.11509
v 5.75114 -0.788007 1.93591
vn -0.993944 -0.0645209 0.0889512
v 5.74242 -0.657592 1.92831
vn -0.997101 -0.0615205 0.0447807
v 5.75839 -0.917528 1.91822
vn -0.99692 -0.0644617 0.044672
v 5.73262 -0.621509 1.40715
vn -0.999806 -0.0119727 0.0156454
v 5.72156 -0.591097 0.713019
vn -0.99814 0.0582562 0.0179791
v 5.72114 -0.59697 0.684981
vn -0.99935 -0.0330514 0.0144166
v 5.75492 -0.891423 0.630086
vn 0.0595766 -0.989913 -0.128538
v 5.77452 -0.886585 0.612083
vn 0.133757 -0.958432 -0.252026
v 5.77601 -0.8908 0.64185
vn 0.17391 -0.980464 -0.0918963
v 5.7559 -0.894828 0.670179
vn 0.0611818 -0.997133 -0.0445234
v 5.74113 -0.892962 0.64233
vn -0.102945 -0.990821 -0.0876163
v 5.74127 -0.888645 0.612541
vn -0.0342086 -0.967343 -0.251152
v 5.78777 -0.906776 1.26424
vn 0.999806 0.0119847 -0.0156449
v 5.77811 -0.881625 0.673292
vn 0.999339 0.0329528 -0.0153567
v 5.78744 -0.897493 1.2646
vn 0.998182 0.0586502 -0.0138529
v 5.77535 -0.939421 1.89847
vn 0.0624755 -0.996722 0.0513944
v 5.79605 -0.937886 1.88611
vn 0.175583 -0.984393 0.0119162
v 5.79552 -0.935933 1.91615
vn 0.140624 -0.974572 0.174456
v 5.7506 -0.914168 1.39579
vn -0.993685 -0.11159 0.0117771
v 5.75819 -0.934619 1.8279
vn -0.983105 -0.18281 0.00926389
v 5.75781 -0.928796 1.85595
vn -0.995765 -0.0909735 0.0132397
v 5.72971 -0.737641 0.604986
vn -0.996368 -0.058823 -0.0615715
v 5.73737 -0.868121 0.612602
vn -0.997919 -0.062114 -0.0173342
v 5.7214 -0.608185 0.622695
vn -0.998099 -0.059174 -0.0172196
v 5.76714 -0.735322 0.604471
vn 0.993944 0.0645209 -0.0889513
v 5.76582 -0.735084 0.596257
vn 0.570088 0.0668228 -0.818861
v 5.75839 -0.598932 0.608839
vn 0.986909 0.0758781 -0.142316
v 5.78091 -0.655207 1.92778
vn 0.997919 0.062114 0.0173342
v 5.77985 -0.649368 1.94163
vn 0.991064 0.0661107 0.115852
v 5.76009 -0.588709 0.712489
vn 0.98328 0.181861 -0.00927294
v 5.77823 -0.63134 1.83905
vn 0.983294 0.18182 -0.00862981
v 5.72223 -0.585442 0.654272
vn -0.223695 0.974594 -0.0112949
v 5.7368 -0.583941 0.682251
vn -0.0613693 0.997572 0.0329335
v 5.74017 -0.641703 1.86709
vn -0.999344 -0.0327235 0.0155018
v 5.7397 -0.633728 1.83958
vn -0.998022 0.0600233 0.0186934
v 5.75246 -0.788245 1.94413
vn -0.706512 -0.0707503 0.704156
v 5.74313 -0.651643 1.94214
vn -0.988096 -0.056543 0.143072
v 5.76047 -0.594532 0.68444
vn 0.995789 0.0907344 -0.0131129
v 5.79688 -0.915143 1.91769
vn 0.998099 0.059174 0.0172196
v 5.75989 -0.924396 1.93155
vn -0.986909 -0.0758781 0.142316
v 5.73297 -0.630854 1.40841
vn -0.998183 -0.0586495 0.0138529
v 5.72276 -0.587395 0.624239
vn -0.15338 0.972398 -0.175829
v 5.77586 -0.865736 0.612072
vn 0.997101 0.0615205 -0.0447807
v 5.77515 -0.871685 0.598248
vn 0.988096 0.056543 -0.143072
v 5.79672 -0.932231 1.82737
vn 0.998092 -0.0590668 -0.0179838
v 5.77858 -0.8896 0.700805
vn 0.998081 -0.0590598 -0.0186282
v 5.76116 -0.940048 1.88659
vn -0.10128 -0.994733 0.0157668
v 5.77503 -0.939787 1.85822
vn 0.0613663 -0.997572 -0.0329334
v 5.73877 -0.884063 0.673833
vn -0.995815 -0.0905815 0.0121828
v 5.74005 -0.891988 0.701335
vn -0.98344 -0.181026 0.00868743
v 5.73076 -0.737257 0.596739
vn -0.728868 -0.0182033 -0.684412
v 5.73843 -0.873961 0.598753
vn -0.991064 -0.0661107 -0.115852
v 5.75989 -0.6058 0.622166
vn 0.99692 0.0644617 -0.044672
v 5.79714 -0.926359 1.85541
vn 0.999355 0.0329151 -0.0143331
v 5.76227 -0.937993 1.9166
vn -0.0272894 -0.983596 0.178312
v 5.74981 -0.904976 1.39777
vn -0.99779 -0.0650461 0.0136049
v 5.72167 -0.601208 0.609344
vn -0.992253 -0.0467752 -0.11509
v 5.78032 -0.645576 1.90634
vn 0.997784 0.0664652 -0.00317987
v 5.77927 -0.635997 1.89657
vn 0.98759 0.157035 0.0024571
v 5.77976 -0.641884 1.927
vn 0.990975 0.131096 0.0279845
v 5.75869 -0.584977 0.674498
vn 0.91661 0.399774 -0.00274511
v 5.75798 -0.583975 0.71206
vn 0.0536089 0.997923 0.0357279
v 5.76842 -0.60696 1.2759
vn 0.913416 0.407027 0.000695058
v 5.72145 -0.587285 0.67501
vn -0.958321 0.284722 0.0235547
v 5.733 -0.614005 1.40126
vn -0.956299 0.291194 0.0264175
v 5.72306 -0.586139 0.71254
vn -0.236623 0.970804 0.0393457
v 5.74123 -0.647998 1.90688
vn -0.998066 -0.0572236 0.0242758
v 5.7419 -0.64423 1.92752
vn -0.998437 0.00778439 0.0553481
v 5.74082 -0.63838 1.8971
vn -0.998981 0.0339208 0.0297881
v 5.76636 -0.787484 1.94656
vn 0.0160881 -0.0378102 0.999155
v 5.77823 -0.649566 1.94819
vn 0.172357 0.0473828 0.983894
v 5.74494 -0.651629 1.94865
vn -0.173179 0.0255023 0.98456
v 5.76 -0.597817 0.644287
vn 0.99745 0.0672469 -0.0238865
v 5.75877 -0.592575 0.623988
vn 0.989724 0.134024 -0.0498463
v 5.75928 -0.589004 0.654777
vn 0.987187 0.157994 -0.0223364
v 5.79737 -0.923089 1.89556
vn 0.9984 0.0564412 -0.00356907
v 5.79652 -0.912941 1.8566
vn 0.99804 0.0611662 -0.0132372
v 5.78899 -0.784446 1.90412
vn 0.998103 0.0614613 -0.0036285
v 5.761 -0.933419 1.92691
vn -0.616102 -0.681323 0.395242
v 5.77524 -0.933401 1.93002
vn 0.0597799 -0.847574 0.527299
v 5.76172 -0.924692 1.93805
vn -0.164091 -0.122464 0.978814
v 5.74132 -0.767939 1.40361
vn -0.997991 -0.0618473 0.0137291
v 5.7568 -0.915403 1.85714
vn -0.99794 -0.0625341 0.0143579
v 5.74081 -0.655171 1.86725
vn -0.998021 -0.0612106 0.0144095
v 5.72178 -0.592109 0.61396
vn -0.706091 0.599385 -0.377059
v 5.72092 -0.594921 0.624509
vn -0.99969 0.0107163 -0.0224728
v 5.72125 -0.588207 0.634971
vn -0.972456 0.231607 -0.0262265
v 5.77704 -0.87533 0.633511
vn 0.998066 0.0572236 -0.0242758
v 5.77746 -0.884948 0.643285
vn 0.998981 -0.0339208 -0.0297881
v 5.77638 -0.879099 0.612862
vn 0.998437 -0.00778436 -0.0553482
v 5.79683 -0.936043 1.86538
vn 0.958669 -0.283587 -0.0230535
v 5.79522 -0.937189 1.82785
vn 0.17539 -0.983731 -0.0388782
v 5.78729 -0.914048 1.26397
vn 0.9563 -0.291193 -0.0264174
v 5.75959 -0.938351 1.86589
vn -0.917278 -0.398231 0.00347424
v 5.75187 -0.921093 1.38934
vn -0.913416 -0.407027 -0.000695048
v 5.7603 -0.939353 1.82833
vn -0.0954374 -0.994824 -0.0348907
v 5.73796 -0.877752 0.634048
vn -0.997784 -0.0664652 0.00317987
v 5.73852 -0.881444 0.613383
vn -0.990975 -0.131096 -0.0279845
v 5.73901 -0.887332 0.643814
vn -0.98759 -0.157035 -0.0024571
v 5.74458 -0.736298 0.59393
vn -0.0160882 0.0378102 -0.999155
v 5.77334 -0.871699 0.591734
vn 0.149862 -0.0274143 -0.988327
v 5.74005 -0.873762 0.592192
vn -0.195622 -0.0483578 -0.979486
v 5.76148 -0.607925 0.683243
vn 0.997942 0.0625276 -0.0142204
v 5.76857 -0.736448 0.635723
vn 0.997778 0.0622265 -0.0238269
v 5.79736 -0.928407 1.91588
vn 0.99969 -0.0107164 0.0224728
v 5.79746 -0.931941 1.88508
vn 0.99938 -0.0348382 -0.00499426
v 5.7595 -0.930753 1.9164
vn -0.989724 -0.134023 0.0498461
v 5.76038 -0.937393 1.90592
vn -0.935346 -0.349821 0.0524705
v 5.72176 -0.610387 0.683789
vn -0.998038 -0.0611715 0.0133268
v 5.73775 -0.870618 0.673684
vn -0.997957 -0.0624901 0.0132757
v 5.73583 -0.590374 0.610464
vn -0.0597795 0.847574 -0.5273
v 5.72327 -0.600699 0.602796
vn -0.204712 0.0996087 -0.973741
v 5.7786 -0.640022 1.93773
vn 0.4929 0.72059 0.487647
v 5.77855 -0.634472 1.91709
vn 0.936978 0.345985 0.048658
v 5.77806 -0.630492 1.87724
vn 0.91673 0.399492 0.00347075
v 5.77614 -0.626655 1.8399
vn 0.0536464 0.997834 0.0380687
v 5.74589 -0.605843 1.2763
vn -0.0612767 0.997369 0.0387292
v 5.74122 -0.628819 1.84039
vn -0.216488 0.975398 0.0416156
v 5.74081 -0.6328 1.87775
vn -0.959049 0.281659 0.0298748
v 5.74191 -0.636744 1.91759
vn -0.970834 0.227755 0.0749007
v 5.74311 -0.642222 1.93822
vn -0.692871 0.568327 0.443772
v 5.75726 -0.640739 1.94139
vn -0.0417651 0.805238 0.591479
v 5.7579 -0.585935 0.634467
vn 0.935346 0.349821 -0.0524709
v 5.78053 -0.65271 1.8667
vn 0.997959 0.0624887 -0.013186
v 5.79501 -0.922629 1.93759
vn 0.181524 -0.101828 0.9781
v 5.74971 -0.786881 1.90466
vn -0.997778 -0.0622265 0.0238269
v 5.72082 -0.591388 0.655306
vn -0.99938 0.0348381 0.00499425
v 5.77517 -0.881106 0.602164
vn 0.56454 -0.655051 -0.502198
v 5.77637 -0.886585 0.622792
vn 0.970834 -0.227754 -0.0749005
v 5.77747 -0.890528 0.662633
vn 0.958578 -0.283323 -0.0292703
v 5.77706 -0.894509 0.700001
vn 0.17535 -0.983643 -0.0412189
v 5.76506 -0.917939 1.26418
vn 0.0612751 -0.997369 -0.0387292
v 5.74214 -0.896673 0.700482
vn -0.115995 -0.992564 -0.0368945
v 5.74022 -0.892837 0.663145
vn -0.916244 -0.400609 -0.00305702
v 5.73972 -0.888856 0.623296
vn -0.936977 -0.345985 -0.0486581
v 5.73968 -0.883306 0.602653
vn -0.629308 -0.650272 -0.425579
v 5.75381 -0.883036 0.599099
vn 0.0417646 -0.805238 -0.591479
v 5.77747 -0.868157 0.673138
vn 0.998023 0.0612067 -0.0142718
v 5.79703 -0.935122 1.90542
vn 0.972455 -0.231609 0.0262264
v 5.759 -0.934324 1.88561
vn -0.987188 -0.157993 0.0223363
v 5.72929 -0.738882 0.636264
vn -0.998103 -0.0614613 0.0036285
v 5.75656 -0.598636 0.602338
vn 0.140696 0.121797 -0.982533
v 5.75728 -0.589909 0.613472
vn 0.477852 0.755968 -0.447403
v 5.7791 -0.760427 1.26992
vn 0.997991 0.0618474 -0.0137291
v 5.79649 -0.931219 1.92643
vn 0.579597 -0.690435 0.432858
v 5.75828 -0.925511 1.8961
vn -0.99745 -0.067247 0.0238865
v 5.72091 -0.600239 0.644825
vn -0.9984 -0.0564411 0.00356907
f 1//1 2//2 3//3
f 1//1 3//3 4//4
f 1//1 4//4 5//5
f 1//1 5//5 6//6
f 1//1 6//6 2//2
f 7//7 8//8 9//9
f 10//10 11//11 12//12
f 13//13 14//14 15//15
f 16//16 17//17 18//18
f 19//19 20//20 21//21
f 22//22 23//23 24//24
f 22//22 24//24 25//25
f 22//22 25//25 26//26
f 22//22 26//26 27//27
f 22//22 27//27 23//23
f 28//28 29//29 30//30
f 31//31 32//32 33//33
f 34//34 35//35 36//36
f 37//37 38//38 39//39
f 40//40 41//41 42//42
f 13//13 43//43 44//44
f 10//10 45//45 46//46
f 7//7 47//47 48//48
f 19//19 49//49 50//50
f 16//16 51//51 52//52
f 10//10 53//53 45//45
f 13//13 54//54 43//43
f 16//16 55//55 51//51
f 19//19 56//56 49//49
f 7//7 57//57 47//47
f 40//40 58//58 59//59
f 28//28 60//60 61//61
f 31//31 62//62 63//63
f 34//34 64//64 65//65
f 37//37 66//66 67//67
f 40//40 68//68 58//58
f 28//28 69//69 60//60
f 31//31 70//70 62//62
f 34//34 71//71 64//64
f 37//37 72//72 66//66
f 10//10 46//46 11//11
f 7//7 48//48 8//8
f 19//19 50//50 20//20
f 16//16 52//52 17//17
f 13//13 44//44 14//14
f 40//40 42//42 68//68
f 28//28 30//30 69//69
f 31//31 33//33 70//70
f 34//34 36//36 71//71
f 37//37 39//39 72//72
f 28//28 61//61 29//29
f 31//31 63//63 32//32
f 34//34 65//65 35//35
f 37//37 67//67 38//38
f 40//40 59//59 41//41
f 10//10 12//12 53//53
f 13//13 15//15 54//54
f 16//16 18//18 55//55
f 19//19 21//21 56//56
f 7//7 9//9 57//57
f 73//73 74//74 75//75
f 76//76 77//77 78//78
f 79//79 80//80 81//81
f 82//82 83//83 84//84
f 85//85 86//86 87//87
f 88//88 89//89 90//90
f 91//91 92//92 93//93
f 94//94 95//95 96//96
f 97//97 98//98 99//99
f 100//100 101//101 102//102
f 103//103 104//104 105//105
f 106//106 107//107 108//108
f 109//109 110//110 111//111
f 112//112 113//113 114//114
f 115//115 116//116 117//117
f 88//88 118//118 119//119
f 91//91 120//120 121//121
f 94//94 122//122 123//123
f 97//97 124//124 125//125
f 100//100 126//126 127//127
f 128//128 129//129 2//2
f 130//130 131//131 3//3
f 132//132 133//133 4//4
f 134//134 135//135 5//5
f 136//136 137//137 6//6
f 76//76 138//138 8//8
f 73//73 139//139 11//11
f 85//85 140//140 14//14
f 82//82 141//141 17//17
f 79//79 142//142 20//20
f 143//143 144//144 23//23
f 145//145 146//146 24//24
f 147//147 148//148 25//25
f 149//149 150//150 26//26
f 151//151 152//152 27//27
f 103//103 153//153 29//29
f 106//106 154//154 32//32
f 109//109 155//155 35//35
f 112//112 156//156 38//38
f 115//115 157//157 41//41
f 73//73 75//75 43//43
f 76//76 78//78 45//45
f 79//79 81//81 47//47
f 82//82 84//84 49//49
f 85//85 87//87 51//51
f 88//88 90//90 53//53
f 91//91 93//93 54//54
f 94//94 96//96 55//55
f 97//97 99//99 56//56
f 100//100 102//102 57//57
f 103//103 105//105 58//58
f 106//106 108//108 60//60
f 109//109 111//111 62//62
f 112//112 114//114 64//64
f 115//115 117//117 66//66
f 88//88 119//119 68//68
f 91//91 121//121 69//69
f 94//94 123//123 70//70
f 97//97 125//125 71//71
f 100//100 127//127 72//72
f 130//130 74//74 46//46
f 132//132 77//77 48//48
f 134//134 80//80 50//50
f 136//136 83//83 52//52
f 128//128 86//86 44//44
f 158//158 89//89 42//42
f 159//159 92//92 30//30
f 160//160 95//95 33//33
f 161//161 98//98 36//36
f 162//162 101//101 39//39
f 145//145 104//104 61//61
f 147//147 107//107 63//63
f 149//149 110//110 65//65
f 151//151 113//113 67//67
f 143//143 116//116 59//59
f 159//159 118//118 12//12
f 160//160 120//120 15//15
f 161//161 122//122 18//18
f 162//162 124//124 21//21
f 158//158 126//126 9//9
f 130//130 129//129 74//74
f 132//132 131//131 77//77
f 134//134 133//133 80//80
f 136//136 135//135 83//83
f 128//128 137//137 86//86
f 158//158 138//138 89//89
f 159//159 139//139 92//92
f 160//160 140//140 95//95
f 161//161 141//141 98//98
f 162//162 142//142 101//101
f 145//145 144//144 104//104
f 147//147 146//146 107//107
f 149//149 148//148 110//110
f 151//151 150//150 113//113
f 143//143 152//152 116//116
f 159//159 153//153 118//118
f 160//160 154//154 120//120
f 161//161 155//155 122//122
f 162//162 156//156 124//124
f 158//158 157//157 126//126
f 130//130 3//3 129//129
f 132//132 4//4 131//131
f 134//134 5//5 133//133
f 136//136 6//6 135//135
f 128//128 2//2 137//137
f 158//158 9//9 138//138
f 159//159 12//12 139//139
f 160//160 15//15 140//140
f 161//161 18//18 141//141
f 162//162 21//21 142//142
f 145//145 24//24 144//144
f 147//147 25//25 146//146
f 149//149 26//26 148//148
f 151//151 27//27 150//150
f 143//143 23//23 152//152
f 159//159 30//30 153//153
f 160//160 33//33 154//154
f 161//161 36//36 155//155
f 162//162 39//39 156//156
f 158//158 42//42 157//157
f 128//128 44//44 75//75
f 130//130 46//46 78//78
f 132//132 48//48 81//81
f 134//134 50//50 84//84
f 136//136 52//52 87//87
f 76//76 45//45 90//90
f 73//73 43//43 93//93
f 85//85 51//51 96//96
f 82//82 49//49 99//99
f 79//79 47//47 102//102
f 143//143 59//59 105//105
f 145//145 61//61 108//108
f 147//147 63//63 111//111
f 149//149 65//65 114//114
f 151//151 67//67 117//117
f 103//103 58//58 119//119
f 106//106 60//60 121//121
f 109//109 62//62 123//123
f 112//112 64//64 125//125
f 115//115 66//66 127//127
f 73//73 11//11 74//74
f 76//76 8//8 77//77
f 79//79 20//20 80//80
f 82//82 17//17 83//83
f 85//85 14//14 86//86
f 88//88 68//68 89//89
f 91//91 69//69 92//92
f 94//94 70//70 95//95
f 97//97 71//71 98//98
f 100//100 72//72 101//101
f 103//103 29//29 104//104
f 106//106 32//32 107//107
f 109//109 35//35 110//110
f 112//112 38//38 113//113
f 115//115 41//41 116//116
f 88//88 53//53 118//118
f 91//91 54//54 120//120
f 94//94 55//55 122//122
f 97//97 56//56 124//124
f 100//100 57//57 126//126
f 128//128 75//75 129//129
f 130//130 78//78 131//131
f 132//132 81//81 133//133
f 134//134 84//84 135//135
f 136//136 87//87 137//137
f 76//76 90//90 138//138
f 73//73 93//93 139//139
f 85//85 96//96 140//140
f 82//82 99//99 141//141
f 79//79 102//102 142//142
f 143//143 105//105 144//144
f 145//145 108//108 146//146
f 147//147 111//111 148//148
f 149//149 114//114 150//150
f 151//151 117//117 152//152
f 103//103 119//119 153//153
f 106//106 121//121 154//154
f 109//109 123//123 155//155
f 112//112 125//125 156//156
f 115//115 127//127 157//157
f 129//129 3//3 2//2
f 131//131 4//4 3//3
f 133//133 5//5 4//4
f 135//135 6//6 5//5
f 137//137 2//2 6//6
f 138//138 9//9 8//8
f 139//139 12//12 11//11
f 140//140 15//15 14//14
f 141//141 18//18 17//17
f 142//142 21//21 20//20
f 144//144 24//24 23//23
f 146//146 25//25 24//24
f 148//148 26//26 25//25
f 150//150 27//27 26//26
f 152//152 23//23 27//27
f 153//153 30//30 29//29
f 154//154 33//33 32//32
f 155//155 36//36 35//35
f 156//156 39//39 38//38
f 157//157 42//42 41//41
f 75//75 44//44 43//43
f 78//78 46//46 45//45
f 81//81 48//48 47//47
f 84//84 50//50 49//49
f 87//87 52//52 51//51
f 90//90 45//45 53//53
f 93//93 43//43 54//54
f 96//96 51//51 55//55
f 99//99 49//49 56//56
f 102//102 47//47 57//57
f 105//105 59//59 58//58
f 108//108 61//61 60//60
f 111//111 63//63 62//62
f 114//114 65//65 64//64
f 117//117 67//67 66//66
f 119//119 58//58 68//68
f 121//121 60//60 69//69
f 123//123 62//62 70//70
f 125//125 64//64 71//71
f 127//127 66//66 72//72
f 74//74 11//11 46//46
f 77//77 8//8 48//48
f 80//80 20//20 50//50
f 83//83 17//17 52//52
f 86//86 14//14 44//44
f 89//89 68//68 42//42
f 92//92 69//69 30//30
f 95//95 70//70 33//33
f 98//98 71//71 36//36
f 101//101 72//72 39//39
f 104//104 29//29 61//61
f 107//107 32//32 63//63
f 110//110 35//35 65//65
f 113//113 38//38 67//67
f 116//116 41//41 59//59
f 118//118 53//53 12//12
f 120//120 54//54 15//15
f 122//122 55//55 18//18
f 124//124 56//56 21//21
f 126//126 57//57 9//9
f 129//129 75//75 74//74
f 131//131 78//78 77//77
f 133//133 81//81 80//80
f 135//135 84//84 83//83
f 137//137 87//87 86//86
f 138//138 90//90 89//89
f 139//139 93//93 92//92
f 140//140 96//96 95//95
f 141//141 99//99 98//98
f 142//142 102//102 101//101
f 144//144 105//105 104//104
f 146//146 108//108 107//107
f 148//148 111//111 110//110
f 150//150 114//114 113//113
f 152//152 117//117 116//116
f 153//153 119//119 118//118
f 154//154 121//121 120//120
f 155//155 123//123 122//122
f 156//156 125//125 124//124
f 157//157 127//127 126//126
