# Created by Open3D 
# object name: part_031
# number of vertices: 162
# number of triangles: 320
v 4.69884 -0.512745 0.16858
vn -0.958333 -0.280712 0.0528978
v 4.71066 -0.532544 0.189901
vn -0.790006 -0.53213 0.304512
v 4.69842 -0.496584 0.18834
vn -0.895442 -0.130825 0.425521
v 4.69087 -0.464351 0.165313
vn -0.998754 -0.035356 0.0352097
v 4.69729 -0.49928 0.153505
vn -0.86058 -0.189179 -0.472877
v 4.70958 -0.535113 0.156703
vn -0.796558 -0.569119 -0.203959
v 4.66752 1.01874 0.051074
vn -0.96911 0.246315 0.0124593
v 4.66771 1.00577 0.0730684
vn -0.901344 0.157686 0.403379
v 4.67847 1.04202 0.069089
vn -0.811925 0.539794 0.222264
v 4.71045 0.255252 0.131971
vn 0.018788 0.0768708 0.996864
v 4.73527 -0.458222 0.186409
vn 0.0245195 0.0765556 0.996764
v 4.74453 0.255879 0.131058
vn 0.031535 0.0771055 0.996524
v 5.26475 -0.53872 0.174463
vn 0.0336154 0.0148665 0.999324
v 5.26492 -0.54875 0.174042
vn 0.0366577 -0.700896 0.712321
v 5.76608 -0.530929 0.157198
vn 0.0370508 -0.029972 0.998864
v 5.26354 -0.541613 0.137086
vn -0.0310757 -0.139074 -0.989794
v 4.78545 -0.534899 0.151585
vn -0.0322767 -0.102666 -0.994192
v 5.74096 -0.517848 0.11919
vn -0.0314736 -0.102652 -0.994219
v 4.71241 0.0940377 0.104887
vn -0.0460209 -0.0773568 -0.995941
v 4.68015 0.932096 0.0414526
vn -0.0652917 -0.07742 -0.994858
v 4.70481 0.966055 0.0376191
vn -0.0402694 -0.0769099 -0.996224
v 5.79637 1.03888 0.0128021
vn 0.958333 0.280714 -0.0528977
v 5.78585 1.06178 0.0315449
vn 0.805355 0.568655 0.167433
v 5.79814 1.02595 0.0347427
vn 0.920393 0.190194 0.341617
v 5.80435 0.990519 0.0165042
vn 0.998754 0.0353558 -0.0352096
v 5.79701 1.02325 -9.23179e-05
vn 0.827277 0.109947 -0.55093
v 5.78477 1.05921 -0.00165311
vn 0.778867 0.527017 -0.340028
v 5.78625 0.274449 0.0954973
vn 0.0460206 0.0773568 0.995941
v 5.76143 0.987927 0.0411147
vn 0.0402947 0.0776815 0.996164
v 5.75219 0.27386 0.096895
vn 0.033282 0.0771365 0.996465
v 5.82768 -0.492601 0.130308
vn 0.96911 -0.246313 -0.0124603
v 5.82886 -0.476412 0.150015
vn 0.926297 -0.0983126 0.363743
v 5.81804 -0.512783 0.152357
vn 0.82727 -0.503272 0.249683
v 5.78821 0.113235 0.0684136
vn -0.0187879 -0.0768708 -0.996864
v 5.81403 -0.408408 0.108321
vn 0.00100141 -0.076774 -0.997048
v 5.78934 -0.442429 0.111353
vn -0.0244407 -0.0775108 -0.996692
v 5.23068 1.06539 0.013785
vn -0.0336154 -0.0148665 -0.999324
v 5.70873 1.05859 -0.00176603
vn -0.032519 -0.0515255 -0.998142
v 4.75322 1.04154 0.0306293
vn -0.033322 -0.0515396 -0.998115
v 5.23189 1.06828 0.0511622
vn 0.0310757 0.139074 0.989794
v 5.23165 1.07812 0.049216
vn 0.00592454 0.802224 0.596994
v 4.73055 1.06043 0.0677167
vn 0.0273936 0.183324 0.982671
v 4.7867 -0.531925 0.190014
vn 0.032519 0.0515259 0.998142
v 4.76345 -0.54882 0.19119
vn 0.0317567 -0.0300665 0.999043
v 4.6814 0.935074 0.079927
vn -0.000732221 0.0767548 0.99705
v 4.70921 -0.425168 0.184295
vn -0.000720769 0.0762206 0.997091
v 4.66657 1.00308 0.0382333
vn -0.866083 0.0797301 -0.493501
v 4.66154 0.970126 0.0552495
vn -0.999471 -0.000302326 0.0325322
v 4.734 -0.461261 0.147133
vn -0.0403528 -0.0777947 -0.996152
v 4.70796 -0.428146 0.14582
vn -0.0657713 -0.0779655 -0.994784
v 5.26378 -0.551459 0.139032
vn -0.0126091 -0.682251 -0.731009
v 4.76226 -0.551658 0.154524
vn -0.0326878 -0.183422 -0.982491
v 4.70609 0.969094 0.0768945
vn 0.0245033 0.0773998 0.996699
v 5.74221 -0.514874 0.157619
vn 0.033322 0.0515399 0.998115
v 5.76489 -0.533766 0.120531
vn -0.0273938 -0.183324 -0.982671
v 4.74651 0.0926706 0.10364
vn -0.0332821 -0.0771365 -0.996465
v 4.67739 1.03945 0.035891
vn -0.818389 0.498514 -0.285873
v 5.70998 1.06156 0.0366627
vn 0.0322767 0.102665 0.994192
v 5.73317 1.07832 0.0337241
vn 0.0326878 0.183422 0.982491
v 5.81528 -0.405431 0.146795
vn 0.0655139 0.0774025 0.994845
v 5.78747 0.954812 0.0424276
vn 0.0655035 0.0779367 0.994804
v 5.82772 -0.479108 0.11518
vn 0.83278 -0.158959 -0.530292
v 5.83368 -0.443958 0.126568
vn 0.999471 0.000303011 -0.0325323
v 5.76016 0.984887 0.00183923
vn -0.024558 -0.0766295 -0.996757
v 5.78622 0.951834 0.00395311
vn 0.00049889 -0.0762459 -0.997089
v 5.23051 1.07542 0.0142062
vn -0.0380435 0.561715 -0.826456
v 5.73198 1.07549 -0.00294245
vn -0.0317567 0.0300661 -0.999043
v 4.75447 1.04451 0.0690579
vn 0.0314736 0.102652 0.994219
v 5.79062 -0.439389 0.150629
vn 0.0403107 0.0768374 0.996228
v 5.81696 -0.515352 0.119159
vn 0.800693 -0.540617 -0.258116
v 5.75417 0.110652 0.0694763
vn -0.0315349 -0.0771055 -0.996524
v 4.72935 1.05759 0.0310503
vn -0.0370508 0.0299716 -0.998864
v 4.75386 -0.506176 0.189389
vn 0.0312132 0.0685577 0.997159
v 4.71973 -0.494577 0.189286
vn 0.00629112 0.0663543 0.997776
v 4.73779 -0.53125 0.191234
vn 0.0136286 0.0445557 0.998914
v 4.67188 0.980863 0.0760468
vn -0.0665849 0.0776949 0.994751
v 4.66361 0.935393 0.0786687
vn -0.907486 0.0169528 0.41974
v 4.6839 0.254707 0.131949
vn -0.0690038 0.0749174 0.994799
v 4.67067 0.977985 0.0388561
vn -0.131445 -0.0761983 -0.988391
v 4.68577 0.101067 0.106137
vn -0.133493 -0.0785309 -0.987933
v 4.66247 0.932694 0.043794
vn -0.852467 -0.054227 -0.519961
v 4.7526 -0.509196 0.150365
vn -0.0336013 -0.0856782 -0.995756
v 4.73656 -0.534176 0.153437
vn -0.051143 -0.109577 -0.992662
v 4.71848 -0.497548 0.150888
vn -0.0585012 -0.0878261 -0.994417
v 5.26429 -0.55355 0.153119
vn 0.0203821 -0.996862 0.0764863
v 4.76298 -0.556849 0.190099
vn 0.00172677 -0.962908 0.269825
v 4.7619 -0.559421 0.156864
vn -0.0116587 -0.98918 -0.146243
v 4.72271 1.01766 0.072469
vn 0.0308644 0.0856287 0.995849
v 4.70562 1.04205 0.0705194
vn 0.0123129 0.108885 0.993978
v 4.68907 1.0048 0.0742427
vn 0.00587013 0.0868867 0.996201
v 5.77399 -0.487972 0.154803
vn 0.0339501 0.0686075 0.997066
v 5.74127 -0.441068 0.152557
vn 0.0325977 0.0766975 0.996521
v 5.26401 -0.500899 0.172488
vn 0.0325777 0.0687926 0.997099
v 5.7987 -0.527962 0.119598
vn 0.204375 -0.505971 -0.837988
v 5.80193 -0.530843 0.133935
vn 0.456679 -0.887999 0.0538708
v 5.76567 -0.541509 0.122832
vn 0.0369746 -0.988312 -0.147891
v 5.25035 0.101033 0.0865285
vn -0.0324085 -0.077121 -0.996495
v 5.73998 -0.444137 0.112897
vn -0.0322164 -0.077658 -0.996459
v 4.78338 -0.461207 0.145329
vn -0.0325785 -0.0776645 -0.996447
v 4.69558 1.05189 0.0332066
vn -0.2606 0.372176 -0.890827
v 4.70439 1.03912 0.0327225
vn -0.052457 -0.0452475 -0.997598
v 4.6787 1.02639 0.035149
vn -0.115304 -0.0348276 -0.99272
v 5.74283 1.03586 0.0378831
vn 0.0336013 0.0856781 0.995756
v 5.77695 1.02421 0.0373598
vn 0.0585013 0.0878261 0.994417
v 5.75887 1.06084 0.0348105
vn 0.0511432 0.109577 0.992662
v 5.82476 -0.451319 0.149392
vn 0.13109 0.0757912 0.988469
v 5.83296 -0.406028 0.144454
vn 0.932782 0.0432262 0.357841
v 5.81275 0.274851 0.0936769
vn 0.133492 0.0785309 0.987934
v 5.82355 -0.454197 0.112201
vn 0.0660764 -0.0782817 -0.994739
v 5.81461 0.121211 0.0678656
vn 0.0690044 -0.0749174 -0.994799
v 5.83183 -0.408727 0.109579
vn 0.847971 -0.0265228 -0.529379
v 5.74157 1.03284 -0.00114081
vn -0.0312132 -0.0685576 -0.997159
v 5.75764 1.05792 -0.00298634
vn -0.0136286 -0.0445558 -0.998914
v 5.7757 1.02124 -0.00103805
vn -0.00629096 -0.0663544 -0.997776
v 5.2309 1.07965 0.0278078
vn -0.0203821 0.996862 -0.0764863
v 5.73353 1.08609 0.0313843
vn 0.0108915 0.992935 0.118161
v 5.73245 1.08351 -0.00185151
vn -0.00275622 0.954877 -0.296988
v 4.75545 0.970803 0.0753507
vn 0.0322193 0.0775446 0.996468
v 5.2327 1.0306 0.0549801
vn 0.0322371 0.0854438 0.995821
v 5.79104 -0.512455 0.155525
vn 0.0524571 0.0452474 0.997598
v 5.80761 -0.475164 0.152403
vn 0.0589198 0.0672942 0.995992
v 5.78981 -0.51538 0.117728
vn -0.0123136 -0.108884 -0.993978
v 5.81554 -0.502559 0.116505
vn 0.0507681 -0.118745 -0.991626
v 4.75416 0.967733 0.0356906
vn -0.0325959 -0.0767715 -0.996516
v 5.71076 0.984804 0.00325828
vn -0.0322356 -0.076765 -0.996528
v 4.69326 1.05695 0.0471089
vn -0.456679 0.887999 -0.0538701
v 4.72868 1.0656 0.0321799
vn -0.0513895 0.95401 -0.295338
v 4.72942 -0.544321 0.191333
vn -0.245174 -0.509077 0.825064
v 4.71156 -0.519449 0.190568
vn -0.0489927 0.0318961 0.99829
v 4.70157 -0.471362 0.187472
vn -0.0664782 0.0722655 0.995167
v 4.69145 -0.426398 0.183155
vn -0.907352 0.0103904 0.420243
v 4.67397 0.252813 0.109911
vn -0.999267 -0.0178321 0.0338752
v 4.69031 -0.429097 0.148281
vn -0.880379 -0.0573653 -0.470789
v 4.70036 -0.47424 0.150281
vn -0.130452 -0.0817887 -0.988075
v 4.71037 -0.522281 0.153975
vn -0.113528 -0.121677 -0.986056
v 4.72827 -0.547064 0.15589
vn -0.242482 -0.513947 -0.822837
v 4.72612 -0.550041 0.170409
vn -0.420046 -0.903644 0.0835961
v 4.67989 1.02922 0.0717427
vn -0.0507684 0.118746 0.991626
v 4.78467 -0.458138 0.18499
vn 0.0322368 0.076691 0.996534
v 5.76675 -0.538937 0.156068
vn 0.050863 -0.962031 0.268158
v 5.26273 -0.503934 0.133268
vn -0.0322371 -0.0854438 -0.995821
v 4.68782 1.00183 0.0358448
vn -0.0589197 -0.0672942 -0.995992
v 5.76716 1.07373 0.0323582
vn 0.295404 0.628606 0.719438
v 5.78507 1.04895 0.0342734
vn 0.113528 0.121677 0.986056
v 5.79507 1.00091 0.0379664
vn 0.130981 0.0812205 0.988052
v 5.80512 0.955763 0.0399674
vn 0.932645 0.0497888 0.357344
v 5.82122 0.273286 0.0710153
vn 0.999267 0.0178319 -0.0338752
v 5.80398 0.953064 0.00509277
vn 0.816693 -0.0244411 -0.576554
v 5.79386 0.998028 0.000775779
vn 0.0668527 -0.0726596 -0.995114
v 5.78388 1.04611 -0.00232038
vn 0.0489927 -0.0318962 -0.99829
v 5.76601 1.07099 -0.00308476
vn 0.186259 0.380153 -0.905975
v 5.76908 1.07615 0.010635
vn 0.420046 0.903644 -0.0835976
v 5.71205 0.987873 0.0429187
vn 0.0325802 0.077551 0.996456
v 5.81673 -0.499727 0.153099
vn 0.115304 0.0348277 0.99272
v 5.80636 -0.478135 0.114005
vn -0.00587008 -0.0868868 -0.996201
v 5.23142 1.02756 0.0157599
vn -0.0325777 -0.0687926 -0.997099
v 4.72976 1.06817 0.0654157
vn -0.0382448 0.992058 0.119827
v 4.69673 1.05463 0.0686495
vn -0.268228 0.618548 0.738547
v 5.24836 0.264875 0.114054
vn 0.0324085 0.077121 0.996495
v 5.79985 -0.525219 0.155041
vn 0.318459 -0.499017 0.805957
v 5.77272 -0.490992 0.115779
vn -0.0308644 -0.0856286 -0.995849
v 4.72144 1.01464 0.0334451
vn -0.0339501 -0.0686076 -0.997066
f 1//1 2//2 3//3
f 1//1 3//3 4//4
f 1//1 4//4 5//5
f 1//1 5//5 6//6
f 1//1 6//6 2//2
f 7//7 8//8 9//9
f 10//10 11//11 12//12
f 13//13 14//14 15//15
f 16//16 17//17 18//18
f 19//19 20//20 21//21
f 22//22 23//23 24//24
f 22//22 24//24 25//25
f 22//22 25//25 26//26
f 22//22 26//26 27//27
f 22//22 27//27 23//23
f 28//28 29//29 30//30
f 31//31 32//32 33//33
f 34//34 35//35 36//36
f 37//37 38//38 39//39
f 40//40 41//41 42//42
f 13//13 43//43 44//44
f 10//10 45//45 46//46
f 7//7 47//47 48//48
f 19//19 49//49 50//50
f 16//16 51//51 52//52
f 10//10 53//53 45//45
f 13//13 54//54 43//43
f 16//16 55//55 51//51
f 19//19 56//56 49//49
f 7//7 57//57 47//47
f 40//40 58//58 59//59
f 28//28 60//60 61//61
f 31//31 62//62 63//63
f 34//34 64//64 65//65
f 37//37 66//66 67//67
f 40//40 68//68 58//58
f 28//28 69//69 60//60
f 31//31 70//70 62//62
f 34//34 71//71 64//64
f 37//37 72//72 66//66
f 10//10 46//46 11//11
f 7//7 48//48 8//8
f 19//19 50//50 20//20
f 16//16 52//52 17//17
f 13//13 44//44 14//14
f 40//40 42//42 68//68
f 28//28 30//30 69//69
f 31//31 33//33 70//70
f 34//34 36//36 71//71
f 37//37 39//39 72//72
f 28//28 61//61 29//29
f 31//31 63//63 32//32
f 34//34 65//65 35//35
f 37//37 67//67 38//38
f 40//40 59//59 41//41
f 10//10 12//12 53//53
f 13//13 15//15 54//54
f 16//16 18//18 55//55
f 19//19 21//21 56//56
f 7//7 9//9 57//57
f 73//73 74//74 75//75
f 76//76 77//77 78//78
f 79//79 80//80 81//81
f 82//82 83//83 84//84
f 85//85 86//86 87//87
f 88//88 89//89 90//90
f 91//91 92//92 93//93
f 94//94 95//95 96//96
f 97//97 98//98 99//99
f 100//100 101//101 102//102
f 103//103 104//104 105//105
f 106//106 107//107 108//108
f 109//109 110//110 111//111
f 112//112 113//113 114//114
f 115//115 116//116 117//117
f 88//88 118//118 119//119
f 91//91 120//120 121//121
f 94//94 122//122 123//123
f 97//97 124//124 125//125
f 100//100 126//126 127//127
f 128//128 129//129 2//2
f 130//130 131//131 3//3
f 132//132 133//133 4//4
f 134//134 135//135 5//5
f 136//136 137//137 6//6
f 76//76 138//138 8//8
f 73//73 139//139 11//11
f 85//85 140//140 14//14
f 82//82 141//141 17//17
f 79//79 142//142 20//20
f 143//143 144//144 23//23
f 145//145 146//146 24//24
f 147//147 148//148 25//25
f 149//149 150//150 26//26
f 151//151 152//152 27//27
f 103//103 153//153 29//29
f 106//106 154//154 32//32
f 109//109 155//155 35//35
f 112//112 156//156 38//38
f 115//115 157//157 41//41
f 73//73 75//75 43//43
f 76//76 78//78 45//45
f 79//79 81//81 47//47
f 82//82 84//84 49//49
f 85//85 87//87 51//51
f 88//88 90//90 53//53
f 91//91 93//93 54//54
f 94//94 96//96 55//55
f 97//97 99//99 56//56
f 100//100 102//102 57//57
f 103//103 105//105 58//58
f 106//106 108//108 60//60
f 109//109 111//111 62//62
f 112//112 114//114 64//64
f 115//115 117//117 66//66
f 88//88 119//119 68//68
f 91//91 121//121 69//69
f 94//94 123//123 70//70
f 97//97 125//125 71//71
f 100//100 127//127 72//72
f 130//130 74//74 46//46
f 132//132 77//77 48//48
f 134//134 80//80 50//50
f 136//136 83//83 52//52
f 128//128 86//86 44//44
f 158//158 89//89 42//42
f 159//159 92//92 30//30
f 160//160 95//95 33//33
f 161//161 98//98 36//36
f 162//162 101//101 39//39
f 145//145 104//104 61//61
f 147//147 107//107 63//63
f 149//149 110//110 65//65
f 151//151 113//113 67//67
f 143//143 116//116 59//59
f 159//159 118//118 12//12
f 160//160 120//120 15//15
f 161//161 122//122 18//18
f 162//162 124//124 21//21
f 158//158 126//126 9//9
f 130//130 129//129 74//74
f 132//132 131//131 77//77
f 134//134 133//133 80//80
f 136//136 135//135 83//83
f 128//128 137//137 86//86
f 158//158 138//138 89//89
f 159//159 139//139 92//92
f 160//160 140//140 95//95
f 161//161 141//141 98//98
f 162//162 142//142 101//101
f 145//145 144//144 104//104
f 147//147 146//146 107//107
f 149//149 148//148 110//110
f 151//151 150//150 113//113
f 143//143 152//152 116//116
f 159//159 153//153 118//118
f 160//160 154//154 120//120
f 161//161 155//155 122//122
f 162//162 156//156 124//124
f 158//158 157//157 126//126
f 130//130 3//3 129//129
f 132//132 4//4 131//131
f 134//134 5//5 133//133
f 136//136 6//6 135//135
f 128//128 2//2 137//137
f 158//158 9//9 138//138
f 159//159 12//12 139//139
f 160//160 15//15 140//140
f 161//161 18//18 141//141
f 162//162 21//21 142//142
f 145//145 24//24 144//144
f 147//147 25//25 146//146
f 149//149 26//26 148//148
f 151//151 27//27 150//150
f 143//143 23//23 152//152
f 159//159 30//30 153//153
f 160//160 33//33 154//154
f 161//161 36//36 155//155
f 162//162 39//39 156//156
f 158//158 42//42 157//157
f 128//128 44//44 75//75
f 130//130 46//46 78//78
f 132//132 48//48 81//81
f 134//134 50//50 84//84
f 136//136 52//52 87//87
f 76//76 45//45 90//90
f 73//73 43//43 93//93
f 85//85 51//51 96//96
f 82//82 49//49 99//99
f 79//79 47//47 102//102
f 143//143 59//59 105//105
f 145//145 61//61 108//108
f 147//147 63//63 111//111
f 149//149 65//65 114//114
f 151//151 67//67 117//117
f 103//103 58//58 119//119
f 106//106 60//60 121//121
f 109//109 62//62 123//123
f 112//112 64//64 125//125
f 115//115 66//66 127//127
f 73//73 11//11 74//74
f 76//76 8//8 77//77
f 79//79 20//20 80//80
f 82//82 17//17 83//83
f 85//85 14//14 86//86
f 88//88 68//68 89//89
f 91//91 69//69 92//92
f 94//94 70//70 95//95
f 97//97 71//71 98//98
f 100//100 72//72 101//101
f 103//103 29//29 104//104
f 106//106 32//32 107//107
f 109//109 35//35 110//110
f 112//112 38//38 113//113
f 115//115 41//41 116//116
f 88//88 53//53 118//118
f 91//91 54//54 120//120
f 94//94 55//55 122//122
f 97//97 56//56 124//124
f 100//100 57//57 126//126
f 128//128 75//75 129//129
f 130//130 78//78 131//131
f 132//132 81//81 133//133
f 134//134 84//84 135//135
f 136//136 87//87 137//137
f 76//76 90//90 138//138
f 73//73 93//93 139//139
f 85//85 96//96 140//140
f 82//82 99//99 141//141
f 79//79 102//102 142//142
f 143//143 105//105 144//144
f 145//145 108//108 146//146
f 147//147 111//111 148//148
f 149//149 114//114 150//150
f 151//151 117//117 152//152
f 103//103 119//119 153//153
f 106//106 121//121 154//154
f 109//109 123//123 155//155
f 112//112 125//125 156//156
f 115//115 127//127 157//157
f 129//129 3//3 2//2
f 131//131 4//4 3//3
f 133//133 5//5 4//4
f 135//135 6//6 5//5
f 137//137 2//2 6//6
f 138//138 9//9 8//8
f 139//139 12//12 11//11
f 140//140 15//15 14//14
f 141//141 18//18 17//17
f 142//142 21//21 20//20
f 144//144 24//24 23//23
f 146//146 25//25 24//24
f 148//148 26//26 25//25
f 150//150 27//27 26//26
f 152//152 23//23 27//27
f 153//153 30//30 29//29
f 154//154 33//33 32//32
f 155//155 36//36 35//35
f 156//156 39//39 38//38
f 157//157 42//42 41//41
f 75//75 44//44 43//43
f 78//78 46//46 45//45
f 81//81 48//48 47//47
f 84//84 50//50 49//49
f 87//87 52//52 51//51
f 90//90 45//45 53//53
f 93//93 43//43 54//54
f 96//96 51//51 55//55
f 99//99 49//49 56//56
f 102//102 47//47 57//57
f 105//105 59//59 58//58
f 108//108 61//61 60//60
f 111//111 63//63 62//62
f 114//114 65//65 64//64
f 117//117 67//67 66//66
f 119//119 58//58 68//68
f 121//121 60//60 69//69
f 123//123 62//62 70//70
f 125//125 64//64 71//71
f 127//127 66//66 72//72
f 74//74 11//11 46//46
f 77//77 8//8 48//48
f 80//80 20//20 50//50
f 83//83 17//17 52//52
f 86//86 14//14 44//44
f 89//89 68//68 42//42
f 92//92 69//69 30//30
f 95//95 70//70 33//33
f 98//98 71//71 36//36
f 101//101 72//72 39//39
f 104//104 29//29 61//61
f 107//107 32//32 63//63
f 110//110 35//35 65//65
f 113//113 38//38 67//67
f 116//116 41//41 59//59
f 118//118 53//53 12//12
f 120//120 54//54 15//15
f 122//122 55//55 18//18
f 124//124 56//56 21//21
f 126//126 57//57 9//9
f 129//129 75//75 74//74
f 131//131 78//78 77//77
f 133//133 81//81 80//80
f 135//135 84//84 83//83
f 137//137 87//87 86//86
f 138//138 90//90 89//89
f 139//139 93//93 92//92
f 140//140 96//96 95//95
f 141//141 99//99 98//98
f 142//142 102//102 101//101
f 144//144 105//105 104//104
f 146//146 108//108 107//107
f 148//148 111//111 110//110
f 150//150 114//114 113//113
f 152//152 117//117 116//116
f 153//153 119//119 118//118
f 154//154 121//121 120//120
f 155//155 123//123 122//122
f 156//156 125//125 124//124
f 157//157 127//127 126//126
