# Created by Open3D 
# object name: part_005
# number of vertices: 162
# number of triangles: 320
v -12.5093 5.19035 0.0428679
vn -0.265904 0.963838 0.0176653
v -12.5571 5.16015 0.0639318
vn -0.535279 0.685636 0.493335
v -12.49 5.18423 0.0632154
vn 0.0167464 0.498446 0.866759
v -12.4375 5.1883 0.0411371
vn 0.416365 0.909197 -0.00123463
v -12.4909 5.18461 0.0282725
vn -0.0299871 0.390147 -0.920264
v -12.558 5.16051 0.030631
vn -0.544334 0.670017 -0.504755
v -10.7175 4.23376 -0.0156486
vn 0.948701 0.315406 -0.0220206
v -10.7322 4.24583 0.00581185
vn 0.448541 0.267929 0.852657
v -10.7149 4.17665 0.00376942
vn 0.891437 -0.0760249 0.446722
v -11.67 4.60446 0.0370876
vn 0.0282118 -0.00830049 0.999568
v -12.5271 5.00883 0.0645238
vn 0.0273415 -0.00925168 0.999583
v -11.7436 4.46658 0.0377983
vn 0.0269018 -0.0107552 0.99958
v -13.772 2.92954 0.0742411
vn -0.0147869 0.0112807 0.999827
v -13.7837 2.93576 0.0734334
vn -0.557629 0.300257 0.773883
v -14.8562 0.9015 0.0808028
vn -0.0450786 0.0267883 0.998624
v -13.773 2.92995 0.036748
vn -0.0683493 0.0331024 -0.997112
v -12.7232 4.85383 0.0290848
vn -0.0438623 0.020126 -0.998835
v -14.7871 0.987001 0.0421889
vn -0.0439458 0.0199718 -0.998834
v -11.8562 4.70369 0.00378967
vn -0.025412 0.0135462 -0.999585
v -10.8427 4.24131 -0.0280744
vn -0.0232628 0.0171746 -0.999582
v -10.8582 4.11773 -0.0294096
vn -0.0257711 0.0123116 -0.999592
v -13.1558 -0.334538 -0.000167469
vn 0.265905 -0.963837 -0.0176657
v -13.1069 -0.304775 0.0189562
vn 0.560549 -0.695935 0.448841
v -13.174 -0.328874 0.0213148
vn 0.0294463 -0.517264 0.855319
v -13.2276 -0.332496 0.00199978
vn -0.416365 -0.909197 0.00123462
v -13.1749 -0.328492 -0.0136281
vn -0.019611 -0.369939 -0.928849
v -13.1078 -0.304411 -0.0143445
vn 0.5161 -0.658513 -0.547725
v -13.9938 0.250844 0.0518415
vn 0.025412 -0.0135462 0.999585
v -13.1367 -0.153525 0.0244605
vn 0.0262825 -0.0125949 0.999575
v -13.9202 0.388721 0.0516174
vn 0.0267221 -0.0110917 0.999581
v -14.9476 0.622054 0.0583491
vn -0.948701 -0.315408 0.0220205
v -14.9317 0.609526 0.0787183
vn -0.402347 -0.286747 0.869421
v -14.9491 0.678725 0.0791187
vn -0.866151 0.065732 0.495441
v -14.1799 0.350075 0.0185434
vn -0.0282117 0.00830069 -0.999568
v -14.8233 0.614852 0.039068
vn -0.0304405 0.00459387 -0.999526
v -14.8077 0.738434 0.0395998
vn -0.0279872 0.0095817 -0.999562
v -11.8929 1.92619 -0.0246538
vn 0.0147861 -0.0112803 -0.999827
v -12.9427 0.00232792 -0.0180454
vn -0.00975016 0.00171612 -0.999951
v -10.8788 3.86916 -0.0311493
vn -0.00966869 0.00187139 -0.999952
v -11.8918 1.92578 0.0128392
vn 0.0683504 -0.033103 0.997112
v -11.8802 1.91959 0.0112721
vn 0.598141 -0.316763 0.736131
v -10.8077 3.95383 0.00556458
vn 0.0985319 -0.0485663 0.993948
v -12.7222 4.85341 0.0676327
vn 0.00975021 -0.00171612 0.999951
v -12.6905 4.959 0.0670525
vn -0.0445405 0.0278144 0.99862
v -10.8416 4.24088 0.0105194
vn 0.0303959 -0.00463727 0.999527
v -12.4331 5.09052 0.0624929
vn 0.0300386 -0.00444641 0.999539
v -10.7332 4.24621 -0.029131
vn 0.293815 0.217278 -0.93084
v -10.7591 4.2923 -0.013673
vn 0.523636 0.851929 -0.00473922
v -12.5282 5.00926 0.0251269
vn -0.0263513 0.0126466 -0.999573
v -12.4341 5.09094 0.0238993
vn -0.0235726 0.0174611 -0.99957
v -13.7846 2.93615 0.0383151
vn -0.478663 0.252637 -0.840866
v -12.6915 4.9594 0.0302724
vn -0.0979836 0.0495872 -0.993952
v -10.8572 4.1173 0.00998744
vn 0.0279059 -0.00955332 0.999565
v -14.7861 0.986579 0.0807366
vn 0.00966849 -0.00187129 0.999952
v -14.8572 0.901902 0.0440227
vn -0.098531 0.0485659 -0.993948
v -11.9321 4.56704 0.00408842
vn -0.0267222 0.0110917 -0.999581
v -10.7158 4.17701 -0.0295313
vn 0.832789 -0.0651796 -0.54974
v -12.9417 0.00190685 0.0205024
vn 0.043863 -0.0201264 0.998835
v -12.9734 -0.103668 0.0193148
vn 0.0979826 -0.0495866 0.993952
v -14.8222 0.614431 0.0776616
vn 0.0232259 -0.0172102 0.999582
v -13.2307 -0.235202 0.0256879
vn 0.0235835 -0.0174009 0.99957
v -14.9327 0.609908 0.0437755
vn -0.343417 -0.197076 -0.918273
v -14.9059 0.563505 0.0568097
vn -0.523636 -0.851929 0.00473922
v -13.1378 -0.153094 -0.0149365
vn -0.0273861 0.00928578 -0.999582
v -13.2318 -0.23478 -0.0129057
vn -0.0300299 0.0044962 -0.999539
v -11.8812 1.91997 -0.0238461
vn 0.432745 -0.233928 -0.870637
v -12.9744 -0.103266 -0.0174653
vn 0.0445386 -0.0278134 -0.99862
v -10.8777 3.86874 0.0073984
vn 0.043946 -0.0199719 0.998834
v -14.8067 0.738003 0.0789969
vn 0.0257181 -0.0122931 0.999594
v -14.95 0.679089 0.0458179
vn -0.86104 0.0766846 -0.502723
v -14.1086 0.489179 0.0179075
vn -0.0269018 0.0107552 -0.99958
v -10.8087 3.95424 -0.0312156
vn 0.0450793 -0.0267886 -0.998624
v -12.6216 4.96772 0.066483
vn 0.0212444 -0.00761257 0.999745
v -12.5341 5.09717 0.0652373
vn 0.0226484 -0.00218636 0.999741
v -12.6148 5.05019 0.0665854
vn 0.00728001 0.0043094 0.999964
v -10.7693 4.24683 0.00800072
vn 0.0388319 0.00721976 0.99922
v -10.8025 4.31215 0.00844127
vn 0.244369 0.391423 0.887171
v -11.6128 4.7118 0.0357998
vn 0.0372646 0.00867508 0.999268
v -10.7703 4.24723 -0.0293051
vn -0.0150115 0.0292783 -0.999459
v -11.7902 4.80637 0.00406627
vn -0.0163463 0.0305161 -0.999401
v -10.8034 4.31253 -0.0265415
vn 0.12619 0.285919 -0.949909
v -12.6227 4.96815 0.0273384
vn -0.0323781 0.0142338 -0.999374
v -12.6158 5.05061 0.0286714
vn -0.0463255 0.0261486 -0.998584
v -12.5352 5.09759 0.0267205
vn -0.0309712 0.0196585 -0.999327
v -13.788 2.93797 0.0523231
vn -0.881794 0.470755 0.0288044
v -12.6986 4.96626 0.0656252
vn -0.842752 0.458705 0.281707
v -12.6995 4.96662 0.0322866
vn -0.848665 0.459908 -0.261251
v -10.8387 4.0159 0.00825888
vn 0.0326594 -0.0137066 0.999373
v -10.774 4.06748 0.00647131
vn 0.0503211 -0.018668 0.998559
v -10.7799 4.16063 0.00794745
vn 0.0363856 -0.00951975 0.999292
v -14.8251 0.839405 0.0804732
vn 0.0209625 -0.0081394 0.999747
v -14.701 0.938307 0.0785438
vn 0.026508 -0.0108058 0.99959
v -13.7278 2.90595 0.073723
vn 0.0212439 -0.00795101 0.999743
v -14.9244 0.761489 0.0449046
vn -0.367715 0.133794 -0.920264
v -14.9345 0.752951 0.0592582
vn -0.938852 0.343101 0.0289487
v -14.8676 0.9045 0.0460526
vn -0.855161 0.44774 -0.261206
v -13.0211 2.5285 0.0109444
vn -0.026812 0.0109235 -0.999581
v -14.702 0.938742 0.0387608
vn -0.0271919 0.0110815 -0.999569
v -12.6358 4.80997 0.0256419
vn -0.0271547 0.0111512 -0.999569
v -10.7415 4.09464 -0.0308699
vn 0.317772 -0.113444 -0.941356
v -10.7751 4.0679 -0.0314426
vn -0.00328874 0.00317283 -0.99999
v -10.7334 4.18065 -0.0307248
vn 0.0108307 0.0112351 -0.999878
v -13.0422 -0.11241 0.022249
vn 0.032379 -0.0142342 0.999374
v -13.1297 -0.241858 0.0228668
vn 0.0309723 -0.0196597 0.999327
v -13.0491 -0.194872 0.0209157
vn 0.0463262 -0.0261493 0.998584
v -14.8946 0.608501 0.0788923
vn 0.0147787 -0.0290627 0.999468
v -14.8615 0.543209 0.0761286
vn -0.196693 -0.410846 0.890234
v -14.0511 0.143525 0.0512809
vn 0.0163463 -0.0305161 0.999401
v -14.8956 0.608909 0.0415867
vn -0.0391622 -0.00691102 -0.999209
v -14.2285 0.238095 0.0195474
vn -0.0372646 -0.00867507 -0.999268
v -14.8624 0.543591 0.0411459
vn -0.194741 -0.297935 -0.934511
v -13.0433 -0.111982 -0.0168959
vn -0.021244 0.0076123 -0.999745
v -13.0501 -0.194458 -0.0169983
vn -0.00728026 -0.00430987 -0.999964
v -13.1307 -0.241437 -0.0156499
vn -0.0226486 0.0021858 -0.999741
v -11.8771 1.91785 -0.0100798
vn 0.881794 -0.470755 -0.028806
v -12.9654 -0.110884 0.0173006
vn 0.856373 -0.464255 0.226036
v -12.9663 -0.11052 -0.0160381
vn 0.833169 -0.453594 -0.316359
v -10.9628 3.917 0.0108264
vn 0.0271159 -0.0110411 0.999571
v -11.936 1.94935 0.0152059
vn 0.0323788 -0.0138955 0.999379
v -14.8898 0.787838 0.0810298
vn 0.00328901 -0.00317277 0.99999
v -14.884 0.694681 0.0801566
vn 0.0172364 -0.0123263 0.999775
v -14.8908 0.788252 0.0431158
vn -0.0503205 0.0186679 -0.998559
v -14.9325 0.675489 0.0436051
vn -0.0644158 0.0105968 -0.997867
v -10.9639 3.91743 -0.0289566
vn -0.0265575 0.0108322 -0.999589
v -13.0302 0.0461992 -0.0158377
vn -0.0265945 0.0107628 -0.999588
v -10.7306 4.10286 -0.0168972
vn 0.938852 -0.343102 -0.0289487
v -10.7982 3.9516 -0.0298041
vn 0.839664 -0.441425 -0.316397
v -12.6113 5.09298 0.0657771
vn -0.36891 0.278515 0.886755
v -12.5443 5.14758 0.0651556
vn 0.00612041 0.0205253 0.999771
v -12.4684 5.15391 0.0634888
vn 0.0351839 0.00916722 0.999339
v -12.3958 5.16274 0.0604739
vn 0.234368 0.396763 0.887497
v -11.5935 4.7493 0.0132548
vn 0.470872 0.882196 -0.00299209
v -12.3967 5.16313 0.0254912
vn 0.13651 0.322675 -0.936614
v -12.4694 5.15432 0.026183
vn -0.0188674 0.0311114 -0.999338
v -12.5453 5.14798 0.0284485
vn -0.0474638 0.0423549 -0.997975
v -12.6122 5.09337 0.0302244
vn -0.318395 0.226179 -0.92058
v -12.6107 5.10662 0.0445044
vn -0.807495 0.589204 0.0281057
v -10.7324 4.18025 0.00598218
vn 0.0644154 -0.0105975 0.997867
v -12.6347 4.80954 0.0654249
vn 0.026545 -0.0107364 0.99959
v -14.8667 0.904135 0.0793913
vn -0.849342 0.446359 0.281748
v -13.7289 2.90638 0.0343814
vn -0.0323789 0.0138955 -0.999379
v -10.7809 4.16106 -0.0305694
vn -0.017236 0.0123264 -0.999775
v -13.0527 -0.237632 0.0193629
vn 0.415738 -0.29759 0.85942
v -13.1196 -0.292242 0.0211386
vn 0.0474639 -0.0423545 0.997975
v -13.1954 -0.298585 0.0234042
vn 0.0184283 -0.0310068 0.999349
v -13.2682 -0.30739 0.0240961
vn -0.186692 -0.416184 0.889909
v -14.0716 0.10652 0.0289885
vn -0.470872 -0.882196 0.0029921
v -13.2691 -0.307008 -0.0108866
vn -0.169985 -0.268976 -0.948028
v -13.1964 -0.298177 -0.0139014
vn -0.0354935 -0.00909566 -0.999329
v -13.1206 -0.29184 -0.0155683
vn -0.00612108 -0.0205254 -0.999771
v -13.0536 -0.237244 -0.0161898
vn 0.26846 -0.205836 -0.941042
v -13.0543 -0.250806 -0.00214337
vn 0.807495 -0.589205 -0.0281082
v -13.0291 0.0457643 0.0239454
vn 0.0270788 -0.0111106 0.999572
v -14.9315 0.675088 0.0803121
vn -0.0108292 -0.0112349 0.999878
v -14.885 0.695102 0.0416398
vn -0.0363847 0.009519 -0.999293
v -11.937 1.94978 -0.0241358
vn -0.0212435 0.00795078 -0.999743
v -10.7973 3.95124 0.00353472
vn 0.862964 -0.451909 0.22599
v -10.7405 4.09425 0.00468272
vn 0.481051 -0.175248 0.858998
v -12.8319 2.42765 0.0447852
vn 0.0268119 -0.0109235 0.999581
v -14.9234 0.7611 0.0804572
vn -0.434214 0.156162 0.887171
v -14.8262 0.839833 0.0413284
vn -0.0326601 0.013707 -0.999373
v -10.8398 4.01633 -0.0308859
vn -0.0209623 0.00813928 -0.999747
f 1//1 2//2 3//3
f 1//1 3//3 4//4
f 1//1 4//4 5//5
f 1//1 5//5 6//6
f 1//1 6//6 2//2
f 7//7 8//8 9//9
f 10//10 11//11 12//12
f 13//13 14//14 15//15
f 16//16 17//17 18//18
f 19//19 20//20 21//21
f 22//22 23//23 24//24
f 22//22 24//24 25//25
f 22//22 25//25 26//26
f 22//22 26//26 27//27
f 22//22 27//27 23//23
f 28//28 29//29 30//30
f 31//31 32//32 33//33
f 34//34 35//35 36//36
f 37//37 38//38 39//39
f 40//40 41//41 42//42
f 13//13 43//43 44//44
f 10//10 45//45 46//46
f 7//7 47//47 48//48
f 19//19 49//49 50//50
f 16//16 51//51 52//52
f 10//10 53//53 45//45
f 13//13 54//54 43//43
f 16//16 55//55 51//51
f 19//19 56//56 49//49
f 7//7 57//57 47//47
f 40//40 58//58 59//59
f 28//28 60//60 61//61
f 31//31 62//62 63//63
f 34//34 64//64 65//65
f 37//37 66//66 67//67
f 40//40 68//68 58//58
f 28//28 69//69 60//60
f 31//31 70//70 62//62
f 34//34 71//71 64//64
f 37//37 72//72 66//66
f 10//10 46//46 11//11
f 7//7 48//48 8//8
f 19//19 50//50 20//20
f 16//16 52//52 17//17
f 13//13 44//44 14//14
f 40//40 42//42 68//68
f 28//28 30//30 69//69
f 31//31 33//33 70//70
f 34//34 36//36 71//71
f 37//37 39//39 72//72
f 28//28 61//61 29//29
f 31//31 63//63 32//32
f 34//34 65//65 35//35
f 37//37 67//67 38//38
f 40//40 59//59 41//41
f 10//10 12//12 53//53
f 13//13 15//15 54//54
f 16//16 18//18 55//55
f 19//19 21//21 56//56
f 7//7 9//9 57//57
f 73//73 74//74 75//75
f 76//76 77//77 78//78
f 79//79 80//80 81//81
f 82//82 83//83 84//84
f 85//85 86//86 87//87
f 88//88 89//89 90//90
f 91//91 92//92 93//93
f 94//94 95//95 96//96
f 97//97 98//98 99//99
f 100//100 101//101 102//102
f 103//103 104//104 105//105
f 106//106 107//107 108//108
f 109//109 110//110 111//111
f 112//112 113//113 114//114
f 115//115 116//116 117//117
f 88//88 118//118 119//119
f 91//91 120//120 121//121
f 94//94 122//122 123//123
f 97//97 124//124 125//125
f 100//100 126//126 127//127
f 128//128 129//129 2//2
f 130//130 131//131 3//3
f 132//132 133//133 4//4
f 134//134 135//135 5//5
f 136//136 137//137 6//6
f 76//76 138//138 8//8
f 73//73 139//139 11//11
f 85//85 140//140 14//14
f 82//82 141//141 17//17
f 79//79 142//142 20//20
f 143//143 144//144 23//23
f 145//145 146//146 24//24
f 147//147 148//148 25//25
f 149//149 150//150 26//26
f 151//151 152//152 27//27
f 103//103 153//153 29//29
f 106//106 154//154 32//32
f 109//109 155//155 35//35
f 112//112 156//156 38//38
f 115//115 157//157 41//41
f 73//73 75//75 43//43
f 76//76 78//78 45//45
f 79//79 81//81 47//47
f 82//82 84//84 49//49
f 85//85 87//87 51//51
f 88//88 90//90 53//53
f 91//91 93//93 54//54
f 94//94 96//96 55//55
f 97//97 99//99 56//56
f 100//100 102//102 57//57
f 103//103 105//105 58//58
f 106//106 108//108 60//60
f 109//109 111//111 62//62
f 112//112 114//114 64//64
f 115//115 117//117 66//66
f 88//88 119//119 68//68
f 91//91 121//121 69//69
f 94//94 123//123 70//70
f 97//97 125//125 71//71
f 100//100 127//127 72//72
f 130//130 74//74 46//46
f 132//132 77//77 48//48
f 134//134 80//80 50//50
f 136//136 83//83 52//52
f 128//128 86//86 44//44
f 158//158 89//89 42//42
f 159//159 92//92 30//30
f 160//160 95//95 33//33
f 161//161 98//98 36//36
f 162//162 101//101 39//39
f 145//145 104//104 61//61
f 147//147 107//107 63//63
f 149//149 110//110 65//65
f 151//151 113//113 67//67
f 143//143 116//116 59//59
f 159//159 118//118 12//12
f 160//160 120//120 15//15
f 161//161 122//122 18//18
f 162//162 124//124 21//21
f 158//158 126//126 9//9
f 130//130 129//129 74//74
f 132//132 131//131 77//77
f 134//134 133//133 80//80
f 136//136 135//135 83//83
f 128//128 137//137 86//86
f 158//158 138//138 89//89
f 159//159 139//139 92//92
f 160//160 140//140 95//95
f 161//161 141//141 98//98
f 162//162 142//142 101//101
f 145//145 144//144 104//104
f 147//147 146//146 107//107
f 149//149 148//148 110//110
f 151//151 150//150 113//113
f 143//143 152//152 116//116
f 159//159 153//153 118//118
f 160//160 154//154 120//120
f 161//161 155//155 122//122
f 162//162 156//156 124//124
f 158//158 157//157 126//126
f 130//130 3//3 129//129
f 132//132 4//4 131//131
f 134//134 5//5 133//133
f 136//136 6//6 135//135
f 128//128 2//2 137//137
f 158//158 9//9 138//138
f 159//159 12//12 139//139
f 160//160 15//15 140//140
f 161//161 18//18 141//141
f 162//162 21//21 142//142
f 145//145 24//24 144//144
f 147//147 25//25 146//146
f 149//149 26//26 148//148
f 151//151 27//27 150//150
f 143//143 23//23 152//152
f 159//159 30//30 153//153
f 160//160 33//33 154//154
f 161//161 36//36 155//155
f 162//162 39//39 156//156
f 158//158 42//42 157//157
f 128//128 44//44 75//75
f 130//130 46//46 78//78
f 132//132 48//48 81//81
f 134//134 50//50 84//84
f 136//136 52//52 87//87
f 76//76 45//45 90//90
f 73//73 43//43 93//93
f 85//85 51//51 96//96
f 82//82 49//49 99//99
f 79//79 47//47 102//102
f 143//143 59//59 105//105
f 145//145 61//61 108//108
f 147//147 63//63 111//111
f 149//149 65//65 114//114
f 151//151 67//67 117//117
f 103//103 58//58 119//119
f 106//106 60//60 121//121
f 109//109 62//62 123//123
f 112//112 64//64 125//125
f 115//115 66//66 127//127
f 73//73 11//11 74//74
f 76//76 8//8 77//77
f 79//79 20//20 80//80
f 82//82 17//17 83//83
f 85//85 14//14 86//86
f 88//88 68//68 89//89
f 91//91 69//69 92//92
f 94//94 70//70 95//95
f 97//97 71//71 98//98
f 100//100 72//72 101//101
f 103//103 29//29 104//104
f 106//106 32//32 107//107
f 109//109 35//35 110//110
f 112//112 38//38 113//113
f 115//115 41//41 116//116
f 88//88 53//53 118//118
f 91//91 54//54 120//120
f 94//94 55//55 122//122
f 97//97 56//56 124//124
f 100//100 57//57 126//126
f 128//128 75//75 129//129
f 130//130 78//78 131//131
f 132//132 81//81 133//133
f 134//134 84//84 135//135
f 136//136 87//87 137//137
f 76//76 90//90 138//138
f 73//73 93//93 139//139
f 85//85 96//96 140//140
f 82//82 99//99 141//141
f 79//79 102//102 142//142
f 143//143 105//105 144//144
f 145//145 108//108 146//146
f 147//147 111//111 148//148
f 149//149 114//114 150//150
f 151//151 117//117 152//152
f 103//103 119//119 153//153
f 106//106 121//121 154//154
f 109//109 123//123 155//155
f 112//112 125//125 156//156
f 115//115 127//127 157//157
f 129//129 3//3 2//2
f 131//131 4//4 3//3
f 133//133 5//5 4//4
f 135//135 6//6 5//5
f 137//137 2//2 6//6
f 138//138 9//9 8//8
f 139//139 12//12 11//11
f 140//140 15//15 14//14
f 141//141 18//18 17//17
f 142//142 21//21 20//20
f 144//144 24//24 23//23
f 146//146 25//25 24//24
f 148//148 26//26 25//25
f 150//150 27//27 26//26
f 152//152 23//23 27//27
f 153//153 30//30 29//29
f 154//154 33//33 32//32
f 155//155 36//36 35//35
f 156//156 39//39 38//38
f 157//157 42//42 41//41
f 75//75 44//44 43//43
f 78//78 46//46 45//45
f 81//81 48//48 47//47
f 84//84 50//50 49//49
f 87//87 52//52 51//51
f 90//90 45//45 53//53
f 93//93 43//43 54//54
f 96//96 51//51 55//55
f 99//99 49//49 56//56
f 102//102 47//47 57//57
f 105//105 59//59 58//58
f 108//108 61//61 60//60
f 111//111 63//63 62//62
f 114//114 65//65 64//64
f 117//117 67//67 66//66
f 119//119 58//58 68//68
f 121//121 60//60 69//69
f 123//123 62//62 70//70
f 125//125 64//64 71//71
f 127//127 66//66 72//72
f 74//74 11//11 46//46
f 77//77 8//8 48//48
f 80//80 20//20 50//50
f 83//83 17//17 52//52
f 86//86 14//14 44//44
f 89//89 68//68 42//42
f 92//92 69//69 30//30
f 95//95 70//70 33//33
f 98//98 71//71 36//36
f 101//101 72//72 39//39
f 104//104 29//29 61//61
f 107//107 32//32 63//63
f 110//110 35//35 65//65
f 113//113 38//38 67//67
f 116//116 41//41 59//59
f 118//118 53//53 12//12
f 120//120 54//54 15//15
f 122//122 55//55 18//18
f 124//124 56//56 21//21
f 126//126 57//57 9//9
f 129//129 75//75 74//74
f 131//131 78//78 77//77
f 133//133 81//81 80//80
f 135//135 84//84 83//83
f 137//137 87//87 86//86
f 138//138 90//90 89//89
f 139//139 93//93 92//92
f 140//140 96//96 95//95
f 141//141 99//99 98//98
f 142//142 102//102 101//101
f 144//144 105//105 104//104
f 146//146 108//108 107//107
f 148//148 111//111 110//110
f 150//150 114//114 113//113
f 152//152 117//117 116//116
f 153//153 119//119 118//118
f 154//154 121//121 120//120
f 155//155 123//123 122//122
f 156//156 125//125 124//124
f 157//157 127//127 126//126
