# Created by Open3D 
# object name: part_004
# number of vertices: 162
# number of triangles: 320
v -1.97776 2.27314 0.269405
vn 0.651037 0.744639 -0.147183
v -1.98127 2.27934 0.288595
vn 0.471045 0.869722 -0.147309
v -1.97638 2.27562 0.290285
vn 0.700239 0.707658 -0.0942677
v -1.97186 2.26741 0.270916
vn 0.759536 0.63866 -0.123366
v -1.97589 2.26843 0.256078
vn 0.700829 0.685368 -0.197761
v -1.9808 2.27249 0.255995
vn 0.469246 0.858425 -0.207159
v -1.80887 2.07636 0.313161
vn 0.861131 0.49985 -0.0927516
v -1.8107 2.08258 0.33321
vn 0.822901 0.564738 -0.0624882
v -1.80763 2.07702 0.333583
vn 0.949847 0.311848 -0.0232571
v -1.89574 2.17777 0.314245
vn 0.0861587 0.286147 0.954304
v -1.97526 2.2688 0.29401
vn 0.0428097 0.254847 0.966033
v -1.89845 2.17559 0.314912
vn -0.00748421 0.210929 0.977473
v -2.02706 2.24566 0.297161
vn -0.233114 0.449509 0.862322
v -2.02814 2.24669 0.295715
vn -0.637233 0.770407 -0.0202028
v -2.067 2.21297 0.303097
vn -0.370299 0.558526 0.742245
v -2.02654 2.23795 0.260457
vn -0.206893 0.0631665 -0.976322
v -1.9869 2.26711 0.254357
vn -0.0784256 -0.0900344 -0.992846
v -2.06279 2.20465 0.266398
vn -0.0843072 -0.0948793 -0.991912
v -1.91264 2.19 0.271212
vn 0.113829 -0.121562 -0.986035
v -1.81899 2.08335 0.295339
vn 0.246471 -0.00580164 -0.969133
v -1.8173 2.0773 0.296224
vn 0.0732412 -0.1588 -0.98459
v -1.89853 2.00257 0.327387
vn -0.651036 -0.74464 0.147183
v -1.89558 2.00464 0.347538
vn -0.471833 -0.858163 0.202313
v -1.90049 2.00869 0.347455
vn -0.701452 -0.689774 0.179379
v -1.90443 2.00839 0.326303
vn -0.759535 -0.63866 0.123366
v -1.9 2.0015 0.313248
vn -0.699088 -0.711018 0.0756871
v -1.89511 1.99779 0.314938
vn -0.468327 -0.871898 0.143048
v -1.98119 2.10745 0.327802
vn -0.113827 0.121564 0.986035
v -1.90167 2.01642 0.34809
vn -0.0706372 0.155184 0.985357
v -1.97848 2.10973 0.327611
vn -0.0204235 0.200281 0.979526
v -2.06742 2.19935 0.28363
vn -0.861134 -0.499847 0.0927479
v -2.06617 2.20173 0.30453
vn -0.824114 -0.546856 0.147597
v -2.06922 2.20695 0.30255
vn -0.950628 -0.300302 0.0782671
v -1.99808 2.11968 0.284769
vn -0.0861572 -0.286146 -0.954305
v -2.05685 2.18583 0.270413
vn -0.223205 -0.388212 -0.894131
v -2.05853 2.19172 0.268742
vn -0.0468457 -0.251024 -0.966847
v -1.84932 2.03146 0.306372
vn 0.233118 -0.449512 -0.862319
v -1.88894 2.00209 0.31144
vn 0.106026 -0.316646 -0.942599
v -1.81305 2.06455 0.299399
vn 0.11191 -0.311803 -0.943533
v -1.84984 2.03918 0.343076
vn 0.206893 -0.0631665 0.976322
v -1.84873 2.03765 0.342197
vn 0.633115 -0.709739 0.308927
v -1.8099 2.07173 0.336442
vn 0.346684 -0.210506 0.914055
v -1.98744 2.27503 0.292093
vn -0.106025 0.316645 0.9426
v -1.98736 2.2785 0.290462
vn -0.336922 0.585998 0.736946
v -1.81953 2.09129 0.33312
vn 0.221403 0.387059 0.895079
v -1.96954 2.26607 0.294256
vn 0.219488 0.389291 0.894582
v -1.81022 2.07539 0.299003
vn 0.823699 0.542208 -0.165921
v -1.81367 2.08309 0.311901
vn 0.773196 0.622743 -0.119828
v -1.97471 2.2607 0.255443
vn 0.0706644 -0.154316 -0.985491
v -1.969 2.25813 0.256475
vn 0.247671 -0.000691998 -0.968844
v -2.02765 2.23947 0.261336
vn -0.625007 0.688532 -0.367818
v -1.98685 2.27094 0.254457
vn -0.313304 0.237973 -0.919353
v -1.81785 2.08541 0.334791
vn 0.0459789 0.251157 0.966854
v -2.06333 2.21258 0.304135
vn -0.111908 0.311801 0.943534
v -2.06648 2.2054 0.267092
vn -0.346684 0.210506 -0.914055
v -1.91556 2.18797 0.271347
vn 0.0204233 -0.200281 -0.979526
v -1.80716 2.07017 0.300983
vn 0.951465 0.296569 -0.0822266
v -1.88948 2.01002 0.349176
vn 0.0784256 0.0900344 0.992846
v -1.88953 2.00619 0.349076
vn 0.313304 -0.237973 0.919353
v -2.05739 2.19377 0.308194
vn -0.247982 0.00457489 0.968754
v -1.90738 2.01899 0.347059
vn -0.246073 0.00233627 0.969249
v -2.06568 2.19454 0.270323
vn -0.821963 -0.567851 0.0438497
v -2.06262 2.19271 0.285317
vn -0.773197 -0.622742 0.11983
v -1.90112 2.00832 0.309523
vn -0.0427927 -0.254293 -0.96618
v -1.90684 2.01105 0.309277
vn -0.218116 -0.388145 -0.895415
v -1.84824 2.03043 0.307819
vn 0.630857 -0.774737 -0.0424462
v -1.88902 1.99862 0.313071
vn 0.336925 -0.586001 -0.736942
v -1.81359 2.07248 0.337135
vn 0.0843072 0.0948793 0.991912
v -2.05908 2.19982 0.30731
vn -0.0738038 0.158877 0.984536
v -2.06875 2.20011 0.26995
vn -0.950547 -0.310051 0.0181123
v -1.99559 2.12211 0.284046
vn 0.00748442 -0.210929 -0.977473
v -1.80938 2.06416 0.300436
vn 0.370302 -0.558529 -0.742241
v -1.98198 2.27383 0.29273
vn -0.0358944 0.251046 0.967309
v -1.97793 2.27441 0.292345
vn 0.137744 0.39774 0.9071
v -1.98338 2.27796 0.291212
vn 0.00851002 0.449525 0.893227
v -1.81377 2.08581 0.333696
vn 0.52786 0.576345 0.623851
v -1.81801 2.09198 0.331151
vn 0.766446 0.637526 -0.078233
v -1.89362 2.17931 0.313006
vn 0.527447 0.588862 0.612406
v -1.81325 2.07813 0.297176
vn 0.547928 0.282039 -0.787546
v -1.90972 2.19097 0.271995
vn 0.547359 0.295683 -0.782924
v -1.81753 2.08478 0.296905
vn 0.767015 0.613618 -0.187514
v -1.98143 2.26578 0.254409
vn -0.00802382 -0.159627 -0.987145
v -1.98285 2.27016 0.254097
vn 0.0354753 0.0521303 -0.99801
v -1.97739 2.26648 0.254639
vn 0.164748 -0.000109665 -0.986336
v -2.02819 2.24273 0.27484
vn -0.642201 0.74826 -0.166388
v -1.98816 2.2792 0.288546
vn -0.610033 0.780271 -0.137973
v -1.9877 2.27234 0.255909
vn -0.609042 0.765026 -0.20929
v -1.81393 2.07803 0.336268
vn 0.0282671 0.176288 0.983933
v -1.80988 2.07581 0.336164
vn 0.242626 0.176741 0.953884
v -1.81258 2.08175 0.335185
vn 0.212528 0.310602 0.926476
v -2.063 2.20715 0.305585
vn -0.0561368 0.234384 0.970522
v -2.05525 2.20319 0.306853
vn -0.0168974 0.206383 0.978325
v -2.02291 2.241 0.299144
vn -0.0452337 0.241832 0.969263
v -2.06862 2.20265 0.268267
vn -0.949406 0.115456 -0.292059
v -2.06947 2.2059 0.282051
vn -0.981073 0.186211 -0.0531185
v -2.06742 2.20673 0.268558
vn -0.672203 0.713047 -0.199267
v -1.95564 2.15511 0.277603
vn 0.0139544 -0.205612 -0.978534
v -2.05469 2.19501 0.267908
vn 0.0105806 -0.204345 -0.978842
v -1.97872 2.25754 0.255853
vn 0.0132618 -0.202139 -0.979267
v -1.80727 2.06716 0.300462
vn 0.956349 -0.217776 -0.194858
v -1.80935 2.06801 0.299048
vn 0.269598 -0.220647 -0.937354
v -1.80865 2.07141 0.29896
vn 0.605077 0.0813146 -0.792003
v -1.89495 2.01135 0.349124
vn 0.00802382 0.159627 0.987145
v -1.89899 2.01064 0.348894
vn -0.164748 0.000109665 0.986336
v -1.89353 2.00696 0.349437
vn -0.0354753 -0.0521303 0.99801
v -2.06313 2.19899 0.306358
vn -0.54802 -0.279629 0.788341
v -2.05885 2.19234 0.306628
vn -0.76767 -0.619499 0.164024
v -1.98328 2.10553 0.327231
vn -0.547359 -0.295683 0.782924
v -2.06261 2.19132 0.269837
vn -0.527946 -0.573648 -0.626259
v -1.99938 2.11718 0.28622
vn -0.527454 -0.588866 -0.612397
v -2.05837 2.18515 0.272382
vn -0.765638 -0.64025 0.0622784
v -1.8944 2.0033 0.310803
vn 0.0358943 -0.251047 -0.967309
v -1.893 1.99916 0.312321
vn -0.00851002 -0.449525 -0.893227
v -1.89845 2.00272 0.311188
vn -0.137744 -0.39774 -0.9071
v -1.84809 2.03288 0.321504
vn 0.642201 -0.74826 0.166387
v -1.88868 2.00478 0.347625
vn 0.609086 -0.766315 0.204391
v -1.88822 1.99793 0.314988
vn 0.61013 -0.781064 0.132968
v -1.82169 2.08211 0.335626
vn -0.0110113 0.20484 0.978734
v -1.85402 2.04422 0.342902
vn 0.0173597 0.168902 0.98548
v -2.06703 2.20912 0.304485
vn -0.269597 0.220644 0.937355
v -2.06434 2.2033 0.306054
vn -0.239526 0.0872551 0.966961
v -2.0665 2.20132 0.267369
vn -0.242626 -0.176744 -0.953884
v -2.06722 2.19816 0.268639
vn -0.583677 -0.396613 -0.708533
v -1.82113 2.07393 0.29668
vn 0.0166158 -0.20606 -0.978398
v -1.89711 2.0114 0.308735
vn 0.0139479 -0.208256 -0.977975
v -1.80681 2.06974 0.314408
vn 0.981071 -0.186219 0.0531195
v -1.80849 2.06354 0.302338
vn 0.673292 -0.729083 0.122947
v -1.98409 2.27993 0.289582
vn -0.0104269 0.999549 -0.028173
v -1.97995 2.27795 0.290646
vn 0.331979 0.689865 0.643332
v -1.97392 2.27241 0.292203
vn 0.513048 0.59361 0.620007
v -1.96819 2.26696 0.292243
vn 0.763672 0.640759 -0.0789512
v -1.89258 2.1753 0.290943
vn 0.766409 0.630737 -0.121604
v -1.9677 2.25976 0.257997
vn 0.764414 0.618948 -0.180485
v -1.9734 2.26473 0.255683
vn 0.53014 0.29713 -0.794144
v -1.97944 2.2704 0.254712
vn 0.353377 0.374553 -0.857225
v -1.9836 2.27262 0.254778
vn -0.000154446 0.896678 -0.442683
v -1.98403 2.27622 0.268494
vn -0.0184755 0.978409 -0.20585
v -1.80916 2.07896 0.334894
vn 0.583674 0.396605 0.70854
v -1.97927 2.26572 0.294798
vn -0.014224 0.208583 0.977901
v -2.06789 2.21359 0.301195
vn -0.673476 0.728059 -0.127909
v -2.02236 2.23291 0.260631
vn -0.0173597 -0.168902 -0.98548
v -1.81204 2.07383 0.297479
vn 0.239527 -0.0872563 -0.966961
v -1.89278 2.00451 0.348756
vn 0.00547423 -0.926307 0.376731
v -1.89694 2.00672 0.348821
vn -0.353377 -0.374553 0.857225
v -1.90298 2.01239 0.34785
vn -0.533192 -0.296879 0.792193
v -1.90868 2.01736 0.345537
vn -0.764895 -0.622732 0.164745
v -1.9837 2.10031 0.305401
vn -0.766409 -0.630737 0.121605
v -1.90819 2.01017 0.31129
vn -0.762249 -0.644933 0.0551198
v -1.90246 2.00472 0.31133
vn -0.515216 -0.592907 -0.618881
v -1.89643 1.99917 0.312887
vn -0.331979 -0.689865 -0.643332
v -1.89229 1.9972 0.313952
vn 0.00708026 -0.998996 -0.0442454
v -1.89225 1.99942 0.327965
vn 0.0184755 -0.978409 0.20585
v -1.89767 2.01959 0.34768
vn -0.0136848 0.20264 0.979158
v -2.06773 2.20571 0.304573
vn -0.605085 -0.0813223 0.791997
v -2.0638 2.19538 0.268348
vn -0.21253 -0.310603 -0.926475
v -1.85347 2.03612 0.304389
vn 0.0452339 -0.241832 -0.969263
v -1.80896 2.0704 0.334975
vn 0.672528 -0.714104 0.194323
v -1.80776 2.07448 0.335266
vn 0.964824 -0.136786 0.224509
v -1.93847 2.14267 0.321337
vn -0.0139545 0.205612 0.978534
v -2.06911 2.20996 0.303071
vn -0.969798 0.210012 0.124043
v -2.06245 2.1991 0.267265
vn -0.0282672 -0.176289 -0.983933
v -1.81338 2.06998 0.297948
vn 0.0561374 -0.234384 -0.970522
f 1//1 2//2 3//3
f 1//1 3//3 4//4
f 1//1 4//4 5//5
f 1//1 5//5 6//6
f 1//1 6//6 2//2
f 7//7 8//8 9//9
f 10//10 11//11 12//12
f 13//13 14//14 15//15
f 16//16 17//17 18//18
f 19//19 20//20 21//21
f 22//22 23//23 24//24
f 22//22 24//24 25//25
f 22//22 25//25 26//26
f 22//22 26//26 27//27
f 22//22 27//27 23//23
f 28//28 29//29 30//30
f 31//31 32//32 33//33
f 34//34 35//35 36//36
f 37//37 38//38 39//39
f 40//40 41//41 42//42
f 13//13 43//43 44//44
f 10//10 45//45 46//46
f 7//7 47//47 48//48
f 19//19 49//49 50//50
f 16//16 51//51 52//52
f 10//10 53//53 45//45
f 13//13 54//54 43//43
f 16//16 55//55 51//51
f 19//19 56//56 49//49
f 7//7 57//57 47//47
f 40//40 58//58 59//59
f 28//28 60//60 61//61
f 31//31 62//62 63//63
f 34//34 64//64 65//65
f 37//37 66//66 67//67
f 40//40 68//68 58//58
f 28//28 69//69 60//60
f 31//31 70//70 62//62
f 34//34 71//71 64//64
f 37//37 72//72 66//66
f 10//10 46//46 11//11
f 7//7 48//48 8//8
f 19//19 50//50 20//20
f 16//16 52//52 17//17
f 13//13 44//44 14//14
f 40//40 42//42 68//68
f 28//28 30//30 69//69
f 31//31 33//33 70//70
f 34//34 36//36 71//71
f 37//37 39//39 72//72
f 28//28 61//61 29//29
f 31//31 63//63 32//32
f 34//34 65//65 35//35
f 37//37 67//67 38//38
f 40//40 59//59 41//41
f 10//10 12//12 53//53
f 13//13 15//15 54//54
f 16//16 18//18 55//55
f 19//19 21//21 56//56
f 7//7 9//9 57//57
f 73//73 74//74 75//75
f 76//76 77//77 78//78
f 79//79 80//80 81//81
f 82//82 83//83 84//84
f 85//85 86//86 87//87
f 88//88 89//89 90//90
f 91//91 92//92 93//93
f 94//94 95//95 96//96
f 97//97 98//98 99//99
f 100//100 101//101 102//102
f 103//103 104//104 105//105
f 106//106 107//107 108//108
f 109//109 110//110 111//111
f 112//112 113//113 114//114
f 115//115 116//116 117//117
f 88//88 118//118 119//119
f 91//91 120//120 121//121
f 94//94 122//122 123//123
f 97//97 124//124 125//125
f 100//100 126//126 127//127
f 128//128 129//129 2//2
f 130//130 131//131 3//3
f 132//132 133//133 4//4
f 134//134 135//135 5//5
f 136//136 137//137 6//6
f 76//76 138//138 8//8
f 73//73 139//139 11//11
f 85//85 140//140 14//14
f 82//82 141//141 17//17
f 79//79 142//142 20//20
f 143//143 144//144 23//23
f 145//145 146//146 24//24
f 147//147 148//148 25//25
f 149//149 150//150 26//26
f 151//151 152//152 27//27
f 103//103 153//153 29//29
f 106//106 154//154 32//32
f 109//109 155//155 35//35
f 112//112 156//156 38//38
f 115//115 157//157 41//41
f 73//73 75//75 43//43
f 76//76 78//78 45//45
f 79//79 81//81 47//47
f 82//82 84//84 49//49
f 85//85 87//87 51//51
f 88//88 90//90 53//53
f 91//91 93//93 54//54
f 94//94 96//96 55//55
f 97//97 99//99 56//56
f 100//100 102//102 57//57
f 103//103 105//105 58//58
f 106//106 108//108 60//60
f 109//109 111//111 62//62
f 112//112 114//114 64//64
f 115//115 117//117 66//66
f 88//88 119//119 68//68
f 91//91 121//121 69//69
f 94//94 123//123 70//70
f 97//97 125//125 71//71
f 100//100 127//127 72//72
f 130//130 74//74 46//46
f 132//132 77//77 48//48
f 134//134 80//80 50//50
f 136//136 83//83 52//52
f 128//128 86//86 44//44
f 158//158 89//89 42//42
f 159//159 92//92 30//30
f 160//160 95//95 33//33
f 161//161 98//98 36//36
f 162//162 101//101 39//39
f 145//145 104//104 61//61
f 147//147 107//107 63//63
f 149//149 110//110 65//65
f 151//151 113//113 67//67
f 143//143 116//116 59//59
f 159//159 118//118 12//12
f 160//160 120//120 15//15
f 161//161 122//122 18//18
f 162//162 124//124 21//21
f 158//158 126//126 9//9
f 130//130 129//129 74//74
f 132//132 131//131 77//77
f 134//134 133//133 80//80
f 136//136 135//135 83//83
f 128//128 137//137 86//86
f 158//158 138//138 89//89
f 159//159 139//139 92//92
f 160//160 140//140 95//95
f 161//161 141//141 98//98
f 162//162 142//142 101//101
f 145//145 144//144 104//104
f 147//147 146//146 107//107
f 149//149 148//148 110//110
f 151//151 150//150 113//113
f 143//143 152//152 116//116
f 159//159 153//153 118//118
f 160//160 154//154 120//120
f 161//161 155//155 122//122
f 162//162 156//156 124//124
f 158//158 157//157 126//126
f 130//130 3//3 129//129
f 132//132 4//4 131//131
f 134//134 5//5 133//133
f 136//136 6//6 135//135
f 128//128 2//2 137//137
f 158//158 9//9 138//138
f 159//159 12//12 139//139
f 160//160 15//15 140//140
f 161//161 18//18 141//141
f 162//162 21//21 142//142
f 145//145 24//24 144//144
f 147//147 25//25 146//146
f 149//149 26//26 148//148
f 151//151 27//27 150//150
f 143//143 23//23 152//152
f 159//159 30//30 153//153
f 160//160 33//33 154//154
f 161//161 36//36 155//155
f 162//162 39//39 156//156
f 158//158 42//42 157//157
f 128//128 44//44 75//75
f 130//130 46//46 78//78
f 132//132 48//48 81//81
f 134//134 50//50 84//84
f 136//136 52//52 87//87
f 76//76 45//45 90//90
f 73//73 43//43 93//93
f 85//85 51//51 96//96
f 82//82 49//49 99//99
f 79//79 47//47 102//102
f 143//143 59//59 105//105
f 145//145 61//61 108//108
f 147//147 63//63 111//111
f 149//149 65//65 114//114
f 151//151 67//67 117//117
f 103//103 58//58 119//119
f 106//106 60//60 121//121
f 109//109 62//62 123//123
f 112//112 64//64 125//125
f 115//115 66//66 127//127
f 73//73 11//11 74//74
f 76//76 8//8 77//77
f 79//79 20//20 80//80
f 82//82 17//17 83//83
f 85//85 14//14 86//86
f 88//88 68//68 89//89
f 91//91 69//69 92//92
f 94//94 70//70 95//95
f 97//97 71//71 98//98
f 100//100 72//72 101//101
f 103//103 29//29 104//104
f 106//106 32//32 107//107
f 109//109 35//35 110//110
f 112//112 38//38 113//113
f 115//115 41//41 116//116
f 88//88 53//53 118//118
f 91//91 54//54 120//120
f 94//94 55//55 122//122
f 97//97 56//56 124//124
f 100//100 57//57 126//126
f 128//128 75//75 129//129
f 130//130 78//78 131//131
f 132//132 81//81 133//133
f 134//134 84//84 135//135
f 136//136 87//87 137//137
f 76//76 90//90 138//138
f 73//73 93//93 139//139
f 85//85 96//96 140//140
f 82//82 99//99 141//141
f 79//79 102//102 142//142
f 143//143 105//105 144//144
f 145//145 108//108 146//146
f 147//147 111//111 148//148
f 149//149 114//114 150//150
f 151//151 117//117 152//152
f 103//103 119//119 153//153
f 106//106 121//121 154//154
f 109//109 123//123 155//155
f 112//112 125//125 156//156
f 115//115 127//127 157//157
f 129//129 3//3 2//2
f 131//131 4//4 3//3
f 133//133 5//5 4//4
f 135//135 6//6 5//5
f 137//137 2//2 6//6
f 138//138 9//9 8//8
f 139//139 12//12 11//11
f 140//140 15//15 14//14
f 141//141 18//18 17//17
f 142//142 21//21 20//20
f 144//144 24//24 23//23
f 146//146 25//25 24//24
f 148//148 26//26 25//25
f 150//150 27//27 26//26
f 152//152 23//23 27//27
f 153//153 30//30 29//29
f 154//154 33//33 32//32
f 155//155 36//36 35//35
f 156//156 39//39 38//38
f 157//157 42//42 41//41
f 75//75 44//44 43//43
f 78//78 46//46 45//45
f 81//81 48//48 47//47
f 84//84 50//50 49//49
f 87//87 52//52 51//51
f 90//90 45//45 53//53
f 93//93 43//43 54//54
f 96//96 51//51 55//55
f 99//99 49//49 56//56
f 102//102 47//47 57//57
f 105//105 59//59 58//58
f 108//108 61//61 60//60
f 111//111 63//63 62//62
f 114//114 65//65 64//64
f 117//117 67//67 66//66
f 119//119 58//58 68//68
f 121//121 60//60 69//69
f 123//123 62//62 70//70
f 125//125 64//64 71//71
f 127//127 66//66 72//72
f 74//74 11//11 46//46
f 77//77 8//8 48//48
f 80//80 20//20 50//50
f 83//83 17//17 52//52
f 86//86 14//14 44//44
f 89//89 68//68 42//42
f 92//92 69//69 30//30
f 95//95 70//70 33//33
f 98//98 71//71 36//36
f 101//101 72//72 39//39
f 104//104 29//29 61//61
f 107//107 32//32 63//63
f 110//110 35//35 65//65
f 113//113 38//38 67//67
f 116//116 41//41 59//59
f 118//118 53//53 12//12
f 120//120 54//54 15//15
f 122//122 55//55 18//18
f 124//124 56//56 21//21
f 126//126 57//57 9//9
f 129//129 75//75 74//74
f 131//131 78//78 77//77
f 133//133 81//81 80//80
f 135//135 84//84 83//83
f 137//137 87//87 86//86
f 138//138 90//90 89//89
f 139//139 93//93 92//92
f 140//140 96//96 95//95
f 141//141 99//99 98//98
f 142//142 102//102 101//101
f 144//144 105//105 104//104
f 146//146 108//108 107//107
f 148//148 111//111 110//110
f 150//150 114//114 113//113
f 152//152 117//117 116//116
f 153//153 119//119 118//118
f 154//154 121//121 120//120
f 155//155 123//123 122//122
f 156//156 125//125 124//124
f 157//157 127//127 126//126
