# Created by Open3D 
# object name: part_059
# number of vertices: 162
# number of triangles: 320
v -0.816389 3.55248 0.814636
vn 0.552063 0.729024 0.404661
v -0.801587 3.53775 0.817439
vn 0.518923 0.499196 0.693918
v -0.799231 3.54142 0.8088
vn 0.668208 0.696754 0.260829
v -0.815477 3.55571 0.802907
vn 0.570546 0.814597 0.104446
v -0.827921 3.56102 0.812622
vn 0.406447 0.865372 0.293142
v -0.828928 3.55644 0.821082
vn 0.392806 0.581067 0.712786
v -0.832786 3.60166 0.439318
vn 0.523487 0.814718 -0.249389
v -0.815316 3.58966 0.44062
vn 0.651169 0.747855 -0.129198
v -0.818444 3.58831 0.431564
vn 0.463093 0.666636 -0.584074
v -0.810368 3.55727 0.623762
vn 0.844584 -0.524892 -0.105669
v -0.80454 3.53171 0.798389
vn 0.834818 -0.540318 -0.10553
v -0.816281 3.54836 0.622853
vn 0.822281 -0.558526 -0.109101
v -0.899029 3.39348 0.806844
vn 0.806233 -0.575502 0.137063
v -0.899897 3.39382 0.809409
vn 0.214741 -0.244715 0.945516
v -0.989249 3.26455 0.794175
vn 0.765035 -0.572219 0.295445
v -0.929812 3.41451 0.810945
vn -0.784991 0.511807 0.349061
v -0.844695 3.53832 0.819632
vn -0.811095 0.545402 0.211332
v -1.01612 3.29227 0.794884
vn -0.812543 0.543324 0.211122
v -0.840976 3.57426 0.66683
vn -0.795284 0.595653 0.112786
v -0.84693 3.60487 0.46174
vn -0.75698 0.643003 0.11631
v -0.852168 3.59964 0.452908
vn -0.806276 0.581232 0.109944
v -1.03531 3.31097 0.41008
vn -0.552063 -0.729024 -0.40466
v -1.01712 3.30315 0.402882
vn -0.403919 -0.577785 -0.709235
v -1.01812 3.29857 0.411341
vn -0.456239 -0.841595 -0.289073
v -1.03586 3.30749 0.421762
vn -0.570546 -0.814597 -0.104447
v -1.04681 3.31817 0.415163
vn -0.708098 -0.65925 -0.252955
v -1.04446 3.32184 0.406524
vn -0.526442 -0.489757 -0.694979
v -1.00338 3.28025 0.595898
vn 0.795283 -0.595654 -0.112786
v -1.00916 3.30578 0.421265
vn 0.806064 -0.580929 -0.11306
v -0.997063 3.28888 0.596754
vn 0.819115 -0.56307 -0.109558
v -1.01891 3.2618 0.785399
vn -0.523488 -0.814718 0.249389
v -1.00204 3.25033 0.779522
vn -0.439192 -0.892702 0.100962
v -1.00026 3.2526 0.788758
vn -0.348084 -0.745224 0.568751
v -1.03398 3.29724 0.638966
vn -0.844582 0.524895 0.105669
v -1.0308 3.27637 0.766445
vn -0.876237 0.471135 0.1012
v -1.02622 3.28205 0.775365
vn -0.834754 0.539652 0.109366
v -0.947017 3.46611 0.41712
vn -0.806232 0.575502 -0.137065
v -1.033 3.34289 0.408548
vn -0.821498 0.570178 0.00616108
v -0.861573 3.58894 0.433296
vn -0.82005 0.572256 0.00636883
v -0.916234 3.44508 0.413019
vn 0.784993 -0.511809 -0.349053
v -0.917315 3.44606 0.410713
vn 0.130122 0.0090645 -0.991457
v -0.826599 3.5744 0.425766
vn 0.739249 -0.455685 -0.495845
v -0.813046 3.5167 0.815416
vn 0.821498 -0.570178 -0.00616092
v -0.809369 3.52273 0.820143
vn 0.773877 -0.559529 0.296718
v -0.815243 3.58321 0.457518
vn 0.87584 -0.471877 -0.101179
v -0.800679 3.53954 0.790871
vn 0.875933 -0.472158 -0.0990376
v -0.844006 3.60926 0.444442
vn 0.389513 0.91616 -0.0944975
v -0.830835 3.60177 0.451361
vn 0.568604 0.82042 0.0600075
v -0.836887 3.55381 0.802698
vn -0.805931 0.581023 0.113527
v -0.832367 3.56119 0.795092
vn -0.755877 0.643887 0.118576
v -0.928731 3.41353 0.81325
vn -0.20086 0.0414984 0.978741
v -0.839567 3.54337 0.824166
vn -0.730407 0.468375 0.497123
v -0.819822 3.57754 0.448599
vn 0.83467 -0.53987 -0.10893
v -0.984472 3.27065 0.790667
vn 0.82005 -0.572256 -0.00636849
v -1.01945 3.28519 0.798198
vn -0.739247 0.455682 0.495851
v -0.847268 3.56556 0.666453
vn -0.819115 0.56307 0.109558
v -0.845786 3.60699 0.435206
vn 0.33675 0.749188 -0.570365
v -1.00135 3.32127 0.404332
vn 0.811095 -0.545401 -0.211333
v -1.00648 3.31622 0.399797
vn 0.730407 -0.468375 -0.497122
v -0.999116 3.25472 0.762224
vn 0.756524 -0.643546 -0.116276
v -1.01368 3.2984 0.428871
vn 0.756429 -0.643267 -0.118418
v -1.03073 3.26993 0.783344
vn -0.69117 -0.710032 0.13468
v -1.02051 3.26143 0.773308
vn -0.568605 -0.820419 -0.060007
v -1.04151 3.32788 0.425574
vn -0.834734 0.540387 0.105836
v -1.04537 3.32005 0.433092
vn -0.875589 0.472765 0.0991871
v -0.946148 3.46576 0.414554
vn -0.283559 0.289514 -0.914208
v -1.03668 3.33686 0.40382
vn -0.773877 0.559529 -0.296718
v -0.829924 3.56731 0.42908
vn 0.812544 -0.543324 -0.211121
v -0.993877 3.25995 0.771055
vn 0.806213 -0.581374 -0.10966
v -1.0276 3.27128 0.7924
vn -0.470383 -0.657869 0.588173
v -1.02805 3.30609 0.640355
vn -0.822281 0.558526 0.109101
v -0.856797 3.59504 0.429789
vn -0.765035 0.572219 -0.295445
v -0.807286 3.52569 0.809774
vn 0.824179 -0.561404 -0.0745321
v -0.801597 3.53498 0.807689
vn 0.866422 -0.495597 -0.0607972
v -0.804556 3.52951 0.816331
vn 0.852678 -0.52183 0.0251806
v -0.814727 3.58726 0.44654
vn 0.953628 -0.287225 -0.0899748
v -0.813554 3.58882 0.457985
vn 0.672988 0.737 0.0625967
v -0.806369 3.56462 0.62455
vn 0.956252 -0.281761 -0.078692
v -0.845357 3.60819 0.45062
vn -0.610644 0.782739 0.120139
v -0.835539 3.58081 0.665594
vn -0.605407 0.785336 0.129343
v -0.842276 3.60844 0.461812
vn 0.391155 0.915077 0.0981406
v -0.839426 3.54765 0.814055
vn -0.816219 0.559511 0.143993
v -0.835685 3.55078 0.820478
vn -0.771789 0.588199 0.241587
v -0.833221 3.55659 0.811902
vn -0.767847 0.621121 0.156907
v -0.917295 3.40563 0.812506
vn 0.0432752 -0.129787 0.990597
v -0.810595 3.52359 0.822279
vn 0.0945227 -0.140981 0.98549
v -0.837968 3.5423 0.825925
vn 0.00822509 -0.0820833 0.996592
v -0.823601 3.57462 0.43633
vn 0.821176 -0.552396 -0.143279
v -0.8214 3.58003 0.430765
vn 0.841463 -0.488196 -0.231527
v -0.81765 3.58313 0.440238
vn 0.862821 -0.484802 -0.143199
v -0.990305 3.26301 0.783352
vn 0.819223 -0.568518 -0.0752455
v -0.984852 3.27253 0.772512
vn 0.820448 -0.561493 -0.107657
v -0.898674 3.39417 0.797491
vn 0.821696 -0.564872 -0.0757364
v -1.02508 3.27628 0.79599
vn -0.48938 -0.154751 0.85823
v -1.01389 3.26751 0.795357
vn -0.163161 -0.413415 0.895805
v -1.01805 3.28382 0.799927
vn -0.0140308 -0.114028 0.993379
v -0.937716 3.43585 0.653565
vn -0.820701 0.5608 0.10933
v -1.01752 3.29485 0.776863
vn -0.820932 0.560042 0.111459
v -0.845895 3.54118 0.80164
vn -0.820276 0.560984 0.111553
v -0.850156 3.60326 0.431862
vn -0.181434 0.613132 -0.768863
v -0.852529 3.6013 0.434912
vn -0.783004 0.621833 -0.0151249
v -0.847244 3.60725 0.438536
vn -0.647204 0.761118 -0.0427346
v -1.00662 3.31193 0.409908
vn 0.816219 -0.559511 -0.143993
v -1.01282 3.30299 0.412062
vn 0.767845 -0.621123 -0.156908
v -1.01036 3.30881 0.403486
vn 0.771788 -0.5882 -0.241587
v -1.00069 3.2514 0.773343
vn 0.61155 -0.782277 -0.118529
v -1.00377 3.25115 0.762152
vn -0.456046 -0.885241 -0.0914964
v -1.00889 3.27394 0.595313
vn 0.60541 -0.785333 -0.129343
v -1.03132 3.27233 0.777424
vn -0.953056 0.288365 0.0923621
v -1.03806 3.29013 0.636357
vn -0.956254 0.281756 0.0786915
v -1.03249 3.27077 0.765978
vn -0.707726 -0.704215 -0.0566118
v -1.03876 3.3339 0.41419
vn -0.824179 0.561404 0.0745319
v -1.04149 3.33008 0.407633
vn -0.852678 0.52183 -0.0251805
v -1.04445 3.3246 0.416275
vn -0.86642 0.4956 0.060795
v -0.93478 3.45807 0.41226
vn -0.0432753 0.129787 -0.990597
v -1.00808 3.31729 0.398038
vn -0.014267 0.0861402 -0.996181
v -1.03545 3.336 0.401685
vn -0.10043 0.145088 -0.984309
v -0.828529 3.56474 0.4471
vn 0.820952 -0.560104 -0.111002
v -0.915071 3.44335 0.422169
vn 0.818766 -0.556085 -0.142797
v -0.993517 3.25829 0.789051
vn 0.783004 -0.621833 0.015125
v -0.996771 3.25485 0.779512
vn 0.771446 -0.631917 -0.0745091
v -1.02465 3.27956 0.793198
vn -0.841464 0.488195 0.231528
v -1.02894 3.27293 0.789443
vn -0.917585 0.308132 0.251181
v -0.861193 3.58706 0.451451
vn -0.820436 0.561454 0.107956
v -1.03281 3.34073 0.426675
vn -0.821089 0.560517 0.107861
v -0.838087 3.59613 0.429397
vn 0.163161 0.413415 -0.895805
v -0.855366 3.59447 0.427683
vn -0.0781734 0.177033 -0.981096
v -0.803846 3.53197 0.819826
vn 0.482645 0.000239252 0.875816
v -0.800525 3.53693 0.814052
vn 0.932223 -0.352029 0.0838811
v -0.799179 3.54063 0.802435
vn 0.954544 -0.289972 -0.0690118
v -0.798974 3.54509 0.791718
vn 0.67338 0.735826 0.0715537
v -0.823125 3.57957 0.627241
vn 0.569719 0.817714 0.0822472
v -0.827696 3.56472 0.795544
vn 0.413147 0.904567 0.105203
v -0.829809 3.56156 0.806515
vn -0.611727 0.778286 0.141638
v -0.830663 3.55752 0.818067
vn -0.632572 0.717213 0.292332
v -0.833037 3.55192 0.823714
vn -0.107942 0.392729 0.913298
v -0.820882 3.54454 0.823221
vn 0.243994 0.170975 0.954586
v -0.817105 3.58665 0.434521
vn 0.917585 -0.308131 -0.251185
v -0.813231 3.51886 0.797288
vn 0.821102 -0.560555 -0.107563
v -0.99068 3.26512 0.796281
vn 0.0721632 -0.173073 0.982262
v -0.930975 3.41624 0.801794
vn -0.818766 0.556086 0.142795
v -0.849274 3.60474 0.444451
vn -0.771446 0.631917 0.0745093
v -1.01301 3.30767 0.400249
vn 0.0101391 -0.336965 -0.941463
v -1.01538 3.30207 0.405896
vn 0.632574 -0.717213 -0.292329
v -1.01624 3.29803 0.417449
vn 0.610641 -0.779526 -0.139491
v -1.01835 3.29487 0.42842
vn -0.456438 -0.884066 -0.100454
v -1.02895 3.28414 0.597526
vn -0.569719 -0.817714 -0.0822474
v -1.04707 3.3145 0.432246
vn -0.724572 -0.68632 -0.062931
v -1.04687 3.31896 0.421529
vn -0.954807 0.288755 0.0704525
v -1.04552 3.32266 0.409911
vn -0.932223 0.352029 -0.0838828
v -1.0422 3.32762 0.404138
vn -0.562871 0.0656473 -0.823934
v -1.0311 3.31911 0.401533
vn -0.243995 -0.170975 -0.954586
v -1.00015 3.31841 0.422324
vn 0.820298 -0.561043 -0.111096
v -0.998802 3.25234 0.785428
vn 0.647204 -0.761118 0.0427345
v -1.0284 3.27646 0.783725
vn -0.862821 0.484804 0.143197
v -0.947372 3.46542 0.426472
vn -0.821696 0.564871 0.0757364
v -0.827993 3.57577 0.424036
vn 0.0080929 0.118233 -0.992953
v -0.820965 3.58331 0.427974
vn 0.40575 0.230856 -0.884349
v -0.906609 3.41858 0.609795
vn 0.820701 -0.5608 -0.10933
v -0.99589 3.25633 0.792101
vn 0.0870335 -0.567586 0.818701
v -1.02244 3.28497 0.787634
vn -0.821176 0.552397 0.143276
v -0.855741 3.59658 0.440611
vn -0.819223 0.568518 0.0752455
f 1//1 2//2 3//3
f 1//1 3//3 4//4
f 1//1 4//4 5//5
f 1//1 5//5 6//6
f 1//1 6//6 2//2
f 7//7 8//8 9//9
f 10//10 11//11 12//12
f 13//13 14//14 15//15
f 16//16 17//17 18//18
f 19//19 20//20 21//21
f 22//22 23//23 24//24
f 22//22 24//24 25//25
f 22//22 25//25 26//26
f 22//22 26//26 27//27
f 22//22 27//27 23//23
f 28//28 29//29 30//30
f 31//31 32//32 33//33
f 34//34 35//35 36//36
f 37//37 38//38 39//39
f 40//40 41//41 42//42
f 13//13 43//43 44//44
f 10//10 45//45 46//46
f 7//7 47//47 48//48
f 19//19 49//49 50//50
f 16//16 51//51 52//52
f 10//10 53//53 45//45
f 13//13 54//54 43//43
f 16//16 55//55 51//51
f 19//19 56//56 49//49
f 7//7 57//57 47//47
f 40//40 58//58 59//59
f 28//28 60//60 61//61
f 31//31 62//62 63//63
f 34//34 64//64 65//65
f 37//37 66//66 67//67
f 40//40 68//68 58//58
f 28//28 69//69 60//60
f 31//31 70//70 62//62
f 34//34 71//71 64//64
f 37//37 72//72 66//66
f 10//10 46//46 11//11
f 7//7 48//48 8//8
f 19//19 50//50 20//20
f 16//16 52//52 17//17
f 13//13 44//44 14//14
f 40//40 42//42 68//68
f 28//28 30//30 69//69
f 31//31 33//33 70//70
f 34//34 36//36 71//71
f 37//37 39//39 72//72
f 28//28 61//61 29//29
f 31//31 63//63 32//32
f 34//34 65//65 35//35
f 37//37 67//67 38//38
f 40//40 59//59 41//41
f 10//10 12//12 53//53
f 13//13 15//15 54//54
f 16//16 18//18 55//55
f 19//19 21//21 56//56
f 7//7 9//9 57//57
f 73//73 74//74 75//75
f 76//76 77//77 78//78
f 79//79 80//80 81//81
f 82//82 83//83 84//84
f 85//85 86//86 87//87
f 88//88 89//89 90//90
f 91//91 92//92 93//93
f 94//94 95//95 96//96
f 97//97 98//98 99//99
f 100//100 101//101 102//102
f 103//103 104//104 105//105
f 106//106 107//107 108//108
f 109//109 110//110 111//111
f 112//112 113//113 114//114
f 115//115 116//116 117//117
f 88//88 118//118 119//119
f 91//91 120//120 121//121
f 94//94 122//122 123//123
f 97//97 124//124 125//125
f 100//100 126//126 127//127
f 128//128 129//129 2//2
f 130//130 131//131 3//3
f 132//132 133//133 4//4
f 134//134 135//135 5//5
f 136//136 137//137 6//6
f 76//76 138//138 8//8
f 73//73 139//139 11//11
f 85//85 140//140 14//14
f 82//82 141//141 17//17
f 79//79 142//142 20//20
f 143//143 144//144 23//23
f 145//145 146//146 24//24
f 147//147 148//148 25//25
f 149//149 150//150 26//26
f 151//151 152//152 27//27
f 103//103 153//153 29//29
f 106//106 154//154 32//32
f 109//109 155//155 35//35
f 112//112 156//156 38//38
f 115//115 157//157 41//41
f 73//73 75//75 43//43
f 76//76 78//78 45//45
f 79//79 81//81 47//47
f 82//82 84//84 49//49
f 85//85 87//87 51//51
f 88//88 90//90 53//53
f 91//91 93//93 54//54
f 94//94 96//96 55//55
f 97//97 99//99 56//56
f 100//100 102//102 57//57
f 103//103 105//105 58//58
f 106//106 108//108 60//60
f 109//109 111//111 62//62
f 112//112 114//114 64//64
f 115//115 117//117 66//66
f 88//88 119//119 68//68
f 91//91 121//121 69//69
f 94//94 123//123 70//70
f 97//97 125//125 71//71
f 100//100 127//127 72//72
f 130//130 74//74 46//46
f 132//132 77//77 48//48
f 134//134 80//80 50//50
f 136//136 83//83 52//52
f 128//128 86//86 44//44
f 158//158 89//89 42//42
f 159//159 92//92 30//30
f 160//160 95//95 33//33
f 161//161 98//98 36//36
f 162//162 101//101 39//39
f 145//145 104//104 61//61
f 147//147 107//107 63//63
f 149//149 110//110 65//65
f 151//151 113//113 67//67
f 143//143 116//116 59//59
f 159//159 118//118 12//12
f 160//160 120//120 15//15
f 161//161 122//122 18//18
f 162//162 124//124 21//21
f 158//158 126//126 9//9
f 130//130 129//129 74//74
f 132//132 131//131 77//77
f 134//134 133//133 80//80
f 136//136 135//135 83//83
f 128//128 137//137 86//86
f 158//158 138//138 89//89
f 159//159 139//139 92//92
f 160//160 140//140 95//95
f 161//161 141//141 98//98
f 162//162 142//142 101//101
f 145//145 144//144 104//104
f 147//147 146//146 107//107
f 149//149 148//148 110//110
f 151//151 150//150 113//113
f 143//143 152//152 116//116
f 159//159 153//153 118//118
f 160//160 154//154 120//120
f 161//161 155//155 122//122
f 162//162 156//156 124//124
f 158//158 157//157 126//126
f 130//130 3//3 129//129
f 132//132 4//4 131//131
f 134//134 5//5 133//133
f 136//136 6//6 135//135
f 128//128 2//2 137//137
f 158//158 9//9 138//138
f 159//159 12//12 139//139
f 160//160 15//15 140//140
f 161//161 18//18 141//141
f 162//162 21//21 142//142
f 145//145 24//24 144//144
f 147//147 25//25 146//146
f 149//149 26//26 148//148
f 151//151 27//27 150//150
f 143//143 23//23 152//152
f 159//159 30//30 153//153
f 160//160 33//33 154//154
f 161//161 36//36 155//155
f 162//162 39//39 156//156
f 158//158 42//42 157//157
f 128//128 44//44 75//75
f 130//130 46//46 78//78
f 132//132 48//48 81//81
f 134//134 50//50 84//84
f 136//136 52//52 87//87
f 76//76 45//45 90//90
f 73//73 43//43 93//93
f 85//85 51//51 96//96
f 82//82 49//49 99//99
f 79//79 47//47 102//102
f 143//143 59//59 105//105
f 145//145 61//61 108//108
f 147//147 63//63 111//111
f 149//149 65//65 114//114
f 151//151 67//67 117//117
f 103//103 58//58 119//119
f 106//106 60//60 121//121
f 109//109 62//62 123//123
f 112//112 64//64 125//125
f 115//115 66//66 127//127
f 73//73 11//11 74//74
f 76//76 8//8 77//77
f 79//79 20//20 80//80
f 82//82 17//17 83//83
f 85//85 14//14 86//86
f 88//88 68//68 89//89
f 91//91 69//69 92//92
f 94//94 70//70 95//95
f 97//97 71//71 98//98
f 100//100 72//72 101//101
f 103//103 29//29 104//104
f 106//106 32//32 107//107
f 109//109 35//35 110//110
f 112//112 38//38 113//113
f 115//115 41//41 116//116
f 88//88 53//53 118//118
f 91//91 54//54 120//120
f 94//94 55//55 122//122
f 97//97 56//56 124//124
f 100//100 57//57 126//126
f 128//128 75//75 129//129
f 130//130 78//78 131//131
f 132//132 81//81 133//133
f 134//134 84//84 135//135
f 136//136 87//87 137//137
f 76//76 90//90 138//138
f 73//73 93//93 139//139
f 85//85 96//96 140//140
f 82//82 99//99 141//141
f 79//79 102//102 142//142
f 143//143 105//105 144//144
f 145//145 108//108 146//146
f 147//147 111//111 148//148
f 149//149 114//114 150//150
f 151//151 117//117 152//152
f 103//103 119//119 153//153
f 106//106 121//121 154//154
f 109//109 123//123 155//155
f 112//112 125//125 156//156
f 115//115 127//127 157//157
f 129//129 3//3 2//2
f 131//131 4//4 3//3
f 133//133 5//5 4//4
f 135//135 6//6 5//5
f 137//137 2//2 6//6
f 138//138 9//9 8//8
f 139//139 12//12 11//11
f 140//140 15//15 14//14
f 141//141 18//18 17//17
f 142//142 21//21 20//20
f 144//144 24//24 23//23
f 146//146 25//25 24//24
f 148//148 26//26 25//25
f 150//150 27//27 26//26
f 152//152 23//23 27//27
f 153//153 30//30 29//29
f 154//154 33//33 32//32
f 155//155 36//36 35//35
f 156//156 39//39 38//38
f 157//157 42//42 41//41
f 75//75 44//44 43//43
f 78//78 46//46 45//45
f 81//81 48//48 47//47
f 84//84 50//50 49//49
f 87//87 52//52 51//51
f 90//90 45//45 53//53
f 93//93 43//43 54//54
f 96//96 51//51 55//55
f 99//99 49//49 56//56
f 102//102 47//47 57//57
f 105//105 59//59 58//58
f 108//108 61//61 60//60
f 111//111 63//63 62//62
f 114//114 65//65 64//64
f 117//117 67//67 66//66
f 119//119 58//58 68//68
f 121//121 60//60 69//69
f 123//123 62//62 70//70
f 125//125 64//64 71//71
f 127//127 66//66 72//72
f 74//74 11//11 46//46
f 77//77 8//8 48//48
f 80//80 20//20 50//50
f 83//83 17//17 52//52
f 86//86 14//14 44//44
f 89//89 68//68 42//42
f 92//92 69//69 30//30
f 95//95 70//70 33//33
f 98//98 71//71 36//36
f 101//101 72//72 39//39
f 104//104 29//29 61//61
f 107//107 32//32 63//63
f 110//110 35//35 65//65
f 113//113 38//38 67//67
f 116//116 41//41 59//59
f 118//118 53//53 12//12
f 120//120 54//54 15//15
f 122//122 55//55 18//18
f 124//124 56//56 21//21
f 126//126 57//57 9//9
f 129//129 75//75 74//74
f 131//131 78//78 77//77
f 133//133 81//81 80//80
f 135//135 84//84 83//83
f 137//137 87//87 86//86
f 138//138 90//90 89//89
f 139//139 93//93 92//92
f 140//140 96//96 95//95
f 141//141 99//99 98//98
f 142//142 102//102 101//101
f 144//144 105//105 104//104
f 146//146 108//108 107//107
f 148//148 111//111 110//110
f 150//150 114//114 113//113
f 152//152 117//117 116//116
f 153//153 119//119 118//118
f 154//154 121//121 120//120
f 155//155 123//123 122//122
f 156//156 125//125 124//124
f 157//157 127//127 126//126
