# Created by Open3D 
# object name: part_019
# number of vertices: 162
# number of triangles: 320
v 0.432906 0.637619 1.26775
vn -0.643447 0.685745 -0.34019
v 0.419132 0.622872 1.26521
vn -0.59753 0.601086 -0.530711
v 0.417311 0.623696 1.26994
vn -0.681494 0.67771 -0.276179
v 0.43157 0.638836 1.27422
vn -0.669713 0.71621 -0.196285
v 0.442894 0.647516 1.26957
vn -0.620457 0.733641 -0.277136
v 0.443513 0.645572 1.26485
vn -0.561511 0.632432 -0.533605
v 0.407729 0.667913 1.47533
vn -0.681395 0.731405 -0.0273211
v 0.392613 0.653413 1.47356
vn -0.703648 0.704366 -0.09353
v 0.393247 0.654017 1.47862
vn -0.684285 0.705472 0.184559
v 0.404836 0.635468 1.37219
vn -0.833099 -0.552748 -0.0203794
v 0.417104 0.620738 1.27561
vn -0.79321 -0.608859 -0.0104716
v 0.406509 0.633322 1.3727
vn -0.739042 -0.673604 0.00866672
v 0.447949 0.58894 1.27138
vn -0.617148 -0.679734 -0.396346
v 0.448982 0.589553 1.27002
vn 0.0312418 -0.223438 -0.974217
v 0.475468 0.560024 1.27878
vn -0.485256 -0.643326 -0.592164
v 0.4754 0.614499 1.27098
vn 0.715653 0.56121 -0.415792
v 0.449575 0.642929 1.26584
vn 0.737993 0.647051 -0.191552
v 0.501494 0.587392 1.28025
vn 0.744546 0.640042 -0.189731
v 0.43624 0.659158 1.35033
vn 0.61025 0.791124 -0.0414391
v 0.421363 0.676364 1.46372
vn 0.424694 0.901934 -0.0784225
v 0.422483 0.675827 1.46865
vn 0.663217 0.747971 -0.0261384
v 0.469067 0.602301 1.49234
vn 0.643448 -0.685745 0.340189
v 0.453418 0.589654 1.49531
vn 0.565257 -0.631132 0.531185
v 0.454037 0.58771 1.4906
vn 0.631726 -0.724049 0.276903
v 0.470084 0.600788 1.48587
vn 0.669713 -0.71621 0.196285
v 0.47962 0.61153 1.49023
vn 0.691867 -0.667154 0.276092
v 0.477799 0.612354 1.49496
vn 0.599129 -0.597405 0.53306
v 0.463291 0.57294 1.3884
vn -0.610252 -0.791123 0.0414385
v 0.450983 0.587632 1.48498
vn -0.663527 -0.747479 0.0317264
v 0.461262 0.574754 1.38789
vn -0.724544 -0.689112 0.0126884
v 0.494243 0.572008 1.28477
vn 0.681395 -0.731405 0.0273199
v 0.478734 0.557993 1.28698
vn 0.65388 -0.750705 0.0942534
v 0.479303 0.558508 1.2819
vn 0.652014 -0.73552 -0.184089
v 0.494695 0.59663 1.36654
vn 0.833101 0.552745 0.0203798
v 0.503824 0.585171 1.29603
vn 0.932804 0.355479 0.0592587
v 0.503291 0.586255 1.2911
vn 0.79448 0.607278 0.00378966
v 0.448981 0.646286 1.48879
vn 0.617148 0.679734 0.396347
v 0.475578 0.618575 1.49391
vn 0.700847 0.692622 0.170552
v 0.423659 0.674111 1.47951
vn 0.694294 0.699632 0.168734
v 0.421531 0.620727 1.48919
vn -0.715653 -0.56121 0.415793
v 0.422237 0.621733 1.49052
vn -0.205396 0.0612876 0.976758
v 0.394534 0.65013 1.48178
vn -0.666896 -0.429419 0.608974
v 0.421352 0.616651 1.26626
vn -0.700847 -0.692622 -0.170552
v 0.420989 0.618299 1.26367
vn -0.520037 -0.606121 -0.601813
v 0.393107 0.650055 1.46414
vn -0.931822 -0.358101 -0.0589243
v 0.415468 0.623149 1.27977
vn -0.931392 -0.358617 -0.0624692
v 0.418196 0.677233 1.47319
vn -0.642657 0.760353 -0.0941047
v 0.407987 0.66721 1.46865
vn -0.672179 0.719177 -0.175956
v 0.445948 0.647594 1.27519
vn 0.663073 0.747842 -0.0326627
v 0.443724 0.649458 1.27936
vn 0.420457 0.90352 -0.0828659
v 0.474694 0.613493 1.26965
vn 0.24166 -0.0256383 -0.970022
v 0.447917 0.643371 1.26327
vn 0.632114 0.466623 -0.618624
v 0.393639 0.648971 1.46907
vn -0.793942 -0.607977 -0.00445059
v 0.473272 0.561115 1.28066
vn -0.694294 -0.699632 -0.168734
v 0.502397 0.585096 1.27839
vn 0.666896 0.429419 -0.608974
v 0.438302 0.657304 1.35057
vn 0.724544 0.689111 -0.0126883
v 0.417628 0.676718 1.47827
vn -0.648896 0.737576 0.186855
v 0.447356 0.592297 1.49432
vn -0.737993 -0.647051 0.191551
v 0.449013 0.591855 1.49689
vn -0.632114 -0.466623 0.618623
v 0.475568 0.558862 1.29644
vn -0.422541 -0.902922 0.0786861
v 0.453206 0.585768 1.48081
vn -0.422975 -0.902403 0.0822299
v 0.504318 0.581813 1.2866
vn 0.714067 -0.693865 0.0930629
v 0.493666 0.572413 1.29145
vn 0.672179 -0.719177 0.175956
v 0.479827 0.614488 1.48455
vn 0.792983 0.609164 0.00985865
v 0.481462 0.612077 1.4804
vn 0.930589 0.360791 0.0619129
v 0.447949 0.645673 1.49015
vn 0.0067886 0.256964 0.966397
v 0.475941 0.616927 1.4965
vn 0.520038 0.606121 0.601812
v 0.395437 0.647834 1.47992
vn -0.744546 -0.640042 0.189733
v 0.474447 0.559399 1.29152
vn -0.662794 -0.748361 0.025706
v 0.503684 0.581209 1.28155
vn 0.686514 -0.702551 -0.187405
v 0.493054 0.598737 1.36576
vn 0.739041 0.673604 -0.00866683
v 0.421462 0.675203 1.48139
vn 0.485255 0.643326 0.592165
v 0.418946 0.618846 1.26934
vn -0.734245 -0.67677 -0.0535294
v 0.417134 0.621271 1.27048
vn -0.892848 -0.434854 -0.117155
v 0.418903 0.619739 1.26573
vn -0.820037 -0.514366 -0.250934
v 0.392357 0.651902 1.47023
vn -0.983849 0.127923 -0.125211
v 0.393453 0.652331 1.46395
vn -0.695916 0.694259 -0.18359
v 0.404071 0.637639 1.37178
vn -0.98061 0.138054 -0.139087
v 0.41967 0.677333 1.46984
vn -0.0610968 0.988157 -0.140756
v 0.434 0.660216 1.35094
vn -0.0700705 0.985836 -0.152372
v 0.419065 0.676179 1.46358
vn -0.63135 0.75328 -0.1843
v 0.447606 0.64553 1.26892
vn 0.726389 0.683197 -0.0748435
v 0.446662 0.645584 1.26532
vn 0.567437 0.777481 -0.271179
v 0.445334 0.647527 1.27007
vn 0.49541 0.857723 -0.137409
v 0.464578 0.603964 1.26937
vn 0.119165 -0.143382 -0.982467
v 0.422348 0.619349 1.26257
vn 0.070502 -0.131234 -0.988841
v 0.446756 0.642075 1.26222
vn 0.113501 -0.0914184 -0.989323
v 0.393895 0.648988 1.47587
vn -0.749054 -0.658952 0.0685554
v 0.393039 0.650859 1.47897
vn -0.87308 -0.450544 0.186391
v 0.392485 0.650929 1.4737
vn -0.909781 -0.41448 0.0224611
v 0.474376 0.559554 1.28471
vn -0.711581 -0.701014 -0.0472429
v 0.471636 0.562121 1.29067
vn -0.729962 -0.683441 0.00803478
v 0.446652 0.589057 1.27651
vn -0.723266 -0.688836 -0.0488968
v 0.503705 0.582809 1.2796
vn 0.662258 -0.427568 -0.615305
v 0.493548 0.572918 1.27925
vn 0.520132 -0.56862 -0.637287
v 0.501298 0.583734 1.27735
vn 0.170363 -0.152242 -0.97355
v 0.465745 0.628061 1.35808
vn 0.731836 0.681397 -0.0106781
v 0.500763 0.58924 1.29024
vn 0.7338 0.679218 -0.0141329
v 0.448785 0.64484 1.27583
vn 0.730796 0.682432 -0.0149662
v 0.419255 0.676653 1.48019
vn -0.369686 0.699978 0.611034
v 0.420797 0.676705 1.47856
vn 0.514391 0.841307 0.166145
v 0.419147 0.677559 1.47651
vn 0.00635563 0.99705 0.0764949
v 0.449325 0.589696 1.49125
vn -0.726389 -0.683197 0.0748433
v 0.451597 0.587699 1.4901
vn -0.49541 -0.857723 0.137409
v 0.450269 0.589642 1.49484
vn -0.567437 -0.777481 0.271179
v 0.477261 0.557894 1.29033
vn 0.0595138 -0.988545 0.138697
v 0.477865 0.559048 1.29659
vn 0.645757 -0.740961 0.184321
v 0.465409 0.572028 1.38879
vn 0.0700708 -0.985836 0.152372
v 0.504574 0.583324 1.28993
vn 0.984505 -0.125747 0.122222
v 0.495337 0.594605 1.36796
vn 0.98061 -0.138054 0.139087
v 0.503478 0.582895 1.29621
vn 0.704847 -0.685277 0.183266
v 0.477985 0.61638 1.49083
vn 0.734245 0.676771 0.0535292
v 0.478027 0.615487 1.49444
vn 0.820037 0.514365 0.250934
v 0.479796 0.613955 1.48969
vn 0.892848 0.434853 0.117155
v 0.437729 0.636269 1.49072
vn -0.119165 0.143382 0.982467
v 0.450174 0.593151 1.49795
vn -0.110414 0.0940731 0.989424
v 0.474583 0.615877 1.4976
vn -0.0676355 0.134123 0.988654
v 0.396167 0.645986 1.46992
vn -0.733699 -0.679344 0.0133213
v 0.421475 0.619351 1.48408
vn -0.737714 -0.671452 0.0702156
v 0.476133 0.558522 1.2816
vn -0.514392 -0.841307 -0.166145
v 0.476246 0.558041 1.28688
vn -0.47847 -0.878101 -0.0022046
v 0.503891 0.584367 1.2812
vn 0.873078 0.450547 -0.186391
v 0.504658 0.58269 1.28327
vn 0.993656 -0.0659614 -0.0910886
v 0.425294 0.673105 1.4695
vn 0.73003 0.683361 -0.00856469
v 0.477272 0.617505 1.48392
vn 0.733019 0.680164 -0.00773543
v 0.408674 0.667234 1.48084
vn -0.520131 0.568619 0.637288
v 0.420042 0.674219 1.48247
vn -0.124497 0.194947 0.97288
v 0.419512 0.620789 1.26385
vn -0.443531 0.254066 -0.859494
v 0.417732 0.621903 1.267
vn -0.941853 0.0036294 -0.336004
v 0.41623 0.623176 1.2734
vn -0.980854 0.12432 -0.149903
v 0.41584 0.625395 1.27938
vn -0.695415 0.693656 -0.18772
v 0.419985 0.653457 1.3714
vn -0.670982 0.717732 -0.186131
v 0.441452 0.649242 1.27901
vn -0.635635 0.748601 -0.188585
v 0.443544 0.648607 1.273
vn -0.0536227 0.984708 -0.165755
v 0.444607 0.646925 1.26661
vn 0.05815 0.934719 -0.350597
v 0.445541 0.645025 1.26347
vn -0.192191 0.486416 -0.852328
v 0.435092 0.635447 1.26303
vn -0.336709 0.347921 -0.874973
v 0.392273 0.652536 1.4769
vn -0.993656 0.0659555 0.0910862
v 0.419658 0.617721 1.27625
vn -0.732957 -0.680237 0.00720376
v 0.476889 0.561007 1.2777
vn 0.127612 -0.192324 -0.972999
v 0.475456 0.615876 1.27609
vn 0.737714 0.671452 -0.0702156
v 0.420685 0.677185 1.47329
vn 0.47847 0.878101 0.00220461
v 0.451389 0.590201 1.4967
vn 0.235257 -0.447983 0.862534
v 0.452324 0.588301 1.49356
vn -0.0581495 -0.934719 0.350597
v 0.453387 0.586619 1.48716
vn 0.0565318 -0.98494 0.163391
v 0.455478 0.585984 1.48116
vn 0.645257 -0.740358 0.188452
v 0.482323 0.586776 1.38869
vn 0.670982 -0.717732 0.186131
v 0.481091 0.609831 1.48079
vn 0.70871 -0.680147 0.187433
v 0.4807 0.61205 1.48677
vn 0.980837 -0.126383 0.148279
v 0.479199 0.613323 1.49317
vn 0.941853 -0.00362934 0.336005
v 0.477419 0.614437 1.49632
vn 0.484767 -0.214008 0.848057
v 0.467129 0.604705 1.49706
vn 0.336709 -0.347921 0.874973
v 0.448145 0.590386 1.48434
vn -0.730704 -0.682548 0.0141522
v 0.477783 0.557667 1.28366
vn -0.00635647 -0.99705 -0.0764949
v 0.504445 0.584297 1.28647
vn 0.909776 0.414491 -0.022461
v 0.450279 0.646169 1.48366
vn 0.723266 0.688836 0.0488968
v 0.395633 0.651492 1.48282
vn -0.167524 0.155163 0.973581
v 0.393226 0.652417 1.48057
vn -0.623503 0.47061 0.624316
v 0.433829 0.603985 1.3803
vn -0.731836 -0.681398 0.0106781
v 0.477675 0.558573 1.27998
vn 0.415231 -0.66453 -0.621276
v 0.503036 0.586238 1.2843
vn 0.749054 0.658953 -0.0685551
v 0.422554 0.675672 1.47546
vn 0.711581 0.701014 0.047243
f 1//1 2//2 3//3
f 1//1 3//3 4//4
f 1//1 4//4 5//5
f 1//1 5//5 6//6
f 1//1 6//6 2//2
f 7//7 8//8 9//9
f 10//10 11//11 12//12
f 13//13 14//14 15//15
f 16//16 17//17 18//18
f 19//19 20//20 21//21
f 22//22 23//23 24//24
f 22//22 24//24 25//25
f 22//22 25//25 26//26
f 22//22 26//26 27//27
f 22//22 27//27 23//23
f 28//28 29//29 30//30
f 31//31 32//32 33//33
f 34//34 35//35 36//36
f 37//37 38//38 39//39
f 40//40 41//41 42//42
f 13//13 43//43 44//44
f 10//10 45//45 46//46
f 7//7 47//47 48//48
f 19//19 49//49 50//50
f 16//16 51//51 52//52
f 10//10 53//53 45//45
f 13//13 54//54 43//43
f 16//16 55//55 51//51
f 19//19 56//56 49//49
f 7//7 57//57 47//47
f 40//40 58//58 59//59
f 28//28 60//60 61//61
f 31//31 62//62 63//63
f 34//34 64//64 65//65
f 37//37 66//66 67//67
f 40//40 68//68 58//58
f 28//28 69//69 60//60
f 31//31 70//70 62//62
f 34//34 71//71 64//64
f 37//37 72//72 66//66
f 10//10 46//46 11//11
f 7//7 48//48 8//8
f 19//19 50//50 20//20
f 16//16 52//52 17//17
f 13//13 44//44 14//14
f 40//40 42//42 68//68
f 28//28 30//30 69//69
f 31//31 33//33 70//70
f 34//34 36//36 71//71
f 37//37 39//39 72//72
f 28//28 61//61 29//29
f 31//31 63//63 32//32
f 34//34 65//65 35//35
f 37//37 67//67 38//38
f 40//40 59//59 41//41
f 10//10 12//12 53//53
f 13//13 15//15 54//54
f 16//16 18//18 55//55
f 19//19 21//21 56//56
f 7//7 9//9 57//57
f 73//73 74//74 75//75
f 76//76 77//77 78//78
f 79//79 80//80 81//81
f 82//82 83//83 84//84
f 85//85 86//86 87//87
f 88//88 89//89 90//90
f 91//91 92//92 93//93
f 94//94 95//95 96//96
f 97//97 98//98 99//99
f 100//100 101//101 102//102
f 103//103 104//104 105//105
f 106//106 107//107 108//108
f 109//109 110//110 111//111
f 112//112 113//113 114//114
f 115//115 116//116 117//117
f 88//88 118//118 119//119
f 91//91 120//120 121//121
f 94//94 122//122 123//123
f 97//97 124//124 125//125
f 100//100 126//126 127//127
f 128//128 129//129 2//2
f 130//130 131//131 3//3
f 132//132 133//133 4//4
f 134//134 135//135 5//5
f 136//136 137//137 6//6
f 76//76 138//138 8//8
f 73//73 139//139 11//11
f 85//85 140//140 14//14
f 82//82 141//141 17//17
f 79//79 142//142 20//20
f 143//143 144//144 23//23
f 145//145 146//146 24//24
f 147//147 148//148 25//25
f 149//149 150//150 26//26
f 151//151 152//152 27//27
f 103//103 153//153 29//29
f 106//106 154//154 32//32
f 109//109 155//155 35//35
f 112//112 156//156 38//38
f 115//115 157//157 41//41
f 73//73 75//75 43//43
f 76//76 78//78 45//45
f 79//79 81//81 47//47
f 82//82 84//84 49//49
f 85//85 87//87 51//51
f 88//88 90//90 53//53
f 91//91 93//93 54//54
f 94//94 96//96 55//55
f 97//97 99//99 56//56
f 100//100 102//102 57//57
f 103//103 105//105 58//58
f 106//106 108//108 60//60
f 109//109 111//111 62//62
f 112//112 114//114 64//64
f 115//115 117//117 66//66
f 88//88 119//119 68//68
f 91//91 121//121 69//69
f 94//94 123//123 70//70
f 97//97 125//125 71//71
f 100//100 127//127 72//72
f 130//130 74//74 46//46
f 132//132 77//77 48//48
f 134//134 80//80 50//50
f 136//136 83//83 52//52
f 128//128 86//86 44//44
f 158//158 89//89 42//42
f 159//159 92//92 30//30
f 160//160 95//95 33//33
f 161//161 98//98 36//36
f 162//162 101//101 39//39
f 145//145 104//104 61//61
f 147//147 107//107 63//63
f 149//149 110//110 65//65
f 151//151 113//113 67//67
f 143//143 116//116 59//59
f 159//159 118//118 12//12
f 160//160 120//120 15//15
f 161//161 122//122 18//18
f 162//162 124//124 21//21
f 158//158 126//126 9//9
f 130//130 129//129 74//74
f 132//132 131//131 77//77
f 134//134 133//133 80//80
f 136//136 135//135 83//83
f 128//128 137//137 86//86
f 158//158 138//138 89//89
f 159//159 139//139 92//92
f 160//160 140//140 95//95
f 161//161 141//141 98//98
f 162//162 142//142 101//101
f 145//145 144//144 104//104
f 147//147 146//146 107//107
f 149//149 148//148 110//110
f 151//151 150//150 113//113
f 143//143 152//152 116//116
f 159//159 153//153 118//118
f 160//160 154//154 120//120
f 161//161 155//155 122//122
f 162//162 156//156 124//124
f 158//158 157//157 126//126
f 130//130 3//3 129//129
f 132//132 4//4 131//131
f 134//134 5//5 133//133
f 136//136 6//6 135//135
f 128//128 2//2 137//137
f 158//158 9//9 138//138
f 159//159 12//12 139//139
f 160//160 15//15 140//140
f 161//161 18//18 141//141
f 162//162 21//21 142//142
f 145//145 24//24 144//144
f 147//147 25//25 146//146
f 149//149 26//26 148//148
f 151//151 27//27 150//150
f 143//143 23//23 152//152
f 159//159 30//30 153//153
f 160//160 33//33 154//154
f 161//161 36//36 155//155
f 162//162 39//39 156//156
f 158//158 42//42 157//157
f 128//128 44//44 75//75
f 130//130 46//46 78//78
f 132//132 48//48 81//81
f 134//134 50//50 84//84
f 136//136 52//52 87//87
f 76//76 45//45 90//90
f 73//73 43//43 93//93
f 85//85 51//51 96//96
f 82//82 49//49 99//99
f 79//79 47//47 102//102
f 143//143 59//59 105//105
f 145//145 61//61 108//108
f 147//147 63//63 111//111
f 149//149 65//65 114//114
f 151//151 67//67 117//117
f 103//103 58//58 119//119
f 106//106 60//60 121//121
f 109//109 62//62 123//123
f 112//112 64//64 125//125
f 115//115 66//66 127//127
f 73//73 11//11 74//74
f 76//76 8//8 77//77
f 79//79 20//20 80//80
f 82//82 17//17 83//83
f 85//85 14//14 86//86
f 88//88 68//68 89//89
f 91//91 69//69 92//92
f 94//94 70//70 95//95
f 97//97 71//71 98//98
f 100//100 72//72 101//101
f 103//103 29//29 104//104
f 106//106 32//32 107//107
f 109//109 35//35 110//110
f 112//112 38//38 113//113
f 115//115 41//41 116//116
f 88//88 53//53 118//118
f 91//91 54//54 120//120
f 94//94 55//55 122//122
f 97//97 56//56 124//124
f 100//100 57//57 126//126
f 128//128 75//75 129//129
f 130//130 78//78 131//131
f 132//132 81//81 133//133
f 134//134 84//84 135//135
f 136//136 87//87 137//137
f 76//76 90//90 138//138
f 73//73 93//93 139//139
f 85//85 96//96 140//140
f 82//82 99//99 141//141
f 79//79 102//102 142//142
f 143//143 105//105 144//144
f 145//145 108//108 146//146
f 147//147 111//111 148//148
f 149//149 114//114 150//150
f 151//151 117//117 152//152
f 103//103 119//119 153//153
f 106//106 121//121 154//154
f 109//109 123//123 155//155
f 112//112 125//125 156//156
f 115//115 127//127 157//157
f 129//129 3//3 2//2
f 131//131 4//4 3//3
f 133//133 5//5 4//4
f 135//135 6//6 5//5
f 137//137 2//2 6//6
f 138//138 9//9 8//8
f 139//139 12//12 11//11
f 140//140 15//15 14//14
f 141//141 18//18 17//17
f 142//142 21//21 20//20
f 144//144 24//24 23//23
f 146//146 25//25 24//24
f 148//148 26//26 25//25
f 150//150 27//27 26//26
f 152//152 23//23 27//27
f 153//153 30//30 29//29
f 154//154 33//33 32//32
f 155//155 36//36 35//35
f 156//156 39//39 38//38
f 157//157 42//42 41//41
f 75//75 44//44 43//43
f 78//78 46//46 45//45
f 81//81 48//48 47//47
f 84//84 50//50 49//49
f 87//87 52//52 51//51
f 90//90 45//45 53//53
f 93//93 43//43 54//54
f 96//96 51//51 55//55
f 99//99 49//49 56//56
f 102//102 47//47 57//57
f 105//105 59//59 58//58
f 108//108 61//61 60//60
f 111//111 63//63 62//62
f 114//114 65//65 64//64
f 117//117 67//67 66//66
f 119//119 58//58 68//68
f 121//121 60//60 69//69
f 123//123 62//62 70//70
f 125//125 64//64 71//71
f 127//127 66//66 72//72
f 74//74 11//11 46//46
f 77//77 8//8 48//48
f 80//80 20//20 50//50
f 83//83 17//17 52//52
f 86//86 14//14 44//44
f 89//89 68//68 42//42
f 92//92 69//69 30//30
f 95//95 70//70 33//33
f 98//98 71//71 36//36
f 101//101 72//72 39//39
f 104//104 29//29 61//61
f 107//107 32//32 63//63
f 110//110 35//35 65//65
f 113//113 38//38 67//67
f 116//116 41//41 59//59
f 118//118 53//53 12//12
f 120//120 54//54 15//15
f 122//122 55//55 18//18
f 124//124 56//56 21//21
f 126//126 57//57 9//9
f 129//129 75//75 74//74
f 131//131 78//78 77//77
f 133//133 81//81 80//80
f 135//135 84//84 83//83
f 137//137 87//87 86//86
f 138//138 90//90 89//89
f 139//139 93//93 92//92
f 140//140 96//96 95//95
f 141//141 99//99 98//98
f 142//142 102//102 101//101
f 144//144 105//105 104//104
f 146//146 108//108 107//107
f 148//148 111//111 110//110
f 150//150 114//114 113//113
f 152//152 117//117 116//116
f 153//153 119//119 118//118
f 154//154 121//121 120//120
f 155//155 123//123 122//122
f 156//156 125//125 124//124
f 157//157 127//127 126//126
