# Created by Open3D 
# object name: part_007
# number of vertices: 162
# number of triangles: 320
v 0.455507 0.64359 1.33441
vn -0.380123 0.871093 -0.310971
v 0.43837 0.633987 1.32944
vn -0.336144 0.79866 -0.499149
v 0.436549 0.63466 1.33322
vn -0.419453 0.871719 -0.253311
v 0.454074 0.644391 1.3397
vn -0.412384 0.894515 -0.172577
v 0.467659 0.649904 1.33789
vn -0.360684 0.90003 -0.244651
v 0.468018 0.648514 1.33389
vn -0.301299 0.814117 -0.49642
v 0.422281 0.659192 1.50473
vn -0.438667 0.898584 -0.0108589
v 0.403955 0.649966 1.50031
vn -0.453618 0.887761 -0.0781737
v 0.40421 0.650028 1.50455
vn -0.470519 0.861758 0.189697
v 0.419022 0.63978 1.41676
vn -0.956513 -0.240861 -0.164526
v 0.434753 0.631909 1.33749
vn -0.933126 -0.323872 -0.156151
v 0.419713 0.637712 1.41708
vn -0.895489 -0.423841 -0.135861
v 0.451611 0.601016 1.33315
vn -0.687701 -0.425197 -0.588451
v 0.452884 0.601433 1.33221
vn 0.102248 -0.131996 -0.985963
v 0.465313 0.572286 1.33833
vn -0.501489 -0.404653 -0.764699
v 0.484992 0.617372 1.33817
vn 0.871597 0.338842 -0.354265
v 0.472398 0.645276 1.33493
vn 0.907536 0.411017 -0.0862808
v 0.497861 0.59024 1.34494
vn 0.91259 0.400093 -0.0842947
v 0.45748 0.655331 1.40443
vn 0.784659 0.612295 0.0969781
v 0.438557 0.66458 1.49745
vn 0.602699 0.796608 0.046584
v 0.438862 0.663636 1.5015
vn 0.832465 0.541821 0.115893
v 0.452364 0.594174 1.51656
vn 0.380124 -0.871094 0.310969
v 0.433721 0.586245 1.51615
vn 0.304819 -0.814006 0.494449
v 0.43408 0.584856 1.51215
vn 0.371358 -0.895285 0.246084
v 0.453408 0.593182 1.51121
vn 0.412384 -0.894515 0.172577
v 0.46519 0.600099 1.51682
vn 0.42971 -0.866208 0.255016
v 0.463369 0.600773 1.52061
vn 0.337814 -0.796222 0.501908
v 0.447691 0.577817 1.42803
vn -0.784659 -0.612296 -0.096978
v 0.431911 0.585664 1.50728
vn -0.833438 -0.541723 -0.109167
v 0.446566 0.579673 1.42764
vn -0.88422 -0.448197 -0.131431
v 0.485589 0.578572 1.34623
vn 0.438666 -0.898584 0.010861
v 0.466674 0.56955 1.34506
vn 0.40552 -0.911328 0.0709533
v 0.467881 0.570205 1.34104
vn 0.439194 -0.877107 -0.194402
v 0.486149 0.593368 1.41569
vn 0.956514 0.240858 0.164526
v 0.497543 0.587016 1.35775
vn 0.981139 -0.0265033 0.191477
v 0.497952 0.58831 1.35381
vn 0.935004 0.322243 0.148078
v 0.450128 0.633744 1.51689
vn 0.687699 0.425197 0.588453
v 0.46366 0.6063 1.52027
vn 0.828457 0.439601 0.347003
v 0.438197 0.661335 1.51026
vn 0.823402 0.450524 0.345017
v 0.416747 0.617387 1.51188
vn -0.871598 -0.338843 0.354265
v 0.417589 0.618007 1.51314
vn -0.27729 0.0462271 0.959673
v 0.403681 0.646429 1.5068
vn -0.788838 -0.227594 0.570907
v 0.438079 0.628459 1.32978
vn -0.828456 -0.439601 -0.347004
v 0.438594 0.630035 1.32782
vn -0.526392 -0.350834 -0.774485
v 0.404196 0.647744 1.49229
vn -0.981239 0.0232306 -0.191391
v 0.433707 0.633886 1.34101
vn -0.980438 0.0228526 -0.195499
v 0.435065 0.665209 1.50498
vn -0.394924 0.91611 -0.0691121
v 0.422953 0.659005 1.49924
vn -0.416184 0.8963 -0.153094
v 0.469828 0.649095 1.34276
vn 0.833136 0.542414 0.108039
v 0.468067 0.650722 1.34617
vn 0.598818 0.799825 0.041204
v 0.48415 0.616753 1.3369
vn 0.313954 -0.0273308 -0.949045
v 0.471339 0.64608 1.33274
vn 0.763937 0.281413 -0.580695
v 0.403787 0.646449 1.49623
vn -0.934539 -0.32321 -0.148905
v 0.463542 0.573424 1.33979
vn -0.823402 -0.450524 -0.345018
v 0.498058 0.588331 1.34324
vn 0.788838 0.227594 -0.570908
v 0.458647 0.653455 1.4046
vn 0.88422 0.448198 0.131431
v 0.433858 0.664555 1.50901
vn -0.43666 0.87768 0.197499
v 0.429341 0.589484 1.51511
vn -0.907536 -0.411017 0.086281
v 0.4304 0.58868 1.5173
vn -0.763937 -0.281414 0.580695
v 0.463182 0.57018 1.35259
vn -0.600523 -0.798273 -0.046172
v 0.433672 0.584037 1.50387
vn -0.601325 -0.797897 -0.0420643
v 0.497784 0.584794 1.34974
vn 0.463952 -0.882288 0.0794765
v 0.484529 0.578569 1.35167
vn 0.416184 -0.8963 0.153094
v 0.466986 0.602851 1.51255
vn 0.933066 0.324387 0.155435
v 0.468032 0.600873 1.50903
vn 0.980575 -0.02011 0.195109
v 0.448855 0.633327 1.51784
vn -0.0636453 0.149979 0.986638
v 0.463145 0.604725 1.52222
vn 0.52639 0.350833 0.774487
v 0.403878 0.644519 1.5051
vn -0.91259 -0.400093 0.0842949
v 0.462877 0.571124 1.34854
vn -0.832026 -0.542384 -0.116413
v 0.497529 0.584732 1.34549
vn 0.473179 -0.859787 -0.19201
v 0.4855 0.595417 1.41515
vn 0.895489 0.423841 0.135861
v 0.436426 0.662474 1.51172
vn 0.501486 0.404653 0.764701
v 0.436381 0.630458 1.33232
vn -0.881658 -0.422442 -0.21029
v 0.435493 0.632671 1.33337
vn -0.961161 -0.0711621 -0.266658
v 0.437024 0.631428 1.32948
vn -0.887448 -0.176102 -0.42594
v 0.403544 0.648986 1.4974
vn -0.833714 0.516052 -0.196498
v 0.405315 0.64956 1.49243
vn -0.438765 0.883427 -0.164442
v 0.419138 0.641711 1.4166
vn -0.825334 0.524522 -0.209046
v 0.436757 0.665261 1.50239
vn 0.131793 0.989829 -0.0535737
v 0.455789 0.656532 1.40485
vn 0.124599 0.989984 -0.0663777
v 0.43646 0.664821 1.49711
vn -0.376702 0.913275 -0.154999
v 0.471232 0.647535 1.33756
vn 0.892763 0.447006 0.0562108
v 0.470779 0.647968 1.33455
vn 0.756252 0.629297 -0.179076
v 0.469785 0.649473 1.33852
vn 0.679956 0.732975 -0.0201814
v 0.471855 0.610663 1.33469
vn 0.190694 -0.0895453 -0.977557
v 0.440281 0.630738 1.32717
vn 0.152139 -0.059674 -0.986556
v 0.469963 0.645282 1.33163
vn 0.195218 -0.0387619 -0.979994
v 0.403321 0.645982 1.5018
vn -0.910365 -0.408963 -0.0631281
v 0.402892 0.647456 1.50446
vn -0.987722 -0.129014 0.0880971
v 0.402964 0.647945 1.50013
vn -0.993105 -0.0561565 -0.102901
v 0.463567 0.571701 1.34301
vn -0.864057 -0.460486 -0.203369
v 0.461407 0.573875 1.34791
vn -0.888043 -0.438909 -0.13689
v 0.449969 0.600998 1.33723
vn -0.873527 -0.441459 -0.205096
v 0.498304 0.586163 1.34409
vn 0.557383 -0.581318 -0.592785
v 0.485853 0.579788 1.34178
vn 0.414873 -0.652247 -0.634393
v 0.496713 0.587467 1.34214
vn 0.231674 -0.117556 -0.965664
v 0.472156 0.624463 1.40982
vn 0.889937 0.43606 0.133658
v 0.496826 0.59123 1.35323
vn 0.892002 0.433102 0.129444
v 0.471333 0.646328 1.34321
vn 0.889666 0.438149 0.128526
v 0.435088 0.664106 1.51071
vn -0.266701 0.72375 0.636441
v 0.436647 0.663996 1.50953
vn 0.655978 0.676382 0.334961
v 0.435685 0.665103 1.50781
vn 0.169859 0.968841 0.180265
v 0.430507 0.587225 1.51248
vn -0.892763 -0.447006 -0.0562108
v 0.431954 0.585286 1.51152
vn -0.679956 -0.732975 0.0201814
v 0.43096 0.586792 1.51549
vn -0.756252 -0.629297 0.179076
v 0.464982 0.569499 1.34765
vn -0.133065 -0.989779 0.0512998
v 0.465279 0.569939 1.35293
vn 0.390308 -0.907171 0.157164
v 0.44922 0.576692 1.42843
vn -0.124601 -0.989984 0.0663774
v 0.498195 0.585773 1.35264
vn 0.835485 -0.514211 0.193782
v 0.485872 0.591513 1.41667
vn 0.825334 -0.524522 0.209046
v 0.496424 0.5852 1.35761
vn 0.447604 -0.878756 0.165644
v 0.465358 0.604302 1.51772
vn 0.881658 0.422442 0.210291
v 0.464715 0.603331 1.52056
vn 0.887447 0.176102 0.42594
v 0.466246 0.602089 1.51667
vn 0.961161 0.0711615 0.266658
v 0.436423 0.627301 1.51633
vn -0.190694 0.0895455 0.977557
v 0.431776 0.589478 1.51841
vn -0.192165 0.0400619 0.980545
v 0.461458 0.604022 1.52287
vn -0.149218 0.0613017 0.986902
v 0.404913 0.64353 1.49681
vn -0.891811 -0.433201 -0.130424
v 0.416743 0.6166 1.50755
vn -0.901539 -0.428305 -0.0615008
v 0.465092 0.570764 1.34052
vn -0.65598 -0.676382 -0.334961
v 0.464484 0.570012 1.34477
vn -0.648013 -0.747974 -0.143577
v 0.498848 0.587303 1.34558
vn 0.987722 0.129014 -0.0880972
v 0.498735 0.58567 1.34715
vn 0.894022 -0.447555 -0.020481
v 0.440332 0.660885 1.50213
vn 0.888172 0.438847 0.136251
v 0.465825 0.605787 1.51215
vn 0.890496 0.433824 0.137164
v 0.42232 0.658124 1.50923
vn -0.414873 0.652247 0.634393
v 0.434708 0.661837 1.51236
vn -0.185674 0.140095 0.972573
v 0.438125 0.632307 1.32812
vn -0.232753 0.47021 -0.85131
v 0.436603 0.633312 1.33066
vn -0.806076 0.406267 -0.430335
v 0.43505 0.634192 1.33589
vn -0.828708 0.513717 -0.222122
v 0.434859 0.635687 1.34098
vn -0.437993 0.883065 -0.168402
v 0.438852 0.652021 1.4195
vn -0.414304 0.895452 -0.162844
v 0.466004 0.650948 1.34566
vn -0.380426 0.910898 -0.159815
v 0.468263 0.650466 1.34088
vn 0.140984 0.986839 -0.0791934
v 0.469283 0.649326 1.33557
vn 0.257797 0.927546 -0.270553
v 0.469778 0.647817 1.33288
vn 0.0146978 0.591608 -0.806092
v 0.457184 0.641753 1.33051
vn -0.125903 0.516552 -0.846949
v 0.403004 0.649089 1.5029
vn -0.894022 0.447555 0.0204811
v 0.435914 0.628973 1.33789
vn -0.890371 -0.433877 -0.137805
v 0.467031 0.572923 1.33769
vn 0.188753 -0.138809 -0.972165
v 0.484996 0.61816 1.34249
vn 0.901539 0.428305 0.0615009
v 0.437255 0.664748 1.50528
vn 0.648013 0.747974 0.143578
v 0.431961 0.586943 1.51716
vn 0.0264978 -0.57127 0.820334
v 0.432456 0.585434 1.51447
vn -0.257795 -0.927547 0.270553
v 0.433476 0.584293 1.50917
vn -0.138089 -0.987428 0.0769196
v 0.435735 0.583812 1.50439
vn 0.389535 -0.906808 0.161124
v 0.469425 0.585942 1.43152
vn 0.414304 -0.895452 0.162844
v 0.46688 0.599073 1.50907
vn 0.451164 -0.876023 0.170396
v 0.466689 0.600568 1.51415
vn 0.828217 -0.515352 0.220156
v 0.465136 0.601447 1.51938
vn 0.806076 -0.406266 0.430335
v 0.463614 0.602452 1.52192
vn 0.275982 -0.449181 0.849747
v 0.450989 0.59616 1.5205
vn 0.125904 -0.516552 0.846949
v 0.430406 0.588432 1.50683
vn -0.889482 -0.438233 -0.129509
v 0.466054 0.569657 1.34224
vn -0.169857 -0.968841 -0.180263
v 0.498775 0.586814 1.34992
vn 0.993105 0.056157 0.102901
v 0.45177 0.633762 1.51282
vn 0.873527 0.441459 0.205096
v 0.405026 0.647293 1.5079
vn -0.228779 0.119196 0.966153
v 0.403435 0.648597 1.50595
vn -0.517161 0.60376 0.606645
v 0.433071 0.608659 1.42235
vn -0.889937 -0.43606 -0.133658
v 0.466651 0.570653 1.33934
vn 0.310905 -0.704824 -0.637622
v 0.498418 0.588778 1.34824
vn 0.910365 0.408963 0.0631282
v 0.438172 0.663059 1.50703
vn 0.864057 0.460486 0.203369
f 1//1 2//2 3//3
f 1//1 3//3 4//4
f 1//1 4//4 5//5
f 1//1 5//5 6//6
f 1//1 6//6 2//2
f 7//7 8//8 9//9
f 10//10 11//11 12//12
f 13//13 14//14 15//15
f 16//16 17//17 18//18
f 19//19 20//20 21//21
f 22//22 23//23 24//24
f 22//22 24//24 25//25
f 22//22 25//25 26//26
f 22//22 26//26 27//27
f 22//22 27//27 23//23
f 28//28 29//29 30//30
f 31//31 32//32 33//33
f 34//34 35//35 36//36
f 37//37 38//38 39//39
f 40//40 41//41 42//42
f 13//13 43//43 44//44
f 10//10 45//45 46//46
f 7//7 47//47 48//48
f 19//19 49//49 50//50
f 16//16 51//51 52//52
f 10//10 53//53 45//45
f 13//13 54//54 43//43
f 16//16 55//55 51//51
f 19//19 56//56 49//49
f 7//7 57//57 47//47
f 40//40 58//58 59//59
f 28//28 60//60 61//61
f 31//31 62//62 63//63
f 34//34 64//64 65//65
f 37//37 66//66 67//67
f 40//40 68//68 58//58
f 28//28 69//69 60//60
f 31//31 70//70 62//62
f 34//34 71//71 64//64
f 37//37 72//72 66//66
f 10//10 46//46 11//11
f 7//7 48//48 8//8
f 19//19 50//50 20//20
f 16//16 52//52 17//17
f 13//13 44//44 14//14
f 40//40 42//42 68//68
f 28//28 30//30 69//69
f 31//31 33//33 70//70
f 34//34 36//36 71//71
f 37//37 39//39 72//72
f 28//28 61//61 29//29
f 31//31 63//63 32//32
f 34//34 65//65 35//35
f 37//37 67//67 38//38
f 40//40 59//59 41//41
f 10//10 12//12 53//53
f 13//13 15//15 54//54
f 16//16 18//18 55//55
f 19//19 21//21 56//56
f 7//7 9//9 57//57
f 73//73 74//74 75//75
f 76//76 77//77 78//78
f 79//79 80//80 81//81
f 82//82 83//83 84//84
f 85//85 86//86 87//87
f 88//88 89//89 90//90
f 91//91 92//92 93//93
f 94//94 95//95 96//96
f 97//97 98//98 99//99
f 100//100 101//101 102//102
f 103//103 104//104 105//105
f 106//106 107//107 108//108
f 109//109 110//110 111//111
f 112//112 113//113 114//114
f 115//115 116//116 117//117
f 88//88 118//118 119//119
f 91//91 120//120 121//121
f 94//94 122//122 123//123
f 97//97 124//124 125//125
f 100//100 126//126 127//127
f 128//128 129//129 2//2
f 130//130 131//131 3//3
f 132//132 133//133 4//4
f 134//134 135//135 5//5
f 136//136 137//137 6//6
f 76//76 138//138 8//8
f 73//73 139//139 11//11
f 85//85 140//140 14//14
f 82//82 141//141 17//17
f 79//79 142//142 20//20
f 143//143 144//144 23//23
f 145//145 146//146 24//24
f 147//147 148//148 25//25
f 149//149 150//150 26//26
f 151//151 152//152 27//27
f 103//103 153//153 29//29
f 106//106 154//154 32//32
f 109//109 155//155 35//35
f 112//112 156//156 38//38
f 115//115 157//157 41//41
f 73//73 75//75 43//43
f 76//76 78//78 45//45
f 79//79 81//81 47//47
f 82//82 84//84 49//49
f 85//85 87//87 51//51
f 88//88 90//90 53//53
f 91//91 93//93 54//54
f 94//94 96//96 55//55
f 97//97 99//99 56//56
f 100//100 102//102 57//57
f 103//103 105//105 58//58
f 106//106 108//108 60//60
f 109//109 111//111 62//62
f 112//112 114//114 64//64
f 115//115 117//117 66//66
f 88//88 119//119 68//68
f 91//91 121//121 69//69
f 94//94 123//123 70//70
f 97//97 125//125 71//71
f 100//100 127//127 72//72
f 130//130 74//74 46//46
f 132//132 77//77 48//48
f 134//134 80//80 50//50
f 136//136 83//83 52//52
f 128//128 86//86 44//44
f 158//158 89//89 42//42
f 159//159 92//92 30//30
f 160//160 95//95 33//33
f 161//161 98//98 36//36
f 162//162 101//101 39//39
f 145//145 104//104 61//61
f 147//147 107//107 63//63
f 149//149 110//110 65//65
f 151//151 113//113 67//67
f 143//143 116//116 59//59
f 159//159 118//118 12//12
f 160//160 120//120 15//15
f 161//161 122//122 18//18
f 162//162 124//124 21//21
f 158//158 126//126 9//9
f 130//130 129//129 74//74
f 132//132 131//131 77//77
f 134//134 133//133 80//80
f 136//136 135//135 83//83
f 128//128 137//137 86//86
f 158//158 138//138 89//89
f 159//159 139//139 92//92
f 160//160 140//140 95//95
f 161//161 141//141 98//98
f 162//162 142//142 101//101
f 145//145 144//144 104//104
f 147//147 146//146 107//107
f 149//149 148//148 110//110
f 151//151 150//150 113//113
f 143//143 152//152 116//116
f 159//159 153//153 118//118
f 160//160 154//154 120//120
f 161//161 155//155 122//122
f 162//162 156//156 124//124
f 158//158 157//157 126//126
f 130//130 3//3 129//129
f 132//132 4//4 131//131
f 134//134 5//5 133//133
f 136//136 6//6 135//135
f 128//128 2//2 137//137
f 158//158 9//9 138//138
f 159//159 12//12 139//139
f 160//160 15//15 140//140
f 161//161 18//18 141//141
f 162//162 21//21 142//142
f 145//145 24//24 144//144
f 147//147 25//25 146//146
f 149//149 26//26 148//148
f 151//151 27//27 150//150
f 143//143 23//23 152//152
f 159//159 30//30 153//153
f 160//160 33//33 154//154
f 161//161 36//36 155//155
f 162//162 39//39 156//156
f 158//158 42//42 157//157
f 128//128 44//44 75//75
f 130//130 46//46 78//78
f 132//132 48//48 81//81
f 134//134 50//50 84//84
f 136//136 52//52 87//87
f 76//76 45//45 90//90
f 73//73 43//43 93//93
f 85//85 51//51 96//96
f 82//82 49//49 99//99
f 79//79 47//47 102//102
f 143//143 59//59 105//105
f 145//145 61//61 108//108
f 147//147 63//63 111//111
f 149//149 65//65 114//114
f 151//151 67//67 117//117
f 103//103 58//58 119//119
f 106//106 60//60 121//121
f 109//109 62//62 123//123
f 112//112 64//64 125//125
f 115//115 66//66 127//127
f 73//73 11//11 74//74
f 76//76 8//8 77//77
f 79//79 20//20 80//80
f 82//82 17//17 83//83
f 85//85 14//14 86//86
f 88//88 68//68 89//89
f 91//91 69//69 92//92
f 94//94 70//70 95//95
f 97//97 71//71 98//98
f 100//100 72//72 101//101
f 103//103 29//29 104//104
f 106//106 32//32 107//107
f 109//109 35//35 110//110
f 112//112 38//38 113//113
f 115//115 41//41 116//116
f 88//88 53//53 118//118
f 91//91 54//54 120//120
f 94//94 55//55 122//122
f 97//97 56//56 124//124
f 100//100 57//57 126//126
f 128//128 75//75 129//129
f 130//130 78//78 131//131
f 132//132 81//81 133//133
f 134//134 84//84 135//135
f 136//136 87//87 137//137
f 76//76 90//90 138//138
f 73//73 93//93 139//139
f 85//85 96//96 140//140
f 82//82 99//99 141//141
f 79//79 102//102 142//142
f 143//143 105//105 144//144
f 145//145 108//108 146//146
f 147//147 111//111 148//148
f 149//149 114//114 150//150
f 151//151 117//117 152//152
f 103//103 119//119 153//153
f 106//106 121//121 154//154
f 109//109 123//123 155//155
f 112//112 125//125 156//156
f 115//115 127//127 157//157
f 129//129 3//3 2//2
f 131//131 4//4 3//3
f 133//133 5//5 4//4
f 135//135 6//6 5//5
f 137//137 2//2 6//6
f 138//138 9//9 8//8
f 139//139 12//12 11//11
f 140//140 15//15 14//14
f 141//141 18//18 17//17
f 142//142 21//21 20//20
f 144//144 24//24 23//23
f 146//146 25//25 24//24
f 148//148 26//26 25//25
f 150//150 27//27 26//26
f 152//152 23//23 27//27
f 153//153 30//30 29//29
f 154//154 33//33 32//32
f 155//155 36//36 35//35
f 156//156 39//39 38//38
f 157//157 42//42 41//41
f 75//75 44//44 43//43
f 78//78 46//46 45//45
f 81//81 48//48 47//47
f 84//84 50//50 49//49
f 87//87 52//52 51//51
f 90//90 45//45 53//53
f 93//93 43//43 54//54
f 96//96 51//51 55//55
f 99//99 49//49 56//56
f 102//102 47//47 57//57
f 105//105 59//59 58//58
f 108//108 61//61 60//60
f 111//111 63//63 62//62
f 114//114 65//65 64//64
f 117//117 67//67 66//66
f 119//119 58//58 68//68
f 121//121 60//60 69//69
f 123//123 62//62 70//70
f 125//125 64//64 71//71
f 127//127 66//66 72//72
f 74//74 11//11 46//46
f 77//77 8//8 48//48
f 80//80 20//20 50//50
f 83//83 17//17 52//52
f 86//86 14//14 44//44
f 89//89 68//68 42//42
f 92//92 69//69 30//30
f 95//95 70//70 33//33
f 98//98 71//71 36//36
f 101//101 72//72 39//39
f 104//104 29//29 61//61
f 107//107 32//32 63//63
f 110//110 35//35 65//65
f 113//113 38//38 67//67
f 116//116 41//41 59//59
f 118//118 53//53 12//12
f 120//120 54//54 15//15
f 122//122 55//55 18//18
f 124//124 56//56 21//21
f 126//126 57//57 9//9
f 129//129 75//75 74//74
f 131//131 78//78 77//77
f 133//133 81//81 80//80
f 135//135 84//84 83//83
f 137//137 87//87 86//86
f 138//138 90//90 89//89
f 139//139 93//93 92//92
f 140//140 96//96 95//95
f 141//141 99//99 98//98
f 142//142 102//102 101//101
f 144//144 105//105 104//104
f 146//146 108//108 107//107
f 148//148 111//111 110//110
f 150//150 114//114 113//113
f 152//152 117//117 116//116
f 153//153 119//119 118//118
f 154//154 121//121 120//120
f 155//155 123//123 122//122
f 156//156 125//125 124//124
f 157//157 127//127 126//126
