# Created by Open3D 
# object name: part_016
# number of vertices: 162
# number of triangles: 320
v -1.03678 4.4372 1.55914
vn 0.153446 -0.207949 -0.966029
v -1.04867 4.41964 1.56294
vn 0.290079 -0.530922 -0.796226
v -1.05603 4.42794 1.55935
vn -0.0680552 -0.19249 -0.978936
v -1.04574 4.44859 1.55778
vn -0.0517199 0.0612959 -0.996779
v -1.02822 4.44912 1.55921
vn 0.251839 0.0524159 -0.966349
v -1.02216 4.43983 1.5628
vn 0.442294 -0.418214 -0.793393
v -1.30818 4.79394 1.60628
vn -0.277715 0.358806 -0.891141
v -1.32227 4.7779 1.60559
vn -0.325486 0.145898 -0.934223
v -1.3277 4.78643 1.6114
vn -0.526632 0.542643 -0.654368
v -1.19016 4.60068 1.59363
vn -0.79738 -0.602783 -0.0289615
v -1.06343 4.43408 1.57585
vn -0.795874 -0.605271 -0.0152565
v -1.18942 4.5994 1.60755
vn -0.79575 -0.605622 0.00191042
v -1.03233 4.39622 1.78861
vn -0.652875 -0.757256 -0.0178258
v -1.02962 4.39463 1.7883
vn 0.386331 -0.916887 -0.100329
v -1.01814 4.37954 1.99334
vn -0.539043 -0.841871 -0.0261869
v -1.00249 4.41895 1.78846
vn 0.903502 0.427812 -0.0257053
v -1.01783 4.43868 1.59378
vn 0.844961 0.534642 -0.0140914
v -0.991716 4.40697 1.98407
vn 0.845093 0.534481 -0.0121512
v -1.13081 4.58768 1.58861
vn 0.792964 0.608142 -0.0370272
v -1.28008 4.78323 1.60823
vn 0.787229 0.610981 -0.0835004
v -1.28501 4.79044 1.61962
vn 0.793472 0.608175 -0.0229422
v -1.27733 4.75649 2.06737
vn -0.15345 0.207955 0.966027
v -1.29743 4.74968 2.06373
vn -0.429521 0.424751 0.796931
v -1.29137 4.74039 2.06733
vn -0.19738 -0.00961582 0.98028
v -1.26872 4.74483 2.06873
vn 0.0517195 -0.0612954 0.996779
v -1.26356 4.76157 2.06719
vn 0.12371 0.233536 0.964446
v -1.27093 4.76987 2.06359
vn -0.280414 0.541484 0.792567
v -1.16075 4.56499 2.03306
vn -0.792965 -0.608142 0.0370231
v -1.28752 4.73155 2.05085
vn -0.79505 -0.606095 0.0233223
v -1.16188 4.56597 2.01914
vn -0.795467 -0.605966 0.00614605
v -1.00593 4.39974 2.02023
vn 0.277716 -0.358807 0.89114
v -1.02514 4.39043 2.02108
vn 0.0600501 -0.348011 0.935565
v -1.0184 4.3829 2.01526
vn 0.387188 -0.648809 0.655083
v -1.10141 4.55198 2.02803
vn 0.79738 0.602782 0.0289631
v -1.0088 4.42967 2.01815
vn 0.798986 0.596449 0.0766171
v -1.00323 4.42294 2.00675
vn 0.79785 0.602668 0.0150676
v -1.28727 4.79329 1.83792
vn 0.652875 0.757256 0.0178258
v -1.27108 4.77419 2.03259
vn 0.740216 0.672341 0.00606507
v -1.2972 4.8059 1.6423
vn 0.740083 0.672503 0.00412474
v -1.31711 4.77056 1.83807
vn -0.903501 -0.427814 0.0257051
v -1.31792 4.7736 1.83837
vn -0.780435 0.616807 0.102326
v -1.33073 4.78768 1.63334
vn -0.954731 -0.295551 0.0337486
v -1.04851 4.41532 1.59394
vn -0.740217 -0.672341 -0.00606501
v -1.04555 4.41281 1.58381
vn -0.539887 -0.840866 -0.0383059
v -1.3108 4.75984 1.60839
vn -0.798934 -0.596598 -0.0759993
v -1.06975 4.44298 1.56652
vn -0.797836 -0.598041 -0.0761867
v -1.29446 4.79908 1.60545
vn -0.00252712 0.386788 -0.922165
v -1.29995 4.78274 1.60193
vn -0.0813336 0.100223 -0.991635
v -1.03207 4.45796 1.57569
vn 0.795268 0.605801 -0.0235117
v -1.03903 4.46637 1.56636
vn 0.78818 0.609566 -0.0848622
v -1.00167 4.41591 1.78816
vn 0.839599 -0.534005 -0.0995584
v -1.01627 4.4351 1.58366
vn 0.953918 0.296541 -0.0458702
v -1.31637 4.76657 1.61978
vn -0.797612 -0.602986 -0.0149581
v -1.0224 4.38361 1.98423
vn -0.740083 -0.672503 -0.00412474
v -0.988869 4.40183 1.99319
vn 0.954731 0.295551 -0.0337486
v -1.12934 4.58624 1.60246
vn 0.795467 0.605966 -0.00614605
v -1.30119 4.80661 1.61127
vn -0.377011 0.658751 -0.651084
v -1.30176 4.75083 2.03275
vn -0.844961 -0.534642 0.0140914
v -1.30332 4.75441 2.04287
vn -0.953918 -0.296541 0.0458702
v -1.03952 4.40628 2.0183
vn -0.787115 -0.611055 0.0840326
v -1.28057 4.72314 2.06017
vn -0.788214 -0.609612 0.0842118
v -0.997325 4.41161 2.02094
vn 0.378083 -0.100833 0.920264
v -1.01451 4.41068 2.02457
vn 0.0813343 -0.100224 0.991635
v -1.25617 4.75543 2.05069
vn 0.79602 0.605081 0.0151361
v -1.24985 4.74653 2.06001
vn 0.797878 0.598057 0.0756256
v -1.28997 4.79488 1.83823
vn -0.290798 0.951877 0.096779
v -1.27405 4.7767 2.04273
vn 0.539886 0.840866 0.038306
v -1.32788 4.78254 1.64246
vn -0.845093 -0.534482 0.0121511
v -1.03459 4.39907 2.00691
vn -0.793313 -0.608379 0.0230102
v -0.991896 4.40308 2.01513
vn 0.538888 -0.535483 0.650275
v -1.1018 4.55281 2.01405
vn 0.79575 0.605622 -0.00191015
v -1.30145 4.80997 1.63319
vn 0.539043 0.841871 0.0261869
v -1.0543 4.42233 1.58155
vn -0.777923 -0.628355 -0.00234095
v -1.05714 4.4265 1.56809
vn -0.77666 -0.62673 -0.0633111
v -1.04988 4.4175 1.57402
vn -0.727296 -0.68418 -0.0542056
v -1.31867 4.77123 1.6063
vn -0.794362 -0.562588 -0.229094
v -1.30998 4.7617 1.60116
vn -0.204839 -0.0203023 -0.978585
v -1.19015 4.60212 1.5828
vn -0.788217 -0.568504 -0.235622
v -1.28898 4.79384 1.60615
vn 0.752734 0.613832 -0.237913
v -1.13359 4.58973 1.57801
vn 0.756162 0.607419 -0.243437
v -1.28214 4.7829 1.60102
vn 0.140312 0.239979 -0.960585
v -1.02314 4.44606 1.58139
vn 0.812615 0.582708 -0.0103956
v -1.0197 4.44047 1.57387
vn 0.852626 0.518806 -0.0622051
v -1.02648 4.44984 1.56793
vn 0.810316 0.581634 -0.0713417
v -1.01216 4.40676 1.78812
vn 0.602143 -0.791509 -0.104586
v -1.0428 4.41204 1.58332
vn 0.553586 -0.823815 -0.121949
v -1.01626 4.43224 1.58319
vn 0.652653 -0.747719 -0.122311
v -1.32434 4.7773 1.62846
vn -0.813057 -0.582172 0.00376116
v -1.32868 4.78398 1.62245
vn -0.85889 -0.5112 -0.0313509
v -1.32285 4.77577 1.61424
vn -0.818841 -0.571283 -0.0559888
v -1.02641 4.38849 1.99823
vn -0.777483 -0.628889 0.00429316
v -1.03594 4.4004 1.98672
vn -0.794701 -0.606985 0.00431306
v -1.03975 4.40446 1.78978
vn -0.778156 -0.62807 0.00105081
v -0.989343 4.40154 2.0072
vn 0.89603 -0.392408 0.207715
v -0.99983 4.39193 2.00823
vn 0.590447 -0.773933 0.228912
v -0.988825 4.39894 1.99319
vn 0.655015 -0.750602 -0.0868985
v -1.1154 4.56942 1.80824
vn 0.79561 0.605796 -0.00402822
v -1.00428 4.42451 1.98656
vn 0.796751 0.604296 -0.00378249
v -1.03042 4.45625 1.59583
vn 0.796692 0.604367 -0.00466073
v -1.30195 4.80952 1.61919
vn -0.141252 0.967109 -0.211535
v -1.29851 4.80696 1.6223
vn 0.72103 0.691786 -0.0393518
v -1.29751 4.80459 1.61132
vn 0.671697 0.717907 -0.182845
v -1.29646 4.74345 2.04514
vn -0.812615 -0.582708 0.0103956
v -1.29311 4.73967 2.0586
vn -0.810316 -0.581634 0.0713417
v -1.2999 4.74904 2.05266
vn -0.852626 -0.518805 0.0622054
v -1.03062 4.39567 2.02038
vn -0.752129 -0.614947 0.236945
v -1.03746 4.40661 2.02551
vn -0.0677953 -0.187287 0.979963
v -1.15929 4.56467 2.04389
vn -0.756162 -0.607419 0.243438
v -1.00093 4.41828 2.02023
vn 0.795651 0.561326 0.227713
v -1.10274 4.55227 2.0391
vn 0.788216 0.568503 0.235628
v -1.00961 4.42781 2.02537
vn 0.252213 0.0578111 0.965943
v -1.2653 4.76718 2.04498
vn 0.777923 0.628355 0.00234095
v -1.26972 4.77202 2.05251
vn 0.727294 0.684182 0.054207
v -1.26246 4.76301 2.05844
vn 0.77666 0.62673 0.0633119
v -1.30159 4.7872 1.83839
vn -0.602143 0.791509 0.104586
v -1.30333 4.75727 2.04334
vn -0.646094 0.753377 0.122419
v -1.2768 4.77747 2.04321
vn -0.54639 0.828631 0.121774
v -1.31532 4.765 1.63997
vn -0.796518 -0.604604 0.00374312
v -1.31115 4.76121 1.83691
vn -0.812426 -0.583023 0.00700331
v -1.02109 4.38255 2.00424
vn -0.72103 -0.691786 0.0393518
v -1.02741 4.3904 2.01245
vn -0.768134 -0.63708 0.0640259
v -0.990911 4.40553 2.00408
vn 0.858891 0.511198 0.0313504
v -0.992864 4.40717 2.01507
vn 0.871873 0.457381 0.175044
v -1.28365 4.78911 1.63981
vn 0.794854 0.606785 -0.00433859
v -1.2575 4.75737 2.03054
vn 0.794913 0.606714 -0.0034652
v -1.31401 4.80196 1.61827
vn -0.590447 0.773933 -0.228912
v -1.30423 4.81078 1.63321
vn -0.548754 0.831511 0.0863602
v -1.0469 4.41551 1.57012
vn 0.227784 -0.88641 -0.402978
v -1.05229 4.42159 1.5638
vn -0.697666 -0.686379 -0.205297
v -1.06132 4.43294 1.5616
vn -0.783443 -0.576937 -0.231001
v -1.06866 4.44448 1.55925
vn -0.198904 -0.0280996 -0.979616
v -1.17255 4.61601 1.57895
vn -0.0665468 0.0807837 -0.994508
v -1.04081 4.46568 1.55911
vn 0.122737 0.21497 -0.968877
v -1.03162 4.45555 1.56145
vn 0.764502 0.599147 -0.237823
v -1.02307 4.44384 1.56365
vn 0.845899 0.488919 -0.213104
v -1.0186 4.43705 1.56997
vn 0.856382 -0.344276 -0.384817
v -1.02923 4.42762 1.56881
vn 0.546601 -0.720696 -0.426409
v -1.32673 4.78234 1.61146
vn -0.871873 -0.457381 -0.175044
v -1.06209 4.43214 1.59599
vn -0.79476 -0.606914 0.00343779
v -1.01536 4.37873 1.99332
vn 0.555962 -0.826708 -0.086367
v -1.00844 4.4283 1.78962
vn 0.812426 0.583023 -0.00700331
v -1.29219 4.79911 1.61409
vn 0.768134 0.63708 -0.0640259
v -1.30099 4.75246 2.05656
vn -0.791275 0.457369 0.40583
v -1.29652 4.74567 2.06288
vn -0.845899 -0.488919 0.213105
v -1.28797 4.73396 2.06508
vn -0.763056 -0.600599 0.2388
v -1.27878 4.72383 2.06743
vn -0.0737258 -0.179486 0.980994
v -1.1412 4.57795 2.04756
vn 0.0665468 -0.0807836 0.994508
v -1.25094 4.74503 2.06728
vn 0.268797 0.0840099 0.959526
v -1.25828 4.75657 2.06493
vn 0.784156 0.575686 0.231699
v -1.26731 4.76792 2.06274
vn 0.697663 0.686381 0.205299
v -1.2727 4.774 2.05642
vn -0.1016 0.918975 0.381003
v -1.28461 4.76627 2.0577
vn -0.546598 0.720696 0.426412
v -1.28917 4.73326 2.0307
vn -0.796459 -0.604675 0.0046189
v -1.02208 4.38492 2.01522
vn -0.671697 -0.717907 0.182845
v -0.996748 4.41374 2.01229
vn 0.818841 0.571283 0.0559888
v -1.27984 4.78505 1.83676
vn 0.778156 0.62807 -0.00105084
v -1.33077 4.79057 1.63334
vn -0.648468 0.756273 0.0868346
v -1.33025 4.78797 1.61933
vn -0.833066 0.5081 -0.218711
v -1.17571 4.58264 1.81335
vn -0.79561 -0.605796 0.00402822
v -1.01764 4.37999 2.00734
vn 0.269579 -0.937143 0.221562
v -0.995257 4.41221 1.99808
vn 0.813057 0.582172 -0.00376116
v -1.29318 4.80102 1.6283
vn 0.777483 0.628889 -0.00429316
f 1//1 2//2 3//3
f 1//1 3//3 4//4
f 1//1 4//4 5//5
f 1//1 5//5 6//6
f 1//1 6//6 2//2
f 7//7 8//8 9//9
f 10//10 11//11 12//12
f 13//13 14//14 15//15
f 16//16 17//17 18//18
f 19//19 20//20 21//21
f 22//22 23//23 24//24
f 22//22 24//24 25//25
f 22//22 25//25 26//26
f 22//22 26//26 27//27
f 22//22 27//27 23//23
f 28//28 29//29 30//30
f 31//31 32//32 33//33
f 34//34 35//35 36//36
f 37//37 38//38 39//39
f 40//40 41//41 42//42
f 13//13 43//43 44//44
f 10//10 45//45 46//46
f 7//7 47//47 48//48
f 19//19 49//49 50//50
f 16//16 51//51 52//52
f 10//10 53//53 45//45
f 13//13 54//54 43//43
f 16//16 55//55 51//51
f 19//19 56//56 49//49
f 7//7 57//57 47//47
f 40//40 58//58 59//59
f 28//28 60//60 61//61
f 31//31 62//62 63//63
f 34//34 64//64 65//65
f 37//37 66//66 67//67
f 40//40 68//68 58//58
f 28//28 69//69 60//60
f 31//31 70//70 62//62
f 34//34 71//71 64//64
f 37//37 72//72 66//66
f 10//10 46//46 11//11
f 7//7 48//48 8//8
f 19//19 50//50 20//20
f 16//16 52//52 17//17
f 13//13 44//44 14//14
f 40//40 42//42 68//68
f 28//28 30//30 69//69
f 31//31 33//33 70//70
f 34//34 36//36 71//71
f 37//37 39//39 72//72
f 28//28 61//61 29//29
f 31//31 63//63 32//32
f 34//34 65//65 35//35
f 37//37 67//67 38//38
f 40//40 59//59 41//41
f 10//10 12//12 53//53
f 13//13 15//15 54//54
f 16//16 18//18 55//55
f 19//19 21//21 56//56
f 7//7 9//9 57//57
f 73//73 74//74 75//75
f 76//76 77//77 78//78
f 79//79 80//80 81//81
f 82//82 83//83 84//84
f 85//85 86//86 87//87
f 88//88 89//89 90//90
f 91//91 92//92 93//93
f 94//94 95//95 96//96
f 97//97 98//98 99//99
f 100//100 101//101 102//102
f 103//103 104//104 105//105
f 106//106 107//107 108//108
f 109//109 110//110 111//111
f 112//112 113//113 114//114
f 115//115 116//116 117//117
f 88//88 118//118 119//119
f 91//91 120//120 121//121
f 94//94 122//122 123//123
f 97//97 124//124 125//125
f 100//100 126//126 127//127
f 128//128 129//129 2//2
f 130//130 131//131 3//3
f 132//132 133//133 4//4
f 134//134 135//135 5//5
f 136//136 137//137 6//6
f 76//76 138//138 8//8
f 73//73 139//139 11//11
f 85//85 140//140 14//14
f 82//82 141//141 17//17
f 79//79 142//142 20//20
f 143//143 144//144 23//23
f 145//145 146//146 24//24
f 147//147 148//148 25//25
f 149//149 150//150 26//26
f 151//151 152//152 27//27
f 103//103 153//153 29//29
f 106//106 154//154 32//32
f 109//109 155//155 35//35
f 112//112 156//156 38//38
f 115//115 157//157 41//41
f 73//73 75//75 43//43
f 76//76 78//78 45//45
f 79//79 81//81 47//47
f 82//82 84//84 49//49
f 85//85 87//87 51//51
f 88//88 90//90 53//53
f 91//91 93//93 54//54
f 94//94 96//96 55//55
f 97//97 99//99 56//56
f 100//100 102//102 57//57
f 103//103 105//105 58//58
f 106//106 108//108 60//60
f 109//109 111//111 62//62
f 112//112 114//114 64//64
f 115//115 117//117 66//66
f 88//88 119//119 68//68
f 91//91 121//121 69//69
f 94//94 123//123 70//70
f 97//97 125//125 71//71
f 100//100 127//127 72//72
f 130//130 74//74 46//46
f 132//132 77//77 48//48
f 134//134 80//80 50//50
f 136//136 83//83 52//52
f 128//128 86//86 44//44
f 158//158 89//89 42//42
f 159//159 92//92 30//30
f 160//160 95//95 33//33
f 161//161 98//98 36//36
f 162//162 101//101 39//39
f 145//145 104//104 61//61
f 147//147 107//107 63//63
f 149//149 110//110 65//65
f 151//151 113//113 67//67
f 143//143 116//116 59//59
f 159//159 118//118 12//12
f 160//160 120//120 15//15
f 161//161 122//122 18//18
f 162//162 124//124 21//21
f 158//158 126//126 9//9
f 130//130 129//129 74//74
f 132//132 131//131 77//77
f 134//134 133//133 80//80
f 136//136 135//135 83//83
f 128//128 137//137 86//86
f 158//158 138//138 89//89
f 159//159 139//139 92//92
f 160//160 140//140 95//95
f 161//161 141//141 98//98
f 162//162 142//142 101//101
f 145//145 144//144 104//104
f 147//147 146//146 107//107
f 149//149 148//148 110//110
f 151//151 150//150 113//113
f 143//143 152//152 116//116
f 159//159 153//153 118//118
f 160//160 154//154 120//120
f 161//161 155//155 122//122
f 162//162 156//156 124//124
f 158//158 157//157 126//126
f 130//130 3//3 129//129
f 132//132 4//4 131//131
f 134//134 5//5 133//133
f 136//136 6//6 135//135
f 128//128 2//2 137//137
f 158//158 9//9 138//138
f 159//159 12//12 139//139
f 160//160 15//15 140//140
f 161//161 18//18 141//141
f 162//162 21//21 142//142
f 145//145 24//24 144//144
f 147//147 25//25 146//146
f 149//149 26//26 148//148
f 151//151 27//27 150//150
f 143//143 23//23 152//152
f 159//159 30//30 153//153
f 160//160 33//33 154//154
f 161//161 36//36 155//155
f 162//162 39//39 156//156
f 158//158 42//42 157//157
f 128//128 44//44 75//75
f 130//130 46//46 78//78
f 132//132 48//48 81//81
f 134//134 50//50 84//84
f 136//136 52//52 87//87
f 76//76 45//45 90//90
f 73//73 43//43 93//93
f 85//85 51//51 96//96
f 82//82 49//49 99//99
f 79//79 47//47 102//102
f 143//143 59//59 105//105
f 145//145 61//61 108//108
f 147//147 63//63 111//111
f 149//149 65//65 114//114
f 151//151 67//67 117//117
f 103//103 58//58 119//119
f 106//106 60//60 121//121
f 109//109 62//62 123//123
f 112//112 64//64 125//125
f 115//115 66//66 127//127
f 73//73 11//11 74//74
f 76//76 8//8 77//77
f 79//79 20//20 80//80
f 82//82 17//17 83//83
f 85//85 14//14 86//86
f 88//88 68//68 89//89
f 91//91 69//69 92//92
f 94//94 70//70 95//95
f 97//97 71//71 98//98
f 100//100 72//72 101//101
f 103//103 29//29 104//104
f 106//106 32//32 107//107
f 109//109 35//35 110//110
f 112//112 38//38 113//113
f 115//115 41//41 116//116
f 88//88 53//53 118//118
f 91//91 54//54 120//120
f 94//94 55//55 122//122
f 97//97 56//56 124//124
f 100//100 57//57 126//126
f 128//128 75//75 129//129
f 130//130 78//78 131//131
f 132//132 81//81 133//133
f 134//134 84//84 135//135
f 136//136 87//87 137//137
f 76//76 90//90 138//138
f 73//73 93//93 139//139
f 85//85 96//96 140//140
f 82//82 99//99 141//141
f 79//79 102//102 142//142
f 143//143 105//105 144//144
f 145//145 108//108 146//146
f 147//147 111//111 148//148
f 149//149 114//114 150//150
f 151//151 117//117 152//152
f 103//103 119//119 153//153
f 106//106 121//121 154//154
f 109//109 123//123 155//155
f 112//112 125//125 156//156
f 115//115 127//127 157//157
f 129//129 3//3 2//2
f 131//131 4//4 3//3
f 133//133 5//5 4//4
f 135//135 6//6 5//5
f 137//137 2//2 6//6
f 138//138 9//9 8//8
f 139//139 12//12 11//11
f 140//140 15//15 14//14
f 141//141 18//18 17//17
f 142//142 21//21 20//20
f 144//144 24//24 23//23
f 146//146 25//25 24//24
f 148//148 26//26 25//25
f 150//150 27//27 26//26
f 152//152 23//23 27//27
f 153//153 30//30 29//29
f 154//154 33//33 32//32
f 155//155 36//36 35//35
f 156//156 39//39 38//38
f 157//157 42//42 41//41
f 75//75 44//44 43//43
f 78//78 46//46 45//45
f 81//81 48//48 47//47
f 84//84 50//50 49//49
f 87//87 52//52 51//51
f 90//90 45//45 53//53
f 93//93 43//43 54//54
f 96//96 51//51 55//55
f 99//99 49//49 56//56
f 102//102 47//47 57//57
f 105//105 59//59 58//58
f 108//108 61//61 60//60
f 111//111 63//63 62//62
f 114//114 65//65 64//64
f 117//117 67//67 66//66
f 119//119 58//58 68//68
f 121//121 60//60 69//69
f 123//123 62//62 70//70
f 125//125 64//64 71//71
f 127//127 66//66 72//72
f 74//74 11//11 46//46
f 77//77 8//8 48//48
f 80//80 20//20 50//50
f 83//83 17//17 52//52
f 86//86 14//14 44//44
f 89//89 68//68 42//42
f 92//92 69//69 30//30
f 95//95 70//70 33//33
f 98//98 71//71 36//36
f 101//101 72//72 39//39
f 104//104 29//29 61//61
f 107//107 32//32 63//63
f 110//110 35//35 65//65
f 113//113 38//38 67//67
f 116//116 41//41 59//59
f 118//118 53//53 12//12
f 120//120 54//54 15//15
f 122//122 55//55 18//18
f 124//124 56//56 21//21
f 126//126 57//57 9//9
f 129//129 75//75 74//74
f 131//131 78//78 77//77
f 133//133 81//81 80//80
f 135//135 84//84 83//83
f 137//137 87//87 86//86
f 138//138 90//90 89//89
f 139//139 93//93 92//92
f 140//140 96//96 95//95
f 141//141 99//99 98//98
f 142//142 102//102 101//101
f 144//144 105//105 104//104
f 146//146 108//108 107//107
f 148//148 111//111 110//110
f 150//150 114//114 113//113
f 152//152 117//117 116//116
f 153//153 119//119 118//118
f 154//154 121//121 120//120
f 155//155 123//123 122//122
f 156//156 125//125 124//124
f 157//157 127//127 126//126
