# Created by Open3D 
# object name: part_050
# number of vertices: 162
# number of triangles: 320
v -0.497587 4.85705 0.830905
vn -0.876572 0.481157 0.010464
v -0.506962 4.83939 0.814064
vn -0.888865 0.456626 -0.0375625
v -0.507318 4.83845 0.84205
vn -0.894992 0.445415 0.0243823
v -0.49693 4.85618 0.868473
vn -0.875943 0.480582 0.0420152
v -0.490496 4.86909 0.842266
vn -0.847261 0.530592 0.0249114
v -0.49093 4.86859 0.81427
vn -0.859817 0.509196 -0.0378732
v -0.455177 4.82538 2.01625
vn -0.874162 0.479355 0.0778417
v -0.465715 4.80737 2.00485
vn -0.893596 0.444373 0.0633891
v -0.46336 4.80682 2.03275
vn -0.883041 0.452274 0.125244
v -0.485299 4.81973 1.42332
vn -0.600644 -0.799517 0.000124965
v -0.504223 4.834 0.870919
vn -0.552126 -0.833755 -0.0030729
v -0.482577 4.81796 1.42318
vn -0.489257 -0.87212 -0.00580047
v -0.462279 4.81257 0.79917
vn -0.482547 -0.871572 -0.0866638
v -0.461983 4.81382 0.791486
vn -0.298336 -0.467263 -0.832263
v -0.420362 4.78999 0.796193
vn -0.457071 -0.877492 -0.145233
v -0.444229 4.84545 0.799403
vn 0.476788 0.875873 -0.0742992
v -0.483365 4.86744 0.813241
vn 0.476075 0.878997 -0.0267698
v -0.403739 4.82375 0.809225
vn 0.483477 0.874936 -0.027146
v -0.470739 4.85751 1.30114
vn 0.352065 0.935893 0.012413
v -0.448966 4.84053 1.95003
vn 0.167987 0.985573 0.0206296
v -0.445731 4.83903 1.97589
vn 0.407442 0.913173 0.0102771
v -0.361106 4.77377 2.01151
vn 0.876572 -0.481157 -0.0104643
v -0.371077 4.75619 2.0281
vn 0.862188 -0.505219 0.0372192
v -0.371512 4.75569 2.0001
vn 0.856393 -0.515725 -0.0248779
v -0.361972 4.77426 1.97394
vn 0.875943 -0.480582 -0.0420153
v -0.354689 4.78633 2.00032
vn 0.902633 -0.42973 -0.0242005
v -0.355045 4.78539 2.0283
vn 0.890945 -0.452496 0.0382742
v -0.395649 4.77055 1.4188
vn -0.352084 -0.935886 -0.0124122
v -0.376752 4.75623 1.97121
vn -0.407013 -0.913375 -0.00929866
v -0.398605 4.77189 1.41894
vn -0.47316 -0.880952 -0.00661237
v -0.403515 4.80544 0.826161
vn 0.874162 -0.479355 -0.0778412
v -0.413115 4.78676 0.837298
vn 0.854993 -0.51469 -0.0638854
v -0.41468 4.78876 0.809409
vn 0.856362 -0.50087 -0.12559
v -0.381088 4.80832 1.29662
vn 0.600622 0.799533 -0.000123712
v -0.394461 4.8181 0.892575
vn 0.744507 0.667552 -0.00915672
v -0.39731 4.8203 0.866727
vn 0.552602 0.833444 0.00180857
v -0.399728 4.81221 2.0432
vn 0.482547 0.871572 0.0866632
v -0.360084 4.79115 2.02937
vn 0.485849 0.873165 0.0391771
v -0.439711 4.83483 2.03338
vn 0.478448 0.877225 0.0395476
v -0.417779 4.77933 2.04297
vn -0.476788 -0.875873 0.0742996
v -0.416932 4.78017 2.05066
vn -0.239029 -0.511558 0.825333
v -0.459352 4.80254 2.04595
vn -0.495812 -0.858193 0.132948
v -0.501923 4.83363 0.813002
vn -0.485849 -0.873164 -0.0391779
v -0.503915 4.83583 0.800408
vn -0.505672 -0.850827 -0.142791
v -0.467547 4.80669 1.94979
vn -0.742822 -0.669428 0.00901635
v -0.505214 4.83482 0.896985
vn -0.742837 -0.66942 0.00836068
v -0.448893 4.83802 2.00507
vn -0.845857 0.529557 0.063993
v -0.457207 4.82651 1.97874
vn -0.875785 0.480472 0.04634
v -0.485256 4.86855 0.871163
vn 0.406443 0.91363 0.00918024
v -0.486634 4.86866 0.897224
vn 0.163458 0.986344 0.0201512
v -0.445076 4.84461 0.791704
vn 0.308891 0.628635 -0.713725
v -0.486208 4.86808 0.800636
vn 0.447202 0.884861 -0.130502
v -0.464698 4.80448 1.97564
vn -0.552088 -0.833783 -0.00198089
v -0.422297 4.78995 0.808985
vn -0.478449 -0.877225 -0.0395485
v -0.402655 4.82224 0.796422
vn 0.495812 0.858193 -0.132948
v -0.467837 4.8562 1.29948
vn 0.473164 0.880949 0.00661217
v -0.447328 4.83602 2.03296
vn -0.853943 0.504811 0.126284
v -0.378642 4.75734 2.02913
vn -0.476075 -0.878997 0.0267695
v -0.375799 4.7567 2.04173
vn -0.447202 -0.884861 0.130502
v -0.413041 4.78425 0.892336
vn -0.16595 -0.985916 -0.0207368
v -0.375374 4.75612 1.94514
vn -0.165955 -0.985929 -0.020081
v -0.396292 4.81741 0.837515
vn 0.901235 -0.428685 -0.0632789
v -0.401695 4.80393 0.86367
vn 0.875785 -0.480472 -0.0463399
v -0.357785 4.79078 1.97145
vn 0.551765 0.833994 0.00299713
v -0.356794 4.78996 1.94538
vn 0.74144 0.670967 -0.0082948
v -0.400025 4.81097 2.05088
vn 0.360267 0.590248 0.722368
v -0.358092 4.78896 2.04196
vn 0.505672 0.850826 0.142795
v -0.458269 4.80103 2.03314
vn -0.483477 -0.874936 0.0271453
v -0.416277 4.78575 0.866483
vn -0.407051 -0.913346 -0.0103902
v -0.398648 4.81796 0.809616
vn 0.885073 -0.448107 -0.125881
v -0.383865 4.81013 1.29525
vn 0.489259 0.872119 0.00580036
v -0.441645 4.8348 2.04618
vn 0.457071 0.877492 0.145235
v -0.504031 4.83431 0.833493
vn -0.494161 -0.869211 -0.0166421
v -0.506364 4.83588 0.843102
vn -0.698042 -0.716022 -0.00702725
v -0.5058 4.83611 0.814425
vn -0.647867 -0.760799 -0.0381159
v -0.466677 4.80669 1.98543
vn -0.965414 -0.25898 0.0300723
v -0.468133 4.80906 1.95048
vn -0.894511 0.444842 0.0443313
v -0.487065 4.82176 1.42344
vn -0.968632 -0.246912 0.0280578
v -0.448716 4.83941 1.98566
vn -0.301706 0.95263 0.0383351
v -0.473188 4.85775 1.307
vn -0.311812 0.949441 0.0365275
v -0.451291 4.83974 1.9507
vn -0.844069 0.534348 0.0449331
v -0.485185 4.86863 0.833736
vn 0.468146 0.883641 -0.00422785
v -0.487547 4.86936 0.814661
vn 0.294278 0.955367 -0.0259656
v -0.487821 4.86965 0.843341
vn 0.22941 0.973317 0.0049364
v -0.451849 4.8325 0.78917
vn -0.0357421 0.0266965 -0.999004
v -0.503353 4.83752 0.794318
vn -0.279004 -0.00953018 -0.960243
v -0.487303 4.86676 0.794525
vn -0.124174 0.26909 -0.955077
v -0.461833 4.80279 2.01292
vn -0.493372 -0.869801 0.00550018
v -0.462232 4.80357 2.03213
vn -0.644971 -0.762959 0.0436544
v -0.464844 4.80487 2.0036
vn -0.697131 -0.716701 0.0186575
v -0.41902 4.78767 0.829205
vn -0.468935 -0.883051 -0.0179148
v -0.420507 4.78786 0.86606
vn -0.479589 -0.877467 -0.00684396
v -0.461679 4.81098 0.828383
vn -0.481589 -0.876232 -0.0170079
v -0.399983 4.82005 0.800263
vn 0.955226 -0.137777 -0.261841
v -0.406689 4.80758 0.797051
vn 0.840537 -0.459418 -0.28711
v -0.403654 4.82087 0.790305
vn 0.218941 0.0808437 -0.972383
v -0.425831 4.83325 1.29688
vn 0.481233 0.876571 0.00620649
v -0.401354 4.82274 0.866307
vn 0.482873 0.875673 0.00542167
v -0.481071 4.86648 0.870328
vn 0.479539 0.877503 0.00558952
v -0.444908 4.83591 2.04233
vn -0.630602 0.729088 0.266029
v -0.443979 4.83682 2.03237
vn 0.297223 0.953176 0.0558011
v -0.446774 4.83774 2.02295
vn -0.209215 0.974888 0.0763089
v -0.376822 4.75615 2.00863
vn -0.468145 -0.883641 0.00422767
v -0.374187 4.75513 1.99903
vn -0.229408 -0.973318 -0.004936
v -0.374461 4.75542 2.02771
vn -0.294275 -0.955368 0.0259655
v -0.413291 4.78538 0.856707
vn 0.299918 -0.953181 -0.0386539
v -0.410717 4.78504 0.891673
vn 0.855767 -0.515415 -0.0448311
v -0.392994 4.77015 1.4187
vn 0.311812 -0.949441 -0.0365276
v -0.395331 4.81809 0.856938
vn 0.964704 0.261565 -0.0305041
v -0.379117 4.80614 1.30225
vn 0.968631 0.246914 -0.0280577
v -0.393875 4.81572 0.89189
vn 0.901038 -0.43148 -0.0442275
v -0.357977 4.79048 2.00888
vn 0.494161 0.869211 0.0166418
v -0.356208 4.78867 2.02794
vn 0.647868 0.760799 0.0381154
v -0.355643 4.78891 1.99927
vn 0.698042 0.716023 0.00702701
v -0.406623 4.79872 2.05324
vn 0.0357429 -0.0266951 0.999004
v -0.374705 4.75802 2.04784
vn 0.136 -0.250947 0.958399
v -0.358655 4.78726 2.04805
vn 0.287971 0.0292779 0.957192
v -0.460654 4.80204 1.97606
vn -0.482872 -0.875673 -0.00556905
v -0.419269 4.7793 2.01374
vn -0.480817 -0.876809 0.00459134
v -0.418028 4.78796 0.809998
vn -0.297216 -0.953178 -0.0558022
v -0.415707 4.78614 0.838529
vn -0.230285 -0.972642 -0.0306172
v -0.399775 4.82121 0.810234
vn 0.644973 0.762958 -0.0436549
v -0.397561 4.81924 0.81965
vn 0.935245 0.347613 -0.0669464
v -0.441501 4.83693 1.97631
vn 0.479589 0.877467 0.00674784
v -0.361784 4.79319 1.97229
vn 0.482906 0.875647 0.00658032
v -0.45184 4.82353 2.04536
vn -0.840537 0.459417 0.287111
v -0.442303 4.83315 2.05227
vn -0.055136 0.21752 0.974497
v -0.506302 4.83781 0.804541
vn -0.950852 0.242898 -0.192043
v -0.507332 4.83758 0.824067
vn -0.938314 -0.345294 -0.0184305
v -0.506891 4.83673 0.861428
vn -0.965582 -0.258878 0.0251764
v -0.505843 4.83723 0.896471
vn -0.894543 0.444865 0.0434528
v -0.477039 4.84184 1.42362
vn -0.875866 0.480528 0.0441777
v -0.489001 4.86791 0.896688
vn -0.84803 0.528119 0.0439937
v -0.488931 4.86944 0.86166
vn -0.297552 0.954129 0.033164
v -0.48966 4.86977 0.824295
vn -0.212331 0.977156 -0.00907071
v -0.489186 4.86899 0.804762
vn -0.646615 0.74102 -0.18105
v -0.49634 4.85677 0.801573
vn -0.858016 0.472473 -0.201438
v -0.464446 4.80555 2.02272
vn -0.935245 -0.347612 0.0669464
v -0.500224 4.83159 0.870081
vn -0.482911 -0.875644 -0.00667637
v -0.419705 4.79163 0.790099
vn 0.0667299 -0.199214 -0.977681
v -0.442739 4.84548 0.828627
vn 0.480816 0.876809 -0.00459133
v -0.446301 4.83864 2.00384
vn 0.230286 0.972641 0.0306171
v -0.372821 4.7558 2.03761
vn 0.714235 -0.673906 0.188994
v -0.372348 4.75502 2.01807
vn 0.212322 -0.977158 0.00907127
v -0.373076 4.75534 1.98071
vn 0.300066 -0.953321 -0.0337589
v -0.373006 4.75687 1.94568
vn 0.8558 -0.515436 -0.0439525
v -0.381433 4.78939 1.4188
vn 0.875866 -0.480528 -0.0441777
v -0.356164 4.78755 1.9459
vn 0.904236 -0.424837 -0.0432498
v -0.355116 4.78805 1.98094
vn 0.966048 0.257092 -0.0256092
v -0.354676 4.78721 2.0183
vn 0.938313 0.345295 0.0184304
v -0.355705 4.78697 2.03783
vn 0.971221 -0.149726 0.185233
v -0.362188 4.77435 2.04084
vn 0.858016 -0.472473 0.201438
v -0.380937 4.7583 1.97204
vn -0.479549 -0.877496 -0.00573664
v -0.415233 4.78705 0.819422
vn 0.209218 -0.974887 -0.0763092
v -0.397164 4.81992 0.838769
vn 0.697134 0.716698 -0.0186579
v -0.400329 4.8138 2.01399
vn 0.481589 0.876232 0.0170079
v -0.458353 4.80391 2.05206
vn -0.209731 -0.0612654 0.975838
v -0.462025 4.80474 2.04211
vn -0.934245 0.230491 0.272139
v -0.440628 4.79486 1.42106
vn -0.481231 -0.876572 -0.00620658
v -0.417099 4.78887 0.800042
vn 0.697618 -0.661513 -0.27519
v -0.400174 4.82199 0.829448
vn 0.493372 0.869801 -0.00550002
v -0.442988 4.83712 2.01316
vn 0.468936 0.883051 0.017915
f 1//1 2//2 3//3
f 1//1 3//3 4//4
f 1//1 4//4 5//5
f 1//1 5//5 6//6
f 1//1 6//6 2//2
f 7//7 8//8 9//9
f 10//10 11//11 12//12
f 13//13 14//14 15//15
f 16//16 17//17 18//18
f 19//19 20//20 21//21
f 22//22 23//23 24//24
f 22//22 24//24 25//25
f 22//22 25//25 26//26
f 22//22 26//26 27//27
f 22//22 27//27 23//23
f 28//28 29//29 30//30
f 31//31 32//32 33//33
f 34//34 35//35 36//36
f 37//37 38//38 39//39
f 40//40 41//41 42//42
f 13//13 43//43 44//44
f 10//10 45//45 46//46
f 7//7 47//47 48//48
f 19//19 49//49 50//50
f 16//16 51//51 52//52
f 10//10 53//53 45//45
f 13//13 54//54 43//43
f 16//16 55//55 51//51
f 19//19 56//56 49//49
f 7//7 57//57 47//47
f 40//40 58//58 59//59
f 28//28 60//60 61//61
f 31//31 62//62 63//63
f 34//34 64//64 65//65
f 37//37 66//66 67//67
f 40//40 68//68 58//58
f 28//28 69//69 60//60
f 31//31 70//70 62//62
f 34//34 71//71 64//64
f 37//37 72//72 66//66
f 10//10 46//46 11//11
f 7//7 48//48 8//8
f 19//19 50//50 20//20
f 16//16 52//52 17//17
f 13//13 44//44 14//14
f 40//40 42//42 68//68
f 28//28 30//30 69//69
f 31//31 33//33 70//70
f 34//34 36//36 71//71
f 37//37 39//39 72//72
f 28//28 61//61 29//29
f 31//31 63//63 32//32
f 34//34 65//65 35//35
f 37//37 67//67 38//38
f 40//40 59//59 41//41
f 10//10 12//12 53//53
f 13//13 15//15 54//54
f 16//16 18//18 55//55
f 19//19 21//21 56//56
f 7//7 9//9 57//57
f 73//73 74//74 75//75
f 76//76 77//77 78//78
f 79//79 80//80 81//81
f 82//82 83//83 84//84
f 85//85 86//86 87//87
f 88//88 89//89 90//90
f 91//91 92//92 93//93
f 94//94 95//95 96//96
f 97//97 98//98 99//99
f 100//100 101//101 102//102
f 103//103 104//104 105//105
f 106//106 107//107 108//108
f 109//109 110//110 111//111
f 112//112 113//113 114//114
f 115//115 116//116 117//117
f 88//88 118//118 119//119
f 91//91 120//120 121//121
f 94//94 122//122 123//123
f 97//97 124//124 125//125
f 100//100 126//126 127//127
f 128//128 129//129 2//2
f 130//130 131//131 3//3
f 132//132 133//133 4//4
f 134//134 135//135 5//5
f 136//136 137//137 6//6
f 76//76 138//138 8//8
f 73//73 139//139 11//11
f 85//85 140//140 14//14
f 82//82 141//141 17//17
f 79//79 142//142 20//20
f 143//143 144//144 23//23
f 145//145 146//146 24//24
f 147//147 148//148 25//25
f 149//149 150//150 26//26
f 151//151 152//152 27//27
f 103//103 153//153 29//29
f 106//106 154//154 32//32
f 109//109 155//155 35//35
f 112//112 156//156 38//38
f 115//115 157//157 41//41
f 73//73 75//75 43//43
f 76//76 78//78 45//45
f 79//79 81//81 47//47
f 82//82 84//84 49//49
f 85//85 87//87 51//51
f 88//88 90//90 53//53
f 91//91 93//93 54//54
f 94//94 96//96 55//55
f 97//97 99//99 56//56
f 100//100 102//102 57//57
f 103//103 105//105 58//58
f 106//106 108//108 60//60
f 109//109 111//111 62//62
f 112//112 114//114 64//64
f 115//115 117//117 66//66
f 88//88 119//119 68//68
f 91//91 121//121 69//69
f 94//94 123//123 70//70
f 97//97 125//125 71//71
f 100//100 127//127 72//72
f 130//130 74//74 46//46
f 132//132 77//77 48//48
f 134//134 80//80 50//50
f 136//136 83//83 52//52
f 128//128 86//86 44//44
f 158//158 89//89 42//42
f 159//159 92//92 30//30
f 160//160 95//95 33//33
f 161//161 98//98 36//36
f 162//162 101//101 39//39
f 145//145 104//104 61//61
f 147//147 107//107 63//63
f 149//149 110//110 65//65
f 151//151 113//113 67//67
f 143//143 116//116 59//59
f 159//159 118//118 12//12
f 160//160 120//120 15//15
f 161//161 122//122 18//18
f 162//162 124//124 21//21
f 158//158 126//126 9//9
f 130//130 129//129 74//74
f 132//132 131//131 77//77
f 134//134 133//133 80//80
f 136//136 135//135 83//83
f 128//128 137//137 86//86
f 158//158 138//138 89//89
f 159//159 139//139 92//92
f 160//160 140//140 95//95
f 161//161 141//141 98//98
f 162//162 142//142 101//101
f 145//145 144//144 104//104
f 147//147 146//146 107//107
f 149//149 148//148 110//110
f 151//151 150//150 113//113
f 143//143 152//152 116//116
f 159//159 153//153 118//118
f 160//160 154//154 120//120
f 161//161 155//155 122//122
f 162//162 156//156 124//124
f 158//158 157//157 126//126
f 130//130 3//3 129//129
f 132//132 4//4 131//131
f 134//134 5//5 133//133
f 136//136 6//6 135//135
f 128//128 2//2 137//137
f 158//158 9//9 138//138
f 159//159 12//12 139//139
f 160//160 15//15 140//140
f 161//161 18//18 141//141
f 162//162 21//21 142//142
f 145//145 24//24 144//144
f 147//147 25//25 146//146
f 149//149 26//26 148//148
f 151//151 27//27 150//150
f 143//143 23//23 152//152
f 159//159 30//30 153//153
f 160//160 33//33 154//154
f 161//161 36//36 155//155
f 162//162 39//39 156//156
f 158//158 42//42 157//157
f 128//128 44//44 75//75
f 130//130 46//46 78//78
f 132//132 48//48 81//81
f 134//134 50//50 84//84
f 136//136 52//52 87//87
f 76//76 45//45 90//90
f 73//73 43//43 93//93
f 85//85 51//51 96//96
f 82//82 49//49 99//99
f 79//79 47//47 102//102
f 143//143 59//59 105//105
f 145//145 61//61 108//108
f 147//147 63//63 111//111
f 149//149 65//65 114//114
f 151//151 67//67 117//117
f 103//103 58//58 119//119
f 106//106 60//60 121//121
f 109//109 62//62 123//123
f 112//112 64//64 125//125
f 115//115 66//66 127//127
f 73//73 11//11 74//74
f 76//76 8//8 77//77
f 79//79 20//20 80//80
f 82//82 17//17 83//83
f 85//85 14//14 86//86
f 88//88 68//68 89//89
f 91//91 69//69 92//92
f 94//94 70//70 95//95
f 97//97 71//71 98//98
f 100//100 72//72 101//101
f 103//103 29//29 104//104
f 106//106 32//32 107//107
f 109//109 35//35 110//110
f 112//112 38//38 113//113
f 115//115 41//41 116//116
f 88//88 53//53 118//118
f 91//91 54//54 120//120
f 94//94 55//55 122//122
f 97//97 56//56 124//124
f 100//100 57//57 126//126
f 128//128 75//75 129//129
f 130//130 78//78 131//131
f 132//132 81//81 133//133
f 134//134 84//84 135//135
f 136//136 87//87 137//137
f 76//76 90//90 138//138
f 73//73 93//93 139//139
f 85//85 96//96 140//140
f 82//82 99//99 141//141
f 79//79 102//102 142//142
f 143//143 105//105 144//144
f 145//145 108//108 146//146
f 147//147 111//111 148//148
f 149//149 114//114 150//150
f 151//151 117//117 152//152
f 103//103 119//119 153//153
f 106//106 121//121 154//154
f 109//109 123//123 155//155
f 112//112 125//125 156//156
f 115//115 127//127 157//157
f 129//129 3//3 2//2
f 131//131 4//4 3//3
f 133//133 5//5 4//4
f 135//135 6//6 5//5
f 137//137 2//2 6//6
f 138//138 9//9 8//8
f 139//139 12//12 11//11
f 140//140 15//15 14//14
f 141//141 18//18 17//17
f 142//142 21//21 20//20
f 144//144 24//24 23//23
f 146//146 25//25 24//24
f 148//148 26//26 25//25
f 150//150 27//27 26//26
f 152//152 23//23 27//27
f 153//153 30//30 29//29
f 154//154 33//33 32//32
f 155//155 36//36 35//35
f 156//156 39//39 38//38
f 157//157 42//42 41//41
f 75//75 44//44 43//43
f 78//78 46//46 45//45
f 81//81 48//48 47//47
f 84//84 50//50 49//49
f 87//87 52//52 51//51
f 90//90 45//45 53//53
f 93//93 43//43 54//54
f 96//96 51//51 55//55
f 99//99 49//49 56//56
f 102//102 47//47 57//57
f 105//105 59//59 58//58
f 108//108 61//61 60//60
f 111//111 63//63 62//62
f 114//114 65//65 64//64
f 117//117 67//67 66//66
f 119//119 58//58 68//68
f 121//121 60//60 69//69
f 123//123 62//62 70//70
f 125//125 64//64 71//71
f 127//127 66//66 72//72
f 74//74 11//11 46//46
f 77//77 8//8 48//48
f 80//80 20//20 50//50
f 83//83 17//17 52//52
f 86//86 14//14 44//44
f 89//89 68//68 42//42
f 92//92 69//69 30//30
f 95//95 70//70 33//33
f 98//98 71//71 36//36
f 101//101 72//72 39//39
f 104//104 29//29 61//61
f 107//107 32//32 63//63
f 110//110 35//35 65//65
f 113//113 38//38 67//67
f 116//116 41//41 59//59
f 118//118 53//53 12//12
f 120//120 54//54 15//15
f 122//122 55//55 18//18
f 124//124 56//56 21//21
f 126//126 57//57 9//9
f 129//129 75//75 74//74
f 131//131 78//78 77//77
f 133//133 81//81 80//80
f 135//135 84//84 83//83
f 137//137 87//87 86//86
f 138//138 90//90 89//89
f 139//139 93//93 92//92
f 140//140 96//96 95//95
f 141//141 99//99 98//98
f 142//142 102//102 101//101
f 144//144 105//105 104//104
f 146//146 108//108 107//107
f 148//148 111//111 110//110
f 150//150 114//114 113//113
f 152//152 117//117 116//116
f 153//153 119//119 118//118
f 154//154 121//121 120//120
f 155//155 123//123 122//122
f 156//156 125//125 124//124
f 157//157 127//127 126//126
