# Created by Open3D 
# object name: part_036
# number of vertices: 162
# number of triangles: 320
v -1.55893 4.74479 0.936373
vn 0.310457 0.26945 -0.911599
v -1.53412 4.74057 0.948525
vn 0.664914 0.310761 -0.679203
v -1.55269 4.72204 0.935076
vn 0.455824 -0.114285 -0.882702
v -1.58501 4.72021 0.92675
vn 0.0806664 0.0554505 -0.995198
v -1.57641 4.74771 0.934583
vn -0.16137 0.527986 -0.833781
v -1.55673 4.76504 0.948055
vn 0.350789 0.646626 -0.677364
v -2.40093 3.96493 0.851724
vn -0.191024 -0.195026 -0.962016
v -2.37868 3.95701 0.852037
vn 0.176122 -0.37334 -0.910823
v -2.39981 3.93877 0.861495
vn -0.282069 -0.566333 -0.774406
v -1.96592 4.33683 0.920762
vn 0.679491 -0.733684 0.000468171
v -1.57418 4.69982 0.970384
vn 0.679582 -0.733573 0.00623424
v -1.96791 4.3353 0.95466
vn 0.678741 -0.734259 0.013223
v -1.5589 4.72541 1.50028
vn 0.737103 -0.67548 0.0201573
v -1.55424 4.73135 1.50082
vn 0.983666 0.166125 0.0693021
v -1.59031 4.70644 1.99907
vn 0.775697 -0.630526 0.0270561
v -1.58435 4.75296 1.49975
vn -0.615576 0.788037 -0.00794001
v -1.56282 4.76444 1.02361
vn -0.653221 0.757073 -0.0119737
v -1.62341 4.72668 1.97419
vn -0.653273 0.75704 -0.01117
v -1.90567 4.44628 0.92895
vn -0.677753 0.734766 -0.0277258
v -2.36535 4.01972 0.867567
vn -0.676457 0.734978 -0.047049
v -2.38567 4.00194 0.890937
vn -0.678505 0.734266 -0.0219949
v -2.47252 3.92032 1.97474
vn -0.310458 -0.269444 0.9116
v -2.47004 3.89502 1.96316
vn -0.375112 -0.62431 0.685221
v -2.45036 3.91234 1.97663
vn 0.0611109 -0.445006 0.89344
v -2.44615 3.94458 1.98437
vn -0.0806678 -0.0554489 0.995198
v -2.47409 3.93801 1.97614
vn -0.529488 0.219481 0.819433
v -2.49265 3.91948 1.96269
vn -0.685094 -0.284937 0.670416
v -2.03414 4.29432 1.99101
vn 0.677753 -0.734766 0.0277255
v -2.42584 3.93129 1.94139
vn 0.677747 -0.734967 0.0219585
v -2.03182 4.29549 1.95712
vn 0.67863 -0.734328 0.0149723
v -1.63052 4.70018 2.05939
vn 0.191022 0.195029 0.962016
v -1.62437 4.67737 2.05967
vn 0.340811 -0.185951 0.921559
v -1.60435 4.69682 2.05019
vn 0.571869 0.252788 0.780425
v -1.97389 4.40377 1.99919
vn -0.679491 0.733684 -0.00046859
v -1.68763 4.66868 2.0431
vn -0.680149 0.732818 0.0193628
v -1.66786 4.68706 2.01972
vn -0.678648 0.734439 -0.00608181
v -2.46788 3.93464 1.41093
vn -0.737103 0.67548 -0.0201573
v -2.49013 3.92393 1.88706
vn -0.703354 0.710655 -0.0162048
v -2.42954 3.96168 0.936479
vn -0.703305 0.710685 -0.0170087
v -2.44242 3.90709 1.41146
vn 0.615579 -0.788035 0.00794022
v -2.44869 3.90291 1.41089
vn -0.241737 -0.968844 -0.0538909
v -2.41149 3.92659 0.912667
vn 0.567876 -0.823114 0.000853668
v -1.53664 4.73612 1.02416
vn 0.703354 -0.710655 0.016205
v -1.52673 4.74606 1.00161
vn 0.776033 -0.630316 0.0217799
v -2.33914 3.99137 0.868111
vn 0.680162 -0.732813 -0.0190932
v -1.59129 4.68403 0.943295
vn 0.680686 -0.732328 -0.0190395
v -2.4024 3.98268 0.851544
vn -0.422431 0.286188 -0.860028
v -2.37368 3.98974 0.847463
vn 0.0464305 0.0237425 -0.998639
v -1.60093 4.72876 0.969828
vn -0.677633 0.735071 -0.0220095
v -1.61749 4.71239 0.942751
vn -0.675888 0.735473 -0.0474829
v -1.57808 4.75714 1.50032
vn 0.0692272 0.99663 0.0439979
v -1.5517 4.77308 1.0011
vn -0.567531 0.823329 -0.0061284
v -2.35892 3.97299 0.891493
vn 0.678754 -0.73434 0.00615566
v -1.59724 4.69837 1.97473
vn 0.703303 -0.710687 0.0170083
v -1.61528 4.73346 1.99855
vn -0.567866 0.823121 -0.000852067
v -1.90692 4.44611 0.962949
vn -0.67863 0.734328 -0.0149718
v -2.42242 3.96323 0.861025
vn -0.593128 -0.227636 -0.772257
v -2.46396 3.89561 1.8876
vn 0.65322 -0.757074 0.0119734
v -2.47507 3.88697 1.91012
vn 0.56753 -0.82333 0.00612815
v -1.66143 4.64033 2.04365
vn 0.676459 -0.734962 0.0472718
v -2.40928 3.94767 1.96846
vn 0.675935 -0.735447 0.0472156
v -1.6481 4.70304 2.05918
vn -0.268425 0.461275 0.845679
v -1.65748 4.67505 2.06366
vn -0.0464328 -0.0237405 0.998639
v -2.45259 3.96024 1.94083
vn -0.679507 0.733642 -0.00627089
v -2.43549 3.97602 1.96792
vn -0.680656 0.732362 0.018816
v -2.47253 3.9287 1.4104
vn -0.997962 0.00818288 -0.06329
v -2.50004 3.91399 1.9096
vn -0.776032 0.630318 -0.0217801
v -2.40336 3.93337 0.937023
vn 0.653272 -0.757041 0.0111698
v -1.64111 4.65811 2.02028
vn 0.678574 -0.734201 0.0220434
v -1.62696 4.72128 2.04972
vn 0.258831 0.589325 0.765312
v -1.97082 4.40629 1.96541
vn -0.678741 0.734259 -0.0132235
v -2.43646 3.95361 0.912148
vn -0.775698 0.630524 -0.0270562
v -1.54885 4.72379 0.990566
vn 0.687091 -0.726444 0.0135679
v -1.55364 4.71913 0.956186
vn 0.69012 -0.723608 -0.0112351
v -1.53462 4.73749 0.975449
vn 0.710671 -0.703521 -0.00217683
v -2.36432 3.96876 0.857039
vn 0.678979 -0.729206 -0.0851222
v -2.33967 3.993 0.850411
vn 0.319445 -0.25222 -0.913422
v -1.96487 4.33856 0.894364
vn 0.681632 -0.726466 -0.0873214
v -2.38965 3.99617 0.856513
vn -0.671251 0.732489 -0.113502
v -1.90744 4.44286 0.902168
vn -0.668711 0.734517 -0.115369
v -2.36342 4.0187 0.849918
vn -0.322306 0.433273 -0.841661
v -1.57543 4.75254 0.990014
vn -0.67019 0.742046 -0.0146259
v -1.56037 4.76534 0.974914
vn -0.645187 0.763422 -0.030342
v -1.57979 4.74742 0.955642
vn -0.666648 0.744329 -0.0394189
v -1.56692 4.74855 1.50069
vn 0.731674 0.677675 0.073557
v -1.52353 4.75136 1.00146
vn 0.824591 0.562928 0.056238
v -1.54616 4.77585 1.00099
vn 0.60794 0.792299 0.0516814
v -2.38665 3.94782 0.90634
vn 0.670365 -0.741936 0.0118862
v -2.39962 3.93633 0.888489
vn 0.647665 -0.761878 -0.00851
v -2.37799 3.95561 0.873311
vn 0.670004 -0.742239 -0.0132579
v -1.61354 4.68348 2.00543
vn 0.686917 -0.726553 0.016307
v -1.6374 4.66034 1.97121
vn 0.679092 -0.733913 0.0143204
v -1.57902 4.70551 1.49821
vn 0.686802 -0.726692 0.0149168
v -1.61985 4.72904 2.032
vn -0.157112 0.958632 0.237361
v -1.60819 4.72058 2.0351
vn 0.665029 0.622587 0.41246
v -1.60982 4.73619 1.99957
vn 0.605587 0.790836 0.0885558
v -1.93858 4.42657 1.46421
vn -0.678686 0.734294 -0.0140975
v -1.66441 4.68956 1.97065
vn -0.678168 0.734776 -0.0138631
v -1.60375 4.72736 1.01899
vn -0.678145 0.734791 -0.0142256
v -2.43106 3.95712 0.878716
vn -0.938559 0.226818 -0.260117
v -2.42536 3.96418 0.887954
vn -0.708194 0.705065 -0.0366775
v -2.41653 3.97103 0.862815
vn -0.712505 0.694438 -0.100465
v -2.45134 3.90751 1.9212
vn 0.670192 -0.742044 0.0146257
v -2.44698 3.91263 1.95557
vn 0.666647 -0.744331 0.0394203
v -2.46641 3.89471 1.9363
vn 0.645185 -0.763424 0.030342
v -1.63712 4.66388 2.0547
vn 0.671693 -0.732134 0.113177
v -1.66335 4.64135 2.0613
vn 0.208749 -0.319252 0.924393
v -2.03645 4.29395 2.01738
vn 0.668711 -0.734517 0.115371
v -1.66245 4.69129 2.05417
vn -0.678418 0.729784 0.0846454
v -1.97903 4.39826 2.02518
vn -0.681632 0.726466 0.0873192
v -1.6871 4.66705 2.0608
vn -0.391834 0.336462 0.856306
v -2.47792 3.93626 1.92065
vn -0.687091 0.726444 -0.0135678
v -2.49215 3.92256 1.93576
vn -0.710667 0.703526 0.0021743
v -2.47313 3.94092 1.95503
vn -0.690121 0.723606 0.011234
v -2.46484 3.91689 1.41042
vn -0.731671 -0.677677 -0.073557
v -2.48061 3.8842 1.91023
vn -0.624955 -0.778921 -0.0520914
v -2.50325 3.90869 1.90976
vn -0.83659 -0.544916 -0.0564308
v -2.36236 3.97049 0.940567
vn 0.678279 -0.734674 0.0138747
v -2.42104 3.92564 1.41356
vn 0.670487 -0.741803 0.0132766
v -1.60142 4.69587 2.02326
vn 0.708194 -0.705064 0.0366776
v -1.62263 4.67614 2.03845
vn 0.686764 -0.725698 0.0414483
v -1.62716 4.72372 2.02272
vn -0.647661 0.761881 0.00851184
v -1.63516 4.71598 2.04788
vn -0.637944 0.76667 0.0724253
v -2.38937 3.99971 0.940005
vn -0.67902 0.733981 -0.0143125
v -2.45004 3.96191 1.89167
vn -0.679043 0.733966 -0.0139519
v -2.42349 3.94478 0.876016
vn -0.66503 -0.622587 -0.412457
v -2.43959 3.94835 0.911169
vn -0.834237 -0.543454 -0.0933047
v -1.52783 4.74522 0.967596
vn 0.980365 -0.0412823 -0.19282
v -1.54015 4.73269 0.948932
vn 0.722984 -0.687905 -0.0638779
v -1.56589 4.70827 0.937307
vn 0.684299 -0.724279 -0.0845818
v -1.59096 4.68646 0.925681
vn 0.325859 -0.246281 -0.912777
v -1.9795 4.35539 0.884891
vn 0.0635661 0.0396071 -0.997191
v -1.61471 4.71215 0.925187
vn -0.281809 0.405027 -0.869791
v -1.59122 4.73567 0.936781
vn -0.665878 0.737597 -0.112059
v -1.56508 4.75965 0.948414
vn -0.627469 0.773196 -0.0919273
v -1.55197 4.77134 0.967094
vn -0.130587 0.975163 -0.178894
v -1.53997 4.76309 0.964838
vn 0.70881 0.649863 -0.274346
v -2.39161 3.94407 0.863333
vn 0.637949 -0.766666 -0.0724158
v -1.57674 4.69814 1.01955
vn 0.679115 -0.733899 0.0139588
v -1.58718 4.7117 2.00004
vn 0.822222 0.561452 0.0933973
v -1.60574 4.73441 1.49765
vn -0.670487 0.741802 -0.0132766
v -2.40414 3.98391 0.872768
vn -0.686765 0.725697 -0.0414471
v -2.47481 3.88871 1.94412
vn -0.0397707 -0.976382 0.212358
v -2.4617 3.9004 1.9628
vn 0.627473 -0.773194 0.091919
v -2.43555 3.92438 1.97443
vn 0.666374 -0.737061 0.112637
v -2.41206 3.9479 1.98603
vn 0.202334 -0.325189 0.92375
v -2.05226 4.31006 2.02622
vn -0.0635676 -0.0396055 0.997191
v -2.43581 3.9736 1.98553
vn -0.428579 0.367046 0.825589
v -2.46088 3.95178 1.97391
vn -0.683904 0.724604 0.0849974
v -2.48662 3.92736 1.96228
vn -0.722981 0.687909 0.0638718
v -2.49895 3.91483 1.94362
vn -0.965094 0.210277 0.156131
v -2.49171 3.90227 1.94627
vn -0.708812 -0.649863 0.274342
v -2.42303 3.93269 1.89223
vn 0.678256 -0.734688 0.0142362
v -1.61024 4.68902 2.0484
vn 0.712504 -0.694438 0.100467
v -1.64878 4.70444 2.0379
vn -0.670006 0.742237 0.0132584
v -2.44775 3.95454 1.413
vn -0.686801 0.726692 -0.0149166
v -2.41696 3.92386 0.911639
vn -0.622586 -0.777445 -0.0892501
v -2.40692 3.93101 0.879218
vn -0.00760665 -0.956345 -0.292141
v -1.99981 4.31534 1.45589
vn 0.678686 -0.734294 0.0140975
v -1.59571 4.70293 2.0325
vn 0.948206 -0.0613134 0.311683
v -1.64012 4.71223 2.00487
vn -0.670368 0.741934 -0.0118867
v -2.41323 3.97657 0.905788
vn -0.686917 0.726553 -0.0163074
f 1//1 2//2 3//3
f 1//1 3//3 4//4
f 1//1 4//4 5//5
f 1//1 5//5 6//6
f 1//1 6//6 2//2
f 7//7 8//8 9//9
f 10//10 11//11 12//12
f 13//13 14//14 15//15
f 16//16 17//17 18//18
f 19//19 20//20 21//21
f 22//22 23//23 24//24
f 22//22 24//24 25//25
f 22//22 25//25 26//26
f 22//22 26//26 27//27
f 22//22 27//27 23//23
f 28//28 29//29 30//30
f 31//31 32//32 33//33
f 34//34 35//35 36//36
f 37//37 38//38 39//39
f 40//40 41//41 42//42
f 13//13 43//43 44//44
f 10//10 45//45 46//46
f 7//7 47//47 48//48
f 19//19 49//49 50//50
f 16//16 51//51 52//52
f 10//10 53//53 45//45
f 13//13 54//54 43//43
f 16//16 55//55 51//51
f 19//19 56//56 49//49
f 7//7 57//57 47//47
f 40//40 58//58 59//59
f 28//28 60//60 61//61
f 31//31 62//62 63//63
f 34//34 64//64 65//65
f 37//37 66//66 67//67
f 40//40 68//68 58//58
f 28//28 69//69 60//60
f 31//31 70//70 62//62
f 34//34 71//71 64//64
f 37//37 72//72 66//66
f 10//10 46//46 11//11
f 7//7 48//48 8//8
f 19//19 50//50 20//20
f 16//16 52//52 17//17
f 13//13 44//44 14//14
f 40//40 42//42 68//68
f 28//28 30//30 69//69
f 31//31 33//33 70//70
f 34//34 36//36 71//71
f 37//37 39//39 72//72
f 28//28 61//61 29//29
f 31//31 63//63 32//32
f 34//34 65//65 35//35
f 37//37 67//67 38//38
f 40//40 59//59 41//41
f 10//10 12//12 53//53
f 13//13 15//15 54//54
f 16//16 18//18 55//55
f 19//19 21//21 56//56
f 7//7 9//9 57//57
f 73//73 74//74 75//75
f 76//76 77//77 78//78
f 79//79 80//80 81//81
f 82//82 83//83 84//84
f 85//85 86//86 87//87
f 88//88 89//89 90//90
f 91//91 92//92 93//93
f 94//94 95//95 96//96
f 97//97 98//98 99//99
f 100//100 101//101 102//102
f 103//103 104//104 105//105
f 106//106 107//107 108//108
f 109//109 110//110 111//111
f 112//112 113//113 114//114
f 115//115 116//116 117//117
f 88//88 118//118 119//119
f 91//91 120//120 121//121
f 94//94 122//122 123//123
f 97//97 124//124 125//125
f 100//100 126//126 127//127
f 128//128 129//129 2//2
f 130//130 131//131 3//3
f 132//132 133//133 4//4
f 134//134 135//135 5//5
f 136//136 137//137 6//6
f 76//76 138//138 8//8
f 73//73 139//139 11//11
f 85//85 140//140 14//14
f 82//82 141//141 17//17
f 79//79 142//142 20//20
f 143//143 144//144 23//23
f 145//145 146//146 24//24
f 147//147 148//148 25//25
f 149//149 150//150 26//26
f 151//151 152//152 27//27
f 103//103 153//153 29//29
f 106//106 154//154 32//32
f 109//109 155//155 35//35
f 112//112 156//156 38//38
f 115//115 157//157 41//41
f 73//73 75//75 43//43
f 76//76 78//78 45//45
f 79//79 81//81 47//47
f 82//82 84//84 49//49
f 85//85 87//87 51//51
f 88//88 90//90 53//53
f 91//91 93//93 54//54
f 94//94 96//96 55//55
f 97//97 99//99 56//56
f 100//100 102//102 57//57
f 103//103 105//105 58//58
f 106//106 108//108 60//60
f 109//109 111//111 62//62
f 112//112 114//114 64//64
f 115//115 117//117 66//66
f 88//88 119//119 68//68
f 91//91 121//121 69//69
f 94//94 123//123 70//70
f 97//97 125//125 71//71
f 100//100 127//127 72//72
f 130//130 74//74 46//46
f 132//132 77//77 48//48
f 134//134 80//80 50//50
f 136//136 83//83 52//52
f 128//128 86//86 44//44
f 158//158 89//89 42//42
f 159//159 92//92 30//30
f 160//160 95//95 33//33
f 161//161 98//98 36//36
f 162//162 101//101 39//39
f 145//145 104//104 61//61
f 147//147 107//107 63//63
f 149//149 110//110 65//65
f 151//151 113//113 67//67
f 143//143 116//116 59//59
f 159//159 118//118 12//12
f 160//160 120//120 15//15
f 161//161 122//122 18//18
f 162//162 124//124 21//21
f 158//158 126//126 9//9
f 130//130 129//129 74//74
f 132//132 131//131 77//77
f 134//134 133//133 80//80
f 136//136 135//135 83//83
f 128//128 137//137 86//86
f 158//158 138//138 89//89
f 159//159 139//139 92//92
f 160//160 140//140 95//95
f 161//161 141//141 98//98
f 162//162 142//142 101//101
f 145//145 144//144 104//104
f 147//147 146//146 107//107
f 149//149 148//148 110//110
f 151//151 150//150 113//113
f 143//143 152//152 116//116
f 159//159 153//153 118//118
f 160//160 154//154 120//120
f 161//161 155//155 122//122
f 162//162 156//156 124//124
f 158//158 157//157 126//126
f 130//130 3//3 129//129
f 132//132 4//4 131//131
f 134//134 5//5 133//133
f 136//136 6//6 135//135
f 128//128 2//2 137//137
f 158//158 9//9 138//138
f 159//159 12//12 139//139
f 160//160 15//15 140//140
f 161//161 18//18 141//141
f 162//162 21//21 142//142
f 145//145 24//24 144//144
f 147//147 25//25 146//146
f 149//149 26//26 148//148
f 151//151 27//27 150//150
f 143//143 23//23 152//152
f 159//159 30//30 153//153
f 160//160 33//33 154//154
f 161//161 36//36 155//155
f 162//162 39//39 156//156
f 158//158 42//42 157//157
f 128//128 44//44 75//75
f 130//130 46//46 78//78
f 132//132 48//48 81//81
f 134//134 50//50 84//84
f 136//136 52//52 87//87
f 76//76 45//45 90//90
f 73//73 43//43 93//93
f 85//85 51//51 96//96
f 82//82 49//49 99//99
f 79//79 47//47 102//102
f 143//143 59//59 105//105
f 145//145 61//61 108//108
f 147//147 63//63 111//111
f 149//149 65//65 114//114
f 151//151 67//67 117//117
f 103//103 58//58 119//119
f 106//106 60//60 121//121
f 109//109 62//62 123//123
f 112//112 64//64 125//125
f 115//115 66//66 127//127
f 73//73 11//11 74//74
f 76//76 8//8 77//77
f 79//79 20//20 80//80
f 82//82 17//17 83//83
f 85//85 14//14 86//86
f 88//88 68//68 89//89
f 91//91 69//69 92//92
f 94//94 70//70 95//95
f 97//97 71//71 98//98
f 100//100 72//72 101//101
f 103//103 29//29 104//104
f 106//106 32//32 107//107
f 109//109 35//35 110//110
f 112//112 38//38 113//113
f 115//115 41//41 116//116
f 88//88 53//53 118//118
f 91//91 54//54 120//120
f 94//94 55//55 122//122
f 97//97 56//56 124//124
f 100//100 57//57 126//126
f 128//128 75//75 129//129
f 130//130 78//78 131//131
f 132//132 81//81 133//133
f 134//134 84//84 135//135
f 136//136 87//87 137//137
f 76//76 90//90 138//138
f 73//73 93//93 139//139
f 85//85 96//96 140//140
f 82//82 99//99 141//141
f 79//79 102//102 142//142
f 143//143 105//105 144//144
f 145//145 108//108 146//146
f 147//147 111//111 148//148
f 149//149 114//114 150//150
f 151//151 117//117 152//152
f 103//103 119//119 153//153
f 106//106 121//121 154//154
f 109//109 123//123 155//155
f 112//112 125//125 156//156
f 115//115 127//127 157//157
f 129//129 3//3 2//2
f 131//131 4//4 3//3
f 133//133 5//5 4//4
f 135//135 6//6 5//5
f 137//137 2//2 6//6
f 138//138 9//9 8//8
f 139//139 12//12 11//11
f 140//140 15//15 14//14
f 141//141 18//18 17//17
f 142//142 21//21 20//20
f 144//144 24//24 23//23
f 146//146 25//25 24//24
f 148//148 26//26 25//25
f 150//150 27//27 26//26
f 152//152 23//23 27//27
f 153//153 30//30 29//29
f 154//154 33//33 32//32
f 155//155 36//36 35//35
f 156//156 39//39 38//38
f 157//157 42//42 41//41
f 75//75 44//44 43//43
f 78//78 46//46 45//45
f 81//81 48//48 47//47
f 84//84 50//50 49//49
f 87//87 52//52 51//51
f 90//90 45//45 53//53
f 93//93 43//43 54//54
f 96//96 51//51 55//55
f 99//99 49//49 56//56
f 102//102 47//47 57//57
f 105//105 59//59 58//58
f 108//108 61//61 60//60
f 111//111 63//63 62//62
f 114//114 65//65 64//64
f 117//117 67//67 66//66
f 119//119 58//58 68//68
f 121//121 60//60 69//69
f 123//123 62//62 70//70
f 125//125 64//64 71//71
f 127//127 66//66 72//72
f 74//74 11//11 46//46
f 77//77 8//8 48//48
f 80//80 20//20 50//50
f 83//83 17//17 52//52
f 86//86 14//14 44//44
f 89//89 68//68 42//42
f 92//92 69//69 30//30
f 95//95 70//70 33//33
f 98//98 71//71 36//36
f 101//101 72//72 39//39
f 104//104 29//29 61//61
f 107//107 32//32 63//63
f 110//110 35//35 65//65
f 113//113 38//38 67//67
f 116//116 41//41 59//59
f 118//118 53//53 12//12
f 120//120 54//54 15//15
f 122//122 55//55 18//18
f 124//124 56//56 21//21
f 126//126 57//57 9//9
f 129//129 75//75 74//74
f 131//131 78//78 77//77
f 133//133 81//81 80//80
f 135//135 84//84 83//83
f 137//137 87//87 86//86
f 138//138 90//90 89//89
f 139//139 93//93 92//92
f 140//140 96//96 95//95
f 141//141 99//99 98//98
f 142//142 102//102 101//101
f 144//144 105//105 104//104
f 146//146 108//108 107//107
f 148//148 111//111 110//110
f 150//150 114//114 113//113
f 152//152 117//117 116//116
f 153//153 119//119 118//118
f 154//154 121//121 120//120
f 155//155 123//123 122//122
f 156//156 125//125 124//124
f 157//157 127//127 126//126
