# Created by Open3D 
# object name: part_006
# number of vertices: 162
# number of triangles: 320
v 1.42987 2.38363 0.212962
vn 0.0816631 -0.115337 -0.989964
v 1.43595 2.34336 0.224664
vn -0.0208432 -0.516972 -0.855749
v 1.39912 2.38899 0.214139
vn -0.373108 -0.341476 -0.862661
v 1.38181 2.4447 0.210459
vn -0.0523286 0.0559043 -0.997064
v 1.42666 2.41053 0.213901
vn 0.518872 0.36128 -0.774757
v 1.46219 2.36388 0.224437
vn 0.532021 -0.0790851 -0.843029
v -0.0634638 4.29544 0.435757
vn -0.201675 0.2474 -0.947692
v -0.0658129 4.26444 0.432697
vn -0.517974 -0.156015 -0.841048
v -0.0993911 4.30894 0.453726
vn -0.598523 0.222585 -0.769562
v 0.667238 3.32281 0.360839
vn -0.788247 -0.615351 -0.003078
v 1.36396 2.43096 0.271027
vn -0.787852 -0.615863 0.00104729
v 0.669936 3.31948 0.407499
vn -0.787714 -0.616011 0.00616438
v 1.49707 2.27014 0.980564
vn -0.762954 -0.646445 0.00319552
v 1.5077 2.25847 0.97911
vn -0.278712 -0.959169 -0.0481113
v 1.54097 2.22216 1.66692
vn -0.744226 -0.667923 0.00251414
v 1.52662 2.29325 0.980309
vn 0.811178 0.584707 -0.0103903
v 1.47161 2.35724 0.328271
vn 0.797467 0.603301 -0.00856745
v 1.55266 2.26805 1.63679
vn 0.797504 0.603261 -0.00798499
v 0.852478 3.1496 0.337561
vn 0.787024 0.616697 -0.0166735
v 0.0334818 4.19726 0.438795
vn 0.785875 0.617626 -0.0306422
v 0.00324799 4.23701 0.4784
vn 0.787173 0.616606 -0.0124761
v 0.0322839 4.19007 1.98165
vn -0.0816632 0.115337 0.989964
v -0.00546425 4.20558 1.97022
vn -0.497577 0.111506 0.860223
v 0.030069 4.15893 1.98075
vn -0.412032 -0.272596 0.869437
v 0.0799978 4.12874 1.98415
vn 0.0523286 -0.0559043 0.997064
v 0.0576042 4.18047 1.98052
vn 0.483902 0.423006 0.766097
v 0.020777 4.2261 1.96999
vn 0.0604239 0.542446 0.837915
v 0.758486 3.2224 1.83408
vn -0.787024 -0.616697 0.016674
v 0.0617159 4.11422 1.9239
vn -0.787471 -0.616225 0.0125477
v 0.755404 3.22543 1.78743
vn -0.787635 -0.616097 0.00743125
v 1.52562 2.27827 1.75885
vn 0.201673 -0.247403 0.947692
v 1.495 2.28348 1.7622
vn -0.267166 -0.458058 0.847824
v 1.52987 2.24 1.74115
vn 0.0801002 -0.628053 0.774037
v 0.943726 3.04919 1.8108
vn 0.788247 0.615351 0.00307788
v 1.45366 2.39599 1.7556
vn 0.789055 0.614076 0.017404
v 1.48452 2.35674 1.71599
vn 0.788226 0.615385 -0.001059
v -0.0403491 4.29932 1.21409
vn 0.762954 0.646445 -0.00319555
v 0.0154883 4.23598 1.86612
vn 0.777674 0.628648 -0.00502645
v -0.0655572 4.32516 0.557606
vn 0.777638 0.628688 -0.00560894
v -0.0698939 4.27621 1.21434
vn -0.81118 -0.584705 0.0103904
v -0.0786486 4.28935 1.21578
vn -0.99749 -0.0389633 0.0591259
v -0.113233 4.32463 0.527987
vn -0.827507 -0.561346 0.0110511
v 1.44124 2.33348 0.328533
vn -0.777675 -0.628647 0.00502669
v 1.45593 2.31574 0.293878
vn -0.744463 -0.667663 -0.00133845
v 0.0030698 4.17347 0.439057
vn -0.789037 -0.614105 -0.0172116
v 1.32943 2.47544 0.241174
vn -0.78883 -0.61437 -0.0172425
v -0.0382778 4.28598 0.432459
vn 0.389663 0.526712 -0.755472
v -0.016934 4.23541 0.419142
vn -0.0710072 0.0798205 -0.994277
v 1.39501 2.45524 0.270759
vn 0.787511 0.616172 -0.012599
v 1.35984 2.49922 0.240911
vn 0.786055 0.617378 -0.0310275
v 1.53537 2.28011 0.978871
vn 0.979205 0.197303 -0.0472014
v 1.48492 2.33841 0.293628
vn 0.827265 0.561614 -0.0149031
v -0.0277971 4.21273 0.478668
vn -0.78818 -0.615444 0.00109577
v 1.52228 2.2443 1.63705
vn -0.777639 -0.628686 0.00560905
v 1.56996 2.24483 1.66667
vn 0.827507 0.561346 -0.011051
v 0.857467 3.14413 0.383932
vn 0.787635 0.616097 -0.00743157
v -0.0731499 4.32946 0.453499
vn -0.0384205 0.651214 -0.757921
v -0.0148875 4.21222 1.86638
vn -0.797469 -0.603299 0.00856765
v -0.0281907 4.23105 1.90103
vn -0.827267 -0.561612 0.0149032
v 1.42324 2.3722 1.75586
vn -0.785854 -0.617645 0.0308018
v 0.0968849 4.07024 1.95374
vn -0.786061 -0.61738 0.0308343
v 1.52254 2.30502 1.76196
vn 0.613117 0.257578 0.74682
v 1.47874 2.33803 1.77547
vn 0.0710089 -0.0798194 0.994277
v 0.0927609 4.1385 1.92363
vn 0.787879 0.615829 -0.00108093
v 0.127297 4.09402 1.95348
vn 0.788831 0.614373 0.0170787
v -0.0509753 4.31099 1.21554
vn 0.427854 0.903168 0.035057
v 0.000792128 4.25372 1.90078
vn 0.744464 0.667661 0.00133827
v -0.0959331 4.30141 0.557868
vn -0.797505 -0.603259 0.007985
v 1.45348 2.33245 1.71625
vn -0.787143 -0.616644 0.0124996
v 1.55612 2.26052 1.74093
vn 0.630864 -0.187852 0.752809
v 0.942935 3.05008 1.76386
vn 0.787714 0.616011 -0.00616446
v -0.0842497 4.3473 0.527737
vn 0.744227 0.667923 -0.00251415
v 1.41261 2.36915 0.288119
vn -0.784414 -0.620215 0.00531179
v 1.39806 2.38777 0.243505
vn -0.784714 -0.619724 -0.0128833
v 1.43581 2.3402 0.261837
vn -0.775826 -0.63088 -0.0091486
v -0.041995 4.23208 0.434014
vn -0.791125 -0.608206 -0.0648564
v 0.00223437 4.17721 0.414887
vn -0.451305 -0.249254 -0.856853
v 0.665716 3.32586 0.324514
vn -0.790079 -0.609353 -0.0668155
v -0.0125978 4.25508 0.43376
vn 0.780246 0.6205 -0.0787135
v 0.842253 3.16078 0.302329
vn 0.780962 0.619385 -0.080374
v 0.0298009 4.19877 0.414649
vn 0.481306 0.465535 -0.742712
v 1.44346 2.39327 0.287853
vn 0.790911 0.611875 -0.00828383
v 1.46569 2.36357 0.261579
vn 0.799038 0.600851 -0.0227403
v 1.42842 2.41151 0.243243
vn 0.790313 0.612132 -0.0264757
v 1.52751 2.2676 0.978506
vn 0.612998 -0.784774 -0.0914549
v 1.46493 2.30701 0.291938
vn 0.346346 -0.931321 -0.112631
v 1.4912 2.32756 0.291711
vn 0.842441 -0.526319 -0.115246
v -0.0732613 4.2714 0.509801
vn -0.791034 -0.61174 0.00629874
v -0.0982961 4.3042 0.490715
vn -0.800783 -0.59893 -0.00542593
v -0.0639635 4.25949 0.461629
vn -0.792677 -0.60953 -0.0116946
v 1.49914 2.27393 1.68512
vn -0.78429 -0.620351 0.00729612
v 1.44993 2.33593 1.64853
vn -0.787501 -0.616275 0.00690411
v 1.45954 2.31669 0.986062
vn -0.784434 -0.62018 0.00631605
v 1.56733 2.24772 1.71384
vn 0.93424 0.327625 0.140916
v 1.56031 2.23372 1.71704
vn 0.564363 -0.717069 0.409032
v 1.57634 2.23387 1.66631
vn 0.845779 -0.529998 -0.0613125
v 0.900869 3.09637 1.0738
vn 0.787675 0.616054 -0.00679788
v 1.48128 2.36045 1.64826
vn 0.787892 0.615777 -0.00669788
v 1.40014 2.44973 0.338251
vn 0.787876 0.615795 -0.00696042
v -0.0825854 4.34365 0.480568
vn 0.541474 0.826558 -0.153651
v -0.0684197 4.32757 0.490457
vn 0.774082 0.6328 -0.0190155
v -0.0590927 4.31425 0.453116
vn 0.765384 0.640387 -0.0639678
v 0.0132647 4.17619 1.9068
vn -0.790911 -0.611875 0.00828404
v 0.0283091 4.15796 1.95141
vn -0.790313 -0.612131 0.0264773
v -0.00896061 4.20589 1.93307
vn -0.799038 -0.600851 0.0227414
v 1.46932 2.31438 1.76089
vn -0.780121 -0.620694 0.0784179
v 1.42692 2.37069 1.78001
vn -0.341427 -0.370756 0.863694
v 0.761464 3.2205 1.8704
vn -0.780962 -0.619385 0.0803728
v 1.49872 2.33738 1.76064
vn 0.791346 0.607963 0.0644407
v 0.938001 3.05542 1.84821
vn 0.790079 0.609354 0.0668137
v 1.45449 2.39225 1.77977
vn 0.541006 0.329169 0.773925
v 0.0441109 4.20031 1.90654
vn 0.784414 0.620215 -0.00531151
v 0.0209158 4.22926 1.93282
vn 0.775826 0.63088 0.00914909
v 0.0586604 4.18169 1.95115
vn 0.784714 0.619724 0.012883
v -0.0650016 4.30638 1.2161
vn -0.612996 0.784775 0.0914549
v -0.0344755 4.2419 1.90294
vn -0.819221 0.561477 0.116712
v -0.00820444 4.26245 1.90272
vn -0.306647 0.945373 0.110622
v -0.0245537 4.20901 0.546399
vn -0.787848 -0.615833 0.0066917
v -0.0338128 4.22852 1.20886
vn -0.790892 -0.611913 0.00727952
v 1.52514 2.24189 1.7042
vn -0.774082 -0.6328 0.0190171
v 1.49034 2.28623 1.73329
vn -0.78235 -0.622326 0.0252882
v 1.55502 2.26526 1.70394
vn 0.800783 0.59893 0.00542798
v 1.54474 2.27783 1.74129
vn 0.806532 0.589038 0.0503971
v 0.00679556 4.23353 0.546128
vn 0.78753 0.616238 -0.00690815
v 0.0879333 4.14425 1.85613
vn 0.787546 0.61622 -0.00664676
v -0.0978955 4.3402 0.477562
vn -0.564363 0.717069 -0.409032
v -0.093343 4.35614 0.528114
vn -0.309983 0.949051 0.056688
v 1.44852 2.32572 0.2482
vn -0.460923 -0.847239 -0.264075
v 1.42208 2.35836 0.22807
vn -0.77278 -0.632249 -0.0554371
v 1.37405 2.41922 0.222749
vn -0.789015 -0.610907 -0.0651736
v 1.3301 2.47724 0.216778
vn -0.448023 -0.253456 -0.857342
v 0.682602 3.34053 0.311756
vn -0.061675 0.0678704 -0.995786
v 1.35767 2.4988 0.21654
vn 0.444581 0.435274 -0.782869
v 1.40345 2.44221 0.222495
vn 0.7825 0.617698 -0.0783831
v 1.451 2.38099 0.22782
vn 0.799137 0.597175 -0.0690041
v 1.47653 2.34763 0.247958
vn 0.912566 0.351477 -0.209015
v 1.46907 2.33413 0.243783
vn 0.503825 -0.650449 -0.568398
v -0.088018 4.29163 0.453366
vn -0.806532 -0.589039 -0.0503939
v 1.36879 2.42522 0.338521
vn -0.787517 -0.616257 0.00664233
v 1.55007 2.21333 1.66654
vn 0.349743 -0.935068 -0.05769
v 1.49054 2.34094 0.985795
vn 0.790892 0.611913 -0.00727949
v -0.0336122 4.28323 0.461367
vn 0.78235 0.622326 -0.0252888
v -0.0198084 4.22183 1.9467
vn -0.930436 -0.24097 0.276083
v 0.00572158 4.18847 1.96683
vn -0.799137 -0.597175 0.069002
v 0.053273 4.12725 1.97216
vn -0.782232 -0.617992 0.0787315
v 0.099056 4.07066 1.97811
vn -0.344709 -0.366554 0.864184
v 0.77991 3.23345 1.88285
vn 0.061676 -0.0678696 0.995786
v 0.126623 4.09222 1.97788
vn 0.57277 0.364885 0.734026
v 0.0826702 4.15024 1.97191
vn 0.789173 0.610677 0.0654167
v 0.034647 4.2111 1.96658
vn 0.77278 0.632249 0.0554349
v 0.00820726 4.24374 1.94645
vn 0.56315 0.802706 0.196278
v -0.00664623 4.23978 1.95082
vn -0.503825 0.650449 0.568398
v 0.056584 4.11973 1.8564
vn -0.787832 -0.615851 0.00695347
v 1.51582 2.25521 1.74154
vn -0.765384 -0.640387 0.0639667
v 1.52069 2.30997 1.73302
vn 0.792677 0.60953 0.011696
v -0.00281141 4.25277 1.20859
vn 0.784434 0.62018 -0.00631599
v -0.119614 4.33559 0.528341
vn -0.822623 0.565222 0.0617711
v -0.110601 4.32174 0.480809
vn -0.959288 -0.20922 -0.189722
v 0.712609 3.27241 1.09746
vn -0.787674 -0.616054 0.00679793
v 1.53931 2.22581 1.71409
vn -0.432072 -0.878987 0.201732
v 1.52999 2.29806 1.68485
vn 0.791033 0.611741 -0.00629898
v -0.0424151 4.29553 0.509535
vn 0.78429 0.620352 -0.0072963
f 1//1 2//2 3//3
f 1//1 3//3 4//4
f 1//1 4//4 5//5
f 1//1 5//5 6//6
f 1//1 6//6 2//2
f 7//7 8//8 9//9
f 10//10 11//11 12//12
f 13//13 14//14 15//15
f 16//16 17//17 18//18
f 19//19 20//20 21//21
f 22//22 23//23 24//24
f 22//22 24//24 25//25
f 22//22 25//25 26//26
f 22//22 26//26 27//27
f 22//22 27//27 23//23
f 28//28 29//29 30//30
f 31//31 32//32 33//33
f 34//34 35//35 36//36
f 37//37 38//38 39//39
f 40//40 41//41 42//42
f 13//13 43//43 44//44
f 10//10 45//45 46//46
f 7//7 47//47 48//48
f 19//19 49//49 50//50
f 16//16 51//51 52//52
f 10//10 53//53 45//45
f 13//13 54//54 43//43
f 16//16 55//55 51//51
f 19//19 56//56 49//49
f 7//7 57//57 47//47
f 40//40 58//58 59//59
f 28//28 60//60 61//61
f 31//31 62//62 63//63
f 34//34 64//64 65//65
f 37//37 66//66 67//67
f 40//40 68//68 58//58
f 28//28 69//69 60//60
f 31//31 70//70 62//62
f 34//34 71//71 64//64
f 37//37 72//72 66//66
f 10//10 46//46 11//11
f 7//7 48//48 8//8
f 19//19 50//50 20//20
f 16//16 52//52 17//17
f 13//13 44//44 14//14
f 40//40 42//42 68//68
f 28//28 30//30 69//69
f 31//31 33//33 70//70
f 34//34 36//36 71//71
f 37//37 39//39 72//72
f 28//28 61//61 29//29
f 31//31 63//63 32//32
f 34//34 65//65 35//35
f 37//37 67//67 38//38
f 40//40 59//59 41//41
f 10//10 12//12 53//53
f 13//13 15//15 54//54
f 16//16 18//18 55//55
f 19//19 21//21 56//56
f 7//7 9//9 57//57
f 73//73 74//74 75//75
f 76//76 77//77 78//78
f 79//79 80//80 81//81
f 82//82 83//83 84//84
f 85//85 86//86 87//87
f 88//88 89//89 90//90
f 91//91 92//92 93//93
f 94//94 95//95 96//96
f 97//97 98//98 99//99
f 100//100 101//101 102//102
f 103//103 104//104 105//105
f 106//106 107//107 108//108
f 109//109 110//110 111//111
f 112//112 113//113 114//114
f 115//115 116//116 117//117
f 88//88 118//118 119//119
f 91//91 120//120 121//121
f 94//94 122//122 123//123
f 97//97 124//124 125//125
f 100//100 126//126 127//127
f 128//128 129//129 2//2
f 130//130 131//131 3//3
f 132//132 133//133 4//4
f 134//134 135//135 5//5
f 136//136 137//137 6//6
f 76//76 138//138 8//8
f 73//73 139//139 11//11
f 85//85 140//140 14//14
f 82//82 141//141 17//17
f 79//79 142//142 20//20
f 143//143 144//144 23//23
f 145//145 146//146 24//24
f 147//147 148//148 25//25
f 149//149 150//150 26//26
f 151//151 152//152 27//27
f 103//103 153//153 29//29
f 106//106 154//154 32//32
f 109//109 155//155 35//35
f 112//112 156//156 38//38
f 115//115 157//157 41//41
f 73//73 75//75 43//43
f 76//76 78//78 45//45
f 79//79 81//81 47//47
f 82//82 84//84 49//49
f 85//85 87//87 51//51
f 88//88 90//90 53//53
f 91//91 93//93 54//54
f 94//94 96//96 55//55
f 97//97 99//99 56//56
f 100//100 102//102 57//57
f 103//103 105//105 58//58
f 106//106 108//108 60//60
f 109//109 111//111 62//62
f 112//112 114//114 64//64
f 115//115 117//117 66//66
f 88//88 119//119 68//68
f 91//91 121//121 69//69
f 94//94 123//123 70//70
f 97//97 125//125 71//71
f 100//100 127//127 72//72
f 130//130 74//74 46//46
f 132//132 77//77 48//48
f 134//134 80//80 50//50
f 136//136 83//83 52//52
f 128//128 86//86 44//44
f 158//158 89//89 42//42
f 159//159 92//92 30//30
f 160//160 95//95 33//33
f 161//161 98//98 36//36
f 162//162 101//101 39//39
f 145//145 104//104 61//61
f 147//147 107//107 63//63
f 149//149 110//110 65//65
f 151//151 113//113 67//67
f 143//143 116//116 59//59
f 159//159 118//118 12//12
f 160//160 120//120 15//15
f 161//161 122//122 18//18
f 162//162 124//124 21//21
f 158//158 126//126 9//9
f 130//130 129//129 74//74
f 132//132 131//131 77//77
f 134//134 133//133 80//80
f 136//136 135//135 83//83
f 128//128 137//137 86//86
f 158//158 138//138 89//89
f 159//159 139//139 92//92
f 160//160 140//140 95//95
f 161//161 141//141 98//98
f 162//162 142//142 101//101
f 145//145 144//144 104//104
f 147//147 146//146 107//107
f 149//149 148//148 110//110
f 151//151 150//150 113//113
f 143//143 152//152 116//116
f 159//159 153//153 118//118
f 160//160 154//154 120//120
f 161//161 155//155 122//122
f 162//162 156//156 124//124
f 158//158 157//157 126//126
f 130//130 3//3 129//129
f 132//132 4//4 131//131
f 134//134 5//5 133//133
f 136//136 6//6 135//135
f 128//128 2//2 137//137
f 158//158 9//9 138//138
f 159//159 12//12 139//139
f 160//160 15//15 140//140
f 161//161 18//18 141//141
f 162//162 21//21 142//142
f 145//145 24//24 144//144
f 147//147 25//25 146//146
f 149//149 26//26 148//148
f 151//151 27//27 150//150
f 143//143 23//23 152//152
f 159//159 30//30 153//153
f 160//160 33//33 154//154
f 161//161 36//36 155//155
f 162//162 39//39 156//156
f 158//158 42//42 157//157
f 128//128 44//44 75//75
f 130//130 46//46 78//78
f 132//132 48//48 81//81
f 134//134 50//50 84//84
f 136//136 52//52 87//87
f 76//76 45//45 90//90
f 73//73 43//43 93//93
f 85//85 51//51 96//96
f 82//82 49//49 99//99
f 79//79 47//47 102//102
f 143//143 59//59 105//105
f 145//145 61//61 108//108
f 147//147 63//63 111//111
f 149//149 65//65 114//114
f 151//151 67//67 117//117
f 103//103 58//58 119//119
f 106//106 60//60 121//121
f 109//109 62//62 123//123
f 112//112 64//64 125//125
f 115//115 66//66 127//127
f 73//73 11//11 74//74
f 76//76 8//8 77//77
f 79//79 20//20 80//80
f 82//82 17//17 83//83
f 85//85 14//14 86//86
f 88//88 68//68 89//89
f 91//91 69//69 92//92
f 94//94 70//70 95//95
f 97//97 71//71 98//98
f 100//100 72//72 101//101
f 103//103 29//29 104//104
f 106//106 32//32 107//107
f 109//109 35//35 110//110
f 112//112 38//38 113//113
f 115//115 41//41 116//116
f 88//88 53//53 118//118
f 91//91 54//54 120//120
f 94//94 55//55 122//122
f 97//97 56//56 124//124
f 100//100 57//57 126//126
f 128//128 75//75 129//129
f 130//130 78//78 131//131
f 132//132 81//81 133//133
f 134//134 84//84 135//135
f 136//136 87//87 137//137
f 76//76 90//90 138//138
f 73//73 93//93 139//139
f 85//85 96//96 140//140
f 82//82 99//99 141//141
f 79//79 102//102 142//142
f 143//143 105//105 144//144
f 145//145 108//108 146//146
f 147//147 111//111 148//148
f 149//149 114//114 150//150
f 151//151 117//117 152//152
f 103//103 119//119 153//153
f 106//106 121//121 154//154
f 109//109 123//123 155//155
f 112//112 125//125 156//156
f 115//115 127//127 157//157
f 129//129 3//3 2//2
f 131//131 4//4 3//3
f 133//133 5//5 4//4
f 135//135 6//6 5//5
f 137//137 2//2 6//6
f 138//138 9//9 8//8
f 139//139 12//12 11//11
f 140//140 15//15 14//14
f 141//141 18//18 17//17
f 142//142 21//21 20//20
f 144//144 24//24 23//23
f 146//146 25//25 24//24
f 148//148 26//26 25//25
f 150//150 27//27 26//26
f 152//152 23//23 27//27
f 153//153 30//30 29//29
f 154//154 33//33 32//32
f 155//155 36//36 35//35
f 156//156 39//39 38//38
f 157//157 42//42 41//41
f 75//75 44//44 43//43
f 78//78 46//46 45//45
f 81//81 48//48 47//47
f 84//84 50//50 49//49
f 87//87 52//52 51//51
f 90//90 45//45 53//53
f 93//93 43//43 54//54
f 96//96 51//51 55//55
f 99//99 49//49 56//56
f 102//102 47//47 57//57
f 105//105 59//59 58//58
f 108//108 61//61 60//60
f 111//111 63//63 62//62
f 114//114 65//65 64//64
f 117//117 67//67 66//66
f 119//119 58//58 68//68
f 121//121 60//60 69//69
f 123//123 62//62 70//70
f 125//125 64//64 71//71
f 127//127 66//66 72//72
f 74//74 11//11 46//46
f 77//77 8//8 48//48
f 80//80 20//20 50//50
f 83//83 17//17 52//52
f 86//86 14//14 44//44
f 89//89 68//68 42//42
f 92//92 69//69 30//30
f 95//95 70//70 33//33
f 98//98 71//71 36//36
f 101//101 72//72 39//39
f 104//104 29//29 61//61
f 107//107 32//32 63//63
f 110//110 35//35 65//65
f 113//113 38//38 67//67
f 116//116 41//41 59//59
f 118//118 53//53 12//12
f 120//120 54//54 15//15
f 122//122 55//55 18//18
f 124//124 56//56 21//21
f 126//126 57//57 9//9
f 129//129 75//75 74//74
f 131//131 78//78 77//77
f 133//133 81//81 80//80
f 135//135 84//84 83//83
f 137//137 87//87 86//86
f 138//138 90//90 89//89
f 139//139 93//93 92//92
f 140//140 96//96 95//95
f 141//141 99//99 98//98
f 142//142 102//102 101//101
f 144//144 105//105 104//104
f 146//146 108//108 107//107
f 148//148 111//111 110//110
f 150//150 114//114 113//113
f 152//152 117//117 116//116
f 153//153 119//119 118//118
f 154//154 121//121 120//120
f 155//155 123//123 122//122
f 156//156 125//125 124//124
f 157//157 127//127 126//126
