# Created by Open3D 
# object name: part_055
# number of vertices: 162
# number of triangles: 320
v 0.424878 0.635135 1.34419
vn -0.506755 0.505478 0.698349
v 0.409258 0.622603 1.34071
vn -0.665077 0.654625 0.359359
v 0.410229 0.62017 1.34358
vn -0.440232 0.292751 0.848818
v 0.426963 0.632451 1.34604
vn -0.103621 0.0521766 0.993247
v 0.435863 0.643896 1.34501
vn -0.279977 0.439445 0.853523
v 0.433687 0.645213 1.34207
vn -0.620208 0.697507 0.358923
v 0.49913 0.554586 1.34962
vn 0.413516 -0.492845 0.765577
v 0.483069 0.541152 1.3489
vn 0.197493 -0.399062 0.895403
v 0.485599 0.539787 1.34628
vn 0.571288 -0.686602 0.449675
v 0.445455 0.579111 1.33957
vn -0.735696 -0.677135 0.0154654
v 0.410991 0.616607 1.33457
vn -0.738966 -0.673689 -0.00846863
v 0.4458 0.578875 1.33134
vn -0.733505 -0.678664 -0.0372317
v 0.415435 0.620881 1.20709
vn -0.997613 -0.0275941 -0.0632995
v 0.415824 0.62221 1.2071
vn -0.721175 0.690807 -0.0518919
v 0.423339 0.620139 1.08624
vn -0.969034 0.236835 -0.069874
v 0.44294 0.646338 1.20862
vn 0.106473 0.994314 -0.00179817
v 0.436732 0.646886 1.32387
vn 0.461102 0.887041 0.0232841
v 0.451403 0.644899 1.09352
vn 0.461302 0.887014 0.0201561
v 0.466647 0.614143 1.34061
vn 0.728532 0.678106 0.0970272
v 0.506784 0.56983 1.34721
vn 0.720273 0.67111 0.17555
v 0.509094 0.568286 1.34124
vn 0.73413 0.675014 0.0735515
v 0.516462 0.552238 1.07748
vn 0.506756 -0.505479 -0.698348
v 0.502601 0.537484 1.07933
vn 0.622963 -0.693602 -0.361709
v 0.500425 0.538801 1.07639
vn 0.309047 -0.414176 -0.856124
v 0.514058 0.554626 1.07562
vn 0.103621 -0.0521766 -0.993247
v 0.526059 0.562527 1.07782
vn 0.467423 -0.265951 -0.843081
v 0.52703 0.560094 1.08069
vn 0.669004 -0.652341 -0.356209
v 0.461973 0.576873 1.08022
vn -0.728532 -0.678106 -0.0970276
v 0.496396 0.53934 1.08521
vn -0.726782 -0.682959 -0.0731791
v 0.461271 0.576779 1.08843
vn -0.733045 -0.678726 -0.0444603
v 0.44221 0.632787 1.07206
vn -0.413516 0.492845 -0.765577
v 0.427585 0.617819 1.07107
vn -0.328678 0.277638 -0.902711
v 0.42626 0.620299 1.07375
vn -0.613401 0.647624 -0.452019
v 0.483164 0.611906 1.08127
vn 0.735696 0.677135 -0.0154643
v 0.457816 0.639072 1.07576
vn 0.732309 0.674081 -0.0966308
v 0.456096 0.641161 1.08177
vn 0.729877 0.683537 0.00755465
v 0.520853 0.561816 1.21431
vn 0.997613 0.0275942 0.0632995
v 0.527834 0.561984 1.0991
vn 0.91908 0.390409 0.0535969
v 0.513164 0.563972 1.32945
vn 0.918883 0.390432 0.0567249
v 0.493349 0.536359 1.21278
vn -0.106474 -0.994314 0.00179814
v 0.494702 0.536643 1.21286
vn 0.630113 -0.775091 0.0468195
v 0.485968 0.537585 1.33365
vn 0.15848 -0.987053 0.0247234
v 0.408454 0.620713 1.32229
vn -0.919079 -0.390412 -0.0535968
v 0.407945 0.622225 1.32795
vn -0.96981 0.236939 -0.0576981
v 0.478472 0.543625 1.34564
vn -0.732583 -0.67394 0.0955328
v 0.412522 0.615168 1.34082
vn -0.73762 -0.668476 0.0951665
v 0.508703 0.564878 1.35033
vn 0.356405 -0.25091 0.900011
v 0.496511 0.557003 1.35112
vn -0.0232722 -0.0349861 0.999117
v 0.439892 0.643357 1.33618
vn 0.725687 0.684104 0.0733506
v 0.440834 0.641373 1.3424
vn 0.714873 0.676444 0.177144
v 0.441587 0.646054 1.20853
vn -0.608951 0.791895 -0.0456167
v 0.434926 0.647198 1.32945
vn -0.159262 0.987157 -0.0125479
v 0.480193 0.541536 1.33963
vn -0.730941 -0.682395 -0.00788261
v 0.423125 0.618725 1.09195
vn -0.91888 -0.390438 -0.0567246
v 0.450321 0.645112 1.08775
vn -0.158481 0.987052 -0.0247235
v 0.467253 0.61434 1.3324
vn 0.733044 0.678726 0.0444603
v 0.510028 0.562398 1.34764
vn 0.617699 -0.645391 0.449354
v 0.499556 0.535811 1.09753
vn -0.461103 -0.887041 -0.0232841
v 0.501362 0.535499 1.09194
vn 0.159262 -0.987157 0.0125479
v 0.429504 0.612868 1.07418
vn -0.72032 -0.67082 -0.176464
v 0.495454 0.541324 1.079
vn -0.715283 -0.676284 -0.176098
v 0.453219 0.641545 1.07249
vn -0.16896 0.424404 -0.88957
v 0.444509 0.630074 1.07054
vn 0.0232725 0.0349863 -0.999117
v 0.525297 0.56609 1.08682
vn 0.738268 0.674453 0.0085848
v 0.523766 0.567529 1.08058
vn 0.737458 0.668781 -0.0942746
v 0.520464 0.560487 1.2143
vn 0.739571 -0.670997 0.0528926
v 0.528343 0.560472 1.09345
vn 0.969811 -0.236933 0.0576981
v 0.484886 0.537799 1.32787
vn -0.461303 -0.887014 -0.0201562
v 0.427194 0.614412 1.08016
vn -0.734808 -0.674252 -0.0737649
v 0.450689 0.64291 1.07511
vn -0.568902 0.690558 -0.446632
v 0.482725 0.612244 1.08949
vn 0.733505 0.678663 0.0372321
v 0.512949 0.562558 1.33515
vn 0.969038 -0.236817 0.0698742
v 0.409014 0.619194 1.33016
vn -0.809019 -0.586364 -0.0408219
v 0.409317 0.618834 1.33838
vn -0.824513 -0.562657 0.0599572
v 0.408012 0.620947 1.33409
vn -0.949189 -0.314319 0.0156004
v 0.481043 0.541661 1.34789
vn -0.67787 -0.649972 0.343552
v 0.479562 0.544847 1.34999
vn -0.129695 -0.0693198 0.989128
v 0.445726 0.579794 1.346
vn -0.700316 -0.621974 0.350295
v 0.50841 0.566991 1.34942
vn 0.673581 0.608146 0.420055
v 0.465922 0.61318 1.34699
vn 0.650902 0.628669 0.425561
v 0.505225 0.5686 1.35142
vn 0.0606899 0.105967 0.992516
v 0.43773 0.645773 1.33176
vn 0.647084 0.761353 0.0402883
v 0.435825 0.64669 1.33564
vn 0.383491 0.919165 0.0898353
v 0.437573 0.644987 1.33996
vn 0.618617 0.773056 0.140344
v 0.431246 0.636792 1.20796
vn -0.67695 0.734366 -0.0494511
v 0.408816 0.623809 1.32813
vn -0.687728 0.724716 -0.042624
v 0.433273 0.646446 1.32949
vn -0.665367 0.745367 -0.0414097
v 0.482895 0.539046 1.33556
vn -0.647797 -0.761259 -0.0290445
v 0.484292 0.538198 1.33966
vn -0.392798 -0.917903 0.0562438
v 0.482013 0.539973 1.34369
vn -0.632269 -0.771207 0.0739994
v 0.424677 0.617072 1.08424
vn -0.808303 -0.58646 -0.052065
v 0.426255 0.614426 1.09205
vn -0.737278 -0.674289 -0.0418887
v 0.416587 0.618268 1.20718
vn -0.80697 -0.588774 -0.0463154
v 0.450641 0.644354 1.07957
vn -0.553923 0.810978 -0.188372
v 0.440097 0.634944 1.07833
vn -0.66092 0.725598 -0.191552
v 0.448685 0.644358 1.08751
vn -0.664429 0.74524 -0.0561461
v 0.475016 0.613378 1.21094
vn 0.73328 0.678699 0.0408461
v 0.45544 0.641438 1.09368
vn 0.728168 0.684247 0.0397207
v 0.440752 0.643428 1.32428
vn 0.728072 0.68426 0.0412187
v 0.511729 0.562483 1.34328
vn 0.754162 -0.625642 0.199527
v 0.512105 0.563941 1.34121
vn 0.939886 0.315577 0.130481
v 0.510667 0.564233 1.3474
vn 0.921982 0.189602 0.337641
v 0.498558 0.536925 1.08964
vn -0.647084 -0.761354 -0.0402882
v 0.498716 0.53771 1.08144
vn -0.618617 -0.773057 -0.140343
v 0.500463 0.536007 1.08576
vn -0.38349 -0.919166 -0.0898349
v 0.427878 0.615706 1.07198
vn -0.677481 -0.604495 -0.419053
v 0.431064 0.614097 1.06998
vn -0.0195246 -0.0687926 -0.99744
v 0.463058 0.577446 1.07387
vn -0.650902 -0.628669 -0.42556
v 0.455246 0.641036 1.0735
vn 0.672994 0.655796 -0.342069
v 0.483254 0.610832 1.07486
vn 0.700316 0.621974 -0.350295
v 0.456726 0.63785 1.07141
vn 0.15623 0.094851 -0.983156
v 0.527274 0.563503 1.09123
vn 0.809014 0.586371 0.0408216
v 0.528276 0.56175 1.0873
vn 0.949188 0.314323 -0.0156007
v 0.526971 0.563863 1.08301
vn 0.824514 0.562656 -0.0599557
v 0.51043 0.550892 1.21374
vn 0.67695 -0.734366 0.0494511
v 0.503015 0.536252 1.0919
vn 0.666942 -0.743955 0.0414663
v 0.527472 0.558888 1.09327
vn 0.689255 -0.723257 0.0427404
v 0.480849 0.541259 1.32772
vn -0.729254 -0.683084 -0.0398021
v 0.49084 0.537717 1.21261
vn -0.649656 -0.759431 -0.0348236
v 0.424183 0.618756 1.08018
vn -0.939886 -0.315578 -0.130479
v 0.42602 0.616572 1.07613
vn -0.810862 -0.564507 -0.154384
v 0.451997 0.644499 1.08173
vn 0.392797 0.917904 -0.0562439
v 0.452549 0.643388 1.07549
vn 0.278468 0.921488 -0.270769
v 0.510033 0.568271 1.32934
vn 0.736578 0.675058 0.0418359
v 0.52472 0.566281 1.09874
vn 0.736673 0.675045 0.0403455
v 0.501492 0.55266 1.34336
vn 0.66092 -0.725598 0.191552
v 0.51206 0.560976 1.33525
vn 0.688317 -0.72313 0.0574768
v 0.408125 0.622441 1.33616
vn -0.746458 0.659 0.0922992
v 0.408653 0.620763 1.34042
vn -0.957571 -0.184783 0.221164
v 0.410633 0.618042 1.34275
vn -0.725828 -0.597946 0.34005
v 0.413537 0.616472 1.34516
vn -0.145973 -0.0516621 0.987939
v 0.462031 0.595035 1.34913
vn -0.0635587 0.00861059 0.997941
v 0.4392 0.640224 1.34659
vn 0.0303527 0.111904 0.993255
v 0.438 0.643372 1.34427
vn 0.624882 0.662315 0.413354
v 0.435581 0.645687 1.34192
vn 0.242879 0.926309 0.288031
v 0.434206 0.646581 1.33762
vn -0.572454 0.81349 0.102616
v 0.423579 0.637181 1.33767
vn -0.679085 0.728059 0.0936654
v 0.483739 0.539309 1.3459
vn -0.278468 -0.921488 0.270769
v 0.411568 0.616416 1.32266
vn -0.737373 -0.674277 -0.0403953
v 0.424228 0.621721 1.08615
vn -0.686785 0.724589 -0.0574235
v 0.445448 0.64498 1.20879
vn 0.649656 0.75943 0.0348236
v 0.510268 0.566125 1.34527
vn 0.810865 0.564502 0.154387
v 0.502083 0.536116 1.08378
vn 0.605183 -0.789759 -0.100168
v 0.500707 0.53701 1.07948
vn -0.242877 -0.926308 -0.288034
v 0.498288 0.539325 1.07712
vn -0.629525 -0.656524 -0.415543
v 0.497088 0.542473 1.0748
vn -0.00324715 -0.0864507 -0.996251
v 0.479645 0.592649 1.07256
vn 0.0635587 -0.0086104 -0.997941
v 0.522751 0.566225 1.07623
vn 0.186222 0.088961 -0.978472
v 0.525655 0.564655 1.07865
vn 0.722091 0.601575 -0.341601
v 0.527635 0.561934 1.08098
vn 0.95757 0.184785 -0.221165
v 0.528164 0.560256 1.08523
vn 0.772695 -0.628154 -0.0914632
v 0.51801 0.550422 1.08402
vn 0.679085 -0.728059 -0.0936659
v 0.495536 0.539269 1.09711
vn -0.729159 -0.683097 -0.0412956
v 0.425622 0.618464 1.07399
vn -0.921981 -0.1896 -0.337642
v 0.454276 0.642724 1.0777
vn 0.632269 0.771207 -0.0739994
v 0.519701 0.564429 1.21421
vn 0.806969 0.588776 0.0463152
v 0.487604 0.538339 1.33388
vn 0.665999 -0.743827 0.0562657
v 0.485648 0.538343 1.34183
vn 0.586724 -0.787257 0.189687
v 0.453479 0.577775 1.20988
vn -0.73328 -0.678699 -0.0408461
v 0.42456 0.620215 1.07812
vn -0.727998 0.656499 -0.197555
v 0.453393 0.643651 1.08584
vn 0.647797 0.761259 0.0290445
v 0.511611 0.565625 1.33716
vn 0.808306 0.586456 0.0520654
f 1//1 2//2 3//3
f 1//1 3//3 4//4
f 1//1 4//4 5//5
f 1//1 5//5 6//6
f 1//1 6//6 2//2
f 7//7 8//8 9//9
f 10//10 11//11 12//12
f 13//13 14//14 15//15
f 16//16 17//17 18//18
f 19//19 20//20 21//21
f 22//22 23//23 24//24
f 22//22 24//24 25//25
f 22//22 25//25 26//26
f 22//22 26//26 27//27
f 22//22 27//27 23//23
f 28//28 29//29 30//30
f 31//31 32//32 33//33
f 34//34 35//35 36//36
f 37//37 38//38 39//39
f 40//40 41//41 42//42
f 13//13 43//43 44//44
f 10//10 45//45 46//46
f 7//7 47//47 48//48
f 19//19 49//49 50//50
f 16//16 51//51 52//52
f 10//10 53//53 45//45
f 13//13 54//54 43//43
f 16//16 55//55 51//51
f 19//19 56//56 49//49
f 7//7 57//57 47//47
f 40//40 58//58 59//59
f 28//28 60//60 61//61
f 31//31 62//62 63//63
f 34//34 64//64 65//65
f 37//37 66//66 67//67
f 40//40 68//68 58//58
f 28//28 69//69 60//60
f 31//31 70//70 62//62
f 34//34 71//71 64//64
f 37//37 72//72 66//66
f 10//10 46//46 11//11
f 7//7 48//48 8//8
f 19//19 50//50 20//20
f 16//16 52//52 17//17
f 13//13 44//44 14//14
f 40//40 42//42 68//68
f 28//28 30//30 69//69
f 31//31 33//33 70//70
f 34//34 36//36 71//71
f 37//37 39//39 72//72
f 28//28 61//61 29//29
f 31//31 63//63 32//32
f 34//34 65//65 35//35
f 37//37 67//67 38//38
f 40//40 59//59 41//41
f 10//10 12//12 53//53
f 13//13 15//15 54//54
f 16//16 18//18 55//55
f 19//19 21//21 56//56
f 7//7 9//9 57//57
f 73//73 74//74 75//75
f 76//76 77//77 78//78
f 79//79 80//80 81//81
f 82//82 83//83 84//84
f 85//85 86//86 87//87
f 88//88 89//89 90//90
f 91//91 92//92 93//93
f 94//94 95//95 96//96
f 97//97 98//98 99//99
f 100//100 101//101 102//102
f 103//103 104//104 105//105
f 106//106 107//107 108//108
f 109//109 110//110 111//111
f 112//112 113//113 114//114
f 115//115 116//116 117//117
f 88//88 118//118 119//119
f 91//91 120//120 121//121
f 94//94 122//122 123//123
f 97//97 124//124 125//125
f 100//100 126//126 127//127
f 128//128 129//129 2//2
f 130//130 131//131 3//3
f 132//132 133//133 4//4
f 134//134 135//135 5//5
f 136//136 137//137 6//6
f 76//76 138//138 8//8
f 73//73 139//139 11//11
f 85//85 140//140 14//14
f 82//82 141//141 17//17
f 79//79 142//142 20//20
f 143//143 144//144 23//23
f 145//145 146//146 24//24
f 147//147 148//148 25//25
f 149//149 150//150 26//26
f 151//151 152//152 27//27
f 103//103 153//153 29//29
f 106//106 154//154 32//32
f 109//109 155//155 35//35
f 112//112 156//156 38//38
f 115//115 157//157 41//41
f 73//73 75//75 43//43
f 76//76 78//78 45//45
f 79//79 81//81 47//47
f 82//82 84//84 49//49
f 85//85 87//87 51//51
f 88//88 90//90 53//53
f 91//91 93//93 54//54
f 94//94 96//96 55//55
f 97//97 99//99 56//56
f 100//100 102//102 57//57
f 103//103 105//105 58//58
f 106//106 108//108 60//60
f 109//109 111//111 62//62
f 112//112 114//114 64//64
f 115//115 117//117 66//66
f 88//88 119//119 68//68
f 91//91 121//121 69//69
f 94//94 123//123 70//70
f 97//97 125//125 71//71
f 100//100 127//127 72//72
f 130//130 74//74 46//46
f 132//132 77//77 48//48
f 134//134 80//80 50//50
f 136//136 83//83 52//52
f 128//128 86//86 44//44
f 158//158 89//89 42//42
f 159//159 92//92 30//30
f 160//160 95//95 33//33
f 161//161 98//98 36//36
f 162//162 101//101 39//39
f 145//145 104//104 61//61
f 147//147 107//107 63//63
f 149//149 110//110 65//65
f 151//151 113//113 67//67
f 143//143 116//116 59//59
f 159//159 118//118 12//12
f 160//160 120//120 15//15
f 161//161 122//122 18//18
f 162//162 124//124 21//21
f 158//158 126//126 9//9
f 130//130 129//129 74//74
f 132//132 131//131 77//77
f 134//134 133//133 80//80
f 136//136 135//135 83//83
f 128//128 137//137 86//86
f 158//158 138//138 89//89
f 159//159 139//139 92//92
f 160//160 140//140 95//95
f 161//161 141//141 98//98
f 162//162 142//142 101//101
f 145//145 144//144 104//104
f 147//147 146//146 107//107
f 149//149 148//148 110//110
f 151//151 150//150 113//113
f 143//143 152//152 116//116
f 159//159 153//153 118//118
f 160//160 154//154 120//120
f 161//161 155//155 122//122
f 162//162 156//156 124//124
f 158//158 157//157 126//126
f 130//130 3//3 129//129
f 132//132 4//4 131//131
f 134//134 5//5 133//133
f 136//136 6//6 135//135
f 128//128 2//2 137//137
f 158//158 9//9 138//138
f 159//159 12//12 139//139
f 160//160 15//15 140//140
f 161//161 18//18 141//141
f 162//162 21//21 142//142
f 145//145 24//24 144//144
f 147//147 25//25 146//146
f 149//149 26//26 148//148
f 151//151 27//27 150//150
f 143//143 23//23 152//152
f 159//159 30//30 153//153
f 160//160 33//33 154//154
f 161//161 36//36 155//155
f 162//162 39//39 156//156
f 158//158 42//42 157//157
f 128//128 44//44 75//75
f 130//130 46//46 78//78
f 132//132 48//48 81//81
f 134//134 50//50 84//84
f 136//136 52//52 87//87
f 76//76 45//45 90//90
f 73//73 43//43 93//93
f 85//85 51//51 96//96
f 82//82 49//49 99//99
f 79//79 47//47 102//102
f 143//143 59//59 105//105
f 145//145 61//61 108//108
f 147//147 63//63 111//111
f 149//149 65//65 114//114
f 151//151 67//67 117//117
f 103//103 58//58 119//119
f 106//106 60//60 121//121
f 109//109 62//62 123//123
f 112//112 64//64 125//125
f 115//115 66//66 127//127
f 73//73 11//11 74//74
f 76//76 8//8 77//77
f 79//79 20//20 80//80
f 82//82 17//17 83//83
f 85//85 14//14 86//86
f 88//88 68//68 89//89
f 91//91 69//69 92//92
f 94//94 70//70 95//95
f 97//97 71//71 98//98
f 100//100 72//72 101//101
f 103//103 29//29 104//104
f 106//106 32//32 107//107
f 109//109 35//35 110//110
f 112//112 38//38 113//113
f 115//115 41//41 116//116
f 88//88 53//53 118//118
f 91//91 54//54 120//120
f 94//94 55//55 122//122
f 97//97 56//56 124//124
f 100//100 57//57 126//126
f 128//128 75//75 129//129
f 130//130 78//78 131//131
f 132//132 81//81 133//133
f 134//134 84//84 135//135
f 136//136 87//87 137//137
f 76//76 90//90 138//138
f 73//73 93//93 139//139
f 85//85 96//96 140//140
f 82//82 99//99 141//141
f 79//79 102//102 142//142
f 143//143 105//105 144//144
f 145//145 108//108 146//146
f 147//147 111//111 148//148
f 149//149 114//114 150//150
f 151//151 117//117 152//152
f 103//103 119//119 153//153
f 106//106 121//121 154//154
f 109//109 123//123 155//155
f 112//112 125//125 156//156
f 115//115 127//127 157//157
f 129//129 3//3 2//2
f 131//131 4//4 3//3
f 133//133 5//5 4//4
f 135//135 6//6 5//5
f 137//137 2//2 6//6
f 138//138 9//9 8//8
f 139//139 12//12 11//11
f 140//140 15//15 14//14
f 141//141 18//18 17//17
f 142//142 21//21 20//20
f 144//144 24//24 23//23
f 146//146 25//25 24//24
f 148//148 26//26 25//25
f 150//150 27//27 26//26
f 152//152 23//23 27//27
f 153//153 30//30 29//29
f 154//154 33//33 32//32
f 155//155 36//36 35//35
f 156//156 39//39 38//38
f 157//157 42//42 41//41
f 75//75 44//44 43//43
f 78//78 46//46 45//45
f 81//81 48//48 47//47
f 84//84 50//50 49//49
f 87//87 52//52 51//51
f 90//90 45//45 53//53
f 93//93 43//43 54//54
f 96//96 51//51 55//55
f 99//99 49//49 56//56
f 102//102 47//47 57//57
f 105//105 59//59 58//58
f 108//108 61//61 60//60
f 111//111 63//63 62//62
f 114//114 65//65 64//64
f 117//117 67//67 66//66
f 119//119 58//58 68//68
f 121//121 60//60 69//69
f 123//123 62//62 70//70
f 125//125 64//64 71//71
f 127//127 66//66 72//72
f 74//74 11//11 46//46
f 77//77 8//8 48//48
f 80//80 20//20 50//50
f 83//83 17//17 52//52
f 86//86 14//14 44//44
f 89//89 68//68 42//42
f 92//92 69//69 30//30
f 95//95 70//70 33//33
f 98//98 71//71 36//36
f 101//101 72//72 39//39
f 104//104 29//29 61//61
f 107//107 32//32 63//63
f 110//110 35//35 65//65
f 113//113 38//38 67//67
f 116//116 41//41 59//59
f 118//118 53//53 12//12
f 120//120 54//54 15//15
f 122//122 55//55 18//18
f 124//124 56//56 21//21
f 126//126 57//57 9//9
f 129//129 75//75 74//74
f 131//131 78//78 77//77
f 133//133 81//81 80//80
f 135//135 84//84 83//83
f 137//137 87//87 86//86
f 138//138 90//90 89//89
f 139//139 93//93 92//92
f 140//140 96//96 95//95
f 141//141 99//99 98//98
f 142//142 102//102 101//101
f 144//144 105//105 104//104
f 146//146 108//108 107//107
f 148//148 111//111 110//110
f 150//150 114//114 113//113
f 152//152 117//117 116//116
f 153//153 119//119 118//118
f 154//154 121//121 120//120
f 155//155 123//123 122//122
f 156//156 125//125 124//124
f 157//157 127//127 126//126
