# Created by Open3D 
# object name: part_031
# number of vertices: 162
# number of triangles: 320
v -3.22333 4.31332 1.74735
vn -0.0145438 -0.0109496 0.999834
v -3.23101 4.28234 1.74631
vn -0.0261263 -0.0643963 0.997582
v -3.19736 4.30671 1.74727
vn 0.0263424 -0.0446975 0.998653
v -3.17866 4.34676 1.74759
vn 0.0072839 0.00552353 0.999958
v -3.21842 4.33461 1.74726
vn -0.0493011 0.0554513 0.997243
v -3.25108 4.30893 1.74631
vn -0.0731645 -0.00304491 0.997315
v -1.81721 5.37471 1.72794
vn 0.0320953 0.0242547 0.99919
v -1.81797 5.34791 1.72822
vn 0.053329 -0.0243314 0.998281
v -1.78533 5.37358 1.72636
vn 0.0866192 0.0207103 0.996026
v -2.50637 4.82553 1.7344
vn 0.599731 -0.792497 0.110776
v -3.1616 4.33091 1.74219
vn 0.601484 -0.796278 0.0644821
v -2.50626 4.82531 1.73023
vn 0.602512 -0.798077 0.00716153
v -3.24523 4.26897 1.67875
vn 0.558199 -0.829707 0.000619854
v -3.25507 4.26303 1.67888
vn -0.138664 -0.990309 0.00780743
v -3.24702 4.26807 1.61741
vn 0.52493 -0.850895 -0.0206272
v -3.26783 4.29891 1.67875
vn -0.644953 0.764222 0.000577101
v -3.25361 4.31031 1.73703
vn -0.620129 0.784492 0.00350941
v -3.25463 4.30953 1.62008
vn -0.620187 0.784448 -0.00306254
v -2.67531 4.74732 1.73641
vn -0.59779 0.793976 0.110681
v -1.90539 5.32802 1.72763
vn -0.579301 0.772557 0.259936
v -1.87486 5.35156 1.7241
vn -0.600419 0.797112 0.0641055
v -1.81842 5.37379 1.58978
vn 0.0145438 0.0109498 -0.999834
v -1.78652 5.37268 1.59082
vn 0.0691133 0.00744349 -0.997581
v -1.81919 5.34699 1.58987
vn 0.0357947 -0.0376199 -0.998651
v -1.86283 5.33999 1.58954
vn -0.00728382 -0.00552345 -0.999958
v -1.84025 5.37489 1.58987
vn -0.039786 0.0625711 -0.997247
v -1.80659 5.39927 1.59082
vn 0.0230059 0.069495 -0.997317
v -2.50752 4.82466 1.60274
vn 0.597787 -0.793973 -0.110709
v -1.85225 5.31924 1.59494
vn 0.600939 -0.796691 -0.0644707
v -2.50734 4.82449 1.60691
vn 0.602387 -0.798172 -0.00712499
v -3.22455 4.3124 1.60919
vn -0.0320954 -0.0242548 -0.99919
v -3.19857 4.30579 1.60891
vn 0.0088119 -0.0579925 -0.998278
v -3.2322 4.28143 1.61078
vn -0.0436305 -0.0776644 -0.996024
v -2.67647 4.74645 1.60474
vn -0.599732 0.7925 -0.110751
v -3.15548 4.38441 1.6095
vn -0.583664 0.768009 -0.263626
v -3.18648 4.3615 1.61303
vn -0.602135 0.795747 -0.0649629
v -1.79237 5.41263 1.65838
vn -0.558199 0.829707 -0.000619854
v -1.80723 5.40208 1.60011
vn -0.584492 0.811392 -0.00355484
v -1.8062 5.40285 1.71705
vn -0.584433 0.811436 0.00301651
v -1.76977 5.3827 1.65839
vn 0.644953 -0.764222 -0.000577101
v -1.76136 5.39053 1.65826
vn 0.990395 -0.13805 -0.00777718
v -1.76841 5.38417 1.71973
vn 0.67445 -0.738031 0.0206754
v -3.23037 4.27953 1.73703
vn 0.584492 -0.811391 0.00355544
v -3.24594 4.26888 1.74012
vn 0.525308 -0.850608 0.0227372
v -1.88212 5.2972 1.72763
vn 0.583944 -0.768447 0.261722
v -3.13103 4.35449 1.74487
vn 0.583588 -0.768725 0.2617
v -1.83903 5.37582 1.72822
vn -0.0222822 0.0758491 0.99687
v -1.8616 5.34092 1.72941
vn 0.0102749 0.00778666 0.999917
v -3.18535 4.36236 1.74219
vn -0.600994 0.79661 0.0649482
v -3.15429 4.38531 1.74487
vn -0.579038 0.77152 0.263576
v -3.27624 4.29107 1.67888
vn -0.950451 0.310812 0.00627692
v -3.26811 4.29825 1.74012
vn -0.674074 0.738315 0.0226903
v -1.85112 5.3201 1.72411
vn 0.602073 -0.795835 0.0644624
v -3.2314 4.27875 1.62009
vn 0.584433 -0.811436 -0.0030161
v -3.26919 4.29744 1.61741
vn -0.67445 0.738031 -0.0206754
v -2.67729 4.74613 1.73226
vn -0.602387 0.798172 0.00712397
v -1.8054 5.40017 1.72636
vn 0.0405046 0.08276 0.995746
v -1.784 5.3713 1.60011
vn 0.62013 -0.784492 -0.0035092
v -1.76949 5.38335 1.59702
vn 0.674074 -0.738315 -0.0226912
v -3.13222 4.35359 1.6095
vn 0.578997 -0.772214 -0.261624
v -1.88331 5.2963 1.59226
vn 0.579353 -0.771937 -0.261657
v -3.21963 4.33369 1.60891
vn -0.0668115 0.042182 -0.996874
v -3.17989 4.34583 1.60772
vn -0.0102748 -0.00778663 -0.999917
v -1.876 5.3507 1.59494
vn -0.601544 0.796258 -0.0641686
v -1.90657 5.32712 1.59226
vn -0.583864 0.769094 -0.259995
v -1.78253 5.41857 1.65826
vn -0.0384362 0.999241 -0.00631194
v -1.79166 5.41272 1.59701
vn -0.525308 0.850608 -0.0227362
v -1.78297 5.37207 1.71705
vn 0.620187 -0.784448 0.00306254
v -3.16274 4.33005 1.61303
vn 0.600351 -0.797136 -0.0644449
v -3.25227 4.30802 1.61078
vn -0.0906656 -0.0163092 -0.995748
v -2.67837 4.74531 1.60893
vn -0.602512 0.798077 -0.00716546
v -1.79058 5.41354 1.71973
vn -0.52493 0.850895 0.0206275
v -3.20601 4.29755 1.74065
vn 0.596553 -0.802494 0.011298
v -3.19493 4.3063 1.74464
vn 0.583774 -0.784113 0.210655
v -3.22907 4.28091 1.74299
vn 0.573957 -0.803641 0.15727
v -1.84028 5.3296 1.7281
vn 0.474645 -0.614205 0.630448
v -1.88248 5.29919 1.72979
vn 0.0402543 -0.0344354 0.998596
v -2.5069 4.82629 1.73765
vn 0.468586 -0.609081 0.639881
v -1.86276 5.35938 1.7281
vn -0.460143 0.623766 0.631811
v -2.6679 4.75176 1.73956
vn -0.457351 0.6176 0.639844
v -1.90357 5.32713 1.72979
vn -0.0393012 0.0709457 0.996706
v -3.2296 4.3288 1.74065
vn -0.60827 0.79365 0.0112573
v -3.25192 4.31119 1.74299
vn -0.615568 0.772243 0.157219
v -3.21815 4.33705 1.74464
vn -0.594097 0.776333 0.21061
v -3.27077 4.27779 1.67892
vn -0.798098 -0.602428 0.011016
v -3.25422 4.26479 1.74029
vn -0.626181 -0.743765 0.233904
v -3.27431 4.29141 1.74029
vn -0.899838 -0.369878 0.23126
v -1.8069 5.35363 1.72134
vn 0.608467 -0.793501 0.0111355
v -1.78455 5.37128 1.72305
vn 0.618326 -0.770155 0.156634
v -1.81828 5.34544 1.72564
vn 0.59779 -0.773523 0.210498
v -3.2071 4.29672 1.6158
vn 0.596353 -0.802645 -0.0110906
v -3.16332 4.32937 1.61908
vn 0.602154 -0.798379 -0.0014488
v -3.21002 4.2944 1.67827
vn 0.596638 -0.802511 0.000103815
v -3.26413 4.30049 1.6132
vn -0.411586 0.216824 -0.885203
v -3.25928 4.28639 1.61292
vn -0.178922 -0.135083 -0.974546
v -3.27539 4.2906 1.61744
vn -0.903717 -0.372818 -0.210482
v -2.67845 4.74535 1.67061
vn -0.602465 0.798145 -2.34679e-05
v -3.18729 4.36114 1.61908
vn -0.602854 0.79785 -0.0014973
v -3.18627 4.36191 1.73616
vn -0.602828 0.79787 0.00146189
v -1.7949 5.40951 1.72394
vn -0.0957364 0.455274 0.885189
v -1.8074 5.40155 1.72305
vn -0.571205 0.805734 0.156583
v -1.81831 5.39256 1.72638
vn -0.468949 0.683944 0.558844
v -1.808 5.3528 1.59649
vn 0.608271 -0.79365 -0.0112558
v -1.81945 5.34455 1.59249
vn 0.594096 -0.776331 -0.210618
v -1.78568 5.37042 1.59415
vn 0.615569 -0.772241 -0.15722
v -3.17484 4.32222 1.60904
vn 0.460627 -0.624842 -0.630393
v -3.13403 4.35448 1.60734
vn 0.0221113 -0.0481865 -0.998594
v -2.50811 4.82537 1.59949
vn 0.457351 -0.6176 -0.639844
v -3.19733 4.35201 1.60904
vn -0.475929 0.615286 -0.628422
v -2.66911 4.75084 1.6014
vn -0.468586 0.609081 -0.639881
v -3.15512 4.38241 1.60734
vn -0.051751 0.0496596 -0.997425
v -1.83159 5.38406 1.59648
vn -0.596553 0.802494 -0.011298
v -1.80853 5.40069 1.59414
vn -0.573957 0.803642 -0.157265
v -1.84267 5.37531 1.59249
vn -0.583775 0.784113 -0.21065
v -1.77126 5.40968 1.65822
vn 0.798098 0.602428 -0.011016
v -1.76329 5.39019 1.59685
vn 0.886913 0.398349 -0.23389
v -1.78338 5.41681 1.59684
vn 0.602342 0.764001 -0.231272
v -1.85031 5.32047 1.71805
vn 0.602775 -0.79791 0.00149338
v -1.80387 5.3558 1.65886
vn 0.608261 -0.793737 -5.79539e-05
v -3.2302 4.28005 1.61408
vn 0.571204 -0.805733 -0.156588
v -3.1961 4.30541 1.6115
vn 0.580083 -0.786916 -0.210397
v -3.25305 4.31033 1.61408
vn -0.618326 0.770154 -0.156638
v -3.24141 4.31836 1.61075
vn -0.529223 0.638436 -0.558858
v -1.87429 5.35224 1.71805
vn -0.602205 0.79834 0.00144718
v -1.87532 5.35146 1.60097
vn -0.602231 0.79832 -0.00149862
v -1.78267 5.40099 1.72422
vn 0.178922 0.135082 0.974546
v -1.7823 5.41763 1.7197
vn 0.606219 0.766942 0.210473
v -3.24155 4.27297 1.74421
vn 0.037685 -0.362721 0.931136
v -3.2181 4.28995 1.74601
vn 0.478766 -0.676502 0.559579
v -3.17363 4.32314 1.7465
vn 0.471701 -0.616455 0.630461
v -3.13281 4.35541 1.74705
vn 0.0396441 -0.034891 0.998605
v -2.5204 4.8442 1.73877
vn 0.00877934 0.00665512 0.999939
v -3.15389 4.38334 1.74705
vn -0.0342351 0.0629348 0.99743
v -3.19612 4.35293 1.7465
vn -0.464907 0.623668 0.628411
v -3.24022 4.31926 1.74601
vn -0.519398 0.645871 0.559533
v -3.26298 4.30136 1.74421
vn -0.395998 0.22863 0.889333
v -3.25813 4.28727 1.74459
vn -0.161765 -0.12208 0.979249
v -1.79619 5.36325 1.72639
vn 0.529224 -0.638437 0.558856
v -3.16229 4.33015 1.73616
vn 0.602179 -0.798359 0.00150131
v -3.2553 4.26398 1.61744
vn -0.630103 -0.746741 -0.212951
v -3.23373 4.32581 1.67827
vn -0.608261 0.793737 5.82543e-05
v -1.8415 5.37619 1.72564
vn -0.580083 0.786917 0.210391
v -1.77463 5.38025 1.59293
vn 0.338525 -0.135681 -0.931124
v -1.79738 5.36235 1.59112
vn 0.519401 -0.645874 -0.559526
v -1.84148 5.32868 1.59063
vn 0.463586 -0.622612 -0.630431
v -1.88371 5.29826 1.59008
vn 0.0227184 -0.0477269 -0.998602
v -2.52163 4.84327 1.59836
vn -0.00877934 -0.00665512 -0.999939
v -1.90479 5.3262 1.59008
vn -0.0567997 0.0576738 -0.996718
v -1.86397 5.35847 1.59063
vn -0.471243 0.615362 -0.63187
v -1.8195 5.39166 1.59112
vn -0.478766 0.676502 -0.559578
v -1.79605 5.40863 1.59293
vn -0.111328 0.443475 -0.889346
v -1.78383 5.40011 1.59255
vn 0.161765 0.122081 -0.979249
v -1.85134 5.31969 1.60097
vn 0.602749 -0.797929 -0.00145535
v -3.21929 4.28905 1.61075
vn 0.468947 -0.683941 -0.55885
v -3.21932 4.33617 1.6115
vn -0.59779 0.773522 -0.210503
v -1.82759 5.38721 1.65886
vn -0.596638 0.802511 -0.000103521
v -1.76221 5.39101 1.7197
vn 0.890836 0.401323 0.21296
v -1.77348 5.38112 1.72394
vn 0.354844 -0.123322 0.926756
v -2.50675 4.82484 1.66857
vn 0.602465 -0.798145 2.34525e-05
v -3.2427 4.2721 1.6132
vn 0.0213677 -0.37508 -0.926746
v -3.2307 4.32797 1.6158
vn -0.608467 0.793501 -0.0111345
v -1.8305 5.38489 1.72134
vn -0.596353 0.802645 0.0110912
f 1//1 2//2 3//3
f 1//1 3//3 4//4
f 1//1 4//4 5//5
f 1//1 5//5 6//6
f 1//1 6//6 2//2
f 7//7 8//8 9//9
f 10//10 11//11 12//12
f 13//13 14//14 15//15
f 16//16 17//17 18//18
f 19//19 20//20 21//21
f 22//22 23//23 24//24
f 22//22 24//24 25//25
f 22//22 25//25 26//26
f 22//22 26//26 27//27
f 22//22 27//27 23//23
f 28//28 29//29 30//30
f 31//31 32//32 33//33
f 34//34 35//35 36//36
f 37//37 38//38 39//39
f 40//40 41//41 42//42
f 13//13 43//43 44//44
f 10//10 45//45 46//46
f 7//7 47//47 48//48
f 19//19 49//49 50//50
f 16//16 51//51 52//52
f 10//10 53//53 45//45
f 13//13 54//54 43//43
f 16//16 55//55 51//51
f 19//19 56//56 49//49
f 7//7 57//57 47//47
f 40//40 58//58 59//59
f 28//28 60//60 61//61
f 31//31 62//62 63//63
f 34//34 64//64 65//65
f 37//37 66//66 67//67
f 40//40 68//68 58//58
f 28//28 69//69 60//60
f 31//31 70//70 62//62
f 34//34 71//71 64//64
f 37//37 72//72 66//66
f 10//10 46//46 11//11
f 7//7 48//48 8//8
f 19//19 50//50 20//20
f 16//16 52//52 17//17
f 13//13 44//44 14//14
f 40//40 42//42 68//68
f 28//28 30//30 69//69
f 31//31 33//33 70//70
f 34//34 36//36 71//71
f 37//37 39//39 72//72
f 28//28 61//61 29//29
f 31//31 63//63 32//32
f 34//34 65//65 35//35
f 37//37 67//67 38//38
f 40//40 59//59 41//41
f 10//10 12//12 53//53
f 13//13 15//15 54//54
f 16//16 18//18 55//55
f 19//19 21//21 56//56
f 7//7 9//9 57//57
f 73//73 74//74 75//75
f 76//76 77//77 78//78
f 79//79 80//80 81//81
f 82//82 83//83 84//84
f 85//85 86//86 87//87
f 88//88 89//89 90//90
f 91//91 92//92 93//93
f 94//94 95//95 96//96
f 97//97 98//98 99//99
f 100//100 101//101 102//102
f 103//103 104//104 105//105
f 106//106 107//107 108//108
f 109//109 110//110 111//111
f 112//112 113//113 114//114
f 115//115 116//116 117//117
f 88//88 118//118 119//119
f 91//91 120//120 121//121
f 94//94 122//122 123//123
f 97//97 124//124 125//125
f 100//100 126//126 127//127
f 128//128 129//129 2//2
f 130//130 131//131 3//3
f 132//132 133//133 4//4
f 134//134 135//135 5//5
f 136//136 137//137 6//6
f 76//76 138//138 8//8
f 73//73 139//139 11//11
f 85//85 140//140 14//14
f 82//82 141//141 17//17
f 79//79 142//142 20//20
f 143//143 144//144 23//23
f 145//145 146//146 24//24
f 147//147 148//148 25//25
f 149//149 150//150 26//26
f 151//151 152//152 27//27
f 103//103 153//153 29//29
f 106//106 154//154 32//32
f 109//109 155//155 35//35
f 112//112 156//156 38//38
f 115//115 157//157 41//41
f 73//73 75//75 43//43
f 76//76 78//78 45//45
f 79//79 81//81 47//47
f 82//82 84//84 49//49
f 85//85 87//87 51//51
f 88//88 90//90 53//53
f 91//91 93//93 54//54
f 94//94 96//96 55//55
f 97//97 99//99 56//56
f 100//100 102//102 57//57
f 103//103 105//105 58//58
f 106//106 108//108 60//60
f 109//109 111//111 62//62
f 112//112 114//114 64//64
f 115//115 117//117 66//66
f 88//88 119//119 68//68
f 91//91 121//121 69//69
f 94//94 123//123 70//70
f 97//97 125//125 71//71
f 100//100 127//127 72//72
f 130//130 74//74 46//46
f 132//132 77//77 48//48
f 134//134 80//80 50//50
f 136//136 83//83 52//52
f 128//128 86//86 44//44
f 158//158 89//89 42//42
f 159//159 92//92 30//30
f 160//160 95//95 33//33
f 161//161 98//98 36//36
f 162//162 101//101 39//39
f 145//145 104//104 61//61
f 147//147 107//107 63//63
f 149//149 110//110 65//65
f 151//151 113//113 67//67
f 143//143 116//116 59//59
f 159//159 118//118 12//12
f 160//160 120//120 15//15
f 161//161 122//122 18//18
f 162//162 124//124 21//21
f 158//158 126//126 9//9
f 130//130 129//129 74//74
f 132//132 131//131 77//77
f 134//134 133//133 80//80
f 136//136 135//135 83//83
f 128//128 137//137 86//86
f 158//158 138//138 89//89
f 159//159 139//139 92//92
f 160//160 140//140 95//95
f 161//161 141//141 98//98
f 162//162 142//142 101//101
f 145//145 144//144 104//104
f 147//147 146//146 107//107
f 149//149 148//148 110//110
f 151//151 150//150 113//113
f 143//143 152//152 116//116
f 159//159 153//153 118//118
f 160//160 154//154 120//120
f 161//161 155//155 122//122
f 162//162 156//156 124//124
f 158//158 157//157 126//126
f 130//130 3//3 129//129
f 132//132 4//4 131//131
f 134//134 5//5 133//133
f 136//136 6//6 135//135
f 128//128 2//2 137//137
f 158//158 9//9 138//138
f 159//159 12//12 139//139
f 160//160 15//15 140//140
f 161//161 18//18 141//141
f 162//162 21//21 142//142
f 145//145 24//24 144//144
f 147//147 25//25 146//146
f 149//149 26//26 148//148
f 151//151 27//27 150//150
f 143//143 23//23 152//152
f 159//159 30//30 153//153
f 160//160 33//33 154//154
f 161//161 36//36 155//155
f 162//162 39//39 156//156
f 158//158 42//42 157//157
f 128//128 44//44 75//75
f 130//130 46//46 78//78
f 132//132 48//48 81//81
f 134//134 50//50 84//84
f 136//136 52//52 87//87
f 76//76 45//45 90//90
f 73//73 43//43 93//93
f 85//85 51//51 96//96
f 82//82 49//49 99//99
f 79//79 47//47 102//102
f 143//143 59//59 105//105
f 145//145 61//61 108//108
f 147//147 63//63 111//111
f 149//149 65//65 114//114
f 151//151 67//67 117//117
f 103//103 58//58 119//119
f 106//106 60//60 121//121
f 109//109 62//62 123//123
f 112//112 64//64 125//125
f 115//115 66//66 127//127
f 73//73 11//11 74//74
f 76//76 8//8 77//77
f 79//79 20//20 80//80
f 82//82 17//17 83//83
f 85//85 14//14 86//86
f 88//88 68//68 89//89
f 91//91 69//69 92//92
f 94//94 70//70 95//95
f 97//97 71//71 98//98
f 100//100 72//72 101//101
f 103//103 29//29 104//104
f 106//106 32//32 107//107
f 109//109 35//35 110//110
f 112//112 38//38 113//113
f 115//115 41//41 116//116
f 88//88 53//53 118//118
f 91//91 54//54 120//120
f 94//94 55//55 122//122
f 97//97 56//56 124//124
f 100//100 57//57 126//126
f 128//128 75//75 129//129
f 130//130 78//78 131//131
f 132//132 81//81 133//133
f 134//134 84//84 135//135
f 136//136 87//87 137//137
f 76//76 90//90 138//138
f 73//73 93//93 139//139
f 85//85 96//96 140//140
f 82//82 99//99 141//141
f 79//79 102//102 142//142
f 143//143 105//105 144//144
f 145//145 108//108 146//146
f 147//147 111//111 148//148
f 149//149 114//114 150//150
f 151//151 117//117 152//152
f 103//103 119//119 153//153
f 106//106 121//121 154//154
f 109//109 123//123 155//155
f 112//112 125//125 156//156
f 115//115 127//127 157//157
f 129//129 3//3 2//2
f 131//131 4//4 3//3
f 133//133 5//5 4//4
f 135//135 6//6 5//5
f 137//137 2//2 6//6
f 138//138 9//9 8//8
f 139//139 12//12 11//11
f 140//140 15//15 14//14
f 141//141 18//18 17//17
f 142//142 21//21 20//20
f 144//144 24//24 23//23
f 146//146 25//25 24//24
f 148//148 26//26 25//25
f 150//150 27//27 26//26
f 152//152 23//23 27//27
f 153//153 30//30 29//29
f 154//154 33//33 32//32
f 155//155 36//36 35//35
f 156//156 39//39 38//38
f 157//157 42//42 41//41
f 75//75 44//44 43//43
f 78//78 46//46 45//45
f 81//81 48//48 47//47
f 84//84 50//50 49//49
f 87//87 52//52 51//51
f 90//90 45//45 53//53
f 93//93 43//43 54//54
f 96//96 51//51 55//55
f 99//99 49//49 56//56
f 102//102 47//47 57//57
f 105//105 59//59 58//58
f 108//108 61//61 60//60
f 111//111 63//63 62//62
f 114//114 65//65 64//64
f 117//117 67//67 66//66
f 119//119 58//58 68//68
f 121//121 60//60 69//69
f 123//123 62//62 70//70
f 125//125 64//64 71//71
f 127//127 66//66 72//72
f 74//74 11//11 46//46
f 77//77 8//8 48//48
f 80//80 20//20 50//50
f 83//83 17//17 52//52
f 86//86 14//14 44//44
f 89//89 68//68 42//42
f 92//92 69//69 30//30
f 95//95 70//70 33//33
f 98//98 71//71 36//36
f 101//101 72//72 39//39
f 104//104 29//29 61//61
f 107//107 32//32 63//63
f 110//110 35//35 65//65
f 113//113 38//38 67//67
f 116//116 41//41 59//59
f 118//118 53//53 12//12
f 120//120 54//54 15//15
f 122//122 55//55 18//18
f 124//124 56//56 21//21
f 126//126 57//57 9//9
f 129//129 75//75 74//74
f 131//131 78//78 77//77
f 133//133 81//81 80//80
f 135//135 84//84 83//83
f 137//137 87//87 86//86
f 138//138 90//90 89//89
f 139//139 93//93 92//92
f 140//140 96//96 95//95
f 141//141 99//99 98//98
f 142//142 102//102 101//101
f 144//144 105//105 104//104
f 146//146 108//108 107//107
f 148//148 111//111 110//110
f 150//150 114//114 113//113
f 152//152 117//117 116//116
f 153//153 119//119 118//118
f 154//154 121//121 120//120
f 155//155 123//123 122//122
f 156//156 125//125 124//124
f 157//157 127//127 126//126
