# Created by Open3D 
# object name: part_034
# number of vertices: 162
# number of triangles: 320
v -1.7924 5.41533 1.73065
vn 0.65078 -0.758564 -0.0326395
v -1.77379 5.43216 1.75065
vn 0.716818 -0.695786 0.0453188
v -1.80517 5.40462 1.75168
vn 0.628716 -0.773353 0.0814886
v -1.83598 5.38019 1.73122
vn 0.603722 -0.796542 -0.0322594
v -1.80605 5.40537 1.71674
vn 0.617545 -0.762162 -0.194288
v -1.77463 5.43287 1.71735
vn 0.712639 -0.690483 -0.124012
v -3.20439 4.35382 1.74379
vn 0.547531 -0.836186 -0.031672
v -3.19031 4.3633 1.76457
vn 0.56922 -0.81808 0.0820524
v -3.22549 4.34079 1.76416
vn 0.469811 -0.881481 0.0476284
v -2.50214 4.88984 1.76056
vn 0.0553671 -0.0613147 0.996582
v -1.84583 5.38672 1.75456
vn 0.0430505 -0.0443002 0.99809
v -2.50769 4.89723 1.7611
vn 0.0272385 -0.0238648 0.999344
v -1.84911 5.56358 1.75746
vn 0.0685951 0.0113094 0.99758
v -1.83998 5.57049 1.75618
vn 0.582538 0.409406 0.702166
v -1.92987 5.67321 1.76148
vn 0.0938312 0.0426154 0.994676
v -1.85006 5.56438 1.71997
vn 0.0180558 0.0538337 -0.998387
v -1.78622 5.45007 1.71539
vn -0.00658371 0.0335087 -0.999417
v -1.94211 5.65753 1.72376
vn -0.00836073 0.0358736 -0.999321
v -2.3573 5.00032 1.71987
vn 0.00481865 -0.0187824 -0.999812
v -3.12771 4.41598 1.7273
vn 0.0470048 -0.0752058 -0.99606
v -3.16278 4.39825 1.72741
vn -0.00816495 -0.00202027 -0.999965
v -3.38856 4.59891 1.75367
vn -0.650778 0.758566 0.0326395
v -3.40616 4.58123 1.77385
vn -0.712858 0.692453 0.111101
v -3.37473 4.60873 1.77447
vn -0.622952 0.768507 0.146041
v -3.34497 4.63404 1.75354
vn -0.603722 0.796542 0.0322613
v -3.37562 4.60948 1.73953
vn -0.625761 0.769077 -0.130165
v -3.407 4.58193 1.74056
vn -0.717257 0.694365 -0.0583062
v -2.67765 5.12342 1.76998
vn -0.00481792 0.0187814 0.999812
v -3.33396 4.62654 1.77604
vn 0.007537 0.00173691 0.99997
v -2.67209 5.11602 1.76993
vn 0.0233735 -0.0187211 0.999552
v -1.97657 5.66043 1.74054
vn -0.54753 0.836186 0.031672
v -1.98959 5.65006 1.76158
vn -0.563459 0.813233 0.145489
v -1.95445 5.6726 1.76035
vn -0.465854 0.878147 0.108799
v -2.53281 5.23389 1.72929
vn -0.0553713 0.0613202 -0.996581
v -2.05405 5.59895 1.72532
vn -0.0982655 0.118903 -0.988031
v -2.019 5.61669 1.72441
vn -0.042524 0.0449879 -0.998082
v -3.33168 4.45052 1.73375
vn -0.0685952 -0.0113095 -0.99758
v -3.39555 4.56485 1.73728
vn -0.0440142 0.00906978 -0.99899
v -3.23966 4.35739 1.72891
vn -0.0422372 0.00670471 -0.999085
v -3.33073 4.44972 1.77124
vn -0.0180558 -0.0538337 0.998387
v -3.33992 4.44286 1.77014
vn -0.546708 -0.439545 0.712679
v -3.24999 4.3401 1.7665
vn -0.043439 -0.0850139 0.995432
v -1.78524 5.44925 1.75393
vn 0.0440142 -0.00906975 0.99899
v -1.76629 5.45552 1.7527
vn 0.105563 0.0270038 0.994046
v -3.12674 4.41515 1.76589
vn 0.0977246 -0.118147 0.988176
v -1.87262 5.35798 1.75422
vn 0.0980903 -0.117863 0.988173
v -3.19119 4.36404 1.72963
vn 0.558295 -0.806705 -0.193737
v -3.15853 4.38592 1.74353
vn 0.597085 -0.801532 -0.0321994
v -1.84683 5.38756 1.71517
vn -0.00732498 -0.00185622 -0.999971
v -1.8736 5.3588 1.71563
vn 0.0484463 -0.0763454 -0.995904
v -1.84087 5.57124 1.72107
vn 0.435081 0.360206 -0.825201
v -1.76723 5.45631 1.71592
vn 0.0551689 0.0694008 -0.996062
v -3.16178 4.39741 1.7668
vn 0.042461 -0.0447413 0.998096
v -1.94113 5.65671 1.7623
vn 0.0422372 -0.00670468 0.999085
v -1.9308 5.67399 1.7247
vn 0.0434391 0.085014 -0.995432
v -2.36106 5.00908 1.71991
vn -0.0233737 0.0187213 -0.999551
v -3.22634 4.3415 1.73086
vn 0.463863 -0.877508 -0.1217
v -3.39457 4.56403 1.77582
vn 0.00658369 -0.0335087 0.999417
v -3.41356 4.55779 1.77528
vn -0.0551688 -0.0694007 0.996062
v -2.05307 5.59812 1.76391
vn -0.0474775 0.0758637 0.995987
v -3.30718 4.6553 1.77557
vn -0.0478476 0.0755857 0.995991
v -1.99048 5.6508 1.72664
vn -0.566509 0.81362 -0.130731
v -2.02242 5.62832 1.74123
vn -0.597085 0.801532 0.0321994
v -3.33496 4.62738 1.73665
vn -0.0429192 0.0442317 -0.998099
v -3.30816 4.65612 1.73699
vn -0.0975782 0.11721 -0.988302
v -3.34081 4.44361 1.73502
vn -0.476663 -0.32523 -0.816711
v -3.41449 4.55858 1.73851
vn -0.105564 -0.0270039 -0.994046
v -3.23868 4.35657 1.76745
vn 0.00836073 -0.0358736 0.999321
v -2.01801 5.61585 1.7638
vn 0.0081276 0.00217612 0.999965
v -1.95529 5.67331 1.72705
vn -0.468485 0.881389 -0.0606257
v -2.52545 5.22786 1.72873
vn -0.0272395 0.023866 -0.999344
v -3.25092 4.34089 1.72973
vn -0.0938314 -0.0426155 -0.994676
v -1.80421 5.42399 1.75417
vn 0.0342848 -0.0208482 0.999195
v -1.80997 5.40817 1.75367
vn 0.090286 -0.0929864 0.991565
v -1.77873 5.43755 1.7532
vn 0.0904736 -0.0614513 0.994001
v -3.16776 4.38143 1.76557
vn 0.228281 -0.295894 0.927542
v -3.1246 4.41081 1.76394
vn 0.598696 -0.796744 0.0822308
v -2.49784 4.8841 1.75941
vn 0.234557 -0.300559 0.924471
v -3.1687 4.38223 1.72826
vn 0.181703 -0.256608 -0.949282
v -2.3598 4.98939 1.72062
vn 0.187165 -0.260682 -0.947108
v -3.12549 4.41155 1.72896
vn 0.585895 -0.783338 -0.207625
v -1.8052 5.42483 1.71503
vn -0.0163249 0.0217368 -0.99963
v -1.77969 5.43836 1.71529
vn 0.0400152 -0.0189943 -0.999019
v -1.81094 5.40899 1.71515
vn 0.0399209 -0.0506113 -0.99792
v -1.8376 5.57314 1.73493
vn 0.799292 0.600896 -0.00743377
v -1.75897 5.4609 1.75091
vn 0.842529 0.495718 0.210732
v -1.75982 5.46161 1.71757
vn 0.82381 0.502286 -0.262765
v -3.20915 4.36778 1.76724
vn 0.0223815 -0.0297974 0.999305
v -3.22927 4.34706 1.76669
vn 0.0457197 -0.0951062 0.994417
v -3.19236 4.36891 1.76653
vn 0.0760423 -0.103718 0.991696
v -1.97064 5.64548 1.76311
vn 0.0282295 -0.0127877 0.99952
v -2.0092 5.60569 1.76355
vn 0.0252047 -0.0205384 0.999471
v -1.88389 5.53739 1.7587
vn 0.0311116 -0.0169285 0.999373
v -1.94106 5.67777 1.72566
vn -0.165018 0.722944 -0.67091
v -1.93744 5.68084 1.73981
vn -0.19244 0.98097 0.0257715
v -1.92358 5.67955 1.72636
vn 0.701636 0.664878 -0.25621
v -2.44268 5.1189 1.72424
vn -0.0253064 0.0212934 -0.999453
v -2.0102 5.60654 1.72378
vn -0.0253301 0.0221094 -0.999435
v -1.85414 5.39884 1.7154
vn -0.0245295 0.0210436 -0.999478
v -3.24062 4.33709 1.73
vn 0.130085 -0.693555 -0.708562
v -3.23023 4.34787 1.72879
vn -0.00474519 -0.0526374 -0.998602
v -3.21463 4.35075 1.72906
vn 0.121292 -0.233818 -0.964685
v -3.37558 4.58927 1.77618
vn 0.0163249 -0.0217368 0.99963
v -3.36984 4.60511 1.77605
vn -0.0399211 0.0506115 0.99792
v -3.4011 4.57574 1.77592
vn -0.0400155 0.0189946 0.999018
v -2.01208 5.63187 1.76294
vn -0.180747 0.255896 0.949657
v -2.0553 5.60255 1.76225
vn -0.592911 0.791876 0.146247
v -2.682 5.1292 1.76929
vn -0.187164 0.26068 0.947109
v -2.01303 5.63267 1.72564
vn -0.226949 0.294903 -0.928184
v -2.54397 5.23448 1.73051
vn -0.234555 0.300558 -0.924472
v -2.05618 5.60329 1.72727
vn -0.596329 0.793137 -0.123793
v -3.37657 4.5901 1.73704
vn -0.0342848 0.0208482 -0.999195
v -3.40206 4.57655 1.73801
vn -0.0904738 0.0614517 -0.994001
v -3.37082 4.60593 1.73754
vn -0.0902865 0.0929869 -0.991565
v -3.34337 4.44112 1.74894
vn -0.799293 -0.600896 0.00743238
v -3.42097 4.55249 1.77364
vn -0.831324 -0.505147 0.231789
v -3.42181 4.5532 1.7403
vn -0.836587 -0.491535 -0.2419
v -3.17058 4.40756 1.76743
vn 0.0254082 -0.0220485 0.999434
v -3.2959 4.47587 1.77184
vn 0.0195001 -0.025658 0.999481
v -1.95056 5.66623 1.76242
vn 0.0047427 0.052641 0.998602
v -1.98745 5.64437 1.76319
vn -0.0256637 0.061326 0.997788
v -1.95152 5.66704 1.72451
vn -0.0457197 0.0951062 -0.994417
v -1.96709 5.66413 1.72545
vn -0.169683 0.274536 -0.946487
v -3.17159 4.40841 1.72766
vn -0.0251539 0.0205783 -0.999472
v -3.32765 4.6161 1.73603
vn -0.0259509 0.0216389 -0.999429
v -3.24353 4.33341 1.74417
vn 0.19244 -0.98097 -0.0257715
v -3.25805 4.33526 1.73151
vn -0.714414 -0.654126 -0.248457
v -1.76553 5.4446 1.75183
vn 0.747685 -0.397424 0.531997
v -1.78586 5.4234 1.75247
vn 0.227833 -0.230808 0.945949
v -1.82884 5.38801 1.75311
vn 0.231844 -0.293194 0.927516
v -1.86907 5.3547 1.75225
vn 0.600037 -0.795736 0.0822178
v -2.4969 4.88258 1.73691
vn 0.600409 -0.799043 -0.0322306
v -1.86995 5.35545 1.71728
vn 0.58984 -0.785455 -0.187481
v -1.82979 5.3888 1.71581
vn 0.183707 -0.251612 -0.950233
v -1.78679 5.42418 1.71577
vn 0.179439 -0.190089 -0.965229
v -1.76643 5.44536 1.71629
vn 0.621665 -0.323997 -0.713133
v -1.76192 5.44726 1.73039
vn 0.888549 -0.457648 -0.0322474
v -3.2137 4.34997 1.76576
vn 0.169683 -0.274537 0.946487
v -1.85313 5.398 1.75518
vn 0.0260035 -0.0216014 0.999428
v -1.92273 5.67884 1.7597
vn 0.718881 0.660273 0.217371
v -1.88489 5.53823 1.71937
vn -0.0195001 0.025658 -0.999481
v -3.19334 4.36973 1.72802
vn 0.0256618 -0.0613225 -0.997788
v -3.41436 4.56874 1.77492
vn -0.719382 0.37361 0.58558
v -3.394 4.58992 1.77544
vn -0.179438 0.190088 0.96523
v -3.351 4.6253 1.7754
vn -0.184308 0.253193 0.949697
v -3.31084 4.65865 1.77393
vn -0.594252 0.790869 0.146255
v -2.68407 5.13167 1.74696
vn -0.600409 0.799043 0.0322316
v -3.31172 4.6594 1.73895
vn -0.596179 0.789804 -0.14415
v -3.35195 4.62609 1.7381
vn -0.232244 0.294285 -0.92707
v -3.39493 4.5907 1.73873
vn -0.227831 0.230805 -0.94595
v -3.41526 4.5695 1.73937
vn -0.656596 0.353384 -0.666334
v -3.41905 4.56699 1.75359
vn -0.88855 0.457645 0.0322457
v -3.32665 4.61525 1.77581
vn 0.0246097 -0.0209857 0.999477
v -1.96616 5.66335 1.76215
vn -0.121292 0.233818 0.964685
v -1.98843 5.64519 1.72468
vn -0.0760423 0.103718 -0.991696
v -3.29689 4.47671 1.7325
vn -0.0311116 0.0169285 -0.999373
v -3.25721 4.33455 1.76485
vn -0.707676 -0.669703 0.225151
v -3.23972 4.33633 1.76555
vn 0.180424 -0.823885 0.537272
v -2.58989 5.00662 1.76559
vn 0.0253065 -0.0212935 0.999453
v -1.94016 5.67701 1.76121
vn -0.15212 0.800068 0.580303
v -1.97163 5.64632 1.72397
vn -0.0223815 0.0297975 -0.999305
v -3.21014 4.36862 1.7281
vn -0.0282295 0.0127877 -0.99952
f 1//1 2//2 3//3
f 1//1 3//3 4//4
f 1//1 4//4 5//5
f 1//1 5//5 6//6
f 1//1 6//6 2//2
f 7//7 8//8 9//9
f 10//10 11//11 12//12
f 13//13 14//14 15//15
f 16//16 17//17 18//18
f 19//19 20//20 21//21
f 22//22 23//23 24//24
f 22//22 24//24 25//25
f 22//22 25//25 26//26
f 22//22 26//26 27//27
f 22//22 27//27 23//23
f 28//28 29//29 30//30
f 31//31 32//32 33//33
f 34//34 35//35 36//36
f 37//37 38//38 39//39
f 40//40 41//41 42//42
f 13//13 43//43 44//44
f 10//10 45//45 46//46
f 7//7 47//47 48//48
f 19//19 49//49 50//50
f 16//16 51//51 52//52
f 10//10 53//53 45//45
f 13//13 54//54 43//43
f 16//16 55//55 51//51
f 19//19 56//56 49//49
f 7//7 57//57 47//47
f 40//40 58//58 59//59
f 28//28 60//60 61//61
f 31//31 62//62 63//63
f 34//34 64//64 65//65
f 37//37 66//66 67//67
f 40//40 68//68 58//58
f 28//28 69//69 60//60
f 31//31 70//70 62//62
f 34//34 71//71 64//64
f 37//37 72//72 66//66
f 10//10 46//46 11//11
f 7//7 48//48 8//8
f 19//19 50//50 20//20
f 16//16 52//52 17//17
f 13//13 44//44 14//14
f 40//40 42//42 68//68
f 28//28 30//30 69//69
f 31//31 33//33 70//70
f 34//34 36//36 71//71
f 37//37 39//39 72//72
f 28//28 61//61 29//29
f 31//31 63//63 32//32
f 34//34 65//65 35//35
f 37//37 67//67 38//38
f 40//40 59//59 41//41
f 10//10 12//12 53//53
f 13//13 15//15 54//54
f 16//16 18//18 55//55
f 19//19 21//21 56//56
f 7//7 9//9 57//57
f 73//73 74//74 75//75
f 76//76 77//77 78//78
f 79//79 80//80 81//81
f 82//82 83//83 84//84
f 85//85 86//86 87//87
f 88//88 89//89 90//90
f 91//91 92//92 93//93
f 94//94 95//95 96//96
f 97//97 98//98 99//99
f 100//100 101//101 102//102
f 103//103 104//104 105//105
f 106//106 107//107 108//108
f 109//109 110//110 111//111
f 112//112 113//113 114//114
f 115//115 116//116 117//117
f 88//88 118//118 119//119
f 91//91 120//120 121//121
f 94//94 122//122 123//123
f 97//97 124//124 125//125
f 100//100 126//126 127//127
f 128//128 129//129 2//2
f 130//130 131//131 3//3
f 132//132 133//133 4//4
f 134//134 135//135 5//5
f 136//136 137//137 6//6
f 76//76 138//138 8//8
f 73//73 139//139 11//11
f 85//85 140//140 14//14
f 82//82 141//141 17//17
f 79//79 142//142 20//20
f 143//143 144//144 23//23
f 145//145 146//146 24//24
f 147//147 148//148 25//25
f 149//149 150//150 26//26
f 151//151 152//152 27//27
f 103//103 153//153 29//29
f 106//106 154//154 32//32
f 109//109 155//155 35//35
f 112//112 156//156 38//38
f 115//115 157//157 41//41
f 73//73 75//75 43//43
f 76//76 78//78 45//45
f 79//79 81//81 47//47
f 82//82 84//84 49//49
f 85//85 87//87 51//51
f 88//88 90//90 53//53
f 91//91 93//93 54//54
f 94//94 96//96 55//55
f 97//97 99//99 56//56
f 100//100 102//102 57//57
f 103//103 105//105 58//58
f 106//106 108//108 60//60
f 109//109 111//111 62//62
f 112//112 114//114 64//64
f 115//115 117//117 66//66
f 88//88 119//119 68//68
f 91//91 121//121 69//69
f 94//94 123//123 70//70
f 97//97 125//125 71//71
f 100//100 127//127 72//72
f 130//130 74//74 46//46
f 132//132 77//77 48//48
f 134//134 80//80 50//50
f 136//136 83//83 52//52
f 128//128 86//86 44//44
f 158//158 89//89 42//42
f 159//159 92//92 30//30
f 160//160 95//95 33//33
f 161//161 98//98 36//36
f 162//162 101//101 39//39
f 145//145 104//104 61//61
f 147//147 107//107 63//63
f 149//149 110//110 65//65
f 151//151 113//113 67//67
f 143//143 116//116 59//59
f 159//159 118//118 12//12
f 160//160 120//120 15//15
f 161//161 122//122 18//18
f 162//162 124//124 21//21
f 158//158 126//126 9//9
f 130//130 129//129 74//74
f 132//132 131//131 77//77
f 134//134 133//133 80//80
f 136//136 135//135 83//83
f 128//128 137//137 86//86
f 158//158 138//138 89//89
f 159//159 139//139 92//92
f 160//160 140//140 95//95
f 161//161 141//141 98//98
f 162//162 142//142 101//101
f 145//145 144//144 104//104
f 147//147 146//146 107//107
f 149//149 148//148 110//110
f 151//151 150//150 113//113
f 143//143 152//152 116//116
f 159//159 153//153 118//118
f 160//160 154//154 120//120
f 161//161 155//155 122//122
f 162//162 156//156 124//124
f 158//158 157//157 126//126
f 130//130 3//3 129//129
f 132//132 4//4 131//131
f 134//134 5//5 133//133
f 136//136 6//6 135//135
f 128//128 2//2 137//137
f 158//158 9//9 138//138
f 159//159 12//12 139//139
f 160//160 15//15 140//140
f 161//161 18//18 141//141
f 162//162 21//21 142//142
f 145//145 24//24 144//144
f 147//147 25//25 146//146
f 149//149 26//26 148//148
f 151//151 27//27 150//150
f 143//143 23//23 152//152
f 159//159 30//30 153//153
f 160//160 33//33 154//154
f 161//161 36//36 155//155
f 162//162 39//39 156//156
f 158//158 42//42 157//157
f 128//128 44//44 75//75
f 130//130 46//46 78//78
f 132//132 48//48 81//81
f 134//134 50//50 84//84
f 136//136 52//52 87//87
f 76//76 45//45 90//90
f 73//73 43//43 93//93
f 85//85 51//51 96//96
f 82//82 49//49 99//99
f 79//79 47//47 102//102
f 143//143 59//59 105//105
f 145//145 61//61 108//108
f 147//147 63//63 111//111
f 149//149 65//65 114//114
f 151//151 67//67 117//117
f 103//103 58//58 119//119
f 106//106 60//60 121//121
f 109//109 62//62 123//123
f 112//112 64//64 125//125
f 115//115 66//66 127//127
f 73//73 11//11 74//74
f 76//76 8//8 77//77
f 79//79 20//20 80//80
f 82//82 17//17 83//83
f 85//85 14//14 86//86
f 88//88 68//68 89//89
f 91//91 69//69 92//92
f 94//94 70//70 95//95
f 97//97 71//71 98//98
f 100//100 72//72 101//101
f 103//103 29//29 104//104
f 106//106 32//32 107//107
f 109//109 35//35 110//110
f 112//112 38//38 113//113
f 115//115 41//41 116//116
f 88//88 53//53 118//118
f 91//91 54//54 120//120
f 94//94 55//55 122//122
f 97//97 56//56 124//124
f 100//100 57//57 126//126
f 128//128 75//75 129//129
f 130//130 78//78 131//131
f 132//132 81//81 133//133
f 134//134 84//84 135//135
f 136//136 87//87 137//137
f 76//76 90//90 138//138
f 73//73 93//93 139//139
f 85//85 96//96 140//140
f 82//82 99//99 141//141
f 79//79 102//102 142//142
f 143//143 105//105 144//144
f 145//145 108//108 146//146
f 147//147 111//111 148//148
f 149//149 114//114 150//150
f 151//151 117//117 152//152
f 103//103 119//119 153//153
f 106//106 121//121 154//154
f 109//109 123//123 155//155
f 112//112 125//125 156//156
f 115//115 127//127 157//157
f 129//129 3//3 2//2
f 131//131 4//4 3//3
f 133//133 5//5 4//4
f 135//135 6//6 5//5
f 137//137 2//2 6//6
f 138//138 9//9 8//8
f 139//139 12//12 11//11
f 140//140 15//15 14//14
f 141//141 18//18 17//17
f 142//142 21//21 20//20
f 144//144 24//24 23//23
f 146//146 25//25 24//24
f 148//148 26//26 25//25
f 150//150 27//27 26//26
f 152//152 23//23 27//27
f 153//153 30//30 29//29
f 154//154 33//33 32//32
f 155//155 36//36 35//35
f 156//156 39//39 38//38
f 157//157 42//42 41//41
f 75//75 44//44 43//43
f 78//78 46//46 45//45
f 81//81 48//48 47//47
f 84//84 50//50 49//49
f 87//87 52//52 51//51
f 90//90 45//45 53//53
f 93//93 43//43 54//54
f 96//96 51//51 55//55
f 99//99 49//49 56//56
f 102//102 47//47 57//57
f 105//105 59//59 58//58
f 108//108 61//61 60//60
f 111//111 63//63 62//62
f 114//114 65//65 64//64
f 117//117 67//67 66//66
f 119//119 58//58 68//68
f 121//121 60//60 69//69
f 123//123 62//62 70//70
f 125//125 64//64 71//71
f 127//127 66//66 72//72
f 74//74 11//11 46//46
f 77//77 8//8 48//48
f 80//80 20//20 50//50
f 83//83 17//17 52//52
f 86//86 14//14 44//44
f 89//89 68//68 42//42
f 92//92 69//69 30//30
f 95//95 70//70 33//33
f 98//98 71//71 36//36
f 101//101 72//72 39//39
f 104//104 29//29 61//61
f 107//107 32//32 63//63
f 110//110 35//35 65//65
f 113//113 38//38 67//67
f 116//116 41//41 59//59
f 118//118 53//53 12//12
f 120//120 54//54 15//15
f 122//122 55//55 18//18
f 124//124 56//56 21//21
f 126//126 57//57 9//9
f 129//129 75//75 74//74
f 131//131 78//78 77//77
f 133//133 81//81 80//80
f 135//135 84//84 83//83
f 137//137 87//87 86//86
f 138//138 90//90 89//89
f 139//139 93//93 92//92
f 140//140 96//96 95//95
f 141//141 99//99 98//98
f 142//142 102//102 101//101
f 144//144 105//105 104//104
f 146//146 108//108 107//107
f 148//148 111//111 110//110
f 150//150 114//114 113//113
f 152//152 117//117 116//116
f 153//153 119//119 118//118
f 154//154 121//121 120//120
f 155//155 123//123 122//122
f 156//156 125//125 124//124
f 157//157 127//127 126//126
