# Created by Open3D 
# object name: part_007
# number of vertices: 162
# number of triangles: 320
v 0.941574 1.93628 -0.123313
vn -0.222311 0.201716 -0.953881
v 0.981159 1.85292 -0.145328
vn -0.373051 -0.0364915 -0.927093
v 0.889513 1.96954 -0.100921
vn -0.512611 -0.0293563 -0.858119
v 0.821246 2.09148 -0.0560735
vn -0.255686 0.244851 -0.935239
v 0.916762 1.99137 -0.102656
vn 0.186592 0.505001 -0.842708
v 1.00713 1.87372 -0.146981
vn 0.078609 0.320518 -0.943975
v -2.7979 6.78869 2.19713
vn -0.292597 0.292916 -0.910267
v -2.77885 6.72968 2.1754
vn -0.550384 0.0196716 -0.83468
v -2.86351 6.84183 2.24039
vn -0.535708 0.174577 -0.82616
v -0.939619 4.34173 1.06184
vn -0.78308 -0.620858 0.0363507
v 0.805459 2.07809 -0.0102933
vn -0.781536 -0.622452 0.0418938
v -0.93137 4.33347 1.09241
vn -0.779729 -0.624215 0.0487706
v 1.15627 1.66848 0.326707
vn -0.771056 -0.635216 0.0444313
v 1.18146 1.63774 0.311591
vn -0.60436 -0.795487 -0.0441392
v 1.28347 1.54585 0.77452
vn -0.764121 -0.643621 0.0432579
v 1.18551 1.6919 0.324846
vn 0.787768 0.61353 -0.0548014
v 1.03027 1.85432 -0.0804412
vn 0.782806 0.620078 -0.0521424
v 1.26694 1.62697 0.776384
vn 0.783022 0.619869 -0.0513601
v -0.522709 3.86513 0.820222
vn 0.775753 0.627896 -0.062877
v -2.57366 6.5246 2.07683
vn 0.770154 0.632616 -0.0816073
v -2.64895 6.62508 2.15037
vn 0.777308 0.626511 -0.0572414
v -2.5183 6.5201 3.20939
vn 0.222311 -0.201717 0.953881
v -2.58922 6.57835 3.2334
vn -0.0440903 -0.297675 0.953649
v -2.49886 6.46071 3.18908
vn -0.0725094 -0.439375 0.895372
v -2.39831 6.36463 3.14217
vn 0.255686 -0.244851 0.935239
v -2.47161 6.48254 3.18734
vn 0.596969 0.122696 0.792827
v -2.56325 6.59915 3.23175
vn 0.401966 0.0644633 0.913383
v -0.673155 4.08576 2.02653
vn -0.775753 -0.627896 0.0628777
v -2.41828 6.34937 3.09867
vn -0.7774 -0.626387 0.0573455
v -0.681784 4.09372 1.99599
vn -0.779259 -0.624666 0.0504721
v 1.22118 1.66768 0.888945
vn 0.292599 -0.292916 0.910267
v 1.16951 1.70057 0.912757
vn -0.0347363 -0.488402 0.871927
v 1.25545 1.58944 0.847681
vn 0.118566 -0.508743 0.852715
v -0.256245 3.60916 1.78491
vn 0.783079 0.620859 -0.0363564
v 1.02166 1.95158 1.00767
vn 0.788041 0.615385 -0.0171042
v 1.09758 1.8516 0.934095
vn 0.78168 0.62227 -0.0419154
v -2.73836 6.78359 2.75971
vn 0.771056 0.635216 -0.0444315
v -2.58231 6.62183 3.16495
vn 0.776155 0.62878 -0.047099
v -2.81898 6.84918 2.30812
vn 0.775939 0.628988 -0.0478812
v -2.7676 6.76017 2.76157
vn -0.787768 -0.613529 0.0548023
v -2.79094 6.7924 2.77657
vn -0.901062 -0.410481 0.139973
v -2.89424 6.88324 2.31373
vn -0.794368 -0.604854 0.055954
v 1.00021 1.83024 -0.0785278
vn -0.776154 -0.628781 0.0470986
v 1.03513 1.78441 -0.124555
vn -0.765552 -0.642246 0.0380731
v -2.60375 6.50049 2.07875
vn -0.787974 -0.615464 0.0173629
v 0.717603 2.19064 0.0177598
vn -0.787903 -0.615556 0.0173153
v -2.7516 6.7515 2.17366
vn 0.151252 0.550846 -0.820787
v -2.68137 6.63654 2.11739
vn -0.260196 0.250719 -0.932437
v 0.836182 2.10271 -0.0122491
vn 0.777399 0.626383 -0.0574146
v 0.747699 2.21475 0.0158438
vn 0.77008 0.632638 -0.082129
v 1.20885 1.65967 0.309847
vn 0.87124 0.477444 -0.113967
v 1.06381 1.80739 -0.126381
vn 0.792935 0.606231 -0.0611381
v -2.67967 6.60047 2.15232
vn -0.78165 -0.622304 0.0419612
v 1.23688 1.60289 0.778297
vn -0.775938 -0.628989 0.0478809
v 1.31215 1.56883 0.772694
vn 0.794368 0.604855 -0.0559537
v -0.509303 3.85098 0.847797
vn 0.779259 0.624666 -0.0504722
v -2.83754 6.86264 2.23874
vn -0.0833163 0.530632 -0.843498
v -2.61237 6.59775 3.16686
vn -0.782807 -0.620077 0.052143
v -2.6459 6.64468 3.2128
vn -0.792936 -0.60623 0.0611392
v 0.991562 1.92747 1.00959
vn -0.770084 -0.632673 0.0818244
v -2.32979 6.23732 3.07058
vn -0.770156 -0.63258 0.0818671
v 1.19676 1.7224 0.911022
vn 0.632301 0.0768487 0.770902
v 1.10431 1.81956 0.968705
vn 0.2602 -0.250716 0.932436
v -2.38755 6.37398 3.09671
vn 0.781534 0.622451 -0.0419414
v -2.2997 6.26143 3.06866
vn 0.787852 0.615615 -0.0175331
v -2.76356 6.81434 2.77483
vn 0.661119 0.750102 0.0164187
v -2.61722 6.66766 3.21097
vn 0.765553 0.642245 -0.0380741
v -2.84904 6.8251 2.31004
vn -0.783023 -0.619869 0.0513603
v 1.06686 1.82699 0.936051
vn -0.777287 -0.626533 0.0572745
v 1.28141 1.61024 0.846028
vn 0.563891 -0.14565 0.812904
v -0.259717 3.61122 1.75138
vn 0.779729 0.624215 -0.0487708
v -2.86556 6.90622 2.3119
vn 0.76412 0.643622 -0.0432578
v 0.927755 1.92108 -0.0676305
vn -0.778714 -0.625572 0.0475777
v 0.889751 1.96808 -0.0794952
vn -0.7849 -0.619191 0.0231144
v 0.98452 1.84704 -0.119984
vn -0.780216 -0.624883 0.0280086
v -2.71767 6.64865 2.14072
vn -0.802275 -0.595135 -0.0465716
v -2.60863 6.50829 2.06394
vn -0.532966 -0.00510182 -0.846121
v -0.945468 4.34862 1.03801
vn -0.802365 -0.594801 -0.0492166
v -2.68858 6.67196 2.13887
vn 0.748345 0.647112 -0.145694
v -0.548144 3.89441 0.807746
vn 0.747913 0.647107 -0.147914
v -2.58135 6.53014 2.0622
vn 0.197884 0.543532 -0.81573
v 0.958281 1.94553 -0.0695738
vn 0.78027 0.623305 -0.0516656
v 1.01409 1.87073 -0.121866
vn 0.778408 0.623707 -0.0712093
v 0.919787 1.99214 -0.0814074
vn 0.773498 0.629215 -0.0760861
v 1.20574 1.64098 0.305746
vn 0.570831 -0.740731 -0.354218
v 1.05558 1.76064 -0.1371
vn -0.0895902 -0.944332 -0.31656
v 1.08158 1.78147 -0.138755
vn 0.92927 -0.0755023 -0.361602
v -2.79305 6.74926 2.24123
vn -0.781006 -0.622598 0.0489989
v -2.85706 6.83195 2.26382
vn -0.78886 -0.613666 0.0333703
v -2.77134 6.71878 2.19231
vn -0.787656 -0.615615 0.0248285
v 1.18043 1.67835 0.847135
vn -0.777978 -0.62628 0.0502427
v 1.05646 1.83605 0.890558
vn -0.779389 -0.624562 0.0497615
v 1.06337 1.78751 0.38395
vn -0.778375 -0.62589 0.0489275
v 1.30749 1.5767 0.810929
vn 0.880062 0.449802 0.152216
v 1.30693 1.55447 0.807953
vn 0.473225 -0.535119 0.69979
v 1.3302 1.54263 0.761343
vn 0.970166 -0.114787 -0.213547
v -0.38293 3.72917 1.29864
vn 0.779494 0.624441 -0.0496213
v 1.08748 1.8609 0.888583
vn 0.779616 0.6243 -0.0494899
v 0.850545 2.08851 0.0307827
vn 0.779518 0.624393 -0.0498427
v -2.86186 6.89758 2.27373
vn 0.615516 0.74828 -0.247422
v -2.82749 6.85563 2.26194
vn 0.769765 0.634922 -0.0658456
v -2.80433 6.82243 2.22003
vn 0.748638 0.650922 -0.125867
v -2.54038 6.50654 3.15599
vn -0.78027 -0.623305 0.0516659
v -2.50188 6.45993 3.16783
vn -0.773499 -0.629215 0.0760852
v -2.59618 6.58134 3.20829
vn -0.778409 -0.623706 0.0712098
v 1.10648 1.78011 0.94755
vn -0.748422 -0.647111 0.145301
v 0.99925 1.92193 1.02422
vn -0.0542235 -0.465285 0.883498
v -0.665865 4.08003 2.05027
vn -0.747914 -0.647106 0.147912
v 1.13558 1.80342 0.945698
vn 0.802259 0.595198 0.0460318
v -0.268542 3.62582 1.82
vn 0.802367 0.594797 0.0492287
v 1.02653 1.94378 1.02248
vn 0.605111 0.0868883 0.791386
v -2.50985 6.53099 3.15405
vn 0.778714 0.625573 -0.0475779
v -2.56661 6.60503 3.2064
vn 0.780217 0.624882 -0.0280096
v -2.47185 6.48399 3.16591
vn 0.7849 0.619192 -0.0231143
v -2.78211 6.81568 2.78031
vn -0.570831 0.740731 0.354218
v -2.66368 6.67061 3.22517
vn -0.914095 0.140301 0.380455
v -2.63768 6.69143 3.22352
vn 0.154476 0.943672 0.292611
v -2.66958 6.59117 2.19784
vn -0.7796 -0.62432 0.0494811
v -2.67615 6.63998 2.70442
vn -0.780611 -0.622989 0.050315
v 1.2454 1.59644 0.824483
vn -0.769766 -0.634922 0.0658447
v 1.15921 1.70924 0.896024
vn -0.770741 -0.632793 0.0743753
v 1.27496 1.62012 0.822601
vn 0.78886 0.613666 -0.0333718
v 1.25086 1.65258 0.864566
vn 0.804531 0.593297 0.0269949
v -2.63855 6.61603 2.19586
vn 0.779399 0.624549 -0.0497673
v -2.40162 6.38842 3.05366
vn 0.779495 0.624456 -0.0494167
v -2.88339 6.90211 2.27811
vn -0.473225 0.535119 -0.69979
v -2.8863 6.93026 2.32342
vn 0.11358 0.982956 0.144557
v 1.01463 1.80919 -0.147179
vn -0.719798 -0.60681 -0.337154
v 0.948499 1.89261 -0.124641
vn -0.792863 -0.608437 -0.0342471
v 0.828282 2.04736 -0.0596373
vn -0.80155 -0.596074 -0.0470429
v 0.716511 2.19353 0.000604244
vn -0.532117 -0.00620733 -0.846648
v -0.930265 4.36482 1.02865
vn -0.257943 0.247787 -0.933845
v 0.743791 2.21539 -0.00113252
vn 0.154432 0.51981 -0.840207
v 0.857374 2.07066 -0.0614892
vn 0.749411 0.645966 -0.145298
v 0.977123 1.91554 -0.126463
vn 0.760305 0.63578 -0.133116
v 1.04236 1.8314 -0.148944
vn 0.747116 0.57751 -0.32909
v 1.04046 1.81045 -0.156748
vn 0.00471616 -0.0850626 -0.996364
v -2.83296 6.79949 2.22185
vn -0.804531 -0.593296 -0.0269973
v 0.819521 2.06365 0.0327575
vn -0.779486 -0.624468 0.0494103
v 1.30421 1.52181 0.762998
vn -0.0458746 -0.986325 -0.158301
v 1.09405 1.81209 0.381997
vn 0.780611 0.622989 -0.0503151
v -2.7413 6.74284 2.1904
vn 0.770741 0.632793 -0.0743741
v -2.62445 6.62068 3.23536
vn -0.719563 -0.546237 0.428783
v -2.55922 6.53654 3.21288
vn -0.760304 -0.63578 0.133121
v -2.43947 6.38141 3.14791
vn -0.749149 -0.646166 0.145757
v -2.32589 6.23669 3.08755
vn -0.0550741 -0.464181 0.884026
v -0.646103 4.09184 2.05741
vn 0.257945 -0.247785 0.933845
v -2.29861 6.25854 3.08582
vn 0.634023 0.124583 0.763213
v -2.41038 6.40471 3.14606
vn 0.801672 0.595884 0.0473704
v -2.53059 6.55947 3.21106
vn 0.792861 0.608439 0.0342391
v -2.59673 6.64289 3.2336
vn 0.74846 0.62057 0.233882
v -2.61692 6.64614 3.24281
vn -0.00471651 0.085063 0.996364
v -2.43264 6.36357 3.05564
vn -0.779503 -0.624413 0.0498327
v 1.22224 1.62965 0.866388
vn -0.748635 -0.650923 0.125873
v 1.18924 1.7333 0.894112
vn 0.787656 0.615614 -0.0248296
v -2.64547 6.66456 2.70247
vn 0.778375 0.62589 -0.0489275
v -2.9123 6.90944 2.32508
vn -0.957809 0.182294 0.222194
v -2.88958 6.87537 2.27549
vn -0.900206 -0.372707 -0.225206
v -0.806637 4.21355 1.5442
vn -0.779494 -0.624441 0.0496214
v 1.27976 1.55449 0.812694
vn -0.539153 -0.78034 0.316834
v 1.21096 1.70281 0.845191
vn 0.781007 0.622598 -0.0489992
v -2.76252 6.77372 2.23928
vn 0.777978 0.62628 -0.0502428
f 1//1 2//2 3//3
f 1//1 3//3 4//4
f 1//1 4//4 5//5
f 1//1 5//5 6//6
f 1//1 6//6 2//2
f 7//7 8//8 9//9
f 10//10 11//11 12//12
f 13//13 14//14 15//15
f 16//16 17//17 18//18
f 19//19 20//20 21//21
f 22//22 23//23 24//24
f 22//22 24//24 25//25
f 22//22 25//25 26//26
f 22//22 26//26 27//27
f 22//22 27//27 23//23
f 28//28 29//29 30//30
f 31//31 32//32 33//33
f 34//34 35//35 36//36
f 37//37 38//38 39//39
f 40//40 41//41 42//42
f 13//13 43//43 44//44
f 10//10 45//45 46//46
f 7//7 47//47 48//48
f 19//19 49//49 50//50
f 16//16 51//51 52//52
f 10//10 53//53 45//45
f 13//13 54//54 43//43
f 16//16 55//55 51//51
f 19//19 56//56 49//49
f 7//7 57//57 47//47
f 40//40 58//58 59//59
f 28//28 60//60 61//61
f 31//31 62//62 63//63
f 34//34 64//64 65//65
f 37//37 66//66 67//67
f 40//40 68//68 58//58
f 28//28 69//69 60//60
f 31//31 70//70 62//62
f 34//34 71//71 64//64
f 37//37 72//72 66//66
f 10//10 46//46 11//11
f 7//7 48//48 8//8
f 19//19 50//50 20//20
f 16//16 52//52 17//17
f 13//13 44//44 14//14
f 40//40 42//42 68//68
f 28//28 30//30 69//69
f 31//31 33//33 70//70
f 34//34 36//36 71//71
f 37//37 39//39 72//72
f 28//28 61//61 29//29
f 31//31 63//63 32//32
f 34//34 65//65 35//35
f 37//37 67//67 38//38
f 40//40 59//59 41//41
f 10//10 12//12 53//53
f 13//13 15//15 54//54
f 16//16 18//18 55//55
f 19//19 21//21 56//56
f 7//7 9//9 57//57
f 73//73 74//74 75//75
f 76//76 77//77 78//78
f 79//79 80//80 81//81
f 82//82 83//83 84//84
f 85//85 86//86 87//87
f 88//88 89//89 90//90
f 91//91 92//92 93//93
f 94//94 95//95 96//96
f 97//97 98//98 99//99
f 100//100 101//101 102//102
f 103//103 104//104 105//105
f 106//106 107//107 108//108
f 109//109 110//110 111//111
f 112//112 113//113 114//114
f 115//115 116//116 117//117
f 88//88 118//118 119//119
f 91//91 120//120 121//121
f 94//94 122//122 123//123
f 97//97 124//124 125//125
f 100//100 126//126 127//127
f 128//128 129//129 2//2
f 130//130 131//131 3//3
f 132//132 133//133 4//4
f 134//134 135//135 5//5
f 136//136 137//137 6//6
f 76//76 138//138 8//8
f 73//73 139//139 11//11
f 85//85 140//140 14//14
f 82//82 141//141 17//17
f 79//79 142//142 20//20
f 143//143 144//144 23//23
f 145//145 146//146 24//24
f 147//147 148//148 25//25
f 149//149 150//150 26//26
f 151//151 152//152 27//27
f 103//103 153//153 29//29
f 106//106 154//154 32//32
f 109//109 155//155 35//35
f 112//112 156//156 38//38
f 115//115 157//157 41//41
f 73//73 75//75 43//43
f 76//76 78//78 45//45
f 79//79 81//81 47//47
f 82//82 84//84 49//49
f 85//85 87//87 51//51
f 88//88 90//90 53//53
f 91//91 93//93 54//54
f 94//94 96//96 55//55
f 97//97 99//99 56//56
f 100//100 102//102 57//57
f 103//103 105//105 58//58
f 106//106 108//108 60//60
f 109//109 111//111 62//62
f 112//112 114//114 64//64
f 115//115 117//117 66//66
f 88//88 119//119 68//68
f 91//91 121//121 69//69
f 94//94 123//123 70//70
f 97//97 125//125 71//71
f 100//100 127//127 72//72
f 130//130 74//74 46//46
f 132//132 77//77 48//48
f 134//134 80//80 50//50
f 136//136 83//83 52//52
f 128//128 86//86 44//44
f 158//158 89//89 42//42
f 159//159 92//92 30//30
f 160//160 95//95 33//33
f 161//161 98//98 36//36
f 162//162 101//101 39//39
f 145//145 104//104 61//61
f 147//147 107//107 63//63
f 149//149 110//110 65//65
f 151//151 113//113 67//67
f 143//143 116//116 59//59
f 159//159 118//118 12//12
f 160//160 120//120 15//15
f 161//161 122//122 18//18
f 162//162 124//124 21//21
f 158//158 126//126 9//9
f 130//130 129//129 74//74
f 132//132 131//131 77//77
f 134//134 133//133 80//80
f 136//136 135//135 83//83
f 128//128 137//137 86//86
f 158//158 138//138 89//89
f 159//159 139//139 92//92
f 160//160 140//140 95//95
f 161//161 141//141 98//98
f 162//162 142//142 101//101
f 145//145 144//144 104//104
f 147//147 146//146 107//107
f 149//149 148//148 110//110
f 151//151 150//150 113//113
f 143//143 152//152 116//116
f 159//159 153//153 118//118
f 160//160 154//154 120//120
f 161//161 155//155 122//122
f 162//162 156//156 124//124
f 158//158 157//157 126//126
f 130//130 3//3 129//129
f 132//132 4//4 131//131
f 134//134 5//5 133//133
f 136//136 6//6 135//135
f 128//128 2//2 137//137
f 158//158 9//9 138//138
f 159//159 12//12 139//139
f 160//160 15//15 140//140
f 161//161 18//18 141//141
f 162//162 21//21 142//142
f 145//145 24//24 144//144
f 147//147 25//25 146//146
f 149//149 26//26 148//148
f 151//151 27//27 150//150
f 143//143 23//23 152//152
f 159//159 30//30 153//153
f 160//160 33//33 154//154
f 161//161 36//36 155//155
f 162//162 39//39 156//156
f 158//158 42//42 157//157
f 128//128 44//44 75//75
f 130//130 46//46 78//78
f 132//132 48//48 81//81
f 134//134 50//50 84//84
f 136//136 52//52 87//87
f 76//76 45//45 90//90
f 73//73 43//43 93//93
f 85//85 51//51 96//96
f 82//82 49//49 99//99
f 79//79 47//47 102//102
f 143//143 59//59 105//105
f 145//145 61//61 108//108
f 147//147 63//63 111//111
f 149//149 65//65 114//114
f 151//151 67//67 117//117
f 103//103 58//58 119//119
f 106//106 60//60 121//121
f 109//109 62//62 123//123
f 112//112 64//64 125//125
f 115//115 66//66 127//127
f 73//73 11//11 74//74
f 76//76 8//8 77//77
f 79//79 20//20 80//80
f 82//82 17//17 83//83
f 85//85 14//14 86//86
f 88//88 68//68 89//89
f 91//91 69//69 92//92
f 94//94 70//70 95//95
f 97//97 71//71 98//98
f 100//100 72//72 101//101
f 103//103 29//29 104//104
f 106//106 32//32 107//107
f 109//109 35//35 110//110
f 112//112 38//38 113//113
f 115//115 41//41 116//116
f 88//88 53//53 118//118
f 91//91 54//54 120//120
f 94//94 55//55 122//122
f 97//97 56//56 124//124
f 100//100 57//57 126//126
f 128//128 75//75 129//129
f 130//130 78//78 131//131
f 132//132 81//81 133//133
f 134//134 84//84 135//135
f 136//136 87//87 137//137
f 76//76 90//90 138//138
f 73//73 93//93 139//139
f 85//85 96//96 140//140
f 82//82 99//99 141//141
f 79//79 102//102 142//142
f 143//143 105//105 144//144
f 145//145 108//108 146//146
f 147//147 111//111 148//148
f 149//149 114//114 150//150
f 151//151 117//117 152//152
f 103//103 119//119 153//153
f 106//106 121//121 154//154
f 109//109 123//123 155//155
f 112//112 125//125 156//156
f 115//115 127//127 157//157
f 129//129 3//3 2//2
f 131//131 4//4 3//3
f 133//133 5//5 4//4
f 135//135 6//6 5//5
f 137//137 2//2 6//6
f 138//138 9//9 8//8
f 139//139 12//12 11//11
f 140//140 15//15 14//14
f 141//141 18//18 17//17
f 142//142 21//21 20//20
f 144//144 24//24 23//23
f 146//146 25//25 24//24
f 148//148 26//26 25//25
f 150//150 27//27 26//26
f 152//152 23//23 27//27
f 153//153 30//30 29//29
f 154//154 33//33 32//32
f 155//155 36//36 35//35
f 156//156 39//39 38//38
f 157//157 42//42 41//41
f 75//75 44//44 43//43
f 78//78 46//46 45//45
f 81//81 48//48 47//47
f 84//84 50//50 49//49
f 87//87 52//52 51//51
f 90//90 45//45 53//53
f 93//93 43//43 54//54
f 96//96 51//51 55//55
f 99//99 49//49 56//56
f 102//102 47//47 57//57
f 105//105 59//59 58//58
f 108//108 61//61 60//60
f 111//111 63//63 62//62
f 114//114 65//65 64//64
f 117//117 67//67 66//66
f 119//119 58//58 68//68
f 121//121 60//60 69//69
f 123//123 62//62 70//70
f 125//125 64//64 71//71
f 127//127 66//66 72//72
f 74//74 11//11 46//46
f 77//77 8//8 48//48
f 80//80 20//20 50//50
f 83//83 17//17 52//52
f 86//86 14//14 44//44
f 89//89 68//68 42//42
f 92//92 69//69 30//30
f 95//95 70//70 33//33
f 98//98 71//71 36//36
f 101//101 72//72 39//39
f 104//104 29//29 61//61
f 107//107 32//32 63//63
f 110//110 35//35 65//65
f 113//113 38//38 67//67
f 116//116 41//41 59//59
f 118//118 53//53 12//12
f 120//120 54//54 15//15
f 122//122 55//55 18//18
f 124//124 56//56 21//21
f 126//126 57//57 9//9
f 129//129 75//75 74//74
f 131//131 78//78 77//77
f 133//133 81//81 80//80
f 135//135 84//84 83//83
f 137//137 87//87 86//86
f 138//138 90//90 89//89
f 139//139 93//93 92//92
f 140//140 96//96 95//95
f 141//141 99//99 98//98
f 142//142 102//102 101//101
f 144//144 105//105 104//104
f 146//146 108//108 107//107
f 148//148 111//111 110//110
f 150//150 114//114 113//113
f 152//152 117//117 116//116
f 153//153 119//119 118//118
f 154//154 121//121 120//120
f 155//155 123//123 122//122
f 156//156 125//125 124//124
f 157//157 127//127 126//126
