# Created by Open3D 
# object name: part_028
# number of vertices: 162
# number of triangles: 320
v -1.38382 4.87179 1.31739
vn 0.0760007 -0.0635968 -0.995078
v -1.3535 4.8696 1.32043
vn 0.131875 -0.0650579 -0.989129
v -1.38379 4.84582 1.31944
vn 0.0956685 -0.111699 -0.989126
v -1.42509 4.84063 1.317
vn 0.0528051 -0.080961 -0.995318
v -1.40462 4.87369 1.31607
vn 0.0221868 -0.0132976 -0.999665
v -1.37335 4.89616 1.31721
vn 0.0871356 -0.00415414 -0.996188
v -2.69254 3.8955 1.33063
vn 0.0263728 -0.100618 -0.994576
v -2.66763 3.88809 1.33243
vn 0.0669501 -0.133116 -0.988837
v -2.69904 3.86584 1.33404
vn 0.0119324 -0.15453 -0.987916
v -2.02457 4.36547 1.32941
vn 0.597755 -0.801512 -0.0163421
v -1.41476 4.82049 1.32447
vn 0.598174 -0.800769 0.0309329
v -2.02463 4.36561 1.33351
vn 0.596136 -0.797911 0.0892191
v -1.3418 4.88373 1.38672
vn 0.641749 -0.760905 0.0958224
v -1.33402 4.89102 1.38652
vn 0.992885 -0.103088 0.0595948
v -1.34414 4.88969 1.44665
vn 0.672228 -0.731025 0.117094
v -1.36415 4.91364 1.38311
vn -0.547762 0.831018 -0.0967732
v -1.37458 4.8996 1.32604
vn -0.576093 0.811249 -0.0999605
v -1.38046 4.90904 1.44034
vn -0.576437 0.811798 -0.0932979
v -1.91285 4.49769 1.32425
vn -0.586206 0.782988 -0.208066
v -2.6289 3.96284 1.32972
vn -0.561194 0.747075 -0.356287
v -2.65795 3.94203 1.33301
vn -0.591426 0.790071 -0.161257
v -2.69949 3.90664 1.46567
vn -0.076001 0.0635983 0.995077
v -2.70586 3.87678 1.46651
vn -0.0901389 0.00920312 0.995887
v -2.67459 3.89925 1.46766
vn -0.0353258 0.0309417 0.998897
v -2.65796 3.93746 1.46611
vn -0.0528053 0.0809611 0.995317
v -2.69541 3.92712 1.46428
vn -0.108706 0.129088 0.985657
v -2.7257 3.90334 1.4633
vn -0.135832 0.0693256 0.988303
v -2.03119 4.37609 1.45811
vn 0.58621 -0.782993 0.208039
v -2.64096 3.92102 1.46306
vn 0.590814 -0.79046 0.16159
v -2.03083 4.37556 1.45405
vn 0.595391 -0.796715 0.103703
v -1.39077 4.88294 1.45243
vn -0.0263748 0.100621 0.994575
v -1.39075 4.85698 1.45467
vn -0.00660894 0.0523611 0.998606
v -1.36032 4.88053 1.4529
vn 0.0298023 0.0986776 0.994673
v -1.91947 4.50831 1.45294
vn -0.597755 0.801512 0.0163484
v -1.47331 4.84089 1.45028
vn -0.587478 0.790319 0.173968
v -1.44474 4.86234 1.44691
vn -0.597458 0.801322 -0.0304471
v -2.7374 3.88921 1.397
vn -0.641746 0.760908 -0.0958218
v -2.7276 3.90408 1.45397
vn -0.615112 0.782946 -0.0929086
v -2.72172 3.89465 1.33967
vn -0.61477 0.782397 -0.0995685
v -2.71506 3.8593 1.40062
vn 0.547757 -0.831022 0.0967735
v -2.72426 3.85391 1.40059
vn -0.183239 -0.980465 0.0714954
v -2.71315 3.85391 1.34062
vn 0.512973 -0.85514 0.0748007
v -1.3516 4.86886 1.32976
vn 0.615111 -0.782947 0.0929095
v -1.33796 4.87979 1.32671
vn 0.674491 -0.734648 0.0731699
v -2.60589 3.93205 1.33345
vn 0.587722 -0.79058 -0.171948
v -1.4435 4.79918 1.32169
vn 0.588112 -0.790289 -0.171952
v -2.68846 3.91596 1.32906
vn -0.00656974 -0.0347471 -0.999375
v -2.65092 3.92617 1.3294
vn 0.0496191 -0.0833357 -0.995285
v -1.43824 4.85192 1.32067
vn -0.590683 0.790455 -0.162094
v -1.4665 4.82997 1.31796
vn -0.560015 0.746264 -0.359825
v -1.35495 4.91903 1.38313
vn 0.0050836 0.99662 -0.0819953
v -1.35989 4.90912 1.32316
vn -0.510717 0.851511 -0.118731
v -2.63447 3.9106 1.33681
vn 0.597537 -0.801244 0.0309367
v -1.35748 4.87829 1.44406
vn 0.61477 -0.782396 0.0995687
v -1.36606 4.91902 1.4431
vn -0.512976 0.855138 -0.0747991
v -1.91153 4.49946 1.32829
vn -0.595391 0.796715 -0.103706
v -2.71889 3.89241 1.33083
vn -0.0337877 -0.0943641 -0.994964
v -2.70463 3.87334 1.45769
vn 0.576093 -0.811249 0.0999612
v -2.71932 3.86381 1.46056
vn 0.510716 -0.851512 0.118728
v -1.45031 4.8101 1.454
vn 0.56086 -0.746573 0.357862
v -2.6127 3.94297 1.46576
vn 0.560469 -0.746862 0.357873
v -1.41158 4.88485 1.4513
vn -0.0799522 0.150538 0.985366
v -1.43213 4.85191 1.4537
vn -0.0496204 0.0833372 0.995285
v -2.66445 3.95245 1.45925
vn -0.598116 0.800801 -0.0312387
v -2.6357 3.97376 1.46204
vn -0.588288 0.790534 0.170217
v -2.74519 3.88192 1.3972
vn -0.957752 0.27837 -0.0722538
v -2.74124 3.89315 1.45701
vn -0.674485 0.734654 -0.0731679
v -2.69875 3.8639 1.34339
vn 0.576438 -0.811797 0.0932993
v -1.42126 4.83091 1.45072
vn 0.591451 -0.789985 0.161583
v -1.38017 4.9071 1.44968
vn -0.014908 0.159535 0.98708
v -1.91773 4.50941 1.44883
vn -0.596136 0.797911 -0.089216
v -2.73507 3.88325 1.33707
vn -0.67222 0.731033 -0.117094
v -1.3737 4.85153 1.32615
vn 0.602761 -0.793377 0.0850422
v -1.38413 4.84365 1.32217
vn 0.600477 -0.790722 -0.119107
v -1.35283 4.86762 1.32389
vn 0.620064 -0.781934 -0.0640323
v -2.64553 3.90316 1.33276
vn 0.490127 -0.667929 -0.560041
v -2.60752 3.93282 1.33116
vn 0.0810997 -0.122803 -0.989112
v -2.02495 4.36594 1.32615
vn 0.487508 -0.661238 -0.570176
v -2.66776 3.93292 1.32916
vn -0.427046 0.560005 -0.709948
v -1.91848 4.49195 1.32123
vn -0.421311 0.55504 -0.717236
v -2.62837 3.96073 1.32778
vn 0.00374968 -0.0192828 -0.999807
v -1.39703 4.88276 1.32237
vn -0.588681 0.801136 -0.107869
v -1.37543 4.89787 1.32023
vn -0.555653 0.791535 -0.254404
v -1.40709 4.87437 1.31845
vn -0.563361 0.766847 -0.307523
v -1.34397 4.90997 1.38445
vn 0.801513 0.597923 -0.00811034
v -1.33225 4.88618 1.32641
vn 0.89746 0.393424 -0.199458
v -1.35212 4.91277 1.32319
vn 0.635042 0.734613 -0.238882
v -2.67589 3.88011 1.33932
vn 0.58985 -0.803009 0.0851672
v -2.69729 3.86467 1.3375
vn 0.572015 -0.817776 -0.0635651
v -2.66542 3.88782 1.33513
vn 0.585302 -0.802044 -0.118943
v -1.37998 4.8616 1.44818
vn 0.601594 -0.791503 0.107734
v -1.42014 4.83079 1.44482
vn 0.596024 -0.796969 0.0979552
v -1.37351 4.85893 1.38714
vn 0.602059 -0.792611 0.096396
v -1.3703 4.91559 1.44726
vn -0.132141 0.522243 0.842497
v -1.35844 4.90688 1.44891
vn 0.130865 0.214874 0.967835
v -1.3583 4.92268 1.44327
vn 0.61354 0.769104 0.179018
v -1.91414 4.5049 1.38854
vn -0.595779 0.797334 -0.0964644
v -1.44385 4.86252 1.44098
vn -0.595447 0.797762 -0.0949656
v -1.43797 4.85308 1.32655
vn -0.595292 0.797514 -0.0979688
v -2.73009 3.88571 1.33303
vn -0.360992 0.137724 -0.922343
v -2.71989 3.89492 1.33384
vn -0.603705 0.755689 -0.253917
v -2.70885 3.90203 1.33068
vn -0.488846 0.589881 -0.642705
v -2.68217 3.89018 1.46135
vn 0.588681 -0.801136 0.10787
v -2.67212 3.89856 1.46527
vn 0.563357 -0.766845 0.307536
v -2.70377 3.87507 1.46349
vn 0.555652 -0.791535 0.254407
v -1.41144 4.84002 1.45457
vn 0.42803 -0.560845 0.708691
v -1.45083 4.81221 1.45594
vn -0.0205427 0.0417597 0.998916
v -2.0319 4.37709 1.46119
vn 0.421269 -0.554983 0.717304
v -1.43368 4.86978 1.45097
vn -0.490669 0.669337 0.557882
v -1.92543 4.50309 1.45627
vn -0.487508 0.661237 0.570177
v -1.47168 4.84012 1.45256
vn -0.0921892 0.137659 0.98618
v -2.7055 3.92141 1.45758
vn -0.602763 0.793376 -0.0850387
v -2.72637 3.90531 1.45983
vn -0.620065 0.781932 0.0640465
v -2.69507 3.92929 1.46155
vn -0.600479 0.790721 0.119103
v -2.73961 3.86883 1.39857
vn -0.801515 -0.59792 0.00810997
v -2.72709 3.86016 1.46053
vn -0.65705 -0.715164 0.238383
v -2.74696 3.88676 1.45732
vn -0.909614 -0.367152 0.194429
v -2.63535 3.91042 1.34274
vn 0.595533 -0.797698 0.0949689
v -2.68225 3.88263 1.40038
vn 0.589464 -0.802007 0.0965229
v -1.35932 4.87802 1.44989
vn 0.603708 -0.75569 0.25391
v -1.39083 4.85439 1.45231
vn 0.578536 -0.755524 0.307374
v -1.38191 4.90827 1.44623
vn -0.572017 0.817777 0.0635396
v -1.39224 4.90019 1.4495
vn -0.492508 0.723464 0.483771
v -2.65906 3.94215 1.3389
vn -0.595969 0.797011 -0.0979555
v -2.66495 3.9516 1.45334
vn -0.596122 0.797257 -0.0949667
v -2.72507 3.87183 1.33411
vn -0.130865 -0.214873 -0.967835
v -2.74078 3.87685 1.33724
vn -0.888113 -0.401639 -0.223475
v -1.34252 4.87666 1.32264
vn 0.398706 -0.19476 -0.89616
v -1.36355 4.86 1.32084
vn 0.546832 -0.6829 -0.484379
v -1.40453 4.82893 1.3202
vn 0.493302 -0.665549 -0.560087
v -1.44381 4.80094 1.31939
vn 0.0817473 -0.122322 -0.989118
v -2.03826 4.38373 1.32289
vn 0.0512124 -0.0821487 -0.995303
v -1.46466 4.82885 1.31601
vn 0.00998456 -0.0262365 -0.999606
v -1.42677 4.85869 1.3166
vn -0.425648 0.565024 -0.706804
v -1.38543 4.88928 1.31729
vn -0.434505 0.630431 -0.643244
v -1.36371 4.90502 1.31921
vn -0.041169 0.376319 -0.925575
v -1.35182 4.89626 1.32022
vn 0.230648 0.0548134 -0.971492
v -2.68697 3.87275 1.33423
vn 0.492495 -0.723449 -0.483808
v -1.41425 4.82134 1.33039
vn 0.596178 -0.797216 0.0949632
v -1.33843 4.89609 1.44648
vn 0.875731 0.428279 0.222874
v -1.39696 4.89031 1.38334
vn -0.589464 0.802007 -0.096523
v -2.68838 3.91855 1.33142
vn -0.578531 0.755516 -0.307404
v -2.71549 3.86792 1.46451
vn -0.0336303 -0.293828 0.955267
v -2.69377 3.88366 1.46643
vn 0.434513 -0.630439 0.64323
v -2.65244 3.91425 1.46712
vn 0.424847 -0.563214 0.708728
v -2.61455 3.94409 1.46771
vn -0.0211898 0.0412778 0.998923
v -2.04532 4.39506 1.46013
vn -0.0512128 0.0821494 0.995303
v -2.6354 3.972 1.46434
vn -0.0983527 0.144499 0.984605
v -2.67467 3.94401 1.46352
vn -0.492446 0.664919 0.561587
v -2.71565 3.91294 1.46289
vn -0.546842 0.682911 0.484351
v -2.73668 3.89628 1.46108
vn -0.451964 0.283651 0.845737
v -2.73169 3.88245 1.46281
vn -0.230649 -0.0548123 0.971492
v -2.64124 3.91986 1.45718
vn 0.595379 -0.797451 0.0979625
v -1.37036 4.87091 1.45304
vn 0.488857 -0.589894 0.642685
v -1.41378 4.88512 1.44859
vn -0.585301 0.802046 0.118931
v -2.7057 3.91401 1.39658
vn -0.60206 0.792611 -0.0963967
v -2.72091 3.85025 1.34046
vn -0.635319 -0.750021 -0.18395
v -2.7089 3.85735 1.33646
vn 0.0614507 -0.446343 -0.892749
v -2.02769 4.37052 1.39379
vn 0.595779 -0.797334 0.0964626
v -1.34911 4.88723 1.45069
vn 0.303624 -0.0422314 0.951856
v -1.40331 4.89283 1.4444
vn -0.589851 0.803009 -0.0851679
v -2.69922 3.91134 1.33554
vn -0.601594 0.791503 -0.107734
f 1//1 2//2 3//3
f 1//1 3//3 4//4
f 1//1 4//4 5//5
f 1//1 5//5 6//6
f 1//1 6//6 2//2
f 7//7 8//8 9//9
f 10//10 11//11 12//12
f 13//13 14//14 15//15
f 16//16 17//17 18//18
f 19//19 20//20 21//21
f 22//22 23//23 24//24
f 22//22 24//24 25//25
f 22//22 25//25 26//26
f 22//22 26//26 27//27
f 22//22 27//27 23//23
f 28//28 29//29 30//30
f 31//31 32//32 33//33
f 34//34 35//35 36//36
f 37//37 38//38 39//39
f 40//40 41//41 42//42
f 13//13 43//43 44//44
f 10//10 45//45 46//46
f 7//7 47//47 48//48
f 19//19 49//49 50//50
f 16//16 51//51 52//52
f 10//10 53//53 45//45
f 13//13 54//54 43//43
f 16//16 55//55 51//51
f 19//19 56//56 49//49
f 7//7 57//57 47//47
f 40//40 58//58 59//59
f 28//28 60//60 61//61
f 31//31 62//62 63//63
f 34//34 64//64 65//65
f 37//37 66//66 67//67
f 40//40 68//68 58//58
f 28//28 69//69 60//60
f 31//31 70//70 62//62
f 34//34 71//71 64//64
f 37//37 72//72 66//66
f 10//10 46//46 11//11
f 7//7 48//48 8//8
f 19//19 50//50 20//20
f 16//16 52//52 17//17
f 13//13 44//44 14//14
f 40//40 42//42 68//68
f 28//28 30//30 69//69
f 31//31 33//33 70//70
f 34//34 36//36 71//71
f 37//37 39//39 72//72
f 28//28 61//61 29//29
f 31//31 63//63 32//32
f 34//34 65//65 35//35
f 37//37 67//67 38//38
f 40//40 59//59 41//41
f 10//10 12//12 53//53
f 13//13 15//15 54//54
f 16//16 18//18 55//55
f 19//19 21//21 56//56
f 7//7 9//9 57//57
f 73//73 74//74 75//75
f 76//76 77//77 78//78
f 79//79 80//80 81//81
f 82//82 83//83 84//84
f 85//85 86//86 87//87
f 88//88 89//89 90//90
f 91//91 92//92 93//93
f 94//94 95//95 96//96
f 97//97 98//98 99//99
f 100//100 101//101 102//102
f 103//103 104//104 105//105
f 106//106 107//107 108//108
f 109//109 110//110 111//111
f 112//112 113//113 114//114
f 115//115 116//116 117//117
f 88//88 118//118 119//119
f 91//91 120//120 121//121
f 94//94 122//122 123//123
f 97//97 124//124 125//125
f 100//100 126//126 127//127
f 128//128 129//129 2//2
f 130//130 131//131 3//3
f 132//132 133//133 4//4
f 134//134 135//135 5//5
f 136//136 137//137 6//6
f 76//76 138//138 8//8
f 73//73 139//139 11//11
f 85//85 140//140 14//14
f 82//82 141//141 17//17
f 79//79 142//142 20//20
f 143//143 144//144 23//23
f 145//145 146//146 24//24
f 147//147 148//148 25//25
f 149//149 150//150 26//26
f 151//151 152//152 27//27
f 103//103 153//153 29//29
f 106//106 154//154 32//32
f 109//109 155//155 35//35
f 112//112 156//156 38//38
f 115//115 157//157 41//41
f 73//73 75//75 43//43
f 76//76 78//78 45//45
f 79//79 81//81 47//47
f 82//82 84//84 49//49
f 85//85 87//87 51//51
f 88//88 90//90 53//53
f 91//91 93//93 54//54
f 94//94 96//96 55//55
f 97//97 99//99 56//56
f 100//100 102//102 57//57
f 103//103 105//105 58//58
f 106//106 108//108 60//60
f 109//109 111//111 62//62
f 112//112 114//114 64//64
f 115//115 117//117 66//66
f 88//88 119//119 68//68
f 91//91 121//121 69//69
f 94//94 123//123 70//70
f 97//97 125//125 71//71
f 100//100 127//127 72//72
f 130//130 74//74 46//46
f 132//132 77//77 48//48
f 134//134 80//80 50//50
f 136//136 83//83 52//52
f 128//128 86//86 44//44
f 158//158 89//89 42//42
f 159//159 92//92 30//30
f 160//160 95//95 33//33
f 161//161 98//98 36//36
f 162//162 101//101 39//39
f 145//145 104//104 61//61
f 147//147 107//107 63//63
f 149//149 110//110 65//65
f 151//151 113//113 67//67
f 143//143 116//116 59//59
f 159//159 118//118 12//12
f 160//160 120//120 15//15
f 161//161 122//122 18//18
f 162//162 124//124 21//21
f 158//158 126//126 9//9
f 130//130 129//129 74//74
f 132//132 131//131 77//77
f 134//134 133//133 80//80
f 136//136 135//135 83//83
f 128//128 137//137 86//86
f 158//158 138//138 89//89
f 159//159 139//139 92//92
f 160//160 140//140 95//95
f 161//161 141//141 98//98
f 162//162 142//142 101//101
f 145//145 144//144 104//104
f 147//147 146//146 107//107
f 149//149 148//148 110//110
f 151//151 150//150 113//113
f 143//143 152//152 116//116
f 159//159 153//153 118//118
f 160//160 154//154 120//120
f 161//161 155//155 122//122
f 162//162 156//156 124//124
f 158//158 157//157 126//126
f 130//130 3//3 129//129
f 132//132 4//4 131//131
f 134//134 5//5 133//133
f 136//136 6//6 135//135
f 128//128 2//2 137//137
f 158//158 9//9 138//138
f 159//159 12//12 139//139
f 160//160 15//15 140//140
f 161//161 18//18 141//141
f 162//162 21//21 142//142
f 145//145 24//24 144//144
f 147//147 25//25 146//146
f 149//149 26//26 148//148
f 151//151 27//27 150//150
f 143//143 23//23 152//152
f 159//159 30//30 153//153
f 160//160 33//33 154//154
f 161//161 36//36 155//155
f 162//162 39//39 156//156
f 158//158 42//42 157//157
f 128//128 44//44 75//75
f 130//130 46//46 78//78
f 132//132 48//48 81//81
f 134//134 50//50 84//84
f 136//136 52//52 87//87
f 76//76 45//45 90//90
f 73//73 43//43 93//93
f 85//85 51//51 96//96
f 82//82 49//49 99//99
f 79//79 47//47 102//102
f 143//143 59//59 105//105
f 145//145 61//61 108//108
f 147//147 63//63 111//111
f 149//149 65//65 114//114
f 151//151 67//67 117//117
f 103//103 58//58 119//119
f 106//106 60//60 121//121
f 109//109 62//62 123//123
f 112//112 64//64 125//125
f 115//115 66//66 127//127
f 73//73 11//11 74//74
f 76//76 8//8 77//77
f 79//79 20//20 80//80
f 82//82 17//17 83//83
f 85//85 14//14 86//86
f 88//88 68//68 89//89
f 91//91 69//69 92//92
f 94//94 70//70 95//95
f 97//97 71//71 98//98
f 100//100 72//72 101//101
f 103//103 29//29 104//104
f 106//106 32//32 107//107
f 109//109 35//35 110//110
f 112//112 38//38 113//113
f 115//115 41//41 116//116
f 88//88 53//53 118//118
f 91//91 54//54 120//120
f 94//94 55//55 122//122
f 97//97 56//56 124//124
f 100//100 57//57 126//126
f 128//128 75//75 129//129
f 130//130 78//78 131//131
f 132//132 81//81 133//133
f 134//134 84//84 135//135
f 136//136 87//87 137//137
f 76//76 90//90 138//138
f 73//73 93//93 139//139
f 85//85 96//96 140//140
f 82//82 99//99 141//141
f 79//79 102//102 142//142
f 143//143 105//105 144//144
f 145//145 108//108 146//146
f 147//147 111//111 148//148
f 149//149 114//114 150//150
f 151//151 117//117 152//152
f 103//103 119//119 153//153
f 106//106 121//121 154//154
f 109//109 123//123 155//155
f 112//112 125//125 156//156
f 115//115 127//127 157//157
f 129//129 3//3 2//2
f 131//131 4//4 3//3
f 133//133 5//5 4//4
f 135//135 6//6 5//5
f 137//137 2//2 6//6
f 138//138 9//9 8//8
f 139//139 12//12 11//11
f 140//140 15//15 14//14
f 141//141 18//18 17//17
f 142//142 21//21 20//20
f 144//144 24//24 23//23
f 146//146 25//25 24//24
f 148//148 26//26 25//25
f 150//150 27//27 26//26
f 152//152 23//23 27//27
f 153//153 30//30 29//29
f 154//154 33//33 32//32
f 155//155 36//36 35//35
f 156//156 39//39 38//38
f 157//157 42//42 41//41
f 75//75 44//44 43//43
f 78//78 46//46 45//45
f 81//81 48//48 47//47
f 84//84 50//50 49//49
f 87//87 52//52 51//51
f 90//90 45//45 53//53
f 93//93 43//43 54//54
f 96//96 51//51 55//55
f 99//99 49//49 56//56
f 102//102 47//47 57//57
f 105//105 59//59 58//58
f 108//108 61//61 60//60
f 111//111 63//63 62//62
f 114//114 65//65 64//64
f 117//117 67//67 66//66
f 119//119 58//58 68//68
f 121//121 60//60 69//69
f 123//123 62//62 70//70
f 125//125 64//64 71//71
f 127//127 66//66 72//72
f 74//74 11//11 46//46
f 77//77 8//8 48//48
f 80//80 20//20 50//50
f 83//83 17//17 52//52
f 86//86 14//14 44//44
f 89//89 68//68 42//42
f 92//92 69//69 30//30
f 95//95 70//70 33//33
f 98//98 71//71 36//36
f 101//101 72//72 39//39
f 104//104 29//29 61//61
f 107//107 32//32 63//63
f 110//110 35//35 65//65
f 113//113 38//38 67//67
f 116//116 41//41 59//59
f 118//118 53//53 12//12
f 120//120 54//54 15//15
f 122//122 55//55 18//18
f 124//124 56//56 21//21
f 126//126 57//57 9//9
f 129//129 75//75 74//74
f 131//131 78//78 77//77
f 133//133 81//81 80//80
f 135//135 84//84 83//83
f 137//137 87//87 86//86
f 138//138 90//90 89//89
f 139//139 93//93 92//92
f 140//140 96//96 95//95
f 141//141 99//99 98//98
f 142//142 102//102 101//101
f 144//144 105//105 104//104
f 146//146 108//108 107//107
f 148//148 111//111 110//110
f 150//150 114//114 113//113
f 152//152 117//117 116//116
f 153//153 119//119 118//118
f 154//154 121//121 120//120
f 155//155 123//123 122//122
f 156//156 125//125 124//124
f 157//157 127//127 126//126
