# Created by Open3D 
# object name: part_009
# number of vertices: 162
# number of triangles: 320
v 1.04388 5.49999 3.09862
vn -0.1303 0.236975 0.962738
v 1.01822 5.50274 3.09049
vn -0.454159 0.387886 0.802049
v 1.03186 5.47983 3.0993
vn -0.338674 -0.047874 0.939685
v 1.06273 5.46982 3.10335
vn 0.0201152 -0.000472245 0.999798
v 1.06143 5.49847 3.09872
vn 0.318612 0.358261 0.877574
v 1.0464 5.5205 3.08993
vn -0.106147 0.606786 0.787746
v 1.63944 4.55411 3.06364
vn 0.189184 -0.270426 0.94397
v 1.6161 4.55193 3.06498
vn -0.158378 -0.334215 0.929095
v 1.63054 4.53024 3.05452
vn 0.179631 -0.618696 0.764819
v 1.32142 5.01511 3.05937
vn -0.845214 -0.533403 0.0330757
v 1.0436 5.45602 3.06713
vn -0.84581 -0.532838 0.0262417
v 1.32033 5.01548 3.03092
vn -0.845798 -0.533206 0.0178137
v 0.995858 5.51975 2.6285
vn -0.888239 -0.458974 0.0193793
v 0.992998 5.52652 2.6287
vn -0.902774 0.428656 0.0353999
v 0.982793 5.52798 2.20986
vn -0.914735 -0.403653 0.0180093
v 1.02758 5.53975 2.62787
vn 0.797236 0.603504 -0.0140332
v 1.04629 5.52359 3.02649
vn 0.826565 0.562637 -0.0151746
v 1.02165 5.53759 2.22852
vn 0.826535 0.562654 -0.0161361
v 1.29319 5.13379 3.06232
vn 0.846221 0.532831 -0.000465088
v 1.61927 4.61561 3.05581
vn 0.84657 0.531796 0.0226218
v 1.63199 4.59549 3.03386
vn 0.84634 0.532593 -0.00737528
v 1.61033 4.57065 2.12091
vn 0.130301 -0.236977 -0.962738
v 1.60198 4.54647 2.12972
vn 0.131434 -0.591322 -0.795653
v 1.58695 4.5685 2.12093
vn -0.215758 -0.301624 -0.928693
v 1.5911 4.60059 2.11619
vn -0.0201152 0.000472182 -0.999798
v 1.61651 4.58714 2.12035
vn 0.43553 0.117127 -0.892522
v 1.63016 4.56423 2.12916
vn 0.479231 -0.371603 -0.795141
v 1.29367 5.03087 2.16094
vn -0.846222 -0.532831 0.000463059
v 1.57144 4.58993 2.15318
vn -0.845775 -0.53349 0.00729472
v 1.29434 5.03024 2.1894
vn -0.845862 -0.533169 0.0157211
v 1.01476 5.51653 2.1559
vn -0.189181 0.270429 -0.94397
v 1.00271 5.49639 2.15525
vn -0.396051 -0.0152839 -0.918101
v 0.989659 5.51896 2.16569
vn -0.502349 0.415263 -0.758421
v 1.26545 5.14955 2.1639
vn 0.845214 0.533403 -0.0330743
v 1.06177 5.47194 2.16319
vn 0.843705 0.533802 -0.0567131
v 1.04972 5.4925 2.18513
vn 0.845106 0.533953 -0.0262735
v 1.65252 4.54722 2.59115
vn 0.888239 0.458973 -0.0193793
v 1.6347 4.56394 2.19251
vn 0.864047 0.503078 -0.0183396
v 1.65934 4.54994 2.99048
vn 0.864075 0.503064 -0.017378
v 1.62079 4.52722 2.59178
vn -0.797236 -0.603504 0.0140332
v 1.62566 4.52172 2.59154
vn -0.00332996 -0.999842 -0.0174381
v 1.63446 4.51937 3.01041
vn -0.758721 -0.65124 0.0151641
v 1.01368 5.50303 3.02714
vn -0.864047 -0.503078 0.0183396
v 1.00865 5.51329 3.04717
vn -0.914539 -0.403766 0.024318
v 1.58661 4.59503 3.05646
vn -0.843744 -0.533775 0.0563952
v 1.05764 5.43515 3.08753
vn -0.844136 -0.533153 0.0564219
v 1.64567 4.57057 3.0644
vn 0.489884 0.0862518 0.86751
v 1.62057 4.58385 3.07058
vn 0.0416027 -0.0345826 0.998536
v 1.07694 5.47703 3.06647
vn 0.845694 0.533619 -0.00721766
v 1.09029 5.45573 3.08689
vn 0.846174 0.5324 0.0232361
v 1.02271 5.54525 2.62811
vn 0.17632 0.984262 0.0118224
v 1.03977 5.53291 3.04656
vn 0.758908 0.651138 -0.00885571
v 1.59866 4.57447 3.03452
vn -0.845191 -0.533822 0.0262062
v 0.989033 5.51703 2.22917
vn -0.864075 -0.503063 0.017378
v 1.01392 5.5476 2.20924
vn 0.75872 0.65124 -0.0151641
v 1.29176 5.13563 3.03391
vn 0.845862 0.533169 -0.0157208
v 1.65872 4.54801 3.05396
vn 0.526964 -0.398721 0.750554
v 1.60208 4.54338 2.19316
vn -0.826565 -0.562637 0.0151746
v 1.6086 4.53406 2.17309
vn -0.758908 -0.651138 0.00885571
v 1.02911 5.45135 2.16384
vn -0.846585 -0.531761 -0.0228896
v 1.55808 4.61123 2.13276
vn -0.846193 -0.532384 -0.0229152
v 1.03227 5.51503 2.15467
vn 0.264254 0.389141 -0.882462
v 1.03326 5.48656 2.14896
vn -0.0415971 0.0345863 -0.998536
v 1.60478 4.61095 2.15252
vn 0.845758 0.532923 -0.0261905
v 1.59074 4.63182 2.13212
vn 0.844138 0.533178 -0.0561527
v 1.65538 4.54045 2.59095
vn 0.963408 -0.265822 -0.0344158
v 1.63972 4.55368 2.17248
vn 0.914539 0.403766 -0.024318
v 1.62672 4.52938 2.99113
vn -0.826535 -0.562654 0.0161361
v 1.01638 5.47148 2.18579
vn -0.846394 -0.532506 0.00733039
v 1.01784 5.53672 2.16513
vn -0.153886 0.633899 -0.757952
v 1.26577 5.15039 2.19239
vn 0.845798 0.533206 -0.0178139
v 1.66558 4.53899 3.00979
vn 0.914736 0.403651 -0.0180094
v 1.02448 5.48615 3.05352
vn -0.851985 -0.52323 0.0187726
v 1.03038 5.47827 3.08153
vn -0.851885 -0.521459 0.0487103
v 1.01582 5.50151 3.06791
vn -0.867648 -0.495455 0.0413708
v 1.60526 4.56684 3.06255
vn -0.83427 -0.53468 0.13458
v 1.58889 4.59525 3.07121
vn -0.250984 -0.197649 0.947598
v 1.32288 5.01521 3.0815
vn -0.835874 -0.531389 0.137623
v 1.63683 4.58674 3.06193
vn 0.845211 0.524657 0.10175
v 1.29598 5.12832 3.08432
vn 0.843345 0.527143 0.104356
v 1.6185 4.61391 3.07063
vn 0.43655 0.238386 0.867523
v 1.05761 5.50703 3.05287
vn 0.839559 0.543069 -0.0147594
v 1.0479 5.52173 3.06727
vn 0.821898 0.569581 0.00787949
v 1.06297 5.49881 3.08088
vn 0.838766 0.54428 0.0151942
v 1.00973 5.5398 2.62842
vn -0.532558 0.845815 0.0312853
v 1.00706 5.51907 3.0478
vn -0.647241 0.760301 0.0549678
v 1.03527 5.53685 3.04724
vn -0.386017 0.921159 0.0495604
v 1.61708 4.54499 3.01871
vn -0.839456 -0.543129 0.0180374
v 1.62764 4.5298 3.03197
vn -0.820462 -0.570396 0.0385974
v 1.61346 4.55221 3.04728
vn -0.836821 -0.545384 0.0478189
v 0.998175 5.5011 2.20159
vn -0.852086 -0.523173 0.015495
v 1.01718 5.47116 2.22704
vn -0.84615 -0.532687 0.0165696
v 1.00976 5.49594 2.62765
vn -0.851885 -0.523448 0.0171253
v 1.01453 5.54458 2.18082
vn 0.365861 0.899077 -0.240428
v 1.00091 5.53955 2.1789
vn -0.502122 0.785139 -0.362534
v 1.00938 5.55156 2.20897
vn -0.387346 0.92191 0.00665603
v 1.27859 5.14344 2.61316
vn 0.845831 0.533188 -0.0167674
v 1.05084 5.49238 2.22637
vn 0.845427 0.533821 -0.0169611
v 1.07551 5.47836 3.02525
vn 0.845441 0.533814 -0.0165271
v 1.66393 4.54135 3.03823
vn 0.975399 -0.0535824 0.213836
v 1.65972 4.55002 3.03133
vn 0.869081 0.494643 0.00510748
v 1.6551 4.55693 3.05331
vn 0.875053 0.47743 0.0796374
v 1.59077 4.55994 2.16678
vn -0.839559 -0.543068 0.0147594
v 1.5854 4.56815 2.13877
vn -0.838766 -0.54428 -0.0151942
v 1.60048 4.54523 2.15238
vn -0.821897 -0.569581 -0.00787958
v 1.01155 5.48023 2.15772
vn -0.845536 -0.524222 -0.101296
v 1.02988 5.45305 2.14902
vn -0.313295 -0.158056 -0.93641
v 1.29377 5.03175 2.13878
vn -0.843345 -0.527143 -0.104356
v 1.04312 5.50013 2.1571
vn 0.833928 0.535373 -0.133939
v 1.26687 5.14486 2.14159
vn 0.835874 0.531389 -0.137623
v 1.05948 5.47171 2.14844
vn 0.339157 0.251636 -0.90645
v 1.62389 4.58082 2.16613
vn 0.851985 0.52323 -0.0187727
v 1.63256 4.56546 2.15174
vn 0.867648 0.495455 -0.0413707
v 1.618 4.5887 2.13812
vn 0.851885 0.521459 -0.0487103
v 1.64486 4.53109 2.59111
vn 0.532558 -0.845815 -0.0312852
v 1.61311 4.53012 2.17241
vn 0.405343 -0.912787 -0.0501718
v 1.64132 4.5479 2.17185
vn 0.663129 -0.746478 -0.0550534
v 1.59754 4.57459 2.99328
vn -0.84551 -0.533689 0.0169652
v 1.60533 4.55004 2.59266
vn -0.839665 -0.542857 0.0164074
v 0.988651 5.51694 2.18832
vn -0.869082 -0.494642 -0.00510769
v 1.00232 5.49421 2.17302
vn -0.853831 -0.520353 -0.0143046
v 1.02073 5.53717 2.18768
vn 0.820462 0.570396 -0.0385975
v 1.02434 5.52962 2.16573
vn 0.805397 0.581876 -0.112947
v 1.6312 4.59581 2.99261
vn 0.846096 0.532773 -0.0165667
v 1.60653 4.60982 2.19373
vn 0.846083 0.532781 -0.0169985
v 1.65358 4.53127 3.04063
vn 0.502122 -0.785138 0.362535
v 1.66721 4.53319 3.01012
vn 0.664462 -0.747223 -0.01215
v 1.01205 5.50994 3.07536
vn -0.922193 0.207337 0.326452
v 1.02178 5.49385 3.0893
vn -0.86899 -0.480874 0.116691
v 1.04052 5.46377 3.09573
vn -0.838245 -0.528365 0.134816
v 1.05932 5.43633 3.10232
vn -0.255101 -0.19111 0.94784
v 1.34209 5.02704 3.08881
vn 0.0308652 -0.017531 0.99937
v 1.08892 5.45499 3.10174
vn 0.394697 0.220082 0.892064
v 1.07208 5.48367 3.0951
vn 0.841179 0.531252 0.10094
v 1.05284 5.51343 3.08868
vn 0.811459 0.578431 0.0833735
v 1.04213 5.5289 3.07476
vn 0.380966 0.890497 0.248758
v 1.02865 5.52379 3.07734
vn -0.477949 0.771411 0.420108
v 1.62403 4.53735 3.05392
vn -0.805397 -0.581876 0.112947
v 1.04185 5.45714 3.02592
vn -0.846137 -0.532694 0.017002
v 0.981167 5.53377 2.20953
vn -0.648584 0.761052 0.0117398
v 1.04305 5.51692 2.62699
vn 0.839665 0.542857 -0.0164073
v 1.64605 4.57276 3.04663
vn 0.853831 0.520353 0.0143046
v 1.60624 4.53807 2.14489
vn -0.219581 -0.927081 -0.303817
v 1.59553 4.55354 2.13097
vn -0.811459 -0.578431 -0.0833731
v 1.57629 4.58329 2.12455
vn -0.841559 -0.530536 -0.101536
v 1.55945 4.61198 2.11791
vn -0.309177 -0.164595 -0.936653
v 1.3125 5.04385 2.13072
vn -0.0308624 0.0175327 -0.99937
v 1.58906 4.63064 2.11733
vn 0.38246 0.269111 -0.883914
v 1.60786 4.60319 2.12392
vn 0.837894 0.528815 -0.135232
v 1.62659 4.57312 2.13035
vn 0.86899 0.480874 -0.116691
v 1.63633 4.55703 2.14429
vn 0.960292 -0.0449987 -0.275345
v 1.62584 4.54703 2.14219
vn 0.477949 -0.771411 -0.420108
v 1.57286 4.5886 2.1944
vn -0.845524 -0.533682 0.0165328
v 0.99328 5.51004 2.16635
vn -0.875053 -0.47743 -0.0796358
v 1.03491 5.51475 2.17237
vn 0.836821 0.545384 -0.0478189
v 1.63862 4.57103 2.592
vn 0.851885 0.523448 -0.0171253
v 1.639 4.51541 3.01068
vn 0.406682 -0.913543 -0.00694505
v 1.63385 4.52238 3.03883
vn -0.201424 -0.937394 0.284114
v 1.30727 5.02282 2.61016
vn -0.845831 -0.533188 0.0167674
v 0.984441 5.52562 2.18142
vn -0.940349 0.217655 -0.261475
v 1.0313 5.52198 2.20094
vn 0.839456 0.543129 -0.0180375
v 1.6502 4.56587 3.01806
vn 0.852086 0.523173 -0.015495
f 1//1 2//2 3//3
f 1//1 3//3 4//4
f 1//1 4//4 5//5
f 1//1 5//5 6//6
f 1//1 6//6 2//2
f 7//7 8//8 9//9
f 10//10 11//11 12//12
f 13//13 14//14 15//15
f 16//16 17//17 18//18
f 19//19 20//20 21//21
f 22//22 23//23 24//24
f 22//22 24//24 25//25
f 22//22 25//25 26//26
f 22//22 26//26 27//27
f 22//22 27//27 23//23
f 28//28 29//29 30//30
f 31//31 32//32 33//33
f 34//34 35//35 36//36
f 37//37 38//38 39//39
f 40//40 41//41 42//42
f 13//13 43//43 44//44
f 10//10 45//45 46//46
f 7//7 47//47 48//48
f 19//19 49//49 50//50
f 16//16 51//51 52//52
f 10//10 53//53 45//45
f 13//13 54//54 43//43
f 16//16 55//55 51//51
f 19//19 56//56 49//49
f 7//7 57//57 47//47
f 40//40 58//58 59//59
f 28//28 60//60 61//61
f 31//31 62//62 63//63
f 34//34 64//64 65//65
f 37//37 66//66 67//67
f 40//40 68//68 58//58
f 28//28 69//69 60//60
f 31//31 70//70 62//62
f 34//34 71//71 64//64
f 37//37 72//72 66//66
f 10//10 46//46 11//11
f 7//7 48//48 8//8
f 19//19 50//50 20//20
f 16//16 52//52 17//17
f 13//13 44//44 14//14
f 40//40 42//42 68//68
f 28//28 30//30 69//69
f 31//31 33//33 70//70
f 34//34 36//36 71//71
f 37//37 39//39 72//72
f 28//28 61//61 29//29
f 31//31 63//63 32//32
f 34//34 65//65 35//35
f 37//37 67//67 38//38
f 40//40 59//59 41//41
f 10//10 12//12 53//53
f 13//13 15//15 54//54
f 16//16 18//18 55//55
f 19//19 21//21 56//56
f 7//7 9//9 57//57
f 73//73 74//74 75//75
f 76//76 77//77 78//78
f 79//79 80//80 81//81
f 82//82 83//83 84//84
f 85//85 86//86 87//87
f 88//88 89//89 90//90
f 91//91 92//92 93//93
f 94//94 95//95 96//96
f 97//97 98//98 99//99
f 100//100 101//101 102//102
f 103//103 104//104 105//105
f 106//106 107//107 108//108
f 109//109 110//110 111//111
f 112//112 113//113 114//114
f 115//115 116//116 117//117
f 88//88 118//118 119//119
f 91//91 120//120 121//121
f 94//94 122//122 123//123
f 97//97 124//124 125//125
f 100//100 126//126 127//127
f 128//128 129//129 2//2
f 130//130 131//131 3//3
f 132//132 133//133 4//4
f 134//134 135//135 5//5
f 136//136 137//137 6//6
f 76//76 138//138 8//8
f 73//73 139//139 11//11
f 85//85 140//140 14//14
f 82//82 141//141 17//17
f 79//79 142//142 20//20
f 143//143 144//144 23//23
f 145//145 146//146 24//24
f 147//147 148//148 25//25
f 149//149 150//150 26//26
f 151//151 152//152 27//27
f 103//103 153//153 29//29
f 106//106 154//154 32//32
f 109//109 155//155 35//35
f 112//112 156//156 38//38
f 115//115 157//157 41//41
f 73//73 75//75 43//43
f 76//76 78//78 45//45
f 79//79 81//81 47//47
f 82//82 84//84 49//49
f 85//85 87//87 51//51
f 88//88 90//90 53//53
f 91//91 93//93 54//54
f 94//94 96//96 55//55
f 97//97 99//99 56//56
f 100//100 102//102 57//57
f 103//103 105//105 58//58
f 106//106 108//108 60//60
f 109//109 111//111 62//62
f 112//112 114//114 64//64
f 115//115 117//117 66//66
f 88//88 119//119 68//68
f 91//91 121//121 69//69
f 94//94 123//123 70//70
f 97//97 125//125 71//71
f 100//100 127//127 72//72
f 130//130 74//74 46//46
f 132//132 77//77 48//48
f 134//134 80//80 50//50
f 136//136 83//83 52//52
f 128//128 86//86 44//44
f 158//158 89//89 42//42
f 159//159 92//92 30//30
f 160//160 95//95 33//33
f 161//161 98//98 36//36
f 162//162 101//101 39//39
f 145//145 104//104 61//61
f 147//147 107//107 63//63
f 149//149 110//110 65//65
f 151//151 113//113 67//67
f 143//143 116//116 59//59
f 159//159 118//118 12//12
f 160//160 120//120 15//15
f 161//161 122//122 18//18
f 162//162 124//124 21//21
f 158//158 126//126 9//9
f 130//130 129//129 74//74
f 132//132 131//131 77//77
f 134//134 133//133 80//80
f 136//136 135//135 83//83
f 128//128 137//137 86//86
f 158//158 138//138 89//89
f 159//159 139//139 92//92
f 160//160 140//140 95//95
f 161//161 141//141 98//98
f 162//162 142//142 101//101
f 145//145 144//144 104//104
f 147//147 146//146 107//107
f 149//149 148//148 110//110
f 151//151 150//150 113//113
f 143//143 152//152 116//116
f 159//159 153//153 118//118
f 160//160 154//154 120//120
f 161//161 155//155 122//122
f 162//162 156//156 124//124
f 158//158 157//157 126//126
f 130//130 3//3 129//129
f 132//132 4//4 131//131
f 134//134 5//5 133//133
f 136//136 6//6 135//135
f 128//128 2//2 137//137
f 158//158 9//9 138//138
f 159//159 12//12 139//139
f 160//160 15//15 140//140
f 161//161 18//18 141//141
f 162//162 21//21 142//142
f 145//145 24//24 144//144
f 147//147 25//25 146//146
f 149//149 26//26 148//148
f 151//151 27//27 150//150
f 143//143 23//23 152//152
f 159//159 30//30 153//153
f 160//160 33//33 154//154
f 161//161 36//36 155//155
f 162//162 39//39 156//156
f 158//158 42//42 157//157
f 128//128 44//44 75//75
f 130//130 46//46 78//78
f 132//132 48//48 81//81
f 134//134 50//50 84//84
f 136//136 52//52 87//87
f 76//76 45//45 90//90
f 73//73 43//43 93//93
f 85//85 51//51 96//96
f 82//82 49//49 99//99
f 79//79 47//47 102//102
f 143//143 59//59 105//105
f 145//145 61//61 108//108
f 147//147 63//63 111//111
f 149//149 65//65 114//114
f 151//151 67//67 117//117
f 103//103 58//58 119//119
f 106//106 60//60 121//121
f 109//109 62//62 123//123
f 112//112 64//64 125//125
f 115//115 66//66 127//127
f 73//73 11//11 74//74
f 76//76 8//8 77//77
f 79//79 20//20 80//80
f 82//82 17//17 83//83
f 85//85 14//14 86//86
f 88//88 68//68 89//89
f 91//91 69//69 92//92
f 94//94 70//70 95//95
f 97//97 71//71 98//98
f 100//100 72//72 101//101
f 103//103 29//29 104//104
f 106//106 32//32 107//107
f 109//109 35//35 110//110
f 112//112 38//38 113//113
f 115//115 41//41 116//116
f 88//88 53//53 118//118
f 91//91 54//54 120//120
f 94//94 55//55 122//122
f 97//97 56//56 124//124
f 100//100 57//57 126//126
f 128//128 75//75 129//129
f 130//130 78//78 131//131
f 132//132 81//81 133//133
f 134//134 84//84 135//135
f 136//136 87//87 137//137
f 76//76 90//90 138//138
f 73//73 93//93 139//139
f 85//85 96//96 140//140
f 82//82 99//99 141//141
f 79//79 102//102 142//142
f 143//143 105//105 144//144
f 145//145 108//108 146//146
f 147//147 111//111 148//148
f 149//149 114//114 150//150
f 151//151 117//117 152//152
f 103//103 119//119 153//153
f 106//106 121//121 154//154
f 109//109 123//123 155//155
f 112//112 125//125 156//156
f 115//115 127//127 157//157
f 129//129 3//3 2//2
f 131//131 4//4 3//3
f 133//133 5//5 4//4
f 135//135 6//6 5//5
f 137//137 2//2 6//6
f 138//138 9//9 8//8
f 139//139 12//12 11//11
f 140//140 15//15 14//14
f 141//141 18//18 17//17
f 142//142 21//21 20//20
f 144//144 24//24 23//23
f 146//146 25//25 24//24
f 148//148 26//26 25//25
f 150//150 27//27 26//26
f 152//152 23//23 27//27
f 153//153 30//30 29//29
f 154//154 33//33 32//32
f 155//155 36//36 35//35
f 156//156 39//39 38//38
f 157//157 42//42 41//41
f 75//75 44//44 43//43
f 78//78 46//46 45//45
f 81//81 48//48 47//47
f 84//84 50//50 49//49
f 87//87 52//52 51//51
f 90//90 45//45 53//53
f 93//93 43//43 54//54
f 96//96 51//51 55//55
f 99//99 49//49 56//56
f 102//102 47//47 57//57
f 105//105 59//59 58//58
f 108//108 61//61 60//60
f 111//111 63//63 62//62
f 114//114 65//65 64//64
f 117//117 67//67 66//66
f 119//119 58//58 68//68
f 121//121 60//60 69//69
f 123//123 62//62 70//70
f 125//125 64//64 71//71
f 127//127 66//66 72//72
f 74//74 11//11 46//46
f 77//77 8//8 48//48
f 80//80 20//20 50//50
f 83//83 17//17 52//52
f 86//86 14//14 44//44
f 89//89 68//68 42//42
f 92//92 69//69 30//30
f 95//95 70//70 33//33
f 98//98 71//71 36//36
f 101//101 72//72 39//39
f 104//104 29//29 61//61
f 107//107 32//32 63//63
f 110//110 35//35 65//65
f 113//113 38//38 67//67
f 116//116 41//41 59//59
f 118//118 53//53 12//12
f 120//120 54//54 15//15
f 122//122 55//55 18//18
f 124//124 56//56 21//21
f 126//126 57//57 9//9
f 129//129 75//75 74//74
f 131//131 78//78 77//77
f 133//133 81//81 80//80
f 135//135 84//84 83//83
f 137//137 87//87 86//86
f 138//138 90//90 89//89
f 139//139 93//93 92//92
f 140//140 96//96 95//95
f 141//141 99//99 98//98
f 142//142 102//102 101//101
f 144//144 105//105 104//104
f 146//146 108//108 107//107
f 148//148 111//111 110//110
f 150//150 114//114 113//113
f 152//152 117//117 116//116
f 153//153 119//119 118//118
f 154//154 121//121 120//120
f 155//155 123//123 122//122
f 156//156 125//125 124//124
f 157//157 127//127 126//126
