# Created by Open3D 
# object name: part_022
# number of vertices: 162
# number of triangles: 320
v -0.26018 4.9013 0.827475
vn 0.837995 0.421441 0.346631
v -0.253681 4.88201 0.832695
vn 0.761293 0.325611 0.560724
v -0.250027 4.88303 0.823469
vn 0.891562 0.36261 0.271351
v -0.257054 4.90276 0.814826
vn 0.878359 0.44341 0.178533
v -0.265826 4.91421 0.823751
vn 0.803856 0.528838 0.272298
v -0.268738 4.91173 0.832964
vn 0.711352 0.419407 0.563983
v -0.200442 4.93525 0.421318
vn 0.891804 0.452015 -0.0192047
v -0.191425 4.91633 0.425035
vn 0.922994 0.380473 0.0576395
v -0.192262 4.91691 0.415112
vn 0.881844 0.394114 -0.258893
v -0.224175 4.89547 0.623393
vn 0.515477 -0.856893 0.00419946
v -0.253664 4.87879 0.812344
vn 0.488918 -0.872329 0.00060382
v -0.229607 4.89246 0.622342
vn 0.456104 -0.889896 -0.00729126
v -0.343439 4.8343 0.81993
vn 0.407287 -0.887458 0.215722
v -0.344364 4.83514 0.822575
vn -0.0383911 -0.283197 0.958293
v -0.425197 4.79342 0.804795
vn 0.353548 -0.864351 0.357634
v -0.360391 4.86776 0.820233
vn -0.473058 0.850094 0.231421
v -0.282313 4.90781 0.830896
vn -0.461793 0.88107 0.102292
v -0.437754 4.82932 0.801474
vn -0.465609 0.879141 0.10158
v -0.248133 4.92707 0.665661
vn -0.385946 0.922297 0.020319
v -0.212803 4.94656 0.443802
vn -0.290266 0.956257 0.0363092
v -0.215802 4.94558 0.43413
vn -0.413919 0.910208 0.0138711
v -0.38408 4.84252 0.386558
vn -0.837995 -0.421441 -0.346629
v -0.372408 4.82595 0.381013
vn -0.716925 -0.413179 -0.561518
v -0.37532 4.82347 0.390226
vn -0.821694 -0.500505 -0.272604
v -0.387009 4.84068 0.399204
vn -0.878358 -0.44341 -0.178533
v -0.391119 4.85465 0.390509
vn -0.903851 -0.331483 -0.270505
v -0.387465 4.85567 0.381283
vn -0.763033 -0.317399 -0.563062
v -0.399183 4.8071 0.590267
vn 0.385948 -0.922297 -0.0203188
v -0.369669 4.82374 0.401315
vn 0.414131 -0.910063 -0.0167514
v -0.393531 4.80968 0.591314
vn 0.447776 -0.894102 -0.00886763
v -0.443818 4.80858 0.792715
vn -0.891803 -0.452015 0.0192111
v -0.433923 4.79017 0.78866
vn -0.853128 -0.518368 -0.0588891
v -0.433827 4.79105 0.798596
vn -0.837478 -0.481682 0.258094
v -0.423141 4.8387 0.632534
vn -0.515478 0.856893 -0.00419965
v -0.445793 4.82556 0.770488
vn -0.601635 0.798504 -0.0206611
v -0.443157 4.82726 0.780166
vn -0.48971 0.871881 0.00286969
v -0.297707 4.90338 0.394048
vn -0.407287 0.887458 -0.215723
v -0.376261 4.86427 0.383393
vn -0.437988 0.894837 -0.0862207
v -0.220821 4.94276 0.412816
vn -0.434173 0.896763 -0.0855017
v -0.280755 4.86992 0.393745
vn 0.473058 -0.850094 -0.231421
v -0.280904 4.8712 0.391119
vn 0.244044 -0.122701 -0.96197
v -0.19932 4.91144 0.408885
vn 0.48518 -0.791061 -0.37259
v -0.264885 4.87341 0.830585
vn 0.437988 -0.894837 0.0862208
v -0.262092 4.87577 0.835668
vn 0.377122 -0.852462 0.362061
v -0.195353 4.91212 0.44349
vn 0.600542 -0.799329 0.0205237
v -0.248412 4.88197 0.804234
vn 0.600273 -0.799479 0.0224693
v -0.207223 4.94751 0.425317
vn 0.83528 0.546684 0.0586867
v -0.201099 4.93455 0.434394
vn 0.881869 0.445411 0.154651
v -0.271477 4.91395 0.812662
vn -0.413897 0.910161 0.017219
v -0.265862 4.91641 0.804546
vn -0.288109 0.956816 0.0386842
v -0.360242 4.86648 0.822859
vn -0.281355 0.205853 0.937264
v -0.278721 4.9086 0.835965
vn -0.461614 0.802964 0.377042
v -0.197989 4.91043 0.433812
vn 0.489369 -0.872073 -0.0025106
v -0.420325 4.79492 0.801162
vn 0.434173 -0.896763 0.0855017
v -0.441826 4.82624 0.805092
vn -0.48518 0.791061 0.372589
v -0.253862 4.92445 0.665133
vn -0.447776 0.894102 0.00886765
v -0.207319 4.94663 0.415381
vn 0.832694 0.488357 -0.261016
v -0.358833 4.82987 0.383081
vn 0.461793 -0.88107 -0.102292
v -0.362425 4.82908 0.378012
vn 0.461614 -0.802965 -0.377042
v -0.428343 4.79112 0.770176
vn 0.289109 -0.956603 -0.036431
v -0.375284 4.82127 0.409432
vn 0.289391 -0.956442 -0.0383722
v -0.449722 4.82135 0.788943
vn -0.93527 -0.349333 -0.0568904
v -0.442963 4.80888 0.779636
vn -0.881869 -0.445411 -0.154651
v -0.387482 4.85889 0.401634
vn -0.488771 0.872412 -0.000297677
v -0.392734 4.85571 0.409744
vn -0.599335 0.80019 -0.0221944
v -0.296782 4.90254 0.391403
vn -0.00640218 0.362094 -0.93212
v -0.379054 4.86191 0.378309
vn -0.377122 0.852462 -0.362061
v -0.203392 4.90836 0.412504
vn 0.465609 -0.879141 -0.10158
v -0.425344 4.7921 0.779847
vn 0.413684 -0.910318 -0.0136373
v -0.448884 4.82077 0.798865
vn -0.884379 -0.386352 0.261929
v -0.417785 4.84168 0.634104
vn -0.456104 0.889896 0.00729128
v -0.215949 4.94427 0.409183
vn -0.353548 0.86435 -0.357634
v -0.258468 4.87638 0.824601
vn 0.453598 -0.890866 0.0246319
v -0.252622 4.87972 0.822404
vn 0.565799 -0.822838 0.0530023
v -0.257017 4.87775 0.831675
vn 0.520518 -0.844416 0.12658
v -0.192457 4.91442 0.431562
vn 0.816268 -0.574233 0.0629502
v -0.193256 4.91521 0.443845
vn 0.913108 0.373697 0.163045
v -0.220278 4.89848 0.624217
vn 0.820804 -0.566477 0.0733806
v -0.209324 4.94771 0.431863
vn 0.021603 0.996663 0.0787199
v -0.243111 4.92859 0.664499
vn 0.0292353 0.995733 0.0875222
v -0.209073 4.94643 0.444128
vn 0.819551 0.549075 0.163868
v -0.276167 4.91132 0.824918
vn -0.449808 0.892193 0.0407874
v -0.274159 4.91158 0.831982
vn -0.372028 0.917214 0.142523
v -0.270037 4.91409 0.822715
vn -0.328406 0.942015 0.0689781
v -0.354086 4.85402 0.823585
vn -0.145022 -0.0824072 0.985991
v -0.263085 4.87718 0.837791
vn -0.0887387 -0.113479 0.98957
v -0.278158 4.90693 0.83806
vn -0.140414 -0.0116924 0.990024
v -0.199028 4.91016 0.420472
vn 0.462857 -0.885605 -0.0383023
v -0.195647 4.91262 0.414428
vn 0.555008 -0.824817 -0.107902
v -0.194136 4.91295 0.424761
vn 0.576786 -0.8166 -0.0219593
v -0.424419 4.79259 0.793189
vn 0.440553 -0.897453 0.0221571
v -0.417257 4.79596 0.781582
vn 0.450855 -0.892572 -0.0066682
v -0.341549 4.83431 0.809911
vn 0.447213 -0.894141 0.0226209
v -0.446863 4.82302 0.802677
vn -0.761985 0.044473 0.646066
v -0.441054 4.81007 0.803546
vn -0.627262 -0.324222 0.708112
v -0.441449 4.82448 0.807152
vn -0.204061 -0.0438318 0.977976
v -0.335883 4.88312 0.649784
vn -0.451947 0.892008 0.00807917
v -0.435245 4.83147 0.781903
vn -0.453102 0.891404 0.00990823
v -0.279627 4.91004 0.811359
vn -0.451375 0.892276 0.0102352
v -0.210358 4.94639 0.411588
vn 0.410124 0.649988 -0.639776
v -0.212789 4.94645 0.414734
vn -0.337511 0.936818 -0.0919656
v -0.208773 4.94777 0.418794
vn -0.0314174 0.997001 -0.0707244
v -0.364979 4.82636 0.38906
vn 0.449808 -0.892193 -0.0407875
v -0.371109 4.82359 0.391262
vn 0.328406 -0.942015 -0.0689781
v -0.366987 4.8261 0.381996
vn 0.372028 -0.917214 -0.142523
v -0.431822 4.78997 0.782114
vn -0.0202583 -0.996812 -0.0771755
v -0.432073 4.79126 0.76985
vn -0.842585 -0.512889 -0.164306
v -0.403916 4.80575 0.589457
vn -0.0292353 -0.995733 -0.0875222
v -0.448689 4.82326 0.782416
vn -0.815279 0.575875 -0.0607282
v -0.426748 4.83587 0.629739
vn -0.820802 0.566479 -0.0733801
v -0.44789 4.82247 0.770133
vn -0.923715 -0.347015 -0.162269
v -0.382678 4.8613 0.389376
vn -0.453598 0.890866 -0.0246319
v -0.384129 4.85993 0.382302
vn -0.520518 0.844416 -0.12658
v -0.388524 4.85796 0.391574
vn -0.565799 0.822838 -0.0530023
v -0.29038 4.89022 0.390452
vn 0.145022 0.0824072 -0.985991
v -0.362988 4.83075 0.375917
vn 0.136757 0.0187049 -0.990428
v -0.378062 4.8605 0.376187
vn 0.0852521 0.120568 -0.989038
v -0.205901 4.90622 0.432074
vn 0.453038 -0.891441 -0.00949027
v -0.28181 4.86826 0.403749
vn 0.456243 -0.88901 -0.0387741
v -0.428357 4.79123 0.799243
vn 0.337511 -0.936818 0.0919656
v -0.429595 4.79036 0.788906
vn 0.317363 -0.948285 0.00598116
v -0.445499 4.82506 0.79955
vn -0.555007 0.824818 0.107902
v -0.448969 4.82266 0.79548
vn -0.784757 0.613904 0.0853123
v -0.223889 4.94172 0.432396
vn -0.450896 0.892549 0.00694085
v -0.379506 4.86314 0.40294
vn -0.452613 0.891682 0.00661599
v -0.203359 4.93406 0.41049
vn 0.627262 0.324222 -0.708112
v -0.214771 4.94295 0.407095
vn 0.148899 0.152707 -0.97699
v -0.256654 4.87922 0.835351
vn 0.511012 -0.0686163 0.856831
v -0.252586 4.88069 0.829214
vn 0.742026 -0.638187 0.205219
v -0.249104 4.88223 0.8167
vn 0.813626 -0.575765 0.0806635
v -0.246375 4.88502 0.805
vn 0.912396 0.373292 0.167886
v -0.228917 4.91924 0.624682
vn 0.880178 0.444443 0.166604
v -0.262192 4.91624 0.805282
vn 0.826605 0.536795 0.169039
v -0.265971 4.91552 0.817002
vn 0.0150759 0.995224 0.0964514
v -0.269182 4.91345 0.829511
vn -0.074154 0.972719 0.219814
v -0.272728 4.91095 0.835638
vn 0.194385 0.527391 0.827087
v -0.266043 4.89844 0.836673
vn 0.390622 0.189754 0.900782
v -0.192177 4.91502 0.418497
vn 0.784756 -0.613905 -0.0853117
v -0.26164 4.87454 0.811038
vn 0.452574 -0.891704 -0.00634279
v -0.426375 4.79473 0.806883
vn -0.152685 -0.145769 0.977465
v -0.359337 4.86942 0.810229
vn -0.456243 0.88901 0.038774
v -0.211551 4.94732 0.425072
vn -0.317363 0.948285 -0.00598118
v -0.368418 4.82673 0.37834
vn -0.253196 -0.440247 -0.861437
v -0.371964 4.82423 0.384466
vn 0.0741536 -0.972719 -0.219815
v -0.375175 4.82216 0.396976
vn -0.0175444 -0.995334 -0.0948835
v -0.378954 4.82144 0.408695
vn -0.841872 -0.512484 -0.169147
v -0.415549 4.825 0.589355
vn -0.880178 -0.444443 -0.166604
v -0.394771 4.85266 0.408978
vn -0.927931 -0.333298 -0.166903
v -0.392042 4.85545 0.397278
vn -0.814702 0.574394 -0.0795768
v -0.38856 4.85699 0.384763
vn -0.742026 0.638187 -0.205219
v -0.384492 4.85846 0.378627
vn -0.546238 0.167074 -0.820799
v -0.37837 4.84569 0.377363
vn -0.390623 -0.189754 -0.900781
v -0.361519 4.82764 0.402619
vn 0.451317 -0.89231 -0.00981616
v -0.432373 4.78991 0.795183
vn 0.0314174 -0.997001 0.0707244
v -0.44701 4.82473 0.789217
vn -0.576786 0.8166 0.0219593
v -0.299597 4.90337 0.404067
vn -0.447213 0.894141 -0.0226208
v -0.199697 4.9132 0.406826
vn 0.200703 0.0509958 -0.978324
v -0.194283 4.91466 0.4113
vn 0.736193 0.0593426 -0.674165
v -0.311534 4.851 0.606827
vn 0.451947 -0.892008 -0.00807917
v -0.430788 4.79129 0.80239
vn -0.478364 -0.568212 0.669555
v -0.442118 4.82752 0.793506
vn -0.462857 0.885605 0.0383024
v -0.216727 4.94509 0.420788
vn -0.440553 0.897453 -0.0221568
f 1//1 2//2 3//3
f 1//1 3//3 4//4
f 1//1 4//4 5//5
f 1//1 5//5 6//6
f 1//1 6//6 2//2
f 7//7 8//8 9//9
f 10//10 11//11 12//12
f 13//13 14//14 15//15
f 16//16 17//17 18//18
f 19//19 20//20 21//21
f 22//22 23//23 24//24
f 22//22 24//24 25//25
f 22//22 25//25 26//26
f 22//22 26//26 27//27
f 22//22 27//27 23//23
f 28//28 29//29 30//30
f 31//31 32//32 33//33
f 34//34 35//35 36//36
f 37//37 38//38 39//39
f 40//40 41//41 42//42
f 13//13 43//43 44//44
f 10//10 45//45 46//46
f 7//7 47//47 48//48
f 19//19 49//49 50//50
f 16//16 51//51 52//52
f 10//10 53//53 45//45
f 13//13 54//54 43//43
f 16//16 55//55 51//51
f 19//19 56//56 49//49
f 7//7 57//57 47//47
f 40//40 58//58 59//59
f 28//28 60//60 61//61
f 31//31 62//62 63//63
f 34//34 64//64 65//65
f 37//37 66//66 67//67
f 40//40 68//68 58//58
f 28//28 69//69 60//60
f 31//31 70//70 62//62
f 34//34 71//71 64//64
f 37//37 72//72 66//66
f 10//10 46//46 11//11
f 7//7 48//48 8//8
f 19//19 50//50 20//20
f 16//16 52//52 17//17
f 13//13 44//44 14//14
f 40//40 42//42 68//68
f 28//28 30//30 69//69
f 31//31 33//33 70//70
f 34//34 36//36 71//71
f 37//37 39//39 72//72
f 28//28 61//61 29//29
f 31//31 63//63 32//32
f 34//34 65//65 35//35
f 37//37 67//67 38//38
f 40//40 59//59 41//41
f 10//10 12//12 53//53
f 13//13 15//15 54//54
f 16//16 18//18 55//55
f 19//19 21//21 56//56
f 7//7 9//9 57//57
f 73//73 74//74 75//75
f 76//76 77//77 78//78
f 79//79 80//80 81//81
f 82//82 83//83 84//84
f 85//85 86//86 87//87
f 88//88 89//89 90//90
f 91//91 92//92 93//93
f 94//94 95//95 96//96
f 97//97 98//98 99//99
f 100//100 101//101 102//102
f 103//103 104//104 105//105
f 106//106 107//107 108//108
f 109//109 110//110 111//111
f 112//112 113//113 114//114
f 115//115 116//116 117//117
f 88//88 118//118 119//119
f 91//91 120//120 121//121
f 94//94 122//122 123//123
f 97//97 124//124 125//125
f 100//100 126//126 127//127
f 128//128 129//129 2//2
f 130//130 131//131 3//3
f 132//132 133//133 4//4
f 134//134 135//135 5//5
f 136//136 137//137 6//6
f 76//76 138//138 8//8
f 73//73 139//139 11//11
f 85//85 140//140 14//14
f 82//82 141//141 17//17
f 79//79 142//142 20//20
f 143//143 144//144 23//23
f 145//145 146//146 24//24
f 147//147 148//148 25//25
f 149//149 150//150 26//26
f 151//151 152//152 27//27
f 103//103 153//153 29//29
f 106//106 154//154 32//32
f 109//109 155//155 35//35
f 112//112 156//156 38//38
f 115//115 157//157 41//41
f 73//73 75//75 43//43
f 76//76 78//78 45//45
f 79//79 81//81 47//47
f 82//82 84//84 49//49
f 85//85 87//87 51//51
f 88//88 90//90 53//53
f 91//91 93//93 54//54
f 94//94 96//96 55//55
f 97//97 99//99 56//56
f 100//100 102//102 57//57
f 103//103 105//105 58//58
f 106//106 108//108 60//60
f 109//109 111//111 62//62
f 112//112 114//114 64//64
f 115//115 117//117 66//66
f 88//88 119//119 68//68
f 91//91 121//121 69//69
f 94//94 123//123 70//70
f 97//97 125//125 71//71
f 100//100 127//127 72//72
f 130//130 74//74 46//46
f 132//132 77//77 48//48
f 134//134 80//80 50//50
f 136//136 83//83 52//52
f 128//128 86//86 44//44
f 158//158 89//89 42//42
f 159//159 92//92 30//30
f 160//160 95//95 33//33
f 161//161 98//98 36//36
f 162//162 101//101 39//39
f 145//145 104//104 61//61
f 147//147 107//107 63//63
f 149//149 110//110 65//65
f 151//151 113//113 67//67
f 143//143 116//116 59//59
f 159//159 118//118 12//12
f 160//160 120//120 15//15
f 161//161 122//122 18//18
f 162//162 124//124 21//21
f 158//158 126//126 9//9
f 130//130 129//129 74//74
f 132//132 131//131 77//77
f 134//134 133//133 80//80
f 136//136 135//135 83//83
f 128//128 137//137 86//86
f 158//158 138//138 89//89
f 159//159 139//139 92//92
f 160//160 140//140 95//95
f 161//161 141//141 98//98
f 162//162 142//142 101//101
f 145//145 144//144 104//104
f 147//147 146//146 107//107
f 149//149 148//148 110//110
f 151//151 150//150 113//113
f 143//143 152//152 116//116
f 159//159 153//153 118//118
f 160//160 154//154 120//120
f 161//161 155//155 122//122
f 162//162 156//156 124//124
f 158//158 157//157 126//126
f 130//130 3//3 129//129
f 132//132 4//4 131//131
f 134//134 5//5 133//133
f 136//136 6//6 135//135
f 128//128 2//2 137//137
f 158//158 9//9 138//138
f 159//159 12//12 139//139
f 160//160 15//15 140//140
f 161//161 18//18 141//141
f 162//162 21//21 142//142
f 145//145 24//24 144//144
f 147//147 25//25 146//146
f 149//149 26//26 148//148
f 151//151 27//27 150//150
f 143//143 23//23 152//152
f 159//159 30//30 153//153
f 160//160 33//33 154//154
f 161//161 36//36 155//155
f 162//162 39//39 156//156
f 158//158 42//42 157//157
f 128//128 44//44 75//75
f 130//130 46//46 78//78
f 132//132 48//48 81//81
f 134//134 50//50 84//84
f 136//136 52//52 87//87
f 76//76 45//45 90//90
f 73//73 43//43 93//93
f 85//85 51//51 96//96
f 82//82 49//49 99//99
f 79//79 47//47 102//102
f 143//143 59//59 105//105
f 145//145 61//61 108//108
f 147//147 63//63 111//111
f 149//149 65//65 114//114
f 151//151 67//67 117//117
f 103//103 58//58 119//119
f 106//106 60//60 121//121
f 109//109 62//62 123//123
f 112//112 64//64 125//125
f 115//115 66//66 127//127
f 73//73 11//11 74//74
f 76//76 8//8 77//77
f 79//79 20//20 80//80
f 82//82 17//17 83//83
f 85//85 14//14 86//86
f 88//88 68//68 89//89
f 91//91 69//69 92//92
f 94//94 70//70 95//95
f 97//97 71//71 98//98
f 100//100 72//72 101//101
f 103//103 29//29 104//104
f 106//106 32//32 107//107
f 109//109 35//35 110//110
f 112//112 38//38 113//113
f 115//115 41//41 116//116
f 88//88 53//53 118//118
f 91//91 54//54 120//120
f 94//94 55//55 122//122
f 97//97 56//56 124//124
f 100//100 57//57 126//126
f 128//128 75//75 129//129
f 130//130 78//78 131//131
f 132//132 81//81 133//133
f 134//134 84//84 135//135
f 136//136 87//87 137//137
f 76//76 90//90 138//138
f 73//73 93//93 139//139
f 85//85 96//96 140//140
f 82//82 99//99 141//141
f 79//79 102//102 142//142
f 143//143 105//105 144//144
f 145//145 108//108 146//146
f 147//147 111//111 148//148
f 149//149 114//114 150//150
f 151//151 117//117 152//152
f 103//103 119//119 153//153
f 106//106 121//121 154//154
f 109//109 123//123 155//155
f 112//112 125//125 156//156
f 115//115 127//127 157//157
f 129//129 3//3 2//2
f 131//131 4//4 3//3
f 133//133 5//5 4//4
f 135//135 6//6 5//5
f 137//137 2//2 6//6
f 138//138 9//9 8//8
f 139//139 12//12 11//11
f 140//140 15//15 14//14
f 141//141 18//18 17//17
f 142//142 21//21 20//20
f 144//144 24//24 23//23
f 146//146 25//25 24//24
f 148//148 26//26 25//25
f 150//150 27//27 26//26
f 152//152 23//23 27//27
f 153//153 30//30 29//29
f 154//154 33//33 32//32
f 155//155 36//36 35//35
f 156//156 39//39 38//38
f 157//157 42//42 41//41
f 75//75 44//44 43//43
f 78//78 46//46 45//45
f 81//81 48//48 47//47
f 84//84 50//50 49//49
f 87//87 52//52 51//51
f 90//90 45//45 53//53
f 93//93 43//43 54//54
f 96//96 51//51 55//55
f 99//99 49//49 56//56
f 102//102 47//47 57//57
f 105//105 59//59 58//58
f 108//108 61//61 60//60
f 111//111 63//63 62//62
f 114//114 65//65 64//64
f 117//117 67//67 66//66
f 119//119 58//58 68//68
f 121//121 60//60 69//69
f 123//123 62//62 70//70
f 125//125 64//64 71//71
f 127//127 66//66 72//72
f 74//74 11//11 46//46
f 77//77 8//8 48//48
f 80//80 20//20 50//50
f 83//83 17//17 52//52
f 86//86 14//14 44//44
f 89//89 68//68 42//42
f 92//92 69//69 30//30
f 95//95 70//70 33//33
f 98//98 71//71 36//36
f 101//101 72//72 39//39
f 104//104 29//29 61//61
f 107//107 32//32 63//63
f 110//110 35//35 65//65
f 113//113 38//38 67//67
f 116//116 41//41 59//59
f 118//118 53//53 12//12
f 120//120 54//54 15//15
f 122//122 55//55 18//18
f 124//124 56//56 21//21
f 126//126 57//57 9//9
f 129//129 75//75 74//74
f 131//131 78//78 77//77
f 133//133 81//81 80//80
f 135//135 84//84 83//83
f 137//137 87//87 86//86
f 138//138 90//90 89//89
f 139//139 93//93 92//92
f 140//140 96//96 95//95
f 141//141 99//99 98//98
f 142//142 102//102 101//101
f 144//144 105//105 104//104
f 146//146 108//108 107//107
f 148//148 111//111 110//110
f 150//150 114//114 113//113
f 152//152 117//117 116//116
f 153//153 119//119 118//118
f 154//154 121//121 120//120
f 155//155 123//123 122//122
f 156//156 125//125 124//124
f 157//157 127//127 126//126
