# Created by Open3D 
# object name: part_019
# number of vertices: 162
# number of triangles: 320
v 1.54658 4.59407 1.71361
vn 0.804878 0.429872 -0.409123
v 1.54638 4.57617 1.69654
vn 0.833987 0.323019 -0.447352
v 1.53447 4.59693 1.69421
vn 0.761604 0.436517 -0.47897
v 1.52969 4.62142 1.71193
vn 0.76829 0.489578 -0.412364
v 1.54596 4.6057 1.72604
vn 0.820128 0.481489 -0.309127
v 1.55733 4.58453 1.72687
vn 0.871248 0.349797 -0.344339
v 0.985083 5.43969 1.68328
vn 0.722095 0.55455 -0.413586
v 0.983653 5.42647 1.66446
vn 0.713705 0.508653 -0.481557
v 0.969088 5.44558 1.66536
vn 0.636272 0.62078 -0.458028
v 1.25455 5.0087 1.67938
vn -0.270365 -0.213197 -0.938856
v 1.51477 4.61373 1.69425
vn -0.294706 -0.229724 -0.927564
v 1.24974 5.00559 1.6817
vn -0.325059 -0.248567 -0.912442
v 1.47483 4.51717 1.73633
vn -0.275321 -0.328128 -0.903621
v 1.47886 4.51198 1.73761
vn 0.31504 -0.846818 -0.428543
v 1.40582 4.47181 1.77415
vn -0.246703 -0.388666 -0.887737
v 1.48716 4.52659 1.77048
vn 0.379284 0.171559 0.909236
v 1.54801 4.57788 1.73495
vn 0.351651 0.219569 0.910017
v 1.41546 4.49243 1.80637
vn 0.348253 0.21738 0.911847
v 1.32548 4.93124 1.71834
vn 0.385293 0.28729 0.876935
v 1.02011 5.39537 1.70027
vn 0.460294 0.33556 0.821906
v 1.00443 5.41172 1.70187
vn 0.36137 0.272569 0.891694
v 0.828489 5.33873 1.76765
vn -0.804878 -0.429871 0.409123
v 0.815472 5.34654 1.74812
vn -0.868214 -0.349143 0.352567
v 0.826839 5.32537 1.74895
vn -0.811677 -0.474741 0.340296
v 0.845232 5.31127 1.76894
vn -0.76829 -0.489578 0.412364
v 0.838332 5.33414 1.78078
vn -0.748456 -0.426777 0.507618
v 0.826424 5.3549 1.77846
vn -0.831332 -0.31933 0.454879
v 1.10531 4.91249 1.75978
vn -0.385294 -0.28729 -0.876934
v 0.845072 5.30745 1.74486
vn -0.362181 -0.271702 -0.891629
v 1.10996 4.91548 1.75701
vn -0.332452 -0.253334 -0.908459
v 1.38999 4.49312 1.79798
vn -0.722095 -0.554549 0.413588
v 1.37766 4.49584 1.7787
vn -0.763777 -0.546877 0.342886
v 1.39276 4.47714 1.77931
vn -0.670498 -0.646903 0.363249
v 1.17625 4.83503 1.79875
vn 0.270369 0.2132 0.938854
v 1.36539 4.54539 1.80988
vn 0.184532 0.156806 0.970237
v 1.38134 4.52924 1.80901
vn 0.29525 0.22835 0.92773
v 0.897975 5.4139 1.73866
vn 0.275321 0.328127 0.903621
v 0.837477 5.36287 1.77515
vn 0.305371 0.28196 0.909531
v 0.970025 5.44832 1.70374
vn 0.308769 0.28415 0.907701
v 0.885644 5.40449 1.70451
vn -0.379284 -0.17156 -0.909236
v 0.882391 5.41027 1.70539
vn -0.643215 0.596305 -0.480308
v 0.95489 5.45003 1.66734
vn -0.402198 -0.106661 -0.909318
v 1.53533 4.5682 1.69984
vn -0.305372 -0.28196 -0.909531
v 1.5449 4.56147 1.69921
vn -0.22446 -0.374335 -0.899717
v 1.00741 5.38568 1.66512
vn -0.18567 -0.157593 -0.969892
v 1.50613 4.63462 1.69206
vn -0.185224 -0.158255 -0.96987
v 0.995145 5.43524 1.69629
vn 0.772245 0.553599 -0.311714
v 1.00376 5.41347 1.68352
vn 0.762964 0.4976 -0.412651
v 1.52773 4.62362 1.73013
vn 0.362524 0.271721 0.891484
v 1.51882 4.64431 1.72721
vn 0.462557 0.336045 0.820436
v 1.49041 4.5208 1.7696
vn 0.635555 -0.481373 0.603614
v 1.557 4.57071 1.73271
vn 0.424436 0.121 0.897337
v 0.991468 5.40183 1.66598
vn -0.295414 -0.228658 -0.927602
v 1.40278 4.48275 1.77126
vn -0.308769 -0.28415 -0.907701
v 1.41791 4.48104 1.80765
vn 0.402198 0.106661 0.909318
v 1.32155 4.92718 1.72115
vn 0.332452 0.253334 0.908459
v 0.98004 5.45394 1.69569
vn 0.67201 0.649851 -0.3551
v 0.824798 5.35319 1.74004
vn -0.351651 -0.219569 -0.910017
v 0.815806 5.36037 1.74228
vn -0.424436 -0.121001 -0.897337
v 1.3527 4.5357 1.77472
vn -0.461105 -0.336111 -0.821225
v 0.853982 5.28677 1.74779
vn -0.461541 -0.335443 -0.821254
v 1.38915 4.50461 1.81053
vn -0.700573 -0.498889 0.510204
v 1.37116 4.51922 1.79735
vn -0.762964 -0.4976 0.412651
v 0.858029 5.31734 1.78074
vn 0.294942 0.229745 0.927484
v 0.866675 5.29646 1.78294
vn 0.186217 0.158866 0.96958
v 0.893941 5.41909 1.73738
vn -0.216252 0.801445 0.557604
v 0.827903 5.3696 1.77578
vn 0.22446 0.374334 0.899718
v 0.957347 5.43864 1.66862
vn -0.348253 -0.217381 -0.911847
v 1.36838 4.51935 1.77313
vn -0.361475 -0.272769 -0.89159
v 1.40372 4.4855 1.80964
vn -0.632092 -0.619391 0.465635
v 1.18177 4.83706 1.79646
vn 0.325058 0.248567 0.912443
v 0.966987 5.45927 1.70084
vn 0.246703 0.388666 0.887737
v 1.53007 4.58554 1.69664
vn -0.315769 -0.257978 -0.913092
v 1.53039 4.5954 1.69415
vn -0.206533 -0.190086 -0.959798
v 1.54163 4.57352 1.69645
vn -0.218019 -0.236979 -0.946736
v 0.991952 5.412 1.66415
vn 0.0780607 0.0204425 -0.996739
v 1.01018 5.38815 1.66542
vn 0.737703 0.473764 -0.48098
v 1.25853 5.01131 1.67824
vn 0.0888354 0.0232735 -0.995774
v 1.00422 5.42137 1.69813
vn 0.655619 0.460508 0.598412
v 1.32613 4.93748 1.71537
vn 0.661914 0.460724 0.591273
v 1.02169 5.39693 1.69729
vn 0.798614 0.520669 -0.30186
v 1.54294 4.59537 1.73229
vn 0.341675 0.243873 0.907626
v 1.5541 4.58304 1.73098
vn 0.434969 0.261469 0.861647
v 1.54305 4.60507 1.72923
vn 0.444049 0.30653 0.841938
v 1.487 4.51557 1.75701
vn 0.552921 -0.832698 0.0298644
v 1.54844 4.5576 1.70089
vn 0.572582 -0.810142 -0.125777
v 1.5594 4.56597 1.73126
vn 0.662093 -0.738476 0.127615
v 0.971374 5.42694 1.66646
vn -0.330093 -0.236407 -0.913865
v 0.964806 5.44223 1.66529
vn -0.271668 -0.156195 -0.949631
v 0.98066 5.42329 1.66446
vn -0.223596 -0.164408 -0.960716
v 1.38856 4.49431 1.77288
vn -0.327352 -0.265445 -0.906852
v 1.37546 4.52327 1.76928
vn -0.329165 -0.251985 -0.91003
v 1.46068 4.53779 1.73474
vn -0.321747 -0.261455 -0.910011
v 1.41112 4.4807 1.80952
vn -0.174664 -0.576068 0.798522
v 1.40756 4.47468 1.7969
vn -0.397169 -0.837915 0.374372
v 1.42016 4.47621 1.80628
vn 0.52463 -0.827095 0.201685
v 1.25192 4.88179 1.75889
vn 0.32876 0.250954 0.910461
v 1.38855 4.53326 1.80551
vn 0.328446 0.249777 0.910898
v 1.52124 4.61881 1.73402
vn 0.329979 0.250765 0.910072
v 0.973377 5.4593 1.69785
vn 0.519896 0.83958 0.157521
v 0.977276 5.45174 1.69983
vn 0.381328 0.342265 0.858745
v 0.985193 5.44712 1.69758
vn 0.582464 0.482417 0.654225
v 0.829862 5.3357 1.7427
vn -0.341675 -0.243873 -0.907626
v 0.829749 5.326 1.74576
vn -0.44405 -0.306531 -0.841937
v 0.8187 5.34803 1.74401
vn -0.434969 -0.261469 -0.861647
v 1.36858 4.5097 1.77686
vn -0.654511 -0.460468 -0.599653
v 1.35112 4.53414 1.77771
vn -0.787999 -0.512157 0.341692
v 1.10194 4.91035 1.76261
vn -0.661914 -0.460724 -0.591273
v 1.38085 4.51907 1.81084
vn -0.0757745 -0.019845 0.996927
v 1.16954 4.83653 1.79974
vn -0.0888354 -0.0232736 0.995774
v 1.36262 4.54293 1.80957
vn -0.726511 -0.465505 0.505457
v 0.842737 5.34553 1.77836
vn 0.315769 0.257978 0.913092
v 0.83117 5.35755 1.77855
vn 0.218019 0.23698 0.946736
v 0.842418 5.33567 1.78085
vn 0.206534 0.190086 0.959797
v 0.888214 5.41735 1.72467
vn -0.552921 0.832698 -0.0298634
v 0.813402 5.3651 1.74373
vn -0.657785 0.745104 -0.110181
v 0.824367 5.37347 1.7741
vn -0.564429 0.813027 0.142857
v 0.984258 5.39782 1.66948
vn -0.328354 -0.249922 -0.910891
v 0.89918 5.38341 1.70442
vn -0.335719 -0.240413 -0.910766
v 1.39553 4.47933 1.77517
vn -0.381327 -0.342264 -0.858746
v 1.37948 4.49811 1.77546
vn -0.427008 -0.332222 -0.841007
v 1.408 4.48885 1.8097
vn 0.271669 0.156194 0.949631
v 1.39968 4.49317 1.81085
vn 0.0147164 -0.0265694 0.999539
v 0.997343 5.4078 1.70572
vn 0.329226 0.251891 0.910034
v 0.864644 5.32225 1.77721
vn 0.327701 0.250908 0.910855
v 0.967618 5.4582 1.68467
vn 0.397169 0.837915 -0.374372
v 0.963609 5.46324 1.69908
vn -0.426962 0.901648 0.0688014
v 1.54792 4.5675 1.69714
vn 0.727725 -0.071225 -0.682161
v 1.54092 4.58279 1.69481
vn 0.051761 -0.0735401 -0.995948
v 1.52439 4.61015 1.69291
vn 0.0820916 0.0144102 -0.996521
v 1.50947 4.63623 1.69239
vn 0.738783 0.472138 -0.480922
v 1.26718 5.01776 1.69797
vn 0.765636 0.493595 -0.412512
v 1.52097 4.64501 1.72425
vn 0.796372 0.516277 -0.315038
v 1.53666 4.61952 1.72689
vn 0.657812 0.453087 0.60166
v 1.55299 4.59201 1.72825
vn 0.648927 0.382298 0.657831
v 1.55961 4.57643 1.72952
vn 0.969922 0.161826 0.181832
v 1.5568 4.57089 1.7165
vn 0.938269 0.0230105 -0.345142
v 0.97312 5.4379 1.66414
vn -0.0147163 0.0265694 -0.999539
v 1.50816 4.60882 1.69778
vn -0.327638 -0.251001 -0.910852
v 1.40919 4.46784 1.77592
vn 0.434165 -0.899377 -0.0512048
v 1.47362 4.54766 1.77058
vn 0.335719 0.240412 0.910766
v 0.993328 5.43296 1.69954
vn 0.427009 0.332223 0.841006
v 0.813194 5.35464 1.74548
vn -0.990541 -0.12939 -0.0456756
v 0.819811 5.33907 1.74675
vn -0.648927 -0.382298 -0.657831
v 0.836143 5.31156 1.7481
vn -0.65854 -0.454432 -0.599848
v 0.851833 5.28606 1.75074
vn -0.789079 -0.510531 0.341633
v 1.10804 4.91516 1.78371
vn -0.765636 -0.493595 0.412512
v 0.863339 5.29485 1.7826
vn -0.721893 -0.459581 0.517354
v 0.848413 5.32092 1.78208
vn -0.0830968 -0.0157319 0.996417
v 0.831883 5.34828 1.78018
vn -0.0517616 0.0735398 0.995948
v 0.824887 5.36357 1.77786
vn -0.624707 0.101688 0.77421
v 0.818381 5.36199 1.76508
vn -0.938268 -0.0230103 0.345142
v 0.851559 5.31227 1.74098
vn -0.329881 -0.250907 -0.910068
v 1.38761 4.48396 1.77742
vn -0.582461 -0.482413 -0.65423
v 1.39214 4.50778 1.81054
vn 0.223597 0.164409 0.960715
v 0.91212 5.39329 1.74025
vn 0.321747 0.261455 0.910011
v 0.952644 5.45487 1.66871
vn -0.519371 0.834336 -0.184764
v 0.961684 5.45037 1.66547
vn 0.239701 0.663723 -0.708531
v 1.17983 4.96052 1.71929
vn -0.32876 -0.250954 -0.910461
v 1.39943 4.47178 1.77714
vn -0.502534 -0.864342 -0.0193045
v 1.40143 4.50414 1.80854
vn 0.330094 0.236406 0.913866
v 0.984248 5.43676 1.70211
vn 0.327351 0.265445 0.906852
f 1//1 2//2 3//3
f 1//1 3//3 4//4
f 1//1 4//4 5//5
f 1//1 5//5 6//6
f 1//1 6//6 2//2
f 7//7 8//8 9//9
f 10//10 11//11 12//12
f 13//13 14//14 15//15
f 16//16 17//17 18//18
f 19//19 20//20 21//21
f 22//22 23//23 24//24
f 22//22 24//24 25//25
f 22//22 25//25 26//26
f 22//22 26//26 27//27
f 22//22 27//27 23//23
f 28//28 29//29 30//30
f 31//31 32//32 33//33
f 34//34 35//35 36//36
f 37//37 38//38 39//39
f 40//40 41//41 42//42
f 13//13 43//43 44//44
f 10//10 45//45 46//46
f 7//7 47//47 48//48
f 19//19 49//49 50//50
f 16//16 51//51 52//52
f 10//10 53//53 45//45
f 13//13 54//54 43//43
f 16//16 55//55 51//51
f 19//19 56//56 49//49
f 7//7 57//57 47//47
f 40//40 58//58 59//59
f 28//28 60//60 61//61
f 31//31 62//62 63//63
f 34//34 64//64 65//65
f 37//37 66//66 67//67
f 40//40 68//68 58//58
f 28//28 69//69 60//60
f 31//31 70//70 62//62
f 34//34 71//71 64//64
f 37//37 72//72 66//66
f 10//10 46//46 11//11
f 7//7 48//48 8//8
f 19//19 50//50 20//20
f 16//16 52//52 17//17
f 13//13 44//44 14//14
f 40//40 42//42 68//68
f 28//28 30//30 69//69
f 31//31 33//33 70//70
f 34//34 36//36 71//71
f 37//37 39//39 72//72
f 28//28 61//61 29//29
f 31//31 63//63 32//32
f 34//34 65//65 35//35
f 37//37 67//67 38//38
f 40//40 59//59 41//41
f 10//10 12//12 53//53
f 13//13 15//15 54//54
f 16//16 18//18 55//55
f 19//19 21//21 56//56
f 7//7 9//9 57//57
f 73//73 74//74 75//75
f 76//76 77//77 78//78
f 79//79 80//80 81//81
f 82//82 83//83 84//84
f 85//85 86//86 87//87
f 88//88 89//89 90//90
f 91//91 92//92 93//93
f 94//94 95//95 96//96
f 97//97 98//98 99//99
f 100//100 101//101 102//102
f 103//103 104//104 105//105
f 106//106 107//107 108//108
f 109//109 110//110 111//111
f 112//112 113//113 114//114
f 115//115 116//116 117//117
f 88//88 118//118 119//119
f 91//91 120//120 121//121
f 94//94 122//122 123//123
f 97//97 124//124 125//125
f 100//100 126//126 127//127
f 128//128 129//129 2//2
f 130//130 131//131 3//3
f 132//132 133//133 4//4
f 134//134 135//135 5//5
f 136//136 137//137 6//6
f 76//76 138//138 8//8
f 73//73 139//139 11//11
f 85//85 140//140 14//14
f 82//82 141//141 17//17
f 79//79 142//142 20//20
f 143//143 144//144 23//23
f 145//145 146//146 24//24
f 147//147 148//148 25//25
f 149//149 150//150 26//26
f 151//151 152//152 27//27
f 103//103 153//153 29//29
f 106//106 154//154 32//32
f 109//109 155//155 35//35
f 112//112 156//156 38//38
f 115//115 157//157 41//41
f 73//73 75//75 43//43
f 76//76 78//78 45//45
f 79//79 81//81 47//47
f 82//82 84//84 49//49
f 85//85 87//87 51//51
f 88//88 90//90 53//53
f 91//91 93//93 54//54
f 94//94 96//96 55//55
f 97//97 99//99 56//56
f 100//100 102//102 57//57
f 103//103 105//105 58//58
f 106//106 108//108 60//60
f 109//109 111//111 62//62
f 112//112 114//114 64//64
f 115//115 117//117 66//66
f 88//88 119//119 68//68
f 91//91 121//121 69//69
f 94//94 123//123 70//70
f 97//97 125//125 71//71
f 100//100 127//127 72//72
f 130//130 74//74 46//46
f 132//132 77//77 48//48
f 134//134 80//80 50//50
f 136//136 83//83 52//52
f 128//128 86//86 44//44
f 158//158 89//89 42//42
f 159//159 92//92 30//30
f 160//160 95//95 33//33
f 161//161 98//98 36//36
f 162//162 101//101 39//39
f 145//145 104//104 61//61
f 147//147 107//107 63//63
f 149//149 110//110 65//65
f 151//151 113//113 67//67
f 143//143 116//116 59//59
f 159//159 118//118 12//12
f 160//160 120//120 15//15
f 161//161 122//122 18//18
f 162//162 124//124 21//21
f 158//158 126//126 9//9
f 130//130 129//129 74//74
f 132//132 131//131 77//77
f 134//134 133//133 80//80
f 136//136 135//135 83//83
f 128//128 137//137 86//86
f 158//158 138//138 89//89
f 159//159 139//139 92//92
f 160//160 140//140 95//95
f 161//161 141//141 98//98
f 162//162 142//142 101//101
f 145//145 144//144 104//104
f 147//147 146//146 107//107
f 149//149 148//148 110//110
f 151//151 150//150 113//113
f 143//143 152//152 116//116
f 159//159 153//153 118//118
f 160//160 154//154 120//120
f 161//161 155//155 122//122
f 162//162 156//156 124//124
f 158//158 157//157 126//126
f 130//130 3//3 129//129
f 132//132 4//4 131//131
f 134//134 5//5 133//133
f 136//136 6//6 135//135
f 128//128 2//2 137//137
f 158//158 9//9 138//138
f 159//159 12//12 139//139
f 160//160 15//15 140//140
f 161//161 18//18 141//141
f 162//162 21//21 142//142
f 145//145 24//24 144//144
f 147//147 25//25 146//146
f 149//149 26//26 148//148
f 151//151 27//27 150//150
f 143//143 23//23 152//152
f 159//159 30//30 153//153
f 160//160 33//33 154//154
f 161//161 36//36 155//155
f 162//162 39//39 156//156
f 158//158 42//42 157//157
f 128//128 44//44 75//75
f 130//130 46//46 78//78
f 132//132 48//48 81//81
f 134//134 50//50 84//84
f 136//136 52//52 87//87
f 76//76 45//45 90//90
f 73//73 43//43 93//93
f 85//85 51//51 96//96
f 82//82 49//49 99//99
f 79//79 47//47 102//102
f 143//143 59//59 105//105
f 145//145 61//61 108//108
f 147//147 63//63 111//111
f 149//149 65//65 114//114
f 151//151 67//67 117//117
f 103//103 58//58 119//119
f 106//106 60//60 121//121
f 109//109 62//62 123//123
f 112//112 64//64 125//125
f 115//115 66//66 127//127
f 73//73 11//11 74//74
f 76//76 8//8 77//77
f 79//79 20//20 80//80
f 82//82 17//17 83//83
f 85//85 14//14 86//86
f 88//88 68//68 89//89
f 91//91 69//69 92//92
f 94//94 70//70 95//95
f 97//97 71//71 98//98
f 100//100 72//72 101//101
f 103//103 29//29 104//104
f 106//106 32//32 107//107
f 109//109 35//35 110//110
f 112//112 38//38 113//113
f 115//115 41//41 116//116
f 88//88 53//53 118//118
f 91//91 54//54 120//120
f 94//94 55//55 122//122
f 97//97 56//56 124//124
f 100//100 57//57 126//126
f 128//128 75//75 129//129
f 130//130 78//78 131//131
f 132//132 81//81 133//133
f 134//134 84//84 135//135
f 136//136 87//87 137//137
f 76//76 90//90 138//138
f 73//73 93//93 139//139
f 85//85 96//96 140//140
f 82//82 99//99 141//141
f 79//79 102//102 142//142
f 143//143 105//105 144//144
f 145//145 108//108 146//146
f 147//147 111//111 148//148
f 149//149 114//114 150//150
f 151//151 117//117 152//152
f 103//103 119//119 153//153
f 106//106 121//121 154//154
f 109//109 123//123 155//155
f 112//112 125//125 156//156
f 115//115 127//127 157//157
f 129//129 3//3 2//2
f 131//131 4//4 3//3
f 133//133 5//5 4//4
f 135//135 6//6 5//5
f 137//137 2//2 6//6
f 138//138 9//9 8//8
f 139//139 12//12 11//11
f 140//140 15//15 14//14
f 141//141 18//18 17//17
f 142//142 21//21 20//20
f 144//144 24//24 23//23
f 146//146 25//25 24//24
f 148//148 26//26 25//25
f 150//150 27//27 26//26
f 152//152 23//23 27//27
f 153//153 30//30 29//29
f 154//154 33//33 32//32
f 155//155 36//36 35//35
f 156//156 39//39 38//38
f 157//157 42//42 41//41
f 75//75 44//44 43//43
f 78//78 46//46 45//45
f 81//81 48//48 47//47
f 84//84 50//50 49//49
f 87//87 52//52 51//51
f 90//90 45//45 53//53
f 93//93 43//43 54//54
f 96//96 51//51 55//55
f 99//99 49//49 56//56
f 102//102 47//47 57//57
f 105//105 59//59 58//58
f 108//108 61//61 60//60
f 111//111 63//63 62//62
f 114//114 65//65 64//64
f 117//117 67//67 66//66
f 119//119 58//58 68//68
f 121//121 60//60 69//69
f 123//123 62//62 70//70
f 125//125 64//64 71//71
f 127//127 66//66 72//72
f 74//74 11//11 46//46
f 77//77 8//8 48//48
f 80//80 20//20 50//50
f 83//83 17//17 52//52
f 86//86 14//14 44//44
f 89//89 68//68 42//42
f 92//92 69//69 30//30
f 95//95 70//70 33//33
f 98//98 71//71 36//36
f 101//101 72//72 39//39
f 104//104 29//29 61//61
f 107//107 32//32 63//63
f 110//110 35//35 65//65
f 113//113 38//38 67//67
f 116//116 41//41 59//59
f 118//118 53//53 12//12
f 120//120 54//54 15//15
f 122//122 55//55 18//18
f 124//124 56//56 21//21
f 126//126 57//57 9//9
f 129//129 75//75 74//74
f 131//131 78//78 77//77
f 133//133 81//81 80//80
f 135//135 84//84 83//83
f 137//137 87//87 86//86
f 138//138 90//90 89//89
f 139//139 93//93 92//92
f 140//140 96//96 95//95
f 141//141 99//99 98//98
f 142//142 102//102 101//101
f 144//144 105//105 104//104
f 146//146 108//108 107//107
f 148//148 111//111 110//110
f 150//150 114//114 113//113
f 152//152 117//117 116//116
f 153//153 119//119 118//118
f 154//154 121//121 120//120
f 155//155 123//123 122//122
f 156//156 125//125 124//124
f 157//157 127//127 126//126
