# Created by Open3D 
# object name: part_016
# number of vertices: 162
# number of triangles: 320
v -0.533845 4.78597 1.49745
vn -0.851245 -0.51621 -0.0943902
v -0.521393 4.76962 1.48766
vn -0.776304 -0.561535 -0.286411
v -0.523025 4.76833 1.50508
vn -0.794511 -0.606562 -0.0288921
v -0.5346 4.78612 1.52071
vn -0.856518 -0.514226 0.0441469
v -0.541052 4.79826 1.50396
vn -0.925255 -0.377503 -0.0373305
v -0.538572 4.79815 1.4866
vn -0.854479 -0.428524 -0.293655
v -0.512154 4.82625 2.22844
vn -0.842491 -0.49995 0.200645
v -0.501747 4.80785 2.22217
vn -0.789431 -0.597136 0.142222
v -0.499092 4.81104 2.23921
vn -0.75618 -0.52417 0.391712
v -0.505167 4.78985 1.86331
vn 0.470161 -0.8819 0.0346471
v -0.512982 4.77243 1.52253
vn 0.4894 -0.87145 0.0326111
v -0.497453 4.7942 1.86284
vn 0.512791 -0.857915 0.0320604
v -0.397213 4.84139 1.47225
vn 0.507464 -0.856085 -0.0979701
v -0.397966 4.84215 1.46747
vn 0.170484 -0.379258 -0.90945
v -0.285751 4.90866 1.46469
vn 0.505022 -0.842096 -0.189281
v -0.416555 4.87351 1.47105
vn -0.515156 0.841808 -0.161163
v -0.523026 4.81052 1.48501
vn -0.517842 0.851206 -0.0853666
v -0.310196 4.93821 1.47165
vn -0.515199 0.852792 -0.0855342
v -0.527704 4.81939 1.78656
vn -0.559797 0.828122 -0.0290241
v -0.519008 4.8391 2.18691
vn -0.619197 0.784858 -0.024362
v -0.513091 4.84371 2.20255
vn -0.541299 0.840312 -0.0295096
v -0.260716 4.9771 2.21267
vn 0.851245 0.51621 0.0943871
v -0.252436 4.95902 2.22374
vn 0.849873 0.439387 0.290956
v -0.249956 4.95891 2.20637
vn 0.906623 0.420419 0.035819
v -0.259736 4.97657 2.18942
vn 0.856518 0.514226 -0.044147
v -0.267983 4.98884 2.20526
vn 0.765296 0.643093 0.0274408
v -0.269615 4.98755 2.22268
vn 0.76878 0.570814 0.288355
v -0.265545 4.93362 1.84828
vn 0.55979 -0.828126 0.0290246
v -0.257701 4.951 2.18906
vn 0.541476 -0.84014 0.0311195
v -0.273008 4.92886 1.84876
vn 0.518551 -0.854459 0.031699
v -0.282407 4.93682 1.48168
vn 0.842491 0.499949 -0.200646
v -0.271234 4.91939 1.48928
vn 0.901547 0.410987 -0.135292
v -0.274736 4.91761 1.47219
vn 0.82975 0.402017 -0.387165
v -0.288081 4.96315 1.77152
vn -0.470154 0.881904 -0.0346476
v -0.29191 4.95113 1.5222
vn -0.402271 0.914686 -0.0390786
v -0.298241 4.9472 1.50653
vn -0.489246 0.871458 -0.0346308
v -0.393795 4.91578 2.23809
vn -0.507464 0.856085 0.0979701
v -0.287869 4.97967 2.2241
vn -0.512015 0.858702 0.0217081
v -0.500698 4.85198 2.23745
vn -0.51466 0.857115 0.0218724
v -0.374453 4.88366 2.23928
vn 0.515156 -0.841808 0.161163
v -0.374925 4.88494 2.24399
vn 0.225179 -0.277673 0.933912
v -0.486283 4.817 2.24681
vn 0.500949 -0.828149 0.251436
v -0.503139 4.7775 1.48623
vn 0.512015 -0.858702 -0.0217084
v -0.509075 4.77468 1.4787
vn 0.487903 -0.852372 -0.188185
v -0.499098 4.80604 2.18814
vn 0.403182 -0.914289 0.0389784
v -0.518363 4.77026 1.53888
vn 0.403155 -0.914348 0.0378646
v -0.519774 4.83778 2.22105
vn -0.920196 -0.368107 0.13318
v -0.514284 4.82385 2.20539
vn -0.85595 -0.513172 0.063283
v -0.533307 4.80617 1.52128
vn -0.541688 0.839995 -0.0313415
v -0.538273 4.80332 1.53765
vn -0.620691 0.783645 -0.0253767
v -0.416083 4.87223 1.46635
vn -0.289795 0.391716 -0.873257
v -0.528049 4.80618 1.47753
vn -0.518069 0.817872 -0.25038
v -0.492767 4.80997 2.2038
vn 0.489453 -0.871351 0.0343827
v -0.29031 4.90519 1.47288
vn 0.51466 -0.857115 -0.0218723
v -0.304725 4.94017 1.46352
vn -0.500949 0.828148 -0.251436
v -0.520268 4.8241 1.78514
vn -0.518551 0.854459 -0.031699
v -0.516272 4.83956 2.23815
vn -0.834226 -0.390909 0.388918
v -0.267982 4.94665 2.22533
vn 0.517842 -0.851206 0.0853664
v -0.262959 4.95099 2.2328
vn 0.518069 -0.817872 0.25038
v -0.272 4.91807 1.52343
vn 0.619871 -0.784328 0.0242692
v -0.252735 4.95385 2.17268
vn 0.619907 -0.784265 0.0253827
v -0.289261 4.94932 1.48817
vn 0.760227 0.633708 -0.143069
v -0.280052 4.93884 1.50474
vn 0.85595 0.513171 -0.0632828
v -0.278026 4.98474 2.1878
vn -0.489527 0.871373 -0.0327574
v -0.272645 4.98691 2.17145
vn -0.403948 0.913998 -0.0378656
v -0.393042 4.91502 2.24287
vn -0.23894 0.486159 0.840569
v -0.281933 4.98249 2.23163
vn -0.487902 0.852371 0.188186
v -0.480812 4.81896 2.23868
vn 0.515199 -0.852792 0.0855342
v -0.277917 4.91346 1.50779
vn 0.541412 -0.840245 0.0293482
v -0.291916 4.94613 1.47112
vn 0.748523 0.533201 -0.394222
v -0.295823 4.95876 1.77106
vn -0.512791 0.857915 -0.0320604
v -0.505257 4.84851 2.24564
vn -0.505021 0.842096 0.189282
v -0.509809 4.77362 1.49925
vn 0.510542 -0.859735 0.0142351
v -0.517343 4.76968 1.50555
vn 0.425993 -0.904591 0.015675
v -0.514165 4.77128 1.48766
vn 0.44736 -0.893798 -0.0315395
v -0.500686 4.80666 2.21019
vn 0.17616 -0.982862 0.0543074
v -0.503966 4.80524 2.1887
vn -0.794609 -0.604266 0.0588181
v -0.511551 4.7871 1.86365
vn 0.167742 -0.984598 0.0492801
v -0.519932 4.83861 2.209
vn -0.788013 0.61563 -0.00597015
v -0.533029 4.81525 1.7905
vn -0.792504 0.609784 -0.0100871
v -0.522013 4.8352 2.18758
vn -0.930935 -0.361806 0.0495523
v -0.530003 4.80715 1.498
vn -0.520626 0.852348 -0.0495158
v -0.533725 4.80376 1.48645
vn -0.578778 0.809936 -0.094973
v -0.537213 4.80267 1.50432
vn -0.599878 0.798666 -0.0477458
v -0.408964 4.86025 1.46528
vn -0.0296147 -0.0549992 -0.998047
v -0.510201 4.77587 1.47489
vn -0.0200723 -0.158785 -0.987109
v -0.5274 4.80442 1.47383
vn -0.124059 0.0145137 -0.992169
v -0.488226 4.8137 2.22659
vn 0.511607 -0.857759 0.0500871
v -0.491883 4.81266 2.2386
vn 0.451341 -0.88639 0.102971
v -0.496107 4.80912 2.22122
vn 0.427246 -0.902236 0.0585784
v -0.282587 4.90994 1.485
vn 0.519564 -0.854322 0.0136745
v -0.288825 4.90667 1.5081
vn 0.516243 -0.855883 0.0309464
v -0.396201 4.84159 1.4903
vn 0.515077 -0.857023 0.014396
v -0.296785 4.94431 1.46553
vn 0.170259 0.73749 -0.653544
v -0.288935 4.93243 1.46402
vn 0.54911 0.301702 -0.779394
v -0.303822 4.93856 1.4598
vn -0.0461796 0.0612382 -0.997054
v -0.408094 4.89148 1.7778
vn -0.515675 0.856191 -0.0318798
v -0.309349 4.94075 1.50683
vn -0.515111 0.856486 -0.0330519
v -0.522421 4.81291 1.52019
vn -0.516305 0.85577 -0.0329773
v -0.512565 4.84332 2.24368
vn -0.752421 0.229106 0.617554
v -0.511442 4.84514 2.2374
vn -0.574803 0.817336 0.0395332
v -0.517088 4.84083 2.2319
vn -0.745256 0.662783 0.0728884
v -0.261005 4.95002 2.21233
vn 0.520626 -0.852348 0.0495162
v -0.253795 4.9545 2.20601
vn 0.599877 -0.798666 0.0477455
v -0.257283 4.95341 2.22389
vn 0.578777 -0.809936 0.0949726
v -0.271076 4.91856 1.50134
vn 0.787225 -0.616643 0.00524912
v -0.268995 4.92196 1.52275
vn 0.907524 0.416788 -0.0518374
v -0.260114 4.93795 1.84788
vn 0.792507 -0.609779 0.0100868
v -0.290322 4.95051 1.50015
vn -0.177937 0.982483 -0.0553729
v -0.281592 4.9661 1.77473
vn -0.167742 0.984598 -0.0492801
v -0.287042 4.95193 1.52164
vn 0.769672 0.635625 -0.059884
v -0.281199 4.98355 2.21109
vn -0.510542 0.859735 -0.0142351
v -0.276843 4.98589 2.22268
vn -0.447361 0.893797 0.0315391
v -0.273665 4.98749 2.20479
vn -0.425993 0.904591 -0.015675
v -0.385833 4.90321 2.24482
vn 0.0296142 0.0549999 0.998047
v -0.263608 4.95275 2.23651
vn 0.117153 -0.00239924 0.993111
v -0.280807 4.9813 2.23544
vn 0.0126414 0.170478 0.98528
v -0.481659 4.81642 2.20351
vn 0.515105 -0.856499 0.0328139
v -0.374511 4.88188 2.22129
vn 0.516115 -0.855096 0.049363
v -0.279566 4.91203 1.47294
vn 0.574803 -0.817336 -0.039533
v -0.275031 4.91506 1.49035
vn 0.598612 -0.801025 0.00483955
v -0.299125 4.94451 1.47173
vn -0.451341 0.88639 -0.102971
v -0.292857 4.94778 1.47726
vn -0.233943 0.96305 -0.133434
v -0.502183 4.8505 2.20224
vn -0.516246 0.855875 -0.0311023
v -0.289111 4.97833 2.18887
vn -0.515059 0.856588 -0.0311766
v -0.505801 4.83093 2.24608
vn -0.54911 -0.301702 0.779394
v -0.504385 4.84717 2.24947
vn -0.0652385 0.123753 0.990166
v -0.516869 4.77081 1.48162
vn -0.316326 -0.720647 -0.616933
v -0.520085 4.76865 1.49388
vn 0.22877 -0.972638 -0.0404986
v -0.521254 4.76846 1.51703
vn 0.175821 -0.983456 0.0436058
v -0.523253 4.76942 1.5387
vn -0.794723 -0.60448 0.0549511
v -0.525167 4.80507 1.86307
vn -0.856273 -0.513723 0.0537173
v -0.5413 4.79939 1.53759
vn -0.923694 -0.380318 0.0463475
v -0.5405 4.80042 1.51584
vn -0.786441 0.617426 -0.017199
v -0.539022 4.80009 1.49271
vn -0.750424 0.653189 -0.101032
v -0.535211 4.80126 1.48048
vn -0.788354 0.162377 -0.593407
v -0.528561 4.78866 1.47905
vn -0.593237 -0.383653 -0.707729
v -0.498151 4.80939 2.23307
vn 0.233943 -0.96305 0.133434
v -0.501897 4.77884 1.52146
vn 0.515052 -0.856597 0.031021
v -0.286623 4.91 1.46087
vn 0.0582493 -0.111796 -0.992023
v -0.416497 4.87529 1.48904
vn -0.516115 0.855096 -0.0493628
v -0.515978 4.84211 2.21999
vn -0.598613 0.801024 -0.00483966
v -0.255797 4.95591 2.22985
vn 0.764159 -0.022911 0.644621
v -0.251986 4.95707 2.21763
vn 0.750425 -0.653189 0.101032
v -0.250508 4.95675 2.19449
vn 0.787505 -0.616102 0.0159553
v -0.249708 4.95778 2.17275
vn 0.907638 0.417004 -0.0479704
v -0.26963 4.95839 1.84704
vn 0.856273 0.513722 -0.0537171
v -0.267755 4.98775 2.17163
vn 0.757061 0.65091 -0.0563421
v -0.269754 4.98871 2.19331
vn -0.17462 0.983632 -0.0444513
v -0.270923 4.98852 2.21646
vn -0.228769 0.972638 0.0404985
v -0.274139 4.98636 2.22872
vn 0.206185 0.804226 0.557412
v -0.266175 4.9747 2.23105
vn 0.593237 0.383653 0.707729
v -0.268587 4.94426 2.19014
vn 0.516297 -0.855784 0.0327394
v -0.27392 4.91634 1.47843
vn 0.745254 -0.662784 -0.0728882
v -0.294901 4.94805 1.48912
vn -0.427246 0.902236 -0.0585783
v -0.394807 4.91558 2.22004
vn -0.515077 0.857023 -0.014396
v -0.487186 4.81861 2.25053
vn 0.0388303 -0.0493893 0.998025
v -0.494223 4.81286 2.24481
vn -0.276953 -0.647528 0.709932
v -0.385191 4.86146 1.85581
vn 0.515675 -0.856191 0.0318798
v -0.278443 4.91385 1.46666
vn 0.724788 -0.0960319 -0.682247
v -0.302782 4.94347 1.48375
vn -0.511607 0.857758 -0.050087
v -0.508421 4.84723 2.22534
vn -0.519564 0.854322 -0.0136745
f 1//1 2//2 3//3
f 1//1 3//3 4//4
f 1//1 4//4 5//5
f 1//1 5//5 6//6
f 1//1 6//6 2//2
f 7//7 8//8 9//9
f 10//10 11//11 12//12
f 13//13 14//14 15//15
f 16//16 17//17 18//18
f 19//19 20//20 21//21
f 22//22 23//23 24//24
f 22//22 24//24 25//25
f 22//22 25//25 26//26
f 22//22 26//26 27//27
f 22//22 27//27 23//23
f 28//28 29//29 30//30
f 31//31 32//32 33//33
f 34//34 35//35 36//36
f 37//37 38//38 39//39
f 40//40 41//41 42//42
f 13//13 43//43 44//44
f 10//10 45//45 46//46
f 7//7 47//47 48//48
f 19//19 49//49 50//50
f 16//16 51//51 52//52
f 10//10 53//53 45//45
f 13//13 54//54 43//43
f 16//16 55//55 51//51
f 19//19 56//56 49//49
f 7//7 57//57 47//47
f 40//40 58//58 59//59
f 28//28 60//60 61//61
f 31//31 62//62 63//63
f 34//34 64//64 65//65
f 37//37 66//66 67//67
f 40//40 68//68 58//58
f 28//28 69//69 60//60
f 31//31 70//70 62//62
f 34//34 71//71 64//64
f 37//37 72//72 66//66
f 10//10 46//46 11//11
f 7//7 48//48 8//8
f 19//19 50//50 20//20
f 16//16 52//52 17//17
f 13//13 44//44 14//14
f 40//40 42//42 68//68
f 28//28 30//30 69//69
f 31//31 33//33 70//70
f 34//34 36//36 71//71
f 37//37 39//39 72//72
f 28//28 61//61 29//29
f 31//31 63//63 32//32
f 34//34 65//65 35//35
f 37//37 67//67 38//38
f 40//40 59//59 41//41
f 10//10 12//12 53//53
f 13//13 15//15 54//54
f 16//16 18//18 55//55
f 19//19 21//21 56//56
f 7//7 9//9 57//57
f 73//73 74//74 75//75
f 76//76 77//77 78//78
f 79//79 80//80 81//81
f 82//82 83//83 84//84
f 85//85 86//86 87//87
f 88//88 89//89 90//90
f 91//91 92//92 93//93
f 94//94 95//95 96//96
f 97//97 98//98 99//99
f 100//100 101//101 102//102
f 103//103 104//104 105//105
f 106//106 107//107 108//108
f 109//109 110//110 111//111
f 112//112 113//113 114//114
f 115//115 116//116 117//117
f 88//88 118//118 119//119
f 91//91 120//120 121//121
f 94//94 122//122 123//123
f 97//97 124//124 125//125
f 100//100 126//126 127//127
f 128//128 129//129 2//2
f 130//130 131//131 3//3
f 132//132 133//133 4//4
f 134//134 135//135 5//5
f 136//136 137//137 6//6
f 76//76 138//138 8//8
f 73//73 139//139 11//11
f 85//85 140//140 14//14
f 82//82 141//141 17//17
f 79//79 142//142 20//20
f 143//143 144//144 23//23
f 145//145 146//146 24//24
f 147//147 148//148 25//25
f 149//149 150//150 26//26
f 151//151 152//152 27//27
f 103//103 153//153 29//29
f 106//106 154//154 32//32
f 109//109 155//155 35//35
f 112//112 156//156 38//38
f 115//115 157//157 41//41
f 73//73 75//75 43//43
f 76//76 78//78 45//45
f 79//79 81//81 47//47
f 82//82 84//84 49//49
f 85//85 87//87 51//51
f 88//88 90//90 53//53
f 91//91 93//93 54//54
f 94//94 96//96 55//55
f 97//97 99//99 56//56
f 100//100 102//102 57//57
f 103//103 105//105 58//58
f 106//106 108//108 60//60
f 109//109 111//111 62//62
f 112//112 114//114 64//64
f 115//115 117//117 66//66
f 88//88 119//119 68//68
f 91//91 121//121 69//69
f 94//94 123//123 70//70
f 97//97 125//125 71//71
f 100//100 127//127 72//72
f 130//130 74//74 46//46
f 132//132 77//77 48//48
f 134//134 80//80 50//50
f 136//136 83//83 52//52
f 128//128 86//86 44//44
f 158//158 89//89 42//42
f 159//159 92//92 30//30
f 160//160 95//95 33//33
f 161//161 98//98 36//36
f 162//162 101//101 39//39
f 145//145 104//104 61//61
f 147//147 107//107 63//63
f 149//149 110//110 65//65
f 151//151 113//113 67//67
f 143//143 116//116 59//59
f 159//159 118//118 12//12
f 160//160 120//120 15//15
f 161//161 122//122 18//18
f 162//162 124//124 21//21
f 158//158 126//126 9//9
f 130//130 129//129 74//74
f 132//132 131//131 77//77
f 134//134 133//133 80//80
f 136//136 135//135 83//83
f 128//128 137//137 86//86
f 158//158 138//138 89//89
f 159//159 139//139 92//92
f 160//160 140//140 95//95
f 161//161 141//141 98//98
f 162//162 142//142 101//101
f 145//145 144//144 104//104
f 147//147 146//146 107//107
f 149//149 148//148 110//110
f 151//151 150//150 113//113
f 143//143 152//152 116//116
f 159//159 153//153 118//118
f 160//160 154//154 120//120
f 161//161 155//155 122//122
f 162//162 156//156 124//124
f 158//158 157//157 126//126
f 130//130 3//3 129//129
f 132//132 4//4 131//131
f 134//134 5//5 133//133
f 136//136 6//6 135//135
f 128//128 2//2 137//137
f 158//158 9//9 138//138
f 159//159 12//12 139//139
f 160//160 15//15 140//140
f 161//161 18//18 141//141
f 162//162 21//21 142//142
f 145//145 24//24 144//144
f 147//147 25//25 146//146
f 149//149 26//26 148//148
f 151//151 27//27 150//150
f 143//143 23//23 152//152
f 159//159 30//30 153//153
f 160//160 33//33 154//154
f 161//161 36//36 155//155
f 162//162 39//39 156//156
f 158//158 42//42 157//157
f 128//128 44//44 75//75
f 130//130 46//46 78//78
f 132//132 48//48 81//81
f 134//134 50//50 84//84
f 136//136 52//52 87//87
f 76//76 45//45 90//90
f 73//73 43//43 93//93
f 85//85 51//51 96//96
f 82//82 49//49 99//99
f 79//79 47//47 102//102
f 143//143 59//59 105//105
f 145//145 61//61 108//108
f 147//147 63//63 111//111
f 149//149 65//65 114//114
f 151//151 67//67 117//117
f 103//103 58//58 119//119
f 106//106 60//60 121//121
f 109//109 62//62 123//123
f 112//112 64//64 125//125
f 115//115 66//66 127//127
f 73//73 11//11 74//74
f 76//76 8//8 77//77
f 79//79 20//20 80//80
f 82//82 17//17 83//83
f 85//85 14//14 86//86
f 88//88 68//68 89//89
f 91//91 69//69 92//92
f 94//94 70//70 95//95
f 97//97 71//71 98//98
f 100//100 72//72 101//101
f 103//103 29//29 104//104
f 106//106 32//32 107//107
f 109//109 35//35 110//110
f 112//112 38//38 113//113
f 115//115 41//41 116//116
f 88//88 53//53 118//118
f 91//91 54//54 120//120
f 94//94 55//55 122//122
f 97//97 56//56 124//124
f 100//100 57//57 126//126
f 128//128 75//75 129//129
f 130//130 78//78 131//131
f 132//132 81//81 133//133
f 134//134 84//84 135//135
f 136//136 87//87 137//137
f 76//76 90//90 138//138
f 73//73 93//93 139//139
f 85//85 96//96 140//140
f 82//82 99//99 141//141
f 79//79 102//102 142//142
f 143//143 105//105 144//144
f 145//145 108//108 146//146
f 147//147 111//111 148//148
f 149//149 114//114 150//150
f 151//151 117//117 152//152
f 103//103 119//119 153//153
f 106//106 121//121 154//154
f 109//109 123//123 155//155
f 112//112 125//125 156//156
f 115//115 127//127 157//157
f 129//129 3//3 2//2
f 131//131 4//4 3//3
f 133//133 5//5 4//4
f 135//135 6//6 5//5
f 137//137 2//2 6//6
f 138//138 9//9 8//8
f 139//139 12//12 11//11
f 140//140 15//15 14//14
f 141//141 18//18 17//17
f 142//142 21//21 20//20
f 144//144 24//24 23//23
f 146//146 25//25 24//24
f 148//148 26//26 25//25
f 150//150 27//27 26//26
f 152//152 23//23 27//27
f 153//153 30//30 29//29
f 154//154 33//33 32//32
f 155//155 36//36 35//35
f 156//156 39//39 38//38
f 157//157 42//42 41//41
f 75//75 44//44 43//43
f 78//78 46//46 45//45
f 81//81 48//48 47//47
f 84//84 50//50 49//49
f 87//87 52//52 51//51
f 90//90 45//45 53//53
f 93//93 43//43 54//54
f 96//96 51//51 55//55
f 99//99 49//49 56//56
f 102//102 47//47 57//57
f 105//105 59//59 58//58
f 108//108 61//61 60//60
f 111//111 63//63 62//62
f 114//114 65//65 64//64
f 117//117 67//67 66//66
f 119//119 58//58 68//68
f 121//121 60//60 69//69
f 123//123 62//62 70//70
f 125//125 64//64 71//71
f 127//127 66//66 72//72
f 74//74 11//11 46//46
f 77//77 8//8 48//48
f 80//80 20//20 50//50
f 83//83 17//17 52//52
f 86//86 14//14 44//44
f 89//89 68//68 42//42
f 92//92 69//69 30//30
f 95//95 70//70 33//33
f 98//98 71//71 36//36
f 101//101 72//72 39//39
f 104//104 29//29 61//61
f 107//107 32//32 63//63
f 110//110 35//35 65//65
f 113//113 38//38 67//67
f 116//116 41//41 59//59
f 118//118 53//53 12//12
f 120//120 54//54 15//15
f 122//122 55//55 18//18
f 124//124 56//56 21//21
f 126//126 57//57 9//9
f 129//129 75//75 74//74
f 131//131 78//78 77//77
f 133//133 81//81 80//80
f 135//135 84//84 83//83
f 137//137 87//87 86//86
f 138//138 90//90 89//89
f 139//139 93//93 92//92
f 140//140 96//96 95//95
f 141//141 99//99 98//98
f 142//142 102//102 101//101
f 144//144 105//105 104//104
f 146//146 108//108 107//107
f 148//148 111//111 110//110
f 150//150 114//114 113//113
f 152//152 117//117 116//116
f 153//153 119//119 118//118
f 154//154 121//121 120//120
f 155//155 123//123 122//122
f 156//156 125//125 124//124
f 157//157 127//127 126//126
