# Created by Open3D 
# object name: part_027
# number of vertices: 162
# number of triangles: 320
v 6.75295 23.0647 1.235
vn 0.55188 0.826699 0.10953
v 6.7672 23.0521 1.24964
vn 0.574697 0.785012 0.231256
v 6.77103 23.0528 1.22827
vn 0.619308 0.780964 0.0809434
v 6.75649 23.0647 1.20616
vn 0.561146 0.827171 0.0300447
v 6.74228 23.0724 1.22503
vn 0.460571 0.88537 0.0632006
v 6.7398 23.0708 1.24656
vn 0.47894 0.849294 0.222073
v 6.83567 23.0356 0.322674
vn 0.567318 0.821267 -0.0605919
v 6.85217 23.0242 0.333286
vn 0.628236 0.777825 -0.0175364
v 6.85224 23.0222 0.311651
vn 0.611382 0.772117 -0.173345
v 6.81055 23.033 0.780854
vn 0.861147 -0.499591 0.0939908
v 6.77095 23.045 1.20595
vn 0.845393 -0.525788 0.0941096
v 6.80717 23.0276 0.78072
vn 0.82506 -0.557413 0.0925613
v 6.70995 22.9657 1.25696
vn 0.808568 -0.554936 0.195611
v 6.70843 22.9666 1.26277
vn 0.299309 -0.230774 0.925828
v 6.65699 22.8885 1.2553
vn 0.785361 -0.558292 0.267428
v 6.6791 22.9868 1.25349
vn -0.827365 0.561544 0.0116342
v 6.72962 23.0606 1.24653
vn -0.824345 0.563913 -0.049565
v 6.62936 22.913 1.24215
vn -0.82676 0.560357 -0.049667
v 6.76963 23.0581 0.871446
vn -0.779412 0.619953 -0.0904163
v 6.8168 23.0444 0.37216
vn -0.712416 0.69632 -0.0871855
v 6.81562 23.04 0.352028
vn -0.798031 0.595566 -0.091916
v 6.71721 22.8612 0.317493
vn -0.551878 -0.826697 -0.109553
v 6.73604 22.8511 0.306568
vn -0.486844 -0.844961 -0.221414
v 6.73355 22.8496 0.328097
vn -0.490178 -0.869086 -0.0664396
v 6.71404 22.8609 0.346374
vn -0.561147 -0.827171 -0.0300419
v 6.7048 22.8692 0.324866
vn -0.645355 -0.759253 -0.0839756
v 6.70864 22.8698 0.303488
vn -0.581373 -0.779371 -0.233637
v 6.69766 22.8668 0.775917
vn 0.779399 -0.61997 0.0904156
v 6.7373 22.8548 0.350828
vn 0.798016 -0.595785 0.0906201
v 6.70143 22.872 0.776096
vn 0.819799 -0.565159 0.0923323
v 6.6345 22.8902 1.22982
vn -0.567317 -0.821267 0.0605882
v 6.65241 22.8781 1.22308
vn -0.499165 -0.865915 0.032023
v 6.651 22.881 1.24456
vn -0.523535 -0.832058 0.183277
v 6.65675 22.8919 0.866508
vn -0.861174 0.499545 -0.0939918
v 6.62728 22.8993 1.1774
vn -0.908597 0.406762 -0.0948497
v 6.6278 22.9041 1.19746
vn -0.845719 0.525547 -0.092518
v 6.76589 22.9563 0.296174
vn -0.808571 0.554938 -0.195595
v 6.7145 22.883 0.303035
vn -0.819011 0.557631 -0.135164
v 6.81476 23.0307 0.30742
vn -0.816593 0.561192 -0.135049
v 6.79674 22.9352 0.299641
vn 0.827364 -0.561545 -0.0116291
v 6.7963 22.9357 0.293611
vn 0.459421 -0.287039 -0.84056
v 6.84911 23.0128 0.301238
vn 0.833199 -0.546335 -0.0854223
v 6.76134 23.0389 1.2501
vn 0.819011 -0.557631 0.135163
v 6.7622 23.0434 1.2599
vn 0.801137 -0.53506 0.268125
v 6.84856 23.0227 0.375729
vn 0.908009 -0.408067 0.0948789
v 6.77509 23.0485 1.18605
vn 0.907937 -0.408021 0.0957595
v 6.82342 23.0439 0.330054
vn 0.469539 0.882209 -0.0352118
v 6.83396 23.0375 0.351619
vn 0.56214 0.826822 0.0190859
v 6.73854 23.0671 1.2023
vn -0.797837 0.596053 -0.0904241
v 6.74334 23.0702 1.18248
vn -0.710705 0.69819 -0.0861942
v 6.67954 22.9863 1.25952
vn -0.564571 0.361377 0.742069
v 6.73193 23.064 1.2565
vn -0.817424 0.569559 0.0861458
v 6.84804 23.0179 0.355672
vn 0.845514 -0.525844 0.092699
v 6.66107 22.8913 1.24571
vn 0.816593 -0.561192 0.135049
v 6.62673 22.9091 1.25189
vn -0.833199 0.546335 0.0854273
v 6.76575 23.0531 0.872432
vn -0.819797 0.565161 -0.0923322
v 6.82484 23.0409 0.308571
vn 0.515913 0.836292 -0.185605
v 6.74621 22.8614 0.3066
vn 0.824345 -0.563913 0.0495633
v 6.7439 22.8579 0.296637
vn 0.817425 -0.569559 -0.0861293
v 6.65903 22.8776 1.18097
vn 0.711507 -0.697252 0.0871674
v 6.7325 22.8518 0.370653
vn 0.711558 -0.697309 0.0862844
v 6.62366 22.8977 1.21985
vn -0.654245 -0.756145 0.014451
v 6.63657 22.8881 1.20092
vn -0.56214 -0.826822 -0.019089
v 6.70488 22.877 0.347184
vn -0.84531 0.525944 -0.0939843
v 6.70074 22.8735 0.367083
vn -0.907483 0.40904 -0.0957162
v 6.7674 22.9554 0.290364
vn -0.419987 0.310558 -0.852739
v 6.71364 22.8786 0.293235
vn -0.801141 0.535061 -0.268109
v 6.84648 23.009 0.310985
vn 0.82676 -0.560357 0.049667
v 6.66021 22.8819 1.2011
vn 0.797895 -0.59573 0.0920332
v 6.6236 22.8997 1.24148
vn -0.618346 -0.766373 0.174128
v 6.66002 22.8974 0.867807
vn -0.82506 0.557413 -0.0925613
v 6.81885 23.0335 0.297837
vn -0.785364 0.558295 -0.267413
v 6.76639 23.0433 1.2346
vn 0.825156 -0.554699 0.106896
v 6.77035 23.0484 1.22745
vn 0.89118 -0.439614 0.111975
v 6.76629 23.0466 1.24936
vn 0.870071 -0.470224 0.14787
v 6.85141 23.0235 0.348311
vn 0.99024 -0.107157 0.0891218
v 6.84897 23.0264 0.375183
vn 0.624882 0.780117 0.0306726
v 6.81257 23.0377 0.780891
vn 0.990966 -0.0967034 0.0929224
v 6.82072 23.0444 0.34486
vn -0.460527 0.884606 -0.0734008
v 6.77358 23.0616 0.867226
vn -0.452859 0.888878 -0.0693797
v 6.82019 23.0461 0.371947
vn 0.457225 0.889271 0.0119611
v 6.73419 23.0652 1.23098
vn -0.819504 0.567745 -0.0779667
v 6.73509 23.0679 1.24585
vn -0.76361 0.644685 -0.0358025
v 6.73866 23.0701 1.22388
vn -0.737327 0.671787 -0.0710769
v 6.69079 22.9785 1.26269
vn -0.0902496 0.0317218 0.995414
v 6.76041 23.0446 1.26444
vn 0.051664 0.0311717 0.998178
v 6.73298 23.0633 1.26135
vn -0.155481 0.171993 0.972751
v 6.84869 23.0143 0.32683
vn 0.827742 -0.555614 0.0783355
v 6.85126 23.0168 0.312116
vn 0.879768 -0.473645 0.0408457
v 6.85133 23.02 0.334242
vn 0.89426 -0.440707 0.0779505
v 6.65935 22.8856 1.22992
vn 0.816922 -0.566825 0.106529
v 6.66551 22.8895 1.20183
vn 0.821829 -0.562069 0.0931391
v 6.71275 22.9645 1.23456
vn 0.821094 -0.560795 0.106364
v 6.62395 22.9034 1.24873
vn -0.87767 -0.28988 0.38166
v 6.63511 22.8952 1.25242
vn -0.521535 -0.679119 0.516526
v 6.62766 22.9082 1.25675
vn -0.24401 0.0416369 0.968878
v 6.71279 22.9753 0.870483
vn -0.822437 0.561294 -0.0924478
v 6.63277 22.9118 1.19815
vn -0.823064 0.560519 -0.091567
v 6.73315 23.0596 1.20254
vn -0.821975 0.562123 -0.09152
v 6.82263 23.0385 0.301118
vn 0.0159177 0.877926 -0.478531
v 6.82006 23.0381 0.30861
vn -0.753914 0.64127 -0.142782
v 6.82262 23.042 0.316119
vn -0.517721 0.843839 -0.141071
v 6.74165 22.8567 0.322148
vn 0.819504 -0.567745 0.0779658
v 6.73717 22.8519 0.329248
vn 0.737324 -0.67179 0.0710767
v 6.74074 22.854 0.307282
vn 0.763612 -0.644682 0.0358009
v 6.65512 22.8775 1.20827
vn 0.461833 -0.883866 0.0741009
v 6.65564 22.8759 1.18119
vn -0.495149 -0.868659 -0.01609
v 6.69412 22.8632 0.775709
vn 0.452859 -0.888878 0.0693797
v 6.62442 22.8985 1.20482
vn -0.99007 0.109375 -0.0883122
v 6.65513 22.8872 0.862044
vn -0.990966 0.0967034 -0.0929224
v 6.62686 22.8955 1.17795
vn -0.647096 -0.761684 -0.0332264
v 6.70944 22.8787 0.318528
vn -0.825156 0.554699 -0.106895
v 6.70954 22.8753 0.303776
vn -0.870071 0.470224 -0.14787
v 6.70548 22.8735 0.325686
vn -0.89118 0.439614 -0.111974
v 6.779 22.9475 0.289764
vn 0.0902381 -0.0317139 -0.995415
v 6.74285 22.8587 0.291777
vn 0.141216 -0.162808 -0.9765
v 6.71542 22.8774 0.288694
vn -0.0657208 -0.0210242 -0.997617
v 6.84306 23.0102 0.354979
vn 0.823047 -0.560513 0.0917576
v 6.79546 22.9354 0.322215
vn 0.823622 -0.56168 0.0785038
v 6.65577 22.8839 1.24452
vn 0.753914 -0.64127 0.142782
v 6.6562 22.8804 1.22245
vn 0.734304 -0.670633 0.105114
v 6.62457 22.9052 1.24102
vn -0.879768 0.473645 -0.0408457
v 6.62301 22.9006 1.23362
vn -0.983175 0.18056 -0.0276633
v 6.81033 23.0325 0.3513
vn -0.821841 0.562072 -0.0930149
v 6.70995 22.8847 0.346909
vn -0.822924 0.560477 -0.0930623
v 6.83478 23.0309 0.300045
vn 0.521535 0.679119 -0.516526
v 6.82075 23.0325 0.293301
vn 0.0228088 0.10932 -0.993745
v 6.76553 23.0489 1.25693
vn 0.720077 0.434236 0.541229
v 6.76918 23.0508 1.24209
vn 0.971091 -0.176351 0.160878
v 6.77298 23.0511 1.21343
vn 0.989506 -0.10693 0.0971829
v 6.77543 23.0523 1.18642
vn 0.624675 0.780192 0.0328934
v 6.79509 23.0517 0.778859
vn 0.561652 0.827009 0.0245671
v 6.74664 23.0719 1.18319
vn 0.469644 0.882717 0.0156197
v 6.74228 23.072 1.20998
vn -0.464319 0.883257 -0.0653033
v 6.73898 23.0714 1.23869
vn -0.529838 0.848062 -0.00786561
v 6.73627 23.0688 1.25364
vn -0.0652389 0.906476 0.417186
v 6.74799 23.0614 1.25736
vn 0.424128 0.713356 0.557888
v 6.85282 23.0214 0.319514
vn 0.983175 -0.18056 0.0276633
v 6.76589 23.0373 1.20622
vn 0.822916 -0.560469 0.093186
v 6.65509 22.8895 1.25983
vn -0.0374426 -0.100023 0.99428
v 6.68038 22.9866 1.23092
vn -0.823622 0.56168 -0.0785043
v 6.81964 23.0416 0.330678
vn -0.734304 0.670633 -0.105114
v 6.73956 22.8531 0.299493
vn -0.0646019 -0.881617 -0.467524
v 6.73685 22.8506 0.314442
vn 0.52984 -0.848061 0.00786616
v 6.73355 22.85 0.343156
vn 0.462292 -0.884266 0.0660197
v 6.72919 22.85 0.369943
vn -0.494915 -0.868748 -0.0183063
v 6.6747 22.8744 0.773594
vn -0.561652 -0.827009 -0.0245662
v 6.70041 22.8697 0.366708
vn -0.657696 -0.752384 -0.0368053
v 6.70286 22.8709 0.339706
vn -0.989731 0.105411 -0.096548
v 6.70665 22.8712 0.311047
vn -0.971091 0.176352 -0.160879
v 6.71031 22.8731 0.296205
vn -0.796457 -0.318407 -0.514074
v 6.7219 22.8646 0.295107
vn -0.424144 -0.713352 -0.557881
v 6.74268 22.8623 0.350588
vn 0.82196 -0.562113 0.0917096
v 6.65321 22.88 1.23701
vn 0.517721 -0.843839 0.141071
v 6.62451 22.902 1.21889
vn -0.89426 0.440707 -0.0779505
v 6.76309 22.9575 0.318577
vn -0.821094 0.560795 -0.106363
v 6.84818 23.0137 0.296384
vn 0.230314 -0.0316161 -0.972603
v 6.85188 23.0185 0.304406
vn 0.808071 0.403322 -0.429364
v 6.75437 22.9498 0.778415
vn 0.822439 -0.561291 0.0924479
v 6.6532 22.8835 1.25201
vn -0.152544 -0.85067 0.503081
v 6.62714 22.9076 1.2263
vn -0.827742 0.555614 -0.0783355
v 6.81648 23.0363 0.32321
vn -0.816922 0.566825 -0.106529
f 1//1 2//2 3//3
f 1//1 3//3 4//4
f 1//1 4//4 5//5
f 1//1 5//5 6//6
f 1//1 6//6 2//2
f 7//7 8//8 9//9
f 10//10 11//11 12//12
f 13//13 14//14 15//15
f 16//16 17//17 18//18
f 19//19 20//20 21//21
f 22//22 23//23 24//24
f 22//22 24//24 25//25
f 22//22 25//25 26//26
f 22//22 26//26 27//27
f 22//22 27//27 23//23
f 28//28 29//29 30//30
f 31//31 32//32 33//33
f 34//34 35//35 36//36
f 37//37 38//38 39//39
f 40//40 41//41 42//42
f 13//13 43//43 44//44
f 10//10 45//45 46//46
f 7//7 47//47 48//48
f 19//19 49//49 50//50
f 16//16 51//51 52//52
f 10//10 53//53 45//45
f 13//13 54//54 43//43
f 16//16 55//55 51//51
f 19//19 56//56 49//49
f 7//7 57//57 47//47
f 40//40 58//58 59//59
f 28//28 60//60 61//61
f 31//31 62//62 63//63
f 34//34 64//64 65//65
f 37//37 66//66 67//67
f 40//40 68//68 58//58
f 28//28 69//69 60//60
f 31//31 70//70 62//62
f 34//34 71//71 64//64
f 37//37 72//72 66//66
f 10//10 46//46 11//11
f 7//7 48//48 8//8
f 19//19 50//50 20//20
f 16//16 52//52 17//17
f 13//13 44//44 14//14
f 40//40 42//42 68//68
f 28//28 30//30 69//69
f 31//31 33//33 70//70
f 34//34 36//36 71//71
f 37//37 39//39 72//72
f 28//28 61//61 29//29
f 31//31 63//63 32//32
f 34//34 65//65 35//35
f 37//37 67//67 38//38
f 40//40 59//59 41//41
f 10//10 12//12 53//53
f 13//13 15//15 54//54
f 16//16 18//18 55//55
f 19//19 21//21 56//56
f 7//7 9//9 57//57
f 73//73 74//74 75//75
f 76//76 77//77 78//78
f 79//79 80//80 81//81
f 82//82 83//83 84//84
f 85//85 86//86 87//87
f 88//88 89//89 90//90
f 91//91 92//92 93//93
f 94//94 95//95 96//96
f 97//97 98//98 99//99
f 100//100 101//101 102//102
f 103//103 104//104 105//105
f 106//106 107//107 108//108
f 109//109 110//110 111//111
f 112//112 113//113 114//114
f 115//115 116//116 117//117
f 88//88 118//118 119//119
f 91//91 120//120 121//121
f 94//94 122//122 123//123
f 97//97 124//124 125//125
f 100//100 126//126 127//127
f 128//128 129//129 2//2
f 130//130 131//131 3//3
f 132//132 133//133 4//4
f 134//134 135//135 5//5
f 136//136 137//137 6//6
f 76//76 138//138 8//8
f 73//73 139//139 11//11
f 85//85 140//140 14//14
f 82//82 141//141 17//17
f 79//79 142//142 20//20
f 143//143 144//144 23//23
f 145//145 146//146 24//24
f 147//147 148//148 25//25
f 149//149 150//150 26//26
f 151//151 152//152 27//27
f 103//103 153//153 29//29
f 106//106 154//154 32//32
f 109//109 155//155 35//35
f 112//112 156//156 38//38
f 115//115 157//157 41//41
f 73//73 75//75 43//43
f 76//76 78//78 45//45
f 79//79 81//81 47//47
f 82//82 84//84 49//49
f 85//85 87//87 51//51
f 88//88 90//90 53//53
f 91//91 93//93 54//54
f 94//94 96//96 55//55
f 97//97 99//99 56//56
f 100//100 102//102 57//57
f 103//103 105//105 58//58
f 106//106 108//108 60//60
f 109//109 111//111 62//62
f 112//112 114//114 64//64
f 115//115 117//117 66//66
f 88//88 119//119 68//68
f 91//91 121//121 69//69
f 94//94 123//123 70//70
f 97//97 125//125 71//71
f 100//100 127//127 72//72
f 130//130 74//74 46//46
f 132//132 77//77 48//48
f 134//134 80//80 50//50
f 136//136 83//83 52//52
f 128//128 86//86 44//44
f 158//158 89//89 42//42
f 159//159 92//92 30//30
f 160//160 95//95 33//33
f 161//161 98//98 36//36
f 162//162 101//101 39//39
f 145//145 104//104 61//61
f 147//147 107//107 63//63
f 149//149 110//110 65//65
f 151//151 113//113 67//67
f 143//143 116//116 59//59
f 159//159 118//118 12//12
f 160//160 120//120 15//15
f 161//161 122//122 18//18
f 162//162 124//124 21//21
f 158//158 126//126 9//9
f 130//130 129//129 74//74
f 132//132 131//131 77//77
f 134//134 133//133 80//80
f 136//136 135//135 83//83
f 128//128 137//137 86//86
f 158//158 138//138 89//89
f 159//159 139//139 92//92
f 160//160 140//140 95//95
f 161//161 141//141 98//98
f 162//162 142//142 101//101
f 145//145 144//144 104//104
f 147//147 146//146 107//107
f 149//149 148//148 110//110
f 151//151 150//150 113//113
f 143//143 152//152 116//116
f 159//159 153//153 118//118
f 160//160 154//154 120//120
f 161//161 155//155 122//122
f 162//162 156//156 124//124
f 158//158 157//157 126//126
f 130//130 3//3 129//129
f 132//132 4//4 131//131
f 134//134 5//5 133//133
f 136//136 6//6 135//135
f 128//128 2//2 137//137
f 158//158 9//9 138//138
f 159//159 12//12 139//139
f 160//160 15//15 140//140
f 161//161 18//18 141//141
f 162//162 21//21 142//142
f 145//145 24//24 144//144
f 147//147 25//25 146//146
f 149//149 26//26 148//148
f 151//151 27//27 150//150
f 143//143 23//23 152//152
f 159//159 30//30 153//153
f 160//160 33//33 154//154
f 161//161 36//36 155//155
f 162//162 39//39 156//156
f 158//158 42//42 157//157
f 128//128 44//44 75//75
f 130//130 46//46 78//78
f 132//132 48//48 81//81
f 134//134 50//50 84//84
f 136//136 52//52 87//87
f 76//76 45//45 90//90
f 73//73 43//43 93//93
f 85//85 51//51 96//96
f 82//82 49//49 99//99
f 79//79 47//47 102//102
f 143//143 59//59 105//105
f 145//145 61//61 108//108
f 147//147 63//63 111//111
f 149//149 65//65 114//114
f 151//151 67//67 117//117
f 103//103 58//58 119//119
f 106//106 60//60 121//121
f 109//109 62//62 123//123
f 112//112 64//64 125//125
f 115//115 66//66 127//127
f 73//73 11//11 74//74
f 76//76 8//8 77//77
f 79//79 20//20 80//80
f 82//82 17//17 83//83
f 85//85 14//14 86//86
f 88//88 68//68 89//89
f 91//91 69//69 92//92
f 94//94 70//70 95//95
f 97//97 71//71 98//98
f 100//100 72//72 101//101
f 103//103 29//29 104//104
f 106//106 32//32 107//107
f 109//109 35//35 110//110
f 112//112 38//38 113//113
f 115//115 41//41 116//116
f 88//88 53//53 118//118
f 91//91 54//54 120//120
f 94//94 55//55 122//122
f 97//97 56//56 124//124
f 100//100 57//57 126//126
f 128//128 75//75 129//129
f 130//130 78//78 131//131
f 132//132 81//81 133//133
f 134//134 84//84 135//135
f 136//136 87//87 137//137
f 76//76 90//90 138//138
f 73//73 93//93 139//139
f 85//85 96//96 140//140
f 82//82 99//99 141//141
f 79//79 102//102 142//142
f 143//143 105//105 144//144
f 145//145 108//108 146//146
f 147//147 111//111 148//148
f 149//149 114//114 150//150
f 151//151 117//117 152//152
f 103//103 119//119 153//153
f 106//106 121//121 154//154
f 109//109 123//123 155//155
f 112//112 125//125 156//156
f 115//115 127//127 157//157
f 129//129 3//3 2//2
f 131//131 4//4 3//3
f 133//133 5//5 4//4
f 135//135 6//6 5//5
f 137//137 2//2 6//6
f 138//138 9//9 8//8
f 139//139 12//12 11//11
f 140//140 15//15 14//14
f 141//141 18//18 17//17
f 142//142 21//21 20//20
f 144//144 24//24 23//23
f 146//146 25//25 24//24
f 148//148 26//26 25//25
f 150//150 27//27 26//26
f 152//152 23//23 27//27
f 153//153 30//30 29//29
f 154//154 33//33 32//32
f 155//155 36//36 35//35
f 156//156 39//39 38//38
f 157//157 42//42 41//41
f 75//75 44//44 43//43
f 78//78 46//46 45//45
f 81//81 48//48 47//47
f 84//84 50//50 49//49
f 87//87 52//52 51//51
f 90//90 45//45 53//53
f 93//93 43//43 54//54
f 96//96 51//51 55//55
f 99//99 49//49 56//56
f 102//102 47//47 57//57
f 105//105 59//59 58//58
f 108//108 61//61 60//60
f 111//111 63//63 62//62
f 114//114 65//65 64//64
f 117//117 67//67 66//66
f 119//119 58//58 68//68
f 121//121 60//60 69//69
f 123//123 62//62 70//70
f 125//125 64//64 71//71
f 127//127 66//66 72//72
f 74//74 11//11 46//46
f 77//77 8//8 48//48
f 80//80 20//20 50//50
f 83//83 17//17 52//52
f 86//86 14//14 44//44
f 89//89 68//68 42//42
f 92//92 69//69 30//30
f 95//95 70//70 33//33
f 98//98 71//71 36//36
f 101//101 72//72 39//39
f 104//104 29//29 61//61
f 107//107 32//32 63//63
f 110//110 35//35 65//65
f 113//113 38//38 67//67
f 116//116 41//41 59//59
f 118//118 53//53 12//12
f 120//120 54//54 15//15
f 122//122 55//55 18//18
f 124//124 56//56 21//21
f 126//126 57//57 9//9
f 129//129 75//75 74//74
f 131//131 78//78 77//77
f 133//133 81//81 80//80
f 135//135 84//84 83//83
f 137//137 87//87 86//86
f 138//138 90//90 89//89
f 139//139 93//93 92//92
f 140//140 96//96 95//95
f 141//141 99//99 98//98
f 142//142 102//102 101//101
f 144//144 105//105 104//104
f 146//146 108//108 107//107
f 148//148 111//111 110//110
f 150//150 114//114 113//113
f 152//152 117//117 116//116
f 153//153 119//119 118//118
f 154//154 121//121 120//120
f 155//155 123//123 122//122
f 156//156 125//125 124//124
f 157//157 127//127 126//126
