# Created by Open3D 
# object name: part_011
# number of vertices: 162
# number of triangles: 320
v 5.44438 20.2508 0.0363601
vn 0.219984 -0.165735 -0.961321
v 5.46189 20.2197 0.0523773
vn 0.302318 -0.559702 -0.771581
v 5.41659 20.2418 0.0359963
vn -0.121934 -0.541511 -0.831804
v 5.38406 20.2818 0.025984
vn 0.00435245 -0.0543097 -0.998515
v 5.43284 20.2727 0.0343857
vn 0.392774 0.470865 -0.789946
v 5.47738 20.2492 0.050843
vn 0.61479 0.048169 -0.787218
v 3.54627 21.2474 0.0110316
vn -0.241161 0.076388 -0.967474
v 3.55457 21.2194 0.0111499
vn -0.359087 -0.417006 -0.834963
v 3.51039 21.2444 0.0263371
vn -0.616117 -0.077496 -0.783833
v 4.48497 20.7304 0.061175
vn -0.464939 -0.884604 0.0361473
v 5.36962 20.2666 0.0870222
vn -0.464641 -0.884581 0.0403116
v 4.48537 20.7323 0.107961
vn -0.46486 -0.884218 0.0454205
v 5.48936 20.2425 0.812895
vn -0.424819 -0.904082 0.0465384
v 5.50223 20.2371 0.813004
vn 0.203262 -0.978176 0.0430775
v 5.49848 20.274 1.50114
vn -0.395346 -0.917237 0.0487624
v 5.5068 20.2757 0.811167
vn 0.503945 0.862538 -0.045483
v 5.48091 20.2557 0.154988
vn 0.481033 0.875489 -0.0461239
v 5.49531 20.3165 1.46679
vn 0.481035 0.875518 -0.0455402
v 4.69931 20.6622 0.0619784
vn 0.464722 0.883687 -0.0559465
v 3.65993 21.2065 0.0273583
vn 0.4643 0.882908 -0.0699927
v 3.61893 21.2303 0.0616021
vn 0.464562 0.884026 -0.0517705
v 3.56328 21.3192 1.56081
vn -0.219984 0.165736 0.961321
v 3.52707 21.3148 1.54664
vn -0.598724 -0.00409239 0.800945
v 3.57161 21.2913 1.5631
vn -0.340289 -0.337677 0.877598
v 3.62339 21.2879 1.5712
vn -0.00435294 0.0543098 0.998515
v 3.58786 21.3222 1.56149
vn 0.197865 0.652582 0.731427
v 3.54256 21.3442 1.54511
vn -0.275794 0.596631 0.753637
v 4.50118 20.7988 1.53812
vn -0.464722 -0.883687 0.0559498
v 3.61651 21.2625 1.51228
vn -0.465051 -0.883767 0.0517938
v 4.50056 20.7964 1.49136
vn -0.464846 -0.884159 0.0466925
v 5.46139 20.3226 1.58613
vn 0.241158 -0.0763881 0.967475
v 5.43363 20.3137 1.58794
vn -0.103131 -0.462174 0.880772
v 5.47858 20.2902 1.57268
vn 0.319702 -0.486304 0.813203
v 4.71552 20.7307 1.53893
vn 0.464939 0.884604 -0.0361481
v 5.36247 20.3916 1.56835
vn 0.465168 0.884955 -0.02175
v 5.40384 20.3686 1.53407
vn 0.465249 0.884264 -0.0402569
v 3.51509 21.3214 0.78459
vn 0.424821 0.90408 -0.0465384
v 3.54147 21.3423 1.44072
vn 0.448509 0.892595 -0.0459739
v 3.52707 21.2816 0.128915
vn 0.448506 0.892566 -0.0465578
v 3.49765 21.2883 0.786317
vn -0.503949 -0.862535 0.0454829
v 3.48589 21.2958 0.786098
vn -0.921368 -0.387677 0.0280693
v 3.48887 21.2574 0.0980374
vn -0.531615 -0.84589 0.0430783
v 5.46298 20.2216 0.156763
vn -0.44851 -0.892595 0.0459739
v 5.48337 20.2102 0.124651
vn -0.395423 -0.917401 0.0448978
v 3.64198 21.1723 0.0291369
vn -0.465153 -0.884959 0.0219308
v 5.32786 20.2872 0.0516324
vn -0.464813 -0.885137 0.0219457
v 3.57082 21.2503 0.00953974
vn 0.181144 0.581996 -0.792759
v 3.60617 21.2152 0.00225984
vn -0.0262831 -0.0382237 -0.998923
v 5.38794 20.3015 0.0852068
vn 0.465122 0.883728 -0.0518356
v 5.34581 20.3213 0.0498543
vn 0.464635 0.882703 -0.0703536
v 5.51856 20.2682 0.811386
vn 0.84314 0.536611 -0.0341091
v 5.50048 20.2428 0.122957
vn 0.531547 0.845727 -0.0469435
v 3.60061 21.1954 0.0634174
vn -0.465178 -0.884299 0.0403036
v 5.47738 20.2824 1.46857
vn -0.448506 -0.892566 0.0465578
v 5.51558 20.3065 1.49945
vn 0.531613 0.845891 -0.0430783
v 4.70237 20.6634 0.108775
vn 0.464846 0.884159 -0.0466926
v 3.52587 21.2738 0.0248029
vn -0.292842 0.524712 -0.799326
v 3.52354 21.3082 1.4425
vn -0.481034 -0.875488 0.0461238
v 3.50398 21.3212 1.47453
vn -0.531547 -0.845727 0.0469433
v 5.34453 20.3575 1.57013
vn -0.464283 -0.882904 0.0701586
v 3.65864 21.2427 1.54763
vn -0.464623 -0.882724 0.0701637
v 5.44988 20.3446 1.58633
vn 0.40951 0.541473 0.734241
v 5.40128 20.3544 1.59493
vn 0.0262838 0.038223 0.998924
v 3.63483 21.2974 1.51046
vn 0.464687 0.884556 -0.0403369
v 3.67659 21.2768 1.54585
vn 0.464826 0.885126 -0.0221201
v 3.50222 21.3269 0.78448
vn -0.0361163 0.998296 -0.0458439
v 3.52108 21.3537 1.47283
vn 0.395423 0.917401 -0.0448978
v 3.50915 21.2475 0.130692
vn -0.481036 -0.875517 0.0455401
v 5.38552 20.3337 1.53588
vn -0.464514 -0.884049 0.0518013
v 5.49407 20.3196 1.57115
vn 0.63183 0.120093 0.765747
v 4.71755 20.7274 1.49217
vn 0.46486 0.884218 -0.04542
v 3.50597 21.29 0.0963427
vn 0.395346 0.917237 -0.0487624
v 5.42976 20.2364 0.111988
vn -0.45942 -0.887072 0.0451327
v 5.41424 20.2425 0.0652644
vn -0.458437 -0.888317 0.0269874
v 5.46044 20.2198 0.0896324
vn -0.44436 -0.89527 0.032183
v 3.58515 21.2023 0.0165873
vn -0.466164 -0.884312 -0.026126
v 3.64159 21.1733 0.00470844
vn -0.245985 -0.483315 -0.840177
v 4.485 20.7295 0.0247218
vn -0.464392 -0.885189 -0.027933
v 3.6025 21.2353 0.0148681
vn 0.461364 0.879288 -0.118303
v 4.68927 20.6646 0.0254873
vn 0.462769 0.878345 -0.119807
v 3.65786 21.2042 0.00309628
vn 0.301273 0.559996 -0.771777
v 5.44796 20.2711 0.110184
vn 0.470273 0.881269 -0.046978
v 5.47808 20.2534 0.0878853
vn 0.485007 0.872456 -0.0599064
v 5.43215 20.2766 0.0634897
vn 0.471084 0.879681 -0.0651264
v 5.51602 20.2538 0.812078
vn 0.885316 -0.46484 0.0118139
v 5.49394 20.2066 0.123919
vn 0.728572 -0.684969 -0.000842416
v 5.50944 20.2361 0.122383
vn 0.984075 -0.175713 -0.026856
v 3.54112 21.228 0.0867867
vn -0.470291 -0.881364 0.044987
v 3.5105 21.2436 0.0636125
vn -0.485307 -0.873772 0.0316262
v 3.55591 21.2182 0.0404673
vn -0.471503 -0.881457 0.0268056
v 5.44513 20.3013 1.5125
vn -0.459406 -0.886975 0.0471231
v 5.3857 20.3299 1.46812
vn -0.46458 -0.884325 0.0461921
v 5.44215 20.2663 0.812313
vn -0.459546 -0.886955 0.0461266
v 5.50942 20.3115 1.54593
vn 0.732165 0.667666 0.134747
v 5.50786 20.2965 1.55035
vn 0.797972 -0.395875 0.454449
v 5.52457 20.2999 1.50044
vn 0.984604 -0.173483 0.0214225
v 4.71077 20.6951 0.80048
vn 0.464853 0.884189 -0.0460567
v 5.4042 20.3651 1.46629
vn 0.465199 0.884014 -0.0459203
v 5.38978 20.3042 0.152992
vn 0.465196 0.884002 -0.0461841
v 3.51156 21.2839 0.0499153
vn 0.127323 0.967176 -0.219908
v 3.52814 21.2772 0.0618654
vn 0.444037 0.893967 -0.0604514
v 3.54272 21.267 0.0264537
vn 0.435424 0.893933 -0.106252
v 3.55649 21.2929 1.4873
vn -0.470273 -0.881269 0.0469781
v 3.5723 21.2874 1.53399
vn -0.471084 -0.879681 0.0651286
v 3.52638 21.3106 1.5096
vn -0.485007 -0.872456 0.0599073
v 5.40196 20.3287 1.58262
vn -0.461118 -0.879452 0.118042
v 5.34659 20.3597 1.59439
vn -0.22165 -0.406166 0.88651
v 4.50201 20.8013 1.57449
vn -0.462769 -0.878345 0.119811
v 5.4193 20.3617 1.5809
vn 0.466539 0.884126 0.0257514
v 4.70628 20.7364 1.57526
vn 0.464391 0.885189 0.0279352
v 5.36286 20.3907 1.59278
vn 0.300926 0.586077 0.752302
v 3.5747 21.3275 1.4855
vn 0.459419 0.887072 -0.0451327
v 3.54401 21.3441 1.50785
vn 0.444359 0.895271 -0.0321824
v 3.59022 21.3215 1.53222
vn 0.458437 0.888317 -0.0269853
v 3.49184 21.3166 0.785067
vn -0.885318 0.464836 -0.0118136
v 3.49501 21.3279 1.4751
vn -0.976733 0.212944 0.0254302
v 3.51052 21.3574 1.47357
vn -0.702056 0.712121 -0.00108499
v 3.60026 21.1989 0.131194
vn -0.465127 -0.884052 0.0459216
v 3.54401 21.2629 0.786984
vn -0.47015 -0.881388 0.0459848
v 5.47632 20.2868 1.53562
vn -0.444037 -0.893967 0.0604529
v 5.43063 20.3117 1.55879
vn -0.458016 -0.886544 0.0652841
v 5.49395 20.3203 1.53387
vn 0.485305 0.873772 -0.0316266
v 5.4788 20.3295 1.56934
vn 0.492135 0.870401 0.0143052
v 3.61876 21.2341 0.12936
vn 0.464628 0.884301 -0.0461914
v 3.63317 21.2949 1.44266
vn 0.464631 0.884313 -0.0459282
v 3.49995 21.2738 0.0468052
vn -0.797973 0.395873 -0.454449
v 3.49539 21.2935 0.0955083
vn -0.702576 0.709894 -0.049365
v 5.47676 20.212 0.0779973
vn -0.00409932 -0.983052 -0.183279
v 5.44508 20.2267 0.0537577
vn -0.43675 -0.89948 -0.0136031
v 5.38503 20.2573 0.0406045
vn -0.462701 -0.88613 -0.0261084
v 5.32939 20.2871 0.02723
vn -0.240601 -0.48614 -0.840106
v 4.49529 20.7488 0.0110522
vn -0.0109669 -0.0462736 -0.998869
v 5.34566 20.3181 0.0256179
vn 0.283773 0.51371 -0.809676
v 5.40238 20.2903 0.0388854
vn 0.464965 0.877485 -0.117587
v 5.46215 20.2592 0.0520663
vn 0.490821 0.864852 -0.10548
v 5.49329 20.2434 0.0763591
vn 0.728347 0.651628 -0.211875
v 5.49165 20.2281 0.073382
vn 0.78824 -0.436973 -0.433282
v 3.52565 21.2345 0.0281451
vn -0.492136 -0.870401 -0.0143072
v 5.37128 20.269 0.154826
vn -0.464583 -0.884337 0.0459286
v 5.50906 20.2704 1.50198
vn 0.729103 -0.682705 0.0481918
v 5.46044 20.3011 0.8105
vn 0.47015 0.881388 -0.0459848
v 3.57382 21.2523 0.0386926
vn 0.458016 0.886544 -0.0652846
v 3.51116 21.3205 1.52113
vn -0.797925 -0.542485 0.262729
v 3.54231 21.3048 1.54542
vn -0.490819 -0.864853 0.105478
v 3.60207 21.2737 1.5586
vn -0.464583 -0.877636 0.117975
v 3.65879 21.2459 1.57187
vn -0.227038 -0.403347 0.886434
v 4.51258 20.8217 1.58609
vn 0.0109669 0.0462732 0.998869
v 3.67506 21.2768 1.57025
vn 0.317534 0.628625 0.709932
v 3.61942 21.3067 1.55688
vn 0.462952 0.885991 0.0263804
v 3.55938 21.3373 1.54373
vn 0.436751 0.89948 0.0136014
v 3.52769 21.352 1.51949
vn 0.131153 0.983229 0.12673
v 3.51616 21.3423 1.52377
vn -0.78824 0.436973 0.433282
v 3.61467 21.2597 1.44449
vn -0.465124 -0.88404 0.0461846
v 5.46173 20.297 1.57103
vn -0.435426 -0.893933 0.106247
v 5.44854 20.3458 1.55702
vn 0.471504 0.881456 -0.0268058
v 3.56231 21.2977 0.785172
vn 0.459545 0.886956 -0.0461267
v 3.47989 21.2641 0.0970438
vn -0.977272 0.210671 -0.0236048
v 3.49503 21.2525 0.0515528
vn -0.802934 -0.563641 -0.193922
v 4.49293 20.7643 0.799663
vn -0.464853 -0.884189 0.0460566
v 5.49289 20.28 1.54757
vn 0.000897678 -0.961904 0.273385
v 5.46333 20.3359 1.5107
vn 0.470291 0.881364 -0.0449871
v 3.55932 21.2627 0.0849832
vn 0.459405 0.886976 -0.0471229
f 1//1 2//2 3//3
f 1//1 3//3 4//4
f 1//1 4//4 5//5
f 1//1 5//5 6//6
f 1//1 6//6 2//2
f 7//7 8//8 9//9
f 10//10 11//11 12//12
f 13//13 14//14 15//15
f 16//16 17//17 18//18
f 19//19 20//20 21//21
f 22//22 23//23 24//24
f 22//22 24//24 25//25
f 22//22 25//25 26//26
f 22//22 26//26 27//27
f 22//22 27//27 23//23
f 28//28 29//29 30//30
f 31//31 32//32 33//33
f 34//34 35//35 36//36
f 37//37 38//38 39//39
f 40//40 41//41 42//42
f 13//13 43//43 44//44
f 10//10 45//45 46//46
f 7//7 47//47 48//48
f 19//19 49//49 50//50
f 16//16 51//51 52//52
f 10//10 53//53 45//45
f 13//13 54//54 43//43
f 16//16 55//55 51//51
f 19//19 56//56 49//49
f 7//7 57//57 47//47
f 40//40 58//58 59//59
f 28//28 60//60 61//61
f 31//31 62//62 63//63
f 34//34 64//64 65//65
f 37//37 66//66 67//67
f 40//40 68//68 58//58
f 28//28 69//69 60//60
f 31//31 70//70 62//62
f 34//34 71//71 64//64
f 37//37 72//72 66//66
f 10//10 46//46 11//11
f 7//7 48//48 8//8
f 19//19 50//50 20//20
f 16//16 52//52 17//17
f 13//13 44//44 14//14
f 40//40 42//42 68//68
f 28//28 30//30 69//69
f 31//31 33//33 70//70
f 34//34 36//36 71//71
f 37//37 39//39 72//72
f 28//28 61//61 29//29
f 31//31 63//63 32//32
f 34//34 65//65 35//35
f 37//37 67//67 38//38
f 40//40 59//59 41//41
f 10//10 12//12 53//53
f 13//13 15//15 54//54
f 16//16 18//18 55//55
f 19//19 21//21 56//56
f 7//7 9//9 57//57
f 73//73 74//74 75//75
f 76//76 77//77 78//78
f 79//79 80//80 81//81
f 82//82 83//83 84//84
f 85//85 86//86 87//87
f 88//88 89//89 90//90
f 91//91 92//92 93//93
f 94//94 95//95 96//96
f 97//97 98//98 99//99
f 100//100 101//101 102//102
f 103//103 104//104 105//105
f 106//106 107//107 108//108
f 109//109 110//110 111//111
f 112//112 113//113 114//114
f 115//115 116//116 117//117
f 88//88 118//118 119//119
f 91//91 120//120 121//121
f 94//94 122//122 123//123
f 97//97 124//124 125//125
f 100//100 126//126 127//127
f 128//128 129//129 2//2
f 130//130 131//131 3//3
f 132//132 133//133 4//4
f 134//134 135//135 5//5
f 136//136 137//137 6//6
f 76//76 138//138 8//8
f 73//73 139//139 11//11
f 85//85 140//140 14//14
f 82//82 141//141 17//17
f 79//79 142//142 20//20
f 143//143 144//144 23//23
f 145//145 146//146 24//24
f 147//147 148//148 25//25
f 149//149 150//150 26//26
f 151//151 152//152 27//27
f 103//103 153//153 29//29
f 106//106 154//154 32//32
f 109//109 155//155 35//35
f 112//112 156//156 38//38
f 115//115 157//157 41//41
f 73//73 75//75 43//43
f 76//76 78//78 45//45
f 79//79 81//81 47//47
f 82//82 84//84 49//49
f 85//85 87//87 51//51
f 88//88 90//90 53//53
f 91//91 93//93 54//54
f 94//94 96//96 55//55
f 97//97 99//99 56//56
f 100//100 102//102 57//57
f 103//103 105//105 58//58
f 106//106 108//108 60//60
f 109//109 111//111 62//62
f 112//112 114//114 64//64
f 115//115 117//117 66//66
f 88//88 119//119 68//68
f 91//91 121//121 69//69
f 94//94 123//123 70//70
f 97//97 125//125 71//71
f 100//100 127//127 72//72
f 130//130 74//74 46//46
f 132//132 77//77 48//48
f 134//134 80//80 50//50
f 136//136 83//83 52//52
f 128//128 86//86 44//44
f 158//158 89//89 42//42
f 159//159 92//92 30//30
f 160//160 95//95 33//33
f 161//161 98//98 36//36
f 162//162 101//101 39//39
f 145//145 104//104 61//61
f 147//147 107//107 63//63
f 149//149 110//110 65//65
f 151//151 113//113 67//67
f 143//143 116//116 59//59
f 159//159 118//118 12//12
f 160//160 120//120 15//15
f 161//161 122//122 18//18
f 162//162 124//124 21//21
f 158//158 126//126 9//9
f 130//130 129//129 74//74
f 132//132 131//131 77//77
f 134//134 133//133 80//80
f 136//136 135//135 83//83
f 128//128 137//137 86//86
f 158//158 138//138 89//89
f 159//159 139//139 92//92
f 160//160 140//140 95//95
f 161//161 141//141 98//98
f 162//162 142//142 101//101
f 145//145 144//144 104//104
f 147//147 146//146 107//107
f 149//149 148//148 110//110
f 151//151 150//150 113//113
f 143//143 152//152 116//116
f 159//159 153//153 118//118
f 160//160 154//154 120//120
f 161//161 155//155 122//122
f 162//162 156//156 124//124
f 158//158 157//157 126//126
f 130//130 3//3 129//129
f 132//132 4//4 131//131
f 134//134 5//5 133//133
f 136//136 6//6 135//135
f 128//128 2//2 137//137
f 158//158 9//9 138//138
f 159//159 12//12 139//139
f 160//160 15//15 140//140
f 161//161 18//18 141//141
f 162//162 21//21 142//142
f 145//145 24//24 144//144
f 147//147 25//25 146//146
f 149//149 26//26 148//148
f 151//151 27//27 150//150
f 143//143 23//23 152//152
f 159//159 30//30 153//153
f 160//160 33//33 154//154
f 161//161 36//36 155//155
f 162//162 39//39 156//156
f 158//158 42//42 157//157
f 128//128 44//44 75//75
f 130//130 46//46 78//78
f 132//132 48//48 81//81
f 134//134 50//50 84//84
f 136//136 52//52 87//87
f 76//76 45//45 90//90
f 73//73 43//43 93//93
f 85//85 51//51 96//96
f 82//82 49//49 99//99
f 79//79 47//47 102//102
f 143//143 59//59 105//105
f 145//145 61//61 108//108
f 147//147 63//63 111//111
f 149//149 65//65 114//114
f 151//151 67//67 117//117
f 103//103 58//58 119//119
f 106//106 60//60 121//121
f 109//109 62//62 123//123
f 112//112 64//64 125//125
f 115//115 66//66 127//127
f 73//73 11//11 74//74
f 76//76 8//8 77//77
f 79//79 20//20 80//80
f 82//82 17//17 83//83
f 85//85 14//14 86//86
f 88//88 68//68 89//89
f 91//91 69//69 92//92
f 94//94 70//70 95//95
f 97//97 71//71 98//98
f 100//100 72//72 101//101
f 103//103 29//29 104//104
f 106//106 32//32 107//107
f 109//109 35//35 110//110
f 112//112 38//38 113//113
f 115//115 41//41 116//116
f 88//88 53//53 118//118
f 91//91 54//54 120//120
f 94//94 55//55 122//122
f 97//97 56//56 124//124
f 100//100 57//57 126//126
f 128//128 75//75 129//129
f 130//130 78//78 131//131
f 132//132 81//81 133//133
f 134//134 84//84 135//135
f 136//136 87//87 137//137
f 76//76 90//90 138//138
f 73//73 93//93 139//139
f 85//85 96//96 140//140
f 82//82 99//99 141//141
f 79//79 102//102 142//142
f 143//143 105//105 144//144
f 145//145 108//108 146//146
f 147//147 111//111 148//148
f 149//149 114//114 150//150
f 151//151 117//117 152//152
f 103//103 119//119 153//153
f 106//106 121//121 154//154
f 109//109 123//123 155//155
f 112//112 125//125 156//156
f 115//115 127//127 157//157
f 129//129 3//3 2//2
f 131//131 4//4 3//3
f 133//133 5//5 4//4
f 135//135 6//6 5//5
f 137//137 2//2 6//6
f 138//138 9//9 8//8
f 139//139 12//12 11//11
f 140//140 15//15 14//14
f 141//141 18//18 17//17
f 142//142 21//21 20//20
f 144//144 24//24 23//23
f 146//146 25//25 24//24
f 148//148 26//26 25//25
f 150//150 27//27 26//26
f 152//152 23//23 27//27
f 153//153 30//30 29//29
f 154//154 33//33 32//32
f 155//155 36//36 35//35
f 156//156 39//39 38//38
f 157//157 42//42 41//41
f 75//75 44//44 43//43
f 78//78 46//46 45//45
f 81//81 48//48 47//47
f 84//84 50//50 49//49
f 87//87 52//52 51//51
f 90//90 45//45 53//53
f 93//93 43//43 54//54
f 96//96 51//51 55//55
f 99//99 49//49 56//56
f 102//102 47//47 57//57
f 105//105 59//59 58//58
f 108//108 61//61 60//60
f 111//111 63//63 62//62
f 114//114 65//65 64//64
f 117//117 67//67 66//66
f 119//119 58//58 68//68
f 121//121 60//60 69//69
f 123//123 62//62 70//70
f 125//125 64//64 71//71
f 127//127 66//66 72//72
f 74//74 11//11 46//46
f 77//77 8//8 48//48
f 80//80 20//20 50//50
f 83//83 17//17 52//52
f 86//86 14//14 44//44
f 89//89 68//68 42//42
f 92//92 69//69 30//30
f 95//95 70//70 33//33
f 98//98 71//71 36//36
f 101//101 72//72 39//39
f 104//104 29//29 61//61
f 107//107 32//32 63//63
f 110//110 35//35 65//65
f 113//113 38//38 67//67
f 116//116 41//41 59//59
f 118//118 53//53 12//12
f 120//120 54//54 15//15
f 122//122 55//55 18//18
f 124//124 56//56 21//21
f 126//126 57//57 9//9
f 129//129 75//75 74//74
f 131//131 78//78 77//77
f 133//133 81//81 80//80
f 135//135 84//84 83//83
f 137//137 87//87 86//86
f 138//138 90//90 89//89
f 139//139 93//93 92//92
f 140//140 96//96 95//95
f 141//141 99//99 98//98
f 142//142 102//102 101//101
f 144//144 105//105 104//104
f 146//146 108//108 107//107
f 148//148 111//111 110//110
f 150//150 114//114 113//113
f 152//152 117//117 116//116
f 153//153 119//119 118//118
f 154//154 121//121 120//120
f 155//155 123//123 122//122
f 156//156 125//125 124//124
f 157//157 127//127 126//126
