# Created by Open3D 
# object name: part_017
# number of vertices: 162
# number of triangles: 320
v 8.99367 22.5743 1.56738
vn 0.464549 0.850607 0.246295
v 9.00659 22.5567 1.58708
vn 0.575407 0.62595 0.526397
v 9.01241 22.5645 1.55469
vn 0.748051 0.64938 0.136839
v 8.99712 22.5786 1.52396
vn 0.482842 0.875704 0.00262887
v 8.9818 22.5814 1.55413
vn 0.0143173 0.993055 0.116776
v 8.97742 22.5728 1.58655
vn 0.175106 0.83708 0.5183
v 9.00308 22.5461 0.199021
vn 0.468138 0.839892 -0.274641
v 9.02165 22.5369 0.212355
vn 0.750027 0.643439 -0.15312
v 9.01627 22.5278 0.180234
vn 0.582747 0.603966 -0.54372
v 9.00738 22.5286 0.88391
vn 0.882984 -0.46914 0.0157221
v 8.99868 22.5339 1.52169
vn 0.879896 -0.474887 0.0162943
v 8.99315 22.5023 0.884353
vn 0.876063 -0.481934 0.0159372
v 8.77358 22.1305 1.60874
vn 0.872958 -0.480187 0.0858184
v 8.77248 22.1313 1.6176
vn 0.531496 -0.279832 0.799503
v 8.56073 21.7455 1.6162
vn 0.86697 -0.479488 0.135845
v 8.74074 22.1486 1.60814
vn -0.873921 0.483061 0.05398
v 8.94292 22.5157 1.58833
vn -0.875196 0.483598 0.0128205
v 8.53783 21.7815 1.60064
vn -0.875638 0.482796 0.0128459
v 8.97194 22.5505 1.02461
vn -0.867973 0.496348 -0.0161775
v 8.98384 22.5466 0.275414
vn -0.856841 0.515309 -0.0167684
v 8.97294 22.5267 0.24577
vn -0.871214 0.490627 -0.0164757
v 8.52451 21.6787 0.213564
vn -0.464554 -0.850605 -0.246294
v 8.54679 21.6768 0.1945
vn -0.207677 -0.828722 -0.519701
v 8.5424 21.6682 0.226918
vn -0.146301 -0.981199 -0.125877
v 8.52144 21.6741 0.256993
vn -0.482839 -0.875705 -0.00262895
v 8.51179 21.6851 0.22636
vn -0.828717 -0.543973 -0.13161
v 8.51762 21.6929 0.193969
vn -0.599881 -0.60285 -0.526037
v 8.55129 21.702 0.89777
vn 0.867972 -0.49635 0.0161776
v 8.56004 21.6967 0.259994
vn 0.871197 -0.490685 0.0156078
v 8.56595 21.728 0.897335
vn 0.8751 -0.483678 0.0159664
v 8.51509 21.7068 1.58192
vn -0.468138 -0.839892 0.274643
v 8.53317 21.6958 1.56925
vn -0.148292 -0.975236 0.164084
v 8.53711 21.7058 1.60135
vn -0.215044 -0.806731 0.550401
v 8.51586 21.7239 1.03847
vn -0.882983 0.469142 -0.0157222
v 8.50656 21.7217 1.50502
vn -0.893346 0.449118 -0.0150528
v 8.51675 21.742 1.53465
vn -0.879936 0.474849 -0.0152169
v 8.75062 22.1191 0.172311
vn -0.872958 0.480187 -0.0858194
v 8.54752 21.7525 0.192109
vn -0.875243 0.481614 -0.0447068
v 8.95261 22.4868 0.1798
vn -0.874801 0.482415 -0.0447155
v 8.78346 22.101 0.172909
vn 0.873921 -0.483061 -0.0539788
v 8.78249 22.1014 0.164011
vn 0.542355 -0.312302 -0.779948
v 8.99569 22.4864 0.165438
vn 0.871537 -0.479143 -0.10414
v 8.97669 22.4971 1.58894
vn 0.875243 -0.481613 0.0447068
v 8.9858 22.5159 1.60328
vn 0.869884 -0.47421 0.135743
v 9.01765 22.5279 0.27603
vn 0.893218 -0.44937 0.0150847
v 9.00928 22.5529 1.49139
vn 0.893212 -0.449362 0.0156869
v 8.99104 22.5538 0.211798
vn 0.0162049 0.987419 -0.157292
v 9.00594 22.5523 0.242271
vn 0.483074 0.874995 -0.0319802
v 8.96417 22.5529 1.52106
vn -0.871162 0.490751 -0.015483
v 8.97548 22.5716 1.49077
vn -0.85656 0.515795 -0.0161707
v 8.74172 22.1482 1.61704
vn -0.656648 0.37327 0.65535
v 8.95358 22.5337 1.6027
vn -0.868624 0.484423 0.104052
v 9.00745 22.5077 0.246399
vn 0.8799 -0.474911 0.0153437
v 8.5716 21.7629 1.60125
vn 0.874801 -0.482415 0.0447164
v 8.52852 21.7632 1.61561
vn -0.871537 0.479143 0.104137
v 8.95727 22.5245 1.0268
vn -0.8751 0.483678 -0.0159664
v 8.9871 22.5439 0.179703
vn 0.182468 0.815109 -0.549821
v 8.58129 21.7339 0.192725
vn 0.875196 -0.483598 -0.0128186
v 8.57063 21.7159 0.178355
vn 0.868623 -0.484423 -0.104058
v 8.54037 21.703 1.50564
vn 0.8567 -0.515542 0.0167959
v 8.54873 21.678 0.290279
vn 0.856707 -0.515549 0.0161943
v 8.50256 21.7127 1.5687
vn -0.830582 -0.538368 0.142455
v 8.51262 21.7005 1.53868
vn -0.483074 -0.874995 0.0319803
v 8.52553 21.7157 0.259366
vn -0.879877 0.474926 -0.0162121
v 8.51492 21.6967 0.289664
vn -0.893089 0.449607 -0.0156674
v 8.75172 22.1183 0.163451
vn -0.647461 0.34583 -0.679114
v 8.53841 21.7337 0.177768
vn -0.869884 0.47421 -0.135743
v 8.98638 22.4681 0.180416
vn 0.875638 -0.482796 -0.0128446
v 8.55126 21.7229 1.53528
vn 0.871193 -0.490662 0.0165591
v 8.50794 21.7218 1.60082
vn -0.607216 -0.580913 0.54206
v 8.53008 21.7502 1.03978
vn -0.876063 0.481933 -0.0159372
v 8.96347 22.5041 0.164852
vn -0.86697 0.479488 -0.135845
v 8.99081 22.5213 1.56503
vn 0.876229 -0.481218 0.0255324
v 9.00497 22.5472 1.55366
vn 0.889557 -0.456023 0.0270563
v 8.99714 22.5348 1.5869
vn 0.885243 -0.462235 0.0518109
v 9.021 22.534 0.234817
vn 0.924396 -0.38127 0.0111466
v 9.02358 22.5424 0.275082
vn 0.75781 0.652374 -0.0114989
v 9.01781 22.5495 0.883554
vn 0.925441 -0.378627 0.0141529
v 8.98832 22.552 0.234222
vn -0.815381 0.578576 -0.0201068
v 8.98404 22.5703 1.01765
vn -0.814012 0.580583 -0.0175384
v 8.99294 22.5593 0.274523
vn -0.0195574 0.999524 -0.0238393
v 8.95652 22.5402 1.56441
vn -0.874853 0.484347 -0.0063687
v 8.96392 22.5531 1.5863
vn -0.864343 0.502507 0.0199364
v 8.97123 22.5659 1.55305
vn -0.860712 0.509069 -0.00483007
v 8.75387 22.1416 1.62009
vn -0.00687402 0.0205531 0.999765
v 8.98448 22.5173 1.6103
vn 0.157809 -0.0418884 0.986581
v 8.95528 22.5334 1.60976
vn -0.169118 0.138044 0.97588
v 9.00017 22.4933 0.203505
vn 0.87636 -0.481614 0.00631707
v 9.00681 22.5059 0.181185
vn 0.88574 -0.463724 -0.0206022
v 9.01419 22.5197 0.213989
vn 0.889719 -0.456493 0.00394231
v 8.55832 21.7374 1.57817
vn 0.874721 -0.483951 0.0255828
v 8.57236 21.7608 1.53537
vn 0.875479 -0.482976 0.0164362
v 8.77463 22.1294 1.57503
vn 0.875479 -0.482592 0.0253215
v 8.51471 21.7368 1.61146
vn -0.858081 0.199368 0.473233
v 8.52595 21.728 1.61531
vn -0.22075 -0.37052 0.902211
v 8.52973 21.7621 1.62269
vn -0.193109 0.0945355 0.976613
v 8.7436 22.1374 1.03384
vn -0.875582 0.482806 -0.0159518
v 8.53751 21.78 1.53474
vn -0.875686 0.482638 -0.0153407
v 8.94306 22.5151 1.52242
vn -0.875486 0.482999 -0.0153464
v 8.97835 22.53 0.169028
vn -0.612905 0.611779 -0.500074
v 8.9736 22.5242 0.180579
vn -0.86385 0.501011 -0.0524541
v 8.98506 22.5441 0.191255
vn -0.825127 0.561073 -0.0660525
v 8.56769 21.7094 0.216646
vn 0.874853 -0.484347 0.00636942
v 8.55298 21.6838 0.228004
vn 0.860712 -0.509069 0.00483039
v 8.56028 21.6965 0.194753
vn 0.864344 -0.502506 -0.0199369
v 8.53589 21.6976 1.54683
vn 0.815619 -0.578225 0.0205545
v 8.53127 21.6903 1.50653
vn -0.147764 -0.988764 0.022613
v 8.53924 21.682 0.898096
vn 0.814012 -0.580583 0.0175384
v 8.50321 21.7156 1.54624
vn -0.924173 0.381831 -0.010511
v 8.50547 21.7029 1.03219
vn -0.925442 0.378626 -0.0141528
v 8.50062 21.7072 1.50597
vn -0.827766 -0.561 0.00911899
v 8.5334 21.7283 0.216022
vn -0.876229 0.481218 -0.0255322
v 8.52707 21.7148 0.194148
vn -0.885243 0.462234 -0.0518116
v 8.51924 21.7024 0.227389
vn -0.889556 0.456023 -0.0270562
v 8.76391 22.1116 0.160847
vn 0.00688251 -0.0205581 -0.999765
v 8.56893 21.7162 0.17129
vn 0.147116 -0.126252 -0.981029
v 8.53972 21.7323 0.170757
vn -0.17963 0.0542584 -0.982237
v 8.9867 22.4696 0.246312
vn 0.875685 -0.482636 0.0154679
v 8.78404 22.1012 0.206653
vn 0.875608 -0.482977 0.00657998
v 8.55061 21.7254 1.60047
vn 0.86385 -0.501011 0.0524541
v 8.54376 21.7113 1.56768
vn 0.860549 -0.5086 0.0279367
v 8.5174 21.7437 1.59987
vn -0.88574 0.463724 0.0206022
v 8.507 21.7233 1.58921
vn -0.916243 0.39915 0.0343294
v 8.95185 22.4888 0.245677
vn -0.87548 0.482977 -0.0163523
v 8.5463 21.7538 0.258001
vn -0.875679 0.482618 -0.016346
v 8.99192 22.5251 0.165627
vn 0.22075 0.37052 -0.902211
v 8.96527 22.5036 0.157826
vn -0.155628 0.0977634 -0.982966
v 8.99966 22.5422 1.59823
vn 0.788385 -0.0756363 0.610515
v 9.00769 22.5548 1.57556
vn 0.915571 -0.397144 0.0632982
v 9.01207 22.5607 1.53236
vn 0.924339 -0.381181 0.0172507
v 9.01521 22.5674 1.49182
vn 0.757764 0.652511 -0.00490247
v 9.00208 22.5674 0.883078
vn 0.48303 0.875481 -0.0146771
v 8.98457 22.5843 1.49127
vn 0.0331227 0.999306 -0.0170391
v 8.97939 22.5787 1.53177
vn -0.816011 0.577872 -0.0137984
v 8.97554 22.5725 1.57497
vn -0.825809 0.563065 0.0315849
v 8.96852 22.5593 1.59767
vn -0.619615 0.631638 0.465952
v 8.98204 22.5546 1.60145
vn 0.208421 0.407356 0.889169
v 9.01721 22.5263 0.191841
vn 0.916243 -0.39915 -0.0343294
v 8.97791 22.4959 1.52305
vn 0.875678 -0.482616 0.0164298
v 8.55894 21.746 1.62323
vn 0.133578 -0.0857815 0.987319
v 8.74017 22.1484 1.5744
vn -0.875608 0.482977 -0.00657952
v 8.98045 22.5383 0.213375
vn -0.860549 0.5086 -0.0279367
v 8.55569 21.6903 0.183385
vn 0.501451 -0.635583 -0.58701
v 8.54867 21.6771 0.206078
vn 0.825807 -0.563067 -0.0315873
v 8.54482 21.6709 0.249287
vn 0.815665 -0.578344 0.0144515
v 8.53964 21.6653 0.289787
vn -0.147715 -0.9889 0.0160168
v 8.5157 21.6858 0.897857
vn -0.483029 -0.875482 0.0146772
v 8.509 21.6822 0.289229
vn -0.856145 -0.516733 0.00158007
v 8.51214 21.6889 0.248692
vn -0.924503 0.380804 -0.0167908
v 8.51652 21.6948 0.205492
vn -0.915571 0.397144 -0.0632982
v 8.52454 21.7074 0.182818
vn -0.851441 0.179505 -0.492773
v 8.53583 21.6985 0.179486
vn -0.208416 -0.407355 -0.889171
v 8.58114 21.7345 0.258636
vn 0.875486 -0.482996 0.0154737
v 8.53915 21.7055 1.5898
vn 0.825127 -0.561073 0.0660525
v 8.51002 21.7299 1.56706
vn -0.889719 0.456493 -0.00394231
v 8.74958 22.1202 0.206025
vn -0.875479 0.482592 -0.0253215
v 8.99447 22.4875 0.158358
vn 0.171333 -0.0823481 -0.981766
v 9.00949 22.5128 0.169595
vn 0.796685 -0.100451 -0.595989
v 8.77962 22.1151 0.890845
vn 0.875582 -0.482806 0.0159518
v 8.54586 21.7196 1.61202
vn 0.493139 -0.610777 0.619488
v 8.52403 21.7563 1.57755
vn -0.87636 0.481614 -0.00631707
v 8.96588 22.5122 0.20288
vn -0.874721 0.483951 -0.0255828
f 1//1 2//2 3//3
f 1//1 3//3 4//4
f 1//1 4//4 5//5
f 1//1 5//5 6//6
f 1//1 6//6 2//2
f 7//7 8//8 9//9
f 10//10 11//11 12//12
f 13//13 14//14 15//15
f 16//16 17//17 18//18
f 19//19 20//20 21//21
f 22//22 23//23 24//24
f 22//22 24//24 25//25
f 22//22 25//25 26//26
f 22//22 26//26 27//27
f 22//22 27//27 23//23
f 28//28 29//29 30//30
f 31//31 32//32 33//33
f 34//34 35//35 36//36
f 37//37 38//38 39//39
f 40//40 41//41 42//42
f 13//13 43//43 44//44
f 10//10 45//45 46//46
f 7//7 47//47 48//48
f 19//19 49//49 50//50
f 16//16 51//51 52//52
f 10//10 53//53 45//45
f 13//13 54//54 43//43
f 16//16 55//55 51//51
f 19//19 56//56 49//49
f 7//7 57//57 47//47
f 40//40 58//58 59//59
f 28//28 60//60 61//61
f 31//31 62//62 63//63
f 34//34 64//64 65//65
f 37//37 66//66 67//67
f 40//40 68//68 58//58
f 28//28 69//69 60//60
f 31//31 70//70 62//62
f 34//34 71//71 64//64
f 37//37 72//72 66//66
f 10//10 46//46 11//11
f 7//7 48//48 8//8
f 19//19 50//50 20//20
f 16//16 52//52 17//17
f 13//13 44//44 14//14
f 40//40 42//42 68//68
f 28//28 30//30 69//69
f 31//31 33//33 70//70
f 34//34 36//36 71//71
f 37//37 39//39 72//72
f 28//28 61//61 29//29
f 31//31 63//63 32//32
f 34//34 65//65 35//35
f 37//37 67//67 38//38
f 40//40 59//59 41//41
f 10//10 12//12 53//53
f 13//13 15//15 54//54
f 16//16 18//18 55//55
f 19//19 21//21 56//56
f 7//7 9//9 57//57
f 73//73 74//74 75//75
f 76//76 77//77 78//78
f 79//79 80//80 81//81
f 82//82 83//83 84//84
f 85//85 86//86 87//87
f 88//88 89//89 90//90
f 91//91 92//92 93//93
f 94//94 95//95 96//96
f 97//97 98//98 99//99
f 100//100 101//101 102//102
f 103//103 104//104 105//105
f 106//106 107//107 108//108
f 109//109 110//110 111//111
f 112//112 113//113 114//114
f 115//115 116//116 117//117
f 88//88 118//118 119//119
f 91//91 120//120 121//121
f 94//94 122//122 123//123
f 97//97 124//124 125//125
f 100//100 126//126 127//127
f 128//128 129//129 2//2
f 130//130 131//131 3//3
f 132//132 133//133 4//4
f 134//134 135//135 5//5
f 136//136 137//137 6//6
f 76//76 138//138 8//8
f 73//73 139//139 11//11
f 85//85 140//140 14//14
f 82//82 141//141 17//17
f 79//79 142//142 20//20
f 143//143 144//144 23//23
f 145//145 146//146 24//24
f 147//147 148//148 25//25
f 149//149 150//150 26//26
f 151//151 152//152 27//27
f 103//103 153//153 29//29
f 106//106 154//154 32//32
f 109//109 155//155 35//35
f 112//112 156//156 38//38
f 115//115 157//157 41//41
f 73//73 75//75 43//43
f 76//76 78//78 45//45
f 79//79 81//81 47//47
f 82//82 84//84 49//49
f 85//85 87//87 51//51
f 88//88 90//90 53//53
f 91//91 93//93 54//54
f 94//94 96//96 55//55
f 97//97 99//99 56//56
f 100//100 102//102 57//57
f 103//103 105//105 58//58
f 106//106 108//108 60//60
f 109//109 111//111 62//62
f 112//112 114//114 64//64
f 115//115 117//117 66//66
f 88//88 119//119 68//68
f 91//91 121//121 69//69
f 94//94 123//123 70//70
f 97//97 125//125 71//71
f 100//100 127//127 72//72
f 130//130 74//74 46//46
f 132//132 77//77 48//48
f 134//134 80//80 50//50
f 136//136 83//83 52//52
f 128//128 86//86 44//44
f 158//158 89//89 42//42
f 159//159 92//92 30//30
f 160//160 95//95 33//33
f 161//161 98//98 36//36
f 162//162 101//101 39//39
f 145//145 104//104 61//61
f 147//147 107//107 63//63
f 149//149 110//110 65//65
f 151//151 113//113 67//67
f 143//143 116//116 59//59
f 159//159 118//118 12//12
f 160//160 120//120 15//15
f 161//161 122//122 18//18
f 162//162 124//124 21//21
f 158//158 126//126 9//9
f 130//130 129//129 74//74
f 132//132 131//131 77//77
f 134//134 133//133 80//80
f 136//136 135//135 83//83
f 128//128 137//137 86//86
f 158//158 138//138 89//89
f 159//159 139//139 92//92
f 160//160 140//140 95//95
f 161//161 141//141 98//98
f 162//162 142//142 101//101
f 145//145 144//144 104//104
f 147//147 146//146 107//107
f 149//149 148//148 110//110
f 151//151 150//150 113//113
f 143//143 152//152 116//116
f 159//159 153//153 118//118
f 160//160 154//154 120//120
f 161//161 155//155 122//122
f 162//162 156//156 124//124
f 158//158 157//157 126//126
f 130//130 3//3 129//129
f 132//132 4//4 131//131
f 134//134 5//5 133//133
f 136//136 6//6 135//135
f 128//128 2//2 137//137
f 158//158 9//9 138//138
f 159//159 12//12 139//139
f 160//160 15//15 140//140
f 161//161 18//18 141//141
f 162//162 21//21 142//142
f 145//145 24//24 144//144
f 147//147 25//25 146//146
f 149//149 26//26 148//148
f 151//151 27//27 150//150
f 143//143 23//23 152//152
f 159//159 30//30 153//153
f 160//160 33//33 154//154
f 161//161 36//36 155//155
f 162//162 39//39 156//156
f 158//158 42//42 157//157
f 128//128 44//44 75//75
f 130//130 46//46 78//78
f 132//132 48//48 81//81
f 134//134 50//50 84//84
f 136//136 52//52 87//87
f 76//76 45//45 90//90
f 73//73 43//43 93//93
f 85//85 51//51 96//96
f 82//82 49//49 99//99
f 79//79 47//47 102//102
f 143//143 59//59 105//105
f 145//145 61//61 108//108
f 147//147 63//63 111//111
f 149//149 65//65 114//114
f 151//151 67//67 117//117
f 103//103 58//58 119//119
f 106//106 60//60 121//121
f 109//109 62//62 123//123
f 112//112 64//64 125//125
f 115//115 66//66 127//127
f 73//73 11//11 74//74
f 76//76 8//8 77//77
f 79//79 20//20 80//80
f 82//82 17//17 83//83
f 85//85 14//14 86//86
f 88//88 68//68 89//89
f 91//91 69//69 92//92
f 94//94 70//70 95//95
f 97//97 71//71 98//98
f 100//100 72//72 101//101
f 103//103 29//29 104//104
f 106//106 32//32 107//107
f 109//109 35//35 110//110
f 112//112 38//38 113//113
f 115//115 41//41 116//116
f 88//88 53//53 118//118
f 91//91 54//54 120//120
f 94//94 55//55 122//122
f 97//97 56//56 124//124
f 100//100 57//57 126//126
f 128//128 75//75 129//129
f 130//130 78//78 131//131
f 132//132 81//81 133//133
f 134//134 84//84 135//135
f 136//136 87//87 137//137
f 76//76 90//90 138//138
f 73//73 93//93 139//139
f 85//85 96//96 140//140
f 82//82 99//99 141//141
f 79//79 102//102 142//142
f 143//143 105//105 144//144
f 145//145 108//108 146//146
f 147//147 111//111 148//148
f 149//149 114//114 150//150
f 151//151 117//117 152//152
f 103//103 119//119 153//153
f 106//106 121//121 154//154
f 109//109 123//123 155//155
f 112//112 125//125 156//156
f 115//115 127//127 157//157
f 129//129 3//3 2//2
f 131//131 4//4 3//3
f 133//133 5//5 4//4
f 135//135 6//6 5//5
f 137//137 2//2 6//6
f 138//138 9//9 8//8
f 139//139 12//12 11//11
f 140//140 15//15 14//14
f 141//141 18//18 17//17
f 142//142 21//21 20//20
f 144//144 24//24 23//23
f 146//146 25//25 24//24
f 148//148 26//26 25//25
f 150//150 27//27 26//26
f 152//152 23//23 27//27
f 153//153 30//30 29//29
f 154//154 33//33 32//32
f 155//155 36//36 35//35
f 156//156 39//39 38//38
f 157//157 42//42 41//41
f 75//75 44//44 43//43
f 78//78 46//46 45//45
f 81//81 48//48 47//47
f 84//84 50//50 49//49
f 87//87 52//52 51//51
f 90//90 45//45 53//53
f 93//93 43//43 54//54
f 96//96 51//51 55//55
f 99//99 49//49 56//56
f 102//102 47//47 57//57
f 105//105 59//59 58//58
f 108//108 61//61 60//60
f 111//111 63//63 62//62
f 114//114 65//65 64//64
f 117//117 67//67 66//66
f 119//119 58//58 68//68
f 121//121 60//60 69//69
f 123//123 62//62 70//70
f 125//125 64//64 71//71
f 127//127 66//66 72//72
f 74//74 11//11 46//46
f 77//77 8//8 48//48
f 80//80 20//20 50//50
f 83//83 17//17 52//52
f 86//86 14//14 44//44
f 89//89 68//68 42//42
f 92//92 69//69 30//30
f 95//95 70//70 33//33
f 98//98 71//71 36//36
f 101//101 72//72 39//39
f 104//104 29//29 61//61
f 107//107 32//32 63//63
f 110//110 35//35 65//65
f 113//113 38//38 67//67
f 116//116 41//41 59//59
f 118//118 53//53 12//12
f 120//120 54//54 15//15
f 122//122 55//55 18//18
f 124//124 56//56 21//21
f 126//126 57//57 9//9
f 129//129 75//75 74//74
f 131//131 78//78 77//77
f 133//133 81//81 80//80
f 135//135 84//84 83//83
f 137//137 87//87 86//86
f 138//138 90//90 89//89
f 139//139 93//93 92//92
f 140//140 96//96 95//95
f 141//141 99//99 98//98
f 142//142 102//102 101//101
f 144//144 105//105 104//104
f 146//146 108//108 107//107
f 148//148 111//111 110//110
f 150//150 114//114 113//113
f 152//152 117//117 116//116
f 153//153 119//119 118//118
f 154//154 121//121 120//120
f 155//155 123//123 122//122
f 156//156 125//125 124//124
f 157//157 127//127 126//126
