# Created by Open3D 
# object name: part_014
# number of vertices: 162
# number of triangles: 320
v 7.50547 19.7264 0.170259
vn -0.464603 -0.846697 -0.259321
v 7.52773 19.7246 0.151344
vn -0.215284 -0.823993 -0.524107
v 7.52324 19.7157 0.18356
vn -0.160638 -0.976379 -0.144499
v 7.50211 19.7211 0.213603
vn -0.483693 -0.874824 -0.0269178
v 7.49265 19.7326 0.183097
vn -0.818302 -0.555608 -0.147243
v 7.49859 19.7407 0.150902
vn -0.595488 -0.604436 -0.529199
v 7.48266 19.7227 1.5407
vn -0.472925 -0.848022 0.239168
v 7.50086 19.712 1.52794
vn -0.165209 -0.977138 0.133815
v 7.50428 19.7208 1.56033
vn -0.23253 -0.826777 0.512221
v 7.52506 19.7328 0.856017
vn 0.866901 -0.498309 0.013088
v 7.53986 19.742 0.217493
vn 0.870296 -0.492366 0.0126861
v 7.5391 19.7577 0.856317
vn 0.874383 -0.485055 0.0132479
v 7.75451 20.1298 0.141693
vn 0.873917 -0.482773 -0.0565521
v 7.75362 20.1304 0.132784
vn 0.550114 -0.295023 -0.78124
v 7.95766 20.4978 0.145056
vn 0.872108 -0.477571 -0.106557
v 7.7217 20.148 0.141196
vn -0.871593 0.483149 -0.0830185
v 7.52712 19.7977 0.15069
vn -0.874281 0.4836 -0.0419913
v 7.91489 20.4987 0.159033
vn -0.873817 0.484439 -0.0419738
v 7.49298 19.7523 0.71395
vn -0.882646 0.469846 -0.013427
v 7.47468 19.739 1.46397
vn -0.893228 0.449405 -0.0133814
v 7.48412 19.7577 1.4942
vn -0.879403 0.475901 -0.0129646
v 7.94077 20.5508 1.55055
vn 0.464603 0.846697 0.259323
v 7.95369 20.5332 1.57
vn 0.571592 0.626815 0.529514
v 7.95962 20.5413 1.53781
vn 0.738509 0.656595 0.153256
v 7.94452 20.556 1.50722
vn 0.483693 0.874824 0.0269197
v 7.92903 20.5583 1.53734
vn 0.0328797 0.990253 0.135344
v 7.92454 20.5493 1.56956
vn 0.183653 0.83234 0.522954
v 7.96165 20.522 0.865409
vn 0.882642 -0.469854 0.013427
v 7.94689 20.5128 1.50393
vn 0.879406 -0.475871 0.0138309
v 7.94803 20.4969 0.865114
vn 0.875394 -0.483228 0.0132704
v 7.96359 20.5545 0.180115
vn 0.472931 0.84802 -0.239163
v 7.982 20.545 0.19343
vn 0.743163 0.65732 -0.125059
v 7.97714 20.537 0.161012
vn 0.588843 0.629611 -0.506807
v 7.92957 20.5415 0.723342
vn -0.866901 0.498309 -0.013088
v 7.94381 20.5536 0.256421
vn -0.854897 0.518631 -0.0131616
v 7.93367 20.5353 0.226184
vn -0.870236 0.492442 -0.0137601
v 7.69776 20.1441 1.57921
vn -0.873917 0.482773 0.0565521
v 7.89141 20.4949 1.5697
vn -0.874774 0.484284 0.0154944
v 7.50364 19.7939 1.56136
vn -0.875238 0.483445 0.0154916
v 7.73058 20.1259 1.57971
vn 0.871593 -0.483149 0.0830185
v 7.72939 20.1265 1.58858
vn 0.523821 -0.299266 0.797529
v 7.5268 19.7583 1.57634
vn 0.865062 -0.483737 0.132912
v 7.56086 19.779 0.151202
vn 0.874774 -0.484284 -0.0154944
v 7.55077 19.7622 0.136304
vn 0.86905 -0.483092 -0.106648
v 7.50846 19.7203 1.46448
vn 0.85506 -0.518362 0.0131373
v 7.52872 19.7235 0.247277
vn 0.855076 -0.518352 0.0125374
v 7.47028 19.729 1.52747
vn -0.822727 -0.556278 0.116937
v 7.48074 19.7176 1.49724
vn -0.484243 -0.874912 0.00609429
v 7.50538 19.7611 0.21697
vn -0.879439 0.475806 -0.0139575
v 7.49494 19.7422 0.246764
vn -0.893479 0.448887 -0.0139913
v 7.72288 20.1474 0.132319
vn -0.640852 0.362568 -0.676648
v 7.51858 19.78 0.135816
vn -0.868115 0.47821 -0.13301
v 7.5186 19.7386 1.49472
vn 0.870275 -0.492378 0.0136349
v 7.94863 20.48 0.159544
vn 0.875238 -0.483445 -0.0154876
v 7.92547 20.5156 0.144568
vn -0.865064 0.483738 -0.132898
v 7.50662 19.7774 0.712493
vn -0.875394 0.483228 -0.0132704
v 7.47513 19.7369 1.55989
vn -0.61272 -0.607221 0.505823
v 7.92515 20.4762 1.57021
vn 0.874281 -0.4836 0.0419913
v 7.93369 20.4939 1.58509
vn 0.868115 -0.47821 0.13301
v 7.97759 20.535 0.256933
vn 0.893344 -0.449175 0.0133604
v 7.95733 20.5317 1.47414
vn 0.893332 -0.449181 0.0139607
v 7.95141 20.5619 0.192966
vn 0.0371992 0.990967 -0.12884
v 7.96589 20.5594 0.22358
vn 0.484244 0.874912 -0.00609648
v 7.91241 20.5319 1.50341
vn -0.870317 0.492326 -0.0127689
v 7.92355 20.5504 1.47363
vn -0.855214 0.518122 -0.0125638
v 7.69865 20.1435 1.58812
vn -0.663033 0.358969 0.656908
v 7.9015 20.5117 1.5846
vn -0.86905 0.483092 0.106648
v 7.53738 19.7752 1.56187
vn 0.873817 -0.484439 0.0419737
v 7.96815 20.5162 0.226707
vn 0.879424 -0.475865 0.0128824
v 7.94799 20.5531 0.16057
vn 0.200881 0.83512 -0.512075
v 7.91556 20.5166 0.72129
vn -0.874383 0.485055 -0.0132479
v 7.49461 19.7762 1.57585
vn -0.872107 0.477569 0.106572
v 7.54762 19.7551 0.174461
vn 0.874216 -0.485523 0.00364715
v 7.53341 19.7304 0.185103
vn 0.859384 -0.511329 0.0013868
v 7.54073 19.7433 0.152177
vn 0.863466 -0.503876 -0.0231422
v 7.50374 19.7142 1.50555
vn 0.811758 -0.583802 0.0149859
v 7.49968 19.7081 1.465
vn -0.163528 -0.986536 -0.00221569
v 7.51349 19.7138 0.855773
vn 0.810077 -0.586203 0.0119058
v 7.47108 19.7323 1.50506
vn -0.925997 0.377347 -0.0118044
v 7.48292 19.7323 0.72038
vn -0.926903 0.375023 -0.0144188
v 7.46906 19.7251 1.46453
vn -0.846466 -0.532296 -0.0124826
v 7.51336 19.7741 0.173941
vn -0.875479 0.482715 -0.0228641
v 7.50754 19.7617 0.151675
vn -0.884706 0.463497 -0.0496524
v 7.4997 19.7491 0.184592
vn -0.889418 0.456405 -0.0251178
v 7.73509 20.1407 0.129673
vn 0.0166399 0.00269384 -0.999858
v 7.54915 19.7627 0.129219
vn 0.156208 -0.104763 -0.982153
v 7.51997 19.7788 0.128777
vn -0.170787 0.0764023 -0.982341
v 7.52492 19.7515 1.53806
vn 0.873897 -0.485574 0.0228429
v 7.51729 19.7395 1.56003
vn 0.862262 -0.504072 0.049149
v 7.51108 19.7268 1.52681
vn 0.858993 -0.511403 0.0244621
v 7.96161 20.5035 0.183367
vn 0.875799 -0.482663 0.00367536
v 7.9483 20.4799 0.225551
vn 0.875001 -0.483952 0.0127816
v 7.75476 20.1293 0.175486
vn 0.875006 -0.484096 0.00389701
v 7.93969 20.5401 0.149482
vn -0.600241 0.632505 -0.489538
v 7.95324 20.5353 0.146095
vn 0.238029 0.405972 -0.882343
v 7.92733 20.5152 0.13754
vn -0.14556 0.121972 -0.981802
v 7.71103 20.147 0.716334
vn -0.874889 0.484142 -0.0132591
v 7.91347 20.4992 0.225024
vn -0.874774 0.484332 -0.0138646
v 7.52526 19.7974 0.216672
vn -0.874983 0.483954 -0.0138687
v 7.48147 19.751 1.57095
vn -0.865818 0.178797 0.467323
v 7.48411 19.7579 1.55953
vn -0.885905 0.463312 0.0226773
v 7.47428 19.7386 1.5483
vn -0.917867 0.395382 0.0345485
v 7.93892 20.4998 1.54696
vn 0.875479 -0.482715 0.0228641
v 7.95257 20.5249 1.53631
vn 0.889418 -0.456405 0.0251178
v 7.94473 20.5122 1.56923
vn 0.884706 -0.463497 0.0496524
v 7.98119 20.5417 0.215844
vn 0.925848 -0.377725 0.0113477
v 7.98321 20.5488 0.256371
vn 0.748904 0.662585 0.0110859
v 7.9716 20.5419 0.865628
vn 0.926909 -0.375009 0.014419
v 7.94854 20.5597 0.215349
vn -0.812106 0.583301 -0.0156373
v 7.94103 20.5605 0.730235
vn -0.810077 0.586203 -0.0119058
v 7.9526 20.5658 0.255907
vn 0.0526263 0.998614 0.000408683
v 7.90465 20.5188 1.54644
vn -0.874216 0.485523 -0.00364715
v 7.91154 20.5306 1.56873
vn -0.863466 0.503876 0.0231422
v 7.91886 20.5435 1.5358
vn -0.859384 0.511329 -0.0013868
v 7.71076 20.1368 1.59113
vn -0.0166402 -0.00269363 0.999858
v 7.9323 20.4951 1.59213
vn 0.148881 -0.064066 0.986778
v 7.90312 20.5113 1.59168
vn -0.178162 0.116696 0.977057
v 7.5388 19.7747 1.49588
vn 0.874777 -0.484332 0.0137372
v 7.73195 20.1256 1.54594
vn 0.874695 -0.484146 0.0226179
v 7.96816 20.516 0.161373
vn 0.885899 -0.463323 -0.0226649
v 7.9749 20.5285 0.194601
vn 0.889796 -0.456354 0.00204105
v 7.93498 20.5344 0.160869
vn -0.86226 0.504075 -0.0491538
v 7.94586 20.5531 0.172121
vn -0.821402 0.567089 -0.0609047
v 7.50398 19.794 1.49535
vn -0.874999 0.483953 -0.0128652
v 7.89219 20.4958 1.5037
vn -0.874791 0.484329 -0.0128606
v 7.49271 19.7422 1.57471
vn -0.238031 -0.405974 0.882342
v 7.49577 19.7749 1.58292
vn -0.203368 0.0711174 0.976516
v 7.5364 19.7376 0.140609
vn 0.497598 -0.632419 -0.593669
v 7.52948 19.7246 0.162959
vn 0.823014 -0.566841 -0.0365911
v 7.52537 19.7177 0.206038
vn 0.811834 -0.58382 0.00889413
v 7.51996 19.7114 0.246404
vn -0.163448 -0.986515 -0.00854062
v 7.49013 19.7179 0.855395
vn -0.484033 -0.874988 -0.0104133
v 7.48934 19.7284 0.245941
vn -0.817885 -0.57509 -0.0183188
v 7.49271 19.7358 0.205543
vn -0.925497 0.378324 -0.0180771
v 7.49735 19.7423 0.162472
vn -0.916237 0.395663 -0.0629359
v 7.50528 19.7549 0.140138
vn -0.849798 0.181393 -0.494914
v 7.51665 19.746 0.136704
vn -0.208488 -0.401191 -0.891952
v 7.50641 19.7208 1.54878
vn 0.821408 -0.56708 0.0608957
v 7.56008 19.7782 0.217199
vn 0.874792 -0.48433 0.0127772
v 7.95651 20.499 0.137982
vn 0.181644 -0.0587663 -0.981607
v 7.72032 20.1483 0.174964
vn -0.874695 0.484146 -0.0226179
v 7.47737 19.7454 1.5263
vn -0.889802 0.456343 -0.00204421
v 7.94699 20.5191 1.58077
vn 0.786131 -0.0779728 0.613122
v 7.95492 20.5316 1.55843
vn 0.916237 -0.395663 0.0629359
v 7.95956 20.5382 1.51536
vn 0.925744 -0.377748 0.0174395
v 7.96293 20.5456 1.47496
vn 0.748788 0.662581 0.0174119
v 7.95571 20.5596 0.865411
vn 0.484033 0.874988 0.0104133
v 7.93231 20.5625 1.4745
vn 0.00118873 0.999983 0.00575369
v 7.92691 20.5562 1.51487
vn -0.811573 0.584176 -0.0093416
v 7.92279 20.5494 1.55794
vn -0.823014 0.566841 0.0365911
v 7.91587 20.5363 1.58029
vn -0.616262 0.629901 0.4727
v 7.9293 20.5314 1.5841
vn 0.208488 0.401191 0.891952
v 7.92701 20.4765 1.50423
vn 0.874985 -0.483954 0.0137414
v 7.97799 20.5353 0.172608
vn 0.917863 -0.395391 -0.034542
v 7.94119 20.5471 0.19409
vn -0.858993 0.511402 -0.0244652
v 7.69751 20.1446 1.54542
vn -0.875006 0.484096 -0.00389701
v 7.52495 19.7587 1.58336
vn 0.123427 -0.110051 0.986232
v 7.51258 19.7338 1.57142
vn 0.477611 -0.635663 0.606482
v 7.74363 20.1273 0.860717
vn 0.874889 -0.484142 0.0132591
v 7.97081 20.5229 0.149954
vn 0.806117 -0.0747453 -0.587016
v 7.92735 20.5225 0.182847
vn -0.873897 0.485575 -0.0228436
v 7.49066 19.7704 1.53754
vn -0.875798 0.482663 -0.00367606
f 1//1 2//2 3//3
f 1//1 3//3 4//4
f 1//1 4//4 5//5
f 1//1 5//5 6//6
f 1//1 6//6 2//2
f 7//7 8//8 9//9
f 10//10 11//11 12//12
f 13//13 14//14 15//15
f 16//16 17//17 18//18
f 19//19 20//20 21//21
f 22//22 23//23 24//24
f 22//22 24//24 25//25
f 22//22 25//25 26//26
f 22//22 26//26 27//27
f 22//22 27//27 23//23
f 28//28 29//29 30//30
f 31//31 32//32 33//33
f 34//34 35//35 36//36
f 37//37 38//38 39//39
f 40//40 41//41 42//42
f 13//13 43//43 44//44
f 10//10 45//45 46//46
f 7//7 47//47 48//48
f 19//19 49//49 50//50
f 16//16 51//51 52//52
f 10//10 53//53 45//45
f 13//13 54//54 43//43
f 16//16 55//55 51//51
f 19//19 56//56 49//49
f 7//7 57//57 47//47
f 40//40 58//58 59//59
f 28//28 60//60 61//61
f 31//31 62//62 63//63
f 34//34 64//64 65//65
f 37//37 66//66 67//67
f 40//40 68//68 58//58
f 28//28 69//69 60//60
f 31//31 70//70 62//62
f 34//34 71//71 64//64
f 37//37 72//72 66//66
f 10//10 46//46 11//11
f 7//7 48//48 8//8
f 19//19 50//50 20//20
f 16//16 52//52 17//17
f 13//13 44//44 14//14
f 40//40 42//42 68//68
f 28//28 30//30 69//69
f 31//31 33//33 70//70
f 34//34 36//36 71//71
f 37//37 39//39 72//72
f 28//28 61//61 29//29
f 31//31 63//63 32//32
f 34//34 65//65 35//35
f 37//37 67//67 38//38
f 40//40 59//59 41//41
f 10//10 12//12 53//53
f 13//13 15//15 54//54
f 16//16 18//18 55//55
f 19//19 21//21 56//56
f 7//7 9//9 57//57
f 73//73 74//74 75//75
f 76//76 77//77 78//78
f 79//79 80//80 81//81
f 82//82 83//83 84//84
f 85//85 86//86 87//87
f 88//88 89//89 90//90
f 91//91 92//92 93//93
f 94//94 95//95 96//96
f 97//97 98//98 99//99
f 100//100 101//101 102//102
f 103//103 104//104 105//105
f 106//106 107//107 108//108
f 109//109 110//110 111//111
f 112//112 113//113 114//114
f 115//115 116//116 117//117
f 88//88 118//118 119//119
f 91//91 120//120 121//121
f 94//94 122//122 123//123
f 97//97 124//124 125//125
f 100//100 126//126 127//127
f 128//128 129//129 2//2
f 130//130 131//131 3//3
f 132//132 133//133 4//4
f 134//134 135//135 5//5
f 136//136 137//137 6//6
f 76//76 138//138 8//8
f 73//73 139//139 11//11
f 85//85 140//140 14//14
f 82//82 141//141 17//17
f 79//79 142//142 20//20
f 143//143 144//144 23//23
f 145//145 146//146 24//24
f 147//147 148//148 25//25
f 149//149 150//150 26//26
f 151//151 152//152 27//27
f 103//103 153//153 29//29
f 106//106 154//154 32//32
f 109//109 155//155 35//35
f 112//112 156//156 38//38
f 115//115 157//157 41//41
f 73//73 75//75 43//43
f 76//76 78//78 45//45
f 79//79 81//81 47//47
f 82//82 84//84 49//49
f 85//85 87//87 51//51
f 88//88 90//90 53//53
f 91//91 93//93 54//54
f 94//94 96//96 55//55
f 97//97 99//99 56//56
f 100//100 102//102 57//57
f 103//103 105//105 58//58
f 106//106 108//108 60//60
f 109//109 111//111 62//62
f 112//112 114//114 64//64
f 115//115 117//117 66//66
f 88//88 119//119 68//68
f 91//91 121//121 69//69
f 94//94 123//123 70//70
f 97//97 125//125 71//71
f 100//100 127//127 72//72
f 130//130 74//74 46//46
f 132//132 77//77 48//48
f 134//134 80//80 50//50
f 136//136 83//83 52//52
f 128//128 86//86 44//44
f 158//158 89//89 42//42
f 159//159 92//92 30//30
f 160//160 95//95 33//33
f 161//161 98//98 36//36
f 162//162 101//101 39//39
f 145//145 104//104 61//61
f 147//147 107//107 63//63
f 149//149 110//110 65//65
f 151//151 113//113 67//67
f 143//143 116//116 59//59
f 159//159 118//118 12//12
f 160//160 120//120 15//15
f 161//161 122//122 18//18
f 162//162 124//124 21//21
f 158//158 126//126 9//9
f 130//130 129//129 74//74
f 132//132 131//131 77//77
f 134//134 133//133 80//80
f 136//136 135//135 83//83
f 128//128 137//137 86//86
f 158//158 138//138 89//89
f 159//159 139//139 92//92
f 160//160 140//140 95//95
f 161//161 141//141 98//98
f 162//162 142//142 101//101
f 145//145 144//144 104//104
f 147//147 146//146 107//107
f 149//149 148//148 110//110
f 151//151 150//150 113//113
f 143//143 152//152 116//116
f 159//159 153//153 118//118
f 160//160 154//154 120//120
f 161//161 155//155 122//122
f 162//162 156//156 124//124
f 158//158 157//157 126//126
f 130//130 3//3 129//129
f 132//132 4//4 131//131
f 134//134 5//5 133//133
f 136//136 6//6 135//135
f 128//128 2//2 137//137
f 158//158 9//9 138//138
f 159//159 12//12 139//139
f 160//160 15//15 140//140
f 161//161 18//18 141//141
f 162//162 21//21 142//142
f 145//145 24//24 144//144
f 147//147 25//25 146//146
f 149//149 26//26 148//148
f 151//151 27//27 150//150
f 143//143 23//23 152//152
f 159//159 30//30 153//153
f 160//160 33//33 154//154
f 161//161 36//36 155//155
f 162//162 39//39 156//156
f 158//158 42//42 157//157
f 128//128 44//44 75//75
f 130//130 46//46 78//78
f 132//132 48//48 81//81
f 134//134 50//50 84//84
f 136//136 52//52 87//87
f 76//76 45//45 90//90
f 73//73 43//43 93//93
f 85//85 51//51 96//96
f 82//82 49//49 99//99
f 79//79 47//47 102//102
f 143//143 59//59 105//105
f 145//145 61//61 108//108
f 147//147 63//63 111//111
f 149//149 65//65 114//114
f 151//151 67//67 117//117
f 103//103 58//58 119//119
f 106//106 60//60 121//121
f 109//109 62//62 123//123
f 112//112 64//64 125//125
f 115//115 66//66 127//127
f 73//73 11//11 74//74
f 76//76 8//8 77//77
f 79//79 20//20 80//80
f 82//82 17//17 83//83
f 85//85 14//14 86//86
f 88//88 68//68 89//89
f 91//91 69//69 92//92
f 94//94 70//70 95//95
f 97//97 71//71 98//98
f 100//100 72//72 101//101
f 103//103 29//29 104//104
f 106//106 32//32 107//107
f 109//109 35//35 110//110
f 112//112 38//38 113//113
f 115//115 41//41 116//116
f 88//88 53//53 118//118
f 91//91 54//54 120//120
f 94//94 55//55 122//122
f 97//97 56//56 124//124
f 100//100 57//57 126//126
f 128//128 75//75 129//129
f 130//130 78//78 131//131
f 132//132 81//81 133//133
f 134//134 84//84 135//135
f 136//136 87//87 137//137
f 76//76 90//90 138//138
f 73//73 93//93 139//139
f 85//85 96//96 140//140
f 82//82 99//99 141//141
f 79//79 102//102 142//142
f 143//143 105//105 144//144
f 145//145 108//108 146//146
f 147//147 111//111 148//148
f 149//149 114//114 150//150
f 151//151 117//117 152//152
f 103//103 119//119 153//153
f 106//106 121//121 154//154
f 109//109 123//123 155//155
f 112//112 125//125 156//156
f 115//115 127//127 157//157
f 129//129 3//3 2//2
f 131//131 4//4 3//3
f 133//133 5//5 4//4
f 135//135 6//6 5//5
f 137//137 2//2 6//6
f 138//138 9//9 8//8
f 139//139 12//12 11//11
f 140//140 15//15 14//14
f 141//141 18//18 17//17
f 142//142 21//21 20//20
f 144//144 24//24 23//23
f 146//146 25//25 24//24
f 148//148 26//26 25//25
f 150//150 27//27 26//26
f 152//152 23//23 27//27
f 153//153 30//30 29//29
f 154//154 33//33 32//32
f 155//155 36//36 35//35
f 156//156 39//39 38//38
f 157//157 42//42 41//41
f 75//75 44//44 43//43
f 78//78 46//46 45//45
f 81//81 48//48 47//47
f 84//84 50//50 49//49
f 87//87 52//52 51//51
f 90//90 45//45 53//53
f 93//93 43//43 54//54
f 96//96 51//51 55//55
f 99//99 49//49 56//56
f 102//102 47//47 57//57
f 105//105 59//59 58//58
f 108//108 61//61 60//60
f 111//111 63//63 62//62
f 114//114 65//65 64//64
f 117//117 67//67 66//66
f 119//119 58//58 68//68
f 121//121 60//60 69//69
f 123//123 62//62 70//70
f 125//125 64//64 71//71
f 127//127 66//66 72//72
f 74//74 11//11 46//46
f 77//77 8//8 48//48
f 80//80 20//20 50//50
f 83//83 17//17 52//52
f 86//86 14//14 44//44
f 89//89 68//68 42//42
f 92//92 69//69 30//30
f 95//95 70//70 33//33
f 98//98 71//71 36//36
f 101//101 72//72 39//39
f 104//104 29//29 61//61
f 107//107 32//32 63//63
f 110//110 35//35 65//65
f 113//113 38//38 67//67
f 116//116 41//41 59//59
f 118//118 53//53 12//12
f 120//120 54//54 15//15
f 122//122 55//55 18//18
f 124//124 56//56 21//21
f 126//126 57//57 9//9
f 129//129 75//75 74//74
f 131//131 78//78 77//77
f 133//133 81//81 80//80
f 135//135 84//84 83//83
f 137//137 87//87 86//86
f 138//138 90//90 89//89
f 139//139 93//93 92//92
f 140//140 96//96 95//95
f 141//141 99//99 98//98
f 142//142 102//102 101//101
f 144//144 105//105 104//104
f 146//146 108//108 107//107
f 148//148 111//111 110//110
f 150//150 114//114 113//113
f 152//152 117//117 116//116
f 153//153 119//119 118//118
f 154//154 121//121 120//120
f 155//155 123//123 122//122
f 156//156 125//125 124//124
f 157//157 127//127 126//126
