# Created by Open3D 
# object name: part_040
# number of vertices: 162
# number of triangles: 320
v -8.85948 -3.84161 0.0701492
vn -0.118119 -0.153127 -0.981122
v -8.90306 -3.84698 0.0821517
vn -0.472037 -0.0158144 -0.881437
v -8.85021 -3.80951 0.0679674
vn -0.313485 0.275468 -0.90876
v -8.78832 -3.7915 0.0615609
vn 0.0232609 -0.0541096 -0.998264
v -8.83003 -3.83798 0.0699809
vn 0.298468 -0.572215 -0.763863
v -8.88382 -3.87411 0.0840706
vn -0.0847546 -0.555326 -0.827302
v -6.61741 -2.25219 0.0694221
vn 0.183171 0.060464 -0.98122
v -6.65078 -2.2503 0.0672541
vn -0.156544 0.386729 -0.908809
v -6.59792 -2.21284 0.0814041
vn 0.170812 0.439915 -0.881645
v -7.75288 -3.02653 0.10095
vn -0.57698 0.813865 -0.0686867
v -8.79809 -3.76658 0.113819
vn -0.577351 0.813982 -0.0640254
v -7.7544 -3.02436 0.142677
vn -0.57736 0.814405 -0.0583086
v -8.9505 -3.83007 0.760396
vn -0.605477 0.793779 -0.057553
v -8.96436 -3.84135 0.760469
vn -0.926485 0.373216 -0.0483358
v -8.97231 -3.80253 1.37461
vn -0.625414 0.77833 -0.055312
v -8.92884 -3.86062 0.762557
vn 0.548583 -0.834112 0.0575713
v -8.88677 -3.87283 0.177254
vn 0.565637 -0.822664 0.0572679
v -8.92557 -3.81755 1.34791
vn 0.565617 -0.822631 0.0579223
v -7.96172 -3.22275 0.103292
vn 0.577716 -0.814913 0.046499
v -6.73406 -2.3533 0.084334
vn 0.578176 -0.815331 0.0307749
v -6.68576 -2.31736 0.115411
vn 0.577743 -0.814611 0.0511961
v -6.66326 -2.18688 1.45244
vn 0.118121 0.153125 0.981122
v -6.64289 -2.14877 1.43812
vn 0.113555 0.521474 0.845677
v -6.69669 -2.18491 1.45221
vn -0.21505 0.470065 0.856033
v -6.73467 -2.23664 1.461
vn -0.023259 0.0541069 0.998264
v -6.67651 -2.21338 1.45422
vn 0.387888 -0.395935 0.832333
v -6.62366 -2.17591 1.44004
vn 0.495497 -0.0240555 0.868277
v -7.79657 -2.9643 1.41897
vn -0.577715 0.814912 -0.0465045
v -6.75138 -2.22421 1.4061
vn -0.577391 0.814863 -0.0511653
v -7.79532 -2.96607 1.37722
vn -0.577407 0.814472 -0.0568854
v -8.90533 -3.77631 1.45316
vn -0.18317 -0.060466 0.98122
v -8.89612 -3.74411 1.45292
vn -0.371989 0.358804 0.856086
v -8.94803 -3.78291 1.43887
vn -0.529296 0.0657534 0.845886
v -8.00541 -3.16052 1.42132
vn 0.57698 -0.813865 0.068685
v -8.77036 -3.70103 1.44008
vn 0.576134 -0.812946 0.0847832
v -8.8182 -3.73763 1.40905
vn 0.576912 -0.814289 0.0640783
v -6.57622 -2.19282 0.761794
vn 0.60548 -0.793777 0.057553
v -6.61769 -2.18146 1.34716
vn 0.589009 -0.806048 0.0579147
v -6.57888 -2.23674 0.176505
vn 0.589031 -0.806079 0.0572604
v -6.59787 -2.16227 0.759633
vn -0.548585 0.83411 -0.0575715
v -6.58264 -2.15292 0.759697
vn -0.0454859 0.997781 -0.0486221
v -6.57566 -2.19039 0.145465
vn -0.527266 0.847602 -0.0596744
v -8.90903 -3.84142 0.175033
vn -0.589008 0.806049 -0.0579147
v -8.93158 -3.86053 0.146229
vn -0.625276 0.778121 -0.0596429
v -6.75636 -2.32186 0.0821103
vn -0.576156 0.812954 -0.084564
v -8.74773 -3.73357 0.0827562
vn -0.5764 0.81278 -0.0845652
v -6.6306 -2.27877 0.0692676
vn 0.440803 -0.471312 -0.763909
v -6.68826 -2.30275 0.0608798
vn 0.0429258 -0.0401677 -0.99827
v -8.77534 -3.79868 0.116089
vn 0.577342 -0.814901 0.0511145
v -8.72544 -3.76501 0.0849799
vn 0.577937 -0.815516 0.030372
v -8.94408 -3.86996 0.762493
vn 0.194762 -0.979433 0.0527041
v -8.91034 -3.8905 0.148348
vn 0.527405 -0.847809 0.0553435
v -6.70852 -2.28526 0.113141
vn -0.576965 0.814255 -0.0640272
v -8.94784 -3.78614 1.34568
vn -0.589029 0.806081 -0.0572602
v -8.95106 -3.8325 1.37673
vn 0.527266 -0.847602 0.0596744
v -7.96583 -3.22301 0.145048
vn 0.577407 -0.814472 0.0568858
v -6.57868 -2.23997 0.0833227
vn 0.551713 -0.104131 -0.827508
v -6.63995 -2.15006 1.34494
vn -0.565639 0.822662 -0.0572679
v -6.61638 -2.13239 1.37384
vn -0.527407 0.847809 -0.0553435
v -8.79266 -3.66958 1.43786
vn -0.578189 0.815329 -0.0305914
v -6.80128 -2.25787 1.43721
vn -0.577945 0.815502 -0.0305873
v -8.87594 -3.77258 1.45494
vn 0.245557 -0.496846 0.832373
v -8.83473 -3.72539 1.46168
vn -0.0429262 0.0401683 0.99827
v -6.72863 -2.25631 1.40837
vn 0.577319 -0.814007 0.0639927
v -6.77898 -2.28932 1.43943
vn 0.576399 -0.8128 0.0843819
v -6.56235 -2.18153 0.76172
vn 0.859747 -0.508016 0.0524885
v -6.59513 -2.16235 1.37596
vn 0.625272 -0.778125 0.0596424
v -6.60114 -2.20533 0.174284
vn -0.565618 0.822631 -0.0579223
v -8.84095 -3.70553 1.40678
vn -0.577778 0.814589 -0.0511669
v -8.9288 -3.81005 1.44079
vn -0.140966 -0.475256 0.868482
v -8.00675 -3.16472 1.37959
vn 0.57736 -0.814405 0.0583088
v -6.55441 -2.22036 0.147584
vn 0.625418 -0.778327 0.0553119
v -8.86939 -3.81575 0.135422
vn -0.581242 0.81161 -0.0587102
v -8.84993 -3.80527 0.0939313
vn -0.581228 0.809894 -0.0790276
v -8.90456 -3.84287 0.115179
vn -0.591413 0.803021 -0.0734028
v -6.68831 -2.27515 0.0716316
vn -0.571581 0.808854 -0.138019
v -6.75346 -2.32355 0.0604998
vn -0.235086 0.334958 -0.912435
v -7.75126 -3.02882 0.0685101
vn -0.572663 0.807743 -0.140031
v -6.66676 -2.30554 0.0737811
vn 0.579225 -0.814829 -0.0235042
v -7.9503 -3.21582 0.0707421
vn 0.578141 -0.815546 -0.0252324
v -6.73325 -2.35205 0.0625156
vn 0.390083 -0.547185 -0.740556
v -8.84678 -3.84764 0.137677
vn 0.57351 -0.817249 0.0564832
v -8.88267 -3.87377 0.117363
vn 0.563017 -0.825389 0.0417574
v -8.82768 -3.83666 0.0961507
vn 0.573253 -0.818581 0.0361339
v -8.95673 -3.86193 0.761694
vn -0.8158 -0.578334 0.000264738
v -8.94211 -3.87015 0.145633
vn -0.960281 -0.273876 -0.0534053
v -8.92285 -3.89731 0.147554
vn -0.53568 -0.844341 -0.0116462
v -6.63851 -2.23426 0.134698
vn -0.573435 0.817145 -0.0587126
v -6.60128 -2.21005 0.114432
vn -0.561973 0.823892 -0.0734095
v -6.65486 -2.24916 0.0932193
vn -0.571833 0.816555 -0.0790259
v -8.91082 -3.75673 1.38524
vn -0.581319 0.811713 -0.0564806
v -8.84025 -3.70907 1.34628
vn -0.577583 0.814308 -0.05745
v -8.89577 -3.79014 0.760325
vn -0.581185 0.811731 -0.0575954
v -8.94525 -3.82469 1.41822
vn 0.317334 -0.914195 0.252085
v -8.95943 -3.81717 1.4207
vn -0.683716 -0.443743 0.57933
v -8.96362 -3.83924 1.37733
vn -0.537906 -0.841167 0.0556453
v -7.98716 -3.19457 0.762323
vn 0.577383 -0.814439 0.0575973
v -8.81727 -3.74148 1.34857
vn 0.577131 -0.814607 0.0577447
v -8.77842 -3.79682 0.176588
vn 0.577141 -0.814621 0.0574499
v -6.56093 -2.22716 0.106018
vn 0.770799 -0.6207 -0.14353
v -6.57938 -2.24094 0.116616
vn 0.592462 -0.804516 0.0417518
v -6.5967 -2.25473 0.0847796
vn 0.59803 -0.801416 -0.00960409
v -6.67994 -2.17524 1.38451
vn -0.573509 0.81725 -0.0564828
v -6.69904 -2.18623 1.42604
vn -0.573254 0.81858 -0.0361454
v -6.64405 -2.14912 1.40483
vn -0.563021 0.825386 -0.0417622
v -8.85996 -3.71734 1.44841
vn -0.579414 0.814703 0.0232005
v -8.79347 -3.67083 1.45967
vn -0.297366 0.416102 0.859321
v -7.79711 -2.96352 1.45152
vn -0.578141 0.815546 0.0252289
v -8.83841 -3.74774 1.45056
vn 0.571351 -0.809087 0.137611
v -7.99615 -3.15052 1.45375
vn 0.572662 -0.807742 0.140039
v -8.77326 -3.69933 1.46169
vn 0.306209 -0.435164 0.846681
v -6.65733 -2.20714 1.38677
vn 0.581244 -0.811609 0.0587099
v -6.62215 -2.18001 1.40701
vn 0.591412 -0.803022 0.0734004
v -6.67679 -2.21761 1.42826
vn 0.581227 -0.809895 0.0790228
v -6.56575 -2.16694 0.760919
vn 0.815803 0.57833 -0.000264431
v -6.60386 -2.12557 1.37464
vn 0.574035 0.818696 0.0148754
v -6.58461 -2.15273 1.37656
vn 0.971837 0.229107 0.0551558
v -6.70945 -2.2814 0.173617
vn -0.577183 0.814571 -0.0577444
v -6.65367 -2.20069 0.759598
vn -0.573568 0.81713 -0.0575979
v -8.94734 -3.78194 1.40557
vn -0.592462 0.804516 -0.0417511
v -8.89411 -3.74234 1.42675
vn -0.582649 0.81192 -0.0361408
v -8.92544 -3.81284 1.40776
vn 0.561971 -0.823893 0.0734115
v -8.90882 -3.79806 1.43953
vn 0.553784 -0.8233 0.124503
v -6.68647 -2.31382 0.17591
vn 0.57755 -0.814332 0.0574506
v -6.72532 -2.25848 1.34789
vn 0.57754 -0.814318 0.057744
v -6.56312 -2.21161 0.101902
vn 0.683719 0.44374 -0.57933
v -6.54384 -2.2108 0.146782
vn 0.974069 0.225927 -0.0121355
v -8.92231 -3.85765 0.104729
vn -0.803878 0.504007 -0.315844
v -8.88514 -3.83209 0.0833996
vn -0.593586 0.795084 -0.124486
v -8.81435 -3.78232 0.072321
vn -0.574069 0.80709 -0.138024
v -8.74711 -3.73687 0.0611464
vn -0.238633 0.332442 -0.912434
v -7.73794 -3.04762 0.0585247
vn 0.0330957 -0.047142 -0.99834
v -8.7269 -3.76537 0.0631623
vn 0.360125 -0.511964 -0.779874
v -8.7928 -3.81272 0.0744706
vn 0.576668 -0.816661 -0.0227777
v -8.86394 -3.862 0.0855148
vn 0.55823 -0.829631 -0.00958589
v -8.90178 -3.88661 0.106777
vn 0.330451 -0.932868 -0.143388
v -8.91573 -3.8794 0.102665
vn -0.645324 -0.49843 -0.578899
v -6.6179 -2.22482 0.0826645
vn -0.553785 0.8233 -0.124499
v -8.8014 -3.76441 0.174296
vn -0.577574 0.814294 -0.0577441
v -8.98288 -3.81208 1.37541
vn -0.96256 -0.270632 0.0153746
v -8.87305 -3.82219 0.762592
vn 0.573569 -0.81713 0.0575978
v -6.63261 -2.28055 0.0954387
vn 0.582649 -0.81192 0.0361391
v -6.62494 -2.13627 1.41541
vn -0.227119 0.95029 0.212993
v -6.66278 -2.16088 1.43667
vn -0.558229 0.829632 0.00958755
v -6.73392 -2.21017 1.44772
vn -0.576926 0.816467 0.0232047
v -6.79982 -2.25751 1.45903
vn -0.29382 0.41862 0.859318
v -7.78454 -2.98125 1.46409
vn -0.0330951 0.0471411 0.99834
v -6.77961 -2.28602 1.46104
vn 0.338589 -0.473836 0.812919
v -6.71237 -2.24056 1.44987
vn 0.57386 -0.807187 0.138323
v -6.64158 -2.19079 1.43879
vn 0.593587 -0.795082 0.124495
v -6.60441 -2.16524 1.41746
vn 0.757691 -0.60202 0.251946
v -6.60681 -2.14937 1.41994
vn 0.645326 0.498428 0.578899
v -6.7483 -2.22606 1.3456
vn -0.577193 0.814584 -0.0574502
v -8.93002 -3.76816 1.43741
vn -0.598032 0.801415 0.00960877
v -8.87186 -3.77372 1.42897
vn 0.571832 -0.816555 0.0790286
v -6.63095 -2.23275 0.761865
vn 0.581185 -0.811731 0.0575955
v -6.5631 -2.18364 0.144861
vn 0.576312 0.81545 -0.0539045
v -6.58147 -2.1982 0.10397
vn -0.209582 0.925309 -0.316035
v -7.77491 -2.99515 0.759943
vn -0.577383 0.814439 -0.0575973
v -8.96579 -3.79572 1.41617
vn -0.821416 0.528988 0.213185
v -8.88821 -3.78863 1.38749
vn 0.573433 -0.817146 0.0587127
v -6.6159 -2.26615 0.136954
vn 0.581317 -0.811714 0.0564804
f 1//1 2//2 3//3
f 1//1 3//3 4//4
f 1//1 4//4 5//5
f 1//1 5//5 6//6
f 1//1 6//6 2//2
f 7//7 8//8 9//9
f 10//10 11//11 12//12
f 13//13 14//14 15//15
f 16//16 17//17 18//18
f 19//19 20//20 21//21
f 22//22 23//23 24//24
f 22//22 24//24 25//25
f 22//22 25//25 26//26
f 22//22 26//26 27//27
f 22//22 27//27 23//23
f 28//28 29//29 30//30
f 31//31 32//32 33//33
f 34//34 35//35 36//36
f 37//37 38//38 39//39
f 40//40 41//41 42//42
f 13//13 43//43 44//44
f 10//10 45//45 46//46
f 7//7 47//47 48//48
f 19//19 49//49 50//50
f 16//16 51//51 52//52
f 10//10 53//53 45//45
f 13//13 54//54 43//43
f 16//16 55//55 51//51
f 19//19 56//56 49//49
f 7//7 57//57 47//47
f 40//40 58//58 59//59
f 28//28 60//60 61//61
f 31//31 62//62 63//63
f 34//34 64//64 65//65
f 37//37 66//66 67//67
f 40//40 68//68 58//58
f 28//28 69//69 60//60
f 31//31 70//70 62//62
f 34//34 71//71 64//64
f 37//37 72//72 66//66
f 10//10 46//46 11//11
f 7//7 48//48 8//8
f 19//19 50//50 20//20
f 16//16 52//52 17//17
f 13//13 44//44 14//14
f 40//40 42//42 68//68
f 28//28 30//30 69//69
f 31//31 33//33 70//70
f 34//34 36//36 71//71
f 37//37 39//39 72//72
f 28//28 61//61 29//29
f 31//31 63//63 32//32
f 34//34 65//65 35//35
f 37//37 67//67 38//38
f 40//40 59//59 41//41
f 10//10 12//12 53//53
f 13//13 15//15 54//54
f 16//16 18//18 55//55
f 19//19 21//21 56//56
f 7//7 9//9 57//57
f 73//73 74//74 75//75
f 76//76 77//77 78//78
f 79//79 80//80 81//81
f 82//82 83//83 84//84
f 85//85 86//86 87//87
f 88//88 89//89 90//90
f 91//91 92//92 93//93
f 94//94 95//95 96//96
f 97//97 98//98 99//99
f 100//100 101//101 102//102
f 103//103 104//104 105//105
f 106//106 107//107 108//108
f 109//109 110//110 111//111
f 112//112 113//113 114//114
f 115//115 116//116 117//117
f 88//88 118//118 119//119
f 91//91 120//120 121//121
f 94//94 122//122 123//123
f 97//97 124//124 125//125
f 100//100 126//126 127//127
f 128//128 129//129 2//2
f 130//130 131//131 3//3
f 132//132 133//133 4//4
f 134//134 135//135 5//5
f 136//136 137//137 6//6
f 76//76 138//138 8//8
f 73//73 139//139 11//11
f 85//85 140//140 14//14
f 82//82 141//141 17//17
f 79//79 142//142 20//20
f 143//143 144//144 23//23
f 145//145 146//146 24//24
f 147//147 148//148 25//25
f 149//149 150//150 26//26
f 151//151 152//152 27//27
f 103//103 153//153 29//29
f 106//106 154//154 32//32
f 109//109 155//155 35//35
f 112//112 156//156 38//38
f 115//115 157//157 41//41
f 73//73 75//75 43//43
f 76//76 78//78 45//45
f 79//79 81//81 47//47
f 82//82 84//84 49//49
f 85//85 87//87 51//51
f 88//88 90//90 53//53
f 91//91 93//93 54//54
f 94//94 96//96 55//55
f 97//97 99//99 56//56
f 100//100 102//102 57//57
f 103//103 105//105 58//58
f 106//106 108//108 60//60
f 109//109 111//111 62//62
f 112//112 114//114 64//64
f 115//115 117//117 66//66
f 88//88 119//119 68//68
f 91//91 121//121 69//69
f 94//94 123//123 70//70
f 97//97 125//125 71//71
f 100//100 127//127 72//72
f 130//130 74//74 46//46
f 132//132 77//77 48//48
f 134//134 80//80 50//50
f 136//136 83//83 52//52
f 128//128 86//86 44//44
f 158//158 89//89 42//42
f 159//159 92//92 30//30
f 160//160 95//95 33//33
f 161//161 98//98 36//36
f 162//162 101//101 39//39
f 145//145 104//104 61//61
f 147//147 107//107 63//63
f 149//149 110//110 65//65
f 151//151 113//113 67//67
f 143//143 116//116 59//59
f 159//159 118//118 12//12
f 160//160 120//120 15//15
f 161//161 122//122 18//18
f 162//162 124//124 21//21
f 158//158 126//126 9//9
f 130//130 129//129 74//74
f 132//132 131//131 77//77
f 134//134 133//133 80//80
f 136//136 135//135 83//83
f 128//128 137//137 86//86
f 158//158 138//138 89//89
f 159//159 139//139 92//92
f 160//160 140//140 95//95
f 161//161 141//141 98//98
f 162//162 142//142 101//101
f 145//145 144//144 104//104
f 147//147 146//146 107//107
f 149//149 148//148 110//110
f 151//151 150//150 113//113
f 143//143 152//152 116//116
f 159//159 153//153 118//118
f 160//160 154//154 120//120
f 161//161 155//155 122//122
f 162//162 156//156 124//124
f 158//158 157//157 126//126
f 130//130 3//3 129//129
f 132//132 4//4 131//131
f 134//134 5//5 133//133
f 136//136 6//6 135//135
f 128//128 2//2 137//137
f 158//158 9//9 138//138
f 159//159 12//12 139//139
f 160//160 15//15 140//140
f 161//161 18//18 141//141
f 162//162 21//21 142//142
f 145//145 24//24 144//144
f 147//147 25//25 146//146
f 149//149 26//26 148//148
f 151//151 27//27 150//150
f 143//143 23//23 152//152
f 159//159 30//30 153//153
f 160//160 33//33 154//154
f 161//161 36//36 155//155
f 162//162 39//39 156//156
f 158//158 42//42 157//157
f 128//128 44//44 75//75
f 130//130 46//46 78//78
f 132//132 48//48 81//81
f 134//134 50//50 84//84
f 136//136 52//52 87//87
f 76//76 45//45 90//90
f 73//73 43//43 93//93
f 85//85 51//51 96//96
f 82//82 49//49 99//99
f 79//79 47//47 102//102
f 143//143 59//59 105//105
f 145//145 61//61 108//108
f 147//147 63//63 111//111
f 149//149 65//65 114//114
f 151//151 67//67 117//117
f 103//103 58//58 119//119
f 106//106 60//60 121//121
f 109//109 62//62 123//123
f 112//112 64//64 125//125
f 115//115 66//66 127//127
f 73//73 11//11 74//74
f 76//76 8//8 77//77
f 79//79 20//20 80//80
f 82//82 17//17 83//83
f 85//85 14//14 86//86
f 88//88 68//68 89//89
f 91//91 69//69 92//92
f 94//94 70//70 95//95
f 97//97 71//71 98//98
f 100//100 72//72 101//101
f 103//103 29//29 104//104
f 106//106 32//32 107//107
f 109//109 35//35 110//110
f 112//112 38//38 113//113
f 115//115 41//41 116//116
f 88//88 53//53 118//118
f 91//91 54//54 120//120
f 94//94 55//55 122//122
f 97//97 56//56 124//124
f 100//100 57//57 126//126
f 128//128 75//75 129//129
f 130//130 78//78 131//131
f 132//132 81//81 133//133
f 134//134 84//84 135//135
f 136//136 87//87 137//137
f 76//76 90//90 138//138
f 73//73 93//93 139//139
f 85//85 96//96 140//140
f 82//82 99//99 141//141
f 79//79 102//102 142//142
f 143//143 105//105 144//144
f 145//145 108//108 146//146
f 147//147 111//111 148//148
f 149//149 114//114 150//150
f 151//151 117//117 152//152
f 103//103 119//119 153//153
f 106//106 121//121 154//154
f 109//109 123//123 155//155
f 112//112 125//125 156//156
f 115//115 127//127 157//157
f 129//129 3//3 2//2
f 131//131 4//4 3//3
f 133//133 5//5 4//4
f 135//135 6//6 5//5
f 137//137 2//2 6//6
f 138//138 9//9 8//8
f 139//139 12//12 11//11
f 140//140 15//15 14//14
f 141//141 18//18 17//17
f 142//142 21//21 20//20
f 144//144 24//24 23//23
f 146//146 25//25 24//24
f 148//148 26//26 25//25
f 150//150 27//27 26//26
f 152//152 23//23 27//27
f 153//153 30//30 29//29
f 154//154 33//33 32//32
f 155//155 36//36 35//35
f 156//156 39//39 38//38
f 157//157 42//42 41//41
f 75//75 44//44 43//43
f 78//78 46//46 45//45
f 81//81 48//48 47//47
f 84//84 50//50 49//49
f 87//87 52//52 51//51
f 90//90 45//45 53//53
f 93//93 43//43 54//54
f 96//96 51//51 55//55
f 99//99 49//49 56//56
f 102//102 47//47 57//57
f 105//105 59//59 58//58
f 108//108 61//61 60//60
f 111//111 63//63 62//62
f 114//114 65//65 64//64
f 117//117 67//67 66//66
f 119//119 58//58 68//68
f 121//121 60//60 69//69
f 123//123 62//62 70//70
f 125//125 64//64 71//71
f 127//127 66//66 72//72
f 74//74 11//11 46//46
f 77//77 8//8 48//48
f 80//80 20//20 50//50
f 83//83 17//17 52//52
f 86//86 14//14 44//44
f 89//89 68//68 42//42
f 92//92 69//69 30//30
f 95//95 70//70 33//33
f 98//98 71//71 36//36
f 101//101 72//72 39//39
f 104//104 29//29 61//61
f 107//107 32//32 63//63
f 110//110 35//35 65//65
f 113//113 38//38 67//67
f 116//116 41//41 59//59
f 118//118 53//53 12//12
f 120//120 54//54 15//15
f 122//122 55//55 18//18
f 124//124 56//56 21//21
f 126//126 57//57 9//9
f 129//129 75//75 74//74
f 131//131 78//78 77//77
f 133//133 81//81 80//80
f 135//135 84//84 83//83
f 137//137 87//87 86//86
f 138//138 90//90 89//89
f 139//139 93//93 92//92
f 140//140 96//96 95//95
f 141//141 99//99 98//98
f 142//142 102//102 101//101
f 144//144 105//105 104//104
f 146//146 108//108 107//107
f 148//148 111//111 110//110
f 150//150 114//114 113//113
f 152//152 117//117 116//116
f 153//153 119//119 118//118
f 154//154 121//121 120//120
f 155//155 123//123 122//122
f 156//156 125//125 124//124
f 157//157 127//127 126//126
