# Created by Open3D 
# object name: part_086
# number of vertices: 162
# number of triangles: 320
v -11.3161 -6.10101 -0.045783
vn 0.808972 -0.57353 -0.128948
v -11.3105 -6.09454 -0.0255529
vn 0.960774 -0.276054 -0.0266075
v -11.3179 -6.10615 -0.0249138
vn 0.740269 -0.67146 0.0338038
v -11.3281 -6.1139 -0.0453797
vn 0.621738 -0.77302 -0.126024
v -11.3215 -6.10335 -0.0595785
vn 0.691027 -0.630582 -0.353339
v -11.3139 -6.09186 -0.0585886
vn 0.940121 -0.255655 -0.225419
v -11.7501 -6.43901 -0.0289414
vn 0.352103 -0.92933 -0.111221
v -11.7437 -6.43773 -0.00839231
vn 0.471566 -0.88072 0.0442542
v -11.7568 -6.44205 -0.00823754
vn 0.0318915 -0.999447 0.00943965
v -11.5371 -6.26363 -0.0131146
vn 0.121899 -0.10736 0.986719
v -11.3373 -6.10295 -0.0204273
vn 0.114103 -0.0953161 0.988886
v -11.5453 -6.25306 -0.011181
vn 0.102415 -0.0821111 0.991347
v -11.4387 -5.91906 0.00384582
vn 0.234955 0.0262486 0.971652
v -11.436 -5.91677 0.0025585
vn 0.782893 0.562295 0.266275
v -11.5588 -5.76298 0.0283764
vn 0.319843 0.104842 0.941652
v -11.4425 -5.91604 -0.0333488
vn 0.0358071 0.184615 -0.982158
v -11.3321 -6.06785 -0.0574305
vn -0.04387 0.123245 -0.991406
v -11.5616 -5.7709 -0.00997755
vn -0.0451007 0.124836 -0.991152
v -11.4963 -6.22555 -0.0538828
vn -0.080133 0.0532996 -0.995358
v -11.7302 -6.4153 -0.0450444
vn -0.0509413 0.0145343 -0.998596
v -11.7458 -6.41479 -0.0438147
vn -0.0897721 0.0641596 -0.993894
v -12.0211 -6.0882 0.0271199
vn -0.808972 0.573531 0.128948
v -12.0226 -6.0979 0.0467576
vn -0.941983 0.261137 0.21089
v -12.0151 -6.08642 0.0477475
vn -0.70746 0.64536 0.288117
v -12.009 -6.07534 0.0271497
vn -0.621738 0.77302 0.126024
v -12.0186 -6.08361 0.0130828
vn -0.737484 0.667541 -0.102499
v -12.026 -6.09522 0.0137219
vn -0.961941 0.273023 0.0113097
v -11.7954 -5.9293 0.0403123
vn 0.0801275 -0.0532925 0.995359
v -11.9952 -6.08998 0.0476797
vn 0.0880065 -0.0654037 0.99397
v -11.7872 -5.93991 0.0388618
vn 0.0997348 -0.0786414 0.991901
v -11.5871 -5.7502 0.0102783
vn -0.352105 0.929329 0.111222
v -11.5893 -5.75485 0.0312263
vn -0.438751 0.854624 0.277696
v -11.5764 -5.75039 0.0294422
vn -0.0130952 0.98451 0.174841
v -11.7546 -5.89122 -0.000455938
vn -0.121894 0.107353 -0.98672
v -11.6103 -5.77136 -0.00507323
vn -0.151148 0.146701 -0.977565
v -11.5947 -5.77181 -0.00709991
vn -0.112083 0.0970802 -0.988945
v -11.8979 -6.27071 -0.0156768
vn -0.234955 -0.0262486 -0.971652
v -12.0083 -6.11882 0.00735847
vn -0.157755 0.0371034 -0.986781
v -11.7789 -6.41577 -0.0400945
vn -0.156529 0.0355089 -0.987035
v -11.8941 -6.27372 0.0215178
vn -0.0358071 -0.184615 0.982158
v -11.897 -6.27582 0.0204491
vn -0.722653 -0.610195 0.324708
v -11.7741 -6.42974 -0.0037199
vn -0.126232 -0.258776 0.957654
v -11.3282 -6.07095 -0.0191895
vn 0.157755 -0.0371034 0.986781
v -11.318 -6.07457 -0.0214167
vn 0.327662 0.0947077 0.940036
v -11.7263 -6.4184 -0.00675778
vn 0.150811 -0.14615 0.977699
v -11.3408 -6.1182 -0.0217162
vn 0.15198 -0.145223 0.977656
v -11.7472 -6.43492 -0.0430573
vn 0.425293 -0.837528 -0.343034
v -11.7347 -6.43049 -0.0296049
vn 0.591119 -0.796864 -0.124843
v -11.3413 -6.09978 -0.0595107
vn -0.0876685 0.0654782 -0.993995
v -11.3447 -6.11509 -0.060003
vn -0.0490022 0.0144859 -0.998694
v -11.4395 -5.91394 -0.0322801
vn 0.678109 0.593227 -0.433877
v -11.3217 -6.07162 -0.057904
vn 0.134045 0.24864 -0.959276
v -11.7418 -6.41796 -0.0047311
vn 0.11224 -0.0967705 0.988958
v -11.5577 -5.774 0.0282635
vn 0.156529 -0.0355089 0.987035
v -11.5625 -5.76003 -0.00811111
vn 0.126232 0.258775 -0.957654
v -11.5039 -6.21452 -0.0524536
vn -0.0997341 0.0786404 -0.991902
v -11.7601 -6.43937 -0.0412733
vn 0.00756338 -0.981903 -0.189231
v -12.0044 -6.12192 0.0455995
vn 0.04387 -0.123245 0.991406
v -12.0148 -6.11815 0.046073
vn -0.134045 -0.24864 0.959276
v -11.6064 -5.77446 0.0332134
vn 0.0506374 -0.0140481 0.998618
v -11.9918 -6.07467 0.048172
vn 0.0494617 -0.0149654 0.998664
v -11.5929 -5.75204 -0.0034387
vn -0.471765 0.874473 -0.112844
v -11.6025 -5.75875 0.0113749
vn -0.59112 0.796864 0.124843
v -11.9992 -6.08682 0.00859632
vn -0.113878 0.095361 -0.988908
v -11.9957 -6.07156 0.00988521
vn -0.15159 0.144812 -0.977778
v -11.9006 -6.27299 -0.0143895
vn -0.760873 -0.527427 -0.378011
v -12.0185 -6.11519 0.00958567
vn -0.327662 -0.0947077 -0.940036
v -11.775 -6.41887 -0.00185346
vn 0.0451007 -0.124836 0.991152
v -11.5907 -5.77497 0.0319837
vn 0.0898709 -0.0639514 0.993898
v -11.5798 -5.74772 -0.00359347
vn -0.0293736 0.999259 -0.0248823
v -11.7459 -5.90136 -0.00241074
vn -0.102416 0.0821121 -0.991347
v -11.7778 -6.42678 -0.0402074
vn -0.319843 -0.104842 -0.941652
v -11.3279 -6.08681 -0.0202087
vn 0.121988 -0.0683972 0.990172
v -11.3233 -6.10002 -0.0220679
vn 0.163713 -0.114693 0.979818
v -11.317 -6.08645 -0.0219135
vn 0.20091 -0.0632839 0.977564
v -11.7373 -6.43116 -0.00731639
vn 0.239925 -0.273731 0.931401
v -11.7224 -6.42394 -0.00942072
vn 0.611832 -0.78996 0.0403113
v -11.5309 -6.2718 -0.0153485
vn 0.249125 -0.273601 0.929021
v -11.7411 -6.42816 -0.0443252
vn 0.0452779 -0.117838 -0.992
v -11.4919 -6.23551 -0.0542015
vn 0.0533556 -0.117921 -0.991589
v -11.726 -6.42112 -0.0441249
vn 0.558364 -0.741906 -0.371221
v -11.3319 -6.08367 -0.0590418
vn -0.0801007 0.0923108 -0.992503
v -11.3208 -6.0834 -0.0595258
vn -0.000183478 0.0966332 -0.99532
v -11.3272 -6.09692 -0.0602782
vn -0.0378974 0.045629 -0.998239
v -11.4372 -5.91436 -0.0185385
vn 0.788601 0.614144 -0.0305893
v -11.3158 -6.07287 -0.0232386
vn 0.807315 0.588961 0.0369762
v -11.3192 -6.07019 -0.0563124
vn 0.791215 0.600805 -0.11407
v -11.7597 -6.42312 -0.00345108
vn 0.0843007 -0.0977477 0.991634
v -11.7628 -6.43368 -0.00461218
vn 0.0594969 -0.173408 0.983051
v -11.7482 -6.43093 -0.00557944
vn 0.118482 -0.149937 0.981571
v -11.5728 -5.76979 0.0304534
vn 0.117788 -0.062961 0.991041
v -11.5786 -5.79015 0.0297143
vn 0.101741 -0.0792844 0.991647
v -11.4493 -5.92746 0.00517793
vn 0.119427 -0.0660413 0.990644
v -11.572 -5.75068 -0.00576231
vn 0.339035 0.78931 -0.511903
v -11.5701 -5.75009 0.00837792
vn 0.475995 0.879154 0.0227495
v -11.5602 -5.75825 -0.00646265
vn 0.763883 0.636183 -0.108417
v -11.6247 -6.05779 -0.0275159
vn -0.101075 0.080376 -0.991627
v -11.5826 -5.78696 -0.00975235
vn -0.10016 0.0816648 -0.991614
v -11.353 -6.08424 -0.0572593
vn -0.0996041 0.0809451 -0.991729
v -11.7681 -6.43623 -0.0413388
vn -0.447558 -0.703009 -0.552693
v -11.7667 -6.43063 -0.0422243
vn -0.141592 -0.013499 -0.989833
v -11.7569 -6.43603 -0.0430505
vn -0.0687981 -0.154058 -0.985664
v -12.0047 -6.1061 0.0472108
vn 0.0801007 -0.0923108 0.992503
v -12.0094 -6.09284 0.0484472
vn 0.0378974 -0.045629 0.998239
v -12.0157 -6.10636 0.0476948
vn 0.000183478 -0.0966332 0.99532
v -11.5954 -5.7616 0.0324942
vn -0.0438685 0.117825 0.992065
v -11.6106 -5.76864 0.0322939
vn -0.578414 0.763387 0.287537
v -11.8019 -5.92098 0.0407126
vn -0.0533556 0.117921 0.991589
v -11.5992 -5.7586 -0.00451462
vn -0.237977 0.273759 -0.931892
v -11.763 -5.8847 0.00185978
vn -0.249125 0.273601 -0.929021
v -11.6141 -5.76583 -0.00241029
vn -0.610601 0.785627 -0.0997826
v -12.0086 -6.10295 0.00837767
vn -0.121988 0.0683972 -0.990172
v -12.0196 -6.10331 0.0100825
vn -0.20091 0.0632839 -0.977564
v -12.0133 -6.08975 0.0102369
vn -0.163713 0.114693 -0.979818
v -11.9001 -6.27481 -0.000578178
vn -0.788601 -0.614144 0.0305893
v -12.0173 -6.11957 0.0444814
vn -0.792979 -0.600363 0.103673
v -12.0207 -6.11689 0.0114076
vn -0.807676 -0.587714 -0.0474502
v -11.7539 -6.40281 -0.00207866
vn 0.100409 -0.0814681 0.991605
v -11.8833 -6.26546 0.0220198
vn 0.0826652 -0.09467 0.992071
v -11.5699 -5.75913 0.0303933
vn 0.141592 0.013499 0.989833
v -11.5845 -5.76193 0.0319586
vn 0.0831371 -0.0103922 0.996484
v -11.5737 -5.75608 -0.00721883
vn -0.0594998 0.173401 -0.983052
v -11.5834 -5.75078 -0.00519564
vn -0.127692 0.310289 -0.942028
v -11.7579 -6.39961 -0.0415453
vn -0.101577 0.0794118 -0.991653
v -11.9876 -6.10232 0.00596173
vn -0.102131 0.0801276 -0.991539
v -11.7672 -6.43909 -0.0273776
vn -0.475995 -0.879154 -0.0227505
v -11.7797 -6.42883 -0.0384419
vn -0.780345 -0.623089 -0.0531088
v -11.3114 -6.0862 -0.0236525
vn 0.925208 0.18315 0.332333
v -11.3143 -6.09719 -0.0236663
vn 0.314923 -0.164505 0.934752
v -11.3258 -6.11066 -0.0232863
vn 0.251617 -0.264642 0.930942
v -11.3365 -6.12339 -0.0243962
vn 0.617972 -0.785179 0.0400656
v -11.5309 -6.27285 -0.0380459
vn 0.606543 -0.78509 -0.125457
v -11.34 -6.12058 -0.0591006
vn 0.571701 -0.744707 -0.34434
v -11.3295 -6.10766 -0.0602952
vn 0.0560224 -0.106781 -0.992703
v -11.318 -6.09424 -0.0600811
vn 0.118437 -0.00826621 -0.992927
v -11.315 -6.08334 -0.0589223
vn 0.763399 0.240017 -0.599677
v -11.3118 -6.08443 -0.0450495
vn 0.966518 0.24423 -0.0787126
v -11.7532 -6.43898 -0.00663536
vn 0.127687 -0.310292 0.942027
v -11.3489 -6.08744 -0.0177927
vn 0.102294 -0.0800005 0.991532
v -11.5568 -5.76093 0.0266109
vn 0.779845 0.624517 0.0426637
v -11.4533 -5.9243 -0.0338509
vn -0.0826652 0.09467 -0.992071
v -11.7521 -6.42783 -0.0437896
vn -0.0831371 0.0103922 -0.996484
v -12.0215 -6.10642 0.0470913
vn -0.842662 -0.248762 0.477533
v -12.0185 -6.09552 0.0482501
vn -0.118437 0.00826621 0.992927
v -12.007 -6.0821 0.0484642
vn -0.0555552 0.108726 0.992518
v -11.9965 -6.06919 0.0472696
vn -0.584555 0.758605 0.287774
v -11.8064 -5.91632 0.0189293
vn -0.606543 0.78509 0.125457
v -12 -6.06637 0.0125652
vn -0.615549 0.777572 -0.128383
v -12.0108 -6.0791 0.0114552
vn -0.251248 0.265974 -0.930662
v -12.0222 -6.09257 0.0118352
vn -0.314923 0.164505 -0.934752
v -12.0251 -6.10357 0.0118215
vn -0.871892 -0.153748 -0.464937
v -12.0255 -6.10475 0.0260499
vn -0.966518 -0.24423 0.0787126
v -11.9836 -6.10552 0.0454283
vn 0.0998559 -0.0807517 0.99172
v -11.5796 -5.75373 0.0312195
vn 0.0687981 0.154058 0.985664
v -11.5884 -5.75883 -0.00625157
vn -0.118482 0.149937 -0.981571
v -11.8873 -6.2623 -0.0170089
vn -0.119427 0.0660413 -0.990644
v -11.7763 -6.43152 -0.00536835
vn -0.76551 -0.635919 0.0979905
v -11.7645 -6.43909 -0.00606893
vn -0.386902 -0.838709 0.383242
v -11.6662 -6.09649 0.0139169
vn 0.101075 -0.0803761 0.991627
v -11.5684 -5.75354 0.0295077
vn 0.469461 0.773052 0.42661
v -11.5768 -5.76664 -0.00837993
vn -0.0843007 0.0977477 -0.991634
v -11.7637 -6.41998 -0.0422844
vn -0.117788 0.062961 -0.991041
f 1//1 2//2 3//3
f 1//1 3//3 4//4
f 1//1 4//4 5//5
f 1//1 5//5 6//6
f 1//1 6//6 2//2
f 7//7 8//8 9//9
f 10//10 11//11 12//12
f 13//13 14//14 15//15
f 16//16 17//17 18//18
f 19//19 20//20 21//21
f 22//22 23//23 24//24
f 22//22 24//24 25//25
f 22//22 25//25 26//26
f 22//22 26//26 27//27
f 22//22 27//27 23//23
f 28//28 29//29 30//30
f 31//31 32//32 33//33
f 34//34 35//35 36//36
f 37//37 38//38 39//39
f 40//40 41//41 42//42
f 13//13 43//43 44//44
f 10//10 45//45 46//46
f 7//7 47//47 48//48
f 19//19 49//49 50//50
f 16//16 51//51 52//52
f 10//10 53//53 45//45
f 13//13 54//54 43//43
f 16//16 55//55 51//51
f 19//19 56//56 49//49
f 7//7 57//57 47//47
f 40//40 58//58 59//59
f 28//28 60//60 61//61
f 31//31 62//62 63//63
f 34//34 64//64 65//65
f 37//37 66//66 67//67
f 40//40 68//68 58//58
f 28//28 69//69 60//60
f 31//31 70//70 62//62
f 34//34 71//71 64//64
f 37//37 72//72 66//66
f 10//10 46//46 11//11
f 7//7 48//48 8//8
f 19//19 50//50 20//20
f 16//16 52//52 17//17
f 13//13 44//44 14//14
f 40//40 42//42 68//68
f 28//28 30//30 69//69
f 31//31 33//33 70//70
f 34//34 36//36 71//71
f 37//37 39//39 72//72
f 28//28 61//61 29//29
f 31//31 63//63 32//32
f 34//34 65//65 35//35
f 37//37 67//67 38//38
f 40//40 59//59 41//41
f 10//10 12//12 53//53
f 13//13 15//15 54//54
f 16//16 18//18 55//55
f 19//19 21//21 56//56
f 7//7 9//9 57//57
f 73//73 74//74 75//75
f 76//76 77//77 78//78
f 79//79 80//80 81//81
f 82//82 83//83 84//84
f 85//85 86//86 87//87
f 88//88 89//89 90//90
f 91//91 92//92 93//93
f 94//94 95//95 96//96
f 97//97 98//98 99//99
f 100//100 101//101 102//102
f 103//103 104//104 105//105
f 106//106 107//107 108//108
f 109//109 110//110 111//111
f 112//112 113//113 114//114
f 115//115 116//116 117//117
f 88//88 118//118 119//119
f 91//91 120//120 121//121
f 94//94 122//122 123//123
f 97//97 124//124 125//125
f 100//100 126//126 127//127
f 128//128 129//129 2//2
f 130//130 131//131 3//3
f 132//132 133//133 4//4
f 134//134 135//135 5//5
f 136//136 137//137 6//6
f 76//76 138//138 8//8
f 73//73 139//139 11//11
f 85//85 140//140 14//14
f 82//82 141//141 17//17
f 79//79 142//142 20//20
f 143//143 144//144 23//23
f 145//145 146//146 24//24
f 147//147 148//148 25//25
f 149//149 150//150 26//26
f 151//151 152//152 27//27
f 103//103 153//153 29//29
f 106//106 154//154 32//32
f 109//109 155//155 35//35
f 112//112 156//156 38//38
f 115//115 157//157 41//41
f 73//73 75//75 43//43
f 76//76 78//78 45//45
f 79//79 81//81 47//47
f 82//82 84//84 49//49
f 85//85 87//87 51//51
f 88//88 90//90 53//53
f 91//91 93//93 54//54
f 94//94 96//96 55//55
f 97//97 99//99 56//56
f 100//100 102//102 57//57
f 103//103 105//105 58//58
f 106//106 108//108 60//60
f 109//109 111//111 62//62
f 112//112 114//114 64//64
f 115//115 117//117 66//66
f 88//88 119//119 68//68
f 91//91 121//121 69//69
f 94//94 123//123 70//70
f 97//97 125//125 71//71
f 100//100 127//127 72//72
f 130//130 74//74 46//46
f 132//132 77//77 48//48
f 134//134 80//80 50//50
f 136//136 83//83 52//52
f 128//128 86//86 44//44
f 158//158 89//89 42//42
f 159//159 92//92 30//30
f 160//160 95//95 33//33
f 161//161 98//98 36//36
f 162//162 101//101 39//39
f 145//145 104//104 61//61
f 147//147 107//107 63//63
f 149//149 110//110 65//65
f 151//151 113//113 67//67
f 143//143 116//116 59//59
f 159//159 118//118 12//12
f 160//160 120//120 15//15
f 161//161 122//122 18//18
f 162//162 124//124 21//21
f 158//158 126//126 9//9
f 130//130 129//129 74//74
f 132//132 131//131 77//77
f 134//134 133//133 80//80
f 136//136 135//135 83//83
f 128//128 137//137 86//86
f 158//158 138//138 89//89
f 159//159 139//139 92//92
f 160//160 140//140 95//95
f 161//161 141//141 98//98
f 162//162 142//142 101//101
f 145//145 144//144 104//104
f 147//147 146//146 107//107
f 149//149 148//148 110//110
f 151//151 150//150 113//113
f 143//143 152//152 116//116
f 159//159 153//153 118//118
f 160//160 154//154 120//120
f 161//161 155//155 122//122
f 162//162 156//156 124//124
f 158//158 157//157 126//126
f 130//130 3//3 129//129
f 132//132 4//4 131//131
f 134//134 5//5 133//133
f 136//136 6//6 135//135
f 128//128 2//2 137//137
f 158//158 9//9 138//138
f 159//159 12//12 139//139
f 160//160 15//15 140//140
f 161//161 18//18 141//141
f 162//162 21//21 142//142
f 145//145 24//24 144//144
f 147//147 25//25 146//146
f 149//149 26//26 148//148
f 151//151 27//27 150//150
f 143//143 23//23 152//152
f 159//159 30//30 153//153
f 160//160 33//33 154//154
f 161//161 36//36 155//155
f 162//162 39//39 156//156
f 158//158 42//42 157//157
f 128//128 44//44 75//75
f 130//130 46//46 78//78
f 132//132 48//48 81//81
f 134//134 50//50 84//84
f 136//136 52//52 87//87
f 76//76 45//45 90//90
f 73//73 43//43 93//93
f 85//85 51//51 96//96
f 82//82 49//49 99//99
f 79//79 47//47 102//102
f 143//143 59//59 105//105
f 145//145 61//61 108//108
f 147//147 63//63 111//111
f 149//149 65//65 114//114
f 151//151 67//67 117//117
f 103//103 58//58 119//119
f 106//106 60//60 121//121
f 109//109 62//62 123//123
f 112//112 64//64 125//125
f 115//115 66//66 127//127
f 73//73 11//11 74//74
f 76//76 8//8 77//77
f 79//79 20//20 80//80
f 82//82 17//17 83//83
f 85//85 14//14 86//86
f 88//88 68//68 89//89
f 91//91 69//69 92//92
f 94//94 70//70 95//95
f 97//97 71//71 98//98
f 100//100 72//72 101//101
f 103//103 29//29 104//104
f 106//106 32//32 107//107
f 109//109 35//35 110//110
f 112//112 38//38 113//113
f 115//115 41//41 116//116
f 88//88 53//53 118//118
f 91//91 54//54 120//120
f 94//94 55//55 122//122
f 97//97 56//56 124//124
f 100//100 57//57 126//126
f 128//128 75//75 129//129
f 130//130 78//78 131//131
f 132//132 81//81 133//133
f 134//134 84//84 135//135
f 136//136 87//87 137//137
f 76//76 90//90 138//138
f 73//73 93//93 139//139
f 85//85 96//96 140//140
f 82//82 99//99 141//141
f 79//79 102//102 142//142
f 143//143 105//105 144//144
f 145//145 108//108 146//146
f 147//147 111//111 148//148
f 149//149 114//114 150//150
f 151//151 117//117 152//152
f 103//103 119//119 153//153
f 106//106 121//121 154//154
f 109//109 123//123 155//155
f 112//112 125//125 156//156
f 115//115 127//127 157//157
f 129//129 3//3 2//2
f 131//131 4//4 3//3
f 133//133 5//5 4//4
f 135//135 6//6 5//5
f 137//137 2//2 6//6
f 138//138 9//9 8//8
f 139//139 12//12 11//11
f 140//140 15//15 14//14
f 141//141 18//18 17//17
f 142//142 21//21 20//20
f 144//144 24//24 23//23
f 146//146 25//25 24//24
f 148//148 26//26 25//25
f 150//150 27//27 26//26
f 152//152 23//23 27//27
f 153//153 30//30 29//29
f 154//154 33//33 32//32
f 155//155 36//36 35//35
f 156//156 39//39 38//38
f 157//157 42//42 41//41
f 75//75 44//44 43//43
f 78//78 46//46 45//45
f 81//81 48//48 47//47
f 84//84 50//50 49//49
f 87//87 52//52 51//51
f 90//90 45//45 53//53
f 93//93 43//43 54//54
f 96//96 51//51 55//55
f 99//99 49//49 56//56
f 102//102 47//47 57//57
f 105//105 59//59 58//58
f 108//108 61//61 60//60
f 111//111 63//63 62//62
f 114//114 65//65 64//64
f 117//117 67//67 66//66
f 119//119 58//58 68//68
f 121//121 60//60 69//69
f 123//123 62//62 70//70
f 125//125 64//64 71//71
f 127//127 66//66 72//72
f 74//74 11//11 46//46
f 77//77 8//8 48//48
f 80//80 20//20 50//50
f 83//83 17//17 52//52
f 86//86 14//14 44//44
f 89//89 68//68 42//42
f 92//92 69//69 30//30
f 95//95 70//70 33//33
f 98//98 71//71 36//36
f 101//101 72//72 39//39
f 104//104 29//29 61//61
f 107//107 32//32 63//63
f 110//110 35//35 65//65
f 113//113 38//38 67//67
f 116//116 41//41 59//59
f 118//118 53//53 12//12
f 120//120 54//54 15//15
f 122//122 55//55 18//18
f 124//124 56//56 21//21
f 126//126 57//57 9//9
f 129//129 75//75 74//74
f 131//131 78//78 77//77
f 133//133 81//81 80//80
f 135//135 84//84 83//83
f 137//137 87//87 86//86
f 138//138 90//90 89//89
f 139//139 93//93 92//92
f 140//140 96//96 95//95
f 141//141 99//99 98//98
f 142//142 102//102 101//101
f 144//144 105//105 104//104
f 146//146 108//108 107//107
f 148//148 111//111 110//110
f 150//150 114//114 113//113
f 152//152 117//117 116//116
f 153//153 119//119 118//118
f 154//154 121//121 120//120
f 155//155 123//123 122//122
f 156//156 125//125 124//124
f 157//157 127//127 126//126
