# Created by Open3D 
# object name: part_068
# number of vertices: 162
# number of triangles: 320
v -10.5425 -4.92915 1.09624
vn 0.0711539 -0.0101805 -0.997413
v -10.5195 -4.93728 1.09871
vn 0.171102 0.00707516 -0.985228
v -10.5381 -4.95166 1.09728
vn 0.0865718 -0.0790203 -0.993107
v -10.568 -4.94769 1.09559
vn 0.0214677 -0.0457729 -0.998721
v -10.5584 -4.92325 1.09554
vn -0.00543559 0.0497699 -0.998746
v -10.5388 -4.91021 1.09705
vn 0.11593 0.0864025 -0.989492
v -11.3523 -5.50718 1.1095
vn -0.035129 -0.0860488 -0.995671
v -11.3324 -5.51869 1.1103
vn 0.0250577 -0.12293 -0.992099
v -11.352 -5.53156 1.11235
vn -0.083629 -0.174764 -0.981052
v -10.934 -5.23676 1.10812
vn 0.580166 -0.813604 -0.0381546
v -10.5567 -4.96735 1.10352
vn 0.581519 -0.813531 -0.0013246
v -10.934 -5.2367 1.1134
vn 0.580917 -0.812768 0.0440782
v -10.5113 -4.92873 1.18423
vn 0.656238 -0.753012 0.0482183
v -10.5067 -4.92401 1.18408
vn 0.994214 0.106647 0.01282
v -10.5123 -4.92427 1.26167
vn 0.70601 -0.705319 0.0638354
v -10.533 -4.89825 1.18236
vn -0.500072 0.864494 -0.0507749
v -10.5401 -4.90715 1.10865
vn -0.548111 0.834737 -0.0528084
v -10.5428 -4.90003 1.25629
vn -0.548206 0.834987 -0.047621
v -10.8733 -5.14508 1.10479
vn -0.576997 0.805139 -0.137207
v -11.3162 -5.46189 1.10973
vn -0.564613 0.784403 -0.256759
v -11.3343 -5.47403 1.11392
vn -0.579597 0.808697 -0.100386
v -11.3554 -5.49876 1.28394
vn -0.0711544 0.0101801 0.997413
v -11.3551 -5.5233 1.28347
vn -0.119249 -0.0796209 0.989667
v -11.3356 -5.51025 1.28497
vn -0.0109452 -0.0267734 0.999582
v -11.3297 -5.48057 1.28461
vn -0.0214676 0.045773 0.998721
v -11.3559 -5.48185 1.28324
vn -0.102902 0.101782 0.98947
v -11.3744 -5.49623 1.28181
vn -0.176416 -0.00178554 0.984314
v -10.937 -5.22873 1.27435
vn 0.576999 -0.805143 0.137171
v -11.3143 -5.49818 1.27896
vn 0.578617 -0.809373 0.100583
v -10.9368 -5.22918 1.2691
vn 0.580713 -0.812223 0.055369
v -10.5457 -4.92073 1.27067
vn 0.0351284 0.0860484 0.995671
v -10.5412 -4.94322 1.27196
vn 0.0505704 0.017134 0.998574
v -10.5226 -4.92902 1.26982
vn 0.135481 0.102225 0.985492
v -10.8763 -5.13705 1.27103
vn -0.580165 0.813603 0.0381875
v -10.6001 -4.94025 1.26886
vn -0.571152 0.804592 0.162531
v -10.5826 -4.92745 1.26463
vn -0.580311 0.814393 0.00167234
v -11.3827 -5.50478 1.19629
vn -0.656238 0.753012 -0.0482183
v -11.3763 -5.49502 1.26995
vn -0.612621 0.789004 -0.0465627
v -11.3736 -5.50215 1.1223
vn -0.612525 0.788755 -0.0517565
v -11.3609 -5.53525 1.19815
vn 0.500072 -0.864494 0.0507749
v -11.3668 -5.53804 1.19818
vn -0.423306 -0.905269 0.0360526
v -11.3603 -5.53913 1.12068
vn 0.439764 -0.89746 0.0342605
v -10.5177 -4.93849 1.11056
vn 0.612621 -0.789004 0.0465627
v -10.5095 -4.93175 1.10674
vn 0.706638 -0.706944 0.0298787
v -11.2938 -5.49326 1.11165
vn 0.571371 -0.804794 -0.160753
v -10.5746 -4.97987 1.09987
vn 0.572027 -0.804321 -0.160789
v -11.3527 -5.49028 1.10856
vn -0.0669843 0.0058472 -0.997737
v -11.3265 -5.4891 1.10802
vn 0.0146366 -0.0506527 -0.998609
v -10.5796 -4.93532 1.10156
vn -0.578455 0.809435 -0.101015
v -10.597 -4.9485 1.09795
vn -0.563532 0.784226 -0.259655
v -10.5271 -4.89547 1.18234
vn 0.266164 0.963026 -0.0416817
v -10.5308 -4.90186 1.10491
vn -0.439143 0.895824 -0.0682078
v -11.3114 -5.50606 1.11588
vn 0.580457 -0.81429 -0.00129522
v -10.5204 -4.93136 1.25821
vn 0.612525 -0.788755 0.0517565
v -10.5336 -4.89438 1.25984
vn -0.439764 0.89746 -0.0342605
v -10.8725 -5.14389 1.11003
vn -0.580713 0.812223 -0.0553675
v -11.3714 -5.50449 1.11069
vn -0.140814 -0.0968793 -0.985285
v -11.3539 -5.52635 1.27187
vn 0.548111 -0.834737 0.0528084
v -11.3631 -5.53165 1.27561
vn 0.439143 -0.895824 0.0682078
v -10.5777 -4.97162 1.27078
vn 0.564446 -0.784085 0.258092
v -11.2969 -5.48501 1.28257
vn 0.563794 -0.784567 0.258052
v -10.5615 -4.91482 1.27022
vn -0.0413567 0.145709 0.988463
v -10.5712 -4.93916 1.27218
vn -0.0146366 0.0506526 0.998609
v -11.3372 -5.46616 1.277
vn -0.581431 0.813595 0.00105438
v -11.3193 -5.45364 1.28065
vn -0.572132 0.804492 0.159554
v -11.3873 -5.50949 1.19643
vn -0.997939 0.0606418 -0.0209643
v -11.3845 -5.50175 1.27378
vn -0.706638 0.706944 -0.0298787
v -11.3512 -5.53348 1.12422
vn 0.548206 -0.834987 0.047621
v -10.5597 -4.95947 1.26659
vn 0.579679 -0.808611 0.1006
v -10.5419 -4.90195 1.26817
vn 0.0803319 0.181491 0.980106
v -10.8753 -5.13637 1.26573
vn -0.580917 0.812768 -0.0440905
v -11.3817 -5.50923 1.11885
vn -0.70601 0.705319 -0.0638354
v -10.5313 -4.9489 1.10581
vn 0.591662 -0.805158 0.0406986
v -10.5379 -4.95351 1.10067
vn 0.588295 -0.799848 -0.118963
v -10.5186 -4.93919 1.10301
vn 0.61804 -0.782478 -0.0758579
v -11.3185 -5.51016 1.1107
vn 0.495523 -0.711704 -0.49793
v -11.2952 -5.49222 1.10883
vn 0.0552951 -0.101727 -0.993274
v -10.9345 -5.2362 1.10397
vn 0.494989 -0.705064 -0.50781
v -11.3402 -5.47984 1.10884
vn -0.480813 0.654963 -0.58296
v -10.8766 -5.14883 1.1008
vn -0.47512 0.652009 -0.590885
v -11.3155 -5.46378 1.10709
vn -0.0415885 0.0338257 -0.998562
v -10.5541 -4.91708 1.10387
vn -0.569835 0.819657 -0.0587408
v -10.5406 -4.90837 1.10112
vn -0.533123 0.827867 -0.174402
v -10.5603 -4.9222 1.09875
vn -0.556704 0.80188 -0.216955
v -10.5174 -4.90556 1.183
vn 0.813822 0.580961 -0.0133386
v -10.5063 -4.92738 1.10649
vn 0.878375 0.465068 -0.110315
v -10.5257 -4.90028 1.10484
vn 0.718214 0.684843 -0.123121
v -11.337 -5.52404 1.11902
vn 0.570152 -0.820513 0.0410575
v -11.3504 -5.53299 1.11664
vn 0.537627 -0.839888 -0.0744615
v -11.3306 -5.51942 1.11366
vn 0.562775 -0.818077 -0.118468
v -10.5342 -4.94129 1.26345
vn 0.591346 -0.804301 0.058393
v -10.559 -4.95969 1.25897
vn 0.581341 -0.812068 0.0508838
v -10.5307 -4.94373 1.1846
vn 0.591264 -0.804955 0.0495514
v -10.5361 -4.89657 1.26515
vn 0.0156908 0.644404 0.764524
v -10.5257 -4.90654 1.26624
vn 0.341306 0.298537 0.891283
v -10.5285 -4.8928 1.25994
vn 0.71449 0.694774 0.0824152
v -10.8736 -5.13983 1.18787
vn -0.580824 0.812509 -0.0497269
v -10.5821 -4.92736 1.25699
vn -0.580164 0.81305 -0.0485723
v -10.5794 -4.93449 1.10917
vn -0.580122 0.812937 -0.0509052
v -11.3785 -5.50804 1.1136
vn -0.569158 0.129852 -0.81191
v -11.3724 -5.50218 1.11475
vn -0.613533 0.770473 -0.173059
v -11.3655 -5.49821 1.11067
vn -0.551363 0.658241 -0.51256
v -11.3399 -5.51643 1.27665
vn 0.569835 -0.819657 0.0587408
v -11.3337 -5.5113 1.28176
vn 0.556704 -0.80188 0.216955
v -11.3533 -5.52514 1.27939
vn 0.533123 -0.827867 0.174402
v -10.5538 -4.95367 1.27167
vn 0.481804 -0.655467 0.581573
v -10.5784 -4.96973 1.27342
vn 0.0206523 -0.00451504 0.999777
v -10.9377 -5.22778 1.27841
vn 0.47512 -0.652009 0.590885
v -10.5755 -4.92335 1.26982
vn -0.495626 0.713103 0.495821
v -10.8797 -5.14041 1.27524
vn -0.494989 0.705064 0.50781
v -10.5987 -4.94129 1.27168
vn -0.0691886 0.121184 0.990216
v -11.3626 -5.48461 1.2747
vn -0.591662 0.805158 -0.0406986
v -11.3754 -5.49432 1.27751
vn -0.61804 0.782478 0.0758579
v -11.3561 -5.47999 1.27985
vn -0.588295 0.799848 0.118963
v -11.3809 -5.52198 1.19715
vn -0.813822 -0.580961 0.0133386
v -11.3683 -5.53322 1.27568
vn -0.731038 -0.671171 0.122932
v -11.3877 -5.50612 1.27402
vn -0.887122 -0.448562 0.108664
v -11.3118 -5.50615 1.12353
vn 0.580307 -0.812949 0.0485701
v -11.3404 -5.52176 1.19787
vn 0.570283 -0.819932 0.049893
v -10.5215 -4.93133 1.26576
vn 0.613533 -0.770473 0.173059
v -10.5409 -4.9454 1.26877
vn 0.58223 -0.783654 0.216552
v -10.5435 -4.90051 1.26388
vn -0.537627 0.839888 0.0744615
v -10.5498 -4.90546 1.26802
vn -0.471518 0.772674 0.425024
v -11.3349 -5.47381 1.12155
vn -0.581247 0.812135 -0.0508795
v -11.3376 -5.46668 1.26937
vn -0.581289 0.812247 -0.0485582
v -11.3724 -5.52109 1.11392
vn -0.341306 -0.298537 -0.891283
v -11.3848 -5.51361 1.11892
vn -0.883412 -0.458473 -0.0968778
v -10.5124 -4.93345 1.10151
vn 0.551227 -0.0970892 -0.828687
v -10.5254 -4.94354 1.09907
vn 0.568336 -0.703562 -0.426608
v -10.5507 -4.96205 1.09811
vn 0.501306 -0.70757 -0.498033
v -10.5752 -4.97824 1.09703
vn 0.0566823 -0.100739 -0.993297
v -10.9475 -5.21805 1.10144
vn 0.018052 -0.0482129 -0.998674
v -10.5955 -4.9498 1.09529
vn -0.0332283 0.0251426 -0.999131
v -10.5723 -4.93173 1.09626
vn -0.476162 0.66115 -0.579785
v -10.5467 -4.9137 1.09725
vn -0.454543 0.727334 -0.514175
v -10.5331 -4.90455 1.09974
vn 0.0443791 0.567802 -0.821968
v -10.5227 -4.91457 1.1
vn 0.373756 0.211923 -0.902992
v -11.3442 -5.52805 1.11249
vn 0.471518 -0.772674 -0.425024
v -10.5563 -4.96683 1.11115
vn 0.581383 -0.81218 0.0485509
v -10.5091 -4.91989 1.2616
vn 0.874639 0.475049 0.0966207
v -10.5535 -4.91175 1.18264
vn -0.570283 0.819932 -0.049893
v -11.353 -5.48811 1.11174
vn -0.58223 0.783654 -0.216552
v -11.3608 -5.52895 1.28077
vn -0.135539 -0.484393 0.864287
v -11.3473 -5.51981 1.28327
vn 0.454543 -0.727334 0.514175
v -11.3216 -5.50178 1.28426
vn 0.475985 -0.659553 0.581746
v -11.2984 -5.4837 1.28522
vn 0.0192659 -0.00550388 0.999799
v -10.9507 -5.20949 1.27871
vn -0.0180519 0.0482129 0.998674
v -11.3187 -5.45527 1.28348
vn -0.077508 0.129757 0.988512
v -11.3433 -5.47146 1.2824
vn -0.500367 0.707204 0.499495
v -11.3686 -5.48997 1.28144
vn -0.568336 0.703562 0.426608
v -11.3815 -5.50005 1.279
vn -0.597851 0.206428 0.774572
v -11.3754 -5.51307 1.28016
vn -0.373756 -0.211923 0.902992
v -11.3145 -5.49901 1.27135
vn 0.580265 -0.812836 0.0509029
v -10.5284 -4.93529 1.26985
vn 0.551363 -0.658241 0.51256
v -10.5633 -4.91409 1.26686
vn -0.562775 0.818077 0.118468
v -11.3633 -5.48978 1.19591
vn -0.591264 0.804955 -0.0495514
v -11.3655 -5.54071 1.12057
vn -0.72729 -0.68117 -0.0840045
v -11.3578 -5.53694 1.11537
vn -0.105126 -0.56561 -0.817945
v -10.9354 -5.233 1.19125
vn 0.580824 -0.812509 0.0497271
v -10.5154 -4.92547 1.26692
vn 0.520791 -0.0158697 0.853536
v -10.5569 -4.90947 1.2615
vn -0.570152 0.820513 -0.0410575
v -11.3598 -5.49222 1.11707
vn -0.591346 0.804301 -0.058393
f 1//1 2//2 3//3
f 1//1 3//3 4//4
f 1//1 4//4 5//5
f 1//1 5//5 6//6
f 1//1 6//6 2//2
f 7//7 8//8 9//9
f 10//10 11//11 12//12
f 13//13 14//14 15//15
f 16//16 17//17 18//18
f 19//19 20//20 21//21
f 22//22 23//23 24//24
f 22//22 24//24 25//25
f 22//22 25//25 26//26
f 22//22 26//26 27//27
f 22//22 27//27 23//23
f 28//28 29//29 30//30
f 31//31 32//32 33//33
f 34//34 35//35 36//36
f 37//37 38//38 39//39
f 40//40 41//41 42//42
f 13//13 43//43 44//44
f 10//10 45//45 46//46
f 7//7 47//47 48//48
f 19//19 49//49 50//50
f 16//16 51//51 52//52
f 10//10 53//53 45//45
f 13//13 54//54 43//43
f 16//16 55//55 51//51
f 19//19 56//56 49//49
f 7//7 57//57 47//47
f 40//40 58//58 59//59
f 28//28 60//60 61//61
f 31//31 62//62 63//63
f 34//34 64//64 65//65
f 37//37 66//66 67//67
f 40//40 68//68 58//58
f 28//28 69//69 60//60
f 31//31 70//70 62//62
f 34//34 71//71 64//64
f 37//37 72//72 66//66
f 10//10 46//46 11//11
f 7//7 48//48 8//8
f 19//19 50//50 20//20
f 16//16 52//52 17//17
f 13//13 44//44 14//14
f 40//40 42//42 68//68
f 28//28 30//30 69//69
f 31//31 33//33 70//70
f 34//34 36//36 71//71
f 37//37 39//39 72//72
f 28//28 61//61 29//29
f 31//31 63//63 32//32
f 34//34 65//65 35//35
f 37//37 67//67 38//38
f 40//40 59//59 41//41
f 10//10 12//12 53//53
f 13//13 15//15 54//54
f 16//16 18//18 55//55
f 19//19 21//21 56//56
f 7//7 9//9 57//57
f 73//73 74//74 75//75
f 76//76 77//77 78//78
f 79//79 80//80 81//81
f 82//82 83//83 84//84
f 85//85 86//86 87//87
f 88//88 89//89 90//90
f 91//91 92//92 93//93
f 94//94 95//95 96//96
f 97//97 98//98 99//99
f 100//100 101//101 102//102
f 103//103 104//104 105//105
f 106//106 107//107 108//108
f 109//109 110//110 111//111
f 112//112 113//113 114//114
f 115//115 116//116 117//117
f 88//88 118//118 119//119
f 91//91 120//120 121//121
f 94//94 122//122 123//123
f 97//97 124//124 125//125
f 100//100 126//126 127//127
f 128//128 129//129 2//2
f 130//130 131//131 3//3
f 132//132 133//133 4//4
f 134//134 135//135 5//5
f 136//136 137//137 6//6
f 76//76 138//138 8//8
f 73//73 139//139 11//11
f 85//85 140//140 14//14
f 82//82 141//141 17//17
f 79//79 142//142 20//20
f 143//143 144//144 23//23
f 145//145 146//146 24//24
f 147//147 148//148 25//25
f 149//149 150//150 26//26
f 151//151 152//152 27//27
f 103//103 153//153 29//29
f 106//106 154//154 32//32
f 109//109 155//155 35//35
f 112//112 156//156 38//38
f 115//115 157//157 41//41
f 73//73 75//75 43//43
f 76//76 78//78 45//45
f 79//79 81//81 47//47
f 82//82 84//84 49//49
f 85//85 87//87 51//51
f 88//88 90//90 53//53
f 91//91 93//93 54//54
f 94//94 96//96 55//55
f 97//97 99//99 56//56
f 100//100 102//102 57//57
f 103//103 105//105 58//58
f 106//106 108//108 60//60
f 109//109 111//111 62//62
f 112//112 114//114 64//64
f 115//115 117//117 66//66
f 88//88 119//119 68//68
f 91//91 121//121 69//69
f 94//94 123//123 70//70
f 97//97 125//125 71//71
f 100//100 127//127 72//72
f 130//130 74//74 46//46
f 132//132 77//77 48//48
f 134//134 80//80 50//50
f 136//136 83//83 52//52
f 128//128 86//86 44//44
f 158//158 89//89 42//42
f 159//159 92//92 30//30
f 160//160 95//95 33//33
f 161//161 98//98 36//36
f 162//162 101//101 39//39
f 145//145 104//104 61//61
f 147//147 107//107 63//63
f 149//149 110//110 65//65
f 151//151 113//113 67//67
f 143//143 116//116 59//59
f 159//159 118//118 12//12
f 160//160 120//120 15//15
f 161//161 122//122 18//18
f 162//162 124//124 21//21
f 158//158 126//126 9//9
f 130//130 129//129 74//74
f 132//132 131//131 77//77
f 134//134 133//133 80//80
f 136//136 135//135 83//83
f 128//128 137//137 86//86
f 158//158 138//138 89//89
f 159//159 139//139 92//92
f 160//160 140//140 95//95
f 161//161 141//141 98//98
f 162//162 142//142 101//101
f 145//145 144//144 104//104
f 147//147 146//146 107//107
f 149//149 148//148 110//110
f 151//151 150//150 113//113
f 143//143 152//152 116//116
f 159//159 153//153 118//118
f 160//160 154//154 120//120
f 161//161 155//155 122//122
f 162//162 156//156 124//124
f 158//158 157//157 126//126
f 130//130 3//3 129//129
f 132//132 4//4 131//131
f 134//134 5//5 133//133
f 136//136 6//6 135//135
f 128//128 2//2 137//137
f 158//158 9//9 138//138
f 159//159 12//12 139//139
f 160//160 15//15 140//140
f 161//161 18//18 141//141
f 162//162 21//21 142//142
f 145//145 24//24 144//144
f 147//147 25//25 146//146
f 149//149 26//26 148//148
f 151//151 27//27 150//150
f 143//143 23//23 152//152
f 159//159 30//30 153//153
f 160//160 33//33 154//154
f 161//161 36//36 155//155
f 162//162 39//39 156//156
f 158//158 42//42 157//157
f 128//128 44//44 75//75
f 130//130 46//46 78//78
f 132//132 48//48 81//81
f 134//134 50//50 84//84
f 136//136 52//52 87//87
f 76//76 45//45 90//90
f 73//73 43//43 93//93
f 85//85 51//51 96//96
f 82//82 49//49 99//99
f 79//79 47//47 102//102
f 143//143 59//59 105//105
f 145//145 61//61 108//108
f 147//147 63//63 111//111
f 149//149 65//65 114//114
f 151//151 67//67 117//117
f 103//103 58//58 119//119
f 106//106 60//60 121//121
f 109//109 62//62 123//123
f 112//112 64//64 125//125
f 115//115 66//66 127//127
f 73//73 11//11 74//74
f 76//76 8//8 77//77
f 79//79 20//20 80//80
f 82//82 17//17 83//83
f 85//85 14//14 86//86
f 88//88 68//68 89//89
f 91//91 69//69 92//92
f 94//94 70//70 95//95
f 97//97 71//71 98//98
f 100//100 72//72 101//101
f 103//103 29//29 104//104
f 106//106 32//32 107//107
f 109//109 35//35 110//110
f 112//112 38//38 113//113
f 115//115 41//41 116//116
f 88//88 53//53 118//118
f 91//91 54//54 120//120
f 94//94 55//55 122//122
f 97//97 56//56 124//124
f 100//100 57//57 126//126
f 128//128 75//75 129//129
f 130//130 78//78 131//131
f 132//132 81//81 133//133
f 134//134 84//84 135//135
f 136//136 87//87 137//137
f 76//76 90//90 138//138
f 73//73 93//93 139//139
f 85//85 96//96 140//140
f 82//82 99//99 141//141
f 79//79 102//102 142//142
f 143//143 105//105 144//144
f 145//145 108//108 146//146
f 147//147 111//111 148//148
f 149//149 114//114 150//150
f 151//151 117//117 152//152
f 103//103 119//119 153//153
f 106//106 121//121 154//154
f 109//109 123//123 155//155
f 112//112 125//125 156//156
f 115//115 127//127 157//157
f 129//129 3//3 2//2
f 131//131 4//4 3//3
f 133//133 5//5 4//4
f 135//135 6//6 5//5
f 137//137 2//2 6//6
f 138//138 9//9 8//8
f 139//139 12//12 11//11
f 140//140 15//15 14//14
f 141//141 18//18 17//17
f 142//142 21//21 20//20
f 144//144 24//24 23//23
f 146//146 25//25 24//24
f 148//148 26//26 25//25
f 150//150 27//27 26//26
f 152//152 23//23 27//27
f 153//153 30//30 29//29
f 154//154 33//33 32//32
f 155//155 36//36 35//35
f 156//156 39//39 38//38
f 157//157 42//42 41//41
f 75//75 44//44 43//43
f 78//78 46//46 45//45
f 81//81 48//48 47//47
f 84//84 50//50 49//49
f 87//87 52//52 51//51
f 90//90 45//45 53//53
f 93//93 43//43 54//54
f 96//96 51//51 55//55
f 99//99 49//49 56//56
f 102//102 47//47 57//57
f 105//105 59//59 58//58
f 108//108 61//61 60//60
f 111//111 63//63 62//62
f 114//114 65//65 64//64
f 117//117 67//67 66//66
f 119//119 58//58 68//68
f 121//121 60//60 69//69
f 123//123 62//62 70//70
f 125//125 64//64 71//71
f 127//127 66//66 72//72
f 74//74 11//11 46//46
f 77//77 8//8 48//48
f 80//80 20//20 50//50
f 83//83 17//17 52//52
f 86//86 14//14 44//44
f 89//89 68//68 42//42
f 92//92 69//69 30//30
f 95//95 70//70 33//33
f 98//98 71//71 36//36
f 101//101 72//72 39//39
f 104//104 29//29 61//61
f 107//107 32//32 63//63
f 110//110 35//35 65//65
f 113//113 38//38 67//67
f 116//116 41//41 59//59
f 118//118 53//53 12//12
f 120//120 54//54 15//15
f 122//122 55//55 18//18
f 124//124 56//56 21//21
f 126//126 57//57 9//9
f 129//129 75//75 74//74
f 131//131 78//78 77//77
f 133//133 81//81 80//80
f 135//135 84//84 83//83
f 137//137 87//87 86//86
f 138//138 90//90 89//89
f 139//139 93//93 92//92
f 140//140 96//96 95//95
f 141//141 99//99 98//98
f 142//142 102//102 101//101
f 144//144 105//105 104//104
f 146//146 108//108 107//107
f 148//148 111//111 110//110
f 150//150 114//114 113//113
f 152//152 117//117 116//116
f 153//153 119//119 118//118
f 154//154 121//121 120//120
f 155//155 123//123 122//122
f 156//156 125//125 124//124
f 157//157 127//127 126//126
