# Created by Open3D 
# object name: part_038
# number of vertices: 162
# number of triangles: 320
v -5.68372 -1.53834 0.0227585
vn 0.122858 0.0326562 -0.991887
v -5.65003 -1.53767 0.0300272
vn 0.368538 0.00322543 -0.929607
v -5.68576 -1.56608 0.0236407
vn 0.230695 -0.209187 -0.950274
v -5.73233 -1.57553 0.0195641
vn 0.0199174 -0.0455462 -0.998764
v -5.70681 -1.53823 0.0219505
vn -0.144899 0.28497 -0.947521
v -5.67009 -1.51112 0.0284165
vn 0.142195 0.304096 -0.941969
v -7.22448 -2.70013 0.0622924
vn -0.0975494 -0.133534 -0.986232
v -7.19722 -2.70578 0.0624226
vn 0.106632 -0.302739 -0.94709
v -7.23413 -2.73214 0.0706731
vn -0.134668 -0.37621 -0.916695
v -6.44039 -2.1368 0.0605777
vn 0.602283 -0.797824 0.0270363
v -5.72248 -1.5951 0.0486873
vn 0.602529 -0.797285 0.0359848
v -6.44052 -2.13588 0.0823421
vn 0.602165 -0.796988 0.0469802
v -5.63697 -1.50901 0.383218
vn 0.641022 -0.766065 0.0472704
v -5.62769 -1.50052 0.382904
vn 0.982976 -0.182426 0.0218818
v -5.64015 -1.49155 0.703239
vn 0.668046 -0.7424 0.0505706
v -5.65956 -1.47912 0.381404
vn -0.561796 0.825806 -0.0493035
v -5.67135 -1.50584 0.0767463
vn -0.585719 0.809008 -0.0493828
v -5.67915 -1.47473 0.6868
vn -0.585736 0.809072 -0.0481264
v -6.30495 -1.98544 0.0545916
vn -0.601738 0.795652 -0.0696348
v -7.14798 -2.62217 0.0665892
vn -0.600848 0.793122 -0.0996968
v -7.18217 -2.64646 0.083627
vn -0.602167 0.796065 -0.0606279
v -7.2337 -2.66337 0.783014
vn -0.122858 -0.0326564 0.991887
v -7.24318 -2.69608 0.777689
vn -0.158508 -0.281195 0.94647
v -7.20646 -2.66897 0.784155
vn 0.0820302 -0.204692 0.975383
v -7.18483 -2.62652 0.786229
vn -0.0199147 0.0455426 0.998764
v -7.22751 -2.64112 0.782465
vn -0.28884 0.289068 0.912694
v -7.26324 -2.66953 0.776078
vn -0.385779 0.0182746 0.92241
v -6.44918 -2.10177 0.747431
vn 0.601738 -0.795652 0.0696356
v -7.16706 -2.64351 0.759324
vn 0.601675 -0.796432 0.0606992
v -6.44875 -2.10307 0.72569
vn 0.60213 -0.796849 0.0497126
v -5.69294 -1.50158 0.74348
vn 0.0975486 0.133534 0.986232
v -5.695 -1.52928 0.745373
vn 0.206095 -0.111146 0.972199
v -5.65908 -1.50161 0.737043
vn 0.344699 0.0982433 0.933558
v -6.31374 -1.95041 0.741445
vn -0.602283 0.797824 -0.0270372
v -5.78854 -1.55427 0.73765
vn -0.601807 0.798632 0.00389837
v -5.75483 -1.52933 0.720573
vn -0.60192 0.797749 -0.0359036
v -7.27629 -2.69819 0.422888
vn -0.641022 0.766066 -0.0472703
v -7.26514 -2.67063 0.727495
vn -0.618328 0.784496 -0.0472897
v -7.25734 -2.70174 0.117441
vn -0.61831 0.784433 -0.0485467
v -7.25371 -2.72808 0.424701
vn 0.561798 -0.825804 0.0493035
v -7.26442 -2.73468 0.4249
vn -0.093808 -0.994358 0.0495099
v -7.25096 -2.74498 0.104645
vn 0.531847 -0.845603 0.0457683
v -5.64813 -1.53657 0.0786107
vn 0.618327 -0.784497 0.0472899
v -5.63196 -1.52419 0.0631035
vn 0.668149 -0.742826 0.0422714
v -7.12473 -2.65294 0.0684558
vn 0.60183 -0.798616 -0.00348176
v -5.75625 -1.62105 0.0333424
vn 0.602171 -0.79836 -0.00348793
v -7.21827 -2.67792 0.0607326
vn -0.265076 0.194356 -0.944437
v -7.17549 -2.66374 0.0565938
vn 0.00563844 -0.0563059 -0.998398
v -5.74621 -1.56369 0.0467819
vn -0.601601 0.79648 -0.0607976
v -5.7795 -1.59028 0.0314758
vn -0.600472 0.79331 -0.100464
v -5.64885 -1.47252 0.381205
vn -0.0800267 0.995446 -0.05179
v -5.65412 -1.49487 0.0613247
vn -0.531741 0.845179 -0.054068
v -7.15844 -2.67787 0.0855324
vn 0.601991 -0.797691 0.0359984
v -5.65593 -1.50546 0.688665
vn 0.61831 -0.784433 0.0485467
v -5.66231 -1.46222 0.701461
vn -0.531845 0.845604 -0.0457685
v -6.30341 -1.98265 0.0762822
vn -0.60213 0.796849 -0.0497127
v -7.25419 -2.70559 0.0690625
vn -0.362084 -0.076147 -0.92903
v -7.24192 -2.70136 0.729359
vn 0.58572 -0.809008 0.049383
v -7.25915 -2.71233 0.744781
vn 0.531745 -0.845177 0.0540682
v -5.76529 -1.58503 0.739516
vn 0.600846 -0.79308 0.100043
v -7.13377 -2.61692 0.77463
vn 0.600506 -0.793337 0.100046
v -5.71605 -1.50142 0.743683
vn -0.168665 0.379683 0.909611
v -5.74166 -1.53832 0.7492
vn -0.00563846 0.0563059 0.998398
v -7.19079 -2.6121 0.757418
vn -0.602482 0.797318 -0.0360478
v -7.15702 -2.58615 0.772763
vn -0.602164 0.798366 0.00313755
v -7.28558 -2.70668 0.423202
vn -0.936376 0.34973 -0.0298176
v -7.28131 -2.68301 0.743002
vn -0.668146 0.742828 -0.0422713
v -7.23411 -2.73247 0.119305
vn 0.585736 -0.809072 0.0481265
v -5.7311 -1.56074 0.722479
vn 0.602213 -0.796026 0.0606878
v -5.67914 -1.47506 0.735433
vn 0.118504 0.398521 0.909471
v -6.31164 -1.94984 0.71963
vn -0.602165 0.796988 -0.0469801
v -7.27312 -2.71566 0.102866
vn -0.668044 0.742401 -0.0505707
v -5.67414 -1.55782 0.0586774
vn 0.6076 -0.792906 0.0460644
v -5.68636 -1.56795 0.03735
vn 0.608683 -0.793382 0.00699246
v -5.6495 -1.53911 0.0474357
vn 0.62256 -0.782378 0.0174152
v -7.17132 -2.68759 0.0641434
vn 0.59524 -0.796575 -0.105631
v -7.12645 -2.65266 0.0570728
vn 0.168281 -0.258458 -0.951252
v -6.44073 -2.13692 0.0436004
vn 0.596651 -0.795 -0.109467
v -7.19379 -2.65785 0.0623389
vn -0.594438 0.778432 -0.201712
v -6.31166 -1.99267 0.0378956
vn -0.592628 0.778965 -0.204954
v -7.14753 -2.62477 0.0553808
vn -0.223095 0.261029 -0.939198
v -5.69772 -1.52661 0.0567842
vn -0.596662 0.800894 -0.0506258
v -5.67234 -1.50888 0.0456018
vn -0.580782 0.810197 -0.0792028
v -5.70956 -1.53724 0.0354869
vn -0.594548 0.799051 -0.0896142
v -5.6373 -1.4812 0.381795
vn 0.79828 0.601938 -0.0204828
v -5.62506 -1.51686 0.0624526
vn 0.919837 0.3883 -0.0558847
v -5.64514 -1.49028 0.06084
vn 0.601376 0.794945 -0.0800548
v -7.20721 -2.71381 0.098014
vn 0.596718 -0.801111 0.0463437
v -7.23233 -2.73262 0.0880489
vn 0.58156 -0.813294 0.0184656
v -7.19482 -2.70538 0.076055
vn 0.595601 -0.803247 0.0073258
v -5.68248 -1.5246 0.709985
vn 0.607546 -0.792687 0.0503466
v -5.72976 -1.56188 0.690946
vn 0.602416 -0.7967 0.0486216
v -5.6744 -1.53838 0.384237
vn 0.607441 -0.7929 0.0482093
v -5.6674 -1.46552 0.723267
vn -0.244381 0.922009 0.300297
v -5.65484 -1.47367 0.725567
vn 0.567033 0.469505 0.676785
v -5.65334 -1.45759 0.701705
vn 0.600172 0.799747 0.0141031
v -6.30695 -1.96571 0.397936
vn -0.602148 0.796919 -0.0483465
v -5.75373 -1.53017 0.689022
vn -0.601807 0.797193 -0.0480723
v -5.74591 -1.56131 0.0782731
vn -0.6018 0.797165 -0.0486385
v -7.26729 -2.71334 0.081119
vn -0.800228 0.460491 -0.384165
v -7.25516 -2.70239 0.0862151
vn -0.621782 0.779282 -0.0781483
v -7.2422 -2.69438 0.0693505
vn -0.622742 0.762576 -0.17513
v -7.21554 -2.68059 0.749321
vn 0.596662 -0.800894 0.0506257
v -7.20371 -2.66996 0.770619
vn 0.594548 -0.799051 0.0896106
v -7.24093 -2.69832 0.760504
vn 0.580781 -0.810198 0.0792006
v -5.71947 -1.54935 0.743767
vn 0.594753 -0.778336 0.201151
v -5.76574 -1.58243 0.750725
vn 0.146413 -0.158028 0.97652
v -6.44995 -2.10017 0.764319
vn 0.592627 -0.778964 0.204958
v -5.74195 -1.51961 0.741962
vn -0.594942 0.796906 0.104812
v -6.32088 -1.95592 0.758614
vn -0.596651 0.795 0.109465
v -5.78681 -1.55454 0.749033
vn -0.219963 0.325961 0.919438
v -7.23912 -2.64938 0.747428
vn -0.6076 0.792906 -0.0460643
v -7.26377 -2.6681 0.75867
vn -0.622561 0.782378 -0.0174162
v -7.22691 -2.63925 0.768756
vn -0.608683 0.793382 -0.00699432
v -7.28039 -2.72015 0.423955
vn -0.798282 -0.601936 0.0204826
v -7.26813 -2.71692 0.745266
vn -0.628721 -0.773581 0.0792581
v -7.28821 -2.69034 0.743653
vn -0.932871 -0.356225 0.0534386
v -7.15954 -2.67703 0.117084
vn 0.601879 -0.797139 0.0480714
v -7.21517 -2.70018 0.423771
vn 0.596826 -0.800904 0.0484818
v -5.6581 -1.50481 0.719891
vn 0.621783 -0.779281 0.0781493
v -5.69525 -1.53253 0.731914
vn 0.607631 -0.789185 0.089282
v -5.68094 -1.47458 0.718057
vn -0.581561 0.813293 -0.018467
v -5.69318 -1.48356 0.73498
vn -0.570909 0.817176 0.0792879
v -7.18351 -2.64532 0.11516
vn -0.602369 0.796736 -0.0486222
v -7.19132 -2.61417 0.725908
vn -0.602376 0.796764 -0.048059
v -7.26278 -2.72777 0.0801892
vn -0.567033 -0.469505 -0.676785
v -7.28001 -2.72303 0.102789
vn -0.931666 -0.361028 -0.0407185
v -5.63724 -1.52871 0.0415632
vn 0.83245 -0.369433 -0.412973
v -5.66204 -1.54881 0.0311484
vn 0.626015 -0.775625 -0.0806943
v -5.7103 -1.58592 0.0266554
vn 0.598679 -0.793985 -0.105697
v -5.75641 -1.6196 0.0219194
vn 0.171082 -0.256345 -0.951325
v -6.45416 -2.11935 0.0366392
vn 0.0127786 -0.0509283 -0.998621
v -5.77749 -1.59171 0.0202273
vn -0.196001 0.230462 -0.953137
v -5.73277 -1.55618 0.0248509
vn -0.591034 0.781335 -0.200486
v -5.68415 -1.51954 0.0293729
vn -0.567634 0.804131 -0.176536
v -5.65865 -1.50037 0.0398435
vn -0.235436 0.886363 -0.398662
v -5.64605 -1.5087 0.038706
vn 0.584731 0.398965 -0.70634
v -7.22009 -2.72364 0.0711261
vn 0.570909 -0.817176 -0.0792879
v -5.72195 -1.59303 0.0801973
vn 0.602423 -0.796729 0.0480573
v -5.63326 -1.48417 0.703317
vn 0.918615 0.393169 0.0395559
v -5.6981 -1.50702 0.382334
vn -0.596826 0.800904 -0.0484816
v -7.21802 -2.67468 0.0741921
vn -0.607631 0.789185 -0.0892811
v -7.25462 -2.70683 0.766262
vn 0.101722 -0.866907 0.48798
v -7.22912 -2.68766 0.776733
vn 0.567634 -0.804132 0.176532
v -7.1805 -2.65102 0.781255
vn 0.591312 -0.780922 0.201274
v -7.13578 -2.61549 0.785878
vn 0.143611 -0.160139 0.976592
v -6.46353 -2.082 0.769111
vn -0.0127771 0.0509263 0.998621
v -7.15685 -2.5876 0.784186
vn -0.246651 0.354913 0.901776
v -7.20297 -2.62128 0.77945
vn -0.598378 0.794137 0.106259
v -7.25123 -2.65839 0.774957
vn -0.626016 0.775624 0.0806988
v -7.27603 -2.67849 0.764542
vn -0.80917 0.496142 0.314781
v -7.27157 -2.69274 0.76705
vn -0.58473 -0.398968 0.70634
v -7.16736 -2.64589 0.727832
vn 0.601872 -0.79711 0.0486358
v -5.67106 -1.51282 0.736755
vn 0.622742 -0.762577 0.175128
v -5.71845 -1.50182 0.730051
vn -0.595602 0.803247 -0.00732817
v -7.23887 -2.66882 0.421869
vn -0.607441 0.7929 -0.0482093
v -7.25993 -2.74961 0.104401
vn -0.6275 -0.778449 -0.0161816
v -7.24587 -2.74168 0.0828387
vn 0.113014 -0.911913 -0.394514
v -6.44459 -2.11954 0.40402
vn 0.602148 -0.796919 0.0483466
v -5.64598 -1.49386 0.724987
vn 0.821159 -0.324426 0.469517
v -5.70606 -1.49339 0.708092
vn -0.596718 0.801111 -0.0463437
v -7.23079 -2.6826 0.0961209
vn -0.607546 0.792687 -0.0503466
f 1//1 2//2 3//3
f 1//1 3//3 4//4
f 1//1 4//4 5//5
f 1//1 5//5 6//6
f 1//1 6//6 2//2
f 7//7 8//8 9//9
f 10//10 11//11 12//12
f 13//13 14//14 15//15
f 16//16 17//17 18//18
f 19//19 20//20 21//21
f 22//22 23//23 24//24
f 22//22 24//24 25//25
f 22//22 25//25 26//26
f 22//22 26//26 27//27
f 22//22 27//27 23//23
f 28//28 29//29 30//30
f 31//31 32//32 33//33
f 34//34 35//35 36//36
f 37//37 38//38 39//39
f 40//40 41//41 42//42
f 13//13 43//43 44//44
f 10//10 45//45 46//46
f 7//7 47//47 48//48
f 19//19 49//49 50//50
f 16//16 51//51 52//52
f 10//10 53//53 45//45
f 13//13 54//54 43//43
f 16//16 55//55 51//51
f 19//19 56//56 49//49
f 7//7 57//57 47//47
f 40//40 58//58 59//59
f 28//28 60//60 61//61
f 31//31 62//62 63//63
f 34//34 64//64 65//65
f 37//37 66//66 67//67
f 40//40 68//68 58//58
f 28//28 69//69 60//60
f 31//31 70//70 62//62
f 34//34 71//71 64//64
f 37//37 72//72 66//66
f 10//10 46//46 11//11
f 7//7 48//48 8//8
f 19//19 50//50 20//20
f 16//16 52//52 17//17
f 13//13 44//44 14//14
f 40//40 42//42 68//68
f 28//28 30//30 69//69
f 31//31 33//33 70//70
f 34//34 36//36 71//71
f 37//37 39//39 72//72
f 28//28 61//61 29//29
f 31//31 63//63 32//32
f 34//34 65//65 35//35
f 37//37 67//67 38//38
f 40//40 59//59 41//41
f 10//10 12//12 53//53
f 13//13 15//15 54//54
f 16//16 18//18 55//55
f 19//19 21//21 56//56
f 7//7 9//9 57//57
f 73//73 74//74 75//75
f 76//76 77//77 78//78
f 79//79 80//80 81//81
f 82//82 83//83 84//84
f 85//85 86//86 87//87
f 88//88 89//89 90//90
f 91//91 92//92 93//93
f 94//94 95//95 96//96
f 97//97 98//98 99//99
f 100//100 101//101 102//102
f 103//103 104//104 105//105
f 106//106 107//107 108//108
f 109//109 110//110 111//111
f 112//112 113//113 114//114
f 115//115 116//116 117//117
f 88//88 118//118 119//119
f 91//91 120//120 121//121
f 94//94 122//122 123//123
f 97//97 124//124 125//125
f 100//100 126//126 127//127
f 128//128 129//129 2//2
f 130//130 131//131 3//3
f 132//132 133//133 4//4
f 134//134 135//135 5//5
f 136//136 137//137 6//6
f 76//76 138//138 8//8
f 73//73 139//139 11//11
f 85//85 140//140 14//14
f 82//82 141//141 17//17
f 79//79 142//142 20//20
f 143//143 144//144 23//23
f 145//145 146//146 24//24
f 147//147 148//148 25//25
f 149//149 150//150 26//26
f 151//151 152//152 27//27
f 103//103 153//153 29//29
f 106//106 154//154 32//32
f 109//109 155//155 35//35
f 112//112 156//156 38//38
f 115//115 157//157 41//41
f 73//73 75//75 43//43
f 76//76 78//78 45//45
f 79//79 81//81 47//47
f 82//82 84//84 49//49
f 85//85 87//87 51//51
f 88//88 90//90 53//53
f 91//91 93//93 54//54
f 94//94 96//96 55//55
f 97//97 99//99 56//56
f 100//100 102//102 57//57
f 103//103 105//105 58//58
f 106//106 108//108 60//60
f 109//109 111//111 62//62
f 112//112 114//114 64//64
f 115//115 117//117 66//66
f 88//88 119//119 68//68
f 91//91 121//121 69//69
f 94//94 123//123 70//70
f 97//97 125//125 71//71
f 100//100 127//127 72//72
f 130//130 74//74 46//46
f 132//132 77//77 48//48
f 134//134 80//80 50//50
f 136//136 83//83 52//52
f 128//128 86//86 44//44
f 158//158 89//89 42//42
f 159//159 92//92 30//30
f 160//160 95//95 33//33
f 161//161 98//98 36//36
f 162//162 101//101 39//39
f 145//145 104//104 61//61
f 147//147 107//107 63//63
f 149//149 110//110 65//65
f 151//151 113//113 67//67
f 143//143 116//116 59//59
f 159//159 118//118 12//12
f 160//160 120//120 15//15
f 161//161 122//122 18//18
f 162//162 124//124 21//21
f 158//158 126//126 9//9
f 130//130 129//129 74//74
f 132//132 131//131 77//77
f 134//134 133//133 80//80
f 136//136 135//135 83//83
f 128//128 137//137 86//86
f 158//158 138//138 89//89
f 159//159 139//139 92//92
f 160//160 140//140 95//95
f 161//161 141//141 98//98
f 162//162 142//142 101//101
f 145//145 144//144 104//104
f 147//147 146//146 107//107
f 149//149 148//148 110//110
f 151//151 150//150 113//113
f 143//143 152//152 116//116
f 159//159 153//153 118//118
f 160//160 154//154 120//120
f 161//161 155//155 122//122
f 162//162 156//156 124//124
f 158//158 157//157 126//126
f 130//130 3//3 129//129
f 132//132 4//4 131//131
f 134//134 5//5 133//133
f 136//136 6//6 135//135
f 128//128 2//2 137//137
f 158//158 9//9 138//138
f 159//159 12//12 139//139
f 160//160 15//15 140//140
f 161//161 18//18 141//141
f 162//162 21//21 142//142
f 145//145 24//24 144//144
f 147//147 25//25 146//146
f 149//149 26//26 148//148
f 151//151 27//27 150//150
f 143//143 23//23 152//152
f 159//159 30//30 153//153
f 160//160 33//33 154//154
f 161//161 36//36 155//155
f 162//162 39//39 156//156
f 158//158 42//42 157//157
f 128//128 44//44 75//75
f 130//130 46//46 78//78
f 132//132 48//48 81//81
f 134//134 50//50 84//84
f 136//136 52//52 87//87
f 76//76 45//45 90//90
f 73//73 43//43 93//93
f 85//85 51//51 96//96
f 82//82 49//49 99//99
f 79//79 47//47 102//102
f 143//143 59//59 105//105
f 145//145 61//61 108//108
f 147//147 63//63 111//111
f 149//149 65//65 114//114
f 151//151 67//67 117//117
f 103//103 58//58 119//119
f 106//106 60//60 121//121
f 109//109 62//62 123//123
f 112//112 64//64 125//125
f 115//115 66//66 127//127
f 73//73 11//11 74//74
f 76//76 8//8 77//77
f 79//79 20//20 80//80
f 82//82 17//17 83//83
f 85//85 14//14 86//86
f 88//88 68//68 89//89
f 91//91 69//69 92//92
f 94//94 70//70 95//95
f 97//97 71//71 98//98
f 100//100 72//72 101//101
f 103//103 29//29 104//104
f 106//106 32//32 107//107
f 109//109 35//35 110//110
f 112//112 38//38 113//113
f 115//115 41//41 116//116
f 88//88 53//53 118//118
f 91//91 54//54 120//120
f 94//94 55//55 122//122
f 97//97 56//56 124//124
f 100//100 57//57 126//126
f 128//128 75//75 129//129
f 130//130 78//78 131//131
f 132//132 81//81 133//133
f 134//134 84//84 135//135
f 136//136 87//87 137//137
f 76//76 90//90 138//138
f 73//73 93//93 139//139
f 85//85 96//96 140//140
f 82//82 99//99 141//141
f 79//79 102//102 142//142
f 143//143 105//105 144//144
f 145//145 108//108 146//146
f 147//147 111//111 148//148
f 149//149 114//114 150//150
f 151//151 117//117 152//152
f 103//103 119//119 153//153
f 106//106 121//121 154//154
f 109//109 123//123 155//155
f 112//112 125//125 156//156
f 115//115 127//127 157//157
f 129//129 3//3 2//2
f 131//131 4//4 3//3
f 133//133 5//5 4//4
f 135//135 6//6 5//5
f 137//137 2//2 6//6
f 138//138 9//9 8//8
f 139//139 12//12 11//11
f 140//140 15//15 14//14
f 141//141 18//18 17//17
f 142//142 21//21 20//20
f 144//144 24//24 23//23
f 146//146 25//25 24//24
f 148//148 26//26 25//25
f 150//150 27//27 26//26
f 152//152 23//23 27//27
f 153//153 30//30 29//29
f 154//154 33//33 32//32
f 155//155 36//36 35//35
f 156//156 39//39 38//38
f 157//157 42//42 41//41
f 75//75 44//44 43//43
f 78//78 46//46 45//45
f 81//81 48//48 47//47
f 84//84 50//50 49//49
f 87//87 52//52 51//51
f 90//90 45//45 53//53
f 93//93 43//43 54//54
f 96//96 51//51 55//55
f 99//99 49//49 56//56
f 102//102 47//47 57//57
f 105//105 59//59 58//58
f 108//108 61//61 60//60
f 111//111 63//63 62//62
f 114//114 65//65 64//64
f 117//117 67//67 66//66
f 119//119 58//58 68//68
f 121//121 60//60 69//69
f 123//123 62//62 70//70
f 125//125 64//64 71//71
f 127//127 66//66 72//72
f 74//74 11//11 46//46
f 77//77 8//8 48//48
f 80//80 20//20 50//50
f 83//83 17//17 52//52
f 86//86 14//14 44//44
f 89//89 68//68 42//42
f 92//92 69//69 30//30
f 95//95 70//70 33//33
f 98//98 71//71 36//36
f 101//101 72//72 39//39
f 104//104 29//29 61//61
f 107//107 32//32 63//63
f 110//110 35//35 65//65
f 113//113 38//38 67//67
f 116//116 41//41 59//59
f 118//118 53//53 12//12
f 120//120 54//54 15//15
f 122//122 55//55 18//18
f 124//124 56//56 21//21
f 126//126 57//57 9//9
f 129//129 75//75 74//74
f 131//131 78//78 77//77
f 133//133 81//81 80//80
f 135//135 84//84 83//83
f 137//137 87//87 86//86
f 138//138 90//90 89//89
f 139//139 93//93 92//92
f 140//140 96//96 95//95
f 141//141 99//99 98//98
f 142//142 102//102 101//101
f 144//144 105//105 104//104
f 146//146 108//108 107//107
f 148//148 111//111 110//110
f 150//150 114//114 113//113
f 152//152 117//117 116//116
f 153//153 119//119 118//118
f 154//154 121//121 120//120
f 155//155 123//123 122//122
f 156//156 125//125 124//124
f 157//157 127//127 126//126
