# Created by Open3D 
# object name: part_051
# number of vertices: 162
# number of triangles: 320
v -10.8428 -5.17534 1.41307
vn -0.777492 -0.603176 -0.178001
v -10.8565 -5.15888 1.43283
vn -0.88198 -0.470096 0.0334806
v -10.8515 -5.1568 1.39879
vn -0.884095 -0.391663 -0.254903
v -10.8319 -5.17035 1.36908
vn -0.739402 -0.586562 -0.3305
v -10.8305 -5.18461 1.40102
vn -0.520398 -0.827319 -0.211492
v -10.8364 -5.18539 1.43495
vn -0.676387 -0.734286 0.0576627
v -10.4005 -4.94832 0.0682944
vn -0.673623 -0.549851 -0.493858
v -10.4177 -4.9341 0.0795876
vn -0.825087 -0.361396 -0.434309
v -10.4018 -4.92548 0.0502252
vn -0.648846 -0.350416 -0.675431
v -10.6242 -5.0344 0.744464
vn -0.619633 0.781598 -0.0718308
v -10.8259 -5.13669 1.37314
vn -0.612631 0.787434 -0.0680592
v -10.6098 -5.02261 0.751206
vn -0.603651 0.794646 -0.0643725
v -10.6253 -4.97115 1.55675
vn -0.621794 0.78318 -0.0011026
v -10.6274 -4.97357 1.56555
vn -0.619473 0.379049 0.687441
v -10.4106 -4.80096 1.65719
vn -0.630575 0.774786 0.0456229
v -10.6027 -5.00099 1.55915
vn 0.580617 -0.804319 0.126313
v -10.8026 -5.16177 1.45101
vn 0.593333 -0.79998 0.0893749
v -10.3933 -4.83653 1.64052
vn 0.594353 -0.79917 0.0898407
v -10.6462 -5.08916 0.885872
vn 0.585143 -0.809004 0.0558622
v -10.4108 -4.96975 0.146748
vn 0.560044 -0.827281 0.0442403
v -10.39 -4.95647 0.122355
vn 0.592664 -0.803293 0.0588997
v -9.91696 -4.56408 0.29219
vn 0.777494 0.603174 0.178001
v -9.92745 -4.54855 0.269863
vn 0.694802 0.717221 -0.0533232
v -9.93343 -4.54932 0.303797
vn 0.598 0.769389 0.224581
v -9.9281 -4.56872 0.336149
vn 0.739404 0.586559 0.330501
v -9.91237 -4.57713 0.306029
vn 0.919387 0.300537 0.25378
v -9.90737 -4.57505 0.27199
vn 0.893631 0.447463 -0.0346382
v -10.1634 -4.66822 0.957838
vn -0.585139 0.809006 -0.0558604
v -9.96169 -4.56589 0.329155
vn -0.592354 0.803466 -0.0596524
v -10.1781 -4.67962 0.951065
vn -0.60144 0.796403 -0.0633485
v -10.3592 -4.79109 1.63696
vn 0.673623 0.549852 0.493857
v -10.3673 -4.77202 1.623
vn 0.539009 0.739096 0.403987
v -10.3821 -4.78195 1.65246
vn 0.461656 0.597553 0.655595
v -10.1853 -4.72298 1.09925
vn 0.619631 -0.781599 0.0718301
v -10.3298 -4.7949 1.56053
vn 0.643707 -0.760691 0.0836114
v -10.3501 -4.80882 1.58498
vn 0.612387 -0.787536 0.069058
v -10.1386 -4.76278 0.148064
vn 0.621793 -0.783181 0.00110472
v -9.93805 -4.60285 0.256273
vn 0.611304 -0.790469 0.0382954
v -10.3474 -4.92809 0.066757
vn 0.610286 -0.791278 0.0378249
v -10.1612 -4.73294 0.145669
vn -0.580617 0.804319 -0.126313
v -10.1576 -4.73241 0.137018
vn -0.140833 0.624758 -0.768013
v -10.3754 -4.9037 0.0452716
vn -0.566575 0.805759 -0.17247
v -10.8258 -5.13109 1.44854
vn -0.611304 0.790469 -0.0382969
v -10.8401 -5.14224 1.45833
vn -0.637272 0.769466 0.0425105
v -10.4341 -4.93904 0.144282
vn -0.643388 0.76098 -0.0834292
v -10.8269 -5.14067 1.33869
vn -0.643568 0.760887 -0.0828928
v -10.3966 -4.96191 0.08182
vn -0.462934 -0.79782 -0.386232
v -10.4177 -4.95771 0.109485
vn -0.732632 -0.583105 -0.351054
v -10.8022 -5.16804 1.37566
vn 0.592242 -0.803543 0.0597302
v -10.8036 -5.17138 1.34116
vn 0.559223 -0.827822 0.0444951
v -10.6063 -5.00152 1.5678
vn 0.257316 -0.707419 0.65829
v -10.818 -5.17151 1.46068
vn 0.559868 -0.811084 0.169382
v -10.4138 -4.92511 0.119838
vn -0.612351 0.787577 -0.0689102
v -10.4165 -4.80585 1.63806
vn -0.610285 0.791278 -0.037828
v -10.3885 -4.83024 1.65954
vn 0.566575 -0.805759 0.172469
v -10.632 -5.07805 0.894363
vn 0.601439 -0.796403 0.0633485
v -10.3818 -4.95199 0.0523527
vn -0.442564 -0.614274 -0.653303
v -9.96129 -4.57217 0.25381
vn -0.593334 0.799979 -0.0893745
v -9.94592 -4.56242 0.244133
vn -0.559868 0.811084 -0.169383
v -10.3531 -4.76418 1.55807
vn -0.559745 0.827492 -0.0440823
v -9.96027 -4.56255 0.363658
vn -0.559576 0.827577 -0.0446244
v -10.3462 -4.79983 1.62523
vn 0.861912 0.271072 0.428519
v -10.3423 -4.78136 1.59574
vn 0.732632 0.583105 0.351054
v -9.93794 -4.59725 0.331671
vn 0.612555 -0.787489 0.0681086
v -9.93701 -4.59327 0.366124
vn 0.643294 -0.76113 0.0827854
v -10.1365 -4.76036 0.139262
vn 0.658373 -0.501534 -0.561256
v -9.92375 -4.59169 0.246482
vn 0.637273 -0.769465 -0.0425112
v -10.3706 -4.89741 0.0642941
vn -0.594353 0.79917 -0.0898403
v -10.3739 -4.77747 1.58246
vn -0.592636 0.803321 -0.058801
v -10.3621 -4.80845 1.65459
vn 0.659819 0.327436 0.676332
v -10.2004 -4.73506 1.09422
vn 0.603651 -0.794646 0.0643724
v -10.3533 -4.93297 0.0476216
vn 0.630573 -0.774789 -0.0456137
v -10.8323 -5.13795 1.41902
vn -0.607083 0.792659 -0.0560574
v -10.8431 -5.14792 1.40158
vn -0.638609 0.766443 -0.0688707
v -10.8461 -5.14774 1.43749
vn -0.637091 0.769602 -0.0427573
v -10.4241 -4.93565 0.10224
vn -0.716959 0.686174 -0.123028
v -10.4404 -4.94639 0.140203
vn -0.858187 -0.377183 -0.348207
v -10.635 -5.04417 0.739263
vn -0.720466 0.682732 -0.121681
v -10.4016 -4.96534 0.104624
vn 0.470248 -0.882529 0.00304113
v -10.656 -5.09635 0.874027
vn 0.466541 -0.88449 0.00411478
v -10.4193 -4.97423 0.142437
vn -0.471244 -0.830336 -0.297441
v -10.8087 -5.1691 1.42152
vn 0.597958 -0.798318 0.0716532
v -10.8233 -5.17792 1.43991
vn 0.566603 -0.819614 0.0848206
v -10.8198 -5.17857 1.40404
vn 0.56518 -0.822876 0.0587139
v -10.6155 -4.99094 1.56969
vn -0.308465 -0.158338 0.937965
v -10.8416 -5.14497 1.46525
vn -0.441845 -0.0338763 0.896451
v -10.8215 -5.17151 1.46738
vn -0.204894 -0.343208 0.916639
v -10.3922 -4.91207 0.0809631
vn -0.601422 0.795565 -0.0732649
v -10.3918 -4.91453 0.0560016
vn -0.615768 0.780549 -0.107577
v -10.4101 -4.92566 0.0850016
vn -0.631797 0.769943 -0.0895575
v -10.3953 -4.79071 1.62135
vn -0.603613 0.795415 -0.0544561
v -10.3954 -4.79424 1.57337
vn -0.602459 0.795634 -0.0633245
v -10.6149 -4.96482 1.52354
vn -0.60528 0.794077 -0.055469
v -10.3728 -4.81744 1.6617
vn 0.620508 -0.509235 0.596363
v -10.3814 -4.80585 1.66486
vn 0.211081 0.236023 0.948545
v -10.3915 -4.82984 1.66647
vn -0.147254 -0.297402 0.943328
v -10.4163 -4.90671 0.994844
vn 0.602546 -0.795525 0.0638604
v -10.3714 -4.8259 1.57591
vn 0.602595 -0.795435 0.0645111
v -10.7812 -5.15151 1.38618
vn 0.602137 -0.795799 0.0642987
v -10.3696 -4.94478 0.0453823
vn 0.364139 -0.790773 -0.492017
v -10.3689 -4.9447 0.0584239
vn 0.587932 -0.808663 0.0199987
v -10.384 -4.95488 0.0640464
vn 0.506864 -0.861565 -0.0281843
v -9.95522 -4.56483 0.283294
vn -0.597957 0.798319 -0.0716548
v -9.94405 -4.55536 0.300771
vn -0.565184 0.822873 -0.0587138
v -9.94061 -4.55602 0.264902
vn -0.566603 0.819614 -0.0848206
v -10.3623 -4.7686 1.60019
vn -0.470892 0.882186 -0.00285299
v -10.3446 -4.7597 1.56238
vn 0.569841 0.75788 0.317647
v -10.1515 -4.65993 0.963157
vn -0.466533 0.884494 -0.00411137
v -10.3398 -4.79829 1.60258
vn 0.71622 -0.686894 0.123314
v -10.1724 -4.71211 1.09792
vn 0.720461 -0.682737 0.121679
v -10.3235 -4.78754 1.56461
vn 0.889456 0.299291 0.345387
v -9.93162 -4.59599 0.285795
vn 0.607082 -0.792659 0.0560601
v -9.91776 -4.58619 0.267325
vn 0.637093 -0.7696 0.0427583
v -9.92083 -4.58602 0.303232
vn 0.638603 -0.766448 0.0688705
v -10.1439 -4.74884 0.135598
vn 0.308466 0.158336 -0.937965
v -9.94236 -4.56243 0.237432
vn 0.222479 0.323501 -0.919701
v -9.92227 -4.58896 0.239562
vn 0.455687 0.0120902 -0.890058
v -10.3925 -4.90803 0.128905
vn -0.602633 0.795416 -0.0643965
v -10.1727 -4.7378 0.178757
vn -0.599763 0.79691 -0.0722483
v -10.3949 -4.78923 1.64639
vn -0.587932 0.808663 -0.0199987
v -10.377 -4.77762 1.61735
vn -0.571988 0.81938 -0.0380275
v -10.3721 -4.81941 1.64881
vn 0.615768 -0.780549 0.107577
v -10.3578 -4.80826 1.64311
vn 0.684963 -0.71201 0.154493
v -10.3685 -4.9397 0.131446
vn 0.602434 -0.795646 0.0633994
v -9.95874 -4.61409 0.321178
vn 0.602891 -0.795284 0.0636106
v -10.3782 -4.93383 0.0404123
vn -0.211081 -0.236023 -0.948545
v -10.3523 -4.93063 0.0404745
vn 0.398044 -0.0337101 -0.916747
v -10.8528 -5.15351 1.44712
vn -0.921605 0.216008 0.322468
v -10.8533 -5.15523 1.42157
vn -0.713568 0.697325 -0.067524
v -10.8434 -5.15091 1.37742
vn -0.718765 0.685231 -0.117619
v -10.8336 -5.14825 1.33597
vn -0.859528 -0.377854 -0.344148
v -10.6255 -5.06514 0.738869
vn -0.73606 -0.584869 -0.340798
v -10.8125 -5.17609 1.33821
vn -0.505299 -0.808975 -0.300388
v -10.821 -5.1806 1.3798
vn 0.469644 -0.882809 0.00915323
v -10.8312 -5.18445 1.42391
vn 0.478269 -0.876243 0.058792
v -10.8314 -5.1818 1.4494
vn 0.0873858 -0.93284 0.349533
v -10.8422 -5.17204 1.45149
vn -0.696741 -0.485322 0.528218
v -10.4061 -4.92567 0.0617013
vn -0.684963 0.71201 -0.154493
v -10.8051 -5.11985 1.38364
vn -0.602915 0.795271 -0.0635362
v -10.4116 -4.80331 1.66434
vn -0.383652 0.0123636 0.923395
v -10.5912 -4.99613 1.52606
vn 0.599763 -0.796909 0.0722471
v -10.3869 -4.95631 0.0874626
vn 0.571988 -0.81938 0.0380275
v -9.93252 -4.55213 0.255419
vn 0.0701486 0.908156 -0.412712
v -9.93268 -4.54949 0.280901
vn -0.47827 0.876243 -0.0587926
v -9.94293 -4.55333 0.325014
vn -0.469093 0.88311 -0.00826932
v -9.95136 -4.55784 0.366609
vn 0.571164 0.758574 0.313587
v -10.134 -4.67464 0.966415
vn 0.736061 0.584868 0.340798
v -9.93028 -4.58568 0.368844
vn 0.903535 0.262013 0.339077
v -9.92044 -4.58302 0.327397
vn 0.719011 -0.68487 0.118219
v -9.91056 -4.5787 0.283246
vn 0.713568 -0.697324 0.0675223
v -9.91109 -4.58043 0.257691
vn 0.897263 -0.367163 -0.245174
v -9.91731 -4.56764 0.253789
vn 0.69674 0.485325 -0.528217
v -9.98272 -4.58242 0.318637
vn -0.602176 0.795779 -0.064185
v -10.3799 -4.77905 1.64077
vn -0.506864 0.861565 0.0281843
v -10.3538 -4.80827 1.61981
vn 0.631797 -0.769943 0.0895576
v -10.149 -4.76911 0.181271
vn 0.60528 -0.794078 0.0554701
v -10.3724 -4.90409 0.0383444
vn 0.16429 0.277254 -0.946646
v -10.3911 -4.91649 0.0431109
vn -0.580723 0.390988 -0.714065
v -10.394 -4.85106 0.851131
vn -0.602546 0.795525 -0.0638606
v -10.3942 -4.78915 1.65943
vn -0.270733 0.73317 0.623831
v -10.3717 -4.82187 1.62385
vn 0.601422 -0.795565 0.0732651
v -10.3686 -4.94322 0.0834639
vn 0.603613 -0.795415 0.0544559
f 1//1 2//2 3//3
f 1//1 3//3 4//4
f 1//1 4//4 5//5
f 1//1 5//5 6//6
f 1//1 6//6 2//2
f 7//7 8//8 9//9
f 10//10 11//11 12//12
f 13//13 14//14 15//15
f 16//16 17//17 18//18
f 19//19 20//20 21//21
f 22//22 23//23 24//24
f 22//22 24//24 25//25
f 22//22 25//25 26//26
f 22//22 26//26 27//27
f 22//22 27//27 23//23
f 28//28 29//29 30//30
f 31//31 32//32 33//33
f 34//34 35//35 36//36
f 37//37 38//38 39//39
f 40//40 41//41 42//42
f 13//13 43//43 44//44
f 10//10 45//45 46//46
f 7//7 47//47 48//48
f 19//19 49//49 50//50
f 16//16 51//51 52//52
f 10//10 53//53 45//45
f 13//13 54//54 43//43
f 16//16 55//55 51//51
f 19//19 56//56 49//49
f 7//7 57//57 47//47
f 40//40 58//58 59//59
f 28//28 60//60 61//61
f 31//31 62//62 63//63
f 34//34 64//64 65//65
f 37//37 66//66 67//67
f 40//40 68//68 58//58
f 28//28 69//69 60//60
f 31//31 70//70 62//62
f 34//34 71//71 64//64
f 37//37 72//72 66//66
f 10//10 46//46 11//11
f 7//7 48//48 8//8
f 19//19 50//50 20//20
f 16//16 52//52 17//17
f 13//13 44//44 14//14
f 40//40 42//42 68//68
f 28//28 30//30 69//69
f 31//31 33//33 70//70
f 34//34 36//36 71//71
f 37//37 39//39 72//72
f 28//28 61//61 29//29
f 31//31 63//63 32//32
f 34//34 65//65 35//35
f 37//37 67//67 38//38
f 40//40 59//59 41//41
f 10//10 12//12 53//53
f 13//13 15//15 54//54
f 16//16 18//18 55//55
f 19//19 21//21 56//56
f 7//7 9//9 57//57
f 73//73 74//74 75//75
f 76//76 77//77 78//78
f 79//79 80//80 81//81
f 82//82 83//83 84//84
f 85//85 86//86 87//87
f 88//88 89//89 90//90
f 91//91 92//92 93//93
f 94//94 95//95 96//96
f 97//97 98//98 99//99
f 100//100 101//101 102//102
f 103//103 104//104 105//105
f 106//106 107//107 108//108
f 109//109 110//110 111//111
f 112//112 113//113 114//114
f 115//115 116//116 117//117
f 88//88 118//118 119//119
f 91//91 120//120 121//121
f 94//94 122//122 123//123
f 97//97 124//124 125//125
f 100//100 126//126 127//127
f 128//128 129//129 2//2
f 130//130 131//131 3//3
f 132//132 133//133 4//4
f 134//134 135//135 5//5
f 136//136 137//137 6//6
f 76//76 138//138 8//8
f 73//73 139//139 11//11
f 85//85 140//140 14//14
f 82//82 141//141 17//17
f 79//79 142//142 20//20
f 143//143 144//144 23//23
f 145//145 146//146 24//24
f 147//147 148//148 25//25
f 149//149 150//150 26//26
f 151//151 152//152 27//27
f 103//103 153//153 29//29
f 106//106 154//154 32//32
f 109//109 155//155 35//35
f 112//112 156//156 38//38
f 115//115 157//157 41//41
f 73//73 75//75 43//43
f 76//76 78//78 45//45
f 79//79 81//81 47//47
f 82//82 84//84 49//49
f 85//85 87//87 51//51
f 88//88 90//90 53//53
f 91//91 93//93 54//54
f 94//94 96//96 55//55
f 97//97 99//99 56//56
f 100//100 102//102 57//57
f 103//103 105//105 58//58
f 106//106 108//108 60//60
f 109//109 111//111 62//62
f 112//112 114//114 64//64
f 115//115 117//117 66//66
f 88//88 119//119 68//68
f 91//91 121//121 69//69
f 94//94 123//123 70//70
f 97//97 125//125 71//71
f 100//100 127//127 72//72
f 130//130 74//74 46//46
f 132//132 77//77 48//48
f 134//134 80//80 50//50
f 136//136 83//83 52//52
f 128//128 86//86 44//44
f 158//158 89//89 42//42
f 159//159 92//92 30//30
f 160//160 95//95 33//33
f 161//161 98//98 36//36
f 162//162 101//101 39//39
f 145//145 104//104 61//61
f 147//147 107//107 63//63
f 149//149 110//110 65//65
f 151//151 113//113 67//67
f 143//143 116//116 59//59
f 159//159 118//118 12//12
f 160//160 120//120 15//15
f 161//161 122//122 18//18
f 162//162 124//124 21//21
f 158//158 126//126 9//9
f 130//130 129//129 74//74
f 132//132 131//131 77//77
f 134//134 133//133 80//80
f 136//136 135//135 83//83
f 128//128 137//137 86//86
f 158//158 138//138 89//89
f 159//159 139//139 92//92
f 160//160 140//140 95//95
f 161//161 141//141 98//98
f 162//162 142//142 101//101
f 145//145 144//144 104//104
f 147//147 146//146 107//107
f 149//149 148//148 110//110
f 151//151 150//150 113//113
f 143//143 152//152 116//116
f 159//159 153//153 118//118
f 160//160 154//154 120//120
f 161//161 155//155 122//122
f 162//162 156//156 124//124
f 158//158 157//157 126//126
f 130//130 3//3 129//129
f 132//132 4//4 131//131
f 134//134 5//5 133//133
f 136//136 6//6 135//135
f 128//128 2//2 137//137
f 158//158 9//9 138//138
f 159//159 12//12 139//139
f 160//160 15//15 140//140
f 161//161 18//18 141//141
f 162//162 21//21 142//142
f 145//145 24//24 144//144
f 147//147 25//25 146//146
f 149//149 26//26 148//148
f 151//151 27//27 150//150
f 143//143 23//23 152//152
f 159//159 30//30 153//153
f 160//160 33//33 154//154
f 161//161 36//36 155//155
f 162//162 39//39 156//156
f 158//158 42//42 157//157
f 128//128 44//44 75//75
f 130//130 46//46 78//78
f 132//132 48//48 81//81
f 134//134 50//50 84//84
f 136//136 52//52 87//87
f 76//76 45//45 90//90
f 73//73 43//43 93//93
f 85//85 51//51 96//96
f 82//82 49//49 99//99
f 79//79 47//47 102//102
f 143//143 59//59 105//105
f 145//145 61//61 108//108
f 147//147 63//63 111//111
f 149//149 65//65 114//114
f 151//151 67//67 117//117
f 103//103 58//58 119//119
f 106//106 60//60 121//121
f 109//109 62//62 123//123
f 112//112 64//64 125//125
f 115//115 66//66 127//127
f 73//73 11//11 74//74
f 76//76 8//8 77//77
f 79//79 20//20 80//80
f 82//82 17//17 83//83
f 85//85 14//14 86//86
f 88//88 68//68 89//89
f 91//91 69//69 92//92
f 94//94 70//70 95//95
f 97//97 71//71 98//98
f 100//100 72//72 101//101
f 103//103 29//29 104//104
f 106//106 32//32 107//107
f 109//109 35//35 110//110
f 112//112 38//38 113//113
f 115//115 41//41 116//116
f 88//88 53//53 118//118
f 91//91 54//54 120//120
f 94//94 55//55 122//122
f 97//97 56//56 124//124
f 100//100 57//57 126//126
f 128//128 75//75 129//129
f 130//130 78//78 131//131
f 132//132 81//81 133//133
f 134//134 84//84 135//135
f 136//136 87//87 137//137
f 76//76 90//90 138//138
f 73//73 93//93 139//139
f 85//85 96//96 140//140
f 82//82 99//99 141//141
f 79//79 102//102 142//142
f 143//143 105//105 144//144
f 145//145 108//108 146//146
f 147//147 111//111 148//148
f 149//149 114//114 150//150
f 151//151 117//117 152//152
f 103//103 119//119 153//153
f 106//106 121//121 154//154
f 109//109 123//123 155//155
f 112//112 125//125 156//156
f 115//115 127//127 157//157
f 129//129 3//3 2//2
f 131//131 4//4 3//3
f 133//133 5//5 4//4
f 135//135 6//6 5//5
f 137//137 2//2 6//6
f 138//138 9//9 8//8
f 139//139 12//12 11//11
f 140//140 15//15 14//14
f 141//141 18//18 17//17
f 142//142 21//21 20//20
f 144//144 24//24 23//23
f 146//146 25//25 24//24
f 148//148 26//26 25//25
f 150//150 27//27 26//26
f 152//152 23//23 27//27
f 153//153 30//30 29//29
f 154//154 33//33 32//32
f 155//155 36//36 35//35
f 156//156 39//39 38//38
f 157//157 42//42 41//41
f 75//75 44//44 43//43
f 78//78 46//46 45//45
f 81//81 48//48 47//47
f 84//84 50//50 49//49
f 87//87 52//52 51//51
f 90//90 45//45 53//53
f 93//93 43//43 54//54
f 96//96 51//51 55//55
f 99//99 49//49 56//56
f 102//102 47//47 57//57
f 105//105 59//59 58//58
f 108//108 61//61 60//60
f 111//111 63//63 62//62
f 114//114 65//65 64//64
f 117//117 67//67 66//66
f 119//119 58//58 68//68
f 121//121 60//60 69//69
f 123//123 62//62 70//70
f 125//125 64//64 71//71
f 127//127 66//66 72//72
f 74//74 11//11 46//46
f 77//77 8//8 48//48
f 80//80 20//20 50//50
f 83//83 17//17 52//52
f 86//86 14//14 44//44
f 89//89 68//68 42//42
f 92//92 69//69 30//30
f 95//95 70//70 33//33
f 98//98 71//71 36//36
f 101//101 72//72 39//39
f 104//104 29//29 61//61
f 107//107 32//32 63//63
f 110//110 35//35 65//65
f 113//113 38//38 67//67
f 116//116 41//41 59//59
f 118//118 53//53 12//12
f 120//120 54//54 15//15
f 122//122 55//55 18//18
f 124//124 56//56 21//21
f 126//126 57//57 9//9
f 129//129 75//75 74//74
f 131//131 78//78 77//77
f 133//133 81//81 80//80
f 135//135 84//84 83//83
f 137//137 87//87 86//86
f 138//138 90//90 89//89
f 139//139 93//93 92//92
f 140//140 96//96 95//95
f 141//141 99//99 98//98
f 142//142 102//102 101//101
f 144//144 105//105 104//104
f 146//146 108//108 107//107
f 148//148 111//111 110//110
f 150//150 114//114 113//113
f 152//152 117//117 116//116
f 153//153 119//119 118//118
f 154//154 121//121 120//120
f 155//155 123//123 122//122
f 156//156 125//125 124//124
f 157//157 127//127 126//126
