# Created by Open3D 
# object name: part_030
# number of vertices: 162
# number of triangles: 320
v -4.80911 -0.907426 0.836309
vn -0.275498 0.331575 0.902308
v -4.8105 -0.930321 0.843906
vn -0.303225 0.289295 0.907944
v -4.79146 -0.918523 0.845516
vn -0.249049 0.315203 0.915763
v -4.7838 -0.891117 0.837529
vn -0.250052 0.348205 0.903453
v -4.80827 -0.891775 0.830554
vn -0.285273 0.372776 0.882982
v -4.82652 -0.90483 0.829646
vn -0.326078 0.324426 0.887931
v -4.00903 -0.392838 0.857223
vn -0.220843 0.366729 0.903736
v -4.00659 -0.413721 0.866032
vn -0.2174 0.335561 0.916589
v -3.98791 -0.401258 0.865408
vn -0.171113 0.374264 0.911398
v -4.39747 -0.668507 0.854902
vn 0.427608 -0.688643 0.585595
v -4.7701 -0.908585 0.844488
vn 0.451074 -0.723807 0.522146
v -4.39673 -0.669569 0.852742
vn 0.477959 -0.760961 0.438742
v -4.80786 -0.951597 0.807799
vn 0.394206 -0.815543 0.423664
v -4.81362 -0.954028 0.807154
vn -0.511543 -0.839338 0.183944
v -4.79946 -0.96458 0.774327
vn 0.338507 -0.85841 0.385415
v -4.8259 -0.922897 0.791744
vn -0.562836 0.707085 -0.428073
v -4.82689 -0.905087 0.823466
vn -0.516679 0.744033 -0.423624
v -4.80944 -0.929631 0.759988
vn -0.513964 0.740214 -0.433502
v -4.49903 -0.691541 0.835895
vn -0.51816 0.816042 -0.256096
v -4.06118 -0.409764 0.848508
vn -0.540129 0.841319 -0.0210402
v -4.04339 -0.398839 0.84711
vn -0.504161 0.798297 -0.32946
v -3.98842 -0.421834 0.78223
vn 0.275497 -0.331577 -0.902307
v -3.9677 -0.429703 0.791841
vn 0.323838 -0.322089 -0.8896
v -3.98595 -0.442758 0.790934
vn 0.278875 -0.362654 -0.889219
v -4.01353 -0.438478 0.781197
vn 0.250054 -0.348208 -0.903451
v -4.00276 -0.416009 0.775971
vn 0.242472 -0.304682 -0.921074
v -3.98372 -0.404211 0.777582
vn 0.302022 -0.286154 -0.90934
v -4.37783 -0.696141 0.783433
vn 0.51816 -0.816042 0.256097
v -4.00517 -0.456105 0.79387
vn 0.505309 -0.797767 0.328984
v -4.37833 -0.695452 0.7858
vn 0.483865 -0.769271 0.417249
v -4.7885 -0.936422 0.761316
vn 0.220841 -0.366727 -0.903737
v -4.77082 -0.94756 0.770418
vn 0.247223 -0.383009 -0.890048
v -4.79028 -0.958766 0.770339
vn 0.191726 -0.407057 -0.893054
v -4.47939 -0.719174 0.764426
vn -0.427611 0.688648 -0.585587
v -4.75161 -0.895225 0.756453
vn -0.335304 0.551575 -0.763764
v -4.76978 -0.905535 0.757508
vn -0.452119 0.722614 -0.522893
v -3.98636 -0.382935 0.813689
vn -0.394205 0.815543 -0.423665
v -3.98588 -0.399937 0.781516
vn -0.444374 0.784973 -0.431682
v -4.00332 -0.375393 0.844994
vn -0.447089 0.788791 -0.421805
v -3.96832 -0.411635 0.829744
vn 0.562838 -0.707084 0.428073
v -3.9637 -0.407387 0.829371
vn 0.968389 0.112521 0.222626
v -3.97706 -0.398107 0.862911
vn 0.608576 -0.64836 0.457455
v -4.80834 -0.934595 0.839972
vn 0.444377 -0.784971 0.431682
v -4.81777 -0.938826 0.840935
vn 0.320765 -0.833469 0.449933
v -4.04261 -0.439307 0.865034
vn 0.336547 -0.553495 0.761827
v -4.75323 -0.896358 0.846459
vn 0.335881 -0.553918 0.761813
v -4.0234 -0.386973 0.85107
vn -0.25355 0.393176 0.883813
v -4.03439 -0.409123 0.857118
vn -0.246547 0.350466 0.903542
v -4.78905 -0.878427 0.827618
vn -0.505624 0.797892 -0.328196
v -4.7718 -0.866814 0.829933
vn -0.540955 0.840909 -0.0154916
v -4.83052 -0.927145 0.792117
vn -0.959178 0.0416774 -0.279715
v -4.83547 -0.910672 0.825185
vn -0.62631 0.673304 -0.392935
v -4.02444 -0.428997 0.86398
vn 0.452212 -0.723064 0.52219
v -4.7909 -0.959139 0.776494
vn 0.447092 -0.78879 0.421805
v -4.81716 -0.936425 0.758577
vn -0.608573 0.648362 -0.457456
v -4.49955 -0.692887 0.833501
vn -0.483866 0.769272 -0.417246
v -4.00394 -0.375767 0.851149
vn -0.192863 0.410105 0.891414
v -3.96733 -0.429445 0.798022
vn 0.516679 -0.744033 0.423624
v -3.95875 -0.423861 0.796303
vn 0.626311 -0.673303 0.392935
v -4.73304 -0.924768 0.772979
vn 0.540178 -0.841348 0.0184785
v -4.02242 -0.467718 0.791555
vn 0.540842 -0.840921 0.0184774
v -4.78763 -0.920811 0.755455
vn 0.210749 -0.325083 -0.921903
v -4.76293 -0.920471 0.761608
vn 0.246546 -0.350464 -0.903543
v -4.02412 -0.425947 0.777
vn -0.451327 0.723965 -0.521707
v -4.04099 -0.438175 0.775029
vn -0.336989 0.555518 -0.760157
v -3.9806 -0.380504 0.814333
vn 0.369613 0.89631 -0.244981
v -3.97645 -0.395706 0.780553
vn -0.320774 0.833466 -0.449932
v -3.98478 -0.404901 0.8615
vn 0.513963 -0.740215 0.433501
v -4.75083 -0.935693 0.774378
vn 0.504164 -0.798499 0.328965
v -4.80631 -0.933274 0.756079
vn 0.168809 -0.371832 -0.912822
v -4.48115 -0.71877 0.766559
vn -0.477958 0.76096 -0.438744
v -3.99476 -0.369952 0.847161
vn -0.338502 0.858413 -0.385414
v -4.79505 -0.925156 0.842605
vn 0.464571 -0.765928 0.444442
v -4.78943 -0.919937 0.844888
vn 0.355709 -0.610758 0.707422
v -4.80857 -0.932569 0.843104
vn 0.358592 -0.676739 0.64299
v -4.01905 -0.423141 0.865956
vn 0.0885809 -0.172736 0.980977
v -4.0434 -0.43721 0.865449
vn -0.232859 0.325589 0.916389
v -4.3984 -0.667119 0.856268
vn 0.0800283 -0.164385 0.983144
v -4.037 -0.394584 0.849981
vn -0.483314 0.736338 0.473512
v -4.49519 -0.68907 0.838154
vn -0.482761 0.730995 0.482274
v -4.06023 -0.410431 0.850469
vn -0.270881 0.386139 0.881771
v -4.81388 -0.895191 0.825843
vn -0.497068 0.763997 -0.411379
v -4.82681 -0.903547 0.826869
vn -0.57012 0.800801 -0.183523
v -4.80796 -0.890453 0.828395
vn -0.549631 0.829607 -0.0982749
v -4.82549 -0.938838 0.79802
vn -0.840855 -0.540814 -0.0219805
v -4.82273 -0.940144 0.840128
vn -0.810321 -0.545013 0.21527
v -4.83877 -0.914624 0.825852
vn -0.931615 -0.348137 0.104377
v -3.99896 -0.413138 0.863415
vn 0.487813 -0.750978 0.445052
v -3.98664 -0.403931 0.864589
vn 0.443243 -0.622304 0.645193
v -4.00612 -0.416136 0.865364
vn 0.382039 -0.593823 0.708111
v -4.77642 -0.951359 0.774835
vn 0.473821 -0.778947 0.410774
v -4.75206 -0.934845 0.77773
vn 0.480973 -0.766399 0.425789
v -4.78769 -0.939621 0.80871
vn 0.469566 -0.772392 0.42769
v -4.81355 -0.936035 0.756658
vn -0.0816752 -0.242682 -0.966661
v -4.80879 -0.948297 0.762489
vn 0.0427131 -0.467167 -0.883137
v -4.82044 -0.940407 0.759168
vn -0.830301 -0.490678 -0.264264
v -4.49071 -0.705978 0.799988
vn -0.480946 0.76517 -0.428026
v -4.7712 -0.904392 0.760694
vn -0.481068 0.763832 -0.430272
v -4.78867 -0.87982 0.824244
vn -0.482292 0.765555 -0.425817
v -3.99777 -0.371282 0.849606
vn -0.175484 0.651809 0.737801
v -4.00488 -0.374909 0.848354
vn -0.485467 0.855246 -0.181317
v -4.0115 -0.37884 0.850169
vn -0.465214 0.794159 0.391007
v -3.98034 -0.439341 0.795644
vn 0.497066 -0.763998 0.411378
v -3.98626 -0.44408 0.793093
vn 0.549629 -0.829607 0.0982865
v -3.96741 -0.430986 0.794618
vn 0.570117 -0.8008 0.183537
v -4.75722 -0.939949 0.771507
vn 0.483408 -0.737278 -0.471951
v -4.73399 -0.924102 0.771018
vn 0.262791 -0.37321 -0.88975
v -4.37779 -0.696115 0.781275
vn 0.482753 -0.730982 -0.482302
v -4.77517 -0.911391 0.755532
vn -0.0904031 0.174503 -0.980498
v -4.47458 -0.718066 0.763161
vn -0.0800172 0.164368 -0.983148
v -4.75082 -0.897323 0.756039
vn 0.227206 -0.31665 -0.920929
v -3.99917 -0.409376 0.778882
vn -0.464567 0.765929 -0.444443
v -3.98565 -0.401963 0.778383
vn -0.358593 0.676746 -0.642982
v -4.00479 -0.414595 0.776599
vn -0.355707 0.610754 -0.707427
v -3.97227 -0.390072 0.820323
vn 0.840855 0.540813 0.0219779
v -3.95545 -0.419909 0.795636
vn 0.925215 0.362221 -0.11302
v -3.97149 -0.394388 0.78136
vn 0.799845 0.557782 -0.221647
v -4.02302 -0.43014 0.860793
vn 0.480915 -0.763935 0.43026
v -3.9876 -0.425027 0.829624
vn 0.492241 -0.757807 0.428284
v -4.78934 -0.959624 0.773133
vn 0.485465 -0.85524 0.181354
v -4.76957 -0.94788 0.772617
vn 0.523297 -0.846536 0.0976516
v -4.80758 -0.930601 0.756899
vn -0.443247 0.622305 -0.645189
v -4.80038 -0.927593 0.7556
vn -0.17354 0.222078 -0.959461
v -4.04216 -0.399687 0.843758
vn -0.481073 0.766333 -0.425796
v -4.02469 -0.424258 0.780208
vn -0.479855 0.76462 -0.430227
v -3.98891 -0.380704 0.855904
vn -0.0427157 0.467167 0.883137
v -3.98982 -0.368605 0.848043
vn 0.698534 0.700317 0.146989
v -4.81599 -0.935755 0.842994
vn -0.335301 0.0631866 0.93999
v -4.8029 -0.927304 0.844739
vn 0.0946363 -0.272787 0.957409
v -4.77773 -0.911098 0.846124
vn 0.0841528 -0.175563 0.980865
v -4.75483 -0.89478 0.846853
vn -0.233571 0.325129 0.916371
v -4.40935 -0.649721 0.847279
vn -0.2483 0.349336 0.903499
v -4.77166 -0.868001 0.831873
vn -0.268943 0.381388 0.884428
v -4.79568 -0.882541 0.83015
vn -0.488927 0.735195 0.469509
v -4.82056 -0.899205 0.829021
vn -0.544099 0.743414 0.388964
v -4.8331 -0.908539 0.82777
vn -0.547416 0.412587 0.728085
v -4.82843 -0.920663 0.833959
vn -0.439837 0.211752 0.872757
v -3.99384 -0.406939 0.865887
vn 0.173531 -0.222063 0.959466
v -4.76953 -0.910274 0.84128
vn 0.479753 -0.764683 0.430229
v -4.8044 -0.965927 0.773444
vn -0.708364 -0.688456 -0.155719
v -4.80662 -0.909505 0.791864
vn -0.492243 0.757806 -0.428284
v -4.02465 -0.386652 0.848871
vn -0.523299 0.846539 -0.0976196
v -3.96112 -0.425993 0.793717
vn 0.520698 -0.358127 -0.774996
v -3.97366 -0.435327 0.792467
vn 0.544099 -0.743421 -0.38895
v -3.99854 -0.451992 0.791338
vn 0.48783 -0.734442 -0.471823
v -4.02256 -0.466531 0.789615
vn 0.263504 -0.372751 -0.889731
v -4.3884 -0.67919 0.771064
vn 0.248301 -0.349337 -0.903499
v -4.03939 -0.439752 0.774635
vn 0.225139 -0.311718 -0.923117
v -4.01649 -0.423434 0.775364
vn -0.0835314 0.17388 -0.981218
v -3.99132 -0.407228 0.776749
vn -0.0946457 0.272803 -0.957403
v -3.97823 -0.398777 0.778494
vn 0.290266 -0.00346105 -0.95694
v -3.96926 -0.408337 0.784434
vn 0.439843 -0.211746 -0.872755
v -4.00555 -0.454712 0.797243
vn 0.482136 -0.765652 0.425819
v -4.78272 -0.955692 0.771318
vn 0.465211 -0.794157 -0.391016
v -4.7881 -0.918396 0.756124
vn -0.382041 0.593826 -0.708107
v -4.00653 -0.394911 0.812778
vn -0.469564 0.772392 -0.42769
v -3.97378 -0.394125 0.862319
vn 0.82326 0.505662 0.25797
v -3.98067 -0.398497 0.864829
vn 0.0466345 0.308829 0.949974
v -4.38749 -0.68257 0.819304
vn 0.480946 -0.76517 0.428026
v -4.79645 -0.96325 0.771882
vn 0.138756 -0.603782 -0.78498
v -4.79526 -0.921395 0.758073
vn -0.487813 0.750978 -0.445052
v -4.0178 -0.383173 0.846653
vn -0.473823 0.778948 -0.410771
f 1//1 2//2 3//3
f 1//1 3//3 4//4
f 1//1 4//4 5//5
f 1//1 5//5 6//6
f 1//1 6//6 2//2
f 7//7 8//8 9//9
f 10//10 11//11 12//12
f 13//13 14//14 15//15
f 16//16 17//17 18//18
f 19//19 20//20 21//21
f 22//22 23//23 24//24
f 22//22 24//24 25//25
f 22//22 25//25 26//26
f 22//22 26//26 27//27
f 22//22 27//27 23//23
f 28//28 29//29 30//30
f 31//31 32//32 33//33
f 34//34 35//35 36//36
f 37//37 38//38 39//39
f 40//40 41//41 42//42
f 13//13 43//43 44//44
f 10//10 45//45 46//46
f 7//7 47//47 48//48
f 19//19 49//49 50//50
f 16//16 51//51 52//52
f 10//10 53//53 45//45
f 13//13 54//54 43//43
f 16//16 55//55 51//51
f 19//19 56//56 49//49
f 7//7 57//57 47//47
f 40//40 58//58 59//59
f 28//28 60//60 61//61
f 31//31 62//62 63//63
f 34//34 64//64 65//65
f 37//37 66//66 67//67
f 40//40 68//68 58//58
f 28//28 69//69 60//60
f 31//31 70//70 62//62
f 34//34 71//71 64//64
f 37//37 72//72 66//66
f 10//10 46//46 11//11
f 7//7 48//48 8//8
f 19//19 50//50 20//20
f 16//16 52//52 17//17
f 13//13 44//44 14//14
f 40//40 42//42 68//68
f 28//28 30//30 69//69
f 31//31 33//33 70//70
f 34//34 36//36 71//71
f 37//37 39//39 72//72
f 28//28 61//61 29//29
f 31//31 63//63 32//32
f 34//34 65//65 35//35
f 37//37 67//67 38//38
f 40//40 59//59 41//41
f 10//10 12//12 53//53
f 13//13 15//15 54//54
f 16//16 18//18 55//55
f 19//19 21//21 56//56
f 7//7 9//9 57//57
f 73//73 74//74 75//75
f 76//76 77//77 78//78
f 79//79 80//80 81//81
f 82//82 83//83 84//84
f 85//85 86//86 87//87
f 88//88 89//89 90//90
f 91//91 92//92 93//93
f 94//94 95//95 96//96
f 97//97 98//98 99//99
f 100//100 101//101 102//102
f 103//103 104//104 105//105
f 106//106 107//107 108//108
f 109//109 110//110 111//111
f 112//112 113//113 114//114
f 115//115 116//116 117//117
f 88//88 118//118 119//119
f 91//91 120//120 121//121
f 94//94 122//122 123//123
f 97//97 124//124 125//125
f 100//100 126//126 127//127
f 128//128 129//129 2//2
f 130//130 131//131 3//3
f 132//132 133//133 4//4
f 134//134 135//135 5//5
f 136//136 137//137 6//6
f 76//76 138//138 8//8
f 73//73 139//139 11//11
f 85//85 140//140 14//14
f 82//82 141//141 17//17
f 79//79 142//142 20//20
f 143//143 144//144 23//23
f 145//145 146//146 24//24
f 147//147 148//148 25//25
f 149//149 150//150 26//26
f 151//151 152//152 27//27
f 103//103 153//153 29//29
f 106//106 154//154 32//32
f 109//109 155//155 35//35
f 112//112 156//156 38//38
f 115//115 157//157 41//41
f 73//73 75//75 43//43
f 76//76 78//78 45//45
f 79//79 81//81 47//47
f 82//82 84//84 49//49
f 85//85 87//87 51//51
f 88//88 90//90 53//53
f 91//91 93//93 54//54
f 94//94 96//96 55//55
f 97//97 99//99 56//56
f 100//100 102//102 57//57
f 103//103 105//105 58//58
f 106//106 108//108 60//60
f 109//109 111//111 62//62
f 112//112 114//114 64//64
f 115//115 117//117 66//66
f 88//88 119//119 68//68
f 91//91 121//121 69//69
f 94//94 123//123 70//70
f 97//97 125//125 71//71
f 100//100 127//127 72//72
f 130//130 74//74 46//46
f 132//132 77//77 48//48
f 134//134 80//80 50//50
f 136//136 83//83 52//52
f 128//128 86//86 44//44
f 158//158 89//89 42//42
f 159//159 92//92 30//30
f 160//160 95//95 33//33
f 161//161 98//98 36//36
f 162//162 101//101 39//39
f 145//145 104//104 61//61
f 147//147 107//107 63//63
f 149//149 110//110 65//65
f 151//151 113//113 67//67
f 143//143 116//116 59//59
f 159//159 118//118 12//12
f 160//160 120//120 15//15
f 161//161 122//122 18//18
f 162//162 124//124 21//21
f 158//158 126//126 9//9
f 130//130 129//129 74//74
f 132//132 131//131 77//77
f 134//134 133//133 80//80
f 136//136 135//135 83//83
f 128//128 137//137 86//86
f 158//158 138//138 89//89
f 159//159 139//139 92//92
f 160//160 140//140 95//95
f 161//161 141//141 98//98
f 162//162 142//142 101//101
f 145//145 144//144 104//104
f 147//147 146//146 107//107
f 149//149 148//148 110//110
f 151//151 150//150 113//113
f 143//143 152//152 116//116
f 159//159 153//153 118//118
f 160//160 154//154 120//120
f 161//161 155//155 122//122
f 162//162 156//156 124//124
f 158//158 157//157 126//126
f 130//130 3//3 129//129
f 132//132 4//4 131//131
f 134//134 5//5 133//133
f 136//136 6//6 135//135
f 128//128 2//2 137//137
f 158//158 9//9 138//138
f 159//159 12//12 139//139
f 160//160 15//15 140//140
f 161//161 18//18 141//141
f 162//162 21//21 142//142
f 145//145 24//24 144//144
f 147//147 25//25 146//146
f 149//149 26//26 148//148
f 151//151 27//27 150//150
f 143//143 23//23 152//152
f 159//159 30//30 153//153
f 160//160 33//33 154//154
f 161//161 36//36 155//155
f 162//162 39//39 156//156
f 158//158 42//42 157//157
f 128//128 44//44 75//75
f 130//130 46//46 78//78
f 132//132 48//48 81//81
f 134//134 50//50 84//84
f 136//136 52//52 87//87
f 76//76 45//45 90//90
f 73//73 43//43 93//93
f 85//85 51//51 96//96
f 82//82 49//49 99//99
f 79//79 47//47 102//102
f 143//143 59//59 105//105
f 145//145 61//61 108//108
f 147//147 63//63 111//111
f 149//149 65//65 114//114
f 151//151 67//67 117//117
f 103//103 58//58 119//119
f 106//106 60//60 121//121
f 109//109 62//62 123//123
f 112//112 64//64 125//125
f 115//115 66//66 127//127
f 73//73 11//11 74//74
f 76//76 8//8 77//77
f 79//79 20//20 80//80
f 82//82 17//17 83//83
f 85//85 14//14 86//86
f 88//88 68//68 89//89
f 91//91 69//69 92//92
f 94//94 70//70 95//95
f 97//97 71//71 98//98
f 100//100 72//72 101//101
f 103//103 29//29 104//104
f 106//106 32//32 107//107
f 109//109 35//35 110//110
f 112//112 38//38 113//113
f 115//115 41//41 116//116
f 88//88 53//53 118//118
f 91//91 54//54 120//120
f 94//94 55//55 122//122
f 97//97 56//56 124//124
f 100//100 57//57 126//126
f 128//128 75//75 129//129
f 130//130 78//78 131//131
f 132//132 81//81 133//133
f 134//134 84//84 135//135
f 136//136 87//87 137//137
f 76//76 90//90 138//138
f 73//73 93//93 139//139
f 85//85 96//96 140//140
f 82//82 99//99 141//141
f 79//79 102//102 142//142
f 143//143 105//105 144//144
f 145//145 108//108 146//146
f 147//147 111//111 148//148
f 149//149 114//114 150//150
f 151//151 117//117 152//152
f 103//103 119//119 153//153
f 106//106 121//121 154//154
f 109//109 123//123 155//155
f 112//112 125//125 156//156
f 115//115 127//127 157//157
f 129//129 3//3 2//2
f 131//131 4//4 3//3
f 133//133 5//5 4//4
f 135//135 6//6 5//5
f 137//137 2//2 6//6
f 138//138 9//9 8//8
f 139//139 12//12 11//11
f 140//140 15//15 14//14
f 141//141 18//18 17//17
f 142//142 21//21 20//20
f 144//144 24//24 23//23
f 146//146 25//25 24//24
f 148//148 26//26 25//25
f 150//150 27//27 26//26
f 152//152 23//23 27//27
f 153//153 30//30 29//29
f 154//154 33//33 32//32
f 155//155 36//36 35//35
f 156//156 39//39 38//38
f 157//157 42//42 41//41
f 75//75 44//44 43//43
f 78//78 46//46 45//45
f 81//81 48//48 47//47
f 84//84 50//50 49//49
f 87//87 52//52 51//51
f 90//90 45//45 53//53
f 93//93 43//43 54//54
f 96//96 51//51 55//55
f 99//99 49//49 56//56
f 102//102 47//47 57//57
f 105//105 59//59 58//58
f 108//108 61//61 60//60
f 111//111 63//63 62//62
f 114//114 65//65 64//64
f 117//117 67//67 66//66
f 119//119 58//58 68//68
f 121//121 60//60 69//69
f 123//123 62//62 70//70
f 125//125 64//64 71//71
f 127//127 66//66 72//72
f 74//74 11//11 46//46
f 77//77 8//8 48//48
f 80//80 20//20 50//50
f 83//83 17//17 52//52
f 86//86 14//14 44//44
f 89//89 68//68 42//42
f 92//92 69//69 30//30
f 95//95 70//70 33//33
f 98//98 71//71 36//36
f 101//101 72//72 39//39
f 104//104 29//29 61//61
f 107//107 32//32 63//63
f 110//110 35//35 65//65
f 113//113 38//38 67//67
f 116//116 41//41 59//59
f 118//118 53//53 12//12
f 120//120 54//54 15//15
f 122//122 55//55 18//18
f 124//124 56//56 21//21
f 126//126 57//57 9//9
f 129//129 75//75 74//74
f 131//131 78//78 77//77
f 133//133 81//81 80//80
f 135//135 84//84 83//83
f 137//137 87//87 86//86
f 138//138 90//90 89//89
f 139//139 93//93 92//92
f 140//140 96//96 95//95
f 141//141 99//99 98//98
f 142//142 102//102 101//101
f 144//144 105//105 104//104
f 146//146 108//108 107//107
f 148//148 111//111 110//110
f 150//150 114//114 113//113
f 152//152 117//117 116//116
f 153//153 119//119 118//118
f 154//154 121//121 120//120
f 155//155 123//123 122//122
f 156//156 125//125 124//124
f 157//157 127//127 126//126
