# Created by Open3D 
# object name: part_070
# number of vertices: 162
# number of triangles: 320
v -11.0811 -5.2963 1.45882
vn -0.0582525 0.00806087 0.998269
v -11.0858 -5.32444 1.45807
vn -0.0825202 -0.061648 0.994681
v -11.0579 -5.30536 1.45978
vn -0.00785738 -0.0314296 0.999475
v -11.0441 -5.26999 1.45984
vn -0.0257489 0.0313503 0.999177
v -11.0782 -5.27695 1.45836
vn -0.0947141 0.0899658 0.991431
v -11.1052 -5.29736 1.45672
vn -0.136591 0.0125155 0.990549
v -9.91347 -4.46109 1.45876
vn 0.0112572 0.0577774 0.998266
v -9.91242 -4.48603 1.45972
vn 0.0323507 -0.00267501 0.999473
v -9.88533 -4.46573 1.45801
vn 0.0850689 0.0582202 0.994673
v -10.4838 -4.89762 1.45586
vn 0.576587 -0.806095 0.133263
v -11.0279 -5.28689 1.45439
vn 0.578802 -0.809973 0.0945034
v -10.4835 -4.89798 1.4509
vn 0.581144 -0.812472 0.0464767
v -11.0951 -5.33765 1.37742
vn 0.525802 -0.849647 0.0403982
v -11.1034 -5.3421 1.37738
vn -0.263647 -0.96428 0.0255935
v -11.0944 -5.34038 1.30432
vn 0.484738 -0.874381 0.0220772
v -11.1169 -5.30716 1.37591
vn -0.634194 0.772119 -0.0403915
v -11.1072 -5.2961 1.44554
vn -0.603451 0.796507 -0.0377145
v -11.1039 -5.3007 1.30623
vn -0.603325 0.796324 -0.0432174
v -10.6273 -4.95189 1.45427
vn -0.580964 0.812226 0.0526254
v -9.98793 -4.49495 1.45646
vn -0.57198 0.80012 0.180686
v -9.96251 -4.47646 1.45275
vn -0.581415 0.813498 0.0133642
v -9.9096 -4.46652 1.29417
vn 0.0582519 -0.00805991 -0.998269
v -9.88153 -4.47106 1.29655
vn 0.131818 -0.00726875 -0.991247
v -9.90854 -4.49147 1.29491
vn 0.0792835 -0.0684254 -0.994501
v -9.94643 -4.49318 1.29317
vn 0.0257506 -0.0313528 -0.999177
v -9.92886 -4.46306 1.29349
vn -0.00763373 0.0531196 -0.998559
v -9.90089 -4.44398 1.2952
vn 0.079079 0.0678897 -0.994554
v -10.4801 -4.90279 1.29901
vn 0.580963 -0.812226 -0.0526411
v -9.93598 -4.51356 1.30047
vn 0.582085 -0.813013 -0.0136561
v -10.4801 -4.90282 1.30398
vn 0.581426 -0.812868 0.0344846
v -11.0773 -5.30173 1.29423
vn -0.0112574 -0.0577789 -0.998266
v -11.054 -5.31079 1.29496
vn 0.0390774 -0.0971883 -0.994499
v -11.082 -5.32976 1.29661
vn -0.0357727 -0.127142 -0.991239
v -10.6236 -4.95707 1.29742
vn -0.576588 0.806097 -0.133242
v -11.0212 -5.24209 1.29525
vn -0.56158 0.784581 -0.262795
v -11.0471 -5.25993 1.29893
vn -0.579615 0.809347 -0.0948867
v -9.89165 -4.43077 1.37585
vn -0.525803 0.849647 -0.040398
v -9.90196 -4.44097 1.30617
vn -0.558697 0.828245 -0.0432237
v -9.90524 -4.43638 1.44548
vn -0.558827 0.828426 -0.0377175
v -9.86984 -4.46125 1.37736
vn 0.634193 -0.772119 0.0403915
v -9.86296 -4.45487 1.37732
vn 0.99775 -0.0619975 0.0255298
v -9.87091 -4.45794 1.45044
vn 0.670009 -0.740058 0.0583346
v -11.0848 -5.32744 1.4471
vn 0.558697 -0.828245 0.0432237
v -11.0979 -5.33556 1.4505
vn 0.483903 -0.873175 0.0583447
v -9.96549 -4.52633 1.45802
vn 0.561842 -0.784991 0.261003
v -11.0026 -5.26815 1.45807
vn 0.561391 -0.785322 0.260979
v -9.93274 -4.45762 1.45831
vn -0.0544737 0.118741 0.99143
v -9.95035 -4.48769 1.45979
vn -0.0212856 0.0345426 0.999177
v -11.0508 -5.25486 1.4528
vn -0.582179 0.812939 0.0140413
v -11.025 -5.23677 1.45651
vn -0.572101 0.799319 0.183819
v -11.1238 -5.31355 1.37595
vn -0.970305 0.239923 -0.0307514
v -11.1193 -5.30566 1.44901
vn -0.670867 0.741249 -0.0220701
v -9.9396 -4.50849 1.45434
vn 0.579539 -0.809447 0.0945049
v -11.0815 -5.33204 1.30779
vn 0.558827 -0.828426 0.0377176
v -11.1158 -5.31048 1.30283
vn -0.670009 0.740058 -0.0583344
v -10.6288 -4.95293 1.44929
vn -0.581426 0.812868 -0.0344916
v -9.90469 -4.43866 1.45666
vn 0.0323516 0.133352 0.990541
v -9.87955 -4.47231 1.30773
vn 0.603451 -0.796508 0.0377144
v -9.86747 -4.46276 1.30426
vn 0.670866 -0.741251 0.0220703
v -10.9988 -5.27347 1.29681
vn 0.571819 -0.799932 -0.182019
v -9.96169 -4.53165 1.29676
vn 0.572278 -0.799612 -0.181984
v -11.0743 -5.28238 1.29355
vn -0.0478733 0.0243468 -0.998557
v -11.0401 -5.27549 1.29322
vn 0.0212838 -0.0345403 -0.999177
v -9.95889 -4.48153 1.29888
vn -0.578883 0.809951 -0.0942039
v -9.98414 -4.50027 1.2952
vn -0.561614 0.785597 -0.259667
v -9.88338 -4.42632 1.37589
vn 0.0863953 0.995785 -0.0308047
v -9.88886 -4.43286 1.30277
vn -0.483902 0.873175 -0.0583451
v -9.88283 -4.46772 1.44704
vn 0.603325 -0.796324 0.0432174
v -11.0242 -5.29196 1.30053
vn 0.581349 -0.81354 -0.0136678
v -11.1014 -5.30269 1.29526
vn -0.0898616 -0.0529505 -0.994546
v -10.6253 -4.95777 1.30238
vn -0.581144 0.812473 -0.0464706
v -9.8923 -4.42804 1.44895
vn -0.484739 0.87438 -0.0220769
v -11.0647 -5.31319 1.45182
vn 0.573569 -0.817638 0.0498574
v -11.0556 -5.3061 1.45675
vn 0.558999 -0.800153 0.21743
v -11.0839 -5.3261 1.45421
vn 0.544921 -0.820649 0.172036
v -9.93083 -4.50068 1.45924
vn 0.469096 -0.651623 0.596101
v -9.96601 -4.52435 1.46053
vn 0.0128259 -0.0169065 0.999775
v -10.4844 -4.89674 1.45969
vn 0.463069 -0.647357 0.605389
v -9.95252 -4.47035 1.45773
vn -0.491431 0.690624 0.530598
v -10.6211 -4.94847 1.45817
vn -0.490029 0.685127 0.538955
v -9.98635 -4.49591 1.45912
vn -0.0784974 0.110799 0.990738
v -11.0874 -5.28136 1.45024
vn -0.588922 0.807591 -0.0310927
v -11.106 -5.29527 1.45268
vn -0.606801 0.789527 0.0918685
v -11.078 -5.27479 1.45519
vn -0.58501 0.799244 0.137738
v -11.1181 -5.32656 1.37652
vn -0.813348 -0.581778 4.0794e-05
v -11.1049 -5.33846 1.45052
vn -0.68884 -0.70629 0.163258
v -11.1243 -5.31135 1.44916
vn -0.9093 -0.389623 0.146175
v -9.90282 -4.48215 1.45177
vn 0.58848 -0.806973 0.0498599
v -9.88438 -4.46808 1.45416
vn 0.600591 -0.780827 0.172046
v -9.91244 -4.4884 1.45669
vn 0.576643 -0.787521 0.21747
v -11.0612 -5.31809 1.30309
vn 0.574015 -0.818254 0.0310979
v -11.0249 -5.29232 1.30773
vn 0.580951 -0.812992 0.0392453
v -11.0658 -5.31781 1.37746
vn 0.574001 -0.817853 0.0404837
v -11.1114 -5.30833 1.29791
vn -0.46853 0.206988 -0.858857
v -11.1062 -5.32205 1.29809
vn -0.225228 -0.208512 -0.951733
v -11.1208 -5.31618 1.30282
vn -0.902031 -0.399803 -0.162784
v -10.6276 -4.95563 1.37583
vn -0.581296 0.812685 -0.0404828
v -11.048 -5.25998 1.30612
vn -0.581738 0.812306 -0.0417234
v -11.0513 -5.25538 1.44559
vn -0.581796 0.812388 -0.0392401
v -9.89599 -4.43118 1.45392
vn -0.0840909 0.565623 0.820366
v -9.90642 -4.43726 1.45262
vn -0.551124 0.829347 0.0919027
v -9.91555 -4.44434 1.45643
vn -0.483896 0.746521 0.456674
v -9.89932 -4.48706 1.30303
vn 0.588922 -0.807591 0.0310931
v -9.90871 -4.49363 1.29808
vn 0.585011 -0.799245 -0.137731
v -9.88076 -4.47315 1.30059
vn 0.6068 -0.789528 -0.0918645
v -11.0342 -5.29807 1.29554
vn 0.491684 -0.691601 -0.529089
v -11.0004 -5.27251 1.29415
vn 0.0588681 -0.083326 -0.994782
v -10.4805 -4.90216 1.2951
vn 0.490037 -0.685139 -0.538933
v -11.0559 -5.26774 1.29403
vn -0.470372 0.652521 -0.59411
v -10.6173 -4.95389 1.29359
vn -0.463071 0.647361 -0.605383
v -11.0207 -5.24407 1.29274
vn -0.0260736 0.0353856 -0.999034
v -9.92208 -4.45523 1.30145
vn -0.573569 0.817638 -0.0498582
v -9.90281 -4.44232 1.29906
vn -0.544921 0.820649 -0.172037
v -9.93111 -4.46232 1.29652
vn -0.558999 0.800153 -0.21743
v -9.87289 -4.43588 1.37646
vn 0.813348 0.581777 -4.09227e-05
v -9.86246 -4.45706 1.30411
vn 0.898309 0.413446 -0.148671
v -9.88184 -4.42996 1.30276
vn 0.669777 0.724484 -0.162855
v -9.9387 -4.50844 1.44715
vn 0.581639 -0.812376 0.0417197
v -9.89809 -4.48259 1.3774
vn 0.588546 -0.80745 0.0404805
v -11.0803 -5.33116 1.30065
vn 0.551124 -0.829347 -0.0919031
v -11.0519 -5.31133 1.29814
vn 0.567358 -0.811861 -0.137794
v -11.1024 -5.30033 1.29912
vn -0.600591 0.780827 -0.172046
v -11.0925 -5.29424 1.29535
vn -0.526924 0.666668 -0.527167
v -9.96183 -4.47609 1.44554
vn -0.581016 0.812945 -0.0392478
v -9.95855 -4.48069 1.30607
vn -0.580958 0.812864 -0.0417183
v -9.8847 -4.44049 1.45489
vn 0.225228 0.208512 0.951733
v -9.88529 -4.42513 1.4491
vn 0.6625 0.734675 0.146102
v -11.0944 -5.33209 1.45542
vn -0.0402204 -0.423186 0.90515
v -11.075 -5.31877 1.45797
vn 0.460734 -0.714064 0.527103
v -11.0381 -5.29267 1.4593
vn 0.465173 -0.654461 0.596066
v -11.0043 -5.26702 1.46058
vn 0.0119188 -0.0175522 0.999775
v -10.4975 -4.87847 1.46012
vn -0.0235172 0.0329464 0.99918
v -11.0246 -5.23858 1.45917
vn -0.0729413 0.101045 0.992204
v -11.0598 -5.26234 1.45779
vn -0.496798 0.689543 0.526993
v -11.0963 -5.28892 1.45649
vn -0.550107 0.699141 0.45671
v -11.1151 -5.30318 1.45398
vn -0.50806 0.262361 0.820391
v -11.1099 -5.31688 1.45495
vn -0.270039 -0.145739 0.951756
v -9.8942 -4.47418 1.45792
vn 0.526922 -0.666666 0.527171
v -11.0282 -5.28772 1.4472
vn 0.580893 -0.81291 0.0417207
v -11.1014 -5.34329 1.30417
vn -0.681496 -0.716577 -0.148595
v -11.0887 -5.28582 1.37587
vn -0.588546 0.80745 -0.0404806
v -9.93484 -4.45709 1.45513
vn -0.567358 0.811861 0.137791
v -9.87164 -4.46523 1.29929
vn 0.455457 -0.157349 -0.876242
v -9.89041 -4.4795 1.29678
vn 0.550112 -0.699148 -0.456694
v -9.92697 -4.50608 1.29548
vn 0.49562 -0.688782 -0.529094
v -9.96209 -4.52984 1.2941
vn 0.0597731 -0.082677 -0.994782
v -10.4935 -4.88398 1.29285
vn 0.0235172 -0.0329464 -0.99918
v -9.98244 -4.5014 1.29269
vn -0.0316765 0.045205 -0.998475
v -9.94867 -4.47575 1.29397
vn -0.464871 0.653415 -0.597448
v -9.91176 -4.44965 1.2953
vn -0.460733 0.714064 -0.527103
v -9.89231 -4.43633 1.29785
vn -0.0445799 0.51027 -0.858858
v -9.881 -4.44566 1.29803
vn 0.270038 0.145741 -0.951756
v -9.93542 -4.51304 1.30768
vn 0.581697 -0.812458 0.0392436
v -11.0712 -5.32408 1.29684
vn 0.483893 -0.746517 -0.456684
v -11.0743 -5.28002 1.29658
vn -0.576643 0.787521 -0.21747
v -9.92097 -4.45061 1.37581
vn -0.574001 0.817853 -0.0404836
v -9.8659 -4.45224 1.45046
vn 0.890971 0.423722 0.163185
v -9.87531 -4.46009 1.45536
vn 0.413518 -0.0986018 0.905141
v -10.4817 -4.90046 1.37745
vn 0.581296 -0.812685 0.0404826
v -11.0908 -5.33724 1.29935
vn 0.00170074 -0.481911 -0.876219
v -11.0839 -5.28627 1.3015
vn -0.58848 0.806973 -0.0498599
v -9.92558 -4.45033 1.45018
vn -0.574015 0.818254 -0.0310977
f 1//1 2//2 3//3
f 1//1 3//3 4//4
f 1//1 4//4 5//5
f 1//1 5//5 6//6
f 1//1 6//6 2//2
f 7//7 8//8 9//9
f 10//10 11//11 12//12
f 13//13 14//14 15//15
f 16//16 17//17 18//18
f 19//19 20//20 21//21
f 22//22 23//23 24//24
f 22//22 24//24 25//25
f 22//22 25//25 26//26
f 22//22 26//26 27//27
f 22//22 27//27 23//23
f 28//28 29//29 30//30
f 31//31 32//32 33//33
f 34//34 35//35 36//36
f 37//37 38//38 39//39
f 40//40 41//41 42//42
f 13//13 43//43 44//44
f 10//10 45//45 46//46
f 7//7 47//47 48//48
f 19//19 49//49 50//50
f 16//16 51//51 52//52
f 10//10 53//53 45//45
f 13//13 54//54 43//43
f 16//16 55//55 51//51
f 19//19 56//56 49//49
f 7//7 57//57 47//47
f 40//40 58//58 59//59
f 28//28 60//60 61//61
f 31//31 62//62 63//63
f 34//34 64//64 65//65
f 37//37 66//66 67//67
f 40//40 68//68 58//58
f 28//28 69//69 60//60
f 31//31 70//70 62//62
f 34//34 71//71 64//64
f 37//37 72//72 66//66
f 10//10 46//46 11//11
f 7//7 48//48 8//8
f 19//19 50//50 20//20
f 16//16 52//52 17//17
f 13//13 44//44 14//14
f 40//40 42//42 68//68
f 28//28 30//30 69//69
f 31//31 33//33 70//70
f 34//34 36//36 71//71
f 37//37 39//39 72//72
f 28//28 61//61 29//29
f 31//31 63//63 32//32
f 34//34 65//65 35//35
f 37//37 67//67 38//38
f 40//40 59//59 41//41
f 10//10 12//12 53//53
f 13//13 15//15 54//54
f 16//16 18//18 55//55
f 19//19 21//21 56//56
f 7//7 9//9 57//57
f 73//73 74//74 75//75
f 76//76 77//77 78//78
f 79//79 80//80 81//81
f 82//82 83//83 84//84
f 85//85 86//86 87//87
f 88//88 89//89 90//90
f 91//91 92//92 93//93
f 94//94 95//95 96//96
f 97//97 98//98 99//99
f 100//100 101//101 102//102
f 103//103 104//104 105//105
f 106//106 107//107 108//108
f 109//109 110//110 111//111
f 112//112 113//113 114//114
f 115//115 116//116 117//117
f 88//88 118//118 119//119
f 91//91 120//120 121//121
f 94//94 122//122 123//123
f 97//97 124//124 125//125
f 100//100 126//126 127//127
f 128//128 129//129 2//2
f 130//130 131//131 3//3
f 132//132 133//133 4//4
f 134//134 135//135 5//5
f 136//136 137//137 6//6
f 76//76 138//138 8//8
f 73//73 139//139 11//11
f 85//85 140//140 14//14
f 82//82 141//141 17//17
f 79//79 142//142 20//20
f 143//143 144//144 23//23
f 145//145 146//146 24//24
f 147//147 148//148 25//25
f 149//149 150//150 26//26
f 151//151 152//152 27//27
f 103//103 153//153 29//29
f 106//106 154//154 32//32
f 109//109 155//155 35//35
f 112//112 156//156 38//38
f 115//115 157//157 41//41
f 73//73 75//75 43//43
f 76//76 78//78 45//45
f 79//79 81//81 47//47
f 82//82 84//84 49//49
f 85//85 87//87 51//51
f 88//88 90//90 53//53
f 91//91 93//93 54//54
f 94//94 96//96 55//55
f 97//97 99//99 56//56
f 100//100 102//102 57//57
f 103//103 105//105 58//58
f 106//106 108//108 60//60
f 109//109 111//111 62//62
f 112//112 114//114 64//64
f 115//115 117//117 66//66
f 88//88 119//119 68//68
f 91//91 121//121 69//69
f 94//94 123//123 70//70
f 97//97 125//125 71//71
f 100//100 127//127 72//72
f 130//130 74//74 46//46
f 132//132 77//77 48//48
f 134//134 80//80 50//50
f 136//136 83//83 52//52
f 128//128 86//86 44//44
f 158//158 89//89 42//42
f 159//159 92//92 30//30
f 160//160 95//95 33//33
f 161//161 98//98 36//36
f 162//162 101//101 39//39
f 145//145 104//104 61//61
f 147//147 107//107 63//63
f 149//149 110//110 65//65
f 151//151 113//113 67//67
f 143//143 116//116 59//59
f 159//159 118//118 12//12
f 160//160 120//120 15//15
f 161//161 122//122 18//18
f 162//162 124//124 21//21
f 158//158 126//126 9//9
f 130//130 129//129 74//74
f 132//132 131//131 77//77
f 134//134 133//133 80//80
f 136//136 135//135 83//83
f 128//128 137//137 86//86
f 158//158 138//138 89//89
f 159//159 139//139 92//92
f 160//160 140//140 95//95
f 161//161 141//141 98//98
f 162//162 142//142 101//101
f 145//145 144//144 104//104
f 147//147 146//146 107//107
f 149//149 148//148 110//110
f 151//151 150//150 113//113
f 143//143 152//152 116//116
f 159//159 153//153 118//118
f 160//160 154//154 120//120
f 161//161 155//155 122//122
f 162//162 156//156 124//124
f 158//158 157//157 126//126
f 130//130 3//3 129//129
f 132//132 4//4 131//131
f 134//134 5//5 133//133
f 136//136 6//6 135//135
f 128//128 2//2 137//137
f 158//158 9//9 138//138
f 159//159 12//12 139//139
f 160//160 15//15 140//140
f 161//161 18//18 141//141
f 162//162 21//21 142//142
f 145//145 24//24 144//144
f 147//147 25//25 146//146
f 149//149 26//26 148//148
f 151//151 27//27 150//150
f 143//143 23//23 152//152
f 159//159 30//30 153//153
f 160//160 33//33 154//154
f 161//161 36//36 155//155
f 162//162 39//39 156//156
f 158//158 42//42 157//157
f 128//128 44//44 75//75
f 130//130 46//46 78//78
f 132//132 48//48 81//81
f 134//134 50//50 84//84
f 136//136 52//52 87//87
f 76//76 45//45 90//90
f 73//73 43//43 93//93
f 85//85 51//51 96//96
f 82//82 49//49 99//99
f 79//79 47//47 102//102
f 143//143 59//59 105//105
f 145//145 61//61 108//108
f 147//147 63//63 111//111
f 149//149 65//65 114//114
f 151//151 67//67 117//117
f 103//103 58//58 119//119
f 106//106 60//60 121//121
f 109//109 62//62 123//123
f 112//112 64//64 125//125
f 115//115 66//66 127//127
f 73//73 11//11 74//74
f 76//76 8//8 77//77
f 79//79 20//20 80//80
f 82//82 17//17 83//83
f 85//85 14//14 86//86
f 88//88 68//68 89//89
f 91//91 69//69 92//92
f 94//94 70//70 95//95
f 97//97 71//71 98//98
f 100//100 72//72 101//101
f 103//103 29//29 104//104
f 106//106 32//32 107//107
f 109//109 35//35 110//110
f 112//112 38//38 113//113
f 115//115 41//41 116//116
f 88//88 53//53 118//118
f 91//91 54//54 120//120
f 94//94 55//55 122//122
f 97//97 56//56 124//124
f 100//100 57//57 126//126
f 128//128 75//75 129//129
f 130//130 78//78 131//131
f 132//132 81//81 133//133
f 134//134 84//84 135//135
f 136//136 87//87 137//137
f 76//76 90//90 138//138
f 73//73 93//93 139//139
f 85//85 96//96 140//140
f 82//82 99//99 141//141
f 79//79 102//102 142//142
f 143//143 105//105 144//144
f 145//145 108//108 146//146
f 147//147 111//111 148//148
f 149//149 114//114 150//150
f 151//151 117//117 152//152
f 103//103 119//119 153//153
f 106//106 121//121 154//154
f 109//109 123//123 155//155
f 112//112 125//125 156//156
f 115//115 127//127 157//157
f 129//129 3//3 2//2
f 131//131 4//4 3//3
f 133//133 5//5 4//4
f 135//135 6//6 5//5
f 137//137 2//2 6//6
f 138//138 9//9 8//8
f 139//139 12//12 11//11
f 140//140 15//15 14//14
f 141//141 18//18 17//17
f 142//142 21//21 20//20
f 144//144 24//24 23//23
f 146//146 25//25 24//24
f 148//148 26//26 25//25
f 150//150 27//27 26//26
f 152//152 23//23 27//27
f 153//153 30//30 29//29
f 154//154 33//33 32//32
f 155//155 36//36 35//35
f 156//156 39//39 38//38
f 157//157 42//42 41//41
f 75//75 44//44 43//43
f 78//78 46//46 45//45
f 81//81 48//48 47//47
f 84//84 50//50 49//49
f 87//87 52//52 51//51
f 90//90 45//45 53//53
f 93//93 43//43 54//54
f 96//96 51//51 55//55
f 99//99 49//49 56//56
f 102//102 47//47 57//57
f 105//105 59//59 58//58
f 108//108 61//61 60//60
f 111//111 63//63 62//62
f 114//114 65//65 64//64
f 117//117 67//67 66//66
f 119//119 58//58 68//68
f 121//121 60//60 69//69
f 123//123 62//62 70//70
f 125//125 64//64 71//71
f 127//127 66//66 72//72
f 74//74 11//11 46//46
f 77//77 8//8 48//48
f 80//80 20//20 50//50
f 83//83 17//17 52//52
f 86//86 14//14 44//44
f 89//89 68//68 42//42
f 92//92 69//69 30//30
f 95//95 70//70 33//33
f 98//98 71//71 36//36
f 101//101 72//72 39//39
f 104//104 29//29 61//61
f 107//107 32//32 63//63
f 110//110 35//35 65//65
f 113//113 38//38 67//67
f 116//116 41//41 59//59
f 118//118 53//53 12//12
f 120//120 54//54 15//15
f 122//122 55//55 18//18
f 124//124 56//56 21//21
f 126//126 57//57 9//9
f 129//129 75//75 74//74
f 131//131 78//78 77//77
f 133//133 81//81 80//80
f 135//135 84//84 83//83
f 137//137 87//87 86//86
f 138//138 90//90 89//89
f 139//139 93//93 92//92
f 140//140 96//96 95//95
f 141//141 99//99 98//98
f 142//142 102//102 101//101
f 144//144 105//105 104//104
f 146//146 108//108 107//107
f 148//148 111//111 110//110
f 150//150 114//114 113//113
f 152//152 117//117 116//116
f 153//153 119//119 118//118
f 154//154 121//121 120//120
f 155//155 123//123 122//122
f 156//156 125//125 124//124
f 157//157 127//127 126//126
