# Created by Open3D 
# object name: part_061
# number of vertices: 162
# number of triangles: 320
v -8.702 -3.97733 -0.0183143
vn 0.924654 0.377692 -0.0486157
v -8.70495 -3.97077 0.00218269
vn 0.801523 0.596996 0.0340035
v -8.69951 -3.98294 0.00236079
vn 0.953735 0.295016 0.0579229
v -8.69696 -3.99408 -0.0188303
vn 0.978337 0.199176 -0.0564395
v -8.7017 -3.98207 -0.0325172
vn 0.930861 0.300077 -0.208451
v -8.70703 -3.96994 -0.0310563
vn 0.789452 0.602886 -0.115299
v -8.60057 -4.51698 -0.0381601
vn 0.997941 -0.0122253 -0.0629552
v -8.60002 -4.51233 -0.0171073
vn 0.996484 0.0675725 0.0495239
v -8.60067 -4.5256 -0.0182213
vn 0.963822 -0.266537 0.00223592
v -8.65671 -4.24904 -0.00476673
vn 0.113055 -0.0152871 0.993471
v -8.70663 -3.99807 0.00466257
vn 0.0916947 -0.0181759 0.995621
v -8.66554 -4.25072 -0.00401119
vn 0.0658754 -0.0243035 0.997532
v -8.8495 -3.99241 0.0128184
vn 0.029961 0.144315 0.989078
v -8.85024 -3.98888 0.0117619
vn -0.157597 0.930255 0.331342
v -8.97963 -4.01672 0.0200222
vn -0.00270303 0.257418 0.966296
v -8.85185 -3.99147 -0.0246049
vn -0.093436 0.193415 -0.976658
v -8.72696 -3.97329 -0.0325198
vn -0.0741886 0.0954052 -0.99267
v -8.97479 -4.0204 -0.018139
vn -0.0771653 0.094842 -0.992497
v -8.66965 -4.19232 -0.0419857
vn -0.0120374 0.0344887 -0.999333
v -8.61019 -4.48697 -0.0527033
vn 0.0592897 0.0471151 -0.997128
v -8.61457 -4.50003 -0.0531572
vn -0.0332534 0.0294934 -0.999012
v -8.89336 -4.57263 -0.0211704
vn -0.924655 -0.37769 0.0486158
v -8.8879 -4.58019 -0.00155468
vn -0.792853 -0.600443 0.104176
v -8.89322 -4.56806 -9.37178e-05
vn -0.939936 -0.300512 0.161906
v -8.89837 -4.55589 -0.0202191
vn -0.978337 -0.199178 0.0564395
v -8.89541 -4.56719 -0.0349717
vn -0.950545 -0.292247 -0.105144
v -8.88998 -4.57936 -0.0347936
vn -0.79956 -0.598855 -0.0455648
v -8.93575 -4.30208 0.0114246
vn 0.0120393 -0.0344883 0.999333
v -8.88583 -4.55304 0.00205023
vn 0.0335093 -0.0316437 0.998937
v -8.9269 -4.3004 0.0111547
vn 0.059387 -0.0255368 0.997908
v -8.99479 -4.03299 -0.00132473
vn -0.997941 0.0122246 0.0629552
v -8.99272 -4.03868 0.0193744
vn -0.982688 -0.0730548 0.170255
v -8.99217 -4.02537 0.0188494
vn -0.955156 0.263058 0.13593
v -8.94869 -4.24536 -0.0257945
vn -0.113054 0.0152872 -0.993471
v -8.98716 -4.0622 -0.0184297
vn -0.185385 0.00212262 -0.982664
v -8.98283 -4.04912 -0.0187778
vn -0.0924193 0.0207649 -0.995504
v -8.74543 -4.55773 -0.0454293
vn -0.029961 -0.144315 -0.989078
v -8.87039 -4.57588 -0.0385671
vn -0.0507528 -0.0456899 -0.997666
v -8.62255 -4.52877 -0.0529482
vn -0.0477769 -0.045122 -0.997838
v -8.74308 -4.55866 -0.008006
vn 0.093436 -0.193415 0.976658
v -8.74249 -4.56213 -0.00931993
vn 0.194868 -0.945086 0.262373
v -8.613 -4.53433 -0.0159213
vn 0.122643 -0.305142 0.944377
v -8.72454 -3.97425 0.00595619
vn 0.0507528 0.0456899 0.997666
v -8.71957 -3.96729 0.00493212
vn 0.0162397 0.260995 0.965204
v -8.60777 -4.48793 -0.0141813
vn 0.184407 -0.00224318 0.982847
v -8.69786 -4.00863 0.00344562
vn 0.184129 -0.000782917 0.982902
v -8.60221 -4.51146 -0.0519853
vn 0.973456 0.0734725 -0.216763
v -8.60196 -4.49955 -0.0374191
vn 0.983133 0.17366 -0.0573779
v -8.7091 -3.99709 -0.0346612
vn -0.0333363 0.0319958 -0.998932
v -8.70027 -4.00767 -0.0350766
vn 0.0607971 0.0489171 -0.996951
v -8.85244 -3.988 -0.023291
vn -0.194067 0.90652 -0.374912
v -8.72188 -3.96637 -0.0317797
vn -0.103704 0.308732 -0.945479
v -8.6121 -4.50101 -0.0138332
vn 0.0921389 -0.0204987 0.995535
v -8.97238 -4.02136 0.0203373
vn 0.0477769 0.045122 0.997838
v -8.98193 -4.0158 -0.0166896
vn -0.122641 0.305128 -0.944381
v -8.67864 -4.1933 -0.0416905
vn -0.0593853 0.0255372 -0.997908
v -8.60276 -4.52477 -0.0514604
vn 0.952723 -0.265779 -0.147244
v -8.86797 -4.57684 -9.1089e-05
vn 0.0741886 -0.0954052 0.99267
v -8.87305 -4.58377 -0.000831268
vn 0.103704 -0.308732 0.945479
v -8.98474 -4.06316 0.0200923
vn -0.0601298 -0.0472119 0.997073
v -8.89466 -4.54247 0.00246569
vn -0.059843 -0.0486706 0.997021
v -8.99491 -4.03781 -0.0155036
vn -0.993141 -0.0656371 -0.0967639
v -8.99337 -4.05043 -0.00163049
vn -0.983133 -0.173658 0.057378
v -8.8883 -4.55206 -0.0372735
vn -0.0915833 0.0184059 -0.995627
v -8.89707 -4.5415 -0.0360566
vn -0.183335 0.000996365 -0.98305
v -8.74469 -4.56126 -0.0443729
vn 0.142859 -0.886144 -0.44084
v -8.87536 -4.58285 -0.0375431
vn -0.0162397 -0.260995 -0.965204
v -8.62014 -4.52974 -0.0144719
vn 0.0771653 -0.094842 0.992497
v -8.98036 -4.0501 0.0205462
vn 0.0330737 -0.0293184 0.999023
v -8.99426 -4.02454 -0.0143896
vn -0.962821 0.269796 -0.0136062
v -8.94 -4.24298 -0.0265247
vn -0.0658758 0.0243034 -0.997532
v -8.6153 -4.53342 -0.0526331
vn 0.00270303 -0.257418 -0.966296
v -8.7144 -3.98193 0.00542721
vn 0.0632756 -0.000437669 0.997996
v -8.70482 -3.98456 0.00444546
vn 0.154265 0.0218429 0.987788
v -8.71178 -3.97239 0.00488414
vn 0.117341 0.0769487 0.990106
v -8.60254 -4.5037 -0.0155488
vn 0.40508 0.0352434 0.913602
v -8.60324 -4.48729 -0.0162601
vn 0.982177 0.179926 0.0543621
v -8.64989 -4.24771 -0.00608843
vn 0.411177 0.0437956 0.910503
v -8.60488 -4.50277 -0.0527854
vn 0.288799 0.0831471 -0.953772
v -8.66223 -4.19365 -0.0415587
vn 0.294295 0.0903017 -0.951439
v -8.60543 -4.48642 -0.051178
vn 0.956061 0.185303 -0.227179
v -8.71685 -3.98096 -0.0336449
vn -0.0619489 0.049389 -0.996857
v -8.71416 -3.97144 -0.0329595
vn -0.00708295 0.126451 -0.991948
v -8.70724 -3.9836 -0.0339998
vn 0.0296677 0.0714138 -0.997005
v -8.85178 -3.98723 -0.00938881
vn -0.184593 0.982151 0.0361173
v -8.72005 -3.96444 0.00330835
vn -0.146408 0.983667 0.104708
v -8.72214 -3.9636 -0.0299685
vn -0.155953 0.986644 -0.0470434
v -8.61348 -4.51888 -0.0143194
vn 0.0721128 -0.0474555 0.996267
v -8.60759 -4.52676 -0.0155035
vn 0.150443 -0.0992044 0.983629
v -8.60552 -4.5129 -0.0149842
vn 0.164845 -0.0344431 0.985718
v -8.97899 -4.03223 0.0207805
vn 0.0531137 -0.00237324 0.998586
v -8.96759 -4.04739 0.0200063
vn 0.0617401 -0.0238721 0.997807
v -8.84695 -4.00573 0.0132518
vn 0.0583041 -0.0019837 0.998297
v -8.99035 -4.0193 -0.0156337
vn -0.641587 0.624763 -0.445013
v -8.99042 -4.01837 -0.00140409
vn -0.694686 0.716679 0.0615017
v -8.98249 -4.01309 -0.0148614
vn -0.221983 0.974092 -0.0432133
v -8.80936 -4.21792 -0.0341768
vn -0.0626311 0.0249204 -0.997726
v -8.97009 -4.0464 -0.0197031
vn -0.0635833 0.0262809 -0.99763
v -8.72197 -3.99923 -0.0341003
vn -0.0622381 0.0265369 -0.997708
v -8.60681 -4.52995 -0.0524641
vn 0.578987 -0.599842 -0.552236
v -8.60996 -4.52582 -0.0533469
vn 0.0260155 -0.0496952 -0.998426
v -8.60401 -4.52022 -0.052976
vn 0.252574 -0.0350494 -0.966943
v -8.87808 -4.56918 0.00103394
vn 0.0619489 -0.049389 0.996857
v -8.88769 -4.56653 0.00138884
vn -0.0296677 -0.0714138 0.997005
v -8.88077 -4.57869 0.000348601
vn 0.00708295 -0.126451 0.991948
v -8.99005 -4.04736 0.0201744
vn -0.287839 -0.0818959 0.954171
v -8.9895 -4.06372 0.018567
vn -0.968236 -0.185471 0.167687
v -8.94269 -4.30336 0.0109013
vn -0.294295 -0.0903017 0.951439
v -8.99239 -4.04643 -0.0170621
vn -0.403787 -0.0334311 -0.914242
v -8.95502 -4.24931 -0.0245692
vn -0.411177 -0.0437956 -0.910503
v -8.99169 -4.06284 -0.0163509
vn -0.979471 -0.177817 -0.0949643
v -8.88053 -4.5682 -0.0380381
vn -0.0632756 0.000437669 -0.997996
v -8.88315 -4.57775 -0.0374951
vn -0.117341 -0.0769487 -0.990106
v -8.89011 -4.56557 -0.0370564
vn -0.154265 -0.0218429 -0.987788
v -8.74361 -4.56272 -0.0305527
vn 0.184593 -0.982151 -0.0361178
v -8.87279 -4.58653 -0.00264247
vn 0.155275 -0.987195 0.0365434
v -8.87488 -4.5857 -0.0359193
vn 0.14577 -0.982592 -0.115169
v -8.62484 -4.50374 -0.0129079
vn 0.0635223 -0.0259685 0.997643
v -8.74552 -4.54538 -0.00659408
vn 0.0669236 -0.0478459 0.99661
v -8.98497 -4.02431 0.020736
vn -0.0260155 0.0496952 0.998426
v -8.98699 -4.0382 0.0208187
vn -0.040253 -0.0151306 0.999075
v -8.98734 -4.02337 -0.0171074
vn -0.150443 0.0992044 -0.983629
v -8.99322 -4.029 -0.016274
vn -0.37134 0.0823127 -0.924841
v -8.62733 -4.50275 -0.0526172
vn -0.0617795 0.0240757 -0.997799
v -8.87545 -4.54991 -0.0382199
vn -0.0631177 0.0238215 -0.997722
v -8.60496 -4.53158 -0.0384198
vn 0.694687 -0.716678 -0.0615023
v -8.61452 -4.53621 -0.0510264
vn 0.211801 -0.970041 -0.119
v -8.71048 -3.96741 0.00374254
vn 0.390151 0.84149 0.373733
v -8.70427 -3.97543 0.00373151
vn 0.328496 0.145502 0.933231
v -8.69872 -3.99199 0.00326994
vn 0.402451 0.0493158 0.914112
v -8.69342 -4.00744 0.00138672
vn 0.981207 0.18508 0.0545671
v -8.64891 -4.24669 -0.0286041
vn 0.980818 0.186435 -0.0569127
v -8.69561 -4.00657 -0.0335312
vn 0.959469 0.190738 -0.207455
v -8.70106 -3.99106 -0.0339669
vn 0.283266 0.0971654 -0.954106
v -8.70657 -3.97451 -0.0329073
vn 0.209759 0.192768 -0.958562
v -8.7127 -3.96653 -0.031744
vn 0.314669 0.806536 -0.500483
v -8.71138 -3.96533 -0.0175956
vn 0.386658 0.922222 -0.00124391
v -8.60171 -4.52113 -0.016337
vn 0.37134 -0.0823127 0.924841
v -8.71948 -4.00023 0.00560897
vn 0.0630805 -0.0236176 0.997729
v -8.98041 -4.01392 0.0184154
vn -0.212772 0.971053 0.108557
v -8.84941 -4.00475 -0.0260169
vn -0.0669236 0.0478459 -0.99661
v -8.60794 -4.51194 -0.0534296
vn 0.040253 0.0151306 -0.999075
v -8.88222 -4.58361 -0.000866909
vn -0.343003 -0.860263 0.377223
v -8.88836 -4.57562 0.000296401
vn -0.209759 -0.192768 0.958562
v -8.89387 -4.55908 0.00135592
vn -0.285197 -0.0959647 0.953653
v -8.89931 -4.54357 0.000920244
vn -0.967265 -0.190627 0.167511
v -8.94648 -4.30326 -0.0113372
vn -0.980818 -0.186435 0.0569127
v -8.90151 -4.5427 -0.0339977
vn -0.976531 -0.182043 -0.115098
v -8.89621 -4.55815 -0.0358809
vn -0.403752 -0.0484936 -0.913582
v -8.89066 -4.5747 -0.0363424
vn -0.328496 -0.145502 -0.933231
v -8.88445 -4.58272 -0.0363535
vn -0.377273 -0.781601 -0.496754
v -8.884 -4.58462 -0.0222282
vn -0.386658 -0.922222 0.00124391
v -8.87296 -4.5509 0.0014894
vn 0.0621815 -0.0262236 0.99772
v -8.99092 -4.02992 0.0203651
vn -0.252574 0.0350494 0.966943
v -8.9894 -4.03724 -0.0176267
vn -0.164845 0.0344431 -0.985718
v -8.74798 -4.5444 -0.0458627
vn -0.0583041 0.0019837 -0.998297
v -8.61243 -4.53704 -0.0177497
vn 0.221639 -0.97458 0.0326934
v -8.60458 -4.53083 -0.0169773
vn 0.67366 -0.667014 0.318236
v -8.79621 -4.27557 0.00364896
vn 0.0626311 -0.0249204 0.997726
v -8.98812 -4.02019 0.0198532
vn -0.626522 0.648242 0.432727
v -8.98145 -4.03125 -0.0182916
vn -0.0721128 0.0474555 -0.996267
v -8.61593 -4.51791 -0.0533914
vn -0.0531137 0.00237324 -0.998586
f 1//1 2//2 3//3
f 1//1 3//3 4//4
f 1//1 4//4 5//5
f 1//1 5//5 6//6
f 1//1 6//6 2//2
f 7//7 8//8 9//9
f 10//10 11//11 12//12
f 13//13 14//14 15//15
f 16//16 17//17 18//18
f 19//19 20//20 21//21
f 22//22 23//23 24//24
f 22//22 24//24 25//25
f 22//22 25//25 26//26
f 22//22 26//26 27//27
f 22//22 27//27 23//23
f 28//28 29//29 30//30
f 31//31 32//32 33//33
f 34//34 35//35 36//36
f 37//37 38//38 39//39
f 40//40 41//41 42//42
f 13//13 43//43 44//44
f 10//10 45//45 46//46
f 7//7 47//47 48//48
f 19//19 49//49 50//50
f 16//16 51//51 52//52
f 10//10 53//53 45//45
f 13//13 54//54 43//43
f 16//16 55//55 51//51
f 19//19 56//56 49//49
f 7//7 57//57 47//47
f 40//40 58//58 59//59
f 28//28 60//60 61//61
f 31//31 62//62 63//63
f 34//34 64//64 65//65
f 37//37 66//66 67//67
f 40//40 68//68 58//58
f 28//28 69//69 60//60
f 31//31 70//70 62//62
f 34//34 71//71 64//64
f 37//37 72//72 66//66
f 10//10 46//46 11//11
f 7//7 48//48 8//8
f 19//19 50//50 20//20
f 16//16 52//52 17//17
f 13//13 44//44 14//14
f 40//40 42//42 68//68
f 28//28 30//30 69//69
f 31//31 33//33 70//70
f 34//34 36//36 71//71
f 37//37 39//39 72//72
f 28//28 61//61 29//29
f 31//31 63//63 32//32
f 34//34 65//65 35//35
f 37//37 67//67 38//38
f 40//40 59//59 41//41
f 10//10 12//12 53//53
f 13//13 15//15 54//54
f 16//16 18//18 55//55
f 19//19 21//21 56//56
f 7//7 9//9 57//57
f 73//73 74//74 75//75
f 76//76 77//77 78//78
f 79//79 80//80 81//81
f 82//82 83//83 84//84
f 85//85 86//86 87//87
f 88//88 89//89 90//90
f 91//91 92//92 93//93
f 94//94 95//95 96//96
f 97//97 98//98 99//99
f 100//100 101//101 102//102
f 103//103 104//104 105//105
f 106//106 107//107 108//108
f 109//109 110//110 111//111
f 112//112 113//113 114//114
f 115//115 116//116 117//117
f 88//88 118//118 119//119
f 91//91 120//120 121//121
f 94//94 122//122 123//123
f 97//97 124//124 125//125
f 100//100 126//126 127//127
f 128//128 129//129 2//2
f 130//130 131//131 3//3
f 132//132 133//133 4//4
f 134//134 135//135 5//5
f 136//136 137//137 6//6
f 76//76 138//138 8//8
f 73//73 139//139 11//11
f 85//85 140//140 14//14
f 82//82 141//141 17//17
f 79//79 142//142 20//20
f 143//143 144//144 23//23
f 145//145 146//146 24//24
f 147//147 148//148 25//25
f 149//149 150//150 26//26
f 151//151 152//152 27//27
f 103//103 153//153 29//29
f 106//106 154//154 32//32
f 109//109 155//155 35//35
f 112//112 156//156 38//38
f 115//115 157//157 41//41
f 73//73 75//75 43//43
f 76//76 78//78 45//45
f 79//79 81//81 47//47
f 82//82 84//84 49//49
f 85//85 87//87 51//51
f 88//88 90//90 53//53
f 91//91 93//93 54//54
f 94//94 96//96 55//55
f 97//97 99//99 56//56
f 100//100 102//102 57//57
f 103//103 105//105 58//58
f 106//106 108//108 60//60
f 109//109 111//111 62//62
f 112//112 114//114 64//64
f 115//115 117//117 66//66
f 88//88 119//119 68//68
f 91//91 121//121 69//69
f 94//94 123//123 70//70
f 97//97 125//125 71//71
f 100//100 127//127 72//72
f 130//130 74//74 46//46
f 132//132 77//77 48//48
f 134//134 80//80 50//50
f 136//136 83//83 52//52
f 128//128 86//86 44//44
f 158//158 89//89 42//42
f 159//159 92//92 30//30
f 160//160 95//95 33//33
f 161//161 98//98 36//36
f 162//162 101//101 39//39
f 145//145 104//104 61//61
f 147//147 107//107 63//63
f 149//149 110//110 65//65
f 151//151 113//113 67//67
f 143//143 116//116 59//59
f 159//159 118//118 12//12
f 160//160 120//120 15//15
f 161//161 122//122 18//18
f 162//162 124//124 21//21
f 158//158 126//126 9//9
f 130//130 129//129 74//74
f 132//132 131//131 77//77
f 134//134 133//133 80//80
f 136//136 135//135 83//83
f 128//128 137//137 86//86
f 158//158 138//138 89//89
f 159//159 139//139 92//92
f 160//160 140//140 95//95
f 161//161 141//141 98//98
f 162//162 142//142 101//101
f 145//145 144//144 104//104
f 147//147 146//146 107//107
f 149//149 148//148 110//110
f 151//151 150//150 113//113
f 143//143 152//152 116//116
f 159//159 153//153 118//118
f 160//160 154//154 120//120
f 161//161 155//155 122//122
f 162//162 156//156 124//124
f 158//158 157//157 126//126
f 130//130 3//3 129//129
f 132//132 4//4 131//131
f 134//134 5//5 133//133
f 136//136 6//6 135//135
f 128//128 2//2 137//137
f 158//158 9//9 138//138
f 159//159 12//12 139//139
f 160//160 15//15 140//140
f 161//161 18//18 141//141
f 162//162 21//21 142//142
f 145//145 24//24 144//144
f 147//147 25//25 146//146
f 149//149 26//26 148//148
f 151//151 27//27 150//150
f 143//143 23//23 152//152
f 159//159 30//30 153//153
f 160//160 33//33 154//154
f 161//161 36//36 155//155
f 162//162 39//39 156//156
f 158//158 42//42 157//157
f 128//128 44//44 75//75
f 130//130 46//46 78//78
f 132//132 48//48 81//81
f 134//134 50//50 84//84
f 136//136 52//52 87//87
f 76//76 45//45 90//90
f 73//73 43//43 93//93
f 85//85 51//51 96//96
f 82//82 49//49 99//99
f 79//79 47//47 102//102
f 143//143 59//59 105//105
f 145//145 61//61 108//108
f 147//147 63//63 111//111
f 149//149 65//65 114//114
f 151//151 67//67 117//117
f 103//103 58//58 119//119
f 106//106 60//60 121//121
f 109//109 62//62 123//123
f 112//112 64//64 125//125
f 115//115 66//66 127//127
f 73//73 11//11 74//74
f 76//76 8//8 77//77
f 79//79 20//20 80//80
f 82//82 17//17 83//83
f 85//85 14//14 86//86
f 88//88 68//68 89//89
f 91//91 69//69 92//92
f 94//94 70//70 95//95
f 97//97 71//71 98//98
f 100//100 72//72 101//101
f 103//103 29//29 104//104
f 106//106 32//32 107//107
f 109//109 35//35 110//110
f 112//112 38//38 113//113
f 115//115 41//41 116//116
f 88//88 53//53 118//118
f 91//91 54//54 120//120
f 94//94 55//55 122//122
f 97//97 56//56 124//124
f 100//100 57//57 126//126
f 128//128 75//75 129//129
f 130//130 78//78 131//131
f 132//132 81//81 133//133
f 134//134 84//84 135//135
f 136//136 87//87 137//137
f 76//76 90//90 138//138
f 73//73 93//93 139//139
f 85//85 96//96 140//140
f 82//82 99//99 141//141
f 79//79 102//102 142//142
f 143//143 105//105 144//144
f 145//145 108//108 146//146
f 147//147 111//111 148//148
f 149//149 114//114 150//150
f 151//151 117//117 152//152
f 103//103 119//119 153//153
f 106//106 121//121 154//154
f 109//109 123//123 155//155
f 112//112 125//125 156//156
f 115//115 127//127 157//157
f 129//129 3//3 2//2
f 131//131 4//4 3//3
f 133//133 5//5 4//4
f 135//135 6//6 5//5
f 137//137 2//2 6//6
f 138//138 9//9 8//8
f 139//139 12//12 11//11
f 140//140 15//15 14//14
f 141//141 18//18 17//17
f 142//142 21//21 20//20
f 144//144 24//24 23//23
f 146//146 25//25 24//24
f 148//148 26//26 25//25
f 150//150 27//27 26//26
f 152//152 23//23 27//27
f 153//153 30//30 29//29
f 154//154 33//33 32//32
f 155//155 36//36 35//35
f 156//156 39//39 38//38
f 157//157 42//42 41//41
f 75//75 44//44 43//43
f 78//78 46//46 45//45
f 81//81 48//48 47//47
f 84//84 50//50 49//49
f 87//87 52//52 51//51
f 90//90 45//45 53//53
f 93//93 43//43 54//54
f 96//96 51//51 55//55
f 99//99 49//49 56//56
f 102//102 47//47 57//57
f 105//105 59//59 58//58
f 108//108 61//61 60//60
f 111//111 63//63 62//62
f 114//114 65//65 64//64
f 117//117 67//67 66//66
f 119//119 58//58 68//68
f 121//121 60//60 69//69
f 123//123 62//62 70//70
f 125//125 64//64 71//71
f 127//127 66//66 72//72
f 74//74 11//11 46//46
f 77//77 8//8 48//48
f 80//80 20//20 50//50
f 83//83 17//17 52//52
f 86//86 14//14 44//44
f 89//89 68//68 42//42
f 92//92 69//69 30//30
f 95//95 70//70 33//33
f 98//98 71//71 36//36
f 101//101 72//72 39//39
f 104//104 29//29 61//61
f 107//107 32//32 63//63
f 110//110 35//35 65//65
f 113//113 38//38 67//67
f 116//116 41//41 59//59
f 118//118 53//53 12//12
f 120//120 54//54 15//15
f 122//122 55//55 18//18
f 124//124 56//56 21//21
f 126//126 57//57 9//9
f 129//129 75//75 74//74
f 131//131 78//78 77//77
f 133//133 81//81 80//80
f 135//135 84//84 83//83
f 137//137 87//87 86//86
f 138//138 90//90 89//89
f 139//139 93//93 92//92
f 140//140 96//96 95//95
f 141//141 99//99 98//98
f 142//142 102//102 101//101
f 144//144 105//105 104//104
f 146//146 108//108 107//107
f 148//148 111//111 110//110
f 150//150 114//114 113//113
f 152//152 117//117 116//116
f 153//153 119//119 118//118
f 154//154 121//121 120//120
f 155//155 123//123 122//122
f 156//156 125//125 124//124
f 157//157 127//127 126//126
