# Created by Open3D 
# object name: part_106
# number of vertices: 162
# number of triangles: 320
v -16.786 -9.2632 0.770701
vn -0.19468 -0.0722255 0.978204
v -16.7854 -9.28834 0.766036
vn -0.320184 -0.36675 0.873485
v -16.7657 -9.27394 0.772
vn 0.039941 -0.207938 0.977326
v -16.7601 -9.24357 0.773428
vn -0.0111535 0.0687163 0.997574
v -16.7868 -9.24616 0.76985
vn -0.317016 0.26607 0.910334
v -16.8055 -9.26186 0.763987
vn -0.519034 -0.107249 0.847998
v -15.9722 -8.64862 0.720769
vn 0.198233 0.224492 0.9541
v -15.9673 -8.67105 0.723018
vn 0.264892 -0.0380464 0.963527
v -15.9486 -8.65647 0.7147
vn 0.506651 0.257647 0.822753
v -16.3652 -8.97557 0.73084
vn 0.603788 -0.792758 0.0835213
v -16.7444 -9.26248 0.747817
vn 0.603361 -0.793999 0.0743015
v -16.3651 -8.97742 0.709895
vn 0.603897 -0.794575 0.0629134
v -16.7933 -9.32335 0.426067
vn 0.526681 -0.847512 0.0658106
v -16.7993 -9.3264 0.426318
vn -0.387103 -0.919131 0.0731427
v -16.7947 -9.34782 0.117676
vn 0.468609 -0.881064 0.0642821
v -16.816 -9.29355 0.42376
vn -0.675801 0.734903 -0.0566607
v -16.8076 -9.26383 0.717142
vn -0.634177 0.77094 -0.0589231
v -16.8087 -9.31015 0.129316
vn -0.634187 0.770831 -0.0602226
v -16.473 -9.00777 0.733577
vn -0.603707 0.796229 -0.0394577
v -16.0273 -8.67093 0.715576
vn -0.602641 0.79797 -0.00824465
v -16.0097 -8.65838 0.698857
vn -0.603403 0.795941 -0.0488172
v -15.9735 -8.70334 0.0263078
vn 0.194674 0.0722229 -0.978205
v -15.9499 -8.71016 0.033445
vn 0.503552 0.125453 -0.854808
v -15.9686 -8.72585 0.0275823
vn 0.261366 -0.188559 -0.946643
v -15.9991 -8.72332 0.0236076
vn 0.0111574 -0.0687217 -0.997573
v -15.9897 -8.69807 0.0254321
vn -0.101959 0.285268 -0.953009
v -15.97 -8.68368 0.0313959
vn 0.30639 0.387069 -0.869657
v -16.3664 -9.02772 0.0690131
vn 0.603707 -0.796228 0.0394715
v -15.9871 -8.74086 0.0520398
vn 0.604329 -0.795246 0.0486906
v -16.3662 -9.02626 0.0899883
vn 0.603892 -0.794798 0.0600908
v -16.7873 -9.31792 0.0762396
vn -0.198235 -0.22449 -0.9541
v -16.7669 -9.32874 0.0765647
vn 0.0364005 -0.358439 -0.932843
v -16.7866 -9.34202 0.0847814
vn -0.323274 -0.49896 -0.804072
v -16.4742 -9.05992 0.0717495
vn -0.603789 0.792757 -0.0835205
v -16.7514 -9.2704 0.0794812
vn -0.60346 0.789004 -0.115361
v -16.7694 -9.28232 0.0961516
vn -0.604512 0.79312 -0.0743424
v -15.962 -8.64866 0.371366
vn -0.526708 0.847495 -0.0658077
v -15.971 -8.67754 0.0779184
vn -0.572715 0.817253 -0.0639937
v -15.9699 -8.63122 0.665744
vn -0.572708 0.817358 -0.0626944
v -15.9394 -8.67847 0.373673
vn 0.675777 -0.734925 0.0566618
v -15.9348 -8.67354 0.373276
vn 0.992389 0.122604 -0.0114953
v -15.9384 -8.65343 0.68202
vn 0.723548 -0.687904 0.0571464
v -16.7844 -9.29448 0.719514
vn 0.572699 -0.817264 0.0639943
v -16.7936 -9.29922 0.734488
vn 0.46867 -0.88037 0.0727824
v -16.004 -8.70161 0.717951
vn 0.603443 -0.789075 0.114966
v -16.7268 -9.24747 0.7623
vn 0.602801 -0.789563 0.114987
v -15.9884 -8.64327 0.720868
vn -0.0985374 0.431028 0.896942
v -15.9978 -8.66792 0.726658
vn 0.0148423 0.0883672 0.995977
v -16.7682 -9.23116 0.745393
vn -0.604464 0.795149 -0.0485904
v -16.7501 -9.21679 0.759925
vn -0.60326 0.79751 -0.00740639
v -16.8205 -9.29848 0.424157
vn -0.99895 0.0457725 -0.00176176
v -16.8158 -9.26998 0.732224
vn -0.723561 0.688545 -0.0486391
v -15.9859 -8.6897 0.701281
vn 0.604377 -0.793233 0.0742248
v -16.7854 -9.3408 0.131688
vn 0.572705 -0.817361 0.0626957
v -16.8169 -9.31858 0.115412
vn -0.723595 0.687855 -0.0571437
v -16.4742 -9.01001 0.712666
vn -0.603892 0.794798 -0.0600909
v -15.9688 -8.63 0.712651
vn 0.309472 0.518416 0.797165
v -15.9477 -8.70818 0.0802904
vn 0.634198 -0.770922 0.0589223
v -15.9396 -8.70204 0.0652079
vn 0.723531 -0.688576 0.048644
v -16.7281 -9.30109 0.0818561
vn 0.602604 -0.798001 0.00791046
v -16.0052 -8.75523 0.037507
vn 0.603246 -0.797516 0.00787358
v -16.7881 -9.30096 0.0744144
vn -0.320415 0.120288 -0.939609
v -16.7614 -9.29897 0.0703772
vn -0.0148411 -0.0883682 -0.995977
v -16.0109 -8.70954 0.0496155
vn -0.603449 0.793938 -0.0742397
v -16.0286 -8.72455 0.0351322
vn -0.602838 0.789588 -0.11462
v -15.956 -8.64562 0.371115
vn 0.226255 0.971025 -0.0769331
v -15.9618 -8.6728 0.0629447
vn -0.46867 0.88037 -0.072786
v -15.9466 -8.66186 0.668116
vn 0.6342 -0.77082 0.0602203
v -16.7456 -9.31364 0.0985753
vn 0.603315 -0.796012 0.0487523
v -16.8067 -9.31554 0.0827323
vn -0.522114 -0.238605 -0.818819
v -16.4754 -9.05886 0.0927584
vn -0.603897 0.794575 -0.0629186
v -15.9606 -8.62419 0.679757
vn -0.468673 0.88103 -0.0642793
v -16.7702 -9.2826 0.73855
vn 0.593575 -0.802202 0.064344
v -16.7638 -9.2758 0.758972
vn 0.591018 -0.799829 0.104745
v -16.7837 -9.29123 0.749507
vn 0.564278 -0.820082 0.0951591
v -15.9799 -8.68223 0.721681
vn 0.599734 -0.769619 0.219103
v -16.0046 -8.69901 0.728718
vn 0.157013 -0.122973 0.97991
v -16.3657 -8.97355 0.747099
vn 0.596123 -0.771264 0.223135
v -16.0025 -8.65257 0.719386
vn -0.593096 0.799115 0.0982454
v -16.4685 -9.00424 0.749707
vn -0.595526 0.796867 0.101745
v -16.0258 -8.67119 0.726566
vn -0.222958 0.373677 0.900364
v -16.7938 -9.25148 0.736141
vn -0.614096 0.787049 -0.0586557
v -16.8066 -9.26109 0.747174
vn -0.64148 0.766641 -0.0276533
v -16.7871 -9.24518 0.756602
vn -0.615525 0.787908 -0.018146
v -16.8138 -9.31079 0.425114
vn -0.797068 -0.601906 0.0489027
v -16.7988 -9.30099 0.73499
vn -0.710912 -0.698341 0.0832075
v -16.8189 -9.27448 0.732939
vn -0.878234 -0.473706 0.06563
v -15.9604 -8.67109 0.688867
vn 0.614114 -0.786692 0.063083
v -15.9476 -8.65987 0.698212
vn 0.64161 -0.761683 0.0904201
v -15.967 -8.67411 0.710087
vn 0.615697 -0.78119 0.103246
v -16.7713 -9.33205 0.110974
vn 0.59358 -0.802542 0.0599131
v -16.7459 -9.31172 0.128987
vn 0.603382 -0.795097 0.061244
v -16.7727 -9.30894 0.424893
vn 0.593833 -0.802187 0.0621139
v -16.8139 -9.31865 0.094427
vn -0.916625 0.223861 -0.331186
v -16.8075 -9.33165 0.0937733
vn -0.706247 -0.569265 -0.420894
v -16.8201 -9.32314 0.115424
vn -0.878338 -0.477874 0.0126002
v -16.4752 -9.03463 0.402727
vn -0.603895 0.794687 -0.0615034
v -16.7699 -9.28009 0.126539
vn -0.604546 0.794173 -0.0617571
v -16.7688 -9.23372 0.715034
vn -0.604544 0.794219 -0.0611706
v -15.963 -8.62511 0.700818
vn 0.00853598 0.971054 0.238707
v -15.9705 -8.62973 0.695879
vn -0.564169 0.825024 -0.0323893
v -15.9767 -8.63389 0.712289
vn -0.545158 0.835573 0.0679757
v -15.9616 -8.72054 0.0612911
vn 0.614113 -0.787036 0.0586534
v -15.9683 -8.72684 0.0408302
vn 0.615533 -0.787902 0.0181453
v -15.9488 -8.71093 0.0502585
vn 0.641494 -0.76663 0.0276486
v -16.7529 -9.31945 0.0780462
vn 0.592674 -0.799508 -0.0975935
v -16.7296 -9.30082 0.0708666
vn 0.148325 -0.278832 -0.948816
v -16.367 -9.02827 0.0526403
vn 0.595526 -0.796867 -0.101745
v -16.7754 -9.28979 0.0757511
vn -0.600497 0.769279 -0.218205
v -16.4698 -9.05896 0.0552482
vn -0.596123 0.771264 -0.223135
v -16.7507 -9.27301 0.0687139
vn -0.207883 0.191931 -0.959139
v -15.9852 -8.68942 0.0588826
vn -0.593581 0.802198 -0.0643424
v -15.9717 -8.68079 0.0479255
vn -0.564279 0.820082 -0.095156
v -15.9915 -8.69622 0.0384603
vn -0.591005 0.799839 -0.104745
v -15.946 -8.65539 0.371866
vn 0.797058 0.601919 -0.0489031
v -15.9364 -8.69753 0.0644938
vn 0.868847 0.490509 -0.0671223
v -15.9566 -8.67103 0.0624424
vn 0.697217 0.711914 -0.0840639
v -15.9855 -8.69192 0.670893
vn 0.604408 -0.794277 0.0617643
v -15.9589 -8.69436 0.37496
vn 0.613866 -0.787059 0.0608847
v -16.7848 -9.34229 0.101553
vn 0.564173 -0.825021 0.0323823
v -16.765 -9.32853 0.0897156
vn 0.590854 -0.806539 0.0196553
v -16.8078 -9.31214 0.0992207
vn -0.641594 0.761699 -0.0904007
v -16.8009 -9.30894 0.0828845
vn -0.64941 0.736406 -0.189665
v -16.0095 -8.66029 0.668445
vn -0.60347 0.795031 -0.0612385
v -16.0106 -8.70667 0.0799503
vn -0.603471 0.794985 -0.061821
v -15.9523 -8.63462 0.703214
vn 0.706244 0.569269 0.420896
v -15.9554 -8.62237 0.679957
vn 0.697311 0.716096 -0.0310384
v -16.7912 -9.29502 0.755137
vn -0.169126 -0.881816 0.440223
v -16.7774 -9.28455 0.76504
vn 0.545635 -0.814773 0.196031
v -16.7516 -9.265 0.769029
vn 0.593259 -0.774522 0.219451
v -16.7283 -9.24549 0.773117
vn 0.1519 -0.126839 0.980224
v -16.3792 -8.95528 0.751382
vn 0.00184539 0.0785516 0.996908
v -16.7494 -9.21767 0.770965
vn -0.204438 0.339877 0.917981
v -16.7742 -9.23534 0.766734
vn -0.599916 0.794135 0.0972154
v -16.7996 -9.25537 0.762782
vn -0.648935 0.757197 0.0744064
v -16.8127 -9.26676 0.752949
vn -0.915453 0.273268 0.295416
v -16.8062 -9.2795 0.755608
vn -0.704532 -0.496101 0.507464
v -15.9545 -8.66308 0.714548
vn 0.649421 -0.736399 0.189653
v -16.7448 -9.26535 0.717482
vn 0.603383 -0.795051 0.0618276
v -16.7999 -9.34965 0.117476
vn -0.711024 -0.702536 0.0298069
v -16.7965 -9.27766 0.422472
vn -0.613853 0.787069 -0.060885
v -15.9903 -8.64348 0.707717
vn -0.590848 0.806544 -0.0196456
v -15.9427 -8.70526 0.0444833
vn 0.924854 -0.112678 -0.363248
v -15.9557 -8.71665 0.0346504
vn 0.64894 -0.757196 -0.0743731
v -15.9812 -8.73668 0.0306987
vn 0.599149 -0.794612 -0.0980392
v -16.0059 -8.75434 0.0264672
vn 0.153446 -0.274976 -0.949127
v -16.3806 -9.0109 0.0455984
vn -0.00184268 -0.0785551 -0.996908
v -16.0271 -8.72653 0.0243149
vn -0.226365 0.228099 -0.946958
v -16.0037 -8.70702 0.0284031
vn -0.593682 0.774031 -0.220041
v -15.9779 -8.68747 0.0323922
vn -0.545622 0.814779 -0.196037
v -15.9642 -8.677 0.0422957
vn 0.00738443 0.921674 -0.387895
v -15.9535 -8.68677 0.0413797
vn 0.704535 0.496096 -0.507463
v -15.9865 -8.7383 0.0823982
vn 0.604407 -0.794323 0.0611808
v -16.7787 -9.33812 0.0851429
vn 0.545148 -0.835577 -0.0680095
v -16.7883 -9.29791 0.0873457
vn -0.615685 0.781203 -0.103217
v -15.9826 -8.66308 0.37254
vn -0.593834 0.802186 -0.0621137
v -15.9353 -8.64888 0.682008
vn 0.86894 0.494727 -0.0137246
v -15.9415 -8.65337 0.703005
vn 0.926217 -0.0546568 0.373007
v -16.3656 -9.0019 0.399946
vn 0.603895 -0.794687 0.0615043
v -16.7924 -9.34691 0.0966146
vn -0.170464 -0.939841 -0.296043
v -16.795 -9.30093 0.108565
vn -0.614107 0.786697 -0.0630856
v -15.984 -8.63997 0.686459
vn -0.593573 0.802547 -0.0599145
f 1//1 2//2 3//3
f 1//1 3//3 4//4
f 1//1 4//4 5//5
f 1//1 5//5 6//6
f 1//1 6//6 2//2
f 7//7 8//8 9//9
f 10//10 11//11 12//12
f 13//13 14//14 15//15
f 16//16 17//17 18//18
f 19//19 20//20 21//21
f 22//22 23//23 24//24
f 22//22 24//24 25//25
f 22//22 25//25 26//26
f 22//22 26//26 27//27
f 22//22 27//27 23//23
f 28//28 29//29 30//30
f 31//31 32//32 33//33
f 34//34 35//35 36//36
f 37//37 38//38 39//39
f 40//40 41//41 42//42
f 13//13 43//43 44//44
f 10//10 45//45 46//46
f 7//7 47//47 48//48
f 19//19 49//49 50//50
f 16//16 51//51 52//52
f 10//10 53//53 45//45
f 13//13 54//54 43//43
f 16//16 55//55 51//51
f 19//19 56//56 49//49
f 7//7 57//57 47//47
f 40//40 58//58 59//59
f 28//28 60//60 61//61
f 31//31 62//62 63//63
f 34//34 64//64 65//65
f 37//37 66//66 67//67
f 40//40 68//68 58//58
f 28//28 69//69 60//60
f 31//31 70//70 62//62
f 34//34 71//71 64//64
f 37//37 72//72 66//66
f 10//10 46//46 11//11
f 7//7 48//48 8//8
f 19//19 50//50 20//20
f 16//16 52//52 17//17
f 13//13 44//44 14//14
f 40//40 42//42 68//68
f 28//28 30//30 69//69
f 31//31 33//33 70//70
f 34//34 36//36 71//71
f 37//37 39//39 72//72
f 28//28 61//61 29//29
f 31//31 63//63 32//32
f 34//34 65//65 35//35
f 37//37 67//67 38//38
f 40//40 59//59 41//41
f 10//10 12//12 53//53
f 13//13 15//15 54//54
f 16//16 18//18 55//55
f 19//19 21//21 56//56
f 7//7 9//9 57//57
f 73//73 74//74 75//75
f 76//76 77//77 78//78
f 79//79 80//80 81//81
f 82//82 83//83 84//84
f 85//85 86//86 87//87
f 88//88 89//89 90//90
f 91//91 92//92 93//93
f 94//94 95//95 96//96
f 97//97 98//98 99//99
f 100//100 101//101 102//102
f 103//103 104//104 105//105
f 106//106 107//107 108//108
f 109//109 110//110 111//111
f 112//112 113//113 114//114
f 115//115 116//116 117//117
f 88//88 118//118 119//119
f 91//91 120//120 121//121
f 94//94 122//122 123//123
f 97//97 124//124 125//125
f 100//100 126//126 127//127
f 128//128 129//129 2//2
f 130//130 131//131 3//3
f 132//132 133//133 4//4
f 134//134 135//135 5//5
f 136//136 137//137 6//6
f 76//76 138//138 8//8
f 73//73 139//139 11//11
f 85//85 140//140 14//14
f 82//82 141//141 17//17
f 79//79 142//142 20//20
f 143//143 144//144 23//23
f 145//145 146//146 24//24
f 147//147 148//148 25//25
f 149//149 150//150 26//26
f 151//151 152//152 27//27
f 103//103 153//153 29//29
f 106//106 154//154 32//32
f 109//109 155//155 35//35
f 112//112 156//156 38//38
f 115//115 157//157 41//41
f 73//73 75//75 43//43
f 76//76 78//78 45//45
f 79//79 81//81 47//47
f 82//82 84//84 49//49
f 85//85 87//87 51//51
f 88//88 90//90 53//53
f 91//91 93//93 54//54
f 94//94 96//96 55//55
f 97//97 99//99 56//56
f 100//100 102//102 57//57
f 103//103 105//105 58//58
f 106//106 108//108 60//60
f 109//109 111//111 62//62
f 112//112 114//114 64//64
f 115//115 117//117 66//66
f 88//88 119//119 68//68
f 91//91 121//121 69//69
f 94//94 123//123 70//70
f 97//97 125//125 71//71
f 100//100 127//127 72//72
f 130//130 74//74 46//46
f 132//132 77//77 48//48
f 134//134 80//80 50//50
f 136//136 83//83 52//52
f 128//128 86//86 44//44
f 158//158 89//89 42//42
f 159//159 92//92 30//30
f 160//160 95//95 33//33
f 161//161 98//98 36//36
f 162//162 101//101 39//39
f 145//145 104//104 61//61
f 147//147 107//107 63//63
f 149//149 110//110 65//65
f 151//151 113//113 67//67
f 143//143 116//116 59//59
f 159//159 118//118 12//12
f 160//160 120//120 15//15
f 161//161 122//122 18//18
f 162//162 124//124 21//21
f 158//158 126//126 9//9
f 130//130 129//129 74//74
f 132//132 131//131 77//77
f 134//134 133//133 80//80
f 136//136 135//135 83//83
f 128//128 137//137 86//86
f 158//158 138//138 89//89
f 159//159 139//139 92//92
f 160//160 140//140 95//95
f 161//161 141//141 98//98
f 162//162 142//142 101//101
f 145//145 144//144 104//104
f 147//147 146//146 107//107
f 149//149 148//148 110//110
f 151//151 150//150 113//113
f 143//143 152//152 116//116
f 159//159 153//153 118//118
f 160//160 154//154 120//120
f 161//161 155//155 122//122
f 162//162 156//156 124//124
f 158//158 157//157 126//126
f 130//130 3//3 129//129
f 132//132 4//4 131//131
f 134//134 5//5 133//133
f 136//136 6//6 135//135
f 128//128 2//2 137//137
f 158//158 9//9 138//138
f 159//159 12//12 139//139
f 160//160 15//15 140//140
f 161//161 18//18 141//141
f 162//162 21//21 142//142
f 145//145 24//24 144//144
f 147//147 25//25 146//146
f 149//149 26//26 148//148
f 151//151 27//27 150//150
f 143//143 23//23 152//152
f 159//159 30//30 153//153
f 160//160 33//33 154//154
f 161//161 36//36 155//155
f 162//162 39//39 156//156
f 158//158 42//42 157//157
f 128//128 44//44 75//75
f 130//130 46//46 78//78
f 132//132 48//48 81//81
f 134//134 50//50 84//84
f 136//136 52//52 87//87
f 76//76 45//45 90//90
f 73//73 43//43 93//93
f 85//85 51//51 96//96
f 82//82 49//49 99//99
f 79//79 47//47 102//102
f 143//143 59//59 105//105
f 145//145 61//61 108//108
f 147//147 63//63 111//111
f 149//149 65//65 114//114
f 151//151 67//67 117//117
f 103//103 58//58 119//119
f 106//106 60//60 121//121
f 109//109 62//62 123//123
f 112//112 64//64 125//125
f 115//115 66//66 127//127
f 73//73 11//11 74//74
f 76//76 8//8 77//77
f 79//79 20//20 80//80
f 82//82 17//17 83//83
f 85//85 14//14 86//86
f 88//88 68//68 89//89
f 91//91 69//69 92//92
f 94//94 70//70 95//95
f 97//97 71//71 98//98
f 100//100 72//72 101//101
f 103//103 29//29 104//104
f 106//106 32//32 107//107
f 109//109 35//35 110//110
f 112//112 38//38 113//113
f 115//115 41//41 116//116
f 88//88 53//53 118//118
f 91//91 54//54 120//120
f 94//94 55//55 122//122
f 97//97 56//56 124//124
f 100//100 57//57 126//126
f 128//128 75//75 129//129
f 130//130 78//78 131//131
f 132//132 81//81 133//133
f 134//134 84//84 135//135
f 136//136 87//87 137//137
f 76//76 90//90 138//138
f 73//73 93//93 139//139
f 85//85 96//96 140//140
f 82//82 99//99 141//141
f 79//79 102//102 142//142
f 143//143 105//105 144//144
f 145//145 108//108 146//146
f 147//147 111//111 148//148
f 149//149 114//114 150//150
f 151//151 117//117 152//152
f 103//103 119//119 153//153
f 106//106 121//121 154//154
f 109//109 123//123 155//155
f 112//112 125//125 156//156
f 115//115 127//127 157//157
f 129//129 3//3 2//2
f 131//131 4//4 3//3
f 133//133 5//5 4//4
f 135//135 6//6 5//5
f 137//137 2//2 6//6
f 138//138 9//9 8//8
f 139//139 12//12 11//11
f 140//140 15//15 14//14
f 141//141 18//18 17//17
f 142//142 21//21 20//20
f 144//144 24//24 23//23
f 146//146 25//25 24//24
f 148//148 26//26 25//25
f 150//150 27//27 26//26
f 152//152 23//23 27//27
f 153//153 30//30 29//29
f 154//154 33//33 32//32
f 155//155 36//36 35//35
f 156//156 39//39 38//38
f 157//157 42//42 41//41
f 75//75 44//44 43//43
f 78//78 46//46 45//45
f 81//81 48//48 47//47
f 84//84 50//50 49//49
f 87//87 52//52 51//51
f 90//90 45//45 53//53
f 93//93 43//43 54//54
f 96//96 51//51 55//55
f 99//99 49//49 56//56
f 102//102 47//47 57//57
f 105//105 59//59 58//58
f 108//108 61//61 60//60
f 111//111 63//63 62//62
f 114//114 65//65 64//64
f 117//117 67//67 66//66
f 119//119 58//58 68//68
f 121//121 60//60 69//69
f 123//123 62//62 70//70
f 125//125 64//64 71//71
f 127//127 66//66 72//72
f 74//74 11//11 46//46
f 77//77 8//8 48//48
f 80//80 20//20 50//50
f 83//83 17//17 52//52
f 86//86 14//14 44//44
f 89//89 68//68 42//42
f 92//92 69//69 30//30
f 95//95 70//70 33//33
f 98//98 71//71 36//36
f 101//101 72//72 39//39
f 104//104 29//29 61//61
f 107//107 32//32 63//63
f 110//110 35//35 65//65
f 113//113 38//38 67//67
f 116//116 41//41 59//59
f 118//118 53//53 12//12
f 120//120 54//54 15//15
f 122//122 55//55 18//18
f 124//124 56//56 21//21
f 126//126 57//57 9//9
f 129//129 75//75 74//74
f 131//131 78//78 77//77
f 133//133 81//81 80//80
f 135//135 84//84 83//83
f 137//137 87//87 86//86
f 138//138 90//90 89//89
f 139//139 93//93 92//92
f 140//140 96//96 95//95
f 141//141 99//99 98//98
f 142//142 102//102 101//101
f 144//144 105//105 104//104
f 146//146 108//108 107//107
f 148//148 111//111 110//110
f 150//150 114//114 113//113
f 152//152 117//117 116//116
f 153//153 119//119 118//118
f 154//154 121//121 120//120
f 155//155 123//123 122//122
f 156//156 125//125 124//124
f 157//157 127//127 126//126
