# Created by Open3D 
# object name: part_018
# number of vertices: 162
# number of triangles: 320
v -3.26672 0.240837 1.67287
vn -0.701675 -0.461791 -0.542588
v -3.25065 0.227428 1.66748
vn -0.404652 -0.372199 -0.8353
v -3.25576 0.222964 1.67657
vn -0.645947 -0.667211 -0.370921
v -3.27051 0.23795 1.68549
vn -0.826513 -0.548261 -0.127619
v -3.27511 0.252076 1.67682
vn -0.897327 -0.254574 -0.36055
v -3.26909 0.255173 1.66772
vn -0.510918 -0.204679 -0.834906
v -3.29749 0.216941 2.08198
vn -0.77066 -0.515373 0.374798
v -3.28595 0.199522 2.0779
vn -0.688183 -0.700019 0.190729
v -3.28228 0.202859 2.0881
vn -0.521379 -0.462863 0.716883
v -3.25815 0.217035 1.87853
vn 0.531019 -0.847306 -0.00955719
v -3.23949 0.231002 1.68838
vn 0.540635 -0.841197 -0.0100672
v -3.24369 0.226342 1.88016
vn 0.552087 -0.833756 -0.00718109
v -3.01629 0.380485 1.68968
vn 0.55605 -0.797804 -0.233061
v -3.01675 0.381629 1.68703
vn 0.198565 -0.132427 -0.9711
v -2.80563 0.52073 1.71341
vn 0.545487 -0.74819 -0.377698
v -3.03705 0.411722 1.68994
vn -0.522024 0.824232 -0.21939
v -3.23858 0.278568 1.67113
vn -0.5445 0.83412 -0.0881111
v -2.83672 0.545278 1.71693
vn -0.54319 0.834989 -0.0879629
v -3.27676 0.252281 1.83655
vn -0.575619 0.817706 0.00447415
v -3.29975 0.234665 2.05976
vn -0.606229 0.795288 0.0017889
v -3.28998 0.241555 2.06994
vn -0.566418 0.824089 0.00685285
v -2.82272 0.532033 2.13608
vn 0.701675 0.46179 0.542588
v -2.81654 0.51196 2.14118
vn 0.506334 0.219212 0.83401
v -2.81052 0.515056 2.13208
vn 0.868149 0.332895 0.368101
v -2.81869 0.534557 2.12346
vn 0.826513 0.548261 0.127618
v -2.82987 0.544169 2.13233
vn 0.584972 0.724528 0.364508
v -2.83498 0.539705 2.14142
vn 0.393034 0.382044 0.836401
v -2.8057 0.51732 1.9301
vn 0.575619 -0.817706 -0.00447408
v -2.82432 0.503306 2.12025
vn 0.566266 -0.824213 -0.00396776
v -2.81989 0.507607 1.92846
vn 0.554949 -0.831856 -0.00685518
v -2.79196 0.55593 1.72697
vn 0.77066 0.515372 -0.374799
v -2.78033 0.538498 1.73076
vn 0.910387 0.365696 -0.19355
v -2.78491 0.536529 1.72056
vn 0.623061 0.309877 -0.718172
v -2.8243 0.552566 1.88812
vn -0.531017 0.847307 0.00955738
v -2.80725 0.564622 1.74941
vn -0.497634 0.867302 0.0121385
v -2.81746 0.558401 1.73924
vn -0.540266 0.841469 0.00650869
v -3.06934 0.386648 2.11922
vn -0.55605 0.797804 0.233059
v -2.86839 0.52068 2.13805
vn -0.557482 0.823888 0.102084
v -3.27025 0.253971 2.09225
vn -0.558793 0.823019 0.101938
v -3.04858 0.35541 2.11896
vn 0.522025 -0.824232 0.219389
v -3.04943 0.356244 2.12162
vn 0.0527427 -0.245683 0.967914
v -3.25964 0.215759 2.09523
vn 0.481491 -0.796973 0.364693
v -3.21724 0.246452 1.67086
vn 0.557482 -0.823889 -0.102084
v -3.22731 0.240869 1.66535
vn 0.537393 -0.753557 -0.37863
v -3.27838 0.202511 2.05949
vn 0.49809 -0.86704 -0.0121817
v -3.25106 0.223735 1.69612
vn 0.49824 -0.866923 -0.0141728
v -3.3053 0.228635 2.07815
vn -0.938797 -0.286769 0.190848
v -3.29933 0.215567 2.06868
vn -0.831497 -0.552132 -0.0613453
v -3.26131 0.263826 1.68865
vn -0.566333 0.824169 0.00353819
v -3.27243 0.25589 1.69639
vn -0.606841 0.794823 -0.000307904
v -3.0362 0.410888 1.68728
vn -0.104855 0.319701 -0.941699
v -3.24767 0.271512 1.66561
vn -0.489586 0.791604 -0.365608
v -3.26817 0.208731 2.06966
vn 0.5404 -0.84138 -0.0069156
v -2.81538 0.513162 1.71666
vn 0.558793 -0.823019 -0.101937
v -2.82599 0.551374 1.71367
vn -0.481491 0.796972 -0.364694
v -3.26252 0.262024 1.83766
vn -0.554949 0.831856 0.00685514
v -3.30072 0.230604 2.08834
vn -0.627856 -0.295504 0.720051
v -2.84705 0.488564 2.13777
vn 0.5445 -0.83412 0.0881107
v -2.83796 0.49562 2.14329
vn 0.489587 -0.791604 0.365607
v -2.78588 0.532468 1.74914
vn 0.606584 -0.795017 -0.00182486
v -2.8132 0.511243 2.11251
vn 0.606432 -0.795135 0.00016613
v -2.79968 0.567611 1.731
vn 0.62644 0.756734 -0.186888
v -2.78987 0.55694 1.74026
vn 0.831497 0.552132 0.0613451
v -2.84614 0.53613 2.12052
vn -0.540679 0.841172 0.00978677
v -2.83457 0.543398 2.11278
vn -0.49862 0.866707 0.0140532
v -3.06888 0.385503 2.12187
vn -0.246831 0.209434 0.946156
v -2.85832 0.526264 2.14355
vn -0.537393 0.753558 0.378628
v -3.24891 0.221854 2.09197
vn 0.54319 -0.834989 0.087963
v -2.79565 0.525577 1.73896
vn 0.566502 -0.824029 -0.00711885
v -2.80335 0.564273 1.7208
vn 0.509973 0.472868 -0.718557
v -2.83873 0.543289 1.88596
vn -0.552087 0.833756 0.00718105
v -3.28 0.246403 2.09549
vn -0.545488 0.748191 0.377694
v -3.23119 0.236775 1.67633
vn 0.553388 -0.832005 -0.0391187
v -3.24586 0.227391 1.67798
vn 0.512204 -0.857397 -0.0501701
v -3.238 0.233051 1.66893
vn 0.526519 -0.840201 -0.129768
v -3.28327 0.199939 2.07137
vn 0.382816 -0.923701 -0.0150807
v -3.28685 0.199056 2.05886
vn -0.695276 -0.71342 -0.0873088
v -3.26982 0.210402 1.87726
vn 0.379208 -0.92496 -0.0255097
v -3.30392 0.23102 2.07163
vn -0.703883 0.710311 -0.0028602
v -3.28755 0.243992 1.83726
vn -0.706123 0.707991 -0.0117485
v -3.30622 0.228202 2.05911
vn -0.962482 -0.259024 -0.0808381
v -3.25287 0.269389 1.67661
vn -0.553079 0.832751 -0.0250915
v -3.25899 0.264639 1.6692
vn -0.571743 0.812213 -0.115842
v -3.26719 0.259481 1.67825
vn -0.592523 0.804742 -0.0361576
v -3.02844 0.399367 1.68634
vn 0.0748647 0.0581476 -0.995497
v -3.22834 0.242266 1.66323
vn 0.0931418 0.00662101 -0.995631
v -3.2468 0.270043 1.66346
vn 0.0300868 0.101526 -0.994378
v -3.2618 0.212998 2.0834
vn 0.548598 -0.835725 0.0245748
v -3.26961 0.208502 2.08921
vn 0.508591 -0.854126 0.108648
v -3.27598 0.203995 2.07851
vn 0.50645 -0.861866 0.0263498
v -2.80215 0.521521 1.72523
vn 0.557869 -0.82903 -0.0386078
v -2.81629 0.511648 1.73638
vn 0.553934 -0.832517 -0.00857801
v -3.01654 0.379126 1.69975
vn 0.555586 -0.830587 -0.0380811
v -2.8115 0.560244 1.71666
vn 0.00534021 0.551503 -0.834156
v -2.80244 0.549258 1.71562
vn 0.279509 0.1937 -0.940402
v -2.82464 0.550222 1.71158
vn 0.051912 0.116011 -0.99189
v -3.05066 0.402731 1.86165
vn -0.553519 0.832807 0.00701809
v -2.83832 0.544794 1.73666
vn -0.55307 0.83312 0.00503519
v -3.24064 0.277781 1.69081
vn -0.553663 0.832726 0.00496792
v -3.29382 0.236509 2.09249
vn -0.504048 0.198836 0.840476
v -3.2906 0.240091 2.08948
vn -0.589673 0.798286 0.122576
v -3.30094 0.232533 2.08494
vn -0.682963 0.714786 0.150473
v -2.83276 0.497744 2.1323
vn 0.553079 -0.832751 0.0250913
v -2.81844 0.507652 2.13065
vn 0.592523 -0.804742 0.0361576
v -2.82664 0.502493 2.1397
vn 0.571744 -0.812213 0.115841
v -2.78171 0.536113 1.73727
vn 0.703487 -0.710707 0.00130819
v -2.77941 0.538931 1.7498
vn 0.927649 0.363799 0.0843626
v -2.79505 0.525493 1.93137
vn 0.706124 -0.707991 0.0117486
v -2.80236 0.567194 1.73753
vn -0.383572 0.923421 0.012875
v -2.81279 0.559083 1.89137
vn -0.379207 0.92496 0.0255098
v -2.79878 0.568077 1.75004
vn 0.64004 0.763524 0.0859091
v -2.85444 0.530357 2.13257
vn -0.553388 0.832005 0.0391191
v -2.84763 0.534081 2.13997
vn -0.526519 0.840201 0.129767
v -2.83977 0.539742 2.13092
vn -0.512204 0.857397 0.0501705
v -3.06125 0.373884 2.12262
vn -0.0748647 -0.0581477 0.995497
v -2.83883 0.49709 2.14544
vn -0.0344366 -0.0949468 0.994887
v -2.85729 0.524866 2.14567
vn -0.0975271 -5.76695e-05 0.995233
v -3.24731 0.222339 2.07224
vn 0.553103 -0.833095 -0.00545848
v -3.04731 0.355229 2.10887
vn 0.550913 -0.834216 0.024051
v -2.79503 0.527042 1.71942
vn 0.589674 -0.798285 -0.122577
v -2.78832 0.531047 1.73012
vn 0.598282 -0.800269 -0.0403592
v -2.81602 0.55863 1.71969
vn -0.508591 0.854126 -0.108649
v -2.80502 0.565182 1.72421
vn -0.395693 0.908137 -0.136796
v -3.26934 0.255484 2.07252
vn -0.553913 0.832533 0.00830136
v -2.86702 0.522498 2.11838
vn -0.553322 0.832925 0.00836888
v -3.28719 0.223895 2.09333
vn -0.279508 -0.1937 0.940402
v -3.27945 0.244687 2.09756
vn -0.119352 -0.0145432 0.992746
v -3.24201 0.231837 1.66511
vn 0.0541246 -0.357326 -0.93241
v -3.2495 0.226115 1.67098
vn 0.41956 -0.889602 -0.180493
v -3.25409 0.222598 1.68343
vn 0.384319 -0.922534 -0.0350675
v -3.2595 0.220304 1.69508
vn -0.694285 -0.71265 -0.100489
v -3.2861 0.226511 1.87698
vn -0.829464 -0.550502 -0.0945337
v -3.27887 0.24945 1.69533
vn -0.951424 -0.292707 -0.0954698
v -3.27475 0.25368 1.68369
vn -0.701094 0.712687 -0.0233121
v -3.26983 0.256698 1.67124
vn -0.659105 0.733317 -0.166815
v -3.2617 0.261458 1.66535
vn -0.374847 0.299177 -0.877487
v -3.2549 0.248969 1.66405
vn -0.134517 -0.0810836 -0.987588
v -3.28061 0.20195 2.08469
vn 0.395693 -0.908137 0.136796
v -3.21861 0.244635 1.69053
vn 0.553342 -0.832909 -0.00864554
v -2.80618 0.522446 1.71134
vn 0.115069 0.0211743 -0.993132
v -3.03832 0.411904 1.70003
vn -0.550913 0.834216 -0.0240507
v -3.29731 0.236086 2.07878
vn -0.598281 0.80027 0.0403582
v -2.82393 0.505674 2.14355
vn 0.315722 -0.199133 0.927721
v -2.8158 0.510435 2.13766
vn 0.659106 -0.733316 0.166815
v -2.81088 0.513453 2.12521
vn 0.70198 -0.711878 0.021294
v -2.80676 0.517682 2.11358
vn 0.926657 0.363032 0.0975425
v -2.8036 0.546741 1.93197
vn 0.829465 0.550502 0.0945337
v -2.82613 0.546828 2.11382
vn 0.611146 0.785364 0.0985077
v -2.83154 0.544534 2.12547
vn -0.383562 0.922902 0.0336475
v -2.83613 0.541018 2.13792
vn -0.419561 0.889602 0.180492
v -2.84362 0.535295 2.1438
vn -0.123858 0.451158 0.883807
v -2.83473 0.524184 2.1449
vn 0.134517 0.0810836 0.987588
v -2.84499 0.489352 2.1181
vn 0.553694 -0.832703 -0.00539116
v -2.78469 0.5346 1.72396
vn 0.682963 -0.714786 -0.150473
v -2.80965 0.563138 1.73039
vn -0.506449 0.861867 -0.02635
v -3.06909 0.388007 2.10915
vn -0.555586 0.830587 0.0380821
v -3.26099 0.21691 2.09733
vn -0.0563646 -0.1095 0.992387
v -3.27413 0.206888 2.09224
vn -0.0823523 -0.463326 0.882353
v -3.03174 0.36691 1.90431
vn 0.553519 -0.832807 -0.00701815
v -2.79181 0.530623 1.71641
vn 0.4522 -0.093132 -0.887041
v -2.82383 0.554134 1.7255
vn -0.548598 0.835725 -0.0245741
v -3.28348 0.245612 2.08367
vn -0.557869 0.82903 0.0386091
f 1//1 2//2 3//3
f 1//1 3//3 4//4
f 1//1 4//4 5//5
f 1//1 5//5 6//6
f 1//1 6//6 2//2
f 7//7 8//8 9//9
f 10//10 11//11 12//12
f 13//13 14//14 15//15
f 16//16 17//17 18//18
f 19//19 20//20 21//21
f 22//22 23//23 24//24
f 22//22 24//24 25//25
f 22//22 25//25 26//26
f 22//22 26//26 27//27
f 22//22 27//27 23//23
f 28//28 29//29 30//30
f 31//31 32//32 33//33
f 34//34 35//35 36//36
f 37//37 38//38 39//39
f 40//40 41//41 42//42
f 13//13 43//43 44//44
f 10//10 45//45 46//46
f 7//7 47//47 48//48
f 19//19 49//49 50//50
f 16//16 51//51 52//52
f 10//10 53//53 45//45
f 13//13 54//54 43//43
f 16//16 55//55 51//51
f 19//19 56//56 49//49
f 7//7 57//57 47//47
f 40//40 58//58 59//59
f 28//28 60//60 61//61
f 31//31 62//62 63//63
f 34//34 64//64 65//65
f 37//37 66//66 67//67
f 40//40 68//68 58//58
f 28//28 69//69 60//60
f 31//31 70//70 62//62
f 34//34 71//71 64//64
f 37//37 72//72 66//66
f 10//10 46//46 11//11
f 7//7 48//48 8//8
f 19//19 50//50 20//20
f 16//16 52//52 17//17
f 13//13 44//44 14//14
f 40//40 42//42 68//68
f 28//28 30//30 69//69
f 31//31 33//33 70//70
f 34//34 36//36 71//71
f 37//37 39//39 72//72
f 28//28 61//61 29//29
f 31//31 63//63 32//32
f 34//34 65//65 35//35
f 37//37 67//67 38//38
f 40//40 59//59 41//41
f 10//10 12//12 53//53
f 13//13 15//15 54//54
f 16//16 18//18 55//55
f 19//19 21//21 56//56
f 7//7 9//9 57//57
f 73//73 74//74 75//75
f 76//76 77//77 78//78
f 79//79 80//80 81//81
f 82//82 83//83 84//84
f 85//85 86//86 87//87
f 88//88 89//89 90//90
f 91//91 92//92 93//93
f 94//94 95//95 96//96
f 97//97 98//98 99//99
f 100//100 101//101 102//102
f 103//103 104//104 105//105
f 106//106 107//107 108//108
f 109//109 110//110 111//111
f 112//112 113//113 114//114
f 115//115 116//116 117//117
f 88//88 118//118 119//119
f 91//91 120//120 121//121
f 94//94 122//122 123//123
f 97//97 124//124 125//125
f 100//100 126//126 127//127
f 128//128 129//129 2//2
f 130//130 131//131 3//3
f 132//132 133//133 4//4
f 134//134 135//135 5//5
f 136//136 137//137 6//6
f 76//76 138//138 8//8
f 73//73 139//139 11//11
f 85//85 140//140 14//14
f 82//82 141//141 17//17
f 79//79 142//142 20//20
f 143//143 144//144 23//23
f 145//145 146//146 24//24
f 147//147 148//148 25//25
f 149//149 150//150 26//26
f 151//151 152//152 27//27
f 103//103 153//153 29//29
f 106//106 154//154 32//32
f 109//109 155//155 35//35
f 112//112 156//156 38//38
f 115//115 157//157 41//41
f 73//73 75//75 43//43
f 76//76 78//78 45//45
f 79//79 81//81 47//47
f 82//82 84//84 49//49
f 85//85 87//87 51//51
f 88//88 90//90 53//53
f 91//91 93//93 54//54
f 94//94 96//96 55//55
f 97//97 99//99 56//56
f 100//100 102//102 57//57
f 103//103 105//105 58//58
f 106//106 108//108 60//60
f 109//109 111//111 62//62
f 112//112 114//114 64//64
f 115//115 117//117 66//66
f 88//88 119//119 68//68
f 91//91 121//121 69//69
f 94//94 123//123 70//70
f 97//97 125//125 71//71
f 100//100 127//127 72//72
f 130//130 74//74 46//46
f 132//132 77//77 48//48
f 134//134 80//80 50//50
f 136//136 83//83 52//52
f 128//128 86//86 44//44
f 158//158 89//89 42//42
f 159//159 92//92 30//30
f 160//160 95//95 33//33
f 161//161 98//98 36//36
f 162//162 101//101 39//39
f 145//145 104//104 61//61
f 147//147 107//107 63//63
f 149//149 110//110 65//65
f 151//151 113//113 67//67
f 143//143 116//116 59//59
f 159//159 118//118 12//12
f 160//160 120//120 15//15
f 161//161 122//122 18//18
f 162//162 124//124 21//21
f 158//158 126//126 9//9
f 130//130 129//129 74//74
f 132//132 131//131 77//77
f 134//134 133//133 80//80
f 136//136 135//135 83//83
f 128//128 137//137 86//86
f 158//158 138//138 89//89
f 159//159 139//139 92//92
f 160//160 140//140 95//95
f 161//161 141//141 98//98
f 162//162 142//142 101//101
f 145//145 144//144 104//104
f 147//147 146//146 107//107
f 149//149 148//148 110//110
f 151//151 150//150 113//113
f 143//143 152//152 116//116
f 159//159 153//153 118//118
f 160//160 154//154 120//120
f 161//161 155//155 122//122
f 162//162 156//156 124//124
f 158//158 157//157 126//126
f 130//130 3//3 129//129
f 132//132 4//4 131//131
f 134//134 5//5 133//133
f 136//136 6//6 135//135
f 128//128 2//2 137//137
f 158//158 9//9 138//138
f 159//159 12//12 139//139
f 160//160 15//15 140//140
f 161//161 18//18 141//141
f 162//162 21//21 142//142
f 145//145 24//24 144//144
f 147//147 25//25 146//146
f 149//149 26//26 148//148
f 151//151 27//27 150//150
f 143//143 23//23 152//152
f 159//159 30//30 153//153
f 160//160 33//33 154//154
f 161//161 36//36 155//155
f 162//162 39//39 156//156
f 158//158 42//42 157//157
f 128//128 44//44 75//75
f 130//130 46//46 78//78
f 132//132 48//48 81//81
f 134//134 50//50 84//84
f 136//136 52//52 87//87
f 76//76 45//45 90//90
f 73//73 43//43 93//93
f 85//85 51//51 96//96
f 82//82 49//49 99//99
f 79//79 47//47 102//102
f 143//143 59//59 105//105
f 145//145 61//61 108//108
f 147//147 63//63 111//111
f 149//149 65//65 114//114
f 151//151 67//67 117//117
f 103//103 58//58 119//119
f 106//106 60//60 121//121
f 109//109 62//62 123//123
f 112//112 64//64 125//125
f 115//115 66//66 127//127
f 73//73 11//11 74//74
f 76//76 8//8 77//77
f 79//79 20//20 80//80
f 82//82 17//17 83//83
f 85//85 14//14 86//86
f 88//88 68//68 89//89
f 91//91 69//69 92//92
f 94//94 70//70 95//95
f 97//97 71//71 98//98
f 100//100 72//72 101//101
f 103//103 29//29 104//104
f 106//106 32//32 107//107
f 109//109 35//35 110//110
f 112//112 38//38 113//113
f 115//115 41//41 116//116
f 88//88 53//53 118//118
f 91//91 54//54 120//120
f 94//94 55//55 122//122
f 97//97 56//56 124//124
f 100//100 57//57 126//126
f 128//128 75//75 129//129
f 130//130 78//78 131//131
f 132//132 81//81 133//133
f 134//134 84//84 135//135
f 136//136 87//87 137//137
f 76//76 90//90 138//138
f 73//73 93//93 139//139
f 85//85 96//96 140//140
f 82//82 99//99 141//141
f 79//79 102//102 142//142
f 143//143 105//105 144//144
f 145//145 108//108 146//146
f 147//147 111//111 148//148
f 149//149 114//114 150//150
f 151//151 117//117 152//152
f 103//103 119//119 153//153
f 106//106 121//121 154//154
f 109//109 123//123 155//155
f 112//112 125//125 156//156
f 115//115 127//127 157//157
f 129//129 3//3 2//2
f 131//131 4//4 3//3
f 133//133 5//5 4//4
f 135//135 6//6 5//5
f 137//137 2//2 6//6
f 138//138 9//9 8//8
f 139//139 12//12 11//11
f 140//140 15//15 14//14
f 141//141 18//18 17//17
f 142//142 21//21 20//20
f 144//144 24//24 23//23
f 146//146 25//25 24//24
f 148//148 26//26 25//25
f 150//150 27//27 26//26
f 152//152 23//23 27//27
f 153//153 30//30 29//29
f 154//154 33//33 32//32
f 155//155 36//36 35//35
f 156//156 39//39 38//38
f 157//157 42//42 41//41
f 75//75 44//44 43//43
f 78//78 46//46 45//45
f 81//81 48//48 47//47
f 84//84 50//50 49//49
f 87//87 52//52 51//51
f 90//90 45//45 53//53
f 93//93 43//43 54//54
f 96//96 51//51 55//55
f 99//99 49//49 56//56
f 102//102 47//47 57//57
f 105//105 59//59 58//58
f 108//108 61//61 60//60
f 111//111 63//63 62//62
f 114//114 65//65 64//64
f 117//117 67//67 66//66
f 119//119 58//58 68//68
f 121//121 60//60 69//69
f 123//123 62//62 70//70
f 125//125 64//64 71//71
f 127//127 66//66 72//72
f 74//74 11//11 46//46
f 77//77 8//8 48//48
f 80//80 20//20 50//50
f 83//83 17//17 52//52
f 86//86 14//14 44//44
f 89//89 68//68 42//42
f 92//92 69//69 30//30
f 95//95 70//70 33//33
f 98//98 71//71 36//36
f 101//101 72//72 39//39
f 104//104 29//29 61//61
f 107//107 32//32 63//63
f 110//110 35//35 65//65
f 113//113 38//38 67//67
f 116//116 41//41 59//59
f 118//118 53//53 12//12
f 120//120 54//54 15//15
f 122//122 55//55 18//18
f 124//124 56//56 21//21
f 126//126 57//57 9//9
f 129//129 75//75 74//74
f 131//131 78//78 77//77
f 133//133 81//81 80//80
f 135//135 84//84 83//83
f 137//137 87//87 86//86
f 138//138 90//90 89//89
f 139//139 93//93 92//92
f 140//140 96//96 95//95
f 141//141 99//99 98//98
f 142//142 102//102 101//101
f 144//144 105//105 104//104
f 146//146 108//108 107//107
f 148//148 111//111 110//110
f 150//150 114//114 113//113
f 152//152 117//117 116//116
f 153//153 119//119 118//118
f 154//154 121//121 120//120
f 155//155 123//123 122//122
f 156//156 125//125 124//124
f 157//157 127//127 126//126
