# Created by Open3D 
# object name: part_003
# number of vertices: 162
# number of triangles: 320
v -0.970139 1.62797 1.62783
vn -0.0548013 0.00732422 0.99847
v -0.972473 1.60256 1.62742
vn -0.0831052 -0.044626 0.995541
v -0.949925 1.6161 1.62872
vn -0.0196711 -0.0188428 0.999629
v -0.940304 1.64688 1.62871
vn -0.0259345 0.0258762 0.999329
v -0.968786 1.6455 1.62747
vn -0.0735484 0.0650921 0.995165
v -0.990449 1.63058 1.62623
vn -0.116832 0.00660073 0.99313
v -0.0312613 2.23044 1.63397
vn 0.00692587 0.0469347 0.998874
v -0.0289009 2.20711 1.63474
vn 0.0160671 0.00408939 0.999863
v -0.00718473 2.22197 1.63373
vn 0.0659713 0.0510343 0.996516
v -0.488162 1.90968 1.62915
vn 0.531003 -0.829278 0.174166
v -0.925633 1.62888 1.6253
vn 0.535349 -0.836541 0.116623
v -0.487951 1.90939 1.62585
vn 0.539315 -0.840913 0.0447694
v -0.979995 1.59295 1.5736
vn 0.46549 -0.884354 0.0351823
v -0.986728 1.59004 1.57352
vn -0.422701 -0.906153 0.0144851
v -0.979709 1.59148 1.52484
vn 0.410799 -0.911695 0.00749626
v -1.00023 1.6245 1.57226
vn -0.609651 0.791847 -0.0361252
v -0.992263 1.63222 1.61875
vn -0.569021 0.821707 -0.0318269
v -0.990036 1.62969 1.52585
vn -0.568824 0.821482 -0.0400865
v -0.60637 1.88056 1.62711
vn -0.537654 0.836817 0.103274
v -0.0922813 2.21007 1.63195
vn -0.518439 0.8056 0.286756
v -0.0718792 2.22353 1.62961
vn -0.539323 0.840902 0.0448846
v -0.0286306 2.22746 1.52422
vn 0.0548009 -0.00732526 -0.99847
v -0.00460407 2.21905 1.52607
vn 0.113671 -0.00302633 -0.993514
v -0.0262665 2.20413 1.52483
vn 0.0639231 -0.0501499 -0.996694
v -0.0582308 2.20817 1.52335
vn 0.0259344 -0.0258763 -0.999329
v -0.0451279 2.23353 1.52358
vn 0.0100685 0.033875 -0.999375
v -0.0225792 2.24707 1.52487
vn 0.0811669 0.0490034 -0.995495
v -0.485655 1.90684 1.52455
vn 0.537653 -0.836814 -0.103307
v -0.0481542 2.18759 1.52841
vn 0.540209 -0.840311 -0.0452925
v -0.485603 1.90672 1.52788
vn 0.539746 -0.841401 0.0267975
v -0.967509 1.62499 1.51808
vn -0.00692586 -0.0469354 -0.998874
v -0.94729 1.61311 1.51881
vn 0.0281852 -0.0730807 -0.996928
v -0.969893 1.59963 1.51976
vn -0.0354045 -0.0986879 -0.994488
v -0.603863 1.87772 1.52251
vn -0.531002 0.829276 -0.17418
v -0.923603 1.67204 1.51896
vn -0.502766 0.786448 -0.358786
v -0.944439 1.65925 1.52128
vn -0.536415 0.83577 -0.117253
v -0.0150582 2.25668 1.5787
vn -0.465489 0.884354 -0.0351817
v -0.0235967 2.24985 1.53217
vn -0.509404 0.859611 -0.0396962
v -0.0258235 2.25237 1.62507
vn -0.509604 0.859835 -0.0314381
v 0.00517981 2.22513 1.58004
vn 0.609647 -0.79185 0.0361249
v 0.0106313 2.23004 1.58004
vn 0.999695 0.00658944 0.0237831
v 0.00450982 2.2272 1.62877
vn 0.656251 -0.751885 0.0632739
v -0.971456 1.59978 1.62013
vn 0.5094 -0.859614 0.039697
v -0.982046 1.59413 1.62232
vn 0.409498 -0.910225 0.0616612
v -0.0714493 2.17759 1.63333
vn 0.503226 -0.787201 0.356482
v -0.905349 1.64248 1.62788
vn 0.502633 -0.787571 0.356501
v -0.0477623 2.23652 1.63349
vn -0.0377455 0.0880663 0.995399
v -0.060894 2.21119 1.63446
vn -0.0219726 0.0284202 0.999355
v -0.946898 1.66204 1.62389
vn -0.540326 0.840203 0.0459034
v -0.926181 1.67496 1.6265
vn -0.518344 0.804104 0.291096
v -1.00568 1.61959 1.57226
vn -0.98565 0.166439 -0.0281468
v -1.0019 1.62508 1.62101
vn -0.657551 0.753355 -0.00910875
v -0.0506135 2.19038 1.63102
vn 0.536328 -0.835913 0.116624
v -0.969229 1.59725 1.52723
vn 0.509598 -0.859838 0.0314383
v -0.999562 1.62243 1.52352
vn -0.656252 0.751884 -0.0632745
v -0.607621 1.87991 1.62378
vn -0.539746 0.841401 -0.0267969
v -0.0251598 2.25 1.63254
vn 0.0334772 0.103054 0.994112
v -0.00278952 2.21741 1.53355
vn 0.56902 -0.821707 0.0318263
v 0.00684638 2.22455 1.53129
vn 0.657553 -0.753354 0.00910553
v -0.902771 1.63956 1.52034
vn 0.518101 -0.805103 -0.288757
v -0.0688717 2.17467 1.5258
vn 0.518691 -0.804728 -0.288743
v -0.966152 1.64252 1.51756
vn -0.025734 0.0109004 -0.999609
v -0.93764 1.64386 1.5176
vn 0.0219726 -0.0284202 -0.999355
v -0.0694198 2.22074 1.527
vn -0.535461 0.836525 -0.116224
v -0.0897037 2.20715 1.52441
vn -0.503064 0.788173 -0.354554
v -0.00832477 2.25959 1.57878
vn 0.259606 0.965507 -0.0200079
v -0.0130067 2.2555 1.52997
vn -0.409487 0.91023 -0.0616616
v -0.00501629 2.21994 1.62645
vn 0.568823 -0.821482 0.0400861
v -0.923173 1.6261 1.52269
vn 0.53923 -0.840939 -0.0452984
v -0.987868 1.62765 1.51856
vn -0.0691414 -0.0474483 -0.996478
v -0.605273 1.87725 1.52581
vn -0.539315 0.840913 -0.0447685
v -0.0153433 2.25815 1.62745
vn -0.410796 0.911697 -0.00749465
v -0.955245 1.60996 1.62339
vn 0.529201 -0.847034 0.0497898
v -0.947997 1.61512 1.62672
vn 0.502931 -0.812125 0.295828
v -0.970778 1.60079 1.62488
vn 0.487217 -0.84228 0.230615
v -0.0436217 2.19625 1.63433
vn 0.362478 -0.567527 0.739272
v -0.0719905 2.17946 1.63499
vn -0.00132227 -0.00724085 0.999973
v -0.488723 1.91053 1.6317
vn 0.355225 -0.56119 0.747584
v -0.0637586 2.22764 1.63299
vn -0.391915 0.607865 0.690581
v -0.601377 1.88278 1.62975
vn -0.389874 0.600458 0.698175
v -0.0908734 2.2089 1.63374
vn -0.0579581 0.081099 0.99502
v -0.976375 1.6429 1.62199
vn -0.54972 0.835065 -0.021769
v -0.991243 1.6327 1.62352
vn -0.569927 0.80587 0.160488
v -0.968788 1.64754 1.62534
vn -0.538511 0.81154 0.226737
v -1.00013 1.60666 1.57274
vn -0.841611 -0.540056 -0.00550122
v -0.98781 1.59248 1.62228
vn -0.747715 -0.638646 0.181805
v -1.00581 1.62053 1.62109
vn -0.90766 -0.383855 0.169731
v -0.0210552 2.20942 1.62949
vn 0.549047 -0.8343 0.049918
v -0.00626449 2.21971 1.63118
vn 0.560544 -0.795232 0.231079
v -0.0288002 2.20497 1.63273
vn 0.525983 -0.797341 0.295953
v -0.952868 1.60726 1.5242
vn 0.529877 -0.847799 0.0216366
v -0.923682 1.62574 1.52749
vn 0.5391 -0.841558 0.0339247
v -0.956353 1.60702 1.57378
vn 0.529837 -0.847347 0.0357188
v -0.995994 1.62385 1.52027
vn -0.366375 0.132916 -0.920925
v -0.990808 1.61035 1.5205
vn -0.199497 -0.169021 -0.965211
v -1.00347 1.61788 1.5235
vn -0.898992 -0.393678 -0.191913
v -0.60687 1.8784 1.57479
vn -0.539552 0.841191 -0.0357848
v -0.945156 1.65922 1.52607
vn -0.540135 0.840736 -0.0376501
v -0.947386 1.66175 1.61908
vn -0.540224 0.840837 -0.0339267
v -0.0182492 2.25569 1.63075
vn -0.00315518 0.4432 0.896417
v -0.0267296 2.25162 1.62982
vn -0.496606 0.852918 0.160975
v -0.0340119 2.24634 1.63232
vn -0.387696 0.682816 0.619237
v -0.0186778 2.20673 1.53031
vn 0.549721 -0.835065 0.0217659
v -0.0262649 2.20209 1.52696
vn 0.538512 -0.81154 -0.226732
v -0.00380997 2.21693 1.52878
vn 0.569926 -0.805868 -0.160503
v -0.931294 1.62199 1.5193
vn 0.392277 -0.609176 -0.689219
v -0.904179 1.64073 1.51855
vn 0.0457387 -0.0620068 -0.997027
v -0.486092 1.90755 1.52194
vn 0.389882 -0.600472 -0.698158
v -0.951431 1.65338 1.51797
vn -0.364027 0.568877 -0.737471
v -0.598746 1.8798 1.52
vn -0.355233 0.561203 -0.747569
v -0.923062 1.67017 1.5173
vn -0.00691006 0.0200283 -0.999776
v -0.0398073 2.23967 1.52891
vn -0.529202 0.847034 -0.0497886
v -0.0242751 2.24884 1.52742
vn -0.48722 0.842279 -0.230612
v -0.0470554 2.23451 1.52558
vn -0.502931 0.812124 -0.295829
v 0.00110964 2.24915 1.57929
vn 0.841611 0.540056 0.00550126
v 0.0107532 2.2291 1.5312
vn 0.899112 0.402611 -0.171763
v -0.00724236 2.25715 1.53001
vn 0.73418 0.654319 -0.181237
v -0.0498963 2.1904 1.62623
vn 0.540003 -0.840821 0.0376444
v -0.0174639 2.2095 1.57992
vn 0.549196 -0.834924 0.0358454
v -0.968323 1.59801 1.52247
vn 0.496606 -0.852918 -0.160977
v -0.945462 1.61225 1.52095
vn 0.515462 -0.826328 -0.226895
v -0.988788 1.62992 1.52112
vn -0.560541 0.795231 -0.231086
v -0.980854 1.63418 1.51866
vn -0.43394 0.59816 -0.673722
v -0.0713703 2.22388 1.6248
vn -0.539186 0.841503 -0.0339291
v -0.0691411 2.22136 1.5318
vn -0.539097 0.841403 -0.0376344
v -0.00814523 2.24536 1.63154
vn 0.199498 0.169022 0.965211
v -0.00958158 2.2598 1.6276
vn 0.725512 0.664143 0.180407
v -0.979298 1.59676 1.62562
vn -0.0989292 -0.320363 0.942115
v -0.963616 1.60621 1.62743
vn 0.356717 -0.647704 0.673226
v -0.933912 1.62495 1.62851
vn 0.358031 -0.57036 0.739259
v -0.906839 1.64374 1.62954
vn -0.00212706 -0.00775751 0.999968
v -0.500845 1.92942 1.63179
vn -0.0239537 0.0271484 0.999344
v -0.925722 1.67318 1.62829
vn -0.0547425 0.0742407 0.995737
v -0.954049 1.65635 1.62717
vn -0.398168 0.607567 0.687259
v -0.98343 1.6371 1.62611
vn -0.464917 0.633269 0.618727
v -0.998489 1.62668 1.62434
vn -0.409874 0.182214 0.893757
v -0.993315 1.61319 1.6251
vn -0.2457 -0.116659 0.9623
v -0.0141983 2.21545 1.63363
vn 0.433932 -0.598148 0.673738
v -0.925912 1.62827 1.6205
vn 0.539011 -0.841458 0.0376377
v -0.985471 1.58983 1.52469
vn -0.738983 -0.648543 -0.182472
v -0.977589 1.64013 1.57238
vn -0.549196 0.834924 -0.0358455
v -0.0495907 2.23738 1.63135
vn -0.515463 0.826331 0.226881
v 0.00343594 2.22295 1.52795
vn 0.368514 -0.0999355 -0.924235
v -0.0116227 2.21253 1.52618
vn 0.464926 -0.633281 -0.618708
v -0.0410041 2.19328 1.52512
vn 0.396721 -0.606339 -0.689177
v -0.0693303 2.17645 1.52401
vn 0.0465441 -0.061491 -0.997022
v -0.498172 1.92639 1.52025
vn 0.0239536 -0.0271482 -0.999344
v -0.0882132 2.20588 1.52276
vn -0.0101476 0.0269115 -0.999586
v -0.0611411 2.22467 1.52379
vn -0.357631 0.569015 -0.740488
v -0.0314364 2.24342 1.52487
vn -0.356726 0.647713 -0.673212
v -0.0157547 2.25287 1.52668
vn 0.0403474 0.393903 -0.918266
v -0.00563815 2.24252 1.52694
vn 0.2457 0.116659 -0.9623
v -0.047667 2.18788 1.53322
vn 0.540092 -0.840922 0.033932
v -0.961041 1.60329 1.51998
vn 0.387699 -0.682818 -0.619232
v -0.966252 1.64466 1.51957
vn -0.525981 0.797337 -0.295969
v -0.0386997 2.24261 1.57851
vn -0.529837 0.847347 -0.0357185
v 0.00841395 2.23175 1.6288
vn 0.890381 0.412506 0.192513
v 0.000941375 2.22577 1.63202
vn 0.323713 -0.0491575 0.944878
v -0.486735 1.90799 1.57686
vn 0.539553 -0.841191 0.0357848
v -0.976803 1.59393 1.52154
vn -0.0541254 -0.371141 -0.926998
v -0.973997 1.64021 1.5228
vn -0.549047 0.834299 -0.0499204
v -0.0421847 2.24236 1.62809
vn -0.529875 0.847799 -0.0216385
f 1//1 2//2 3//3
f 1//1 3//3 4//4
f 1//1 4//4 5//5
f 1//1 5//5 6//6
f 1//1 6//6 2//2
f 7//7 8//8 9//9
f 10//10 11//11 12//12
f 13//13 14//14 15//15
f 16//16 17//17 18//18
f 19//19 20//20 21//21
f 22//22 23//23 24//24
f 22//22 24//24 25//25
f 22//22 25//25 26//26
f 22//22 26//26 27//27
f 22//22 27//27 23//23
f 28//28 29//29 30//30
f 31//31 32//32 33//33
f 34//34 35//35 36//36
f 37//37 38//38 39//39
f 40//40 41//41 42//42
f 13//13 43//43 44//44
f 10//10 45//45 46//46
f 7//7 47//47 48//48
f 19//19 49//49 50//50
f 16//16 51//51 52//52
f 10//10 53//53 45//45
f 13//13 54//54 43//43
f 16//16 55//55 51//51
f 19//19 56//56 49//49
f 7//7 57//57 47//47
f 40//40 58//58 59//59
f 28//28 60//60 61//61
f 31//31 62//62 63//63
f 34//34 64//64 65//65
f 37//37 66//66 67//67
f 40//40 68//68 58//58
f 28//28 69//69 60//60
f 31//31 70//70 62//62
f 34//34 71//71 64//64
f 37//37 72//72 66//66
f 10//10 46//46 11//11
f 7//7 48//48 8//8
f 19//19 50//50 20//20
f 16//16 52//52 17//17
f 13//13 44//44 14//14
f 40//40 42//42 68//68
f 28//28 30//30 69//69
f 31//31 33//33 70//70
f 34//34 36//36 71//71
f 37//37 39//39 72//72
f 28//28 61//61 29//29
f 31//31 63//63 32//32
f 34//34 65//65 35//35
f 37//37 67//67 38//38
f 40//40 59//59 41//41
f 10//10 12//12 53//53
f 13//13 15//15 54//54
f 16//16 18//18 55//55
f 19//19 21//21 56//56
f 7//7 9//9 57//57
f 73//73 74//74 75//75
f 76//76 77//77 78//78
f 79//79 80//80 81//81
f 82//82 83//83 84//84
f 85//85 86//86 87//87
f 88//88 89//89 90//90
f 91//91 92//92 93//93
f 94//94 95//95 96//96
f 97//97 98//98 99//99
f 100//100 101//101 102//102
f 103//103 104//104 105//105
f 106//106 107//107 108//108
f 109//109 110//110 111//111
f 112//112 113//113 114//114
f 115//115 116//116 117//117
f 88//88 118//118 119//119
f 91//91 120//120 121//121
f 94//94 122//122 123//123
f 97//97 124//124 125//125
f 100//100 126//126 127//127
f 128//128 129//129 2//2
f 130//130 131//131 3//3
f 132//132 133//133 4//4
f 134//134 135//135 5//5
f 136//136 137//137 6//6
f 76//76 138//138 8//8
f 73//73 139//139 11//11
f 85//85 140//140 14//14
f 82//82 141//141 17//17
f 79//79 142//142 20//20
f 143//143 144//144 23//23
f 145//145 146//146 24//24
f 147//147 148//148 25//25
f 149//149 150//150 26//26
f 151//151 152//152 27//27
f 103//103 153//153 29//29
f 106//106 154//154 32//32
f 109//109 155//155 35//35
f 112//112 156//156 38//38
f 115//115 157//157 41//41
f 73//73 75//75 43//43
f 76//76 78//78 45//45
f 79//79 81//81 47//47
f 82//82 84//84 49//49
f 85//85 87//87 51//51
f 88//88 90//90 53//53
f 91//91 93//93 54//54
f 94//94 96//96 55//55
f 97//97 99//99 56//56
f 100//100 102//102 57//57
f 103//103 105//105 58//58
f 106//106 108//108 60//60
f 109//109 111//111 62//62
f 112//112 114//114 64//64
f 115//115 117//117 66//66
f 88//88 119//119 68//68
f 91//91 121//121 69//69
f 94//94 123//123 70//70
f 97//97 125//125 71//71
f 100//100 127//127 72//72
f 130//130 74//74 46//46
f 132//132 77//77 48//48
f 134//134 80//80 50//50
f 136//136 83//83 52//52
f 128//128 86//86 44//44
f 158//158 89//89 42//42
f 159//159 92//92 30//30
f 160//160 95//95 33//33
f 161//161 98//98 36//36
f 162//162 101//101 39//39
f 145//145 104//104 61//61
f 147//147 107//107 63//63
f 149//149 110//110 65//65
f 151//151 113//113 67//67
f 143//143 116//116 59//59
f 159//159 118//118 12//12
f 160//160 120//120 15//15
f 161//161 122//122 18//18
f 162//162 124//124 21//21
f 158//158 126//126 9//9
f 130//130 129//129 74//74
f 132//132 131//131 77//77
f 134//134 133//133 80//80
f 136//136 135//135 83//83
f 128//128 137//137 86//86
f 158//158 138//138 89//89
f 159//159 139//139 92//92
f 160//160 140//140 95//95
f 161//161 141//141 98//98
f 162//162 142//142 101//101
f 145//145 144//144 104//104
f 147//147 146//146 107//107
f 149//149 148//148 110//110
f 151//151 150//150 113//113
f 143//143 152//152 116//116
f 159//159 153//153 118//118
f 160//160 154//154 120//120
f 161//161 155//155 122//122
f 162//162 156//156 124//124
f 158//158 157//157 126//126
f 130//130 3//3 129//129
f 132//132 4//4 131//131
f 134//134 5//5 133//133
f 136//136 6//6 135//135
f 128//128 2//2 137//137
f 158//158 9//9 138//138
f 159//159 12//12 139//139
f 160//160 15//15 140//140
f 161//161 18//18 141//141
f 162//162 21//21 142//142
f 145//145 24//24 144//144
f 147//147 25//25 146//146
f 149//149 26//26 148//148
f 151//151 27//27 150//150
f 143//143 23//23 152//152
f 159//159 30//30 153//153
f 160//160 33//33 154//154
f 161//161 36//36 155//155
f 162//162 39//39 156//156
f 158//158 42//42 157//157
f 128//128 44//44 75//75
f 130//130 46//46 78//78
f 132//132 48//48 81//81
f 134//134 50//50 84//84
f 136//136 52//52 87//87
f 76//76 45//45 90//90
f 73//73 43//43 93//93
f 85//85 51//51 96//96
f 82//82 49//49 99//99
f 79//79 47//47 102//102
f 143//143 59//59 105//105
f 145//145 61//61 108//108
f 147//147 63//63 111//111
f 149//149 65//65 114//114
f 151//151 67//67 117//117
f 103//103 58//58 119//119
f 106//106 60//60 121//121
f 109//109 62//62 123//123
f 112//112 64//64 125//125
f 115//115 66//66 127//127
f 73//73 11//11 74//74
f 76//76 8//8 77//77
f 79//79 20//20 80//80
f 82//82 17//17 83//83
f 85//85 14//14 86//86
f 88//88 68//68 89//89
f 91//91 69//69 92//92
f 94//94 70//70 95//95
f 97//97 71//71 98//98
f 100//100 72//72 101//101
f 103//103 29//29 104//104
f 106//106 32//32 107//107
f 109//109 35//35 110//110
f 112//112 38//38 113//113
f 115//115 41//41 116//116
f 88//88 53//53 118//118
f 91//91 54//54 120//120
f 94//94 55//55 122//122
f 97//97 56//56 124//124
f 100//100 57//57 126//126
f 128//128 75//75 129//129
f 130//130 78//78 131//131
f 132//132 81//81 133//133
f 134//134 84//84 135//135
f 136//136 87//87 137//137
f 76//76 90//90 138//138
f 73//73 93//93 139//139
f 85//85 96//96 140//140
f 82//82 99//99 141//141
f 79//79 102//102 142//142
f 143//143 105//105 144//144
f 145//145 108//108 146//146
f 147//147 111//111 148//148
f 149//149 114//114 150//150
f 151//151 117//117 152//152
f 103//103 119//119 153//153
f 106//106 121//121 154//154
f 109//109 123//123 155//155
f 112//112 125//125 156//156
f 115//115 127//127 157//157
f 129//129 3//3 2//2
f 131//131 4//4 3//3
f 133//133 5//5 4//4
f 135//135 6//6 5//5
f 137//137 2//2 6//6
f 138//138 9//9 8//8
f 139//139 12//12 11//11
f 140//140 15//15 14//14
f 141//141 18//18 17//17
f 142//142 21//21 20//20
f 144//144 24//24 23//23
f 146//146 25//25 24//24
f 148//148 26//26 25//25
f 150//150 27//27 26//26
f 152//152 23//23 27//27
f 153//153 30//30 29//29
f 154//154 33//33 32//32
f 155//155 36//36 35//35
f 156//156 39//39 38//38
f 157//157 42//42 41//41
f 75//75 44//44 43//43
f 78//78 46//46 45//45
f 81//81 48//48 47//47
f 84//84 50//50 49//49
f 87//87 52//52 51//51
f 90//90 45//45 53//53
f 93//93 43//43 54//54
f 96//96 51//51 55//55
f 99//99 49//49 56//56
f 102//102 47//47 57//57
f 105//105 59//59 58//58
f 108//108 61//61 60//60
f 111//111 63//63 62//62
f 114//114 65//65 64//64
f 117//117 67//67 66//66
f 119//119 58//58 68//68
f 121//121 60//60 69//69
f 123//123 62//62 70//70
f 125//125 64//64 71//71
f 127//127 66//66 72//72
f 74//74 11//11 46//46
f 77//77 8//8 48//48
f 80//80 20//20 50//50
f 83//83 17//17 52//52
f 86//86 14//14 44//44
f 89//89 68//68 42//42
f 92//92 69//69 30//30
f 95//95 70//70 33//33
f 98//98 71//71 36//36
f 101//101 72//72 39//39
f 104//104 29//29 61//61
f 107//107 32//32 63//63
f 110//110 35//35 65//65
f 113//113 38//38 67//67
f 116//116 41//41 59//59
f 118//118 53//53 12//12
f 120//120 54//54 15//15
f 122//122 55//55 18//18
f 124//124 56//56 21//21
f 126//126 57//57 9//9
f 129//129 75//75 74//74
f 131//131 78//78 77//77
f 133//133 81//81 80//80
f 135//135 84//84 83//83
f 137//137 87//87 86//86
f 138//138 90//90 89//89
f 139//139 93//93 92//92
f 140//140 96//96 95//95
f 141//141 99//99 98//98
f 142//142 102//102 101//101
f 144//144 105//105 104//104
f 146//146 108//108 107//107
f 148//148 111//111 110//110
f 150//150 114//114 113//113
f 152//152 117//117 116//116
f 153//153 119//119 118//118
f 154//154 121//121 120//120
f 155//155 123//123 122//122
f 156//156 125//125 124//124
f 157//157 127//127 126//126
