# Created by Open3D 
# object name: part_006
# number of vertices: 162
# number of triangles: 320
v -1.71494 2.69241 0.372145
vn 0.831583 0.554644 -0.0289886
v -1.71751 2.69575 0.392676
vn 0.669302 0.741819 0.0417135
v -1.71192 2.68791 0.392703
vn 0.876644 0.479227 0.0428581
v -1.70897 2.68131 0.37137
vn 0.918469 0.393099 -0.0434581
v -1.71435 2.68972 0.357877
vn 0.860395 0.487845 -0.147407
v -1.71982 2.69748 0.359487
vn 0.65912 0.749253 -0.0646624
v -1.56522 2.32643 0.342645
vn 0.979433 0.193218 -0.0581214
v -1.56506 2.32888 0.363764
vn 0.963119 0.267834 0.0258163
v -1.56359 2.31947 0.362346
vn 0.997852 -0.0613362 -0.0230257
v -1.64308 2.50632 0.380654
vn 0.135938 -0.0242235 0.990421
v -1.71462 2.67613 0.394513
vn 0.107457 -0.0343558 0.993616
v -1.64899 2.50386 0.381181
vn 0.0736547 -0.0501534 0.996022
v -1.81514 2.65979 0.399704
vn -0.0213367 0.166494 0.985812
v -1.8162 2.66223 0.398712
vn -0.353148 0.8891 0.291183
v -1.90237 2.62412 0.40356
vn -0.0933991 0.302367 0.948605
v -1.81775 2.66174 0.362337
vn -0.156176 0.267444 -0.950833
v -1.73329 2.69239 0.357525
vn -0.104399 0.143767 -0.984089
v -1.89929 2.62384 0.365509
vn -0.108328 0.142145 -0.9839
v -1.66128 2.54616 0.34449
vn -0.00242005 0.0793595 -0.996843
v -1.57667 2.3469 0.328589
vn 0.0913862 0.116081 -0.989027
v -1.57783 2.33708 0.327755
vn -0.0302129 0.066561 -0.997325
v -1.76133 2.24545 0.352078
vn -0.831582 -0.554646 0.0289884
v -1.75597 2.24003 0.3716
vn -0.662433 -0.746962 0.056835
v -1.76144 2.24778 0.37321
vn -0.865736 -0.487394 0.113789
v -1.76727 2.25652 0.353288
vn -0.918469 -0.393099 0.043458
v -1.76387 2.2496 0.338384
vn -0.876002 -0.47616 -0.0767584
v -1.75828 2.24175 0.33841
vn -0.667107 -0.743274 -0.0501192
v -1.82998 2.42914 0.389643
vn 0.00241502 -0.0793616 0.996843
v -1.75843 2.25933 0.375839
vn 0.0311404 -0.0694077 0.997102
v -1.82404 2.43157 0.389601
vn 0.0650678 -0.0536991 0.996435
v -1.91105 2.61143 0.381578
vn -0.979433 -0.193218 0.0581214
v -1.90831 2.60681 0.402149
vn -0.952212 -0.276 0.130827
v -1.90989 2.6163 0.40193
vn -0.99099 0.0562069 0.121573
v -1.84817 2.46899 0.35348
vn -0.13594 0.0242227 -0.990421
v -1.9018 2.59261 0.364033
vn -0.230357 -0.0145952 -0.972997
v -1.9007 2.60247 0.364067
vn -0.109155 0.0376599 -0.993311
v -1.66065 2.27771 0.331382
vn 0.0213361 -0.166493 -0.985812
v -1.74518 2.24711 0.335143
vn -0.0336472 -0.040417 -0.998616
v -1.57918 2.31566 0.327159
vn -0.0297173 -0.0387956 -0.998805
v -1.65805 2.27576 0.36875
vn 0.156176 -0.267444 0.950833
v -1.65716 2.27345 0.367375
vn 0.383587 -0.911887 0.146021
v -1.57087 2.31148 0.364184
vn 0.22142 -0.398207 0.890171
v -1.73061 2.69039 0.395943
vn 0.0336472 0.040417 0.998616
v -1.72819 2.69605 0.395182
vn -0.0692456 0.312341 0.947443
v -1.57399 2.34489 0.367054
vn 0.229087 0.014153 0.973303
v -1.70697 2.66996 0.393255
vn 0.228314 0.0160411 0.973455
v -1.56748 2.3307 0.328938
vn 0.946819 0.276576 -0.164435
v -1.56874 2.33851 0.343738
vn 0.92814 0.369458 -0.0453639
v -1.71736 2.67818 0.355248
vn -0.0310126 0.069929 -0.99707
v -1.70965 2.67196 0.35479
vn 0.0929479 0.118914 -0.988545
v -1.81863 2.66405 0.363712
vn -0.380599 0.89421 -0.235653
v -1.73074 2.69796 0.358525
vn -0.197266 0.408177 -0.891335
v -1.57509 2.33504 0.36702
vn 0.108692 -0.0373828 0.993372
v -1.89661 2.62184 0.403928
vn 0.0297173 0.0387956 0.998805
v -1.90492 2.62603 0.366903
vn -0.22142 0.398206 -0.890172
v -1.6674 2.5442 0.34457
vn -0.0650688 0.0536987 -0.996435
v -1.5659 2.3212 0.329157
vn 0.989778 -0.0590547 -0.129814
v -1.7425 2.24511 0.373562
vn 0.104399 -0.143767 0.984089
v -1.74505 2.23955 0.372562
vn 0.197266 -0.408178 0.891334
v -1.89912 2.59061 0.402498
vn -0.0924705 -0.116427 0.988885
v -1.76615 2.26554 0.376296
vn -0.0916996 -0.118316 0.988733
v -1.91073 2.60862 0.367323
vn -0.962427 -0.264891 -0.0597252
v -1.9075 2.59933 0.380919
vn -0.92814 -0.369458 0.0453638
v -1.76117 2.26137 0.336573
vn -0.107372 0.0346983 -0.993613
v -1.76882 2.26755 0.337832
vn -0.227305 -0.0155219 -0.9737
v -1.65959 2.27527 0.332374
vn 0.337929 -0.862267 -0.377226
v -1.7476 2.24146 0.335905
vn 0.069245 -0.31234 -0.947443
v -1.57651 2.31366 0.365578
vn 0.108329 -0.142146 0.9839
v -1.89797 2.60042 0.403332
vn 0.0299047 -0.0663808 0.997346
v -1.9122 2.61803 0.36874
vn -0.997769 0.0650453 0.0150361
v -1.84246 2.47191 0.35299
vn -0.0736546 0.0501534 -0.996022
v -1.57342 2.31339 0.327527
vn 0.0933984 -0.302366 -0.948605
v -1.72241 2.68641 0.395464
vn 0.0635261 -0.0185176 0.997808
v -1.71535 2.68593 0.394633
vn 0.181761 0.0379447 0.98261
v -1.72199 2.69354 0.395189
vn 0.116101 0.10164 0.988023
v -1.56805 2.33455 0.365454
vn 0.496231 0.123571 0.859352
v -1.57096 2.34607 0.365091
vn 0.926949 0.373585 0.0346458
v -1.63854 2.50827 0.379511
vn 0.500807 0.135965 0.854813
v -1.57064 2.33649 0.328273
vn 0.374374 0.217169 -0.901489
v -1.65588 2.54624 0.345047
vn 0.378826 0.227279 -0.897126
v -1.57339 2.34789 0.330226
vn 0.90887 0.382332 -0.166667
v -1.72513 2.68844 0.35645
vn -0.0751184 0.0852753 -0.993522
v -1.72462 2.69551 0.357402
vn -0.0208297 0.20416 -0.978716
v -1.71802 2.68793 0.356245
vn 0.0444962 0.140719 -0.989049
v -1.81798 2.66409 0.377613
vn -0.377569 0.922988 0.0743977
v -1.72898 2.69806 0.393614
vn -0.34158 0.931679 0.123683
v -1.73129 2.69979 0.360387
vn -0.349194 0.936943 0.0141704
v -1.57344 2.32225 0.366112
vn 0.0885621 -0.079721 0.992875
v -1.56819 2.31756 0.364884
vn 0.209351 -0.126309 0.969649
v -1.56878 2.32762 0.365751
vn 0.21159 -0.034967 0.976733
v -1.89963 2.61322 0.403989
vn 0.0500814 -0.0240717 0.998455
v -1.88945 2.60415 0.403127
vn 0.0678486 -0.0507619 0.996403
v -1.81139 2.65072 0.399898
vn 0.0571142 -0.0220484 0.998124
v -1.91027 2.62233 0.367698
vn -0.798315 0.521282 -0.301594
v -1.91014 2.62236 0.381914
vn -0.827715 0.554438 0.0865279
v -1.90567 2.62778 0.368774
vn -0.412348 0.910864 0.0172064
v -1.755 2.50821 0.348715
vn -0.0693619 0.0519269 -0.996239
v -1.89221 2.60621 0.363477
vn -0.071044 0.053497 -0.996038
v -1.72603 2.67484 0.355484
vn -0.069265 0.0542316 -0.996123
v -1.56799 2.31702 0.327954
vn 0.745191 -0.481521 -0.461332
v -1.57082 2.31953 0.327096
vn 0.0724143 -0.0237936 -0.997091
v -1.56747 2.3243 0.327718
vn 0.362049 0.0569406 -0.930418
v -1.75067 2.24906 0.374636
vn 0.0751181 -0.0852755 0.993522
v -1.75777 2.24957 0.374842
vn -0.0444959 -0.140719 0.989049
v -1.75117 2.242 0.373685
vn 0.020829 -0.20416 0.978716
v -1.90515 2.60102 0.402813
vn -0.373591 -0.215394 0.902239
v -1.9024 2.58961 0.400861
vn -0.915932 -0.381832 0.12358
v -1.83465 2.42729 0.388944
vn -0.378826 -0.227279 0.897126
v -1.90774 2.60295 0.365632
vn -0.495253 -0.120936 -0.86029
v -1.85199 2.46526 0.354479
vn -0.500808 -0.135966 -0.854812
v -1.90483 2.59143 0.365995
vn -0.926473 -0.370925 -0.0637437
v -1.75338 2.2511 0.335622
vn -0.0635259 0.0185176 -0.997808
v -1.7538 2.24397 0.335898
vn -0.1161 -0.101641 -0.988023
v -1.76044 2.25157 0.336454
vn -0.181762 -0.0379454 -0.98261
v -1.65832 2.2738 0.346154
vn 0.377569 -0.922988 -0.0743977
v -1.7445 2.23771 0.3707
vn 0.348675 -0.936991 -0.0217772
v -1.74681 2.23944 0.337473
vn 0.341043 -0.930841 -0.131243
v -1.58358 2.33129 0.367609
vn 0.0708752 -0.0530913 0.996071
v -1.66167 2.28474 0.370398
vn 0.0815367 -0.0817499 0.993312
v -1.90497 2.61798 0.40399
vn -0.072415 0.0237945 0.997091
v -1.90434 2.60789 0.403723
vn -0.0743162 -0.0678019 0.994927
v -1.9076 2.61995 0.366203
vn -0.20935 0.12631 -0.969649
v -1.91087 2.61511 0.366784
vn -0.487572 0.0370239 -0.872297
v -1.58634 2.33336 0.327959
vn -0.067959 0.051027 -0.996382
v -1.75252 2.26473 0.335953
vn -0.0697293 0.050296 -0.996297
v -1.56615 2.31551 0.34197
vn 0.827715 -0.554437 -0.0865279
v -1.57243 2.31145 0.329085
vn 0.404197 -0.904762 -0.134279
v -1.72184 2.69728 0.394188
vn 0.221064 0.92335 0.313935
v -1.71632 2.69249 0.394134
vn 0.371751 0.246085 0.895122
v -1.71002 2.68159 0.393428
vn 0.48916 0.140879 0.860741
v -1.70409 2.67151 0.391322
vn 0.924989 0.378376 0.0350326
v -1.6385 2.51009 0.35709
vn 0.92338 0.38131 -0.0444145
v -1.70652 2.67332 0.356457
vn 0.909377 0.387189 -0.152046
v -1.71261 2.68353 0.356247
vn 0.36387 0.233839 -0.90162
v -1.71887 2.69439 0.357549
vn 0.246243 0.340054 -0.907594
v -1.7243 2.69913 0.358754
vn 0.171201 0.921642 -0.348233
v -1.72325 2.69954 0.372925
vn 0.200423 0.979008 0.0370742
v -1.56493 2.32239 0.364302
vn 0.487571 -0.0370244 0.872298
v -1.72327 2.67277 0.395134
vn 0.0696226 -0.0500294 0.996318
v -1.90336 2.62605 0.402002
vn -0.405029 0.905478 0.126733
v -1.81412 2.65277 0.360688
vn -0.0815366 0.0817499 -0.993312
v -1.57145 2.32962 0.327363
vn 0.0743152 0.0678023 -0.994927
v -1.75149 2.23838 0.372333
vn -0.182208 -0.952443 0.244239
v -1.75692 2.24311 0.373537
vn -0.246242 -0.340054 0.907595
v -1.76318 2.25397 0.37484
vn -0.366494 -0.232691 0.900853
v -1.76927 2.26418 0.37463
vn -0.913972 -0.386623 0.123195
v -1.8378 2.42779 0.366677
vn -0.92338 -0.38131 0.0444145
v -1.7717 2.266 0.339764
vn -0.923894 -0.374507 -0.0785139
v -1.76577 2.25591 0.337659
vn -0.490901 -0.140146 -0.859869
v -1.75947 2.24502 0.336953
vn -0.371752 -0.246086 -0.895121
v -1.75396 2.24023 0.336899
vn -0.224313 -0.881878 -0.414697
v -1.75305 2.23834 0.35096
vn -0.200423 -0.979008 -0.0370742
v -1.74976 2.26267 0.375603
vn 0.0691015 -0.0538239 0.996157
v -1.90832 2.6132 0.403368
vn -0.362051 -0.0569402 0.930418
v -1.90702 2.60989 0.365335
vn -0.21159 0.034967 -0.976733
v -1.6644 2.28678 0.331188
vn -0.0571142 0.0220484 -0.998124
v -1.57012 2.30972 0.362312
vn 0.412124 -0.910789 -0.0248275
v -1.56553 2.31517 0.363388
vn 0.819236 -0.538896 0.196069
v -1.73651 2.46771 0.385468
vn 0.0693621 -0.0519268 0.996239
v -1.9078 2.62049 0.403132
vn -0.780369 0.50981 0.362101
v -1.90235 2.61526 0.364975
vn -0.0885619 0.079721 -0.992875
v -1.57616 2.32428 0.327098
vn -0.0500814 0.0240719 -0.998455
f 1//1 2//2 3//3
f 1//1 3//3 4//4
f 1//1 4//4 5//5
f 1//1 5//5 6//6
f 1//1 6//6 2//2
f 7//7 8//8 9//9
f 10//10 11//11 12//12
f 13//13 14//14 15//15
f 16//16 17//17 18//18
f 19//19 20//20 21//21
f 22//22 23//23 24//24
f 22//22 24//24 25//25
f 22//22 25//25 26//26
f 22//22 26//26 27//27
f 22//22 27//27 23//23
f 28//28 29//29 30//30
f 31//31 32//32 33//33
f 34//34 35//35 36//36
f 37//37 38//38 39//39
f 40//40 41//41 42//42
f 13//13 43//43 44//44
f 10//10 45//45 46//46
f 7//7 47//47 48//48
f 19//19 49//49 50//50
f 16//16 51//51 52//52
f 10//10 53//53 45//45
f 13//13 54//54 43//43
f 16//16 55//55 51//51
f 19//19 56//56 49//49
f 7//7 57//57 47//47
f 40//40 58//58 59//59
f 28//28 60//60 61//61
f 31//31 62//62 63//63
f 34//34 64//64 65//65
f 37//37 66//66 67//67
f 40//40 68//68 58//58
f 28//28 69//69 60//60
f 31//31 70//70 62//62
f 34//34 71//71 64//64
f 37//37 72//72 66//66
f 10//10 46//46 11//11
f 7//7 48//48 8//8
f 19//19 50//50 20//20
f 16//16 52//52 17//17
f 13//13 44//44 14//14
f 40//40 42//42 68//68
f 28//28 30//30 69//69
f 31//31 33//33 70//70
f 34//34 36//36 71//71
f 37//37 39//39 72//72
f 28//28 61//61 29//29
f 31//31 63//63 32//32
f 34//34 65//65 35//35
f 37//37 67//67 38//38
f 40//40 59//59 41//41
f 10//10 12//12 53//53
f 13//13 15//15 54//54
f 16//16 18//18 55//55
f 19//19 21//21 56//56
f 7//7 9//9 57//57
f 73//73 74//74 75//75
f 76//76 77//77 78//78
f 79//79 80//80 81//81
f 82//82 83//83 84//84
f 85//85 86//86 87//87
f 88//88 89//89 90//90
f 91//91 92//92 93//93
f 94//94 95//95 96//96
f 97//97 98//98 99//99
f 100//100 101//101 102//102
f 103//103 104//104 105//105
f 106//106 107//107 108//108
f 109//109 110//110 111//111
f 112//112 113//113 114//114
f 115//115 116//116 117//117
f 88//88 118//118 119//119
f 91//91 120//120 121//121
f 94//94 122//122 123//123
f 97//97 124//124 125//125
f 100//100 126//126 127//127
f 128//128 129//129 2//2
f 130//130 131//131 3//3
f 132//132 133//133 4//4
f 134//134 135//135 5//5
f 136//136 137//137 6//6
f 76//76 138//138 8//8
f 73//73 139//139 11//11
f 85//85 140//140 14//14
f 82//82 141//141 17//17
f 79//79 142//142 20//20
f 143//143 144//144 23//23
f 145//145 146//146 24//24
f 147//147 148//148 25//25
f 149//149 150//150 26//26
f 151//151 152//152 27//27
f 103//103 153//153 29//29
f 106//106 154//154 32//32
f 109//109 155//155 35//35
f 112//112 156//156 38//38
f 115//115 157//157 41//41
f 73//73 75//75 43//43
f 76//76 78//78 45//45
f 79//79 81//81 47//47
f 82//82 84//84 49//49
f 85//85 87//87 51//51
f 88//88 90//90 53//53
f 91//91 93//93 54//54
f 94//94 96//96 55//55
f 97//97 99//99 56//56
f 100//100 102//102 57//57
f 103//103 105//105 58//58
f 106//106 108//108 60//60
f 109//109 111//111 62//62
f 112//112 114//114 64//64
f 115//115 117//117 66//66
f 88//88 119//119 68//68
f 91//91 121//121 69//69
f 94//94 123//123 70//70
f 97//97 125//125 71//71
f 100//100 127//127 72//72
f 130//130 74//74 46//46
f 132//132 77//77 48//48
f 134//134 80//80 50//50
f 136//136 83//83 52//52
f 128//128 86//86 44//44
f 158//158 89//89 42//42
f 159//159 92//92 30//30
f 160//160 95//95 33//33
f 161//161 98//98 36//36
f 162//162 101//101 39//39
f 145//145 104//104 61//61
f 147//147 107//107 63//63
f 149//149 110//110 65//65
f 151//151 113//113 67//67
f 143//143 116//116 59//59
f 159//159 118//118 12//12
f 160//160 120//120 15//15
f 161//161 122//122 18//18
f 162//162 124//124 21//21
f 158//158 126//126 9//9
f 130//130 129//129 74//74
f 132//132 131//131 77//77
f 134//134 133//133 80//80
f 136//136 135//135 83//83
f 128//128 137//137 86//86
f 158//158 138//138 89//89
f 159//159 139//139 92//92
f 160//160 140//140 95//95
f 161//161 141//141 98//98
f 162//162 142//142 101//101
f 145//145 144//144 104//104
f 147//147 146//146 107//107
f 149//149 148//148 110//110
f 151//151 150//150 113//113
f 143//143 152//152 116//116
f 159//159 153//153 118//118
f 160//160 154//154 120//120
f 161//161 155//155 122//122
f 162//162 156//156 124//124
f 158//158 157//157 126//126
f 130//130 3//3 129//129
f 132//132 4//4 131//131
f 134//134 5//5 133//133
f 136//136 6//6 135//135
f 128//128 2//2 137//137
f 158//158 9//9 138//138
f 159//159 12//12 139//139
f 160//160 15//15 140//140
f 161//161 18//18 141//141
f 162//162 21//21 142//142
f 145//145 24//24 144//144
f 147//147 25//25 146//146
f 149//149 26//26 148//148
f 151//151 27//27 150//150
f 143//143 23//23 152//152
f 159//159 30//30 153//153
f 160//160 33//33 154//154
f 161//161 36//36 155//155
f 162//162 39//39 156//156
f 158//158 42//42 157//157
f 128//128 44//44 75//75
f 130//130 46//46 78//78
f 132//132 48//48 81//81
f 134//134 50//50 84//84
f 136//136 52//52 87//87
f 76//76 45//45 90//90
f 73//73 43//43 93//93
f 85//85 51//51 96//96
f 82//82 49//49 99//99
f 79//79 47//47 102//102
f 143//143 59//59 105//105
f 145//145 61//61 108//108
f 147//147 63//63 111//111
f 149//149 65//65 114//114
f 151//151 67//67 117//117
f 103//103 58//58 119//119
f 106//106 60//60 121//121
f 109//109 62//62 123//123
f 112//112 64//64 125//125
f 115//115 66//66 127//127
f 73//73 11//11 74//74
f 76//76 8//8 77//77
f 79//79 20//20 80//80
f 82//82 17//17 83//83
f 85//85 14//14 86//86
f 88//88 68//68 89//89
f 91//91 69//69 92//92
f 94//94 70//70 95//95
f 97//97 71//71 98//98
f 100//100 72//72 101//101
f 103//103 29//29 104//104
f 106//106 32//32 107//107
f 109//109 35//35 110//110
f 112//112 38//38 113//113
f 115//115 41//41 116//116
f 88//88 53//53 118//118
f 91//91 54//54 120//120
f 94//94 55//55 122//122
f 97//97 56//56 124//124
f 100//100 57//57 126//126
f 128//128 75//75 129//129
f 130//130 78//78 131//131
f 132//132 81//81 133//133
f 134//134 84//84 135//135
f 136//136 87//87 137//137
f 76//76 90//90 138//138
f 73//73 93//93 139//139
f 85//85 96//96 140//140
f 82//82 99//99 141//141
f 79//79 102//102 142//142
f 143//143 105//105 144//144
f 145//145 108//108 146//146
f 147//147 111//111 148//148
f 149//149 114//114 150//150
f 151//151 117//117 152//152
f 103//103 119//119 153//153
f 106//106 121//121 154//154
f 109//109 123//123 155//155
f 112//112 125//125 156//156
f 115//115 127//127 157//157
f 129//129 3//3 2//2
f 131//131 4//4 3//3
f 133//133 5//5 4//4
f 135//135 6//6 5//5
f 137//137 2//2 6//6
f 138//138 9//9 8//8
f 139//139 12//12 11//11
f 140//140 15//15 14//14
f 141//141 18//18 17//17
f 142//142 21//21 20//20
f 144//144 24//24 23//23
f 146//146 25//25 24//24
f 148//148 26//26 25//25
f 150//150 27//27 26//26
f 152//152 23//23 27//27
f 153//153 30//30 29//29
f 154//154 33//33 32//32
f 155//155 36//36 35//35
f 156//156 39//39 38//38
f 157//157 42//42 41//41
f 75//75 44//44 43//43
f 78//78 46//46 45//45
f 81//81 48//48 47//47
f 84//84 50//50 49//49
f 87//87 52//52 51//51
f 90//90 45//45 53//53
f 93//93 43//43 54//54
f 96//96 51//51 55//55
f 99//99 49//49 56//56
f 102//102 47//47 57//57
f 105//105 59//59 58//58
f 108//108 61//61 60//60
f 111//111 63//63 62//62
f 114//114 65//65 64//64
f 117//117 67//67 66//66
f 119//119 58//58 68//68
f 121//121 60//60 69//69
f 123//123 62//62 70//70
f 125//125 64//64 71//71
f 127//127 66//66 72//72
f 74//74 11//11 46//46
f 77//77 8//8 48//48
f 80//80 20//20 50//50
f 83//83 17//17 52//52
f 86//86 14//14 44//44
f 89//89 68//68 42//42
f 92//92 69//69 30//30
f 95//95 70//70 33//33
f 98//98 71//71 36//36
f 101//101 72//72 39//39
f 104//104 29//29 61//61
f 107//107 32//32 63//63
f 110//110 35//35 65//65
f 113//113 38//38 67//67
f 116//116 41//41 59//59
f 118//118 53//53 12//12
f 120//120 54//54 15//15
f 122//122 55//55 18//18
f 124//124 56//56 21//21
f 126//126 57//57 9//9
f 129//129 75//75 74//74
f 131//131 78//78 77//77
f 133//133 81//81 80//80
f 135//135 84//84 83//83
f 137//137 87//87 86//86
f 138//138 90//90 89//89
f 139//139 93//93 92//92
f 140//140 96//96 95//95
f 141//141 99//99 98//98
f 142//142 102//102 101//101
f 144//144 105//105 104//104
f 146//146 108//108 107//107
f 148//148 111//111 110//110
f 150//150 114//114 113//113
f 152//152 117//117 116//116
f 153//153 119//119 118//118
f 154//154 121//121 120//120
f 155//155 123//123 122//122
f 156//156 125//125 124//124
f 157//157 127//127 126//126
