# Created by Open3D 
# object name: part_010
# number of vertices: 162
# number of triangles: 320
v 0.227402 4.73408 0.210236
vn 0.133401 -0.459517 -0.878094
v 0.211842 4.72108 0.216007
vn 0.198573 -0.698399 -0.68761
v 0.206928 4.72833 0.211024
vn -0.00553131 -0.419038 -0.907952
v 0.221545 4.74473 0.205532
vn 0.0305425 -0.264287 -0.96396
v 0.238283 4.74346 0.207869
vn 0.221432 -0.307527 -0.925416
v 0.241723 4.7355 0.213001
vn 0.320352 -0.642024 -0.696549
v 0.0473552 5.08725 0.114747
vn -0.0885025 -0.0242422 -0.995781
v 0.0303047 5.07478 0.117351
vn -0.136122 -0.162882 -0.977211
v 0.0267299 5.08419 0.117832
vn -0.270852 0.222403 -0.936577
v 0.116483 4.90232 0.171038
vn -0.894363 -0.445748 0.0377281
v 0.200299 4.73838 0.218028
vn -0.895057 -0.441874 0.0601705
v 0.116066 4.90436 0.179356
vn -0.896847 -0.433722 0.0868884
v 0.208637 4.75124 0.352037
vn -0.772029 -0.619643 0.14147
v 0.210871 4.74946 0.35255
vn 0.228109 -0.94139 0.248498
v 0.206164 4.78265 0.474151
vn -0.665391 -0.724179 0.18116
v 0.24228 4.76748 0.348652
vn 0.9742 0.223073 -0.0342466
v 0.243744 4.7412 0.231313
vn 0.935287 0.347128 -0.0688501
v 0.238169 4.80126 0.46399
vn 0.935215 0.347919 -0.0657673
v 0.170381 4.88288 0.177348
vn 0.896874 0.418691 -0.142532
v 0.07158 5.07508 0.121428
vn 0.891937 0.397519 -0.215471
v 0.0678497 5.08458 0.125476
vn 0.896637 0.425972 -0.120786
v 0.0407688 5.15821 0.389633
vn -0.133401 0.459517 0.878094
v 0.0202687 5.1538 0.387491
vn -0.310039 0.644599 0.698833
v 0.0237091 5.14585 0.392622
vn -0.181741 0.32866 0.926797
v 0.0462345 5.14737 0.394377
vn -0.0305425 0.264287 0.96396
v 0.0550637 5.16098 0.389467
vn 0.0458891 0.436535 0.898516
v 0.0501499 5.16822 0.384484
vn -0.190657 0.704609 0.683503
v 0.110207 4.96995 0.433006
vn -0.896874 -0.418692 0.142529
v 0.0263409 5.13387 0.386021
vn -0.897922 -0.423409 0.120251
v 0.110187 4.9677 0.424732
vn -0.897009 -0.431984 0.0936224
v 0.220816 4.80504 0.485123
vn 0.088501 0.0242452 0.995781
v 0.200332 4.79939 0.486296
vn -0.0511518 0.0725064 0.996055
v 0.205381 4.7907 0.485666
vn 0.15939 -0.276204 0.94779
v 0.164104 4.95051 0.439316
vn 0.894363 0.445749 -0.0377248
v 0.225042 4.83093 0.475578
vn 0.886531 0.461073 0.0383911
v 0.229493 4.82178 0.471458
vn 0.896639 0.438802 -0.0590922
v 0.0533546 5.13806 0.248454
vn 0.77203 0.619642 -0.14147
v 0.0528366 5.1648 0.365698
vn 0.85026 0.514564 -0.110825
v 0.0584117 5.10473 0.133021
vn 0.850333 0.513769 -0.113906
v 0.0197117 5.12183 0.251839
vn -0.9742 -0.223073 0.0342468
v 0.0196089 5.12463 0.251113
vn -0.632306 0.746323 -0.207823
v 0.0228241 5.09073 0.129662
vn -0.996855 -0.0780232 -0.0138885
v 0.209155 4.7245 0.234794
vn -0.850259 -0.514565 0.110825
v 0.212014 4.71962 0.23
vn -0.664951 -0.729075 0.162142
v 0.0369495 5.05837 0.124913
vn -0.886639 -0.460952 -0.0373421
v 0.196865 4.74469 0.209725
vn -0.885755 -0.462686 -0.0368735
v 0.0616593 5.08991 0.114196
vn 0.0912451 -0.0521592 -0.994462
v 0.0529023 5.07553 0.116091
vn 0.0158383 -0.235442 -0.971759
v 0.235651 4.75544 0.214471
vn 0.898108 0.422978 -0.120386
v 0.231496 4.7614 0.206241
vn 0.892645 0.395184 -0.216829
v 0.242383 4.76467 0.349379
vn 0.701943 -0.685372 0.193756
v 0.245017 4.73555 0.226679
vn 0.99731 0.0731132 -0.00512558
v 0.0324984 5.06752 0.129034
vn -0.896465 -0.439112 0.0594278
v 0.20358 4.78457 0.467471
vn -0.850333 -0.51377 0.113906
v 0.239167 4.79858 0.47083
vn 0.996855 0.0780229 0.0138886
v 0.170631 4.88467 0.185744
vn 0.897009 0.431984 -0.0936222
v 0.056611 5.09861 0.114825
vn -0.151592 0.283715 -0.94685
v 0.0182474 5.14811 0.369178
vn -0.935287 -0.347129 0.0688502
v 0.0169742 5.15376 0.373812
vn -0.997311 -0.0731116 0.00512524
v 0.190412 4.81422 0.479063
vn -0.891821 -0.397324 0.216309
v 0.0304961 5.1279 0.394251
vn -0.892704 -0.395586 0.215849
v 0.231687 4.81452 0.483141
vn 0.176076 0.18117 0.967561
v 0.214877 4.81657 0.483818
vn -0.0158384 0.235443 0.971759
v 0.0616922 5.15093 0.382463
vn 0.895187 0.441598 -0.0602572
v 0.0651266 5.14462 0.390766
vn 0.885911 0.462453 0.0360506
v 0.0511208 5.13984 0.247942
vn -0.136081 0.958453 -0.250698
v 0.0499773 5.16968 0.370491
vn 0.664952 0.729074 -0.162142
v 0.0238224 5.08804 0.136501
vn -0.935215 -0.347919 0.0657674
v 0.194142 4.80472 0.475015
vn -0.896514 -0.42617 0.121001
v 0.235262 4.80512 0.482659
vn 0.281287 -0.221137 0.933797
v 0.164752 4.94802 0.43112
vn 0.896847 0.433722 -0.0868885
v 0.0558272 5.10665 0.126341
vn 0.665391 0.724179 -0.18116
v 0.205983 4.72841 0.225314
vn -0.882089 -0.461915 0.0924882
v 0.205025 4.72923 0.216274
vn -0.871938 -0.489612 -0.00208855
v 0.20954 4.72193 0.222767
vn -0.832815 -0.551845 0.0434273
v 0.0321703 5.06872 0.119902
vn -0.829827 -0.486079 -0.274071
v 0.038582 5.05822 0.120386
vn -0.0734253 -0.291424 -0.953772
v 0.117467 4.90105 0.164496
vn -0.82259 -0.495018 -0.279826
v 0.0656452 5.08487 0.116533
vn 0.838659 0.317274 -0.442706
v 0.168833 4.88252 0.17051
vn 0.840008 0.307344 -0.44713
v 0.0699723 5.07337 0.117227
vn 0.167824 -0.172866 -0.970542
v 0.241108 4.74536 0.221779
vn 0.910818 0.403334 -0.0879283
v 0.24356 4.73835 0.219344
vn 0.942699 0.305007 -0.135239
v 0.239587 4.74591 0.212796
vn 0.910834 0.370732 -0.18149
v 0.230293 4.75793 0.35083
vn 0.441558 -0.866132 0.234183
v 0.214489 4.71851 0.230197
vn 0.394229 -0.894002 0.212943
v 0.244404 4.73295 0.227187
vn 0.495409 -0.844665 0.202758
v 0.0268353 5.07981 0.130301
vn -0.910566 -0.406056 0.0773856
v 0.0245766 5.08474 0.124671
vn -0.93915 -0.343262 -0.0129716
v 0.0287523 5.075 0.122786
vn -0.906002 -0.422793 -0.020159
v 0.200031 4.79254 0.473725
vn -0.882342 -0.459193 0.10303
v 0.194352 4.80134 0.463061
vn -0.896236 -0.434073 0.0913297
v 0.20337 4.75955 0.349767
vn -0.8826 -0.459886 0.097578
v 0.237813 4.80163 0.478819
vn 0.717852 -0.408923 0.563445
v 0.225562 4.79474 0.481004
vn 0.381863 -0.655397 0.65164
v 0.238547 4.79605 0.471616
vn 0.49418 -0.831524 0.253682
v 0.167834 4.91624 0.308464
vn 0.896934 0.432856 -0.090256
v 0.23005 4.81857 0.459468
vn 0.897816 0.431267 -0.0890803
v 0.235631 4.75844 0.226526
vn 0.89785 0.430906 -0.0904752
v 0.05608 5.10307 0.118462
vn 0.0284181 0.769063 -0.638541
v 0.0585972 5.10116 0.121247
vn 0.836362 0.513589 -0.191637
v 0.0596546 5.09643 0.115747
vn 0.780708 0.463261 -0.419385
v 0.0208833 5.14395 0.378712
vn -0.910818 -0.403335 0.0879284
v 0.022405 5.14339 0.387695
vn -0.910834 -0.370732 0.18149
v 0.0184314 5.15096 0.381148
vn -0.942699 -0.305007 0.13524
v 0.196346 4.80443 0.483958
vn -0.838411 -0.319007 0.44193
v 0.192019 4.81594 0.483264
vn -0.116578 0.199729 0.972891
v 0.110881 4.97202 0.439381
vn -0.840009 -0.307345 0.44713
v 0.229821 4.82059 0.48059
vn 0.831344 0.484173 0.272844
v 0.162247 4.95349 0.445395
vn 0.822591 0.495017 0.279824
v 0.22341 4.83109 0.480106
vn 0.108124 0.306754 0.945627
v 0.0560082 5.1609 0.375178
vn 0.882089 0.461915 -0.0924883
v 0.0524519 5.16737 0.377724
vn 0.832816 0.551844 -0.0434273
v 0.0569664 5.16007 0.384218
vn 0.871938 0.489612 0.00208823
v 0.038288 5.13456 0.248998
vn -0.441558 0.866132 -0.234183
v 0.0175878 5.15636 0.373304
vn -0.488588 0.848464 -0.203448
v 0.047503 5.17079 0.370294
vn -0.387008 0.896979 -0.213666
v 0.0319416 5.07073 0.141023
vn -0.897628 -0.431638 0.0891827
v 0.0233204 5.11272 0.254277
vn -0.910378 -0.405398 0.0828458
v 0.203394 4.78814 0.479244
vn -0.836361 -0.51359 0.191638
v 0.198678 4.79762 0.481183
vn -0.876766 -0.437562 0.199551
v 0.237415 4.80456 0.475821
vn 0.93915 0.343261 0.0129717
v 0.235275 4.80877 0.48143
vn 0.903051 0.34932 0.24995
v 0.0676393 5.08796 0.137431
vn 0.89636 0.433831 -0.0912627
v 0.062058 5.1481 0.370373
vn 0.896327 0.43419 -0.0898739
v 0.0429141 5.09769 0.118835
vn -0.381863 0.655397 -0.65164
v 0.0533595 5.10769 0.125866
vn -0.38579 0.883832 -0.264589
v 0.212157 4.71894 0.221369
vn 0.107474 -0.972974 -0.204378
v 0.208785 4.7234 0.215623
vn -0.766414 -0.61734 -0.177484
v 0.2029 4.73382 0.210449
vn -0.82137 -0.502687 -0.26955
v 0.19868 4.74418 0.205295
vn -0.0704523 -0.297256 -0.952195
v 0.137638 4.91018 0.16023
vn 0.0231935 -0.2499 -0.967994
v 0.23007 4.75933 0.202136
vn 0.154026 -0.187802 -0.970055
v 0.236375 4.74998 0.207081
vn 0.848317 0.301341 -0.435374
v 0.241723 4.73929 0.212308
vn 0.917353 0.195239 -0.346908
v 0.244059 4.73434 0.218158
vn 0.737643 -0.622117 -0.262399
v 0.231839 4.72711 0.219032
vn 0.403113 -0.884375 -0.235329
v 0.0267169 5.08053 0.119062
vn -0.903051 -0.34932 -0.249949
v 0.199934 4.74121 0.230119
vn -0.896203 -0.434432 0.0899379
v 0.208632 4.78161 0.474626
vn 0.393005 -0.880793 0.264105
v 0.238671 4.77658 0.346215
vn 0.910379 0.405398 -0.0828457
v 0.0633137 5.09168 0.119308
vn 0.876766 0.437562 -0.199552
v 0.0179327 5.15497 0.382333
vn -0.656976 0.707783 0.259665
v 0.0202687 5.15001 0.388183
vn -0.917353 -0.19524 0.346907
v 0.025617 5.13933 0.393411
vn -0.84688 -0.302399 0.437434
v 0.0319217 5.12998 0.398355
vn -0.119551 0.205561 0.971315
v 0.130944 4.9823 0.439598
vn -0.0231935 0.2499 0.967994
v 0.063312 5.14513 0.395197
vn 0.122059 0.32022 0.939447
v 0.0590918 5.15548 0.390042
vn 0.821563 0.501549 0.271076
v 0.0532063 5.16591 0.384868
vn 0.766414 0.61734 0.177484
v 0.0498345 5.17036 0.379123
vn 0.00862278 0.982263 0.187311
v 0.0366372 5.16532 0.380806
vn -0.403113 0.884375 0.235329
v 0.0263602 5.13087 0.373965
vn -0.897661 -0.431278 0.0905738
v 0.202337 4.79288 0.484744
vn -0.780708 -0.463261 0.419386
v 0.233239 4.8143 0.477705
vn 0.906002 0.422793 0.0201595
v 0.058622 5.12976 0.250724
vn 0.8826 0.459886 -0.0975781
v 0.0234444 5.09325 0.128876
vn -0.487354 0.83526 -0.254611
v 0.0241782 5.08767 0.121673
vn -0.636402 0.486146 -0.598877
v 0.113057 4.93599 0.302051
vn -0.896934 -0.432856 0.090256
v 0.205912 4.78624 0.482029
vn 0.0868996 -0.751332 0.654178
v 0.235156 4.80949 0.47019
vn 0.910566 0.406055 -0.0773855
v 0.0619602 5.09677 0.126767
vn 0.882341 0.459193 -0.10303
f 1//1 2//2 3//3
f 1//1 3//3 4//4
f 1//1 4//4 5//5
f 1//1 5//5 6//6
f 1//1 6//6 2//2
f 7//7 8//8 9//9
f 10//10 11//11 12//12
f 13//13 14//14 15//15
f 16//16 17//17 18//18
f 19//19 20//20 21//21
f 22//22 23//23 24//24
f 22//22 24//24 25//25
f 22//22 25//25 26//26
f 22//22 26//26 27//27
f 22//22 27//27 23//23
f 28//28 29//29 30//30
f 31//31 32//32 33//33
f 34//34 35//35 36//36
f 37//37 38//38 39//39
f 40//40 41//41 42//42
f 13//13 43//43 44//44
f 10//10 45//45 46//46
f 7//7 47//47 48//48
f 19//19 49//49 50//50
f 16//16 51//51 52//52
f 10//10 53//53 45//45
f 13//13 54//54 43//43
f 16//16 55//55 51//51
f 19//19 56//56 49//49
f 7//7 57//57 47//47
f 40//40 58//58 59//59
f 28//28 60//60 61//61
f 31//31 62//62 63//63
f 34//34 64//64 65//65
f 37//37 66//66 67//67
f 40//40 68//68 58//58
f 28//28 69//69 60//60
f 31//31 70//70 62//62
f 34//34 71//71 64//64
f 37//37 72//72 66//66
f 10//10 46//46 11//11
f 7//7 48//48 8//8
f 19//19 50//50 20//20
f 16//16 52//52 17//17
f 13//13 44//44 14//14
f 40//40 42//42 68//68
f 28//28 30//30 69//69
f 31//31 33//33 70//70
f 34//34 36//36 71//71
f 37//37 39//39 72//72
f 28//28 61//61 29//29
f 31//31 63//63 32//32
f 34//34 65//65 35//35
f 37//37 67//67 38//38
f 40//40 59//59 41//41
f 10//10 12//12 53//53
f 13//13 15//15 54//54
f 16//16 18//18 55//55
f 19//19 21//21 56//56
f 7//7 9//9 57//57
f 73//73 74//74 75//75
f 76//76 77//77 78//78
f 79//79 80//80 81//81
f 82//82 83//83 84//84
f 85//85 86//86 87//87
f 88//88 89//89 90//90
f 91//91 92//92 93//93
f 94//94 95//95 96//96
f 97//97 98//98 99//99
f 100//100 101//101 102//102
f 103//103 104//104 105//105
f 106//106 107//107 108//108
f 109//109 110//110 111//111
f 112//112 113//113 114//114
f 115//115 116//116 117//117
f 88//88 118//118 119//119
f 91//91 120//120 121//121
f 94//94 122//122 123//123
f 97//97 124//124 125//125
f 100//100 126//126 127//127
f 128//128 129//129 2//2
f 130//130 131//131 3//3
f 132//132 133//133 4//4
f 134//134 135//135 5//5
f 136//136 137//137 6//6
f 76//76 138//138 8//8
f 73//73 139//139 11//11
f 85//85 140//140 14//14
f 82//82 141//141 17//17
f 79//79 142//142 20//20
f 143//143 144//144 23//23
f 145//145 146//146 24//24
f 147//147 148//148 25//25
f 149//149 150//150 26//26
f 151//151 152//152 27//27
f 103//103 153//153 29//29
f 106//106 154//154 32//32
f 109//109 155//155 35//35
f 112//112 156//156 38//38
f 115//115 157//157 41//41
f 73//73 75//75 43//43
f 76//76 78//78 45//45
f 79//79 81//81 47//47
f 82//82 84//84 49//49
f 85//85 87//87 51//51
f 88//88 90//90 53//53
f 91//91 93//93 54//54
f 94//94 96//96 55//55
f 97//97 99//99 56//56
f 100//100 102//102 57//57
f 103//103 105//105 58//58
f 106//106 108//108 60//60
f 109//109 111//111 62//62
f 112//112 114//114 64//64
f 115//115 117//117 66//66
f 88//88 119//119 68//68
f 91//91 121//121 69//69
f 94//94 123//123 70//70
f 97//97 125//125 71//71
f 100//100 127//127 72//72
f 130//130 74//74 46//46
f 132//132 77//77 48//48
f 134//134 80//80 50//50
f 136//136 83//83 52//52
f 128//128 86//86 44//44
f 158//158 89//89 42//42
f 159//159 92//92 30//30
f 160//160 95//95 33//33
f 161//161 98//98 36//36
f 162//162 101//101 39//39
f 145//145 104//104 61//61
f 147//147 107//107 63//63
f 149//149 110//110 65//65
f 151//151 113//113 67//67
f 143//143 116//116 59//59
f 159//159 118//118 12//12
f 160//160 120//120 15//15
f 161//161 122//122 18//18
f 162//162 124//124 21//21
f 158//158 126//126 9//9
f 130//130 129//129 74//74
f 132//132 131//131 77//77
f 134//134 133//133 80//80
f 136//136 135//135 83//83
f 128//128 137//137 86//86
f 158//158 138//138 89//89
f 159//159 139//139 92//92
f 160//160 140//140 95//95
f 161//161 141//141 98//98
f 162//162 142//142 101//101
f 145//145 144//144 104//104
f 147//147 146//146 107//107
f 149//149 148//148 110//110
f 151//151 150//150 113//113
f 143//143 152//152 116//116
f 159//159 153//153 118//118
f 160//160 154//154 120//120
f 161//161 155//155 122//122
f 162//162 156//156 124//124
f 158//158 157//157 126//126
f 130//130 3//3 129//129
f 132//132 4//4 131//131
f 134//134 5//5 133//133
f 136//136 6//6 135//135
f 128//128 2//2 137//137
f 158//158 9//9 138//138
f 159//159 12//12 139//139
f 160//160 15//15 140//140
f 161//161 18//18 141//141
f 162//162 21//21 142//142
f 145//145 24//24 144//144
f 147//147 25//25 146//146
f 149//149 26//26 148//148
f 151//151 27//27 150//150
f 143//143 23//23 152//152
f 159//159 30//30 153//153
f 160//160 33//33 154//154
f 161//161 36//36 155//155
f 162//162 39//39 156//156
f 158//158 42//42 157//157
f 128//128 44//44 75//75
f 130//130 46//46 78//78
f 132//132 48//48 81//81
f 134//134 50//50 84//84
f 136//136 52//52 87//87
f 76//76 45//45 90//90
f 73//73 43//43 93//93
f 85//85 51//51 96//96
f 82//82 49//49 99//99
f 79//79 47//47 102//102
f 143//143 59//59 105//105
f 145//145 61//61 108//108
f 147//147 63//63 111//111
f 149//149 65//65 114//114
f 151//151 67//67 117//117
f 103//103 58//58 119//119
f 106//106 60//60 121//121
f 109//109 62//62 123//123
f 112//112 64//64 125//125
f 115//115 66//66 127//127
f 73//73 11//11 74//74
f 76//76 8//8 77//77
f 79//79 20//20 80//80
f 82//82 17//17 83//83
f 85//85 14//14 86//86
f 88//88 68//68 89//89
f 91//91 69//69 92//92
f 94//94 70//70 95//95
f 97//97 71//71 98//98
f 100//100 72//72 101//101
f 103//103 29//29 104//104
f 106//106 32//32 107//107
f 109//109 35//35 110//110
f 112//112 38//38 113//113
f 115//115 41//41 116//116
f 88//88 53//53 118//118
f 91//91 54//54 120//120
f 94//94 55//55 122//122
f 97//97 56//56 124//124
f 100//100 57//57 126//126
f 128//128 75//75 129//129
f 130//130 78//78 131//131
f 132//132 81//81 133//133
f 134//134 84//84 135//135
f 136//136 87//87 137//137
f 76//76 90//90 138//138
f 73//73 93//93 139//139
f 85//85 96//96 140//140
f 82//82 99//99 141//141
f 79//79 102//102 142//142
f 143//143 105//105 144//144
f 145//145 108//108 146//146
f 147//147 111//111 148//148
f 149//149 114//114 150//150
f 151//151 117//117 152//152
f 103//103 119//119 153//153
f 106//106 121//121 154//154
f 109//109 123//123 155//155
f 112//112 125//125 156//156
f 115//115 127//127 157//157
f 129//129 3//3 2//2
f 131//131 4//4 3//3
f 133//133 5//5 4//4
f 135//135 6//6 5//5
f 137//137 2//2 6//6
f 138//138 9//9 8//8
f 139//139 12//12 11//11
f 140//140 15//15 14//14
f 141//141 18//18 17//17
f 142//142 21//21 20//20
f 144//144 24//24 23//23
f 146//146 25//25 24//24
f 148//148 26//26 25//25
f 150//150 27//27 26//26
f 152//152 23//23 27//27
f 153//153 30//30 29//29
f 154//154 33//33 32//32
f 155//155 36//36 35//35
f 156//156 39//39 38//38
f 157//157 42//42 41//41
f 75//75 44//44 43//43
f 78//78 46//46 45//45
f 81//81 48//48 47//47
f 84//84 50//50 49//49
f 87//87 52//52 51//51
f 90//90 45//45 53//53
f 93//93 43//43 54//54
f 96//96 51//51 55//55
f 99//99 49//49 56//56
f 102//102 47//47 57//57
f 105//105 59//59 58//58
f 108//108 61//61 60//60
f 111//111 63//63 62//62
f 114//114 65//65 64//64
f 117//117 67//67 66//66
f 119//119 58//58 68//68
f 121//121 60//60 69//69
f 123//123 62//62 70//70
f 125//125 64//64 71//71
f 127//127 66//66 72//72
f 74//74 11//11 46//46
f 77//77 8//8 48//48
f 80//80 20//20 50//50
f 83//83 17//17 52//52
f 86//86 14//14 44//44
f 89//89 68//68 42//42
f 92//92 69//69 30//30
f 95//95 70//70 33//33
f 98//98 71//71 36//36
f 101//101 72//72 39//39
f 104//104 29//29 61//61
f 107//107 32//32 63//63
f 110//110 35//35 65//65
f 113//113 38//38 67//67
f 116//116 41//41 59//59
f 118//118 53//53 12//12
f 120//120 54//54 15//15
f 122//122 55//55 18//18
f 124//124 56//56 21//21
f 126//126 57//57 9//9
f 129//129 75//75 74//74
f 131//131 78//78 77//77
f 133//133 81//81 80//80
f 135//135 84//84 83//83
f 137//137 87//87 86//86
f 138//138 90//90 89//89
f 139//139 93//93 92//92
f 140//140 96//96 95//95
f 141//141 99//99 98//98
f 142//142 102//102 101//101
f 144//144 105//105 104//104
f 146//146 108//108 107//107
f 148//148 111//111 110//110
f 150//150 114//114 113//113
f 152//152 117//117 116//116
f 153//153 119//119 118//118
f 154//154 121//121 120//120
f 155//155 123//123 122//122
f 156//156 125//125 124//124
f 157//157 127//127 126//126
