# Created by Open3D 
# object name: part_030
# number of vertices: 162
# number of triangles: 320
v -0.880724 3.51506 0.419178
vn -0.876369 -0.384565 -0.289976
v -0.870605 3.49832 0.412642
vn -0.803282 -0.359985 -0.474499
v -0.872041 3.49579 0.419715
vn -0.86668 -0.439433 -0.236145
v -0.88218 3.51286 0.428923
vn -0.897606 -0.411993 -0.156737
v -0.887106 3.52708 0.423754
vn -0.914966 -0.336407 -0.222864
v -0.884962 3.52813 0.416491
vn -0.83087 -0.29939 -0.469064
v -0.907455 3.46189 0.731323
vn -0.901063 -0.433685 -0.00161333
v -0.898264 3.44363 0.725924
vn -0.881072 -0.468054 -0.0681022
v -0.898088 3.44365 0.733568
vn -0.860199 -0.473195 0.190119
v -0.881454 3.46901 0.573016
vn 0.319254 -0.93836 -0.132502
v -0.867956 3.49424 0.427725
vn 0.366804 -0.921501 -0.127637
v -0.877919 3.47037 0.573551
vn 0.423921 -0.898151 -0.116689
v -0.813673 3.52266 0.418239
vn 0.436873 -0.808432 -0.394437
v -0.814012 3.52407 0.416351
vn 0.159227 0.0059289 -0.987224
v -0.763335 3.54626 0.426331
vn 0.439971 -0.707712 -0.552783
v -0.829837 3.55623 0.422573
vn -0.388268 0.905128 -0.173178
v -0.878431 3.53403 0.417857
vn -0.420519 0.907259 -0.00674624
v -0.782232 3.57832 0.433639
vn -0.414116 0.910206 -0.00570104
v -0.895655 3.50973 0.545324
vn -0.536341 0.838422 0.0968876
v -0.911649 3.47958 0.715892
vn -0.667062 0.74167 0.0703796
v -0.909854 3.47995 0.723193
vn -0.492961 0.863497 0.106593
v -0.793804 3.51421 0.749967
vn 0.87637 0.384565 0.289976
v -0.786598 3.49497 0.751858
vn 0.829845 0.304823 0.467375
v -0.784453 3.49603 0.744595
vn 0.90724 0.355202 0.22527
v -0.792161 3.51602 0.740172
vn 0.897606 0.411993 0.156737
v -0.799518 3.52731 0.748634
vn 0.856801 0.457199 0.238458
v -0.800955 3.52479 0.755707
vn 0.799905 0.363697 0.477364
v -0.773144 3.51887 0.590785
vn 0.536334 -0.838426 -0.0968889
v -0.786618 3.49359 0.73607
vn 0.492946 -0.863956 -0.102874
v -0.776469 3.51707 0.590194
vn 0.437949 -0.891693 -0.114388
v -0.767073 3.56738 0.437822
vn 0.901063 0.433685 0.00161512
v -0.758231 3.54819 0.438386
vn 0.921631 0.383824 0.0572321
v -0.759115 3.54964 0.430932
vn 0.88676 0.418033 -0.197244
v -0.787344 3.55959 0.563093
vn -0.319266 0.938357 0.1325
v -0.77655 3.57807 0.456918
vn -0.155839 0.976089 0.151541
v -0.778691 3.57842 0.44971
vn -0.365927 0.922458 0.123165
v -0.857886 3.50044 0.75011
vn -0.436873 0.808432 0.394435
v -0.809747 3.52359 0.754947
vn -0.434821 0.869022 0.236076
v -0.905947 3.4793 0.739166
vn -0.441223 0.866075 0.235023
v -0.841722 3.46687 0.745776
vn 0.388268 -0.905128 0.173178
v -0.842407 3.46759 0.747939
vn -0.00634603 -0.323417 0.946235
v -0.892367 3.44392 0.737767
vn 0.324401 -0.87965 0.347821
v -0.861812 3.49952 0.413402
vn 0.434821 -0.869022 -0.236076
v -0.864279 3.49979 0.409771
vn 0.402054 -0.725174 -0.558995
v -0.89501 3.44503 0.711431
vn 0.157979 -0.975764 -0.151419
v -0.871268 3.49226 0.434188
vn 0.158173 -0.97535 -0.153862
v -0.913329 3.47492 0.729963
vn -0.929378 -0.365075 -0.0545666
v -0.907217 3.46305 0.721297
vn -0.899208 -0.415177 -0.138035
v -0.884941 3.52951 0.432279
vn -0.49337 0.863788 0.102256
v -0.887907 3.52681 0.438649
vn -0.669843 0.739454 0.0672151
v -0.829152 3.55551 0.42041
vn -0.0266392 0.386411 -0.921942
v -0.880136 3.53272 0.414022
vn -0.362316 0.86219 -0.354057
v -0.892869 3.44468 0.718639
vn 0.366464 -0.922183 -0.123624
v -0.765613 3.5438 0.429183
vn 0.441223 -0.866075 -0.235023
v -0.779192 3.57919 0.430582
vn -0.324401 0.87965 -0.347821
v -0.892295 3.51159 0.545516
vn -0.437949 0.891693 0.114388
v -0.912445 3.47346 0.737417
vn -0.888203 -0.413431 0.200424
v -0.793128 3.48907 0.750492
vn 0.420519 -0.907259 0.00674598
v -0.791424 3.49039 0.754327
vn 0.362316 -0.86219 0.354057
v -0.759911 3.54352 0.452457
vn 0.668425 -0.740463 -0.0701552
v -0.783653 3.49629 0.7297
vn 0.668223 -0.740873 -0.0677117
v -0.773296 3.57947 0.442425
vn 0.871214 0.485864 0.070161
v -0.767123 3.56582 0.447798
vn 0.899208 0.415177 0.138036
v -0.803603 3.52887 0.740624
vn -0.36711 0.921434 0.127238
v -0.800292 3.53085 0.734161
vn -0.160002 0.975099 0.153564
v -0.857548 3.49903 0.751998
vn -0.189506 0.0624576 0.979891
v -0.807281 3.52332 0.758578
vn -0.402053 0.725174 0.558995
v -0.889328 3.44479 0.73471
vn 0.414116 -0.910206 0.00570087
v -0.761706 3.54315 0.445156
vn 0.493293 -0.863271 -0.106886
v -0.773472 3.57946 0.434781
vn 0.857237 0.477736 -0.192125
v -0.790845 3.55829 0.562159
vn -0.423922 0.89815 0.116689
v -0.908224 3.47685 0.742018
vn -0.439972 0.707714 0.55278
v -0.865395 3.49684 0.418194
vn 0.423049 -0.89225 -0.15786
v -0.869155 3.49513 0.420164
vn 0.21755 -0.95665 -0.19363
v -0.866896 3.49748 0.412951
vn 0.280533 -0.916005 -0.286769
v -0.896953 3.44361 0.720738
vn -0.274697 -0.945561 -0.174517
v -0.897586 3.4458 0.711505
vn -0.877172 -0.45588 -0.150805
v -0.884523 3.46861 0.572685
vn -0.28572 -0.940356 -0.184649
v -0.913036 3.47701 0.72505
vn -0.920006 0.39189 -0.00346636
v -0.898056 3.50741 0.546294
vn -0.92332 0.383788 -0.0136946
v -0.912668 3.47712 0.715549
vn -0.92787 -0.347009 -0.136537
v -0.882272 3.53189 0.422719
vn -0.438048 0.895982 0.0730042
v -0.883242 3.53143 0.417334
vn -0.558787 0.827012 -0.0617123
v -0.88576 3.52961 0.424616
vn -0.62044 0.783639 0.0310539
v -0.82311 3.54319 0.41816
vn 0.0841197 0.167327 -0.982306
v -0.86494 3.50158 0.408353
vn 0.0600905 0.111209 -0.991979
v -0.879314 3.53142 0.412207
vn 0.0222995 0.190075 -0.981516
v -0.891993 3.44394 0.728781
vn 0.41609 -0.906091 -0.0766064
v -0.894357 3.44286 0.733619
vn 0.254974 -0.966875 0.0118886
v -0.895325 3.44307 0.725765
vn 0.209431 -0.972852 -0.0984762
v -0.76269 3.54412 0.435043
vn 0.445006 -0.882142 -0.154258
v -0.766579 3.54072 0.444153
vn 0.432571 -0.893932 -0.117337
v -0.813934 3.52053 0.425826
vn 0.433991 -0.88747 -0.155078
v -0.775605 3.58003 0.432121
vn 0.523371 0.641325 -0.561058
v -0.769157 3.56761 0.429709
vn 0.664142 0.401247 -0.630806
v -0.778255 3.57795 0.428785
vn 0.104989 0.228145 -0.96795
v -0.841593 3.53503 0.55372
vn -0.430948 0.894949 0.115542
v -0.78373 3.57634 0.448751
vn -0.429273 0.896052 0.113206
v -0.88004 3.532 0.432951
vn -0.432179 0.894714 0.112729
v -0.911283 3.47491 0.740337
vn -0.76779 -0.13374 0.626588
v -0.910703 3.47681 0.738002
vn -0.584358 0.776143 0.236912
v -0.912842 3.47549 0.734994
vn -0.881687 0.440029 0.170303
v -0.789288 3.49122 0.74563
vn 0.438048 -0.895982 -0.0730042
v -0.785799 3.49349 0.743733
vn 0.620441 -0.783638 -0.0310538
v -0.788317 3.49168 0.751015
vn 0.558787 -0.827012 0.0617121
v -0.758523 3.54609 0.443299
vn 0.919406 -0.393307 0.00166329
v -0.758891 3.54598 0.4528
vn 0.918023 0.371045 0.139852
v -0.770872 3.52093 0.59133
vn 0.92332 -0.383787 0.0136947
v -0.774607 3.57949 0.447611
vn 0.272338 0.946642 0.172342
v -0.784406 3.55973 0.564939
vn 0.28572 0.940356 0.184649
v -0.773973 3.57731 0.456844
vn 0.868766 0.471127 0.152594
v -0.806164 3.52626 0.750155
vn -0.423049 0.89225 0.15786
v -0.804663 3.52562 0.755398
vn -0.280533 0.916005 0.286769
v -0.802405 3.52798 0.748185
vn -0.217553 0.95665 0.19363
v -0.851616 3.48649 0.751037
vn -0.0841196 -0.167328 0.982306
v -0.792246 3.49168 0.756143
vn -0.0247659 -0.184568 0.982508
v -0.806619 3.52153 0.759996
vn -0.0628873 -0.105785 0.992398
v -0.887829 3.44677 0.719598
vn 0.429324 -0.895959 -0.113745
v -0.840665 3.46735 0.737975
vn 0.427203 -0.900971 -0.0758133
v -0.760857 3.5463 0.430347
vn 0.584356 -0.776144 -0.236912
v -0.759629 3.54555 0.438132
vn 0.628574 -0.767444 -0.126193
v -0.777202 3.58024 0.43473
vn -0.254974 0.966875 -0.0118887
v -0.774543 3.58048 0.437598
vn 0.197818 0.980152 0.0130405
v -0.904981 3.48239 0.724197
vn -0.432538 0.893994 0.116985
v -0.808671 3.52672 0.739996
vn -0.429645 0.895326 0.117459
v -0.905518 3.46196 0.739475
vn -0.664142 -0.401247 0.630806
v -0.907677 3.47501 0.743417
vn -0.145579 -0.143851 0.978833
v -0.868046 3.49859 0.410332
vn -0.447356 -0.336465 -0.828652
v -0.869985 3.49639 0.415102
vn -0.169605 -0.923982 -0.342771
v -0.871605 3.49403 0.424747
vn -0.273057 -0.942241 -0.19396
v -0.873817 3.49308 0.433946
vn -0.876847 -0.455234 -0.154603
v -0.895115 3.48825 0.575125
vn -0.898447 -0.413603 -0.147393
v -0.888899 3.5244 0.43799
vn -0.92434 -0.354335 -0.14157
v -0.887689 3.52743 0.429059
vn -0.916509 0.39937 -0.0226884
v -0.885811 3.52926 0.419345
vn -0.853448 0.4962 -0.159412
v -0.883374 3.53042 0.414441
vn -0.649603 0.101341 -0.753489
v -0.877469 3.51775 0.41194
vn -0.539192 -0.152713 -0.828221
v -0.897016 3.44262 0.730751
vn -0.197817 -0.980152 -0.01304
v -0.862888 3.49638 0.428353
vn 0.429672 -0.895266 -0.117813
v -0.763882 3.5481 0.424932
vn 0.143156 0.149446 -0.978352
v -0.830895 3.55575 0.430374
vn -0.427203 0.900971 0.0758135
v -0.911931 3.47756 0.730217
vn -0.628575 0.767443 0.126192
v -0.788185 3.49269 0.753908
vn 0.62325 -0.028808 0.781492
v -0.785749 3.49385 0.749005
vn 0.853448 -0.4962 0.159412
v -0.783871 3.49567 0.73929
vn 0.917731 -0.39664 0.0211016
v -0.78266 3.49871 0.730359
vn 0.917698 0.370399 0.14365
v -0.779611 3.54143 0.594073
vn 0.898447 0.413603 0.147393
v -0.797742 3.53003 0.734403
vn 0.864157 0.477956 0.157451
v -0.799954 3.52907 0.743602
vn 0.274956 0.941975 0.192568
v -0.801574 3.52671 0.753248
vn 0.169603 0.923982 0.342772
v -0.803513 3.52452 0.758017
vn 0.405183 0.406239 0.819022
v -0.797206 3.51182 0.757244
vn 0.539192 0.152713 0.828221
v -0.79152 3.49111 0.735398
vn 0.432222 -0.894625 -0.11327
v -0.758718 3.54761 0.433355
vn 0.881686 -0.44003 -0.170303
v -0.776234 3.58003 0.442584
vn -0.20943 0.972852 0.0984763
v -0.857626 3.50258 0.742523
vn -0.433991 0.88747 0.155078
v -0.893304 3.44516 0.739564
vn -0.107829 -0.22281 0.96888
v -0.895955 3.44307 0.736228
vn -0.568502 -0.577436 0.58598
v -0.827161 3.49365 0.581864
vn 0.430949 -0.894949 -0.115542
v -0.760277 3.5482 0.428012
vn 0.744395 0.212161 -0.633138
v -0.779567 3.57917 0.439568
vn -0.41609 0.906091 0.0766067
v -0.908869 3.47898 0.733306
vn -0.445006 0.882142 0.154258
f 1//1 2//2 3//3
f 1//1 3//3 4//4
f 1//1 4//4 5//5
f 1//1 5//5 6//6
f 1//1 6//6 2//2
f 7//7 8//8 9//9
f 10//10 11//11 12//12
f 13//13 14//14 15//15
f 16//16 17//17 18//18
f 19//19 20//20 21//21
f 22//22 23//23 24//24
f 22//22 24//24 25//25
f 22//22 25//25 26//26
f 22//22 26//26 27//27
f 22//22 27//27 23//23
f 28//28 29//29 30//30
f 31//31 32//32 33//33
f 34//34 35//35 36//36
f 37//37 38//38 39//39
f 40//40 41//41 42//42
f 13//13 43//43 44//44
f 10//10 45//45 46//46
f 7//7 47//47 48//48
f 19//19 49//49 50//50
f 16//16 51//51 52//52
f 10//10 53//53 45//45
f 13//13 54//54 43//43
f 16//16 55//55 51//51
f 19//19 56//56 49//49
f 7//7 57//57 47//47
f 40//40 58//58 59//59
f 28//28 60//60 61//61
f 31//31 62//62 63//63
f 34//34 64//64 65//65
f 37//37 66//66 67//67
f 40//40 68//68 58//58
f 28//28 69//69 60//60
f 31//31 70//70 62//62
f 34//34 71//71 64//64
f 37//37 72//72 66//66
f 10//10 46//46 11//11
f 7//7 48//48 8//8
f 19//19 50//50 20//20
f 16//16 52//52 17//17
f 13//13 44//44 14//14
f 40//40 42//42 68//68
f 28//28 30//30 69//69
f 31//31 33//33 70//70
f 34//34 36//36 71//71
f 37//37 39//39 72//72
f 28//28 61//61 29//29
f 31//31 63//63 32//32
f 34//34 65//65 35//35
f 37//37 67//67 38//38
f 40//40 59//59 41//41
f 10//10 12//12 53//53
f 13//13 15//15 54//54
f 16//16 18//18 55//55
f 19//19 21//21 56//56
f 7//7 9//9 57//57
f 73//73 74//74 75//75
f 76//76 77//77 78//78
f 79//79 80//80 81//81
f 82//82 83//83 84//84
f 85//85 86//86 87//87
f 88//88 89//89 90//90
f 91//91 92//92 93//93
f 94//94 95//95 96//96
f 97//97 98//98 99//99
f 100//100 101//101 102//102
f 103//103 104//104 105//105
f 106//106 107//107 108//108
f 109//109 110//110 111//111
f 112//112 113//113 114//114
f 115//115 116//116 117//117
f 88//88 118//118 119//119
f 91//91 120//120 121//121
f 94//94 122//122 123//123
f 97//97 124//124 125//125
f 100//100 126//126 127//127
f 128//128 129//129 2//2
f 130//130 131//131 3//3
f 132//132 133//133 4//4
f 134//134 135//135 5//5
f 136//136 137//137 6//6
f 76//76 138//138 8//8
f 73//73 139//139 11//11
f 85//85 140//140 14//14
f 82//82 141//141 17//17
f 79//79 142//142 20//20
f 143//143 144//144 23//23
f 145//145 146//146 24//24
f 147//147 148//148 25//25
f 149//149 150//150 26//26
f 151//151 152//152 27//27
f 103//103 153//153 29//29
f 106//106 154//154 32//32
f 109//109 155//155 35//35
f 112//112 156//156 38//38
f 115//115 157//157 41//41
f 73//73 75//75 43//43
f 76//76 78//78 45//45
f 79//79 81//81 47//47
f 82//82 84//84 49//49
f 85//85 87//87 51//51
f 88//88 90//90 53//53
f 91//91 93//93 54//54
f 94//94 96//96 55//55
f 97//97 99//99 56//56
f 100//100 102//102 57//57
f 103//103 105//105 58//58
f 106//106 108//108 60//60
f 109//109 111//111 62//62
f 112//112 114//114 64//64
f 115//115 117//117 66//66
f 88//88 119//119 68//68
f 91//91 121//121 69//69
f 94//94 123//123 70//70
f 97//97 125//125 71//71
f 100//100 127//127 72//72
f 130//130 74//74 46//46
f 132//132 77//77 48//48
f 134//134 80//80 50//50
f 136//136 83//83 52//52
f 128//128 86//86 44//44
f 158//158 89//89 42//42
f 159//159 92//92 30//30
f 160//160 95//95 33//33
f 161//161 98//98 36//36
f 162//162 101//101 39//39
f 145//145 104//104 61//61
f 147//147 107//107 63//63
f 149//149 110//110 65//65
f 151//151 113//113 67//67
f 143//143 116//116 59//59
f 159//159 118//118 12//12
f 160//160 120//120 15//15
f 161//161 122//122 18//18
f 162//162 124//124 21//21
f 158//158 126//126 9//9
f 130//130 129//129 74//74
f 132//132 131//131 77//77
f 134//134 133//133 80//80
f 136//136 135//135 83//83
f 128//128 137//137 86//86
f 158//158 138//138 89//89
f 159//159 139//139 92//92
f 160//160 140//140 95//95
f 161//161 141//141 98//98
f 162//162 142//142 101//101
f 145//145 144//144 104//104
f 147//147 146//146 107//107
f 149//149 148//148 110//110
f 151//151 150//150 113//113
f 143//143 152//152 116//116
f 159//159 153//153 118//118
f 160//160 154//154 120//120
f 161//161 155//155 122//122
f 162//162 156//156 124//124
f 158//158 157//157 126//126
f 130//130 3//3 129//129
f 132//132 4//4 131//131
f 134//134 5//5 133//133
f 136//136 6//6 135//135
f 128//128 2//2 137//137
f 158//158 9//9 138//138
f 159//159 12//12 139//139
f 160//160 15//15 140//140
f 161//161 18//18 141//141
f 162//162 21//21 142//142
f 145//145 24//24 144//144
f 147//147 25//25 146//146
f 149//149 26//26 148//148
f 151//151 27//27 150//150
f 143//143 23//23 152//152
f 159//159 30//30 153//153
f 160//160 33//33 154//154
f 161//161 36//36 155//155
f 162//162 39//39 156//156
f 158//158 42//42 157//157
f 128//128 44//44 75//75
f 130//130 46//46 78//78
f 132//132 48//48 81//81
f 134//134 50//50 84//84
f 136//136 52//52 87//87
f 76//76 45//45 90//90
f 73//73 43//43 93//93
f 85//85 51//51 96//96
f 82//82 49//49 99//99
f 79//79 47//47 102//102
f 143//143 59//59 105//105
f 145//145 61//61 108//108
f 147//147 63//63 111//111
f 149//149 65//65 114//114
f 151//151 67//67 117//117
f 103//103 58//58 119//119
f 106//106 60//60 121//121
f 109//109 62//62 123//123
f 112//112 64//64 125//125
f 115//115 66//66 127//127
f 73//73 11//11 74//74
f 76//76 8//8 77//77
f 79//79 20//20 80//80
f 82//82 17//17 83//83
f 85//85 14//14 86//86
f 88//88 68//68 89//89
f 91//91 69//69 92//92
f 94//94 70//70 95//95
f 97//97 71//71 98//98
f 100//100 72//72 101//101
f 103//103 29//29 104//104
f 106//106 32//32 107//107
f 109//109 35//35 110//110
f 112//112 38//38 113//113
f 115//115 41//41 116//116
f 88//88 53//53 118//118
f 91//91 54//54 120//120
f 94//94 55//55 122//122
f 97//97 56//56 124//124
f 100//100 57//57 126//126
f 128//128 75//75 129//129
f 130//130 78//78 131//131
f 132//132 81//81 133//133
f 134//134 84//84 135//135
f 136//136 87//87 137//137
f 76//76 90//90 138//138
f 73//73 93//93 139//139
f 85//85 96//96 140//140
f 82//82 99//99 141//141
f 79//79 102//102 142//142
f 143//143 105//105 144//144
f 145//145 108//108 146//146
f 147//147 111//111 148//148
f 149//149 114//114 150//150
f 151//151 117//117 152//152
f 103//103 119//119 153//153
f 106//106 121//121 154//154
f 109//109 123//123 155//155
f 112//112 125//125 156//156
f 115//115 127//127 157//157
f 129//129 3//3 2//2
f 131//131 4//4 3//3
f 133//133 5//5 4//4
f 135//135 6//6 5//5
f 137//137 2//2 6//6
f 138//138 9//9 8//8
f 139//139 12//12 11//11
f 140//140 15//15 14//14
f 141//141 18//18 17//17
f 142//142 21//21 20//20
f 144//144 24//24 23//23
f 146//146 25//25 24//24
f 148//148 26//26 25//25
f 150//150 27//27 26//26
f 152//152 23//23 27//27
f 153//153 30//30 29//29
f 154//154 33//33 32//32
f 155//155 36//36 35//35
f 156//156 39//39 38//38
f 157//157 42//42 41//41
f 75//75 44//44 43//43
f 78//78 46//46 45//45
f 81//81 48//48 47//47
f 84//84 50//50 49//49
f 87//87 52//52 51//51
f 90//90 45//45 53//53
f 93//93 43//43 54//54
f 96//96 51//51 55//55
f 99//99 49//49 56//56
f 102//102 47//47 57//57
f 105//105 59//59 58//58
f 108//108 61//61 60//60
f 111//111 63//63 62//62
f 114//114 65//65 64//64
f 117//117 67//67 66//66
f 119//119 58//58 68//68
f 121//121 60//60 69//69
f 123//123 62//62 70//70
f 125//125 64//64 71//71
f 127//127 66//66 72//72
f 74//74 11//11 46//46
f 77//77 8//8 48//48
f 80//80 20//20 50//50
f 83//83 17//17 52//52
f 86//86 14//14 44//44
f 89//89 68//68 42//42
f 92//92 69//69 30//30
f 95//95 70//70 33//33
f 98//98 71//71 36//36
f 101//101 72//72 39//39
f 104//104 29//29 61//61
f 107//107 32//32 63//63
f 110//110 35//35 65//65
f 113//113 38//38 67//67
f 116//116 41//41 59//59
f 118//118 53//53 12//12
f 120//120 54//54 15//15
f 122//122 55//55 18//18
f 124//124 56//56 21//21
f 126//126 57//57 9//9
f 129//129 75//75 74//74
f 131//131 78//78 77//77
f 133//133 81//81 80//80
f 135//135 84//84 83//83
f 137//137 87//87 86//86
f 138//138 90//90 89//89
f 139//139 93//93 92//92
f 140//140 96//96 95//95
f 141//141 99//99 98//98
f 142//142 102//102 101//101
f 144//144 105//105 104//104
f 146//146 108//108 107//107
f 148//148 111//111 110//110
f 150//150 114//114 113//113
f 152//152 117//117 116//116
f 153//153 119//119 118//118
f 154//154 121//121 120//120
f 155//155 123//123 122//122
f 156//156 125//125 124//124
f 157//157 127//127 126//126
