# Created by Open3D 
# object name: part_001
# number of vertices: 162
# number of triangles: 320
v 1.2269 2.23205 0.762106
vn -0.873234 -0.487203 -0.00976285
v 1.23879 2.21236 0.782783
vn -0.834523 -0.548503 0.0521172
v 1.21936 2.24651 0.782644
vn -0.882166 -0.464624 0.0768572
v 1.20239 2.27869 0.761055
vn -0.896057 -0.443804 -0.0109441
v 1.22007 2.24594 0.747699
vn -0.874284 -0.466325 -0.134794
v 1.23947 2.21181 0.74948
vn -0.830745 -0.551175 -0.0779005
v 0.494206 3.72497 0.722514
vn -0.919389 -0.393159 -0.0122581
v 0.500599 3.71105 0.743805
vn -0.908821 -0.410312 0.0754212
v 0.485489 3.74729 0.742077
vn -0.945458 -0.322462 0.046124
v 0.86502 2.98132 0.765487
vn -0.0792245 -0.0124474 0.996779
v 1.20835 2.28656 0.783987
vn -0.05439 -0.000648464 0.99852
v 0.871358 2.98444 0.765808
vn -0.0241714 0.0146462 0.999601
v 1.34959 2.24721 0.786565
vn 0.00499628 -0.0351729 0.999369
v 1.35437 2.2375 0.785634
vn 0.306372 -0.641438 0.703345
v 1.44347 2.29194 0.787384
vn 0.0347684 -0.066721 0.997166
v 1.35036 2.24659 0.749069
vn 0.045701 -0.0681276 -0.996629
v 1.25411 2.21779 0.747054
vn 0.0290724 -0.0386105 -0.998831
v 1.432 2.30516 0.749239
vn 0.0325522 -0.0369006 -0.998789
v 0.941499 2.82647 0.730231
vn -0.0385435 -0.0453887 -0.998226
v 0.537613 3.64229 0.708899
vn -0.120823 -0.085274 -0.989005
v 0.526298 3.6773 0.707689
vn -0.0137908 -0.032911 -0.999363
v 0.704363 3.82818 0.725096
vn 0.873234 0.487204 0.00976197
v 0.691649 3.84853 0.74461
vn 0.832074 0.550486 0.0679572
v 0.71105 3.81441 0.746391
vn 0.878613 0.467501 0.0973795
v 0.728862 3.78154 0.726584
vn 0.896057 0.443804 0.0109438
v 0.711763 3.81383 0.711445
vn 0.879364 0.462211 -0.114368
v 0.692329 3.84798 0.711307
vn 0.8336 0.548864 -0.062128
v 1.0653 3.07967 0.767947
vn 0.0385438 0.0453889 0.998226
v 0.721966 3.77443 0.749502
vn 0.013648 0.0336356 0.999341
v 1.05895 3.07656 0.768113
vn -0.0166012 0.0183639 0.999694
v 1.43706 2.33525 0.764688
vn 0.919388 0.39316 0.0122591
v 1.42981 2.34987 0.78523
vn 0.905268 0.41319 0.0988156
v 1.44495 2.31361 0.785316
vn 0.943009 0.324447 0.0739528
v 1.14178 2.92483 0.732692
vn 0.0792239 0.0124471 -0.996779
v 1.3943 2.41741 0.746594
vn 0.163146 0.0536454 -0.985142
v 1.40563 2.3824 0.747001
vn 0.0550405 -1.78405e-05 -0.998484
v 0.581532 3.81313 0.707525
vn -0.00499612 0.0351726 -0.999369
v 0.677796 3.84191 0.708485
vn 0.0116895 0.00560919 -0.999916
v 0.49991 3.75455 0.7063
vn 0.00820895 0.00389961 -0.999959
v 0.580767 3.81375 0.745021
vn -0.0457014 0.0681282 0.996629
v 0.576037 3.82342 0.743576
vn -0.334352 0.664091 0.668724
v 0.486906 3.76901 0.743489
vn -0.0753377 0.099567 0.992175
v 1.25333 2.21843 0.785605
vn -0.0116896 -0.00560911 0.999916
v 1.25681 2.20027 0.785091
vn 0.0118061 -0.0779966 0.996884
v 0.536826 3.64293 0.747496
vn -0.162039 -0.0531212 0.985354
v 1.1876 2.31693 0.782661
vn -0.161823 -0.0535597 0.985365
v 0.501312 3.71048 0.70886
vn -0.900903 -0.412083 -0.136238
v 0.516107 3.67706 0.72397
vn -0.899022 -0.437763 -0.0111069
v 1.20916 2.28591 0.744588
vn -0.0138654 -0.0338576 -0.99933
v 1.18838 2.31629 0.744064
vn -0.12266 -0.0867149 -0.988653
v 1.35509 2.23692 0.750513
vn 0.277805 -0.545904 -0.790451
v 1.25756 2.19966 0.748308
vn 0.0523761 -0.110842 -0.992457
v 0.525494 3.67795 0.747088
vn -0.0547311 5.4537e-05 0.998501
v 1.43121 2.30579 0.78779
vn -0.00820898 -0.00389952 0.999959
v 1.44422 2.29133 0.750601
vn 0.075337 -0.0995661 -0.992175
v 0.948783 2.82767 0.730117
vn 0.016601 -0.0183641 -0.999694
v 0.486169 3.74674 0.708774
vn -0.942532 -0.323398 -0.0839466
v 0.67701 3.84255 0.747036
vn -0.0290719 0.0386097 0.998831
v 0.673565 3.86068 0.745782
vn -0.0523762 0.110842 0.992457
v 1.39351 2.41805 0.78519
vn 0.121777 0.0857165 0.988849
v 0.74274 3.74405 0.750025
vn 0.12156 0.0861548 0.988838
v 1.43052 2.34929 0.750284
vn 0.905985 0.40797 -0.112923
v 1.41515 2.38318 0.763668
vn 0.899022 0.437763 0.0111071
v 0.72277 3.77378 0.710102
vn 0.0542492 0.000503618 -0.998527
v 0.743527 3.74342 0.711429
vn 0.160887 0.0530747 -0.985545
v 0.576753 3.82284 0.708455
vn -0.244991 0.519338 -0.818699
v 0.674315 3.86007 0.708999
vn -0.011806 0.0779958 -0.996884
v 0.499123 3.75519 0.74485
vn -0.0325519 0.0369004 0.998789
v 1.40483 2.38305 0.786401
vn 0.013991 0.0329336 0.99936
v 1.44563 2.31306 0.752012
vn 0.945388 0.321086 -0.0560857
v 1.13638 2.9198 0.732421
vn 0.0241717 -0.0146461 -0.999601
v 0.487657 3.7684 0.706706
vn -0.0347679 0.0667203 -0.997166
v 1.23472 2.24112 0.785149
vn -0.0228333 0.00649573 0.999718
v 1.22257 2.24994 0.784442
vn -0.129231 -0.0476732 0.990468
v 1.24348 2.21549 0.785135
vn -0.0910084 -0.051358 0.994525
v 0.513241 3.68697 0.745643
vn -0.407314 -0.173582 0.896641
v 0.533193 3.64203 0.74563
vn -0.896186 -0.43704 0.0764604
v 0.860102 2.97888 0.764502
vn -0.414119 -0.179575 0.892333
v 0.514002 3.68635 0.708335
vn -0.371588 -0.204224 -0.905657
v 0.932987 2.83131 0.730903
vn -0.377529 -0.209205 -0.902056
v 0.533906 3.64145 0.710644
vn -0.886853 -0.43834 -0.146118
v 1.23552 2.24048 0.746001
vn 0.0179383 -0.0265128 -0.999488
v 1.24426 2.21486 0.747218
vn -0.0504283 -0.0842082 -0.995171
v 1.22336 2.2493 0.745922
vn -0.0887864 -0.0804191 -0.992799
v 1.35632 2.23407 0.764483
vn 0.440453 -0.89746 0.0237989
v 1.26051 2.1925 0.783573
vn 0.308866 -0.922858 0.230076
v 1.26119 2.19195 0.750231
vn 0.316308 -0.923659 -0.21634
v 0.505687 3.7266 0.745755
vn -0.0297981 0.0206882 0.999342
v 0.490784 3.74918 0.744462
vn -0.117147 0.00191088 0.993113
v 0.505237 3.71157 0.74568
vn -0.137542 -0.030731 0.990019
v 1.42464 2.33439 0.787482
vn -0.0109725 0.0123206 0.999864
v 1.39602 2.37774 0.786502
vn -0.0194304 0.0165344 0.999674
v 1.33151 2.28402 0.786513
vn -0.0169888 0.00958305 0.99981
v 1.44805 2.29946 0.751159
vn 0.808064 0.0642754 -0.585578
v 1.45019 2.29602 0.765434
vn 0.996391 0.0827394 0.0189529
v 1.44806 2.28372 0.752527
vn 0.541809 -0.812915 -0.213569
v 1.04288 2.87313 0.731208
vn 0.0203865 -0.0165052 -0.999656
v 1.39683 2.37709 0.746716
vn 0.0213913 -0.0165691 -0.999634
v 1.21874 2.28963 0.744528
vn 0.0198226 -0.0173395 -0.999653
v 0.483798 3.76029 0.707375
vn -0.783566 -0.0841094 -0.615589
v 0.491557 3.74856 0.706546
vn -0.0765698 -0.0309406 -0.996584
v 0.492602 3.73419 0.707408
vn -0.329521 -0.144668 -0.932999
v 0.695602 3.81987 0.748088
vn -0.0179387 0.026513 0.999487
v 0.707766 3.81104 0.748168
vn 0.0887877 0.0804198 0.992799
v 0.686866 3.84548 0.746871
vn 0.0504284 0.0842077 0.995171
v 1.41712 2.37399 0.785755
vn 0.370549 0.203351 0.906279
v 1.39722 2.41889 0.783445
vn 0.892619 0.439928 0.0984627
v 1.07026 3.08208 0.767084
vn 0.377524 0.209202 0.902059
v 1.41788 2.37337 0.748446
vn 0.405868 0.172309 -0.897542
v 1.14314 2.93451 0.733485
vn 0.414121 0.179577 -0.892332
v 1.39793 2.41831 0.74846
vn 0.893864 0.435019 -0.108467
v 0.696401 3.81922 0.70894
vn 0.0228333 -0.00649577 -0.999718
v 0.687639 3.84485 0.708954
vn 0.0910074 0.0513572 -0.994525
v 0.708551 3.8104 0.709648
vn 0.129231 0.0476733 -0.990468
v 0.574957 3.82615 0.722262
vn -0.440452 0.89746 -0.0237989
v 0.669933 3.86839 0.743858
vn -0.317368 0.929739 0.186717
v 0.670613 3.86784 0.710517
vn -0.306606 0.915805 -0.259411
v 0.534293 3.68325 0.747373
vn -0.0213427 0.016476 0.999636
v 0.598809 3.77697 0.746921
vn -0.0237831 0.0234269 0.999443
v 1.43957 2.31179 0.787544
vn 0.0765699 0.0309407 0.996584
v 1.4251 2.3494 0.78693
vn 0.0971002 0.0634783 0.993248
v 1.44034 2.31116 0.749627
vn 0.117145 -0.00191116 -0.993113
v 1.43927 2.32555 0.749972
vn 0.367371 0.114022 -0.923059
v 0.535104 3.6826 0.707587
vn 0.0194622 -0.0165952 -0.999673
v 0.713193 3.77006 0.709775
vn 0.021023 -0.0158287 -0.999654
v 0.481084 3.7642 0.721429
vn -0.996391 -0.0827414 -0.0189529
v 0.483743 3.77607 0.708221
vn -0.532108 0.80506 -0.262182
v 1.24805 2.20218 0.784266
vn -0.610043 -0.639573 0.467753
v 1.23277 2.22511 0.784154
vn -0.334338 -0.181357 0.924839
v 1.20802 2.2713 0.783186
vn -0.40531 -0.177675 0.896747
v 1.1847 2.31452 0.780835
vn -0.895586 -0.438264 0.0764915
v 0.858845 2.97766 0.742061
vn -0.897544 -0.440786 -0.0110255
v 1.18542 2.31394 0.745849
vn -0.888367 -0.440238 -0.13036
v 1.20878 2.27068 0.745878
vn -0.366637 -0.20707 -0.907028
v 1.23352 2.2245 0.747444
vn -0.29648 -0.211997 -0.931212
v 1.24877 2.20159 0.748711
vn -0.533134 -0.594385 -0.602058
v 1.2499 2.19766 0.762973
vn -0.674813 -0.737987 -0.00157401
v 0.491853 3.7348 0.744118
vn -0.367376 -0.114023 0.923057
v 1.21793 2.29028 0.784314
vn -0.0209943 0.0157664 0.999655
v 1.44738 2.28427 0.785868
vn 0.536888 -0.810876 0.232877
v 1.33231 2.28337 0.747169
vn 0.0237832 -0.0234269 -0.999443
v 0.506022 3.71094 0.70716
vn -0.0971006 -0.0634785 -0.993248
v 0.682353 3.85875 0.745379
vn 0.590899 0.65507 0.470873
v 0.697602 3.83584 0.746645
vn 0.296484 0.211999 0.931211
v 0.722345 3.78966 0.748212
vn 0.368539 0.207441 0.906172
v 0.745706 3.7464 0.74824
vn 0.892018 0.441151 0.098433
v 1.07243 3.08256 0.744684
vn 0.897544 0.440786 0.0110254
v 0.74642 3.74582 0.713255
vn 0.891748 0.435135 -0.124272
v 0.723106 3.78904 0.710903
vn 0.406627 0.17796 -0.896094
v 0.69835 3.83523 0.709936
vn 0.334341 0.181358 -0.924838
v 0.683078 3.85816 0.709823
vn 0.557633 0.574554 -0.59911
v 0.681367 3.86256 0.72389
vn 0.674813 0.737987 0.00157389
v 0.712382 3.77071 0.749561
vn -0.0197787 0.017244 0.999656
v 1.43852 2.32615 0.786682
vn 0.329521 0.144668 0.932999
v 1.42589 2.34877 0.74841
vn 0.137541 0.0307307 -0.990019
v 0.599611 3.77632 0.707576
vn 0.0169888 -0.00958304 -0.99981
v 0.483063 3.77662 0.741563
vn -0.545386 0.817758 0.183917
v 0.483073 3.76088 0.74293
vn -0.888787 -0.0716036 0.452692
v 0.965154 3.0305 0.767038
vn -0.0203866 0.0165052 0.999656
v 1.44733 2.30005 0.786715
vn 0.869645 0.0871004 0.485934
v 1.42544 2.33374 0.748335
vn 0.0297986 -0.0206885 -0.999342
v 0.506485 3.72595 0.706607
vn 0.0109726 -0.0123206 -0.999864
f 1//1 2//2 3//3
f 1//1 3//3 4//4
f 1//1 4//4 5//5
f 1//1 5//5 6//6
f 1//1 6//6 2//2
f 7//7 8//8 9//9
f 10//10 11//11 12//12
f 13//13 14//14 15//15
f 16//16 17//17 18//18
f 19//19 20//20 21//21
f 22//22 23//23 24//24
f 22//22 24//24 25//25
f 22//22 25//25 26//26
f 22//22 26//26 27//27
f 22//22 27//27 23//23
f 28//28 29//29 30//30
f 31//31 32//32 33//33
f 34//34 35//35 36//36
f 37//37 38//38 39//39
f 40//40 41//41 42//42
f 13//13 43//43 44//44
f 10//10 45//45 46//46
f 7//7 47//47 48//48
f 19//19 49//49 50//50
f 16//16 51//51 52//52
f 10//10 53//53 45//45
f 13//13 54//54 43//43
f 16//16 55//55 51//51
f 19//19 56//56 49//49
f 7//7 57//57 47//47
f 40//40 58//58 59//59
f 28//28 60//60 61//61
f 31//31 62//62 63//63
f 34//34 64//64 65//65
f 37//37 66//66 67//67
f 40//40 68//68 58//58
f 28//28 69//69 60//60
f 31//31 70//70 62//62
f 34//34 71//71 64//64
f 37//37 72//72 66//66
f 10//10 46//46 11//11
f 7//7 48//48 8//8
f 19//19 50//50 20//20
f 16//16 52//52 17//17
f 13//13 44//44 14//14
f 40//40 42//42 68//68
f 28//28 30//30 69//69
f 31//31 33//33 70//70
f 34//34 36//36 71//71
f 37//37 39//39 72//72
f 28//28 61//61 29//29
f 31//31 63//63 32//32
f 34//34 65//65 35//35
f 37//37 67//67 38//38
f 40//40 59//59 41//41
f 10//10 12//12 53//53
f 13//13 15//15 54//54
f 16//16 18//18 55//55
f 19//19 21//21 56//56
f 7//7 9//9 57//57
f 73//73 74//74 75//75
f 76//76 77//77 78//78
f 79//79 80//80 81//81
f 82//82 83//83 84//84
f 85//85 86//86 87//87
f 88//88 89//89 90//90
f 91//91 92//92 93//93
f 94//94 95//95 96//96
f 97//97 98//98 99//99
f 100//100 101//101 102//102
f 103//103 104//104 105//105
f 106//106 107//107 108//108
f 109//109 110//110 111//111
f 112//112 113//113 114//114
f 115//115 116//116 117//117
f 88//88 118//118 119//119
f 91//91 120//120 121//121
f 94//94 122//122 123//123
f 97//97 124//124 125//125
f 100//100 126//126 127//127
f 128//128 129//129 2//2
f 130//130 131//131 3//3
f 132//132 133//133 4//4
f 134//134 135//135 5//5
f 136//136 137//137 6//6
f 76//76 138//138 8//8
f 73//73 139//139 11//11
f 85//85 140//140 14//14
f 82//82 141//141 17//17
f 79//79 142//142 20//20
f 143//143 144//144 23//23
f 145//145 146//146 24//24
f 147//147 148//148 25//25
f 149//149 150//150 26//26
f 151//151 152//152 27//27
f 103//103 153//153 29//29
f 106//106 154//154 32//32
f 109//109 155//155 35//35
f 112//112 156//156 38//38
f 115//115 157//157 41//41
f 73//73 75//75 43//43
f 76//76 78//78 45//45
f 79//79 81//81 47//47
f 82//82 84//84 49//49
f 85//85 87//87 51//51
f 88//88 90//90 53//53
f 91//91 93//93 54//54
f 94//94 96//96 55//55
f 97//97 99//99 56//56
f 100//100 102//102 57//57
f 103//103 105//105 58//58
f 106//106 108//108 60//60
f 109//109 111//111 62//62
f 112//112 114//114 64//64
f 115//115 117//117 66//66
f 88//88 119//119 68//68
f 91//91 121//121 69//69
f 94//94 123//123 70//70
f 97//97 125//125 71//71
f 100//100 127//127 72//72
f 130//130 74//74 46//46
f 132//132 77//77 48//48
f 134//134 80//80 50//50
f 136//136 83//83 52//52
f 128//128 86//86 44//44
f 158//158 89//89 42//42
f 159//159 92//92 30//30
f 160//160 95//95 33//33
f 161//161 98//98 36//36
f 162//162 101//101 39//39
f 145//145 104//104 61//61
f 147//147 107//107 63//63
f 149//149 110//110 65//65
f 151//151 113//113 67//67
f 143//143 116//116 59//59
f 159//159 118//118 12//12
f 160//160 120//120 15//15
f 161//161 122//122 18//18
f 162//162 124//124 21//21
f 158//158 126//126 9//9
f 130//130 129//129 74//74
f 132//132 131//131 77//77
f 134//134 133//133 80//80
f 136//136 135//135 83//83
f 128//128 137//137 86//86
f 158//158 138//138 89//89
f 159//159 139//139 92//92
f 160//160 140//140 95//95
f 161//161 141//141 98//98
f 162//162 142//142 101//101
f 145//145 144//144 104//104
f 147//147 146//146 107//107
f 149//149 148//148 110//110
f 151//151 150//150 113//113
f 143//143 152//152 116//116
f 159//159 153//153 118//118
f 160//160 154//154 120//120
f 161//161 155//155 122//122
f 162//162 156//156 124//124
f 158//158 157//157 126//126
f 130//130 3//3 129//129
f 132//132 4//4 131//131
f 134//134 5//5 133//133
f 136//136 6//6 135//135
f 128//128 2//2 137//137
f 158//158 9//9 138//138
f 159//159 12//12 139//139
f 160//160 15//15 140//140
f 161//161 18//18 141//141
f 162//162 21//21 142//142
f 145//145 24//24 144//144
f 147//147 25//25 146//146
f 149//149 26//26 148//148
f 151//151 27//27 150//150
f 143//143 23//23 152//152
f 159//159 30//30 153//153
f 160//160 33//33 154//154
f 161//161 36//36 155//155
f 162//162 39//39 156//156
f 158//158 42//42 157//157
f 128//128 44//44 75//75
f 130//130 46//46 78//78
f 132//132 48//48 81//81
f 134//134 50//50 84//84
f 136//136 52//52 87//87
f 76//76 45//45 90//90
f 73//73 43//43 93//93
f 85//85 51//51 96//96
f 82//82 49//49 99//99
f 79//79 47//47 102//102
f 143//143 59//59 105//105
f 145//145 61//61 108//108
f 147//147 63//63 111//111
f 149//149 65//65 114//114
f 151//151 67//67 117//117
f 103//103 58//58 119//119
f 106//106 60//60 121//121
f 109//109 62//62 123//123
f 112//112 64//64 125//125
f 115//115 66//66 127//127
f 73//73 11//11 74//74
f 76//76 8//8 77//77
f 79//79 20//20 80//80
f 82//82 17//17 83//83
f 85//85 14//14 86//86
f 88//88 68//68 89//89
f 91//91 69//69 92//92
f 94//94 70//70 95//95
f 97//97 71//71 98//98
f 100//100 72//72 101//101
f 103//103 29//29 104//104
f 106//106 32//32 107//107
f 109//109 35//35 110//110
f 112//112 38//38 113//113
f 115//115 41//41 116//116
f 88//88 53//53 118//118
f 91//91 54//54 120//120
f 94//94 55//55 122//122
f 97//97 56//56 124//124
f 100//100 57//57 126//126
f 128//128 75//75 129//129
f 130//130 78//78 131//131
f 132//132 81//81 133//133
f 134//134 84//84 135//135
f 136//136 87//87 137//137
f 76//76 90//90 138//138
f 73//73 93//93 139//139
f 85//85 96//96 140//140
f 82//82 99//99 141//141
f 79//79 102//102 142//142
f 143//143 105//105 144//144
f 145//145 108//108 146//146
f 147//147 111//111 148//148
f 149//149 114//114 150//150
f 151//151 117//117 152//152
f 103//103 119//119 153//153
f 106//106 121//121 154//154
f 109//109 123//123 155//155
f 112//112 125//125 156//156
f 115//115 127//127 157//157
f 129//129 3//3 2//2
f 131//131 4//4 3//3
f 133//133 5//5 4//4
f 135//135 6//6 5//5
f 137//137 2//2 6//6
f 138//138 9//9 8//8
f 139//139 12//12 11//11
f 140//140 15//15 14//14
f 141//141 18//18 17//17
f 142//142 21//21 20//20
f 144//144 24//24 23//23
f 146//146 25//25 24//24
f 148//148 26//26 25//25
f 150//150 27//27 26//26
f 152//152 23//23 27//27
f 153//153 30//30 29//29
f 154//154 33//33 32//32
f 155//155 36//36 35//35
f 156//156 39//39 38//38
f 157//157 42//42 41//41
f 75//75 44//44 43//43
f 78//78 46//46 45//45
f 81//81 48//48 47//47
f 84//84 50//50 49//49
f 87//87 52//52 51//51
f 90//90 45//45 53//53
f 93//93 43//43 54//54
f 96//96 51//51 55//55
f 99//99 49//49 56//56
f 102//102 47//47 57//57
f 105//105 59//59 58//58
f 108//108 61//61 60//60
f 111//111 63//63 62//62
f 114//114 65//65 64//64
f 117//117 67//67 66//66
f 119//119 58//58 68//68
f 121//121 60//60 69//69
f 123//123 62//62 70//70
f 125//125 64//64 71//71
f 127//127 66//66 72//72
f 74//74 11//11 46//46
f 77//77 8//8 48//48
f 80//80 20//20 50//50
f 83//83 17//17 52//52
f 86//86 14//14 44//44
f 89//89 68//68 42//42
f 92//92 69//69 30//30
f 95//95 70//70 33//33
f 98//98 71//71 36//36
f 101//101 72//72 39//39
f 104//104 29//29 61//61
f 107//107 32//32 63//63
f 110//110 35//35 65//65
f 113//113 38//38 67//67
f 116//116 41//41 59//59
f 118//118 53//53 12//12
f 120//120 54//54 15//15
f 122//122 55//55 18//18
f 124//124 56//56 21//21
f 126//126 57//57 9//9
f 129//129 75//75 74//74
f 131//131 78//78 77//77
f 133//133 81//81 80//80
f 135//135 84//84 83//83
f 137//137 87//87 86//86
f 138//138 90//90 89//89
f 139//139 93//93 92//92
f 140//140 96//96 95//95
f 141//141 99//99 98//98
f 142//142 102//102 101//101
f 144//144 105//105 104//104
f 146//146 108//108 107//107
f 148//148 111//111 110//110
f 150//150 114//114 113//113
f 152//152 117//117 116//116
f 153//153 119//119 118//118
f 154//154 121//121 120//120
f 155//155 123//123 122//122
f 156//156 125//125 124//124
f 157//157 127//127 126//126
