# Created by Open3D 
# object name: part_056
# number of vertices: 162
# number of triangles: 320
v 0.517492 1.89414 0.349764
vn -0.709303 -0.367358 -0.601612
v 0.516524 1.86923 0.366807
vn -0.708546 -0.40199 -0.579972
v 0.499465 1.90291 0.366124
vn -0.733049 -0.367243 -0.572514
v 0.495589 1.93985 0.348581
vn -0.718408 -0.348237 -0.602181
v 0.518793 1.91128 0.338224
vn -0.683635 -0.345846 -0.642677
v 0.534944 1.8772 0.340218
vn -0.678126 -0.389308 -0.623365
v -0.156641 3.34589 0.318337
vn -0.728368 -0.326303 -0.6025
v -0.161849 3.32705 0.335294
vn -0.744087 -0.343476 -0.573026
v -0.176572 3.36182 0.334496
vn -0.754685 -0.302629 -0.582122
v 0.169283 2.61527 0.353882
vn -0.658517 -0.290762 0.694127
v 0.484042 1.93906 0.36908
vn -0.616138 -0.270542 0.739717
v 0.171259 2.61623 0.355844
vn -0.560174 -0.242978 0.791939
v 0.556801 1.8699 0.397539
vn -0.526732 -0.293258 0.797843
v 0.561833 1.86076 0.396795
vn -0.0599485 -0.832312 0.551056
v 0.588548 1.8839 0.423286
vn -0.48434 -0.320547 0.814042
v 0.57754 1.87888 0.367603
vn 0.577089 0.184814 -0.795495
v 0.541512 1.87921 0.342083
vn 0.559731 0.215459 -0.800174
v 0.6007 1.90777 0.391655
vn 0.566444 0.218697 -0.794552
v 0.260672 2.47475 0.325716
vn 0.433682 0.182281 -0.882436
v -0.109478 3.26887 0.308027
vn 0.259374 0.0998919 -0.960597
v -0.122447 3.30151 0.308334
vn 0.485071 0.207224 -0.849567
v -0.086716 3.37963 0.376902
vn 0.709303 0.367358 0.601612
v -0.107977 3.39491 0.391947
vn 0.68074 0.389948 0.620108
v -0.0918258 3.36084 0.393941
vn 0.692882 0.349846 0.630494
v -0.0650545 3.33381 0.378434
vn 0.718408 0.348237 0.602181
v -0.0724978 3.36921 0.366042
vn 0.741266 0.370806 0.559489
v -0.0895573 3.40289 0.365358
vn 0.710573 0.403362 0.576528
v 0.235922 2.64742 0.409695
vn -0.433687 -0.182283 0.882433
v -0.0788672 3.32361 0.394541
vn -0.485044 -0.206392 0.849785
v 0.233677 2.64635 0.408122
vn -0.54557 -0.235932 0.80417
v 0.587417 1.92788 0.40833
vn 0.728368 0.326303 0.602501
v 0.569488 1.93669 0.424771
vn 0.703918 0.326079 0.631008
v 0.585119 1.90232 0.424258
vn 0.726879 0.290587 0.622259
v 0.327311 2.5069 0.381529
vn 0.658523 0.290764 -0.694121
v 0.557792 2.0125 0.393324
vn 0.775787 0.348568 -0.525979
v 0.571206 1.98004 0.392375
vn 0.616992 0.269939 -0.739225
v -0.129835 3.40222 0.334626
vn 0.526732 0.293258 -0.797843
v -0.0932231 3.40214 0.359305
vn 0.545719 0.263326 -0.795519
v -0.152411 3.37358 0.309733
vn 0.539007 0.260088 -0.801141
v -0.150573 3.39324 0.364562
vn -0.577089 -0.184815 0.795495
v -0.154291 3.40294 0.36341
vn -0.683426 0.510351 0.521987
v -0.181925 3.37941 0.338246
vn -0.615089 -0.155621 0.772948
v 0.52019 1.86998 0.37286
vn -0.545719 -0.263326 0.795519
v 0.526441 1.85393 0.371269
vn -0.528588 -0.341896 0.776983
v -0.130825 3.25962 0.338842
vn -0.774505 -0.347947 0.528275
v 0.467931 1.97019 0.366755
vn -0.774298 -0.34838 0.528293
v -0.142521 3.33542 0.307394
vn -0.694694 -0.32203 -0.643193
v -0.135844 3.29965 0.319145
vn -0.719631 -0.345602 -0.602238
v 0.505834 1.9485 0.337624
vn 0.484544 0.206033 -0.850157
v 0.489279 1.97944 0.335941
vn 0.255256 0.0974173 -0.961953
v 0.581258 1.86918 0.368755
vn 0.694986 -0.361427 -0.621582
v 0.546786 1.86274 0.341903
vn 0.570837 0.134268 -0.810011
v -0.144239 3.29207 0.33979
vn -0.616483 -0.26981 0.739697
v 0.579378 1.89854 0.422433
vn -0.539006 -0.260088 0.801141
v 0.608892 1.89271 0.393919
vn 0.61509 0.15562 -0.772947
v 0.263778 2.47397 0.32733
vn 0.545569 0.235931 -0.804171
v -0.158152 3.36979 0.307907
vn -0.72465 -0.289118 -0.625534
v -0.114545 3.3929 0.390083
vn -0.559731 -0.215458 0.800174
v -0.119819 3.40937 0.390263
vn -0.570837 -0.134269 0.81001
v 0.536445 2.00325 0.424138
vn -0.257389 -0.0989772 0.961225
v -0.0623117 3.29268 0.396225
vn -0.257594 -0.0985431 0.961215
v 0.588816 1.94506 0.396871
vn 0.752326 0.346991 0.560003
v 0.566379 1.97401 0.407871
vn 0.719631 0.345602 0.602237
v -0.0570755 3.33305 0.363086
vn 0.615861 0.270329 -0.740025
v -0.0409644 3.30192 0.36541
vn 0.773231 0.347823 -0.53022
v -0.134866 3.41135 0.335371
vn 0.182791 0.741594 -0.645465
v -0.0994746 3.41818 0.360896
vn 0.528588 0.341897 -0.776982
v -0.173733 3.36435 0.34051
vn -0.566444 -0.218697 0.794552
v 0.549414 1.97061 0.423831
vn -0.484699 -0.207124 0.849804
v 0.603539 1.9103 0.39767
vn 0.757098 0.303172 0.578697
v 0.326196 2.50409 0.379607
vn 0.560173 0.242977 -0.791939
v -0.161581 3.38822 0.30888
vn 0.484339 0.320548 -0.814042
v 0.506446 1.89387 0.370883
vn -0.560789 -0.252398 0.78855
v 0.499138 1.90453 0.368624
vn -0.735085 -0.339058 0.587103
v 0.516646 1.87008 0.37004
vn -0.684679 -0.337263 0.646118
v -0.151244 3.30312 0.336939
vn -0.906191 -0.417439 0.0675521
v -0.131265 3.26026 0.336465
vn -0.738822 -0.355151 -0.572721
v 0.168152 2.6147 0.351768
vn -0.906053 -0.419537 0.0552902
v -0.130609 3.31205 0.307153
vn -0.183543 -0.104777 -0.977412
v 0.255247 2.48078 0.324926
vn -0.192209 -0.110363 -0.975129
v -0.111915 3.26864 0.308534
vn -0.686706 -0.332535 -0.646418
v 0.528098 1.90325 0.339628
vn 0.544834 0.226461 -0.807386
v 0.537618 1.87917 0.339768
vn 0.393463 0.129692 -0.910147
v 0.520443 1.91376 0.337871
vn 0.322267 0.118892 -0.939153
v 0.574968 1.86285 0.379908
vn 0.421085 -0.906809 0.0196313
v 0.530829 1.84685 0.370027
vn 0.0830392 -0.996545 0.00184836
v 0.54927 1.85484 0.343409
vn 0.312907 -0.891099 -0.328681
v -0.164321 3.33838 0.339612
vn -0.567706 -0.237497 0.788229
v -0.175893 3.36147 0.337754
vn -0.710125 -0.282476 0.644926
v -0.160863 3.32585 0.337855
vn -0.743056 -0.321919 0.586717
v 0.569636 1.92436 0.423807
vn -0.537913 -0.24136 0.80771
v 0.546607 1.96831 0.421441
vn -0.551216 -0.23911 0.799367
v 0.539673 1.90546 0.397502
vn -0.549506 -0.246727 0.798229
v 0.608385 1.89846 0.396062
vn 0.91173 0.26053 0.317603
v 0.602488 1.89133 0.407593
vn 0.7792 0.190752 0.597044
v 0.611447 1.88484 0.395485
vn 0.71856 -0.695377 0.0110738
v 0.295304 2.48846 0.35342
vn 0.552899 0.239466 -0.798097
v 0.568612 1.97784 0.389676
vn 0.55463 0.239724 -0.796817
v 0.509357 1.94925 0.340048
vn 0.551604 0.238264 -0.799352
v -0.161753 3.38217 0.307716
vn -0.565608 -0.11062 -0.817222
v -0.154922 3.37055 0.307483
vn 0.368035 0.184486 -0.911326
v -0.151444 3.35796 0.30687
vn -0.111374 -0.0398144 -0.992981
v -0.101131 3.36886 0.392537
vn -0.544834 -0.226461 0.807386
v -0.0934763 3.35836 0.394295
vn -0.322266 -0.118892 0.939154
v -0.110651 3.39295 0.392397
vn -0.393464 -0.129692 0.910146
v 0.557576 1.96006 0.425012
vn 0.182011 0.103789 0.977803
v 0.538882 2.00348 0.423632
vn 0.698511 0.337692 0.630909
v 0.238076 2.64844 0.410333
vn 0.192205 0.110361 0.97513
v 0.578211 1.969 0.395226
vn 0.906203 0.41698 -0.0701754
v 0.325172 2.51452 0.383491
vn 0.906053 0.419537 -0.0552911
v 0.558232 2.01186 0.395701
vn 0.745853 0.358161 0.561626
v -0.0794789 3.37824 0.361283
vn 0.560789 0.252398 -0.78855
v -0.0896796 3.40203 0.362126
vn 0.684678 0.337263 -0.646119
v -0.0721715 3.36759 0.363542
vn 0.735083 0.339057 -0.587106
v -0.143939 3.41102 0.346393
vn -0.421085 0.906809 -0.0196313
v -0.122303 3.41728 0.388756
vn -0.297787 0.903534 0.308139
v -0.103862 3.42526 0.362138
vn -0.0674876 0.997392 -0.0255713
v -0.141645 3.29427 0.342489
vn -0.55458 -0.239821 0.796823
v -0.134468 3.35723 0.366075
vn -0.556256 -0.232192 0.797914
v 0.581888 1.90156 0.424683
vn -0.368034 -0.184486 0.911326
v 0.566525 1.93704 0.425063
vn -0.314304 -0.136036 0.939525
v 0.60286 1.91064 0.394411
vn 0.710125 0.282476 -0.644926
v 0.598715 1.92295 0.395987
vn 0.90908 0.38531 -0.158463
v -0.11964 3.3038 0.310725
vn 0.551249 0.239047 -0.799363
v -0.0603845 3.33239 0.360353
vn 0.554261 0.2405 -0.79684
v -0.171524 3.38251 0.318803
vn -0.7792 -0.190752 -0.597044
v -0.166039 3.39526 0.310062
vn -0.473143 0.801669 -0.365326
v 0.522413 1.85795 0.368915
vn -0.749423 -0.532054 -0.394059
v 0.509953 1.88112 0.367958
vn -0.883572 -0.440237 0.159661
v 0.488001 1.92649 0.36674
vn -0.904746 -0.42056 0.0675611
v 0.468173 1.96936 0.36441
vn -0.738573 -0.355686 -0.57271
v 0.179982 2.61979 0.333391
vn -0.71902 -0.34692 -0.60221
v 0.487523 1.97774 0.336479
vn -0.690395 -0.334813 -0.641292
v 0.508637 1.93543 0.336954
vn -0.178077 -0.106173 -0.978272
v 0.530257 1.88992 0.33865
vn -0.0858663 -0.0947417 -0.991792
v 0.542079 1.86647 0.340528
vn -0.436 -0.389735 -0.811179
v 0.535848 1.85918 0.351779
vn -0.638681 -0.49336 -0.590493
v -0.171748 3.34917 0.336178
vn -0.90908 -0.38531 0.158462
v 0.487351 1.93972 0.371812
vn -0.554234 -0.240566 0.796839
v 0.593006 1.87685 0.422103
vn 0.492737 -0.798869 0.344989
v 0.561434 1.91489 0.366091
vn 0.556256 0.232192 -0.797914
v -0.139558 3.33507 0.307102
vn 0.314306 0.136036 -0.939524
v -0.115112 3.40565 0.391637
vn 0.498111 0.423208 0.756822
v -0.10329 3.3822 0.393515
vn 0.0858669 0.094742 0.991792
v -0.0816696 3.33668 0.395211
vn 0.180571 0.106912 0.977734
v -0.060556 3.29437 0.395687
vn 0.698262 0.338227 0.630898
v 0.251047 2.65408 0.392911
vn 0.71902 0.34692 0.602209
v -0.041206 3.30275 0.367755
vn 0.749029 0.360192 0.556073
v -0.0610346 3.34562 0.365425
vn 0.904951 0.420411 -0.065718
v -0.0829859 3.39099 0.364207
vn 0.883572 0.440237 -0.159664
v -0.0954464 3.41417 0.363251
vn 0.782121 0.539644 0.311564
v -0.104884 3.41466 0.374616
vn 0.638681 0.49336 0.590493
v -0.0823898 3.32286 0.392117
vn -0.551563 -0.238366 0.79935
v 0.578411 1.91415 0.425295
vn 0.111373 0.0398139 0.992981
v 0.58783 1.94627 0.39431
vn 0.743054 0.321919 -0.586719
v -0.112706 3.36665 0.334663
vn 0.549506 0.246727 -0.798229
v -0.18448 3.38728 0.336681
vn -0.707487 0.705859 -0.035005
v -0.181418 3.37366 0.336103
vn -0.883468 -0.243388 -0.400308
v 0.202425 2.63127 0.382045
vn -0.552899 -0.239466 0.798097
v 0.588719 1.88994 0.424449
vn 0.632155 0.134541 0.763072
v 0.591288 1.93374 0.392553
vn 0.567707 0.237497 -0.788229
v -0.142669 3.34775 0.308358
vn 0.537913 0.24136 -0.80771
f 1//1 2//2 3//3
f 1//1 3//3 4//4
f 1//1 4//4 5//5
f 1//1 5//5 6//6
f 1//1 6//6 2//2
f 7//7 8//8 9//9
f 10//10 11//11 12//12
f 13//13 14//14 15//15
f 16//16 17//17 18//18
f 19//19 20//20 21//21
f 22//22 23//23 24//24
f 22//22 24//24 25//25
f 22//22 25//25 26//26
f 22//22 26//26 27//27
f 22//22 27//27 23//23
f 28//28 29//29 30//30
f 31//31 32//32 33//33
f 34//34 35//35 36//36
f 37//37 38//38 39//39
f 40//40 41//41 42//42
f 13//13 43//43 44//44
f 10//10 45//45 46//46
f 7//7 47//47 48//48
f 19//19 49//49 50//50
f 16//16 51//51 52//52
f 10//10 53//53 45//45
f 13//13 54//54 43//43
f 16//16 55//55 51//51
f 19//19 56//56 49//49
f 7//7 57//57 47//47
f 40//40 58//58 59//59
f 28//28 60//60 61//61
f 31//31 62//62 63//63
f 34//34 64//64 65//65
f 37//37 66//66 67//67
f 40//40 68//68 58//58
f 28//28 69//69 60//60
f 31//31 70//70 62//62
f 34//34 71//71 64//64
f 37//37 72//72 66//66
f 10//10 46//46 11//11
f 7//7 48//48 8//8
f 19//19 50//50 20//20
f 16//16 52//52 17//17
f 13//13 44//44 14//14
f 40//40 42//42 68//68
f 28//28 30//30 69//69
f 31//31 33//33 70//70
f 34//34 36//36 71//71
f 37//37 39//39 72//72
f 28//28 61//61 29//29
f 31//31 63//63 32//32
f 34//34 65//65 35//35
f 37//37 67//67 38//38
f 40//40 59//59 41//41
f 10//10 12//12 53//53
f 13//13 15//15 54//54
f 16//16 18//18 55//55
f 19//19 21//21 56//56
f 7//7 9//9 57//57
f 73//73 74//74 75//75
f 76//76 77//77 78//78
f 79//79 80//80 81//81
f 82//82 83//83 84//84
f 85//85 86//86 87//87
f 88//88 89//89 90//90
f 91//91 92//92 93//93
f 94//94 95//95 96//96
f 97//97 98//98 99//99
f 100//100 101//101 102//102
f 103//103 104//104 105//105
f 106//106 107//107 108//108
f 109//109 110//110 111//111
f 112//112 113//113 114//114
f 115//115 116//116 117//117
f 88//88 118//118 119//119
f 91//91 120//120 121//121
f 94//94 122//122 123//123
f 97//97 124//124 125//125
f 100//100 126//126 127//127
f 128//128 129//129 2//2
f 130//130 131//131 3//3
f 132//132 133//133 4//4
f 134//134 135//135 5//5
f 136//136 137//137 6//6
f 76//76 138//138 8//8
f 73//73 139//139 11//11
f 85//85 140//140 14//14
f 82//82 141//141 17//17
f 79//79 142//142 20//20
f 143//143 144//144 23//23
f 145//145 146//146 24//24
f 147//147 148//148 25//25
f 149//149 150//150 26//26
f 151//151 152//152 27//27
f 103//103 153//153 29//29
f 106//106 154//154 32//32
f 109//109 155//155 35//35
f 112//112 156//156 38//38
f 115//115 157//157 41//41
f 73//73 75//75 43//43
f 76//76 78//78 45//45
f 79//79 81//81 47//47
f 82//82 84//84 49//49
f 85//85 87//87 51//51
f 88//88 90//90 53//53
f 91//91 93//93 54//54
f 94//94 96//96 55//55
f 97//97 99//99 56//56
f 100//100 102//102 57//57
f 103//103 105//105 58//58
f 106//106 108//108 60//60
f 109//109 111//111 62//62
f 112//112 114//114 64//64
f 115//115 117//117 66//66
f 88//88 119//119 68//68
f 91//91 121//121 69//69
f 94//94 123//123 70//70
f 97//97 125//125 71//71
f 100//100 127//127 72//72
f 130//130 74//74 46//46
f 132//132 77//77 48//48
f 134//134 80//80 50//50
f 136//136 83//83 52//52
f 128//128 86//86 44//44
f 158//158 89//89 42//42
f 159//159 92//92 30//30
f 160//160 95//95 33//33
f 161//161 98//98 36//36
f 162//162 101//101 39//39
f 145//145 104//104 61//61
f 147//147 107//107 63//63
f 149//149 110//110 65//65
f 151//151 113//113 67//67
f 143//143 116//116 59//59
f 159//159 118//118 12//12
f 160//160 120//120 15//15
f 161//161 122//122 18//18
f 162//162 124//124 21//21
f 158//158 126//126 9//9
f 130//130 129//129 74//74
f 132//132 131//131 77//77
f 134//134 133//133 80//80
f 136//136 135//135 83//83
f 128//128 137//137 86//86
f 158//158 138//138 89//89
f 159//159 139//139 92//92
f 160//160 140//140 95//95
f 161//161 141//141 98//98
f 162//162 142//142 101//101
f 145//145 144//144 104//104
f 147//147 146//146 107//107
f 149//149 148//148 110//110
f 151//151 150//150 113//113
f 143//143 152//152 116//116
f 159//159 153//153 118//118
f 160//160 154//154 120//120
f 161//161 155//155 122//122
f 162//162 156//156 124//124
f 158//158 157//157 126//126
f 130//130 3//3 129//129
f 132//132 4//4 131//131
f 134//134 5//5 133//133
f 136//136 6//6 135//135
f 128//128 2//2 137//137
f 158//158 9//9 138//138
f 159//159 12//12 139//139
f 160//160 15//15 140//140
f 161//161 18//18 141//141
f 162//162 21//21 142//142
f 145//145 24//24 144//144
f 147//147 25//25 146//146
f 149//149 26//26 148//148
f 151//151 27//27 150//150
f 143//143 23//23 152//152
f 159//159 30//30 153//153
f 160//160 33//33 154//154
f 161//161 36//36 155//155
f 162//162 39//39 156//156
f 158//158 42//42 157//157
f 128//128 44//44 75//75
f 130//130 46//46 78//78
f 132//132 48//48 81//81
f 134//134 50//50 84//84
f 136//136 52//52 87//87
f 76//76 45//45 90//90
f 73//73 43//43 93//93
f 85//85 51//51 96//96
f 82//82 49//49 99//99
f 79//79 47//47 102//102
f 143//143 59//59 105//105
f 145//145 61//61 108//108
f 147//147 63//63 111//111
f 149//149 65//65 114//114
f 151//151 67//67 117//117
f 103//103 58//58 119//119
f 106//106 60//60 121//121
f 109//109 62//62 123//123
f 112//112 64//64 125//125
f 115//115 66//66 127//127
f 73//73 11//11 74//74
f 76//76 8//8 77//77
f 79//79 20//20 80//80
f 82//82 17//17 83//83
f 85//85 14//14 86//86
f 88//88 68//68 89//89
f 91//91 69//69 92//92
f 94//94 70//70 95//95
f 97//97 71//71 98//98
f 100//100 72//72 101//101
f 103//103 29//29 104//104
f 106//106 32//32 107//107
f 109//109 35//35 110//110
f 112//112 38//38 113//113
f 115//115 41//41 116//116
f 88//88 53//53 118//118
f 91//91 54//54 120//120
f 94//94 55//55 122//122
f 97//97 56//56 124//124
f 100//100 57//57 126//126
f 128//128 75//75 129//129
f 130//130 78//78 131//131
f 132//132 81//81 133//133
f 134//134 84//84 135//135
f 136//136 87//87 137//137
f 76//76 90//90 138//138
f 73//73 93//93 139//139
f 85//85 96//96 140//140
f 82//82 99//99 141//141
f 79//79 102//102 142//142
f 143//143 105//105 144//144
f 145//145 108//108 146//146
f 147//147 111//111 148//148
f 149//149 114//114 150//150
f 151//151 117//117 152//152
f 103//103 119//119 153//153
f 106//106 121//121 154//154
f 109//109 123//123 155//155
f 112//112 125//125 156//156
f 115//115 127//127 157//157
f 129//129 3//3 2//2
f 131//131 4//4 3//3
f 133//133 5//5 4//4
f 135//135 6//6 5//5
f 137//137 2//2 6//6
f 138//138 9//9 8//8
f 139//139 12//12 11//11
f 140//140 15//15 14//14
f 141//141 18//18 17//17
f 142//142 21//21 20//20
f 144//144 24//24 23//23
f 146//146 25//25 24//24
f 148//148 26//26 25//25
f 150//150 27//27 26//26
f 152//152 23//23 27//27
f 153//153 30//30 29//29
f 154//154 33//33 32//32
f 155//155 36//36 35//35
f 156//156 39//39 38//38
f 157//157 42//42 41//41
f 75//75 44//44 43//43
f 78//78 46//46 45//45
f 81//81 48//48 47//47
f 84//84 50//50 49//49
f 87//87 52//52 51//51
f 90//90 45//45 53//53
f 93//93 43//43 54//54
f 96//96 51//51 55//55
f 99//99 49//49 56//56
f 102//102 47//47 57//57
f 105//105 59//59 58//58
f 108//108 61//61 60//60
f 111//111 63//63 62//62
f 114//114 65//65 64//64
f 117//117 67//67 66//66
f 119//119 58//58 68//68
f 121//121 60//60 69//69
f 123//123 62//62 70//70
f 125//125 64//64 71//71
f 127//127 66//66 72//72
f 74//74 11//11 46//46
f 77//77 8//8 48//48
f 80//80 20//20 50//50
f 83//83 17//17 52//52
f 86//86 14//14 44//44
f 89//89 68//68 42//42
f 92//92 69//69 30//30
f 95//95 70//70 33//33
f 98//98 71//71 36//36
f 101//101 72//72 39//39
f 104//104 29//29 61//61
f 107//107 32//32 63//63
f 110//110 35//35 65//65
f 113//113 38//38 67//67
f 116//116 41//41 59//59
f 118//118 53//53 12//12
f 120//120 54//54 15//15
f 122//122 55//55 18//18
f 124//124 56//56 21//21
f 126//126 57//57 9//9
f 129//129 75//75 74//74
f 131//131 78//78 77//77
f 133//133 81//81 80//80
f 135//135 84//84 83//83
f 137//137 87//87 86//86
f 138//138 90//90 89//89
f 139//139 93//93 92//92
f 140//140 96//96 95//95
f 141//141 99//99 98//98
f 142//142 102//102 101//101
f 144//144 105//105 104//104
f 146//146 108//108 107//107
f 148//148 111//111 110//110
f 150//150 114//114 113//113
f 152//152 117//117 116//116
f 153//153 119//119 118//118
f 154//154 121//121 120//120
f 155//155 123//123 122//122
f 156//156 125//125 124//124
f 157//157 127//127 126//126
