# Created by Open3D 
# object name: part_035
# number of vertices: 162
# number of triangles: 320
v 1.15787 2.41576 0.701729
vn 0.950349 0.223517 -0.216509
v 1.16303 2.39642 0.705812
vn 0.973975 0.214085 -0.0744296
v 1.16208 2.39521 0.699883
vn 0.946416 0.194214 -0.258027
v 1.15588 2.41488 0.693913
vn 0.925998 0.215475 -0.309999
v 1.1539 2.42919 0.699088
vn 0.930947 0.257155 -0.259247
v 1.15525 2.4288 0.705055
vn 0.964974 0.251894 -0.0733063
v 1.08048 2.39148 0.459182
vn 0.88773 0.203867 -0.412763
v 1.08616 2.37138 0.461948
vn 0.910032 0.182795 -0.37206
v 1.08347 2.37145 0.456442
vn 0.826024 0.167651 -0.538124
v 1.12304 2.38078 0.581512
vn 0.423334 -0.904882 -0.0444603
v 1.15851 2.39193 0.694742
vn 0.347407 -0.937605 -0.0142959
v 1.1211 2.38008 0.582199
vn 0.246556 -0.968955 0.0183606
v 1.132 2.38712 0.719503
vn 0.325145 -0.876811 0.354235
v 1.13222 2.38843 0.72105
vn 0.333027 -0.0455574 0.941816
v 1.10268 2.38067 0.7297
vn 0.327712 -0.771797 0.544917
v 1.12323 2.42358 0.71865
vn -0.112671 0.943484 0.311679
v 1.15024 2.43034 0.706662
vn -0.179179 0.976478 0.119943
v 1.09442 2.41736 0.725773
vn -0.190795 0.973776 0.123928
v 1.12183 2.42155 0.605668
vn -0.0336764 0.995468 -0.0889389
v 1.08044 2.4081 0.472609
vn 0.219383 0.96113 -0.167632
v 1.07717 2.40761 0.467795
vn -0.118518 0.990912 -0.0636124
v 1.01453 2.37614 0.48176
vn -0.95035 -0.223517 0.216507
v 1.01877 2.35641 0.478591
vn -0.965594 -0.248929 0.0752514
v 1.02012 2.35602 0.484557
vn -0.933968 -0.245964 0.259238
v 1.01663 2.3766 0.489586
vn -0.925998 -0.215475 0.309998
v 1.01194 2.39 0.483762
vn -0.948812 -0.182882 0.257508
v 1.01098 2.38879 0.477833
vn -0.97475 -0.21125 0.0723599
v 1.06019 2.36617 0.603028
vn 0.033674 -0.995468 0.0889397
v 1.02473 2.35496 0.489799
vn 0.116541 -0.991406 0.0594304
v 1.06223 2.3664 0.602353
vn 0.22099 -0.974899 0.0271134
v 1.09192 2.40043 0.724307
vn -0.887729 -0.203866 0.412767
v 1.09603 2.37985 0.722492
vn -0.897582 -0.234546 0.373276
v 1.09834 2.38138 0.727961
vn -0.817649 -0.202497 0.538929
v 1.05898 2.40693 0.627185
vn -0.423329 0.904884 0.0444585
v 1.08456 2.41464 0.710158
vn -0.638314 0.758836 0.129318
v 1.08764 2.41591 0.714953
vn -0.346491 0.93784 0.0200093
v 1.04202 2.39809 0.464142
vn -0.325145 0.876811 -0.354235
v 1.01476 2.39236 0.476106
vn -0.282953 0.94485 -0.164914
v 1.07058 2.40534 0.456995
vn -0.271337 0.94755 -0.168897
v 1.05079 2.36163 0.464995
vn 0.112671 -0.943484 -0.311678
v 1.05001 2.36263 0.463394
vn -0.265901 -0.233524 -0.935288
v 1.07994 2.36877 0.454782
vn 0.0646826 -0.859645 -0.506781
v 1.15926 2.39285 0.707539
vn 0.282953 -0.94485 0.164914
v 1.16126 2.39429 0.709646
vn 0.393108 -0.756581 0.522543
v 1.08946 2.37057 0.473487
vn 0.635991 -0.760969 -0.128227
v 1.1582 2.39214 0.688914
vn 0.636854 -0.760698 -0.125522
v 1.07798 2.40536 0.461153
vn 0.894477 0.245708 -0.373548
v 1.08339 2.39213 0.466728
vn 0.92196 0.214205 -0.322656
v 1.14929 2.43025 0.693846
vn -0.115437 0.991556 -0.0590915
v 1.14917 2.42967 0.688036
vn 0.225891 0.95981 -0.166549
v 1.12401 2.42258 0.720251
vn 0.248508 0.291367 0.923769
v 1.15266 2.43006 0.70881
vn 0.0007133 0.874854 0.484385
v 1.08638 2.3693 0.468692
vn 0.345874 -0.938087 -0.0190809
v 1.10344 2.37987 0.72665
vn 0.271337 -0.94755 0.168897
v 1.09408 2.41644 0.728863
vn -0.0646829 0.859645 0.506781
v 1.11988 2.42135 0.606654
vn -0.220985 0.9749 -0.027115
v 1.07568 2.40383 0.455684
vn 0.815857 0.205094 -0.540661
v 1.02378 2.35487 0.476983
vn 0.17918 -0.976478 -0.119942
v 1.02136 2.35515 0.474836
vn -0.000714042 -0.874854 -0.484387
v 1.09358 2.37711 0.711036
vn -0.221961 -0.960387 0.168496
v 1.02485 2.35554 0.495609
vn -0.222813 -0.960661 0.165788
v 1.08786 2.41383 0.721697
vn -0.912342 -0.171435 0.37181
v 1.08912 2.39935 0.71677
vn -0.921959 -0.214205 0.322657
v 1.01551 2.39327 0.488903
vn -0.346705 0.937862 0.0145073
v 1.01582 2.39307 0.494731
vn -0.634855 0.762482 0.124821
v 1.0418 2.39678 0.462596
vn -0.343948 0.105432 -0.933051
v 1.01276 2.39092 0.473999
vn -0.393108 0.756581 -0.522543
v 1.0796 2.36785 0.457872
vn 0.190795 -0.973776 -0.123927
v 1.09685 2.3776 0.71585
vn 0.118072 -0.990926 0.0642181
v 1.09055 2.41376 0.727203
vn -0.825631 -0.16445 0.539712
v 1.06101 2.40767 0.626808
vn -0.246555 0.968955 -0.0183608
v 1.07134 2.40454 0.453945
vn -0.327712 0.771797 -0.544917
v 1.15989 2.39258 0.702734
vn 0.268967 -0.960983 0.0645593
v 1.16118 2.39316 0.700113
vn 0.587718 -0.807728 -0.0465105
v 1.16196 2.3938 0.706306
vn 0.542075 -0.834026 0.102739
v 1.08749 2.37058 0.466017
vn 0.902449 -0.341133 -0.263085
v 1.09004 2.37255 0.472969
vn 0.929514 0.188626 -0.316899
v 1.12437 2.38204 0.58096
vn 0.90844 -0.329812 -0.256829
v 1.07876 2.40686 0.465168
vn 0.65308 0.701012 -0.286476
v 1.12322 2.42089 0.603982
vn 0.661932 0.694982 -0.280797
v 1.08186 2.40657 0.472173
vn 0.913059 0.254923 -0.318336
v 1.15073 2.43065 0.701844
vn -0.197895 0.980036 0.0191536
v 1.15309 2.43067 0.705443
vn 0.102638 0.992907 0.0600009
v 1.15217 2.43061 0.699237
vn 0.156811 0.983663 -0.0884161
v 1.12742 2.40913 0.721067
vn 0.302598 0.094969 0.948375
v 1.16129 2.3961 0.710845
vn 0.37036 0.0768279 0.925706
v 1.15349 2.42852 0.710086
vn 0.353485 0.145605 0.924039
v 1.08288 2.36842 0.461398
vn 0.237887 -0.970738 -0.0328342
v 1.08246 2.36885 0.457136
vn 0.431754 -0.86865 -0.242973
v 1.08541 2.36938 0.46265
vn 0.553192 -0.81857 -0.154665
v 1.10029 2.37873 0.723138
vn 0.228976 -0.970281 0.0782619
v 1.09982 2.3781 0.714995
vn 0.231931 -0.972382 0.0260821
v 1.13031 2.38562 0.713545
vn 0.248664 -0.96604 0.0702342
v 1.09198 2.4153 0.728739
vn -0.589947 0.0744788 0.803999
v 1.09534 2.40155 0.729752
vn -0.543745 -0.111323 0.831835
v 1.09485 2.41488 0.730162
vn 0.232262 0.117419 0.96554
v 1.09046 2.41459 0.616828
vn -0.233796 0.97202 -0.0227389
v 1.09052 2.41678 0.71409
vn -0.235458 0.971704 -0.018743
v 1.1464 2.42978 0.694957
vn -0.230157 0.972936 -0.0205574
v 1.07372 2.40448 0.454097
vn 0.500161 0.298843 -0.812731
v 1.07359 2.40572 0.456274
vn -0.00766465 0.958287 -0.285706
v 1.07587 2.40568 0.457718
vn 0.536619 0.736799 -0.411299
v 1.02329 2.35456 0.481801
vn 0.197895 -0.980036 -0.019154
v 1.02185 2.3546 0.484408
vn -0.156811 -0.983663 0.088416
v 1.02093 2.35454 0.478202
vn -0.102639 -0.992907 -0.0600006
v 1.09525 2.37835 0.718477
vn -0.651504 -0.702066 0.287482
v 1.09216 2.37864 0.711472
vn -0.917 -0.240652 0.318116
v 1.05842 2.36671 0.603538
vn -0.661931 -0.694982 0.280797
v 1.08653 2.41463 0.717628
vn -0.901132 0.343567 0.264429
v 1.05727 2.40556 0.626559
vn -0.908439 0.329814 0.256829
v 1.08398 2.41266 0.710677
vn -0.931519 -0.178931 0.316632
v 1.01413 2.39262 0.480911
vn -0.268967 0.960983 -0.0645593
v 1.01206 2.39141 0.477339
vn -0.542075 0.834026 -0.102739
v 1.01284 2.39205 0.483532
vn -0.587717 0.807728 0.0465105
v 1.04489 2.38322 0.462411
vn -0.302598 -0.0949691 -0.948375
v 1.02053 2.35669 0.473559
vn -0.354948 -0.140904 -0.924207
v 1.01273 2.38911 0.4728
vn -0.371195 -0.0719731 -0.925761
v 1.0835 2.36843 0.469555
vn 0.235656 -0.971643 0.0193952
v 1.05291 2.36133 0.470995
vn 0.21834 -0.975557 -0.0248054
v 1.10043 2.37949 0.727372
vn 0.00766464 -0.958287 0.285706
v 1.09762 2.37838 0.721871
vn -0.122333 -0.972825 0.196585
v 1.09156 2.41636 0.726509
vn -0.431755 0.86865 0.242973
v 1.08956 2.41523 0.725092
vn -0.817196 0.429809 0.383998
v 1.0742 2.40711 0.46865
vn -0.231801 0.972425 -0.025658
v 1.01831 2.39412 0.487783
vn -0.237074 0.971199 -0.0238524
v 1.07699 2.39068 0.453729
vn 0.543744 0.111323 -0.831835
v 1.07137 2.40275 0.452724
vn -0.249973 -0.0437873 -0.967262
v 1.16283 2.39527 0.708138
vn 0.941875 0.0933093 0.322745
v 1.16271 2.39454 0.703823
vn 0.912649 -0.399837 -0.0848663
v 1.16087 2.39361 0.696012
vn 0.907778 -0.339489 -0.246347
v 1.15885 2.39415 0.688641
vn 0.930334 0.188883 -0.314326
v 1.11966 2.40397 0.580266
vn 0.923999 0.214844 -0.316335
v 1.15067 2.42816 0.687845
vn 0.915237 0.250462 -0.315611
v 1.15215 2.42989 0.695163
vn 0.655745 0.705595 -0.268577
v 1.15413 2.43024 0.702988
vn 0.63207 0.766751 -0.11216
v 1.15452 2.42984 0.70733
vn 0.857862 0.411105 0.308326
v 1.15819 2.41617 0.708235
vn 0.915205 0.227903 0.332355
v 1.08446 2.36998 0.458553
vn 0.817197 -0.429808 -0.383998
v 1.15571 2.39109 0.695862
vn 0.237212 -0.971155 0.0242739
v 1.10265 2.38246 0.730921
vn 0.248603 0.0485174 0.96739
v 1.1211 2.42388 0.71265
vn -0.21834 0.975557 0.0248052
v 1.0764 2.40683 0.461774
vn 0.122333 0.972825 -0.196584
v 1.0195 2.35537 0.476315
vn -0.877891 -0.359346 -0.31651
v 1.01989 2.35497 0.480657
vn -0.63207 -0.766751 0.11216
v 1.02187 2.35532 0.488482
vn -0.656855 -0.703729 0.270751
v 1.02335 2.35704 0.4958
vn -0.917821 -0.24091 0.315543
v 1.05264 2.38838 0.603212
vn -0.923999 -0.214844 0.316335
v 1.01517 2.39106 0.495004
vn -0.933342 -0.174386 0.313786
v 1.01314 2.3916 0.487633
vn -0.907887 0.338043 0.247929
v 1.0113 2.39067 0.479822
vn -0.912649 0.399837 0.0848664
v 1.01118 2.38994 0.475507
vn -0.947648 -0.0377911 -0.317072
v 1.01414 2.37607 0.475246
vn -0.915205 -0.227903 -0.332355
v 1.02761 2.35543 0.488688
vn 0.230374 -0.972871 0.0212033
v 1.09815 2.37953 0.725927
vn -0.536619 -0.736799 0.411299
v 1.08861 2.41583 0.720995
vn -0.553192 0.818571 0.154665
v 1.04371 2.39959 0.4701
vn -0.248664 0.96604 -0.0702343
v 1.07917 2.37033 0.453483
vn -0.233192 -0.112593 -0.96589
v 1.08204 2.36991 0.454906
vn 0.578785 -0.0206504 -0.815219
v 1.09169 2.37316 0.592277
vn 0.233796 -0.97202 0.0227389
v 1.1003 2.38073 0.729548
vn -0.514802 -0.245391 0.821439
v 1.09113 2.41679 0.722247
vn -0.237888 0.970738 0.0328341
v 1.07373 2.40648 0.460508
vn -0.228976 0.970281 -0.078262
f 1//1 2//2 3//3
f 1//1 3//3 4//4
f 1//1 4//4 5//5
f 1//1 5//5 6//6
f 1//1 6//6 2//2
f 7//7 8//8 9//9
f 10//10 11//11 12//12
f 13//13 14//14 15//15
f 16//16 17//17 18//18
f 19//19 20//20 21//21
f 22//22 23//23 24//24
f 22//22 24//24 25//25
f 22//22 25//25 26//26
f 22//22 26//26 27//27
f 22//22 27//27 23//23
f 28//28 29//29 30//30
f 31//31 32//32 33//33
f 34//34 35//35 36//36
f 37//37 38//38 39//39
f 40//40 41//41 42//42
f 13//13 43//43 44//44
f 10//10 45//45 46//46
f 7//7 47//47 48//48
f 19//19 49//49 50//50
f 16//16 51//51 52//52
f 10//10 53//53 45//45
f 13//13 54//54 43//43
f 16//16 55//55 51//51
f 19//19 56//56 49//49
f 7//7 57//57 47//47
f 40//40 58//58 59//59
f 28//28 60//60 61//61
f 31//31 62//62 63//63
f 34//34 64//64 65//65
f 37//37 66//66 67//67
f 40//40 68//68 58//58
f 28//28 69//69 60//60
f 31//31 70//70 62//62
f 34//34 71//71 64//64
f 37//37 72//72 66//66
f 10//10 46//46 11//11
f 7//7 48//48 8//8
f 19//19 50//50 20//20
f 16//16 52//52 17//17
f 13//13 44//44 14//14
f 40//40 42//42 68//68
f 28//28 30//30 69//69
f 31//31 33//33 70//70
f 34//34 36//36 71//71
f 37//37 39//39 72//72
f 28//28 61//61 29//29
f 31//31 63//63 32//32
f 34//34 65//65 35//35
f 37//37 67//67 38//38
f 40//40 59//59 41//41
f 10//10 12//12 53//53
f 13//13 15//15 54//54
f 16//16 18//18 55//55
f 19//19 21//21 56//56
f 7//7 9//9 57//57
f 73//73 74//74 75//75
f 76//76 77//77 78//78
f 79//79 80//80 81//81
f 82//82 83//83 84//84
f 85//85 86//86 87//87
f 88//88 89//89 90//90
f 91//91 92//92 93//93
f 94//94 95//95 96//96
f 97//97 98//98 99//99
f 100//100 101//101 102//102
f 103//103 104//104 105//105
f 106//106 107//107 108//108
f 109//109 110//110 111//111
f 112//112 113//113 114//114
f 115//115 116//116 117//117
f 88//88 118//118 119//119
f 91//91 120//120 121//121
f 94//94 122//122 123//123
f 97//97 124//124 125//125
f 100//100 126//126 127//127
f 128//128 129//129 2//2
f 130//130 131//131 3//3
f 132//132 133//133 4//4
f 134//134 135//135 5//5
f 136//136 137//137 6//6
f 76//76 138//138 8//8
f 73//73 139//139 11//11
f 85//85 140//140 14//14
f 82//82 141//141 17//17
f 79//79 142//142 20//20
f 143//143 144//144 23//23
f 145//145 146//146 24//24
f 147//147 148//148 25//25
f 149//149 150//150 26//26
f 151//151 152//152 27//27
f 103//103 153//153 29//29
f 106//106 154//154 32//32
f 109//109 155//155 35//35
f 112//112 156//156 38//38
f 115//115 157//157 41//41
f 73//73 75//75 43//43
f 76//76 78//78 45//45
f 79//79 81//81 47//47
f 82//82 84//84 49//49
f 85//85 87//87 51//51
f 88//88 90//90 53//53
f 91//91 93//93 54//54
f 94//94 96//96 55//55
f 97//97 99//99 56//56
f 100//100 102//102 57//57
f 103//103 105//105 58//58
f 106//106 108//108 60//60
f 109//109 111//111 62//62
f 112//112 114//114 64//64
f 115//115 117//117 66//66
f 88//88 119//119 68//68
f 91//91 121//121 69//69
f 94//94 123//123 70//70
f 97//97 125//125 71//71
f 100//100 127//127 72//72
f 130//130 74//74 46//46
f 132//132 77//77 48//48
f 134//134 80//80 50//50
f 136//136 83//83 52//52
f 128//128 86//86 44//44
f 158//158 89//89 42//42
f 159//159 92//92 30//30
f 160//160 95//95 33//33
f 161//161 98//98 36//36
f 162//162 101//101 39//39
f 145//145 104//104 61//61
f 147//147 107//107 63//63
f 149//149 110//110 65//65
f 151//151 113//113 67//67
f 143//143 116//116 59//59
f 159//159 118//118 12//12
f 160//160 120//120 15//15
f 161//161 122//122 18//18
f 162//162 124//124 21//21
f 158//158 126//126 9//9
f 130//130 129//129 74//74
f 132//132 131//131 77//77
f 134//134 133//133 80//80
f 136//136 135//135 83//83
f 128//128 137//137 86//86
f 158//158 138//138 89//89
f 159//159 139//139 92//92
f 160//160 140//140 95//95
f 161//161 141//141 98//98
f 162//162 142//142 101//101
f 145//145 144//144 104//104
f 147//147 146//146 107//107
f 149//149 148//148 110//110
f 151//151 150//150 113//113
f 143//143 152//152 116//116
f 159//159 153//153 118//118
f 160//160 154//154 120//120
f 161//161 155//155 122//122
f 162//162 156//156 124//124
f 158//158 157//157 126//126
f 130//130 3//3 129//129
f 132//132 4//4 131//131
f 134//134 5//5 133//133
f 136//136 6//6 135//135
f 128//128 2//2 137//137
f 158//158 9//9 138//138
f 159//159 12//12 139//139
f 160//160 15//15 140//140
f 161//161 18//18 141//141
f 162//162 21//21 142//142
f 145//145 24//24 144//144
f 147//147 25//25 146//146
f 149//149 26//26 148//148
f 151//151 27//27 150//150
f 143//143 23//23 152//152
f 159//159 30//30 153//153
f 160//160 33//33 154//154
f 161//161 36//36 155//155
f 162//162 39//39 156//156
f 158//158 42//42 157//157
f 128//128 44//44 75//75
f 130//130 46//46 78//78
f 132//132 48//48 81//81
f 134//134 50//50 84//84
f 136//136 52//52 87//87
f 76//76 45//45 90//90
f 73//73 43//43 93//93
f 85//85 51//51 96//96
f 82//82 49//49 99//99
f 79//79 47//47 102//102
f 143//143 59//59 105//105
f 145//145 61//61 108//108
f 147//147 63//63 111//111
f 149//149 65//65 114//114
f 151//151 67//67 117//117
f 103//103 58//58 119//119
f 106//106 60//60 121//121
f 109//109 62//62 123//123
f 112//112 64//64 125//125
f 115//115 66//66 127//127
f 73//73 11//11 74//74
f 76//76 8//8 77//77
f 79//79 20//20 80//80
f 82//82 17//17 83//83
f 85//85 14//14 86//86
f 88//88 68//68 89//89
f 91//91 69//69 92//92
f 94//94 70//70 95//95
f 97//97 71//71 98//98
f 100//100 72//72 101//101
f 103//103 29//29 104//104
f 106//106 32//32 107//107
f 109//109 35//35 110//110
f 112//112 38//38 113//113
f 115//115 41//41 116//116
f 88//88 53//53 118//118
f 91//91 54//54 120//120
f 94//94 55//55 122//122
f 97//97 56//56 124//124
f 100//100 57//57 126//126
f 128//128 75//75 129//129
f 130//130 78//78 131//131
f 132//132 81//81 133//133
f 134//134 84//84 135//135
f 136//136 87//87 137//137
f 76//76 90//90 138//138
f 73//73 93//93 139//139
f 85//85 96//96 140//140
f 82//82 99//99 141//141
f 79//79 102//102 142//142
f 143//143 105//105 144//144
f 145//145 108//108 146//146
f 147//147 111//111 148//148
f 149//149 114//114 150//150
f 151//151 117//117 152//152
f 103//103 119//119 153//153
f 106//106 121//121 154//154
f 109//109 123//123 155//155
f 112//112 125//125 156//156
f 115//115 127//127 157//157
f 129//129 3//3 2//2
f 131//131 4//4 3//3
f 133//133 5//5 4//4
f 135//135 6//6 5//5
f 137//137 2//2 6//6
f 138//138 9//9 8//8
f 139//139 12//12 11//11
f 140//140 15//15 14//14
f 141//141 18//18 17//17
f 142//142 21//21 20//20
f 144//144 24//24 23//23
f 146//146 25//25 24//24
f 148//148 26//26 25//25
f 150//150 27//27 26//26
f 152//152 23//23 27//27
f 153//153 30//30 29//29
f 154//154 33//33 32//32
f 155//155 36//36 35//35
f 156//156 39//39 38//38
f 157//157 42//42 41//41
f 75//75 44//44 43//43
f 78//78 46//46 45//45
f 81//81 48//48 47//47
f 84//84 50//50 49//49
f 87//87 52//52 51//51
f 90//90 45//45 53//53
f 93//93 43//43 54//54
f 96//96 51//51 55//55
f 99//99 49//49 56//56
f 102//102 47//47 57//57
f 105//105 59//59 58//58
f 108//108 61//61 60//60
f 111//111 63//63 62//62
f 114//114 65//65 64//64
f 117//117 67//67 66//66
f 119//119 58//58 68//68
f 121//121 60//60 69//69
f 123//123 62//62 70//70
f 125//125 64//64 71//71
f 127//127 66//66 72//72
f 74//74 11//11 46//46
f 77//77 8//8 48//48
f 80//80 20//20 50//50
f 83//83 17//17 52//52
f 86//86 14//14 44//44
f 89//89 68//68 42//42
f 92//92 69//69 30//30
f 95//95 70//70 33//33
f 98//98 71//71 36//36
f 101//101 72//72 39//39
f 104//104 29//29 61//61
f 107//107 32//32 63//63
f 110//110 35//35 65//65
f 113//113 38//38 67//67
f 116//116 41//41 59//59
f 118//118 53//53 12//12
f 120//120 54//54 15//15
f 122//122 55//55 18//18
f 124//124 56//56 21//21
f 126//126 57//57 9//9
f 129//129 75//75 74//74
f 131//131 78//78 77//77
f 133//133 81//81 80//80
f 135//135 84//84 83//83
f 137//137 87//87 86//86
f 138//138 90//90 89//89
f 139//139 93//93 92//92
f 140//140 96//96 95//95
f 141//141 99//99 98//98
f 142//142 102//102 101//101
f 144//144 105//105 104//104
f 146//146 108//108 107//107
f 148//148 111//111 110//110
f 150//150 114//114 113//113
f 152//152 117//117 116//116
f 153//153 119//119 118//118
f 154//154 121//121 120//120
f 155//155 123//123 122//122
f 156//156 125//125 124//124
f 157//157 127//127 126//126
