# Created by Open3D 
# object name: part_027
# number of vertices: 162
# number of triangles: 320
v -0.61157 4.3989 0.691397
vn -0.00321378 -0.172687 0.984971
v -0.614445 4.37593 0.686582
vn -0.0811374 -0.256585 0.96311
v -0.595259 4.38368 0.688264
vn 0.0540354 -0.219145 0.974195
v -0.586254 4.4103 0.692453
vn 0.0617943 -0.142802 0.98782
v -0.609881 4.41497 0.693701
vn -0.0145026 -0.0725446 0.99726
v -0.62838 4.40574 0.691764
vn -0.12405 -0.168139 0.977927
v 0.182577 4.77014 0.69102
vn 0.13533 -0.107922 0.984905
v 0.183786 4.74787 0.687894
vn 0.134256 -0.181654 0.974155
v 0.202041 4.75761 0.686194
vn 0.249655 -0.101947 0.962954
v -0.205105 4.56442 0.683426
vn 0.422389 -0.903632 -0.0709666
v -0.575268 4.39163 0.681983
vn 0.420363 -0.901084 -0.1065
v -0.205364 4.56497 0.678011
vn 0.418627 -0.895665 -0.150117
v -0.627839 4.38257 0.598869
vn 0.317265 -0.935656 -0.154564
v -0.633489 4.38122 0.599057
vn -0.624936 -0.777633 -0.0688623
v -0.633879 4.39389 0.519802
vn 0.241953 -0.955469 -0.168933
v -0.643528 4.41613 0.604703
vn -0.514302 0.843549 0.154658
v -0.630768 4.40957 0.680187
vn -0.45837 0.874626 0.15788
v -0.640882 4.43105 0.529376
vn -0.458703 0.875335 0.15291
v -0.303591 4.5613 0.689586
vn -0.411122 0.879702 0.238964
v 0.131425 4.76383 0.69171
vn -0.395876 0.848204 0.351897
v 0.148379 4.77289 0.687761
vn -0.413951 0.887165 0.203918
v 0.170628 4.79552 0.512851
vn 0.00321626 0.172688 -0.984971
v 0.190319 4.78251 0.511414
vn 0.119523 0.174458 -0.977384
v 0.17182 4.77328 0.509476
vn 0.00218286 0.0988712 -0.995098
v 0.145494 4.78372 0.511727
vn -0.061794 0.142802 -0.98782
v 0.157198 4.80457 0.514913
vn -0.0660156 0.244819 -0.967319
v 0.176384 4.81232 0.516595
vn 0.0792816 0.263926 -0.961279
v -0.216493 4.58861 0.51363
vn 0.411121 -0.879699 -0.238975
v 0.153693 4.76135 0.515064
vn 0.415156 -0.886545 -0.204165
v -0.216031 4.58762 0.518969
vn 0.417901 -0.894124 -0.16094
v -0.623519 4.42428 0.513229
vn -0.135329 0.107922 -0.984905
v -0.607225 4.4091 0.509846
vn -0.0780367 0.0613719 -0.99506
v -0.626167 4.40082 0.511801
vn -0.211269 0.019819 -0.977227
v -0.314979 4.58549 0.51979
vn -0.422388 0.903632 0.0709792
v -0.585635 4.45897 0.517472
vn -0.423424 0.904537 -0.0502499
v -0.602925 4.45063 0.521546
vn -0.4219 0.900407 0.106146
v 0.189778 4.80568 0.604308
vn -0.317265 0.935656 0.154564
v 0.176577 4.81319 0.528988
vn -0.377334 0.913372 0.152872
v 0.186692 4.79171 0.679799
vn -0.377001 0.912664 0.157842
v 0.205467 4.77211 0.598474
vn 0.514302 -0.843549 -0.154658
v 0.210124 4.77559 0.598656
vn 0.997387 -0.0192386 -0.0696323
v 0.211209 4.76144 0.677653
vn 0.579967 -0.803089 -0.136698
v -0.614638 4.37506 0.674189
vn 0.377334 -0.913372 -0.152872
v -0.623266 4.37134 0.678049
vn 0.24412 -0.960085 -0.136538
v 0.147574 4.72928 0.685705
vn 0.42342 -0.90463 0.0485751
v -0.557777 4.39955 0.68604
vn 0.422587 -0.905021 0.0485532
v 0.169164 4.77915 0.693331
vn 0.0657415 -0.0350318 0.997222
v 0.157591 4.75803 0.6921
vn 0.070708 -0.138635 0.987816
v -0.591754 4.4269 0.688113
vn -0.415301 0.886392 0.204534
v -0.573927 4.4341 0.692045
vn -0.396274 0.84687 0.354653
v -0.648184 4.41266 0.604521
vn -0.98023 0.175804 0.0907847
v -0.638656 4.40427 0.683772
vn -0.577795 0.798474 0.169092
v 0.164864 4.73762 0.681631
vn 0.421706 -0.900457 -0.106499
v -0.624752 4.39654 0.523378
vn 0.377001 -0.912664 -0.157842
v -0.64927 4.42681 0.525525
vn -0.579969 0.803088 0.136698
v -0.305068 4.56181 0.684247
vn -0.417901 0.894123 0.160941
v 0.188106 4.78742 0.691376
vn 0.209327 -0.0122959 0.977768
v 0.192707 4.77868 0.52299
vn 0.45837 -0.874626 -0.157879
v 0.200596 4.78398 0.519405
vn 0.577794 -0.798475 -0.169091
v -0.569485 4.42442 0.511467
vn 0.395637 -0.847779 -0.353188
v 0.135866 4.75415 0.511132
vn 0.396471 -0.847391 -0.353185
v -0.621847 4.44038 0.515283
vn -0.146263 0.207317 -0.967278
v -0.598351 4.436 0.512081
vn -0.0707083 0.138636 -0.987816
v 0.137207 4.79662 0.521194
vn -0.420467 0.901004 0.106771
v 0.119716 4.7887 0.517137
vn -0.422645 0.905061 -0.0472761
v 0.195428 4.80703 0.60412
vn 0.493815 0.864888 0.0900858
v 0.185205 4.81691 0.525128
vn -0.24412 0.960085 0.136538
v 0.202822 4.7572 0.673801
vn 0.458703 -0.875334 -0.15291
v -0.586439 4.41536 0.515416
vn 0.413813 -0.887173 -0.204165
v -0.640102 4.43064 0.516983
vn -0.254097 0.108084 -0.961121
v -0.315734 4.58446 0.525206
vn -0.418627 0.895665 0.15012
v 0.195818 4.79436 0.683375
vn -0.241954 0.955469 0.168933
v -0.600532 4.38044 0.679235
vn 0.405184 -0.902334 -0.147034
v -0.593964 4.38292 0.684628
vn 0.407274 -0.913276 0.00734338
v -0.613438 4.37462 0.681951
vn 0.371735 -0.927682 -0.0349086
v 0.171244 4.74081 0.687145
vn 0.393816 -0.832425 0.389842
v 0.147407 4.73069 0.688783
vn 0.095237 -0.200381 0.975078
v -0.205211 4.56465 0.687756
vn 0.388251 -0.830127 0.400189
v 0.155633 4.77421 0.69295
vn -0.316523 0.685941 0.655208
v -0.29907 4.56168 0.693627
vn -0.316996 0.67878 0.662399
v 0.132769 4.76201 0.694226
vn 0.0230868 -0.0459422 0.998677
v -0.616912 4.41549 0.685326
vn -0.43123 0.887214 0.163989
v -0.629303 4.40857 0.68785
vn -0.457358 0.846211 0.273404
v -0.610081 4.41741 0.690621
vn -0.417974 0.852375 0.314254
v -0.644013 4.39946 0.602361
vn -0.905904 -0.423482 0.000430681
v -0.628069 4.37096 0.678409
vn -0.843825 -0.531954 0.0705979
v -0.642019 4.40081 0.683596
vn -0.94278 -0.315612 0.107495
v 0.18965 4.74983 0.67886
vn 0.432367 -0.889628 -0.14704
v 0.202392 4.756 0.681563
vn 0.473354 -0.88018 -0.0349288
v 0.183536 4.74638 0.684258
vn 0.439546 -0.89819 0.00738443
v -0.61133 4.40338 0.518226
vn 0.404047 -0.899921 -0.163976
v -0.586257 4.41388 0.523178
vn 0.417514 -0.895065 -0.156651
v -0.607877 4.39089 0.598716
vn 0.404967 -0.90101 -0.15551
v -0.6467 4.42828 0.520077
vn -0.637269 0.353155 -0.68496
v -0.642888 4.41468 0.51745
vn -0.507966 -0.0885048 -0.856818
v -0.652645 4.42337 0.525169
vn -0.954458 -0.290807 -0.0666392
v -0.310756 4.57305 0.604739
vn -0.41827 0.894907 0.155534
v -0.602904 4.44949 0.529368
vn -0.419205 0.894664 0.154412
v -0.592778 4.42799 0.680351
vn -0.419055 0.894345 0.156655
v 0.193763 4.7918 0.688632
vn 0.239032 0.498893 0.833049
v 0.186527 4.78994 0.687463
vn -0.355754 0.893714 0.273339
v 0.18067 4.78584 0.69147
vn -0.278758 0.757354 0.590516
v 0.178851 4.77276 0.517851
vn 0.43123 -0.887214 -0.163989
v 0.17202 4.77084 0.512556
vn 0.417974 -0.852375 -0.314254
v 0.191243 4.77968 0.515327
vn 0.457358 -0.846211 -0.273405
v -0.593694 4.41404 0.510227
vn 0.316437 -0.687192 -0.653938
v -0.57083 4.42624 0.508951
vn -0.0387704 0.079568 -0.996075
v -0.21716 4.59003 0.509588
vn 0.316997 -0.678782 -0.662396
v -0.609305 4.44744 0.516032
vn -0.394992 0.832896 -0.387642
v -0.311019 4.58706 0.515459
vn -0.388251 0.830127 -0.400189
v -0.585468 4.45756 0.514394
vn -0.10552 0.222282 -0.969256
v 0.162471 4.80781 0.523942
vn -0.405184 0.902334 0.147033
v 0.175378 4.81363 0.521226
vn -0.371736 0.927682 0.0349083
v 0.155903 4.80533 0.518549
vn -0.407274 0.913277 -0.00734323
v 0.202879 4.79536 0.601959
vn 0.905904 0.423483 -0.000430576
v 0.203959 4.78744 0.519581
vn 0.937621 0.331273 -0.105477
v 0.190008 4.81729 0.524768
vn 0.835191 0.545804 -0.0674899
v 0.164843 4.73875 0.673809
vn 0.419024 -0.894748 -0.154416
v 0.186279 4.76214 0.598339
vn 0.431482 -0.888615 -0.155523
v -0.624587 4.3983 0.515714
vn 0.355754 -0.893714 -0.27334
v -0.605479 4.40738 0.512925
vn 0.385704 -0.867468 -0.314216
v -0.640452 4.43225 0.521614
vn -0.473353 0.88018 0.0349288
v -0.634091 4.43528 0.517419
vn -0.46259 0.8288 -0.314803
v 0.148196 4.77437 0.679999
vn -0.417633 0.895011 0.156649
v 0.13807 4.79588 0.529016
vn -0.417782 0.895329 0.154416
v 0.201803 4.78004 0.686852
vn 0.507964 0.0885045 0.856819
v 0.200633 4.79472 0.683196
vn 0.846869 0.520998 0.106645
v -0.620493 4.37238 0.683494
vn -0.21061 -0.627955 0.74921
v -0.607032 4.37756 0.68614
vn 0.339463 -0.88632 0.314964
v -0.581805 4.38878 0.687503
vn 0.38643 -0.835857 0.38989
v -0.558747 4.40058 0.689118
vn 0.0934266 -0.201221 0.97508
v -0.214495 4.58452 0.692697
vn 0.066252 -0.140721 0.98783
v -0.573385 4.4319 0.694561
vn 0.026418 -0.0579578 0.997969
v -0.597415 4.42218 0.693308
vn -0.325263 0.68479 0.652124
v -0.622392 4.41043 0.691851
vn -0.401864 0.699808 0.590571
v -0.635369 4.40421 0.689025
vn -0.535437 0.136851 0.833414
v -0.6315 4.39049 0.687248
vn -0.393011 -0.332675 0.857246
v 0.19603 4.75297 0.685758
vn 0.462589 -0.828799 0.314808
v -0.576131 4.39237 0.674161
vn 0.417664 -0.895384 -0.154415
v -0.638694 4.39353 0.519981
vn -0.855576 -0.506995 -0.104625
v -0.62434 4.42611 0.604838
vn -0.431482 0.888615 0.155523
v 0.167419 4.78087 0.690252
vn -0.385704 0.867468 0.314216
v 0.197309 4.78404 0.514152
vn 0.509545 -0.0116228 -0.860366
v 0.184331 4.77782 0.511326
vn 0.401864 -0.699808 -0.590572
v 0.159354 4.76607 0.509869
vn 0.323818 -0.68375 -0.653932
v 0.135324 4.75635 0.508616
vn -0.0369617 0.0804117 -0.996076
v -0.226639 4.61031 0.511623
vn -0.0662523 0.140721 -0.98783
v 0.120686 4.78767 0.514059
vn -0.108688 0.23395 -0.966154
v 0.143744 4.79947 0.515674
vn -0.386706 0.83501 -0.391428
v 0.168971 4.81068 0.517038
vn -0.339464 0.88632 -0.314963
v 0.182432 4.81587 0.519684
vn 0.137205 0.715183 -0.685338
v 0.190415 4.80423 0.517054
vn 0.39301 0.332675 -0.857246
v 0.154717 4.76026 0.522826
vn 0.418874 -0.89443 -0.156651
v -0.618731 4.40241 0.511707
vn 0.278759 -0.757356 -0.590512
v -0.621597 4.44187 0.518919
vn -0.439546 0.89819 -0.00738217
v 0.169817 4.79736 0.604461
vn -0.404967 0.90101 0.15551
v 0.214584 4.76487 0.678008
vn 0.949373 0.306312 0.069746
v 0.208639 4.75997 0.6831
vn 0.617465 -0.240855 0.748816
v -0.210665 4.57623 0.598478
vn 0.41827 -0.894907 -0.155534
v -0.631823 4.39645 0.514545
vn -0.318534 -0.398724 -0.859974
v -0.62771 4.43842 0.524317
vn -0.432367 0.889628 0.14704
v 0.17327 4.78487 0.684951
vn -0.404047 0.899921 0.163976
f 1//1 2//2 3//3
f 1//1 3//3 4//4
f 1//1 4//4 5//5
f 1//1 5//5 6//6
f 1//1 6//6 2//2
f 7//7 8//8 9//9
f 10//10 11//11 12//12
f 13//13 14//14 15//15
f 16//16 17//17 18//18
f 19//19 20//20 21//21
f 22//22 23//23 24//24
f 22//22 24//24 25//25
f 22//22 25//25 26//26
f 22//22 26//26 27//27
f 22//22 27//27 23//23
f 28//28 29//29 30//30
f 31//31 32//32 33//33
f 34//34 35//35 36//36
f 37//37 38//38 39//39
f 40//40 41//41 42//42
f 13//13 43//43 44//44
f 10//10 45//45 46//46
f 7//7 47//47 48//48
f 19//19 49//49 50//50
f 16//16 51//51 52//52
f 10//10 53//53 45//45
f 13//13 54//54 43//43
f 16//16 55//55 51//51
f 19//19 56//56 49//49
f 7//7 57//57 47//47
f 40//40 58//58 59//59
f 28//28 60//60 61//61
f 31//31 62//62 63//63
f 34//34 64//64 65//65
f 37//37 66//66 67//67
f 40//40 68//68 58//58
f 28//28 69//69 60//60
f 31//31 70//70 62//62
f 34//34 71//71 64//64
f 37//37 72//72 66//66
f 10//10 46//46 11//11
f 7//7 48//48 8//8
f 19//19 50//50 20//20
f 16//16 52//52 17//17
f 13//13 44//44 14//14
f 40//40 42//42 68//68
f 28//28 30//30 69//69
f 31//31 33//33 70//70
f 34//34 36//36 71//71
f 37//37 39//39 72//72
f 28//28 61//61 29//29
f 31//31 63//63 32//32
f 34//34 65//65 35//35
f 37//37 67//67 38//38
f 40//40 59//59 41//41
f 10//10 12//12 53//53
f 13//13 15//15 54//54
f 16//16 18//18 55//55
f 19//19 21//21 56//56
f 7//7 9//9 57//57
f 73//73 74//74 75//75
f 76//76 77//77 78//78
f 79//79 80//80 81//81
f 82//82 83//83 84//84
f 85//85 86//86 87//87
f 88//88 89//89 90//90
f 91//91 92//92 93//93
f 94//94 95//95 96//96
f 97//97 98//98 99//99
f 100//100 101//101 102//102
f 103//103 104//104 105//105
f 106//106 107//107 108//108
f 109//109 110//110 111//111
f 112//112 113//113 114//114
f 115//115 116//116 117//117
f 88//88 118//118 119//119
f 91//91 120//120 121//121
f 94//94 122//122 123//123
f 97//97 124//124 125//125
f 100//100 126//126 127//127
f 128//128 129//129 2//2
f 130//130 131//131 3//3
f 132//132 133//133 4//4
f 134//134 135//135 5//5
f 136//136 137//137 6//6
f 76//76 138//138 8//8
f 73//73 139//139 11//11
f 85//85 140//140 14//14
f 82//82 141//141 17//17
f 79//79 142//142 20//20
f 143//143 144//144 23//23
f 145//145 146//146 24//24
f 147//147 148//148 25//25
f 149//149 150//150 26//26
f 151//151 152//152 27//27
f 103//103 153//153 29//29
f 106//106 154//154 32//32
f 109//109 155//155 35//35
f 112//112 156//156 38//38
f 115//115 157//157 41//41
f 73//73 75//75 43//43
f 76//76 78//78 45//45
f 79//79 81//81 47//47
f 82//82 84//84 49//49
f 85//85 87//87 51//51
f 88//88 90//90 53//53
f 91//91 93//93 54//54
f 94//94 96//96 55//55
f 97//97 99//99 56//56
f 100//100 102//102 57//57
f 103//103 105//105 58//58
f 106//106 108//108 60//60
f 109//109 111//111 62//62
f 112//112 114//114 64//64
f 115//115 117//117 66//66
f 88//88 119//119 68//68
f 91//91 121//121 69//69
f 94//94 123//123 70//70
f 97//97 125//125 71//71
f 100//100 127//127 72//72
f 130//130 74//74 46//46
f 132//132 77//77 48//48
f 134//134 80//80 50//50
f 136//136 83//83 52//52
f 128//128 86//86 44//44
f 158//158 89//89 42//42
f 159//159 92//92 30//30
f 160//160 95//95 33//33
f 161//161 98//98 36//36
f 162//162 101//101 39//39
f 145//145 104//104 61//61
f 147//147 107//107 63//63
f 149//149 110//110 65//65
f 151//151 113//113 67//67
f 143//143 116//116 59//59
f 159//159 118//118 12//12
f 160//160 120//120 15//15
f 161//161 122//122 18//18
f 162//162 124//124 21//21
f 158//158 126//126 9//9
f 130//130 129//129 74//74
f 132//132 131//131 77//77
f 134//134 133//133 80//80
f 136//136 135//135 83//83
f 128//128 137//137 86//86
f 158//158 138//138 89//89
f 159//159 139//139 92//92
f 160//160 140//140 95//95
f 161//161 141//141 98//98
f 162//162 142//142 101//101
f 145//145 144//144 104//104
f 147//147 146//146 107//107
f 149//149 148//148 110//110
f 151//151 150//150 113//113
f 143//143 152//152 116//116
f 159//159 153//153 118//118
f 160//160 154//154 120//120
f 161//161 155//155 122//122
f 162//162 156//156 124//124
f 158//158 157//157 126//126
f 130//130 3//3 129//129
f 132//132 4//4 131//131
f 134//134 5//5 133//133
f 136//136 6//6 135//135
f 128//128 2//2 137//137
f 158//158 9//9 138//138
f 159//159 12//12 139//139
f 160//160 15//15 140//140
f 161//161 18//18 141//141
f 162//162 21//21 142//142
f 145//145 24//24 144//144
f 147//147 25//25 146//146
f 149//149 26//26 148//148
f 151//151 27//27 150//150
f 143//143 23//23 152//152
f 159//159 30//30 153//153
f 160//160 33//33 154//154
f 161//161 36//36 155//155
f 162//162 39//39 156//156
f 158//158 42//42 157//157
f 128//128 44//44 75//75
f 130//130 46//46 78//78
f 132//132 48//48 81//81
f 134//134 50//50 84//84
f 136//136 52//52 87//87
f 76//76 45//45 90//90
f 73//73 43//43 93//93
f 85//85 51//51 96//96
f 82//82 49//49 99//99
f 79//79 47//47 102//102
f 143//143 59//59 105//105
f 145//145 61//61 108//108
f 147//147 63//63 111//111
f 149//149 65//65 114//114
f 151//151 67//67 117//117
f 103//103 58//58 119//119
f 106//106 60//60 121//121
f 109//109 62//62 123//123
f 112//112 64//64 125//125
f 115//115 66//66 127//127
f 73//73 11//11 74//74
f 76//76 8//8 77//77
f 79//79 20//20 80//80
f 82//82 17//17 83//83
f 85//85 14//14 86//86
f 88//88 68//68 89//89
f 91//91 69//69 92//92
f 94//94 70//70 95//95
f 97//97 71//71 98//98
f 100//100 72//72 101//101
f 103//103 29//29 104//104
f 106//106 32//32 107//107
f 109//109 35//35 110//110
f 112//112 38//38 113//113
f 115//115 41//41 116//116
f 88//88 53//53 118//118
f 91//91 54//54 120//120
f 94//94 55//55 122//122
f 97//97 56//56 124//124
f 100//100 57//57 126//126
f 128//128 75//75 129//129
f 130//130 78//78 131//131
f 132//132 81//81 133//133
f 134//134 84//84 135//135
f 136//136 87//87 137//137
f 76//76 90//90 138//138
f 73//73 93//93 139//139
f 85//85 96//96 140//140
f 82//82 99//99 141//141
f 79//79 102//102 142//142
f 143//143 105//105 144//144
f 145//145 108//108 146//146
f 147//147 111//111 148//148
f 149//149 114//114 150//150
f 151//151 117//117 152//152
f 103//103 119//119 153//153
f 106//106 121//121 154//154
f 109//109 123//123 155//155
f 112//112 125//125 156//156
f 115//115 127//127 157//157
f 129//129 3//3 2//2
f 131//131 4//4 3//3
f 133//133 5//5 4//4
f 135//135 6//6 5//5
f 137//137 2//2 6//6
f 138//138 9//9 8//8
f 139//139 12//12 11//11
f 140//140 15//15 14//14
f 141//141 18//18 17//17
f 142//142 21//21 20//20
f 144//144 24//24 23//23
f 146//146 25//25 24//24
f 148//148 26//26 25//25
f 150//150 27//27 26//26
f 152//152 23//23 27//27
f 153//153 30//30 29//29
f 154//154 33//33 32//32
f 155//155 36//36 35//35
f 156//156 39//39 38//38
f 157//157 42//42 41//41
f 75//75 44//44 43//43
f 78//78 46//46 45//45
f 81//81 48//48 47//47
f 84//84 50//50 49//49
f 87//87 52//52 51//51
f 90//90 45//45 53//53
f 93//93 43//43 54//54
f 96//96 51//51 55//55
f 99//99 49//49 56//56
f 102//102 47//47 57//57
f 105//105 59//59 58//58
f 108//108 61//61 60//60
f 111//111 63//63 62//62
f 114//114 65//65 64//64
f 117//117 67//67 66//66
f 119//119 58//58 68//68
f 121//121 60//60 69//69
f 123//123 62//62 70//70
f 125//125 64//64 71//71
f 127//127 66//66 72//72
f 74//74 11//11 46//46
f 77//77 8//8 48//48
f 80//80 20//20 50//50
f 83//83 17//17 52//52
f 86//86 14//14 44//44
f 89//89 68//68 42//42
f 92//92 69//69 30//30
f 95//95 70//70 33//33
f 98//98 71//71 36//36
f 101//101 72//72 39//39
f 104//104 29//29 61//61
f 107//107 32//32 63//63
f 110//110 35//35 65//65
f 113//113 38//38 67//67
f 116//116 41//41 59//59
f 118//118 53//53 12//12
f 120//120 54//54 15//15
f 122//122 55//55 18//18
f 124//124 56//56 21//21
f 126//126 57//57 9//9
f 129//129 75//75 74//74
f 131//131 78//78 77//77
f 133//133 81//81 80//80
f 135//135 84//84 83//83
f 137//137 87//87 86//86
f 138//138 90//90 89//89
f 139//139 93//93 92//92
f 140//140 96//96 95//95
f 141//141 99//99 98//98
f 142//142 102//102 101//101
f 144//144 105//105 104//104
f 146//146 108//108 107//107
f 148//148 111//111 110//110
f 150//150 114//114 113//113
f 152//152 117//117 116//116
f 153//153 119//119 118//118
f 154//154 121//121 120//120
f 155//155 123//123 122//122
f 156//156 125//125 124//124
f 157//157 127//127 126//126
