# Created by Open3D 
# object name: part_020
# number of vertices: 162
# number of triangles: 320
v -2.2092 4.26787 1.51444
vn 0.295298 0.0639416 -0.953263
v -2.19714 4.2512 1.51845
vn 0.612448 0.12752 -0.780158
v -2.20473 4.24717 1.51536
vn 0.216958 -0.0970816 -0.971342
v -2.2197 4.26341 1.51273
vn 0.0131654 -0.0494419 -0.99869
v -2.2175 4.27966 1.51359
vn 0.109696 0.173736 -0.978664
v -2.20931 4.28217 1.51676
vn 0.563179 0.260481 -0.784206
v -2.54281 4.13728 1.52441
vn -0.309167 -0.172671 -0.935201
v -2.53199 4.11906 1.52514
vn -0.143458 -0.238164 -0.960572
v -2.54013 4.11694 1.5287
vn -0.575775 -0.337601 -0.744653
v -2.3675 4.18153 1.52834
vn 0.364618 -0.931148 0.0042668
v -2.21201 4.24253 1.52668
vn 0.366713 -0.93003 0.0237783
v -2.36734 4.18188 1.5383
vn 0.365332 -0.929647 0.0478454
v -2.19166 4.25994 1.68007
vn 0.593553 -0.803703 0.0419152
v -2.18992 4.26189 1.67995
vn 0.984965 0.171904 -0.0171293
v -2.19047 4.26879 1.82638
vn 0.721793 -0.690787 0.0427662
v -2.20536 4.29481 1.67816
vn -0.112357 0.992072 -0.0562939
v -2.2099 4.28596 1.53878
vn -0.261444 0.963654 -0.0549327
v -2.20786 4.30202 1.81769
vn -0.261422 0.963812 -0.0522031
v -2.34742 4.2316 1.52531
vn -0.365301 0.925792 -0.097283
v -2.52993 4.15952 1.52637
vn -0.364857 0.916805 -0.162321
v -2.53732 4.15746 1.53397
vn -0.366817 0.927049 -0.0776215
v -2.54039 4.15625 1.85391
vn -0.2953 -0.0639397 0.953262
v -2.53776 4.13555 1.85194
vn -0.564532 -0.249428 0.786822
v -2.52957 4.13806 1.85511
vn -0.129178 -0.126232 0.983554
v -2.52973 4.1603 1.85564
vn -0.0131657 0.049442 0.99869
v -2.54234 4.17055 1.85333
vn -0.234764 0.144432 0.961262
v -2.54993 4.16652 1.85024
vn -0.618868 -0.1188 0.776459
v -2.36519 4.19961 1.84236
vn 0.3653 -0.925792 0.0972905
v -2.52066 4.13856 1.84402
vn 0.363731 -0.928245 0.0778499
v -2.36518 4.19881 1.83243
vn 0.365376 -0.929303 0.0538191
v -2.20678 4.28684 1.84394
vn 0.309169 0.172672 0.9352
v -2.20231 4.26616 1.84533
vn 0.231235 0.0148517 0.972784
v -2.19477 4.26981 1.84169
vn 0.623697 0.215695 0.751317
v -2.34512 4.24968 1.83933
vn -0.364618 0.931148 -0.00426427
v -2.23125 4.29409 1.84037
vn -0.360992 0.930441 0.0629575
v -2.22415 4.2969 1.83273
vn -0.362881 0.931534 -0.0236809
v -2.55542 4.15778 1.68862
vn -0.593538 0.803713 -0.0419157
v -2.55126 4.1676 1.82795
vn -0.464897 0.884162 -0.046123
v -2.5533 4.15154 1.54904
vn -0.464911 0.884009 -0.0488532
v -2.54171 4.12291 1.69053
vn 0.112324 -0.992076 0.0562945
v -2.54431 4.12317 1.69054
vn -0.839399 -0.542228 0.0373822
v -2.54316 4.11473 1.54419
vn -0.0583614 -0.997065 0.0495415
v -2.19581 4.25012 1.54074
vn 0.464891 -0.884166 0.0461225
v -2.19261 4.25194 1.53372
vn 0.721689 -0.691721 0.0262322
v -2.51582 4.12363 1.52833
vn 0.361135 -0.930447 -0.0620482
v -2.21952 4.23962 1.51948
vn 0.363261 -0.929615 -0.0621108
v -2.54476 4.15156 1.52337
vn -0.248927 0.033351 -0.967948
v -2.53218 4.1411 1.52206
vn -0.0278232 -0.0654864 -0.997465
v -2.22641 4.27916 1.52468
vn -0.363281 0.928403 -0.0780626
v -2.23362 4.2755 1.51751
vn -0.362659 0.917373 -0.164028
v -2.20276 4.29455 1.67816
vn 0.791014 0.610426 -0.0409533
v -2.20606 4.28614 1.53184
vn 0.0582103 0.996115 -0.0660728
v -2.52292 4.12082 1.53597
vn 0.363334 -0.931353 0.0238765
v -2.19377 4.26618 1.81965
vn 0.464911 -0.884009 0.0488536
v -2.20391 4.30299 1.82451
vn 0.0583614 0.997065 -0.0495415
v -2.34701 4.23256 1.53523
vn -0.365376 0.929303 -0.0538185
v -2.5523 4.14791 1.52701
vn -0.630066 -0.206607 -0.748552
v -2.53717 4.13176 1.82991
vn 0.261421 -0.96366 0.0549338
v -2.54101 4.13158 1.83685
vn -0.0582354 -0.996114 0.0660735
v -2.21714 4.2582 1.84233
vn 0.364914 -0.91665 0.163064
v -2.51345 4.14222 1.85118
vn 0.362789 -0.917483 0.163124
v -2.21508 4.29866 1.84355
vn 0.123865 0.284813 0.950547
v -2.21725 4.28262 1.84631
vn 0.0278233 0.0654865 0.997465
v -2.53506 4.17519 1.84202
vn -0.366422 0.930141 -0.0239211
v -2.52756 4.1781 1.84922
vn -0.363214 0.929683 0.0613623
v -2.55715 4.15583 1.68875
vn -0.995949 -0.0890599 0.0124404
v -2.55446 4.16578 1.83498
vn -0.721665 0.691745 -0.0262356
v -2.53921 4.1157 1.551
vn 0.261407 -0.963816 0.0522027
v -2.20975 4.26026 1.83473
vn 0.367109 -0.926923 0.0777494
v -2.20694 4.30078 1.84
vn 0.574377 0.348283 0.740804
v -2.34485 4.2495 1.82936
vn -0.365332 0.929647 -0.0478456
v -2.55661 4.14893 1.54232
vn -0.721793 0.690787 -0.0427662
v -2.2015 4.24706 1.5315
vn 0.399207 -0.915751 0.0451014
v -2.20436 4.24574 1.52168
vn 0.403778 -0.913973 -0.0402083
v -2.19638 4.24946 1.52647
vn 0.487986 -0.87264 -0.019228
v -2.52609 4.12016 1.5261
vn 0.33319 -0.902497 -0.272917
v -2.51669 4.12494 1.52307
vn 0.0334791 -0.172863 -0.984377
v -2.36789 4.18194 1.52055
vn 0.342584 -0.896605 -0.280599
v -2.53973 4.15485 1.5242
vn -0.356923 0.857611 -0.370284
v -2.34876 4.22966 1.51766
vn -0.347406 0.858754 -0.37663
v -2.52947 4.15747 1.52129
vn -0.0804516 0.11749 -0.98981
v -2.21581 4.28346 1.52951
vn -0.330989 0.941942 -0.0564939
v -2.21024 4.28471 1.52455
vn -0.234263 0.964774 -0.119713
v -2.21843 4.28155 1.51972
vn -0.323275 0.935685 -0.141378
v -2.197 4.28191 1.67885
vn 0.930838 0.364371 -0.0278132
v -2.19153 4.25421 1.53341
vn 0.946411 0.31976 -0.045388
v -2.20371 4.28521 1.53171
vn 0.909774 0.412039 -0.0503404
v -2.53345 4.11712 1.54142
vn 0.330925 -0.942479 0.0471411
v -2.53909 4.11531 1.53671
vn 0.2333 -0.972335 -0.0116078
v -2.53097 4.11789 1.53143
vn 0.321968 -0.945997 -0.0377659
v -2.19932 4.2642 1.82927
vn 0.399282 -0.91521 0.0544537
v -2.2096 4.25932 1.82032
vn 0.367068 -0.928773 0.0513985
v -2.19954 4.25586 1.68036
vn 0.398421 -0.915849 0.0498049
v -2.20473 4.30255 1.83447
vn 0.655994 0.692923 0.299214
v -2.19868 4.28977 1.83595
vn 0.869948 0.360365 0.336643
v -2.20156 4.30208 1.82471
vn 0.910067 0.414326 -0.0106003
v -2.34582 4.24116 1.68228
vn -0.365356 0.929479 -0.0508328
v -2.22415 4.29632 1.8183
vn -0.363187 0.930359 -0.0502785
v -2.2262 4.28024 1.53907
vn -0.363197 0.930287 -0.0515162
v -2.55533 4.14822 1.53242
vn -0.940369 0.0305405 -0.338783
v -2.55295 4.15056 1.53479
vn -0.488943 0.865082 -0.112104
v -2.5501 4.15061 1.52716
vn -0.513288 0.800131 -0.310365
v -2.53126 4.13426 1.83919
vn 0.331 -0.941938 0.0564953
v -2.52864 4.13617 1.84898
vn 0.32328 -0.935684 0.141368
v -2.53684 4.13301 1.84415
vn 0.23425 -0.964777 0.119718
v -2.20734 4.26287 1.8445
vn 0.358581 -0.857397 0.369175
v -2.2176 4.26025 1.84741
vn 0.0563009 -0.0555413 0.996868
v -2.36547 4.20091 1.85005
vn 0.347408 -0.858762 0.376611
v -2.22098 4.29756 1.8426
vn -0.331192 0.903723 0.271286
v -2.34634 4.24863 1.84716
vn -0.342584 0.896605 0.280599
v -2.23038 4.29278 1.84563
vn -0.0495781 0.213794 0.97562
v -2.54557 4.17066 1.8372
vn -0.399216 0.915747 -0.0451021
v -2.55069 4.16826 1.84222
vn -0.487987 0.872639 0.0192232
v -2.54272 4.17198 1.84702
vn -0.403772 0.913975 0.0402176
v -2.55276 4.14264 1.68948
vn -0.930839 -0.364371 0.0278133
v -2.54336 4.13251 1.83698
vn -0.912608 -0.405755 0.0500911
v -2.55554 4.16351 1.83529
vn -0.948611 -0.313237 0.0449373
v -2.52293 4.1214 1.5504
vn 0.363642 -0.930181 0.0502666
v -2.53315 4.12527 1.69033
vn 0.331816 -0.941921 0.051795
v -2.19412 4.26716 1.83391
vn 0.488943 -0.865082 0.112104
v -2.20202 4.26402 1.83922
vn 0.405091 -0.903661 0.138921
v -2.20798 4.30241 1.83198
vn -0.2333 0.972335 0.0116078
v -2.21038 4.30124 1.83967
vn -0.178716 0.960326 0.21409
v -2.53747 4.1584 1.54837
vn -0.366772 0.92889 -0.0514061
v -2.53542 4.17447 1.8276
vn -0.366763 0.92896 -0.0501745
v -2.55104 4.13467 1.53238
vn -0.869948 -0.360365 -0.336643
v -2.5577 4.14664 1.54229
vn -0.948901 -0.315531 0.00519679
v -2.19403 4.25151 1.52382
vn 0.930442 0.0395203 -0.364301
v -2.19934 4.24853 1.51894
vn 0.509357 -0.8309 -0.223968
v -2.20975 4.24399 1.51664
vn 0.353865 -0.894404 -0.273535
v -2.22004 4.24106 1.51421
vn 0.0417507 -0.169624 -0.984624
v -2.37611 4.20263 1.51672
vn -0.00733047 -0.057478 -0.99832
v -2.23283 4.27359 1.51243
vn -0.0640302 0.100452 -0.992879
v -2.22339 4.27868 1.51475
vn -0.335881 0.866884 -0.36837
v -2.21275 4.28267 1.51708
vn -0.18263 0.929561 -0.320255
v -2.20703 4.28457 1.52201
vn 0.650956 0.653453 -0.386336
v -2.20098 4.27169 1.52192
vn 0.864621 0.318619 -0.388475
v -2.53669 4.11648 1.52902
vn 0.178716 -0.960326 -0.21409
v -2.21166 4.24325 1.5411
vn 0.367059 -0.928844 0.0501642
v -2.18938 4.27108 1.8264
vn 0.946702 0.322063 -0.00546525
v -2.21392 4.29245 1.67836
vn -0.331811 0.941923 -0.0517953
v -2.54505 4.1537 1.52948
vn -0.405091 0.903661 -0.138921
v -2.54004 4.13316 1.84668
vn -0.722419 -0.568747 0.393239
v -2.53432 4.13505 1.85162
vn 0.182633 -0.929565 0.320241
v -2.52369 4.13904 1.85395
vn 0.337908 -0.865491 0.369787
v -2.51424 4.14413 1.85627
vn 0.0480292 -0.0587791 0.997115
v -2.37365 4.22191 1.8516
vn 0.00733056 0.057478 0.99832
v -2.52703 4.17666 1.85449
vn -0.0660573 0.230381 0.970856
v -2.53732 4.17373 1.85205
vn -0.35219 0.894744 0.274583
v -2.54774 4.16919 1.84975
vn -0.509351 0.830904 0.223966
v -2.55304 4.16621 1.84487
vn -0.935337 0.0700245 0.346759
v -2.54873 4.15275 1.84641
vn -0.864624 -0.318617 0.388469
v -2.52088 4.13748 1.82962
vn 0.363652 -0.93011 0.051501
v -2.19697 4.26711 1.84154
vn 0.513288 -0.800131 0.310365
v -2.2161 4.29983 1.83726
vn -0.321968 0.945997 0.0377659
v -2.54753 4.16186 1.68833
vn -0.398427 0.915847 -0.049805
v -2.54551 4.11564 1.54399
vn -0.912902 -0.408053 0.0101682
v -2.54234 4.11517 1.53423
vn -0.727622 -0.609503 -0.314758
v -2.36623 4.19027 1.68536
vn 0.365356 -0.929479 0.0508328
v -2.19174 4.2695 1.83627
vn 0.93564 0.0802935 0.343702
v -2.21363 4.3006 1.82728
vn -0.330925 0.942479 -0.0471423
v -2.54775 4.15352 1.53943
vn -0.399282 0.91521 -0.0544537
f 1//1 2//2 3//3
f 1//1 3//3 4//4
f 1//1 4//4 5//5
f 1//1 5//5 6//6
f 1//1 6//6 2//2
f 7//7 8//8 9//9
f 10//10 11//11 12//12
f 13//13 14//14 15//15
f 16//16 17//17 18//18
f 19//19 20//20 21//21
f 22//22 23//23 24//24
f 22//22 24//24 25//25
f 22//22 25//25 26//26
f 22//22 26//26 27//27
f 22//22 27//27 23//23
f 28//28 29//29 30//30
f 31//31 32//32 33//33
f 34//34 35//35 36//36
f 37//37 38//38 39//39
f 40//40 41//41 42//42
f 13//13 43//43 44//44
f 10//10 45//45 46//46
f 7//7 47//47 48//48
f 19//19 49//49 50//50
f 16//16 51//51 52//52
f 10//10 53//53 45//45
f 13//13 54//54 43//43
f 16//16 55//55 51//51
f 19//19 56//56 49//49
f 7//7 57//57 47//47
f 40//40 58//58 59//59
f 28//28 60//60 61//61
f 31//31 62//62 63//63
f 34//34 64//64 65//65
f 37//37 66//66 67//67
f 40//40 68//68 58//58
f 28//28 69//69 60//60
f 31//31 70//70 62//62
f 34//34 71//71 64//64
f 37//37 72//72 66//66
f 10//10 46//46 11//11
f 7//7 48//48 8//8
f 19//19 50//50 20//20
f 16//16 52//52 17//17
f 13//13 44//44 14//14
f 40//40 42//42 68//68
f 28//28 30//30 69//69
f 31//31 33//33 70//70
f 34//34 36//36 71//71
f 37//37 39//39 72//72
f 28//28 61//61 29//29
f 31//31 63//63 32//32
f 34//34 65//65 35//35
f 37//37 67//67 38//38
f 40//40 59//59 41//41
f 10//10 12//12 53//53
f 13//13 15//15 54//54
f 16//16 18//18 55//55
f 19//19 21//21 56//56
f 7//7 9//9 57//57
f 73//73 74//74 75//75
f 76//76 77//77 78//78
f 79//79 80//80 81//81
f 82//82 83//83 84//84
f 85//85 86//86 87//87
f 88//88 89//89 90//90
f 91//91 92//92 93//93
f 94//94 95//95 96//96
f 97//97 98//98 99//99
f 100//100 101//101 102//102
f 103//103 104//104 105//105
f 106//106 107//107 108//108
f 109//109 110//110 111//111
f 112//112 113//113 114//114
f 115//115 116//116 117//117
f 88//88 118//118 119//119
f 91//91 120//120 121//121
f 94//94 122//122 123//123
f 97//97 124//124 125//125
f 100//100 126//126 127//127
f 128//128 129//129 2//2
f 130//130 131//131 3//3
f 132//132 133//133 4//4
f 134//134 135//135 5//5
f 136//136 137//137 6//6
f 76//76 138//138 8//8
f 73//73 139//139 11//11
f 85//85 140//140 14//14
f 82//82 141//141 17//17
f 79//79 142//142 20//20
f 143//143 144//144 23//23
f 145//145 146//146 24//24
f 147//147 148//148 25//25
f 149//149 150//150 26//26
f 151//151 152//152 27//27
f 103//103 153//153 29//29
f 106//106 154//154 32//32
f 109//109 155//155 35//35
f 112//112 156//156 38//38
f 115//115 157//157 41//41
f 73//73 75//75 43//43
f 76//76 78//78 45//45
f 79//79 81//81 47//47
f 82//82 84//84 49//49
f 85//85 87//87 51//51
f 88//88 90//90 53//53
f 91//91 93//93 54//54
f 94//94 96//96 55//55
f 97//97 99//99 56//56
f 100//100 102//102 57//57
f 103//103 105//105 58//58
f 106//106 108//108 60//60
f 109//109 111//111 62//62
f 112//112 114//114 64//64
f 115//115 117//117 66//66
f 88//88 119//119 68//68
f 91//91 121//121 69//69
f 94//94 123//123 70//70
f 97//97 125//125 71//71
f 100//100 127//127 72//72
f 130//130 74//74 46//46
f 132//132 77//77 48//48
f 134//134 80//80 50//50
f 136//136 83//83 52//52
f 128//128 86//86 44//44
f 158//158 89//89 42//42
f 159//159 92//92 30//30
f 160//160 95//95 33//33
f 161//161 98//98 36//36
f 162//162 101//101 39//39
f 145//145 104//104 61//61
f 147//147 107//107 63//63
f 149//149 110//110 65//65
f 151//151 113//113 67//67
f 143//143 116//116 59//59
f 159//159 118//118 12//12
f 160//160 120//120 15//15
f 161//161 122//122 18//18
f 162//162 124//124 21//21
f 158//158 126//126 9//9
f 130//130 129//129 74//74
f 132//132 131//131 77//77
f 134//134 133//133 80//80
f 136//136 135//135 83//83
f 128//128 137//137 86//86
f 158//158 138//138 89//89
f 159//159 139//139 92//92
f 160//160 140//140 95//95
f 161//161 141//141 98//98
f 162//162 142//142 101//101
f 145//145 144//144 104//104
f 147//147 146//146 107//107
f 149//149 148//148 110//110
f 151//151 150//150 113//113
f 143//143 152//152 116//116
f 159//159 153//153 118//118
f 160//160 154//154 120//120
f 161//161 155//155 122//122
f 162//162 156//156 124//124
f 158//158 157//157 126//126
f 130//130 3//3 129//129
f 132//132 4//4 131//131
f 134//134 5//5 133//133
f 136//136 6//6 135//135
f 128//128 2//2 137//137
f 158//158 9//9 138//138
f 159//159 12//12 139//139
f 160//160 15//15 140//140
f 161//161 18//18 141//141
f 162//162 21//21 142//142
f 145//145 24//24 144//144
f 147//147 25//25 146//146
f 149//149 26//26 148//148
f 151//151 27//27 150//150
f 143//143 23//23 152//152
f 159//159 30//30 153//153
f 160//160 33//33 154//154
f 161//161 36//36 155//155
f 162//162 39//39 156//156
f 158//158 42//42 157//157
f 128//128 44//44 75//75
f 130//130 46//46 78//78
f 132//132 48//48 81//81
f 134//134 50//50 84//84
f 136//136 52//52 87//87
f 76//76 45//45 90//90
f 73//73 43//43 93//93
f 85//85 51//51 96//96
f 82//82 49//49 99//99
f 79//79 47//47 102//102
f 143//143 59//59 105//105
f 145//145 61//61 108//108
f 147//147 63//63 111//111
f 149//149 65//65 114//114
f 151//151 67//67 117//117
f 103//103 58//58 119//119
f 106//106 60//60 121//121
f 109//109 62//62 123//123
f 112//112 64//64 125//125
f 115//115 66//66 127//127
f 73//73 11//11 74//74
f 76//76 8//8 77//77
f 79//79 20//20 80//80
f 82//82 17//17 83//83
f 85//85 14//14 86//86
f 88//88 68//68 89//89
f 91//91 69//69 92//92
f 94//94 70//70 95//95
f 97//97 71//71 98//98
f 100//100 72//72 101//101
f 103//103 29//29 104//104
f 106//106 32//32 107//107
f 109//109 35//35 110//110
f 112//112 38//38 113//113
f 115//115 41//41 116//116
f 88//88 53//53 118//118
f 91//91 54//54 120//120
f 94//94 55//55 122//122
f 97//97 56//56 124//124
f 100//100 57//57 126//126
f 128//128 75//75 129//129
f 130//130 78//78 131//131
f 132//132 81//81 133//133
f 134//134 84//84 135//135
f 136//136 87//87 137//137
f 76//76 90//90 138//138
f 73//73 93//93 139//139
f 85//85 96//96 140//140
f 82//82 99//99 141//141
f 79//79 102//102 142//142
f 143//143 105//105 144//144
f 145//145 108//108 146//146
f 147//147 111//111 148//148
f 149//149 114//114 150//150
f 151//151 117//117 152//152
f 103//103 119//119 153//153
f 106//106 121//121 154//154
f 109//109 123//123 155//155
f 112//112 125//125 156//156
f 115//115 127//127 157//157
f 129//129 3//3 2//2
f 131//131 4//4 3//3
f 133//133 5//5 4//4
f 135//135 6//6 5//5
f 137//137 2//2 6//6
f 138//138 9//9 8//8
f 139//139 12//12 11//11
f 140//140 15//15 14//14
f 141//141 18//18 17//17
f 142//142 21//21 20//20
f 144//144 24//24 23//23
f 146//146 25//25 24//24
f 148//148 26//26 25//25
f 150//150 27//27 26//26
f 152//152 23//23 27//27
f 153//153 30//30 29//29
f 154//154 33//33 32//32
f 155//155 36//36 35//35
f 156//156 39//39 38//38
f 157//157 42//42 41//41
f 75//75 44//44 43//43
f 78//78 46//46 45//45
f 81//81 48//48 47//47
f 84//84 50//50 49//49
f 87//87 52//52 51//51
f 90//90 45//45 53//53
f 93//93 43//43 54//54
f 96//96 51//51 55//55
f 99//99 49//49 56//56
f 102//102 47//47 57//57
f 105//105 59//59 58//58
f 108//108 61//61 60//60
f 111//111 63//63 62//62
f 114//114 65//65 64//64
f 117//117 67//67 66//66
f 119//119 58//58 68//68
f 121//121 60//60 69//69
f 123//123 62//62 70//70
f 125//125 64//64 71//71
f 127//127 66//66 72//72
f 74//74 11//11 46//46
f 77//77 8//8 48//48
f 80//80 20//20 50//50
f 83//83 17//17 52//52
f 86//86 14//14 44//44
f 89//89 68//68 42//42
f 92//92 69//69 30//30
f 95//95 70//70 33//33
f 98//98 71//71 36//36
f 101//101 72//72 39//39
f 104//104 29//29 61//61
f 107//107 32//32 63//63
f 110//110 35//35 65//65
f 113//113 38//38 67//67
f 116//116 41//41 59//59
f 118//118 53//53 12//12
f 120//120 54//54 15//15
f 122//122 55//55 18//18
f 124//124 56//56 21//21
f 126//126 57//57 9//9
f 129//129 75//75 74//74
f 131//131 78//78 77//77
f 133//133 81//81 80//80
f 135//135 84//84 83//83
f 137//137 87//87 86//86
f 138//138 90//90 89//89
f 139//139 93//93 92//92
f 140//140 96//96 95//95
f 141//141 99//99 98//98
f 142//142 102//102 101//101
f 144//144 105//105 104//104
f 146//146 108//108 107//107
f 148//148 111//111 110//110
f 150//150 114//114 113//113
f 152//152 117//117 116//116
f 153//153 119//119 118//118
f 154//154 121//121 120//120
f 155//155 123//123 122//122
f 156//156 125//125 124//124
f 157//157 127//127 126//126
