# Created by Open3D 
# object name: part_000
# number of vertices: 162
# number of triangles: 320
v 7.68462 -5.24844 -0.00128939
vn -0.639289 -0.768963 -0.00244662
v 7.79439 -5.32125 0.0189178
vn -0.37567 -0.674189 0.635878
v 7.6246 -5.18626 0.0196117
vn -0.426636 -0.456531 0.780744
v 7.47526 -5.04998 -0.00117905
vn -0.73259 -0.680665 -0.00249451
v 7.62467 -5.18621 -0.0153457
vn -0.329177 -0.353249 -0.875704
v 7.79446 -5.32119 -0.0143968
vn -0.346724 -0.628606 -0.696158
v 1.56008 1.46172 -0.00306185
vn -0.823985 -0.566607 -0.00249323
v 1.61653 1.39629 0.0178724
vn -0.493692 -0.383064 0.780724
v 1.49757 1.57767 0.0170953
vn -0.70576 -0.312527 0.635791
v 4.6808 -1.84001 0.0211461
vn -0.0053499 -0.00461882 0.999975
v 7.55734 -4.9463 0.022076
vn -0.00388359 -0.00337738 0.999987
v 4.75593 -1.77143 0.0216435
vn -0.00219205 -0.00173657 0.999996
v 9.08028 -4.27784 0.0251613
vn 0.00514105 -0.00933606 0.999943
v 9.12002 -4.32139 0.0239848
vn 0.126491 -0.142222 0.981719
v 10.1903 -3.27374 0.0285431
vn 0.010955 -0.0143811 0.999837
v 9.08035 -4.27779 -0.0123473
vn 0.00909081 -0.00625665 -0.999939
v 7.96567 -5.17246 -0.0164541
vn 0.00480058 -0.0017558 -0.999987
v 10.0728 -3.24921 -0.00933101
vn 0.00499939 -0.00157396 -0.999986
v 5.31345 -2.533 -0.018029
vn -0.00139842 -0.00154059 -0.999998
v 1.92764 1.10954 -0.018738
vn -0.00620595 -0.00587196 -0.999964
v 1.84944 1.30752 -0.0189896
vn -1.04385e-05 -0.000193604 -1
v 4.04948 3.73386 0.00535344
vn 0.639289 0.768962 0.00244809
v 3.93963 3.80661 0.0253506
vn 0.37315 0.672225 0.639432
v 4.10941 3.67162 0.0262995
vn 0.423547 0.454124 0.783824
v 4.25883 3.5354 0.00567971
vn 0.73259 0.680665 0.00249451
v 4.10948 3.67167 -0.00865795
vn 0.332632 0.355941 -0.873305
v 3.93969 3.80666 -0.00796401
vn 0.349468 0.630741 -0.692848
v 7.05321 0.325358 0.029166
vn 0.00139737 0.00153962 0.999998
v 4.17666 3.43165 0.0282911
vn -6.78965e-05 0.000299173 1
v 6.97807 0.25678 0.0291553
vn -0.0017593 -0.00134158 0.999998
v 10.174 -2.9763 0.00712623
vn 0.823985 0.566606 0.00249309
v 10.1175 -2.91094 0.0280388
vn 0.490598 0.380654 0.783847
v 10.2364 -3.09231 0.0271732
vn 0.703249 0.310569 0.639521
v 7.68586 -0.367639 -0.0100092
vn 0.00534947 0.00461842 -0.999975
v 9.80652 -2.62407 -0.00891799
vn 0.0102832 0.00905452 -0.999906
v 9.88472 -2.82205 -0.00947005
vn 0.00400792 0.00327125 -0.999987
v 2.65381 2.76325 -0.0142076
vn -0.00514049 0.00933544 -0.999943
v 3.76849 3.65793 -0.011156
vn -0.000849062 0.00483375 -0.999988
v 1.66134 1.73468 -0.0182789
vn -0.00104808 0.004652 -0.999989
v 2.65373 2.7632 0.0233012
vn -0.0090909 0.00625674 0.999939
v 2.61399 2.80674 0.0221018
vn -0.13037 0.1392 0.981645
v 1.5437 1.75909 0.019206
vn -0.014905 0.0113027 0.999825
v 7.9656 -5.17252 0.0221098
vn 0.000849283 -0.004834 0.999988
v 7.97926 -5.29182 0.0210688
vn 0.00963644 -0.0155854 0.999832
v 1.92756 1.10948 0.0198718
vn -0.0102151 -0.00899799 0.999907
v 7.3673 -4.8504 0.0214461
vn -0.0101546 -0.0090656 0.999907
v 1.6166 1.39635 -0.017085
vn -0.381529 -0.295893 -0.875718
v 1.73865 1.23516 -0.00283964
vn -0.744551 -0.667561 -0.00249698
v 7.55742 -4.94624 -0.0173374
vn 6.48868e-05 -0.000327678 -1
v 7.36738 -4.85034 -0.0171632
vn -0.00626558 -0.00605001 -0.999962
v 9.12009 -4.32133 -0.0111481
vn 0.092159 -0.0973009 -0.990979
v 7.97933 -5.29177 -0.0157264
vn 0.0135857 -0.0125062 -0.999829
v 1.84937 1.30746 0.0204238
vn -0.00398 -0.00327148 0.999987
v 10.0727 -3.24927 0.0292328
vn 0.00104826 -0.0046522 0.999989
v 10.1904 -3.27368 -0.00825223
vn 0.0149046 -0.0113022 -0.999825
v 5.3964 -2.473 -0.0180162
vn 0.00175921 0.0013415 -0.999998
v 1.49763 1.57773 -0.0162194
vn -0.657386 -0.288239 -0.696248
v 3.76841 3.65787 0.0274079
vn -0.0048004 0.0017556 0.999987
v 3.75475 3.77718 0.0266802
vn -0.0135863 0.0125069 0.999829
v 9.80645 -2.62413 0.0296919
vn 0.00626406 0.00592018 0.999963
v 4.36671 3.33575 0.0281171
vn 0.00620283 0.00598707 0.999963
v 10.1176 -2.91088 -0.00691866
vn 0.384982 0.298583 -0.873291
v 9.99545 -2.74974 0.0073402
vn 0.744551 0.667561 0.00247887
v 4.17674 3.43171 -0.0111223
vn 0.00388219 0.0033593 -0.999987
v 4.36678 3.33581 -0.0104925
vn 0.0101006 0.00901149 -0.999908
v 2.61406 2.8068 -0.0130311
vn -0.0882442 0.100352 -0.991031
v 3.75483 3.77723 -0.010115
vn -0.00963624 0.0155853 -0.999832
v 1.66126 1.73462 0.0202847
vn -0.00499914 0.00157369 0.999986
v 9.88464 -2.82211 0.0299433
vn 2.79576e-05 0.000192751 1
v 10.2365 -3.09226 -0.00614165
vn 0.660125 0.290376 -0.69276
v 7.61855 -0.444788 -0.0105043
vn 0.00219213 0.00173663 -0.999996
v 1.54378 1.75915 -0.0175893
vn -0.0109547 0.0143807 -0.999837
v 7.78916 -5.12231 0.0221371
vn -0.0013389 -0.00291756 0.999995
v 7.66556 -5.13691 0.0215563
vn -0.00732388 -0.00877907 0.999935
v 7.85155 -5.264 0.0214264
vn -0.00310786 -0.00996528 0.999946
v 1.72475 1.29375 0.0191105
vn -0.0268662 -0.0236313 0.99936
v 1.88538 1.0772 0.0179324
vn -0.460514 -0.418601 0.782752
v 4.62231 -1.89339 0.0200238
vn -0.027171 -0.0245357 0.99933
v 1.72482 1.29381 -0.0182108
vn -0.0229617 -0.0206886 -0.999522
v 5.22524 -2.55383 -0.0173107
vn -0.0232225 -0.0214598 -0.9995
v 1.88545 1.07725 -0.0170648
vn -0.333864 -0.303816 -0.892318
v 7.78924 -5.12225 -0.0170241
vn 0.00261283 0.000159948 -0.999997
v 7.85162 -5.26394 -0.0165033
vn 0.000843328 -0.00688713 -0.999976
v 7.66563 -5.13685 -0.0169765
vn -0.00337146 -0.00569974 -0.999978
v 9.13271 -4.33521 0.00274858
vn 0.674141 -0.738602 0.000201798
v 8.00954 -5.32752 0.0193523
vn 0.41161 -0.501562 0.760929
v 8.0096 -5.32747 -0.0140003
vn 0.381056 -0.458207 -0.803021
v 1.6952 1.55435 0.020373
vn -0.00329098 -0.000778994 0.999994
v 1.55978 1.62938 0.0196054
vn -0.0104688 -0.00189928 0.999943
v 1.6694 1.43259 0.0198204
vn -0.00967116 -0.00620453 0.999934
v 10.0388 -3.069 0.0297418
vn -0.00066055 -0.00229901 0.999997
v 9.77901 -2.92505 0.0297693
vn -0.00188218 -0.00155174 0.999997
v 8.92931 -4.11245 0.0260423
vn -0.00102378 -0.00258196 0.999996
v 10.2445 -3.18288 -0.00739156
vn 0.123277 -0.00418363 -0.992363
v 10.2665 -3.1951 0.00680227
vn 0.998072 -0.062037 0.0018542
v 10.2232 -3.30709 -0.00651751
vn 0.424562 -0.418495 -0.802875
v 6.50997 -1.46162 -0.014337
vn 0.0019757 0.00153909 -0.999997
v 9.77909 -2.92499 -0.0100303
vn 0.00208234 0.00151233 -0.999997
v 7.66954 -4.85043 -0.0171616
vn 0.00199262 0.00143044 -0.999997
v 1.48962 1.66834 -0.0172222
vn -0.119356 0.00723887 -0.992825
v 1.55986 1.62944 -0.0183243
vn -0.00651837 0.00117905 -0.999978
v 1.55184 1.52324 -0.0179
vn -0.0234425 -0.0116477 -0.999657
v 3.94484 3.60766 0.0279779
vn -0.0026128 -0.000160095 0.999997
v 4.06845 3.62226 0.0279304
vn 0.00337158 0.00569982 0.999978
v 3.88246 3.74935 0.0274571
vn -0.000843757 0.00688692 0.999976
v 10.0093 -2.8084 0.0291646
vn 0.0229173 0.020555 0.999526
v 9.84863 -2.59184 0.0280186
vn 0.457412 0.416185 0.785852
v 7.1117 0.378741 0.0284391
vn 0.023224 0.0214612 0.9995
v 10.0093 -2.80834 -0.00815681
vn 0.0268019 0.0234402 -0.999366
v 7.71462 -0.281698 -0.00889556
vn 0.0271717 0.0245363 -0.99933
v 9.8487 -2.59179 -0.00697868
vn 0.371627 0.337688 -0.864789
v 3.94492 3.60772 -0.0111833
vn 0.00133887 0.00291773 -0.999995
v 3.88254 3.74941 -0.0104726
vn 0.00310831 0.0099655 -0.999946
v 4.06852 3.62232 -0.0106024
vn 0.00732352 0.008779 -0.999935
v 2.60139 2.82063 0.000858098
vn -0.674141 0.738602 -0.000197099
v 3.72448 3.81288 0.0249541
vn -0.414618 0.499222 0.760835
v 3.72455 3.81293 -0.00839852
vn -0.377879 0.460674 -0.80311
v 1.95499 1.4104 0.0209841
vn -0.00206921 -0.00152641 0.999997
v 2.8047 2.5978 0.0242695
vn -0.00292792 -0.000495808 0.999996
v 10.1742 -3.14402 0.0292781
vn 0.00651835 -0.00117865 0.999978
v 10.0646 -2.94724 0.029666
vn 0.00572063 0.00312651 0.999979
v 10.1743 -3.14397 -0.00865157
vn 0.0104693 0.00189931 -0.999943
v 10.1823 -3.03777 -0.00786857
vn 0.0273919 0.0147248 -0.999516
v 1.95507 1.41046 -0.0188156
vn 0.00189072 0.00154254 -0.999997
v 4.06462 3.3359 -0.0116843
vn 0.00197998 0.001624 -0.999997
v 1.46757 1.68052 -0.0030777
vn -0.998072 0.0620371 -0.00186798
v 1.51098 1.79255 -0.0158813
vn -0.421386 0.420965 -0.803257
v 7.8839 -5.33748 0.0201963
vn -0.00873685 -0.172347 0.984998
v 7.74506 -5.26231 0.020615
vn -0.0174212 -0.0256495 0.999519
v 7.53233 -5.06915 0.0207913
vn -0.0262389 -0.024311 0.99936
v 7.33131 -4.88947 0.0195089
vn -0.459003 -0.420252 0.782755
v 4.60206 -1.91188 -0.00247302
vn -0.7386 -0.67414 -0.00249573
v 7.33138 -4.88941 -0.0154883
vn -0.366932 -0.336414 -0.867287
v 7.53241 -5.0691 -0.01653
vn -0.0220952 -0.0211894 -0.999531
v 7.74513 -5.26226 -0.0161073
vn -0.0134715 -0.0225727 -0.999654
v 7.88397 -5.33743 -0.0153712
vn -0.00339907 -0.119805 -0.992792
v 7.89409 -5.36049 -0.00121758
vn -0.0291098 -0.999575 -0.00159416
v 1.55176 1.52318 0.0188224
vn -0.0273921 -0.014725 0.999516
v 7.66946 -4.85049 0.022638
vn -0.00197159 -0.00163334 0.999997
v 10.2231 -3.30714 0.0268351
vn 0.459186 -0.458136 0.761091
v 8.92939 -4.11239 -0.0133157
vn 0.00292792 0.000495802 -0.999996
v 1.66948 1.43265 -0.0187124
vn -0.00572075 -0.00312679 -0.999979
v 3.85011 3.82284 0.026325
vn 0.00484311 0.169315 0.98555
v 3.98895 3.74767 0.0270612
vn 0.0134721 0.0225735 0.999654
v 4.20167 3.55451 0.0274837
vn 0.0222929 0.0212376 0.999526
v 4.4027 3.37482 0.0264421
vn 0.455906 0.41784 0.785849
v 7.13204 0.397303 0.00607953
vn 0.7386 0.67414 0.00248571
v 4.40277 3.37488 -0.00855514
vn 0.336246 0.307811 -0.890051
v 4.20175 3.55456 -0.00983765
vn 0.0263779 0.024345 -0.999356
v 3.98902 3.74772 -0.00966116
vn 0.0174206 0.0256489 -0.999519
v 3.85019 3.8229 -0.00924248
vn 0.00732177 0.122859 -0.992397
v 3.84001 3.84591 0.00494202
vn 0.0291098 0.999575 0.0015946
v 4.06454 3.33584 0.0281153
vn -0.00197977 -0.00144479 0.999997
v 10.1822 -3.03783 0.0288537
vn 0.0234415 0.0116472 0.999657
v 10.0647 -2.94718 -0.00886671
vn 0.00967122 0.00620444 -0.999934
v 2.80477 2.59786 -0.0150885
vn 0.00102366 0.00258209 -0.999996
v 1.51091 1.7925 0.0174713
vn -0.462194 0.455794 0.760676
v 1.48955 1.66829 0.0183453
vn -0.172686 0.00727836 0.98495
v 5.867 -0.757326 0.0254768
vn -0.00197568 -0.00153908 0.999997
v 10.2445 -3.18293 0.028176
vn 0.168792 -0.0103112 0.985598
v 10.0389 -3.06894 -0.00941929
vn 0.00329088 0.000779047 -0.999994
v 1.69528 1.55441 -0.018788
vn 0.000660488 0.00229919 -0.999997
f 1//1 2//2 3//3
f 1//1 3//3 4//4
f 1//1 4//4 5//5
f 1//1 5//5 6//6
f 1//1 6//6 2//2
f 7//7 8//8 9//9
f 10//10 11//11 12//12
f 13//13 14//14 15//15
f 16//16 17//17 18//18
f 19//19 20//20 21//21
f 22//22 23//23 24//24
f 22//22 24//24 25//25
f 22//22 25//25 26//26
f 22//22 26//26 27//27
f 22//22 27//27 23//23
f 28//28 29//29 30//30
f 31//31 32//32 33//33
f 34//34 35//35 36//36
f 37//37 38//38 39//39
f 40//40 41//41 42//42
f 13//13 43//43 44//44
f 10//10 45//45 46//46
f 7//7 47//47 48//48
f 19//19 49//49 50//50
f 16//16 51//51 52//52
f 10//10 53//53 45//45
f 13//13 54//54 43//43
f 16//16 55//55 51//51
f 19//19 56//56 49//49
f 7//7 57//57 47//47
f 40//40 58//58 59//59
f 28//28 60//60 61//61
f 31//31 62//62 63//63
f 34//34 64//64 65//65
f 37//37 66//66 67//67
f 40//40 68//68 58//58
f 28//28 69//69 60//60
f 31//31 70//70 62//62
f 34//34 71//71 64//64
f 37//37 72//72 66//66
f 10//10 46//46 11//11
f 7//7 48//48 8//8
f 19//19 50//50 20//20
f 16//16 52//52 17//17
f 13//13 44//44 14//14
f 40//40 42//42 68//68
f 28//28 30//30 69//69
f 31//31 33//33 70//70
f 34//34 36//36 71//71
f 37//37 39//39 72//72
f 28//28 61//61 29//29
f 31//31 63//63 32//32
f 34//34 65//65 35//35
f 37//37 67//67 38//38
f 40//40 59//59 41//41
f 10//10 12//12 53//53
f 13//13 15//15 54//54
f 16//16 18//18 55//55
f 19//19 21//21 56//56
f 7//7 9//9 57//57
f 73//73 74//74 75//75
f 76//76 77//77 78//78
f 79//79 80//80 81//81
f 82//82 83//83 84//84
f 85//85 86//86 87//87
f 88//88 89//89 90//90
f 91//91 92//92 93//93
f 94//94 95//95 96//96
f 97//97 98//98 99//99
f 100//100 101//101 102//102
f 103//103 104//104 105//105
f 106//106 107//107 108//108
f 109//109 110//110 111//111
f 112//112 113//113 114//114
f 115//115 116//116 117//117
f 88//88 118//118 119//119
f 91//91 120//120 121//121
f 94//94 122//122 123//123
f 97//97 124//124 125//125
f 100//100 126//126 127//127
f 128//128 129//129 2//2
f 130//130 131//131 3//3
f 132//132 133//133 4//4
f 134//134 135//135 5//5
f 136//136 137//137 6//6
f 76//76 138//138 8//8
f 73//73 139//139 11//11
f 85//85 140//140 14//14
f 82//82 141//141 17//17
f 79//79 142//142 20//20
f 143//143 144//144 23//23
f 145//145 146//146 24//24
f 147//147 148//148 25//25
f 149//149 150//150 26//26
f 151//151 152//152 27//27
f 103//103 153//153 29//29
f 106//106 154//154 32//32
f 109//109 155//155 35//35
f 112//112 156//156 38//38
f 115//115 157//157 41//41
f 73//73 75//75 43//43
f 76//76 78//78 45//45
f 79//79 81//81 47//47
f 82//82 84//84 49//49
f 85//85 87//87 51//51
f 88//88 90//90 53//53
f 91//91 93//93 54//54
f 94//94 96//96 55//55
f 97//97 99//99 56//56
f 100//100 102//102 57//57
f 103//103 105//105 58//58
f 106//106 108//108 60//60
f 109//109 111//111 62//62
f 112//112 114//114 64//64
f 115//115 117//117 66//66
f 88//88 119//119 68//68
f 91//91 121//121 69//69
f 94//94 123//123 70//70
f 97//97 125//125 71//71
f 100//100 127//127 72//72
f 130//130 74//74 46//46
f 132//132 77//77 48//48
f 134//134 80//80 50//50
f 136//136 83//83 52//52
f 128//128 86//86 44//44
f 158//158 89//89 42//42
f 159//159 92//92 30//30
f 160//160 95//95 33//33
f 161//161 98//98 36//36
f 162//162 101//101 39//39
f 145//145 104//104 61//61
f 147//147 107//107 63//63
f 149//149 110//110 65//65
f 151//151 113//113 67//67
f 143//143 116//116 59//59
f 159//159 118//118 12//12
f 160//160 120//120 15//15
f 161//161 122//122 18//18
f 162//162 124//124 21//21
f 158//158 126//126 9//9
f 130//130 129//129 74//74
f 132//132 131//131 77//77
f 134//134 133//133 80//80
f 136//136 135//135 83//83
f 128//128 137//137 86//86
f 158//158 138//138 89//89
f 159//159 139//139 92//92
f 160//160 140//140 95//95
f 161//161 141//141 98//98
f 162//162 142//142 101//101
f 145//145 144//144 104//104
f 147//147 146//146 107//107
f 149//149 148//148 110//110
f 151//151 150//150 113//113
f 143//143 152//152 116//116
f 159//159 153//153 118//118
f 160//160 154//154 120//120
f 161//161 155//155 122//122
f 162//162 156//156 124//124
f 158//158 157//157 126//126
f 130//130 3//3 129//129
f 132//132 4//4 131//131
f 134//134 5//5 133//133
f 136//136 6//6 135//135
f 128//128 2//2 137//137
f 158//158 9//9 138//138
f 159//159 12//12 139//139
f 160//160 15//15 140//140
f 161//161 18//18 141//141
f 162//162 21//21 142//142
f 145//145 24//24 144//144
f 147//147 25//25 146//146
f 149//149 26//26 148//148
f 151//151 27//27 150//150
f 143//143 23//23 152//152
f 159//159 30//30 153//153
f 160//160 33//33 154//154
f 161//161 36//36 155//155
f 162//162 39//39 156//156
f 158//158 42//42 157//157
f 128//128 44//44 75//75
f 130//130 46//46 78//78
f 132//132 48//48 81//81
f 134//134 50//50 84//84
f 136//136 52//52 87//87
f 76//76 45//45 90//90
f 73//73 43//43 93//93
f 85//85 51//51 96//96
f 82//82 49//49 99//99
f 79//79 47//47 102//102
f 143//143 59//59 105//105
f 145//145 61//61 108//108
f 147//147 63//63 111//111
f 149//149 65//65 114//114
f 151//151 67//67 117//117
f 103//103 58//58 119//119
f 106//106 60//60 121//121
f 109//109 62//62 123//123
f 112//112 64//64 125//125
f 115//115 66//66 127//127
f 73//73 11//11 74//74
f 76//76 8//8 77//77
f 79//79 20//20 80//80
f 82//82 17//17 83//83
f 85//85 14//14 86//86
f 88//88 68//68 89//89
f 91//91 69//69 92//92
f 94//94 70//70 95//95
f 97//97 71//71 98//98
f 100//100 72//72 101//101
f 103//103 29//29 104//104
f 106//106 32//32 107//107
f 109//109 35//35 110//110
f 112//112 38//38 113//113
f 115//115 41//41 116//116
f 88//88 53//53 118//118
f 91//91 54//54 120//120
f 94//94 55//55 122//122
f 97//97 56//56 124//124
f 100//100 57//57 126//126
f 128//128 75//75 129//129
f 130//130 78//78 131//131
f 132//132 81//81 133//133
f 134//134 84//84 135//135
f 136//136 87//87 137//137
f 76//76 90//90 138//138
f 73//73 93//93 139//139
f 85//85 96//96 140//140
f 82//82 99//99 141//141
f 79//79 102//102 142//142
f 143//143 105//105 144//144
f 145//145 108//108 146//146
f 147//147 111//111 148//148
f 149//149 114//114 150//150
f 151//151 117//117 152//152
f 103//103 119//119 153//153
f 106//106 121//121 154//154
f 109//109 123//123 155//155
f 112//112 125//125 156//156
f 115//115 127//127 157//157
f 129//129 3//3 2//2
f 131//131 4//4 3//3
f 133//133 5//5 4//4
f 135//135 6//6 5//5
f 137//137 2//2 6//6
f 138//138 9//9 8//8
f 139//139 12//12 11//11
f 140//140 15//15 14//14
f 141//141 18//18 17//17
f 142//142 21//21 20//20
f 144//144 24//24 23//23
f 146//146 25//25 24//24
f 148//148 26//26 25//25
f 150//150 27//27 26//26
f 152//152 23//23 27//27
f 153//153 30//30 29//29
f 154//154 33//33 32//32
f 155//155 36//36 35//35
f 156//156 39//39 38//38
f 157//157 42//42 41//41
f 75//75 44//44 43//43
f 78//78 46//46 45//45
f 81//81 48//48 47//47
f 84//84 50//50 49//49
f 87//87 52//52 51//51
f 90//90 45//45 53//53
f 93//93 43//43 54//54
f 96//96 51//51 55//55
f 99//99 49//49 56//56
f 102//102 47//47 57//57
f 105//105 59//59 58//58
f 108//108 61//61 60//60
f 111//111 63//63 62//62
f 114//114 65//65 64//64
f 117//117 67//67 66//66
f 119//119 58//58 68//68
f 121//121 60//60 69//69
f 123//123 62//62 70//70
f 125//125 64//64 71//71
f 127//127 66//66 72//72
f 74//74 11//11 46//46
f 77//77 8//8 48//48
f 80//80 20//20 50//50
f 83//83 17//17 52//52
f 86//86 14//14 44//44
f 89//89 68//68 42//42
f 92//92 69//69 30//30
f 95//95 70//70 33//33
f 98//98 71//71 36//36
f 101//101 72//72 39//39
f 104//104 29//29 61//61
f 107//107 32//32 63//63
f 110//110 35//35 65//65
f 113//113 38//38 67//67
f 116//116 41//41 59//59
f 118//118 53//53 12//12
f 120//120 54//54 15//15
f 122//122 55//55 18//18
f 124//124 56//56 21//21
f 126//126 57//57 9//9
f 129//129 75//75 74//74
f 131//131 78//78 77//77
f 133//133 81//81 80//80
f 135//135 84//84 83//83
f 137//137 87//87 86//86
f 138//138 90//90 89//89
f 139//139 93//93 92//92
f 140//140 96//96 95//95
f 141//141 99//99 98//98
f 142//142 102//102 101//101
f 144//144 105//105 104//104
f 146//146 108//108 107//107
f 148//148 111//111 110//110
f 150//150 114//114 113//113
f 152//152 117//117 116//116
f 153//153 119//119 118//118
f 154//154 121//121 120//120
f 155//155 123//123 122//122
f 156//156 125//125 124//124
f 157//157 127//127 126//126
