# Created by Open3D 
# object name: part_016
# number of vertices: 162
# number of triangles: 320
v 8.90477 -4.13449 -0.0306864
vn 0.558902 0.828995 -0.0198878
v 8.83745 -4.09875 -0.0113723
vn 0.353478 0.837164 0.417385
v 8.9427 -4.16628 -0.0090358
vn 0.48824 0.65318 0.578772
v 9.03618 -4.23635 -0.0281648
vn 0.662601 0.748754 -0.0180857
v 8.94268 -4.16711 -0.0439839
vn 0.415399 0.528111 -0.740636
v 8.83742 -4.09953 -0.044678
vn 0.339199 0.789131 -0.512071
v 12.7948 -7.63837 0.049003
vn 0.766664 0.641859 -0.0156313
v 12.7588 -7.60353 0.0691382
vn 0.585657 0.565442 0.580759
v 12.8369 -7.70119 0.0705587
vn 0.786243 0.447359 0.426253
v 10.8186 -5.9205 0.0331119
vn 0.00589762 0.0292807 0.999554
v 8.99385 -4.30107 -0.00367264
vn 0.00362223 0.0269419 0.99963
v 10.7785 -5.96496 0.0344295
vn 0.0010361 0.0238871 0.999714
v 8.14502 -4.78421 0.00733667
vn -0.0129004 0.0357659 0.999277
v 8.11977 -4.7615 0.0056319
vn -0.236416 0.235835 0.942597
v 7.55252 -5.4359 0.0227264
vn -0.0237677 0.0435054 0.99877
v 8.14499 -4.78509 -0.030162
vn -0.0143064 -0.0112599 -0.999834
v 8.74572 -4.19655 -0.0449565
vn -0.00614011 -0.0183109 -0.999813
v 7.62187 -5.44357 -0.0148318
vn -0.00644664 -0.0186509 -0.999805
v 10.4168 -5.55953 -0.0144663
vn 0.00449247 -0.0177518 -0.999832
v 12.5639 -7.45772 0.0290512
vn 0.0119089 -0.00962743 -0.999883
v 12.6193 -7.56756 0.0311938
vn 0.00236979 -0.020261 -0.999792
v 11.4671 -9.11162 0.0845923
vn -0.558903 -0.828994 0.0198917
v 11.5344 -9.14642 0.105471
vn -0.352862 -0.816597 0.45679
v 11.4292 -9.07884 0.104778
vn -0.487401 -0.625221 0.60954
v 11.3357 -9.00975 0.0825068
vn -0.662601 -0.748754 0.0180778
v 11.4292 -9.07966 0.0698295
vn -0.416426 -0.562345 -0.714393
v 11.5344 -9.1472 0.0721659
vn -0.339891 -0.812326 -0.473921
v 9.55328 -7.32452 0.0670291
vn -0.00449187 0.0177525 0.999832
v 11.378 -8.94395 0.103869
vn -0.00221698 0.0200916 0.999796
v 9.59336 -7.28005 0.0661983
vn 0.000369515 0.0231474 0.999732
v 7.57705 -5.60774 0.00490303
vn -0.766666 -0.641856 0.0156342
v 7.61312 -5.6416 0.0266035
vn -0.584815 -0.537485 0.607538
v 7.53497 -5.54398 0.0235404
vn -0.785635 -0.426798 0.447906
v 9.15147 -6.96355 0.0194509
vn -0.00589765 -0.0292808 -0.999554
v 7.80791 -5.78913 -0.00685688
vn -0.0135081 -0.0375936 -0.999202
v 7.75256 -5.67932 -0.00980319
vn -0.0038541 -0.0267788 -0.999634
v 12.2269 -8.46174 0.053457
vn 0.0129022 -0.0357673 -0.999277
v 11.6261 -9.05031 0.067197
vn 0.00473468 -0.0287223 -0.999576
v 12.75 -7.80328 0.0370724
vn 0.00504189 -0.0283827 -0.999584
v 12.2269 -8.46086 0.0909556
vn 0.0143075 0.011259 0.999834
v 12.2521 -8.48362 0.0902849
vn 0.237751 -0.191261 0.95231
v 12.8194 -7.80919 0.0748526
vn 0.0251767 0.00350205 0.999677
v 8.74575 -4.19564 -0.00640346
vn -0.00473518 0.0287226 0.999576
v 8.73179 -4.12738 -0.00888371
vn -0.0217367 0.0457579 0.998716
v 12.564 -7.45681 0.0676503
vn 0.0133994 0.0374839 0.999207
v 9.10886 -4.34472 -0.00312865
vn 0.0132829 0.0375895 0.999205
v 12.7587 -7.60435 0.0341901
vn 0.498707 0.453091 -0.738918
v 12.6798 -7.51829 0.0464774
vn 0.676062 0.73663 -0.01782
v 8.99382 -4.302 -0.0430752
vn 0.00221505 -0.0200444 -0.999797
v 9.10884 -4.34562 -0.0417279
vn 0.0119776 -0.00931451 -0.999885
v 8.11975 -4.76232 -0.0294914
vn -0.170145 0.129741 -0.976841
v 8.73176 -4.12824 -0.045669
vn -0.0231419 -0.00125265 -0.999731
v 12.6193 -7.56663 0.0705968
vn 0.00380824 0.0267772 0.999634
v 7.6219 -5.44267 0.0237213
vn -0.00504177 0.0283827 0.999584
v 7.55249 -5.43676 -0.014059
vn -0.0251732 -0.00350497 -0.999677
v 10.3718 -5.59953 -0.013737
vn -0.000369669 -0.0231475 -0.999732
v 12.8369 -7.70197 0.037253
vn 0.760989 0.409216 -0.503426
v 11.6261 -9.0494 0.10575
vn 0.00613981 0.018311 0.999813
v 11.6401 -9.1177 0.106463
vn 0.0231413 0.00125306 0.999731
v 7.80794 -5.78822 0.0317424
vn -0.0119953 0.00954076 0.999883
v 11.263 -8.90032 0.102522
vn -0.011878 0.00943594 0.999885
v 7.61309 -5.64242 -0.00834434
vn -0.499726 -0.487312 -0.716101
v 7.69203 -5.72781 0.00786503
vn -0.676061 -0.73663 0.0178189
v 11.378 -8.94487 0.0644662
vn -0.00362454 -0.0269124 -0.999631
v 11.263 -8.90123 0.0639225
vn -0.0132012 -0.0374898 -0.99921
v 12.2521 -8.48445 0.055162
vn 0.168771 -0.17553 -0.9699
v 11.6401 -9.11857 0.0696772
vn 0.0217368 -0.045758 -0.998716
v 12.75 -7.80237 0.0756257
vn 0.00644613 0.0186512 0.999805
v 7.75258 -5.67839 0.0295996
vn -0.00240159 0.0202579 0.999792
v 7.53495 -5.54476 -0.00976526
vn -0.761679 -0.432408 -0.482565
v 9.18658 -6.91461 0.0180317
vn -0.00103617 -0.023887 -0.999714
v 12.8193 -7.81005 0.0380675
vn 0.0237689 -0.0435066 -0.99877
v 8.85056 -4.21365 -0.00575471
vn -0.000641895 0.0257778 0.999667
v 8.92146 -4.19742 -0.00650041
vn 0.00849853 0.0366787 0.999291
v 8.80722 -4.13546 -0.00817914
vn 0.00107536 0.0380763 0.999274
v 12.6908 -7.55087 0.0691297
vn 0.0391005 0.0648899 0.997126
v 12.5868 -7.4355 0.0653263
vn 0.538538 0.608929 0.582393
v 10.8498 -5.88591 0.0313515
vn 0.0394585 0.0664825 0.997007
v 12.6908 -7.55175 0.0318184
vn 0.0377595 0.0181778 -0.999122
v 10.4669 -5.5419 -0.0139911
vn 0.03806 0.0195322 -0.999085
v 12.5867 -7.43632 0.0303386
vn 0.438271 0.467248 -0.767852
v 8.85053 -4.21457 -0.044905
vn -0.00204725 -0.0212566 -0.999772
v 8.80719 -4.13636 -0.0460985
vn -0.000329646 -0.00895341 -0.99996
v 8.92144 -4.19833 -0.0450226
vn 0.00709351 -0.0103495 -0.999921
v 8.11172 -4.75476 -0.0157667
vn -0.742939 0.669186 -0.0152208
v 8.71243 -4.10863 -0.0110328
vn -0.587463 0.596863 0.546481
v 8.7124 -4.10942 -0.0443765
vn -0.560887 0.541832 -0.625959
v 12.7212 -7.70003 0.0735367
vn 0.00309115 0.0224153 0.999744
v 12.8035 -7.73501 0.0736862
vn 0.0151526 0.0254004 0.999563
v 12.73 -7.62785 0.0715185
vn 0.012989 0.0326331 0.999383
v 7.65071 -5.545 0.0264071
vn -0.00168625 0.0246193 0.999695
v 7.80859 -5.61209 0.0281938
vn 0.000540617 0.0235249 0.999723
v 8.2409 -4.87055 0.0102253
vn -0.00111818 0.0251573 0.999683
v 7.52571 -5.49278 -0.0121083
vn -0.206147 -0.0312626 -0.978021
v 7.51234 -5.48676 0.00193245
vn -0.999684 -0.0250976 0.00129146
v 7.53179 -5.41942 -0.0127302
vn -0.612061 0.485047 -0.624588
v 9.77759 -6.25565 0.00203735
vn -0.000702778 -0.0235171 -0.999723
v 7.80856 -5.61303 -0.0115949
vn -0.00088999 -0.0234873 -0.999724
v 8.93369 -4.36458 -0.0417539
vn -0.000751897 -0.0233341 -0.999727
v 12.8461 -7.75401 0.037344
vn 0.204769 -0.0147689 -0.978699
v 12.8035 -7.7359 0.0357668
vn 0.0137449 -0.0216324 -0.999672
v 12.8027 -7.67384 0.0349112
vn 0.0402612 0.00281402 -0.999185
v 11.5213 -9.03138 0.105699
vn 0.0020476 0.0212562 0.999772
v 11.4504 -9.04762 0.105816
vn -0.00709442 0.0103477 0.999921
v 11.5647 -9.10959 0.106892
vn 0.000327986 0.00895066 0.99996
v 7.68105 -5.69419 0.0289752
vn -0.0377068 -0.0179411 0.999128
v 7.78513 -5.80963 0.030455
vn -0.537699 -0.580852 0.611139
v 9.52209 -7.35915 0.066941
vn -0.0380591 -0.0195313 0.999085
v 7.68102 -5.69507 -0.00833585
vn -0.0390354 -0.0645647 -0.99715
v 9.13916 -7.01514 0.0215981
vn -0.0394579 -0.0664818 -0.997007
v 7.7851 -5.81045 -0.00453248
vn -0.470241 -0.535998 -0.701127
v 11.5213 -9.0323 0.0665484
vn 0.000642021 -0.0257787 -0.999667
v 11.5646 -9.11048 0.0689731
vn -0.0010774 -0.0380763 -0.999274
v 11.4504 -9.04853 0.0672944
vn -0.00849677 -0.0366773 -0.999291
v 12.2601 -8.49136 0.0692151
vn 0.742939 -0.669186 0.01522
v 11.6595 -9.13653 0.10517
vn 0.588252 -0.570529 0.573112
v 11.6594 -9.13731 0.0718263
vn 0.560019 -0.570681 -0.600585
v 12.5633 -7.63292 0.0723887
vn 0.00086498 0.0235094 0.999723
v 12.131 -8.37447 0.0899155
vn 0.00252352 0.0218771 0.999757
v 7.56842 -5.51005 0.0250268
vn -0.0137458 0.0216307 0.999672
v 7.64193 -5.6172 0.0277973
vn -0.0115855 0.0143941 0.999829
v 7.56839 -5.51094 -0.0128923
vn -0.015152 -0.0253997 -0.999563
v 7.56912 -5.57297 -0.0108297
vn -0.0416645 -0.0497922 -0.99789
v 12.5633 -7.63385 0.0325998
vn -0.000556892 -0.0235104 -0.999723
v 11.4381 -8.8823 0.0627587
vn -0.000694387 -0.0236629 -0.99972
v 12.8595 -7.75936 0.0516335
vn 0.999684 0.0250937 -0.00129152
v 12.8401 -7.82731 0.0401804
vn 0.611199 -0.513898 -0.60195
v 8.78474 -4.09494 -0.0102982
vn -0.0188391 0.307391 0.951397
v 8.86903 -4.12976 -0.0089606
vn 0.0226138 0.066953 0.9975
v 9.00212 -4.22833 -0.00643595
vn 0.0379174 0.0659715 0.997101
v 9.12774 -4.31986 -0.00553359
vn 0.536341 0.610905 0.582352
v 10.8606 -5.87443 0.00863936
vn 0.669359 0.742722 -0.0179553
v 9.12772 -4.32068 -0.0405212
vn 0.467226 0.504217 -0.726268
v 9.00209 -4.22921 -0.043747
vn 0.0361868 0.0189017 -0.999166
v 8.869 -4.13063 -0.045673
vn 0.0212097 0.0199727 -0.999576
v 8.78472 -4.09577 -0.045856
vn -0.0138299 0.182137 -0.983176
v 8.77768 -4.08273 -0.0319849
vn -0.0788997 0.996608 -0.0233852
v 12.8027 -7.67297 0.0716233
vn 0.0416676 0.0497926 0.99789
v 8.93372 -4.36365 -0.00196525
vn 0.00067834 0.0236777 0.999719
v 7.53182 -5.41864 0.0206132
vn -0.641382 0.537038 0.547923
v 8.24087 -4.87148 -0.0291219
vn -0.00252329 -0.0218773 -0.999757
v 12.7299 -7.62875 0.0329961
vn 0.0115861 -0.0143941 -0.999829
v 11.5871 -9.15017 0.106649
vn 0.0201826 -0.262317 0.964771
v 11.5029 -9.11532 0.106466
vn -0.0212086 -0.0199733 0.999576
v 11.3698 -9.01674 0.104541
vn -0.0365111 -0.0190092 0.999152
v 11.2441 -8.92527 0.101315
vn -0.535503 -0.582829 0.611185
v 9.51125 -7.37169 0.0448092
vn -0.669359 -0.742722 0.0179504
v 11.2441 -8.92609 0.0663269
vn -0.437486 -0.504494 -0.744373
v 11.3697 -9.01762 0.0672293
vn -0.0381362 -0.0660362 -0.997088
v 11.5028 -9.11619 0.0697543
vn -0.0226092 -0.0669463 -0.9975
v 11.5871 -9.15101 0.0710919
vn 0.0124535 -0.228165 -0.973543
v 11.5942 -9.16339 0.0855512
vn 0.0789005 -0.996608 0.0233904
v 11.4382 -8.88137 0.102548
vn 0.000727217 0.0233566 0.999727
v 7.56915 -5.57211 0.0258825
vn -0.0402608 -0.00281367 0.999185
v 7.6419 -5.6181 -0.0107249
vn -0.0129917 -0.0326348 -0.999383
v 12.131 -8.37539 0.0505683
vn 0.00111853 -0.0251575 -0.999683
v 12.8401 -7.82652 0.0735238
vn 0.642165 -0.510697 0.571676
v 12.8462 -7.75317 0.0729017
vn 0.286092 0.0327321 0.957643
v 10.1859 -6.6225 0.0503913
vn 0.000702767 0.0235172 0.999723
v 7.52573 -5.49194 0.0234496
vn -0.284741 0.0123431 0.958525
v 7.65069 -5.54592 -0.0127433
vn -0.00309123 -0.0224151 -0.999744
v 12.7212 -7.70095 0.0343867
vn 0.00168617 -0.0246197 -0.999695
f 1//1 2//2 3//3
f 1//1 3//3 4//4
f 1//1 4//4 5//5
f 1//1 5//5 6//6
f 1//1 6//6 2//2
f 7//7 8//8 9//9
f 10//10 11//11 12//12
f 13//13 14//14 15//15
f 16//16 17//17 18//18
f 19//19 20//20 21//21
f 22//22 23//23 24//24
f 22//22 24//24 25//25
f 22//22 25//25 26//26
f 22//22 26//26 27//27
f 22//22 27//27 23//23
f 28//28 29//29 30//30
f 31//31 32//32 33//33
f 34//34 35//35 36//36
f 37//37 38//38 39//39
f 40//40 41//41 42//42
f 13//13 43//43 44//44
f 10//10 45//45 46//46
f 7//7 47//47 48//48
f 19//19 49//49 50//50
f 16//16 51//51 52//52
f 10//10 53//53 45//45
f 13//13 54//54 43//43
f 16//16 55//55 51//51
f 19//19 56//56 49//49
f 7//7 57//57 47//47
f 40//40 58//58 59//59
f 28//28 60//60 61//61
f 31//31 62//62 63//63
f 34//34 64//64 65//65
f 37//37 66//66 67//67
f 40//40 68//68 58//58
f 28//28 69//69 60//60
f 31//31 70//70 62//62
f 34//34 71//71 64//64
f 37//37 72//72 66//66
f 10//10 46//46 11//11
f 7//7 48//48 8//8
f 19//19 50//50 20//20
f 16//16 52//52 17//17
f 13//13 44//44 14//14
f 40//40 42//42 68//68
f 28//28 30//30 69//69
f 31//31 33//33 70//70
f 34//34 36//36 71//71
f 37//37 39//39 72//72
f 28//28 61//61 29//29
f 31//31 63//63 32//32
f 34//34 65//65 35//35
f 37//37 67//67 38//38
f 40//40 59//59 41//41
f 10//10 12//12 53//53
f 13//13 15//15 54//54
f 16//16 18//18 55//55
f 19//19 21//21 56//56
f 7//7 9//9 57//57
f 73//73 74//74 75//75
f 76//76 77//77 78//78
f 79//79 80//80 81//81
f 82//82 83//83 84//84
f 85//85 86//86 87//87
f 88//88 89//89 90//90
f 91//91 92//92 93//93
f 94//94 95//95 96//96
f 97//97 98//98 99//99
f 100//100 101//101 102//102
f 103//103 104//104 105//105
f 106//106 107//107 108//108
f 109//109 110//110 111//111
f 112//112 113//113 114//114
f 115//115 116//116 117//117
f 88//88 118//118 119//119
f 91//91 120//120 121//121
f 94//94 122//122 123//123
f 97//97 124//124 125//125
f 100//100 126//126 127//127
f 128//128 129//129 2//2
f 130//130 131//131 3//3
f 132//132 133//133 4//4
f 134//134 135//135 5//5
f 136//136 137//137 6//6
f 76//76 138//138 8//8
f 73//73 139//139 11//11
f 85//85 140//140 14//14
f 82//82 141//141 17//17
f 79//79 142//142 20//20
f 143//143 144//144 23//23
f 145//145 146//146 24//24
f 147//147 148//148 25//25
f 149//149 150//150 26//26
f 151//151 152//152 27//27
f 103//103 153//153 29//29
f 106//106 154//154 32//32
f 109//109 155//155 35//35
f 112//112 156//156 38//38
f 115//115 157//157 41//41
f 73//73 75//75 43//43
f 76//76 78//78 45//45
f 79//79 81//81 47//47
f 82//82 84//84 49//49
f 85//85 87//87 51//51
f 88//88 90//90 53//53
f 91//91 93//93 54//54
f 94//94 96//96 55//55
f 97//97 99//99 56//56
f 100//100 102//102 57//57
f 103//103 105//105 58//58
f 106//106 108//108 60//60
f 109//109 111//111 62//62
f 112//112 114//114 64//64
f 115//115 117//117 66//66
f 88//88 119//119 68//68
f 91//91 121//121 69//69
f 94//94 123//123 70//70
f 97//97 125//125 71//71
f 100//100 127//127 72//72
f 130//130 74//74 46//46
f 132//132 77//77 48//48
f 134//134 80//80 50//50
f 136//136 83//83 52//52
f 128//128 86//86 44//44
f 158//158 89//89 42//42
f 159//159 92//92 30//30
f 160//160 95//95 33//33
f 161//161 98//98 36//36
f 162//162 101//101 39//39
f 145//145 104//104 61//61
f 147//147 107//107 63//63
f 149//149 110//110 65//65
f 151//151 113//113 67//67
f 143//143 116//116 59//59
f 159//159 118//118 12//12
f 160//160 120//120 15//15
f 161//161 122//122 18//18
f 162//162 124//124 21//21
f 158//158 126//126 9//9
f 130//130 129//129 74//74
f 132//132 131//131 77//77
f 134//134 133//133 80//80
f 136//136 135//135 83//83
f 128//128 137//137 86//86
f 158//158 138//138 89//89
f 159//159 139//139 92//92
f 160//160 140//140 95//95
f 161//161 141//141 98//98
f 162//162 142//142 101//101
f 145//145 144//144 104//104
f 147//147 146//146 107//107
f 149//149 148//148 110//110
f 151//151 150//150 113//113
f 143//143 152//152 116//116
f 159//159 153//153 118//118
f 160//160 154//154 120//120
f 161//161 155//155 122//122
f 162//162 156//156 124//124
f 158//158 157//157 126//126
f 130//130 3//3 129//129
f 132//132 4//4 131//131
f 134//134 5//5 133//133
f 136//136 6//6 135//135
f 128//128 2//2 137//137
f 158//158 9//9 138//138
f 159//159 12//12 139//139
f 160//160 15//15 140//140
f 161//161 18//18 141//141
f 162//162 21//21 142//142
f 145//145 24//24 144//144
f 147//147 25//25 146//146
f 149//149 26//26 148//148
f 151//151 27//27 150//150
f 143//143 23//23 152//152
f 159//159 30//30 153//153
f 160//160 33//33 154//154
f 161//161 36//36 155//155
f 162//162 39//39 156//156
f 158//158 42//42 157//157
f 128//128 44//44 75//75
f 130//130 46//46 78//78
f 132//132 48//48 81//81
f 134//134 50//50 84//84
f 136//136 52//52 87//87
f 76//76 45//45 90//90
f 73//73 43//43 93//93
f 85//85 51//51 96//96
f 82//82 49//49 99//99
f 79//79 47//47 102//102
f 143//143 59//59 105//105
f 145//145 61//61 108//108
f 147//147 63//63 111//111
f 149//149 65//65 114//114
f 151//151 67//67 117//117
f 103//103 58//58 119//119
f 106//106 60//60 121//121
f 109//109 62//62 123//123
f 112//112 64//64 125//125
f 115//115 66//66 127//127
f 73//73 11//11 74//74
f 76//76 8//8 77//77
f 79//79 20//20 80//80
f 82//82 17//17 83//83
f 85//85 14//14 86//86
f 88//88 68//68 89//89
f 91//91 69//69 92//92
f 94//94 70//70 95//95
f 97//97 71//71 98//98
f 100//100 72//72 101//101
f 103//103 29//29 104//104
f 106//106 32//32 107//107
f 109//109 35//35 110//110
f 112//112 38//38 113//113
f 115//115 41//41 116//116
f 88//88 53//53 118//118
f 91//91 54//54 120//120
f 94//94 55//55 122//122
f 97//97 56//56 124//124
f 100//100 57//57 126//126
f 128//128 75//75 129//129
f 130//130 78//78 131//131
f 132//132 81//81 133//133
f 134//134 84//84 135//135
f 136//136 87//87 137//137
f 76//76 90//90 138//138
f 73//73 93//93 139//139
f 85//85 96//96 140//140
f 82//82 99//99 141//141
f 79//79 102//102 142//142
f 143//143 105//105 144//144
f 145//145 108//108 146//146
f 147//147 111//111 148//148
f 149//149 114//114 150//150
f 151//151 117//117 152//152
f 103//103 119//119 153//153
f 106//106 121//121 154//154
f 109//109 123//123 155//155
f 112//112 125//125 156//156
f 115//115 127//127 157//157
f 129//129 3//3 2//2
f 131//131 4//4 3//3
f 133//133 5//5 4//4
f 135//135 6//6 5//5
f 137//137 2//2 6//6
f 138//138 9//9 8//8
f 139//139 12//12 11//11
f 140//140 15//15 14//14
f 141//141 18//18 17//17
f 142//142 21//21 20//20
f 144//144 24//24 23//23
f 146//146 25//25 24//24
f 148//148 26//26 25//25
f 150//150 27//27 26//26
f 152//152 23//23 27//27
f 153//153 30//30 29//29
f 154//154 33//33 32//32
f 155//155 36//36 35//35
f 156//156 39//39 38//38
f 157//157 42//42 41//41
f 75//75 44//44 43//43
f 78//78 46//46 45//45
f 81//81 48//48 47//47
f 84//84 50//50 49//49
f 87//87 52//52 51//51
f 90//90 45//45 53//53
f 93//93 43//43 54//54
f 96//96 51//51 55//55
f 99//99 49//49 56//56
f 102//102 47//47 57//57
f 105//105 59//59 58//58
f 108//108 61//61 60//60
f 111//111 63//63 62//62
f 114//114 65//65 64//64
f 117//117 67//67 66//66
f 119//119 58//58 68//68
f 121//121 60//60 69//69
f 123//123 62//62 70//70
f 125//125 64//64 71//71
f 127//127 66//66 72//72
f 74//74 11//11 46//46
f 77//77 8//8 48//48
f 80//80 20//20 50//50
f 83//83 17//17 52//52
f 86//86 14//14 44//44
f 89//89 68//68 42//42
f 92//92 69//69 30//30
f 95//95 70//70 33//33
f 98//98 71//71 36//36
f 101//101 72//72 39//39
f 104//104 29//29 61//61
f 107//107 32//32 63//63
f 110//110 35//35 65//65
f 113//113 38//38 67//67
f 116//116 41//41 59//59
f 118//118 53//53 12//12
f 120//120 54//54 15//15
f 122//122 55//55 18//18
f 124//124 56//56 21//21
f 126//126 57//57 9//9
f 129//129 75//75 74//74
f 131//131 78//78 77//77
f 133//133 81//81 80//80
f 135//135 84//84 83//83
f 137//137 87//87 86//86
f 138//138 90//90 89//89
f 139//139 93//93 92//92
f 140//140 96//96 95//95
f 141//141 99//99 98//98
f 142//142 102//102 101//101
f 144//144 105//105 104//104
f 146//146 108//108 107//107
f 148//148 111//111 110//110
f 150//150 114//114 113//113
f 152//152 117//117 116//116
f 153//153 119//119 118//118
f 154//154 121//121 120//120
f 155//155 123//123 122//122
f 156//156 125//125 124//124
f 157//157 127//127 126//126
