# Created by Open3D 
# object name: part_006
# number of vertices: 162
# number of triangles: 320
v 7.55415 0.868391 0.0468256
vn 0.823637 0.567072 0.00716186
v 7.42927 1.02185 0.0675036
vn 0.537699 0.489106 0.686772
v 7.6199 0.754192 0.0672153
vn 0.493754 0.306878 0.813654
v 7.78589 0.495368 0.0453642
vn 0.87263 0.488334 0.00679481
v 7.62004 0.754435 0.0322585
vn 0.385073 0.246229 -0.889432
v 7.4294 1.02208 0.0341896
vn 0.502109 0.463108 -0.730355
v 14.2396 -11.2584 -0.0110873
vn 0.919219 0.393696 0.00634941
v 14.1782 -11.1419 0.0104041
vn 0.526361 0.247739 0.813369
v 14.3028 -11.446 0.0079619
vn 0.703396 0.188557 0.685332
v 10.8207 -5.23706 0.0404043
vn -0.000265369 -0.00492185 0.999988
v 7.67605 0.397739 0.0671919
vn -0.00181948 -0.00572493 0.999982
v 10.7231 -5.29091 0.0398922
vn -0.00367825 -0.00680328 0.99997
v 5.77108 0.275198 0.0579366
vn -0.00725527 -0.000868033 0.999973
v 5.7277 0.353897 0.0571246
vn -0.0648572 0.103728 0.992489
v 4.32894 -0.508164 0.0465073
vn -0.0103911 0.00313371 0.999941
v 5.77123 0.275458 0.0204292
vn 0.000568583 0.012997 -0.999915
v 7.20761 0.909525 0.029917
vn 0.00264617 0.00948335 -0.999952
v 4.46824 -0.600583 0.00873057
vn 0.00243076 0.00936498 -0.999953
v 10.1304 -3.98428 0.00702856
vn 0.00755995 0.00894303 -0.999931
v 13.8332 -10.5983 -0.0239615
vn 0.0127423 0.0117683 -0.99985
v 13.9069 -10.9039 -0.0261936
vn 0.00603638 0.00805888 -0.999949
v 11.0033 -13.0424 -0.0361173
vn -0.823637 -0.567072 -0.00714528
v 11.128 -13.1961 -0.0165914
vn -0.54304 -0.49856 0.675681
v 10.9374 -12.9285 -0.0146608
vn -0.500094 -0.318105 0.805429
v 10.7715 -12.6694 -0.0342192
vn -0.87263 -0.488334 -0.0067921
v 10.9375 -12.9283 -0.0496173
vn -0.378079 -0.233846 -0.895752
v 11.1281 -13.1959 -0.0499061
vn -0.496342 -0.452902 -0.740624
v 7.73652 -6.93727 0.0165507
vn -0.00756014 -0.00894316 0.999931
v 10.8812 -12.5721 -0.0101816
vn -0.00600475 -0.00813939 0.999949
v 7.83419 -6.88343 0.0175495
vn -0.00414632 -0.0070613 0.999966
v 4.31784 -0.915659 0.0217957
vn -0.919219 -0.393695 -0.00633004
v 4.37906 -1.03236 0.0421504
vn -0.532687 -0.258959 0.80572
v 4.2545 -0.728272 0.0429497
vn -0.708727 -0.198 0.677128
v 7.04617 -5.68449 -0.0168251
vn 0.000264138 0.00492118 -0.999988
v 4.72432 -1.57551 0.00295081
vn -0.00505225 0.00202735 -0.999985
v 4.65063 -1.26987 0.00437957
vn 0.00175236 0.00580951 -0.999982
v 12.7863 -12.4493 -0.0403388
vn 0.00725532 0.00086794 -0.999973
v 11.3499 -13.0833 -0.0508817
vn 0.00517882 0.00438069 -0.999977
v 14.0893 -11.5732 -0.0296954
vn 0.00539371 0.00449926 -0.999975
v 12.7862 -12.4495 -0.00283145
vn -0.000568697 -0.0129966 0.999915
v 12.8296 -12.5282 -0.00439513
vn 0.0570948 -0.117481 0.991433
v 14.2283 -11.6662 0.00788465
vn 0.00256619 -0.0169964 0.999852
v 7.20746 0.909258 0.0684795
vn -0.00517868 -0.00438066 0.999977
v 7.20339 1.07641 0.0687383
vn -0.00896447 0.00391976 0.999952
v 13.8331 -10.5986 0.0146472
vn 0.00497877 -0.00206471 0.999985
v 7.89516 0.172266 0.0660841
vn 0.00495192 -0.00201156 0.999986
v 14.1784 -11.1417 -0.0245529
vn 0.410172 0.200685 -0.889654
v 14.0479 -10.8633 -0.00887985
vn 0.878792 0.477157 0.00676502
v 7.67621 0.398012 0.0277795
vn 0.00601496 0.00815932 -0.999949
v 7.89531 0.172534 0.0274754
vn 0.0128441 0.0118929 -0.999847
v 5.72784 0.354141 0.0219929
vn -0.0387006 0.0841731 -0.995699
v 7.20353 1.07666 0.0319438
vn -0.0011405 0.0177832 -0.999841
v 13.9068 -10.9042 0.0132181
vn -0.00177508 -0.00580777 0.999982
v 4.46809 -0.60085 0.0472933
vn -0.00539382 -0.00449915 0.999975
v 4.32908 -0.507909 0.00971303
vn -0.00256681 0.0169971 -0.999852
v 10.0242 -4.02263 0.00610374
vn 0.0041464 0.00706134 -0.999966
v 14.3029 -11.4458 -0.0253519
vn 0.65669 0.182716 -0.731692
v 11.3498 -13.0836 -0.0123192
vn -0.00264601 -0.00948375 0.999952
v 11.3539 -13.2507 -0.0143458
vn 0.00114 -0.0177826 0.999841
v 4.72417 -1.57577 0.0415596
vn -0.0128037 -0.0117996 0.999848
v 10.6621 -12.3466 -0.0098776
vn -0.0127745 -0.0118514 0.999848
v 4.37919 -1.03212 0.0071939
vn -0.403194 -0.188312 -0.895529
v 4.50955 -1.31075 0.020025
vn -0.878792 -0.477157 -0.00675229
v 10.8814 -12.5718 -0.0495942
vn 0.00182643 0.00573808 -0.999982
v 10.6623 -12.3463 -0.0484863
vn -0.00489406 0.0020461 -0.999986
v 12.8297 -12.528 -0.0395268
vn 0.046495 -0.0703633 -0.996437
v 11.354 -13.2505 -0.0511403
vn 0.00896487 -0.00392052 -0.999952
v 14.0892 -11.5735 0.0088671
vn -0.00243041 -0.00936552 0.999953
v 4.65048 -1.27014 0.0437918
vn -0.00605029 -0.00805723 0.999949
v 4.25463 -0.728041 0.00963589
vn -0.650934 -0.17252 -0.739271
v 7.1353 -5.61515 -0.0162389
vn 0.0036784 0.00680336 -0.99997
v 14.2285 -11.6659 -0.0289094
vn 0.0103915 -0.00313409 -0.999941
v 7.4149 0.752043 0.0685
vn -0.00400455 -0.00589784 0.999975
v 7.5654 0.708756 0.0684746
vn 0.00258939 -0.00204266 0.999995
v 7.35443 0.97405 0.0691868
vn -0.000436805 -0.000925809 0.999999
v 14.0584 -10.9492 0.0124536
vn 0.0228221 0.00746097 0.999712
v 13.8873 -10.5767 0.0132044
vn 0.509541 0.27615 0.814929
v 10.8968 -5.19514 0.0400676
vn 0.0233429 0.00809477 0.999695
v 14.0586 -10.9489 -0.0248663
vn 0.0307086 0.0214069 -0.999299
v 10.2389 -4.00122 0.00826014
vn 0.0311585 0.0219497 -0.999273
v 13.8874 -10.5764 -0.0217921
vn 0.372565 0.209067 -0.90415
v 7.41506 0.752315 0.0293403
vn 0.00382036 0.00796625 -0.999961
v 7.35457 0.974313 0.0312581
vn 0.00738696 0.012937 -0.999889
v 7.56555 0.709023 0.0299431
vn 0.0104108 0.0118194 -0.999876
v 5.71398 0.379083 0.0360047
vn -0.482787 0.875728 0.00418248
v 7.17061 1.13976 0.0673276
vn -0.209293 0.437161 0.874692
v 7.17074 1.13999 0.033976
vn -0.181162 0.403497 -0.896867
v 14.067 -11.3142 0.0108767
vn -0.00308683 -0.00756214 0.999967
v 14.2224 -11.4838 0.00969289
vn 0.00302057 -0.00720033 0.99997
v 14.1107 -11.1638 0.0117762
vn 0.00369051 -0.00404637 0.999985
v 4.49029 -0.860181 0.0458811
vn -0.00473756 -0.0063024 0.999969
v 4.78847 -1.18568 0.0451105
vn -0.0039836 -0.00691736 0.999968
v 5.93587 -0.0237231 0.0574339
vn -0.00435977 -0.00612053 0.999972
v 4.25438 -0.602281 0.00938007
vn -0.0920975 0.0185872 -0.995577
v 4.22905 -0.574792 0.0236414
vn -0.990831 0.135076 -0.00293333
v 4.29302 -0.446382 0.0117197
vn -0.233824 0.374468 -0.897274
v 8.57702 -4.81396 -0.00512136
vn 0.0039123 0.0069323 -0.999968
v 4.78863 -1.18541 0.0053118
vn 0.00383478 0.00695822 -0.999968
v 7.53112 0.326419 0.0265223
vn 0.00393175 0.00701168 -0.999968
v 14.3032 -11.5715 -0.0273485
vn 0.0998909 -0.00478851 -0.994987
v 14.2226 -11.4835 -0.0282358
vn 0.0108479 0.00666408 -0.999919
v 14.2432 -11.345 -0.0265907
vn 0.0283473 0.0148602 -0.999488
v 11.1424 -12.9264 -0.0117423
vn -0.00382034 -0.00796633 0.999961
v 10.9919 -12.8831 -0.012345
vn -0.0104123 -0.0118206 0.999876
v 11.2028 -13.1484 -0.0136607
vn -0.00738762 -0.0129383 0.999889
v 4.49885 -1.22513 0.0424643
vn -0.0306403 -0.0213176 0.999303
v 4.66999 -1.59764 0.0393895
vn -0.515884 -0.287393 0.807012
v 7.66049 -6.97918 0.0150382
vn -0.0311618 -0.0219515 0.999273
v 4.499 -1.22487 0.00514417
vn -0.0227082 -0.00732502 -0.999715
v 7.00257 -5.78526 -0.0167694
vn -0.0233398 -0.00809304 -0.999695
v 4.67013 -1.5974 0.00439337
vn -0.404835 -0.218223 -0.887968
v 11.1425 -12.9261 -0.0509025
vn 0.00400468 0.00589797 -0.999975
v 11.203 -13.1481 -0.0515894
vn 0.000436446 0.000924912 -0.999999
v 10.992 -12.8828 -0.0508767
vn -0.00259162 0.00204162 -0.999995
v 12.8435 -12.5531 -0.0257543
vn 0.482787 -0.875728 -0.00417568
v 11.3867 -13.3141 -0.016378
vn 0.202466 -0.449256 0.870159
v 11.3868 -13.3138 -0.0497296
vn 0.188196 -0.391035 -0.90093
v 13.7688 -10.9887 0.012286
vn -0.00384098 -0.00694721 0.999968
v 12.6214 -12.1506 -0.00047913
vn -0.00346491 -0.00774377 0.999964
v 4.33485 -0.690522 0.0458335
vn -0.0108475 -0.00666438 0.999919
v 4.44655 -1.01054 0.0443534
vn -0.0115178 -0.00981973 0.999885
v 4.335 -0.69026 0.00790481
vn -0.00302072 0.00720014 -0.99997
v 4.31431 -0.82878 0.00746705
vn -0.0205262 -0.00100102 -0.999789
v 13.7689 -10.9884 -0.0275127
vn 0.00397957 0.00692455 -0.999968
v 11.0265 -12.5002 -0.0487232
vn 0.00388305 0.00687134 -0.999969
v 14.3284 -11.5992 -0.0132723
vn 0.990831 -0.135076 0.00294708
v 14.2645 -11.7274 -0.0274733
vn 0.240858 -0.362006 -0.900522
v 7.32307 1.0892 0.068681
vn 0.0539085 0.11658 0.991717
v 7.4826 0.9176 0.0686931
vn 0.0158405 0.00949873 0.999829
v 7.71895 0.549982 0.0673688
vn 0.0225239 0.00798965 0.999714
v 7.9426 0.20642 0.0647001
vn 0.508808 0.27748 0.814935
v 10.9233 -5.18044 0.0178442
vn 0.875729 0.482755 0.0067789
v 7.94273 0.206662 0.029704
vn 0.411144 0.231595 -0.88166
v 7.71909 0.55024 0.0300485
vn 0.0301747 0.0218272 -0.999306
v 7.48275 0.917855 0.0319718
vn 0.0236617 0.0233579 -0.999447
v 7.3232 1.08944 0.0331146
vn 0.0452569 0.0943061 -0.994514
v 7.31331 1.12544 0.0474952
vn 0.414733 0.909909 0.00793251
v 14.2431 -11.3453 0.0101306
vn 0.0205247 0.00100047 0.999789
v 7.53096 0.326143 0.066321
vn -0.0038869 -0.00686404 0.999969
v 4.29288 -0.446613 0.0450713
vn -0.268285 0.40464 0.874237
v 5.93602 -0.0234504 0.0180771
vn 0.00346497 0.00774371 -0.999964
v 14.1109 -11.1635 -0.0267554
vn 0.0115173 0.00982013 -0.999885
v 11.2342 -13.2635 -0.0155171
vn -0.0616596 -0.130314 0.989554
v 11.0747 -13.0919 -0.014374
vn -0.023661 -0.0233577 0.999447
v 10.8383 -12.7243 -0.0124509
vn -0.0303449 -0.0218479 0.999301
v 10.6147 -12.3807 -0.012106
vn -0.515154 -0.288724 0.807004
v 7.63418 -6.99357 -0.00759355
vn -0.875729 -0.482755 -0.00677295
v 10.6148 -12.3805 -0.0471025
vn -0.364929 -0.197485 -0.90985
v 10.8385 -12.724 -0.0497708
vn -0.0226432 -0.00800402 -0.999712
v 11.0748 -13.0917 -0.0510953
vn -0.0158408 -0.00949835 -0.999829
v 11.2343 -13.2633 -0.0510831
vn -0.0374667 -0.080505 -0.99605
v 11.2441 -13.2995 -0.037127
vn -0.414734 -0.909908 -0.0079402
v 11.0263 -12.5005 -0.00892454
vn -0.00393772 -0.00700053 0.999968
v 4.31417 -0.829035 0.0441884
vn -0.0283497 -0.0148612 0.999488
v 4.4467 -1.01028 0.00582171
vn -0.00369049 0.00404618 -0.999985
v 12.6215 -12.1503 -0.0398359
vn 0.00435983 0.00612046 -0.999972
v 14.2644 -11.7277 0.00587828
vn 0.261456 -0.416734 0.870616
v 14.303 -11.5718 0.00821798
vn 0.131356 -0.0239093 0.991047
v 9.27863 -6.08717 0.0287983
vn -0.0039123 -0.0069323 0.999968
v 4.25424 -0.602527 0.0449465
vn -0.139114 0.0101748 0.990224
v 4.49044 -0.85991 0.00672121
vn 0.003087 0.00756208 -0.999967
v 14.0671 -11.3139 -0.0282835
vn 0.00473762 0.00630235 -0.999969
f 1//1 2//2 3//3
f 1//1 3//3 4//4
f 1//1 4//4 5//5
f 1//1 5//5 6//6
f 1//1 6//6 2//2
f 7//7 8//8 9//9
f 10//10 11//11 12//12
f 13//13 14//14 15//15
f 16//16 17//17 18//18
f 19//19 20//20 21//21
f 22//22 23//23 24//24
f 22//22 24//24 25//25
f 22//22 25//25 26//26
f 22//22 26//26 27//27
f 22//22 27//27 23//23
f 28//28 29//29 30//30
f 31//31 32//32 33//33
f 34//34 35//35 36//36
f 37//37 38//38 39//39
f 40//40 41//41 42//42
f 13//13 43//43 44//44
f 10//10 45//45 46//46
f 7//7 47//47 48//48
f 19//19 49//49 50//50
f 16//16 51//51 52//52
f 10//10 53//53 45//45
f 13//13 54//54 43//43
f 16//16 55//55 51//51
f 19//19 56//56 49//49
f 7//7 57//57 47//47
f 40//40 58//58 59//59
f 28//28 60//60 61//61
f 31//31 62//62 63//63
f 34//34 64//64 65//65
f 37//37 66//66 67//67
f 40//40 68//68 58//58
f 28//28 69//69 60//60
f 31//31 70//70 62//62
f 34//34 71//71 64//64
f 37//37 72//72 66//66
f 10//10 46//46 11//11
f 7//7 48//48 8//8
f 19//19 50//50 20//20
f 16//16 52//52 17//17
f 13//13 44//44 14//14
f 40//40 42//42 68//68
f 28//28 30//30 69//69
f 31//31 33//33 70//70
f 34//34 36//36 71//71
f 37//37 39//39 72//72
f 28//28 61//61 29//29
f 31//31 63//63 32//32
f 34//34 65//65 35//35
f 37//37 67//67 38//38
f 40//40 59//59 41//41
f 10//10 12//12 53//53
f 13//13 15//15 54//54
f 16//16 18//18 55//55
f 19//19 21//21 56//56
f 7//7 9//9 57//57
f 73//73 74//74 75//75
f 76//76 77//77 78//78
f 79//79 80//80 81//81
f 82//82 83//83 84//84
f 85//85 86//86 87//87
f 88//88 89//89 90//90
f 91//91 92//92 93//93
f 94//94 95//95 96//96
f 97//97 98//98 99//99
f 100//100 101//101 102//102
f 103//103 104//104 105//105
f 106//106 107//107 108//108
f 109//109 110//110 111//111
f 112//112 113//113 114//114
f 115//115 116//116 117//117
f 88//88 118//118 119//119
f 91//91 120//120 121//121
f 94//94 122//122 123//123
f 97//97 124//124 125//125
f 100//100 126//126 127//127
f 128//128 129//129 2//2
f 130//130 131//131 3//3
f 132//132 133//133 4//4
f 134//134 135//135 5//5
f 136//136 137//137 6//6
f 76//76 138//138 8//8
f 73//73 139//139 11//11
f 85//85 140//140 14//14
f 82//82 141//141 17//17
f 79//79 142//142 20//20
f 143//143 144//144 23//23
f 145//145 146//146 24//24
f 147//147 148//148 25//25
f 149//149 150//150 26//26
f 151//151 152//152 27//27
f 103//103 153//153 29//29
f 106//106 154//154 32//32
f 109//109 155//155 35//35
f 112//112 156//156 38//38
f 115//115 157//157 41//41
f 73//73 75//75 43//43
f 76//76 78//78 45//45
f 79//79 81//81 47//47
f 82//82 84//84 49//49
f 85//85 87//87 51//51
f 88//88 90//90 53//53
f 91//91 93//93 54//54
f 94//94 96//96 55//55
f 97//97 99//99 56//56
f 100//100 102//102 57//57
f 103//103 105//105 58//58
f 106//106 108//108 60//60
f 109//109 111//111 62//62
f 112//112 114//114 64//64
f 115//115 117//117 66//66
f 88//88 119//119 68//68
f 91//91 121//121 69//69
f 94//94 123//123 70//70
f 97//97 125//125 71//71
f 100//100 127//127 72//72
f 130//130 74//74 46//46
f 132//132 77//77 48//48
f 134//134 80//80 50//50
f 136//136 83//83 52//52
f 128//128 86//86 44//44
f 158//158 89//89 42//42
f 159//159 92//92 30//30
f 160//160 95//95 33//33
f 161//161 98//98 36//36
f 162//162 101//101 39//39
f 145//145 104//104 61//61
f 147//147 107//107 63//63
f 149//149 110//110 65//65
f 151//151 113//113 67//67
f 143//143 116//116 59//59
f 159//159 118//118 12//12
f 160//160 120//120 15//15
f 161//161 122//122 18//18
f 162//162 124//124 21//21
f 158//158 126//126 9//9
f 130//130 129//129 74//74
f 132//132 131//131 77//77
f 134//134 133//133 80//80
f 136//136 135//135 83//83
f 128//128 137//137 86//86
f 158//158 138//138 89//89
f 159//159 139//139 92//92
f 160//160 140//140 95//95
f 161//161 141//141 98//98
f 162//162 142//142 101//101
f 145//145 144//144 104//104
f 147//147 146//146 107//107
f 149//149 148//148 110//110
f 151//151 150//150 113//113
f 143//143 152//152 116//116
f 159//159 153//153 118//118
f 160//160 154//154 120//120
f 161//161 155//155 122//122
f 162//162 156//156 124//124
f 158//158 157//157 126//126
f 130//130 3//3 129//129
f 132//132 4//4 131//131
f 134//134 5//5 133//133
f 136//136 6//6 135//135
f 128//128 2//2 137//137
f 158//158 9//9 138//138
f 159//159 12//12 139//139
f 160//160 15//15 140//140
f 161//161 18//18 141//141
f 162//162 21//21 142//142
f 145//145 24//24 144//144
f 147//147 25//25 146//146
f 149//149 26//26 148//148
f 151//151 27//27 150//150
f 143//143 23//23 152//152
f 159//159 30//30 153//153
f 160//160 33//33 154//154
f 161//161 36//36 155//155
f 162//162 39//39 156//156
f 158//158 42//42 157//157
f 128//128 44//44 75//75
f 130//130 46//46 78//78
f 132//132 48//48 81//81
f 134//134 50//50 84//84
f 136//136 52//52 87//87
f 76//76 45//45 90//90
f 73//73 43//43 93//93
f 85//85 51//51 96//96
f 82//82 49//49 99//99
f 79//79 47//47 102//102
f 143//143 59//59 105//105
f 145//145 61//61 108//108
f 147//147 63//63 111//111
f 149//149 65//65 114//114
f 151//151 67//67 117//117
f 103//103 58//58 119//119
f 106//106 60//60 121//121
f 109//109 62//62 123//123
f 112//112 64//64 125//125
f 115//115 66//66 127//127
f 73//73 11//11 74//74
f 76//76 8//8 77//77
f 79//79 20//20 80//80
f 82//82 17//17 83//83
f 85//85 14//14 86//86
f 88//88 68//68 89//89
f 91//91 69//69 92//92
f 94//94 70//70 95//95
f 97//97 71//71 98//98
f 100//100 72//72 101//101
f 103//103 29//29 104//104
f 106//106 32//32 107//107
f 109//109 35//35 110//110
f 112//112 38//38 113//113
f 115//115 41//41 116//116
f 88//88 53//53 118//118
f 91//91 54//54 120//120
f 94//94 55//55 122//122
f 97//97 56//56 124//124
f 100//100 57//57 126//126
f 128//128 75//75 129//129
f 130//130 78//78 131//131
f 132//132 81//81 133//133
f 134//134 84//84 135//135
f 136//136 87//87 137//137
f 76//76 90//90 138//138
f 73//73 93//93 139//139
f 85//85 96//96 140//140
f 82//82 99//99 141//141
f 79//79 102//102 142//142
f 143//143 105//105 144//144
f 145//145 108//108 146//146
f 147//147 111//111 148//148
f 149//149 114//114 150//150
f 151//151 117//117 152//152
f 103//103 119//119 153//153
f 106//106 121//121 154//154
f 109//109 123//123 155//155
f 112//112 125//125 156//156
f 115//115 127//127 157//157
f 129//129 3//3 2//2
f 131//131 4//4 3//3
f 133//133 5//5 4//4
f 135//135 6//6 5//5
f 137//137 2//2 6//6
f 138//138 9//9 8//8
f 139//139 12//12 11//11
f 140//140 15//15 14//14
f 141//141 18//18 17//17
f 142//142 21//21 20//20
f 144//144 24//24 23//23
f 146//146 25//25 24//24
f 148//148 26//26 25//25
f 150//150 27//27 26//26
f 152//152 23//23 27//27
f 153//153 30//30 29//29
f 154//154 33//33 32//32
f 155//155 36//36 35//35
f 156//156 39//39 38//38
f 157//157 42//42 41//41
f 75//75 44//44 43//43
f 78//78 46//46 45//45
f 81//81 48//48 47//47
f 84//84 50//50 49//49
f 87//87 52//52 51//51
f 90//90 45//45 53//53
f 93//93 43//43 54//54
f 96//96 51//51 55//55
f 99//99 49//49 56//56
f 102//102 47//47 57//57
f 105//105 59//59 58//58
f 108//108 61//61 60//60
f 111//111 63//63 62//62
f 114//114 65//65 64//64
f 117//117 67//67 66//66
f 119//119 58//58 68//68
f 121//121 60//60 69//69
f 123//123 62//62 70//70
f 125//125 64//64 71//71
f 127//127 66//66 72//72
f 74//74 11//11 46//46
f 77//77 8//8 48//48
f 80//80 20//20 50//50
f 83//83 17//17 52//52
f 86//86 14//14 44//44
f 89//89 68//68 42//42
f 92//92 69//69 30//30
f 95//95 70//70 33//33
f 98//98 71//71 36//36
f 101//101 72//72 39//39
f 104//104 29//29 61//61
f 107//107 32//32 63//63
f 110//110 35//35 65//65
f 113//113 38//38 67//67
f 116//116 41//41 59//59
f 118//118 53//53 12//12
f 120//120 54//54 15//15
f 122//122 55//55 18//18
f 124//124 56//56 21//21
f 126//126 57//57 9//9
f 129//129 75//75 74//74
f 131//131 78//78 77//77
f 133//133 81//81 80//80
f 135//135 84//84 83//83
f 137//137 87//87 86//86
f 138//138 90//90 89//89
f 139//139 93//93 92//92
f 140//140 96//96 95//95
f 141//141 99//99 98//98
f 142//142 102//102 101//101
f 144//144 105//105 104//104
f 146//146 108//108 107//107
f 148//148 111//111 110//110
f 150//150 114//114 113//113
f 152//152 117//117 116//116
f 153//153 119//119 118//118
f 154//154 121//121 120//120
f 155//155 123//123 122//122
f 156//156 125//125 124//124
f 157//157 127//127 126//126
