# Created by Open3D 
# object name: part_017
# number of vertices: 162
# number of triangles: 320
v 0.567834 1.26256 0.559531
vn 0.989606 0.110281 -0.0922922
v 0.568222 1.27163 0.579907
vn 0.97846 0.197766 -0.059195
v 0.570202 1.25558 0.580164
vn 0.995335 0.082633 -0.0497915
v 0.569537 1.24098 0.559078
vn 0.994248 0.051094 -0.0941318
v 0.566866 1.2564 0.545376
vn 0.984231 0.0851321 -0.155054
v 0.565043 1.27242 0.546754
vn 0.971887 0.2005 -0.123429
v 0.5983 0.58016 0.540525
vn 0.995263 -0.016426 -0.0958217
v 0.600089 0.586161 0.561521
vn 0.998613 0.00921853 -0.0518374
v 0.599545 0.570038 0.560367
vn 0.992034 -0.106258 -0.0676631
v 0.582551 0.920688 0.573298
vn 0.224838 -0.0170954 0.974246
v 0.567306 1.23863 0.582281
vn 0.171057 -0.0188476 0.985081
v 0.579076 0.920517 0.573872
vn 0.103848 -0.0230563 0.994326
v 0.511258 1.27612 0.587582
vn 0.0883021 0.115551 0.989369
v 0.510947 1.28058 0.586524
vn -0.00708576 0.922649 0.385575
v 0.459737 1.2742 0.592119
vn 0.0572768 0.210865 0.975836
v 0.507679 1.277 0.550255
vn -0.100694 0.162008 -0.981639
v 0.556978 1.27253 0.544892
vn -0.0939635 0.0810915 -0.992268
v 0.458886 1.26789 0.554189
vn -0.1017 0.0807259 -0.991534
v 0.575648 0.992093 0.536093
vn 0.0356351 0.0294118 -0.998932
v 0.593914 0.618627 0.525915
vn 0.211583 0.0361176 -0.976693
v 0.591939 0.60357 0.525346
vn -0.0195417 0.0261776 -0.999466
v 0.482413 0.57468 0.551508
vn -0.989606 -0.110281 0.0922922
v 0.485862 0.564662 0.571142
vn -0.972769 -0.199164 0.11855
v 0.484039 0.580674 0.572519
vn -0.987035 -0.0846732 0.136352
v 0.480752 0.596252 0.552395
vn -0.994248 -0.0510941 0.0941318
v 0.480703 0.581494 0.537731
vn -0.996136 -0.0822057 0.0308984
v 0.482683 0.565444 0.537988
vn -0.978528 -0.198866 0.0541809
v 0.47211 0.915466 0.583765
vn -0.0356372 -0.029412 0.998932
v 0.487359 0.597522 0.574837
vn 0.0192365 -0.0279262 0.999425
v 0.47563 0.915626 0.583676
vn 0.0869945 -0.0238532 0.995923
v 0.451947 1.25708 0.570514
vn -0.995263 0.0164258 0.0958217
v 0.454152 1.2501 0.591163
vn -0.990313 -0.0112575 0.138395
v 0.454539 1.26626 0.590681
vn -0.986343 0.104858 0.127017
v 0.465207 0.986871 0.54656
vn -0.224837 0.0170954 -0.974247
v 0.453306 1.21936 0.553557
vn -0.39735 0.00844383 -0.917628
v 0.455204 1.23443 0.553327
vn -0.171726 0.0209667 -0.984922
v 0.539647 0.560954 0.530313
vn -0.0883021 -0.115551 -0.989369
v 0.490246 0.565456 0.534626
vn -0.0965669 -0.0342587 -0.994737
v 0.588339 0.570094 0.525329
vn -0.0888301 -0.0338947 -0.99547
v 0.543226 0.560074 0.56764
vn 0.100694 -0.162008 0.981639
v 0.543311 0.555674 0.566335
vn 0.0760559 -0.939602 0.33371
v 0.594679 0.562014 0.562394
vn 0.128159 -0.256449 0.958024
v 0.560658 1.27162 0.583269
vn 0.096567 0.0342593 0.994737
v 0.562666 1.27907 0.582364
vn 0.107189 0.213226 0.971105
v 0.597598 0.617721 0.564338
vn 0.395199 -0.00851301 0.918556
v 0.570539 1.22382 0.581219
vn 0.395151 -0.0073669 0.918587
v 0.596753 0.586981 0.526732
vn 0.987515 0.0115906 -0.1571
v 0.598073 0.6018 0.541276
vn 0.994611 0.0429494 -0.0943586
v 0.563545 1.23956 0.543059
vn -0.0186673 0.0282041 -0.999428
v 0.566854 1.22473 0.542796
vn 0.215745 0.0374341 -0.975732
v 0.507594 1.2814 0.551561
vn -0.0853875 0.883796 -0.460015
v 0.559155 1.27993 0.545747
vn -0.0782448 0.258808 -0.962754
v 0.5957 0.602645 0.564569
vn 0.171139 -0.0207435 0.985029
v 0.462566 1.26698 0.592566
vn 0.0888301 0.0338954 0.99547
v 0.456225 1.27506 0.555502
vn -0.128158 0.256449 -0.958024
v 0.572089 0.992805 0.536207
vn -0.0869937 0.0238532 -0.995923
v 0.596366 0.570819 0.527214
vn 0.985571 -0.105994 -0.131965
v 0.493926 0.564551 0.573003
vn 0.0939635 -0.0810915 0.992268
v 0.49175 0.557147 0.572149
vn 0.0782452 -0.258808 0.962754
v 0.456991 1.21845 0.59198
vn -0.213505 -0.0361473 0.976273
v 0.48405 0.612352 0.5751
vn -0.213452 -0.0372932 0.976241
v 0.450816 1.25092 0.556375
vn -0.99942 -0.00866499 0.0329471
v 0.452216 1.23543 0.570197
vn -0.994611 -0.0429493 0.0943586
v 0.483598 0.598447 0.535614
vn -0.170684 0.0190308 -0.985142
v 0.480366 0.613258 0.536677
vn -0.393336 0.00751404 -0.919364
v 0.539958 0.556498 0.531372
vn -0.00749172 -0.860964 -0.508612
v 0.488239 0.55801 0.535531
vn -0.107189 -0.213226 -0.971105
v 0.592019 0.56919 0.563706
vn 0.1017 -0.0807259 0.991534
v 0.458965 1.23351 0.592549
vn 0.0191518 -0.0260305 0.999478
v 0.451359 1.26704 0.557528
vn -0.992211 0.107625 0.0627172
v 0.468643 0.987914 0.546011
vn -0.103849 0.0230562 -0.994326
v 0.591168 0.562877 0.525776
vn -0.0572769 -0.210865 -0.975836
v 0.564527 1.26005 0.582926
vn 0.107739 -0.00360457 0.994173
v 0.568218 1.25478 0.582132
vn 0.337432 0.011317 0.941282
v 0.565676 1.27117 0.582459
vn 0.274076 0.0567516 0.960032
v 0.599331 0.597285 0.563043
vn 0.758722 0.0112965 0.651316
v 0.599261 0.617505 0.562359
vn 0.997693 0.0451259 -0.0507215
v 0.585185 0.920839 0.57212
vn 0.766561 0.0163445 0.641963
v 0.59577 0.59816 0.525902
vn 0.622681 0.0457832 -0.781135
v 0.578607 0.988889 0.536663
vn 0.63075 0.0497275 -0.774392
v 0.595921 0.618325 0.527531
vn 0.985723 0.0476491 -0.161495
v 0.56079 1.26097 0.543954
vn -0.0830586 0.0432916 -0.995604
v 0.562057 1.27206 0.544713
vn 0.0870082 0.102736 -0.990896
v 0.564541 1.25568 0.543786
vn 0.152569 0.0567579 -0.986662
v 0.508857 1.28249 0.565426
vn -0.0445841 0.998618 0.0278124
v 0.562404 1.28262 0.580743
vn 0.0706679 0.992012 0.10449
v 0.559221 1.28341 0.547552
vn 0.0522177 0.995227 -0.0824386
v 0.594841 0.581059 0.564016
vn 0.109455 -0.0420432 0.993102
v 0.596974 0.570134 0.562935
vn 0.280428 -0.0853618 0.956072
v 0.598045 0.58668 0.563525
vn 0.339435 -0.0334931 0.940033
v 0.459801 1.2551 0.592851
vn 0.0813412 -0.00485373 0.996674
v 0.464036 1.23411 0.592271
vn 0.0936406 -0.0225767 0.99535
v 0.512097 1.25928 0.588034
vn 0.0945705 -0.00470189 0.995507
v 0.452906 1.27259 0.556378
vn -0.898908 0.360814 -0.24855
v 0.453902 1.27404 0.570555
vn -0.917355 0.386055 0.097063
v 0.456174 1.27853 0.557318
vn -0.159585 0.985212 -0.0623639
v 0.520346 0.990639 0.541039
vn -0.0954242 0.0234556 -0.99516
v 0.460238 1.23504 0.552664
vn -0.0972246 0.0245896 -0.994959
v 0.558442 1.23968 0.543357
vn -0.0937323 0.0247548 -0.99529
v 0.594604 0.565323 0.526121
vn 0.833718 -0.344789 -0.431316
v 0.593355 0.571024 0.525189
vn 0.0933522 -0.0393797 -0.994854
v 0.595833 0.576622 0.52569
vn 0.548718 -0.0289071 -0.835507
v 0.490115 0.576107 0.573941
vn 0.0830586 -0.0432916 0.995604
v 0.486364 0.581399 0.57411
vn -0.15257 -0.0567577 0.986662
v 0.488848 0.565022 0.573182
vn -0.0870067 -0.102735 0.990896
v 0.455135 1.23892 0.591993
vn -0.621259 -0.0450864 0.782307
v 0.454983 1.21875 0.590364
vn -0.989358 -0.0471744 0.137639
v 0.469299 0.915359 0.583103
vn -0.63075 -0.0497275 0.774392
v 0.451574 1.23979 0.554852
vn -0.757028 -0.0102142 -0.653303
v 0.46272 0.983409 0.547646
vn -0.766561 -0.0163445 -0.641963
v 0.451644 1.21957 0.555536
vn -0.998402 -0.0446717 0.0346083
v 0.486378 0.577026 0.534969
vn -0.107739 0.00360465 -0.994173
v 0.485229 0.565911 0.535436
vn -0.274076 -0.0567516 -0.960032
v 0.482687 0.582303 0.535763
vn -0.33743 -0.0113168 -0.941283
v 0.541347 0.554763 0.545158
vn 0.0445841 -0.998618 -0.0278124
v 0.491684 0.553671 0.570343
vn -0.0539763 -0.996115 0.0695837
v 0.488501 0.554453 0.537152
vn -0.0713791 -0.990517 -0.11739
v 0.590667 0.602039 0.565231
vn 0.0972076 -0.0243343 0.994967
v 0.542563 0.576873 0.569029
vn 0.0962443 -0.042199 0.994463
v 0.45755 1.26605 0.592707
vn -0.0933525 0.03938 0.994854
v 0.456536 1.24949 0.592716
vn -0.154572 -0.0119473 0.987909
v 0.453931 1.26694 0.55496
vn -0.280424 0.0853607 -0.956073
v 0.451568 1.26132 0.555661
vn -0.697275 0.0654224 -0.713812
v 0.586869 0.602973 0.525624
vn -0.093651 0.0227432 -0.995345
v 0.488664 0.598329 0.534931
vn -0.0971264 0.0225789 -0.995016
v 0.596313 0.563212 0.540146
vn 0.917355 -0.386056 -0.0970636
v 0.591548 0.559326 0.527386
vn 0.140425 -0.980502 -0.137465
v 0.56619 1.27695 0.581359
vn 0.878843 0.443335 0.176321
v 0.568529 1.26582 0.581453
vn 0.690451 0.0875008 0.718068
v 0.570442 1.24437 0.581065
vn 0.758329 0.0201473 0.651561
v 0.57217 1.22429 0.579258
vn 0.997619 0.04678 -0.0506751
v 0.58399 0.92141 0.549711
vn 0.994438 0.0470221 -0.0942459
v 0.568831 1.22511 0.54443
vn 0.986915 0.0492044 -0.153549
v 0.56688 1.24525 0.543924
vn 0.618735 0.0548389 -0.783683
v 0.565025 1.26668 0.544908
vn 0.541895 0.124018 -0.831246
v 0.562796 1.27779 0.545964
vn 0.798632 0.441083 -0.40943
v 0.564345 1.27926 0.560088
vn 0.879092 0.470998 -0.073194
v 0.599337 0.57576 0.562234
vn 0.697271 -0.0654238 0.713816
v 0.56224 1.23875 0.582964
vn 0.0971218 -0.022412 0.99502
v 0.459357 1.27775 0.590509
vn -0.142287 0.981942 0.124673
v 0.508341 1.2602 0.548867
vn -0.0962443 0.042199 -0.994463
v 0.594368 0.587584 0.525179
vn 0.154571 0.0119475 -0.98791
v 0.488109 0.559292 0.571931
vn -0.831332 -0.455017 0.319136
v 0.48588 0.570396 0.572987
vn -0.541892 -0.124017 0.831248
v 0.484024 0.591833 0.573971
vn -0.620858 -0.0539373 0.782066
v 0.482074 0.611963 0.573465
vn -0.989285 -0.0488287 0.137593
v 0.466214 0.915841 0.560873
vn -0.994438 -0.0470221 0.0942459
v 0.478734 0.612784 0.538637
vn -0.99858 -0.0461789 0.026566
v 0.480463 0.592708 0.53683
vn -0.759572 -0.019577 -0.650128
v 0.482376 0.571257 0.536442
vn -0.690452 -0.0875009 -0.718067
v 0.484715 0.560127 0.536536
vn -0.863825 -0.425055 -0.270434
v 0.48587 0.55799 0.550613
vn -0.879092 -0.470998 0.0731936
v 0.492462 0.597395 0.574538
vn 0.0937265 -0.024499 0.995297
v 0.455072 1.26046 0.592206
vn -0.548721 0.0289069 0.835506
v 0.452859 1.2504 0.55437
vn -0.339436 0.0334926 -0.940033
v 0.538808 0.577796 0.529861
vn -0.0945705 0.00470186 -0.995507
v 0.594731 0.558544 0.560577
vn 0.158979 -0.986045 0.0493997
v 0.597998 0.564489 0.561517
vn 0.91526 -0.372431 0.153605
v 0.527361 0.91807 0.578851
vn 0.0954242 -0.0234556 0.99516
v 0.4563 1.27175 0.591774
vn -0.867752 0.36075 0.341856
v 0.456064 1.25602 0.55388
vn -0.109454 0.0420432 -0.993102
v 0.591104 0.581978 0.525044
vn -0.0813412 0.00485368 -0.996674
f 1//1 2//2 3//3
f 1//1 3//3 4//4
f 1//1 4//4 5//5
f 1//1 5//5 6//6
f 1//1 6//6 2//2
f 7//7 8//8 9//9
f 10//10 11//11 12//12
f 13//13 14//14 15//15
f 16//16 17//17 18//18
f 19//19 20//20 21//21
f 22//22 23//23 24//24
f 22//22 24//24 25//25
f 22//22 25//25 26//26
f 22//22 26//26 27//27
f 22//22 27//27 23//23
f 28//28 29//29 30//30
f 31//31 32//32 33//33
f 34//34 35//35 36//36
f 37//37 38//38 39//39
f 40//40 41//41 42//42
f 13//13 43//43 44//44
f 10//10 45//45 46//46
f 7//7 47//47 48//48
f 19//19 49//49 50//50
f 16//16 51//51 52//52
f 10//10 53//53 45//45
f 13//13 54//54 43//43
f 16//16 55//55 51//51
f 19//19 56//56 49//49
f 7//7 57//57 47//47
f 40//40 58//58 59//59
f 28//28 60//60 61//61
f 31//31 62//62 63//63
f 34//34 64//64 65//65
f 37//37 66//66 67//67
f 40//40 68//68 58//58
f 28//28 69//69 60//60
f 31//31 70//70 62//62
f 34//34 71//71 64//64
f 37//37 72//72 66//66
f 10//10 46//46 11//11
f 7//7 48//48 8//8
f 19//19 50//50 20//20
f 16//16 52//52 17//17
f 13//13 44//44 14//14
f 40//40 42//42 68//68
f 28//28 30//30 69//69
f 31//31 33//33 70//70
f 34//34 36//36 71//71
f 37//37 39//39 72//72
f 28//28 61//61 29//29
f 31//31 63//63 32//32
f 34//34 65//65 35//35
f 37//37 67//67 38//38
f 40//40 59//59 41//41
f 10//10 12//12 53//53
f 13//13 15//15 54//54
f 16//16 18//18 55//55
f 19//19 21//21 56//56
f 7//7 9//9 57//57
f 73//73 74//74 75//75
f 76//76 77//77 78//78
f 79//79 80//80 81//81
f 82//82 83//83 84//84
f 85//85 86//86 87//87
f 88//88 89//89 90//90
f 91//91 92//92 93//93
f 94//94 95//95 96//96
f 97//97 98//98 99//99
f 100//100 101//101 102//102
f 103//103 104//104 105//105
f 106//106 107//107 108//108
f 109//109 110//110 111//111
f 112//112 113//113 114//114
f 115//115 116//116 117//117
f 88//88 118//118 119//119
f 91//91 120//120 121//121
f 94//94 122//122 123//123
f 97//97 124//124 125//125
f 100//100 126//126 127//127
f 128//128 129//129 2//2
f 130//130 131//131 3//3
f 132//132 133//133 4//4
f 134//134 135//135 5//5
f 136//136 137//137 6//6
f 76//76 138//138 8//8
f 73//73 139//139 11//11
f 85//85 140//140 14//14
f 82//82 141//141 17//17
f 79//79 142//142 20//20
f 143//143 144//144 23//23
f 145//145 146//146 24//24
f 147//147 148//148 25//25
f 149//149 150//150 26//26
f 151//151 152//152 27//27
f 103//103 153//153 29//29
f 106//106 154//154 32//32
f 109//109 155//155 35//35
f 112//112 156//156 38//38
f 115//115 157//157 41//41
f 73//73 75//75 43//43
f 76//76 78//78 45//45
f 79//79 81//81 47//47
f 82//82 84//84 49//49
f 85//85 87//87 51//51
f 88//88 90//90 53//53
f 91//91 93//93 54//54
f 94//94 96//96 55//55
f 97//97 99//99 56//56
f 100//100 102//102 57//57
f 103//103 105//105 58//58
f 106//106 108//108 60//60
f 109//109 111//111 62//62
f 112//112 114//114 64//64
f 115//115 117//117 66//66
f 88//88 119//119 68//68
f 91//91 121//121 69//69
f 94//94 123//123 70//70
f 97//97 125//125 71//71
f 100//100 127//127 72//72
f 130//130 74//74 46//46
f 132//132 77//77 48//48
f 134//134 80//80 50//50
f 136//136 83//83 52//52
f 128//128 86//86 44//44
f 158//158 89//89 42//42
f 159//159 92//92 30//30
f 160//160 95//95 33//33
f 161//161 98//98 36//36
f 162//162 101//101 39//39
f 145//145 104//104 61//61
f 147//147 107//107 63//63
f 149//149 110//110 65//65
f 151//151 113//113 67//67
f 143//143 116//116 59//59
f 159//159 118//118 12//12
f 160//160 120//120 15//15
f 161//161 122//122 18//18
f 162//162 124//124 21//21
f 158//158 126//126 9//9
f 130//130 129//129 74//74
f 132//132 131//131 77//77
f 134//134 133//133 80//80
f 136//136 135//135 83//83
f 128//128 137//137 86//86
f 158//158 138//138 89//89
f 159//159 139//139 92//92
f 160//160 140//140 95//95
f 161//161 141//141 98//98
f 162//162 142//142 101//101
f 145//145 144//144 104//104
f 147//147 146//146 107//107
f 149//149 148//148 110//110
f 151//151 150//150 113//113
f 143//143 152//152 116//116
f 159//159 153//153 118//118
f 160//160 154//154 120//120
f 161//161 155//155 122//122
f 162//162 156//156 124//124
f 158//158 157//157 126//126
f 130//130 3//3 129//129
f 132//132 4//4 131//131
f 134//134 5//5 133//133
f 136//136 6//6 135//135
f 128//128 2//2 137//137
f 158//158 9//9 138//138
f 159//159 12//12 139//139
f 160//160 15//15 140//140
f 161//161 18//18 141//141
f 162//162 21//21 142//142
f 145//145 24//24 144//144
f 147//147 25//25 146//146
f 149//149 26//26 148//148
f 151//151 27//27 150//150
f 143//143 23//23 152//152
f 159//159 30//30 153//153
f 160//160 33//33 154//154
f 161//161 36//36 155//155
f 162//162 39//39 156//156
f 158//158 42//42 157//157
f 128//128 44//44 75//75
f 130//130 46//46 78//78
f 132//132 48//48 81//81
f 134//134 50//50 84//84
f 136//136 52//52 87//87
f 76//76 45//45 90//90
f 73//73 43//43 93//93
f 85//85 51//51 96//96
f 82//82 49//49 99//99
f 79//79 47//47 102//102
f 143//143 59//59 105//105
f 145//145 61//61 108//108
f 147//147 63//63 111//111
f 149//149 65//65 114//114
f 151//151 67//67 117//117
f 103//103 58//58 119//119
f 106//106 60//60 121//121
f 109//109 62//62 123//123
f 112//112 64//64 125//125
f 115//115 66//66 127//127
f 73//73 11//11 74//74
f 76//76 8//8 77//77
f 79//79 20//20 80//80
f 82//82 17//17 83//83
f 85//85 14//14 86//86
f 88//88 68//68 89//89
f 91//91 69//69 92//92
f 94//94 70//70 95//95
f 97//97 71//71 98//98
f 100//100 72//72 101//101
f 103//103 29//29 104//104
f 106//106 32//32 107//107
f 109//109 35//35 110//110
f 112//112 38//38 113//113
f 115//115 41//41 116//116
f 88//88 53//53 118//118
f 91//91 54//54 120//120
f 94//94 55//55 122//122
f 97//97 56//56 124//124
f 100//100 57//57 126//126
f 128//128 75//75 129//129
f 130//130 78//78 131//131
f 132//132 81//81 133//133
f 134//134 84//84 135//135
f 136//136 87//87 137//137
f 76//76 90//90 138//138
f 73//73 93//93 139//139
f 85//85 96//96 140//140
f 82//82 99//99 141//141
f 79//79 102//102 142//142
f 143//143 105//105 144//144
f 145//145 108//108 146//146
f 147//147 111//111 148//148
f 149//149 114//114 150//150
f 151//151 117//117 152//152
f 103//103 119//119 153//153
f 106//106 121//121 154//154
f 109//109 123//123 155//155
f 112//112 125//125 156//156
f 115//115 127//127 157//157
f 129//129 3//3 2//2
f 131//131 4//4 3//3
f 133//133 5//5 4//4
f 135//135 6//6 5//5
f 137//137 2//2 6//6
f 138//138 9//9 8//8
f 139//139 12//12 11//11
f 140//140 15//15 14//14
f 141//141 18//18 17//17
f 142//142 21//21 20//20
f 144//144 24//24 23//23
f 146//146 25//25 24//24
f 148//148 26//26 25//25
f 150//150 27//27 26//26
f 152//152 23//23 27//27
f 153//153 30//30 29//29
f 154//154 33//33 32//32
f 155//155 36//36 35//35
f 156//156 39//39 38//38
f 157//157 42//42 41//41
f 75//75 44//44 43//43
f 78//78 46//46 45//45
f 81//81 48//48 47//47
f 84//84 50//50 49//49
f 87//87 52//52 51//51
f 90//90 45//45 53//53
f 93//93 43//43 54//54
f 96//96 51//51 55//55
f 99//99 49//49 56//56
f 102//102 47//47 57//57
f 105//105 59//59 58//58
f 108//108 61//61 60//60
f 111//111 63//63 62//62
f 114//114 65//65 64//64
f 117//117 67//67 66//66
f 119//119 58//58 68//68
f 121//121 60//60 69//69
f 123//123 62//62 70//70
f 125//125 64//64 71//71
f 127//127 66//66 72//72
f 74//74 11//11 46//46
f 77//77 8//8 48//48
f 80//80 20//20 50//50
f 83//83 17//17 52//52
f 86//86 14//14 44//44
f 89//89 68//68 42//42
f 92//92 69//69 30//30
f 95//95 70//70 33//33
f 98//98 71//71 36//36
f 101//101 72//72 39//39
f 104//104 29//29 61//61
f 107//107 32//32 63//63
f 110//110 35//35 65//65
f 113//113 38//38 67//67
f 116//116 41//41 59//59
f 118//118 53//53 12//12
f 120//120 54//54 15//15
f 122//122 55//55 18//18
f 124//124 56//56 21//21
f 126//126 57//57 9//9
f 129//129 75//75 74//74
f 131//131 78//78 77//77
f 133//133 81//81 80//80
f 135//135 84//84 83//83
f 137//137 87//87 86//86
f 138//138 90//90 89//89
f 139//139 93//93 92//92
f 140//140 96//96 95//95
f 141//141 99//99 98//98
f 142//142 102//102 101//101
f 144//144 105//105 104//104
f 146//146 108//108 107//107
f 148//148 111//111 110//110
f 150//150 114//114 113//113
f 152//152 117//117 116//116
f 153//153 119//119 118//118
f 154//154 121//121 120//120
f 155//155 123//123 122//122
f 156//156 125//125 124//124
f 157//157 127//127 126//126
