# Created by Open3D 
# object name: part_044
# number of vertices: 162
# number of triangles: 320
v 0.792917 1.96112 0.116501
vn 0.369348 0.0349885 -0.928632
v 0.800723 1.94175 0.120614
vn 0.684989 -0.0100339 -0.728485
v 0.791148 1.9399 0.116157
vn 0.250184 -0.123974 -0.960228
v 0.779851 1.95953 0.113535
vn 0.0594108 0.00227818 -0.998231
v 0.78751 1.97467 0.116019
vn 0.21143 0.226176 -0.950864
v 0.797255 1.97488 0.120483
vn 0.669635 0.158806 -0.725513
v 0.376744 1.91751 0.10126
vn -0.300411 -0.0352039 -0.95316
v 0.38289 1.89711 0.101205
vn -0.148949 -0.165804 -0.974845
v 0.372843 1.8969 0.104944
vn -0.613524 -0.146122 -0.776039
v 0.586892 1.91632 0.118411
vn 0.105414 -0.993836 -0.0343208
v 0.780695 1.93662 0.129153
vn 0.10642 -0.994155 -0.0181978
v 0.586473 1.91608 0.130536
vn 0.104179 -0.994557 0.00147276
v 0.79813 1.94014 0.317828
vn 0.323335 -0.946209 0.0119528
v 0.800707 1.94161 0.317923
vn 0.991048 -0.128474 0.0363205
v 0.791864 1.94055 0.496243
vn 0.46165 -0.886738 0.023981
v 0.794226 1.97745 0.317681
vn 0.12042 0.992714 0.00429827
v 0.796247 1.97752 0.147506
vn -0.0104543 0.999944 -0.00162218
v 0.78379 1.97756 0.487548
vn -0.0105455 0.999944 0.000625209
v 0.625779 1.95997 0.11983
vn -0.102612 0.993828 -0.0421606
v 0.398211 1.93572 0.106104
vn -0.10117 0.990222 -0.0960455
v 0.388726 1.93517 0.114794
vn -0.104531 0.99418 -0.0260464
v 0.362027 1.91755 0.502989
vn -0.36935 -0.0349889 0.928631
v 0.358406 1.89695 0.499033
vn -0.668663 -0.14595 0.729101
v 0.368152 1.89716 0.503497
vn -0.219879 -0.165586 0.961371
v 0.375139 1.91872 0.505957
vn -0.0594105 -0.00227743 0.998231
v 0.364513 1.93193 0.50336
vn -0.254458 0.184918 0.94924
v 0.354939 1.93008 0.498903
vn -0.688596 0.0223835 0.724799
v 0.572867 1.91636 0.501261
vn 0.102612 -0.993828 0.0421616
v 0.37907 1.89601 0.490518
vn 0.101707 -0.994473 0.0260551
v 0.573336 1.91612 0.489137
vn 0.103999 -0.994557 0.00638151
v 0.7782 1.96117 0.51823
vn 0.300411 0.035204 0.95316
v 0.776411 1.93995 0.518449
vn 0.179256 -0.123755 0.975988
v 0.786286 1.94179 0.514703
vn 0.62985 -0.00986189 0.776655
v 0.611754 1.96001 0.50268
vn -0.105414 0.993836 0.0343192
v 0.753431 1.97451 0.513261
vn -0.105994 0.990322 0.0895941
v 0.762833 1.97586 0.504568
vn -0.102929 0.994517 0.0185014
v 0.357531 1.93168 0.301689
vn -0.323335 0.946209 -0.0119528
v 0.3554 1.93266 0.47186
vn -0.196811 0.980422 -0.00619619
v 0.367857 1.93262 0.131817
vn -0.196722 0.980423 -0.00844368
v 0.361436 1.89438 0.301836
vn -0.120421 -0.992714 -0.00429829
v 0.358611 1.89528 0.301732
vn -0.942943 -0.331162 -0.0345059
v 0.367628 1.89468 0.123418
vn -0.268039 -0.963264 -0.0166775
v 0.800261 1.93916 0.147657
vn 0.196812 -0.980422 0.00619623
v 0.804935 1.94051 0.139433
vn 0.462156 -0.886741 0.0100631
v 0.40223 1.89732 0.106256
vn 0.106064 -0.990381 -0.0888599
v 0.77187 1.93606 0.119793
vn 0.108011 -0.990177 -0.0887859
v 0.379251 1.93188 0.101068
vn -0.184322 0.184703 -0.965355
v 0.390038 1.91867 0.0992593
vn 0.0137883 -0.00250671 -0.999902
v 0.776592 1.97582 0.128998
vn -0.101291 0.994511 -0.0262127
v 0.767851 1.97446 0.119641
vn -0.0991458 0.990301 -0.0973302
v 0.79705 1.97655 0.317785
vn 0.90697 0.419886 0.033178
v 0.801105 1.97711 0.139289
vn 0.268554 0.963261 0.00276048
v 0.392828 1.89597 0.114949
vn 0.103332 -0.994478 -0.0183141
v 0.787804 1.9392 0.4877
vn 0.196723 -0.980423 0.00844372
v 0.788034 1.97715 0.496099
vn 0.268036 0.963265 0.0166773
v 0.625841 1.96027 0.131974
vn -0.103999 0.994557 -0.00638212
v 0.369375 1.93004 0.104814
vn -0.633718 0.0222124 -0.773245
v 0.359414 1.89431 0.472011
vn 0.0104543 -0.999944 0.00162219
v 0.354557 1.89472 0.480228
vn -0.268554 -0.963261 -0.00276048
v 0.75745 1.93611 0.513413
vn 0.101217 -0.990156 0.0966795
v 0.387811 1.89737 0.499876
vn 0.0992695 -0.99036 0.096603
v 0.772772 1.97471 0.518311
vn 0.141295 0.226393 0.963733
v 0.764952 1.95957 0.520232
vn -0.0137886 0.00250596 0.999902
v 0.374967 1.93521 0.490364
vn -0.106148 0.994186 0.0180983
v 0.383792 1.93577 0.499724
vn -0.107918 0.990243 0.088158
v 0.354955 1.93022 0.301594
vn -0.974226 0.222728 -0.035715
v 0.350727 1.93132 0.480084
vn -0.462156 0.886742 -0.0100631
v 0.371871 1.89427 0.131968
vn 0.0105454 -0.999944 -0.000625209
v 0.766936 1.93666 0.504723
vn 0.104795 -0.99415 0.0261656
v 0.782818 1.97492 0.514572
vn 0.614754 0.158978 0.772531
v 0.612705 1.96031 0.490574
vn -0.104179 0.994557 -0.0014721
v 0.363798 1.93127 0.123274
vn -0.461653 0.886736 -0.0239811
v 0.793566 1.93812 0.135899
vn 0.135383 -0.990793 0.00122319
v 0.790652 1.93808 0.123721
vn 0.143877 -0.987226 -0.0684484
v 0.800438 1.93943 0.130249
vn 0.221959 -0.973971 -0.045975
v 0.389777 1.89665 0.102747
vn 0.100483 -0.958928 -0.265254
v 0.402063 1.89909 0.0999337
vn 0.0471329 -0.148885 -0.987731
v 0.587141 1.91724 0.108969
vn 0.110145 -0.956202 -0.271194
v 0.385892 1.93377 0.102601
vn -0.0985306 0.956753 -0.273706
v 0.624202 1.95884 0.110322
vn -0.089998 0.956138 -0.27875
v 0.39842 1.9339 0.0997962
vn 0.00722472 0.226298 -0.974031
v 0.78949 1.97707 0.135745
vn -0.0726896 0.997333 -0.00662707
v 0.79649 1.97716 0.1301
vn 0.0155227 0.998433 -0.05376
v 0.786641 1.9764 0.12357
vn -0.0635941 0.995057 -0.0762693
v 0.799355 1.96282 0.317871
vn 0.993894 0.104163 0.0363983
v 0.806906 1.94245 0.139302
vn 0.998585 0.0502602 0.0173905
v 0.803434 1.97562 0.139171
vn 0.986036 0.165663 0.0170079
v 0.379471 1.89472 0.120734
vn 0.0729694 -0.997334 -0.00106213
v 0.372902 1.89463 0.114592
vn -0.0115487 -0.998446 -0.0545242
v 0.383203 1.89538 0.108799
vn 0.0689911 -0.995074 -0.0711938
v 0.780267 1.93816 0.498936
vn 0.135111 -0.99079 0.00891206
v 0.767821 1.93649 0.487162
vn 0.105632 -0.994395 0.00449048
v 0.787968 1.93815 0.317456
vn 0.134483 -0.990903 0.0050396
v 0.786256 1.97639 0.508114
vn 0.772646 0.529299 0.350516
v 0.788788 1.96241 0.509168
vn 0.918127 0.0976056 0.384077
v 0.790348 1.97566 0.496387
vn 0.984638 0.165668 0.0551476
v 0.619434 1.96038 0.31128
vn -0.10409 0.99456 -0.00392632
v 0.763678 1.97607 0.487005
vn -0.102132 0.994765 -0.00334553
v 0.776149 1.97603 0.146576
vn -0.102095 0.994765 -0.00436284
v 0.365704 1.93081 0.111263
vn -0.865207 0.355098 -0.354009
v 0.368954 1.93235 0.114443
vn -0.217978 0.973962 -0.0623099
v 0.372701 1.9321 0.105329
vn -0.245548 0.941073 -0.232567
v 0.366172 1.89476 0.483771
vn 0.0726896 -0.997333 0.00662704
v 0.36902 1.89542 0.495947
vn 0.063594 -0.995057 0.0762695
v 0.359171 1.89467 0.489417
vn -0.0155227 -0.998433 0.05376
v 0.769769 1.93806 0.516916
vn 0.10002 -0.95685 0.272825
v 0.757241 1.93792 0.519721
vn -0.0160931 -0.147697 0.988902
v 0.572425 1.91728 0.510695
vn 0.089998 -0.956138 0.27875
v 0.765885 1.97517 0.516769
vn -0.098436 0.959487 0.263997
v 0.609485 1.95888 0.512048
vn -0.110145 0.956202 0.271194
v 0.753599 1.97273 0.519583
vn -0.0521618 0.201832 0.97803
v 0.362096 1.93371 0.483618
vn -0.135383 0.990793 -0.00122322
v 0.355223 1.93239 0.489268
vn -0.221959 0.973972 0.0459749
v 0.36501 1.93375 0.495796
vn -0.143877 0.987226 0.0684486
v 0.355541 1.91631 0.301617
vn -0.993894 -0.104163 -0.0363983
v 0.352227 1.89621 0.480346
vn -0.987338 -0.157719 -0.0169663
v 0.348756 1.92938 0.480215
vn -0.998955 -0.0422188 -0.0174952
v 0.391984 1.89575 0.132511
vn 0.102547 -0.994722 0.00336235
v 0.37179 1.89453 0.302215
vn 0.0735993 -0.997284 0.00280947
v 0.786707 1.93948 0.505074
vn 0.217978 -0.973963 0.0623098
v 0.776469 1.93812 0.510869
vn 0.138474 -0.987209 0.0790159
v 0.782759 1.9772 0.504925
vn 0.0115486 0.998446 0.0545239
v 0.779138 1.97625 0.514044
vn 0.0451873 0.97331 0.225001
v 0.387841 1.93534 0.132355
vn -0.105361 0.994424 -0.00447965
v 0.37537 1.93538 0.472785
vn -0.105398 0.994424 -0.00346753
v 0.366121 1.9166 0.110321
vn -0.918127 -0.0976064 -0.384078
v 0.361842 1.92934 0.122999
vn -0.997558 -0.0422232 -0.0556351
v 0.803913 1.94097 0.127315
vn 0.923282 -0.235778 -0.303249
v 0.797369 1.93968 0.120885
vn 0.261898 -0.941128 -0.213748
v 0.784412 1.93801 0.1172
vn 0.119706 -0.956909 -0.264566
v 0.772123 1.93788 0.113486
vn 0.0563065 -0.147923 -0.987395
v 0.584927 1.93954 0.105605
vn 0.0366094 -0.000114316 -0.99933
v 0.76848 1.97269 0.113349
vn 0.0195413 0.201614 -0.97927
v 0.780528 1.97513 0.117053
vn -0.0788484 0.959422 -0.270725
v 0.793546 1.97621 0.120741
vn 0.0615324 0.973262 -0.221303
v 0.800211 1.97635 0.127176
vn 0.796225 0.529227 -0.293163
v 0.802814 1.96237 0.126313
vn 0.943769 0.0975258 -0.315893
v 0.376524 1.89558 0.105473
vn -0.0451874 -0.97331 -0.225001
v 0.780292 1.93645 0.146732
vn 0.105669 -0.994395 0.00347652
v 0.79382 1.94249 0.496518
vn 0.997181 0.050265 0.0557106
v 0.783871 1.97729 0.317302
vn -0.0735993 0.997284 -0.00280945
v 0.379192 1.9337 0.108648
vn -0.138474 0.987209 -0.0790161
v 0.355451 1.89548 0.492341
vn -0.854703 -0.41946 0.305837
v 0.362115 1.89562 0.498776
vn -0.0615324 -0.973262 0.221303
v 0.375134 1.8967 0.502464
vn 0.0807978 -0.958863 0.272129
v 0.387181 1.89914 0.506168
vn -0.0252664 -0.148659 0.988566
v 0.56997 1.93959 0.513883
vn -0.0366093 0.000114328 0.99933
v 0.383538 1.93395 0.506031
vn -0.0640613 0.226512 0.971899
v 0.371249 1.93382 0.502317
vn -0.118285 0.956813 0.265553
v 0.358293 1.93214 0.498632
vn -0.261897 0.941128 0.213747
v 0.351749 1.93085 0.492202
vn -0.888788 0.355172 0.28967
v 0.352096 1.91665 0.493175
vn -0.94377 -0.097526 0.315892
v 0.379513 1.89579 0.472941
vn 0.10251 -0.994722 0.00437643
v 0.78296 1.93973 0.514188
vn 0.245548 -0.941074 0.232566
v 0.772458 1.97645 0.510718
vn -0.0689911 0.995074 0.0711938
v 0.367694 1.93368 0.30206
vn -0.134483 0.990903 -0.0050396
v 0.365313 1.89617 0.12313
vn -0.985935 -0.157723 -0.0552864
v 0.369406 1.89544 0.111403
vn -0.830041 -0.419531 -0.367459
v 0.579913 1.91602 0.309837
vn 0.10409 -0.99456 0.00392633
v 0.789958 1.94102 0.508254
vn 0.898617 -0.235699 0.370045
v 0.77619 1.97711 0.498783
vn -0.0729694 0.997334 0.00106209
v 0.375395 1.93367 0.12058
vn -0.13511 0.99079 -0.00891197
f 1//1 2//2 3//3
f 1//1 3//3 4//4
f 1//1 4//4 5//5
f 1//1 5//5 6//6
f 1//1 6//6 2//2
f 7//7 8//8 9//9
f 10//10 11//11 12//12
f 13//13 14//14 15//15
f 16//16 17//17 18//18
f 19//19 20//20 21//21
f 22//22 23//23 24//24
f 22//22 24//24 25//25
f 22//22 25//25 26//26
f 22//22 26//26 27//27
f 22//22 27//27 23//23
f 28//28 29//29 30//30
f 31//31 32//32 33//33
f 34//34 35//35 36//36
f 37//37 38//38 39//39
f 40//40 41//41 42//42
f 13//13 43//43 44//44
f 10//10 45//45 46//46
f 7//7 47//47 48//48
f 19//19 49//49 50//50
f 16//16 51//51 52//52
f 10//10 53//53 45//45
f 13//13 54//54 43//43
f 16//16 55//55 51//51
f 19//19 56//56 49//49
f 7//7 57//57 47//47
f 40//40 58//58 59//59
f 28//28 60//60 61//61
f 31//31 62//62 63//63
f 34//34 64//64 65//65
f 37//37 66//66 67//67
f 40//40 68//68 58//58
f 28//28 69//69 60//60
f 31//31 70//70 62//62
f 34//34 71//71 64//64
f 37//37 72//72 66//66
f 10//10 46//46 11//11
f 7//7 48//48 8//8
f 19//19 50//50 20//20
f 16//16 52//52 17//17
f 13//13 44//44 14//14
f 40//40 42//42 68//68
f 28//28 30//30 69//69
f 31//31 33//33 70//70
f 34//34 36//36 71//71
f 37//37 39//39 72//72
f 28//28 61//61 29//29
f 31//31 63//63 32//32
f 34//34 65//65 35//35
f 37//37 67//67 38//38
f 40//40 59//59 41//41
f 10//10 12//12 53//53
f 13//13 15//15 54//54
f 16//16 18//18 55//55
f 19//19 21//21 56//56
f 7//7 9//9 57//57
f 73//73 74//74 75//75
f 76//76 77//77 78//78
f 79//79 80//80 81//81
f 82//82 83//83 84//84
f 85//85 86//86 87//87
f 88//88 89//89 90//90
f 91//91 92//92 93//93
f 94//94 95//95 96//96
f 97//97 98//98 99//99
f 100//100 101//101 102//102
f 103//103 104//104 105//105
f 106//106 107//107 108//108
f 109//109 110//110 111//111
f 112//112 113//113 114//114
f 115//115 116//116 117//117
f 88//88 118//118 119//119
f 91//91 120//120 121//121
f 94//94 122//122 123//123
f 97//97 124//124 125//125
f 100//100 126//126 127//127
f 128//128 129//129 2//2
f 130//130 131//131 3//3
f 132//132 133//133 4//4
f 134//134 135//135 5//5
f 136//136 137//137 6//6
f 76//76 138//138 8//8
f 73//73 139//139 11//11
f 85//85 140//140 14//14
f 82//82 141//141 17//17
f 79//79 142//142 20//20
f 143//143 144//144 23//23
f 145//145 146//146 24//24
f 147//147 148//148 25//25
f 149//149 150//150 26//26
f 151//151 152//152 27//27
f 103//103 153//153 29//29
f 106//106 154//154 32//32
f 109//109 155//155 35//35
f 112//112 156//156 38//38
f 115//115 157//157 41//41
f 73//73 75//75 43//43
f 76//76 78//78 45//45
f 79//79 81//81 47//47
f 82//82 84//84 49//49
f 85//85 87//87 51//51
f 88//88 90//90 53//53
f 91//91 93//93 54//54
f 94//94 96//96 55//55
f 97//97 99//99 56//56
f 100//100 102//102 57//57
f 103//103 105//105 58//58
f 106//106 108//108 60//60
f 109//109 111//111 62//62
f 112//112 114//114 64//64
f 115//115 117//117 66//66
f 88//88 119//119 68//68
f 91//91 121//121 69//69
f 94//94 123//123 70//70
f 97//97 125//125 71//71
f 100//100 127//127 72//72
f 130//130 74//74 46//46
f 132//132 77//77 48//48
f 134//134 80//80 50//50
f 136//136 83//83 52//52
f 128//128 86//86 44//44
f 158//158 89//89 42//42
f 159//159 92//92 30//30
f 160//160 95//95 33//33
f 161//161 98//98 36//36
f 162//162 101//101 39//39
f 145//145 104//104 61//61
f 147//147 107//107 63//63
f 149//149 110//110 65//65
f 151//151 113//113 67//67
f 143//143 116//116 59//59
f 159//159 118//118 12//12
f 160//160 120//120 15//15
f 161//161 122//122 18//18
f 162//162 124//124 21//21
f 158//158 126//126 9//9
f 130//130 129//129 74//74
f 132//132 131//131 77//77
f 134//134 133//133 80//80
f 136//136 135//135 83//83
f 128//128 137//137 86//86
f 158//158 138//138 89//89
f 159//159 139//139 92//92
f 160//160 140//140 95//95
f 161//161 141//141 98//98
f 162//162 142//142 101//101
f 145//145 144//144 104//104
f 147//147 146//146 107//107
f 149//149 148//148 110//110
f 151//151 150//150 113//113
f 143//143 152//152 116//116
f 159//159 153//153 118//118
f 160//160 154//154 120//120
f 161//161 155//155 122//122
f 162//162 156//156 124//124
f 158//158 157//157 126//126
f 130//130 3//3 129//129
f 132//132 4//4 131//131
f 134//134 5//5 133//133
f 136//136 6//6 135//135
f 128//128 2//2 137//137
f 158//158 9//9 138//138
f 159//159 12//12 139//139
f 160//160 15//15 140//140
f 161//161 18//18 141//141
f 162//162 21//21 142//142
f 145//145 24//24 144//144
f 147//147 25//25 146//146
f 149//149 26//26 148//148
f 151//151 27//27 150//150
f 143//143 23//23 152//152
f 159//159 30//30 153//153
f 160//160 33//33 154//154
f 161//161 36//36 155//155
f 162//162 39//39 156//156
f 158//158 42//42 157//157
f 128//128 44//44 75//75
f 130//130 46//46 78//78
f 132//132 48//48 81//81
f 134//134 50//50 84//84
f 136//136 52//52 87//87
f 76//76 45//45 90//90
f 73//73 43//43 93//93
f 85//85 51//51 96//96
f 82//82 49//49 99//99
f 79//79 47//47 102//102
f 143//143 59//59 105//105
f 145//145 61//61 108//108
f 147//147 63//63 111//111
f 149//149 65//65 114//114
f 151//151 67//67 117//117
f 103//103 58//58 119//119
f 106//106 60//60 121//121
f 109//109 62//62 123//123
f 112//112 64//64 125//125
f 115//115 66//66 127//127
f 73//73 11//11 74//74
f 76//76 8//8 77//77
f 79//79 20//20 80//80
f 82//82 17//17 83//83
f 85//85 14//14 86//86
f 88//88 68//68 89//89
f 91//91 69//69 92//92
f 94//94 70//70 95//95
f 97//97 71//71 98//98
f 100//100 72//72 101//101
f 103//103 29//29 104//104
f 106//106 32//32 107//107
f 109//109 35//35 110//110
f 112//112 38//38 113//113
f 115//115 41//41 116//116
f 88//88 53//53 118//118
f 91//91 54//54 120//120
f 94//94 55//55 122//122
f 97//97 56//56 124//124
f 100//100 57//57 126//126
f 128//128 75//75 129//129
f 130//130 78//78 131//131
f 132//132 81//81 133//133
f 134//134 84//84 135//135
f 136//136 87//87 137//137
f 76//76 90//90 138//138
f 73//73 93//93 139//139
f 85//85 96//96 140//140
f 82//82 99//99 141//141
f 79//79 102//102 142//142
f 143//143 105//105 144//144
f 145//145 108//108 146//146
f 147//147 111//111 148//148
f 149//149 114//114 150//150
f 151//151 117//117 152//152
f 103//103 119//119 153//153
f 106//106 121//121 154//154
f 109//109 123//123 155//155
f 112//112 125//125 156//156
f 115//115 127//127 157//157
f 129//129 3//3 2//2
f 131//131 4//4 3//3
f 133//133 5//5 4//4
f 135//135 6//6 5//5
f 137//137 2//2 6//6
f 138//138 9//9 8//8
f 139//139 12//12 11//11
f 140//140 15//15 14//14
f 141//141 18//18 17//17
f 142//142 21//21 20//20
f 144//144 24//24 23//23
f 146//146 25//25 24//24
f 148//148 26//26 25//25
f 150//150 27//27 26//26
f 152//152 23//23 27//27
f 153//153 30//30 29//29
f 154//154 33//33 32//32
f 155//155 36//36 35//35
f 156//156 39//39 38//38
f 157//157 42//42 41//41
f 75//75 44//44 43//43
f 78//78 46//46 45//45
f 81//81 48//48 47//47
f 84//84 50//50 49//49
f 87//87 52//52 51//51
f 90//90 45//45 53//53
f 93//93 43//43 54//54
f 96//96 51//51 55//55
f 99//99 49//49 56//56
f 102//102 47//47 57//57
f 105//105 59//59 58//58
f 108//108 61//61 60//60
f 111//111 63//63 62//62
f 114//114 65//65 64//64
f 117//117 67//67 66//66
f 119//119 58//58 68//68
f 121//121 60//60 69//69
f 123//123 62//62 70//70
f 125//125 64//64 71//71
f 127//127 66//66 72//72
f 74//74 11//11 46//46
f 77//77 8//8 48//48
f 80//80 20//20 50//50
f 83//83 17//17 52//52
f 86//86 14//14 44//44
f 89//89 68//68 42//42
f 92//92 69//69 30//30
f 95//95 70//70 33//33
f 98//98 71//71 36//36
f 101//101 72//72 39//39
f 104//104 29//29 61//61
f 107//107 32//32 63//63
f 110//110 35//35 65//65
f 113//113 38//38 67//67
f 116//116 41//41 59//59
f 118//118 53//53 12//12
f 120//120 54//54 15//15
f 122//122 55//55 18//18
f 124//124 56//56 21//21
f 126//126 57//57 9//9
f 129//129 75//75 74//74
f 131//131 78//78 77//77
f 133//133 81//81 80//80
f 135//135 84//84 83//83
f 137//137 87//87 86//86
f 138//138 90//90 89//89
f 139//139 93//93 92//92
f 140//140 96//96 95//95
f 141//141 99//99 98//98
f 142//142 102//102 101//101
f 144//144 105//105 104//104
f 146//146 108//108 107//107
f 148//148 111//111 110//110
f 150//150 114//114 113//113
f 152//152 117//117 116//116
f 153//153 119//119 118//118
f 154//154 121//121 120//120
f 155//155 123//123 122//122
f 156//156 125//125 124//124
f 157//157 127//127 126//126
