# Created by Open3D 
# object name: part_001
# number of vertices: 162
# number of triangles: 320
v 0.68537 1.93039 0.550909
vn 0.980265 0.175054 0.0918522
v 0.678588 1.94947 0.570078
vn 0.93418 0.310069 0.176537
v 0.684544 1.918 0.572098
vn 0.964603 0.134941 0.226564
v 0.690732 1.88789 0.552481
vn 0.9921 0.0821439 0.0948195
v 0.687925 1.91732 0.53731
vn 0.986868 0.127482 -0.0991999
v 0.68181 1.94882 0.536925
vn 0.951296 0.307599 -0.0204932
v 0.784715 0.582846 0.586929
vn 0.994968 -0.0243798 0.0971823
v 0.782 0.596085 0.607432
vn 0.97307 0.0201038 0.229633
v 0.780727 0.564022 0.60711
vn 0.968835 -0.16 0.189102
v 0.724304 1.25642 0.591117
vn -0.0547508 0.0226464 0.998243
v 0.674728 1.88411 0.574045
vn -0.0724287 0.0217962 0.997135
v 0.71336 1.25559 0.590314
vn -0.0940313 0.0196739 0.995375
v 0.499858 1.95024 0.554798
vn -0.101679 0.0899733 0.99074
v 0.499328 1.95897 0.553382
vn -0.117176 0.803022 0.584316
v 0.339132 1.93897 0.539039
vn -0.113062 0.13978 0.983707
v 0.503485 1.94951 0.517472
vn 0.0912767 0.0511314 -0.994512
v 0.657663 1.94774 0.531962
vn 0.0957734 0.00968721 -0.995356
v 0.351392 1.92438 0.502651
vn 0.0933014 0.00949905 -0.995593
v 0.71785 1.39483 0.54823
vn 0.138513 -0.0162569 -0.990227
v 0.777043 0.657595 0.568783
vn 0.19703 -0.0119585 -0.980324
v 0.771128 0.627458 0.568394
vn 0.120895 -0.0180155 -0.992502
v 0.422883 0.555245 0.552301
vn -0.980265 -0.175054 -0.0918516
v 0.425777 0.536946 0.573141
vn -0.951852 -0.306512 0.00528833
v 0.419661 0.568446 0.572755
vn -0.990677 -0.129693 0.0416988
v 0.417479 0.597755 0.551163
vn -0.9921 -0.0821438 -0.0948195
v 0.423043 0.567765 0.537968
vn -0.949788 -0.134945 -0.282298
v 0.428999 0.536297 0.539988
vn -0.930711 -0.311742 -0.191296
v 0.379476 1.23012 0.558116
vn -0.138512 0.0162571 0.990227
v 0.429046 0.602422 0.575242
vn -0.120954 0.0171299 0.99251
v 0.390373 1.23095 0.559403
vn -0.0994095 0.0192636 0.99486
v 0.323539 1.90279 0.516281
vn -0.994968 0.0243802 -0.0971832
v 0.322206 1.89036 0.537421
vn -0.999143 -0.0148557 0.0386283
v 0.323637 1.92239 0.536108
vn -0.986507 0.163557 -0.00727739
v 0.373022 1.36853 0.515229
vn 0.0547505 -0.0226464 -0.998243
v 0.334278 1.82742 0.502862
vn -0.00609686 -0.026837 -0.999621
v 0.34027 1.85754 0.502451
vn 0.0721623 -0.0207234 -0.997178
v 0.607729 0.535524 0.555268
vn 0.101679 -0.0899725 -0.99074
v 0.453653 0.537277 0.539728
vn 0.0975853 -0.0486074 -0.994039
v 0.759925 0.560639 0.569039
vn 0.100057 -0.0484192 -0.993803
v 0.604101 0.536254 0.592594
vn -0.0912767 -0.0511321 0.994512
v 0.604861 0.527487 0.591645
vn -0.000519614 -0.779332 0.626611
v 0.764896 0.547513 0.607643
vn -0.0789405 -0.10113 0.991736
v 0.653934 1.94849 0.570338
vn -0.0975853 0.0486079 0.994039
v 0.660506 1.96349 0.569795
vn -0.0967923 0.141022 0.985263
v 0.773308 0.658346 0.607204
vn 0.00528002 0.026805 0.999627
v 0.685072 1.85522 0.575212
vn 0.00523796 0.0274096 0.999611
v 0.785381 0.595405 0.572645
vn 0.995276 0.0134268 -0.0961485
v 0.783785 0.625698 0.586219
vn 0.993048 0.0692854 0.0951631
v 0.678541 1.88335 0.534824
vn 0.121131 -0.0169881 -0.992491
v 0.688806 1.85447 0.536791
vn 0.198457 -0.0112334 -0.980045
v 0.502726 1.95828 0.518421
vn 0.0222338 0.655538 -0.754835
v 0.664065 1.96277 0.533179
vn 0.09521 0.102368 -0.99018
v 0.767316 0.628225 0.607615
vn -0.0723578 0.0208368 0.997161
v 0.347662 1.92513 0.541027
vn -0.100057 0.048419 0.993803
v 0.342691 1.93825 0.502423
vn 0.0789406 0.101131 -0.991736
v 0.706826 1.39572 0.546897
vn 0.0994091 -0.0192637 -0.99486
v 0.783949 0.563373 0.573958
vn 0.986175 -0.16552 -0.00784488
v 0.449923 0.538027 0.578104
vn -0.0957733 -0.0096872 0.995356
v 0.443522 0.522998 0.576887
vn -0.0952102 -0.102371 0.990179
v 0.330544 1.82817 0.541283
vn -0.197708 0.0119287 0.980188
v 0.418781 0.631303 0.573275
vn -0.197664 0.0113242 0.980205
v 0.325587 1.88968 0.502634
vn -0.958197 -0.0208901 -0.285346
v 0.324426 1.85994 0.517425
vn -0.993048 -0.0692855 -0.0951633
v 0.432858 0.601654 0.53602
vn 0.0725434 -0.0217039 -0.997129
v 0.422515 0.630551 0.534854
vn -0.00455066 -0.0273354 -0.999616
v 0.608259 0.526803 0.556684
vn 0.121016 -0.684382 -0.719011
v 0.447081 0.522282 0.540271
vn 0.0967924 -0.141022 -0.985263
v 0.756195 0.56139 0.607415
vn -0.0933014 -0.00949823 0.995593
v 0.336458 1.85831 0.541672
vn -0.121024 0.0180892 0.992485
v 0.32686 1.92175 0.502956
vn -0.965591 0.161375 -0.203943
v 0.383839 1.37108 0.515986
vn 0.0940315 -0.0196738 -0.995375
v 0.768455 0.546797 0.571027
vn 0.113062 -0.139779 -0.983707
v 0.665966 1.92614 0.572245
vn -0.0932177 0.0294903 0.995209
v 0.677648 1.91621 0.573259
vn -0.0164851 0.0371983 0.999172
v 0.66973 1.9483 0.571558
vn -0.0395124 0.0604677 0.997388
v 0.7791 0.618076 0.607908
vn 0.199827 0.0379212 0.979097
v 0.779214 0.658063 0.605969
vn 0.970435 0.0763606 0.228966
v 0.732894 1.25705 0.59101
vn 0.206517 0.0413553 0.977569
v 0.782709 0.617349 0.570768
vn 0.385641 0.00123041 -0.922648
v 0.726743 1.38896 0.550138
vn 0.390989 0.00422323 -0.920385
v 0.782599 0.657382 0.571142
vn 0.991118 0.0686939 -0.113866
v 0.669754 1.92538 0.533275
vn 0.100213 -0.00944416 -0.994921
v 0.673399 1.94756 0.533814
vn 0.153448 0.0216248 -0.98792
v 0.681375 1.91546 0.534914
vn 0.176295 -0.00160872 -0.984336
v 0.501177 1.96133 0.532171
vn -0.0734979 0.996939 -0.0266476
v 0.660344 1.97041 0.567914
vn -0.0221476 0.98828 0.151039
v 0.66357 1.96976 0.534724
vn 0.0131986 0.976485 -0.215182
v 0.764815 0.585329 0.608084
vn -0.0917873 0.0100873 0.995728
v 0.771787 0.563961 0.608561
vn -0.0341333 -0.0125237 0.999339
v 0.774911 0.596911 0.608523
vn -0.0147735 0.0139291 0.999794
v 0.338984 1.9012 0.540952
vn -0.101643 0.0288482 0.994403
v 0.352212 1.86024 0.54336
vn -0.0973119 0.0199116 0.995055
v 0.502217 1.91705 0.556606
vn -0.0974138 0.028931 0.994823
v 0.3321 1.93291 0.502115
vn -0.525522 0.356026 -0.772704
v 0.329606 1.93665 0.516038
vn -0.837726 0.538294 -0.0919533
v 0.34183 1.94521 0.503933
vn -0.119006 0.966401 -0.227832
v 0.5453 1.38394 0.53135
vn 0.0967206 -0.0194688 -0.995121
v 0.356061 1.85946 0.503754
vn 0.0961181 -0.0188973 -0.995191
v 0.662682 1.88285 0.533098
vn 0.0972325 -0.0188123 -0.995084
v 0.778927 0.55217 0.572557
vn 0.663096 -0.38372 -0.642699
v 0.775456 0.563223 0.570817
vn 0.158828 -0.0513657 -0.985969
v 0.782921 0.574702 0.571924
vn 0.342895 -0.0480631 -0.938143
v 0.437833 0.560387 0.576791
vn -0.100213 0.0094445 0.994921
v 0.426212 0.570312 0.575152
vn -0.1763 0.00160746 0.984335
v 0.434188 0.538209 0.576252
vn -0.15345 -0.0216263 0.98792
v 0.324877 1.86842 0.539298
vn -0.384707 -0.000707406 0.923038
v 0.324987 1.82839 0.538924
vn -0.996641 -0.0710856 0.0406607
v 0.371065 1.22945 0.556382
vn -0.390989 -0.00422315 0.920386
v 0.328487 1.86769 0.502158
vn -0.198416 -0.0371939 -0.979412
v 0.364914 1.36136 0.51551
vn -0.206514 -0.0413551 -0.977569
v 0.328372 1.8277 0.504097
vn -0.957909 -0.0766631 -0.276645
v 0.44162 0.559624 0.537821
vn 0.0932179 -0.0294911 -0.995209
v 0.437857 0.537471 0.538508
vn 0.0395131 -0.0604673 -0.997388
v 0.429939 0.569562 0.536807
vn 0.0164867 -0.0371982 -0.999172
v 0.60712 0.524291 0.570583
vn 0.0734976 -0.996939 0.0266475
v 0.444017 0.516012 0.575342
vn -0.0110631 -0.981595 0.190653
v 0.447243 0.515363 0.542152
vn 0.0247927 -0.984133 -0.175692
v 0.751525 0.626307 0.606312
vn -0.0961291 0.019026 0.995187
v 0.601563 0.569488 0.592626
vn -0.0960184 0.0100046 0.995329
v 0.332131 1.92254 0.539249
vn -0.158829 0.0513651 0.985969
v 0.328949 1.88961 0.539888
vn -0.178014 0.0248764 0.983713
v 0.335799 1.92181 0.501505
vn 0.0341344 0.0125236 -0.999339
v 0.328218 1.91035 0.501598
vn -0.155709 0.0103848 -0.987748
v 0.755375 0.625532 0.566706
vn 0.0973045 -0.0198275 -0.995057
v 0.448755 0.602143 0.537362
vn 0.0961959 -0.0199121 -0.995163
v 0.77868 0.548974 0.586834
vn 0.837725 -0.538294 0.0919539
v 0.768983 0.539906 0.572943
vn 0.156997 -0.974049 -0.163038
v 0.671766 1.95977 0.570345
vn 0.559004 0.541615 0.627828
v 0.678909 1.93809 0.572044
vn 0.148634 0.0855577 0.985184
v 0.684896 1.89588 0.573752
vn 0.199396 0.0438486 0.978937
v 0.690877 1.8563 0.57394
vn 0.970244 0.0789507 0.228897
v 0.738014 1.25684 0.568974
vn 0.992594 0.0757162 0.0949932
v 0.694262 1.85561 0.539114
vn 0.993331 0.0721797 -0.0899076
v 0.688506 1.89515 0.536613
vn 0.38285 0.00714582 -0.923783
v 0.682461 1.93737 0.5355
vn 0.335824 0.0478803 -0.940707
v 0.675206 1.95908 0.534951
vn 0.602223 0.442051 -0.664769
v 0.674437 1.96296 0.549039
vn 0.749434 0.65936 0.0599398
v 0.779369 0.575417 0.608467
vn 0.155705 -0.0103848 0.987749
v 0.658832 1.88363 0.572704
vn -0.0962008 0.0199964 0.995161
v 0.338604 1.94586 0.537123
vn -0.155538 0.978105 0.138272
v 0.506024 1.91628 0.51744
vn 0.0960185 -0.0100044 -0.995329
v 0.778637 0.596161 0.570178
vn 0.178013 -0.0248762 -0.983714
v 0.432381 0.52669 0.575115
vn -0.67144 -0.518982 0.528985
v 0.425126 0.548395 0.574566
vn -0.335821 -0.0478793 0.940708
v 0.419081 0.590613 0.573453
vn -0.384272 -0.00663467 0.923196
v 0.413325 0.630153 0.570952
vn -0.99645 -0.0736756 0.0407301
v 0.370284 1.22879 0.533781
vn -0.992594 -0.0757162 -0.0949933
v 0.41671 0.629472 0.536126
vn -0.950719 -0.0794316 -0.299705
v 0.422691 0.589887 0.536314
vn -0.200447 -0.0434772 -0.978739
v 0.428678 0.54768 0.538022
vn -0.148636 -0.0855582 -0.985184
v 0.435821 0.525998 0.539721
vn -0.46465 -0.469746 -0.750626
v 0.433849 0.52267 0.553833
vn -0.749432 -0.659362 -0.0599412
v 0.444905 0.602918 0.576968
vn -0.0972403 0.0189413 0.995081
v 0.324666 1.91107 0.538142
vn -0.342895 0.0480629 0.938143
v 0.332676 1.88886 0.501543
vn 0.014776 -0.0139289 -0.999794
v 0.60537 0.568722 0.55346
vn 0.0974138 -0.0289312 -0.994823
v 0.765757 0.540555 0.606133
vn 0.122328 -0.97142 0.203417
v 0.775487 0.552863 0.607951
vn 0.629874 -0.419719 0.653525
v 0.551859 1.24327 0.574935
vn -0.0967205 0.0194688 0.995121
v 0.32866 1.9336 0.537509
vn -0.74231 0.442351 0.50329
v 0.342772 1.90044 0.501982
vn 0.0917871 -0.0100875 -0.995728
v 0.768603 0.584567 0.569114
vn 0.101642 -0.0288477 -0.994403
f 1//1 2//2 3//3
f 1//1 3//3 4//4
f 1//1 4//4 5//5
f 1//1 5//5 6//6
f 1//1 6//6 2//2
f 7//7 8//8 9//9
f 10//10 11//11 12//12
f 13//13 14//14 15//15
f 16//16 17//17 18//18
f 19//19 20//20 21//21
f 22//22 23//23 24//24
f 22//22 24//24 25//25
f 22//22 25//25 26//26
f 22//22 26//26 27//27
f 22//22 27//27 23//23
f 28//28 29//29 30//30
f 31//31 32//32 33//33
f 34//34 35//35 36//36
f 37//37 38//38 39//39
f 40//40 41//41 42//42
f 13//13 43//43 44//44
f 10//10 45//45 46//46
f 7//7 47//47 48//48
f 19//19 49//49 50//50
f 16//16 51//51 52//52
f 10//10 53//53 45//45
f 13//13 54//54 43//43
f 16//16 55//55 51//51
f 19//19 56//56 49//49
f 7//7 57//57 47//47
f 40//40 58//58 59//59
f 28//28 60//60 61//61
f 31//31 62//62 63//63
f 34//34 64//64 65//65
f 37//37 66//66 67//67
f 40//40 68//68 58//58
f 28//28 69//69 60//60
f 31//31 70//70 62//62
f 34//34 71//71 64//64
f 37//37 72//72 66//66
f 10//10 46//46 11//11
f 7//7 48//48 8//8
f 19//19 50//50 20//20
f 16//16 52//52 17//17
f 13//13 44//44 14//14
f 40//40 42//42 68//68
f 28//28 30//30 69//69
f 31//31 33//33 70//70
f 34//34 36//36 71//71
f 37//37 39//39 72//72
f 28//28 61//61 29//29
f 31//31 63//63 32//32
f 34//34 65//65 35//35
f 37//37 67//67 38//38
f 40//40 59//59 41//41
f 10//10 12//12 53//53
f 13//13 15//15 54//54
f 16//16 18//18 55//55
f 19//19 21//21 56//56
f 7//7 9//9 57//57
f 73//73 74//74 75//75
f 76//76 77//77 78//78
f 79//79 80//80 81//81
f 82//82 83//83 84//84
f 85//85 86//86 87//87
f 88//88 89//89 90//90
f 91//91 92//92 93//93
f 94//94 95//95 96//96
f 97//97 98//98 99//99
f 100//100 101//101 102//102
f 103//103 104//104 105//105
f 106//106 107//107 108//108
f 109//109 110//110 111//111
f 112//112 113//113 114//114
f 115//115 116//116 117//117
f 88//88 118//118 119//119
f 91//91 120//120 121//121
f 94//94 122//122 123//123
f 97//97 124//124 125//125
f 100//100 126//126 127//127
f 128//128 129//129 2//2
f 130//130 131//131 3//3
f 132//132 133//133 4//4
f 134//134 135//135 5//5
f 136//136 137//137 6//6
f 76//76 138//138 8//8
f 73//73 139//139 11//11
f 85//85 140//140 14//14
f 82//82 141//141 17//17
f 79//79 142//142 20//20
f 143//143 144//144 23//23
f 145//145 146//146 24//24
f 147//147 148//148 25//25
f 149//149 150//150 26//26
f 151//151 152//152 27//27
f 103//103 153//153 29//29
f 106//106 154//154 32//32
f 109//109 155//155 35//35
f 112//112 156//156 38//38
f 115//115 157//157 41//41
f 73//73 75//75 43//43
f 76//76 78//78 45//45
f 79//79 81//81 47//47
f 82//82 84//84 49//49
f 85//85 87//87 51//51
f 88//88 90//90 53//53
f 91//91 93//93 54//54
f 94//94 96//96 55//55
f 97//97 99//99 56//56
f 100//100 102//102 57//57
f 103//103 105//105 58//58
f 106//106 108//108 60//60
f 109//109 111//111 62//62
f 112//112 114//114 64//64
f 115//115 117//117 66//66
f 88//88 119//119 68//68
f 91//91 121//121 69//69
f 94//94 123//123 70//70
f 97//97 125//125 71//71
f 100//100 127//127 72//72
f 130//130 74//74 46//46
f 132//132 77//77 48//48
f 134//134 80//80 50//50
f 136//136 83//83 52//52
f 128//128 86//86 44//44
f 158//158 89//89 42//42
f 159//159 92//92 30//30
f 160//160 95//95 33//33
f 161//161 98//98 36//36
f 162//162 101//101 39//39
f 145//145 104//104 61//61
f 147//147 107//107 63//63
f 149//149 110//110 65//65
f 151//151 113//113 67//67
f 143//143 116//116 59//59
f 159//159 118//118 12//12
f 160//160 120//120 15//15
f 161//161 122//122 18//18
f 162//162 124//124 21//21
f 158//158 126//126 9//9
f 130//130 129//129 74//74
f 132//132 131//131 77//77
f 134//134 133//133 80//80
f 136//136 135//135 83//83
f 128//128 137//137 86//86
f 158//158 138//138 89//89
f 159//159 139//139 92//92
f 160//160 140//140 95//95
f 161//161 141//141 98//98
f 162//162 142//142 101//101
f 145//145 144//144 104//104
f 147//147 146//146 107//107
f 149//149 148//148 110//110
f 151//151 150//150 113//113
f 143//143 152//152 116//116
f 159//159 153//153 118//118
f 160//160 154//154 120//120
f 161//161 155//155 122//122
f 162//162 156//156 124//124
f 158//158 157//157 126//126
f 130//130 3//3 129//129
f 132//132 4//4 131//131
f 134//134 5//5 133//133
f 136//136 6//6 135//135
f 128//128 2//2 137//137
f 158//158 9//9 138//138
f 159//159 12//12 139//139
f 160//160 15//15 140//140
f 161//161 18//18 141//141
f 162//162 21//21 142//142
f 145//145 24//24 144//144
f 147//147 25//25 146//146
f 149//149 26//26 148//148
f 151//151 27//27 150//150
f 143//143 23//23 152//152
f 159//159 30//30 153//153
f 160//160 33//33 154//154
f 161//161 36//36 155//155
f 162//162 39//39 156//156
f 158//158 42//42 157//157
f 128//128 44//44 75//75
f 130//130 46//46 78//78
f 132//132 48//48 81//81
f 134//134 50//50 84//84
f 136//136 52//52 87//87
f 76//76 45//45 90//90
f 73//73 43//43 93//93
f 85//85 51//51 96//96
f 82//82 49//49 99//99
f 79//79 47//47 102//102
f 143//143 59//59 105//105
f 145//145 61//61 108//108
f 147//147 63//63 111//111
f 149//149 65//65 114//114
f 151//151 67//67 117//117
f 103//103 58//58 119//119
f 106//106 60//60 121//121
f 109//109 62//62 123//123
f 112//112 64//64 125//125
f 115//115 66//66 127//127
f 73//73 11//11 74//74
f 76//76 8//8 77//77
f 79//79 20//20 80//80
f 82//82 17//17 83//83
f 85//85 14//14 86//86
f 88//88 68//68 89//89
f 91//91 69//69 92//92
f 94//94 70//70 95//95
f 97//97 71//71 98//98
f 100//100 72//72 101//101
f 103//103 29//29 104//104
f 106//106 32//32 107//107
f 109//109 35//35 110//110
f 112//112 38//38 113//113
f 115//115 41//41 116//116
f 88//88 53//53 118//118
f 91//91 54//54 120//120
f 94//94 55//55 122//122
f 97//97 56//56 124//124
f 100//100 57//57 126//126
f 128//128 75//75 129//129
f 130//130 78//78 131//131
f 132//132 81//81 133//133
f 134//134 84//84 135//135
f 136//136 87//87 137//137
f 76//76 90//90 138//138
f 73//73 93//93 139//139
f 85//85 96//96 140//140
f 82//82 99//99 141//141
f 79//79 102//102 142//142
f 143//143 105//105 144//144
f 145//145 108//108 146//146
f 147//147 111//111 148//148
f 149//149 114//114 150//150
f 151//151 117//117 152//152
f 103//103 119//119 153//153
f 106//106 121//121 154//154
f 109//109 123//123 155//155
f 112//112 125//125 156//156
f 115//115 127//127 157//157
f 129//129 3//3 2//2
f 131//131 4//4 3//3
f 133//133 5//5 4//4
f 135//135 6//6 5//5
f 137//137 2//2 6//6
f 138//138 9//9 8//8
f 139//139 12//12 11//11
f 140//140 15//15 14//14
f 141//141 18//18 17//17
f 142//142 21//21 20//20
f 144//144 24//24 23//23
f 146//146 25//25 24//24
f 148//148 26//26 25//25
f 150//150 27//27 26//26
f 152//152 23//23 27//27
f 153//153 30//30 29//29
f 154//154 33//33 32//32
f 155//155 36//36 35//35
f 156//156 39//39 38//38
f 157//157 42//42 41//41
f 75//75 44//44 43//43
f 78//78 46//46 45//45
f 81//81 48//48 47//47
f 84//84 50//50 49//49
f 87//87 52//52 51//51
f 90//90 45//45 53//53
f 93//93 43//43 54//54
f 96//96 51//51 55//55
f 99//99 49//49 56//56
f 102//102 47//47 57//57
f 105//105 59//59 58//58
f 108//108 61//61 60//60
f 111//111 63//63 62//62
f 114//114 65//65 64//64
f 117//117 67//67 66//66
f 119//119 58//58 68//68
f 121//121 60//60 69//69
f 123//123 62//62 70//70
f 125//125 64//64 71//71
f 127//127 66//66 72//72
f 74//74 11//11 46//46
f 77//77 8//8 48//48
f 80//80 20//20 50//50
f 83//83 17//17 52//52
f 86//86 14//14 44//44
f 89//89 68//68 42//42
f 92//92 69//69 30//30
f 95//95 70//70 33//33
f 98//98 71//71 36//36
f 101//101 72//72 39//39
f 104//104 29//29 61//61
f 107//107 32//32 63//63
f 110//110 35//35 65//65
f 113//113 38//38 67//67
f 116//116 41//41 59//59
f 118//118 53//53 12//12
f 120//120 54//54 15//15
f 122//122 55//55 18//18
f 124//124 56//56 21//21
f 126//126 57//57 9//9
f 129//129 75//75 74//74
f 131//131 78//78 77//77
f 133//133 81//81 80//80
f 135//135 84//84 83//83
f 137//137 87//87 86//86
f 138//138 90//90 89//89
f 139//139 93//93 92//92
f 140//140 96//96 95//95
f 141//141 99//99 98//98
f 142//142 102//102 101//101
f 144//144 105//105 104//104
f 146//146 108//108 107//107
f 148//148 111//111 110//110
f 150//150 114//114 113//113
f 152//152 117//117 116//116
f 153//153 119//119 118//118
f 154//154 121//121 120//120
f 155//155 123//123 122//122
f 156//156 125//125 124//124
f 157//157 127//127 126//126
