# Created by Open3D 
# object name: part_006
# number of vertices: 162
# number of triangles: 320
v 0.134055 1.46692 0.181409
vn -0.339041 0.937085 0.0832068
v 0.129239 1.46171 0.201078
vn -0.69678 0.706264 0.125256
v 0.136597 1.46484 0.202251
vn -0.145253 0.959745 0.240397
v 0.14338 1.46799 0.181803
vn 0.13659 0.986378 0.091656
v 0.136884 1.46803 0.167441
vn -0.14125 0.981566 -0.128748
v 0.129513 1.46475 0.167904
vn -0.697938 0.71596 -0.0168118
v 0.413832 1.41782 0.179212
vn 0.639071 0.765431 0.0755255
v 0.411053 1.41667 0.200096
vn 0.466998 0.852298 0.235587
v 0.416886 1.41123 0.198819
vn 0.897441 0.426486 0.112737
v 0.271984 1.43021 0.2024
vn -0.00211393 -0.0567229 0.998388
v 0.140927 1.44921 0.20309
vn -0.00693367 -0.0708986 0.997459
v 0.269708 1.41728 0.201439
vn -0.00782689 -0.0891694 0.995986
v 0.0893047 1.25234 0.183639
vn -0.322826 -0.0313021 0.94594
v 0.087499 1.25277 0.18247
vn -0.973685 0.156111 0.166032
v 0.0556434 1.06255 0.165584
vn -0.503695 0.00213875 0.863879
v 0.089613 1.25577 0.146289
vn -0.307246 0.141877 -0.940995
v 0.124295 1.43626 0.162611
vn -0.127028 0.115289 -0.985176
v 0.0605226 1.07439 0.128872
vn -0.127383 0.113265 -0.985365
v 0.24341 1.43888 0.163435
vn 0.0143131 0.125947 -0.991934
v 0.397561 1.4177 0.163139
vn 0.0241986 0.174233 -0.984407
v 0.401998 1.40705 0.161795
vn 0.0136012 0.111022 -0.993725
v 0.338491 0.990299 0.139353
vn 0.339041 -0.937085 -0.0832062
v 0.342978 0.991836 0.159718
vn 0.695697 -0.71831 0.00600559
v 0.335606 0.988553 0.160181
vn 0.142738 -0.987686 0.0640438
v 0.329163 0.98919 0.139393
vn -0.13659 -0.986378 -0.0916559
v 0.335894 0.991748 0.125371
vn 0.144809 -0.941948 -0.302927
v 0.343251 0.994881 0.126544
vn 0.699195 -0.701989 -0.135418
v 0.200183 1.02278 0.164414
vn -0.0143135 -0.125949 0.991933
v 0.331239 1.00377 0.163779
vn -0.00949989 -0.111846 0.99368
v 0.202455 1.03566 0.16586
vn -0.00861014 -0.0936129 0.995571
v 0.0587147 1.0394 0.14155
vn -0.63907 -0.765431 -0.0755255
v 0.0611501 1.03672 0.162336
vn -0.469509 -0.880239 0.0688495
v 0.0553308 1.04232 0.161977
vn -0.898525 -0.438532 0.0185232
v 0.17161 1.03145 0.125449
vn 0.00211338 0.0567202 -0.998388
v 0.0752467 1.04242 0.126036
vn -0.00828099 0.00669072 -0.999943
v 0.0708159 1.05313 0.126579
vn 0.00179679 0.0716393 -0.997429
v 0.383186 1.20425 0.143983
vn 0.322823 0.031303 -0.945942
v 0.348512 1.02385 0.12661
vn 0.143305 0.0657606 -0.987491
v 0.412285 1.38572 0.160349
vn 0.143668 0.067783 -0.987302
v 0.382877 1.20082 0.181333
vn 0.307246 -0.141877 0.940994
v 0.384702 1.20061 0.180136
vn 0.97107 -0.185185 0.150761
v 0.416544 1.39067 0.198678
vn 0.489486 -0.160095 0.857189
v 0.123978 1.43274 0.201012
vn -0.143308 -0.0657599 0.987491
v 0.12256 1.44227 0.200987
vn -0.501635 0.0138425 0.864969
v 0.397244 1.41417 0.201586
vn 0.0080312 -0.00734176 0.999941
v 0.148749 1.45778 0.203537
vn 0.00518526 -0.00684395 0.999963
v 0.41134 1.41987 0.165286
vn 0.465041 0.875165 -0.133506
v 0.405436 1.422 0.179745
vn 0.208831 0.9737 0.0910889
v 0.141251 1.45281 0.163843
vn 0.00892789 0.112104 -0.993656
v 0.149067 1.46131 0.16509
vn 0.0215484 0.175958 -0.984162
v 0.0877877 1.25598 0.147486
vn -0.95767 0.189011 -0.217124
v 0.122863 1.44563 0.164346
vn -0.487425 0.171799 -0.856097
v 0.401674 1.40345 0.201042
vn -0.00242357 -0.0716907 0.997424
v 0.0602057 1.07086 0.167273
vn -0.143664 -0.0677839 0.987302
v 0.0559459 1.06591 0.128944
vn -0.48948 0.160095 -0.857192
v 0.240781 1.42606 0.161992
vn 0.00860996 0.0936131 -0.995571
v 0.417159 1.41427 0.165645
vn 0.899667 0.435589 -0.0293562
v 0.348195 1.02032 0.165011
vn 0.127026 -0.115289 0.985177
v 0.349628 1.01096 0.163276
vn 0.48742 -0.171798 0.8561
v 0.0749294 1.03889 0.164483
vn -0.0244083 -0.174772 0.984306
v 0.323423 0.995279 0.162531
vn -0.0215625 -0.17527 0.984284
v 0.0614374 1.03991 0.127526
vn -0.461475 -0.835549 -0.29816
v 0.0671075 1.03518 0.141451
vn -0.208831 -0.9737 -0.0910888
v 0.331563 1.00737 0.124532
vn 0.00656083 0.0710688 -0.99745
v 0.323741 0.998808 0.124085
vn -0.00519621 0.00743244 -0.999959
v 0.384991 1.20382 0.145152
vn 0.961379 -0.147774 -0.232192
v 0.34993 1.01432 0.126635
vn 0.501635 -0.0138426 -0.864969
v 0.411968 1.3822 0.19875
vn 0.127385 -0.113266 0.985365
v 0.070492 1.04953 0.165827
vn -0.0140103 -0.111054 0.993716
v 0.0556046 1.04536 0.128803
vn -0.898411 -0.421617 -0.122871
v 0.173529 1.04444 0.126412
vn 0.00782707 0.0891694 -0.995986
v 0.416847 1.39404 0.162038
vn 0.503695 -0.00213878 -0.863879
v 0.130937 1.4441 0.202412
vn -0.0531587 -0.0798201 0.995391
v 0.135434 1.45657 0.203278
vn -0.0510999 -0.0147522 0.998585
v 0.127529 1.45122 0.202419
vn -0.168742 -0.0116033 0.985592
v 0.406222 1.416 0.201181
vn 0.0492395 0.153495 0.986922
v 0.398583 1.42102 0.200412
vn 0.176482 0.951799 0.250865
v 0.273761 1.44034 0.202416
vn 0.0361559 0.161891 0.986146
v 0.406529 1.41941 0.164017
vn 0.0632063 0.331696 -0.941266
v 0.24653 1.4486 0.165281
vn 0.0520486 0.338622 -0.939482
v 0.39887 1.42422 0.165562
vn 0.176889 0.971682 -0.156667
v 0.131258 1.44768 0.163416
vn -0.0367384 0.102766 -0.994027
v 0.127841 1.45469 0.164649
vn -0.152571 0.168232 -0.973869
v 0.135751 1.46009 0.164908
vn -0.0347252 0.167326 -0.98529
v 0.0870959 1.25481 0.161324
vn -0.984918 0.172849 0.00773497
v 0.121172 1.44289 0.199304
vn -0.982411 0.181141 0.0453535
v 0.121446 1.44594 0.166092
vn -0.98156 0.188256 -0.0331516
v 0.409316 1.39525 0.200226
vn 0.037966 -0.0958127 0.994675
v 0.414945 1.40078 0.200162
vn 0.169709 -0.0710027 0.982933
v 0.409346 1.4085 0.201127
vn 0.0582329 -0.0339383 0.997726
v 0.062852 1.05776 0.166392
vn -0.0543791 -0.0867748 0.994743
v 0.0736371 1.06824 0.167763
vn -0.0105801 -0.0914499 0.995753
v 0.0961934 1.25104 0.184506
vn -0.0526518 -0.0834992 0.995116
v 0.0546194 1.05285 0.128351
vn -0.939001 -0.0280372 -0.34277
v 0.0535886 1.05067 0.142371
vn -0.998395 -0.0550546 -0.0132928
v 0.054453 1.06579 0.130649
vn -0.985691 0.164814 -0.0353376
v 0.207042 1.23527 0.144126
vn 0.00821855 0.0913915 -0.995781
v 0.0739642 1.07188 0.128132
vn 0.00524999 0.0914375 -0.995797
v 0.137809 1.43416 0.161909
vn 0.00541253 0.0923582 -0.995711
v 0.418163 1.40698 0.163853
vn 0.944444 0.0885455 -0.316521
v 0.415256 1.40425 0.162392
vn 0.18588 0.108834 -0.976526
v 0.414735 1.41442 0.163928
vn 0.265087 0.248015 -0.931782
v 0.341232 1.0089 0.164206
vn 0.0367424 -0.102766 0.994027
v 0.33674 0.996496 0.162714
vn 0.0347283 -0.167328 0.985289
v 0.344649 1.0019 0.162972
vn 0.152572 -0.168232 0.973868
v 0.0659611 1.03718 0.163605
vn -0.0651551 -0.330484 0.94156
v 0.0736199 1.03237 0.16206
vn -0.179134 -0.981294 0.070515
v 0.198421 1.01282 0.162557
vn -0.0520487 -0.338622 0.939482
v 0.0662678 1.04059 0.126441
vn -0.0520065 -0.15171 -0.987056
v 0.17119 1.02108 0.125422
vn -0.0361551 -0.161887 -0.986147
v 0.0739075 1.03556 0.12721
vn -0.174341 -0.935653 -0.306853
v 0.341554 1.01248 0.12521
vn 0.0531549 0.0798208 -0.995391
v 0.344961 1.00536 0.125203
vn 0.168736 0.0116052 -0.985593
v 0.337056 1.00002 0.124344
vn 0.0510978 0.0147518 -0.998585
v 0.385455 1.20245 0.158981
vn 0.984918 -0.172849 -0.00773456
v 0.351044 1.01065 0.16153
vn 0.981808 -0.187846 0.0277004
v 0.351318 1.01369 0.128318
vn 0.982253 -0.180552 -0.0507915
v 0.398526 1.38471 0.19949
vn -0.00585681 -0.0913326 0.995803
v 0.375973 1.20194 0.182308
vn 0.0362364 -0.0990986 0.994418
v 0.0572338 1.05234 0.16523
vn -0.185875 -0.108837 0.976527
v 0.0628276 1.04457 0.164866
vn -0.0746079 -0.148142 0.986148
v 0.0575455 1.0558 0.12746
vn -0.169701 0.0710047 -0.982934
v 0.0580569 1.04552 0.127127
vn -0.249425 -0.0738762 -0.965572
v 0.398853 1.38835 0.159858
vn 0.0101841 0.0915186 -0.995751
v 0.335008 1.02606 0.126082
vn 0.0100228 0.0906024 -0.995837
v 0.418961 1.40658 0.178052
vn 0.998395 0.0550547 0.0132928
v 0.418311 1.39384 0.163761
vn 0.986384 -0.15711 -0.0486062
v 0.125769 1.455 0.201565
vn -0.893104 0.362646 0.266183
v 0.131516 1.46072 0.202717
vn -0.194632 0.151807 0.969058
v 0.140924 1.46256 0.203264
vn 0.0210081 0.158447 0.987144
v 0.149806 1.46468 0.202366
vn 0.161979 0.954344 0.250981
v 0.27456 1.44587 0.180407
vn 0.172826 0.980699 0.0914338
v 0.150093 1.46788 0.167516
vn 0.162941 0.978243 -0.128414
v 0.141231 1.46597 0.1661
vn 0.0337234 0.334762 -0.941699
v 0.131818 1.46407 0.16615
vn -0.178968 0.32594 -0.928296
v 0.126061 1.45825 0.166147
vn -0.862572 0.405669 -0.302329
v 0.12539 1.4581 0.180358
vn -0.919671 0.391666 0.0283558
v 0.414433 1.41107 0.200495
vn 0.249428 0.0738752 0.965572
v 0.137482 1.43052 0.20154
vn -0.0104181 -0.0905321 0.995839
v 0.0541789 1.06274 0.163861
vn -0.98656 0.157594 0.0431585
v 0.0965168 1.25464 0.145314
vn -0.0362364 0.0990984 -0.994418
v 0.409663 1.41202 0.162756
vn 0.0746064 0.148142 -0.986148
v 0.346429 0.998339 0.161475
vn 0.889171 -0.406378 0.210314
v 0.340673 0.992513 0.161472
vn 0.17897 -0.325938 0.928296
v 0.331259 0.99062 0.161522
vn -0.0369248 -0.335443 0.941337
v 0.322397 0.988707 0.160106
vn -0.164631 -0.98384 0.0704013
v 0.197991 1.01138 0.139898
vn -0.172826 -0.980699 -0.0914338
v 0.322684 0.991906 0.125256
vn -0.158108 -0.929254 -0.3339
v 0.331566 0.994031 0.124358
vn -0.0232603 -0.158958 -0.987011
v 0.340974 0.995869 0.124905
vn 0.194627 -0.151805 -0.969059
v 0.346721 1.00159 0.126057
vn 0.868012 -0.345161 -0.356958
v 0.34716 0.999146 0.140066
vn 0.91967 -0.391666 -0.0283558
v 0.334681 1.02243 0.165713
vn -0.00601838 -0.0922504 0.995718
v 0.0577551 1.04216 0.163694
vn -0.265087 -0.248015 0.931782
v 0.0631443 1.04809 0.126495
vn -0.058233 0.03394 -0.997726
v 0.376297 1.20554 0.143116
vn 0.0526537 0.0834986 -0.995116
v 0.418037 1.39079 0.196973
vn 0.985957 -0.164299 0.0298961
v 0.417871 1.40373 0.199271
vn 0.967162 0.0361777 0.251574
v 0.236081 1.22647 0.183727
vn -0.00821855 -0.0913915 0.995781
v 0.0543271 1.0496 0.163769
vn -0.971094 -0.0799098 0.224923
v 0.0631739 1.06134 0.127396
vn -0.0379699 0.0958133 -0.994675
v 0.409638 1.39883 0.16123
vn 0.0543861 0.0867737 -0.994742
f 1//1 2//2 3//3
f 1//1 3//3 4//4
f 1//1 4//4 5//5
f 1//1 5//5 6//6
f 1//1 6//6 2//2
f 7//7 8//8 9//9
f 10//10 11//11 12//12
f 13//13 14//14 15//15
f 16//16 17//17 18//18
f 19//19 20//20 21//21
f 22//22 23//23 24//24
f 22//22 24//24 25//25
f 22//22 25//25 26//26
f 22//22 26//26 27//27
f 22//22 27//27 23//23
f 28//28 29//29 30//30
f 31//31 32//32 33//33
f 34//34 35//35 36//36
f 37//37 38//38 39//39
f 40//40 41//41 42//42
f 13//13 43//43 44//44
f 10//10 45//45 46//46
f 7//7 47//47 48//48
f 19//19 49//49 50//50
f 16//16 51//51 52//52
f 10//10 53//53 45//45
f 13//13 54//54 43//43
f 16//16 55//55 51//51
f 19//19 56//56 49//49
f 7//7 57//57 47//47
f 40//40 58//58 59//59
f 28//28 60//60 61//61
f 31//31 62//62 63//63
f 34//34 64//64 65//65
f 37//37 66//66 67//67
f 40//40 68//68 58//58
f 28//28 69//69 60//60
f 31//31 70//70 62//62
f 34//34 71//71 64//64
f 37//37 72//72 66//66
f 10//10 46//46 11//11
f 7//7 48//48 8//8
f 19//19 50//50 20//20
f 16//16 52//52 17//17
f 13//13 44//44 14//14
f 40//40 42//42 68//68
f 28//28 30//30 69//69
f 31//31 33//33 70//70
f 34//34 36//36 71//71
f 37//37 39//39 72//72
f 28//28 61//61 29//29
f 31//31 63//63 32//32
f 34//34 65//65 35//35
f 37//37 67//67 38//38
f 40//40 59//59 41//41
f 10//10 12//12 53//53
f 13//13 15//15 54//54
f 16//16 18//18 55//55
f 19//19 21//21 56//56
f 7//7 9//9 57//57
f 73//73 74//74 75//75
f 76//76 77//77 78//78
f 79//79 80//80 81//81
f 82//82 83//83 84//84
f 85//85 86//86 87//87
f 88//88 89//89 90//90
f 91//91 92//92 93//93
f 94//94 95//95 96//96
f 97//97 98//98 99//99
f 100//100 101//101 102//102
f 103//103 104//104 105//105
f 106//106 107//107 108//108
f 109//109 110//110 111//111
f 112//112 113//113 114//114
f 115//115 116//116 117//117
f 88//88 118//118 119//119
f 91//91 120//120 121//121
f 94//94 122//122 123//123
f 97//97 124//124 125//125
f 100//100 126//126 127//127
f 128//128 129//129 2//2
f 130//130 131//131 3//3
f 132//132 133//133 4//4
f 134//134 135//135 5//5
f 136//136 137//137 6//6
f 76//76 138//138 8//8
f 73//73 139//139 11//11
f 85//85 140//140 14//14
f 82//82 141//141 17//17
f 79//79 142//142 20//20
f 143//143 144//144 23//23
f 145//145 146//146 24//24
f 147//147 148//148 25//25
f 149//149 150//150 26//26
f 151//151 152//152 27//27
f 103//103 153//153 29//29
f 106//106 154//154 32//32
f 109//109 155//155 35//35
f 112//112 156//156 38//38
f 115//115 157//157 41//41
f 73//73 75//75 43//43
f 76//76 78//78 45//45
f 79//79 81//81 47//47
f 82//82 84//84 49//49
f 85//85 87//87 51//51
f 88//88 90//90 53//53
f 91//91 93//93 54//54
f 94//94 96//96 55//55
f 97//97 99//99 56//56
f 100//100 102//102 57//57
f 103//103 105//105 58//58
f 106//106 108//108 60//60
f 109//109 111//111 62//62
f 112//112 114//114 64//64
f 115//115 117//117 66//66
f 88//88 119//119 68//68
f 91//91 121//121 69//69
f 94//94 123//123 70//70
f 97//97 125//125 71//71
f 100//100 127//127 72//72
f 130//130 74//74 46//46
f 132//132 77//77 48//48
f 134//134 80//80 50//50
f 136//136 83//83 52//52
f 128//128 86//86 44//44
f 158//158 89//89 42//42
f 159//159 92//92 30//30
f 160//160 95//95 33//33
f 161//161 98//98 36//36
f 162//162 101//101 39//39
f 145//145 104//104 61//61
f 147//147 107//107 63//63
f 149//149 110//110 65//65
f 151//151 113//113 67//67
f 143//143 116//116 59//59
f 159//159 118//118 12//12
f 160//160 120//120 15//15
f 161//161 122//122 18//18
f 162//162 124//124 21//21
f 158//158 126//126 9//9
f 130//130 129//129 74//74
f 132//132 131//131 77//77
f 134//134 133//133 80//80
f 136//136 135//135 83//83
f 128//128 137//137 86//86
f 158//158 138//138 89//89
f 159//159 139//139 92//92
f 160//160 140//140 95//95
f 161//161 141//141 98//98
f 162//162 142//142 101//101
f 145//145 144//144 104//104
f 147//147 146//146 107//107
f 149//149 148//148 110//110
f 151//151 150//150 113//113
f 143//143 152//152 116//116
f 159//159 153//153 118//118
f 160//160 154//154 120//120
f 161//161 155//155 122//122
f 162//162 156//156 124//124
f 158//158 157//157 126//126
f 130//130 3//3 129//129
f 132//132 4//4 131//131
f 134//134 5//5 133//133
f 136//136 6//6 135//135
f 128//128 2//2 137//137
f 158//158 9//9 138//138
f 159//159 12//12 139//139
f 160//160 15//15 140//140
f 161//161 18//18 141//141
f 162//162 21//21 142//142
f 145//145 24//24 144//144
f 147//147 25//25 146//146
f 149//149 26//26 148//148
f 151//151 27//27 150//150
f 143//143 23//23 152//152
f 159//159 30//30 153//153
f 160//160 33//33 154//154
f 161//161 36//36 155//155
f 162//162 39//39 156//156
f 158//158 42//42 157//157
f 128//128 44//44 75//75
f 130//130 46//46 78//78
f 132//132 48//48 81//81
f 134//134 50//50 84//84
f 136//136 52//52 87//87
f 76//76 45//45 90//90
f 73//73 43//43 93//93
f 85//85 51//51 96//96
f 82//82 49//49 99//99
f 79//79 47//47 102//102
f 143//143 59//59 105//105
f 145//145 61//61 108//108
f 147//147 63//63 111//111
f 149//149 65//65 114//114
f 151//151 67//67 117//117
f 103//103 58//58 119//119
f 106//106 60//60 121//121
f 109//109 62//62 123//123
f 112//112 64//64 125//125
f 115//115 66//66 127//127
f 73//73 11//11 74//74
f 76//76 8//8 77//77
f 79//79 20//20 80//80
f 82//82 17//17 83//83
f 85//85 14//14 86//86
f 88//88 68//68 89//89
f 91//91 69//69 92//92
f 94//94 70//70 95//95
f 97//97 71//71 98//98
f 100//100 72//72 101//101
f 103//103 29//29 104//104
f 106//106 32//32 107//107
f 109//109 35//35 110//110
f 112//112 38//38 113//113
f 115//115 41//41 116//116
f 88//88 53//53 118//118
f 91//91 54//54 120//120
f 94//94 55//55 122//122
f 97//97 56//56 124//124
f 100//100 57//57 126//126
f 128//128 75//75 129//129
f 130//130 78//78 131//131
f 132//132 81//81 133//133
f 134//134 84//84 135//135
f 136//136 87//87 137//137
f 76//76 90//90 138//138
f 73//73 93//93 139//139
f 85//85 96//96 140//140
f 82//82 99//99 141//141
f 79//79 102//102 142//142
f 143//143 105//105 144//144
f 145//145 108//108 146//146
f 147//147 111//111 148//148
f 149//149 114//114 150//150
f 151//151 117//117 152//152
f 103//103 119//119 153//153
f 106//106 121//121 154//154
f 109//109 123//123 155//155
f 112//112 125//125 156//156
f 115//115 127//127 157//157
f 129//129 3//3 2//2
f 131//131 4//4 3//3
f 133//133 5//5 4//4
f 135//135 6//6 5//5
f 137//137 2//2 6//6
f 138//138 9//9 8//8
f 139//139 12//12 11//11
f 140//140 15//15 14//14
f 141//141 18//18 17//17
f 142//142 21//21 20//20
f 144//144 24//24 23//23
f 146//146 25//25 24//24
f 148//148 26//26 25//25
f 150//150 27//27 26//26
f 152//152 23//23 27//27
f 153//153 30//30 29//29
f 154//154 33//33 32//32
f 155//155 36//36 35//35
f 156//156 39//39 38//38
f 157//157 42//42 41//41
f 75//75 44//44 43//43
f 78//78 46//46 45//45
f 81//81 48//48 47//47
f 84//84 50//50 49//49
f 87//87 52//52 51//51
f 90//90 45//45 53//53
f 93//93 43//43 54//54
f 96//96 51//51 55//55
f 99//99 49//49 56//56
f 102//102 47//47 57//57
f 105//105 59//59 58//58
f 108//108 61//61 60//60
f 111//111 63//63 62//62
f 114//114 65//65 64//64
f 117//117 67//67 66//66
f 119//119 58//58 68//68
f 121//121 60//60 69//69
f 123//123 62//62 70//70
f 125//125 64//64 71//71
f 127//127 66//66 72//72
f 74//74 11//11 46//46
f 77//77 8//8 48//48
f 80//80 20//20 50//50
f 83//83 17//17 52//52
f 86//86 14//14 44//44
f 89//89 68//68 42//42
f 92//92 69//69 30//30
f 95//95 70//70 33//33
f 98//98 71//71 36//36
f 101//101 72//72 39//39
f 104//104 29//29 61//61
f 107//107 32//32 63//63
f 110//110 35//35 65//65
f 113//113 38//38 67//67
f 116//116 41//41 59//59
f 118//118 53//53 12//12
f 120//120 54//54 15//15
f 122//122 55//55 18//18
f 124//124 56//56 21//21
f 126//126 57//57 9//9
f 129//129 75//75 74//74
f 131//131 78//78 77//77
f 133//133 81//81 80//80
f 135//135 84//84 83//83
f 137//137 87//87 86//86
f 138//138 90//90 89//89
f 139//139 93//93 92//92
f 140//140 96//96 95//95
f 141//141 99//99 98//98
f 142//142 102//102 101//101
f 144//144 105//105 104//104
f 146//146 108//108 107//107
f 148//148 111//111 110//110
f 150//150 114//114 113//113
f 152//152 117//117 116//116
f 153//153 119//119 118//118
f 154//154 121//121 120//120
f 155//155 123//123 122//122
f 156//156 125//125 124//124
f 157//157 127//127 126//126
