# Created by Open3D 
# object name: part_044
# number of vertices: 162
# number of triangles: 320
v -3.0149 9.51453 -0.0279762
vn 0.969004 -0.246503 -0.0163265
v -3.0138 9.52385 -0.00724521
vn 0.996247 -0.00598139 0.0863503
v -3.01756 9.50696 -0.00748691
vn 0.937198 -0.328774 0.116477
v -3.0225 9.4931 -0.0291066
vn 0.909036 -0.415842 -0.0269942
v -3.01759 9.50917 -0.042375
vn 0.92775 -0.30428 -0.216089
v -3.01383 9.52595 -0.0404937
vn 0.994743 0.00919154 -0.101992
v -3.32097 8.86962 -0.0685193
vn 0.805031 -0.592011 -0.0380466
v -3.3178 8.87432 -0.0472591
vn 0.841967 -0.529439 0.103851
v -3.32847 8.86081 -0.0489288
vn 0.631554 -0.774398 0.0380427
v -3.17587 9.19437 -0.0249262
vn 0.0378872 -0.0805981 0.996026
v -3.03631 9.49634 -0.00591211
vn 0.0226941 -0.0724481 0.997114
v -3.18608 9.19918 -0.0243705
vn 0.00314561 -0.0642305 0.99793
v -3.17648 9.60897 0.000362511
vn 0.0576599 0.0573605 0.996687
v -3.1745 9.61323 -0.000559838
vn 0.39697 0.812131 0.427619
v -3.32649 9.68047 0.00464071
vn 0.0901267 0.145127 0.9853
v -3.17651 9.61134 -0.0370717
vn 0.0561495 0.182447 -0.981611
v -3.0364 9.53727 -0.0423906
vn 0.0238873 0.11212 -0.993407
v -3.32273 9.67261 -0.0336144
vn 0.0216984 0.113155 -0.99334
v -3.14428 9.26346 -0.0600183
vn 0.0363745 0.0454974 -0.998302
v -3.30728 8.90829 -0.0819765
vn 0.0884068 0.0200655 -0.995882
v -3.32158 8.89779 -0.0830324
vn 0.0203663 0.0522693 -0.998425
v -3.65925 9.02952 -0.0581512
vn -0.969005 0.246502 0.016327
v -3.66032 9.01766 -0.0387578
vn -0.996114 -0.00504472 0.0879313
v -3.65656 9.03444 -0.0368765
vn -0.936989 0.311394 0.158386
v -3.65165 9.05092 -0.0565855
vn -0.909036 0.415841 0.0269942
v -3.65659 9.03665 -0.0717645
vn -0.928051 0.328977 -0.174627
v -3.66035 9.01976 -0.0720062
vn -0.994898 0.00362832 -0.10082
v -3.49825 9.34675 -0.0150453
vn -0.0363801 -0.0454947 0.998302
v -3.63781 9.04478 -0.0340046
vn -0.0211701 -0.0537244 0.998331
v -3.48804 9.34191 -0.0151152
vn -0.00162207 -0.061977 0.998076
v -3.35319 9.67442 -0.017608
vn -0.80503 0.592013 0.0380458
v -3.35632 9.66708 0.00289555
vn -0.841755 0.512066 0.170988
v -3.34565 9.6807 0.00292581
vn -0.631441 0.763362 0.136235
v -3.46667 9.41584 -0.0501379
vn -0.0379008 0.0806048 -0.996025
v -3.36689 9.63775 -0.0358077
vn -0.0912057 0.106227 -0.99015
v -3.35259 9.64831 -0.0355539
vn -0.021982 0.074387 -0.996987
v -3.49766 8.93464 -0.0796141
vn -0.0576624 -0.0573658 -0.996687
v -3.63778 9.00877 -0.0753479
vn -0.0254125 0.0138888 -0.999581
v -3.35144 8.87343 -0.0841241
vn -0.0232223 0.0128533 -0.999648
v -3.49764 8.93227 -0.0421797
vn -0.0561505 -0.182449 0.981611
v -3.49962 8.92816 -0.0436285
vn -0.396402 -0.859571 0.322495
v -3.34763 8.86081 -0.0471703
vn -0.0886462 -0.268095 0.959305
v -3.03637 9.53483 -0.00390355
vn 0.025414 -0.0138853 0.999581
v -3.02603 9.53846 -0.0045681
vn 0.104286 0.138433 0.984866
v -3.30725 8.90586 -0.0434437
vn 0.0904935 -0.105837 0.990257
v -3.03541 9.47865 -0.00743359
vn 0.0909814 -0.104802 0.990323
v -3.31783 8.87653 -0.082147
vn 0.833211 -0.503491 -0.228596
v -3.30918 8.88905 -0.0670818
vn 0.89832 -0.438423 -0.0284049
v -3.03634 9.49883 -0.0452469
vn 0.0214433 0.053861 -0.998318
v -3.03544 9.48109 -0.0459667
vn 0.0902174 0.0204756 -0.995712
v -3.17452 9.61545 -0.0356228
vn 0.369443 0.811035 -0.45358
v -3.02606 9.54078 -0.0412902
vn 0.10282 0.261423 -0.959732
v -3.32155 8.8953 -0.0436974
vn 0.0219121 -0.0740869 0.997011
v -3.3227 9.67017 0.00487264
vn 0.0232243 -0.0128499 0.999648
v -3.32651 9.6828 -0.0320813
vn 0.088649 0.2681 -0.959304
v -3.1541 9.26913 -0.0598969
vn 0.00162393 0.0619761 -0.998076
v -3.3285 8.86291 -0.0821772
vn 0.628031 -0.763484 -0.150566
v -3.63775 9.00634 -0.0368609
vn -0.0238892 -0.112123 0.993407
v -3.64809 9.00283 -0.0379613
vn -0.102818 -0.261418 0.959734
v -3.36687 9.63531 0.00272503
vn -0.088993 -0.0197346 0.995837
v -3.63871 9.06252 -0.0332848
vn -0.0894835 -0.0207693 0.995772
v -3.35634 9.66928 -0.0319925
vn -0.833507 0.528198 -0.162087
v -3.36497 9.65497 -0.0186102
vn -0.898319 0.438424 0.0284049
v -3.63784 9.04727 -0.0733395
vn -0.0225239 0.0725414 -0.997111
v -3.63874 9.06496 -0.0718179
vn -0.0903806 0.104572 -0.990402
v -3.49965 8.93038 -0.0786915
vn -0.370207 -0.747473 -0.551571
v -3.64812 9.00515 -0.0746834
vn -0.104292 -0.138444 -0.984864
v -3.35141 8.871 -0.045637
vn -0.0216995 -0.113159 0.99334
v -3.35256 9.64582 0.00378087
vn -0.0204019 -0.0520773 0.998435
v -3.34567 9.6828 -0.0303227
vn -0.628205 0.776292 -0.0522461
v -3.45607 9.41186 -0.0506419
vn -0.00314546 0.0642305 -0.99793
v -3.34766 8.86313 -0.0838922
vn -0.0901335 -0.145145 -0.985296
v -3.03194 9.51916 -0.00459861
vn 0.0123734 -0.0482613 0.998758
v -3.02423 9.50923 -0.00554673
vn 0.0818078 -0.0768378 0.993682
v -3.02204 9.52727 -0.00471027
vn 0.0831509 -0.0254833 0.996211
v -3.31388 8.88532 -0.0453826
vn 0.257873 -0.188205 0.947671
v -3.3021 8.90313 -0.0454298
vn 0.893996 -0.434063 0.111176
v -3.16792 9.19067 -0.0260923
vn 0.266265 -0.185827 0.945818
v -3.31391 8.88767 -0.0826297
vn 0.257645 -0.0669912 -0.963915
v -3.13782 9.25652 -0.059536
vn 0.264797 -0.0651851 -0.962098
v -3.30212 8.90534 -0.0803572
vn 0.881713 -0.406218 -0.239936
v -3.03197 9.52163 -0.0436817
vn 0.0108441 0.0779131 -0.996901
v -3.02207 9.52966 -0.0425648
vn 0.0816335 0.100203 -0.991612
v -3.02426 9.51167 -0.0440029
vn 0.0802907 0.0489409 -0.995569
v -3.17388 9.6159 -0.0216739
vn 0.428064 0.901967 0.0567098
v -3.02428 9.54181 -0.0060824
vn 0.457728 0.876819 0.14722
v -3.02431 9.54391 -0.0393686
vn 0.456828 0.888153 -0.0499285
v -3.33647 8.87748 -0.0449394
vn -0.00337917 -0.0814493 0.996672
v -3.33645 8.86476 -0.0463606
vn 0.023987 -0.150131 0.988375
v -3.32388 8.87785 -0.0452401
vn 0.0629169 -0.116634 0.99118
v -3.33764 9.66365 0.00477092
vn 0.00489724 -0.0447365 0.998987
v -3.33761 9.63916 0.00354189
vn 0.000662374 -0.062041 0.998073
v -3.18403 9.59302 0.000286067
vn 0.00844327 -0.046907 0.998864
v -3.3377 9.68539 -0.0312937
vn -0.138546 0.827184 -0.544584
v -3.33769 9.68657 -0.0170217
vn -0.158035 0.985458 0.062431
v -3.32511 9.68609 -0.0301494
vn 0.393834 0.917927 -0.048014
v -3.30496 9.34076 -0.05533
vn -0.000761048 0.0631037 -0.998007
v -3.33764 9.64167 -0.0361786
vn -0.000756367 0.0643868 -0.997925
v -3.05097 9.50617 -0.0449645
vn 0.000230369 0.0639202 -0.997955
v -3.33647 8.86046 -0.0834546
vn 0.137638 -0.752009 -0.644623
v -3.33648 8.86715 -0.0842148
vn 0.0224828 -0.024435 -0.999449
v -3.32624 8.86862 -0.0835249
vn 0.177991 -0.123807 -0.976213
v -3.64218 9.02197 -0.0355698
vn -0.0108446 -0.0779129 0.996901
v -3.64988 9.03194 -0.0352486
vn -0.0802907 -0.0489409 0.995569
v -3.65208 9.01394 -0.0366867
vn -0.0816335 -0.100203 0.991612
v -3.36024 9.65594 0.00337831
vn -0.256396 0.0673082 0.964225
v -3.37202 9.63827 0.00110567
vn -0.893783 0.416516 0.166333
v -3.5062 9.35057 -0.0157245
vn -0.264797 0.065185 0.962098
v -3.36027 9.65829 -0.0338689
vn -0.256081 0.1887 -0.948058
v -3.4761 9.41641 -0.0491682
vn -0.266258 0.185824 -0.94582
v -3.37205 9.64047 -0.0338217
vn -0.8865 0.433752 -0.161174
v -3.64221 9.02445 -0.0746529
vn -0.0123738 0.0482611 -0.998758
v -3.65211 9.01634 -0.0745412
vn -0.0831537 0.0254842 -0.996211
v -3.64991 9.03437 -0.0737046
vn -0.0818122 0.0768382 -0.993681
v -3.50027 8.92817 -0.0649101
vn -0.428064 -0.901967 -0.0567098
v -3.64984 8.99969 -0.0398828
vn -0.457591 -0.888422 0.0362952
v -3.64986 9.0018 -0.0731691
vn -0.456988 -0.874835 -0.160704
v -3.33651 8.90194 -0.0430729
vn 0.000859978 -0.0641654 0.997939
v -3.49009 8.94811 -0.0402577
vn -0.00691774 -0.0792743 0.996829
v -3.33766 9.67645 0.00496339
vn -0.022479 0.0244299 0.999449
v -3.35024 9.66332 0.00444463
vn -0.0614065 -0.00914953 0.998071
v -3.33769 9.67885 -0.032891
vn -0.0239863 0.150128 -0.988376
v -3.34793 9.6773 -0.032376
vn -0.179454 0.245777 -0.95257
v -3.33654 8.90445 -0.0827934
vn -0.000594777 0.0621854 -0.998064
v -3.62321 9.03995 -0.0740075
vn -0.00157843 0.0626503 -0.998034
v -3.33646 8.85749 -0.0694449
vn 0.158034 -0.985458 -0.0624321
v -3.34906 8.85962 -0.0823882
vn -0.393994 -0.904607 -0.162648
v -3.0169 9.53153 -0.00562851
vn 0.770667 0.408427 0.489142
v -3.01672 9.51845 -0.00587736
vn 0.257259 -0.0819015 0.962865
v -3.02365 9.49684 -0.00693773
vn 0.262687 -0.17804 0.948313
v -3.02995 9.47658 -0.00937855
vn 0.896153 -0.429517 0.111468
v -3.16518 9.19079 -0.0485605
vn 0.903748 -0.427167 -0.027702
v -3.02997 9.47879 -0.0443063
vn 0.888448 -0.405196 -0.215583
v -3.02368 9.4992 -0.044185
vn 0.260459 -0.055448 -0.963891
v -3.01674 9.52076 -0.0425266
vn 0.255752 0.0400604 -0.965912
v -3.01693 9.53377 -0.0411251
vn 0.699183 0.431242 -0.57024
v -3.01531 9.53419 -0.0269027
vn 0.864109 0.502343 0.0310978
v -3.32621 8.86631 -0.0468756
vn 0.179459 -0.245782 0.952568
v -3.05094 9.50366 -0.00524399
vn 0.00164826 -0.0625073 0.998043
v -3.32508 9.68399 0.00313688
vn 0.394382 0.906758 0.149174
v -3.18406 9.5955 -0.0389937
vn 0.0069185 0.0792757 -0.996829
v -3.32391 8.88028 -0.0836961
vn 0.061412 0.00914369 -0.998071
v -3.65722 9.00984 -0.0381264
vn -0.769975 -0.46686 0.434948
v -3.6574 9.02284 -0.0367248
vn -0.255752 -0.0400604 0.965912
v -3.65046 9.04441 -0.0350665
vn -0.261217 0.0571484 0.963587
v -3.64417 9.06482 -0.0349452
vn -0.89594 0.411968 0.166054
v -3.50897 9.35329 -0.0380235
vn -0.903748 0.427167 0.027702
v -3.6442 9.06703 -0.0698729
vn -0.884238 0.428479 -0.18582
v -3.65049 9.04676 -0.0723138
vn -0.263217 0.179198 -0.947948
v -3.65743 9.02516 -0.0733741
vn -0.257265 0.0819016 -0.962864
v -3.65725 9.01208 -0.0736229
vn -0.700093 -0.356049 -0.61895
v -3.65885 9.00987 -0.0595639
vn -0.864109 -0.502343 -0.0310981
v -3.62318 9.03744 -0.034287
vn -0.000124034 -0.0637005 0.997969
v -3.3479 9.67498 0.00427351
vn -0.177992 0.123804 0.976213
v -3.35027 9.66576 -0.0340113
vn -0.0629173 0.116628 -0.991181
v -3.49012 8.95059 -0.0795375
vn -0.00844327 0.046907 -0.998864
v -3.34904 8.85752 -0.049102
vn -0.394241 -0.918364 0.0343666
v -3.33644 8.85822 -0.0479578
vn 0.149122 -0.901266 0.406794
v -3.33706 9.27054 -0.0196657
vn 0.000761608 -0.063104 0.998007
v -3.33768 9.68315 0.00420323
vn -0.148411 0.842834 0.517306
v -3.33767 9.66613 -0.0343122
vn 0.00338023 0.081451 -0.996672
v -3.3365 8.87995 -0.0840224
vn -0.00489714 0.0447361 -0.998987
f 1//1 2//2 3//3
f 1//1 3//3 4//4
f 1//1 4//4 5//5
f 1//1 5//5 6//6
f 1//1 6//6 2//2
f 7//7 8//8 9//9
f 10//10 11//11 12//12
f 13//13 14//14 15//15
f 16//16 17//17 18//18
f 19//19 20//20 21//21
f 22//22 23//23 24//24
f 22//22 24//24 25//25
f 22//22 25//25 26//26
f 22//22 26//26 27//27
f 22//22 27//27 23//23
f 28//28 29//29 30//30
f 31//31 32//32 33//33
f 34//34 35//35 36//36
f 37//37 38//38 39//39
f 40//40 41//41 42//42
f 13//13 43//43 44//44
f 10//10 45//45 46//46
f 7//7 47//47 48//48
f 19//19 49//49 50//50
f 16//16 51//51 52//52
f 10//10 53//53 45//45
f 13//13 54//54 43//43
f 16//16 55//55 51//51
f 19//19 56//56 49//49
f 7//7 57//57 47//47
f 40//40 58//58 59//59
f 28//28 60//60 61//61
f 31//31 62//62 63//63
f 34//34 64//64 65//65
f 37//37 66//66 67//67
f 40//40 68//68 58//58
f 28//28 69//69 60//60
f 31//31 70//70 62//62
f 34//34 71//71 64//64
f 37//37 72//72 66//66
f 10//10 46//46 11//11
f 7//7 48//48 8//8
f 19//19 50//50 20//20
f 16//16 52//52 17//17
f 13//13 44//44 14//14
f 40//40 42//42 68//68
f 28//28 30//30 69//69
f 31//31 33//33 70//70
f 34//34 36//36 71//71
f 37//37 39//39 72//72
f 28//28 61//61 29//29
f 31//31 63//63 32//32
f 34//34 65//65 35//35
f 37//37 67//67 38//38
f 40//40 59//59 41//41
f 10//10 12//12 53//53
f 13//13 15//15 54//54
f 16//16 18//18 55//55
f 19//19 21//21 56//56
f 7//7 9//9 57//57
f 73//73 74//74 75//75
f 76//76 77//77 78//78
f 79//79 80//80 81//81
f 82//82 83//83 84//84
f 85//85 86//86 87//87
f 88//88 89//89 90//90
f 91//91 92//92 93//93
f 94//94 95//95 96//96
f 97//97 98//98 99//99
f 100//100 101//101 102//102
f 103//103 104//104 105//105
f 106//106 107//107 108//108
f 109//109 110//110 111//111
f 112//112 113//113 114//114
f 115//115 116//116 117//117
f 88//88 118//118 119//119
f 91//91 120//120 121//121
f 94//94 122//122 123//123
f 97//97 124//124 125//125
f 100//100 126//126 127//127
f 128//128 129//129 2//2
f 130//130 131//131 3//3
f 132//132 133//133 4//4
f 134//134 135//135 5//5
f 136//136 137//137 6//6
f 76//76 138//138 8//8
f 73//73 139//139 11//11
f 85//85 140//140 14//14
f 82//82 141//141 17//17
f 79//79 142//142 20//20
f 143//143 144//144 23//23
f 145//145 146//146 24//24
f 147//147 148//148 25//25
f 149//149 150//150 26//26
f 151//151 152//152 27//27
f 103//103 153//153 29//29
f 106//106 154//154 32//32
f 109//109 155//155 35//35
f 112//112 156//156 38//38
f 115//115 157//157 41//41
f 73//73 75//75 43//43
f 76//76 78//78 45//45
f 79//79 81//81 47//47
f 82//82 84//84 49//49
f 85//85 87//87 51//51
f 88//88 90//90 53//53
f 91//91 93//93 54//54
f 94//94 96//96 55//55
f 97//97 99//99 56//56
f 100//100 102//102 57//57
f 103//103 105//105 58//58
f 106//106 108//108 60//60
f 109//109 111//111 62//62
f 112//112 114//114 64//64
f 115//115 117//117 66//66
f 88//88 119//119 68//68
f 91//91 121//121 69//69
f 94//94 123//123 70//70
f 97//97 125//125 71//71
f 100//100 127//127 72//72
f 130//130 74//74 46//46
f 132//132 77//77 48//48
f 134//134 80//80 50//50
f 136//136 83//83 52//52
f 128//128 86//86 44//44
f 158//158 89//89 42//42
f 159//159 92//92 30//30
f 160//160 95//95 33//33
f 161//161 98//98 36//36
f 162//162 101//101 39//39
f 145//145 104//104 61//61
f 147//147 107//107 63//63
f 149//149 110//110 65//65
f 151//151 113//113 67//67
f 143//143 116//116 59//59
f 159//159 118//118 12//12
f 160//160 120//120 15//15
f 161//161 122//122 18//18
f 162//162 124//124 21//21
f 158//158 126//126 9//9
f 130//130 129//129 74//74
f 132//132 131//131 77//77
f 134//134 133//133 80//80
f 136//136 135//135 83//83
f 128//128 137//137 86//86
f 158//158 138//138 89//89
f 159//159 139//139 92//92
f 160//160 140//140 95//95
f 161//161 141//141 98//98
f 162//162 142//142 101//101
f 145//145 144//144 104//104
f 147//147 146//146 107//107
f 149//149 148//148 110//110
f 151//151 150//150 113//113
f 143//143 152//152 116//116
f 159//159 153//153 118//118
f 160//160 154//154 120//120
f 161//161 155//155 122//122
f 162//162 156//156 124//124
f 158//158 157//157 126//126
f 130//130 3//3 129//129
f 132//132 4//4 131//131
f 134//134 5//5 133//133
f 136//136 6//6 135//135
f 128//128 2//2 137//137
f 158//158 9//9 138//138
f 159//159 12//12 139//139
f 160//160 15//15 140//140
f 161//161 18//18 141//141
f 162//162 21//21 142//142
f 145//145 24//24 144//144
f 147//147 25//25 146//146
f 149//149 26//26 148//148
f 151//151 27//27 150//150
f 143//143 23//23 152//152
f 159//159 30//30 153//153
f 160//160 33//33 154//154
f 161//161 36//36 155//155
f 162//162 39//39 156//156
f 158//158 42//42 157//157
f 128//128 44//44 75//75
f 130//130 46//46 78//78
f 132//132 48//48 81//81
f 134//134 50//50 84//84
f 136//136 52//52 87//87
f 76//76 45//45 90//90
f 73//73 43//43 93//93
f 85//85 51//51 96//96
f 82//82 49//49 99//99
f 79//79 47//47 102//102
f 143//143 59//59 105//105
f 145//145 61//61 108//108
f 147//147 63//63 111//111
f 149//149 65//65 114//114
f 151//151 67//67 117//117
f 103//103 58//58 119//119
f 106//106 60//60 121//121
f 109//109 62//62 123//123
f 112//112 64//64 125//125
f 115//115 66//66 127//127
f 73//73 11//11 74//74
f 76//76 8//8 77//77
f 79//79 20//20 80//80
f 82//82 17//17 83//83
f 85//85 14//14 86//86
f 88//88 68//68 89//89
f 91//91 69//69 92//92
f 94//94 70//70 95//95
f 97//97 71//71 98//98
f 100//100 72//72 101//101
f 103//103 29//29 104//104
f 106//106 32//32 107//107
f 109//109 35//35 110//110
f 112//112 38//38 113//113
f 115//115 41//41 116//116
f 88//88 53//53 118//118
f 91//91 54//54 120//120
f 94//94 55//55 122//122
f 97//97 56//56 124//124
f 100//100 57//57 126//126
f 128//128 75//75 129//129
f 130//130 78//78 131//131
f 132//132 81//81 133//133
f 134//134 84//84 135//135
f 136//136 87//87 137//137
f 76//76 90//90 138//138
f 73//73 93//93 139//139
f 85//85 96//96 140//140
f 82//82 99//99 141//141
f 79//79 102//102 142//142
f 143//143 105//105 144//144
f 145//145 108//108 146//146
f 147//147 111//111 148//148
f 149//149 114//114 150//150
f 151//151 117//117 152//152
f 103//103 119//119 153//153
f 106//106 121//121 154//154
f 109//109 123//123 155//155
f 112//112 125//125 156//156
f 115//115 127//127 157//157
f 129//129 3//3 2//2
f 131//131 4//4 3//3
f 133//133 5//5 4//4
f 135//135 6//6 5//5
f 137//137 2//2 6//6
f 138//138 9//9 8//8
f 139//139 12//12 11//11
f 140//140 15//15 14//14
f 141//141 18//18 17//17
f 142//142 21//21 20//20
f 144//144 24//24 23//23
f 146//146 25//25 24//24
f 148//148 26//26 25//25
f 150//150 27//27 26//26
f 152//152 23//23 27//27
f 153//153 30//30 29//29
f 154//154 33//33 32//32
f 155//155 36//36 35//35
f 156//156 39//39 38//38
f 157//157 42//42 41//41
f 75//75 44//44 43//43
f 78//78 46//46 45//45
f 81//81 48//48 47//47
f 84//84 50//50 49//49
f 87//87 52//52 51//51
f 90//90 45//45 53//53
f 93//93 43//43 54//54
f 96//96 51//51 55//55
f 99//99 49//49 56//56
f 102//102 47//47 57//57
f 105//105 59//59 58//58
f 108//108 61//61 60//60
f 111//111 63//63 62//62
f 114//114 65//65 64//64
f 117//117 67//67 66//66
f 119//119 58//58 68//68
f 121//121 60//60 69//69
f 123//123 62//62 70//70
f 125//125 64//64 71//71
f 127//127 66//66 72//72
f 74//74 11//11 46//46
f 77//77 8//8 48//48
f 80//80 20//20 50//50
f 83//83 17//17 52//52
f 86//86 14//14 44//44
f 89//89 68//68 42//42
f 92//92 69//69 30//30
f 95//95 70//70 33//33
f 98//98 71//71 36//36
f 101//101 72//72 39//39
f 104//104 29//29 61//61
f 107//107 32//32 63//63
f 110//110 35//35 65//65
f 113//113 38//38 67//67
f 116//116 41//41 59//59
f 118//118 53//53 12//12
f 120//120 54//54 15//15
f 122//122 55//55 18//18
f 124//124 56//56 21//21
f 126//126 57//57 9//9
f 129//129 75//75 74//74
f 131//131 78//78 77//77
f 133//133 81//81 80//80
f 135//135 84//84 83//83
f 137//137 87//87 86//86
f 138//138 90//90 89//89
f 139//139 93//93 92//92
f 140//140 96//96 95//95
f 141//141 99//99 98//98
f 142//142 102//102 101//101
f 144//144 105//105 104//104
f 146//146 108//108 107//107
f 148//148 111//111 110//110
f 150//150 114//114 113//113
f 152//152 117//117 116//116
f 153//153 119//119 118//118
f 154//154 121//121 120//120
f 155//155 123//123 122//122
f 156//156 125//125 124//124
f 157//157 127//127 126//126
