# Created by Open3D 
# object name: part_020
# number of vertices: 162
# number of triangles: 320
v -1.27763 8.21233 -0.0984693
vn -0.0154379 -0.00936771 -0.999837
v -1.28413 8.16512 -0.0901861
vn -0.303718 -0.376136 -0.875372
v -1.30535 8.23189 -0.0930652
vn -0.580101 -0.0955726 -0.808919
v -1.30411 8.29924 -0.0886744
vn -0.079401 0.202389 -0.976081
v -1.27191 8.24206 -0.0936768
vn 0.642618 0.264885 -0.718942
v -1.25227 8.17481 -0.0907688
vn 0.481153 -0.133593 -0.866397
v -2.07656 10.8795 0.565304
vn -0.147355 0.430981 -0.890248
v -2.08909 10.8484 0.558085
vn -0.644138 0.118247 -0.755714
v -2.10554 10.9074 0.592259
vn -0.565369 0.497409 -0.657984
v -1.69554 9.52969 0.276493
vn -0.957254 -0.289094 0.00948211
v -1.32185 8.28311 -0.0163632
vn -0.956922 -0.290064 0.0127979
v -1.69105 9.5174 0.331309
vn -0.95664 -0.290778 0.0169854
v -1.20096 7.93756 0.793583
vn -0.946713 -0.321931 0.00972504
v -1.19464 7.9206 0.789255
vn -0.668104 -0.736375 -0.106719
v -1.13057 7.7558 1.59959
vn -0.938766 -0.34451 0.00565854
v -1.16508 7.94847 0.792927
vn 0.965406 0.259527 -0.0252551
v -1.23874 8.14669 0.0309395
vn 0.960327 0.278089 -0.0209272
v -1.10635 7.80379 1.56814
vn 0.960368 0.277984 -0.020454
v -1.57537 9.26566 0.207246
vn 0.955873 0.292671 -0.0255177
v -2.01515 10.731 0.546246
vn 0.9547 0.295281 -0.0368427
v -2.02875 10.7804 0.601572
vn 0.956134 0.292096 -0.0220804
v -1.92015 10.4744 2.38136
vn 0.0154404 0.00936718 0.999837
v -1.95211 10.51 2.37378
vn -0.432154 0.152365 0.888835
v -1.93246 10.4427 2.37669
vn -0.507678 -0.235211 0.828818
v -1.89409 10.3874 2.37158
vn 0.079401 -0.202388 0.976081
v -1.89902 10.4529 2.37608
vn 0.704954 0.1449 0.694294
v -1.92024 10.5197 2.3732
vn 0.35408 0.387582 0.851121
v -1.54648 9.14363 2.00721
vn -0.955873 -0.292671 0.025517
v -1.92022 10.3902 2.30007
vn -0.956248 -0.291715 0.022202
v -1.55144 9.15579 1.9524
vn -0.956551 -0.291007 0.0180141
v -1.12122 7.80723 1.71759
vn 0.147345 -0.430981 0.89025
v -1.14872 7.82622 1.72554
vn -0.443628 -0.449026 0.77561
v -1.1307 7.76772 1.69134
vn -0.170496 -0.721176 0.671444
v -1.42631 8.8796 1.93796
vn 0.957254 0.289094 -0.00948164
v -1.15229 7.96505 1.73609
vn 0.958137 0.286301 0.00213025
v -1.13793 7.91586 1.68075
vn 0.957068 0.289576 -0.0128805
v -2.00341 10.7472 1.48943
vn 0.946713 0.321931 -0.009725
v -1.92874 10.5493 2.2514
vn 0.952683 0.303639 -0.0140695
v -2.06113 10.8922 0.714198
vn 0.952642 0.303745 -0.0145425
v -2.03929 10.7363 1.49009
vn -0.965406 -0.259527 0.0252551
v -2.04334 10.754 1.49437
vn -0.960871 0.241019 0.136519
v -2.109 10.9183 0.684069
vn -0.971237 -0.236307 0.0292824
v -1.27563 8.13547 0.0316146
vn -0.952683 -0.30364 0.0140692
v -1.26949 8.11561 -0.0134114
vn -0.939035 -0.343811 0.00252827
v -2.05208 10.7197 0.546921
vn -0.958123 -0.286349 -0.00197704
v -1.34248 8.35074 -0.0426335
vn -0.958043 -0.286617 -0.00204467
v -2.05565 10.8586 0.557473
vn 0.587203 0.449875 -0.672908
v -2.05244 10.7975 0.533055
vn -0.0881101 0.231457 -0.968847
v -1.28415 8.29458 -0.0170532
vn 0.956261 0.291666 -0.0222514
v -1.30554 8.36197 -0.0433092
vn 0.95475 0.295074 -0.0371987
v -1.16103 7.93082 0.788641
vn 0.989205 -0.0996653 -0.107428
v -1.2343 8.12631 -0.0140554
vn 0.970968 0.237004 -0.0324129
v -2.06645 10.7689 0.602262
vn -0.957049 -0.28964 0.0129024
v -1.14324 7.79257 1.56882
vn -0.952642 -0.303746 0.014542
v -1.09537 7.76651 1.59895
vn 0.971237 0.236307 -0.0292824
v -1.5694 9.2501 0.261206
vn 0.956551 0.291007 -0.0180139
v -2.07367 10.9171 0.591676
vn 0.224504 0.723145 -0.653192
v -1.96563 10.5381 2.25207
vn -0.960327 -0.27809 0.0209269
v -1.97008 10.5585 2.29707
vn -0.970968 -0.237001 0.0324137
v -1.18923 7.95382 1.73677
vn -0.954683 -0.29532 0.0369716
v -1.89883 10.3228 2.32632
vn -0.954763 -0.295052 0.0370394
v -1.11528 7.83639 1.72493
vn 0.760366 -0.0400917 0.648257
v -1.14576 7.88913 1.74985
vn 0.088109 -0.231458 0.968847
v -1.88252 10.4017 2.29938
vn 0.956931 0.290033 -0.0128303
v -1.8619 10.334 2.32565
vn 0.958037 0.286637 0.00190804
v -2.00973 10.7642 1.49376
vn 0.769315 0.634421 0.0752594
v -1.93488 10.5692 2.29643
vn 0.939035 0.343811 -0.00252818
v -2.09802 10.881 0.714873
vn -0.960367 -0.277986 0.0204537
v -1.17563 7.90439 1.68144
vn -0.956121 -0.292138 0.0220955
v -1.09883 7.77741 1.69076
vn 0.610709 -0.469155 0.637909
v -1.42978 8.88849 1.8823
vn 0.95664 0.290778 -0.0169854
v -2.0738 10.929 0.683425
vn 0.938766 0.34451 -0.00565866
v -1.29412 8.19278 -0.00895486
vn -0.955372 -0.294993 0.0156279
v -1.30489 8.22633 -0.0581583
vn -0.956251 -0.292548 0.000716287
v -1.28292 8.15583 -0.0463282
vn -0.952535 -0.304423 0.00203982
v -2.07665 10.8031 0.553063
vn -0.960306 -0.275987 -0.040539
v -2.05321 10.728 0.518712
vn -0.618113 0.0132401 -0.785978
v -1.69833 9.53948 0.23381
vn -0.959936 -0.276999 -0.0423487
v -2.04094 10.8139 0.55241
vn 0.949466 0.304592 -0.0757477
v -1.58381 9.28785 0.167817
vn 0.949634 0.303684 -0.0772793
v -2.01974 10.7381 0.5181
vn 0.647107 0.363055 -0.670406
v -1.25666 8.20418 -0.00964009
vn 0.957798 0.286787 -0.0193712
v -1.24664 8.16687 -0.0469918
vn 0.960237 0.277235 -0.0329528
v -1.26803 8.23754 -0.0588327
vn 0.956668 0.289157 -0.03428
v -1.17267 7.92127 0.787513
vn 0.279117 -0.931835 -0.2319
v -1.26381 8.10258 -0.0177773
vn -0.0722832 -0.968787 -0.237123
v -1.23191 8.11228 -0.0183609
vn 0.628751 -0.73788 -0.245368
v -2.08906 10.8467 0.651504
vn -0.957938 -0.286426 0.0177598
v -2.10367 10.8959 0.635569
vn -0.962207 -0.272133 0.0100774
v -2.08708 10.8376 0.5917
vn -0.959337 -0.282243 0.00328208
v -1.15277 7.8267 1.6322
vn -0.955233 -0.295352 0.0172396
v -1.18223 7.92064 1.60167
vn -0.956522 -0.29113 0.0175528
v -1.22154 8.00304 0.809961
vn -0.955335 -0.295067 0.0164599
v -1.09395 7.76313 1.65573
vn 0.997745 0.000763393 0.0671201
v -1.10504 7.75104 1.65856
vn 0.284922 -0.92099 0.2657
v -1.09283 7.75207 1.59648
vn 0.633093 -0.74911 -0.195006
v -1.49919 9.06823 1.07148
vn 0.956596 0.290893 -0.0174998
v -1.14416 7.93222 1.60097
vn 0.956686 0.290598 -0.0174606
v -1.2767 8.2755 0.0620183
vn 0.956668 0.290646 -0.0176738
v -2.0764 10.932 0.626666
vn 0.826457 0.55396 -0.100489
v -2.06739 10.9069 0.634905
vn 0.950565 0.309524 -0.024914
v -2.06514 10.8946 0.587812
vn 0.94442 0.323117 -0.0605398
v -1.94772 10.4806 2.29265
vn -0.957798 -0.286787 0.0193712
v -1.93634 10.4472 2.34185
vn -0.956668 -0.289157 0.0342801
v -1.95774 10.5179 2.33001
vn -0.960237 -0.277235 0.0329528
v -1.16343 7.87083 1.7306
vn -0.949437 -0.30475 0.0754746
v -1.18464 7.94663 1.76491
vn -0.479443 -0.346998 0.806057
v -1.54192 9.13438 2.04986
vn -0.949634 -0.303683 0.0772755
v -1.12773 7.88169 1.72995
vn 0.960384 0.275772 0.0401614
v -1.4274 8.88275 1.98387
vn 0.959937 0.276999 0.0423504
v -1.15116 7.95681 1.7643
vn 0.723443 0.0426482 0.689066
v -1.91026 10.492 2.29197
vn 0.955372 0.294993 -0.015628
v -1.92145 10.5289 2.32934
vn 0.952535 0.304423 -0.00203991
v -1.89948 10.4584 2.34117
vn 0.956251 0.292548 -0.000716405
v -2.02467 10.7656 1.49537
vn -0.279111 0.931837 0.2319
v -1.97247 10.5725 2.30138
vn -0.591218 0.767026 0.249262
v -1.94056 10.5822 2.30079
vn 0.119519 0.965422 0.231679
v -2.06022 10.7526 0.682045
vn -0.956669 -0.290655 0.0174467
v -2.02048 10.6703 1.47374
vn -0.957837 -0.286712 0.0185391
v -1.13699 7.77786 1.64811
vn -0.950564 -0.309526 0.0249151
v -1.15416 7.83593 1.69199
vn -0.953582 -0.29946 0.0317142
v -1.1007 7.7889 1.64745
vn 0.962207 0.272132 -0.0100768
v -1.10411 7.80085 1.69456
vn 0.965864 0.25778 0.0255996
v -2.02214 10.7641 0.681348
vn 0.956533 0.291093 -0.0175617
v -1.8896 10.4208 2.2203
vn 0.956552 0.291046 -0.0173498
v -2.09242 10.9358 0.624326
vn -0.284924 0.920989 -0.265702
v -2.07964 10.9424 0.685955
vn 0.115188 0.976655 0.181317
v -1.27629 8.13692 -0.0657271
vn -0.789644 -0.554712 -0.262216
v -1.29236 8.18677 -0.0827702
vn -0.952775 -0.30148 -0.0364752
v -1.31906 8.2739 -0.0763582
vn -0.959488 -0.278718 -0.0412254
v -1.3428 8.35628 -0.0715141
vn -0.616665 0.00839794 -0.787181
v -1.67815 9.54931 0.218609
vn -0.0837656 0.216949 -0.972582
v -1.30932 8.36646 -0.0721265
vn 0.602562 0.355715 -0.714413
v -1.28336 8.28476 -0.0770111
vn 0.950387 0.301664 -0.0759147
v -1.25724 8.19745 -0.0834128
vn 0.957508 0.279424 -0.07142
v -1.24227 8.14727 -0.0663493
vn 0.972835 0.0652824 -0.222105
v -1.2541 8.13711 -0.0721755
vn 0.204161 -0.711811 -0.672044
v -2.10027 10.8839 0.588454
vn -0.965864 -0.257781 -0.0255984
v -1.31477 8.26393 0.0627149
vn -0.956541 -0.291083 0.0173403
v -1.12473 7.74236 1.59706
vn -0.0678495 -0.980284 -0.185579
v -1.18389 8.01449 0.809272
vn 0.957837 0.286713 -0.018539
v -2.05022 10.8488 0.591026
vn 0.953582 0.29946 -0.0317132
v -1.96211 10.5375 2.34936
vn -0.955461 0.0240409 0.294138
v -1.94714 10.4873 2.36643
vn -0.957508 -0.279424 0.0714199
v -1.92102 10.4 2.36003
vn -0.950256 -0.302017 0.0761508
v -1.89505 10.3183 2.35514
vn -0.480896 -0.342157 0.80726
v -1.51919 9.1376 2.06428
vn 0.0837654 -0.216949 0.972582
v -1.86157 10.3285 2.35453
vn 0.760459 0.0694884 0.645657
v -1.88532 10.4109 2.35937
vn 0.959555 0.278463 0.0413918
v -1.91201 10.498 2.36578
vn 0.952775 0.30148 0.0364751
v -1.92808 10.5478 2.34874
vn 0.851367 0.489442 0.188733
v -1.94336 10.5498 2.35506
vn -0.204163 0.711812 0.672042
v -1.92767 10.4093 2.221
vn -0.956651 -0.290702 0.0176593
v -1.13923 7.79016 1.6952
vn -0.944419 -0.32312 0.0605449
v -1.1173 7.84714 1.69131
vn 0.959338 0.282242 -0.00328023
v -1.98283 10.6817 1.47305
vn 0.955335 0.295067 -0.0164601
v -2.11155 10.9327 0.686539
vn -0.595662 0.77852 0.197718
v -2.11042 10.9216 0.627288
vn -0.989104 0.111179 -0.0965003
v -1.62132 9.33657 1.14186
vn -0.956596 -0.290893 0.0174998
v -1.12798 7.75279 1.65635
vn -0.756 -0.641851 0.128422
v -1.11531 7.83809 1.63151
vn 0.957937 0.286427 -0.0177596
v -2.0516 10.8581 0.650819
vn 0.955233 0.295352 -0.0172396
f 1//1 2//2 3//3
f 1//1 3//3 4//4
f 1//1 4//4 5//5
f 1//1 5//5 6//6
f 1//1 6//6 2//2
f 7//7 8//8 9//9
f 10//10 11//11 12//12
f 13//13 14//14 15//15
f 16//16 17//17 18//18
f 19//19 20//20 21//21
f 22//22 23//23 24//24
f 22//22 24//24 25//25
f 22//22 25//25 26//26
f 22//22 26//26 27//27
f 22//22 27//27 23//23
f 28//28 29//29 30//30
f 31//31 32//32 33//33
f 34//34 35//35 36//36
f 37//37 38//38 39//39
f 40//40 41//41 42//42
f 13//13 43//43 44//44
f 10//10 45//45 46//46
f 7//7 47//47 48//48
f 19//19 49//49 50//50
f 16//16 51//51 52//52
f 10//10 53//53 45//45
f 13//13 54//54 43//43
f 16//16 55//55 51//51
f 19//19 56//56 49//49
f 7//7 57//57 47//47
f 40//40 58//58 59//59
f 28//28 60//60 61//61
f 31//31 62//62 63//63
f 34//34 64//64 65//65
f 37//37 66//66 67//67
f 40//40 68//68 58//58
f 28//28 69//69 60//60
f 31//31 70//70 62//62
f 34//34 71//71 64//64
f 37//37 72//72 66//66
f 10//10 46//46 11//11
f 7//7 48//48 8//8
f 19//19 50//50 20//20
f 16//16 52//52 17//17
f 13//13 44//44 14//14
f 40//40 42//42 68//68
f 28//28 30//30 69//69
f 31//31 33//33 70//70
f 34//34 36//36 71//71
f 37//37 39//39 72//72
f 28//28 61//61 29//29
f 31//31 63//63 32//32
f 34//34 65//65 35//35
f 37//37 67//67 38//38
f 40//40 59//59 41//41
f 10//10 12//12 53//53
f 13//13 15//15 54//54
f 16//16 18//18 55//55
f 19//19 21//21 56//56
f 7//7 9//9 57//57
f 73//73 74//74 75//75
f 76//76 77//77 78//78
f 79//79 80//80 81//81
f 82//82 83//83 84//84
f 85//85 86//86 87//87
f 88//88 89//89 90//90
f 91//91 92//92 93//93
f 94//94 95//95 96//96
f 97//97 98//98 99//99
f 100//100 101//101 102//102
f 103//103 104//104 105//105
f 106//106 107//107 108//108
f 109//109 110//110 111//111
f 112//112 113//113 114//114
f 115//115 116//116 117//117
f 88//88 118//118 119//119
f 91//91 120//120 121//121
f 94//94 122//122 123//123
f 97//97 124//124 125//125
f 100//100 126//126 127//127
f 128//128 129//129 2//2
f 130//130 131//131 3//3
f 132//132 133//133 4//4
f 134//134 135//135 5//5
f 136//136 137//137 6//6
f 76//76 138//138 8//8
f 73//73 139//139 11//11
f 85//85 140//140 14//14
f 82//82 141//141 17//17
f 79//79 142//142 20//20
f 143//143 144//144 23//23
f 145//145 146//146 24//24
f 147//147 148//148 25//25
f 149//149 150//150 26//26
f 151//151 152//152 27//27
f 103//103 153//153 29//29
f 106//106 154//154 32//32
f 109//109 155//155 35//35
f 112//112 156//156 38//38
f 115//115 157//157 41//41
f 73//73 75//75 43//43
f 76//76 78//78 45//45
f 79//79 81//81 47//47
f 82//82 84//84 49//49
f 85//85 87//87 51//51
f 88//88 90//90 53//53
f 91//91 93//93 54//54
f 94//94 96//96 55//55
f 97//97 99//99 56//56
f 100//100 102//102 57//57
f 103//103 105//105 58//58
f 106//106 108//108 60//60
f 109//109 111//111 62//62
f 112//112 114//114 64//64
f 115//115 117//117 66//66
f 88//88 119//119 68//68
f 91//91 121//121 69//69
f 94//94 123//123 70//70
f 97//97 125//125 71//71
f 100//100 127//127 72//72
f 130//130 74//74 46//46
f 132//132 77//77 48//48
f 134//134 80//80 50//50
f 136//136 83//83 52//52
f 128//128 86//86 44//44
f 158//158 89//89 42//42
f 159//159 92//92 30//30
f 160//160 95//95 33//33
f 161//161 98//98 36//36
f 162//162 101//101 39//39
f 145//145 104//104 61//61
f 147//147 107//107 63//63
f 149//149 110//110 65//65
f 151//151 113//113 67//67
f 143//143 116//116 59//59
f 159//159 118//118 12//12
f 160//160 120//120 15//15
f 161//161 122//122 18//18
f 162//162 124//124 21//21
f 158//158 126//126 9//9
f 130//130 129//129 74//74
f 132//132 131//131 77//77
f 134//134 133//133 80//80
f 136//136 135//135 83//83
f 128//128 137//137 86//86
f 158//158 138//138 89//89
f 159//159 139//139 92//92
f 160//160 140//140 95//95
f 161//161 141//141 98//98
f 162//162 142//142 101//101
f 145//145 144//144 104//104
f 147//147 146//146 107//107
f 149//149 148//148 110//110
f 151//151 150//150 113//113
f 143//143 152//152 116//116
f 159//159 153//153 118//118
f 160//160 154//154 120//120
f 161//161 155//155 122//122
f 162//162 156//156 124//124
f 158//158 157//157 126//126
f 130//130 3//3 129//129
f 132//132 4//4 131//131
f 134//134 5//5 133//133
f 136//136 6//6 135//135
f 128//128 2//2 137//137
f 158//158 9//9 138//138
f 159//159 12//12 139//139
f 160//160 15//15 140//140
f 161//161 18//18 141//141
f 162//162 21//21 142//142
f 145//145 24//24 144//144
f 147//147 25//25 146//146
f 149//149 26//26 148//148
f 151//151 27//27 150//150
f 143//143 23//23 152//152
f 159//159 30//30 153//153
f 160//160 33//33 154//154
f 161//161 36//36 155//155
f 162//162 39//39 156//156
f 158//158 42//42 157//157
f 128//128 44//44 75//75
f 130//130 46//46 78//78
f 132//132 48//48 81//81
f 134//134 50//50 84//84
f 136//136 52//52 87//87
f 76//76 45//45 90//90
f 73//73 43//43 93//93
f 85//85 51//51 96//96
f 82//82 49//49 99//99
f 79//79 47//47 102//102
f 143//143 59//59 105//105
f 145//145 61//61 108//108
f 147//147 63//63 111//111
f 149//149 65//65 114//114
f 151//151 67//67 117//117
f 103//103 58//58 119//119
f 106//106 60//60 121//121
f 109//109 62//62 123//123
f 112//112 64//64 125//125
f 115//115 66//66 127//127
f 73//73 11//11 74//74
f 76//76 8//8 77//77
f 79//79 20//20 80//80
f 82//82 17//17 83//83
f 85//85 14//14 86//86
f 88//88 68//68 89//89
f 91//91 69//69 92//92
f 94//94 70//70 95//95
f 97//97 71//71 98//98
f 100//100 72//72 101//101
f 103//103 29//29 104//104
f 106//106 32//32 107//107
f 109//109 35//35 110//110
f 112//112 38//38 113//113
f 115//115 41//41 116//116
f 88//88 53//53 118//118
f 91//91 54//54 120//120
f 94//94 55//55 122//122
f 97//97 56//56 124//124
f 100//100 57//57 126//126
f 128//128 75//75 129//129
f 130//130 78//78 131//131
f 132//132 81//81 133//133
f 134//134 84//84 135//135
f 136//136 87//87 137//137
f 76//76 90//90 138//138
f 73//73 93//93 139//139
f 85//85 96//96 140//140
f 82//82 99//99 141//141
f 79//79 102//102 142//142
f 143//143 105//105 144//144
f 145//145 108//108 146//146
f 147//147 111//111 148//148
f 149//149 114//114 150//150
f 151//151 117//117 152//152
f 103//103 119//119 153//153
f 106//106 121//121 154//154
f 109//109 123//123 155//155
f 112//112 125//125 156//156
f 115//115 127//127 157//157
f 129//129 3//3 2//2
f 131//131 4//4 3//3
f 133//133 5//5 4//4
f 135//135 6//6 5//5
f 137//137 2//2 6//6
f 138//138 9//9 8//8
f 139//139 12//12 11//11
f 140//140 15//15 14//14
f 141//141 18//18 17//17
f 142//142 21//21 20//20
f 144//144 24//24 23//23
f 146//146 25//25 24//24
f 148//148 26//26 25//25
f 150//150 27//27 26//26
f 152//152 23//23 27//27
f 153//153 30//30 29//29
f 154//154 33//33 32//32
f 155//155 36//36 35//35
f 156//156 39//39 38//38
f 157//157 42//42 41//41
f 75//75 44//44 43//43
f 78//78 46//46 45//45
f 81//81 48//48 47//47
f 84//84 50//50 49//49
f 87//87 52//52 51//51
f 90//90 45//45 53//53
f 93//93 43//43 54//54
f 96//96 51//51 55//55
f 99//99 49//49 56//56
f 102//102 47//47 57//57
f 105//105 59//59 58//58
f 108//108 61//61 60//60
f 111//111 63//63 62//62
f 114//114 65//65 64//64
f 117//117 67//67 66//66
f 119//119 58//58 68//68
f 121//121 60//60 69//69
f 123//123 62//62 70//70
f 125//125 64//64 71//71
f 127//127 66//66 72//72
f 74//74 11//11 46//46
f 77//77 8//8 48//48
f 80//80 20//20 50//50
f 83//83 17//17 52//52
f 86//86 14//14 44//44
f 89//89 68//68 42//42
f 92//92 69//69 30//30
f 95//95 70//70 33//33
f 98//98 71//71 36//36
f 101//101 72//72 39//39
f 104//104 29//29 61//61
f 107//107 32//32 63//63
f 110//110 35//35 65//65
f 113//113 38//38 67//67
f 116//116 41//41 59//59
f 118//118 53//53 12//12
f 120//120 54//54 15//15
f 122//122 55//55 18//18
f 124//124 56//56 21//21
f 126//126 57//57 9//9
f 129//129 75//75 74//74
f 131//131 78//78 77//77
f 133//133 81//81 80//80
f 135//135 84//84 83//83
f 137//137 87//87 86//86
f 138//138 90//90 89//89
f 139//139 93//93 92//92
f 140//140 96//96 95//95
f 141//141 99//99 98//98
f 142//142 102//102 101//101
f 144//144 105//105 104//104
f 146//146 108//108 107//107
f 148//148 111//111 110//110
f 150//150 114//114 113//113
f 152//152 117//117 116//116
f 153//153 119//119 118//118
f 154//154 121//121 120//120
f 155//155 123//123 122//122
f 156//156 125//125 124//124
f 157//157 127//127 126//126
