# Created by Open3D 
# object name: part_008
# number of vertices: 162
# number of triangles: 320
v -0.456861 5.53865 1.83109
vn 0.252071 -0.839709 0.480987
v -0.482793 5.55612 1.85567
vn -0.190584 -0.64104 0.743469
v -0.476459 5.53069 1.81446
vn -0.433624 -0.869631 0.236034
v -0.452806 5.52266 1.77534
vn 0.28349 -0.957478 0.0535669
v -0.442937 5.5406 1.81419
vn 0.922338 -0.33917 0.185082
v -0.450846 5.56556 1.85542
vn 0.562402 -0.401874 0.722634
v -0.45974 5.50075 0.0609949
vn 0.250565 -0.859542 -0.445426
v -0.479283 5.49351 0.07802
vn -0.434328 -0.878907 -0.197187
v -0.485753 5.51715 0.035778
vn -0.192955 -0.67226 -0.714727
v -0.497022 5.56908 0.94505
vn -0.957168 -0.28943 0.00775376
v -0.502088 5.60831 1.76945
vn -0.957918 -0.286929 0.00806896
v -0.51851 5.64087 0.943548
vn -0.958831 -0.283874 0.00763747
v -0.830191 6.72368 1.84999
vn -0.957452 -0.28192 0.0616918
v -0.829033 6.72426 1.86147
vn -0.678356 -0.185778 0.710859
v -1.14259 7.7811 1.82916
vn -0.954978 -0.279116 0.100558
v -0.794222 6.73431 1.8497
vn 0.957629 0.284235 0.0464512
v -0.495699 5.72648 1.85313
vn 0.958795 0.283723 0.0146227
v -1.09179 7.74169 1.81095
vn 0.958691 0.284074 0.0146158
v -0.458982 5.58415 1.12757
vn 0.960684 0.277544 -0.00750498
v -0.451477 5.53139 0.159331
vn 0.963085 0.269093 -0.00754249
v -0.466976 5.58416 0.119446
vn 0.959952 0.280056 -0.00786139
v -1.16397 7.88153 0.0111672
vn -0.252071 0.839708 -0.480989
v -1.17659 7.85266 -0.0131021
vn -0.519344 0.431164 -0.737821
v -1.1845 7.87763 0.0281226
vn -0.840154 0.493062 -0.225899
v -1.16844 7.89739 0.0669198
vn -0.283488 0.957478 -0.0535668
v -1.15098 7.88754 0.0278559
vn 0.586865 0.785332 -0.197089
v -1.14464 7.86211 -0.0133561
vn 0.242863 0.639935 -0.729041
v -1.16815 7.83798 0.897564
vn -0.960684 -0.277544 0.00750497
v -1.16314 7.79874 0.0731638
vn -0.959958 -0.280052 0.00718998
v -1.14713 7.76606 0.899069
vn -0.959057 -0.283111 0.0076215
v -1.16109 7.91943 1.78127
vn -0.250563 0.859543 0.445426
v -1.18167 7.91481 1.76456
vn -0.839447 0.502341 0.207321
v -1.17363 7.89163 1.80679
vn -0.516972 0.462385 0.720375
v -1.13011 7.85306 1.08009
vn 0.957168 0.28943 -0.00775374
v -1.13893 7.89778 1.68269
vn 0.954522 0.298043 -0.00767965
v -1.12266 7.84524 1.72257
vn 0.957911 0.286973 -0.00723731
v -0.797243 6.69455 -0.00767765
vn 0.957452 0.28192 -0.0616918
v -1.09475 7.70268 -0.0111094
vn 0.958619 0.283121 -0.0298791
v -0.498663 5.68747 0.0310671
vn 0.958722 0.282771 -0.0298697
v -0.833212 6.68391 -0.00739146
vn -0.957629 -0.284235 -0.0464526
v -0.832092 6.684 -0.0188867
vn -0.680651 -0.215986 -0.700046
v -0.52013 5.6267 0.0134317
vn -0.954596 -0.285411 -0.085364
v -0.532679 5.71555 1.85342
vn -0.958619 -0.283121 0.0298788
v -0.517104 5.66652 1.87342
vn -0.954293 -0.28143 0.100608
v -0.488502 5.52045 0.159625
vn -0.954558 -0.297927 0.00769879
v -0.485945 5.55411 1.7318
vn -0.954557 -0.297917 0.00816389
v -0.445761 5.50342 0.0777534
vn 0.921755 -0.346847 -0.173395
v -0.455503 5.48716 0.117364
vn 0.283379 -0.958914 -0.0134584
v -0.464292 5.61948 1.76915
vn 0.959966 0.280028 -0.0070919
v -0.44892 5.56505 1.73151
vn 0.963146 0.268888 -0.00706947
v -0.795342 6.73422 1.8612
vn 0.789177 0.245221 0.563086
v -0.481819 5.67695 1.87314
vn 0.95528 0.283097 0.0854145
v -0.504771 5.57299 0.119747
vn -0.957919 -0.286945 0.00733431
v -1.12877 7.73076 1.81125
vn -0.958722 -0.282771 0.0298692
v -1.1073 7.79153 1.82888
vn 0.954596 0.285411 0.0853635
v -0.48 5.65613 1.12833
vn 0.959057 0.283111 -0.00762151
v -0.453806 5.5266 0.0355238
vn 0.56008 -0.432475 -0.706595
v -1.13174 7.69175 -0.0108151
vn -0.958795 -0.283723 -0.0146227
v -1.14561 7.74128 -0.0308245
vn -0.95528 -0.283097 -0.0854153
v -1.17596 7.88683 1.68298
vn -0.963112 -0.268993 0.00755854
v -1.17851 7.85317 0.110803
vn -0.963113 -0.269003 0.0070934
v -1.14815 7.92472 1.76429
vn 0.587446 0.793008 0.161387
v -1.16574 7.93289 1.7249
vn -0.283379 0.958914 0.0134582
v -1.12535 7.80992 0.072863
vn 0.957923 0.286913 -0.00800485
v -1.14149 7.86412 0.110509
vn 0.954587 0.29782 -0.00814373
v -0.798401 6.69396 -0.0191548
vn 0.787327 0.220841 -0.575626
v -1.11033 7.75171 -0.0311052
vn 0.954293 0.28143 -0.10061
v -0.535643 5.67654 0.0313614
vn -0.958691 -0.284074 -0.0146158
v -1.16046 7.83406 1.72287
vn -0.959957 -0.280037 0.00792482
v -1.14168 7.90107 1.80653
vn 0.245192 0.670534 0.700189
v -1.10862 7.78132 1.08385
vn 0.958831 0.283874 -0.00763746
v -0.484845 5.63713 0.0131508
vn 0.954978 0.279116 -0.100558
v -0.512861 5.64667 1.82445
vn -0.958729 -0.283923 0.0150702
v -0.491449 5.57502 1.81181
vn -0.955424 -0.294758 0.0168058
v -0.501892 5.61253 1.85376
vn -0.955978 -0.291247 0.0358029
v -0.482627 5.50143 0.106841
vn -0.945164 -0.326538 0.0061562
v -0.475715 5.48356 0.159499
vn -0.446092 -0.894863 0.0148945
v -0.47959 5.51341 0.946213
vn -0.944791 -0.327563 0.00855008
v -0.446838 5.51201 0.106556
vn 0.970805 0.239712 -0.00873191
v -0.443337 5.52777 1.12016
vn 0.971042 0.238817 -0.0066927
v -0.442154 5.49348 0.159232
vn 0.950145 -0.311807 0.00112022
v -0.475307 5.65778 1.82415
vn 0.959106 0.283046 -0.000189692
v -0.46552 5.62329 1.85347
vn 0.961083 0.275494 0.0205497
v -0.454499 5.58594 1.81152
vn 0.96225 0.272164 0.00154836
v -0.808659 6.73036 1.86496
vn 0.00162409 0.0214047 0.99977
v -0.515083 5.666 1.88254
vn -0.208647 -0.0546453 0.976463
v -0.483099 5.67545 1.88229
vn 0.249018 0.080655 0.965135
v -0.515726 5.60897 0.0631903
vn -0.958753 -0.284241 0.000213951
v -0.50485 5.5736 0.0353322
vn -0.956069 -0.292446 -0.0201958
v -0.494268 5.53791 0.0788166
vn -0.955453 -0.295141 -0.00106671
v -1.14926 7.79816 1.77942
vn -0.959082 -0.282728 0.0150449
v -1.12984 7.7299 1.72599
vn -0.958967 -0.283406 0.00799946
v -0.831148 6.72248 1.80637
vn -0.958907 -0.28333 0.014875
v -1.12905 7.86272 1.82144
vn 0.841701 0.368359 0.394781
v -1.14431 7.86448 1.82607
vn -0.0687361 0.258445 0.963577
v -1.1093 7.79244 1.83798
vn 0.241836 0.104926 0.964627
v -0.794236 6.71876 1.10681
vn 0.958944 0.283493 -0.00762948
v -1.09168 7.74119 1.72568
vn 0.958921 0.283582 -0.00716105
v -0.494906 5.72368 1.76791
vn 0.958968 0.283424 -0.00715771
v -0.464275 5.56558 0.0206062
vn 0.900815 0.146781 -0.408642
v -0.468478 5.58435 0.0350427
vn 0.960992 0.274295 -0.0354453
v -0.452837 5.52973 0.050423
vn 0.968155 0.246317 -0.0447664
v -1.15213 7.76045 0.0181616
vn -0.959106 -0.283046 0.000190361
v -1.17294 7.83228 0.0307975
vn -0.96225 -0.272163 -0.00154819
v -1.16191 7.79494 -0.0111585
vn -0.961083 -0.275493 -0.0205493
v -1.1806 7.90622 1.73576
vn -0.970763 -0.239869 0.00908753
v -1.18528 7.92474 1.68308
vn -0.861095 0.508424 -0.00449437
v -1.18381 7.89418 0.896386
vn -0.971041 -0.238818 0.00669269
v -1.14481 7.9168 1.73547
vn 0.945242 0.326322 -0.00565029
v -1.14756 7.90854 1.07033
vn 0.94479 0.327564 -0.00855012
v -1.15172 7.93466 1.68281
vn 0.579905 0.814564 -0.0139854
v -1.11457 7.77155 0.0178628
vn 0.958729 0.283923 -0.0150702
v -1.12554 7.80569 -0.0114478
vn 0.955978 0.291247 -0.0358038
v -1.13598 7.84321 0.0305035
vn 0.955424 0.294759 -0.0168062
v -0.81173 6.68995 -0.0227037
vn -0.00162646 -0.0214053 -0.99977
v -1.14433 7.74277 -0.0399771
vn -0.219084 -0.071805 -0.97306
v -1.11235 7.75223 -0.0402315
vn 0.2387 0.063529 -0.969013
v -0.535758 5.67704 0.11663
vn -0.958921 -0.283579 0.00725973
v -0.834028 6.68458 0.0362471
vn -0.958931 -0.28364 0.000384768
v -1.15896 7.83387 1.80727
vn -0.960992 -0.274295 0.0354446
v -1.17012 7.86939 1.76379
vn -0.962221 -0.271781 0.0163251
v -1.12258 7.84463 1.80698
vn 0.956069 0.292446 0.0201958
v -1.13938 7.8989 1.79161
vn 0.947004 0.319861 0.0295301
v -0.497592 5.68832 0.116326
vn 0.958967 0.283407 -0.00793493
v -1.09436 7.70583 0.0741019
vn 0.95892 0.283565 -0.00793819
v -0.476191 5.55579 0.0161853
vn 0.0687376 -0.258446 -0.963577
v -0.486154 5.63524 0.004075
vn 0.245874 0.0392558 -0.968506
v -0.495377 5.59507 1.86896
vn -0.7622 -0.358657 0.538903
v -0.48514 5.55764 1.84067
vn -0.946881 -0.318237 0.0462711
v -0.479897 5.53736 1.78533
vn -0.945156 -0.326438 0.0108992
v -0.473154 5.51726 1.73347
vn -0.446077 -0.894649 0.0248707
v -0.45234 5.50036 0.946448
vn 0.283594 -0.958735 0.0200655
v -0.439594 5.52718 1.7332
vn 0.929732 -0.36808 0.0107664
v -0.444108 5.54794 1.78505
vn 0.970712 0.240214 -0.00384809
v -0.449925 5.56805 1.84039
vn 0.968278 0.24794 0.0310352
v -0.461269 5.60515 1.86868
vn 0.902128 0.164075 0.399055
v -0.47317 5.59556 1.87356
vn 0.0718873 -0.216972 0.973527
v -0.488052 5.51932 0.0507031
vn -0.947004 -0.319861 -0.0295303
v -0.533071 5.7124 1.76821
vn -0.95892 -0.283563 0.00800269
v -1.14128 7.78298 1.83824
vn -0.21591 -0.0300752 0.97595
v -0.793406 6.73364 1.80607
vn 0.958931 0.28364 -0.000384434
v -0.457318 5.54884 0.0785226
vn 0.962221 0.271781 -0.0163251
v -1.16616 7.81307 -0.0263713
vn -0.842488 -0.115737 -0.526136
v -1.17751 7.85017 0.00192046
vn -0.968278 -0.24794 -0.0310345
v -1.18333 7.87028 0.0572632
vn -0.97077 -0.239971 0.00434428
v -1.18784 7.89104 0.109113
vn -0.861112 0.508209 -0.0144706
v -1.16805 7.91995 0.895809
vn -0.283592 0.958735 -0.0200655
v -1.15428 7.90097 0.108846
vn 0.627747 0.778115 -0.0216907
v -1.14754 7.88086 0.0569785
vn 0.945101 0.326607 -0.0105505
v -1.14229 7.86058 0.00164033
vn 0.946881 0.318238 -0.0462719
v -1.13206 7.82316 -0.0266427
vn 0.840387 0.351065 -0.412919
v -1.14733 7.82472 -0.0313012
vn -0.0718887 0.216971 -0.973527
v -1.13253 7.69454 0.0744055
vn -0.958968 -0.283422 0.0072564
v -1.1746 7.88849 1.79189
vn -0.968155 -0.246316 0.0447669
v -1.13317 7.88031 1.7635
vn 0.955453 0.295141 0.00106731
v -0.796286 6.69574 0.0359469
vn 0.958907 0.28333 -0.014875
v -0.518138 5.62578 0.0043295
vn -0.211818 -0.0963741 -0.972546
v -0.498383 5.5555 0.0208776
vn -0.763923 -0.381341 -0.520577
v -0.832896 6.70344 0.921309
vn -0.958944 -0.283493 0.00762948
v -1.16316 7.85264 1.82171
vn -0.840766 -0.0930536 0.533343
v -1.11171 7.80926 1.77912
vn 0.958753 0.284241 -0.000213877
v -0.478172 5.62007 0.0628914
vn 0.959082 0.282728 -0.0150449
f 1//1 2//2 3//3
f 1//1 3//3 4//4
f 1//1 4//4 5//5
f 1//1 5//5 6//6
f 1//1 6//6 2//2
f 7//7 8//8 9//9
f 10//10 11//11 12//12
f 13//13 14//14 15//15
f 16//16 17//17 18//18
f 19//19 20//20 21//21
f 22//22 23//23 24//24
f 22//22 24//24 25//25
f 22//22 25//25 26//26
f 22//22 26//26 27//27
f 22//22 27//27 23//23
f 28//28 29//29 30//30
f 31//31 32//32 33//33
f 34//34 35//35 36//36
f 37//37 38//38 39//39
f 40//40 41//41 42//42
f 13//13 43//43 44//44
f 10//10 45//45 46//46
f 7//7 47//47 48//48
f 19//19 49//49 50//50
f 16//16 51//51 52//52
f 10//10 53//53 45//45
f 13//13 54//54 43//43
f 16//16 55//55 51//51
f 19//19 56//56 49//49
f 7//7 57//57 47//47
f 40//40 58//58 59//59
f 28//28 60//60 61//61
f 31//31 62//62 63//63
f 34//34 64//64 65//65
f 37//37 66//66 67//67
f 40//40 68//68 58//58
f 28//28 69//69 60//60
f 31//31 70//70 62//62
f 34//34 71//71 64//64
f 37//37 72//72 66//66
f 10//10 46//46 11//11
f 7//7 48//48 8//8
f 19//19 50//50 20//20
f 16//16 52//52 17//17
f 13//13 44//44 14//14
f 40//40 42//42 68//68
f 28//28 30//30 69//69
f 31//31 33//33 70//70
f 34//34 36//36 71//71
f 37//37 39//39 72//72
f 28//28 61//61 29//29
f 31//31 63//63 32//32
f 34//34 65//65 35//35
f 37//37 67//67 38//38
f 40//40 59//59 41//41
f 10//10 12//12 53//53
f 13//13 15//15 54//54
f 16//16 18//18 55//55
f 19//19 21//21 56//56
f 7//7 9//9 57//57
f 73//73 74//74 75//75
f 76//76 77//77 78//78
f 79//79 80//80 81//81
f 82//82 83//83 84//84
f 85//85 86//86 87//87
f 88//88 89//89 90//90
f 91//91 92//92 93//93
f 94//94 95//95 96//96
f 97//97 98//98 99//99
f 100//100 101//101 102//102
f 103//103 104//104 105//105
f 106//106 107//107 108//108
f 109//109 110//110 111//111
f 112//112 113//113 114//114
f 115//115 116//116 117//117
f 88//88 118//118 119//119
f 91//91 120//120 121//121
f 94//94 122//122 123//123
f 97//97 124//124 125//125
f 100//100 126//126 127//127
f 128//128 129//129 2//2
f 130//130 131//131 3//3
f 132//132 133//133 4//4
f 134//134 135//135 5//5
f 136//136 137//137 6//6
f 76//76 138//138 8//8
f 73//73 139//139 11//11
f 85//85 140//140 14//14
f 82//82 141//141 17//17
f 79//79 142//142 20//20
f 143//143 144//144 23//23
f 145//145 146//146 24//24
f 147//147 148//148 25//25
f 149//149 150//150 26//26
f 151//151 152//152 27//27
f 103//103 153//153 29//29
f 106//106 154//154 32//32
f 109//109 155//155 35//35
f 112//112 156//156 38//38
f 115//115 157//157 41//41
f 73//73 75//75 43//43
f 76//76 78//78 45//45
f 79//79 81//81 47//47
f 82//82 84//84 49//49
f 85//85 87//87 51//51
f 88//88 90//90 53//53
f 91//91 93//93 54//54
f 94//94 96//96 55//55
f 97//97 99//99 56//56
f 100//100 102//102 57//57
f 103//103 105//105 58//58
f 106//106 108//108 60//60
f 109//109 111//111 62//62
f 112//112 114//114 64//64
f 115//115 117//117 66//66
f 88//88 119//119 68//68
f 91//91 121//121 69//69
f 94//94 123//123 70//70
f 97//97 125//125 71//71
f 100//100 127//127 72//72
f 130//130 74//74 46//46
f 132//132 77//77 48//48
f 134//134 80//80 50//50
f 136//136 83//83 52//52
f 128//128 86//86 44//44
f 158//158 89//89 42//42
f 159//159 92//92 30//30
f 160//160 95//95 33//33
f 161//161 98//98 36//36
f 162//162 101//101 39//39
f 145//145 104//104 61//61
f 147//147 107//107 63//63
f 149//149 110//110 65//65
f 151//151 113//113 67//67
f 143//143 116//116 59//59
f 159//159 118//118 12//12
f 160//160 120//120 15//15
f 161//161 122//122 18//18
f 162//162 124//124 21//21
f 158//158 126//126 9//9
f 130//130 129//129 74//74
f 132//132 131//131 77//77
f 134//134 133//133 80//80
f 136//136 135//135 83//83
f 128//128 137//137 86//86
f 158//158 138//138 89//89
f 159//159 139//139 92//92
f 160//160 140//140 95//95
f 161//161 141//141 98//98
f 162//162 142//142 101//101
f 145//145 144//144 104//104
f 147//147 146//146 107//107
f 149//149 148//148 110//110
f 151//151 150//150 113//113
f 143//143 152//152 116//116
f 159//159 153//153 118//118
f 160//160 154//154 120//120
f 161//161 155//155 122//122
f 162//162 156//156 124//124
f 158//158 157//157 126//126
f 130//130 3//3 129//129
f 132//132 4//4 131//131
f 134//134 5//5 133//133
f 136//136 6//6 135//135
f 128//128 2//2 137//137
f 158//158 9//9 138//138
f 159//159 12//12 139//139
f 160//160 15//15 140//140
f 161//161 18//18 141//141
f 162//162 21//21 142//142
f 145//145 24//24 144//144
f 147//147 25//25 146//146
f 149//149 26//26 148//148
f 151//151 27//27 150//150
f 143//143 23//23 152//152
f 159//159 30//30 153//153
f 160//160 33//33 154//154
f 161//161 36//36 155//155
f 162//162 39//39 156//156
f 158//158 42//42 157//157
f 128//128 44//44 75//75
f 130//130 46//46 78//78
f 132//132 48//48 81//81
f 134//134 50//50 84//84
f 136//136 52//52 87//87
f 76//76 45//45 90//90
f 73//73 43//43 93//93
f 85//85 51//51 96//96
f 82//82 49//49 99//99
f 79//79 47//47 102//102
f 143//143 59//59 105//105
f 145//145 61//61 108//108
f 147//147 63//63 111//111
f 149//149 65//65 114//114
f 151//151 67//67 117//117
f 103//103 58//58 119//119
f 106//106 60//60 121//121
f 109//109 62//62 123//123
f 112//112 64//64 125//125
f 115//115 66//66 127//127
f 73//73 11//11 74//74
f 76//76 8//8 77//77
f 79//79 20//20 80//80
f 82//82 17//17 83//83
f 85//85 14//14 86//86
f 88//88 68//68 89//89
f 91//91 69//69 92//92
f 94//94 70//70 95//95
f 97//97 71//71 98//98
f 100//100 72//72 101//101
f 103//103 29//29 104//104
f 106//106 32//32 107//107
f 109//109 35//35 110//110
f 112//112 38//38 113//113
f 115//115 41//41 116//116
f 88//88 53//53 118//118
f 91//91 54//54 120//120
f 94//94 55//55 122//122
f 97//97 56//56 124//124
f 100//100 57//57 126//126
f 128//128 75//75 129//129
f 130//130 78//78 131//131
f 132//132 81//81 133//133
f 134//134 84//84 135//135
f 136//136 87//87 137//137
f 76//76 90//90 138//138
f 73//73 93//93 139//139
f 85//85 96//96 140//140
f 82//82 99//99 141//141
f 79//79 102//102 142//142
f 143//143 105//105 144//144
f 145//145 108//108 146//146
f 147//147 111//111 148//148
f 149//149 114//114 150//150
f 151//151 117//117 152//152
f 103//103 119//119 153//153
f 106//106 121//121 154//154
f 109//109 123//123 155//155
f 112//112 125//125 156//156
f 115//115 127//127 157//157
f 129//129 3//3 2//2
f 131//131 4//4 3//3
f 133//133 5//5 4//4
f 135//135 6//6 5//5
f 137//137 2//2 6//6
f 138//138 9//9 8//8
f 139//139 12//12 11//11
f 140//140 15//15 14//14
f 141//141 18//18 17//17
f 142//142 21//21 20//20
f 144//144 24//24 23//23
f 146//146 25//25 24//24
f 148//148 26//26 25//25
f 150//150 27//27 26//26
f 152//152 23//23 27//27
f 153//153 30//30 29//29
f 154//154 33//33 32//32
f 155//155 36//36 35//35
f 156//156 39//39 38//38
f 157//157 42//42 41//41
f 75//75 44//44 43//43
f 78//78 46//46 45//45
f 81//81 48//48 47//47
f 84//84 50//50 49//49
f 87//87 52//52 51//51
f 90//90 45//45 53//53
f 93//93 43//43 54//54
f 96//96 51//51 55//55
f 99//99 49//49 56//56
f 102//102 47//47 57//57
f 105//105 59//59 58//58
f 108//108 61//61 60//60
f 111//111 63//63 62//62
f 114//114 65//65 64//64
f 117//117 67//67 66//66
f 119//119 58//58 68//68
f 121//121 60//60 69//69
f 123//123 62//62 70//70
f 125//125 64//64 71//71
f 127//127 66//66 72//72
f 74//74 11//11 46//46
f 77//77 8//8 48//48
f 80//80 20//20 50//50
f 83//83 17//17 52//52
f 86//86 14//14 44//44
f 89//89 68//68 42//42
f 92//92 69//69 30//30
f 95//95 70//70 33//33
f 98//98 71//71 36//36
f 101//101 72//72 39//39
f 104//104 29//29 61//61
f 107//107 32//32 63//63
f 110//110 35//35 65//65
f 113//113 38//38 67//67
f 116//116 41//41 59//59
f 118//118 53//53 12//12
f 120//120 54//54 15//15
f 122//122 55//55 18//18
f 124//124 56//56 21//21
f 126//126 57//57 9//9
f 129//129 75//75 74//74
f 131//131 78//78 77//77
f 133//133 81//81 80//80
f 135//135 84//84 83//83
f 137//137 87//87 86//86
f 138//138 90//90 89//89
f 139//139 93//93 92//92
f 140//140 96//96 95//95
f 141//141 99//99 98//98
f 142//142 102//102 101//101
f 144//144 105//105 104//104
f 146//146 108//108 107//107
f 148//148 111//111 110//110
f 150//150 114//114 113//113
f 152//152 117//117 116//116
f 153//153 119//119 118//118
f 154//154 121//121 120//120
f 155//155 123//123 122//122
f 156//156 125//125 124//124
f 157//157 127//127 126//126
