# Created by Open3D 
# object name: part_009
# number of vertices: 162
# number of triangles: 320
v -1.26303 5.75267 -0.0509335
vn 0.886777 0.462185 0.00328717
v -1.2729 5.76644 -0.0312632
vn 0.742508 0.657686 0.127006
v -1.25991 5.74318 -0.029755
vn 0.89774 0.388679 0.207342
v -1.24957 5.72019 -0.0498255
vn 0.953134 0.302451 0.00766712
v -1.2594 5.74244 -0.0647008
vn 0.885887 0.370513 -0.27915
v -1.27241 5.76573 -0.0645669
vn 0.74234 0.652101 -0.153933
v -0.941685 4.69537 -0.0236979
vn 0.993876 0.109803 0.0123641
v -0.944677 4.70598 -0.00303707
vn 0.959185 0.186511 0.212552
v -0.942518 4.67939 -0.00326138
vn 0.980942 -0.126817 0.14721
v -1.11519 5.22071 -0.0143034
vn 0.0117101 0.0293057 0.999502
v -1.26976 5.71194 -0.0270076
vn 0.00040745 0.0264897 0.999649
v -1.13124 5.21584 -0.0141938
vn -0.0130855 0.0217742 0.999677
v -1.53713 5.69836 -0.031626
vn -0.039855 0.103846 0.993795
v -1.5392 5.70519 -0.0329902
vn -0.254154 0.821677 0.51015
v -1.77349 5.62731 -0.0339677
vn -0.0627614 0.160995 0.984958
v -1.53658 5.69756 -0.0691222
vn -0.0103958 0.0614923 -0.998053
v -1.30833 5.75544 -0.0675049
vn 0.00520064 0.0130697 -0.999901
v -1.75839 5.61856 -0.0712507
vn 0.00363786 0.0125954 -0.999914
v -1.1478 5.32908 -0.0564617
vn 0.0412726 -0.0131914 -0.999061
v -0.964782 4.75251 -0.0411199
vn 0.0787601 -0.00210049 -0.996891
v -0.969684 4.72571 -0.0410247
vn 0.0302136 -0.0170699 -0.999398
v -1.47338 4.53365 -0.0281231
vn -0.886777 -0.462186 -0.00328724
v -1.46411 4.52075 -0.00760244
vn -0.746354 -0.65216 0.132828
v -1.47712 4.54404 -0.0074686
vn -0.903722 -0.380081 0.197042
v -1.48685 4.56614 -0.0287948
vn -0.953134 -0.302451 -0.00766712
v -1.47661 4.5433 -0.0424143
vn -0.877478 -0.382599 -0.289223
v -1.46361 4.52004 -0.0409062
vn -0.737869 -0.658525 -0.147966
v -1.62191 5.0666 -0.0185208
vn -0.0412699 0.0131922 0.999061
v -1.46734 4.57537 -0.00576147
vn -0.0299755 0.016019 0.999422
v -1.60586 5.07149 -0.0181439
vn -0.0164852 0.0207401 0.999649
v -1.79473 5.59096 -0.0553588
vn -0.993876 -0.109804 -0.012364
v -1.79236 5.58124 -0.0341864
vn -0.965166 -0.177911 0.191837
v -1.79449 5.6078 -0.0356044
vn -0.984784 0.132343 0.112627
v -1.65451 5.17497 -0.0606789
vn -0.011712 -0.0293063 -0.999502
v -1.77116 5.53315 -0.0696463
vn -0.0502202 -0.0405445 -0.997915
v -1.76625 5.55992 -0.070545
vn -0.000918273 -0.0252518 -0.999681
v -1.19939 4.58812 -0.0405434
vn 0.039855 -0.103846 -0.993795
v -1.42761 4.53021 -0.0432154
vn 0.0243513 -0.0555569 -0.998159
v -0.977555 4.6671 -0.0394697
vn 0.0259135 -0.055082 -0.998146
v -1.19994 4.58892 -0.00304725
vn 0.0103957 -0.0614918 0.998053
v -1.19784 4.58203 -0.00405797
vn 0.238447 -0.799098 0.551892
v -0.963574 4.65995 -0.00141849
vn 0.033518 -0.118952 0.992334
v -1.3089 5.75626 -0.028954
vn -0.0243515 0.0555575 0.998158
v -1.30124 5.77094 -0.0300373
vn -0.0525126 0.164108 0.985044
v -0.965352 4.75333 -0.00252308
vn 0.0496982 0.0404225 0.997946
v -1.25077 5.69242 -0.0267135
vn 0.0494836 0.0411344 0.997928
v -0.94416 4.70524 -0.037983
vn 0.9462 0.17206 -0.274046
v -0.948577 4.72986 -0.0243149
vn 0.960124 0.279453 0.00825985
v -1.26917 5.71111 -0.0664079
vn 0.0300488 -0.0158333 -0.999423
v -1.2502 5.6916 -0.0653104
vn 0.0794858 -0.00109546 -0.996835
v -1.53868 5.70445 -0.0681114
vn -0.206055 0.696306 -0.687531
v -1.30069 5.77016 -0.0668205
vn -0.0232677 0.122062 -0.99225
v -0.970266 4.72655 -0.00162441
vn 0.000751934 0.0253646 0.999678
v -1.75896 5.61938 -0.0326997
vn -0.0259137 0.0550829 0.998145
v -1.77294 5.62653 -0.0707509
vn -0.0335187 0.118954 -0.992334
v -1.16426 5.32555 -0.0568734
vn 0.0164849 -0.0207402 -0.999649
v -0.942025 4.67868 -0.036565
vn 0.981718 -0.135523 -0.133652
v -1.42818 4.53103 -0.00466445
vn -0.00520061 -0.0130696 0.999901
v -1.43582 4.51631 -0.00534886
vn 0.0232678 -0.122063 0.99225
v -1.77174 5.53397 -0.0310495
vn -0.0791979 0.00199686 0.996857
v -1.48632 4.59488 -0.00685894
vn -0.0789773 0.00128697 0.996876
v -1.79184 5.5805 -0.0691323
vn -0.937793 -0.184148 -0.294335
v -1.78785 5.55648 -0.0543055
vn -0.960124 -0.279453 -0.00825985
v -1.46676 4.57453 -0.0451618
vn -0.000362719 -0.0263694 -0.999652
v -1.48575 4.59406 -0.0454559
vn -0.0490529 -0.0409738 -0.997955
v -1.19732 4.58128 -0.0391792
vn 0.225854 -0.724777 -0.650913
v -1.43528 4.51553 -0.0421321
vn 0.0525133 -0.164111 -0.985043
v -0.978126 4.66792 -0.000918625
vn -0.00363757 -0.0125963 0.999914
v -1.76683 5.56076 -0.0311447
vn -0.0303198 0.0171441 0.999393
v -1.794 5.60709 -0.068908
vn -0.977253 0.129105 -0.16825
v -1.63887 5.18119 -0.0608235
vn 0.0130853 -0.0217743 -0.999677
v -0.96303 4.65916 -0.0382017
vn 0.0627614 -0.160995 -0.984958
v -1.28817 5.74274 -0.0280611
vn -0.0155808 0.0334474 0.999319
v -1.26965 5.73914 -0.0280248
vn 0.0322321 0.0504563 0.998206
v -1.28555 5.76217 -0.0290513
vn 0.00995829 0.0755402 0.997093
v -0.951658 4.72279 -0.00231556
vn 0.175947 0.0748622 0.981549
v -0.956815 4.7553 -0.00424545
vn 0.93424 0.286898 0.211863
v -1.10269 5.22449 -0.0151238
vn 0.179455 0.0797995 0.980524
v -0.951106 4.722 -0.0396244
vn 0.205436 0.0339248 -0.978082
v -1.13376 5.32777 -0.0553013
vn 0.20841 0.0381669 -0.977297
v -0.956298 4.75455 -0.0392312
vn 0.915389 0.267959 -0.300434
v -1.28759 5.7419 -0.067209
vn 0.0139878 -0.00906364 -0.999861
v -1.28499 5.76136 -0.0669684
vn 0.0394765 0.0331038 -0.998672
v -1.26908 5.73832 -0.0665448
vn 0.0617529 0.00800621 -0.998059
v -1.53955 5.70693 -0.0542795
vn -0.290707 0.956495 -0.0246362
v -1.3026 5.77643 -0.0318961
vn -0.254977 0.959819 0.117191
v -1.30211 5.77572 -0.0652377
vn -0.249836 0.950283 -0.18586
v -0.968432 4.69071 -0.00096124
vn -0.0086614 0.0106842 0.999905
v -0.955433 4.676 -0.00107203
vn 0.0360068 -0.010147 0.9993
v -0.955037 4.704 -0.00136007
vn 0.0405453 0.0231081 0.99891
v -1.76866 5.5966 -0.0320601
vn -0.0209063 0.0318272 0.999275
v -1.74375 5.5684 -0.0307725
vn -0.0153094 0.0217197 0.999647
v -1.52922 5.67232 -0.0300303
vn -0.0181584 0.0323579 0.999311
v -1.78784 5.61813 -0.0701785
vn -0.519547 0.380157 -0.765214
v -1.79016 5.62082 -0.056096
vn -0.792491 0.609385 -0.0246764
v -1.77489 5.63193 -0.0691725
vn -0.318737 0.929327 -0.186434
v -1.40169 5.2538 -0.0589368
vn 0.0147852 -0.0212573 -0.999665
v -1.74316 5.56755 -0.0705591
vn 0.0142141 -0.0206439 -0.999686
v -1.29259 5.70459 -0.066809
vn 0.0149185 -0.0204297 -0.99968
v -0.948153 4.66759 -0.0375467
vn 0.541699 -0.412005 -0.732676
v -0.954872 4.67519 -0.0389891
vn 0.0655205 -0.0525841 -0.996465
v -0.945236 4.68742 -0.0385029
vn 0.190017 -0.0301062 -0.981319
v -1.44892 4.54457 -0.00496037
vn -0.0139878 0.00906371 0.999861
v -1.46744 4.54815 -0.00562457
vn -0.0617537 -0.00800641 0.998059
v -1.45153 4.52511 -0.00520095
vn -0.039477 -0.033103 0.998672
v -1.78541 5.56448 -0.032545
vn -0.20492 -0.0331852 0.978216
v -1.78022 5.53192 -0.0329382
vn -0.940275 -0.278222 0.196151
v -1.63438 5.06278 -0.0195489
vn -0.20841 -0.0381669 0.977297
v -1.78486 5.56368 -0.0698538
vn -0.175206 -0.0738182 -0.981761
v -1.66546 5.16606 -0.0597264
vn -0.179455 -0.0797995 -0.980524
v -1.7797 5.53118 -0.0679239
vn -0.916562 -0.283271 -0.282263
v -1.44834 4.54374 -0.0441082
vn 0.0155808 -0.0334473 -0.999319
v -1.45096 4.52431 -0.0431181
vn -0.00995784 -0.0755406 -0.997093
v -1.46687 4.54733 -0.0441446
vn -0.0322304 -0.050455 -0.998206
v -1.19686 4.57939 -0.0252348
vn 0.290707 -0.956495 0.0246362
v -1.43441 4.51075 -0.00693169
vn 0.2508 -0.953812 0.165352
v -1.43392 4.51004 -0.0402733
vn 0.254624 -0.957166 -0.137838
v -0.993353 4.71892 -0.00161032
vn -0.014261 0.020795 0.999682
v -1.20787 4.615 -0.00279423
vn -0.0114102 0.0101537 0.999883
v -1.78165 5.61129 -0.0331802
vn -0.0655216 0.0525847 0.996465
v -1.78205 5.5833 -0.0322895
vn -0.0700725 0.0193401 0.997354
v -1.78108 5.61048 -0.0710974
vn -0.0360056 0.0101467 -0.9993
v -1.79074 5.59828 -0.0703768
vn -0.1609 -0.0117445 -0.986901
v -0.992765 4.71808 -0.0413968
vn 0.0152785 -0.0216212 -0.999649
v -1.44333 4.58104 -0.0451468
vn 0.0145779 -0.0218343 -0.999655
v -0.94625 4.6655 -0.0233001
vn 0.792491 -0.609385 0.0246766
v -0.961132 4.65384 -0.0363384
vn 0.323523 -0.936211 -0.137266
v -1.28418 5.77223 -0.0304264
vn 0.247997 0.751823 0.610949
v -1.27073 5.75738 -0.0293341
vn 0.126106 0.126253 0.98395
v -1.25637 5.72538 -0.0281418
vn 0.173776 0.0819926 0.981366
v -1.24256 5.69545 -0.0284633
vn 0.932849 0.291476 0.211744
v -1.09802 5.22533 -0.0375083
vn 0.956698 0.290973 0.00796436
v -1.24204 5.69471 -0.0634491
vn 0.923255 0.276296 -0.266947
v -1.25582 5.72459 -0.0654509
vn 0.201577 0.0407781 -0.978623
v -1.27019 5.7566 -0.0660443
vn 0.155212 0.0844015 -0.984269
v -1.28366 5.77147 -0.0659822
vn 0.231511 0.608572 -0.758975
v -1.28344 5.77494 -0.0518788
vn 0.319307 0.947526 -0.0154187
v -0.945779 4.6882 -0.00179264
vn 0.1609 0.0117449 0.986901
v -1.29318 5.70544 -0.0270226
vn -0.0146071 0.0219333 0.999653
v -1.77539 5.63264 -0.035831
vn -0.324393 0.938707 0.116615
v -1.52864 5.67148 -0.0693751
vn 0.0114101 -0.0101537 -0.999883
v -0.954468 4.70318 -0.0398799
vn 0.0700718 -0.0193406 -0.997354
v -1.45286 4.515 -0.00618713
vn -0.266417 -0.725335 0.634753
v -1.46633 4.52988 -0.00612506
vn -0.155214 -0.0844021 0.984269
v -1.48069 4.56189 -0.00671855
vn -0.20277 -0.0403225 0.978396
v -1.49448 4.59177 -0.00872031
vn -0.938884 -0.2828 0.196269
v -1.63839 5.06099 -0.0420058
vn -0.956698 -0.290973 -0.00796436
v -1.49396 4.59103 -0.043706
vn -0.904878 -0.285662 -0.315585
v -1.48014 4.5611 -0.0440276
vn -0.174618 -0.0816661 -0.981244
v -1.46578 4.5291 -0.0428353
vn -0.126108 -0.126255 -0.98395
v -1.45234 4.51425 -0.0417429
vn -0.209364 -0.640435 -0.738925
v -1.45297 4.51138 -0.0275175
vn -0.319307 -0.947526 0.0154184
v -1.44392 4.58188 -0.00536039
vn -0.0149636 0.0205812 0.999676
v -1.79128 5.59906 -0.0336665
vn -0.190018 0.0301061 0.981319
v -1.78148 5.58248 -0.0708093
vn -0.0405433 -0.023108 -0.998911
v -1.20729 4.61416 -0.042139
vn 0.0181584 -0.0323579 -0.999311
v -0.961625 4.65455 -0.00299682
vn 0.320213 -0.932701 0.16593
v -0.948678 4.66835 -0.00199091
vn 0.615428 -0.457131 0.64209
v -1.36855 5.14366 -0.0160914
vn -0.0147852 0.0212573 0.999665
v -1.78836 5.61889 -0.0346227
vn -0.633854 0.483621 0.603606
v -1.76809 5.59577 -0.0712081
vn 0.00866146 -0.0106842 -0.999905
v -0.967853 4.68988 -0.0401093
vn 0.0209064 -0.0318273 -0.999275
f 1//1 2//2 3//3
f 1//1 3//3 4//4
f 1//1 4//4 5//5
f 1//1 5//5 6//6
f 1//1 6//6 2//2
f 7//7 8//8 9//9
f 10//10 11//11 12//12
f 13//13 14//14 15//15
f 16//16 17//17 18//18
f 19//19 20//20 21//21
f 22//22 23//23 24//24
f 22//22 24//24 25//25
f 22//22 25//25 26//26
f 22//22 26//26 27//27
f 22//22 27//27 23//23
f 28//28 29//29 30//30
f 31//31 32//32 33//33
f 34//34 35//35 36//36
f 37//37 38//38 39//39
f 40//40 41//41 42//42
f 13//13 43//43 44//44
f 10//10 45//45 46//46
f 7//7 47//47 48//48
f 19//19 49//49 50//50
f 16//16 51//51 52//52
f 10//10 53//53 45//45
f 13//13 54//54 43//43
f 16//16 55//55 51//51
f 19//19 56//56 49//49
f 7//7 57//57 47//47
f 40//40 58//58 59//59
f 28//28 60//60 61//61
f 31//31 62//62 63//63
f 34//34 64//64 65//65
f 37//37 66//66 67//67
f 40//40 68//68 58//58
f 28//28 69//69 60//60
f 31//31 70//70 62//62
f 34//34 71//71 64//64
f 37//37 72//72 66//66
f 10//10 46//46 11//11
f 7//7 48//48 8//8
f 19//19 50//50 20//20
f 16//16 52//52 17//17
f 13//13 44//44 14//14
f 40//40 42//42 68//68
f 28//28 30//30 69//69
f 31//31 33//33 70//70
f 34//34 36//36 71//71
f 37//37 39//39 72//72
f 28//28 61//61 29//29
f 31//31 63//63 32//32
f 34//34 65//65 35//35
f 37//37 67//67 38//38
f 40//40 59//59 41//41
f 10//10 12//12 53//53
f 13//13 15//15 54//54
f 16//16 18//18 55//55
f 19//19 21//21 56//56
f 7//7 9//9 57//57
f 73//73 74//74 75//75
f 76//76 77//77 78//78
f 79//79 80//80 81//81
f 82//82 83//83 84//84
f 85//85 86//86 87//87
f 88//88 89//89 90//90
f 91//91 92//92 93//93
f 94//94 95//95 96//96
f 97//97 98//98 99//99
f 100//100 101//101 102//102
f 103//103 104//104 105//105
f 106//106 107//107 108//108
f 109//109 110//110 111//111
f 112//112 113//113 114//114
f 115//115 116//116 117//117
f 88//88 118//118 119//119
f 91//91 120//120 121//121
f 94//94 122//122 123//123
f 97//97 124//124 125//125
f 100//100 126//126 127//127
f 128//128 129//129 2//2
f 130//130 131//131 3//3
f 132//132 133//133 4//4
f 134//134 135//135 5//5
f 136//136 137//137 6//6
f 76//76 138//138 8//8
f 73//73 139//139 11//11
f 85//85 140//140 14//14
f 82//82 141//141 17//17
f 79//79 142//142 20//20
f 143//143 144//144 23//23
f 145//145 146//146 24//24
f 147//147 148//148 25//25
f 149//149 150//150 26//26
f 151//151 152//152 27//27
f 103//103 153//153 29//29
f 106//106 154//154 32//32
f 109//109 155//155 35//35
f 112//112 156//156 38//38
f 115//115 157//157 41//41
f 73//73 75//75 43//43
f 76//76 78//78 45//45
f 79//79 81//81 47//47
f 82//82 84//84 49//49
f 85//85 87//87 51//51
f 88//88 90//90 53//53
f 91//91 93//93 54//54
f 94//94 96//96 55//55
f 97//97 99//99 56//56
f 100//100 102//102 57//57
f 103//103 105//105 58//58
f 106//106 108//108 60//60
f 109//109 111//111 62//62
f 112//112 114//114 64//64
f 115//115 117//117 66//66
f 88//88 119//119 68//68
f 91//91 121//121 69//69
f 94//94 123//123 70//70
f 97//97 125//125 71//71
f 100//100 127//127 72//72
f 130//130 74//74 46//46
f 132//132 77//77 48//48
f 134//134 80//80 50//50
f 136//136 83//83 52//52
f 128//128 86//86 44//44
f 158//158 89//89 42//42
f 159//159 92//92 30//30
f 160//160 95//95 33//33
f 161//161 98//98 36//36
f 162//162 101//101 39//39
f 145//145 104//104 61//61
f 147//147 107//107 63//63
f 149//149 110//110 65//65
f 151//151 113//113 67//67
f 143//143 116//116 59//59
f 159//159 118//118 12//12
f 160//160 120//120 15//15
f 161//161 122//122 18//18
f 162//162 124//124 21//21
f 158//158 126//126 9//9
f 130//130 129//129 74//74
f 132//132 131//131 77//77
f 134//134 133//133 80//80
f 136//136 135//135 83//83
f 128//128 137//137 86//86
f 158//158 138//138 89//89
f 159//159 139//139 92//92
f 160//160 140//140 95//95
f 161//161 141//141 98//98
f 162//162 142//142 101//101
f 145//145 144//144 104//104
f 147//147 146//146 107//107
f 149//149 148//148 110//110
f 151//151 150//150 113//113
f 143//143 152//152 116//116
f 159//159 153//153 118//118
f 160//160 154//154 120//120
f 161//161 155//155 122//122
f 162//162 156//156 124//124
f 158//158 157//157 126//126
f 130//130 3//3 129//129
f 132//132 4//4 131//131
f 134//134 5//5 133//133
f 136//136 6//6 135//135
f 128//128 2//2 137//137
f 158//158 9//9 138//138
f 159//159 12//12 139//139
f 160//160 15//15 140//140
f 161//161 18//18 141//141
f 162//162 21//21 142//142
f 145//145 24//24 144//144
f 147//147 25//25 146//146
f 149//149 26//26 148//148
f 151//151 27//27 150//150
f 143//143 23//23 152//152
f 159//159 30//30 153//153
f 160//160 33//33 154//154
f 161//161 36//36 155//155
f 162//162 39//39 156//156
f 158//158 42//42 157//157
f 128//128 44//44 75//75
f 130//130 46//46 78//78
f 132//132 48//48 81//81
f 134//134 50//50 84//84
f 136//136 52//52 87//87
f 76//76 45//45 90//90
f 73//73 43//43 93//93
f 85//85 51//51 96//96
f 82//82 49//49 99//99
f 79//79 47//47 102//102
f 143//143 59//59 105//105
f 145//145 61//61 108//108
f 147//147 63//63 111//111
f 149//149 65//65 114//114
f 151//151 67//67 117//117
f 103//103 58//58 119//119
f 106//106 60//60 121//121
f 109//109 62//62 123//123
f 112//112 64//64 125//125
f 115//115 66//66 127//127
f 73//73 11//11 74//74
f 76//76 8//8 77//77
f 79//79 20//20 80//80
f 82//82 17//17 83//83
f 85//85 14//14 86//86
f 88//88 68//68 89//89
f 91//91 69//69 92//92
f 94//94 70//70 95//95
f 97//97 71//71 98//98
f 100//100 72//72 101//101
f 103//103 29//29 104//104
f 106//106 32//32 107//107
f 109//109 35//35 110//110
f 112//112 38//38 113//113
f 115//115 41//41 116//116
f 88//88 53//53 118//118
f 91//91 54//54 120//120
f 94//94 55//55 122//122
f 97//97 56//56 124//124
f 100//100 57//57 126//126
f 128//128 75//75 129//129
f 130//130 78//78 131//131
f 132//132 81//81 133//133
f 134//134 84//84 135//135
f 136//136 87//87 137//137
f 76//76 90//90 138//138
f 73//73 93//93 139//139
f 85//85 96//96 140//140
f 82//82 99//99 141//141
f 79//79 102//102 142//142
f 143//143 105//105 144//144
f 145//145 108//108 146//146
f 147//147 111//111 148//148
f 149//149 114//114 150//150
f 151//151 117//117 152//152
f 103//103 119//119 153//153
f 106//106 121//121 154//154
f 109//109 123//123 155//155
f 112//112 125//125 156//156
f 115//115 127//127 157//157
f 129//129 3//3 2//2
f 131//131 4//4 3//3
f 133//133 5//5 4//4
f 135//135 6//6 5//5
f 137//137 2//2 6//6
f 138//138 9//9 8//8
f 139//139 12//12 11//11
f 140//140 15//15 14//14
f 141//141 18//18 17//17
f 142//142 21//21 20//20
f 144//144 24//24 23//23
f 146//146 25//25 24//24
f 148//148 26//26 25//25
f 150//150 27//27 26//26
f 152//152 23//23 27//27
f 153//153 30//30 29//29
f 154//154 33//33 32//32
f 155//155 36//36 35//35
f 156//156 39//39 38//38
f 157//157 42//42 41//41
f 75//75 44//44 43//43
f 78//78 46//46 45//45
f 81//81 48//48 47//47
f 84//84 50//50 49//49
f 87//87 52//52 51//51
f 90//90 45//45 53//53
f 93//93 43//43 54//54
f 96//96 51//51 55//55
f 99//99 49//49 56//56
f 102//102 47//47 57//57
f 105//105 59//59 58//58
f 108//108 61//61 60//60
f 111//111 63//63 62//62
f 114//114 65//65 64//64
f 117//117 67//67 66//66
f 119//119 58//58 68//68
f 121//121 60//60 69//69
f 123//123 62//62 70//70
f 125//125 64//64 71//71
f 127//127 66//66 72//72
f 74//74 11//11 46//46
f 77//77 8//8 48//48
f 80//80 20//20 50//50
f 83//83 17//17 52//52
f 86//86 14//14 44//44
f 89//89 68//68 42//42
f 92//92 69//69 30//30
f 95//95 70//70 33//33
f 98//98 71//71 36//36
f 101//101 72//72 39//39
f 104//104 29//29 61//61
f 107//107 32//32 63//63
f 110//110 35//35 65//65
f 113//113 38//38 67//67
f 116//116 41//41 59//59
f 118//118 53//53 12//12
f 120//120 54//54 15//15
f 122//122 55//55 18//18
f 124//124 56//56 21//21
f 126//126 57//57 9//9
f 129//129 75//75 74//74
f 131//131 78//78 77//77
f 133//133 81//81 80//80
f 135//135 84//84 83//83
f 137//137 87//87 86//86
f 138//138 90//90 89//89
f 139//139 93//93 92//92
f 140//140 96//96 95//95
f 141//141 99//99 98//98
f 142//142 102//102 101//101
f 144//144 105//105 104//104
f 146//146 108//108 107//107
f 148//148 111//111 110//110
f 150//150 114//114 113//113
f 152//152 117//117 116//116
f 153//153 119//119 118//118
f 154//154 121//121 120//120
f 155//155 123//123 122//122
f 156//156 125//125 124//124
f 157//157 127//127 126//126
