# Created by Open3D 
# object name: part_019
# number of vertices: 162
# number of triangles: 320
v -0.826772 1.96535 0.803743
vn 0.257405 -0.700117 0.666017
v -0.833543 1.94844 0.78832
vn 0.237678 -0.715292 0.657166
v -0.81326 1.95577 0.788279
vn 0.268052 -0.706937 0.654514
v -0.799838 1.97596 0.804139
vn 0.272132 -0.694227 0.666328
v -0.822375 1.97722 0.814341
vn 0.258129 -0.683643 0.682643
v -0.84223 1.96887 0.813158
vn 0.231266 -0.701094 0.674524
v 0.0196689 2.31032 0.815969
vn 0.288801 -0.687321 0.666472
v 0.0170843 2.29418 0.800273
vn 0.286238 -0.69953 0.654772
v 0.0367076 2.30311 0.800891
vn 0.313731 -0.684295 0.658265
v -0.397789 2.12433 0.791965
vn 0.339352 -0.816083 -0.467812
v -0.792319 1.96382 0.785996
vn 0.311615 -0.745569 -0.589087
v -0.398068 2.12505 0.790948
vn 0.267152 -0.629652 -0.729498
v -0.847532 1.95765 0.773037
vn 0.162709 -0.649379 -0.742854
v -0.853334 1.95614 0.773843
vn -0.702023 -0.617344 -0.355035
v -0.853291 1.97043 0.760988
vn 0.0720836 -0.619752 -0.78148
v -0.857312 1.98066 0.801001
vn -0.355929 0.570632 0.740064
v -0.844197 1.97221 0.813243
vn -0.297385 0.588925 0.751485
v -0.853811 1.99663 0.789789
vn -0.303344 0.604064 0.736946
v -0.495476 2.11284 0.820045
vn -0.149693 0.334321 0.930495
v -0.0319025 2.30105 0.82683
vn -0.0118947 -0.00543372 0.999914
v -0.0137268 2.3095 0.826775
vn -0.197408 0.455126 0.868269
v 0.00831077 2.33917 0.788261
vn -0.257404 0.700118 -0.666017
v 0.0255654 2.33141 0.773709
vn -0.232068 0.702089 -0.673213
v 0.00571025 2.32307 0.772526
vn -0.259951 0.687874 -0.677683
v -0.0185093 2.32829 0.787539
vn -0.272132 0.694227 -0.666328
v -0.00340463 2.34451 0.798588
vn -0.269757 0.711009 -0.649382
v 0.0168789 2.35185 0.798546
vn -0.23782 0.7165 -0.655797
v -0.408613 2.15182 0.765559
vn 0.149695 -0.334326 -0.930493
v -0.0140686 2.3123 0.771487
vn 0.198255 -0.453821 -0.868758
v -0.408207 2.1508 0.766214
vn 0.254183 -0.596708 -0.761137
v -0.83813 1.9942 0.776034
vn -0.288803 0.68732 -0.666472
v -0.824634 1.98467 0.760532
vn -0.278135 0.680463 -0.677946
v -0.844686 1.97674 0.761139
vn -0.308114 0.671096 -0.674311
v -0.5063 2.14033 0.793639
vn -0.339354 0.816088 0.467803
v -0.794829 2.02292 0.788821
vn -0.376993 0.920375 0.103858
v -0.813214 2.01497 0.789476
vn -0.313408 0.74584 0.587791
v 0.0308671 2.34264 0.81383
vn -0.16271 0.649379 0.742854
v 0.0174774 2.35173 0.802374
vn -0.223586 0.636568 0.738099
v 0.0270914 2.32731 0.825828
vn -0.217627 0.621431 0.752637
v 0.0406471 2.31963 0.785866
vn 0.35593 -0.570631 -0.740063
v 0.04583 2.3226 0.786831
vn 0.942057 0.0527006 -0.331289
v 0.0462209 2.30729 0.798446
vn 0.43977 -0.584306 -0.682048
v -0.834142 1.94856 0.784492
vn 0.223586 -0.636568 -0.738099
v -0.843203 1.94481 0.785599
vn 0.110896 -0.718339 -0.686798
v -0.0218353 2.27737 0.798046
vn 0.376855 -0.919973 -0.107841
v -0.773633 1.97097 0.787186
vn 0.376233 -0.920219 -0.107916
v 0.00796941 2.31562 0.826335
vn 0.276358 -0.676215 0.682905
v -0.00701072 2.29908 0.815591
vn 0.274148 -0.693409 0.666353
v -0.802596 1.98799 0.81538
vn -0.197916 0.452472 0.869539
v -0.7837 1.99465 0.815971
vn -0.00973484 -0.0125179 0.999874
v -0.862495 1.97769 0.800036
vn -0.898271 0.0639179 0.434768
v -0.852797 1.96737 0.813031
vn -0.40096 0.485719 0.776729
v -0.00345011 2.28532 0.797391
vn 0.312902 -0.74504 -0.589074
v -0.843756 1.97298 0.761038
vn 0.217627 -0.621431 -0.752637
v -0.862885 1.993 0.78842
vn -0.43977 0.584305 0.682048
v -0.496963 2.11342 0.819375
vn -0.254183 0.596707 0.761139
v 0.028021 2.32355 0.825728
vn 0.30796 -0.669837 0.675632
v 0.0275326 2.32808 0.773624
vn 0.297385 -0.588925 -0.751485
v 0.0361328 2.33292 0.773836
vn 0.40096 -0.48572 -0.776729
v -0.784762 1.99924 0.760037
vn 0.010591 0.00856562 -0.999907
v -0.0329641 2.30564 0.770896
vn 0.0112072 0.00882741 -0.999898
v -0.833749 2.00611 0.786594
vn -0.287994 0.703585 -0.649637
v -0.811336 2.00517 0.776087
vn -0.274148 0.693409 -0.666353
v -0.0243453 2.33647 0.800871
vn -0.31151 0.744963 0.589908
v -0.0430314 2.32932 0.799681
vn -0.376158 0.919851 0.111265
v 0.0366694 2.34415 0.813024
vn 0.586662 0.669101 0.456214
v 0.0265387 2.35548 0.801268
vn -0.110896 0.718338 0.686798
v 0.0371467 2.30365 0.797078
vn 0.303344 -0.604064 -0.736946
v -0.802938 1.99079 0.760092
vn 0.196966 -0.454343 -0.868779
v -0.853372 1.99718 0.785976
vn -0.314508 0.685244 -0.656906
v -0.507102 2.13917 0.794641
vn -0.267153 0.629654 0.729496
v 0.0366269 2.32986 0.825878
vn -0.0720839 0.619752 0.78148
v -0.819202 1.95348 0.785273
vn 0.257374 -0.644086 -0.720356
v -0.812184 1.95556 0.786436
vn 0.357925 -0.907788 -0.218656
v -0.832864 1.94786 0.785941
vn 0.313335 -0.883484 -0.348249
v 0.00350206 2.2879 0.799103
vn 0.348198 -0.863101 0.365808
v -0.0217001 2.2782 0.799833
vn 0.277379 -0.703217 0.654634
v -0.397763 2.12422 0.793306
vn 0.34551 -0.861 0.373232
v -0.00622918 2.31079 0.826927
vn 0.167186 -0.437936 0.883324
v -0.49086 2.11327 0.820066
vn 0.168249 -0.444023 0.880077
v -0.0308253 2.29966 0.825925
vn 0.266954 -0.678666 0.684214
v -0.829413 1.9775 0.814469
vn -0.263693 0.581645 0.769516
v -0.842754 1.97112 0.814219
vn -0.14725 0.199969 0.968674
v -0.822232 1.97919 0.815163
vn -0.0660937 0.0896442 0.993778
v -0.86062 1.96846 0.789653
vn -0.925963 -0.377377 -0.0133747
v -0.848005 1.94407 0.786833
vn -0.722696 -0.673481 0.155348
v -0.856701 1.96453 0.811699
vn -0.783091 -0.528224 0.32825
v 0.0230124 2.29672 0.797438
vn 0.284003 -0.633232 -0.719971
v 0.0366872 2.30225 0.798501
vn 0.402092 -0.847305 -0.346981
v 0.0165129 2.29329 0.798406
vn 0.384 -0.897177 -0.218214
v -0.829466 1.97955 0.760233
vn 0.237065 -0.592499 -0.7699
v -0.80284 1.98923 0.761153
vn 0.258732 -0.610213 -0.748798
v -0.826426 1.96559 0.772649
vn 0.247719 -0.61859 -0.745642
v -0.860219 1.99465 0.787172
vn -0.416908 0.722285 -0.551809
v -0.858774 1.98512 0.77651
vn -0.387388 0.640871 -0.662733
v -0.866801 1.99018 0.78706
vn -0.985939 -0.0129637 -0.166603
v -0.502397 2.1262 0.807061
vn -0.260741 0.613353 0.745528
v -0.813217 2.01364 0.790825
vn -0.262926 0.616416 0.742227
v -0.803592 1.98919 0.814306
vn -0.260237 0.609587 0.748786
v 0.0342807 2.32746 0.826212
vn 0.343721 -0.550137 0.761055
v 0.0267974 2.32551 0.826779
vn -0.0584911 0.236145 0.969956
v 0.0204116 2.3217 0.826868
vn 0.170947 -0.372478 0.912161
v 0.0127482 2.32279 0.772398
vn 0.263693 -0.581644 -0.769517
v 0.00556697 2.3211 0.771703
vn 0.0660923 -0.0896405 -0.993779
v 0.0260898 2.32917 0.772648
vn 0.147249 -0.199967 -0.968675
v -0.810435 1.9895 0.75994
vn -0.167 0.43686 -0.883892
v -0.785839 2.00063 0.760942
vn -0.269245 0.684083 -0.677892
v -0.409121 2.15307 0.765597
vn -0.168249 0.444023 -0.880077
v -0.820167 2.01239 0.787764
vn -0.348778 0.863548 -0.364195
v -0.502218 2.14212 0.792358
vn -0.34551 0.861 -0.373232
v -0.794965 2.02209 0.787034
vn -0.278864 0.70668 -0.65026
v 0.00253727 2.34681 0.801594
vn -0.257373 0.644086 0.720356
v 0.0161999 2.35243 0.800926
vn -0.313335 0.883482 0.348254
v -0.00448017 2.34473 0.800431
vn -0.357925 0.907788 0.218655
v 0.0420395 2.33634 0.802692
vn 0.925963 0.377377 0.0133752
v 0.0400365 2.33576 0.775168
vn 0.77945 0.539979 -0.317617
v 0.0313401 2.35622 0.800034
vn 0.717954 0.681455 -0.14199
v -0.00344747 2.28665 0.796042
vn 0.262744 -0.616478 -0.74224
v 0.0200241 2.31056 0.784876
vn 0.273712 -0.607997 -0.745266
v -0.843462 1.97478 0.760088
vn 0.058491 -0.236145 -0.969956
v -0.82313 1.98336 0.759733
vn 0.0400238 -0.100276 -0.994154
v -0.853352 1.99804 0.788366
vn -0.402092 0.847304 0.346985
v -0.846651 2.00111 0.787377
vn -0.383194 0.871753 -0.3053
v -0.0138249 2.31106 0.825714
vn -0.25885 0.610172 0.74879
v -0.02345 2.33551 0.802233
vn -0.261525 0.616968 0.742263
v 0.0402249 2.3196 0.815746
vn 0.387389 -0.640871 0.662733
v 0.0414397 2.33056 0.824672
vn 0.920797 0.166199 0.35286
v -0.840175 1.94548 0.78693
vn 0.18232 -0.792581 0.581872
v -0.825956 1.95034 0.787126
vn 0.327768 -0.894335 0.30452
v -0.799134 1.96079 0.787509
vn 0.345244 -0.864319 0.365731
v -0.774354 1.97145 0.788962
vn 0.276969 -0.703383 0.65463
v -0.403518 2.13774 0.810252
vn 0.273141 -0.693818 0.666341
v -0.783479 1.99292 0.815053
vn 0.267292 -0.680641 0.682116
v -0.808865 1.98368 0.815334
vn 0.163146 -0.436816 0.884633
v -0.835531 1.97286 0.814504
vn 0.115522 -0.395056 0.911365
v -0.849449 1.96729 0.813446
vn 0.119918 -0.641348 0.757821
v -0.84795 1.95763 0.802917
vn 0.154559 -0.735758 0.659372
v 0.0299866 2.29918 0.79949
vn 0.383195 -0.871755 0.305294
v -0.793215 1.96478 0.784634
vn 0.261412 -0.617022 -0.742259
v -0.858104 1.96972 0.762195
vn -0.926673 -0.155351 -0.342263
v -0.836689 1.98973 0.801991
vn -0.273712 0.607997 0.745266
v 0.00646572 2.31693 0.827134
vn -0.0400253 0.10028 0.994154
v 0.0327844 2.333 0.77342
vn -0.13022 0.670068 -0.730789
v 0.0188668 2.32743 0.772363
vn -0.115521 0.395054 -0.911366
v -0.00779919 2.31661 0.771533
vn -0.164056 0.438102 -0.883828
v -0.0331856 2.30737 0.771814
vn -0.268835 0.68425 -0.677886
v -0.415062 2.16706 0.782092
vn -0.273141 0.693818 -0.666341
v -0.0423109 2.32884 0.797905
vn -0.279167 0.708563 -0.648077
v -0.0175304 2.3395 0.799358
vn -0.345287 0.863823 -0.366861
v 0.00929169 2.34995 0.79974
vn -0.327768 0.894335 -0.304521
v 0.0235104 2.35481 0.799937
vn -0.193115 0.813492 -0.548578
v 0.0294004 2.3471 0.78934
vn -0.154558 0.735758 -0.659372
v -0.0130725 2.3111 0.772561
vn 0.260064 -0.609669 -0.748779
v -0.837076 1.97859 0.759999
vn -0.170949 0.372481 -0.912159
v -0.833177 2.007 0.78846
vn -0.384 0.897177 0.218214
v 0.00976186 2.3347 0.814218
vn -0.247718 0.61859 0.745642
v 0.0501362 2.31011 0.799807
vn 0.983426 0.0218498 0.17999
v 0.0435547 2.30564 0.799695
vn 0.409187 -0.700121 0.585146
v -0.403117 2.13788 0.778523
vn 0.260741 -0.613353 -0.745528
v -0.850945 1.97283 0.760655
vn -0.357097 0.577605 -0.734067
v -0.839677 2.00357 0.789429
vn -0.284003 0.633232 0.719972
v 0.0128015 2.32074 0.826634
vn -0.237064 0.592499 0.7699
f 1//1 2//2 3//3
f 1//1 3//3 4//4
f 1//1 4//4 5//5
f 1//1 5//5 6//6
f 1//1 6//6 2//2
f 7//7 8//8 9//9
f 10//10 11//11 12//12
f 13//13 14//14 15//15
f 16//16 17//17 18//18
f 19//19 20//20 21//21
f 22//22 23//23 24//24
f 22//22 24//24 25//25
f 22//22 25//25 26//26
f 22//22 26//26 27//27
f 22//22 27//27 23//23
f 28//28 29//29 30//30
f 31//31 32//32 33//33
f 34//34 35//35 36//36
f 37//37 38//38 39//39
f 40//40 41//41 42//42
f 13//13 43//43 44//44
f 10//10 45//45 46//46
f 7//7 47//47 48//48
f 19//19 49//49 50//50
f 16//16 51//51 52//52
f 10//10 53//53 45//45
f 13//13 54//54 43//43
f 16//16 55//55 51//51
f 19//19 56//56 49//49
f 7//7 57//57 47//47
f 40//40 58//58 59//59
f 28//28 60//60 61//61
f 31//31 62//62 63//63
f 34//34 64//64 65//65
f 37//37 66//66 67//67
f 40//40 68//68 58//58
f 28//28 69//69 60//60
f 31//31 70//70 62//62
f 34//34 71//71 64//64
f 37//37 72//72 66//66
f 10//10 46//46 11//11
f 7//7 48//48 8//8
f 19//19 50//50 20//20
f 16//16 52//52 17//17
f 13//13 44//44 14//14
f 40//40 42//42 68//68
f 28//28 30//30 69//69
f 31//31 33//33 70//70
f 34//34 36//36 71//71
f 37//37 39//39 72//72
f 28//28 61//61 29//29
f 31//31 63//63 32//32
f 34//34 65//65 35//35
f 37//37 67//67 38//38
f 40//40 59//59 41//41
f 10//10 12//12 53//53
f 13//13 15//15 54//54
f 16//16 18//18 55//55
f 19//19 21//21 56//56
f 7//7 9//9 57//57
f 73//73 74//74 75//75
f 76//76 77//77 78//78
f 79//79 80//80 81//81
f 82//82 83//83 84//84
f 85//85 86//86 87//87
f 88//88 89//89 90//90
f 91//91 92//92 93//93
f 94//94 95//95 96//96
f 97//97 98//98 99//99
f 100//100 101//101 102//102
f 103//103 104//104 105//105
f 106//106 107//107 108//108
f 109//109 110//110 111//111
f 112//112 113//113 114//114
f 115//115 116//116 117//117
f 88//88 118//118 119//119
f 91//91 120//120 121//121
f 94//94 122//122 123//123
f 97//97 124//124 125//125
f 100//100 126//126 127//127
f 128//128 129//129 2//2
f 130//130 131//131 3//3
f 132//132 133//133 4//4
f 134//134 135//135 5//5
f 136//136 137//137 6//6
f 76//76 138//138 8//8
f 73//73 139//139 11//11
f 85//85 140//140 14//14
f 82//82 141//141 17//17
f 79//79 142//142 20//20
f 143//143 144//144 23//23
f 145//145 146//146 24//24
f 147//147 148//148 25//25
f 149//149 150//150 26//26
f 151//151 152//152 27//27
f 103//103 153//153 29//29
f 106//106 154//154 32//32
f 109//109 155//155 35//35
f 112//112 156//156 38//38
f 115//115 157//157 41//41
f 73//73 75//75 43//43
f 76//76 78//78 45//45
f 79//79 81//81 47//47
f 82//82 84//84 49//49
f 85//85 87//87 51//51
f 88//88 90//90 53//53
f 91//91 93//93 54//54
f 94//94 96//96 55//55
f 97//97 99//99 56//56
f 100//100 102//102 57//57
f 103//103 105//105 58//58
f 106//106 108//108 60//60
f 109//109 111//111 62//62
f 112//112 114//114 64//64
f 115//115 117//117 66//66
f 88//88 119//119 68//68
f 91//91 121//121 69//69
f 94//94 123//123 70//70
f 97//97 125//125 71//71
f 100//100 127//127 72//72
f 130//130 74//74 46//46
f 132//132 77//77 48//48
f 134//134 80//80 50//50
f 136//136 83//83 52//52
f 128//128 86//86 44//44
f 158//158 89//89 42//42
f 159//159 92//92 30//30
f 160//160 95//95 33//33
f 161//161 98//98 36//36
f 162//162 101//101 39//39
f 145//145 104//104 61//61
f 147//147 107//107 63//63
f 149//149 110//110 65//65
f 151//151 113//113 67//67
f 143//143 116//116 59//59
f 159//159 118//118 12//12
f 160//160 120//120 15//15
f 161//161 122//122 18//18
f 162//162 124//124 21//21
f 158//158 126//126 9//9
f 130//130 129//129 74//74
f 132//132 131//131 77//77
f 134//134 133//133 80//80
f 136//136 135//135 83//83
f 128//128 137//137 86//86
f 158//158 138//138 89//89
f 159//159 139//139 92//92
f 160//160 140//140 95//95
f 161//161 141//141 98//98
f 162//162 142//142 101//101
f 145//145 144//144 104//104
f 147//147 146//146 107//107
f 149//149 148//148 110//110
f 151//151 150//150 113//113
f 143//143 152//152 116//116
f 159//159 153//153 118//118
f 160//160 154//154 120//120
f 161//161 155//155 122//122
f 162//162 156//156 124//124
f 158//158 157//157 126//126
f 130//130 3//3 129//129
f 132//132 4//4 131//131
f 134//134 5//5 133//133
f 136//136 6//6 135//135
f 128//128 2//2 137//137
f 158//158 9//9 138//138
f 159//159 12//12 139//139
f 160//160 15//15 140//140
f 161//161 18//18 141//141
f 162//162 21//21 142//142
f 145//145 24//24 144//144
f 147//147 25//25 146//146
f 149//149 26//26 148//148
f 151//151 27//27 150//150
f 143//143 23//23 152//152
f 159//159 30//30 153//153
f 160//160 33//33 154//154
f 161//161 36//36 155//155
f 162//162 39//39 156//156
f 158//158 42//42 157//157
f 128//128 44//44 75//75
f 130//130 46//46 78//78
f 132//132 48//48 81//81
f 134//134 50//50 84//84
f 136//136 52//52 87//87
f 76//76 45//45 90//90
f 73//73 43//43 93//93
f 85//85 51//51 96//96
f 82//82 49//49 99//99
f 79//79 47//47 102//102
f 143//143 59//59 105//105
f 145//145 61//61 108//108
f 147//147 63//63 111//111
f 149//149 65//65 114//114
f 151//151 67//67 117//117
f 103//103 58//58 119//119
f 106//106 60//60 121//121
f 109//109 62//62 123//123
f 112//112 64//64 125//125
f 115//115 66//66 127//127
f 73//73 11//11 74//74
f 76//76 8//8 77//77
f 79//79 20//20 80//80
f 82//82 17//17 83//83
f 85//85 14//14 86//86
f 88//88 68//68 89//89
f 91//91 69//69 92//92
f 94//94 70//70 95//95
f 97//97 71//71 98//98
f 100//100 72//72 101//101
f 103//103 29//29 104//104
f 106//106 32//32 107//107
f 109//109 35//35 110//110
f 112//112 38//38 113//113
f 115//115 41//41 116//116
f 88//88 53//53 118//118
f 91//91 54//54 120//120
f 94//94 55//55 122//122
f 97//97 56//56 124//124
f 100//100 57//57 126//126
f 128//128 75//75 129//129
f 130//130 78//78 131//131
f 132//132 81//81 133//133
f 134//134 84//84 135//135
f 136//136 87//87 137//137
f 76//76 90//90 138//138
f 73//73 93//93 139//139
f 85//85 96//96 140//140
f 82//82 99//99 141//141
f 79//79 102//102 142//142
f 143//143 105//105 144//144
f 145//145 108//108 146//146
f 147//147 111//111 148//148
f 149//149 114//114 150//150
f 151//151 117//117 152//152
f 103//103 119//119 153//153
f 106//106 121//121 154//154
f 109//109 123//123 155//155
f 112//112 125//125 156//156
f 115//115 127//127 157//157
f 129//129 3//3 2//2
f 131//131 4//4 3//3
f 133//133 5//5 4//4
f 135//135 6//6 5//5
f 137//137 2//2 6//6
f 138//138 9//9 8//8
f 139//139 12//12 11//11
f 140//140 15//15 14//14
f 141//141 18//18 17//17
f 142//142 21//21 20//20
f 144//144 24//24 23//23
f 146//146 25//25 24//24
f 148//148 26//26 25//25
f 150//150 27//27 26//26
f 152//152 23//23 27//27
f 153//153 30//30 29//29
f 154//154 33//33 32//32
f 155//155 36//36 35//35
f 156//156 39//39 38//38
f 157//157 42//42 41//41
f 75//75 44//44 43//43
f 78//78 46//46 45//45
f 81//81 48//48 47//47
f 84//84 50//50 49//49
f 87//87 52//52 51//51
f 90//90 45//45 53//53
f 93//93 43//43 54//54
f 96//96 51//51 55//55
f 99//99 49//49 56//56
f 102//102 47//47 57//57
f 105//105 59//59 58//58
f 108//108 61//61 60//60
f 111//111 63//63 62//62
f 114//114 65//65 64//64
f 117//117 67//67 66//66
f 119//119 58//58 68//68
f 121//121 60//60 69//69
f 123//123 62//62 70//70
f 125//125 64//64 71//71
f 127//127 66//66 72//72
f 74//74 11//11 46//46
f 77//77 8//8 48//48
f 80//80 20//20 50//50
f 83//83 17//17 52//52
f 86//86 14//14 44//44
f 89//89 68//68 42//42
f 92//92 69//69 30//30
f 95//95 70//70 33//33
f 98//98 71//71 36//36
f 101//101 72//72 39//39
f 104//104 29//29 61//61
f 107//107 32//32 63//63
f 110//110 35//35 65//65
f 113//113 38//38 67//67
f 116//116 41//41 59//59
f 118//118 53//53 12//12
f 120//120 54//54 15//15
f 122//122 55//55 18//18
f 124//124 56//56 21//21
f 126//126 57//57 9//9
f 129//129 75//75 74//74
f 131//131 78//78 77//77
f 133//133 81//81 80//80
f 135//135 84//84 83//83
f 137//137 87//87 86//86
f 138//138 90//90 89//89
f 139//139 93//93 92//92
f 140//140 96//96 95//95
f 141//141 99//99 98//98
f 142//142 102//102 101//101
f 144//144 105//105 104//104
f 146//146 108//108 107//107
f 148//148 111//111 110//110
f 150//150 114//114 113//113
f 152//152 117//117 116//116
f 153//153 119//119 118//118
f 154//154 121//121 120//120
f 155//155 123//123 122//122
f 156//156 125//125 124//124
f 157//157 127//127 126//126
