# Created by Open3D 
# object name: part_026
# number of vertices: 162
# number of triangles: 320
v -2.81187 6.11381 0.411558
vn 0.748839 -0.425113 -0.508447
v -2.80816 6.10252 0.428618
vn 0.927256 -0.261334 -0.268144
v -2.81331 6.09729 0.424699
vn 0.666517 -0.555829 -0.4968
v -2.8199 6.10856 0.406972
vn 0.542473 -0.555745 -0.629977
v -2.81522 6.12263 0.400698
vn 0.650473 -0.380134 -0.657558
v -2.80998 6.12667 0.405745
vn 0.92163 -0.170791 -0.348467
v -3.09306 5.98259 0.295359
vn 0.258601 -0.653879 -0.711033
v -3.08915 5.96857 0.310709
vn 0.375783 -0.691498 -0.616943
v -3.09726 5.96761 0.30915
vn -0.0730774 -0.728137 -0.681525
v -2.95452 6.03499 0.373348
vn 0.084655 -0.756099 0.648958
v -2.82477 6.09748 0.429063
vn 0.0737359 -0.742571 0.665696
v -2.95877 6.03937 0.37867
vn 0.0565317 -0.727071 0.684231
v -2.87428 6.17651 0.515063
vn 0.28836 -0.586331 0.75701
v -2.87252 6.17822 0.515001
vn 0.84412 0.255295 0.471473
v -2.93676 6.24398 0.590753
vn 0.422534 -0.466146 0.777286
v -2.87633 6.20371 0.48931
vn 0.183479 0.806513 -0.562026
v -2.81945 6.13882 0.415503
vn 0.0469191 0.765754 -0.641419
v -2.93888 6.26674 0.560074
vn 0.0451321 0.767644 -0.639285
v -2.92763 6.07708 0.358327
vn -0.024333 0.691493 -0.721974
v -3.07963 6.00295 0.292689
vn 0.0172643 0.640233 -0.767986
v -3.08898 6.00377 0.293706
vn -0.0385158 0.705296 -0.707865
v -3.23416 6.13372 0.466155
vn -0.748843 0.42511 0.508444
v -3.23568 6.11586 0.476699
vn -0.921136 0.180166 0.345033
v -3.23045 6.1199 0.481746
vn -0.655796 0.413334 0.631733
v -3.22612 6.13865 0.471042
vn -0.542474 0.555744 0.629976
v -3.23236 6.14524 0.457745
vn -0.665797 0.58366 0.464818
v -3.2375 6.14001 0.453826
vn -0.928734 0.265213 0.259067
v -3.08899 6.17901 0.536119
vn 0.0243341 -0.691494 0.721972
v -3.21874 6.11647 0.480442
vn 0.0353948 -0.706627 0.7067
v -3.08472 6.17427 0.531131
vn 0.0526557 -0.72292 0.688922
v -2.95298 6.26493 0.582355
vn -0.258603 0.653878 0.711033
v -2.95461 6.24862 0.595736
vn -0.365053 0.549009 0.751882
v -2.94658 6.25077 0.596167
vn 0.0791764 0.64696 0.758402
v -3.0621 6.2211 0.521098
vn -0.0846561 0.756101 -0.648957
v -2.96814 6.26757 0.563246
vn -0.126275 0.797014 -0.590613
v -2.95883 6.26734 0.561677
vn -0.0700949 0.744465 -0.663972
v -3.17138 6.06602 0.367381
vn -0.288359 0.586332 -0.75701
v -3.22832 6.13167 0.440463
vn -0.155328 0.674098 -0.722125
v -3.10889 6.00375 0.295892
vn -0.153546 0.67221 -0.724263
v -3.16933 6.03883 0.393134
vn -0.183479 -0.806513 0.562026
v -3.17122 6.03883 0.391564
vn -0.823953 -0.52311 -0.217849
v -3.1069 5.97188 0.316954
vn -0.324841 -0.83116 0.451278
v -2.81734 6.11086 0.44198
vn 0.155328 -0.674098 0.722125
v -2.81143 6.10975 0.439054
vn 0.433132 -0.477438 0.764493
v -3.07752 5.97496 0.319198
vn 0.125811 -0.79647 0.591445
v -2.82778 6.09151 0.422405
vn 0.127902 -0.795497 0.592305
v -3.09106 5.99391 0.286708
vn 0.360449 -0.515468 -0.777412
v -3.08327 5.98566 0.298132
vn 0.509631 -0.57107 -0.643549
v -2.82692 6.12606 0.402002
vn -0.0348143 0.706678 -0.706678
v -2.82988 6.1195 0.395896
vn 0.0204381 0.639883 -0.768201
v -2.87444 6.2037 0.49088
vn 0.805037 0.571376 0.159516
v -2.81344 6.13643 0.413791
vn 0.335406 0.819842 -0.464071
v -3.08683 5.97519 0.320766
vn 0.0703999 -0.744119 0.664328
v -2.93678 6.23878 0.586551
vn 0.153548 -0.672209 0.724264
v -2.93876 6.27066 0.56549
vn 0.324841 0.83116 -0.451278
v -2.93154 6.08198 0.363463
vn -0.0526553 0.72292 -0.688923
v -3.09908 5.99176 0.286277
vn -0.0836402 -0.639904 -0.76389
v -3.22622 6.10371 0.466941
vn -0.0469191 -0.765754 0.641419
v -3.23222 6.1061 0.468653
vn -0.335406 -0.819842 0.464071
v -2.96603 6.23958 0.589754
vn -0.0176966 -0.639556 0.768541
v -3.21578 6.12303 0.486547
vn -0.0197843 -0.640532 0.767676
v -2.95651 6.27396 0.571734
vn -0.375772 0.718994 0.584673
v -2.96274 6.26155 0.579881
vn -0.50963 0.57107 0.643549
v -3.2209 6.14505 0.453381
vn -0.0733631 0.74262 -0.665683
v -3.21789 6.15102 0.460039
vn -0.127339 0.795106 -0.592952
v -3.17314 6.06431 0.367442
vn -0.83351 -0.193252 -0.517604
v -3.23423 6.13278 0.44339
vn -0.433132 0.477438 -0.764493
v -3.10678 5.97579 0.32237
vn -0.0451321 -0.767644 0.639285
v -2.95668 6.23876 0.588738
vn 0.0387201 -0.705067 0.708083
v -2.9484 6.27492 0.573294
vn 0.0765335 0.734314 0.674482
v -3.05749 6.21688 0.515924
vn -0.056532 0.727072 -0.68423
v -3.10891 5.99855 0.29169
vn -0.422534 0.466146 -0.777286
v -2.81811 6.10407 0.435302
vn 0.0912543 -0.711954 0.696272
v -2.81614 6.09871 0.429033
vn 0.152415 -0.763076 0.62808
v -2.81154 6.10441 0.43425
vn 0.221553 -0.701716 0.677133
v -3.08493 5.97034 0.31397
vn 0.243526 -0.890911 0.383369
v -3.07555 5.97383 0.315218
vn 0.525647 -0.63479 -0.566336
v -2.95126 6.03211 0.3687
vn 0.257621 -0.888449 0.379855
v -3.08697 5.9974 0.288346
vn 0.144942 0.446268 -0.883084
v -2.92563 6.07222 0.354385
vn 0.157246 0.444138 -0.882052
v -3.07746 5.99921 0.291189
vn 0.50799 -0.446374 -0.736679
v -2.82025 6.13246 0.408414
vn -0.0178511 0.736878 -0.67579
v -2.81361 6.13191 0.408208
vn 0.113905 0.727613 -0.676465
v -2.81825 6.12665 0.402577
vn 0.0440286 0.676454 -0.735167
v -2.8731 6.19389 0.500658
vn 0.848637 0.396014 0.350697
v -2.81001 6.1116 0.438384
vn 0.861947 0.351722 0.365156
v -2.81183 6.13578 0.415484
vn 0.856629 0.418298 0.302017
v -3.0979 5.97351 0.319682
vn 0.0239251 -0.743373 0.668449
v -3.1004 5.96962 0.314877
vn -0.0289337 -0.818609 0.573622
v -3.09144 5.97025 0.315269
vn 0.0719067 -0.80063 0.594829
v -2.94563 6.24063 0.589649
vn 0.0851954 -0.70545 0.703621
v -2.95035 6.23208 0.581462
vn 0.0558781 -0.723783 0.687762
v -2.88116 6.17261 0.512834
vn 0.0874033 -0.709126 0.699643
v -2.94391 6.27431 0.57065
vn 0.49703 0.814352 0.299653
v -2.94274 6.26474 0.581091
vn 0.562449 0.590472 0.578786
v -2.93729 6.27016 0.567357
vn 0.832794 0.443824 0.33087
v -2.99441 6.14954 0.439688
vn -0.0545933 0.725 -0.686582
v -2.95252 6.26094 0.554136
vn -0.0528629 0.726422 -0.685213
v -2.83295 6.13288 0.409401
vn -0.0520612 0.725562 -0.686184
v -3.10369 5.99401 0.287374
vn -0.536087 -0.295913 -0.790599
v -3.10247 5.99711 0.288836
vn -0.13657 0.610728 -0.779974
v -3.09693 5.99426 0.286256
vn -0.0405929 0.416232 -0.908352
v -3.22541 6.11007 0.47403
vn 0.0178511 -0.736878 0.67579
v -3.22742 6.11588 0.479867
vn -0.0440286 -0.676454 0.735167
v -3.23205 6.11062 0.474236
vn -0.113905 -0.727613 0.676465
v -2.95869 6.24513 0.594098
vn -0.142788 -0.446633 0.88325
v -2.9682 6.24333 0.591255
vn -0.514718 0.489667 0.703769
v -3.09236 6.18323 0.539497
vn -0.157246 -0.444138 0.882052
v -2.96073 6.27219 0.568473
vn -0.240532 0.891411 -0.384099
v -3.06673 6.22334 0.525181
vn -0.257621 0.888449 -0.379855
v -2.97011 6.2687 0.567226
vn -0.525215 0.658831 0.538601
v -3.22755 6.13846 0.447142
vn -0.0912543 0.711954 -0.696272
v -3.23413 6.13812 0.448194
vn -0.221553 0.701716 -0.677133
v -3.22952 6.14382 0.453411
vn -0.152415 0.763076 -0.62808
v -3.17296 6.05396 0.376741
vn -0.848637 -0.396014 -0.350697
v -3.23384 6.10675 0.466959
vn -0.857277 -0.413736 -0.306428
v -3.23566 6.13093 0.44406
vn -0.861994 -0.347045 -0.369495
v -3.09314 5.98159 0.328307
vn 0.0533094 -0.726213 0.6854
v -3.16235 6.04139 0.396633
vn 0.0217195 -0.739779 0.672499
v -2.94319 6.24542 0.593608
vn 0.136571 -0.610726 0.779975
v -2.95212 6.24435 0.593631
vn 0.0364753 -0.638891 0.768432
v -2.94526 6.27291 0.567566
vn 0.0289339 0.818608 -0.573623
v -2.95073 6.2749 0.570975
vn -0.0606791 0.928861 -0.365424
v -3.09531 6.01045 0.300982
vn -0.0555866 0.723921 -0.68764
v -3.21488 6.13851 0.445717
vn -0.056386 0.724777 -0.686672
v -3.10332 5.98303 0.296389
vn -0.562449 -0.590472 -0.578786
v -3.11019 5.99655 0.292188
vn -0.838159 -0.37257 -0.398347
v -2.80817 6.10522 0.433112
vn 0.970287 -0.0646609 0.233158
v -2.81059 6.10032 0.428973
vn 0.380079 -0.779822 0.49741
v -2.8183 6.09477 0.424156
vn 0.263397 -0.881644 0.391569
v -2.82552 6.09051 0.418542
vn 0.532291 -0.631689 -0.563591
v -2.95133 6.04714 0.351909
vn 0.526151 -0.563513 -0.636882
v -2.82743 6.11588 0.394513
vn 0.517224 -0.457635 -0.723222
v -2.82033 6.12183 0.398532
vn 0.163791 0.458392 -0.873527
v -2.81259 6.12695 0.40376
vn 0.27879 0.565248 -0.776383
v -2.81011 6.13101 0.408692
vn 0.905564 0.376818 -0.19484
v -2.80827 6.12072 0.418318
vn 0.989077 0.13355 0.0623773
v -3.09493 5.96763 0.311469
vn 0.0606791 -0.928861 0.365424
v -2.83078 6.10402 0.436727
vn 0.0566794 -0.724641 0.686792
v -2.93547 6.24598 0.590256
vn 0.838004 0.377363 0.39414
v -2.88331 6.20114 0.485811
vn -0.0217195 0.739779 -0.672499
v -3.09354 5.99818 0.288813
vn -0.036476 0.63889 -0.768433
v -3.23555 6.11152 0.473752
vn -0.941907 -0.312234 0.123777
v -3.23307 6.11559 0.478684
vn -0.27879 -0.565248 0.776383
v -3.22533 6.12071 0.483912
vn -0.162645 -0.455911 0.875038
v -3.21823 6.12665 0.48793
vn -0.521363 0.486566 0.701024
v -3.09473 6.20072 0.52549
vn -0.526151 0.563513 0.636882
v -3.22014 6.15202 0.463902
vn -0.531678 0.667123 0.521791
v -3.22737 6.14776 0.458288
vn -0.262538 0.882669 -0.389832
v -3.23508 6.14221 0.453471
vn -0.380079 0.779822 -0.49741
v -3.23749 6.13731 0.449332
vn -0.944595 0.141604 -0.296122
v -3.23779 6.12705 0.459162
vn -0.989077 -0.13355 -0.0623773
v -3.21271 6.10965 0.473043
vn 0.0525096 -0.725355 0.686369
v -2.94873 6.24827 0.596188
vn 0.040593 -0.416233 0.908351
v -2.95423 6.27228 0.567175
vn -0.0719067 0.800629 -0.594829
v -3.1645 6.06992 0.36961
vn -0.0874032 0.709126 -0.699643
v -3.10837 5.97237 0.315087
vn -0.833334 -0.439378 -0.335411
v -3.10175 5.96822 0.311794
vn -0.522583 -0.761326 -0.383784
v -3.02174 6.10677 0.454954
vn 0.0545933 -0.725 0.686582
v -2.94197 6.24852 0.59507
vn 0.550984 0.384418 0.740702
v -2.94776 6.26902 0.562761
vn -0.0239251 0.743373 -0.668449
v -3.10004 6.0019 0.292795
vn -0.0851956 0.70545 -0.703621
f 1//1 2//2 3//3
f 1//1 3//3 4//4
f 1//1 4//4 5//5
f 1//1 5//5 6//6
f 1//1 6//6 2//2
f 7//7 8//8 9//9
f 10//10 11//11 12//12
f 13//13 14//14 15//15
f 16//16 17//17 18//18
f 19//19 20//20 21//21
f 22//22 23//23 24//24
f 22//22 24//24 25//25
f 22//22 25//25 26//26
f 22//22 26//26 27//27
f 22//22 27//27 23//23
f 28//28 29//29 30//30
f 31//31 32//32 33//33
f 34//34 35//35 36//36
f 37//37 38//38 39//39
f 40//40 41//41 42//42
f 13//13 43//43 44//44
f 10//10 45//45 46//46
f 7//7 47//47 48//48
f 19//19 49//49 50//50
f 16//16 51//51 52//52
f 10//10 53//53 45//45
f 13//13 54//54 43//43
f 16//16 55//55 51//51
f 19//19 56//56 49//49
f 7//7 57//57 47//47
f 40//40 58//58 59//59
f 28//28 60//60 61//61
f 31//31 62//62 63//63
f 34//34 64//64 65//65
f 37//37 66//66 67//67
f 40//40 68//68 58//58
f 28//28 69//69 60//60
f 31//31 70//70 62//62
f 34//34 71//71 64//64
f 37//37 72//72 66//66
f 10//10 46//46 11//11
f 7//7 48//48 8//8
f 19//19 50//50 20//20
f 16//16 52//52 17//17
f 13//13 44//44 14//14
f 40//40 42//42 68//68
f 28//28 30//30 69//69
f 31//31 33//33 70//70
f 34//34 36//36 71//71
f 37//37 39//39 72//72
f 28//28 61//61 29//29
f 31//31 63//63 32//32
f 34//34 65//65 35//35
f 37//37 67//67 38//38
f 40//40 59//59 41//41
f 10//10 12//12 53//53
f 13//13 15//15 54//54
f 16//16 18//18 55//55
f 19//19 21//21 56//56
f 7//7 9//9 57//57
f 73//73 74//74 75//75
f 76//76 77//77 78//78
f 79//79 80//80 81//81
f 82//82 83//83 84//84
f 85//85 86//86 87//87
f 88//88 89//89 90//90
f 91//91 92//92 93//93
f 94//94 95//95 96//96
f 97//97 98//98 99//99
f 100//100 101//101 102//102
f 103//103 104//104 105//105
f 106//106 107//107 108//108
f 109//109 110//110 111//111
f 112//112 113//113 114//114
f 115//115 116//116 117//117
f 88//88 118//118 119//119
f 91//91 120//120 121//121
f 94//94 122//122 123//123
f 97//97 124//124 125//125
f 100//100 126//126 127//127
f 128//128 129//129 2//2
f 130//130 131//131 3//3
f 132//132 133//133 4//4
f 134//134 135//135 5//5
f 136//136 137//137 6//6
f 76//76 138//138 8//8
f 73//73 139//139 11//11
f 85//85 140//140 14//14
f 82//82 141//141 17//17
f 79//79 142//142 20//20
f 143//143 144//144 23//23
f 145//145 146//146 24//24
f 147//147 148//148 25//25
f 149//149 150//150 26//26
f 151//151 152//152 27//27
f 103//103 153//153 29//29
f 106//106 154//154 32//32
f 109//109 155//155 35//35
f 112//112 156//156 38//38
f 115//115 157//157 41//41
f 73//73 75//75 43//43
f 76//76 78//78 45//45
f 79//79 81//81 47//47
f 82//82 84//84 49//49
f 85//85 87//87 51//51
f 88//88 90//90 53//53
f 91//91 93//93 54//54
f 94//94 96//96 55//55
f 97//97 99//99 56//56
f 100//100 102//102 57//57
f 103//103 105//105 58//58
f 106//106 108//108 60//60
f 109//109 111//111 62//62
f 112//112 114//114 64//64
f 115//115 117//117 66//66
f 88//88 119//119 68//68
f 91//91 121//121 69//69
f 94//94 123//123 70//70
f 97//97 125//125 71//71
f 100//100 127//127 72//72
f 130//130 74//74 46//46
f 132//132 77//77 48//48
f 134//134 80//80 50//50
f 136//136 83//83 52//52
f 128//128 86//86 44//44
f 158//158 89//89 42//42
f 159//159 92//92 30//30
f 160//160 95//95 33//33
f 161//161 98//98 36//36
f 162//162 101//101 39//39
f 145//145 104//104 61//61
f 147//147 107//107 63//63
f 149//149 110//110 65//65
f 151//151 113//113 67//67
f 143//143 116//116 59//59
f 159//159 118//118 12//12
f 160//160 120//120 15//15
f 161//161 122//122 18//18
f 162//162 124//124 21//21
f 158//158 126//126 9//9
f 130//130 129//129 74//74
f 132//132 131//131 77//77
f 134//134 133//133 80//80
f 136//136 135//135 83//83
f 128//128 137//137 86//86
f 158//158 138//138 89//89
f 159//159 139//139 92//92
f 160//160 140//140 95//95
f 161//161 141//141 98//98
f 162//162 142//142 101//101
f 145//145 144//144 104//104
f 147//147 146//146 107//107
f 149//149 148//148 110//110
f 151//151 150//150 113//113
f 143//143 152//152 116//116
f 159//159 153//153 118//118
f 160//160 154//154 120//120
f 161//161 155//155 122//122
f 162//162 156//156 124//124
f 158//158 157//157 126//126
f 130//130 3//3 129//129
f 132//132 4//4 131//131
f 134//134 5//5 133//133
f 136//136 6//6 135//135
f 128//128 2//2 137//137
f 158//158 9//9 138//138
f 159//159 12//12 139//139
f 160//160 15//15 140//140
f 161//161 18//18 141//141
f 162//162 21//21 142//142
f 145//145 24//24 144//144
f 147//147 25//25 146//146
f 149//149 26//26 148//148
f 151//151 27//27 150//150
f 143//143 23//23 152//152
f 159//159 30//30 153//153
f 160//160 33//33 154//154
f 161//161 36//36 155//155
f 162//162 39//39 156//156
f 158//158 42//42 157//157
f 128//128 44//44 75//75
f 130//130 46//46 78//78
f 132//132 48//48 81//81
f 134//134 50//50 84//84
f 136//136 52//52 87//87
f 76//76 45//45 90//90
f 73//73 43//43 93//93
f 85//85 51//51 96//96
f 82//82 49//49 99//99
f 79//79 47//47 102//102
f 143//143 59//59 105//105
f 145//145 61//61 108//108
f 147//147 63//63 111//111
f 149//149 65//65 114//114
f 151//151 67//67 117//117
f 103//103 58//58 119//119
f 106//106 60//60 121//121
f 109//109 62//62 123//123
f 112//112 64//64 125//125
f 115//115 66//66 127//127
f 73//73 11//11 74//74
f 76//76 8//8 77//77
f 79//79 20//20 80//80
f 82//82 17//17 83//83
f 85//85 14//14 86//86
f 88//88 68//68 89//89
f 91//91 69//69 92//92
f 94//94 70//70 95//95
f 97//97 71//71 98//98
f 100//100 72//72 101//101
f 103//103 29//29 104//104
f 106//106 32//32 107//107
f 109//109 35//35 110//110
f 112//112 38//38 113//113
f 115//115 41//41 116//116
f 88//88 53//53 118//118
f 91//91 54//54 120//120
f 94//94 55//55 122//122
f 97//97 56//56 124//124
f 100//100 57//57 126//126
f 128//128 75//75 129//129
f 130//130 78//78 131//131
f 132//132 81//81 133//133
f 134//134 84//84 135//135
f 136//136 87//87 137//137
f 76//76 90//90 138//138
f 73//73 93//93 139//139
f 85//85 96//96 140//140
f 82//82 99//99 141//141
f 79//79 102//102 142//142
f 143//143 105//105 144//144
f 145//145 108//108 146//146
f 147//147 111//111 148//148
f 149//149 114//114 150//150
f 151//151 117//117 152//152
f 103//103 119//119 153//153
f 106//106 121//121 154//154
f 109//109 123//123 155//155
f 112//112 125//125 156//156
f 115//115 127//127 157//157
f 129//129 3//3 2//2
f 131//131 4//4 3//3
f 133//133 5//5 4//4
f 135//135 6//6 5//5
f 137//137 2//2 6//6
f 138//138 9//9 8//8
f 139//139 12//12 11//11
f 140//140 15//15 14//14
f 141//141 18//18 17//17
f 142//142 21//21 20//20
f 144//144 24//24 23//23
f 146//146 25//25 24//24
f 148//148 26//26 25//25
f 150//150 27//27 26//26
f 152//152 23//23 27//27
f 153//153 30//30 29//29
f 154//154 33//33 32//32
f 155//155 36//36 35//35
f 156//156 39//39 38//38
f 157//157 42//42 41//41
f 75//75 44//44 43//43
f 78//78 46//46 45//45
f 81//81 48//48 47//47
f 84//84 50//50 49//49
f 87//87 52//52 51//51
f 90//90 45//45 53//53
f 93//93 43//43 54//54
f 96//96 51//51 55//55
f 99//99 49//49 56//56
f 102//102 47//47 57//57
f 105//105 59//59 58//58
f 108//108 61//61 60//60
f 111//111 63//63 62//62
f 114//114 65//65 64//64
f 117//117 67//67 66//66
f 119//119 58//58 68//68
f 121//121 60//60 69//69
f 123//123 62//62 70//70
f 125//125 64//64 71//71
f 127//127 66//66 72//72
f 74//74 11//11 46//46
f 77//77 8//8 48//48
f 80//80 20//20 50//50
f 83//83 17//17 52//52
f 86//86 14//14 44//44
f 89//89 68//68 42//42
f 92//92 69//69 30//30
f 95//95 70//70 33//33
f 98//98 71//71 36//36
f 101//101 72//72 39//39
f 104//104 29//29 61//61
f 107//107 32//32 63//63
f 110//110 35//35 65//65
f 113//113 38//38 67//67
f 116//116 41//41 59//59
f 118//118 53//53 12//12
f 120//120 54//54 15//15
f 122//122 55//55 18//18
f 124//124 56//56 21//21
f 126//126 57//57 9//9
f 129//129 75//75 74//74
f 131//131 78//78 77//77
f 133//133 81//81 80//80
f 135//135 84//84 83//83
f 137//137 87//87 86//86
f 138//138 90//90 89//89
f 139//139 93//93 92//92
f 140//140 96//96 95//95
f 141//141 99//99 98//98
f 142//142 102//102 101//101
f 144//144 105//105 104//104
f 146//146 108//108 107//107
f 148//148 111//111 110//110
f 150//150 114//114 113//113
f 152//152 117//117 116//116
f 153//153 119//119 118//118
f 154//154 121//121 120//120
f 155//155 123//123 122//122
f 156//156 125//125 124//124
f 157//157 127//127 126//126
