# Created by Open3D 
# object name: part_030
# number of vertices: 162
# number of triangles: 320
v -3.4243 4.48924 -0.136597
vn 0.31736 -0.790813 -0.523353
v -3.40828 4.50428 -0.146352
vn 0.361645 -0.625776 -0.691098
v -3.40371 4.49344 -0.128296
vn 0.463225 -0.760945 -0.454297
v -3.42003 4.477 -0.11122
vn 0.33961 -0.858114 -0.385105
v -3.43634 4.48092 -0.129146
vn 0.124175 -0.880236 -0.458
v -3.43937 4.49234 -0.147163
vn 0.165847 -0.697507 -0.697122
v -3.32256 4.16795 0.694118
vn 0.354934 -0.909457 -0.216587
v -3.3039 4.17826 0.686622
vn 0.484946 -0.829525 -0.276975
v -3.30368 4.17394 0.70773
vn 0.44679 -0.89463 0.00404076
v -3.35508 4.34506 0.282881
vn 0.945553 0.325315 0.0100111
v -3.40372 4.49794 -0.102853
vn 0.940467 0.339537 0.0153516
v -3.35901 4.35565 0.287457
vn 0.934073 0.356313 0.0234063
v -3.47489 4.6791 -0.0808245
vn 0.915879 0.394508 -0.0743647
v -3.47665 4.68076 -0.086244
vn 0.321821 0.481924 -0.814973
v -3.53639 4.83373 -0.0141959
vn 0.894644 0.423804 -0.141428
v -3.50989 4.66565 -0.0817368
vn -0.94002 -0.318269 -0.122749
v -3.45114 4.515 -0.13755
vn -0.936942 -0.343306 -0.065419
v -3.5676 4.80952 -0.00937337
vn -0.937709 -0.341368 -0.0645769
v -3.40232 4.36414 0.196123
vn -0.919577 -0.39101 -0.0386015
v -3.34444 4.18374 0.648818
vn -0.897975 -0.436174 -0.0582601
v -3.34567 4.18438 0.670401
vn -0.925451 -0.377511 -0.0320142
v -3.46014 4.5159 0.845546
vn -0.31736 0.790813 0.523352
v -3.43864 4.51528 0.856279
vn -0.181716 0.69488 0.695789
v -3.44168 4.5267 0.838262
vn -0.18604 0.867402 0.461523
v -3.46401 4.52831 0.820179
vn -0.33961 0.858114 0.385105
v -3.4743 4.51417 0.837412
vn -0.517559 0.729151 0.447741
v -3.46973 4.50334 0.855469
vn -0.375238 0.617086 0.691666
v -3.4862 4.67666 0.427193
vn 0.919576 0.391011 0.0386023
v -3.43752 4.5238 0.812928
vn 0.92556 0.377134 0.0332848
v -3.48182 4.66625 0.422628
vn 0.932405 0.360532 0.0252425
v -3.56189 4.8372 0.014831
vn -0.354934 0.909457 0.216587
v -3.54149 4.84189 0.0233448
vn -0.207749 0.935987 0.284199
v -3.54325 4.84561 0.00219616
vn -0.266857 0.963736 0.000648506
v -3.53344 4.69574 0.340435
vn -0.945552 -0.325316 -0.0100119
v -3.56961 4.81004 0.0593592
vn -0.960989 -0.276398 0.0102597
v -3.56912 4.80911 0.0377562
vn -0.940707 -0.338803 -0.016812
v -3.40313 4.32852 0.789941
vn -0.915879 -0.394508 0.0743646
v -3.46286 4.4788 0.845728
vn -0.927741 -0.372847 0.0168098
v -3.34641 4.18427 0.717551
vn -0.926974 -0.374784 0.0159676
v -3.36812 4.34196 0.790853
vn 0.94002 0.318269 0.122749
v -3.36857 4.33945 0.796215
vn 0.524162 -0.157012 0.83702
v -3.30728 4.18707 0.724207
vn 0.94082 0.281128 0.189274
v -3.41515 4.52882 -0.136612
vn 0.927741 0.372847 -0.0168099
v -3.41419 4.52468 -0.148693
vn 0.899642 0.411163 -0.146933
v -3.3084 4.19758 0.649757
vn 0.960798 0.277068 -0.0100229
v -3.39877 4.48295 -0.0880733
vn 0.960695 0.277394 -0.0108716
v -3.33653 4.16573 0.685771
vn 0.14568 -0.948218 -0.282242
v -3.32473 4.17605 0.666878
vn 0.342053 -0.865831 -0.365153
v -3.4405 4.48382 -0.103812
vn -0.92552 -0.377212 -0.0335272
v -3.43481 4.46911 -0.0890125
vn -0.897499 -0.436968 -0.0596199
v -3.50944 4.66817 -0.0870984
vn -0.642303 0.0778619 -0.762486
v -3.44853 4.5115 -0.149588
vn -0.935821 -0.293768 -0.19478
v -3.30889 4.1985 0.67136
vn 0.940631 0.339021 0.016698
v -3.53161 4.82334 -0.00843526
vn 0.926974 0.374784 -0.0159676
v -3.57073 4.82054 -0.015091
vn -0.94082 -0.281128 -0.189274
v -3.40683 4.37496 0.199626
vn -0.932405 -0.360532 -0.0252426
v -3.33477 4.162 0.70692
vn 0.251458 -0.967866 0.00190317
v -3.42688 4.49262 0.846666
vn 0.936942 0.343306 0.065419
v -3.42948 4.49612 0.858704
vn 0.935821 0.293768 0.19478
v -3.53358 4.82388 0.0602983
vn 0.897697 0.436716 0.0584654
v -3.44321 4.53851 0.798129
vn 0.897801 0.43639 0.0593137
v -3.57411 4.82936 0.0224945
vn -0.539082 0.797128 0.271986
v -3.55931 4.82925 0.0420814
vn -0.342054 0.865831 0.365152
v -3.4743 4.50967 0.811969
vn -0.940447 -0.339587 -0.0155095
v -3.47924 4.52467 0.797189
vn -0.960539 -0.277942 0.0106019
v -3.40136 4.32686 0.79536
vn -0.459039 -0.500847 0.733782
v -3.46382 4.48293 0.857809
vn -0.899642 -0.411163 0.146933
v -3.31042 4.19809 0.718489
vn 0.937709 0.341368 0.0645769
v -3.53234 4.82324 0.038715
vn 0.925397 0.37765 0.0319386
v -3.57434 4.83367 0.00138585
vn -0.460855 0.887445 -0.00735819
v -3.52964 4.68556 0.334798
vn -0.934074 -0.356313 -0.0234062
v -3.34162 4.17389 0.723312
vn -0.894644 -0.423804 0.141428
v -3.40919 4.51345 -0.126671
vn 0.932776 0.360337 0.00928799
v -3.40454 4.50033 -0.12459
vn 0.953632 0.300335 -0.0196375
v -3.40939 4.51331 -0.142322
vn 0.942675 0.330356 -0.0472155
v -3.30491 4.18506 0.673539
vn 0.990944 0.112778 -0.0728744
v -3.30788 4.19131 0.647755
vn 0.476954 -0.79943 -0.365276
v -3.35271 4.33655 0.2793
vn 0.990929 0.108384 -0.0794485
v -3.33974 4.17168 0.672631
vn -0.806812 -0.578344 -0.120717
v -3.39773 4.35474 0.196619
vn -0.804052 -0.581004 -0.126234
v -3.34054 4.17876 0.646904
vn 0.118317 -0.921985 -0.368707
v -3.44573 4.49941 -0.127624
vn -0.933494 -0.356427 -0.0393553
v -3.44478 4.49972 -0.143245
vn -0.918215 -0.384341 -0.0957244
v -3.4405 4.48652 -0.125527
vn -0.907512 -0.414462 -0.0681474
v -3.49669 4.67381 -0.0884757
vn -0.113498 0.358396 -0.926645
v -3.41625 4.52555 -0.153088
vn 0.00851574 0.361901 -0.932178
v -3.44738 4.51359 -0.1539
vn -0.221719 0.272891 -0.936147
v -3.30795 4.19376 0.699896
vn 0.936106 0.34982 0.0364796
v -3.30486 4.18325 0.711074
vn 0.955197 0.290812 0.0550226
v -3.30493 4.18577 0.688711
vn 0.957627 0.287717 0.0129896
v -3.53352 4.82789 0.0101728
vn 0.930163 0.366946 0.0121584
v -3.5262 4.80826 0.0316561
vn 0.932986 0.359123 0.023834
v -3.47152 4.67151 -0.0603254
vn 0.931522 0.363517 0.0110575
v -3.57395 4.83013 -0.00773419
vn -0.844782 0.381929 -0.374798
v -3.56132 4.83688 -0.00920969
vn -0.301218 0.817603 -0.490708
v -3.56972 4.82299 -0.0192498
vn -0.249244 0.342518 -0.905847
v -3.46835 4.53037 0.266873
vn -0.933242 -0.358424 -0.0243245
v -3.56334 4.794 0.0306881
vn -0.93352 -0.357653 -0.0249947
v -3.44675 4.49914 -0.0976341
vn -0.933174 -0.358528 -0.0253754
v -3.33726 4.16474 0.715985
vn -0.388256 -0.855478 0.342659
v -3.34026 4.16965 0.710151
vn -0.905693 -0.423884 0.00651707
v -3.33735 4.16445 0.700005
vn -0.822065 -0.567962 -0.0403579
v -3.43228 4.5082 0.83674
vn 0.933494 0.356427 0.0393553
v -3.43752 4.5211 0.834643
vn 0.907511 0.414462 0.0681475
v -3.43323 4.5079 0.852361
vn 0.918215 0.384341 0.0957242
v -3.53828 4.83594 0.0364847
vn 0.807292 0.577875 0.119751
v -3.53748 4.82886 0.062212
vn -0.197545 0.90674 0.372558
v -3.4903 4.68451 0.430728
vn 0.804052 0.581003 0.126234
v -3.57311 4.82256 0.0355769
vn -0.99094 -0.113705 0.0714831
v -3.53532 4.70269 0.348046
vn -0.990929 -0.108384 0.0794485
v -3.57014 4.81631 0.0613607
vn -0.52356 0.77205 0.360311
v -3.46883 4.49417 0.835787
vn -0.932776 -0.360337 -0.00928799
v -3.46863 4.4943 0.851439
vn -0.942675 -0.330356 0.0472155
v -3.47348 4.50729 0.833706
vn -0.953632 -0.300335 0.0196375
v -3.38818 4.33117 0.797413
vn 0.113498 -0.358396 0.926645
v -3.43063 4.49403 0.863016
vn 0.206108 -0.279472 0.937771
v -3.46176 4.48207 0.862205
vn -0.0244302 -0.367428 0.929731
v -3.31468 4.21362 0.678428
vn 0.933497 0.357724 0.0248147
v -3.36977 4.35021 0.770399
vn 0.934771 0.353258 0.0375837
v -3.53775 4.83796 -0.00103528
vn 0.905693 0.423884 -0.0065171
v -3.53713 4.83566 0.0213423
vn 0.903515 0.427082 0.0355177
v -3.57315 4.82437 -0.00195797
vn -0.955197 -0.290812 -0.0550226
v -3.57494 4.83001 0.00821754
vn -0.991671 -0.128609 -0.00691225
v -3.35182 4.19936 0.67746
vn -0.933001 -0.359076 -0.0239518
v -3.46841 4.49421 0.805782
vn -0.933345 -0.358206 -0.0235729
v -3.32344 4.16814 0.71815
vn 0.301218 -0.817603 0.490708
v -3.33942 4.17267 0.727555
vn 0.00310439 -0.437051 0.899431
v -3.41029 4.51293 -0.150461
vn 0.59988 -0.0375703 -0.799207
v -3.40597 4.50251 -0.139142
vn 0.975133 0.180835 -0.128115
v -3.40139 4.48973 -0.114185
vn 0.989918 0.116025 -0.0812455
v -3.39835 4.477 -0.0909147
vn 0.476463 -0.797879 -0.369286
v -3.37252 4.32568 0.27752
vn 0.340852 -0.862022 -0.37515
v -3.43101 4.46446 -0.091766
vn 0.143944 -0.916048 -0.374347
v -3.43622 4.47635 -0.115093
vn -0.809239 -0.573251 -0.128509
v -3.44024 4.48935 -0.140035
vn -0.838593 -0.51575 -0.175395
v -3.44349 4.50019 -0.151326
vn -0.519915 -0.439696 -0.732363
v -3.4302 4.50528 -0.153524
vn 0.123731 -0.257123 -0.958425
v -3.30308 4.17761 0.700899
vn 0.991671 0.128609 0.00691225
v -3.40961 4.5134 -0.096666
vn 0.933331 0.358251 0.0234543
v -3.53859 4.83494 -0.0184386
vn -0.019194 0.431969 -0.901684
v -3.50825 4.6574 -0.0612829
vn -0.934771 -0.353258 -0.0375837
v -3.34089 4.17196 0.687774
vn -0.903515 -0.427082 -0.0355177
v -3.43453 4.50743 0.860442
vn 0.383627 0.415294 0.824841
v -3.43778 4.51827 0.849151
vn 0.838593 0.515751 0.175395
v -3.4418 4.53127 0.824209
vn 0.808343 0.574604 0.128109
v -3.447 4.54316 0.800882
vn -0.19706 0.905187 0.376569
v -3.51235 4.6793 0.431417
vn -0.340852 0.862022 0.37515
v -3.47967 4.53062 0.800031
vn -0.545273 0.756232 0.36165
v -3.47663 4.51789 0.823301
vn -0.990072 -0.114892 0.0809772
v -3.47205 4.5051 0.848258
vn -0.975133 -0.180835 0.128115
v -3.46772 4.49468 0.859577
vn -0.71312 -0.0338623 0.700224
v -3.45456 4.49975 0.862464
vn -0.123731 0.257123 0.958425
v -3.43126 4.50848 0.80675
vn 0.933153 0.358597 0.0251943
v -3.54066 4.84317 0.00911075
vn 0.822065 0.567962 0.0403579
v -3.57309 4.82184 0.0204051
vn -0.957627 -0.287717 -0.0129897
v -3.4065 4.33611 0.769442
vn -0.931522 -0.363517 -0.0110575
v -3.3083 4.18463 0.728366
vn 0.233809 -0.349542 0.907278
v -3.30407 4.17749 0.71685
vn 0.749475 -0.50996 0.42217
v -3.42034 4.51098 0.355044
vn 0.933242 0.358424 0.0243245
v -3.54076 4.84288 -0.00686895
vn 0.234038 0.887684 -0.39654
v -3.57007 4.81386 0.00922027
vn -0.936106 -0.34982 -0.0364795
v -3.3445 4.17972 0.698943
vn -0.930163 -0.366946 -0.0121584
f 1//1 2//2 3//3
f 1//1 3//3 4//4
f 1//1 4//4 5//5
f 1//1 5//5 6//6
f 1//1 6//6 2//2
f 7//7 8//8 9//9
f 10//10 11//11 12//12
f 13//13 14//14 15//15
f 16//16 17//17 18//18
f 19//19 20//20 21//21
f 22//22 23//23 24//24
f 22//22 24//24 25//25
f 22//22 25//25 26//26
f 22//22 26//26 27//27
f 22//22 27//27 23//23
f 28//28 29//29 30//30
f 31//31 32//32 33//33
f 34//34 35//35 36//36
f 37//37 38//38 39//39
f 40//40 41//41 42//42
f 13//13 43//43 44//44
f 10//10 45//45 46//46
f 7//7 47//47 48//48
f 19//19 49//49 50//50
f 16//16 51//51 52//52
f 10//10 53//53 45//45
f 13//13 54//54 43//43
f 16//16 55//55 51//51
f 19//19 56//56 49//49
f 7//7 57//57 47//47
f 40//40 58//58 59//59
f 28//28 60//60 61//61
f 31//31 62//62 63//63
f 34//34 64//64 65//65
f 37//37 66//66 67//67
f 40//40 68//68 58//58
f 28//28 69//69 60//60
f 31//31 70//70 62//62
f 34//34 71//71 64//64
f 37//37 72//72 66//66
f 10//10 46//46 11//11
f 7//7 48//48 8//8
f 19//19 50//50 20//20
f 16//16 52//52 17//17
f 13//13 44//44 14//14
f 40//40 42//42 68//68
f 28//28 30//30 69//69
f 31//31 33//33 70//70
f 34//34 36//36 71//71
f 37//37 39//39 72//72
f 28//28 61//61 29//29
f 31//31 63//63 32//32
f 34//34 65//65 35//35
f 37//37 67//67 38//38
f 40//40 59//59 41//41
f 10//10 12//12 53//53
f 13//13 15//15 54//54
f 16//16 18//18 55//55
f 19//19 21//21 56//56
f 7//7 9//9 57//57
f 73//73 74//74 75//75
f 76//76 77//77 78//78
f 79//79 80//80 81//81
f 82//82 83//83 84//84
f 85//85 86//86 87//87
f 88//88 89//89 90//90
f 91//91 92//92 93//93
f 94//94 95//95 96//96
f 97//97 98//98 99//99
f 100//100 101//101 102//102
f 103//103 104//104 105//105
f 106//106 107//107 108//108
f 109//109 110//110 111//111
f 112//112 113//113 114//114
f 115//115 116//116 117//117
f 88//88 118//118 119//119
f 91//91 120//120 121//121
f 94//94 122//122 123//123
f 97//97 124//124 125//125
f 100//100 126//126 127//127
f 128//128 129//129 2//2
f 130//130 131//131 3//3
f 132//132 133//133 4//4
f 134//134 135//135 5//5
f 136//136 137//137 6//6
f 76//76 138//138 8//8
f 73//73 139//139 11//11
f 85//85 140//140 14//14
f 82//82 141//141 17//17
f 79//79 142//142 20//20
f 143//143 144//144 23//23
f 145//145 146//146 24//24
f 147//147 148//148 25//25
f 149//149 150//150 26//26
f 151//151 152//152 27//27
f 103//103 153//153 29//29
f 106//106 154//154 32//32
f 109//109 155//155 35//35
f 112//112 156//156 38//38
f 115//115 157//157 41//41
f 73//73 75//75 43//43
f 76//76 78//78 45//45
f 79//79 81//81 47//47
f 82//82 84//84 49//49
f 85//85 87//87 51//51
f 88//88 90//90 53//53
f 91//91 93//93 54//54
f 94//94 96//96 55//55
f 97//97 99//99 56//56
f 100//100 102//102 57//57
f 103//103 105//105 58//58
f 106//106 108//108 60//60
f 109//109 111//111 62//62
f 112//112 114//114 64//64
f 115//115 117//117 66//66
f 88//88 119//119 68//68
f 91//91 121//121 69//69
f 94//94 123//123 70//70
f 97//97 125//125 71//71
f 100//100 127//127 72//72
f 130//130 74//74 46//46
f 132//132 77//77 48//48
f 134//134 80//80 50//50
f 136//136 83//83 52//52
f 128//128 86//86 44//44
f 158//158 89//89 42//42
f 159//159 92//92 30//30
f 160//160 95//95 33//33
f 161//161 98//98 36//36
f 162//162 101//101 39//39
f 145//145 104//104 61//61
f 147//147 107//107 63//63
f 149//149 110//110 65//65
f 151//151 113//113 67//67
f 143//143 116//116 59//59
f 159//159 118//118 12//12
f 160//160 120//120 15//15
f 161//161 122//122 18//18
f 162//162 124//124 21//21
f 158//158 126//126 9//9
f 130//130 129//129 74//74
f 132//132 131//131 77//77
f 134//134 133//133 80//80
f 136//136 135//135 83//83
f 128//128 137//137 86//86
f 158//158 138//138 89//89
f 159//159 139//139 92//92
f 160//160 140//140 95//95
f 161//161 141//141 98//98
f 162//162 142//142 101//101
f 145//145 144//144 104//104
f 147//147 146//146 107//107
f 149//149 148//148 110//110
f 151//151 150//150 113//113
f 143//143 152//152 116//116
f 159//159 153//153 118//118
f 160//160 154//154 120//120
f 161//161 155//155 122//122
f 162//162 156//156 124//124
f 158//158 157//157 126//126
f 130//130 3//3 129//129
f 132//132 4//4 131//131
f 134//134 5//5 133//133
f 136//136 6//6 135//135
f 128//128 2//2 137//137
f 158//158 9//9 138//138
f 159//159 12//12 139//139
f 160//160 15//15 140//140
f 161//161 18//18 141//141
f 162//162 21//21 142//142
f 145//145 24//24 144//144
f 147//147 25//25 146//146
f 149//149 26//26 148//148
f 151//151 27//27 150//150
f 143//143 23//23 152//152
f 159//159 30//30 153//153
f 160//160 33//33 154//154
f 161//161 36//36 155//155
f 162//162 39//39 156//156
f 158//158 42//42 157//157
f 128//128 44//44 75//75
f 130//130 46//46 78//78
f 132//132 48//48 81//81
f 134//134 50//50 84//84
f 136//136 52//52 87//87
f 76//76 45//45 90//90
f 73//73 43//43 93//93
f 85//85 51//51 96//96
f 82//82 49//49 99//99
f 79//79 47//47 102//102
f 143//143 59//59 105//105
f 145//145 61//61 108//108
f 147//147 63//63 111//111
f 149//149 65//65 114//114
f 151//151 67//67 117//117
f 103//103 58//58 119//119
f 106//106 60//60 121//121
f 109//109 62//62 123//123
f 112//112 64//64 125//125
f 115//115 66//66 127//127
f 73//73 11//11 74//74
f 76//76 8//8 77//77
f 79//79 20//20 80//80
f 82//82 17//17 83//83
f 85//85 14//14 86//86
f 88//88 68//68 89//89
f 91//91 69//69 92//92
f 94//94 70//70 95//95
f 97//97 71//71 98//98
f 100//100 72//72 101//101
f 103//103 29//29 104//104
f 106//106 32//32 107//107
f 109//109 35//35 110//110
f 112//112 38//38 113//113
f 115//115 41//41 116//116
f 88//88 53//53 118//118
f 91//91 54//54 120//120
f 94//94 55//55 122//122
f 97//97 56//56 124//124
f 100//100 57//57 126//126
f 128//128 75//75 129//129
f 130//130 78//78 131//131
f 132//132 81//81 133//133
f 134//134 84//84 135//135
f 136//136 87//87 137//137
f 76//76 90//90 138//138
f 73//73 93//93 139//139
f 85//85 96//96 140//140
f 82//82 99//99 141//141
f 79//79 102//102 142//142
f 143//143 105//105 144//144
f 145//145 108//108 146//146
f 147//147 111//111 148//148
f 149//149 114//114 150//150
f 151//151 117//117 152//152
f 103//103 119//119 153//153
f 106//106 121//121 154//154
f 109//109 123//123 155//155
f 112//112 125//125 156//156
f 115//115 127//127 157//157
f 129//129 3//3 2//2
f 131//131 4//4 3//3
f 133//133 5//5 4//4
f 135//135 6//6 5//5
f 137//137 2//2 6//6
f 138//138 9//9 8//8
f 139//139 12//12 11//11
f 140//140 15//15 14//14
f 141//141 18//18 17//17
f 142//142 21//21 20//20
f 144//144 24//24 23//23
f 146//146 25//25 24//24
f 148//148 26//26 25//25
f 150//150 27//27 26//26
f 152//152 23//23 27//27
f 153//153 30//30 29//29
f 154//154 33//33 32//32
f 155//155 36//36 35//35
f 156//156 39//39 38//38
f 157//157 42//42 41//41
f 75//75 44//44 43//43
f 78//78 46//46 45//45
f 81//81 48//48 47//47
f 84//84 50//50 49//49
f 87//87 52//52 51//51
f 90//90 45//45 53//53
f 93//93 43//43 54//54
f 96//96 51//51 55//55
f 99//99 49//49 56//56
f 102//102 47//47 57//57
f 105//105 59//59 58//58
f 108//108 61//61 60//60
f 111//111 63//63 62//62
f 114//114 65//65 64//64
f 117//117 67//67 66//66
f 119//119 58//58 68//68
f 121//121 60//60 69//69
f 123//123 62//62 70//70
f 125//125 64//64 71//71
f 127//127 66//66 72//72
f 74//74 11//11 46//46
f 77//77 8//8 48//48
f 80//80 20//20 50//50
f 83//83 17//17 52//52
f 86//86 14//14 44//44
f 89//89 68//68 42//42
f 92//92 69//69 30//30
f 95//95 70//70 33//33
f 98//98 71//71 36//36
f 101//101 72//72 39//39
f 104//104 29//29 61//61
f 107//107 32//32 63//63
f 110//110 35//35 65//65
f 113//113 38//38 67//67
f 116//116 41//41 59//59
f 118//118 53//53 12//12
f 120//120 54//54 15//15
f 122//122 55//55 18//18
f 124//124 56//56 21//21
f 126//126 57//57 9//9
f 129//129 75//75 74//74
f 131//131 78//78 77//77
f 133//133 81//81 80//80
f 135//135 84//84 83//83
f 137//137 87//87 86//86
f 138//138 90//90 89//89
f 139//139 93//93 92//92
f 140//140 96//96 95//95
f 141//141 99//99 98//98
f 142//142 102//102 101//101
f 144//144 105//105 104//104
f 146//146 108//108 107//107
f 148//148 111//111 110//110
f 150//150 114//114 113//113
f 152//152 117//117 116//116
f 153//153 119//119 118//118
f 154//154 121//121 120//120
f 155//155 123//123 122//122
f 156//156 125//125 124//124
f 157//157 127//127 126//126
