# Created by Open3D 
# object name: part_004
# number of vertices: 162
# number of triangles: 320
v -0.00708054 2.99945 0.49498
vn -0.940328 0.323257 0.10625
v -0.00496383 2.99695 0.515029
vn -0.987586 -0.0375678 0.152521
v -0.00364856 3.00127 0.515607
vn -0.879084 0.449961 0.157309
v -0.00444255 3.00447 0.494776
vn -0.795182 0.600674 0.0829174
v -0.00782194 3.00054 0.480907
vn -0.895211 0.445514 0.0106806
v -0.00894109 2.99625 0.48196
vn -0.995666 -0.0432115 0.0823565
v 0.100713 3.13774 0.479087
vn -0.534499 0.843893 0.0464186
v 0.102095 3.13693 0.500017
vn -0.635403 0.76258 0.121386
v 0.105862 3.13913 0.49869
vn -0.194147 0.980328 0.0355437
v 0.0526239 3.06667 0.509671
vn 0.0466557 0.0780782 0.995855
v 0.00357107 3.0013 0.516983
vn 0.0749601 0.0513192 0.995865
v 0.0565666 3.06358 0.509508
vn 0.11473 0.0246979 0.99309
v 0.0577475 2.9452 0.510695
vn -0.188026 -0.357265 0.914881
v 0.0569062 2.94427 0.509619
vn -0.597374 -0.779506 0.188454
v 0.115212 2.89951 0.504392
vn -0.321812 -0.530595 0.784159
v 0.0532695 2.94441 0.473463
vn -0.397709 -0.39418 -0.828523
v -0.000597878 2.98921 0.478462
vn -0.252328 -0.190432 -0.948718
v 0.109162 2.90235 0.4671
vn -0.248152 -0.193735 -0.949151
v 0.0367916 3.05156 0.472245
vn -0.191086 0.03622 -0.980905
v 0.0941022 3.12864 0.464097
vn -0.286238 0.116499 -0.95105
v 0.0993279 3.12935 0.463049
vn -0.159125 0.014472 -0.987152
v 0.230384 3.03512 0.465664
vn 0.940328 -0.323256 -0.10625
v 0.233067 3.03846 0.485522
vn 0.995395 0.0389418 -0.0875947
v 0.231948 3.03417 0.486575
vn 0.893566 -0.447414 -0.0368884
v 0.227798 3.03011 0.466301
vn 0.795181 -0.600676 -0.0829173
v 0.227775 3.03344 0.451875
vn 0.874459 -0.449167 -0.18322
v 0.22909 3.03776 0.452453
vn 0.986586 0.0416131 -0.157847
v 0.176201 2.96887 0.496879
vn 0.191089 -0.0362222 0.980904
v 0.22526 3.03424 0.489622
vn 0.163463 -0.00934728 0.986505
v 0.172316 2.97197 0.497526
vn 0.124034 0.0173345 0.992127
v 0.12259 2.89683 0.481557
vn 0.534497 -0.843895 -0.0464182
v 0.126204 2.89851 0.502165
vn 0.649892 -0.760026 -0.000957013
v 0.122241 2.89628 0.501862
vn 0.201961 -0.978953 0.0293862
v 0.160369 2.95376 0.459453
vn -0.0466552 -0.0780786 -0.995855
v 0.125415 2.90526 0.46506
vn 0.0555315 -0.159725 -0.985598
v 0.120093 2.90453 0.465311
vn -0.0797528 -0.0581397 -0.995118
v 0.166379 3.08952 0.456787
vn 0.188025 0.357264 -0.914882
v 0.22012 3.0447 0.450741
vn 0.0193196 0.149407 -0.988587
v 0.11036 3.13156 0.462103
vn 0.0151464 0.152712 -0.988155
v 0.170857 3.0903 0.494019
vn 0.397709 0.394179 0.828523
v 0.171414 3.09118 0.492737
vn 0.6211 0.783682 0.0088103
v 0.113307 3.13597 0.499615
vn 0.495834 0.56124 0.66269
v 0.00400604 2.99002 0.516741
vn -0.0193204 -0.149408 0.988587
v 3.95704e-05 2.99066 0.516314
vn -0.342497 -0.51426 0.786277
v 0.0987117 3.12945 0.502422
vn -0.0542976 0.158526 0.985861
v 0.00297048 3.00662 0.516538
vn -0.057093 0.154942 0.986272
v 0.0979221 3.1362 0.465317
vn -0.651372 0.758338 -0.0252757
v 0.0965237 3.134 0.47989
vn -0.767594 0.636067 0.0788535
v -0.00113428 3.00047 0.47786
vn -0.164382 0.00883436 -0.986357
v -0.00163893 3.00581 0.478212
vn -0.291388 0.114819 -0.949689
v 0.0527118 2.94354 0.474746
vn -0.623017 -0.7805 -0.0516697
v -0.00435323 2.98989 0.47979
vn -0.516508 -0.544894 -0.660537
v 0.104033 3.13018 0.502171
vn 0.079478 0.0571157 0.995199
v 0.113766 2.90316 0.50538
vn -0.0151467 -0.152713 0.988155
v 0.110819 2.89874 0.467868
vn -0.495833 -0.561239 -0.662691
v 0.0405386 3.04828 0.471618
vn -0.124035 -0.017334 -0.992126
v 0.101885 3.13843 0.465621
vn -0.198501 0.979469 -0.0351716
v 0.224724 3.04551 0.489021
vn 0.252327 0.190431 0.948719
v 0.228479 3.04483 0.487693
vn 0.516509 0.544895 0.660536
v 0.130024 2.90608 0.503386
vn 0.287214 -0.117535 0.950628
v 0.225765 3.0289 0.48927
vn 0.29 -0.113943 0.950219
v 0.122031 2.89778 0.467466
vn 0.630619 -0.76199 -0.147278
v 0.126832 2.90058 0.481187
vn 0.767595 -0.636066 -0.0788537
v 0.220555 3.03342 0.4505
vn -0.0755636 -0.051656 -0.995802
v 0.221156 3.02809 0.450945
vn 0.0558348 -0.154208 -0.986459
v 0.16722 3.09044 0.457863
vn 0.589094 0.774527 -0.230385
v 0.224087 3.04405 0.451168
vn 0.342497 0.51426 -0.786277
v 0.114964 3.13237 0.500382
vn 0.248152 0.193735 0.949151
v 0.124798 2.90536 0.504434
vn 0.15894 -0.015141 0.987172
v 0.118264 2.89558 0.468793
vn 0.18942 -0.981068 -0.0403245
v 0.156288 2.95668 0.459636
vn -0.11473 -0.0246981 -0.99309
v 0.108915 3.1352 0.46309
vn 0.321812 0.530595 -0.78416
v 0.0021819 2.99534 0.517149
vn 0.0661602 -0.0318169 0.997302
v -0.0008862 2.99951 0.517113
vn -0.0743791 0.0601562 0.995414
v -0.00153473 2.9946 0.516992
vn -0.149512 -0.113058 0.982275
v 0.100888 3.13437 0.501407
vn -0.326851 0.379423 0.865567
v 0.0965146 3.13109 0.500832
vn -0.769854 0.622224 0.14199
v 0.049467 3.06906 0.509069
vn -0.347289 0.369743 0.861789
v 0.0964324 3.13358 0.464361
vn -0.527427 0.343216 -0.777189
v 0.0343786 3.05466 0.473401
vn -0.543496 0.335203 -0.769579
v 0.0923365 3.13036 0.466093
vn -0.786552 0.617331 -0.0154427
v -0.00249332 2.99451 0.478277
vn -0.171937 -0.0737338 -0.982345
v -0.00606295 2.9938 0.479341
vn -0.377496 -0.153195 -0.913251
v -0.00548642 2.9987 0.478864
vn -0.308478 0.0189438 -0.951043
v 0.0541479 2.94354 0.488569
vn -0.612267 -0.785481 0.090269
v -0.000786508 2.98996 0.514694
vn -0.62456 -0.772555 0.114381
v -0.00476829 2.98926 0.481587
vn -0.630279 -0.77357 0.0658565
v 0.109438 3.13293 0.501336
vn 0.157397 0.0852325 0.98385
v 0.109202 3.13666 0.500665
vn 0.179907 0.309561 0.933705
v 0.104648 3.1349 0.501554
vn 0.0335547 0.198624 0.979501
v 0.119364 2.9026 0.505019
vn 0.0806947 -0.0433199 0.995797
v 0.119093 2.90978 0.505221
vn 0.118057 0.0173211 0.992856
v 0.0605149 2.94862 0.511222
vn 0.0745626 -0.0361362 0.996561
v 0.115149 2.89614 0.468021
vn -0.302689 -0.941369 -0.149012
v 0.116867 2.89583 0.482095
vn -0.293937 -0.954209 0.0555529
v 0.110535 2.89801 0.469652
vn -0.599843 -0.797657 0.0627036
v 0.0983604 3.00242 0.465557
vn -0.119384 -0.0210164 -0.992626
v 0.114341 2.90894 0.465715
vn -0.121314 -0.0254937 -0.992287
v 0.00445675 2.9959 0.47709
vn -0.123242 -0.0239675 -0.992087
v 0.104731 3.13783 0.464156
vn 0.254026 0.932802 -0.25564
v 0.104674 3.13586 0.463015
vn -0.0480722 0.269425 -0.961821
v 0.100897 3.13712 0.464051
vn -0.268839 0.51825 -0.811876
v 0.22662 3.0402 0.489206
vn 0.171937 0.0737335 0.982345
v 0.229613 3.03601 0.488618
vn 0.308477 -0.0189431 0.951043
v 0.230189 3.04091 0.488141
vn 0.377497 0.153195 0.913251
v 0.127694 2.90113 0.503122
vn 0.524586 -0.344615 0.778492
v 0.13179 2.90436 0.50139
vn 0.784685 -0.619613 -0.0186821
v 0.179137 2.96644 0.495646
vn 0.543495 -0.335202 0.769579
v 0.123238 2.90035 0.466075
vn 0.322475 -0.381464 -0.866311
v 0.164049 2.95204 0.459978
vn 0.347289 -0.369743 -0.861789
v 0.127612 2.90362 0.466651
vn 0.765687 -0.621819 -0.164511
v 0.221944 3.03938 0.450333
vn -0.06616 0.0318167 -0.997302
v 0.225661 3.04012 0.450491
vn 0.149511 0.113056 -0.982275
v 0.225012 3.0352 0.450369
vn 0.0743781 -0.0601554 -0.995414
v 0.169101 3.09102 0.471621
vn 0.612267 0.785481 -0.0902692
v 0.228895 3.04545 0.485895
vn 0.629991 0.773509 -0.0692378
v 0.224913 3.04475 0.452788
vn 0.624041 0.772471 -0.117737
v 0.109785 3.12577 0.501768
vn 0.12071 0.0247114 0.99238
v 0.16831 3.08692 0.495329
vn 0.163575 0.0780588 0.983438
v 0.119452 2.89885 0.504468
vn 0.0480724 -0.269425 0.961821
v 0.124078 2.90062 0.504177
vn 0.200549 -0.157419 0.966954
v 0.114924 2.89805 0.466817
vn -0.179907 -0.30956 -0.933705
v 0.118845 2.89682 0.46698
vn 0.0713536 -0.553016 -0.830109
v 0.105033 3.12493 0.462261
vn -0.118452 -0.0178317 -0.9928
v 0.214918 3.03797 0.450887
vn -0.116534 -0.0193499 -0.992998
v 0.106397 3.13873 0.478211
vn 0.293937 0.954209 -0.055553
v 0.10961 3.136 0.464724
vn 0.593602 0.796559 -0.114588
v -0.00356521 2.99419 0.516054
vn -0.827723 -0.49934 0.255995
v -0.00372254 2.99805 0.516573
vn -0.458022 0.0569683 0.887113
v -0.00132746 3.00323 0.516477
vn -0.351065 0.348354 0.869139
v 0.000664446 3.00813 0.514963
vn -0.775454 0.615041 0.142813
v 0.0457321 3.06942 0.486916
vn -0.781586 0.618528 0.0809059
v -0.00351368 3.00739 0.480224
vn -0.791816 0.610751 -0.00328537
v -0.00578307 3.00245 0.479431
vn -0.549896 0.308909 -0.776009
v -0.00810663 2.99728 0.480122
vn -0.655506 0.022202 -0.754863
v -0.00781144 2.99345 0.480749
vn -0.861893 -0.498837 -0.0911164
v -0.00671214 2.99362 0.494888
vn -0.85038 -0.513858 0.113155
v 0.105281 3.1379 0.500502
vn -0.0713535 0.553016 0.83011
v 0.00920822 2.99674 0.516596
vn 0.116135 0.0188422 0.993055
v 0.114517 2.89871 0.502758
vn -0.593992 -0.796746 0.111219
v 0.0558161 2.9478 0.472154
vn -0.163575 -0.0780589 -0.983438
v 0.100048 3.13409 0.463305
vn -0.20055 0.157419 -0.966954
v 0.231938 3.04127 0.486733
vn 0.862291 0.505436 0.0314571
v 0.232233 3.03743 0.487361
vn 0.655506 -0.0222002 0.754864
v 0.229909 3.03226 0.488052
vn 0.548797 -0.313544 0.774927
v 0.22764 3.02732 0.487258
vn 0.790283 -0.612431 -0.01951
v 0.177517 2.96513 0.473274
vn 0.781586 -0.618528 -0.0809059
v 0.223462 3.02659 0.452519
vn 0.769346 -0.613968 -0.176495
v 0.225454 3.03148 0.451005
vn 0.350508 -0.351561 -0.868072
v 0.227849 3.03666 0.450909
vn 0.45802 -0.0569674 -0.887115
v 0.227691 3.04052 0.451428
vn 0.813231 0.490262 -0.313525
v 0.229975 3.04094 0.465419
vn 0.85038 0.513858 -0.113155
v 0.219669 3.03881 0.490393
vn 0.122632 0.0231901 0.992181
v 0.123229 2.89759 0.503432
vn 0.268839 -0.518249 0.811877
v 0.119478 2.89981 0.465929
vn -0.0335546 -0.198624 -0.979501
v 0.163611 3.08609 0.456261
vn -0.0745625 0.0361362 -0.996561
v 0.113591 3.1367 0.497831
vn 0.59942 0.797703 -0.066071
v 0.108977 3.13857 0.499462
vn 0.301436 0.949275 0.0895172
v 0.114451 3.01778 0.503594
vn 0.119384 0.0210166 0.992626
v 0.119395 2.89689 0.503326
vn -0.266867 -0.943187 0.197942
v 0.114689 2.90178 0.466147
vn -0.157397 -0.0852325 -0.98385
v 0.104762 3.13211 0.462464
vn -0.0806947 0.0433199 -0.995797
f 1//1 2//2 3//3
f 1//1 3//3 4//4
f 1//1 4//4 5//5
f 1//1 5//5 6//6
f 1//1 6//6 2//2
f 7//7 8//8 9//9
f 10//10 11//11 12//12
f 13//13 14//14 15//15
f 16//16 17//17 18//18
f 19//19 20//20 21//21
f 22//22 23//23 24//24
f 22//22 24//24 25//25
f 22//22 25//25 26//26
f 22//22 26//26 27//27
f 22//22 27//27 23//23
f 28//28 29//29 30//30
f 31//31 32//32 33//33
f 34//34 35//35 36//36
f 37//37 38//38 39//39
f 40//40 41//41 42//42
f 13//13 43//43 44//44
f 10//10 45//45 46//46
f 7//7 47//47 48//48
f 19//19 49//49 50//50
f 16//16 51//51 52//52
f 10//10 53//53 45//45
f 13//13 54//54 43//43
f 16//16 55//55 51//51
f 19//19 56//56 49//49
f 7//7 57//57 47//47
f 40//40 58//58 59//59
f 28//28 60//60 61//61
f 31//31 62//62 63//63
f 34//34 64//64 65//65
f 37//37 66//66 67//67
f 40//40 68//68 58//58
f 28//28 69//69 60//60
f 31//31 70//70 62//62
f 34//34 71//71 64//64
f 37//37 72//72 66//66
f 10//10 46//46 11//11
f 7//7 48//48 8//8
f 19//19 50//50 20//20
f 16//16 52//52 17//17
f 13//13 44//44 14//14
f 40//40 42//42 68//68
f 28//28 30//30 69//69
f 31//31 33//33 70//70
f 34//34 36//36 71//71
f 37//37 39//39 72//72
f 28//28 61//61 29//29
f 31//31 63//63 32//32
f 34//34 65//65 35//35
f 37//37 67//67 38//38
f 40//40 59//59 41//41
f 10//10 12//12 53//53
f 13//13 15//15 54//54
f 16//16 18//18 55//55
f 19//19 21//21 56//56
f 7//7 9//9 57//57
f 73//73 74//74 75//75
f 76//76 77//77 78//78
f 79//79 80//80 81//81
f 82//82 83//83 84//84
f 85//85 86//86 87//87
f 88//88 89//89 90//90
f 91//91 92//92 93//93
f 94//94 95//95 96//96
f 97//97 98//98 99//99
f 100//100 101//101 102//102
f 103//103 104//104 105//105
f 106//106 107//107 108//108
f 109//109 110//110 111//111
f 112//112 113//113 114//114
f 115//115 116//116 117//117
f 88//88 118//118 119//119
f 91//91 120//120 121//121
f 94//94 122//122 123//123
f 97//97 124//124 125//125
f 100//100 126//126 127//127
f 128//128 129//129 2//2
f 130//130 131//131 3//3
f 132//132 133//133 4//4
f 134//134 135//135 5//5
f 136//136 137//137 6//6
f 76//76 138//138 8//8
f 73//73 139//139 11//11
f 85//85 140//140 14//14
f 82//82 141//141 17//17
f 79//79 142//142 20//20
f 143//143 144//144 23//23
f 145//145 146//146 24//24
f 147//147 148//148 25//25
f 149//149 150//150 26//26
f 151//151 152//152 27//27
f 103//103 153//153 29//29
f 106//106 154//154 32//32
f 109//109 155//155 35//35
f 112//112 156//156 38//38
f 115//115 157//157 41//41
f 73//73 75//75 43//43
f 76//76 78//78 45//45
f 79//79 81//81 47//47
f 82//82 84//84 49//49
f 85//85 87//87 51//51
f 88//88 90//90 53//53
f 91//91 93//93 54//54
f 94//94 96//96 55//55
f 97//97 99//99 56//56
f 100//100 102//102 57//57
f 103//103 105//105 58//58
f 106//106 108//108 60//60
f 109//109 111//111 62//62
f 112//112 114//114 64//64
f 115//115 117//117 66//66
f 88//88 119//119 68//68
f 91//91 121//121 69//69
f 94//94 123//123 70//70
f 97//97 125//125 71//71
f 100//100 127//127 72//72
f 130//130 74//74 46//46
f 132//132 77//77 48//48
f 134//134 80//80 50//50
f 136//136 83//83 52//52
f 128//128 86//86 44//44
f 158//158 89//89 42//42
f 159//159 92//92 30//30
f 160//160 95//95 33//33
f 161//161 98//98 36//36
f 162//162 101//101 39//39
f 145//145 104//104 61//61
f 147//147 107//107 63//63
f 149//149 110//110 65//65
f 151//151 113//113 67//67
f 143//143 116//116 59//59
f 159//159 118//118 12//12
f 160//160 120//120 15//15
f 161//161 122//122 18//18
f 162//162 124//124 21//21
f 158//158 126//126 9//9
f 130//130 129//129 74//74
f 132//132 131//131 77//77
f 134//134 133//133 80//80
f 136//136 135//135 83//83
f 128//128 137//137 86//86
f 158//158 138//138 89//89
f 159//159 139//139 92//92
f 160//160 140//140 95//95
f 161//161 141//141 98//98
f 162//162 142//142 101//101
f 145//145 144//144 104//104
f 147//147 146//146 107//107
f 149//149 148//148 110//110
f 151//151 150//150 113//113
f 143//143 152//152 116//116
f 159//159 153//153 118//118
f 160//160 154//154 120//120
f 161//161 155//155 122//122
f 162//162 156//156 124//124
f 158//158 157//157 126//126
f 130//130 3//3 129//129
f 132//132 4//4 131//131
f 134//134 5//5 133//133
f 136//136 6//6 135//135
f 128//128 2//2 137//137
f 158//158 9//9 138//138
f 159//159 12//12 139//139
f 160//160 15//15 140//140
f 161//161 18//18 141//141
f 162//162 21//21 142//142
f 145//145 24//24 144//144
f 147//147 25//25 146//146
f 149//149 26//26 148//148
f 151//151 27//27 150//150
f 143//143 23//23 152//152
f 159//159 30//30 153//153
f 160//160 33//33 154//154
f 161//161 36//36 155//155
f 162//162 39//39 156//156
f 158//158 42//42 157//157
f 128//128 44//44 75//75
f 130//130 46//46 78//78
f 132//132 48//48 81//81
f 134//134 50//50 84//84
f 136//136 52//52 87//87
f 76//76 45//45 90//90
f 73//73 43//43 93//93
f 85//85 51//51 96//96
f 82//82 49//49 99//99
f 79//79 47//47 102//102
f 143//143 59//59 105//105
f 145//145 61//61 108//108
f 147//147 63//63 111//111
f 149//149 65//65 114//114
f 151//151 67//67 117//117
f 103//103 58//58 119//119
f 106//106 60//60 121//121
f 109//109 62//62 123//123
f 112//112 64//64 125//125
f 115//115 66//66 127//127
f 73//73 11//11 74//74
f 76//76 8//8 77//77
f 79//79 20//20 80//80
f 82//82 17//17 83//83
f 85//85 14//14 86//86
f 88//88 68//68 89//89
f 91//91 69//69 92//92
f 94//94 70//70 95//95
f 97//97 71//71 98//98
f 100//100 72//72 101//101
f 103//103 29//29 104//104
f 106//106 32//32 107//107
f 109//109 35//35 110//110
f 112//112 38//38 113//113
f 115//115 41//41 116//116
f 88//88 53//53 118//118
f 91//91 54//54 120//120
f 94//94 55//55 122//122
f 97//97 56//56 124//124
f 100//100 57//57 126//126
f 128//128 75//75 129//129
f 130//130 78//78 131//131
f 132//132 81//81 133//133
f 134//134 84//84 135//135
f 136//136 87//87 137//137
f 76//76 90//90 138//138
f 73//73 93//93 139//139
f 85//85 96//96 140//140
f 82//82 99//99 141//141
f 79//79 102//102 142//142
f 143//143 105//105 144//144
f 145//145 108//108 146//146
f 147//147 111//111 148//148
f 149//149 114//114 150//150
f 151//151 117//117 152//152
f 103//103 119//119 153//153
f 106//106 121//121 154//154
f 109//109 123//123 155//155
f 112//112 125//125 156//156
f 115//115 127//127 157//157
f 129//129 3//3 2//2
f 131//131 4//4 3//3
f 133//133 5//5 4//4
f 135//135 6//6 5//5
f 137//137 2//2 6//6
f 138//138 9//9 8//8
f 139//139 12//12 11//11
f 140//140 15//15 14//14
f 141//141 18//18 17//17
f 142//142 21//21 20//20
f 144//144 24//24 23//23
f 146//146 25//25 24//24
f 148//148 26//26 25//25
f 150//150 27//27 26//26
f 152//152 23//23 27//27
f 153//153 30//30 29//29
f 154//154 33//33 32//32
f 155//155 36//36 35//35
f 156//156 39//39 38//38
f 157//157 42//42 41//41
f 75//75 44//44 43//43
f 78//78 46//46 45//45
f 81//81 48//48 47//47
f 84//84 50//50 49//49
f 87//87 52//52 51//51
f 90//90 45//45 53//53
f 93//93 43//43 54//54
f 96//96 51//51 55//55
f 99//99 49//49 56//56
f 102//102 47//47 57//57
f 105//105 59//59 58//58
f 108//108 61//61 60//60
f 111//111 63//63 62//62
f 114//114 65//65 64//64
f 117//117 67//67 66//66
f 119//119 58//58 68//68
f 121//121 60//60 69//69
f 123//123 62//62 70//70
f 125//125 64//64 71//71
f 127//127 66//66 72//72
f 74//74 11//11 46//46
f 77//77 8//8 48//48
f 80//80 20//20 50//50
f 83//83 17//17 52//52
f 86//86 14//14 44//44
f 89//89 68//68 42//42
f 92//92 69//69 30//30
f 95//95 70//70 33//33
f 98//98 71//71 36//36
f 101//101 72//72 39//39
f 104//104 29//29 61//61
f 107//107 32//32 63//63
f 110//110 35//35 65//65
f 113//113 38//38 67//67
f 116//116 41//41 59//59
f 118//118 53//53 12//12
f 120//120 54//54 15//15
f 122//122 55//55 18//18
f 124//124 56//56 21//21
f 126//126 57//57 9//9
f 129//129 75//75 74//74
f 131//131 78//78 77//77
f 133//133 81//81 80//80
f 135//135 84//84 83//83
f 137//137 87//87 86//86
f 138//138 90//90 89//89
f 139//139 93//93 92//92
f 140//140 96//96 95//95
f 141//141 99//99 98//98
f 142//142 102//102 101//101
f 144//144 105//105 104//104
f 146//146 108//108 107//107
f 148//148 111//111 110//110
f 150//150 114//114 113//113
f 152//152 117//117 116//116
f 153//153 119//119 118//118
f 154//154 121//121 120//120
f 155//155 123//123 122//122
f 156//156 125//125 124//124
f 157//157 127//127 126//126
