# Created by Open3D 
# object name: part_038
# number of vertices: 162
# number of triangles: 320
v -0.745041 1.71627 0.506886
vn -0.85161 0.468757 -0.234577
v -0.751633 1.69817 0.49909
vn -0.739835 0.404339 -0.537731
v -0.754593 1.69739 0.506787
vn -0.915334 0.378409 -0.137734
v -0.746915 1.71515 0.517293
vn -0.894745 0.446165 0.019175
v -0.739087 1.72825 0.512171
vn -0.810928 0.576053 -0.102757
v -0.736856 1.72759 0.504221
vn -0.685535 0.506722 -0.522756
v -0.756807 1.665 0.834706
vn -0.871017 0.384182 0.30616
v -0.766135 1.64709 0.828373
vn -0.926817 0.328371 0.182163
v -0.763729 1.64546 0.836131
vn -0.78003 0.229163 0.58227
v -0.755845 1.66758 0.667013
vn -0.497014 -0.854419 -0.151475
v -0.748316 1.69043 0.514162
vn -0.474722 -0.866462 -0.154542
v -0.749098 1.66397 0.666691
vn -0.447048 -0.881177 -0.153867
v -0.641047 1.64171 0.490667
vn -0.41631 -0.805384 -0.421952
v -0.640443 1.64309 0.488722
vn -0.0472628 -0.0116322 -0.998815
v -0.540025 1.59213 0.48629
vn -0.371696 -0.726103 -0.57846
v -0.624409 1.67483 0.496443
vn 0.435977 0.89109 -0.126027
v -0.720408 1.72237 0.503789
vn 0.443055 0.895746 0.0366263
v -0.528178 1.62719 0.495802
vn 0.44624 0.894169 0.0364916
v -0.737172 1.70762 0.639216
vn 0.388482 0.908158 0.155985
v -0.746822 1.68073 0.818726
vn 0.308818 0.937754 0.158901
v -0.741799 1.67744 0.825755
vn 0.411891 0.897638 0.156819
v -0.529705 1.55255 0.82527
vn 0.851609 -0.468758 0.23458
v -0.540946 1.53515 0.826874
vn 0.691941 -0.499667 0.521105
v -0.538715 1.53449 0.818923
vn 0.832723 -0.542845 0.109051
v -0.528025 1.55329 0.814796
vn 0.894745 -0.446165 -0.019175
v -0.523209 1.56535 0.824307
vn 0.928986 -0.341057 0.143751
v -0.526169 1.56456 0.832005
vn 0.741245 -0.395826 0.542105
v -0.539415 1.56041 0.65802
vn -0.388481 -0.908158 -0.155985
v -0.546968 1.53751 0.810863
vn -0.411852 -0.898265 -0.153293
v -0.546377 1.56359 0.658267
vn -0.440072 -0.884631 -0.154157
v -0.517939 1.60382 0.49745
vn 0.871017 -0.384182 -0.30616
v -0.527173 1.58478 0.497338
vn 0.844205 -0.49281 -0.210846
v -0.52885 1.58787 0.489833
vn 0.732137 -0.32449 -0.5989
v -0.520742 1.60046 0.630223
vn 0.497014 0.854419 0.151475
v -0.513854 1.6161 0.518315
vn 0.570676 0.808177 0.145529
v -0.51852 1.6201 0.51141
vn 0.475115 0.867018 0.15015
v -0.636755 1.62103 0.840428
vn 0.41631 0.805384 0.421951
v -0.540289 1.57441 0.833245
vn 0.437886 0.857764 0.269253
v -0.732519 1.66959 0.841233
vn 0.434701 0.859341 0.269384
v -0.653393 1.58791 0.834651
vn -0.435977 -0.89109 0.126027
v -0.652942 1.58863 0.836962
vn -0.116913 -0.315159 0.94181
v -0.754098 1.63812 0.839138
vn -0.422323 -0.854387 0.302764
v -0.737513 1.68832 0.49785
vn -0.437886 -0.857764 -0.269253
v -0.741734 1.692 0.494671
vn -0.390722 -0.716678 -0.577675
v -0.763948 1.64664 0.81278
vn -0.569717 -0.808821 -0.14571
v -0.753498 1.69218 0.521614
vn -0.569631 -0.808441 -0.148133
v -0.750629 1.67795 0.833757
vn -0.822386 0.526117 0.216523
v -0.757935 1.66712 0.824349
vn -0.89604 0.440523 0.0552361
v -0.730834 1.72522 0.520232
vn 0.411626 0.898454 0.152788
v -0.736372 1.72627 0.527561
vn 0.306867 0.938799 0.156491
v -0.62486 1.67411 0.494133
vn 0.150099 0.379751 -0.91283
v -0.725413 1.72449 0.500338
vn 0.403295 0.863809 -0.301972
v -0.759282 1.64264 0.819685
vn -0.474861 -0.867066 -0.150675
v -0.545283 1.59314 0.489862
vn -0.434701 -0.859341 -0.269385
v -0.523704 1.62461 0.491957
vn 0.422323 0.854387 -0.302764
v -0.730194 1.70451 0.63855
vn 0.440073 0.884631 0.154157
v -0.748952 1.67487 0.841262
vn -0.725939 0.330634 0.60307
v -0.557394 1.54037 0.827306
vn -0.443055 -0.895746 -0.0366259
v -0.552389 1.53825 0.830757
vn -0.403295 -0.863809 0.301972
v -0.53098 1.58201 0.512368
vn -0.307888 -0.938041 -0.159009
v -0.54143 1.53647 0.803534
vn -0.307973 -0.938421 -0.156586
v -0.511667 1.61565 0.502721
vn 0.940447 -0.291117 -0.175529
v -0.517004 1.60131 0.50774
vn 0.89604 -0.440523 -0.0552362
v -0.529485 1.57231 0.816933
vn 0.474578 0.866599 0.154214
v -0.524304 1.57056 0.80948
vn 0.568829 0.809012 0.148097
v -0.637358 1.61965 0.842372
vn 0.0816845 0.0816133 0.993311
v -0.536067 1.57074 0.836424
vn 0.390723 0.716681 0.577672
v -0.749624 1.63555 0.835293
vn -0.44624 -0.894169 -0.0364914
v -0.536002 1.5853 0.50534
vn -0.411714 -0.897659 -0.15716
v -0.514072 1.61728 0.494963
vn 0.78165 -0.219737 -0.583728
v -0.527473 1.60413 0.630126
vn 0.447047 0.881177 0.153867
v -0.737776 1.67061 0.844805
vn 0.371696 0.726102 0.578461
v -0.744347 1.6904 0.503704
vn -0.447264 -0.873385 -0.192751
v -0.751117 1.69364 0.506653
vn -0.542635 -0.816984 -0.195153
v -0.747216 1.69342 0.498644
vn -0.508308 -0.809452 -0.293956
v -0.765739 1.64653 0.822796
vn -0.768381 -0.629696 -0.11434
v -0.766718 1.64998 0.813372
vn -0.933646 0.357245 0.0261099
v -0.76077 1.67103 0.667377
vn -0.773931 -0.620834 -0.12488
v -0.749184 1.67948 0.828543
vn 0.0414831 0.985324 0.165579
v -0.742974 1.7092 0.640886
vn 0.0339327 0.987233 0.155628
v -0.751195 1.68088 0.818762
vn -0.821188 0.567161 0.0630829
v -0.726977 1.72497 0.509735
vn 0.43915 0.89102 0.115027
v -0.730392 1.72691 0.504485
vn 0.365882 0.930612 0.00957621
v -0.734025 1.72766 0.512588
vn 0.337457 0.934841 0.11043
v -0.630998 1.66195 0.491317
vn 0.0354369 0.15443 -0.987368
v -0.741025 1.69384 0.493253
vn -0.00520591 0.127097 -0.991877
v -0.726231 1.72329 0.49839
vn 0.0357316 0.208316 -0.977409
v -0.756054 1.63938 0.829887
vn -0.45007 -0.885613 -0.114575
v -0.759303 1.64075 0.835414
vn -0.518745 -0.854923 -0.00321819
v -0.762636 1.64344 0.827601
vn -0.54599 -0.831588 -0.101766
v -0.539118 1.58878 0.495176
vn -0.436345 -0.878792 -0.193205
v -0.546014 1.59008 0.505549
vn -0.442771 -0.88296 -0.155999
v -0.641747 1.63963 0.498605
vn -0.441864 -0.876289 -0.192028
v -0.517196 1.62052 0.492681
vn 0.552183 0.262588 -0.791291
v -0.522909 1.60788 0.489616
vn 0.412981 -0.0488375 -0.909429
v -0.524292 1.6233 0.489999
vn 0.0787187 0.187031 -0.979195
v -0.628795 1.65441 0.634217
vn 0.443563 0.882911 0.154013
v -0.528361 1.62521 0.511678
vn 0.444373 0.882937 0.151507
v -0.72081 1.7205 0.519675
vn 0.442928 0.883653 0.151567
v -0.744829 1.67362 0.843891
vn -0.237342 0.3641 0.900611
v -0.742479 1.67424 0.841256
vn 0.355446 0.885141 0.300306
v -0.747875 1.6767 0.838745
vn 0.0986635 0.935626 0.338924
v -0.550825 1.53776 0.821359
vn -0.43915 -0.891019 -0.115027
v -0.543777 1.53508 0.818507
vn -0.337457 -0.934841 -0.110429
v -0.54741 1.53583 0.82661
vn -0.365881 -0.930613 -0.00957514
v -0.528618 1.58326 0.502551
vn -0.0428011 -0.984973 -0.167319
v -0.526607 1.58186 0.512333
vn 0.849641 -0.524457 -0.055278
v -0.533669 1.55859 0.657941
vn -0.0339335 -0.987233 -0.155628
v -0.512063 1.61621 0.508299
vn 0.767185 0.631555 0.112099
v -0.515874 1.59675 0.631449
vn 0.773931 0.620835 0.12488
v -0.511084 1.61276 0.517723
vn 0.945486 -0.324998 -0.0207967
v -0.533455 1.57234 0.827391
vn 0.447264 0.873385 0.192752
v -0.530586 1.56932 0.832451
vn 0.508307 0.809452 0.293957
v -0.526685 1.5691 0.824442
vn 0.542635 0.816984 0.195153
v -0.643545 1.60727 0.84091
vn -0.0354369 -0.15443 0.987368
v -0.551571 1.53945 0.832705
vn -0.0328117 -0.202771 0.978676
v -0.536777 1.5689 0.837842
vn 0.00795003 -0.121368 0.992576
v -0.749441 1.63752 0.819416
vn -0.444353 -0.882858 -0.152027
v -0.653513 1.58836 0.826428
vn -0.444601 -0.888216 -0.115769
v -0.535323 1.5885 0.489839
vn -0.355446 -0.885141 -0.300305
v -0.532258 1.58528 0.497559
vn -0.334107 -0.920234 -0.20382
v -0.518499 1.62199 0.495681
vn 0.518744 0.854923 0.00321809
v -0.513638 1.61846 0.498006
vn 0.719303 0.692523 -0.054916
v -0.731787 1.67266 0.825546
vn 0.442785 0.883013 0.155659
v -0.539339 1.57737 0.817549
vn 0.444224 0.882301 0.1556
v -0.751687 1.66124 0.842592
vn -0.412979 0.0488368 0.90943
v -0.738715 1.66888 0.846233
vn -0.0350368 -0.100083 0.994362
v -0.748322 1.69575 0.496152
vn -0.457987 0.0921944 -0.884165
v -0.752266 1.69613 0.501589
vn -0.706073 -0.63487 -0.313688
v -0.754582 1.69515 0.511941
vn -0.767568 -0.626111 -0.137203
v -0.756256 1.69557 0.521875
vn -0.933383 0.358388 0.018811
v -0.752674 1.69175 0.670908
vn -0.895542 0.443418 0.037212
v -0.740733 1.72647 0.527265
vn -0.830567 0.554391 0.053002
v -0.738027 1.7281 0.517689
vn 0.0456605 0.988802 0.142079
v -0.735977 1.72855 0.507245
vn 0.111888 0.993278 -0.0296747
v -0.732545 1.72715 0.50163
vn -0.177703 0.623987 -0.760961
v -0.739341 1.71504 0.498609
vn -0.348835 0.328368 -0.877775
v -0.764164 1.64428 0.833089
vn -0.719302 -0.692523 0.0549155
v -0.738463 1.68536 0.513546
vn -0.444213 -0.882246 -0.155939
v -0.539086 1.59385 0.484862
vn 0.0379764 0.105716 -0.993671
v -0.624289 1.67438 0.504666
vn 0.444601 0.888216 0.115769
v -0.745544 1.67746 0.833536
vn 0.334106 0.920234 0.20382
v -0.545257 1.53559 0.829465
vn 0.229181 -0.547637 0.804717
v -0.541825 1.53419 0.82385
vn -0.111889 -0.993277 0.0296746
v -0.539774 1.53464 0.813406
vn -0.0436116 -0.98855 -0.144455
v -0.537069 1.53627 0.80383
vn 0.849378 -0.525599 -0.047979
v -0.521869 1.57747 0.661318
vn 0.895542 -0.443418 -0.0372121
v -0.521546 1.56717 0.80922
vn 0.950635 -0.310133 -0.0105399
v -0.52322 1.56759 0.819154
vn 0.768525 0.625335 0.135369
v -0.525536 1.56661 0.829506
vn 0.706074 0.634869 0.313689
v -0.52948 1.56699 0.834943
vn 0.492545 0.0027035 0.870283
v -0.535254 1.55408 0.833599
vn 0.348836 -0.328367 0.877775
v -0.556992 1.54223 0.81142
vn -0.442912 -0.883572 -0.152087
v -0.529927 1.58604 0.49235
vn -0.0986637 -0.935626 -0.338924
v -0.515166 1.6193 0.503494
vn 0.545989 0.831589 0.101766
v -0.636055 1.62311 0.83249
vn 0.441864 0.876289 0.192028
v -0.753509 1.63944 0.841096
vn -0.0759941 -0.18139 0.980471
v -0.760606 1.64222 0.838413
vn -0.51972 -0.176827 0.835837
v -0.647772 1.61371 0.662467
vn -0.443563 -0.882911 -0.154013
v -0.532973 1.58912 0.487203
vn 0.290915 -0.278615 -0.915282
v -0.521748 1.62336 0.501208
vn 0.45007 0.885613 0.114577
v -0.738684 1.67396 0.835919
vn 0.436345 0.878792 0.193203
f 1//1 2//2 3//3
f 1//1 3//3 4//4
f 1//1 4//4 5//5
f 1//1 5//5 6//6
f 1//1 6//6 2//2
f 7//7 8//8 9//9
f 10//10 11//11 12//12
f 13//13 14//14 15//15
f 16//16 17//17 18//18
f 19//19 20//20 21//21
f 22//22 23//23 24//24
f 22//22 24//24 25//25
f 22//22 25//25 26//26
f 22//22 26//26 27//27
f 22//22 27//27 23//23
f 28//28 29//29 30//30
f 31//31 32//32 33//33
f 34//34 35//35 36//36
f 37//37 38//38 39//39
f 40//40 41//41 42//42
f 13//13 43//43 44//44
f 10//10 45//45 46//46
f 7//7 47//47 48//48
f 19//19 49//49 50//50
f 16//16 51//51 52//52
f 10//10 53//53 45//45
f 13//13 54//54 43//43
f 16//16 55//55 51//51
f 19//19 56//56 49//49
f 7//7 57//57 47//47
f 40//40 58//58 59//59
f 28//28 60//60 61//61
f 31//31 62//62 63//63
f 34//34 64//64 65//65
f 37//37 66//66 67//67
f 40//40 68//68 58//58
f 28//28 69//69 60//60
f 31//31 70//70 62//62
f 34//34 71//71 64//64
f 37//37 72//72 66//66
f 10//10 46//46 11//11
f 7//7 48//48 8//8
f 19//19 50//50 20//20
f 16//16 52//52 17//17
f 13//13 44//44 14//14
f 40//40 42//42 68//68
f 28//28 30//30 69//69
f 31//31 33//33 70//70
f 34//34 36//36 71//71
f 37//37 39//39 72//72
f 28//28 61//61 29//29
f 31//31 63//63 32//32
f 34//34 65//65 35//35
f 37//37 67//67 38//38
f 40//40 59//59 41//41
f 10//10 12//12 53//53
f 13//13 15//15 54//54
f 16//16 18//18 55//55
f 19//19 21//21 56//56
f 7//7 9//9 57//57
f 73//73 74//74 75//75
f 76//76 77//77 78//78
f 79//79 80//80 81//81
f 82//82 83//83 84//84
f 85//85 86//86 87//87
f 88//88 89//89 90//90
f 91//91 92//92 93//93
f 94//94 95//95 96//96
f 97//97 98//98 99//99
f 100//100 101//101 102//102
f 103//103 104//104 105//105
f 106//106 107//107 108//108
f 109//109 110//110 111//111
f 112//112 113//113 114//114
f 115//115 116//116 117//117
f 88//88 118//118 119//119
f 91//91 120//120 121//121
f 94//94 122//122 123//123
f 97//97 124//124 125//125
f 100//100 126//126 127//127
f 128//128 129//129 2//2
f 130//130 131//131 3//3
f 132//132 133//133 4//4
f 134//134 135//135 5//5
f 136//136 137//137 6//6
f 76//76 138//138 8//8
f 73//73 139//139 11//11
f 85//85 140//140 14//14
f 82//82 141//141 17//17
f 79//79 142//142 20//20
f 143//143 144//144 23//23
f 145//145 146//146 24//24
f 147//147 148//148 25//25
f 149//149 150//150 26//26
f 151//151 152//152 27//27
f 103//103 153//153 29//29
f 106//106 154//154 32//32
f 109//109 155//155 35//35
f 112//112 156//156 38//38
f 115//115 157//157 41//41
f 73//73 75//75 43//43
f 76//76 78//78 45//45
f 79//79 81//81 47//47
f 82//82 84//84 49//49
f 85//85 87//87 51//51
f 88//88 90//90 53//53
f 91//91 93//93 54//54
f 94//94 96//96 55//55
f 97//97 99//99 56//56
f 100//100 102//102 57//57
f 103//103 105//105 58//58
f 106//106 108//108 60//60
f 109//109 111//111 62//62
f 112//112 114//114 64//64
f 115//115 117//117 66//66
f 88//88 119//119 68//68
f 91//91 121//121 69//69
f 94//94 123//123 70//70
f 97//97 125//125 71//71
f 100//100 127//127 72//72
f 130//130 74//74 46//46
f 132//132 77//77 48//48
f 134//134 80//80 50//50
f 136//136 83//83 52//52
f 128//128 86//86 44//44
f 158//158 89//89 42//42
f 159//159 92//92 30//30
f 160//160 95//95 33//33
f 161//161 98//98 36//36
f 162//162 101//101 39//39
f 145//145 104//104 61//61
f 147//147 107//107 63//63
f 149//149 110//110 65//65
f 151//151 113//113 67//67
f 143//143 116//116 59//59
f 159//159 118//118 12//12
f 160//160 120//120 15//15
f 161//161 122//122 18//18
f 162//162 124//124 21//21
f 158//158 126//126 9//9
f 130//130 129//129 74//74
f 132//132 131//131 77//77
f 134//134 133//133 80//80
f 136//136 135//135 83//83
f 128//128 137//137 86//86
f 158//158 138//138 89//89
f 159//159 139//139 92//92
f 160//160 140//140 95//95
f 161//161 141//141 98//98
f 162//162 142//142 101//101
f 145//145 144//144 104//104
f 147//147 146//146 107//107
f 149//149 148//148 110//110
f 151//151 150//150 113//113
f 143//143 152//152 116//116
f 159//159 153//153 118//118
f 160//160 154//154 120//120
f 161//161 155//155 122//122
f 162//162 156//156 124//124
f 158//158 157//157 126//126
f 130//130 3//3 129//129
f 132//132 4//4 131//131
f 134//134 5//5 133//133
f 136//136 6//6 135//135
f 128//128 2//2 137//137
f 158//158 9//9 138//138
f 159//159 12//12 139//139
f 160//160 15//15 140//140
f 161//161 18//18 141//141
f 162//162 21//21 142//142
f 145//145 24//24 144//144
f 147//147 25//25 146//146
f 149//149 26//26 148//148
f 151//151 27//27 150//150
f 143//143 23//23 152//152
f 159//159 30//30 153//153
f 160//160 33//33 154//154
f 161//161 36//36 155//155
f 162//162 39//39 156//156
f 158//158 42//42 157//157
f 128//128 44//44 75//75
f 130//130 46//46 78//78
f 132//132 48//48 81//81
f 134//134 50//50 84//84
f 136//136 52//52 87//87
f 76//76 45//45 90//90
f 73//73 43//43 93//93
f 85//85 51//51 96//96
f 82//82 49//49 99//99
f 79//79 47//47 102//102
f 143//143 59//59 105//105
f 145//145 61//61 108//108
f 147//147 63//63 111//111
f 149//149 65//65 114//114
f 151//151 67//67 117//117
f 103//103 58//58 119//119
f 106//106 60//60 121//121
f 109//109 62//62 123//123
f 112//112 64//64 125//125
f 115//115 66//66 127//127
f 73//73 11//11 74//74
f 76//76 8//8 77//77
f 79//79 20//20 80//80
f 82//82 17//17 83//83
f 85//85 14//14 86//86
f 88//88 68//68 89//89
f 91//91 69//69 92//92
f 94//94 70//70 95//95
f 97//97 71//71 98//98
f 100//100 72//72 101//101
f 103//103 29//29 104//104
f 106//106 32//32 107//107
f 109//109 35//35 110//110
f 112//112 38//38 113//113
f 115//115 41//41 116//116
f 88//88 53//53 118//118
f 91//91 54//54 120//120
f 94//94 55//55 122//122
f 97//97 56//56 124//124
f 100//100 57//57 126//126
f 128//128 75//75 129//129
f 130//130 78//78 131//131
f 132//132 81//81 133//133
f 134//134 84//84 135//135
f 136//136 87//87 137//137
f 76//76 90//90 138//138
f 73//73 93//93 139//139
f 85//85 96//96 140//140
f 82//82 99//99 141//141
f 79//79 102//102 142//142
f 143//143 105//105 144//144
f 145//145 108//108 146//146
f 147//147 111//111 148//148
f 149//149 114//114 150//150
f 151//151 117//117 152//152
f 103//103 119//119 153//153
f 106//106 121//121 154//154
f 109//109 123//123 155//155
f 112//112 125//125 156//156
f 115//115 127//127 157//157
f 129//129 3//3 2//2
f 131//131 4//4 3//3
f 133//133 5//5 4//4
f 135//135 6//6 5//5
f 137//137 2//2 6//6
f 138//138 9//9 8//8
f 139//139 12//12 11//11
f 140//140 15//15 14//14
f 141//141 18//18 17//17
f 142//142 21//21 20//20
f 144//144 24//24 23//23
f 146//146 25//25 24//24
f 148//148 26//26 25//25
f 150//150 27//27 26//26
f 152//152 23//23 27//27
f 153//153 30//30 29//29
f 154//154 33//33 32//32
f 155//155 36//36 35//35
f 156//156 39//39 38//38
f 157//157 42//42 41//41
f 75//75 44//44 43//43
f 78//78 46//46 45//45
f 81//81 48//48 47//47
f 84//84 50//50 49//49
f 87//87 52//52 51//51
f 90//90 45//45 53//53
f 93//93 43//43 54//54
f 96//96 51//51 55//55
f 99//99 49//49 56//56
f 102//102 47//47 57//57
f 105//105 59//59 58//58
f 108//108 61//61 60//60
f 111//111 63//63 62//62
f 114//114 65//65 64//64
f 117//117 67//67 66//66
f 119//119 58//58 68//68
f 121//121 60//60 69//69
f 123//123 62//62 70//70
f 125//125 64//64 71//71
f 127//127 66//66 72//72
f 74//74 11//11 46//46
f 77//77 8//8 48//48
f 80//80 20//20 50//50
f 83//83 17//17 52//52
f 86//86 14//14 44//44
f 89//89 68//68 42//42
f 92//92 69//69 30//30
f 95//95 70//70 33//33
f 98//98 71//71 36//36
f 101//101 72//72 39//39
f 104//104 29//29 61//61
f 107//107 32//32 63//63
f 110//110 35//35 65//65
f 113//113 38//38 67//67
f 116//116 41//41 59//59
f 118//118 53//53 12//12
f 120//120 54//54 15//15
f 122//122 55//55 18//18
f 124//124 56//56 21//21
f 126//126 57//57 9//9
f 129//129 75//75 74//74
f 131//131 78//78 77//77
f 133//133 81//81 80//80
f 135//135 84//84 83//83
f 137//137 87//87 86//86
f 138//138 90//90 89//89
f 139//139 93//93 92//92
f 140//140 96//96 95//95
f 141//141 99//99 98//98
f 142//142 102//102 101//101
f 144//144 105//105 104//104
f 146//146 108//108 107//107
f 148//148 111//111 110//110
f 150//150 114//114 113//113
f 152//152 117//117 116//116
f 153//153 119//119 118//118
f 154//154 121//121 120//120
f 155//155 123//123 122//122
f 156//156 125//125 124//124
f 157//157 127//127 126//126
