# Created by Open3D 
# object name: part_009
# number of vertices: 162
# number of triangles: 320
v 0.109844 5.18478 0.853357
vn 0.734101 0.283648 -0.61696
v 0.104269 5.16519 0.837994
vn 0.735219 0.263716 -0.624426
v 0.0939429 5.18937 0.836732
vn 0.723609 0.285082 -0.628585
v 0.096255 5.21739 0.852541
vn 0.729409 0.29502 -0.617192
v 0.113699 5.19806 0.864232
vn 0.743789 0.293932 -0.600319
v 0.123097 5.17347 0.864202
vn 0.747783 0.26895 -0.607031
v -0.320937 6.21398 0.837742
vn 0.723946 0.307898 -0.617334
v -0.328645 6.199 0.821413
vn 0.717736 0.299127 -0.628791
v -0.338629 6.22335 0.821939
vn 0.710621 0.32248 -0.62532
v -0.119289 5.69336 0.827929
vn -0.260764 -0.123671 -0.957449
v 0.0811754 5.21365 0.835404
vn -0.389681 -0.177431 -0.903696
v -0.120293 5.69295 0.828471
vn -0.546679 -0.240983 -0.801916
v 0.093571 5.14806 0.848425
vn -0.530012 -0.326549 -0.782594
v 0.0970377 5.14168 0.84946
vn 0.0239936 -0.912276 -0.408873
v 0.0813459 5.14223 0.859505
vn -0.556 -0.402262 -0.727358
v 0.114769 5.15738 0.877932
vn 0.596126 0.168588 0.784991
v 0.122914 5.17271 0.86791
vn 0.586786 0.219168 0.779518
v 0.0986244 5.16286 0.888472
vn 0.569975 0.212346 0.793749
v -0.0525529 5.59684 0.860504
vn 0.79191 0.339164 0.507785
v -0.28818 6.16027 0.851336
vn 0.911447 0.384001 0.147671
v -0.298031 6.18264 0.851856
vn 0.711591 0.307933 0.631518
v -0.349632 6.20234 0.862033
vn -0.7341 -0.283648 0.616961
v -0.366779 6.21193 0.845769
vn -0.746735 -0.268786 0.608393
v -0.357381 6.18735 0.845739
vn -0.740241 -0.29239 0.605435
v -0.33629 6.16962 0.862507
vn -0.729409 -0.29502 0.617192
v -0.337625 6.19603 0.873239
vn -0.719914 -0.283438 0.633551
v -0.347951 6.22021 0.871977
vn -0.73434 -0.263041 0.625742
v -0.146636 5.68226 0.851079
vn -0.791894 -0.339157 -0.507816
v -0.347132 6.16196 0.843561
vn -0.712621 -0.307225 -0.630701
v -0.145908 5.68256 0.850155
vn -0.583257 -0.255823 -0.770951
v 0.081148 5.17313 0.877649
vn -0.723946 -0.307898 0.617334
v 0.065207 5.17771 0.861058
vn -0.734359 -0.306433 0.605653
v 0.0761191 5.15377 0.861824
vn -0.722138 -0.327545 0.609287
v -0.0799001 5.58574 0.883655
vn 0.260708 0.123648 0.957467
v 0.0663175 5.23473 0.889008
vn -0.0967897 -0.0257309 0.994972
v 0.0766227 5.21256 0.88912
vn 0.388764 0.175663 0.904436
v -0.337253 6.23734 0.861546
vn 0.530015 0.326544 0.782594
v -0.344802 6.22227 0.872398
vn 0.542725 0.277453 0.792761
v -0.320512 6.23213 0.851836
vn 0.559536 0.284275 0.778529
v -0.358451 6.22802 0.832039
vn -0.596126 -0.168589 -0.784991
v -0.360575 6.23499 0.832872
vn -0.628453 0.646493 -0.432543
v -0.345823 6.23403 0.82152
vn -0.558892 -0.0879382 -0.824564
v 0.10112 5.16313 0.837573
vn -0.542724 -0.277452 -0.792762
v 0.106833 5.15257 0.837929
vn -0.446003 -0.357634 -0.820475
v -0.31 6.15067 0.820963
vn 0.0932191 0.024205 -0.995351
v 0.0726138 5.23654 0.834833
vn 0.0934571 0.0237251 -0.995341
v -0.308889 6.20769 0.848913
vn 0.737887 0.308011 -0.600543
v -0.30724 6.1814 0.837914
vn 0.72876 0.296577 -0.617212
v 0.10345 5.22344 0.86641
vn 0.713656 0.307475 0.629408
v 0.0944339 5.24614 0.865206
vn 0.91268 0.383822 0.140341
v 0.116893 5.15041 0.877099
vn 0.665872 -0.515085 0.539724
v 0.127628 5.16171 0.866875
vn 0.668883 0.132559 0.731453
v -0.320305 6.17285 0.820851
vn -0.390132 -0.176388 -0.903706
v 0.0768302 5.15327 0.858135
vn -0.559536 -0.284273 -0.778529
v 0.102141 5.15137 0.888451
vn 0.558892 0.0879345 0.824565
v -0.0527312 5.59523 0.861449
vn 0.583255 0.255823 0.770953
v -0.319801 6.23163 0.848147
vn 0.722976 0.328207 -0.607936
v -0.366596 6.21269 0.84206
vn -0.586785 -0.219166 -0.779519
v -0.37131 6.22369 0.843096
vn -0.668881 -0.132559 -0.731454
v 0.0444974 5.22514 0.858634
vn -0.911912 -0.384167 -0.144332
v -0.338116 6.13926 0.844764
vn -0.912122 -0.383674 -0.144319
v 0.0849631 5.1864 0.888558
vn -0.714023 -0.297518 0.633761
v 0.0672044 5.2056 0.877133
vn -0.728761 -0.296577 0.617211
v -0.324858 6.17176 0.874566
vn 0.390587 0.177697 0.903253
v -0.316296 6.14886 0.875138
vn -0.0902239 -0.0223886 0.99567
v -0.34072 6.24372 0.86051
vn 0.0947117 0.849504 0.519011
v -0.350515 6.23284 0.872042
vn 0.446011 0.357629 0.820473
v -0.342307 6.22255 0.821499
vn -0.569976 -0.212345 -0.793749
v 0.0543483 5.20276 0.858114
vn -0.712182 -0.308274 -0.630685
v 0.0949468 5.16205 0.888032
vn -0.709533 -0.322298 0.626648
v -0.0783461 5.58484 0.883133
vn 0.546676 0.240982 0.801918
v -0.325028 6.24318 0.850466
vn 0.556 0.402257 0.72736
v 0.0943736 5.18106 0.836375
vn -0.531485 -0.247519 -0.810097
v 0.0919726 5.18971 0.835768
vn -0.00669383 -0.0302324 -0.99952
v 0.102099 5.16477 0.836755
vn -0.123132 -0.10856 -0.986434
v -0.322355 6.18183 0.820816
vn 0.500534 0.198067 -0.842755
v -0.308746 6.15182 0.821995
vn 0.720597 0.292257 -0.628749
v -0.118092 5.69386 0.828086
vn 0.506943 0.199461 -0.838585
v -0.301263 6.1911 0.850176
vn 0.874273 0.362175 -0.323228
v -0.0544916 5.60188 0.85913
vn 0.872765 0.360304 -0.329337
v -0.288968 6.16052 0.849526
vn 0.741787 0.301584 -0.598998
v 0.116505 5.19079 0.867182
vn 0.597852 0.249025 0.761945
v 0.123535 5.17419 0.866593
vn 0.863124 0.325074 0.386451
v 0.113749 5.19928 0.866081
vn 0.894838 0.366149 0.255342
v 0.109931 5.14483 0.866202
vn 0.386062 -0.922367 0.0139943
v 0.110038 5.1477 0.839351
vn 0.602754 -0.706423 -0.371018
v 0.128888 5.15599 0.865589
vn 0.75404 -0.638224 -0.155223
v -0.334256 6.20513 0.820837
vn -0.540584 -0.22579 -0.810425
v -0.340443 6.22207 0.820712
vn -0.153073 -0.0369932 -0.987522
v -0.329777 6.19734 0.820479
vn -0.0154285 -0.00936229 -0.999837
v 0.0684417 5.17054 0.858327
vn -0.588758 -0.270754 -0.761614
v 0.0557227 5.20268 0.856908
vn -0.56869 -0.250555 -0.783463
v 0.08243 5.1732 0.847312
vn -0.560669 -0.259071 -0.786469
v 0.0994829 5.15433 0.888645
vn -0.60763 -0.345466 0.715149
v 0.092538 5.14808 0.877597
vn -0.687835 -0.384584 0.615612
v 0.103371 5.14564 0.887189
vn 0.0879811 -0.908452 0.408625
v -0.0653198 5.58964 0.872358
vn 0.565146 0.248482 0.786681
v 0.0782153 5.21257 0.888218
vn 0.561635 0.246252 0.78989
v 0.102532 5.22243 0.867633
vn 0.569216 0.249328 0.783472
v -0.323064 6.23991 0.849306
vn 0.758354 0.411746 -0.505336
v -0.319007 6.2315 0.850551
vn 0.833166 0.396628 0.385383
v -0.315226 6.22334 0.849643
vn 0.882165 0.390627 -0.263051
v -0.360188 6.19461 0.842789
vn -0.597851 -0.249025 -0.761946
v -0.357432 6.18612 0.84389
vn -0.894838 -0.366149 -0.255343
v -0.367217 6.21121 0.843377
vn -0.863122 -0.325073 -0.386456
v 0.0575803 5.1943 0.859794
vn -0.874542 -0.362509 0.322124
v 0.0452854 5.22488 0.860444
vn -0.73728 -0.299592 0.605528
v -0.146788 5.68222 0.852377
vn -0.872767 -0.360305 0.329329
v 0.0786724 5.20358 0.889155
vn -0.499102 -0.197747 0.843679
v -0.0831871 5.59023 0.883422
vn -0.506915 -0.199449 0.838604
v 0.065064 5.23358 0.887976
vn -0.717443 -0.290881 0.63298
v -0.338056 6.20434 0.873596
vn 0.531483 0.247519 0.810099
v -0.345781 6.22064 0.873216
vn 0.123149 0.108566 0.986432
v -0.335655 6.19569 0.874203
vn 0.00670738 0.0302372 0.99952
v -0.349461 6.2424 0.849549
vn -0.386062 0.922367 -0.013995
v -0.37257 6.22942 0.844382
vn -0.746038 0.64342 0.171576
v -0.353721 6.2377 0.87062
vn -0.589647 0.7105 0.384064
v -0.321898 6.17284 0.821753
vn -0.561586 -0.246401 -0.789879
v -0.348355 6.20242 0.831696
vn -0.569547 -0.237859 -0.78679
v 0.0753251 5.1539 0.85942
vn -0.833171 -0.396631 -0.385369
v 0.0643185 5.17849 0.859178
vn -0.886089 -0.387014 -0.255081
v 0.096761 5.16333 0.889258
vn 0.153068 0.0369924 0.987523
v 0.0922969 5.17119 0.889217
vn -0.442897 -0.197493 0.874551
v -0.299405 6.18273 0.853062
vn 0.568722 0.250458 0.783471
v -0.323722 6.17286 0.873648
vn 0.561177 0.247397 0.789857
v -0.332135 6.23912 0.838061
vn 0.687836 0.384583 -0.615612
v -0.328205 6.24806 0.849019
vn 0.0764273 0.980732 -0.179789
v 0.106593 5.15653 0.83763
vn 0.705647 0.181609 -0.684894
v 0.0996371 5.17346 0.836545
vn 0.460894 0.154265 -0.873945
v 0.0861322 5.20589 0.835624
vn 0.501458 0.19575 -0.842747
v 0.0743029 5.23666 0.83588
vn 0.720727 0.29194 -0.628747
v -0.105183 5.69953 0.845531
vn 0.729085 0.295799 -0.617202
v 0.0940815 5.24535 0.863412
vn 0.740438 0.3006 -0.601159
v 0.107224 5.21516 0.864984
vn 0.876126 0.360201 -0.320404
v 0.120391 5.18258 0.865434
vn 0.900244 0.34744 -0.262386
v 0.126693 5.16537 0.86561
vn 0.830993 0.238199 -0.502704
v 0.119885 5.15917 0.854447
vn 0.763346 0.20418 -0.612873
v -0.335979 6.21422 0.820754
vn 0.442924 0.197504 -0.874535
v 0.0800397 5.21254 0.836323
vn -0.561131 -0.247488 -0.789862
v 0.0845223 5.13735 0.860951
vn -0.0672656 -0.978258 0.196179
v 0.104673 5.18298 0.878275
vn 0.569548 0.237859 0.78679
v -0.308001 6.20691 0.850793
vn 0.886087 0.387013 0.255089
v -0.370376 6.22004 0.844361
vn -0.812878 -0.228762 0.535628
v -0.364073 6.20282 0.844537
vn -0.900246 -0.347441 0.262377
v -0.350906 6.17024 0.844987
vn -0.87554 -0.360225 0.321975
v -0.337764 6.14005 0.846559
vn -0.737414 -0.299276 0.60552
v -0.134347 5.6877 0.870219
vn -0.729085 -0.295799 0.617202
v -0.317985 6.14875 0.874091
vn -0.716004 -0.28986 0.635075
v -0.329814 6.17952 0.874347
vn -0.502267 -0.196303 0.842136
v -0.343319 6.21194 0.873426
vn -0.460892 -0.154266 0.873946
v -0.350275 6.22887 0.872341
vn -0.680261 -0.171923 0.712522
v -0.359482 6.22803 0.861211
vn -0.763346 -0.204181 0.612873
v -0.346215 6.16297 0.842338
vn -0.569145 -0.249468 -0.783479
v 0.0715433 5.16206 0.860328
vn -0.882166 -0.390628 0.263046
v 0.0860952 5.18806 0.889491
vn 0.015426 0.00936176 0.999837
v -0.326112 6.2122 0.862659
vn 0.560668 0.259071 0.786469
v -0.347054 6.23977 0.822781
vn -0.0760042 0.915257 -0.395635
v -0.343165 6.23107 0.821326
vn 0.632051 0.357462 -0.687555
v -0.133144 5.68773 0.839252
vn -0.565146 -0.248481 -0.786681
v 0.079382 5.14549 0.860665
vn -0.739273 -0.404617 0.538295
v 0.0905735 5.18027 0.889134
vn 0.540582 0.225789 0.810426
v -0.312124 6.21486 0.851644
vn 0.588761 0.270757 0.761611
f 1//1 2//2 3//3
f 1//1 3//3 4//4
f 1//1 4//4 5//5
f 1//1 5//5 6//6
f 1//1 6//6 2//2
f 7//7 8//8 9//9
f 10//10 11//11 12//12
f 13//13 14//14 15//15
f 16//16 17//17 18//18
f 19//19 20//20 21//21
f 22//22 23//23 24//24
f 22//22 24//24 25//25
f 22//22 25//25 26//26
f 22//22 26//26 27//27
f 22//22 27//27 23//23
f 28//28 29//29 30//30
f 31//31 32//32 33//33
f 34//34 35//35 36//36
f 37//37 38//38 39//39
f 40//40 41//41 42//42
f 13//13 43//43 44//44
f 10//10 45//45 46//46
f 7//7 47//47 48//48
f 19//19 49//49 50//50
f 16//16 51//51 52//52
f 10//10 53//53 45//45
f 13//13 54//54 43//43
f 16//16 55//55 51//51
f 19//19 56//56 49//49
f 7//7 57//57 47//47
f 40//40 58//58 59//59
f 28//28 60//60 61//61
f 31//31 62//62 63//63
f 34//34 64//64 65//65
f 37//37 66//66 67//67
f 40//40 68//68 58//58
f 28//28 69//69 60//60
f 31//31 70//70 62//62
f 34//34 71//71 64//64
f 37//37 72//72 66//66
f 10//10 46//46 11//11
f 7//7 48//48 8//8
f 19//19 50//50 20//20
f 16//16 52//52 17//17
f 13//13 44//44 14//14
f 40//40 42//42 68//68
f 28//28 30//30 69//69
f 31//31 33//33 70//70
f 34//34 36//36 71//71
f 37//37 39//39 72//72
f 28//28 61//61 29//29
f 31//31 63//63 32//32
f 34//34 65//65 35//35
f 37//37 67//67 38//38
f 40//40 59//59 41//41
f 10//10 12//12 53//53
f 13//13 15//15 54//54
f 16//16 18//18 55//55
f 19//19 21//21 56//56
f 7//7 9//9 57//57
f 73//73 74//74 75//75
f 76//76 77//77 78//78
f 79//79 80//80 81//81
f 82//82 83//83 84//84
f 85//85 86//86 87//87
f 88//88 89//89 90//90
f 91//91 92//92 93//93
f 94//94 95//95 96//96
f 97//97 98//98 99//99
f 100//100 101//101 102//102
f 103//103 104//104 105//105
f 106//106 107//107 108//108
f 109//109 110//110 111//111
f 112//112 113//113 114//114
f 115//115 116//116 117//117
f 88//88 118//118 119//119
f 91//91 120//120 121//121
f 94//94 122//122 123//123
f 97//97 124//124 125//125
f 100//100 126//126 127//127
f 128//128 129//129 2//2
f 130//130 131//131 3//3
f 132//132 133//133 4//4
f 134//134 135//135 5//5
f 136//136 137//137 6//6
f 76//76 138//138 8//8
f 73//73 139//139 11//11
f 85//85 140//140 14//14
f 82//82 141//141 17//17
f 79//79 142//142 20//20
f 143//143 144//144 23//23
f 145//145 146//146 24//24
f 147//147 148//148 25//25
f 149//149 150//150 26//26
f 151//151 152//152 27//27
f 103//103 153//153 29//29
f 106//106 154//154 32//32
f 109//109 155//155 35//35
f 112//112 156//156 38//38
f 115//115 157//157 41//41
f 73//73 75//75 43//43
f 76//76 78//78 45//45
f 79//79 81//81 47//47
f 82//82 84//84 49//49
f 85//85 87//87 51//51
f 88//88 90//90 53//53
f 91//91 93//93 54//54
f 94//94 96//96 55//55
f 97//97 99//99 56//56
f 100//100 102//102 57//57
f 103//103 105//105 58//58
f 106//106 108//108 60//60
f 109//109 111//111 62//62
f 112//112 114//114 64//64
f 115//115 117//117 66//66
f 88//88 119//119 68//68
f 91//91 121//121 69//69
f 94//94 123//123 70//70
f 97//97 125//125 71//71
f 100//100 127//127 72//72
f 130//130 74//74 46//46
f 132//132 77//77 48//48
f 134//134 80//80 50//50
f 136//136 83//83 52//52
f 128//128 86//86 44//44
f 158//158 89//89 42//42
f 159//159 92//92 30//30
f 160//160 95//95 33//33
f 161//161 98//98 36//36
f 162//162 101//101 39//39
f 145//145 104//104 61//61
f 147//147 107//107 63//63
f 149//149 110//110 65//65
f 151//151 113//113 67//67
f 143//143 116//116 59//59
f 159//159 118//118 12//12
f 160//160 120//120 15//15
f 161//161 122//122 18//18
f 162//162 124//124 21//21
f 158//158 126//126 9//9
f 130//130 129//129 74//74
f 132//132 131//131 77//77
f 134//134 133//133 80//80
f 136//136 135//135 83//83
f 128//128 137//137 86//86
f 158//158 138//138 89//89
f 159//159 139//139 92//92
f 160//160 140//140 95//95
f 161//161 141//141 98//98
f 162//162 142//142 101//101
f 145//145 144//144 104//104
f 147//147 146//146 107//107
f 149//149 148//148 110//110
f 151//151 150//150 113//113
f 143//143 152//152 116//116
f 159//159 153//153 118//118
f 160//160 154//154 120//120
f 161//161 155//155 122//122
f 162//162 156//156 124//124
f 158//158 157//157 126//126
f 130//130 3//3 129//129
f 132//132 4//4 131//131
f 134//134 5//5 133//133
f 136//136 6//6 135//135
f 128//128 2//2 137//137
f 158//158 9//9 138//138
f 159//159 12//12 139//139
f 160//160 15//15 140//140
f 161//161 18//18 141//141
f 162//162 21//21 142//142
f 145//145 24//24 144//144
f 147//147 25//25 146//146
f 149//149 26//26 148//148
f 151//151 27//27 150//150
f 143//143 23//23 152//152
f 159//159 30//30 153//153
f 160//160 33//33 154//154
f 161//161 36//36 155//155
f 162//162 39//39 156//156
f 158//158 42//42 157//157
f 128//128 44//44 75//75
f 130//130 46//46 78//78
f 132//132 48//48 81//81
f 134//134 50//50 84//84
f 136//136 52//52 87//87
f 76//76 45//45 90//90
f 73//73 43//43 93//93
f 85//85 51//51 96//96
f 82//82 49//49 99//99
f 79//79 47//47 102//102
f 143//143 59//59 105//105
f 145//145 61//61 108//108
f 147//147 63//63 111//111
f 149//149 65//65 114//114
f 151//151 67//67 117//117
f 103//103 58//58 119//119
f 106//106 60//60 121//121
f 109//109 62//62 123//123
f 112//112 64//64 125//125
f 115//115 66//66 127//127
f 73//73 11//11 74//74
f 76//76 8//8 77//77
f 79//79 20//20 80//80
f 82//82 17//17 83//83
f 85//85 14//14 86//86
f 88//88 68//68 89//89
f 91//91 69//69 92//92
f 94//94 70//70 95//95
f 97//97 71//71 98//98
f 100//100 72//72 101//101
f 103//103 29//29 104//104
f 106//106 32//32 107//107
f 109//109 35//35 110//110
f 112//112 38//38 113//113
f 115//115 41//41 116//116
f 88//88 53//53 118//118
f 91//91 54//54 120//120
f 94//94 55//55 122//122
f 97//97 56//56 124//124
f 100//100 57//57 126//126
f 128//128 75//75 129//129
f 130//130 78//78 131//131
f 132//132 81//81 133//133
f 134//134 84//84 135//135
f 136//136 87//87 137//137
f 76//76 90//90 138//138
f 73//73 93//93 139//139
f 85//85 96//96 140//140
f 82//82 99//99 141//141
f 79//79 102//102 142//142
f 143//143 105//105 144//144
f 145//145 108//108 146//146
f 147//147 111//111 148//148
f 149//149 114//114 150//150
f 151//151 117//117 152//152
f 103//103 119//119 153//153
f 106//106 121//121 154//154
f 109//109 123//123 155//155
f 112//112 125//125 156//156
f 115//115 127//127 157//157
f 129//129 3//3 2//2
f 131//131 4//4 3//3
f 133//133 5//5 4//4
f 135//135 6//6 5//5
f 137//137 2//2 6//6
f 138//138 9//9 8//8
f 139//139 12//12 11//11
f 140//140 15//15 14//14
f 141//141 18//18 17//17
f 142//142 21//21 20//20
f 144//144 24//24 23//23
f 146//146 25//25 24//24
f 148//148 26//26 25//25
f 150//150 27//27 26//26
f 152//152 23//23 27//27
f 153//153 30//30 29//29
f 154//154 33//33 32//32
f 155//155 36//36 35//35
f 156//156 39//39 38//38
f 157//157 42//42 41//41
f 75//75 44//44 43//43
f 78//78 46//46 45//45
f 81//81 48//48 47//47
f 84//84 50//50 49//49
f 87//87 52//52 51//51
f 90//90 45//45 53//53
f 93//93 43//43 54//54
f 96//96 51//51 55//55
f 99//99 49//49 56//56
f 102//102 47//47 57//57
f 105//105 59//59 58//58
f 108//108 61//61 60//60
f 111//111 63//63 62//62
f 114//114 65//65 64//64
f 117//117 67//67 66//66
f 119//119 58//58 68//68
f 121//121 60//60 69//69
f 123//123 62//62 70//70
f 125//125 64//64 71//71
f 127//127 66//66 72//72
f 74//74 11//11 46//46
f 77//77 8//8 48//48
f 80//80 20//20 50//50
f 83//83 17//17 52//52
f 86//86 14//14 44//44
f 89//89 68//68 42//42
f 92//92 69//69 30//30
f 95//95 70//70 33//33
f 98//98 71//71 36//36
f 101//101 72//72 39//39
f 104//104 29//29 61//61
f 107//107 32//32 63//63
f 110//110 35//35 65//65
f 113//113 38//38 67//67
f 116//116 41//41 59//59
f 118//118 53//53 12//12
f 120//120 54//54 15//15
f 122//122 55//55 18//18
f 124//124 56//56 21//21
f 126//126 57//57 9//9
f 129//129 75//75 74//74
f 131//131 78//78 77//77
f 133//133 81//81 80//80
f 135//135 84//84 83//83
f 137//137 87//87 86//86
f 138//138 90//90 89//89
f 139//139 93//93 92//92
f 140//140 96//96 95//95
f 141//141 99//99 98//98
f 142//142 102//102 101//101
f 144//144 105//105 104//104
f 146//146 108//108 107//107
f 148//148 111//111 110//110
f 150//150 114//114 113//113
f 152//152 117//117 116//116
f 153//153 119//119 118//118
f 154//154 121//121 120//120
f 155//155 123//123 122//122
f 156//156 125//125 124//124
f 157//157 127//127 126//126
