# Created by Open3D 
# object name: part_006
# number of vertices: 162
# number of triangles: 320
v 0.371466 3.17101 -0.0140449
vn -0.839766 0.542221 -0.0280811
v 0.346652 3.12485 0.00624645
vn -0.891592 0.390143 0.229896
v 0.39205 3.1982 0.00841409
vn -0.766217 0.540928 0.346855
v 0.439017 3.26418 -0.0118358
vn -0.776781 0.629224 -0.0262339
v 0.393222 3.19812 -0.0280583
vn -0.688279 0.503195 -0.522558
v 0.347769 3.12478 -0.028512
vn -0.864017 0.382458 -0.327415
v 2.67398 5.97365 0.0542434
vn -0.694264 0.719328 -0.0237691
v 2.65078 5.94754 0.0754037
vn -0.687661 0.636547 0.349184
v 2.71394 6.00633 0.0764558
vn -0.561365 0.792098 0.239686
v 1.54232 4.55562 0.0449137
vn -0.0431559 0.0111133 0.999007
v 0.477224 3.24315 0.0133862
vn -0.0386349 0.0071514 0.999228
v 1.56848 4.5341 0.0460521
vn -0.0328196 0.00261048 0.999458
v 0.747486 2.74543 0.0220841
vn -0.0496051 -0.0192824 0.998583
v 0.732585 2.72724 0.0204016
vn -0.315782 -0.347708 0.882826
v 1.13086 2.4267 0.0346751
vn -0.0600867 -0.0364729 0.997527
v 0.748744 2.74535 -0.01705
vn 0.0145916 -0.0233364 -0.999621
v 0.40477 3.07509 -0.0293209
vn 0.0245862 -0.0105192 -0.999642
v 1.1387 2.47153 -0.00451728
vn 0.0252378 -0.0110554 -0.99962
v 1.30583 4.26607 -0.00320321
vn 0.0210601 0.00705771 -0.999753
v 2.55454 5.80973 0.034174
vn 0.00547356 0.020005 -0.999785
v 2.62445 5.85509 0.0359084
vn 0.0258331 0.00333445 -0.999661
v 3.54105 5.26059 0.0835465
vn 0.839766 -0.542221 0.0280798
v 3.56451 5.30684 0.105202
vn 0.874945 -0.389093 0.288231
v 3.51906 5.23349 0.104748
vn 0.742301 -0.539418 0.397515
v 3.47348 5.16743 0.0817926
vn 0.776781 -0.629224 0.0262301
v 3.52023 5.23342 0.0682756
vn 0.720336 -0.505219 -0.475258
v 3.56563 5.30677 0.0704432
vn 0.883201 -0.383668 -0.26973
v 2.36864 3.87608 0.0728397
vn -0.0210595 -0.00705821 0.999753
v 3.43374 5.18855 0.104425
vn -0.0255843 -0.00309646 0.999668
v 2.34246 3.8976 0.0722093
vn -0.0314018 0.00144456 0.999506
v 1.23853 2.45795 0.0152582
vn 0.694264 -0.719328 0.0237691
v 1.26033 2.48415 0.0377583
vn 0.663745 -0.635037 0.395185
v 1.19723 2.42536 0.0349923
vn 0.544722 -0.791045 0.278435
v 2.13215 3.58652 0.0247228
vn 0.0431547 -0.0111123 -0.999007
v 1.35904 2.6218 0.00223278
vn 0.0590943 -0.0244007 -0.997954
v 1.28915 2.57645 -0.000340184
vn 0.0384146 -0.00751923 -0.999234
v 3.1648 5.68619 0.0546056
vn 0.0496051 0.0192824 -0.998583
v 3.5088 5.35644 0.0657756
vn 0.0396309 0.00646401 -0.999193
v 2.77488 5.96001 0.040972
vn 0.0389795 0.00700032 -0.999215
v 3.16354 5.68627 0.0937396
vn -0.0145917 0.0233363 0.999621
v 3.17852 5.70445 0.0929434
vn 0.258507 0.351322 0.89986
v 2.78019 6.00499 0.0804044
vn -0.00406312 0.0405214 0.99917
v 0.403478 3.07517 0.010914
vn -0.0396309 -0.00646393 0.999193
v 0.360746 3.06003 0.00864852
vn -0.0644016 -0.0329226 0.997381
v 2.55324 5.80981 0.0744569
vn -0.0588857 0.0242147 0.997971
v 0.50818 3.32054 0.0138041
vn -0.0590357 0.0240314 0.997967
v 2.65195 5.94747 0.0389314
vn -0.614735 0.592711 -0.520379
v 2.59569 5.8893 0.0521271
vn -0.767386 0.640661 -0.025952
v 0.478545 3.24307 -0.0277351
vn 0.0255035 0.00309852 -0.99967
v 0.509474 3.32046 -0.0264789
vn 0.0049247 0.0201471 -0.999785
v 0.733763 2.72716 -0.0162537
vn -0.18096 -0.259035 -0.948765
v 0.361979 3.05995 -0.0297414
vn -0.000252814 -0.0369733 -0.999316
v 2.62313 5.85517 0.0770299
vn -0.0383978 0.007441 0.999235
v 1.1374 2.47161 0.0357177
vn -0.0389793 -0.00700026 0.999215
v 1.1321 2.42662 -0.00371477
vn 0.00406296 -0.0405218 -0.99917
v 1.32906 4.24097 -0.00265998
vn 0.0314018 -0.00144455 -0.999506
v 2.71505 6.00626 0.0416974
vn -0.535154 0.782753 -0.317661
v 3.50751 5.35652 0.106011
vn -0.0245859 0.0105195 0.999642
v 3.5503 5.37167 0.106431
vn 0.000252734 0.0369733 0.999316
v 1.35774 2.62188 0.0425156
vn -0.00529555 -0.0201632 0.999783
v 3.40281 5.11115 0.103169
vn -0.00514562 -0.0199798 0.999787
v 1.2615 2.48407 0.00128595
vn 0.646793 -0.594735 -0.47744
v 1.31681 2.5423 0.0178297
vn 0.767385 -0.640661 0.0259557
v 3.43506 5.18846 0.0633035
vn 0.0385813 -0.00714938 -0.99923
v 3.4041 5.11107 0.0628856
vn 0.0588484 -0.0238891 -0.997981
v 3.1797 5.70438 0.0562881
vn 0.241519 0.255211 -0.936235
v 3.55154 5.37159 0.0680412
vn 0.0644011 0.0329224 -0.997381
v 2.77358 5.96009 0.0812069
vn -0.0252375 0.0110558 0.99962
v 1.28783 2.57653 0.0407812
vn -0.0258212 -0.00338625 0.999661
v 1.19835 2.42529 0.000233907
vn 0.55434 -0.783964 -0.279478
v 2.10304 3.60446 0.0234972
vn 0.0328195 -0.00261045 -0.999458
v 2.78142 6.00491 0.0420146
vn 0.0600864 0.036472 -0.997527
v 0.418197 3.14371 0.0115598
vn -0.0356232 1.67265e-05 0.999365
v 0.410573 3.18749 0.010898
vn -0.0563388 0.0160685 0.998282
v 0.368315 3.10892 0.00938476
vn -0.0569158 0.00396342 0.998371
v 2.61583 5.89939 0.0756132
vn -0.111283 0.0688257 0.991403
v 2.54085 5.82242 0.0721468
vn -0.727138 0.590663 0.349839
v 1.52198 4.57237 0.0432606
vn -0.114035 0.0695379 0.99104
v 2.61708 5.89931 0.0366745
vn -0.0478138 0.064894 -0.996746
v 1.2966 4.29642 -0.00259571
vn -0.0501748 0.0655038 -0.99659
v 2.54203 5.82235 0.0356329
vn -0.636245 0.537891 -0.553051
v 0.41951 3.14363 -0.0292983
vn 0.0285974 -0.00403859 -0.999583
v 0.369586 3.10884 -0.0301886
vn 0.00728558 -9.05049e-05 -0.999973
v 0.411864 3.18741 -0.0293046
vn 0.0078587 0.0120139 -0.999897
v 0.728543 2.72141 -0.00189992
vn -0.634684 -0.772543 -0.0188272
v 0.34851 3.04595 0.00648609
vn -0.633148 -0.668419 0.390309
v 0.349628 3.04588 -0.028312
vn -0.589129 -0.653046 -0.475877
v 2.70922 5.93236 0.0795072
vn -0.0308183 0.00586502 0.999508
v 2.7337 5.98808 0.0795376
vn -0.0388032 0.0260105 0.998908
v 2.66482 5.93138 0.0777548
vn -0.0505615 0.023104 0.998454
v 1.20175 2.49934 0.0380407
vn -0.0334022 -0.00180993 0.99944
v 1.24868 2.60623 0.0396649
vn -0.0320844 0.00176094 0.999484
v 0.804211 2.81451 0.0247321
vn -0.0344538 -0.00082461 0.999406
v 1.16586 2.41464 -0.0019646
vn 0.0917929 -0.328984 -0.939864
v 1.16141 2.40561 0.0127092
vn 0.17023 -0.985376 0.00746485
v 1.12062 2.41184 -0.00225575
vn -0.507859 -0.719881 -0.473128
v 1.71512 3.92158 0.01031
vn 0.0321108 -0.00202759 -0.999482
v 1.25001 2.60615 -0.00185946
vn 0.0321056 -0.00233345 -0.999482
v 0.515252 3.2104 -0.0266913
vn 0.0318118 -0.00209183 -0.999492
v 2.74761 6.0169 0.0415453
vn -0.0312359 0.325166 -0.945141
v 2.73497 5.988 0.0399641
vn 0.0253977 0.0219566 -0.999436
v 2.6965 5.98187 0.0393712
vn -0.022471 0.067701 -0.997453
v 3.49277 5.28798 0.105988
vn -0.0285974 0.00403853 0.999583
v 3.50042 5.24421 0.105994
vn -0.00785739 -0.0120147 0.999897
v 3.5427 5.32278 0.106878
vn -0.00728568 9.01602e-05 0.999973
v 1.2952 2.53231 0.0400152
vn 0.0474052 -0.0647902 0.996772
v 1.37025 2.60927 0.0410567
vn 0.703104 -0.589145 0.398188
v 2.38904 3.85932 0.0725635
vn 0.0501741 -0.0655033 0.99659
v 1.29645 2.53223 0.00107647
vn 0.110703 -0.0686769 -0.991478
v 2.16366 3.58337 0.0267072
vn 0.114035 -0.0695384 -0.99104
v 1.37143 2.60919 0.00454287
vn 0.69037 -0.557729 -0.46079
v 3.49408 5.2879 0.0651298
vn 0.0356231 -1.66819e-05 -0.999365
v 3.54397 5.3227 0.0673049
vn 0.0569155 -0.00396335 -0.998371
v 3.50171 5.24413 0.0657917
vn 0.0563388 -0.0160686 -0.998282
v 3.18399 5.71019 0.070924
vn 0.634684 0.772543 0.0188272
v 3.56265 5.38573 0.105002
vn 0.606873 0.670074 0.42744
v 3.56377 5.38566 0.0702036
vn 0.618546 0.65119 -0.439718
v 2.66227 5.82547 0.0785491
vn -0.0321371 0.00229419 0.999481
v 3.10675 5.61719 0.0930212
vn -0.0297671 0.00488002 0.999545
v 1.17731 2.44362 0.0367254
vn -0.0253979 -0.0219566 0.999436
v 1.24617 2.50032 0.0391375
vn -0.013636 -0.0190489 0.999726
v 1.17859 2.44354 -0.00284799
vn 0.038803 -0.02601 -0.998908
v 1.21702 2.44967 -0.000995186
vn 0.0864386 -0.0717386 -0.993671
v 2.6636 5.82539 0.0370247
vn 0.0320639 -0.00178656 -0.999484
v 3.39836 5.22114 0.0618566
vn 0.0323562 -0.00202696 -0.999474
v 2.75112 6.02599 0.0564381
vn -0.17023 0.985376 -0.00745877
v 2.79278 6.01971 0.0441473
vn 0.537274 0.718023 -0.442469
v 0.342473 3.09087 0.0073576
vn -0.47575 -0.00408173 0.879571
v 0.366903 3.14784 0.00863004
vn -0.110892 0.0419729 0.992946
v 0.432476 3.24179 0.0108589
vn -0.112811 0.0669679 0.991357
v 0.493463 3.33032 0.0114249
vn -0.728909 0.588507 0.349788
v 1.51566 4.57814 0.0196217
vn -0.772105 0.63496 -0.0260932
v 0.494636 3.33024 -0.0250889
vn -0.661045 0.55364 -0.50646
v 0.433727 3.24171 -0.0280799
vn -0.048675 0.0623917 -0.996864
v 0.368134 3.14777 -0.0296837
vn -0.0469208 0.0379331 -0.998178
v 0.343665 3.09079 -0.0297512
vn -0.30235 -0.00484882 -0.953185
v 0.335077 3.08516 -0.0152172
vn -0.999206 -0.0236624 -0.0320527
v 2.69527 5.98195 0.0776848
vn -0.0864395 0.0717392 0.993671
v 0.513918 3.21048 0.0148331
vn -0.0323773 0.00200179 0.999474
v 1.1195 2.41191 0.0325423
vn -0.54937 -0.737314 0.393142
v 0.80553 2.81443 -0.0163315
vn 0.0297671 -0.00488004 -0.999545
v 2.66611 5.9313 0.0375522
vn 0.0136353 0.0190495 -0.999726
v 3.56862 5.34082 0.106441
vn 0.418309 0.0077094 0.908272
v 3.54415 5.28385 0.106373
vn 0.0469204 -0.0379334 0.998178
v 3.47856 5.18991 0.104769
vn 0.0489336 -0.0629321 0.996817
v 3.41765 5.10137 0.101779
vn 0.704876 -0.586989 0.398238
v 2.39687 3.85346 0.0494025
vn 0.772105 -0.63496 0.0260932
v 3.41882 5.1013 0.0652647
vn 0.672036 -0.538007 -0.508837
v 3.47981 5.18983 0.0658308
vn 0.112993 -0.0673494 -0.991311
v 3.54538 5.28377 0.0680597
vn 0.110894 -0.0419748 -0.992945
v 3.56981 5.34075 0.069332
vn 0.362915 0.00102371 -0.931822
v 3.57745 5.34644 0.0843645
vn 0.999206 0.0236624 0.0320527
v 3.39703 5.22122 0.103381
vn -0.0318442 0.00205335 0.999491
v 1.21579 2.44974 0.0373185
vn 0.0224692 -0.0676999 0.997453
v 1.24746 2.50023 -0.00106507
vn 0.05056 -0.0231026 -0.998454
v 3.10807 5.6171 0.0519575
vn 0.0344538 0.000824597 -0.999406
v 2.79166 6.01978 0.0789454
vn 0.523095 0.738972 0.424609
v 2.74642 6.01698 0.0786543
vn -0.109477 0.44175 0.890434
v 1.95547 4.21585 0.0592115
vn -0.0321108 0.00202758 0.999482
v 1.16467 2.41471 0.0351442
vn 0.0520397 -0.438122 0.897408
v 1.20307 2.49925 -0.00281746
vn 0.0308184 -0.00586502 -0.999508
v 2.71053 5.93228 0.038649
vn 0.0334023 0.0018098 -0.99944
f 1//1 2//2 3//3
f 1//1 3//3 4//4
f 1//1 4//4 5//5
f 1//1 5//5 6//6
f 1//1 6//6 2//2
f 7//7 8//8 9//9
f 10//10 11//11 12//12
f 13//13 14//14 15//15
f 16//16 17//17 18//18
f 19//19 20//20 21//21
f 22//22 23//23 24//24
f 22//22 24//24 25//25
f 22//22 25//25 26//26
f 22//22 26//26 27//27
f 22//22 27//27 23//23
f 28//28 29//29 30//30
f 31//31 32//32 33//33
f 34//34 35//35 36//36
f 37//37 38//38 39//39
f 40//40 41//41 42//42
f 13//13 43//43 44//44
f 10//10 45//45 46//46
f 7//7 47//47 48//48
f 19//19 49//49 50//50
f 16//16 51//51 52//52
f 10//10 53//53 45//45
f 13//13 54//54 43//43
f 16//16 55//55 51//51
f 19//19 56//56 49//49
f 7//7 57//57 47//47
f 40//40 58//58 59//59
f 28//28 60//60 61//61
f 31//31 62//62 63//63
f 34//34 64//64 65//65
f 37//37 66//66 67//67
f 40//40 68//68 58//58
f 28//28 69//69 60//60
f 31//31 70//70 62//62
f 34//34 71//71 64//64
f 37//37 72//72 66//66
f 10//10 46//46 11//11
f 7//7 48//48 8//8
f 19//19 50//50 20//20
f 16//16 52//52 17//17
f 13//13 44//44 14//14
f 40//40 42//42 68//68
f 28//28 30//30 69//69
f 31//31 33//33 70//70
f 34//34 36//36 71//71
f 37//37 39//39 72//72
f 28//28 61//61 29//29
f 31//31 63//63 32//32
f 34//34 65//65 35//35
f 37//37 67//67 38//38
f 40//40 59//59 41//41
f 10//10 12//12 53//53
f 13//13 15//15 54//54
f 16//16 18//18 55//55
f 19//19 21//21 56//56
f 7//7 9//9 57//57
f 73//73 74//74 75//75
f 76//76 77//77 78//78
f 79//79 80//80 81//81
f 82//82 83//83 84//84
f 85//85 86//86 87//87
f 88//88 89//89 90//90
f 91//91 92//92 93//93
f 94//94 95//95 96//96
f 97//97 98//98 99//99
f 100//100 101//101 102//102
f 103//103 104//104 105//105
f 106//106 107//107 108//108
f 109//109 110//110 111//111
f 112//112 113//113 114//114
f 115//115 116//116 117//117
f 88//88 118//118 119//119
f 91//91 120//120 121//121
f 94//94 122//122 123//123
f 97//97 124//124 125//125
f 100//100 126//126 127//127
f 128//128 129//129 2//2
f 130//130 131//131 3//3
f 132//132 133//133 4//4
f 134//134 135//135 5//5
f 136//136 137//137 6//6
f 76//76 138//138 8//8
f 73//73 139//139 11//11
f 85//85 140//140 14//14
f 82//82 141//141 17//17
f 79//79 142//142 20//20
f 143//143 144//144 23//23
f 145//145 146//146 24//24
f 147//147 148//148 25//25
f 149//149 150//150 26//26
f 151//151 152//152 27//27
f 103//103 153//153 29//29
f 106//106 154//154 32//32
f 109//109 155//155 35//35
f 112//112 156//156 38//38
f 115//115 157//157 41//41
f 73//73 75//75 43//43
f 76//76 78//78 45//45
f 79//79 81//81 47//47
f 82//82 84//84 49//49
f 85//85 87//87 51//51
f 88//88 90//90 53//53
f 91//91 93//93 54//54
f 94//94 96//96 55//55
f 97//97 99//99 56//56
f 100//100 102//102 57//57
f 103//103 105//105 58//58
f 106//106 108//108 60//60
f 109//109 111//111 62//62
f 112//112 114//114 64//64
f 115//115 117//117 66//66
f 88//88 119//119 68//68
f 91//91 121//121 69//69
f 94//94 123//123 70//70
f 97//97 125//125 71//71
f 100//100 127//127 72//72
f 130//130 74//74 46//46
f 132//132 77//77 48//48
f 134//134 80//80 50//50
f 136//136 83//83 52//52
f 128//128 86//86 44//44
f 158//158 89//89 42//42
f 159//159 92//92 30//30
f 160//160 95//95 33//33
f 161//161 98//98 36//36
f 162//162 101//101 39//39
f 145//145 104//104 61//61
f 147//147 107//107 63//63
f 149//149 110//110 65//65
f 151//151 113//113 67//67
f 143//143 116//116 59//59
f 159//159 118//118 12//12
f 160//160 120//120 15//15
f 161//161 122//122 18//18
f 162//162 124//124 21//21
f 158//158 126//126 9//9
f 130//130 129//129 74//74
f 132//132 131//131 77//77
f 134//134 133//133 80//80
f 136//136 135//135 83//83
f 128//128 137//137 86//86
f 158//158 138//138 89//89
f 159//159 139//139 92//92
f 160//160 140//140 95//95
f 161//161 141//141 98//98
f 162//162 142//142 101//101
f 145//145 144//144 104//104
f 147//147 146//146 107//107
f 149//149 148//148 110//110
f 151//151 150//150 113//113
f 143//143 152//152 116//116
f 159//159 153//153 118//118
f 160//160 154//154 120//120
f 161//161 155//155 122//122
f 162//162 156//156 124//124
f 158//158 157//157 126//126
f 130//130 3//3 129//129
f 132//132 4//4 131//131
f 134//134 5//5 133//133
f 136//136 6//6 135//135
f 128//128 2//2 137//137
f 158//158 9//9 138//138
f 159//159 12//12 139//139
f 160//160 15//15 140//140
f 161//161 18//18 141//141
f 162//162 21//21 142//142
f 145//145 24//24 144//144
f 147//147 25//25 146//146
f 149//149 26//26 148//148
f 151//151 27//27 150//150
f 143//143 23//23 152//152
f 159//159 30//30 153//153
f 160//160 33//33 154//154
f 161//161 36//36 155//155
f 162//162 39//39 156//156
f 158//158 42//42 157//157
f 128//128 44//44 75//75
f 130//130 46//46 78//78
f 132//132 48//48 81//81
f 134//134 50//50 84//84
f 136//136 52//52 87//87
f 76//76 45//45 90//90
f 73//73 43//43 93//93
f 85//85 51//51 96//96
f 82//82 49//49 99//99
f 79//79 47//47 102//102
f 143//143 59//59 105//105
f 145//145 61//61 108//108
f 147//147 63//63 111//111
f 149//149 65//65 114//114
f 151//151 67//67 117//117
f 103//103 58//58 119//119
f 106//106 60//60 121//121
f 109//109 62//62 123//123
f 112//112 64//64 125//125
f 115//115 66//66 127//127
f 73//73 11//11 74//74
f 76//76 8//8 77//77
f 79//79 20//20 80//80
f 82//82 17//17 83//83
f 85//85 14//14 86//86
f 88//88 68//68 89//89
f 91//91 69//69 92//92
f 94//94 70//70 95//95
f 97//97 71//71 98//98
f 100//100 72//72 101//101
f 103//103 29//29 104//104
f 106//106 32//32 107//107
f 109//109 35//35 110//110
f 112//112 38//38 113//113
f 115//115 41//41 116//116
f 88//88 53//53 118//118
f 91//91 54//54 120//120
f 94//94 55//55 122//122
f 97//97 56//56 124//124
f 100//100 57//57 126//126
f 128//128 75//75 129//129
f 130//130 78//78 131//131
f 132//132 81//81 133//133
f 134//134 84//84 135//135
f 136//136 87//87 137//137
f 76//76 90//90 138//138
f 73//73 93//93 139//139
f 85//85 96//96 140//140
f 82//82 99//99 141//141
f 79//79 102//102 142//142
f 143//143 105//105 144//144
f 145//145 108//108 146//146
f 147//147 111//111 148//148
f 149//149 114//114 150//150
f 151//151 117//117 152//152
f 103//103 119//119 153//153
f 106//106 121//121 154//154
f 109//109 123//123 155//155
f 112//112 125//125 156//156
f 115//115 127//127 157//157
f 129//129 3//3 2//2
f 131//131 4//4 3//3
f 133//133 5//5 4//4
f 135//135 6//6 5//5
f 137//137 2//2 6//6
f 138//138 9//9 8//8
f 139//139 12//12 11//11
f 140//140 15//15 14//14
f 141//141 18//18 17//17
f 142//142 21//21 20//20
f 144//144 24//24 23//23
f 146//146 25//25 24//24
f 148//148 26//26 25//25
f 150//150 27//27 26//26
f 152//152 23//23 27//27
f 153//153 30//30 29//29
f 154//154 33//33 32//32
f 155//155 36//36 35//35
f 156//156 39//39 38//38
f 157//157 42//42 41//41
f 75//75 44//44 43//43
f 78//78 46//46 45//45
f 81//81 48//48 47//47
f 84//84 50//50 49//49
f 87//87 52//52 51//51
f 90//90 45//45 53//53
f 93//93 43//43 54//54
f 96//96 51//51 55//55
f 99//99 49//49 56//56
f 102//102 47//47 57//57
f 105//105 59//59 58//58
f 108//108 61//61 60//60
f 111//111 63//63 62//62
f 114//114 65//65 64//64
f 117//117 67//67 66//66
f 119//119 58//58 68//68
f 121//121 60//60 69//69
f 123//123 62//62 70//70
f 125//125 64//64 71//71
f 127//127 66//66 72//72
f 74//74 11//11 46//46
f 77//77 8//8 48//48
f 80//80 20//20 50//50
f 83//83 17//17 52//52
f 86//86 14//14 44//44
f 89//89 68//68 42//42
f 92//92 69//69 30//30
f 95//95 70//70 33//33
f 98//98 71//71 36//36
f 101//101 72//72 39//39
f 104//104 29//29 61//61
f 107//107 32//32 63//63
f 110//110 35//35 65//65
f 113//113 38//38 67//67
f 116//116 41//41 59//59
f 118//118 53//53 12//12
f 120//120 54//54 15//15
f 122//122 55//55 18//18
f 124//124 56//56 21//21
f 126//126 57//57 9//9
f 129//129 75//75 74//74
f 131//131 78//78 77//77
f 133//133 81//81 80//80
f 135//135 84//84 83//83
f 137//137 87//87 86//86
f 138//138 90//90 89//89
f 139//139 93//93 92//92
f 140//140 96//96 95//95
f 141//141 99//99 98//98
f 142//142 102//102 101//101
f 144//144 105//105 104//104
f 146//146 108//108 107//107
f 148//148 111//111 110//110
f 150//150 114//114 113//113
f 152//152 117//117 116//116
f 153//153 119//119 118//118
f 154//154 121//121 120//120
f 155//155 123//123 122//122
f 156//156 125//125 124//124
f 157//157 127//127 126//126
