# Created by Open3D 
# object name: part_010
# number of vertices: 162
# number of triangles: 320
v 0.406518 3.40977 0.12784
vn -0.983976 0.176462 0.0255256
v 0.402906 3.37641 0.147168
vn -0.988124 0.0771908 0.13286
v 0.412095 3.43083 0.149201
vn -0.962544 0.198131 0.185076
v 0.421999 3.48211 0.129599
vn -0.970529 0.23948 0.0268693
v 0.41135 3.43173 0.114263
vn -0.958006 0.205308 -0.200185
v 0.402197 3.37727 0.113872
vn -0.991143 0.0817915 -0.104622
v 0.977009 5.67341 0.174212
vn -0.95034 0.309928 0.0282597
v 0.971736 5.65142 0.194691
vn -0.94328 0.274566 0.186642
v 0.989444 5.70373 0.194845
vn -0.908004 0.3951 0.139372
v 0.702101 4.53852 0.173863
vn -0.013231 -0.0171461 0.999765
v 0.440054 3.48273 0.152177
vn 0.00119832 -0.0210702 0.999777
v 0.714752 4.53533 0.173755
vn 0.0190773 -0.0252831 0.999498
v 0.602419 3.30071 0.143059
vn 0.0112478 -0.0656033 0.997782
v 0.598692 3.28605 0.141571
vn -0.130244 -0.604838 0.785626
v 0.788061 3.25227 0.137494
vn 0.0107102 -0.0959676 0.995327
v 0.60162 3.30168 0.105571
vn -0.0313013 -0.0139665 -0.999412
v 0.429976 3.36887 0.110437
vn -0.0264309 0.0097328 -0.999603
v 0.784626 3.27969 0.100576
vn -0.0243943 0.00922022 -0.99966
v 0.64234 4.30574 0.129738
vn -0.0557882 0.0345013 -0.997846
v 0.949005 5.54621 0.155651
vn -0.104321 0.0468097 -0.993441
v 0.970902 5.59342 0.156003
vn -0.0411521 0.0310669 -0.99867
v 1.396 5.56806 0.162562
vn 0.983976 -0.176463 -0.0255256
v 1.40046 5.60038 0.183416
vn 0.992798 -0.0828628 0.0865187
v 1.39131 5.54592 0.183025
vn 0.96933 -0.206368 0.133458
v 1.38052 5.49571 0.161239
vn 0.970529 -0.23948 -0.0268694
v 1.39057 5.54682 0.148087
vn 0.94839 -0.19364 -0.251116
v 1.39975 5.60124 0.15012
vn 0.985701 -0.0751877 -0.150799
v 1.1014 4.43811 0.162761
vn 0.0557867 -0.0345009 0.997846
v 1.36345 5.49391 0.184503
vn 0.041374 -0.0305983 0.998675
v 1.08876 4.44129 0.163356
vn 0.0235081 -0.0263972 0.999375
v 0.825505 3.30442 0.11619
vn 0.95034 -0.309929 -0.0282597
v 0.831669 3.32533 0.137535
vn 0.950067 -0.282802 0.131895
v 0.813925 3.27306 0.13574
vn 0.912677 -0.400774 0.0800056
v 1.04164 4.20533 0.118635
vn 0.013228 0.0171469 -0.999765
v 0.852833 3.43244 0.103049
vn 0.0631225 0.00433804 -0.997996
v 0.830919 3.38525 0.101894
vn -0.00120393 0.020421 -0.999791
v 1.20024 5.67694 0.154229
vn -0.0112478 0.0656033 -0.997782
v 1.37186 5.60978 0.148309
vn -0.0161478 0.041941 -0.99899
v 1.01721 5.69896 0.15817
vn -0.0181848 0.0424532 -0.998933
v 1.20104 5.67597 0.191717
vn 0.031301 0.0139656 0.999412
v 1.20472 5.69069 0.190831
vn 0.164228 0.563594 0.809562
v 1.01538 5.72443 0.196569
vn 0.031767 0.0444159 0.998508
v 0.430797 3.36787 0.148979
vn 0.0161478 -0.041941 0.99899
v 0.415922 3.34584 0.147842
vn -0.00275977 -0.0925813 0.995701
v 0.949828 5.54521 0.194239
vn -0.0624582 -0.00452307 0.998037
v 0.443125 3.53467 0.153052
vn -0.0625472 -0.00486305 0.99803
v 0.970992 5.65233 0.159753
vn -0.938946 0.280938 -0.198633
v 0.956355 5.60237 0.173034
vn -0.968366 0.248063 0.0270437
v 0.439215 3.48374 0.112785
vn -0.0415463 0.0305652 -0.998669
v 0.442303 3.53567 0.114464
vn -0.105638 0.0467734 -0.993304
v 0.597944 3.28696 0.106457
vn -0.132483 -0.428009 -0.894012
v 0.415139 3.34679 0.111067
vn -0.0452371 -0.0410314 -0.998133
v 0.971742 5.5924 0.195394
vn 0.00133863 -0.0205312 0.999788
v 0.785448 3.27869 0.139118
vn 0.0181848 -0.0424528 0.998933
v 0.787278 3.25322 0.10072
vn -0.0317673 -0.0444167 -0.998508
v 0.654251 4.29967 0.129084
vn -0.023508 0.0263972 -0.999375
v 0.988735 5.70459 0.161548
vn -0.910537 0.401628 -0.0980722
v 1.37268 5.60878 0.186851
vn 0.0264311 -0.00973245 0.999603
v 1.38752 5.63086 0.186221
vn 0.045237 0.0410304 0.998133
v 0.853655 3.43144 0.141637
vn 0.104882 -0.0469638 0.993375
v 1.36036 5.44198 0.182824
vn 0.104967 -0.0466228 0.993382
v 0.830925 3.32623 0.102597
vn 0.929329 -0.269269 -0.252668
v 0.846168 3.37545 0.117805
vn 0.968366 -0.248063 -0.0270452
v 1.36261 5.49492 0.145111
vn -0.00131492 0.0210498 -0.999778
v 1.35954 5.44298 0.144236
vn 0.0619761 0.00499356 -0.998065
v 1.20397 5.6916 0.155717
vn 0.0947848 0.473763 -0.875537
v 1.38674 5.63181 0.149446
vn 0.00275978 0.0925813 -0.995701
v 1.01803 5.69796 0.196712
vn 0.0243943 -0.00922021 0.99966
v 0.831758 3.38423 0.141285
vn 0.0412403 -0.0311389 0.998664
v 0.813216 3.27392 0.102444
vn 0.905094 -0.395026 -0.157351
v 1.02826 4.20563 0.118684
vn -0.0190774 0.0252831 -0.999498
v 1.0146 5.72538 0.159794
vn -0.0107103 0.0959675 -0.995327
v 0.42861 3.40976 0.150408
vn 0.0164448 -0.0304293 0.999402
v 0.420585 3.431 0.150814
vn -0.0470107 -0.015588 0.998773
v 0.413237 3.37476 0.149214
vn -0.0331176 -0.0339972 0.998873
v 0.963767 5.614 0.195076
vn -0.222627 0.0379486 0.974165
v 0.943499 5.54805 0.19264
vn -0.95334 0.237359 0.186558
v 0.692237 4.54102 0.173213
vn -0.228821 0.0377412 0.972737
v 0.962972 5.61497 0.157776
vn -0.264744 0.0879244 -0.960302
v 0.635284 4.31917 0.131161
vn -0.269967 0.087681 -0.958869
v 0.942754 5.54896 0.157662
vn -0.94507 0.243576 -0.217977
v 0.427776 3.41077 0.111268
vn -0.026139 0.0212507 -0.999432
v 0.412429 3.37574 0.111306
vn -0.0756366 0.017606 -0.99698
v 0.419764 3.432 0.112302
vn -0.089491 0.0359688 -0.995338
v 0.597062 3.28193 0.120247
vn -0.244334 -0.969488 -0.0198607
v 0.412736 3.33429 0.145889
vn -0.318767 -0.908255 0.271037
v 0.412026 3.33515 0.112555
vn -0.327236 -0.880805 -0.342198
v 0.996251 5.66209 0.196548
vn 0.0191985 -0.0195058 0.999625
v 0.999304 5.70021 0.196852
vn -0.0227513 0.00713541 0.999716
v 0.979116 5.64719 0.196213
vn -0.0437023 -0.00247632 0.999042
v 0.807243 3.31455 0.139879
vn 0.0233858 -0.0321744 0.999209
v 0.813135 3.38763 0.141963
vn 0.0216816 -0.0262284 0.999421
v 0.616501 3.35648 0.145126
vn 0.0199495 -0.0311679 0.999315
v 0.801792 3.25765 0.101139
vn 0.438891 -0.371592 -0.818104
v 0.801595 3.25109 0.115151
vn 0.749665 -0.660992 -0.0330616
v 0.784589 3.24146 0.102195
vn -0.146335 -0.926293 -0.347228
v 0.841021 4.25173 0.123788
vn -0.0212925 0.0258402 -0.999439
v 0.812287 3.38866 0.102186
vn -0.0209206 0.0253791 -0.999459
v 0.457233 3.47794 0.112058
vn -0.0218388 0.0256099 -0.999433
v 1.00011 5.72092 0.160601
vn -0.4729 0.412864 -0.778401
v 0.998496 5.70119 0.158944
vn -0.0652709 0.0587374 -0.996137
v 0.984287 5.6854 0.159442
vn -0.218375 0.103927 -0.970315
v 1.37488 5.56688 0.18602
vn 0.0261391 -0.0212507 0.999432
v 1.3829 5.54566 0.184986
vn 0.0894902 -0.0359683 0.995338
v 1.39023 5.60191 0.185982
vn 0.0756381 -0.0176058 0.99698
v 0.839688 3.36268 0.139512
vn 0.263833 -0.087967 0.960549
v 0.859907 3.42869 0.139626
vn 0.960154 -0.245628 0.133306
v 1.11122 4.43566 0.161563
vn 0.269971 -0.0876819 0.958868
v 0.838894 3.36365 0.102212
vn 0.221314 -0.0379921 -0.974462
v 1.05427 4.21382 0.11951
vn 0.228819 -0.0377407 -0.972737
v 0.859161 3.4296 0.104648
vn 0.941552 -0.233262 -0.243042
v 1.37405 5.5679 0.14688
vn -0.0164451 0.0304288 -0.999402
v 1.38942 5.60289 0.148074
vn 0.0331177 0.0339972 -0.998873
v 1.38208 5.54665 0.146475
vn 0.0470084 0.0155886 -0.998773
v 1.20544 5.69591 0.169698
vn 0.244334 0.969488 0.0198639
v 1.39063 5.6425 0.184733
vn 0.331013 0.893393 0.303775
v 1.38992 5.64337 0.151399
vn 0.313345 0.897663 -0.309865
v 0.990373 5.58899 0.195102
vn 0.0209039 -0.025452 0.999457
v 1.187 5.62015 0.191498
vn 0.0226347 -0.0205126 0.999533
v 0.804164 3.27646 0.138344
vn 0.0652694 -0.0587363 0.996138
v 0.824365 3.32947 0.139586
vn 0.0861851 -0.0490801 0.995069
v 0.803357 3.27744 0.100436
vn 0.0227514 -0.00713538 -0.999716
v 0.817592 3.2932 0.101144
vn 0.176756 -0.0534272 -0.982804
v 0.989526 5.59002 0.155325
vn -0.0216924 0.0261807 -0.999422
v 1.34458 5.50074 0.145452
vn -0.0207788 0.025951 -0.999447
v 1.00091 5.72675 0.174912
vn -0.749665 0.660991 0.0330619
v 1.01736 5.73705 0.161759
vn 0.132444 0.943154 -0.304827
v 0.405246 3.35664 0.147734
vn -0.69678 -0.177585 0.694954
v 0.408174 3.3954 0.149252
vn -0.190502 -0.00111292 0.981686
v 0.4228 3.46751 0.151104
vn -0.223467 0.0345665 0.974098
v 0.43622 3.53523 0.151407
vn -0.953774 0.235636 0.186522
v 0.688343 4.54246 0.150893
vn -0.969457 0.243774 0.0269568
v 0.435475 3.53613 0.116429
vn -0.951235 0.242687 -0.190406
v 0.422006 3.46848 0.113804
vn -0.263575 0.083935 -0.96098
v 0.407392 3.39635 0.11255
vn -0.232111 0.0493851 -0.971435
v 0.404489 3.35756 0.112187
vn -0.604486 -0.109231 -0.789092
v 0.402293 3.3515 0.126254
vn -0.973627 -0.227663 0.0148572
v 0.985069 5.68445 0.196144
vn -0.176754 0.0534265 0.982804
v 0.45808 3.47691 0.151836
vn 0.0207661 -0.0259982 0.999446
v 0.785299 3.2406 0.135529
vn -0.134708 -0.954539 0.265911
v 0.615663 3.3575 0.10579
vn -0.0226349 0.0205124 -0.999533
v 0.978296 5.64818 0.157702
vn -0.0861869 0.0490809 -0.995069
v 1.39817 5.62009 0.185101
vn 0.725923 0.14222 0.672911
v 1.39527 5.5813 0.184738
vn 0.232105 -0.0493838 0.971436
v 1.38065 5.50918 0.183484
vn 0.264697 -0.084591 0.960614
v 1.36719 5.44152 0.180859
vn 0.960588 -0.243906 0.13334
v 1.11416 4.43538 0.139052
vn 0.969457 -0.243774 -0.0269577
v 1.36644 5.44242 0.145881
vn 0.935107 -0.229201 -0.270264
v 1.37986 5.51014 0.146184
vn 0.224261 -0.035038 -0.973899
v 1.39449 5.58225 0.148036
vn 0.190505 0.0011129 -0.981686
v 1.39741 5.62101 0.149554
vn 0.570477 0.150507 -0.807405
v 1.40021 5.62634 0.163809
vn 0.973627 0.227662 -0.0148572
v 1.34543 5.49971 0.18523
vn 0.021819 -0.0256822 0.999432
v 0.818374 3.29225 0.137846
vn 0.218374 -0.103927 0.970315
v 0.823544 3.33046 0.101075
vn 0.0437024 0.00247626 -0.999042
v 1.18616 5.62117 0.152162
vn -0.0199494 0.0311676 -0.999315
v 1.01807 5.73619 0.195093
vn 0.146955 0.939675 0.308893
v 1.00087 5.72 0.196149
vn -0.536198 0.459585 0.708007
v 0.901756 4.48831 0.168633
vn 0.0212927 -0.0258402 0.999439
v 0.802549 3.25673 0.136687
vn 0.565344 -0.494952 0.659855
v 0.806409 3.31556 0.10074
vn -0.0191984 0.0195053 -0.999625
v 0.995418 5.6631 0.157409
vn -0.023386 0.0321745 -0.999209
f 1//1 2//2 3//3
f 1//1 3//3 4//4
f 1//1 4//4 5//5
f 1//1 5//5 6//6
f 1//1 6//6 2//2
f 7//7 8//8 9//9
f 10//10 11//11 12//12
f 13//13 14//14 15//15
f 16//16 17//17 18//18
f 19//19 20//20 21//21
f 22//22 23//23 24//24
f 22//22 24//24 25//25
f 22//22 25//25 26//26
f 22//22 26//26 27//27
f 22//22 27//27 23//23
f 28//28 29//29 30//30
f 31//31 32//32 33//33
f 34//34 35//35 36//36
f 37//37 38//38 39//39
f 40//40 41//41 42//42
f 13//13 43//43 44//44
f 10//10 45//45 46//46
f 7//7 47//47 48//48
f 19//19 49//49 50//50
f 16//16 51//51 52//52
f 10//10 53//53 45//45
f 13//13 54//54 43//43
f 16//16 55//55 51//51
f 19//19 56//56 49//49
f 7//7 57//57 47//47
f 40//40 58//58 59//59
f 28//28 60//60 61//61
f 31//31 62//62 63//63
f 34//34 64//64 65//65
f 37//37 66//66 67//67
f 40//40 68//68 58//58
f 28//28 69//69 60//60
f 31//31 70//70 62//62
f 34//34 71//71 64//64
f 37//37 72//72 66//66
f 10//10 46//46 11//11
f 7//7 48//48 8//8
f 19//19 50//50 20//20
f 16//16 52//52 17//17
f 13//13 44//44 14//14
f 40//40 42//42 68//68
f 28//28 30//30 69//69
f 31//31 33//33 70//70
f 34//34 36//36 71//71
f 37//37 39//39 72//72
f 28//28 61//61 29//29
f 31//31 63//63 32//32
f 34//34 65//65 35//35
f 37//37 67//67 38//38
f 40//40 59//59 41//41
f 10//10 12//12 53//53
f 13//13 15//15 54//54
f 16//16 18//18 55//55
f 19//19 21//21 56//56
f 7//7 9//9 57//57
f 73//73 74//74 75//75
f 76//76 77//77 78//78
f 79//79 80//80 81//81
f 82//82 83//83 84//84
f 85//85 86//86 87//87
f 88//88 89//89 90//90
f 91//91 92//92 93//93
f 94//94 95//95 96//96
f 97//97 98//98 99//99
f 100//100 101//101 102//102
f 103//103 104//104 105//105
f 106//106 107//107 108//108
f 109//109 110//110 111//111
f 112//112 113//113 114//114
f 115//115 116//116 117//117
f 88//88 118//118 119//119
f 91//91 120//120 121//121
f 94//94 122//122 123//123
f 97//97 124//124 125//125
f 100//100 126//126 127//127
f 128//128 129//129 2//2
f 130//130 131//131 3//3
f 132//132 133//133 4//4
f 134//134 135//135 5//5
f 136//136 137//137 6//6
f 76//76 138//138 8//8
f 73//73 139//139 11//11
f 85//85 140//140 14//14
f 82//82 141//141 17//17
f 79//79 142//142 20//20
f 143//143 144//144 23//23
f 145//145 146//146 24//24
f 147//147 148//148 25//25
f 149//149 150//150 26//26
f 151//151 152//152 27//27
f 103//103 153//153 29//29
f 106//106 154//154 32//32
f 109//109 155//155 35//35
f 112//112 156//156 38//38
f 115//115 157//157 41//41
f 73//73 75//75 43//43
f 76//76 78//78 45//45
f 79//79 81//81 47//47
f 82//82 84//84 49//49
f 85//85 87//87 51//51
f 88//88 90//90 53//53
f 91//91 93//93 54//54
f 94//94 96//96 55//55
f 97//97 99//99 56//56
f 100//100 102//102 57//57
f 103//103 105//105 58//58
f 106//106 108//108 60//60
f 109//109 111//111 62//62
f 112//112 114//114 64//64
f 115//115 117//117 66//66
f 88//88 119//119 68//68
f 91//91 121//121 69//69
f 94//94 123//123 70//70
f 97//97 125//125 71//71
f 100//100 127//127 72//72
f 130//130 74//74 46//46
f 132//132 77//77 48//48
f 134//134 80//80 50//50
f 136//136 83//83 52//52
f 128//128 86//86 44//44
f 158//158 89//89 42//42
f 159//159 92//92 30//30
f 160//160 95//95 33//33
f 161//161 98//98 36//36
f 162//162 101//101 39//39
f 145//145 104//104 61//61
f 147//147 107//107 63//63
f 149//149 110//110 65//65
f 151//151 113//113 67//67
f 143//143 116//116 59//59
f 159//159 118//118 12//12
f 160//160 120//120 15//15
f 161//161 122//122 18//18
f 162//162 124//124 21//21
f 158//158 126//126 9//9
f 130//130 129//129 74//74
f 132//132 131//131 77//77
f 134//134 133//133 80//80
f 136//136 135//135 83//83
f 128//128 137//137 86//86
f 158//158 138//138 89//89
f 159//159 139//139 92//92
f 160//160 140//140 95//95
f 161//161 141//141 98//98
f 162//162 142//142 101//101
f 145//145 144//144 104//104
f 147//147 146//146 107//107
f 149//149 148//148 110//110
f 151//151 150//150 113//113
f 143//143 152//152 116//116
f 159//159 153//153 118//118
f 160//160 154//154 120//120
f 161//161 155//155 122//122
f 162//162 156//156 124//124
f 158//158 157//157 126//126
f 130//130 3//3 129//129
f 132//132 4//4 131//131
f 134//134 5//5 133//133
f 136//136 6//6 135//135
f 128//128 2//2 137//137
f 158//158 9//9 138//138
f 159//159 12//12 139//139
f 160//160 15//15 140//140
f 161//161 18//18 141//141
f 162//162 21//21 142//142
f 145//145 24//24 144//144
f 147//147 25//25 146//146
f 149//149 26//26 148//148
f 151//151 27//27 150//150
f 143//143 23//23 152//152
f 159//159 30//30 153//153
f 160//160 33//33 154//154
f 161//161 36//36 155//155
f 162//162 39//39 156//156
f 158//158 42//42 157//157
f 128//128 44//44 75//75
f 130//130 46//46 78//78
f 132//132 48//48 81//81
f 134//134 50//50 84//84
f 136//136 52//52 87//87
f 76//76 45//45 90//90
f 73//73 43//43 93//93
f 85//85 51//51 96//96
f 82//82 49//49 99//99
f 79//79 47//47 102//102
f 143//143 59//59 105//105
f 145//145 61//61 108//108
f 147//147 63//63 111//111
f 149//149 65//65 114//114
f 151//151 67//67 117//117
f 103//103 58//58 119//119
f 106//106 60//60 121//121
f 109//109 62//62 123//123
f 112//112 64//64 125//125
f 115//115 66//66 127//127
f 73//73 11//11 74//74
f 76//76 8//8 77//77
f 79//79 20//20 80//80
f 82//82 17//17 83//83
f 85//85 14//14 86//86
f 88//88 68//68 89//89
f 91//91 69//69 92//92
f 94//94 70//70 95//95
f 97//97 71//71 98//98
f 100//100 72//72 101//101
f 103//103 29//29 104//104
f 106//106 32//32 107//107
f 109//109 35//35 110//110
f 112//112 38//38 113//113
f 115//115 41//41 116//116
f 88//88 53//53 118//118
f 91//91 54//54 120//120
f 94//94 55//55 122//122
f 97//97 56//56 124//124
f 100//100 57//57 126//126
f 128//128 75//75 129//129
f 130//130 78//78 131//131
f 132//132 81//81 133//133
f 134//134 84//84 135//135
f 136//136 87//87 137//137
f 76//76 90//90 138//138
f 73//73 93//93 139//139
f 85//85 96//96 140//140
f 82//82 99//99 141//141
f 79//79 102//102 142//142
f 143//143 105//105 144//144
f 145//145 108//108 146//146
f 147//147 111//111 148//148
f 149//149 114//114 150//150
f 151//151 117//117 152//152
f 103//103 119//119 153//153
f 106//106 121//121 154//154
f 109//109 123//123 155//155
f 112//112 125//125 156//156
f 115//115 127//127 157//157
f 129//129 3//3 2//2
f 131//131 4//4 3//3
f 133//133 5//5 4//4
f 135//135 6//6 5//5
f 137//137 2//2 6//6
f 138//138 9//9 8//8
f 139//139 12//12 11//11
f 140//140 15//15 14//14
f 141//141 18//18 17//17
f 142//142 21//21 20//20
f 144//144 24//24 23//23
f 146//146 25//25 24//24
f 148//148 26//26 25//25
f 150//150 27//27 26//26
f 152//152 23//23 27//27
f 153//153 30//30 29//29
f 154//154 33//33 32//32
f 155//155 36//36 35//35
f 156//156 39//39 38//38
f 157//157 42//42 41//41
f 75//75 44//44 43//43
f 78//78 46//46 45//45
f 81//81 48//48 47//47
f 84//84 50//50 49//49
f 87//87 52//52 51//51
f 90//90 45//45 53//53
f 93//93 43//43 54//54
f 96//96 51//51 55//55
f 99//99 49//49 56//56
f 102//102 47//47 57//57
f 105//105 59//59 58//58
f 108//108 61//61 60//60
f 111//111 63//63 62//62
f 114//114 65//65 64//64
f 117//117 67//67 66//66
f 119//119 58//58 68//68
f 121//121 60//60 69//69
f 123//123 62//62 70//70
f 125//125 64//64 71//71
f 127//127 66//66 72//72
f 74//74 11//11 46//46
f 77//77 8//8 48//48
f 80//80 20//20 50//50
f 83//83 17//17 52//52
f 86//86 14//14 44//44
f 89//89 68//68 42//42
f 92//92 69//69 30//30
f 95//95 70//70 33//33
f 98//98 71//71 36//36
f 101//101 72//72 39//39
f 104//104 29//29 61//61
f 107//107 32//32 63//63
f 110//110 35//35 65//65
f 113//113 38//38 67//67
f 116//116 41//41 59//59
f 118//118 53//53 12//12
f 120//120 54//54 15//15
f 122//122 55//55 18//18
f 124//124 56//56 21//21
f 126//126 57//57 9//9
f 129//129 75//75 74//74
f 131//131 78//78 77//77
f 133//133 81//81 80//80
f 135//135 84//84 83//83
f 137//137 87//87 86//86
f 138//138 90//90 89//89
f 139//139 93//93 92//92
f 140//140 96//96 95//95
f 141//141 99//99 98//98
f 142//142 102//102 101//101
f 144//144 105//105 104//104
f 146//146 108//108 107//107
f 148//148 111//111 110//110
f 150//150 114//114 113//113
f 152//152 117//117 116//116
f 153//153 119//119 118//118
f 154//154 121//121 120//120
f 155//155 123//123 122//122
f 156//156 125//125 124//124
f 157//157 127//127 126//126
