# Created by Open3D 
# object name: part_018
# number of vertices: 162
# number of triangles: 320
v -1.26014 3.59908 0.189915
vn -0.500193 -0.861386 -0.0884393
v -1.24104 3.59027 0.179669
vn -0.423587 -0.875341 -0.233134
v -1.24267 3.58878 0.199388
vn -0.423238 -0.905334 -0.0352029
v -1.26214 3.59915 0.2163
vn -0.508798 -0.860761 0.0146841
v -1.2727 3.60649 0.196777
vn -0.613665 -0.787856 -0.0519427
v -1.26966 3.60714 0.17718
vn -0.538322 -0.80632 -0.245067
v -1.30454 3.64642 1.02146
vn -0.511957 -0.848846 0.131758
v -1.28623 3.63522 1.01512
vn -0.430043 -0.898077 0.092308
v -1.28669 3.63894 1.03461
vn -0.451227 -0.845874 0.284415
v -1.2595 3.61607 0.607289
vn 0.825893 -0.558693 0.0759114
v -1.23764 3.59593 0.219747
vn 0.840225 -0.537073 0.0746639
v -1.25547 3.6224 0.607144
vn 0.856977 -0.509898 0.0747933
v -1.17667 3.69363 0.168362
vn 0.859465 -0.509654 -0.039655
v -1.1774 3.69392 0.162877
vn 0.415475 -0.267903 -0.869257
v -1.12072 3.78877 0.165318
vn 0.858943 -0.497601 -0.120873
v -1.20889 3.71262 0.16556
vn -0.847303 0.496688 -0.188095
v -1.26337 3.62283 0.17611
vn -0.856464 0.501672 -0.121635
v -1.15621 3.8039 0.171524
vn -0.854606 0.504811 -0.121718
v -1.28872 3.63111 0.518463
vn -0.888829 0.452351 -0.0732181
v -1.31441 3.65397 0.973736
vn -0.924932 0.373592 -0.0702105
v -1.31288 3.66001 0.991793
vn -0.876667 0.475489 -0.0732398
v -1.17794 3.86033 1.01605
vn 0.500193 0.861386 0.0884396
v -1.1625 3.84879 1.0293
vn 0.530214 0.812471 0.242414
v -1.15946 3.84944 1.0097
vn 0.581887 0.811792 0.0489977
v -1.17557 3.86005 0.989694
vn 0.508798 0.860761 -0.0146841
v -1.18949 3.86714 1.00709
vn 0.38691 0.921554 0.032224
v -1.19112 3.86566 1.02681
vn 0.414034 0.879601 0.234262
v -1.13885 3.81993 0.602126
vn 0.88883 -0.452349 0.073218
v -1.16067 3.84003 0.989673
vn 0.876679 -0.475247 0.0746547
v -1.14246 3.81335 0.602308
vn 0.861022 -0.503064 0.0746202
v -1.13354 3.81299 0.184497
vn 0.511953 0.848849 -0.131756
v -1.1159 3.803 0.193963
vn 0.588698 0.804531 -0.0785083
v -1.11685 3.80011 0.174354
vn 0.557854 0.783006 -0.275138
v -1.16807 3.83497 0.5133
vn -0.825894 0.558691 -0.0759113
v -1.15092 3.82151 0.229855
vn -0.77278 0.629904 -0.0776639
v -1.15314 3.81588 0.211738
vn -0.839981 0.537206 -0.0764297
v -1.25549 3.7623 1.03811
vn -0.859465 0.509654 0.039655
v -1.20192 3.85263 1.02748
vn -0.859631 0.510169 -0.0276138
v -1.30908 3.67156 1.03207
vn -0.861489 0.507029 -0.0275339
v -1.22327 3.7433 1.04092
vn 0.847303 -0.496688 0.188092
v -1.22458 3.74421 1.04622
vn 0.319222 -0.165288 0.933154
v -1.27983 3.64852 1.04391
vn 0.826141 -0.495956 0.26743
v -1.23024 3.6033 0.178991
vn 0.859631 -0.510169 0.0276138
v -1.23317 3.59878 0.17013
vn 0.84685 -0.518033 -0.120358
v -1.28124 3.63441 0.97662
vn 0.77353 -0.62899 0.077607
v -1.2418 3.59236 0.238048
vn 0.773581 -0.629047 0.0766333
v -1.31626 3.65293 1.01251
vn -0.620466 -0.780606 0.0753357
v -1.30373 3.64349 0.995179
vn -0.509557 -0.859951 0.0288965
v -1.27149 3.61589 0.216803
vn -0.876798 0.474996 -0.0748544
v -1.27496 3.61192 0.235164
vn -0.9257 0.371513 -0.0711198
v -1.20758 3.71172 0.160253
vn -0.438994 0.237862 -0.866433
v -1.26478 3.61741 0.167381
vn -0.838235 0.475523 -0.266908
v -1.27902 3.64005 0.994738
vn 0.840141 -0.536985 0.0762183
v -1.12308 3.78436 0.174405
vn 0.861489 -0.507029 0.0275339
v -1.15233 3.80741 0.162569
vn -0.826142 0.495955 -0.267431
v -1.28505 3.63763 0.517219
vn -0.861021 0.503064 -0.0746202
v -1.31531 3.65581 1.03212
vn -0.566159 -0.776642 0.27621
v -1.16879 3.8331 1.03037
vn 0.856464 -0.501672 0.121635
v -1.16739 3.83851 1.03909
vn 0.838235 -0.475523 0.266908
v -1.11776 3.80196 0.23274
vn 0.925312 -0.372664 0.0701399
v -1.1572 3.84401 0.971312
vn 0.925259 -0.37261 0.0711135
v -1.14593 3.8207 0.191351
vn 0.393701 0.91431 -0.0950567
v -1.13397 3.81571 0.210815
vn 0.509557 0.859952 -0.0288968
v -1.19452 3.86 0.986728
vn -0.840314 0.536915 -0.0747954
v -1.19036 3.86356 0.968427
vn -0.774211 0.628268 -0.0766608
v -1.25476 3.76201 1.0436
vn -0.527046 0.331733 0.782417
v -1.19899 3.85715 1.03635
vn -0.846851 0.518033 0.120358
v -1.27595 3.65203 1.03495
vn 0.854606 -0.504811 0.121716
v -1.11928 3.79591 0.214682
vn 0.876762 -0.475336 0.0731005
v -1.14547 3.81699 0.171865
vn 0.441875 0.849924 -0.287013
v -1.17205 3.82858 0.512383
vn -0.856977 0.509899 -0.0747933
v -1.31144 3.66716 1.04116
vn -0.858943 0.497601 0.120873
v -1.23437 3.59784 0.19345
vn 0.856554 -0.51266 0.0591127
v -1.23879 3.59196 0.200228
vn 0.793264 -0.606112 0.0579738
v -1.23604 3.59425 0.180055
vn 0.812598 -0.582569 0.0172443
v -1.28409 3.63454 1.00158
vn 0.57321 -0.815331 0.0816366
v -1.2848 3.63199 0.97699
vn -0.427307 -0.903607 0.0300717
v -1.26327 3.61151 0.607348
vn 0.565753 -0.820976 0.0769515
v -1.31615 3.65344 0.998797
vn -0.99278 0.106512 -0.055159
v -1.29112 3.62585 0.522694
vn -0.993425 0.098321 -0.0586483
v -1.31486 3.64972 0.974376
vn -0.627196 -0.778764 0.0123306
v -1.26801 3.61767 0.190524
vn -0.861211 0.500164 -0.0902833
v -1.26862 3.61346 0.177221
vn -0.895759 0.424698 -0.131332
v -1.27189 3.61147 0.19735
vn -0.912269 0.3995 -0.0903584
v -1.19556 3.70458 0.159574
vn 0.0532406 -0.056759 -0.996967
v -1.23448 3.5993 0.165722
vn 0.113462 -0.163311 -0.980028
v -1.26313 3.61619 0.163231
vn -0.0837368 -0.0465625 -0.995399
v -1.27856 3.64494 1.02085
vn 0.854875 -0.510871 0.0905524
v -1.28166 3.64288 1.03431
vn 0.806297 -0.575863 0.13516
v -1.28227 3.63831 1.01435
vn 0.791256 -0.603976 0.0955361
v -1.11997 3.79115 0.188554
vn 0.862889 -0.501955 0.0588424
v -1.12463 3.78643 0.214492
vn 0.859465 -0.505824 0.0739033
v -1.17697 3.69433 0.188928
vn 0.859723 -0.507299 0.0593659
v -1.14815 3.81368 0.165249
vn -0.117599 0.808653 -0.576412
v -1.13556 3.80689 0.164111
vn 0.425749 0.625651 -0.653681
v -1.15056 3.8064 0.158413
vn -0.0216074 0.0584186 -0.998058
v -1.2286 3.73312 0.514457
vn -0.859006 0.506485 -0.0747073
v -1.15882 3.80659 0.211519
vn -0.858533 0.507136 -0.0757205
v -1.2661 3.62532 0.21611
vn -0.859371 0.50572 -0.0756846
v -1.31456 3.66026 1.03857
vn -0.833576 -0.247826 0.493693
v -1.31424 3.66209 1.03148
vn -0.902054 0.431415 -0.0134135
v -1.31628 3.65649 1.02496
vn -0.984345 0.175782 0.0128934
v -1.16415 3.83825 1.01595
vn 0.861211 -0.500164 0.0902833
v -1.16027 3.84445 1.00913
vn 0.912269 -0.3995 0.0903584
v -1.16354 3.84247 1.02925
vn 0.895759 -0.424698 0.131332
v -1.11601 3.80249 0.207679
vn 0.99266 -0.107938 0.0545472
v -1.1173 3.80621 0.2321
vn 0.58683 0.809548 -0.0161982
v -1.13667 3.82542 0.60193
vn 0.993425 -0.098321 0.0586483
v -1.14807 3.82139 0.204891
vn -0.574774 0.81413 -0.0826304
v -1.16452 3.83976 0.517276
vn -0.565753 0.820976 -0.0769515
v -1.14736 3.82393 0.229485
vn 0.396289 0.917547 -0.0325823
v -1.19779 3.85809 1.01303
vn -0.856554 0.51266 -0.0591127
v -1.19612 3.86168 1.02642
vn -0.8126 0.582567 -0.0172462
v -1.19337 3.86397 1.00625
vn -0.793264 0.606111 -0.0579738
v -1.24291 3.75507 1.04635
vn -0.0532405 0.056759 0.996967
v -1.16903 3.83974 1.04324
vn 0.0703026 0.0549598 0.996011
v -1.19768 3.85663 1.04075
vn -0.127083 0.170866 0.977064
v -1.27334 3.64933 0.994956
vn 0.858546 -0.507146 0.0755114
v -1.22138 3.74167 1.02049
vn 0.858086 -0.505552 0.0900335
v -1.11792 3.79383 0.175
vn 0.902054 -0.431415 0.0134135
v -1.11679 3.79811 0.195007
vn 0.914276 -0.401637 0.052795
v -1.1505 3.81305 0.172166
vn -0.8063 0.575856 -0.135163
v -1.14743 3.81804 0.178772
vn -0.619605 0.769978 -0.152391
v -1.30753 3.66949 0.991983
vn -0.859457 0.505818 -0.0740397
v -1.20025 3.85076 0.987392
vn -0.858623 0.507226 -0.0740753
v -1.30281 3.6527 1.04182
vn -0.425747 -0.625652 0.653682
v -1.31025 3.66642 1.04557
vn -0.189212 0.0658841 0.979723
v -1.23765 3.59282 0.173044
vn 0.0376464 -0.851943 -0.52228
v -1.23983 3.59001 0.186819
vn 0.627653 -0.77849 0.00237315
v -1.24198 3.58965 0.213069
vn 0.573718 -0.81584 0.0724766
v -1.24531 3.5899 0.237578
vn -0.427155 -0.903769 0.0271947
v -1.28357 3.62112 0.605716
vn -0.509191 -0.860378 0.0217906
v -1.27538 3.60762 0.234964
vn -0.613869 -0.789336 0.0106488
v -1.27404 3.60855 0.210281
vn -0.991894 0.109315 -0.0647793
v -1.27137 3.60861 0.184076
vn -0.976331 0.167253 -0.137127
v -1.2682 3.61084 0.170387
vn -0.777944 -0.307129 -0.548156
v -1.25621 3.60303 0.169275
vn -0.35772 -0.698172 -0.620155
v -1.28473 3.63789 1.0277
vn 0.619646 -0.769946 0.152389
v -1.23191 3.60516 0.219083
vn 0.85863 -0.507235 0.0739389
v -1.12191 3.78951 0.160905
vn 0.17597 -0.0576914 -0.982704
v -1.21078 3.71426 0.185988
vn -0.858086 0.505552 -0.0900335
v -1.31537 3.65782 1.01147
vn -0.914276 0.401637 -0.052795
v -1.16396 3.84509 1.03609
vn 0.692187 0.421613 0.585764
v -1.16079 3.84731 1.0224
vn 0.976331 -0.167253 0.137127
v -1.15812 3.84738 0.996194
vn 0.992174 -0.107393 0.0637061
v -1.15678 3.8483 0.971512
vn 0.586675 0.809713 -0.0133212
v -1.15491 3.83852 0.60021
vn 0.509191 0.860378 -0.0217907
v -1.18685 3.86603 0.968897
vn 0.380651 0.924206 -0.0308007
v -1.19018 3.86628 0.993406
vn -0.572539 0.816608 -0.0731443
v -1.19233 3.86591 1.01966
vn -0.627653 0.778489 -0.00237453
v -1.19452 3.86311 1.03343
vn -0.173234 0.867967 0.465428
v -1.18216 3.85656 1.03666
vn 0.357719 0.698171 0.620157
v -1.16606 3.83061 0.990365
vn 0.859381 -0.505734 0.0754757
v -1.11588 3.79944 0.181515
vn 0.984345 -0.175782 -0.0128934
v -1.14989 3.81762 0.192129
vn -0.791255 0.603977 -0.0955343
v -1.25519 3.7616 1.01755
vn -0.859723 0.507299 -0.0593658
v -1.2816 3.64953 1.04806
vn 0.00779392 -0.0506592 0.998686
v -1.28401 3.64225 1.04123
vn -0.0231645 -0.787116 0.61637
v -1.1989 3.71783 0.604732
vn 0.859006 -0.506485 0.0747073
v -1.1176 3.79566 0.167906
vn 0.752995 0.356792 -0.552899
v -1.15361 3.81098 0.185628
vn -0.854876 0.51087 -0.090552
v -1.3122 3.66478 1.01792
vn -0.862889 0.501955 -0.0588424
f 1//1 2//2 3//3
f 1//1 3//3 4//4
f 1//1 4//4 5//5
f 1//1 5//5 6//6
f 1//1 6//6 2//2
f 7//7 8//8 9//9
f 10//10 11//11 12//12
f 13//13 14//14 15//15
f 16//16 17//17 18//18
f 19//19 20//20 21//21
f 22//22 23//23 24//24
f 22//22 24//24 25//25
f 22//22 25//25 26//26
f 22//22 26//26 27//27
f 22//22 27//27 23//23
f 28//28 29//29 30//30
f 31//31 32//32 33//33
f 34//34 35//35 36//36
f 37//37 38//38 39//39
f 40//40 41//41 42//42
f 13//13 43//43 44//44
f 10//10 45//45 46//46
f 7//7 47//47 48//48
f 19//19 49//49 50//50
f 16//16 51//51 52//52
f 10//10 53//53 45//45
f 13//13 54//54 43//43
f 16//16 55//55 51//51
f 19//19 56//56 49//49
f 7//7 57//57 47//47
f 40//40 58//58 59//59
f 28//28 60//60 61//61
f 31//31 62//62 63//63
f 34//34 64//64 65//65
f 37//37 66//66 67//67
f 40//40 68//68 58//58
f 28//28 69//69 60//60
f 31//31 70//70 62//62
f 34//34 71//71 64//64
f 37//37 72//72 66//66
f 10//10 46//46 11//11
f 7//7 48//48 8//8
f 19//19 50//50 20//20
f 16//16 52//52 17//17
f 13//13 44//44 14//14
f 40//40 42//42 68//68
f 28//28 30//30 69//69
f 31//31 33//33 70//70
f 34//34 36//36 71//71
f 37//37 39//39 72//72
f 28//28 61//61 29//29
f 31//31 63//63 32//32
f 34//34 65//65 35//35
f 37//37 67//67 38//38
f 40//40 59//59 41//41
f 10//10 12//12 53//53
f 13//13 15//15 54//54
f 16//16 18//18 55//55
f 19//19 21//21 56//56
f 7//7 9//9 57//57
f 73//73 74//74 75//75
f 76//76 77//77 78//78
f 79//79 80//80 81//81
f 82//82 83//83 84//84
f 85//85 86//86 87//87
f 88//88 89//89 90//90
f 91//91 92//92 93//93
f 94//94 95//95 96//96
f 97//97 98//98 99//99
f 100//100 101//101 102//102
f 103//103 104//104 105//105
f 106//106 107//107 108//108
f 109//109 110//110 111//111
f 112//112 113//113 114//114
f 115//115 116//116 117//117
f 88//88 118//118 119//119
f 91//91 120//120 121//121
f 94//94 122//122 123//123
f 97//97 124//124 125//125
f 100//100 126//126 127//127
f 128//128 129//129 2//2
f 130//130 131//131 3//3
f 132//132 133//133 4//4
f 134//134 135//135 5//5
f 136//136 137//137 6//6
f 76//76 138//138 8//8
f 73//73 139//139 11//11
f 85//85 140//140 14//14
f 82//82 141//141 17//17
f 79//79 142//142 20//20
f 143//143 144//144 23//23
f 145//145 146//146 24//24
f 147//147 148//148 25//25
f 149//149 150//150 26//26
f 151//151 152//152 27//27
f 103//103 153//153 29//29
f 106//106 154//154 32//32
f 109//109 155//155 35//35
f 112//112 156//156 38//38
f 115//115 157//157 41//41
f 73//73 75//75 43//43
f 76//76 78//78 45//45
f 79//79 81//81 47//47
f 82//82 84//84 49//49
f 85//85 87//87 51//51
f 88//88 90//90 53//53
f 91//91 93//93 54//54
f 94//94 96//96 55//55
f 97//97 99//99 56//56
f 100//100 102//102 57//57
f 103//103 105//105 58//58
f 106//106 108//108 60//60
f 109//109 111//111 62//62
f 112//112 114//114 64//64
f 115//115 117//117 66//66
f 88//88 119//119 68//68
f 91//91 121//121 69//69
f 94//94 123//123 70//70
f 97//97 125//125 71//71
f 100//100 127//127 72//72
f 130//130 74//74 46//46
f 132//132 77//77 48//48
f 134//134 80//80 50//50
f 136//136 83//83 52//52
f 128//128 86//86 44//44
f 158//158 89//89 42//42
f 159//159 92//92 30//30
f 160//160 95//95 33//33
f 161//161 98//98 36//36
f 162//162 101//101 39//39
f 145//145 104//104 61//61
f 147//147 107//107 63//63
f 149//149 110//110 65//65
f 151//151 113//113 67//67
f 143//143 116//116 59//59
f 159//159 118//118 12//12
f 160//160 120//120 15//15
f 161//161 122//122 18//18
f 162//162 124//124 21//21
f 158//158 126//126 9//9
f 130//130 129//129 74//74
f 132//132 131//131 77//77
f 134//134 133//133 80//80
f 136//136 135//135 83//83
f 128//128 137//137 86//86
f 158//158 138//138 89//89
f 159//159 139//139 92//92
f 160//160 140//140 95//95
f 161//161 141//141 98//98
f 162//162 142//142 101//101
f 145//145 144//144 104//104
f 147//147 146//146 107//107
f 149//149 148//148 110//110
f 151//151 150//150 113//113
f 143//143 152//152 116//116
f 159//159 153//153 118//118
f 160//160 154//154 120//120
f 161//161 155//155 122//122
f 162//162 156//156 124//124
f 158//158 157//157 126//126
f 130//130 3//3 129//129
f 132//132 4//4 131//131
f 134//134 5//5 133//133
f 136//136 6//6 135//135
f 128//128 2//2 137//137
f 158//158 9//9 138//138
f 159//159 12//12 139//139
f 160//160 15//15 140//140
f 161//161 18//18 141//141
f 162//162 21//21 142//142
f 145//145 24//24 144//144
f 147//147 25//25 146//146
f 149//149 26//26 148//148
f 151//151 27//27 150//150
f 143//143 23//23 152//152
f 159//159 30//30 153//153
f 160//160 33//33 154//154
f 161//161 36//36 155//155
f 162//162 39//39 156//156
f 158//158 42//42 157//157
f 128//128 44//44 75//75
f 130//130 46//46 78//78
f 132//132 48//48 81//81
f 134//134 50//50 84//84
f 136//136 52//52 87//87
f 76//76 45//45 90//90
f 73//73 43//43 93//93
f 85//85 51//51 96//96
f 82//82 49//49 99//99
f 79//79 47//47 102//102
f 143//143 59//59 105//105
f 145//145 61//61 108//108
f 147//147 63//63 111//111
f 149//149 65//65 114//114
f 151//151 67//67 117//117
f 103//103 58//58 119//119
f 106//106 60//60 121//121
f 109//109 62//62 123//123
f 112//112 64//64 125//125
f 115//115 66//66 127//127
f 73//73 11//11 74//74
f 76//76 8//8 77//77
f 79//79 20//20 80//80
f 82//82 17//17 83//83
f 85//85 14//14 86//86
f 88//88 68//68 89//89
f 91//91 69//69 92//92
f 94//94 70//70 95//95
f 97//97 71//71 98//98
f 100//100 72//72 101//101
f 103//103 29//29 104//104
f 106//106 32//32 107//107
f 109//109 35//35 110//110
f 112//112 38//38 113//113
f 115//115 41//41 116//116
f 88//88 53//53 118//118
f 91//91 54//54 120//120
f 94//94 55//55 122//122
f 97//97 56//56 124//124
f 100//100 57//57 126//126
f 128//128 75//75 129//129
f 130//130 78//78 131//131
f 132//132 81//81 133//133
f 134//134 84//84 135//135
f 136//136 87//87 137//137
f 76//76 90//90 138//138
f 73//73 93//93 139//139
f 85//85 96//96 140//140
f 82//82 99//99 141//141
f 79//79 102//102 142//142
f 143//143 105//105 144//144
f 145//145 108//108 146//146
f 147//147 111//111 148//148
f 149//149 114//114 150//150
f 151//151 117//117 152//152
f 103//103 119//119 153//153
f 106//106 121//121 154//154
f 109//109 123//123 155//155
f 112//112 125//125 156//156
f 115//115 127//127 157//157
f 129//129 3//3 2//2
f 131//131 4//4 3//3
f 133//133 5//5 4//4
f 135//135 6//6 5//5
f 137//137 2//2 6//6
f 138//138 9//9 8//8
f 139//139 12//12 11//11
f 140//140 15//15 14//14
f 141//141 18//18 17//17
f 142//142 21//21 20//20
f 144//144 24//24 23//23
f 146//146 25//25 24//24
f 148//148 26//26 25//25
f 150//150 27//27 26//26
f 152//152 23//23 27//27
f 153//153 30//30 29//29
f 154//154 33//33 32//32
f 155//155 36//36 35//35
f 156//156 39//39 38//38
f 157//157 42//42 41//41
f 75//75 44//44 43//43
f 78//78 46//46 45//45
f 81//81 48//48 47//47
f 84//84 50//50 49//49
f 87//87 52//52 51//51
f 90//90 45//45 53//53
f 93//93 43//43 54//54
f 96//96 51//51 55//55
f 99//99 49//49 56//56
f 102//102 47//47 57//57
f 105//105 59//59 58//58
f 108//108 61//61 60//60
f 111//111 63//63 62//62
f 114//114 65//65 64//64
f 117//117 67//67 66//66
f 119//119 58//58 68//68
f 121//121 60//60 69//69
f 123//123 62//62 70//70
f 125//125 64//64 71//71
f 127//127 66//66 72//72
f 74//74 11//11 46//46
f 77//77 8//8 48//48
f 80//80 20//20 50//50
f 83//83 17//17 52//52
f 86//86 14//14 44//44
f 89//89 68//68 42//42
f 92//92 69//69 30//30
f 95//95 70//70 33//33
f 98//98 71//71 36//36
f 101//101 72//72 39//39
f 104//104 29//29 61//61
f 107//107 32//32 63//63
f 110//110 35//35 65//65
f 113//113 38//38 67//67
f 116//116 41//41 59//59
f 118//118 53//53 12//12
f 120//120 54//54 15//15
f 122//122 55//55 18//18
f 124//124 56//56 21//21
f 126//126 57//57 9//9
f 129//129 75//75 74//74
f 131//131 78//78 77//77
f 133//133 81//81 80//80
f 135//135 84//84 83//83
f 137//137 87//87 86//86
f 138//138 90//90 89//89
f 139//139 93//93 92//92
f 140//140 96//96 95//95
f 141//141 99//99 98//98
f 142//142 102//102 101//101
f 144//144 105//105 104//104
f 146//146 108//108 107//107
f 148//148 111//111 110//110
f 150//150 114//114 113//113
f 152//152 117//117 116//116
f 153//153 119//119 118//118
f 154//154 121//121 120//120
f 155//155 123//123 122//122
f 156//156 125//125 124//124
f 157//157 127//127 126//126
