# https://github.com/mikedh/trimesh

o boxtiny_f1000.ply
v 0.08566970 -0.03188417 0.12031101 0.58039216 0.72156863 0.36862745
v 0.09487287 -0.02918211 0.12229242 0.70588235 0.81568627 0.34509804
v 0.09537793 -0.02722149 0.11753489 0.72549020 0.82745098 0.33725490
v 0.04957312 -0.02426306 0.10399607 0.74117647 0.82745098 0.46666667
v 0.08672490 -0.02490306 0.11634397 0.64705882 0.76078431 0.33725490
v 0.10193283 -0.02414763 0.11349282 0.72549020 0.83921569 0.41176471
v 0.08178718 -0.02006774 0.12685824 0.61176471 0.74117647 0.32156863
v 0.09903557 -0.02285606 0.11718839 0.79215686 0.85882353 0.26274510
v 0.06483946 -0.02203867 0.01034514 0.68627451 0.80392157 0.39215686
v 0.01625451 -0.02236976 0.01895998 0.69803922 0.86274510 0.54901961
v 0.05670481 -0.02471307 0.02492975 0.72156863 0.85098039 0.49803922
v 0.01700106 -0.02374167 0.03028925 0.66274510 0.85882353 0.55686275
v 0.07230965 -0.02429721 0.06373969 0.67450980 0.80000000 0.38039216
v 0.06205460 -0.02321436 0.05837168 0.73333333 0.89019608 0.57254902
v 0.04448412 -0.02320633 0.09714395 0.79607843 0.90588235 0.60000000
v 0.02827892 -0.02197484 0.02707400 0.70196078 0.86274510 0.54509804
v 0.06585322 -0.02288744 0.02268679 0.67058824 0.78823529 0.38823529
v 0.08207325 -0.02301687 0.07551948 0.67843137 0.78039216 0.36078431
v 0.08345751 -0.02306764 0.08718198 0.70980392 0.81960784 0.37254902
v 0.09122533 -0.02284777 0.10312934 0.69411765 0.81960784 0.41960784
v 0.05054265 -0.02223888 0.00967172 0.71764706 0.84313725 0.49019608
v 0.06065325 -0.02311266 0.03366497 0.72941176 0.87058824 0.52156863
v 0.06985220 -0.02119612 0.07055212 0.68627451 0.86274510 0.53333333
v 0.06964683 -0.02100361 0.04815001 0.70196078 0.82745098 0.41960784
v 0.06807386 -0.01813029 0.03560684 0.69019608 0.82745098 0.45098039
v 0.07178981 -0.01559380 0.02535239 0.69803922 0.80392157 0.36078431
v 0.05716545 -0.02302161 0.04454835 0.75686275 0.90588235 0.58431373
v 0.04834777 -0.02240511 0.04504834 0.75294118 0.90588235 0.60392157
v 0.03131986 -0.02197078 0.01343494 0.70588235 0.85882353 0.51764706
v 0.04978810 -0.02296013 0.01929089 0.72549020 0.86274510 0.52941176
v 0.09811669 -0.01922569 0.09839450 0.76470588 0.85098039 0.39215686
v 0.08372907 -0.02133426 0.10920114 0.67843137 0.80000000 0.38823529
v 0.06103402 -0.02177269 -0.00483357 0.64705882 0.76078431 0.33725490
v 0.09043531 -0.01915410 0.07665465 0.74901961 0.83529412 0.37647059
v 0.04019588 -0.02105943 0.10572263 0.74117647 0.65490196 0.35294118
v 0.07650974 -0.02024407 0.09756856 0.64313725 0.81176471 0.49411765
v 0.06858238 -0.01714768 -0.00587150 0.71764706 0.80392157 0.36862745
v 0.07807488 -0.02088884 0.04027574 0.70196078 0.79607843 0.34901961
v 0.04119092 -0.01621388 0.09749412 0.74901961 0.89019608 0.55294118
v 0.06305235 -0.01960937 -0.01364186 0.71764706 0.82352941 0.40784314
v 0.10620205 -0.01772756 0.12270435 0.83529412 0.90980392 0.23921569
v 0.06156270 -0.01910116 0.00069433 0.65490196 0.78431373 0.37254902
v 0.07406790 -0.02183143 0.10482184 0.72156863 0.79607843 0.33725490
v 0.07539849 -0.02034521 0.06309449 0.71372549 0.83921569 0.40392157
v 0.07517091 -0.01924762 0.12391908 0.55294118 0.66666667 0.27450980
v 0.05014730 -0.01482329 0.03500999 0.70196078 0.85490196 0.52941176
v 0.07081555 -0.01807231 0.11075433 0.74901961 0.83529412 0.41568627
v 0.03657109 -0.02030574 0.12334634 0.80000000 0.89803922 0.45098039
v 0.05569120 -0.01747504 -0.00777190 0.69411765 0.84313725 0.43137255
v 0.07571020 -0.01959502 0.08385049 0.66274510 0.81960784 0.47450980
v 0.05511024 -0.01769995 0.05208346 0.78039216 0.92549020 0.62352941
v 0.00854915 -0.01636514 0.02386433 0.67450980 0.85882353 0.56862745
v 0.02926035 -0.01890655 0.00650447 0.70588235 0.86666667 0.52941176
v 0.05073900 -0.02012855 0.05694049 0.74117647 0.89411765 0.58431373
v 0.06455430 -0.01709727 0.06642303 0.69019608 0.88235294 0.57254902
v 0.04975519 -0.01849589 -0.00643461 0.71372549 0.84705882 0.49411765
v 0.03398086 -0.01686254 0.13748412 0.59215686 0.72156863 0.29803922
v -0.01105843 -0.01940155 0.01271789 0.70196078 0.85490196 0.52941176
v 0.04983018 -0.01737640 0.10742827 0.69411765 0.70980392 0.43529412
v 0.03891776 -0.01930115 0.11563048 0.77254902 0.78431373 0.43529412
v 0.05682106 -0.01464860 0.06734725 0.75686275 0.90196078 0.60000000
v 0.06306163 -0.02015111 0.13025654 0.69411765 0.81176471 0.39607843
v 0.07169096 -0.01965197 0.01480311 0.67843137 0.78823529 0.34509804
v 0.07805703 -0.01743269 0.02818632 0.71764706 0.80784314 0.38431373
v 0.06436895 -0.01852219 0.08255286 0.69803922 0.85490196 0.54901961
v 0.02551947 -0.01805726 -0.07884225 0.76470588 0.90196078 0.62352941
v -0.00910658 -0.01830057 0.01818050 0.70980392 0.86274510 0.54117647
v 0.06315438 -0.01934063 -0.02815714 0.69803922 0.79215686 0.35686275
v 0.04585423 -0.01739183 0.00238270 0.74117647 0.87450980 0.55294118
v 0.05092488 -0.01747255 0.09945613 0.76470588 0.88235294 0.61176471
v 0.03328972 -0.01673308 -0.11101434 0.73333333 0.85490196 0.49803922
v 0.06412790 -0.01825294 0.11335516 0.77647059 0.89411765 0.53725490
v 0.07901875 -0.01893419 0.04981164 0.67450980 0.77254902 0.32156863
v 0.05658522 -0.01824147 -0.04598249 0.64313725 0.72549020 0.31372549
v 0.03282004 -0.01842991 -0.12859394 0.73333333 0.83529412 0.46666667
v 0.04605264 -0.01832538 -0.01450241 0.71372549 0.82745098 0.46274510
v 0.00990199 -0.01887541 0.07092615 0.72549020 0.88627451 0.58431373
v 0.05978228 -0.01634007 0.05737422 0.76078431 0.90980392 0.59215686
v 0.04406234 -0.01673627 0.04392812 0.73333333 0.89411765 0.58823529
v 0.07346914 -0.01718524 0.03774396 0.67058824 0.79215686 0.34901961
v 0.02520275 -0.01864064 0.00019764 0.72941176 0.88627451 0.57254902
v 0.04843972 -0.01643202 0.03258804 0.72549020 0.86666667 0.54901961
v 0.02441520 -0.01633223 0.01448777 0.69803922 0.85882353 0.51372549
v 0.03859792 -0.01772827 0.05133261 0.74901961 0.89411765 0.58431373
v 0.00247086 -0.01680994 0.01384105 0.71372549 0.86666667 0.57647059
v 0.03489325 -0.01795456 -0.09478267 0.68627451 0.78431373 0.44313725
v 0.04175558 -0.01396752 0.12166745 0.67843137 0.79215686 0.36078431
v 0.04209704 -0.01638434 0.11973325 0.77647059 0.88235294 0.45882353
v 0.05223174 -0.01736532 0.08742709 0.73725490 0.87450980 0.56862745
v 0.03499564 -0.01192932 0.10382689 0.73333333 0.87058824 0.52549020
v 0.05685111 -0.01570085 -0.01793170 0.67058824 0.80392157 0.41960784
v 0.05379117 -0.01796142 0.13231156 0.63921569 0.75686275 0.31372549
v 0.06501801 -0.01589790 0.09133999 0.69803922 0.86274510 0.54509804
v 0.07740536 -0.01623893 0.11276677 0.73333333 0.83921569 0.42352941
v 0.09282009 -0.01600351 0.06265234 0.76470588 0.85490196 0.39607843
v 0.08504480 -0.01581396 0.03009914 0.75686275 0.84705882 0.40392157
v 0.06728765 -0.01590455 -0.02895879 0.71764706 0.79607843 0.36470588
v 0.07100270 -0.01770488 0.00285265 0.76470588 0.85098039 0.39215686
v 0.05397546 -0.01642201 -0.05559373 0.63921569 0.73725490 0.32941176
v 0.05089111 -0.01739091 -0.07201267 0.73333333 0.81568627 0.36078431
v 0.03275595 -0.01510606 -0.08432616 0.76470588 0.89019608 0.56470588
v 0.04168544 -0.01430509 0.10930458 0.72156863 0.73725490 0.43529412
v 0.10373266 -0.01086834 0.09930702 0.79215686 0.87450980 0.45882353
v 0.01969285 -0.01759884 0.14121016 0.58431373 0.68235294 0.30980392
v -0.00482797 -0.01400104 0.00589884 0.74901961 0.89803922 0.60392157
v 0.06159713 -0.01685465 0.07429222 0.77254902 0.90588235 0.60000000
v 0.02211811 -0.01528998 -0.09732884 0.70196078 0.84313725 0.47843137
v -0.00415289 -0.01445686 0.01858400 0.65098039 0.83529412 0.53333333
v 0.04483402 -0.01640779 0.06753073 0.71764706 0.86274510 0.55686275
v 0.04593546 -0.01582381 -0.02748121 0.74901961 0.89411765 0.56470588
v 0.04771415 -0.01620289 -0.06620834 0.70588235 0.83137255 0.43921569
v 0.04079948 -0.01350072 -0.09862977 0.63529412 0.74901961 0.39215686
v 0.07518766 -0.01614276 -0.00583741 0.77254902 0.85882353 0.41176471
v 0.02741531 -0.01316700 -0.10291796 0.63529412 0.79215686 0.42745098
v 0.04013215 -0.01126048 -0.14250282 0.70980392 0.83529412 0.46666667
v 0.03748460 -0.01433498 -0.02917048 0.75294118 0.89803922 0.57254902
v 0.05561331 -0.01590409 -0.03388752 0.64705882 0.77647059 0.38039216
v 0.05689720 -0.01351485 0.11310003 0.78039216 0.89019608 0.55686275
v 0.04026495 -0.01384975 -0.11981111 0.74509804 0.83529412 0.40784314
v 0.02987515 -0.01456125 -0.13755576 0.63921569 0.75294118 0.37254902
v 0.04318766 -0.01655278 -0.05255287 0.73333333 0.87450980 0.53725490
v 0.04927624 -0.01494456 -0.07916302 0.69803922 0.79607843 0.36862745
v 0.02914386 -0.00972095 0.14243119 0.70588235 0.81568627 0.32941176
v 0.03293984 -0.01191497 -0.06184571 0.73333333 0.87843137 0.54901961
v -0.01297390 -0.00943092 0.00794174 0.72549020 0.87843137 0.54509804
v -0.01457786 -0.01488674 0.01916955 0.71764706 0.86274510 0.53333333
v 0.04249487 -0.01447908 0.08390635 0.70980392 0.85882353 0.52941176
v 0.04853363 -0.01522242 -0.09103667 0.69411765 0.78039216 0.35686275
v 0.03909007 -0.01406667 0.13811111 0.66274510 0.77647059 0.32549020
v 0.04310451 -0.01469920 -0.07749788 0.72156863 0.84705882 0.47450980
v 0.06571162 -0.01336205 -0.04713000 0.70980392 0.78823529 0.36470588
v 0.03019065 -0.01501829 -0.15137576 0.70196078 0.86274510 0.54117647
v 0.04028881 -0.01308808 0.05910525 0.76470588 0.91372549 0.62352941
v 0.01014456 -0.01310680 0.00757103 0.73333333 0.88627451 0.58039216
v 0.02402789 -0.01264784 -0.08670011 0.74901961 0.88627451 0.53725490
v 0.01846906 -0.01488519 0.00768182 0.69803922 0.86274510 0.50588235
v 0.02664340 -0.01109821 0.03050077 0.72156863 0.88627451 0.59607843
v 0.02233099 -0.01294255 -0.01151487 0.74509804 0.88627451 0.60392157
v 0.03666845 -0.01554960 0.04338066 0.73725490 0.88235294 0.56862745
v 0.04268686 -0.01167330 -0.00445956 0.76862745 0.91764706 0.61176471
v 0.05637858 -0.01193336 0.10179377 0.78039216 0.87843137 0.57254902
v 0.07400392 -0.01068873 -0.02013117 0.74901961 0.83529412 0.38823529
v 0.02803357 -0.01195611 0.12787932 0.56862745 0.68627451 0.27058824
v 0.06120817 -0.01301343 -0.06512638 0.71764706 0.79607843 0.36862745
v 0.04069670 -0.01347302 -0.04460126 0.71372549 0.85490196 0.52941176
v 0.04180268 -0.01327506 0.10272623 0.73725490 0.84705882 0.48627451
v 0.01421411 -0.01096693 0.13709030 0.61568627 0.74117647 0.28627451
v 0.04923324 -0.01296947 -0.11732683 0.72941176 0.81960784 0.38431373
v 0.10830367 -0.00914491 0.11535509 0.82745098 0.91372549 0.34509804
v 0.11279587 0.01407733 0.12370846 0.76078431 0.85098039 0.33725490
v 0.02182548 -0.01410409 0.09050736 0.72941176 0.89411765 0.57647059
v 0.02379403 -0.01412031 0.06575060 0.72156863 0.87450980 0.53333333
v 0.03429922 -0.01268220 0.09498345 0.69803922 0.85490196 0.49803922
v 0.01747908 -0.01203612 -0.00401396 0.71764706 0.87450980 0.55686275
v -0.00369342 -0.01304998 0.12926643 0.62745098 0.74901961 0.36862745
v -0.02303862 -0.01204989 0.15397902 0.50196078 0.61568627 0.28627451
v -0.01504825 -0.00888932 0.15014585 0.61176471 0.74117647 0.31372549
v 0.04869878 -0.01196406 0.04298370 0.71372549 0.87843137 0.56078431
v 0.00081707 -0.01080465 -0.14655423 0.62352941 0.72549020 0.28235294
v 0.00968668 -0.01316099 -0.01430063 0.72941176 0.86666667 0.59215686
v 0.02756622 -0.01312676 0.04465104 0.72549020 0.88235294 0.57647059
v 0.00145886 -0.00840864 0.02811665 0.69803922 0.86274510 0.56862745
v 0.03887262 -0.01203989 0.03666408 0.74117647 0.89019608 0.57647059
v 0.02995587 -0.01271184 0.10927474 0.74901961 0.89803922 0.55686275
v 0.00084133 -0.01160533 0.00004294 0.74509804 0.89411765 0.60392157
v 0.00763551 -0.01195620 0.07776072 0.72156863 0.87843137 0.54509804
v 0.02268806 -0.01277562 0.11707457 0.74117647 0.88627451 0.54901961
v 0.03067634 -0.01119669 0.06283931 0.70588235 0.86274510 0.53333333
v 0.05334507 -0.00732360 -0.10206154 0.76078431 0.85098039 0.40000000
v 0.00898698 -0.00992912 0.14336654 0.61568627 0.74117647 0.29411765
v 0.02767932 -0.01206076 -0.11772075 0.68627451 0.83529412 0.47058824
v 0.00339667 -0.01067421 -0.03536465 0.74901961 0.89019608 0.58431373
v 0.03200436 -0.01182399 -0.02241912 0.76862745 0.90980392 0.62745098
v -0.01371080 -0.01033181 0.01987034 0.68235294 0.84313725 0.51764706
v 0.00691564 -0.00907150 -0.02215383 0.73725490 0.87450980 0.60000000
v 0.00991694 -0.01096627 0.03296725 0.66666667 0.85098039 0.55686275
v 0.02461483 -0.01142663 0.07615854 0.72549020 0.87843137 0.54509804
v -0.00251051 -0.01001886 -0.01794545 0.74117647 0.87843137 0.58431373
v 0.02553914 -0.01396069 0.08205546 0.74509804 0.89019608 0.56078431
v 0.02745183 -0.01152665 -0.03152824 0.72156863 0.87058824 0.54117647
v 0.09113137 -0.00202938 0.04327573 0.84313725 0.92549020 0.61960784
v 0.00922723 -0.01026253 0.06359554 0.72156863 0.87843137 0.54509804
v 0.09914825 0.00153266 0.07433555 0.83137255 0.90980392 0.59215686
v 0.00896084 -0.01170035 0.09521719 0.71372549 0.86666667 0.52549020
v 0.01273397 -0.01150903 -0.10488211 0.72941176 0.87843137 0.50588235
v 0.02916256 -0.01125449 0.05166527 0.76470588 0.92156863 0.63529412
v 0.02053029 -0.01153401 0.09691988 0.72549020 0.89411765 0.57254902
v 0.02093809 -0.01107386 0.05210174 0.71372549 0.87058824 0.54509804
v 0.02366295 -0.01159284 -0.07114203 0.74901961 0.89411765 0.56078431
v 0.00659259 -0.00918228 -0.10260657 0.74509804 0.89411765 0.53333333
v 0.01167383 -0.01094203 0.04144566 0.69411765 0.85098039 0.53725490
v -0.01163583 -0.01284847 0.13684664 0.59215686 0.70588235 0.27450980
v 0.01904386 -0.00971409 -0.04003551 0.74901961 0.89019608 0.56862745
v 0.02901357 -0.01074222 0.12459758 0.66666667 0.79215686 0.38823529
v 0.01201404 -0.01088803 -0.06376352 0.73333333 0.88235294 0.55686275
v -0.00557347 -0.00916609 -0.03181566 0.76862745 0.90588235 0.59215686
v 0.02353417 -0.01012451 -0.15747874 0.68235294 0.79607843 0.40000000
v 0.00695717 -0.00952193 -0.12907234 0.75294118 0.86274510 0.52156863
v 0.00157718 -0.01092938 0.14507099 0.44705882 0.56470588 0.22745098
v 0.01557247 -0.00914767 -0.11909934 0.67843137 0.82745098 0.46666667
v 0.01181934 -0.01002486 -0.14214900 0.61176471 0.69411765 0.27843137
v 0.08562065 0.00214821 0.02363363 0.78431373 0.86666667 0.48627451
v -0.02658818 -0.01063548 -0.01148348 0.74509804 0.88627451 0.60392157
v -0.00531941 -0.00841758 0.12706895 0.72156863 0.85882353 0.51764706
v 0.00347542 -0.00946848 -0.04865210 0.73725490 0.88627451 0.56470588
v 0.04645126 -0.00853643 -0.13000270 0.74117647 0.83137255 0.38431373
v 0.01369339 -0.00943447 0.10583625 0.74117647 0.89411765 0.57254902
v 0.01833717 -0.00851545 0.13054337 0.63921569 0.75686275 0.35686275
v 0.00763754 -0.00697588 0.12102215 0.74509804 0.89411765 0.56078431
v -0.01256223 -0.00769344 0.06666599 0.71372549 0.87058824 0.54509804
v -0.00338457 -0.00960043 0.09237471 0.66274510 0.82745098 0.52156863
v 0.01465743 -0.01029714 -0.08332019 0.72549020 0.87058824 0.53333333
v 0.00203830 -0.00959206 0.12801094 0.64705882 0.76470588 0.39215686
v -0.00262024 -0.00915012 0.02121149 0.63921569 0.81568627 0.52941176
v 0.00148542 -0.00997786 -0.08704968 0.73725490 0.88627451 0.54509804
v -0.02600233 -0.00964326 -0.03641892 0.81960784 0.92941176 0.65882353
v -0.02940806 -0.00823543 -0.01922701 0.76470588 0.89411765 0.61176471
v -0.03660127 -0.00450260 0.15679033 0.65490196 0.76862745 0.33725490
v -0.03960964 -0.00988007 -0.02695686 0.76862745 0.89019608 0.60784314
v -0.04021469 -0.00869193 0.14941737 0.72156863 0.86666667 0.50588235
v -0.00408884 -0.01029006 0.04351970 0.74117647 0.89411765 0.58039216
v -0.00007585 -0.00908934 0.10705088 0.74901961 0.90588235 0.56470588
v -0.00371816 -0.00912206 0.07744063 0.69411765 0.85098039 0.51764706
v 0.01021446 -0.00703276 0.13065540 0.65490196 0.77647059 0.37254902
v 0.06217298 -0.00435442 -0.07218442 0.73725490 0.82352941 0.38431373
v -0.01153503 -0.00934390 0.08415380 0.72941176 0.88235294 0.56470588
v 0.01554618 -0.00625167 -0.02936847 0.73333333 0.87843137 0.57647059
v -0.01699340 -0.00860872 -0.01352697 0.77254902 0.90196078 0.61960784
v 0.00632107 -0.00853739 0.04999438 0.70588235 0.85882353 0.53725490
v -0.00500091 -0.00905060 0.13910432 0.62352941 0.74509804 0.32156863
v -0.00407103 -0.00929326 0.14913693 0.64313725 0.76862745 0.31372549
v 0.02000683 -0.00875236 -0.13254793 0.70196078 0.80784314 0.44313725
v 0.02114417 -0.00879249 -0.14976010 0.63137255 0.73725490 0.31372549
v 0.00173774 -0.00890000 -0.07260655 0.72549020 0.88235294 0.54509804
v -0.09718572 -0.00624651 -0.12439048 0.62745098 0.75686275 0.29019608
v -0.00206351 -0.00837502 -0.11926137 0.65098039 0.77254902 0.41960784
v -0.01917038 -0.00574354 -0.00428382 0.72549020 0.87058824 0.59215686
v -0.01432639 -0.00750897 -0.10898968 0.73725490 0.87843137 0.54901961
v -0.03416364 -0.00744090 -0.12370130 0.64705882 0.74901961 0.34509804
v 0.03948557 -0.00566894 -0.15366377 0.69411765 0.81568627 0.46666667
v -0.01226826 -0.00629720 0.09810578 0.72156863 0.87843137 0.55294118
v -0.00881243 -0.00854443 -0.00851532 0.76078431 0.89411765 0.59215686
v -0.00336990 -0.00762934 0.05886552 0.70980392 0.86274510 0.52941176
v -0.01740045 -0.00789270 -0.02777352 0.79215686 0.90980392 0.62352941
v -0.00394990 -0.00712774 -0.13570921 0.59607843 0.69019608 0.26274510
v -0.01621269 -0.00694989 0.13862321 0.64313725 0.75294118 0.32156863
v -0.00673152 -0.00854406 -0.05348635 0.73333333 0.87843137 0.55686275
v 0.03222965 -0.00307007 -0.15987339 0.78039216 0.92941176 0.57254902
v 0.00286686 -0.00811130 -0.13658217 0.61960784 0.72156863 0.27843137
v -0.02269735 -0.00888059 0.10905035 0.73333333 0.87843137 0.56862745
v -0.02752741 -0.00526604 0.00295780 0.72156863 0.85490196 0.54901961
v -0.03051328 -0.00953010 0.01032738 0.73725490 0.87843137 0.57647059
v -0.06393293 -0.00576654 -0.04285873 0.76862745 0.89411765 0.56078431
v -0.04908071 -0.00501517 -0.03176195 0.74117647 0.85882353 0.57254902
v -0.01888805 -0.00766915 0.07710119 0.70196078 0.85882353 0.53725490
v -0.02810041 -0.00748140 0.08942544 0.77647059 0.91764706 0.60392157
v -0.01813107 -0.00707100 0.11356466 0.72549020 0.87450980 0.56470588
v -0.00641509 -0.00682161 -0.09290280 0.72549020 0.87450980 0.54509804
v -0.02238303 -0.00762912 -0.12805687 0.57647059 0.68627451 0.27450980
v -0.02968836 -0.00667332 0.08396641 0.73333333 0.88627451 0.56470588
v 0.06752924 0.00198473 -0.05178318 0.77254902 0.85490196 0.42745098
v -0.01711883 -0.00724130 0.12966868 0.70196078 0.82745098 0.45490196
v -0.02894094 -0.00719831 0.14317360 0.60784314 0.72156863 0.29803922
v -0.01481875 -0.00595430 -0.03711485 0.76470588 0.89803922 0.59607843
v -0.02681686 -0.00749643 -0.11863272 0.67450980 0.78431373 0.44313725
v -0.01866461 -0.00601022 0.02465651 0.70588235 0.86666667 0.54117647
v -0.01082139 -0.00547746 0.04662090 0.72941176 0.87843137 0.55686275
v 0.00687795 -0.00363967 -0.15371681 0.72156863 0.81176471 0.34509804
v -0.03303662 -0.00443495 -0.01668107 0.70980392 0.86274510 0.54901961
v -0.02124988 -0.00614336 -0.05840216 0.74509804 0.89411765 0.56078431
v -0.02080427 -0.00665371 -0.07850075 0.74509804 0.89411765 0.56078431
v -0.03096046 -0.00737223 0.07230372 0.72941176 0.88235294 0.56470588
v 0.05292352 0.00703767 -0.11125928 0.82352941 0.90588235 0.57647059
v -0.01126524 -0.00548360 -0.04872314 0.73333333 0.87843137 0.56078431
v -0.02622440 -0.00596361 0.03682169 0.74901961 0.89803922 0.58039216
v -0.00841729 -0.00614526 -0.14629486 0.67843137 0.75686275 0.29019608
v -0.00154870 -0.00586322 0.11610473 0.75686275 0.90588235 0.57254902
v -0.01926412 -0.00525217 -0.09611164 0.74509804 0.89803922 0.56470588
v -0.04222191 -0.00404913 -0.10976537 0.74901961 0.87450980 0.58431373
v -0.03505214 0.00255659 0.15974540 0.71764706 0.83137255 0.34117647
v -0.03286769 -0.00629756 0.10501451 0.77254902 0.91764706 0.60392157
v -0.02299174 -0.00658596 0.05263427 0.74901961 0.89803922 0.57254902
v -0.03974674 -0.00603229 -0.00215429 0.72549020 0.87450980 0.54901961
v -0.05130075 -0.00597436 0.12096209 0.65098039 0.76078431 0.33333333
v -0.01568320 -0.00415668 -0.12183742 0.67058824 0.80000000 0.45882353
v -0.00580782 -0.00635705 -0.02451503 0.80000000 0.91764706 0.62352941
v -0.03764494 -0.00410395 -0.03688709 0.78823529 0.92156863 0.60392157
v -0.05447064 -0.00656039 -0.02414649 0.70980392 0.84705882 0.52156863
v -0.04454883 -0.00647304 -0.01609666 0.70980392 0.84313725 0.54117647
v -0.05960918 -0.00376240 -0.04619464 0.76862745 0.90588235 0.56862745
v -0.05163252 -0.00455468 -0.05569026 0.75294118 0.89803922 0.56470588
v -0.02867077 -0.00511384 0.01584281 0.74117647 0.88235294 0.56862745
v -0.03013249 -0.00449143 0.12284686 0.76078431 0.90980392 0.60000000
v -0.05850418 -0.00399833 -0.01021338 0.69411765 0.83921569 0.52941176
v -0.03107325 -0.00570922 0.13473293 0.65490196 0.76862745 0.36078431
v -0.03697550 -0.00432772 0.06212758 0.74509804 0.89803922 0.58431373
v -0.03101812 -0.00385688 -0.10678726 0.77254902 0.90588235 0.61176471
v -0.02369318 -0.00367052 -0.14452278 0.64313725 0.73725490 0.28235294
v -0.05088034 -0.00406960 0.13931445 0.74117647 0.86274510 0.36470588
v -0.06373828 -0.00514624 -0.07019653 0.77647059 0.90980392 0.56470588
v 0.07200775 0.03836522 0.13410941 0.74901961 0.84705882 0.34509804
v -0.08048802 -0.00240574 -0.03806760 0.70196078 0.83137255 0.50196078
v -0.05067767 -0.00520954 0.01944676 0.76078431 0.89803922 0.59215686
v -0.06170901 -0.00565514 -0.02154213 0.73333333 0.86666667 0.53333333
v -0.03148957 -0.00443942 -0.07349260 0.76078431 0.90588235 0.56470588
v -0.03828685 -0.00471946 -0.09249027 0.74901961 0.89411765 0.57647059
v -0.08525238 -0.00471703 -0.05344468 0.66274510 0.75686275 0.42352941
v -0.04798710 -0.00384352 0.00272290 0.74509804 0.89019608 0.57647059
v -0.07713764 -0.00570497 -0.12654994 0.60392157 0.69803922 0.22745098
v -0.09618043 -0.00156051 -0.11936884 0.59607843 0.68627451 0.27058824
v -0.03658638 -0.00337783 0.10281991 0.76078431 0.90588235 0.60000000
v -0.08551737 -0.00624702 -0.11625544 0.63921569 0.74117647 0.25882353
v -0.02104350 -0.00408021 0.00902880 0.67450980 0.82352941 0.50196078
v -0.04187470 -0.00295937 0.14643197 0.66274510 0.78431373 0.33725490
v -0.07395309 -0.00390920 -0.06256567 0.78431373 0.91764706 0.60392157
v -0.03035262 -0.00274816 -0.13077333 0.60392157 0.70980392 0.26666667
v -0.03638244 -0.00438111 0.01805203 0.74901961 0.89411765 0.56470588
v 0.07524936 0.00596699 -0.01978467 0.83529412 0.90980392 0.60000000
v -0.06187303 -0.00139103 -0.03686170 0.76470588 0.90196078 0.55294118
v -0.05319374 -0.00401494 0.10021380 0.62745098 0.74509804 0.32941176
v -0.09493362 -0.00094243 -0.11078586 0.65098039 0.74509804 0.31372549
v -0.06992900 -0.00474069 -0.11181820 0.70588235 0.82745098 0.44705882
v -0.06051379 0.00084312 -0.11290764 0.69803922 0.81176471 0.45490196
v -0.07347821 -0.00432769 -0.03048656 0.74117647 0.87058824 0.51372549
v -0.04557686 -0.00538904 -0.04869219 0.76078431 0.89803922 0.55686275
v -0.11138605 -0.00151530 -0.12177237 0.61568627 0.72549020 0.26666667
v -0.04119933 -0.00316295 0.07182591 0.75294118 0.90196078 0.58823529
v -0.04021927 -0.00406006 0.03669951 0.74901961 0.89019608 0.57647059
v -0.08598774 0.00136611 -0.05711593 0.52549020 0.69019608 0.43137255
v -0.05236006 -0.00261093 0.12785296 0.74509804 0.85882353 0.36078431
v -0.02131297 -0.00170133 -0.14753722 0.74117647 0.84313725 0.35686275
v -0.04149816 -0.00372583 0.12848217 0.63921569 0.75294118 0.34509804
v 0.04487502 0.00448222 -0.14455288 0.76078431 0.85098039 0.40000000
v -0.04733307 -0.00264329 0.11384762 0.61960784 0.74117647 0.29803922
v -0.03290280 -0.00379467 -0.06071178 0.76470588 0.90588235 0.58039216
v -0.06918576 -0.00145087 -0.13137571 0.67843137 0.77254902 0.29411765
v -0.03088436 -0.00394567 -0.04434041 0.75294118 0.89411765 0.56862745
v -0.07902884 -0.00402496 -0.11778665 0.68235294 0.78039216 0.33725490
v -0.04745675 -0.00335217 0.08583160 0.68235294 0.81568627 0.46666667
v -0.04340272 -0.00305665 -0.13157900 0.63921569 0.74117647 0.26666667
v -0.04805104 -0.00347042 -0.07734966 0.75294118 0.89803922 0.56470588
v -0.05875185 -0.00306249 0.10829763 0.70588235 0.81960784 0.31764706
v 0.01877805 0.01413560 0.14680918 0.73333333 0.84313725 0.32941176
v -0.04057014 -0.00219690 -0.12220080 0.64705882 0.74117647 0.29803922
v -0.08187751 0.00065577 -0.12763269 0.70196078 0.79607843 0.30980392
v -0.05905213 -0.00348837 0.02365013 0.75294118 0.89019608 0.58039216
v -0.06023377 -0.00296283 -0.07327417 0.75686275 0.90196078 0.56470588
v -0.08387183 0.00097009 -0.09755861 0.74117647 0.87450980 0.52156863
v -0.03550429 -0.00166539 -0.00815535 0.70196078 0.84705882 0.51372549
v -0.06110976 -0.00284145 0.03533435 0.74117647 0.87843137 0.56078431
v -0.06891372 -0.00201664 -0.12275856 0.61960784 0.71372549 0.27058824
v -0.05760465 -0.00245115 -0.09331527 0.76470588 0.90980392 0.58039216
v -0.05682107 -0.00022412 0.09501137 0.67843137 0.78039216 0.35294118
v -0.04699811 -0.00104103 0.13532958 0.74901961 0.85882353 0.39215686
v -0.06467498 -0.00091723 0.06885065 0.65490196 0.76078431 0.31372549
v -0.06982864 -0.00087166 0.03405360 0.70196078 0.75294118 0.52156863
v -0.06864735 -0.00124392 0.02305908 0.68627451 0.75294118 0.45882353
v -0.05627139 -0.00034227 0.11725117 0.76862745 0.87450980 0.37254902
v -0.06668301 -0.00099983 -0.01771370 0.72941176 0.86274510 0.52549020
v -0.06338056 -0.00241837 0.05570719 0.64313725 0.75294118 0.34901961
v -0.04846653 -0.00196866 -0.12341888 0.58431373 0.67843137 0.25490196
v -0.05701367 -0.00243646 0.08023129 0.61960784 0.72941176 0.31764706
v -0.07973275 -0.00032236 -0.11396605 0.72156863 0.82745098 0.36470588
v -0.06592248 -0.00039456 -0.00020329 0.70980392 0.80784314 0.51372549
v -0.05342602 -0.00032640 0.04904999 0.75686275 0.89411765 0.57647059
v -0.05167284 0.00021779 -0.11062516 0.73725490 0.85490196 0.54509804
v -0.04633456 0.00014952 0.14068211 0.75686275 0.85490196 0.37647059
v -0.06675234 0.00104102 0.06081603 0.72941176 0.82745098 0.38823529
v -0.09877969 0.00048297 -0.12328777 0.63137255 0.69411765 0.28235294
v -0.06182590 -0.00066193 0.08239595 0.68235294 0.78431373 0.31764706
v -0.07680514 -0.00195429 0.00155053 0.57647059 0.49019608 0.31372549
v -0.06327714 0.00088811 0.04969720 0.82745098 0.94509804 0.66666667
v -0.06198240 -0.00032026 -0.08337117 0.72941176 0.87450980 0.55686275
v -0.05069957 -0.00027354 0.06497603 0.71764706 0.85098039 0.49411765
v -0.07551782 0.00106173 -0.02399324 0.68627451 0.80000000 0.40392157
v -0.07234960 0.00135329 0.02421480 0.67450980 0.45490196 0.25882353
v -0.10859796 -0.00024583 -0.10911557 0.55294118 0.64313725 0.26274510
v -0.08383971 0.00150838 -0.04162825 0.65490196 0.75686275 0.33725490
v -0.08592627 0.00412026 -0.02611482 0.72941176 0.83921569 0.43137255
v -0.07395070 -0.00087265 -0.00831657 0.64313725 0.75294118 0.34901961
v -0.03987751 0.00044068 -0.13929109 0.69803922 0.79215686 0.32156863
v -0.08201794 -0.00071666 -0.10706410 0.69019608 0.80392157 0.38431373
v -0.03957324 0.00322863 0.15783016 0.72156863 0.82745098 0.36470588
v -0.00267850 0.01212114 -0.15226921 0.73725490 0.83921569 0.35686275
v 0.04941857 0.00809719 -0.12617219 0.77254902 0.85490196 0.47058824
v -0.08489922 -0.00118116 -0.08842192 0.76470588 0.88235294 0.63137255
v -0.05673835 0.00124393 -0.13678075 0.72549020 0.82745098 0.35686275
v -0.05783244 0.00136617 -0.12743697 0.65882353 0.71372549 0.25882353
v -0.06533640 0.00059417 0.07690460 0.69803922 0.80784314 0.34901961
v -0.10423691 0.00128916 -0.11976539 0.63137255 0.71764706 0.32941176
v -0.07118335 0.00048819 -0.08092489 0.75686275 0.89803922 0.57647059
v -0.06698868 0.00335040 0.01611785 0.66666667 0.61176471 0.36078431
v -0.09003395 0.00026098 -0.09548571 0.76470588 0.88627451 0.61960784
v -0.06958108 0.00123661 -0.09822282 0.75686275 0.89803922 0.57647059
v -0.04975373 0.00201794 0.12568241 0.77254902 0.87058824 0.39607843
v -0.04519273 0.00349858 -0.14115243 0.70588235 0.80784314 0.33725490
v -0.10890505 0.00328162 -0.12311104 0.65882353 0.74509804 0.36078431
v -0.09450876 0.00294870 -0.10322877 0.70980392 0.81176471 0.39607843
v -0.09599648 0.00306128 -0.08880157 0.67843137 0.77647059 0.38431373
v -0.07501986 0.00078097 -0.06616774 0.74117647 0.87843137 0.55294118
v -0.07677412 0.00243865 -0.08687703 0.75294118 0.89411765 0.57254902
v -0.05609359 0.00437265 0.09926206 0.75294118 0.84705882 0.38431373
v -0.11551189 0.00356444 -0.11188557 0.60784314 0.69803922 0.27450980
v -0.08710825 0.00491818 -0.06186761 0.61176471 0.71764706 0.34117647
v -0.07367169 0.00474237 0.02169182 0.78823529 0.48235294 0.35686275
v -0.09411801 0.00281694 -0.06686889 0.62352941 0.71372549 0.30588235
v -0.06594204 0.00483635 0.05306331 0.83137255 0.91372549 0.58823529
v 0.03850061 0.00509163 -0.15758280 0.72549020 0.85098039 0.41960784
v -0.07939788 0.00385184 -0.07925353 0.70196078 0.81568627 0.49411765
v -0.06267305 0.00292334 0.07281788 0.75686275 0.84313725 0.39215686
v -0.08901793 0.00240627 -0.04208553 0.69019608 0.80000000 0.37254902
v 0.06097718 0.00940373 -0.07905560 0.86666667 0.93333333 0.66666667
v -0.10348399 0.00422760 -0.09803724 0.69411765 0.78823529 0.36862745
v -0.10165261 0.00746616 -0.12781586 0.70588235 0.79607843 0.32156863
v -0.09741973 0.00778265 -0.06465360 0.74117647 0.83137255 0.38039216
v -0.07028718 0.01131881 -0.13487154 0.73725490 0.83529412 0.35294118
v -0.11200910 0.00965038 -0.12228414 0.74509804 0.83921569 0.39215686
v -0.07782077 0.00572970 0.00285504 0.81960784 0.68627451 0.54901961
v -0.03193242 0.03895867 0.16107550 0.74509804 0.81176471 0.29803922
v -0.07044893 0.01934108 0.02574058 0.88235294 0.95686275 0.74117647
v -0.10126926 0.01287624 -0.08511079 0.73725490 0.83137255 0.37647059
v 0.10746786 0.01660913 0.09988899 0.86666667 0.93333333 0.66274510
v 0.03314114 0.02206671 -0.16072904 0.73333333 0.83137255 0.35294118
v -0.08401563 0.01963117 -0.02335147 0.79215686 0.87843137 0.46274510
v 0.04167308 0.01970929 -0.15555095 0.69019608 0.77647059 0.35686275
v -0.10306543 0.02552841 -0.09905265 0.73725490 0.82745098 0.37254902
v 0.08090396 0.03233674 -0.00910168 0.91764706 0.98431373 0.83529412
v 0.08514641 0.02882191 0.01065341 0.92156863 0.98823529 0.84313725
v 0.03668893 0.02271482 -0.15666100 0.71764706 0.82745098 0.39607843
v -0.08969014 0.03738032 -0.05121041 0.76862745 0.86274510 0.40000000
v 0.10362680 0.03234556 0.07771183 0.91764706 0.98039216 0.83529412
v 0.11344383 0.02130976 0.11773894 0.78431373 0.88235294 0.41176471
v 0.05884158 0.03157478 -0.09954415 0.94509804 0.99215686 0.88627451
v -0.10733482 0.03118041 -0.11888587 0.69411765 0.78431373 0.37647059
v 0.06676361 0.02657396 -0.06620588 0.93333333 0.99215686 0.87058824
v -0.10972972 0.02848819 -0.12286115 0.67450980 0.77647059 0.33333333
v -0.10570417 0.03251668 -0.12669202 0.71372549 0.81568627 0.33725490
v -0.08135871 0.03539228 -0.13257983 0.72549020 0.83137255 0.34509804
v -0.04673733 0.03840973 0.11877735 0.76078431 0.85490196 0.38039216
v 0.04897393 0.02966406 -0.13602434 0.84705882 0.92549020 0.65882353
v 0.09754995 0.02648997 0.05454052 0.85098039 0.96078431 0.73333333
v -0.03456635 0.04597419 0.15877920 0.78823529 0.78039216 0.27843137
v -0.05880106 0.03994759 -0.13754253 0.70588235 0.80784314 0.33725490
v 0.11445103 0.03192475 0.12304745 0.76862745 0.86666667 0.39215686
v -0.04081937 0.04230839 -0.14243600 0.72941176 0.83529412 0.34901961
v -0.05164880 0.05113613 0.09018706 0.75686275 0.85098039 0.38431373
v -0.00488129 0.04343497 -0.15121135 0.74901961 0.84705882 0.36862745
v 0.07857895 0.03896233 -0.01888353 0.87843137 0.96078431 0.78823529
v 0.01148136 0.04616645 0.14985836 0.77647059 0.87058824 0.34509804
v 0.08863447 0.03692928 0.02671874 0.83137255 0.95686275 0.70980392
v 0.04332886 0.04049638 -0.16009347 0.59607843 0.69019608 0.30196078
v 0.10615291 0.03521162 0.09300715 0.88235294 0.96078431 0.74509804
v 0.03562025 0.03563925 -0.16136019 0.69803922 0.79607843 0.34117647
v 0.07241301 0.03885461 -0.04770491 0.88235294 0.96470588 0.78431373
v -0.06289316 0.05449997 0.04287397 0.76078431 0.85490196 0.40392157
v 0.09694809 0.03456105 0.05747052 0.83921569 0.95294118 0.69803922
v 0.08280018 0.03813240 0.00299506 0.79607843 0.90588235 0.66666667
v 0.03625635 0.04587105 -0.16056594 0.70196078 0.80000000 0.36470588
v 0.06633861 0.03943935 -0.06794078 0.90196078 0.97647059 0.80000000
v -0.07469589 0.05220966 -0.00207182 0.76862745 0.86666667 0.40784314
v 0.05581333 0.04119265 -0.10797899 0.83529412 0.94509804 0.70588235
v 0.11130808 0.03493026 0.12162832 0.65098039 0.74117647 0.30196078
v 0.10056777 0.03751668 0.11529492 0.65490196 0.73725490 0.27058824
v 0.09410914 0.03862706 0.06450197 0.78823529 0.91764706 0.58431373
v -0.10123949 0.04936723 -0.10344204 0.70588235 0.85882353 0.35294118
v -0.10266875 0.05819627 -0.12582632 0.63137255 0.79215686 0.29803922
v 0.08101755 0.03956306 0.02201655 0.75686275 0.89019608 0.58431373
v 0.04898892 0.04156342 -0.14317351 0.79215686 0.89019608 0.52549020
v 0.08759854 0.03943011 0.07077043 0.77647059 0.89803922 0.56470588
v -0.03836434 0.05238816 0.14479189 0.75686275 0.84705882 0.36470588
v 0.06372587 0.04104992 -0.06579082 0.80784314 0.93333333 0.65882353
v 0.05568925 0.04339766 0.12993596 0.69803922 0.80784314 0.37647059
v 0.04635208 0.04200494 -0.08527764 0.77254902 0.89803922 0.61960784
v 0.01795635 0.04501643 -0.05677533 0.37254902 0.49019608 0.25882353
v 0.04457661 0.04355113 -0.14722584 0.65490196 0.75294118 0.38431373
v 0.00579300 0.04966593 0.08739349 0.76862745 0.89019608 0.56470588
v 0.02332261 0.04580991 -0.00753648 0.49019608 0.60784314 0.35294118
v 0.01105145 0.04741226 -0.15411496 0.69019608 0.78431373 0.38039216
v 0.00255678 0.04691484 -0.10355034 0.80784314 0.92941176 0.64705882
v -0.00744871 0.05031180 0.15344586 0.63137255 0.70588235 0.25882353
v 0.01703482 0.04776621 -0.15104366 0.58431373 0.66666667 0.32156863
v -0.00069187 0.04698068 -0.08287060 0.70980392 0.83137255 0.56862745
v -0.08352527 0.05758746 -0.04303836 0.74117647 0.83921569 0.38431373
v -0.00568854 0.05017536 0.02269216 0.36862745 0.47450980 0.25098039
v -0.03020989 0.05444380 0.15480586 0.70196078 0.76078431 0.31372549
v -0.00992566 0.05043879 -0.14824363 0.63921569 0.73333333 0.32941176
v -0.08425019 0.05569389 -0.13024400 0.70588235 0.81176471 0.34509804
v -0.02910918 0.05189170 -0.04735364 0.50980392 0.62745098 0.38823529
v -0.02392175 0.05244216 -0.12699549 0.63137255 0.72156863 0.35294118
v -0.05424499 0.05470261 -0.13808376 0.71372549 0.81176471 0.35686275
v -0.02985505 0.05215797 0.15936813 0.78823529 0.73725490 0.20784314
v -0.08939082 0.05549408 -0.06148766 0.76078431 0.85882353 0.40392157
v -0.04550434 0.05546149 0.01259116 0.67450980 0.78823529 0.46666667
v -0.03443170 0.05414027 0.15245677 0.74117647 0.76862745 0.27843137
v -0.05460376 0.05542792 0.06977468 0.68627451 0.78431373 0.33725490
v -0.09794408 0.05841101 -0.09885644 0.72156863 0.85882353 0.36078431
v -0.04281525 0.05576816 -0.13907228 0.67058824 0.76862745 0.35294118
v -0.08477868 0.06059102 -0.12059137 0.64313725 0.76470588 0.40000000
v -0.05914672 0.05737960 0.03929728 0.63921569 0.73333333 0.30980392
v -0.05659190 0.05664183 -0.12849208 0.58431373 0.67058824 0.30196078
v -0.04493837 0.05567372 0.09453471 0.63137255 0.72156863 0.28627451
v -0.10008337 0.06197592 -0.12169106 0.63529412 0.87058824 0.32156863
v -0.07060034 0.05738148 0.00338549 0.68235294 0.77254902 0.34901961
v -0.07975192 0.05844211 -0.12996313 0.67450980 0.77254902 0.34117647
v -0.07565902 0.05900237 -0.02967486 0.67450980 0.77254902 0.38431373
v -0.08758344 0.05934328 -0.06417385 0.64313725 0.72941176 0.32156863
f 1 3 2
f 2 3 6
f 5 3 1
f 2 7 1
f 22 11 17
f 5 1 7
f 8 6 3
f 41 2 6
f 19 18 34
f 18 19 50
f 5 20 3
f 25 17 26
f 14 27 22
f 13 44 23
f 14 22 13
f 13 22 24
f 13 23 14
f 30 29 21
f 21 9 11
f 11 9 17
f 10 29 30
f 21 11 30
f 12 10 30
f 30 16 12
f 4 15 39
f 4 39 70
f 8 20 31
f 20 8 3
f 54 14 61
f 20 19 31
f 6 8 31
f 19 34 31
f 5 32 20
f 21 29 53
f 22 46 11
f 40 33 49
f 14 51 27
f 40 37 33
f 9 21 42
f 12 52 10
f 21 69 56
f 50 19 36
f 42 21 56
f 19 20 36
f 17 25 22
f 32 45 43
f 82 11 46
f 14 23 55
f 13 24 44
f 50 23 18
f 32 5 45
f 51 14 78
f 43 47 36
f 34 44 73
f 59 4 70
f 34 18 44
f 7 45 5
f 33 42 49
f 6 31 103
f 14 55 61
f 50 65 23
f 47 45 62
f 98 33 37
f 25 24 22
f 47 43 45
f 24 73 44
f 73 24 80
f 72 47 62
f 14 54 78
f 53 69 21
f 26 17 9
f 56 76 91
f 56 49 42
f 46 22 27
f 36 93 50
f 27 28 79
f 98 42 33
f 11 82 30
f 23 44 18
f 43 36 32
f 32 36 20
f 64 38 80
f 80 38 73
f 82 16 30
f 29 10 83
f 84 28 54
f 27 51 28
f 28 51 54
f 60 48 87
f 45 7 62
f 126 58 67
f 97 40 68
f 90 35 102
f 56 91 49
f 31 34 95
f 6 103 41
f 72 62 118
f 73 64 95
f 63 26 9
f 24 25 80
f 63 98 64
f 64 73 38
f 7 2 41
f 92 62 7
f 102 35 59
f 9 98 63
f 68 40 117
f 98 9 42
f 117 74 68
f 39 35 90
f 12 16 137
f 88 62 92
f 26 63 64
f 65 106 23
f 106 55 23
f 52 108 10
f 93 36 72
f 46 27 79
f 76 110 117
f 34 73 95
f 102 60 87
f 93 65 50
f 95 64 96
f 91 117 40
f 65 93 89
f 75 120 115
f 88 60 118
f 121 124 111
f 111 99 121
f 119 75 115
f 40 49 91
f 98 113 96
f 118 62 88
f 111 122 100
f 26 80 25
f 58 126 125
f 117 91 76
f 97 37 40
f 98 37 113
f 55 106 61
f 95 103 31
f 37 97 113
f 96 64 98
f 117 110 145
f 131 68 74
f 102 59 60
f 118 60 59
f 59 70 141
f 97 68 131
f 65 89 106
f 80 26 64
f 92 87 88
f 81 69 53
f 136 154 81
f 81 53 136
f 89 127 106
f 10 134 136
f 83 10 136
f 54 109 133
f 162 108 52
f 101 135 66
f 87 48 88
f 12 176 52
f 54 61 109
f 47 72 36
f 163 16 82
f 137 16 163
f 84 139 28
f 10 108 85
f 58 105 85
f 28 139 79
f 84 54 133
f 67 58 85
f 67 85 108
f 138 69 81
f 74 99 131
f 142 113 97
f 101 86 112
f 143 104 147
f 54 51 78
f 112 128 130
f 116 76 140
f 99 111 144
f 99 144 131
f 7 123 92
f 90 146 39
f 123 7 41
f 87 92 129
f 106 127 109
f 76 116 110
f 89 70 127
f 121 117 145
f 121 99 117
f 117 99 74
f 142 97 131
f 129 104 57
f 93 70 89
f 53 29 83
f 101 112 130
f 124 121 145
f 41 149 150
f 128 119 148
f 120 75 171
f 71 75 119
f 116 145 110
f 111 100 144
f 103 95 183
f 127 39 153
f 90 102 146
f 109 61 106
f 70 39 127
f 128 122 130
f 105 58 125
f 143 57 104
f 84 161 139
f 174 67 108
f 140 76 56
f 67 174 126
f 56 69 140
f 160 138 154
f 134 85 105
f 161 84 186
f 153 164 151
f 85 134 10
f 186 84 133
f 79 158 46
f 178 196 172
f 113 142 96
f 172 175 178
f 70 93 141
f 122 128 100
f 112 71 119
f 104 123 170
f 189 135 101
f 75 71 171
f 114 171 71
f 103 149 41
f 119 128 112
f 137 176 12
f 128 148 169
f 138 160 173
f 124 130 111
f 57 143 129
f 189 101 130
f 129 92 123
f 166 177 179
f 151 166 179
f 153 39 146
f 104 129 123
f 187 151 164
f 118 59 141
f 140 173 116
f 179 177 127
f 116 173 180
f 111 130 122
f 166 152 177
f 182 188 152
f 194 164 87
f 124 189 130
f 153 179 127
f 185 107 190
f 107 185 114
f 184 151 187
f 107 135 190
f 104 170 147
f 118 141 72
f 165 134 105
f 163 139 161
f 72 141 93
f 69 138 140
f 87 164 102
f 214 108 162
f 163 82 46
f 179 153 151
f 90 164 153
f 138 81 154
f 193 195 145
f 102 90 146
f 163 158 79
f 131 144 225
f 174 125 126
f 227 173 160
f 195 189 124
f 171 232 120
f 180 145 116
f 193 145 180
f 194 167 164
f 143 147 208
f 136 134 154
f 182 152 166
f 188 168 152
f 194 129 143
f 129 194 87
f 164 90 102
f 177 168 127
f 127 168 109
f 166 151 184
f 134 165 154
f 119 115 206
f 169 100 128
f 95 96 181
f 216 217 219
f 100 169 144
f 206 148 119
f 191 188 229
f 193 172 205
f 187 164 167
f 140 138 173
f 195 124 145
f 109 168 133
f 195 215 212
f 90 153 146
f 171 114 200
f 233 197 132
f 168 177 152
f 139 163 79
f 165 105 125
f 194 208 167
f 186 133 168
f 161 188 191
f 186 188 161
f 53 83 136
f 161 137 163
f 135 189 212
f 236 200 185
f 212 189 195
f 154 178 160
f 46 158 163
f 213 224 147
f 155 204 213
f 214 174 108
f 210 223 226
f 200 114 185
f 162 176 191
f 234 215 195
f 144 169 225
f 215 190 212
f 204 155 213
f 207 187 167
f 212 190 135
f 167 209 207
f 157 230 231
f 199 170 231
f 201 232 198
f 123 231 170
f 187 207 184
f 208 147 224
f 120 233 132
f 120 232 233
f 171 200 232
f 236 245 198
f 169 148 273
f 162 229 221
f 245 236 259
f 190 236 185
f 162 52 176
f 221 243 267
f 154 165 242
f 243 182 223
f 217 203 269
f 215 238 190
f 243 221 229
f 173 227 180
f 204 246 262
f 222 211 207
f 198 249 201
f 207 211 184
f 157 246 230
f 228 217 244
f 203 217 228
f 175 227 160
f 157 280 156
f 208 194 143
f 191 176 137
f 137 161 191
f 178 154 242
f 199 230 170
f 230 199 231
f 198 232 200
f 208 209 167
f 178 175 160
f 219 254 216
f 197 248 132
f 186 168 188
f 242 165 125
f 203 228 237
f 226 211 241
f 233 201 197
f 233 232 201
f 252 283 251
f 266 174 214
f 236 238 285
f 240 115 132
f 226 255 210
f 270 234 247
f 184 223 166
f 244 216 264
f 211 223 184
f 205 195 193
f 241 211 222
f 213 170 230
f 229 162 191
f 226 223 211
f 239 259 265
f 238 236 190
f 217 216 244
f 230 204 213
f 172 193 227
f 270 271 234
f 170 213 147
f 200 236 198
f 221 275 162
f 182 243 229
f 182 229 188
f 196 247 205
f 196 205 172
f 224 213 209
f 249 159 201
f 159 268 201
f 205 234 195
f 247 196 244
f 249 198 245
f 223 182 166
f 142 131 261
f 255 226 260
f 276 249 245
f 96 202 181
f 249 276 159
f 125 237 242
f 214 162 266
f 234 205 247
f 202 96 142
f 257 250 281
f 274 247 264
f 275 266 162
f 278 238 258
f 180 227 193
f 221 267 275
f 257 281 256
f 270 247 274
f 243 210 267
f 258 238 215
f 258 234 271
f 181 183 95
f 242 228 244
f 246 156 218
f 279 239 265
f 246 157 156
f 234 258 215
f 244 264 247
f 196 286 244
f 242 244 286
f 219 289 254
f 219 217 289
f 254 287 216
f 269 289 217
f 178 286 196
f 317 283 252
f 264 216 287
f 252 251 292
f 209 208 224
f 203 237 269
f 333 206 115
f 308 317 303
f 159 276 268
f 248 240 132
f 209 277 222
f 201 268 197
f 282 210 255
f 259 236 285
f 172 227 175
f 204 209 213
f 313 237 125
f 271 270 305
f 204 230 246
f 272 296 255
f 265 259 285
f 272 255 260
f 115 240 333
f 271 278 258
f 242 237 228
f 245 259 298
f 218 263 246
f 204 262 257
f 293 281 250
f 157 231 123
f 293 250 257
f 257 256 241
f 241 260 226
f 246 295 262
f 257 262 293
f 223 210 243
f 241 222 257
f 269 237 313
f 297 279 265
f 256 281 311
f 272 327 296
f 204 277 209
f 322 348 338
f 314 295 263
f 296 282 255
f 150 301 41
f 174 313 125
f 275 267 282
f 316 239 344
f 266 313 174
f 259 239 316
f 294 288 289
f 260 327 272
f 282 267 210
f 317 252 292
f 246 263 295
f 295 293 262
f 277 257 222
f 264 337 274
f 291 325 290
f 251 283 349
f 178 242 286
f 254 289 288
f 308 294 289
f 288 319 254
f 260 241 256
f 328 317 275
f 276 245 298
f 261 131 225
f 310 326 235
f 306 305 341
f 283 308 289
f 209 222 207
f 268 276 331
f 157 123 280
f 271 306 278
f 305 270 335
f 317 328 303
f 385 148 206
f 285 238 297
f 277 204 257
f 311 260 256
f 337 335 270
f 306 271 305
f 275 282 328
f 317 308 283
f 297 238 278
f 251 269 313
f 349 269 251
f 297 278 306
f 287 337 264
f 339 327 260
f 260 311 339
f 266 292 313
f 284 342 334
f 340 316 344
f 309 345 336
f 342 284 358
f 346 328 350
f 251 313 292
f 274 337 270
f 295 332 293
f 328 346 303
f 265 285 297
f 298 331 276
f 284 334 332
f 282 296 328
f 347 341 291
f 218 314 263
f 218 156 280
f 317 292 266
f 275 317 266
f 288 304 319
f 293 332 334
f 279 344 239
f 323 322 338
f 351 309 336
f 354 284 332
f 300 315 347
f 337 325 291
f 283 289 269
f 291 335 337
f 341 305 335
f 330 358 284
f 374 296 327
f 373 352 341
f 283 269 349
f 301 123 41
f 362 355 360
f 330 284 354
f 297 306 279
f 361 340 344
f 319 287 254
f 294 308 364
f 334 342 320
f 304 288 359
f 339 320 353
f 294 359 288
f 291 341 335
f 298 259 316
f 296 365 328
f 318 202 142
f 311 293 334
f 293 311 281
f 311 320 339
f 353 320 342
f 280 123 343
f 356 357 350
f 348 363 338
f 363 348 382
f 364 359 294
f 319 304 359
f 279 366 344
f 365 350 328
f 372 350 365
f 370 355 362
f 334 320 311
f 347 373 341
f 279 306 352
f 341 352 306
f 354 332 295
f 299 354 367
f 314 354 295
f 273 225 169
f 365 296 374
f 350 357 346
f 310 390 326
f 253 375 324
f 310 235 369
f 338 351 323
f 339 362 360
f 344 366 361
f 310 345 312
f 321 310 312
f 312 345 338
f 290 319 253
f 351 338 309
f 287 325 337
f 400 347 315
f 371 380 364
f 357 356 376
f 360 355 368
f 298 316 381
f 218 280 383
f 367 354 314
f 340 381 316
f 339 374 327
f 346 357 392
f 319 375 253
f 345 309 338
f 308 303 346
f 353 362 339
f 370 362 353
f 142 261 318
f 342 358 402
f 388 351 336
f 330 354 395
f 361 366 323
f 354 299 367
f 359 364 380
f 235 326 397
f 375 319 359
f 340 387 381
f 386 399 393
f 387 361 388
f 340 361 387
f 319 290 325
f 369 235 397
f 356 350 372
f 361 323 351
f 248 197 268
f 400 315 329
f 287 319 325
f 298 381 396
f 392 308 346
f 373 347 400
f 365 360 372
f 348 393 382
f 377 326 390
f 374 339 360
f 369 345 310
f 360 365 374
f 375 379 324
f 376 371 364
f 312 338 321
f 338 363 321
f 331 298 396
f 353 342 402
f 348 322 394
f 359 380 375
f 392 364 308
f 326 377 403
f 348 394 401
f 383 367 314
f 353 402 370
f 314 218 383
f 148 385 273
f 363 398 321
f 373 394 352
f 322 323 394
f 361 351 388
f 363 382 398
f 393 398 382
f 394 323 366
f 352 394 366
f 352 366 279
f 356 405 376
f 400 391 373
f 329 411 406
f 411 307 378
f 393 399 398
f 329 307 411
f 356 372 407
f 345 369 414
f 401 394 373
f 419 280 343
f 391 401 373
f 357 376 392
f 358 330 395
f 400 404 391
f 355 370 410
f 386 393 348
f 386 348 401
f 364 392 376
f 343 123 301
f 354 367 395
f 371 376 405
f 261 225 412
f 240 248 408
f 372 360 368
f 387 388 336
f 401 391 409
f 391 404 409
f 406 399 386
f 406 386 409
f 402 358 395
f 406 411 415
f 368 355 410
f 371 405 418
f 406 413 399
f 329 406 404
f 375 380 379
f 372 368 407
f 321 390 310
f 326 403 397
f 413 377 390
f 371 379 380
f 381 387 396
f 397 414 369
f 370 402 410
f 401 409 386
f 403 377 397
f 384 248 268
f 417 414 397
f 400 329 404
f 412 225 273
f 409 404 406
f 413 390 321
f 417 377 413
f 336 416 387
f 336 345 416
f 415 411 379
f 356 407 420
f 321 398 413
f 398 399 413
f 379 411 378
f 397 377 417
f 415 413 406
f 379 371 418
f 149 103 422
f 414 416 345
f 149 432 150
f 407 368 410
f 405 356 420
f 415 379 424
f 415 421 413
f 422 183 431
f 103 183 422
f 385 206 333
f 408 248 423
f 421 417 413
f 240 408 425
f 396 387 416
f 425 333 240
f 422 432 149
f 268 331 384
f 417 421 426
f 331 396 384
f 248 384 423
f 181 202 428
f 429 408 423
f 402 395 439
f 439 395 367
f 425 408 429
f 202 318 428
f 412 273 433
f 261 412 435
f 385 333 440
f 414 417 437
f 418 405 420
f 440 333 425
f 379 418 424
f 181 441 183
f 442 367 383
f 421 415 430
f 435 318 261
f 415 424 430
f 418 420 424
f 438 416 414
f 383 280 419
f 318 427 428
f 318 435 454
f 417 426 434
f 183 441 431
f 437 417 436
f 436 417 434
f 433 435 412
f 448 318 454
f 448 427 318
f 396 416 443
f 402 446 410
f 407 410 446
f 383 419 442
f 385 440 273
f 396 445 384
f 150 432 444
f 181 428 450
f 432 422 444
f 425 429 423
f 423 384 447
f 423 451 425
f 450 441 181
f 453 423 447
f 407 455 420
f 431 452 422
f 150 444 301
f 445 447 384
f 440 433 273
f 457 428 427
f 437 438 414
f 396 443 445
f 449 343 301
f 422 452 444
f 419 343 449
f 426 465 434
f 441 456 431
f 459 454 435
f 367 442 470
f 430 424 420
f 456 441 450
f 451 423 453
f 460 420 455
f 462 444 452
f 452 431 456
f 468 440 425
f 440 461 433
f 438 443 416
f 428 457 450
f 437 436 466
f 440 468 461
f 435 433 459
f 433 461 459
f 367 470 439
f 448 457 427
f 458 453 447
f 301 444 462
f 434 466 436
f 456 464 452
f 464 462 452
f 457 467 450
f 438 437 466
f 430 420 460
f 463 464 469
f 462 464 463
f 467 464 450
f 450 464 456
f 448 467 457
f 402 439 446
f 448 454 471
f 454 459 471
f 425 451 468
f 463 472 462
f 426 421 465
f 458 451 453
f 463 469 472
f 471 473 467
f 471 459 461
f 471 467 448
f 465 421 430
f 467 473 474
f 301 462 449
f 476 469 464
f 471 461 473
f 475 451 458
f 468 451 475
f 438 466 487
f 467 476 464
f 477 476 467
f 461 468 475
f 474 477 467
f 469 476 472
f 462 480 449
f 483 430 460
f 443 438 487
f 474 473 482
f 472 480 462
f 481 479 473
f 481 473 461
f 458 481 475
f 475 481 461
f 446 455 407
f 458 447 478
f 477 484 476
f 479 482 473
f 478 447 486
f 476 485 472
f 458 478 481
f 488 474 482
f 480 472 485
f 419 449 491
f 481 478 486
f 447 445 490
f 491 449 480
f 446 439 470
f 481 486 489
f 477 474 484
f 479 481 489
f 442 419 491
f 488 484 474
f 490 443 487
f 434 465 466
f 476 484 493
f 486 447 490
f 443 490 445
f 489 482 479
f 465 430 492
f 465 502 466
f 495 446 470
f 494 442 491
f 492 430 483
f 470 442 494
f 486 490 497
f 488 482 498
f 476 493 499
f 455 446 495
f 486 497 489
f 485 494 491
f 484 488 493
f 480 485 491
f 494 485 501
f 500 482 489
f 470 501 495
f 483 460 503
f 497 500 489
f 494 501 470
f 499 501 476
f 485 476 501
f 460 455 503
f 497 490 500
f 488 505 493
f 501 499 495
f 500 498 482
f 465 492 496
f 490 487 504
f 500 490 504
f 498 505 488
f 455 495 503
f 496 502 465
f 496 492 506
f 499 493 503
f 495 499 503
f 503 493 505
f 498 500 504
f 483 503 505
f 506 483 505
f 483 506 492
f 504 487 466
f 505 498 506
f 506 502 496
f 502 506 498
f 466 502 504
f 502 498 504
f 4 59 35
f 35 39 15
f 4 35 15
f 60 88 48
f 71 112 86
f 86 101 66
f 107 114 71
f 66 135 107
f 71 86 66
f 66 107 71
f 307 329 315
f 379 378 302
f 324 379 302
f 253 324 302
f 347 291 290
f 347 290 253
f 300 347 253
f 300 253 302
f 302 378 307
f 300 302 307
f 307 315 300
f 132 115 120

