# Created by Open3D 
# object name: part_030
# number of vertices: 162
# number of triangles: 320
v 2.53793 4.11618 0.930663
vn 0.103937 0.303216 0.947237
v 2.51685 4.1123 0.932545
vn -0.145089 0.520013 0.841745
v 2.52249 4.10223 0.935709
vn 0.0452967 0.132327 0.990171
v 2.54552 4.10292 0.93187
vn 0.242818 0.0680953 0.967679
v 2.55199 4.1189 0.927133
vn 0.332501 0.294115 0.896069
v 2.54496 4.12819 0.924372
vn 0.000358143 0.605474 0.795865
v 2.76428 3.69686 0.893775
vn 0.378547 -0.205485 0.902484
v 2.74454 3.69088 0.899522
vn 0.207337 -0.167843 0.963763
v 2.74957 3.68119 0.894619
vn 0.413693 -0.5151 0.750687
v 2.62929 3.89502 0.909073
vn -0.83325 -0.474739 0.283404
v 2.5229 4.09023 0.922869
vn -0.838525 -0.474642 0.267564
v 2.62613 3.89431 0.897805
vn -0.84325 -0.477003 0.247787
v 2.46466 4.10601 0.749354
vn -0.920573 -0.295217 0.25572
v 2.46419 4.1093 0.749302
vn -0.677917 0.721939 0.138684
v 2.42132 4.09768 0.582612
vn -0.954194 -0.164364 0.249998
v 2.49631 4.12391 0.740152
vn 0.734219 0.640422 -0.22535
v 2.54045 4.12837 0.898503
vn 0.802406 0.547687 -0.237031
v 2.45758 4.11158 0.580805
vn 0.801827 0.547555 -0.239285
v 2.63913 3.95711 0.903228
vn 0.85321 0.478782 -0.206882
v 2.76402 3.72767 0.888158
vn 0.864457 0.479135 -0.152132
v 2.76712 3.71824 0.87882
vn 0.849966 0.47719 -0.223264
v 2.66638 3.67703 0.518445
vn -0.103938 -0.303215 -0.947237
v 2.65353 3.66173 0.526427
vn 0.00866431 -0.597145 -0.802086
v 2.6465 3.67102 0.523666
vn -0.284213 -0.267409 -0.920715
v 2.65842 3.69009 0.517346
vn -0.242818 -0.0680956 -0.967679
v 2.676 3.6877 0.51509
vn 0.00690721 -0.102213 -0.994739
v 2.68165 3.67763 0.518253
vn 0.1582 -0.515822 -0.841962
v 2.53599 3.87612 0.551381
vn -0.853213 -0.478782 0.206872
v 2.64233 3.68089 0.537599
vn -0.848815 -0.479375 0.222964
v 2.53874 3.87661 0.562769
vn -0.844531 -0.477263 0.242874
v 2.44002 4.09635 0.555333
vn -0.378543 0.205476 -0.902488
v 2.42445 4.08237 0.559852
vn -0.446253 0.0327546 -0.894307
v 2.42081 4.09285 0.564352
vn -0.550118 0.437966 -0.711025
v 2.54582 3.93821 0.545535
vn 0.833251 0.474739 -0.2834
v 2.46705 4.08068 0.553168
vn 0.815089 0.470775 -0.337641
v 2.46463 4.0905 0.562309
vn 0.837015 0.477335 -0.267501
v 2.73383 3.68392 0.701445
vn 0.920574 0.295211 -0.255721
v 2.69059 3.67996 0.542834
vn 0.879664 0.403365 -0.25197
v 2.77345 3.69674 0.860532
vn 0.88025 0.403486 -0.249718
v 2.70218 3.66602 0.710647
vn -0.734226 -0.640413 0.225352
v 2.70465 3.66386 0.710116
vn 0.236312 -0.971623 -0.0103034
v 2.74612 3.67469 0.877214
vn -0.640759 -0.737408 0.213675
v 2.50791 4.10997 0.907964
vn -0.87966 -0.403373 0.251969
v 2.50827 4.1153 0.915975
vn -0.9505 -0.163624 0.264153
v 2.73144 3.70925 0.897631
vn -0.815386 -0.470781 0.336914
v 2.53039 4.08168 0.930394
vn -0.816199 -0.469275 0.337046
v 2.77404 3.70756 0.890946
vn 0.493275 -0.00369735 0.869866
v 2.75754 3.71016 0.897318
vn 0.26122 0.0340023 0.96468
v 2.55616 4.10903 0.913199
vn 0.848683 0.479698 -0.22277
v 2.56298 4.10011 0.920922
vn 0.863878 0.480658 -0.150608
v 2.49384 4.12606 0.740683
vn -0.134908 0.99071 -0.0171545
v 2.53932 4.13285 0.906948
vn 0.644425 0.73818 -0.199515
v 2.73386 3.69943 0.88849
vn -0.837234 -0.477029 0.267362
v 2.42504 4.09318 0.590266
vn -0.880245 -0.403497 0.249717
v 2.45237 4.11524 0.573585
vn 0.640747 0.737419 -0.213673
v 2.63609 3.95717 0.891887
vn 0.844531 0.477263 -0.242872
v 2.77769 3.69708 0.886446
vn 0.561557 -0.434114 0.704414
v 2.65804 3.66156 0.552295
vn -0.80241 -0.54768 0.237032
v 2.65917 3.65707 0.54385
vn -0.644437 -0.738169 0.199518
v 2.43447 4.06225 0.56264
vn -0.864602 -0.47908 0.151478
v 2.63552 3.68982 0.529876
vn -0.863789 -0.480585 0.151352
v 2.45395 4.09905 0.551276
vn -0.153853 0.195594 -0.968541
v 2.4464 4.08284 0.551897
vn -0.26122 -0.0340026 -0.96468
v 2.67559 3.6997 0.52793
vn 0.838445 0.474856 -0.267437
v 2.6681 3.70824 0.520404
vn 0.81638 0.469396 -0.336439
v 2.7343 3.68063 0.701497
vn 0.747671 -0.644261 -0.160983
v 2.69022 3.67463 0.534823
vn 0.9505 0.163623 -0.264152
v 2.74091 3.67834 0.869993
vn -0.801824 -0.547559 0.239285
v 2.43137 4.07169 0.571978
vn -0.850104 -0.476987 0.223174
v 2.44892 4.10874 0.556179
vn -0.402988 0.523773 -0.750508
v 2.5487 3.93946 0.556851
vn 0.843249 0.477003 -0.247787
v 2.77718 3.69224 0.868187
vn 0.954194 0.164359 -0.249998
v 2.51435 4.10319 0.918146
vn -0.85559 -0.452616 0.251206
v 2.51936 4.10059 0.929037
vn -0.837352 -0.442627 0.320817
v 2.51265 4.11055 0.924097
vn -0.87272 -0.380537 0.30586
v 2.73953 3.69712 0.899213
vn -0.736735 -0.451611 0.503258
v 2.73462 3.71021 0.903062
vn 0.129625 -0.0216905 0.991326
v 2.63237 3.89593 0.917665
vn -0.73754 -0.442981 0.509708
v 2.77102 3.71492 0.890057
vn 0.88409 0.46615 0.0329976
v 2.64174 3.9551 0.912093
vn 0.880732 0.471985 0.0392607
v 2.76415 3.72691 0.894476
vn 0.434058 0.15165 0.888029
v 2.54739 4.12188 0.908538
vn 0.831546 0.501282 -0.239265
v 2.54465 4.12865 0.914792
vn 0.803392 0.567143 -0.181411
v 2.55187 4.11898 0.919584
vn 0.844584 0.508331 -0.168158
v 2.48165 4.1203 0.744167
vn -0.473613 0.877345 0.0771826
v 2.50861 4.11829 0.915933
vn -0.518897 0.847199 0.114015
v 2.53676 4.1342 0.90775
vn -0.406879 0.90985 0.081373
v 2.73957 3.68597 0.881442
vn -0.82953 -0.500889 0.246961
v 2.74518 3.67978 0.886201
vn -0.775092 -0.561393 0.289948
v 2.74097 3.69006 0.892922
vn -0.80609 -0.500535 0.315727
v 2.42587 4.08527 0.578964
vn -0.857598 -0.453019 0.243513
v 2.43537 4.07269 0.588461
vn -0.844676 -0.475953 0.244929
v 2.46946 4.09524 0.748671
vn -0.856296 -0.453424 0.247313
v 2.44967 4.11294 0.56234
vn -0.0605142 0.911156 -0.407593
v 2.43689 4.10724 0.565018
vn -0.535076 0.781912 -0.319856
v 2.4497 4.11657 0.574007
vn -0.418241 0.907548 0.0378295
v 2.59236 3.94852 0.724365
vn 0.843893 0.477135 -0.245331
v 2.46896 4.09168 0.578697
vn 0.842934 0.478635 -0.245705
v 2.55192 4.10848 0.896756
vn 0.8432 0.478689 -0.244686
v 2.77884 3.69396 0.879733
vn 0.876847 -0.449603 0.170282
v 2.77719 3.69788 0.876896
vn 0.901033 0.38627 -0.197321
v 2.77711 3.70142 0.885973
vn 0.935485 0.352603 -0.0232147
v 2.6511 3.66805 0.54226
vn -0.831543 -0.501286 0.239265
v 2.64662 3.67095 0.531214
vn -0.844584 -0.508333 0.168153
v 2.65384 3.66128 0.536007
vn -0.803398 -0.567134 0.18141
v 2.42747 4.075 0.560742
vn -0.884669 -0.465127 -0.0318933
v 2.43434 4.06302 0.556323
vn -0.372941 -0.11588 -0.920591
v 2.53447 3.8761 0.542336
vn -0.880732 -0.471986 -0.0392442
v 2.45897 4.09281 0.551586
vn 0.73653 0.453423 -0.501927
v 2.54384 3.93527 0.536765
vn 0.73753 0.442977 -0.509726
v 2.46388 4.07971 0.547737
vn -0.0839169 0.0468815 -0.995369
v 2.68415 3.68673 0.532653
vn 0.855592 0.452613 -0.251207
v 2.68585 3.67938 0.526702
vn 0.872722 0.380534 -0.30586
v 2.67914 3.68934 0.521761
vn 0.83735 0.442627 -0.320821
v 2.72304 3.67313 0.704829
vn 0.473611 -0.877345 -0.077182
v 2.66174 3.65573 0.543048
vn 0.414875 -0.906014 -0.0837735
v 2.68988 3.67164 0.534866
vn 0.526363 -0.842295 -0.116107
v 2.72954 3.69825 0.872102
vn -0.843108 -0.478314 0.245732
v 2.69582 3.67591 0.711783
vn -0.830879 -0.500507 0.243171
v 2.4213 4.09205 0.573903
vn -0.901028 -0.38628 0.197321
v 2.42501 4.08148 0.567329
vn -0.875844 -0.450428 0.17324
v 2.45331 4.11014 0.564597
vn 0.775089 0.561393 -0.289956
v 2.45237 4.10603 0.555817
vn 0.69051 0.566716 -0.449476
v 2.76312 3.71724 0.862338
vn 0.844563 0.476163 -0.244912
v 2.68016 3.70044 0.544278
vn 0.844299 0.47611 -0.245926
v 2.76771 3.68614 0.884007
vn 0.535077 -0.781908 0.319865
v 2.77694 3.68927 0.868609
vn 0.537719 -0.839996 -0.0725636
v 2.51249 4.11478 0.926972
vn -0.611398 0.592193 0.524881
v 2.51723 4.10792 0.932284
vn -0.818848 -0.328992 0.470375
v 2.52488 4.09473 0.934192
vn -0.744719 -0.436775 0.5046
v 2.53334 4.08307 0.935863
vn 0.125921 -0.0148312 0.991929
v 2.6521 3.90679 0.915223
vn 0.252067 0.0510585 0.966362
v 2.56288 4.09977 0.927277
vn 0.410454 0.147019 0.899952
v 2.55638 4.11254 0.925036
vn 0.875791 0.481631 0.0319656
v 2.54822 4.12544 0.923275
vn 0.807145 0.590348 -0.0023209
v 2.54251 4.13175 0.918246
vn 0.12228 0.948187 0.293238
v 2.53019 4.12613 0.922714
vn -0.331379 0.82317 0.461062
v 2.74613 3.6839 0.894982
vn -0.690514 -0.566719 0.449466
v 2.51833 4.08949 0.90652
vn -0.844411 -0.4759 0.245945
v 2.42156 4.10065 0.58219
vn -0.530312 0.844887 0.0702599
v 2.50267 4.11401 0.739016
vn 0.830882 0.500502 -0.243172
v 2.77349 3.70845 0.883469
vn 0.875843 0.45043 -0.173241
v 2.65599 3.65818 0.532552
vn 0.000129594 -0.937798 -0.347182
v 2.65028 3.66448 0.527523
vn -0.807145 -0.590348 0.00232069
v 2.64212 3.67739 0.525763
vn -0.876665 -0.479952 -0.0332259
v 2.63562 3.69016 0.523522
vn -0.369237 -0.122739 -0.921194
v 2.5526 3.88664 0.533773
vn -0.252067 -0.0510584 -0.966362
v 2.66515 3.70686 0.514936
vn -0.0576234 0.0520571 -0.99698
v 2.67361 3.69519 0.516607
vn 0.743657 0.437702 -0.505363
v 2.68127 3.682 0.518514
vn 0.818846 0.328989 -0.470381
v 2.686 3.67515 0.523826
vn 0.694044 -0.486632 -0.530559
v 2.67441 3.66724 0.526311
vn 0.331379 -0.823169 -0.461065
v 2.64657 3.68145 0.554042
vn -0.843373 -0.478368 0.244717
v 2.42138 4.08851 0.564826
vn -0.935485 -0.352604 0.0232158
v 2.45753 4.09987 0.557876
vn 0.806086 0.500536 -0.315736
v 2.72903 3.69469 0.702127
vn 0.856298 0.453419 -0.247314
v 2.74879 3.67336 0.876791
vn 0.426284 -0.903704 -0.0400176
v 2.74882 3.67699 0.888459
vn 0.193391 -0.898652 0.393732
v 2.58237 3.88542 0.730306
vn -0.843893 -0.477134 0.245331
v 2.41966 4.09597 0.571066
vn -0.804661 0.553041 -0.216025
v 2.45892 4.10396 0.569357
vn 0.829533 0.500884 -0.24696
v 2.77262 3.70465 0.871834
vn 0.8576 0.453016 -0.243512
f 1//1 2//2 3//3
f 1//1 3//3 4//4
f 1//1 4//4 5//5
f 1//1 5//5 6//6
f 1//1 6//6 2//2
f 7//7 8//8 9//9
f 10//10 11//11 12//12
f 13//13 14//14 15//15
f 16//16 17//17 18//18
f 19//19 20//20 21//21
f 22//22 23//23 24//24
f 22//22 24//24 25//25
f 22//22 25//25 26//26
f 22//22 26//26 27//27
f 22//22 27//27 23//23
f 28//28 29//29 30//30
f 31//31 32//32 33//33
f 34//34 35//35 36//36
f 37//37 38//38 39//39
f 40//40 41//41 42//42
f 13//13 43//43 44//44
f 10//10 45//45 46//46
f 7//7 47//47 48//48
f 19//19 49//49 50//50
f 16//16 51//51 52//52
f 10//10 53//53 45//45
f 13//13 54//54 43//43
f 16//16 55//55 51//51
f 19//19 56//56 49//49
f 7//7 57//57 47//47
f 40//40 58//58 59//59
f 28//28 60//60 61//61
f 31//31 62//62 63//63
f 34//34 64//64 65//65
f 37//37 66//66 67//67
f 40//40 68//68 58//58
f 28//28 69//69 60//60
f 31//31 70//70 62//62
f 34//34 71//71 64//64
f 37//37 72//72 66//66
f 10//10 46//46 11//11
f 7//7 48//48 8//8
f 19//19 50//50 20//20
f 16//16 52//52 17//17
f 13//13 44//44 14//14
f 40//40 42//42 68//68
f 28//28 30//30 69//69
f 31//31 33//33 70//70
f 34//34 36//36 71//71
f 37//37 39//39 72//72
f 28//28 61//61 29//29
f 31//31 63//63 32//32
f 34//34 65//65 35//35
f 37//37 67//67 38//38
f 40//40 59//59 41//41
f 10//10 12//12 53//53
f 13//13 15//15 54//54
f 16//16 18//18 55//55
f 19//19 21//21 56//56
f 7//7 9//9 57//57
f 73//73 74//74 75//75
f 76//76 77//77 78//78
f 79//79 80//80 81//81
f 82//82 83//83 84//84
f 85//85 86//86 87//87
f 88//88 89//89 90//90
f 91//91 92//92 93//93
f 94//94 95//95 96//96
f 97//97 98//98 99//99
f 100//100 101//101 102//102
f 103//103 104//104 105//105
f 106//106 107//107 108//108
f 109//109 110//110 111//111
f 112//112 113//113 114//114
f 115//115 116//116 117//117
f 88//88 118//118 119//119
f 91//91 120//120 121//121
f 94//94 122//122 123//123
f 97//97 124//124 125//125
f 100//100 126//126 127//127
f 128//128 129//129 2//2
f 130//130 131//131 3//3
f 132//132 133//133 4//4
f 134//134 135//135 5//5
f 136//136 137//137 6//6
f 76//76 138//138 8//8
f 73//73 139//139 11//11
f 85//85 140//140 14//14
f 82//82 141//141 17//17
f 79//79 142//142 20//20
f 143//143 144//144 23//23
f 145//145 146//146 24//24
f 147//147 148//148 25//25
f 149//149 150//150 26//26
f 151//151 152//152 27//27
f 103//103 153//153 29//29
f 106//106 154//154 32//32
f 109//109 155//155 35//35
f 112//112 156//156 38//38
f 115//115 157//157 41//41
f 73//73 75//75 43//43
f 76//76 78//78 45//45
f 79//79 81//81 47//47
f 82//82 84//84 49//49
f 85//85 87//87 51//51
f 88//88 90//90 53//53
f 91//91 93//93 54//54
f 94//94 96//96 55//55
f 97//97 99//99 56//56
f 100//100 102//102 57//57
f 103//103 105//105 58//58
f 106//106 108//108 60//60
f 109//109 111//111 62//62
f 112//112 114//114 64//64
f 115//115 117//117 66//66
f 88//88 119//119 68//68
f 91//91 121//121 69//69
f 94//94 123//123 70//70
f 97//97 125//125 71//71
f 100//100 127//127 72//72
f 130//130 74//74 46//46
f 132//132 77//77 48//48
f 134//134 80//80 50//50
f 136//136 83//83 52//52
f 128//128 86//86 44//44
f 158//158 89//89 42//42
f 159//159 92//92 30//30
f 160//160 95//95 33//33
f 161//161 98//98 36//36
f 162//162 101//101 39//39
f 145//145 104//104 61//61
f 147//147 107//107 63//63
f 149//149 110//110 65//65
f 151//151 113//113 67//67
f 143//143 116//116 59//59
f 159//159 118//118 12//12
f 160//160 120//120 15//15
f 161//161 122//122 18//18
f 162//162 124//124 21//21
f 158//158 126//126 9//9
f 130//130 129//129 74//74
f 132//132 131//131 77//77
f 134//134 133//133 80//80
f 136//136 135//135 83//83
f 128//128 137//137 86//86
f 158//158 138//138 89//89
f 159//159 139//139 92//92
f 160//160 140//140 95//95
f 161//161 141//141 98//98
f 162//162 142//142 101//101
f 145//145 144//144 104//104
f 147//147 146//146 107//107
f 149//149 148//148 110//110
f 151//151 150//150 113//113
f 143//143 152//152 116//116
f 159//159 153//153 118//118
f 160//160 154//154 120//120
f 161//161 155//155 122//122
f 162//162 156//156 124//124
f 158//158 157//157 126//126
f 130//130 3//3 129//129
f 132//132 4//4 131//131
f 134//134 5//5 133//133
f 136//136 6//6 135//135
f 128//128 2//2 137//137
f 158//158 9//9 138//138
f 159//159 12//12 139//139
f 160//160 15//15 140//140
f 161//161 18//18 141//141
f 162//162 21//21 142//142
f 145//145 24//24 144//144
f 147//147 25//25 146//146
f 149//149 26//26 148//148
f 151//151 27//27 150//150
f 143//143 23//23 152//152
f 159//159 30//30 153//153
f 160//160 33//33 154//154
f 161//161 36//36 155//155
f 162//162 39//39 156//156
f 158//158 42//42 157//157
f 128//128 44//44 75//75
f 130//130 46//46 78//78
f 132//132 48//48 81//81
f 134//134 50//50 84//84
f 136//136 52//52 87//87
f 76//76 45//45 90//90
f 73//73 43//43 93//93
f 85//85 51//51 96//96
f 82//82 49//49 99//99
f 79//79 47//47 102//102
f 143//143 59//59 105//105
f 145//145 61//61 108//108
f 147//147 63//63 111//111
f 149//149 65//65 114//114
f 151//151 67//67 117//117
f 103//103 58//58 119//119
f 106//106 60//60 121//121
f 109//109 62//62 123//123
f 112//112 64//64 125//125
f 115//115 66//66 127//127
f 73//73 11//11 74//74
f 76//76 8//8 77//77
f 79//79 20//20 80//80
f 82//82 17//17 83//83
f 85//85 14//14 86//86
f 88//88 68//68 89//89
f 91//91 69//69 92//92
f 94//94 70//70 95//95
f 97//97 71//71 98//98
f 100//100 72//72 101//101
f 103//103 29//29 104//104
f 106//106 32//32 107//107
f 109//109 35//35 110//110
f 112//112 38//38 113//113
f 115//115 41//41 116//116
f 88//88 53//53 118//118
f 91//91 54//54 120//120
f 94//94 55//55 122//122
f 97//97 56//56 124//124
f 100//100 57//57 126//126
f 128//128 75//75 129//129
f 130//130 78//78 131//131
f 132//132 81//81 133//133
f 134//134 84//84 135//135
f 136//136 87//87 137//137
f 76//76 90//90 138//138
f 73//73 93//93 139//139
f 85//85 96//96 140//140
f 82//82 99//99 141//141
f 79//79 102//102 142//142
f 143//143 105//105 144//144
f 145//145 108//108 146//146
f 147//147 111//111 148//148
f 149//149 114//114 150//150
f 151//151 117//117 152//152
f 103//103 119//119 153//153
f 106//106 121//121 154//154
f 109//109 123//123 155//155
f 112//112 125//125 156//156
f 115//115 127//127 157//157
f 129//129 3//3 2//2
f 131//131 4//4 3//3
f 133//133 5//5 4//4
f 135//135 6//6 5//5
f 137//137 2//2 6//6
f 138//138 9//9 8//8
f 139//139 12//12 11//11
f 140//140 15//15 14//14
f 141//141 18//18 17//17
f 142//142 21//21 20//20
f 144//144 24//24 23//23
f 146//146 25//25 24//24
f 148//148 26//26 25//25
f 150//150 27//27 26//26
f 152//152 23//23 27//27
f 153//153 30//30 29//29
f 154//154 33//33 32//32
f 155//155 36//36 35//35
f 156//156 39//39 38//38
f 157//157 42//42 41//41
f 75//75 44//44 43//43
f 78//78 46//46 45//45
f 81//81 48//48 47//47
f 84//84 50//50 49//49
f 87//87 52//52 51//51
f 90//90 45//45 53//53
f 93//93 43//43 54//54
f 96//96 51//51 55//55
f 99//99 49//49 56//56
f 102//102 47//47 57//57
f 105//105 59//59 58//58
f 108//108 61//61 60//60
f 111//111 63//63 62//62
f 114//114 65//65 64//64
f 117//117 67//67 66//66
f 119//119 58//58 68//68
f 121//121 60//60 69//69
f 123//123 62//62 70//70
f 125//125 64//64 71//71
f 127//127 66//66 72//72
f 74//74 11//11 46//46
f 77//77 8//8 48//48
f 80//80 20//20 50//50
f 83//83 17//17 52//52
f 86//86 14//14 44//44
f 89//89 68//68 42//42
f 92//92 69//69 30//30
f 95//95 70//70 33//33
f 98//98 71//71 36//36
f 101//101 72//72 39//39
f 104//104 29//29 61//61
f 107//107 32//32 63//63
f 110//110 35//35 65//65
f 113//113 38//38 67//67
f 116//116 41//41 59//59
f 118//118 53//53 12//12
f 120//120 54//54 15//15
f 122//122 55//55 18//18
f 124//124 56//56 21//21
f 126//126 57//57 9//9
f 129//129 75//75 74//74
f 131//131 78//78 77//77
f 133//133 81//81 80//80
f 135//135 84//84 83//83
f 137//137 87//87 86//86
f 138//138 90//90 89//89
f 139//139 93//93 92//92
f 140//140 96//96 95//95
f 141//141 99//99 98//98
f 142//142 102//102 101//101
f 144//144 105//105 104//104
f 146//146 108//108 107//107
f 148//148 111//111 110//110
f 150//150 114//114 113//113
f 152//152 117//117 116//116
f 153//153 119//119 118//118
f 154//154 121//121 120//120
f 155//155 123//123 122//122
f 156//156 125//125 124//124
f 157//157 127//127 126//126
