# Created by Open3D 
# object name: part_024
# number of vertices: 162
# number of triangles: 320
v -0.635642 3.57271 1.85994
vn 0.726889 -0.686274 -0.0257002
v -0.649794 3.55773 1.86601
vn 0.718098 -0.695834 0.0122454
v -0.649916 3.558 1.85332
vn 0.717038 -0.695985 -0.0382226
v -0.635414 3.57391 1.84297
vn 0.727461 -0.684238 -0.0511659
v -0.625934 3.5833 1.85588
vn 0.741524 -0.669984 -0.035555
v -0.626939 3.58185 1.86845
vn 0.733172 -0.67989 0.0144188
v -0.6293 3.62083 1.325
vn 0.727534 -0.681381 -0.0800882
v -0.643695 3.6052 1.32855
vn 0.71741 -0.693153 -0.0697308
v -0.643274 3.60721 1.31602
vn 0.719659 -0.683998 -0.11932
v -0.649007 3.58066 1.59082
vn -0.37386 -0.923349 -0.0874906
v -0.652241 3.55846 1.84012
vn -0.508156 -0.857357 -0.0819604
v -0.650039 3.5813 1.59087
vn -0.66756 -0.740814 -0.0745529
v -0.665344 3.56891 1.87254
vn -0.677421 -0.728359 0.10293
v -0.66457 3.56946 1.8761
vn -0.211226 -0.296664 0.931329
v -0.677819 3.58109 1.87389
vn -0.710398 -0.66642 0.226314
v -0.639612 3.59607 1.87529
vn 0.67327 0.696866 0.247153
v -0.627069 3.58553 1.86911
vn 0.691647 0.707468 0.145305
v -0.651305 3.60832 1.87087
vn 0.674908 0.723209 0.146522
v -0.622662 3.60418 1.64896
vn 0.903872 0.424994 0.0489454
v -0.619063 3.62989 1.35609
vn 0.99829 0.056124 0.0163677
v -0.619292 3.63184 1.34445
vn 0.829322 0.555665 0.0588353
v -0.657933 3.64775 1.32708
vn -0.726889 0.686274 0.0256993
v -0.671362 3.63362 1.31806
vn -0.732054 0.681108 -0.0137431
v -0.672367 3.63217 1.33063
vn -0.737216 0.674694 0.0360722
v -0.65846 3.64624 1.34402
vn -0.727461 0.684238 0.0511658
v -0.648385 3.65747 1.33319
vn -0.712556 0.70055 0.0386462
v -0.648507 3.65774 1.3205
vn -0.716884 0.697078 -0.0126839
v -0.676294 3.60632 1.59281
vn -0.903881 -0.424976 -0.0489438
v -0.673099 3.62848 1.34351
vn -0.829923 -0.554544 -0.0609081
v -0.675597 3.60533 1.59273
vn -0.704058 -0.706494 -0.0718983
v -0.664275 3.59963 1.86202
vn -0.727534 0.681381 0.080085
v -0.678588 3.58496 1.8554
vn -0.737591 0.671859 0.0675715
v -0.677882 3.58415 1.86805
vn -0.733614 0.669271 0.117839
v -0.649949 3.62984 1.65094
vn 0.373843 0.923356 0.0874911
v -0.652751 3.61353 1.83325
vn -0.00856934 0.995897 0.0900898
v -0.651971 3.61216 1.84495
vn 0.506659 0.857977 0.0846852
v -0.632957 3.64656 1.31397
vn 0.677421 0.728359 -0.10293
v -0.644777 3.65785 1.32023
vn 0.676634 0.736319 0.000786894
v -0.620541 3.63506 1.31846
vn 0.693376 0.720576 -0.000429552
v -0.658689 3.61941 1.31122
vn -0.67327 -0.696867 -0.247151
v -0.657833 3.62058 1.30784
vn -0.188636 -0.125266 -0.974025
v -0.645724 3.60774 1.30993
vn -0.59741 -0.713558 -0.365973
v -0.653525 3.55762 1.86628
vn -0.676634 -0.736319 -0.000787566
v -0.652388 3.55718 1.87204
vn -0.60434 -0.766146 0.218617
v -0.645551 3.60194 1.35326
vn 0.00462837 -0.995923 -0.0900895
v -0.651183 3.5592 1.82838
vn 0.00460698 -0.996022 -0.0889833
v -0.619713 3.63051 1.33111
vn 0.741903 -0.667137 -0.0671413
v -0.629474 3.61898 1.34191
vn 0.727503 -0.683924 -0.0546561
v -0.625203 3.58699 1.843
vn 0.830828 0.553163 0.061109
v -0.624696 3.58715 1.83121
vn 0.998674 0.0486564 0.0168235
v -0.640468 3.59489 1.87867
vn 0.264363 0.2083 0.94166
v -0.627146 3.58381 1.87473
vn 0.703465 0.613832 0.358255
v -0.646331 3.60331 1.34156
vn -0.508105 -0.857158 -0.0843141
v -0.67776 3.58041 1.86805
vn -0.693376 -0.720576 0.000429912
v -0.652577 3.60773 1.87658
vn 0.59741 0.713557 0.365976
v -0.623367 3.60511 1.64972
vn 0.704056 0.706496 0.0718985
v -0.620419 3.63132 1.31846
vn 0.734745 -0.667956 -0.118258
v -0.671232 3.62994 1.3174
vn -0.691647 -0.707469 -0.145304
v -0.671155 3.63166 1.31178
vn -0.703466 -0.613834 -0.358251
v -0.679238 3.58558 1.83043
vn -0.998478 -0.0527745 -0.0160268
v -0.673605 3.62832 1.3553
vn -0.998465 -0.0526708 -0.0171328
v -0.654607 3.61027 1.85796
vn -0.712932 0.697708 0.0702304
v -0.6644 3.60116 1.84507
vn -0.727502 0.683925 0.054656
v -0.64606 3.65701 1.34639
vn 0.509073 0.856796 0.0821263
v -0.647118 3.65627 1.35813
vn -0.00115475 0.996025 0.0890663
v -0.633731 3.64601 1.31041
vn 0.285997 0.372432 -0.882893
v -0.645913 3.65829 1.31448
vn 0.60434 0.766146 -0.218617
v -0.646996 3.60715 1.31564
vn -0.674908 -0.723209 -0.146523
v -0.679009 3.58363 1.84206
vn -0.829944 -0.554765 -0.0585562
v -0.655027 3.60826 1.87049
vn -0.718458 0.68514 0.120003
v -0.648926 3.62914 1.65158
vn 0.66756 0.740814 0.0745529
v -0.620482 3.63438 1.31263
vn 0.710398 0.66642 -0.226314
v -0.652801 3.55746 1.85701
vn -0.657008 -0.752164 -0.0508893
v -0.651676 3.55726 1.8527
vn -0.10872 -0.991818 -0.0669151
v -0.652061 3.55673 1.86567
vn -0.244704 -0.969552 -0.00940553
v -0.644701 3.60365 1.33722
vn 0.459427 -0.884893 -0.0767535
v -0.643859 3.60285 1.35309
vn 0.717281 -0.694662 -0.0543411
v -0.647701 3.5807 1.59084
vn 0.46622 -0.881587 -0.0737746
v -0.619097 3.63066 1.33996
vn 0.913081 -0.406818 -0.027977
v -0.622593 3.60311 1.64624
vn 0.910376 -0.412942 -0.0263528
v -0.61985 3.62818 1.35565
vn 0.743031 -0.667266 -0.0515838
v -0.625936 3.5858 1.85988
vn 0.713567 0.694054 0.0954589
v -0.62604 3.58419 1.86845
vn 0.949528 0.290596 0.118111
v -0.625241 3.58515 1.85553
vn 0.985421 0.162647 0.0499059
v -0.650012 3.58474 1.87876
vn -0.011806 -0.0895858 0.995909
v -0.651226 3.55816 1.87492
vn 0.119612 -0.301847 0.945823
v -0.628345 3.58231 1.87736
vn 0.217792 -0.196551 0.955999
v -0.646491 3.60534 1.32475
vn -0.656436 -0.747776 -0.099609
v -0.645546 3.60616 1.31612
vn -0.242789 -0.955155 -0.169509
v -0.645467 3.60437 1.32898
vn -0.10814 -0.987611 -0.113714
v -0.678676 3.58179 1.8589
vn -0.714149 -0.698432 -0.0467265
v -0.677893 3.58229 1.84224
vn -0.6898 -0.720435 -0.0717539
v -0.665822 3.56943 1.85929
vn -0.686111 -0.725815 -0.0494454
v -0.653836 3.60825 1.8748
vn -0.619535 0.74311 0.25291
v -0.663642 3.59794 1.87517
vn -0.715147 0.652342 0.251027
v -0.653805 3.60625 1.87921
vn -0.13477 0.134974 0.981641
v -0.636096 3.61716 1.65087
vn 0.686025 0.723881 0.0732486
v -0.650589 3.6111 1.84516
vn 0.682213 0.727289 0.0750667
v -0.626326 3.58828 1.84339
vn 0.689779 0.720175 0.0745162
v -0.620064 3.63296 1.31432
vn 0.79987 -0.552822 -0.233657
v -0.619525 3.63362 1.3189
vn 0.951425 0.305003 -0.0419968
v -0.619332 3.63218 1.32311
vn 0.936427 -0.344083 -0.0686417
v -0.672366 3.62967 1.32663
vn -0.713567 -0.694053 -0.0954594
v -0.67306 3.63032 1.33098
vn -0.985421 -0.162649 -0.0499059
v -0.672261 3.63128 1.31806
vn -0.949528 -0.290596 -0.118111
v -0.679204 3.58481 1.84655
vn -0.913557 0.405726 0.0282666
v -0.678452 3.58729 1.83086
vn -0.737537 0.673288 0.0521787
v -0.676333 3.60762 1.59292
vn -0.910377 0.41294 0.0263526
v -0.6536 3.61182 1.84929
vn -0.457962 0.885596 0.0773991
v -0.651225 3.63004 1.64833
vn -0.466225 0.881585 0.0737744
v -0.654442 3.61262 1.83342
vn -0.713467 0.698546 0.0547524
v -0.6455 3.65801 1.3295
vn 0.657008 0.752164 0.0508893
v -0.64624 3.65874 1.32084
vn 0.244701 0.969553 0.00940433
v -0.646626 3.65821 1.33381
vn 0.108707 0.991819 0.0669153
v -0.643249 3.63605 1.30829
vn 0.0118065 0.0895864 -0.995909
v -0.669956 3.63316 1.30915
vn -0.211767 0.204611 -0.955662
v -0.647076 3.65731 1.3116
vn -0.111929 0.308255 -0.944696
v -0.647712 3.60437 1.34135
vn -0.682228 -0.727309 -0.0747418
v -0.65948 3.61755 1.32434
vn -0.685547 -0.721536 -0.0970116
v -0.678776 3.58185 1.86761
vn -0.951425 -0.305003 0.0419968
v -0.679269 3.58321 1.85471
vn -0.985973 -0.166879 -0.00310691
v -0.652755 3.60931 1.87039
vn 0.242788 0.955155 0.169506
v -0.653777 3.60988 1.86609
vn -0.403649 0.906262 0.125527
v -0.620408 3.63318 1.34427
vn 0.689792 0.720422 0.0719662
v -0.644672 3.656 1.34603
vn 0.682262 0.727502 0.0725137
v -0.6297 3.62277 1.31187
vn 0.715147 -0.652342 -0.251028
v -0.621616 3.63337 1.30974
vn 0.240629 -0.0232716 -0.970338
v -0.651086 3.55698 1.87022
vn 0.643831 -0.753022 0.135795
v -0.650937 3.55693 1.86136
vn 0.40249 -0.914973 -0.0287436
v -0.650715 3.55802 1.84448
vn 0.459367 -0.885357 -0.0715939
v -0.649498 3.56006 1.82875
vn 0.717274 -0.694724 -0.0536318
v -0.632081 3.59671 1.59247
vn 0.727483 -0.684082 -0.0529109
v -0.625489 3.5854 1.83132
vn 0.741201 -0.669339 -0.0510483
v -0.625111 3.58503 1.84721
vn 0.91417 -0.404712 -0.0224021
v -0.625745 3.58352 1.86405
vn 0.935283 -0.352779 0.0281465
v -0.626686 3.58272 1.87282
vn 0.795323 -0.587329 0.150016
v -0.636354 3.57228 1.87319
vn 0.710424 -0.688177 0.147343
v -0.644524 3.60559 1.32042
vn 0.403639 -0.906266 -0.125529
v -0.653629 3.55947 1.84048
vn -0.682256 -0.727529 -0.0723026
v -0.676686 3.5821 1.87677
vn -0.234613 0.0312499 0.971586
v -0.638821 3.59792 1.86217
vn 0.685546 0.721536 0.0970113
v -0.619032 3.63226 1.3318
vn 0.985973 0.166877 0.00310689
v -0.671615 3.63275 1.31369
vn -0.772073 0.617698 -0.149508
v -0.672556 3.63195 1.32246
vn -0.935282 0.352781 -0.0281461
v -0.67319 3.63044 1.3393
vn -0.913503 0.406175 0.0231061
v -0.672812 3.63008 1.35519
vn -0.737528 0.673353 0.051469
v -0.66118 3.62408 1.59458
vn -0.727483 0.684083 0.0529111
v -0.648803 3.65541 1.35776
vn -0.711554 0.700537 0.05421
v -0.647587 3.65745 1.34203
vn -0.460403 0.884791 0.071924
v -0.647364 3.65854 1.32515
vn -0.402493 0.914972 0.0287436
v -0.647215 3.65849 1.31629
vn -0.614985 0.777624 -0.130742
v -0.656987 3.64843 1.31385
vn -0.710424 0.688178 -0.147343
v -0.671976 3.62719 1.34312
vn -0.689772 -0.720216 -0.0741931
v -0.678969 3.58329 1.8634
vn -0.936424 0.344089 0.0686421
v -0.652834 3.6111 1.85753
vn 0.10814 0.987611 0.113713
v -0.632479 3.64604 1.32722
vn 0.686111 0.725815 0.0494457
v -0.644496 3.60922 1.3073
vn 0.142463 -0.128485 -0.981426
v -0.644465 3.60722 1.31171
vn 0.648435 -0.718065 -0.252815
v -0.662871 3.59326 1.59179
vn -0.686024 -0.723883 -0.0732487
v -0.678237 3.58251 1.87219
vn -0.776677 0.582748 0.23912
v -0.65181 3.61014 1.86177
vn 0.656436 0.747777 0.0996089
v -0.619625 3.63368 1.32761
vn 0.714149 0.698433 0.0467271
f 1//1 2//2 3//3
f 1//1 3//3 4//4
f 1//1 4//4 5//5
f 1//1 5//5 6//6
f 1//1 6//6 2//2
f 7//7 8//8 9//9
f 10//10 11//11 12//12
f 13//13 14//14 15//15
f 16//16 17//17 18//18
f 19//19 20//20 21//21
f 22//22 23//23 24//24
f 22//22 24//24 25//25
f 22//22 25//25 26//26
f 22//22 26//26 27//27
f 22//22 27//27 23//23
f 28//28 29//29 30//30
f 31//31 32//32 33//33
f 34//34 35//35 36//36
f 37//37 38//38 39//39
f 40//40 41//41 42//42
f 13//13 43//43 44//44
f 10//10 45//45 46//46
f 7//7 47//47 48//48
f 19//19 49//49 50//50
f 16//16 51//51 52//52
f 10//10 53//53 45//45
f 13//13 54//54 43//43
f 16//16 55//55 51//51
f 19//19 56//56 49//49
f 7//7 57//57 47//47
f 40//40 58//58 59//59
f 28//28 60//60 61//61
f 31//31 62//62 63//63
f 34//34 64//64 65//65
f 37//37 66//66 67//67
f 40//40 68//68 58//58
f 28//28 69//69 60//60
f 31//31 70//70 62//62
f 34//34 71//71 64//64
f 37//37 72//72 66//66
f 10//10 46//46 11//11
f 7//7 48//48 8//8
f 19//19 50//50 20//20
f 16//16 52//52 17//17
f 13//13 44//44 14//14
f 40//40 42//42 68//68
f 28//28 30//30 69//69
f 31//31 33//33 70//70
f 34//34 36//36 71//71
f 37//37 39//39 72//72
f 28//28 61//61 29//29
f 31//31 63//63 32//32
f 34//34 65//65 35//35
f 37//37 67//67 38//38
f 40//40 59//59 41//41
f 10//10 12//12 53//53
f 13//13 15//15 54//54
f 16//16 18//18 55//55
f 19//19 21//21 56//56
f 7//7 9//9 57//57
f 73//73 74//74 75//75
f 76//76 77//77 78//78
f 79//79 80//80 81//81
f 82//82 83//83 84//84
f 85//85 86//86 87//87
f 88//88 89//89 90//90
f 91//91 92//92 93//93
f 94//94 95//95 96//96
f 97//97 98//98 99//99
f 100//100 101//101 102//102
f 103//103 104//104 105//105
f 106//106 107//107 108//108
f 109//109 110//110 111//111
f 112//112 113//113 114//114
f 115//115 116//116 117//117
f 88//88 118//118 119//119
f 91//91 120//120 121//121
f 94//94 122//122 123//123
f 97//97 124//124 125//125
f 100//100 126//126 127//127
f 128//128 129//129 2//2
f 130//130 131//131 3//3
f 132//132 133//133 4//4
f 134//134 135//135 5//5
f 136//136 137//137 6//6
f 76//76 138//138 8//8
f 73//73 139//139 11//11
f 85//85 140//140 14//14
f 82//82 141//141 17//17
f 79//79 142//142 20//20
f 143//143 144//144 23//23
f 145//145 146//146 24//24
f 147//147 148//148 25//25
f 149//149 150//150 26//26
f 151//151 152//152 27//27
f 103//103 153//153 29//29
f 106//106 154//154 32//32
f 109//109 155//155 35//35
f 112//112 156//156 38//38
f 115//115 157//157 41//41
f 73//73 75//75 43//43
f 76//76 78//78 45//45
f 79//79 81//81 47//47
f 82//82 84//84 49//49
f 85//85 87//87 51//51
f 88//88 90//90 53//53
f 91//91 93//93 54//54
f 94//94 96//96 55//55
f 97//97 99//99 56//56
f 100//100 102//102 57//57
f 103//103 105//105 58//58
f 106//106 108//108 60//60
f 109//109 111//111 62//62
f 112//112 114//114 64//64
f 115//115 117//117 66//66
f 88//88 119//119 68//68
f 91//91 121//121 69//69
f 94//94 123//123 70//70
f 97//97 125//125 71//71
f 100//100 127//127 72//72
f 130//130 74//74 46//46
f 132//132 77//77 48//48
f 134//134 80//80 50//50
f 136//136 83//83 52//52
f 128//128 86//86 44//44
f 158//158 89//89 42//42
f 159//159 92//92 30//30
f 160//160 95//95 33//33
f 161//161 98//98 36//36
f 162//162 101//101 39//39
f 145//145 104//104 61//61
f 147//147 107//107 63//63
f 149//149 110//110 65//65
f 151//151 113//113 67//67
f 143//143 116//116 59//59
f 159//159 118//118 12//12
f 160//160 120//120 15//15
f 161//161 122//122 18//18
f 162//162 124//124 21//21
f 158//158 126//126 9//9
f 130//130 129//129 74//74
f 132//132 131//131 77//77
f 134//134 133//133 80//80
f 136//136 135//135 83//83
f 128//128 137//137 86//86
f 158//158 138//138 89//89
f 159//159 139//139 92//92
f 160//160 140//140 95//95
f 161//161 141//141 98//98
f 162//162 142//142 101//101
f 145//145 144//144 104//104
f 147//147 146//146 107//107
f 149//149 148//148 110//110
f 151//151 150//150 113//113
f 143//143 152//152 116//116
f 159//159 153//153 118//118
f 160//160 154//154 120//120
f 161//161 155//155 122//122
f 162//162 156//156 124//124
f 158//158 157//157 126//126
f 130//130 3//3 129//129
f 132//132 4//4 131//131
f 134//134 5//5 133//133
f 136//136 6//6 135//135
f 128//128 2//2 137//137
f 158//158 9//9 138//138
f 159//159 12//12 139//139
f 160//160 15//15 140//140
f 161//161 18//18 141//141
f 162//162 21//21 142//142
f 145//145 24//24 144//144
f 147//147 25//25 146//146
f 149//149 26//26 148//148
f 151//151 27//27 150//150
f 143//143 23//23 152//152
f 159//159 30//30 153//153
f 160//160 33//33 154//154
f 161//161 36//36 155//155
f 162//162 39//39 156//156
f 158//158 42//42 157//157
f 128//128 44//44 75//75
f 130//130 46//46 78//78
f 132//132 48//48 81//81
f 134//134 50//50 84//84
f 136//136 52//52 87//87
f 76//76 45//45 90//90
f 73//73 43//43 93//93
f 85//85 51//51 96//96
f 82//82 49//49 99//99
f 79//79 47//47 102//102
f 143//143 59//59 105//105
f 145//145 61//61 108//108
f 147//147 63//63 111//111
f 149//149 65//65 114//114
f 151//151 67//67 117//117
f 103//103 58//58 119//119
f 106//106 60//60 121//121
f 109//109 62//62 123//123
f 112//112 64//64 125//125
f 115//115 66//66 127//127
f 73//73 11//11 74//74
f 76//76 8//8 77//77
f 79//79 20//20 80//80
f 82//82 17//17 83//83
f 85//85 14//14 86//86
f 88//88 68//68 89//89
f 91//91 69//69 92//92
f 94//94 70//70 95//95
f 97//97 71//71 98//98
f 100//100 72//72 101//101
f 103//103 29//29 104//104
f 106//106 32//32 107//107
f 109//109 35//35 110//110
f 112//112 38//38 113//113
f 115//115 41//41 116//116
f 88//88 53//53 118//118
f 91//91 54//54 120//120
f 94//94 55//55 122//122
f 97//97 56//56 124//124
f 100//100 57//57 126//126
f 128//128 75//75 129//129
f 130//130 78//78 131//131
f 132//132 81//81 133//133
f 134//134 84//84 135//135
f 136//136 87//87 137//137
f 76//76 90//90 138//138
f 73//73 93//93 139//139
f 85//85 96//96 140//140
f 82//82 99//99 141//141
f 79//79 102//102 142//142
f 143//143 105//105 144//144
f 145//145 108//108 146//146
f 147//147 111//111 148//148
f 149//149 114//114 150//150
f 151//151 117//117 152//152
f 103//103 119//119 153//153
f 106//106 121//121 154//154
f 109//109 123//123 155//155
f 112//112 125//125 156//156
f 115//115 127//127 157//157
f 129//129 3//3 2//2
f 131//131 4//4 3//3
f 133//133 5//5 4//4
f 135//135 6//6 5//5
f 137//137 2//2 6//6
f 138//138 9//9 8//8
f 139//139 12//12 11//11
f 140//140 15//15 14//14
f 141//141 18//18 17//17
f 142//142 21//21 20//20
f 144//144 24//24 23//23
f 146//146 25//25 24//24
f 148//148 26//26 25//25
f 150//150 27//27 26//26
f 152//152 23//23 27//27
f 153//153 30//30 29//29
f 154//154 33//33 32//32
f 155//155 36//36 35//35
f 156//156 39//39 38//38
f 157//157 42//42 41//41
f 75//75 44//44 43//43
f 78//78 46//46 45//45
f 81//81 48//48 47//47
f 84//84 50//50 49//49
f 87//87 52//52 51//51
f 90//90 45//45 53//53
f 93//93 43//43 54//54
f 96//96 51//51 55//55
f 99//99 49//49 56//56
f 102//102 47//47 57//57
f 105//105 59//59 58//58
f 108//108 61//61 60//60
f 111//111 63//63 62//62
f 114//114 65//65 64//64
f 117//117 67//67 66//66
f 119//119 58//58 68//68
f 121//121 60//60 69//69
f 123//123 62//62 70//70
f 125//125 64//64 71//71
f 127//127 66//66 72//72
f 74//74 11//11 46//46
f 77//77 8//8 48//48
f 80//80 20//20 50//50
f 83//83 17//17 52//52
f 86//86 14//14 44//44
f 89//89 68//68 42//42
f 92//92 69//69 30//30
f 95//95 70//70 33//33
f 98//98 71//71 36//36
f 101//101 72//72 39//39
f 104//104 29//29 61//61
f 107//107 32//32 63//63
f 110//110 35//35 65//65
f 113//113 38//38 67//67
f 116//116 41//41 59//59
f 118//118 53//53 12//12
f 120//120 54//54 15//15
f 122//122 55//55 18//18
f 124//124 56//56 21//21
f 126//126 57//57 9//9
f 129//129 75//75 74//74
f 131//131 78//78 77//77
f 133//133 81//81 80//80
f 135//135 84//84 83//83
f 137//137 87//87 86//86
f 138//138 90//90 89//89
f 139//139 93//93 92//92
f 140//140 96//96 95//95
f 141//141 99//99 98//98
f 142//142 102//102 101//101
f 144//144 105//105 104//104
f 146//146 108//108 107//107
f 148//148 111//111 110//110
f 150//150 114//114 113//113
f 152//152 117//117 116//116
f 153//153 119//119 118//118
f 154//154 121//121 120//120
f 155//155 123//123 122//122
f 156//156 125//125 124//124
f 157//157 127//127 126//126
