# Created by Open3D 
# object name: part_013
# number of vertices: 162
# number of triangles: 320
v -1.37947 6.18052 0.871193
vn 0.258754 0.111733 -0.959459
v -1.35984 6.16741 0.877732
vn 0.569045 0.101348 -0.816037
v -1.37853 6.15796 0.870667
vn 0.254534 -0.145111 -0.956115
v -1.40505 6.16861 0.86656
vn 0.038647 0.0113499 -0.999188
v -1.39301 6.18978 0.870468
vn 0.0202772 0.359391 -0.932967
v -1.37364 6.19773 0.877543
vn 0.446044 0.374717 -0.812793
v -2.19309 5.81025 0.850975
vn -0.214467 -0.103625 -0.971219
v -2.17668 5.79473 0.850833
vn -0.018267 -0.269262 -0.962894
v -2.19635 5.78672 0.856945
vn -0.416094 -0.346988 -0.840515
v -1.77705 5.97427 0.876389
vn 0.414522 -0.909858 -0.0181439
v -1.39803 6.14677 0.891662
vn 0.415033 -0.90977 -0.00811409
v -1.7774 5.97397 0.895881
vn 0.414128 -0.910209 0.00414822
v -1.35762 6.16809 1.19471
vn 0.508774 -0.860863 0.00805466
v -1.35284 6.17157 1.19483
vn 0.998843 -0.0423712 0.0227337
v -1.36375 6.16748 1.48151
vn 0.572579 -0.819725 0.0142743
v -1.37316 6.20223 1.1945
vn -0.314708 0.949183 -0.00323191
v -1.37522 6.20016 0.92098
vn -0.373615 0.927568 -0.00537616
v -1.38776 6.19787 1.4676
vn -0.373645 0.927563 -0.00397251
v -1.70931 6.04834 0.878254
vn -0.413429 0.910058 -0.0294919
v -2.15432 5.84536 0.858533
vn -0.412475 0.908776 -0.0631732
v -2.17263 5.83756 0.872596
vn -0.414286 0.909939 -0.0194317
v -2.2079 5.80754 1.49676
vn -0.258755 -0.111734 0.959459
v -2.21088 5.78406 1.49045
vn -0.454131 -0.353952 0.817608
v -2.19151 5.79201 1.49752
vn -0.0623475 -0.277335 0.958748
v -2.18213 5.81905 1.5014
vn -0.0386468 -0.0113496 0.999188
v -2.20598 5.82383 1.49733
vn -0.28863 0.230482 0.929285
v -2.22467 5.81438 1.49026
vn -0.579373 -0.0816575 0.810962
v -1.79117 5.97169 1.49183
vn 0.413429 -0.910058 0.0294919
v -2.17016 5.79915 1.47655
vn 0.413075 -0.910489 0.0194715
v -1.79062 5.97155 1.47234
vn 0.414058 -0.910222 0.00720429
v -1.39428 6.17781 1.51698
vn 0.214467 0.103625 0.971219
v -1.39336 6.15524 1.51736
vn 0.210454 -0.153187 0.965527
v -1.37437 6.16475 1.51124
vn 0.531014 0.0943806 0.84209
v -1.72343 6.04576 1.49369
vn -0.414522 0.909858 0.0181435
v -1.44619 6.17157 1.50924
vn -0.414269 0.908628 0.0526918
v -1.4282 6.18011 1.49517
vn -0.413535 0.910451 0.00826215
v -2.22689 5.8137 1.17328
vn -0.508774 0.860863 -0.00805466
v -2.22526 5.81673 1.44679
vn -0.453775 0.891096 -0.00596357
v -2.21272 5.81902 0.900169
vn -0.453742 0.891103 -0.00736833
v -2.21136 5.77956 1.1735
vn 0.314708 -0.949183 0.00323185
v -2.21713 5.77824 1.17336
vn -0.624249 -0.781027 -0.0175993
v -2.20553 5.78082 0.886689
vn 0.241804 -0.97032 -0.00311173
v -1.35925 6.16506 0.921199
vn 0.453774 -0.891097 0.00596365
v -1.35059 6.16989 0.907934
vn 0.572802 -0.819678 0.00511253
v -2.13833 5.81022 0.858752
vn 0.414308 -0.908636 -0.0522423
v -1.41568 6.13909 0.876709
vn 0.415145 -0.908255 -0.052218
v -2.19115 5.82655 0.850635
vn -0.245759 0.238332 -0.939575
v -2.16714 5.82179 0.847623
vn 0.00721143 -0.00295574 -0.99997
v -1.41435 6.18264 0.891438
vn -0.412897 0.910568 -0.0195745
v -1.43167 6.17423 0.87649
vn -0.411592 0.909118 -0.0640014
v -1.36738 6.20355 1.19463
vn 0.4914 0.870806 0.014929
v -1.36583 6.20338 0.907725
vn -0.241571 0.970364 -0.00604863
v -2.15631 5.80168 0.872819
vn 0.413709 -0.910373 -0.008148
v -1.37179 6.16277 1.46782
vn 0.45374 -0.891103 0.00736825
v -1.37899 6.20097 1.4813
vn -0.241803 0.97032 0.00311179
v -1.70882 6.04896 0.897769
vn -0.414058 0.910222 -0.0072043
v -2.21014 5.81704 0.856756
vn -0.541564 -0.0747337 -0.837331
v -2.20929 5.78162 1.44701
vn 0.373615 -0.927568 0.00537611
v -2.21868 5.77841 1.46027
vn 0.241569 -0.970365 0.00604857
v -1.4302 6.13643 1.50946
vn 0.41249 -0.908742 0.0635628
v -2.15284 5.80756 1.4915
vn 0.411653 -0.909123 0.0635347
v -1.40784 6.18706 1.51716
vn -0.0225979 0.351549 0.935897
v -1.42005 6.16587 1.52033
vn -0.00721143 0.00295581 0.99997
v -2.18648 5.83502 1.47633
vn -0.414917 0.909824 0.00805112
v -2.16883 5.8427 1.49128
vn -0.415113 0.908293 0.051814
v -2.23168 5.81022 1.17316
vn -0.979243 0.201533 -0.0216155
v -2.23392 5.8119 1.46006
vn -0.572802 0.819678 -0.00511245
v -2.19675 5.78392 0.900388
vn 0.373645 -0.927563 0.00397241
v -1.41188 6.14423 1.4954
vn 0.414399 -0.909886 0.0195019
v -1.38817 6.19507 1.51105
vn 0.408235 0.3678 0.835504
v -1.72205 6.04653 1.47422
vn -0.414128 0.910209 -0.00414776
v -2.22076 5.81431 0.88648
vn -0.572579 0.819726 -0.0142742
v -1.37268 6.15851 0.902372
vn 0.427481 -0.904017 0.00361367
v -1.37886 6.15592 0.882829
vn 0.430735 -0.901594 -0.039941
v -1.35958 6.16509 0.89322
vn 0.464376 -0.885226 -0.0270119
v -2.16292 5.7997 0.853241
vn 0.407689 -0.897976 -0.165619
v -2.13926 5.81172 0.848592
vn 0.116692 -0.211672 -0.970349
v -1.77708 5.97518 0.861211
vn 0.411699 -0.895379 -0.169707
v -2.17837 5.83367 0.853029
vn -0.407583 0.895766 -0.177421
v -1.71253 6.04577 0.862989
vn -0.403658 0.896852 -0.180878
v -2.15375 5.84357 0.848394
vn -0.127548 0.323257 -0.937676
v -1.3889 6.19415 0.902149
vn -0.400607 0.916217 -0.00773633
v -1.37528 6.19961 0.893005
vn -0.362068 0.931363 -0.0383328
v -1.39482 6.19099 0.88261
vn -0.396451 0.916623 -0.0512724
v -1.35995 6.19167 1.19476
vn 0.909947 0.414107 0.0226117
v -1.34711 6.17337 0.907702
vn 0.951739 0.306901 -0.00223039
v -1.36092 6.20372 0.907512
vn 0.847822 0.530269 -0.00351567
v -2.18223 5.79009 0.882255
vn 0.400713 -0.916199 0.00294913
v -2.19541 5.78471 0.87245
vn 0.363618 -0.931081 -0.0295037
v -2.17542 5.79341 0.863035
vn 0.398558 -0.916238 -0.0407412
v -1.38607 6.15606 1.48596
vn 0.427377 -0.904034 0.00840254
v -1.41072 6.14437 1.46716
vn 0.414755 -0.909913 0.00600802
v -1.3773 6.15812 1.19422
vn 0.427103 -0.904183 0.00599931
v -1.38191 6.19909 1.50063
vn 0.267786 0.905009 0.330529
v -1.37395 6.18716 1.50231
vn 0.804694 0.368985 0.4651
v -1.37409 6.20131 1.48174
vn 0.846668 0.530057 0.0468375
v -1.71514 6.04797 1.186
vn -0.414094 0.910217 -0.00567555
v -1.4272 6.1806 1.46694
vn -0.413253 0.9106 -0.00533765
v -1.41465 6.1829 0.919692
vn -0.413239 0.910603 -0.00597151
v -2.21733 5.81508 0.867158
vn -0.856622 0.389297 -0.338596
v -2.21112 5.81923 0.872235
vn -0.462812 0.885515 -0.0408337
v -2.20398 5.82172 0.857549
vn -0.47295 0.86827 -0.149753
v -2.19562 5.78763 1.46584
vn 0.400607 -0.916217 0.00773668
v -2.1897 5.7908 1.48538
vn 0.396452 -0.916623 0.0512714
v -2.20923 5.78218 1.47499
vn 0.36207 -0.931363 0.0383332
v -1.40614 6.14812 1.51496
vn 0.408268 -0.895574 0.176817
v -1.43077 6.13822 1.5196
vn 0.0783315 -0.217008 0.973022
v -1.7919 5.97247 1.50699
vn 0.403658 -0.896852 0.18088
v -1.4216 6.18209 1.51475
vn -0.406838 0.898519 0.164762
v -1.72734 6.04306 1.50877
vn -0.411699 0.895378 0.169712
v -1.44526 6.17007 1.5194
vn -0.14906 0.284237 0.947096
v -2.21184 5.82328 1.46562
vn -0.427482 0.904016 -0.00361328
v -2.22494 5.8167 1.47477
vn -0.464376 0.885226 0.0270119
v -2.20565 5.82587 1.48516
vn -0.430735 0.901594 0.039941
v -2.22761 5.79681 1.17319
vn -0.909948 -0.414107 -0.0226118
v -2.22359 5.77807 1.46048
vn -0.856706 -0.515793 0.00353362
v -2.23741 5.80842 1.46029
vn -0.956815 -0.29069 0.00202171
v -2.15731 5.80119 0.901054
vn 0.413431 -0.91052 0.00534289
v -2.19092 5.78784 1.174
vn 0.400992 -0.916066 0.00535032
v -1.3734 6.16256 1.49576
vn 0.462813 -0.885515 0.0408334
v -1.39314 6.15331 1.50518
vn 0.428622 -0.901982 0.0520745
v -1.38911 6.19708 1.49554
vn -0.363618 0.931081 0.0295052
v -1.39574 6.19349 1.51023
vn -0.344468 0.928517 0.138559
v -2.17379 5.83742 0.900828
vn -0.414639 0.909966 -0.00600451
v -2.18634 5.83512 1.44807
vn -0.414654 0.909963 -0.00537425
v -2.21356 5.80121 0.865646
vn -0.804692 -0.368986 -0.465101
v -2.22423 5.81084 0.886059
vn -0.95566 -0.290478 -0.0483311
v -1.35314 6.16929 0.888469
vn 0.909705 -0.225006 -0.349012
v -1.36603 6.16272 0.878202
vn 0.479499 -0.867064 -0.135203
v -1.39141 6.15081 0.872413
vn 0.416118 -0.894137 -0.165421
v -1.41579 6.14096 0.86657
vn 0.122904 -0.208846 -0.970195
v -1.78625 5.99562 0.855818
vn 0.0229324 0.00419752 -0.999728
v -1.43028 6.17282 0.866371
vn -0.105536 0.292215 -0.950512
v -1.40686 6.18478 0.872201
vn -0.399031 0.899951 -0.175679
v -1.38123 6.19615 0.877994
vn -0.337932 0.929714 -0.146405
v -1.36787 6.20166 0.888267
vn 0.282498 0.907694 -0.3103
v -1.35983 6.18974 0.88686
vn 0.8251 0.372725 -0.424602
v -2.18878 5.78829 0.857757
vn 0.344469 -0.928517 -0.138557
v -1.39817 6.14667 0.919918
vn 0.41477 -0.90991 0.00537646
v -1.36028 6.17095 1.48193
vn 0.950577 0.306685 0.048443
v -1.39359 6.19394 1.19399
vn -0.400992 0.916066 -0.0053504
v -2.19138 5.82848 0.862816
vn -0.428623 0.901982 -0.0520754
v -2.21665 5.78013 1.47973
vn -0.429758 -0.829976 0.355595
v -2.20328 5.78564 1.49
vn 0.337933 -0.929713 0.146404
v -2.17766 5.797 1.49579
vn 0.39984 -0.899414 0.176587
v -2.15423 5.80897 1.50162
vn 0.0721191 -0.219834 0.972868
v -1.80131 5.99286 1.51213
vn -0.0229324 -0.00419738 0.999728
v -2.16873 5.84083 1.50142
vn -0.170465 0.315388 0.933527
v -2.19311 5.83098 1.49558
vn -0.415463 0.894323 0.166062
v -2.21849 5.81906 1.48979
vn -0.479497 0.867066 0.1352
v -2.23137 5.8125 1.47952
vn -0.871317 0.386611 0.302222
v -2.22768 5.79863 1.48109
vn -0.825099 -0.372726 0.424602
v -2.16986 5.79889 1.4483
vn 0.413417 -0.910522 0.00597506
v -1.38053 6.16007 1.51044
vn 0.472951 -0.868269 0.149753
v -1.40909 6.18838 1.50496
vn -0.398558 0.916238 0.0407411
v -2.20722 5.82367 1.17378
vn -0.427104 0.904183 -0.00599936
v -2.21042 5.78048 0.886249
vn -0.855544 -0.515579 -0.0471408
v -2.2026 5.7827 0.86736
vn -0.412827 -0.82689 -0.381874
v -1.78398 5.97269 1.18411
vn 0.414094 -0.910217 0.00567544
v -1.36719 6.16671 1.50083
vn 0.892791 -0.228109 0.388447
v -1.40228 6.1917 1.48574
vn -0.400714 0.916199 -0.00294901
v -2.19845 5.82573 0.882032
vn -0.427377 0.904034 -0.00840269
f 1//1 2//2 3//3
f 1//1 3//3 4//4
f 1//1 4//4 5//5
f 1//1 5//5 6//6
f 1//1 6//6 2//2
f 7//7 8//8 9//9
f 10//10 11//11 12//12
f 13//13 14//14 15//15
f 16//16 17//17 18//18
f 19//19 20//20 21//21
f 22//22 23//23 24//24
f 22//22 24//24 25//25
f 22//22 25//25 26//26
f 22//22 26//26 27//27
f 22//22 27//27 23//23
f 28//28 29//29 30//30
f 31//31 32//32 33//33
f 34//34 35//35 36//36
f 37//37 38//38 39//39
f 40//40 41//41 42//42
f 13//13 43//43 44//44
f 10//10 45//45 46//46
f 7//7 47//47 48//48
f 19//19 49//49 50//50
f 16//16 51//51 52//52
f 10//10 53//53 45//45
f 13//13 54//54 43//43
f 16//16 55//55 51//51
f 19//19 56//56 49//49
f 7//7 57//57 47//47
f 40//40 58//58 59//59
f 28//28 60//60 61//61
f 31//31 62//62 63//63
f 34//34 64//64 65//65
f 37//37 66//66 67//67
f 40//40 68//68 58//58
f 28//28 69//69 60//60
f 31//31 70//70 62//62
f 34//34 71//71 64//64
f 37//37 72//72 66//66
f 10//10 46//46 11//11
f 7//7 48//48 8//8
f 19//19 50//50 20//20
f 16//16 52//52 17//17
f 13//13 44//44 14//14
f 40//40 42//42 68//68
f 28//28 30//30 69//69
f 31//31 33//33 70//70
f 34//34 36//36 71//71
f 37//37 39//39 72//72
f 28//28 61//61 29//29
f 31//31 63//63 32//32
f 34//34 65//65 35//35
f 37//37 67//67 38//38
f 40//40 59//59 41//41
f 10//10 12//12 53//53
f 13//13 15//15 54//54
f 16//16 18//18 55//55
f 19//19 21//21 56//56
f 7//7 9//9 57//57
f 73//73 74//74 75//75
f 76//76 77//77 78//78
f 79//79 80//80 81//81
f 82//82 83//83 84//84
f 85//85 86//86 87//87
f 88//88 89//89 90//90
f 91//91 92//92 93//93
f 94//94 95//95 96//96
f 97//97 98//98 99//99
f 100//100 101//101 102//102
f 103//103 104//104 105//105
f 106//106 107//107 108//108
f 109//109 110//110 111//111
f 112//112 113//113 114//114
f 115//115 116//116 117//117
f 88//88 118//118 119//119
f 91//91 120//120 121//121
f 94//94 122//122 123//123
f 97//97 124//124 125//125
f 100//100 126//126 127//127
f 128//128 129//129 2//2
f 130//130 131//131 3//3
f 132//132 133//133 4//4
f 134//134 135//135 5//5
f 136//136 137//137 6//6
f 76//76 138//138 8//8
f 73//73 139//139 11//11
f 85//85 140//140 14//14
f 82//82 141//141 17//17
f 79//79 142//142 20//20
f 143//143 144//144 23//23
f 145//145 146//146 24//24
f 147//147 148//148 25//25
f 149//149 150//150 26//26
f 151//151 152//152 27//27
f 103//103 153//153 29//29
f 106//106 154//154 32//32
f 109//109 155//155 35//35
f 112//112 156//156 38//38
f 115//115 157//157 41//41
f 73//73 75//75 43//43
f 76//76 78//78 45//45
f 79//79 81//81 47//47
f 82//82 84//84 49//49
f 85//85 87//87 51//51
f 88//88 90//90 53//53
f 91//91 93//93 54//54
f 94//94 96//96 55//55
f 97//97 99//99 56//56
f 100//100 102//102 57//57
f 103//103 105//105 58//58
f 106//106 108//108 60//60
f 109//109 111//111 62//62
f 112//112 114//114 64//64
f 115//115 117//117 66//66
f 88//88 119//119 68//68
f 91//91 121//121 69//69
f 94//94 123//123 70//70
f 97//97 125//125 71//71
f 100//100 127//127 72//72
f 130//130 74//74 46//46
f 132//132 77//77 48//48
f 134//134 80//80 50//50
f 136//136 83//83 52//52
f 128//128 86//86 44//44
f 158//158 89//89 42//42
f 159//159 92//92 30//30
f 160//160 95//95 33//33
f 161//161 98//98 36//36
f 162//162 101//101 39//39
f 145//145 104//104 61//61
f 147//147 107//107 63//63
f 149//149 110//110 65//65
f 151//151 113//113 67//67
f 143//143 116//116 59//59
f 159//159 118//118 12//12
f 160//160 120//120 15//15
f 161//161 122//122 18//18
f 162//162 124//124 21//21
f 158//158 126//126 9//9
f 130//130 129//129 74//74
f 132//132 131//131 77//77
f 134//134 133//133 80//80
f 136//136 135//135 83//83
f 128//128 137//137 86//86
f 158//158 138//138 89//89
f 159//159 139//139 92//92
f 160//160 140//140 95//95
f 161//161 141//141 98//98
f 162//162 142//142 101//101
f 145//145 144//144 104//104
f 147//147 146//146 107//107
f 149//149 148//148 110//110
f 151//151 150//150 113//113
f 143//143 152//152 116//116
f 159//159 153//153 118//118
f 160//160 154//154 120//120
f 161//161 155//155 122//122
f 162//162 156//156 124//124
f 158//158 157//157 126//126
f 130//130 3//3 129//129
f 132//132 4//4 131//131
f 134//134 5//5 133//133
f 136//136 6//6 135//135
f 128//128 2//2 137//137
f 158//158 9//9 138//138
f 159//159 12//12 139//139
f 160//160 15//15 140//140
f 161//161 18//18 141//141
f 162//162 21//21 142//142
f 145//145 24//24 144//144
f 147//147 25//25 146//146
f 149//149 26//26 148//148
f 151//151 27//27 150//150
f 143//143 23//23 152//152
f 159//159 30//30 153//153
f 160//160 33//33 154//154
f 161//161 36//36 155//155
f 162//162 39//39 156//156
f 158//158 42//42 157//157
f 128//128 44//44 75//75
f 130//130 46//46 78//78
f 132//132 48//48 81//81
f 134//134 50//50 84//84
f 136//136 52//52 87//87
f 76//76 45//45 90//90
f 73//73 43//43 93//93
f 85//85 51//51 96//96
f 82//82 49//49 99//99
f 79//79 47//47 102//102
f 143//143 59//59 105//105
f 145//145 61//61 108//108
f 147//147 63//63 111//111
f 149//149 65//65 114//114
f 151//151 67//67 117//117
f 103//103 58//58 119//119
f 106//106 60//60 121//121
f 109//109 62//62 123//123
f 112//112 64//64 125//125
f 115//115 66//66 127//127
f 73//73 11//11 74//74
f 76//76 8//8 77//77
f 79//79 20//20 80//80
f 82//82 17//17 83//83
f 85//85 14//14 86//86
f 88//88 68//68 89//89
f 91//91 69//69 92//92
f 94//94 70//70 95//95
f 97//97 71//71 98//98
f 100//100 72//72 101//101
f 103//103 29//29 104//104
f 106//106 32//32 107//107
f 109//109 35//35 110//110
f 112//112 38//38 113//113
f 115//115 41//41 116//116
f 88//88 53//53 118//118
f 91//91 54//54 120//120
f 94//94 55//55 122//122
f 97//97 56//56 124//124
f 100//100 57//57 126//126
f 128//128 75//75 129//129
f 130//130 78//78 131//131
f 132//132 81//81 133//133
f 134//134 84//84 135//135
f 136//136 87//87 137//137
f 76//76 90//90 138//138
f 73//73 93//93 139//139
f 85//85 96//96 140//140
f 82//82 99//99 141//141
f 79//79 102//102 142//142
f 143//143 105//105 144//144
f 145//145 108//108 146//146
f 147//147 111//111 148//148
f 149//149 114//114 150//150
f 151//151 117//117 152//152
f 103//103 119//119 153//153
f 106//106 121//121 154//154
f 109//109 123//123 155//155
f 112//112 125//125 156//156
f 115//115 127//127 157//157
f 129//129 3//3 2//2
f 131//131 4//4 3//3
f 133//133 5//5 4//4
f 135//135 6//6 5//5
f 137//137 2//2 6//6
f 138//138 9//9 8//8
f 139//139 12//12 11//11
f 140//140 15//15 14//14
f 141//141 18//18 17//17
f 142//142 21//21 20//20
f 144//144 24//24 23//23
f 146//146 25//25 24//24
f 148//148 26//26 25//25
f 150//150 27//27 26//26
f 152//152 23//23 27//27
f 153//153 30//30 29//29
f 154//154 33//33 32//32
f 155//155 36//36 35//35
f 156//156 39//39 38//38
f 157//157 42//42 41//41
f 75//75 44//44 43//43
f 78//78 46//46 45//45
f 81//81 48//48 47//47
f 84//84 50//50 49//49
f 87//87 52//52 51//51
f 90//90 45//45 53//53
f 93//93 43//43 54//54
f 96//96 51//51 55//55
f 99//99 49//49 56//56
f 102//102 47//47 57//57
f 105//105 59//59 58//58
f 108//108 61//61 60//60
f 111//111 63//63 62//62
f 114//114 65//65 64//64
f 117//117 67//67 66//66
f 119//119 58//58 68//68
f 121//121 60//60 69//69
f 123//123 62//62 70//70
f 125//125 64//64 71//71
f 127//127 66//66 72//72
f 74//74 11//11 46//46
f 77//77 8//8 48//48
f 80//80 20//20 50//50
f 83//83 17//17 52//52
f 86//86 14//14 44//44
f 89//89 68//68 42//42
f 92//92 69//69 30//30
f 95//95 70//70 33//33
f 98//98 71//71 36//36
f 101//101 72//72 39//39
f 104//104 29//29 61//61
f 107//107 32//32 63//63
f 110//110 35//35 65//65
f 113//113 38//38 67//67
f 116//116 41//41 59//59
f 118//118 53//53 12//12
f 120//120 54//54 15//15
f 122//122 55//55 18//18
f 124//124 56//56 21//21
f 126//126 57//57 9//9
f 129//129 75//75 74//74
f 131//131 78//78 77//77
f 133//133 81//81 80//80
f 135//135 84//84 83//83
f 137//137 87//87 86//86
f 138//138 90//90 89//89
f 139//139 93//93 92//92
f 140//140 96//96 95//95
f 141//141 99//99 98//98
f 142//142 102//102 101//101
f 144//144 105//105 104//104
f 146//146 108//108 107//107
f 148//148 111//111 110//110
f 150//150 114//114 113//113
f 152//152 117//117 116//116
f 153//153 119//119 118//118
f 154//154 121//121 120//120
f 155//155 123//123 122//122
f 156//156 125//125 124//124
f 157//157 127//127 126//126
