# Created by Open3D 
# object name: part_018
# number of vertices: 162
# number of triangles: 320
v -1.65013 6.03038 0.530208
vn 0.106095 0.286512 -0.952184
v -1.63784 6.01369 0.527474
vn 0.356108 0.312164 -0.880761
v -1.64614 6.01013 0.525174
vn 0.0555293 0.18859 -0.980485
v -1.66146 6.02606 0.528857
vn -0.0692722 0.223223 -0.972303
v -1.6585 6.0418 0.533325
vn -0.0108225 0.358372 -0.933516
v -1.64963 6.04387 0.535241
vn 0.321746 0.407943 -0.854437
v -2.00698 5.89141 0.52887
vn -0.265718 0.141716 -0.953578
v -1.9962 5.87381 0.523861
vn -0.162071 0.103858 -0.981298
v -2.00473 5.87081 0.526098
vn -0.467681 -0.0086535 -0.883855
v -1.81998 5.93887 0.528926
vn 0.346719 -0.887364 -0.303927
v -1.65353 6.00319 0.531387
vn 0.351438 -0.895089 -0.274422
v -1.81938 5.93727 0.535008
vn 0.353264 -0.904807 -0.237758
v -1.62497 5.99084 0.626764
vn 0.569401 -0.790573 -0.225336
v -1.62307 5.99282 0.62705
vn 0.985657 0.162351 -0.0460767
v -1.61726 5.97097 0.717177
vn 0.695121 -0.690566 -0.199811
v -1.63823 6.02482 0.63551
vn -0.116716 0.966868 0.227033
v -1.64919 6.04325 0.549536
vn -0.256596 0.938704 0.230201
v -1.63477 6.00457 0.721704
vn -0.256246 0.937761 0.2344
v -1.79704 5.98888 0.538241
vn -0.358676 0.91944 0.161186
v -1.99246 5.91308 0.534695
vn -0.363361 0.929762 0.0592553
v -2.00004 5.90938 0.539329
vn -0.358096 0.913791 0.191713
v -1.98994 5.8457 0.732269
vn -0.106092 -0.286511 0.952185
v -1.98801 5.82597 0.725629
vn -0.321784 -0.400082 0.858132
v -1.97914 5.82804 0.727546
vn -0.00078213 -0.328843 0.944384
v -1.97846 5.84962 0.733518
vn 0.06927 -0.223224 0.972303
v -1.9915 5.8597 0.735697
vn -0.0675385 -0.157649 0.985183
v -1.99979 5.85615 0.733397
vn -0.361705 -0.305543 0.880802
v -1.80374 5.89531 0.722767
vn 0.358675 -0.919439 -0.161196
v -1.97017 5.83094 0.720294
vn 0.355221 -0.914953 -0.19152
v -1.80417 5.89647 0.716571
vn 0.354033 -0.906871 -0.228573
v -1.6331 5.98467 0.733607
vn 0.265723 -0.141714 0.953577
v -1.62908 5.96437 0.728858
vn 0.216829 -0.244106 0.945197
v -1.62113 5.96885 0.727005
vn 0.502002 -0.079267 0.861226
v -1.7808 5.94532 0.732083
vn -0.346717 0.88736 0.30394
v -1.65883 5.99173 0.735178
vn -0.332479 0.853038 0.402223
v -1.65154 5.99617 0.730731
vn -0.347823 0.8964 0.274748
v -2.01267 5.879 0.634106
vn -0.569399 0.790575 0.225336
v -2.00209 5.86152 0.720326
vn -0.447015 0.863464 0.233684
v -2.01651 5.9002 0.548159
vn -0.447361 0.86441 0.229484
v -1.99941 5.84502 0.62536
vn 0.116717 -0.966868 -0.227034
v -2.00214 5.84519 0.625629
vn -0.835524 -0.546901 -0.0529064
v -2.00736 5.86554 0.535114
vn -0.0458262 -0.972519 -0.22827
v -1.63555 6.00832 0.540545
vn 0.447017 -0.863463 -0.233684
v -1.6324 6.01156 0.53652
vn 0.69298 -0.684784 -0.225499
v -1.97881 5.87811 0.525693
vn 0.332771 -0.85353 -0.400936
v -1.66187 6.00154 0.526881
vn 0.334741 -0.852758 -0.400939
v -2.00856 5.90547 0.532012
vn -0.228316 0.273664 -0.934334
v -1.9957 5.89589 0.527603
vn -0.0936129 0.213751 -0.972392
v -1.66747 6.03889 0.540576
vn -0.354822 0.915175 0.191198
v -1.67552 6.03651 0.535884
vn -0.361419 0.930678 0.0567055
v -1.6355 6.02465 0.635242
vn 0.784087 0.616364 0.0728235
v -1.64541 6.0449 0.5451
vn 0.0437368 0.97829 0.202574
v -1.9861 5.87367 0.530139
vn 0.348276 -0.896321 -0.27443
v -1.62113 5.96963 0.712712
vn 0.447359 -0.864411 -0.229485
v -1.63028 6.0043 0.725757
vn 0.0458298 0.972519 0.22827
v -1.79616 5.9879 0.544439
vn -0.354033 0.906871 0.228575
v -2.01651 5.90099 0.533866
vn -0.507302 0.0850739 -0.857559
v -1.98845 5.82658 0.711334
vn 0.256596 -0.938704 -0.230201
v -1.99223 5.82494 0.715771
vn -0.0437368 -0.97829 -0.202574
v -1.64517 5.95676 0.726175
vn 0.363459 -0.929797 -0.0580933
v -1.96212 5.83332 0.724987
vn 0.361486 -0.930565 -0.0581124
v -1.64144 5.99603 0.737009
vn 0.149958 -0.0729446 0.985998
v -1.64422 5.97979 0.734772
vn 0.0936149 -0.213753 0.972392
v -1.98411 5.86665 0.729484
vn -0.351185 0.89525 0.27422
v -1.97577 5.8683 0.733989
vn -0.334831 0.853225 0.39987
v -2.01457 5.87702 0.63382
vn -0.994877 -0.076451 0.0661507
v -2.00524 5.85827 0.72435
vn -0.69298 0.684784 0.225499
v -2.00287 5.86527 0.539167
vn 0.256244 -0.937761 -0.2344
v -1.6376 5.96046 0.721541
vn 0.358384 -0.913722 -0.191504
v -1.63291 5.99903 0.734773
vn 0.467329 0.017322 0.883914
v -1.78095 5.9471 0.726002
vn -0.353264 0.904808 0.237756
v -2.02037 5.89887 0.543693
vn -0.695119 0.690568 0.199811
v -1.64206 6.00697 0.534631
vn 0.384824 -0.891217 -0.240091
v -1.64553 6.00752 0.52859
vn 0.376467 -0.850475 -0.367376
v -1.63677 6.01044 0.531812
vn 0.459463 -0.824513 -0.330261
v -1.98988 5.87486 0.524259
vn 0.264093 -0.698376 -0.665227
v -1.9799 5.88039 0.52292
vn -0.0560056 0.146027 -0.987694
v -1.8207 5.94078 0.524363
vn 0.270615 -0.688394 -0.672964
v -2.00308 5.90867 0.532962
vn -0.357646 0.898131 -0.255833
v -1.79884 5.98844 0.533241
vn -0.349124 0.89901 -0.264375
v -1.99227 5.91209 0.53108
vn -0.126187 0.325528 -0.937074
v -1.65591 6.04245 0.543762
vn -0.32206 0.919359 0.225958
v -1.65018 6.0448 0.540656
vn -0.238206 0.962513 0.129716
v -1.65916 6.04242 0.537574
vn -0.323205 0.941654 0.0939442
v -1.62985 6.01235 0.632005
vn 0.931824 0.362895 0.00349482
v -1.63118 6.01386 0.536826
vn 0.944882 0.324859 -0.0407963
v -1.64297 6.04407 0.544603
vn 0.906992 0.420847 -0.0158944
v -1.99712 5.86869 0.533299
vn 0.320838 -0.916135 -0.24033
v -2.00335 5.86768 0.530437
vn 0.221347 -0.91725 -0.331146
v -1.9949 5.87146 0.527279
vn 0.300283 -0.880148 -0.367653
v -1.62667 5.96567 0.71844
vn 0.386025 -0.894448 -0.225717
v -1.63809 5.96236 0.712601
vn 0.355332 -0.905437 -0.232211
v -1.63344 5.98658 0.626516
vn 0.38466 -0.893188 -0.232919
v -1.63075 6.00191 0.731717
vn 0.625878 0.50351 0.595613
v -1.62476 5.98933 0.728902
vn 0.823442 0.183258 0.536991
v -1.62782 6.00344 0.725465
vn 0.912456 0.406189 0.049335
v -1.78843 5.96762 0.635239
vn -0.353653 0.905849 0.233167
v -1.65216 5.99841 0.721881
vn -0.351546 0.906422 0.234125
v -1.6666 6.03714 0.549518
vn -0.351705 0.906849 0.232223
v -2.01947 5.90015 0.537447
vn -0.890154 0.173411 -0.421373
v -2.01677 5.90204 0.539281
vn -0.476323 0.869781 0.128836
v -2.01408 5.90366 0.534473
vn -0.499168 0.84731 -0.181378
v -1.98173 5.82739 0.717109
vn 0.32206 -0.919359 -0.225958
v -1.97848 5.82741 0.723296
vn 0.323205 -0.941654 -0.0939442
v -1.98746 5.82504 0.720215
vn 0.238206 -0.962513 -0.129716
v -1.63456 5.96117 0.727909
vn 0.359136 -0.897962 0.254332
v -1.64536 5.95775 0.72979
vn 0.11133 -0.287733 0.951218
v -1.80367 5.89508 0.727761
vn 0.349124 -0.89901 0.264375
v -1.64775 5.99497 0.736611
vn -0.262699 0.700485 0.663559
v -1.78181 5.94274 0.736639
vn -0.270617 0.688399 0.672959
v -1.65774 5.98945 0.737951
vn 0.045753 -0.119427 0.991788
v -1.99558 5.86287 0.72624
vn -0.384824 0.891217 0.240091
v -2.00087 5.85939 0.729059
vn -0.45946 0.824514 0.330261
v -1.99211 5.86232 0.732281
vn -0.376467 0.850475 0.367376
v -2.01039 5.86415 0.630578
vn -0.931824 -0.362894 -0.00349434
v -1.99467 5.82576 0.716268
vn -0.90994 -0.414359 0.0177595
v -2.00646 5.85598 0.724045
vn -0.947135 -0.318026 0.0423603
v -1.98548 5.87142 0.538989
vn 0.351972 -0.906258 -0.234122
v -1.99028 5.84761 0.625178
vn 0.322252 -0.917493 -0.233154
v -1.62087 5.9678 0.721589
vn 0.476315 -0.869784 -0.128839
v -1.62911 5.96347 0.724607
vn 0.399391 -0.911985 -0.0936462
v -1.63428 6.00216 0.730433
vn -0.221352 0.91725 0.331144
v -1.63655 5.99944 0.73496
vn -0.138678 0.786439 0.601899
v -1.99955 5.90748 0.548269
vn -0.355054 0.905545 0.232215
v -1.98511 5.86875 0.720632
vn -0.354896 0.90512 0.234107
v -2.01543 5.88706 0.533654
vn -0.823442 -0.183255 -0.536992
v -2.02161 5.89662 0.543182
vn -0.952602 -0.30336 -0.0228672
v -1.63433 6.01303 0.530551
vn 0.79712 0.159905 -0.582263
v -1.64024 6.01092 0.527264
vn 0.433657 -0.671574 -0.600774
v -1.65151 6.00664 0.525529
vn 0.282131 -0.691383 -0.665126
v -1.66259 6.00396 0.52411
vn -0.0510712 0.147944 -0.987676
v -1.82878 5.96147 0.527934
vn -0.0814491 0.218506 -0.972431
v -1.67497 6.03567 0.53227
vn -0.116206 0.315065 -0.941929
v -1.66471 6.04045 0.534231
vn -0.339395 0.906239 -0.252077
v -1.65323 6.04419 0.535826
vn -0.204167 0.962198 -0.180253
v -1.6469 6.04524 0.538844
vn 0.541162 0.730809 -0.416006
v -1.641 6.03288 0.535059
vn 0.733973 0.423274 -0.531152
v -2.00109 5.87039 0.525911
vn 0.13868 -0.786446 -0.60189
v -1.65252 6.00109 0.540238
vn 0.355174 -0.905011 -0.234109
v -1.61603 5.97322 0.717688
vn 0.950372 0.310132 0.0247355
v -1.64735 6.02223 0.635693
vn -0.322253 0.917492 0.233154
v -2.00852 5.90637 0.536264
vn -0.399393 0.911985 0.093644
v -1.99073 5.82459 0.722027
vn -0.60417 -0.65416 0.455031
v -1.98441 5.82565 0.725044
vn 0.204167 -0.962198 0.180253
v -1.97293 5.82939 0.72664
vn 0.341109 -0.904992 0.254232
v -1.96267 5.83417 0.7286
vn 0.106395 -0.289651 0.951201
v -1.81146 5.91502 0.73465
vn 0.0814493 -0.218507 0.97243
v -1.97505 5.86588 0.736761
vn 0.0355068 -0.108255 0.993489
v -1.98613 5.8632 0.735342
vn -0.280418 0.69095 0.666298
v -1.9974 5.85891 0.733607
vn -0.433657 0.671574 0.600774
v -2.00331 5.85681 0.73032
vn -0.805418 -0.0539126 0.590251
v -1.9992 5.8435 0.727497
vn -0.733973 -0.423274 0.531152
v -1.97104 5.83269 0.711352
vn 0.352131 -0.906684 -0.232224
v -1.62356 5.96618 0.726397
vn 0.499165 -0.84731 0.181383
v -1.64274 5.99838 0.733591
vn -0.300283 0.880149 0.367651
v -2.0042 5.88326 0.634355
vn -0.384661 0.893188 0.232919
v -2.00982 5.8664 0.535406
vn -0.91543 -0.399632 -0.0477724
v -2.00689 5.86793 0.529153
vn -0.691504 -0.419835 -0.587845
v -1.81175 5.9168 0.625772
vn 0.353653 -0.905849 -0.233167
v -1.61817 5.96969 0.723424
vn 0.884472 -0.0744301 0.460618
v -1.64052 6.00114 0.727571
vn -0.32084 0.916135 0.24033
v -2.01097 5.90417 0.54243
vn -0.386027 0.894447 0.225717
f 1//1 2//2 3//3
f 1//1 3//3 4//4
f 1//1 4//4 5//5
f 1//1 5//5 6//6
f 1//1 6//6 2//2
f 7//7 8//8 9//9
f 10//10 11//11 12//12
f 13//13 14//14 15//15
f 16//16 17//17 18//18
f 19//19 20//20 21//21
f 22//22 23//23 24//24
f 22//22 24//24 25//25
f 22//22 25//25 26//26
f 22//22 26//26 27//27
f 22//22 27//27 23//23
f 28//28 29//29 30//30
f 31//31 32//32 33//33
f 34//34 35//35 36//36
f 37//37 38//38 39//39
f 40//40 41//41 42//42
f 13//13 43//43 44//44
f 10//10 45//45 46//46
f 7//7 47//47 48//48
f 19//19 49//49 50//50
f 16//16 51//51 52//52
f 10//10 53//53 45//45
f 13//13 54//54 43//43
f 16//16 55//55 51//51
f 19//19 56//56 49//49
f 7//7 57//57 47//47
f 40//40 58//58 59//59
f 28//28 60//60 61//61
f 31//31 62//62 63//63
f 34//34 64//64 65//65
f 37//37 66//66 67//67
f 40//40 68//68 58//58
f 28//28 69//69 60//60
f 31//31 70//70 62//62
f 34//34 71//71 64//64
f 37//37 72//72 66//66
f 10//10 46//46 11//11
f 7//7 48//48 8//8
f 19//19 50//50 20//20
f 16//16 52//52 17//17
f 13//13 44//44 14//14
f 40//40 42//42 68//68
f 28//28 30//30 69//69
f 31//31 33//33 70//70
f 34//34 36//36 71//71
f 37//37 39//39 72//72
f 28//28 61//61 29//29
f 31//31 63//63 32//32
f 34//34 65//65 35//35
f 37//37 67//67 38//38
f 40//40 59//59 41//41
f 10//10 12//12 53//53
f 13//13 15//15 54//54
f 16//16 18//18 55//55
f 19//19 21//21 56//56
f 7//7 9//9 57//57
f 73//73 74//74 75//75
f 76//76 77//77 78//78
f 79//79 80//80 81//81
f 82//82 83//83 84//84
f 85//85 86//86 87//87
f 88//88 89//89 90//90
f 91//91 92//92 93//93
f 94//94 95//95 96//96
f 97//97 98//98 99//99
f 100//100 101//101 102//102
f 103//103 104//104 105//105
f 106//106 107//107 108//108
f 109//109 110//110 111//111
f 112//112 113//113 114//114
f 115//115 116//116 117//117
f 88//88 118//118 119//119
f 91//91 120//120 121//121
f 94//94 122//122 123//123
f 97//97 124//124 125//125
f 100//100 126//126 127//127
f 128//128 129//129 2//2
f 130//130 131//131 3//3
f 132//132 133//133 4//4
f 134//134 135//135 5//5
f 136//136 137//137 6//6
f 76//76 138//138 8//8
f 73//73 139//139 11//11
f 85//85 140//140 14//14
f 82//82 141//141 17//17
f 79//79 142//142 20//20
f 143//143 144//144 23//23
f 145//145 146//146 24//24
f 147//147 148//148 25//25
f 149//149 150//150 26//26
f 151//151 152//152 27//27
f 103//103 153//153 29//29
f 106//106 154//154 32//32
f 109//109 155//155 35//35
f 112//112 156//156 38//38
f 115//115 157//157 41//41
f 73//73 75//75 43//43
f 76//76 78//78 45//45
f 79//79 81//81 47//47
f 82//82 84//84 49//49
f 85//85 87//87 51//51
f 88//88 90//90 53//53
f 91//91 93//93 54//54
f 94//94 96//96 55//55
f 97//97 99//99 56//56
f 100//100 102//102 57//57
f 103//103 105//105 58//58
f 106//106 108//108 60//60
f 109//109 111//111 62//62
f 112//112 114//114 64//64
f 115//115 117//117 66//66
f 88//88 119//119 68//68
f 91//91 121//121 69//69
f 94//94 123//123 70//70
f 97//97 125//125 71//71
f 100//100 127//127 72//72
f 130//130 74//74 46//46
f 132//132 77//77 48//48
f 134//134 80//80 50//50
f 136//136 83//83 52//52
f 128//128 86//86 44//44
f 158//158 89//89 42//42
f 159//159 92//92 30//30
f 160//160 95//95 33//33
f 161//161 98//98 36//36
f 162//162 101//101 39//39
f 145//145 104//104 61//61
f 147//147 107//107 63//63
f 149//149 110//110 65//65
f 151//151 113//113 67//67
f 143//143 116//116 59//59
f 159//159 118//118 12//12
f 160//160 120//120 15//15
f 161//161 122//122 18//18
f 162//162 124//124 21//21
f 158//158 126//126 9//9
f 130//130 129//129 74//74
f 132//132 131//131 77//77
f 134//134 133//133 80//80
f 136//136 135//135 83//83
f 128//128 137//137 86//86
f 158//158 138//138 89//89
f 159//159 139//139 92//92
f 160//160 140//140 95//95
f 161//161 141//141 98//98
f 162//162 142//142 101//101
f 145//145 144//144 104//104
f 147//147 146//146 107//107
f 149//149 148//148 110//110
f 151//151 150//150 113//113
f 143//143 152//152 116//116
f 159//159 153//153 118//118
f 160//160 154//154 120//120
f 161//161 155//155 122//122
f 162//162 156//156 124//124
f 158//158 157//157 126//126
f 130//130 3//3 129//129
f 132//132 4//4 131//131
f 134//134 5//5 133//133
f 136//136 6//6 135//135
f 128//128 2//2 137//137
f 158//158 9//9 138//138
f 159//159 12//12 139//139
f 160//160 15//15 140//140
f 161//161 18//18 141//141
f 162//162 21//21 142//142
f 145//145 24//24 144//144
f 147//147 25//25 146//146
f 149//149 26//26 148//148
f 151//151 27//27 150//150
f 143//143 23//23 152//152
f 159//159 30//30 153//153
f 160//160 33//33 154//154
f 161//161 36//36 155//155
f 162//162 39//39 156//156
f 158//158 42//42 157//157
f 128//128 44//44 75//75
f 130//130 46//46 78//78
f 132//132 48//48 81//81
f 134//134 50//50 84//84
f 136//136 52//52 87//87
f 76//76 45//45 90//90
f 73//73 43//43 93//93
f 85//85 51//51 96//96
f 82//82 49//49 99//99
f 79//79 47//47 102//102
f 143//143 59//59 105//105
f 145//145 61//61 108//108
f 147//147 63//63 111//111
f 149//149 65//65 114//114
f 151//151 67//67 117//117
f 103//103 58//58 119//119
f 106//106 60//60 121//121
f 109//109 62//62 123//123
f 112//112 64//64 125//125
f 115//115 66//66 127//127
f 73//73 11//11 74//74
f 76//76 8//8 77//77
f 79//79 20//20 80//80
f 82//82 17//17 83//83
f 85//85 14//14 86//86
f 88//88 68//68 89//89
f 91//91 69//69 92//92
f 94//94 70//70 95//95
f 97//97 71//71 98//98
f 100//100 72//72 101//101
f 103//103 29//29 104//104
f 106//106 32//32 107//107
f 109//109 35//35 110//110
f 112//112 38//38 113//113
f 115//115 41//41 116//116
f 88//88 53//53 118//118
f 91//91 54//54 120//120
f 94//94 55//55 122//122
f 97//97 56//56 124//124
f 100//100 57//57 126//126
f 128//128 75//75 129//129
f 130//130 78//78 131//131
f 132//132 81//81 133//133
f 134//134 84//84 135//135
f 136//136 87//87 137//137
f 76//76 90//90 138//138
f 73//73 93//93 139//139
f 85//85 96//96 140//140
f 82//82 99//99 141//141
f 79//79 102//102 142//142
f 143//143 105//105 144//144
f 145//145 108//108 146//146
f 147//147 111//111 148//148
f 149//149 114//114 150//150
f 151//151 117//117 152//152
f 103//103 119//119 153//153
f 106//106 121//121 154//154
f 109//109 123//123 155//155
f 112//112 125//125 156//156
f 115//115 127//127 157//157
f 129//129 3//3 2//2
f 131//131 4//4 3//3
f 133//133 5//5 4//4
f 135//135 6//6 5//5
f 137//137 2//2 6//6
f 138//138 9//9 8//8
f 139//139 12//12 11//11
f 140//140 15//15 14//14
f 141//141 18//18 17//17
f 142//142 21//21 20//20
f 144//144 24//24 23//23
f 146//146 25//25 24//24
f 148//148 26//26 25//25
f 150//150 27//27 26//26
f 152//152 23//23 27//27
f 153//153 30//30 29//29
f 154//154 33//33 32//32
f 155//155 36//36 35//35
f 156//156 39//39 38//38
f 157//157 42//42 41//41
f 75//75 44//44 43//43
f 78//78 46//46 45//45
f 81//81 48//48 47//47
f 84//84 50//50 49//49
f 87//87 52//52 51//51
f 90//90 45//45 53//53
f 93//93 43//43 54//54
f 96//96 51//51 55//55
f 99//99 49//49 56//56
f 102//102 47//47 57//57
f 105//105 59//59 58//58
f 108//108 61//61 60//60
f 111//111 63//63 62//62
f 114//114 65//65 64//64
f 117//117 67//67 66//66
f 119//119 58//58 68//68
f 121//121 60//60 69//69
f 123//123 62//62 70//70
f 125//125 64//64 71//71
f 127//127 66//66 72//72
f 74//74 11//11 46//46
f 77//77 8//8 48//48
f 80//80 20//20 50//50
f 83//83 17//17 52//52
f 86//86 14//14 44//44
f 89//89 68//68 42//42
f 92//92 69//69 30//30
f 95//95 70//70 33//33
f 98//98 71//71 36//36
f 101//101 72//72 39//39
f 104//104 29//29 61//61
f 107//107 32//32 63//63
f 110//110 35//35 65//65
f 113//113 38//38 67//67
f 116//116 41//41 59//59
f 118//118 53//53 12//12
f 120//120 54//54 15//15
f 122//122 55//55 18//18
f 124//124 56//56 21//21
f 126//126 57//57 9//9
f 129//129 75//75 74//74
f 131//131 78//78 77//77
f 133//133 81//81 80//80
f 135//135 84//84 83//83
f 137//137 87//87 86//86
f 138//138 90//90 89//89
f 139//139 93//93 92//92
f 140//140 96//96 95//95
f 141//141 99//99 98//98
f 142//142 102//102 101//101
f 144//144 105//105 104//104
f 146//146 108//108 107//107
f 148//148 111//111 110//110
f 150//150 114//114 113//113
f 152//152 117//117 116//116
f 153//153 119//119 118//118
f 154//154 121//121 120//120
f 155//155 123//123 122//122
f 156//156 125//125 124//124
f 157//157 127//127 126//126
