# Created by Open3D 
# object name: part_030
# number of vertices: 162
# number of triangles: 320
v -3.43273 4.5037 -0.106277
vn 0.313802 -0.787042 -0.531124
v -3.41677 4.5188 -0.116017
vn 0.357151 -0.620783 -0.697905
v -3.41209 4.50783 -0.0980698
vn 0.460098 -0.757752 -0.462734
v -3.42831 4.49126 -0.0810178
vn 0.336857 -0.855378 -0.393518
v -3.44473 4.49532 -0.0988154
vn 0.120974 -0.876864 -0.465268
v -3.44787 4.50688 -0.116728
vn 0.161285 -0.692382 -0.703274
v -3.32612 4.1762 0.721397
vn 0.353176 -0.907978 -0.225481
v -3.3075 4.18656 0.713865
vn 0.482859 -0.827657 -0.286061
v -3.30715 4.18209 0.734939
vn 0.446374 -0.894831 -0.00531022
v -3.36104 4.35638 0.311691
vn 0.945753 0.324817 0.00669718
v -3.41194 4.51214 -0.0725946
vn 0.940707 0.339001 0.0121738
v -3.36494 4.36693 0.31637
vn 0.93437 0.35572 0.0203915
v -3.48289 4.69316 -0.0487907
vn 0.915602 0.394648 -0.0769811
v -3.48469 4.69486 -0.0541869
vn 0.317112 0.487824 -0.813306
v -3.54391 4.84732 0.0193558
vn 0.893976 0.424451 -0.143696
v -3.5179 4.67974 -0.0495906
vn -0.9409 -0.316937 -0.119411
v -3.45956 4.52947 -0.106876
vn -0.937487 -0.3424 -0.0622883
v -3.5751 4.82309 0.0241875
vn -0.938247 -0.340468 -0.0614272
v -3.4088 4.37612 0.225366
vn -0.919983 -0.390309 -0.0359315
v -3.34826 4.19234 0.676349
vn -0.898522 -0.435335 -0.0560556
v -3.34937 4.19281 0.697944
vn -0.925811 -0.376857 -0.0292087
v -3.46261 4.52308 0.876236
vn -0.313803 0.787043 0.531123
v -3.44105 4.52237 0.886834
vn -0.177163 0.689771 0.702018
v -3.44419 4.53392 0.868921
vn -0.182822 0.86403 0.469071
v -3.46663 4.53567 0.850986
vn -0.336857 0.855378 0.393518
v -3.47682 4.52141 0.868175
vn -0.514485 0.726031 0.456271
v -3.47215 4.51045 0.886123
vn -0.370745 0.612095 0.69849
v -3.49113 4.68695 0.459254
vn 0.919982 0.390311 0.0359323
v -3.44018 4.53121 0.843541
vn 0.925927 0.376471 0.0304758
v -3.48678 4.67657 0.454586
vn 0.932715 0.359926 0.0222691
v -3.56923 4.85058 0.0485617
vn -0.353176 0.907978 0.225481
v -3.54878 4.8552 0.0569863
vn -0.205572 0.93394 0.292396
v -3.55066 4.85908 0.0358769
vn -0.266382 0.963821 0.00942221
v -3.53888 4.7067 0.372928
vn -0.945753 -0.324819 -0.00669797
v -3.5767 4.8231 0.0929329
vn -0.961042 -0.276045 0.0140295
v -3.57634 4.82233 0.0713211
vn -0.940955 -0.338256 -0.0136273
v -3.40603 4.33609 0.818896
vn -0.915602 -0.394648 0.076981
v -3.46535 4.48597 0.876159
vn -0.927802 -0.372555 0.0196616
v -3.34981 4.19236 0.745095
vn -0.927042 -0.374486 0.0188004
v -3.37101 4.34951 0.819696
vn 0.9409 0.316937 0.119411
v -3.37143 4.34696 0.825042
vn 0.529145 -0.163456 0.832639
v -3.31065 4.19509 0.751535
vn 0.942085 0.279302 0.185652
v -3.42356 4.54327 -0.106053
vn 0.927802 0.372555 -0.0196616
v -3.42268 4.53923 -0.11817
vn 0.898935 0.411848 -0.149324
v -3.31222 4.20615 0.677173
vn 0.960854 0.276713 -0.0137865
v -3.40691 4.49703 -0.057957
vn 0.960745 0.277046 -0.0146322
v -3.34014 4.17405 0.713119
vn 0.14351 -0.946158 -0.290153
v -3.32844 4.18451 0.694232
vn 0.339417 -0.863244 -0.373638
v -3.44873 4.49804 -0.0734353
vn -0.925888 -0.376547 -0.030719
v -3.44296 4.48322 -0.0587806
vn -0.898055 -0.43612 -0.057424
v -3.51749 4.68229 -0.0549362
vn -0.646871 0.0838056 -0.757981
v -3.45703 4.52606 -0.118955
vn -0.937125 -0.291903 -0.191282
v -3.31257 4.20692 0.698784
vn 0.940878 0.338475 0.0135154
v -3.5391 4.83689 0.0250101
vn 0.927042 0.374486 -0.0188004
v -3.57826 4.83415 0.0185709
vn -0.942085 -0.279302 -0.185652
v -3.41328 4.38692 0.228976
vn -0.932715 -0.359926 -0.0222692
v -3.33825 4.17016 0.734229
vn 0.250997 -0.967964 -0.00680802
v -3.42935 4.49977 0.876981
vn 0.937487 0.3424 0.0622884
v -3.43188 4.50319 0.889061
vn 0.937125 0.291903 0.191282
v -3.54065 4.83691 0.0937564
vn 0.898246 0.435876 0.0562665
v -3.44596 4.54603 0.828886
vn 0.898354 0.435543 0.0571117
v -3.58141 4.84269 0.0562406
vn -0.53704 0.795322 0.28116
v -3.56649 4.84243 0.0757362
vn -0.339418 0.863244 0.373637
v -3.47697 4.5171 0.8427
vn -0.940687 -0.33905 -0.0123322
v -3.482 4.53221 0.828063
vn -0.960592 -0.277592 0.0143575
v -3.40423 4.33439 0.824292
vn -0.454829 -0.506083 0.73281
v -3.46623 4.49002 0.888276
vn -0.898935 -0.411848 0.149324
v -3.31381 4.20616 0.745918
vn 0.938247 0.340468 0.0614272
v -3.53955 4.83643 0.0721618
vn 0.925756 0.376997 0.0291344
v -3.58177 4.84716 0.0351664
vn -0.460463 0.887677 0.00202481
v -3.53512 4.69656 0.367192
vn -0.93437 -0.35572 -0.0203914
v -3.345 4.18193 0.75075
vn -0.893976 -0.424451 0.143696
v -3.41755 4.52783 -0.0962633
vn 0.932989 0.35985 0.00631161
v -3.41289 4.51469 -0.0943079
vn 0.95364 0.300054 -0.0231845
v -3.41784 4.52781 -0.111914
vn 0.942531 0.330285 -0.0504719
v -3.30858 4.19345 0.70084
vn 0.990539 0.112882 -0.0780379
v -3.31171 4.19989 0.675121
vn 0.474347 -0.796904 -0.374086
v -3.3587 4.3479 0.308034
vn 0.990482 0.108537 -0.0846442
v -3.34342 4.1801 0.700044
vn -0.807807 -0.577078 -0.120117
v -3.40421 4.36671 0.225764
vn -0.805082 -0.579697 -0.125671
v -3.34438 4.18737 0.674375
vn 0.115636 -0.919272 -0.376254
v -3.4541 4.51381 -0.0970987
vn -0.933887 -0.355716 -0.0363442
v -3.45325 4.51423 -0.112723
vn -0.918963 -0.383217 -0.0930105
v -3.44886 4.5009 -0.0951298
vn -0.908108 -0.413547 -0.0657233
v -3.50474 4.68794 -0.0563488
vn -0.118934 0.36532 -0.923253
v -3.42477 4.54012 -0.122547
vn 0.00304542 0.368813 -0.929499
v -3.4559 4.52819 -0.123258
vn -0.227252 0.279935 -0.932734
v -3.31146 4.20196 0.727278
vn 0.936479 0.34913 0.0334037
v -3.30831 4.19136 0.738359
vn 0.955653 0.289976 0.051392
v -3.30851 4.19405 0.716016
vn 0.957827 0.287193 0.00932323
v -3.54089 4.8413 0.0436627
vn 0.930396 0.366438 0.00924685
v -3.53345 4.82151 0.0649549
vn 0.933287 0.358527 0.0208467
v -3.4794 4.68542 -0.0283693
vn 0.931747 0.363017 0.00811223
v -3.58143 4.84369 0.0260181
vn -0.846852 0.385073 -0.366825
v -3.56881 4.85045 0.0245163
vn -0.303789 0.821357 -0.482788
v -3.57728 4.83663 0.0144243
vn -0.25456 0.349347 -0.901752
v -3.47432 4.54184 0.297746
vn -0.933545 -0.357824 -0.0213304
v -3.57061 4.80726 0.064106
vn -0.933827 -0.357049 -0.0219932
v -3.45494 4.51331 -0.0671064
vn -0.933484 -0.357921 -0.0223824
v -3.34069 4.17283 0.743329
vn -0.386587 -0.85783 0.338643
v -3.34372 4.17779 0.73755
vn -0.905842 -0.423524 0.00885671
v -3.34087 4.17266 0.727348
vn -0.822569 -0.567286 -0.0395928
v -3.43481 4.51543 0.867204
vn 0.933887 0.355716 0.0363442
v -3.44005 4.52834 0.865235
vn 0.908108 0.413547 0.0657234
v -3.43566 4.51501 0.882828
vn 0.918964 0.383217 0.0930104
v -3.54549 4.84915 0.070062
vn 0.808281 0.576616 0.119146
v -3.54454 4.84188 0.0957306
vn -0.194847 0.904033 0.380471
v -3.4952 4.69477 0.462872
vn 0.805083 0.579697 0.125671
v -3.58033 4.83579 0.0692658
vn -0.990543 -0.113799 0.0766398
v -3.54071 4.71359 0.380602
vn -0.990482 -0.108537 0.0846442
v -3.57721 4.82935 0.0949841
vn -0.520995 0.769581 0.3692
v -3.47137 4.50142 0.866369
vn -0.932989 -0.35985 -0.00631161
v -3.47107 4.50144 0.882019
vn -0.942531 -0.330285 0.0504719
v -3.47602 4.51456 0.864413
vn -0.95364 -0.300054 0.0231845
v -3.39104 4.33868 0.826298
vn 0.118934 -0.36532 0.923253
v -3.43301 4.50106 0.893364
vn 0.211648 -0.286521 0.934404
v -3.46415 4.48913 0.892652
vn -0.018977 -0.374314 0.927108
v -3.31831 4.22198 0.706
vn 0.933803 0.357121 0.0218139
v -3.37278 4.35791 0.799314
vn 0.935152 0.352559 0.0345414
v -3.54519 4.85145 0.0325556
vn 0.905842 0.423524 -0.00885674
v -3.54443 4.84898 0.0549112
vn 0.90392 0.42641 0.0332131
v -3.5806 4.83788 0.0317464
vn -0.955653 -0.289976 -0.0513919
v -3.58232 4.84344 0.0419741
vn -0.991757 -0.12812 -0.00185829
v -3.35546 4.20774 0.705151
vn -0.933302 -0.358479 -0.020964
v -3.47113 4.50169 0.836363
vn -0.933644 -0.357612 -0.0205765
v -3.32685 4.17621 0.745435
vn 0.303789 -0.821357 0.482788
v -3.34277 4.18068 0.75497
vn 0.00833989 -0.443722 0.896126
v -3.4188 4.52749 -0.120049
vn 0.595011 -0.0318949 -0.803084
v -3.41441 4.51698 -0.108834
vn 0.974427 0.181355 -0.132674
v -3.40968 4.50401 -0.0840014
vn 0.989464 0.116192 -0.0863782
v -3.40651 4.49111 -0.060845
vn 0.473833 -0.795322 -0.378081
v -3.37853 4.33704 0.306293
vn 0.338157 -0.859361 -0.3836
v -3.43918 4.47858 -0.0615915
vn 0.141232 -0.913305 -0.382005
v -3.44452 4.49065 -0.0847973
vn -0.81028 -0.571926 -0.127857
v -3.44869 4.50384 -0.109618
vn -0.839889 -0.514066 -0.174136
v -3.452 4.51476 -0.120808
vn -0.524553 -0.434015 -0.732444
v -3.43873 4.51986 -0.123048
vn 0.1178 -0.25005 -0.96104
v -3.30659 4.1858 0.728131
vn 0.991757 0.12812 0.00185828
v -3.41779 4.52756 -0.0662574
vn 0.933629 0.357657 0.0204584
v -3.54614 4.84856 0.0151357
vn -0.0244453 0.438664 -0.898319
v -3.51614 4.67133 -0.029209
vn -0.935152 -0.352559 -0.0345414
v -3.34448 4.18027 0.715194
vn -0.90392 -0.42641 -0.0332131
v -3.43691 4.51449 0.890913
vn 0.388815 0.408986 0.825562
v -3.44022 4.52541 0.879723
vn 0.839889 0.514066 0.174136
v -3.44439 4.53859 0.854903
vn 0.809382 0.573282 0.127472
v -3.44973 4.55066 0.831697
vn -0.194338 0.902451 0.384468
v -3.51725 4.68958 0.463656
vn -0.338157 0.859361 0.3836
v -3.4824 4.53814 0.830951
vn -0.542708 0.753763 0.370553
v -3.47923 4.52524 0.854107
vn -0.989619 -0.115057 0.0861193
v -3.47451 4.51227 0.87894
vn -0.974427 -0.181355 0.132674
v -3.47012 4.50176 0.890155
vn -0.708882 -0.0387507 0.704261
v -3.45693 4.5068 0.892999
vn -0.117801 0.25005 0.96104
v -3.43397 4.51593 0.837212
vn 0.933461 0.357991 0.0222019
v -3.54804 4.85658 0.0427574
vn 0.822569 0.567286 0.0395928
v -3.58041 4.83519 0.0540893
vn -0.957827 -0.287193 -0.00932324
v -3.40952 4.34383 0.798475
vn -0.931747 -0.363017 -0.00811221
v -3.31164 4.19262 0.755681
vn 0.23913 -0.356375 0.903224
v -3.30748 4.18556 0.744087
vn 0.751771 -0.513411 0.413823
v -3.42579 4.52178 0.385479
vn 0.933545 0.357824 0.0213304
v -3.54823 4.85641 0.0267768
vn 0.232061 0.890502 -0.391348
v -3.57745 4.82728 0.0428274
vn -0.936479 -0.34913 -0.0334036
v -3.34802 4.18795 0.726443
vn -0.930396 -0.366438 -0.00924681
f 1//1 2//2 3//3
f 1//1 3//3 4//4
f 1//1 4//4 5//5
f 1//1 5//5 6//6
f 1//1 6//6 2//2
f 7//7 8//8 9//9
f 10//10 11//11 12//12
f 13//13 14//14 15//15
f 16//16 17//17 18//18
f 19//19 20//20 21//21
f 22//22 23//23 24//24
f 22//22 24//24 25//25
f 22//22 25//25 26//26
f 22//22 26//26 27//27
f 22//22 27//27 23//23
f 28//28 29//29 30//30
f 31//31 32//32 33//33
f 34//34 35//35 36//36
f 37//37 38//38 39//39
f 40//40 41//41 42//42
f 13//13 43//43 44//44
f 10//10 45//45 46//46
f 7//7 47//47 48//48
f 19//19 49//49 50//50
f 16//16 51//51 52//52
f 10//10 53//53 45//45
f 13//13 54//54 43//43
f 16//16 55//55 51//51
f 19//19 56//56 49//49
f 7//7 57//57 47//47
f 40//40 58//58 59//59
f 28//28 60//60 61//61
f 31//31 62//62 63//63
f 34//34 64//64 65//65
f 37//37 66//66 67//67
f 40//40 68//68 58//58
f 28//28 69//69 60//60
f 31//31 70//70 62//62
f 34//34 71//71 64//64
f 37//37 72//72 66//66
f 10//10 46//46 11//11
f 7//7 48//48 8//8
f 19//19 50//50 20//20
f 16//16 52//52 17//17
f 13//13 44//44 14//14
f 40//40 42//42 68//68
f 28//28 30//30 69//69
f 31//31 33//33 70//70
f 34//34 36//36 71//71
f 37//37 39//39 72//72
f 28//28 61//61 29//29
f 31//31 63//63 32//32
f 34//34 65//65 35//35
f 37//37 67//67 38//38
f 40//40 59//59 41//41
f 10//10 12//12 53//53
f 13//13 15//15 54//54
f 16//16 18//18 55//55
f 19//19 21//21 56//56
f 7//7 9//9 57//57
f 73//73 74//74 75//75
f 76//76 77//77 78//78
f 79//79 80//80 81//81
f 82//82 83//83 84//84
f 85//85 86//86 87//87
f 88//88 89//89 90//90
f 91//91 92//92 93//93
f 94//94 95//95 96//96
f 97//97 98//98 99//99
f 100//100 101//101 102//102
f 103//103 104//104 105//105
f 106//106 107//107 108//108
f 109//109 110//110 111//111
f 112//112 113//113 114//114
f 115//115 116//116 117//117
f 88//88 118//118 119//119
f 91//91 120//120 121//121
f 94//94 122//122 123//123
f 97//97 124//124 125//125
f 100//100 126//126 127//127
f 128//128 129//129 2//2
f 130//130 131//131 3//3
f 132//132 133//133 4//4
f 134//134 135//135 5//5
f 136//136 137//137 6//6
f 76//76 138//138 8//8
f 73//73 139//139 11//11
f 85//85 140//140 14//14
f 82//82 141//141 17//17
f 79//79 142//142 20//20
f 143//143 144//144 23//23
f 145//145 146//146 24//24
f 147//147 148//148 25//25
f 149//149 150//150 26//26
f 151//151 152//152 27//27
f 103//103 153//153 29//29
f 106//106 154//154 32//32
f 109//109 155//155 35//35
f 112//112 156//156 38//38
f 115//115 157//157 41//41
f 73//73 75//75 43//43
f 76//76 78//78 45//45
f 79//79 81//81 47//47
f 82//82 84//84 49//49
f 85//85 87//87 51//51
f 88//88 90//90 53//53
f 91//91 93//93 54//54
f 94//94 96//96 55//55
f 97//97 99//99 56//56
f 100//100 102//102 57//57
f 103//103 105//105 58//58
f 106//106 108//108 60//60
f 109//109 111//111 62//62
f 112//112 114//114 64//64
f 115//115 117//117 66//66
f 88//88 119//119 68//68
f 91//91 121//121 69//69
f 94//94 123//123 70//70
f 97//97 125//125 71//71
f 100//100 127//127 72//72
f 130//130 74//74 46//46
f 132//132 77//77 48//48
f 134//134 80//80 50//50
f 136//136 83//83 52//52
f 128//128 86//86 44//44
f 158//158 89//89 42//42
f 159//159 92//92 30//30
f 160//160 95//95 33//33
f 161//161 98//98 36//36
f 162//162 101//101 39//39
f 145//145 104//104 61//61
f 147//147 107//107 63//63
f 149//149 110//110 65//65
f 151//151 113//113 67//67
f 143//143 116//116 59//59
f 159//159 118//118 12//12
f 160//160 120//120 15//15
f 161//161 122//122 18//18
f 162//162 124//124 21//21
f 158//158 126//126 9//9
f 130//130 129//129 74//74
f 132//132 131//131 77//77
f 134//134 133//133 80//80
f 136//136 135//135 83//83
f 128//128 137//137 86//86
f 158//158 138//138 89//89
f 159//159 139//139 92//92
f 160//160 140//140 95//95
f 161//161 141//141 98//98
f 162//162 142//142 101//101
f 145//145 144//144 104//104
f 147//147 146//146 107//107
f 149//149 148//148 110//110
f 151//151 150//150 113//113
f 143//143 152//152 116//116
f 159//159 153//153 118//118
f 160//160 154//154 120//120
f 161//161 155//155 122//122
f 162//162 156//156 124//124
f 158//158 157//157 126//126
f 130//130 3//3 129//129
f 132//132 4//4 131//131
f 134//134 5//5 133//133
f 136//136 6//6 135//135
f 128//128 2//2 137//137
f 158//158 9//9 138//138
f 159//159 12//12 139//139
f 160//160 15//15 140//140
f 161//161 18//18 141//141
f 162//162 21//21 142//142
f 145//145 24//24 144//144
f 147//147 25//25 146//146
f 149//149 26//26 148//148
f 151//151 27//27 150//150
f 143//143 23//23 152//152
f 159//159 30//30 153//153
f 160//160 33//33 154//154
f 161//161 36//36 155//155
f 162//162 39//39 156//156
f 158//158 42//42 157//157
f 128//128 44//44 75//75
f 130//130 46//46 78//78
f 132//132 48//48 81//81
f 134//134 50//50 84//84
f 136//136 52//52 87//87
f 76//76 45//45 90//90
f 73//73 43//43 93//93
f 85//85 51//51 96//96
f 82//82 49//49 99//99
f 79//79 47//47 102//102
f 143//143 59//59 105//105
f 145//145 61//61 108//108
f 147//147 63//63 111//111
f 149//149 65//65 114//114
f 151//151 67//67 117//117
f 103//103 58//58 119//119
f 106//106 60//60 121//121
f 109//109 62//62 123//123
f 112//112 64//64 125//125
f 115//115 66//66 127//127
f 73//73 11//11 74//74
f 76//76 8//8 77//77
f 79//79 20//20 80//80
f 82//82 17//17 83//83
f 85//85 14//14 86//86
f 88//88 68//68 89//89
f 91//91 69//69 92//92
f 94//94 70//70 95//95
f 97//97 71//71 98//98
f 100//100 72//72 101//101
f 103//103 29//29 104//104
f 106//106 32//32 107//107
f 109//109 35//35 110//110
f 112//112 38//38 113//113
f 115//115 41//41 116//116
f 88//88 53//53 118//118
f 91//91 54//54 120//120
f 94//94 55//55 122//122
f 97//97 56//56 124//124
f 100//100 57//57 126//126
f 128//128 75//75 129//129
f 130//130 78//78 131//131
f 132//132 81//81 133//133
f 134//134 84//84 135//135
f 136//136 87//87 137//137
f 76//76 90//90 138//138
f 73//73 93//93 139//139
f 85//85 96//96 140//140
f 82//82 99//99 141//141
f 79//79 102//102 142//142
f 143//143 105//105 144//144
f 145//145 108//108 146//146
f 147//147 111//111 148//148
f 149//149 114//114 150//150
f 151//151 117//117 152//152
f 103//103 119//119 153//153
f 106//106 121//121 154//154
f 109//109 123//123 155//155
f 112//112 125//125 156//156
f 115//115 127//127 157//157
f 129//129 3//3 2//2
f 131//131 4//4 3//3
f 133//133 5//5 4//4
f 135//135 6//6 5//5
f 137//137 2//2 6//6
f 138//138 9//9 8//8
f 139//139 12//12 11//11
f 140//140 15//15 14//14
f 141//141 18//18 17//17
f 142//142 21//21 20//20
f 144//144 24//24 23//23
f 146//146 25//25 24//24
f 148//148 26//26 25//25
f 150//150 27//27 26//26
f 152//152 23//23 27//27
f 153//153 30//30 29//29
f 154//154 33//33 32//32
f 155//155 36//36 35//35
f 156//156 39//39 38//38
f 157//157 42//42 41//41
f 75//75 44//44 43//43
f 78//78 46//46 45//45
f 81//81 48//48 47//47
f 84//84 50//50 49//49
f 87//87 52//52 51//51
f 90//90 45//45 53//53
f 93//93 43//43 54//54
f 96//96 51//51 55//55
f 99//99 49//49 56//56
f 102//102 47//47 57//57
f 105//105 59//59 58//58
f 108//108 61//61 60//60
f 111//111 63//63 62//62
f 114//114 65//65 64//64
f 117//117 67//67 66//66
f 119//119 58//58 68//68
f 121//121 60//60 69//69
f 123//123 62//62 70//70
f 125//125 64//64 71//71
f 127//127 66//66 72//72
f 74//74 11//11 46//46
f 77//77 8//8 48//48
f 80//80 20//20 50//50
f 83//83 17//17 52//52
f 86//86 14//14 44//44
f 89//89 68//68 42//42
f 92//92 69//69 30//30
f 95//95 70//70 33//33
f 98//98 71//71 36//36
f 101//101 72//72 39//39
f 104//104 29//29 61//61
f 107//107 32//32 63//63
f 110//110 35//35 65//65
f 113//113 38//38 67//67
f 116//116 41//41 59//59
f 118//118 53//53 12//12
f 120//120 54//54 15//15
f 122//122 55//55 18//18
f 124//124 56//56 21//21
f 126//126 57//57 9//9
f 129//129 75//75 74//74
f 131//131 78//78 77//77
f 133//133 81//81 80//80
f 135//135 84//84 83//83
f 137//137 87//87 86//86
f 138//138 90//90 89//89
f 139//139 93//93 92//92
f 140//140 96//96 95//95
f 141//141 99//99 98//98
f 142//142 102//102 101//101
f 144//144 105//105 104//104
f 146//146 108//108 107//107
f 148//148 111//111 110//110
f 150//150 114//114 113//113
f 152//152 117//117 116//116
f 153//153 119//119 118//118
f 154//154 121//121 120//120
f 155//155 123//123 122//122
f 156//156 125//125 124//124
f 157//157 127//127 126//126
