# Created by Open3D 
# object name: part_012
# number of vertices: 162
# number of triangles: 320
v 2.84821 3.55179 0.0861212
vn 0.976689 0.213361 0.0235683
v 2.83974 3.56665 0.106297
vn 0.786702 0.576037 0.221995
v 2.8465 3.54288 0.106872
vn 0.907882 0.0244134 0.418514
v 2.84845 3.5221 0.0858633
vn 0.976758 -0.213697 0.0166449
v 2.84722 3.54345 0.0719268
vn 0.858155 0.0377691 -0.512
v 2.84042 3.56719 0.0729935
vn 0.787752 0.582289 -0.200964
v 2.62651 2.6726 0.067304
vn 0.758584 -0.651556 0.00505413
v 2.62901 2.68041 0.0884129
vn 0.783552 -0.468627 0.407963
v 2.6118 2.66273 0.0869503
vn 0.417391 -0.888503 0.19065
v 2.70926 3.11879 0.099373
vn -0.00827442 -0.0193117 0.999779
v 2.80192 3.53118 0.107994
vn -0.0132706 -0.0173117 0.999762
v 2.67377 3.12775 0.099031
vn -0.0197927 -0.0164048 0.99967
v 2.2654 3.72154 0.0990804
vn 0.00523808 0.085825 0.996296
v 2.26687 3.72726 0.098015
vn 0.207972 0.854659 0.475716
v 1.74348 3.85403 0.0901254
vn 0.0212423 0.158577 0.987118
v 2.26618 3.72215 0.0615844
vn 0.0461753 0.11806 -0.991932
v 2.76153 3.58774 0.0690768
vn 0.0315377 0.0581825 -0.997808
v 1.76642 3.83903 0.0526618
vn 0.0308127 0.0583666 -0.99782
v 2.73297 3.21024 0.0619717
vn 0.032885 0.013097 -0.999373
v 2.62736 2.72501 0.0523056
vn 0.0502003 0.00828461 -0.998705
v 2.59611 2.71243 0.0510563
vn 0.0275361 0.0138375 -0.999525
v 1.45088 2.96947 0.0479112
vn -0.976688 -0.213364 -0.0235683
v 1.45852 2.95396 0.0679262
vn -0.794784 -0.582404 0.170656
v 1.45173 2.9777 0.0689929
vn -0.924317 -0.0373559 0.379793
v 1.45062 2.99915 0.0486054
vn -0.976758 0.213696 -0.016645
v 1.45245 2.97827 0.0340474
vn -0.836332 -0.0205889 -0.547836
v 1.45921 2.9545 0.0346229
vn -0.778426 -0.574949 -0.251967
v 1.58887 3.40171 0.0808915
vn -0.0328857 -0.0130968 0.999373
v 1.49622 2.98933 0.0723261
vn -0.0278923 -0.0150986 0.999497
v 1.62435 3.39275 0.0817201
vn -0.0213717 -0.0160061 0.999643
v 1.67258 3.84866 0.0667285
vn -0.758584 0.651556 -0.00505855
v 1.66922 3.84017 0.0874523
vn -0.799988 0.455688 0.390342
v 1.68646 3.85787 0.0872727
vn -0.425478 0.882136 0.201999
v 1.61258 3.49316 0.0434902
vn 0.00827456 0.0193117 -0.999779
v 1.67238 3.79677 0.0500175
vn -0.00948108 0.0242981 -0.99966
v 1.70365 3.80936 0.0504635
vn 0.0136127 0.0189008 -0.999729
v 2.03354 2.79961 0.0418394
vn -0.00523774 -0.0858238 -0.996297
v 1.53821 2.93403 0.0332922
vn 0.00958729 -0.0258049 -0.999621
v 2.53332 2.68275 0.0497072
vn 0.0103126 -0.0259877 -0.999609
v 2.03277 2.799 0.0793353
vn -0.0461744 -0.118057 0.991933
v 2.03135 2.79331 0.0780256
vn -0.226803 -0.869487 0.438808
v 2.5547 2.66652 0.0875771
vn -0.0617388 -0.190463 0.979751
v 2.76074 3.58711 0.107627
vn -0.00958704 0.0258055 0.999621
v 2.78766 3.59035 0.10735
vn 0.0259761 0.15738 0.987196
v 2.62657 2.72438 0.0909022
vn 0.00925061 -0.0241968 0.999664
v 2.82348 3.50526 0.107615
vn 0.0094722 -0.0233166 0.999683
v 2.62973 2.68098 0.0534674
vn 0.742878 -0.419372 -0.521785
v 2.64079 2.69861 0.068238
vn 0.961133 -0.275662 0.0153192
v 2.80273 3.53182 0.0685936
vn 0.0279935 0.0152695 -0.999491
v 2.82428 3.50589 0.0690188
vn 0.0508681 0.00905873 -0.998664
v 2.26759 3.72783 0.0628941
vn 0.208807 0.789155 -0.57761
v 2.78842 3.59095 0.070567
vn 0.0664749 0.189274 -0.979672
v 2.59529 2.71179 0.0904562
vn -0.0136209 -0.0187023 0.999732
v 1.76563 3.8384 0.0912125
vn -0.0103129 0.025987 0.999609
v 1.74424 3.85463 0.0533426
vn 0.0617401 0.190468 -0.97975
v 2.69777 3.22033 0.0611671
vn 0.0213717 0.0160062 -0.999643
v 2.61248 2.66327 0.053647
vn 0.419645 -0.877485 -0.232204
v 1.53741 2.93341 0.0718429
vn -0.0315381 -0.0581843 0.997808
v 1.51052 2.9302 0.0703527
vn -0.0664753 -0.189275 0.979671
v 1.67158 3.79614 0.0886141
vn -0.0503951 -0.00819882 0.998696
v 1.47467 3.01526 0.0719009
vn -0.0506174 -0.0090789 0.998677
v 1.66994 3.84073 0.0525068
vn -0.721059 0.436556 -0.538045
v 1.65828 3.82265 0.0662308
vn -0.961132 0.275662 -0.0153214
v 1.49703 2.98997 0.0329262
vn 0.0133373 0.0174231 -0.999759
v 1.47546 3.01589 0.0333042
vn -0.00926064 0.0232998 -0.999686
v 2.03208 2.79388 0.0429047
vn -0.184334 -0.769885 -0.610981
v 1.51128 2.93079 0.0335698
vn -0.0259757 -0.157379 -0.987197
v 2.53253 2.68212 0.0882578
vn -0.0308128 -0.0583674 0.99782
v 1.70284 3.80872 0.0898634
vn -0.0275415 -0.0137077 0.999527
v 1.68715 3.85841 0.0539694
vn -0.410323 0.884825 -0.220725
v 1.64835 3.48533 0.0438562
vn 0.0197928 0.0164048 -0.99967
v 2.55546 2.66712 0.0507943
vn -0.0212415 -0.158574 -0.987119
v 2.79057 3.56351 0.108158
vn -0.0157976 -0.00245499 0.999872
v 2.82408 3.54759 0.108276
vn 0.00747248 -0.00529192 0.999958
v 2.81141 3.57337 0.108131
vn 0.0103301 0.0323339 0.999424
v 2.62884 2.69574 0.0898403
vn 0.067709 -0.0431692 0.996771
v 2.64495 2.7193 0.0893915
vn 0.872452 -0.235276 0.428337
v 2.7369 3.11183 0.0989043
vn 0.0710718 -0.0392544 0.996698
v 2.62961 2.69634 0.0525316
vn 0.109199 -0.0103169 -0.993966
v 2.75949 3.19898 0.0632603
vn 0.112056 -0.00698936 -0.993677
v 2.64567 2.71987 0.0544063
vn 0.802168 -0.195873 -0.564056
v 2.79137 3.56415 0.0690101
vn 0.0253619 0.0299504 -0.99923
v 2.81219 3.57398 0.070214
vn 0.0514277 0.0646907 -0.996579
v 2.82488 3.54821 0.0697559
vn 0.0486184 0.0271046 -0.99845
v 2.26776 3.72942 0.076821
vn 0.244461 0.969437 0.0207486
v 2.78944 3.59476 0.105736
vn 0.253656 0.957519 0.137172
v 2.79012 3.5953 0.0723946
vn 0.258188 0.959504 -0.112653
v 2.56997 2.68872 0.0894347
vn -0.0228893 -0.0305776 0.99927
v 2.58365 2.67018 0.0887998
vn -0.0163687 -0.0735442 0.997158
v 2.60703 2.68683 0.0898528
vn -0.00105564 -0.0391143 0.999234
v 1.72817 3.83179 0.0906327
vn -0.0182714 -0.00183182 0.999831
v 1.75437 3.7962 0.0909147
vn -0.0205681 -0.0154612 0.999669
v 2.25992 3.69985 0.0995409
vn -0.0171218 -0.002489 0.99985
v 1.70818 3.86057 0.0533106
vn -5.8394e-06 0.680984 -0.732299
v 1.70566 3.86336 0.0674781
vn -0.0152375 0.999758 0.0158894
v 1.74475 3.85928 0.0551505
vn 0.231809 0.966166 -0.113088
v 2.17316 3.35318 0.052442
vn 0.0205822 0.0162055 -0.999657
v 1.75519 3.79684 0.0511286
vn 0.0206431 0.0171367 -0.99964
v 2.75143 3.54527 0.0675623
vn 0.0209703 0.0170542 -0.999635
v 2.5915 2.66115 0.0520537
vn 0.0305959 -0.656894 -0.753362
v 2.58443 2.67079 0.050883
vn 0.0247278 -0.0411865 -0.998845
v 2.61324 2.67102 0.0520837
vn 0.0765932 -0.0740537 -0.994309
v 1.50757 2.957 0.0719096
vn -0.025362 -0.0299503 0.99923
v 1.47407 2.97293 0.0711638
vn -0.0486181 -0.0271044 0.99845
v 1.48675 2.94717 0.0707057
vn -0.0514276 -0.0646906 0.996579
v 1.66933 3.82481 0.088388
vn -0.1087 0.0108974 0.994015
v 1.65327 3.80128 0.0865134
vn -0.889497 0.221857 0.399469
v 1.56127 3.4087 0.0795116
vn -0.112055 0.00698906 0.993677
v 1.6701 3.82541 0.0510794
vn -0.0669939 0.0439955 -0.996783
v 1.58387 3.49585 0.0438676
vn -0.0710684 0.0392535 -0.996699
v 1.65399 3.80184 0.051528
vn -0.810426 0.221918 -0.542183
v 1.50838 2.95763 0.0327618
vn 0.0157979 0.00245556 -0.999872
v 1.48754 2.94778 0.0327889
vn -0.0103307 -0.0323343 -0.999424
v 1.47486 2.97356 0.0326441
vn -0.00747305 0.00529212 -0.999958
v 2.03133 2.79184 0.056754
vn -0.244461 -0.969437 -0.0207502
v 1.50882 2.92585 0.0685251
vn -0.258447 -0.961291 0.0955251
v 1.50951 2.92639 0.0351839
vn -0.252694 -0.955178 -0.154209
v 2.54376 2.7243 0.0897911
vn -0.0205965 -0.0169497 0.999644
v 2.03821 2.82066 0.0807235
vn -0.0240386 -0.0299185 0.999263
v 1.71451 3.85036 0.0900367
vn -0.0247277 0.0411848 0.998846
v 1.69112 3.83369 0.0895866
vn -0.0400875 0.00671716 0.999174
v 1.71529 3.85097 0.0521199
vn 0.0163692 0.0735466 -0.997157
v 1.68646 3.85072 0.052126
vn -0.0356638 0.106281 -0.993696
v 2.54457 2.72495 0.050005
vn 0.0205985 0.0155833 -0.999666
v 1.54833 2.97652 0.0335713
vn 0.0202729 0.0156655 -0.999672
v 2.59343 2.6579 0.0662148
vn 0.0152395 -0.999758 -0.0158913
v 2.55488 2.66241 0.0524279
vn -0.226314 -0.961839 -0.153779
v 2.82224 3.57849 0.107255
vn 0.375368 0.676159 0.633962
v 2.83668 3.55948 0.107822
vn 0.071692 0.0366065 0.996755
v 2.83907 3.52942 0.107684
vn 0.0699619 -0.0342189 0.996963
v 2.84209 3.50107 0.106124
vn 0.875345 -0.223804 0.428582
v 2.74695 3.10978 0.076642
vn 0.969441 -0.244804 0.0159903
v 2.84281 3.50164 0.0711385
vn 0.835018 -0.193592 -0.515041
v 2.83984 3.53003 0.0703751
vn 0.110723 -0.00088168 -0.993851
v 2.83743 3.56008 0.0711122
vn 0.112624 0.0688341 -0.991251
v 2.82297 3.57907 0.0716998
vn 0.345938 0.593622 -0.726595
v 2.82606 3.58044 0.0859598
vn 0.487444 0.872819 0.0241833
v 2.61249 2.67043 0.0887937
vn 0.0356617 -0.10628 0.993697
v 2.75061 3.54462 0.107348
vn -0.0202419 -0.0155437 0.999674
v 1.74407 3.85873 0.0884917
vn 0.227107 0.964223 0.136735
v 2.26073 3.70049 0.0601963
vn 0.0240385 0.0299182 -0.999263
v 2.60782 2.68746 0.0513331
vn 0.0400878 -0.00671752 -0.999174
v 1.47598 2.94208 0.0692198
vn -0.400688 -0.696096 0.595735
v 1.46151 2.96107 0.0698075
vn -0.112625 -0.0688349 0.99125
v 1.4591 2.99112 0.0705446
vn -0.110953 0.00194655 0.993824
v 1.45613 3.01951 0.0697812
vn -0.892389 0.210384 0.399225
v 1.55215 3.41149 0.056933
vn -0.969441 0.244804 -0.0159913
v 1.45685 3.02007 0.0347958
vn -0.781091 0.203934 -0.590176
v 1.45987 2.99172 0.033236
vn -0.0701257 0.0349665 -0.996925
v 1.46227 2.96167 0.0330976
vn -0.0716926 -0.0366063 -0.996755
v 1.47671 2.94266 0.0336644
vn -0.31535 -0.569538 -0.759066
v 1.47303 2.94083 0.0477331
vn -0.487445 -0.872819 -0.0241843
v 1.54751 2.97588 0.0733574
vn -0.0209226 -0.0168673 0.999639
v 1.6857 3.85013 0.088836
vn -0.0765942 0.0740543 0.994308
v 1.69192 3.83431 0.0510669
vn 0.0010555 0.0391142 -0.999234
v 2.03902 2.82129 0.0413788
vn 0.0171217 0.00248879 -0.99985
v 2.55419 2.66187 0.0857692
vn -0.231898 -0.967996 0.095959
v 2.59077 2.66057 0.0876091
vn 0.00358742 -0.798183 0.602404
v 2.14906 3.26025 0.090453
vn -0.0205822 -0.0162055 0.999657
v 1.70745 3.86 0.088866
vn -0.0289029 0.778246 0.627294
v 1.72897 3.83243 0.051485
vn 0.0228893 0.030577 -0.99927
v 2.57078 2.68935 0.0502868
vn 0.0182711 0.00183085 -0.999831
f 1//1 2//2 3//3
f 1//1 3//3 4//4
f 1//1 4//4 5//5
f 1//1 5//5 6//6
f 1//1 6//6 2//2
f 7//7 8//8 9//9
f 10//10 11//11 12//12
f 13//13 14//14 15//15
f 16//16 17//17 18//18
f 19//19 20//20 21//21
f 22//22 23//23 24//24
f 22//22 24//24 25//25
f 22//22 25//25 26//26
f 22//22 26//26 27//27
f 22//22 27//27 23//23
f 28//28 29//29 30//30
f 31//31 32//32 33//33
f 34//34 35//35 36//36
f 37//37 38//38 39//39
f 40//40 41//41 42//42
f 13//13 43//43 44//44
f 10//10 45//45 46//46
f 7//7 47//47 48//48
f 19//19 49//49 50//50
f 16//16 51//51 52//52
f 10//10 53//53 45//45
f 13//13 54//54 43//43
f 16//16 55//55 51//51
f 19//19 56//56 49//49
f 7//7 57//57 47//47
f 40//40 58//58 59//59
f 28//28 60//60 61//61
f 31//31 62//62 63//63
f 34//34 64//64 65//65
f 37//37 66//66 67//67
f 40//40 68//68 58//58
f 28//28 69//69 60//60
f 31//31 70//70 62//62
f 34//34 71//71 64//64
f 37//37 72//72 66//66
f 10//10 46//46 11//11
f 7//7 48//48 8//8
f 19//19 50//50 20//20
f 16//16 52//52 17//17
f 13//13 44//44 14//14
f 40//40 42//42 68//68
f 28//28 30//30 69//69
f 31//31 33//33 70//70
f 34//34 36//36 71//71
f 37//37 39//39 72//72
f 28//28 61//61 29//29
f 31//31 63//63 32//32
f 34//34 65//65 35//35
f 37//37 67//67 38//38
f 40//40 59//59 41//41
f 10//10 12//12 53//53
f 13//13 15//15 54//54
f 16//16 18//18 55//55
f 19//19 21//21 56//56
f 7//7 9//9 57//57
f 73//73 74//74 75//75
f 76//76 77//77 78//78
f 79//79 80//80 81//81
f 82//82 83//83 84//84
f 85//85 86//86 87//87
f 88//88 89//89 90//90
f 91//91 92//92 93//93
f 94//94 95//95 96//96
f 97//97 98//98 99//99
f 100//100 101//101 102//102
f 103//103 104//104 105//105
f 106//106 107//107 108//108
f 109//109 110//110 111//111
f 112//112 113//113 114//114
f 115//115 116//116 117//117
f 88//88 118//118 119//119
f 91//91 120//120 121//121
f 94//94 122//122 123//123
f 97//97 124//124 125//125
f 100//100 126//126 127//127
f 128//128 129//129 2//2
f 130//130 131//131 3//3
f 132//132 133//133 4//4
f 134//134 135//135 5//5
f 136//136 137//137 6//6
f 76//76 138//138 8//8
f 73//73 139//139 11//11
f 85//85 140//140 14//14
f 82//82 141//141 17//17
f 79//79 142//142 20//20
f 143//143 144//144 23//23
f 145//145 146//146 24//24
f 147//147 148//148 25//25
f 149//149 150//150 26//26
f 151//151 152//152 27//27
f 103//103 153//153 29//29
f 106//106 154//154 32//32
f 109//109 155//155 35//35
f 112//112 156//156 38//38
f 115//115 157//157 41//41
f 73//73 75//75 43//43
f 76//76 78//78 45//45
f 79//79 81//81 47//47
f 82//82 84//84 49//49
f 85//85 87//87 51//51
f 88//88 90//90 53//53
f 91//91 93//93 54//54
f 94//94 96//96 55//55
f 97//97 99//99 56//56
f 100//100 102//102 57//57
f 103//103 105//105 58//58
f 106//106 108//108 60//60
f 109//109 111//111 62//62
f 112//112 114//114 64//64
f 115//115 117//117 66//66
f 88//88 119//119 68//68
f 91//91 121//121 69//69
f 94//94 123//123 70//70
f 97//97 125//125 71//71
f 100//100 127//127 72//72
f 130//130 74//74 46//46
f 132//132 77//77 48//48
f 134//134 80//80 50//50
f 136//136 83//83 52//52
f 128//128 86//86 44//44
f 158//158 89//89 42//42
f 159//159 92//92 30//30
f 160//160 95//95 33//33
f 161//161 98//98 36//36
f 162//162 101//101 39//39
f 145//145 104//104 61//61
f 147//147 107//107 63//63
f 149//149 110//110 65//65
f 151//151 113//113 67//67
f 143//143 116//116 59//59
f 159//159 118//118 12//12
f 160//160 120//120 15//15
f 161//161 122//122 18//18
f 162//162 124//124 21//21
f 158//158 126//126 9//9
f 130//130 129//129 74//74
f 132//132 131//131 77//77
f 134//134 133//133 80//80
f 136//136 135//135 83//83
f 128//128 137//137 86//86
f 158//158 138//138 89//89
f 159//159 139//139 92//92
f 160//160 140//140 95//95
f 161//161 141//141 98//98
f 162//162 142//142 101//101
f 145//145 144//144 104//104
f 147//147 146//146 107//107
f 149//149 148//148 110//110
f 151//151 150//150 113//113
f 143//143 152//152 116//116
f 159//159 153//153 118//118
f 160//160 154//154 120//120
f 161//161 155//155 122//122
f 162//162 156//156 124//124
f 158//158 157//157 126//126
f 130//130 3//3 129//129
f 132//132 4//4 131//131
f 134//134 5//5 133//133
f 136//136 6//6 135//135
f 128//128 2//2 137//137
f 158//158 9//9 138//138
f 159//159 12//12 139//139
f 160//160 15//15 140//140
f 161//161 18//18 141//141
f 162//162 21//21 142//142
f 145//145 24//24 144//144
f 147//147 25//25 146//146
f 149//149 26//26 148//148
f 151//151 27//27 150//150
f 143//143 23//23 152//152
f 159//159 30//30 153//153
f 160//160 33//33 154//154
f 161//161 36//36 155//155
f 162//162 39//39 156//156
f 158//158 42//42 157//157
f 128//128 44//44 75//75
f 130//130 46//46 78//78
f 132//132 48//48 81//81
f 134//134 50//50 84//84
f 136//136 52//52 87//87
f 76//76 45//45 90//90
f 73//73 43//43 93//93
f 85//85 51//51 96//96
f 82//82 49//49 99//99
f 79//79 47//47 102//102
f 143//143 59//59 105//105
f 145//145 61//61 108//108
f 147//147 63//63 111//111
f 149//149 65//65 114//114
f 151//151 67//67 117//117
f 103//103 58//58 119//119
f 106//106 60//60 121//121
f 109//109 62//62 123//123
f 112//112 64//64 125//125
f 115//115 66//66 127//127
f 73//73 11//11 74//74
f 76//76 8//8 77//77
f 79//79 20//20 80//80
f 82//82 17//17 83//83
f 85//85 14//14 86//86
f 88//88 68//68 89//89
f 91//91 69//69 92//92
f 94//94 70//70 95//95
f 97//97 71//71 98//98
f 100//100 72//72 101//101
f 103//103 29//29 104//104
f 106//106 32//32 107//107
f 109//109 35//35 110//110
f 112//112 38//38 113//113
f 115//115 41//41 116//116
f 88//88 53//53 118//118
f 91//91 54//54 120//120
f 94//94 55//55 122//122
f 97//97 56//56 124//124
f 100//100 57//57 126//126
f 128//128 75//75 129//129
f 130//130 78//78 131//131
f 132//132 81//81 133//133
f 134//134 84//84 135//135
f 136//136 87//87 137//137
f 76//76 90//90 138//138
f 73//73 93//93 139//139
f 85//85 96//96 140//140
f 82//82 99//99 141//141
f 79//79 102//102 142//142
f 143//143 105//105 144//144
f 145//145 108//108 146//146
f 147//147 111//111 148//148
f 149//149 114//114 150//150
f 151//151 117//117 152//152
f 103//103 119//119 153//153
f 106//106 121//121 154//154
f 109//109 123//123 155//155
f 112//112 125//125 156//156
f 115//115 127//127 157//157
f 129//129 3//3 2//2
f 131//131 4//4 3//3
f 133//133 5//5 4//4
f 135//135 6//6 5//5
f 137//137 2//2 6//6
f 138//138 9//9 8//8
f 139//139 12//12 11//11
f 140//140 15//15 14//14
f 141//141 18//18 17//17
f 142//142 21//21 20//20
f 144//144 24//24 23//23
f 146//146 25//25 24//24
f 148//148 26//26 25//25
f 150//150 27//27 26//26
f 152//152 23//23 27//27
f 153//153 30//30 29//29
f 154//154 33//33 32//32
f 155//155 36//36 35//35
f 156//156 39//39 38//38
f 157//157 42//42 41//41
f 75//75 44//44 43//43
f 78//78 46//46 45//45
f 81//81 48//48 47//47
f 84//84 50//50 49//49
f 87//87 52//52 51//51
f 90//90 45//45 53//53
f 93//93 43//43 54//54
f 96//96 51//51 55//55
f 99//99 49//49 56//56
f 102//102 47//47 57//57
f 105//105 59//59 58//58
f 108//108 61//61 60//60
f 111//111 63//63 62//62
f 114//114 65//65 64//64
f 117//117 67//67 66//66
f 119//119 58//58 68//68
f 121//121 60//60 69//69
f 123//123 62//62 70//70
f 125//125 64//64 71//71
f 127//127 66//66 72//72
f 74//74 11//11 46//46
f 77//77 8//8 48//48
f 80//80 20//20 50//50
f 83//83 17//17 52//52
f 86//86 14//14 44//44
f 89//89 68//68 42//42
f 92//92 69//69 30//30
f 95//95 70//70 33//33
f 98//98 71//71 36//36
f 101//101 72//72 39//39
f 104//104 29//29 61//61
f 107//107 32//32 63//63
f 110//110 35//35 65//65
f 113//113 38//38 67//67
f 116//116 41//41 59//59
f 118//118 53//53 12//12
f 120//120 54//54 15//15
f 122//122 55//55 18//18
f 124//124 56//56 21//21
f 126//126 57//57 9//9
f 129//129 75//75 74//74
f 131//131 78//78 77//77
f 133//133 81//81 80//80
f 135//135 84//84 83//83
f 137//137 87//87 86//86
f 138//138 90//90 89//89
f 139//139 93//93 92//92
f 140//140 96//96 95//95
f 141//141 99//99 98//98
f 142//142 102//102 101//101
f 144//144 105//105 104//104
f 146//146 108//108 107//107
f 148//148 111//111 110//110
f 150//150 114//114 113//113
f 152//152 117//117 116//116
f 153//153 119//119 118//118
f 154//154 121//121 120//120
f 155//155 123//123 122//122
f 156//156 125//125 124//124
f 157//157 127//127 126//126
