# Created by Open3D 
# object name: part_010
# number of vertices: 162
# number of triangles: 320
v 1.72972 4.93222 1.30012
vn 0.991725 -0.0878086 0.0936564
v 1.72198 4.91272 1.32006
vn 0.871446 -0.286798 0.397905
v 1.72631 4.91152 1.28767
vn 0.903968 -0.42721 -0.0182566
v 1.72825 4.93214 1.25797
vn 0.982806 -0.0869968 -0.162862
v 1.72939 4.94634 1.28767
vn 0.921529 0.387949 -0.016737
v 1.72491 4.94591 1.32006
vn 0.902766 0.162145 0.398401
v 1.49257 4.95334 0.00442944
vn 0.893779 -0.0790842 -0.441479
v 1.49367 4.93224 0.0166206
vn 0.84938 -0.422349 -0.316504
v 1.47816 4.93444 -0.0120795
vn 0.672413 -0.269069 -0.689537
v 1.58611 4.92178 0.656515
vn -0.0730863 -0.997321 -0.00288062
v 1.68774 4.9127 1.26193
vn -0.0793431 -0.996847 -0.00122591
v 1.55654 4.92416 0.661965
vn -0.0872177 -0.996189 -0.000275504
v 1.24417 4.95291 1.42235
vn -0.0748869 -0.99464 0.0712935
v 1.24582 4.95396 1.43076
vn 0.0914179 -0.609084 0.787819
v 0.80967 4.99173 1.50349
vn -0.0680053 -0.99008 0.122952
v 1.24748 4.99027 1.42235
vn 0.10102 0.992313 0.071489
v 1.65945 4.95434 1.333
vn 0.0939742 0.99514 0.0294213
v 0.830881 5.02768 1.48585
vn 0.0930837 0.995219 0.029585
v 1.61407 4.95881 0.790344
vn 0.103267 0.99465 -0.00268679
v 1.49735 4.96883 0.0786907
vn 0.124542 0.99219 -0.00691394
v 1.4702 4.97164 0.054374
vn 0.0968165 0.9953 -0.00191063
v 0.513702 5.03999 0.185003
vn -0.991725 0.0878085 -0.0936571
v 0.517901 5.01944 0.16506
vn -0.908271 -0.129159 -0.397947
v 0.513425 5.019 0.197447
vn -0.964963 -0.261754 0.0181903
v 0.51514 5.03964 0.227154
vn -0.982806 0.0869938 0.162862
v 0.516508 5.05383 0.197451
vn -0.839038 0.543813 0.0168284
v 0.520839 5.05262 0.165063
vn -0.86023 0.318302 -0.398357
v 0.653237 5.00436 0.828603
vn -0.103271 -0.99465 0.00268766
v 0.551595 5.01339 0.223185
vn -0.0970239 -0.995282 0.00103139
v 0.682759 5.0015 0.823153
vn -0.0891543 -0.996018 8.13919e-05
v 0.75085 5.01886 1.48069
vn -0.893779 0.0790832 0.44148
v 0.746064 4.99828 1.4685
vn -0.910375 -0.266618 0.316437
v 0.76172 4.99772 1.4972
vn -0.709238 -0.146883 0.689498
v 0.681201 5.04138 0.962432
vn 0.073084 0.997322 0.00288105
v 0.74887 5.03497 1.40644
vn 0.0511824 0.998663 0.00725874
v 0.776089 5.03296 1.43075
vn 0.0794728 0.996834 0.00233953
v 0.998641 5.01244 0.0627724
vn 0.0748868 0.99464 -0.071294
v 0.586771 5.04942 0.152123
vn 0.0823189 0.996177 -0.0292314
v 1.41534 4.97608 -0.000723384
vn 0.0832093 0.996099 -0.0293916
v 0.995333 4.97507 0.0627689
vn -0.101021 -0.992312 -0.0714897
v 0.993899 4.97639 0.0543612
vn -0.19699 -0.583394 -0.787938
v 1.4299 4.93697 -0.018376
vn -0.106993 -0.986604 -0.123146
v 1.65604 4.91593 1.333
vn -0.082319 -0.996177 0.0292311
v 1.67909 4.91477 1.34311
vn -0.0621503 -0.990599 0.121862
v 1.49395 4.93038 0.078687
vn -0.0514816 -0.998648 -0.00717436
v 1.70458 4.91162 1.2295
vn -0.0513722 -0.998658 -0.00655914
v 1.49675 4.96706 0.016624
vn 0.869968 0.392547 -0.298434
v 1.50612 4.95192 0.0443471
vn 0.976278 -0.0864123 -0.198532
v 1.69122 4.95196 1.26194
vn 0.0971118 0.995273 -0.000914482
v 1.70798 4.95008 1.22951
vn 0.125195 0.992112 -0.00639458
v 1.24892 4.98895 1.43076
vn 0.187211 0.718093 0.670295
v 1.68234 4.95142 1.34312
vn 0.112849 0.986086 0.122059
v 1.46673 4.93238 0.0543701
vn -0.0795179 -0.996831 -0.00219764
v 0.82748 4.98926 1.48585
vn -0.0832094 -0.996099 0.0293913
v 0.812915 5.02838 1.5035
vn 0.106993 0.986604 0.123146
v 1.58485 4.96164 0.797449
vn 0.0891548 0.996018 -8.15005e-05
v 1.4811 4.96762 -0.0120761
vn 0.704118 0.179835 -0.686933
v 0.58337 5.01101 0.152119
vn -0.0939741 -0.99514 -0.0294208
v 0.56048 5.01392 0.142007
vn -0.11285 -0.986086 -0.122061
v 0.745465 4.99651 1.40643
vn -0.124777 -0.99216 0.00698235
v 0.534833 5.01527 0.255616
vn -0.124887 -0.992151 0.00636689
v 0.749146 5.03311 1.4685
vn -0.787474 0.539229 0.298525
v 0.737267 5.01985 1.44078
vn -0.976278 0.0864114 0.198532
v 0.555071 5.05265 0.223189
vn 0.0794012 0.996842 0.00130211
v 0.538238 5.05373 0.255619
vn 0.0516176 0.998646 0.00653885
v 0.996997 5.01139 0.0543644
vn -0.0581288 0.739944 -0.670152
v 0.563724 5.05057 0.142011
vn 0.0621505 0.990599 -0.121862
v 1.41194 4.93767 -0.000727253
vn -0.0930836 -0.995219 -0.0295846
v 0.772613 4.9937 1.43075
vn -0.0968485 -0.995297 0.00200388
v 0.764658 5.0309 1.4972
vn -0.661585 0.300607 0.68698
v 0.71107 5.03898 0.958637
vn 0.0872173 0.996189 0.00027557
v 1.43315 4.97362 -0.0183725
vn 0.0680053 0.99008 -0.122952
v 1.67996 4.91351 1.30558
vn -0.0848681 -0.996347 0.00944318
v 1.70747 4.91139 1.28981
vn -0.0568134 -0.998365 0.00633294
v 1.69821 4.91251 1.32385
vn -0.0598153 -0.997666 0.0329378
v 1.49431 4.93099 0.0384064
vn 0.0211405 -0.999503 -0.0233874
v 1.50935 4.93082 0.0751971
vn 0.885817 -0.430716 -0.172661
v 1.60919 4.92067 0.652273
vn 0.0244628 -0.999485 -0.0207702
v 1.4976 4.96817 0.0384102
vn 0.1969 0.980158 -0.0228054
v 1.63584 4.95595 0.779814
vn 0.199678 0.979645 -0.0205776
v 1.51244 4.96569 0.0752005
vn 0.890377 0.426417 -0.159364
v 1.68341 4.95252 1.30558
vn 0.0914968 0.995759 0.00963845
v 1.70155 4.95029 1.32386
vn 0.116389 0.992651 0.0331253
v 1.71087 4.94978 1.28982
vn 0.119466 0.992817 0.00652681
v 1.24818 4.97507 1.43343
vn 0.180015 -0.0160305 0.983533
v 1.68096 4.91633 1.34969
vn 0.186086 -0.185007 0.964958
v 1.6839 4.94956 1.34969
vn 0.216811 0.173433 0.960684
v 1.444 4.93453 0.0163577
vn -0.0884621 -0.996027 -0.0102009
v 1.45458 4.93421 -0.00721497
vn -0.0733587 -0.99646 -0.0410596
v 1.47529 4.93207 0.0212844
vn -0.061135 -0.99798 -0.0172897
v 0.795366 4.99181 1.46876
vn -0.0879012 -0.996079 0.0100069
v 0.815534 4.98971 1.42354
vn -0.0882961 -0.996094 0.000430784
v 1.23825 4.95251 1.39041
vn -0.0864283 -0.996213 0.00948402
v 0.782667 5.03044 1.50456
vn -0.074757 0.842593 0.533337
v 0.779706 5.01648 1.50839
vn -0.256402 0.0226036 0.966306
v 0.81349 5.0266 1.51026
vn 0.170276 0.177553 0.969268
v 1.14806 5.00038 0.87857
vn 0.0881864 0.996104 9.69865e-05
v 0.819044 5.02935 1.42354
vn 0.0880993 0.996111 0.000755777
v 1.64855 4.95593 1.27052
vn 0.088501 0.996076 0.000681475
v 1.46329 4.97033 -0.0194367
vn 0.221637 0.816448 -0.533188
v 1.45793 4.97199 -0.0072113
vn 0.102848 0.993857 -0.0408696
v 1.48229 4.96923 -0.000948305
vn 0.169499 0.983279 -0.0665765
v 0.559402 5.01283 0.17954
vn -0.0914967 -0.995759 -0.00963807
v 0.531948 5.01557 0.195304
vn -0.119466 -0.992817 -0.00652708
v 0.541266 5.01505 0.161266
vn -0.116389 -0.992651 -0.0331257
v 0.745216 4.99718 1.44671
vn -0.196413 -0.980247 0.0231942
v 0.730375 4.99966 1.40992
vn -0.947712 -0.268427 0.172593
v 0.63032 5.00731 0.832846
vn -0.199678 -0.979646 0.0205774
v 0.748507 5.03435 1.44672
vn -0.020439 0.999504 0.0239401
v 0.656971 5.0426 0.960387
vn -0.0244627 0.999485 0.0207702
v 0.733461 5.03452 1.40993
vn -0.83061 0.5321 0.164186
v 0.562856 5.05183 0.179544
vn 0.0848681 0.996347 -0.00944362
v 0.544611 5.05283 0.161269
vn 0.0598155 0.997666 -0.0329382
v 0.535347 5.05395 0.195308
vn 0.0568131 0.998365 -0.00633305
v 0.995283 4.99759 0.0516879
vn -0.180015 0.0160305 -0.983533
v 0.558915 5.01579 0.135427
vn -0.215678 -0.149251 -0.964991
v 0.561857 5.04901 0.13543
vn -0.182953 0.209009 -0.960647
v 1.42377 4.93599 0.0615804
vn -0.0880761 -0.996114 -0.000624793
v 1.0011 4.97363 0.0947065
vn -0.0899358 -0.995901 -0.00967829
v 0.784889 4.99335 1.49233
vn -0.102848 -0.993857 0.0408691
v 0.764125 4.99489 1.46383
vn -0.115149 -0.993201 0.0170918
v 0.788234 5.03113 1.49234
vn 0.0733583 0.99646 0.041059
v 0.763761 5.0327 1.48607
vn 0.00588654 0.997751 0.0667651
v 1.42728 4.97564 0.0615843
vn 0.0883117 0.996093 -0.000345679
v 0.597774 5.04906 0.214605
vn 0.0879122 0.996128 -0.000272109
v 1.46375 4.95607 -0.023271
vn 0.256402 -0.0226036 -0.966306
v 1.43227 4.97197 -0.0251354
vn -0.136418 0.204891 -0.969231
v 1.70774 4.91285 1.33333
vn 0.340184 -0.759703 0.55419
v 1.71887 4.91129 1.30928
vn 0.0123959 -0.999378 0.0330281
v 1.71918 4.91097 1.26704
vn 0.0222904 -0.999604 -0.0171494
v 1.72023 4.91204 1.22732
vn 0.88706 -0.430827 -0.16587
v 1.61915 4.9423 0.650803
vn 0.979703 -0.0867189 -0.180727
v 1.72331 4.94691 1.22733
vn 0.912413 0.377814 -0.157352
v 1.72248 4.94814 1.26705
vn 0.197107 0.980248 -0.0161911
v 1.7221 4.94787 1.30929
vn 0.187773 0.981651 0.0332194
v 1.71088 4.94828 1.33333
vn 0.400782 0.8005 0.445616
v 1.71259 4.93391 1.3363
vn 0.581821 -0.051589 0.811679
v 1.47905 4.93265 -0.000951901
vn -0.00588539 -0.997751 -0.066766
v 1.64504 4.91629 1.27052
vn -0.0878963 -0.99613 0.000356934
v 0.810548 4.99338 1.51026
vn 0.139142 -0.180853 0.973618
v 1.24172 4.99171 1.39042
vn 0.0899358 0.995901 0.00967853
v 1.47869 4.97045 0.0212883
vn 0.115149 0.993201 -0.0170919
v 0.531935 5.01706 0.151788
vn -0.468352 -0.688017 -0.554328
v 0.520712 5.01747 0.175835
vn -0.187772 -0.981651 -0.0332197
v 0.520341 5.0172 0.218076
vn -0.197555 -0.980145 0.0169558
v 0.519504 5.01844 0.257796
vn -0.948956 -0.268314 0.165802
v 0.624317 5.03036 0.83432
vn -0.979703 0.0867169 0.180727
v 0.52259 5.0533 0.257799
vn -0.802805 0.576282 0.152979
v 0.523632 5.05438 0.218079
vn -0.0226134 0.999588 0.0176877
v 0.523951 5.05405 0.175838
vn -0.0123958 0.999378 -0.0330283
v 0.535072 5.05249 0.151792
vn -0.253907 0.858544 -0.445459
v 0.530865 5.03864 0.148819
vn -0.581822 0.0515888 -0.811679
v 0.594264 5.00941 0.214601
vn -0.0884761 -0.996078 -0.000551093
v 0.760523 4.99612 1.48607
vn -0.169498 -0.983279 0.0665762
v 0.767523 5.03327 1.46384
vn 0.0611348 0.99798 0.0172899
v 1.00457 5.01284 0.0947102
vn 0.0864284 0.996213 -0.00948394
v 1.42933 4.93875 -0.0251387
vn -0.168735 -0.153407 -0.97365
v 1.46015 4.9349 -0.0194402
vn 0.117514 -0.739871 -0.662406
v 1.11964 4.96275 0.742559
vn -0.0881861 -0.996104 -9.70481e-05
v 0.77953 4.99501 1.50456
vn -0.245685 -0.707834 0.662277
v 0.79882 5.03082 1.46876
vn 0.0884619 0.996027 0.0102009
v 1.44745 4.97354 0.0163615
vn 0.0879012 0.996079 -0.0100063
f 1//1 2//2 3//3
f 1//1 3//3 4//4
f 1//1 4//4 5//5
f 1//1 5//5 6//6
f 1//1 6//6 2//2
f 7//7 8//8 9//9
f 10//10 11//11 12//12
f 13//13 14//14 15//15
f 16//16 17//17 18//18
f 19//19 20//20 21//21
f 22//22 23//23 24//24
f 22//22 24//24 25//25
f 22//22 25//25 26//26
f 22//22 26//26 27//27
f 22//22 27//27 23//23
f 28//28 29//29 30//30
f 31//31 32//32 33//33
f 34//34 35//35 36//36
f 37//37 38//38 39//39
f 40//40 41//41 42//42
f 13//13 43//43 44//44
f 10//10 45//45 46//46
f 7//7 47//47 48//48
f 19//19 49//49 50//50
f 16//16 51//51 52//52
f 10//10 53//53 45//45
f 13//13 54//54 43//43
f 16//16 55//55 51//51
f 19//19 56//56 49//49
f 7//7 57//57 47//47
f 40//40 58//58 59//59
f 28//28 60//60 61//61
f 31//31 62//62 63//63
f 34//34 64//64 65//65
f 37//37 66//66 67//67
f 40//40 68//68 58//58
f 28//28 69//69 60//60
f 31//31 70//70 62//62
f 34//34 71//71 64//64
f 37//37 72//72 66//66
f 10//10 46//46 11//11
f 7//7 48//48 8//8
f 19//19 50//50 20//20
f 16//16 52//52 17//17
f 13//13 44//44 14//14
f 40//40 42//42 68//68
f 28//28 30//30 69//69
f 31//31 33//33 70//70
f 34//34 36//36 71//71
f 37//37 39//39 72//72
f 28//28 61//61 29//29
f 31//31 63//63 32//32
f 34//34 65//65 35//35
f 37//37 67//67 38//38
f 40//40 59//59 41//41
f 10//10 12//12 53//53
f 13//13 15//15 54//54
f 16//16 18//18 55//55
f 19//19 21//21 56//56
f 7//7 9//9 57//57
f 73//73 74//74 75//75
f 76//76 77//77 78//78
f 79//79 80//80 81//81
f 82//82 83//83 84//84
f 85//85 86//86 87//87
f 88//88 89//89 90//90
f 91//91 92//92 93//93
f 94//94 95//95 96//96
f 97//97 98//98 99//99
f 100//100 101//101 102//102
f 103//103 104//104 105//105
f 106//106 107//107 108//108
f 109//109 110//110 111//111
f 112//112 113//113 114//114
f 115//115 116//116 117//117
f 88//88 118//118 119//119
f 91//91 120//120 121//121
f 94//94 122//122 123//123
f 97//97 124//124 125//125
f 100//100 126//126 127//127
f 128//128 129//129 2//2
f 130//130 131//131 3//3
f 132//132 133//133 4//4
f 134//134 135//135 5//5
f 136//136 137//137 6//6
f 76//76 138//138 8//8
f 73//73 139//139 11//11
f 85//85 140//140 14//14
f 82//82 141//141 17//17
f 79//79 142//142 20//20
f 143//143 144//144 23//23
f 145//145 146//146 24//24
f 147//147 148//148 25//25
f 149//149 150//150 26//26
f 151//151 152//152 27//27
f 103//103 153//153 29//29
f 106//106 154//154 32//32
f 109//109 155//155 35//35
f 112//112 156//156 38//38
f 115//115 157//157 41//41
f 73//73 75//75 43//43
f 76//76 78//78 45//45
f 79//79 81//81 47//47
f 82//82 84//84 49//49
f 85//85 87//87 51//51
f 88//88 90//90 53//53
f 91//91 93//93 54//54
f 94//94 96//96 55//55
f 97//97 99//99 56//56
f 100//100 102//102 57//57
f 103//103 105//105 58//58
f 106//106 108//108 60//60
f 109//109 111//111 62//62
f 112//112 114//114 64//64
f 115//115 117//117 66//66
f 88//88 119//119 68//68
f 91//91 121//121 69//69
f 94//94 123//123 70//70
f 97//97 125//125 71//71
f 100//100 127//127 72//72
f 130//130 74//74 46//46
f 132//132 77//77 48//48
f 134//134 80//80 50//50
f 136//136 83//83 52//52
f 128//128 86//86 44//44
f 158//158 89//89 42//42
f 159//159 92//92 30//30
f 160//160 95//95 33//33
f 161//161 98//98 36//36
f 162//162 101//101 39//39
f 145//145 104//104 61//61
f 147//147 107//107 63//63
f 149//149 110//110 65//65
f 151//151 113//113 67//67
f 143//143 116//116 59//59
f 159//159 118//118 12//12
f 160//160 120//120 15//15
f 161//161 122//122 18//18
f 162//162 124//124 21//21
f 158//158 126//126 9//9
f 130//130 129//129 74//74
f 132//132 131//131 77//77
f 134//134 133//133 80//80
f 136//136 135//135 83//83
f 128//128 137//137 86//86
f 158//158 138//138 89//89
f 159//159 139//139 92//92
f 160//160 140//140 95//95
f 161//161 141//141 98//98
f 162//162 142//142 101//101
f 145//145 144//144 104//104
f 147//147 146//146 107//107
f 149//149 148//148 110//110
f 151//151 150//150 113//113
f 143//143 152//152 116//116
f 159//159 153//153 118//118
f 160//160 154//154 120//120
f 161//161 155//155 122//122
f 162//162 156//156 124//124
f 158//158 157//157 126//126
f 130//130 3//3 129//129
f 132//132 4//4 131//131
f 134//134 5//5 133//133
f 136//136 6//6 135//135
f 128//128 2//2 137//137
f 158//158 9//9 138//138
f 159//159 12//12 139//139
f 160//160 15//15 140//140
f 161//161 18//18 141//141
f 162//162 21//21 142//142
f 145//145 24//24 144//144
f 147//147 25//25 146//146
f 149//149 26//26 148//148
f 151//151 27//27 150//150
f 143//143 23//23 152//152
f 159//159 30//30 153//153
f 160//160 33//33 154//154
f 161//161 36//36 155//155
f 162//162 39//39 156//156
f 158//158 42//42 157//157
f 128//128 44//44 75//75
f 130//130 46//46 78//78
f 132//132 48//48 81//81
f 134//134 50//50 84//84
f 136//136 52//52 87//87
f 76//76 45//45 90//90
f 73//73 43//43 93//93
f 85//85 51//51 96//96
f 82//82 49//49 99//99
f 79//79 47//47 102//102
f 143//143 59//59 105//105
f 145//145 61//61 108//108
f 147//147 63//63 111//111
f 149//149 65//65 114//114
f 151//151 67//67 117//117
f 103//103 58//58 119//119
f 106//106 60//60 121//121
f 109//109 62//62 123//123
f 112//112 64//64 125//125
f 115//115 66//66 127//127
f 73//73 11//11 74//74
f 76//76 8//8 77//77
f 79//79 20//20 80//80
f 82//82 17//17 83//83
f 85//85 14//14 86//86
f 88//88 68//68 89//89
f 91//91 69//69 92//92
f 94//94 70//70 95//95
f 97//97 71//71 98//98
f 100//100 72//72 101//101
f 103//103 29//29 104//104
f 106//106 32//32 107//107
f 109//109 35//35 110//110
f 112//112 38//38 113//113
f 115//115 41//41 116//116
f 88//88 53//53 118//118
f 91//91 54//54 120//120
f 94//94 55//55 122//122
f 97//97 56//56 124//124
f 100//100 57//57 126//126
f 128//128 75//75 129//129
f 130//130 78//78 131//131
f 132//132 81//81 133//133
f 134//134 84//84 135//135
f 136//136 87//87 137//137
f 76//76 90//90 138//138
f 73//73 93//93 139//139
f 85//85 96//96 140//140
f 82//82 99//99 141//141
f 79//79 102//102 142//142
f 143//143 105//105 144//144
f 145//145 108//108 146//146
f 147//147 111//111 148//148
f 149//149 114//114 150//150
f 151//151 117//117 152//152
f 103//103 119//119 153//153
f 106//106 121//121 154//154
f 109//109 123//123 155//155
f 112//112 125//125 156//156
f 115//115 127//127 157//157
f 129//129 3//3 2//2
f 131//131 4//4 3//3
f 133//133 5//5 4//4
f 135//135 6//6 5//5
f 137//137 2//2 6//6
f 138//138 9//9 8//8
f 139//139 12//12 11//11
f 140//140 15//15 14//14
f 141//141 18//18 17//17
f 142//142 21//21 20//20
f 144//144 24//24 23//23
f 146//146 25//25 24//24
f 148//148 26//26 25//25
f 150//150 27//27 26//26
f 152//152 23//23 27//27
f 153//153 30//30 29//29
f 154//154 33//33 32//32
f 155//155 36//36 35//35
f 156//156 39//39 38//38
f 157//157 42//42 41//41
f 75//75 44//44 43//43
f 78//78 46//46 45//45
f 81//81 48//48 47//47
f 84//84 50//50 49//49
f 87//87 52//52 51//51
f 90//90 45//45 53//53
f 93//93 43//43 54//54
f 96//96 51//51 55//55
f 99//99 49//49 56//56
f 102//102 47//47 57//57
f 105//105 59//59 58//58
f 108//108 61//61 60//60
f 111//111 63//63 62//62
f 114//114 65//65 64//64
f 117//117 67//67 66//66
f 119//119 58//58 68//68
f 121//121 60//60 69//69
f 123//123 62//62 70//70
f 125//125 64//64 71//71
f 127//127 66//66 72//72
f 74//74 11//11 46//46
f 77//77 8//8 48//48
f 80//80 20//20 50//50
f 83//83 17//17 52//52
f 86//86 14//14 44//44
f 89//89 68//68 42//42
f 92//92 69//69 30//30
f 95//95 70//70 33//33
f 98//98 71//71 36//36
f 101//101 72//72 39//39
f 104//104 29//29 61//61
f 107//107 32//32 63//63
f 110//110 35//35 65//65
f 113//113 38//38 67//67
f 116//116 41//41 59//59
f 118//118 53//53 12//12
f 120//120 54//54 15//15
f 122//122 55//55 18//18
f 124//124 56//56 21//21
f 126//126 57//57 9//9
f 129//129 75//75 74//74
f 131//131 78//78 77//77
f 133//133 81//81 80//80
f 135//135 84//84 83//83
f 137//137 87//87 86//86
f 138//138 90//90 89//89
f 139//139 93//93 92//92
f 140//140 96//96 95//95
f 141//141 99//99 98//98
f 142//142 102//102 101//101
f 144//144 105//105 104//104
f 146//146 108//108 107//107
f 148//148 111//111 110//110
f 150//150 114//114 113//113
f 152//152 117//117 116//116
f 153//153 119//119 118//118
f 154//154 121//121 120//120
f 155//155 123//123 122//122
f 156//156 125//125 124//124
f 157//157 127//127 126//126
