# https://github.com/mikedh/trimesh

o boxmedium_f1000.ply
v 0.07694385 -0.07692694 -0.10159799 0.66666667 0.76078431 0.37647059
v 0.07324081 -0.07422240 0.03945911 0.70196078 0.81568627 0.39215686
v 0.06238028 -0.07735755 0.05478824 0.77254902 0.89019608 0.44313725
v 0.07024974 -0.07388939 0.11843114 0.69803922 0.85490196 0.46274510
v -0.04481460 -0.07552169 0.11587202 0.69803922 0.78431373 0.34509804
v -0.02921186 -0.07651646 -0.10780202 0.74117647 0.78039216 0.34901961
v 0.09581473 -0.07755740 0.15203083 0.73333333 0.84705882 0.46274510
v 0.08986671 -0.07521771 -0.01994615 0.66274510 0.76470588 0.34117647
v -0.10741651 -0.07573511 0.12124664 0.80784314 0.91764706 0.61568627
v 0.09947550 -0.07240884 0.15476176 0.73725490 0.84705882 0.46274510
v 0.06285385 -0.07461300 -0.09823583 0.69411765 0.82352941 0.39607843
v -0.03818292 -0.07374382 0.11680609 0.72941176 0.83529412 0.43921569
v 0.06646757 -0.07606515 -0.08877425 0.67843137 0.79607843 0.37254902
v 0.08069753 -0.07289713 0.11030965 0.53333333 0.67843137 0.35294118
v 0.07056751 -0.07472248 -0.00021917 0.65098039 0.75294118 0.35294118
v 0.04526324 -0.07494669 0.11379100 0.76078431 0.88235294 0.41960784
v 0.07620518 -0.07403320 0.01600923 0.65490196 0.76078431 0.34901961
v -0.02021784 -0.07241008 0.12262611 0.72156863 0.83137255 0.42745098
v 0.07583084 -0.07194278 -0.08618039 0.67450980 0.78823529 0.34901961
v 0.09767933 -0.07500487 0.00056401 0.69019608 0.78039216 0.32156863
v 0.05975718 -0.07324697 0.03660847 0.67843137 0.79215686 0.37254902
v 0.09944046 -0.07337408 0.13572462 0.72156863 0.83921569 0.44705882
v 0.07606587 -0.07186956 -0.10803204 0.60000000 0.73333333 0.34901961
v -0.02296205 -0.07042719 -0.09960169 0.69019608 0.74509804 0.31764706
v 0.00148131 -0.07374182 0.12219750 0.69411765 0.81960784 0.40392157
v -0.00882682 -0.07183652 0.13778978 0.68235294 0.80392157 0.36470588
v 0.01665185 -0.07264743 0.14612821 0.70980392 0.83529412 0.37647059
v -0.02481742 -0.07358398 0.13439488 0.67058824 0.77254902 0.35294118
v 0.05932505 -0.07385494 0.14743170 0.69411765 0.81176471 0.38431373
v 0.02627066 -0.07228978 0.12948457 0.73333333 0.86274510 0.42352941
v 0.03375541 -0.07237704 0.14996599 0.67058824 0.78039216 0.36078431
v 0.03483488 -0.07186652 -0.07322162 0.67058824 0.78823529 0.37254902
v 0.01141705 -0.07316684 0.11271482 0.74117647 0.85882353 0.45098039
v 0.07872806 -0.07379059 0.18099891 0.70196078 0.82745098 0.40392157
v 0.07780218 -0.07188756 0.12770743 0.69411765 0.80392157 0.38431373
v 0.08323176 -0.07319564 -0.03648066 0.67843137 0.79215686 0.35294118
v -0.04800928 -0.06840285 0.11180342 0.63529412 0.75294118 0.33333333
v -0.00596847 -0.07294335 0.12770861 0.71764706 0.82745098 0.41176471
v 0.07369241 -0.07437752 0.10365850 0.69411765 0.81568627 0.43529412
v 0.05357544 -0.07254382 0.05563852 0.67450980 0.79607843 0.35686275
v -0.05865886 -0.07205804 -0.01344888 0.83137255 0.96078431 0.67058824
v 0.07791676 -0.07285525 0.07836299 0.67450980 0.78823529 0.35686275
v 0.09279846 -0.07145265 0.13727411 0.69411765 0.80000000 0.38039216
v 0.11007857 -0.07312089 -0.03880417 0.67450980 0.78431373 0.34509804
v 0.04775965 -0.07340880 -0.09063250 0.66274510 0.78039216 0.35686275
v 0.04824107 -0.07084546 0.11278050 0.73333333 0.85882353 0.40000000
v 0.05953770 -0.07349274 0.09182773 0.72156863 0.83529412 0.38823529
v 0.08654283 -0.07185129 0.20414217 0.73725490 0.83921569 0.43921569
v -0.01991843 -0.07102837 0.22166404 0.71764706 0.81568627 0.42352941
v 0.07417726 -0.07281293 0.05858624 0.68235294 0.80392157 0.35686275
v 0.09925345 -0.07102008 0.16847637 0.79215686 0.90588235 0.50196078
v 0.05314842 -0.07188632 0.01480422 0.65882353 0.76862745 0.36078431
v 0.10544497 -0.07248251 0.02643277 0.73725490 0.81960784 0.26666667
v 0.06879005 -0.07081993 -0.10416283 0.65882353 0.79215686 0.35686275
v 0.05493239 -0.07111838 -0.00434343 0.67450980 0.79215686 0.36078431
v 0.04738241 -0.07227538 -0.06615458 0.69411765 0.80784314 0.37254902
v 0.00453624 -0.07211152 0.02721674 0.68235294 0.80000000 0.36470588
v 0.09293802 -0.07344830 0.03107280 0.67450980 0.77647059 0.33333333
v 0.07301629 -0.06706913 0.21228207 0.69803922 0.82745098 0.41176471
v -0.05308563 -0.07286038 0.00467994 0.81960784 0.93725490 0.63529412
v 0.08423177 -0.07153736 0.21536770 0.71372549 0.82745098 0.42745098
v -0.05097913 -0.07372256 0.02699688 0.75686275 0.87450980 0.51764706
v -0.05534012 -0.07203537 0.03979183 0.80784314 0.92941176 0.61568627
v -0.03836064 -0.07230751 0.02659666 0.67843137 0.79607843 0.38823529
v 0.04556893 -0.07210071 0.15078722 0.71764706 0.82352941 0.40392157
v 0.06563424 -0.07271054 -0.02037320 0.66274510 0.77254902 0.35686275
v 0.05834489 -0.07172263 -0.03857176 0.65882353 0.77647059 0.34509804
v 0.11411026 -0.07235366 -0.06992943 0.68235294 0.78823529 0.34117647
v 0.03513518 -0.06969943 0.09065843 0.70588235 0.82745098 0.38039216
v 0.11387082 -0.06868116 -0.01022639 0.76862745 0.83921569 0.25490196
v 0.01137391 -0.07122386 0.01212908 0.67450980 0.78823529 0.37254902
v 0.06936406 -0.07252771 -0.11947564 0.68235294 0.79607843 0.35686275
v 0.08539968 -0.07212573 -0.05537412 0.68627451 0.80392157 0.35686275
v 0.02117336 -0.07146461 0.18619223 0.74509804 0.85098039 0.44705882
v 0.01823965 -0.07157229 0.21216645 0.69019608 0.80000000 0.39215686
v -0.00837457 -0.07122678 0.00710824 0.66274510 0.77647059 0.35294118
v -0.06000217 -0.07073457 -0.02612710 0.83921569 0.96862745 0.67843137
v 0.03654912 -0.07187295 0.07976693 0.66666667 0.78823529 0.35294118
v 0.06296166 -0.06686012 0.19351904 0.64705882 0.76862745 0.34117647
v 0.02673498 -0.07058085 -0.09622436 0.66274510 0.76470588 0.34117647
v 0.03079584 -0.07154767 0.01743591 0.68235294 0.79607843 0.38039216
v -0.06428493 -0.06737582 0.02810271 0.82745098 0.95294118 0.66274510
v 0.02022226 -0.07063338 -0.05458464 0.61568627 0.72549020 0.32941176
v 0.09825303 -0.07084110 0.05725830 0.68235294 0.78431373 0.35294118
v 0.03473219 -0.07151923 -0.02767941 0.66666667 0.77647059 0.35686275
v 0.04401575 -0.07059797 -0.05134061 0.64313725 0.75294118 0.32941176
v 0.05252523 -0.07029338 0.08385637 0.66274510 0.78039216 0.34509804
v 0.09175275 -0.07119745 -0.10912264 0.69019608 0.80000000 0.35686275
v 0.09658678 -0.07145195 -0.07588242 0.64705882 0.74117647 0.32549020
v 0.04340352 -0.07042658 0.03971351 0.67058824 0.79607843 0.36078431
v 0.08935020 -0.07021021 0.18977752 0.70196078 0.80392157 0.40784314
v 0.03262385 -0.06855693 0.22166963 0.73333333 0.85490196 0.45882353
v -0.00858803 -0.06959016 0.04166058 0.67843137 0.79215686 0.36078431
v 0.01596727 -0.07128097 -0.08941779 0.68627451 0.80000000 0.34901961
v 0.07745179 -0.06983817 0.11350327 0.62745098 0.75686275 0.34509804
v -0.02831148 -0.06849907 -0.09703035 0.67450980 0.74509804 0.32549020
v 0.04061303 -0.07084452 -0.11673277 0.64705882 0.76470588 0.32941176
v 0.02166800 -0.07127244 0.03741437 0.68627451 0.80000000 0.37254902
v -0.00355522 -0.06974999 -0.09898167 0.68235294 0.78431373 0.34509804
v -0.06301910 -0.06955846 0.01356993 0.82352941 0.94509804 0.65882353
v 0.01274207 -0.06962480 -0.11258911 0.69019608 0.79607843 0.37647059
v 0.06319540 -0.06951448 0.23008070 0.61176471 0.73333333 0.36078431
v -0.04259445 -0.07169716 0.05265397 0.69411765 0.80784314 0.41568627
v 0.05694203 -0.06679757 0.16055965 0.70588235 0.81176471 0.38039216
v 0.07644987 -0.06823130 0.14492117 0.70196078 0.82352941 0.38431373
v 0.00908358 -0.07005694 0.19169237 0.72941176 0.83921569 0.41960784
v 0.07470082 -0.06723510 0.16461292 0.68235294 0.81176471 0.40000000
v 0.04354209 -0.06992456 -0.09014355 0.69019608 0.80392157 0.35294118
v -0.00554410 -0.07148261 0.21644659 0.78823529 0.86274510 0.39607843
v -0.03779306 -0.06779403 -0.03526582 0.83921569 0.96470588 0.66274510
v -0.03489092 -0.06955973 -0.01868075 0.73333333 0.85490196 0.44313725
v 0.02314809 -0.07210572 0.09255327 0.71764706 0.83529412 0.39607843
v -0.02588472 -0.06777686 0.01261251 0.70588235 0.82352941 0.41176471
v 0.01036699 -0.06938762 -0.00374321 0.66666667 0.78431373 0.36078431
v 0.09582541 -0.07032942 0.08380844 0.67843137 0.78431373 0.35294118
v -0.00635588 -0.07056924 0.19861007 0.70588235 0.82745098 0.38431373
v -0.03689148 -0.06863835 0.18598762 0.71764706 0.83921569 0.40000000
v 0.12202749 -0.06865270 -0.09643386 0.69803922 0.79607843 0.39215686
v -0.03906368 -0.06776692 0.14597634 0.70588235 0.82352941 0.39215686
v -0.04797624 -0.06948232 0.20685641 0.72941176 0.85490196 0.39607843
v 0.03038640 -0.07010418 0.06499822 0.67843137 0.80000000 0.36078431
v 0.11782183 -0.07072272 -0.12188950 0.69019608 0.80000000 0.35294118
v -0.03652533 -0.07044010 0.21411669 0.70196078 0.83529412 0.37647059
v 0.00946936 -0.06895787 0.05255894 0.69019608 0.80000000 0.38823529
v 0.04137541 -0.06753190 0.22892777 0.61960784 0.74509804 0.37254902
v 0.10260156 -0.06970395 0.11034568 0.68235294 0.78431373 0.37254902
v 0.06937816 -0.06902244 0.15859559 0.70980392 0.83137255 0.42352941
v 0.07917575 -0.06917000 -0.17730107 0.68627451 0.79607843 0.36470588
v -0.03136675 -0.06902341 -0.11197612 0.67058824 0.76862745 0.31764706
v -0.00631853 -0.06924956 0.06308096 0.69803922 0.81568627 0.37254902
v -0.08791497 -0.07002597 0.19022071 0.69019608 0.81176471 0.35294118
v -0.01707645 -0.06551841 0.15219044 0.68627451 0.81176471 0.37254902
v -0.06085828 -0.06823600 0.06753731 0.74901961 0.86666667 0.52156863
v 0.03772937 -0.06822272 0.20698197 0.68235294 0.79215686 0.37647059
v 0.05866499 -0.06952133 0.20780314 0.67843137 0.80784314 0.38039216
v 0.02135558 -0.07047223 0.22685418 0.61176471 0.75294118 0.36470588
v -0.00691402 -0.06854133 -0.11506719 0.65490196 0.76470588 0.34117647
v 0.03461406 -0.06929822 -0.00653944 0.67450980 0.78431373 0.37647059
v 0.10647691 -0.06893823 0.08310677 0.75686275 0.86274510 0.44705882
v 0.05362968 -0.06962508 -0.13923362 0.67843137 0.79215686 0.34901961
v -0.06847590 -0.06662556 -0.00797066 0.82352941 0.94509804 0.67058824
v -0.01832759 -0.07018763 0.20661764 0.74509804 0.87058824 0.41176471
v -0.03182803 -0.06799109 0.06169838 0.69411765 0.81568627 0.36862745
v 0.09941007 -0.06958233 -0.13578575 0.69411765 0.80392157 0.36078431
v -0.00482608 -0.06940798 0.09890500 0.71764706 0.83921569 0.39607843
v -0.00903604 -0.06957782 0.10979994 0.72941176 0.83921569 0.42745098
v -0.00369180 -0.06726016 0.22496064 0.68627451 0.82745098 0.40000000
v 0.02947112 -0.06689783 0.12401957 0.76470588 0.89411765 0.45098039
v 0.00495034 -0.06961137 -0.04601113 0.67058824 0.78431373 0.35294118
v -0.04394313 -0.06747731 0.13054069 0.67058824 0.78431373 0.35686275
v -0.09097626 -0.06948105 0.20245154 0.71372549 0.83921569 0.36862745
v 0.09447993 -0.06904206 -0.15969076 0.72549020 0.83529412 0.37254902
v 0.12142511 -0.06370346 -0.07505406 0.75686275 0.84313725 0.40784314
v 0.00487637 -0.06928191 -0.08632582 0.69411765 0.80392157 0.34901961
v 0.08059737 -0.06773205 -0.10034726 0.67450980 0.77647059 0.33333333
v 0.00395423 -0.06820009 0.15345682 0.69019608 0.81176471 0.37254902
v -0.01591493 -0.06850407 0.18046417 0.70196078 0.81960784 0.38823529
v 0.11182971 -0.06959841 -0.14967358 0.70588235 0.81960784 0.36470588
v 0.01680945 -0.06907188 0.17036774 0.73725490 0.85490196 0.41176471
v 0.09461883 -0.06598838 0.23096300 0.78039216 0.88627451 0.51372549
v 0.00865300 -0.06977542 0.07103839 0.69411765 0.81568627 0.37254902
v -0.01486149 -0.06784674 0.07570223 0.69411765 0.81176471 0.37647059
v 0.00551319 -0.06888694 -0.14373591 0.65882353 0.77647059 0.34901961
v -0.01667700 -0.06907944 0.08804936 0.72156863 0.84313725 0.38823529
v -0.11668955 -0.06809629 0.21484039 0.70588235 0.85098039 0.41568627
v 0.07826868 -0.06960253 -0.15996674 0.69019608 0.80392157 0.36078431
v -0.06055157 -0.06861689 0.18852154 0.65490196 0.77254902 0.34117647
v -0.02297463 -0.07000972 -0.02142158 0.66666667 0.78823529 0.34117647
v 0.00297351 -0.06929908 -0.01857424 0.65490196 0.76862745 0.34509804
v -0.06445826 -0.06710709 0.20605834 0.73333333 0.85882353 0.38823529
v -0.03127715 -0.06922396 -0.05731586 0.70980392 0.83529412 0.41176471
v -0.03214062 -0.06561594 0.01640080 0.69803922 0.81176471 0.38039216
v -0.04833320 -0.07001002 -0.07136518 0.82352941 0.94509804 0.63137255
v -0.04180567 -0.06824841 -0.05080910 0.81568627 0.92549020 0.59607843
v 0.02230969 -0.06805559 0.10362852 0.72941176 0.85882353 0.39607843
v 0.03836716 -0.06936744 -0.15061053 0.67058824 0.79215686 0.34117647
v -0.11154544 -0.06625341 0.18907365 0.68235294 0.81176471 0.35686275
v -0.08162118 -0.06729838 0.12341145 0.70588235 0.83137255 0.37647059
v -0.03360111 -0.06811383 0.16257977 0.72941176 0.83921569 0.43529412
v 0.10958424 -0.06575151 0.05263039 0.80784314 0.89019608 0.40000000
v -0.09521155 -0.06537331 0.13505619 0.71372549 0.83137255 0.38039216
v -0.11378279 -0.06703091 0.20418857 0.73333333 0.86274510 0.39215686
v -0.03196771 -0.06653397 0.03196754 0.65098039 0.77254902 0.33725490
v -0.08419324 -0.06807642 0.14685773 0.70588235 0.83529412 0.37254902
v -0.01351758 -0.06837172 -0.07324641 0.67450980 0.78823529 0.34901961
v -0.03592753 -0.06743656 0.07430431 0.70196078 0.81568627 0.38431373
v -0.04539903 -0.06422938 0.22122401 0.61176471 0.75686275 0.33725490
v 0.04053901 -0.06667679 0.17214048 0.70980392 0.81960784 0.39215686
v -0.08350275 -0.06550704 0.17398915 0.67058824 0.79607843 0.34509804
v 0.05795872 -0.06768616 0.22079847 0.67450980 0.79607843 0.38823529
v 0.11689298 -0.06815937 -0.21105195 0.74117647 0.84313725 0.40000000
v -0.02348429 -0.06598544 0.04687240 0.68627451 0.80784314 0.36470588
v -0.03877319 -0.06893285 -0.08776838 0.78039216 0.89411765 0.53333333
v 0.06148715 -0.06566048 0.17380096 0.69411765 0.80784314 0.40000000
v -0.06916620 -0.06727904 0.15904109 0.67843137 0.80392157 0.35294118
v 0.09423070 -0.06788741 -0.19476771 0.69411765 0.80392157 0.35686275
v -0.02734487 -0.06571825 -0.03723306 0.67450980 0.79607843 0.35686275
v -0.11587038 -0.06683800 0.17207018 0.69411765 0.81960784 0.37647059
v -0.06157087 -0.06710127 0.11964129 0.69411765 0.81960784 0.37254902
v -0.03202759 -0.06752134 0.09858725 0.70588235 0.81960784 0.37647059
v 0.04033520 -0.06850304 -0.17828887 0.70196078 0.81568627 0.37254902
v -0.08675377 -0.06716550 0.06596234 0.73725490 0.86666667 0.50196078
v 0.12717712 -0.06714585 -0.17009166 0.72549020 0.82745098 0.39215686
v 0.09694718 -0.06624459 0.19155320 0.78823529 0.88627451 0.46666667
v 0.02280724 -0.06781141 -0.13131887 0.64313725 0.76078431 0.32549020
v -0.07015374 -0.06530022 0.14125030 0.69411765 0.81568627 0.36862745
v -0.07418423 -0.06546697 0.04625475 0.84313725 0.96862745 0.68627451
v 0.01550109 -0.06773386 -0.16438811 0.67843137 0.79215686 0.35686275
v -0.05970744 -0.06673772 0.17317425 0.69803922 0.81960784 0.37254902
v -0.04766217 -0.06709615 0.08035901 0.71372549 0.82745098 0.39607843
v -0.02067792 -0.06631111 -0.05482387 0.65098039 0.77254902 0.33333333
v 0.10360968 -0.04912428 0.12697756 0.75686275 0.85490196 0.45490196
v -0.10250284 -0.06520954 0.21559995 0.70196078 0.84705882 0.40784314
v -0.10150299 -0.06495305 0.15985136 0.69803922 0.82352941 0.36470588
v -0.02510357 -0.06307586 -0.00536453 0.66666667 0.78823529 0.34901961
v 0.08759370 -0.06899042 0.23206324 0.68627451 0.81176471 0.48235294
v -0.05950036 -0.06587003 -0.09803362 0.79607843 0.91372549 0.56078431
v -0.11212919 -0.06748851 0.13759780 0.65882353 0.78039216 0.33725490
v -0.03935743 -0.06470085 -0.10256407 0.65882353 0.76078431 0.35294118
v -0.10130238 -0.06707637 0.00067895 0.85098039 0.97254902 0.69411765
v -0.07466047 -0.06788848 0.10148314 0.67843137 0.78823529 0.35294118
v 0.11252201 -0.06614800 -0.18640296 0.70980392 0.81568627 0.36862745
v -0.03734215 -0.06617324 -0.14615571 0.68235294 0.79215686 0.34117647
v 0.05002643 -0.06725072 -0.19941593 0.69803922 0.81176471 0.37647059
v 0.04499095 -0.06245063 0.19420458 0.69411765 0.81568627 0.39215686
v 0.05348586 -0.06594962 -0.21733633 0.71372549 0.82745098 0.39215686
v -0.02315398 -0.06659532 -0.17100453 0.65882353 0.77254902 0.34509804
v -0.04979475 -0.06629573 0.16717282 0.69803922 0.81960784 0.37647059
v -0.02755891 -0.06545427 -0.13404299 0.66274510 0.78039216 0.33725490
v -0.11044708 -0.06676256 0.08078676 0.68627451 0.80784314 0.36862745
v -0.09872225 -0.06699373 0.17507591 0.68235294 0.80392157 0.35686275
v 0.07378602 -0.06723140 -0.20536572 0.69019608 0.80784314 0.36078431
v -0.05583544 -0.06460352 -0.07228779 0.81960784 0.93725490 0.64313725
v -0.01696556 -0.06682406 -0.15501862 0.66666667 0.78823529 0.34117647
v -0.12335140 -0.06633669 0.16303971 0.77647059 0.87843137 0.45882353
v -0.04391411 -0.06669772 -0.13455488 0.65882353 0.77254902 0.32549020
v 0.01887348 -0.06677574 -0.20372002 0.68627451 0.80784314 0.36470588
v -0.07575913 -0.06512430 0.21878306 0.65490196 0.78431373 0.36078431
v -0.05729424 -0.06685774 -0.15767375 0.66274510 0.77254902 0.34117647
v -0.07518011 -0.06593508 -0.04729422 0.83529412 0.96078431 0.67450980
v -0.00625242 -0.06529694 -0.20622450 0.66666667 0.78823529 0.34901961
v -0.10066984 -0.06435449 -0.03150946 0.84705882 0.96078431 0.69803922
v -0.07168585 -0.06316061 -0.06806433 0.83529412 0.95686275 0.65882353
v 0.08688421 -0.06537135 -0.21682953 0.74901961 0.85882353 0.40784314
v -0.08107187 -0.06627606 -0.02362987 0.83921569 0.96078431 0.68235294
v 0.12662902 -0.06707640 -0.22459990 0.67058824 0.81176471 0.39607843
v -0.08565038 -0.06513667 0.02028763 0.83529412 0.96470588 0.67843137
v -0.08907264 -0.06478050 0.08689499 0.67058824 0.79215686 0.37647059
v -0.09685873 -0.06648718 0.09897278 0.68235294 0.79607843 0.34901961
v 0.13477245 -0.06251015 -0.22083478 0.74509804 0.84313725 0.41960784
v -0.11245020 -0.06618334 0.10207527 0.66666667 0.79215686 0.34117647
v -0.06194297 -0.06468350 -0.10935512 0.68235294 0.80392157 0.36470588
v -0.11727814 -0.06394845 0.11069259 0.74509804 0.85098039 0.44705882
v 0.08042982 -0.06504519 -0.23336788 0.71372549 0.82745098 0.39215686
v -0.02906833 -0.06618038 -0.18660980 0.69411765 0.80784314 0.36470588
v -0.12006821 -0.06348642 0.13066570 0.76862745 0.87058824 0.45098039
v -0.11559936 -0.06520052 0.07506195 0.83529412 0.94117647 0.64705882
v -0.08171763 -0.06536804 -0.10749352 0.68627451 0.81176471 0.39215686
v -0.10150664 -0.06543633 0.04347427 0.83921569 0.95686275 0.68235294
v -0.10105920 -0.06414823 0.11288023 0.69803922 0.81568627 0.37647059
v 0.04925419 -0.06358798 -0.23145512 0.71372549 0.82745098 0.40000000
v 0.12914348 -0.06482355 -0.15287667 0.76078431 0.85098039 0.43921569
v -0.03853227 -0.06484055 -0.19663089 0.69411765 0.81568627 0.36470588
v -0.07442993 -0.06304546 -0.02823140 0.84313725 0.96862745 0.69803922
v -0.07905722 -0.06424337 0.09499927 0.68627451 0.80392157 0.36078431
v -0.13012283 -0.06117524 0.21310089 0.68627451 0.81176471 0.38431373
v -0.07685422 -0.06565609 -0.07311271 0.84313725 0.96078431 0.66666667
v -0.12602141 -0.06369197 0.19171338 0.74901961 0.85882353 0.41960784
v 0.11007138 -0.06419054 -0.21789413 0.69019608 0.80000000 0.37254902
v -0.06212341 -0.06465872 -0.14105971 0.65490196 0.77254902 0.32941176
v -0.08306344 -0.06367572 0.00058629 0.82352941 0.94901961 0.66274510
v -0.04830943 -0.06461687 -0.17022787 0.66274510 0.77254902 0.33333333
v -0.04251238 -0.06331776 -0.21363826 0.69411765 0.81176471 0.36470588
v -0.09821476 -0.06380434 -0.06433198 0.84313725 0.96078431 0.68235294
v -0.00208124 -0.06435717 -0.22713695 0.69411765 0.80392157 0.36862745
v -0.06382518 -0.06404747 -0.19859973 0.68235294 0.79607843 0.36078431
v -0.08619255 -0.06284592 -0.08346942 0.83137255 0.95294118 0.64705882
v -0.07600317 -0.06369311 -0.15064585 0.69019608 0.80392157 0.36078431
v 0.02866538 -0.06459259 -0.22749021 0.71764706 0.82352941 0.37254902
v -0.08660207 -0.06329322 -0.16468294 0.67843137 0.79215686 0.36078431
v -0.06673202 -0.06395217 -0.17083207 0.65098039 0.76470588 0.32941176
v -0.11072106 -0.06054969 0.03130886 0.92549020 0.99215686 0.83137255
v 0.10237588 -0.06336082 -0.23092881 0.70588235 0.83137255 0.39607843
v -0.04271628 -0.06356148 -0.23521254 0.68235294 0.80784314 0.36078431
v -0.07229843 -0.06359758 -0.18837425 0.68235294 0.80392157 0.34901961
v -0.03077592 -0.06170894 -0.24441760 0.67058824 0.78039216 0.34509804
v -0.07298920 -0.06367133 -0.12638155 0.66274510 0.78823529 0.33333333
v 0.04139386 -0.06102447 -0.23832179 0.71372549 0.83137255 0.40000000
v -0.09823656 -0.06263976 -0.09567271 0.80000000 0.89411765 0.56078431
v -0.06656050 -0.06347419 -0.23226322 0.67058824 0.77254902 0.35686275
v 0.00420256 -0.06216972 -0.24113661 0.75686275 0.87058824 0.50980392
v -0.11023227 -0.05622844 0.00371540 0.94509804 0.99215686 0.87450980
v -0.09274489 -0.06206443 -0.13983202 0.71764706 0.83137255 0.37647059
v -0.08459962 -0.06165509 -0.20245392 0.67843137 0.80000000 0.35686275
v -0.07322869 -0.06067225 -0.21797980 0.70196078 0.81176471 0.36078431
v 0.09123746 -0.04572891 0.23674616 0.74509804 0.85882353 0.46274510
v -0.10595968 -0.05627868 -0.04635883 0.94117647 0.98823529 0.86274510
v -0.05243943 -0.06163988 0.00151312 0.79607843 0.90196078 0.47058824
v -0.05593648 -0.06076265 -0.24364995 0.69411765 0.81176471 0.37647059
v -0.08339053 -0.05787869 -0.24576182 0.69803922 0.82352941 0.40392157
v -0.02915256 -0.05590906 0.22451967 0.68235294 0.81176471 0.37254902
v 0.06932500 -0.06003262 -0.23657925 0.73333333 0.85098039 0.41960784
v -0.10308183 -0.05423747 -0.08497547 0.89411765 0.96078431 0.74509804
v 0.13460359 -0.05486108 -0.22966070 0.72156863 0.83529412 0.42352941
v -0.09427094 -0.05267026 -0.16496890 0.76862745 0.86666667 0.45098039
v -0.11470206 -0.05053667 0.05514774 0.90196078 0.96862745 0.80784314
v -0.04823026 -0.05289184 -0.24683364 0.76862745 0.89019608 0.50980392
v -0.02147623 -0.05450641 -0.24409188 0.83529412 0.94117647 0.64313725
v -0.08777359 -0.05717899 -0.21838636 0.77647059 0.88235294 0.45490196
v 0.03964927 -0.02400977 0.23410579 0.72549020 0.83921569 0.39607843
v -0.11812276 -0.05167301 0.21698986 0.73725490 0.86274510 0.43137255
v -0.12679976 -0.04557191 0.20512464 0.76470588 0.86274510 0.42745098
v -0.11613663 -0.02592409 0.10108423 0.90588235 0.97647059 0.81176471
v 0.12001132 0.00734708 -0.01994861 0.74901961 0.83921569 0.43137255
v -0.00771697 -0.04671179 -0.24622249 0.89019608 0.97647059 0.81568627
v -0.08364708 -0.04231185 -0.24801265 0.72156863 0.83529412 0.41176471
v 0.02412716 -0.04137775 -0.24280722 0.80784314 0.92156863 0.62352941
v -0.06268300 -0.04025674 -0.24718372 0.84313725 0.94117647 0.67843137
v -0.07023125 -0.03587065 0.22180358 0.73725490 0.86274510 0.41568627
v -0.12922622 -0.01339948 0.21491412 0.70196078 0.80784314 0.39215686
v 0.10894445 -0.01932247 0.06935189 0.77647059 0.87450980 0.44313725
v 0.09883323 -0.01975109 0.18758399 0.77254902 0.87058824 0.44313725
v -0.02416427 -0.03028498 -0.24563478 0.85882353 0.96470588 0.77647059
v 0.13870240 -0.00503108 -0.22642522 0.72549020 0.82352941 0.42745098
v 0.09722321 -0.02479683 0.23645359 0.75686275 0.87058824 0.51764706
v -0.04882678 -0.03967167 -0.25015012 0.88235294 0.98039216 0.80000000
v 0.10708685 -0.03146593 -0.23439214 0.73333333 0.84705882 0.41568627
v 0.12809389 0.02214496 -0.09158153 0.74901961 0.83921569 0.42745098
v -0.11589591 0.00382160 0.12497503 0.84313725 0.92941176 0.70588235
v -0.08835176 -0.00600328 -0.23906829 0.74509804 0.83921569 0.42745098
v -0.04514638 -0.02151789 -0.24683049 0.76470588 0.90196078 0.67450980
v -0.10165947 0.00406271 -0.06627215 0.89019608 0.95686275 0.74509804
v -0.11242167 -0.00091845 0.06400384 0.93333333 0.98823529 0.86274510
v -0.10862619 0.00058007 0.01589980 0.94509804 0.99215686 0.87843137
v 0.00880680 -0.03181146 -0.24308742 0.85490196 0.97254902 0.77647059
v -0.05613288 -0.01952213 -0.24887589 0.78039216 0.90196078 0.62745098
v 0.06828746 0.00633715 -0.23790910 0.73333333 0.85098039 0.42745098
v 0.03394756 -0.01674316 -0.24128814 0.82352941 0.94509804 0.69019608
v -0.00681746 -0.01866478 -0.24519085 0.81176471 0.94509804 0.72156863
v -0.03356537 -0.01994886 -0.24393299 0.81960784 0.94509804 0.72941176
v 0.13424980 0.01885325 -0.15781538 0.74901961 0.83921569 0.44705882
v -0.12060805 -0.00075744 0.18504790 0.79215686 0.89019608 0.45882353
v 0.09845573 -0.02195771 0.24371273 0.78431373 0.91764706 0.62745098
v -0.09651036 0.02380872 -0.12022369 0.75294118 0.85098039 0.43529412
v 0.01684545 -0.00395048 -0.24388900 0.83529412 0.95686275 0.74509804
v 0.11195350 0.01872341 0.06797161 0.77254902 0.86666667 0.45490196
v -0.09051713 0.07201514 -0.18382586 0.76862745 0.86274510 0.45490196
v -0.08196323 -0.00647490 -0.24645341 0.72156863 0.83921569 0.41568627
v 0.11224431 0.00704093 -0.23347741 0.71372549 0.82745098 0.40392157
v -0.11281283 -0.00343426 0.11345459 0.77647059 0.89803922 0.62352941
v 0.10138294 0.01095618 0.18836784 0.78431373 0.88235294 0.44705882
v 0.04007724 0.00937783 -0.24111370 0.80392157 0.92156863 0.63137255
v 0.07382803 0.00677292 0.23981624 0.72941176 0.83529412 0.42745098
v -0.05179716 0.00763394 -0.24614695 0.80392157 0.92156863 0.69803922
v -0.02260106 0.00512129 -0.24491817 0.83137255 0.95686275 0.73333333
v 0.05858397 0.02472012 0.24006967 0.73725490 0.85098039 0.41176471
v 0.09998120 0.02287897 0.23727049 0.75294118 0.85882353 0.48235294
v -0.11431618 0.00877353 0.10217945 0.89803922 0.97647059 0.80000000
v 0.00581197 0.00695465 -0.24159151 0.83529412 0.96078431 0.75294118
v -0.07855089 0.00724603 -0.25008559 0.72941176 0.84705882 0.45098039
v -0.11554514 0.06534283 0.22027090 0.47843137 0.69019608 0.30588235
v 0.01151310 0.06978802 0.23354824 0.73725490 0.85882353 0.40000000
v -0.08781992 0.05012924 -0.23440896 0.75686275 0.84313725 0.43921569
v -0.12761841 0.03428643 0.21724999 0.64705882 0.76470588 0.38431373
v 0.02788276 0.01763065 -0.24115223 0.76862745 0.88235294 0.52549020
v -0.11397570 0.06345154 0.12308676 0.81960784 0.90196078 0.60392157
v -0.08403250 0.03316791 -0.24500451 0.70588235 0.71372549 0.36862745
v 0.11608887 0.03090008 0.04309051 0.77254902 0.86274510 0.45882353
v 0.01108034 0.01815259 -0.24041374 0.87058824 0.96862745 0.77254902
v 0.12761235 0.04121196 -0.23106175 0.68627451 0.79607843 0.39607843
v -0.01955381 0.02470826 -0.24293644 0.79215686 0.91764706 0.60000000
v -0.05973148 0.02246034 -0.24610541 0.76862745 0.89019608 0.53725490
v 0.09190244 0.03788198 -0.23490130 0.67843137 0.80000000 0.39215686
v 0.13953204 0.06916395 -0.22745605 0.70196078 0.81176471 0.42745098
v -0.10821876 0.04850754 0.03644160 0.92156863 0.98823529 0.83921569
v 0.10267852 0.04310469 0.18698896 0.80000000 0.89019608 0.50980392
v 0.12506512 0.07056023 -0.04322773 0.75686275 0.84313725 0.46666667
v 0.05170340 0.04751960 -0.23856883 0.71764706 0.83529412 0.41568627
v 0.14208651 0.07225826 -0.22322955 0.74509804 0.84313725 0.47843137
v -0.01752167 0.08018278 0.23044753 0.72941176 0.85490196 0.39215686
v -0.12009671 0.04337756 0.18854002 0.63137255 0.76470588 0.37647059
v -0.10299516 0.07160898 -0.04624127 0.92549020 0.98039216 0.83921569
v -0.07252605 0.06576885 0.22499762 0.47058824 0.67843137 0.29803922
v -0.03606941 0.05436318 -0.24445225 0.74509804 0.85490196 0.44705882
v -0.10982099 0.06767724 0.02190303 0.93725490 0.98431373 0.87058824
v 0.13396813 0.08963967 -0.12481148 0.75294118 0.84313725 0.45098039
v 0.10997184 0.06848295 0.12850864 0.78039216 0.87450980 0.49803922
v 0.11638860 0.06921445 -0.23215133 0.70196078 0.81568627 0.42352941
v 0.10093199 0.05807173 0.23642561 0.79215686 0.88627451 0.52156863
v 0.05743017 0.07652573 0.24179375 0.72941176 0.83921569 0.42352941
v -0.09983551 0.07284161 -0.06112810 0.74509804 0.83921569 0.48235294
v -0.09479322 0.08635498 -0.11573491 0.74117647 0.83529412 0.43921569
v -0.07508643 0.05859250 -0.24598534 0.71764706 0.70196078 0.39215686
v 0.11820654 0.08064653 0.04055583 0.75686275 0.84705882 0.46666667
v 0.04212901 0.07683437 -0.23867086 0.71372549 0.82745098 0.40784314
v -0.12747342 0.06747906 0.21664938 0.39215686 0.59215686 0.26666667
v -0.11754330 0.07648832 0.15963432 0.65882353 0.77254902 0.42352941
v 0.13903644 0.07855720 -0.18284771 0.75294118 0.84313725 0.47058824
v 0.11323541 0.07525541 0.09157321 0.77647059 0.87058824 0.48627451
v -0.07706481 0.08807573 -0.24547947 0.67843137 0.47058824 0.26666667
v -0.11019824 0.07769123 0.06865039 0.81960784 0.90980392 0.71764706
v 0.10289654 0.09660887 -0.23255489 0.69803922 0.81176471 0.40000000
v 0.10096738 0.08436513 0.23959184 0.80000000 0.89803922 0.52156863
v -0.08315631 0.14048082 -0.23589789 0.71372549 0.71764706 0.36078431
v 0.10274157 0.06953864 0.17742715 0.77254902 0.87058824 0.49019608
v -0.11218966 0.09979071 0.22133643 0.64313725 0.80000000 0.38823529
v -0.10729643 0.08533111 0.02749973 0.91764706 0.97254902 0.83921569
v 0.08232829 0.10335299 0.24377354 0.76078431 0.86666667 0.45490196
v -0.09035503 0.08022540 -0.19675914 0.74117647 0.76078431 0.40392157
v -0.12547625 0.09087742 0.21889446 0.56078431 0.74509804 0.38823529
v -0.07812445 0.12327741 -0.24516430 0.68627451 0.58823529 0.31372549
v 0.10533078 0.10643812 0.20947165 0.77647059 0.87450980 0.45882353
v 0.00757981 0.11047825 -0.24012108 0.73333333 0.84705882 0.41568627
v -0.11242638 0.11594396 0.11792208 0.82352941 0.91372549 0.65098039
v -0.10031691 0.10923950 -0.02906590 0.87450980 0.94901961 0.72941176
v -0.03599629 0.10743777 -0.24273676 0.73725490 0.84313725 0.44313725
v -0.09169319 0.13164156 -0.12880613 0.75686275 0.85098039 0.43921569
v 0.05711323 0.11280872 -0.23618723 0.72549020 0.83529412 0.40784314
v -0.12384957 0.12968750 0.21261034 0.72549020 0.82745098 0.41176471
v -0.11898687 0.12248586 0.19381128 0.71764706 0.82352941 0.40784314
v 0.10433718 0.12214802 0.23838428 0.79215686 0.89411765 0.47058824
v -0.07176163 0.11116619 -0.24441346 0.70588235 0.77254902 0.41176471
v 0.11143710 0.12588101 0.13744934 0.77647059 0.87843137 0.44705882
v -0.10380689 0.12099750 0.01499323 0.90980392 0.97254902 0.82352941
v -0.04991179 0.15995891 0.22854160 0.82352941 0.93725490 0.45490196
v -0.12477645 0.12186211 0.22032201 0.72549020 0.83529412 0.42745098
v 0.13236700 0.14211539 -0.22814385 0.70588235 0.81176471 0.38039216
v 0.06684180 0.13491731 0.24436697 0.78431373 0.88627451 0.41960784
v 0.14611011 0.16673410 -0.22363760 0.71372549 0.76470588 0.38823529
v -0.08156014 0.19668649 -0.21783777 0.74117647 0.83137255 0.42352941
v 0.04354252 0.17537651 0.24066685 0.80784314 0.91764706 0.43529412
v 0.10904154 0.16873512 0.19419275 0.76862745 0.86666667 0.43921569
v -0.03630973 0.14311567 -0.24173017 0.73725490 0.85098039 0.41176471
v 0.13210319 0.15116551 -0.07964244 0.74117647 0.83137255 0.41176471
v -0.12062685 0.15847169 0.22096934 0.78039216 0.88627451 0.45490196
v 0.14201953 0.15811737 -0.17672009 0.76078431 0.85098039 0.43529412
v 0.12027967 0.17329144 0.06844948 0.76862745 0.87058824 0.43529412
v 0.12574141 0.16783370 0.00013291 0.74117647 0.82745098 0.41176471
v 0.08137321 0.14396058 0.24512131 0.81176471 0.92549020 0.44705882
v -0.12763868 0.13064925 0.22399841 0.80392157 0.93333333 0.61960784
v 0.01582704 0.14657645 0.23535988 0.81568627 0.92941176 0.43921569
v -0.10059449 0.15827990 0.00017253 0.93333333 0.98039216 0.86666667
v 0.10687092 0.17676608 0.24290825 0.78431373 0.89411765 0.50196078
v -0.09633552 0.17214518 -0.04622973 0.85098039 0.92549020 0.67058824
v -0.07603539 0.15578992 -0.24214891 0.72156863 0.83137255 0.40392157
v -0.10978703 0.15578636 0.10797840 0.80784314 0.89803922 0.59215686
v -0.11525281 0.20520501 0.20337023 0.76078431 0.85490196 0.44313725
v 0.06643572 0.16638973 -0.23313102 0.72156863 0.83137255 0.40000000
v -0.01315377 0.16765832 -0.23911429 0.72549020 0.83921569 0.40392157
v -0.08631906 0.19355490 -0.15614110 0.74509804 0.83921569 0.42745098
v 0.13830763 0.19737202 -0.12083469 0.73333333 0.82352941 0.41176471
v 0.08605487 0.18288548 0.24202373 0.80000000 0.91764706 0.46274510
v -0.07853615 0.20600103 -0.23602912 0.70980392 0.80784314 0.40000000
v -0.10486432 0.19772204 0.07366926 0.75294118 0.84313725 0.43529412
v 0.12802802 0.20200716 -0.01946024 0.72549020 0.82352941 0.40000000
v -0.07571890 0.19176497 -0.24203253 0.71764706 0.82745098 0.39607843
v -0.02876941 0.19827842 0.23177029 0.81960784 0.93725490 0.43921569
v -0.10964667 0.20783909 0.14763780 0.75294118 0.84313725 0.44313725
v 0.11650518 0.19541305 0.12285178 0.75686275 0.85490196 0.42745098
v -0.10721013 0.21166907 0.22401131 0.81568627 0.92549020 0.46274510
v 0.14337072 0.20037852 -0.22395094 0.65882353 0.47843137 0.24313725
v 0.10317250 0.20073460 -0.22832476 0.64705882 0.75294118 0.34901961
v -0.10162737 0.21085555 0.04769013 0.76862745 0.85882353 0.50588235
v 0.11999270 0.20135855 0.07743697 0.72941176 0.83137255 0.40784314
v 0.04431458 0.20672353 -0.23151572 0.67450980 0.78431373 0.36862745
v -0.09352198 0.21087251 -0.04914800 0.79215686 0.88235294 0.56470588
v 0.05255516 0.20036981 0.23817910 0.80000000 0.90588235 0.42352941
v -0.09825729 0.20400563 -0.00640149 0.92549020 0.99215686 0.85882353
v -0.11272973 0.21650641 0.22062457 0.70980392 0.81960784 0.38431373
v -0.00864289 0.20854604 -0.23641833 0.70980392 0.81960784 0.39215686
v 0.10678258 0.19861166 0.24112315 0.78431373 0.90196078 0.54117647
v 0.14730129 0.20383625 -0.22060368 0.64313725 0.56862745 0.28235294
v 0.10983344 0.19984338 0.19951736 0.78039216 0.89019608 0.46666667
v 0.13908603 0.20281585 -0.13734320 0.69411765 0.78823529 0.38431373
v -0.06341663 0.20869647 -0.24013332 0.70980392 0.82352941 0.39215686
v 0.02298504 0.20603202 0.23422740 0.73333333 0.84313725 0.36078431
v 0.10315721 0.20168113 0.21902070 0.67450980 0.78823529 0.38039216
v 0.13150054 0.20639919 -0.21942223 0.51372549 0.43529412 0.20392157
v 0.11114949 0.20444688 0.15105086 0.65882353 0.76470588 0.31764706
v 0.08361138 0.20509778 0.20061782 0.65882353 0.76078431 0.29803922
v 0.12741383 0.20626821 -0.05390729 0.59215686 0.69019608 0.30196078
v -0.08480731 0.21363943 -0.13385463 0.69411765 0.78431373 0.39215686
v 0.11573424 0.20556497 0.07787452 0.61176471 0.71372549 0.29411765
v 0.13208284 0.20638707 -0.15130462 0.55294118 0.63921569 0.28235294
v -0.03573241 0.21258199 -0.23548680 0.58431373 0.68235294 0.31372549
v -0.06513478 0.21188324 0.22612646 0.69019608 0.80392157 0.32549020
v 0.08392054 0.20887163 0.11137148 0.60784314 0.71372549 0.29019608
v 0.06167918 0.20873332 0.15956716 0.64313725 0.74509804 0.30196078
v 0.07586960 0.20881809 -0.22553824 0.54509804 0.63921569 0.29019608
v 0.06707815 0.21003345 0.03211522 0.59607843 0.69411765 0.29803922
v 0.07497946 0.21011187 -0.10686041 0.57254902 0.66274510 0.29803922
v 0.07232749 0.21034417 -0.20885858 0.55294118 0.64313725 0.29019608
v 0.00355225 0.21107884 0.17286014 0.62745098 0.73333333 0.29411765
v -0.07463113 0.21484618 -0.23153739 0.64705882 0.74117647 0.36078431
v -0.10760349 0.21467960 0.15293652 0.69019608 0.78823529 0.39607843
v 0.00203612 0.21355717 -0.22423165 0.56862745 0.66274510 0.29803922
v 0.03619278 0.21162100 0.11398368 0.61960784 0.72941176 0.30196078
v 0.00828176 0.21297113 0.06158872 0.60392157 0.69803922 0.29803922
v -0.09065270 0.21632990 -0.04306489 0.72941176 0.84313725 0.54509804
v -0.09486408 0.21643526 0.01444131 0.76862745 0.88235294 0.61568627
v 0.01770474 0.21356386 -0.17052037 0.56862745 0.65882353 0.29803922
v -0.07987298 0.21505940 0.15591543 0.63529412 0.74509804 0.30980392
v -0.04860432 0.21579663 -0.03681094 0.68235294 0.78823529 0.45882353
v -0.05235696 0.21596417 -0.22142548 0.55686275 0.64313725 0.29411765
v -0.05315327 0.21518067 0.09849567 0.59215686 0.69411765 0.29411765
v -0.09871569 0.21616143 0.08421984 0.62352941 0.72156863 0.32549020
v -0.11007581 0.21602431 0.19187926 0.65098039 0.76078431 0.32156863
v -0.07432001 0.21664060 -0.18399874 0.59215686 0.68235294 0.32156863
v -0.07927168 0.21679863 -0.09596277 0.57647059 0.66666667 0.30588235
f 12 5 37
f 21 2 40
f 20 15 8
f 58 20 53
f 17 20 58
f 23 54 72
f 19 1 23
f 8 36 44
f 150 5 12
f 62 63 100
f 38 25 26
f 100 63 82
f 44 73 68
f 17 15 20
f 70 53 20
f 47 46 69
f 45 11 13
f 8 66 36
f 71 57 76
f 8 15 66
f 6 24 96
f 79 48 59
f 17 52 15
f 2 58 50
f 15 52 55
f 41 60 141
f 58 2 17
f 60 62 100
f 52 21 81
f 32 56 86
f 1 54 23
f 87 47 69
f 10 7 43
f 50 58 84
f 55 66 15
f 1 11 54
f 50 84 42
f 44 36 73
f 47 87 42
f 21 17 2
f 97 11 45
f 89 73 19
f 36 66 67
f 8 44 70
f 68 73 89
f 65 29 104
f 64 62 172
f 14 4 95
f 29 35 105
f 106 74 75
f 103 64 143
f 111 77 110
f 79 34 48
f 24 6 99
f 113 60 111
f 41 77 111
f 111 60 41
f 92 134 125
f 29 127 104
f 148 33 175
f 2 50 40
f 49 123 142
f 45 56 108
f 87 40 50
f 21 90 81
f 142 157 116
f 40 90 21
f 81 71 138
f 42 87 50
f 26 156 132
f 129 6 96
f 94 99 101
f 67 66 55
f 98 71 81
f 58 53 84
f 20 8 70
f 98 57 71
f 78 87 69
f 88 122 118
f 34 91 48
f 68 88 118
f 78 121 87
f 95 42 14
f 22 10 43
f 56 32 108
f 52 17 21
f 125 136 75
f 11 97 54
f 67 55 85
f 51 107 7
f 59 61 135
f 10 51 7
f 135 61 102
f 61 59 48
f 71 114 138
f 91 34 51
f 70 44 153
f 84 139 115
f 32 86 83
f 73 56 19
f 89 88 68
f 67 56 73
f 85 83 86
f 81 138 52
f 73 36 67
f 54 140 72
f 105 7 107
f 6 129 137
f 150 28 119
f 56 45 19
f 156 25 27
f 83 94 32
f 95 47 42
f 86 56 67
f 144 88 23
f 46 47 95
f 126 35 14
f 147 75 136
f 166 128 152
f 149 83 85
f 40 87 121
f 134 92 75
f 94 101 80
f 46 95 4
f 99 6 137
f 134 74 188
f 23 88 155
f 37 5 150
f 114 169 85
f 51 34 107
f 44 68 153
f 137 101 99
f 19 23 155
f 130 93 124
f 93 76 57
f 124 161 130
f 52 138 55
f 97 140 54
f 138 114 85
f 71 76 114
f 42 115 14
f 133 207 63
f 131 167 170
f 126 22 43
f 64 103 62
f 112 33 145
f 102 190 135
f 173 233 193
f 89 19 88
f 149 85 169
f 146 38 18
f 28 150 18
f 111 168 215
f 12 37 18
f 112 145 161
f 126 115 139
f 124 93 57
f 150 12 18
f 108 97 45
f 123 120 117
f 126 14 115
f 192 183 93
f 182 177 151
f 121 98 90
f 186 143 162
f 149 169 197
f 84 115 42
f 33 146 145
f 153 68 118
f 85 86 67
f 53 180 84
f 121 161 124
f 139 84 180
f 127 29 105
f 90 40 121
f 122 144 158
f 159 156 27
f 34 79 194
f 81 90 98
f 176 166 140
f 148 175 112
f 116 157 106
f 72 144 23
f 75 116 106
f 120 167 117
f 148 112 46
f 147 116 75
f 211 185 149
f 94 185 154
f 134 135 190
f 112 69 46
f 35 43 105
f 134 190 125
f 190 102 125
f 185 94 83
f 144 152 158
f 94 80 32
f 19 45 13
f 10 22 212
f 19 155 88
f 146 18 200
f 210 133 103
f 142 116 147
f 77 41 141
f 199 37 150
f 106 159 74
f 25 38 146
f 55 138 85
f 204 91 51
f 26 25 156
f 74 134 75
f 112 161 69
f 124 57 98
f 228 206 119
f 140 166 144
f 121 124 98
f 204 48 91
f 180 53 70
f 205 176 97
f 144 166 152
f 97 176 140
f 159 106 156
f 123 117 142
f 32 80 108
f 69 161 121
f 168 197 169
f 188 27 31
f 196 158 152
f 132 119 28
f 117 179 157
f 187 123 49
f 33 25 146
f 137 163 101
f 30 148 46
f 117 157 142
f 99 94 154
f 107 34 194
f 185 83 149
f 76 168 169
f 170 151 131
f 154 96 99
f 88 144 122
f 100 141 60
f 174 173 171
f 151 177 131
f 63 62 103
f 26 132 28
f 63 103 133
f 171 197 174
f 211 197 171
f 184 181 178
f 178 206 184
f 99 96 24
f 103 186 210
f 143 64 183
f 183 192 143
f 186 103 143
f 33 112 175
f 27 188 159
f 80 97 108
f 49 142 147
f 43 7 105
f 60 172 62
f 173 193 171
f 172 60 113
f 205 101 163
f 219 96 193
f 163 208 176
f 93 183 113
f 93 113 76
f 205 163 176
f 189 167 131
f 74 159 188
f 37 210 200
f 166 201 128
f 43 35 126
f 198 214 231
f 72 140 144
f 237 208 241
f 203 222 191
f 152 128 196
f 149 197 211
f 76 215 168
f 178 221 199
f 158 196 222
f 177 231 131
f 143 192 130
f 204 160 48
f 78 69 121
f 111 197 168
f 114 76 169
f 187 120 123
f 167 120 170
f 213 151 238
f 31 65 188
f 93 130 192
f 229 137 129
f 80 101 97
f 237 201 208
f 130 162 143
f 229 129 236
f 201 224 128
f 164 145 200
f 106 157 156
f 134 188 225
f 208 201 176
f 59 135 79
f 188 65 104
f 122 158 203
f 118 122 262
f 128 224 232
f 164 162 161
f 209 117 167
f 145 164 161
f 185 96 154
f 209 228 179
f 166 176 201
f 146 200 145
f 179 117 209
f 202 259 207
f 162 130 161
f 170 120 187
f 196 232 244
f 212 126 139
f 113 215 76
f 259 202 257
f 207 133 202
f 240 243 174
f 97 101 205
f 179 119 132
f 264 240 77
f 245 264 77
f 18 37 200
f 174 243 233
f 77 141 245
f 162 164 186
f 158 222 203
f 233 173 174
f 198 231 177
f 200 186 164
f 233 217 193
f 119 206 150
f 198 235 218
f 270 239 236
f 122 203 262
f 137 229 163
f 105 107 127
f 218 253 260
f 207 247 82
f 253 218 256
f 163 234 208
f 228 195 206
f 96 185 193
f 236 129 252
f 230 257 202
f 82 63 207
f 234 227 208
f 193 217 219
f 198 218 214
f 125 75 92
f 64 172 183
f 178 199 206
f 269 246 191
f 215 113 111
f 127 194 104
f 113 183 172
f 194 127 107
f 181 260 178
f 240 264 242
f 37 199 221
f 202 248 230
f 174 110 240
f 189 209 167
f 256 218 235
f 188 104 194
f 247 100 82
f 203 191 250
f 223 229 236
f 232 196 128
f 206 199 150
f 224 237 279
f 260 251 249
f 227 241 208
f 179 228 119
f 255 241 227
f 37 221 265
f 247 271 100
f 223 234 229
f 237 224 201
f 219 252 129
f 132 157 179
f 37 265 210
f 157 132 156
f 244 269 196
f 220 242 245
f 229 234 163
f 210 186 200
f 270 236 252
f 246 250 191
f 245 271 220
f 135 134 225
f 242 274 240
f 178 265 221
f 238 170 187
f 272 223 239
f 237 241 275
f 254 244 232
f 226 224 261
f 251 257 230
f 77 240 110
f 254 232 226
f 259 247 207
f 209 195 228
f 268 198 177
f 212 22 126
f 227 263 255
f 271 245 141
f 210 265 133
f 219 129 96
f 182 268 177
f 255 263 241
f 245 242 264
f 236 239 223
f 214 181 184
f 184 206 195
f 260 265 178
f 269 244 283
f 189 231 214
f 246 269 283
f 110 174 197
f 165 182 213
f 110 197 111
f 171 193 185
f 151 170 238
f 214 218 181
f 218 260 181
f 265 249 248
f 289 258 277
f 270 252 287
f 253 251 260
f 222 196 269
f 217 267 277
f 214 184 195
f 188 194 225
f 257 251 253
f 227 272 263
f 185 211 171
f 279 261 224
f 220 247 259
f 217 277 258
f 189 214 195
f 287 278 270
f 285 272 281
f 223 272 234
f 131 231 189
f 225 79 135
f 265 202 133
f 227 234 272
f 213 182 151
f 273 284 275
f 251 230 249
f 254 261 288
f 275 279 237
f 195 209 189
f 233 243 267
f 248 202 265
f 222 269 191
f 261 279 288
f 219 217 252
f 242 220 292
f 232 224 226
f 272 285 263
f 274 289 277
f 275 291 279
f 259 282 220
f 273 263 276
f 244 254 283
f 79 225 194
f 274 267 243
f 141 100 271
f 233 267 217
f 217 258 252
f 276 294 295
f 268 235 198
f 293 278 287
f 242 297 274
f 275 284 286
f 266 268 182
f 281 272 239
f 275 286 291
f 278 239 270
f 243 240 274
f 273 241 263
f 249 230 248
f 220 271 247
f 261 254 226
f 284 290 299
f 262 203 250
f 280 278 293
f 165 266 182
f 285 276 263
f 260 249 265
f 275 241 273
f 252 258 287
f 288 302 254
f 279 291 288
f 278 281 239
f 286 284 299
f 274 277 267
f 49 147 301
f 259 257 282
f 147 136 301
f 292 220 282
f 285 281 280
f 118 262 153
f 289 293 287
f 278 280 281
f 289 287 258
f 180 70 153
f 273 276 295
f 285 294 276
f 280 293 305
f 274 303 289
f 282 257 306
f 304 250 246
f 238 187 301
f 273 290 284
f 303 274 297
f 125 102 296
f 295 290 273
f 297 242 292
f 300 307 299
f 294 285 305
f 295 299 290
f 299 307 286
f 300 295 309
f 253 306 257
f 291 286 308
f 187 49 301
f 300 299 295
f 294 309 295
f 266 165 213
f 280 305 285
f 51 10 212
f 306 292 282
f 216 296 102
f 283 254 302
f 289 305 293
f 216 160 296
f 268 266 312
f 266 213 311
f 153 321 180
f 308 286 307
f 311 213 238
f 309 294 305
f 256 313 253
f 283 304 246
f 310 136 125
f 125 296 310
f 266 311 320
f 250 304 324
f 291 308 315
f 310 301 136
f 307 300 318
f 322 204 51
f 321 139 180
f 313 306 253
f 268 256 235
f 319 238 301
f 302 288 317
f 289 303 305
f 317 288 291
f 316 318 300
f 308 307 326
f 296 160 325
f 315 308 323
f 300 309 316
f 321 212 139
f 315 317 291
f 283 302 327
f 153 262 328
f 327 302 317
f 309 305 330
f 321 153 314
f 301 310 319
f 311 238 319
f 318 326 307
f 256 329 313
f 308 326 323
f 322 325 160
f 331 323 326
f 306 334 292
f 333 306 313
f 315 335 317
f 51 212 322
f 303 332 305
f 333 334 306
f 309 330 316
f 326 318 336
f 327 317 337
f 262 250 341
f 315 323 339
f 312 342 268
f 256 268 342
f 314 153 328
f 326 336 331
f 317 335 338
f 335 315 339
f 337 317 338
f 160 204 322
f 325 310 296
f 341 250 324
f 297 292 332
f 266 320 312
f 338 335 345
f 340 323 331
f 339 345 335
f 322 212 346
f 329 256 342
f 303 297 332
f 340 339 323
f 283 327 304
f 318 316 348
f 348 336 318
f 321 346 212
f 344 347 305
f 305 347 330
f 349 304 327
f 325 353 310
f 319 310 362
f 313 329 350
f 328 262 341
f 348 316 330
f 337 338 352
f 313 358 333
f 311 319 361
f 339 340 355
f 340 331 355
f 332 292 334
f 350 358 313
f 320 311 361
f 332 344 305
f 356 362 310
f 331 336 354
f 352 338 345
f 322 346 351
f 354 336 360
f 336 348 360
f 353 325 357
f 339 355 359
f 330 360 348
f 361 364 320
f 345 339 359
f 363 330 347
f 355 331 354
f 350 329 358
f 310 353 356
f 337 349 327
f 329 342 366
f 314 346 321
f 352 345 365
f 357 325 322
f 304 349 370
f 330 367 360
f 345 359 369
f 371 355 354
f 360 372 354
f 345 369 365
f 368 346 314
f 324 304 374
f 312 381 342
f 370 374 304
f 351 357 322
f 371 359 355
f 346 376 351
f 372 360 367
f 381 366 342
f 369 359 371
f 357 351 376
f 341 324 379
f 314 328 377
f 337 352 378
f 375 334 333
f 365 369 371
f 379 324 374
f 354 372 371
f 380 383 319
f 329 366 358
f 365 378 352
f 337 373 349
f 332 334 382
f 378 373 337
f 319 383 361
f 381 312 320
f 382 334 385
f 373 388 349
f 367 330 363
f 380 319 362
f 357 376 389
f 358 375 333
f 346 387 376
f 371 372 384
f 334 375 385
f 384 372 367
f 370 349 388
f 320 396 381
f 362 356 390
f 332 391 344
f 365 371 384
f 386 328 341
f 328 386 377
f 356 353 390
f 344 392 347
f 382 391 332
f 396 320 364
f 357 389 353
f 384 367 393
f 394 346 368
f 366 381 397
f 387 346 399
f 394 368 314
f 393 367 400
f 398 341 379
f 395 378 365
f 375 358 401
f 384 395 365
f 396 364 361
f 378 402 373
f 401 358 366
f 394 399 346
f 387 405 376
f 361 383 406
f 394 314 377
f 353 389 403
f 391 392 344
f 367 363 404
f 385 375 407
f 402 378 395
f 397 381 396
f 388 373 402
f 390 353 408
f 389 376 405
f 386 341 398
f 347 409 363
f 388 374 370
f 404 411 367
f 367 411 400
f 396 361 410
f 392 409 347
f 409 404 363
f 395 384 413
f 405 412 389
f 353 403 408
f 397 401 366
f 402 395 418
f 401 397 414
f 416 384 393
f 382 385 407
f 416 413 384
f 400 416 393
f 415 391 382
f 380 406 383
f 407 375 401
f 403 389 421
f 410 419 396
f 420 396 419
f 392 391 415
f 412 421 389
f 410 361 406
f 415 382 407
f 420 397 396
f 390 408 428
f 407 401 424
f 409 392 417
f 395 413 418
f 422 416 400
f 374 388 427
f 402 427 388
f 426 419 410
f 398 379 429
f 387 399 423
f 415 407 424
f 406 426 410
f 405 387 432
f 404 409 430
f 399 394 437
f 406 380 425
f 377 386 434
f 405 432 412
f 424 401 414
f 374 429 379
f 408 403 421
f 429 436 398
f 422 400 411
f 390 431 362
f 430 409 417
f 427 402 418
f 423 432 387
f 414 397 420
f 394 377 438
f 427 429 374
f 408 421 439
f 412 432 421
f 413 416 433
f 426 406 435
f 428 408 439
f 398 436 386
f 422 433 416
f 431 390 428
f 444 417 392
f 411 404 445
f 411 433 422
f 415 444 392
f 434 438 377
f 425 380 441
f 423 399 437
f 441 380 362
f 424 442 415
f 419 426 435
f 433 411 445
f 433 449 413
f 427 418 448
f 424 414 446
f 362 431 441
f 444 450 417
f 448 418 413
f 446 442 424
f 434 386 451
f 414 420 447
f 415 442 444
f 447 446 414
f 436 451 386
f 423 437 432
f 437 394 438
f 421 432 443
f 448 413 449
f 428 439 431
f 430 417 450
f 431 439 452
f 443 452 421
f 439 421 452
f 430 453 404
f 425 441 457
f 419 447 420
f 445 404 453
f 445 456 433
f 438 434 455
f 442 446 454
f 435 406 425
f 458 454 446
f 442 454 463
f 447 458 446
f 432 437 459
f 435 425 460
f 427 448 462
f 429 427 461
f 462 461 427
f 467 431 452
f 449 433 456
f 456 445 453
f 442 463 468
f 455 434 451
f 437 438 464
f 470 448 449
f 419 435 469
f 456 470 449
f 472 436 429
f 443 432 471
f 444 442 468
f 447 419 469
f 460 425 457
f 441 431 457
f 467 457 431
f 451 436 474
f 459 437 464
f 471 432 473
f 450 444 466
f 432 459 473
f 435 460 469
f 452 443 471
f 448 470 465
f 436 472 474
f 472 429 461
f 465 462 448
f 456 475 470
f 466 482 450
f 455 464 438
f 457 467 476
f 471 467 452
f 471 473 477
f 473 464 479
f 464 473 459
f 480 471 477
f 477 473 479
f 461 462 478
f 472 461 478
f 476 467 471
f 474 481 451
f 455 451 481
f 458 463 454
f 483 479 464
f 455 483 464
f 494 430 450
f 470 475 485
f 472 484 474
f 484 472 478
f 479 480 477
f 480 476 471
f 481 483 455
f 489 462 465
f 483 487 479
f 480 479 488
f 487 488 479
f 484 481 474
f 462 489 478
f 478 492 484
f 468 466 444
f 481 490 483
f 481 484 491
f 487 483 490
f 476 486 457
f 489 492 478
f 453 430 494
f 491 484 492
f 488 493 480
f 480 493 476
f 460 457 486
f 456 453 475
f 493 486 476
f 481 491 490
f 487 497 488
f 490 498 487
f 458 447 495
f 487 498 497
f 496 489 465
f 492 489 496
f 465 470 485
f 499 466 468
f 497 493 488
f 482 494 450
f 463 500 468
f 475 453 494
f 491 492 501
f 499 468 500
f 496 465 485
f 486 493 502
f 458 495 463
f 485 475 494
f 503 498 490
f 502 507 486
f 498 505 497
f 492 504 501
f 492 496 504
f 503 490 491
f 507 469 486
f 505 493 497
f 495 506 463
f 506 500 463
f 499 482 466
f 501 503 491
f 447 469 495
f 469 460 486
f 505 502 493
f 469 507 495
f 494 482 508
f 504 485 494
f 505 498 503
f 485 504 496
f 482 499 509
f 495 507 502
f 505 503 500
f 501 504 509
f 501 509 503
f 500 506 505
f 506 502 505
f 502 506 495
f 504 508 509
f 499 500 503
f 504 494 508
f 509 499 503
f 508 482 509
f 1 19 13
f 13 11 1
f 33 148 30
f 30 46 16
f 25 33 30
f 27 25 30
f 31 27 30
f 65 31 30
f 4 14 35
f 35 29 65
f 16 46 4
f 65 30 16
f 4 35 65
f 65 16 4
f 28 18 38
f 38 26 28
f 61 48 160
f 216 102 61
f 61 160 216

